<?xml version="1.0" encoding="UTF-8"?>
<svg id="Layer_2" data-name="Layer 2" xmlns="http://www.w3.org/2000/svg" viewBox="0 0 162.81 294.66">
  <g id="Layer_1-2" data-name="Layer 1">
    <g>
      <path d="M8.16,33.7H48.81c3.16,0,5.9-1.8,7.25-4.43,4.59-3.56,10.3-7.2,18.07-1.14,.61,.62,1.26,1.18,1.96,1.69,0,0,0,0,.01,.01h0c2.66,1.94,5.94,3.1,9.49,3.1,4.44,0,8.46-1.8,11.37-4.71,10.61-10.61,27.8-10.61,38.41,0,2.91,2.91,6.93,4.71,11.37,4.71,8.88,0,16.08-7.2,16.08-16.08S155.62,.77,146.74,.77c-4.44,0-8.46,1.8-11.37,4.71-10.61,10.61-27.8,10.61-38.41,0-2.91-2.91-6.93-4.71-11.37-4.71-3.55,0-6.83,1.15-9.49,3.1h0s0,0-.01,0c-.7,.51-1.35,1.08-1.96,1.7-7.81,6.09-13.5,2.37-18.1-1.21-1.37-2.59-4.08-4.36-7.22-4.36H8.16C3.65,0,0,3.65,0,8.16V25.54c0,4.5,3.65,8.16,8.16,8.16Z"/>
      <path d="M8.16,138.08H48.81c3.16,0,5.9-1.8,7.25-4.43,4.59-3.56,10.3-7.2,18.07-1.14,.61,.62,1.26,1.18,1.96,1.69,0,0,0,0,.01,.01h0c2.66,1.95,5.94,3.1,9.49,3.1,8.88,0,16.08-7.2,16.08-16.08,0-4.44-1.8-8.46-4.71-11.37-8.13-8.13-8.13-21.32,0-29.46,2.91-2.91,4.71-6.93,4.71-11.37,0-8.88-7.2-16.08-16.08-16.08-3.55,0-6.83,1.15-9.49,3.1h0s0,0-.01,0c-.7,.51-1.35,1.08-1.96,1.7-7.81,6.09-13.5,2.37-18.1-1.21-1.37-2.59-4.08-4.36-7.22-4.36H8.16c-4.5,0-8.16,3.65-8.16,8.16v17.39c0,4.5,3.65,8.16,8.16,8.16H48.81c3.16,0,5.9-1.8,7.25-4.43,4.59-3.56,10.3-7.2,18.07-1.14,.03,.03,.06,.06,.09,.09,8.13,8.13,8.13,21.32,0,29.46-.03,.03-.06,.06-.09,.1-7.81,6.09-13.5,2.37-18.1-1.21-1.37-2.59-4.08-4.36-7.22-4.36H8.16c-4.5,0-8.16,3.65-8.16,8.16v17.39c0,4.5,3.65,8.16,8.16,8.16Z"/>
      <path d="M85.59,261.73c-3.55,0-6.83,1.15-9.49,3.1h0s0,0-.01,0c-.7,.51-1.35,1.08-1.96,1.7-7.81,6.09-13.5,2.37-18.1-1.21-1.37-2.59-4.08-4.36-7.22-4.36H8.16c-4.5,0-8.16,3.65-8.16,8.16v17.39c0,4.5,3.65,8.16,8.16,8.16H48.81c3.16,0,5.9-1.8,7.25-4.43,4.59-3.56,10.3-7.2,18.07-1.14,.61,.62,1.26,1.18,1.96,1.69,0,0,0,0,.01,.01h0c2.66,1.94,5.94,3.1,9.49,3.1,8.88,0,16.08-7.2,16.08-16.08s-7.2-16.08-16.08-16.08Z"/>
      <circle cx="146.74" cy="69.04" r="16.08" transform="translate(63.57 208.26) rotate(-84.35)"/>
      <circle cx="146.74" cy="121.23" r="16.08" transform="translate(-3.14 3.9) rotate(-1.51)"/>
      <path d="M146.74,157.35c-4.44,0-8.46,1.8-11.37,4.71-10.61,10.61-27.8,10.61-38.41,0-2.91-2.91-6.93-4.71-11.37-4.71-3.55,0-6.83,1.15-9.49,3.1h0s0,0-.01,0c-.7,.51-1.35,1.08-1.96,1.7-7.81,6.09-13.5,2.37-18.1-1.21-1.37-2.59-4.08-4.36-7.22-4.36H8.16c-4.5,0-8.16,3.65-8.16,8.16v17.39c0,4.5,3.65,8.16,8.16,8.16H48.81c3.16,0,5.9-1.8,7.25-4.43,4.59-3.56,10.3-7.2,18.07-1.14,.61,.62,1.26,1.18,1.96,1.69,0,0,0,0,.01,.01h0c2.66,1.94,5.94,3.1,9.49,3.1,4.44,0,8.46-1.8,11.37-4.71,10.61-10.61,27.8-10.61,38.41,0,2.91,2.91,6.93,4.71,11.37,4.71,8.88,0,16.08-7.2,16.08-16.08s-7.2-16.08-16.08-16.08Z"/>
      <path d="M162.81,225.62c0-8.88-7.2-16.08-16.08-16.08-4.44,0-8.46,1.8-11.37,4.71-10.61,10.61-27.8,10.61-38.41,0-2.91-2.91-6.93-4.71-11.37-4.71-3.55,0-6.83,1.15-9.49,3.1h0s0,0-.01,0c-.7,.51-1.35,1.08-1.96,1.7-7.81,6.09-13.5,2.37-18.1-1.21-1.37-2.59-4.08-4.36-7.22-4.36H8.16c-4.5,0-8.16,3.65-8.16,8.16v17.39c0,4.5,3.65,8.16,8.16,8.16H48.81c3.16,0,5.9-1.8,7.25-4.43,4.59-3.56,10.3-7.2,18.07-1.14,.61,.62,1.26,1.18,1.96,1.69,0,0,0,0,.01,.01h0c2.66,1.95,5.94,3.1,9.49,3.1,4.44,0,8.46-1.8,11.37-4.71,10.61-10.61,27.8-10.61,38.41,0,8.13,8.13,8.13,21.32,0,29.46-2.91,2.91-4.71,6.93-4.71,11.37,0,8.88,7.2,16.08,16.08,16.08s16.08-7.2,16.08-16.08c0-4.44-1.8-8.46-4.71-11.37-8.13-8.13-8.13-21.32,0-29.46,2.91-2.91,4.71-6.93,4.71-11.37Z"/>
    </g>
  </g>
</svg>