<?xml version="1.0" encoding="UTF-8"?>
<svg id="Layer_2" data-name="Layer 2" xmlns="http://www.w3.org/2000/svg" viewBox="0 0 230.29 55.65">
  <g id="Layer_1-2" data-name="Layer 1">
    <g>
      <path d="M202.46,0H27.82C12.48,0,0,12.48,0,27.82s12.48,27.82,27.82,27.82H202.46c15.34,0,27.82-12.48,27.82-27.82S217.81,0,202.46,0Zm0,50.32H27.82c-12.42,0-22.49-10.07-22.49-22.49h0C5.33,15.4,15.4,5.33,27.82,5.33H202.46c12.42,0,22.49,10.07,22.49,22.49h0c0,12.42-10.07,22.49-22.49,22.49Z"/>
      <polygon points="37.48 11.34 34.51 20.75 33.16 25.59 31.8 20.46 28.98 11.34 22.15 11.34 20.58 43.45 25.71 43.45 26.25 25.15 26.42 18.05 27.77 22.96 30.99 33.89 34.78 33.89 38.34 22.96 39.89 18.05 40.11 25.3 40.7 43.45 46.03 43.45 44.43 11.34 37.48 11.34"/>
      <polygon points="67.18 20.21 67.18 34.39 65.64 30.63 56.86 11.34 49.44 11.34 49.44 43.45 54.95 43.45 54.95 33.48 54.95 20.16 56.72 24.29 65.32 43.45 72.69 43.45 72.69 11.34 67.18 11.34 67.18 20.21"/>
      <polygon points="76.74 16.38 85.54 16.38 85.54 43.45 91.73 43.45 91.73 16.38 100.52 16.38 100.52 11.34 76.74 11.34 76.74 16.38"/>
      <path d="M121.82,29.53c-.66-.73-1.38-1.18-2.16-1.34,1.02-.16,1.95-.45,2.81-.86,.86-.41,1.6-.95,2.22-1.61,.62-.66,1.11-1.45,1.45-2.37,.34-.92,.52-1.97,.52-3.14,0-1.64-.27-3.02-.82-4.15-.55-1.13-1.33-2.05-2.35-2.75-1.02-.7-2.24-1.21-3.69-1.51-1.44-.3-3.05-.45-4.82-.45h-9.36V43.45h6.04v-13.29h1.15c1.03,0,1.93,.25,2.69,.75,.76,.5,1.36,1.24,1.78,2.22l4.52,10.32h7.1l-5.13-10.76c-.66-1.38-1.31-2.43-1.97-3.16Zm-3.19-5.27c-.54,.39-1.19,.69-1.95,.88-.76,.2-1.61,.29-2.54,.29h-2.46v-9.07h2.65c2,0,3.5,.34,4.5,1.03s1.5,1.82,1.5,3.39c0,.75-.15,1.42-.44,2-.29,.58-.71,1.07-1.25,1.46Z"/>
      <path d="M153.33,28.75c-.6-.63-1.31-1.15-2.15-1.55s-1.77-.68-2.8-.85c1.61-.64,2.85-1.56,3.75-2.76,.89-1.2,1.34-2.78,1.34-4.73,0-1.23-.23-2.34-.69-3.34s-1.14-1.85-2.05-2.54c-.91-.7-2.03-1.23-3.37-1.61s-2.89-.57-4.66-.57c-.74,0-1.45,.02-2.14,.07s-1.37,.13-2.04,.25c-.67,.11-1.34,.25-2.01,.42-.67,.16-1.38,.37-2.11,.61v5.04c1.33-.41,2.61-.74,3.86-.98,1.24-.25,2.51-.37,3.78-.37,1.79,0,3.1,.34,3.96,1.02,.85,.68,1.28,1.67,1.28,2.99,0,.64-.11,1.25-.32,1.83-.21,.58-.57,1.09-1.07,1.51-.5,.43-1.17,.77-2.01,1.02-.84,.25-1.9,.38-3.18,.38h-3.27v4.57h3.56c1.36,0,2.53,.11,3.53,.33,.99,.22,1.81,.53,2.44,.93,.64,.4,1.11,.89,1.42,1.46,.31,.57,.47,1.21,.47,1.92,0,.8-.15,1.52-.45,2.16-.3,.64-.77,1.18-1.41,1.61-.64,.43-1.45,.77-2.43,1-.98,.23-2.15,.34-3.51,.34s-2.73-.06-4.02-.18c-1.29-.12-2.44-.28-3.48-.48v5.21c.46,.08,.97,.15,1.55,.21,.57,.06,1.16,.11,1.77,.15,.61,.04,1.22,.07,1.83,.1,.61,.02,1.2,.04,1.76,.04,2.51,0,4.68-.24,6.54-.71,1.85-.48,3.39-1.16,4.61-2.05,1.22-.89,2.13-1.97,2.71-3.24,.59-1.27,.88-2.7,.88-4.29,0-1-.16-1.91-.48-2.73-.32-.82-.78-1.54-1.38-2.17Z"/>
      <polygon points="160.4 17.14 175.8 17.14 163.03 43.45 169.81 43.45 182.71 16.57 182.71 11.34 160.4 11.34 160.4 17.14"/>
      <polygon points="211.67 11.34 204.38 11.34 194.77 25.96 194.77 11.34 188.63 11.34 188.63 43.45 194.77 43.45 194.77 27.92 204.43 43.45 212.24 43.45 200.76 26.65 211.67 11.34"/>
    </g>
  </g>
</svg>