<?xml version="1.0" encoding="UTF-8"?>
<svg id="Layer_2" data-name="Layer 2" xmlns="http://www.w3.org/2000/svg" viewBox="0 0 85.62 420">
  <g id="Layer_1-2" data-name="Layer 1">
    <path d="M85.62,210c0-21.08-15.25-38.59-35.31-42.14V84.95c20.06-3.55,35.31-21.06,35.31-42.14C85.62,19.17,66.45,0,42.81,0S0,19.17,0,42.81c0,21.08,15.25,38.59,35.31,42.14v82.91C15.25,171.41,0,188.92,0,210s15.25,38.59,35.31,42.14v82.91c-20.06,3.55-35.31,21.06-35.31,42.14,0,23.64,19.17,42.81,42.81,42.81s42.81-19.17,42.81-42.81c0-21.08-15.25-38.59-35.31-42.14v-82.91c20.06-3.55,35.31-21.06,35.31-42.14ZM21,42.81c0-12.02,9.79-21.81,21.81-21.81s21.81,9.79,21.81,21.81-9.78,21.81-21.81,21.81h0c-12.02,0-21.81-9.79-21.81-21.81Zm0,167.19c0-12.02,9.78-21.8,21.8-21.81h.02c12.03,0,21.8,9.79,21.8,21.81s-9.78,21.81-21.81,21.81h0c-12.02,0-21.81-9.78-21.81-21.81Zm43.62,167.19c0,12.03-9.78,21.81-21.81,21.81s-21.81-9.78-21.81-21.81,9.79-21.81,21.8-21.81h.01c12.03,0,21.8,9.79,21.8,21.81Z"/>
  </g>
</svg>