<?xml version="1.0" encoding="UTF-8"?>
<svg id="Layer_2" data-name="Layer 2" xmlns="http://www.w3.org/2000/svg" viewBox="0 0 215.47 196.49">
  <g id="Layer_1-2" data-name="Layer 1">
    <path d="M213.33,174.6h-22.66c-.57,0-1.11-.23-1.51-.63l-41.63-41.64c-.4-.4-.63-.95-.63-1.51v-55.42c0-1.18-.96-2.14-2.14-2.14h-22.17c-1.18,0-2.14-.96-2.14-2.14v-6.16c0-1.18,.96-2.14,2.14-2.14h22.17c1.18,0,2.14-.96,2.14-2.14v-5.12c0-1.18,.96-2.14,2.14-2.14h28.69c1.19,0,2.3-.46,3.14-1.3l21-21c.84-.84,1.3-1.96,1.3-3.15v-3.95c0-1.18,.96-2.14,2.14-2.14h6.29c1.18,0,2.14-.96,2.14-2.14V2.14c0-1.18-.96-2.14-2.14-2.14h-23.81c-1.18,0-2.14,.96-2.14,2.14V7.34c0,1.18-.96,2.14-2.14,2.14h-34.47c-1.18,0-2.14-.96-2.14-2.14V2.21c0-1.18-.96-2.14-2.14-2.14h-51.7c-1.18,0-2.14,.96-2.14,2.14V19.81c0,1.18,.96,2.14,2.14,2.14h22.17c1.18,0,2.14,.96,2.14,2.14v14.71c0,1.18-.96,2.14-2.14,2.14h-22.17c-1.18,0-2.14,.96-2.14,2.14v5.12c0,1.18-.96,2.14-2.14,2.14H30.24c-1.18,0-2.14-.96-2.14-2.14v-5.12c0-1.18-.96-2.14-2.14-2.14H2.14c-1.18,0-2.14,.96-2.14,2.14v17.6c0,1.18,.96,2.14,2.14,2.14H10.37c1.18,0,2.14,.96,2.14,2.14v6.16c0,1.18-.96,2.14-2.14,2.14H2.14c-1.18,0-2.14,.96-2.14,2.14v56.78c0,1.18,.96,2.14,2.14,2.14H25.95c1.18,0,2.14-.96,2.14-2.14v-10.18c0-1.18,.96-2.14,2.14-2.14h58.54c1.18,0,2.14,.96,2.14,2.14v10.18c0,1.18,.96,2.14,2.14,2.14h51.23c.57,0,1.11,.23,1.51,.63l40.95,40.96c.4,.4,.63,.95,.63,1.51v16.92c0,1.18,.96,2.14,2.14,2.14h23.81c1.18,0,2.14-.96,2.14-2.14v-17.6c0-1.18-.96-2.14-2.14-2.14ZM188.72,5.22c0-1.18,.96-2.14,2.14-2.14h17.67c1.18,0,2.14,.96,2.14,2.14v11.46c0,1.18-.96,2.14-2.14,2.14h-17.67c-1.18,0-2.14-.96-2.14-2.14V5.22Zm-94.73,11.52V5.28c0-1.18,.96-2.14,2.14-2.14h45.55c1.18,0,2.14,.96,2.14,2.14v11.46c0,1.18-.96,2.14-2.14,2.14h-45.55c-1.18,0-2.14-.96-2.14-2.14Zm28.6,5.22h22.17c1.18,0,2.14-.96,2.14-2.14v-5.12c0-1.18,.96-2.14,2.14-2.14h34.47c1.18,0,2.14,.96,2.14,2.14v5.05c0,1.18,.96,2.14,2.14,2.14h10.17c1.18,0,2.14,.96,2.14,2.14v3.63c0,.57-.23,1.11-.63,1.51l-20.55,20.55c-.4,.4-.95,.63-1.51,.63h-28.37c-1.18,0-2.14-.96-2.14-2.14v-5.12c0-1.18-.96-2.14-2.14-2.14h-22.17c-1.18,0-2.14-.96-2.14-2.14v-14.71c0-1.18,.96-2.14,2.14-2.14Zm-28.6,24.2c0-1.18,.96-2.14,2.14-2.14h45.55c1.18,0,2.14,.96,2.14,2.14v11.46c0,1.18-.96,2.14-2.14,2.14h-45.55c-1.18,0-2.14-.96-2.14-2.14v-11.46Zm-.93,16.67h22.17c1.18,0,2.14,.96,2.14,2.14v6.16c0,1.18-.96,2.14-2.14,2.14h-21.16c-.58,0-1.14-.24-1.54-.65l-14.99-15.53h0c-1.35-1.35-.39-3.66,1.51-3.66h9.72c1.18,0,2.14,.96,2.14,2.14v5.12c0,1.18,.96,2.14,2.14,2.14ZM3.07,57.61v-11.46c0-1.18,.96-2.14,2.14-2.14H22.88c1.18,0,2.14,.96,2.14,2.14v11.46c0,1.18-.96,2.14-2.14,2.14H5.22c-1.18,0-2.14-.96-2.14-2.14Zm21.95,71.5c0,1.18-.96,2.14-2.14,2.14H5.22c-1.18,0-2.14-.96-2.14-2.14v-50.64c0-1.18,.96-2.14,2.14-2.14H22.88c1.18,0,2.14,.96,2.14,2.14v50.64Zm3.07-14.47v-39.24c0-1.18-.96-2.14-2.14-2.14h-8.23c-1.18,0-2.14-.96-2.14-2.14v-6.16c0-1.18,.96-2.14,2.14-2.14h8.23c1.18,0,2.14-.96,2.14-2.14v-5.12c0-1.18,.96-2.14,2.14-2.14h38.41c.57,0,1.11,.23,1.51,.63l5.18,5.18,14.97,15.52c.39,.4,.6,.93,.6,1.49v38.41c0,1.18-.96,2.14-2.14,2.14H30.24c-1.18,0-2.14-.96-2.14-2.14Zm113.59,16.61h-45.55c-1.18,0-2.14-.96-2.14-2.14v-50.64c0-1.18,.96-2.14,2.14-2.14h45.55c1.18,0,2.14,.96,2.14,2.14v50.64c0,1.18-.96,2.14-2.14,2.14Zm70.71,60.02c0,1.18-.96,2.14-2.14,2.14h-17.67c-1.18,0-2.14-.96-2.14-2.14v-11.46c0-1.18,.96-2.14,2.14-2.14h17.67c1.18,0,2.14,.96,2.14,2.14v11.46Z"/>
  </g>
</svg>