<?xml version="1.0" encoding="UTF-8"?>
<svg id="Layer_2" data-name="Layer 2" xmlns="http://www.w3.org/2000/svg" viewBox="0 0 332.29 94.72">
  <g id="Layer_1-2" data-name="Layer 1">
    <path d="M327.58,27.28c-1.99,0-3.68,1.23-4.37,2.97H134.96v-9.38l14.42-14.42h28.55c.69,1.74,2.39,2.97,4.37,2.97,2.6,0,4.71-2.11,4.71-4.71s-2.11-4.71-4.71-4.71c-1.99,0-3.68,1.23-4.37,2.97h-29.99l-15.44,15.44h-50.12v19.19h-13.47c-.23-.59-.58-1.15-1.06-1.62-1.84-1.84-4.82-1.84-6.66,0-1.84,1.84-1.84,4.82,0,6.66,1.84,1.84,4.82,1.84,6.66,0,.46-.46,.8-.99,1.03-1.56h13.49v6.64H28.67L6.49,69.89c-.55-.23-1.15-.35-1.79-.35-2.6,0-4.71,2.11-4.71,4.71s2.11,4.71,4.71,4.71,4.71-2.11,4.71-4.71c0-.69-.15-1.35-.42-1.94l21.12-21.12h52.27v19.79h52.58v-29.94h47.08l47.41,47.41c-.17,.49-.27,1.01-.27,1.55,0,2.6,2.11,4.71,4.71,4.71s4.71-2.11,4.71-4.71-2.11-4.71-4.71-4.71c-.78,0-1.51,.19-2.15,.53l-48.26-48.26h-48.52v-3.84h188.25c.69,1.74,2.39,2.97,4.37,2.97,2.6,0,4.71-2.11,4.71-4.71s-2.11-4.71-4.71-4.71Z"/>
  </g>
</svg>