<?xml version="1.0" encoding="UTF-8"?>
<svg id="Layer_2" data-name="Layer 2" xmlns="http://www.w3.org/2000/svg" viewBox="0 0 390.39 113.39">
  <g id="Layer_1-2" data-name="Layer 1">
    <g>
      <path d="M333.7,0c-15.14,0-29.38,5.9-40.09,16.61-7.79,7.79-18.15,12.08-29.16,12.08s-21.37-4.29-29.16-12.08C224.58,5.9,210.34,0,195.2,0s-29.38,5.9-40.09,16.61c-7.79,7.79-18.15,12.08-29.16,12.08s-21.37-4.29-29.16-12.08C86.08,5.9,71.84,0,56.7,0,25.43,0,0,25.43,0,56.7s25.43,56.7,56.7,56.7c15.14,0,29.38-5.9,40.09-16.61,7.79-7.79,18.14-12.08,29.16-12.08s21.37,4.29,29.16,12.08c10.71,10.71,24.95,16.61,40.09,16.61s29.38-5.9,40.09-16.61c7.79-7.79,18.15-12.08,29.16-12.08s21.37,4.29,29.16,12.08c10.71,10.71,24.95,16.61,40.09,16.61,31.26,0,56.7-25.43,56.7-56.7S364.96,0,333.7,0Zm0,109.6c-14.61,0-27.83-5.92-37.41-15.49-8.79-8.79-20.32-13.19-31.84-13.19s-23.05,4.4-31.84,13.19c-9.57,9.57-22.8,15.49-37.41,15.49s-27.83-5.92-37.41-15.49c-8.79-8.79-20.32-13.19-31.84-13.19s-23.05,4.4-31.84,13.19c-9.57,9.57-22.8,15.49-37.41,15.49-29.22,0-52.9-23.68-52.9-52.9S27.48,3.79,56.7,3.79c14.61,0,27.83,5.92,37.41,15.49,8.79,8.79,20.32,13.19,31.84,13.19s23.05-4.4,31.84-13.19c9.57-9.57,22.8-15.49,37.41-15.49s27.83,5.92,37.41,15.49c8.79,8.79,20.32,13.19,31.84,13.19s23.05-4.4,31.84-13.19c9.57-9.57,22.8-15.49,37.41-15.49,29.22,0,52.9,23.68,52.9,52.9s-23.68,52.9-52.9,52.9Z"/>
      <path d="M56.42,13.12c-24.06,0-43.57,19.51-43.57,43.57s19.51,43.57,43.57,43.57,43.57-19.51,43.57-43.57S80.49,13.12,56.42,13.12Zm13.79,62.48h-27.59V37.79h27.21v5.72h-20.6v9.9h19.07v5.4h-19.07v11.07h20.97v5.72Z"/>
      <path d="M198.96,43.2h-10.75v11.8h10.85c4.18,0,6.47-2.06,6.47-6.04,0-4.82-3.13-5.76-6.56-5.76Z"/>
      <path d="M195.2,13.12c-24.06,0-43.57,19.51-43.57,43.57s19.51,43.57,43.57,43.57,43.57-19.51,43.57-43.57-19.51-43.57-43.57-43.57Zm11.28,62.48c-1-1.64-1-3.71-1-5.56,0-6.94-1.42-10.01-7.52-10.01h-9.73v15.57h-6.62V37.79h18.06c8.26,0,12.5,3.81,12.5,10.22,0,7.25-5.02,9.1-6.24,9.53v.11c2.27,.31,5.61,2.01,5.61,7.99,0,4.4,.63,8.43,2.07,9.96h-7.1Z"/>
      <path d="M333.97,13.12c-24.06,0-43.57,19.51-43.57,43.57s19.51,43.57,43.57,43.57,43.57-19.51,43.57-43.57-19.51-43.57-43.57-43.57Zm16.1,62.48h-30.97v-5.4l22.03-26.69h-20.34v-5.72h28.76v5.03l-22.03,27.06h22.55v5.72Z"/>
    </g>
  </g>
</svg>