<?xml version="1.0" encoding="UTF-8"?>
<svg id="Layer_2" data-name="Layer 2" xmlns="http://www.w3.org/2000/svg" viewBox="0 0 533.51 379.17">
  <g id="Layer_1-2" data-name="Layer 1">
    <g>
      <path d="M174.87,70.06c0-2.54-2.09-4.61-4.67-4.61h-32.89c-2.58,0-4.67,2.06-4.67,4.61v32.46c0,2.54,2.09,4.61,4.67,4.61h32.89c2.58,0,4.67-2.06,4.67-4.61v-9.06c0-2.58,2.15-4.66,4.76-4.61,16.79,.33,53.12,2.33,94.82,12.53,49.35,12.07,117.01,40.8,162.11,97.74,2.4,3.03,.22,7.46-3.67,7.46h-3.26c-2.58,0-4.67,2.06-4.67,4.61v32.46c0,2.54,2.09,4.61,4.67,4.61h32.89c2.58,0,4.67-2.06,4.67-4.61v-32.46c0-2.54-2.09-4.61-4.67-4.61h-11.53c-1.52,0-2.94-.74-3.82-1.96-20-27.95-47.65-54.03-79.87-72.52-26.77-15.36-57.59-27.36-91.6-35.68-42.33-10.35-79.27-12.36-96.24-12.68-2.55-.05-4.58-2.09-4.58-4.61v-9.07Z"/>
      <path d="M528.84,337.49h-10.89c-2.12,0-3.96-1.42-4.51-3.44-3.26-11.92-11.47-22.67-24.18-31.48-7.35-5.1-14.57-8.44-19.17-10.3-1.75-.71-2.89-2.39-2.89-4.26v-11.36c0-2.54-2.09-4.61-4.67-4.61h-32.89c-2.58,0-4.67,2.06-4.67,4.61v9.06c0,2.54-2.09,4.61-4.67,4.61h-14.75c-2.58,0-4.67-2.06-4.67-4.61v-9.06c0-2.54-2.09-4.61-4.67-4.61h-32.89c-2.58,0-4.67,2.06-4.67,4.61v8.98c0,2.58-2.14,4.65-4.75,4.61-57.44-.9-106.12-9.46-145.68-25.58-.71-.29-1.33-.75-1.82-1.33-.69-.83-1.38-1.65-2.04-2.47-26.27-32.3-39.08-64.9-44.55-82.3-.93-2.97,1.31-5.97,4.46-5.97h5.95c2.58,0,4.67-2.06,4.67-4.61v-32.46c0-2.54-2.09-4.61-4.67-4.61h-32.89c-2.58,0-4.67,2.06-4.67,4.61v32.46c0,2.54,2.09,4.61,4.67,4.61h11.75c2.09,0,3.92,1.36,4.49,3.34,1.52,5.26,3.88,12.55,7.38,21.25,4.9,12.21,12.81,28.98,24.74,46.98,2.7,4.06-1.97,8.98-6.22,6.54-16.91-9.72-31.65-21.2-44.17-34.45-25.59-27.08-36.53-56.52-41.2-76.46-2.68-11.46-3.66-21.17-3.99-27.8-.13-2.63,1.99-4.84,4.66-4.84h9.59c2.58,0,4.67-2.06,4.67-4.61v-32.46c0-2.54-2.09-4.61-4.67-4.61h-32.89c-2.58,0-4.67,2.06-4.67,4.61v6.29c0,3.16-3.16,5.4-6.19,4.36-11.84-4.05-21.29-11.62-28.18-22.62-2.21-3.52-3.88-7-5.15-10.12-1.22-3.02,1.05-6.3,4.34-6.3h5.95c2.58,0,4.67-2.06,4.67-4.61v-9.06c0-2.54,2.09-4.61,4.67-4.61h15.21c2.58,0,4.67,2.06,4.67,4.61v9.06c0,2.54,2.09,4.61,4.67,4.61h32.89c2.58,0,4.67-2.06,4.67-4.61v-9.06c0-2.54,2.09-4.61,4.67-4.61h14.3c2.58,0,4.67,2.06,4.67,4.61v9.06c0,2.54,2.09,4.61,4.67,4.61h32.89c2.58,0,4.67-2.06,4.67-4.61V4.61C174.87,2.07,172.78,0,170.2,0h-32.89c-2.58,0-4.67,2.06-4.67,4.61V13.67c0,2.54-2.09,4.61-4.67,4.61h-14.3c-2.58,0-4.67-2.06-4.67-4.61V4.61c0-2.54-2.09-4.61-4.67-4.61h-32.89c-2.58,0-4.67,2.06-4.67,4.61V13.67c0,2.54-2.09,4.61-4.67,4.61h-15.21c-2.58,0-4.67-2.06-4.67-4.61V4.61C42.23,2.07,40.14,0,37.56,0H4.67C2.09,0,0,2.07,0,4.61V37.07c0,2.54,2.09,4.61,4.67,4.61h11.5c2.03,0,3.83,1.29,4.44,3.2,1.4,4.36,3.67,9.97,7.27,15.75,6.01,9.65,16.83,21.29,35.42,26.25,2.04,.55,3.47,2.36,3.47,4.45v11.2c0,2.54,2.09,4.61,4.67,4.61h8.74c2.5,0,4.56,1.94,4.66,4.4,.3,6.83,1.28,16.98,4.12,29.16,4.79,20.58,16.05,50.98,42.44,78.95,18.76,19.87,42.74,36.05,71.41,48.22,.66,.28,1.25,.71,1.71,1.25,22.07,25.73,48.85,46.41,79.68,61.5,39.13,19.15,84.91,29.3,136.17,30.21,2.54,.05,4.58,2.09,4.58,4.6v9.14c0,2.54,2.09,4.61,4.67,4.61h32.89c2.58,0,4.67-2.06,4.67-4.61v-32.46c0-2.54-2.09-4.61-4.67-4.61h-32.89c-2.58,0-4.67,2.06-4.67,4.61v8.98c0,2.58-2.15,4.66-4.76,4.61-105.65-1.97-169.19-43.78-205.74-83.21,.27,.1,.54,.2,.81,.3,38.54,14.16,85.19,21.75,138.79,22.58,2.54,.04,4.58,2.09,4.58,4.61v9.14c0,2.54,2.09,4.61,4.67,4.61h32.89c2.58,0,4.67-2.06,4.67-4.61v-9.06c0-2.54,2.09-4.61,4.67-4.61h14.75c2.58,0,4.67,2.06,4.67,4.61v9.06c0,2.54,2.09,4.61,4.67,4.61h32.89c2.58,0,4.67-2.06,4.67-4.61v-5.35c0-3.41,3.62-5.65,6.72-4.14,10.71,5.21,26.74,15.37,33.14,31.63,1.18,3.01-1.09,6.25-4.37,6.25h-6.74c-2.58,0-4.67,2.06-4.67,4.61v32.46c0,2.54,2.09,4.61,4.67,4.61h32.89c2.58,0,4.67-2.06,4.67-4.61v-32.46c0-2.54-2.09-4.61-4.67-4.61ZM87.89,95.29c-5.03,0-9.12-4.03-9.12-9,0,0,0,0,0,0,0,4.97,4.08,8.99,9.11,8.99s9.11-4.03,9.11-8.99c0,0,0,0,0,0,0,4.97-4.08,9-9.12,9Z"/>
    </g>
  </g>
</svg>