<?xml version="1.0" encoding="UTF-8"?>
<svg id="Layer_2" data-name="Layer 2" xmlns="http://www.w3.org/2000/svg" viewBox="0 0 921.88 238.18">
  <g id="Layer_1-2" data-name="Layer 1">
    <g>
      <path d="M908.08,97.58c-5.61,0-10.43,3.35-12.59,8.16l-117.16-34.89c.11-.71,.17-1.43,.17-2.16,0-7.62-6.18-13.8-13.8-13.8-7.01,0-12.79,5.22-13.68,11.98h-102.9l-44.69-44.69c1.78-2.32,2.84-5.23,2.84-8.39,0-7.62-6.18-13.8-13.8-13.8-7.01,0-12.79,5.22-13.68,11.98H302.7c-.89-6.76-6.67-11.98-13.68-11.98-7.62,0-13.8,6.18-13.8,13.8,0,.79,.07,1.56,.2,2.31L124.32,62.91c-2.19-4.73-6.97-8.02-12.53-8.02-7.62,0-13.8,6.18-13.8,13.8,0,1.8,.35,3.52,.98,5.1L24.85,115.31c-2.52-3.36-6.53-5.53-11.05-5.53-7.62,0-13.8,6.18-13.8,13.8s6.18,13.8,13.8,13.8c4.52,0,8.53-2.17,11.05-5.53l74.12,41.52c-.63,1.58-.98,3.3-.98,5.1,0,7.62,6.18,13.8,13.8,13.8s13.8-6.18,13.8-13.8c0-1.13-.14-2.23-.4-3.29l53.89-21.05,136.91,23.78c0,.18-.01,.37-.01,.55,0,7.62,6.18,13.8,13.8,13.8,7,0,12.79-5.22,13.68-11.98h306.79c.89,6.76,6.67,11.98,13.68,11.98,7.62,0,13.8-6.18,13.8-13.8,0-.64-.05-1.26-.13-1.87l217.79-59.84c2.1,4.95,7,8.42,12.71,8.42,7.62,0,13.8-6.18,13.8-13.8s-6.18-13.8-13.8-13.8Zm-13.63,11.63c-.02,.12-.03,.23-.05,.35h-190.67c-.89-6.76-6.67-11.98-13.68-11.98-3.16,0-6.06,1.06-8.39,2.84l-16.24-16.24,85.96-11.84c1.61,5.84,6.95,10.13,13.3,10.13,5.61,0,10.43-3.35,12.59-8.16l117.16,34.88Zm-156.23-38.71l-76,10.47-10.47-10.47h86.47Zm-87.99,106.15H343.45c-.18-1.38-.57-2.69-1.12-3.91l90.06-56.45,191.15-26.33,33.26,76.68c-3.52,2.12-6.01,5.76-6.57,10.01Zm-210.36-65.06l65.55-41.09h109.67l6.94,16-182.16,25.09Zm-68.94,9.49c-1.17-6.43-6.8-11.31-13.57-11.31-.53,0-1.06,.03-1.57,.09l-7.13-28.36c4.56-1.81,7.92-5.98,8.58-11.01h38.14c.89,6.76,6.67,11.98,13.68,11.98s12.79-5.22,13.68-11.98h75.86l-67.48,42.3-60.18,8.29Zm-104.94,.68c-.32-2.45-1.29-4.7-2.72-6.58l35.53-35.54c2.32,1.78,5.23,2.84,8.38,2.84,7.62,0,13.8-6.18,13.8-13.8s-6.18-13.8-13.8-13.8c-.88,0-1.74,.09-2.57,.24l-9.56-28.92c.83-.4,1.61-.89,2.33-1.44l35.26,35.49c-1.8,2.33-2.87,5.25-2.87,8.42,0,7.62,6.18,13.8,13.8,13.8,.53,0,1.06-.03,1.57-.09l7.13,28.36c-4.56,1.81-7.92,5.98-8.58,11.01h-77.7Zm27.51-51.26c.32,2.45,1.29,4.7,2.72,6.58l-35.53,35.54c-2.32-1.78-5.23-2.84-8.38-2.84-5.2,0-9.73,2.88-12.08,7.13l-115.05-44.94c.12-.48,.21-.97,.27-1.47h168.04Zm-97.78,51.26c-.89-6.76-6.67-11.98-13.68-11.98-3.76,0-7.17,1.51-9.66,3.95l-48.71-38.05c.06-.11,.13-.21,.19-.32l115.05,44.94c-.12,.48-.21,.97-.27,1.47h-42.91Zm-82.13-39.4c3.04-.4,5.76-1.78,7.85-3.83l48.71,38.05c-1.21,2.05-1.9,4.44-1.9,6.99,0,7.62,6.18,13.8,13.8,13.8,7.01,0,12.79-5.22,13.68-11.98h42.91c.07,.5,.16,.99,.27,1.47l-60.21,23.52-65.1-11.31v-56.71ZM592.48,27.6c1.31,0,2.58-.19,3.78-.53l17.27,39.8h-102.3l70.63-44.27c2.53,3.05,6.35,5,10.63,5Zm-12.55-8.07l-75.54,47.35h-81.65c-.89-6.76-6.67-11.98-13.68-11.98-4.92,0-9.24,2.58-11.68,6.46l-95.15-43.51c.22-.72,.38-1.46,.48-2.22h276.1c.18,1.38,.57,2.69,1.12,3.91Zm-222.68,47.35c-.89-6.76-6.67-11.98-13.68-11.98-3.14,0-6.03,1.05-8.35,2.82l-35.26-35.49c.27-.35,.52-.71,.76-1.08l95.15,43.51c-.22,.72-.38,1.46-.48,2.22h-38.14Zm261.81,3.63h27.56l11.09,11.09-31.93,4.4-6.72-15.49Zm-1.57-3.63l-17.89-41.25c.44-.27,.87-.56,1.28-.87l42.12,42.12h-25.51ZM276.5,19.58c2.19,4.73,6.97,8.02,12.53,8.02,.88,0,1.74-.09,2.57-.24l9.56,28.92c-4.09,1.98-7.04,5.93-7.66,10.6H125.47c-.02-.17-.05-.33-.07-.5L276.5,19.58ZM100.74,76.96c2.17,2.9,5.46,4.91,9.23,5.41v56.08l-82.39-14.31c0-.18,.01-.37,.01-.55,0-1.8-.35-3.52-.98-5.1l74.12-41.52ZM26.62,128.68c.13-.32,.25-.64,.35-.97l83.01,14.42v22.66c-3.77,.5-7.06,2.51-9.23,5.41L26.62,128.68Zm97.25,43.12c-2.07-3.75-5.84-6.43-10.27-7.01v-22.03l58.57,10.17-48.31,18.87Zm61.74-20.22l54.63-21.34c2.35,4.25,6.88,7.13,12.08,7.13,7,0,12.79-5.22,13.68-11.98h77.7c.89,6.76,6.67,11.98,13.68,11.98s13.16-5.57,13.75-12.65l52.51-7.23-83.23,52.17c-2.53-3.05-6.35-5-10.63-5-6.18,0-11.41,4.07-13.17,9.67l-130.99-22.76Zm491.02,21.51c-2.1-4.95-7-8.42-12.71-8.42-1.31,0-2.58,.19-3.78,.53l-32.86-75.75,33.65-4.63,18.18,18.18c-1.78,2.32-2.84,5.23-2.84,8.39,0,7.62,6.18,13.8,13.8,13.8,7,0,12.79-5.22,13.68-11.98h190.67s0,.04,0,.06l-217.79,59.84Z"/>
      <path d="M343.28,236.16c-1.3,0-1.3,2.02,0,2.02s1.3-2.02,0-2.02Z"/>
    </g>
  </g>
</svg>