<?xml version="1.0" encoding="UTF-8"?>
<svg id="Layer_2" data-name="Layer 2" xmlns="http://www.w3.org/2000/svg" viewBox="0 0 492.11 172.39">
  <g id="Layer_1-2" data-name="Layer 1">
    <g>
      <path d="M443.95,153.78c-1.73,1.73-2.7,2.7-4.43,4.43v9.75c1.73,1.73,2.7,2.7,4.43,4.43h9.75c1.73-1.73,2.7-2.7,4.43-4.43v-9.75c-1.73-1.73-2.7-2.7-4.43-4.43h-9.75Zm11.18,12.94l-.73,.73-1.94,1.94h-7.27l-.75-.75-1.92-1.92v-7.27l1.33-1.33,1.33-1.33h7.27l2.67,2.67v7.27Z"/>
      <path d="M313.04,45.75l-4.43,4.43v9.75c1.73,1.73,2.7,2.7,4.43,4.43h9.75c1.73-1.73,2.7-2.7,4.43-4.43v-9.75c-1.73-1.73-2.7-2.7-4.43-4.43h-9.75Zm11.18,12.94l-2.67,2.67h-7.27l-2.67-2.67v-7.27l2.67-2.67h7.27l2.67,2.67v7.27Z"/>
      <path d="M487.68,66.41h-9.75c-.4,.4-.75,.75-1.09,1.09l-24.52-24.52c-1.8-1.8-2.79-4.19-2.79-6.73V18.6h3.79c1.73-1.73,2.7-2.7,4.43-4.43V4.43c-1.73-1.73-2.7-2.7-4.43-4.43h-9.75c-1.73,1.73-2.7,2.7-4.43,4.43v3.32h-89.05v-3.32c-1.73-1.73-2.7-2.7-4.43-4.43h-9.75c-1.73,1.73-2.7,2.7-4.43,4.43v3.32H46.46v-3.32C44.74,2.7,43.77,1.73,42.04,0h-9.75c-1.73,1.73-2.7,2.7-4.43,4.43v3.32h-9.26v-3.32c-1.73-1.73-2.7-2.7-4.43-4.43H4.43C2.7,1.73,1.73,2.7,0,4.43V14.18c1.73,1.73,2.7,2.7,4.43,4.43H14.18c1.73-1.73,2.7-2.7,4.43-4.43v-3.43h9.26v3.43c1.73,1.73,2.7,2.7,4.43,4.43h9.75c1.73-1.73,2.7-2.7,4.43-4.43v-3.43H331.49v3.43c1.73,1.73,2.7,2.7,4.43,4.43h3.38v4.27h-3.38l-4.43,4.43v3.38h-4.27v-3.38c-1.73-1.73-2.7-2.7-4.43-4.43h-9.75c-1.73,1.73-2.7,2.7-4.43,4.43v9.75c1.73,1.73,2.7,2.7,4.43,4.43h9.75c.42-.42,.8-.8,1.15-1.15l8.7,8.7c-.35,.35-.73,.73-1.15,1.15v9.75c1.73,1.73,2.7,2.7,4.43,4.43h9.75c.42-.42,.8-.8,1.15-1.15l93.68,93.67,2.12-2.12-93.68-93.67c.35-.35,.73-.73,1.15-1.15v-9.75c-1.73-1.73-2.7-2.7-4.43-4.43h-3.38v-4.27h3.38c1.73-1.73,2.7-2.7,4.43-4.43v-3.38h4.27v3.38c1.73,1.73,2.7,2.7,4.43,4.43h9.75c1.73-1.73,2.7-2.7,4.43-4.43v-9.75c-1.73-1.73-2.7-2.7-4.43-4.43h-9.75c-.42,.42-.8,.8-1.15,1.15l-8.7-8.7c.35-.35,.73-.73,1.15-1.15v-3.43h89.05v3.43c1.73,1.73,2.7,2.7,4.43,4.43h2.96v17.65c0,3.34,1.3,6.48,3.67,8.85l24.52,24.52c-.37,.37-.77,.77-1.21,1.21v9.75c1.73,1.73,2.7,2.7,4.43,4.43h9.75c1.73-1.73,2.7-2.7,4.43-4.43v-9.75c-1.73-1.73-2.7-2.7-4.43-4.43ZM15.6,12.94l-2.67,2.67H5.67l-2.67-2.67V5.67l2.67-2.67h7.27l2.67,2.67v7.27Zm27.86-5.19h0v3h0v2.19l-1.33,1.33-1.33,1.33h-7.27l-1-1-1.67-1.67V5.67l2.67-2.67h7.27l2.41,2.41,.26,.26v2.08Zm293.7,7.86l-2.67-2.67V5.67l2.67-2.67h7.27l2.67,2.67v7.27l-2.67,2.67h-7.27Zm-12.94,20.21l-2.67,2.67h-7.27l-2.67-2.67v-7.27l2.67-2.67h7.27l2.67,2.67v7.27Zm2.58,3.13l-.73-.73,1.15-1.15v-3.38h4.27v3.38c1.73,1.73,2.7,2.7,4.43,4.43h3.38v4.27h-3.38c-.42,.42-.8,.8-1.15,1.15l-7.97-7.97Zm17.63,9.81l2.67,2.67v7.27l-2.67,2.67h-7.27l-2.67-2.67v-7.27l2.67-2.67h7.27Zm2.67-12.94l-2.67,2.67h-7.27l-2.67-2.67v-7.27l2.67-2.67h7.27l2.67,2.67v7.27Zm10.27-7.27l2.67-2.67h7.27l2.67,2.67v7.27l-2.67,2.67h-7.27l-2.67-2.67v-7.27Zm-1.85-2.39c-.35,.35-.73,.73-1.15,1.15v3.38h-4.27v-3.38c-1.73-1.73-2.7-2.7-4.43-4.43h-3.38v-4.27h3.38c.42-.42,.8-.8,1.15-1.15l8.7,8.7Zm89.29-10.55l-2.67-2.67V5.67l2.67-2.67h7.27l1.33,1.33,1.33,1.33v7.27l-1.67,1.67-1,1h-7.27Zm44.3,63.75l-2.67,2.67h-7.27l-2.67-2.67v-7.27l2.67-2.67h7.27l2.67,2.67v7.27Z"/>
    </g>
  </g>
</svg>