<?xml version="1.0" encoding="UTF-8"?>
<svg id="Layer_2" data-name="Layer 2" xmlns="http://www.w3.org/2000/svg" viewBox="0 0 326.09 112.97">
  <g id="Layer_1-2" data-name="Layer 1">
    <g>
      <path d="M270.77,12.69c-22.32,0-40.74,16.71-43.45,38.29,0,0,0,0,0,0H98.77s0,0,0,0c-2.71-21.58-21.12-38.29-43.45-38.29-24.19,0-43.79,19.61-43.79,43.79s19.6,43.8,43.79,43.8c22.33,0,40.74-16.71,43.45-38.3H227.32c2.71,21.59,21.13,38.3,43.45,38.3,24.19,0,43.8-19.61,43.8-43.8s-19.61-43.79-43.8-43.79ZM55.32,66.52c-5.55,0-10.04-4.49-10.04-10.04s4.49-10.04,10.04-10.04,10.04,4.5,10.04,10.04-4.49,10.04-10.04,10.04Zm215.45,0c-5.54,0-10.04-4.49-10.04-10.04s4.5-10.04,10.04-10.04,10.04,4.5,10.04,10.04-4.49,10.04-10.04,10.04Z"/>
      <path d="M269.6,0H56.49C25.34,0,0,25.34,0,56.48s25.34,56.49,56.49,56.49h213.11c31.15,0,56.49-25.34,56.49-56.49S300.75,0,269.6,0Zm0,107.97H56.49c-28.39,0-51.49-23.1-51.49-51.49S28.1,5,56.49,5h213.11c28.39,0,51.49,23.09,51.49,51.48s-23.1,51.49-51.49,51.49Z"/>
    </g>
  </g>
</svg>