<?xml version="1.0" encoding="UTF-8"?>
<svg id="Layer_2" data-name="Layer 2" xmlns="http://www.w3.org/2000/svg" viewBox="0 0 244.42 161.51">
  <g id="Layer_1-2" data-name="Layer 1">
    <g>
      <path d="M212.53,49.82v6.55c0,.23-.19,.41-.41,.41h-5.63c-.23,0-.41-.19-.41-.41v-6.55c0-.23-.19-.41-.41-.41h-14.31c-.23,0-.41-.19-.41-.41V16.84c0-.23,.19-.41,.41-.41h14.3c.23,0,.41-.19,.41-.41V.41c0-.23-.19-.41-.41-.41h-31.07c-.23,0-.41,.19-.41,.41v15.59c0,.23,.19,.41,.41,.41h14.28c.23,0,.41,.19,.41,.41V48.99c0,.23-.19,.41-.41,.41h-14.27c-.23,0-.41,.19-.41,.41v6.55c0,.23-.19,.41-.41,.41h-35.43c-.23,0-.41-.19-.41-.41v-6.55c0-.23-.19-.41-.41-.41h-31.07c-.23,0-.41,.19-.41,.41v15.59c0,.23,.19,.41,.41,.41h14.29c.23,0,.41,.19,.41,.41v3.58c0,.23-.19,.41-.41,.41h-14.29c-.23,0-.41,.19-.41,.41v7.09c0,.23-.19,.41-.41,.41H32.31c-.23,0-.41-.19-.41-.41v-7.09c0-.23-.19-.41-.41-.41H.41c-.23,0-.41,.19-.41,.41v15.59c0,.23,.19,.41,.41,.41H31.48c.23,0,.41-.19,.41-.41v-6.02c0-.23,.19-.41,.41-.41H105.6c.23,0,.41,.19,.41,.41v6.02c0,.23,.19,.41,.41,.41h14.29c.23,0,.41,.19,.41,.41v4.87c0,.23-.19,.41-.41,.41h-14.29c-.23,0-.41,.19-.41,.41v15.59c0,.23,.19,.41,.41,.41h30.14c.11,0,.22,.04,.29,.12l37.2,37.2c.08,.08,.12,.18,.12,.29v14.71c0,.23,.19,.41,.41,.41h31.07c.23,0,.41-.19,.41-.41v-15.59c0-.23-.19-.41-.41-.41h-14.32c-.23,0-.41-.19-.41-.41v-57.33c0-.23,.19-.41,.41-.41h14.3c.23,0,.41-.19,.41-.41v-15.59c0-.23-.19-.41-.41-.41h-31.07c-.23,0-.41,.19-.41,.41v6.82c0,.23-.19,.41-.41,.41h-35.42c-.23,0-.41-.19-.41-.41v-7.09c0-.23-.19-.41-.41-.41h-14.29c-.23,0-.41-.19-.41-.41v-3.58c0-.23,.19-.41,.41-.41h14.29c.23,0,.41-.19,.41-.41v-6.55c0-.23,.19-.41,.41-.41h35.43c.23,0,.41,.19,.41,.41v6.55c0,.23,.19,.41,.41,.41h31.07c.23,0,.41-.19,.41-.41v-6.55c0-.23,.19-.41,.41-.41h5.63c.23,0,.41,.19,.41,.41v6.55c0,.23,.19,.41,.41,.41h31.07c.23,0,.41-.19,.41-.41v-15.59c0-.23-.19-.41-.41-.41h-31.07c-.23,0-.41,.19-.41,.41ZM175.82,14.35V2.07c0-.23,.19-.41,.41-.41h27.75c.23,0,.41,.19,.41,.41V14.35c0,.23-.19,.41-.41,.41h-12.64c-.23,0-.41-.19-.41-.41v-2.42c0-.17,.1-.33,.26-.38,1.93-.68,3.02-3.12,1.35-5.4-.03-.04-.06-.07-.1-.1-2.67-1.98-5.59-.12-5.59,2.43,0,1.42,.91,2.62,2.17,3.07,.16,.06,.26,.22,.26,.38v2.42c0,.23-.19,.41-.41,.41h-12.62c-.23,0-.41-.19-.41-.41ZM29.82,85H2.07c-.23,0-.41-.19-.41-.41v-12.28c0-.23,.19-.41,.41-.41H29.82c.23,0,.41,.19,.41,.41v5.43c0,.23-.19,.41-.41,.41h-10.35c-.18,0-.35-.12-.4-.29-.56-2.07-3.1-3.33-5.47-1.58-.04,.03-.07,.06-.1,.1-1.98,2.67-.12,5.59,2.43,5.59,1.32,0,2.45-.78,2.96-1.9,.07-.15,.22-.26,.38-.26h10.54c.23,0,.41,.19,.41,.41v4.36c0,.23-.19,.41-.41,.41Zm78.26-13.11h12.63c.23,0,.41,.19,.41,.41v2.95c0,.17-.1,.33-.26,.38-1,.35-1.78,1.18-2.06,2.22-.05,.18-.21,.29-.4,.29h-10.33c-.23,0-.41-.19-.41-.41v-5.43c0-.23,.19-.41,.41-.41Zm-.41,12.69v-4.36c0-.23,.19-.41,.41-.41h10.54c.16,0,.3,.1,.37,.25,.36,.8,1.05,1.43,1.88,1.73,.16,.06,.26,.22,.26,.38v2.41c0,.23-.19,.41-.41,.41h-12.63c-.23,0-.41-.19-.41-.41Zm28.17,22.53h-27.75c-.23,0-.41-.19-.41-.41v-12.28c0-.23,.19-.41,.41-.41h12.63c.23,0,.41,.19,.41,.41v2.95c0,.17-.1,.33-.26,.38-1.93,.68-3.03,3.12-1.35,5.4,.03,.04,.06,.07,.1,.1,2.67,1.98,5.59,.12,5.59-2.43,0-1.42-.9-2.62-2.16-3.07-.16-.06-.26-.22-.26-.38v-2.96c0-.23,.19-.41,.41-.41h12.63c.23,0,.41,.19,.41,.41v12.28c0,.23-.19,.41-.41,.41Zm68.58,40.04v12.28c0,.23-.19,.41-.41,.41h-27.75c-.23,0-.41-.19-.41-.41v-12.28c0-.23,.19-.41,.41-.41h12.61c.23,0,.41,.19,.41,.41v2.96c0,.17-.1,.33-.26,.38-1.92,.69-3,3.12-1.33,5.39,.03,.04,.06,.07,.1,.1,2.67,1.98,5.59,.12,5.59-2.43,0-1.42-.91-2.63-2.19-3.07-.16-.06-.26-.22-.26-.39v-2.95c0-.23,.19-.41,.41-.41h12.66c.23,0,.41,.19,.41,.41Zm-28.18-75h27.75c.23,0,.41,.19,.41,.41v12.28c0,.23-.19,.41-.41,.41h-12.64c-.23,0-.41-.19-.41-.41v-2.42c0-.17,.1-.33,.26-.38,1.93-.68,3.02-3.12,1.34-5.4-.03-.04-.06-.07-.1-.1-2.28-1.68-4.72-.58-5.4,1.34-.06,.16-.22,.26-.38,.26h-10.41c-.23,0-.41-.19-.41-.41v-5.17c0-.23,.19-.41,.41-.41Zm0,7.65h10.43c.17,0,.32,.12,.38,.28,.33,.91,1.05,1.63,1.96,1.96,.16,.06,.28,.2,.28,.38v2.43c0,.23-.19,.41-.41,.41h-12.62c-.23,0-.41-.19-.41-.41v-4.63c0-.23,.19-.41,.41-.41Zm-2.07,.41v6.28c0,.23,.19,.41,.41,.41h14.28c.23,0,.41,.19,.41,.41v57.33c0,.23-.19,.41-.41,.41h-13.3c-.11,0-.22-.04-.29-.12l-37.24-37.24c-.08-.08-.12-.18-.12-.29v-14.67c0-.23-.19-.41-.41-.41h-14.29c-.23,0-.41-.19-.41-.41v-4.87c0-.23,.19-.41,.41-.41h14.29c.23,0,.41-.19,.41-.41v-6.02c0-.23,.19-.41,.41-.41h35.42c.23,0,.41,.19,.41,.41Zm-37.91-7.92v12.28c0,.23-.19,.41-.41,.41h-12.63c-.23,0-.41-.19-.41-.41v-2.42c0-.17,.1-.33,.26-.38,1.26-.45,2.16-1.65,2.16-3.07s-.9-2.62-2.16-3.07c-.16-.06-.26-.22-.26-.38v-2.96c0-.23,.19-.41,.41-.41h12.63c.23,0,.41,.19,.41,.41Zm-.41-8.14h-12.63c-.23,0-.41-.19-.41-.41v-2.42c0-.17,.1-.33,.26-.38,1.92-.69,3.01-3.12,1.34-5.39-.03-.04-.06-.07-.1-.1-2.67-1.98-5.59-.12-5.59,2.43,0,1.42,.91,2.63,2.18,3.07,.16,.06,.26,.22,.26,.38v2.41c0,.23-.19,.41-.41,.41h-12.63c-.23,0-.41-.19-.41-.41v-12.28c0-.23,.19-.41,.41-.41h27.75c.23,0,.41,.19,.41,.41v12.28c0,.23-.19,.41-.41,.41Zm68.57-12.69v4.9c0,.23-.19,.41-.41,.41h-10.55c-.16,0-.3-.1-.37-.25-.36-.8-1.05-1.43-1.88-1.73-.16-.06-.26-.22-.26-.38v-2.95c0-.23,.19-.41,.41-.41h12.65c.23,0,.41,.19,.41,.41Zm-28.17-.41h12.62c.23,0,.41,.19,.41,.41v2.96c0,.17-.1,.33-.26,.38-.83,.3-1.51,.92-1.87,1.72-.07,.15-.2,.25-.36,.25h-10.54c-.23,0-.41-.19-.41-.41v-4.9c0-.23,.19-.41,.41-.41Zm27.75,13.11h-27.75c-.23,0-.41-.19-.41-.41v-4.9c0-.23,.19-.41,.41-.41h10.33c.18,0,.35,.12,.39,.29,.37,1.39,1.64,2.41,3.14,2.41s2.77-1.02,3.14-2.41c.05-.17,.21-.29,.39-.29h10.34c.23,0,.41,.19,.41,.41v4.9c0,.23-.19,.41-.41,.41Zm38.36,0h-27.75c-.23,0-.41-.19-.41-.41v-4.9c0-.23,.19-.41,.41-.41h10.33c.18,0,.35,.12,.4,.29,.56,2.07,3.1,3.33,5.47,1.58,.04-.03,.07-.06,.1-.1,1.98-2.67,.12-5.59-2.43-5.59-1.32,0-2.45,.78-2.96,1.9-.07,.15-.22,.26-.38,.26h-10.52c-.23,0-.41-.19-.41-.41v-4.9c0-.23,.19-.41,.41-.41h27.75c.23,0,.41,.19,.41,.41v12.28c0,.23-.19,.41-.41,.41Z"/>
      <path d="M212.93,86.93h31.07c.23,0,.41-.19,.41-.41v-15.59c0-.23-.19-.41-.41-.41h-31.07c-.23,0-.41,.19-.41,.41v15.59c0,.23,.19,.41,.41,.41Zm1.66-14.77h27.75c.23,0,.41,.19,.41,.41v12.28c0,.23-.19,.41-.41,.41h-27.75c-.23,0-.41-.19-.41-.41v-12.28c0-.23,.19-.41,.41-.41Z"/>
      <path d="M230.79,76.56c-3.46-2.56-7.32,1.31-4.76,4.76,.03,.04,.06,.07,.1,.1,3.46,2.56,7.32-1.31,4.76-4.76-.03-.04-.06-.07-.1-.1Z"/>
    </g>
  </g>
</svg>