<?xml version="1.0" encoding="UTF-8"?>
<svg id="Layer_2" data-name="Layer 2" xmlns="http://www.w3.org/2000/svg" viewBox="0 0 142.23 140.7">
  <g id="Layer_1-2" data-name="Layer 1">
    <path d="M110.37,76.98c-9,0-17.12,3.74-22.92,9.74h0c-8.93,9.23-23.75,9.23-32.68-.01h0c-.26-.26-.53-.52-.8-.79h.01c-8.81-8.51-8.81-22.64,0-31.15h-.01c6-5.79,9.74-13.92,9.74-22.92C63.72,14.26,49.45,0,31.86,0S0,14.26,0,31.86c0,9,3.74,17.12,9.74,22.92h-.01c8.81,8.51,8.81,22.64,0,31.15h.01C3.74,91.72,0,99.84,0,108.84c0,17.59,14.26,31.86,31.86,31.86,9,0,17.12-3.74,22.92-9.74h0c8.93-9.23,23.75-9.23,32.68,.01h0c5.79,5.99,13.92,9.73,22.92,9.73,17.59,0,31.86-14.26,31.86-31.86s-14.26-31.86-31.86-31.86Z"/>
  </g>
</svg>