<?xml version="1.0" encoding="UTF-8"?>
<svg id="Layer_2" data-name="Layer 2" xmlns="http://www.w3.org/2000/svg" viewBox="0 0 64.64 236.13">
  <g id="Layer_1-2" data-name="Layer 1">
    <path d="M64.64,203.81c0-9.13-3.79-17.37-9.88-23.25h.01c-11.11-10.72-11.11-28.52,0-39.24h-.01c6.09-5.88,9.88-14.12,9.88-23.25,0-9.13-3.79-17.37-9.88-23.25h.01c-11.11-10.72-11.11-28.52,0-39.24h-.01c6.09-5.88,9.88-14.12,9.88-23.25C64.64,14.47,50.17,0,32.32,0,14.47,0,0,14.47,0,32.32c0,9.13,3.79,17.37,9.88,23.25h-.01c11.11,10.72,11.11,28.52,0,39.24h.01C3.79,100.69,0,108.93,0,118.06c0,9.13,3.79,17.37,9.88,23.25h-.01c11.11,10.72,11.11,28.52,0,39.24h.01C3.79,186.44,0,194.68,0,203.81c0,17.85,14.47,32.32,32.32,32.32,17.85,0,32.32-14.47,32.32-32.32Z"/>
  </g>
</svg>