<?xml version="1.0" encoding="UTF-8"?>
<svg id="Layer_2" data-name="Layer 2" xmlns="http://www.w3.org/2000/svg" viewBox="0 0 324.07 142.16">
  <g id="Layer_1-2" data-name="Layer 1">
    <path d="M323.38,11.28s0-.02,0-.04l-.08-.58c-.01-.07-.04-.14-.09-.2l-.44-.53s-.06-.07-.1-.09l-.79-.47s-.04-.02-.07-.03l-1.09-.38s-.03-.01-.05-.01l-.77-.16-.54-.11s-.04,0-.06-.01l-1.51-.15c-.14-.01-.28.05-.36.17l-1.54,2.21-29.98-1.6-.13-2.13c-.01-.2-.17-.36-.37-.37l-6.73-.36c-.13,0-.25.05-.33.15l-1.81,2.21-14.67-.79-.14-2.11c0-.2-.17-.37-.37-.38l-6.09-.33c-.13-.01-.25.04-.33.14l-1.85,2.2-14.52-.78-.15-2.12c-.02-.2-.18-.35-.37-.36l-5.72-.3c-.13,0-.24.04-.32.13l-1.92,2.2-14.81-.79-.15-2.1c-.01-.2-.17-.36-.37-.37l-5.45-.29c-.12,0-.23.04-.31.13l-1.99,2.2-13.97-.75-.16-2.11c-.02-.2-.18-.35-.37-.36l-6.45-.34c-.12,0-.23.04-.31.13l-1.99,2.18-14.64-.78-.17-2.1c-.02-.2-.17-.35-.37-.36l-5.13-.27c-.12,0-.23.04-.32.13l-2.08,2.17-12.88-.69s-.07,0-.11,0l-1.71.4-.17-1.98c-.01-.11-.07-.22-.16-.28-.09-.07-.21-.09-.32-.06l-8.68,2.04c-.07.02-.14.06-.19.11l-3.03,3.13-18.1,4.25v-.02h0l-.17-1.97-.39.03h0s-.09-.38-.09-.38l-15.86,3.72c-.07.02-.14.05-.19.11l-19.47,19.43h0s0,0,0,0c-.08.08-.12.2-.11.31l.5,5.5-.54.54-5.7-.33c-.11,0-.22.04-.3.12L.78,108.99s-.03.03-.04.05l-.55.76s-.06.11-.07.17l-.12.76s0,.06,0,.1l1.3,12.6s0,.04,0,.05l.06.24s.01.05.02.07l.44.94s.03.06.06.08l.16.18s.03.03.04.04l.73.61s.02.01.03.02l.18.13s.04.02.06.03l1.07.48s.03.01.05.02l1.55.41s.03,0,.05.01l1.6.2s.02,0,.04,0l77.78,5.48s.02,0,.03,0c.04,0,.09,0,.13-.02l.11-.04c.05-.02.1-.05.14-.09l.09-.09h0s.02-.01.02-.02l.64-.7,54.07,3.83v.03c0,.06.03.12.06.18l.14.22s.03.05.05.07l.19.2s.04.03.06.05l.23.16s.04.03.07.04l.26.12s.04.02.07.02l.26.06s.03,0,.03,0c.02,0,.04,0,.06,0l64.09,4.59,17.01,1.12s0,0,.01,0c0,0,.02,0,.03,0l1.84-.12s.03,0,.03,0c.01,0,.02,0,.03,0l1.81-.28s.03,0,.04,0l1.66-.43s.03,0,.04-.01l1.43-.55s.02-.01.04-.02l1.34-.76s.05-.03.07-.05l.99-.91s.02-.02.03-.04l51.6-64.87.19-.26s.02-.03.03-.05l.15-.27s.02-.04.02-.05l.09-.25s0-.02,0-.03c.02-.05.02-.1.02-.15l-.42-6.73,5.86-7.26,2.8.17s.02,0,.02,0c.12,0,.23-.05.31-.15l.83-1.04,2.09.12c.13,0,.25-.05.33-.15l6.75-8.46c.06-.08.09-.17.09-.27v-.14s.38.02.38.02c0,0,.01,0,.02,0,.05,0,.09,0,.13-.02l.12-.04s.08-.04.12-.07l.11-.09s.03-.04.05-.06h0s.02-.03.02-.03c0,0,0,0,0,0h0s19.34-24.12,19.34-24.12c0-.01.02-.02.03-.04l.12-.19s.01-.03.02-.04l.28-.59s.01-.03.02-.05l.07-.22s.01-.06.02-.09l.02-.23s0-.04,0-.05l-.68-11.96ZM268.62,28.16l16.44-19.93.08,1.33-15.36,18.67-1.16-.06ZM244.41,26.8l16.59-19.87.09,1.33-15.5,18.61-1.18-.07ZM220.61,25.47l17.08-19.8.09,1.34-15.94,18.53-1.23-.07ZM197.18,24.15l17.21-19.74.1,1.35-16.06,18.46-1.25-.07ZM173.89,22.85l18.24-19.66.1,1.38-17,18.36-1.35-.08ZM150.17,21.52L168.22,1.92l.11,1.37-16.82,18.31-1.34-.07ZM126.98,20.22l15.93-16.33s.02-.02.02-.03l2.52-2.58.12,1.4-17.15,17.62-1.44-.08ZM114.91,9.86v.02s-14.04,14.19-14.04,14.19l-1.48-.08,15.39-15.53.1,1.12h0l.02.28ZM1.36,109.53l2.08-2.08.02-.02L73.78,37.27l5.7.33c.11,0,.22-.04.3-.12l.79-.8s0,0,0,0l5.33-5.35c.11-.11.14-.28.09-.42s-.2-.24-.35-.25l-4.96-.29,18.77-18.73,14.42-3.38-15.64,15.78c-.11.11-.14.27-.09.42.06.14.19.24.34.25l2.53.14h0s0,0,0,0h0l13.84.79s.01,0,.02,0c.11,0,.21-.04.28-.12l19.11-19.61s0,0,0,0h0s3.01-3.12,3.01-3.12l7.27-1.72-2.19,2.25s-.02.02-.02.03l-16.52,16.93c-.1.11-.13.27-.07.42.06.14.19.24.34.24l2.48.14h0s0,0,0,0l14.93.84s.02,0,.02,0c.11,0,.21-.04.28-.12l17.68-18.52h0s2.08-2.18,2.08-2.18l4.12.22-18.66,20.26.29.27-.02.4,2.36.13h0s0,0,0,0l15.29.86s.02,0,.02,0c.11,0,.22-.05.29-.13l9.49-10.42s.02-.02.02-.03l7.44-8.17s0,0,0,0l1.99-2.18,5.41.29-18.86,20.32c-.1.11-.13.27-.08.42.06.14.19.24.34.25l2.37.13h0s0,0,0,0l14.81.83s.01,0,.02,0c.11,0,.22-.05.29-.13l16.93-18.67s0,0,0,0h0s1.99-2.19,1.99-2.19l4.46.24-17.84,20.45.3.26-.02.39,2.25.13h0s0,0,0,0l15.26.85s.02,0,.02,0c.11,0,.22-.05.3-.14l16.39-18.77s0,0,0,0l1.92-2.2,4.73.25-17.7,20.53.3.26-.02.39,2.23.13h0s0,0,0,0l15.38.86s.02,0,.02,0c.12,0,.23-.05.3-.14l15.85-18.85s0,0,0,0l1.85-2.2,5.12.27-17.22,20.62.3.25-.02.39,2.16.12h0s15.44.87,15.44.87c0,0,.02,0,.02,0,.12,0,.23-.05.3-.14l15.51-18.93s0,0,0,0l1.81-2.21,5.75.31-17.07,20.7.31.25v.39h.01s2.11.12,2.11.12h0s31.72,1.78,31.72,1.78c0,0,.01,0,.02,0,.12,0,.23-.05.31-.15l8.01-9.86s.01-.02.02-.02l6.42-9.23s0,0,0,0h0s1.53-2.2,1.53-2.2l1.26.12,1.29.26,1.02.36.69.41.33.4.05.34-.22.44-19.26,23.88-5.65-.32c-.11,0-.22.04-.3.12,0,0-.02.02-.02.03h0s-20.05,24.7-20.05,24.7l.31.25-.02.39,5.2.31-51.45,63.8-.79.72-1.17.66-1.51.58-1.77.45-1.93.3-1.99.13-81.35-5.54.33-.37-.3-.26.03-.39-55.3-3.82h0c-.12,0-.23.04-.32.12l-.77.83-78.36-5.42-1.8-.21-1.41-.35-1.05-.47-.64-.53-.24-.52.08-.54.47-.66ZM299.62,39.42l.31.25-.02.39,1.52.09-6.15,7.65-2.1-.12h0c-.13,0-.25.05-.33.15l-.83,1.03-2.92-.17,8.06-9.95,2.89.16-.42.52ZM289.28,58.23l-.56-8.78,3.1.18.54,8.79-3.08-.18ZM292.6,49.38l.22-.28.52,8.41-.22.28-.52-8.41ZM293.58,48.48l1.51.09.54,8.78-1.5-.09-.54-8.78ZM5.94,125.97l-1.3-.33-.16-.05-1.02-.46-.14-.1-.68-.58-.11-.12-.39-.83-.04-.18-1.15-11.13.28.23s.06.04.09.06l1.13.51s.04.02.07.02l1.46.37s.03,0,.05,0l1.74.21,78.33,5.42,1.14,12.37-.02.13-.03.11h0s-76.87-5.4-76.87-5.4l-2.36-.25ZM86.86,130.72s0-.03,0-.04l.03-.21s0-.06,0-.09l-1.13-12.28,54.04,3.73-.33.37c-.07.08-.11.19-.1.29l1.01,12.01-53.53-3.79ZM283.68,73.18l-.12.22-51.73,65.06-.92.85-1.25.71-1.4.54-1.62.42-1.78.28-1.82.12-1.32-.03-79.7-5.67-.21-.05-.2-.09-.17-.12-.13-.14-.06-.1-1.03-12.28,64.55,4.47,17.2,1.1h0s.02,0,.03,0l2.02-.14s.02,0,.03,0l1.97-.31s.02,0,.04,0l1.81-.46s.03,0,.04-.01l1.56-.6s.04-.02.05-.03l1.23-.7s.05-.03.07-.05l.84-.77s.03-.03.04-.04l51.31-63.63.71,11.3-.06.16ZM284.03,65.15l-.28-4.5c-.01-.2-.17-.36-.37-.37l-5.2-.31,18.93-23.32.08,1.28h-.19c-.13-.02-.25.04-.33.14l-8.67,10.7h0c-.06.08-.1.17-.09.27l.6,9.58c.01.2.17.36.37.37h.12s-4.97,6.16-4.97,6.16ZM296.37,56.72l-.51-8.4,6.02-7.49.5,8.35-6.01,7.54ZM302.61,39.77c-.01-.2-.17-.36-.37-.37l-.96-.05-.05-.83c-.01-.2-.17-.36-.37-.37l-2.88-.16-.12-1.95,5.06.29.71,11.77-.02.12-.04.1-.04.06h0s-.39-.02-.39-.02l-.52-8.59ZM323.26,23.42l-.05.16-.26.54-.1.16-18.49,23.05-.68-11.24,18.97-23.53.61,10.7v.16Z"/>
  </g>
</svg>