<?xml version="1.0" encoding="UTF-8"?>
<svg id="Layer_2" data-name="Layer 2" xmlns="http://www.w3.org/2000/svg" viewBox="0 0 115.02 154.56">
  <g id="Layer_1-2" data-name="Layer 1">
    <path d="M114.93,43.28l-.15-.17c-.07-.08-.17-.12-.27-.12h-.66s0-.99,0-.99c0-.09-.03-.17-.09-.24l-.14-.16c-.07-.08-.17-.12-.27-.12h-1.45s0-3.46,0-3.46h2.64c.2,0,.36-.16.36-.36l.07-33.51s0-.03,0-.04l-.09-.82s0-.05-.02-.08l-.27-.78s-.02-.05-.04-.07l-.44-.7s-.03-.04-.05-.06l-.58-.58s-.04-.04-.06-.05l-.7-.44s-.03-.02-.04-.02l-.18-.08s-.02,0-.03-.01l-.78-.27s-.05-.02-.08-.02l-.82-.09s-.03,0-.04,0H19.94s0,0,0,0c-.07,0-.15.03-.21.06l-.09.06s-.04.03-.06.05l-.85.85s-.03.02-.05.04l-3.49,3.49s0,.02-.02.02L6.46,13.31h-.01s-.02.04-.03.05h0S.11,19.67.11,19.67C.04,19.74,0,19.83,0,19.93l.04,27.63c0,.2.16.36.36.36h2.79s0,7.54,0,7.54H.6c-.12,0-.23.06-.3.15l-.19.27c-.04.06-.07.13-.07.21l.13,93.97s0,.03,0,.04l.1.91s0,.05.02.08l.3.86s.02.05.04.07l.49.78s.03.04.05.06l.65.65s.04.04.06.05l.78.49s.05.03.07.04l.87.3s.05.01.08.02l.91.1s.03,0,.04,0l39.45.02h0c.19,0,.35-.15.36-.34l.04-.59s0-.02,0-.03v-.2h26.45s0,.21,0,.21c0,0,0,.02,0,.03l.05.59c.01.19.17.33.36.33l38.84.02s.03,0,.04,0l.91-.1s.05,0,.08-.02l.87-.3s.05-.02.08-.04l.78-.49s.05-.03.06-.05l.65-.65s.04-.04.05-.06l.49-.78s.03-.05.03-.07l.31-.86s.02-.05.02-.08l.1-.91s0-.03,0-.04l.16-79.5c0-.07-.02-.13-.05-.19l-.19-.31c-.07-.11-.18-.17-.31-.17h-2.45s.02-13.16.02-13.16h1.59s0,0,0,0c.2,0,.36-.16.36-.36v-1.22s.81,0,.81,0c.2,0,.36-.16.36-.36l.02-11.3c0-.09-.03-.17-.09-.24ZM94.23.79h16.32s.09,15.98.09,15.98l-.03,13.33h-16.24s-.14-29.31-.14-29.31ZM65.2.79l.17,29.3h-8.53s-.36-29.3-.36-29.3h8.72ZM44.46,30.09V.79s8.35,0,8.35,0l.06,29.3h-8.41ZM31.78,30.09l-.32-29.3h8.77s.25,29.3.25,29.3h-8.7ZM77.47.79l.28,29.3h-8.52s-.23-29.31-.23-29.31h8.47ZM89.91.79l.27,29.31h-8.45s-.27-29.31-.27-29.31h8.45ZM19.99.79h7.93s.02,29.3.02,29.3h-8.62s.03-28.65.03-28.65l.65-.65ZM15.09,5.69l.07,31.54H7.09s-.03-23.5-.03-23.5L15.09,5.69ZM113.87,150.93l-.28.79-.45.71-.59.59-.71.44-.79.28-.85.1-38.46-.02v-.79s0,0,0,0v-.36h-27.63c-.2-.01-.36.15-.36.35v.79s-39.06-.02-39.06-.02l-.86-.1-.79-.28-.71-.44-.59-.59-.45-.71-.28-.79-.1-.85-.13-93.59h2.43s.72,0,.72,0v-8.89c-.01-.2-.17-.36-.37-.36H.76s-.04-27.12-.04-27.12l5.58-5.59.03,23.15h0c0,.05,0,.11.03.15.06.13.19.21.33.21h8.83s0,0,0,0h.36l-.07-33.04,2.76-2.77-.02,28.3h0c0,.06,0,.11.03.17.06.12.19.2.32.2h9.38c.2,0,.36-.16.36-.36l-.02-29.68h2.08s.32,29.69.32,29.69c0,.17.12.31.28.35.03,0,.05,0,.08,0h9.08s.09,0,.09,0h.27s0,0,0,0h.36s-.25-30.05-.25-30.05h2.77s0,29.69,0,29.69h0c0,.08.02.16.07.22.07.09.17.14.28.14h9.14c.2,0,.36-.16.36-.36l-.06-29.69h2.22s.36,29.69.36,29.69c0,.2.16.36.36.36h9.26s0,0,0,0h0s.02,0,.03,0c.19-.01.34-.17.33-.36l-.17-29.68h2.34s.23,29.69.23,29.69c0,.2.16.36.36.36h9.26s0,0,0,0h0s.04,0,.07,0c.17-.03.3-.18.3-.36l-.28-29.68h2.53s.28,30.05.28,30.05h.36s0,0,0,0h9.2s.07,0,.1-.01c.16-.04.27-.19.26-.35l-.27-29.69h2.84s.15,30.05.15,30.05h.36s0,0,0,0h17s.09,0,.14-.02c.14-.06.22-.19.22-.33l.03-13.52-.09-16.13.36.04.7.24.63.4.53.53.39.63.24.7.08.76-.07,33.13h-2.64c-.2,0-.36.16-.36.36l-.06,32.59h0v.36s0,0,0,0v.05s0,0,0,0v.31h3s-.16,79.12-.16,79.12l-.1.85ZM113.47,54.46c-.2,0-.36.16-.36.36v1.22s-1.23,0-1.23,0l.03-13.68h1.23s0,.63,0,.63h0v.89s1.17,0,1.17,0l-.02,10.57h-.81Z"/>
  </g>
</svg>