<?xml version="1.0" encoding="UTF-8"?>
<svg id="Layer_2" data-name="Layer 2" xmlns="http://www.w3.org/2000/svg" viewBox="0 0 164.14 323.88">
  <g id="Layer_1-2" data-name="Layer 1">
    <path d="M163.7,80.65l-1.3-2.86-2.04-2.49L35.34.09l-.39-.09-8.84,4.62-.04.02-6.7,4.05v.24l-9.12,5.84-1.95,1.01h0s-.06.03-.06.03h0s0,0,0,0h0S0,21.1,0,21.1l.63,44.57,4.05,2.51.11,8.21-3.99,2.1,2.04,144.44.52,2.88,1.58,3.45,1.97,2.45,51.59,34.28,1.41-.78,33.26,21.95v1.73l41.69,27.52,11.07,7.11,1.26.35,1.13-.06,1.08-.46.04-.04h0s9.18-5.45,9.18-5.45l.89-1.06.52-1.33,2.19-124.59-4.1-2.58.47-24.12,1.93-1.07v-.63s1.65-.92,1.65-.92l.32-18.79-1.61-1,.03-1.73h0s1.82-1.02,1.82-1.02l.35-.76,1.06-54.8-.43-2.82ZM34.99,1.15l69.79,41.82,52.55,31.72h0s-6.48,3.49-6.48,3.49l-23.15-13.97h0s-.04-.53-.04-.53l-2.38,1.26h-.02l-3.79-2.3,1.93-1.04-13.43-8.1-.35-.11-1.86.97-3.34-2.02,1.91-1.04-14.15-8.54v.63l-1.37.74-3.08-1.86,1.95-1.02-14.43-8.71v.67l-1.34.69-2.86-1.71,1.91-1.04-13.82-8.34v.65l-1.37.72-3.58-2.17,1.95-1-12.68-7.65-1.08-.65-.56.3-1.34.69-2.64-1.58,1.93-1-11.05-6.67,6.28-3.32ZM125.59,113.85l.22-47.95.85-.45-.22,47.89-.85.52ZM126.95,114.34l21.69,13.33-.02.95-22.49-13.82.82-.46ZM148.65,79.38l.26.48h0s-.54.01-.54.01l.56,27.41-.28,19.13-21.13-13,.24-47.91,22,13.28-1.11.6ZM108.41,103.27l-.13-47.95.87-.45.09,47.97-.82.43ZM109.75,103.77l10.05,6.18v.95l-10.86-6.7.8-.43ZM110.31,102.84l-.09-47.91,10.96,6.61-1.39.74v46.39l-9.49-5.83ZM102.9,98.27l-9.47-5.81-.17-47.78,10.88,6.57-1.39.74.15,46.28ZM92.35,92.44l-.85.43-.17-47.8.85-.46.17,47.82ZM92.87,93.39l10.03,6.15v.95l-10.86-6.67.82-.43ZM86.22,88.02l-9.38-5.76-.48-47.76,11.09,6.7-1.37.71.13,46.11ZM75.75,82.23l-.84.45-.5-47.82.87-.45.48,47.82ZM76.27,83.18l9.9,6.09.04.95-10.75-6.61.8-.43ZM69.49,77.72l-9.12-5.61-.13-47.37,10.51,6.35-1.37.72.11,45.92ZM58.29,25.11l.85-.43.15,47.41-.85.46-.15-47.43ZM59.8,73.04l9.69,5.96v.93l-10.49-6.46.8-.43ZM42.56,61.8l-.87.46-.69-47.58.85-.43.72,47.56ZM43.08,62.75l9.92,6.11.02.93-10.77-6.61.82-.43ZM43.62,61.82l-.67-47.5,10.96,6.61-1.37.72.5,45.96-9.43-5.79ZM26.89,5.42l.72-.37,9.95,6.02-1.36.69.32,45.7-9.23-5.68-.39-46.37ZM26.72,52.7l9.77,6,.04.95-10.62-6.54.8-.41ZM26.2,51.74l-.82.43-.39-45.68.87-.52.35,45.76ZM9.14,16.56l.85-.43.45,37.24-.82.43h0s-.48-37.24-.48-37.24ZM10.97,54.31l8.99,5.55h0v.91l-9.79-6.05h0s.81-.42.81-.42ZM19.39,10.2h0s.54,48.38.54,48.38l-8.41-5.14-.46-37.9,8.33-5.33ZM4.81,77.64l.02,2.73-2.36-1.5,2.34-1.24ZM148.17,322.73l-.87.04-.98-.24-52.07-34.21.02-1.73-36.29-23.97v1.73l-49.1-32.42-2.08-1.93-1.73-2.75-1-3.01L1.91,79.8l2.93,1.82,1.11.65-.02-1.26-.15-13.43-4.01-2.49-.67-43.36,7-4.53.43,36.66.02,1.28,1.08.65,10.36,6.18,1.08.65-.02-1.24-.58-52.11,3.45-2.1.39,45.55v.67l1.08.65,12.26,7.56-.37-48.54,2.62,1.56.8,47.61.02,1.28.43.26,11.92,7.28.5.3h.09l.5-.07v-.84l-.52-47.5,3.58,2.17.15,48v.63l.26.15.82.5,12.16,7.39-.13-48.67,2.86,1.73.56,47.71.02,1.32.46.33,12.96,7.87-.15-48.86,3.08,1.84.26,47.78v1.28l.46.3,13.04,7.91-.17-49.06,3.36,2.04.13,48.56v.63l.26.15.85.52,12.46,7.54v-49.12l3.84,2.32-.22,48.78v.09l.02.28.54.33,24.59,15.06.35-23.14-.54-26.35.2.15,1.95,2.3,1.34,2.84.46,2.82-.8,53.74-4.16-2.58-.78,53.35-.52.3,4.62,2.9v.85l-2.02,123.34-.37.89-.54.61-.67.3ZM160.32,142.7l.56.34-6.1,3.38-.56-.35,6.1-3.37ZM150.98,143l1.65.99h0s-.04,2.36-.04,2.36l1.61,1-.26,16.92-.8-.49-.29.46-.54.09-.02,1.49-1.65-1.03.32-21.77ZM153.4,165.19l.54.34-.55.3v-.64ZM159.01,314.98l-.43,1.3-.69.8-7.15,4.23h0s.02-.03.02-.03l2.1-124.48v-.02l8.26-4.68v.41s-2.12,122.47-2.12,122.47ZM160.64,191.15l-8.31,4.68-3.05-1.93,8.28-4.69,3.08,1.93ZM157.05,188.3l-8.27,4.63.74-50.81.39.24h0s-.33,22.7-.33,22.7l.04.33,3.21,2,4.69-2.61-.46,23.52ZM155.03,164.29l.26-16.93,6.09-3.37-.29,16.88-6.07,3.41ZM159.8,141.75l-6.09,3.37.02-1.12,6.09-3.36h.01s-.02,1.1-.02,1.1ZM162.06,137.59l-.06.54-8.3,4.66.8-53.78-.13-1.52-1-3.19-1.86-2.88-1.66-1.47,8.11-4.37-.41-.76,2.05,1.23,1.8,2.12,1.26,2.71.41,2.6-1,54.11Z"/>
  </g>
</svg>