<?xml version="1.0" encoding="UTF-8"?>
<svg id="Layer_2" data-name="Layer 2" xmlns="http://www.w3.org/2000/svg" viewBox="0 0 542.03 401.33">
  <g id="Layer_1-2" data-name="Layer 1">
    <g>
      <path d="M541.91,204.54L186.47.05c-.06-.06-.19-.06-.19,0L.13,135.98c-.06.06-.13.13-.13.19l.13,4.38c0,.13.06.19.13.19l3.13,1.81-3.07,2.25c-.06.06-.12.13-.12.13l.12,4.44c0,.06,0,.12.06.19l3.13,1.81-3.07,2.19c-.06.06-.06.13-.06.25l.13,4.38c0,.06,0,.13.06.13l3.07,1.88-3,2.19c-.06.06-.06.13-.06.19l.06,4.38c0,.06.06.12.12.19l3.07,1.81-3,2.19c-.06.06-.06.13-.06.19l.06,4.38c0,.06.06.19.06.19l3.19,1.81-3.07,2.25c-.06,0-.13.06-.13.13l.13,4.44s0,.06.13.12l19.46,11.51.62,17.14c0,.06.06.13.13.19l317.71,187.85h.06c.06,0,.13,0,.13-.06l12.57-9.57,4.07,2.44h.88s.06-.06.12-.06l184.22-140.87c.06,0,.13-.13.13-.13l.06-4.44s0-.06-.13-.13l-2.88-1.75,3-2.31c.06,0,.06-.06.06-.12l.06-4.38c0-.13-.06-.19-.06-.25l-3-1.63,3.07-2.38.13-.13.06-4.44c0-.06-.06-.12-.13-.19l-2.94-1.69,3.07-2.38s0-.06.06-.19l.06-4.38c0-.06-.06-.13-.13-.13l-3-1.75,3.13-2.38q.06-.06.06-.13l.13-4.44c0-.06-.06-.13-.13-.19l-3-1.69,3.13-2.31v-.19l.13-4.44c0-.06-.06-.06-.13-.13ZM186.41.42l355.06,204.3-184.6,140.5h-.63L87.58,187.27.63,136.16,186.41.42ZM.69,149.24l-.12-3.88,45.1,26.46c-.06,0-.06.06-.06.13l.06,3.75L.69,149.24ZM330.54,348.29h.06v.06l11.89,7.01h.06l.06.06h.06l2.88,1.69-.06,3.94-8.13-4.75-11.88-7.01-.06-1.19v-2.88l5.13,3.07ZM330.41,347.28v-11.57l.06-.13.19.06,11.89,7.01.19.19.19.25.13.25-.06,11.57v.06l-.13.06h-.06l-.06-.06-11.95-7.01-.06-.06-.12-.13-.13-.25-.06-.25ZM136.37,252.64h.06v1.13l-1.06-.56-.44-.19-.63-.44.88-.63,1.19.69ZM135.55,251.7l.81-.69v1.19l-.81-.5ZM134.74,253.33l.37.25h.06l1.19.56h.06v.38l.06.75-3.19-1.88v-.06l.63-.44.81.44ZM136.37,250.08v.44l-3,2.25-.06-2.75v-.06l-.06-.44h-.06l-.25-.44v-.06l-.44-.31v-.06l-12.76-7.51,2.94-2.19,15.95,9.45-2.13,1.5c-.06.06-.13.13-.13.19ZM119.23,244.45l-.37.25-.06-3.88,3.07-2.31v.06l.38.19-3,2.25c-.06.06-.06.13-.06.13l.06,3.32ZM119.23,244.95v.06h-.12l.12-.06ZM105.09,236.13l-.37.25-.06-3.88,3.13-2.31v.06l.38.19-3,2.25c-.06.06-.12.06-.12.13l.06,3.32ZM105.09,236.63v.06l-.12-.06h.12ZM90.58,224.93v.56l-1.31.88-1.81.06-11.32-6.63-.06-1.19-.06-2.75,11.2,6.57q.06.06.13.06l2-.13h.12l2.19-1.63,1.19.63v1.63l-2,1.5-.06.06h-.06c-.06,0-.06.06-.06.13l-.06.25ZM90.64,227.99v.25l-2.38-1.38,1.13-.06c.06,0,.06-.06.12-.06l1.06-.81.06,2.06ZM75.63,216.8v1.06l-1.06-.44-1.19-.75.94-.63,1.31.75ZM74.69,215.8l.88-.69v1.19l-.88-.5ZM74.38,217.74h.06l1.19.56v.31h.06l.06.75-3.31-1.94.63-.44,1.31.75ZM75.69,214.04c-.06,0-.13.13-.13.19v.38l-3.07,2.25-.06-2.82-.13-.44v-.06l-.25-.38c-.06,0-.06-.06-.06-.06l-.31-.31h-.06l-12.7-7.51,2.94-2.13,15.89,9.38-2.06,1.5ZM58.43,208.6l-.37.25-.06-3.88,3.07-2.31h.06l.31.25-3,2.25c-.06,0-.06.06-.06.13l.06,3.32ZM58.43,209.04v.19l-.13-.06.13-.13ZM30.9,188.77h-.06v-.06l2.94-2.13,12.89,7.63-2.94,2.13-12.82-7.57ZM43.6,200.66l-2.63-1.63-9.95-5.88-.31-.25-.13-.12-.13-.19-.06-.44-.06-2.88.06-.19h.06l.31.06,12.76,7.57.06,3.94ZM32.34,185.77l1.06.63-1,.69-.06-1.31ZM47.04,194.4l.37.25-3.07,2.19v3.5l-.31.25-.06-3.94,3.07-2.25ZM49.54,199.78l-.38-.25-4.25-2.5,2.88-2.19,12.89,7.63-2.88,2.13-8.26-4.82ZM57.67,208.92l-12.89-7.63-.06-3.88,4.19,2.44.44.25,8.26,4.88.06,3.94ZM72.06,216.98l-.06.19-.06.06-.25-.13-6.13-3.57-.81-.5-5.88-3.44-.13-3.94,12.7,7.44.25.31.25.38.06.31.06,2.88ZM78.13,212.73l13.14,7.76-2,1.5-1.88.06-11.26-6.63-.13-1.13,2.13-1.56ZM90.95,225.05l.06-.19.13-.06.25.06,12.89,7.63.06,3.94-12.7-7.51-.44-.38-.13-.25-.12-.38v-2.88ZM91.58,224.55s-.06,0-.06-.06l2.88-2.19,13.01,7.63v.06l-2.94,2.13-12.89-7.57ZM93.27,222.74v-1.13l.75.5-.75.63ZM105.4,233.19l13.01,7.63v3.94l-12.95-7.63-.06-3.88v-.06ZM105.59,232.81l2.88-2.19,13.07,7.69-2.94,2.19-13.01-7.69ZM119.6,241.51l12.7,7.51.31.25.19.44.13.31.06,2.88-.06.19-.13.06-.31-.06-12.89-7.63v-3.94ZM329.66,365.43v.06l-.5,3.63-192.23-113.47-.06-1.19-.06-2.75,192.86,113.72ZM169.46,265.96l.94-.06s.06,0,.06-.06l.37-.25v1.19l-1.38-.81ZM170.77,256.27l-.56.44-1.5.06h-.25l-22.46-13.2-9.32-5.5-.13-1.13v-2.94l31.71,18.77h.13l1.88-.06c.06,0,.06-.06.13-.06l2.25-1.75.81.5-2.69,2c-.06,0-.06.06-.06.12l.06,2.75ZM170.77,256.77v1.19l-1.5-.81,1.06-.06s.06,0,.06-.06l.37-.25ZM171.15,254.52l151.26,89.08c.06,0,.12.06.12.06l1-.06c.06,0,.13-.06.13-.06l2.81-2.06.75.44-2.13,1.63c-.06.06-.13.13-.13.19v2.75l-1.44,1.13-.69.06h-.25l-73.5-43.29-.06.13-.25.06.06.25.06.88-.13.63-.25.31-.19.19.13-.44v-.06l-.06-.88v-.06l-.25-.94-.44-.94h-.06l-.69-.94-.81-.88c-.06,0-.06-.06-.06-.06l-2.25-2,.69-.5-.19-.31-.88.63c-.06,0-.13.06-.13.19v1.31l-72.13-42.47-.06-.56v-3.38ZM325.03,348.97l-1.5-1c.06,0,.13,0,.13-.06l1.31-.94v1.19l.06.81ZM243.52,305h.19c.06-.06.06-.13.06-.19v-4.75l2.06,1.88.81.88.69.88.44.88.25.94v.81l-.13.63-.31.44-.19.06c-.06.06-.12.06-.12.13s0,.19.06.19l.19.25.06.06.63.38.63.5.62.56.44.5.25.44v.31l-.25.12-.31.06-4.13-.69-2.25-2.38-.06-.06-.69-.31-.69-.56-1.06-.81-.5-.63-.19-.38-.06-.25v-.06l.25-.13.31-.12,3,.44ZM240.83,304.19v-.06l.25-.13.31-.06,1.94.25v.44l-2.5-.44ZM249.78,309.25h-.06l-.63-.63-.69-.56-.63-.38.13-.06.06-.06.38-.31.06.06q0,.06.06.06l.56.38.69.56.63.56.37.5.25.38-.56.38-.25-.38-.38-.5ZM239.71,304.5c-.06,0-.06.06-.06.06l-.06.19v.44q0,.06.06.06l.19.44v.06l.56.63h.06l1.06.88.75.5v.06l.63.38,2.31,2.44c.06,0,.13.06.19.06l4.13.69h.06l.38-.12h.13l.38-.25.69-.56,71.25,41.97h1.25l2.75-2.13.75.44-2.13,1.69c-.06,0-.06.06-.06.13v2.69l-1.5,1.19-.5.06h-.37l-151.32-89.2v-.56l-.06-3.38,69.12,40.72-.63.44ZM325.03,357.67l-1.44-.81s0-.06.06-.06l1.31-1.06v1.19l.06.75ZM328.78,374.81l1.38-9.45.5-3.5.06-.19.06-.06,12.26,7.26.12.25.06.31-1.88,12.95-.06.12-.12.06-.19-.06-11.89-6.94-.19-.19-.13-.31v-.25ZM325.47,358.04l-.13-1.13.06-2.82,20.08,11.82v3.94l-2.06-1.19-17.95-10.63ZM344.86,373.87l.94-.63v1l-.19.13-.75-.44v-.06ZM345.67,365.55l-20.2-11.89-.06-1,2.13-1.69,9.63,5.63,8.45,5c.06,0,.13-.06.19-.06h.06l-.06,3.94-.13.06ZM345.67,356.73l-2.38-1.44,2.57-1.94v3.32l-.19.06ZM329.97,347.47l-4.44-2.63-.13-1.06,2.25-1.69,2.25,1.38h.06v4ZM329.79,342.91l-215.12-126.61-.06-3.88,215.19,126.61v3.88ZM136.24,237.44v.19l-.69-.44h.19l.5.25ZM136.12,236.88l.06-.06v.13l-.06-.06ZM134.43,232.81c.06,0,.13.06.13.06h.06l.94-.06s.06,0,.13-.06l.5-.31q-.06.06-.06.13l.06,3.82-.63.44-.56.06h-.31l-5.26-3.13v-3.63c0-.13-.06-.19-.13-.19l-34.15-20.08h-.19c-.06,0-.13.06-.13.19l.06,3.38-5.57-3.25-.06-.56v-3.38l45.16,26.59ZM111.78,230.68h.06l.88.5.06.06,5.19.94.13.06v.12l-5.82-1.06-.81-.5-6.01-5.94.06-.06,1,.63,5.25,5.25ZM107.91,226.24l9.07,5.32-4.07-.69-.81-.5-4.19-4.13ZM95.33,214.55l-.06-4.13,33.72,19.83.06,4.13-33.72-19.83ZM88.89,208.85l-1.31.13h-.25l-2.13-1.25-9.38-5.57-.12-1.06-.06-2.88,11.45,6.69h.13l1.75-.06h.13l2-1.5.13.06-2.25,1.69c-.06,0-.13.06-.13.13l.06,3.63ZM88.89,209.29v.44l-.75-.38.75-.06ZM91.45,203.16v-.06l-45.41-26.71v-4.13l68.12,40.16.06,4.13-22.77-13.39ZM73.31,196.78h1.19l2.38-1.75.31.12-1.88,1.38c0,.06-.06.13-.06.19l.06,3.38-.94.69-.62.06h-.25l-4.57-2.69-.06-3.69c0-.06,0-.12-.06-.19l-33.97-19.95h-.19c-.06.06-.06.12-.06.19v3.44l-6.13-3.69-.06-.5-.06-3.44,44.98,26.46ZM75.32,201.6l.06.19-.94-.56c.06,0,.06-.06.06-.06l.06-.06.75.5ZM74.94,200.85l.38-.25v.5l-.38-.25ZM51.11,194.9h.06l.88.5q0,.06.06.06l5.13.88.13.13v.06l-5.82-1-.81-.5-5.94-5.94h.06l1,.56,5.25,5.25ZM47.23,190.46l9.01,5.32-4.07-.69-.81-.5-4.13-4.13ZM57.17,192.03l-22.14-13.01-.06-4.13,33.53,19.7.06,4.13-11.39-6.69ZM.88,158l-.06-3.88,25.33,14.95h.06l1.81-.06c.06,0,.13-.06.13-.06l2.31-1.75.13.13-2.56,1.88c-.06.06-.13.13-.13.19l.13,3.63-1.69.06L.88,158ZM28.02,173.38v.5l-.81-.44.81-.06ZM1.06,166.82l-.13-3.88,43.54,25.65-.19.06v.44c0,.06.06.06.06.13l6.13,6.13h.06l.88.56h.06l6.07,1.06h.13c.06-.06.06-.13.06-.19v-.38l47.42,27.9h.06l-.06.06h-.19v.5q0,.06.06.13l6.13,6.13h.06l.88.56h.06l6.13,1.13v-.19h.25v-.44l49.86,29.34.06.06,1.88-.13h.06l2.25-1.69.81.44-2.56,1.94c-.06.06-.13.13-.13.19l.06,2.75-.5.38-1.5.12h-.31L1.06,166.82ZM1.19,175.57l-.06-3.88,25.21,14.83q.06.06.13.06l2-.12h.06l2.25-1.63,1.19.69.06,1.88-1.88,1.38c-.06.06-.13.06-.13.12l-.12.31v.19l-1.44,1.06-1.63.13h-.25l-25.4-15.01ZM30.03,192.4l-2.56-1.5h1.06q.06,0,.13-.06l1.25-.94.06,2.31v.06l.06.13ZM338.98,400.77L21.64,213.17l-.63-16.76,7.07,4.19.13,9.45h.44l-.13-9.2.94.56.13,8.82h.44l-.19-8.63,2.81,1.69h.06v2.88l.06.19s0,.06.06.06l.13.19q0,.06.06.06l.19.19,15.64,9.2v.06l.19.06h.12l.19-.06c.06,0,.06-.06.13-.13v-2.75l21.77,12.82v.06l.13,9.38h.44l-.13-9.2,15.2,8.95.13,8.57c0,.06.06.13.13.19l218.44,129.05c0,.06.06.06.06.06.06,0,.13,0,.13-.06.06,0,.13-.06.13-.12v-8.32l33.65,19.89-.56,16.26ZM33.59,205.98v.06l.13.19.06.06.19.13v.06l14.95,8.82h.06l.13.06v.38h-.06l-15.64-9.2-.13-.19-.13-.13v-.13l-.06-2.56.37.19.06,2v.06l.06.19ZM34.09,205.35l.44.25h.06l.37.12q.06,0,.12-.06h.19c0,.06.06.06.06.12l.13.13-.13.19-.06.06-.06.38c-.06,0-.06.06-.06.06v.13l-.94-.63-.19-.12-.06-.13-.06-.19v-1.63h.06v1.13c0,.06.06.13.13.19ZM35.97,205.79l.13-.19-.25-.19-.06-.19,2.88,1.56v.12l.13.19.06-.06,1.25.75.13.19.19-.13,5,2.94v.13l.13.19.06-.06,1.25.75.13.13.19-.06,1.81,1.06v.63l-.06.06h-.06l-.25.31q0,.06-.06.13l-.06.38-12.89-7.57v-.25l.06-.25.25-.31.13-.13-.06-.13ZM49.04,214.73c.06,0,.06-.06.06-.06v.25l-.19-.06.13-.13ZM35.47,205.1l-.13.13-.31.06-.31-.06-.31-.19-.06-.75,1.31.75c-.06,0-.13,0-.19.06ZM305.45,364.36v.44L87.89,236.31l.31-.25v.06l217.25,128.24ZM305.45,365.3v.69L87.76,237.44l-.06-.75,217.75,128.61ZM102.65,251.58l2.63,1.56h.25l.81-.63,11.7,6.88v1.19c0,.06.06.13.13.13l2.63,1.56c0,.06.06.06.06.06.06,0,.13-.06.13-.06l.88-.63,11.7,6.88v1.19c0,.06,0,.12.06.19l2.69,1.56h.19l.88-.69,11.7,6.94v1.19h.44l-.06-.94,2.25,1.31v1.19h.44v-.94l12.51,7.38v1.19c0,.06,0,.12.06.12l2.69,1.56.06-.12h.25l-.06-.94,12.57,7.38v1.19c0,.06.06.13.13.19l2.63,1.56h.13s.06,0,.06-.06l.88-.63,11.76,7.01.06,1.13h.37v-.94l2.25,1.38v1.13h.19l.13.19.88-.63,11.76,6.94v1.19h.44v-.94l2.25,1.31v1.19h.38v-.94l12.64,7.44v1.19h.37v-.94l2.25,1.31v1.19h.44v-.94l12.57,7.44v1.19h.44v-.94l2.25,1.31v1.19h.37v-.94l12.7,7.51v1.13c0,.06,0,.13.06.19l2.69,1.56.06.06c.06,0,.12-.06.12-.06l.88-.63,11.89,7.01v1.19h.37v-.94l2.32,1.31v1.19h.19l.13.19.81-.69,11.95,7.07v1.19h.38v-.94l2.32,1.31v1.19h.37v-.94l12.39,7.32v2.44L87.58,243.82l1.81-1.38,13.14,7.82v1.13c0,.12.06.19.13.19ZM102.96,251.33v-.81l2.19,1.31v.81l-2.19-1.31ZM105.59,252.58v-.56l.38.25-.38.31ZM118.41,260.46v-.81l2.25,1.31v.81l-2.25-1.31ZM121.04,261.71v-.5l.44.19-.44.31ZM133.93,269.59v-.81l2.25,1.31v.81l-2.25-1.31ZM136.56,270.91v-.56l.44.25-.44.31ZM165.02,287.98v-.81l2.25,1.31v.81l-2.25-1.31ZM180.59,297.18v-.81l2.25,1.31v.81l-2.25-1.31ZM183.28,298.49v-.56l.37.25-.37.31ZM198.86,307.69v-.56l.44.25-.44.31ZM258.91,343.41v-.81l2.25,1.38v.81l-2.25-1.38ZM261.6,344.72v-.5l.37.19-.37.31ZM277.3,354.04v-.56l.44.25-.44.31ZM87.76,241.07v-.69l217.69,128.55v.75L87.76,241.07ZM87.95,240l1.44-1.13,13.07,7.76.06,1.94-14.57-8.57ZM102.9,248.82v-2l15.08,8.95v2l-15.08-8.95ZM118.35,256.02l15.14,8.88v2l-15.08-8.95-.06-1.94ZM133.87,265.15l15.14,8.95.06,2-15.14-8.95-.06-2ZM149.44,276.29v-1.94l15.14,8.95v2l-15.14-9.01ZM165.02,285.48v-1.94l15.14,8.95.06,2-15.2-9.01ZM180.59,294.74v-2l15.2,8.95v2l-15.2-8.95ZM196.17,301.93l15.26,9.01v2l-15.2-9.01-.06-2ZM211.81,311.19l15.26,9.01.06,2-15.26-9.01-.06-2ZM227.51,322.39v-1.94l15.26,9.01v2l-15.26-9.07ZM243.21,331.71v-2l15.26,9.01v2l-15.26-9.01ZM258.91,340.97v-2l15.33,9.07v2l-15.33-9.07ZM274.61,350.23v-1.94l15.39,9.07v2l-15.39-9.13ZM290.38,359.55v-2l15.08,8.95v2l-15.08-8.95ZM87.39,236.19c-.06.06-.06.12-.06.19v1.19c0,.06.06.13.13.13l1.56,1-1.56,1.13c-.06.06-.06.13-.06.19v1.19c0,.06.06.12.13.19l1.5.88-1.63,1.19-.06-5.88-.06-2.06.06.06.5.31-.44.31ZM339.36,400.71l.63-15.95,11.45,6.69-12.07,9.26ZM540.84,249.08l-.06,3.88-184.1,140.75-.63.06L1.38,184.33l-.06-3.88,35.84,21.14,34.22,20.2,15.58,9.2,94.46,55.74,147.13,86.83-.19,1.19v.06l.06.38v.06l.13.31s.06,0,.06.06l.25.19q0,.06.06.06l11.89,7.01v.06l.31.06h.12l.25-.13.06-.06h.06l1.13-.88,7.32,4.32,5.82,3.5h.88c.06,0,.12-.06.12-.06l183.97-140.62ZM541.03,240.32l-.06,3.88-184.28,140.75h-.56l-11.39-6.69v-3.94l.69.44v1.25c0,.13.06.19.13.19l1.44.88.13-.19h.19v-.44l.81.44,2,2.81v.69c0,.06,0,.12.06.19l1.63.94.13-.13h.19v-2.75l3.81,2.25q.06.06.13.06l.75-.06h.12l184.1-140.56ZM345.99,351.35v-.13l.06.06-.06.06ZM346.93,351.41l-.06-.06.19-.13-.56-.5v-.19l1.63,1v.25h-.13l-.06-.06h-.37l-.19.06-.19.06-.13.12h-.06l-.06.13h-.06l-.06.13s-.06,0-.06.06l-.06.12-.06.19v.06l-.06.19-.06.25v.19h-.06v.63l.06.13v.19l.06.12v.13l.06.13.06.12v.06l.06.06v.06l.06.13v.06l.13.13.13.19.13.12.13.06v.06l.13.06h.06l.06.06h.06l.13.06h.19l.13-.06.13-.06h.06l.06-.13.06-.06v-.06l.06-.06.06-.06v-.13l.06-.13v-.12l.38-1.75.06-.13v-.06l.06-.06.13-.19.06-.12.06-.06h.06l.12-.06h.25l.13.06.13.06.13.06.13.13.19.06.19.19.13.25.19.25.12.25.13.25.13.31.13.38.06.31v1.06l-.06.31v.13l-.06.19-.06.13v.06l-.06.06-.19.19-.12.13-.06.06c0,.06-.06.06-.06.13s.06.13.06.19l.5.5v.13l-1.56-.94v-.25l.19.06h.44l.06-.06h.06l.12-.06.06-.06h.06l.06-.06.06-.06.06-.06.06-.06v-.06h.06v-.06h.06v-.12l.06-.06v-.13l.06-.06v-.25l.06-.25v-.56l-.06-.19v-.25h-.06v-.19l-.06-.19-.13-.19-.12-.25-.06-.12h-.06l-.06-.13-.13-.06-.06-.13h-.06l-.06-.06h-.13c0-.06-.06-.06-.06-.06h-.31q-.06,0-.06.06h-.06l.06.19-.13-.13-.19.19v.06l-.06.12-.06.13-.06.31-.31,1.5-.12.38-.13.13-.13.25-.13.06h-.06l-.13.06h-.13l-.13-.06-.13-.06-.19-.06-.19-.13-.19-.19-.19-.19-.13-.19-.19-.25-.13-.25-.13-.25-.13-.31-.13-.31-.06-.31v-.38l-.06-.31v-.38l.06-.19v-.13l.06-.19.06-.25.06-.25.13-.19v-.06l.19-.19v-.06l.06-.06h.06l-.06-.12ZM348.24,352.23c.06.06.13.06.19,0,.06,0,.06-.06.06-.19v-.5l.19-.12,1.13.75h-.44l-.13.06h-.06l-.06.06h-.06l-.06.12h-.06l-.06.13-.13.19-.06.13-.06.06v.06l-.06.06v.12l-.25,1.38-.13.44-.06.19-.06.06v.13h-.06l-.06.06h-.25l-.13-.13-.12-.06-.06-.06-.06-.12-.13-.19-.13-.13-.13-.5-.06-.25v-.81l.06-.19.06-.19.06-.19.06-.13.06-.13.13-.06.06-.06.12-.06h.56l.19.06ZM346.55,355.85h.06l.13.25h.06l.13.25h.06l.19.19.19.19h.06l.19.13.19.13.19.06.19.06h.44l.13-.06s0-.06.06-.06l.06-.06h.06l.12-.13v-.06l.13-.12.13-.19v-.06l.06-.25.25-1.19.19-.56.06-.25v-.13l.06-.06v-.06h.06v-.06h.13l.06.06.13.06.13.13.13.06.06.13.06.06.06.13.06.19.06.25.06.13v1.19l-.06.06v.13l-.06.06v.06l-.06.13-.06.06h-.06l-.06.06h-.06l-.06.06h-.13l-.06.06h-.25l-.13-.06-.19-.06-.06.19h-.19v.63c0,.06,0,.13.06.19l2,1.13c0,.06.06.06.06.06.06,0,.13,0,.13-.06l.06-.06-.06-.06h.06l.06-.5.25-.25-.25-.31-.19.19-.31-.31h.06l.13-.13v-.06l.06-.06v-.06h.06v-.06l.06-.13v-.06h.06v-.19h.06v-.19l.06-.25.06.06.25.19-.06,3.69-.25.19c-.06.06-.06.12-.06.19v1.19l-.13-.5-.13-.5-.19-.5-.25-.44v-.06l-.25-.38v-.06l-.31-.38-.31-.38h-.06l-.31-.38h-.06l-.38-.31-.37-.25s0-.06-.06-.06l-.38-.19-.38-.12-.06-.06-.37-.06h-.37l-.31.06h-.06l-.25.12h-.06l-.19.19q-.06,0-.06.06l-.19.25-.06.06v-2.88l.06.13.25.63ZM351.12,377.69l-.13-.13-.19.13s-.06.06-.06.12v.38l-.13-.12-1.19-1.69,1.13-.19.19-.06v.81c0,.06.06.06.13.12l.5.38h.13q.06,0,.13-.06l.31-.19-.25-.31v-2.44l.25-.19-.06-.12.19.06v3.82l-.25.12-.25-.25h-.06l-.38-.19ZM351.3,378.25v2l-.19-.06v-1.75l.06-.25.13.06ZM347.05,375.12l-.06-.06h-.13v-.81l1.44.88c.06,0,.13.06.19,0l2.06-.38h.12v-.06h.06v1.06l-1.69.31v.19l-.19.13,1.44,1.88.19.25.12.19.06.06h.06v.31l-1.88-2.69-.31-.38s-.06,0-.06-.06l-1.44-.81ZM347.49,375.81v.06l-.06-.06h.06ZM347.3,375.75l-.25.19c-.06.06-.13.13-.13.19l-.06-.06v-.56l.44.25ZM350.43,367.8l.13-.13-3.5-2.06h-.06l-.06-.06h-.19v.19l-.13-.13-.06.06v.19h-.06v.44l-.13-.06v-2.44l.19.06v1.06h.06v.06l.06.06v.06h.06l.06.06.06.06h.06l3.69,2.19.06.06h.19v.06c.06,0,.06-.06.12-.06l-.06-.19.12.13q.06,0,.06-.06s0-.06.06-.06v-.19h-.06l-.13-.06h.19v-.44l.19.06-.06,2.19-3.88,1.19v.19l-.06.19,3.19,1.88.12.06h.06v.25l-.19-.13-4.19-2.44v-.81l4.13-1.25-.06-.19ZM351.3,374.25v2.63l-.19-.06.06-.5v-2.13l.13.06ZM351.18,373.68v-2l.13.13v2l-.13-.13ZM351.87,369.37c-.06.06-.13.06-.13.13v1.88l-.06-.06-.06.06h-.06l-.06.06-.44-.25-.06.13-.12-.13c-.06.06-.13.13-.13.19v.56l-2.82-1.63,3.69-1.13h.06l.25-.25-.19-.25v-2l.19-.13-.19-.38-.19.19-.44-.25-.13.13-.06-.19-.06.06c-.06,0-.06.06-.06.13v.81l-3.57-2.06-.19-.13-.06-.06h-.06v-.94l.38-.31.25.31h.06l.31.38.44.31.38.25.44.25.37.13h.06l.38.12h.38l.31-.06h.06l.25-.12h.06l.19-.19c.06,0,.06-.06.06-.06l.19-.25.19-.31v-.06l.06-.19v1.06c0,.06.06.12.13.12l.25.19v1l-.06,2.75-.19.19ZM351.49,362.42v.94l-.06.44-.13.31-.13.31-.19.19-.19.13-.25.12-.25.06-.25-.06-.38-.06-.31-.13-.37-.19-.44-.25-.31-.31-.38-.31-.31-.38-.25-.38-.25-.44-.25-.44-.19-.44-.13-.5-.13-.44-.06-.5v-.94l.06-.44.25-.63.19-.19.19-.13.25-.12.25-.06h.25l.31.13.38.12.38.19.44.25.31.31.38.31.31.38.25.38.25.44.25.44.19.44.13.44.13.5v.13l.06.38ZM346.42,362.17l.25.44.25.44.13.19-.31.25-.44-.25-.12.12.06-1.69.19.5ZM346.61,366.86h.19c.06-.06.13-.12.13-.19v-.69l3,1.75-3.75,1.13v-2.25l.44.25ZM350.3,372.87h.06l.06.06h.06v.06l.19.06.06.06v1.13l-.06.06h-.12l-2.13.44-1.25-.75-.13-.13h-.06v-.06h-.06v-.31h-.06v-.75c0-.06,0-.12-.06-.19l-.56-.31h-.06v-1.81l4.13,2.44ZM346.49,372.87v3.07l-.13-.06v-3.07l.13.06ZM541.16,231.56l-.06,3.88-43.41,33.09-140.93,107.59h-.56l-4-2.31v-3.94l2.94,1.75.88.5c.06,0,.06.06.13.06l.75-.06s.06,0,.13-.06l184.16-140.5ZM541.34,222.74l-.06,3.88-184.53,140.68h-.56l-4-2.38.06-3.88,3.82,2.25h.81c.06,0,.13,0,.13-.06l184.35-140.5ZM352.55,360.05v-3.19l2.32,1.38-2.32,1.81ZM541.47,213.92l-.06,3.88-184.6,140.68-.63.06-3.94-2.44-.19-1.25-.13-.81-.5-.94-.5-.63s0-.06-.06-.06l-.75-.56-4.07-2.38h-.06c-.06,0-.06-.06-.06-.06-.12,0-.25.06-.25.19l-.06,1.13-.06,1.38v.13l-.75-.44v-3.94l4.13,2.38,7.13,4.19c.06.06.13.06.13.06l.75-.06h.06l184.47-140.5ZM541.59,209.04l-184.72,140.56-.63.06L.56,140.42l-.13-3.88v-.06l86.89,51.11,268.8,158.01.06.06h.06l.69-.06c.06,0,.13,0,.13-.06l184.53-140.43v3.94Z"/>
      <path d="M305.89,364.61v8.32c0,.06-.06.12-.13.12,0,.06-.06.06-.13.06,0,0-.06,0-.06-.06L87.14,244.01c-.06-.06-.13-.13-.13-.19l-.13-8.57-15.2-8.95.13,9.2h-.44l-.13-9.38v-.06l-21.77-12.82v2.75c-.06.06-.06.13-.13.13l-.19.06h-.12l-.19-.06v-.06l-15.64-9.2-.19-.19q-.06,0-.06-.06l-.13-.19c-.06,0-.06-.06-.06-.06l-.06-.19v-2.88h-.06l-2.81-1.69.19,8.63h-.44l-.13-8.82-.94-.56.13,9.2h-.44l-.13-9.45-7.07-4.19.63,16.76,317.34,187.6.56-16.26-33.65-19.89ZM71.31,236.19l-.63-.13h-.06l-41.35-24.46h-.06l-.63-.63.25-.31.63.63,41.29,24.4.63.12-.06.38Z"/>
      <path d="M62.14,208.76l-.47-.74s-.02-.03-.04-.04l-.63-.54s-.04-.03-.07-.04l-.63-.2-.06.19-.08-.18-.46.2c-.05.02-.1.07-.11.13l-.16.54s-.01.07,0,.1l.18.74s.01.04.03.06l.47.74s.02.03.04.04l.63.54s.04.03.07.04l.63.2s.04,0,.06,0c.03,0,.05,0,.08-.02l.45-.2-.08-.18.19.06.16-.54s.01-.07,0-.1l-.18-.74s-.01-.04-.02-.06ZM61.53,210.12l-.52-.17-.58-.5-.44-.69-.16-.66.12-.4.3-.13.52.17.58.5.44.69.16.66-.12.4-.3.13Z"/>
      <path d="M66.47,211.31l-.47-.74s-.02-.03-.04-.04l-.63-.54s-.04-.03-.07-.04l-.63-.2s-.1-.01-.14,0l-.46.2c-.05.02-.1.07-.11.13l-.16.54s-.01.07,0,.1l.18.74s.01.04.03.06l.47.74s.02.03.04.04l.63.54s.04.03.07.04l.63.2s.04,0,.06,0c.03,0,.05,0,.08-.02l.46-.2c.05-.02.1-.07.11-.13,0,0,0,0,0,0l.16-.53s.01-.07,0-.1l-.18-.74s-.01-.04-.02-.06ZM66.16,212.55l-.3.13-.52-.17-.57-.49-.44-.69-.16-.66.12-.4.3-.13.52.17.58.5.44.69.16.66-.12.4Z"/>
      <path d="M70.81,213.87l-.47-.74s-.02-.03-.04-.04l-.63-.54s-.04-.03-.07-.04l-.63-.2-.06.19-.08-.18-.46.2c-.05.02-.1.07-.11.13l-.16.54s-.01.07,0,.1l.18.74s.01.04.02.06c0,0,0,0,0,0l.47.74s.02.03.04.04l.63.54s.04.03.07.04l.63.2s.04,0,.06,0c.03,0,.05,0,.08-.02l.46-.2-.08-.18.19.06s0,0,0,0l.16-.53s.01-.07,0-.1l-.18-.74s-.01-.04-.02-.06ZM70.19,215.24l-.52-.17-.57-.49-.44-.69-.13-.56-.02-.1.12-.4.3-.13.52.17.58.5.44.69.16.66-.12.4-.3.13Z"/>
      <path d="M48.05,200.45l-.47-.74s-.02-.03-.04-.04l-.63-.54s-.04-.03-.07-.04l-.63-.2s-.1-.01-.14,0l-.45.2c-.05.02-.1.07-.11.13l-.16.54s0,.07,0,.1l.18.74s.01.04.03.06l.47.74s.02.03.04.04l.63.54s.04.03.07.04l.63.2s.04,0,.06,0c.03,0,.05,0,.08-.02l.45-.2c.05-.02.1-.07.11-.13l.16-.54s.01-.07,0-.1l-.18-.74s-.01-.04-.02-.06ZM47.74,201.69l-.3.13-.52-.17-.58-.5-.44-.69-.16-.66.12-.4.3-.13.52.17.58.5.44.69.16.66-.12.4Z"/>
      <path d="M50.05,203.1l-.17.11.47.74s.02.03.04.04l.63.54s.04.03.07.04l.63.2s.04,0,.06,0c.03,0,.05,0,.08-.02l.45-.2-.08-.18.19.06.06-.21s0,0,0,0l.09-.32s0-.07,0-.1l-.18-.74s-.01-.04-.03-.06l-.47-.74s-.02-.03-.04-.04l-.63-.54s-.04-.03-.07-.04l-.63-.2s-.09-.01-.14,0l-.45.2c-.05.02-.1.07-.11.13l-.16.54s-.01.07,0,.1l.18.74.19-.05ZM50.19,201.96l.3-.13.51.16.59.5.44.69.16.66-.08.27s0,0,0,0l-.04.13-.3.13-.52-.16-.58-.5-.44-.69-.16-.66.12-.4Z"/>
      <path d="M54.2,205.75l.47.74s.02.03.04.04l.63.54s.04.03.07.04l.63.2s.04,0,.06,0c.03,0,.05,0,.08-.02l.46-.2c.05-.02.09-.07.11-.13l.16-.54s.01-.07,0-.1l-.18-.74s-.01-.04-.02-.06l-.47-.74s-.02-.03-.04-.04l-.63-.54s-.04-.03-.07-.04l-.63-.2s-.1-.01-.14,0l-.45.2c-.05.02-.1.07-.11.13l-.16.54s0,.07,0,.1l.18.74s.01.04.03.06ZM54.52,204.51l.3-.13.52.17.58.5.44.69.16.66-.12.4-.3.13-.52-.17-.58-.5-.44-.69-.16-.66.12-.4Z"/>
      <path d="M31.37,192.28l.47.74s.02.03.04.04l.63.54s.04.03.07.04l.63.2s.04,0,.06,0c.03,0,.05,0,.08-.02l.45-.2c.05-.02.1-.07.11-.13l.16-.54s0-.07,0-.1l-.18-.74s-.01-.04-.03-.06l-.47-.74s-.02-.03-.04-.04l-.63-.54s-.05-.03-.07-.04l-.62-.2s-.1,0-.15,0l-.45.19c-.05.02-.1.07-.11.13l-.16.54s-.01.07,0,.1l.18.74s.01.04.03.06ZM31.68,191.04l.3-.13.52.17.58.5.43.68.16.66-.12.4-.3.13-.52-.17-.57-.49-.44-.69-.16-.66.12-.4Z"/>
      <path d="M35.68,194.83l.47.74s.02.03.04.04l.63.54s.04.03.07.04l.63.2s.04,0,.06,0c.03,0,.05,0,.08-.02l.45-.2c.05-.02.1-.07.11-.13l.16-.54s.01-.07,0-.1l-.18-.74s-.01-.04-.03-.06l-.47-.74s-.02-.03-.04-.04c0,0,0,0,0,0l-.63-.54s-.04-.03-.07-.04l-.63-.2s-.1-.01-.14,0l-.45.2c-.05.02-.1.07-.11.13l-.16.54s-.01.07,0,.1l.18.74s.01.04.02.06ZM35.99,193.59l.3-.13.52.16.58.5.44.69.16.66-.12.39-.3.13-.52-.16-.57-.49-.44-.69-.16-.66.12-.4Z"/>
      <path d="M40,197.38l.43.68s0,0,0,0l.03.06s.02.03.04.04l.63.54s.04.03.07.04l.63.2s.04,0,.06,0c.03,0,.05,0,.08-.02l.45-.2c.05-.02.1-.07.11-.13l.16-.54s.01-.07,0-.1l-.18-.74s-.01-.04-.02-.06l-.47-.74s-.02-.03-.04-.04l-.63-.54s-.04-.03-.07-.04l-.63-.2s-.1-.01-.14,0l-.45.2c-.05.02-.1.07-.11.13l-.16.54s-.01.07,0,.1l.18.74s.01.04.02.06ZM40.31,196.14l.3-.13.52.17.58.5.44.69.16.66-.12.39-.3.13-.52-.17-.58-.5-.02-.03s0,0,0,0l-.42-.66-.16-.66.12-.4Z"/>
      <path d="M127.38,247.23l-.47-.74s-.02-.03-.04-.04l-.64-.55s-.04-.03-.07-.04l-.63-.2s-.09-.01-.14,0l-.46.19c-.05.02-.1.07-.11.13l-.16.54s-.01.07,0,.1l.18.74s.01.04.03.06l.47.74s.02.03.04.04l.64.55s.04.03.07.04l.63.2s.04,0,.06,0c.03,0,.05,0,.08-.02l.46-.19c.05-.02.09-.07.11-.12,0,0,0,0,0,0l.16-.53s.01-.07,0-.1l-.18-.74s-.01-.04-.02-.06ZM127.06,248.47l-.31.13-.53-.17-.58-.5-.44-.69-.16-.66.12-.4.31-.13.53.17.58.5.44.69.16.66-.12.4Z"/>
      <path d="M123.02,244.66l-.47-.74s-.02-.03-.04-.04l-.64-.55s-.04-.03-.07-.04l-.64-.2-.06.19-.08-.18-.46.19c-.05.02-.1.07-.11.13l-.16.54s-.01.07,0,.1l.18.74s.01.04.02.06l.47.74s.02.03.04.04l.64.55s.04.03.07.04l.63.2s.04,0,.06,0c.03,0,.05,0,.08-.02l.46-.19-.08-.18.19.06s0,0,0,0l.16-.53s.01-.07,0-.1l-.18-.74s-.01-.04-.03-.06ZM122.4,246.03l-.53-.17-.58-.5-.44-.69-.16-.66.12-.4.31-.13.52.17.59.5.43.69.16.66-.12.4-.31.13Z"/>
      <path d="M131.74,249.8l-.47-.74s-.02-.03-.04-.04l-.64-.55s-.04-.03-.07-.04l-.63-.2-.06.19-.08-.18-.46.19c-.05.02-.1.07-.11.13l-.16.54s-.01.07,0,.1l.18.74s.01.04.02.06l.47.74s.02.03.04.04l.64.55s.04.03.07.04l.63.2s.04,0,.06,0c.03,0,.05,0,.08-.02l.46-.19-.08-.19.19.05.16-.53s.01-.07,0-.1l-.18-.74s-.01-.04-.03-.06ZM131.12,251.17l-.53-.17-.59-.5-.44-.69-.16-.66.12-.4.31-.13.53.17.59.5.44.69.16.66-.12.4-.31.13Z"/>
      <path d="M110.68,239.06l.47.74s.02.03.04.04l.64.55s.04.03.07.04l.63.2s.04,0,.06,0c.03,0,.05,0,.08-.02l.46-.19c.05-.02.1-.08.11-.13l.16-.53s.01-.07,0-.1l-.18-.74s-.01-.04-.03-.06l-.47-.74s-.02-.03-.04-.04l-.64-.55s-.04-.03-.07-.04l-.63-.2s-.09-.01-.14,0l-.46.19c-.05.02-.1.07-.11.13l-.16.54s-.01.07,0,.1l.18.74s.01.04.03.06ZM110.99,237.82l.3-.13.52.17.58.5.44.69.16.66-.12.4-.3.13-.52-.17-.58-.5-.44-.69-.16-.66.12-.4Z"/>
      <path d="M106.32,236.5l.47.74s.02.03.04.04l.64.55s.04.03.07.04l.63.2s.04,0,.06,0c.03,0,.05,0,.08-.02l.46-.19-.08-.18.19.06s0,0,0,0l.16-.53s.01-.07,0-.1l-.18-.74s-.01-.04-.03-.06l-.47-.74s-.02-.03-.04-.04l-.64-.55s-.04-.03-.07-.04l-.63-.2-.06.19-.08-.18-.46.19c-.05.02-.1.07-.11.13l-.16.54s-.01.07,0,.1l.18.74s.01.04.02.06ZM106.64,235.26l.3-.13.52.17.59.5.44.69.16.66-.12.4-.3.13-.52-.17-.59-.5-.44-.69-.16-.66.12-.4Z"/>
      <path d="M115.03,241.63l.47.74s.02.03.04.04l.64.55s.04.03.07.04l.63.2s.04,0,.06,0c.03,0,.05,0,.08-.02l.46-.19-.08-.18.19.06s0,0,0,0l.16-.53s.01-.07,0-.1l-.18-.74s-.01-.04-.03-.06l-.47-.74s-.02-.03-.04-.04l-.64-.55s-.04-.03-.07-.04l-.63-.2-.06.19-.08-.18-.46.19c-.05.02-.1.07-.11.13l-.16.54s-.01.07,0,.1l.18.74s.01.04.03.06ZM115.35,240.39l.3-.13.52.17.58.5.44.69.16.66-.12.4-.3.13-.52-.17-.58-.5-.44-.69-.16-.66.12-.4Z"/>
      <path d="M92.05,228.07l.47.74s.02.03.04.04l.64.55s.04.03.07.04l.63.2s.04,0,.06,0c.03,0,.05,0,.08-.02l.46-.19c.05-.02.1-.07.11-.13l.16-.54s.01-.07,0-.1l-.18-.74s-.01-.04-.02-.06l-.47-.74s-.02-.03-.04-.04l-.64-.55s-.04-.03-.07-.04l-.63-.2s-.1-.01-.14,0l-.46.19c-.05.02-.1.07-.11.13l-.16.54s-.01.07,0,.1l.18.74s.01.04.02.06ZM92.36,226.83l.3-.13.52.17.57.49.45.7.16.66-.12.4-.3.13-.52-.17-.57-.49-.44-.7-.16-.66.12-.4Z"/>
      <path d="M96.39,230.64l.47.74s.02.03.04.04l.64.55s.04.03.07.04l.63.2s.04,0,.06,0c.03,0,.05,0,.08-.02l.46-.19c.05-.02.1-.08.11-.13l.16-.53s.01-.07,0-.1l-.18-.74s-.01-.04-.03-.06l-.47-.74s-.02-.03-.04-.04l-.64-.55s-.04-.03-.07-.04l-.63-.2s-.1-.01-.14,0l-.46.19c-.05.02-.1.07-.11.13l-.16.54s-.01.07,0,.1l.18.74s.01.04.02.06ZM96.71,229.4l.3-.13.52.17.57.49.44.7.16.66-.12.4-.3.13-.52-.17-.58-.49-.44-.7-.16-.66.12-.4Z"/>
      <path d="M100.74,233.2l.47.74s.02.03.04.04l.64.55s.04.03.07.04l.63.2s.04,0,.06,0c.03,0,.05,0,.08-.02l.46-.19c.05-.02.09-.07.11-.12,0,0,0,0,0,0l.16-.53s.01-.07,0-.1l-.18-.74s-.01-.04-.03-.06l-.47-.74s-.02-.03-.04-.04l-.64-.55s-.04-.03-.07-.04l-.63-.2s-.09-.01-.14,0l-.46.19c-.05.02-.1.07-.11.13l-.16.54s-.01.07,0,.1l.18.74s.01.04.03.06ZM101.05,231.96l.3-.13.52.17.57.49.45.7.16.66-.12.4-.3.13-.52-.17-.58-.49-.44-.7-.16-.66.12-.4Z"/>
      <path d="M346.59,359.05l-.1.22s0,.02-.01.04l-.06.26s0,.02,0,.03l-.02.29s0,.02,0,.03l.02.31s0,.02,0,.03l.06.33s0,.01,0,.02l.1.34s0,.01,0,.02l.14.35s0,.01,0,.02l.18.35s0,.01,0,.02l.22.35s0,0,0,.01l.22.29s0,0,0,0l.11.14s0,0,0,0l.25.27s0,0,0,0l.13.12s0,0,0,0l.13.12s0,0,0,0l.14.11h0s.14.12.14.12c0,0,0,0,0,0l.15.11s0,0,0,0l.16.1s0,0,0,0l.16.1s0,0,0,0l.35.18s.01,0,.02,0l.32.13s.01,0,.02,0l.3.08s.02,0,.03,0l.26.03s.02,0,.02,0c0,0,0,0,.01,0h.24s.03-.02.04-.02l.21-.06s.03-.01.04-.02l.18-.1-.09-.17.13.15.1-.09s0,0,0,0l.05-.04s.02-.02.03-.03l.12-.17s.01-.02.02-.04l.09-.21s0-.02.01-.03l.05-.24s0-.02,0-.03l.02-.27s0-.02,0-.02l-.02-.29s0-.01,0-.02l-.05-.3s0-.01,0-.02l-.08-.31s0-.01,0-.02l-.12-.31s0-.01,0-.02l-.15-.31s0,0,0-.01l-.18-.31s0,0,0-.01l-.21-.3s0,0,0-.01c0,0,0,0,0,0l-.24-.29s0,0,0-.01l-.27-.28s0,0-.01-.01l-.3-.27s0,0-.01,0l-.32-.25s0,0-.01,0l-.35-.23s0,0,0,0l-.16-.09s0,0,0,0l-.16-.08s0,0,0,0l-.15-.07s0,0,0,0l-.14-.06s0,0,0,0l-.14-.05s-.01,0-.02,0l-.13-.04s0,0-.01,0l-.13-.03s0,0-.01,0l-.12-.02s0,0-.01,0h-.12s-.01,0-.02,0h-.12s-.01,0-.02,0h-.11s-.01.01-.02.01l-.11.02s-.02,0-.03,0l-.23.08s-.03.02-.05.03l-.18.14.12.16-.16-.12-.14.18s-.02.03-.02.04ZM346.81,359.65l.05-.23.08-.18.11-.14.14-.1.18-.07h.05s.09-.02.09-.02h.14s.1,0,.1,0l.11.02.12.03.12.03s0,0,0,0l.12.04.26.11.29.16.36.23.33.25.28.26.26.27.23.28.18.27.18.31.14.3.11.3.08.3.04.25.02.3-.02.23-.05.23-.07.17-.09.14-.03.03s0,0,0,0l-.08.07-.14.08-.17.05h-.2s-.24-.02-.24-.02l-.27-.07-.3-.12-.33-.18-.3-.19-.28-.21-.23-.2-.24-.24-.25-.29-.19-.24-.24-.36-.18-.34-.12-.31-.1-.35-.06-.31-.02-.29.02-.25Z"/>
      <path d="M71.37,235.81l-.06.38-.63-.13h-.06l-41.35-24.46h-.06l-.63-.63.25-.31.63.63,41.29,24.4.63.12Z"/>
    </g>
  </g>
</svg>