<?xml version="1.0" encoding="UTF-8"?>
<svg id="Layer_2" data-name="Layer 2" xmlns="http://www.w3.org/2000/svg" viewBox="0 0 264.27 560.91">
  <g id="Layer_1-2" data-name="Layer 1">
    <g>
      <path d="M224.03,462.23s-.03-.08-.07-.12l-.52-.49s-.1-.06-.16-.06l-.69-.04s-.09,0-.13.03l-.71.41s-.06.04-.08.07l-.52.75s-.03.05-.04.08l-.19.9s0,.07,0,.1l.19.8s.03.08.07.11l.52.49s.09.06.14.06c0,0,.01,0,.01,0l.69.04s0,0,.01,0c.04,0,.08-.01.12-.03l.71-.41s.06-.04.08-.07l.52-.75s.03-.05.04-.08l.19-.9s0-.07,0-.1l-.19-.8ZM223.59,463.89l-.46.67-.6.35-.55-.04-.4-.38-.16-.68.17-.8.46-.67.22-.13h.2s0-.12,0-.12l.17-.1.55.04.4.38.16.68-.17.8Z"/>
      <path d="M224.04,456.41s-.03-.08-.07-.12l-.52-.49s-.1-.06-.16-.06l-.7-.04v.23s-.13-.2-.13-.2l-.71.41s-.06.04-.08.07l-.52.75s-.03.05-.04.08l-.19.9s0,.07,0,.1l.19.8h.05s-.01,0-.01,0l.05.04.08-.08h.06s-.16.15-.16.15l.52.49s.09.06.14.06c0,0,.01,0,.01,0l.69.04v-.23s.13.2.13.2l.71-.41s.06-.04.07-.07l.52-.75s.03-.05.04-.08l.19-.9s0-.07,0-.1l-.19-.8ZM223.6,458.07l-.46.67-.6.35-.55-.04-.4-.38-.16-.68.17-.8.46-.67.22-.13h.2s0-.12,0-.12l.17-.1.55.04.4.38.16.68-.17.8Z"/>
      <path d="M224.02,468.05s-.03-.08-.07-.11l-.52-.49s-.1-.06-.16-.06l-.7-.04v.23s-.13-.2-.13-.2l-.71.41s-.06.04-.08.07l-.52.76s-.03.05-.04.08l-.19.9s0,.07,0,.1l.19.8h.05s-.01,0-.01,0l.05.04.08-.08h.06s-.16.15-.16.15l.52.49s.1.06.16.06l.7.04s0,0,.01,0c.04,0,.08-.01.12-.03l.71-.41s.06-.04.08-.07l.52-.75s.03-.05.04-.08l.19-.9s0-.07,0-.1l-.19-.8ZM223.58,469.71l-.46.67-.6.35-.55-.03-.4-.38-.16-.68.17-.8.46-.67.22-.13h.2s0-.12,0-.12l.17-.1.55.03.4.38.16.68-.17.8Z"/>
      <path d="M224,486.98s-.03-.08-.07-.12l-.52-.49s-.1-.06-.16-.06l-.7-.04s-.09,0-.13.03c0,0-.01,0-.01,0l-.7.4s-.05.04-.07.07l-.52.75s-.03.05-.04.08l-.19.9s0,.07,0,.1l.19.8s.03.08.07.12l.52.49s.09.06.14.06l.71.04s0,0,.01,0c.04,0,.08-.01.12-.03l.71-.41s.06-.04.07-.07l.16-.24s0,0,0,0l.35-.51s.03-.05.04-.08l.19-.9s0-.07,0-.1l-.19-.8ZM223.55,488.63l-.32.47s0,0,0,0l-.13.19-.6.35-.55-.03-.4-.38-.16-.68.17-.8.46-.67.22-.13h.19s0-.12,0-.12l.17-.1.55.03.4.38.16.68-.17.8Z"/>
      <path d="M224,481.16s-.03-.08-.07-.12l-.52-.49s-.1-.06-.16-.06l-.69-.04v.23s-.13-.2-.13-.2l-.71.41s-.06.04-.07.07l-.52.75s-.03.05-.04.08l-.19.9s0,.07,0,.1l.19.8s.03.09.07.12l.51.49s.1.06.16.06l.7.04s0,0,.01,0c.04,0,.08-.01.12-.03l.71-.41-.12-.2.19.13.52-.75s.03-.05.04-.08l.19-.9s0-.07,0-.1l-.19-.8ZM223.56,482.82l-.46.67-.6.35-.55-.03-.4-.38-.16-.68.17-.8.46-.67.22-.13h.19s0-.12,0-.12l.17-.1.55.03.4.38.16.68-.17.8Z"/>
      <path d="M224.01,475.35s-.03-.08-.07-.12l-.52-.49s-.1-.06-.16-.06l-.7-.04s-.09,0-.13.03l-.71.41s-.05.04-.07.07l-.52.76s-.03.05-.04.08l-.19.9s0,.07,0,.1l.19.8s.03.08.07.11l.52.49s.09.06.14.06c0,0,.01,0,.01,0l.7.04s0,0,.01,0c.04,0,.08-.01.12-.03l.71-.41s.06-.04.07-.07l.52-.75s.03-.05.04-.08l.19-.9s0-.07,0-.1l-.19-.8ZM223.57,477l-.46.67-.6.35-.55-.03-.4-.38-.16-.68.17-.8.46-.67.22-.13h.19s0-.12,0-.12l.17-.1.55.03.4.38.16.68-.17.8Z"/>
      <path d="M224.08,507.31l.07-.34s0-.07,0-.1l-.19-.8s-.03-.08-.07-.12l-.52-.49s-.1-.06-.16-.06l-.7-.04s-.09,0-.13.03l-.71.41s-.06.04-.07.07l-.52.75s-.03.05-.04.08l-.19.9s0,.07,0,.1l.19.8s.03.08.07.11l.52.49s.09.06.15.06l.71.04s0,0,.01,0c.04,0,.08-.01.12-.03l.71-.41s.06-.04.07-.07l.52-.75s.03-.05.04-.08l.12-.54s0-.01,0-.01ZM223.63,507.21s0,.01,0,.01l-.11.5-.46.67-.6.35-.55-.03-.4-.38v-.02s0-.01,0-.01l-.15-.65.17-.8.46-.67.23-.13h.19s0-.12,0-.12l.17-.1.55.03.4.38.16.68-.06.29Z"/>
      <path d="M221.07,502.69s.03.09.07.12l.52.49s.09.06.14.06l.71.04s0,0,.01,0c.04,0,.08-.01.12-.03l.71-.41s.06-.04.08-.07l.52-.75s.03-.05.04-.08l.19-.9s0-.07,0-.1l-.19-.8s-.03-.08-.07-.12l-.52-.49s-.09-.06-.14-.06l-.71-.04s-.09,0-.13.03l-.71.41s-.06.04-.07.07l-.52.75s-.03.05-.04.08l-.19.9s0,.07,0,.1l.19.8ZM221.52,501.04l.46-.67.23-.13h.19s0-.12,0-.12l.17-.1.55.03.4.38.16.68-.17.8-.46.67-.6.35-.55-.03-.4-.38-.16-.68.17-.8Z"/>
      <path d="M221.08,496.88s.03.08.07.12l.52.49s.09.06.14.06l.71.04s0,0,.01,0c.04,0,.08-.01.12-.03l.71-.41s.06-.04.07-.07l.52-.75s.03-.05.04-.08l.19-.9s0-.07,0-.1l-.19-.8s-.03-.09-.07-.12l-.52-.49s-.1-.06-.16-.06l-.69-.04s-.09,0-.13.03l-.71.41s-.06.04-.07.07l-.52.75s-.03.05-.04.08l-.19.9s0,.07,0,.1l.19.8ZM221.53,495.23l.46-.67.23-.13h.19s0-.12,0-.12l.17-.1.55.03.4.38.16.68-.17.8-.46.67-.6.35-.55-.03-.4-.38-.16-.68.17-.8Z"/>
      <path d="M224.16,380.6s-.03-.08-.07-.11l-.52-.49s-.09-.06-.14-.06l-.71-.05s-.09,0-.13.03l-.71.41s-.06.04-.08.07l-.52.76s-.03.05-.04.08l-.19.9s0,.07,0,.1l.19.8s.03.08.07.12l.52.49s.09.06.14.06l.71.05s.01,0,.02,0c.04,0,.08-.01.12-.03l.71-.41s.06-.04.08-.07l.52-.76s.03-.05.04-.08l.19-.9s0-.07,0-.1l-.19-.8ZM223.71,382.26l-.46.67-.6.35-.55-.04-.41-.39-.16-.68.17-.8.46-.67.21-.12h.2s0-.12,0-.12l.17-.1.55.04.41.39.16.68-.17.8Z"/>
      <path d="M224.17,374.77s-.03-.08-.07-.12l-.52-.49s-.09-.06-.14-.06l-.71-.05-.02.23-.12-.2-.71.41s-.06.04-.08.07l-.52.76s-.03.05-.04.08l-.19.9s0,.07,0,.1l.19.8h.06s-.02,0-.02,0l.05.04.09-.09h.06s-.16.16-.16.16l.52.49s.09.06.14.06l.71.05s0,0,.01,0c.04,0,.08-.01.12-.03l.71-.41h0s.06-.04.07-.07h0s.52-.75.52-.75c.02-.03.03-.05.04-.08l.19-.9s0-.07,0-.1l-.19-.8ZM223.72,376.43l-.46.67-.6.35-.55-.04-.41-.39-.16-.68.17-.8.46-.67.21-.12h.21s0-.12,0-.12l.17-.1.55.04.41.39.16.68-.17.8Z"/>
      <path d="M224.15,386.43s-.03-.08-.07-.11l-.52-.49s-.09-.06-.15-.06l-.71-.05-.02.23-.12-.2-.08.05s0,0-.01,0l-.62.36s-.06.04-.08.07l-.52.76s-.03.05-.04.08l-.19.9s0,.07,0,.1l.19.8h.06s-.02,0-.02,0l.05.04.08-.09h.06s-.16.16-.16.16l.52.49s.09.06.14.06l.71.05s.01,0,.02,0c.04,0,.08-.01.12-.03l.71-.41s.06-.04.08-.07l.52-.75s.03-.05.04-.08l.19-.9s0-.07,0-.1l-.19-.8ZM223.7,388.1l-.46.67-.6.35-.55-.04-.41-.38-.16-.68.17-.8.46-.67.21-.12h.2s0-.12,0-.12l.14-.08s0,0,.01,0h.02s.55.02.55.02l.41.38.16.68-.17.8Z"/>
      <path d="M224.13,399.58s-.03-.08-.07-.11l-.52-.49s-.09-.06-.15-.06l-.71-.05s-.09,0-.13.03l-.71.41s-.06.04-.08.07l-.52.76s-.03.05-.04.08l-.19.9s0,.07,0,.1l.19.8s.03.08.07.12l.52.49s.09.06.14.06l.71.05s.01,0,.02,0c.04,0,.08-.01.12-.03l.71-.41s.06-.04.08-.07l.52-.75s.03-.05.04-.08l.19-.9s0-.07,0-.1l-.19-.8ZM223.68,401.24l-.46.67-.6.35-.55-.04-.41-.38-.16-.68.17-.8.46-.67.22-.12h.2s0-.12,0-.12l.17-.1.55.04.41.38.16.68-.17.8Z"/>
      <path d="M224.12,405.41s-.03-.09-.07-.12l-.52-.49s-.09-.06-.15-.06l-.7-.05s-.09,0-.13.03l-.71.41s-.06.04-.08.07l-.52.75s-.03.05-.04.08l-.19.9s0,.07,0,.1l.19.8s.03.08.07.12l.52.49s.09.06.14.06l.71.05s0,0,.01,0c.04,0,.08-.01.12-.03l.71-.41s.06-.04.08-.07l.52-.75s.03-.05.04-.08l.19-.9s0-.07,0-.1l-.19-.8ZM223.67,407.07l-.46.67-.6.35-.55-.04-.41-.38-.16-.68.17-.8.46-.67.22-.12h.2s0-.12,0-.12l.17-.1.55.04.41.38.16.68-.17.8Z"/>
      <path d="M224.14,393.75s-.03-.08-.07-.12l-.52-.49s-.09-.06-.14-.06l-.71-.05-.02.23-.12-.2-.09.05s0,0,0,0l-.62.36s-.06.04-.08.07l-.52.76s-.03.05-.04.08l-.19.9s0,.07,0,.1l.19.8h.06s-.02,0-.02,0l.05.04.08-.09h.06s-.16.16-.16.16l.52.49s.09.06.15.06l.71.05s.01,0,.02,0c.04,0,.08-.01.12-.03l.71-.41s.06-.04.08-.07l.52-.75s.03-.05.04-.08l.19-.9s0-.07,0-.1l-.19-.8ZM223.69,395.41l-.46.67-.6.35-.55-.04-.41-.38-.16-.68.17-.8.46-.67.22-.12h.2s0-.12,0-.12l.15-.08s0,0,0,0h.02s.55.02.55.02l.41.38.16.68-.17.8Z"/>
      <path d="M224.28,425.35s0-.01,0-.01l-.19-.79s-.03-.08-.07-.12l-.52-.49s-.09-.06-.14-.06l-.71-.05s-.09,0-.13.03l-.71.41s-.06.04-.08.07l-.52.75s-.03.05-.04.08l-.19.9s0,.08,0,.11l.19.79s.03.08.07.12l.52.49s.09.06.15.06l.71.05s.01,0,.02,0c.04,0,.08-.01.12-.03l.71-.41s.06-.04.08-.07l.52-.75s.03-.05.04-.08l.19-.9s0-.07,0-.1ZM223.64,426.21l-.46.67-.6.35-.55-.04-.41-.38-.16-.68.17-.8.46-.67.22-.13h.2s0-.12,0-.12l.17-.1.55.04.41.38.16.68-.17.8Z"/>
      <path d="M221.01,420.37l.19.79s.03.08.07.12l.52.49s.09.06.14.06l.71.05s0,0,.01,0c.04,0,.08-.01.12-.03l.71-.41s.06-.04.08-.07l.52-.75s.03-.05.04-.08l.19-.9s0-.07,0-.1l-.19-.8s-.03-.08-.07-.11l-.52-.49s-.09-.06-.15-.06l-.71-.05s-.09,0-.13.03l-.71.41s-.06.04-.08.07l-.52.75s-.03.05-.04.08l-.19.9s0,.07,0,.1c0,0,0,.01,0,.01ZM221.64,419.5l.46-.67.22-.13h.2s0-.12,0-.12l.17-.1.55.04.41.38.16.68-.17.8-.46.67-.6.35-.55-.04-.41-.38-.16-.68.17-.8Z"/>
      <path d="M221.2,415.33s.03.08.07.12l.52.49s.09.06.14.06l.71.05s.01,0,.02,0c.04,0,.08-.01.12-.03l.71-.41s.06-.04.07-.07l.52-.76s.03-.05.04-.08l.19-.9s0-.07,0-.1l-.19-.8s-.03-.08-.07-.12l-.52-.49s-.09-.06-.14-.06l-.71-.05s-.09,0-.13.03l-.71.41s-.06.04-.08.07l-.52.75s-.03.05-.04.08l-.19.9s0,.07,0,.1l.19.8ZM221.65,413.67l.46-.67.22-.13h.2s0-.12,0-.12l.17-.1.55.04.41.38.16.68-.17.8-.46.67-.6.35-.55-.04-.41-.38-.16-.68.17-.8Z"/>
      <path d="M202.25,88.4l-.23.29s0,.01-.01.02l-.2.33s0,.01-.01.02l-.17.36s0,.01,0,.02l-.14.39s0,.01,0,.02l-.1.42s0,.01,0,.02l-.07.44s0,.01,0,.02l-.02.47s0,0,0,.01v.44s.03.19.03.19c0,0,0,0,0,.01l.03.18s0,0,0,.01l.04.17s0,0,0,.01l.04.17s0,0,0,.01l.05.16s0,0,0,.01l.06.15s0,0,0,.01l.07.14s0,0,0,.01l.08.13s0,0,0,.01l.08.13s0,0,0,.01l.09.12s.01.02.02.02l.24.24s.02.02.04.03l.27.17.13-.19-.08.22.29.11s.03,0,.04.01l.31.06s.03,0,.04,0h.33s.03,0,.04,0l.33-.06s.02,0,.03,0l.33-.11s.02,0,.03-.01l.33-.16s.02,0,.03-.02l.31-.21s.02-.01.02-.02l.29-.26s.01-.01.02-.02l.27-.31s.01-.02.02-.02l.24-.35s0-.01.01-.02l.18-.35.15-.37.06-.19.06-.19.05-.2.04-.2.05-.42v-.43s.01,0,.01-.01l-.02-.45s0-.02,0-.02l-.06-.41s0-.02,0-.03l-.1-.37s0-.02-.01-.03l-.14-.32s0-.02-.02-.03l-.17-.27s-.01-.02-.02-.03l-.2-.23s-.02-.02-.03-.03l-.23-.18s-.02-.02-.03-.02l-.25-.14-.11.2.07-.22-.27-.09s-.03,0-.04,0l-.29-.04s-.03,0-.04,0h-.3s-.02,0-.03,0l-.31.05s-.02,0-.03,0l-.31.1s-.02,0-.03.01l-.3.14s-.02,0-.03.01l-.29.18s-.02.01-.02.02l-.27.22s-.02.02-.03.03l-.24.25s-.01.01-.02.02ZM202.61,88.7l.24-.25.22-.18.29-.19.27-.13.28-.09.28-.05h.26s.25.03.25.03l.23.08.19.1.22.17.17.2.15.24.13.29.09.32.06.35.03.49v.4s-.06.38-.06.38l-.08.36-.11.34-.11.27-.16.32-.25.39-.22.25-.28.25-.3.21-.31.15-.3.1-.3.05h-.29s-.27-.05-.27-.05l-.25-.1-.23-.15-.21-.21-.06-.08-.08-.11-.07-.12-.06-.12-.06-.13-.05-.14-.04-.14-.03-.15-.06-.4v-.4s.01-.45.01-.45l.06-.42.1-.39.11-.32.16-.35.19-.32.22-.29Z"/>
      <path d="M255.91,460.56l-.44.16.27.75-.11,55.62-.28.9.44.14.29-.94s.01-.04.01-.07l.11-55.69s0-.05-.01-.08l-.29-.79Z"/>
      <path d="M254.52,147.86l-18.36,4.56c-.1.03-.18.12-.18.22l-.49,291.78h.23s.06.23.06.23l18.28-4.71h0s.05-.02.07-.03c.06-.04.1-.12.1-.19l.57-291.62h-.23s-.06-.23-.06-.23ZM251.37,375.48l1.36-.35v3.05s-1.37.35-1.37.35v-3.05ZM251.37,375v-.58s.86.36.86.36l-.86.22ZM251.49,313.01l1.36-.35v3.06s-1.37.35-1.37.35v-3.06ZM251.49,312.53v-.57s.86.35.86.35l-.86.22ZM251.57,270.26l.85.35-.85.22v-.57ZM251.61,250.42l1.36-.34v3.07s-1.37.34-1.37.34v-3.07ZM251.61,249.95v-.56s.85.35.85.35l-.85.21ZM251.77,166.79l1.37-.34v3.08s-1.37.34-1.37.34v-3.08ZM251.77,166.31v-.55s.85.34.85.34l-.85.21ZM250.78,440.21h.35s-1.2.31-1.2.31l.56-291.18.86-.21-.56,291.08ZM251.24,438.8l2.03.85-2.04.52v-1.38ZM238.69,443.32h.35s-1.2.31-1.2.31l.5-291.28.86-.21-.51,291.18ZM239.18,423.7l1-.26-.11-.45-.88.23.04-20.31,1-.26-.11-.45-.88.23.04-20.32,1-.25-.11-.45-.88.23.04-20.34,1-.25-.12-.45-.88.22.04-20.35,1-.25-.11-.45-.88.22.04-20.36,1-.25-.11-.45-.88.22.04-20.38,1-.25-.11-.45-.88.22.04-20.39,1-.25-.11-.45-.88.22.04-20.4,1-.25-.11-.45-.88.22.04-20.42,1-.25-.11-.45-.88.22.04-20.43,1-.25-.11-.45-.89.22.04-20.44,1-.25-.11-.45-.89.22.04-20.45,1-.25-.11-.45-.89.22.04-20.86,2.26-.56-.52,291.16h.35s-2.6.67-2.6.67l.03-19.59ZM242.38,151.35l.86-.21-.53,291.15h.35s-1.2.31-1.2.31l.52-291.25ZM243.22,422.67l1-.26-.12-.45-.88.23.04-20.31,1-.26-.12-.45-.88.23.04-20.32,1-.25-.11-.45-.88.22.04-20.33,1-.25-.11-.45-.88.22.04-20.35,1-.25-.11-.45-.88.22.04-20.36,1-.25-.11-.45-.88.22.04-20.37,1-.25-.11-.45-.88.22.04-20.39,1-.25-.11-.45-.88.22.04-20.4,1-.25-.11-.45-.88.22.04-20.41,1-.25-.11-.45-.88.22.04-20.43,1-.25-.11-.45-.88.22.04-20.44,1-.25-.11-.45-.88.22.04-20.45,1-.25-.11-.45-.88.22.04-20.86,2.26-.56-.54,291.13h.23s0,.03,0,.03l-2.49.64.04-19.59ZM246.75,441.07l-.85.22.54-290.94.86-.21-.54,290.94ZM247.25,421.63l.99-.26-.11-.45-.88.23.04-20.3.99-.25-.11-.45-.88.23.04-20.32.99-.25-.12-.45-.88.22.04-20.33.99-.25-.11-.45-.88.22.04-20.34.99-.25-.11-.45-.88.22.04-20.36,1.25-.32-.05-.23-.06-.22-1.13.29v-3.06s1.26-.32,1.26-.32l-.11-.45-1.14.29.03-16.83,1-.25-.11-.45-.88.22.04-20.38,1-.25-.11-.45-.88.22.04-20.4,1-.25-.11-.45-.88.22.04-20.41,1-.25-.11-.45-.88.22.04-20.42,1-.25-.11-.45-.88.22.04-20.44,1-.25-.11-.45-.88.22.04-20.45,1-.25-.11-.45-.88.22.04-20.86,2.26-.56-.55,291.09h.35s-2.6.67-2.6.67l.04-19.59ZM237.87,152.47l-.5,291.2h.35s-1.76.45-1.76.45l.03-19.59.16-.04-.12-.45h-.04s.03-20.3.03-20.3l.16-.04-.12-.45h-.04s.03-20.31.03-20.31l.16-.04-.11-.45h-.05s.03-20.33.03-20.33l.16-.04-.11-.45h-.05s.03-20.34.03-20.34l.16-.04-.11-.45h-.05s.03-20.35.03-20.35l.16-.04-.11-.45h-.05s.03-20.37.03-20.37l.16-.04-.11-.45h-.05s.03-20.38.03-20.38l.16-.04-.11-.45h-.05s.03-20.39.03-20.39l.16-.04-.11-.45h-.05s.03-20.41.03-20.41l.16-.04-.11-.45h-.05s.03-20.42.03-20.42l.16-.04-.11-.45h-.05s.03-20.43.03-20.43l.16-.04-.11-.45h-.05s.03-20.44.03-20.44l.16-.04-.11-.45h-.05s.04-20.85.04-20.85l1.42-.35ZM253.77,439.36l-2.53-1.06.03-17.7,1.65-.42-.12-.45-1.53.39v-3.05s1.65-.42,1.65-.42l-.12-.45-1.53.39.03-16.78,1.65-.42-.12-.45-1.53.39v-3.05s1.66-.42,1.66-.42l-.12-.45-1.53.39.03-16.79,1.65-.42c.1-.03.18-.12.18-.22v-3.53c0-.09-.05-.18-.14-.21l-1.68-.7.03-15.72,1.65-.42-.11-.45-1.53.39v-3.05s1.66-.42,1.66-.42l-.12-.45-1.53.39.03-16.81,1.65-.42-.11-.45-1.54.39v-3.06s1.66-.42,1.66-.42l-.11-.45-1.54.39.03-16.82,1.65-.42c.1-.03.17-.12.18-.22v-3.54c0-.09-.05-.18-.14-.22l-1.68-.69.03-15.76,1.65-.42-.11-.45-1.54.39v-3.06s1.66-.42,1.66-.42l-.11-.45-1.54.39.03-16.84,1.65-.42-.11-.45-1.54.39v-3.06s1.66-.42,1.66-.42l-.06-.22.09-.21-1.68-.69.03-15.78,1.65-.42c.1-.03.18-.12.18-.22v-3.55c0-.09-.05-.18-.14-.22l-1.68-.69.03-15.8,1.65-.41-.11-.45-1.54.39v-3.07s1.66-.41,1.66-.41l-.11-.45-1.54.39.03-16.87,1.65-.41-.11-.45-1.54.39v-3.07s1.66-.41,1.66-.41l-.11-.45-1.54.39.03-16.88,1.65-.41-.11-.45-1.54.38v-3.07s1.66-.41,1.66-.41l-.11-.45-1.54.38.03-16.9,1.65-.41c.1-.03.18-.12.18-.22v-3.55c0-.09-.05-.18-.14-.22l-1.68-.68.03-16.25,2.54-.63-.57,290.98Z"/>
      <path d="M264.14,101.19l-28.58-11.46.02-16.29s-.02-.09-.02-.11l-.35-.65c-.02-.06-.07-.09-.11-.11L53.78,0h-.13l-4.85,1.17c-.11.02-.17.13-.17.24v2.77l-4.55-1.82s-.09-.02-.13-.02l-4.85,1.19c-.11.02-.17.11-.17.22v2.77l-4.55-1.82s-.09-.02-.13,0l-4.88,1.17c-.11.02-.17.11-.17.22v2.8l-4.55-1.82s-.09-.02-.13-.02l-4.85,1.17c-.11.04-.19.13-.19.24l.02,2.77-4.55-1.82s-.11-.02-.15,0l-4.85,1.17c-.11.02-.19.11-.19.22l.02,2.8-4.57-1.82s-.09-.02-.13-.02L.17,12.94c-.11.02-.17.11-.17.22l.87,470.53c0,.09.07.17.15.22l180.15,76.99s.04.02.09.02h.07l4.85-1.28c.09-.02.17-.11.17-.22v-2.99l4.53,1.93s.04.02.09.02h.04l4.85-1.28c.11-.02.17-.11.17-.22v-2.99l4.53,1.93s.06.02.09.02h.06l4.85-1.28c.09-.02.17-.11.17-.22v-2.97l4.51,1.93h.15l4.85-1.26c.09-.02.17-.13.17-.24v-2.97l4.51,1.93s.06.02.11.02c0,0,.02,0,.04-.02l4.85-1.26c.09-.02.17-.11.17-.22v-2.97l4.51,1.91s.07.02.09.02h.07l4.83-1.26c.11-.04.17-.13.17-.24l.02-12.42,28.41-8.02c.11-.04.17-.13.17-.24l.89-424.68c0-.09-.04-.17-.13-.22ZM235.56,90.23l27.69,11.12-27.74,5.7.04-16.81ZM49.08,1.73l180.89,72.42.28.52-.04,16.99-4.4-1.76v-.8l1.39-.35c.11-.02.17-.13.17-.22l.02-10.34c0-.09-.02-.15-.09-.19-.02-.02-.04-.02-.06-.02l-1.41-.59v-1.58s0-.07-.02-.11l-.35-.65s-.07-.09-.11-.11L49.08,4.36V1.73ZM221.78,430.33l-.11.22,2.3.95.85,1.67-.02,15.17-.8.91-4.03,1.04.39-.46s.07-.09.07-.15l.02-15.32s0-.06-.02-.11l-.91-1.78c-.04-.06-.09-.09-.13-.11l-2.36-1s-.11-.02-.15-.02l-1.28.32.02-.35,5.01-1.28s.02-.02.04-.02l.52-.26,1.8-.45-.3.3-1,.52.11.19ZM219.18,450.92s.04.02.09.02c.02,0,.04,0,.04-.02l3.88-1,.28.82.17,1.52v.67l-6.96-2.93.19-.07,2.3.98ZM217.12,449.55l.02-17.62,1.97.82.87,1.67-.02,15.15-.76.85-2.08-.87ZM216.66,449.53l-1.11.28.02-17.64,1.11-.28-.02,17.64ZM215.92,450.2l7.78,3.25-2.77.74h-.02s-.04,0-.04.02l-.41.22s-.07.04-.07.09l-.3.41s-.02.07-.04.09l-.11.52v.04l-.02,17.05-4.05-1.71-.33-.13.02-20.5.37-.09ZM224.25,453.8l.28.02.17.17.09.35-.02,17.2-4.38,1.15.02-17.1.09-.43.24-.35.32-.19,3.19-.82ZM215.66,471.35h.02l4.38,1.84s.04.02.09.02h.04l3.27-.84.8.32-4.1,1.06-4.64-1.95v-.52l.13.06ZM224.77,473.04l-.04,17.38-4.38,1.13.02-17.36,4.4-1.15ZM219.91,474.17l-.02,17.33-1.54-.65h-.02l-2.82-1.19.02-17.36,4.38,1.86ZM218.16,491.29l1.86.78s.06.02.09.02h.07l3.27-.87.8.35-4.12,1.06-4.62-1.95v-.52l2.64,1.13ZM219.89,493.02l-.02,17.25v.04l.04.17-4.42-1.86.02-17.44,4.38,1.84ZM220.39,511.2s.07.02.09.02l.15.02-.28.13-4.88,1.26.02-3.51,4.9,2.08ZM220.58,510.77l-.17-.17-.09-.35.02-17.18,4.38-1.15-.02,17.07-.09.43-.24.35-.33.19-3.19.82-.28-.02ZM224.18,491.05l.61-.17v.41l-.61-.24ZM224.22,472.17l.61-.15v.41l-.61-.26ZM224.79,453.43s-.04-.04-.09-.04l-.61-.26v-.91l-.15-1.54s-.02-.04-.02-.07l-.28-.8.39-.11.22.3.45,1.26.15,1.52v.72l-.06-.06ZM219.28,369.47s.07.02.09.02h.06l3.86-1,.3.84.15,1.47v.54l-6.8-2.82.04-.02,2.3.95ZM217.25,368.12l.35-256.14,2.6-.43.24.11-.37,256.49-.76.85-2.06-.87ZM223.81,371.89l-2.77.71s-.04,0-.06.02l-.39.22s-.07.04-.09.09l-.28.41s-.04.06-.04.09l-.11.52v.04l-.02,17.1-4.05-1.69h-.02l-.33-.13.04-20.41.52-.15,7.61,3.19ZM224.38,372.24h.26l.19.17.09.37-.04,17.25-4.38,1.13.02-17.14.09-.43.24-.35.32-.2,3.21-.8ZM215.79,389.84l4.38,1.82s.06.02.09.02h.07l3.25-.85.8.35-4.1,1.04-4.64-1.93v-.52l.15.06ZM224.87,391.53l-.02,17.42-4.38,1.13.02-17.42,4.38-1.13ZM220.02,392.63l-.02,17.38-3.4-1.43h-.02l-.95-.39.02-17.4,4.38,1.84ZM216.4,409.01h.02l3.73,1.56s.06.02.09.02h.07l3.25-.85.8.35-4.1,1.04-4.64-1.93v-.52l.78.33ZM220,411.55l-.02,17.27v.07l.04.17-3.45-1.45h-.02l-.95-.41.02-17.49,4.38,1.84ZM216.38,428.01v.02l3.88,1.63-4.66,1.19v-3.16l.78.32ZM221,429.34l-.28-.02-.2-.17-.09-.35.04-17.23,4.38-1.13-.02,17.1-.09.45-.24.35-.35.17-3.16.82ZM224.29,409.55l.63-.15v.41l-.63-.26ZM224.33,390.64l.61-.15v.41l-.61-.26ZM224.9,371.85s-.04-.02-.07-.04l-.61-.26v-.72l-.17-1.56v-.07l-.3-.82.39-.09.17.22v.02l.07.07.43,1.26.17,1.52v.54l-.09-.06ZM224.09,367.82l-4.03,1.02.41-.45s.06-.09.06-.15l.37-256.55,2.97-.74,1.43-.24-.39,256.21-.82.91ZM216.44,111.7l-.22-.02-.15-.13-.04-.17.02-15.8.07-.2.17-.22.24-.13,14.63-2.41.24.02.13.13.06.24-.02,15.62-.07.3-.19.22-.24.11-14.63,2.43ZM215.45,85.57h.24l-.24-.02h.24l-.22-.04.22.02v-.02l.02-.24.02-.04.89-.22.09-.02h.02v-.02h.17l.06.02h.02l.07.04.09.09,1.91,2.41v1.82l-.02.11-.02.04-.11.06-.15.07h-.04s-.02.02-.02.02h-.02l-.74.17c-.11.04-.17.13-.17.24v.37l-.26-.11-.17.43.56.24-2.28.56s.09-.09.09-.17v-5.79l-.24-.02ZM209.66,227.93c-.04-.11-.15-.17-.28-.15l-5.42,1.34.76-3.06.43-1.19.54-1.02.67-.74.84-.5.89-.26.78.02.63.17.33.28s.11.07.15.07h.04c.09-.02.15-.09.17-.15l.13-.28s.02-.07.02-.09l.04-.82.15-.95.24-.82.26-.59.33-.43.28-.06.37.28.3.39.26.63v.02l1.69,4.29-1.17,3.34s-.02.04-.02.06v.87l-.06,1-.28,1.41-.35.78-.28.33-.22.09-.15-.02-.33-.24-.3-.39-1.45-3.6ZM210.85,231.96l-.02.06h-.02l.04-.06ZM210.57,231.57l-.3-.39-1.15-2.86.17-.04,1.37,3.34-.09-.04ZM210.59,232.15l-.11,92.44-.3.32-2.54-1.04.13-95.21.89-.24,1.19,2.97s.02.02.02.04l.35.43s.04.04.04.04l.32.24ZM207.3,228.77l-.11,95.08-1.11.26.11-95.06,1.11-.28ZM201.67,428.12l.07-45.18,4.64-1.17-.07,45.16-4.64,1.19ZM206.26,427.41v6.5l-.37-.15v-6.24l.37-.11ZM201.58,509.03l.02-16.34v-.02l.02-28.69,4.64-1.19-.06,45.05-4.62,1.19ZM206.15,508.34v7.39l-.37-.17v-7.13l.37-.09ZM200.97,457.61l-.43-.87s-.07-.09-.13-.11l-3.6-1.52.65-.17,2.38,1.02h.15l3.38-.87,1.63.69.39.74v6l-4.05,1.04c-.11.04-.17.13-.17.24l-.04,28.86h.24l-.24.02v16.64c0,.09.02.15.09.19.04.02.09.04.13.04h.06l3.92-1.02-.02,8.56-.33.37-4.07,1.06s.02-.07.02-.09l.06-60.74s0-.07-.02-.11ZM187.63,119h-.17l-.11-.11-.06-.24.02-15.67.07-.3.15-.24.22-.11,12.81-3.16.17.02.11.09.06.26-.02,15.64-.06.3-.15.24-.24.13-12.78,3.14ZM196.06,117.81l-.3,285.85-4.4,1.13.28-285.89,4.42-1.08ZM187.91,88.08l-.02,9.86-1.11.28v-9.88l1.13-.26ZM186.78,87.87v-.39l.61.24-.61.15ZM188.1,98.37l3.29,1.28s.04.02.09.02h.04l4.83-1.19c.11-.02.17-.13.17-.24v-.74l3.38,1.34-12.31,3.03s-.04.02-.06.02l-.28.17s-.07.04-.09.06l-.22.33s-.02.04-.04.07l-.06.39v.04l-.02,15.71v.09l-.07-.02.02-20.04,1.32-.33ZM194.36,96.19l.02-.09.15.07.13.04.02.02.11.02.2.06-.63-.13ZM194.84,96.79l-.22.04.02-.09.2.04ZM194.84,95.77l-.13-.04-.07-.04-.11-.04-.09-.04-.09-.07-.02.04h-.02l-.07.11-.02.04-.22-.07-.17.76-.24.06v-2.23l.3-.09v.04l.09.24v.02l.11.22.02.02.11.2.02.02.13.17s.02,0,.02.02l.15.13.02.02.17.13s.02.02.04.02l.2.11.11-.22-.09.22.22.09h.02l.22.06h.04l.24.04h.61l.19-.02.17-.04h.02l.17-.04.17-.04.15-.04s.02,0,.02-.02l.15-.04.13-.09h.02l.13-.06h.02l.11-.09h.02l.11-.09v-.02l.11-.09.11-.11h.02l.13-.15s0-.02.02-.04l.09-.15s.02-.02.02-.02l.09-.17v-.02l.07-.15v-.04l.04-.15v-.39l-.02-.02-.04-.15s0-.02-.02-.04l-.06-.11s0-.04-.02-.04l-.09-.11s-.02-.02-.02-.04l-.13-.09s-.02-.02-.04-.02l-.13-.07-.11.2.09-.22-.06-.02h-.02l-.07-.02-.02-.02-.09-.02h-.11l-.02-.02-.28-.02h-.59l-1.73.06h-.09l-.26-.04-.35-.11-.15-.06-.13-.07-.11-.09-.09-.11-.09-.11-.06-.11-.07-.13-.02-.15-.02-.15v-.35l.04-.2.09-.26.11-.24.15-.26.19-.22.24-.24.26-.22.28-.17.32-.17.37-.13.37-.11.41-.09.43-.02h.22l.2.02.19.02.17.06.19.07.41.22.11-.19.22.06.22-.67.24-.06v2.1l-.28.09-.11-.28v-.02l-.06-.13-.07-.13s-.02,0-.02-.02l-.07-.11h-.02l-.09-.11v-.02l-.09-.09s-.02-.02-.02-.02l-.09-.09-.02-.02-.09-.06s-.02-.02-.02-.02l-.11-.07h-.02l-.11-.06-.11-.07-.11.22.06-.22-.11-.04-.15-.04-.17-.04-.15-.02h-.32l-.15.02h-.02l-.52.09-.22.06-.22.09-.17.09-.17.09-.13.09-.22.15-.26.26v.02l-.09.11s-.02.02-.02.02l-.06.13s-.02.02-.02.04l-.04.11s-.02.02-.02.04l-.04.13v.02l-.02.13v.15s0,.04.02.04v.13s.02.02.02.02l.04.11v.04l.07.11.02.02.07.11s.02.02.04.02l.09.09s.02.02.04.02l.11.07.11-.22-.09.22.06.04h.02l.09.02h.02l.09.02h.02l.13.02.35.02h.48l1.65-.04.3.02.15.02.24.07.2.06.17.09.15.09.11.13.11.11.06.15.07.17.02.17v.46l-.13.52-.13.24-.15.26-.17.22-.22.22-.24.22-.28.17-.26.13-.39.17-.39.13-.41.09-.33.04-.26.02-.35-.02-.3-.04-.26-.04-.24-.09ZM193.19,91.96l.04.17v.04l.06.15s0,.02.02.02l.07.15.02.02.11.15.02.02.11.11.02.02.15.11s0,.02.02.02l.15.09.02.02.15.07h.04l.3.11.26.04.15.02.13.02,1.73-.09h.22l.3.02.28.02.17.02.11.04.11.04.06.07.07.09.04.06.02.11.02.11v.09l-.02.13-.04.13-.09.17-.09.13-.11.13-.09.09-.17.15-.11.07-.11.06-.13.07-.11.04-.15.04-.15.04-.13.04-.22.02-.43.04-.24-.02-.24-.02-.19-.04-.2-.09-.17-.09-.15-.11-.13-.13-.11-.13-.11-.17-.09-.19-.07-.2-.04-.22c0-.07-.04-.13-.11-.17-.04-.02-.11-.04-.17-.02l-.65.15-.22-.09-.02-1.78.02-.11v.09s.02.02.02.02ZM197.66,85.68v.09l-1.11.26v-.09l1.11-.26ZM196.55,85.46v-.37l.59.24-.59.13ZM197.88,86.17l2.23.91-3.55.8v-1.39l1.32-.33ZM200.87,87.39l.26.09s.04.02.09.02h.04l1.43-.35-.48.26-.02.02-.46.3v.02l-.41.35s0,.02-.02.02l-.35.39-.02.02-.3.41v.02l-.26.45v.02l-.22.48v.02l-.15.5v.04l-.11.52v.02l-.02.54v.02l.02.52v.04l.09.48s0,.02.02.04l.13.43.02.02.19.39.02.02.26.35.02.02.3.28s.02.02.04.02l.35.22s.02.02.02.02l.41.15s.02.02.02.02l.46.09s.02.02.02.02l.35.02-1.8.43-2.69.67.11-.07s.02-.02.02-.02l.3-.19s.02,0,.02-.02l.26-.22h.02l.24-.24v-.02l.22-.26v-.02l.17-.26v-.02l.13-.28s.02-.02.02-.02l.09-.28v-.04l.06-.28v-.02l.02-.26v-.02l-.02-.26v-.02l-.02-.22-.02-.02-.06-.2v-.04l-.11-.17v-.04l-.13-.15-.2-.2-.17-.11s-.02-.02-.04-.02l-.2-.11h-.02l-.24-.11v.02h-.02l-.26-.07h-.02l-.15-.02h-.02l-.11-.02h-.24l-1.65.04-.58-.02-.28-.02-.09-.02-.13-.04-.06-.02-.07-.06-.04-.04-.02-.06-.02-.04-.02-.13v-.17l.04-.11.02-.09.06-.11.11-.15.17-.15.24-.17.17-.11.15-.07.17-.06.22-.07.33-.06.19-.02.22-.02h.06l.17.02.17.04.17.07.07.02.13.06.09.07.09.06.06.07.09.09.07.09.06.11.07.09.04.13.11.26.04.15.17-.02-.09.17.04.02s.06.02.11.02h.04l.69-.17c.09-.02.17-.11.17-.22v-2.58c0-.09-.04-.15-.09-.2-.07-.04-.13-.06-.2-.04l-.59.15h-.02l-.07.02.02.07-.04.13-.13-.04-.17.52-.09-.04-.22-.09-.24-.11v.02l-.11-.02s0-.02-.02-.02l-.11-.02-.24-.02h-.39l-.37.02s.06-.11.06-.15v-.11l4.31-.98ZM207.43,83.27v.09l-1.11.28v-.09l1.11-.28ZM206.33,83.08v-.39l.59.24-.59.15ZM207.65,83.79l2.25.89-3.58.89v-1.45l1.32-.33ZM210.64,84.98l.24.11h.15l4.79-1.17-.04.09-2.19.54c-.11.02-.17.11-.17.22v.71c0,.09.04.15.09.2.04.02.09.04.15.04h.04l.76-.2.02.15-.02,3.6-3.58-3.94s-.06-.04-.09-.07h-.02l-.09.22-.04-.22-2.67.65c-.11.04-.2.13-.2.24v.71c0,.09.04.15.09.2.04.02.11.04.15.04h.06l.87-.22s.02,0,.02-.02h.09l.02.24-.02,4.51v.28l-.02.07-.02.02-1.06.3c-.11.02-.17.11-.17.22v.37h-.04l-.17.41.35.15-2.21.56-.52.13.33-.2h.02l.43-.3.02-.02.39-.35.02-.02.35-.39s.02-.02.02-.02l.3-.41s.02-.02.02-.02l.26-.45v-.02l.2-.48.02-.02.15-.52v-.02l.09-.52s0-.02.02-.02l.02-.54v-.02l-.02-.54v-.02l-.09-.48s-.02-.02-.02-.04l-.13-.43s-.02-.02-.02-.02l-.2-.39s-.02-.02-.02-.04l-.26-.32-.02-.02-.3-.28s-.02-.02-.04-.02l-.35-.22s-.02-.02-.04-.02l-.91-.37-.04.09-.43-.02h-.09l1.28-.32c.11-.02.2-.11.2-.22v-.02l4.31-1.06ZM217.18,80.89v.07l-1.11.28v-.09l1.11-.26ZM216.08,80.67v-.37l.59.24-.59.13ZM217.4,81.39l2.25.91-3.58.87v-1.45l1.32-.32ZM220.39,82.58l.24.11s.07.02.09.02.04,0,.06-.02l2.75-.67v.09h-.02l-2.77.67c-.09.04-.17.13-.17.24v.71c0,.07.04.13.09.17.07.04.13.07.22.04l.54-.13-1.17,2.12-1.02-1.34-.13-.2.76-.19h.02s.02,0,.02-.02h.04s0-.02.02-.02c0,0,0-.02.02-.02,0-.02.02-.02.02-.02v-.02s.02-.02.02-.02v-.02s0-.02.02-.02v-.78c0-.07-.04-.13-.09-.17-.06-.04-.13-.06-.19-.04l-3.38.82-.33-.13s.02-.04.02-.06v-.02l4.31-1.06ZM218.2,90.47v-.24l.56-.13,2.88-.71v.24l-3.45.85ZM220.48,90.9v1.02l-1.67-.67,1.56-.39.11.04ZM221.75,90.08v.02l-.69.15.69-.17ZM221.71,88.88l-.63.15-.02.02h-.09l-.07.02h-.06l-.02-.24v-1.02l.02.67h.22l-.09.2.32.13s.04.02.09.02h.04l.28-.07v.11ZM220.39,87.04s-.02.06-.02.11v1.91l.02.09v.07l-.89.22v-1.99s0-.09-.04-.13l-1.91-2.43-.09-.09,1.17-.28.02.04,1.43,1.95.2-.15.2.11,1.3-2.32.17-.35v-.02l.02-.02v-.06l.41-.11v.02l-1.99,3.45ZM221.43,83.34h-.02l-.37.09v-.24l2.28-.56v.26h-.07l-.09.02h-.02l-.04.02-1.67.41ZM223.01,83.49l.09-.04.04-.04.06-.02.11-.02s.02,0,.02-.02l.2-.04v.17l-.61.13.09-.11ZM216.51,84.29h.09v-.02l2.97-.71v.24l-.56.15-.41.09-1.95.5h-.07l-.13.04h-.11v.02h-.02l-.69.17-1.21.3-.52.13v-.26l2.62-.65ZM211.31,91.48l-.28-.11-.06.15-.59.15h-.02l-.02-.26v-3.73l3.79,4.14.15-.15.07.19-2.95.72s.06-.11.06-.17v-.71c0-.09-.04-.17-.15-.22ZM210.27,86.93l-.17.15h-.24v4.44l.02.19v.09l.02.02v.06s.02.02.02.04l.02.02s.02.04.02.06l.04.02s.02.04.04.04l.04.02.11-.2-.04.22.02.02h.22l.61-.15v.24l-2.77.67v-.24l.87-.19v-.02l.06-.02h.02l.04-.02.02-.02.04-.02.02-.02.02-.02s.02-.02.02-.02l.04-.04s0-.02.02-.02l.02-.04v-.02l.02-.04s0-.02.02-.04v-.07l.02-.06v-.09l.02-.06v-4.98s0-.02-.02-.02v-.09l-.02-.04s-.02-.04-.02-.04l-.02-.04,1.21-.8,3.86,4.25.17-.17h.24v-4.4l-.02-.02v-.02l.35-.07-.02.11v.15l-.02,5.59-.84.22-4.1-4.49ZM210.72,93.3l-.04,26.65-.69.8-2.15-.87.04-25.96,2.73-.67.11.04ZM208.8,86.43l-.54.15v-.26l1.17-.28-.63.39ZM207.41,94.04l-.02,25.83-1.11.26.02-25.79v-.02l1.11-.28ZM206.3,124.74l-.45-.91s-.07-.09-.13-.11l-2.15-.87,1.65-.41s.07,0,.07-.02l2.17-.52-.13,99.63h-.09s-.04,0-.06.02l-.95.28.11-96.99s0-.09-.02-.11ZM205.05,122.01l-4.07,1.02.37-.41s.04-.11.04-.17l.04-26.72,4.42-1.08-.04,26.52-.76.85ZM204.94,87.06l.43.04.41.09.37.13.3.19.28.26.22.3.2.35.13.39.09.45.02.5-.04.52-.09.5-.15.48-.17.45-.26.43-.26.37-.35.39-.39.32-.41.3-.46.26-.5.2-.52.15-.52.11-.5.04-.45-.04-.39-.09-.37-.13-.3-.22-.28-.24-.22-.3-.19-.35-.13-.41-.09-.43-.02-.52.04-.5.09-.5.13-.48.2-.45.24-.43.3-.39.33-.37.37-.35.43-.28.45-.26.48-.19.54-.17.52-.09.5-.04ZM200.91,98.74l-4.36-1.76v-.24s0-.02-.02-.02l4.33-1.06.09.02v3.1s-.02-.02-.04-.04ZM200.93,116.1v6.26l-.69.8-2.15-.87v-5.4l2.47-.61s.04,0,.06-.02l.28-.17h.02ZM187.26,119.44s.04.02.06.02l.3.02h.07l.17-.04-.41,432.31-1.1.28.41-432.78.5.2ZM196.42,117.31l1.21-.3v5.27l-1.13.26v-5.03c0-.09-.02-.15-.09-.2ZM196.51,124.59l1.17-.28-.22,201.99-1.17.3.22-202.01ZM196.29,328.58l1.11-.28-.04,44.75-1.11.28.04-44.75ZM196.25,373.8l.54-.13,3.47,1.45.37.71-.06,60.76-.28.3-3.66-1.54.04-31.64c0-.09-.04-.15-.09-.2-.07-.04-.13-.04-.22-.04l-.15.04.04-29.73ZM197.81,373.09l.04-44.75,2.04.85.8,1.54-.07,42.51-.65.74-2.17-.89ZM196.62,437.05l.65-.17-.02,17.66-.65.15.02-17.64ZM196.38,495.86c.11-.02.17-.13.17-.22l.04-40.11,3.55,1.5.39.76-.07,60.58-.28.3-4.12-1.76.02-21,.28-.07ZM197.72,454.56l.02-17.64,2.06.87.76,1.5-.02,15.45-.65.74-2.17-.91ZM206.22,462.32l-.37.11v-5.96s0-.06-.02-.11l-.43-.87s-.07-.09-.13-.11l-1.15-.48.74-.2s.09-.02.11-.06l.85-.91s.04-.11.04-.15v-.8l.39-.09-.02,9.62ZM205.39,453.47l-.72.8-4.05,1.04.33-.35s.04-.09.04-.15l.02-15.6s0-.06-.02-.11l-.82-1.6s-.06-.09-.11-.11l-2.47-1.04s-.04-.02-.06-.02-.04.02-.09.02l-.82.19v-.69l3.64,1.54s.06.02.09.02.04-.02.07-.02l3.9-1,.35.13.76,1.5-.02,15.45ZM201.02,436.77v-.09l.09-60.89s-.02-.07-.02-.11l-.46-.87s-.06-.09-.11-.11l-.48-.22s.04,0,.04-.02l4.03-1.02,1,.41.39.74-.02,6.91-4.03,1.02c-.11.04-.2.13-.2.24l-.04,45.66c0,.07.04.13.09.17.04.02.09.04.15.04h.04l3.94-1.02-.02,7.71-.35.39-4.05,1.04ZM206.33,381.3l-.37.09v-6.83s0-.09-.02-.11l-.46-.87s-.06-.09-.11-.11l-.52-.22.11-.02s.09-.02.11-.07l.82-.93s.07-.09.07-.15v-.76l.37-.09v10.05ZM205.5,371.16v.85l-.74.8-4.05,1.04.33-.37s.07-.09.07-.15l.04-42.64s0-.09-.02-.11l-.87-1.69s-.07-.09-.11-.11l-2.43-1s-.11-.02-.15-.02l-1.28.32v-1l1.39-.35,2.75,1.15s.06.02.09.02.04-.02.06-.02l2.51-.63,1.65.69.8,1.54-.04,41.67ZM197.92,326.35l.24-201.99,2.43.98.41.78-.24,200.95-.3.32-2.54-1.04ZM201.19,327.26s.02-.06.02-.11l.24-201.1s0-.07-.02-.11l-.45-.89s-.07-.09-.13-.11l-2.84-1.15s-.04-.02-.06-.02-.04,0-.07.02l-1.37.32v-1.11l1.32-.32,2.38.95s.04.02.09.02h.04l2.45-.61,2.69,1.08.39.76-.13,97.33h.24l.11.22.28-.17.89-.26h.35l-.56.17s-.04.02-.04.02l-.89.54s-.04.02-.07.04l-.72.76s-.02.04-.02.04l-.59,1.08v.02l-.43,1.21v.02l-.8,3.19-.59-.24-.17.43.82.35c.07,0,.11.02.15,0l2.04-.5-.13,96.66-.35.39-4.07,1.04ZM210.62,217.92l-.26.04s-.11.04-.15.09l-.39.54s-.02.02-.02.04l-.28.63s-.02.02-.02.04l-.24.85v.02l-.15.98s0,.02-.02.02l-.02.69-.2-.06h-.02l-.69-.22h-.04l-.33-.02.13-99.61,2.45.98.39.78-.13,94.21ZM210.88,218.63l-.22.3s-.02.02-.02.04l-.28.63-.02.02-.24.87v.02l-.15.98s-.02.02-.02.02l-.04.76-.11-.09s-.04-.04-.07-.04l-.2-.09v-.02l.04-.82.15-.95.24-.82.26-.58.28-.37.39.15ZM210.94,324.68l.13-92.31.5.22h.04l.28.04h.11l.33-.13s.06-.04.11-.07l.32-.39s.02-.04.04-.06l.37-.82s0-.04.02-.04l.28-1.45v-.04l.07-1v-.87l1.19-3.36c.02-.07.02-.11,0-.17l-1.71-4.38-.26-.67s-.02-.04-.04-.04l-.35-.46s-.02-.04-.04-.04l-.5-.37s-.02,0-.04-.02l-.69-.28.11-94.32s0-.07-.02-.11l-.45-.89s-.07-.09-.13-.11l-2.84-1.15s-.04-.02-.06-.02-.04.02-.07.02l-1.78.43.37-.41s.04-.11.06-.15v-.65l1.32-.32,2.36.95s.07.02.09.02h.07l2.43-.61,2.69,1.08.39.76-.28,200.87-.35.41-4.07,1.02s.02-.06.02-.11ZM213.84,120.67l-.52-.22.52-.13v.35ZM210.72,120.63l.37-.43s.06-.09.06-.15l.02-26.72,4.42-1.08-.02,19.18-.02,7.35-.76.84-4.07,1.02ZM216.44,94.58s-.04.02-.06.02l-.33.15v-2.84l1.99-.48,2.56,1.02s.06.02.09.02h.06l4.88-1.21c.11-.02.17-.11.17-.22v-.65l4.66,1.86-14.02,2.32ZM226.93,78.48l-.02,9.86-1.11.28.02-9.86,1.11-.28ZM225.83,78.29v-.39l.56.24-.56.15ZM43.99,2.82l181.1,72.52.28.54-.02,14.99-4.42,1.08v-1.04l1.39-.35c.11-.02.17-.11.17-.22l-.02-1.93h-.22l-.06-.24-.59.13v-1.08l1.8-3.08.72-.17c.11-.02.17-.11.17-.22l.02-2.12h-.24l-.04-.24-3.08.76v-5.16s0-.06-.02-.11l-.35-.65s-.07-.09-.11-.11L39.89,3.79l4.1-.98ZM39.37,4.1l180.84,72.46.28.52-.02,5.05-2.84-1.13v-.41c0-.09-.04-.17-.13-.22l-1.43-.56v-1.58s0-.09-.02-.11l-.35-.65c-.02-.07-.07-.11-.11-.11L39.37,6.72v-2.62ZM34.26,5.16l181.08,72.59.28.52-.02,5.22-4.4,1.08v-5.16s0-.06-.02-.11l-.35-.65s-.07-.09-.11-.11L30.18,6.15l4.07-1ZM29.66,6.44l180.8,72.5.28.54-.02,5.05-2.84-1.15v-.39c0-.11-.04-.2-.15-.22l-1.41-.58v-1.58s-.02-.06-.02-.11l-.35-.65s-.07-.09-.11-.11L29.66,9.06v-2.62ZM24.55,7.52l181.04,72.61.26.54v5.2l-4.42,1.1.02-5.16s-.02-.09-.04-.11l-.32-.67s-.07-.09-.13-.11L20.45,8.49l4.1-.98ZM19.93,8.8l180.78,72.55.26.52v5.05l-2.84-1.13v-.41c0-.09-.06-.17-.15-.22l-1.43-.56v-1.58s0-.09-.02-.11l-.35-.65c-.02-.06-.07-.09-.11-.11L19.93,11.42v-2.62ZM14.82,9.86l181,72.68.28.52v5.24l-1.3.48s-.02.02-.04.02l-.69.39s-.07.02-.07.04l-.72.8s-.02.04-.02.04l-.39.71s-.02.04-.02.07l-.15,1.06v.02l.02,5.44v.04c.02.11.13.2.24.2h.04l3.08-.59v1.04l-4.38,1.08-.02-14.95s-.02-.07-.02-.11l-.35-.65s-.07-.09-.11-.11L10.73,10.86l4.1-1ZM181.02,560.32L1.32,483.53.48,13.5l180.69,72.63.26.54-.41,473.65ZM185.87,559.24l-4.38,1.13.41-473.76s-.02-.06-.02-.11l-.35-.65s-.06-.09-.11-.11L1,13.22l4.1-1,180.95,72.72.28.52-.46,473.78ZM186.3,84.53L10.21,13.78v-2.64l180.74,72.59.26.54.04,14.84-2.88-1.15v-10.18c0-.09-.04-.17-.15-.22l-1.43-.59v-1.56s0-.09-.02-.11l-.32-.67s-.09-.09-.13-.11ZM190.72,557.79l-4.38-1.86v-3.42l1.39-.35c.11-.04.17-.13.17-.24l.43-432.61,2.45-.59.39.15-.46,438.91ZM195.58,556.7l-4.4,1.13.06-60.65h.04l4.36-1.13-.07,60.65ZM191.46,496.66l.11-91.46,4.62-1.17-.09,91.42-4.64,1.21ZM196.08,518.98l1.11-.28-.04,30.51-1.08.28.02-30.51ZM200.43,555.25l-4.4-1.86.02-3.4,1.39-.37c.11-.02.17-.13.17-.22l.02-30.64,2.06.87.76,1.5-.02,34.13ZM205.26,554.17l-4.38,1.15.04-34.26s-.02-.06-.02-.11l-.82-1.6c-.04-.07-.06-.09-.13-.11l-2.45-1.04s-.06-.02-.11-.02h-.04l-1.28.33v-1.08l4.1,1.73s.04.02.09.02h.06l3.79-1,.43.2.76,1.5-.04,34.3ZM204.92,518.07s-.04-.04-.06-.06l.3-.09s.09-.04.13-.06l.43-.5s.07-.09.07-.15v-.74l.65-.17c.11-.02.17-.11.17-.19v-.02l.02-7.93s.04-.07.04-.13l.04-45.53s0-.09-.02-.13v-9.97c0-.06-.02-.13-.09-.17-.07-.04-.13-.06-.2-.04l-.54.13v-14.32s0-.09-.02-.11l-.82-1.63-.02-.02.26-.07s.09-.04.11-.09l.46-.48s.04-.11.04-.17l.02-.76.65-.17s.04-.02.07-.04c.06-.04.11-.11.11-.2l.02-7.02s.02-.09.02-.13l.06-45.63s-.02-.09-.04-.13l.02-10.4c0-.07-.04-.15-.09-.2-.06-.04-.13-.04-.22-.04l-.54.15.06-41.41s-.02-.09-.04-.11l-.85-1.67c-.02-.06-.07-.09-.13-.11l-1.17-.5,1.6-.41s.09-.02.13-.07l.41-.48,1.15-.28-.28,220.87-1.11.28.04-27.17s-.02-.06-.04-.11l-.82-1.63ZM210.12,552.74l-4.38-1.89v-3.4l1.39-.37-.06-.22h.24l.28-221,2.04.85.78,1.54-.28,224.48ZM215.06,471.96v.02l-.11,79.65-4.38,1.15.09-58.63h.11l.07.22.52-.13c.06-.02.13-.09.15-.17l2.8-8.91v-1.32l-2.77-7.48c-.04-.13-.17-.17-.28-.15l-.52.13s-.02.02-.04.02l.09-63.64h.11l.07.24.52-.13s.02-.02.04-.02c.04-.02.09-.09.11-.15l2.8-8.91v-1.34l-1.54-4.18-1.24-3.34-.22.09-.06-.22-.52.13s-.02.02-.04.02l.09-66.7s0-.09-.02-.11l-.87-1.67c-.02-.06-.07-.09-.11-.11l-2.45-1.02s-.04-.02-.07-.02-.04,0-.06.02l-1.21.3v-1l1.32-.35,2.75,1.15s.06.02.09.02.04,0,.07-.02l2.49-.63,1.67.69.8,1.54-.22,144.94ZM213.69,484.92v-1.34l-2.54-6.87,2.69,7.24v1.11l-2.71,8.65-.13-.06v-.11l2.69-8.6ZM211.01,491.96l.02-14.26,2.21,5.98v1.13l-2.23,7.15ZM213.8,403.49v-1.34l-1.39-3.77h.02l1.52,4.14v1.13l-2.71,8.65-.13-.06v-.11l2.69-8.62ZM211.11,410.55l.02-14.3,2.21,6.02v1.11l-2.23,7.17ZM214.84,325.2s-.06-.09-.11-.11l-1.17-.5,1.6-.39s.09-.04.11-.09l.48-.5s.04-.11.04-.17l.28-201s0-.09-.02-.11l-.45-.91s-.07-.09-.13-.11l-1.17-.48v-.63l.67-.17c.07,0,.09-.02.13-.06l.87-.98s.06-.11.06-.15v-6.74s.04.02.07.02l.32.02s.02.02.02.02c.02,0,.02-.02.04-.02l.65-.11-.37,256.05-1.08.28.04-41.41s0-.09-.02-.11l-.87-1.67ZM215.47,513.95l1.11-.28-.04,30.49-1.11.28.04-30.49ZM219.8,550.2l-4.38-1.86v-3.42l1.39-.35c.11-.04.17-.13.17-.24l.04-30.62,1.97.85.85,1.67-.04,33.98ZM224.64,549.1l-4.38,1.15.07-34.08s-.02-.06-.04-.11l-.91-1.8s-.07-.09-.11-.11l-2.36-1s-.07-.02-.09-.02-.04.02-.07.02l-1.28.32v-.37l5.01-1.3h.06l1.02-.52s.04-.04.06-.06l.22-.22,1.43-.37-.74.76-1,.5.11.22-.09.22,2.28.95.87,1.67-.06,34.15ZM224.22,513s-.07-.09-.13-.11l-1.91-.8.61-.3s.04-.02.04-.04l.95-.98s.02-.02.02-.04l.15-.26.24-.06s.02-.02.04-.02l.41-.24s.04-.04.06-.07l.3-.43s.02-.04.02-.09l.11-.5v-.04l.02-2.28.06-.63v-.02l.07-53.33v-.02l-.15-1.56s0-.04-.02-.04l-.48-1.32s0-.04-.02-.06l-.22-.28.78-.87s.06-.11.06-.17l.02-15.3s-.02-.09-.02-.11l-.93-1.8s-.06-.09-.11-.11l-1.91-.8.59-.28s.04-.04.06-.04l.85-.89.5-.13s.04-.02.07-.02l.39-.24s.06-.04.09-.06l.28-.43s.04-.04.04-.09l.11-.5v-2.67l.07-.63v-.02l.09-52.96v-.02l-.15-1.56s-.02-.02-.02-.04l-.48-1.32s-.02-.04-.02-.06l-.09-.09v-.02l-.15-.2.8-.89s.06-.09.06-.15l.39-256.38,1.08-.17-.67,431.2-1.08.28.04-27.02s0-.07-.02-.11l-.91-1.8ZM229.49,547.67l-4.38-1.86v-3.4l1.39-.37c.11-.02.17-.11.17-.22l.67-431.44,2.84-.48-.69,437.77ZM234.32,546.58l-4.38,1.15.09-60.8.61-377.12.54-.09s.04,0,.04-.02l.35-.15s.04-.02.06-.07l.26-.28s.02-.06.04-.09l.09-.37s.02-.04.02-.07l.02-15.69s0-.04-.02-.07l-.09-.35s-.04-.09-.07-.11l-.26-.22s-.04-.04-.06-.04l-.89-.37.02-17.23s0-.07-.02-.11l-.35-.65s-.07-.09-.11-.11L49.62,1.45l4.07-.98,181.15,72.48.26.52-.78,473.11ZM235.73,478.5v-.02s-.02-.04-.02-.04v-.02s-.02-.02-.04-.02v-.02s-.04-.02-.06-.02l-.69-.3v-.56l2.25-.59h.2l.13.11.06.26-.02,7.84-.07.35-.17.26-.26.13-2.15.56v-1.65l.67-.19c.11-.02.17-.11.17-.22l.02-2.9v-2.9s0-.02-.02-.04ZM234.91,476.68v-.07l1.67-.43.09.04-1.76.46ZM235.71,515.68s-.02-.04-.02-.07c.04-.02.09-.06.09-.13l.09-.28.09.02h.07l.43-.04h.04l.13-.04v1.04l-.04.22-.09.15-.13.09-.54.15v-.67l-.11-.43ZM235.99,497.33h.06l.41-.04h.04l.09-.02-.02,14.6v2.82l-.2.04-.37.04-.33-.07-.17-.06-.09.19-.24-.06-.09.28-.2.15s-.07.07-.07.09v-3.73l.11-.04s.02,0,.04-.02l.2-.11-.09-.13v-1.73l.09-.04-.24-.37.09-.13-.2-.15.02-6.37.09-.04s.04-.02.06-.02l.17-.13-.07-.13v-1.71l.09-.06-.26-.39-.07.04-.02-.02v-2.97l.35-.09.02.09c.02.06.06.11.13.13l.19.09h.04l.39.09ZM235.86,496.31v-.22l.65-.17.09.02.02.02.04.13v.54s-.09-.02-.15,0l-.28.07-.13.02-.09-.02-.04-.02-.11-.37ZM235.36,516.2v.39l-.52.13v-1.24c.02.07.07.11.11.13l.15.04.17.2.09.35ZM235.38,496.25l-.04.17-.48.13v-.19l.52-.13v.02ZM262.92,525.91l-28.13,7.95.02-9.86,20.13-5.18-.13-.46-20,5.16v-.82l19.8-5.16c.11-.02.17-.11.17-.22l.11-56.4h-.45l-.11,56.23-19.52,5.07v-3.88l2.45-.63-.11-.46-2.34.61v-.35l1.69-.45s.07,0,.07-.02l.19-.13s.07-.04.09-.07l.15-.24s.02-.04.02-.07l.04-.28s.02-.04.02-.04l.02-20.15v-.07l-.07-.22s0-.04-.02-.09l.24-.04h.06l.04.02.02.13-.02,21.04-.07.24.48.09.04-.26v-.04l.04-21.08v-.04l-.06-.24s-.04-.09-.07-.11l-.15-.13s-.09-.07-.15-.07l-.19-.02s-.04,0-.07.02l-2.32.59.02-8.45,2.8-.74s.04,0,.07-.02l.2-.11s.04-.04.06-.07l.15-.2s.02-.06.02-.09l.06-.24v-.78l.02-7.97v-1.17l-.06-.22s-.02-.09-.07-.11l-.13-.13s-.11-.06-.15-.06h-.26l-2.69.69v-9.86l18.85-4.88-.07-.22-.06-.24-18.72,4.85.61-358.29,28.3-5.83-.89,424.22ZM237.61,476.07l-.02-.15.09-.02h.07l.02.02.02.13v.2l-.04-.04s-.04-.04-.07-.04l-.04-.02v-.02s0-.04-.02-.04Z"/>
      <polygon points="220.02 392.63 220 410.01 216.6 408.58 216.57 408.58 215.62 408.19 215.64 390.79 220.02 392.63"/>
      <path d="M223.81,371.89l-2.77.71s-.04,0-.06.02l-.39.22s-.07.04-.09.09l-.28.41s-.04.06-.04.09l-.11.52v.04l-.02,17.1-4.05-1.69h-.02l-.33-.13.04-20.41.52-.15,7.61,3.19Z"/>
      <path d="M200.54,457.79l-.07,60.58-.28.3-4.12-1.76.02-21,.28-.07c.11-.02.17-.13.17-.22l.04-40.11,3.55,1.5.39.76Z"/>
      <polygon points="200.56 439.28 200.54 454.73 199.89 455.47 197.72 454.56 197.75 436.92 199.8 437.79 200.56 439.28"/>
      <path d="M200.63,375.84l-.06,60.76-.28.3-3.66-1.54.04-31.64c0-.09-.04-.15-.09-.2-.07-.04-.13-.04-.22-.04l-.15.04.04-29.73.54-.13,3.47,1.45.37.71Z"/>
      <path d="M219.85,516.23l-.04,33.98-4.38-1.86v-3.42l1.39-.35c.11-.04.17-.13.17-.24l.04-30.62,1.97.85.85,1.67Z"/>
      <path d="M200.45,521.12l-.02,34.13-4.4-1.86.02-3.4,1.39-.37c.11-.02.17-.13.17-.22l.02-30.64,2.06.87.76,1.5Z"/>
      <polygon points="200.69 330.72 200.63 373.24 199.98 373.97 197.81 373.09 197.85 328.34 199.89 329.19 200.69 330.72"/>
      <polygon points="210.4 328.25 210.12 552.74 205.74 550.85 205.74 547.45 207.13 547.08 207.06 546.87 207.3 546.87 207.58 325.87 209.62 326.72 210.4 328.25"/>
      <path d="M210.59,232.15l-.11,92.44-.3.32-2.54-1.04.13-95.21.89-.24,1.19,2.97s.02.02.02.04l.35.43s.04.04.04.04l.32.24Z"/>
      <path d="M230.18,109.9l-.69,437.77-4.38-1.86v-3.4l1.39-.37c.11-.02.17-.11.17-.22l.67-431.44,2.84-.48Z"/>
      <polygon points="220.43 111.66 220.06 368.15 219.31 368.99 217.25 368.12 217.59 111.98 220.19 111.55 220.43 111.66"/>
      <polygon points="210.72 93.3 210.68 119.96 209.99 120.76 207.84 119.89 207.89 93.93 210.62 93.26 210.72 93.3"/>
      <path d="M210.75,123.7l-.13,94.21-.26.04s-.11.04-.15.09l-.39.54s-.02.02-.02.04l-.28.63s-.02.02-.02.04l-.24.85v.02l-.15.98s0,.02-.02.02l-.02.69-.2-.06h-.02l-.69-.22h-.04l-.33-.02.13-99.61,2.45.98.39.78Z"/>
      <path d="M200.93,116.1v6.26l-.69.8-2.15-.87v-5.4l2.47-.61s.04,0,.06-.02l.28-.17h.02Z"/>
      <polygon points="201 126.11 200.76 327.06 200.45 327.39 197.92 326.35 198.16 124.35 200.58 125.33 201 126.11"/>
      <path d="M191.18,118.87l-.46,438.91-4.38-1.86v-3.42l1.39-.35c.11-.04.17-.13.17-.24l.43-432.61,2.45-.59.39.15Z"/>
      <path d="M230.25,74.67l-.04,16.99-4.4-1.76v-.8l1.39-.35c.11-.02.17-.13.17-.22l.02-10.34c0-.09-.02-.15-.09-.19-.02-.02-.04-.02-.06-.02l-1.41-.59v-1.58s0-.07-.02-.11l-.35-.65s-.07-.09-.11-.11L49.08,4.36V1.73l180.89,72.42.28.52Z"/>
      <path d="M220.5,77.07l-.02,5.05-2.84-1.13v-.41c0-.09-.04-.17-.13-.22l-1.43-.56v-1.58s0-.09-.02-.11l-.35-.65c-.02-.07-.07-.11-.11-.11L39.37,6.72v-2.62l180.84,72.46.28.52Z"/>
      <path d="M210.75,79.48l-.02,5.05-2.84-1.15v-.39c0-.11-.04-.2-.15-.22l-1.41-.58v-1.58s-.02-.06-.02-.11l-.35-.65s-.07-.09-.11-.11L29.66,9.06v-2.62l180.8,72.5.28.54Z"/>
      <path d="M200.97,81.86v5.05l-2.84-1.13v-.41c0-.09-.06-.17-.15-.22l-1.43-.56v-1.58s0-.09-.02-.11l-.35-.65c-.02-.06-.07-.09-.11-.11L19.93,11.42v-2.62l180.78,72.55.26.52Z"/>
      <path d="M188.36,97.96v-10.18c0-.09-.04-.17-.15-.22l-1.43-.59v-1.56s0-.09-.02-.11l-.32-.67s-.09-.09-.13-.11L10.21,13.78v-2.64l180.74,72.59.26.54.04,14.84-2.88-1.15Z"/>
      <path d="M248.5,492.76s-.03-.08-.06-.11l-.14-.15s-.09-.07-.15-.07l-.2-.02s-.05,0-.08,0l-7.11,1.84s-.04.01-.06.03l-.2.12s-.06.04-.07.07l-.14.22s-.03.05-.03.08l-.05.27s0,.03,0,.04l-.04,21.07s0,.03,0,.05l.05.23s0,.01,0,.01c0,.04.03.08.06.11l.14.15s.09.06.15.07l.2.02s.01,0,.02,0c.02,0,.04,0,.06,0l7.1-1.85s.04-.01.06-.03l.2-.12s.06-.04.08-.07l.14-.22s.03-.05.03-.08l.05-.27s0-.03,0-.04l.04-21.07s0-.03,0-.05l-.05-.24ZM247.37,493.82s0,0-.01,0l-.3.08h-.13s-.08,0-.08,0l-.04-.03-.13-.35s0-.03,0-.05v-.08s.54-.14.54-.14h.07s.04.04.04.04l.03.15v.38ZM246.17,493.62l-4.3,1.11-.3.08s0,0,0-.01v-.08s4.63-1.2,4.63-1.2l-.03.11ZM244.86,497.17l.63.43v1.62s-.55.19-.55.19l-.46-.03-.38-.16-1.45-.88v-1.68s0-.02,0-.03l-.04-.33s0-.03-.01-.05l-.12-.32s-.02-.04-.03-.05h0s1.43.86,1.43.86c0,0,.02.01.03.02l.95.41ZM241.35,496.98l-.04-.33s0-.04-.01-.05l-.12-.32s-.02-.04-.03-.05l-.18-.25s-.01-.01-.02-.02v-.07c0-.05-.02-.11-.05-.15l-.12-.14s-.05-.05-.08-.06l.02-.08.06-.05.98.41.15.11.14.2.1.26.04.29-.02,13.86-.03.24-.07.12-.09.05-.68.18.03-.21s0-.02,0-.03l.02-13.89s0-.02,0-.03ZM242.24,512.61l-1.22-.66s-.02-.01-.04-.02l-.06-.02v-.19s.84-.22.84-.22l1.07.1.35.12.25.25.08.3-1.27.33ZM242.64,505.11l1.22.74s.02.01.03.02l.95.41.63.43v1.62s-.55.19-.55.19l-.46-.03-.38-.16-1.45-.88v-2.34ZM240.63,514.54l.14.03.02.02.02.1v.49c0,.09.05.18.14.21l.2.09-.51.13h-.02s0-1.08,0-1.08ZM246.65,513.31l-.1-.43s-.02-.04-.03-.06h.01s.07-.08.08-.13l.09-.29.09.02s.03,0,.04,0c0,0,.01,0,.02,0l.43-.04s.02,0,.04,0h.02s0,1.16,0,1.16l-.04.2-.09.14-.12.07-.45.12s.02-.06.02-.1v-.6s0-.04,0-.05ZM247.33,511.89l-.11.03-.38.03-.33-.06-.17-.07-.09.21-.22-.07-.09.28-.21.16.14.19-.09.21.14.06.18.19.08.35v.39s-4.65,1.21-4.65,1.21v-.3s0-.04,0-.06l-.1-.43s-.03-.08-.06-.11l-.25-.27s-.05-.04-.08-.05l-.11-.05v-.91s1.09.57,1.09.57c.03.02.07.02.1.02.02,0,.04,0,.06,0l1.59-.41c.08-.02.14-.08.16-.16l.1-.32s.01-.09,0-.13l-.16-.58s-.03-.07-.06-.1l-.33-.34s-.05-.04-.09-.05l-.42-.15s-.04-.01-.06-.01l-.42-.04.07-.13s.02-.05.03-.08l.04-.3s0-.02,0-.03v-2.56s1.22.74,1.22.74c.01,0,.02.01.03.02l.43.18s.05.02.07.02l.55.03s0,0,.01,0c.03,0,.05,0,.08-.01l.75-.26s.03-.01.05-.02l.19-.12-.08-.13v-1.73s.09-.05.09-.05l-.13-.19.14-.19-.71-.51s-.02-.02-.04-.02l-.85-.38-1.79-1.09v-5.39s1.23.74,1.23.74c0,0,.02.01.03.02l.43.18s.05.02.08.02l.55.03s0,0,.01,0c.03,0,.05,0,.08-.01l.75-.26s.03-.01.05-.02l.19-.12-.08-.13v-1.73s.09-.05.09-.05l-.13-.19.14-.19-.71-.51s-.02-.02-.04-.02l-.87-.38-.08.19-.25-.11-1.92-1.17,1.71-.42c.06-.01.1-.05.13-.09l2.01-.52.03.09h0c.02.06.07.11.13.13l.19.08s.03.01.05.01l.39.07s.03,0,.04,0c0,0,.01,0,.02,0l.43-.04s.02,0,.04,0h.02s-.03,17.41-.03,17.41ZM248.05,514.09l-.04.2-.09.14-.12.07-7.03,1.83h-.07s-.04-.04-.04-.04l-.03-.15v-.06s.02,0,.02,0c0,0,.01,0,.02,0,.02,0,.04,0,.06,0l6.5-1.69s.04-.01.06-.03l.2-.12s.06-.04.07-.07l.14-.22s.03-.05.03-.08l.05-.26s0-.03,0-.05l.04-20.14s0-.03,0-.05l-.05-.24s-.03-.08-.06-.11l-.05-.05.29-.08h.07s.04.04.04.04l.03.15-.04,21.02Z"/>
    </g>
  </g>
</svg>