<?xml version="1.0" encoding="UTF-8"?>
<svg id="Layer_2" data-name="Layer 2" xmlns="http://www.w3.org/2000/svg" viewBox="0 0 203.23 145.99">
  <g id="Layer_1-2" data-name="Layer 1">
    <g>
      <path d="M130.09,82.09l-.1.07.12.18s.02.02.03.03l5.48,4.69s.02.02.03.02l.22.11s.05.02.07.02c.02,0,.04,0,.06-.01l.17-.06s.08-.05.09-.09l.08-.22s0-.03,0-.04l.4-4.64s0-.03,0-.05l-.02-.08s0,0,0,0l-.04-.16-.08.02-.03-.03.06-.07-.2-.17s-.05-.03-.07-.03l-.29-.06s-.02,0-.03,0l-5.57.22s-.02,0-.03,0l-.26.06h0s-.08.04-.1.07l-.08.14.09.05.02.05ZM136.04,86.74l-.05.13h-.04s-.13-.05-.13-.05l-5.36-4.59.09-.02,5.54-.22.23.04.11.1h0s-.4,4.61-.4,4.61Z"/>
      <path d="M106.34,126.91s-.02-.05-.05-.07l-.44-.38c-.06-.05-.14-.05-.2,0l-.61.49.27-.75-.07-.02.02-.06.05-.02-.04-.11s-.02-.05-.05-.07l-.44-.38s-.1-.05-.15-.03l-.03-.1s-.02-.05-.05-.07l-.44-.38s-.09-.05-.14-.03l-.03-.09s-.02-.05-.05-.07l-.44-.38c-.06-.05-.14-.05-.2,0l-.74.6h-.14s.74-.59.74-.59l-.07-.09.03-.03-.02-.02.11-.04-.04-.11s-.02-.05-.05-.07l-.43-.37s-.1-.05-.15-.03l-.03-.1s-.02-.05-.05-.07l-.43-.37c-.06-.05-.14-.05-.2,0l-.21.17.03-.2s0-.04,0-.06l-.06-.24h0s0,0,0,0h0s-.04-.11-.04-.11c0-.01-.01-.03-.02-.04l-.12-.18s-.02-.02-.03-.03l-.17-.15s-.02-.02-.03-.02l-.21-.1s-.02-.01-.04-.01l-.28-.06s-.03,0-.04,0h-.13s-.04-.04-.04-.04l.03-.03-.02-.02.11-.04-.04-.11s-.02-.05-.05-.07l-.44-.38c-.06-.05-.14-.05-.2,0l-.74.6h-.14s.74-.59.74-.59l-.07-.09.03-.03-.02-.02.11-.04-.04-.11s-.02-.05-.05-.07l-.43-.37c-.06-.05-.14-.05-.2,0l-.18.15v-.07s.01-.04,0-.06l-.06-.24h0s0,0,0,0h0s-.04-.11-.04-.11h0s0-.02-.02-.04l-.12-.18s-.02-.02-.03-.03l-.15-.13s-.06-.04-.09-.04c0-.02-.02-.03-.04-.05l-.43-.37c-.06-.05-.14-.05-.2,0l-.13.11v-.07s.02-.05.01-.07l-.06-.24h0s0,0,0,0h0s-.04-.11-.04-.11c0-.01-.01-.03-.02-.04l-.12-.18s-.02-.02-.03-.03l-.17-.15s-.02-.02-.03-.02l-.21-.1s-.02-.01-.04-.01l-.28-.06s-.03,0-.04,0l-.26.02s-.03,0-.04,0l-.22.08s-.02,0-.03.01l-.19.12s-.02.01-.03.02l-.15.15s-.02.02-.02.03l-.1.18s-.02.04-.02.06l-.03.22s0,.04,0,.06l.06.24s0,0,0,.01l.04.11h.02s.02.02.02.02l-.02.02.12.18s.02.02.03.03l.17.15s.02.02.03.02l.21.1s.02.01.04.01l.28.06s.02,0,.03,0c0,0,0,0,.01,0h.06s-.52.42-.52.42c-.05.04-.07.11-.05.17l.04.11s.02.05.05.07l.43.37s.07.04.1.04.07-.01.1-.04l.43-.36.09.15s.04.04.06.05l.21.1s.02.01.04.01l.28.06s.02,0,.03,0c0,0,0,0,.01,0l.26-.02s.01,0,.02,0l-.02.27s0,.04,0,.06l.06.18s0,0,0,0h0s.04.11.04.11h.04s.03.02.03.02l-.04.03.13.14s.03.03.05.03l.21.1s.03.01.05.01h.04s0,.03,0,.03h.04s0-.01,0-.01l.04.04-.04.04.44.38s.07.04.1.04.07-.01.1-.03l.14-.11v.06s-.01.04,0,.06l.06.24s0,0,0,.01l.04.11h.02s.02.02.02.02l-.02.02.12.18s.02.02.03.03l.17.15s.02.02.03.02l.21.11s.02.01.04.01l.07.02s-.06.1-.04.16l.04.11h.04s.04.02.04.02l-.04.04.02.02-.03.03c-.05.04-.07.11-.05.17l.04.11h.04s.04.02.04.02l-.04.04.43.37s.07.04.1.04.07-.01.1-.04l.12-.1.12.11s.07.04.1.04c.03,0,.06,0,.09-.03,0,0,0,0,.01,0h0s.13-.11.13-.11l.04.14s0,0,0,0h0s.04.11.04.11h.04s.03.02.03.02l-.04.03.13.14s.03.03.05.03l.21.1s.03.01.05.01h.04s0,.03,0,.03h.04s0-.01,0-.01l.04.04-.04.04.44.38s-.02.01-.03.02l-.34.28c-.05.04-.07.11-.05.17l.04.11h.04s.04.02.04.02l-.04.04.44.38s.07.04.1.04c.02,0,.04,0,.06-.01l.03.09h.04s.04.02.04.02l-.04.04.44.39s.07.04.1.04.07-.01.1-.04l.61-.5-.28.75s-.01.07,0,.1l.04.11s.02.05.05.07l.44.38s.07.04.1.04c.03,0,.06,0,.09-.03,0,0,0,0,.01,0h0s1.68-1.36,1.68-1.36l-.07-.09.03-.03-.02-.02.11-.04-.04-.11ZM102.87,126.54l-.09.08-.2-.18.09-.08.2.18ZM103.2,126.65h0s.03-.02.03-.02l-.03.02ZM104.57,125.54l-.03.02h0s.03-.02.03-.02ZM104.22,125.45l-.88.71-.2-.18.88-.71.2.18ZM102.58,125.28s.07-.01.09-.03l.68-.55.2.18-.88.71-.21-.18s.03-.08.03-.12h.08ZM102.74,124.14l-.63.51s-.04.04-.04.06l-.07.15.07.03-.03.07h0s-.04.02-.04.02l.04.1-.09-.04-.09-.09-.04-.12v-.21s.08-.12.08-.12l.65-.53.19.16ZM100.82,122.77h.05s0-.01,0-.01l-.03.03-.15.12-.03-.03.11-.08.05-.02ZM100.44,123.48s.02,0,.03-.02l.13-.08-.08-.13.04-.04.03.02c.06.05.14.05.2,0l.25-.2s0,0,.01-.01l.06-.06s.01-.01.02-.02l.05-.07s.02-.03.02-.04l.02-.05.04.15-.02.16-.08.13-.13.13-.17.11-.18.07-.22.02-.14-.03.12-.04ZM100.1,122.8s-.01,0-.02.01c-.01,0-.02.01-.03.02h0s-.1.11-.1.11c0,.01-.02.02-.02.03l-.06.1s-.01.03-.02.05v.05s-.03-.03-.03-.03l-.05-.18.02-.16.08-.14.03-.03.18.16ZM102.45,123.65l-.04.03h-.01s.05-.03.05-.03ZM101.89,123.41l.19.16-.97.79.1.12-.04.05-.03-.02c-.05-.05-.13-.05-.19-.01,0,0,0,0-.01,0h0s-.12.1-.12.1l-.19-.16.08-.06-.1-.12.04-.05.03.02s.07.04.1.04.07-.01.1-.04l1.01-.82ZM100.57,122.36l.09.02-.07.03s-.02.01-.03.02l-.04.03-.1-.09h.15ZM99.11,122.26s.07-.01.09-.03l.68-.55.2.18-.88.71-.21-.18s.03-.08.03-.12h.08ZM99.08,120.96l.19.16-.63.51s-.03.04-.04.06l-.07.15s-.02.08,0,.12l.04.1-.09-.04-.09-.09-.04-.12v-.21s.08-.12.08-.12l.65-.53ZM97.55,120.8l.03-.04.4-.32.05-.02h.05s-.2.18-.2.18l-.28.19-.04.02ZM97.71,121.08s.02,0,.03-.02l.13-.08s0,0,0,0l.18-.12s.01,0,.02-.01l.18-.16s0,0,0,0l.06-.06s.01-.01.02-.02l.05-.07s.02-.03.02-.04l.02-.05.04.15-.02.16-.08.14-.07.08-.16.1-.18.07-.22.02-.14-.03.12-.04ZM97.73,119.79l.24.21h-.07s-.02.02-.04.03l-.08.04s-.02.01-.03.02l-.14.11s0,0,0,0l-.28.23s-.01,0-.02.01l-.1.11s-.02.02-.02.03l-.06.1s-.01.03-.02.05v.08s-.03,0-.03,0l-.1-.12-.51.42-.19-.16,1.43-1.16ZM96.19,119.64l.03-.04.46-.37.05-.02h.05s-.03.02-.03.02l-.25.19s0,0,0,0l-.16.13-.11.07h-.04ZM96.35,119.91s.02,0,.03-.02l.13-.08s.01,0,.02-.01l.42-.33s0,0,.01-.01l.06-.06s.01-.01.02-.02l.05-.07s.02-.03.02-.04l.02-.05.04.15-.02.16-.08.13-.13.13-.17.11-.18.07-.22.02-.14-.03.11-.04ZM95.72,119.24l.08-.14.12-.13.16-.1.18-.07.22-.02.09.02-.07.03s-.02.01-.03.02l-.14.11s0,0,0,0l-.34.28s-.01,0-.02.01l-.1.11s-.02.02-.02.03l-.06.1s-.01.03-.02.05v.05s-.03-.03-.03-.03l-.05-.18.02-.16ZM104.77,126.5l-.15-.05-.1-.12-1.07.87-.2-.18,1.43-1.16.26.23-.5,1.38.15.05.1.12,1.05-.85.2.18-1.43,1.16-.26-.23.51-1.39Z"/>
      <path d="M91.17,117.02l.06.15.7-.27-.06-.15.11-.11-.21-.2h0s-.04-.03-.07-.04c-.05-.01-.11,0-.15.04l-.48.48.11.11Z"/>
      <path d="M105.8,142.73l-.54.11-.51-.07-.44-.24-.15.27.46.26s.04.02.06.02l.57.07s.01,0,.02,0c.01,0,.02,0,.03,0l.59-.12s.03,0,.05-.02l.52-.3-.16-.27-.5.28Z"/>
      <path d="M158.67,56.43l-.15-.19s-.02-.02-.02-.03l-4.1-3.36s-.02-.01-.03-.02l-.28-.13s-.04-.02-.07-.02h-.32s-.05,0-.07.02l-.27.14s-.02.01-.03.02l-3.96,3.42s-.02.02-.03.03l-.14.2s-.04.11-.01.16l.07.14s0,0,0,0c.02.04.06.07.11.08l.26.05s.02,0,.03,0c0,0,0,0,0,0l8.56-.07s.02,0,.03,0l.26-.05s.09-.04.11-.09l.07-.14c.02-.05.02-.11-.02-.16,0,0,0,0,0,0ZM158.2,56.57l-8.53.07h-.05s3.88-3.36,3.88-3.36l.22-.11h.24s.22.1.22.1l4.03,3.3h-.02Z"/>
      <path d="M173.77,100.96h-.7c-.08,0-.15.07-.16.16v.1s0,0,0,0h0s0,0,0,0l.02.73-.71-.92s-.08-.06-.12-.06h-.7c-.08,0-.15.07-.15.16v.1s0,0,0,0h0s0,0,0,0l.04,1.91h0s.02.08.04.11c.03.03.07.05.11.05h.7s0-.1,0-.1h0s0-.06,0-.06h.15s0-.09,0-.09c0,0,0,0,0,0l-.02-.74.71.93s.08.06.12.06h.7s0-.1,0-.1h0s0-.06,0-.06h.15s0-.09,0-.09c0,0,0,0,0-.01l-.04-1.91c0-.08-.07-.15-.16-.15ZM172.98,102.53s.08.06.12.06c.02,0,.03,0,.05,0,.06-.02.11-.08.1-.15l-.03-1.15h.38s.04,1.6.04,1.6h-.46s-.96-1.26-.96-1.26l-.12.09h-.16s.03,1.18.03,1.18h-.38s-.04-1.6-.04-1.6h.46s.96,1.24.96,1.24Z"/>
      <path d="M171.12,102.52h.11s0-.1,0-.1c0,0,0,0,0,0l-.03-1.28c0-.08-.07-.15-.16-.15h-.7c-.08,0-.15.07-.16.16v.1s0,0,0,0h0s0,0,0,0l.03,1.28s0,.06.02.08c0,.02-.01.04-.02.06v.1s0,0,0,0h0s0,0,0,0v.39c.01.09.08.15.17.15h.7s0-.1,0-.1h0s0-.06,0-.06h.15s0-.09,0-.09c0,0,0,0,0-.01v-.39c-.01-.07-.06-.13-.12-.15ZM170.55,102.9v-.08s.38,0,.38,0v.08s-.38,0-.38,0ZM170.92,102.26h-.38s-.02-.97-.02-.97h.38s.02.97.02.97Z"/>
      <path d="M203.22,48.76l-.18-.47s-.02-.04-.03-.05l-.37-.41s-.01-.01-.02-.02l-3.45-2.66c-.06-.05-.15-.04-.2,0l-.47.43-.35-.27.24-.64c.02-.06,0-.14-.05-.18l-.84-.65c-.06-.05-.14-.04-.2,0l-.47.43-.35-.27.23-.64c.02-.06,0-.14-.05-.18l-.84-.64c-.06-.05-.14-.04-.2,0l-.47.43-.34-.27.23-.64c.02-.06,0-.14-.05-.18l-.84-.64c-.06-.05-.14-.04-.2,0l-.47.43-.34-.27.23-.64c.02-.06,0-.14-.05-.18l-.84-.64c-.06-.05-.14-.04-.2,0l-.47.43-.34-.26.23-.64c.02-.06,0-.14-.05-.18l-10.44-8.05c-.06-.05-.14-.04-.2,0l-.88.8-30.99-23.9s-.05-.03-.08-.03l-.87-.12s-.09,0-.12.04l-.23.21-2.32-6.46s0-.02-.02-.03l-.24-.38s-.02-.03-.04-.04l-.42-.33s-.02-.02-.04-.02l-.53-.23s-.02,0-.04-.01l-.56-.09s-.01,0-.02,0l-4.15-.12c-.07,0-.13.04-.15.11l-.21.64h-.26s-.24-.67-.24-.67c-.02-.06-.08-.1-.14-.1l-1.01-.03s0,0,0,0c-.07,0-.13.04-.15.11l-.21.64h-.26s-.24-.67-.24-.67c-.02-.06-.08-.1-.14-.1l-1.01-.03c-.07,0-.13.04-.15.11l-.21.64h-.26s-.24-.67-.24-.67c-.02-.06-.08-.1-.14-.1l-1.01-.03c-.07,0-.13.04-.15.11l-.21.64h-.26s-.24-.67-.24-.67c-.02-.06-.08-.1-.14-.1l-1.01-.03c-.07,0-.13.04-.15.11l-.21.64h-.26s-.24-.67-.24-.67c-.02-.06-.08-.1-.14-.1L117.74,0c-.07,0-.13.04-.15.11l-.43,1.3L79.62.37s-.02,0-.03,0l-1.01.16c-.07.01-.12.07-.13.14v.13s-.01.05,0,.07l.17.45h-.28c-.07.01-.12.06-.14.12l-1.13,3.52s-.01.07,0,.1l1.56,4.57-21.87-7.07s-.01,0-.02,0l-.56-.12s-.02,0-.03,0h-.57s-.02,0-.04,0l-.49.11s-.03.01-.05.02l-.34.21s-.02.01-.03.02l-1.86,1.87s-.04.06-.04.09l-.05.39-.2-.07c-.06-.02-.12,0-.16.04l-.45.45s-.04.06-.04.09l-.04.39-.2-.07c-.06-.02-.12,0-.16.04l-.45.45s-.04.06-.04.09l-.05.39-.21-.07c-.06-.02-.12,0-.16.04l-.45.46s-.04.06-.04.09l-.05.39-.21-.07c-.06-.02-.12,0-.16.04l-.45.46s-.04.06-.04.09l-.05.39-.21-.07c-.06-.02-.12,0-.16.04l-5.7,5.72s-.04.06-.04.09l-.21,1.8-17.48,17.55s-.05.08-.04.12c0,.05.03.09.06.11l.13.09s.02.01.02.02l.21.1-.48.48s-.04.06-.04.09l-.04.34s0,0,0,0l-.02.17s0,0,0,0l-.4,3.58c0,.07.04.14.11.17l6.05,1.98L.98,51.36s-.01,0-.02,0l-.47.23s-.03.02-.04.03l-.31.29s-.03.04-.04.07l-.1.31s0,.05,0,.07h0s.27,1.85.27,1.85c0,.02,0,.03.01.04l.13.28s.02.03.03.04l.11.11h0s-.03.04-.04.07l-.1.31s0,.05,0,.07l.61,4.16s0,.03.01.04l.13.28s.02.03.03.04l1.83,1.91s.07.05.11.05c.02,0,.03,0,.05,0l.18-.06.06.4s.02.06.04.09l.45.47s.07.05.11.05c.02,0,.03,0,.05,0l.18-.06.06.4s.02.06.04.09l.45.47s.07.05.11.05c.02,0,.03,0,.05,0l.18-.06.06.4s.02.06.04.09l.45.47s.07.05.11.05c.02,0,.03,0,.05,0l.18-.06.06.4s.02.06.04.09l.45.47s.07.05.11.05c.02,0,.03,0,.05,0l.18-.06.06.4s.02.06.04.09l18.33,19.15s.07.05.11.05c0,0,.01,0,.02,0l3.32,3.47-8.13,24.83s0,.03,0,.04l-.02.4s0,.04,0,.06l.57,1.59s0,.02.01.03l.2.34s.03.04.06.06h.02s-.02.32-.02.32c0,.02,0,.04,0,.06l1.28,3.59s0,.02.01.03l.2.33s.03.04.06.06l.39.21s.04.02.06.02l.52.06s.01,0,.02,0c0,0,0,0,0,0l4.28-.14c.07,0,.12-.05.14-.11l.09-.28.56-.02.1.27c.02.06.08.1.15.1,0,0,0,0,0,0l1.04-.03c.07,0,.12-.05.14-.11l.09-.28.56-.02.09.27c.02.06.08.1.15.1,0,0,0,0,0,0l1.04-.03c.07,0,.12-.05.14-.11l.09-.28.56-.02.09.27c.02.06.08.1.15.1,0,0,0,0,0,0l1.04-.03c.07,0,.12-.05.14-.11l.09-.28.56-.02.09.27c.02.06.08.1.15.1,0,0,0,0,0,0l1.04-.03c.07,0,.12-.05.14-.11l.09-.28.56-.02.09.27c.02.06.08.1.15.1,0,0,0,0,0,0l36.76-1.2.23.2s.06.04.1.04l2.2,1.93.02.05s.02.04.04.06l18.74,16.4s.06.04.1.04l2.12,1.85v.03s.03.05.06.07l7.03,6.15s.02.01.03.02l.46.25s.04.02.06.02l.57.07s.01,0,.02,0c.01,0,.02,0,.03,0l.59-.12s.03,0,.05-.02l.52-.3s.01,0,.02-.01l3.43-2.8c.05-.04.07-.11.05-.17l-.12-.36.45-.37.25.22c.06.05.14.05.2,0l.83-.68c.05-.04.07-.11.05-.17l-.12-.36.45-.37.25.22c.06.05.14.05.2,0l.83-.68c.05-.04.07-.11.05-.17l-.12-.36.45-.37.25.22c.06.05.14.05.2,0l.83-.68c.05-.04.07-.11.05-.17l-.12-.36.45-.37.25.22c.06.05.14.05.2,0l.83-.68c.05-.04.07-.11.05-.17l-.12-.36.45-.37.25.22c.06.05.14.05.2,0l24.7-20.15,27.41-.21c.05,0,.1-.03.12-.06l3.33-.03s.07.06.12.06h0l11.04-.09s.02,0,.03,0l.58-.1s.04,0,.05-.02l.49-.29s.03-.02.05-.04l.32-.43s.02-.04.03-.06l.1-.5s0-.02,0-.03l.1-2.52s0,0,0-.01v-.38s.02-.14.02-.14c0,0,0-.02,0-.03l.05-1.12h0s0,0,0-.01l-.1-3.92s-.02-.09-.06-.12l.03-.82s0,0,0-.01l-.02-.95s-.02-.09-.06-.12l.03-.82s0,0,0-.01l-.02-.95s-.02-.09-.06-.12l.03-.82s0,0,0,0l-.02-.95s-.02-.09-.06-.12l.03-.82s0,0,0-.01l-.02-.95s-.02-.09-.06-.12l.03-.82s0,0,0,0l-.3-11.84c0-.06-.03-.1-.08-.13l-.44-17.42,6.66-6.1s.03-.04.04-.06v-.04s1.99-1.81,1.99-1.81c.03,0,.07-.02.1-.04l6.54-5.99s.02-.02.02-.03l.26-.38s.01-.02.02-.03l1.06-2.87s0-.03,0-.04l.03-.29.18-.27s.01-.02.02-.03l.47-1.28h0s0-.03,0-.04l.04-.46s0-.05,0-.07ZM197.8,45.46l.46.35-3.83,3.5-.19-.6,3.57-3.26ZM196.13,44.17l.46.35-3.08,2.81-.36-.45,2.98-2.72ZM194.46,42.88l.46.35-2.83,2.58-.46-.36,2.83-2.58ZM192.78,41.59l.46.35-2.94,2.68-.56-.26,3.04-2.77ZM191.11,40.3l.46.35-3.48,3.16-.72-.11,3.74-3.4ZM148.22,8.39l.76.1,30.91,23.84-.19.18.21.23,1.21-1.1,10.19,7.86-4.59,4.18.11.12-.02.15,1.32.2s.02,0,.02,0c.04,0,.08-.01.11-.04l4.14-3.77.58.45-1.66,1.51s0,0,0,0l-2.12,1.93.11.12-.07.14,1.02.48s.04.01.07.01c.04,0,.08-.01.11-.04l3.63-3.3.58.45-3.5,3.19.11.12-.1.12.83.65s.06.03.1.03c.04,0,.08-.01.11-.04l3.54-3.23.59.45-3.59,3.27.11.12-.12.1.65.81s.07.05.11.06c0,0,0,0,.01,0,.04,0,.08-.01.11-.04l3.81-3.48.59.45-4.1,3.74.11.12-.15.05.35,1.09c.02.05.06.09.11.1.05.01.11,0,.15-.04l4.62-4.22,3.33,2.57.35.37.16.41-.04.39-.23.34-16.95,15.51-.34-13.5s0-.02,0-.02h0s.02,0,.03,0c.03,0,.07-.01.09-.03l.09.03-.02.02.03.02-.07.09.34.26s.06.03.1.03c.04,0,.08-.01.11-.04l.41-.38-.04-.04.04-.04h.04s.04-.08.04-.08c0,0,.01,0,.02,0,.04,0,.08-.01.11-.04l.41-.38-.04-.04.04-.04h.04s.04-.1.04-.1c.02-.06,0-.14-.05-.18l-.41-.32.82.18s.02,0,.03,0c.04,0,.08-.01.11-.04l.41-.38-.04-.04.04-.04h.04s.04-.1.04-.1c.02-.06,0-.14-.05-.18l-1.68-1.3c-.06-.05-.14-.04-.2,0l-.41.38s-.03.04-.04.06l-.04.11.11.04-.02.02.03.02-.07.09.4.31-.81-.17s-.1,0-.14.04l-.41.38s-.03.04-.04.06l-.03.09s-.1,0-.14.04l-.41.38s-.03.04-.04.06l-.03.08s-.09,0-.13.04l-.2.19-.65-.34s-.05-.02-.07-.02c0,0,0,0,0,0l-8.66.07,1.12-1.02h0s2.13-1.93,2.13-1.93c0,0,0,0,0,0l6.48-5.89s.06-.09.05-.14l-.09-.62s-.03-.08-.06-.1l-31.96-24.2s-.06-.03-.09-.03l-.75-.03s-.08.01-.11.04l-28.27,25.31s-.06.09-.05.14l.08.62s.03.08.06.1l10.4,8.06-8.34.06s-.05,0-.07.02l-1.46.76-12.1-9.39.06-.08h0s0,0,0,0h0s1.62-2.26,1.62-2.26l25.83-23.06s0,0,0,0l7.73-6.9,1.59-1.42ZM202.18,50.84l-11.27,10.31s0,0,0,0l-5.19,4.75v-.42s16.86-15.43,16.86-15.43l-.16.43-.24.35ZM187.56,50.04l-.42-.09s.07-.04.09-.08c.03-.07.01-.14-.05-.19l-1.01-.78.18-.16,1.43,1.11-.22.2ZM185.85,49.83l-.1.12,1.03.79-.18.16-1.43-1.11.22-.2.49.1-.03.12ZM185.99,51.49l-.09-.07.18-.16.09.07-.18.16ZM185.6,50.89l-.18.16-.88-.68.18-.16.88.68ZM184.24,50.88l-.16-.08.02-.02.13.1ZM134.73,50.65l-9.82-7.62-.12-.23-.06-.39.17-.34,17.47-15.65s0,0,0,0l9.28-8.32.27-.11.46.06.35.18,28.91,22.31.27.31.04.33-.17.38-9.7,8.81-37.35.29ZM182.02,41.77s.03-.03.04-.05l.2-.45s.02-.05.01-.08l-.05-.42s-.02-.06-.04-.08l-.31-.36s-.01-.02-.02-.02l-28.93-22.33s-.02-.01-.02-.02l-.38-.19s-.03-.01-.05-.02l-.52-.07s-.05,0-.08.01l-.33.14s-.03.02-.05.03l-9.31,8.34s0,0,0,0l-17.49,15.67s-.03.03-.04.05l-.21.41s-.02.06-.02.09l.07.47s0,.04.02.05l.15.28s.02.04.04.05l9.53,7.39h-.37s-10.66-8.27-10.66-8.27l-.04-.32,20.19-18.08s0,0,0,0l7.85-7.03.63.02,24.76,18.64,7.11,5.49.05.32-6.3,5.73s0,0,0,0l-2.13,1.93s0,0,0,0l-1.38,1.26h-1.38s9.46-8.58,9.46-8.58ZM130.24,59.1l.43-.38,46.57-.36.46.38.77,18.93.51,15.04.04,1.48-.43.38-22.99.18-.84-.71,22.21-.17s.03,0,.04,0l.6-.18s.04-.02.05-.03l.37-.31s.04-.05.05-.08l.11-.43s0-.03,0-.04l-.78-32.7s0-.03,0-.04l-.11-.36s-.02-.05-.04-.06l-.35-.36s-.04-.03-.07-.04l-.4-.11s-.03,0-.04,0l-44.28.34s-.03,0-.04,0l-.55.15s-.04.02-.06.03l-.4.36s-.02.03-.03.04l-.15.28s-.02.05-.02.08l.22,13.44-.62-.53-.24-14.2ZM131.42,74.09l-.23-13.68.12-.22.36-.32.5-.14,44.24-.34.33.09.29.3.09.3.78,32.66-.09.36-.31.26-.55.17-22.55.18-22.99-19.63ZM157.11,96.45l.52.7h0s1.21,1.65,1.21,1.65l-31.24,25.48-.35-1.05s-.02-.05-.05-.07l-.93-.81s0,0,0,0l-.48-.41-.2.24.48.41s0,0,0,0l.79.69-10.17,8.29-4.99-4.34h0s-.07-.04-.11-.04c-.07,0-.13.05-.15.11l-.31,1.13.15.04-.1.12,3.63,3.16s0,0,0,0l.79.69-.59.48-4.11-3.58h0s-.05-.03-.08-.04c-.06,0-.12.01-.15.06l-.63.86.13.09-.1.12,3.08,2.68s0,0,0,0l.79.69-.59.48-3.81-3.32h0s-.04-.03-.06-.03c-.05-.01-.1,0-.14.03l-.84.67.1.12-.1.12,2.99,2.6s0,0,0,0l.79.69-.59.48-3.92-3.41h0s-.03-.02-.04-.03c-.04-.02-.09-.02-.13,0l-1.03.51.07.14-.1.12,3.28,2.86s0,0,0,0l.79.69-.59.48-4.46-3.89s-.08-.04-.13-.04l-1.36.23.03.15-.1.12,4.94,4.31-3.29,2.68-.48.28-.54.11-.51-.07-.42-.23-25.13-21.97,1.59-.05s.06-.01.09-.03l.09-.07,10.17-.33s.07-.01.09-.03c0,0,.01,0,.02,0,.02,0,.04,0,.06-.01l1.79-.7.02.06s.02.05.04.07l.87.78s.07.04.1.04c.03,0,.06,0,.08-.02l.58-.37-.06-.09h.02s-.02-.05-.02-.05l.12-.04.03.05v.1s-.04.13-.04.13l-.07.1-.11.1-.14.11-.3.11-.25.04h-.27s-.25-.05-.25-.05l-.24-.09-.21-.11-.16-.13-.15-.14-.16-.23c-.05-.07-.14-.09-.21-.05l-.62.37c-.06.04-.09.11-.07.18l.04.11h.02s.02.02.02.02l-.02.02.17.24s.01.02.02.02l.23.23s0,0,.01.01l.25.2s.01,0,.02.01l.32.18s.01,0,.02,0l.37.15s.02,0,.03,0l.43.07s.02,0,.03,0h.45s.02,0,.03,0l.49-.11s.02,0,.02,0l.44-.18s.02,0,.03-.01l.34-.21s.02-.01.03-.02l.26-.26s.02-.02.02-.03l.19-.33s.01-.03.02-.05l.08-.39s0-.03,0-.05l-.03-.38h-.03s0-.03,0-.03h.02s-.04-.11-.04-.11h0s0-.02-.02-.03l-.23-.36s-.01-.02-.02-.03l-.3-.29s-.02-.02-.03-.02l-.32-.18s-.01,0-.02-.01l-.09-.03v-.03s-.03-.05-.06-.07l-.53-.46s-.1-.05-.16-.03l-.96.36-.15-.14.53-.56-.07-.07.04-.04-.02-.02.09-.03-.04-.11s-.02-.05-.05-.07l-.84-.73s-.11-.05-.17-.03l-.18.08,2.24-7.24,20.59,17.88s.06.04.1.04c0,0,0,0,0,0l.77-.03s.07-.01.09-.03l31.28-25.97s.05-.06.06-.11l.06-.64h-.13s-.02-.03-.02-.03l.09-.11-29.92-25.62s-.07-.04-.11-.04l-.76.04s-.07.01-.09.03l-15.52,12.57.16.2-.29.24.1.12-.15-.05-9.8,31.72-1.05-3.06s-.01-.03-.02-.04l-.39-.56h.01s.07-.02.1-.05l.09-.09s.03-.04.04-.07l.19-.69.2.11.94,2.75.15-.05.15.05.71-2.31s0-.07,0-.1l-.26-.75,10.91-35.28.11.34.15-.05.15.05.7-2.26s0-.06,0-.1h0s-.94-2.8-.94-2.8c-.01-.04-.04-.07-.07-.09l-.49-.28.25-.28s.03-.04.03-.06l.21-.6h.26s1.13,3.36,1.13,3.36l-.87,2.83.15.05.1.12,15.93-12.89.86-.08,37.21,31.77ZM161.29,101.67v-.02s.03-.03.03-.03l.04-.02h.03s.04,0,.04,0h.03s.04.03.04.03l.02.03v.03s.03.22.03.22v.1s-.03.1-.03.1l-.03.06-.04.04h-.02s-.02,0-.02,0h-.02s-.04-.05-.04-.05l-.03-.06-.02-.09v-.3s0-.03,0-.03ZM164.03,102.31s-.03-.08-.07-.1h.01s-.1-.13-.1-.13h.15s0,0,0,0h0s-.02-.73-.02-.73h.38s.02.97.02.97h-.39ZM163.37,102.39h-.18s-.17-.08-.17-.08l-.2-.16-.06-.11v-.69s.34,0,.34,0l.02.73s0,.06.03.08l.09.14s.05.05.08.06l.08.03h-.02ZM162.19,101.97l-.06.13-.14.13-.23.11h-.02s0,0,.01-.01l.05-.1s.01-.03.02-.05l.02-.13s0,0,0-.01l.02-.19s0-.02,0-.03l-.02-.21s0,0,0,0v-.08s-.02-.02-.02-.03l-.03-.07s0-.01,0-.02l.18.08.14.13.07.14.02.08-.02.15ZM161.01,101.43l-.02.07s0,.03,0,.05v.16s0,0,0,0v.32s0,.02,0,.03l.03.13s0,.03.02.05l.03.05s-.07.08-.07.13v.11s0,0,0,0v.44s-.34,0-.34,0l-.03-1.6h.37s.02.04.04.05c0,0,0,0,0,.01ZM159.95,102.2l-7.97,6.5s-.03.03-.04.04l-.09.15-33.52,27.34-.78-2.31-.15.05-.1-.12.09-.07h0s0,0,0,0c.06-.05.07-.14.02-.21l-.29-.39s.03-.02.05-.03h0s10.41-8.49,10.41-8.49h0l30.97-25.25.54.18.58,1.83s0,0,0,0l.25.79ZM186.56,111.55l-.09.46-.28.38-.44.26-.54.1-37.94.3,1-.82,37-.29s.02,0,.03,0l.58-.1s.04,0,.05-.02l.49-.29s.03-.02.05-.04l.11-.14v.21ZM78.1,118.7l25.39,22.2s.02.01.03.02l.46.25s.04.02.06.02l.57.07s.01,0,.02,0c.01,0,.02,0,.03,0l.59-.12s.03,0,.05-.02l.52-.3s.01,0,.02-.01l3.26-2.66.32.95-3.34,2.72-.49.28-.54.11-.51-.07-.42-.23-26.52-23.19.51-.02ZM109.31,137.84s-.01-.03-.02-.04l.39-.32.21.63-.38.31-.2-.58ZM110.11,138.21l-.04-.05.07-.03.05.15-.08-.07ZM105.33,133.41v.02s-.88.15-.88.15h-.02s.9-.16.9-.16ZM105.5,133.71l4.01,3.5-.46.37h0s0,0,0,0l-4.29-3.75.74-.12ZM109.74,139.1l-.12-.36.27-.22.27.37s.01.02.02.03l.21.19-.56.46-.19-.25.04-.03c.05-.04.07-.11.05-.17ZM110.5,138.21l-.32-.95.58-.47.32.95-.15.12s0,0,0,0l-.42.35ZM110.98,136.48s-.01-.03-.02-.04l.39-.32.21.63-.38.31-.2-.58ZM111.78,136.85l-.04-.05.07-.03.05.15-.08-.07ZM107.56,132.57v.02s-.65.32-.65.32h-.01s.66-.34.66-.34ZM107.73,132.85l3.44,3-.46.37-.72-.63s0,0,0,0l-2.83-2.47.56-.28ZM111.41,137.74l-.12-.36.27-.22.27.37s.01.02.02.02l.21.19-.56.46-.19-.25.04-.03c.05-.04.07-.11.05-.17ZM112.17,136.85l-.32-.95.58-.47.32.95-.58.47ZM112.65,135.11s-.01-.03-.02-.04l.39-.32.21.63-.38.31-.2-.58ZM113.52,135.55l-.07-.06-.04-.05.08-.03.05.15h-.02ZM109.34,131.34h0s-.52.42-.52.42h0s.52-.42.52-.42ZM109.52,131.59l3.32,2.89-.46.37-.72-.62h0s-2.61-2.27-2.61-2.27l.46-.37ZM113.08,136.38l-.12-.36.27-.22.27.37s.01.02.02.02l.21.19-.56.46-.19-.25.04-.03c.05-.04.07-.11.05-.17ZM113.84,135.48l-.32-.95.58-.47.32.95-.58.47ZM114.32,133.75s-.01-.03-.02-.04l.39-.32.21.63-.38.31-.2-.58ZM115.12,134.14l-.05-.06.08-.03.05.15-.08-.07ZM110.92,130l3.59,3.13-.46.37-.72-.62s0,0,0,0l-2.76-2.41.35-.47ZM114.74,135.02l-.12-.36.27-.22.27.37s.01.02.02.03l.21.19-.56.46-.18-.25.04-.03c.05-.04.07-.11.05-.17ZM115.51,134.12l-.32-.95.58-.47.32.95-.58.47ZM127.01,123.53l.31.95-10.15,8.28-.32-.95,10.16-8.28ZM115.99,132.39s-.01-.03-.02-.04l.39-.31.21.63-.38.31-.2-.58ZM116.87,132.85l-.08-.07-.05-.06.08-.03.05.15ZM111.78,127.94l4.41,3.83-.46.37-.72-.63s0,0,0,0l-3.4-2.96.17-.62ZM116.41,133.66l-.12-.36.27-.22.27.37s.01.02.02.02l.21.19-.56.46-.18-.25.04-.03c.05-.04.07-.11.05-.17ZM91.2,116.29l.83-.83c.05-.05.06-.14.02-.2-.04-.06-.12-.08-.19-.05l-.37.17.13-.41.34-.15.64.56-.57.6.11.11-.11.12.42.38s.11.05.16.03l.96-.36.43.37h0s-.04.1-.04.1l.29.11.29.17.27.26.2.31.03.31-.07.34-.17.29-.23.24-.31.19-.42.17-.46.1h-.43s-.4-.06-.4-.06l-.34-.14-.3-.17-.24-.18-.21-.21-.07-.1.35-.21.08.12s.01.02.02.02l.16.16s0,0,.01.01l.18.14s.02.01.03.02l.23.12s0,0,.01,0l.26.1s.02,0,.03,0l.28.05s.02,0,.03,0h.31s0,0,0,0c0,0,.02,0,.03,0l.28-.05s.02,0,.03,0l.34-.13s.03-.01.04-.03l.15-.12s0,0,0,0l.14-.13s.02-.02.02-.03l.09-.14s.01-.03.02-.04l.06-.18s0-.03,0-.05v-.23s-.08,0-.08,0l.05-.03-.03-.04.03-.02-.13-.19s0,0-.01-.01l-.14-.16s-.03-.03-.05-.04l-.28-.13h0s0,0-.01,0c-.05-.02-.1,0-.14.02l-.22.14.09.13-.1.12.24.2-.3.19-.63-.57.74-.48-.09-.13-.06-.15-2.67,1.04.43-1.38ZM100.19,87.2l15.41-12.48.3-.09.52-.03.43.17,11.79,10.1s0,0,0,0l16.53,14.17.11.22-.08.36-.22.28-28.8,23.46-.41.22h-.45s-.49-.18-.49-.18l-20.37-17.68,5.72-18.51ZM94.37,106.03l20.28,17.61s.03.02.05.03l.54.21s.04.01.06.01c0,0,0,0,0,0h.51s.05-.02.07-.03l.46-.24s.02-.01.03-.02l28.83-23.48s.02-.01.02-.02l.26-.32s.03-.04.03-.06l.1-.45s0-.07-.01-.11l-.16-.3s-.02-.03-.04-.05l-16.56-14.19s0,0,0,0l-11.81-10.12s-.03-.02-.04-.03l-.49-.2s-.04-.01-.07-.01l-.57.03s-.03,0-.04,0l-.35.11s-.04.02-.05.03l-15.07,12.2.22-.7,15.66-12.68.65-.03,29.71,25.44-.03.32-24.09,20.11-7.1,5.78-.65.03-20.65-17.93.3-.97ZM89.1,110.61l6.3-20.31s0,0,0,0l6.17-19.89.74.07-.31.88-.12-.37-.15.05-.15-.05-3.45,11.13s0,0,0,0l-9.01,29.07v-.59ZM31.98,87.69l-.44-3.08s0-.03-.01-.04l-.26-.63.11-.16s.03-.07.03-.11l-.03-.18,3.17,3.3-2.57.89ZM85.12,65.07s0,0,0,0l-.08.05-.09.03s0,0-.01,0l-.99.35-.12-.91-.15.02-.05-.15-31.13,10.76s0,0,0,0l-21.4,7.4c-.07.02-.11.1-.1.17l.12.85-.02-.04-1.46.55,1.48-2.19,52.43-18.12,1.93,1.03-.33.19ZM81.52,70.55l-.1-.74s-.02-.07-.04-.09l-.26-.27.08-.03c.07-.02.11-.09.1-.17l-.07-.49s-.02-.07-.04-.09l-2.25-2.27,1.41-.49,3.72,3.75-2.54.88ZM78.61,66.52l2.18,2.2-.21.07v-.09s-.03-.06-.06-.09l-2.03-2.05.12-.04ZM51.81,78.75v-.02s.06,0,.06,0h0s-.06.03-.06.03ZM73.4,71.28h0s.06-.02.06-.02l-.06.02ZM78.16,66.68l1.96,1.98-.92.32-1.96-1.98.92-.32ZM76.73,67.17l1.96,1.98-.92.32-1.96-1.98.92-.32ZM75.29,67.67l1.96,1.98-.92.32-1.96-1.98.92-.32ZM73.86,68.16l1.96,1.98-.92.32-1.96-1.98.92-.32ZM72.42,68.66l1.96,1.98-.92.32-1.96-1.99.92-.32ZM70.99,69.16l1.96,1.99-.92.32-1.96-1.99.92-.32ZM69.55,69.65l1.96,1.99-.92.32-1.96-1.99.92-.32ZM68.12,70.15l1.96,1.99-.92.32-1.96-1.99.92-.32ZM66.68,70.64l1.95,1.99-.92.32-1.95-1.99.92-.32ZM65.24,71.14l1.95,1.99-.92.32-1.95-1.99.92-.32ZM63.81,71.64l1.95,1.99-.92.32-1.95-1.99.92-.32ZM62.37,72.14l1.95,1.99-.92.32-1.95-1.99.92-.32ZM60.93,72.63l1.95,1.99-.93.32-1.95-1.99.92-.32ZM59.49,73.13l1.95,1.99-.93.32-1.95-1.99.92-.32ZM58.05,73.63l1.95,1.99-.93.32-1.95-1.99.92-.32ZM56.61,74.12l1.95,1.99-.93.32-1.95-1.99.93-.32ZM55.17,74.62l1.95,1.99-.93.32-1.95-1.99.93-.32ZM53.73,75.12l1.95,1.99-.93.32-1.94-2,.93-.32ZM52.29,75.62l1.94,2-.93.32-1.94-2,.93-.32ZM50.85,76.11l1.94,2-.93.32-1.94-2,.93-.32ZM49.41,76.61l1.94,2-.93.32-1.94-2,.93-.32ZM47.97,77.11l1.94,2-.93.32-1.94-2,.93-.32ZM46.53,77.61l1.94,2-.93.32-1.94-2,.93-.32ZM45.09,78.11l1.94,2-.93.32-1.94-2,.93-.32ZM43.64,78.61l1.94,2-.93.32-1.94-2,.93-.32ZM42.2,79.11l1.94,2-.93.32-1.94-2,.93-.32ZM40.76,79.6l1.94,2-.74.26s0,0,0,0l-.19.07-1.93-2,.93-.32ZM39.31,80.1l1.93,2-.93.32-1.93-2,.93-.32ZM37.87,80.6l1.93,2-.93.32-1.93-2,.93-.32ZM36.42,81.1l1.93,2-.93.32-1.93-2,.93-.32ZM34.98,81.6l1.93,2-.93.32-1.93-2.01.93-.32ZM33.53,82.1l1.93,2.01-.93.32-1.93-2.01.93-.32ZM34.59,85.22l-.02-.17,5.77-1.99s0,0,0,0l40.61-14.05.02.17-46.38,16.04ZM80.67,65.81l2.05-.71.76.76.28.65.37,2.78-3.46-3.49ZM83.53,64.82l.09.68-.03.03-.55-.55.48-.17ZM31.31,82.97v-.1s.17-.06.17-.06l3.08,3.2.06.4-3.31-3.44ZM34.75,85.76l-.19-.2,46.22-15.99.19.2-46.23,15.99ZM81.13,70.04l.1.74.15-.02.02.05-2.81.1,2.54-.88ZM84.4,69.89c.05-.02.09-.06.1-.11,0-.02,0-.04,0-.06h0s-.44-3.26-.44-3.26c0-.01,0-.03-.01-.04l-.23-.55,1.19-.42h.05s.67.44.67.44l.52,3.89-2.78.96-1.73.06,2.65-.92ZM86.48,70.03c.07-.02.11-.09.1-.17l-.55-4.09s-.02-.07-.04-.09h0s-.48-.48-.48-.48l.19-.1s.02,0,.02-.02l.13-.1s.06-.07.06-.11c0-.04-.01-.09-.05-.12l-8.23-8.27,3.23,1.06s.03,0,.05,0c.04,0,.08-.02.11-.05l4.34-4.52s.1-.01.13-.05l5.9-6.15s.02,0,.03,0l9.95.23.09.06s.06.03.09.03l10.44.25,6.01,4.67.09.15s.02.03.04.04l4.49,3.49.17,11.03-2.74-2.34s-.07-.04-.12-.04l-.98.09s-.06.01-.08.03l-15.56,12.6.74-2.38s0-.06,0-.1l-1.18-3.51c-.02-.06-.08-.11-.15-.11h-.27s.16-.46.16-.46c0-.02.01-.05,0-.07v-.14c-.02-.07-.08-.13-.15-.14l-1-.1s-.01,0-.02,0h0s-16.9.62-16.9.62l1.93-.67ZM81.56,53.26l-.17-.71.17-.03s.06-.02.08-.04l8.58-8.93,1.01,2.96-5.88,6.13s-.1.01-.13.05l-4.09,4.26.44-3.63s0-.04,0-.06ZM79.87,51.91s-.01-.04-.03-.05l-.13-.18.1-.87c0-.07-.04-.14-.11-.17l-2.4-.79s0,0,0,0l-7.17-2.34s0,0,0,0l-4.3-1.4s0,0,0,0l-1.43-.47s0,0,0,0l-1.43-.47s0,0,0,0l-2.86-.94s0,0,0,0l-2.86-.93s0,0,0,0l-2.86-.93s0,0,0,0l-1.43-.47s0,0,0,0l-1.43-.47s0,0,0,0l-24.01-7.85s-.09,0-.13.02c-.04.03-.07.07-.07.11l-.08.74-1.49-.44,1.85-1.04,52.11,17.02,1.59,2.28h-.05s-.09-.03-.09-.03c0,0,0,0-.01,0l-1.22-.39-.02.07ZM79.42,51.82l.12.16-.25.62s0,.03-.01.04l-.37,3.07-2.55-.83,3.03-3.15s.01.06.03.09ZM27.5,34.62l.08-.68.51.17-.55.55-.03-.04ZM27.35,35.95s0,0,0,0l.04-.32.26-.65.76-.77,2.14.7-3.48,3.51.28-2.47ZM30.89,35.02l1.66.54-2.26,2.28s-.04.06-.04.09l-.05.44-.39.4s-.04.06-.04.09l-.08.74-2.52-.82,3.73-3.76ZM30.54,38.16l46.09,15.07-.02.17-46.09-15.07.02-.17ZM76.76,52.95l-.3-.1v-.1s2.09-2.16,2.09-2.16l.37.12-2.15,2.24ZM76.28,52.5l-.92-.3,1.94-2.01.92.3-1.94,2.01ZM74.84,52.03l-.92-.3,1.94-2.01.92.3-1.94,2.01ZM73.4,51.56l-.92-.3,1.94-2.01.92.3-1.94,2.01ZM71.96,51.09l-.92-.3,1.94-2.01.92.3-1.94,2.01ZM70.53,50.62l-.92-.3,1.95-2.01.92.3-1.94,2.01ZM69.09,50.15l-.92-.3,1.95-2.01.92.3-1.95,2.01ZM67.66,49.68l-.92-.3,1.95-2.01.92.3-1.95,2.01ZM66.22,49.21l-.92-.3,1.95-2.01.92.3-1.95,2.01ZM64.79,48.74l-.92-.3,1.95-2.01.92.3-1.95,2.01ZM63.35,48.27l-.92-.3,1.95-2.01.92.3-1.95,2.01ZM61.92,47.8l-.92-.3,1.95-2.01.92.3-1.95,2.01ZM60.48,47.33l-.92-.3,1.95-2.01.91.3-1.95,2.01ZM59.05,46.86l-.92-.3,1.95-2.01.91.3-1.95,2.01ZM57.62,46.4l-.91-.3,1.96-2,.91.3-1.95,2ZM56.18,45.93l-.91-.3,1.96-2,.91.3-1.96,2ZM54.75,45.46l-.91-.3,1.96-2,.91.3-1.96,2ZM53.32,44.99l-.91-.3,1.92-1.96s0,0,0,0l.04-.04.91.3-1.96,2ZM51.89,44.52l-.91-.3,1.96-2,.91.3-1.96,2ZM50.45,44.05l-.91-.3,1.96-2,.91.3-1.96,2ZM49.02,43.59l-.91-.3,1.96-2,.91.3-1.96,2ZM47.59,43.12l-.91-.3,1.96-2,.91.3-1.96,2ZM46.16,42.65l-.91-.3,1.96-2,.91.3-1.96,2ZM44.73,42.18l-.91-.3,1.97-2,.91.3-1.96,2ZM43.3,41.72l-.91-.3,1.97-2,.91.3-1.97,2ZM41.87,41.25l-.91-.3,1.97-2,.91.3-1.97,2ZM40.44,40.78l-.91-.3,1.97-2,.91.3-1.97,2ZM39.01,40.31l-.91-.3,1.97-1.99.91.3-1.97,2ZM37.59,39.85l-.91-.3,1.97-1.99.91.3-1.97,1.99ZM36.16,39.38l-.91-.3,1.97-1.99.91.3-1.97,1.99ZM34.73,38.91l-.91-.3,1.97-1.99.91.3-1.97,1.99ZM33.3,38.45l-.91-.3,1.97-1.99.91.3-1.97,1.99ZM31.88,37.98l-.91-.3,1.98-1.99.91.3-1.97,1.99ZM30.4,38.62l45.93,15.02-.19.19h0s-45.94-15.02-45.94-15.02l.19-.19ZM76.33,54.09l.32-.34h.04s.03.02.05.02c.04,0,.08-.02.11-.05l2.62-2.72-.03.21-3.16,3.29.05-.42ZM92.53,40.87s0,0,0,0l-.02-.04.2-.61v1.24s-.18-.58-.18-.58ZM91.16,43.94l-.53-1.56,1.03.02-.5,1.53ZM91.76,42.1l-1.14-.03.16-.49h.6s.06.05.1.05h.43s-.15.47-.15.47ZM79.55,2.39l-.27-.3.09-.27.19.57h0ZM79.53,2.7h.14s1.01,2.96,1.01,2.96l-2.52-.07.82-2.55.55-.33ZM80.79,5.98l.18.52-.86-.02s-.07.01-.1.03h-.15c-.07,0-.13.04-.15.1l-.12.37-.64-.02c-.07,0-.13.04-.15.11l-.11.35-.52-1.51,2.62.07ZM92.18,39.26l-.76-.02-.21-.62.76.02.12.34h0l.09.28ZM92.2,40.87v.05s-.46-.01-.46-.01l-.04-.11h.04s.06-.17.06-.17h.45s-.04.14-.04.14c-.01.03-.01.07,0,.1ZM92.44,40.01l-.1.31h-.55s-.21-.63-.21-.63l.76.02.1.3ZM91.05,38.17l-.21-.62.76.02.21.62-.76-.02ZM90.69,37.1l-.21-.61.76.02.21.61-.76-.02ZM90.32,36.03l-.21-.61.76.02.21.61-.76-.02ZM89.96,34.96l-.21-.61.76.02.21.61-.76-.02ZM89.59,33.9l-.21-.61.76.02.21.61-.76-.02ZM89.23,32.83l-.21-.61.76.02.21.61-.76-.02ZM88.86,31.76l-.21-.61.76.02.21.61-.76-.02ZM88.5,30.69l-.21-.61.76.02.21.61-.76-.02ZM88.13,29.63l-.21-.61.76.02.21.61-.76-.02ZM87.77,28.56l-.21-.61.76.02.21.61-.76-.02ZM87.4,27.5l-.21-.61.76.02.02.05s0,0,0,0l.19.56-.76-.02ZM87.04,26.44l-.21-.61.76.02.21.61-.76-.02ZM86.68,25.37l-.21-.61.76.02.02.05s0,0,0,0l.19.56-.76-.02ZM86.31,24.31l-.21-.61.76.02.21.61-.76-.02ZM85.95,23.25l-.21-.61.76.02.21.61-.76-.02ZM85.59,22.19l-.21-.61.76.02.21.61-.76-.02ZM85.22,21.13l-.21-.61.76.02.21.61-.76-.02ZM84.86,20.07l-.21-.61.76.02.21.61-.76-.02ZM84.5,19.01l-.21-.61h.22s0,0,0,0h.54s.21.62.21.62l-.76-.02ZM84.14,17.95l-.21-.6.76.02.21.6-.76-.02ZM83.77,16.89l-.21-.6.76.02.21.6-.76-.02ZM83.41,15.83l-.21-.6.76.02.21.6-.76-.02ZM83.05,14.77l-.21-.6.76.02.21.6-.76-.02ZM82.69,13.72l-.21-.6.76.02.21.6-.76-.02ZM82.33,12.66l-.21-.6.76.02.21.6-.76-.02ZM81.97,11.6l-.21-.6.76.02.21.6-.76-.02ZM81.61,10.55l-.21-.6.75.02.21.6-.75-.02ZM81.24,9.49l-.21-.6.75.02.21.6-.75-.02ZM80.88,8.44l-.21-.6.75.02.21.6-.75-.02ZM80.52,7.39l-.21-.6.75.02.21.6-.75-.02ZM79.62,7.28l11.62,33.99h-.47s-11.62-34.01-11.62-34.01h.46ZM92.25,41.34h-.55s.04-.12.04-.12h.57s.02.08.02.08l-.08.05ZM93.21,42.46l2.17.05v.04s15.37.37,15.37.37l-.65,1.92s0,0,0,0l-.24.72c-.02.06,0,.13.05.17l1.67,1.29-9.97-.23-.09-.06s-.06-.03-.09-.03l-9.79-.23,1.08-3.31.49-.71ZM102.49,77.19l-.11-.34c-.02-.07-.09-.11-.15-.11l-.59.02.03-.09s0-.06,0-.1l-.14-.42c-.02-.07-.08-.11-.15-.11l-1.05.04.12-.4,2.54-.09-.49,1.59ZM90.71,115.29l-.55-1.6,1.05-.03-.51,1.64ZM90.06,113.38l-.15-.44s-.02-.04-.03-.05l1.17-.04.17.49-1.16.04ZM89.99,111.95h0s-.42.02-.42.02h0s.42-.02.42-.02ZM89.63,112.27l.53-.02.04.11-.6.02.03-.11ZM101.16,76.39s0,0-.01-.01h.01s0,.01,0,.01ZM100.14,76.68l.68-.02-.2.64-.68.02.2-.64ZM99.8,77.77l.69-.02-.2.64-.69.02.2-.64ZM99.46,78.87l.69-.02-.2.64-.69.02.2-.64ZM99.12,79.97l.69-.02-.2.64-.69.02.2-.64ZM98.77,81.07l.69-.02-.2.64-.69.02.2-.64ZM98.43,82.17l.69-.02-.2.64-.69.02.2-.64ZM98.09,83.27l.69-.02-.2.64-.69.02.2-.64ZM97.75,84.37h.38s.3-.02.3-.02l-.2.64-.69.02.2-.64ZM97.41,85.47l.69-.02-.2.64-.69.02.2-.64ZM97.07,86.58l.69-.02-.2.64-.69.02.2-.64ZM96.73,87.68l.69-.02-.2.64-.69.02.2-.64ZM96.38,88.78l.69-.02-.2.64-.69.02.2-.64ZM96.04,89.89l.69-.02-.2.64-.69.02.2-.64ZM95.7,91l.69-.02-.2.65-.69.02.2-.65ZM95.36,92.1l.69-.02-.2.65-.69.02.2-.65ZM95.01,93.21l.69-.02-.2.65-.69.02.2-.65ZM94.67,94.31l.69-.02-.2.65-.69.02.2-.65ZM94.33,95.42l.69-.02-.2.65-.69.02.2-.65ZM93.98,96.53l.69-.02-.2.65-.69.02.2-.65ZM93.64,97.64l.69-.02-.2.65-.69.02.2-.65ZM93.29,98.75l.69-.02-.2.65-.69.02.2-.65ZM92.95,99.86l.69-.02-.2.65-.69.02.2-.65ZM92.61,100.97l.69-.02-.2.65-.69.02.2-.65ZM92.26,102.08l.69-.02-.2.65-.69.02.2-.65ZM91.92,103.2l.69-.02-.2.65-.69.02.2-.65ZM91.57,104.31l.69-.02-.2.65-.69.02.2-.65ZM91.23,105.42h.38s0-.01,0-.01h.31s-.2.64-.2.64l-.69.02.2-.65ZM90.88,106.54l.69-.02-.2.65-.69.02.2-.65ZM90.54,107.65l.69-.02-.2.65-.69.02.2-.65ZM90.19,108.77l.69-.02-.2.65-.69.02.2-.65ZM89.84,109.88l.69-.02-.2.66-.69.02.2-.66ZM89.38,111.39l.12-.39.69-.02-.2.66-.52.02-.09-.26ZM91.04,112.54l-.48.02,10.98-35.47.48-.02-10.97,35.47ZM100.54,75.38l.92-2.96h.11s.57.33.57.33l.86,2.55-2.45.09ZM101.73,71.55l.09.25-.25.27.16-.52ZM89.12,111.59l.2.6-.02.05s0,0,0,0l-.16.6-.03-1.25ZM122.74,51.9c-.05.03-.08.08-.08.14v.5s0,.04,0,.06l-.03,2.5s0,0,0,0v.19s-4.27-3.32-4.27-3.32l-.09-.15s-.02-.03-.04-.04l-8.03-6.24.21-.62s0,0,0,0l.68-2.02.57-.2,11.53,8.95-.44.23ZM89.46,4.8l29.74.52,8.64.24.55.32,5.34,15.03-.7.63-5.26-14.83s-.02-.03-.03-.05l-.33-.4s-.02-.02-.04-.03l-.42-.26s-.03-.02-.05-.02l-.49-.09s-.02,0-.02,0l-35.24-.96s-.02,0-.03,0l-.37.06s-.04.01-.06.02l-.32.21s-.06.07-.07.11l-.03.26s0,.05,0,.07l10.16,29.45s.01.03.02.04l.29.38s.03.03.04.04l.48.28s.02.01.03.01l.34.11s.03,0,.05,0l14.79.37-.04.04-15.92-.39-.56-.33-10.59-30.74.1-.09ZM89.55,4.49h.01s.25,0,.25,0l38.14.75.55.32v.03s-.53-.32-.53-.32c-.02-.01-.05-.02-.08-.02l-38.34-.75ZM116.82,36l-15.1-.37-.3-.1-.44-.26-.26-.33-10.14-29.39.02-.15.23-.15.32-.05,35.22.96.45.09.37.23.3.36,5.3,14.93-15.96,14.25ZM137.86,9.85s.05-.09.04-.14c-.02-.07-.08-.12-.15-.12l-1.29-.03-.05-.14,1.7.05.08.22-.33.16ZM137.13,10.24l.06.12v.16s1.31.04,1.31.04l.05.14-1.7-.05-.08-.22.36-.18ZM138.86,16.32h0s.01,0,.01,0h0ZM139.59,15.67l-.05-.03s-.05-.02-.08-.02l-.84-.02-.05-.14,1.03.03.05.14-.06.05ZM138.48,14.87h0s0,0,0,0h0ZM139.02,14.23l-.12-.02s-.09,0-.12.03c-.03-.02-.06-.04-.1-.04h0s-.3-.01-.3-.01c0,0,0,0-.01,0h-.08s-.02,0-.03,0l-.07.02s-.03,0-.05.02l-.04.02.02-.06.08-.07.13-.04h.17s.19.01.19.01l.18.05.14.08ZM139.34,14.9l-.08.07-.13.04h-.06s-.04-.11-.04-.11h.13s.03-.02.04-.02l.1-.03s.03-.01.05-.03l.04-.03h0s-.04.12-.04.12ZM139.32,13.57v.16s-.04.01-.04.01l-.03-.07h0s-.01-.03-.02-.04c-.03-.04-.07-.07-.12-.07l-1.25-.03-.04-.12,1.12.03s0,0,0,0c.04,0,.07-.01.1-.04.03.03.06.04.1.04h.17s.04.13.04.13h-.04ZM138.12,11.37l-1.03-.03-.05-.14,1.03.03.05.14ZM138.32,11.91l.09.24-.15-.09s-.05-.02-.08-.02l-.84-.02-.05-.14,1.03.03ZM138.29,12.75s.05,0,.07-.01l.13-.06-.06-.14.15.03v-.04s.06.07.06.07l.02.08-.02.06-.1.1-.11.03-.81-.02-.04-.12.71.02ZM138.73,11.38l-.05-.14h.08s.05.14.05.14h-.08ZM139.46,1.24l.09.25-.1.04v-.16s-.03,0-.03,0l.04-.12ZM139.34,1.67l1.37,3.82-.47-.22-1.29-3.61h.39ZM137.44,1.18l.09.25-.1.04v-.16s-.03,0-.03,0l.04-.12ZM137.32,1.62l1.11,3.11-.42-.09-1.09-3.03h.39ZM135.43,1.13l.09.25-.1.03v-.16s-.03,0-.03,0l.04-.12ZM135.31,1.56l.69,1.93s0,0,0,0l.35.98h-.28s0,0,0,0h-.11s-1.04-2.92-1.04-2.92h.4ZM133.41,1.07l.05.14s-.04-.01-.05-.01h-.03s.04-.12.04-.12ZM133.29,1.51l1.11,3.11-.37.07-.31-.86s0,0,0,0l-.83-2.33h.4ZM131.39,1.02l.09.24-.1.03v-.16s-.03,0-.03,0l.04-.12ZM131.27,1.45l1.36,3.82-.32.2-1.44-4.03h.4ZM132.08,5.76s.05.08.1.1c.02,0,.03,0,.05,0,.03,0,.06,0,.08-.02l.82-.51-.08-.13.15-.05-1.58-4.44.67.02,1.15,3.21s0,0,0,0l.35.99c.02.06.08.1.15.1,0,0,.02,0,.03,0l.94-.18-.03-.15.15-.05-1.38-3.88.67.02,1.39,3.89c.02.06.08.1.14.1h.22s0,0,0,0l.79.03v-.16s.15-.05.15-.05l-1.35-3.79.67.02,1.43,4c.02.05.06.09.12.1l1.08.23.03-.15.15-.05-.54-1.5s0,0,0,0l-.92-2.58.67.02,1.63,4.56s.04.07.08.09l1.2.56.07-.14.15-.05-1.78-4.97,3.91.11.53.09.49.21.38.3.22.35,2.36,6.56-7.68,6.86-.04-.12c-.02-.06-.08-.1-.14-.1h-.14s.06-.16.06-.16h0s0-.01,0-.01h0s.05-.14.05-.14c0-.02,0-.04,0-.05v-.17s0-.03-.01-.05l-.06-.18s-.01-.02-.02-.04l-.11-.17s0,0,0,0c0-.01.02-.03.02-.04l.05-.14s.01-.07,0-.1v-.03s-.01,0-.01,0h.04s0,0,0,0l.1.04.05-.14s.01-.07,0-.1l-.16-.44c-.02-.06-.08-.1-.14-.1h-.16s-.05-.13-.05-.13c-.02-.06-.08-.1-.14-.1h-.17s.05-.16.05-.16c0-.03.01-.06,0-.09l-.03-.15s-.01-.04-.02-.05l-.12-.17s-.02-.02-.03-.03l-.02-.02s0-.06,0-.08l-.11-.32h.35s0-.13,0-.13h.04s0,0,0,0l.1.04.05-.14s.01-.07,0-.1l-.16-.45s-.06-.08-.1-.1v-.03s.02-.07,0-.1l-.16-.45c-.02-.06-.08-.1-.14-.1l-.58-.02.37-.18-.05-.09.05-.02.08.03.05-.14s.01-.07,0-.1l-.16-.45c-.02-.06-.08-.1-.14-.1l-2.03-.06c-.07,0-.13.04-.15.11l-.05.14.07.02.02.05-.09.03.16.45c.02.06.08.1.14.1l.57.02-.36.19s-.06.05-.08.09l-.05.14.07.02.02.05-.09.03.16.45s.05.08.09.09v.04s.06.02.06.02l.02.05-.09.03.16.45s.05.08.09.09v.03s.06.02.06.02l.02.05-.09.03.16.46c.02.06.08.1.14.1h.06s-.02.03-.03.05l-.05.14.07.02.02.05-.09.03.16.44s.05.08.1.1v.04s.06.02.06.02l.02.05-.09.03.16.44c.02.06.08.1.14.1h0s.18,0,.18,0c-.01.01-.02.03-.03.05l-.07.17s0,0,0,0h0s-.05.14-.05.14h.04s0,.05,0,.05h-.05s0,.17,0,.17c0,.02,0,.03,0,.05l.06.18s.01.02.02.03l.12.17s.01.02.02.03l.2.18s.02.02.03.02h0s0,0,0,0l-.05.14.07.02.02.05-.09.03.16.46c.02.06.08.1.14.1h0s.06,0,.06,0c-.01.01-.02.03-.03.05l-.05.14.07.02.02.05-.09.03.1.27-4.39,3.92-5.37-15.13s-.04-.06-.07-.08l-.63-.37s-.05-.02-.07-.02l-38.49-.76s-.08.01-.11.04l-.38.35s-.06.11-.04.17l10.71,31.06s.04.06.07.08l.64.38s.05.02.08.02l15.63.38-3.25,2.9s-.02.02-.02.03l-1.43,2-.28.38s0,0,0,.01l-.06.1c-.04.07-.03.16.04.21l.12.09-.23.2-17.97-.43.02-2.93s0-.04,0-.05L79.84.69l38.4,1.06v-.16s.15-.05.15-.05l-.43-1.23,12.31.34,1.81,5.09ZM117.74.64l.28.79h-.54s.26-.79.26-.79ZM79.51.7l13.2,38.53v.6s-.33-.95-.33-.95l-.15.05.15-.05-4.12-12.02s0,0,0,0l-.1-.29s0,0,0,0l-.63-1.83s0,0,0,0l-.46-1.35s0,0,0,0l-.73-2.12s0,0,0,0l-6.84-19.98c-.02-.06-.08-.11-.15-.11,0,0,0,0,0,0-.07,0-.13.04-.15.11l-.12.38-.33-.84.75-.12ZM53.02,4.98l6.24,2.02-.29.06-5.6-1.81-.04.11-.08-.02-.05-.05-.02.02-.19-.06.03-.26ZM52.12,5.89l5.26,1.7-.18.09-4.73-1.53-.04.11-.07-.02-.05-.05-.02.02-.19-.06.03-.26ZM51.21,6.8l4.98,1.61-.12.11-4.51-1.46-.04.11-.07-.02-.05-.05-.02.03-.19-.06.03-.26ZM50.3,7.71l5.2,1.68-.04.14-4.81-1.56c-.06-.02-.12,0-.16.04l-.03.03-.19-.06.03-.26ZM49.39,8.62l5.99,1.94-.02.15-3.79-1.23s0,0,0,0l-1.83-.59-.04.11-.07-.02-.05-.05-.03.03-.19-.06.03-.26ZM44.67,15.26l-1.58.89.15-1.36,1.43.46ZM42.99,16.56l2.14-1.21c.05-.03.08-.09.08-.15,0-.06-.05-.11-.11-.13l-1.71-.55,5.45-5.47,6.93,2.24.05-.15.15-.06-.27-.69s-.05-.08-.1-.09h0s-6.05-1.96-6.05-1.96l.21-.21,5.72,1.85s.03,0,.05,0c.02,0,.05,0,.07-.02.04-.02.06-.05.08-.09l.18-.55-.15-.05.05-.15-5.29-1.71.21-.21,5.3,1.72s.03,0,.05,0c.04,0,.08-.02.11-.04l.46-.45-.11-.11.05-.15-5.16-1.67.21-.21,5.44,1.76s.03,0,.05,0c.02,0,.05,0,.07-.02l.72-.37-.07-.14.05-.15-5.56-1.8.21-.21,6.19,2s.03,0,.05,0c0,0,.02,0,.03,0l1.17-.22-.03-.15.05-.15-6.76-2.19,1.67-1.67.3-.18.45-.1h.54s.54.12.54.12l22.08,7.14,1.96,5.75s-.03,0-.05.01l-.65.26h.02s-.07-.11-.07-.11l.04-.02h.1s.02-.14.02-.14c0-.07-.03-.13-.09-.16l-.28-.13s0,0-.01,0l-.34-.12s0,0,0,0l-.34-.1s0,0-.01,0l-.4-.09s0,0-.01,0l-.43-.06s-.01,0-.02,0h-.45s-.01-.01-.02-.01l-.43.03s-.02,0-.02,0l-.41.1s-.02,0-.02,0l-.33.13s-.02,0-.03.02l-.21.15s-.03.03-.04.04l-.11.17s-.02.04-.02.07l-.02.15h0s0,0,0,0h0s-.01.21-.01.21c0,.03,0,.06.02.08l.12.24s.02.03.03.04l.22.22s.03.02.04.03l.4.2s.01,0,.02,0l.43.15s.01,0,.02,0l.4.09s0,0,.01,0l.16.02s.04.04.08.05l.74.24s.03,0,.05,0c.02,0,.04,0,.06-.01h0s.74-.29.74-.29l.29.1-.1.17s-.02.04-.02.06l-.02.15.14.02h.02s-.05.15-.05.15l1.17.38s.03,0,.05,0c.02,0,.04,0,.06-.01l.4-.18,1.29,3.77-28.73-9.31s-.04,0-.06,0l-.71.07s-.07.02-.1.05l-3.9,3.93s0,0,0,0l-13.1,13.74c-.05.05-.06.13-.02.19l.26.39s.05.05.08.06l22.61,7.37s0,0,0,0l19.29,6.29s.03,0,.05,0c0,0,.01,0,.02,0l.72-.07s.07-.02.1-.05l8.49-8.79-.11-.11.15-.05-10.43-30.55,1.08-3.37h.28s.21.54.21.54c0,.02.02.04.03.06l.25.28-.48.29s-.06.05-.07.09l-.9,2.81h0s-.01.07,0,.1l.74,2.17c.02.06.08.11.15.11,0,0,0,0,0,0,.07,0,.13-.04.15-.11l.11-.35,11.56,33.82-.25.75h0s-.01.07,0,.1l.76,2.21.15-.05.15.05.9-2.76.21-.12.2.65s.02.05.04.07l.09.09s0,0,0,0c0,0,0,0,.01.01,0,0,0,0,0,0,0,0,.01,0,.02.01,0,0,0,0,0,0,0,0,.01,0,.02,0,0,0,0,0,0,0,0,0,.01,0,.02,0,0,0,0,0,0,0h.02s-.38.56-.38.56c0,.01-.02.03-.02.04l-1.01,3.08-1-2.93-.15.05-.11-.11-8.62,8.98-1.65-2.36s-.05-.05-.08-.06l-52.22-17.06s-.09,0-.13.01l-1.18.67,16.7-16.77ZM81.06,17.79l-.33-.11s.02,0,.02,0c.02,0,.04,0,.07-.01l.48-.22.07.2-.31.14ZM80.63,17.44c-.04.06-.03.14.01.19.01.02.03.03.05.04l-.55-.18.18-.3s.03-.09.01-.13-.05-.08-.1-.09l-.59-.2h0s-.07-.01-.11,0l-.74.29-.64-.21v-.06s-.33-.05-.33-.05l-.39-.08-.41-.14-.37-.18-.19-.19-.09-.18v-.12s.08-.12.08-.12l.17-.12.31-.12.39-.09.41-.03h.43s.41.07.41.07l.38.08.31.09.34.12h.03s-.09.07-.09.07l-.2-.1s0,0-.01,0l-.23-.08s0,0,0,0l-.24-.07s-.01,0-.02,0l-.28-.05s0,0,0,0l-.3-.04s-.01,0-.02,0h-.29s-.01-.01-.02-.01l-.29.02s-.01,0-.02,0l-.24.05s-.02,0-.02,0l-.26.1s-.04.02-.06.04l-.08.08s0,0-.01.01l-.07.09s-.02.04-.03.06l-.02.09s0,.06,0,.08l.04.11s.02.04.03.05l.12.14s.03.03.05.04l.22.1s0,0,0,0l.21.09s.02,0,.03,0l.34.06s.02,0,.03,0c.03,0,.07-.01.09-.03l.13-.1-.09-.13.05-.15-.26-.08.04-.03.87.29-.32.24c-.06.05-.08.13-.04.2.03.05.08.08.14.08.02,0,.04,0,.06-.01l2.15-.86.11.04.23.67-.45.67ZM79.24,16.33c-.01-.05-.05-.09-.1-.11l-.95-.32h.03s.55.1.55.1l.45.15.22.1-.2.08ZM77.41,16.09s-.05.04-.06.07l-.11-.05-.05-.06.03-.03.22-.08.22-.04h0s-.26.18-.26.18ZM87.27,34.93l-8.38,8.67-.23.08-.5.05-.54-.08-39.69-12.94-.24-.14-.08-.17.05-.12,15.85-15.98.27-.15.43-.04.59.08,28.54,9.25,3.92,11.49ZM54.9,13.88s-.02,0-.03,0l-.62-.09s-.02,0-.03,0l-.48.04s-.04,0-.06.02l-.32.17s-.02.02-.04.03l-15.89,16.02s-.03.03-.03.05l-.09.21s-.02.08,0,.12l.12.28s.04.06.07.07l.3.17s.02,0,.03.01l39.72,12.96s.02,0,.02,0l.57.09s.02,0,.02,0c0,0,.01,0,.02,0l.54-.06s.02,0,.03,0l.28-.09s.05-.02.06-.04l8.29-8.58.11.31-8.38,8.68-.63.06-19.25-6.28s0,0,0,0l-22.56-7.36-.03-.05,12.84-13.47,3.86-3.89.63-.06,29.11,9.44.15.43-28.33-9.18ZM54.03,12.89s-.04,0-.06,0l-.64.06.06-.06.63-.06,28.92,9.38.02.06-28.92-9.38ZM.39,52.11l.26-.25.44-.21,30.22-10.33,7.79,2.55-1.03.35c-.07.02-.11.1-.1.17l.02.15s.01.04.02.06l.4.62-.89-.74s-.1-.05-.15-.03l-.74.25c-.07.02-.11.09-.11.16l.06.69-.76-.51s-.09-.03-.14-.02l-.74.25c-.07.02-.11.1-.1.17l.02.15h.01s0,.01,0,.01h-.01s.22.94.22.94l-1.16-.86s-.1-.04-.14-.02l-.92.31c-.07.02-.11.09-.1.16l.1.94s-.1-.05-.16-.04l-1.25.42c-.07.02-.12.1-.11.17l.02.15h.05s.02.03.02.03l-.05.03.07.11h-.15s-.15-.04-.15-.04l-.08-.04-.07-.06h0s.02-.06.02-.06l.1-.13.15-.12.2-.11.22-.11.45-.15.35-.08c.08-.02.13-.09.12-.17l-.02-.15s0-.04-.02-.05l-.19-.34c-.03-.06-.1-.09-.17-.08l-.35.08s0,0-.01,0l-.36.11s0,0,0,0l-.33.12s0,0-.01,0l-.34.16s0,0-.01,0l-.32.19s-.02.01-.02.02l-.25.22s-.02.02-.02.02l-.18.24s-.02.03-.03.05l-.07.26s0,.04,0,.06l.03.24s0,0,0,0l.02.15h.05s.02.03.02.03l-.05.03.11.18s.03.03.04.05l.2.15s.02.02.04.02l.3.11s.02,0,.03,0l.42.06s.02,0,.02,0h.45s.02,0,.03,0l.5-.1s.01,0,.02,0l.45-.14s.01,0,.02,0l.34-.16s0,0,.01,0l.13-.08s.03,0,.05,0,.03,0,.05,0l.74-.26c.07-.02.11-.09.1-.16h0s-.03-.44-.03-.44l.42-.14.5.34h0s0,0,0,0c.02.02.05.02.08.02.02,0,.03,0,.05,0l1.17-.4-.05-.14h.02s.14-.02.14-.02l-.02-.15s0,0,0-.01l-.09-.43.69.45s.06.03.09.03c.02,0,.03,0,.05,0l.61-.2c.07-.02.11-.09.11-.16l-.06-.69.64.54s.1.05.15.03l.67-.24s.01,0,.02,0c.02,0,.03,0,.05,0l1.79-.61-.05-.14h.02s.14-.02.14-.02l-.02-.15s-.01-.04-.02-.06l-.21-.33c-.04-.06-.11-.09-.18-.06l-.27.09-.02-.06h.02s.14-.02.14-.02l-.02-.15s-.01-.04-.02-.06l-.21-.32s-.09-.07-.14-.07l-.02-.06h.02s.03,0,.03,0l1.17.38.44.68s.08.07.13.07c.02,0,.03,0,.05,0l.81-.28,4.58,1.5-32.8,11.25s-.06.03-.08.06l-.27.4.13.09-.11.11,3.86,4s0,0,0,0l13.78,13.72s.06.04.1.04l.73.07s0,0,.01,0c.02,0,.03,0,.05,0l10.08-3.48s0,0,0,0l32.07-11.07s.06-.03.08-.06l.26-.4-.13-.08.11-.11-8.4-8.47-.16.16-.31-.31-.11.11.05-.15-27.09-8.87s0,0,0,0l-14.23-4.66.39-3.45s0,0,0,0l.02-.17s0,0,0,0l.03-.27.66-.46h.04s1.19.41,1.19.41l-.22.54s0,.03-.01.04l-.04.34s0,0,0,0l-.33,2.92h0s0,.04,0,.05c.01.05.05.1.1.11l2.94.96s.03,0,.05,0c.03,0,.06,0,.08-.02.04-.03.07-.07.07-.11l.08-.74,45.97,15.03-.1.8h0s0,.04,0,.06c.01.05.05.09.1.11l2.97.97.05-.15.16.02.39-3.24.22-.55,1.21.38.06.02.19.76-.47,3.87-3.67-1.2-.05.15-.11.11,7.95,7.99-1.3-.69s-.08-.02-.12,0l-52.55,18.16s-.06.03-.08.06l-1.62,2.4-17.02-17.75,1.15-1.7s0,0,0,0l.49-.73c.04-.06.04-.13,0-.18-.04-.05-.11-.07-.17-.05l-1.88.65-5.37-5.6,6.89-2.36-.05-.15.03-.15-1.18-.21s-.05,0-.08,0h0s-6.29,2.16-6.29,2.16l-.21-.22,5.66-1.94-.05-.15.07-.14-.73-.37s-.08-.02-.12,0h0s-5.52,1.89-5.52,1.89l-.21-.22,5.25-1.8-.05-.15.11-.11-.44-.47s-.11-.06-.16-.04h0s-5.39,1.85-5.39,1.85l-.21-.22,5.31-1.82s0,0,0,0l.07-.02-.05-.15.08-.02h0s.07-.02.07-.02l-.17-.56c-.02-.08-.1-.12-.18-.11,0,0-.01,0-.02,0h0s-5.8,1.98-5.8,1.98l-.21-.22,6.15-2.1s.08-.05.09-.09l.28-.71-.15-.06-.05-.15-7.01,2.4-1.75-1.82-.1-.2.07-.21ZM39.02,44.3l.05.15-.13.08.21.32c.04.06.11.09.18.06l.79-.27.03.05-.71.24.05.15-.13.08.21.32s.08.07.13.07c.02,0,.03,0,.05,0l.94-.32.03.05-1.49.51-.87-1.35,1.23-.42.1.03-.67.23ZM35.01,47.25l-.49-.34s-.09-.03-.14-.02l-.6.2s0,0,0,0h0s0,0,0,0c-.07.02-.11.09-.11.16l.03.44-.63.22s0,0,0,0v.03s-.03-.07-.03-.07c.02,0,.03,0,.05,0,.02,0,.04,0,.05,0,.07-.02.11-.09.1-.16l-.15-1.45.72-.25,1.45,1.08.09-.13.15-.04-.33-1.38.53-.18.97.65c.05.03.11.04.17,0,.05-.03.08-.09.08-.15l-.08-.9.54-.18,1.4,1.16-.33.12-.86-.73h0s-.07-.04-.12-.04c-.08,0-.15.08-.14.17l.08.95-.42.14-.96-.63-.09.13-.15.03.18.83-.97.33ZM32.06,46.7s0,0-.01,0l-.24.08s0,0,0,0l-.24.09s-.01,0-.02,0l-.23.11s0,0,0,0l-.22.13s-.01,0-.02.01l-.17.14s-.02.01-.02.02l-.13.16s-.02.03-.03.04l-.05.15s-.01.04,0,.06v.18s.03.07.05.1l.08.08s0,0,.01.01l.09.08s.02.02.04.02l.12.05s.02,0,.03.01l.18.04s.02,0,.03,0h.27s0,0,0,0c.01,0,.02,0,.03,0l.17-.04s0,0,0,0l.1-.02s0,0,0,0l.24-.06s.02,0,.03-.01l.26-.14-.06-.12h.09s0-.08,0-.08l.04-.03-.08-.12c-.04-.06-.11-.09-.18-.06h0s-.43.15-.43.15l-.03-.04.95-.32h0s.26.4.26.4c.02.03.04.05.07.06l-.24.14-.32.15-.43.13-.49.1h-.42s-.39-.06-.39-.06l-.27-.1-.16-.11-.07-.12-.02-.18.06-.2.15-.2.23-.2.3-.17.32-.15.3-.11.37-.11.23-.05.03.05-.14.03ZM41.98,44.87l-.05-.07.13.04-.08.03ZM64.61,52.22l8.87,8.96v.08s-.15.24-.15.24l-.38.22-28.24,9.74s0,0,0,0l-11.7,4.04-.37.06-.43-.07-.22-.13-15.7-16.28-.05-.14.13-.17.42-.25,32.76-11.23,15.08,4.94ZM16.65,58.23s-.02,0-.03.01l-.46.27s-.03.03-.05.04l-.19.27s-.04.1-.02.15l.1.25s.02.04.03.05l15.74,16.32s.02.02.04.03l.27.15s.03.02.05.02l.48.08s.02,0,.02,0,.02,0,.03,0l.41-.07s.02,0,.03,0l11.71-4.04s0,0,0,0l28.26-9.75s.02,0,.03-.01l.43-.25s.04-.03.05-.05l.19-.3s.02-.05.02-.08v-.19s0-.08-.04-.11l-8.49-8.57.92.3,8.63,8.7-.04.06-32.02,11.05s0,0,0,0l-10.05,3.47-.64-.06-10.65-10.61-6.68-6.81.04-.06,33.67-11.55.59.19-32.38,11.1ZM14.67,58.18l.05-.08,33.15-11.36.09.03-33.28,11.41ZM5.63,60.31l-.14-.15.24-.08.03.04-.13.2ZM4.74,59.37s0,0,0,0h0s-.14-.14-.14-.14l.24-.08.03.04-.12.19ZM3.85,58.44s0,0,0,0h0s-.14-.14-.14-.14l.24-.08.03.04-.13.19ZM2.96,57.51s0,0,0,0h0s-.14-.14-.14-.14l.24-.08.03.03-.13.19ZM2.53,56.28l-.24-1.65,6.66-2.28-.07.18-6.26,2.14c-.05.02-.09.06-.1.11,0,.02,0,.04,0,.06h-.01c-.07.03-.11.1-.1.17l.19,1.3-.07-.04ZM2.86,55.53l.19,1.32-.07-.08-.19-1.32.07.08ZM3.19,55.56l5.59-1.91.02.15-5.27,1.81c-.05.02-.09.06-.1.11,0,.02,0,.04,0,.06h-.01c-.07.03-.11.1-.1.17l.19,1.3-.07-.04-.24-1.65ZM3.76,56.46l.19,1.32-.07-.08-.19-1.32.07.08ZM4.32,58.14l-.24-1.65.19-.06s0,0,0,0l4.99-1.71.02.15-4.87,1.67c-.05.02-.09.06-.1.11,0,.02,0,.04,0,.06h0c-.07.03-.11.1-.1.17l.17,1.14.15-.02-.15.02.02.16-.07-.04ZM4.65,57.39l.19,1.32-.07-.08-.1-.67h0l-.1-.66.07.08ZM4.97,57.42l5.31-1.82.02.15-5,1.71h0s-.01,0-.02,0c-.06.03-.09.09-.09.16h0c-.07.03-.11.1-.1.17l.19,1.3-.07-.04-.24-1.65ZM10.62,55.75v-.09s.12.07.12.07l-.09.03h-.02ZM5.54,58.32l.19,1.32-.07-.08-.06-.39s0,0,0,0l-.14-.93.07.08ZM6.11,60l-.24-1.65,6.09-2.09.02.15-5.77,1.98c-.05.02-.09.06-.1.11,0,.02,0,.04,0,.06h0c-.07.03-.12.1-.1.17l.19,1.3-.07-.04ZM12.29,56.39l-.02-.14.38.07-.26.09-.1-.02ZM6.53,61.24h0s-.14-.14-.14-.14l.24-.08.03.04-.13.19s0,0,0,0ZM6.56,60.49l-.19-1.32,5.24,5.46.19,1.33-5.24-5.46ZM11.92,64.66l1.42-.49-1.22,1.82-.19-1.33ZM.41,52.96l1.57,1.63.19,1.32-1.47-1.54-.11-.24-.17-1.18ZM1.32,59.23l-.56-3.86.08-.04-.11-.23.05-.17,1.49,1.56s.03.02.04.03l.34.18.02.11-.28.41c-.04.06-.03.14.02.2l.26.27-.08.08-.15.02.47,3.22-1.48-1.54-.11-.24ZM3.26,61.26l-.44-3.03.07.08.43,2.93-.06.02ZM3.19,58.21s-.02-.06-.04-.09l-.26-.27.08-.08.13.09.11-.17s0,0,0,0l.12-.17.22.11.02.11-.28.41c-.04.06-.04.13,0,.18,0,0,0,0,.01.01h0s0,0,0,0c0,0,0,0,0,0l.26.27-.08.08-.15.02.47,3.22-.07-.08-.53-3.65ZM4.15,62.19l-.44-3.03.07.08.43,2.93-.06.02ZM4.09,59.14s-.02-.06-.04-.09l-.26-.28.08-.08.13.09.23-.35.22.11.02.11-.28.41c-.04.06-.04.13,0,.18,0,0,0,0,.01.01h0s0,0,0,0c0,0,0,0,0,0l.16.17s0,0,0,0l.1.1-.08.08-.15.02.47,3.22-.07-.08-.53-3.65ZM5.05,63.12l-.44-3.03.07.08.43,2.94-.06.02ZM4.98,60.07s-.02-.06-.04-.09l-.26-.28.08-.08.13.09.11-.17s0,0,0,0l.12-.17.22.11.02.11-.28.41c-.04.06-.03.13,0,.18,0,0,0,0,.01.01h0s0,0,0,0c0,0,0,0,0,0l.26.27-.08.08-.15.02.47,3.22-.07-.08-.53-3.65ZM5.94,64.05l-.44-3.03.07.08.43,2.94-.06.02ZM5.87,61s-.02-.06-.04-.09l-.26-.28.08-.08.13.09.23-.34.22.11.02.11-.28.41c-.04.06-.04.13,0,.18,0,0,0,0,.01.01h0s.26.28.26.28l-.08.08-.15.02.47,3.22-.07-.08-.53-3.65ZM6.83,64.99l-.44-3.04.07.08.43,2.94-.06.02ZM25.52,84.63l-18.22-19.04-.53-3.66s-.02-.06-.04-.09l-.19-.2s0,0,.01,0c0,0,0,0,.01,0,.05,0,.09-.03.12-.07l.2-.3,21.63,22.55.65.67s0,0,0,0c0,0,.01.01.02.02,0,0,0,0,0,0,0,0,0,0,.01,0,0,0,0,0,0,0,0,0,0,0,.01,0,0,0,0,0,0,0,0,0,0,0,.01,0,0,0,0,0,0,0l.17.03-.17.72s0,.04,0,.06l.52,3.62-4.11-4.29s-.08-.05-.13-.05ZM29.07,88.69l.8.84s.07.05.11.05c.02,0,.03,0,.05,0l8.07-2.79-.25.77s-.01.07,0,.1l.05.13c.02.06.08.1.14.1l.51.03-.74.07c-.06,0-.12.05-.13.11l-.19.57s-.01.07,0,.1l.05.13.08-.03.06.02-.03.11.58.17-.84.12c-.06,0-.11.05-.13.11l-.19.57s-.01.07,0,.1l.05.13.08-.03h.06s-.03.13-.03.13l1.23.27-1.55.19c-.06,0-.11.05-.13.11l-.23.71s-.01.07,0,.1l.05.13.08-.03.06.02-.03.11,1.3.37-.31.9s-.01.07,0,.1l.05.13c.02.06.07.1.14.1l.32.02h-.03s-.15.05-.15.05h-.15s-.17.02-.17.02l-.23-.07-.14-.09-.11-.12-.02-.04v-.12s-.01-.16-.01-.16l.04-.16.07-.16.15-.24s.03-.09.01-.13l-.05-.13c-.02-.06-.07-.1-.13-.1l-.64-.06c-.06,0-.12.02-.15.07l-.15.25s0,.01-.01.02l-.11.27s0,.01,0,.02l-.07.26s0,.02,0,.03l-.02.28s0,.02,0,.03l.04.28s0,.02,0,.03l.05.13h.02s0,.01,0,.01h-.02s.14.27.14.27c0,.01.02.03.03.04l.22.23s.02.02.04.03l.33.17s.02,0,.03.01l.38.11s.02,0,.03,0l.36.03s0,0,.01,0c0,0,.01,0,.02,0l.37-.05s.02,0,.03,0l.4-.12s.02,0,.03-.01l.41-.22s.02,0,.02-.02l.34-.27s.03-.02.03-.04l.23-.35s.01-.02.01-.03l.13-.34s0-.03,0-.04l.02-.28s0-.02,0-.03v-.05s.04-.05.06-.08l.19-.58-.08-.03.02-.05.06-.02-.05-.13s-.05-.08-.1-.1l-.63-.19.04-.11.91-.13c.06,0,.11-.05.13-.11l.29-.91-.08-.03.02-.05.06-.02-.05-.13c-.02-.05-.06-.09-.11-.1l-.43-.1.64-.1c.06,0,.1-.05.12-.1l.17-.46-.08-.03.02-.05.07-.02-.05-.13s-.06-.08-.1-.1l-.5-.15.73-.06c.06,0,.12-.05.14-.11l.15-.49s.04-.04.05-.08l.45-1.38-.08-.03.02-.05.06-.02-.05-.13c-.02-.06-.08-.1-.14-.1l-.64-.04c-.07,0-.14.04-.16.11l-.23.7h-.23s.12-.39.12-.39l-.08-.03.02-.05.06-.02-.05-.13c-.02-.06-.08-.1-.14-.1l-.65-.04c-.07,0-.14.04-.16.11l-.19.58h-.23s.16-.51.16-.51l-.08-.03h0s1.46-.52,1.46-.52l1.28.08s0,0,0,0c.07,0,.13-.04.15-.11l.17-.53,6.71-2.32-8.18,25.34.15.05-.11.12.4.37s.07.04.11.04c0,0,0,0,0,0l39.83-1.65s.05,0,.08-.02l.64-.4s.06-.05.07-.09l10.11-32.4-.15-.05.1-.12-.4-.36s-.07-.04-.11-.04l-18.85.69v.31s18.8-.68,18.8-.68h.01s-19.86.73-19.86.73v.16s-.05-.15-.05-.15l-41.49,14.36-.55-3.88.18-.77.06-.02,1.21-.41.23.55.46,3.25.15-.02.05.15,2.98-1.03s0,0,0,0c.07-.02.11-.1.1-.17l-.11-.81,42.71-14.78,23.65-.87-12.45,40.14s0,.03,0,.05l.07,2.99-39.51,1.3-.07-2.98c0-.08-.06-.14-.13-.15-.08-.01-.15.03-.17.11l-.46,1.43-12.71.42,1.72-5.32-.15-.05-.07-.14-1.22.6s-.07.05-.08.09h0s-1.57,4.85-1.57,4.85l-.71.02,1.42-4.37-.15-.05-.03-.15-1.11.25s-.08.04-.1.08c0,0,0,.02-.01.03h0s-1.38,4.25-1.38,4.25l-.71.02,1.31-4.04-.15-.05v-.16s-1.04.03-1.04.03c-.05,0-.1.03-.12.07,0,.01-.01.03-.02.04h0s-1.35,4.15-1.35,4.15l-.71.02,1.35-4.15-.15-.05.03-.15-.97-.18c-.05-.01-.11,0-.15.05-.01.02-.02.03-.03.05h0s-1.46,4.47-1.46,4.47l-.71.02,1.55-4.74-.15-.05.08-.13-.69-.43s0,0,0,0l-.16-.1h0s-.05-.02-.08-.02c0,0,0,0,0,0-.07,0-.13.04-.15.11l-1.77,5.42-4.16.14-.48-.06-.33-.18-.15-.26.02-.33,8.07-24.65ZM38.69,87.01l.15.05v.16s.64.04.64.04c0,0,0,0,0,0,.07,0,.13-.04.15-.11l.19-.58.32.02-.16.5.15.05v.16s.64.04.64.04c0,0,0,0,0,0,.07,0,.13-.04.15-.11l.23-.7.32.02-.35,1.08-2.9-.18.26-.8.37-.13-.16.5ZM40.53,89.33l-1.68.26.02.15-.03.15,1.43.33-.21.65-.91.13c-.06,0-.11.05-.13.1l-.16.46s-.01.08,0,.12c.02.04.05.07.09.08l.72.21-.09.29s-.02,0-.03,0c-.08.02-.13.1-.12.18l.03.21-.02.24-.12.31-.21.32-.31.24-.39.21-.37.12-.35.04-.33-.03-.35-.1-.3-.16-.18-.19-.11-.22-.03-.24.02-.25.06-.23.1-.25.09-.15.3.03-.02.03s0,.02-.01.03l-.07.19s0,.01,0,.02l-.05.19s0,.03,0,.04v.19s0,.02,0,.02l.02.2s0,.03.01.05l.08.18s.01.03.02.04l.14.16s.02.02.04.03l.18.11s.02.01.04.02l.28.09s.03,0,.05,0c0,0,0,0,0,0h.19s0,0,0,0l.19-.02s.02,0,.03,0l.17-.05s.02,0,.03,0l.19-.09s.02,0,.02-.01l.22-.16s.03-.03.04-.05l.12-.19s0,0,0-.01l.09-.18s.02-.05.02-.08v-.23s-.15,0-.15,0v-.02s-.01,0-.01,0v-.13s-.23-.01-.23-.01c-.07,0-.14.04-.16.11l-.09.31-.3-.02.22-.66.88.05v-.16s.05-.15.05-.15l-2.31-.65.15-.46,2.75-.33c.08,0,.13-.07.14-.15,0-.08-.05-.14-.12-.16l-2.38-.52.1-.31,1.74-.25-.02-.15.04-.15-1.44-.42.1-.32,3.02-.27-.06.2-1.78.15c-.08,0-.13.07-.14.14,0,.07.04.14.11.17l1.51.44-.08.22ZM41.8,85.51h-.04s.05-.02.05-.02v.02ZM71.68,75.15l19.92-.73.12.1-10.01,32.07-.56.35-.72.03.35-.18s.04-.03.05-.04l.21-.28s.02-.03.02-.05l9.6-30.72s0-.04,0-.07l-.05-.38s-.02-.07-.05-.1l-.31-.27s-.03-.02-.05-.03l-.27-.1s-.04,0-.06,0l-19.04.69.84-.29ZM69.83,75.79l20.03-.73.22.08.24.21.04.28-9.58,30.67-.17.23-.43.22-.4.08-36.24,1.22-.38-.06-.18-.18-.05-.33,8.12-25.19,18.79-6.5ZM42.61,107.43s0,.05,0,.07l.06.41s.02.06.04.09l.25.25s.05.04.09.04l.45.07s.02,0,.02,0c0,0,0,0,0,0l18.33-.62-20.44.85-.11-.1,8.29-25.7,1.07-.37-8.06,25ZM35.34,115.29v.02s-.06-.02-.06-.02l-.02.07h-.04s-.03-.09-.03-.09c.01,0,.02,0,.03,0h.12ZM35.5,115.08v-.09s-.16,0-.16,0l-.32-.9.46-.02.33.94-.32.08ZM35.46,113.75h-.44s1.39-4.29,1.39-4.29l.51-.25-1.47,4.54ZM37.06,108.79l-.69.34-.04-.1.77-.38-.05.14ZM35.66,115.36l.26-.07.08.23c.02.06.08.1.14.1h.12s.01.49.01.49l-.66.02.06-.17s0-.03,0-.05v-.56ZM36.42,115.33h-.15s-.46-1.31-.46-1.31l12.71-.42.46,1.31-12.56.41ZM48.79,113.44l.19-.6.03,1.22-.22-.62ZM31.29,113.89h-.43s1.16-3.55,1.16-3.55h.43s-1.15,3.55-1.15,3.55ZM32.55,110.01h-.54s-.03-.07-.03-.07l.6-.02-.03.09ZM31.03,115.41s.02,0,.03,0h.06s-.02.08-.02.08h-.04s-.03-.09-.03-.09ZM31.5,116.11s0-.03,0-.05l-.02-.78c0-.08-.06-.14-.13-.15,0,0,0,0-.01,0h0s-.16-.01-.16-.01l-.32-.9.46-.02.52,1.46c.02.06.08.1.14.1h.12s.01.49.01.49l-.66.02.06-.17ZM32.25,115.47h-.16s-.46-1.31-.46-1.31l.71-.02.47,1.31-.56.02ZM33.38,113.82h-.44s1.19-3.66,1.19-3.66l.46-.11-1.22,3.77ZM34.71,109.7l-.6.14-.04-.1.67-.15-.04.12ZM33.18,115.43h-.04s-.03-.09-.03-.09c.01,0,.02,0,.03,0h.06s-.02.08-.02.08ZM33.58,115.36h.26s.09.23.09.23c.02.06.08.1.14.1h.12s.01.49.01.49l-.66.02.06-.17s0-.03,0-.05v-.63ZM33.42,115.05h-.16s-.32-.91-.32-.91l.46-.02.32.91h-.31ZM29.21,113.95h-.43s1.25-3.84,1.25-3.84l.4.07-1.22,3.76ZM30.53,109.89l-.49-.09-.02-.06.53.1-.02.05ZM29.02,115.57h-.04s-.03-.09-.03-.09c.01,0,.02,0,.03,0h.06s-.02.08-.02.08ZM29.42,116.18s0-.03,0-.05v-.63s.24,0,.24,0l.09.24c.02.06.08.1.14.1h.12s.01.49.01.49l-.66.02.06-.17ZM29.25,115.19h-.16s-.32-.91-.32-.91l.46-.02.32.91h-.3ZM27.13,114.02h-.43s1.54-4.72,1.54-4.72l.36.22-1.47,4.5ZM26.94,115.63h-.04s-.03-.09-.03-.09c.01,0,.02,0,.03,0h.06s-.02.08-.02.08ZM27.34,116.24s0-.03,0-.05v-.63s.24,0,.24,0l.09.24c.02.06.08.1.14.1h.12s.01.49.01.49l-.66.02h0s.06-.17.06-.17ZM27.17,115.26h-.16s-.32-.91-.32-.91l.45-.02.32.91h-.3ZM21.2,114.33l.13.07s.04.02.06.02l.52.06s.01,0,.02,0c0,0,0,0,0,0l4.17-.14.47,1.31-4.05.11-.49-.06-.33-.18-.17-.29-.33-.91ZM28.58,119.62l-.89-2.5h.45s.89,2.49.89,2.49h-.45ZM30.65,119.55l-.89-2.5h.45s.89,2.49.89,2.49h-.45ZM32.73,119.49l-.89-2.5h.46s.89,2.49.89,2.49h-.46ZM34.81,119.42l-.89-2.5h.46s.89,2.49.89,2.49h-.46ZM36.9,119.35l-.89-2.51.46-.02.89,2.51h-.46ZM36.72,116.62c-.02-.06-.08-.11-.15-.1l-1.04.03v.16s-.14.05-.14.05l1.06,2.99-.71.02-1.09-3.08c-.02-.06-.08-.11-.15-.1l-1.04.03v.16s-.14.05-.14.05l1.06,2.99-.71.02-1.09-3.08c-.02-.06-.08-.11-.15-.1l-1.04.03v.16s-.14.05-.14.05l1.06,2.99-.71.02-1.09-3.08c-.02-.06-.08-.11-.15-.1l-1.04.03v.16s-.14.05-.14.05l1.06,2.99-.71.02-1.1-3.08c-.02-.06-.08-.11-.15-.1l-1.04.03v.16s-.14.05-.14.05l1.06,2.99-4.05.13-.48-.06-.33-.18-.17-.28-1.04-2.9.13.07s.04.02.06.02l.53.06.04-.31-.5-.06-.33-.18-.15-.26v-.11s.07.04.07.04c.02,0,.04.02.06.02l.53.06s.01,0,.02,0h.79s0,0,0,0l3.59-.12v.62s.01,0,.01,0c0,.03.01.06.03.09.03.04.08.06.13.06,0,0,0,0,0,0l1.04-.03v-.16s.15,0,.15,0v-.63s.15,0,.15,0v-.31s-.32.01-.32.01h-.16s-.46-1.31-.46-1.31l.71-.02.53,1.49c.02.06.08.1.14.1h.12s.01.65.01.65c0,.08.06.14.13.15,0,0,.02,0,.02,0,0,0,0,0,0,0h0s1.04-.03,1.04-.03v-.16s.15,0,.15,0l-.02-.78c0-.08-.07-.15-.15-.15h-.05s0,0,0,0h-.11s-.46-1.3-.46-1.3l.71-.02.47,1.31h-.28s.01.32.01.32l.6-.02v.62c.02.08.07.14.15.15,0,0,.02,0,.02,0,0,0,0,0,0,0h0s1.04-.03,1.04-.03v-.16s.15,0,.15,0v-.63s.71-.02.71-.02v.62c.02.08.07.14.15.15,0,0,.02,0,.02,0,0,0,0,0,0,0h0s1.04-.03,1.04-.03v-.16s.15,0,.15,0l-.02-.78c0-.08-.07-.15-.15-.15h-.16s-.46-1.31-.46-1.31l.71-.02.46,1.31h-.33s.01.32.01.32l.64-.02v.62s.01,0,.01,0c0,.03.01.06.03.09.03.04.08.06.12.06,0,0,0,0,0,0l1.04-.03v-.16s.15,0,.15,0v-.63s12.96-.43,12.96-.43v-.02s.18,0,.18,0v.02s29.37-.97,29.37-.97v-.02s9.56-.31,9.56-.31l.5.71,1.13,3.3-10.01.33s-.06.01-.09.03l-.09.07-42.28,1.38-1.09-3.08ZM107.24,145.29l-.48.28-.54.11-.51-.07-.42-.23-6.98-6.11v-.03s-.03-.05-.06-.07l-2.27-1.99-.02.03-18.67-16.33-.02-.05s-.02-.04-.04-.06l-2.26-1.97,2.15-.07,26.79,23.43s.02.01.03.02l.46.26s.04.02.06.02l.57.07s.01,0,.02,0c.01,0,.02,0,.03,0l.59-.12s.03,0,.05-.02l.52-.3s.01,0,.02-.01l3.15-2.57.27.37s.06.06.11.06c0,0,.01,0,.02,0,.03,0,.07-.01.09-.03l-.09.07c-.05.04-.07.11-.05.17l.82,2.42-3.34,2.72ZM110.09,140.15l.38-.31.59,1.74-.38.31-.59-1.74ZM111.67,141.67l-.78-2.31-.15.05-.1-.12.09-.07s.06-.07.06-.12c0-.03-.01-.07-.03-.1h0s0,0,0,0c0,0,0,0,0,0l-.29-.39s.03-.01.05-.03l.55-.45.27.37s.06.06.11.06c0,0,.01,0,.02,0,.03,0,.07-.01.09-.03l-.08.07c-.05.04-.07.11-.05.17l.82,2.42-.58.47ZM111.76,138.79l.38-.31.59,1.74-.38.31-.59-1.74ZM113.34,140.31l-.78-2.31-.15.05-.1-.12.09-.07s.06-.07.06-.12c0-.03-.01-.07-.03-.1h0s0,0,0,0l-.29-.39s.03-.01.05-.03l.55-.45.27.37s.06.06.11.06c0,0,.01,0,.02,0,.03,0,.07-.01.09-.03l-.08.07c-.05.04-.07.11-.05.17l.82,2.42-.57.47ZM113.43,137.43l.38-.31.59,1.74-.38.31-.59-1.74ZM115.01,138.95l-.78-2.31-.15.05-.1-.12.09-.07s.06-.07.06-.12c0-.03-.01-.07-.03-.1h0,0s0,0,0,0l-.29-.39s.03-.01.05-.03l.55-.45.27.37s.06.06.11.06c0,0,.01,0,.02,0,.03,0,.07-.01.09-.03l-.08.07c-.05.04-.07.11-.05.17l.82,2.42-.57.47ZM115.1,136.07l.38-.31.59,1.74-.38.31-.59-1.74ZM116.67,137.59l-.78-2.31-.15.05-.1-.12.09-.07s.06-.07.06-.12c0-.03-.01-.07-.03-.1l-.29-.39s.03-.01.05-.03l.55-.45.27.37s.06.06.11.06c0,0,.01,0,.02,0,.03,0,.06-.01.09-.03l-.08.07c-.05.04-.07.11-.05.17l.81,2.42-.57.47ZM116.77,134.71l.38-.31.58,1.74-.38.31-.59-1.74ZM186.34,115.09l-.28.38-.44.26-.54.1-10.9.09s0,0-.01-.01c-.03-.03-.07-.05-.11-.05h0l-3.58.03c-.05,0-.1.03-.12.06l-26.9.21,3.42-2.79,38.34-.3s.02,0,.03,0l.58-.11s.04,0,.05-.02l.49-.29s.03-.02.05-.04l.03-.04h0s-.28.39-.28.39l-.44.26-.56.1.06.31.58-.11s.04,0,.05-.02l.49-.29s.03-.02.05-.04l.11-.14-.07,1.62-.09.46ZM179.55,106.08l6.37-.05v.36s-6.67.05-6.67.05l.3-.36ZM186.25,106.38v-.52s-.04-.09-.08-.12h.31s-.03.64-.03.64h-.21ZM180.41,104.17l5.47-.04v.36s-1.7.01-1.7.01h0l-3.87.03.11-.36ZM186.2,104.48v-.52s-.04-.09-.08-.12h.31s-.03.64-.03.64h-.21ZM185.83,102.22v.36s-5.25.04-5.25.04v-.36s5.25-.04,5.25-.04ZM186.15,102.58v-.38s0,0,0,0v-.13c0-.05-.03-.09-.07-.12h.31s-.03.64-.03.64h-.21ZM185.78,100.33v.36s-5.43.04-5.43.04l-.13-.35,5.56-.04ZM186.1,100.68v-.51c-.01-.05-.04-.09-.08-.12h.31s-.03.63-.03.63h-.2ZM185.73,98.43v.35s-1.7.01-1.7.01h0l-4.63.04-.31-.35,6.65-.05ZM186.06,98.78v-.51c-.01-.05-.04-.09-.08-.12h.31s-.03.63-.03.63h-.2ZM186.29,97.83l-7.8.06v.16s-.12.1-.12.1l.84.94s.07.05.12.05h0l4.7-.04h0l2.29-.02.02.64-6.44.05v.16s-.15.05-.15.05l.34.95c.02.06.08.1.15.1h0l6.13-.05.02.64-5.97.05v.16s-.16,0-.16,0v.95c.02.09.09.15.17.15h0l5.99-.05.02.64-6.13.05c-.07,0-.13.05-.15.11l-.28.95.15.04v.16s4.15-.03,4.15-.03h0l2.29-.02.02.64-6.99.05s-.09.02-.12.06l-.79.96.12.1v.16s7.82-.06,7.82-.06l.09,3.75-.09.45-.28.38-.44.26-.54.1-36.6.29,3.43-2.8s.03-.02.03-.04c0,0,0,0,0,0l.09-.15,7.55-6.16.26-.12s.03-.02.04-.03l.18-.17s.03-.03.03-.05l.04-.09.02.91c0,.09.07.15.16.15h.67s0-.1,0-.1h0s0-.06,0-.06h.15s0-.1,0-.1c0,0,0,0,0,0v-.36s.21.04.21.04c0,0,.02,0,.03,0s.02,0,.03,0l.25-.05s.02,0,.03-.01l.27-.13s.03-.02.04-.03l.18-.17s.03-.03.04-.05l.05-.12.09.17s.02.03.04.05l.24.19s.02.02.04.02l.22.09s.03.01.05.01l.23.02s0,0,.01,0c.01,0,.02,0,.03,0l.25-.06s.03,0,.04-.02l.07-.04s.07.04.11.04h.7c.08,0,.15-.07.15-.16v-.1s0,0,0,0v-.17s.03.06.03.06c0,.02.02.03.04.05l.19.17s.02.02.04.03l.27.12s.02,0,.03.01l.26.05s.02,0,.03,0h.27s.02,0,.03,0l.25-.05s.02,0,.04-.01l.26-.12s.01,0,.02-.01v.15s0,0,0,0c0,.04.02.08.04.11.03.03.07.05.11.05h.23s0,.1,0,.1c0,.09.07.15.16.15h.67s0-.1,0-.1h0s0-.06,0-.06h.15s0-.09,0-.09c0,0,0,0,0,0h.18s0-.1,0-.1h0s0-.06,0-.06h.15s0-.09,0-.09c0,0,0,0,0,0v-.06s.08.07.08.07c.01,0,.02.02.04.02l.22.09s.03.01.05.01l.23.02s0,0,.01,0c.01,0,.02,0,.03,0l.25-.06s.03,0,.04-.02l.07-.04s.07.04.11.04h.7c.08,0,.15-.07.16-.16v-.1s0,0,0,0l-.03-1.28c0-.09-.07-.15-.16-.15h-.7c-.08,0-.15.07-.16.16v.1s0,0,0,0h0s0,0,0,0l.02.72-.08.07-.09.02-.08-.03-.04-.06-.02-.84c0-.09-.07-.15-.16-.15h-.67c-.08,0-.15.07-.15.16v.1s0,0,0,0l.02.88s0,.05.02.07l.03.06h-.09s-.02-1.11-.02-1.11c0-.08-.07-.15-.16-.15h-.67c-.08,0-.15.07-.16.16v.1s0,0,0,0h0s0,0,0,0l.02,1.01h-.11s.05-.11.05-.11c0-.01.01-.03.01-.04l.03-.2h0s0-.02,0-.02h0s0-.1,0-.1c0-.01,0-.02,0-.03l-.03-.2s0-.03-.01-.04l-.09-.18s-.02-.03-.04-.05l-.19-.17s-.03-.02-.04-.03l-.27-.12s-.02,0-.03-.01l-.26-.05s-.02,0-.03,0h-.27s-.02,0-.03,0l-.25.05s-.02,0-.03.01l-.26.13s-.03.02-.04.03l-.18.17s-.03.03-.03.05l-.03.07v-.26c0-.09-.08-.15-.16-.15h-.7c-.08,0-.15.07-.16.16v.1s0,0,0,0h0s0,0,0,0l.02.72-.08.07-.09.02-.08-.03-.04-.06-.02-.84c0-.08-.07-.15-.16-.15h-.67c-.08,0-.15.07-.15.16v.1s0,0,0,0v.21s-.03-.07-.03-.07c0-.02-.02-.03-.04-.05l-.19-.17s-.03-.02-.04-.03l-.27-.12s-.02,0-.04-.01l-.26-.05s-.02,0-.03,0h-.24s-.06.01-.09.03h-.01s-.05,0-.07,0h-.67c-.08,0-.15.07-.16.16v.1s0,0,0,0h0s0,0,0,0v.16s-.03-.07-.03-.07c0-.02-.02-.03-.04-.05l-.19-.17s-.03-.02-.04-.03l-.06-.03-.54-1.72s-.03-.05-.05-.07l-.34-.29.13-.11c.06-.05.08-.14.03-.21l-.07-.1s0,0,0,0l-1.75-2.39s-.02-.02-.02-.03l-1.36-1.16,22.68-.18s.07-.01.1-.04l.54-.48s.05-.07.05-.12l-.2-8.11s0,0,0,0l-1.12-27.7s-.02-.09-.06-.11l-.56-.46s-.06-.04-.1-.04c0,0,0,0,0,0l-34.35.26h0l-12.33.1s-.07.01-.1.04l-.54.47s-.05.07-.05.12l.24,14.21-6.96-5.94-.23-14.94,2.09-1.1,57.96-.45,2.03,1.06.35,13.75s0,0,0,0l.52,20.58h-.04s0,0,0,0h-1.92s0,.33,0,.33h1.92s0-.01,0-.01h.12s.29,11.52.29,11.52ZM167.03,102.42h.1s.06,0,.06,0h0s0,0,0,0l-.02-1.11h.36s.02,1.11.02,1.11c0,.09.07.15.16.15h0s0,.04,0,.04h-.16s0,.1,0,.1h-.36s0-.1,0-.1h0s-.02-.08-.04-.11c-.03-.03-.07-.05-.11-.05h0s0-.04,0-.04ZM169.5,102.27s-.03-.08-.07-.1h.01s-.1-.13-.1-.13h.15s0,0,0,0h0s-.02-.73-.02-.73h.38s.02.97.02.97h-.38ZM168.83,102.34h-.18s-.17-.08-.17-.08l-.2-.16-.06-.11-.02-.69h.36s.02.73.02.73c0,.03.01.06.03.08l.1.14s.05.05.08.06l.08.03h-.02ZM165.61,101.61v-.04s0-.02,0-.02l.02-.03.04-.02h.03s.04,0,.04,0h.03s.04.03.04.03l.02.03v.03s.02.05.02.05v.02s-.25,0-.25,0v-.04s0,0,0,0ZM165.34,102.17s0,.03.02.04l.06.1s0,0,0,.01h0s-.23-.11-.23-.11l-.15-.13-.06-.12h.49s0,0,0,0v.04s-.15.03-.15.03l.03.13ZM166.52,101.95l-.06.13-.14.13-.23.11h-.02s0,0,.01-.01l.05-.1s.01-.03.02-.05l.02-.13-.15-.02v-.16s0,0,0,0v-.03s.16,0,.16,0v-.28s0-.01,0-.02v-.08s-.02-.02-.02-.03l-.03-.07s0-.01,0-.02l.18.08.14.13.07.14.03.15-.02.15ZM165.34,101.42s0,.01,0,.02v.02s-.03,0-.03,0h0s-.21,0-.21,0l.07-.06.18-.09s0,.02-.01.03l-.02.07h.03ZM201.13,53.99l-.24.35-6.4,5.86s-.07.02-.1.04l-2.12,1.94s-.03.04-.04.06v.04s-6.44,5.89-6.44,5.89l-.05-1.87,5.39-4.93s0,0,0,0l10.82-9.9h-.01s.09.07.09.07l-.9,2.44Z"/>
      <path d="M138.75,25.62l-.09-.14s-.06-.06-.1-.07h0s-.26-.06-.26-.06c0,0-.02,0-.03,0l-5.45-.15s-.02,0-.03,0l-.28.06s-.05.02-.07.04l-.19.17s-.04.05-.05.09l-.05.24s0,.03,0,.05l.57,4.52s0,.03.01.04l.09.21s.05.07.09.09l.17.06s.04,0,.05,0c.02,0,.05,0,.07-.02l.21-.11s.02-.01.03-.02l5.18-4.64s.02-.02.03-.03l.11-.18-.1-.07.02-.04.09-.06ZM133.23,30.39l-.13.07h-.04s-.05-.14-.05-.14l-.56-4.47h0s.09-.09.09-.09l.22-.04,5.42.15.09.02-5.05,4.52Z"/>
      <path d="M88.56,19.63l-.08.18s-.02.08,0,.12l.07.21s.02.05.04.07l.21.19s.02.01.02.02l4.63,2.78s.01,0,.02.01l.25.1s.04.01.06.01c.01,0,.03,0,.04,0l.14-.04-.04-.15h.16s0-.18,0-.18c0-.02,0-.03,0-.05l-1.96-5.69s-.01-.02-.02-.04l-.12-.18h0s-.05-.05-.09-.06l-.17-.05s-.08,0-.11.01h0s-.18.09-.18.09c-.01,0-.03.02-.04.03l-2.78,2.58s-.03.03-.04.05ZM88.99,20.15l-.17-.15v-.03s.95-.89.95-.89c0,0,0,0,0,0l1.72-1.6.11-.05.06.02.07.11,1.85,5.36-4.59-2.76Z"/>
      <path d="M52.41,37.11l.03.14s.01.04.02.05l.7,1.03s0,0,0,0l1.25,1.84s.02.02.03.03l.18.15s.03.02.05.03l.28.09s.03,0,.04,0h.31s0,.01,0,.01c0,0,.01,0,.02,0l2.82-.27s0,0,0,0l2.46-.24s.01,0,.02,0l.23-.06-.04-.15.15.02h0s0,0,0,0v-.09c.01-.07-.02-.13-.08-.15h0s-.21-.1-.21-.1c0,0-.01,0-.02,0h-.03s0-.01,0-.01l-7.65-2.5s-.01,0-.02,0l-.26-.05h0s-.06,0-.09,0l-.13.05.03.08v.07s-.13.03-.13.03ZM58.14,39.91s0,0,0,0l-2.81.27h-.28s-.24-.09-.24-.09l-.14-.11-1.24-1.83s0,0,0,0l-.43-.63,6.75,2.2s0,0,0,0l.06.02-1.68.16Z"/>
      <path d="M61.25,11.88l.61.2s.03,0,.05,0c.04,0,.08-.02.11-.05l.43-.44.17.64h0c.01.05.05.09.1.11l.61.2s.03,0,.05,0c.04,0,.08-.02.11-.05l.05-.05v.02s.15.02.15.02l-.05.15.61.2s.03,0,.05,0c.04,0,.08-.02.11-.05l.04-.04h0s.16.02.16.02l-.05.15.61.2s.03,0,.05,0c.04,0,.08-.02.11-.05l.38-.39h.14s-.2.19-.2.19c-.02.02-.04.06-.04.09l-.02.16.16.02-.05.15.59.19s.03,0,.05,0c.04,0,.08-.02.11-.05l.06-.06v.03s.15.02.15.02l-.05.15.59.19s.03,0,.05,0c.03,0,.06,0,.08-.02,0,0,.02-.01.03-.02h0l.26-.26v.02s.01,0,.01,0c0,0,0,0,0,0h-.01s0,.11,0,.11c0,.03,0,.07.02.09l.08.13s.02.03.04.04l.18.14s.02.01.03.02l.2.1s.01,0,.02,0l.24.08s.01,0,.02,0l.25.05s.01,0,.02,0l.3.02s0,0,0,0c0,0,.01,0,.02,0l.24-.03s0,0,0,0v.04s.15.02.15.02l-.05.15.61.2s.03,0,.05,0c.03,0,.06,0,.08-.02,0,0,.02-.01.03-.02h0s.38-.39.38-.39h.14s-.2.19-.2.19c-.02.02-.04.06-.04.09l-.02.16.16.02-.05.15.59.19s.03,0,.05,0c.03,0,.06,0,.08-.02,0,0,.02-.01.03-.02h0s.18-.18.18-.18h0s0,.07.02.1l.08.13s.02.03.04.04l.18.14s.02.01.03.02l.2.1s.01,0,.02,0l.21.07s.03,0,.05,0c0,0,0,0,0,0h.12s-.01.03-.01.03l.59.19s.03,0,.05,0c.03,0,.06,0,.08-.02,0,0,.02-.01.03-.02h0s.15-.16.15-.16c0,.02,0,.05.02.07l.08.15s.03.04.04.05l.18.14s.02.01.03.02l.2.1s.01,0,.02,0l.24.08s.01,0,.02,0l.25.05s.01,0,.02,0l.3.02s0,0,0,0c0,0,.01,0,.02,0l.24-.03s.03,0,.04,0l.16-.06s.02-.01.03-.02l.12-.08s.03-.03.04-.04l.04-.06s0,0,0,0l.02-.04-.06-.04s.01-.02.02-.02h0s.06,0,.06,0l.02-.16s0,0,0,0v-.11s0-.07-.01-.09l-.08-.13s-.02-.03-.04-.04l-.18-.14s-.02-.01-.03-.02l-.2-.1s-.01,0-.02,0l-.24-.08s-.01,0-.02,0l-.25-.05s-.01,0-.02,0l-.29-.02s-.02,0-.03,0h-.08s.08-.07.08-.07l-.07-.07.03-.03h.09s.02-.15.02-.15c0-.07-.04-.14-.11-.17l-.59-.19c-.06-.02-.12,0-.16.04l-.23.23s0,0-.01,0l-.21-.1s-.03-.01-.04-.01l-.25-.05s-.01,0-.02,0l-.29-.02s-.02,0-.03,0l-.24.03s-.03,0-.04,0l-.14.05v-.05s0-.07-.03-.1l-.12-.16s-.02-.03-.04-.03l-.15-.1s-.02-.01-.04-.02l-.19-.07s-.02,0-.03,0l-.25-.05s-.02,0-.03,0h-.11s-.05-.05-.08-.06l-.61-.2c-.06-.02-.12,0-.16.04l-.16.16s0-.06-.02-.09l-.08-.13s-.02-.03-.04-.04l-.18-.14s-.02-.01-.03-.02l-.2-.1s-.01,0-.02,0l-.24-.08s-.01,0-.02,0l-.25-.05s-.01,0-.02,0h-.23s0-.05,0-.05c0-.07-.04-.14-.11-.17l-.11-.04v-.03c.01-.07-.03-.14-.1-.17l-.59-.19c-.06-.02-.12,0-.16.04l-.05.05-.21-.07c-.06-.02-.12,0-.16.04l-.09.09s0,0-.01.01l-.06-.09s-.02-.03-.04-.03l-.15-.1s-.02-.01-.04-.02l-.19-.07s-.02,0-.03,0l-.25-.05s-.02,0-.03,0h-.11s-.05-.05-.08-.06l-.57-.18-.07-.07.03-.03h.09s.02-.15.02-.15c0-.07-.04-.14-.11-.17l-.61-.2c-.06-.02-.12,0-.16.04l-.05.05v-.02c.01-.07-.03-.14-.1-.17l-.61-.2c-.06-.02-.12,0-.16.04l-.44.44-.16-.65c-.01-.05-.05-.09-.1-.11l-.61-.2c-.06-.02-.12,0-.16.04l-.91.92s-.04.06-.04.09l-.02.16.16.02-.05.15ZM64.36,11.91l.28.09-.36.37-.28-.09.36-.37ZM65.55,12.3l-.36.36-.28-.09.36-.37.28.09s0,0,0,0ZM66.94,12.79v-.02s.02,0,.02,0l-.02.06h0s0-.03,0-.03c0,0,0,0,0-.01ZM68.41,13.34s-.02,0-.03.01c0,0-.02.01-.02.02h0s-.14.13-.14.13c0,0-.01.01-.02.02l-.03.04s-.02.03-.02.05v.03s-.02,0-.02,0l-.14-.11-.04-.07v-.02s.03-.05.03-.05l.08-.06.13-.05.21-.02h.06s-.03.04-.04.06ZM72.54,14.89h-.02s-.05.02-.05.02h-.02s.04-.03.04-.03l.06-.02h0s-.03.03-.03.03ZM72.06,14.89h.02s-.04,0-.04,0h.03ZM74.37,15.54h-.05s-.02.01-.02.01l.03-.03.05-.04.06-.02h.01s-.07.07-.07.07h-.02ZM73.94,15.53l.02.02h0s-.07-.03-.07-.03h.05ZM75.12,15.44l.04.07v.02s-.03.04-.03.04l-.08.06-.13.05-.21.03h-.06s0,0,0,0c0,0,0,0,0,0l.19-.19s.02-.02.02-.03l.04-.07-.1-.06.04-.02h.08s0-.01,0-.01l.04.02.14.11ZM74.08,15.11h.06s0,0,0,0l-.23.22s-.01.01-.02.02l-.03.04s-.02.03-.02.05v.03s-.02,0-.02,0l-.14-.11-.04-.07v-.02s.03-.05.03-.05l.08-.06.13-.05.21-.02ZM73.42,14.45l.26.08-.66.67-.26-.09.06-.06s0,0,0,0l.15-.15s.02-.02.02-.03l.04-.07-.1-.06h.01c.06.04.15.03.2-.03l.26-.27ZM71.86,14.59l.13-.05.21-.03h.06s-.1.08-.1.08c0,0-.02.01-.02.02l-.09.11s0,0,0,0l-.03.04s-.02.03-.02.05v.03s-.02,0-.02,0l-.14-.11-.04-.07v-.03s0,0,0,0l.07-.05ZM71.26,14.11l.11.08.07.1-.31.31-.26-.08.24-.24s.05-.08.04-.13v-.07s.1.04.1.04ZM70.09,13.77l.28.09s0,0,0,0l-.36.36-.28-.09.36-.37ZM69.43,13.6l.03.04-.23-.08h0s.02-.06.02-.08h0s.04,0,.04,0l.14.11ZM67.54,12.67l.27.09s-.03.02-.05.03l-.53.54-.26-.08.42-.43s.03-.04.04-.06c.02,0,.04-.02.06-.04l.05-.05ZM66.44,12.55l.11.08.07.1-.31.31-.26-.08.24-.24s.05-.08.04-.13v-.07s.1.04.1.04ZM62.27,10.83l.44.14.2.83c.01.05.06.1.11.11.01,0,.03,0,.04,0,.04,0,.08-.02.11-.05l.57-.57.28.09-.66.67-.44-.14-.21-.83c-.02-.07-.09-.12-.16-.12-.04,0-.07.02-.1.05h0s-.56.56-.56.56l-.28-.09.66-.67Z"/>
      <path d="M80.74,16.38c-.04-.05-.12-.07-.18-.05l-.52.21c-.06.02-.1.08-.1.15,0,.07.04.12.1.14l.31.11s.03,0,.05,0c.05,0,.1-.02.13-.07l.22-.32c.04-.06.04-.13,0-.19Z"/>
      <path d="M50.3,71.14h0s0,0,0,0l.15-.02-.04.15.23.05s.01,0,.02,0l1.21.1s0,0,0,0l4.1.35s0,0,.01,0c0,0,0,0,0,0l.31-.02s.03,0,.04,0l.29-.1s.03-.02.05-.03l.18-.15s.02-.02.03-.03l1.97-2.97s.02-.03.02-.05l.03-.14-.12-.03v-.07s.02-.08.02-.08l-.13-.05s-.06-.01-.09,0h0s-.26.06-.26.06c0,0-.01,0-.02,0l-7.73,2.67s-.01,0-.02,0l-.21.11h0c-.06.03-.09.09-.08.15v.09ZM56.66,71.25l-.14.12-.24.08-.28.02-4.09-.35s0,0,0,0l-.44-.04,6.89-2.38-1.69,2.55Z"/>
      <path d="M15.24,53.11s.02.06.04.09l.9.93s.07.05.11.05c.02,0,.03,0,.05,0l.62-.21-.05-.15.15-.02-.02-.16s-.02-.06-.04-.09l-.06-.06.8.18s.02,0,.04,0c.02,0,.03,0,.05,0l.62-.21-.05-.15.15-.02v-.03s.05.06.05.06c.03.03.07.05.11.05.02,0,.03,0,.05,0l.62-.21-.05-.15.15-.02v-.02s.04.04.04.04h0s.02.02.03.02c.02.02.05.02.08.02.02,0,.03,0,.05,0l.62-.21-.05-.15.15-.02-.02-.16s-.02-.06-.04-.09l-.2-.21h.09s.08.01.08.01l.39.4h0s.02.02.03.02c.02.02.05.02.08.02.02,0,.03,0,.05,0l.6-.2-.05-.15.15-.02v-.04s.06.06.06.06c.03.03.07.05.11.05.02,0,.03,0,.05,0l.6-.2-.05-.15.15-.02-.02-.12.08.03s.03,0,.04,0l.24.03s.01,0,.02,0c0,0,0,0,.01,0l.3-.02s.01,0,.02,0l.25-.05s.01,0,.02,0l.24-.08s.01,0,.02,0l.2-.1s.02-.01.03-.02l.18-.14s.03-.03.04-.04l.08-.14s.02-.06.02-.09h0s.15.14.15.14h0s.02.02.03.02c.02.02.05.02.08.02.02,0,.03,0,.05,0l.62-.21-.05-.15.15-.02-.02-.16s-.02-.06-.04-.09l-.2-.21h.08s.08.01.08.01l.39.4h0s.02.02.03.02c.02.02.05.02.08.02.02,0,.03,0,.05,0l.6-.2-.05-.15.15-.02v-.08s.22.02.22.02c0,0,.01,0,.02,0,0,0,0,0,.01,0l.3-.02s.01,0,.02,0l.25-.05s.01,0,.02,0l.21-.07s.05-.02.07-.04h.01s.01-.01.02-.01c.02,0,.03,0,.05,0l.6-.2-.05-.15.15-.02v-.06s.24.03.24.03c0,0,.01,0,.02,0,0,0,0,0,.01,0l.3-.02s.01,0,.02,0l.25-.05s.01,0,.02,0l.24-.08s.01,0,.02,0l.2-.1s.02-.01.03-.02l.18-.14s.03-.03.04-.04l.08-.14s.02-.06.02-.09v-.12s-.03,0-.03,0c0,0,0,0,0,0h.02s-.02-.17-.02-.17c0-.02-.01-.04-.02-.06l-.07-.1s-.03-.03-.04-.04l-.12-.08s-.02-.01-.03-.02l-.16-.06s-.03,0-.04,0l-.24-.03s-.02,0-.03,0l-.3.02s-.01,0-.02,0l-.25.05s-.01,0-.02,0l-.24.08s-.01,0-.02,0l-.2.1s-.02.01-.03.02l-.18.14s-.03.03-.04.04l-.08.14s-.02.06-.02.09v.02s-.46-.47-.46-.47c-.04-.04-.11-.06-.16-.04l-.6.2c-.07.02-.11.1-.1.17l.02.16h.08s.03.02.03.02l-.03.03-.09.02s-.03,0-.04.01l-.2.1s-.02.01-.03.02l-.18.14s-.03.03-.04.04l-.08.14s-.02.06-.02.09v.02s-.02-.01-.03-.02l-.17-.06s-.03,0-.04,0l-.3-.02s-.02,0-.03,0l-.23.02s-.02,0-.03,0l-.21.06s-.02,0-.03.01l-.2.1s-.02.01-.03.02l-.06.05s-.07-.01-.11,0l-.62.21c-.07.02-.11.1-.1.17v.06s-.23-.03-.23-.03c0,0-.02,0-.03,0l-.3.02s-.01,0-.02,0l-.25.05s-.01,0-.02,0l-.24.08s-.01,0-.02,0l-.2.1s-.02.01-.03.02l-.18.14s-.03.03-.04.04h0s0,0,0,0l-.09-.1s-.11-.06-.16-.04l-.25.08-.05-.05s-.11-.06-.16-.04l-.6.2c-.07.02-.11.1-.1.17v.03s-.08.03-.08.03c-.07.02-.11.1-.1.17v.03s-.04,0-.04,0c0,0-.02,0-.03,0l-.23.02s-.02,0-.03,0l-.21.06s-.02,0-.03.01l-.2.1s-.02.01-.03.02l-.06.05s-.07-.01-.11,0l-.62.21c-.07.02-.11.1-.1.17v.02s-.04-.04-.04-.04c-.02-.02-.05-.04-.08-.04,0-.03-.02-.06-.04-.08l-.18-.19s-.11-.06-.16-.04l-.62.21c-.07.02-.11.1-.1.17v.03s-.04-.05-.04-.05c-.04-.04-.11-.06-.16-.04l-.62.21c-.07.02-.11.1-.1.17l.02.16h.08s.03.02.03.02l-.07.07.06.06-.8-.19s-.06,0-.09,0l-.62.21c-.07.02-.11.1-.1.17l.02.16ZM28.85,49.17l.06.02.05.04.04.04h-.04s-.05,0-.05,0h-.02s-.02-.03-.02-.03l-.06-.06h.04ZM26.96,49.82l.06.02.05.04h0s-.04,0-.04,0h-.05s-.02-.02-.02-.02l-.02-.02-.03-.03h.05ZM29.21,48.81l.21.02.13.05.08.05.03.05v.03s-.04.07-.04.07l-.14.11h0s0-.03,0-.03c0-.02-.02-.05-.03-.06l-.07-.08s0,0,0,0l-.19-.19s0,0-.01-.01h.07ZM28.16,49.16l.14-.11.04-.02h0s0,.07.02.09l.04.07s.01.02.02.03l.2.21h-.06s-.21-.02-.21-.02l-.13-.05-.08-.06-.03-.05v-.03s.04-.07.04-.07ZM27.19,49.04l.67.68-.27.09s-.04-.02-.06-.02h0s-.02-.05-.03-.07l-.07-.08s0,0,0,0l-.15-.16s-.02-.01-.02-.02l-.08-.06s-.02-.01-.04-.02l-.1-.03.06-.06-.16-.17.27-.09ZM26.27,49.81l.15-.11.04-.02h0s.08.01.08.01l.04.02-.1.06.04.07s0,0,0,.01l.07.1s.01.02.02.03l.08.07h-.06s-.21-.02-.21-.02l-.13-.05-.04-.03-.03-.04v-.03s.04-.07.04-.07ZM25.37,50.09l.27.02.11.04.22.23-.27.09-.35-.36s-.01-.01-.02-.02h.04ZM24.46,50.38s.05.03.07.03c0,.03.02.06.04.08l.25.26-.29.1-.37-.38.29-.1ZM23.47,50.78h.06s-.1.04-.1.04c0-.01-.02-.03-.03-.04h.07ZM22.42,51.13l.15-.11.04-.02h0s0,.07.02.09l.04.07s.08.08.13.08c0,0,.02,0,.02,0l-.05.04.11.12h-.06s-.21-.02-.21-.02l-.13-.05-.08-.06-.03-.05v-.03s.04-.07.04-.07ZM21.45,51.13l.05.05s.04.03.06.04c0,.02.02.04.04.06l.43.44-.27.09-.53-.55s-.04-.03-.06-.04c0,0,0,0,0,0l.29-.1ZM20.5,51.75l.27.02.11.04.22.23-.27.09-.35-.36s-.01-.01-.02-.02h.04ZM19.59,52.05s.05.03.07.03c0,.03.02.06.04.08l.25.26-.29.1-.37-.38.29-.1ZM19.03,52.74l-.29.1-.37-.38.29-.1.37.38ZM17.43,52.38l.66.68-.34.12-.28-.06v-.06s.13-.11.13-.11l-.46-.47.29-.1ZM16,52.87l.29.07v.06s-.13.11-.13.11l.45.46-.29.1-.66-.69.34-.12Z"/>
      <path d="M34.17,46.65l-.36-.27s-.12-.04-.17-.01c-.05.03-.08.09-.08.15l.04.37s.03.09.07.11c.03.02.06.03.09.03.02,0,.03,0,.05,0l.32-.1c.06-.02.1-.06.11-.12,0-.06-.01-.12-.06-.15Z"/>
      <path d="M87.54,93.54l-.04.15.14.04s.03,0,.04,0c.02,0,.04,0,.06-.01l.25-.11s.01,0,.02-.01l4.66-2.93s.02-.01.02-.02l.21-.2s.03-.04.04-.07l.07-.22-.13-.04.03-.03.1-.05-.09-.19s-.02-.03-.04-.05l-2.91-2.66s-.02-.02-.04-.02l-.19-.09h0s-.08-.02-.12,0l-.17.05s-.07.03-.09.07h0s-.12.18-.12.18c0,.01-.01.02-.02.04l-1.85,5.94s0,.03,0,.05v.18s.16,0,.16,0ZM92.66,90.26l-.16.15-4.64,2.92h0s1.75-5.62,1.75-5.62l.07-.12.06-.02.11.06,2.82,2.58v.04Z"/>
      <path d="M33.33,105.76c.02.06.08.1.15.1,0,0,0,0,0,0l2.09-.07c.07,0,.12-.05.14-.11l.16-.48-.09-.03.02-.05.07-.02-.05-.14c-.02-.06-.08-.11-.15-.1h-.21s.55-.23.55-.23c.04-.02.07-.05.09-.1l.16-.48-.09-.03.02-.05.07-.02-.02-.05s.08-.05.1-.1l.16-.48-.09-.03.02-.05.07-.02v-.04s.06-.05.08-.1l.16-.48-.09-.03.02-.05.07-.02-.05-.14s-.03-.05-.05-.07h.1s0,0,0,0c.07,0,.12-.05.14-.11l.15-.46-.09-.03.02-.05.07-.02-.02-.05s.08-.05.1-.1l.15-.46-.09-.03.02-.05.07-.02-.05-.14s-.02-.04-.04-.06l.06-.04s.02-.01.03-.02l.19-.19s.02-.02.02-.03l.11-.18s.01-.02.02-.03l.06-.19s0-.03,0-.05v-.17s-.05,0-.05,0v-.04s.04-.01.04-.01l-.05-.14s0,0,0,0l-.07-.17h.12s0,0,0,0c.07,0,.12-.05.14-.11l.16-.48-.09-.03.02-.05.07-.02-.05-.14s-.03-.05-.05-.07h.1s0,0,0,0c.07,0,.12-.05.14-.11l.15-.46-.09-.03.02-.05.07-.02-.05-.14s-.02-.04-.03-.05l.19-.18s.02-.02.02-.03l.11-.18s.01-.02.02-.04l.05-.16-.07-.02s.08-.05.09-.1l.15-.46-.09-.03.02-.05.07-.02-.05-.14s0-.01,0-.02h0s.02-.02.03-.03l.19-.19s.02-.02.02-.03l.11-.18s.01-.02.02-.04l.06-.19s0-.03,0-.05v-.17h-.05v-.04h.04s-.05-.16-.05-.16c0,0,0,0,0,0l-.08-.18s-.02-.04-.04-.06l-.14-.12s-.04-.02-.06-.03l-.18-.05s-.02,0-.03,0h-.21s-.02-.01-.03-.01l-.21.03s-.02,0-.03,0l-.22.07s-.02,0-.03.01l-.22.13s-.02.01-.03.02l-.2.19s-.02.02-.02.03l-.11.18s-.01.02-.02.04l-.06.19s0,.03,0,.05v.17s0,.04,0,.05l.05.14h0s0,0,0,0h0s.07.18.07.18l-.82.03c-.07,0-.12.05-.14.11l-.15.46s-.01.07,0,.1l.05.14.11-.04h.04s0,.14,0,.14h.31s0,.14,0,.14c0,.02,0,.04,0,.05l.05.14h0s0,0,0,0h0s0,0,0,0l.07.18s.02.04.04.06h0s0,0,0,0c-.01,0-.03.01-.04.02l-.27.17s-.02.01-.03.02l-.15.15s-.02.03-.03.05l-.07.16s-.01.04-.01.07v.17s0,.03.01.05h0s0,0,0,0c-.02.02-.04.04-.04.07l-.16.48s-.01.07,0,.1l.05.14.11-.04h.02s-.1.06-.1.06c-.01,0-.02.01-.03.02l-.2.19s-.02.02-.02.03l-.11.18s-.01.02-.02.03l-.06.19s0,.03,0,.05v.17s0,.04,0,.05h0s.05.14.05.14h0s0,0,0,0h-.2c-.07,0-.12.05-.14.11l-.05.16h-.17c-.07,0-.12.05-.14.11l-.15.46s-.01.07,0,.1l.05.14.11-.04h.04s0,.03,0,.03c0,.03,0,.06,0,.1h0s0,.02,0,.02h0s.04.13.04.13c0,.02.02.03.03.05l-.03.03s-.02.03-.03.05l-.07.16s-.01.04-.01.07v.17s0,.03.01.05h0s-.04.05-.04.07l-.16.48s-.01.07,0,.1v.04s-.05.04-.07.08c-.03-.05-.08-.08-.14-.08h-.42c-.07.02-.12.06-.14.12l-.16.48s-.01.07,0,.1l.02.05s-.07.05-.09.09l-.16.48s-.01.07,0,.1l.05.14.11-.04h.04s0,.14,0,.14h.22s-.56.23-.56.23c-.04.02-.07.05-.09.1l-.16.48s-.01.07,0,.1l.05.14ZM36.99,97.1h.02s-.06.08-.06.08v-.03s.03-.05.03-.05h0ZM36.99,97.26s.03.02.05.03l.1.03s.03,0,.04,0h.14s0,.01,0,.01h.2s0,0,0,0c0,0,0,0,.01,0l.23-.02s0,0,0,0h.05s-.14.08-.14.08l-.19.06-.12.02h-.17s-.13-.05-.13-.05l-.09-.07-.05-.11v-.02s.04.04.04.04ZM37.45,95.8s.03.02.05.03l.1.03s.03,0,.04,0h.14s0,.01.01.01c0,0,0,0,0,0h.51s0-.01.01-.01h.05s-.14.08-.14.08l-.19.06-.2.02h-.18s-.13-.05-.13-.05l-.09-.07-.05-.11v-.02s.04.04.04.04ZM38.25,96.75h0s-.01-.02-.02-.03h.02s0,.03,0,.03ZM36.45,98.85h.03c.05,0,.1-.03.13-.08,0,0,0,0,0,0l.04.04s.07.04.11.04l.75-.03-.05.16-1.07.04.05-.16ZM36.61,99.5l-.05.15s-.07-.03-.11-.02l-.15.02s0,0-.01,0l.18-.1.14-.04ZM36.89,99.96s0,0,0,0v-.04s.02,0,.02,0h.04s0,.06,0,.06h-.02s-.06.01-.06.01v-.03ZM37.23,99.64s-.03-.01-.05-.02h-.06s.03-.11.03-.11l.09.08.04.08-.05-.03ZM35.97,100.2l.04.04s.03.02.05.03l.1.03s.03,0,.04,0h.14s0,.01.01.01c.07,0,.13-.04.15-.11l.02-.07h.04s0,.17,0,.17h.31s0,0,.01,0h.06s-.14.08-.14.08l-.19.06-.2.02h-.18s-.13-.05-.13-.05l-.09-.07-.05-.11v-.03ZM35.35,102.06h0s.05-.06.05-.06l-.05.06ZM36.55,101.84l-.85.03s-.04,0-.05.01l-.18.07s-.03.02-.05.03l.05-.05.23-.15.18-.06.72-.03-.05.15ZM35.23,102.62h.03s0-.08,0-.08v-.03s0,0,0,0v-.05s.04-.02.04-.02c0,0,0,0,.01.01l.12.12s.07.04.11.04l.75-.03-.05.16-1.07.04.05-.16ZM35,103.33l1.07-.04-.05.16-1.07.04.05-.16ZM35.83,104.02l-.07.2-.47.21-.03-.07v-.16s-1.24.04-1.24.04l.05-.16,1.76-.06ZM37.92,95.1l.19-.06.19-.02h.17s.13.05.13.05l.09.07.04.08-.05-.03s-.03-.01-.05-.02l-.07-.02s-.02,0-.03,0h-.17s0,0,0,0h-.43s-.01.02-.02.02l-.15.02s0,0,0,0l.18-.1ZM38.29,96.47l-.05.15h0s0,0,0,0l-.03.09s-.01-.01-.02-.02l-.06-.03s-.03-.01-.05-.02l-.07-.02s-.02,0-.03,0h-.17s0,0,0,0h-.35s-.01.01-.02.01l-.15.02s-.02,0-.03,0l-.13.04s-.02,0-.03.01l-.07.04v-.11s-.55.02-.55.02l.05-.14,1.76-.06ZM36.93,98.02l.17-.06.72-.02-.05.15-.85.03s-.04,0-.05.01l-.18.07s-.03.01-.04.03l.05-.05.23-.15ZM36.62,98.25l-.04.05h0s.04-.05.04-.05ZM35.45,101.03s.08-.02.11-.05c.03.03.07.04.1.04,0,0,0,0,0,0l1.16-.04-.05.15-1.28.04c-.07,0-.12.05-.14.11l-.02.07h-.04s0-.17,0-.17h-.06s.05-.14.05-.14h.17ZM34.39,103.36l-.05.16h-.09s.05-.16.05-.16h.09ZM34.21,104.99l.03.07v.16s1.22-.04,1.22-.04l-.05.16-1.76.06.06-.2.5-.21Z"/>
      <path d="M38.49,91.07l-.68.08.02.16-.04.15.59.17s.03,0,.04,0c.06,0,.12-.04.15-.1l.09-.24-.15-.06-.02-.16Z"/>
    </g>
  </g>
</svg>