<?xml version="1.0" encoding="UTF-8"?>
<svg id="Layer_2" data-name="Layer 2" xmlns="http://www.w3.org/2000/svg" viewBox="0 0 183.71 141.99">
  <defs>
    <style>
      .cls-1 {
        fill-rule: evenodd;
      }
    </style>
  </defs>
  <g id="Layer_1-2" data-name="Layer 1">
    <g>
      <path class="cls-1" d="M183.12,72.5v-6.08c0-.87.02-1.74.03-2.6,0-2.7-.05-5.13-.66-7.2-1.14-3.86-4.21-7.83-7.7-9.3-2.16-.91-4.52-1.55-6.83-2.28-2.08-.67-4.16-1.35-6.24-2.02v-15.65c0-1.35.02-2.71.03-4.06-.02-.68-.04-1.36-.05-2.05-.36-2.2-.75-4.06-1.7-5.66-1.23-2.08-2.81-3.69-4.89-4.91-1.05-.62-2.27-.93-3.53-1.33-1.71-.5-3.42-1.01-5.13-1.51-6.08-1.8-12.17-3.6-18.25-5.39-1.47-.43-2.94-.87-4.41-1.3C121.68.49,119.75-.05,116.84,0c-2.95.19-5.9.39-8.85.58-6.31.43-12.63.85-18.94,1.28-.81.04-1.61.09-2.42.13-1.05.07-2.11.14-3.16.21-1.4.23-2.65.45-3.8.93-3.52,1.45-6.04,4.8-6.99,8.85-.33,1.41-.27,3.19-.27,4.91,0,2.63.02,5.26.03,7.89.03,8.69.05,17.37.08,26.06-2.78-.99-5.56-1.98-8.34-2.98-8.05-2.93-16.1-5.86-24.15-8.79-6.78-2.54-13.57-5.08-20.35-7.62C13.15,28.91,6.61,26.36.08,23.81h-.08v1.94c11.85,4.87,24.03,9.19,36.08,13.89,3.96,1.45,7.92,2.9,11.87,4.36,5.28,2.07,10.72,3.77,16.05,5.84,2.84,1.03,5.69,2.05,8.53,3.08v2.31c-.24.45-.58.52-.64,1.28-.02,0-.04.02-.05.03-4.06-1.47-8.11-2.94-12.17-4.41-3.04-1.12-6.08-2.23-9.11-3.35-9.06-3.4-18.12-6.8-27.18-10.2-7.79-3.05-15.59-6.09-23.38-9.14v1.97c6.22,2.45,12.43,4.91,18.65,7.36,9.19,3.66,18.57,6.93,27.81,10.55,3.09,1.13,6.18,2.27,9.27,3.4,5.37,1.97,10.73,3.93,16.1,5.9.03,1.73.05,3.45.08,5.18.1.57.56.8.66,1.25.03,5.53.05,11.07.08,16.6v4.33c.27,1.69.29,3.16.82,4.52.96,2.43,2.38,4.49,4.33,5.92.73.43,1.47.85,2.2,1.28.31.12.62.23.93.35.14.24.28.48.43.72.38.5.76,1.01,1.14,1.51,1.31,1.63,2.99,3.01,4.46,4.49,6.46,6.41,12.93,12.82,19.39,19.23,2.27,2.25,4.53,4.5,6.8,6.75,1.28,1.28,2.54,2.83,4.06,3.85,1.48.99,3.49,1.6,5.18,2.31,2.43,1,4.87,2,7.31,3,1.8.76,3.46,1.61,5.61,2.02,1.08.21,2.95-.1,3.75-.29,3.58-.87,5.48-3.26,7.44-5.74.99-1.17,1.98-2.34,2.98-3.51.97.39,1.95.78,2.92,1.17.52.13,1.23-.03,1.67-.11,1.14-.11,2.28-.21,3.43-.32.86-.14,2.15.04,2.74-.4.63-.46.37-2.35.37-3.4,0-2.45.02-4.91.03-7.36.02-.95.04-1.9.05-2.84,1.51-1.77,3.03-3.54,4.54-5.31,2.92-3.47,5.84-6.94,8.77-10.41,1.2-1.51,2.59-2.88,3.72-4.46,3.02-4.26,5.48-10.54,5.37-17.91.23-.22.5-.35.58-.72,0-1.83.02-3.67.03-5.5,0-1.07.11-1.93-.58-2.31ZM161.68,45.17c1.14.36,2.28.73,3.43,1.09-1.2.1-2.39.19-3.59.29.14-.35.17-.86.16-1.38ZM115.14,2.16c1.18-.19,2.81-.33,4.06-.11,1.75.31,3.25.79,4.81,1.28,1.73.51,3.45,1.03,5.18,1.54,4.74,1.41,9.48,2.82,14.21,4.22,2.2.66,4.41,1.31,6.61,1.97,1.9.59,3.71,1.05,5.13,2.1,1.22.9,2.24,2.12,3.03,3.45,1.65,2.8,1.49,6.4,1.49,10.84-.02,6.04-.04,12.08-.05,18.12-.71.14-1.49.41-2.28.56-2.3.44-4.81.24-7.23.61-3.78.29-7.56.58-11.34.88,0-5.41.02-10.82.03-16.23-.02-2.69-.04-5.38-.05-8.08-.45-4.05-1.25-7.45-2.95-10.2-1.69-2.75-4.73-3.02-8.05-4.06-6.96-2.1-13.92-4.2-20.88-6.3,0-.02-.02-.04-.03-.05,2.77-.18,5.54-.35,8.32-.53ZM77.28,93.06c-1.03-1.34-1.83-2.77-2.31-4.7-.41-1.65-.32-3.77-.32-5.79,0-2.92-.02-5.84-.03-8.77-.05-15.19-.11-30.39-.16-45.59,0-3.43-.02-6.85-.03-10.28,0-1.88-.18-4.04.24-5.58.66-2.43,1.57-3.75,2.92-5.42.43-.33.85-.66,1.28-.98,1.39-.98,2.95-1.41,5.05-1.75,1.34-.09,2.67-.18,4.01-.27.93-.05,1.86-.11,2.79-.16,2.14-.14,4.29-.28,6.43-.43.84-.14,2.82-.35,3.67-.19,7.08,2.15,14.17,4.3,21.25,6.46,2.36.72,4.73,1.43,7.09,2.15,2.01.63,3.39.82,4.46,2.42,1.34,1.98,1.87,4.51,2.44,7.28.07.69.14,1.38.21,2.07,0,.49.02.97.03,1.46v22.79c-5.76.43-11.51.85-17.27,1.28-.75.03-1.51.05-2.26.08h-2.44c-.54,0-1.08-.02-1.62-.03-1.19-.1-2.37-.19-3.56-.29-2.38-.43-4.22-1.07-6.24-1.78-2.13-.73-4.25-1.45-6.38-2.18-.92-.27-1.68.28-1.97.82-7,.13-11.27,2.99-14.24,7.15-.67.93-1.42,2.02-1.89,3.13-.62,1.49-1.02,3.09-1.41,4.83-.03.43-.05.87-.08,1.3-.17,1.01-.11,2.22-.11,3.37,0,2.73.02,5.46.03,8.18,0,2.79.02,5.58.03,8.37,0,1.61-.16,3.36.11,4.83.33,1.8.59,3.44,1.09,5.02.23.65.46,1.29.69,1.94.16.36.32.73.48,1.09-.77-.42-1.47-1.18-1.99-1.86ZM121.83,134.4c-1.2-.51-2.6-.88-3.59-1.62-1.08-.81-2-1.87-2.95-2.82-1.42-1.4-2.83-2.8-4.25-4.2-.61-.62-1.22-1.24-1.83-1.86-5.26-5.22-10.52-10.43-15.78-15.65-1.82-1.82-3.65-3.63-5.47-5.45-.6-.59-1.2-1.19-1.81-1.78-1.09-1.09-2.21-2.15-3.08-3.45-1.14-1.7-1.97-3.62-2.76-5.66-.54-1.4-.84-2.94-1.14-4.57-.06-.69-.12-1.38-.19-2.07v-7.12c0-2.61-.02-5.22-.03-7.84,0-1.66-.02-3.33-.03-4.99,0-.81-.06-1.74.05-2.47.04-.57.07-1.13.11-1.7.8-3.8,2.18-6.67,4.46-8.95.3-.31.6-.62.9-.93,1.62-1.27,3.51-2.47,5.82-3.03,1.58-.38,3.38-.28,5.1-.56.71-.05,1.42-.11,2.13-.16.92.02,1.64.46,2.39.72,1.5.5,2.99,1.01,4.49,1.51.89.34,1.93.82,3.03.88-.67.09-1.35.18-2.02.27-1.34.28-2.47.51-3.61.98-3.16,1.31-6.15,4.03-7.86,6.8-1.3,2.1-2.13,4.49-2.71,7.33-.04.57-.07,1.13-.11,1.7-.14.85-.08,1.72-.08,2.68v4.52c0,2.24.02,4.48.03,6.72,0,3.14.02,6.29.03,9.43.16.99.11,1.92.29,2.84.41,2.03.9,3.98,1.65,5.71.98,2.29,2.13,4.4,3.56,6.24,1.03,1.33,2.38,2.43,3.56,3.61,1.1,1.09,2.2,2.18,3.29,3.27,8.03,8,16.06,16.01,24.1,24.02-1.89-.79-3.79-1.58-5.69-2.36ZM151.64,130.97c-5.52-2.2-11.03-4.41-16.55-6.61v-10.92c5.53,2.16,11.05,4.32,16.58,6.48,0,3.68-.02,7.37-.03,11.05ZM154.45,124.04c0,2.02-.02,4.04-.03,6.06-.22.15-.44.3-.66.45,0-3.05.02-6.09.03-9.14.2.17.41.34.61.5.14.16.05,1.76.05,2.13ZM155.01,117.93c-.73.06-1.45.12-2.18.19-1.25-.5-2.5-.99-3.75-1.49-3.49-1.35-6.98-2.69-10.47-4.04,0-.02-.02-.04-.03-.05.58-.05,1.17-.11,1.75-.16.73.01,1.16.32,1.7.53.75.29,1.51.58,2.26.88,3.57,1.37,7.14,2.75,10.71,4.12v.03ZM157.59,129.43c-.35.03-.69.05-1.04.08,0-2.37.02-4.75.03-7.12.35-.03.69-.05,1.04-.08,0,2.37-.02,4.75-.03,7.12ZM158.04,119.82c-.04.11-.07.21-.11.32-.69.07-1.38.14-2.07.21-.13-.12-.27-.23-.4-.35.75-.07,1.51-.14,2.26-.21h.32v.03ZM178.26,93.75c-.63,1.43-1.34,2.77-2.2,3.98-1.1,1.55-2.47,2.88-3.64,4.36-2.59,3.07-5.17,6.15-7.76,9.22-1.71,2.02-3.42,4.04-5.13,6.06-6.09-2.35-12.19-4.69-18.28-7.04-.5-.19-1.38,0-1.89.08-1.3.12-2.6.23-3.91.35-.69.11-1.61-.03-2.07.32-.48.36-.4,1.31-.4,2.15v10.33c0,.61-.12,1.61.13,2.02.35.57,2.87,1.35,3.67,1.67,3.57,1.43,7.14,2.87,10.71,4.3-.97,1.14-1.95,2.28-2.92,3.43-1.39,1.75-2.73,3.42-4.97,4.33-1.21.49-3.39.8-4.91.37-2.59-.73-4.26-2.99-5.95-4.68-3.4-3.38-6.8-6.77-10.2-10.15-4.66-4.64-9.32-9.28-13.97-13.92-1-.99-2-1.98-3-2.98-1.14-1.14-2.48-2.24-3.45-3.53-1.63-2.17-2.98-4.75-3.88-7.62-.47-1.49-.71-3.04-1.01-4.73-.03-1.07-.05-2.14-.08-3.21v-11.87c0-1.48-.02-2.96-.03-4.44,0-1.58-.15-3.39.08-4.83.03-.45.05-.9.08-1.35.34-1.62.72-3.15,1.33-4.52,1.76-3.99,5.47-7.6,10.09-8.71,3.34-.81,7.33-.43,10.89-1.01.81-.05,1.63-.11,2.44-.16,11.84-.91,23.68-1.82,35.52-2.74,2.32-.17,4.64-.34,6.96-.5,1.86-.14,3.72-.28,5.58-.43.98-.16,3.07-.34,4.17-.13,2.19.41,3.88,1.04,5.42,2.07,2.84,1.91,4.39,5.09,5.26,9.01.28,1.27.16,2.95.16,4.41-.02,2.71-.04,5.42-.05,8.13-2.64-.89-5.28-1.79-7.92-2.68-1.88-.65-3.75-1.29-5.63-1.94-.46.03-.92.05-1.38.08-1.11.09-2.21.18-3.32.27-1.66.13-3.31.27-4.97.4-.97.16-1.87-.06-2.13.8-.02.56-.04,1.12-.05,1.67v3.77c0,.6-.11,1.56.13,1.97.36.6,3.37,1.41,4.25,1.73,3.91,1.38,7.83,2.76,11.74,4.14,3.08-.24,6.16-.48,9.24-.72,0,5.28-1.18,8.89-2.76,12.49ZM172.12,73.25c-3.44-1.19-6.89-2.37-10.33-3.56,1.66-.15,3.31-.3,4.97-.45,1.06.02,2.3.64,3.19.98,2.54.86,5.08,1.72,7.62,2.58-.95.08-1.9.16-2.84.24-.87.07-1.74.14-2.6.21ZM173.42,76.78v1.97c-.09.05-.18.11-.27.16-.02.02-.04.04-.05.05,0-.81-.02-1.63-.03-2.44.12.09.23.18.35.27ZM170.98,75.05c0,1.47-.02,2.94-.03,4.41-4.41-1.54-8.82-3.08-13.23-4.62,0-1.45.02-2.9.03-4.36,4.41,1.52,8.82,3.05,13.23,4.57ZM175.52,78.16c0-.31.02-.62.03-.93,1.75-.14,3.51-.28,5.26-.43v.93c-1.76.14-3.52.28-5.29.43ZM179.21,74.81c-1.47.12-2.94.25-4.41.37v-.03c2.03-.18,4.06-.35,6.08-.53h.24c-.47.26-1.33.09-1.91.19Z"/>
      <path class="cls-1" d="M133.89,84.88c.31-.39.24-1.27.24-1.97v-4.01c0-.6.13-1.34-.05-1.81-.32-.82-3.01-1.41-3.96-1.78-2.67-.96-5.33-1.91-8-2.87-.69-.25-1.38-.5-2.07-.74-.74-.29-1.33-.64-2.39-.61-2.65.22-5.3.44-7.94.66-.81.13-2.39-.04-2.92.35-.72.53-.45,3.42-.45,4.73,0,.91-.17,2.88.21,3.4.32.43,1.06.53,1.59.74,1.17.43,2.34.87,3.51,1.3,3.46,1.28,6.93,2.57,10.39,3.85,1.55-.12,3.1-.25,4.65-.37,1.7-.14,3.4-.28,5.1-.43.78-.13,1.7.05,2.1-.45ZM121.17,83.55c-4.23-1.56-8.47-3.12-12.7-4.68,0-1.46-.02-2.92-.03-4.38,4.24,1.54,8.48,3.08,12.73,4.62v4.44ZM123.61,82.86c-.11.07-.21.14-.32.21v-2.47c.11.08.21.16.32.24v2.02ZM122.36,77.31c-3.34-1.21-6.68-2.43-10.02-3.64v-.03c1.74-.15,3.47-.3,5.21-.45,1.22.02,2.19.61,3.16.98,2.45.88,4.91,1.75,7.36,2.63-.17.1-.45.04-.69.08-.98.08-1.97.16-2.95.24-.69.06-1.38.12-2.07.19ZM131.16,81.83c-1.8.14-3.6.28-5.39.43v-.93c1.8-.14,3.6-.28,5.39-.43v.93ZM129.53,78.88c-1.51.12-3.03.25-4.54.37v-.03c2.07-.18,4.14-.35,6.22-.53h.27c-.47.26-1.35.09-1.94.19Z"/>
      <path class="cls-1" d="M148.98,89.98c-.44-.32-1.08-.43-1.62-.64-.86-.33-1.76-.85-2.79-.93-1.09.09-2.18.18-3.27.27-2.26.19-4.52.37-6.77.56-.6-.22-1.2-.44-1.81-.66-.39.03-.78.05-1.17.08-.93.15-2.36-.04-3.13.29-.26.11-.54.42-.64.69-.02.5-.04,1.01-.05,1.51v3.77c0,.68-.05,1.49.24,1.89.28.38.9.48,1.38.66,1.05.41,2.11.81,3.16,1.22.59.18,1.53.04,2.1-.05,1.74-.27,3.4.05,3.88-1.46,2.58-.23,5.15-.46,7.73-.69,1.03-.16,2.35.03,3.03-.48.95-.71,1.12-3.43.58-4.81-.18-.46-.48-.95-.85-1.22ZM132.8,96.49c-1-.36-2-.73-3-1.09v-3.91c.84.31,1.68.62,2.52.93.74.48.66,2.95.48,4.06ZM136.55,96.38c-.42.04-.83.09-1.25.13h-.27c.12-1.34.14-2.98-.21-4.09-.16-.35-.32-.69-.48-1.04.39.11,1.74.53,1.94.8.28.37.83,3.7.27,4.2ZM147.92,94.26c-3.02.26-6.04.51-9.06.77,0-1.71-.18-2.93-.8-3.96.89-.08,1.79-.16,2.68-.24l3.83-.32c1.04.39,2.07.78,3.11,1.17.37.27.44,1.96.24,2.58Z"/>
    </g>
  </g>
</svg>