<?xml version="1.0" encoding="UTF-8"?>
<svg id="Layer_2" data-name="Layer 2" xmlns="http://www.w3.org/2000/svg" viewBox="0 0 582.8 203.84">
  <defs>
    <style>
      .cls-1 {
        fill-rule: evenodd;
      }
    </style>
  </defs>
  <g id="Layer_1-2" data-name="Layer 1">
    <g>
      <path class="cls-1" d="M574.88,7.67c.02-2.03.26-4.42-.99-5.18-.83-.5-1.78-.24-2.98-.43-3.81-.12-7.62-.24-11.43-.36-16.57-.57-33.14-1.14-49.71-1.7-2.04.41-3.93,1.6-5.75,2.34-4.8,1.97-9.56,3.92-14.27,5.89-1.72.72-6.23,1.92-7.1,3.27-.96,1.47-.42,7.31-.43,9.73-.05,8.12-.09,16.24-.14,24.36-2.13.59-3.79,2.15-5.47,3.27-3.46,2.2-6.91,4.4-10.37,6.6-.74.61-1.06,1.75-1.78,2.34-2.44,1.02-4.88,2.04-7.31,3.05-6.22,2.86-12.45,5.73-18.68,8.59-2.81,1.65-6.1,2.57-8.95,4.26-3.4,2.02-7.21,3.57-10.87,5.26-5.25,2.6-10.51,5.21-15.77,7.81-9.09,4.28-18.18,8.57-27.27,12.85-.69.28-1.37.57-2.06.85-1.07-.05-2.13-.09-3.2-.14-1.78.4-3.55.8-5.33,1.21-1.98.79-4.25.86-6.39,1.56-2.04.52-4.07,1.04-6.11,1.56-.54.26-1.09.52-1.63.78-1.42.05-2.84.09-4.26.14-2.71.48-5.76,1.12-8.24,1.63-1.56.05-3.12.09-4.69.14-1.66.19-3.31.38-4.97.57-1.22.35-2.65.74-3.76.99-2.43.54-4.88-.13-6.89.64-12.03,4.63-23.94,9.03-35.01,14.56-.64.14-1.28.28-1.92.43-1.73.69-3.46,1.37-5.18,2.06-1.94.84-4.21,1.9-5.68,3.27-1.06.98-2.1,2.69-3.55,3.2-1.27-.15-2.5-1.24-3.62-1.7-2.65-1.1-5.97-2.28-9.52-2.27v-24.43c-.83-.83-1.66-1.66-2.49-2.49.5-3.48.14-7.77.14-11.5,0-4.7.33-10.05-.36-14.2-.12-4.33-.24-8.66-.36-13-.4-4.05-.8-8.1-1.21-12.14-1.91-9.69-3.82-18.72-8.88-25.21-.57-.47-1.14-.95-1.7-1.42-1.27-1.1-2.49-2.81-4.05-3.55-1.62-.77-3.5-1.43-5.11-1.99-2.13-.02-4.26-.05-6.39-.07-1.98.36-3.71.94-5.47,1.42-.52.09-1.04.19-1.56.28-1.23.66-2.46,1.33-3.69,1.99-.9.4-1.8.8-2.7,1.21-1.96,1.53-4.16,2.77-6.25,4.19-2.41,1.94-4.83,3.88-7.24,5.82-1.4,1.35-2.79,2.7-4.19,4.05-4.93,4.74-10.23,9.5-14.42,14.56-3.44,4.16-7.57,7.83-10.94,12.07-6.18,7.8-12.71,15.29-18.96,23.08-5.85,7.29-12.21,14.45-17.61,21.94-2.15,2.6-4.31,5.21-6.46,7.81-1.72,2.48-3.9,4.57-5.68,6.96-5,6.71-10.89,12.63-16.12,19.1-1.78,1.85-3.55,3.69-5.33,5.54-4.32,4.98-9.29,9.17-14.42,13.35-1.25,1.02-2.62,2.27-4.12,2.98-.52-.14-1.04-.28-1.56-.43-2.1-.36-5.39.51-7.24.85-1.24.23-2.63.14-3.69.5-2.51.31-5.02.62-7.53.92-.57-.85-.64-2.01-1.21-2.91-1.9-3.03-3.53-5.76-6.96-7.24-1.74-.76-12.56-1.83-14.98-1.14-2.13.97-4.26,1.94-6.39,2.91-.92-.02-1.85-.05-2.77-.07-2.77,0-4.85.28-6.53,1.35-1.48.94-2.79,2.45-3.76,3.91-.3.44-.27.91-.71,1.21-.76.31-1.52.62-2.27.92-4.03,2.45-8.73,3.25-11.15,7.31-1.79,3.01-1.21,8.94-1.21,13.63,0,2.45-.22,5.1.28,7.17.51,2.11,1.33,3.07,1.56,5.82,1.34,1.04,1.61.37,3.12.99,1.03.42,1.97,1.16,3.12,1.56,1.9.66,11.75,1.51,14.06.85,3.24-1.33,6.49-2.65,9.73-3.98.99.05,1.99.09,2.98.14,2.81.08,4.75-.31,6.6-1.14,1.63-.72,3.01-2.54,4.05-3.91.14-.31.28-.62.43-.92,3.48-1.42,6.96-2.84,10.44-4.26,1.18-.71,2.25-1.82,3.05-2.91.23-.3.36-.95.64-1.21,1.63-.64,3.27-1.28,4.9-1.92,3.79-1.66,7.58-3.31,11.36-4.97,1.4-.75,2.83-.98,3.98-1.92.75-.61,1.3-1.72,1.63-2.7.09-.43.19-.85.28-1.28.24-.09.47-.19.71-.28,1.73-1.18,3.62-2.48,5.26-3.83,4.35-3.6,8.75-7.51,12.57-11.65,17.58-19.04,32.98-39.01,49.35-59.16,7.25-8.91,14.68-18.3,22.01-26.7,2.67-3.03,5.35-6.06,8.02-9.09.97-1.02,1.94-2.04,2.91-3.05,2.06-2.41,4.24-4.65,6.46-6.89,3.86-3.89,7.73-7.74,11.79-11.43,1.35-1.02,2.7-2.04,4.05-3.05,1.86-1.62,3.96-2.71,5.89-4.26.85-.68,1.88-1.53,2.91-1.99,3.99-1.77,10.05-5.62,15.48-2.84.4.12.8.24,1.21.36,6.35,5.02,7.85,13.85,9.87,23.08.26,2.79.52,5.59.78,8.38.55,1.83.38,4.27.57,6.39v2.84c.12,2.75.24,5.49.36,8.24-.65,5.31-.21,11.72-.21,17.4,0,1.66-.42,5.68.14,6.89-.36,1.14-2.01,1.57-2.49,2.7v26.42c-2.89.09-5.74,1.36-7.53,2.7-.97.73-1.98,1.18-2.91,1.92-4.21,3.35-6.68,8.54-8.24,14.56-.65,2.51-.35,5.82-.36,8.73-.02.78-.05,1.56-.07,2.34-1.44.8-2.89,1.61-4.33,2.41-2.86,1.77-5.98,3.12-8.81,4.83-2.6,1.57-6.25,2.68-8.45,4.62-.69.61-1.51,2.22-2.13,2.63-.83.36-1.66.71-2.49,1.07-3.14,1.74-5.63,2.99-6.75,6.6-.25.79-.67,2.14-.36,3.27-1.23.82-4.5,1.23-3.34,4.05,1.11,2.04,3.46.93,5.11.28,1.21.9,2.24,1.83,3.69,2.56,3.52,1.77,8.28-1.37,10.79-1.99,1.3-.32,3.48.43,4.97-.14,7.36-2.41,14.72-4.83,22.09-7.24,1.14.71,2.27,1.42,3.41,2.13,1.49.67,2.92.91,4.54,1.49.78.5,1.56.99,2.34,1.49.98.66,2.34.99,3.34,1.56,1.09.36,2.18.71,3.27,1.07,3.1,1.43,11.85,1.15,14.77-.14.59-.12,1.18-.24,1.78-.36,1.42-.64,2.84-1.28,4.26-1.92,5.82-3.55,9.89-8.29,12.78-14.77.45-1.51.9-3.03,1.35-4.54,2.13-.36,5.02.01,6.96-.71,2.74-1.02,5.47-1.83,7.95-3.2.99-.59,1.99-1.18,2.98-1.78.83-.21,1.66-.43,2.49-.64,2.13-.95,4.26-1.89,6.39-2.84.66-.43,1.33-.85,1.99-1.28,1.56-.72,3.07-.74,4.47-1.49,4.1-2.2,8.61-4.19,12.78-6.11,2.36-1.09,5.18-2.01,7.17-3.55.88-.71,1.75-1.42,2.63-2.13.54-.64,1.09-1.28,1.63-1.92.8-.43,1.61-.85,2.41-1.28,1.51-1.25,3.03-2.51,4.54-3.76.8-.73,1.61-1.47,2.41-2.2.38-.45.76-.9,1.14-1.35,1.51-.96,3.01-1.7,4.33-2.84,1.35-1.07,2.7-2.13,4.05-3.2.54-.64,1.09-1.28,1.63-1.92.66-.26,1.33-.52,1.99-.78,4.71-3.5,10.05-6.14,14.84-9.59.98-.71,1.45-2.19,2.41-2.84,3.43-1.54,6.87-3.08,10.3-4.62,6.63-3.2,13.26-6.39,19.88-9.59,8.47-4.21,16.95-8.43,25.42-12.64,3.79-1.78,7.48-3.7,11.22-5.4,2.18-.97,4.36-1.94,6.53-2.91,2.98-1.62,6.32-3.17,9.44-4.54,1.11-.45,2.23-.9,3.34-1.35,1.37-.66,2.75-1.33,4.12-1.99h3.91c2.63-.66,5.26-1.33,7.88-1.99-.57,5.56,6.21,3.31,10.3,4.4,2.82.76,5.99.44,9.02.92,7.34.73,14.68,1.47,22.01,2.2,5.03.83,10.3.72,15.48,1.56,1.62.26,5.66,1.01,7.46.64,1.6-.33,3.4-1.38,4.76-2.13,1.61-.66,3.22-1.33,4.83-1.99,2.32-1.23,4.96-2.43,7.39-3.48,2.74-1.19,5.55-2.21,8.1-3.62.92-.51,2.19-.6,2.7-1.49.73-1.27.43-5.21.43-7.17.05-5.51.09-11.03.14-16.55.73-.66,1.47-1.33,2.2-1.99,1.7-2.11,3.36-4.24,4.47-6.96,4.02-9.85-.51-21.95-6.39-26.56ZM187.28,190.39c-.19.17-.38.33-.57.5-.73-.01-.92-.36-1.28-.43-.07-.47-.06-.94.07-1.35.19-.12.38-.24.57-.36.19.05.38.09.57.14.4.19.49.48.71.85-.02.21-.05.43-.07.64ZM297.07,119.02c2.53-1.07,5.07-2.13,7.6-3.2,1.23-.28,2.46-.57,3.69-.85h.5c-1.16.5-2.32.99-3.48,1.49-.93.69-.64,3.17-1.85,3.34-.05.03-5.11-.71-6.46-.71v-.07ZM286.07,123.71c1.87-.8,3.74-1.61,5.61-2.41,1.26-.55,2.69-.38,4.05-.92h.43c-.65.41-1.64.51-2.06,1.14-.57.84-.36,2.22-1.28,2.7-.95.49-4.87-.42-6.75-.43v-.07ZM275.84,130.6c.05-.07.09-.14.14-.21,0-.49-.08-.56-.21-.85-1.88.03-3.9,1.53-5.54,2.13,1.64-2.28,7.47-4.79,10.58-5.75,1.37-.31,2.75-.62,4.12-.92h.28c-.84.51-1.99.63-2.41,1.56-.21.64-.43,1.28-.64,1.92-.56.73-2.17.95-3.05,1.35-2.11.96-4.39,1.72-6.53,2.77-1.29.63-2.88,1.54-4.33,1.7-.09-.09-.19-.19-.28-.28h-.14c2.67-1.14,5.35-2.27,8.02-3.41ZM250.13,79.75v14.77c0,2.3.34,5.39-.21,7.31-.45.25-1.2.38-1.85.43.05-.3-.04-.51-.28-.71-1.44-.09-2.89-.19-4.33-.28v-21.52c1.8.38,4.82.54,6.6,0h.07ZM6.13,170.51s.09-.05.14-.07c.03.15.03.04-.14.14v-.07ZM1.23,182.22c0-1.89-.23-4.08.21-5.68.45-1.62,1.32-3.6,2.56-4.54.52-.4,1.04-.8,1.56-1.21-.07.07-.14.14-.21.21.02.65.08,1,.85.85.57-.24,1.14-.47,1.7-.71,2.11-.51,4.65-.03,6.82.21-3.05,1.07-6.11,2.13-9.16,3.2-1.11.42-2.72.51-3.34,1.42-.62.92-.43,5.02-.21,6.18,2.91.48,6.17.74,9.37.71.45-.52.9-1.04,1.35-1.56h.07c.67.6.58,1.67,1.78,1.78-.41.51-.63,1.42-.71,2.06-.19-.19-.38-.38-.57-.57-1.31-.02-1.69,1.43-1.78,2.56h-.07c-.14-.19-.28-.38-.43-.57h-.85c-.44.64-.88,1.44-.99,2.41-.05.02-.09.05-.14.07-.19-.19-.38-.38-.57-.57-.24.02-.47.05-.71.07-.48.67-.86,1.55-.99,2.56-.17-.21-.33-.43-.5-.64-.31.02-.62.05-.92.07-.39.7-.62,1.47-.92,2.34-.52-.19-.51-.44-1.35-.43-.52.76-.68,1.7-1.14,2.63-.89-3.44-.71-8.43-.71-12.85ZM16,184.92c.37.14.59.56.78.85h.71c.33-.5.77-1.83.85-2.7.07-.05.14-.09.21-.14.21.31.43.62.64.92.24-.02.47-.05.71-.07.19-.62.38-1.23.57-1.85.18.06.64.67.78.99h.78c.55-.48,1.21-1.26,1.49-1.99.47.66.95,1.33,1.42,1.99h.71c.45-.54.9-1.09,1.35-1.63v-.14c.53.73.16,3.39.14,4.47-.78-.05-.78.58-1.21,1.07-.38.19-.76.38-1.14.57-.02-.02-.05-.05-.07-.07-.86.72-1.05-.06-1.78.36-.26.38-.52.76-.78,1.14-.59.31-1.18.62-1.78.92-.31-.17-.58-.32-.99-.21-.48.27-.46.72-.78,1.14-.62.36-1.23.71-1.85,1.07-.26-.4-.71-.38-1.28-.28-.24.87-1.23,1.97-2.13,2.13-.38-.12-.76-.24-1.14-.36-.64.46-.73,1.03-1.21,1.63-.95.5-1.89.99-2.84,1.49-1.33-.07-2.65-.14-3.98-.21.02-.38.05-.76.07-1.14.28.26.57.52.85.78.14-.02.28-.05.43-.07.53-.34.92-2.04.99-2.77.05-.02.09-.05.14-.07.2.38.47.66.78.92.17-.02.33-.05.5-.07.53-.35.9-2.17.99-2.91.25.34.47.73.85.92.17.02.33.05.5.07.49-.71.75-1.83.99-2.77.21.07.71.56.92.85h.28c.66-.45,1.02-1.91,1.14-2.84.28.28.57.57.85.85h.57c.45-.68.84-1.87.92-2.84ZM15.15,182.58c.26-.38.52-.76.78-1.14.24.09.47.19.71.28-.12.47-.24.95-.36,1.42-.41-.28-.41-.54-1.14-.57ZM26.01,180.66c-.07.05-.14.09-.21.14-.43-.66-.85-1.33-1.28-1.99-.07-.02-.14-.05-.21-.07-.93.02-1.8,1.49-1.99,2.06-.05.02-.09.05-.14.07-.47-.71-.95-1.42-1.42-2.13-.19.02-.38.05-.57.07-.57.31-1.3,1.45-1.56,2.06-.05.02-.09.05-.14.07-.47-.73-.95-1.47-1.42-2.2-.17.02-.33.05-.5.07-.74.4-1.01,1.45-1.63,1.99-.02.05-.05.09-.07.14-.57-.72-.87-1.6-1.56-2.2-1.36.26-1.45,2.16-2.63,2.63-2.58-.17-5.16-.33-7.74-.5.09-1.42.19-2.84.28-4.26,1.24-.84,3.37-.99,4.97-1.7,3.1-1.09,6.2-2.18,9.3-3.27,4.45-1.08,9.36,4.32,9.37,7.81-.28.4-.57.8-.85,1.21ZM3.22,199.69c-.22-.18-.21-.47-.28-.78v-1.28c1.33.19,7.29.87,8.24.43.86-.4,1.54-1.98,1.85-2.91.47.4.95.8,1.42,1.21h.71c.52-.97,1.04-1.94,1.56-2.91.02-.05.05-.09.07-.14.47.38.95.76,1.42,1.14h.57c.63-.4,1.27-2.15,1.49-2.91.05-.02.09-.05.14-.07.45.38.9.76,1.35,1.14h.78c.47-1.02.95-2.04,1.42-3.05.05-.02.09-.05.14-.07.52.45,1.04.9,1.56,1.35.21-.05.43-.09.64-.14.26-.64.52-1.28.78-1.92.22.5.14,6.18-.07,6.46-1.96.62-3.93,1.23-5.89,1.85-4.03,1.27-8.48,3.84-13.42,3.05-1.36-.22-3.4.18-4.47-.43ZM11.95,201.4c-.05.21-.09.43-.14.64-1.55-.05-2.62-.5-3.98-.64.78.05,1.56.09,2.34.14.84.12,1.46-.15,2.06-.28-.09.05-.19.09-.28.14ZM19.76,202.6v-.57c-1.81-.75-5.09-.77-7.46-.78v-.07c4.76-1.54,9.52-3.08,14.27-4.62.02.02.05.05.07.07-.86,1.8-1.77,3.41-3.55,4.26v.64c.19.07.38.14.57.21-.96.61-2.35.88-3.91.85ZM45.61,190.89c-1.05,5.06-4.79,7.8-10.94,7.67v-.07c1.7-.69,3.41-1.37,5.11-2.06v-.78c-1.16-.62-3.32.91-4.33,1.35-3.74,1.51-7.48,3.03-11.22,4.54.9-1.08,2.28-1.74,2.98-3.05.65-1.23.5-2.59,1.07-4.05.15-.15.24-.14.57-.14.54-.86.21-7.61.21-9.3,0-2.29.44-4.56-.14-6.46-1.08-3.49-3.7-7.14-7.17-8.31-1.6-.54-3.21-.33-5.11-.71-1.45-.29-3.44-.43-4.9-.28-.05.19-.09.38-.14.57-1.94-.02-3.49.21-5.11.64,4.78-2.22,9.56-4.45,14.34-6.68.2-.31.21-.53.14-.99-1.49-.19-2.94.94-4.12,1.56,1.22-1.93,3.06-3.24,5.4-4.05.83-.07,1.66-.14,2.49-.21,10.87.16,18.23,1.05,20.67,9.94.81,2.97.43,7.15.43,10.72,0,3.29.39,7.21-.21,10.16ZM58.96,185.42c-1.93,2.93-5.07,3.82-8.52,5.26-1.3.54-2.6,1.09-3.91,1.63,1.24-2.17.71-8.37.71-11.72,0-3.61.32-7.61-.43-10.72-1.71-7.08-7-10.63-16.19-10.65v-.07c1.23-.54,2.46-1.09,3.69-1.63.78-.28,1.89-.14,2.77-.5,5.03-.02,11.62.33,14.63,2.56,1.68,1.25,3.09,3.44,4.05,5.4.52,1.35,1.04,2.7,1.56,4.05,1.07,1.69,2.08,4.24,2.56,6.32.74,3.19.37,8.12-.92,10.08ZM80.05,175.19c-1.09,1.41-3.38,1.9-5.26,2.77-4.69,2.01-9.37,4.02-14.06,6.04,2.2-5.14-.88-12.21-2.27-15.48,5.7-.78,11.41-1.56,17.11-2.34,4.26.07,7.27,5.39,4.47,9.02ZM238.34,37.71c-1.59-3.66-2.95-6.7-5.82-9.02-.54-.52-1.09-1.04-1.63-1.56-.28.02-.57.05-.85.07-.69-.28-1.37-.57-2.06-.85-4.53-1.11-10.23,1.78-12.71,3.2-10.24,5.84-18.15,13.18-26.35,21.38-12.7,12.7-23.64,27.01-35.22,40.83-6.39,7.63-12.71,15.41-18.75,23.36-3.79,4.59-7.58,9.19-11.36,13.78-5.18,6.7-11.09,12.73-16.33,19.32-1.51,1.59-3.03,3.17-4.54,4.76-1.69,2.12-3.7,3.92-5.61,5.82-4.58,4.58-9.41,9.01-14.91,12.64-.05-1.97-1.12-4.15-2.49-4.83-.14-.17-.28-.33-.43-.5,4.72-2.6,8.16-6.82,12.21-10.08,3.18-2.57,6.24-5.9,8.81-9.09,1.14-1.18,2.27-2.37,3.41-3.55,3.42-4.29,7.16-8.31,10.65-12.57,11.11-13.53,22.51-27.03,33.23-40.9,7.16-9.26,14.58-18.53,22.51-27.06,1.68-1.96,3.36-3.93,5.04-5.89.95-.97,1.89-1.94,2.84-2.91,2.5-3.1,5.43-5.86,8.24-8.66,7.4-7.4,15.12-14.94,24.36-20.45,2.27-1.07,4.55-2.13,6.82-3.2,1.96-.47,3.93-.95,5.89-1.42,2.01.02,4.02.05,6.04.07,5.72,1.47,9.57,5.21,12.14,9.87,6.48,11.72,8.46,29.54,8.31,48.08-1.94.3-4.19.21-6.11,0,.02-14.2-.88-30.37-5.33-40.62ZM241.61,105.67c.83-.8,1.66-1.61,2.49-2.41,1.04.09,2.08.19,3.12.28.58.54.51,1.99,1.07,2.34.23.38,1.96.59,2.56.57.11-.22.15-.46.14-.85-.48-.59-1.03-1.47-1.42-2.41.28-.09.57-.19.85-.28.29.76,1.37,1.72,1.99,2.2.02,9.11.05,18.23.07,27.34-1.51.12-2.46-.68-3.76-.99-2.3-.55-4.73-.52-7.39-.5-.02-8.43-.05-16.85-.07-25.28h.36ZM188.56,190.11c-.32-.74-.53-1.39-.78-1.99h-.14c1.4-.62,2.79-1.23,4.19-1.85.72.1.99.47,1.21,1.07-.05.19-.09.38-.14.57-.33.75-3.46,1.86-4.33,2.2ZM190.76,185.42c.32-.47.67-.6,1.14-.92,4.14-.17,4.44,5.33.64,5.18,2.86-1.47,1.67-5.46-1.78-4.26ZM204.4,189.96c-1.57,1.24-7.52,3.61-10.44,2.7-1.27-.4-2.15-1.31-3.2-1.85l-.21-.28c.98-.23,1.61.57,2.84.36,1.83-.32,3.65-2.14,2.91-4.69-.98-3.38-6.39-4.29-7.03-.14-.19.09-.38.19-.57.28.15-.89.07-2.28.5-3.27,1.59-3.65,5.62-4.75,9.23-6.39.92.05,1.85.09,2.77.14,3.53,1.09,7.53,6.41,4.83,11.08-.54.69-1.09,1.37-1.63,2.06ZM205.39,190.67v-.07c1.5-.34,2.85-1.31,4.12-1.92.05-.07.09-.14.14-.21-.02-.46-.09-.5-.21-.78-1.07.03-1.53.58-2.34.92h-.07c.28-.9.57-1.8.85-2.7.79-4.14-1.63-7.29-3.69-8.95-.79-.63-1.85-.76-2.77-1.28.03-.61,3.24-.97,4.4-.64,2.6.73,4.07,2.59,5.11,4.9.3.07.5.1.71-.07.07-.02.14-.05.21-.07,0-3.16-4.81-6.75-8.59-6.04-1.64.31-2.78,1.14-4.26,1.56,1.3-2.04,2.94-1.91,5.33-2.84,5.1-.06,8.09,3.39,9.23,7.1,1.91,6.2-2.54,11.18-8.17,11.08ZM212.64,188.97c5.11-6.8,1.17-17.44-7.6-17.61v-.07c1.11-.62,2.23-1.23,3.34-1.85.14.09.12,0,.28-.07,1.85-1.04,3.69-2.08,5.54-3.12,2.01-1.04,4.02-2.08,6.04-3.12,3.4-2.34,7.18-3.56,10.65-5.82,1.87-1.21,4.31-2.78,6.6-3.62.88-.21,1.75-.43,2.63-.64,11.37-.12,18.06,12.86,10.94,21.8-2.79,3.51-8.48,4.24-13.07,5.82-8.45,2.77-16.9,5.54-25.35,8.31ZM239.55,186.91c-2.53-.65-4.81-2.05-6.96-2.98-.05-.07-.09-.14-.14-.21,2.67-.88,5.35-1.75,8.02-2.63,2.6-.78,5.21-1.56,7.81-2.34,4.23-1.91,8.6-9.17,6.32-16.19-.51-1.58-1.15-3.16-1.99-4.47-2.22-3.47-9.23-8.58-15.62-5.68-1.51.68-2.44,1.49-3.76,2.27-3.69,1.99-7.39,3.98-11.08,5.97v-7.74c.23-1.37.46-2.94.85-4.12,2.62-7.93,6.18-12.66,13.71-15.84,1.48-.62,3.46-.26,5.04-.85,2.25-.02,7.8.64,8.59,1.63.24.3.1.67.36.92.77.77,2.34,1.27,3.12,2.27.46,0,.59-.06.85-.21,1.05.64,2.58,2.43,2.98,3.48.5.48-.19.34.07,1.07.49,1.38,1.41,2.7,2.06,4.19,1.78,4.09,3.22,11.89,2.2,18.18v5.18c-.33,1.82-.37,3.59-.92,5.18-2.45,7-10.72,15.7-21.52,12.92ZM255.39,132.44c7.36,2.97,10.93,7.81,13.71,15.41.78,2.13,1.18,6.93.71,9.8v3.2c-.36,2.49.04,5.14-.5,7.39-1.74,7.23-5.56,11.93-11.72,14.63.95-1.09,1.89-2.18,2.84-3.27,1.47-1.52,2.44-5.31,3.2-7.81.77-2.56-.13-5.67.43-8.66.32-1.73.38-4.5.07-6.25v-2.2c-.24-1.68-.47-3.36-.71-5.04-1.11-4.28-2.87-7.45-4.83-10.51-1.03-1.6-2.61-3.6-4.33-4.47-.02-.05-.05-.09-.07-.14,2.29,1.15,3.61,3.31,5.68,4.54.5.21,1.26,0,1.78-.07l.21-.28v-.57c-1.18-2.44-5.33-3.62-6.46-5.68ZM252.26,190.96c-.09.21-.19.43-.28.64-1.45-.51-3.45-.58-4.97-1.07-1.63-.66-3.27-1.33-4.9-1.99-.02-.05-.05-.09-.07-.14,5.63.04,8.89-1.37,12.71-3.05,7.63-3.35,11.91-6.02,14.84-13.71.73-1.91.82-4,1.21-6.25.05-1.66.09-3.31.14-4.97v-3.05c.74-3.75-.36-9.49-1.42-12-1.65-3.93-3.82-7.79-7.03-10.3-.78-.57-1.56-1.14-2.34-1.7,9.71,4.57,13.49,9.12,18.11,18.46,2.68,5.42,2.44,14.68.64,20.59-3.34,10.95-11.89,18.76-26.63,18.53ZM267.53,188.76c.83-.54,1.66-1.09,2.49-1.63.12.05-1.75,1.42-2.49,1.63ZM282.23,164.4c-.4,2.44-.08,4.54-.85,6.6-1.42,3.79-2.63,6.86-4.76,9.94-.73.8-1.47,1.61-2.2,2.41-1.12,1.43-2.64,2.86-4.26,3.76,1.02-.88,2.04-1.75,3.05-2.63,3.12-3.81,5.76-7.45,7.31-13.07,3.37-12.19-2.07-24.22-7.31-30.32-2.14-2.49-4.74-4.31-7.53-6.18-3.13-2.09-7.22-4.08-12.07-4.26v-.43c13.38,1.05,23.02,10.96,26.7,21.16.82,2.27,1.26,4.71,1.78,7.24.33,1.63.42,4.06.14,5.75ZM283.01,168.94h-.07c.02-.19.05-.38.07-.57.33.02.66.05.99.07-.33.17-.66.33-.99.5ZM313.62,158.08c.69-.73,1.37-1.47,2.06-2.2.38-.57.76-1.14,1.14-1.7,1.83-1.38,4.84-1.47,6.53-3.12-.09-.24-.19-.47-.28-.71-.93.01-6.33,2.41-7.03,2.91-.85.61-1.95,2.9-2.91,3.76-2.81,2.52-6.41,4.14-10.3,5.75.69-.76,1.37-1.52,2.06-2.27.31-.5.62-.99.92-1.49,1.39-.9,5.83-1.85,6.53-3.05v-.71c-.96-.13-6.37,2.27-7.31,2.84-.73,1.02-1.47,2.04-2.2,3.05-2.7,2.93-11.22,7.83-16.76,7.74v-.07c1.25-.52,2.51-1.04,3.76-1.56.02-.24.05-.47.07-.71l-.21-.28c-.07-.02-.14-.05-.21-.07,3.86-1.68,7.72-3.36,11.58-5.04.1-.21.15-.4.14-.78v-.07c-.88-.56-3.62,1.21-4.54,1.56-3.03,1.3-6.06,2.6-9.09,3.91-1.35.69-2.4,1.55-4.33,1.49.15-4.12.13-8.2-.64-11.79-.12-.92-.24-1.85-.36-2.77-2.03-3.61-3.55-8.31-6.32-11.43-1.37-1.47-2.75-2.94-4.12-4.4-.58-.54-1.59-.86-1.99-1.56-.05-.05-.09-.09-.14-.14,4.33-1.82,8.66-3.65,13-5.47,1-.54.59-2.16,1.35-2.91,1.44-.62,2.89-1.23,4.33-1.85,1.73.58,4.15.38,5.4,1.21,1.07.52,2.13,1.04,3.2,1.56,3.21,2.28,6.47,4.95,8.17,8.52.32,0,.42.01.57-.14.07-.02.14-.05.21-.07.01-1.61-1.25-2.43-1.92-3.41-1.87-2.72-4.52-4.74-7.39-6.46-.88-.38-1.75-.76-2.63-1.14h-.14c.52-.55.8-2.59,1.56-3.05,8.07-4.94,17.74,4.19,20.67,9.59h.57c.09-.12.19-.24.28-.36-.05-1.46-1.49-2.68-2.27-3.69-2.3-2.98-5.69-5.99-9.59-7.03.36-.97.71-1.94,1.07-2.91.6-.88,2.52-.94,3.48-1.49,5.52-3.18,13.42,2.58,16.26,5.82,1.77,2.02,2.99,4.63,4.26,6.96.95,1.74.91,3.88,1.35,6.11.58,2.93-.12,6.59-.99,8.81-3.6,9.16-8.35,10.48-16.83,14.34ZM335.85,147.35c-1.42.94-2.94,1.46-4.47,2.34-1.35.66-2.7,1.33-4.05,1.99,1.94-2.98,3.83-4.81,4.97-8.95,3.73-13.56-5.76-24.43-14.2-27.91-2.06-.85-4.62-1.26-7.46-1.21v-.07c2.08-.8,4.17-1.61,6.25-2.41,1.29-.54,2.76-.37,4.12-.92,8.23-.06,13.87,2.79,17.19,7.39.83,1.21,1.66,2.41,2.49,3.62,0,0,1.16,3.17,1.49,3.98,1.44,3.45,1.53,11.32-.36,14.42-1.71,2.81-3.11,5.85-5.97,7.74ZM342.81,123.14c-1.25-2.66-2.56-4.74-4.26-6.96-1.03-1.34-2.83-2.07-3.83-3.41,5.79,2.69,8.9,6.24,10.58,13.21.52,2.15.17,7.44-.99,8.66,0,.05,0,.1,0,.14v-.14s0,0,0,0c.02-1.47.05-2.93.07-4.4-.51-2.57-.58-5.02-1.56-7.1ZM341.46,142.67c.79-1.17.98-2.5,1.7-3.83.7-1.28,1.63-2.38,2.27-3.69,4.42-9.09-2.42-19.85-8.38-22.65-2.93-1.38-6.88-1.59-9.8-3.05,1.09-.14,2.18-.28,3.27-.43,9.32.04,14.66,6.18,17.19,12.5,3.47,8.67-.76,17.72-6.25,21.16ZM347.78,137.41c.54-1.12,1.26-2.59,1.63-4.05,2.63-10.34-2.98-18.81-8.95-22.51-1.46-.9-3.19-2.1-5.26-2.34.17-.05.33-.09.5-.14,8.14-.07,13.82,5.17,15.98,11.01,2.49,6.72.46,14.75-3.91,18.04ZM349.84,113.91c-.88-.9-1.75-1.8-2.63-2.7-.5-.38-.99-.76-1.49-1.14,5.29,1.96,9.23,6.19,9.23,13.35,0,2.19-.32,3.97-1.21,5.33v.14h-.07c.68-6.46-1.01-11.27-3.83-14.98ZM351.97,134c.25-1.16,1.07-1.81,1.63-2.63.95-1.37,1.69-2.87,2.13-4.62,2.23-8.76-3.65-15.33-9.16-17.68-1.34-.57-2.73-.29-4.33-.71-.52-.17-1.04-.33-1.56-.5.24-.19.75-.16,1.07-.28,7.43-.06,11.79,3.74,14.06,8.52,3.23,6.79.88,14.4-3.83,17.9ZM356.44,130.6c4.22-7.29,1.07-16.84-4.33-20.74-1.23-.89-3.94-3.12-5.82-2.91.3-.28,1.08-.2,1.49-.36,7.45-.05,11.2,3.55,13.35,8.73,2.7,6.51-.94,12.59-4.69,15.27ZM362.12,125.27c3.04-7.73-1.97-17.21-7.95-18.75-.02-.05-.05-.09-.07-.14.26-.02.52-.05.78-.07,9.85-.09,14.82,13.41,7.24,18.96ZM362.55,107.87c-.66-.45-1.33-.9-1.99-1.35,4.54,2.23,7.16,7.04,6.04,13.85h-.07c.52-5.54-.59-10-3.98-12.5ZM366.1,121.79h-.07c.02-.12.05-.24.07-.36v.36ZM366.45,120.87h-.07c.02-.14.05-.28.07-.43v.43ZM379.24,113.62c-1.56,3.29-5.34,5.23-8.45,6.96-1.42.92-2.84,1.85-4.26,2.77,3.28-7.3.83-13.69-4.54-17.26-.83-.55-2.2-1.48-3.69-1.56v-.07c4.19-.99,8.38-1.99,12.57-2.98,5.65-.07,11.19,6.22,8.38,12.14ZM456.78,76.84c-5.7,2.35-11.07,5.51-16.76,7.95-4.39,1.89-8.84,3.93-12.78,6.25-1.75.8-3.5,1.61-5.26,2.41-4.05,2.04-8.1,4.07-12.14,6.11-1.53.87-3.18,1.36-4.47,2.2-8.33,3.93-16.67,7.86-25,11.79,1.98-5.05-1.57-11.24-5.33-12.36-.02-.05-.05-.09-.07-.14,5.8-2.65,11.6-5.3,17.4-7.95,2.7-1.35,5.4-2.7,8.1-4.05,3.95-1.87,7.91-3.74,11.86-5.61.88-.47,1.75-.95,2.63-1.42,7.31-3.53,14.63-7.05,21.94-10.58,8.52-3.91,17.04-7.81,25.57-11.72,2.01-.85,4.02-1.7,6.04-2.56.97-.21,1.94-.43,2.91-.64,1.51.84,3,.93,4.05,2.2.36.44,1.02.96,1.28,1.42.83,1.46.76,5.02,0,6.46-1.01,1.92-4.15,2.96-6.25,3.91-4.57,2.11-9.14,4.21-13.71,6.32ZM472.62,70.87v-.07c10.55-2.76,5.56-19.62-6.04-13.99,1.03-1.39,2.49-1.42,4.26-2.13,4.6-.06,7.39,2.65,8.45,6.11,1.63,5.28-1.97,10.11-6.68,10.08ZM478.09,69.74c.87-1.18,1.72-2.01,2.2-3.55,2.05-6.59-3.07-12.67-9.02-12.57.59-.96,2.38-1.45,3.41-2.2,2.32-1.51,4.64-3.03,6.96-4.54.95-.26,1.89-.52,2.84-.78,2.06-.02,3.65.14,5.04.78,4.81,2.21,9.12,9.58,5.26,15.91-2.42,3.95-4.75,3.57-9.37,5.11-2.44.62-4.88,1.23-7.31,1.85ZM509.33,62.21c2.42-1.25,4.47-3.65,5.61-6.18,4.29-9.54-3.13-18.83-10.65-20.31-4.45-.87-7.21,1.19-10.72,1.7,1.1-1.47,3.44-2.47,5.4-3.05.73-.14,1.47-.28,2.2-.43,8.95-.06,13.97,4.97,16.05,11.5,2.93,9.24-3.53,19.22-12.07,19.17,1.23-1.13,2.6-1.59,4.19-2.41ZM509.12,60.93c6.16-9.57.01-23.02-10.44-23.79.71-.17,1.42-.33,2.13-.5,7.91-.07,11.52,4.21,13.63,9.73,2.11,5.51-1.51,13.34-5.33,14.56ZM498.11,33.52c1.46-1.61,4.2-2.65,6.68-3.2.62-.07,1.23-.14,1.85-.21,8.79-.07,14.92,5.66,16.97,12.14,3.08,9.72-1.83,17.81-8.38,20.59-1.15.49-2.45,1.1-4.05,1.14v-.07c1.36-.3,2.66-1.77,3.48-2.7,3.25-3.68,5.98-10.37,3.2-17.26-2-4.94-5.45-8.25-10.3-10.3-1.34-.57-2.86-.51-4.47-.78-1.82-.31-3.59.4-4.97.64ZM514.94,64.27c6.65-2.68,12.28-9.83,10.23-19.96-.36-1.8-.9-4.15-1.78-5.33-3.18-4.28-5.14-7-10.51-9.09-4.43-1.73-10.61-.51-13.78,1.49-1.37.87-2.44,2.08-3.69,3.05-.93.73-2.68,1.68-3.2,2.77-.07.05-.14.09-.21.14,2.43-6.82,7.61-10.48,14.27-13,1.5-.57,3.33-.47,4.9-1.14,12.64-.08,18.51,6.8,21.87,15.62,1.93,5.06,1.25,12.61-1.07,16.69-.14.4-.28.8-.43,1.21-1.6,2.15-3.16,4.39-5.33,5.97-3.58,2.61-11.1,5.88-17.68,4.47-1.37-.43-2.75-.85-4.12-1.28-.02-.05-.05-.09-.07-.14,3.57-.28,7.69-.33,10.58-1.49ZM495.42,38.13c8.52-.07,12.46,4,14.56,10.3.82,2.45,1.02,7.17-.28,9.37-2.52,4.26-4.37,6.43-10.3,7.6.52-.4,1.04-.8,1.56-1.21,1.59-1.31,2.72-3.68,3.34-5.68,2.52-8.21-3.57-15.01-8.66-16.97-1.85-.71-4.42-.65-6.68-.43,1.77-1.85,3.86-1.94,6.46-2.98ZM490.23,41.97c6.88-.05,10.74,3.37,12.64,8.24,3.01,7.73-2.28,15.97-9.52,16.05.85-.24,1.7-.47,2.56-.71,3.05-1.17,5.31-3.98,6.25-7.03,2.05-6.62-2.39-13.06-6.6-14.84-1.37-.58-2.78-.8-4.54-1.07-2.73-.41-5.12,1.25-6.68,2.2,1.47-1.89,3.53-1.83,5.89-2.84ZM486.18,45.02c.87-1.06,2.68-.81,4.12-1.35,6.06-.05,9.17,3.88,10.79,8.1,2.26,5.86-2.23,12.06-6.46,13,.97-1.32,1.83-2.66,2.27-4.26,2.16-7.86-4.06-15.35-10.72-15.48ZM548.82,17.33v10.23c-.12,12.43-.24,24.86-.36,37.28-.02,3.57-.05,7.15-.07,10.72-.09.61.07,1.27-.14,1.7-.43.86-2.13,1.51-3.62,1.28-3.55-.36-7.1-.71-10.65-1.07-13.02-1.33-26.04-2.65-39.06-3.98-2.75-.28-5.49-.57-8.24-.85-1.26-.2-3.05.08-3.55-.85-.05-.71-.09-1.42-.14-2.13,2.32-.57,4.64-1.14,6.96-1.7.54-.24,1.09-.47,1.63-.71,1.82-.26,3.6,0,5.33-.36,1.78-.31,3.55-.62,5.33-.92.99.47,1.99.95,2.98,1.42,1.43.62,3.19.76,4.83,1.07,3.1.59,6.11-.42,8.38-.92,2.69-.59,5.07-.9,7.03-2.2,4.72-3.15,8.11-6.94,9.94-13,.49-1.62.36-3.15.71-5.04.27-1.46.15-3.6-.14-4.97-2.05-9.74-6.51-15.18-14.49-19.17-3.11-1.56-8.61-2.5-12.92-1.35-1.77.47-3.54,1.12-5.04,1.92-4.18,2.23-8.59,5.6-11.08,9.94-.45.99-.9,1.99-1.35,2.98-.21.71-.43,1.42-.64,2.13-.66.43-1.33.85-1.99,1.28-1.75,1.42-3.5,2.84-5.26,4.26.02-8.5.05-17,.07-25.49-.08-1.2-.25-5.81.28-6.68.65-1.05,5.4-2.36,6.82-2.98,4.36-1.85,8.71-3.69,13.07-5.54,2.18-.85,4.36-1.7,6.53-2.56.64.02,1.28.05,1.92.07-5.21,2.18-10.42,4.36-15.62,6.53-1.97.86-4.92,1.35-6.39,2.77.02.17.05.33.07.5.84.4,2.08.11,3.2.28,3.27.14,6.53.28,9.8.43,15.01.71,30.02,1.42,45.02,2.13,1.19.48.85,2.03.85,3.55ZM571.61,15.13c-.05,4.57-.09,9.14-.14,13.71v10.23c-.05,5.63-.09,11.27-.14,16.9,0,3.73.17,7.71-.21,11.22-2.08,1.35-4.64,2.24-7.03,3.27-4.76,2.15-9.52,4.31-14.27,6.46.14-15.69.28-31.39.43-47.08.02-3.95.05-7.91.07-11.86.05-1.54.13-3.75-.57-4.62-1.51-1.86-10.22-.85-13.49-1.35-13.96-.64-27.93-1.28-41.9-1.92v-.14c6.44-2.65,12.88-5.3,19.32-7.95,13.56.5,27.13.99,40.69,1.49,3.95.14,7.91.28,11.86.43,2.04.32,3.96-.19,5.26.71.5,2.06.49,8.17.14,10.51ZM573.74,8.66c-.02,3.88-.05,7.76-.07,11.65-.09,11.08-.19,22.16-.28,33.23-.61,4.03.42,8.94-.28,12.71-.17.14-.33.28-.5.43.12-15.08.24-30.16.36-45.24.02-4,.05-8,.07-12,0-1.61.41-3.97-.14-5.33-.26-.31-.52-.62-.78-.92.43.09.85.19,1.28.28.68,1.19.37,3.5.36,5.18ZM574.6,41.83h-.07s.05-.09.07-.14v.14ZM575.59,27.41c.36-2.32-.47-4.63-.85-6.32.02-2.22.05-4.45.07-6.68,3.73,5.26,5.18,15.48,1.56,21.8-.58,1.01-.86,2.18-1.7,2.91-.2-4.52.32-7.9.92-11.72ZM578.36,37.28c-.95,1.39-2.01,3.45-3.55,4.19,3.52-4.99,7.06-12.25,4.4-20.95-.54-1.76-1.17-3.56-1.99-5.11-1.18-2.25-2.47-2.56-2.41-6.25,1.47,1.09,2.57,2.89,3.48,4.54,3.98,7.19,4.99,16.39.07,23.58Z"/>
      <path class="cls-1" d="M570.41,8.45c-.31-.02-.62-.05-.92-.07-4.47,1.94-8.95,3.88-13.42,5.82-1.28.53-4.28,1.31-4.9,2.41-1.24,2.2-.71,9.31-.71,12.64-.07,10.37-.14,20.74-.21,31.1.02,3.88.05,7.76.07,11.65.15.61.42,1.17.92,1.42.96.42,2.13-.51,2.77-.85,2.11-.95,4.21-1.89,6.32-2.84,1.83-.76,9.38-3.61,10.16-4.97,1.06-1.86.64-7.52.64-10.37.05-7.88.09-15.77.14-23.65.05-5.51.09-11.03.14-16.55,0-2,.36-5.09-.99-5.75ZM570.27,19.46c-.02,3.34-.05,6.68-.07,10.01-.05,6.94-.09,13.87-.14,20.81-.62,3.63.97,11.69-.57,14.06-.49.75-3.6,1.8-4.62,2.2-3.24,1.44-6.49,2.89-9.73,4.33-1.07.46-2.29,1.42-3.55,1.56-.89-3.86-.21-9.29-.21-13.56.05-9.35.09-18.7.14-28.05,0-2.8-.41-12.74.71-13.85,5.85-2.51,11.69-5.02,17.54-7.53h.28c.64,2.77.22,6.89.21,10.01Z"/>
      <path class="cls-1" d="M318.02,127.75c-.17.31-.19.43-.14.85,1.12.62,3.65.37,5.26.36.17-.29.22-.45.14-.85-.83-.75-3.9-.38-5.26-.36Z"/>
      <path class="cls-1" d="M307.51,132.23c-.07.07-.14.14-.21.21.02.24.05.47.07.71.94.5,3.75.52,4.97.36.02-.26.05-.52.07-.78-.99-.63-3.47-.5-4.9-.5Z"/>
      <path class="cls-1" d="M296.58,136.92c-.07.14-.14.28-.21.43-.24.96,4.22,1.14,4.69.85.05-.05.09-.09.14-.14.02-.19.05-.38.07-.57-.95-.66-3.2-.59-4.69-.57Z"/>
      <path class="cls-1" d="M287.63,150.05c-.78.53-1.15.9-1.56,1.99-.71,1.88-.7,9.32.71,10.01,1.18.51,1.99-.49,2.41-1.07.43-.78.85-1.56,1.28-2.34,1.16-3.03.7-8.67-2.84-8.59ZM287.98,151.4c.76.29.86,1.11,1.07,1.85-.12.58-1.63.95-2.06,1.14h-.07c.05-1.39.34-2.29,1.07-2.98ZM286.85,155.73c.17-.09.33-.19.5-.28.26.15.23.24.21.64-.21.12-.43.24-.64.36-.05-.02-.09-.05-.14-.07.02-.21.05-.43.07-.64ZM287.41,160.85c-.12-.07-.24-.14-.36-.21-.07-.69-.14-1.37-.21-2.06.69-.31,1.37-.62,2.06-.92.27.93-.8,2.85-1.49,3.2ZM289.69,156.02h-.85c-.05-.38-.09-.76-.14-1.14.33-.14.66-.28.99-.43v1.56Z"/>
      <path class="cls-1" d="M211.15,184.85c.12.05.24.09.36.14.17-.02.33-.05.5-.07.27-.49.38-1.12.36-1.92-.22-.11-.46-.15-.85-.14-.29.48-.38,1.18-.36,1.99Z"/>
      <path class="cls-1" d="M210.65,185.56c-.39.56-.73.75-.71,1.78.28.02.57.05.85.07.36-.53.66-.74.64-1.7-.26-.05-.52-.09-.78-.14Z"/>
    </g>
  </g>
</svg>