<?xml version="1.0" encoding="UTF-8"?>
<svg id="Layer_2" data-name="Layer 2" xmlns="http://www.w3.org/2000/svg" viewBox="0 0 129.63 195.19">
  <defs>
    <style>
      .cls-1 {
        fill-rule: evenodd;
      }
    </style>
  </defs>
  <g id="Layer_1-2" data-name="Layer 1">
    <g>
      <path class="cls-1" d="M127.68,11.48c-.98-.44-1.99-.88-2.96-1.32-.63-.28-1.39-.88-2.11-.95-4.48,2.43-8.92,4.89-13.4,7.35.09-4.23.19-8.48.25-12.71-.13-.28-.54-.47-.79-.66-.38-.32-.76-.63-1.17-.95-1.61-.76-3.25-1.48-4.86-2.24-.57.06-1.55.76-1.99,1.04-1.61.85-3.18,1.7-4.76,2.55-5.39,2.9-10.75,5.8-16.11,8.67-18.79,10.12-37.59,20.28-56.38,30.4-5.14,2.74-10.25,5.52-15.39,8.29-1.89,1.01-3.82,2.02-5.71,3.03-.79,1.32-1.55,2.65-2.3,3.97.19,11.19.38,22.39.54,33.58.38,21.79.73,43.61,1.1,65.4.09,5.74.19,11.48.28,17.22.03,1.7.06,3.44.09,5.14.03.41-.06.88.03,1.2,1.67.95,3.34,1.86,4.98,2.77.47.25,1.48,1.01,2.02,1.01,4.04-2.43,8.07-4.89,12.08-7.35.03.03.06.03.06.03.03,3.53.09,7.06.13,10.56.16,1.04-.28,3.09.06,3.85,1.67.91,3.34,1.86,4.98,2.77.47.25,1.51,1.01,2.08,1.04,23.87-14.82,47.77-29.64,71.67-44.46,5.77-3.59,11.54-7.16,17.31-10.75,2.14-1.29,4.29-2.62,6.43-3.91.66-1.2,1.32-2.4,1.99-3.59,1.26-39.79,2.52-79.62,3.78-119.41-.66-.54-1.29-1.04-1.96-1.58ZM115.31,13.59c1.7-.95,3.41-1.89,5.11-2.84.54-.28,1.7-1.17,2.36-1.17,1.48.66,2.93,1.36,4.41,2.05l-.03.03L53.38,52.44c-5.99,3.41-12.01,6.75-18.1,10-1.83,1.01-3.66,2.02-5.49,3.03-.57.35-1.61,1.1-2.27,1.23-1.55-.76-3.06-1.51-4.57-2.27,0-.03.03-.06.03-.09,24.5-13.46,49.03-26.93,73.57-40.39,6.24-3.47,12.49-6.91,18.76-10.34ZM8.99,181.53c-.32-.16-.63-.32-.95-.47-.16-10.78-.32-21.6-.44-32.42-.06-3.03-.13-6.05-.16-9.05,0-.69-.19-3.09,0-3.47.35,1.1.73,2.24,1.07,3.37.44,1.42.88,2.81,1.32,4.23,1.67,2.59,3.31,5.2,4.98,7.82,2.05,1.7,4.13,3.44,6.18,5.14.06,5.83.09,11.64.16,17.47-4.07,2.46-8.1,4.92-12.17,7.38ZM21.1,175.42c-2.71,1.61-5.39,3.22-8.07,4.82-.76.47-1.55.95-2.33,1.42-.25.16-.44.38-.76.44-.22-.13-.44-.28-.63-.41v-.03c3.94-2.36,7.91-4.76,11.86-7.16.03.32.06.66-.06.91ZM14.98,151.26c-1.61-2.52-3.22-5.08-4.82-7.6-.91-2.9-1.86-5.8-2.77-8.7l-.09-8.23c-.38-2.43-.57-5.08-.16-7.6-.03-3.85-.06-7.66-.13-11.51.85-3.97,1.67-7.98,2.52-11.95.66-1.92,1.36-3.82,2.02-5.74.91-2.71,1.83-5.39,2.77-8.1.88-1.77,1.77-3.56,2.65-5.36,1.07-2.27,2.18-4.54,3.25-6.81.28,28.85.54,57.74.79,86.59-2.02-1.67-4-3.31-6.02-4.98ZM20.21,68.96c-.25.57-.5,1.1-.79,1.67-1.8,3.69-3.63,7.41-5.42,11.13-.79,2.24-1.55,4.51-2.3,6.78-.82,2.3-1.64,4.64-2.46,6.97l-1.23,5.96c-.32,1.58-.66,3.15-1.01,4.7-.22-14.98-.44-29.99-.63-44.97.66-1.23,1.36-2.46,2.05-3.69,2.62-1.39,5.23-2.81,7.85-4.19,9.81-5.36,19.61-10.69,29.45-16.02-2.74,2.52-5.49,5.05-8.2,7.57-3.03,3.66-6.02,7.28-9.05,10.94-1.45,2.3-2.9,4.6-4.35,6.91-.22.35-.44.69-.69,1.04-.35.32-.88.32-1.14.76-.69,1.26-1.39,2.52-2.08,3.78v.66ZM106.71,17.94c-5.42,3-10.85,5.96-16.27,8.96-1.61-.76-3.25-1.55-4.86-2.3-1.26-.16-2.52-.32-3.78-.5-1.64-.22-3.28-.44-4.92-.69-1.51.25-3.03.5-4.54.76-1.1.16-2.18.35-3.28.5,8.89-4.82,17.78-9.65,26.68-14.47,2.4-1.29,4.79-2.59,7.19-3.88.76-.41,1.51-.82,2.27-1.23.28-.16.6-.44.98-.5.28.22.57.47.88.69-.06,3.15-.13,6.27-.22,9.4-.09.66.19,2.96-.13,3.28ZM77.03,23.71c2.81.41,5.61.79,8.39,1.17,1.55.76,3.09,1.48,4.67,2.21-.03,0-.06.03-.06.03-22.01,12.08-43.99,24.19-66,36.26.69-1.04,1.36-2.08,2.05-3.12.88-1.45,1.8-2.87,2.68-4.29,1.42-1.7,2.81-3.37,4.23-5.05,2.93-3.78,6.09-7.44,9.81-10.44,1.36-1.26,2.74-2.55,4.13-3.85,2.87-1.55,5.77-3.09,8.64-4.67,1.01-.69,2.05-1.39,3.06-2.08.63-.25,1.29-.54,1.96-.79,1.17-.47,2.21-1.04,3.31-1.61,1.45-.82,2.9-1.61,4.35-2.4,2.93-.47,5.87-.91,8.8-1.39ZM22.1,65.62c.16-.28.32-.91.66-.98,1.51.76,3.06,1.55,4.57,2.3-.66,1.23-1.36,2.46-2.02,3.69-1.58-.79-3.12-1.58-4.7-2.36.5-.88.98-1.77,1.48-2.65ZM107.43,5.49c.28.16.73.16.73.57-.06,2.77-.16,5.55-.22,8.32-.16.91.22,2.27-.16,3-.22.13-.47.25-.69.38.06-2.9.13-5.8.22-8.73,0-.57-.03-3.37.13-3.53ZM2.71,54.14c24.56-13.21,49.13-26.46,73.66-39.67,6.02-3.34,12.17-6.46,18.23-9.84,1.83-.98,3.66-1.96,5.46-2.96.54-.28,2.02-1.26,2.62-1.32,1.45.66,2.9,1.36,4.38,2.02-.03.03-.03.06-.06.09-24.88,13.46-49.79,26.9-74.67,40.36-5.68,3.12-11.35,6.24-17.09,9.27-1.83.98-3.66,1.96-5.52,3-.6.32-1.89,1.26-2.55,1.36-1.48-.76-2.96-1.51-4.45-2.27v-.03ZM2.43,54.39c1.14.6,2.3,1.17,3.44,1.77.28.16.98.28,1.1.63-.66,1.17-1.32,2.33-1.99,3.53-1.51-.79-3.06-1.55-4.6-2.3.69-1.23,1.36-2.43,2.05-3.63ZM6.62,182.7c-1.42-.79-2.84-1.61-4.29-2.4-.47-28.69-.95-57.42-1.42-86.12-.19-11.95-.38-23.9-.57-35.85,1.51.76,3.03,1.55,4.54,2.3.41,28.76.82,57.52,1.23,86.3.13,8.36.25,16.74.38,25.1.03,2.52.09,5.01.13,7.54,0,.69.19,2.59,0,3.12ZM11.89,182.2c-.6.38-2.33,1.64-2.96,1.77-.66-.35-1.29-.69-1.92-1.04-.6-40.8-1.2-81.61-1.77-122.41.69-1.26,1.42-2.52,2.11-3.78,1.7-.91,3.37-1.8,5.08-2.71,5.42-2.93,10.85-5.87,16.3-8.83,18.79-10.18,37.59-20.37,56.38-30.56,5.33-2.77,10.63-5.68,15.89-8.58,1.42-.79,2.81-1.58,4.26-2.33.57-.28,1.51-1.07,2.18-1.14.6.47,1.17.95,1.73,1.42-.06,2.9-.13,5.83-.22,8.77,0,.95-.03,1.89-.06,2.84,0,.32.09.98-.06,1.17-.22.13-.41.22-.6.35.06-3.82.16-7.66.22-11.48-.66-.54-1.32-1.04-1.96-1.58-.57.06-1.64.82-2.08,1.1-1.45.79-2.9,1.58-4.35,2.36-5.39,2.9-10.78,5.83-16.18,8.77-7.19,3.88-14.41,7.79-21.6,11.7-1.26.54-2.52,1.07-3.78,1.61-1.04.73-2.08,1.42-3.09,2.11-8.86,4.79-17.69,9.59-26.52,14.38-4.95,2.68-9.87,5.36-14.82,8.04-1.92,1.04-3.88,2.08-5.83,3.12-.73,1.29-1.48,2.59-2.21,3.88.09,6.46.19,12.93.28,19.39.03,3.31.06,6.65.09,9.96.06,2.65.09,5.33.13,8.01.03,1.96.06,3.94.09,5.9.03,2.02.06,4,.09,5.99,0,1.32.03,2.65.03,4,.03.63.03,1.29.03,1.96.19,1.14.13,2.55-.06,3.59-.03.88-.09,1.77-.16,2.65.09.82.16,1.67.25,2.52.16,1.01,0,2.14.19,3.22.16,12.61.35,25.23.54,37.84.03,3.59.09,7.16.13,10.75,0,.79-.09,3.94.16,4.38.76.25,1.39.98,2.21,1.14,3.72-2.27,7.44-4.51,11.13-6.75.03.28.03.57.03.88-3.09,1.86-6.21,3.72-9.3,5.61ZM26.01,193.61c-1.48-.82-2.93-1.64-4.38-2.46-.28-30.52-.54-61.05-.82-91.57-.06-7.69-.13-15.42-.19-23.11-.03-1.96-.03-3.91-.06-5.83,0-.41-.06-1.89.06-2.02,1.51.76,3.03,1.51,4.57,2.3.19,28.98.41,57.99.6,86.97.09,8.51.16,17,.22,25.51,0,2.24,0,4.48.03,6.72.06.54.13,3.09-.03,3.5ZM125.56,132.31c-.28.5-.57,1.01-.85,1.51-.38.66-.73,1.32-1.07,1.99-1.61.98-3.22,1.96-4.79,2.96-5.2,3.22-10.41,6.43-15.61,9.68-17.5,10.85-35,21.69-52.5,32.54-5.14,3.15-10.25,6.34-15.36,9.49-1.67,1.04-3.37,2.11-5.05,3.15-.5.32-1.42,1.1-2.02,1.2-.66-.32-1.29-.66-1.96-1.01-.25-41.02-.54-82.02-.82-123.04.73-1.26,1.45-2.55,2.18-3.82,2.05-1.1,4.1-2.24,6.15-3.37,5.9-3.25,11.82-6.53,17.75-9.78,25.32-14,50.64-28.03,75.96-42.03.47.57,1.42.85,1.77,1.55-1.26,39.67-2.52,79.34-3.78,118.97Z"/>
      <path class="cls-1" d="M90.09,27.09s-.06.03-.06.03c-22.01,12.08-43.99,24.19-66,36.26.69-1.04,1.36-2.08,2.05-3.12.88-1.45,1.8-2.87,2.68-4.29,1.42-1.7,2.81-3.37,4.23-5.05,2.93-3.78,6.09-7.44,9.81-10.44,1.36-1.26,2.74-2.55,4.13-3.85,2.87-1.55,5.77-3.09,8.64-4.67,1.01-.69,2.05-1.39,3.06-2.08.63-.25,1.29-.54,1.96-.79,1.17-.47,2.21-1.04,3.31-1.61,1.45-.82,2.9-1.61,4.35-2.4,2.93-.47,5.87-.91,8.8-1.39,2.81.41,5.61.79,8.39,1.17,1.55.76,3.09,1.48,4.67,2.21Z"/>
      <path class="cls-1" d="M21,156.24c-2.02-1.67-4-3.31-6.02-4.98-1.61-2.52-3.22-5.08-4.82-7.6-.91-2.9-1.86-5.8-2.77-8.7l-.09-8.23c-.38-2.43-.57-5.08-.16-7.6-.03-3.85-.06-7.66-.13-11.51.85-3.97,1.67-7.98,2.52-11.95.66-1.92,1.36-3.82,2.02-5.74.91-2.71,1.83-5.39,2.77-8.1.88-1.77,1.77-3.56,2.65-5.36,1.07-2.27,2.18-4.54,3.25-6.81.28,28.85.54,57.74.79,86.59Z"/>
      <path class="cls-1" d="M98.73,13.19c-.23.88-.35,2.19-.03,3.08.35.97,1.49,1.6,2.48,1.91,1.04.33,1.94-.34,2.48-.74,1.4-1.05,3.39-4.24,2.53-6.92-.43-1.33-1.66-1.53-2.9-2.05-2.37,0-4.06,2.79-4.56,4.73ZM100.21,14.1c.52-1.94,1.96-4.77,4.33-4.76,3.35,1.42.51,6.62-1.05,7.83-.49.38-1.34,1.01-2.25.68-1.15-.41-1.41-2.32-1.03-3.76ZM99.02,13.33c.5-1.86,2-4.57,4.3-4.56.26.09.51.17.77.26v.03c-2.06.27-3.58,2.77-4.07,4.67-.15.56-.38,1.35-.26,2.14.1.59.32,1.01.43,1.48h-.03c-1.32-.64-1.62-2.24-1.14-4.01Z"/>
      <path class="cls-1" d="M101.01,13.87c-.28,1.11,0,2.33.77,2.68.79.36,1.51-.33,1.88-.63.89-.71,2.52-3.88.94-5.04-.17-.13-.38-.13-.6-.23-1.69.02-2.65,1.83-2.99,3.22ZM101.32,13.87c.33-1.26,1.16-2.79,2.62-2.9,2.13.83.36,3.89-.51,4.76-.28.28-.93.8-1.54.54-.68-.3-.8-1.51-.57-2.39Z"/>
      <path class="cls-1" d="M126.64,13.34c-.57.03-1.61.82-2.08,1.1-1.51.82-3.03,1.67-4.51,2.49-5.36,2.96-10.69,5.93-16.02,8.86-18.32,10.15-36.64,20.28-54.96,30.43-5.17,2.84-10.31,5.71-15.48,8.58-1.67.88-3.34,1.8-5.01,2.71-.73,1.32-1.48,2.62-2.21,3.94.13,21.92.28,43.83.41,65.75.09,13.15.19,26.33.25,39.48.03,3.69.06,7.38.09,11.07,0,.88-.16,3.97.13,4.45.76.25,1.36,1.01,2.18,1.14,23.65-14.66,47.27-29.29,70.92-43.96,5.55-3.44,11.1-6.87,16.68-10.31,1.96-1.23,3.91-2.43,5.9-3.63.66-1.2,1.32-2.36,2.02-3.56.73-23.43,1.45-46.86,2.18-70.32.5-15.55.98-31.09,1.45-46.64-.25-.5-1.45-1.14-1.92-1.58ZM26.68,71.55c.69-1.26,1.39-2.52,2.08-3.78,3.03-1.64,6.02-3.28,9.05-4.95,11.19-6.21,22.42-12.42,33.65-18.64-1.23.82-2.46,1.64-3.69,2.46-3.25,3.06-6.5,6.12-9.74,9.14-2.93,3.56-5.87,7.16-8.77,10.72-2.62,4.1-5.27,8.2-7.88,12.33-1.14,2.4-2.27,4.76-3.44,7.16-1.04,2.11-2.08,4.23-3.09,6.34-1.61,4.54-3.18,9.08-4.76,13.62-.32,1.51-.66,3-.98,4.51-.6,2.84-1.2,5.64-1.83,8.48-.16.73-.03,2.36-.32,3-.09-16.81-.19-33.61-.28-50.39ZM27.06,136.66v-5.17c0-.73,0-1.45-.03-2.18,0-1.61-.13-3.25.13-4.7.09-1.7.22-3.37.35-5.05.73-3.37,1.42-6.75,2.14-10.12.25-1.14.5-2.27.76-3.41.98-2.74,1.92-5.49,2.9-8.23.63-1.83,1.26-3.66,1.89-5.49,1.01-2.08,2.02-4.13,3.03-6.18l3.41-7.09c1.48-2.33,3-4.7,4.51-7.03,1.1-1.77,2.21-3.53,3.31-5.27,1.42-1.73,2.84-3.44,4.26-5.17,2.84-3.63,5.83-7.22,9.4-10.09,1.64-1.55,3.31-3.09,4.95-4.64,1.14-.79,2.3-1.55,3.47-2.33,1.01-.69,2.05-1.42,3.06-2.11,1.45-.79,2.87-1.58,4.32-2.33.76-.44,1.51-.88,2.3-1.32.98-.41,1.96-.82,2.96-1.23,1.14-.5,2.3-1.01,3.44-1.51,1.36-.19,2.71-.41,4.07-.63,1.07-.19,2.18-.38,3.25-.54.66-.16,1.32-.32,2.11-.32,2.68.35,5.36.69,8.04,1.07,1.01.5,2.02,1.04,3.03,1.58,1.36.66,2.68,1.32,4,2.02,1.96,2.02,3.88,4.07,5.8,6.09.57,1.17,1.14,2.33,1.7,3.5.76,1.51,1.55,3,2.3,4.51l2.36,10.03c.09,1.96.16,3.91.25,5.87.03.79.09,1.58.13,2.36.25,1.64.16,3.56-.09,5.08-.09,1.01-.22,2.05-.32,3.06-.22,2.3-.44,4.6-.69,6.91-.32,1.48-.66,2.96-1.01,4.41-.63,2.74-1.29,5.52-1.92,8.26-1.55,4.29-3.09,8.58-4.64,12.87-.91,1.89-1.86,3.75-2.77,5.64-1.07,2.24-2.14,4.48-3.22,6.72-2.43,3.85-4.82,7.69-7.25,11.54-1.29,1.64-2.62,3.25-3.91,4.89-2.87,3.78-5.93,7.28-9.43,10.47-1.36,1.32-2.68,2.65-4,3.97-1.1.79-2.21,1.58-3.28,2.36-2.02,1.48-4,2.96-5.99,4.45-3.12,1.55-6.21,3.12-9.33,4.67-1.83.44-3.66.91-5.49,1.36-1.2.32-2.4.63-3.59.95-1.58-.03-3.12-.06-4.67-.13-1.32,0-2.65-.03-3.97-.06-2.43-.91-4.89-1.8-7.35-2.68-1.32-1.1-2.65-2.24-3.97-3.34-.82-.66-1.64-1.36-2.46-2.05-1.55-2.46-3.09-4.95-4.64-7.44-.5-1.67-1.04-3.37-1.55-5.05-.47-1.61-.98-3.18-1.48-4.76-.16-1.83-.35-3.66-.5-5.46-.03-.5-.03-1.01-.06-1.51ZM27.43,191.94c-.09-16.71-.19-33.42-.28-50.14.28,2.74,1.01,4.67,1.73,6.94.47,1.58.95,3.15,1.42,4.7.69,1.1,1.36,2.18,2.05,3.25.91,1.48,1.83,2.96,2.74,4.45,1.07.91,2.14,1.8,3.25,2.71,1.04.88,2.08,1.77,3.12,2.65,1.32.47,2.65.95,3.97,1.42,1.23.47,2.46.91,3.72,1.39,1.55,0,3.06.03,4.6.06,1.36.03,2.71.06,4.04.09,2.93-.76,5.87-1.48,8.8-2.21.54-.19,1.04-.5,1.51-.76.95-.47,1.92-.95,2.87-1.42,1.8-.88,3.59-1.8,5.39-2.68,1.42-1.07,2.84-2.11,4.29-3.18,1.67-1.23,3.34-2.43,5.01-3.66,1.32-1.32,2.65-2.65,4-3.97.54-.54,1.07-1.04,1.58-1.58,2.81-2.24,5.11-5.36,7.32-8.23,1.45-1.83,2.9-3.63,4.38-5.46,1.1-1.77,2.21-3.56,3.28-5.33,1.36-2.11,2.68-4.19,4-6.31.95-1.99,1.92-3.97,2.87-5.96,1.04-2.08,2.05-4.13,3.09-6.21,1.55-4.35,3.12-8.67,4.7-13.02.98-4.23,1.99-8.48,2.96-12.71.22-2.11.44-4.23.63-6.34.13-1.01.22-2.02.32-3.03.32-1.73.47-3.82.19-5.71-.06-.79-.09-1.58-.13-2.36-.09-2.08-.19-4.16-.28-6.24-.79-3.28-1.55-6.56-2.33-9.84-.82-1.61-1.64-3.22-2.46-4.82-.54-1.14-1.1-2.24-1.67-3.37-1.04-1.1-2.11-2.21-3.15-3.31-.88-.91-1.73-1.83-2.59-2.77-1.23-.6-2.43-1.2-3.63-1.8-1.17-.63-2.33-1.26-3.5-1.86-1.73-.22-3.47-.47-5.2-.69-.73-.09-1.45-.19-2.14-.28-.38-.06-.88-.22-1.36-.13-1.67.28-3.37.57-5.08.85-1.32.22-2.62.44-3.94.66-1.2.5-2.4,1.04-3.63,1.55,10.34-5.71,20.69-11.45,31.03-17.15,2.65-1.48,5.3-2.96,7.98-4.41.79-.44,1.61-.91,2.4-1.36.32-.16.63-.47,1.04-.5.28.22.54.44.82.69-1.2,38.91-2.4,77.82-3.59,116.73-.63,1.14-1.26,2.27-1.89,3.41-1.55.95-3.09,1.89-4.64,2.84-4.98,2.96-9.78,6.18-14.79,9.14-17.72,10.97-35.47,21.95-53.2,32.92-5.08,3.12-10.12,6.24-15.2,9.4-1.26.76-2.55,1.55-3.82,2.33-.5.32-1.17,1.01-1.83,1.07-.25-.16-.54-.28-.79-.44ZM122.5,135.31c-22.17,13.72-44.33,27.46-66.5,41.18-6.34,3.82-12.52,7.88-18.86,11.67-1.83,1.1-3.66,2.24-5.49,3.41-.47.32-1.83,1.36-2.33,1.42-.22-.13-.44-.28-.66-.41v-.03c22.89-14.13,45.79-28.28,68.68-42.44,5.83-3.75,11.79-7.41,17.75-11,1.61-.98,3.22-1.99,4.82-2.96.47-.32,1.39-1.1,1.96-1.17.22.09.47.22.69.32t-.06.03ZM124.14,132.59c-.44.82-.88,1.64-1.32,2.46-.32-.03-.54-.22-.79-.35.44-.79.85-1.58,1.29-2.4.16-.25.28-.73.54-.85.25.13.47.25.69.35-.03.32-.25.54-.41.79ZM125.59,101c-.25,7.6-.47,15.17-.73,22.77-.06,1.8-.13,3.63-.16,5.46-.09.57.13,1.96-.13,2.3-.22-.09-.44-.22-.69-.35,1.23-38.82,2.43-77.66,3.63-116.48.25.13.5.22.76.35-.88,28.66-1.8,57.29-2.68,85.96Z"/>
      <path class="cls-1" d="M126.38,19.82c-.41-1.37-1.75-1.54-2.99-2.08-2.41.02-3.99,2.85-4.53,4.84-.23.85-.43,2.3-.03,3.16.43.92,1.51,1.5,2.51,1.82,1.03.33,1.92-.34,2.45-.74,1.44-1.09,3.4-4.28,2.59-7ZM124.27,18.4c-2.39.22-3.93,3.65-4.33,6.07-.16.97.25,1.64.4,2.28h-.03c-1.31-.52-1.66-2.18-1.22-3.9.49-1.95,1.98-4.66,4.21-4.78.37.14.72.1.97.34ZM123.65,26.54c-.46.37-1.39,1.09-2.28.71-1.16-.49-1.31-2.4-.94-3.84.49-1.91,2.02-4.75,4.36-4.73,3.32,1.35.32,6.71-1.14,7.86Z"/>
      <path class="cls-1" d="M124.81,20.22c-.18-.13-.4-.13-.63-.23-1.69.06-2.63,1.86-2.99,3.27-.27,1.09-.04,2.35.8,2.68.71.27,1.34-.26,1.71-.54.82-.64,2.77-4.03,1.11-5.18ZM123.59,25.09c-.27.27-.94.85-1.57.54-.63-.31-.74-1.49-.51-2.33.36-1.32,1.13-2.81,2.62-2.99,2.15.84.3,3.95-.54,4.78Z"/>
      <path class="cls-1" d="M124.24,72.68c-.03-.82-.06-1.61-.09-2.4-.13-2.21-.22-4.41-.32-6.65-.76-3.18-1.55-6.4-2.3-9.59-1.32-2.68-2.68-5.36-4.04-8.04-.82-.88-1.64-1.73-2.46-2.62-1.1-1.14-2.18-2.3-3.25-3.44-2.36-1.2-4.7-2.4-7.03-3.63-2.71-.35-5.42-.69-8.14-1.07-.82,0-1.61.22-2.33.38-.98.16-1.92.32-2.9.47-1.36.22-2.71.44-4.07.66-1.23.54-2.46,1.07-3.69,1.61-2.02.85-4,1.73-6.02,2.59-2.02,1.36-4.04,2.74-6.02,4.13-1.23.82-2.46,1.61-3.69,2.43-1.36,1.29-2.68,2.55-4.04,3.82-.73.66-1.42,1.32-2.14,1.99-2.81,2.3-5.11,5.17-7.35,8.04-1.55,1.89-3.12,3.75-4.67,5.64-1.2,1.92-2.43,3.85-3.66,5.77l-4.16,6.53c-1.1,2.3-2.24,4.64-3.34,6.94-1.01,2.08-2.02,4.16-3.06,6.21-.66,1.96-1.32,3.88-1.99,5.8-.88,2.55-1.77,5.08-2.68,7.6-.22,1.07-.47,2.18-.69,3.25-.73,3.37-1.45,6.75-2.18,10.09-.16,2.21-.28,4.41-.44,6.65-.06.88-.16,1.8-.22,2.71-.13.95-.22,1.96-.22,2.93,0,1.07.09,2.11.25,3.09.09,1.01.19,2.02.28,3.03.16,1.83.35,3.63.5,5.46.98,3.25,1.99,6.46,2.96,9.71.91,1.42,1.83,2.87,2.74,4.29.66,1.07,1.29,2.11,1.96,3.15,1.29,1.1,2.59,2.18,3.88,3.25.82.69,1.64,1.39,2.46,2.05,2.43.91,4.89,1.8,7.32,2.68,1.17.03,2.3.06,3.47.09,1.7.03,3.41.09,5.11.13,1.23-.32,2.46-.63,3.69-.95,1.77-.44,3.53-.88,5.3-1.32,1.23-.6,2.43-1.23,3.66-1.83,1.89-.95,3.78-1.89,5.68-2.84,2.4-1.77,4.76-3.53,7.16-5.3.66-.47,1.32-.95,1.99-1.42,1.58-1.55,3.15-3.09,4.7-4.64,1.45-1.39,2.87-2.81,4.32-4.19,1.39-1.77,2.77-3.53,4.16-5.33,1.32-1.64,2.65-3.28,3.97-4.92,2.36-3.78,4.73-7.57,7.13-11.35,1.17-2.46,2.33-4.92,3.53-7.35.79-1.67,1.61-3.31,2.43-4.95,1.51-4.19,3-8.36,4.51-12.55.66-2.77,1.29-5.58,1.96-8.36.35-1.45.66-2.9,1.01-4.35.22-2.43.47-4.82.69-7.25.35-1.92.73-4.79.38-6.84ZM85.26,38.03c.69-.32,1.42-.63,2.14-.95,1.45-.25,2.9-.47,4.35-.73,1.48-.25,2.96-.47,4.48-.73,1.39,1.04,2.77,2.11,4.16,3.15,1.89,1.48,3.66,3.12,5.3,4.86,1.14,1.14,2.36,2.27,3.37,3.53,2.96,3.72,5.58,7.6,8.04,11.82,2.3,3.94,3.72,8.45,5.71,12.71-.03-.03-.06-.03-.09-.06-.22-.28-.44-.6-.66-.88-.73-.91-1.48-1.77-2.21-2.68-2.18-2.68-5.2-4.82-9.27-5.64-1.07-.19-2.81-.44-4.1-.19-1.67.32-3.22.54-4.67,1.01-4.6,1.45-8.39,4-11.86,6.62-1.17.88-2.21,1.99-3.37,2.9-1.48,1.2-2.9,2.62-4.16,4.04-1.29,1.45-2.71,2.74-3.91,4.29-.38.5-1.04.98-1.29,1.58-3.63.25-6.46,1.17-9.37,2.11-2.08.69-4.16,1.26-6.05,2.02.47-4.23,1.64-8.45,2.9-12.01,2.08-5.93,4.41-11.23,7.47-16.14,1.89-3,4.13-5.71,6.27-8.48,1.04-1.17,2.08-2.33,3.12-3.53.44-.44.88-.85,1.32-1.29.6-.76,1.36-1.48,2.08-2.11.6-.6,1.2-1.23,1.83-1.83.69-.69,1.39-1.36,2.11-2.05.25-.25.66-.5.57-1.01-.76-.38-3.47-.06-4.41.09-.25.06-.69.16-.95.06l1.14-.47ZM122.82,72.21c-.47.13-.98.22-1.45.35-2.43-3.22-5.71-6.91-9.65-8.55-1.29-.54-2.68-.91-4.19-1.2-.66-.03-1.32-.06-1.99-.09,1.01-.06,2.11-.22,3.31-.22.57.09,1.17.16,1.77.22.98.22,1.89.44,2.74.82,3.34,1.39,5.83,3.97,7.88,6.68.54.66,1.04,1.32,1.58,1.99ZM100.34,97.66c-.6-1.32-1.48-2.62-2.33-3.72l-1.14-1.14c-.76-.95-4.13-3.37-5.61-3.44-.13-1.07-.66-2.05-1.14-2.81-.32-.54-.63-1.07-.91-1.61-.38-.28-.73-.6-1.07-.88-.44-.41-.88-.79-1.32-1.2-1.07-.54-2.14-1.07-3.18-1.64-1.14-.54-2.24-1.1-3.37-1.67,0,0,.03-.03.03-.06,1.1-1.14,2.18-2.27,3.28-3.44,2.33-2.33,4.79-4.6,7.5-6.59,1.04-.76,2.08-1.48,3.18-2.21.28-.19.57-.5.98-.57.32.25.6.5.91.73,1.04,1.04,2.08,2.21,2.87,3.5,2.05,3.28,3.53,7.47,4.54,11.76.35,1.51.41,3.09.66,4.7.25,1.42.09,2.93.32,4.41.03.88.03,1.73.06,2.62v2.43c-.09,1.96-.16,3.91-.25,5.83-.32,1.99-.32,4-.66,5.9-.32,1.99-.66,3.97-.98,5.93h-.03c.44-6.46-.44-12.39-2.33-16.84ZM90.12,145.52c.5-.98,1.01-1.96,1.51-2.93,1.36-2.55,2.68-5.2,3.82-7.95,2.02-4.82,3.56-9.87,4.76-15.58.35-1.73.32-3.47.6-5.3.03-.73.06-1.42.09-2.14.13-.85.06-2.11-.06-2.87-.16-.91-.06-1.86-.19-2.68-.28-1.58-.35-3.03-.76-4.45-.82-2.93-2.02-5.33-3.66-7.44-1.04-1.36-2.52-2.36-4.07-3.28-.25-.16-1.04-.85-.76-1.23.6.25,1.23.5,1.83.76.47.32.98.6,1.48.91,2.08,1.32,4.26,3.97,5.3,6.34.88,2.05,1.51,4.29,1.99,6.78.73,3.69.73,9.68,0,13.37-.38,1.86-.5,3.53-.95,5.27-1.48,5.77-3.53,10.88-5.71,15.89-1.42,2.77-2.81,5.55-4.19,8.29-.47-.38-.91-.76-1.36-1.14.03-.28.22-.44.32-.63ZM90.03,144.99c1.99-4.51,3.5-9.37,4.79-14.44,1.14-4.38,1.8-9.02,2.81-13.5.57-3.25,1.1-6.46,1.67-9.68.19-1.42.41-2.84.6-4.26.09,1.14.35,2.43.54,3.63.06.98.13,1.96.19,2.96-.03.91-.06,1.86-.06,2.77-.06.98-.13,1.96-.19,2.93-.22,1.39-.41,2.74-.69,4-.09.35.03.57-.03.91-.32,1.8-.76,3.53-1.26,5.23-1.14,3.85-2.59,7.44-4.1,10.88-.95,2.21-2.05,4.23-3.09,6.31-.32.63-.73,1.77-1.17,2.24ZM53.51,157.76c-2.27,1.1-4.79,2.08-7.47,2.74-1.96.47-3.91.91-5.87,1.36-.13-.54-.82-1.42-.73-1.92,1.17-.25,2.3-.5,3.47-.79,2.62-.66,5.08-1.2,7.38-2.18,7.6-3.15,13.43-8.51,18.1-14.63,2.49-3.22,4.92-6.56,6.97-10.25,1.42-2.59,2.81-5.46,3.75-8.48.32-1.1.63-2.21.98-3.31.13-.6.28-1.23.41-1.83.66-.66,1.36-1.32,2.02-2.02-.03,1.39-.47,2.9-.79,4.13-.91,3.5-2.05,6.5-3.37,9.46-2.24,5.14-5.39,9.46-8.58,13.65-4.32,5.61-9.62,10.78-16.27,14.06ZM58.78,154.92c-.6.41-1.23.98-1.92,1.26.63-.41,1.29-.85,1.92-1.26ZM55.69,156.91c-.57.32-1.14.63-1.7.95-1.36.79-2.77,1.51-4.19,2.3-1.1.6-2.18,1.2-3.28,1.8-.63.38-1.32.85-2.05,1.1-1.42.47-3.53-.03-4.29-.88.85-.22,1.7-.41,2.55-.6,2.96-.76,5.74-1.29,8.32-2.36.88-.41,1.8-.85,2.71-1.26.63-.35,1.29-.69,1.92-1.04ZM56.32,119.63c-.79.98-1.55,1.96-2.33,2.93-.5.6-1.04,1.2-1.55,1.8-.09-.09-.16-.16-.22-.22-.32-.32-.63-.66-.91-.98-.73-.91-1.45-1.86-2.05-2.84-1.26-2.02-2.02-4.16-2.84-6.72v-.03c1.32.03,2.55-.03,3.82-.03,2.55,1.32,5.11,2.68,7.63,4-.41.76-1.04,1.42-1.55,2.08ZM58.11,117.71h.16c1.7.88,3.41,1.77,5.11,2.65-.03.06-.03.09-.03.16-.35.28-.69.57-1.04.85-.6.38-1.17.79-1.77,1.2-2.11,1.26-4.89,2.36-8.2,2.36.03-.03.03-.06.06-.06.5-.6,1.04-1.2,1.58-1.8,1.07-1.39,2.24-2.71,3.25-4.16.32-.41.6-.79.88-1.2ZM47.27,117.27c.82,1.8,1.77,3.5,2.9,5.01.66.79,1.32,1.58,1.99,2.36-.06.06-.13.16-.22.25-1.77,0-4.35-.41-5.46-1.1-.41-.22-1.04-1.89-1.29-2.43-.98-2.4-1.86-4.98-2.08-8.17h.09c.73.09,1.45.22,2.18.32.22.03.44.03.66.03.13.38.22.76.32,1.14.32.88.63,1.73.91,2.59ZM43.67,118.12c.38,1.26.82,2.49,1.32,3.63.32.6.6,1.2.91,1.77-2.33-.5-3.56-5.11-4.23-7.5-.13-.76-.28-1.55-.44-2.3-.06-.28-.16-.85.03-.95.41.22,1.01.25,1.51.38.03.44.09.91.13,1.36.22,1.23.41,2.49.76,3.63ZM42.98,120.74c.28.54.54,1.07.82,1.61-2.68-1.64-4.54-4.41-5.68-7.66-.25-.73-.41-1.64-.63-2.43-.06-.19-.22-.73-.13-.79.63.41,2.55,1.07,3.44,1.17.13,3.09,1.17,5.8,2.18,8.1ZM42.32,121.59c2.74,2.14,6.84,4.45,12.17,3.47.82-.19,1.64-.35,2.43-.54,1.83-.63,3.47-1.48,4.95-2.49.38-.25,1.58-1.39,1.83-1.45.13,0,1.73.85,1.8.95-.47.82-1.86,1.67-2.65,2.24-2.81,1.96-7.82,4.16-12.8,2.87-1.83-.47-3.41-1.17-4.79-2.02-1.77-1.1-3.25-2.46-4.41-4.16-.13-.22-1.01-1.45-1.01-1.64.54,1.07,1.58,2.05,2.49,2.77ZM64.64,120.74c-.25-.16-.5-.35-.76-.5-2.02-.98-4-1.89-5.87-3-.47-.22-.91-.44-1.39-.66-1.2-.66-2.43-1.29-3.66-1.96-.6-.32-1.7-.66-2.14-1.1,2.52-.06,2.77-1.26,4.13-2.33,1.7-1.36,2.9-3.03,4.26-4.7.6-.79,1.29-1.48,1.89-2.27.28-.28.57-.54.82-.82.09-.28-.22-1.07-.32-1.42-.28-1.1-.22-2.36-.41-3.59-.03-.63-.03-1.29-.06-1.92-.13-.79-.09-1.92.03-2.65.03-.88.06-1.73.13-2.62.13-1.32.28-2.68.44-4.04.91-.35,1.8-.69,2.71-1.04,1.17-.35,2.3-.66,3.47-1.01.54-.19,1.07-.41,1.61-.63,1.2-.35,2.46-.54,3.59-.91.79-.22,1.67-.32,2.62-.47.54-.09,1.29.03,1.7-.19.25-.35.54-.66.82-1.01.54-.66,1.07-1.51,1.77-2.05h.06c2.14,1.07,4.29,2.14,6.43,3.18,1.42.91,3.03,2.74,3.78,4.35,2.74,5.96.66,14.47-1.7,19.33-.32.69-.63,1.39-.91,2.08-2.43,4.7-6.53,9.55-11.23,12.01-1.51.79-3.82,1.83-6.12,1.64-.47,0-.95-.03-1.42-.03-1.51-.32-3.06-.98-4.29-1.67ZM66.16,121.81c.38.13.79.28,1.17.41,2.43.95,5.17.54,7.44-.25-.16.35-.28.73-.41,1.1-.22.35-1.86,1.07-2.33,1.32-1.86,1.1-4.04,1.7-6.34,2.33-1.29.38-2.71.69-4.29.69.03-.03.03-.06.03-.09.41-.44.82-.88,1.23-1.32.79-.98,1.7-1.86,2.46-2.87.32-.44.63-.88.95-1.32h.09ZM63.54,127.55c1.14-.25,2.27-.54,3.37-.79,1.58-.47,3.03-1.01,4.45-1.64.95-.5,1.86-1.04,2.81-1.55-.32.79-.63,1.55-.91,2.3-.32.32-1.99.79-2.52,1.01-1.61.63-3.44,1.04-5.3,1.42-.88.09-1.8.19-2.68.25-.82.13-1.64-.09-2.4-.13.09-.13.22-.25.35-.38.13-.09.22-.19.35-.28.85-.06,1.67-.16,2.49-.22ZM65.56,128.59c1.64-.35,3.28-.63,4.76-1.2.88-.35,1.8-.73,2.71-1.07-.16.35-.28.69-.44,1.01-.38.88-.73,1.64-1.14,2.43-.16.32-.32.66-.44.98-.5.35-1.96.63-2.65.85-1.2.38-2.52.69-3.85,1.01-.79.16-1.48.13-2.33.25-.73.09-1.67.16-2.49.03-.63-.09-1.29-.19-1.92-.28-.6-.16-1.17-.32-1.73-.47,0-.03.03-.06.03-.09.35-.25.66-.5.98-.76,1.04-.82,1.96-1.77,3-2.55,1.8.03,3.85.25,5.52-.13ZM73.34,126.41c.44-1.04.85-2.11,1.26-3.15.16-.44.32-.91.5-1.36.22-.35,1.64-.91,2.08-1.1,1.1-.54,1.96-1.39,2.9-2.05-.16,1.26-.63,2.55-.98,3.66-1.04,3.25-2.21,6.28-3.78,8.96-.79,1.32-1.45,2.65-2.24,3.94-1.39,2.4-3.18,4.57-4.82,6.72-4.51,5.9-9.9,10.75-16.93,14.09.06-.06.13-.16.22-.25.69-.35,1.23-1.17,1.83-1.64,1.29-1.04,2.36-2.4,3.53-3.56,2.43-2.46,4.7-5.01,6.81-7.82,1.1-1.45,2.24-2.9,3.15-4.48.79-1.36,1.83-2.62,2.55-4,1.36-2.62,2.68-5.2,3.91-7.95ZM63.76,150.82c.38-.38.76-.76,1.1-1.17.41-.38.82-.76,1.2-1.17.54-.6,1.1-1.23,1.64-1.83,1.77-2.24,3.69-4.35,5.33-6.72,1.77-2.59,3.22-5.3,4.82-8.07.38-.85.79-1.7,1.17-2.52,1.04-2.36,2.08-4.89,2.77-7.6.32-1.2.54-2.4.79-3.66.09-.66.22-1.36.32-2.02.09-.16,1.07-1.32,1.26-1.48-.06,1.01-.35,2.05-.57,2.96-.85,3.34-1.7,6.34-2.96,9.18-2.77,6.27-6.21,11.73-10.06,16.84-1.92,2.52-3.94,5.17-6.4,7.16-.57.5-1.14,1.01-1.67,1.55-1.04.79-2.08,1.55-3.18,2.27,1.58-1.17,2.96-2.49,4.45-3.72ZM83.25,120.33c.13-.47.25-.98.38-1.48.76-.69,1.51-1.42,2.27-2.11,1.67-1.73,3.34-3.47,5.05-5.2-.85,1.92-1.92,3.59-2.96,5.27-.76,1.23-1.51,2.43-2.3,3.63-.41.41-.85.79-1.29,1.2-.73.6-1.32,1.36-2.14,1.89.35-1.07.66-2.11,1.01-3.18ZM87.94,114.18c-.76.85-1.61,1.64-2.43,2.43-.6.57-1.1,1.23-1.77,1.7.19-1.01.41-2.05.6-3.06,1.73-1.83,3.5-3.63,5.23-5.46h.16c.28.19,1.45.6,1.51.91-.98,1.26-2.27,2.3-3.31,3.47ZM84.48,114.68c.06-.98,1.29-2.18,1.8-2.93,1.26-2.05,2.49-4.29,3.44-6.62,1.01-2.46,1.58-5.11,2.08-8.04.16-1.1.28-3.12.09-4.19-.03-.66-.09-1.29-.16-1.96.47.28.91.57,1.39.85.88.57,1.92,1.42,2.55,2.27-.82,2.24-1.61,4.51-2.4,6.78-.63,1.23-1.23,2.43-1.83,3.66-.95,1.96-1.89,3.91-2.84,5.87-1.36,1.45-2.74,2.87-4.13,4.32ZM99.33,70.85c-.47-.69-.95-1.36-1.42-2.02-.63-.63-1.23-1.29-1.86-1.92-.19-.13-.38-.28-.57-.41h.06c.73-.6,1.7-.98,2.59-1.39,1.1-.47,2.27-1.1,3.5-1.45.13.82-.06,1.83-.19,2.59-.16,1.51-.28,3.03-.44,4.51-.09.95-.19,1.86-.28,2.81-.44-.91-.91-1.83-1.39-2.71ZM36.26,91.67c.66-1.36,1.29-2.71,1.96-4.04,1.29-2.71,2.62-5.42,3.91-8.17.6-.91,1.2-1.86,1.83-2.77,1.99-3.15,3.94-6.27,5.93-9.43,1.7-2.05,3.41-4.07,5.08-6.12,2.46-3.15,5.08-6.21,8.2-8.7,1.67-1.58,3.31-3.12,4.95-4.67,1.1-.73,2.18-1.45,3.25-2.18,2.14-1.45,4.29-2.93,6.4-4.38,1.64-.69,3.28-1.42,4.92-2.11.57-.06,1.14-.13,1.7-.19,1.39-.25,2.9-.44,4.48-.44.09.03.19.03.32.06v.13c-.69.66-1.36,1.36-2.02,2.05-1.48,1.36-2.87,2.74-4.26,4.16-4.79,4.95-9.18,10.31-12.71,16.52-1.32,2.33-2.4,4.82-3.59,7.28-1.51,3.25-2.55,7.06-3.63,10.72-.47,1.61-.69,3.22-1.07,4.95-.69,3.34-1.07,7.03-1.07,11.04,0,2.11,0,4.16.38,5.96.06.32.41,1.89.38,1.96-.85,1.04-1.86,1.99-2.68,3.06-1.36,1.7-2.59,3.34-4.29,4.7-.73.57-1.26,1.55-2.14,1.96-.88.41-2.55.09-3.66.25-.76.13-1.7.09-2.46-.03-.44,0-.88-.03-1.36-.03-2.02-.38-3.88-.69-5.68-1.26-.69-.28-1.39-.57-2.08-.85-.16-.85-.28-1.7-.41-2.55-.09-1.07-.19-2.18-.28-3.25-.03-.66-.03-1.29-.06-1.96-.03-.85-.03-1.67-.06-2.52v-5.2c0-.91-.91-2.02-.85-2.4.13-.57.47-1.07.69-1.55ZM35.44,93.78c.13.25.22.5.35.76-.44.13-.66.66-.98.91.06-.32.44-1.51.63-1.67ZM27.37,132.06c.19-2.68.38-5.39.57-8.1.09-1.55.22-3.09.32-4.64.54-2.49,1.07-4.98,1.64-7.47.66-2.71,1.07-5.55,1.99-7.95.79-2.27,1.58-4.57,2.4-6.84.25-.66,1.07-2.11,1.73-2.24.28,1.26.09,3.03.09,4.48,0,2.55-.13,5.2.25,7.47.06.63.09,1.23.16,1.83.35,1.96.57,3.91,1.1,5.71,1.64,5.42,4.45,9.24,9.27,11.54,2.08.98,5.33,1.83,8.48,1.26,1.26-.22,2.43-.47,3.5-.88,1.83-.73,3.5-1.61,4.95-2.71.57-.5,1.14-1.01,1.7-1.48-.85,1.36-2.08,2.46-3.06,3.72-.79.95-1.67,1.89-2.62,2.68-.54.47-1.04.98-1.55,1.48-1.92,1.51-3.88,3.12-5.99,4.45-4.41,2.77-9.21,4.82-14.76,6.5-2.9.88-5.99,1.14-9.18,1.77-.35-3.5-.66-7.03-1.01-10.56ZM31.38,152.65c-.98-3.22-1.96-6.46-2.93-9.71,1.32-.09,2.59-.35,3.82-.63,1.83-.41,3.56-.57,5.27-1.1,4.19-1.23,8.23-2.59,11.67-4.6,1.29-.79,2.59-1.58,3.91-2.36.85-.6,1.7-1.23,2.59-1.83.63.19,1.23.35,1.86.5.66.09,1.32.19,2.02.28.76.13,1.8.09,2.52,0,1.48-.25,2.74-.32,4.07-.63,1.61-.41,3.12-1.04,4.64-1.42-.69,1.51-1.64,3.03-2.49,4.41-1.51,2.43-3,4.82-4.7,7.03-.28.35-.79.6-1.17.88-1.07.76-2.14,1.51-3.18,2.3-1.7,1.23-3.41,2.46-5.08,3.69-2.59,1.23-5.17,2.49-7.76,3.72-.5.25-1.01.54-1.51.79-2.55.6-5.11,1.2-7.66,1.83-.79.19-2.81.6-3.78.19-.69-1.1-1.39-2.24-2.08-3.34ZM123.86,76.85c-.13.95-.22,1.86-.32,2.81-.22,2.4-.47,4.79-.69,7.19-.57,2.36-1.14,4.73-1.67,7.06-.44,1.83-.85,3.66-1.26,5.49-.63,1.67-1.23,3.37-1.86,5.05-.88,2.52-1.77,5.05-2.68,7.57-1.96,4.07-3.94,8.1-5.93,12.17-1.23,1.96-2.46,3.91-3.69,5.83-1.14,1.86-2.3,3.72-3.44,5.55-1.45,1.8-2.87,3.59-4.32,5.36-2.3,3-4.64,5.83-7.41,8.36-.54.47-1.01,1.04-1.58,1.51-1.26,1.26-2.52,2.52-3.78,3.78-2.36,1.73-4.73,3.47-7.13,5.23-.66.5-1.36.98-2.05,1.48-1.83.88-3.66,1.8-5.49,2.71-1.2.6-2.4,1.23-3.63,1.83-1.26.32-2.52.63-3.82.95-1.26.32-2.52.66-3.82.98-.57.16-1.26.44-1.99.35-2.62-.06-5.23-.16-7.85-.22-2.46-.88-4.89-1.77-7.32-2.68-1.2-1.01-2.43-2.05-3.63-3.06-.85-.73-1.73-1.45-2.59-2.18-.73-1.17-1.45-2.33-2.21-3.53v-.03c.76.03,1.51.03,2.27.03,1.77-.44,3.53-.85,5.3-1.29,1.23-.28,2.43-.57,3.66-.85,1.67-.82,3.31-1.64,4.95-2.46,1.48-.69,2.96-1.42,4.41-2.11,2.84-2.05,5.68-4.1,8.48-6.15-2.21,3.09-5.05,5.58-7.57,8.36-1.14,1.23-2.33,2.46-3.66,3.53-.47.41-.95.82-1.42,1.23-.5.16-.98.32-1.45.5-1.89.76-4.04,1.23-6.18,1.77-1.2.28-2.68.35-3.63.91-.13.5.28,1.01.47,1.42.16.35.32.69.47,1.04.47.66,2.87,1.58,4.13,1.17,1.8-.54,3.25-1.58,4.73-2.43,2.55-1.51,5.23-2.74,7.73-4.26,2.21-1.32,4.26-2.81,6.24-4.32.76-.66,1.48-1.32,2.24-1.99.32-.35.63-.69.95-1.01.98-1.04,1.99-2.05,2.9-3.18.98-1.23,2.02-2.4,2.93-3.69,2.24-3.12,4.29-6.37,6.27-9.74,1.2-2.05,2.21-4.29,3.18-6.5.28-.76.54-1.51.82-2.27.32-.25.63-.5.95-.76.95-.85,1.86-1.7,2.81-2.52.57-.73,1.01-1.55,1.48-2.33.82-1.29,1.67-2.62,2.49-3.91.54-.88.91-1.92,1.45-2.87.13-.28.54-.79.38-1.2-.13-.22-1.51-.98-1.8-1.04-.22-.03-.32.09-.44.16,1.42-2.93,2.84-5.87,4.29-8.77.76-2.21,1.55-4.38,2.33-6.59t.03.06c.25.35.5.69.76,1.01,1.14,1.61,1.92,3.34,2.59,5.49.13.44.28.91.41,1.36-.13.98-.28,1.92-.41,2.9-.38,2.11-.54,4.19-.98,6.18-.25,1.48-.5,2.96-.76,4.45-1.36,6.18-2.18,12.61-3.97,18.35-.88,2.81-1.77,5.58-2.84,8.2-.28.79-.57,1.55-.88,2.33-.19.5-.5,1.04-.54,1.7.44.32,1.29,1.36,1.83,1.42.6-.44,1.26-2.43,1.7-3.15,1.8-3.09,3.25-6.46,4.64-9.87,1.48-3.59,2.81-7.41,3.85-11.51.47-1.77.57-3.5.98-5.39.6-2.93,1.04-6.02,1.64-9.08.16-1.32.32-2.65.47-4,.22-1.48.09-3.18.35-4.76.03-.82.06-1.61.09-2.43v-2.14c.09-.95.13-2.18-.03-3.12-.03-.98-.06-1.96-.09-2.93-.19-1.64-.38-3.25-.57-4.89-.38-1.86-.76-3.63-1.26-5.33-.35-1.14-.73-2.24-1.17-3.28-.25-.57-.5-1.1-.76-1.67.09-.91.19-1.86.28-2.77.13-1.29.25-2.59.35-3.91.22-1.23.38-2.65.32-3.94.35-.09.69-.19,1.07-.28.66-.09,1.36-.16,2.05-.22.32,0,.6.03.88.03.54.03,1.07.06,1.58.06.95.19,2.02.44,2.81.76,2.77,1.07,4.98,2.36,6.78,4.35.38.38.76.73,1.17,1.1.63.76,1.26,1.51,1.89,2.24.35.47.69.98,1.14,1.32.32,0,1.86-.41,1.96-.57.16-.35-.79-2.24-.95-2.62-1.14-2.62-2.27-5.17-3.37-7.69-2.3-5.23-5.55-9.68-8.83-13.97-1.26-1.64-2.65-3.15-4.13-4.6-.47-.5-.98-1.01-1.48-1.51-1.61-1.29-3.03-2.77-4.7-4.04-1.01-.76-2.05-1.51-3.06-2.27h.28c2.55.35,5.08.66,7.63,1.01,2.33,1.2,4.64,2.4,6.97,3.56,1.14,1.2,2.24,2.43,3.37,3.63l2.27,2.36c1.32,2.62,2.65,5.27,3.94,7.88.79,3.25,1.55,6.5,2.33,9.78.09,2.08.19,4.16.28,6.24.03.79.06,1.58.09,2.33.22,1.48.16,3.06-.06,4.41Z"/>
      <path class="cls-1" d="M123.86,76.85c-.13.95-.22,1.86-.32,2.81-.22,2.4-.47,4.79-.69,7.19-.57,2.36-1.14,4.73-1.67,7.06-.44,1.83-.85,3.66-1.26,5.49-.63,1.67-1.23,3.37-1.86,5.05-.88,2.52-1.77,5.05-2.68,7.57-1.96,4.07-3.94,8.1-5.93,12.17-1.23,1.96-2.46,3.91-3.69,5.83-1.14,1.86-2.3,3.72-3.44,5.55-1.45,1.8-2.87,3.59-4.32,5.36-2.3,3-4.64,5.83-7.41,8.36-.54.47-1.01,1.04-1.58,1.51-1.26,1.26-2.52,2.52-3.78,3.78-2.36,1.73-4.73,3.47-7.13,5.23-.66.5-1.36.98-2.05,1.48-1.83.88-3.66,1.8-5.49,2.71-1.2.6-2.4,1.23-3.63,1.83-1.26.32-2.52.63-3.82.95-1.26.32-2.52.66-3.82.98-.57.16-1.26.44-1.99.35-2.62-.06-5.23-.16-7.85-.22-2.46-.88-4.89-1.77-7.32-2.68-1.2-1.01-2.43-2.05-3.63-3.06-.85-.73-1.73-1.45-2.59-2.18-.73-1.17-1.45-2.33-2.21-3.53v-.03c.76.03,1.51.03,2.27.03,1.77-.44,3.53-.85,5.3-1.29,1.23-.28,2.43-.57,3.66-.85,1.67-.82,3.31-1.64,4.95-2.46,1.48-.69,2.96-1.42,4.41-2.11,2.84-2.05,5.68-4.1,8.48-6.15-2.21,3.09-5.05,5.58-7.57,8.36-1.14,1.23-2.33,2.46-3.66,3.53-.47.41-.95.82-1.42,1.23-.5.16-.98.32-1.45.5-1.89.76-4.04,1.23-6.18,1.77-1.2.28-2.68.35-3.63.91-.13.5.28,1.01.47,1.42.16.35.32.69.47,1.04.47.66,2.87,1.58,4.13,1.17,1.8-.54,3.25-1.58,4.73-2.43,2.55-1.51,5.23-2.74,7.73-4.26,2.21-1.32,4.26-2.81,6.24-4.32.76-.66,1.48-1.32,2.24-1.99.32-.35.63-.69.95-1.01.98-1.04,1.99-2.05,2.9-3.18.98-1.23,2.02-2.4,2.93-3.69,2.24-3.12,4.29-6.37,6.27-9.74,1.2-2.05,2.21-4.29,3.18-6.5.28-.76.54-1.51.82-2.27.32-.25.63-.5.95-.76.95-.85,1.86-1.7,2.81-2.52.57-.73,1.01-1.55,1.48-2.33.82-1.29,1.67-2.62,2.49-3.91.54-.88.91-1.92,1.45-2.87.13-.28.54-.79.38-1.2-.13-.22-1.51-.98-1.8-1.04-.22-.03-.32.09-.44.16,1.42-2.93,2.84-5.87,4.29-8.77.76-2.21,1.55-4.38,2.33-6.59t.03.06c.25.35.5.69.76,1.01,1.14,1.61,1.92,3.34,2.59,5.49.13.44.28.91.41,1.36-.13.98-.28,1.92-.41,2.9-.38,2.11-.54,4.19-.98,6.18-.25,1.48-.5,2.96-.76,4.45-1.36,6.18-2.18,12.61-3.97,18.35-.88,2.81-1.77,5.58-2.84,8.2-.28.79-.57,1.55-.88,2.33-.19.5-.5,1.04-.54,1.7.44.32,1.29,1.36,1.83,1.42.6-.44,1.26-2.43,1.7-3.15,1.8-3.09,3.25-6.46,4.64-9.87,1.48-3.59,2.81-7.41,3.85-11.51.47-1.77.57-3.5.98-5.39.6-2.93,1.04-6.02,1.64-9.08.16-1.32.32-2.65.47-4,.22-1.48.09-3.18.35-4.76.03-.82.06-1.61.09-2.43v-2.14c.09-.95.13-2.18-.03-3.12-.03-.98-.06-1.96-.09-2.93-.19-1.64-.38-3.25-.57-4.89-.38-1.86-.76-3.63-1.26-5.33-.35-1.14-.73-2.24-1.17-3.28-.25-.57-.5-1.1-.76-1.67.09-.91.19-1.86.28-2.77.13-1.29.25-2.59.35-3.91.22-1.23.38-2.65.32-3.94.35-.09.69-.19,1.07-.28.66-.09,1.36-.16,2.05-.22.32,0,.6.03.88.03.54.03,1.07.06,1.58.06.95.19,2.02.44,2.81.76,2.77,1.07,4.98,2.36,6.78,4.35.38.38.76.73,1.17,1.1.63.76,1.26,1.51,1.89,2.24.35.47.69.98,1.14,1.32.32,0,1.86-.41,1.96-.57.16-.35-.79-2.24-.95-2.62-1.14-2.62-2.27-5.17-3.37-7.69-2.3-5.23-5.55-9.68-8.83-13.97-1.26-1.64-2.65-3.15-4.13-4.6-.47-.5-.98-1.01-1.48-1.51-1.61-1.29-3.03-2.77-4.7-4.04-1.01-.76-2.05-1.51-3.06-2.27h.28c2.55.35,5.08.66,7.63,1.01,2.33,1.2,4.64,2.4,6.97,3.56,1.14,1.2,2.24,2.43,3.37,3.63l2.27,2.36c1.32,2.62,2.65,5.27,3.94,7.88.79,3.25,1.55,6.5,2.33,9.78.09,2.08.19,4.16.28,6.24.03.79.06,1.58.09,2.33.22,1.48.16,3.06-.06,4.41Z"/>
      <path class="cls-1" d="M7.7,62.62c-.27.96-.35,2.46.03,3.36.37.86,1.72,1.72,2.68,1.96,1.05.27,1.92-.29,2.51-.68,1.57-1.06,3.96-4.56,2.82-7.4-.54-1.35-1.83-1.54-3.19-2.08-2.45.03-4.29,2.85-4.84,4.84ZM9.24,63.45c.56-2,2.2-4.72,4.73-4.7,3.6,1.47.74,6.74-1,8.09-.59.46-1.66,1.16-2.71.71-1.24-.53-1.46-2.54-1.03-4.1ZM7.98,62.82c.63-2.26,2.01-4.27,4.47-4.73.4.15.78.09,1.05.34-2.27.14-3.98,2.9-4.56,4.81-.38,1.25-.29,2.86.28,3.79-1.36-.7-1.79-2.29-1.25-4.21Z"/>
      <path class="cls-1" d="M10.12,63.3c-.32,1.23-.07,2.64.94,2.96.7.22,1.32-.19,1.71-.46,1.43-.97,3.26-4.6.63-5.69-1.81-.02-2.91,1.75-3.27,3.19ZM10.43,63.36c.36-1.28,1.3-2.85,2.85-2.93,2.26.89.62,4.08-.48,4.95-.35.28-1.01.84-1.74.54-.76-.32-.9-1.61-.63-2.56Z"/>
      <path class="cls-1" d="M28,72.9c-.31.92-.43,2.46-.03,3.39.38.89,1.76,1.71,2.73,1.99,1.02.3,1.92-.31,2.48-.68,1.4-.94,3.81-4.27,3.05-6.98-.48-1.72-1.74-1.99-3.3-2.62-2.67-.01-4.24,2.83-4.93,4.9ZM29.59,73.75c.55-1.94,2.25-4.77,4.67-4.76.25.08.49.15.74.23.8.53,1.21,1.99.91,3.33-.44,1.99-1.31,3.55-2.68,4.61-.52.4-1.57,1.16-2.59.74-1.28-.53-1.51-2.55-1.05-4.16ZM28.26,73.07c.57-2.02,2.18-4.56,4.53-4.76.4.15.77.23,1.11.34v.03c-2.48.33-3.75,2.63-4.5,4.73-.26.72-.5,1.9-.28,2.88.08.37.28.71.4,1.03-1.49-.32-1.7-2.63-1.25-4.24Z"/>
      <path class="cls-1" d="M30.48,73.58c-.35,1.24-.09,2.72.94,3.02.73.21,1.33-.25,1.71-.51,1.4-.96,3.17-4.53.71-5.69-1.9-.03-2.95,1.72-3.36,3.19ZM30.76,73.78c.35-1.34,1.3-3.05,2.93-3.08,2.25.92.4,4.25-.68,5.07-.36.27-1,.74-1.65.46-.7-.31-.84-1.54-.6-2.45Z"/>
      <path class="cls-1" d="M115.81,130.53c-.2.78-.32,1.98-.03,2.76.29.79,1.61,1.57,2.45,1.79.93.25,1.71-.4,2.19-.74,1.39-.98,3.47-4.2,2.65-6.78-.38-1.2-1.71-1.43-2.88-1.88-2.16.07-3.92,2.98-4.39,4.84ZM117.38,131.24c.51-1.85,2.06-4.61,4.36-4.58,1.04.5,1.48,1.54,1.11,3.1-.42,1.79-1.27,3.34-2.53,4.3-.48.37-1.46,1.09-2.33.6-.9-.51-.92-2.25-.6-3.42ZM116.13,130.5c.47-1.77,2.11-4.52,4.3-4.5.29.12.62.17.83.37-.75.07-1.21.47-1.68.83-1.46,1.11-3.47,4.42-2.36,7.03-1.41-.29-1.46-2.29-1.08-3.73Z"/>
      <path class="cls-1" d="M118.15,130.9c-.3,1.01-.17,2.31.65,2.62.77.29,1.48-.37,1.79-.68.72-.72,2.26-3.04,1.25-4.5-.14-.21-.39-.28-.6-.43-1.77-.03-2.7,1.65-3.1,2.99ZM118.43,130.99c.33-1.17,1.21-2.72,2.62-2.79,1.96.84-.04,3.82-.77,4.53-.27.26-.88.74-1.45.48-.63-.28-.61-1.48-.4-2.22Z"/>
      <path class="cls-1" d="M9.21,173.04c-.36,1.21-.27,2.8.37,3.62.26.33.73.49,1.11.71.32.19.67.45,1.08.54,1.01.23,1.84-.38,2.33-.74,1.32-.96,3.62-3.94,2.96-6.58-.37-1.51-1.58-1.65-2.73-2.36-2.76-.02-4.49,2.68-5.13,4.81ZM10.69,173.84c.57-1.89,2.23-4.65,4.61-4.64.41.16.73.18,1,.46.52.54.66,1.89.43,2.85-.46,1.87-1.36,3.37-2.71,4.36-.56.41-1.67,1.11-2.62.6-.96-.52-1.1-2.34-.71-3.62ZM9.49,173.16c.72-2.27,1.99-3.97,4.33-4.64.45.16.89.06,1.17.37-2.22.09-4.02,2.96-4.58,4.81-.31,1.01-.3,2.45.14,3.27-1.19-.62-1.58-2.15-1.05-3.82Z"/>
      <path class="cls-1" d="M11.54,173.58c-.29.99-.14,2.3.63,2.65.7.32,1.43-.13,1.82-.4.87-.6,3.05-3.79,1.42-5.07-.23-.18-.45-.16-.77-.28-1.55,0-2.73,1.86-3.1,3.1ZM11.83,173.7c.37-1.26,1.32-2.86,2.88-2.9,2.19.94.07,4.08-.88,4.78-.32.24-.97.66-1.54.37-.6-.31-.69-1.45-.46-2.25Z"/>
      <path class="cls-1" d="M28.63,183.89c-.66,2.35-.01,3.59,1.62,4.41.3.15.6.4.97.48,1.03.23,1.83-.38,2.33-.74,1.34-.96,3.64-3.99,3.02-6.63-.36-1.55-1.62-1.72-2.82-2.42-2.69-.02-4.54,2.79-5.13,4.9ZM30.22,184.66c.58-1.86,2.25-4.65,4.61-4.64.21.06.42.11.63.17.91.57,1.02,2.29.65,3.56-.49,1.7-1.47,3.17-2.76,4.07-.55.38-1.51.95-2.42.54-1.05-.48-1.1-2.44-.71-3.7ZM28.94,183.95c.62-1.88,2.21-4.65,4.61-4.64.35.14.7.13.94.37v.03c-1.02.05-1.67.71-2.28,1.2-1.59,1.28-3.11,4.16-2.22,6.92h-.03c-1.21-.7-1.6-2.14-1.03-3.87Z"/>
      <path class="cls-1" d="M31.05,184.46c-.29.96-.15,2.23.54,2.62.7.4,1.54-.14,1.94-.43,1.23-.9,3.07-4.07.91-5.32-1.92-.03-2.95,1.68-3.39,3.13ZM31.33,184.6c.37-1.29,1.32-2.91,2.88-2.99,2.14.91.09,4.07-.85,4.78-.34.26-.97.71-1.57.43-.61-.29-.68-1.44-.46-2.22Z"/>
    </g>
  </g>
</svg>