<?xml version="1.0" encoding="UTF-8"?>
<svg id="Layer_2" data-name="Layer 2" xmlns="http://www.w3.org/2000/svg" viewBox="0 0 325.71 128.62">
  <g id="Layer_1-2" data-name="Layer 1">
    <g>
      <path d="M325.65,122.61l-.16-.97-16.76-73.19-.03-.45v-.21s0-.21,0-.21l-.08-.68-2.53-11.12s-.02-.05-.03-.08l-.11-.19s-.02-.03-.03-.05l-.15-.17s-.05-.05-.08-.06l-.21-.12-.22-.1s-.06-.02-.08-.02l-.34-.04h-1.19s-4.07-10.5-4.07-10.5c0-.02-.02-.04-.03-.06l-.1-.14s-.04-.05-.06-.07l-.13-.1s-.05-.03-.08-.05l-.1-.04s-.03-.01-.05-.01l-.13-.02s-.04,0-.05,0h-.89s-.38-.07-.38-.07l-.03-.02-1.59-4.16.25-3.78s0-.04,0-.06l-.03-.2s0-.04-.02-.07l-3.54-9.11s-.02-.05-.04-.07l-.16-.21s-.05-.06-.08-.08l-.13-.08s-.06-.03-.09-.04l-.25-.06s-.04,0-.07,0h-3.2s-1.02-2.71-1.02-2.71c0-.02-.02-.04-.03-.06l-.17-.25s-.05-.06-.08-.08l-.16-.11s-.07-.04-.11-.05l-.19-.04s-.04,0-.06,0h-.57s-.72-1.93-.72-1.93l-.12-.27s-.01-.03-.02-.04l-.06-.09c-.03-.05-.08-.09-.14-.12l-.25-.11s-.08-.02-.12-.02h-.97s-.05,0-.07,0l-.06.02s-.03.01-.05.02l-.24.11c-.07.03-.12.08-.15.14l-.17.44-.23,1.54-.59-1.63-.12-.27s-.01-.02-.02-.04l-.06-.09c-.03-.05-.08-.1-.14-.12l-.25-.11s-.08-.02-.12-.02h-.97s-.05,0-.08,0l-.06.02s-.03.01-.05.02l-.24.11c-.07.03-.12.08-.15.15l-.16.44-.23,1.6-.59-1.69-.13-.3-.05-.09c-.03-.05-.08-.1-.14-.12l-.25-.11s-.08-.02-.12-.02h-.97s-.05,0-.08.01l-.06.02s-.03,0-.05.02l-.24.11c-.07.03-.12.08-.15.15l-.16.44-.23,1.66-.59-1.75-.13-.29-.05-.09c-.03-.06-.08-.1-.14-.13l-.25-.11s-.08-.02-.12-.02h-.97s-.05,0-.08.01l-.06.02s-.03,0-.04.02l-.24.11c-.07.03-.12.09-.15.15l-.15.4s0,.03-.01.04l-.24,1.72-.6-1.81-.13-.29-.05-.09c-.03-.06-.08-.1-.14-.13l-.25-.11s-.08-.02-.12-.02h-.97s-.06,0-.08.01l-.05.02s-.03,0-.04.01l-.24.11c-.07.03-.12.09-.15.16l-.15.39s0,.03-.01.04l-.24,1.79-.6-1.88-.13-.29-.05-.09c-.03-.06-.08-.11-.15-.13l-.25-.11s-.08-.02-.12-.02h-.97s-.06,0-.09.01l-.05.02s-.03,0-.04.01l-.24.11c-.07.03-.13.09-.16.16l-.14.39s0,.03-.01.04l-.24,1.83h-.01l-.59-1.93-.12-.29-.05-.09c-.03-.06-.08-.11-.15-.14l-.25-.11s-.08-.02-.12-.02h-.97s-.06,0-.09.01l-.32.14c-.07.03-.13.09-.16.16l-.14.39s0,.03-.01.05l-.23,1.83h-.05l-.57-1.93-.17-.37c-.03-.06-.08-.11-.15-.14l-.25-.11s-.08-.02-.12-.02h-.97s-.06,0-.09.01l-.32.13c-.07.03-.13.09-.16.17l-.14.38s0,.03-.01.05l-.22,1.83h-.08l-.55-1.93-.16-.37c-.03-.07-.09-.12-.15-.15l-.25-.11s-.08-.03-.12-.03h-.97s-.06,0-.09.01l-.31.13c-.07.03-.13.09-.16.17l-.13.38s-.01.03-.01.05l-.21,1.82h-.11l-.53-1.93-.16-.36c-.03-.07-.09-.12-.15-.15l-.25-.11s-.08-.03-.12-.03h-.97s-.07,0-.1.02l-.31.13c-.08.03-.13.1-.16.18l-.13.37s-.01.04-.01.05l-.2,1.82h-.14l-.5-1.89s0-.03-.01-.04l-.16-.36c-.03-.07-.09-.12-.16-.15l-.25-.11s-.08-.02-.12-.02h-.97s-.07,0-.1.02l-.3.13c-.08.03-.13.1-.16.18l-.13.38s-.01.04-.01.05l-.2,1.82h-.18l-.48-1.88s0-.03-.01-.04h0s0,0,0,0v-.02s-.1-.22-.1-.22h0s-.05-.12-.05-.12c-.03-.07-.09-.13-.16-.16l-.25-.11s-.08-.02-.12-.02h-.97s-.07,0-.1.02l-.3.13c-.08.03-.13.1-.16.18l-.13.38s0,.03-.01.05l-.19,1.82h-.21l-.46-1.88s0-.03-.01-.04l-.15-.36c-.03-.07-.09-.13-.16-.16l-.25-.11s-.08-.02-.12-.02h-.97s-.07,0-.11.02l-.29.13c-.08.03-.13.1-.16.18l-.13.38s0,.03-.01.05l-.18,1.82h-.24l-.44-1.88s0-.03-.01-.04l-.15-.37c-.03-.07-.09-.13-.16-.16l-.25-.11s-.08-.03-.12-.03h-.97s-.08,0-.11.02l-.29.13c-.08.03-.13.1-.16.17l-.13.39s0,.03,0,.05l-.17,1.82h-.28l-.43-1.91-.15-.37c-.03-.07-.09-.13-.16-.16l-.25-.11s-.08-.03-.12-.03h-.97s-.08,0-.12.02c0,0-.04.02-.04.02l-.24.11c-.08.03-.13.1-.16.17l-.13.39s0,.03,0,.05l-.16,1.81h-.31l-.41-1.91-.15-.38c-.03-.07-.09-.13-.16-.16l-.25-.11s-.08-.03-.12-.03h-.97s-.08,0-.12.03l-.27.12c-.08.03-.13.1-.16.17l-.1.28-.03.12s0,.03,0,.04l-.15,1.81h-.34l-.38-1.9-.15-.38c-.03-.07-.09-.13-.16-.16l-.25-.11s-.08-.03-.12-.03h-.97s-.08,0-.12.03l-.27.12c-.08.03-.13.1-.16.17l-.1.29-.03.12s0,.03,0,.04l-.15,1.81h-.38s-.36-1.9-.36-1.9l-.15-.38c-.03-.07-.09-.13-.16-.16l-.25-.11s-.08-.03-.12-.03h-.97s-.08,0-.12.03l-.27.12c-.07.03-.13.1-.16.17l-.1.29-.03.12s0,.03,0,.04l-.14,1.81h-.41s-.34-1.89-.34-1.89l-.15-.39c-.03-.07-.09-.13-.16-.16l-.25-.11s-.08-.03-.12-.03h-.97s-.08,0-.12.03l-.27.12c-.07.03-.13.1-.16.17l-.1.29-.03.15-.13,1.81h-.44s-.32-1.89-.32-1.89l-.15-.39c-.03-.07-.09-.13-.16-.16l-.25-.11s-.08-.03-.12-.03h-.97s-.08,0-.12.03l-.24.11s-.03.02-.04.02c-.07.03-.12.09-.15.17l-.09.26s0,.03-.01.04l-.03.15-.12,1.8h-.47s-.3-1.88-.3-1.88l-.02-.1s0-.03-.01-.04l-.11-.26c-.03-.07-.09-.13-.16-.16l-.25-.11s-.08-.03-.12-.03h-.97s-.08,0-.12.03l-.24.11s-.04.02-.04.02c-.06.03-.11.09-.14.16l-.1.26s0,.03-.01.05l-.14,1.95h-.51s-.28-1.88-.28-1.88l-.02-.1s0-.03-.01-.04l-.11-.26c-.03-.07-.09-.13-.16-.16l-.25-.11s-.08-.03-.12-.03h-.97s-.08,0-.12.03l-.24.11s-.04.02-.05.03c-.06.04-.11.09-.13.16l-.1.26s-.01.03-.01.05l-.13,1.95h-.54s-.26-1.87-.26-1.87l-.02-.1s0-.03-.01-.05l-.11-.26c-.03-.07-.09-.13-.16-.16l-.25-.11s-.08-.03-.12-.03h-.97s-.08,0-.12.03l-.24.11s-.05.03-.06.04c-.06.04-.1.09-.12.15l-.1.26s-.01.03-.01.05l-.12,1.95h-.57s-.24-1.87-.24-1.87l-.02-.1s0-.04-.02-.05l-.11-.26c-.03-.07-.09-.13-.16-.16l-.25-.11s-.08-.03-.12-.03h-.97s-.08,0-.12.03l-.24.11s-.06.03-.07.04c-.05.03-.09.08-.11.14l-.1.26s-.01.04-.01.06l-.11,1.94h-.6s-.22-1.86-.22-1.86l-.02-.1s0-.04-.02-.06l-.11-.26c-.03-.07-.09-.13-.16-.16l-.25-.11s-.08-.03-.12-.03h-.97s-.08,0-.12.03l-.24.11s-.06.04-.08.05c-.04.03-.08.08-.1.13l-.1.26s-.01.04-.02.06l-.1,1.94h-.64s-.2-1.86-.2-1.86l-.02-.1s0-.04-.02-.06l-.1-.26c-.03-.07-.09-.13-.16-.16l-.25-.11s-.08-.03-.12-.03h-.97s-.08,0-.12.03l-.24.11s-.07.04-.09.06c-.04.03-.07.08-.09.12l-.1.26s-.01.04-.02.07l-.09,1.93h-.67s-.18-1.85-.18-1.85v-.1s-.02-.05-.03-.07l-.1-.26c-.03-.07-.09-.13-.16-.16l-.25-.11s-.08-.03-.12-.03h-.97s-.08,0-.12.03l-.24.11s-.08.05-.1.07c-.03.03-.06.07-.07.11l-.1.26s-.01.05-.02.07l-.08,1.93h-.7s-.16-1.85-.16-1.85v-.1s-.02-.05-.03-.07l-.1-.26c-.03-.07-.09-.13-.16-.16l-.25-.11s-.08-.03-.12-.03h-.97s-.08,0-.12.03l-.24.11s-.08.05-.11.08c-.03.03-.05.06-.06.1l-.1.26s-.02.05-.02.08l-.07,1.92h-.73s-.14-1.84-.14-1.84v-.1s-.02-.05-.03-.08l-.1-.26c-.03-.07-.09-.13-.16-.16l-.24-.11s-.08-.03-.12-.03h-.97s-.08,0-.12.03l-.24.11s-.09.06-.12.1c-.02.03-.04.05-.05.08l-.1.26s-.02.05-.02.08l-.06,1.92h-.76s-.12-1.84-.12-1.84v-.1s-.02-.05-.03-.08l-.1-.26c-.03-.07-.09-.13-.16-.17l-.25-.11s-.08-.03-.12-.03h-.97s-.08,0-.12.03l-.24.11s-.1.07-.13.12c-.01.02-.03.04-.03.07l-.1.26s-.02.06-.02.08l-.05,1.92h-.8s-.1-1.83-.1-1.83v-.1s-.02-.06-.03-.09l-.1-.26c-.03-.07-.09-.13-.16-.17l-.25-.11s-.08-.03-.12-.03h-.97s-.08,0-.12.03l-.24.11c-.06.03-.11.08-.15.14,0,.01-.02.03-.02.04l-.1.26s-.02.06-.02.09l-.04,1.91h-.83s-.08-1.83-.08-1.83v-.1s-.02-.06-.03-.09l-.1-.26c-.03-.07-.09-.13-.16-.17l-.24-.11s-.08-.03-.12-.03h-.97s-.08,0-.12.03l-.24.11c-.07.03-.14.11-.17.18l-.1.26s-.02.06-.02.09l-.03,1.91h-.86s-.06-1.82-.06-1.82v-.1s-.01-.06-.03-.09l-.1-.26c-.03-.07-.09-.13-.16-.17l-.24-.11s-.08-.03-.12-.03h-.97s-.08,0-.12.03l-.24.11c-.07.03-.13.09-.16.17l-.1.27s-.02.06-.02.1l-.02,1.9h-.89s-.04-1.82-.04-1.82v-.1s-.01-.07-.02-.1l-.1-.26c-.03-.07-.09-.13-.16-.17l-.24-.11s-.08-.03-.12-.03h-.97s-.08,0-.12.03l-.24.11c-.07.03-.13.09-.16.17l-.1.26s-.01.03-.01.05c0,.02,0,.04,0,.07v1.9s-.94,0-.94,0l-.02-1.91s0-.07-.02-.1l-.1-.26c-.03-.07-.09-.13-.16-.17l-.24-.11s-.08-.03-.12-.03h-.97s-.08,0-.12.03l-.24.11c-.07.03-.13.09-.16.17l-.1.26s-.02.08-.02.12v1.89s-.96,0-.96,0V.7s0-.07-.02-.11l-.1-.26c-.03-.07-.09-.13-.16-.17l-.24-.11s-.08-.03-.12-.03h-.97s-.08,0-.12.03l-.24.11c-.07.03-.13.09-.16.17l-.1.26s-.02.07-.02.11v1.91s-.95,0-.95,0v-1.58s0-.32,0-.32c0-.02,0-.04,0-.06,0-.02,0-.04-.02-.05l-.1-.26c-.03-.07-.09-.13-.16-.17l-.24-.11s-.08-.03-.12-.03h-.97s-.08,0-.12.03l-.24.11c-.07.03-.13.09-.16.17l-.1.26s-.02.07-.02.1l-.03,1.91h-.91s-.01-1.58-.01-1.58v-.32s-.02-.08-.03-.11l-.1-.26c-.03-.07-.09-.14-.16-.17l-.24-.11s-.08-.03-.12-.03h-.97s-.08,0-.12.03l-.24.11c-.07.03-.13.09-.16.17l-.1.26s-.02.06-.02.1l-.05,1.92h-.88s-.02-1.58-.02-1.58v-.32s-.02-.07-.03-.1l-.07-.17-.04-.1c-.03-.08-.09-.14-.16-.17l-.24-.11s-.08-.03-.12-.03h-.97s-.08,0-.12.03l-.24.11c-.07.03-.13.09-.16.17l-.1.26s-.02.06-.02.09l-.07,1.92h-.84l-.03-1.58v-.33s-.02-.06-.03-.09l-.1-.26s-.02-.03-.02-.04c-.03-.06-.08-.11-.14-.14l-.24-.11s-.08-.03-.12-.03h-.97s-.08,0-.12.03l-.24.11c-.07.03-.13.09-.16.16l-.1.26s-.02.06-.02.09l-.09,1.92h-.81l-.03-1.58-.02-.33s0-.06-.02-.09l-.1-.26s-.03-.05-.04-.07c-.03-.05-.08-.09-.13-.11l-.24-.11s-.08-.03-.12-.03h-.97s-.08,0-.12.03l-.25.11c-.07.03-.13.09-.16.17l-.1.26s-.02.05-.02.08l-.12,1.93h-.78l-.04-1.59-.02-.33s0-.06-.02-.08l-.1-.26s-.04-.07-.05-.09c-.03-.04-.07-.07-.12-.09l-.24-.11s-.08-.03-.12-.03h-.97s-.08,0-.12.03l-.25.11c-.07.03-.13.09-.16.16l-.1.26s-.02.05-.02.08l-.14,1.94h-.75l-.05-1.59-.02-.33s0-.05-.02-.08l-.1-.26s-.04-.08-.06-.1c-.03-.03-.07-.06-.11-.08l-.24-.11s-.08-.03-.12-.03h-.97s-.08,0-.12.03l-.25.11c-.07.03-.13.09-.16.16l-.1.26s-.02.05-.02.07l-.16,1.94h-.72s-.05-1.59-.05-1.59l-.02-.34s0-.05-.02-.07l-.1-.26s-.05-.09-.08-.12c-.03-.03-.06-.05-.09-.06l-.24-.11s-.08-.03-.12-.03h-.97s-.08,0-.12.03l-.25.11c-.07.03-.13.09-.16.16l-.1.26s-.02.05-.02.07l-.18,1.95h-.68s-.06-1.59-.06-1.59l-.03-.34s0-.05-.02-.07l-.1-.26s-.06-.1-.1-.13c-.02-.02-.05-.04-.08-.05l-.24-.11s-.08-.03-.12-.03h-.97s-.08,0-.12.03l-.25.11c-.07.03-.13.09-.16.16l-.1.26s-.01.04-.02.06l-.2,1.95h-.65s-.07-1.59-.07-1.59l-.03-.34s0-.04-.02-.06l-.1-.26s-.07-.11-.11-.14c-.02-.02-.04-.03-.07-.04l-.24-.11s-.08-.03-.12-.03h-.97s-.08,0-.12.03l-.25.11c-.07.03-.13.09-.16.16l-.11.26s-.01.04-.02.06l-.22,1.96h-.62s-.07-1.59-.07-1.59l-.03-.34s0-.04-.02-.06l-.1-.26c-.02-.06-.08-.12-.12-.15-.02-.01-.04-.02-.06-.03l-.24-.11s-.08-.03-.12-.03h-.97s-.08,0-.12.03l-.25.11c-.07.03-.13.09-.16.16l-.11.26s-.01.04-.02.05l-.24,1.96h-.59s-.08-1.6-.08-1.6l-.02-.23-.02-.12s0-.04-.01-.06l-.1-.26c-.02-.06-.08-.12-.14-.16-.01,0-.03-.02-.05-.03l-.24-.11s-.08-.03-.12-.03h-.97s-.08,0-.12.03l-.25.11c-.07.03-.13.09-.16.16l-.11.26s-.01.03-.02.05l-.27,1.97h-.56s-.09-1.6-.09-1.6l-.02-.23-.02-.12s0-.03-.01-.05l-.1-.26c-.02-.06-.07-.12-.13-.15-.01,0-.05-.03-.06-.03l-.24-.11s-.08-.03-.12-.03h-.97s-.08,0-.12.03l-.25.11c-.07.03-.13.09-.16.16l-.11.26s-.01.03-.01.05l-.29,1.97h-.53s-.09-1.6-.09-1.6l-.02-.23-.02-.12s0-.03-.01-.05l-.09-.26c-.02-.07-.07-.12-.13-.16,0,0-.04-.02-.05-.03l-.24-.11s-.08-.03-.12-.03h-.97s-.08,0-.12.03l-.25.11c-.07.03-.13.09-.16.16l-.11.26s-.01.03-.01.04l-.31,1.98h-.49s-.1-1.6-.1-1.6l-.02-.24-.02-.12s0-.03-.01-.04l-.09-.26c-.03-.07-.08-.13-.14-.16,0,0-.04-.02-.04-.02l-.24-.11s-.08-.03-.12-.03h-.97s-.08,0-.12.03l-.25.11c-.07.03-.13.09-.16.16l-.12.3-.33,1.98h-.46s-.11-1.6-.11-1.6l-.03-.24-.13-.41c-.03-.07-.08-.13-.15-.17,0,0-.04-.02-.04-.02l-.24-.11s-.08-.03-.12-.03h-.97s-.08,0-.12.03l-.25.11c-.07.03-.13.09-.16.16l-.12.29-.35,1.99h-.43s-.11-1.61-.11-1.61l-.03-.24-.13-.41c-.03-.08-.12-.15-.19-.19l-.24-.11s-.08-.03-.12-.03h-.97s-.08,0-.12.03l-.25.11c-.07.03-.13.09-.16.16l-.12.29-.38,1.99h-.4s-.12-1.61-.12-1.61l-.02-.2s0-.03,0-.04l-.13-.4c-.03-.08-.12-.15-.19-.19l-.24-.11s-.08-.03-.12-.03h-.97s-.08,0-.12.03l-.25.11c-.07.03-.13.09-.16.16l-.12.29-.4,1.99h-.36s-.13-1.61-.13-1.61l-.02-.2s0-.03,0-.04l-.13-.4c-.03-.08-.09-.14-.16-.17l-.15-.07-.12-.05s-.08-.03-.12-.03h-.97s-.08,0-.12.03l-.25.11c-.07.03-.13.09-.16.16l-.12.28-.42,2h-.33s-.13-1.61-.13-1.61l-.02-.2s0-.03,0-.05l-.13-.39c-.03-.08-.09-.14-.16-.17l-.24-.11s-.04-.02-.04-.02c-.04-.02-.08-.02-.12-.02h-.97s-.08,0-.12.03l-.25.11c-.07.03-.13.09-.16.16l-.12.28-.44,2h-.3s-.14-1.61-.14-1.61l-.03-.2s0-.03,0-.05l-.13-.39c-.03-.08-.09-.14-.16-.17l-.24-.11s-.04-.02-.04-.02c-.04-.02-.08-.02-.12-.02h-.97s-.08,0-.12.03l-.25.11c-.07.03-.13.09-.16.16l-.12.27-.47,2.01h-.27s-.15-1.61-.15-1.61l-.03-.2s0-.03-.01-.05l-.13-.39c-.03-.08-.09-.14-.16-.17l-.29-.13s-.07-.02-.11-.02h-.97s-.08,0-.12.03l-.25.11c-.07.03-.13.09-.16.16l-.11.27-.49,2.01h-.23s-.15-1.62-.15-1.62l-.03-.2s0-.03-.01-.05l-.13-.38c-.03-.08-.09-.14-.16-.17l-.3-.13s-.07-.02-.11-.02h-.97s-.08,0-.12.02l-.25.11c-.07.03-.13.09-.16.16l-.15.36s0,.03-.01.04l-.47,1.88h-.19s-.16-1.62-.16-1.62l-.03-.2s0-.04-.01-.05l-.13-.38c-.03-.08-.09-.14-.16-.18l-.3-.13s-.07-.02-.1-.02h-.97s-.08,0-.12.02l-.25.11c-.07.03-.13.09-.16.16l-.15.36s-.01.03-.01.04l-.49,1.88h-.16s-.17-1.62-.17-1.62l-.03-.2s0-.04-.01-.06l-.13-.37c-.03-.08-.09-.14-.16-.18l-.26-.12-.04-.02s-.07-.02-.1-.02h-.97s-.08,0-.12.02l-.25.11c-.07.03-.12.08-.15.15l-.16.36s0,.03-.01.04l-.51,1.89h-.13l-.18-1.62-.03-.2s0-.04-.01-.05l-.13-.38c-.03-.08-.09-.14-.16-.17l-.27-.12-.05-.02s-.06-.02-.09-.02h-.97s-.08,0-.12.02l-.25.11c-.07.03-.12.08-.15.15l-.17.4-.53,1.89h-.09l-.18-1.62-.03-.2s0-.03-.01-.05l-.14-.38c-.03-.08-.09-.14-.16-.17l-.27-.12-.05-.02s-.06-.01-.09-.01h-.97s-.08,0-.12.02l-.25.11c-.07.03-.12.08-.15.14l-.18.4-.55,1.89h-.06l-.19-1.62-.03-.2s0-.03-.01-.05l-.14-.38c-.03-.07-.09-.13-.16-.17l-.27-.12-.05-.02s-.06-.01-.09-.01h-.97s-.08,0-.12.02l-.25.11c-.06.03-.12.08-.15.14l-.18.41-.57,1.89h-.03l-.2-1.63-.04-.2s0-.03-.01-.05l-.14-.39c-.03-.07-.09-.13-.16-.16l-.28-.12-.05-.02s-.06-.01-.09-.01h-.97s-.08,0-.12.02l-.25.11c-.06.03-.12.08-.15.14l-.18.41-.59,1.88-.2-1.61-.04-.2s0-.03-.01-.04l-.14-.39c-.03-.07-.09-.13-.16-.16l-.24-.11s-.03-.01-.04-.01l-.05-.02s-.06-.01-.08-.01h-.97s-.08,0-.12.02l-.25.11c-.06.03-.11.07-.15.13l-.19.41-.59,1.81-.2-1.54-.04-.2s0-.03-.01-.04l-.1-.28-.05-.12c-.03-.07-.08-.13-.15-.16l-.24-.11s-.03-.01-.04-.02l-.05-.02s-.05-.01-.08-.01h-.97s-.08,0-.12.02l-.25.11c-.06.03-.11.07-.14.13l-.19.41-.59,1.75-.2-1.48-.04-.2s0-.03-.01-.04l-.1-.28-.05-.12c-.03-.07-.08-.12-.15-.15l-.24-.11s-.03-.01-.04-.02l-.06-.02s-.05-.01-.08-.01h-.97s-.08,0-.12.02l-.25.11c-.06.03-.11.07-.14.13l-.19.41-.58,1.69-.19-1.41-.05-.24-.1-.29-.05-.12c-.03-.07-.08-.12-.15-.15l-.24-.11s-.03-.01-.05-.02l-.06-.02s-.05-.01-.08-.01h-.97s-.08,0-.12.02l-.25.11c-.06.03-.11.07-.14.12l-.2.41-.58,1.63-.19-1.36-.05-.24-.1-.29-.05-.12c-.03-.07-.08-.12-.15-.15l-.24-.11s-.03-.01-.05-.02l-.06-.02s-.05,0-.07,0h-.97s-.08,0-.12.02l-.25.11c-.06.02-.1.07-.14.12l-.06.09s-.01.02-.02.04l-.7,1.88-.19-1.33-.05-.24-.1-.29-.06-.12c-.03-.06-.08-.12-.15-.14l-.24-.11s-.03-.01-.05-.02l-.06-.02s-.05,0-.07,0h-.97s-.08,0-.12.02l-.25.11c-.06.02-.1.06-.14.12l-.06.09s-.02.03-.02.04l-.69,1.83-.19-1.27-.05-.23-.09-.26s-.01-.03-.02-.04l-.06-.12c-.03-.06-.08-.11-.15-.14l-.24-.11s-.03-.01-.05-.02l-.06-.02s-.05,0-.07,0h-.97s-.08,0-.12.02l-.25.11c-.05.02-.1.06-.13.11l-.06.09s-.02.03-.02.04l-.69,1.77-.19-1.22-.05-.23-.09-.26s-.01-.03-.02-.04l-.06-.12c-.03-.06-.08-.11-.14-.14l-.24-.11s-.04-.01-.06-.02l-.06-.02s-.05,0-.07,0h-.97s-.08,0-.12.02l-.25.11c-.05.02-.1.06-.13.11l-.06.09s-.02.03-.02.05l-.69,1.72-.19-1.17-.05-.23-.08-.26s-.01-.03-.02-.05l-.06-.12c-.03-.06-.08-.11-.14-.13l-.24-.11s-.04-.01-.06-.02l-.07-.02s-.04,0-.07,0h-.97s0,0,0,0c-.04,0-.08,0-.12.02l-.25.11c-.05.02-.1.06-.13.11l-.06.09s-.02.03-.03.05l-.69,1.67-.18-1.12-.14-.48s-.01-.03-.02-.05l-.06-.12c-.03-.06-.08-.1-.14-.13l-.24-.11s-.04-.01-.06-.02l-.07-.02s-.04,0-.07,0h-.97s-.08,0-.12.02l-.25.11c-.05.02-.1.06-.13.1l-.06.09s-.02.03-.03.05l-.93,2.2h-.49s0,0,0,0c-.02,0-.04,0-.06,0l-.19.04s-.08.02-.11.05l-.16.11s-.05.04-.07.07l-.18.27s-.02.03-.02.04l-1.15,2.72h-3.41s-.04,0-.07,0l-.25.06s-.06.02-.09.04l-.13.08s-.06.04-.08.07l-.17.22s-.02.03-.03.05l-1.33,3.03s-.02.05-.02.08l-.02.18s0,.03,0,.04h0s-.06.05-.09.09l-.1.15s-.02.03-.02.04l-.38.88s-.02.06-.02.08l-.02.18s0,.03,0,.05h0s-.06.06-.09.09l-.1.15s-.02.03-.02.04l-.39.89s-.02.06-.02.08l-.02.18s0,.03,0,.05h0s-.07.06-.09.09l-.1.16s-.02.03-.02.04l-.39.9h0s-.03.06-.03.08l-.02.18s0,.03,0,.05h0s-.06.06-.09.09l-.1.16s-.02.03-.02.04l-.4.91h0s-.03.06-.03.09l-.02.18s0,.03,0,.05h0s-.07.06-.09.1l-.1.16s-.02.03-.02.04l-.4.91h0s-.03.06-.03.09l-.02.18s0,.04,0,.05h-.01s-.07.06-.09.1l-.1.16s-.02.03-.02.04l-.4.92h0s-.03.06-.03.09l-.02.18s0,.04,0,.06h-.01s-.07.06-.09.1l-.1.16s-.02.03-.02.04l-.41.93h0s-.03.06-.03.09l-.02.18s0,.04,0,.06h-.02s-.07.06-.09.1l-.1.16s-.02.03-.02.04l-.41.94s-.02.06-.02.09l-.02.19s0,.04,0,.06h-.02s-.07.07-.09.1l-.1.16s-.02.03-.02.04l-5.52,12.64h-1.31s-.3.04-.3.04c-.03,0-.06.01-.09.02l-.24.11-.19.11s-.06.04-.08.07l-.14.17s-.02.03-.03.04l-.11.19s-.02.05-.03.08l-2.85,11.15-.06.46v.21s0,.4,0,.4v.32S.25,121.54.25,121.54l-.18.98-.07,1.03.04,1,.15.87.12.45s.03.08.06.12l.07.08-.02.07c-.01.05-.01.1,0,.16l.12.45s0,.03.01.04l.22.52s.02.04.04.06l.25.33s.03.04.05.05l.33.28s.04.03.07.04l.35.16.59.19s.04.01.06.01l.68.07,317.03.12h2.46s.65-.07.65-.07c.02,0,.04,0,.06-.01l.59-.19s.03-.01.04-.02l.28-.15s.04-.02.05-.03l.34-.28s.03-.03.05-.05l.25-.33s.03-.05.04-.08l.21-.56.11-.45s.01-.09,0-.14l-.02-.09.06-.06s.06-.08.07-.13l.11-.48.13-.88.03-.99-.07-1.03ZM286.76,3.24l.1.02.06.04.11.16.93,2.47h-.5s-1-2.69-1-2.69h.31ZM283.37,2.98l.27-1.86.11-.39.12-.07h.87s.1.05.1.05l1.95,5.22h-2.64s-1.08-2.99-1.08-2.99l.3.04ZM280.16,2.98l.26-1.86.03-.17.07-.23.12-.06h.87s.1.04.1.04l1.9,5.22h-2.64s-1.01-2.89-1.01-2.89v-.1l.3.04ZM276.95,2.97l.25-1.86.03-.16.08-.23.11-.06h.87s.1.04.1.04l1.85,5.22h-2.64s-.94-2.78-.94-2.78v-.21l.3.04ZM273.73,2.97l.24-1.86.03-.18.07-.21.11-.06h.87s.1.04.1.04l.1.22,1.7,5h-2.65s-.89-2.69-.89-2.69h.01v-.3l.3.04ZM270.52,2.97l.24-1.86.03-.18.07-.22.11-.06h.86s.1.04.1.04l.09.22,1.65,5.01h-2.65s-.86-2.69-.86-2.69h.05v-.3l.3.04ZM267.31,2.97l.23-1.86.03-.18.07-.22.11-.05h.86s.09.04.09.04l.09.21,1.6,5.01h-2.65s-.83-2.69-.83-2.69h.09v-.3l.3.04ZM264.09,2.97l.22-1.86.03-.18.08-.22.1-.05h.86s.09.04.09.04l.09.21,1.54,5.01h-2.65s-.8-2.69-.8-2.69h.13v-.3l.3.04ZM260.88,2.96l.21-1.86.03-.18.08-.23.1-.04h.86s.09.04.09.04l.09.21,1.49,5.02h-2.65s-.77-2.69-.77-2.69h.17v-.3l.3.03ZM257.37,3.23v-.3l.3.03.21-1.86.03-.18.08-.23.09-.04h.86s.09.04.09.04l.09.21,1.44,5.02h-2.65s-.74-2.69-.74-2.69h.21ZM254.15,3.23v-.3l.3.03.2-1.86.03-.17.08-.23.09-.04h.86s.09.04.09.04l.09.21,1.39,5.02h-2.66s-.71-2.69-.71-2.69h.25ZM250.94,3.23v-.3l.3.03.19-1.86.03-.17.08-.22.09-.04h.86s.08.04.08.04l.09.22,1.33,5h-2.66s-.69-2.69-.69-2.69h.29ZM247.73,3.23v-.3l.3.03.18-1.86.03-.18.08-.22.1-.04h.85s.08.04.08.04l.06.15,1.31,5.08h-2.66s-.66-2.69-.66-2.69h.33ZM244.51,3.23v-.3l.3.03.17-1.86.02-.18.07-.22.1-.04h.85s.08.04.08.04l.06.14,1.25,5.09h-2.66s-.63-2.69-.63-2.69h.38ZM241.3,3.23v-.3l.3.03.17-1.86.02-.18.07-.21.1-.04h.85s.08.03.08.03l.06.14,1.06,4.47.14.62h-2.66s-.6-2.69-.6-2.69h.42ZM238.08,3.23v-.3l.3.03.16-1.86.02-.18.07-.21.1-.04h.84s.08.03.08.03l.06.13,1.15,5.09h-2.66s-.57-2.69-.57-2.69h.46ZM234.87,3.23v-.3l.3.02.15-1.86.02-.18.07-.21.1-.04h.84s.08.04.08.04l.06.13,1.09,5.1h-2.66s-.54-2.69-.54-2.69h.5ZM231.66,3.22v-.3l.3.02.14-1.87.02-.18.07-.2.1-.04h.84s.08.03.08.03l.05.13,1.04,5.1h-2.67s-.51-2.69-.51-2.69h.54ZM228.44,3.22v-.3l.3.02.14-1.87.02-.18.06-.2.1-.04h.84s.08.03.08.03l.05.12.98,5.11h-2.67s-.49-2.69-.49-2.69h.58ZM225.23,3.22v-.3l.3.02.13-1.87v-.16s.08-.22.08-.22l.09-.04h.84s.08.03.08.03l.05.12.93,5.11h-2.67s-.46-2.69-.46-2.69h.62ZM222.02,3.22v-.3l.3.02.12-1.87v-.17s.08-.22.08-.22l.09-.04h.84s.08.03.08.03l.05.11.88,5.12h-2.67s-.43-2.69-.43-2.69h.66ZM218.8,3.22v-.3l.3.02.11-1.87v-.17s.08-.21.08-.21l.09-.04h.84s.08.03.08.03l.05.13.82,5.1h-2.67s-.4-2.69-.4-2.69h.7ZM215.59,3.22v-.3l.3.02.11-1.87v-.17s.07-.21.07-.21l.09-.04h.84s.08.03.08.03l.05.13.76,5.1h-2.67s-.37-2.69-.37-2.69h.74ZM212.38,3.22v-.3l.3.02.1-1.87v-.17s.07-.21.07-.21l.09-.04h.84s.08.03.08.03l.05.13.71,5.1h-2.67s-.34-2.69-.34-2.69h.78ZM209.16,3.22v-.3h.3s.09-1.86.09-1.86v-.17s.07-.2.07-.2l.09-.04h.84s.08.03.08.03l.05.12.65,5.11h-2.67s-.31-2.69-.31-2.69h.82ZM205.95,3.22v-.3h.3s.08-1.86.08-1.86v-.18s.07-.2.07-.2l.08-.04h.84s.08.03.08.03l.05.12.6,5.11h-2.67s-.29-2.69-.29-2.69h.86ZM202.74,3.22v-.3h.3s.07-1.86.07-1.86v-.18s.06-.2.06-.2l.08-.04h.84s.08.03.08.03l.05.12.54,5.11h-2.67s-.26-2.69-.26-2.69h.9ZM199.52,3.22v-.3h.3s.07-1.86.07-1.86v-.18s.06-.19.06-.19l.08-.04h.84s.07.03.07.03l.05.12.49,5.11h-2.68s-.23-2.69-.23-2.69h.94ZM196.31,3.22v-.3h.3s.06-1.86.06-1.86v-.18s.06-.19.06-.19l.08-.03h.84s.07.03.07.03l.05.11.44,5.12h-2.68s-.2-2.69-.2-2.69h.98ZM193.1,3.21v-.3h.3s.05-1.86.05-1.86v-.26s.06-.11.06-.11l.08-.03h.84s.07.03.07.03l.04.11.38,5.12h-2.68s-.17-2.69-.17-2.69h1.02ZM189.88,3.21v-.3h.3s.04-1.87.04-1.87v-.26s.05-.11.05-.11l.08-.03h.84s.07.03.07.03l.04.11.33,5.12h-2.68s-.14-2.69-.14-2.69h1.06ZM186.67,3.21v-.3h.3s.04-1.87.04-1.87v-.26s.05-.11.05-.11l.07-.03h.84l.07.03.04.1.27,5.13h-2.68s-.11-2.69-.11-2.69h1.1ZM183.46,3.21v-.3h.3s.03-1.87.03-1.87v-.26s.05-.11.05-.11l.07-.03h.84l.07.03.04.1.22,5.13h-2.68s-.09-2.69-.09-2.69h1.14ZM180.24,3.21v-.3h.3s.02-1.87.02-1.87v-.26s.05-.11.05-.11l.07-.03h.84l.07.03.04.1.16,5.13h-2.68s-.06-2.69-.06-2.69h1.18ZM177.33,2.91v-1.88s.02-.27.02-.27l.04-.1.07-.03h.84l.07.03.04.1.11,5.13h-2.68s-.03-2.69-.03-2.69h1.22s0-.3,0-.3h.3ZM173.82,3.21v-.3h.3s0-2.15,0-2.15l.04-.09.07-.03h.84l.07.03.04.09.05,5.14h-2.68s0-2.69,0-2.69h1.26ZM170.94.67l.07-.03h.84l.07.03.04.09v5.14s-1.09,0-1.09,0l.03-5.1.04-.13ZM167.67.81l.04-.14.07-.03h.84l.07.03.04.1v2.14s.31,0,.31,0v.3h1.24s-.02,2.69-.02,2.69h-2.68s.08-5.09.08-5.09ZM164.44.81l.04-.14.07-.03h.84l.07.03.04.1.02,2.14h.3s0,.3,0,.3h1.2s-.04,2.69-.04,2.69h-2.68s.14-5.09.14-5.09ZM161.22.81l.04-.15.07-.03h.84l.07.03.04.11.03,2.13h.3s0,.3,0,.3h1.16s-.07,2.69-.07,2.69h-2.68s.19-5.08.19-5.08ZM157.99.82l.04-.15.07-.03h.84l.07.03.04.11.04,2.13h.3s0,.3,0,.3h1.12l-.1,2.69h-2.68s.25-5.08.25-5.08ZM154.76.82l.05-.16.07-.03h.84l.07.03.04.11.05,2.13h.3s0,.3,0,.3h1.08l-.13,2.69h-2.68s.3-5.07.3-5.07ZM151.53.83l.05-.16.07-.03h.84l.08.03.04.11.06,2.13h.3s0,.29,0,.29h1.04l-.16,2.69h-2.68s.35-5.07.35-5.07ZM148.31.83l.05-.17.07-.03h.84l.08.03.04.11.07,2.13h.3s0,.29,0,.29h1l-.19,2.69h-2.68s.41-5.06.41-5.06ZM145.08.83l.05-.17.07-.03h.84l.08.04.04.12.08,2.13h.3s0,.29,0,.29h.96s-.22,2.69-.22,2.69h-2.68s.46-5.06.46-5.06ZM141.85.84l.06-.18.08-.03h.84l.08.04.04.12.09,2.13h.3s0,.29,0,.29h.92s-.25,2.69-.25,2.69h-2.68s.51-5.05.51-5.05ZM138.62.84l.06-.18.08-.03h.84l.08.04.04.12.1,2.13h.3s0,.29,0,.29h.88s-.28,2.69-.28,2.69h-2.67s.57-5.05.57-5.05ZM135.39.85l.06-.19.08-.03h.84l.08.04.04.12.11,2.13h.3s0,.29,0,.29h.84s-.3,2.69-.3,2.69h-2.67s.62-5.04.62-5.04ZM132.17.85l.07-.19.08-.03h.84l.09.04.04.12.12,2.13h.3s0,.29,0,.29h.8s-.33,2.69-.33,2.69h-2.67s.67-5.04.67-5.04ZM128.94.85l.07-.2.08-.03h.84l.09.04.04.12.13,2.13.3-.02v.3s.76,0,.76,0l-.36,2.69h-2.67s.72-5.03.72-5.03ZM125.71.86l.07-.2.08-.03h.84l.09.04.04.12.14,2.13.3-.02v.3s.72,0,.72,0l-.39,2.69h-2.67s.78-5.03.78-5.03ZM122.48.86l.07-.21.08-.03h.84l.09.04.05.12.15,2.12.3-.02v.3s.68,0,.68,0l-.42,2.69h-2.67s.83-5.02.83-5.02ZM119.25.87l.08-.21.08-.03h.84l.1.04.04.1.16,2.15.3-.02v.3s.64,0,.64,0l-.45,2.69h-2.67s.88-5.02.88-5.02ZM116.03.87l.08-.21.08-.03h.84l.1.04.04.1.17,2.14.3-.02v.3s.6,0,.6,0l-.48,2.69h-2.67s.93-5.01.93-5.01ZM112.8.87l.08-.22.08-.03h.84l.1.04.04.11.18,2.14.3-.02v.3s.56,0,.56,0l-.51,2.69h-2.67s.99-5.01.99-5.01ZM109.57.88l.09-.22.08-.03h.87s0,.01,0,.01h0s.07.03.07.03l.04.11.19,2.14.3-.02v.3s.52,0,.52,0l-.54,2.69h-2.67s1.04-5,1.04-5ZM106.34.88l.09-.23.08-.03h.84l.1.04.04.12.2,2.14.3-.02v.3s.48,0,.48,0l-.57,2.69h-2.66s1.09-5,1.09-5ZM103.11.88l.09-.23.08-.03h.85l.1.04.04.12.21,2.14.3-.03v.3s.44,0,.44,0l-.59,2.69h-2.66s1.14-5,1.14-5ZM99.88.89l.1-.24.08-.03h.85l.1.04.04.12.22,2.13.3-.03v.3s.4,0,.4,0l-.62,2.69h-2.66s1.19-4.99,1.19-4.99ZM96.66.87l.09-.22.08-.03h.85l.1.04.07.22.2,2.04.3-.03v.3s.36,0,.36,0l-.65,2.69h-2.66s1.25-5.01,1.25-5.01ZM93.44.88l.09-.22.08-.04h.85l.1.04.08.22.21,2.04.3-.03v.3s.31,0,.31,0l-.67,2.69h-2.66s1.31-5,1.31-5ZM90.21.88l.09-.22.08-.04h.85l.1.04.08.22.22,2.04.3-.03v.3s.27,0,.27,0l-.7,2.69h-2.66s1.36-5,1.36-5ZM86.97.89l.1-.24.09-.04h.86l.1.04.08.22.23,2.04.3-.03v.3h.23l-.73,2.69h-2.65s1.4-4.98,1.4-4.98ZM83.75.89l.1-.24.09-.04h.86l.1.04.08.22.24,2.04.3-.03v.3h.19l-.76,2.69h-2.65s1.46-4.98,1.46-4.98ZM80.52.89l.1-.24.09-.04h.86l.1.05.08.22.25,2.04.3-.03v.3h.15l-.79,2.69h-2.65s1.51-4.98,1.51-4.98ZM77.29.89l.1-.24.09-.04h.86l.1.05.08.22.26,2.04.3-.04v.3h.11l-.82,2.69h-2.65s1.56-4.98,1.56-4.98ZM74.07.89l.1-.24.1-.04h.86l.1.05.08.22.26,2.04.3-.04v.3h.07l-.84,2.69h-2.65s1.62-4.98,1.62-4.98ZM70.84.89l.1-.24.1-.05h.86s.11.05.11.05l.08.22.27,2.04.3-.04v.3h.03l-.87,2.69h-2.65s1.67-4.98,1.67-4.98ZM67.61.89l.1-.23.1-.05h.87s.11.05.11.05l.08.22.28,2.04.3-.04v.27l-.91,2.72h-2.64s1.72-4.98,1.72-4.98ZM64.38.89l.1-.23.11-.05h.87s.11.05.11.05l.07.2.3,2.06.3-.04v.15l-.98,2.84h-2.64s1.77-4.98,1.77-4.98ZM61.16.89l.1-.24.1-.04h.87s.11.05.11.05l.07.2.3,2.06.3-.04v.04l-1.05,2.95h-2.64s1.83-4.98,1.83-4.98ZM57.93.89l.1-.24.11-.05h.87s.11.05.11.05l.07.21.31,2.06.29-.04-1.11,2.99h-2.64s1.88-4.98,1.88-4.98ZM54.7.89l.1-.24.11-.05h.87s.11.05.11.05l.07.21.32,2.06.24-.04-1.14,2.98h-2.63s1.93-4.98,1.93-4.98ZM51.48.89l.11-.24.11-.05h.87s.12.05.12.05l.07.21.33,2.06.2-.03-1.16,2.98h-2.63s1.99-4.98,1.99-4.98ZM48.25.89l.11-.24.11-.05h.87s.12.05.12.05l.07.21.34,2.06.16-.03-1.19,2.97h-2.63s2.04-4.98,2.04-4.98ZM45.02.89l.11-.24.11-.05h.87s.12.05.12.05l.07.21.35,2.06.12-.02-1.22,2.96h-2.63s2.09-4.98,2.09-4.98ZM42.94,3.4l.11-.16.06-.04.1-.02h.21s-1.13,2.69-1.13,2.69h-.39s1.04-2.46,1.04-2.46ZM286.57,14.05l-252.05-.07h.02s252.04.06,252.04.06h0ZM287.11,15.57l-253.29-.07h.04s253.24.06,253.24.06h0ZM287.66,17.1l-254.53-.07h.07s254.46.05,254.46.05h0ZM288.22,18.65l-255.79-.07.1-.02h23.23s.05,0,.05,0l232.41.06v.02ZM288.78,20.21l-257.06-.07h0s.12-.03.12-.03h26.71s.04,0,.04,0l138.4.04v-.3l.04.3,91.74.03v.03ZM289.35,21.79l-128.02-.03-57-.02h-.04l-73.26-.02h.01s.12-.03.12-.03h54.98s.06.01.06.01l203.15.05v.03ZM30.65,22.48l.05-.08.07-.04.12-.03,259.03.07v-.27h.01s0-.03,0-.03l.27-.1-.23-.64c-.04-.12-.16-.2-.28-.2h0s-203.48-.06-203.48-.06v.3l-.06-.3H31.25s.08-.2.08-.2l.05-.08.07-.04.12-.03,257.77.07v-.27h.01s0-.03,0-.03l.27-.1-.23-.63c-.04-.12-.16-.2-.28-.2h0s-230.51-.07-230.51-.07v.3l-.04-.3h-26.62s.08-.18.08-.18l.05-.08.07-.04.12-.03,256.52.07v-.28h.02s0-.03,0-.03l.26-.1-.23-.62c-.04-.12-.16-.19-.28-.19h0s-232.74-.07-232.74-.07v.3l-.05-.3h-23.14s.07-.17.07-.17l.05-.08.07-.04.12-.02,255.29.07v-.28h.02s0-.03,0-.03l.26-.09-.22-.62c-.04-.12-.16-.2-.28-.2h0s-254.7-.07-254.7-.07l.07-.16.05-.08.06-.04.12-.03,254.06.07v-.28h.02s0-.03,0-.03l.26-.09-.22-.61c-.04-.12-.16-.19-.28-.2h0s-253.48-.07-253.48-.07l.07-.15.05-.08.06-.04.12-.03,252.85.07v-.28s.03,0,.03,0v-.04s.26-.09.26-.09l-.22-.61c-.04-.12-.16-.2-.28-.19h0s-252.27-.07-252.27-.07l.06-.14.05-.08.06-.04.12-.03,251.65.07v-.28h.03s0-.04,0-.04l.25-.09-.22-.6c-.04-.12-.16-.2-.28-.2l-251.08-.07.06-.14.05-.08.06-.04.12-.03,250.46.07v-.28h.03s0-.04,0-.04l.25-.09-.22-.6c-.04-.12-.16-.2-.28-.2l-249.89-.07.06-.13.05-.08.06-.04.11-.03,249.29.06v-.28s.03,0,.03,0v-.04s.25-.09.25-.09l-.21-.59c-.04-.12-.16-.18-.28-.18v-.02h-57.07s-.04-.01-.04-.01h-6.36s-.05,0-.05,0l-100.67-.03h-1.64s-.05,0-.05,0h-1.51s-.08,0-.08,0l-81.25-.02.99-2.28.09-.12.21-.06,253.89.07.17.04.13.14,3.51,9.04.02.14-.16,2.44-.9-2.37-.56.22,3.04,7.95.14-.05-.11.13.22.17.09-.11-.03.16.56.1s.04,0,.05,0h.89s.08.01.08.01l.09.06.05.07,3.98,10.25-277.76-.08,5.41-12.37ZM117.82,9.54v-.29l.07.29h-.07ZM119.41,9.54v-.29l.05.29h-.05ZM221.76,9.57v-.29l.05.29h-.05ZM226.6,9.57v-.29l.06.29h-.06ZM.67,122.6l.17-.93L19.7,48.46l.02-.16v-.4s0-.37,0-.37l.05-.48,2.85-11.17.08-.13.09-.11.29-.14.22-.03,280.14.08h1.36s.26.03.26.03l.14.06.14.08.1.11.07.13,2.52,11.05.04.31.03.29v.4s0,0,0,.01l.02.41,16.78,73.35.15.92.06.97-.03.93-.12.82-.09.38-.11.12-.29.22-.48.13-.59.05-321.05-.12-.61-.05-.48-.12-.24-.16-.15-.18-.1-.36-.14-.8-.03-.93.07-.96ZM324.27,127.42l-.29.23-.23.12-.53.18-.59.06-315.43-.12h-3.99s-.62-.06-.62-.06l-.52-.17-.28-.13-.28-.23-.2-.27h0s.41.1.41.1c.02,0,.03,0,.05,0l.66.05,320.89.12.64-.05s.03,0,.05,0l.47-.12v.03s-.21.26-.21.26Z"/>
      <path d="M264.21,107.93s.01.06.03.09l.13.26s.06.09.1.12l.28.19s.07.04.11.05l.35.07s.04,0,.06,0l51.98.02s.04,0,.06,0l.33-.07c.05-.01.1-.04.14-.07l.21-.19c.05-.05.09-.11.09-.18l.03-.26s0-.07,0-.1l-10.37-46.59s-.02-.06-.04-.09l-.14-.23s-.06-.08-.1-.1l-.27-.16-.5-2.26s-.02-.06-.04-.09l-.2-.34-.15-.21s-.05-.06-.09-.08l-.45-.25s-.11-.04-.15-.04l-.53-.06s-.03,0-.05,0l-1.77.09-1.46.03-1.45-.03-1.73-.1s-.04,0-.06,0l-.5.07s-.07.02-.11.03l-.14.08s-.03.02-.04.03l-.35.28s-.07.08-.09.12l-1.05,2.62h-1.46s-.43-2.15-.43-2.15c0-.03-.02-.06-.04-.09l-.24-.41s-.02-.03-.03-.04l-.09-.11s-.05-.05-.08-.07l-.45-.25s-.07-.03-.11-.04l-.57-.07s-.03,0-.05,0l-1.77.09-1.46.03-1.45-.03-1.73-.1s-.04,0-.06,0l-.51.07s-.08.02-.11.04l-.14.08s-.03.02-.04.02l-.36.28s-.08.08-.1.13l-1.01,2.61h-1.56s-.38-2.15-.38-2.15c0-.03-.02-.07-.03-.09l-.23-.41s-.02-.03-.04-.05l-.09-.11s-.05-.05-.08-.06l-.44-.25s-.08-.03-.12-.04l-.56-.07s-.03,0-.05,0l-1.77.09-1.46.03-1.45-.03-1.74-.1s-.04,0-.06,0l-.51.07s-.08.02-.11.04l-.16.1-.37.28s-.08.08-.1.13l-.96,2.61h-1.65s-.34-2.14-.34-2.14c0-.03-.02-.07-.03-.1l-.22-.41s-.03-.04-.04-.06l-.1-.11s-.04-.04-.07-.06l-.43-.25s-.08-.03-.12-.04l-.56-.07s-.03,0-.05,0l-1.76.09-1.46.03-1.45-.03-1.74-.1s-.04,0-.05,0l-.51.07s-.08.02-.12.04l-.52.37s-.08.08-.1.14l-.92,2.6h-1s-.04,0-.06,0l-.31.06s-.09.03-.13.06l-.21.17c-.05.04-.09.1-.11.17l-.05.23.29.07-.3.04,6.57,46.59ZM258.38,62.28h.01s.5,0,.5,0l-.37,1.04-.15-1.04ZM282.93,63.14l-.15-.85h.58s-.4,1.04-.4,1.04l-.02-.19ZM283.01,68.19l.88,4.41.56,4.36-.26-.12s-.07-.02-.1-.03l-.58-.04s-.03,0-.04,0l-1.81.12-1.53.03-1.46-.03-1.79-.12s-.03,0-.04,0l-.52.04s-.1.02-.14.05l-.37.24-.17.14s-.06.07-.08.11l-1.88,4.28-.14-.09-.17-.34-1.13-7.14.07-.36,2.34-5.82.36-.26.42-.05,1.74.1,1.49.03,1.5-.03,1.78-.1.49.05.34.19.25.39ZM295.31,62.99l-.14-.7h.42s-.28.7-.28.7ZM295.23,67.81l.26.4,1.01,4.55.5,4.16-.17-.08s-.07-.02-.1-.03l-.59-.04s-.03,0-.04,0l-1.81.12-1.5.03-1.49-.03-1.78-.12s-.03,0-.05,0l-.52.04s-.1.02-.14.05l-.35.23-.17.14s-.06.07-.08.11l-1.96,4.3-.14-.1-.54-2.18-.68-3.81-.22-1.76.02-.1,2.43-5.82.28-.21.08-.05.42-.05,1.74.1,1.49.03,1.5-.03,1.78-.1.49.05.35.19ZM263.83,100.87h0s-1.2-8.55-1.2-8.55l2.14-5.64.09-.08.25-.15.44-.03,1.81.12,1.54.04,1.54-.04,1.81-.12.54.03.34.15.27.38.95,3.9.58,4.63-5.09-.05-2.86-.1-.54.03s-.09.02-.13.04l-.35.19s-.04.03-.06.04l-.17.16s-.06.07-.07.11l-1.82,4.93ZM263.44,77.64l.35-.24.43-.04,1.78.12,1.51.03,1.52-.03,1.8-.11.5.04.33.16.26.38.89,4.07.54,4.04-.39-.17s-.07-.02-.1-.02l-.63-.04-1.83.12-1.52.03-1.51-.03-1.82-.12s-.03,0-.04,0l-.53.04s-.09.02-.13.04l-.34.2s-.04.02-.05.04l-.17.15s-.06.07-.08.11l-1.77,4.65h-.02s-1.17-8.29-1.17-8.29l2.17-5.13ZM284.59,77.95l.95,3.85.06.21.51,4-.3-.13s-.06-.02-.1-.02l-.63-.04-1.84.12-1.52.03-1.51-.03-1.81-.12s-.03,0-.04,0l-.53.04s-.09.02-.13.04l-.33.2s-.03.02-.05.04l-.17.15s-.06.07-.08.11l-1.84,4.68-.16-.11-.13-.26-.09-.38-1.12-7.06.07-.37,2.31-5.25.35-.24.43-.04,1.78.12,1.47.03s.04,0,.05,0l1.52-.03,1.8-.11.51.04.34.16.27.39ZM297.25,77.95l1.11,4.05.48,3.97-.22-.09s-.06-.02-.1-.02l-.63-.04-1.84.12-1.52.03-1.51-.03-1.81-.12s-.03,0-.04,0l-.53.04s-.09.02-.14.04l-.33.2s-.03.02-.04.03l-.17.15s-.06.07-.08.11l-1.92,4.7-.03-.02-.03-.29s0-.03,0-.04l-.81-2.96-.49-2.76h0s-.26-2.06-.26-2.06v-.06s2.4-5.25,2.4-5.25l.35-.25.42-.04,1.77.12,1.51.03,1.52-.03,1.8-.11.51.04.35.16.28.39ZM307.84,67.57h0s-.02.06-.02.06l-.03.02.04-.08ZM310.22,77.37h0s0-.07,0-.07l.02.07ZM309.62,77.57l.28.39,1.23,4.08.44,3.91-.14-.06s-.06-.02-.1-.02l-.64-.04-1.84.12-1.52.03-1.51-.03-1.81-.12s-.03,0-.04,0l-.52.04s-.1.02-.14.04l-.32.2s-.03.02-.04.03l-.18.15s-.06.07-.08.11l-1.86,4.39s0-.03-.01-.05l-1.21-3.97s-.02-.05-.04-.08l-.09-.13-.48-3.98,2.33-4.92.35-.25.42-.04,1.77.12,1.51.03,1.52-.03,1.81-.11.52.04.36.16ZM275.66,95.51l-.42-2.67.07-.39,2.28-5.77.1-.09.25-.15.44-.03,1.81.12,1.54.04.97-.02,2.38-.14.54.03.35.15.27.38,1.07,3.9.56,4.64-.26-.11s-.06-.02-.1-.02l-.63-.04-1.28.04-5.12.1-3.55.02h-1.25ZM288.61,96.29l-.17-.94-.36-2.97,2.33-5.69.1-.09.24-.15.43-.03,1.8.12,1.53.04,1.55-.04,1.81-.12.54.03.36.15.17.21.11.17,1.19,3.9.53,4.62-.23-.09s-.06-.02-.1-.02l-.64-.03-1.87.13-1.54.04-1.53-.04-1.84-.13s-.03,0-.04,0l-.53.03s-.09.02-.13.04l-.33.19s-.03.02-.05.04l-.18.16s-.06.07-.08.11l-1.89,4.75-.04-.4s0-.03-.01-.05l-1.15-3.93s0,0,0-.01ZM290.5,106.85l-.54-4.89,2.28-5.73.1-.09.24-.14.44-.03,1.83.13,1.56.04,1.57-.04,1.84-.13.55.03.37.15.29.38,1.25,3.86.81,7.74h-12.38s-.23-1.28-.23-1.28ZM303.63,107.34l-.74-7.05s0-.04-.01-.06l-1.27-3.93s-.02-.05-.03-.07l-.11-.17-.46-4.05,1.98-4.69,3.2,12.52h.01s.52,1.39.52,1.39l-.27,6.89h-2.65s-.16-.79-.16-.79ZM307.3,101.08l-.57-1.52-3.31-12.95-.1.02.03-.02.24-.15.43-.03,1.8.12,1.53.04,1.55-.04,1.81-.12.55.03.37.15.17.21,3.56,13.02.06-.02.06.23.75,8.06h-9.2s.27-6.93.27-6.93c0-.04,0-.08-.02-.12ZM316.71,106.62l.33,1.51h-.19s-.14-1.51-.14-1.51ZM307.7,67.81l.27.4,1.1,4.51.47,4.15-.08-.04s-.07-.02-.1-.03l-.59-.04s-.03,0-.04,0l-1.82.12-1.5.03-1.49-.03-1.78-.12s-.03,0-.05,0l-.52.04c-.05,0-.1.02-.14.05l-.34.23-.18.14s-.06.07-.08.11l-1.99,4.21-1.04-3.8s-.02-.06-.04-.09l-.1-.14h0s-.5-4.12-.5-4.12l2.39-5.51.27-.21.09-.05.42-.05,1.74.1,1.49.03,1.5-.03,1.78-.1.5.05.35.18ZM270.6,63.71l-.07-.57-.14-.86h.73s-.53,1.43-.53,1.43ZM271.33,72.72l.57,4.28-.36-.17s-.07-.02-.1-.03l-.58-.04s-.03,0-.04,0l-1.81.12-1.5.03-1.49-.03-1.79-.12s-.03,0-.04,0l-.53.04s-.09.02-.14.04l-.34.21s-.03.02-.04.03l-.17.14s-.06.07-.08.11l-1.8,4.26h0s-1.13-8.03-1.13-8.03l2.2-5.7.37-.26.42-.05,1.75.1,1.49.03,1.5-.03,1.77-.1.48.05.34.19.24.39.8,4.53ZM265.04,108.06l-.16-.11-.07-.15-.8-5.67,2.19-5.92.09-.09.25-.14.44-.03,2.84.1,3.55.05,3.55.02,3.56-.02,3.56-.04,2.83-.1.55.03.36.15.18.23.1.15,1.13,3.86.86,7.75h-24.74s-.26-.06-.26-.06ZM297.86,58.24l.27-.21.07-.04.42-.06,1.71.09,1.47.03,1.48-.03,1.76-.09.48.06.35.2.22.35,1.05,4.7.38,3.82s-.04-.02-.06-.02l-.58-.06s-.03,0-.05,0l-1.79.1-1.48.03-1.46-.03-1.76-.1s-.04,0-.05,0l-.51.06s-.09.02-.13.04l-.52.38s-.07.07-.09.12l-2.04,4.71-.94-4.25s-.02-.07-.04-.09l-.21-.33-.36-3.36,2.41-6ZM296.04,61.16l-.21.53h-.78s-.11-.53-.11-.53h1.1ZM285.56,58.24l.27-.21.07-.04.42-.05,1.72.09,1.47.03,1.48-.03,1.75-.09.48.06.34.2.24.39.93,4.66.41,3.85-.04-.02s-.07-.03-.11-.03l-.58-.06s-.03,0-.05,0l-1.79.1-1.48.03-1.47-.03-1.76-.1s-.04,0-.05,0l-.51.06s-.09.02-.13.05l-.52.37s-.08.08-.1.13l-2.03,4.86-.1-.06-.87-4.34s-.02-.07-.04-.1l-.06-.1-.04-.24-.34-2.96,2.46-6.39ZM283.79,61.16l-.2.53h-.92s-.09-.53-.09-.53h1.21ZM273.26,58.23l.26-.21.08-.05.42-.05,1.72.09,1.47.03,1.48-.03,1.75-.09.48.06.34.2.23.39.84,4.66.45,3.9-.13-.07s-.07-.03-.11-.03l-.57-.06s-.03,0-.05,0l-1.79.1-1.48.03-1.47-.03-1.76-.1s-.03,0-.05,0l-.52.06s-.09.02-.13.05l-.51.37s-.08.08-.1.13l-1.94,4.83-.1-.07-.17-.32-1.1-6.93.07-.35,2.4-6.5ZM271.54,61.15l-.19.53h-1.05s-.08-.53-.08-.53h1.33ZM260.97,58.23l.28-.21.07-.04.42-.05,1.72.09,1.47.03,1.48-.03,1.75-.09.47.06.34.2.22.38.74,4.67.48,3.95-.23-.12s-.07-.03-.11-.04l-.57-.06s-.03,0-.05,0l-1.79.1-1.48.03-1.47-.03-1.76-.1s-.03,0-.05,0l-.52.06c-.05,0-.1.02-.14.05l-.51.36s-.08.08-.11.14l-1.84,4.77-1.09-7.72,2.25-6.39ZM258.33,61.19l.21-.04h.76s-.19.53-.19.53h-.74s-.04,0-.06,0h0s-.05-.37-.05-.37l.02-.07.07-.06Z"/>
      <path d="M21.25,56.89l.16.14s.09.06.14.07l.25.05s.04,0,.07,0h11.29s.04,0,.05,0l.28-.05s.07-.02.1-.04l.23-.14s.08-.06.1-.1l.12-.19s.03-.06.04-.09l1.85-8.04s.01-.08,0-.11l-.03-.19-.3.05.19-.23-.16-.14s-.09-.05-.13-.06l-.25-.05s-.04,0-.06,0h-.92s-1.17-2.84-1.17-2.84c-.02-.05-.05-.09-.09-.12l-.34-.27s-.03-.02-.04-.03l-.15-.08s-.07-.03-.11-.04l-.49-.06s-.04,0-.05,0l-1.68.09-1.43.03h-.7s-2.46-.12-2.46-.12c-.02,0-.03,0-.05,0l-.56.06s-.08.02-.11.03l-.45.24s-.08.05-.1.09l-.34.52s-.03.06-.04.09l-.72,2.92s-.03.06-.04.09l-2.02,8.04s-.01.07,0,.11l.02.19c0,.07.05.14.1.19ZM35.04,49.65l-.06-.15h.1s-.04.15-.04.15ZM35.16,48.37l.15.03h.02s0,.03,0,.03l-.11.47h-.49s-.22-.52-.22-.52h.64ZM24.48,45.55l.26-.39.34-.18.48-.05,1.73.1,1.45.03,1.44-.03,1.66-.09.4.05.33.24,2.24,5.44-1.31,5.7-.05.09-.12.07-.2.04h-10.35s.61-6.55.61-6.55l1.11-4.46Z"/>
      <path d="M236.26,31.8h4.91c.12,0,.23-.07.28-.19l.08-.2-.28-.11v-.3h-.86s-.39-.04-.39-.04l-.23-.08-.03-.03h0s1.45-3.16,1.45-3.16l2.35,3.92s.05.07.09.1l.05.04s.08.04.12.05h.09s.03.02.05.02h.4s0,0,0,0c.02,0,.05,0,.07,0l.08-.02s.04-.01.06-.02l5.86-3.78-1.17,2.62-.12.13-.26.13-.39.1-.43.04h-.87c-.13,0-.23.08-.28.19h0s-.08.2-.08.2c-.04.09-.02.2.03.28.06.08.15.13.25.13h7.37c.13,0,.24-.08.28-.2l.08-.2-.28-.1v-.3h-.68s-.39-.03-.39-.03l-.24-.08-.04-.04,1.58-3.83.11-.12.25-.13.38-.1.43-.04h.62c.13,0,.24-.08.28-.2l.07-.2-.28-.1v-.3h-4.02s-.93,0-.93,0h-.09s-.03.01-.04.01l-.09.02s-.03,0-.05.02l-.06.03s-.03.01-.04.02l-5.24,3.4-2.03-3.28s-.04-.05-.06-.07l-.04-.04s-.06-.04-.09-.05l-.08-.03s-.04-.01-.06-.01h-5.2c-.13-.01-.23.06-.28.17h0s-.08.2-.08.2c-.04.09-.03.2.03.28.06.08.15.13.25.13h1.09s.29.04.29.04l.28.08-1.87,3.85-.12.13-.27.14-.39.1-.43.04h-.63c-.12,0-.23.08-.28.18h0s-.09.2-.09.2c-.04.09-.03.2.03.28.06.08.15.14.25.14ZM240.88,26.99l-.04.06s-.02.03-.03.05l-1.63,3.55s-.03.07-.03.11l-.02.44h-.34s1.91-3.94,1.91-3.94l-.17-.08.02-.04h.18s.01-.24.01-.24h.27c-.05.02-.1.05-.13.1ZM244.37,31.17l-.06.03h-.3s-2.47-4.12-2.47-4.12c0-.01-.02-.03-.03-.04l-.05-.06s-.07-.07-.12-.09h2.17s.03,0,.03,0l2.09,3.4s.03.03.04.04l-1.3.84ZM252.61,30.66s-.02.06-.02.1h0s-.03.44-.03.44h-2.74s1.45-3.24,1.45-3.24c0-.02.01-.04.02-.05v-.06s-.14-.04-.14-.04v-.02s.16,0,.16,0l.03-.48h0c0-.07-.02-.14-.06-.2l.3-.2.09-.02h2.5s-1.56,3.76-1.56,3.76Z"/>
      <path d="M278.96,30.9l-.44.08-.49.02c-.13,0-.24.09-.28.22h0s-.06.2-.06.2c-.03.09,0,.19.05.27.06.08.15.12.24.12h4.38c.13,0,.25-.09.29-.22l.06-.2-.29-.08v-.3h-.41s-.41-.02-.41-.02l-.07-.02,1.56-.88h.72v-.31l.08.3h3.31s.29.84.29.84h0s-.17.07-.17.07l-.27.03h-.91c-.14,0-.25.09-.29.22h0s-.06.2-.06.2h.03s0,.05,0,.05l.24.02h.04s.02.31.02.31h6.37c.14,0,.26-.09.29-.23l.05-.2-.29-.07v-.3h-.39s-.33-.03-.33-.03l-.26-.08-.16-.09-.06-.07-1.7-4.78s-.03-.07-.06-.1l-.04-.04s-.08-.07-.12-.09l-.06-.02s-.06-.02-.09-.02h-.11s-.33,0-.33,0h-.08s-.04.02-.06.02l-.07.02s-.03.01-.05.02l-9.42,5.1-.19.05ZM288.08,30.78l-.37-1.06s-.06-.1-.09-.13c-.03-.03-.07-.06-.11-.07l.02-.22s0-.09-.02-.13l-.47-1.36s-.03-.05-.04-.07l1.78-.96h.28s1.58,4.43,1.58,4.43h-2.57s.03-.3.03-.3c0-.04,0-.08-.02-.12ZM286.86,29.1h-1.95s1.64-.88,1.64-.88l.31.88ZM280.77,31.12v.08s-.15,0-.15,0l.15-.08Z"/>
      <path d="M265.19,27.55l-.34.37s-.03.03-.04.05l-.2.33s-.04.08-.04.12l-.04.38.16.02.05.03-.21.04.08.38s.01.04.02.06l.15.35s.03.05.05.08l.28.33s.02.03.04.04l.39.32s.03.02.04.03l.48.27.52.25.58.23.63.2.64.16.54.1.7.1.81.08,1.43.06s.04,0,.05,0h.7s.84-.01.84-.01l2.45-.16.74-.09.44-.08s.03,0,.05-.01l.14-.05s.08-.04.11-.06l.08-.07s.04-.04.06-.07l.05-.08s.02-.04.02-.06l.57-1.69.07-.07.22-.08.32-.04h.46c.14,0,.26-.1.29-.24l.04-.2-.29-.07v-.3h-6.36c-.13,0-.24.08-.28.21h0s-.06.2-.06.2c-.03.09-.01.19.04.27s.15.12.24.12h.68s.32.02.32.02l.23.06.12.06v.02s-.51,1.44-.51,1.44l-.45.07-.69.02-.72-.03-.64-.09-.75-.17-.51-.19-.45-.24-.24-.18-.23-.24-.15-.25-.07-.23v-.29s.04-.23.04-.23l.11-.25.18-.24.21-.25.39-.29.31-.19.46-.2.55-.21.52-.16.51-.13.56-.12,1.23-.15,1.04-.02h.51s.41.08.41.08l.57.15.43.17.19.13.13.12.21.33.1.24c.05.11.16.18.28.18h.48c.15,0,.28-.11.3-.26l.23-1.47-.3-.05.27-.14-.07-.13c-.03-.06-.08-.1-.13-.13l-.2-.1s-.06-.02-.09-.03l-.22-.04-3.15-.05-1.94.04-1.07.06-1.23.11-.84.11-.77.14-.86.19-.73.19-.75.25-.61.25-.5.27-.39.27s-.03.03-.05.04ZM277.07,30.98l-.47.11-.72.08-1.51.12.42-1.19-.12-.04.02-.04h.12s.03-.42.03-.42h2.69s-.47,1.38-.47,1.38ZM269.43,27.33l-.45.33s-.04.03-.05.05l-.25.3-.21.29s-.02.04-.03.06l-.13.31s-.01.04-.02.06l-.06.29s0,.02,0,.03h0s-.04.48-.04.48h.06s0,.03,0,.03h-.07s.01.36.01.36c0,.03,0,.05.01.08l.1.31s.02.05.03.07l.19.31s.02.03.04.05l.27.28s.02.02.03.03l-.3-.06-.6-.15-.59-.19-.54-.21-.48-.23-.4-.23-.38-.31-.24-.28-.12-.28-.03-.16.1-.17.3-.32.33-.24.44-.23.56-.23.72-.24.7-.18.83-.18.75-.13h.09s-.17.07-.17.07l-.37.22ZM278,27.44l-.18-.34-.13-.18s-.02-.03-.04-.04l-.12-.11h.36s.22.04.22.04h.02s-.1.63-.1.63h-.03Z"/>
      <path d="M221.04,31.79h4.38c.12,0,.23-.07.27-.18l.09-.2-.27-.13v-.3s-.41,0-.41,0l-.41-.02h0s1.72-.89,1.72-.89l.09-.02h.79s3.24,0,3.24,0l.14.8h0s-.05.04-.05.04l-.19.06-.28.03h-.91c-.12,0-.23.07-.27.18h0s-.09.2-.09.2l.06.03v.08s.21,0,.21,0h0v.31h6.41c.12,0,.23-.07.28-.18l.09-.2-.28-.12v-.3s-.39,0-.39,0l-.32-.03-.24-.07-.13-.08-.03-.05-.88-4.77s-.02-.08-.05-.12l-.03-.04s-.08-.09-.13-.11l-.06-.02s-.06-.02-.09-.02h-.11s-.33,0-.33,0h-.09s-.04.01-.06.02l-.07.02s-.03.01-.05.02l-10.3,5.1-.2.05-.45.08-.49.02c-.12,0-.22.07-.27.17h0s-.1.2-.1.2c-.04.09-.04.2.02.29s.15.14.25.14ZM230.35,29.08h-1.92s1.76-.87,1.76-.87l.15.87ZM223.92,31.17v.02h-.04l.04-.02ZM231.27,30.88s0-.04,0-.07l-.19-1.06s-.05-.12-.07-.15c0-.01-.02-.02-.03-.03v-.31s.01-.04.01-.07l-.24-1.36s-.01-.03-.02-.05l2.08-1.03h.25s.82,4.43.82,4.43h-2.62s.01-.31.01-.31Z"/>
      <path d="M256.08,30.99c-.13,0-.24.08-.28.2h0s-.07.2-.07.2c-.03.09-.02.2.04.28s.15.13.25.13h7.34c.13,0,.24-.08.29-.2l.07-.21-.29-.1v-.3h-.92s-.4-.04-.4-.04l-.24-.08-.05-.04h0s1.63-3.92,1.63-3.92l.07-.09.19-.1.3-.08.34-.03h.68c.13,0,.25-.08.29-.21l.07-.2c.03-.09.01-.19-.04-.27-.06-.08-.15-.12-.24-.12h-7.09c-.13,0-.24.08-.28.2h0s-.07.2-.07.2c-.03.09-.02.19.04.27s.15.13.25.13h.92s.39.03.39.03l.24.08.04.04-1.69,3.91-.08.09-.2.1-.31.08-.35.03h-.82ZM261.22,30.65s-.02.06-.02.09l-.03.45h-2.72s1.62-3.77,1.62-3.77l-.15-.06.02-.05h.15s.03-.43.03-.43h2.67s-1.56,3.76-1.56,3.76Z"/>
      <path d="M285.82,43.91v.02s.17-.03.17-.03v.03s-.13.09-.13.09l.16.27s.06.08.1.11l.35.22s.07.03.1.04l.44.08s.04,0,.05,0h8.43s.04,0,.06,0l.4-.08s.1-.03.13-.06l.26-.21-.2-.25.32.04.05-.26s0-.08,0-.11l-1.26-6.04s-.02-.06-.04-.09l-.17-.29s-.06-.08-.1-.1l-.35-.21s-.07-.03-.1-.04l-.43-.08s-.03,0-.05,0h-8.33s-.04,0-.06,0l-.4.08s-.09.03-.13.06l-.27.21c-.06.04-.09.11-.11.18l-.06.29s0,.08,0,.11l1.16,6.04h0ZM286.73,44.08l-.12-.07-1.03-5.37.09-.52.1-.09.23-.04h7.81s.2.04.2.04l.14.09.06.11,1.17,5.66.02.09-.03.18h-8.29s-.35-.07-.35-.07Z"/>
      <path d="M39.59,56.9l.17.14s.09.05.14.06l.26.05s.04,0,.06,0l75.29.02h0s.04,0,.06,0l.27-.05s.08-.02.11-.05l.21-.14s.08-.07.11-.12l.09-.19s.02-.07.03-.1l.75-8.04-.3-.03.29-.08-.05-.19c-.02-.06-.06-.12-.11-.16l-.18-.14s-.08-.05-.12-.05l-.26-.05s-.04,0-.06,0h-.66l-.86-2.82c-.02-.06-.06-.12-.11-.16l-.5-.35s-.09-.05-.14-.05l-.51-.06s-.03,0-.05,0l-2.37.09-2.31.03-1.57-.02-3.15-.11s-.03,0-.05,0l-.54.06s-.08.02-.12.04l-.41.24s-.04.03-.06.05l-.1.11s-.04.05-.05.07l-.2.4s-.02.06-.03.09l-.34,2.38h-1.58s-.92-2.82-.92-2.82c-.02-.06-.06-.11-.11-.15l-.5-.35s-.09-.04-.13-.05l-.51-.06s-.03,0-.05,0l-2.37.09-2.31.03-1.36-.02-3.36-.11s-.03,0-.04,0l-.55.06s-.08.02-.12.04l-.42.24s-.05.03-.07.06l-.1.11s-.03.04-.04.06l-.21.4s-.03.06-.03.1l-.31,2.22-.02.16h-1.52s-.98-2.83-.98-2.83c-.02-.06-.09-.13-.14-.17l-.47-.34s-.08-.04-.13-.05l-.5-.06s-.03,0-.05,0l-2.36.09-2.31.03-4.73-.12s-.03,0-.04,0l-.55.06s-.08.02-.12.04l-.43.24s-.06.04-.08.06l-.09.11s-.03.03-.04.05l-.22.4s-.03.06-.03.1l-.4,2.38h-1.4s-1.03-2.83-1.03-2.83c-.02-.06-.06-.1-.1-.14l-.38-.28-.13-.08s-.08-.04-.12-.04l-.5-.06s-.03,0-.04,0l-2.36.09-2.31.03-2.32-.03-2.41-.1s-.03,0-.04,0l-.55.06s-.08.02-.11.04l-.43.24s-.06.04-.09.07l-.09.11s-.02.03-.03.04l-.23.4s-.03.06-.04.1l-.46,2.39h-1.27s-1.09-2.84-1.09-2.84c-.02-.05-.05-.1-.1-.13l-.38-.29-.14-.08s-.08-.04-.12-.04l-.5-.06s-.03,0-.05,0l-2.36.09-2.31.03-2.32-.03-2.41-.1s-.03,0-.04,0l-.56.06s-.08.02-.11.03l-.44.24s-.07.05-.09.08l-.34.53s-.03.06-.04.09l-.58,2.65s-.05.04-.07.07l-.11.18s-.03.06-.04.09l-1.77,8.04s0,.08,0,.11l.03.19c.01.07.05.14.1.18ZM56.28,49.94v.05s-.19-.48-.19-.48h.27s-.08.44-.08.44ZM71.52,49.94l-.06.51-.34-.94h.48s-.07.43-.07.43ZM86.65,50.97l-.51-1.46h.7s-.19,1.46-.19,1.46ZM86.56,51.62h0s0,0,0,0h0ZM101.71,51.15l-.53-1.64h.77s-.24,1.64-.24,1.64ZM101.64,51.6h0s-.1.03-.1.03l.1-.03ZM116.37,50.08l-.17-.56h.23s-.05.56-.05.56ZM116.3,48.39l.16.03.04.03v.03s-.03.43-.03.43h0s-.04,0-.06,0h-.41l-.16-.52h.45ZM103.12,45.54l.16-.31.36-.23.46-.05,1.76.07,2.96.05,1.64-.02,3.04-.1.4.05.36.24,1.97,6.42-.45,4.76-.03.07-.09.06-.19.03h-13.81s.53-4.51.53-4.51h0l.94-6.53ZM102.1,48.39l-.08.52h-1.05s-.17-.52-.17-.52h1.3ZM88,45.54l.17-.31.36-.23.46-.05,1.92.08,2.8.05,1.8-.02,2.88-.1.41.05.35.25,2.11,6.47.09.34-.53,4.52h-14.3s.84-6.56.84-6.56l.64-4.48ZM86.99,48.38l-.07.52h-.99s-.18-.52-.18-.52h1.24ZM72.87,45.54l.18-.32.37-.23.47-.05,2.39.1,2.33.03,1.91-.02,2.76-.1.41.05.34.25,2.24,6.47.08.34-.64,4.53h-14.37s.79-6.55.79-6.55l.75-4.48ZM71.78,48.38l-.09.52h-.8s-.19-.52-.19-.52h1.08ZM57.74,45.55l.19-.33.04-.05.33-.18.47-.05,2.4.1,2.34.03,2.32-.03,2.34-.09.41.05.34.25,2.36,6.47.02.1-.22,1.86-.49,2.91h-14.44s.73-6.54.73-6.54l.86-4.48ZM56.58,48.37l-.1.52h-.62s-.2-.52-.2-.52h.92ZM42.61,45.55l.2-.32.04-.06.33-.18.48-.05,2.4.1,2.34.03,2.32-.03,2.34-.09.41.05.33.24,2.33,6.06-.5,4.47-.15.8h-14.51s.67-6.53.67-6.53l.98-4.48Z"/>
      <path d="M216.02,69.5s.01.07.02.1l.1.23c.02.05.06.1.1.13l.25.17s.07.04.11.05l.33.06s.04,0,.06,0h36.27s0,.01,0,.01c.02,0,.04,0,.06,0l.31-.06s.12-.05.16-.08l.18-.15c.05-.04.09-.1.1-.17l.06-.23s.01-.07,0-.11l-1.08-8.19s-.01-.07-.03-.1l-.12-.23s-.06-.09-.1-.12l-.25-.17s-.07-.04-.11-.04l-.32-.06s-.04,0-.06,0h-.16l-.28-2.13s-.01-.07-.03-.1l-.21-.41s-.03-.05-.05-.07l-.1-.11s-.04-.03-.06-.05l-.42-.25s-.08-.04-.12-.04l-.56-.07s-.03,0-.05,0l-2.56.09-3.63.03-3.62-.03-2.54-.1s-.03,0-.05,0l-.52.07s-.09.02-.13.05l-.51.37c-.05.04-.09.09-.11.15l-.83,2.6h-2.09s-.34-2.14-.34-2.14c0-.03-.01-.06-.03-.08l-.2-.41s-.04-.06-.06-.09l-.11-.11s-.03-.03-.05-.04l-.41-.25s-.08-.04-.12-.04l-.55-.07s-.03,0-.05,0l-2.55.09-3.63.03-3.62-.03-2.54-.1s-.03,0-.05,0l-.52.07s-.1.02-.14.05l-.51.36c-.05.04-.09.1-.11.16l-.77,2.59h-.72s-.04,0-.06,0l-.31.06s-.09.03-.12.06l-.22.17c-.05.04-.09.09-.11.15l-.07.23.29.09-.3.02.59,8.19ZM216.2,63.44l-.08-1.14.18-.04h.25s-.35,1.18-.35,1.18ZM234.52,64.64l-.29-.08-.1.39-.42-2.68h1.26s-.73,2.28-.73,2.28l.29.09ZM234.11,65.02s0,.01,0,.02l-.27.03.28-.04ZM253.24,69.65h-.13s-.6-4.62-.6-4.62l-.3.04.3-.04-.36-2.71.13.09.06.11.94,7.12h-.04ZM252.04,61.15l.24.04.14.09.06.11.06.47-.11-.07s-.07-.04-.11-.04l-.25-.05-.07-.55h.05ZM236.9,58.22l.35-.25.43-.05,2.52.09,3.64.03,3.65-.03,2.54-.09.47.06.33.2.21.37.87,6.57h0s.59,4.54.59,4.54h-17.33s-.46-4.56-.46-4.56l.1-.37,2.09-6.5ZM235.32,61.14l-.17.53h-1.55s-.08-.53-.08-.53h1.8ZM218.38,58.21l.36-.25.43-.05,2.52.1,3.64.03,3.65-.03,2.54-.09.46.06.33.2.05.04.16.32,1.03,6.57.45,4.54h-16.96s-.24-.05-.24-.05l-.13-.09-.02-.05-.31-4.36.11-.37h0s1.93-6.51,1.93-6.51ZM216.15,61.18l.22-.04h.51s-.16.53-.16.53h-.46s-.04,0-.06,0l-.14.03-.03-.37.02-.08.09-.06Z"/>
      <path d="M10.82,98.44l.17.16s.09.06.14.07l.28.06s.04,0,.06,0h10.85s.4.09.4.09l.18.17.03.24-1.98,8.56s0,.07,0,.1l.03.23.3-.03-.21.22.18.17s.09.06.14.07l.28.06s.04,0,.06,0l180.2.06s.04,0,.06,0l.3-.06s.09-.03.13-.06l.21-.17s.09-.09.1-.15l.07-.23-.09-.03v-.07s.1,0,.1,0l-.39-8.56.08-.26.25-.19.43-.09h9.13s.04,0,.06,0l.29-.06s.09-.03.13-.06l.21-.17s.08-.09.1-.15l.07-.22s.01-.07.01-.1l-2.32-36.84s-.01-.07-.02-.1l-.09-.2c-.02-.05-.06-.1-.11-.13l-.21-.15s-.07-.04-.11-.05l-.28-.05s-.04,0-.06,0h-.41s-.41-2.15-.41-2.15c0-.02-.01-.04-.02-.07l-.18-.41s-.04-.08-.08-.1l-.12-.11s-.03-.02-.04-.03l-.4-.25s-.08-.04-.12-.04l-.55-.07s-.03,0-.05,0l-1.75.09-1.45.03-1.45-.03-1.75-.1s-.04,0-.05,0l-.53.07s-.09.02-.13.05l-.52.36c-.05.04-.09.09-.11.15l-.14.43-.59,2.17h-1.83s-.44-2.15-.44-2.15c0-.02,0-.04-.02-.06l-.17-.41s-.05-.08-.08-.11l-.12-.11s-.02-.02-.03-.02l-.39-.25s-.08-.04-.13-.05l-.54-.07s-.04,0-.05,0l-1.75.09-1.45.03-1.45-.03-1.75-.1s-.04,0-.05,0l-.53.07s-.09.02-.13.05l-.39.26-.14.11s-.09.1-.11.16l-.15.42-.56,2.17h-1.83s-.48-2.16-.48-2.16c0-.02,0-.03-.01-.05l-.16-.41s-.05-.09-.09-.13l-.16-.13-.39-.25s-.08-.04-.13-.05l-.54-.07s-.03,0-.05,0l-1.75.09-1.45.03-1.45-.03-1.75-.1s-.04,0-.05,0l-.54.07s-.09.02-.13.05l-.4.27-.13.11s-.08.1-.1.15l-.16.43-.52,2.16h-1.83s-.52-2.2-.52-2.2l-.15-.41c-.02-.05-.05-.1-.09-.13l-.54-.38s-.08-.04-.13-.05l-.54-.07s-.04,0-.05,0l-1.74.09-1.45.03-1.45-.03-1.76-.1s-.04,0-.05,0l-.54.07s-.09.02-.13.05l-.41.27-.13.11s-.08.09-.1.14l-.16.4s0,.03-.01.04l-.49,2.16h-1.83s-.55-2.19-.55-2.19l-.15-.42c-.02-.05-.05-.1-.1-.13l-.53-.37s-.08-.04-.13-.05l-.53-.07s-.04,0-.05,0l-1.74.09-1.45.03-1.45-.03-1.76-.1s-.04,0-.05,0l-.54.07s-.09.02-.13.05l-.43.28-.12.1s-.07.09-.09.13l-.16.4s-.01.03-.02.05l-.45,2.15h-1.83s-.59-2.19-.59-2.19l-.14-.42c-.02-.06-.06-.11-.1-.14l-.52-.37s-.09-.04-.13-.05l-.53-.07s-.04,0-.05,0l-1.74.09-1.45.03-1.45-.03-1.76-.1s-.04,0-.05,0l-.54.07s-.09.02-.12.04l-.4.25s-.03.02-.04.03l-.12.11s-.07.08-.08.12l-.17.4s-.02.04-.02.06l-.41,2.15h-1.83s-.25-.89-.25-.89c0,0-.02-.07-.02-.07l-.35-1.21s0-.01,0-.02l-.13-.4c-.02-.06-.06-.12-.11-.15l-.51-.36s-.09-.05-.13-.05l-.53-.07s-.04,0-.05,0l-1.74.09-1.45.03-1.46-.03-1.76-.1s-.03,0-.05,0l-.55.07s-.09.02-.12.04l-.41.25s-.03.02-.04.03l-.12.11s-.06.08-.08.11l-.18.4s-.02.05-.02.07l-.38,2.14h-1.82s-.78-2.6-.78-2.6c-.02-.06-.06-.12-.11-.15l-.51-.36s-.09-.05-.14-.05l-.52-.07s-.04,0-.05,0l-1.73.09-1.45.03-1.46-.03-1.77-.1s-.03,0-.05,0l-.55.07s-.08.02-.12.04l-.41.25s-.04.02-.05.04l-.11.11s-.06.07-.07.1l-.19.4s-.02.05-.03.08l-.34,2.14h-1.81s-.83-2.6-.83-2.6c-.02-.06-.06-.11-.11-.15l-.51-.37s-.08-.04-.13-.05l-.52-.07s-.04,0-.05,0l-1.73.09-1.45.03-1.46-.03-1.77-.1s-.03,0-.05,0l-.55.07s-.08.02-.12.04l-.42.25s-.04.03-.06.04l-.11.1s-.05.07-.07.1l-.2.4s-.02.06-.03.09l-.31,2.13h-1.79s-.87-2.6-.87-2.6c-.02-.06-.06-.11-.11-.15l-.4-.29-.12-.08s-.08-.04-.12-.05l-.52-.07s-.04,0-.05,0l-1.73.09-1.45.03-1.46-.03-1.77-.1s-.03,0-.05,0l-.56.07s-.08.02-.12.04l-.43.25s-.04.03-.06.05l-.1.11s-.05.06-.06.09l-.21.4s-.03.06-.03.1l-.28,2.13h-1.76s-.91-2.6-.91-2.6c-.02-.06-.06-.11-.11-.15l-.4-.3-.13-.08s-.08-.04-.12-.04l-.51-.07s-.04,0-.06,0l-1.73.09-1.45.03-1.46-.03-1.77-.1s-.03,0-.05,0l-.56.07s-.08.02-.12.04l-.43.25s-.05.03-.07.06l-.1.11s-.04.06-.05.08l-.21.4s-.03.06-.03.1l-.33,2.14h-1.66s-.95-2.61-.95-2.61c-.02-.05-.05-.1-.1-.13l-.4-.3-.13-.08s-.07-.03-.11-.04l-.51-.07s-.04,0-.06,0l-1.44.08-1.73.04-1.46-.03-1.78-.1s-.03,0-.05,0l-.56.07s-.08.02-.12.04l-.44.25s-.05.04-.08.06l-.09.11s-.03.05-.05.07l-.22.4s-.03.06-.03.1l-.38,2.14h-1.57s-1-2.62-1-2.62c-.02-.05-.05-.09-.09-.13l-.36-.28s-.02-.02-.04-.02l-.14-.08s-.07-.03-.11-.04l-.51-.07s-.04,0-.06,0l-1.72.09-1.45.03-1.1-.02-2.14-.1s-.03,0-.05,0l-.57.07s-.08.02-.11.04l-.44.25s-.06.04-.08.07l-.09.11s-.03.04-.04.06l-.23.4s-.03.06-.04.09l-.42,2.15h-1.48s-1.04-2.62-1.04-2.62c-.02-.05-.05-.09-.09-.12l-.35-.28s-.03-.02-.04-.03l-.14-.08s-.07-.03-.11-.03l-.5-.07s-.04,0-.06,0l-1.72.09-1.44.03-.89-.02-2.35-.11s-.03,0-.05,0l-.57.07s-.08.02-.11.04l-.45.25s-.06.04-.09.07l-.08.1s-.02.02-.02.03l-.25.41s-.03.06-.04.09l-.47,2.15h-1.37s-1.08-2.62-1.08-2.62c-.02-.05-.05-.09-.09-.12l-.34-.28s-.03-.02-.05-.03l-.15-.08s-.07-.03-.1-.03l-.5-.07s-.03,0-.05,0l-2.91.09-3.62.03-3.63-.03-2.97-.1s-.04,0-.05,0l-.57.07s-.08.02-.11.04l-.46.25s-.07.05-.1.09l-.35.54s-.03.06-.04.09l-.64,2.58-.08.12s-.03.06-.04.09l-9.24,36.83s-.01.07,0,.1l.02.22c0,.07.04.14.09.19ZM38.79,62.65l-.18-.44h.28s-.1.44-.1.44ZM38.57,67.56l1.92-.07.42.05.35.26,2.36,5.4-.45,3.75-.25-.17s-.09-.05-.14-.05l-.52-.04s-.03,0-.05,0l-1.4.09-1.85.06-1.5-.03-1.83-.12s-.03,0-.04,0l-.59.04s-.07.01-.1.03l-.47.21s-.09.05-.12.09l-.27.35-.11.17s-.03.05-.04.08l-1.1,3.62-1.97-4.02s-.05-.08-.09-.11l-.51-.37s-.09-.05-.14-.05l-.55-.05-2.72.11-2.92.03-2.94-.03-2.82-.12-.59.04s-.04,0-.06.01l.43-4.08,1.25-4.52.28-.41.35-.18.5-.05,1.88.07,3.35.04,4.89.02h4.11s4.02-.06,4.02-.06ZM51.12,62.97l-.3-.75h.45s-.15.75-.15.75ZM50.94,67.6l2.01-.11.42.05.36.26,2.44,5.78-.33,2.58-.14.75-.21-.13s-.09-.04-.14-.05l-.52-.04s-.03,0-.04,0l-1.77.11-1.49.03-1.5-.03-1.82-.12s-.03,0-.04,0l-.58.04s-.07.01-.1.03l-.47.21s-.09.05-.12.1l-.37.51s-.03.06-.04.09l-1.02,3.7-1.76-3.73.59-4.96,1.04-4.55.21-.34.05-.06.35-.18.49-.05,1.79.1,1.5.03,1.21-.02ZM63.5,63.09l-.03.23-.42-1.1h.6s-.15.87-.15.87ZM63.32,67.61l2.1-.11.42.05.36.26,2.36,5.82.07.36-.47,2.85-.07-.05s-.09-.04-.14-.05l-.52-.04s-.03,0-.05,0l-1.77.12-1.49.03-1.5-.03-1.82-.12s-.03,0-.04,0l-.58.04s-.07.01-.1.03l-.46.21s-.09.06-.12.1l-.35.5s-.04.06-.04.1l-.97,3.91-.02.08-1.84-4.04.62-4.95.94-4.54.19-.32.05-.07.34-.19.49-.05,1.79.1,1.5.03,1.12-.02ZM75.9,63.09l-.08.62-.54-1.49h.76s-.14.87-.14.87ZM75.55,67.61l2.32-.11.42.05.36.26,2.27,5.82.08.36-.4,2.77s-.04-.02-.07-.02l-.53-.04s-.03,0-.04,0l-1.78.12-1.49.03-1.5-.03-1.82-.12s-.03,0-.04,0l-.58.04s-.07.01-.1.03l-.45.21s-.09.06-.12.1l-.35.51s-.04.07-.04.1l-.87,3.93-.03.24h-.09s-1.88-4.3-1.88-4.3l.6-4.54.88-4.9.2-.33.04-.05.34-.19.49-.05,1.78.1,1.5.03.9-.02ZM88.17,64.14l-.67-1.91h.92s-.26,1.91-.26,1.91ZM88.11,64.56h0s-.1.04-.1.04l.11-.04ZM87.8,67.62l2.54-.12.42.05.37.26,2.17,5.82.09.37-.34,2.73-.45-.04s-.03,0-.04,0l-1.78.12-1.49.03-1.5-.03-1.82-.12s-.03,0-.04,0l-.58.04s-.07.01-.11.03l-.44.21s-.08.05-.11.09l-.35.52s-.04.07-.04.11l-.76,3.95-.03.21h-.29s-1.84-4.37-1.84-4.37l.62-4.47.78-4.9.18-.33.05-.05.34-.19.48-.05,1.78.1,1.5.03h.68ZM100.4,64.24l-.67-2.01h.96s-.29,2.01-.29,2.01ZM100.35,64.55h0s-.15.05-.15.05l.15-.05ZM101.07,67.61l1.74-.1.42.05.36.26,2.08,5.83.09.37-.29,2.72-.3-.03s-.03,0-.04,0l-1.78.12-1.49.03-1.5-.03-1.82-.12s-.03,0-.04,0l-.57.04s-.07.01-.11.03l-.44.21s-.08.05-.11.09l-.13.17-.22.36h0s-.03.06-.04.1l-.82,4.16h-.34s-1.85-4.58-1.85-4.58c0,0,0,0,0-.01l.41-3.25.98-5.91.17-.32.05-.05.33-.19.48-.05,1.78.1,1.5.03,1.49-.03ZM112.6,64.28l-.65-2.04h.98l-.33,2.04ZM112.56,64.55h0s-.17.05-.17.05l.17-.05ZM112.04,67.64l1.49-.03,1.74-.1.43.05.36.25,1.99,5.83.1.38-.23,2.7h-.15s-.03-.01-.04-.01l-1.78.12-1.49.03-1.49-.03-1.81-.12s-.03,0-.04,0l-.57.04s-.08.01-.11.03l-.43.21s-.07.05-.1.08l-.11.14s-.02.02-.03.04l-.21.36s-.03.06-.04.09l-.89,4.17h-.36s-1.77-4.57-1.77-4.57c-.02-.04-.04-.08-.08-.11l-.06-.06.33-3.09,1.08-5.91.17-.32.05-.05.33-.19.47-.05,1.78.1,1.5.03ZM124.81,64.32l-.63-2.08h.99s-.37,2.08-.37,2.08ZM124.77,64.55h0s-.18.06-.18.06l.18-.06ZM124.49,67.65s.04,0,.04,0l1.46-.03,1.74-.1.43.05.28.19.08.06,1.89,5.84.11.38-.18,2.68h0s-.03,0-.04,0l-1.78.12-1.49.03-1.49-.03-1.81-.12s-.03,0-.04,0l-.56.04s-.08.01-.11.03l-.42.21s-.07.04-.1.08l-.12.14s-.02.03-.03.05l-.2.36s-.02.05-.03.08l-.96,4.17h-.38s-1.7-4.57-1.7-4.57c-.02-.04-.04-.08-.08-.12l-.15-.14s-.03-.03-.05-.04l.25-2.97,1.17-5.91.16-.32.38-.24.47-.05,1.77.1,1.49.03ZM136.95,65.02l.07-.02.17.03h-.24ZM137.02,64.33l-.6-2.09h1s-.4,2.09-.4,2.09ZM136.96,67.65l1.49-.03,1.75-.1.44.05.29.19.08.06,1.92,6.23-.12,2.68-1.68.11-1.49.03-1.49-.03-1.81-.12s-.03,0-.04,0l-.56.04s-.08.01-.11.03l-.42.21s-.07.04-.09.07l-.12.14s-.03.04-.04.06l-.19.36s-.02.04-.03.07l-1.03,4.18h-.39s-1.62-4.57-1.62-4.57c-.02-.04-.04-.08-.08-.12l-.15-.14s-.04-.03-.06-.04l-.15-.08.19-2.88,1.27-5.91.15-.32.38-.24.46-.05,1.77.1,1.5.03ZM149.14,65.03l.09-.02.16.03h-.25ZM149.23,64.34l-.56-2.09h1s-.44,2.09-.44,2.09ZM149.42,67.66l1.49-.03,1.75-.1.44.05.29.18.08.06,1.83,6.23-.07,2.69-1.53.1-1.49.03-1.49-.03-1.81-.12s-.03,0-.04,0l-.56.04s-.08.01-.12.03l-.41.21s-.06.04-.09.07l-.13.14s-.03.04-.04.07l-.18.36s-.02.04-.02.06l-1.11,4.18h-.41s-1.41-4.21-1.41-4.21l-.14-.36s-.04-.08-.07-.11l-.14-.14s-.04-.03-.06-.05l-.3-.17.13-2.8,1.37-5.91.14-.32.37-.24.46-.05,1.77.1,1.5.03ZM161.32,65.04l.12-.03.15.03h-.27ZM161.44,64.34l-.53-2.09h1s-.47,2.09-.47,2.09ZM161.89,67.66l1.49-.03,1.75-.1.45.05.31.19.06.05.12.3,1.62,5.92-.02,2.7-1.38.09-1.49.03-1.49-.03-1.81-.12s-.03,0-.04,0l-.55.04s-.08.01-.12.03l-.4.21s-.06.04-.08.06l-.13.14s-.04.05-.05.08l-.17.36s-.01.03-.02.05l-1.18,4.19h-.42s-1.34-4.22-1.34-4.22l-.15-.36s-.04-.07-.06-.1l-.14-.14s-.04-.04-.07-.05l-.38-.21s-.05-.02-.07-.02l.07-2.73,1.46-5.91.13-.32.37-.24.46-.05,1.77.1,1.5.03ZM173.65,64.34l-.5-2.09h1s-.5,2.09-.5,2.09ZM173.65,65.01l.14.03h-.28s.14-.03.14-.03ZM174.35,67.66l1.5-.03,1.75-.1.45.05.31.19.06.05.12.3,1.53,5.93.03,2.71-1.23.08-1.49.03-1.49-.03-1.8-.12s-.03,0-.04,0l-.55.04s-.08.02-.12.04l-.39.21s-.05.03-.08.06l-.14.14s-.04.05-.06.09l-.17.39-1.25,4.19h-.42s-1.27-4.23-1.27-4.23l-.16-.36s-.03-.06-.06-.09l-.14-.14s-.05-.04-.07-.06l-.39-.21s-.08-.03-.12-.04h-.11s.02-2.72.02-2.72l1.55-5.89.13-.33.37-.25.45-.05,1.77.1,1.5.03ZM185.86,64.35l-.46-2.09h1s-.54,2.09-.54,2.09ZM185.86,65.02l.11.03h-.26s.15-.03.15-.03ZM186.81,67.67l1.5-.03,1.76-.1.46.05.32.19.06.05.14.32,1.43,5.91.06,1.98-5.99-.11-.55.06s-.09.02-.13.05l-.39.25s-.03.02-.04.03l-.15.13s-.06.08-.08.12l-.16.44-1.29,4.87h-.34s-1.19-4.19-1.19-4.19c0-.02-.01-.03-.02-.05l-.17-.36s-.03-.06-.05-.08l-.13-.14s-.05-.05-.08-.06l-.4-.21s-.08-.03-.12-.03l-.26-.02-.04-2.7,1.65-5.9.12-.33.37-.25.45-.05,1.76.1,1.49.03ZM198.07,64.35l-.43-2.09h1s-.57,2.09-.57,2.09ZM198.07,65.02l.08.02h-.25s.16-.02.16-.02ZM202.65,67.64l5.48-.19.29.03.39,12.87h-24.02l.83-3.14.12-.35.38-.27.44-.05,5.6.11h.87s.04,0,.06,0l.08-.02c.15-.03.25-.16.24-.31l-.07-2.08,1.11-5.7.14-.41.44-.34.55-.1h1.67s5.4-.06,5.4-.06ZM210.93,74.17l-.28.02.28-.05v.04ZM211.97,90.85s0-.04,0-.06l.12,1.86-.29-1.26s.03-.05.03-.07l.13-.46ZM212.1,92.75v.05s-.28.02-.28.02l.28-.06ZM210.36,65.01v.03s-.25.02-.25.02l.25-.05ZM209.89,62.27l.19.04.09.06.03.07.14,2.17-.44-2.34ZM210.81,72.24l.11,1.74-.25-1.3s.03-.04.03-.07l.11-.37ZM210.35,74.22l.92,14.89-.54-2.35s-.02-.06-.03-.08l-.19-.34s-.02-.03-.03-.04l-.12-.15s-.07-.06-.11-.08l-.42-.2s-.07-.03-.11-.03l-.6-.04-4,.08-10.39.07-9.5-.07-1.21-.02-.04-2.46.8-3.01v.56h24.35c.08,0,.16-.03.22-.09.06-.06.09-.14.09-.22l-.39-12.82.11.25,1.21,6.16ZM201.87,102.65v.02s-.11,0-.11,0l.11-.02ZM201.47,102.71l.24,5.38h-14.76s-.12-5.39-.12-5.39l1.76-6.25.12-.27.07-.08.29-.14.47-.03,2.54.13,2.19.04,2.19-.04,2.5-.13.52.03.31.14.23.36,1.46,6.25ZM186.35,102.19l-.09-.38h.2s-.11.38-.11.38ZM186.35,102.62l.17.05h-.07s0,0,0,0h-.3s.19-.04.19-.04ZM185.86,102.71l.11,5.38h-14.76s.01-5.39.01-5.39l1.65-6.25.13-.28.07-.08.3-.14.47-.03,2.54.13,2.19.04,2.19-.04,2.5-.13.51.03.3.14.07.08.14.28,1.56,6.25ZM22.28,107.1l-.09.93h-.12s.21-.93.21-.93ZM23.54,100.29l1.43-3.86.08-.14.21-.24.39-.15.53-.03,2.56.13,2.2.04,2.18-.04,2.47-.13.45.03.23.14.11.1,2.26,5.46-.53,5.13-.26,1.29h-15.08s.75-7.74.75-7.74ZM39.41,100.29l1.28-3.86.09-.14.2-.24.37-.15.52-.03,2.56.13,2.2.04,1.82-.03,2.74-.13h.1s.46.02.46.02l.24.14.1.09,2.37,5.97-.36,3.1-.51,2.82h-15s.81-7.75.81-7.75ZM15.62,81.95l1.39-4.08.29-.38.37-.16.51-.04,2.79.12,2.95.03,2.94-.03,2.7-.12.43.04.36.26,2.27,4.64-.42,3.68h-.63s-11.97-.07-11.97-.07l-3.65-.08-.6.04s-.06,0-.09.02h-.02s.4-3.84.4-3.84ZM33.25,81.95l1.24-4.08.28-.38.36-.16.51-.04,1.82.12,1.52.03,1.51-.03,1.76-.11.42.04.23.15.12.1,2.26,4.79-.41,3.43-1.36.03-10.7.06.45-3.94ZM45.93,81.95l1.12-4.08.28-.39.35-.16.51-.04,1.82.12,1.52.03,1.51-.03,1.76-.11.42.04.23.15.12.1,2.36,5.19-.39,3.11-1.08.03-1.52-.03-1.89-.12-.59.04s-.07,0-.1.02l-.47.2s-.09.05-.12.09l-.26.34-.12.18s-.03.05-.04.08l-1.15,3.96-1.8-4.33s-.05-.08-.08-.11l-.18-.15s-.03-.02-.04-.03l-.32-.2s-.09-.04-.14-.04l-.55-.04-1.63.04.46-3.83ZM68.17,77.58l2.3,5.25.07.37-.43,2.69-.95.02-1.52-.03-1.89-.12-.59.04s-.07,0-.1.02l-.46.2s-.09.05-.12.1l-.25.33-.12.18s-.03.06-.04.09l-1.01,3.89-.06.48-1.9-4.75s-.04-.08-.08-.11l-.17-.15s-.03-.02-.04-.03l-.33-.2s-.09-.04-.13-.04l-.53-.04s-.03,0-.04,0l-1.61.11.39-3.1.1-.79,1.02-4.09.27-.39.34-.16.51-.04,1.81.12,1.52.03,1.51-.03,1.76-.11.43.04.24.15.11.1ZM80.67,77.5l.09.08,2.22,5.26.08.37-.38,2.69-.81.02-1.52-.03-1.88-.12-.59.04s-.07.01-.1.02l-.46.2c-.05.02-.09.06-.13.1l-.35.5s-.04.07-.05.1l-.9,3.92-.09.7h-.06s-1.94-5.01-1.94-5.01c-.02-.04-.04-.08-.08-.11l-.17-.15s-.03-.03-.05-.04l-.34-.2s-.09-.04-.13-.04l-.53-.04s-.03,0-.04,0l-1.62.11.52-3.9.9-4.09.26-.38.33-.15.5-.04,1.81.12,1.52.03,1.51-.03,1.77-.11.43.04.26.16ZM93,77.34l.26.16.09.08,2.13,5.26.09.38-.32,2.69-.67.02-1.52-.03-1.88-.12-.58.04s-.07.01-.1.03l-.45.2s-.09.06-.12.1l-.35.5s-.04.07-.05.11l-.79,3.99-.08.63h0s-.25,0-.25,0l-1.33-3.58-.53-1.43s-.04-.08-.08-.11l-.16-.15s-.04-.03-.06-.04l-.35-.2s-.08-.04-.13-.04l-.53-.04s-.03,0-.04,0l-1.64.11.38-2.68h0s0,0,0,0l.14-.97.82-4.34.19-.29.06-.08.33-.16.5-.04,1.81.12,1.52.03,1.51-.03,1.77-.11.44.04ZM97.49,77.87l.17-.28.07-.09.32-.16.49-.04,1.81.12,1.52.03,1.51-.03,1.77-.11.44.04.27.16.08.07,2.04,5.26.1.38-.27,2.68h-.53s-1.52-.02-1.52-.02l-1.88-.12-.58.04s-.07.01-.1.03l-.44.2s-.09.05-.12.09l-.35.51s0,0,0,0h0s0,0,0,0c-.02.03-.04.07-.04.11l-.91,4.61h-.3s-1.79-5-1.79-5c-.02-.04-.04-.08-.07-.12l-.16-.15s-.04-.03-.06-.05l-.35-.2s-.08-.03-.13-.04l-.54-.04s-.03,0-.04,0l-1.65.11.46-3.12.79-4.89ZM118.17,77.35l.29.16.08.07,1.96,5.27.11.39-.22,2.68h-.4s-1.52-.03-1.52-.03l-1.88-.12-.57.04s-.07.01-.11.03l-.43.2s-.08.05-.11.09l-.14.18-.21.34s-.03.06-.04.1l-.98,4.62h-.31s-1.72-5-1.72-5c-.02-.04-.04-.08-.07-.12l-.16-.15s-.04-.04-.07-.05l-.36-.2s-.08-.03-.12-.04l-.54-.04s-.03,0-.04,0l-1.81.12h-.12s.27-2.64.27-2.64l1.15-5.37.18-.3.06-.07.32-.16.49-.04,1.81.12,1.52.03,1.51-.03,1.77-.11.43.04ZM130.78,77.36l.28.16.07.07,1.87,5.27.11.39-.16,2.68h-.26s-1.51-.03-1.51-.03l-1.88-.12-.57.04s-.07.01-.11.03l-.43.2s-.08.05-.11.09l-.12.15s-.02.02-.02.04l-.2.34s-.03.06-.03.09l-1.04,4.62h-.33s-1.54-4.66-1.54-4.66l-.12-.34s-.04-.08-.07-.11l-.15-.15s-.05-.04-.07-.05l-.37-.2s-.08-.03-.12-.04l-.55-.04s-.03,0-.04,0l-1.81.12h-.26s.21-2.64.21-2.64l1.24-5.38.17-.3.06-.07.31-.16.48-.04,1.8.12,1.52.03,1.52-.03,1.77-.11.45.04ZM142.92,77.32l.43.04.31.16.07.07,1.78,5.27h0s.12.39.12.39l-.11,2.68h-.12s-1.51-.03-1.51-.03l-1.87-.12-.57.04s-.08.01-.11.03l-.42.2s-.08.05-.1.08l-.13.15s-.02.03-.03.05l-.19.34s-.02.05-.03.08l-1.11,4.63h-.34s-1.46-4.67-1.46-4.67l-.13-.34s-.04-.07-.06-.1l-.15-.15s-.05-.04-.08-.06l-.38-.2s-.08-.03-.12-.03l-.55-.04s-.03,0-.04,0l-1.81.12h-.4s.16-2.64.16-2.64l1.33-5.38.16-.3.06-.07.31-.16.48-.04,1.8.12,1.52.03,1.52-.03,1.78-.11ZM155.5,77.33l.46.04.29.16.07.07.11.28,1.71,5.39-.06,2.68-1.5-.03-1.87-.12-.56.04s-.08.01-.11.03l-.41.2s-.07.04-.1.08l-.13.16s-.03.03-.04.05l-.18.34s-.02.04-.02.07l-1.17,4.63h-.35s-1.39-4.67-1.39-4.67l-.14-.34s-.03-.06-.06-.09l-.14-.15s-.05-.05-.08-.06l-.39-.2s-.08-.03-.12-.03l-.55-.04s-.03,0-.04,0l-1.81.12h-.54s.11-2.64.11-2.64l1.42-5.38.15-.3.06-.07.3-.16.47-.04,1.8.12,1.52.03,1.52-.03,1.77-.11ZM168.1,77.33l.47.04.29.16.07.07.12.28,1.62,5.4v2.67s-1.36-.03-1.36-.03l-1.83-.12s-.03,0-.04,0l-.56.04s-.08.01-.11.03l-.4.2s-.07.04-.09.07l-.13.15s-.03.04-.04.07l-.17.34s-.02.04-.02.05l-1.24,4.63h-.35s-1.32-4.64-1.32-4.64c0-.01,0-.03-.02-.04l-.15-.34s-.03-.06-.05-.08l-.14-.15s-.05-.05-.09-.07l-.39-.2s-.08-.03-.12-.03l-.56-.04s-.03,0-.04,0l-1.82.12-.68.02.06-2.66,1.51-5.38.14-.29.06-.07.3-.16.47-.04,1.8.12,1.52.03,1.52-.03,1.78-.11ZM177.34,92.8h-.3s.19-.05.19-.05l.19.05h-.08s0,0,0,0ZM177.23,92.35l-.1-.38h.21s-.11.38-.11.38ZM176.74,92.84l.02,2.61h-.35s-2.56-.13-2.56-.13l-.57.03s-.08.01-.11.03l-.41.19s-.07.04-.1.07l-.14.16s-.03.04-.04.07l-.16.34s-.02.04-.02.06l-1.3,4.94h-.19s-.27,0-.27,0l-1.31-4.73s-.01-.04-.02-.06l-.16-.32s-.02-.04-.03-.05l-.14-.17s-.06-.06-.1-.08l-.4-.21s-.06-.03-.1-.03l-.57-.08s-.03,0-.04,0h-2.8s.03-2.64.03-2.64l1.58-5.92.14-.28.07-.08.3-.15.48-.03,1.82.12,1.54.04,1.54-.04,1.81-.12.48.03.29.15.07.08.13.28,1.6,5.92ZM170.74,102.61l.13.04h-.26s.13-.04.13-.04ZM170.91,102.66h0s0,0,0,0h0ZM170.76,102.06l-.07-.25h.1s.03,0,.03,0l-.07.25ZM63.63,90.83l1.02-3.92.27-.38.34-.15.5-.03,1.86.12,1.55.04,1.21-.03,2.12-.13.44.03.25.15.09.08,2.23,5.77.08.39-.4,2.67h-12.13s.57-4.62.57-4.62ZM76.46,90.99l.92-4.08.27-.38.33-.15.49-.03,1.86.12,1.54.04,1.08-.02,2.25-.13.45.03.2.11.14.11,2.15,5.77.09.39-.35,2.66h-12s.58-4.46.58-4.46ZM88.51,92.28h0s-.07.03-.07.03l.07-.03ZM89.33,90.82l.78-3.91.26-.37.33-.14.49-.03,1.86.13,1.54.04.95-.02,2.39-.14.45.03.21.12.14.11,2.07,5.78.1.4-.29,2.66h-11.87s.62-4.64.62-4.64ZM101.16,92.28h0s-.09.03-.09.03l.09-.03ZM102.18,90.81l.66-3.91.18-.27.07-.09.32-.14.48-.03,1.85.12,1.54.04.81-.02,2.52-.14.46.03.27.15.08.08,1.99,5.78.1.4-.24,2.65h-11.75s.65-4.65.65-4.65ZM113.81,92.28h0s-.1.04-.1.04l.11-.04ZM114.31,92.83l1.25-5.91.17-.27.07-.1.32-.14.48-.03,1.85.12,1.54.04,1.54-.04,1.8-.12.46.03.27.15.07.07,1.91,5.78.11.41-.19,2.65h-11.9s.24-2.64.24-2.64ZM126.46,92.28h0s-.12.04-.12.04l.12-.04ZM126.95,92.83l1.33-5.91.17-.28.07-.08.31-.15.47-.03,1.85.13,1.54.04,1.54-.04,1.8-.12.47.03.28.15.07.08,1.83,5.78h0s.12.42.12.42l-.14,2.64h-11.9s.19-2.64.19-2.64ZM139.18,91.98v-.02s0,0,0,0v.02ZM139.11,92.28h0s-.14.04-.14.04l.14-.04ZM139.6,92.83l1.42-5.92.16-.28.07-.08.31-.15.47-.03,1.85.12,1.54.04,1.54-.04,1.81-.12.47.03.28.15.06.06.12.28,1.77,5.94-.08,2.64h-11.9s.14-2.64.14-2.64ZM151.77,92.79l.07-.02.1.03h-.17ZM151.83,92v-.03s0,0,0,0v.03ZM152.24,92.84l1.5-5.92.15-.28.07-.08.3-.15.46-.03,1.85.12,1.54.04,1.54-.04,1.81-.12.47.03.24.12.12.1.11.25,1.69,5.94-.03,2.64h-11.9s.08-2.64.08-2.64ZM164.4,92.8l.08-.02.1.03h-.18ZM164.48,92v-.03s0,0,0,0v.03ZM170.97,83.22l.12-.04.12.04h-.24ZM171.09,82.58l-.03-.09h.05s-.03.09-.03.09ZM158.47,83.22l.1-.03.13.04h-.23ZM158.56,82.58l-.03-.09h.05s-.03.09-.03.09ZM146.04,82.56l-.03-.08h.05s-.02.08-.02.08ZM146.01,82.69h0s-.21.07-.21.07l.21-.07ZM133.53,82.53l-.02-.05h.03s-.01.05-.01.05ZM133.48,82.69h0s-.19.07-.19.07l.2-.07ZM121.01,82.5v-.02s0,0,0,0v.02ZM120.96,82.69v.02s-.18.05-.18.05l.18-.07ZM108.44,82.69v.02s-.16.04-.16.04l.16-.06ZM95.92,82.69v.03s-.14.03-.14.03l.14-.06ZM83.39,82.7v.03s-.12.03-.12.03l.12-.05ZM50.79,90.81l1.13-3.9.28-.37.35-.15.5-.03,1.86.12,1.55.04,1.36-.03,1.97-.13.43.03.24.15.1.09,2.28,5.7-.39,3.13h-4.9s-.03,0-.04,0l-.6.08s-.06.01-.08.02l-.48.21s-.08.05-.11.08l-.25.29s-.02.02-.03.04l-.12.2s-.02.04-.03.06l-.2.61-.5,1.66-.45,1.68s0,.03,0,.04l-.05.42-1.98-4.99s-.05-.09-.08-.12l-.17-.16s-.03-.03-.05-.04l-.33-.2s-.09-.04-.13-.04l-.57-.04-1.04.05.53-4.53ZM55.26,100.52l.67-2.43.45-1.43.08-.12.21-.25.38-.17.53-.07h50.72s59.35.04,59.35.04l.49.07.3.16.08.1.13.26,1.66,6.02-.02,5.39-115.9-.04.87-7.52ZM177.51,91.38h-.09s-.45,0-.45,0l-1.25-4.63s-.01-.04-.02-.05l-.16-.34s-.03-.05-.05-.07l-.14-.15s-.06-.05-.09-.07l-.4-.2s-.07-.03-.11-.03l-.56-.04s-.03,0-.04,0l-1.82.12-.82.02v-2.66s1.6-5.36,1.6-5.36l.14-.31.07-.07.29-.16.47-.04,1.79.12,1.52.03,1.52-.03,1.78-.11.47.04.3.16.07.07.14.29,1.52,5.38.04,2.57-2.9-.05-.56.04s-.08.01-.12.03l-.39.2s-.06.04-.09.07l-.14.15s-.04.05-.05.08l-.16.34s-.01.03-.02.04l-1.31,4.64ZM183.59,82.51h0s0-.01,0-.01h0ZM192.9,73.33h0s0-.01,0-.01h0ZM192.77,74.02h0s0,0,0,0h.01ZM180.53,73.4l-.02-.08h.04s-.02.08-.02.08ZM180.53,73.98l.13.04h-.28s.15-.04.15-.04ZM168,74.01l.14-.04.15.04h-.29ZM168.13,73.4l-.02-.08h.04s-.02.08-.02.08ZM155.63,74l.11-.03.16.04h-.27ZM155.74,73.39l-.02-.08h.04s-.02.08-.02.08ZM143.26,73.99l.09-.03.17.04h-.25ZM143.35,73.39l-.03-.08h.04s-.02.08-.02.08ZM130.96,73.36l-.02-.06h.03s-.01.06-.01.06ZM130.93,73.49h0s-.22.07-.22.07l.22-.07ZM118.58,73.33v-.03s0,0,0,0v.03ZM118.54,73.49h0s-.2.07-.2.07l.21-.07ZM106.15,73.49v.02s-.19.05-.19.05l.19-.07ZM93.76,73.49v.03s-.17.04-.17.04l.17-.07ZM81.33,73.5v.02s-.12.02-.12.02l.12-.05ZM11.94,97.77l-.04.37h-.06s.09-.37.09-.37ZM22.43,98.16s-.04,0-.06,0h-9.86s.74-7.34.74-7.34l1.48-3.9.08-.13.21-.24.38-.15.53-.03,2.16.05,13.45.11,11.95-.07,3.57-.08.45.03.24.15.1.09,2.18,5.25-.41,3.49-.73.04-2.29.04-2.18-.04-2.58-.13-.6.03s-.06,0-.09.02l-.49.19s-.09.05-.12.09l-.26.31s-.02.02-.02.03l-.12.19s-.02.04-.03.07l-1.3,3.93s-.01.04-.01.06l-.02.15-1.86-4.5s-.04-.08-.08-.11l-.18-.16s-.03-.02-.04-.03l-.32-.2s-.09-.04-.14-.04l-.56-.04-2.5.13-2.16.04-2.18-.04-2.59-.13-.61.03s-.06,0-.09.02l-.5.19s-.08.05-.12.08l-.28.31s-.02.03-.03.04l-.11.19s-.02.03-.03.05l-.95,2.55s-.04-.08-.07-.11l-.32-.3s-.09-.06-.14-.07l-.51-.11ZM203.16,98.21s-.04,0-.06,0l-.53.11s-.09.03-.13.06l-.38.3s-.08.09-.1.15l-.12.4s-.01.05-.01.07l-.05,1.13h.1s0,.02,0,.02h-.11s.03.75.03.75h-.07s-1.15-4.92-1.15-4.92c0-.03-.02-.05-.03-.08l-.19-.34s-.02-.03-.03-.04l-.13-.16s-.07-.06-.11-.08l-.42-.2s-.07-.03-.11-.03l-.61-.03-2.53.13-2.17.04-2.17-.04-2.56-.13-.56.03s-.08.01-.12.03l-.4.2s-.07.04-.09.07l-.14.16s-.04.05-.05.08l-.15.34s-.01.03-.01.04l-1.39,4.93h-.52s-1.23-4.92-1.23-4.92c0-.02-.01-.05-.02-.07l-.17-.34s-.02-.04-.04-.06l-.14-.16s-.06-.06-.1-.08l-.41-.2s-.07-.03-.11-.03l-.6-.03-2.52.13-2.17.04h-.83s-.02-2.64-.02-2.64l1.67-5.92.13-.28.07-.08.29-.15.47-.03,3.18.07,11.21.1,10.4-.07,3.97-.08.51.03.31.15.23.36,1.37,5.91.33,5.36h-8.69ZM209.95,61.14l.19.04.09.06.03.07.03.43s-.02-.01-.04-.02l-.28-.05s-.04,0-.06,0h-.14s-.1-.53-.1-.53h.27ZM200.29,58.53l.1-.32.36-.25.43-.05,1.73.09,1.47.03,1.48-.03,1.74-.09.45.06.32.2.05.05.14.32,1.24,6.56.29,4.68-.36-1.86s-.01-.05-.02-.07l-.18-.4s-.03-.06-.06-.08l-.13-.13s-.04-.04-.07-.05l-.41-.24s-.08-.04-.12-.04l-.59-.05-5.51.18-4.05.05-.08-1.99,1.79-6.56ZM198.95,61.13l-.14.53h-1.29s-.11-.53-.11-.53h1.54ZM187.98,58.53l.11-.33.37-.25.43-.05,1.74.09,1.47.03,1.48-.03,1.73-.09.45.05.32.21.05.04.13.32,1.34,6.57.08,2h-.44s-1.69,0-1.69,0h0s-.04,0-.06,0l-.64.12s-.09.03-.12.05l-.45.33s-.03.03-.04.04l-.13.14s-.05.07-.06.11l-.17.49s0,.03-.01.04l-.84,4.3h-.27s-1.14-4.73-1.14-4.73c0-.02,0-.03-.02-.05l-.17-.4s-.04-.07-.07-.1l-.13-.12s-.03-.03-.05-.04l-.4-.24s-.08-.04-.12-.04l-.55-.06s-.03,0-.05,0l-1.77.1-1.47.03h-.48s-.04-1.98-.04-1.98l1.68-6.55ZM186.69,61.13l-.14.53h-1.29s-.12-.53-.12-.53h1.54ZM175.67,58.53l.12-.34.37-.25.44-.05,1.74.09,1.47.03,1.47-.03,1.73-.09.44.05.3.19.07.06.13.32,1.45,6.56.04,1.93-1.88-.09s-.03,0-.05,0l-.54.06s-.09.02-.13.05l-.38.24s-.02.02-.03.03l-.14.12s-.07.08-.09.12l-.16.42-1.33,4.74h-.37s-1.23-4.77-1.23-4.77l-.16-.4s-.04-.08-.08-.11l-.13-.12s-.03-.02-.04-.03l-.39-.24s-.08-.04-.13-.04l-.55-.06s-.03,0-.05,0l-1.77.1-1.47.03h-.25s0-1.98,0-1.98l1.58-6.55ZM174.43,61.12l-.13.53h-1.29s-.13-.53-.13-.53h1.54ZM163.37,58.51l.13-.32.37-.25.44-.05,1.74.1,1.47.03,1.47-.03,1.73-.09.44.05.3.2.07.05.11.3,1.56,6.58v1.96s-.33,0-.33,0l-1.78-.1s-.03,0-.05,0l-.54.06s-.09.02-.13.04l-.39.24s-.03.02-.04.03l-.13.12s-.06.07-.08.11l-.17.43-1.25,4.74h-.37s-1.31-4.77-1.31-4.77l-.15-.4s-.05-.09-.09-.12l-.14-.12s-.02-.02-.04-.03l-.38-.24s-.08-.04-.13-.04l-.54-.06s-.03,0-.05,0l-1.77.1-1.47.03h-.03s.03-1.98.03-1.98l1.48-6.56ZM162.16,61.12l-.12.53h-1.29s-.13-.53-.13-.53h1.54ZM151.06,58.51l.13-.32.37-.25.45-.05,1.74.09,1.48.03,1.47-.03,1.73-.09.43.05.3.2.07.05.11.3,1.66,6.58-.04,1.96h-.55s-1.78-.11-1.78-.11c-.02,0-.03,0-.05,0l-.55.06s-.09.02-.12.04l-.4.24s-.03.02-.05.03l-.13.12s-.06.07-.08.11l-.17.4s-.01.03-.01.04l-1.17,4.73h-.37s-1.38-4.76-1.38-4.76l-.14-.4c-.02-.05-.05-.1-.09-.13l-.17-.14-.38-.24s-.08-.04-.13-.05l-.54-.06s-.03,0-.05,0l-1.76.1-1.28.02.07-1.97,1.37-6.56ZM149.9,61.12l-.11.53h-1.29s-.14-.53-.14-.53h1.54ZM138.76,58.51l.14-.32.37-.25.45-.05,1.75.09,1.48.03,1.47-.03,1.72-.09.43.05.36.25,1.87,6.88-.07,1.96-.78-.02-1.78-.1s-.03,0-.05,0l-.55.06s-.09.02-.12.04l-.4.24s-.04.02-.05.04l-.12.12s-.05.06-.07.1l-.18.4s-.01.04-.02.05l-1.09,4.73h-.37s-1.46-4.76-1.46-4.76l-.13-.4c-.02-.05-.05-.1-.1-.14l-.17-.14-.37-.24s-.08-.04-.13-.05l-.54-.06s-.03,0-.05,0l-1.76.1-1.06.02.11-1.97,1.27-6.56ZM137.64,61.11l-.1.53h-1.29s-.15-.53-.15-.53h1.54ZM126.45,58.51l.15-.32.37-.25.46-.06,1.75.09,1.48.03,1.47-.03,1.72-.09.43.05.36.25.45,1.55s.01.04.01.04l1.51,5.29-.11,1.97-1-.02-1.79-.1s-.03,0-.05,0l-.55.06s-.08.02-.12.04l-.41.24s-.04.03-.06.04l-.12.12s-.05.05-.06.09l-.19.4s-.02.04-.02.06l-1.01,4.72h-.36s-1.67-5.15-1.67-5.15c-.02-.06-.05-.11-.1-.14l-.53-.37s-.09-.04-.13-.05l-.53-.06s-.03,0-.05,0l-1.76.1-.83.02.15-1.96,1.16-6.57ZM125.38,61.11l-.09.53h-1.28s-.16-.53-.16-.53h1.53ZM114.14,58.5l.15-.32.38-.25.46-.05,1.75.09,1.48.03,1.47-.03,1.72-.09.42.05.36.26,1.96,6.51h0l.11.37-.15,1.98-1.22-.02-1.79-.1s-.03,0-.05,0l-.56.06s-.08.02-.12.04l-.42.24s-.04.03-.06.05l-.11.12s-.04.05-.06.08l-.2.4s-.02.05-.03.07l-.94,4.72h-.34s-1.76-5.16-1.76-5.16c-.02-.06-.05-.11-.1-.14l-.52-.37s-.09-.04-.14-.05l-.53-.06s-.03,0-.05,0l-1.76.1h-.61s.19-1.94.19-1.94l1.06-6.57ZM113.11,61.11l-.08.53h-1.27l-.17-.53h1.52ZM101.84,58.5l.16-.33.38-.25.46-.06,1.75.1,1.48.03,1.47-.03,1.72-.09.42.05.36.26,2.06,6.5.1.37-.19,1.99-1.44-.03-1.79-.1s-.03,0-.05,0l-.56.06s-.08.02-.12.04l-.42.24s-.05.03-.07.05l-.11.12s-.04.04-.05.07l-.21.4s-.02.05-.03.08l-.86,4.71h-.32s-1.84-5.16-1.84-5.16c-.02-.06-.06-.11-.1-.14l-.52-.37s-.09-.05-.14-.05l-.53-.06s-.03,0-.05,0l-1.75.1h-.38s.23-1.95.23-1.95l.95-6.56ZM100.85,61.1l-.08.53h-1.25s-.18-.53-.18-.53h1.5ZM89.53,58.5l.17-.33.38-.24.47-.06,1.76.1,1.48.03,1.47-.03,1.71-.09.42.05.35.25,2.17,6.5.09.36-.23,1.99h-.19s-1.48-.03-1.48-.03l-1.79-.1s-.03,0-.05,0l-.56.06s-.08.02-.12.04l-.43.24s-.05.04-.08.06l-.11.12s-.03.04-.04.06l-.22.4s-.03.06-.03.09l-.78,4.71h-.31s-1.93-5.17-1.93-5.17c-.02-.06-.06-.1-.11-.14l-.51-.36s-.09-.05-.14-.05l-.52-.06s-.04,0-.05,0l-1.75.1h-.19s.5-3.83.5-3.83l.64-4.68ZM88.58,61.1l-.07.53h-1.22s-.18-.53-.18-.53h1.47ZM77.23,58.5l.18-.33.38-.24.47-.06,1.76.09,1.48.03,1.47-.03,1.71-.09.42.05.35.25,2.27,6.5.08.36-.27,1.99h-.41s-1.48-.02-1.48-.02l-1.8-.1s-.03,0-.05,0l-.57.06s-.08.02-.11.04l-.44.24s-.06.04-.08.07l-.1.12s-.03.03-.04.05l-.23.4s-.03.06-.03.1l-.64,3.97-.1.74h-.25s-2.01-5.17-2.01-5.17c-.02-.05-.06-.1-.1-.14l-.51-.36s-.09-.05-.14-.05l-.52-.06s-.04,0-.05,0l-1.75.1h-.1s.47-3.82.47-3.82l.73-4.68ZM76.21,61.09l-.08.53h-1.07s-.19-.53-.19-.53h1.35ZM64.92,58.5l.19-.34.38-.24.48-.06,1.76.09,1.48.03,1.47-.03,1.71-.09.42.06.34.25,2.38,6.5.07.35-.31,1.99h-.64s-1.48-.02-1.48-.02l-1.8-.1s-.03,0-.05,0l-.57.06s-.08.02-.11.04l-.44.24s-.06.04-.09.07l-.1.12s-.02.03-.03.04l-.23.4s-.03.06-.04.1l-.85,4.61v.11s-.05,0-.05,0l-2.1-5.18c-.02-.05-.06-.1-.1-.13l-.38-.28-.14-.09s-.09-.04-.13-.05l-.52-.06s-.04,0-.05,0l-1.75.1h-.01s.44-3.82.44-3.82l.83-4.68ZM63.85,61.09l-.09.53h-.94s-.2-.53-.2-.53h1.23ZM52.61,58.5l.2-.35.04-.04.34-.2.48-.06,1.76.1,1.48.03,1.47-.03,1.7-.09.42.06.34.25,2.46,6.45-.28,2.39-.85.02-1.48-.03-1.8-.1s-.03,0-.05,0l-.57.06s-.08.02-.11.03l-.45.24s-.07.05-.09.08l-.11.15-.24.4s-.03.06-.04.1l-.92,4.46-2.07-4.92s-.05-.09-.1-.12l-.37-.28-.14-.09s-.08-.04-.13-.05l-.51-.06s-.04,0-.05,0l-1.61.09h-.06s.41-3.8.41-3.8l.92-4.68ZM51.49,61.09l-.1.53h-.8s-.21-.53-.21-.53h1.12ZM40.31,58.5l.21-.35.04-.05.35-.19.48-.06,1.76.1,1.48.03,1.47-.03,1.7-.09.42.06.34.25,2.41,6.06-.3,2.77-.93.02-1.48-.03-1.8-.1s-.03,0-.05,0l-.58.06s-.08.02-.11.03l-.46.24s-.07.05-.1.08l-.36.54s-.03.06-.04.09l-.95,4.16-2.02-4.62s-.05-.09-.09-.12l-.37-.29-.15-.09s-.08-.04-.12-.04l-.51-.06s-.03,0-.05,0l-1.59.03.38-3.73,1.02-4.68ZM39.13,61.08l-.11.53h-.66s-.22-.53-.22-.53h.99ZM21.28,58.5l.23-.36.04-.05.34-.19.5-.06,2.96.1,3.65.03,3.63-.03,2.89-.09.42.06.34.25,2.34,5.66-.32,3.11-3.75.07h-4.02s-3.29,0-3.29,0l-5.01-.05-1.89-.07s-.03,0-.04,0l-.52.05.34-3.77,1.16-4.66Z"/>
      <path d="M121.45,56.54l-.16.05.06.19c.02.06.06.12.11.16l.19.14s.08.05.12.06l.27.05s.04,0,.06,0l75.48.02s.05,0,.07,0l.25-.05s.09-.03.12-.05l.19-.14s.09-.09.11-.15l.06-.19s.02-.07.02-.11l-.34-8.05s0-.07-.02-.11l-.08-.19c-.02-.05-.06-.1-.11-.13l-.2-.14s-.07-.04-.11-.05l-.27-.05s-.04,0-.06,0h-.37l-.48-2.39s-.01-.04-.02-.06l-.17-.4s-.04-.08-.08-.1l-.12-.11s-.03-.02-.04-.03l-.39-.24s-.08-.04-.12-.04l-.53-.06s-.03,0-.04,0l-2.34.09-2.36.03-2.31-.03-2.39-.1s-.03,0-.05,0l-.52.06s-.09.02-.13.05l-.39.26-.13.11s-.08.08-.09.13l-.15.43-.6,2.4h-1.62s-.53-2.4-.53-2.4c0-.02,0-.03-.01-.05l-.16-.4s-.05-.09-.08-.12l-.13-.11s-.02-.02-.03-.03l-.38-.24s-.08-.04-.13-.05l-.53-.06s-.03,0-.05,0l-2.05.08-2.65.04-1.91-.02-2.8-.1s-.03,0-.05,0l-.53.06s-.09.02-.13.05l-.41.26-.13.11s-.07.07-.09.12l-.15.4s0,.03-.01.04l-.55,2.4h-1.62s-.59-2.44-.59-2.44l-.15-.4s-.05-.09-.09-.13l-.16-.13-.37-.24s-.08-.04-.13-.05l-.52-.06s-.03,0-.05,0l-1.91.08-2.78.05-2.32-.03-2.39-.1s-.03,0-.05,0l-.53.06s-.09.02-.13.04l-.38.24s-.03.02-.04.03l-.12.11s-.06.07-.08.11l-.16.4s-.01.04-.02.05l-.5,2.39h-1.62s-.63-2.43-.63-2.43l-.14-.4c-.02-.05-.05-.1-.1-.14l-.52-.37s-.08-.04-.13-.05l-.52-.06s-.03,0-.05,0l-2.38.1-2.31.03-2.32-.03-2.39-.1s-.03,0-.05,0l-.53.06s-.09.02-.12.04l-.39.24s-.03.02-.05.04l-.12.11s-.05.06-.07.1l-.18.4s-.02.04-.02.07l-.45,2.39h-1.61s-.68-2.42-.68-2.42l-.13-.4c-.02-.06-.06-.11-.11-.15l-.51-.36s-.11-.05-.16-.05l-.49-.06s-.03,0-.05,0l-2.37.09-2.31.03-1.72-.02-2.99-.1s-.03,0-.05,0l-.54.06s-.09.02-.12.04l-.4.24s-.04.03-.05.04l-.11.11s-.05.06-.06.09l-.19.4s-.02.05-.02.08l-.41,2.38h-.21s-.04,0-.06,0l-.27.05s-.08.02-.11.04l-.21.14s-.08.07-.11.12l-.09.19s-.02.07-.03.1l-.68,8.04.18.02v.05ZM122.56,50.55l.07-.88.03-.06.07-.04-.17.99ZM122.61,52.04h-.18s0-.03,0-.03l.17.03ZM137.41,52.04l.06-.02.14.03h-.19ZM137.46,51.23l-.48-1.7h.8s-.32,1.7-.32,1.7ZM152.4,52.05l.08-.02.13.03h-.21ZM152.47,51.23l-.44-1.7h.8s-.36,1.7-.36,1.7ZM167.38,52.06l.11-.03.12.03h-.23ZM167.49,51.24l-.41-1.71h.8s-.39,1.71-.39,1.71ZM182.5,51.24l-.38-1.7h.8s-.42,1.7-.42,1.7ZM182.5,52.03l.1.02h-.22s.12-.02.12-.02ZM197.5,52.04v.02s-.12,0-.12,0l.12-.02ZM197.17,49.55l.12.02.07.05.02.05.05,1.23-.27-1.36ZM197.16,48.41l.18.03.07.05.02.05.02.44-.25-.05s-.04,0-.06,0h-.1l-.11-.52h.22ZM184.53,45.58l.11-.32.35-.24.43-.05,2.37.1,2.33.03,2.33-.03,2.37-.09.44.05.31.19.05.05.11.26,1.34,6.59.19,4.5h-14.27s-.08-4.51-.08-4.51l1.62-6.52ZM183.21,48.41l-.13.52h-1.09s-.12-.52-.12-.52h1.33ZM169.41,45.56l.12-.31.35-.23.43-.05,2.37.1,2.33.03,2.33-.03,2.37-.09.43.05.3.19.05.05.12.3,1.45,6.54.07,4.5h-14.27s.04-4.51.04-4.51l1.5-6.53ZM168.13,48.41l-.12.52h-1.09s-.13-.52-.13-.52h1.33ZM154.28,45.56l.13-.3.36-.24.44-.05,1.68.07,3.03.06,2.33-.03,2.36-.09.43.05.28.18.07.06.11.28,1.58,6.55-.04,4.51h-14.27s.15-4.51.15-4.51l1.37-6.53ZM153.06,48.4l-.11.52h-1.09s-.14-.52-.14-.52h1.33ZM139.15,45.55l.14-.31.36-.24.44-.05,2.38.1,2.33.03,2.33-.03,2.36-.09.42.05.28.19.07.05.1.29,1.7,6.55-.15,4.51h-14.27s.26-4.51.26-4.51l1.24-6.54ZM138,48.4l-.1.52h-1.08s-.15-.52-.15-.52h1.33ZM124.02,45.55l.14-.31.36-.23.45-.05,1.69.07,3.02.06,1.57-.02,3.11-.1.42.05.35.24,1.92,6.84-.26,4.51h-14.27s.37-4.51.37-4.51l1.12-6.53ZM122.58,48.48l.08-.06.18-.03h.08l-.09.53-.26.05s-.04.02-.06.02l.04-.46.03-.06Z"/>
      <path d="M287.62,53.12s-.06,0-.09.01l-.1.03s-.01,0-.02,0l-.14.04c-.09.03-.16.09-.19.18l-.04.1.06.03-.02.06s-.01.04-.01.06v.02s-.04,0-.04,0l.17.9s.03.09.06.13l.08.1c.04.05.1.09.16.11l.16.04s.05.01.08.01h10.46s.06,0,.09-.01l.14-.04c.09-.03.16-.09.2-.18l.04-.1c.02-.05.02-.11.01-.17l-.19-.9s-.03-.09-.06-.13l-.08-.1s-.05-.05-.08-.07c-.03-.03-.07-.05-.11-.06l-.15-.05s-.06-.01-.09-.01h-10.28ZM287.67,53.77v-.05s10.19,0,10.19,0l.14.62h-10.22s-.11-.58-.11-.58Z"/>
      <path d="M286.86,49.66l-.1.03s0,0,0,0l-.14.04c-.09.03-.16.09-.19.18l-.04.1.06.03-.02.06s-.01.04-.01.05v.02s-.04,0-.04,0l.17.89s.03.09.06.13l.08.1c.04.05.09.09.16.1l.16.04s.05.01.08.01h10.39s.09-.01.12-.02l.11-.03c.09-.03.16-.09.19-.18l.04-.1c.02-.05.03-.11.01-.17l-.19-.89s-.03-.09-.06-.13l-.08-.1s-.05-.04-.08-.06c-.03-.03-.07-.06-.11-.07l-.15-.05s-.06-.01-.09-.01h-10.22s-.06,0-.09.01ZM297.13,50.25l.14.61h-10.16s-.11-.56-.11-.56v-.05s10.13,0,10.13,0Z"/>
      <path d="M253.96,85.85l-.62-.04-1.83.12-1.52.03-1.51-.03-1.82-.12s-.03,0-.04,0l-.54.04s-.09.02-.13.04l-.35.2s-.04.03-.06.05l-.16.15s-.06.07-.08.12l-.59,1.63h-.16l-.45-.09-.3-.2-.13-.27-.91-8.16s-.01-.07-.03-.1l-.11-.24s-.06-.09-.1-.12l-.26-.18s-.07-.04-.11-.05l-.33-.06s-.04,0-.06,0h-.33l-.17-.82s-.02-.07-.04-.09h0s-.24-.39-.24-.39l-.11-.14s-.06-.06-.1-.08l-.43-.21s-.07-.03-.11-.03l-.57-.04s-.03,0-.04,0l-1.8.12-1.49.03-1.49-.03-1.79-.12s-.03,0-.04,0l-.54.04s-.09.02-.13.04l-.36.21s-.03.02-.05.04l-.15.14s-.06.07-.08.12l-.47,1.22h-.98s-.04,0-.06,0l-.32.06s-.09.03-.13.06l-.22.18c-.05.04-.09.1-.1.16l-.07.24s-.01.07,0,.11l.75,8.15-.06.24-.22.18h-.04s-.25-1.17-.25-1.17c0-.03-.02-.07-.04-.1l-.23-.37-.12-.15s-.07-.07-.11-.09l-.43-.2s-.07-.02-.11-.03l-.61-.04-1.83.12-1.52.03-1.51-.04-1.82-.12s-.03,0-.04,0l-.55.04s-.08.01-.12.03l-.37.2s-.05.03-.07.05l-.15.15s-.06.07-.07.11l-.54,1.63h-.92s-.04,0-.06,0l-.33.07s-.09.03-.13.06l-.23.18s-.09.09-.1.15l-.07.25.29.08-.3.02.66,9.19s.01.07.02.1l.11.25c.02.05.06.09.1.13l.26.19s.07.04.12.05l.34.07s.04,0,.06,0h37.45s.05.01.05.01h.46s.04,0,.06,0l.33-.07s.09-.03.13-.06l.22-.19c.05-.04.09-.1.1-.17l.06-.25-.29-.06h0s.3-.04.3-.04l-1.22-9.19s-.01-.06-.03-.09l-.12-.25s-.06-.09-.1-.12l-.27-.18s-.07-.04-.11-.05l-.34-.07s-.04,0-.06,0h-.41s-.25-1.25-.25-1.25c0-.04-.02-.08-.05-.11l-.35-.5s-.07-.08-.12-.1l-.45-.2s-.07-.02-.1-.03ZM230.02,80.33l.15-.03h.39l-.44,1.14-.1-1.11ZM230.67,92.32h0s.14.04.14.04l-.14-.04ZM230.6,92.01l-.14-.67s.03.04.05.06l.24.18-.15.43ZM230.99,92.85l.1-.4,2-5.78.08-.08.27-.15.46-.03,1.81.12,1.54.04,1.54-.04,1.8-.12.52.03.32.15.25.37.65,3.9,1.03,7.37h-11.89s-.49-5.38-.49-5.38ZM242.09,83.25l.26-.05v.02s-.26.03-.26.03h0ZM241.79,80.34h.06s.14.11.14.11l.06.12.25,2.25-.51-2.48ZM243.35,92.33v-.02s.13.05.13.05l-.13-.03ZM243.29,92l-.18-.9.08-.33s.01-.07,0-.1h0s0-.01,0-.01h0s-.2-1.82-.2-1.82l.17.37s.06.09.1.12l.42.29s.07.04.11.05l.31.06-.82,2.28ZM243.81,88.48s.07.04.11.05l.54.1s.02,0,.03,0l-.18.5-.34-.05-.3-.2-.13-.27-.04-.33.3.2ZM241.73,79.17l.24.05.14.09.06.12.05.44-.08-.05s-.07-.04-.11-.05l-.33-.06s-.02,0-.03,0l-.11-.53h.18ZM232.22,77.62l.08-.07.27-.16.44-.04,1.78.12,1.52.03,1.52-.03,1.79-.11.49.04.32.16.23.37,1.25,8.33-.06-.07s-.07-.07-.12-.09l-.44-.2s-.07-.02-.1-.03l-.62-.04-1.83.12-1.52.03-1.51-.03-1.82-.12s-.03,0-.04,0l-.54.04s-.09.02-.12.04l-.36.2s-.05.03-.07.05l-.16.15s-.06.07-.07.12l-1.59,4.58-.03-.02-.15-.34-.19-2.08.09-.96s0-.04,0-.05l-.43-4.71,1.98-5.19ZM229.96,79.28l.09-.07.22-.04h.72s-.2.53-.2.53h-.65s-.04,0-.06,0l-.11.02-.03-.35.02-.09ZM229.97,88.52s0,0,.01,0v.11s-.06.18-.06.18l-.06-.27.1-.02ZM218.18,91.26l-.1-1.46.2-.04h.4s-.5,1.5-.5,1.5ZM218.14,88.68l.23-.05h.69s-.18.53-.18.53h-.63s-.04,0-.06,0l-.16.03-.02-.34.03-.1.1-.08ZM218.85,98.17l-.14-.1-.04-.09-.36-5.13.12-.41,1.82-5.5.1-.28.07-.07.27-.15.46-.03,1.82.12,1.54.04,1.54-.04,1.8-.12.52.03.32.15.24.37,1.25,5.91.48,5.35h-11.55s-.25-.05-.25-.05ZM256.99,98.23h-.16l-.7-5.44h-.04s0,0,0,0h.04s-.14-.76-.14-.76h0s-.17-1.26-.17-1.26l-.19-.96.13.03.15.1.06.13,1.08,8.16h-.06ZM255.65,88.64l.25.05.15.1.06.13.06.46-.13-.09s-.07-.04-.11-.05l-.34-.07s-.04,0-.06,0h-.04s-.11-.53-.11-.53h.26ZM254.45,86.97l.77,3.89.99,7.37h-11.94s-.59-5.38-.59-5.38l.1-.4,2.08-5.78.08-.08.26-.15.45-.03,1.81.12,1.54.04,1.54-.04,1.8-.12.53.03.33.14.26.37Z"/>
    </g>
  </g>
</svg>