<?xml version="1.0" encoding="UTF-8"?>
<svg id="Layer_2" data-name="Layer 2" xmlns="http://www.w3.org/2000/svg" viewBox="0 0 244.22 259.03">
  <defs>
    <style>
      .cls-1 {
        stroke: #d83a41;
        stroke-linecap: round;
        stroke-linejoin: round;
        stroke-width: .25px;
      }
    </style>
  </defs>
  <g id="Layer_1-2" data-name="Layer 1">
    <g>
      <path d="M244.08,175.2l-.02-.08c-.02-.06-.05-.12-.09-.16l-.06-.06h0s-.08-.07-.14-.09l-5.57-1.91s-.02,0-.03,0l-.07-.02s-.06-.01-.09-.01h-7.35v-4.46h12.4c.1,0,.19-.04.26-.11s.11-.16.11-.26l-.34-167.56c0-.2-.16-.36-.36-.36H113.42c-.2,0-.36.16-.36.36v.11h-1.42v-.03s0-.02-.01-.02l-.02-.08c-.02-.06-.05-.11-.09-.16l-.06-.06s-.1-.07-.15-.09l-.08-.02s-.07-.02-.1-.02h-17.01s-.05,0-.07,0h-.07c-.06.03-.12.06-.17.1l-.05.05c-.05.05-.09.11-.11.17l-.02.07s-.01.07-.01.1l-.06,59.74-.48,2.86-.33,1.36-.66,4.54-.57,4.54-.09,1.43-.25,10.82.25,10.82.48,4.54.75,4.54.28,1.43.57,3.44-.05,57.21v.04c-.02.07,0,.14.02.2l.02.05c.04.1.13.18.23.21h.04s.07.03.1.03h11.87v4.46h-9.56s-.07,0-.1.02l-.07.02s-.08.03-.11.06l-2.59,1.91s-.03.02-.04.04h0s-.06.06-.06.06c-.05.05-.08.1-.09.17l-.02.08s-.01.06-.01.09v1.23l-.41.31s-.02.02-.03.03l-.04.04s-.08.1-.09.16v.05s-.03.06-.03.09l-.07,23.68-25.7,6.19v.05s-1.82-2.79-1.82-2.79c0,0,0,0-.01-.01l-.09-.09s-.02-.01-.02-.02l-.11-.05s-.02,0-.03,0h-.1s-.02,0-.03,0l-6.1,1.47s-.02,0-.03.01l-.09.05s0,0,0,0l-.13.1s-.01.01-.02.02l-.03.02s0,0,0,0l-.13.1s-.01.01-.02.02l-.03.02s0,0,0,0l-.13.1s-.01.01-.02.02l-.03.02s0,0,0,0l-.13.1s-.01.01-.02.02l-.03.02s0,0,0,0l-.13.1s-.01.01-.02.02l-.03.02s0,0,0,0l-.13.1s-.01.01-.02.02l-.03.02s0,0,0,0l-.13.1s-.01.01-.02.02l-.03.02s0,0,0,0l-.13.11s-.01.01-.02.02l-.03.02s0,0,0,0l-.13.11s-.01.01-.02.02l-.03.02s0,0,0,0l-.13.11s-.01,0-.02.02l-.04.02s0,0,0,0l-.06.05-.48-.73s0,0-.01-.01l-.09-.09s-.02-.01-.02-.02l-.11-.05s-.02,0-.03,0h-.1s-.02,0-.03,0l-6.1,1.47s-.02,0-.03.01l-.09.06-.18.13s-.01.01-.02.02h0s-.16.13-.16.13c0,0-.01.01-.02.02l-.04.03-.14.11s-.01.01-.02.02l-.19.14s-.01.01-.02.02l-.19.14s-.01.01-.02.02l-.05.03-.15.11s-.01.01-.02.02l-.05.03-.15.11s-.01.01-.02.02l-.19.14s-.01.01-.02.02l-.2.14s-.01.01-.02.02l-.05.03-.11.08-.44-.67s0,0-.01-.01l-.09-.09s-.01-.01-.02-.02l-.11-.05s-.02,0-.03,0h-.1s-.02,0-.03,0l-6.1,1.47s-.02,0-.03.01l-.09.06-.26.18s0,0-.01,0l-.23.15s-.01.01-.02.02l-.21.14s-.01,0-.02.02l-.21.14s-.01.01-.02.02l-.21.14s-.01.01-.02.02l-.21.14s-.01.01-.02.02l-.21.14s-.01,0-.02.02l-.22.15s-.01,0-.02.02l-.17.12-.4-.6s0,0-.01-.01l-.09-.09s-.01-.01-.02-.02l-.11-.05s-.02,0-.03,0h-.1s-.02,0-.03,0l-6.1,1.47s-.02,0-.03.01l-.42.27s-.01,0-.02.01l-.23.15s0,0-.01.01l-.24.15s0,0-.01,0l-.24.16s0,0-.01,0l-.24.16s0,0-.01.01l-.24.15s0,0-.01.01l-.24.16s0,0-.01,0l-.24.16s0,0-.01.01l-.24.16s0,0-.01.01l-.24.16s0,0-.01.01l-.04.02-.37-.56s0,0-.01-.01l-.09-.09s-.01-.01-.02-.02l-.11-.05s0,0,0,0c0,0,0,0,0,0,0,0-.01,0-.02,0,0,0,0,0,0,0h-.1s-.02,0-.03,0l-6.12,1.48s-.02,0-.03.01l-2.5,1.56s-.02.01-.02.02h0s-.07.1-.07.1c0,0-.01.02-.01.03l-.04.12s0,.01,0,.02l-.04.35-1.32.32s-.02,0-.03.01l-.29.18s0,0-.01,0l-.28.17s0,0,0,0l-.29.18s0,0,0,0l-.29.18s-.02.01-.03.02l-.07.1s-.01.02-.01.03l-.04.12s0,.01,0,.02l-.12,1.08-.02-.09-7.79,1.88s-.06.02-.09.04l-.07.04s0,0-.01,0l-7.63,4.68s-.07.05-.09.08l-.04.05s0,.01-.01.02l-.02.02s-.04.08-.06.12l-.02.08s-.01.06-.01.09v13.74s0,.07.02.1l.02.08c.02.06.05.11.09.15l.06.06s.1.07.15.09l.08.02s.07.01.1.01h6.74l7.92,17.99h0c.06.13.18.22.33.22h220.94s.07,0,.1-.02l.08-.02c.06-.02.11-.05.16-.09l.06-.06s.07-.09.09-.15l.02-.08s.02-.07.02-.1v-17.69h6.48s.07,0,.1-.01l.08-.02c.06-.02.11-.05.15-.09l.06-.06s.07-.09.09-.15l.02-.08s.02-.07.02-.11v-64.87s0-.06-.01-.1ZM93.1,107.21l-.28-1.43-.75-4.53-.48-4.53-.25-10.81.25-10.81.09-1.42.57-4.53.66-4.53.33-1.36.3-1.78-.05,48.1-.39-2.37ZM242.35.85l.34,166.83H113.69l.09-166.72h0v-.11h128.57ZM94.33.86h16.62s-.02.07-.02.11l-.08,142.06v24.66h-16.68l.16-166.82ZM93.07,201.89v1.76l-3.97.94-25.7,6.19h0s.01,0,.02-.01h0s.01,0,.01,0h0s0,0,0,0l.17-.15s0,0,0,0c0,0,0,0,0,0h0s0,0,0,0c0,0,0,0,0,0l.17-.15s0,0,0,0c0,0,0,0,0,0h0s0,0,0,0c0,0,0,0,0,0l.17-.15s.02-.03.03-.05l.02-.07.36-.26.07-.06.17-.15s0,0,0,0h0s0,0,0,0c0,0,0,0,0,0l.16-.15s0,0,0,0c0,0,0,0,0,0l.16-.15s0,0,0,0c0,0,0,0,0,0l.16-.15s0,0,0,0c0,0,0,0,0,0l.16-.15s0,0,0,0c0,0,0,0,0,0l.16-.15s0,0,0,0c0,0,0,0,0,0l.16-.15s0,0,0,0h0s0,0,0,0c0,0,0,0,0,0l.16-.15s0,0,0,0h0s0,0,0,0c0,0,0,0,0,0l.16-.14s0,0,0,0c0,0,0,0,0,0l.16-.14s0,0,0,0h0s0,0,0,0c0,0,0,0,0,0l.16-.14s0,0,0,0h0s0,0,0,0c0,0,0,0,0,0l.16-.14s0,0,0,0c0,0,0,0,0,0l.16-.14s0,0,0,0c0,0,0,0,0,0l.15-.13.03.14,25.59-6.17s.04.06.06.09l.04.04s.1.08.16.09l.06.02s.07.01.1.01h.2ZM53.98,210.89s0,0,0,0v.1s-.01,0-.01.01v.11s-.01,0-.01,0v.1s-.01,0-.01.01v.09s-.06-.07-.06-.07c0,0,0,0,0,0l-.06-.1s0,0,0,0l-.12-.19s0,0,0,0l-.05-.08s0,0,0,0l-1.14-1.73s0,0-.01-.01l-.09-.09s-.01-.01-.02-.02l-.11-.06s-.02,0-.03,0h-.11s-.02,0-.03,0l-5.76,1.39v-.03s.07-.08.07-.08l.14-.1.05-.03s0,0,0,0c0,0,0,0,0,0h.02s6.25-1.52,6.25-1.52h.07s.08.05.08.05l.07.07.97,1.48-.08.73ZM63.96,209.96l-.13-.2s0,0,0,0l-.06-.1s0,0,0,0l-.06-.09s0,0,0,0l-.07-.1s0,0,0,0l-.06-.1s0,0,0,0l-.06-.1s0,0,0,0l-.13-.19s0,0,0,0l-.05-.08s0,0,0,0l-.06-.1s0,0,0-.01l-.05-.08s0,0,0,0l-.06-.1s0,0,0,0l-.06-.08s0,0,0,0l-1.12-1.71s0,0-.01-.01l-.09-.09s-.02-.01-.02-.02l-.11-.06s-.02,0-.03,0h-.11s-.02,0-.03,0l-5.83,1.41.02-.06.05-.07.13-.11.04-.02s0,0,0,0l.03-.02,6.25-1.51h.07s.08.05.08.05l.07.07,1.4,2.14s0,0,0,0l.06.09s0,0,0,0l.06.1s0,0,0,0l.06.09s0,0,0,0l.06.09s0,0,0,0l.06.09s0,0,0,0l.06.09s0,0,0,0l.06.09s0,0,0,0l.07.1s0,0,0,0l.06.09s0,0,0,.01l.02.02.02.07v.03s-.14.12-.14.12l-.37.26ZM34.96,215.42s0,0,0,0v.11s-.01,0-.01,0v.11s-.01,0-.01,0h0s0,0,0,0c0,0,0,0,0,0l-.06-.09s0,0,0,0l-1.23-1.87s0,0-.01-.01l-.09-.09s-.01-.01-.02-.02l-.11-.06s-.02,0-.03,0h-.11s-.02,0-.03,0l-5.54,1.34.03-.09.06-.08.42-.28.08-.05,6.23-1.5h.07s.08.05.08.05l.07.07.45.68-.03.09s0,.01,0,.02l-.18,1.68ZM44.47,213.1s0,0,0,0v.11s-.01,0-.01,0v.11s-.01,0-.01,0l-.02.16-.02-.03s0,0,0,0l-.06-.09s0,0,0,0l-.06-.09s0,0,0,0l-.06-.09s0,0,0,0l-1.15-1.75s0,0-.01-.01l-.09-.09s-.01-.01-.02-.02l-.11-.06s-.02,0-.03,0h-.11s-.02,0-.03,0l-3.02.73-2.65.64.02-.06.06-.08.26-.18.06-.04h.02s.33-.09.33-.09c0,0,0,0,0,0l5.9-1.43h.07s.08.05.08.05l.07.07.73,1.1-.12,1.17ZM21.47,214.99l.08-.05,5.78-1.4-1.96,1.28-5.84,1.38,1.94-1.22ZM19,216.66l.03-.1.04-.06,6.36-1.5h0c.15-.03.3.02.38.15l.29.38-.05.03s0,0-.01.01l-.26.17s-.02.01-.02.02l-.07.1s-.01.02-.01.03l-.04.12s0,.01,0,.02l-.19,1.8-1.24-1.87s0,0-.01-.01l-.09-.09s-.01-.01-.02-.02l-.11-.06s-.02,0-.03,0h-.11s-.02,0-.03,0l-4.82,1.16.03-.28ZM16.29,218.36l.03-.1.06-.08.27-.17,6.35-1.53h.07s.08.05.08.05l.07.07,2.03,3.07s.05.04.08.04c0,0,.01,0,.02,0,.04,0,.06-.04.07-.08l.17-1.53s0,0,0,0h0l.22-2.04.03-.1.06-.08.17-.11.08-.05,6.35-1.53h.07s.08.05.08.05l.07.07.78,1.19.25.38s0,0,0,0l.06.1s0,0,0,0l.06.09s0,0,0,0l.06.09s0,0,0,0l.06.1s0,0,0,0l.06.09s0,0,0,0l.06.09s0,0,0,0l.07.1s0,0,0,0l.06.1s0,0,0,0l.48.73s.05.04.08.04c0,0,.02,0,.02,0,.04,0,.06-.04.07-.08l.08-.74s0,0,0,0v-.11s.01,0,.01,0v-.07s0,0,0-.01l.02-.15s0,0,0,0v-.11s.01,0,.01,0v-.11s.01,0,.01,0v-.07s0,0,0-.01h0s0-.03,0-.03c0,0,0,0,0,0v-.11s.01,0,.01,0l.02-.23s0,0,0,0v-.11s.01,0,.01,0l.18-1.67.03-.1.06-.08.15-.1.08-.05s0,0,0,0c0,0,0,0,0,0h0s6.35-1.54,6.35-1.54h.08s.08.05.08.05l.07.07.95,1.45s0,0,0,.01l.06.09s0,0,0,0l.06.1s0,0,0,0l.06.09s0,0,0,0l.06.09s0,0,0,0l.12.18s0,0,0,0l.06.09s0,0,0,0l.07.1s0,0,0,0l.06.09s0,0,0,0l.06.1s0,0,0,0l.06.09s0,0,0,0l.35.53s0,0,0,0l.02.02s.05.06.09.06c0,0,0,0,0,0,.04,0,.08-.04.08-.08v-.06s0,0,0,0l.07-.62s0,0,0,0v-.12s.01,0,.01,0v-.12s.01,0,.01,0l.04-.35s0,0,0,0v-.05h0v-.06s0,0,0,0v-.11s.01,0,.01,0v-.11s.01,0,.01,0v-.12s.01,0,.01,0l.02-.23s0,0,0,0l.13-1.2h0s0,0,0,0l.05-.43.03-.12.06-.08.14-.1.06-.04s0,0,0,0c0,0,0,0,0,0h.02s6.35-1.55,6.35-1.55h.07s.08.05.08.05l.07.07.94,1.43s0,0,0,0l.06.09s0,0,0,0l.06.09s0,0,0,0l.06.1s0,0,0,0l.06.09s0,0,0,0l.06.09s0,0,0,0l.06.1s0,0,0,0l.06.09s0,0,0,0l.06.09s0,0,0,0l.06.09s0,0,0,0l.06.1s0,0,0,0l.06.1s0,0,0,0l.06.1s0,0,0,0l.29.44s0,0,0,0l.02.03v.04s.06.06.1.06c0,0,0,0,0,0,.04,0,.08-.04.08-.08v-.11s.01,0,.01,0l.06-.54s0,0,0,0v-.12s.01,0,.01,0v-.12s.01,0,.01,0v-.12s.01,0,.01,0v-.11s.01,0,.01-.01v-.12s.01,0,.01,0h0s0,0,0,0h0v-.11s.01,0,.01,0v-.11s.01,0,.01,0v-.1s.01,0,.01-.01v-.12s.01,0,.01,0v-.1s.01,0,.01-.01v-.11s.01,0,.01,0v-.11s.01,0,.01,0l.07-.64h0l.1-.97.03-.1.06-.08.12-.1.05-.03s0,0,0,0l.03-.02,6.35-1.53h.07s.08.05.08.05l.07.07.79,1.2.2.31s0,0,0,0l.06.09s0,0,0,0l.06.1s0,0,0,0l.06.09s0,0,0,0l.06.1s0,0,0,0l.06.09s0,0,0,0l.06.1s0,0,0,0l.06.09s0,0,0,0l.06.1s0,0,0,0l.13.2s0,0,0,0l.06.09s0,0,0,0l.31.47s0,0,0,0l.02.02.03.07v.02s-.41.2-.41.2l-8.69,2.1-.82.2-8.7,2.1-.13.03h0s0,0,0,0h0s0,0,0,0l-.39.09-.29.07-8.7,2.1-.82.2-8.7,2.1-.82.2-8.7,2.1-.22.05-.02-.08.22-2.07h.03s-.02-.1-.02-.1l.17-1.57ZM8.38,221.91h.02s7.52-1.82,7.52-1.82l-.22,2.01s0,.02,0,.02l.02.11s0,.03.02.04l-13.08,3.15,5.72-3.51ZM236.73,239.96H.85v-13.36l88.41-21.31,4.15-.98c.11-.03.2-.1.25-.2l.08-.16s.02-.04.02-.06l.02-.08s.01-.06.01-.09v-28.19h149.57v64.44h-6.64Z"/>
      <path class="cls-1" d="M244.08,175.2l-.02-.08c-.02-.06-.05-.12-.09-.16l-.06-.06h0s-.08-.07-.14-.09l-5.57-1.91s-.02,0-.03,0l-.07-.02s-.06-.01-.09-.01h-7.35v-4.46h12.4c.1,0,.19-.04.26-.11s.11-.16.11-.26l-.34-167.56c0-.2-.16-.36-.36-.36H113.42c-.2,0-.36.16-.36.36v.11h-1.42v-.03s0-.02-.01-.02l-.02-.08c-.02-.06-.05-.11-.09-.16l-.06-.06s-.1-.07-.15-.09l-.08-.02s-.07-.02-.1-.02h-17.01s-.05,0-.07,0h-.07c-.06.03-.12.06-.17.1l-.05.05c-.05.05-.09.11-.11.17l-.02.07s-.01.07-.01.1l-.06,59.74-.48,2.86-.33,1.36-.66,4.54-.57,4.54-.09,1.43-.25,10.82.25,10.82.48,4.54.75,4.54.28,1.43.57,3.44-.05,57.21v.04c-.02.07,0,.14.02.2l.02.05c.04.1.13.18.23.21h.04s.07.03.1.03h11.87v4.46h-9.56s-.07,0-.1.02l-.07.02s-.08.03-.11.06l-2.59,1.91s-.03.02-.04.04h0s-.06.06-.06.06c-.05.05-.08.1-.09.17l-.02.08s-.01.06-.01.09v1.23l-.41.31s-.02.02-.03.03l-.04.04s-.08.1-.09.16v.05s-.03.06-.03.09l-.07,23.68-25.7,6.19v.05s-1.82-2.79-1.82-2.79c0,0,0,0-.01-.01l-.09-.09s-.02-.01-.02-.02l-.11-.05s-.02,0-.03,0h-.1s-.02,0-.03,0l-6.1,1.47s-.02,0-.03.01l-.09.05s0,0,0,0l-.13.1s-.01.01-.02.02l-.03.02s0,0,0,0l-.13.1s-.01.01-.02.02l-.03.02s0,0,0,0l-.13.1s-.01.01-.02.02l-.03.02s0,0,0,0l-.13.1s-.01.01-.02.02l-.03.02s0,0,0,0l-.13.1s-.01.01-.02.02l-.03.02s0,0,0,0l-.13.1s-.01.01-.02.02l-.03.02s0,0,0,0l-.13.1s-.01.01-.02.02l-.03.02s0,0,0,0l-.13.11s-.01.01-.02.02l-.03.02s0,0,0,0l-.13.11s-.01.01-.02.02l-.03.02s0,0,0,0l-.13.11s-.01,0-.02.02l-.04.02s0,0,0,0l-.06.05-.48-.73s0,0-.01-.01l-.09-.09s-.02-.01-.02-.02l-.11-.05s-.02,0-.03,0h-.1s-.02,0-.03,0l-6.1,1.47s-.02,0-.03.01l-.09.06-.18.13s-.01.01-.02.02h0s-.16.13-.16.13c0,0-.01.01-.02.02l-.04.03-.14.11s-.01.01-.02.02l-.19.14s-.01.01-.02.02l-.19.14s-.01.01-.02.02l-.05.03-.15.11s-.01.01-.02.02l-.05.03-.15.11s-.01.01-.02.02l-.19.14s-.01.01-.02.02l-.2.14s-.01.01-.02.02l-.05.03-.11.08-.44-.67s0,0-.01-.01l-.09-.09s-.01-.01-.02-.02l-.11-.05s-.02,0-.03,0h-.1s-.02,0-.03,0l-6.1,1.47s-.02,0-.03.01l-.09.06-.26.18s0,0-.01,0l-.23.15s-.01.01-.02.02l-.21.14s-.01,0-.02.02l-.21.14s-.01.01-.02.02l-.21.14s-.01.01-.02.02l-.21.14s-.01.01-.02.02l-.21.14s-.01,0-.02.02l-.22.15s-.01,0-.02.02l-.17.12-.4-.6s0,0-.01-.01l-.09-.09s-.01-.01-.02-.02l-.11-.05s-.02,0-.03,0h-.1s-.02,0-.03,0l-6.1,1.47s-.02,0-.03.01l-.42.27s-.01,0-.02.01l-.23.15s0,0-.01.01l-.24.15s0,0-.01,0l-.24.16s0,0-.01,0l-.24.16s0,0-.01.01l-.24.15s0,0-.01.01l-.24.16s0,0-.01,0l-.24.16s0,0-.01.01l-.24.16s0,0-.01.01l-.24.16s0,0-.01.01l-.04.02-.37-.56s0,0-.01-.01l-.09-.09s-.01-.01-.02-.02l-.11-.05s0,0,0,0c0,0,0,0,0,0,0,0-.01,0-.02,0,0,0,0,0,0,0h-.1s-.02,0-.03,0l-6.12,1.48s-.02,0-.03.01l-2.5,1.56s-.02.01-.02.02h0s-.07.1-.07.1c0,0-.01.02-.01.03l-.04.12s0,.01,0,.02l-.04.35-1.32.32s-.02,0-.03.01l-.29.18s0,0-.01,0l-.28.17s0,0,0,0l-.29.18s0,0,0,0l-.29.18s-.02.01-.03.02l-.07.1s-.01.02-.01.03l-.04.12s0,.01,0,.02l-.12,1.08-.02-.09-7.79,1.88s-.06.02-.09.04l-.07.04s0,0-.01,0l-7.63,4.68s-.07.05-.09.08l-.04.05s0,.01-.01.02l-.02.02s-.04.08-.06.12l-.02.08s-.01.06-.01.09v13.74s0,.07.02.1l.02.08c.02.06.05.11.09.15l.06.06s.1.07.15.09l.08.02s.07.01.1.01h6.74l7.92,17.99h0c.06.13.18.22.33.22h220.94s.07,0,.1-.02l.08-.02c.06-.02.11-.05.16-.09l.06-.06s.07-.09.09-.15l.02-.08s.02-.07.02-.1v-17.69h6.48s.07,0,.1-.01l.08-.02c.06-.02.11-.05.15-.09l.06-.06s.07-.09.09-.15l.02-.08s.02-.07.02-.11v-64.87s0-.06-.01-.1ZM93.1,107.21l-.28-1.43-.75-4.53-.48-4.53-.25-10.81.25-10.81.09-1.42.57-4.53.66-4.53.33-1.36.3-1.78-.05,48.1-.39-2.37ZM242.35.85l.34,166.83H113.69l.09-166.72h0v-.11h128.57ZM94.33.86h16.62s-.02.07-.02.11l-.08,142.06v24.66h-16.68l.16-166.82ZM93.07,201.89v1.76l-3.97.94-25.7,6.19h0s.01,0,.02-.01h0s.01,0,.01,0h0s0,0,0,0l.17-.15s0,0,0,0c0,0,0,0,0,0h0s0,0,0,0c0,0,0,0,0,0l.17-.15s0,0,0,0c0,0,0,0,0,0h0s0,0,0,0c0,0,0,0,0,0l.17-.15s.02-.03.03-.05l.02-.07.36-.26.07-.06.17-.15s0,0,0,0h0s0,0,0,0c0,0,0,0,0,0l.16-.15s0,0,0,0c0,0,0,0,0,0l.16-.15s0,0,0,0c0,0,0,0,0,0l.16-.15s0,0,0,0c0,0,0,0,0,0l.16-.15s0,0,0,0c0,0,0,0,0,0l.16-.15s0,0,0,0c0,0,0,0,0,0l.16-.15s0,0,0,0h0s0,0,0,0c0,0,0,0,0,0l.16-.15s0,0,0,0h0s0,0,0,0c0,0,0,0,0,0l.16-.14s0,0,0,0c0,0,0,0,0,0l.16-.14s0,0,0,0h0s0,0,0,0c0,0,0,0,0,0l.16-.14s0,0,0,0h0s0,0,0,0c0,0,0,0,0,0l.16-.14s0,0,0,0c0,0,0,0,0,0l.16-.14s0,0,0,0c0,0,0,0,0,0l.15-.13.03.14,25.59-6.17s.04.06.06.09l.04.04s.1.08.16.09l.06.02s.07.01.1.01h.2ZM53.98,210.89s0,0,0,0v.1s-.01,0-.01.01v.11s-.01,0-.01,0v.1s-.01,0-.01.01v.09s-.06-.07-.06-.07c0,0,0,0,0,0l-.06-.1s0,0,0,0l-.12-.19s0,0,0,0l-.05-.08s0,0,0,0l-1.14-1.73s0,0-.01-.01l-.09-.09s-.01-.01-.02-.02l-.11-.06s-.02,0-.03,0h-.11s-.02,0-.03,0l-5.76,1.39v-.03s.07-.08.07-.08l.14-.1.05-.03s0,0,0,0c0,0,0,0,0,0h.02s6.25-1.52,6.25-1.52h.07s.08.05.08.05l.07.07.97,1.48-.08.73ZM63.96,209.96l-.13-.2s0,0,0,0l-.06-.1s0,0,0,0l-.06-.09s0,0,0,0l-.07-.1s0,0,0,0l-.06-.1s0,0,0,0l-.06-.1s0,0,0,0l-.13-.19s0,0,0,0l-.05-.08s0,0,0,0l-.06-.1s0,0,0-.01l-.05-.08s0,0,0,0l-.06-.1s0,0,0,0l-.06-.08s0,0,0,0l-1.12-1.71s0,0-.01-.01l-.09-.09s-.02-.01-.02-.02l-.11-.06s-.02,0-.03,0h-.11s-.02,0-.03,0l-5.83,1.41.02-.06.05-.07.13-.11.04-.02s0,0,0,0l.03-.02,6.25-1.51h.07s.08.05.08.05l.07.07,1.4,2.14s0,0,0,0l.06.09s0,0,0,0l.06.1s0,0,0,0l.06.09s0,0,0,0l.06.09s0,0,0,0l.06.09s0,0,0,0l.06.09s0,0,0,0l.06.09s0,0,0,0l.07.1s0,0,0,0l.06.09s0,0,0,.01l.02.02.02.07v.03s-.14.12-.14.12l-.37.26ZM34.96,215.42s0,0,0,0v.11s-.01,0-.01,0v.11s-.01,0-.01,0h0s0,0,0,0c0,0,0,0,0,0l-.06-.09s0,0,0,0l-1.23-1.87s0,0-.01-.01l-.09-.09s-.01-.01-.02-.02l-.11-.06s-.02,0-.03,0h-.11s-.02,0-.03,0l-5.54,1.34.03-.09.06-.08.42-.28.08-.05,6.23-1.5h.07s.08.05.08.05l.07.07.45.68-.03.09s0,.01,0,.02l-.18,1.68ZM44.47,213.1s0,0,0,0v.11s-.01,0-.01,0v.11s-.01,0-.01,0l-.02.16-.02-.03s0,0,0,0l-.06-.09s0,0,0,0l-.06-.09s0,0,0,0l-.06-.09s0,0,0,0l-1.15-1.75s0,0-.01-.01l-.09-.09s-.01-.01-.02-.02l-.11-.06s-.02,0-.03,0h-.11s-.02,0-.03,0l-3.02.73-2.65.64.02-.06.06-.08.26-.18.06-.04h.02s.33-.09.33-.09c0,0,0,0,0,0l5.9-1.43h.07s.08.05.08.05l.07.07.73,1.1-.12,1.17ZM21.47,214.99l.08-.05,5.78-1.4-1.96,1.28-5.84,1.38,1.94-1.22ZM19,216.66l.03-.1.04-.06,6.36-1.5h0c.15-.03.3.02.38.15l.29.38-.05.03s0,0-.01.01l-.26.17s-.02.01-.02.02l-.07.1s-.01.02-.01.03l-.04.12s0,.01,0,.02l-.19,1.8-1.24-1.87s0,0-.01-.01l-.09-.09s-.01-.01-.02-.02l-.11-.06s-.02,0-.03,0h-.11s-.02,0-.03,0l-4.82,1.16.03-.28ZM16.29,218.36l.03-.1.06-.08.27-.17,6.35-1.53h.07s.08.05.08.05l.07.07,2.03,3.07s.05.04.08.04c0,0,.01,0,.02,0,.04,0,.06-.04.07-.08l.17-1.53s0,0,0,0h0l.22-2.04.03-.1.06-.08.17-.11.08-.05,6.35-1.53h.07s.08.05.08.05l.07.07.78,1.19.25.38s0,0,0,0l.06.1s0,0,0,0l.06.09s0,0,0,0l.06.09s0,0,0,0l.06.1s0,0,0,0l.06.09s0,0,0,0l.06.09s0,0,0,0l.07.1s0,0,0,0l.06.1s0,0,0,0l.48.73s.05.04.08.04c0,0,.02,0,.02,0,.04,0,.06-.04.07-.08l.08-.74s0,0,0,0v-.11s.01,0,.01,0v-.07s0,0,0-.01l.02-.15s0,0,0,0v-.11s.01,0,.01,0v-.11s.01,0,.01,0v-.07s0,0,0-.01h0s0-.03,0-.03c0,0,0,0,0,0v-.11s.01,0,.01,0l.02-.23s0,0,0,0v-.11s.01,0,.01,0l.18-1.67.03-.1.06-.08.15-.1.08-.05s0,0,0,0c0,0,0,0,0,0h0s6.35-1.54,6.35-1.54h.08s.08.05.08.05l.07.07.95,1.45s0,0,0,.01l.06.09s0,0,0,0l.06.1s0,0,0,0l.06.09s0,0,0,0l.06.09s0,0,0,0l.12.18s0,0,0,0l.06.09s0,0,0,0l.07.1s0,0,0,0l.06.09s0,0,0,0l.06.1s0,0,0,0l.06.09s0,0,0,0l.35.53s0,0,0,0l.02.02s.05.06.09.06c0,0,0,0,0,0,.04,0,.08-.04.08-.08v-.06s0,0,0,0l.07-.62s0,0,0,0v-.12s.01,0,.01,0v-.12s.01,0,.01,0l.04-.35s0,0,0,0v-.05h0v-.06s0,0,0,0v-.11s.01,0,.01,0v-.11s.01,0,.01,0v-.12s.01,0,.01,0l.02-.23s0,0,0,0l.13-1.2h0s0,0,0,0l.05-.43.03-.12.06-.08.14-.1.06-.04s0,0,0,0c0,0,0,0,0,0h.02s6.35-1.55,6.35-1.55h.07s.08.05.08.05l.07.07.94,1.43s0,0,0,0l.06.09s0,0,0,0l.06.09s0,0,0,0l.06.1s0,0,0,0l.06.09s0,0,0,0l.06.09s0,0,0,0l.06.1s0,0,0,0l.06.09s0,0,0,0l.06.09s0,0,0,0l.06.09s0,0,0,0l.06.1s0,0,0,0l.06.1s0,0,0,0l.06.1s0,0,0,0l.29.44s0,0,0,0l.02.03v.04s.06.06.1.06c0,0,0,0,0,0,.04,0,.08-.04.08-.08v-.11s.01,0,.01,0l.06-.54s0,0,0,0v-.12s.01,0,.01,0v-.12s.01,0,.01,0v-.12s.01,0,.01,0v-.11s.01,0,.01-.01v-.12s.01,0,.01,0h0s0,0,0,0h0v-.11s.01,0,.01,0v-.11s.01,0,.01,0v-.1s.01,0,.01-.01v-.12s.01,0,.01,0v-.1s.01,0,.01-.01v-.11s.01,0,.01,0v-.11s.01,0,.01,0l.07-.64h0l.1-.97.03-.1.06-.08.12-.1.05-.03s0,0,0,0l.03-.02,6.35-1.53h.07s.08.05.08.05l.07.07.79,1.2.2.31s0,0,0,0l.06.09s0,0,0,0l.06.1s0,0,0,0l.06.09s0,0,0,0l.06.1s0,0,0,0l.06.09s0,0,0,0l.06.1s0,0,0,0l.06.09s0,0,0,0l.06.1s0,0,0,0l.13.2s0,0,0,0l.06.09s0,0,0,0l.31.47s0,0,0,0l.02.02.03.07v.02s-.41.2-.41.2l-8.69,2.1-.82.2-8.7,2.1-.13.03h0s0,0,0,0h0s0,0,0,0l-.39.09-.29.07-8.7,2.1-.82.2-8.7,2.1-.82.2-8.7,2.1-.22.05-.02-.08.22-2.07h.03s-.02-.1-.02-.1l.17-1.57ZM8.38,221.91h.02s7.52-1.82,7.52-1.82l-.22,2.01s0,.02,0,.02l.02.11s0,.03.02.04l-13.08,3.15,5.72-3.51ZM236.73,239.96H.85v-13.36l88.41-21.31,4.15-.98c.11-.03.2-.1.25-.2l.08-.16s.02-.04.02-.06l.02-.08s.01-.06.01-.09v-28.19h149.57v64.44h-6.64Z"/>
    </g>
  </g>
</svg>