<?xml version="1.0" encoding="UTF-8"?>
<svg id="Layer_2" data-name="Layer 2" xmlns="http://www.w3.org/2000/svg" viewBox="0 0 40.48 325.72">
  <g id="Layer_1-2" data-name="Layer 1">
    <g>
      <path d="M39.72,29.72l.3-1.85s0-.04,0-.05V7.28s-.04-6.12-.04-6.12c0,0,0-.01,0-.02l-.02-.36c-.01-.18-.16-.32-.34-.32h-9.96c-.09,0-.18.04-.25.11l-2.25,2.38-2.23-2.38c-.06-.07-.16-.11-.25-.11H2.28c-.19,0-.34.15-.34.33v.36s-.01,0-.01,0l-.02,26.66s0,.02,0,.03v.11s0,4.77,0,4.77c0,.03-.01.05-.01.08v4.99s0,.02,0,.03v.11s0,4.77,0,4.77c0,.03-.01.05-.01.08v4.99s0,.02,0,.03v.1s0,4.77,0,4.77c0,.03-.01.05-.01.08v4.99s0,.02,0,.03v.09s0,4.78,0,4.78c0,.03-.01.05-.01.08v4.99s0,.02,0,.04v.08s0,4.79,0,4.79c0,.03-.01.05-.01.08v160.05l-.75,1.2s-.02.04-.03.06l-.63,1.7s-.02.08-.02.12v.6s0,0,0,0v5.37s.02.08.03.12l.63,1.7s.02.04.03.06l.75,1.2v30.48c0,.07.02.14.07.2l.49.67v48.45c0,.19.15.34.34.34h21.9c.09,0,.18-.04.24-.1,0,0,0,0,0,0l2.23-2.35.09.09,2,2.41c.07.08.16.12.26.12,0,0,.02,0,.02,0l10.04-.64h0s0,0,0,0c.18,0,.33-.16.33-.34v-188.91s.05-.09.05-.09c.02-.05.04-.1.04-.16v-62.38c0-.17-.13-.32-.29-.34l.02-3.34.27-1.24s0-.05,0-.07v-4.99c0-.16-.11-.29-.25-.33v-3.41s.24-1.19.24-1.19c0-.02,0-.04,0-.07v-4.99c0-.15-.1-.28-.24-.33v-3.35s.23-1.26.23-1.26c0-.02,0-.04,0-.06v-4.99c0-.16-.1-.29-.25-.33v-3.15s.24-1.45.24-1.45c0-.02,0-.04,0-.06v-4.99c0-.17-.12-.31-.29-.34l-.02-2.72v-.02s0,0,0,0ZM39.33,37.46h-9.64s-.01,0-.02,0l-2.15.11v-4.3l2.12-.11h9.68s0,4.3,0,4.3ZM39.33,47.44h-9.64s-.01,0-.02,0l-2.15.1v-4.29l11.8-.12v4.3ZM39.33,57.42h-9.64s0,0-.01,0l-2.15.09v-4.29l11.8-.11v4.3ZM39.33,67.4h-9.64s0,0-.01,0l-2.15.09v-4.29l11.8-.1v4.3ZM29.7,72.39s0,0-.01,0l-2.16.08v-4.19s9.3-.1,9.3-.1v4.2h-7.12ZM27.16,72.83h0,0s0,0,0,0h0ZM25.05,58.23l1.03.04s0,0,0,0l.75.03v4.19l-.7-.03s0,0,0,0l-1.08-.05v-4.19ZM25.05,48.26l1.79.08v4.18l-1.79-.08v-4.19ZM25.05,38.29l1.79.09v4.17l-1.79-.09v-4.18ZM26.85,37.56l-.7-.04s0,0,0,0l-1.09-.05v-4.3l1.8.09v4.3ZM26.85,43.24v4.3l-.71-.03s0,0,0,0l-1.08-.05v-4.3l1.8.09ZM26.85,53.21v4.3l-1.8-.08v-4.3l1.8.08ZM26.09,63.15s0,0,0,0l.75.03v4.3l-1.8-.07v-4.3l1.04.04ZM25.05,68.2l1.79.07v4.2l-.7-.03s0,0,0,0l-1.08-.04v-4.2ZM29.7,62.41s0,0-.01,0l-2.16.09v-4.18l9.3-.1v4.2h-7.12ZM29.7,52.43s-.01,0-.02,0l-2.16.1v-4.17l9.3-.11v4.19h-7.12ZM29.7,42.45s-.01,0-.02,0l-2.16.1v-4.17l2.01-.1h7.29s0,4.17,0,4.17h-7.12ZM36.82,32.47h-7.12s-.01,0-.02,0l-2.49.13h0s0,0,0,0l-2.13-.11v-4.17l1.79.1v3.94h.69v-3.94l2.12-.11h7.17s0,4.17,0,4.17ZM25.05,73.09l1.05.04s0,0,0,0l.74.03v248.84s-1.8,1.89-1.8,1.89V73.09ZM30.04,324.39v-188.92s7.7.13,7.7.13c0,0,0,0,0,0l1.51.03v188.32s-9.21.45-9.21.45ZM39.33,134.77h-9.64c-.19,0-.34.15-.34.34v188.78s-1.34-1.39-1.34-1.39h0s-.48-.5-.48-.5V74.03s0,0,0,0v-.86l11.8-.09v61.69ZM37.51,72.39v-3.03h1.55l-.02,3.03h-1.53ZM39.13,68.67h-1.62v-.57h1.75s-.13.57-.13.57ZM37.51,62.41v-3.08h1.59v3.08h-1.59ZM39.15,58.64h-1.65v-.53h1.75l-.11.53ZM37.51,52.43v-3.02h1.59v3.02s-1.59,0-1.59,0ZM39.16,48.72h-1.65v-.6h1.76l-.11.6ZM37.51,42.45v-2.82h1.58v2.82s-1.58,0-1.58,0ZM39.14,38.94h-1.63v-.8h1.76l-.14.8ZM37.51,32.47v-2.4h1.52l.02,2.4h-1.54ZM39.08,29.38h-1.57v-1.22h1.77s-.2,1.22-.2,1.22ZM29.81,1.15h9.49s.04,26.32.04,26.32h-9.64s-.01,0-.02,0l-2.14.11-.02-23.78s0,0,0,0v-.22s2.29-2.43,2.29-2.43ZM26.85,27.59l-1.8-.1V1.69s1.77,1.91,1.77,1.91l.03,24ZM21.86,68.18v4.2H2.6v-4.2h19.26ZM2.6,58.21h19.26v4.2H2.6v-4.2ZM2.6,48.24h19.26v4.19H2.6v-4.19ZM2.6,38.27h19.26v4.18H2.6v-4.18ZM2.6,28.3h19.26v4.17H2.6v-4.17ZM3.08,275.98l-.49-.68v-30.47h0v-7.75s0-2.99,0-2.99V73.08h19.62c.19,0,.34-.15.34-.34v-4.99h0c0-.09-.03-.17-.09-.23-.06-.07-.16-.11-.25-.11H2.6v-4.3s19.62,0,19.62,0c.19,0,.34-.15.34-.34v-4.99h0c0-.09-.03-.17-.09-.24-.06-.07-.16-.11-.25-.11H2.59v-4.3h19.62c.19,0,.34-.15.34-.34v-4.99c0-.19-.15-.34-.34-.34H2.59v-4.3h19.62v-.34h.34v-4.99s0,0,0,0c0-.09-.03-.17-.09-.24-.06-.07-.15-.11-.25-.11H2.59v-4.3h19.62c.19,0,.34-.15.34-.34v-4.99c0-.19-.15-.34-.34-.34H2.59v-.56l.02-25.76h21.73s.02,6.16.02,6.16v20.51h0v4.99s0,0,0,0v4.99h0v4.99s0,0,0,0v4.99h0v4.99s0,0,0,0v4.99h0v4.99s0,0,0,0v4.99h0v4.99s0,0,0,0v251.67H3.15s0-48.22,0-48.22c0-.07-.02-.14-.06-.2Z"/>
      <path d="M29.59,325.72c-.29,0-.51-.1-.66-.28l-1.76-2.11-1.88,1.98c-.16.17-.37.25-.59.25H2.8c-.44,0-.81-.36-.81-.81v-48.3s-.4-.55-.4-.55c-.1-.14-.15-.3-.15-.47v-30.35l-.75-1.22-.63-1.71c-.03-.09-.05-.19-.05-.28v-5.37s0-.61,0-.61c0-.08.01-.17.05-.26l.71-1.87.67-1.08V27.96c0-.06,0-.1,0-.14l.03-27.04c.02-.44.37-.78.81-.78h22.4c.23,0,.44.1.59.26l1.89,2.01,1.91-2.02C29.22.09,29.44,0,29.66,0h9.96c.43,0,.78.33.81.76l.02.36.04,6.17v20.67s-.3,1.81-.3,1.81v2.43c.19.15.3.37.3.62v5.13s-.26,1.44-.26,1.44v2.82c.17.15.26.36.26.58v5.13s-.24,1.26-.24,1.26v3.02c.15.15.24.35.24.57l-.02,5.17-.23,1.16v3.07c.16.15.25.36.25.58l-.02,5.16-.27,1.24v2.96c.17.15.29.37.29.62v62.38c0,.12-.03.25-.09.36v188.8c0,.43-.33.78-.76.81l-10.04.64h0ZM3.06,275.15l.41.56c.1.14.15.3.15.47v47.76h20.29V7.31l-.02-5.69H3.08s-.02,25.4-.02,25.4h19.15c.45,0,.81.36.81.81v4.99c0,.45-.36.81-.81.81H3.06v3.38h19.15c.22,0,.43.09.59.25.14.15.22.35.22.55v5.45h-.34v.34H3.06v3.38h19.15c.45,0,.81.36.81.81v4.99c0,.44-.36.81-.81.81H3.06v3.38h19.15c.22,0,.43.09.59.25.14.15.22.35.22.55v4.99c0,.44-.36.81-.81.81H3.06v3.38h19.15c.22,0,.44.09.59.26.14.14.22.34.22.55v4.99c0,.44-.36.81-.81.81H3.06v201.61ZM30.5,135.93v187.97l8.28-.4v-187.43l-8.28-.14ZM28,321.81l.89.93v-187.63c0-.45.36-.81.81-.81h9.17v-60.76s-10.87.09-10.87.09v248.18ZM25.51,73.57v249.16l.87-.92V73.6l-.87-.03ZM2.13,233.3l-.58.93-.62,1.68v5.93s.63,1.66.63,1.66l.57.91v-11.12ZM27.99,68.74v3.25s1.71-.06,1.71-.06h6.66v-3.27l-8.37.09ZM25.51,71.96l.86.03v-3.27l-.86-.04v3.27ZM37.97,71.93h.61v-2.1s-.61,0-.61,0v2.1ZM3.07,71.93h18.33v-3.28H3.07v3.28ZM28,63.66v3.35l1.67-.07h9.21v-3.37l-10.87.09ZM25.51,66.97l.87.04v-3.37h-.31s.01-.48.01-.48l-.02.46-.55-.02v3.37ZM27.99,58.77v3.24l1.71-.07h6.66v-3.26l-8.37.09ZM25.51,61.98l.86.04v-3.27l-.86-.04v3.27ZM37.97,61.94h.65v-2.16s-.65,0-.65,0v2.16ZM3.07,61.94h18.33v-3.27H3.07v3.27ZM28,53.68v3.35l1.66-.07h9.21v-3.37l-10.87.1ZM25.51,56.99l.87.04v-3.37l-.87-.04v3.37ZM29.7,52.44h0s0,0,0,0ZM27.99,48.81v3.23l1.71-.08h6.66v-3.26l-8.37.1ZM25.51,52l.86.04v-3.26l-.86-.04v3.26ZM37.97,51.96h.67v-2.09h-.67v2.09ZM3.07,51.96h18.33v-3.26H3.07v3.26ZM28,43.71v3.34l1.66-.08h9.21v-3.37l-10.87.11ZM25.51,47.01l.87.04v-3.37l-.87-.04v3.37ZM27.99,38.82v3.25l1.71-.08h6.66v-3.25h-6.83s-1.54.09-1.54.09ZM25.51,42.02l.86.04v-3.25l-.86-.04v3.25ZM37.97,41.98h.65v-1.9h-.65v1.9ZM3.07,41.98h18.33v-3.25H3.07v3.25ZM28,33.7v3.37l1.66-.08h9.22v-3.38h-9.22s-1.66.09-1.66.09ZM25.51,37.03l.87.04v-3.37l-.87-.05v3.37ZM27.99,28.85v3.24l1.67-.09h6.7v-3.25h-6.71s-1.66.09-1.66.09ZM25.51,32.04l.86.04v-3.24l-.86-.05v3.24ZM37.97,32h.61v-1.47h-.61v1.47ZM3.07,32h18.33v-3.24H3.07v3.24ZM37.97,28.92h.72l.05-.29h-.76v.29ZM27.98,3.76v.03s.02,23.31.02,23.31l1.66-.09h9.22s-.04-25.4-.04-25.4h-8.82s-2.03,2.15-2.03,2.15ZM25.51,27.05l.87.05-.03-23.32-.86-.91v24.19Z"/>
    </g>
  </g>
</svg>