<?xml version="1.0" encoding="UTF-8"?>
<svg id="Layer_2" data-name="Layer 2" xmlns="http://www.w3.org/2000/svg" viewBox="0 0 337.91 215.46">
  <g id="Layer_1-2" data-name="Layer 1">
    <g>
      <path d="M159.67,114.49l.22.89s.01.04.02.06l.36.88s.02.04.03.05l.51.85s.02.03.03.04l.65.82s.02.02.03.04l.78.78s.02.02.03.03l.84.67h0s1.15.77,1.15.77l1.16.62,1.25.55,1.34.48,1.41.4,1.46.31,1.51.23,1.54.14,1.55.05,1.55-.04,1.54-.13,1.51-.22,1.47-.31,1.41-.39,1.34-.47,1.14-.5,1.29-.68,1.06-.69.17-.13h0s.75-.59.75-.59l-.06-.08s.01-.01.02-.02h0s.07.07.07.07l.79-.77s.02-.02.03-.04l.66-.82s.02-.03.03-.04l.52-.85s.02-.03.03-.05l.38-.88s.01-.04.02-.06l.23-.89s0-.04.01-.06l.08-.9s0-.04,0-.07l-.07-.9s0-.04-.01-.06l-.22-.89s-.01-.04-.02-.06l-.37-.88s-.02-.04-.03-.05l-.51-.85s-.02-.03-.03-.04l-.65-.82s-.02-.02-.03-.04l-.78-.77s-.02-.02-.03-.03l-.94-.75-1.05-.69-1.16-.62-1.25-.55-1.33-.47-1.4-.39-1.46-.31-1.5-.22-1.53-.14-1.55-.05-1.2.03-1.88.14-1.51.22-1.47.31-1.41.39-1.34.47-1.26.55-1.17.62-1.06.69-.92.72s-.02.02-.03.03l-.79.77s-.02.02-.03.03l-.66.81s-.02.03-.03.04l-.52.85s-.03.06-.04.08l-.37.85s-.02.04-.02.06l-.23.89s0,.04-.01.06l-.08.9s0,.04,0,.07l.07.9s0,.04.01.07ZM165.75,108.34l.08.06.24-.33-.24.33,2.41,1.74-3.87-.77.05-.08,1.33-.95ZM163.31,117.33s.05.07.08.1l.4.33v.43s-.6-.95-.6-.95v-.09s.12.18.12.18ZM162.61,117.82l-.03-.04h0s.03.04.03.04ZM164.25,117.09l-.3-.24-.48-.75,3.35-.32-2.58,1.31ZM162.38,115.75v1.23s-.3.03-.3.03l-.1-.17-.32-.76-.02-.07.56-.05-.03-.29h.03s-.01-.11-.01-.11h.25c-.04.06-.06.13-.06.2ZM164.23,110.18l-.09.06v-.09s.09.02.09.02ZM162.51,113.07v-.09s.26-.87.26-.87l3,.6-3.26.36ZM163.33,110.5v.24s-.2-.05-.2-.05l.2-.2ZM161.42,114.53l.07-.78.08-.3.1.02v1.23s.09,0,.09,0v.05s-.09.01-.09.01l.02.14-.25.02-.03-.4ZM168.55,119.6l-1.05-.43,2.72-1.31-1.17,1.87-.49-.13ZM166.92,120.54v-.74s1.35.55,1.35.55l.56.25v.8s-.33-.09-.33-.09l-1.59-.77ZM173.01,122.2v-.82s2.06.2,2.06.2c.01,0,.03,0,.04,0,0,0,.02,0,.02,0l.37-.02v.78s-1.49-.05-1.49-.05l-1-.09ZM173.31,120.59l1.41-2.19.66,2.35-.27.02-1.81-.18ZM179.75,120.44l-.58-2.23,2.48,1.8-1.9.42ZM181.4,121.65l-1.42.3-.11.02v-.72s2.14-.48,2.14-.48c.02,0,.05-.01.07-.02h.02s0,.71,0,.71l-.69.19ZM184.05,120.82l-1.15.41v-1.09c0-.13-.06-.25-.17-.33l-4-2.9c-.14-.1-.32-.1-.47,0-.14.1-.21.27-.16.44l.95,3.65v1.11s-.54.08-.54.08l-1.49.13-.71.02v-1.18s0-.07-.02-.11l-1.04-3.69c-.04-.15-.17-.27-.33-.29-.16-.02-.31.05-.4.18l-2.26,3.5c-.04.07-.06.14-.06.22v1.17s-1.14-.16-1.14-.16l-1.41-.3h-.01s0-1.18,0-1.18l2.13-3.4h0s0,0,0,0h0c.04-.07.06-.15.06-.22v-.15s0,0,0,0c0-.1-.03-.2-.1-.27-.12-.13-.32-.17-.48-.09l-4.92,2.51s-.04.03-.06.04c0,0-.02.01-.03.02-.03.03-.05.05-.07.09,0,0,0,0,0,0-.02.03-.03.06-.04.1,0,.01,0,.02,0,.04,0,.02,0,.05,0,.07v1.2s-.29-.13-.29-.13l-1.1-.59-.33-.22h.22s0-.3,0-.3h0v-1.35s4.62-2.3,4.62-2.3l-.02-.05.08-.04-.09-.18.19.12.06-.09c.1-.15.08-.35-.05-.49-.12-.13-.32-.17-.48-.09l-.14.07-6.04.58c-.06,0-.12.03-.17.06v-.16h0v-.53s.2-.71.2-.71l5.67-.54c.21-.02.37-.2.37-.41v-.24c0-.19-.14-.35-.33-.39l-4.27-.85.18-.24,1.19-.85,3.95.89s.06,0,.09,0c.11,0,.22-.05.3-.13h0s.1-.11.1-.11l-.02-.02.1-.25h0s0,0,0,0h.03s0-.14,0-.14h0s0-.03,0-.04c-.01-.11-.07-.22-.17-.29l-3.12-2.26.29-.13,1.15.83c.07.05.15.08.24.08.05,0,.11-.01.16-.03l.65-.28.94-.21,1.99,1.44c.07.05.15.08.24.08.04,0,.07,0,.11-.01l.2-.06s.02-.01.03-.01c0,0,.02,0,.03,0,.02,0,.03-.02.05-.03.02-.01.04-.02.05-.04.02-.02.04-.04.06-.07.01-.02.02-.03.03-.05.02-.03.02-.06.03-.1,0-.02.01-.03.01-.04,0-.05,0-.1,0-.15l-.72-2.77.47-.07,1.39-.12h.35s.28,1.03.28,1.03c.05.18.21.3.39.3,0,0,.02,0,.02,0h.2s.43,1.5.43,1.5c.05.18.21.29.39.29.04,0,.07,0,.11-.01.05-.01.09-.04.13-.06h0s.17-.12.17-.12h0s.07-.06.1-.1h0s0,0,0,0h0s0,0,0,0l.92-1.36.96.09s.03,0,.04,0c.14,0,.26-.07.34-.18l.66-1.03,1.38.27.08.02-1.7,2.52c-.05.07-.06.15-.06.23h0v.15c0,.15.08.28.21.35l.13.07h0c.06.03.13.05.19.05.06,0,.12-.01.17-.04l2.78-1.33,1.78.86s.09.03.14.03l-2.79,1.31c-.08.04-.14.1-.18.18l-.04.07.36.19.03.4,4.86-.4.09.08.69,1.08-4.71.56-.34-.08c-.12-.03-.25,0-.34.08-.1.08-.15.19-.15.32v.15h.37l-.06.25h.03s-.03.15-.03.15l5.59,1.3v1.28h.4-.4s0,.29,0,.29h.34s-.02.1-.02.1h.06s-.06.29-.06.29l.23.05-.04.07-.58.72-.18.18-.23-.05v-1.27s0-.05,0-.07c.01-.07,0-.14-.02-.21-.05-.13-.16-.23-.29-.26l-5.98-1.31c-.14-.03-.28.01-.38.11s-.14.25-.1.38l.03.13c.02.09.08.17.15.22l3.8,2.8v1.39s0,.05,0,.05l-.84.37ZM171.41,106.13l.06.24h0s.58,2.33.58,2.33l-2.8-2.03.12-.08,2.04-.45ZM169.05,107.57l-.13.05v-.19s.17.13.17.13c-.02,0-.03,0-.05.01ZM168.93,106.92h0s.09-.12.09-.12h0s-.09.12-.09.12ZM176.49,105.93l-.02-.19,1.49.22-1.22,1.89-.24-1.93ZM178.32,106.99v.12s-.08,0-.08,0l.08-.11ZM185.7,118.87l1.18-.75v.55s-.14.19-.14.19l-1.03.75v-.73ZM185.29,118.15l-2.19-1.59,3.37.74-1.18.85ZM187.01,119.15l.08.06-.03.02-.06-.08ZM185.25,108.6h0s0,0,0,0h0ZM184.44,108.29v.6s-.62-.3-.62-.3l.62-.3ZM189.07,115.25l.61-.06v.16s-.21.77-.21.77l-.19.44-.29-.06v-1.22l.02-.08h.06v.04ZM187.03,109.78l.12.1.56.8-3.25.31,2.57-1.21ZM188.04,111.59v.07s-.04-.06-.04-.06h.04ZM188.48,113.57l-.19,1.03-2.86-.67,3.05-.36ZM189.44,114.4v-.94h0s0-.04,0-.07v-.04s.13-.01.13-.01l.11.46.04.57-.28.03ZM188.85,112.31v-.58s.32.53.32.53h0s-.32.04-.32.04ZM180.8,109.15l1.37-2.12h0s0,0,0,0h0s.08-.12.08-.12l.29.08,1.38.67-3.12,1.5ZM160.47,112.74l.22-.9.36-.82.49-.8.63-.78.76-.74.87-.69,1-.65,1.05-.56,1.26-.56,1.29-.45,1.36-.38,1.23-.26,1.64-.25,1.49-.13,1.5-.04,1.5.05,1.49.13,1.45.22,1.41.3,1.35.38,1.28.45,1.19.52,1.1.59.99.65.89.71.75.74.62.78.48.8.34.82.2.83.07.83-.07.83-.18.71.04-.48s0-.04,0-.07l-.07-.84s0-.04-.01-.07l-.2-.82s-.01-.05-.02-.08l-.34-.82s-.02-.04-.03-.05l-.48-.79s-.02-.03-.03-.04l-.61-.76s-.02-.02-.03-.03l-.73-.72s-.02-.02-.03-.03l-.88-.7-.98-.64-.85-.46v-.04c0-.14-.07-.27-.19-.34-.01,0-.03-.01-.04-.02h0s-2.17-1.05-2.17-1.05c-.02-.01-.05-.02-.07-.03l-.61-.16c-.17-.04-.34.02-.44.17h0s0,0,0,0h0s0,0,0,0l-.08.12-.36-.1-1.37-.29-.8-.12v-.15s0-.14,0-.14h0c0-.06-.01-.12-.04-.18-.06-.13-.18-.21-.32-.23l-2.72-.26s-.04,0-.06,0l-.75.04h0s-.03,0-.04,0c-.2.03-.34.2-.34.4v.28s-.66.02-.66.02l-1.44.12-.58.08-.07-.27c-.05-.21-.27-.34-.48-.29h0s-2.5.55-2.5.55c-.05.01-.09.03-.13.05l-.69.44c-.11.07-.18.19-.19.33,0,0,0,0,0,.01h0v.13s-.72.26-.72.26l-1.18.51-.11.06-.12-.08-.24.33-.24-.33-1.64,1.17s-.08.07-.11.12l-.27.45-.23.18s-.02.02-.03.03l-.74.72s-.02.02-.03.03l-.62.76s-.02.03-.03.04l-.49.79s-.02.03-.03.05l-.36.82s-.02.04-.02.06l-.22.83s0,.04-.01.06l-.08.84s0,.04,0,.07l.05.61-.2-.82-.06-.84.07-.76Z"/>
      <path d="M118.45,176.49l-.11-.48s0-.04-.02-.05l-.18-.49s-.01-.03-.02-.05l-.25-.46s-.02-.03-.03-.05l-.3-.4s-.03-.03-.04-.05l-.32-.32s-.04-.04-.06-.05l-.33-.21s-.07-.04-.1-.05l-.31-.09c-.05-.02-.11-.02-.17-.01l-.27.03c-.07,0-.13.03-.19.07l-.22.16s-.09.08-.12.14l-.14.27s-.03.08-.04.12l-.06.37s0,.06,0,.09l.02.44s0,.05,0,.07l.11.48s0,.04.02.05l.18.49s.01.03.02.05l.25.46s.02.03.03.05l.3.4s.03.03.04.05l.32.32s.04.04.06.05l.33.21s.07.04.1.05l.31.09s.08.02.12.02c.02,0,.03,0,.05,0l.27-.03c.07,0,.13-.03.19-.07l.22-.16s.09-.08.12-.14l.14-.27s.04-.08.04-.12l.06-.37s0-.06,0-.09l-.02-.44s0-.04,0-.07ZM117.63,177.25l-.07.13-.05.04h-.08s-.17-.04-.17-.04l-.17-.11-.34-.32-.26-.36-.22-.41-.17-.43-.09-.41-.02-.36.04-.26.07-.13.05-.04h.08s.17.04.17.04l.2.13h0s0,.05,0,.07l.11.48s0,.04.02.05l.18.49s.01.03.02.05l.25.46s.02.03.03.05l.3.4s.03.03.04.05l.11.11v.06s-.04.26-.04.26Z"/>
      <path d="M158.01,205.63l-.11-.48s0-.04-.02-.06l-.18-.49s-.01-.03-.02-.05l-.25-.46s-.02-.03-.03-.05l-.3-.41s-.03-.03-.04-.05l-.33-.32s-.04-.04-.06-.05l-.33-.22s-.07-.04-.1-.05l-.31-.1c-.05-.02-.11-.02-.16-.02l-.28.03c-.07,0-.13.03-.19.07l-.22.16c-.05.04-.09.08-.12.14l-.15.27s-.03.08-.04.12l-.06.37s0,.06,0,.09l.02.44s0,.05,0,.07l.11.48s0,.04.02.05l.18.49s.01.03.02.05l.25.46s.02.03.03.05l.3.41s.03.03.04.05l.33.32s.04.04.06.05l.33.22s.07.04.1.05l.31.1s.08.02.12.02c.01,0,.03,0,.04,0l.28-.03c.07,0,.13-.03.19-.07l.22-.16c.05-.04.09-.08.12-.14l.15-.27s.03-.08.04-.12l.06-.37s0-.06,0-.09l-.02-.44s0-.05,0-.07ZM157.18,206.39l-.07.13-.06.04h-.09s-.18-.05-.18-.05l-.18-.12-.35-.32-.26-.36-.22-.41-.17-.44-.09-.42-.02-.36.04-.26.07-.13.06-.04h.09s.18.04.18.04l.19.12h0s0,.05,0,.07l.11.48s0,.04.02.05l.18.49s.01.03.02.05l.25.46s.02.03.03.05l.3.41s.03.03.04.05l.14.14v.05s-.04.26-.04.26Z"/>
      <path d="M20.45,104.34s0-.04,0-.04c0-.02,0-.04-.01-.06l-.12-.43s-.01-.03-.02-.05l-.18-.43s-.01-.03-.02-.05l-.24-.4s-.02-.03-.03-.05l-.27-.34s-.03-.03-.05-.05l-.29-.26s-.05-.04-.07-.05l-.29-.16s-.08-.04-.13-.04l-.26-.04c-.06,0-.12,0-.19.01l-.22.07.12.39-.29-.28-.17.18s-.08.11-.1.16l-.09.25s-.02.07-.02.11l-.03.35s0,.05,0,.08l.05.41s0,.04.01.06l.12.43s.01.03.02.05l.18.43s.01.03.02.05l.24.4s.02.03.03.05l.27.34s.03.03.05.05l.29.26s.05.04.07.05l.29.16s.08.04.12.04l.26.05s.05,0,.07,0c.04,0,.08,0,.12-.02l.22-.07-.12-.39.29.28.17-.18s.07-.09.09-.14l.1-.27s.02-.08.02-.11l.03-.35s0-.05,0-.08l-.04-.37ZM19.44,105.19l-.19-.1-.23-.2-.23-.29-.21-.35-.16-.38-.1-.38-.04-.34.02-.26.05-.14.04-.04h.03s.1,0,.1,0l.19.1.23.2h0s.11.41.11.41c0,.02.01.03.02.05l.18.43s.02.05.03.06l.23.38s.02.03.03.05l.11.14.03.21-.02.26-.05.14-.04.04h-.03s-.1,0-.1,0Z"/>
      <path d="M337.74,128.36l-1.09-.78.11-9.14c0-.13-.06-.26-.17-.33h0s-1.17-.83-1.17-.83c-.12-.09-.28-.1-.41-.03l-1.35.66-.74-.53c-.12-.09-.28-.1-.41-.03l-.66.32-16.08-11.47c-.12-.09-.28-.1-.41-.03l-1.38.67c-.14.07-.23.21-.23.36v.2s-11.64-8.3-11.64-8.3l.02-2.4c0-.13-.06-.26-.17-.33l-11.47-8.18c-.08-.06-.19-.08-.29-.07l-3.46.45s-.08.02-.12.04l-.74.36-13.2-9.42c-.12-.09-.28-.1-.42-.03-.13.07-.22.21-.22.36v.98s-25.13-17.94-25.13-17.94v-1.55c0-.13-.06-.25-.16-.33l-11.83-8.44v-.92c0-.08-.02-.15-.06-.22l-3.38-5.31s-.06-.08-.11-.11l-2.42-1.73,58.67-28.01,30.79-.92c.06,0,.11-.02.16-.04h0s1.11-.53,1.11-.53c.18-.09.27-.3.21-.49l-4.71-14c-.06-.17-.21-.28-.4-.27l-137.61,4.45-.94-.67c-.12-.08-.28-.1-.41-.04l-1.39.66c-.08-.01-.17,0-.24.03L5.8,84.01c-.08.04-.14.1-.18.17l-2.37,1.12c-.14.07-.23.21-.23.37v.5s-1.5.03-1.5.03c-.06,0-.11.01-.17.04l-1.13.53c-.19.09-.28.3-.21.5l2.71,7.86c-.07.08-.11.17-.11.28l.02,1.45h.4s-.24.32-.24.32l.85.62,1,2.91c.03.07.07.14.14.19l1.59,1.22c.07.05.16.08.25.08h0l2.93-.05,4.58,3.38v.66c.01.13.07.24.17.32l136.61,100.73c.07.05.15.08.24.08.06,0,.12-.01.18-.04l.49-.24,11.28,8.32c.07.05.16.08.24.08.06,0,.12-.01.18-.04h0s0,0,0,0c0,0,0,0,0,0l174.14-84.91c.14-.07.22-.21.23-.36l.02-1.45c0-.13-.06-.26-.17-.33ZM336.72,128.62l-.09.04s0-.03,0-.05v-.05s.08.06.08.06ZM161.19,204.21l-18.32-13.49.59-.29,17.73,13.05v.73ZM163.12,199.75c-.11.06-.2.16-.22.29l-.2,1.05-1.29.63c-.14.07-.23.21-.23.36v.39s-17.44-12.84-17.44-12.84c-.12-.09-.28-.1-.42-.04l-.35.17-12.79-9.41v-.49c0-.13-.06-.25-.17-.32l-11.4-8.39c-.08-.06-.18-.09-.29-.08l-.65.08-8.57-6.31.32.18s.05.02.07.03l25.77,8.29s.04.01.07.02l28.58,4.03s.04,0,.06,0h0l29.39-.52s.04,0,.06,0l26.38-4.71-56.71,27.59ZM141.69,190.74l-11.48-8.46v-.93s11.96,8.81,11.96,8.81l-.24.12c-.14.07-.23.21-.23.36v.1ZM61.94,131.1l15.39,11.33.04,4.12-13.88-10.23-.03-2.71c0-.07-.02-.15-.06-.21l-1.45-2.3ZM103.62,161.79h0s-.15,0-.15,0h0s.15,0,.15,0ZM103.12,164.91l-24.95-18.38-.04-3.65,1.31,1.69s.02.02.03.04l5.35,5.42s.02.02.03.03l6.27,5.11,7.09,4.72,4.89,2.67.02,2.35ZM77.77,146.74l-.05.07-.09-.07h.15ZM103.94,165.71l-.03-3.71,2.44,1.8,10.17,7.49-1.57.19s-.09.02-.13.04l-1.41.68c-.14.07-.23.21-.23.37v.38s-9.39-6.92-9.39-6.92c.09-.08.15-.19.14-.31ZM98.52,159.13h0s.05-.09.05-.09l-.05.09ZM67.97,107.21s0,.04-.01.06l-.67,6.23s0,.03,0,.05v.61s.38,6.25.38,6.25c0,.02,0,.04,0,.07l1.41,6.2s.01.04.02.06l2.43,6.09s.02.04.03.05l3.44,5.93s.02.03.03.04l.5.65-1.85-1.8-8.01-16.41-.39-12.71,3.48-8.29,1.24-.02-.31.7s-.02.04-.02.06l-1.7,6.16ZM64.37,104.08c-.02.05-.03.11-.03.17l.13,4.29s0,0,0,0l.4,12.88c0,.06.02.11.04.16l8.08,16.55s.05.08.08.11l.21.21-12.52-9.22-.77-1.22s-.06-.08-.1-.11l-10.1-7.44c-.12-.09-.28-.1-.41-.04l-.35.17-12.5-9.2v-.49c0-.13-.07-.24-.17-.32l-12.93-9.52,42.51-.7-1.56,3.72ZM47.73,121.55l-11.19-8.24v-.91s11.65,8.59,11.65,8.59l-.23.11c-.14.07-.23.21-.23.37v.08ZM22.09,101.08l13.24,9.75-.58.27-13.59-10.01.93-.02ZM35.13,113.55l-.02-1.73.6-.29.02,1.73-.6.29ZM36.1,113.99l11.65,8.58v.71s-12.22-9.01-12.22-9.01l.58-.28ZM49.5,121.26l9.84,7.25,3.12,4.94-.67.32-3.21-5.09s-.06-.08-.1-.11l-9.56-7.04.58-.28ZM62.07,136.56l-.02-2.02.6-.29.02,2.02-.6.29ZM63.03,137l50.16,36.95v.72s-50.74-37.4-50.74-37.4l.58-.28ZM118.28,171.89l10.73,7.9-.59.29-10.98-8.08.84-.1ZM128.79,182.53v-1.73s.6-.29.6-.29v1.73s-.6.29-.6.29ZM129.76,182.96l11.93,8.79v.72s-12.52-9.23-12.52-9.23l.59-.29ZM335.15,118.07l.42.3-172.78,84.09-.42-.31,63.42-30.86,33.12-16.12h0s76.24-37.1,76.24-37.1ZM332.65,118.17l.12.08-73.96,35.99-33.77,16.43-60.84,29.6-.13-.09,56.25-27.37,42.16-20.51,70.16-34.14ZM240.7,57.67l-.1-.06s-.05-.02-.07-.03l-23.8-7.48,8.01-3.82,15.97,11.39ZM215.06,54.06s-.04-.01-.07-.01l-5.07-.7,5.73-2.73,24.59,7.73,5.88,3.23-.02,3.56-5.52-3.04s-.07-.03-.09-.04l-25.42-8ZM225.56,45.88l1.18-.56,2.72,1.94,1.64,2.58-5.54-3.96ZM240.22,62.82l1.45.8-2.82-1.23,1.37.43ZM250.02,67.83l-3.12-2.23v-.1s3.68,2.63,3.68,2.63l-.56-.3ZM301.3,99.03l-.56.27v-1.71s.58-.27.58-.27l-.02,1.71ZM299.94,98.96l-10.69-7.63-.18-.18s-.03-.03-.03-.03c-.02-.02-.04-.03-.06-.05l-.33-.21s-.07-.04-.11-.05h0s-1.44-1.03-1.44-1.03l1.68-.22,11.17,7.97v1.42ZM327.63,119.71l-60.06,29.22,12.84-14.33s.06-.08.08-.12l6.48-16.79-.29-.11v-.04s.32-.02.32-.02l-1.11-17.16c0-.06-.02-.11-.05-.16l-8.56-16.36s-.05-.08-.08-.11l-.1-.09,50.53,36.06ZM314.55,107.96l15.09,10.77-1.16.56-.04-.02s-.07-.04-.1-.05h-.02s-13.79-9.85-13.79-9.85v-1.42ZM276.59,84.29l8.49,16.22.21,3.22-8.05-15.38s-.05-.07-.08-.1l-4.34-4.08.02-3.39,3.74,3.52ZM266.26,79.33l5.76,4.11v.1s-5.36-3.83-5.36-3.83l-.4-.39ZM272.17,84.64l4.4,4.14,8.49,16.22.85,13.21-6.14,15.91-2.81,3.14,2.37-3.97s.02-.03.03-.05l2.53-6.09s.01-.04.02-.06l1.5-6.2s0-.04.01-.07l.47-6.27v-.56s0,0,0,0h0s0-.07,0-.07l-.57-6.24s0-.04-.01-.06l-1.6-6.17s-.01-.04-.02-.06l-2.62-6.04s-.02-.03-.03-.05l-3.6-5.85s-.02-.03-.03-.04l-4.55-5.61s-.02-.02-.03-.03l-.35-.34,1.71,1.22ZM315.49,106.98l15.53,11.08-.55.27-15.53-11.08.55-.27ZM313.74,108.36v.44s-12.44-8.88-12.44-8.88l.37-.18,12.07,8.61ZM300.94,96.6l-.55.26-11.01-7.86.77-.1,10.79,7.69ZM272.03,81.81v.65s-25.13-17.94-25.13-17.94v-.64s25.13,17.94,25.13,17.94ZM230.84,46.6l3.1,4.86-.33.16-.75-.53-2.76-4.33s-.06-.08-.11-.11l-2.42-1.73.54-.26,2.72,1.94ZM319.01,14.19l-.38.18-4.11-12.21c-.04-.11-.12-.2-.23-.24-.11-.04-.23-.04-.33,0l-.35.17s0,0,0,0l-108.92,51.99.08.18h0s-.08-.18-.08-.18l-64.77,30.92c-.18.09-.27.3-.21.49l4.25,12.44-.41.2-4.57-13.38,63.53-30.32L314.56.96l4.45,13.22ZM81.15,85.22l-67.65,1.28L184.82,5.46l-.17-.37v-.08S312.88.87,312.88.87l-110.71,52.83-63.78,30.44-57.24,1.08h0ZM3.44,86.68v-.11s.4,0,.4,0v-.09s.26.19.26.19h-.66ZM6,84.9l.43.31-.6.29c-.13.06-.22.18-.23.33-.01.11.03.22.1.31l-.94.02-.55-.4,1.79-.85ZM177.93,7.83L12.66,86l-3.71.07-.96-.7L175.57,6.15l2.36,1.68ZM7.62,86.09h-.62s-.23-.15-.23-.15l.39-.18.46.34ZM4.62,86.55v.11s-.08,0-.08,0l.08-.11ZM175.96,4.57l.98.7.12-.17v.16s.64-.02.64-.02l.02.48,5-.16-3.76,1.78-2.92-2.08c-.11-.08-.25-.09-.38-.05l-.42-.3.72-.34ZM174.33,5.26l.49.35L7.26,84.82l-.5-.37L174.33,5.26ZM5.38,100.34l-4.41-12.8,80.2-1.51v-.4s0,.4,0,.4l57.03-1.08,4.56,13.34h-.54s-.16-.47-.16-.47c-.01-.03-.03-.06-.05-.09,0-.03,0-.06-.01-.08l-.23-.68c-.02-.06-.05-.1-.09-.15,0-.03-.01-.06-.03-.09l-.37-.68s-.04-.06-.07-.09c0-.03-.01-.06-.02-.08l-.46-.84s-.02-.03-.03-.04l-.5-.69c-.07-.1-.19-.16-.31-.17l-.37-.52s0-.01,0-.02c.02-.13-.01-.26-.1-.35l-.63-.67s-.06-.04-.09-.06c-.02-.04-.04-.08-.07-.11l-.44-.47s-.03-.03-.05-.04l-.26-.2s-.08-.05-.13-.07c-.02-.04-.05-.07-.09-.1l-.85-.66c-.07-.06-.16-.09-.26-.09h-.37s.03-.06.03-.06l-.91-.44.02-.11-1.21-.2c-.05,0-.1,0-.15,0l-1.06.24s-.06.02-.09.03l-.14.07s-.05.03-.07.04l-.61.47s-.07.06-.09.1l-.09.04c-.07.03-.14.09-.18.17l-.39.68s-.03.06-.04.1c-.02.02-.04.05-.06.07l-.12.21s-.03.07-.04.11l-.11.48s0,.06,0,.09c-.01.03-.03.05-.04.08l-.17.69s0,.08,0,.12c-.02.04-.03.09-.03.13l-.02.69s0,.05.01.07c0,.03-.02.07-.02.1l-.02.57c0,.06.01.12.04.18-.02.07-.02.15,0,.22l.15.56c-.04.07-.05.16-.04.24l.09.68s.02.05.03.08c0,.06,0,.11.02.17l.23.68s.03.06.05.09c0,.03,0,.06.01.08l.06.16-59.28.97v.81s71.4-1.17,71.4-1.17c.06,0,.12-.01.17-.04l1.14-.55c.18-.09.27-.3.21-.49l-3.99-11.69,65.58-31.31-.25-.53h0s.25.53.25.53l1.87-.89,8.54,1.8,9.46,2.64,8.98,3.17,8.42,3.67,7.77,4.13,7.05,4.56,6.28,4.96,5.42,5.29,4.52,5.57,3.57,5.81,2.59,5.98,1.59,6.11.57,6.16-.46,6.19-1.49,6.13-2.51,6.03-3.51,5.87-4.47,5.65-5.4,5.37-2.78,2.23-.32.15-37.9,18.44-2.81,1.03-28.07,5.02-29.33.52-28.51-4.02-25.7-8.26-6.11-3.45c-.13-.07-.28-.07-.4,0-.08.05-.14.12-.17.21l-4.36-2.38h0s-7.16-4.75-7.16-4.75l-6.22-5.08-5.32-5.39-4.39-5.66-3.41-5.88-2.41-6.04-1.39-6.14-.36-6.18.66-6.17,1.68-6.1.46-1.02,1.04-.02v-.81s-3.45.06-3.45.06h0l-1.95.03s0,0,0,0l-52.79.87v.4s-.32-.24-.32-.24l-.56.73-6.11.1-1.38-1.06ZM139.98,95.73l.02.03-1.51.02,1.49-.05ZM14.95,105.56l135.8,100.12v.45S14.96,105.99,14.96,105.99v-.44ZM152.27,206.38v-1.26h0c0-.13-.06-.25-.16-.32L15.48,104.09l-.24.33-.17-.36-.7.33c-.08.04-.14.1-.18.18l-3.29-2.42,2.19-.04c.06,0,.11-.01.16-.04l.48-.23-.1-.21.32-.42,5.87-.1,14.48,10.66.03,2.41h0c0,.13.06.24.16.32l13.43,9.89.24-.32h.4s-.02-1.81-.02-1.81l9.39,6.91,3.3,5.23.03,2.79h0c0,.13.06.25.16.32l51.93,38.27.24-.32h.4s-.02-2.56-.02-2.56l2.88-.34,11.11,8.18v2.42s.02,0,.02,0c0,.13.06.25.16.32l13.71,10.1.24-.32h.4s0-1.83,0-1.83l18.86,13.88c.07.05.15.08.24.08.06,0,.13-.01.18-.04.14-.07.22-.21.22-.36v-2.12s.34.26.34.26l.02,10.03c0,.13.06.25.17.32h0s.41.31.41.31v.46l-4.33-3.19-6.34-4.67ZM163.75,214.41v-.56l173.34-84.51v.55s-173.34,84.52-173.34,84.52Z"/>
      <path d="M26.61,91.49c.06.16.21.27.38.27h0l9.6-.17c.13,0,.25-.07.32-.17.07-.11.09-.24.05-.36l-.97-2.82,44.02-.82,25.17-.47,1.07,3.11h0c.06.16.2.27.38.27h0l9.86-.18c.13,0,.25-.07.32-.17s.09-.24.05-.36l-1.16-3.4c-.06-.17-.21-.27-.39-.27l-35.33.66-54.17,1.01c-.13,0-.25.07-.32.17-.07.11-.09.24-.05.36l1.15,3.34ZM107.82,88.24l1.6-.03-1.4.61-.2-.59ZM107.28,89.17l-.41.19-.83-2.44h.47s.77,2.24.77,2.24ZM108.54,89.48l1.38-.61,1.88-.7,3.71-.07.43,1.24-7.4.13ZM115.24,87.3l-7.7.14-.19-.54,7.7-.14.19.55ZM28.3,89.71l1.42-.03-1.36.59-.18-.51.11-.05ZM36.03,90.79l-7.12.13,1.34-.59,1.85-.69,3.5-.06.42,1.22ZM35.34,88.77l-7.44.14-.18-.53,7.44-.14.18.53ZM26.87,88.4l.76,2.21-.4.19-.82-2.39h.46Z"/>
    </g>
  </g>
</svg>