<?xml version="1.0" encoding="UTF-8"?>
<svg id="Layer_2" data-name="Layer 2" xmlns="http://www.w3.org/2000/svg" viewBox="0 0 360.32 410.55">
  <g id="Layer_1-2" data-name="Layer 1">
    <g>
      <path d="M44.31,113.67l-3.15,3.15c-.09.09-.14.21-.14.34l.02,54.02s0,0,0,0l2.7,185.39c0,.12.05.24.14.33l3.15,3.15c.09.09.21.14.33.14h268.21c.13,0,.25-.05.33-.14l3.15-3.15c.09-.09.14-.21.14-.33l.1-239.41c0-.13-.05-.25-.14-.34l-3.15-3.15c-.09-.09-.21-.14-.33-.14H44.65c-.13,0-.25.05-.33.14ZM315.39,114.52l2.87,2.87-.1,238.84-2.87,2.87H47.66s-2.87-2.87-2.87-2.87l-.47-32.1-2.25-197.81v-8.93s2.87-2.87,2.87-2.87h270.45Z"/>
      <path d="M359.5,36.06l.65-.52c.11-.09.17-.22.17-.37v-15.12c0-.13-.04-.26-.13-.35s-.22-.13-.32-.13h-31.05V7.8s0-.07-.02-.11l-.54-2.8c-.02-.06-.04-.11-.09-.17l-1.58-2.36s-.06-.09-.13-.13l-2.36-1.58s-.11-.07-.17-.09l-2.8-.54s-.07-.02-.09-.02H9.19s-.04,0-.09.02l-3.34.65c-.06.02-.11.04-.17.09l-2.84,1.89s-.09.09-.13.13l-1.89,2.84s-.06.11-.06.17l-.67,3.34v.09l.02,25.96c0,.15.06.28.17.39l.63.5s.09.07.13.07l.02,4.9h-.48c-.13,0-.26.04-.35.13-.09.09-.13.22-.13.35v6.31c0,.15.06.28.19.37l.15.13h.02l.46.35s.09.04.13.07v4.92h-.48c-.13,0-.26.04-.35.13-.09.09-.13.22-.13.35v6.31c0,.15.09.3.22.39l.63.41s.07.04.11.06v4.96h-.48c-.26,0-.48.22-.48.48v6.31c0,.17.11.33.24.41l.65.37s.04.02.07.04v5.01h-.48c-.11,0-.24.04-.32.13-.09.11-.13.22-.13.35v6.31c0,.17.09.35.26.41l.63.33s.04.02.06.04v5.05h-.48c-.26,0-.48.22-.48.48l.04,78.81c0,.24.2.45.46.45l.17.02.13,236.16v1.86c0,.22.15.41.35.45l.95.24s.06.02.11.02l7.89.37,3.1.22h333.84l3.12-.22,7.89-.37s.06,0,.09-.02l.95-.24c.22-.04.37-.24.37-.45l.11-238.03.2-.02c.24,0,.46-.22.46-.45l.04-78.81c0-.26-.22-.48-.48-.48h-.48v-5.05s.04-.02.07-.04l.63-.33c.15-.06.26-.24.26-.41v-6.31c0-.26-.22-.48-.48-.48h-.48v-5.01s.07-.02.09-.04l.63-.37c.15-.09.24-.24.24-.41v-6.31c0-.26-.22-.48-.48-.48h-.48v-4.96s.09-.04.11-.06l.65-.41c.13-.09.19-.24.19-.39l.02-6.31c0-.26-.22-.48-.48-.48h-.48v-4.92s.09-.04.11-.07l.65-.48c.11-.09.19-.22.19-.37v-6.31c0-.13-.04-.26-.15-.35-.09-.09-.19-.13-.32-.13h-.48v-4.9s.11-.04.13-.07ZM12.26,409.53l-2.06-.15h-.02l-.33-.02-8.06-.54-.13-237.57,10.6-.02v238.31ZM358.55,408.82l-.54.02-7.37.52-2.99-238.14,11.03.02-.13,237.57ZM314.6,34.71c-.2,0-.35.09-.43.26-.09.15-.07.35.04.5l4.72,6.31c.09.11.24.17.39.17h40.04v5.37h-37.01c-.15,0-.28.07-.37.17-.09.13-.13.28-.09.43l1.82,6.31c.07.2.24.35.46.35h35.19v5.35h-34.32c-.26,0-.48.22-.48.48v6.31c0,.26.22.48.48.48h34.32l-.02,5.35h-35.1c-.22,0-.39.13-.46.35l-1.89,6.31c-.04.13-.02.28.06.41.09.11.24.19.39.19h36.99v5.35h-40.04c-.15,0-.3.06-.39.19l-4.66,6.31c-.09.15-.11.32-.02.5.07.15.24.26.41.26h44.7l-.04,77.85h-12.13c-.26,0-.48.22-.48.48l2.99,238.68-2.64.17H13.22v-238.4c.24-.02.41-.22.41-.45,0-.28-.22-.48-.48-.48H1.04l-.04-77.85h45.03c.17,0,.33-.11.41-.26.09-.17.06-.37-.04-.5l-4.68-6.31c-.09-.13-.24-.19-.37-.19H.98v-5.35h37.2c.15,0,.3-.09.39-.19s.11-.28.07-.41l-1.8-6.31c-.07-.22-.24-.35-.46-.35H.98v-5.35h34.54c.26,0,.48-.22.48-.48l.04-6.31c0-.13-.04-.26-.13-.35-.09-.09-.22-.13-.33-.13H.98v-5.35h35.45c.22,0,.39-.15.45-.35l1.76-6.33c.04-.13,0-.28-.09-.41-.09-.11-.22-.17-.37-.17H.98l-.02-5.37h40.37c.15,0,.28-.07.37-.2l4.66-6.31c.11-.13.13-.33.04-.48-.09-.17-.24-.26-.43-.26H.95V9.27l.63-3.21,1.78-2.69,2.69-1.8,3.21-.63h311.74l2.64.54,2.21,1.47,1.5,2.21.52,2.67v12.2c0,.26.22.48.48.48h31.05l-.02,14.19h-44.77ZM358.42,36.4v4.62h-1.41v-4.62h1.41ZM356.08,35.77l-.02,5.24h-36.51l-3.9-5.24h40.43ZM358.42,48.95v4.68h-1.41v-4.68h1.41ZM356.05,48.39v5.24h-31.53l-1.49-5.24h33.02ZM358.42,61.49v4.75h-1.41v-4.75h1.41ZM356.05,60.97v5.27h-30.53v-5.27h30.53ZM358.39,74.04v4.81h-1.41v-4.81h1.41ZM356.05,73.59v5.27h-33.07l1.58-5.27h31.48ZM358.39,86.59v4.88h-1.41v-4.88h1.41ZM356.03,86.2v5.27h-40.45l3.9-5.27h36.55ZM1.93,91.46v-4.88h1.41l.02,4.88h-1.43ZM4.29,91.46v-5.27h36.86l3.92,5.27H4.29ZM1.93,78.85v-4.81h1.41v4.81h-1.41ZM4.29,78.85v-5.27h31.77l1.5,5.27H4.29ZM1.93,66.24v-4.75h1.41v4.75h-1.41ZM4.29,66.24v-5.27h30.79l-.02,5.27H4.29ZM1.91,48.95h1.43v4.68h-1.41l-.02-4.68ZM4.27,53.63v-5.24h33.26l-1.47,5.24H4.27ZM1.91,41.02v-4.62h1.41v4.62h-1.41ZM4.27,41.02v-5.24h40.67l-3.86,5.24H4.27Z"/>
      <polygon points="12.26 171.22 12.26 409.53 10.21 409.38 10.18 409.38 9.86 409.36 1.8 408.82 1.67 171.24 12.26 171.22"/>
      <polygon points="358.68 171.24 358.55 408.82 358 408.84 350.64 409.36 347.65 171.22 358.68 171.24"/>
      <path d="M208.01,369.26c-.06-.14-.18-.25-.33-.28l-1.51-.35s-.07-.01-.11-.01h-49.16s-.07,0-.11.01l-1.51.35c-.15.03-.27.14-.33.28l-.39.96c-.06.14-.04.3.04.43l.83,1.31s.04.06.07.08l23.16,22.78s.06.05.1.07l1.58.9c.07.04.15.06.23.06h1.82c.08,0,.16-.02.23-.06l1.58-.9s.07-.05.1-.07l23.16-22.78s.05-.05.07-.08l.83-1.31c.08-.13.1-.29.04-.43l-.39-.96ZM206.76,371.3l-23.08,22.7-1.41.8h-1.56s-1.4-.8-1.4-.8l-23.07-22.69-.66-1.04.18-.44,1.21-.28h49.06s1.22.28,1.22.28l.18.44-.65,1.02Z"/>
      <path d="M138.21,70.37s.01.05.02.07v.03s.01,0,.01,0h0s0,.01,0,.01l.5,1.21c.02.05.05.1.09.14l1.04,1.11s.08.07.12.09l1.53.82s.08.03.12.04l1.45.33s.07.01.11.01h1.35c.11,0,.21-.04.3-.11l.56-.45.15-.05v.44h.01v.03h3.83c.15,0,.29-.07.38-.19.06-.08.09-.18.09-.28h0v-12.69h-.01v-.04h-.32l.32-.08v-.04c-.06-.21-.25-.35-.47-.35h-3.83c-.13,0-.25.05-.34.14-.09.09-.14.21-.14.34l.02,3.41-.13.2-.11.06s0,0-.01,0l-1.55-.37c-.07-.02-.14-.02-.21,0l-1.45.33s-.08.02-.12.04l-1.53.82s-.09.06-.12.09l-1.04,1.11s-.07.09-.09.14l-.5,1.21s-.03.08-.03.12l-.17,1.32c0,.05,0,.11,0,.16l.17.84ZM145.32,65.98c.15.1.33.11.49.02.15-.08.25-.24.25-.42l-.03-4.21h2.88v11.75s-2.88,0-2.88,0v-.21c0-.18-.1-.35-.27-.43-.09-.04-.18-.05-.27-.04l.28-.41s.05-.08.06-.13l.15-.48s.02-.08.02-.12l.03-1.04s0,0,0-.01v-2.13s0-.05,0-.07l-.14-.86-.41.06.37-.17v-.02s0,0,0,0l-.32-.69s-.05-.08-.08-.12l-.42-.45.28.19ZM144.54,65.46l.13.09-.24-.11.11.03ZM144.71,66.86l.26.55.12.74v1.68s-.03,1.37-.03,1.37l-.11.35-.22.32-.33.24-.29.09h-.32s-.29-.09-.29-.09l-.32-.23-.22-.32-.1-.34-.12-1.82.11-1.18.13-.84.26-.55.35-.38.26-.12h.26s.26.13.26.13l.35.38ZM139.13,68.24l.44-1.08.93-.99,1.4-.75,1.29-.3.98.24h-.44c-.07,0-.14.01-.2.04l-.44.2c-.06.03-.11.06-.15.11l-.46.5s-.06.08-.08.12l-.32.68s-.03.08-.04.13l-.14.89s0,.02,0,.03l-.12,1.26s0,.05,0,.07l.08,1.4s0,.01,0,.02l.05.53s0,.06.02.09l.15.48h0s0,0,0,0l.44-.14-.38.27.31.44s.07.08.11.11l.45.33s.09.05.14.07l.43.13s.09.02.14.02h.46s.1-.01.14-.03l.32-.1-.28.23h-1.12s-1.33-.3-1.33-.3l-1.41-.75-.93-.99-.45-1.09-.15-.72.15-1.17Z"/>
      <path d="M257.86,66.94c.01.06.04.11.07.16l1.08,1.6c.04.06.1.12.17.15l1.52.81c.07.04.15.06.22.06,0,0,.02,0,.03,0l1.72-.1c.08,0,.15-.03.22-.07l1.65-1c.05-.03.09-.07.13-.12l1.34-1.75s.05-.08.07-.12l.82-2.23s.02-.08.03-.13l.18-2.37s0-.09-.01-.14l-.49-2.15c-.01-.06-.04-.11-.07-.16l-1.08-1.6c-.04-.06-.1-.12-.17-.15l-1.52-.81c-.08-.04-.16-.06-.25-.06l-1.72.1c-.08,0-.15.03-.22.07l-1.65,1c-.05.03-.09.07-.13.12l-1.34,1.75s-.05.08-.07.13l-.82,2.23s-.02.08-.03.13l-.18,2.37s0,.09.01.14l.49,2.15ZM258.48,62.42l.77-2.09,1.22-1.59,1.48-.89,1.46-.09,1.29.69.97,1.43.45,1.99-.17,2.22-.78,2.11-1.22,1.59-1.48.9-1.46.09-1.29-.69-.97-1.43-.45-1.99.17-2.23Z"/>
      <path d="M73.06,73.86l.03.03.3-.3v.41h.03v.03h3.96c.13,0,.25-.05.34-.14.09-.09.14-.21.14-.34v-7.07s4.66,7.29,4.66,7.29c.02.02.03.05.05.07l.03.03.32-.29v.41h.03v.03h3.96c.13,0,.25-.05.34-.14.09-.09.14-.21.14-.34v-12.67c0-.11-.04-.21-.11-.3l-.03-.04c-.09-.11-.23-.18-.37-.18h-3.97c-.26,0-.47.21-.47.47v7.19s-4.65-7.41-4.65-7.41h0s-.03-.04-.03-.04l-.14.09.12-.11-.03-.04c-.09-.1-.22-.16-.36-.16h-3.97c-.13,0-.25.05-.34.14-.09.09-.14.21-.14.34v12.67c0,.13.06.25.15.34ZM77.09,61.32l5.42,8.63.4-.25h.47v-8.38s3.02,0,3.02,0v11.73s-3.23,0-3.23,0l-5.42-8.49c-.11-.18-.33-.26-.53-.2-.2.06-.34.24-.34.45v8.23s-3.02,0-3.02,0v-11.73s3.23,0,3.23,0Z"/>
      <path d="M150.34,70.74s0,.04.01.06h0s0,.03,0,.03h0s0,.01,0,.02v.03s0,0,0,0l.41.98h0s0,0,0,0h0s.08.19.08.19c0,.02.02.03.03.05,0,0,0,.01,0,.02.01.02.03.04.05.06l1.05,1.14h.01s.07.04.1.06h.02s-.01.03-.01.03l1.53.82s.08.03.12.04l1.45.33s.07.01.11.01h1.55s.07-.01.11-.02l1.45-.34s.08-.02.12-.04l1.53-.83s.09-.06.12-.09l1.04-1.12s.07-.09.09-.14l.5-1.21s.03-.08.03-.12l.17-1.29s0-.09,0-.13l-.17-1.26h0s0,0,0-.01v-.03s-.02-.07-.03-.1l-.5-1.21c-.02-.05-.05-.1-.09-.14l-1.04-1.12s-.08-.07-.12-.09l-1.53-.83s-.08-.03-.12-.04l-1.45-.35s-.07-.01-.11-.01h-1.55s-.07,0-.11,0l-1.45.33s-.08.02-.12.04l-1.53.82s-.09.06-.12.09l-1.04,1.11s-.07.09-.09.14l-.5,1.21s-.03.08-.03.12l-.17,1.32s0,.08,0,.12l.17,1.32ZM151.27,68.16l.44-1.07.93-.99,1.4-.75,1.34-.31h1.43s1.33.32,1.33.32l1.41.76.93,1,.44,1.08.16,1.13-.16,1.17-.44,1.07-.93,1-1.4.76-1.34.32h-1.43s-1.34-.3-1.34-.3l-1.4-.75-.93-.99-.44-1.07-.16-1.2.16-1.2Z"/>
      <path d="M248.77,67.92l.42.06v-.02s.02,0,.02,0l.18-1.35c.01-.11-.01-.23-.07-.32l-.9-1.35h0c-.09-.13-.23-.21-.39-.21h-4.34v.03h0v.44l-.47-.06-.53,4.05c-.02.14.02.27.11.37.09.1.22.16.36.16h4.34c.13,0,.26-.06.35-.15l1.25-1.35-.32-.3ZM248.28,67.71l-.99,1.07h-3.59l.4-3.07h3.65l.66.99-.13,1.01Z"/>
      <path d="M154.04,71.75h0s0,.02,0,.02l.35-.03-.34.11.15.48s.04.09.06.13l.31.44s.07.08.11.11l.46.33s.09.05.14.07l.43.13s.09.02.14.02h.46s.1-.01.14-.03l.43-.14s.09-.04.14-.07l.45-.33s.08-.07.11-.11l.31-.45s.05-.08.06-.13l.15-.48s.02-.08.02-.12l.03-1.04s0,0,0-.01v-2.61s0-.05,0-.07l-.14-.86-.36.06.33-.15v-.03s0,0,0,0l-.32-.69s-.05-.08-.08-.12l-.46-.51s-.09-.08-.15-.11l-.44-.21c-.06-.03-.13-.04-.2-.05h-.47c-.07,0-.14,0-.2.04l-.44.2c-.06.03-.11.06-.15.11l-.46.5s-.06.08-.08.12l-.32.68s-.03.08-.04.13l-.14.89s0,.05,0,.07l-.04,3.13s0,.04,0,.06l.05.53ZM154.99,69.33s0,0,0-.01v-1.22s.12-.79.12-.79l.26-.55.35-.38.26-.12h.26s.26.13.26.13l.35.38.26.56.12.73v2.55s-.03.98-.03.98l-.11.35-.22.32-.33.24-.29.09h-.32s-.29-.09-.29-.09l-.32-.23-.22-.32-.11-.34-.04-.44.04-1.85Z"/>
      <path d="M117.71,68.51h3.19c.14,0,.27-.06.36-.17.09-.11.13-.24.11-.38l-.14-.86s-.02-.09-.04-.13l-.32-.68s-.05-.09-.08-.12l-.46-.51s-.09-.08-.15-.11l-.44-.21c-.06-.03-.13-.05-.2-.05h-.47c-.07,0-.14,0-.2.04l-.44.2c-.06.03-.11.06-.15.11l-.46.5s-.06.08-.08.12l-.32.68s-.03.08-.04.13l-.14.89c-.02.14.02.28.11.38.09.1.22.17.36.17ZM118.32,67.32l.26-.55.35-.38.26-.12h.26s.26.13.26.13l.35.38.24.53.04.25h-2.06l.04-.24Z"/>
      <path d="M237.87,73.8h10.19c.07,0,.14-.02.21-.05l2.07-1.01s.06-.03.08-.05l1.3-1.01s.07-.06.09-.1l1.45-2.03h0s0-.01,0-.01h0s.02-.03.02-.03h0s.06-.1.07-.16l.3-1.35s.01-.06.01-.09l.02-.68.51,2.1c.01.06.04.12.08.17l2.07,2.84c.04.06.1.11.16.14l2.9,1.51c.07.04.14.05.22.05,0,0,0,0,0,0l3.29-.06c.07,0,.14-.02.21-.05l3.18-1.62c.05-.03.1-.06.14-.11l2.58-2.93h0s.01-.02.01-.02h0s.03-.03.03-.03c.03-.03.05-.07.07-.11l1.6-3.8s.03-.09.04-.14l.37-4.08s0,0,0-.01l.32-.11,1.04,2.34-1.2,9.7c-.02.13.02.27.11.37s.22.16.35.16l4.53.06v-.03s.03,0,.03,0v-.42s.33.29.33.29l.03-.03c.06-.07.11-.16.12-.25l1.26-8.77,6.85-11.1c.09-.15.09-.33.01-.48-.08-.15-.24-.24-.41-.24h-4.74c-.14,0-.28.07-.37.18l-.03.04h0s-.02.03-.02.03h0s-3.36,5.06-3.36,5.06l-2.32-5.04c-.08-.17-.25-.27-.43-.27h-4.74c-.15,0-.3.07-.39.2l-.03.04.36.26-.38.17v.02s-.03.02-.03.02l.98,2.2-.94-1.29c-.04-.06-.1-.11-.16-.14l-2.9-1.51c-.07-.04-.15-.05-.23-.05l-3.29.06c-.07,0-.14.02-.21.05l-3.18,1.62c-.05.03-.1.06-.14.11l-2.58,2.93s-.03.04-.05.06h0s-.02.04-.02.04h0s-.01.02-.02.03l-.02.04h0s-1.6,3.79-1.6,3.79c-.02.04-.03.09-.04.14l-.22,2.45-.71-1.08c-.09-.13-.23-.21-.38-.21l.29-.3s.03-.03.04-.05l.51-.69h0s.02-.03.02-.03h0s.02-.03.02-.03c.01-.02.03-.05.04-.08l.53-1.35s.02-.06.02-.09l.25-1.35s0-.08,0-.12l-.1-1.35c0-.06-.02-.13-.05-.18l-1.06-2.03s-.05-.08-.09-.12l-1.04-1.01s-.06-.05-.1-.07l-1.81-1.01c-.07-.04-.15-.06-.23-.06h-9.05c-.18,0-.35.1-.43.27l-.02.04.31.15-.34-.04v.04s-.02,0-.02,0l-2.65,20.25c-.02.14.02.27.11.37s.22.16.36.16ZM272.94,53.51l2.55,5.54.43-.2.4.26,3.72-5.6h3.64l-6.45,10.45c-.03.06-.06.12-.07.18l-1.22,8.46-3.59-.05,1.15-9.31c.01-.09,0-.17-.04-.25l-4.23-9.49h3.71ZM254.62,61.47l1.54-3.66,2.47-2.81,3-1.53,3.06-.06,2.69,1.4,1.95,2.68.88,3.58-.35,3.93-1.54,3.66-2.47,2.81-2.99,1.52-3.07.06-2.69-1.4-1.95-2.68-.88-3.58.35-3.93ZM240.95,53.51h8.51l1.64.92.95.92.98,1.87.09,1.19-.23,1.24-.5,1.25-.45.62-.64.67h0s0,.01,0,.01l.33.32-.46.1.14.64c.01.05.03.11.06.15l1.22,1.94.06.39s0,0,0,0l.12.81-.05,1.26-.27,1.21-1.36,1.89-1.21.94-1.92.94h-9.55s2.53-19.31,2.53-19.31Z"/>
      <path d="M114.07,66.65l-.5,1.21s-.03.08-.03.12l-.17,1.32s0,.08,0,.12l.17,1.32s.02.08.03.12l.5,1.21s.02.05.04.07h0s.02.03.02.03h0s.02.03.03.04l.03.03h0s1.04,1.11,1.04,1.11c.04.04.08.07.12.09l1.53.82s.08.03.12.04l1.45.33s.07.01.11.01h1.55s.07-.01.11-.02l1.45-.34s.08-.02.12-.04l1.53-.83s.09-.06.12-.09l1.04-1.12s.07-.09.09-.14l.5-1.21h-.03s0-.03,0-.03l-.39-.16.39-.2-.02-.03c-.08-.16-.24-.26-.42-.26h0l-3.69.02c-.25,0-.46.2-.47.46l-.03.97-.11.36-.22.32-.33.24-.29.09h-.32s-.29-.09-.29-.09l-.33-.23-.2-.29-.11-.36-.04-.45.03-1.38,2.72.04s0,0,0,0h3.87s0,0,0,0c.05,0,.09,0,.14-.02.22-.07.36-.29.33-.52l-.17-1.26s-.02-.08-.03-.12l-.5-1.21h0s-.01-.03-.01-.03h0s-.02-.04-.02-.04c-.02-.04-.05-.08-.08-.11l-1.04-1.12s-.08-.07-.12-.09l-1.53-.83s-.08-.03-.12-.04l-1.45-.35s-.07-.01-.11-.01h-1.55s-.07,0-.11,0l-1.45.33s-.08.02-.12.04l-1.53.82s-.09.06-.12.09l-1.04,1.11s-.07.09-.09.14ZM114.47,68.16l.44-1.07.93-.99,1.4-.75,1.34-.31h1.43s1.33.32,1.33.32l1.41.76.93,1,.44,1.08.09.66h-2.17s-4.33-.05-4.33-.05c-.17,0-.33.09-.42.23-.04.07-.06.15-.07.23h0l-.04,1.88s0,.04,0,.06l.05.53s0,.06.02.09l.15.48s.04.09.06.13l.31.44s.07.08.11.11l.45.33s.09.05.14.07l.43.13s.09.02.14.02h.46s.1-.01.14-.03l.43-.14s.09-.04.14-.07l.45-.33s.08-.07.11-.11l.31-.45s.05-.08.06-.13l.15-.48s.02-.08.02-.12l.02-.58h2.53s-.2.46-.2.46l-.93,1-1.4.76-1.34.32h-1.43s-1.33-.3-1.33-.3l-1.41-.75-.93-.99-.44-1.07-.16-1.2.16-1.2Z"/>
      <path d="M125.57,73.74l.02.03.4-.21v.43h.02v.03h3.96c.16,0,.31-.08.4-.22.05-.08.07-.16.07-.25h0v-5.72s.76-.75.76-.75l.73-.14.65.26.37.67v5.72c0,.07.01.13.04.19v.03s.43-.19.43-.19v.43h.01v.03h3.83c.16,0,.31-.08.39-.21.05-.08.08-.17.08-.26h0v-5.85h-.01v-.03h-.38s.36-.14.36-.14v-.03s-.02-.01-.02-.02l-.52-1.17c-.03-.06-.06-.11-.11-.15l-1.36-1.29s-.07-.06-.12-.08l-1.23-.6c-.05-.03-.11-.04-.17-.05l-1.31-.12c-.05,0-.11,0-.16.01l-1.45.37s-.1.03-.14.06l-.77.49h-.33l.35-.16-.02-.04c-.08-.17-.25-.28-.43-.28h-3.97c-.26,0-.47.21-.47.47v8.5c0,.08.02.15.05.22ZM129.48,65.5v.36h.47l.26.4,1.38-.89,1.3-.33,1.14.1,1.08.53,1.24,1.17.43.96v.03s.01,5.28.01,5.28h-2.88v-5.38c0-.08-.02-.16-.06-.23l-.53-.94c-.05-.09-.14-.17-.23-.21l-.93-.38c-.08-.03-.18-.04-.27-.03l-1.01.19c-.09.02-.18.06-.25.13l-1.01,1c-.09.09-.14.21-.14.34v5.45s-3.02,0-3.02,0v-7.55s3.02,0,3.02,0Z"/>
      <path d="M105.79,65.44l.02.04.37-.24v.42h.02v.04h1.49v7.91c0,.1.03.19.09.27l.02.03.37-.25v.43h.02v.03h3.83c.17,0,.33-.1.42-.25.04-.07.06-.15.06-.23h0v-7.94s1.7,0,1.7,0c.17,0,.33-.09.41-.24.04-.07.06-.15.06-.24h0s0-1.31,0-1.31c0-.08-.02-.16-.06-.24l-.02-.04c-.08-.15-.24-.24-.41-.24h-1.68v-1.18h-.02v-.04h-.39l.35-.2-.02-.04c-.09-.14-.24-.23-.41-.23h-3.83c-.26,0-.47.21-.47.47v1.22s-1.51,0-1.51,0c-.26,0-.47.21-.47.47v1.31c0,.09.03.18.08.26ZM108.17,64.35c.26,0,.47-.21.47-.47v-1.22s2.88,0,2.88,0v1.22h.47v.47h1.7v.36s-1.7,0-1.7,0h0s-.08,0-.13.02c-.2.06-.35.24-.35.46v7.94s-2.88,0-2.88,0v-7.94c0-.26-.21-.47-.48-.47h-1.51v-.36s1.51,0,1.51,0Z"/>
      <path d="M94.46,73.82l.03.03.34-.28v.42h.03v.03h3.96c.26,0,.47-.21.47-.47v-5.72s.76-.75.76-.75l.73-.14.64.26.37.66v5.73c0,.1.03.2.09.28l.02.03.36-.26v.42h.02v.03h3.83c.26,0,.47-.21.47-.47v-5.85c0-.07-.02-.13-.04-.19l-.52-1.17h0s-.02-.03-.02-.03l-.21.09.19-.13-.02-.04s-.04-.06-.07-.08l-1.36-1.29s-.07-.06-.12-.08l-1.23-.6c-.05-.03-.11-.04-.17-.05l-1.31-.12c-.05,0-.11,0-.16.01l-1.45.37s-.1.03-.14.06l-.77.49h-.35l.34-.24-.03-.04c-.09-.12-.23-.2-.38-.2h-3.97c-.13,0-.25.05-.34.14-.09.09-.14.21-.14.34v8.5c0,.11.04.21.11.3ZM98.31,65.5v.36h.47l.26.4,1.38-.89,1.3-.33,1.14.1,1.08.53,1.24,1.17.44.99v5.28s-2.88,0-2.88,0v-5.38c0-.08-.02-.16-.06-.23l-.53-.94-.37.21.16-.38h-.03s0-.03,0-.03l-.93-.38c-.08-.03-.18-.04-.27-.03l-1.01.19c-.09.02-.18.06-.25.13l-1.01,1c-.09.09-.14.21-.14.34v5.45s-3.02,0-3.02,0v-7.55s3.02,0,3.02,0Z"/>
      <path d="M166.18,64.84s0,0,0,0h0s.28,2.21.28,2.21c0,.04.02.08.03.12l.92,2.21s.04.08.07.12l1.73,2.09s.05.06.09.08l2.16,1.56c.05.04.11.06.17.08l2.91.7s.06.01.09.01l2.83.12s.01,0,.02,0c.03,0,.06,0,.09,0l2.35-.43s.05-.01.07-.02l1.05-.36c.02.08.06.16.12.22.09.09.21.14.34.14h4.78c.2,0,.37-.12.44-.29h0s2.32-5.58,2.32-5.58l3.13.07.82,5.49h0c.01.09.05.17.11.24.09.1.22.16.36.16h7.54c.2,0,.38-.13.45-.32l2.95-8.78,1.44,8.53c.04.22.23.39.46.39l3.85.09h0s0,0,0,0c.19,0,.37-.11.45-.29l3.83-9.38.65,9.25c.02.25.22.44.47.44,0,0,0,0,0,0l4.33-.08c.09.11.23.18.37.18h11.53v-.03h.02v-.43l.41.2.02-.03s.04-.1.04-.15l.53-4.05c.02-.14-.02-.27-.11-.37-.09-.1-.22-.16-.36-.16h-6.25l.4-3.07h5.36v-.03h.02v-.43l.42.19.02-.03s.03-.09.04-.14l.53-4.05c.02-.14-.02-.27-.11-.37s-.22-.16-.36-.16h-5.25l.4-3.07h6.36v-.04h.02v-.43l.42.19.02-.04s.03-.09.04-.13l.53-4.05c.02-.14-.02-.27-.11-.37-.09-.1-.22-.16-.36-.16h-11.53c-.2,0-.38.13-.45.32v.04s-.03.06-.03.09l-2.25,17.24-1.31-17.25c-.02-.25-.22-.44-.47-.44h-4.74c-.19,0-.37.12-.44.29l-3.73,9.18-1.43-9.08c-.04-.23-.23-.4-.47-.4h-4.74c-.21,0-.39.13-.45.33l-4.76,14.77-1.75-14.68c-.03-.24-.23-.42-.47-.42h-5.88c-.19,0-.37.12-.44.3l-5.24,13.18.31-2.55h0s0-.03,0-.03h-.1s.1,0,.1,0v-.03c0-.13-.04-.25-.13-.34-.09-.09-.21-.14-.34-.15l-7.98-.11c-.24,0-.44.17-.48.41l-.53,3.91s0,.06,0,.08v.03s.47-.02.47-.02v.47s3.02-.04,3.02-.04l-.07.59-1.54.42-1.34-.16-1.46-.31-1.1-.91-.64-.91-.29-.84-.08-1.01v-1.01s.75-1.77.75-1.77l.88-1.21,1.29-1.1,1.43-.8,1.6-.52,1.56-.36,1.48-.05,1.47.08,2,.44h0s.03,0,.05,0c.02,0,.03,0,.05,0,.23,0,.43-.16.47-.39l.69-4.08h0s0-.04,0-.04l-.18-.03h.19s0-.03,0-.03c0-.23-.15-.43-.37-.48l-2.03-.44s-.05,0-.07-.01l-2.23-.14s-.03,0-.05,0l-2.15.1s-.04,0-.07,0l-2.35.44s-.04,0-.06.02l-2.39.79s-.07.03-.1.05l-2.26,1.37s-.05.03-.07.06l-1.96,1.79s-.06.06-.08.09l-1.56,2.4s-.03.06-.04.08l-1,2.53s-.02.07-.03.1l-.34,2.27s0,.08,0,.13v.03ZM223.32,53.51h10.57l-.41,3.11h-6.37v.04h0v.44l-.46-.06-.53,4.05c-.02.14.02.27.11.37.09.1.22.16.36.16h5.25l-.41,3.11h-5.38v.03h0v.44l-.47-.06-.53,4.05c-.02.14.02.27.11.37s.22.16.36.16h6.25l-.41,3.1h-10.57l2.53-19.31ZM167.44,62.61l.96-2.45,1.5-2.3,1.88-1.72,2.16-1.31,2.32-.77,2.29-.43,2.1-.1,2.17.14,1.56.34-.53,3.15-1.55-.34s-.05,0-.07-.01l-1.54-.08s-.03,0-.04,0l-1.54.05s-.06,0-.09.01l-1.63.38s-.03,0-.04.01l-1.67.55s-.06.02-.08.04l-1.51.85s-.05.03-.08.05l-1.37,1.17s-.05.05-.07.08l-.95,1.3s-.04.06-.05.09l-.81,1.91c-.03.06-.04.12-.04.19v1.13s0,.03,0,.04l.09,1.11s.01.08.02.12l.33.97s.03.08.06.12l.71,1.02s.05.07.09.09l1.24,1.02c.06.05.13.08.2.1l1.6.34s.03,0,.04,0l1.45.17s.04,0,.06,0c.04,0,.08,0,.12-.02l1.93-.53c.19-.05.32-.21.35-.4l.18-1.48-.47-.06v-.47s-3.02.04-3.02.04l.4-2.95,7.03.09-.7,5.72.47.06.44.17,6.48-16.3h5.14s1.96,16.41,1.96,16.41c.03.22.2.39.42.42.22.02.43-.11.5-.33l5.32-16.5h3.99l1.64,10.36c.03.21.2.37.41.4.21.02.41-.1.49-.29l4.25-10.46h3.99s1.46,19.14,1.46,19.14l-3.41.06-.76-10.83h0c-.01-.18-.13-.35-.32-.41-.24-.08-.5.03-.6.27l-4.48,10.96-3.14-.07-1.69-10.01c-.04-.22-.23-.39-.46-.39-.21,0-.39.13-.46.32h0s-3.44,10.25-3.44,10.25h-6.79l-.82-5.49c-.03-.23-.23-.4-.46-.4l-3.85-.08h0c-.19,0-.37.11-.45.29l-2.32,5.59h-3.79l-.42-.17-.15-.45-1.89.65-2.27.42-2.74-.12-2.77-.66-2.03-1.47-1.64-1.99-.87-2.08-.2-1.55-.07-.53.32-2.14Z"/>
      <path d="M244.22,61.62h3.49c.13,0,.26-.06.35-.15l1.25-1.35c.07-.07.11-.16.12-.26l.18-1.35c.01-.11-.01-.23-.08-.32l-.9-1.35h0c-.09-.13-.23-.21-.39-.21h-3.49v.04h0v.44l-.46-.06-.53,4.05c-.02.14.02.27.11.37s.22.16.36.16ZM245.16,57.6h2.81l.66.99-.13,1.01-.99,1.07h-2.75l.4-3.07Z"/>
      <path d="M93.34,65.03h-.4l.33-.25-.03-.04c-.09-.12-.23-.18-.38-.18h-3.97c-.13,0-.25.05-.34.14-.09.09-.14.21-.14.34v8.5c0,.11.04.22.12.31l.03.03.33-.29v.42h.03v.03h3.96c.26,0,.47-.21.47-.47v-8.5h-.03v-.04ZM89.38,73.05v-7.55s3.02,0,3.02,0v7.55s-3.02,0-3.02,0Z"/>
      <path d="M190.08,63.82l2.01.08s.02,0,.02,0c.13,0,.26-.05.35-.15.1-.1.14-.24.13-.38l-.45-4.04c-.02-.22-.19-.39-.41-.42-.21-.03-.42.09-.5.3l-1.56,3.95c-.06.14-.04.3.04.43.08.13.22.21.38.22ZM191.4,61.37l.17,1.56-.78-.03.6-1.53Z"/>
      <path d="M88.53,63.65l.03.04.34-.27v.41h.03v.04h3.96c.26,0,.47-.21.47-.47v-2.58s-.03,0-.03,0v-.04h-.4l.33-.25-.03-.04c-.09-.12-.23-.19-.38-.19h-3.97c-.26,0-.47.21-.47.47v2.58c0,.11.04.21.1.29ZM92.39,61.25v1.63s-3.02,0-3.02,0v-1.63s3.02,0,3.02,0Z"/>
      <path d="M47.37,346.86l.58,2.44c.02.07.05.13.09.19l1.94,2.43c.06.07.13.13.22.15l2.26.75s.1.02.15.02h254.22s.1,0,.14-.02l3.2-1.01c.07-.02.14-.06.19-.12l2.36-2.38s.07-.08.09-.12l.92-1.87c.03-.06.05-.14.05-.21l.13-219.06c0-.07-.02-.14-.05-.21l-1.28-2.62s-.05-.08-.08-.12l-2.55-2.65c-.07-.07-.15-.12-.24-.13l-3.04-.65s-.07-.01-.1-.01H54.08c-.05,0-.1,0-.15.03l-3.47,1.19c-.06.02-.12.06-.17.1l-2.17,2.05c-.07.06-.11.14-.13.23l-.7,2.87s-.01.07-.01.11l.08,218.5s0,.07.01.11ZM48.87,125.63l2-1.89,3.3-1.13h252.36s2.85.61,2.85.61l2.39,2.49,1.2,2.45-.13,218.84-.83,1.7-2.22,2.24-3.01.95H52.68s-2.05-.68-2.05-.68l-1.79-2.24-.54-2.27-.09-218.39.65-2.69Z"/>
    </g>
  </g>
</svg>