<?xml version="1.0" encoding="UTF-8"?>
<svg id="Layer_2" data-name="Layer 2" xmlns="http://www.w3.org/2000/svg" viewBox="0 0 303.75 207.93">
  <g id="Layer_1-2" data-name="Layer 1">
    <g>
      <path d="M193.21,12.34c-.05-.1-.15-.17-.26-.18h0s-2.92-.29-2.92-.29l-.03.32-.09-.31-93.52,28.33s-.07.03-.1.05l-2.74,2.01c-.06.05-.11.12-.13.19l-.77,3.6s0,.07,0,.1l6.61,66.16.18-.02.02.05-.17.08,1.41,2.91c.05.11.15.17.26.18h0s2.96.26,2.96.26c0,0,.02,0,.03,0,.03,0,.06,0,.1-.01l93.08-28.82s.07-.03.1-.05l2.69-1.99h0c.06-.05.11-.11.13-.19l.77-3.55s0-.07,0-.1l-6.18-65.69s-.01-.07-.03-.11l-1.38-2.92ZM190.04,12.52l.47.05-1.46.25.99-.3ZM196.88,86.33l-92.96,28.78-2.7-.23-1.38-3.31-6.53-65.43.73-3.43,2.6-1.9,89.22-27.02,6.37,67.36s.02.07.03.11h0s.22.47.22.47l-92.72,28.66.19.62,93.08-28.77c.09-.03.16-.09.2-.18.03-.08.03-.16,0-.24l5.87,2.88-2.22,1.64Z"/>
      <path d="M252.63,162.92l-.65-2.37c-.01-.05-.04-.1-.08-.14l-19.64-19.79c-.09-.09-.21-.12-.33-.08l-19.29,6.08h0c-.07.03-.14.07-.18.14l-1.17,1.87-.87.27-1.05-1.07c-.09-.09-.21-.12-.33-.08l-13.19,4.16h0c-.07.03-.14.07-.18.14l-1.17,1.87-.76.24-1.05-1.07c-.08-.09-.21-.12-.33-.08l-76.88,24.24c-.07.02-.14.07-.18.14l-1.22,1.98c-.08.13-.06.29.04.39l20.18,20.89c.06.06.15.1.23.1.03,0,.06,0,.09-.01,0,0,0,0,0,0h0s80.5-25.58,80.5-25.58c0,0,0,0,.01,0l37.05-11.77.21-.07c.16-.05.26-.23.21-.39ZM231.93,141.22l19.13,19.27-18.63,5.92-19.1-19.32,18.6-5.86ZM209.05,148.43l8.85,8.96-12.51,3.96-8.84-8.98,12.5-3.94ZM205.58,161.97l12.7-4.02.48,1.75-13.54,4.29.36-2.02ZM194.63,154.57l9.95,10.11c.06.06.15.1.23.1.03,0,.06,0,.1-.01,0,0,0,0,0,0h0s14.35-4.54,14.35-4.54c.17-.05.26-.23.21-.39l-.65-2.37c-.01-.05-.04-.1-.08-.14l-7.79-7.89.48-.15,19.85,20.09-1.63.52-.56-2.05c-.01-.05-.04-.1-.08-.14l-2.82-2.86c-.09-.09-.21-.12-.33-.08l-4.59,1.46-2.95-2.99c-.08-.09-.21-.12-.33-.08l-3.64,1.15c-.07.02-.14.07-.18.14l-1.24,1.97c-.08.13-.06.29.04.4l1.53,1.56-1.86.59c-.07.02-.14.07-.18.14l-1.24,1.97c-.08.13-.06.29.04.4l3.2,3.25-1.53.49-.57-2.05c-.01-.05-.04-.1-.08-.14l-18.02-18.31.38-.12ZM135.31,197.93l76.51-24.3.49,1.75-42.89,13.63h0s-34.46,10.95-34.46,10.95l.36-2.04ZM214.47,165.12l2.43,2.47-1.73.55-1.58-1.61.89-1.41ZM217.6,168.04c.11-.03.19-.12.22-.23.03-.11,0-.22-.08-.3l-2.72-2.76,2.95-.93,2.95,2.99c.09.09.21.12.33.08l4.59-1.46,2.31,2.34-12.53,3.98-2.31-2.35,4.29-1.36ZM215.18,172.22l-.35,1.96-2.95-3,.89-1.41,2.41,2.45ZM216.18,174.15l-.73.23.36-2.02,12.71-4.04.48,1.75-12.82,4.08h0ZM192.37,153.69l19.07,19.38-76.32,24.24-18.94-19.6,76.19-24.03ZM114.77,179.5l.87-1.41,19.04,19.7-.34,1.97-19.56-20.26ZM232.27,169.04l.36-2.02,18.81-5.97.48,1.75-19.65,6.25Z"/>
      <path d="M303.36,168.14c0-.08-.04-.16-.1-.21l-4.58-4.45,1.69-.25c.14-.02.25-.13.27-.27.02-.14-.05-.28-.17-.34l-99.65-51.69.03-10.3c0-.11-.05-.2-.14-.27l-13.03-9.21,10.01-3.1s.08-.03.11-.06l3.01-2.46c.05-.04.09-.1.11-.17l1.05-4.06s.01-.07,0-.11l-6.27-66.71s-.02-.09-.04-.12l-1.75-3.23c-.04-.06-.09-.12-.16-.14L169.91.88s-.05-.02-.07-.02l-3.3-.53s-.1,0-.14,0l-15.74,4.74-10.31-4.4s-.04-.02-.07-.02L136.87,0c-.05,0-.1,0-.15,0L56.65,24.07s-.08.03-.11.06l-3.13,2.62c-.05.04-.09.1-.11.17l-.95,3.9h0s-.01.07,0,.11l5.22,51.18s.02.08.04.12h0s.53.98.53.98l-8.61,2.63h0s-.04.01-.06.02c-.11.06-.18.17-.17.29l.19,20.66L.23,121.95c-.1.03-.18.11-.21.22-.03.1,0,.21.06.3l62.05,76.05c.06.08.15.12.25.12.02,0,.03,0,.05,0l48.72-7.24,22.35,16.49c.06.04.12.06.19.06.03,0,.06-.01.1-.02h0s117.26-37.33,117.26-37.33l18.61-2.77,17.69,12.57c.06.04.12.06.19.06.03,0,.07,0,.1-.02h0s15.9-5.09,15.9-5.09c.14-.04.23-.18.22-.33l-.4-6.85ZM133.75,202.38l-24.09-24.96s-.03-.02-.04-.04l-5.5-4.05,121.34-38.17,5.91,4.2c.06.09.16.2.35.34l.04.04s.01.01.02.02l23.73,23.9-121.75,38.72ZM200.12,133.61v5.27s-90.76,28.52-90.76,28.52l-.18-38.02,91.02-28.3-.09,32.47h0s0,.03,0,.06ZM148.57,5.7l-76.32,22.99s-.08.03-.11.06l-1.65,1.33-12.81-5.64L136.79.67l11.78,5.03ZM189.39,10.71l-93.48,28.3-22.64-9.96L166.47.98l22.93,9.73ZM72.39,29.38l22.89,10.07-2.5,2.02-22.87-10.08,2.49-2.01ZM69.5,31.92l22.94,10.11-.89,3.48-22.93-10.13.89-3.46ZM73.36,89.46l.17,1.71-13.76-6.25-1.16-2.14,14.74,6.69ZM98.25,113.41l1.26,2.27-22.49-10.28-1.25-2.25,22.49,10.26ZM200.79,125.48c.96-.14,4.3-.63,7.76-.87,7.01-.49,8.64.39,8.99.96.07.11.28.45-.3,1.24-1.84,2.51-5.24,3.59-7.98,4.45-2.76.88-5.15,1.64-4.78,3.61.51,2.67,4.27,3.8,6.35,4.22l-6.21,1.95c.05-1.04-.05-3.4-1.91-4.14-1.79-.72-1.93-2.97-1.94-3.3l.02-8.12ZM256.33,163.58l-22.8-22.97c1.89.72,5.36,1.64,11.76,2.64,6.83,1.07,14.71,4.85,20.13,7.83,4.68,2.58,8.36,5.02,9.69,5.92l-7.29,2.32h0s-.07.03-.1.05c-.1.08-.14.2-.12.33l1.73,7.49-12.93,1.92.03-5.31c0-.09-.03-.17-.09-.23ZM287.21,172.88l-8.07-7.87s-.05-.04-.08-.06l-10.3-5.25,15-4.77,10.86,5.51,7.8,7.58-15.21,4.86ZM298.1,162.92l-1.75-1.7,2.95,1.53-1.19.18ZM283.25,154.42l-7.36,2.34c-.77-.53-4.82-3.3-10.15-6.24-5.46-3.01-13.42-6.83-20.35-7.91-9.63-1.51-12.41-2.8-13.19-3.34,0,0,0,0-.01,0l-.35-.35s-.03-.03-.04-.04l-6.1-4.33c-.08-.06-.19-.08-.28-.04l-13.21,4.16c-.65-.08-6.5-.9-7.08-3.91-.26-1.35,1.48-1.97,4.34-2.88,2.82-.9,6.33-2.01,8.3-4.69.55-.75.66-1.41.33-1.95-1.62-2.65-14.52-.83-17.3-.41l.04-13.15,82.42,42.75ZM199.81,100.53l-90.89,28.26-30.15-21.87,21.35,9.75s.06.02.09.03l3.36.5s.03,0,.05,0c.03,0,.06,0,.1-.01l83.2-25.77,12.9,9.12ZM195.08,14.63l6.26,66.59-1.01,3.9-2.88,2.35-93.86,29.07-3.12-.46-1.67-3.02-.52-5.23h0s0-.03,0-.04l-6.17-61.8,1.02-3.96,2.94-2.37,94.32-28.56,3.08.5,1.64,3.04ZM191.06,10.55l-.63-.1-21.36-9.06.62.1,21.37,9.07ZM149.69,5.36l-.15.05-9.88-4.22.46.09,9.57,4.09ZM56.79,24.76l13.13,5.78-.84.68c-.05.04-.09.1-.11.17l-.47,1.83-14.28-6.3,2.58-2.16ZM53.83,27.45l14.5,6.4-.42,1.63h0s-.01.07-.01.11l.18,1.78-15.06-6.66.8-3.26ZM59.25,85.32c.03.06.09.11.15.14l14.2,6.45,1.07,10.57s.02.09.04.12h0s1.27,2.29,1.27,2.29l-25.67-18.62,8.11-2.48.82,1.53ZM62.51,197.96L.88,122.43l48.6-14.94.16,17.03c0,.1.05.2.13.26l59.08,43.33c.06.04.12.06.19.06.03,0,.06-.01.09-.02h0s91.39-28.71,91.39-28.71c.13-.04.23-.17.23-.31v-3.15c.36.61.89,1.2,1.72,1.53,1.62.65,1.55,3.05,1.49,3.75l-100.65,31.66h0s-.03.01-.05.02c-.11.06-.18.17-.18.29l.06,12.11c0,.1.05.2.13.26l7.11,5.25-47.89,7.12ZM250.91,169.94s-.03,0-.05.01l-116.87,37.22v-4.18s121.78-38.73,121.78-38.73l-.03,4.38v.59l-4.83.72ZM287.83,179.67l-.36-6.19,15.27-4.88.36,6.19-15.27,4.89Z"/>
    </g>
  </g>
</svg>