<?xml version="1.0" encoding="UTF-8"?>
<svg id="Layer_2" data-name="Layer 2" xmlns="http://www.w3.org/2000/svg" viewBox="0 0 423.22 213.34">
  <g id="Layer_1-2" data-name="Layer 1">
    <g>
      <path d="M422.88,90.08l.29-.44c.09-.13.07-.31-.05-.42l-5.73-5.51s-.08-.05-.13-.06h0s-140.97-47.92-140.97-47.92l.03-5c0-.14-.09-.27-.22-.31l-47.15-15.99c-.09-.03-.18-.02-.26.02l-3.26,1.73v-2.71c0-.14-.09-.27-.22-.31l-3.74-1.27c-.09-.03-.18-.02-.26.02l-3.25,1.72v-2.7c0-.14-.09-.27-.22-.31l-3.74-1.27c-.09-.03-.18-.02-.26.02l-3.25,1.71v-2.69c0-.14-.09-.27-.23-.31l-3.73-1.26c-.09-.03-.18-.02-.26.02l-3.24,1.71v-2.68c0-.14-.09-.27-.23-.31l-3.72-1.26c-.09-.03-.18-.02-.26.02l-3.23,1.7v-2.66c0-.14-.1-.27-.23-.31L186.45.02c-.09-.03-.18-.02-.26.02l-14.92,7.8-7.06-2.41s-.02,0-.04-.01l-1.91-.42s-.04,0-.06,0l-2.15-.08s-.04,0-.06,0l-2.07.28s-.04,0-.07.02l-1.67.59s-.03.01-.04.02L1.82,86.26s-.04.02-.05.03l-1.31,1.03c-.06.04-.1.1-.11.17l-.33,1.16s-.01.06-.01.1l.18,8.87c0,.06.02.12.05.17l.71,1.12s.07.08.11.11l.97.56-1.31,1.04c-.06.04-.09.1-.11.17l-.33,1.17s-.01.06-.01.1l.37,19.9c0,.06.02.12.05.17l.71,1.12s.07.09.12.11l1.64.9s.03.01.05.02l15.4,5.62s.08.02.11.02c.05,0,.11-.01.16-.04l1.48-.78,1.77.64.02,1.22c0,.14.09.26.22.31l3.75,1.37s.08.02.11.02c.05,0,.11-.01.16-.04l1.47-.79,1.78.65.02,1.22c0,.14.09.26.22.31l3.76,1.37s.08.02.11.02c.05,0,.11-.01.16-.04l1.47-.79,1.79.65.02,1.22c0,.14.09.26.22.3l3.77,1.38s.07.02.11.02c.05,0,.11-.01.16-.04l1.47-.79,1.8.66.02,1.22c0,.14.09.26.22.31l3.78,1.38s.08.02.11.02c.05,0,.11-.01.16-.04l1.47-.79,1.81.66.02,1.23c0,.14.09.26.22.31l157,57.26c.08.03.17.03.25-.01l.48-.22,38.5,14.04s.07.02.11.02c.06,0,.11-.01.16-.04l173.6-99.76c.1-.06.16-.16.17-.28l.36-19.36c0-.12-.06-.23-.16-.29l-2.95-1.77,2.75-1.64s.08-.06.11-.1ZM223.7,16.12c-.09-.03-.18-.02-.26.02l-16.52,8.76-.67-1.08,18.51-9.81v2.46s-1.06-.36-1.06-.36ZM224.01,16.93l-16.58,8.8-.16-.26,16.35-8.68.39.13ZM216.22,13.58c-.09-.03-.18-.02-.26.02l-13.39,7.09-1.24-.77,15.96-8.44v2.46s-1.06-.36-1.06-.36ZM216.52,14.38l-13.01,6.89-.29-.18,12.92-6.84.38.13ZM209.81,11.41l-1.06-.36-.11.31-.15-.29-12.45,6.58-1.64-.56,15.42-8.13v2.46ZM209.04,11.84l-11.78,6.22-.37-.13,11.78-6.22.37.13ZM202.36,8.88l-1.06-.36c-.09-.03-.18-.02-.26.02l-13.19,6.95-2.03-.36,16.54-8.7v2.45ZM201.58,9.31l-12.22,6.44-.45-.08,12.31-6.48.36.12ZM194.92,6.35l-1.06-.36c-.09-.03-.18-.02-.26.02l-16.01,8.41-2.65-.04,19.97-10.48v2.45ZM194.13,6.78l-14.59,7.66h-.57s14.8-7.78,14.8-7.78l.35.12ZM.95,87.78l1.2-.95L156.44,6.42l1.61-.57,2-.27,2.09.08,1.86.41,7.18,2.45c.09.03.18.02.26-.02l14.92-7.81,8.04,2.73-20.93,10.98c-.13.07-.2.22-.17.37.04.15.17.25.32.25l5.99.08h0c.05,0,.11-.01.15-.04l19.22-10.1,2.86.97-17.19,9.05c-.13.07-.19.2-.17.34.02.14.13.25.27.27l4.6.81s.04,0,.06,0c.05,0,.11-.01.15-.04l16.88-8.89,2.87.97-15.74,8.3s0,0,0,0l-.16.08c-.12.06-.19.19-.18.32.01.13.1.24.22.29l3.74,1.27s.07.02.11.02c.05,0,.11-.01.15-.04l16.45-8.69,2.87.97-16.27,8.61c-.1.06-.17.16-.18.28,0,.12.06.23.16.29l2.84,1.76c.05.03.11.05.17.05.05,0,.11-.01.15-.04l17.72-9.39,2.88.98-18.63,9.88c-.08.04-.14.12-.16.21-.02.09-.01.18.04.26l1.53,2.46c.09.15.28.2.44.12l21.4-11.36,46.3,15.7-5.3,2.86.16.29-.11.31,146.44,49.77-160.89,91.33-149.06-53.35c-.09-.04-.19-.05-.28,0l-6.27,3.38-46.91-16.9,22.44-11.91c.13-.07.2-.22.17-.37-.04-.15-.17-.25-.32-.25l-6.15-.1c-.06,0-.1.03-.15.06v-.02s-20.62,10.92-20.62,10.92l-2.95-1.06,18.49-9.79c.12-.07.19-.2.17-.34s-.13-.25-.27-.27l-4.69-.87c-.07-.01-.14.02-.2.05v-.02s-18.12,9.58-18.12,9.58l-2.94-1.06,17.15-9.06-.15-.29.11-.31-3.75-1.36c-.09-.03-.18,0-.26.03v-.02s-17.72,9.34-17.72,9.34l-2.93-1.06,17.61-9.28c.1-.06.17-.16.18-.28,0-.12-.05-.23-.15-.29l-2.88-1.82c-.1-.06-.22-.06-.33,0h0s-19.04,10.02-19.04,10.02l-2.92-1.05,20.11-10.56c.08-.04.14-.11.16-.2.03-.08.02-.18-.03-.25l-1.4-2.58-.04.02c-.03-.05-.03-.12-.09-.15-.1-.06-.22-.06-.32,0l-23,12.07-15.28-5.5-1.55-.84-.59-.91.26-.91ZM275.66,31.29l-.02,4.22-4.79-1.63,4.81-2.59ZM69.87,98.76l-17.9,9.5c-.11.06-.18.17-.18.3v.31s-1.01-.37-1.01-.37l18.39-9.76h.69ZM69.41,96.53l4.53.07-2.86,1.52-1.65-.03-.02-1.56ZM50.31,109.04l1.5.54.1,6.78-1.51-1.27-.02-1.58h0s-.07-4.48-.07-4.48ZM49.82,108.27c-.11.06-.17.17-.16.3h-.01s.07,4.95.07,4.95c0,0,0,0,0,0l.03,1.73c0,.1.04.19.12.25l1.26,1.06-.98.52-1.35-1.13-.13-8.57,20.08-10.65.02,1.48-18.95,10.05ZM50.35,117.72l.59-.31-1.05,2.05-.59.31,1.05-2.05ZM50.3,120c.06-.03.11-.08.14-.14l1.31-2.57.18.03v.16c0,.1.05.19.12.25l1.44,1.2-1.32,2.59-2.82-1.02.95-.51ZM52.59,117.32l-.12-8.3,47.09,16.96.09,8.74s0,.08.02.12c.03.09.11.16.2.19l148.56,53.68-.05.08L54.07,118.56l-1.48-1.24ZM100.21,125.95l5.29-2.86-5.22,10.28-.08-7.42ZM59.6,97.47l-15.21,8.05c-.11.06-.18.17-.18.3v.31s-1-.36-1-.36l15.87-8.4.51.1ZM59.34,95.21l3.36.62-2.16,1.14-1.18-.22-.02-1.55ZM44.33,113.61h-.02s-1.48-1.25-1.48-1.25l-.09-6.05,1.49.54.1,6.76ZM42.25,105.54v.02s-.02,0-.04,0c-.09.06-.14.17-.14.27l.1,6.68c0,.1.04.19.12.25l1.26,1.06-.98.52-1.35-1.13-.13-8.56,17.58-9.3.02,1.48-16.45,8.71ZM42.79,114.99l.59-.31-1.05,2.05-.59.31,1.05-2.05ZM42.73,117.26c.06-.03.11-.08.14-.14l1.44-2.82h.04s0,.44,0,.44c0,.1.04.19.12.25l1.44,1.2-1.32,2.59-2.81-1.02.95-.5ZM45.01,114.58v-.5s0,0,0,0l-.04-2.5h0s-.08-5.27-.08-5.27l3.12,1.13.13,8.69c0,.1.04.19.12.25l.21.17-1.97-.71-1.48-1.24ZM51.5,95.05l-14.67,7.75c-.11.06-.18.17-.18.3v.31s-.99-.36-.99-.36l15.44-8.15.4.15ZM51.38,92.8l2.6.95-1.69.89-.89-.32-.02-1.51ZM36.77,110.87h0s-1.48-1.24-1.48-1.24l-.1-6.05,1.48.53.11,6.76ZM34.69,102.82c-.11.06-.17.18-.17.3h-.01s.11,6.68.11,6.68c0,.1.04.19.12.25l1.26,1.06-.98.52-1.36-1.13-.14-8.55,17.18-9.06.02,1.48-16.05,8.47ZM35.24,112.26l.59-.31-1.05,2.05-.59.31,1.05-2.05ZM35.18,114.53c.06-.03.11-.08.14-.14l1.44-2.81h.03s0,.44,0,.44c0,.1.04.19.12.25l1.44,1.2-1.32,2.58-2.8-1.01.95-.5ZM37.45,111.85l-.13-8.28,3.12,1.12.14,8.69c0,.1.04.19.12.25l.21.17-1.96-.71-1.48-1.24ZM27.08,107.07c0,.1.04.19.12.25l1.27,1.06-.98.52-1.36-1.13-.14-8.54,18.52-9.74.02,1.48-17.38,9.15c-.11.06-.17.18-.17.3h-.01s.11,6.67.11,6.67ZM27.64,100.87l1.47.53.11,6.75-1.48-1.24-.1-6.04ZM27.7,109.53l.59-.31-1.05,2.05-.59.31,1.05-2.05ZM27.64,111.8c.06-.03.11-.08.14-.14l1.44-2.81h.02s0,.43,0,.43c0,.1.04.19.12.25l1.44,1.2-1.32,2.58-2.79-1.01.95-.5ZM29.27,100.08c-.11.06-.18.17-.18.3v.31s-.98-.35-.98-.35l16.73-8.81.3.19-15.87,8.36ZM45.17,89.53l1.88,1.18-1.22.64-.63-.4-.02-1.43ZM21.56,97.67v.31s-.96-.35-.96-.35l20.57-10.8.14.26-19.57,10.28c-.11.06-.18.17-.18.3ZM21.69,105.42l-1.47-1.23-.11-6.04,1.46.53.12,6.74ZM19.62,97.39c-.11.06-.17.18-.17.3h-.01s.12,6.67.12,6.67c0,.1.04.19.12.25l1.27,1.06-.98.51-1.36-1.13-.15-8.54,22.48-11.8.02,1.48-21.34,11.21ZM20.18,106.81l.59-.31-1.05,2.04-.59.31,1.05-2.04ZM20.13,109.08c.06-.03.11-.08.14-.14l1.44-2.81h0s0,.43,0,.43c0,.1.04.19.12.25l1.44,1.2-1.32,2.57-2.78-1.01.95-.5ZM22.37,106.4l-.14-8.27,3.1,1.12.15,8.67c0,.1.04.19.12.25l.2.17-1.94-.7-1.49-1.24ZM41.61,85.51l.6,1.1-.32.17-.26-.48v-.79ZM1.46,98.48l-.62-.97-.15-7.61.08.13s.07.09.12.11l1.64.89s.03.02.05.02l15.23,5.48.15,8.66c0,.1.05.19.12.25l.2.17-11.72-4.24-5.1-2.9ZM19.03,129.03l-.29-16.7.97.35.28,15.85-.95.51ZM20.64,128.49l-.27-15.57,1.46.53.27,15.57-1.46-.53ZM26.54,131.77l-.28-16.72.97.35.27,15.86-.95.51ZM28.15,131.23l-.26-15.58,1.47.53.26,15.58-1.47-.53ZM34.06,134.51l-.27-16.73.96.35.26,15.87-.95.51ZM35.67,133.97l-.25-15.6,1.48.54.25,15.6-1.48-.54ZM41.6,137.26l-.26-16.74.96.35.24,15.89-.95.51ZM43.21,136.72l-.24-15.61,1.49.54.24,15.61-1.48-.54ZM49.16,140.02l-.25-16.76.96.35.23,15.9-.95.51ZM50.76,139.47l-.23-15.62,1.5.54.23,15.62-1.49-.54ZM248.52,212.53l-38.19-13.93c-.08-.03-.17-.03-.25.01l-.48.22-156.66-57.13-.26-17.56c0-.14-.09-.26-.22-.31l-3.79-1.37c-.1-.04-.22-.02-.3.04-.09.06-.14.17-.14.27l.26,17.3-3.11-1.14-.27-17.54c0-.14-.09-.26-.22-.31l-3.78-1.37c-.1-.04-.22-.02-.3.04-.09.06-.14.17-.14.27l.27,17.28-3.11-1.13-.28-17.53c0-.14-.09-.26-.22-.31l-3.77-1.37c-.1-.04-.22-.02-.3.04s-.14.17-.14.27l.28,17.27-3.1-1.13-.29-17.51c0-.14-.09-.26-.22-.31l-3.77-1.36c-.1-.04-.22-.02-.3.04-.09.06-.14.17-.14.27l.29,17.25-3.09-1.13-.3-17.5c0-.14-.09-.26-.22-.3l-3.76-1.36c-.1-.04-.22-.02-.3.04s-.14.17-.14.27l.3,17.24-14.92-5.44-1.54-.85-.62-.97-.37-19.76.28-1.02,1.22-.97.23-.16,1.94,1.12s0,0,0,0l1.66.9s.03.02.05.02l13.16,4.76-1.4,2.73c-.04.08-.05.18-.01.27s.11.16.19.19l3.76,1.36s.07.02.11.02c.12,0,.24-.07.29-.18l1.44-2.81,3.14,1.13-1.4,2.74c-.07.13-.04.28.06.39.03.03.08.04.13.05v.02s3.76,1.36,3.76,1.36c.04.01.08.02.11.02.12,0,.24-.07.29-.18l1.57-3.07c.07-.14.04-.31-.08-.4l-1.53-1.28v-.5s0,0,0,0l-.13-7.76,3.11,1.12.14,8.68c0,.1.04.19.12.25l1.44,1.2-1.45,2.84c-.07.13-.04.28.06.39.03.03.08.04.13.05v.02s3.76,1.37,3.76,1.37c.04.01.08.02.11.02.12,0,.24-.07.29-.18l1.44-2.82,3.15,1.14-1.4,2.75c-.07.13-.04.28.06.39.03.03.08.04.13.05v.02s3.77,1.37,3.77,1.37c.04.01.07.02.11.02.12,0,.24-.07.29-.18l1.44-2.82,2.55.92h0s.61.22.61.22l-1.4,2.75c-.07.13-.04.28.06.39.03.03.08.04.13.05v.02s3.78,1.37,3.78,1.37c.04.01.07.02.11.02.12,0,.24-.07.29-.18l1.44-2.82,194.14,70.18.39,3.67-.06,19.43ZM248.76,188.13l-148.32-53.6,5.81-11.43,148.47,53.14-5.95,11.89ZM422.47,94.07l-.35,18.98-172.94,99.38.06-19.34s0-.02,0-.04l-.39-3.68,4.29-2.44,1.76,2.65-.06,15.77h.33s.16.29.16.29l9.44-5.42c.1-.06.17-.17.17-.29l.02-4.33,142.56-81.67-.07,3.84h.33s.16.29.16.29l8.85-5.08c.1-.06.14-.17.15-.28h.02s.28-15.46.28-15.46c0-.07-.02-.13-.06-.19l-1.73-2.59,3.84-2.21.09-.04,3.08,1.85ZM414.78,94.63l1.81,2.71-.27,14.9-25.26-8.68,18.71-10.64,5.01,1.71ZM410.54,92.49l6.2-3.53-.07,3.69-1.74,1.34-4.39-1.5ZM407.98,113.05l-2.8-.96.8-.46c.1-.06.17-.16.17-.28l.03-1.89,9.67,3.32-7.71,4.42.07-3.84c0-.14-.09-.27-.22-.32ZM261.85,191.39v1.66s-6.29-2.27-6.29-2.27v-1.3c0-.07-.01-.13-.05-.18l-.17-.26,6.52,2.35ZM254.72,188.11l-.71-1.06,7.87,2.84v.81s-7.16-2.59-7.16-2.59ZM255.54,197l8.3,3.01-8.33,4.78.03-7.78ZM255.54,196.3v-3.82s8.77,3.16,8.77,3.16l-.02,3.82-8.75-3.17ZM255.56,191.78v-.29s6.5,2.35,6.5,2.35c.04.01.07.02.11.02.06,0,.11-.01.16-.04l137.36-78.59,4.72-2.7,2.66.92-142.47,81.62-9.05-3.27ZM266.24,188.46l-3.7,2.12v-.72s3.31-1.89,3.31-1.89v.5s.39,0,.39,0ZM373.83,127.72s0,0,0,0l31.68-18.11-.03,1.54-142.98,81.81v-1.6s111.32-63.64,111.32-63.64ZM270.8,185.85l-3.69,2.11v-.72s3.31-1.89,3.31-1.89v.49s.39,0,.39,0ZM275.35,183.25l-3.68,2.11v-.72s3.3-1.88,3.3-1.88v.49s.38,0,.38,0ZM279.89,180.66l-3.67,2.1v-.72s3.29-1.88,3.29-1.88v.49s.38,0,.38,0ZM284.42,178.07l-3.66,2.09v-.72s3.28-1.87,3.28-1.87v.49s.38,0,.38,0ZM288.94,175.48l-3.65,2.09v-.72s3.28-1.87,3.28-1.87v.49s.38,0,.38,0ZM293.46,172.9l-3.64,2.08v-.71s3.27-1.86,3.27-1.86v.49s.37,0,.37,0ZM297.96,170.33l-3.63,2.08v-.71s3.26-1.86,3.26-1.86v.49s.37,0,.37,0ZM302.46,167.76l-3.62,2.07v-.71s3.25-1.86,3.25-1.86v.5s.37,0,.37,0ZM306.95,165.19l-3.61,2.06v-.71s3.25-1.85,3.25-1.85v.49s.37,0,.37,0ZM311.43,162.63l-3.6,2.06v-.71s3.24-1.85,3.24-1.85v.49s.36,0,.36,0ZM315.9,160.07l-3.59,2.05v-.71s3.23-1.84,3.23-1.84v.49s.36,0,.36,0ZM320.36,157.52l-3.58,2.05v-.71s3.22-1.84,3.22-1.84v.49s.36,0,.36,0ZM324.81,154.98l-3.57,2.04v-.71s3.22-1.83,3.22-1.83v.5s.36,0,.36,0ZM329.26,152.43l-3.56,2.04v-.7s3.21-1.83,3.21-1.83v.5s.35,0,.35,0ZM333.7,149.9l-3.55,2.03v-.7s3.2-1.83,3.2-1.83v.49s.35,0,.35,0ZM338.12,147.37l-3.54,2.03v-.7s3.2-1.82,3.2-1.82v.49s.35,0,.35,0ZM342.55,144.84l-3.53,2.02v-.7s3.19-1.82,3.19-1.82v.49s.34,0,.34,0ZM346.96,142.32l-3.52,2.01v-.7s3.18-1.81,3.18-1.81v.49s.34,0,.34,0ZM351.36,139.8l-3.51,2.01v-.7s3.17-1.81,3.17-1.81v.49s.34,0,.34,0ZM355.76,137.29l-3.5,2v-.7s3.17-1.8,3.17-1.8v.49s.34,0,.34,0ZM360.14,134.78l-3.49,2v-.7s3.16-1.8,3.16-1.8v.49s.33,0,.33,0ZM364.52,132.27l-3.48,1.99v-.69s3.15-1.8,3.15-1.8v.5s.33,0,.33,0ZM368.89,129.78l-3.47,1.99v-.69s3.15-1.79,3.15-1.79v.49s.33,0,.33,0ZM373.26,127.28l-3.47,1.98v-.69s3.14-1.79,3.14-1.79v.49s.33,0,.33,0ZM377.61,124.79l-3.46,1.98v-.69s3.13-1.78,3.13-1.78v.49s.33,0,.33,0ZM381.96,122.31l-3.45,1.97v-.69s3.12-1.78,3.12-1.78v.49s.32,0,.32,0ZM386.3,119.83l-3.44,1.97v-.69s3.12-1.78,3.12-1.78v.49s.32,0,.32,0ZM390.63,117.35l-3.43,1.96v-.69s3.11-1.77,3.11-1.77v.49s.32,0,.32,0ZM394.95,114.88l-3.42,1.95v-.69s3.1-1.77,3.1-1.77v.49s.32,0,.32,0ZM399.26,112.42l-3.41,1.95v-.69s3.1-1.76,3.1-1.76v.49s.31,0,.31,0ZM400.17,111.9v-.68s3.09-1.76,3.09-1.76v.68s-3.09,1.76-3.09,1.76ZM403.87,108.69l1.19.41-1.14.65v-.87c.02-.07,0-.14-.04-.19ZM402.8,108.96l-2.98,1.7-13.23-4.55,1.36-.77s0,0,0,0l1.61-.92,13.23,4.55ZM398.49,111.42l-2.99,1.71-13.23-4.56,2.99-1.7,13.23,4.55ZM394.17,113.88l-3,1.71-13.24-4.57,3-1.71,13.24,4.56ZM389.85,116.35l-3,1.72-13.25-4.58,3.01-1.71,13.24,4.57ZM385.52,118.83l-3.01,1.72-13.25-4.59,3.01-1.71,13.25,4.58ZM381.18,121.31l-3.02,1.72-13.26-4.6,3.02-1.72,13.25,4.59ZM376.83,123.79l-3.03,1.73-13.26-4.61,3.03-1.72h.02s13.24,4.6,13.24,4.6ZM372.47,126.28l-3.03,1.73-13.27-4.61,3.04-1.73h.03s13.24,4.61,13.24,4.61ZM368.11,128.78l-3.04,1.74-13.27-4.62,3.04-1.73,13.27,4.62ZM363.73,131.28l-3.05,1.74-13.28-4.63,3.05-1.73,13.28,4.63ZM359.35,133.78l-3.06,1.75-13.29-4.64,3.06-1.74,13.28,4.63ZM354.96,136.29l-3.06,1.75-13.29-4.65,3.07-1.74,13.29,4.64ZM350.57,138.8l-3.07,1.75-13.3-4.66,3.07-1.75,13.29,4.65ZM346.16,141.32l-3.08,1.76-13.3-4.67,3.08-1.75,13.3,4.66ZM341.75,143.84l-3.09,1.76-13.31-4.68,3.09-1.76,13.31,4.67ZM337.32,146.37l-3.09,1.77-13.31-4.69,3.1-1.76,13.31,4.68ZM332.89,148.9l-3.1,1.77-13.32-4.7,3.1-1.76,13.32,4.69ZM328.45,151.43l-3.11,1.78-13.32-4.71,3.11-1.77,13.32,4.7ZM324,153.98l-3.12,1.78-13.33-4.71,3.12-1.77,13.33,4.71ZM319.55,156.52l-3.12,1.79-13.34-4.72,3.13-1.78,13.33,4.72ZM315.08,159.07l-3.13,1.79-13.34-4.73,3.13-1.78,13.34,4.73ZM310.61,161.63l-3.14,1.79-13.35-4.74,3.14-1.79,13.34,4.73ZM306.13,164.19l-3.15,1.8-13.35-4.75,3.15-1.79,13.35,4.74ZM301.64,166.76l-3.16,1.8-13.36-4.76,3.16-1.8,13.36,4.75ZM297.14,169.33l-3.16,1.81-13.36-4.77,3.17-1.8,13.36,4.76ZM292.63,171.9l-3.17,1.81-13.37-4.78,3.17-1.8,13.37,4.77ZM288.11,174.48l-3.18,1.82-13.37-4.79,3.18-1.81,13.37,4.78ZM283.59,177.07l-3.19,1.82-13.38-4.8,3.19-1.81,13.38,4.79ZM279.05,179.66l-3.19,1.83-13.39-4.81,3.2-1.82,13.38,4.8ZM274.51,182.25l-3.2,1.83-13.39-4.82,3.2-1.82,13.39,4.81ZM269.96,184.85l-3.21,1.83-11.16-4.02v-2.08s.98-.55.98-.55l13.39,4.82ZM265.4,187.46l-3.22,1.84-8.2-2.96,1.47-1.14c.08-.06.13-.16.13-.26v-1.02s9.82,3.54,9.82,3.54ZM422.37,89.66l-3.39,2.03-1.65.95.08-4.23h-.33s-.16-.29-.16-.29l-29.28,16.65s0,0,0,0l-132.52,75.35c-.1.06-.17.17-.17.29l-.02,4.38-.21.16-.03-.05-5.16,3.22,5.83-11.64h.01s.03-.08.03-.08l.15-.3,161.57-91.71,5.36,5.15-.09.14Z"/>
      <path d="M88.02,103.25l.46.16,148.39,51.86s.07.02.11.02c0,0,.01,0,.02,0l3.55-.18c.05,0,.1-.02.15-.04l130.34-73.18c.14-.08.2-.24.15-.39l-.47-1.5c-.03-.1-.11-.18-.21-.21L224.48,29.93s-.08-.02-.12-.02l-3.39.16s-.1.02-.14.04L87.66,101.12c-.13.07-.2.21-.17.36l.31,1.53c.02.11.1.21.21.25ZM234.49,153.33l-1.77-.37-134.64-48.13-1.22-.71-.1-.72.89-1.03,112.35-60.05s0,0,0,0l11.62-6.21,1.76-.62,2.74-.11,2.12.2,133.6,45.7.61.54.28.87-.73.88-123.6,69.33-1.51.44h-2.03s-.39,0-.39,0ZM240.43,154.46l-3.41.17-1.84-.64h1.77s.06,0,.09-.01l1.6-.47s.05-.02.07-.03l123.69-69.38s.07-.05.09-.08l.89-1.06c.07-.09.1-.2.06-.31l-.36-1.13c-.02-.06-.05-.11-.1-.15l-.73-.64s-.07-.05-.11-.06l-133.7-45.73s-.05-.01-.08-.02l-2.18-.21s-.03,0-.04,0l-2.8.11s-.07,0-.1.02l-1.84.64s-.03.01-.05.02l-11.64,6.22s0,0,0,0l-112.41,60.08s-.07.04-.09.08l-1.03,1.19c-.06.07-.09.17-.08.26l.14,1.03c.01.1.07.19.16.24l1.38.81s.04.02.06.03l83.98,30.02-40.56-14.08-52.2-18.46L221.07,32.47l3.25-.15,145.26,49.63-129.15,72.51ZM221.07,30.73l3.25-.15,145.81,49.78.34,1.09-.12.07L224.48,31.67s-.08-.02-.12-.02l-3.39.16s-.1.02-.14.04L88.38,102.53l-.19-.94L221.07,30.73Z"/>
      <path d="M326.86,113.23s-.03-.09-.06-.12l-.42-.51h0c-.05-.06-.12-.11-.21-.12l-.79-.1c-.05,0-.09.03-.14.04v-.03s-.96.33-.96.33c-.02,0-.04.01-.05.02l-23.87,13.43s-.05.03-.07.05l-.52.49.23.24-.2.26.41.32c.05.04.12.07.19.07l1.23.06s.01,0,.02,0c0,0,.01,0,.02,0l25.6-1.35s.03,0,.04,0l1.33-.24s.07-.02.11-.04l.88-.5c.07-.04.13-.11.15-.19l.2-.63-.31-.1.32-.09-3.1-11.31ZM325.65,113.08l.13.02v.6s-.14-.02-.14-.02v-.6ZM301.15,126.99l-.64-.03-.03-.02.21-.2,23.81-13.4.48-.17v.56s-.74.26-.74.26c-.02,0-.04.01-.05.02l-23.05,12.97ZM328.44,125.44l-1.25.22-24.65,1.3,21.96-12.36.85-.3.58.08.29.36,2.83,10.35-.62.35Z"/>
    </g>
  </g>
</svg>