<?xml version="1.0" encoding="UTF-8"?>
<svg id="Layer_2" data-name="Layer 2" xmlns="http://www.w3.org/2000/svg" viewBox="0 0 315.86 241.93">
  <g id="Layer_1-2" data-name="Layer 1">
    <g>
      <path d="M213.41,100.05l.23-.53.29-.52.37-.54.33-.47.43-.52.47-.46.53-.44.58-.42.63-.4.68-.37.73-.34.77-.31.8-.28.84-.25.87-.21.9-.18.92-.14.94-.11.9-.06,1.01-.03h.96s.96.05.96.05l.95.08.94.12.93.16.91.19.88.23.85.26.82.29.79.33.74.36.7.38.65.41.6.43.54.45.49.47.43.49.37.5.34.54.32.54.25.54.18.55.15.6.33-.08-.15-.61s0,0,0-.01l-.19-.56s0-.01,0-.02l-.26-.55s0-.01,0-.02l-.32-.55-.34-.55s0,0,0-.01l-.38-.52s0,0,0-.01l-.44-.5s0,0,0,0l-.5-.48s0,0,0,0l-.55-.46s0,0,0,0l-.61-.44s0,0,0,0l-.66-.41s0,0,0,0l-.71-.39s0,0,0,0l-.75-.36s0,0,0,0l-.8-.33-.8-.29-.85-.26-.88-.23-.99-.22-.84-.14-1.06-.14-.97-.08-.97-.05h-.97s-.97.02-.97.02l-.9.07-.9.1-1.04.16-.83.17-.91.22-.88.26-.86.3s0,0,0,0l-.78.32s0,0,0,0l-.74.35s0,0,0,0l-.69.38s0,0,0,0l-.64.4s0,0,0,0l-.59.43s0,0,0,0l-.54.45s0,0,0,0l-.48.47s0,0,0,.01l-.42.49s0,0,0,.01l-.36.51-.37.54s0,0,0,.01l-.3.54s0,.01,0,.02l-.24.55s0,.01,0,.02l-.35,1.16.33.1.34-1.15Z"/>
      <path d="M239.21,102.82l.07-.68-.34-.04-.07.67-.13.51-.07.14-.13.17-.48.42-.73.37-.82-.08s-.04,0-.06,0l-.34.1.05-1.69.05-.33.4-1.2.86-.56.92-.28-.1-.32-.95.29s-.03.01-.04.02l-.93.61s-.06.05-.07.09l-.42,1.27s0,.02,0,.03l-.06.36s0,.01,0,.02l-.05,1.81-.17.05s-.02,0-.03.01l-.43.22s-.05.04-.07.06l-.23.39s-.01.02-.02.03l-.37,1.11s0,.03,0,.05v.32s-.24.09-.24.09l-.7.18-.73.15-.13.02.21-8.24.18-1.02.34-.62.34-.69-.3-.15-.34.69-.35.64s-.02.03-.02.05l-.19,1.06s0,.02,0,.02l-.22,8.32-.34.06h-.12s-.49-.3-.49-.3c-.03-.02-.06-.03-.09-.03h-1.02s-.04,0-.06,0l-.57.22s-.06.04-.08.07l-.3.47s-.02.04-.02.07h0s-.53.08-.53.08l-.84.1-.85.02-.84-.07-.83-.14-.47-.1h0s0-.06-.02-.08l-.27-.48s-.04-.06-.08-.07l-.55-.25s-.04-.01-.06-.02l-1.04-.05s-.08,0-.11.03l-.38.29h-.13s-.01,0-.01,0l.14-8.41s0-.02,0-.02l-.14-1.07s0-.03-.01-.05l-.3-.65-.29-.71-.31.13.29.72.29.63.13,1.03-.14,8.35-1.28-.34-.69-.22-.11-.05v-.37s0-.03,0-.05l-.32-1.13s0-.02-.01-.03l-.2-.41s-.04-.05-.06-.07l-.41-.24s-.02-.01-.03-.01h-.03s.02-1.87.02-1.87c0,0,0-.01,0-.02l-.03-.36s0-.02,0-.03l-.37-1.29s-.03-.07-.06-.09l-.9-.66s-.03-.02-.04-.02l-.92-.34-.06.16-.05.16.9.33.83.61.34,1.22.03.33-.02,1.74-.48-.17s-.04-.01-.06,0l-.86.04-.35-.12-.31-.29s0,0-.01-.01l-.27-.2-.19-.23-.13-.33-.05-.29v-.02s0,0,0,0l-.04-.22-.33.06.04.22s0,0,0,0l.05.32s0,.02,0,.03l.09.23-.04.04.35.42s.02.02.03.03l.28.21.33.31s.04.03.06.04l.42.14s.04,0,.06,0l.85-.04.8.28.35.21.17.35.31,1.09v.2s-.19-.09-.19-.09l-.6-.36-.53-.41-.22-.28-.27.21.23.29.06-.05-.05.07.58.44s.01,0,.02.01l.62.37s.01,0,.02,0l.66.29s.01,0,.02,0l.68.22,1.52.41v-.02s.2.02.2.02c0,0,.01,0,.02,0h.2s.07,0,.1-.03l.38-.28.95.05.47.22.14.26-.23-.06-.26-.11-.02.04-.14-.04-.09.33.71.19.85.18.85.14s.01,0,.02,0l.86.07s0,0,.01,0c0,0,0,0,0,0l.86-.02s0,0,.01,0l.86-.1,1.69-.26-.05-.34-.13.02v-.03s-.27.07-.27.07l-.34.05.15-.24.49-.19h.94s.45.29.45.29v.06s.21,0,.21,0h0s.95-.14.95-.14l.76-.16.72-.18s.01,0,.02,0l.69-.26s.01,0,.02,0l.65-.34s.01,0,.02,0l.61-.41s0,0,0,0l.57-.43s0,0,.01-.01h0s-.08-.09-.08-.09l.25-.26-.24-.24-.49.51-.21.23-.61.41-.63.33-.09.03v-.16s.36-1.07.36-1.07l.2-.34.37-.19.81-.23.84.08s.07,0,.09-.02l.79-.41s.02-.01.03-.02l.68-.6-.03-.03.3-.39-.1-.08.09-.35s0-.01,0-.02Z"/>
      <path d="M245.02,102.67l-.19.69-.28.68-.36.67-.44.65-.52.63-.6.61-.57.49-.72.53-.83.53-.9.5-.96.46-1.02.42-1.03.36-1.15.35-1.15.29-1.19.24-1.22.19-1.24.14-1.26.09-1.27.04h-1.27s-1.12-.06-1.12-.06c0,0,0,0,0,0h-.15s-1.19-.11-1.19-.11l-1.17-.15-1.38-.23-1.2-.26-1.17-.31-1.13-.35-1.09-.4-1.02-.43-.98-.48-.92-.51-.85-.55-.78-.58-.62-.53-.57-.57-.55-.64-.47-.66-.39-.67-.3-.69-.22-.69-.13-.7-.05-.71-.34.02.05.72s0,.01,0,.02l.14.72s0,.01,0,.02l.22.71s0,.01,0,.02l.31.7s0,.01,0,.02l.4.69s0,0,0,.01l.48.67s0,0,0,.01l.56.65s0,0,0,.01l.51.5h0s.72.62.72.62c0,0,0,0,0,0l.79.58s0,0,0,0l.86.55s0,0,0,0l.93.52s0,0,0,0l.99.48,1.04.44s0,0,0,0l1.1.4,1.14.36,1.18.31,1.21.26,1.17.2,1.34.18,1.28.11h.15s0,0,0,0l1.13.05h1.29s1.28-.03,1.28-.03l1.27-.09,1.26-.14,1.23-.19,1.2-.24,1.17-.29,1.12-.34s0,0,0,0l1.08-.38s0,0,0,0l1.02-.42s0,0,0,0l.97-.46s0,0,0,0l.91-.5s0,0,0,0l.84-.54s0,0,0,0l.77-.57h0s.55-.48.55-.48c0,0,0,0,0,0l.61-.62s0,0,.01-.01l.53-.65s0,0,0-.01l.45-.67s0,0,0-.01l.37-.68s0-.01,0-.02l.28-.7s0-.01,0-.02l.2-.71s0-.01,0-.02l.11-.71-.34-.05-.11.7Z"/>
      <path d="M164.79,48.73l.11-.19-.16-.09.07-.51-.34-.05-.09.63h0s0,0,0,0l-.12.42-.18.23-.57.48-.11.05.08.15-.08-.15-.6.3-.78-.07s-.04,0-.07,0l-.08.03v-1.41s0,0,0,0l.07-.31.36-1.18.82-.54.89-.27-.05-.15.14.02.09-.8-.34-.04-.08.69-.78.24s-.03.01-.04.02l-.89.59s-.06.05-.07.09l-.38,1.25s0,0,0,.01l-.07.33s0,.02,0,.04v.02h0v1.52s-.39.12-.39.12c0,0-.01,0-.02,0l-.43.2s-.05.03-.07.06l-.24.37s-.02.03-.02.04l-.32,1.1s0,.03,0,.05v.12s-.4.14-.4.14l-.69.16-.11.02.02-6.12h-.17s.17,0,.17,0v-1.29s.15-.99.15-.99l.32-.55.37-.68-.3-.16-.26.49-.44.77s-.02.04-.02.06l-.16,1.04s0,.02,0,.03v1.3h0l-.02,6.19-.28.05-.87.15-.44-.28s-.06-.03-.09-.03l-.96.02s-.04,0-.06.01l-.56.21s-.06.04-.08.07l-.27.42-.64.1-.82.09-.81.02-.81-.06-.8-.14-.36-.08s0-.01,0-.02l-.25-.46s-.05-.06-.08-.07l-.52-.24s-.04-.01-.06-.02l-.38-.02-.58-.05-.05-7.45s0-.02,0-.02l-.15-1.05s0-.03-.01-.04l-.28-.62-.26-.66-.32.12.26.67s0,0,0,0l.27.6.15,1.01.05,7.57-.22.15-.38-.04-1.34-.35-.57-.18v-.3s0-.03-.01-.05l-.34-1.11s0-.01,0-.02l-.18-.38s-.04-.06-.07-.07l-.22-.13-.02-1.79v-.33s-.01-.03-.02-.04l-.38-1.27s-.03-.07-.06-.09l-.87-.64s-.03-.02-.04-.02l-.89-.33-.12.32.87.32.8.59.35,1.19v.31s.02,1.62.02,1.62l-.69-.24s-.04-.01-.06,0l-.84.03-.35-.12-.28-.26s0,0-.01-.01l-.24-.18-.15-.18-.11-.32-.07-.5-.34.04.07.52s0,.02,0,.03l.12.36s.02.04.03.05l.18.22s.02.02.03.03l.25.18.3.28s.04.03.06.04l.41.14s.05,0,.07,0l.83-.02.8.28.32.19.15.32.33,1.08v.13s-.34-.15-.34-.15l-.57-.34-.47-.36-.21-.26-.27.21.21.27h0s.54.42.54.42c0,0,.01,0,.02.01l.58.35s.01,0,.02,0l.62.27s.01,0,.02,0l.67.21,1.42.37h0s.22.02.22.02h.21s0,.02.01.02c.03,0,.07,0,.09-.03l.39-.26.59.05h0s.02-.18.02-.18v.18s.34.01.34.01l.44.2.1.18h0s-.3-.08-.3-.08l-.18-.08v.03s-.17-.04-.17-.04l-.08.33.66.16.81.17.82.14s.01,0,.02,0l.83.06s0,0,.01,0c0,0,0,0,0,0l.83-.02s.01,0,.02,0l.81-.09,1.66-.25-.05-.34-.11.02v-.02s-.14.04-.14.04l-.28.04.08-.12.48-.18.88-.02.41.26v.05s.19,0,.19,0h0s.91-.15.91-.15l.74-.14s.01,0,.01,0l.7-.17s.01,0,.02,0l.68-.24s.01,0,.02,0l.64-.31s.01,0,.02,0l.6-.38s0,0,0,0l.56-.4-.05-.07.26-.25-.24-.24-.49.48-.11.12-.12.09-.59.37-.53.26.29-1,.2-.31.37-.18.76-.24.8.07s.07,0,.09-.02l.64-.32h0l.13-.06s.02-.01.03-.02l.67-.57h-.01s.3-.39.3-.39h-.02s.13-.24.13-.24c0,0,0,0,0,0ZM161.83,48.57h0s-.1,0-.1,0h.1Z"/>
      <path d="M139.76,46.53l.18-.52.24-.5.65-1.02.36-.46.42-.45.47-.43.53-.41.58-.39.63-.37.49-.25-.08-.15.08.15.19-.1.72-.32.75-.29.78-.26.84-.24.85-.2.88-.17.89-.13.92-.1.91-.06.93-.03h.93s.92.05.92.05l.92.08.9.11.89.15.87.18.84.21.81.24.78.27.74.31.7.33.66.36.61.38.56.4.5.42.45.44.39.45.33.47.35.54.28.49.21.5.12.39.2.72.33-.09-.16-.6-.16-.52s0-.01,0-.02l-.22-.52s0-.01,0-.02l-.29-.51s0,0,0,0l-.35-.55-.34-.48s0,0,0-.01l-.4-.47s0,0,0-.01l-.46-.45s0,0,0,0l-.51-.43s0,0,0,0l-.57-.41s0,0,0,0l-.62-.39s0,0,0,0l-.66-.36s0,0,0,0l-.71-.34s0,0,0,0l-.76-.31-.79-.28-.83-.25-.85-.22-.83-.17-.89-.15-.91-.12-1-.09-.94-.04h-.94s-.94.02-.94.02l-.92.06s-.01,0-.01,0l-.84.09-.92.13-.96.18-.87.2-.82.23-.83.27-.77.3s0,0,0,0l-.73.32s0,0,0,0l-.19.1h0s-.49.25-.49.25c0,0,0,0,0,0l-.64.38s0,0,0,0l-.59.4s0,0,0,0l-.54.42s0,0,0,0l-.48.44s0,0,0,0l-.43.46s0,0,0,.01l-.37.47s0,0,0,.01l-.66,1.04s0,.01,0,.02l-.25.51s0,.01,0,.02l-.19.52s0,0,0,.01l-.16.6.33.09.15-.58Z"/>
      <path d="M170.42,47.75l-.13.65-.22.64-.3.63-.37.61-.47.62-.47.51s0,0,0,0l-.06.07-.5.46-.66.53-.05.03h0l-.71.49-.83.5-.89.46-.91.41-1.03.41-1.05.35-1.07.31-1.14.27-.93.18s0,0,0,0l-.22.04-1.19.18-1.21.13-1.22.09-1.23.04h-1.23s-1.22-.07-1.22-.07l-1.16-.1-1.26-.16-1.17-.2-1.15-.24-1.03-.26-1.15-.35-.97-.35-.93-.39-.96-.46-.92-.5-.8-.51-.73-.54-.55-.47-.53-.54-.5-.6-.42-.61-.34-.63-.26-.64-.18-.64-.1-.66-.34.05.1.67s0,.01,0,.02l.18.66s0,.01,0,.02l.27.65s0,.01,0,.02l.35.64s0,.01,0,.01l.43.63s0,0,0,.01l.51.61s0,0,0,.01l.46.46h0s.67.58.67.58c0,0,0,0,0,0l.74.54s0,0,0,0l.81.51s0,0,0,0l.87.48s0,0,0,0l.93.45s0,0,0,0l.99.41.95.34,1.18.36,1.03.27,1.25.27,1.15.19,1.25.16,1.19.1,1.27.06h1.24s1.24-.03,1.24-.03l1.23-.09,1.12-.12,1.29-.19.23-.04s0,0,0,0l.93-.18,1.14-.27,1.11-.32,1.06-.36,1.01-.39s0,0,0,0l.95-.43s0,0,0,0l.9-.47s0,0,0,0l.84-.5s0,0,0,0l.72-.49-.1-.14.1.14.05-.04s0,0,0,0l.7-.56h0s.49-.46.49-.46c0,0,0,0,0-.01l.06-.07s0,0,0,0l.48-.53s0,0,0-.01l.47-.62s0,0,0-.01l.39-.64s0-.01,0-.02l.31-.65s0-.01,0-.02l.22-.66s0-.01,0-.02l.14-.67s0-.01,0-.02l.05-.67-.34-.03-.05.66Z"/>
      <polygon points="198.84 137.89 202.8 136.13 202.67 135.82 198.7 137.58 193.13 140.05 193.26 140.36 198.84 137.89"/>
      <path d="M295.33,103.97l.25.64s.02.04.04.06l.59.58s.03.02.04.03l.86.46s.02.01.03.01l1.05.29s.02,0,.03,0l1.14.09s0,0,.01,0c0,0,.01,0,.02,0l1.12-.11s.02,0,.03,0l.98-.31s.03-.01.04-.02l.75-.47s.03-.02.05-.04l.45-.59s.03-.05.03-.08l.1-.65-.17-.03.16-.06-.26-.64s-.02-.04-.04-.06l-.59-.58s-.03-.02-.04-.03l-.86-.45s-.02-.01-.03-.01l-1.05-.29s-.02,0-.03,0l-1.14-.09s-.02,0-.03,0l-1.11.11s-.02,0-.03,0l-.98.3s-.03.01-.04.02l-.75.47s-.03.02-.04.04l-.45.59s-.03.05-.03.08l-.1.65.17.03-.16.06ZM296.16,102.81l.71-.44.94-.29,1.08-.11,1.11.09,1.02.28.82.43.54.53.23.57-.09.56-.4.53-.71.44-.95.29-1.08.11-1.11-.09-1.02-.28-.82-.43-.54-.54-.22-.57.09-.56.41-.53Z"/>
      <path d="M162.33,8.99l.19.57s.02.05.04.07l.5.51s.03.02.04.03l.77.4s.02.01.04.01l.97.25s.02,0,.03,0l1.06.08s0,0,.01,0c0,0,.01,0,.02,0l1.06-.1s.02,0,.03,0l.95-.27s.02,0,.04-.01l.75-.41s.03-.02.04-.03l.47-.52s.03-.04.04-.07l.15-.57-.16-.04.16-.05-.19-.57s-.02-.05-.04-.07l-.51-.51s-.03-.02-.04-.03l-.77-.4s-.02-.01-.03-.01l-.96-.25s-.02,0-.03,0l-1.06-.08s-.02,0-.03,0l-1.06.1s-.02,0-.03,0l-.95.27s-.02,0-.04.01l-.75.41s-.03.02-.04.03l-.47.52s-.03.04-.04.07l-.15.57.16.04-.16.05ZM163.21,7.98l.7-.39.91-.26,1.03-.1,1.03.08.93.24.73.38.46.46.16.48-.12.48-.42.47-.7.39-.91.26-1.03.1-1.03-.08-.93-.25-.73-.38-.46-.46-.16-.48.13-.48.42-.47Z"/>
      <path d="M203.14,65.58s.02.05.04.06l.54.55s.03.02.04.03l.81.43s.02.01.04.01l1.01.27s.02,0,.03,0l1.11.09s0,0,.01,0c0,0,.01,0,.02,0l1.1-.11s.02,0,.03,0l.98-.29s.03,0,.04-.02l.76-.45s.03-.02.04-.04l.47-.56s.03-.05.04-.07l.14-.62-.17-.04.16-.06-.21-.61h0s-.02-.05-.04-.06l-.54-.55s-.03-.02-.04-.03l-.81-.43s-.02,0-.04-.01h0s-1.01-.27-1.01-.27c-.01,0-.02,0-.03,0l-1.1-.09s-.02,0-.03,0l-1.09.11s-.02,0-.03,0l-.98.29s-.03,0-.04.02l-.76.45s-.03.02-.04.04l-.47.56s-.03.05-.04.07l-.14.61s0,.06,0,.09l.21.61ZM209.35,63.82l.47.48-.02,1.21-.32.38-.72.42h0s.04-2.78.04-2.78l.55.29ZM203.38,64.37l.43-.5.72-.42.94-.28,1.06-.1,1.07.08.87.23-.05,3.03-.6.18-1.06.1-1.08-.09-.98-.26-.77-.41-.49-.5-.18-.53.12-.53Z"/>
      <path d="M202.01,100.27l.5,2.1s0,.03.01.04l1.05,2.04s.01.02.02.03l1.57,1.94s.01.01.02.02l2.06,1.79s.01.01.02.01l2.5,1.61s.01,0,.02.01l2.89,1.38s.01,0,.02,0l3.21,1.13s.01,0,.02,0l3.46.84s.01,0,.02,0l3.64.54s.01,0,.02,0l.47.03h0l3.25.19s0,0,.01,0c0,0,0,0,0,0l3.32-.09h0s.4-.01.4-.01c0,0,0,0,.01,0l3.64-.42s.01,0,.02,0l3.48-.73s.01,0,.02,0l3.23-1.02s.01,0,.02,0l.92-.4h0s2-.88,2-.88c0,0,.01,0,.02,0l2.53-1.52s.01,0,.02-.01l.57-.48,1.51-1.25s.01-.01.02-.02l.67-.79h0s.93-1.1.93-1.1c0,0,.01-.02.02-.03l.57-1.06h0s.51-.95.51-.95c0-.01.01-.02.01-.04l.24-.93h0l.3-1.15s0-.03,0-.04v-1.2h0v-.91s0-.03-.01-.04l-.57-2.09s0-.03-.01-.04l-1.1-2.02s-.01-.02-.02-.03l-.83-.99h0l-.78-.92s-.01-.01-.02-.02l-.58-.49h0l-1.51-1.27s-.01,0-.02-.01l-2.51-1.57s-.01,0-.02,0l-2.88-1.34s-.01,0-.02,0l-3.18-1.09s-.01,0-.02,0l-3.42-.81s0,0-.01,0l-2.21-.32h0s-1.37-.2-1.37-.2c0,0,0,0-.01,0l-3.66-.21s0,0-.01,0l-1.79.05h0s-1.87.05-1.87.05c0,0,0,0-.01,0l-3.58.4s-.01,0-.02,0l-3.43.7s-.01,0-.02,0l-3.2.99s-.01,0-.02,0l-2.9,1.25s-.01,0-.02,0l-.2.12s0,0,0,0l-2.33,1.37s-.01,0-.02.01l-2.11,1.69s-.01.01-.02.02l-.59.67-1.05,1.19s-.01.02-.02.03l-1.13,1.99s-.01.02-.02.04l-.6,2.07s0,.03,0,.04l-.05,2.11h0s0,.03,0,.04ZM202.98,96.12l.25-.43.87-1.52,1.62-1.83,2.09-1.67,2.32-1.36s0,0,0,0l.19-.11,2.88-1.24,3.18-.98,3.41-.7,3.57-.4,3.65-.09,1.17.07,2.48.15,2.99.44.57.08,2.27.54h0s1.13.27,1.13.27l1.31.45h0s1.86.64,1.86.64l2.86,1.34.68.43h0s1.81,1.13,1.81,1.13l2.07,1.74.77.91h0s.82.98.82.98l1.09,1.99.56,2.05v1.2s.02.86.02.86l-.53,2.04-1.06,1.98-1.58,1.86-1.15.95h0s-.92.76-.92.76l-2.51,1.51-2.88,1.27-3.23,1.02-3.46.72-3.63.42-3.71.1-1-.06-2.71-.16-.57-.08h0s-3.05-.45-3.05-.45l-1.63-.4h0s-1.82-.44-1.82-.44l-1.92-.67h0s-1.28-.45-1.28-.45l-2.84-1.36-2.47-1.58-.04-.03-1.3-1.13-.74-.65-.77-.96-.77-.96-1.03-2.01-.49-2.06.05-2.06.59-2.03Z"/>
      <path d="M209.63,180.55l.62.35s.06.02.08.02c.06,0,.12-.03.15-.09.05-.08.02-.19-.06-.23l-.62-.35c-.08-.05-.18-.02-.23.06-.05.08-.02.18.06.23Z"/>
      <path d="M315.86,105.89s0-.05-.01-.07l-.41-1s-.02-.04-.04-.06l-.92-.9s-.01-.01-.02-.02L169.44,1.16s-.01,0-.02-.01l-1.2-.62s-.02-.01-.03-.01l-1.49-.39s-.02,0-.03,0l-1.64-.12s-.02,0-.03,0l-1.64.15s-.02,0-.03,0l-1.47.42s-.01,0-.02,0l-13.92,5.59s-.01,0-.02,0l-1.17.64s-.03.02-.04.03l-.74.8s-.03.04-.04.07l-.24.89s0,.03,0,.05v1.58s-2.04.82-2.04.82l-.69-.36s-.02-.01-.04-.01l-1.5-.4s-.02,0-.03,0l-1.65-.13s-.02,0-.03,0l-1.65.15s-.02,0-.03,0l-1.48.42s-.01,0-.02,0l-65.64,26.35s0,0,0,0l-.76.36c-.06.03-.1.09-.1.16l.02.63-.05-.04s-.05-.03-.07-.03l-.31-.06s-.06,0-.09,0l-8.13,3.26-.37.14s-.06.03-.08.06l-.25.37s-.03.06-.03.1l.65,23.51v.27s.02.05.03.07l.17.31s.01.02.02.03l.2.24s.02.02.03.03l4.08,3.19-55.34,22.67s0,0,0,0l-.78.37c-.06.03-.1.09-.1.16l.03.68-.08-.07s-.05-.03-.07-.03l-.31-.07s-.07,0-.1,0l-8.32,3.41-.37.14s-.06.03-.08.06l-.25.37s-.03.06-.03.1v.39s1.09,22.89,1.09,22.89l.02.26s0,.05.02.07l.18.31s0,.01.01.02l.19.25s.02.02.03.03l143.05,119.22s.02.01.02.02l.38.22.22.15s.01,0,.02.01l.87.44s.01,0,.02,0l.29.11s.04.01.06.01c0,0,0,0,0,0l.43-.02s.04,0,.06-.02l9.62-4.45,16.93-7.99c.06-.03.1-.09.1-.15v-.55s.93.75.93.75c.03.03.07.04.11.04.02,0,.05,0,.07-.02l76.7-35.71s.01,0,.02-.01l1.2-.77s.03-.02.04-.04l.73-.97s.03-.05.03-.07l.19-1.06s0-.02,0-.02l.38-12.4h0l.43-14.26s0-.04,0-.06l-.37-1.05s-.02-.04-.04-.06l-.43-.45,58.84-26.9s.01,0,.02-.01l1.16-.74s.03-.03.04-.04l.69-.92s.03-.05.03-.08l.15-1.02s0-.01,0-.02l.62-12.54h0s0,0,0,0l.71-14.42ZM314.81,120.29l-.14.94h0v.03s-.65.86-.65.86l-1.13.71-8.57,3.89-5.68,2.58h0s-3.86,1.75-3.86,1.75l-7.48,3.39-4.3,1.95-1.61.73h0s0,0,0,0l-15.25,6.92-27.64,12.54-.14.06-1.3.43-1.33.09-8.16-1.22-5.82-.87-.03.17.02-.17-.95-.14-.6-.23-.5-.48-.33-.67-.11-.76.03-1.58.7-.36,67.69-30.43s.01,0,.02-.01l1.19-.74s.03-.02.04-.04l.52-.68-.08,1.89-.16.97-.67.87-1.16.73c-.08.05-.1.15-.06.22.03.06.09.09.15.09.02,0,.05,0,.07-.02l11.73-5.28c.08-.04.12-.13.09-.22-.03-.08-.12-.13-.21-.1l-1.52.48-1.71.17-1.75-.14-1.61-.44-1.32-.7-71.38-51.52.05-2.81,71.27,51.33s.01,0,.02.01l1.35.72s.02.01.03.01l1.65.45s.02,0,.03,0l1.79.15s0,0,.01,0c0,0,.01,0,.02,0l1.75-.18s.02,0,.03,0l1.54-.48s.01,0,.02,0l14.32-6.44s.01,0,.02-.01l1.17-.73s.03-.02.05-.04l.47-.62-.64,13ZM251.3,163.63l.14.1.18.5-.05.28h0s-.04.23-.04.23l-.37.48-.78.49-9.24,4.23h0s-5.12,2.34-5.12,2.34l-1.03.33-.71.07h0s-.25.03-.25.03h-.16s-.82-.08-.82-.08h-.03s-.86-.26-.86-.26l-.59-.33,4.86-2.25c.06-.03.1-.08.1-.15l.02-.46.9.69s.07.04.1.04c.02,0,.05,0,.07-.02l2-.91-.07-.15.07.15,11.71-5.35ZM237.37,169.4l-.82-.63.08-2.28h0l.24-6.73s0-.02,0-.03v-.1h-.01l-.08-.61s0-.03-.02-.05l-.31-.64s-.02-.03-.03-.05l-.47-.47s0,0-.02-.01l-.04-.03v-.28s1.22-.08,1.22-.08c.01,0,.03,0,.04,0l.54-.18-.31,12.18ZM235.55,157.51l-.05-.04h.05s0,.04,0,.04ZM219.2,154.59l-.38-.15-.11-.11-.26-.53,1.12.85-.37-.06ZM218.19,151.55s0-.05-.02-.07l-.25-.45s-.03-.04-.05-.05l-.18-.14.5-.22.76.58-.03,1.61s0,.02,0,.03l.11.8s0,.04.02.05l.12.25-.52-.39-.3-.29v-.68s-.11,0-.11,0v-.11s-.07-.9-.07-.9ZM139.74,11.75h0s0,0,0,0l.9.07.81.22.69.36.09.05,66.3,47.92-.15.43-.1.29s0,0,0,0c0,.01,0,.03,0,.04,0,0,0,0,0,.01,0,0,0,.02,0,.03,0,0,0,0,0,0l.18,1.07s.01.04.02.06c0,.01.02.02.03.03l1.26,1.22s.02.02.04.03l1.8.99s.03.01.05.02l1.42.29h0s.41.09.41.09c0,0,.02,0,.03,0l1.49.06,71.25,51.5.58.58.19.5-.08.49-.36.47-.34.22h0s-.42.27-.42.27l-15.45,6.94s0,0,0,0l-1.84.83h0s0,0,0,0l-20.87,9.37-29.03,13.04-.33.15s0,0,0,0l-.71.32-1.89.86-5.89,2.7-12.29-9.42,5.75-2.56,2.93-1.3h0s.62-.27.62-.27c.05-.02.09-.08.1-.14s-.02-.12-.07-.15l-3.05-2.32-1.05-.8s-.11-.05-.17-.02l-3.54,1.57h0s-5.91,2.62-5.91,2.62l-9.8-7.51,1.59-.87h0s0,0,0,0l1.5-.85s.03-.02.04-.03l.98-.99s.04-.06.05-.1l.14-1h0l.02-.11-.17-.02.11-.13-1.08-.97s-.03-.02-.05-.03l-.75-.31-.76-.32s-.03-.01-.05-.01l-1.38-.11-.46-.04h0s-.03,0-.05,0l-1.77.39s-.02,0-.03.01l-1.35.59-.28.12-.44-.33-.16-1.52s0-.02,0-.03l-.48-1.82s-.02-.04-.03-.06l-1.29-1.69s-.02-.02-.03-.03l-1.45-1.16s-.02-.01-.03-.02l-1.91-.96.09-.69.12-1.06s0-.06-.01-.09l-.11-.24-.29-.65s-.02-.04-.04-.06l-.85-.78s-.03-.02-.04-.03l-1.22-.59s-.02,0-.04-.01l-.4-.09-1.07-.25s-.02,0-.03,0l-1.58-.06s-.02,0-.03,0h0s0,0,0,0l-.77.11-.77.11s-.02,0-.03,0l-1.58.54s0,0-.01,0l-1.82.79-21.44-16.43,3.75-1.8s.07-.06.09-.1l.52-1.7,1.89-6.11,4.28-1.9,2.64.73s.02,0,.03,0l.5.04h0s2.08.17,2.08.17c.01,0,.02,0,.03,0l2.57-.25s.02,0,.03,0l2.3-.69s.03,0,.04-.02l1.81-1.06s.03-.02.04-.04l1.14-1.32s.03-.04.04-.07h0s0,0,0,0l.36-1.45h0s0-.06,0-.08l-.42-1.54,2.61-1.11,2.29-.02s.04,0,.06-.01l1.85-.79s.06-.04.08-.08l.64-1.19,2.49-1,1.17-.5s.07-.04.08-.08l.42-.79c.03-.05.03-.12,0-.17h0s-.27-.43-.27-.43l-.22-.35s-.05-.06-.08-.07l-1.21-.47s-.04-.01-.06-.01h-1.47s-.04.02-.06.03l-1.17.5-2.44,1.06-2.28.02s-.04,0-.06.01l-1.85.78s-.06.04-.08.08l-.65,1.19-2.7,1.1-2.67-.69s-.02,0-.03,0l-2.57-.21s-.02,0-.03,0l-2.55.25s-.02,0-.03,0l-2.29.68s-.03,0-.04.02l-1.81,1.05s-.01.01-.02.02c0,0-.02.01-.02.02l-.62.71-.53.61s-.01.02-.02.02c0,.01-.02.03-.02.05l-.07.29-.3,1.16s0,.03,0,.05c0,.02,0,.03,0,.05l.4,1.31-.16.08-11.48-8.69-2.01-1.52s-.11-.04-.17-.02l-7.73,3.24h0s-2.88,1.21-2.88,1.21h0s0,0,0,0h0s-5.82,2.44-5.82,2.44l-17.32-13.27-5.36-4.11,6.58-2.71c.05-.02.09-.07.1-.12.01-.05,0-.11-.04-.15l-.51-.55h0s-3.06-3.33-3.06-3.33l-2.69-3.88-1.76-3.84-.91-3.86s-.03-.07-.06-.1l-3.75-2.85s-.07-.04-.11-.03l-12.95.72-4.61-3.44s-.02-.02-.04-.02l-.95-.4s-.03,0-.04-.01l-1.01-.16s-.02,0-.04,0l-.78.04s-.01,0-.02,0l-.77.14s-.02,0-.02,0l-.69.22s0,0-.01,0l-2.33.97h-.01s0,0,0,0l-1.68-1.28,7.01-2.9,66.51-26.73.98-.28.9-.08ZM187.37,129.08h0s.07.01.07.01h-.07ZM70.71,45.49l-.05-.49s0-.02,0-.03l-.14-.51s0-.02,0-.03l-.12-.24s.07.04.11.04c0,0,.01,0,.02,0v.22s.18,0,.18,0l-.15.08.47.92-.29.05ZM67.98,44.16l.04-.13.42-.27.75-.16.41-.07v.07s-.28.05-.28.05l-.79.17s-.04.01-.06.02l-.49.32ZM70.14,42.96l.15.3v.06s-.19-.38-.19-.38l-.03-.06v-.04s.07.12.07.12ZM69.93,43.55v-.2s.11.22.11.22c-.03-.02-.07-.03-.11-.03ZM70.85,44.4v-.03s.04.08.04.08v.05s-.04-.1-.04-.1ZM70.64,43.43v-.07s.45-.08.45-.08l.75-.1.15.05-.75.1-.6.1ZM71.04,42.94l-.48.08-.12-.23-.11-.2.23-.02.69.02.48.26-.7.09ZM69.12,43.27l-.79.17s-.04.01-.06.02l-.32.21v-.02s.22-.43.22-.43l.18-.13.38-.2.51-.14h.02s.17.3.17.3l.08.15-.38.06ZM68.21,44.41l.42-.27.75-.16.48-.08.11.22.21.45.14.48.07.66.17-.02.03.17.7-.12c.05,0,.1-.04.12-.09.02-.03.02-.06.02-.09h0s-.07-.67-.07-.67c0,0,0-.02,0-.03l-.14-.51s0-.02,0-.03l-.22-.46-.07-.13.37-.06.75-.1.39.12.17.44.05.33.04.65.34-.02-.04-.66s0,0,0-.01l-.05-.36s0-.03-.01-.04l-.21-.53s-.04-.07-.08-.09l-.12-.29s-.02-.03-.03-.05h0s-.26-.31-.26-.31c-.01-.02-.03-.03-.05-.04l-.8-.43s-.05-.02-.08-.02l-.74-.02s-.01,0-.02,0l-.62.05c-.08,0-.15.07-.16.15l-.03.33h-.08s-.14-.25-.14-.25c-.02-.04-.06-.07-.11-.08l-.13-.03s-.06,0-.08,0l-.57.15s-.02,0-.04.01l-.4.22s-.01,0-.02.01l-.22.16s-.04.04-.06.06l-.24.49s0,.02-.01.03l-.16.58s0,.02,0,.02l-1.14-.87,2.14-.9.67-.22.75-.13.75-.04.97.15.91.38,4.26,3.18-5.57.31-1.57-.19-1.52-1.16.07-.24ZM70.36,38.24v-.27s.23.18.23.18l-.23.09ZM70.8,38.43l.23.18-.76.31h0s-6.4,2.57-6.4,2.57c-.06.02-.1.07-.1.13s.02.12.06.16l.07.06h0s1.91,1.46,1.91,1.46h0s3.68,2.82,3.68,2.82c.02.02.05.03.08.03l1.63.2s.01,0,.02,0c0,0,0,0,0,0l6.34-.35h0s3.81-.21,3.81-.21h0s8.85-.49,8.85-.49l3.66,2.77.9,3.82s0,.02.01.03l1.77,3.86s0,.02.01.03l2.7,3.9s0,.01.01.02l3.41,3.71-6.63,2.73.06.16h0s-.1.13-.1.13h0s3.39,2.6,3.39,2.6l5.08,3.9,14.52,11.13s.07.04.1.04c.02,0,.04,0,.07-.01l5.91-2.48,1.69-.71,1.19-.5h0s0,0,0,0l7.64-3.2,1.93,1.46,11.56,8.75c.05.04.12.05.18.02l.39-.19c.07-.04.11-.12.09-.2l-.42-1.4.35-1.37,1.1-1.26,1.77-1.03,2.26-.67,2.52-.25.51.04h0s2.02.16,2.02.16l2.71.7s.07,0,.11,0l2.81-1.15s.07-.04.09-.08l.65-1.19,1.76-.75,2.28-.02s.05,0,.07-.01l1.57-.68.77-.34,1.27-.54h1.4s1.12.43,1.12.43l.4.65-.35.65-1.11.47-2.55,1.02s-.07.04-.09.08l-.64,1.2-1.76.75-2.29.02s-.04,0-.06.01l-2.78,1.18c-.08.03-.12.12-.1.2l.44,1.64-.34,1.37-1.09,1.27-1.77,1.03-2.27.68-2.54.25-.87-.07-1.68-.14-2.69-.75s-.08,0-.11,0l-4.4,1.95s-.08.06-.09.1l-1.91,6.19-.5,1.62-3.94,1.88c-.05.03-.09.08-.1.14,0,.06.02.12.07.15l21.74,16.66s0,0,0,0c0,0,.02.01.03.02,0,0,0,0,.02,0,.02,0,.03,0,.05,0,.02,0,.05,0,.07-.01l1.91-.83,1.56-.53,1.51-.22,1.55.06,1.06.25.38.09,1.18.57.8.73.27.61.09.2-.11,1.01-.11.81.17.02-.08.15,2.01,1.01,1.42,1.13,1.25,1.64.47,1.77.16,1.58h0s.03.09.07.12l.58.43s.07.03.1.03c.02,0,.05,0,.07-.01l1.71-.75,1.73-.38,1.79.15.73.31.51.21.22.09.99.89v.02s.02,0,.02,0h0s-.03,0-.03,0l-.13.94-.92.93-.06.04-1.12.63-2.11,1.17c-.05.03-.08.08-.09.14s.02.11.07.15l10.09,7.73s0,0,0,0c.01,0,.02.01.03.02,0,0,0,0,.01,0,.02,0,.03,0,.05,0,.02,0,.05,0,.07-.01l6-2.66h0s0,0,0,0l3.45-1.53h0s.97.74.97.74l2.82,2.15-.35.16.07.16-.07-.16-2.93,1.3-6.01,2.67c-.05.02-.09.08-.1.14,0,.06.02.12.07.15l12.6,9.65s.07.04.1.04c.02,0,.05,0,.07-.02l5.51-2.52.47-.21,1.71-.77.37.28-8.24,3.7-.59-.45-12.53-9.87,6.29-2.8-.07-.16.07.16,2.93-1.3-.05-.11h0s.05.11.05.11l.08-.03c.05-.02.09-.08.1-.14,0-.06-.02-.12-.07-.15l-3.27-2.49s-.11-.04-.17-.02h0s-9.46,4.19-9.46,4.19l-10.65-8.13,1.89-1.22,1.4-.79s.03-.02.04-.03l.82-.81s.04-.06.05-.09l.14-.8c.01-.06-.01-.12-.06-.16l-.84-.72s-.03-.02-.04-.03l-1.17-.5s-.03-.01-.05-.01l-1.38-.11s-.03,0-.05,0l-1.42.33s-.01,0-.02,0l-2.24.79-1.21-.71-.21-1.65s0-.01,0-.02l-.44-1.72s-.02-.04-.03-.06l-1.2-1.57s-.02-.02-.03-.03l-1.33-1.06s-.02-.01-.03-.02l-2.11-1.13.04-.95.12-.96s0-.06-.01-.09l-.32-.72s-.02-.04-.04-.06l-.69-.63s-.03-.02-.04-.03l-.99-.48s-.02,0-.04-.01l-1.2-.28s-.02,0-.03,0l-1.29-.05s-.02,0-.03,0l-1.26.18s-.02,0-.03,0l-1.41.49-2.49.89-22.25-17.04,3.88-2s.07-.06.08-.1l.62-1.98-.16-.05.16.05,1.81-5.83,4.98-2.15,3.02.76s.02,0,.03,0l2.29.18s.02,0,.03,0l2.28-.23s.02,0,.03,0l2.04-.61s.03,0,.04-.02l1.61-.94s.03-.02.04-.04l1.01-1.17s.03-.04.04-.07l.32-1.3-.16-.04.17-.03-.36-1.75,3.18-1.4,2.28-.02s.04,0,.06-.01l1.39-.59s.06-.04.08-.08l.65-1.2,2.63-1.09,1.02-.4s.07-.04.09-.08l.26-.48c.03-.05.03-.12,0-.17l-.3-.48s-.05-.06-.08-.07l-.74-.29s-.04-.01-.06-.01h-.9s-.05.01-.07.02l-.91.42-2.69,1.14-2.29.02s-.04,0-.06.01l-1.39.59s-.06.04-.08.08l-.65,1.2-3.37,1.32-3.02-.71s-.02,0-.03,0l-2.29-.18s-.02,0-.03,0l-2.27.22s-.02,0-.03,0l-2.04.61s-.03,0-.04.02l-1.61.93s-.03.02-.04.04l-1.02,1.17s-.03.04-.04.07l-.33,1.29.16.04-.17.04.35,1.49-1.14.46-13.54-10.23h0s0,0,0,0c-.05-.03-.11-.04-.16-.01l-16.44,6.89-23.44-17.97,6.6-2.75-.07-.16.12-.12-3.51-3.55-2.72-3.93-1.78-3.89-.86-3.77s-.03-.07-.06-.1l-3.29-2.58s-.07-.04-.11-.04l-18.74,1.09-2-.27-5.75-4.36-.4-.31,7.82-3.14ZM202.71,140.64l-.07.03.05-3.36,2.77,2.11-2.74,1.22h0ZM183.5,131.71l-.19-.54s0-.02-.02-.03l-.04-.06h.23s0-.3,0-.3l.23.37.13.37-.34.22s0-.01,0-.02ZM184.14,131.33l-.11-.31s0-.02-.02-.03l-.31-.5-.11-.16.37-.08.76-.14.38.1.11.28.07.2-1.15.64ZM182.38,129.36l.03-.19.24.34.22.32v.26s-.25-.38-.25-.38l-.24-.36ZM183.69,129.82l.76-.14.29.08s-.02,0-.04,0l-.81.15-.62.14s-.05.02-.07.04v-.15s.48-.11.48-.11ZM183.63,129.49l-.51.11-.18-.28-.19-.27.19-.02.79.02.63.31-.73.13ZM182.04,129.83l-.38.08-.81.21s-.04.01-.05.03l-.43.3v-.04s.19-.59.19-.59l.53-.39.5-.16.09.02.27.38.11.16ZM180.56,130.92s-.05.05-.06.09v.02s-.07.01-.07.01l.1-.29.44-.31.77-.2.41-.09v.13s-.21.05-.21.05l-.81.21s-.04.01-.05.03l-.51.36ZM182.49,130.14l.04.06h-.04s0-.06,0-.06ZM183.15,130.81v.09s-.05-.08-.05-.08h.05ZM149.3,87.94l1.02-.41v1.91s-1.02.44-1.02.44v-1.95ZM169.12,81.79l-.45-.17-.51-.16.65-.23.82.09h.03s-.26.22-.26.22l-.28.24ZM167.5,82.09h.02s-.48.22-.48.22l.12-.16.34-.06ZM168.27,81.99l-.62-.2.25-.05.65.21.09.03h-.38ZM169.61,81.81l.41-.33h.09s.05.19.05.19l-.13.11-.22.2h-.38s.19-.16.19-.16ZM171.19,81.5l-.24-.12s-.05-.02-.08-.02h-.28s-.07.02-.1.05l-.03.03-.04-.17c-.01-.06-.06-.11-.12-.13h0s-.58-.15-.58-.15c0,0-.01,0-.02,0l-.87-.09s-.05,0-.07,0l-.89.31s-.02.01-.04.02l-.42.27h0s-.06.05-.07.09l-.07.21-.2.04s-.08.03-.1.06l-.26.33s-.02.03-.03.05l-.08.24-2.17.96c-.06.03-.1.09-.1.15v3.2s-.89,1.02-.89,1.02l-1.56.92-2.01.6-2.25.22-2.25-.18-3.07-.77s-.07,0-.11,0l-1.49.65v-2.02h0s0-.03,0-.04l-.38-1.59.31-1.21.97-1.12,1.57-.91,2-.6,2.24-.22,2.26.18,3.06.72s.07,0,.1,0l3.47-1.37s.07-.04.09-.08l.65-1.2,1.3-.55,2.29-.02s.04,0,.06-.01l2.73-1.16.88-.4h.83s.65.25.65.25l.21.35-.18.34-.91.35-2.75,1.14s-.07.04-.08.08l-.65,1.2-.21.09ZM170.7,81.71l-.12.05.06-.05h.06ZM164.64,85.29l.04.22-.05.18v-.4ZM62.82,41.91v-.04s6.15,4.66,6.15,4.66c.02.02.05.03.08.03l2.06.28s.02,0,.03,0l18.7-1.09,3.2,2.51.85,3.73s0,.02.01.03l1.8,3.92s0,.02.01.03l2.74,3.96s.01.02.02.02l3.34,3.38-6.08,2.53-1.29-2.83-.86-3.79s-.03-.07-.06-.1l-3.28-2.59s-.07-.04-.12-.04l-7.65.45-19.64-15.07ZM90.07,56.87l2.15,1.7-4.98,2.07-4.37-3.35,7.2-.42ZM92.54,58.82l.72.57.85,3.74s0,.02.01.03l1.29,2.84-.24.1c-.06.03-.11.09-.1.16v.39s-7.5-5.76-7.5-5.76l4.98-2.07ZM95.42,66.92v-.31s23.4,17.95,23.4,17.95v.31s-23.4-17.95-23.4-17.95ZM119.16,85.14v-.55s16.18-6.79,16.18-6.79l.04,6.09h.34s-.04-6-.04-6l13.28,10.03v2.12s-1.91.83-1.91.83c-.05.02-.08.06-.09.11l-1.83,5.91h0l-.33,1.06-15.97-12.2-.21.27,16.07,12.27-.16.5-.66.34-16.14-12.34-.21.27,4.17,3.19-3.79,1.6-8.74-6.71ZM131.94,90.51l.18.05,1.79,1.37-1.13-.24-2.16-.61,1.33-.56ZM130.11,91.28l2.57.73s0,0,.01,0l1.84.4,1.54,1.17-4.1-.89-3.12-.89,1.26-.53ZM128.36,92.02l3.53,1s0,0,.01,0l4.81,1.05,2.47,1.89-2.38-.37-4.82-1.05-.89-.25-2.89-2.22.14-.06ZM131.9,94.88s0,0,.01,0l4.83,1.05s0,0,0,0l3,.46,3.79,2.9-3.07,1.58c-.06.03-.09.09-.09.15v.39s-8.54-6.56-8.54-6.56l.07.02ZM140.72,101.67v-.3s22.19,17,22.19,17v.33s-22.19-17.03-22.19-17.03ZM163.26,118.41l2.46-.88,1.4-.48,1.23-.18,1.25.05,1.16.27.95.46.64.59.29.65-.11.92s0,0,0,.01l-.04,1.06-.02,5.14-9.21-7.06v-.55ZM172.83,121.17l1.94,1.04,1.3,1.04,1.16,1.52.43,1.68.22,1.72c0,.05.04.1.08.13l1.27.74v2.17s-6.42-4.92-6.42-4.92l.02-5.12ZM179.57,129.05l2.2-.78,1.38-.32,1.33.11,1.12.48.75.64-.11.66-.65.64-.03-.1-.14-.38c-.02-.05-.06-.09-.12-.1h-.05s-.11-.31-.11-.31c0-.02-.02-.04-.04-.06h0s-.33-.33-.33-.33c-.01-.01-.03-.02-.05-.03l-.87-.43s-.05-.02-.07-.02l-.84-.02s-.02,0-.02,0l-.64.08c-.07,0-.13.06-.15.14l-.06.35-.15-.21s-.06-.06-.1-.07l-.2-.05s-.06,0-.09,0l-.57.19s-.03.01-.05.02l-.59.44s-.05.05-.06.09l-.16.55-.19.61s0,.03,0,.04l-.03.69v.13s-.3-.23-.3-.23l.02-2.41ZM180.19,131.6l.12.18.14-.09.16.05.19-.57.44-.31.77-.2.51-.11.17.26.3.48.18.5v.13s-1.22.79-1.22.79c-.05.03-.08.08-.08.14v.38s-1.69-1.3-1.69-1.3v-.35ZM182.22,133.21l10.58,8.08v.33s-10.58-8.12-10.58-8.12v-.3ZM193.14,141.32l9.21-4.08-.05,3.59-6.13,2.73c-.06.03-.1.09-.1.15v.42s-2.93-2.24-2.93-2.24v-.57ZM196.4,144.05l12.48,9.84.6.46v.02s-.05.02-.05.02l-13.04-10v-.33ZM219.59,62.77s0,.03,0,.04l-.02.85-.85-.85s-.03-.02-.04-.03l-1.76-.94s-.03-.01-.05-.02l-1.85-.35s-.01,0-.02,0l-1.46-.09L147.02,13.37l-.74-.76-.26-.82v-2.12s.75.78.75.78c0,0,.01.01.02.02l66.64,47.99s.06.03.09.03l1.48.09,1.83.35,1.72.92,1.13,1.13.13,1-.22.79ZM210.77,59.81l2.6,1.88s.06.03.09.03l1.5.09,1.82.35,1.72.91,1.06,1.06-.03,1.61-2.5-1.8s-.06-.03-.09-.03l-1.53-.06-1.78-.37-1.76-.97-1.11-1.08.03-1.61ZM289.52,121.98s.03-.05.03-.08l.17-1.03-.17-.03h.17s.13-3.28.13-3.28c0-.02,0-.05-.01-.07l-.34-.87,1.55,1.12s.01,0,.02.01l1.34.72s.02.01.03.01l1.64.45s.02,0,.03,0l1.78.15s.02,0,.03,0l1.31-.13-8.29,3.73.55-.72ZM146.93,7.1l1.13-.62,13.9-5.58,1.44-.41,1.61-.15,1.62.12,1.46.38,1.17.6,145,102.67.89.86.38.93-.14.92-.65.86-1.13.71-14.3,6.43-1.51.47-1.72.17-1.75-.14-1.61-.44-1.32-.7-71.43-51.44.2-.71s0-.04,0-.07l-.14-1.09s-.02-.07-.05-.1l-1.19-1.19s-.03-.02-.04-.03l-1.77-.94s-.03-.01-.05-.02l-1.86-.35s-.01,0-.02,0l-1.45-.09L147,10.21l-.74-.75-.25-.8.22-.8.69-.75ZM145.68,10.6v1.22s.17,0,.17,0l-.16.05.23.73-1.76-1.27s-.01,0-.02-.01l-.11-.06,1.65-.66ZM71.01,37.41l65.63-26.35,1.46-.41,1.62-.15,1.62.12,1.46.39,1.17.61,66.43,47.95-.25.72.16.06-.17.03.18,1.07s.02.07.05.09l1.26,1.22s.02.02.04.03l1.8.99s.03.01.05.02l1.82.38s.02,0,.03,0l1.5.06,71.4,51.53.88.88.36.94-.15.94-.67.87-1.15.72-67.69,30.43s0,0,0,0l-.7.36-.75-.57s-.03-.05-.05-.07l-.43-.33.52-.27.32-.14,2.76-1.24h0s47.14-21.17,47.14-21.17h0s1.84-.82,1.84-.82h0s15.46-6.95,15.46-6.95c0,0,.01,0,.02-.01l.8-.5s.03-.02.04-.04l.36-.46h0l.05-.06s.03-.05.03-.08l.1-.58s0-.06,0-.09l-.22-.57s-.02-.04-.04-.06l-.62-.62s-.01-.01-.02-.02l-71.3-51.53h0s-.06-.03-.09-.03l-1.46-.06h0s-.07,0-.07,0l-1.79-.37-1.76-.97-1.2-1.17-.02-.11-.15-.87.28-.8c.03-.07,0-.15-.06-.19h0s0,0,0,0L142.42,12.16s-.01,0-.02-.01l-.81-.42s-.02-.01-.04-.01l-.85-.22s-.02,0-.03,0l-.91-.07h0s-.02,0-.02,0h0s0,0,0,0c0,0-.02,0-.03,0l-.93.09s-.02,0-.03,0l-1,.29s-.01,0-.02,0l-66.24,26.62-1-.76.51-.24ZM61.78,66.05l-.14-.27v-.23s-.65-23.12-.65-23.12v-.33s.19-.28.19-.28l.32-.12,8.08-3.25.17.03-7.16,2.88c-.07.03-.11.09-.11.16h0s-.19.08-.19.08l.06.16-.1.13,147.07,112.82s.07.04.1.04c.02,0,.05,0,.07-.01l7.2-3.24-.07-.15.07.15.83-.37.13.1.21.38.06.86.03.44s0,0,0,.01l.11.8s0,.04.02.05l.35.72s.02.03.03.05l.54.53.15-.15,1.2.19.34.13s.02,0,.04,0l.97.14h0s5.82.87,5.82.87l.6.09,6.5,1.04.53.21.57.44.45.44.28.59.08.58.17-.02-.17.02v.09s-.23,6.72-.23,6.72h.17s-.17,0-.17,0l-.11,3.06-16.42,7.62-9.08,4.12-.27.12h-.34s-.24-.09-.24-.09l-.82-.46-.39-.25s0,0,0,0l-.21-.12L61.95,66.26l-.18-.21ZM154.88,214.63h-.02s-.34-.64-.34-.64v-.12s.16.14.16.14l1.05.85-.31-.04-.55-.19ZM154.9,213.75l-.38-.33v-1.05s-.22,0-.22,0l-.04-.49s0-.04-.02-.06l-.24-.46s-.03-.04-.04-.05l-.18-.15.52-.24.74.6v1.59s0,.02,0,.03l.14.79s0,.04.02.05h0s-.31-.24-.31-.24ZM11.91,93.76l20.05-8.22h0l35.49-14.55,21.35,16.65-1.52.17s0,0-.01,0l-3.39.68s-.01,0-.02,0l-3.19.96s-.01,0-.02,0l-2.92,1.22s-.01,0-.02,0l-2.58,1.45s-.01,0-.02.01l-1.22.91h0s-.97.73-.97.73c0,0-.01.01-.02.02l-1.75,1.81s-.01.02-.02.02l-1.27,1.93s-.01.02-.02.03l-.47,1.26-.28.76s0,.03,0,.04l-.22,2.05s0,0,0,0h0s0,.03,0,.04l.32,2.04s0,.03.01.04l.85,1.99s.01.02.02.03l1.37,1.89s.01.02.02.02h0s0,0,0,0l1.85,1.75s.01.01.02.02l2.3,1.56s.01,0,.02.01l1.35.67,1.35.67s.01,0,.02,0l3.03,1.09s.01,0,.02,0l3.3.82s0,0,0,0h0s0,0,0,0c0,0,0,0,0,0l2.33.35,1.16.17s0,0,.01,0l3.6.22s0,0,.01,0c0,0,0,0,0,0l3.63-.1s0,0,.01,0l3.58-.41s0,0,.01,0l3.44-.71s.01,0,.02,0l3.23-.99s.01,0,.02,0l2.94-1.25s.01,0,.02,0l2.59-1.48s.01,0,.02-.01h0s2.17-1.68,2.17-1.68c0,0,.01-.01.02-.02l.84-.9,45.65,35.6-1.58.18s-.01,0-.02,0l-3.48.73s-.01,0-.02,0l-3.26,1.03s-.01,0-.02,0l-2.97,1.3s-.01,0-.02,0l-2.61,1.55s-.01,0-.02.01l-2.19,1.77s-.01.01-.02.02l-1.73,1.94s-.01.02-.02.03l-1.22,2.07s-.01.02-.02.03l-.69,2.16s0,.03,0,.04l-.13,2.2h0s0,.03,0,.04l.42,2.19s0,.03.01.04l.97,2.13s.01.02.02.03l1.12,1.5h0l.39.52s.01.02.02.02l.23.21h0s.49.46.49.46l1.28,1.2s.01.01.02.02l2.46,1.68s0,0,0,0c0,0,0,0,0,0l2.86,1.44s.01,0,.02,0l3.19,1.18s.01,0,.02,0l3.46.88s.01,0,.02,0l3.64.56s.01,0,.02,0l3.74.23s0,0,.01,0c0,0,0,0,0,0l3.72-.1h0s.04,0,.04,0c0,0,.01,0,.02,0l.28-.03h0s3.41-.4,3.41-.4c0,0,.01,0,.02,0l.76-.16,2.77-.6s.01,0,.02,0l3.3-1.06s.01,0,.02,0l2.99-1.34s.01,0,.02,0l2.61-1.59s.01,0,.02-.01l2.17-1.8s.01-.01.02-.02l.82-.96,20.79,16.22s.01,0,.02.01l.21.12.39.25s0,0,0,0l.83.47s.01,0,.02,0l.28.12s.04.01.07.01c0,0,0,0,0,0h.41s.04-.02.07-.03l8.91-4.04,4.88-2.26.46.49.09.27h0l.09.26-.1.52-.14.18h0s-.24.31-.24.31l-.79.5-13.62,6.24s0,0,0,0l-1.88.86-47.97,21.95h0s-3.16,1.45-3.16,1.45h0s-2.57,1.18-2.57,1.18c0,0,0,0,0,0l-.95.44-2.04.95-.08.04h0s-5.63,2.62-5.63,2.62l-12.01-9.85,9.23-4.19h0s.31-.14.31-.14c.05-.02.09-.07.1-.13s-.02-.12-.06-.15l-4.01-3.26s-.12-.05-.18-.02l-9.69,4.38-9.58-7.85,1.65-.92,1.55-.89s.03-.02.04-.03l1.03-1.03s.04-.06.05-.09l.2-1.16c0-.06,0-.11-.05-.15h0s-1.05-1.01-1.05-1.01c-.01-.01-.03-.02-.05-.03l-1.49-.66s-.02,0-.03,0c0,0-.01,0-.02,0l-1.11-.09-.74-.06h0s0,0,0,0c-.01,0-.02,0-.03,0,0,0-.01,0-.02,0l-.33.07-.65.15h0s-.83.19-.83.19c-.01,0-.02,0-.03.01l-1.68.75-.43-.34-.1-1.59s0-.02,0-.03l-.41-1.9s-.01-.04-.03-.06l-1.23-1.76s-.02-.02-.03-.03l-1.42-1.21s-.02-.02-.03-.02l-1.89-1,.12-.73.16-1.1s0-.06,0-.09l-.36-.93s-.02-.04-.04-.06l-.82-.81-.12.12.08-.15-1.21-.61-.08.15.04-.16-1.47-.36s-.02,0-.03,0l-1.59-.07s-.02,0-.03,0l-1.56.23s-.02,0-.03,0l-1.61.56s0,0-.01,0l-1.86.82-20.94-17.17,2.83-1.38.82-.4h0s.23-.11.23-.11c.04-.02.07-.06.09-.1l.08-.23h0l.03-.08,2.64-7.86,2.89-1.31.68-.31h0s.82-.37.82-.37l2.63.77s.02,0,.03,0l2.59.22s.02,0,.03,0l.64-.07h0s1.95-.2,1.95-.2c.01,0,.02,0,.03,0l2.35-.72s.03,0,.04-.02l1.86-1.11s.03-.02.04-.03l1.2-1.38s.03-.04.04-.07l.42-1.52s0-.06,0-.08l-.36-1.62,2.68-1.16,2.3-.02s.05,0,.07-.01l1.89-.82s.06-.04.08-.07l.7-1.25,2.55-1.05,1.2-.52s.06-.04.08-.07l.46-.83c.03-.05.03-.11,0-.17h0s-.46-.82-.46-.82c-.02-.03-.05-.06-.08-.07l-1.2-.5s-.04-.01-.07-.01h-1.48s-.04.02-.07.03l-.31.14-.89.38-2.11.94-.38.17h-.14s-2.15.02-2.15.02c-.02,0-.04,0-.07.01h0s0,0,0,0l-1.89.82s-.06.04-.08.07l-.7,1.25-2.77,1.16-2.66-.72s-.02,0-.03,0l-2.58-.21s-.02,0-.03,0l-2.58.26s-.02,0-.03,0l-2.34.71s-.02,0-.04.02l-1.86,1.1s-.03.02-.04.03l-1.21,1.37s-.03.04-.04.07l-.22.76-.22.76s0,.03,0,.04c0,.01,0,.03,0,.04l.35,1.38-.05.03-.13.06-11.84-9.58-1.34-1.08s-.12-.05-.17-.02l-2.38,1.02-.84.36s0,0,0,0l-2.44,1.04h0s-11.16,4.77-11.16,4.77l-22.14-18.16,5.65-2.37h0s.23-.1.23-.1l.87-.37s.09-.06.1-.12c.01-.05,0-.11-.04-.15l-3.43-4.05-2.55-4.05-1.62-4.01-.76-4.03s-.03-.08-.06-.1l-2.35-1.91h0s-1.04-.84-1.04-.84l-.28-.22s-.07-.04-.12-.04l-3.07.18h0s-10,.57-10,.57l-4.5-3.59s-.02-.02-.04-.02l-.94-.41s-.03-.01-.04-.01l-1.01-.17s-.02,0-.04,0l-.79.04s-.01,0-.02,0l-.78.14s-.02,0-.02,0l-.7.23s0,0-.01,0l-2.38,1.02-.06-.05h0s-1.6-1.31-1.6-1.31l7.19-3.04,1.02-.42h0ZM79.31,103.21l.29-1.13.2-.53.27-.52.33-.53.33-.5.38-.48.44-.47.5-.45.55-.43.6-.41.65-.39.7-.36.74-.33.77-.3.81-.27.84-.24.87-.21.7-.14.19-.04.91-.14.92-.1.93-.07.93-.03h.93s.93.05.93.05l.92.08.9.12.89.15.86.19.84.22h.03s7.09,5.54,7.09,5.54l.11.28.17.58.33-.1-.11-.38,3.12,2.44-.17.46-.33.66-.41.65-.49.64-.39.42h0l-.18.19-.53.5-.66.53-.82.57-.85.52-.91.48-.97.45-1.02.41-1.07.37-1.02.3-1.23.31-1.18.23-1.2.19-1.22.14-1.23.09-1.03.03s0,0,0,0h-.2s-1.24,0-1.24,0l-1.23-.06-1.22-.11-1.2-.16-1.17-.21-1.14-.25-1.11-.3-1.07-.34-1.02-.39-.97-.42-.91-.46-.8-.47-.83-.56-.61-.48-.55-.51-.59-.63-.48-.62-.4-.64-.32-.65-.24-.66-.15-.67-.07-.69-.34.04.07.7s0,.01,0,.02l.16.69s0,.01,0,.02l.24.68s0,.01,0,.02l.33.67s0,.01,0,.02l.41.66s0,0,0,.01l.49.64s0,0,0,.01l.57.61s0,0,0,0l.51.47h0s.72.57.72.57c0,0,0,0,0,0l.79.54s0,0,0,0l.86.5s0,0,0,0l.92.47s0,0,0,0l.97.43s0,0,0,0l1.03.39,1.08.35,1.12.3,1.16.26,1.19.21,1.21.16,1.23.11,1.24.06h1.25s.22,0,.22,0c0,0,0,0,0,0l1.03-.03,1.25-.09,1.23-.14,1.21-.19,1.19-.24,1.1-.27,1.15-.33,1.12-.38s0,0,.01,0l1.03-.41s0,0,0,0l.98-.45s0,0,0,0l.92-.49s0,0,0,0l.86-.52s0,0,0,0l.8-.55s0,0,0,0l.73-.58h0s.52-.49.52-.49c0,0,0,0,0,0l.18-.2-.13-.11.13.11.39-.43s0,0,0-.01l.5-.65s0,0,0-.01l.42-.66s0,0,0-.01l.33-.68s0-.01,0-.02l.13-.36,2.26,1.76-1.22,1.31-.08.06-1.51-.4-.04.16-.13-.11-.4.44h0s-.04.06-.04.1l-.08.82.34.03.06-.61.89.28-.23.18h0s-.65.5-.65.5l-.02-.02-.14.13-2.25,1.29-2.66,1.13-2.92.9-.84.17-.13-.16-.13.1-.04-.16-.81.2h0c-.06.02-.11.06-.12.12l-.04.16-1.01.21-3.24.37-3.29.09-3.26-.2-.88-.13s.02-.1,0-.14c-.02-.05-.07-.08-.12-.09l-.83-.14c-.07-.01-.14.02-.17.08l-.08.12-1.08-.16-2.99-.74-2.74-.99-2.44-1.21-.81-.55.9-.36c.05-.02.09-.07.1-.13.01-.06,0-.12-.05-.16l-.45-.42s-.11-.06-.17-.04l-1.29.44-.31-.21-1.67-1.57-1.23-1.69-.76-1.77-.03-.21h.07s1.91.09,1.91.09h.59s0,0,0,0c.03,0,.05,0,.08-.02v.23s0,.5,0,.5h.34s0-.5,0-.5v-.74s.03-.36.03-.36l.1-.69.19-.75.28-.71.36-.7.45-.69.53-.67.14-.16.61-.65.41-.38-.11-.13.11.13.26-.24.76-.6.83-.56.89-.53.95-.5.25-.11s0,0,0,0l.76-.34,1.06-.42,1.11-.38,1.15-.33,1.19-.29,1.22-.24,1.24-.19,1.26-.14,1.27-.09,1.28-.04h1.28s.12.02.12.02l4.22,3.29-.07-.02-.91-.2-.84-.14-.98-.13-.85-.07-1.03-.05h-.95s-.95.02-.95.02l-.85.06-.94.1-1.01.15-.2.04-.71.14-.82.2-.87.25-.84.28-.8.32s0,0,0,0l-.75.34s0,0,0,0l-.7.37s0,0,0,0l-.66.39s0,0,0,0l-.61.42s0,0,0,0l-.56.44s0,0,0,0l-.51.46s0,0,0,0l-.45.48s0,0,0,.01l-.39.5s0,0,0,.01l-.31.48-.36.57s0,0,0,.01l-.27.53s0,.01,0,.02l-.21.54s0,.01,0,.02l-.29,1.15.33.08ZM110.79,108.1l-1.06-.34.16-.17,1.16.31-.26.2ZM75.95,108.97l.95-.33.18.17-.86.34-.27-.18ZM91.86,91.8h0s-.02-.14-.02-.14v-.04s.03.18.03.18h0ZM80.85,94.56l-.44-.3,1.17-.46,1.33-.45,1.38-.4,1.42-.34,1.46-.29,1.49-.23,1.51-.17h.07s-.92.1-.92.1l-1.25.19-1.23.24-1.2.29-1.16.34-1.08.36-1.12.44s0,0,0,0l-.76.34s0,0,0,0l-.25.11s0,0,0,0l-.38.2ZM80.5,94.74l-.23.12s0,0,0,0l-.07.04-1.69-.98.45-.23,1.56,1.04ZM78.26,94.18l1.59.92-.49.29s0,0,0,0l-.41.28-.59-.35s-.01,0-.01,0l-.27-.13.21-1.02ZM77.87,95.49l.3.15.45.26-.11.08s0,0,0,0l-.77.6s0,0,0,0l-.27.25h0s-.42.38-.42.38c0,0,0,0,0,0l-.58.62-.18.2s0,0,0,0l-.54.68s0,0,0,.01l-.46.7s0,0,0,.01l-.37.72s0,.01,0,.02l-.28.73s0,.01,0,.02l-.04.15-2.53-.22.02-.03.54-.83.64-.81.74-.78.21-.2.55-.5.26-.23.83-.66,1.08-.75,1-.59ZM74.28,102.45s0,.01,0,.02v.37s-.02.11-.02.11l-.13.08h-.54s-1.91-.09-1.91-.09c0,0,0,0-.01,0h-.12s-.11-.69-.11-.69l.05-.45,2.86.14-.07.52ZM74.41,101.6l-2.87-.14.07-.28,2.84.25-.04.16ZM93.34,91.44l-.06-.31.41.32h-.34ZM92.78,91.77l-.57.02-.14-1.23h.47s.25.18.25.18v1.03ZM91.87,90.22c-.08,0-.15.06-.16.14l-.18,1.13-1.4.1-1.52.17-1.5.23-1.47.29-1.44.35-1.39.4-1.34.45-1.28.5s0,0,0,0l-.1.04-1.02-.68c-.05-.03-.12-.04-.17,0l-.81.42s-.08.07-.09.12l-.26,1.31-1.01.6s0,0,0,0l-1,.68s0,0,0,0l-.92.72s0,0,0,0l-.28.25-.56.51-.22.21-.75.79s0,0,0,.01l-.65.82s0,0,0,.01l-.55.84s0,0,0,.01l-.08.16h-.02s.62-1.67.62-1.67l.66-1-.14-.09.14.09.48-.73,1.57-1.63,1.97-1.49,2.33-1.31,2.64-1.1,2.89-.87,3.07-.62,3.19-.36.84-.02.21.17h-.25ZM91.04,89.73s0,0-.01,0l-3.2.36s0,0-.01,0l-3.09.62s-.01,0-.02,0l-2.91.88s-.01,0-.02,0l-2.66,1.11s-.01,0-.02,0l-2.35,1.32s-.01,0-.02.01l-1.99,1.5s-.01.01-.02.02l-1.59,1.65s-.01.02-.02.02l-.48.74h0l-.67,1.02s-.01.02-.02.03l-.42,1.14.04-.33.67-1.8,1.13-1.73,1.57-1.63,1.98-1.49,2.34-1.31,2.64-1.1,2.89-.87,3.08-.62,2.71-.3.92.72h-.43ZM87.8,88.97s0,0-.01,0l-3.09.62s-.01,0-.02,0l-2.91.88s-.01,0-.02,0l-2.66,1.11s-.01,0-.02,0l-2.35,1.32s-.01,0-.02.01l-2,1.5s-.01.01-.02.02l-1.59,1.65s-.01.02-.02.02l-1.15,1.76s-.01.02-.02.03l-.68,1.84s0,.03,0,.04l-.2,1.87.15.02h0s-.15.03-.15.03l.29,1.86s0,.03.01.04l.78,1.81s.01.02.02.03l1.25,1.72s.01.02.02.02l1.69,1.59s.01.01.02.02l2.1,1.42s.01,0,.02.01l2.45,1.22s.01,0,.02,0l2.76,1s.01,0,.02,0l3,.74s.01,0,.02,0l1.26.19s0,0,0,0l1.91.29s0,0,.01,0l3.28.2s0,0,.01,0c0,0,0,0,0,0l3.3-.09s.01,0,.02,0l3.25-.37s.01,0,.02,0l3.13-.64s.01,0,.02,0l2.94-.9s.01,0,.02,0l2.68-1.14s.01,0,.02,0l2.35-1.35s.01,0,.02-.01l.73-.57-.1-.13.1.13,1.25-.96s.01-.01.02-.02l1.25-1.34,1.13.88-.81.87-1.73,1.34h0s0,0,0,0h0s-.42.33-.42.33l-2.57,1.47-2.92,1.24-3.21.98-3.43.7-3.56.4-3.62.1-3.59-.22-3.47-.52-3.28-.81-3.01-1.09-2.68-1.33-2.28-1.55-1.83-1.73-1.35-1.86-.83-1.95-.31-2,.22-2.01.28-.74.46-1.24,1.25-1.9,1.73-1.79,2.17-1.63,2.57-1.44,2.9-1.21,3.17-.96,3.38-.68,1.86-.21.99.77-2.37.26ZM151.28,159.13l.17-.59.19-.57.25-.56.32-.55.35-.52.38-.53.43-.5.49-.49.55-.46.6-.44.65-.42.7-.39.75-.36.79-.33.82-.29.86-.26.89-.22.91-.19.93-.15.95-.11.96-.07.97-.03h.96s.96.06.96.06l.96.09.94.13.93.16.9.2.23.06,8.43,6.58.11.4.17.6.33-.09-.16-.56,3.22,2.51-.07.22-.31.71-.35.62h0s-.04.08-.04.08l-.47.68-.55.66-.63.64-.61.53-.74.55-.86.56-.92.52-.98.48-1.04.44-1.09.39-.48.15s0,0,0,0l-.65.2-1.17.3-1.17.24-1.23.2-1.27.15-1.31.1-1.28.04h-1.28s-1.28-.07-1.28-.07l-1.27-.12-1.25-.17-1.23-.22-1.2-.27-1.15-.32-1.14-.37-1.05-.4-1.05-.47-.96-.5-.9-.53-.84-.57-.67-.53-.62-.57-.62-.66-.53-.67-.45-.69-.36-.7-.28-.72-.19-.72-.09-.59v-.53s-.35,0-.35,0v.41s0,0,0,0l.11.75s0,.01,0,.02l.2.74s0,.01,0,.02l.29.73s0,.01,0,.02l.37.72s0,0,0,.01l.46.7s0,0,0,.01l.54.68s0,0,0,.01l.62.66s0,0,.01,0l.56.51h0s.77.62.77.62c0,0,0,0,0,0l.84.58s0,0,0,0l.91.54s0,0,0,0l.97.5s0,0,0,0l1.04.46,1.08.42s0,0,0,0l1.14.37,1.18.32,1.21.27,1.19.21,1.32.18,1.28.12,1.29.06h1.3s1.29-.03,1.29-.03l1.29-.1,1.27-.15,1.2-.19,1.28-.26,1.13-.29.71-.21s0,0,0,0l.5-.15,1.1-.4s0,0,0,0l1.05-.44s0,0,0,0l.99-.48s0,0,0,0l.93-.52s0,0,0,0l.87-.56s0,0,0,0l.8-.6h0s.59-.51.59-.51c0,0,0,0,0,0l.64-.65s0,0,.01-.01l.56-.67s0,0,0-.01l.48-.7s0,0,0-.01l.04-.08s0,0,0,0l.35-.63s0-.01,0-.02l.31-.73s0-.01,0-.02l.03-.11,2.17,1.7-1.15,1.35-1.38-.38-.04.16-.13-.11-.4.48h0s-.04.06-.04.09l-.09.84.34.04.07-.63.8.26-1.14.95-2.36,1.44-2.7,1.21-2.98.96-.4.09s0,0,0,0l-.1.02-.15-.18-.13.11-.04-.16-.83.21h0c-.06.02-.11.06-.12.12l-.05.19-1.37.29-3.34.39-3.4.09-3.39-.21-.65-.1.06-.14s.02-.1,0-.15c-.02-.05-.07-.08-.12-.09l-.86-.15c-.07-.01-.14.02-.18.08l-.14.25-1.4-.22-3.13-.8-2.89-1.06-2.13-1.07.04-.04-.26-.22-.08.1-.14-.07-.83-.56,1.22-.51c.05-.02.09-.07.1-.13s-.01-.12-.05-.15l-.49-.45s-.11-.06-.17-.03l-1.62.58-.38-.26-1.8-1.69-1.35-1.82-.87-1.91-.07-.39h.35s1.98.09,1.98.09h.62s0,0,0,0c.03,0,.06,0,.09-.02l.06-.04v.07s.34,0,.34,0v-.5s.04-.37.04-.37l.07-.76.16-.8.25-.76.34-.75.43-.74.51-.71.61-.71.15-.15.68-.67.75-.64.83-.6.9-.57.96-.53,1.02-.49,1.08-.45,1.13-.4,1.18-.36,1.21-.31,1.25-.26,1.27-.2,1.31-.15,1.31-.1,1.32-.04h.99s4.37,3.42,4.37,3.42l-.33-.07-1.03-.19-.96-.13-.97-.09-.98-.05h-.97s0,0,0,0l-.98.03-.97.07-.96.11-.95.15-.93.19-.82.21-.89.27-.9.32s0,0,0,0l-.8.33s0,0,0,0l-.76.36s0,0,0,0l-.71.39s0,0,0,0l-.66.42s0,0,0,0l-.61.45s0,0,0,0l-.56.47s0,0,0,0l-.5.49s0,0,0,.01l-.44.51s0,0,0,.01l-.38.54-.36.53s0,0,0,0l-.33.56s0,.01,0,.02l-.26.57s0,.01,0,.02l-.19.59-.17.6.33.09ZM183.92,164.99l-.96-.31.17-.2,1.06.29-.27.22ZM160.1,170.61l-.54-.08.02-.03.53.09v.02ZM147.71,166.08l1.29-.46.22.2-1.18.49-.33-.23ZM163.61,147.59l-.05-.27.06-.3.09.56h-.1ZM163.25,147.5l.02.11-.87.06-1.31.15-1.25.2-1.3.26s0,0,0,0l-1.23.31-1.19.36-1.14.41s0,0,0,0l-1.09.45s0,0,0,0l-1.03.49s0,0,0,0l-.38.21-.63-.43,1.22-.5,1.35-.48,1.41-.43,1.46-.37,1.5-.31,1.44-.23,1.64-.19,1.42-.11ZM152.12,150.72l-.25.14s0,0,0,0l-.07.04-1.85-1.09.47-.26,1.72,1.16ZM149.71,150.08l1.76,1.03-.52.33s0,0,0,0l-.39.29-.77-.45s0,0-.01,0l-.3-.15.24-1.05ZM149.28,151.42l.33.16.64.38-.15.11s0,0,0,0l-.76.64s0,0,0,0l-.61.59-.24.24s0,0,0,0l-.61.71s0,0,0,.01l-.53.73s0,0,0,.01l-.44.75s0,.01,0,.02l-.35.77s0,.01,0,.02l-.26.78s0,.01,0,.02l-.03.15-2.82-.26.06-.14.52-.89.63-.87.73-.84.82-.81.21-.19.91-.77,1-.73,1-.64ZM146.01,159l-.02.38v.04s-.2.12-.2.12h-.56s-1.98-.1-1.98-.1c0,0,0,0-.01,0h-.39s.19-1.17.19-1.17l3.03.15-.05.59ZM143.16,157.6l2.99.27-.04.2-3.01-.15.07-.32ZM165.16,147.53v-.1s.33,0,.33,0l.13.1h-.46ZM164.62,146.76l.03.79-.6.02-.22-1.37h.06s.72.56.72.56ZM163.47,146l-.22,1.15-1.37.1-1.66.19-1.54.25-1.51.31-1.47.37-1.42.43-1.36.49s0,0,0,0l-1.3.54s0,0,0,0l-.11.05-.98-.66c-.05-.04-.12-.04-.18,0l-.82.45s-.07.06-.08.11l-.31,1.34-1.03.65s0,0,0,0l-1,.73s0,0,0,0l-.92.78-.22.2-.83.82s0,0,0,.01l-.74.85s0,0,0,.01l-.63.88s0,0,0,.01l-.53.9s0,.01,0,.02l-.12.25h0c-.09,0-.16.05-.18.13l-.11.5-.02.04s0,.01,0,.02l-.08.24.05-.78.61-1.93,1.09-1.86,1.55-1.75,1.98-1.59,2.36-1.4,2.68-1.18,2.95-.93,3.15-.67,3.29-.38.87-.02.31.24s-.05.06-.06.1ZM162.34,145.36s-.01,0-.02,0l-3.3.38s-.01,0-.02,0l-3.17.67s-.01,0-.02,0l-2.97.94s-.01,0-.02,0l-2.7,1.19s-.01,0-.02,0l-2.38,1.42s-.01,0-.02.01l-2,1.61s-.01.01-.02.02l-1.57,1.77s-.01.02-.02.03l-1.11,1.89s-.01.02-.02.03l-.3.95v-.05s.61-1.93.61-1.93l1.09-1.86,1.55-1.75,1.98-1.59,2.36-1.4,2.68-1.18,2.95-.93,3.16-.67,2.8-.32.94.73h-.47ZM159.02,144.6s-.01,0-.02,0l-3.17.67s-.01,0-.02,0l-2.97.94s-.01,0-.02,0l-2.7,1.19s-.01,0-.02,0l-2.38,1.41s-.01,0-.02.01l-2,1.61s-.01.01-.02.02l-1.57,1.77s-.01.02-.02.03l-1.11,1.89s-.01.02-.02.03l-.62,1.97s0,.03,0,.04l-.12,2.01h.07s0,.03,0,.03h-.07s.39,2.01.39,2.01c0,.01,0,.03.01.04l.89,1.94s.01.02.02.03l1.37,1.85s.01.02.02.02l1.82,1.71s.01.01.02.02l2.24,1.53s.01,0,.02.01l2.6,1.31s.01,0,.02,0l2.91,1.07s.01,0,.02,0l3.15.8s.01,0,.02,0l3.31.51s.01,0,.02,0l3.41.21s0,0,.01,0c0,0,0,0,0,0l3.42-.09s.01,0,.02,0l3.36-.4s.01,0,.02,0l2.8-.6s0,0,0,0l.41-.09s.01,0,.02,0l3-.97s.01,0,.02,0l2.72-1.22s.01,0,.02,0l2.37-1.45s.01,0,.02-.01l1.98-1.64s.01-.01.02-.02l1.23-1.44,1.24.97-.8.94-2.15,1.79-2.59,1.58-2.97,1.33-3.28,1.06-.75.16-2.76.59-3.67.43-3.74.1-3.73-.23-3.63-.56-1.72-.44-1.72-.44-1.59-.58-1.59-.58-2.84-1.43-2.44-1.67-.75-.71-1.23-1.15-.38-.51h0l-1.1-1.49-.96-2.1-.42-2.15.13-2.16.67-2.12,1.2-2.04.19-.21h0s1.52-1.71,1.52-1.71l2.17-1.75,2.59-1.54,2.95-1.3,3.24-1.02,1.41-.3h0s2.06-.43,2.06-.43l.63-.07h0s1.29-.15,1.29-.15l1.09.85-2.46.29ZM9.99,98.98v-.09s.46-.08.46-.08l.76-.1.2.06s-.02,0-.03,0l-.77.11-.61.11ZM10.4,98.47l-.48.08-.11-.24-.12-.24.27-.02.68.03.51.28-.76.1ZM9.21,98.58l.49,1.07c.03.06.09.1.15.1,0,0,0,0,0,0v.24s.18,0,.18,0l-.15.07.44.98-.32.06-.06-.49s0-.02,0-.02l-.14-.52s0-.02,0-.02l-.2-.48-.16-.35c-.03-.06-.09-.1-.16-.1v-.24s-.02-.04-.03-.06l-.1-.21h.05ZM7.3,99.72l.04-.14.42-.27.76-.16.42-.07v.09s-.31.05-.31.05l-.8.17s-.04.01-.06.02l-.48.31ZM8.45,98.81l-.8.17s-.04.01-.06.02l-.31.2v-.03s.24-.45.24-.45l.18-.12.4-.22.5-.14.14.29.1.21-.4.07ZM7.52,99.98l.42-.27.76-.16.48-.08.1.22.2.47.13.49.08.66.17-.02.03.17.71-.12c.05,0,.1-.04.12-.09.02-.03.02-.07.02-.1h0s-.07-.67-.07-.67c0,0,0-.02,0-.02l-.14-.52s0-.02,0-.02l-.2-.48-.07-.15.39-.07.76-.1.4.11.18.43.04.34.06.65.34-.03-.06-.66-.04-.37s0-.03-.01-.05l-.22-.52s-.02-.03-.03-.05l-.15-.35s-.01-.03-.02-.04h0s-.25-.32-.25-.32c-.01-.02-.03-.03-.05-.05l-.8-.44s-.05-.02-.07-.02l-.73-.03s-.01,0-.02,0l-.62.05c-.08,0-.15.07-.16.16l-.02.32-.14.02-.11-.24s-.05-.07-.09-.08l-.12-.04s-.07-.01-.11,0l-.58.16s-.03,0-.04.02l-.43.24s0,0-.01,0l-.22.15s-.04.04-.05.06l-.26.51s0,.02-.01.03l-.15.58s0,.03,0,.05v.08s-1.17-.96-1.17-.96l2.21-.94.69-.23.76-.14.76-.04.97.16.9.4,4.18,3.34-5.65.32-1.57-.2-1.46-1.19.09-.3ZM9.95,93.54v-.27s.21.18.21.18l-.21.09ZM10.35,93.75l.23.19-.74.31h0s-6.61,2.71-6.61,2.71c-.06.02-.09.07-.1.13,0,.06.01.12.06.16l.07.06h0s0,0,0,0l1.95,1.6s0,0,0,0l3.5,2.87s.05.03.09.04l1.63.21s.01,0,.02,0c0,0,0,0,0,0l6.11-.35,13.06-.75,3.57,2.89.75,3.99s0,.02,0,.03l1.63,4.04s0,.02.01.03l2.57,4.08s0,.01.01.02l3.29,3.88-.58.24h0l-.06.02-6.16,2.59.07.16-.11.13,22.44,18.4h0s0,0,0,0c.03.03.07.04.11.04.02,0,.05,0,.07-.01h0s0,0,0,0l11.26-4.81-.07-.16.07.16,2.44-1.04s0,0,0,0l3.12-1.33,1.26,1.02,11.92,9.65s0,0,0,0c0,0,.02,0,.02.01,0,0,.01,0,.02,0,0,0,.02,0,.03,0,0,0,.01,0,.02,0,0,0,0,0,0,0,0,0,.01,0,.02,0,0,0,0,0,.01,0,.01,0,.03,0,.04-.01l.4-.2c.07-.04.11-.12.09-.19l-.37-1.47.41-1.44,1.17-1.32,1.82-1.07,2.3-.7,2.55-.26,2.54.21,2.7.73s.08,0,.11,0h0s0,0,0,0l2.88-1.2s.06-.04.08-.07l.7-1.25,1.81-.78,2.29-.02h0s.05,0,.07-.01l1.26-.56,1.07-.47,1.35-.59h.02s1.41-.02,1.41-.02l1.11.46.38.68-.38.69-1.14.5-2.61,1.07s-.07.04-.08.07l-.7,1.25-1.81.78-2.24.02h-.06s-.05,0-.07.01l-2.84,1.23c-.07.03-.12.11-.1.19l.38,1.71-.4,1.44-1.16,1.33-1.82,1.08-2.13.66-.18.05h-.08s-2.48.26-2.48.26l-2.56-.21-2.68-.78s-.08,0-.12,0l-1.94.88-2.36,1.07h0s-.22.1-.22.1c-.04.02-.08.06-.09.1l-2.38,7.08h0s-.31.92-.31.92h0l-.05.16-.16.08h0s-3.56,1.74-3.56,1.74h0s-.32.16-.32.16c-.05.03-.09.08-.09.13,0,.06.02.11.06.15l21.23,17.4s.07.04.11.04c.02,0,.05,0,.07-.01l1.95-.86,1.59-.56,1.52-.23,1.56.06,1.43.35,1.17.59.78.77.33.85-.15,1.06-.14.84h0c-.01.08.02.15.09.19l1.98,1.05,1.39,1.18,1.2,1.72.4,1.86.1,1.65h0s.03.09.06.12l.57.45s.12.05.17.02l1.75-.78,1.76-.4,1.8.15,1.44.64.97.93-.17,1.01-.97.98-.07.04-1.45.83h0s-1.56.87-1.56.87h0s-.3.17-.3.17c-.05.03-.08.08-.09.13,0,.06.02.11.06.15l9.85,8.08s.12.05.18.02l9.69-4.38,3.71,3.02-9.36,4.25h0s-.18.08-.18.08h0s0,0,0,0c-.05.02-.09.07-.1.13,0,.06.02.12.06.15l12.3,10.09s.07.04.11.04c.02,0,.05,0,.07-.02l5.72-2.67,2.16-.99.36.3-8.46,3.88-.57-.47-12.24-10.33,9.55-4.33-.07-.15.11-.13-3.19-2.6s-.12-.05-.18-.02h0s-9.69,4.38-9.69,4.38l-10.41-8.5,1.97-1.28,1.45-.82s.02-.02.04-.03l.86-.85s.04-.05.05-.09l.17-.84c.01-.06,0-.12-.05-.16l-.82-.75s-.03-.02-.04-.03l-1.16-.52s-.04-.01-.06-.01l-1.39-.12s-.04,0-.05,0l-1.44.34s-.01,0-.02,0l-2.29.83-1.19-.74-.14-1.72s0-.01,0-.02l-.38-1.8s-.01-.04-.03-.06l-1.14-1.64s-.02-.02-.03-.03l-1.29-1.11s-.02-.01-.03-.02l-1.89-1.07s0,0,0,0l-.18-.1.07-.96.16-1.03s0-.06,0-.09l-.29-.75s-.02-.04-.04-.06l-.67-.66s-.03-.02-.04-.03l-.98-.5s-.02-.01-.04-.01l-1.19-.29s-.02,0-.03,0l-1.29-.05s-.02,0-.03,0l-1.28.19s-.02,0-.03,0l-1.44.51-2.54.92-21.74-17.81,4.01-2.1s.07-.05.08-.1l2.76-8.17,5.11-2.25,3.01.79s.02,0,.03,0l2.3.19s.02,0,.03,0l2.3-.24s.02,0,.03,0l2.08-.64s.03,0,.04-.02l1.66-.98s.03-.02.04-.03l1.07-1.23s.03-.04.04-.07l.37-1.36-.16-.05.17-.03-.29-1.84,3.27-1.47,2.3-.02s.05,0,.07-.01l1.42-.62s.06-.04.08-.07l.7-1.26,2.76-1.16.98-.39s.07-.04.09-.08l.28-.5c.03-.05.03-.11,0-.17l-.28-.5s-.05-.06-.08-.07l-.73-.3s-.04-.01-.07-.01h-.9s-.05.01-.07.02l-.93.43-2.76,1.19-2.3.02s-.05,0-.07.01l-1.42.61s-.06.04-.08.07l-.7,1.25-3.45,1.38-3.01-.74s-.02,0-.03,0l-2.3-.19s-.02,0-.03,0l-2.29.23s-.02,0-.03,0l-2.08.63s-.02,0-.04.02l-1.66.97s-.03.02-.04.03l-1.07,1.22s-.03.04-.04.07l-.39,1.35.16.05-.17.03.3,1.57-1.17.48-13.23-10.68h0s0,0-.01-.01c-.05-.03-.11-.04-.16-.01l-16.83,7.2-22.89-18.78,6.77-2.88-.07-.16.13-.11-3.39-3.71-2.58-4.1-1.64-4.07-.72-3.94s-.03-.07-.06-.1l-3.21-2.7s-.08-.04-.12-.04l-18.92,1.14-2-.28-5.56-4.5-.46-.38,8.02-3.29ZM139.22,197.03l2.7,2.2-2.68,1.21-.02-3.41ZM120.79,190.77l-.11-.33s0-.02-.01-.03l-.29-.52-.11-.18.39-.09.78-.15.4.09.17.44.02.07-1.23.7ZM119.13,188.67l.02-.13.21.32.21.34v.19s-.2-.34-.2-.34l-.23-.38ZM121.47,189.13s-.05,0-.07,0l-.82.15-.63.14s-.04.01-.05.02v-.16s.49-.11.49-.11l.78-.15.4.09v.03s-.09-.02-.09-.02ZM120.32,188.85l-.51.11-.17-.28-.2-.31.24-.03.78.03.66.33-.79.15ZM118.73,189.2l-.41.09-.82.22s-.04.01-.05.02l-.42.3.04-.14.17-.52.55-.41.5-.17.07.03.26.4.11.18ZM117.2,190.33s-.05.05-.06.09h-.05s.09-.28.09-.28l.44-.31.78-.21.43-.09v.15s-.24.05-.24.05l-.82.22s-.04.01-.05.02l-.52.36ZM119.17,189.6v-.21s.11.19.11.19c-.02,0-.04,0-.06,0h-.05ZM119.74,190.18s.02,0,.04,0h.05s0,.22,0,.22l-.13-.22s.02,0,.03,0ZM120.13,191.15l-.19-.55s0-.02-.01-.03l-.07-.12h.31s0-.22,0-.22l.19.34.13.39-.35.23s0-.02,0-.03ZM70.45,147.81l-.39-.11.16-.07.23.18ZM69.57,147.9l1.55.46,1.6,1.31-1.74-.39-2.73-.81,1.31-.57ZM67.78,148.68l3.13.93s0,0,.01,0l2.41.55,2.49,2.04-4.77-1.08-2.82-.84-1.43-1.17.98-.42ZM70.96,151.44s0,0,.01,0l4.82,1.1s0,0,.01,0l.55.09,5.37,4.39-3.21,1.68-9.6-7.87,2.05.61ZM87.41,145.45l1.06-.43.04,1.96-1.05.46-.05-1.99ZM107.7,138.95l-.45-.17-.53-.18.7-.24.84.08h.03s-.31.26-.31.26l-.29.26ZM106.07,139.25l.09.03-.62.28.2-.26.33-.05ZM107.06,139.24l-.23-.09-.64-.22h0s.29-.05.29-.05l.65.22.35.14h-.42ZM107.9,139.23h0s.3-.28.3-.28l.43-.35h.11s.05.18.05.18l-.18.15-.33.29h-.38ZM109.26,138.85h.2s.01,0,.01,0l-.43.19.22-.18ZM109.91,138.64l-.05.02-.29-.16s-.06-.02-.09-.02l-.3.02s-.07.02-.09.04h0s-.05-.17-.05-.17c-.02-.06-.06-.1-.12-.12h0s-.58-.15-.58-.15c0,0-.02,0-.03,0l-.89-.09s-.05,0-.07,0l-.9.31s-.02.01-.04.02l-.44.28h0s-.06.05-.07.09l-.07.22-.21.03s-.08.03-.11.06l-.27.34s-.02.04-.03.06l-.09.31-2.34,1.05c-.06.03-.1.09-.1.16l.05,2.88-.1.35-1.02,1.18-1.61.96-2.05.63-2.27.23-2.27-.19-3.05-.8s-.08,0-.11,0l-1.4.62-.05-2.06h0s0,0,0,0h0s0-.02,0-.03l-.32-1.66.36-1.27,1.03-1.17,1.61-.95,2.04-.62,2.26-.23,2.27.19,3.05.75s.07,0,.1,0l3.55-1.43s.07-.04.08-.07l.71-1.26,1.34-.58,2.3-.02s.04,0,.07-.01l2.79-1.21.9-.42h.83s.64.26.64.26l.2.36-.2.37-.93.37-2.81,1.19s-.06.04-.08.07l-.7,1.26ZM26.44,116.01l-3.87-3.18,7.1-.43,1.76,1.49-4.99,2.12ZM31.73,114.14l1.04.88.71,3.91s0,.02,0,.03l1.3,3.25-.51.22-7.54-6.18,4.99-2.12ZM2.19,97.4v-.05s5.98,4.85,5.98,4.85c.02.02.05.03.08.04l2.06.29s.02,0,.03,0l18.87-1.14,3.11,2.61.71,3.89s0,.02,0,.03l1.65,4.1s0,.02.01.03l2.6,4.13s.01.02.02.02l3.24,3.54-5.47,2.32-1.29-3.23-.71-3.95s-.03-.07-.06-.1l-3.2-2.71s-.08-.04-.12-.04l-9,.55-18.52-15.2ZM22.07,112.86l11.86,9.73-.17.07c-.06.03-.11.09-.1.16l.02.42-12.57-10.32.96-.06ZM34.03,123.53v-.34s22.82,18.73,22.82,18.73v.35s-22.82-18.74-22.82-18.74ZM57.21,142.55l-.02-.61,16.59-7.1.08,2.93h.34s-.08-2.82-.08-2.82l12.96,10.46.05,2.17-2.1.93s-.08.06-.09.1l-2.32,6.86-16.35-13.35-.21.26,16.45,13.44-.33.97-.12.06-15.4-12.59-.21.26,3.49,2.86-4.48,1.93-8.24-6.76ZM66.44,149.25l11.73,9.62-.19.1c-.06.03-.09.09-.09.15v.41s-12.16-9.99-12.16-9.99l.7-.3ZM78.25,159.82v-.34s21.65,17.75,21.65,17.75v.36s-21.65-17.78-21.65-17.78ZM100.26,177.88v-.61s2.5-.92,2.5-.92l1.42-.51,1.24-.19,1.26.05,1.16.28.94.48.62.61.26.68-.15.97s0,0,0,.01l-.08,1.11s0,.01,0,.02l.09,5.62-9.27-7.61ZM109.88,185.77l-.09-5.61h.01s0,.01,0,.01l1.88,1.07,1.27,1.08,1.11,1.59.37,1.76.15,1.8c0,.05.03.1.08.13l1.25.78.03,2.39-6.07-4.98ZM116.29,191.04l-.04-2.64,2.24-.81,1.41-.33,1.33.11,1.11.5.73.66-.14.7-.63.62-.19-.47c-.02-.05-.06-.09-.12-.1h-.01s-.13-.33-.13-.33c0-.02-.02-.04-.03-.05h0s-.32-.35-.32-.35c-.01-.02-.03-.03-.05-.04l-.87-.44s-.05-.02-.07-.02l-.83-.03s-.02,0-.03,0l-.65.08c-.08,0-.14.07-.15.14l-.05.34h-.06s-.12-.18-.12-.18c-.02-.03-.05-.06-.09-.07l-.18-.07s-.08-.01-.11,0l-.58.2s-.03.01-.05.02l-.61.46s-.05.05-.06.08l-.18.56-.19.62s0,.03,0,.04l-.02.69v.32s-.25-.21-.25-.21ZM116.89,191.53v-.46s.06.12.06.12l.15-.09.16.05.18-.57.45-.31.78-.21.51-.11.16.27.28.51.18.52.02.14-1.32.86s-.08.09-.08.15v.4s-1.54-1.27-1.54-1.27ZM118.78,193.08v-.33s10.32,8.43,10.32,8.43v.37s-10.32-8.47-10.32-8.47ZM129.44,201.83v-.62s9.44-4.27,9.44-4.27l.02,3.66-6.53,2.96c-.06.03-.1.09-.1.16v.45s-2.84-2.33-2.84-2.33ZM132.62,204.44v-.37s12.16,10.26,12.16,10.26l.59.49v.02s-.05.02-.05.02l-12.7-10.43ZM155.24,211.24l-.73-.59s-.03-.05-.05-.07l-.43-.35.55-.29,2.57-1.18-.07-.15.07.15,51.13-23.4,1.88-.86s0,0,0,0l13.64-6.24s.01,0,.02-.01l.24-.15.59-.37s.03-.02.04-.04l.43-.55s.03-.05.03-.07l.12-.6s0-.06,0-.09l-.2-.6s-.02-.04-.04-.06l-.41-.44,1.64-.76h0s.85.92.85.92l.33.99-.19.99-.71.92-1.19.76-69.39,31.8s0,0,0,0l-.71.37ZM227.48,180.82s.03-.05.03-.07l.21-1.07-.17-.03h.17s.07-3.24.07-3.24c0-.02,0-.04,0-.06l-.35-1.06s-.02-.04-.04-.06l-.67-.73,2.47,1.9s.01,0,.02.01l1.33.75s.02.01.04.02l1.64.47s.02,0,.03,0l1.79.15s.02,0,.03,0l1.35-.14-8.53,3.92.59-.76ZM10.6,92.68l55.52-22.74,1.02.8-49.07,20.12-6.3,2.58h0s-.73.3-.73.3l-.98-.8.53-.25ZM156.44,237.13l-9.31,4.3-.28.13-.36.02-.25-.1-.85-.43-.18-.12h0s-.43-.25-.43-.25L1.77,121.48l-.17-.23-.15-.26-.02-.22-1.08-22.88v-.33s.18-.28.18-.28l.32-.12,8.27-3.39.19.04-7.38,3.02c-.07.03-.11.09-.1.16l-.19.08.06.16-.11.13,143.6,117.84c.05.04.12.05.18.02l8.23-3.77.12.1.21.4.12,1.29s0,0,0,.01l.13.79s0,.04.02.05l.38.7s.02.03.04.05l.57.51.18-.2s0,0,0,0l.89.11.67.23s.02,0,.04,0l9.79,1.15.02-.17-.02.17,4.18.49.51.07.55.2.55.45.48.43.3.57.11.66-.16,9.66-16.83,7.95ZM172.5,217.39l-.08-.07h.07s0,0,0,0v.06ZM173.45,218.82h0s.03-.01.03-.01h-.03ZM173.77,219.51s0-.02,0-.03l-.12-.7s0-.04-.02-.05h0s0-.01,0-.01l-.33-.61s-.02-.03-.04-.05l-.43-.39v-.37s1.11-.1,1.11-.1c.01,0,.03,0,.04,0l.56-.19-.06,12.01-.86-.7.14-8.8ZM253.3,190.84l-.18,1.01-.69.91-1.16.75-76.45,35.59.06-12.16.49-.22-.07-.15-.05-.16-1.35.46-1.38.12-5.72-.67h0s-9.77-1.15-9.77-1.15l-.62-.22-.52-.46-.35-.65-.13-.75v-1.55s.66-.34.66-.34l69.45-31.83s.01,0,.02-.01l1.23-.78s.03-.02.04-.04l.63-.81-.04,1.9-.2,1.02-.71.92-1.2.76c-.08.05-.1.15-.06.22.03.06.09.09.15.09.02,0,.05,0,.07-.02l12.02-5.52c.08-.04.12-.13.09-.22-.03-.08-.12-.13-.21-.1l-1.55.5-1.73.18-1.76-.15-1.6-.46-1.3-.73-2.48-1.91,2.33-1.08.03.02s.01,0,.02.01l1.33.75s.02.01.04.02l1.64.47s.02,0,.03,0l1.79.15s0,0,.01,0c0,0,.01,0,.02,0l1.77-.19s.02,0,.03,0l1.57-.5s.01,0,.02,0l14.68-6.73s.01,0,.02-.01l1.21-.77s.03-.02.04-.04l.58-.76-.39,12.88-.18,1.01-.69.91-1.17.75-14.61,6.75h0s-5.02,2.32-5.02,2.32l-11.9,5.5h0s-44.81,20.71-44.81,20.71l.14.31.76-.35h0s44.06-20.36,44.06-20.36h0s0,0,0,0l11.9-5.5,19.64-9.08s.01,0,.02-.01l1.2-.77s.03-.02.04-.04h0s0,0,0,0l.57-.76-.33,11.02ZM253.76,163.24l.34.97-.18.97-.69.9-1.17.74-14.66,6.72-1.54.5-1.74.18-1.76-.15-1.61-.46-1.15-.65,1.57-.73.82.46s.02.01.04.02l.72.21h0s.2.06.2.06c.01,0,.02,0,.03,0l1.01.09v-.17s.03.17.03.17l1-.1s.02,0,.03,0l1.06-.34s.01,0,.02,0l5.13-2.35h0s0,0,0,0l9.25-4.23s.01,0,.02-.01l.81-.52s.03-.02.04-.04l.42-.54s.03-.05.03-.07l.11-.6s0-.06,0-.09l-.21-.59s-.02-.04-.04-.06h0s-.04-.05-.04-.05l1.61-.74.49.51ZM314.2,132.83l-.14.97-.64.87-1.12.72-72.83,33.29h0s-1.75.8-1.75.8l.31-12.3.47-.21.33-.15h0s.46-.21.46-.21h0s42.25-19.16,42.25-19.16h0s1.61-.73,1.61-.73l3.96-1.8h0s.34-.16.34-.16l7.48-3.39,9.55-4.33,8.58-3.89s.01,0,.02-.01l1.16-.74s.03-.03.05-.04l.46-.62-.55,11.11Z"/>
      <path d="M148.16,9.19s.01.03.02.04c0,0,.01.02.02.03l.52.53s.01.01.02.02l66.55,47.86s.06.03.09.03l1.46.08.34.06h0s1.5.28,1.5.28l1.73.92,1.14,1.13.13,1-.22.78c-.02.07,0,.14.06.18h0s71.44,51.38,71.44,51.38c0,0,.01,0,.02.01l.91.48s.02.01.03.01l.93.26s.02,0,.03,0l.68.06h0s.33.03.33.03v-.17s.03.17.03.17l.99-.1s.02,0,.03,0l1.04-.32s.01,0,.02,0l3.85-1.73h0s10.18-4.57,10.18-4.57c0,0,.01,0,.02-.01l.79-.5s.03-.02.05-.04l.39-.52s.03-.05.03-.08l.04-.28h0l.04-.29s0-.06,0-.1l-.2-.49-.03-.07s-.01-.03-.02-.04c0,0,0,0,0,0,0,0,0,0,0-.01l-.62-.61s-.01-.01-.02-.02L167.73,1.97s-.01,0-.02-.01l-.81-.42h0s-.02-.01-.03-.01l-.42-.11h0s-.43-.11-.43-.11c0,0-.02,0-.03,0l-.93-.07s-.02,0-.03,0l-.92.09s-.02,0-.03,0l-.99.28s-.01,0-.02,0l-13.63,5.48s-.01,0-.02,0l-.79.43s-.03.02-.04.03l-.42.45s-.03.04-.04.07l-.14.5s0,.06,0,.1l.16.5ZM149.57,7.4l13.62-5.47.97-.27.42-.04h0s.47-.04.47-.04l.3.02.6.05.8.21,146.1,103.6.08.2h0s.11.27.11.27l-.07.48-.35.46-.75.47-10.17,4.57.07.15-.07-.15-3.84,1.72-1.01.32-.95.1-.64-.05-.33-.03-.47-.13h0s-.18-.05-.18-.05l-.24-.07-.88-.47-71.33-51.3.2-.69s0-.05,0-.07l-.14-1.09s-.02-.07-.05-.1l-1.19-1.19s-.03-.02-.04-.03l-.82-.43h0s-.96-.51-.96-.51c-.02,0-.03-.01-.05-.02l-1.87-.36s-.01,0-.02,0h0s-.95-.05-.95-.05l-.47-.03L148.95,9.54l-.49-.49-.13-.41.11-.41.23-.25h0s.14-.15.14-.15l.75-.41Z"/>
      <path d="M280.52,97.56l.42.8s.02.03.03.04l.77.72s.02.02.03.02l1.07.59s.02,0,.03.01l1.29.42s.02,0,.03,0l1.42.22s.02,0,.03,0h1.46s0,0,0,0c0,0,.02,0,.02,0l1.39-.21s.02,0,.03,0l1.24-.41s.02,0,.03-.01l.99-.58s.03-.02.04-.03l.68-.71s.03-.03.03-.05l.32-.8s.01-.05.01-.08l-.06-.83s0-.05-.02-.07l-.43-.8s-.02-.03-.03-.04l-.77-.72s-.02-.02-.03-.02l-1.07-.59s-.02,0-.03-.01l-1.28-.42s-.02,0-.03,0l-1.42-.22s-.02,0-.03,0h-1.45s-.02,0-.03,0l-1.39.21s-.02,0-.03,0l-1.23.41s-.02,0-.03.01l-.99.58s-.03.02-.04.03l-.68.71s-.03.03-.03.05l-.33.8s-.01.05-.01.07l.05.83s0,.05.02.07ZM281.09,95.95l.65-.67.96-.56,1.2-.39,1.36-.2h1.43s1.39.23,1.39.23l1.26.41,1.03.57.74.69.4.74.05.75-.3.73-.64.67-.96.56-1.2.4-1.37.2h-1.43s-1.4-.23-1.4-.23l-1.26-.41-1.03-.58-.74-.69-.39-.75-.04-.75.3-.73Z"/>
      <path d="M170.96,19.58s.02.04.04.05l.68.65s.02.02.04.03l.97.53s.02,0,.03.01l1.19.38s.02,0,.03,0l1.34.2s.02,0,.02,0h1.38s0,0,0,0c0,0,.02,0,.02,0l1.34-.19s.02,0,.03,0l1.2-.37s.02,0,.03-.01l.98-.52s.02-.02.04-.03l.69-.64s.03-.03.04-.05l.36-.72-.15-.08h.17s0-.75,0-.75c0-.03,0-.05-.02-.08l-.35-.72s-.02-.03-.04-.05l-.69-.65s-.02-.02-.04-.03l-.97-.53s-.02,0-.03-.01l-1.19-.38s-.02,0-.03,0l-1.33-.2s-.02,0-.02,0h-1.38s-.02,0-.02,0l-1.33.19s-.02,0-.03,0l-1.2.37s-.02,0-.03.01l-.98.52s-.02.02-.04.02l-.7.64s-.03.03-.04.05l-.37.72s-.02.05-.02.08v.25h0v.49s0,.05.01.08l.35.72ZM170.93,18.29v-.21s.34-.66.34-.66l.66-.61.95-.5,1.17-.36,1.31-.18h1.35s1.31.2,1.31.2l1.16.37.94.51.65.61.32.66v.67s-.33.66-.33.66l-.66.61-.95.51-1.17.36-1.31.18h-1.36s-1.31-.21-1.31-.21l-1.17-.37-.94-.52-.65-.62-.32-.66v-.45s-.16,0-.16,0h.17Z"/>
      <path d="M137.59,35.49l-2.51,1.39s-.01,0-.02.01l-1.81,1.35h0l-.31.23s-.01.01-.02.02h0s0,0,0,0l-1.67,1.73s-.01.02-.02.03l-.37.58s0,0,0,0l-.3.47-.51.8s0,0,0,0h0s0,.02-.01.02c0,0,0,0,0,.01l-.67,1.93s0,.03,0,.04l-.02.24v.08s-.13,1.65-.13,1.65h0s0,.03,0,.05l.39,1.96s0,.03.01.04l.47.97.45.94s.01.02.02.03l1.43,1.81s.01.02.02.02l1.02.89.89.78s.01.01.02.02l2.34,1.5s.01,0,.02.01l2.73,1.29s.01,0,.02,0l3.05,1.05s.01,0,.02,0l3.31.78s0,0,.01,0l3.48.5s0,0,.01,0h.03s3.55.21,3.55.21c0,0,0,0,0,0,0,0,0,0,0,0l3.6-.09s0,0,.01,0l3.54-.39s0,0,.01,0l3.39-.68s.01,0,.02,0l3.17-.95s.01,0,.02,0l2.87-1.2s.01,0,.02,0l1.13-.64-.08-.15.08.15,1.38-.78s.01,0,.02-.01l2.09-1.61s.01-.01.02-.02l1.63-1.76s.01-.02.02-.03l1.13-1.87s.01-.02.02-.04l.61-1.94s0-.03,0-.04l.08-1.97s0-.03,0-.05l-.45-1.95s0-.03-.01-.04l-.97-1.89s-.01-.02-.02-.03l-1.47-1.78s-.01-.01-.02-.02l-1.93-1.64s-.01-.01-.02-.01l-2.35-1.46s-.01,0-.02-.01l-2.72-1.25s-.01,0-.02,0l-3.02-1.02s-.01,0-.02,0l-3.26-.76s0,0-.01,0l-3.43-.49s0,0-.01,0h0l-.38-.02-3.14-.18s0,0-.01,0l-3.54.09s0,0-.01,0l-3.48.38s0,0-.01,0l-3.34.65s-.01,0-.02,0l-3.13.92s-.01,0-.02,0l-2.85,1.16s-.01,0-.02,0ZM140.58,34.63l3.12-.91,1.63-.32,1.69-.33,1.52-.16,1.94-.21,3.53-.09,3.51.2,3.42.48,3.25.76,3.01,1.01,2.7,1.25,2.33,1.45,1.91,1.62,1.45,1.76.95,1.85.44,1.91-.08,1.92-.6,1.9-1.12,1.84-1.59,1.72-2.09,1.61-1.37.78h0s-1.12.63-1.12.63l-2.85,1.19-3.15.94-3.37.67-3.52.39-3.59.09-3.23-.19h0s-.34-.02-.34-.02l-1.82-.26h0s-.84-.12-.84-.12l-.8-.11-3.29-.78-3.04-1.04-2.71-1.28-2.32-1.48-1.22-1.07-.67-.59-1.41-1.78-.38-.8-.52-1.07-.38-1.91.12-1.63v-.1s.02-.19.02-.19l.2-.58.46-1.31.8-1.25s0,0,0,0l.36-.57,1.65-1.71,1.71-1.27.38-.29,2.49-1.38,2.84-1.16Z"/>
      <path d="M134.72,39.09l-1.52,1.58s-.01.02-.02.03l-1.08,1.69s-.01.02-.02.04l-.61,1.76s0,.03,0,.04l-.13,1.79h.09s0,.03,0,.03l-.09.02.36,1.78s0,.03.01.04l.84,1.73s.01.02.02.03l1.3,1.65s.01.02.02.02l1.74,1.52s.01.01.02.02l.28.18s0,0,0,0l1.85,1.18s.01,0,.02.01l2.48,1.17s.01,0,.02,0l2.78.95s.01,0,.02,0l3.01.71s0,0,.01,0l3.17.46s0,0,.01,0l3.26.19s0,0,0,0c0,0,0,0,0,0h.11s0,0,0,0l3.17-.08s0,0,.01,0l3.22-.35s.01,0,.02,0l3.09-.61s.01,0,.02,0l2.88-.86s.01,0,.02,0l2.61-1.09s.01,0,.02,0l1.24-.7-.08-.15.08.15,1.05-.59s.01,0,.02-.01l1.91-1.46s.01-.01.02-.02l1.49-1.6s.01-.02.02-.03l1.04-1.7s.01-.02.02-.04l.56-1.77s0-.03,0-.04l.08-1.79s0-.03,0-.05l-.41-1.78s0-.03-.01-.04l-.88-1.72s-.01-.02-.02-.03l-1.34-1.63s-.01-.01-.02-.02l-1.76-1.5s-.01-.01-.02-.01l-2.14-1.33s-.01,0-.02-.01l-2.48-1.14s-.01,0-.02,0l-2.76-.93s-.01,0-.02,0l-2.97-.69s0,0-.01,0l-3.13-.44s0,0-.01,0l-3.21-.18s0,0-.01,0l-3.23.08s0,0-.01,0l-3.17.34s0,0-.01,0l-3.05.6s-.01,0-.02,0l-2.85.84s-.01,0-.02,0l-2.6,1.06s-.01,0-.02,0l-2.29,1.26s-.01,0-.02.01l-1.92,1.44s-.01.01-.02.02ZM171.88,46.32l-.11-.61s0-.01,0-.02l-.14-.46,2.77-.3.2,1.14h-.36s0,.01-.01.01l-1.77.19-.57.04ZM136.33,42.64l-.06.07h0l-.45.58s0,0,0,.01l-.43.67s0,.01,0,.02l-.34.69s0,.01,0,.02l-.25.7s0,.01,0,.02l-.03.14-2.56-.22.46-.72.6-.77.28-.3-.12-.12.12.12.42-.45.21-.21.79-.72.84-.66.98-.67.98-.57.31.14.43.24-.72.57s0,0,0,0l-.66.6s0,0,0,0l-.58.62-.16.18s0,0,0,0ZM134.53,46.81l-.03.43v.12s-.18.12-.18.12h-.53s-1.82-.08-1.82-.08l-.21-1.05v-.1s2.82.13,2.82.13l-.05.43ZM134.62,46.04l-2.84-.13v-.18s.03-.07.03-.07l2.84.24-.03.14ZM138.79,40.43l-.59-.32s0,0-.01,0l-.27-.12.23-1.04,1.61.88-.43.26s0,0,0,0l-.51.35ZM140.09,39.62l-1.7-.93.42-.21,1.57.99-.18.09s0,0,0,0l-.1.06ZM140.73,39.29l-.39-.24,1-.39,1.3-.43,1.35-.38,1.4-.33.81-.15-.77.18-1.14.32-1.1.36-1.05.4s0,0,0,0l-.99.44s0,0,0,0l-.4.21ZM151.48,36.64v-.05s.04-.28.04-.28l.05.32h-.09ZM151.91,36.62l-.19-1.15.71-.02.04,1.15-.57.02ZM164.14,38.55l-.4-.17-1.08-.38-1.12-.34-1.16-.29-.24-.05.15.02,1.42.29,1.38.35,1.29.39-.22.17ZM165.83,37.65l.48.2-1.46,1-.07-.03s0,0,0,0l-.27-.11,1.33-1.05ZM166.56,38.09l.22,1.01-.25.14s0,0-.01,0l-.36.25-.41-.22s0,0,0,0l-.54-.25,1.35-.92ZM166.71,39.53l.27-.16,1.02.48,1.13.61,1.01.63.92.66.83.69.97.94.62.72-2.16.32-.07-.16s0-.01,0-.02l-.39-.68s0,0,0-.01l-.47-.66s0,0,0-.01l-.56-.64-.15-.16s0,0,0,0l-.63-.61s0,0,0,0l-.7-.59s0,0,0,0l-.78-.56s0,0,0,0l-.84-.53s0,0,0,0l-.16-.09.21-.14ZM174.19,44.35l.11.25-2.77.3-.06-.14,2.73-.41ZM174.26,43.99l-.4.06-.08-.11s0,0,0-.01l-.67-.77s0,0,0-.01l-.98-.95s0,0,0,0l-.84-.7s0,0,0,0l-.93-.67s0,0,0,0l-1.01-.63s0,0,0,0l-1.09-.59s0,0,0,0l-1.08-.51-.29-1.29c-.01-.05-.05-.1-.1-.12l-.87-.35c-.06-.02-.12-.01-.17.02l-1.02.8-.17-.06-1.35-.4-1.39-.35-1.43-.3-1.47-.24-1.49-.19-1.51-.13-1.53-.07h-1.38s-.19-1.14-.19-1.14c-.01-.08-.09-.14-.17-.14l-1.07.03c-.08,0-.15.06-.16.14l-.21,1.15-1.39.1-1.5.16-1.48.22-1.45.28-1.41.33-1.37.38-1.32.44-1.25.48-1.07-.68c-.05-.03-.11-.03-.17,0l-.79.4s-.08.07-.09.12l-.29,1.32-.98.58s0,0,0,0l-.97.65s0,0,0,0l-.88.69s0,0,0,0l-.8.73-.22.22-.42.45h0l-.29.31s0,0,0,.01l-.61.79s0,0,0,.01l-.42.66.45-1.3-.16-.06.16.06.03-.1,1.06-1.66,1.5-1.56,1.9-1.42,2.27-1.25,2.58-1.06,2.84-.83,3.03-.59,3.16-.34,3.21-.08,3.2.18,3.11.44,2.96.69,2.74.92,2.46,1.14,2.12,1.32,1.74,1.48,1.32,1.6.68,1.33s0,0,0,0ZM136.6,53.05l.75-.25.18.15-.67.26-.26-.16ZM170.07,51.79l.12.03s0,0,0,0l1.02.26-.23.18-1.05-.32.14-.15ZM174.23,48.42l-1.02,1.67-1.47,1.58-.19.15-1.28-.33s0,0,0,0l-.22-.06-.04.16-.13-.11-.39.42h0s-.04.06-.04.1l-.09.82.34.04.07-.61.88.27-.79.6-1.03.58h0l-1.22.69-2.61,1.09-2.87.86-.98.2-.08-.09-.13.11-.04-.17-.79.19h0c-.06.02-.11.06-.13.12l-.02.07-.88.18-3.22.36-3.16.08s0,0,0,0h-.1s-3.25-.19-3.25-.19l-.98-.14s0-.02,0-.03c-.02-.05-.07-.08-.12-.09l-.83-.14c-.07-.01-.14.02-.17.08h0s-1.04-.14-1.04-.14l-2.98-.71-2.77-.95-2.46-1.16-.77-.49.71-.27c.06-.02.1-.07.11-.13.01-.06-.01-.12-.06-.16l-.47-.4s-.11-.05-.16-.03l-1.1.37-.1-.07s0,0,0,0l-.27-.17-1.72-1.5-1.28-1.62-.82-1.7h0s1.74.07,1.74.07h.59s0,0,0,0c.03,0,.06,0,.09-.03l.07-.04h.3s0-.5,0-.5l.02-.36.07-.7.16-.69.25-.68.33-.67.42-.66.45-.58-.13-.1.13.1.05-.07.73-.78.65-.59.73-.57.8-.54.86-.51.93-.47.99-.44,1.03-.4,1.09-.36,1.13-.32,1.17-.27,1.2-.23,1.22-.18,1.24-.13,1.26-.09,1.27-.04h1.27s1.26.07,1.26.07l1.25.11,1.24.15,1.21.2,1.18.25,1.15.29,1.11.33,1.06.38,1.02.42.96.45.86.47.87.54.77.55.69.58.62.6.14.16.55.64.46.65.38.66.29.67.21.68.12.69.02.36.03.71v.51s.35,0,.35,0v-.51s-.05-.72-.05-.72v-.15s.47-.03.47-.03l1.86-.2.54-.02v.29s-.56,1.73-.56,1.73ZM136.86,37.92l2.27-1.25,2.58-1.06,2.84-.83,3.03-.59,3.16-.34,3.21-.08,3.2.18,3.11.44,2.96.69,2.74.92,2.46,1.14,2.12,1.32,1.74,1.48,1.32,1.6.87,1.68.17.73-.75-1.45s-.01-.02-.02-.03l-1.34-1.63s-.01-.01-.02-.02l-1.76-1.5s-.01-.01-.02-.01l-2.14-1.33s-.01,0-.02-.01l-2.47-1.14s-.01,0-.02,0l-2.75-.93s-.01,0-.02,0l-2.97-.69s0,0-.01,0l-3.13-.44s0,0-.01,0l-3.21-.18s0,0-.01,0l-3.23.08s0,0-.01,0l-3.17.34s0,0-.01,0l-3.04.6s-.01,0-.02,0l-2.85.84s-.01,0-.02,0l-2.6,1.06s-.01,0-.02,0l-2.29,1.26s-.01,0-.02.01l-1.92,1.44s-.01.01-.02.02l-1.52,1.58s-.01.02-.02.03l-1.08,1.69s-.01.02-.02.04l-.04.12h0l-.26.76v-.16s.61-1.72.61-1.72l1.06-1.66,1.5-1.56,1.9-1.42Z"/>
      <path d="M204.22,100.21h.03s-.03,0-.03,0l.46,1.91s0,.03.01.04l.96,1.86s.01.02.02.03l1.43,1.77s.01.01.02.02l1.88,1.63s.01.01.02.01l2.28,1.46s.01,0,.02.01l2.63,1.26s.01,0,.02,0l2.93,1.02s.01,0,.02,0l3.15.77s.01,0,.02,0l3.31.49s0,0,.01,0l3.39.2s0,0,.01,0c0,0,0,0,0,0l3.39-.09s0,0,.01,0l3.32-.38s.01,0,.02,0l3.17-.66s.01,0,.02,0l2.94-.93s.01,0,.02,0l2.65-1.17s.01,0,.02,0l2.3-1.38s0,0,0,0c0,0,.01,0,.02-.01l1.9-1.57s.01-.01.02-.02l1.46-1.72s.01-.02.02-.03l.99-1.83s.01-.02.01-.04l.49-1.9h-.03s0-.04,0-.04h.04s-.01-1.92-.01-1.92c0-.01,0-.03,0-.04l-.51-1.9s0-.03-.01-.04l-1-1.84s-.01-.02-.02-.03l-1.47-1.74s-.01-.01-.02-.02l-1.9-1.6s-.01,0-.02-.01l-2.29-1.43s-.01,0-.02,0l-2.62-1.23s-.01,0-.02,0l-2.9-1s-.01,0-.02,0l-3.11-.74s0,0-.01,0l-3.26-.47s0,0-.01,0l-3.33-.2s0,0-.01,0l-3.34.09s0,0-.01,0l-3.27.37s-.01,0-.02,0l-3.12.64s-.01,0-.02,0l-2.91.9s-.01,0-.02,0l-2.64,1.14s-.01,0-.02,0l-2.31,1.35s-.01,0-.02.01l-1.92,1.54s-.01.01-.02.02l-1.49,1.69s-.01.02-.02.03l-1.03,1.81s-.01.02-.02.04l-.54,1.89s0,.03,0,.04l-.04,1.92h0s0,.04,0,.04ZM246.53,100.35l-.13-.58s0-.01,0-.02l-.17-.51,2.62-.3.31,1.16h-.29s0,.01-.01.01l-1.92.22-.41.03ZM207.91,100.62l-.04.77v.07s0,0,0,0l-.25.15h-.56s-1.97-.1-1.97-.1c0,0,0,0-.01,0h-.19s-.11-.46-.11-.46l.13-.73,3.03.14v.16ZM207.96,100.12l-3.01-.14.05-.29,2.99.26-.03.17ZM208.08,99.45s0,.01,0,.02l-.03.15-2.87-.25v-.03s.49-.85.49-.85l.59-.83.69-.8.79-.77.22-.2.88-.74.96-.69.97-.61.34.15.63.35h0s0,.01,0,.01l-.73.62s0,0,0,0l-.6.6-.21.22s0,0,0,0l-.58.68s0,0,0,.01l-.5.7s0,0,0,.01l-.41.72s0,.01,0,.02l-.32.74s0,.01,0,.02l-.23.75ZM212.03,94.12l-.77-.43s0,0-.01,0l-.3-.14.26-1.07,1.78.99-.46.29s0,0,0,0l-.5.36ZM213.32,93.26l-1.87-1.03.44-.24,1.73,1.1-.2.11s0,0,0,0l-.09.06ZM213.97,92.9l-.59-.37,1.05-.42,1.32-.46,1.38-.41,1.43-.35,1.47-.29,1.51-.23,1.53-.17,1.42-.1h0s-.65.06-.65.06l-1.37.15-1.27.2-1.24.25-1.21.3-1.17.34-1.11.39s0,0,0,0l-1.06.43s0,0,0,0l-1.01.47s0,0,0,0l-.4.22ZM224.84,90.07l-.04-.17.1-.47.13.62h-.19ZM225.37,90.04l-.26-1.28.75-.02.1,1.28-.59.02ZM237.74,91.94l-1.14-.41-1.18-.36-1.22-.32-1.25-.27-1.28-.22-1.23-.16.46.04,1.54.2,1.52.26,1.48.32,1.45.37,1.4.43.12.04-.27.23-.39-.16ZM239.83,91.1l.54.22-1.48,1.09-.05-.02s0,0,0,0l-.34-.14,1.34-1.14ZM240.6,91.58l.21,1.02-.25.16s0,0-.01,0l-.38.28-.29-.16s0,0,0,0l-.63-.3,1.36-1ZM240.73,93.05l.27-.17,1.13.54,1.16.64,1.07.67.99.71.9.75.81.78.22.21.72.82.05.07-2.18.34-.08-.17s0-.01,0-.02l-.44-.73s0,0,0-.01l-.52-.71s0,0,0-.01l-.56-.64-.19-.22s0,0,0,0l-.68-.66s0,0,0,0l-.76-.63s0,0,0,0l-.83-.6s0,0,0,0l-.9-.57s0,0,0,0l-.35-.19.24-.18ZM246.11,98.9l-.08-.18,2.66-.41h0s.08.29.08.29l-2.66.3ZM248.43,98l-.16-.22s0,0,0-.01l-.73-.83s0,0,0,0l-1.04-1.01s0,0,0,0l-.91-.75s0,0,0,0l-1-.72s0,0,0,0l-1.08-.68s0,0,0,0l-1.16-.63s0,0,0,0l-1.15-.55-.27-1.32s-.02-.05-.03-.07l1.27.59,2.27,1.42,1.88,1.59,1.45,1.72.81,1.49h-.08ZM239.86,90.75c-.06-.02-.13-.01-.18.03l-.98.83-.31-.11-1.41-.43-1.46-.38-1.5-.32-1.53-.26-1.56-.2-1.57-.14-1.58-.08h-1.43s-.16-1.15-.16-1.15c-.01-.09-.09-.15-.17-.15l-1.11.04c-.08,0-.14.06-.16.13l-.25,1.18-1.44.1-1.55.17-1.52.24-1.49.3-1.45.35-1.4.41-1.34.46s0,0,0,0l-1.27.52s0,0,0,0l-1.04-.66c-.05-.03-.12-.04-.17,0l-.8.43s-.07.06-.08.11l-.33,1.35-1,.62s0,0,0,0l-.97.7s0,0,0,0l-.89.74-.23.21-.8.78s0,0,0,.01l-.7.81s0,0,0,.01l-.6.84s0,0,0,.01l-.49.87s0,.01,0,.02l-.06.15c-.06.02-.11.07-.12.13l-.04.25-.09.2v-.48s.54-1.85.54-1.85l1.01-1.78,1.47-1.67,1.9-1.52,2.29-1.34,2.62-1.13,2.9-.89,3.11-.64,3.25-.37,3.32-.09,3.32.2,3.24.47,3.1.74,2.88.99.85.4-.49-.21ZM210.02,107.73l1.08-.38.22.18-.98.4-.32-.21ZM244.94,106.27l1.05.27-.24.2-.96-.3.15-.18ZM248.75,102.76l-.97,1.8-1.44,1.69-.04.03-1.39-.36-.04.16-.13-.11-.38.46h0s-.03.06-.04.09l-.1.84.34.04.08-.64.79.25-.97.8-2.28,1.37-2.63,1.16-2.93.92-.66.14-.1-.11-.13.11-.04-.16-.81.2h0c-.06.02-.11.06-.12.12l-.03.1-1.25.26-3.3.38-3.38.09-3.37-.2-.71-.1v-.02s.02-.1,0-.15c-.02-.05-.07-.08-.12-.09l-.86-.15c-.07-.01-.14.02-.18.09l-.07.13-1.35-.2-3.14-.76-2.91-1.02-2.61-1.25-.78-.5,1.01-.42c.05-.02.09-.07.1-.13,0-.06-.01-.12-.06-.16l-.5-.43s-.11-.05-.17-.03l-1.42.5-.45-.29-1.86-1.62-1.41-1.74-.94-1.83-.04-.19h.11s1.97.09,1.97.09h.61s0,0,0,0c.03,0,.06,0,.09-.03l.1-.06v.05s.34.01.34.01l.02-.52.03-.56.04-.52.14-.78.22-.73.31-.72.4-.71.49-.69.57-.67.15-.16.65-.64.72-.61.8-.58.87-.55.94-.51,1-.47,1.05-.43,1.1-.38,1.15-.34,1.19-.29,1.23-.24,1.26-.2,1.28-.14,1.3-.09,1.31-.04h1.31s1.31.07,1.31.07l1.3.11,1.29.16,1.27.21,1.24.26,1.21.31,1.17.36,1.12.4,1.08.45,1.02.49.96.52.89.56.82.59.75.62.67.65.74.84.51.7.43.71.34.73.25.74.15.72.07.77v.36s.01.52.01.52h.34s0-.35,0-.35h.01s-.02-.08-.02-.08v-.47s-.01,0-.02,0l-.06-.62.39-.03,1.92-.22h.3s0,.61,0,.61l-.44,1.7ZM206.13,94.66l1.47-1.67,1.9-1.52,2.29-1.34,2.62-1.13,2.9-.89,3.11-.64,3.25-.37,3.32-.09,3.32.2,3.25.47,3.1.74,2.88.99,2.6,1.22,2.26,1.41,1.89,1.59,1.45,1.72.99,1.81.27,1.01-1-1.84s-.01-.02-.02-.03l-1.47-1.74s-.01-.01-.02-.02l-1.9-1.61s-.01-.01-.02-.01l-2.28-1.43s-.01,0-.02,0l-2.62-1.23s-.01,0-.02,0l-2.9-1s-.01,0-.02,0l-3.11-.74s0,0-.02,0l-3.26-.47s0,0-.01,0l-3.33-.2s0,0-.01,0l-3.34.09s0,0-.01,0l-3.26.37s-.01,0-.02,0l-3.12.64s-.01,0-.02,0l-2.91.9s-.01,0-.02,0l-2.64,1.14s-.01,0-.02,0l-2.3,1.36s-.01,0-.02.01l-1.92,1.54s-.01.01-.02.02l-1.49,1.69s-.01.02-.02.03l-.97,1.7.26-.89,1.01-1.78Z"/>
      <path d="M153.49,160.77l.13.41s.01.03.02.05l.19.27s.02.02.03.03l.27.23.32.33s.05.04.07.04l.43.13s.04,0,.06,0l.87-.05.82.26.34.22.16.37.34,1.08v.41s-.33-.16-.33-.16l-.6-.38-.44-.35-.29-.38-.27.21.24.31-.02.02.57.45s.01,0,.02.01l.61.39s.01,0,.02,0l.65.31s.01,0,.02,0l.69.24s0,0,0,0l1.48.43v-.03s.21.03.21.03c.01,0,.02,0,.03,0h.21s.07-.02.09-.04l.41-.31h.37s.6.03.6.03l.47.22.2.38-.1-.02-.13-.04-.37-.18-.03.06-.15-.04-.1.33.69.2s0,0,.01,0l.85.18.85.15s.01,0,.02,0l.86.07s0,0,.01,0h0l.86-.02s.01,0,.02,0l.87-.1,1.7-.26-.05-.34-.11.02v-.04s-.36.1-.36.1l-.23.04.2-.32.5-.2h.61s.3.03.3.03l.43.28v.09s.19,0,.19,0v.03s.95-.15.95-.15c0,0,0,0,0,0l.77-.17.74-.2s.01,0,.02,0l.7-.27s.01,0,.02,0l.67-.35s.01,0,.02,0l.63-.42s0,0,0,0l.58-.45-.07-.09.28-.29-.24-.24-.5.52-.23.25-.63.43-.6.32v-.24s.33-1.05.33-1.05l.21-.35.39-.2.79-.21.83.1s.07,0,.1-.02l.81-.42s.02-.01.03-.02l.7-.61-.02-.03.09-.11s0,0,0,0l.23-.29-.08-.06.11-.42s0-.02,0-.02l.09-.7-.34-.04-.09.69-.14.53-.06.12-.18.24-.51.45-.74.38-.82-.09s-.04,0-.06,0l-.15.04.02-1.81.07-.35.38-1.19.86-.56.89-.27c.06-.02.11-.08.12-.14l.1-.91-.34-.04-.09.8-.8.25s-.03.01-.04.02l-.93.61s-.06.05-.07.09l-.4,1.26s0,.01,0,.02l-.07.37s0,.02,0,.03l-.02,1.92-.35.1s-.02,0-.03.01l-.44.23s-.05.04-.07.06l-.25.41s-.01.02-.02.04l-.34,1.09s0,.03,0,.05v.41s-.4.15-.4.15l-.72.19-.25.05.06-8.62.16-1.01.35-.63.37-.71-.3-.15-.36.71-.36.65s-.02.04-.02.05l-.17,1.05s0,.02,0,.03l-.06,8.71-.17.04-.7.11h-.16s-.51-.32-.51-.32c-.02-.02-.05-.02-.08-.03l-.35-.03s0,0-.01,0h-.65s0,0,0,0c-.02,0-.04,0-.06.01l-.58.23s-.06.04-.08.07l-.3.48s-.02.04-.03.07v.06s-.62.09-.62.09l-.85.1-.85.02-.84-.07-.84-.14-.38-.08-.02-.12s0-.04-.02-.06l-.27-.49s-.04-.06-.08-.07l-.55-.26s-.04-.02-.06-.02l-.64-.03s0,0-.01,0h-.43s-.02,0-.03.01l-.02-8.57s0-.02,0-.02l-.16-1.06s0-.03-.01-.04l-.29-.67-.27-.73-.32.12.28.73s0,0,0,0l.29.65.15,1.02.02,8.79-.14.11h-.14s-.42-.05-.42-.05l-1.21-.35-.64-.22v-.59s0-.03-.01-.05l-.35-1.11s0-.01,0-.02l-.19-.42s-.04-.06-.06-.07l-.28-.18v-2.13s-.03-.37-.03-.37c0-.01,0-.03,0-.04l-.39-1.28s-.03-.07-.06-.09l-.91-.66s-.03-.02-.04-.02l-.67-.25-.12-.07v.02s-.14-.05-.14-.05l-.06.16-.15.08s.05.07.09.08l.91.34.84.61.37,1.21v.35s.02,1.97.02,1.97l-.7-.22s-.04,0-.06,0l-.87.05-.36-.11-.29-.3s0,0-.01,0l-.26-.22-.17-.23-.12-.37-.07-.55-.34.04.07.57s0,.02,0,.03Z"/>
      <path d="M81.46,104.14l.1.38s.01.03.02.05l.16.24s.02.02.03.03l.23.2.28.3s.04.04.07.05l.43.13s.04,0,.06,0l.86-.04.82.27.31.2.14.34.36,1.07v.33s-.47-.22-.47-.22l-.56-.35-.38-.31-.27-.36-.27.2.21.28-.02.03.53.42s.01,0,.02.01l.58.36s.01,0,.02.01l.62.29s.01,0,.02,0l.65.22s0,0,0,0l1.41.39v-.02s.22.03.22.03c0,0,.01,0,.02,0h.22s.07,0,.1-.03l.42-.28.97.05.44.21.15.29-.15-.03-.16-.04-.29-.14-.02.05-.16-.05-.09.33.64.18s0,0,0,0l.82.18.82.14s.01,0,.02,0l.83.07s0,0,.01,0c0,0,0,0,0,0l.83-.02s.01,0,.02,0l.79-.09,1.7-.26-.05-.34h-.1s0-.01,0-.01l-.22.06-.19.03.13-.19.49-.19h.86s.39.26.39.26v.08s.17,0,.17,0h0s.92-.14.92-.14l.76-.15.72-.18s.01,0,.02,0l.69-.25s.01,0,.02,0l.66-.33s.01,0,.02,0l.62-.39s0,0,0,0l.58-.42-.05-.07.28-.28-.24-.24-.5.49-.13.14-.14.1-.61.39-.42.21v-.02s.28-1.03.28-1.03l.21-.32.39-.19.74-.22.79.08s.06,0,.09-.02l.79-.39s.02-.01.03-.02l.68-.58h0s.32-.41.32-.41h-.01s.22-.39.22-.39l-.11-.06h0s.11.06.11.06l.04-.06-.14-.08h0s-.03-.02-.03-.02h0s.03,0,.03,0l.09-.56-.34-.05-.09.56h0v.09s-.15.43-.15.43l-.23.28-.59.5-.73.36-.73-.08-.02-1.54.08-.32.35-1.18.12-.08-.09-.14.09.14.7-.46.9-.27s.08-.05.1-.09l.06-.13s0,0,0,0l.23-.48-.2-.1.02-.17-.34-.04-.08.66s0,0,0,0v.06s-.82.25-.82.25c-.02,0-.03.01-.04.02l-.72.48h0s-.18.12-.18.12c-.03.02-.06.06-.07.09l-.36,1.24-.09.35s0,.03,0,.04l.02,1.63-.55.17s-.02,0-.03,0l-.44.22s-.05.03-.07.06l-.25.38s-.02.03-.02.05l-.29,1.08s0,.03,0,.05v.19s-.55.2-.55.2l-.26.07-.11-7.37v-.36s.11-.71.11-.71h0l.04-.27.34-.6.37-.67-.3-.16-.24.44-.49.85s-.02.04-.02.06l-.04.31.17.02-.17-.02-.1.72s0,.01,0,.02v.38s.1,7.46.1,7.46l-.11.03-.75.15-.78.13h-.04s-.46-.29-.46-.29c-.03-.02-.06-.03-.09-.03h-.94s-.04,0-.06,0l-.57.22s-.06.04-.08.07l-.3.45s-.01.02-.02.04l-.69.11-.82.09-.82.02-.81-.06-.81-.14-.26-.06v-.06s-.02-.04-.03-.05l-.25-.47s-.04-.06-.08-.07l-.52-.25s-.04-.02-.06-.02l-.44-.02-.2-7.91s0-.02,0-.02l-.17-1.04s0-.03-.01-.04l-.27-.63-.24-.68-.32.11.24.69s0,0,0,.01l.26.62.17,1.01.2,7.87h-.29s-.07,0-.1.02l-.42.28h-.16s-.34-.05-.34-.05l-1.23-.34-.41-.14v-.5s-.02-.03-.02-.05l-.37-1.1s0,0,0-.01l-.17-.39s-.04-.06-.06-.08h-.02s-.07-2.43-.07-2.43c0-.02,0-.03,0-.05l-.4-1.26s-.03-.06-.06-.09l-.88-.64s-.03-.02-.04-.02l-.67-.25-.05-.03h0s-.16-.05-.16-.05l-.12.32.87.32.81.59.38,1.18.06,2.16h0s-.03-.02-.04-.02l-.87-.28s-.04,0-.06,0l-.86.04-.36-.11-.26-.27s0,0-.01-.01l-.22-.19-.13-.2-.09-.34-.05-.52-.34.03.05.53s0,.02,0,.03Z"/>
      <rect x="129.05" y="197.67" width="10.73" height=".34" transform="translate(-69.56 72.93) rotate(-24.32)"/>
      <path d="M146.82,240.8l-.64-.33c-.08-.04-.19,0-.23.07-.04.08,0,.19.07.23l.65.33s.05.02.08.02c.06,0,.12-.03.15-.09.04-.08,0-.19-.07-.23Z"/>
    </g>
  </g>
</svg>