<?xml version="1.0" encoding="UTF-8"?>
<svg id="Layer_2" data-name="Layer 2" xmlns="http://www.w3.org/2000/svg" viewBox="0 0 164.14 109.56">
  <g id="Layer_1-2" data-name="Layer 1">
    <path d="M164.14,58.74l-.04-2.36v-.2s0-.99,0-.99l-.54-29.76v-.41s-.03-.1-.04-.15l-.09-4.88h0s-.01-.59-.01-.59c0-.05,0-.11-.02-.16l-.07-.26c-.03-.1-.08-.2-.16-.27l-.19-.19c-.08-.08-.17-.13-.28-.16l-.26-.07c-.05-.01-.11-.02-.16-.02l-36.63-.24-2.27-2.73s-.08-.09-.14-.12c-.03-.05-.06-.1-.11-.14h0s-3.7-3.73-3.7-3.73c-.04-.04-.07-.07-.12-.09l-.87-.52c-.06-.04-.13-.06-.2-.08l-.85-.16c-.06-.01-.12-.01-.18,0l-.88.1s-.07.01-.1.02l-25.47,7.23-10.8-.07c-.06,0-.11,0-.17.02l-.34.09c-.11.03-.2.09-.28.17l-.25.26c-.08.08-.13.17-.16.28l-.09.35s-.02.09-.02.13l-.06,2.23-4.98,1.41-.04-11.64v-1.08c-.01-.06-.02-.13-.04-.19l-.1-.29s-.03-.07-.05-.11l-2.24-4.01s-.05-.08-.08-.11v-.02s-.04-.07-.05-.11l-2.24-4c-.04-.07-.09-.13-.15-.18l-.58-.48s-.06-.04-.09-.06l-.18-.1s-.09-.04-.14-.06l-.78-.23c-.06-.02-.12-.03-.19-.02l-.89.02s-.06,0-.1,0L2.07,11.33s-.07.02-.1.03l-.77.28s-.07.03-.11.05l-.19.11s-.09.06-.13.1l-.5.51c-.07.07-.12.15-.15.25l-.09.28c-.02.06-.03.11-.03.17v.61s-.01.02-.01.03l1.51,69.58c0,.07.01.14.04.2l.07.2s.02.05.03.07l2.07,4.14h0s.04.07.07.11l.02.07s.02.05.03.07l2.09,4.14c.04.08.09.14.16.2l.57.48s.07.05.11.07l.14.07s.08.04.12.05l.8.23c.06.02.11.02.17.02,0,0,.01,0,.02,0l.92-.03s.06,0,.09-.01l46.09-8.54.03,4.09c0,.05,0,.11.02.16l.15.55v.52c0,.07.02.15.04.21v.02s-.02.09-.02.09c-.01.05-.02.11-.02.16v.67c0,.07.02.15.05.21v.02s-.02.09-.02.09c-.01.05-.02.11-.02.16v.67c0,.07.02.15.05.21v.02s-.02.09-.02.09c-.01.05-.02.11-.02.16v.67c0,.07.02.15.05.21v.02s-.02.09-.02.09c-.01.05-.02.11-.02.16v.67c0,.07.02.14.04.21v.02s-.02.09-.02.09c-.01.05-.02.11-.02.16v.67c0,.07.02.14.04.21l.08.23-.2.35c-.05.1-.08.2-.08.31h0s.02,2.24.02,2.24c0,.05,0,.11.02.16l.17.65s0,.03.01.04l.07.2c.02.06.05.11.09.16l3.05,4.19h0c.04.05.09.1.14.14.03.06.06.11.11.16l3.56,3.7s.08.08.13.1l.73.43.11.06c.06.03.13.06.2.07l.87.15s.07,0,.11,0c.03,0,.05,0,.08,0l.92-.11s.07-.01.1-.02l2.78-.82s.07.01.1.01c.06,0,.12,0,.18-.03l52.92-15.68c.06-.02.12-.05.17-.08l.1-.06s0,0,0,0l2.71-.8s.08-.03.11-.05l.68-.36s.02,0,.02-.01l.16-.1c.09-.06.17-.13.23-.23l.31-.55s.03-.07.05-.1l.07-.21c.02-.06.03-.13.03-.2l.02-2.23c0-.07,0-.14-.03-.2l-.12-.35s0,0,0,0v-.67c0-.08,0-.15-.04-.22l.03-.12s.02-.09.02-.14v-.67c0-.08,0-.15-.04-.23l.03-.12s.02-.09.02-.14v-.67c0-.08,0-.15-.04-.23l.03-.12s.02-.09.02-.14v-.67c0-.08,0-.15-.04-.23l.03-.12s.02-.09.02-.14v-.67c0-.08,0-.15-.04-.23l.03-.12s.02-.09.02-.14v-.67c0-.09-.01-.17-.05-.25l-.07-.17.21-.37c.05-.09.08-.19.08-.3l.07-7.18,36.15.24h0c.05,0,.11,0,.16-.02l.26-.07c.1-.03.2-.08.28-.16l.2-.19c.08-.07.13-.17.16-.27l.08-.26s0-.02,0-.03l.03-.12s.01-.07.02-.1l.04-.52s0-.02,0-.04l.12-5.99v-.24s0-.06,0-.09l.11-6.01ZM116.03,21.95l-.15-.16,1.7-.49.79-.03h0s-2.35.68-2.35.68ZM119.92,20.84l-.06-.06s-.08-.07-.12-.1l-.77-.5s-.05-.03-.07-.04l-.11-.05c-.09-.04-.19-.06-.29-.06l-1.03.04c-.05,0-.1,0-.15.02l-2.24.64c-.06.02-.12.05-.18.08l-.38.26c-.1.07-.19.17-.23.29l-.16.4c-.03.07-.04.15-.05.23v.23s-29.76,8.5-29.76,8.5c0,0,0,0,0,0l-17.35,4.95-.43-.49c-.08-.09-.18-.15-.29-.19l-.13-.04s-.08-.02-.12-.02l-.39-.04c-.08,0-.15,0-.23.02l-2.27.65s-.04.02-.06.02l-2.58-2.71s-.06-.05-.09-.07c-.02-.04-.04-.08-.07-.11l-2.81-3.57,59.36-16.86.34-.04.15.03.22.13,3.35,3.37-.04,4.82-.97.28ZM65.85,36.28l-1.21.34-.35.04-.15-.03-.1-.06,1.55-.44h.13s.12.15.12.15ZM55.67,27.94s-.02.01-.03.02l-.22.13c-.09.05-.16.13-.22.22l-.34.56s-.04.08-.06.13l-.1.29c-.02.06-.03.13-.03.2l.41,50.23-39.26,7.26h-.83s-.61-.22-.61-.22l-.37-.39-.15-.56-1.09-57.21.15-.72.44-.65.69-.53.87-.31,50.03-8.97h.83s.61.24.61.24l.37.41.15.61.03,5.9-10.47,2.97s-.08.03-.11.04l-.68.35ZM55.96,29.44l.17-.28.08.27c.02.08.06.15.11.21l2.47,3.13-.17.09c-.07.04-.14.09-.19.15l-.24.3c-.06.07-.1.15-.12.24l-.09.33c-.01.05-.02.11-.02.16l.43,57.73-1.85-2.48-.12-.44-.49-59.29.04-.13ZM122.36,17.43l1.82,2.19-1.84.53.02-2.72ZM127,22l28.17.18.91.11.7.27.38.32.12.32.46,28.76-.11.33-.36.31-.69.26-.92.1-28.93-.19.29-30.77ZM162.19,20.59h0l.66,35.79v.04s0,0,0,0l.04,2.33-.1,5.67-36.2-.24.1-10.16,28.97.19h0s.04,0,.07,0l1.03-.11c.05,0,.1-.02.15-.04l.87-.33c.07-.03.13-.06.19-.11l.58-.5c.09-.07.15-.17.18-.28l.2-.6-.4-.13h.43s0-.07,0-.07l-.46-28.97c0-.07-.01-.14-.04-.21l-.21-.58c-.04-.1-.1-.19-.18-.26l-.58-.49c-.05-.04-.11-.08-.18-.11l-.87-.33s-.1-.03-.15-.04l-1.02-.12s-.05,0-.07,0l-28.2-.18v-.29c0-.07,0-.13-.03-.2l-.29-.89s-.02-.06-.04-.09l35.51.23.02,1.07ZM79.86,19.62v-.47s.05-.13.05-.13l.02-.02.1-.03,6.44.04-6.63,1.88.03-1.29ZM67.16,10.18l-.66-.46c-.09-.07-.21-.1-.32-.11l-1.09-.06s-.1,0-.15,0l-2.35.42c-.07.01-.13.03-.19.07l-.4.22c-.12.07-.22.17-.28.3l-.16.38c-.03.08-.05.16-.05.25h0S11.73,20.08,11.73,20.08l-.19-.35h0c-.06-.12-.16-.21-.28-.27l-.1-.05s-.1-.04-.16-.05l-.41-.07c-.07-.01-.15-.01-.22,0l-2.38.43s-.09.02-.13.04l-1.1.46c-.08.03-.16.09-.22.15l-.03.03-1.81-3.48s-.05-.08-.08-.11c-.01-.04-.03-.09-.05-.13l-1.91-3.66.07-.03L66,1.75h.35s.11.02.11.02l.12.1,2.03,3.64.02,4.4-1.46.26ZM70.01,9.67v-1.67s.84,1.51.84,1.51l-.04.02-.79.14ZM2.76,83.21L1.25,13.74v-.51s.03-.06.03-.06l.1-.1c0,.09.02.17.06.25l1.67,3.21-.28.11c-.08.03-.16.08-.22.15l-.26.27c-.07.07-.12.16-.15.26l-.09.32c-.02.06-.02.12-.02.18l1.42,66.93-.74-1.48-.03-.07ZM8.86,92.17l-.78.02-.65-.18-.44-.36-2.02-3.99-.02-.07L3.47,18.13l.02-.09.06-.06.17-.07.1-.02,1.85,3.54c.04.07.09.13.15.19l.31.26c.07.06.14.1.23.12l.32.09c.06.02.13.03.19.03h.5s.06-.02.1-.02l63.62-11.37s.07-.02.1-.03l.42-.15c.09-.03.17-.09.24-.16l.17-.18-.46-.43h.62s.08.14.08.14l.05.14.05,12.95-4.18,1.19-.03-5.62s0-.1-.02-.15l-.2-.83c-.01-.05-.03-.1-.06-.15l-.02-.04-.44.24.36-.34-.56-.62c-.06-.07-.14-.13-.23-.16l-.86-.34c-.07-.03-.15-.05-.23-.04h-1.01s-.07.01-.11.02L14.64,25.17s-.07.01-.1.03l-1.01.36c-.06.02-.12.05-.17.09l-.85.65c-.06.04-.1.09-.14.15l-.56.84c-.04.07-.08.14-.09.22l-.19.91s-.01.09-.01.14l1.09,57.33c0,.05,0,.1.02.15l.21.8s.02.06.03.08h0s.02.04.02.04h0c.03.05.06.1.1.15l.58.61c.06.07.14.12.23.15l.86.32c.07.03.14.04.22.04h.01l1-.02s.07,0,.1-.01l39.1-7.23.02,2.62-46.26,8.57ZM56.57,99.54l1.88,2.57v.23s-1.79-2.46-1.79-2.46l-.1-.35ZM68.52,107.94v-.04s.01,0,.01,0h0s-.02.04-.02.04ZM121.13,79.09v.47s0,.03,0,.03v.65s0,.02,0,.03v1.14s0,.02,0,.03l-.09,10.38-51.69,15.31-.32-64.93.13-.64.36-.61.56-.51.7-.33,13.8-3.95s0,0,.01,0l8.36-2.39s0,0,.01,0l27.23-7.79.64-.07.4.14.24.26.11.48-.44,52.29s0,.02,0,.03ZM124.88,90.45l-.62.33-1.99.59.1-11.76s0-.03,0-.03l.45-52.86s0-.09-.01-.14l-.16-.71c-.02-.11-.07-.2-.15-.28l-.46-.51c-.05-.06-.12-.11-.19-.14-.03-.01-.05-.02-.08-.03l-.69-.23c-.08-.03-.17-.04-.26-.03l-.81.08s-.07.01-.11.02l-27.32,7.82s0,0-.01,0l-8.36,2.39s0,0-.01,0l-13.84,3.96s-.06.02-.09.03l-.83.39c-.06.03-.11.06-.15.1l-.7.63s-.09.09-.12.14l-.47.78c-.04.06-.06.13-.08.2l-.16.81s-.01.08-.01.13l.32,65.29-2.68.8-.77.1-.68-.12-.65-.38-3.4-3.52v-.58s2.48,2.59,2.48,2.59c.04.04.08.08.13.1l.74.44c.06.04.14.06.21.08l1.01.18s.07,0,.11,0c.03,0,.05,0,.08,0l1.02-.13h0c.05,0,.11-.02.16-.04.24-.1.39-.33.39-.58v-.83s-.55,0-.55,0l-.03-.04.13-.04h0s.04-.01.06-.02c.24-.1.39-.33.39-.58v-.49s-.23,0-.23,0l-.11-.12c.21-.11.34-.32.34-.56v-.49s-.23,0-.23,0l-.11-.12c.21-.11.34-.32.34-.56v-.49s-.23,0-.23,0l-.11-.12c.21-.11.34-.32.34-.56v-.49s-.23,0-.23,0l-.12-.12c.16-.08.27-.22.32-.39.01-.05.02-.11.02-.16h0v-.49c0-.12-.04-.24-.11-.34.07-.1.1-.22.1-.35v-.82s-.55,0-.55,0l-.09-.09-.06-.53-.93.11-.81-.15-.57-.34-3.35-3.54-.44-59.3.03-.12.08-.09.17-.09.15-.04,3.26,3.42s.08.07.13.1l.38.23c.06.04.14.07.21.08l.35.07c.06.01.12.01.18,0l.49-.06s.07-.01.1-.02l14.12-4.03s.02,0,.03,0l5.57-1.59h0s8.5-2.43,8.5-2.43c0,0,0,0,.02,0l31.49-8.99s.08-.03.11-.05l.37-.19c.11-.05.2-.14.26-.24l.11-.2s.05-.1.06-.15l.19.59-.56,59.07-.16.28-.6.31c-.2.11-.33.32-.33.55v.83c0,.12.03.23.09.33-.06.1-.1.21-.11.34v.49s.62,0,.62,0v.02s-.18.06-.18.06c-.26.08-.44.32-.45.59v.49c0,.12.03.23.09.33-.06.1-.1.21-.11.34v.49s.62,0,.62,0v.02s-.18.06-.18.06c-.26.08-.44.32-.45.59v.49c0,.12.03.24.09.34-.06.1-.1.21-.1.34v.49c0,.12.03.23.09.33-.06.1-.1.21-.1.34v.82s.62,0,.62,0l.29.55.15-.08v.68s-.23.42-.23.42ZM162.66,71.03l-.04.45-.03.12-36.06-.24.05-5.59,36.18.24-.1,5.01Z"/>
  </g>
</svg>