<?xml version="1.0" encoding="UTF-8"?>
<svg id="Layer_2" data-name="Layer 2" xmlns="http://www.w3.org/2000/svg" viewBox="0 0 234.13 120.44">
  <g id="Layer_1-2" data-name="Layer 1">
    <g>
      <path d="M234.13,8.36l-.03-.19s-.01-.06-.03-.08l-.08-.14s-.04-.06-.07-.08l-.12-.1s-.05-.03-.07-.04l-1.06-.42v-.26s0-.11,0-.11c0-.02,0-.03,0-.05l-.11-.58s-.03-.08-.05-.11l-.34-.45-.11-.12s-.04-.04-.07-.06l-2.01-1.12-2.44-1.31-2.45-1.24-.56-.27s-.03-.01-.05-.02l-.76-.2-.96-.16s-.02,0-.03,0l-1.16-.06-1.15.04-4.76.38h-1.44s-.64-.11-.64-.11l-1.93-.86-.42-.32s-.02-.01-.03-.02l-.39-.22s-.07-.03-.1-.03l-.58-.07s-.05,0-.07,0l-.69.1s-.02,0-.03,0l-1.18.29-.69.24s-.03.01-.05.02l-.4.24-2.49.31s-.03,0-.05,0l-2.94.89-3.22,1.33-3.46,1.66-2.44,1.26-3.67,1.91-5.42,2.8-2.31,1.12-1.05.26-2.65.7-.32.09h0s-3.55.97-3.55.97l-2.13.58-2.85.75-2.73.65-2.79.56-2.73.41-2.63.31-2.52.28-2.42.24-2.33.2-2.26.16-2.21.11-2.17.06h-2.14s-2.14-.05-2.14-.05l-2.14-.12-2.17-.18-2.13-.25v-.79s.2-.12.2-.12c.02,0,.03-.02.05-.03l.63-.56h0s.08-.09.09-.15l.09-.47.24-.08s.03-.01.05-.02l.45-.26s.04-.03.06-.05l.29-.31s.02-.02.03-.03l.48-.71h0s.03-.04.04-.06l.14-.39s.02-.1.01-.15l-.09-.45-.19-.83h0s-.03-.08-.05-.11l-.36-.44s-.03-.04-.05-.05l-.6-.43s-.02-.02-.04-.02l-1.38-.68s-.02,0-.03-.01l-.11-.04-.05-4.13s0-.06-.01-.08l-.07-.22s-.01-.03-.02-.04l-.3-.58s-.05-.07-.08-.09l-1.58-1.2s-.04-.03-.07-.04l-.36-.14s-.04-.01-.06-.02l-.75-.11-3.89-.16-.33.02-.3.04-.47.11s-.03,0-.04.01l-2.5,1.03s-.05.02-.07.04l-.21.17s-.05.05-.07.08l-.31.59s-.03.08-.03.13l-.04,4.21-1.06.26-1.16.33-1.07.35-.98.36-.69.27-.93.4-.85.42-.27.15-1.77-.17s-.02,0-.03,0l-1.79.06s-.03,0-.04,0l-1.79.31s-.02,0-.03,0l-1.79.53-1.74.68-1.69.79-1.63.86-1.56.88-2.39,1.39-.52.1-1.64.42-1.29.45-.66.25s-.03.01-.04.02l-.97.55s-.06.04-.08.07l-.33.42-.19.03-.87.1-1.49.1-.54.06s-.03,0-.04,0l-.37.11s-.04.01-.05.02l-.8.43s-.05.03-.07.06l-.18.19s-.05.07-.06.11l-.26.88s-.01.1,0,.14l.08.3s.02.05.03.07l.05.08-3.96.56-6.9.82-21.04,2.23-6.85.83-6.62.95-6.32,1.13-5.92,1.35-5.28,1.47-5.18,1.66-4.5,1.69-3.96,1.76-3.37,1.82s-.02,0-.02.01l-2.76,1.87s-.02.02-.03.02l-2.73,2.5s-.03.03-.04.04l-1.43,1.99s-.03.05-.04.07L.01,47.93s-.02.06-.01.09l.02.9.09,2.06s0,.07.02.1l.92,2.07s.03.05.04.07l1.78,2.08s.02.02.03.03l.66.56,2.45,1.95s.02.01.03.02l2.92,1.76,3.27,1.56,3.54,1.38,3.72,1.2,3.81,1.03,3.81.88,3.71.73,3.53.59,2.71.39,3.27.41,2.64.27,2.52.18,2.54.08h2.54s2.52-.09,2.52-.09l2.5-.14,2.46-.19,2.42-.22,2.36-.24,3.58-.38-6.87,4.7-3.48,2.46-3.29,2.46-3,2.44-2.62,2.41h0s0,0,0,0l-.05.05-2.67,2.95s-.02.02-.02.03l-1.55,2.3s-.02.03-.03.05l-.87,2.23s-.02.06-.02.09l-.07,2.14s0,.03,0,.04l.1.92s0,.05.02.07l.83,2.03s.02.05.04.07l1.55,1.9s.02.02.03.03l2.01,1.76s.02.01.02.02l3.1,2.08s.02,0,.02.01l2.78,1.46,3.09,1.3,3.36,1.14,3.58.97,3.75.8,3.87.62,3.94.44,3.96.25,3.96.05,3.86-.22,3.69-.52,3.57-.75,3.49-.9,6.98-1.99,3.6-.96,3.75-.85,3.96-.68,1.47-.16.64,7.62s0,.05.02.07l.07.18s.02.05.04.07l.31.41s.04.04.06.06l.77.48s.03.02.05.02l.58.2.69,6.19s0,.05.02.07l.23.56s.02.04.03.06l.3.39s.03.04.05.05l.49.37.52.31s.03.02.05.02l.73.26s.02,0,.04.01l.9.18s.02,0,.03,0l1.05.1.45.02.3.14s.03.01.05.02l1.01.24s.02,0,.04,0l1.18.12s.02,0,.03,0h1.23s.02-.01.03-.01l1.16-.14s.03,0,.04,0l.41-.11,35.37,1.61.3.14s.03.01.05.02l1.02.24s.02,0,.04,0l1.18.12s.02,0,.03,0h1.23s.02-.01.03-.01l1.15-.14s.03,0,.04,0l.47-.13h.65s1-.1,1-.1c0,0,.02,0,.03,0l.89-.18s.02,0,.04-.01l.72-.26s.04-.02.05-.03l.53-.33.47-.35s.04-.04.06-.06l.29-.4s.02-.04.03-.06l.22-.57,4.87-14.64s.01-.04.01-.06l.2-1.85,2.27-6.81.07-.22s0-.04.01-.06l1.06-12.9h0s0-.02,0-.04v-.15s0-.05,0-.05c0-.02.01-.04.01-.06l.07-.81s0-.02,0-.04l-.02-.41s0-.03,0-.04l-.08-.36s-.03-.09-.06-.12l-.35-.41-.23-.23s-.03-.02-.04-.03l-1.85-1.21-.63-.36s-.03-.01-.04-.02l-1.16-.39s-.02,0-.03,0l-1.04-.2s-.02,0-.03,0l-1.18-.1-18.12-.79-.06-.05s-.03-.03-.05-.04l-.3-.16-.31-35.86s0-.06-.02-.09l-.08-.23s0-.02-.02-.04l-.31-.6s-.04-.07-.08-.09l-1.66-1.28s-.04-.03-.07-.04l-.38-.15s-.04-.01-.06-.02l-.77-.11-4.02-.17-.33.02-.29.03s-.02,0-.03,0l-.48.11s-.03,0-.04.01l-2.56,1.1s-.05.03-.07.04l-.21.18s-.05.05-.06.08l-.32.61s-.03.08-.03.13l-.04,3.7-12.8-.54-.36-.31s-.03-.03-.05-.04l-.32-.17-.12-10.43,2.4-.94,3.04-1.14,3.1-1.1,3.17-1.07,3.26-1.04,3.36-1.02,3.48-1,4.71-1.28,3.91-1,4.12-1,4.29-1.23,4.3-1.61,4.25-1.87,2.32-1.13.47-.11,2.68-.58,3.46-.62,3.15-.4,1.69-.12.15.33.26.46s.01.02.02.03l.16.2c.04.05.1.09.16.1l.14.03s.03,0,.05,0c.02,0,.04,0,.05,0h0s1.18-.23,1.18-.23l3.43-.27.89.07.45.04,1.71.4,1.72.56,1.44.51,1.13.43,1,.3s.02,0,.03,0l1.22.23,1.21.11,1.04.02h0s.02,0,.03,0l4.32-.43,2.73-.3,5.2-.59s.04,0,.06-.01l.25-.08s.07-.03.09-.05l.2-.18s.02-.02.02-.02l.11-.13s.03-.04.04-.06l.12-.23s.02-.04.02-.06l.04-.18,1.14-.29,1.01.4s.02,0,.03,0l.15.04s.05,0,.07,0c0,0,.01,0,.02,0h.18s.03-.02.05-.02l5.15-1.29s.03,0,.04-.01l.18-.08s.04-.02.06-.04l.15-.12s.03-.03.04-.04l.14-.16s.02-.03.03-.04l.1-.18s.02-.03.02-.05l.06-.21s0-.02,0-.03l.54-2.94s0-.02,0-.03l.02-.29s0-.05,0-.07ZM226.14,10.57s0,.02,0,.03l.45,2.51-1.64-.65-.76-3.1c-.04-.18-.01-.37.08-.53.1-.16.26-.27.44-.31l6.16-1.33,1.65.65-5.54,1.38s-.03,0-.04.01l-.26.1s-.05.03-.07.04l-.16.13s-.04.03-.05.05l-.12.16s-.03.04-.04.06l-.08.17s-.02.04-.02.06l-.04.21s0,.04,0,.06l.02.28ZM227.27,3.63l2.43,1.3,1.53.86-7.13,1.27c-.66.12-1.14.69-1.15,1.36l-.06,5.1-2.74-.77-3.32-.97-3.22-1-.46-.22-.58-.31-.49-.38-.3-.4-.27-.41-.1-.51v-.39s.01-2.94.01-2.94l.12-.55.11-.18c1.26-.26,10.95-2.28,12.01-2.51l.64.17,2.97,1.49ZM211.24,4.1l-.19.32s-.03.05-.03.08l-.14.62s0,.04,0,.06v.49s-.02-.02-.02-.02c-.02-.03-.04-.05-.07-.06l-.78-.53-.04.05-2-.71s-.03,0-.04-.01l-.9-.16-.26-.15-.08-.2v-1.47c.75.2,2.5.68,3.07.9.42.16,1.06.48,1.54.72-.02.02-.04.04-.05.06ZM204.91,6.25l-.52.35-1.03.61-1.38.68-1.49.54-1.39.27-3.45.09-1.25-.11h0s-.03,0-.05,0l1.81-.93,3.36-1.61,3.03-1.26,2.62-.8.96-.13s0,.06.02.09l.13.34c.02.06.07.11.12.14l.39.22s.06.03.09.03l.93.16.29.1-1.03.22s-.02,0-.03,0l-.99.34s-.03.01-.04.02l-.73.39s-.02.01-.03.02l-.33.23ZM195.07,11.32v.1s-2.28.17-2.28.17l-3.1.4-2.52.44.67-.34.42-.22,1.37-.24,3.12-.4,2.31-.17.02.27ZM134.34,13.28l.26-.28s.05-.06.06-.09l.12-.33s.02-.08.01-.12l.16.19.06.29-.09.25-.23.24-.4.23-.58.2-.72.17-.11.02v-.18s.39-.09.39-.09c0,0,.02,0,.03,0l.53-.18s.03-.01.05-.02l.4-.23s.04-.03.06-.05ZM135.21,13.78l-.1.27-.24.26-.42.24-.6.21-.74.17-.2.03v-.37s.2-.03.2-.03l.75-.17s.02,0,.03,0l.61-.21s.03-.01.05-.02l.46-.26s.04-.03.06-.05l.13-.14.02.09ZM132.92,16.32v-.23s.47-.1.47-.1v.06s-.47.27-.47.27ZM133.46,15.41l-.55.13v-.02s.3-.05.3-.05l.27-.06h-.02ZM133.64,13.06l-.12-.11.19.07-.07.04ZM133.29,12.8l-.05.05-.19-.23s-.03-.04-.05-.05l-.12-.09v-.44s.24.17.24.17l.2.24.03.18-.06.17ZM194.05,8.98s-.03.07-.04.11l-.03.31s0,.02,0,.03v.55s-1.51.11-1.51.11l-1.09.14,1.09-.57,1.71-.88s-.02.03-.03.04l-.09.16ZM206.14,3.17l-1.53.19s-.03,0-.05,0l-2.65.81-3.01,1.25-3.32,1.6-2.44,1.26-3.57,1.86-5.31,2.75-4.07,1.98-4.14,1.82-4.17,1.56-4.17,1.2-4.07.99-3.9.99-3.73,1-3.59,1.02-2.63.79-3.44,1.07-3.32,1.1-3.22,1.12-3.13,1.15-3.06,1.18-.55.22v-.33s2.77-1.09,2.77-1.09l3.02-1.13,3.08-1.09,3.15-1.06,3.24-1.03,3.34-1.01,3.46-.99,4.67-1.27,3.89-.99,4.05-.98,4.13-1.19,4.01-1.5,4.21-1.84,4.03-1.96,3.92-2.02,2.43-1.28,4.9-2.54,3.3-1.59,2.99-1.24,2.62-.8,1.87-.24v.25ZM135.76,27.77l3.08-1.14,3.15-1.11,3.24-1.08,3.35-1.06,3.47-1.04,3.6-1.02,3.75-1.01,3.91-1,4.06-.98,4.12-1.18,4.11-1.53,4.1-1.8,4.04-1.96,3.94-2.03,3.79-1.99,3.6-1.85,3.36-1.62,3.07-1.28,2.76-.84,1.9-.23s0,.03,0,.04v.3s-1.94.24-1.94.24c-.02,0-.03,0-.05.01l-2.69.82-3.03,1.26-3.32,1.6-3.57,1.84-3.76,1.98-3.91,2.01-4.02,1.95-4.08,1.79-4.09,1.53-4.1,1.18-4.05.98-3.9.99-3.73,1-3.59,1.02-3.45,1.03-3.34,1.05-3.23,1.08-3.14,1.11-3.07,1.14-3.01,1.17h-.02s0-.32,0-.32l2.7-1.05ZM170.98,16.42l-2.71.78h0s-2.03.48-2.03.48l-2.8.56-2.77.42-2.67.32-2.54.28-2.45.25-2.37.21-2.31.16-2.26.11-2.23.06h-2.21s-2.21-.05-2.21-.05l-2.23-.12-2.25-.19-1.99-.23v-.37s2.02.24,2.02.24l2.24.19,2.21.12,2.2.06h2.2s2.22-.07,2.22-.07l2.25-.11,2.3-.16,2.36-.2,2.44-.25,2.54-.28,2.67-.31,2.76-.41,2.79-.56,2.81-.67,2.84-.74,1.96-.54-2.79,1.05ZM134.89,20.22l2.27.19,2.24.12,2.23.06h2.23s2.24-.07,2.24-.07l2.27-.11,2.32-.16,2.38-.21,2.45-.25,2.55-.28,2.06-.24h-.03s-.97.27-.97.27h0s-3.79.42-3.79.42l-2.45.25-2.37.21-2.3.16-2.26.11-2.22.06h-2.21s-2.21-.05-2.21-.05l-2.22-.12-2.25-.19-1.89-.22v-.17s1.93.22,1.93.22ZM134.77,21.02l2.22.19,2.2.12,2.18.06h2.19s2.21-.07,2.21-.07l2.24-.11,2.29-.16,2.36-.21,2.44-.25h.07s-.15.03-.15.03l-3.64,1.03-2.63.79-3.49,1.09-3.37,1.11-3.27,1.14-3.18,1.16-2.39.92-.08-7.05,1.8.21ZM192.68,10.68l-2.87.37.17-.09,2.54-.33,2.42-.18v.04s.02.02.02.02l-2.28.17ZM194.52,9.94v-.46s.16.28.16.28l.07.16-.24.02ZM207.67,1.15l.64-.23,1.14-.28.64-.09.49.06.32.18.31.23-.02.04,2.18.97s.04.02.06.02l.65.12h0s1.57,0,1.57,0l4.77-.38,1.12-.04.42.02c-2.72.57-8.02,1.68-9.89,2.06-.33-.17-1.48-.76-2.13-1.02-.62-.24-2.46-.74-3.17-.93l.02-.07.33-.34.53-.32ZM135.02,18.73l2.19.19,2.16.12,2.15.05h2.16s2.18-.06,2.18-.06l2.22-.11,2.27-.16,2.34-.2,2.43-.24,2.53-.28,2.64-.31,2.72-.41,2.75-.55,2.79-.66,2.72-.71,5.64-1.54,1.45-.39-.58.25-5.88,1.61-2.88.75-2.85.68-2.82.57-2.79.42-2.69.32-2.53.28-2.44.24-2.35.2-2.29.16-2.24.11-2.2.06h-2.19s-2.18-.05-2.18-.05l-2.19-.12-2.22-.19-2.09-.24v-.04s2.07.24,2.07.24ZM133.46,11.58l.49.34.25.3.05.23-.08.21-.19.2-.16.09.08-.21s.02-.1.01-.15l-.06-.32s-.03-.09-.06-.12l-.27-.33s-.03-.04-.05-.05l-.46-.33s-.02-.02-.04-.02l-.1-.05v-.11s.6.29.6.29ZM124.67,4.58l.42-.1.26-.04.28-.02,3.84.16.69.1.3.12,1.41,1.07-2.42,1.01-.42.1-.52.03-4.06-.17-.5-.07-.3-.12-1.41-1.08,2.44-1ZM146.37,72.88l-.04,1.96-16.82-.74h-1.22s-1.15.1-1.15.1c0,0-.02,0-.03,0l-1.03.2s-.02,0-.04,0l-1.1.38s-.03.01-.05.02l-.62.36s-.02.01-.03.02l-.5.38-27.12-1.19-1.12-.1-.98-.19-.78-.27-.53-.32-.11-.08-.24-.32-.04-.11-.98-11.39.4.23s.03.02.05.02l.83.28s.02,0,.04,0l1.02.2s.02,0,.03,0l1.15.1,51.13,2.22-.1,8.19ZM115.79,93.44l-.08.41s0,.03,0,.05v.45s.06.79.06.79c0,.03.01.06.02.08v.2s0,.02,0,.03h0s.15,1.76.15,1.76l-1.62.17-4.12.71-3.87.88-3.67.98-6.96,1.98-3.4.88-3.41.71-3.48.49-3.63.21-3.79-.05-3.84-.24-3.82-.42-3.76-.6-3.65-.78-3.48-.95-3.27-1.11-3-1.26-2.7-1.42-1.72-1.14-1.82-1.58-1.44-1.76-.63-1.54.04-1.3.8-2.07,1.47-2.19,1.5-1.67,2.53-2.33,2.96-2.41,3.26-2.44,3.46-2.46,5.84-4,4.84-3.32.96-.68,3.33-.25,2.53-.16,2.69-.14,2.74-.12,2.82-.1,2.9-.07,2.08-.03.64,7.48s0,.05.02.07l.07.18s.02.05.04.07l.29.38s.04.04.06.06l.17.12.58.34s.03.02.05.02l.58.2.69,6.06s0,.05.02.07l.23.54s.02.04.04.06l.28.37s.03.04.05.05l.46.35s.02.01.02.02l.49.3s.03.02.05.02l.7.24s.02,0,.04,0l.87.17s.02,0,.03,0l1.02.09.35.02.4.18s.03.01.05.02l.98.23s.02,0,.04,0l1.14.11s.02,0,.03,0h1.19s.02-.01.03-.01l1.13-.14s.02,0,.04,0l.55-.14,14.55.64-3.77,9.59s-.01.03-.01.05ZM.64,50.01l-.09-1.95.12-.36.08,1.72s0,.07.02.1l.9,2.04s.03.05.04.07l1.76,2.05s.02.03.04.04l2.45,1.95s.02.01.03.02l2.92,1.76,3.28,1.56,3.55,1.38,3.72,1.2,3.81,1.03,3.81.88,3.72.73,3.53.59,2.71.39,3.27.41,2.61.27,2.48.18,2.48.08h2.49s2.48-.09,2.48-.09l2.47-.14,2.44-.18,2.4-.22,8.98-.94,2.04-.19s.03,0,.03,0l2.1-.17,2.36-.17,2.56-.16,2.71-.15,2.74-.12,2.83-.1,2.92-.07,2.01-.03.03.31-1.85.02-2.95.07-2.91.1-2.83.13-2.71.14-2.56.16-4.49.34-1.42.13-4.97.52-4.65.48-2.41.22-2.45.18-2.48.14-2.5.08h-2.51s-2.5-.07-2.5-.07l-2.5-.18-2.46-.25-2.91-.36-3.28-.47-3.56-.6-3.74-.73-3.83-.88-3.83-1.04-3.74-1.2-3.55-1.38-3.27-1.56-2.91-1.76-2.44-1.94-1.73-2.02-.88-1.98ZM74.69,62.6l3.05-2.28,2.76-2.21,2.43-2.15.02-.02.7-.13-.4.41-2.42,2.14-2.74,2.21-3.04,2.28-.62.44-.75.05,1.02-.73ZM84.86,55.57l-1.4,1.41-2.54,2.27-2.75,2.21-2.28,1.71-.43.03,2.96-2.22,2.76-2.22,2.44-2.16.98-.99.26-.05ZM91.23,58.99l-.08.4s0,.03,0,.04v.4s-.01.02-.01.03l.07.76s.01.06.03.09v.18s0,.02,0,.03h0s.14,1.64.14,1.64l-1.65.02-2.98.07-2.93.1-2.84.13-2.72.15-1.05.07.77-.58,2.76-2.22,2.43-2.16,1.93-1.95.71-.76h0s0,0,0,0l.02-.02v-.02s5.46-1.04,5.46-1.04l2.14-.42-2.15,5.01s-.01.04-.02.05ZM24.73,37.49l2.92-1.1,3.14-.99,3.41-.91,3.65-.82,3.88-.73,4.09-.63,4.28-.54,3.58-.35,3.43-.24,3.28-.13,3.13-.03,2.74.07,2.99.19,2.84.3,2.6.4,2.48.51,2.36.61,2.25.72,2.13.82,1.79.83,1.43.8,1.07.77.75.73.45.7.19.67-.03.66s0-.03,0-.04l-.21-.74s-.02-.05-.03-.07l-.48-.75s-.02-.03-.04-.05l-.77-.76s-.02-.02-.03-.03l-1.08-.78s-.02-.01-.03-.02l-1.44-.8-1.8-.83-2.12-.82-2.23-.72-2.34-.61-2.45-.5-2.56-.39-2.68-.29-2.81-.18-2.95-.08-3.09.03-3.24.13-3.4.24-3.55.35-4.25.53-4.06.63-3.85.72-3.63.82-3.39.9-3.13.99-2.85,1.07-2.56,1.16-2.25,1.24-1.89,1.3s-.02.01-.03.02l-1.54,1.37s-.02.02-.03.03l-1.17,1.44s-.03.04-.04.07l-.61,1.49.25.1h0s-.27.01-.27.01l.04.88-.04-.09-.07-1.45.58-1.43,1.14-1.41,1.53-1.36,1.88-1.29,2.24-1.23,2.5-1.13ZM24.45,39.52l2.29-.87,2.44-.79,2.58-.7,2.7-.62,2.69-.52,2.82-.46,2.9-.39,2.97-.32,3.03-.25,3.07-.18,3.1-.12,3.46-.06,2.74.03,3.04.13,2.96.23,2.87.34,2.68.43,2.48.52,2.3.62,2.11.71,1.89.79,1.66.89,1.38.96,1.1,1.04,1.18,1.67.16.41-.21.18-.04-.09s-.02-.04-.03-.06l-1.2-1.7s-.02-.03-.04-.04l-1.11-1.05s-.02-.02-.03-.03l-1.38-.96s-.02-.01-.03-.02l-1.66-.89-1.89-.79-2.1-.7-2.28-.61-2.45-.52-2.6-.42-2.73-.33-2.84-.23-2.92-.13-3-.03-3.06.05-3.08.11-3.07.18-3.04.24-3,.31-2.94.39-2.87.46-2.78.54-2.68.62-2.56.7-2.43.78-2.29.87-2.01.93s-.02,0-.02.01l-1.65.98s-.02.01-.03.02l-1.29,1.03s-.03.02-.04.04l-.91,1.06s-.03.04-.04.06l-.53,1.08s-.02.06-.03.09l-.09.8-.1-.37.12-1.02.5-1.03.89-1.04,1.28-1.02,1.66-.99,2.02-.94ZM84.48,41.08l-1.39-.97s-.02-.01-.03-.02l-1.67-.89-1.89-.8-2.1-.71-2.29-.61-2.46-.52-2.61-.43-2.74-.33-2.84-.23-2.93-.13-3.01-.03-3.07.05-3.08.11-3.07.18-3.05.24-3,.31-2.94.39-2.87.46-2.79.54-2.68.62-2.57.7-2.44.79-2.29.88-2.01.94s-.02,0-.02.01l-1.66.99.04.07h-.02s-.05-.04-.05-.04l-1.2.95.33-.39,1.26-1,1.63-.97,1.98-.92,2.25-.86,2.41-.78,2.54-.69,2.66-.61,2.69-.52,2.78-.45,2.86-.38,2.93-.31,2.99-.25,3.03-.18,3.06-.12,3.38-.06,2.74.03,2.99.13,2.9.23,2.79.33,2.58.42,2.43.51,2.25.6,2.06.69,1.85.78,1.62.87,1.35.94,1.07,1.02.08.12-.71-.67s-.02-.02-.03-.03ZM19.42,48.1l-.56-.86-.25-.94.02-.19.49-1.01.88-1.02.81-.65,1.47-.88,2.03-.95,2.3-.88,2.46-.79,2.59-.71,2.67-.61,2.73-.53,2.83-.46,2.92-.39,2.99-.32,3.04-.25,3.08-.19,3.11-.12,3.49-.06,2.74.03,3.06.13,2.98.23,2.89.34,2.72.44,2.5.53,2.32.62,2.12.71,1.9.8,1.67.89.75.52,1.04.99.86,1.22-.64.48-1.28.85-1.46.88-1.63.89-1.77.89-1.9.87-2.01.83-2.11.78-2.18.72-2.24.64-2.28.54-2.32.44-2.5.38-2.72.36-2.79.31-3.02.27-3.78.25-3.41.11h-3.44s-3.43-.14-3.43-.14l-3.38-.29-3.28-.46-3.14-.65-2.96-.87-2.56-.99-2.17-1.07-1.62-1.07-.67-.63ZM87.5,42.63l-.1-.26s-.02-.04-.03-.06l-1.22-1.72s-.02-.03-.04-.04l-1.13-1.07s-.02-.02-.03-.03l-1.41-.98s-.02-.01-.03-.02l-1.57-.84.41.17,1.71.91,1.43.99,1.13,1.07,1.15,1.62-.27.25ZM87.75,40.92s-.02-.03-.04-.04l-1.19-1.12s-.02-.02-.03-.02l-.63-.44h-.01s0-.01,0-.01l-1.49-1.04s-.02-.01-.03-.02l-1.75-.93-1.99-.84-2.21-.74-2.41-.64-2.59-.55-2.71-.44-2.76-.33-2.89-.24-3-.15-3.49-.05-2.74.04-.85.03,2.16-.15,3.3-.13,3.15-.03,2.74.07,3.01.19,2.87.3,2.64.4,2.49.51,2.38.62,2.26.73,2.15.83,1.83.84,1.44.81.41.3.74.73.45.69.05.18v.23s-.25.67-.25.67l-.35.57-.04.04-.61-.87ZM88.12,38.27s-.02-.02-.03-.03l-1.09-.78s-.02-.01-.03-.02l-1.45-.81-1.81-.84-2.13-.83-2.24-.72-2.35-.61-2.45-.5-2.57-.39-2.69-.29-2.82-.18-2.95-.08-3.1.03-3.25.13-3.4.24-3.56.35-4.26.53-4.07.63-3.86.73-1.28.29h0s-2.69.52-2.69.52l-2.98.68-1.32.36,1.43-.45,3.36-.9,3.61-.81,3.84-.72,4.04-.63,4.24-.53,3.54-.35,3.38-.24,3.22-.13,3.07-.03,2.74.07,2.92.18,2.71.29,2.53.39,2.42.49,2.31.6,2.2.71,2.09.81,1.76.81,1.4.79,1.05.75.74.72.02.04-.28-.28ZM17.16,44.43l.52-1.07.93-1.07,1.3-1.03,1.74-1.04.53-.24s0,0,0,0l-1.69,1s-.03.02-.04.03l-1.31,1.04s-.03.02-.04.04l-.93,1.08s-.03.04-.04.06l-.54,1.11s-.02.06-.03.09l-.13,1.12s0,.07,0,.1l.29,1.13s.02.06.04.08l.73,1.13.13-.08.02.02-.1.11,1.08,1.02-.41-.27-1.18-1.11-.71-1.1-.28-1.07.12-1.06ZM17.12,49.97l-.9-1.05-.68-1.47-.04-.78.27-.67v.08s-.08.89-.08.89c0,.03,0,.06,0,.09l.31,1.2s.02.06.04.08l.78,1.2s.02.03.03.04l.6.64.18.17-.52-.41ZM88.62,45.92l-.34,1.8-.8,1.86-1.24,1.93-.72.87-.23.04.47-.56s.01-.02.02-.03l1.25-1.94s.02-.03.02-.04l.81-1.89s.01-.04.02-.06l.34-1.84s0-.05,0-.07v-.11s.36-.31.36-.31l.03.35ZM87.61,46.39v-.04s0,0,0,0v.04ZM86.75,48.44l-.78,1.83-1.22,1.9-.36.43-2.34.45-2.68.57-2.9.67-5.52,1.33-2.72.61-2.75.56-2.83.49-3.38.46-3.37.31-3.67.18-4.02.04-4.4-.13-4.49-.35-4.26-.61-4-.84-2.28-.64,3.1.65,3.47.49,3.56.31,3.6.14h3.59s3.53-.12,3.53-.12l3.43-.21,2.73-.24,3.28-.35,3.08-.4,2.72-.41,2.43-.46,2.4-.57,2.35-.67,2.28-.75,2.19-.82,2.09-.87,1.97-.9,1.83-.92,1.68-.92,1.51-.91,1.33-.88.13-.1-.32,1.68ZM86.38,52.21l.3-.37s.01-.02.02-.03l1.26-1.96s.02-.03.02-.04l.82-1.91s.01-.04.02-.06l.35-1.86s0-.05,0-.07l-.07-.78.12-.11.12,1.47-.34,1.82-.8,1.88-1.22,1.9-.61.12ZM87.75,51.95h-.01s.59-.92.59-.92l-.02.06-.55.86ZM90.65,42.6l-.65.76-.82.79-.94.79-1.1.82-1.37.92-1.53.92-1.7.93-1.85.93-1.98.9-2.09.87-2.19.82-2.27.75-2.33.67-2.38.57-2.41.46-2.59.39-2.72.36-2.88.33-3.7.34-3.47.22-3.57.12h-3.64s-3.65-.15-3.65-.15l-3.62-.31-3.52-.5-3.37-.7-3.15-.92-2.75-1.06-2.23-1.11-1.71-1.13-1.21-1.14-.73-1.13h0s.36.56.36.56c.01.02.03.04.04.05l1.25,1.18s.02.02.04.03l1.74,1.15s.02.01.03.02l2.26,1.12,2.78,1.08,3.18.93,3.39.71,3.54.5,3.63.31,3.67.15h3.65s3.58-.12,3.58-.12l3.47-.22,3.32-.29,2.72-.3,3.11-.41,2.75-.42,2.41-.45,2.38-.57,2.33-.67,2.27-.75,2.2-.82,2.1-.87,1.99-.91,1.87-.93,1.72-.94,1.56-.94,1.3-.87,1.24-.92.99-.83.83-.8s.01-.01.02-.02l.67-.79s.02-.02.02-.03l.17-.27-.05.14-.45.74ZM91.23,40.25l-.25.71-.46.73-.65.76-.81.78-.97.81-1.05.78-1.45.97-1.54.92-1.7.93-1.85.93-1.98.9-2.09.86-2.18.81-2.25.74-2.31.66-2.35.56-2.39.45-2.58.39-2.87.38-3.11.35-3.31.29-3.46.22-3.57.12h-3.63s-3.64-.15-3.64-.15l-3.6-.31-3.51-.49-3.36-.7-3.14-.92-2.74-1.06-2.23-1.11-1.71-1.13-1.21-1.14-.73-1.13-.29-1.1.13-1.09.13-.26-.09.76s0,.07,0,.1l.3,1.17s.02.06.04.08l.76,1.16s.03.04.04.05l1.22,1.15s.02.02.04.03l1.7,1.12s.02.01.03.02l2.22,1.1,2.72,1.05,3.1.91,3.3.69,3.44.48,3.53.3,3.57.14h3.57s3.51-.12,3.51-.12l3.41-.21,3.27-.29,3.08-.34,2.84-.38,2.55-.39,2.37-.45,2.34-.56,2.3-.65,2.24-.74,2.16-.8,2.07-.86,1.96-.9,1.84-.92,1.69-.93,1.53-.92,1.35-.9,1.15-.85.98-.82.82-.79s.01-.01.02-.02l.66-.77s.02-.02.02-.03l.48-.77s.02-.04.03-.05l.27-.76s.01-.05.02-.08l.03-.76s0-.06-.01-.09l-.02-.07.02.03.21.7-.03.69ZM87.97,36.05l.05.04,1.06.75.77.76.47.72.2.69-.03.68-.24.7-.45.72-.64.75-.68.65-.47.4.63-.6s.01-.01.02-.02l.65-.76s.02-.02.02-.03l.47-.75s.02-.04.03-.05l.26-.75s.01-.05.02-.08l.03-.75s0-.06-.01-.09l-.22-.75s-.02-.05-.03-.07l-.49-.76s-.02-.03-.04-.05l-.79-.77s-.02-.02-.03-.03l-1.1-.79s-.02-.01-.03-.02l-1.45-.81.55.25,1.48.83ZM19.71,39.38l-1.92,1.32s-.02.01-.03.02l-1.56,1.39s-.02.02-.03.03l-1.18,1.46s-.03.04-.04.07l-.62,1.52s-.02.08-.02.12l.08,1.56s.01.07.03.1l.73,1.58s.02.04.04.06l1.34,1.57.04-.03.03.03-.03.04,1.64,1.31-.26-.15-1.91-1.53-1.33-1.56-.71-1.54-.07-1.49.6-1.47,1.17-1.44,1.56-1.39,1.92-1.32,2.28-1.26.38-.17-2.13,1.17ZM13.37,45.41l.07,1.42s.01.07.02.1l.75,1.62s.02.04.04.06l1.37,1.6s.02.03.04.04l1.95,1.56s.02.01.03.02l2.48,1.48s.02,0,.03.01l2.98,1.38,3.42,1.24,3.81,1.07,4.15.87,4.44.64,4.65.37,4.5.13,4.09-.04,3.75-.19,3.46-.32,3.22-.43,3.04-.52,2.9-.59,2.8-.63,5.53-1.33,2.82-.65,2.93-.62,8.58-1.64,2.65-.52.59-.12-.13.3-2.76.54-2.78.53-5.35,1.02.05.27-.1-.26-3.42.72-2.84.66-5.58,1.34-2.84.64-2.94.59-3.08.52-3.27.43-3.5.32-3.79.19-4.12.04-4.55-.13-4.73-.37-4.51-.65-4.2-.88-3.84-1.08-3.43-1.25-3-1.39-2.49-1.49-1.94-1.56-1.35-1.58-.72-1.57-.07-1.53.17-.42ZM14.95,50.89s.02.03.04.04l1.98,1.58s.02.01.03.02l2.52,1.51s.02,0,.03.01l3.03,1.41,3.48,1.27,3.88,1.09,4.24.89,4.55.65,4.76.38,4.57.13,4.14-.04,3.81-.19,3.53-.32,3.29-.44,2.7-.46,3.08-.61,2.94-.66,5.63-1.35,2.79-.65,2.84-.6.72-.14h.04s8.04-1.54,8.04-1.54l2.48-.48-.18.41-2.29.45-5.47,1.04-2.87.56-3.19.67-2.67.62-5.59,1.34-2.79.63-2.85.58-3.35.58-3.29.44-3.53.32-3.81.19-4.15.04-4.57-.13-4.74-.37-4.52-.65-4.21-.88-3.85-1.09-3.44-1.25-3-1.4-2.49-1.49-1.95-1.56-1.35-1.59-.13-.28,1.14,1.34ZM81.86,56.16l-1.71,1.52-2.74,2.2-3.04,2.27-.26.19,2.76-2.07,2.75-2.21,2.13-1.89.11-.02ZM71.09,66.6l-9.94,6.83-3.47,2.46-3.27,2.45-2.97,2.42-2.59,2.38-2.08,2.31s-.02.02-.02.03l-1.2,1.79.08-.2,1.48-2.19,2.05-2.28,2.56-2.36,2.95-2.4,3.25-2.44,3.46-2.45,5.84-4,3.37-2.31.51-.05ZM60.7,72.27l7.94-5.43.81-.08-8.39,5.75-3.47,2.46-3.27,2.45-2.98,2.42-2.59,2.38-2.09,2.31s-.02.02-.02.03l-1.5,2.23s-.02.04-.03.05l-.83,2.14s-.02.06-.02.09l-.07,1.95-.21-.52.07-1.96.81-2.1,1.49-2.21,2.07-2.29,2.57-2.37,2.97-2.41,3.26-2.44,3.47-2.45ZM119.79,83.26l-20.64-.91-.99-.09-.83-.16-.66-.23-.46-.27-.42-.31-.24-.31-.2-.48-.66-5.81.73.14s.02,0,.03,0l1.15.1,26.46,1.16-.21.16s-.03.03-.04.04l-.5.62s-.03.05-.04.07l-2.47,6.28ZM146.62,52.37l-.13.11-1.64.95-2.08.86-2.5.75-2.68.58-3.24.49-3.27.29-2.93.1s-.01,0-.02,0h-.42s-3.35-.04-3.35-.04l-3.36-.23-3.16-.4-3.05-.59-.8-.08h-.92s-.81.07-.81.07l-5.73,1.03-2.2.27-2.32.03-2.23-.21-1.88-.42-1.39-.59-.68-.63-.05-.55.55-.62.91-.44.67-.32h.04s-.06.21-.06.21c0,.03-.01.05-.01.08v.16s-.44.49-.44.49c-.05.06-.07.13-.07.2l.04.58c0,.07.04.13.09.18l.59.55h0s.02.01.02.01l.13-.14-.08.18,1.08.46s.03.01.05.02l1.46.33s.02,0,.03,0l1.7.16s.02,0,.03,0h0l1.77-.02s.02,0,.03,0l1.67-.2s.02,0,.04,0l1.4-.36s.03-.01.05-.02l1-.49-.02-.03h.01s.06-.05.06-.05l.03.02.5-.56c.05-.06.07-.13.07-.21l-.05-.59c0-.07-.04-.13-.09-.18l-.41-.38-.02-.27s0-.04-.01-.06l-.07-.23s-.04-.09-.08-.12l-.53-.49s-.04-.03-.06-.04l-1.11-.48s-.03-.01-.05-.02l-1.26-.28s0,0,0,0l.28-.09v-.03s.14-.1.14-.1c.05-.03.08-.07.1-.12l.11-.26-.25-.11.26-.08-.18-.59.18-.99.67-1.01,1.18-1,1.66-.94,2.32-.95,2.45-.72.2-.04s0,0,0,0l2.56-.54,1.08-.16-.12.04s-.02,0-.03.01l-1.37.62s-.03.02-.05.03l-.7.5-.21.09-1.49.44-1.75.71s-.02,0-.03.02l-1.4.79s-.03.02-.04.03l-1.01.85s-.04.04-.05.06l-.59.89s-.03.07-.04.1l-.16.91s0,.09,0,.13l.26.89s.03.06.05.09l.67.84.04-.03v.02s-.02.02-.02.02c0,.01.02.03.03.04h0s.02.02.02.02h.01s1.04.79,1.04.79c.01,0,.03.02.04.03l1.78.92s.02,0,.03.01l1.82.67,2.08.56,2.43.46,2.62.33,2.75.19,2.8.05,2.79-.1,2.71-.24,2.57-.38,2.36-.51,2.09-.63,1.74-.72s.02,0,.03-.02l1.38-.8s.03-.02.04-.03l.98-.86-.04-.05.03-.05.06.04.56-.9s.03-.07.04-.11l.13-.91s0-.09-.01-.13l-.31-.91s-.03-.06-.05-.09l-.73-.88s-.03-.03-.05-.05l-1.14-.83s-.03-.02-.04-.02l-1.52-.76s-.02,0-.03-.01l-1.88-.68-.68-.18-.2-.1s-.02-.01-.04-.02l-.16-.06-.24-.22s-.03-.03-.05-.04l-1.24-.65s-.02-.01-.04-.02l-.8-.28.27.03,2.85.54,2.57.68.29.09,2.25.82,1.82.91.8.58-.06,5.3ZM103.85,51.61l1.43.13,1.22.27.89.38.13.06.42.39.03.3-.33.38-.82.4-1.21.31-1.46.18-1.56.02-1.49-.14-1.26-.28-.9-.38-.41-.39-.02-.3.33-.37.97-.48,1.17-.3,1.4-.17,1.49-.02ZM98.44,54.82l-.02-.02v-.9s.16.16.16.16c.02.02.05.04.08.05l.96.41s.03.01.05.02l1.31.29s.02,0,.03,0l1.52.14s.02,0,.03,0h0l1.59-.02s.02,0,.03,0l1.49-.18s.02,0,.04,0l1.26-.32s.03-.01.05-.02l.9-.44s.06-.04.09-.06l.03-.03v.86s-.79.39-.79.39l-1.36.35-1.64.2-1.74.02-1.67-.16-1.42-.32-.98-.42ZM137.77,46.5l-.1-.19v-.08s0-.06,0-.09l-.1-.41.23.45-.03.32ZM144.03,49.68l-.45-.88s-.02-.03-.03-.05l-.06-.07s-.02-.02-.03-.03l-1.17-1.01s-.03-.03-.05-.04l-.45-.24-.17-.33s-.03-.05-.05-.07l-.42-.4,1.13.57,1.08.79.67.81.26.79-.02.17h-.23ZM141.5,48.97l-.58.84-1.13.83-1.64.76-2.08.65-2.45.51-2.71.34-2.86.16-2.74-.03-2.89-.21-2.54-.37-.17-.02-2.35-.56-1.95-.69-1.48-.79-.95-.84-.4-.82.09-.8.02-.03-.02.19c0,.05,0,.1.03.15l.07.15s.01.02.01.03l.35.72s.04.06.06.08l.97.86s.03.03.05.04l1.46.78s.02.01.04.02l1.9.67s.02,0,.03,0l2.28.54,2.56.38,2.73.21,2.81.03,2.77-.15,2.63-.33,2.39-.49,2.03-.63s.02,0,.03-.01l1.61-.75s.03-.02.05-.03l1.14-.84s.05-.04.06-.06l.62-.89s.04-.08.05-.13l.04-.5.13.26-.07.8ZM139.08,49.18l.14.08h-.01s-.12-.08-.12-.08ZM113.21,48.04l.09-.76.57-.79.29-.21-.57.79s-.04.08-.05.13l-.1.86c0,.05,0,.1.03.15l.42.85.21-.1v.02s-.14.17-.14.17l-.36-.32-.33-.68-.25.12.23-.15-.04-.07ZM139.95,48.1l.14-.07v.08s-.14-.01-.14-.01ZM140.1,47.93l-.19-.36v-.1s0-.33,0-.33l.21.41-.03.37ZM114.21,47.3v.25s-.09.12-.09.12c-.03.04-.05.08-.05.13l-.04.32-.04-.08.08-.71.15-.21-.02.15s0,.02,0,.03h0ZM140.51,46.74l.4.78-.07.76-.55.79-.25.19.52-.74s.04-.09.05-.13l.07-.86c0-.05-.02-.12-.04-.17l-.43-.83s-.04-.06-.06-.08l-.6-.52.04.02.92.8ZM138.85,49.03l-.5.72-.35.26-.95.44-1.87.58-2.21.46-2.44.31-2.58.14-2.61-.03-2.54-.19-2.37-.35-2.12-.5-1.76-.62-.42-.22-.55-.48-.45-.82-.02-.05.46.41s.03.03.05.04l1.3.69s.02.01.04.02l1.69.6s.02,0,.03,0l2.03.48,2.28.34,2.43.19,2.5.02,2.47-.14,2.34-.29,2.13-.44,1.8-.56s.02,0,.03-.01l1.44-.66s.03-.02.05-.03l.88-.65-.2.36ZM110.52,48.22l.95-.8,1.34-.76.15-.06-.09.08s-.02.02-.03.04l-.44.61-1.31.95-.58-.04.02-.02ZM117.18,52.38s.02,0,.03,0l2.39.56,2.67.4,2.86.22,2.93.03,2.9-.16,2.75-.34,2.5-.52,1.94-.6-.18.08-2.04.64-2.41.5-2.67.33-2.81.16-2.85-.03-2.78-.21-2.59-.39-2.31-.55-1.92-.68-.07-.04,1.67.59ZM139.16,47.03s.05-.09.05-.13l.03-.34.13.25-.06.66-.48.7-.95.7-1.4.64-1.76.55-2.08.43-2.3.29-2.43.13-2.46-.02-2.4-.18-2.23-.33-2-.47-1.66-.58-1.25-.67-.8-.7-.33-.68.07-.66.02-.03v.03c0,.05,0,.1.02.15l.37.76s.04.06.06.08l.82.72s.03.03.05.04l1.23.66s.02.01.04.02l1.6.56s.02,0,.03,0l1.93.45,2.16.32,2.31.18,2.37.02,2.34-.13,2.22-.28,2.02-.42,1.71-.53s.02,0,.03-.01l1.36-.63s.03-.02.05-.03l.96-.7s.05-.04.06-.06l.52-.75ZM116.33,46.56l.06-.56.18-.26-.04.18s0,.05,0,.06l-.03.28-.14.2.11.08v.07s-.11-.01-.11-.01l-.02-.04ZM116.46,44.99s-.05.04-.06.07l-.5.69s-.04.08-.05.13l-.08.71c0,.05,0,.11.03.15l.35.7.09-.04s.01.04.02.05v.02s-.04.06-.04.06l.63.55-.36-.19-.75-.66-.31-.64.07-.62.47-.65.91-.66.2-.09-.6.43ZM111.12,51.65l-.07-.06-.51-1.04h0s0-.01,0-.02c-.05-.08-.14-.13-.24-.13h-.26l-.18-.59.14-.78.17-.25.99.06s.01,0,.02,0c.06,0,.11-.02.16-.05l.74-.53-.06.49s0,.08.01.12l.23.69.09-.03v.02s-.08.04-.08.04l.45.93s.04.06.06.08l1,.88s.04.03.06.04l1.5.8s.02.01.04.02l1.95.69s.02,0,.03,0l2.35.56,2.63.39,2.73.21,2.97.03,2.74-.15,2.82-.35,2.46-.51,2.09-.65s.02,0,.03-.01l1.66-.77s.03-.02.05-.03l1.17-.86s.05-.04.06-.06l.64-.92-.17-.12v-.02s.2.06.2.06l.18-.53.08-.03-.04-.11v-.02s.02-.04.02-.06l.07-.86.94.82.54,1.04c.05.09.16.15.26.15h.33s0,.08,0,.08l-.5.8-.74.65-1.34.78-1.7.7-2.05.61-2.32.5-2.53.38-2.68.24-2.74.1h-.02s-2.74-.04-2.74-.04l-2.75-.19-2.59-.33-2.4-.46-2.04-.55-1.78-.66-1.75-.9-.39-.29ZM138.29,45.42l.11.1.32.62-.05.62-.46.66-.9.66-.18.08.57-.42s.05-.04.06-.06l.49-.69-.22-.16.27.02.06-.71c0-.05,0-.1-.03-.15l-.36-.7s-.04-.06-.07-.08l-.65-.56.37.19.67.58ZM135.42,44.52l.23.45v.08s-.15-.27-.15-.27c-.02-.03-.04-.06-.06-.08l-.43-.37-.03-.19.45.39ZM137.09,46.72v.08s-.33.89-.33.89l-.08.12-.17.12-1.22.56-1.54.48-1.82.38-2.01.25-2.12.12-2.15-.02-2.1-.16-1.95-.29-1.75-.41-1.45-.51-.91-.48-.17-.34-.26-.72.68.6s.03.03.05.04l1.05.56s.02.01.04.02l1.36.48s.02,0,.03,0l1.65.39,1.84.27,1.97.15,2.02.02,1.99-.11,1.89-.24,1.67-.34s.04,0,.05-.01l1.46-.45s.02,0,.03-.01l1.16-.54s.03-.02.05-.03l.82-.6s.05-.04.06-.06l.14-.21ZM119.14,44.32l-.27.19s-.04.04-.06.06l-.31.43.02-.17.33-.46.32-.23-.03.18ZM135.21,45.6h0s-.03.02-.03.02l.03-.02ZM135.63,46.23h.01s.04-.05.04-.05l.02.02.39-.56s.04-.08.05-.13l.05-.57c0-.05-.02-.13-.04-.17l-.18-.34.68.58.28.53-.05.5-.38.54-.76.56-1.12.52-1.44.44-1.65.34-1.85.23-1.96.11-1.98-.02-1.93-.15-1.8-.27-1.61-.38-1.33-.47-1-.53-.63-.56-.26-.53.06-.5.39-.54.46-.33-.05.07s-.04.08-.05.13l-.06.57c0,.05,0,.1.03.15l.28.56.11-.06s0,0,0,0l.03.05-.07.09s.02.02.02.02l.58.51s.03.03.05.04l.92.49s.02.01.04.02l1.19.42s.02,0,.03,0l1.44.34,1.61.24,1.72.13,1.76.02,1.65-.09,1.75-.21,1.51-.31,1.27-.39s.02,0,.03-.01l1.01-.47s.03-.02.05-.03l.72-.52-.02-.03ZM119.08,45.43l.04.03-.04-.03h0ZM119.56,42.72l-2.61.38-2.58.55h0s-.21.05-.21.05l-2.49.74-2.11.85-.28.12-1.7.96s-.03.02-.04.03l-1.23,1.04s-.04.04-.05.06l-.72,1.09s-.03.05-.04.08l-.25.94.08.02-.03.17s0,.09,0,.13l.17.56-.04.09-.11.08-.44.14-1.45.27h-1.08s-.02.01-.03.01l-1.44.17s-.02,0-.04,0l-1.21.31s-.03.01-.05.02l-.87.42-.96.25s-.03,0-.05.02l-1.66.8s-.06.04-.09.06l-.66.75c-.05.06-.07.13-.07.2l.07.78c0,.07.04.13.09.18l.79.73s.05.04.08.05l1.44.61s.03.01.05.02l1.94.43s.02,0,.03,0l2.26.21s.02,0,.03,0h0l2.35-.03s.02,0,.03,0l2.23-.27,5.72-1.03.76-.07h.87s.75.08.75.08l3.05.59,3.19.41,3.35.23,3.42.06.45-.02s.01,0,.02,0l2.93-.1,3.31-.3,3.13-.46,2.87-.62,2.54-.76,2.13-.88s.02-.01.03-.02l1.5-.87-.13,10.8-51.1-2.21-1.13-.1-.99-.19-.79-.27-.51-.3-.21-.28-.06-.67v-.36s.08-.35.08-.35l6.58-15.35.44-.53,1.3-1.01.57-.32,1.02-.34.96-.18,1.09-.1h1.15s15.32.65,15.32.65c-.01,0-.02.02-.04.03l-.33.36s-.01.02-.02.03l-.26.36ZM114.19,41.14l.47-.58,1.76-2.33.95-1.13,1.09-1.11,1.33-1.12.24-.16-1.07.9-1.11,1.14-.95,1.14-1.76,2.34-.75.94h-.19ZM121.01,36.04l-1.29,1.08-1.1,1.12-.94,1.13-1.39,1.85h-.07s.05-.07.05-.07l1.76-2.33.92-1.11,1.07-1.09,1-.85v.26ZM120.97,40.27l-.03,1.15-3.99-.17,1.16-1.54.66-.79.77-.79,1.31-1.1.16-.11-.03,3.35ZM121.02,35.07l-.05.03-1.33,1.13-1.1,1.12-.95,1.13-1.76,2.34-.3.37-.48-.02.51-.63,1.76-2.33.93-1.11,1.08-1.1,1.31-1.1.38-.26v.45ZM121.04,33.33l-1.58,1.09-1.38,1.16-1.12,1.14-.58.64-.97,1.16-1.77,2.34-.2.25-8.54-.36h-1.19s-1.14.1-1.14.1l-1.01.19s-.02,0-.03,0l-.84.27-.25.09s-.03.01-.04.02l-.61.34s-.02.01-.03.02l-1.34,1.04s-.03.03-.04.04l-.49.58s-.03.04-.04.07l-3.02,7.04-1.72.36-2.6.51-2.03.38.29-.45s.02-.03.02-.04l.83-1.93s.01-.04.02-.06l.35-1.89s0-.05,0-.07l-.16-1.85-.09-.88s0-.05-.02-.07v-.02s.11-.11.11-.11c0,0,.01-.01.02-.02l.66-.78.56-.69s.01-.02.02-.03l.48-.78s.02-.04.03-.05l.27-.78s.01-.05.01-.08l.03-.78s0-.03,0-.05l-.12-.9s0-.03,0-.04l-.23-.78s-.02-.05-.03-.07l-.52-.8s-.02-.03-.04-.05l-.83-.81s-.02-.02-.03-.03l-1.84-1.31s-.02-.01-.03-.02l-1.51-.84-1.88-.87-2.22-.86-2.34-.75-2.47-.64-2.59-.53-2.72-.42-2.73-.29-2.86-.19-3.36-.1-3.25.03-3.38.14-3.52.25-3.67.36-4.36.55-4.17.65-3.96.74-3.74.84-3.49.93-3.23,1.02-2.94,1.11-2.5,1.13-2.47,1.35-1.97,1.35-.67.5-1.62,1.44s-.02.02-.03.03l-1.23,1.52s-.03.04-.04.07l-.65,1.6s-.01.06-.01.08h0s-.07.89-.07.89c0,.01,0,.02,0,.03l.08,1.65s.01.07.02.1l.76,1.66s.02.04.04.06l1.41,1.65.59.61s.02.02.03.02l1.96,1.57s.02.01.03.02l2.49,1.49s.02,0,.03.01l3,1.39,3.43,1.25,3.82,1.08,4.17.88,4.47.64,4.69.37,4.55.13,4.15-.04,3.81-.19,3.52-.32,3.27-.43,2.7-.46,3.05-.61,2.9-.65,5.54-1.33,2.74-.64.83-.18-1.27,1.12-2.85,2.3-3.03,2.27-1.96,1.39-2.4.21-4.35.46-4.61.48-2.37.21-2.41.18-2.43.14-2.44.08h-2.44s-2.43-.07-2.43-.07l-2.42-.17-2.39-.24-2.84-.35-3.2-.46-3.46-.58-3.64-.71-3.73-.86-3.73-1.01-3.63-1.17-3.45-1.34-3.18-1.51-2.84-1.71-1.84-1.46-1.55-1.81-.84-1.89-.05-1.03.6-1.78,1.32-1.84,1.41-1.29,2.68-1.83,3.29-1.78,3.88-1.73,4.42-1.66,4.92-1.58,5.28-1.47,5.91-1.35,6.21-1.11,6.54-.94,6.79-.82,21.04-2.23,6.95-.83,6.09-.86.89.58s.03.01.04.02l1.27.56s.02,0,.03.01l1.39.4s.02,0,.03,0l1.51.26,1.4.12.38.19s.02,0,.03.01l1.48.54s.02,0,.03,0l1.62.4s.02,0,.03,0l1.72.21s.02,0,.03,0h1.8s.03,0,.04-.01l1.66-.24s.03,0,.04-.01l1.35-.43s.03-.01.05-.02l1.07-.58s.03-.02.04-.03l.87-.7.57-.53h0s0,0,0,0l.03-.03.71-.79s.01-.02.02-.03l.59-.86.5-.87.88-1.64.29-.45.25.03s.02,0,.03,0c.03,0,.06,0,.09-.02l.86-.3s.01,0,.02,0c0,0,.01,0,.02,0,0,0,0,0,0,0,.03-.02.05-.03.07-.06l.31-.37.87-.27s.03-.01.05-.02l.7-.37c.06-.03.1-.08.13-.14l.04-.1,1.44-.27,2.19-.33,1.46-.2-.13,13.92ZM109.06,14.12l1.63-.29,1.64-.05,1.61.15,1.58.27,1.35.33,1.7.5,1.52.52,1.1.39v.39s-1.23-.44-1.23-.44l-1.51-.51-1.47-.44s-.03,0-.03,0l-1.52-.37-1.55-.27-1.56-.14s-.02,0-.03,0l-1.54.05s-.03,0-.04,0l-1.54.27s-.02,0-.03,0l-1.59.47-1.59.62-1.57.74-1.54.81-.41.23-1.09.19,1.3-.73,1.56-.82,1.6-.75,1.62-.63,1.65-.48ZM104.62,16.79l1.55-.72,1.55-.61,1.55-.46,1.51-.27,1.51-.05,1.52.14,1.51.26,1.5.37,1.46.44,2.9,1.01v.17s-1.25-.45-1.25-.45l-1.63-.55-1.47-.44-1.47-.36-1.5-.26-1.49-.14s-.02,0-.03,0l-1.48.05s-.03,0-.04,0l-1.49.26s-.02,0-.03,0l-1.56.46-1.57.61-1.41.66-.59.11.47-.25ZM114.34,20.53l-.13-.11h0s0-.05,0-.07l-.05-1.13-.13-1.11s0-.02,0-.04l-.27-1.04s-.03-.08-.06-.11l-.67-.78s-.06-.05-.1-.07l-.83-.38s-.04-.02-.06-.02l-.8-.15-.17-.05,1.27-.04,1.45.13,1.2.21-.03.02.3.42.3.94.24,1.13.03,1.01-.28.72-.59.31-.64.2ZM88.87,24.69l.2.18.12.1-4.81.68-7.08.85-21.04,2.23-6.77.82-6.51.94-6.17,1.1-5.78,1.32-5.28,1.47-4.98,1.6-4.41,1.66-3.88,1.73-3.29,1.78s-.02,0-.02.01l-2.68,1.83s-.02.02-.03.02l-2,1.83.33-.47,2-1.84,2.65-1.81,3.26-1.76,3.84-1.71,4.38-1.65,4.89-1.57,5.28-1.47,5.8-1.33,6.15-1.1,6.5-.93,6.76-.82,21.04-2.23,6.98-.83,4.54-.64ZM112.36,20.39s-.01.02-.02.03l-.48.76-.89,1.66-.48.84-.57.83-.68.76-.85.69-1.1.59-1.44.46-1.77.25h-1.13s.27-.04.27-.04l1.44-.33.06-.02.87-.12s.03,0,.04-.01l1.33-.43s.03-.01.05-.02l1.07-.57s.03-.02.04-.03l.11-.09.04-.02s.03-.02.04-.02l.78-.56s.03-.02.04-.03l.57-.61s.02-.02.03-.04l.88-1.36s.01-.02.02-.03l.33-.69.1-.27.62-1.15.47-.74.52-.63.39-.33.05.44-.18.15s-.02.02-.04.04l-.53.64ZM103.1,26.68l-1.49.26-1.49.18-1.6.1h-1.55s-1.52-.14-1.52-.14l-1.47-.26h-.01s1.29.22,1.29.22l1.62.14h1.65s1.65-.09,1.65-.09l1.63-.19,1.4-.24-.12.03ZM109.26,26.12l-.86.7-1.11.59-1.45.46-1.79.26h-1.88s-1.78-.21-1.78-.21l-.91-.22.65-.04.43-.05,1.62.2s.02,0,.03,0h1.87s.03,0,.04-.01l1.81-.26s.03,0,.04-.01l1.49-.47s.03-.01.05-.02l1.15-.62s.03-.02.04-.03l.89-.72s.02-.02.03-.03l.52-.59-.21.31-.67.76ZM112.79,20.73l.36-.43-.03.14-.18.15.12.15v.02s-.16-.13-.16-.13l-.21.26.09-.15ZM116.39,16.33l.34-.05.88.26-.46.05-.75.11-.38.08-.11-.35.48-.1ZM116.89,17.38l-.02-.15-.7.1v-.02s.33-.07.33-.07l.71-.11.8-.08.96-.07.13.05-1.65.24-.56.1ZM116.36,18.25s0-.03,0-.05l-.03-.16,1.22-.23,1.46-.22,1.21-.17.57.2-.83.11-2.18.33-1.42.27v-.08ZM107.87,16.33l.78-.23-.02.07-.82.18.05-.02ZM111.04,16.74l-.24.15s-.03.02-.04.03l-.43.4-.31.09-1.85.41-2.01.38-4.17.73-1.98.36-1.79.37-1.51.38-1.12.38s-.03.01-.05.02l-.71.4s-.06.04-.08.07l-.37.47s-.03.05-.04.08l-.02-.08.09-.5.33-.42.7-.39,1.13-.39,1.52-.38,1.8-.37,1.99-.36,4.17-.73,2-.38,1.84-.41,1.15-.32ZM97.68,24.87l-.47-.23-.08-.05.27-.05,6.15-1.35,4.33-1.23-.06.13-.44.47-.64.46-.85.41-1.05.37-1.18.34-1.25.29-1.3.23-1.33.16-1.33.08h-.77ZM108.32,20.93l-4.5,1.28-6.2,1.36-1.58.27-.31-.27,1.99-.34,6.23-1.36,4.5-1.27-.13.34ZM98.66,21.08l.36-.21,2.55-.49,2.73-.48-1.44.41-4.67,1.02.47-.26ZM95.48,21.77l.64-.22.47-.12-.41.2-.6.23-.37.06.27-.15ZM109.65,18.16s0,0,0,.01h0s-.03.05-.03.05l-1.59.35-2,.38-4.16.73-1.99.36-1.81.37-1.54.39-1.15.4s-.03.01-.05.02l-.2.11.03-.05.64-.36,1.07-.37,1.48-.37,1.77-.37,6.14-1.09,2.02-.39,1.47-.33-.09.13ZM97.39,22.43l6.16-1.35,5.27-1.49-.14.36-4.87,1.38-6.2,1.36-2.38.41-.23-.26,2.38-.41ZM90.88,22.53l-.16-.15.43-.05.68-.05v.05s-.02.08,0,.11v.06s-.8.14-.8.14l-.14-.11ZM92.05,23.36l.06.11-.15-.1h.09ZM91.97,21.56s0,.02,0,.03l-.03.14-.84.06-.48.05s-.03,0-.04,0l-.31.09-.2-.25v-.06s.23-.07.23-.07l.47-.05,1.26-.09-.04.14ZM93.08,24l-.06-.07-.48-.83-.05-.23.29.51s.02.03.03.04l.65.74-.37-.16ZM108.72,21.76l-.1-.07v-.02s.12.05.12.05l.31-.66.25-.67.23-.66.25-.64.33-.63.41-.57.27-.26-.27.37s-.02.02-.02.04l-.33.63s0,.02-.01.03l-.26.67-.23.67-.24.65-.3.64-.38.59-.4.42.37-.57ZM112.79,17.71l.1.29-.34.21s-.03.02-.04.03l-.54.51s-.02.02-.03.04l-.41.57.05.04-.02.02-.05-.03-.2.39.15-.37.31-.6.39-.54.51-.48.14-.09ZM110.44,22.02l-.31.65-.4.62-.55.59-.77.55-1.03.49-1.24.43-1.37.39-1.47.34-1.55.27-1.6.19-1.62.1h-1.62s-1.58-.14-1.58-.14l-1.52-.27-1.41-.41-1.27-.56-1.1-.71-.96-.78-.64-.6-.31-.38-.04-.17.04-.15.16.2s.02.02.03.03l.69.64.99.81s.02.01.02.02l1.1.71s.03.01.04.02l1.25.55s.02,0,.03.01l1.38.4s.02,0,.03,0l1.5.26,1.57.13h1.6s1.61-.08,1.61-.08l1.6-.19,1.55-.27,1.48-.34,1.39-.4,1.25-.44s.02,0,.03-.01l1.04-.5s.03-.02.04-.02l.79-.57s.03-.02.04-.03l.58-.61s.02-.02.03-.04l.42-.65s.01-.02.02-.03l.13-.27-.08.22ZM12.14,38.22l3.88-1.72,4.42-1.66,4.92-1.58,5.38-1.5,5.81-1.32,6.21-1.11,6.54-.94,6.79-.82,21.04-2.23,6.95-.83,4.06-.57.21.26-4.11.58-6.98.83-21.04,2.23-6.77.82-6.51.93-6.17,1.1-5.78,1.32-5.36,1.49-4.91,1.58-4.41,1.66-3.88,1.72-3.29,1.77s-.02,0-.02.01l-2.68,1.82s-.02.02-.03.02l-2.04,1.87s-.03.03-.04.04l-1.37,1.9s-.03.05-.04.07l-.65,1.93s-.02.07-.01.1l.07,1.53-.11-.26-.09-1.88.64-1.87,1.34-1.87,2.03-1.86,2.68-1.82,3.29-1.78ZM121.17,18.44l-1.23.17-2.17.33-1.39.26v-.32s1.49-.28,1.49-.28l2.16-.33,1.14-.15v.33ZM119.62,13.78l1.03-.38.5-.14.07-.02v.31s-.28.08-.28.08l-1.01.37-.36.17-.48-.15.54-.25ZM121.1,14.16l.11-.03v.3s-.27.08-.27.08l-.2.07-.4-.14.77-.28ZM121.22,12.59l-.36.09-1.11.31-1.03.33-.86.32-.13-.04.49-.21.91-.34.99-.32,1.07-.3h.03s0,.15,0,.15ZM121.23,11.87l-1.27.35-1.01.33-.93.35-.86.37-.26.13-.55-.14.69-.34.85-.36.93-.34,1.01-.33,1.09-.31.32-.08v.38ZM118.13,11.77l1.05-.34,1.14-.32.92-.23v.04s-.47.12-.47.12l-1.11.31-1.03.33-.95.35-.87.37-.8.39-.47.27-.27-.05.22-.13.79-.39.7-.3,1.14-.43ZM112.44,13.23l1.68.15,1.43.25,1.75.41,1.54.46,1.53.52.84.3v.04s-.81-.29-.81-.29l-1.65-.56-1.54-.46-1.57-.38-1.62-.28-1.65-.15s-.02,0-.03,0l-1.66.05h.02s1.76-.06,1.76-.06ZM100.64,17.27l1.55-.87,1.61-.85,1.66-.78,1.7-.67.06-.02-1.66.65-1.63.76-1.58.83-1.52.85-1.1.64-.1.02.99-.57ZM95.98,19.22l1.61-.41,1.86-.38,5.44-.97,2.7-.5,1.77-.39.49-.14-.07-.26v-.06s.17,0,.17,0v.34s.08,0,.08,0l-.26.07-1.82.4-1.99.38-4.16.73-2,.36-1.82.38-1.55.39-1.17.4s-.03.01-.05.02l-.76.43s-.06.04-.08.07l-.41.52s-.05.08-.05.12l-.12.62s0,.08,0,.11l.16.68s.02.05.03.07l.41.72s.02.03.03.04l.41.47-.15-.12-.66-.76-.42-.73-.15-.66.11-.57.39-.49.8-.45,1.24-.43ZM92.97,20.67l-.09.45s0,.08,0,.11l.17.76s.02.05.03.07l.45.79s.02.03.03.04l.7.8s.02.02.03.03l.91.77s.02.01.03.02l.27.17-.78-.14-.78-.66-.71-.81-.45-.79-.16-.72.12-.62.23-.29ZM89.44,21.28l.2-.02-.1.11c-.06.07-.09.16-.06.25l.07.26s0,0,0,.01l-.08-.07-.3-.37-.02-.09h.01s.27-.09.27-.09ZM88.65,21.62v.03s.04.07.06.1l.35.43s.02.02.03.03l.66.61.94.77s.02.01.02.02l1.02.66s.03.01.04.02l1.13.5s.02,0,.03.01l1.25.36s.02,0,.03,0l1.37.24,1.43.12h1.47s1.49-.08,1.49-.08l1.48-.18,1.45-.25,1.39-.32,1.31-.37,1.17-.41s.02,0,.03-.01l.97-.46s.03-.02.04-.02l.74-.53s.03-.02.04-.03l.55-.58s.02-.02.03-.04l.41-.63s.01-.02.02-.03l.31-.65s.01-.03.02-.04l.25-.66.23-.66.25-.65.27-.53.45-.64.55-.51.34-.21.22.22-.15.09s-.04.03-.05.04l-.54.51s-.02.02-.03.04l-.42.57s-.02.02-.02.04l-.33.64-.15.39-.34.94-.22.58-.33.73-.4.61-.55.58-.75.54-1.01.48-1.22.43-1.36.39-1.46.33-1.52.26-1.57.18-1.58.09h-1.57s-1.52-.14-1.52-.14l-1.46-.26-1.35-.39-1.21-.53-1.07-.69-.89-.72-.74-.67-.31-.39-.03-.11.05-.05.26-.14ZM5.3,41.72l2.73-1.86.22-.12-2.41,1.64s-.02.02-.03.02l-2.07,1.89s-.03.03-.04.04l-1.38,1.93s-.03.05-.04.07l-.67,1.96s-.02.07-.01.1l.09,1.98s0,.07.02.1l.89,2s.03.05.04.07l1.73,2.01s.02.03.04.04l2.41,1.92s.02.01.03.02l2.53,1.52-.21-.1-2.88-1.74-2.41-1.92-1.71-2-.87-1.96-.09-1.92.65-1.91,1.37-1.9,2.07-1.9ZM1.53,52.89l-.03-.08,1.35,1.58s.02.03.04.04l2.47,1.97s.02.01.03.02l2.95,1.78,3.32,1.58,3.59,1.39,3.77,1.21,3.85,1.04,3.85.89,3.76.74,3.57.6,2.71.39,3.3.42,2.68.28,2.52.18,2.52.08h2.52s2.51-.09,2.51-.09l2.49-.14,2.46-.19,2.41-.22,9-.94,2.04-.19,2.12-.17,4.91-.33,2.71-.14,2.74-.12,2.83-.1,2.91-.07,2.09-.03.03.37-1.88.02-2.95.07-2.9.1-2.82.13-2.7.14-2.55.16-2.35.17-2.12.17-2.03.19-6.63.7-2.36.24-2.42.22-2.46.19-2.49.14-2.52.08h-2.53s-2.53-.07-2.53-.07l-2.52-.18-2.47-.25-2.92-.36-3.28-.47-3.56-.6-3.74-.73-3.83-.88-3.83-1.04-3.74-1.2-3.55-1.38-3.27-1.56-2.91-1.76-2.44-1.94-1.73-2.03ZM50.1,79.55l2.98-2.42,3.28-2.45.43-.3-3.16,2.36-2.99,2.43-2.6,2.39-2.1,2.32s-.02.02-.02.03l-1.52,2.25s-.02.04-.03.05l-.84,2.17s-.02.06-.02.09l-.07,2.07s0,.08.02.11l.8,1.96s.02.05.04.07l1.51,1.84s.02.02.03.03l1.96,1.71s.02.01.03.02l2.36,1.57s.02.01.02.01l2.74,1.43,2.91,1.22-.41-.14-3.07-1.29-2.76-1.44-2.38-1.58-1.96-1.71-1.49-1.82-.78-1.91.07-2.01.83-2.13,1.51-2.24,2.1-2.32,2.58-2.37ZM42.51,89.18l-.05,1.48s0,.08.02.11l.82,2s.02.05.04.07l1.54,1.87s.02.02.03.03l1.99,1.74s.02.01.03.02l2.4,1.6s.02.01.02.01l2.79,1.46,3.11,1.3,3.37,1.14,3.6.98,3.77.8,3.89.63,3.97.44,3.99.25,3.96.05,3.81-.22,3.63-.51,3.51-.73,3.46-.89,6.95-1.98,3.61-.96,3.77-.86,3.99-.69,1.49-.16.03.39-1.45.16-3.94.68-3.73.85-3.59.96-6.95,1.98-3.48.9-3.55.74-3.68.52-3.87.22-4.02-.05-4.05-.25-4.02-.45-3.93-.63-3.8-.81-3.62-.98-3.39-1.15-3.11-1.31-2.79-1.46-2.41-1.6-1.98-1.73-1.51-1.85-.79-1.94.07-2.04.05-.13ZM44.78,96.05l-.3-.36,1.84,1.61s.02.02.03.02l2.43,1.62s.02.01.02.01l2.83,1.48,3.15,1.32,3.42,1.16,3.65.99,3.83.82,3.96.64,4.05.45,4.08.26,4.06.05,3.91-.22,3.72-.52,3.58-.75,3.49-.9,6.95-1.98,3.57-.95,3.71-.84,3.91-.68,1.42-.15.03.34-1.43.15-3.93.68-3.73.85-3.58.96-6.96,1.99-3.49.9-3.57.75-3.71.52-3.89.22-4.02-.05-4.04-.25-4.01-.45-3.92-.63-3.79-.81-3.61-.98-3.38-1.15-3.1-1.31-2.79-1.46-2.4-1.6-1.98-1.73ZM175.18,117.62l-.2.52-.24.34-.42.31-.48.3-.68.24-.86.18-.96.09h-1.07s-46.36-2.11-46.36-2.11l-1.03-.1-.86-.18-.69-.24-.47-.29-.44-.33-.25-.33-.2-.49-.66-5.93.8.16s.02,0,.03,0l1.19.11,50.83,2.3h1.25s1.17-.11,1.17-.11c0,0,.02,0,.03,0l1.05-.21s.03,0,.04-.01l.85-.3s.04-.02.05-.03l.59-.37s.02-.01.02-.02l.12-.09s.04-.03.05-.06l.04-.06-2.23,6.7ZM182.57,94.09l-5.38,16.19-.25.34-.63.41-.8.28-1.01.21-1.13.11h-1.21s-50.8-2.3-50.8-2.3l-1.16-.11-1.02-.2-.81-.28-.56-.34-.12-.08-.26-.34-.04-.11-.98-11.71.44.26s.03.02.05.02l.86.3s.02,0,.04,0l1.06.21s.02,0,.03,0l1.19.11,53.1,2.37h1.25s1.18-.11,1.18-.11c0,0,.02,0,.03,0l1.05-.21s.02,0,.04-.01l.85-.3s.04-.01.05-.03l.59-.37s.06-.04.08-.07l.3-.41s.03-.05.04-.07l4.83-14.39-.87,10.62ZM178.62,76.85l1.01.19.84.28.28.1.6.34,1.81,1.19.2.19.29.34.06.27.02.37-.06.76-5.53,16.45-.24.33-.53.32-.81.28-1.02.21-1.15.11h-1.22s-53.06-2.37-53.06-2.37l-1.17-.11-1.03-.2-.82-.28-.54-.32-.23-.3-.06-.68v-.4s.08-.36.08-.36l6.43-16.35.28-.36.16-.19,1.37-1.02.58-.34,1.06-.36,1-.2,1.11-.1h.84s.34,0,.34,0l16.42.72-.37.28s-.02.02-.03.03l-.35.37s-.02.02-.03.03l-.07.11-3.04.46-2.88.64-2.53.78s-.02,0-.03,0l-2.41,1.01s-.02.01-.03.02l-1.73,1.02s-.03.02-.04.03l-1.24,1.1s-.04.04-.05.06l-.72,1.16s-.02.05-.03.07l-.26.97.11.03-.03.22s0,.08,0,.12l.19.6-.04.11-.14.1-.42.14-1.74.34h-.84s-.02.01-.03.01l-1.48.18s-.02,0-.04,0l-1.24.33s-.03.01-.05.02l-.68.34-1.22.33s-.03,0-.04.02l-.35.16-1.35.69s-.06.04-.09.07l-.67.8c-.05.06-.07.13-.06.2l.09.83c0,.07.04.13.09.17l.83.78s.05.04.08.05l1.5.65s.03.01.05.02l2.02.46s.02,0,.03,0l2.34.23s.02,0,.03,0h0l2.43-.03s.02,0,.03,0l2.3-.29,5.88-1.1.8-.08h.9s.76.09.76.09l3.16.63,3.31.43,3.46.25,3.53.06,3.51-.13,3.4-.32,3.21-.49,2.95-.66,2.58-.81s.02,0,.03,0l2.17-.93s.02-.01.03-.02l1.71-1.04s.03-.02.04-.03l1.21-1.12s.04-.04.05-.06l.68-1.17s.03-.07.04-.11l.13-1.19s0-.08-.01-.12l-.07-.19.12-.06-.48-.96h0s-.02-.04-.03-.05l-.95-1.14s-.03-.03-.05-.05l-1.46-1.08s-.02-.02-.04-.02l-1.94-.99s-.04-.02-.05-.02l-2.36-.87-3.02-.82-2.99-.58-1.62-.21s-.02-.03-.03-.05l-.2-.22,17.46.76,1.15.1ZM174.26,82.35l.38,1.07-.12,1.07-.63,1.08-1.16,1.07-1.67,1.01-2.14.92-2.54.8-2.91.65-3.18.49-3.37.31-3.48.13-3.5-.06-3.43-.25-3.27-.43-3.17-.63-.8-.09s-.02,0-.03,0h-.92s-.02,0-.03,0l-.83.08-5.89,1.1-2.26.29-2.4.03-2.3-.22-1.94-.44-1.47-.63-.72-.68-.06-.61.56-.66,1.29-.66.32-.15.13-.04s-.03.05-.04.07l-.07.23s-.01.05-.01.08v.13s-.47.55-.47.55c-.05.06-.07.13-.06.2l.06.62c0,.07.04.13.08.17l.62.59h0s.03.01.03.01l.11-.12-.07.16,1.12.49s.03.01.05.02l1.51.35s.02,0,.03,0l1.76.17s.02,0,.03,0h0l1.83-.02s.02,0,.03,0l1.72-.21s.02,0,.04,0l1.44-.39s.04-.01.05-.02l1.02-.52v-.03s.05-.08.05-.08l.04.03.5-.6c.05-.06.07-.13.06-.2l-.07-.62c0-.07-.04-.13-.09-.17l-.41-.39-.03-.29s0-.03,0-.05l-.07-.23s-.04-.09-.08-.12l-.56-.52s-.04-.03-.07-.05l-1.15-.51s-.03-.01-.05-.02l-1.3-.3s-.02,0-.04,0l-.19-.02.46-.16v-.04s.13-.1.13-.1c.05-.03.08-.08.1-.13l.11-.28-.26-.1.26-.08-.2-.63.16-1.07.67-1.08,1.19-1.06,1.7-1,2.38-1,2.5-.77,2.84-.63,2.19-.33-1.1.35s-.02,0-.03.01l-1.4.67s-.03.02-.05.03l-.46.35-.05.02-1.99.61s-.02,0-.03,0l-1.79.75s-.02.01-.03.02l-1.42.84s-.03.02-.04.03l-1.02.91s-.04.04-.05.06l-.59.95s-.03.07-.04.1l-.15.97s0,.08,0,.12l.29.94s.03.06.05.09l.71.9.05-.04.04.06-.03.04,1.11.85s.03.02.04.03l1.86.98s.02,0,.03.01l1.89.71,2.16.6,2.52.49,2.71.35,2.84.2,2.89.05,2.88-.11,2.79-.26,2.64-.41,2.42-.54,2.12-.66s.02,0,.03-.01l1.78-.76s.02-.01.03-.02l1.41-.85-.05-.08.06.06.03-.02h0s.99-.91.99-.91c.02-.02.04-.04.05-.06l.56-.96s.03-.07.04-.11l.11-.97s0-.08-.01-.12l-.34-.97s-.03-.06-.05-.08l-.78-.94s-.03-.03-.05-.05l-1.2-.89s-.02-.02-.04-.02l-1.59-.81s-.02,0-.03-.01l-1.96-.73-.85-.23h-.02s-.02-.02-.04-.03l-.2-.07-.2-.17s-.03-.03-.05-.03l-1.3-.69s-.03-.01-.04-.02l-1.42-.51.77.1,2.96.57,2.65.72.32.09,2.35.87,1.9.97,1.42,1.05.9,1.08ZM128.73,85.72l1.48.14,1.26.29.93.41.13.06.46.43.04.34-.34.41-.84.43-1.24.33-1.5.19-1.61.02-1.54-.15-1.31-.3-.94-.41-.45-.42-.03-.34.34-.41.98-.49,1.2-.32,1.45-.18,1.54-.02ZM123.21,89.13l-.06-.05v-.95s.21.2.21.2c.02.02.05.04.08.05l1.01.44s.03.01.05.02l1.36.31s.02,0,.03,0l1.57.15s.02,0,.03,0h0l1.64-.02s.02,0,.03,0l1.54-.19s.02,0,.04,0l1.29-.35s.04-.01.05-.02l.91-.46s.06-.04.09-.07l.03-.04v.92s-.81.41-.81.41l-1.39.37-1.68.21-1.8.02-1.72-.17-1.47-.34-1.02-.45ZM163.69,80.41l-.13-.24v-.11s0-.06,0-.09l-.12-.47.27.52-.02.39ZM170.1,83.63l-.5-.95s-.02-.03-.03-.05l-.06-.07s-.02-.02-.03-.03l-1.24-1.08s-.03-.03-.05-.03l-.46-.24-.16-.3s-.03-.05-.05-.07l-.57-.55,1.28.65,1.14.84.72.86.3.85-.02.17h-.27ZM167.54,82.93l-.58.89-1.15.89-1.68.81-2.14.69-2.5.54-2.79.36-2.95.17-2.99-.03-2.73-.22h-.18s-2.73-.43-2.73-.43l-2.44-.59-2.03-.73-1.55-.84-1-.9-.44-.89.08-.87.07-.1-.03.31c0,.05,0,.1.03.15l.48.96s.04.06.06.08l1.02.91s.03.03.05.04l1.53.83s.02.01.04.02l1.97.71s.02,0,.03,0l2.37.57,2.65.41,2.83.22,2.9.03,2.85-.16,2.71-.35,2.43-.52s.02,0,.03,0l2.08-.67s.02,0,.04-.01l1.65-.8s.03-.02.05-.03l1.15-.89s.05-.04.06-.07l.62-.95s.04-.09.04-.13l.03-.54.14.27-.05.87ZM138.4,81.13l.57-.85.39-.3s-.04.03-.05.06l-.6.89s-.04.08-.05.13l-.08.92c0,.05,0,.1.03.15l.45.91.21-.1h0s-.15.19-.15.19l.63.57-.05-.03-.96-.86-.42-.84.07-.82ZM166.08,82.01h-.14s.14-.08.14-.08l-.02-.05h.03s-.21-.42-.21-.42v-.11s0-.36,0-.36l.24.45-.03.57ZM165.22,83.24h0s-.18-.1-.18-.1l.18.1ZM139.38,81.2v.18s-.12.18-.12.18c-.03.04-.04.08-.05.13l-.03.35-.04-.09.07-.77.2-.3-.02.28s0,.02,0,.03h0ZM165.5,79.71l.98.85.44.85-.05.82-.55.85-.33.25.57-.88s.04-.09.04-.13l.06-.92s0-.1-.03-.14l-.47-.91s-.04-.06-.06-.08l-.67-.58v-.02s.07.04.07.04ZM164.8,82.99l-.5.77-.5.39-.8.39-1.93.62-2.26.48-2.51.33-2.66.15-2.7-.03-2.63-.21-2.46-.38-2.2-.53-1.83-.66-.41-.22-.64-.57-.47-.85-.04-.08.53.47s.03.03.05.04l1.36.74s.02.01.04.02l1.76.63s.02,0,.03,0l2.11.51,2.36.36,2.52.2,2.58.03,2.54-.15,2.41-.31,2.16-.46s.02,0,.03,0l1.85-.6s.02,0,.04-.01l1.47-.71s.03-.02.05-.03l.84-.65-.18.32ZM135.51,82.06l.96-.85,1.37-.81.4-.17-.28.27s-.03.03-.04.05l-.34.51-.1.05s-.03.02-.05.03l-1.33,1.01-.6-.04.02-.04ZM142.51,86.53s.02,0,.03,0l2.48.6,2.77.42,2.96.23,3.03.03,2.99-.17,2.83-.37,2.54-.54s.02,0,.03,0l2.03-.66-.23.11-2.11.68-2.46.53-2.74.36-2.9.17-2.94-.03-2.87-.23-2.68-.41-2.4-.58-2-.72-.14-.08,1.81.65ZM165.12,80.91s.04-.1.04-.15l.02-.36.14.26-.04.72-.49.74-.97.75-1.42.69-1.82.59-2.12.45-2.37.31-2.5.14-2.54-.03-2.48-.19-2.32-.35-2.07-.5-1.72-.62-1.31-.71-.85-.76-.37-.74.06-.72.07-.1v.15s0,.1.02.14l.4.81s.04.06.06.08l.86.77s.03.03.05.04l1.29.7s.02.01.04.02l1.67.6s.02,0,.03,0l2,.48,2.24.34,2.39.19,2.45.02,2.41-.14,2.29-.3,2.05-.44s.02,0,.03,0l1.75-.57s.02,0,.03-.01l1.39-.67s.03-.02.05-.03l.97-.75s.05-.04.06-.07l.52-.8ZM141.54,80.43v-.11s.15.09.15.09v.03s-.01.01-.01.01h-.13s-.01-.03-.01-.03ZM141.75,79.75s0,.03,0,.05l-.02.27-.17.25.04-.5.23-.34-.07.27ZM141.66,78.77s-.05.04-.06.07l-.5.74s-.04.08-.05.13l-.06.76s0,.1.03.14l.37.75.08-.04s0,0,0,0l.03.06-.05.06.74.66-.45-.25-.8-.71-.35-.69.06-.67.47-.7.93-.7.36-.17-.76.57ZM136.29,85.81l-.18-.16-.55-1.11h0s0-.01,0-.02c-.05-.08-.14-.13-.24-.13h-.27s-.2-.62-.2-.62l.12-.84.18-.3.99.07s.01,0,.02,0c.06,0,.12-.02.17-.06l.83-.63-.06.67s0,.07.01.11l.24.72.1-.03v.02s-.08.05-.08.05l.49.99s.04.06.06.08l1.05.94s.03.03.05.04l1.57.85s.02.01.04.02l2.03.74s.02,0,.03,0l2.44.59,2.73.42,2.73.22,3.16.04,2.94-.17,2.72-.35,2.57-.54s.02,0,.03,0l2.14-.69s.02,0,.04-.01l1.69-.82s.03-.02.05-.03l1.19-.92s.05-.04.06-.07l.63-.98-.16-.1v-.02s.19.06.19.06l.2-.59h.05s-.02-.08-.02-.08v-.04s.03-.05.03-.07l.06-.95.95.83.58,1.11c.05.09.16.15.26.15h.38s-.01.14-.01.14l-.5.86-.77.71-1.33.81-1.75.75-2.08.65-2.38.53-2.6.4-2.73.25-2.88.11-2.74-.05-2.86-.2-2.75-.35-2.49-.49-2.12-.58-1.85-.7-1.83-.96-.33-.25ZM164.22,79.23l.08.08.36.68-.04.67-.46.7-.92.7-.34.17.73-.56s.05-.04.06-.07l.48-.74-.23-.15.27.02.05-.76s0-.1-.03-.14l-.39-.75s-.04-.06-.06-.08l-.77-.67.46.25.74.64ZM161.24,78.29l.25.49v.13s-.18-.34-.18-.34c-.02-.03-.04-.06-.06-.08l-.43-.38-.04-.22.47.41ZM162.85,80.83l.14-.21v.08s-.34.92-.34.92l-.17.26-.06.04-1.24.6-1.59.51-1.85.4-2.07.27-2.19.13-2.22-.02-2.17-.17-2.02-.31-1.81-.44-1.51-.54-.97-.52-.2-.4h0s-.28-.76-.28-.76c0,0,.01.02.02.03l.74.65s.03.03.05.04l1.1.59s.02.01.04.02l1.42.51s.02,0,.03,0l1.71.41,1.91.29,2.03.16,2.08.02,1.94-.11,2.06-.26,1.74-.37s.02,0,.03,0l1.49-.48s.02,0,.03-.01l1.18-.57s.03-.02.05-.03l.83-.64s.05-.04.06-.07ZM161.03,79.4h0s-.04.03-.04.03l.04-.03ZM161.51,80.14l-.03-.03.04-.06.05.03.4-.61s.03-.07.03-.11l.04-.61s0-.1-.03-.14c0,0-.01-.02-.01-.03l-.21-.41.72.61.32.59-.04.55-.38.58-.77.59-1.14.55-1.46.47-1.71.36-1.91.25-2.02.11-2.05-.02-2-.16-1.86-.28-1.67-.4-1.39-.5-1.05-.57-.67-.6-.29-.57.05-.55.39-.57.59-.44-.14.21s-.04.08-.05.13l-.05.61c0,.05,0,.1.03.15l.3.6.11-.06.03.05-.08.09.64.57s.03.03.05.04l.96.52s.02.01.04.02l1.24.45s.02,0,.03,0l1.49.36,1.67.25,1.78.14,1.82.02,1.8-.1,1.7-.22,1.52-.32s.02,0,.03,0l1.3-.42s.02,0,.04-.01l1.03-.5s.03-.02.05-.03l.73-.56ZM144.36,79.22l.04.03-.04-.03h0ZM144.47,78.06l-.31.24s-.05.04-.06.07l-.31.45.02-.2.33-.49.37-.28-.04.21ZM158.42,76.07s0,.04,0,.06l.08.31.09-.02.09.1.22-.19.13-.05v-.06s.06-.07.06-.07l-.11-.12v-.24s0,0,0,0l.48.42.31.34.27.53.08.38s0,0,0,0l.3,1.67s0,.04,0,.04l.04.23s.02.06.03.08c0,0,.01.03.01.03l.02.04.13-.07.07.09.16.32-.44.33-1,.48-1.27.41-1.49.32-1.66.21-1.76.1-1.78-.02-1.74-.14-1.62-.25-1.46-.35-1.21-.43-.91-.49-.26-.23.28-.43.05-.06.08.04.03-.07s.02-.05.03-.08v-.06s.02-.03.02-.03v-.03s.01-.03.01-.03l.22-1.18-.27-.05h.28s.16-.88.16-.88l.18-.3s.02-.03.02-.03l.16-.24.32-.34.22-.17.4.33.2-.24s.04-.07.05-.1l.08-.3s0-.04,0-.06l.46-36.64.09-.16,1.51,1.17s.04.03.07.04l.38.15s.04.01.06.02l.55.08s.02,0,.03,0l4.24.18.59-.03s.03,0,.05,0l.48-.11s.03,0,.04-.01l2.55-1.1s.02-.02.04-.02l.05.1.06.17.27,35.14.04,1.58ZM150.23,37.2l.44-.1.55-.04,3.97.17.71.1.31.12,1.52,1.17h0s-2.49,1.08-2.49,1.08l-.43.1-.54.03-4.2-.18-.5-.07-.31-.13-1.51-1.17h.01s2.5-1.08,2.5-1.08ZM146.69,46.4l-.51-.37s-.03-.02-.04-.02l-1.85-.93s-.02,0-.03-.01l-2.28-.83-2.91-.78-2.69-.51-1.8-.24-.09-.17,12.25.52-.04,3.33ZM133.24,42.1l.41.35.35.37.28.54.41,2.23.11-.02.16.2.12.23-.44.32-.97.45-1.23.38-1.46.3-1.61.2-1.71.09-1.73-.02-1.68-.13-1.57-.23-1.4-.33-1.16-.41-.87-.46-.18-.16.27-.39.06-.07.05.03.03-.07s.02-.07.03-.09v-.03s0,0,0-.01l.39-2.16.35-.52.3-.33.23-.16.37.3.19-.24s.04-.07.05-.1l.07-.29s0-.04,0-.06l.04-1.54.31-34.1.08-.15,1.42,1.09s.04.03.07.04l.36.14s.04.01.06.02l.55.08,4.11.17.57-.03s.03,0,.05,0l.47-.11s.03,0,.04-.01l2.5-1.03s.02-.01.03-.02l.05.1.05.16.35,34.17.04,1.53s0,.04,0,.06l.08.3.08-.02.1.11.21-.19.14-.03-.02-.07.08-.07-.11-.12v-.19s.03.02.03.02ZM194.89,12.85l-.15-.33-.03-.11-.26.08-.02-.27h-.01s0-.05,0-.05l-1.7.12-3.11.4-3.07.54-1.56.33.38-.2,1.37-.29,3.04-.53,3.07-.39,2.22-.16v1.16s-.17-.28-.17-.28ZM224.28,13.97l-.08.09-.15.13-.17.06-3.59.42-4.29.47-4.3.42-1-.02-1.17-.11-1.18-.22-.97-.29-1.12-.43-1.45-.51-1.75-.57-1.67-.39v-.02s-.6-.05-.6-.05h0s0,0,0,0l-.91-.07s-.03,0-.04,0l-3.47.27s-.02,0-.03,0l-.76.15v-.08s.01-.02.01-.03v-1.25s.05,0,.05,0l-.04-.55h0s0-.08,0-.08l-.02-.29h.03s-.04-.55-.04-.55h-.08s-.02-.09-.02-.09c0,0,0-.02,0-.03l-.13-.44s0-.02-.01-.03l-.17-.37-.12-.22.57.05s.02,0,.02,0h0l3.49-.09s.03,0,.04,0l1.43-.27s.03,0,.04-.01l1.53-.56s.02,0,.03-.01l1.41-.7,1.06-.63.12-.08h0s.41-.28.41-.28h0s0,0,0,0l.32-.22.7-.37.95-.33,1.05-.22.99-.13h0s.73.26.73.26l.48.32.42.57v1.57s0,.42,0,.42c0,.02,0,.03,0,.05l.12.58s.02.07.04.09l.31.47.33.44s.03.04.05.05l.54.42s.02.02.04.02l.61.33.49.24s.02.01.04.01l2.62.81,3.26.96,3.58,1.02s.05,0,.07.01h.23s.6-.02.6-.02c.02,0,.04,0,.05,0l.47-.12v.03ZM223.72,13.52h-.28s.06-5.1.06-5.1c0-.41.3-.75.7-.82l7.63-1.36.19.24.09.49v.08s0,.04,0,.04l-1.11-.44c-.05-.02-.11-.02-.16-.01l-6.24,1.35c-.33.07-.61.27-.79.56h0c-.17.28-.23.62-.15.95l.79,3.24c.02.09.08.16.16.19l.58.23-1.48.37ZM233.56,8.67l-.53,2.91-.05.17-.07.13-.1.12-.1.08-.13.06-5.1,1.28h-.11s-.06,0-.06,0l-.06-.04-.04-.06-.04-.12-.47-2.6-.02-.29.02-.12.06-.14.08-.1.11-.09.14-.06s.02,0,.03,0l6.14-1.54.19-.02.07.02.03.02.03.05.02.11-.02.24Z"/>
      <path d="M230.01,11.33c-.01-.05-.04-.1-.08-.14l-.11-.11s-.11-.07-.17-.08h-.15c-.06-.02-.13,0-.18.03l-.14.08s-.07.05-.09.08l-.12.17s-.03.06-.04.1l-.04.2s0,.08,0,.12l.04.18c.01.05.04.1.08.14l.11.11s.11.07.17.08h.15s.01.01.02.01c.05,0,.1-.01.14-.04l.15-.09s.07-.05.09-.08l.11-.17s.03-.06.04-.1l.04-.2s0-.08,0-.12l-.04-.17ZM229.48,11.66l-.03.05.02-.07.03-.05-.02.07Z"/>
      <path d="M227.81,11.1l.16-.09s.07-.05.09-.08l.12-.17s.03-.06.04-.09l.04-.2s0-.08,0-.12l-.04-.17c0-.06-.04-.11-.08-.15l-.11-.11s-.11-.07-.17-.08h-.15c-.05-.02-.14.01-.18.04l-.13.07s-.07.05-.09.08l-.11.17s-.03.06-.04.1l-.04.2s0,.1,0,.13l.04.16c.01.05.04.1.07.14l.12.11s.1.07.17.07h.15s.01.01.02.01c.05,0,.1-.01.14-.04ZM227.67,10.47l.03-.05-.02.07-.03.05.02-.07Z"/>
      <path d="M229.04,10.79l.16-.09s.07-.05.09-.08l.11-.16s.04-.06.04-.1l.04-.2s0-.08,0-.12l-.04-.18c-.01-.05-.04-.1-.08-.14l-.11-.11-.19.2.02-.27h-.15c-.05-.01-.13,0-.18.03l-.14.08s-.07.05-.09.08l-.11.17s-.03.06-.04.1l-.04.2s0,.08,0,.12l.04.18c.01.05.04.1.07.14l.11.11.19-.19-.02.27h.15s.01.01.02.01c.05,0,.1-.01.14-.04ZM228.88,10.24l.02-.07.03-.05-.02.07-.03.05Z"/>
      <path d="M231.24,11.04c0-.06-.04-.11-.08-.16l-.11-.11-.19.19.02-.27h-.15c-.06-.02-.13,0-.18.03l-.14.08s-.07.05-.09.08l-.11.17s-.03.06-.04.1l-.04.2s0,.08,0,.12l.04.18c.01.05.04.1.07.14l.11.11.19-.19-.02.27h.15s.01.01.02.01c.05,0,.1-.01.14-.04l.16-.09s.07-.05.09-.08l.11-.17s.03-.06.04-.1l.04-.2s0-.08,0-.12l-.04-.16ZM230.67,11.4l.02-.07.03-.05-.02.07-.03.05Z"/>
      <path d="M231.48,10.18l.15-.09s.07-.05.09-.08l.11-.17s.03-.06.04-.1l.04-.2s0-.08,0-.12l-.04-.18s0-.03-.01-.04c-.01-.04-.04-.07-.06-.1l-.11-.11s-.11-.07-.17-.08h-.15c-.06-.02-.13,0-.18.04l-.13.08s-.07.05-.09.08l-.11.17s-.03.06-.04.1l-.04.2s0,.08,0,.12l.04.18c.01.05.04.1.08.14l.11.11s.11.07.17.08h.15s.01.01.02.01c.05,0,.1-.01.14-.04ZM231.34,9.55l.03-.05-.02.07-.03.05.02-.07Z"/>
      <path d="M230.26,10.49l.15-.09s.07-.05.09-.08l.12-.17s.03-.06.04-.09l.04-.2s0-.08,0-.12l-.04-.17c-.01-.05-.04-.1-.08-.14l-.11-.11-.19.19.02-.27h-.15c-.05-.02-.13,0-.18.04l-.14.08s-.07.05-.09.08l-.11.17s-.03.06-.04.1l-.04.2s0,.08,0,.12l.04.18c.01.05.04.1.07.14l.11.11.19-.19-.02.27h.15s.01.01.02.01c.05,0,.1-.01.14-.04ZM230.1,9.93l.02-.07.03-.05-.02.07-.03.05Z"/>
      <path d="M233.11,8.94c-.01-.05-.04-.1-.07-.14l-.11-.11-.19.19.02-.27h-.15c-.06-.02-.11,0-.16.02l-.15.09s-.07.05-.09.08l-.11.17s-.03.06-.04.1l-.04.2s0,.08,0,.12l.04.18c.01.05.04.1.07.14l.11.11.19-.2-.02.27h.15s.01.01.02.01c.05,0,.1-.01.14-.04l.16-.09s.07-.05.09-.08l.11-.17s.03-.06.04-.1l.04-.2s0-.08,0-.12l-.04-.18ZM232.59,9.2l-.02.07-.03.05.02-.07.03-.05Z"/>
      <path d="M228.79,11.64c-.01-.05-.04-.11-.08-.14l-.11-.11s-.11-.07-.17-.08h-.15c-.06-.01-.13,0-.18.03l-.14.08s-.07.05-.09.08l-.11.17s-.04.06-.04.1l-.04.2s0,.08,0,.12l.04.18c.01.05.04.1.08.14l.11.11s.11.07.17.08h.15s.01.01.02.01c.05,0,.11-.02.15-.04l.15-.08s.07-.05.09-.08l.11-.17s.04-.06.04-.1l.04-.21s0-.08,0-.11l-.04-.16ZM228.26,11.96l-.03.05.02-.07.03-.05v.07Z"/>
      <path d="M232.38,10.58l-.11-.11-.19.19.02-.27h-.15c-.06-.02-.11,0-.16.02l-.15.09s-.07.05-.09.08l-.11.17s-.03.06-.04.1l-.04.2s0,.08,0,.12l.04.18c.01.05.04.1.07.14l.11.11.19-.19-.02.27h.15s.01.01.02.01c.05,0,.1-.01.14-.04l.16-.09s.07-.05.09-.08l.11-.17s.03-.06.04-.1l.04-.2s0-.08,0-.12l-.04-.18c-.01-.05-.04-.1-.07-.14ZM231.89,11.09l.02-.07.03-.05-.02.07-.03.05Z"/>
    </g>
  </g>
</svg>