<?xml version="1.0" encoding="UTF-8"?>
<svg id="Layer_2" data-name="Layer 2" xmlns="http://www.w3.org/2000/svg" viewBox="0 0 417.27 304.75">
  <g id="Layer_1-2" data-name="Layer 1">
    <g>
      <path d="M226.73,190.08c-.01-.09-.08-.15-.17-.16l-.32-.02s-.04,0-.06,0l-51.8,16.18s-.04.02-.06.03l-.25.21s-.05.06-.06.1l-.09.46s0,.02,0,.04l.04,35.17s0,.03,0,.05l.11.37c.02.08.09.13.17.13,0,0,0,0,.01,0l.33-.03s.03,0,.04,0l51.52-16.38s.02,0,.03-.01l.36-.2c.05-.03.09-.08.09-.14l.06-.45s0-.01,0-.02l.08-34.94s0-.02,0-.02l-.05-.37ZM226.02,225.9l-51.48,16.37h-.17s-.06-.19-.06-.19l-.04-35.13.08-.38.18-.14,49.12-15.34.87-.27v1.38h0v.64s0,0,0,0v.8h0l-.03,14.74h0v3.5s-.03,9.43-.03,9.43h0v1.53h0v.74s0,1.12,0,1.12l-.06.25-.18.13-42.69,13.56-.35.11h0s.05.17.05.17l.05.17,3.31-1.05h0s.13-.04.13-.04h0s31.77-10.09,31.77-10.09h0l.26-.08h0s5.76-1.83,5.76-1.83h.02s1.82-.58,1.82-.58c.02,0,.03-.01.05-.02l.18-.13,1.49.6.04.02-.06.03ZM226.33,225.4l-.02.18-.11-.06s-.01,0-.02,0l-1.44-.59.05-.18s0-.03,0-.04v-2.08h0v-.96s0,0,0,0l.02-9.79v-3.32s0,0,0,0l.04-17.85,1.38-.43h.13s.03.22.03.22l-.08,34.92Z"/>
      <path d="M222.36,219.62s.03-.01.05-.02c.05-.03.08-.09.08-.15l.02-9.73h-.18s-.05-.17-.05-.17l-47.61,15.01c-.07.02-.13.09-.13.17v9.8c.01.06.04.11.09.14.03.02.07.03.11.03.02,0,.04,0,.05,0l47.58-15.07h0ZM175.51,233.41v-8.01s46.11-14.54,46.11-14.54l-.02,7.96-46.1,14.59ZM175.05,233.94h0s0,0,0,0h0Z"/>
      <path d="M184.52,233.86l-.05-.17-.36.11s-.01,0-.01,0l-2.69.85c-.07.02-.13.09-.13.17v1.43s0,.01,0,.01v.13s.18,0,.18,0l.05.17.35-.11h.19s.37-.02.37-.02l.35-.04s0,0,.01,0l.33-.06s0,0,.01,0l.3-.08s.01,0,.02,0l.26-.1s.01,0,.02,0l.21-.11s.02-.01.03-.02l.16-.12s.02-.02.03-.03l.05-.06h.02s.02-.03.03-.04l.06-.07.26-.08c.07-.02.13-.09.13-.17v-1.57s-.18,0-.18,0ZM181.66,235.09h.39s.39-.02.39-.02l.37-.04s0,0,.01,0l.35-.06s0,0,.01,0l.31-.08s.01,0,.02,0l.27-.1s.01,0,.02,0l.22-.12s.02,0,.03-.02l.03-.03v.74s-.02.08-.02.08l-.08.1-.14.1-.2.1-.26.09-.3.08-.33.06-.35.04-.37.02h-.35s-.01,0-.01,0h-.04s0-.93,0-.93h.03Z"/>
      <rect x="175.23" y="239.75" width="5.45" height=".36" transform="translate(-64.28 65.13) rotate(-17.62)"/>
      <path d="M164.55,220.72v3.6c0,.07.04.13.11.16l.1.06s0,0,.01,0l.17.08.5.21.11.04s.02,0,.02,0h.05s.02.01.04.01h.04s.03,0,.04,0l5.92-1.86s0,0,.01,0l.05-.02s.02-.01.03-.02l.03-.02s.03-.02.04-.04l.03-.04s.02-.03.03-.05v-.03s.02-.03.02-.04v-.04s0,0,0-.01v-7.2s0,0-.01-.01v-.06s0-.02-.01-.03v-.04s-.02-.01-.02-.02v-.02s-.03-.04-.04-.06l-.06-.06s-.03-.03-.05-.04l-.56-.23-.02-.1c-.01-.08-.09-.15-.17-.15h-.13s-.05,0-.07,0l-5.9,1.85s-.03.01-.04.02h-.01s0,.01,0,.01c0,0,0,0-.01,0l-.12.07s-.07.06-.08.11l-.04.17s0,.03,0,.04v.02h0s0,0,0,0v3.72ZM165.87,224.48h0s0-6.9,0-6.9l5.67-1.85v6.96s-5.66,1.79-5.66,1.79ZM171.33,215.4h.03s-5.67,1.86-5.67,1.86l-.74-.35h.01s5.56-1.75,5.56-1.75h.1s.18.04.18.04l.13.04.4.16Z"/>
      <path d="M221.4,221.98l-5.03,1.6c-.07.02-.12.09-.13.17v1.4c0,.07.04.14.11.17l.1.04s.01,0,.02,0h.04s.03.02.04.02c.01,0,.02,0,.03,0l6.11-1.15s.06-.02.08-.04l.03-.03s.02-.02.03-.03l.03-.04s.03-.07.03-.11v-1.25s0-.06-.02-.08l-.04-.08s-.05-.07-.09-.08l-1.23-.5s-.08-.02-.12,0ZM221.44,222.34l.65.26-3.6.67,2.95-.94ZM218.03,224.73l-1.43.27v-1s5.5-1.03,5.5-1.03l.45-.08v1s-4.52.84-4.52.84Z"/>
      <path d="M181.02,207.17v1.44h0v3.25s0,.29,0,.29h0v2.89s0,0,0,0h.18s.18,0,.18,0h0s0-.19,0-.19h0v-4.9s0,0,0,0v-1.27h0v-1.39s1.13-.35,1.13-.35l.07-.02h0l2.02-.63s.01,0,.01,0l6.46-2.02v1.2h0s-8.12,2.56-8.12,2.56c0,0-.02,0-.02,0l-.23.11s-.06.05-.08.08l-.08.15s-.02.05-.02.08v1.42c0,.06.03.11.07.14.03.02.07.03.11.03.02,0,.04,0,.05,0l28.77-9.01s.02,0,.03-.01l.1-.06s.06-.05.08-.09l.03-.08s.01-.05.01-.07v-1.48c0-.06-.02-.11-.07-.14-.05-.03-.11-.04-.16-.03l-6.65,2.08h-.04s0-.01,0-.01l-1.31.37h-.08s-.02.01-.03.02l-12,3.76v-1.12h.01s.09-.03.09-.03h0l.42-.13,12.34-3.86.63-.18s.02,0,.03-.01l.12-.06.97-.3h0s4.61-1.44,4.61-1.44l.93-.29h0l.97-.3h0s2.29-.72,2.29-.72v5.8s0,.43,0,.43h0v.73s0,2.21,0,2.21h0v.36s0,.47,0,.47h0v.09h0v.94s-.99.31-.99.31l-1.04.33h0s-1.39.44-1.39.44l-.37.12h0s-.05.02-.05.02h0s-.11.03-.11.03h0s-1.34.42-1.34.42l.05.17-.05-.17-.62.2.05.17-.05-.17-5.14,1.62h0s-1.55.49-1.55.49h0l-19.77,6.22h0l-.42.13-.64.2v-.69s0-.01,0-.02v-1.2s0,0,0,0v-.08h0v-.81s0,0,0,0v-.36h0v-.18h-.36v2.66s0,.01,0,.02v.89c0,.06.03.11.07.14.03.02.07.03.11.03.02,0,.04,0,.05,0l1.68-.53h0s.22-.07.22-.07h0s1.64-.52,1.64-.52h0s20.37-6.41,20.37-6.41h0s1.01-.32,1.01-.32h0s1.33-.42,1.33-.42h0s.2-.06.2-.06h0s.04-.01.04-.01l1-.32.14-.04h0l.13-.04h0s.62-.2.62-.2h0s1.4-.44,1.4-.44h.04s0-.01,0-.01l.05-.02h0l.97-.31h0s2.94-.93,2.94-.93c.07-.02.13-.09.13-.17v-.76h0v-.88s0-.23,0-.23h0v-2.32s0-.81,0-.81h0v-.33s0-1.03,0-1.03h0v-.07h0v-4.99c0-.06-.02-.11-.07-.14-.05-.03-.11-.04-.16-.03l-4.42,1.38-2.52.79h0s-.27.09-.27.09h0l-1.38.43h0s-.82.26-.82.26l-.66.21h0s-.01.01-.01.01h0s0,0,0,0h0s-2.56.8-2.56.8l-2.87.9h0s-5.35,1.67-5.35,1.67h0l-.47.15-2.38.74h0l-1.54.48h0s-5.2,1.63-5.2,1.63l.05.17-.05-.17h-.01s0,0,0,0l-2.05.64-.41.13h0s-.42.13-.42.13h0l-.24.07-.22.07h0c-.07.02-.13.09-.13.17h0ZM196.3,204.12l.27-.09,1.8.73-.27.09-1.8-.73ZM197.56,205.01l-.37.11-1.8-.73.37-.11,1.8.73ZM196.66,205.3l-7.98,2.5-1.68-.68,4.21-1.32s.04-.02.05-.03l.07-.05s.04-.04.06-.07l3.47-1.09,1.8.73ZM182.87,208.49l.03-.06.17-.08,3.4-1.06,1.68.68-5.27,1.65v-1.13ZM203.51,201.86l.25-.03s.02,0,.03,0l1.2-.34,6.42-2.01v1.2s-12.51,3.92-12.51,3.92l-.05-.02s0,0,0,0l-1.75-.71,6.4-2.01Z"/>
      <path d="M417.24,236.69l-.03-1.1s0,0,0,0h0l-.16-5.68c-.13-1.93-1.33-3.6-3.56-4.94-1.76-1.06-4.16-1.93-7.15-2.58-5.07-1.1-10.13-1.2-10.18-1.2h0s-1.64-.06-1.64-.06l-1.87.02-2.68.14-3.19.21h-.08s0,0-.01,0l-.34.06h-.25s-.01-.01-.02-.01l-2.49.22-.69.08-.2-.2s0,0,0,0l-.27-.23s0,0-.01,0l-.28-.21s0,0-.01,0l-.29-.18s0,0-.01,0l-.31-.16-.37-.15s0,0-.01,0l-.32-.1s-.01,0-.02,0l-.32-.07s-.01,0-.02,0l-.32-.03s-.01,0-.02,0h-.31s-.01,0-.02,0l-.31.03s0,0-.01,0l-.44.09s-.01,0-.02,0l-.29.1s0,0-.01,0l-.16.07-.29.13-1.27.65s0,0-.01,0l-.27.16-.13.08s0,0-.01,0l-.24.19s-.01,0-.01.01l-.22.22s0,0-.01.01l-.26.31s0,0-.01.01l-.18.26s0,.01,0,.02l-.15.28s0,0,0,.02l-.08.19-1.09.31-.77.24-1.94.67-1.6.65-1.5.67-.79.37-.06.03s-.01,0-.02,0l-.09.06-.29.13s-.01,0-.02.01l-1.05.64-.61.4-.85.63s-.01,0-.02.02l-.39.37-4.25-1.34-3.11-1-2.28-.76-2.22-.76-1.44-.51-1.41-.51-1.37-.51-1.42-.55-1.46-.59-1.42-.59-1.37-.59-1.33-.6-1.29-.6-1.25-.61-1.22-.61-1.18-.61-1.15-.62-1.12-.62-1.09-.62-1.06-.63-1.04-.63-1.41-.88-1.37-.89-1.33-.89-1.3-.9-1.28-.9-1.25-.9-1.24-.91-1.22-.91-6.02-4.55-1.21-.91-1.23-.9-1.24-.9-1.26-.9-1.29-.89-1.31-.89-1.35-.88-1.38-.87-1.42-.86-1.47-.86-1.51-.85-1.56-.84-1.62-.83-1.68-.81-1.89-.87-1.97-.86-2.03-.84-2.1-.83-2.16-.81-2.22-.8-2.28-.78-2.33-.77-2.38-.75-2.43-.73-2.48-.72-2.52-.7-2.56-.69-2.6-.67-2.64-.65-2.67-.64-2.7-.62-2.73-.61-2.76-.59-2.78-.57-2.8-.56-2.82-.54-2.83-.52-2.85-.5-2.86-.49-2.86-.47-2.87-.45-3.11-.47-3.12-.45-3.12-.42-3.13-.39-3.14-.36-3.16-.33-3.17-.3-1.11-.09-13.11-5.21,13.1-4.05s.02,0,.04-.02l.21-.12s.02-.01.02-.02l.18-.15s.01-.01.02-.02l.15-.17s.01-.01.02-.02l.13-.2s0-.01.01-.02l.1-.23s0-.01,0-.02l.08-.26s0-.01,0-.02l.05-.29s0-.01,0-.02l.03-.32s0-.01,0-.02l-.08-2.62-.16-4.25,10.05-3.07,2.8-.87,1.31-.46s.02,0,.03-.02l.35-.21s.02-.01.03-.02l.29-.26s.02-.02.02-.03l.24-.31s.01-.02.02-.03l.18-.37s0-.02.01-.03l.12-.42s0-.01,0-.02l.09-.59s0-.02,0-.03v-1.64s-.1-3.91-.1-3.91l-3.09-107.72.11-.02c.05,0,.09-.04.12-.08.03-.04.03-.1.02-.14l-.29-.96-.53-18.35-.12-3.58-.08-1.51-.03-.36s0-.01,0-.02l-.09-.43s0-.02-.01-.03l-.15-.35-.13-.29s-.01-.02-.02-.03l-.2-.26s-.01-.01-.02-.02l-.24-.22s-.01-.01-.02-.02l-.25-.17s0,0-.01,0l-.28-.16s-.02,0-.02-.01l-.27-.11s0,0-.01,0L199.07.15l-.31-.09s-.03,0-.05,0h-.36s-.2,0-.2,0c-.01,0-.03,0-.04,0l-.14.03-.28-.08s-.03,0-.05,0h-.36s-.9,0-.9,0l-4.58.04h-1.06s-.03,0-.04,0l-1.3.32-3.12.86-55.98,15.76-5.13.02-9.6-.33-7.1-.44-3.69-.26-1.56-.15-.71-.1s-.01,0-.02,0h-.23s-.03,0-.04,0l-.84.2-2.01.55L30.75,35.71l-2.1.6-.86.28s-.02,0-.03.02l-.23.13s-.02.01-.03.02l-.19.17s-.02.02-.02.03l-.15.2s-.01.02-.02.03l-.12.23s0,.02-.01.03l-.08.27s0,.02,0,.03l-.04.3s0,.02,0,.03l.02,1.07.09,2.55,2.96,73.62.11,2.4.07,1s0,.02,0,.03l.06.27s0,.02.01.03l.1.21s.01.03.02.04l.13.16s.02.02.02.02l.53.44,1.18.96,2.78,2.25,4.65,3.75,5.36,4.3,1.61,1.28.92,19.99.23,4.52s0,.01,0,.02l.05.31s0,.01,0,.02l.08.26s0,.02,0,.03l.1.22s.01.02.02.03l.13.17s.02.02.03.03l.15.13.11-.14-.09.16,9.3,5.36L.56,180.67s-.04.02-.06.03l-.33.27s-.06.06-.06.11l-.1.53s0,.02,0,.04l.47,36.03s0,.04.01.06l.09.25.17-.06-.07.16.51.22-.05.2-.21.15-.26.14s0,0,0,0c-.01,0-.03.02-.04.03,0,0,0,0,0,0-.01,0-.02.02-.03.03,0,0,0,0,0,.01,0,0,0,0,0,.01l-.09.21s-.01.05-.01.07l.08,5.75s0,.04,0,.06l.11.33s.05.09.1.11l90.79,38.63,1.6.68s.03,0,.04.01l.2.03s.01,0,.02,0l.28.02.07.14s.05.07.09.09l10.21,4.34-7.11,2.27-.93.31-.38.14s-.02,0-.02.01l-.16.09s0,0-.01,0l-.24.16s-.01.01-.02.02l-.12.11s-.01.01-.02.02l-.19.24s-.01.01-.01.02l-.09.16s0,0,0,.01l-.05.11-.07.18s0,.01,0,.02l-.05.19s0,.01,0,.02l-.03.21s0,.02,0,.02v1.05s0,2.62,0,2.62h0s.03,4.58.03,4.58v.61s.03.35.03.35c0,0,0,.01,0,.02l.04.22s0,.01,0,.02l.05.2s0,.01,0,.02l.07.19s0,0,0,.01l.06.13.1.17s0,.01.01.02l.09.12.11.13s0,.01.02.02l.11.1s.01.01.02.02l.26.18s.01,0,.02.01l.21.11.3.14,28.36,12.17.15.06s.02,0,.04.01l.09.02.09.07s.02.01.03.02l17.1,7.34.54.22.25.08s.02,0,.02,0l.37.06s.02,0,.02,0h.38s0,0,0,0c0,0,.01,0,.02,0l.22-.02.16-.02s.01,0,.02,0l.41-.11.81-.26,152.12-49.58,13.26-4.32.66-.22.46-.18s.01,0,.02-.01l.16-.09s.01,0,.02-.01l.23-.17s.01-.01.02-.02l.11-.11s.01-.01.02-.02l.19-.24s0-.01.01-.02l.09-.16s0-.01,0-.02l.11-.28s0-.01,0-.02l.05-.19s0-.01,0-.02l.03-.21s0-.01,0-.02l.02-.32v-.52s.02-.68.02-.68c0,0,0-.01,0-.02v-.08s-.01-.03-.02-.05l-.02-.05s0-.02-.01-.02l-.03-.05.02-.02s.02-.03.03-.05l.03-.08s.01-.04.01-.06v-.9s0-.69,0-.69v-.37s-.01-.01-.01-.02l-.04-.32s0-.01,0-.02l-.05-.2s0-.01,0-.02l-.07-.19s0-.01,0-.02l-.16-.31s0-.02-.01-.02l-.2-.26s0-.01-.01-.02l-.11-.11s-.01-.01-.02-.01l-.26-.19s0,0-.01,0l-.23-.14-.37-.2-45.34-22.92-1.18-.59-.37-.15s-.01,0-.02,0l-.19-.05-.18-.03s0,0-.01,0l-.17-.02s0,0-.01,0h-.19s-.01,0-.02,0h-.17s-.19.03-.19.03c0,0-.02,0-.03,0l-.36.09-.66.2-17.54,5.59-.35-.66s-.02-.03-.03-.04l-.14-.14-.14-.3s0-.02-.01-.02l-.26-.38s-.01-.02-.02-.02l-.32-.33s-.01-.01-.02-.02l-.14-.11-.2-.28-.26-.36s-.01-.02-.02-.02l-.31-.31s-.01-.01-.02-.02l-.36-.25s-.02-.01-.03-.01l-.4-.19s-.02,0-.03-.01l-.07-.02-.02-.02s-.01-.02-.02-.02l-.31-.31s-.01-.01-.02-.02l-.36-.25s-.02-.01-.03-.01l-.4-.19s-.02,0-.03-.01l-.25-.07-.4-.38s-.01-.01-.02-.02l-.35-.23s-.02-.01-.03-.02l-.38-.17s-.02,0-.03-.01l-.41-.1s-.02,0-.03,0h-.09s-.25-.23-.25-.23c0,0-.01,0-.02-.01l-.34-.23s-.02-.01-.03-.02l-.38-.17s-.02,0-.03-.01l-.4-.1s-.02,0-.03,0h-.03s-.05-.05-.05-.05c0,0-.02-.01-.02-.02l-.34-.23s-.01,0-.02-.01l-.39-.2s0,0-.01,0l-.32-.14.1-34.49s-.01-.07-.03-.1l-.26-.36-.18-.3s-.05-.06-.09-.08l-9.34-3.71s-.05-.01-.07-.01h-.35s-.03-.06-.03-.06c-.01-.03-.03-.06-.06-.07h0s0,0,0,0c0,0,0,0,0,0l-.15-.11s-.02-.02-.04-.02l-13.57-5.39,2.27.26,3.11.39,3.1.42,3.09.44,3.09.47,2.85.45,2.85.47,2.84.48,2.83.5,2.82.52,2.8.54,2.78.55,2.76.57,2.74.59,2.71.6,2.68.62,2.65.63,2.62.65,2.58.67,2.54.68,2.5.7,2.46.71,2.41.73,2.36.74,2.31.76,2.26.78,2.2.79,2.14.8,2.08.82,2.01.83,1.94.85,1.87.86,1.66.8,1.6.82,1.55.83,1.5.84,1.45.85,1.41.86,1.37.87,1.33.87,1.3.88,1.28.89,1.25.89,1.24.9,1.22.9,1.21.91,3.6,2.73,2.41,1.83,1.22.91,1.24.91,1.26.91,1.28.91,1.31.9,1.34.9,1.38.89,1.42.89.52.32,1.06.64,1.09.63,1.12.63,1.15.63,1.18.62,1.21.62,1.25.61,1.29.61,1.33.61,1.37.6,1.41.6,1.46.6,1.51.59,1.37.52,1.41.52,1.44.52,2.22.77,2.28.76,3.11,1.01,4.57,1.44s0,.03,0,.05v.4s-.13.19-.13.19c-.02.02-.03.05-.03.08l-.05.3-.04.28-.03.37-.03.42-.05,1.27v.42s0,.07.02.11l.62.91s.03.04.05.05l1.59,1.07s.02,0,.02.01l2.88,1.36,2.82,1.19,1.43.57.81.28.98.32,1.25.39,1.63.5,1.93.57,2.16.62,2.21.61,2.07.55,1.96.49,1.87.44,1.79.39,1.73.35,1.69.31,1.66.28,1.64.23,1.62.17,1.6.1h1.59s1.59-.07,1.59-.07l1.57-.19s0,0,.01,0l1.58-.3s0,0,.01,0l1.61-.44,1.58-.54,1.51-.62,1.4-.67s0,0,.01,0l1.25-.71s0,0,.01,0l1.06-.73s.01,0,.02-.01l.84-.72s.02-.01.02-.02l.56-.7s.02-.03.03-.05l.24-.65s.01-.04.01-.06v-.48s.05-.97.05-.97l.06-1.12s0-.01,0-.02l-.02-.57ZM386.75,221.86l3.25-.22,2.67-.14,1.5-.02h0s1.63.04,1.63.04h.36s0,.01,0,.01h.2s0,0,0,0c2.08.07,19.83.86,20.33,8.38l.16,5.59-.17.13c-.05.03-5.21,3.43-11.12,4.28-5.9.84-11.37-.16-14.98-.83l-.18-.03c-3.47-.64-10.36-2.26-10.43-2.27l-1.88-.46-1.66-.39-2.35-.56-.99-.25-1.67-.45c.23-.58,1.04-2.51,2.46-4.94,1.69-2.87,6.81-5.23,6.86-5.25l-.06-.13,3.26-.53c.06,0,.1-.04.13-.09s.03-.11,0-.16l-.17-.35-.19-.34-.05-.07,1.03-.42,1.12-.36.94-.16ZM383.64,222.13l.93-.08s0,0-.01,0l-1.1.45-.22-.29s0,0,0,0h-.01s.43-.07.43-.07ZM375.66,223.58l.12-.29.14-.27.17-.25.25-.3.21-.2.23-.18.38-.23,1.26-.64.27-.13.15-.06.28-.09.29-.06.12-.02.29-.03h.3s.3.03.3.03l.3.06.3.09.3.12.33.16.28.17.27.2.26.22.25.25.23.27.21.28.2.31.21.36.06.12-8.22,1.33.03-.34.04-.31.07-.3.1-.3ZM371.69,224.89l1.93-.66.76-.24.84-.24v.02s0,0-.01.01l-.07.32s0,.01,0,.02l-.05.33v.11s-.67.09-.67.09l-2.17.36-1.73.35,1.17-.47ZM364.91,228.43l.84-.61.6-.39,1.04-.64.8-.37,1.04-.35,1.36-.35,1.74-.35,2.16-.36.58-.08v.1c0,.05.01.11.05.14.03.03.08.05.12.05,0,0,.02,0,.03,0l4.69-.76c-.53.27-1.34.7-2.21,1.26-2.04,1.29-3.45,2.58-4.18,3.83-1.46,2.49-2.28,4.46-2.5,5.02l-3.06-.9-1.44-.48h-.02s-.96-.32-.96-.32c0,0-.01,0-.01,0l-.16-.07h0s-.95-.46-.95-.46c0,0,0,0,0,0l-.39-.19-.07-.05-.63-.64v-.24h0v-.44s.08-.27.08-.27l.11-.28.18-.37.29-.43.45-.58.43-.42ZM204.24,156.15l.08,2.6-.02.3-.05.27-.07.24-.09.21-.11.18-.13.15-.16.13-.18.1-12.18,3.76-61.1,18.74s-.01,0-.02,0l-12.13,3.72-5.35,1.63-7.16,2.18h-.18s-.15-.02-.15-.02l-.13-.06-.11-.09-.1-.13-.09-.18-.07-.23-.05-.28-.13-2.63-.19-4.32,2.5-.75,7.67-2.34,1.86.64s.01,0,.02,0l.64.14s.03,0,.04,0h.67s0,0,0,0c.01,0,.02,0,.04,0l.69-.14s0,0,.01,0h.02s.01-.01.02-.01l.68-.28s.02,0,.03-.01l.66-.41s.02-.01.02-.02l.61-.52s.01-.01.02-.02l.55-.62s.01-.01.01-.02v-.02s.04-.03.04-.03c0,0,.01-.01.01-.02l.44-.67s0-.01.01-.02l.08-.17,2.96-.9,1.86.64s.01,0,.02,0l.63.14s.03,0,.04,0h.67s0,0,0,0c.01,0,.02,0,.04,0l.69-.14s0,0,.01,0h.02s.01-.01.02-.01l.68-.28s.02,0,.03-.01l.65-.41s.01-.01.02-.02l.61-.52s.01-.01.02-.02l.54-.62s.01-.01.01-.02h0s.03-.05.03-.05c0,0,.01-.01.01-.02l.44-.67s0-.01.01-.02l.08-.17,2.94-.9,1.87.64s.01,0,.02,0l.63.14s.03,0,.04,0h.67s0,0,0,0c.01,0,.02,0,.04,0l.68-.14s0,0,.01,0h.02s.01-.01.02-.01l.68-.28s.02,0,.03-.01l.65-.4s.02-.01.02-.02l.61-.52s.01-.01.02-.02l.54-.62s0-.01.01-.02h0s.03-.05.03-.05c0,0,.01-.01.01-.02l.44-.67s0-.01.01-.02l.08-.17,2.92-.89,1.87.63s.01,0,.02,0l.63.14s.03,0,.04,0h.67s0,0,0,0c.01,0,.02,0,.04,0l.68-.14s0,0,.01,0h.02s.01-.01.02-.01l.67-.27s.02,0,.03-.01l.65-.4s.02-.01.02-.02l.6-.52s.01-.01.02-.02l.54-.62s0-.01.01-.02h0s.03-.05.03-.05c0,0,.01-.01.01-.02l.44-.66s0-.01.01-.02l.08-.17,21.81-6.66,1.87.63s.01,0,.02,0l.62.14s.03,0,.04,0h.66s0,0,0,0c.01,0,.02,0,.04,0l.68-.14s0,0,.01,0h.02s.01-.01.02-.01l.67-.27s.02,0,.03-.01l.64-.4s.02-.01.02-.02l.6-.52s.01-.01.02-.02l.54-.61s.01-.01.01-.02h0s.04-.05.04-.05c0,0,.01-.01.01-.02l.44-.66s0-.01.01-.02l.08-.17,2.85-.87,1.87.63s.01,0,.02,0l.62.14s.03,0,.04,0h.66s0,0,0,0c.01,0,.02,0,.04,0l.67-.14s0,0,.01,0h.02s.01-.01.02-.01l.67-.27s.02,0,.03-.01l.64-.4s.02-.01.02-.02l.6-.51s.01-.01.02-.02l.54-.61s.01-.01.01-.02h0s.04-.05.04-.05c0,0,.01-.01.01-.02l.44-.66s0-.01.01-.02l.08-.17,13.26-4.05.15,4.16ZM79.03,177.94l.44-1.82,4.41,2.54-.03.12s0,.06,0,.09l.6,2.3s.02.05.03.06l1.6,2.06s.02.02.04.03l2.75,2.03s.02.01.03.02l3.83,1.89s.01,0,.02,0l4.4,1.51h0s.13.04.13.04h0s5.34,1.27,5.34,1.27l.07.02s0,0,.01,0l1.68.26.42.24s.01,0,.02,0l.17.08s.03.01.04.01l.2.03s.02,0,.03,0c0,0,0,0,0,0l.34-.02s.03,0,.04,0l.32-.1,2.85.44s0,0,.01,0l6.53.57,6.73.15,6.72-.26,6.48-.67s0,0,.01,0l6.07-1.05s0,0,.01,0l5.45-1.41v-.02s4.27-1.57,4.27-1.57h.02s.01-.01.02-.02l3.71-1.95s.02-.01.03-.02l2.7-2.14-.02-.03,1.44-2.04s.02-.04.03-.07l.46-2.3s0-.06,0-.09l-.69-2.29s-.02-.04-.03-.06l-.89-1.09,4.3-1.32,1.49,1.82.77,2.53-.51,2.55-1.77,2.51-3.03,2.4-4.18,2.2-5.22,1.91-6.09,1.57-6.78,1.18-7.24.75-7.5.29-7.51-.17-7.3-.63-6.85-1.07-6.18-1.48-5.34-1.83-4.31-2.13-3.17-2.35-1.92-2.49-.66-2.53.12-.51ZM104.03,182.54l.19,4.23.13,2.64s0,.01,0,.02l.05.3s0,.01,0,.02l.08.26s0,.01,0,.02l-.71-.4s0,0,0,0h0s-5.69-3.2-5.69-3.2l-.12-.1-.1-.14-.02-.03s0-.02,0-.02l-.11-.23-.07-.24-.05-.28-.14-2.79-.05-1,3.33,1.15s0,0,.01,0l.61.16s.01,0,.02,0l.36.04s.01,0,.02,0h.38s.39-.03.39-.03c.01,0,.02,0,.04,0l1.28-.34.17-.05ZM96.88,181.42l.17,3.58s0,.01,0,.02l.04.26s0,.01,0,.02l.05.2s0,.02,0,.02l.07.15s0,.02.02.03l.07.1.04.13-.08-.07-.1-.13-.08-.18-.07-.23-.05-.28-.14-2.8-.04-.84.08.03ZM97.08,186.27s0,0,.01,0l.18.08s.03.01.04.01l.2.03s.02,0,.03,0c0,0,0,0,0,0h.02s.11.15.11.15c0,.01.02.02.03.03l.15.13s.02.01.03.02l4.59,2.58-3.93-.94-4.51-1.54-3.65-1.8-2.68-1.98-1.63-2.1-.32-1.21,8.04,4.64,3.27,1.88ZM157.54,174.85l.96,1.17.66,2.21-.45,2.22-1.46,2.06-2.56,2.02-3.68,1.93-4.42,1.62-5.27,1.36-.31.05,4.51-1.16s.01,0,.02,0l4.43-1.62s.01,0,.02,0l3.56-1.87s.02-.01.03-.02l2.59-2.05s.03-.02.04-.04l1.54-2.17s.02-.04.03-.07l.45-2.22s0-.06,0-.09l-.66-2.21s-.02-.04-.03-.06l-.69-.85.71-.22ZM156.46,175.18l.76.93.64,2.13-.43,2.14-1.5,2.12-2.56,2.02-3.54,1.85-4.42,1.62-5.15,1.33-5.73.99-5.94.61-.18.02-6.34.25-5.97-.13h-.37s-6.17-.54-6.17-.54l-2.15-.33,10.76-3.28,12.11-3.71s.01,0,.02,0l26.14-8.02ZM120.9,177.81l-.5.57-.56.48-.6.37-.62.25-.62.13h-.6s-.56-.13-.56-.13l-.51-.25-.39-.31,5.3-1.62-.33.5ZM115.21,179.14l.05.06-.12-.04.07-.02ZM131.01,174.71l-.5.57-.56.48-.6.37-.62.25-.62.13h-.59s-.57-.13-.57-.13l-.51-.25-.39-.31,5.28-1.61-.33.5ZM125.35,176.05l.05.07-.13-.04.08-.02ZM141.1,171.63l-.5.57-.56.48-.6.37-.61.25-.61.13h-.6s-.56-.13-.56-.13l-.51-.25-.38-.31,4.63-1.41.63-.19-.33.5ZM135.45,172.96l.06.07-.14-.05.08-.02ZM151.16,168.56l-.5.57-.56.48-.59.37-.61.25-.61.13h-.59s-.56-.13-.56-.13l-.51-.25-.38-.31,5.24-1.6-.33.5ZM145.52,169.88l.06.07-.14-.05.08-.03ZM180.06,159.73l-.49.57-.55.47-.59.37-.61.25-.61.12h-.59s-.55-.13-.55-.13l-.5-.25-.38-.31,5.19-1.59-.33.49ZM174.48,161.04l.07.08-.16-.05.1-.03ZM190,156.69l-.49.57-.55.47-.59.37-.61.25-.6.12h-.58s-.55-.13-.55-.13l-.5-.25-.38-.31,5.17-1.58-.32.49ZM184.43,158l.07.09-.17-.06.1-.03ZM119.74,54.7l-3.94,1.13h0s-.79.23-.79.23l-.27.1s-.01,0-.02,0l-.26.13-1.71,1.01-1.54.9-1.68.97-1.56.88-.87-3.26-.92-3.43-.8-2.91-1.08-3.88-.06-.31-.03-.43-.21-5.81,15.07-4.28.66,18.96ZM111.39,58.52l1.54-.9,1.7-1,.24-.12.25-.09,4.85-1.39c.08-.02.13-.1.13-.18l-.23-6.53,75.6-21.6.62,9.62c0,.06.03.11.08.14.03.02.06.03.1.03.02,0,.04,0,.06,0l2.23-.77,3.01,96.9-89,26.77-3.51-99.54,2.32-1.32ZM208.78,134.98l-.6-.31s-.02,0-.03-.01l-6.21-2.04-3.01-97.03h0s0,0,0,0l2.57-.88.4-.12.3-.07s0,0,0,0l3.75-.66,2.93,99.99-.11,1.14ZM202.15,34.15s0,0-.01,0l-.32.07s0,0-.01,0l-.41.13-2.58.89s0,0,0,0l-2.36.81-1.36-20.93,16.49-5.61.41,6.48s0,0,0,.01l.06.42s0,.01,0,.02l.14.51,1.2,3.84,1.06,3.43,1.12,3.69.85,2.84.24.79-3.52.64-3.66.66-7.33,1.29ZM198.18.41h.18s.33,0,.33,0l15.47,4.66.25.1.26.15.23.16.22.2.18.23.12.27.14.33.09.4.03.35.08,1.5.12,3.58.49,17.02-.46-1.55-1.12-3.69-1.06-3.43-1.2-3.83-.13-.49-.06-.41-.43-6.7c0-.06-.03-.11-.08-.14-.05-.03-.1-.04-.16-.02l-16.84,5.73c-.08.03-.13.1-.12.18l.73,11.32-75.59,21.6-.43-12.43c0-.06-.03-.11-.07-.14-.04-.03-.1-.04-.15-.03l-15.43,4.38c-.08.02-.13.1-.13.18l.21,5.96.03.45s0,.01,0,.02l.06.33s0,.01,0,.02l.97,3.5.91,3.3.92,3.42.93,3.49c.01.05.05.1.1.12.02,0,.05.01.07.01.03,0,.06,0,.09-.02l.77-.44,3.5,99.45-.05.02.06.2.13,3.67s0,.04.01.06l.39,1.04c.03.07.09.12.17.12,0,0,.01,0,.02,0l1.11-.11s.02,0,.03,0l93.89-28.46s.03,0,.04-.02l1.01-.58c.05-.03.08-.08.09-.14h0s.14-1.41.14-1.41c0,0,0-.01,0-.02l-2.93-100.05,3.22-.57,3.66-.66,3.25-.59,3.08,107.66.1,3.91v1.62s-.06.45-.06.45l-.02.1-.12.39-.17.34-.22.29-.27.24-.32.19-1.16.41-2.92.91-69.51,21.23s-.01,0-.01,0l-38.08,11.63-3.02.9-1.25.33-.36.02h-.36s-.33-.03-.33-.03l-.59-.15-14.95-5.16-.23-.15-.11-.1-.18-.22-.14-.3-.09-.39-.1-1.56-.15-3.8-4.79-129.67-.14-4.06-.02-1.68.06-.46.12-.4.17-.34.22-.29.28-.24.33-.19,1.34-.43,3.32-.95L193.76,1.59l3.13-.87,1.28-.31ZM79.61,37l.11,3.25,4.82,130.47.16,3.82.1,1.58s0,.02,0,.03l.1.43s0,.02.01.03l.1.23-.19-.12-.17-.21-.14-.3-.09-.39-.1-1.57-.13-3.08-4.81-129.86-.14-4.25-.02-1.74.06-.45.12-.4.17-.34.22-.29.28-.24.33-.19.1-.03-.24.2s-.02.02-.02.03l-.25.32s-.01.02-.02.03l-.19.37s0,.02-.01.03l-.13.43s0,.02,0,.03l-.07.48s0,.02,0,.03l.02,1.7ZM186.38,1.58l3.11-.86,1.27-.31h1.04s4.3-.04,4.3-.04l-2.61.72-108.82,30.66-3.09.89-1.29.42s-.02,0-.03.02l-.36.21s-.02.01-.03.02l-.3.26s-.02.02-.02.03l-.24.32s-.01.02-.02.03l-.19.37s0,.02-.01.03l-.13.43s0,.02,0,.03l-.07.48s0,.02,0,.03l.02,1.76.14,4.25,4.78,129.12.16,3.83.1,1.59s0,.02,0,.03l.1.43s0,.02.01.03l.15.34s.01.03.02.04l-6.04-2.09-.22-.14-.18-.22-.17-.3-.14-.31-.09-.39-.1-1.55-.16-3.78-4.76-127.05-.13-3.92-.02-1.62.06-.44.12-.39.17-.33.22-.28.28-.24.16-.11.34-.19,1.34-.43,3.3-.95L186.38,1.58ZM27.92,36.92l.84-.27,2.09-.6,68.61-19.21,2-.55.81-.2h.2s.71.1.71.1l1.57.15,3.69.26,7.1.44,9.61.33,3.84-.02-50.75,14.28-3.31.95-1.36.44s-.02,0-.03.01l-.36.21s0,0-.01,0l-.17.12s0,0-.01.01l-.3.26s-.02.02-.02.03l-.24.31s-.01.02-.02.03l-.19.36s0,.02-.01.03l-.13.41s0,.02,0,.03l-.07.47s0,.02,0,.03l.02,1.64.13,3.93.14,3.78-12.26.38-32.44-7.91.13-.11.2-.11ZM40.52,127.13l-5.35-4.31-2.78-2.25-1.18-.96-.52-.43-.11-.13-.08-.18-.06-.24-.07-.98-.11-2.39-2.96-73.62-.09-2.54-.02-1.05.04-.28.07-.24.05-.09,32.6,7.95s.03,0,.04,0c0,0,0,0,0,0l12.29-.38,4.19,111.87-4.29-3.41-3.07-2.55-1.5-1.55-.15-.18-.74-.96h-.02s-.6-.59-.6-.59c0,0,0,0-.01-.01l-2.85-2.31-15.49-12.37-7.25-5.82ZM48.28,157.62l-.09-.19-.07-.24-.05-.29-.23-4.51-.6-12.92-.31-6.75,16.1,12.87,2.85,2.31.69.69.63.83.16.19s0,0,0,.01l1.51,1.57s0,0,.01.01l3.08,2.56,4.54,3.6.4,10.58.16,3.78.1,1.57s0,.02,0,.03l.1.42s0,.02.01.03l.15.34s0,0,0,.01l.18.32s.01.02.02.03l.21.25s.03.03.04.04l.26.17s.02.01.04.02l6.51,2.25s0,0,.01,0l.31.08s.03,0,.04,0h.28s.09.08.09.08c0,0,.01.01.02.02l.26.17s.02.01.04.02l10.66,3.68.04.99.14,2.81s0,.01,0,.02l.05.3s0,.01,0,.02l.07.26s0,0,0,.01l-11.19-6.45-1.39-.8h0s-4.73-2.73-4.73-2.73c0,0,0,0-.01,0l-21.28-12.27-9.65-5.56-.12-.1-.1-.14ZM58.04,163.77l21.1,12.16-.08.3-.38,1.62-.14.56s0,.06,0,.09l.68,2.62s.02.05.03.06l1.96,2.54s.02.02.04.03l3.21,2.37s.02.01.03.02l4.34,2.14s.01,0,.02,0l5.36,1.84s.01,0,.02,0l6.2,1.48s0,0,.01,0l6.86,1.07s0,0,.01,0l7.31.63,7.53.17,7.52-.29,7.26-.75s0,0,.01,0l6.79-1.18s0,0,.01,0l6.1-1.58s.01,0,.02,0l5.24-1.92s.01,0,.02,0l4.2-2.21s.02-.01.03-.02l3.06-2.42s.03-.02.04-.04l1.81-2.57s.02-.04.03-.07l.3-1.49v4.2s.37,0,.37,0v-4.92s-.01-.03-.02-.05l-.13-.46-.79-2.61s-.02-.04-.03-.06l-1.42-1.73,27.4-8.41,34.57,13.74-131.12,40.72s-.04.02-.06.03l-.24.2-.1-.05s0,0-.01,0l-8.76-3.65-.05-.02s0,0-.01,0L.63,181.06l.07-.05,57.35-17.23ZM.36,181.66l.06-.3,79.82,33.24,3.81,1.59s0,0,0,0l8.81,3.67.08.04-.08.41s0,.02,0,.04l.21,31.48.03,5.06L1.43,218.02s0,0,0,0l-.54-.23-.06-.15-.47-35.98ZM94.08,264.7l-.06-.12-.02-.05h0l-.08-.25-.04-6.24v-.09s0,0,0,0v-.78s0,0,0,0c0,0,0,0,0,0l-.25-36.64.06-.32,10.57,4.4.21.13v.34s.26,44.07.26,44.07h0s-.11.05-.11.05l-10.53-4.48ZM104.82,225.07v-.33s.22-.12.22-.12l49.98-15.59,18.06-5.63.2-.02.14.22.05,43.55-.08.1-16.51,5.26h0s-.28-.47-.28-.47l-.43-.99-.41-.98s0-.01,0-.02l-.23-.43s-.03-.05-.06-.06l-.15-.1s-.07-.03-.1-.03h-.16s-.03,0-.05.01l-31.83,10.12s-.02,0-.03.02l-.18.1s-.04.03-.05.04l-.15.19s-.02.03-.03.04l-.12.29h-.03s-.95,2.72-.95,2.72h.02s-.11.32-.11.32l-.22.55-16.24,5.18-.26-43.96ZM180.58,244.25l.1-.07v.03s.39-.22.39-.22l-.03-.05.15-.1.3-.18.32-.12.34-.06h.36s.37.08.37.08l.41.1.41.17.16.09-.66.21s0,0,0,0l-.45-.11s-.02,0-.03,0l-.46-.04s-.02,0-.03,0l-.45.03s-.02,0-.03,0l-.44.09s-.02,0-.03,0l-.41.16s-.02,0-.03.01l-.37.22s-.02.01-.02.02l-.14.12.05-.11.2-.27ZM235.57,226.74s.05-.08.05-.12v-1.81s.08.03.08.03c0,0,.01,0,.02,0l.49.14s.01,0,.02,0h.01s0,0,0,0l.22.24s.02.02.03.03l.27.19s.02.01.04.02l.3.12s.01,0,.02,0l.27.08.09.16s.01.02.02.03l.22.24s.02.02.03.03l.27.19s.02.01.04.02l.17.07.1.15-36.01,11.47h-.06s-.04-.02-.05-.02l-.6.04s0,0-.01,0l-.18.03s-.05.01-.07.02l-.16.1s-.02.01-.03.02l-.3.28-.28.09-.24-.15s-.03-.02-.05-.02l-.11-.03,34.74-11.07s.05-.02.07-.04l.31-.28s0,0,0,0l.27-.27ZM240.04,226.02l.08-.02-.22.07.15-.06ZM241.22,225.66h-.04s-.02-.02-.03-.02l-.4-.05s-.02,0-.03,0h-.38s-.02.01-.03.02l-.32.07-.07-.1.06-.04.37-.18.4-.12.44-.06v-.1s.15-.02.15-.02h.42s.42.07.42.07l.36.11-1.33.42ZM243.05,225.07l-.31-.15s-.02,0-.02,0l-.44-.14s-.02,0-.03,0l-.45-.07s-.02,0-.03,0h-.44s-.02,0-.03,0l-.33.04s0,0,0,0h-.1s-.02.02-.03.02l-.4.12s-.02,0-.03,0l-.37.18s-.01,0-.02,0l-.24.15-.35.24s-.02.01-.02.02l-.3.29s-.01.01-.02.02l-.11.15.07-.27v-.04s.17-.32.17-.32l.22-.3.28-.27.33-.22.37-.18.22-.09.38-.11.4-.05h.41s.41.07.41.07l.41.13.39.19.36.24.2.18-.56.18ZM240.79,222.93l-.41.16s-.02,0-.02.01l-.37.21s-.01,0-.02.01l-.33.26s0,0,0,0l-.13.11s0,0,0,0l-.32.32s0,.01-.01.02h0s-.26.36-.26.36c0,0,0,.01-.01.02l-.2.38s0,.02-.01.03l-.13.39s0,.02,0,.03l-.06.39s0,.02,0,.03v.38s.01.02.01.03v.06s-.03-.07-.03-.07l-.13-.32-.13-.36-.07-.33v-.35s.05-.36.05-.36l.12-.36.18-.35.24-.33.3-.3.34-.27.38-.22.42-.17h0s.43-.11.43-.11l.41-.04.49.02.44.08.42.15.38.21.35.26.16.17-.12-.06s-.02,0-.02-.01l-.42-.15s-.02,0-.03,0l-.44-.08s-.02,0-.03,0l-.45-.02s-.02,0-.03,0l-.44.04s-.02,0-.02,0l-.43.1s-.02,0-.02,0ZM241.02,221.33l.27.08-.11.31.4.14.1.06-.15-.03s-.02,0-.03,0l-.52-.02s-.02,0-.02,0l-.44.04s-.02,0-.02,0l-.42.1s-.02,0-.02,0l-.04.02h0s0,0,0,0l-.43.17s-.02,0-.02.01l-.13.07-.03-.06-.32.17.04.07h0s-.02,0-.02,0c-.06-.03-.14-.02-.19.03l-.3.26s-.01.01-.02.02l-.27.3h0s-.03.04-.04.06c-.02.05,0,.1.02.14l-.13.18s-.01.01-.01.02l-.19.38s0,.02-.01.03l-.13.39s0,.02,0,.03l-.06.39s0,.02,0,.03v.38s.01.02.01.03l.08.36s0,.01,0,.02l.1.3-.16-.18-.37-.65-.1-.29-.04-.32v-.35s.08-.37.08-.37l.13-.37.19-.37.24-.35.3-.33.05-.05.3-.26.33-.22.32-.16.53-.18.43-.08h.43s.42.04.42.04ZM199.34,238.83l.71-.09h.06s-1.06.35-1.06.35l.18-.19.12-.07ZM198.59,239.05l-.16-.09.34-.11-.19.2ZM198,239.13l.34.19-1.36.43-.02-.02s-.01-.02-.02-.02l-.14-.12.11-.14.13-.14.12-.07.55-.11.15-.02.14.03ZM196.36,239.72l.17.09.06.06-1.52.49-.02-.04s0-.01-.01-.02l-.18-.23s-.01-.02-.02-.02l-.14-.12.05-.07.13-.14.14-.08.54-.15.16-.02.16.03.5.23ZM194.42,240.15l.16.15.14.18-1.48.47-.18-.29s-.01-.01-.02-.02l-.21-.23s-.01-.02-.02-.02l-.17-.14.12-.13.14-.08.52-.19.15-.02.17.03.51.19.17.09ZM192.38,240.5l.19.15.19.21.12.19-1.52.48-.32-.5s-.01-.01-.02-.02l-.21-.24s-.01-.02-.02-.02l-.19-.15.03-.03.67-.32.17-.02.2.03.51.15.19.09ZM190.18,240.79l.19.09.13.1-.26.17.2.31.3-.19-.09-.14.11.12.26.41-1.07.34s0,0,0,0l-.24.08-.02-.03s0,0,0-.01l-.21-.31-.23-.3s-.01-.01-.02-.02l-.25-.24s-.02-.01-.03-.02l-.25-.16.41-.23.18-.09.17-.02.2.04.52.11ZM188.27,241.21l.23.09.23.15.23.22.21.28.17.25-1.25.4-.04-.08s0-.01-.01-.02l-.25-.34s-.03-.03-.04-.04l-.37-.25-.24-.23s-.02-.01-.03-.02l-.26-.17.25-.19.2-.09.22-.03.51.05.24.03ZM186.43,241.65l.23.09.24.15.24.23s.01.01.02.02l.35.23.21.28.02.04-1.16.37-.1-.14s0,0,0-.01l-.21-.24-.28-.29s-.01-.01-.02-.02l-.31-.23s-.02-.01-.03-.02l-.32-.16s-.02,0-.03-.01l-.26-.08.09-.09.24-.1.29-.04.57-.02.23.03ZM184.57,242.17l.29.02.29.09.29.15.28.21.2.2.27.3.03.04-.71.23h0s0,0,0,0c-.01-.03-.03-.05-.06-.07-.06-.04-.13-.04-.19,0l-.11-.12s-.01-.01-.02-.02l-.35-.28s-.01-.01-.02-.02l-.38-.21s-.02,0-.03-.01l-.39-.15s-.02,0-.03,0l-.4-.08s-.02,0-.03,0h-.08s.12-.08.12-.08l.26-.1.29-.04.46-.05ZM183.14,242.8h.36s.37.08.37.08l.36.14.35.2.33.26.09.1-.68.22h0s-.01-.02-.02-.02l-.41-.24s-.02,0-.02-.01l-.44-.18s-.02,0-.03,0l-.44-.11-.4-.08s-.02,0-.03,0h-.39s-.02,0-.03,0h-.04s.04-.02.04-.02l.69-.26.34-.06ZM180.69,244.8l.34-.2.39-.15.41-.09.43-.03.27.03-2.09.67.27-.23ZM179.78,245.13l-.02.11-5.93,1.89v-.33s6.02-1.92,6.02-1.92l-.07.25ZM122.83,260.72l.23-.58.11-.14.14-.08,28.32-9.01,4.47,1.87-31.84,10.14-2.49.79.11-.28.95-2.72ZM152.15,250.75l2.94-.93h.08s.06.04.06.04l.2.38.41.97.43,1s0,.01.01.02l.19.32-4.32-1.81ZM262.24,219.33l.64-.2.34-.08.17-.02h.15s.17,0,.17,0l.16.02.16.03.17.04.21.08.14.06,46.51,23.5.36.19.22.13.23.17.1.1.18.23.14.28.06.17.05.18.04.29v.36s0,1.55,0,1.55v.02s-.09.1-.09.1l-.07.06-.12.07-.16.07-.05.02-.41.14h0s-.09.05-.09.05l-159.41,51.89-7.45,2.42-.4.12-.2.05-.19.04-.18.02h-.17s-.16.01-.16.01h-.17s-.15-.03-.15-.03l-.16-.03-.18-.05-.17-.06-.1-.04h0s-.34-.14-.34-.14l-5.79-2.48-4.2-1.81h0s-6.03-2.58-6.03-2.58l-1.37-.59s-.02,0-.03-.01h-.07s-.1-.02-.14.01c-.04.03-.07.07-.08.11v.07s-.02.02-.02.04v.02l-.05.09s-.01.02-.02.04l-.03.1s0,.04,0,.06v1.26s.03.36.03.36c0,0,0,0,0,.01l.03.25s0,.01,0,.02l.05.22s0,.02,0,.02l.03.09-27.26-11.7-1.15-.5-.19-.1-.24-.16-.09-.08-.1-.12-.08-.1-.09-.15-.06-.11-.07-.17-.05-.18-.03-.2-.02-.33v-.6s-.04-4.39-.04-4.39v-2.71h-.01v-.09s0-1.03,0-1.03l.03-.19.04-.17.06-.16.04-.1.08-.14.17-.21.1-.09.22-.15.15-.08.37-.14.93-.31,82.87-26.4s0,0,.01,0l7.95-2.53.24-.07s0,0,0,0l1.51-.48.38-.12s0,0,.01,0l48.67-15.51.14-.04s0,0,.01,0l23.35-7.44ZM244.25,224.69l-.25.08s-.01-.01-.02-.02l-.34-.31s-.01-.01-.02-.02l-.38-.26s-.01,0-.02-.01l-.41-.2s-.02,0-.02,0l-.43-.13s-.02,0-.03,0l-.44-.07s-.02,0-.03,0h-.44s-.02,0-.03,0l-.42.06s-.02,0-.03,0l-.4.12s-.01,0-.02,0l-.23.1-.35.16-.06-.13.21-.15-.09-.13.08-.06.39-.22.43-.17-.02-.04h.03s.4-.11.4-.11l.42-.04.42.02.41.08.39.14.37.2.33.25.28.29.31.58ZM240.54,220.76l.26.18-.16-.02s-.02,0-.03,0l-.46.02s-.02,0-.03,0l-.45.08s-.02,0-.02,0l-.45.15-.07.03s-.01,0-.02,0l-.38.19s-.01,0-.02.01l-.35.23s-.01,0-.02.01l-.31.27s0,0-.01.01l-.37.41s0,.01-.01.02l-.25.37s0,.01-.01.02l-.2.39s0,.02,0,.02l-.14.4s0,.02,0,.03l-.07.39s0,.02,0,.03v.38s-.01.02-.01.03l.05.36s0,.02,0,.03l.11.32s0,.02.01.03l.04.06-.18-.07-.23-.16-.2-.21-.16-.27-.18-.39-.1-.29-.04-.32v-.35s.08-.36.08-.36l.13-.37.18-.37.24-.35.29-.32.33-.29.37-.25.4-.2.42-.14.4-.07.46-.02.42.05.4.11.37.18ZM238.73,219.7l.35.16.32.21h0s-.02,0-.03,0l-.45.02s-.02,0-.03,0h-.07s-.03,0-.03,0c0,0-.02,0-.03,0l-.37-.04-.02.15-.4.13s-.02,0-.02,0l-.26.13-.12-.3-.36.15s-.01,0-.02.01l-.35.2.18.31.34-.19.08-.03-.31.21s-.01,0-.02.01l-.35.31s-.01.01-.02.02l-.3.34s0,.01-.01.02l-.25.37s0,.01-.01.02l-.2.39s0,.01,0,.02l-.14.39s0,.02,0,.02l-.07.39s0,.02,0,.03v.37s-.01.02-.01.03l.05.35s0,.02,0,.03l.11.32s0,.01,0,.02l.14.3-.18-.05-.2-.09v-3.67s.09-.09.09-.09l.32-.31.35-.26.38-.21.39-.16.4-.1.4-.04.39.03.38.09ZM237.16,218.93l.35.15.23.15-.23.02s-.02,0-.03,0l-.43.1s-.02,0-.02,0l-.42.17s-.01,0-.02.01l-.4.23s-.01,0-.02.01l-.37.28s-.01,0-.02.01l-.15.15v-1.3s.36-.09.36-.09l.4-.04.39.03.37.09ZM235.82,218.28l.35.18-.21.02s-.02,0-.03,0l-.29.07v-.35s.18.08.18.08ZM235.26,226.54l-.21.22-.28.25-36.84,11.74h-.02s-.04-.01-.07,0l-.19.03-.59.11s-.04.01-.06.02l-.17.1s-.03.02-.04.04l-.09.1-.46.15-.26-.12s-.03,0-.04-.01l-.21-.04s-.04,0-.06,0l-.2.03s-.01,0-.02,0l-.57.16s-.03,0-.04.02l-.18.1s-.03.02-.04.03l-.16.17s-.01.02-.02.02l-.06.1s0,0,0,0l-.54-.2s-.02,0-.03,0l-.21-.04s-.04,0-.06,0l-.2.03s-.02,0-.03,0l-.55.2s-.02,0-.03.01l-.18.1s-.03.02-.04.03l-.16.17s-.02.02-.03.03l-.02.03s0,0,0,0l-.53-.15s-.01,0-.02,0l-.24-.04s-.04,0-.06,0l-.23.03s-.04,0-.05.02l-.52.25-.2.1s-.03.02-.04.03l-.15.14-.54-.11-.24-.04s-.04,0-.06,0l-.23.03s-.04,0-.05.02l-.22.11-.49.28s-.02.02-.03.02l-.11.1-.22-.03-.54-.06s-.03,0-.04,0l-.27.04s-.03,0-.05.01l-.25.11s-.03.01-.04.02l-.43.33-.02.02-.21-.03s-.02,0-.03,0l-.6.02s-.01,0-.02,0l-.32.05s-.03,0-.04.01l-.3.12s-.04.02-.06.04l-.34.32-.47.05-.32.05s-.03,0-.04.01l-.3.12s-.02.01-.04.02l-.27.18s-.02.02-.03.03l-.2.21-.16.03s-.02,0-.03,0l-.73.27s-.02,0-.03.02l-.32.2s-.02.01-.03.02l-.28.26s-.02.02-.02.03l-.09.12-.2.12-.65.44s-.03.03-.04.04l-.23.31s-.01.02-.02.03l-.05.1-6.19,1.97-.05-42.86s0-.07-.03-.09l-.11-.17-.18-.43s-.05-.08-.1-.1l-.51-.21,62.18-19.38.19-.03.17.23-.13,43.16ZM235,182.79l.02.03h-.05s-.02.01-.02.01l-60.64,18.9-1.79.56c-.05.02-.09.05-.11.1-.02.05-.02.11,0,.15l.12.22s.05.06.09.08l.47.19h-.06s-.03,0-.04.01l-68.08,21.23s-.02,0-.03.01l-.23.13-.21-.14s-.02-.01-.03-.01l-10.5-4.37.06-.05,34.06-10.58,51.04-15.85.21-.06,24.67-7.66,21.04-6.54.24-.03h.1s0,0,0,0h.43s9.25,3.67,9.25,3.67ZM356.22,228.16l-2.29-.76-2.24-.76-1.46-.51-1.42-.52-1.39-.52-1.44-.56-1.48-.59-1.43-.6-1.39-.6-1.34-.6-1.3-.61-1.26-.61-1.23-.61-1.19-.62-1.16-.62-1.13-.62-1.1-.63-1.07-.63-1.05-.63-1.41-.89-1.37-.89-1.34-.9-1.31-.9-1.28-.91-1.26-.91-1.24-.91-1.22-.91-6.01-4.56-1.21-.91-1.22-.9-1.24-.9-1.26-.89-1.28-.89-1.31-.88-1.34-.88-1.37-.87-1.41-.86-1.46-.85-1.5-.84-1.55-.83-1.61-.82-1.66-.81-1.88-.87-1.95-.85-2.02-.84-2.08-.82-2.14-.81-2.2-.79-2.26-.78-2.32-.76-2.37-.75-2.42-.73-2.46-.72-2.51-.7-2.55-.68-2.59-.67-2.62-.65-2.66-.64-2.69-.62-2.72-.6-2.74-.59-2.76-.57-2.78-.55-2.8-.54-2.82-.52-2.83-.5-2.84-.48-2.85-.47-2.85-.45-3.09-.47-3.1-.44-3.1-.42-3.11-.39-3.12-.36-.46-.05-5.55-2.2,3.1.29,3.15.33,3.14.36,3.13.39,3.12.42,3.11.45,3.11.47,2.87.45,2.86.47,2.85.49,2.84.5,2.83.52,2.82.54,2.8.55,2.78.57,2.75.59,2.73.6,2.7.62,2.67.64,2.64.65,2.6.67,2.56.69,2.52.7,2.48.72,2.43.73,2.38.75,2.33.76,2.27.78,2.22.8,2.16.81,2.09.83,2.03.84,1.96.85,1.89.87,1.67.81,1.61.82,1.56.83,1.51.84,1.46.85,1.42.86,1.38.87,1.34.88,1.31.88,1.28.89,1.26.89,1.24.9,1.22.9,1.21.91,3.6,2.73,2.41,1.82,1.22.91,1.24.91,1.26.91,1.28.9,1.31.9,1.34.89,1.37.89,1.41.88.52.32,1.06.63,1.08.63,1.11.62,1.14.62,1.17.62,1.2.61,1.24.61,1.28.61,1.32.6,1.36.6,1.4.59,1.45.59,1.49.59,1.36.51,1.4.51,1.43.51,2.2.76,2.26.76,3.09,1.01,4.9,1.54-.3.39s0,0,0,0l-.3.44s0,.01-.01.02l-.19.39s0,0,0,.01l-.1.26-3.79-1.19-3.12-1.01Z"/>
      <path d="M99.68,271.91l-.03.02c-.06.03-.09.09-.09.16s.03.12.09.16l.09.05.19.12s0,0,.01,0l42.83,22.79,1.35.7s0,0,.01,0l.32.13s.05.01.07.01c.02,0,.04,0,.06,0l162.9-52.88c.05-.02.1-.06.11-.11.02-.05.01-.11-.02-.16l-.13-.19s-.04-.04-.07-.06l-1.32-.68-43.31-21.91s-.01,0-.02,0l-.12-.05s-.08-.02-.11,0l-.17.04-162.63,51.85s-.02,0-.03.01ZM144.53,295.69l-.25-.1-1.34-.69-41.79-22.24,99.26-31.66s0,0,0,0l2.13-.68s.02,0,.02,0l59.37-18.94.56-.18,43.3,21.91.27.14-161.54,52.44ZM262.61,220.96l-.08.16-.05-.17h.13ZM305.9,242.29l1.21.62-.47.15-.64-.34-.04.07h0s-14.52-7.35-14.52-7.35l.03-.07-.34-.17-.03.07-5.25-2.66.03-.07-.17-.09-.03.07-13.1-6.63.03-.07-.4-.2-.03.07-8.33-4.22.03-.07-.49-.25-.03.07-.67-.34.03-.44,43.18,21.84ZM262.36,220.42l-.03.45-59.89,19.1s-.01,0-.01,0l-2.13.68s0,0,0,0l-99.59,31.76-.54-.29,162.2-51.71Z"/>
      <path d="M268.64,252.09s0-.01,0-.02l-.04-.09s0-.02-.01-.03l-.05-.08s0-.01-.01-.02l-.05-.05s0,0-.01-.01l-.07-.06s-.02-.01-.02-.02l-.06-.04s0,0-.01,0l-4.24-2.25h0s0,0-.01,0l-.07-.03s0,0-.01,0l-.07-.02s-.02,0-.03,0h-.07s-.01-.01-.02-.01h-.08s-.02,0-.04,0h-.01s-.07.01-.07.01c0,0,0,0-.01,0h-.05s0,.02-.01.02l-4.72,1.53s-.01,0-.02,0l-.07.03s-.02.01-.03.02l-.14.1s-.02.01-.02.02l-.06.07s-.01.02-.02.02l-.06.09s0,0,0,.01l-.27.53-.52-.28h0s0,0-.01,0l-.07-.03s0,0-.01,0l-.07-.02s-.02,0-.03,0h-.07s-.01-.01-.02-.01h-.08s-.02,0-.03,0h-.01s-.07.01-.07.01c0,0,0,0,0,0h0s0,0,0,0h-.05s0,.02-.01.02l-.74.24-.26-.78s0-.01,0-.02l-.04-.09s0-.02-.01-.03l-.05-.08s0-.01-.01-.02l-.05-.05s0,0-.01-.01l-.07-.06s-.02-.01-.02-.02l-.06-.04s0,0-.01,0l-4.23-2.25h0s0,0-.01,0l-.07-.03s0,0-.01,0l-.07-.02s-.02,0-.03,0h-.07s-.01-.01-.02-.01h-.08s-.02,0-.04,0h-.02s-.06.01-.06.01c0,0-.02,0-.02,0h-.05s0,.02-.01.02l-4.73,1.53s-.01,0-.01,0l-.07.03s-.02.01-.03.02l-.14.1s-.02.01-.02.02l-.06.07s-.01.02-.02.02l-.06.09s0,0,0,.01l-.7,1.4c-.04.09,0,.19.08.24l4.3,2.21-3.62,1.17s-.01,0-.01,0l-.07.03s-.02.01-.03.02l-.14.1s-.02.01-.02.02l-.06.07s-.01.02-.02.02l-.06.09s0,0,0,.01l-.69,1.38c-.04.09,0,.19.08.24l4.99,2.57s.02,0,.03.01l.17.05s.04,0,.05,0c0,0,.01,0,.02,0l.16-.02s.03,0,.04,0l18.81-6.1s.08-.05.1-.09c.02-.04.03-.09,0-.14l-.43-1.29ZM257.09,251.82l.11-.02h.09s.1.05.1.05l4.22,2.24.04.03.05.05.03.04.04.06.03.07.37,1.11-6.17,2-.38-1.12s0-.01,0-.02l-.04-.09s0-.02-.01-.03l-.06-.08s0-.01-.01-.02l-.05-.05s0,0-.01-.01l-.07-.06s-.02-.01-.02-.02l-.06-.04s0,0-.01,0l-3.4-1.81.25-.49.06-.1.04-.05.1-.07,4.76-1.55ZM245.38,251.5l.6-1.19.06-.1.04-.05.1-.07.04-.02,4.72-1.52.11-.02h.09s.1.05.1.05l4.21,2.24.04.03.05.05.03.04.04.06.03.07.26.77-3.66,1.18s-.01,0-.02,0l-.07.03s-.02.01-.03.02l-.14.1s-.02.01-.02.02l-.06.07s-.01.02-.02.02l-.06.09s0,0,0,.01l-.27.53-.52-.28h0s0,0-.01,0l-.07-.03s0,0-.01,0l-.07-.02s-.02,0-.03,0h-.07s-.01-.01-.02-.01h-.08s-.02,0-.04,0h-.03s-.05.01-.05.01c0,0-.01,0-.02,0h-.05s0,.02-.01.02l-.64.21-4.45-2.29ZM250.06,259.36h-.11s-.12-.03-.12-.03l-4.82-2.48.58-1.17.06-.1.04-.05.1-.07,4.77-1.55.11-.02h.09s.1.05.1.05l4.22,2.25.04.03.05.05.03.04.04.06.03.07.37,1.11-5.61,1.82ZM262.52,255.32l-.38-1.12s0-.01,0-.02l-.04-.09s0-.02-.01-.03l-.05-.08s0-.01-.01-.02l-.05-.05s0,0-.01-.01l-.07-.06s-.01-.01-.02-.02l-.06-.04s0,0-.01,0l-3.4-1.81.25-.49.06-.1.04-.05.1-.07.04-.02,4.71-1.52.11-.02h.09s.1.05.1.05l4.22,2.24.04.03.05.05.03.04.04.06.03.07.37,1.11-6.16,2Z"/>
      <path d="M211.5,240.01l5.63,2.89s.03.01.05.02l.09.02s.02,0,.03,0c.01,0,.02,0,.03,0l.14-.03s.02,0,.02,0l18.7-5.99c.09-.03.14-.12.12-.21l-.39-1.55s0-.01,0-.02l-.03-.09s0-.02-.01-.03l-.05-.08s0,0,0-.01l-.04-.06s-.01-.02-.02-.02l-.06-.06s0,0-.01-.01l-.06-.05s0,0-.01,0l-3.12-2.21s-.01,0-.01,0l-.98-.69s0,0-.01,0l-.07-.04s-.02-.01-.03-.01l-.15-.05s-.02,0-.04,0h-.07s0,0-.01,0h-.07s-.02,0-.03,0l-.07.02s-.01,0-.02,0l-4.72,1.51s-.01,0-.02,0l-.07.03s0,0-.01,0l-.08.04s-.02.01-.03.02l-.14.11s-.02.01-.02.02l-.06.08s0,.01-.01.02l-.39.6-.37-.27s0,0-.01,0l-.07-.04s-.02-.01-.03-.01l-.07-.02s0,0-.01,0l-.07-.02s-.02,0-.04,0h-.07s0,0-.01,0h-.07s-.02,0-.04,0l-.07.02s-.01,0-.02,0l-4.73,1.51s-.01,0-.02,0l-.07.03s0,0-.01,0l-.08.04s-.02.01-.03.02l-.14.11s-.02.01-.02.02l-.06.08s0,.01-.01.02l-.39.6-.38-.27s0,0-.01,0l-.07-.04s-.02-.01-.03-.01l-.07-.02s0,0-.01,0l-.07-.02s-.02,0-.04,0h-.07s0,0-.01,0h-.07s-.02,0-.04,0l-.07.02s-.01,0-.02,0l-4.74,1.51s-.01,0-.02,0l-.07.03s0,0-.01,0l-.08.04s-.02.01-.03.02l-.14.11s-.02.01-.02.02l-.06.08s0,.01-.01.02l-1.33,2.06s-.04.09-.02.14c.01.05.05.09.09.11ZM226.06,233.74l.05-.06.1-.08.06-.03,4.76-1.52h.05s.05-.01.05-.01h.05s.09.03.09.03l.95.66.07.05s.01,0,.01.01l3.11,2.2.09.08.07.1.03.07.35,1.38-6.15,1.97-.35-1.37s0-.01,0-.02l-.04-.09s0-.02-.01-.03l-.05-.08s0,0,0-.01l-.04-.06s-.01-.02-.02-.02l-.06-.06s0,0-.01-.01l-.06-.05s0,0-.01,0l-3.44-2.44.39-.6ZM219.56,235.82l.05-.06.1-.08.06-.03,4.77-1.53h.05s.05-.01.05-.01h.05s.09.03.09.03l4.14,2.93.09.09.07.1.03.07.35,1.38-6.16,1.97-.35-1.37s0-.01,0-.02l-.04-.09s0-.02-.01-.03l-.05-.08s0,0,0-.01l-.04-.06s-.01-.02-.02-.02l-.06-.06s0,0-.01-.01l-.06-.05s0,0-.01,0l-3.44-2.44.39-.6ZM213.05,237.89l.05-.06.1-.08,4.84-1.56h.05s.05-.01.05-.01h.05s.09.03.09.03l4.14,2.93.09.09.07.1.03.07.35,1.38-5.54,1.77-.1.02h-.03s-5.43-2.8-5.43-2.8l1.21-1.89Z"/>
      <path d="M234.49,238.02l-.07.03s-.02.01-.03.02l-.14.1s-.02.01-.02.02l-.06.07s-.01.02-.02.02l-.03.05-.3.58-.52-.28s-.01,0-.02,0h0s0,0,0,0h0s-.06-.03-.06-.03c0,0,0,0-.01,0l-.07-.02s-.02,0-.03,0h-.07s-.01-.01-.02-.01h-.08s0,0,0,0c-.01,0-.02,0-.04,0l-.15.03s0,0-.01,0l-4.72,1.51s-.01,0-.02,0l-.07.03s-.02.01-.03.02l-.14.1s-.02.01-.02.02l-.06.07s-.01.02-.02.02l-.03.05-.3.58-.53-.28s0,0-.01,0l-.07-.03s0,0-.01,0l-.06-.02h0s0,0,0,0h0s-.02,0-.03,0h-.07s-.01-.01-.02-.01h-.07s-.03,0-.04,0h-.06s0,.01-.01.01l-.07.02s0,0-.01,0l-4.74,1.52s-.01,0-.02,0l-.07.03s-.02.01-.03.02l-.14.1s-.02.01-.02.02l-.06.07s-.01.01-.02.02l-.03.05-.9,1.79c-.04.09,0,.19.08.24l11.18,5.75s.01,0,.02,0l.2.07s.04.01.06.01c0,0,0,0,.01,0h.17s.03-.01.04-.02l18.91-6.09s.08-.05.11-.09c.02-.04.03-.09,0-.14l-.53-1.58s0-.01,0-.02l-.04-.09s0-.02-.01-.03l-.05-.08s0-.01-.01-.02l-.05-.05s0,0-.01-.01l-.07-.06s-.02-.01-.02-.02l-.06-.04s0,0-.01,0l-4.21-2.23s-.01,0-.02,0l-.07-.03s0,0-.01,0l-.07-.02s-.02,0-.03,0h-.07s-.01-.01-.02-.01h-.07s-.03,0-.04,0h-.06s0,.01,0,.01l-.07.02s0,0-.01,0l-.73.23-.26-.77s0-.01,0-.02l-.04-.09s0-.02-.01-.03l-.05-.08s0-.01-.01-.02l-.05-.05s0,0-.01-.01l-.07-.06s-.01-.01-.02-.02l-.06-.04s0,0-.01,0l-4.2-2.23s0,0-.01,0h0s0,0,0,0h0s-.06-.03-.06-.03c0,0,0,0-.01,0l-.07-.02s-.02,0-.03,0h-.07s-.01-.01-.02-.01h-.08s0,0,0,0h0s-.02,0-.04,0h-.06s0,.01,0,.01l-.08.02s0,0-.01,0l-4.72,1.51s0,0-.01,0ZM227.87,240.67l.06-.1.04-.05.1-.07,4.76-1.53.1-.02h.05s.04,0,.04,0l.06.02,4.22,2.24.04.03.05.05.03.04.04.06.03.07.26.76-3.66,1.18s-.01,0-.02,0l-.07.03s-.02.01-.03.02l-.14.1s-.02.01-.02.02l-.06.07s-.01.02-.02.02l-.06.09s0,0,0,.01l-.27.53-.52-.28s-.01,0-.02,0l-.07-.03s0,0-.01,0l-.07-.02s-.02,0-.03,0h-.07s-.01-.01-.02-.01h-.08s0,0,0,0h0s-.02,0-.03,0h-.06s0,.01,0,.01h0s0,0-.01,0h-.05s0,.02-.01.02l-.73.23-.26-.77s0-.01,0-.02l-.04-.09s0-.02-.01-.03l-.05-.08s0-.01-.01-.02l-.05-.05s0,0-.01-.01l-.07-.06s-.01-.01-.02-.02l-.06-.04s0,0-.01,0l-3.36-1.79.24-.49ZM239.04,242.15h.05s.04,0,.04,0l.06.02,4.23,2.24.04.03.05.05.03.04.04.06.03.07.47,1.4-6.16,1.98-.48-1.42s0-.01,0-.02l-.04-.09s0-.02-.01-.03l-.06-.08s0-.01-.01-.02l-.05-.05s0,0-.01-.01l-.07-.06s-.01-.01-.02-.02l-.06-.04s0,0-.01,0l-3.37-1.79.24-.49.06-.1.04-.05.1-.07,4.76-1.53.1-.02ZM221.35,242.76l.06-.1.04-.05.1-.07,4.77-1.53.1-.02h.05s.04,0,.04,0l.07.02,4.22,2.24.04.03.05.05.07.1.03.07.26.76-3.67,1.18s-.01,0-.02,0l-.07.03s-.02.01-.03.02l-.14.1s-.02.01-.02.02l-.06.07s-.01.01-.02.02l-.03.05-.77,1.53-5.83-3,.76-1.53ZM231.87,250h-.11s-.15-.05-.15-.05l-4.87-2.5.72-1.44.06-.1.04-.05.1-.07,4.77-1.54.11-.02h.05s.04,0,.04,0l.06.02,4.23,2.25.04.03.05.05.07.1.03.07.47,1.41-5.72,1.84ZM245.43,240.09l.1-.02h.05s.04,0,.04,0l.1.04,4.19,2.22.04.03.05.05.03.04.04.06.03.07.47,1.4-6.15,1.98-.48-1.42s0-.01,0-.02l-.04-.09s0-.02-.01-.03l-.05-.08s0-.01-.01-.02l-.05-.05s0,0-.01-.01l-.07-.06s-.02-.01-.02-.02l-.06-.04s0,0-.01,0l-3.37-1.79.24-.49.06-.1.04-.05.1-.07,4.75-1.53ZM239.33,236.85l.1-.02h.05s.04,0,.04,0l.1.04,4.18,2.22.04.03.05.05.03.04.04.06.03.07.25.76-3.65,1.17s-.01,0-.01,0l-.07.03s-.02.01-.03.02l-.14.1s-.02.01-.02.02l-.06.07s-.01.02-.02.02l-.06.08s0,0,0,.01l-.27.53-.52-.28s-.01,0-.02,0l-.07-.03s0,0-.01,0l-.07-.02s-.02,0-.03,0h-.07s-.01-.01-.02-.01h-.08s0,0,0,0c-.01,0-.02,0-.04,0h-.06s0,.01-.01.01l-.07.02s0,0-.01,0l-.73.23-.26-.77s0-.01,0-.02l-.04-.09s0-.02-.01-.03l-.05-.08s0-.01-.01-.02l-.05-.05s0,0-.01-.01l-.07-.06s-.02-.01-.02-.02l-.06-.04s0,0-.01,0l-3.36-1.79.24-.49.06-.1.04-.05.1-.07,4.75-1.53Z"/>
      <path d="M298.39,243.69l-.6-1.82s0-.01,0-.02l-.04-.09s0-.02-.02-.03l-.05-.08s-.01-.02-.02-.02l-.12-.12s-.02-.02-.03-.02l-.06-.04s-.01,0-.02,0l-10.33-4.72-.06-.02s-.01,0-.02,0l-.08-.02s-.02,0-.04,0h-.16s-.02,0-.04,0l-.08.02s-.01,0-.02,0l-.66.21-.5-1.51s0-.01,0-.02l-.04-.09s0-.02-.02-.03l-.05-.08s-.01-.02-.02-.02l-.12-.12s-.02-.02-.03-.02l-.06-.04s-.01,0-.02,0l-10.28-4.7-.06-.02s-.01,0-.02,0l-.08-.02s-.02,0-.04,0h-.16s-.02,0-.04,0h-.08s-.01.02-.02.02l-.76.24-.26-.78s0-.01,0-.02l-.04-.09s0-.02-.01-.03l-.05-.08s0-.01-.01-.02l-.05-.05s0,0-.01-.01l-.07-.06s-.02-.01-.02-.02l-.06-.04s0,0-.01,0l-4.2-2.21h0s0,0-.01,0l-.14-.05s-.02,0-.03,0h0s-.07-.01-.07-.01c0,0-.01,0-.02,0h-.08s-.02,0-.04,0l-.15.03s0,0-.01,0l-4.68,1.5s-.01,0-.02,0l-.07.03s-.02.01-.03.02l-.14.1s-.02.01-.02.02l-.06.07s-.01.02-.02.02l-.06.08s0,0,0,.01l-.26.52-.52-.27s0,0-.01,0l-.07-.03s0,0-.01,0l-.07-.02s-.02,0-.03,0h-.07s-.01-.01-.02-.01h-.08s-.02,0-.04,0l-.15.03s0,0-.01,0l-4.69,1.5s0,0-.01,0l-.07.03s-.02.01-.03.02l-.14.1s-.02.01-.02.02l-.06.07s-.01.02-.02.02l-.06.08s0,0,0,.01l-.26.52-.52-.27s0,0-.02,0l-.07-.03s0,0-.01,0l-.07-.02s-.02,0-.03,0h-.07s-.01-.01-.02-.01h-.07s-.03,0-.04,0h-.06s0,.01,0,.01l-.08.02s0,0-.01,0l-4.7,1.5s-.01,0-.02,0l-.07.03s-.02.01-.03.02l-.14.1s-.02.01-.02.02l-.06.07s-.01.02-.02.02l-.05.08s0,0,0,.01l-.26.52-.52-.27s0,0-.01,0l-.07-.03s0,0-.01,0l-.07-.02s-.02,0-.03,0h-.07s-.01-.01-.02-.01h-.08s-.02,0-.04,0l-.15.03s0,0-.01,0l-4.71,1.51s-.01,0-.02,0l-.07.03s-.02.01-.03.02l-.14.1s-.02.01-.02.02l-.06.07s-.01.02-.02.02l-.06.08s0,0,0,.01l-.91,1.81c-.04.09,0,.19.08.24l29.66,15.15s.02,0,.03.01l.17.05s.03,0,.05,0c0,0,.01,0,.02,0l.17-.02s.02,0,.04,0l26.67-8.65-.11-.34-1.18.38ZM286.65,237.03l.1-.02h.1s.05.02.05.02l10.36,4.73.04.02.08.08.04.05.03.07.6,1.81-6.18,2-.36-1.07s0-.01,0-.02l-.04-.09s0-.02-.01-.03l-.05-.08s0-.01-.01-.02l-.05-.05s0,0-.01-.01l-.07-.06s-.02-.01-.02-.02l-.06-.04s0,0-.01,0l-4.24-2.23h0s0,0-.01,0l-.07-.03s0,0-.01,0l-.06-.02s-.02,0-.03,0h-.07s-.01-.01-.02-.01h-.08s-.02,0-.04,0h0s0,0,0,0h-.07s-.02.02-.02.02h-.05s0,.02-.01.02l-.76.25-.27-.8s0-.01,0-.02l-.04-.09s0-.02-.01-.03l-.05-.08s0-.01-.01-.02l-.05-.05s0,0-.01-.01l-.07-.06s-.02-.01-.02-.02l-.06-.04s0,0-.01,0l-3.46-1.82.22-.45.06-.1.04-.05.09-.07,4.71-1.53ZM280.6,244.11h0s0,0-.01,0l-.07-.03s0,0-.01,0l-.07-.02s-.02,0-.03,0h-.07s-.01-.01-.02-.01h-.08s-.02,0-.04,0h0s0,0,0,0h-.08s-.01.02-.02.02h-.05s0,.02-.01.02l-.9.29-.27-.8s0-.01,0-.02l-.04-.09s0-.02-.01-.03l-.05-.08s0-.01-.01-.02l-.05-.05s0,0-.01-.01l-.07-.06s-.02-.01-.02-.02l-.06-.04s0,0-.01,0l-3.4-1.79.24-.48.06-.1.04-.05.1-.07,4.72-1.53h.04s.01-.01.01-.01h.05s.09,0,.09,0l.1.04,4.22,2.22.04.03.08.08.04.06.03.07.26.79-3.59,1.16s-.01,0-.02,0l-.07.03s-.02.01-.03.02l-.14.1s-.02.01-.02.02l-.06.07s-.01.02-.02.02l-.06.08s0,0,0,.01l-.22.43-.43-.22ZM255.06,236.77l.1-.02h.09s.1.05.1.05l4.19,2.22.04.03.05.05.03.04.04.06.03.07.26.78-3.61,1.16s-.01,0-.02,0l-.07.03s-.02.01-.03.02l-.14.1s-.02.01-.02.02l-.06.07s-.01.02-.02.02l-.06.08s0,0,0,.01l-.73,1.46-5.87-3,.75-1.5.06-.1.04-.05.1-.07,4.74-1.53ZM261.52,234.69l.1-.02h.09s.1.05.1.05l4.19,2.21.04.03.05.05.03.04.04.06.03.07.26.78-3.6,1.16s-.01,0-.02,0l-.07.03s-.02.01-.03.02l-.14.1s-.02.01-.02.02l-.06.07s-.01.02-.02.02l-.06.08s0,0,0,.01l-.26.52-.52-.27h0s0,0-.01,0l-.07-.03s0,0-.01,0l-.07-.02s-.02,0-.03,0h-.07s-.01-.01-.02-.01h-.08s-.02,0-.03,0h0s0,0,0,0h0s-.08.01-.08.01h0s-.07.02-.07.02c0,0,0,0-.01,0l-.75.24-.27-.79s0-.01,0-.02l-.04-.09s0-.02-.01-.03l-.05-.08s0-.01-.01-.02l-.05-.05s0,0-.01-.01l-.07-.06s-.02-.01-.02-.02l-.06-.04s0,0-.01,0l-3.38-1.79.24-.48.06-.1.04-.05.1-.07,4.73-1.52ZM267.97,232.62l.1-.02h.09s.1.05.1.05l4.2,2.21.04.03.08.08.04.06.03.07.26.78-3.59,1.16s-.01,0-.02,0l-.07.03s-.02.01-.03.02l-.14.1s-.02.01-.02.02l-.06.07s-.01.02-.02.02l-.06.08s0,0,0,.01l-.26.52-.52-.27h0s0,0-.01,0l-.07-.03s0,0-.01,0l-.07-.02s-.02,0-.03,0h-.07s-.01-.01-.02-.01h-.08s-.02,0-.04,0h0s0,0,0,0h-.08s0,.02,0,.02h-.07s0,.02-.01.02l-.75.24-.27-.79s0-.01,0-.02l-.04-.09s0-.02-.01-.03l-.05-.08s0-.01-.01-.02l-.05-.05s0,0-.01-.01l-.07-.06s-.02-.01-.02-.02l-.06-.04s0,0-.01,0l-3.38-1.78.24-.48.06-.1.04-.05.1-.07,4.72-1.52ZM274.22,235.84h.09s.1.05.1.05l4.21,2.21.04.03.05.05.03.04.04.06.03.07.26.78-3.59,1.16s-.01,0-.01,0l-.07.03s-.02.01-.03.02l-.14.1s-.02.01-.02.02l-.06.07s-.01.02-.02.02l-.06.08s0,0,0,.01l-.26.52-.51-.27h0s0,0-.01,0l-.07-.03s0,0-.01,0l-.06-.02s-.02,0-.03,0h-.07s-.01-.01-.02-.01h-.08s-.02,0-.04,0h0s-.07.01-.07.01c0,0-.02,0-.02,0h-.05s0,.02-.01.02l-.76.24-.27-.8s0-.01,0-.02l-.04-.09s0-.02-.01-.03l-.05-.08s0-.01-.01-.02l-.05-.05s0,0-.01-.01l-.07-.06s-.02-.01-.02-.02l-.06-.04s0,0-.01,0l-3.39-1.79.24-.48.06-.1.04-.05.1-.07,4.72-1.52.1-.02ZM268.61,242.73l-.26.52-.52-.27h0s0,0-.01,0l-.07-.03s0,0-.01,0l-.07-.02s-.02,0-.03,0h-.07s-.01-.01-.02-.01h-.08s-.02,0-.03,0h0s0,0,0,0h-.07s-.02.02-.02.02h-.05s0,.02-.01.02l-.76.24-.27-.8s0-.01,0-.02l-.04-.09s0-.02-.01-.03l-.05-.08s0-.01-.01-.02l-.05-.05s0,0-.01-.01l-.07-.06s-.02-.01-.02-.02l-.06-.04s0,0-.01,0l-3.39-1.79.24-.48.06-.1.04-.05.1-.07,4.73-1.53.1-.02h.09s.1.05.1.05l4.21,2.22.04.03.05.05.03.04.04.06.03.07.26.78-3.6,1.16s-.01,0-.01,0l-.07.03s-.02.01-.03.02l-.14.1s-.02.01-.02.02l-.06.07s-.01.02-.02.02l-.06.08s0,0,0,.01ZM256.27,241.76l.06-.1.04-.05.1-.07,4.74-1.53.1-.02h.09s.1.05.1.05l4.2,2.22.04.03.05.05.03.04.04.06.03.07.26.78-3.61,1.17s-.01,0-.02,0l-.07.03s-.02.01-.03.02l-.14.1s-.02.01-.02.02l-.06.07s-.01.02-.02.02l-.06.08s0,0,0,.01l-.69,1.37-5.89-3.01.71-1.41ZM262.43,245.02l.06-.1.04-.05.1-.07,4.74-1.53h.04s.01-.01.01-.01h.05s.09,0,.09,0l.1.04,4.21,2.23.04.03.05.05.03.04.04.06.03.07.26.79-3.61,1.17s-.01,0-.02,0l-.07.03s-.02.01-.03.02l-.14.1s-.02.01-.02.02l-.06.07s-.01.02-.02.02l-.06.08s0,0,0,.01l-.64,1.28-5.9-3.02.66-1.32ZM272.68,246.44l-.27-.8s0-.01,0-.02l-.04-.09s0-.02-.01-.03l-.05-.08s0-.01-.01-.02l-.05-.05s0,0-.01-.01l-.07-.06s-.02-.01-.02-.02l-.06-.04s0,0-.01,0l-3.4-1.8.24-.48.06-.1.04-.05.1-.07,4.73-1.53h.04s.01-.01.01-.01h.05s.09,0,.09,0l.1.04,4.22,2.22.04.03.05.05.03.04.04.06.03.07.26.79-6.12,1.98ZM281.54,244.11l.06-.1.04-.05.1-.07,4.72-1.53.11-.02h.09s.1.05.1.05l4.23,2.23.04.03.05.05.03.04.04.06.03.07.35,1.06-5.98,1.94-.36-1.07s0-.01,0-.02l-.04-.09s0-.02-.01-.03l-.05-.08s0-.01-.01-.02l-.05-.05s0,0-.01-.01l-.07-.06s-.02-.01-.02-.02l-.06-.04s0,0-.01,0l-3.5-1.85.2-.39ZM274.35,230.57l.1-.02h.1s.05.02.05.02l10.31,4.71.04.02.08.08.04.05.03.07.5,1.5-3.74,1.21s0,0-.01,0l-.07.03s-.02.01-.03.02l-.14.1s-.02.01-.02.02l-.06.07s-.01.01-.02.02l-.06.09s0,0,0,.01l-.25.49-.46-.24h0s0,0-.01,0l-.07-.03s0,0-.01,0l-.06-.02s-.02,0-.03,0h-.07s-.01-.01-.02-.01h-.08s-.02,0-.04,0h0s0,0,0,0h-.07s-.02.02-.02.02h-.06s0,.02-.01.02l-.76.24-.27-.79s0-.01,0-.02l-.04-.09s0-.02-.01-.03l-.05-.08s0-.01-.01-.02l-.05-.05s0,0-.01-.01l-.07-.06s-.02-.01-.02-.02l-.06-.04s0,0-.01,0l-4.22-2.22h0s0,0-.01,0l-.07-.03s0,0-.01,0l-.07-.02s-.02,0-.03,0h-.07s-.01-.01-.02-.01h-.08s-.02,0-.04,0h-.07s0,.01,0,.01l-.08.02s0,0-.01,0l-.76.24-.26-.79s0-.01,0-.02l-.04-.09s0-.02-.01-.03l-.05-.08s0-.01-.01-.02l-.05-.05s0,0-.01-.01l-.07-.06s-.02-.01-.02-.02l-.06-.04s0,0-.01,0l-3.42-1.8.22-.44.06-.1.04-.05.09-.07,4.71-1.52ZM263.36,229.06l.06-.1.04-.05.1-.07.04-.02,4.66-1.49.1-.02h.1s.1.05.1.05l4.19,2.2.04.03.08.08.04.06.03.07.26.77-3.63,1.16s0,0-.01,0l-.07.03s-.02.01-.03.02l-.14.1s-.02.01-.02.02l-.06.07s-.01.01-.02.02l-.03.05-.28.54-.48-.25h0s0,0-.01,0l-.07-.03s0,0-.01,0l-.07-.02s-.02,0-.03,0h-.07s-.01-.01-.02-.01h-.08s-.02,0-.04,0h0s0,0,0,0h0s-.06.01-.06.01c0,0-.01,0-.02,0h0s0,0,0,0h-.07s0,.02-.01.02l-.75.24-.26-.79s0-.01,0-.02l-.04-.09s0-.02-.01-.03l-.05-.08s0-.01-.01-.02l-.05-.05s0,0-.01-.01l-.07-.06s-.02-.01-.02-.02l-.06-.04s0,0-.01,0l-3.37-1.78.24-.48ZM256.91,231.12l.06-.1.04-.05.1-.07.04-.02,4.67-1.5.1-.02h.09s.06.03.06.03l4.23,2.22.04.03.05.05.03.04.04.06.03.07.26.77-3.59,1.15s-.01,0-.02,0l-.07.03s-.02.01-.03.02l-.14.1s-.02.01-.02.02l-.06.07s-.01.02-.02.02l-.06.08s0,0,0,.01l-.26.52-.52-.27h0s0,0-.01,0l-.07-.03s0,0-.01,0l-.07-.02s-.02,0-.03,0h-.07s-.01-.01-.02-.01h-.08s-.02,0-.04,0h0s0,0,0,0h0s-.06.01-.06.01c0,0-.01,0-.02,0h0s0,0,0,0h-.07s0,.02-.01.02l-.75.24-.26-.79s0-.01,0-.02l-.04-.09s0-.02-.01-.03l-.05-.08s0-.01-.01-.02l-.05-.05s0,0-.01-.01l-.07-.06s-.02-.01-.02-.02l-.06-.04s0,0-.01,0l-3.37-1.78.24-.48ZM250.46,233.19l.06-.1.04-.05.1-.07.04-.02,4.68-1.5.1-.02h.05s.04,0,.04,0l.06.02,4.23,2.22.04.03.05.05.03.04.04.06.03.07.26.77-3.6,1.16s-.01,0-.02,0l-.07.03s-.02.01-.03.02l-.14.1s-.02.01-.02.02l-.06.07s-.01.02-.02.02l-.06.08s0,0,0,.01l-.26.52-.52-.27h0s0,0-.01,0l-.07-.03s0,0-.01,0l-.07-.02s-.02,0-.03,0h-.07s-.01-.01-.02-.01h-.08s-.02,0-.04,0h0s0,0,0,0h0s-.07.01-.07.01h0s-.08.02-.08.02c0,0,0,0-.01,0l-.75.24-.27-.79s0-.01,0-.02l-.04-.09s0-.02-.01-.03l-.05-.08s0-.01-.01-.02l-.05-.05s0,0-.01-.01l-.07-.06s-.02-.01-.02-.02l-.06-.04s0,0-.01,0l-3.37-1.78.24-.48ZM243.99,235.26l.06-.1.04-.05.1-.07.04-.02,4.69-1.5.1-.02h.05s.04,0,.04,0l.06.02,4.22,2.23.04.03.05.05.03.04.04.06.03.07.26.78-3.62,1.16s-.01,0-.02,0l-.07.03s-.02.01-.03.02l-.14.1s-.02.01-.02.02l-.06.07s-.01.02-.02.02l-.06.08s0,0,0,.01l-.78,1.55-5.86-2.99.8-1.6ZM272.92,251.95h-.12s-.12-.02-.12-.02l-4.69-2.4.62-1.23.06-.1.04-.05.1-.07,11.34-3.67.11-.02h.09s.1.05.1.05l4.23,2.23.04.03.05.05.03.04.04.06.03.07.35,1.06-12.3,3.99Z"/>
      <path d="M245.16,259.67s0-.01,0-.02l-.04-.09s0-.02-.01-.03l-.06-.08s0-.01-.01-.02l-.05-.05s0,0-.01-.01l-.07-.06s-.01-.01-.02-.02l-.06-.04s0,0-.01,0l-4.24-2.26s0,0-.02,0l-.07-.03s0,0-.01,0l-.07-.02s-.02,0-.03,0h-.07s-.01-.01-.02-.01h-.08s0,0,0,0c-.01,0-.02,0-.03,0l-.08.02s0,0-.01,0h-.05s0,.02-.01.02l-.52.17-.23-.68s0-.01,0-.02l-.04-.09s0-.02-.01-.03l-.06-.08s0-.01-.01-.02l-.05-.05s0,0-.01-.01l-.07-.06s-.01-.01-.02-.02l-.06-.04s0,0-.01,0l-4.23-2.26s0,0-.02,0l-.07-.03s0,0-.01,0l-.07-.02s-.02,0-.03,0h-.07s-.01-.01-.02-.01h-.07s-.03,0-.04,0h-.06s0,.01-.01.01c0,0-.01,0-.01,0h-.05s0,.02-.01.02l-.59.19-.24-.71s0-.01,0-.02l-.04-.09s0-.02-.01-.03l-.06-.08s0-.01-.01-.02l-.05-.05s0,0-.01-.01l-.07-.06s-.01-.01-.02-.02l-.06-.04s0,0-.01,0l-4.22-2.25h0s0,0-.02,0l-.07-.03s0,0-.01,0l-.07-.02s-.02,0-.03,0h-.07s-.01-.01-.02-.01h-.08s-.02,0-.03,0h0s0,0,0,0h0s-.08.01-.08.01h0s-.07.02-.07.02c0,0,0,0-.01,0l-.71.23-.26-.76s0-.01,0-.02l-.04-.09s0-.02-.01-.03l-.06-.08s0-.01-.01-.02l-.05-.05s0,0-.01-.01l-.07-.06s-.01-.01-.02-.02l-.06-.04s0,0-.01,0l-4.21-2.25h0s0,0-.01,0l-.07-.03s0,0-.01,0l-.07-.02s-.02,0-.03,0h-.07s-.01-.01-.02-.01h-.08s-.02,0-.04,0h0s0,0,0,0h-.08s0,.02,0,.02h-.07s0,.02-.01.02l-.72.23-.26-.76s0-.01,0-.02l-.04-.09s0-.02-.01-.03l-.06-.08s0-.01-.01-.02l-.05-.05s0,0-.01-.01l-.07-.06s-.01-.01-.02-.02l-.06-.04s0,0-.01,0l-4.2-2.24s0,0-.02,0l-.07-.03s0,0-.01,0l-.07-.02s-.02,0-.03,0h-.07s-.01-.01-.02-.01h-.08s0,0,0,0h0s-.02,0-.04,0l-.15.03s0,0-.01,0l-9.78,3.13s-.01,0-.01,0l-.07.03s-.02.01-.03.02l-.14.1s-.02.01-.02.02l-.06.07s-.01.01-.02.02l-.03.05-.24.47-.42-.23s0,0-.02,0l-.07-.03s0,0-.01,0l-.07-.02s-.03,0-.04,0h-.06s-.01-.01-.02-.01h-.07s-.03,0-.04,0h-.06s0,.01-.01.01l-.07.02s-.01,0-.02,0l-4.76,1.53s-.01,0-.02,0l-.07.03s-.02.01-.03.02l-.14.1s-.02.01-.02.02l-.06.07s-.01.01-.02.02l-.03.05-.28.55-.5-.27s-.01,0-.02,0l-.07-.03s0,0-.01,0l-.07-.02s-.02,0-.03,0h-.07s-.02-.01-.02-.01h-.07s-.03,0-.04,0h-.06s0,.01-.01.01l-.07.02s0,0-.01,0l-4.78,1.53s0,0-.01,0l-.07.03s-.02.01-.03.02l-.14.1s-.02.01-.02.02l-.06.07s-.01.01-.02.02l-.03.05-.28.56-.5-.27s0,0-.01,0l-.07-.03s-.01,0-.02,0l-.07-.02s-.02,0-.03,0h-.07s-.01-.01-.02-.01h-.08s0,0,0,0h0s-.02,0-.04,0h-.06s0,.01-.01.01l-.07.02s0,0-.01,0l-4.79,1.53s-.01,0-.02,0l-.07.03s-.02.01-.03.02l-.14.1s-.02.01-.02.02l-.06.07s-.01.01-.02.02l-.03.05-.28.56-.5-.27s-.01,0-.02,0l-.07-.03s0,0-.01,0l-.07-.02s-.02,0-.03,0h-.07s-.02-.01-.02-.01h-.08s-.02,0-.04,0l-.15.03s0,0-.01,0l-4.8,1.54s-.01,0-.02,0l-.07.03s-.02.01-.03.02l-.14.1s-.02.01-.02.02l-.06.07s-.01.01-.02.02l-.04.05-.28.56-.51-.27s0,0-.02,0l-.07-.03s-.01,0-.02,0l-.07-.02s-.02,0-.03,0h-.07s-.01-.01-.02-.01h-.08s0,0,0,0h0s0,0,0,0c-.01,0-.02,0-.03,0h-.06s0,.01-.01.01h0s0,0-.01,0h-.05s0,.02-.01.02l-4.81,1.54s-.01,0-.02,0l-.07.03s-.02.01-.03.02l-.14.1s-.02.01-.02.02l-.06.07s-.01.01-.02.02l-.04.05-.28.56-.51-.27s0,0-.01,0l-.07-.03s-.01,0-.02,0l-.07-.02s-.02,0-.03,0h-.07s-.01-.01-.02-.01h-.08s0,0,0,0c-.01,0-.02,0-.04,0h-.06s0,.01-.01.01l-.07.02s0,0-.01,0l-4.82,1.54s-.01,0-.01,0l-.07.03s-.02.01-.03.02l-.14.1s-.02.01-.02.02l-.06.07s-.01.01-.02.02l-.04.05-.29.56-.51-.28s0,0-.02,0l-.07-.03s-.01,0-.02,0l-.07-.02s-.02,0-.03,0h-.07s-.01-.01-.02-.01h-.08s0,0,0,0c-.01,0-.02,0-.03,0h-.06s0,.01-.01.01l-.07.02s0,0-.01,0l-4.83,1.55s0,0-.01,0l-.07.03s-.02.01-.03.02l-.14.1s-.02.01-.02.02l-.06.07s-.01.01-.02.02l-.08.13s0,0,0,.01l-.23.48-.51-.28s-.01,0-.02,0l-.07-.03s-.01,0-.02,0l-.07-.02s-.02,0-.03,0h-.07s-.02-.01-.02-.01h-.08s0,0,0,0c-.01,0-.02,0-.03,0h-.06s0,.01-.01.01l-.07.02s0,0-.01,0l-4.84,1.55s-.01,0-.02,0l-.07.03s-.02.01-.03.02l-.14.1s-.02.01-.02.02l-.06.07s-.01.01-.02.02l-.08.13s0,0,0,.01l-.24.48-.51-.28s-.01,0-.02,0l-.07-.03s-.01,0-.02,0l-.07-.02s-.02,0-.03,0h-.07s-.02-.01-.02-.01h-.08s0,0,0,0h0s0,0,0,0c-.01,0-.02,0-.03,0h-.06s-.01.01-.01.01l-.07.02s0,0-.01,0l-4.85,1.55s-.01,0-.01,0l-.07.03s-.02.01-.03.02l-.14.1s-.02.01-.02.02l-.06.07s-.01.01-.02.02l-.08.13s0,0,0,.01l-.24.48-.51-.28s-.01,0-.02,0l-.07-.03s-.01,0-.02,0l-.07-.02s-.02,0-.03,0h-.07s-.02-.01-.02-.01h-.08s0,0,0,0h0s-.02,0-.03,0h-.06s-.01.01-.02.01l-.07.02s0,0-.01,0l-4.86,1.56s0,0-.01,0l-.07.03s-.02.01-.03.02l-.14.1s-.02.01-.02.02l-.06.07s-.01.01-.02.02l-.08.13s0,0,0,.01l-.24.48-.51-.28s-.01,0-.02,0l-.07-.03s-.01,0-.02,0l-.07-.02s-.02,0-.03,0h-.07s-.02-.01-.02-.01h-.08s0,0,0,0h0s0,0,0,0c-.01,0-.02,0-.03,0h-.06s-.01.01-.02.01l-.07.02s0,0-.01,0l-4.87,1.56s0,0-.01,0l-.07.03s-.02.01-.03.02l-.14.1s-.02.01-.02.02l-.06.07s-.01.01-.02.02l-.08.13s0,0,0,.01l-.24.49-.52-.28s0,0-.01,0l-.07-.03s-.01,0-.02,0l-.07-.02s-.02,0-.03,0h-.07s-.02-.01-.02-.01h-.08s0,0,0,0c-.01,0-.02,0-.03,0h-.06s-.01.01-.02.01l-.07.02s0,0-.01,0l-4.88,1.56s-.01,0-.02,0l-.07.03s-.02.01-.03.02l-.14.1s-.02.01-.02.02l-.06.07s-.01.01-.02.02l-.08.13s0,0,0,.01l-.24.49-.52-.28s-.01,0-.02,0l-.07-.03s-.01,0-.02,0l-.07-.02s-.02,0-.03,0h-.07s-.02-.01-.02-.01h-.08s0,0,0,0c-.01,0-.02,0-.03,0h-.06s-.01.01-.02.01l-.07.02s0,0-.01,0l-4.89,1.57s0,0-.01,0l-.07.03s-.02.01-.03.02l-.14.1s-.02.01-.02.02l-.06.07s-.01.01-.02.02l-.08.14s0,0,0,.01l-.9,1.83c-.04.09,0,.19.08.24l25.61,13.6.08-.16-.07.16,3.57,1.9s.02,0,.03.01l.17.05s.04,0,.05,0c0,0,.01,0,.02,0l.18-.02s.02,0,.03,0l96.41-31.27s.08-.05.1-.09c.02-.04.03-.09,0-.14l-.44-1.32ZM234.2,254.03l.11-.02h.05s.04,0,.04,0l.1.04,4.21,2.25.04.03.05.05.03.04.04.06.03.07.23.67-7.03,2.28s-.01,0-.01,0l-.07.03s-.02.01-.03.02l-.14.1s-.02.01-.02.02l-.06.07s-.01.02-.02.02l-.06.09s0,0,0,.01l-.29.57-.55-.29s-.01,0-.02,0l-.07-.03s0,0-.01,0l-.07-.02s-.02,0-.03,0h-.07s-.01-.01-.02-.01h-.08s0,0,0,0c-.01,0-.02,0-.03,0l-.08.02s0,0-.01,0h-.05s0,.02-.01.02l-7.01,2.27-.23-.68s0-.01,0-.02l-.04-.09s0-.02-.01-.03l-.06-.08s0-.01-.01-.02l-.05-.05s0,0-.01-.01l-.07-.06s-.01-.01-.02-.02l-.06-.04s0,0-.01,0l-3.42-1.84.23-.46.06-.1.04-.05.1-.07,14.51-4.69ZM153.21,285.07s-.02,0-.02,0h-.08s0,0,0,0c-.01,0-.02,0-.03,0l-.15.03s0,0-.01,0l-8.11,2.62s0,0-.01,0l-.07.03s-.02.01-.03.02l-.14.1s-.02.01-.02.02l-.06.07s-.01.01-.02.02l-.09.14s0,0,0,.01l-.64,1.3-5.68-3.02.7-1.43.06-.1.04-.05.1-.07.05-.02,13.23-4.27.11-.02h.05s.05,0,.05,0h.05s4.25,2.34,4.25,2.34l.04.03.05.05.08.1.03.07.23.68-2.49.8s0,0-.01,0l-.07.03s-.02.01-.03.02l-.14.1s-.02.01-.02.02l-.06.07s-.01.01-.02.02l-.04.05-.28.56-.49-.27s0,0-.01,0l-.07-.03s-.01,0-.02,0l-.07-.02s-.02,0-.03,0h-.07ZM134.94,275.53h.04s.01-.01.01-.01h.06s.05,0,.05,0h.05s.05.02.05.02l4.23,2.31.04.03.05.05.08.1.03.07.26.75-7.06,2.27s0,0-.01,0l-.07.03s-.02.01-.03.02l-.14.1s-.02.01-.02.02l-.06.07s-.01.01-.02.02l-.08.13s0,0,0,.01l-.74,1.5-5.81-3.09.78-1.58.06-.1.04-.05.1-.07.05-.02,8.09-2.6ZM141.57,273.41l.11-.02h.05s.05,0,.05,0h.05s4.23,2.32,4.23,2.32l.04.03.05.05.08.1.03.07.26.75-1.95.63s0,0-.01,0l-.07.03s-.02.01-.03.02l-.14.1s-.02.01-.02.02l-.06.07s-.01.01-.02.02l-.08.14s0,0,0,.01l-.22.44-.47-.26s-.01,0-.02,0l-.07-.03s-.01,0-.02,0l-.07-.02s-.02,0-.03,0h-.07s-.02-.01-.02-.01h-.08s-.02,0-.03,0h0s0,0,0,0h-.08s-.01.02-.02.02h-.05s0,.01-.01.02l-2.62.84-.27-.77s0-.01,0-.02l-.04-.09s0-.02-.02-.03l-.06-.08s0,0-.01-.01l-.05-.05s-.01-.01-.02-.02l-.07-.06s-.01-.01-.02-.02l-.06-.04s0,0-.01,0l-3.38-1.85.24-.48.06-.1.04-.05.1-.07.05-.02,4.86-1.56ZM148.21,271.27h.04s.01-.01.01-.01h.06s.05,0,.05,0h.05s.05.02.05.02l4.23,2.31.04.03.05.05.08.1.03.07.26.75-1.94.63s-.01,0-.01,0l-.07.03s-.02.01-.03.02l-.14.1s-.02.01-.02.02l-.06.07s-.01.01-.02.02l-.08.13s0,0,0,.01l-.24.48-.51-.28s-.01,0-.02,0l-.07-.03s-.01,0-.02,0l-.07-.02s-.02,0-.03,0h-.07s-.02-.01-.02-.01h-.08s-.02,0-.03,0h0s-.07.01-.07.01c0,0-.01,0-.02,0h-.05s0,.02-.01.02l-2.58.83-.26-.77s0-.01,0-.02l-.04-.09s0-.02-.02-.03l-.06-.08s0,0-.01-.01l-.05-.05s-.01-.01-.02-.02l-.07-.06s-.01-.01-.02-.02l-.06-.04s0,0-.01,0l-3.37-1.84.24-.49.06-.1.04-.05.1-.07.05-.02,4.85-1.56ZM154.83,269.15l.11-.02h.05s.05,0,.05,0h.05s4.23,2.32,4.23,2.32l.04.03.05.05.08.1.03.07.26.75-1.94.62s-.01,0-.01,0l-.07.03s-.02.01-.03.02l-.14.1s-.02.01-.02.02l-.06.07s-.01.01-.02.02l-.08.13s0,0,0,.01l-.24.48-.51-.28s-.01,0-.02,0l-.07-.03s-.01,0-.02,0l-.07-.02s-.02,0-.03,0h-.07s-.02-.01-.02-.01h-.08s-.02,0-.03,0h0s-.08.01-.08.01c0,0-.02,0-.02,0h-.05s0,.01-.01.02l-2.58.83-.26-.77s0-.01,0-.02l-.04-.09s0-.02-.01-.03l-.06-.08s0-.01-.01-.01l-.05-.05s0-.01-.01-.02l-.07-.06s-.01-.01-.02-.02l-.06-.04s0,0-.01,0l-3.37-1.84.24-.49.06-.1.04-.05.1-.07.05-.02,4.84-1.55ZM161.44,267.02h.04s.01-.01.01-.01h.06s.05,0,.05,0h.05s.05.02.05.02l4.23,2.3.04.03.05.05.07.1.03.07.26.75-1.93.62s0,0-.01,0l-.07.03s-.02.01-.03.02l-.14.1s-.02.01-.02.02l-.06.07s-.01.01-.02.02l-.04.05-.29.57-.51-.28s0,0-.02,0l-.07-.03s-.01,0-.02,0l-.07-.02s-.02,0-.03,0h-.07s-.02-.01-.02-.01h-.08s-.02,0-.03,0h0s0,0,0,0h-.08s-.02.02-.02.02h-.05s0,.02-.01.02l-2.58.83-.26-.76s0-.01,0-.02l-.04-.09s0-.02-.01-.03l-.06-.08s0,0-.01-.01l-.05-.05s0-.01-.02-.02l-.07-.06s-.01-.01-.02-.02l-.06-.04s0,0-.01,0l-3.37-1.84.24-.49.06-.1.04-.05.1-.07.05-.02,4.83-1.55ZM168.04,264.91h.03s.01-.01.01-.01h.06s.05,0,.05,0h.04s.1.05.1.05l4.18,2.27.04.03.05.05.07.1.03.07.26.75-1.92.62s0,0-.01,0l-.07.03s-.02.01-.03.02l-.14.1s-.02.01-.02.02l-.06.07s-.01.01-.02.02l-.04.05-.29.57-.51-.28s-.01,0-.02,0l-.07-.03s-.01,0-.02,0l-.07-.02s-.02,0-.03,0h-.07s-.02-.01-.02-.01h-.08s-.02,0-.03,0h0s0,0,0,0h-.08s-.01.02-.02.02h-.05s0,.01-.01.02l-2.57.83-.26-.76s0-.01,0-.02l-.04-.09s0-.02-.01-.03l-.06-.08s0,0-.01-.01l-.05-.05s0-.01-.02-.02l-.07-.06s-.01-.01-.02-.02l-.06-.04s0,0-.01,0l-3.37-1.84.24-.48.06-.1.04-.05.1-.07.05-.02,4.82-1.55ZM174.63,262.79l.11-.02h.05s.04,0,.04,0l.1.04,4.18,2.27.04.03.05.05.07.1.03.07.26.75-1.91.62s-.01,0-.01,0l-.07.03s-.02.01-.03.02l-.05.03s-.01,0-.01,0l-.07.06s-.02.01-.02.02l-.06.07s-.01.01-.02.02l-.04.05-.29.57-.51-.27h0s0,0-.01,0l-.07-.03s-.01,0-.02,0l-.07-.02s-.02,0-.03,0h-.07s-.01-.01-.02-.01h-.08s-.02,0-.03,0h0s-.08.01-.08.01c0,0-.02,0-.02,0h-.05s0,.02-.01.02l-2.57.83-.26-.76s0-.01,0-.02l-.04-.09s0-.02-.01-.03l-.06-.08s0-.01-.01-.01l-.05-.05s0-.01-.01-.02l-.07-.06s-.01-.01-.02-.02l-.06-.04s0,0-.01,0l-3.38-1.83.24-.48.06-.1.04-.05.1-.07.05-.02,4.81-1.54ZM181.2,260.68l.11-.02h.05s.04,0,.04,0l.1.04,4.18,2.26.04.03.05.05.07.1.03.07.25.74-1.9.61s-.01,0-.01,0l-.07.03s-.02.01-.03.02l-.14.1s-.02.01-.02.02l-.06.07s-.01.01-.02.02l-.03.05-.29.57-.51-.27h0s0,0-.01,0l-.07-.03s0,0-.01,0l-.07-.02s-.02,0-.03,0h-.07s-.01-.01-.02-.01h-.08s-.02,0-.03,0h0s0,0,0,0h-.08s-.02.02-.02.02h-.05s0,.02-.01.02l-2.57.83-.26-.76s0-.01,0-.02l-.04-.09s0-.02-.01-.03l-.06-.08s0-.01-.01-.02l-.05-.05s0-.01-.01-.01l-.07-.06s-.01-.01-.02-.02l-.06-.04s0,0-.01,0l-3.38-1.83.24-.48.06-.1.04-.05.1-.07.05-.02,4.8-1.54ZM187.76,258.58l.11-.02h.05s.04,0,.04,0l.1.04,4.18,2.26.04.03.05.05.07.1.03.07.25.74-1.9.61s0,0-.01,0l-.07.03s-.02.01-.03.02l-.07.05s-.01,0-.01,0l-.06.04s-.02.01-.02.02l-.06.07s-.01.01-.02.02l-.03.05-.29.56-.5-.27h0s0,0-.01,0l-.07-.03s-.01,0-.02,0l-.07-.02s-.02,0-.03,0h-.07s-.01-.01-.02-.01h-.08s-.02,0-.03,0h0s-.08.01-.08.01c0,0-.02,0-.02,0h-.05s0,.02-.01.02l-2.57.83-.26-.76s0-.01,0-.02l-.04-.09s0-.02-.01-.03l-.06-.08s0-.01-.01-.02l-.05-.05s0-.01-.01-.01l-.07-.06s-.01-.01-.02-.02l-.06-.04s0,0-.01,0l-3.38-1.83.23-.47.06-.1.04-.05.1-.07.05-.02,4.79-1.54ZM194.3,256.48l.11-.02h.09s.1.05.1.05l4.18,2.25.04.03.05.05.07.1.03.07.25.74-1.89.61s-.01,0-.02,0l-.07.03s-.02.01-.03.02l-.14.1s-.02.01-.02.02l-.06.07s-.01.01-.02.02l-.03.05-.29.56-.5-.27h0s0,0-.01,0l-.07-.03s-.01,0-.02,0l-.07-.02s-.02,0-.03,0h-.07s-.01-.01-.02-.01h-.08s-.02,0-.03,0h0s-.08.01-.08.01c0,0-.02,0-.02,0h-.05s0,.02-.01.02l-2.57.83-.26-.76s0-.01,0-.02l-.04-.09s0-.02-.01-.03l-.06-.08s0-.01-.01-.02l-.05-.05s0-.01-.01-.01l-.07-.06s-.01-.01-.02-.02l-.06-.04s0,0-.01,0l-3.39-1.83.23-.47.06-.1.04-.05.1-.07,4.83-1.55ZM200.83,254.38l.11-.02h.09s.1.05.1.05l4.19,2.25.04.03.05.05.07.1.03.07.25.74-1.88.61s-.01,0-.01,0l-.07.03s-.02.01-.03.02l-.14.1s-.02.01-.02.02l-.06.07s-.01.01-.02.02l-.03.05-.29.56-.5-.27h0s0,0-.01,0l-.07-.03s0,0-.01,0l-.07-.02s-.02,0-.03,0h-.07s-.01-.01-.02-.01h-.08s-.02,0-.03,0h0s-.07.01-.07.01c0,0-.02,0-.02,0h-.05s0,.02-.01.02l-2.56.83-.26-.76s0-.01,0-.02l-.04-.09s0-.02-.01-.03l-.06-.08s0-.01-.01-.02l-.05-.05s0,0-.01-.01l-.07-.06s-.01-.01-.02-.02l-.06-.04s0,0-.01,0l-3.39-1.82.23-.47.06-.1.04-.05.1-.07,4.82-1.55ZM207.35,252.29l.11-.02h.09s.1.05.1.05l4.19,2.25.04.03.05.05.07.1.03.07.25.74-1.89.61s-.01,0-.01,0l-.07.03s-.02.01-.03.02l-.14.1s-.02.01-.02.02l-.06.07s-.01.01-.02.02l-.03.05-.28.55-.49-.26h0s0,0-.01,0l-.07-.03s0,0-.01,0l-.07-.02s-.02,0-.03,0h-.07s-.01-.01-.02-.01h-.08s-.02,0-.04,0h-.04s-.04.01-.04.01c0,0-.02,0-.02,0h-.05s0,.02-.01.02l-2.56.82-.26-.76s0-.01,0-.02l-.04-.09s0-.02-.01-.03l-.06-.08s0-.01-.01-.02l-.05-.05s0,0-.01-.01l-.07-.06s-.01-.01-.02-.02l-.06-.04s0,0-.01,0l-3.39-1.82.23-.47.06-.1.04-.05.1-.07.05-.02,4.76-1.53ZM213.86,250.2l.11-.02h.09s.1.05.1.05l4.19,2.24.04.03.05.05.07.1.03.07.25.74-1.81.58-.06.02s-.01,0-.02,0l-.07.03s-.02.01-.03.02l-.14.1s-.02.01-.02.02l-.06.07s-.01.01-.02.02l-.03.05-.29.57-.51-.27h0s0,0-.01,0l-.07-.03s0,0-.01,0l-.07-.02s-.02,0-.03,0h-.07s-.01-.01-.02-.01h-.08s-.02,0-.03,0h0s0,0,0,0h0s-.06.01-.06.01c0,0,0,0-.01,0h0s-.01,0-.01,0h-.05s0,.02-.01.02l-2.55.82-.26-.76s0-.01,0-.02l-.04-.09s0-.02-.01-.03l-.06-.08s0-.01-.01-.02l-.05-.05s0,0-.01-.01l-.07-.06s-.01-.01-.02-.02l-.06-.04s0,0-.01,0l-3.39-1.82.23-.46.06-.1.04-.05.1-.07.05-.02,4.75-1.53ZM221.94,262.99s0,0,0,.01l-.25.49-.48-.26h0s0,0-.01,0l-.07-.03s0,0-.01,0l-.07-.02s-.02,0-.03,0h-.07s-.01-.01-.02-.01h-.08s-.02,0-.03,0h0s0,0,0,0h-.08s0,.01,0,.02h0s0,0,0,0c0,0,0,0,0,0h-.05s0,.02-.01.02l-3.9,1.26-.23-.69s0-.01,0-.02l-.04-.09s0-.02-.01-.03l-.06-.08s0-.01-.01-.02l-.05-.05s0,0-.01-.01l-.07-.06s-.01-.01-.02-.02l-.06-.04s0,0-.01,0l-3.41-1.83.23-.47.06-.1.04-.05.1-.07.05-.02,4.77-1.54.11-.02h.05s.04,0,.04,0l.07.03,4.24,2.27.04.03.05.05.07.1.03.07.23.67-.57.19s-.01,0-.02,0l-.07.03s-.02.01-.03.02l-.14.1s-.02.01-.02.02l-.06.07s-.01.02-.02.02l-.06.09ZM212.31,266.08l-.28.54-.48-.26h0s0,0-.01,0l-.07-.03s0,0-.01,0l-.07-.02s-.02,0-.03,0h-.07s-.02-.01-.02-.01h-.08s-.02,0-.03,0h-.01s-.07.01-.07.01c0,0-.01,0-.01,0h-.05s0,.02-.01.02l-.78.25-.23-.69s0-.01,0-.02l-.04-.09s0-.02-.01-.03l-.06-.08s0-.01-.01-.02l-.05-.05s0,0-.01-.01l-.07-.06s-.01-.01-.02-.02l-.06-.04s0,0-.01,0l-3.41-1.84.23-.47.06-.1.04-.05.1-.07.05-.02,4.78-1.54.11-.02h.09s.1.05.1.05l4.21,2.26.04.03.05.05.07.1.03.07.23.67-3.7,1.2s-.01,0-.02,0l-.07.03s-.02.01-.03.02l-.14.1s-.02.01-.02.02l-.06.07s-.01.01-.02.02l-.03.05ZM202.32,269.81l-.53-.29h0s0,0-.01,0l-.07-.03s0,0-.02,0l-.07-.02s-.02,0-.03,0h-.07s-.02-.01-.02-.01h-.08s-.02,0-.03,0h0s-.08.02-.08.02c0,0,0,0-.01,0h-.05s0,.02-.01.02l-4.13,1.34-.23-.69s0-.01,0-.02l-.04-.09s0-.02-.01-.03l-.06-.08s0-.01-.01-.02l-.05-.05s0,0-.01-.01l-.07-.06s-.01-.01-.02-.02l-.06-.04s0,0-.01,0l-3.4-1.84.24-.48.06-.1.04-.05.1-.07.05-.02,4.8-1.55.11-.02h.05s.04,0,.04,0l.1.04,4.2,2.27.04.03.05.05.07.1.03.07.23.67-.3.1s-.01,0-.02,0l-.07.03s-.02.01-.03.02l-.14.1s-.02.01-.02.02l-.06.07s-.01.01-.02.02l-.03.05-.3.59ZM173.11,278.8s-.01,0-.02,0l-.07-.03s-.01,0-.02,0l-.07-.02s-.02,0-.03,0h-.07s-.02-.01-.02-.01h-.08s-.02,0-.03,0h0s0,0,0,0h-.08s0,.02-.01.02h-.05s0,.02-.01.02l-1.84.6-.24-.69s0-.01,0-.02l-.04-.09s0-.02-.01-.03l-.06-.08s0,0-.01-.01l-.05-.05s0-.01-.02-.02l-.07-.06s-.01-.01-.02-.02l-.06-.04s0,0-.01,0l-3.39-1.85.24-.48.06-.1.04-.05.1-.07.05-.02,4.83-1.56.11-.02h.05s.05,0,.05,0h.05s4.25,2.32,4.25,2.32l.04.03.05.05.08.1.03.07.23.67-2.58.83s-.01,0-.02,0l-.07.03s-.02.01-.03.02l-.14.1s-.02.01-.02.02l-.06.07s-.01.01-.02.02l-.03.05-.32.64-.57-.31ZM163.31,281.97s0,0-.02,0l-.07-.03s-.01,0-.02,0l-.07-.02s-.02,0-.03,0h-.07s-.02-.01-.02-.01h-.08s0,0,0,0c-.01,0-.02,0-.03,0l-.09.02s0,0,0,0h-.05s0,.01-.01.02l-5.26,1.7-.24-.69s0-.01,0-.02l-.04-.09s0-.02-.02-.03l-.06-.08s0,0-.01-.01l-.05-.05s-.01-.01-.02-.02l-.07-.06s-.01-.01-.02-.02l-.06-.04s0,0-.01,0l-3.42-1.87.23-.46.06-.1.04-.05.1-.07.05-.02,4.85-1.57.11-.02h.05s.05,0,.05,0h.05s4.25,2.33,4.25,2.33l.04.03.05.05.08.1.03.07.39,1.13-.09.18-.49-.27ZM152.4,280.11s-.02,0-.02,0h-.08s0,0,0,0h0s0,0,0,0c-.01,0-.02,0-.03,0l-.09.02s0,0-.01,0h-.05s0,.01-.01.02l-3.87,1.25-.25-.72s0-.01,0-.02l-.04-.09s0-.02-.01-.03l-.06-.08s0,0-.01-.01l-.05-.05s-.01-.01-.02-.02l-.07-.06s-.01-.01-.02-.02l-.06-.04s0,0-.01,0l-3.42-1.87.22-.45.06-.1.04-.05.1-.07,4.91-1.58.11-.02h.05s.05,0,.05,0h.05s4.24,2.33,4.24,2.33l.04.03.05.05.08.1.03.07.24.7-.65.21s-.01,0-.02,0l-.07.03s-.02.01-.03.02l-.14.1s-.02.01-.02.02l-.06.07s-.01.01-.02.02l-.08.13s0,0,0,.01l-.22.45-.48-.26s0,0-.02,0l-.07-.03s-.01,0-.02,0l-.07-.02s-.02,0-.03,0h-.07ZM156.17,273.98l.11-.02h.05s.05,0,.05,0h.05s4.24,2.32,4.24,2.32l.04.03.05.05.08.1.03.07.24.7-.65.21s-.01,0-.01,0l-.07.03s-.02.01-.03.02l-.14.1s-.02.01-.02.02l-.06.07s-.01.01-.02.02l-.04.05-.29.58-.51-.28s0,0-.01,0l-.07-.03s-.01,0-.02,0l-.07-.02s-.02,0-.03,0h-.07s-.02-.01-.02-.01h-.08s-.02,0-.03,0h0s-.08.01-.08.01c0,0-.01,0-.01,0h-.05s0,.01-.01.02l-3.88,1.25-.25-.72s0-.01,0-.02l-.04-.09s0-.02-.01-.03l-.06-.08s0,0-.01-.01l-.05-.05s-.01-.01-.02-.02l-.07-.06s-.01-.01-.02-.02l-.06-.04s0,0-.01,0l-3.38-1.85.24-.49.06-.1.04-.05.09-.07,4.9-1.59ZM162.79,271.85l.11-.02h.05s.05,0,.05,0h.05s4.24,2.32,4.24,2.32l.04.03.05.05.07.1.03.07.24.7-.64.21s-.01,0-.01,0l-.07.03s-.02.01-.03.02l-.14.1s-.02.01-.02.02l-.06.07s-.01.01-.02.02l-.04.05-.29.57-.51-.28s-.01,0-.02,0l-.07-.03s-.01,0-.02,0l-.07-.02s-.02,0-.03,0h-.07s-.02-.01-.02-.01h-.08s-.02,0-.03,0h0s-.08.01-.08.01c0,0-.01,0-.02,0h-.05s0,.02-.01.02l-3.87,1.25-.25-.72s0-.01,0-.02l-.04-.09s0-.02-.01-.03l-.06-.08s0,0-.01-.01l-.05-.05s0-.01-.02-.02l-.07-.06s-.01-.01-.02-.02l-.06-.04s0,0-.01,0l-3.38-1.85.24-.49.06-.1.04-.05.08-.06,4.9-1.59ZM169.4,269.72l.11-.02h.05s.05,0,.05,0h.05s4.24,2.32,4.24,2.32l.04.03.05.05.07.1.03.07.24.7-.64.21s-.01,0-.01,0l-.07.03s-.02.01-.03.02l-.14.1s-.02.01-.02.02l-.06.07s-.01.01-.02.02l-.04.05-.29.57-.51-.28s0,0-.02,0l-.07-.03s-.01,0-.02,0l-.07-.02s-.02,0-.03,0h-.07s-.02-.01-.02-.01h-.08s-.02,0-.03,0h0s0,0,0,0h-.08s-.01.02-.02.02h-.05s0,.02-.01.02l-3.87,1.25-.25-.71s0-.01,0-.02l-.04-.09s0-.02-.01-.03l-.06-.08s0,0-.01-.01l-.05-.05s0-.01-.02-.02l-.07-.06s-.01-.01-.02-.02l-.06-.04s0,0-.01,0l-3.38-1.84.24-.48.06-.1.04-.05.1-.07,4.88-1.57ZM176,267.6l.11-.02h.05s.04,0,.04,0l.11.04,4.19,2.27.04.03.05.05.07.1.03.07.24.7-.63.2s-.01,0-.01,0l-.07.03s-.02.01-.03.02l-.14.1s-.02.01-.02.02l-.06.07s-.01.01-.02.02l-.04.05-.29.57-.51-.28s0,0-.01,0l-.07-.03s-.01,0-.02,0l-.07-.02s-.02,0-.03,0h-.07s-.02-.01-.02-.01h-.08s-.02,0-.03,0h0s0,0,0,0h-.08s-.01.02-.02.02h-.05s0,.02-.01.02l-3.86,1.25-.24-.71s0-.01,0-.02l-.04-.09s0-.02-.01-.03l-.06-.08s0,0-.01-.01l-.05-.05s0-.01-.01-.02l-.07-.06s-.01-.01-.02-.02l-.06-.04s0,0-.01,0l-3.39-1.84.24-.48.06-.1.04-.05.1-.07,4.87-1.57ZM182.58,265.48l.11-.02h.05s.04,0,.04,0l.1.04,4.19,2.27.04.03.05.05.07.1.03.07.24.7-.63.2s-.01,0-.02,0l-.07.03s-.02.01-.03.02l-.14.1s-.02.01-.02.02l-.06.07s-.01.01-.02.02l-.03.05-.29.57-.5-.27h0s0,0-.01,0l-.07-.03s-.01,0-.02,0l-.07-.02s-.02,0-.03,0h-.07s-.01-.01-.02-.01h-.08s-.02,0-.03,0h0s-.08.01-.08.01c0,0-.01,0-.02,0h-.05s0,.02-.01.02l-3.86,1.24-.24-.71s0-.01,0-.02l-.04-.09s0-.02-.02-.03l-.06-.08s0-.01-.01-.01l-.05-.05s0-.01-.01-.02l-.07-.06s-.01-.01-.02-.02l-.06-.04s0,0-.01,0l-3.39-1.84.24-.48.06-.1.04-.05.1-.07,4.86-1.57ZM189.15,263.37l.11-.02h.05s.04,0,.04,0l.1.04,4.19,2.27.04.03.05.05.07.1.03.07.24.7-.62.2s-.01,0-.01,0l-.07.03s-.02.01-.03.02l-.14.1s-.02.01-.02.02l-.06.07s-.01.01-.02.02l-.03.05-.29.57-.5-.27h0s0,0-.01,0l-.07-.03s0,0-.01,0l-.07-.02s-.02,0-.03,0h-.07s-.01-.01-.02-.01h-.08s-.02,0-.03,0h-.03s-.05.01-.05.01c0,0-.01,0-.02,0h-.05s0,.02-.01.02l-3.85,1.24-.24-.71s0-.01,0-.02l-.04-.09s0-.02-.01-.03l-.06-.08s0-.01-.01-.02l-.05-.05s0-.01-.01-.01l-.07-.06s-.01-.01-.02-.02l-.06-.04s0,0-.01,0l-3.39-1.84.24-.48.06-.1.04-.05.1-.07,4.85-1.56ZM195.71,261.26l.11-.02h.05s.04,0,.04,0l.1.04,4.19,2.26.04.03.05.05.07.1.03.07.24.7-.62.2s-.01,0-.02,0l-.07.03s-.02.01-.03.02l-.14.1s-.02.01-.02.02l-.06.07s-.01.01-.02.02l-.03.05-.29.56-.5-.27h0s0,0-.01,0l-.07-.03s-.01,0-.02,0l-.07-.02s-.02,0-.03,0h-.07s-.01-.01-.02-.01h-.08s-.02,0-.03,0h0s-.08.01-.08.01c0,0-.01,0-.01,0h-.05s0,.02-.01.02l-3.85,1.24-.24-.71s0-.01,0-.02l-.04-.09s0-.02-.01-.03l-.06-.08s0-.01-.01-.02l-.05-.05s0,0-.01-.01l-.07-.06s-.01-.01-.02-.02l-.06-.04s0,0-.01,0l-3.39-1.83.23-.47.06-.1.04-.05.1-.07,4.84-1.56ZM202.25,259.15l.11-.02h.09s.1.05.1.05l4.19,2.26.04.03.05.05.07.1.03.07.24.69-.61.2s-.01,0-.02,0l-.07.03s-.02.01-.03.02l-.14.1s-.02.01-.02.02l-.06.07s-.01.01-.02.02l-.03.05-.29.56-.5-.27h0s0,0-.01,0l-.07-.03s0,0-.01,0l-.07-.02s-.02,0-.03,0h-.07s-.01-.01-.02-.01h-.08s-.02,0-.03,0h-.02s-.05.01-.05.01c0,0-.01,0-.02,0h-.05s0,.02-.01.02l-3.84,1.24-.24-.71s0-.01,0-.02l-.04-.09s0-.02-.01-.03l-.06-.08s0-.01-.01-.02l-.05-.05s0,0-.01-.01l-.07-.06s-.01-.01-.02-.02l-.06-.04s0,0-.01,0l-3.4-1.83.23-.47.06-.1.04-.05.1-.07,4.83-1.56ZM208.78,257.05h.04s.01-.01.01-.01h.06s.09,0,.09,0l.1.04,4.2,2.25.04.03.05.05.07.1.03.07.24.69-.61.2s-.01,0-.02,0l-.07.03s-.02.01-.03.02l-.14.1s-.02.01-.02.02l-.06.07s-.01.02-.02.02l-.03.05-.29.56-.5-.27h0s0,0-.01,0l-.07-.03s-.01,0-.02,0l-.06-.02s-.02,0-.03,0h-.07s-.01-.01-.02-.01h-.08s-.02,0-.03,0h0s0,0,0,0h-.08s-.01.02-.02.02h-.05s0,.02-.01.02l-3.84,1.24-.24-.71s0-.01,0-.02l-.04-.09s0-.02-.01-.03l-.06-.08s0-.01-.01-.02l-.05-.05s0,0-.01-.01l-.07-.06s-.01-.01-.02-.02l-.06-.04s0,0-.01,0l-3.4-1.83.23-.47.06-.1.04-.05.1-.07,4.82-1.55ZM164.22,281.51s-.02.01-.02.02l-.07.07s-.01.01-.02.02l-.28-.83s0-.01,0-.02l-.04-.09s0-.02-.02-.03l-.06-.08s0,0-.01-.01l-.05-.05s0-.01-.02-.02l-.07-.06s-.01-.01-.02-.02l-.06-.04s0,0-.01,0l-3.39-1.85.24-.49.06-.1.04-.05.1-.07.05-.02,4.84-1.56.11-.02h.05s.05,0,.05,0h.05s4.25,2.33,4.25,2.33l.04.03.05.05.07.1.03.07.23.68-5.88,1.9s-.01,0-.01,0l-.07.03s-.02.01-.03.02l-.14.1ZM177.32,277.2l-.24-.69s0-.01,0-.02l-.04-.09s0-.02-.01-.03l-.06-.08s0-.01-.01-.01l-.05-.05s0-.01-.01-.02l-.07-.06s-.01-.01-.02-.02l-.06-.04s0,0-.01,0l-3.4-1.85.24-.48.06-.1.04-.05.1-.07.05-.02,4.83-1.56.11-.02h.05s.05,0,.05,0h.05s4.26,2.32,4.26,2.32l.04.03.05.05.07.1.03.07.23.67-6.26,2.03ZM183.93,275.07l-.24-.69s0-.01,0-.02l-.04-.09s0-.02-.01-.03l-.06-.08s0-.01-.01-.01l-.05-.05s0-.01-.01-.02l-.07-.06s-.01-.01-.02-.02l-.06-.04s0,0-.01,0l-3.4-1.85.24-.48.06-.1.04-.05.1-.07.05-.02,4.82-1.55.11-.02h.05s.04,0,.04,0l.11.04,4.2,2.28.04.03.05.05.07.1.03.07.23.67-6.25,2.02ZM190.52,272.94l-.24-.69s0-.01,0-.02l-.04-.09s0-.02-.01-.03l-.06-.08s0-.01-.01-.01l-.05-.05s0-.01-.01-.02l-.07-.06s-.01-.01-.02-.02l-.06-.04s0,0-.01,0l-3.4-1.84.24-.48.06-.1.04-.05.1-.07.05-.02,4.81-1.55.11-.02h.05s.04,0,.04,0l.1.04,4.2,2.27.04.03.05.05.07.1.03.07.23.67-6.24,2.02ZM203.66,268.69l-.23-.69s0-.01,0-.02l-.04-.09s0-.02-.01-.03l-.06-.08s0-.01-.01-.02l-.05-.05s0,0-.01-.01l-.07-.06s-.01-.01-.02-.02l-.06-.04s0,0-.01,0l-3.41-1.84.23-.47.06-.1.04-.05.1-.07.05-.02,4.79-1.54.11-.02h.05s.04,0,.04,0l.1.04,4.2,2.27.04.03.05.05.07.1.03.07.23.67-6.21,2.01ZM219.22,258.68l-.28.55-.49-.26s0,0-.02,0l-.07-.03s0,0-.01,0l-.07-.02s-.02,0-.03,0h-.07s-.01-.01-.02-.01h-.08s0,0,0,0h0s0,0,0,0c-.01,0-.02,0-.03,0h-.06s-.01.01-.02.01c0,0-.01,0-.01,0h-.05s0,.02-.01.02l-3.83,1.24-.24-.71s0-.01,0-.02l-.04-.09s0-.02-.01-.03l-.06-.08s0-.01-.01-.02l-.05-.05s0,0-.01-.01l-.07-.06s-.01-.01-.02-.02l-.06-.04s0,0-.01,0l-3.41-1.83.23-.46.06-.1.04-.05.1-.07,4.81-1.55.11-.02h.05s.04,0,.04,0l.1.04,4.2,2.25.04.03.05.05.07.1.03.07.23.69-.6.19s-.01,0-.01,0l-.07.03s-.02.01-.03.02l-.14.1s-.02.01-.02.02l-.06.07s-.01.02-.02.02l-.03.05ZM132.69,281.7l.06-.1.04-.05.1-.07,10.06-3.24.11-.02h.05s.05,0,.05,0h.05s4.24,2.33,4.24,2.33l.04.03.05.05.08.1.03.07.24.7-9.03,2.91s-.01,0-.01,0l-.07.03s-.02.01-.03.02l-.14.1s-.02.01-.02.02l-.07.07s-.01.01-.02.02l-.08.14s0,0,0,.01l-.7,1.42-5.75-3.05.74-1.51ZM154.51,285.12l.06-.1.04-.05.1-.07,8.12-2.63.11-.02h.05s.05,0,.05,0h.05s2.77,1.53,2.77,1.53h.01s1.47.81,1.47.81l.04.03.05.05.08.1.03.07.4,1.15-9.49,3.08-.4-1.17s0-.01,0-.02l-.04-.09s0-.02-.02-.03l-.06-.08s0,0-.01-.01l-.05-.05s0-.01-.02-.02l-.07-.06s-.01-.01-.02-.02l-.06-.04s0,0-.01,0l-1.48-.81h-.01s-1.92-1.06-1.92-1.06l.23-.47ZM167.89,284.71s0-.01,0-.02l-.04-.09s0-.02-.01-.03l-.06-.08s0,0-.01-.01l-.05-.05s0-.01-.02-.02l-.07-.06s-.01-.01-.02-.02l-.06-.04s0,0-.01,0l-1.48-.81-.09.16.07-.16-1.93-1.05.23-.47.06-.1.04-.05.1-.07,8.1-2.62.11-.02h.05s.05,0,.05,0h.05s2.78,1.52,2.78,1.52l.09-.16-.07.16,1.48.8.04.03.05.05.08.1.03.07.39,1.15-9.46,3.07-.4-1.17ZM177.7,281.53s0-.01,0-.02l-.04-.09s0-.02-.01-.03l-.06-.08s0-.01-.01-.01l-.05-.05s0-.01-.01-.02l-.07-.06s-.01-.01-.02-.02l-.06-.04s0,0-.01,0l-1.48-.81s-.01,0-.01,0l-1.85-1.01.27-.55.06-.1.04-.05.1-.07.05-.02,26.77-8.66.15-.03h.05s.04,0,.04,0l.11.04,2.72,1.47.09-.16-.07.16,1.48.8.04.03.05.05.07.1.03.07.39,1.14-28.34,9.19-.4-1.16ZM206.38,272.24s0-.01,0-.02l-.04-.09s0-.02-.01-.03l-.06-.08s0-.01-.01-.02l-.05-.05s0,0-.01-.01l-.07-.06s-.01-.01-.02-.02l-.06-.04s0,0-.01,0l-3.39-1.83.25-.5.06-.1.04-.05.1-.07,8-2.59.11-.02h.05s.04,0,.04,0l.1.04,2.73,1.47.09-.16-.07.16,1.48.8.04.03.05.05.07.1.03.07.39,1.14-9.42,3.05-.39-1.16ZM216.14,269.07s0-.01,0-.02l-.04-.09s0-.02-.01-.03l-.06-.08s0-.01-.01-.02l-.05-.05s0,0-.01-.01l-.07-.06s-.01-.01-.02-.02l-.06-.04s0,0-.01,0l-1.48-.8h-.01s-1.94-1.05-1.94-1.05l.22-.45.06-.1.04-.05.1-.07.05-.02,7.93-2.56.11-.02h.05s.04,0,.04,0l.1.04,4.22,2.26.04.03.05.05.07.1.03.07.39,1.14-9.32,3.02-.39-1.16ZM225.8,265.94s0-.01,0-.02l-.04-.09s0-.02-.01-.03l-.06-.08s0-.01-.01-.02l-.05-.05s0,0-.01-.01l-.07-.06s-.01-.01-.02-.02l-.06-.04s0,0-.01,0l-1.48-.8h-.01s-.01-.01-.01-.01l-1.94-1.04.22-.45.06-.1.04-.05.1-.07.05-.02,7.91-2.56.11-.02h.05s.04,0,.04,0l.07.03,2.76,1.47s.01,0,.01,0l1.48.79.04.03.05.05.07.1.03.07.38,1.14-9.29,3.01-.39-1.16ZM228.24,250.79l.11-.02h.09s.1.05.1.05l4.2,2.24.04.03.05.05.07.1.03.07.23.69-12.61,4.07-.24-.71s0-.01,0-.02l-.04-.09s0-.02-.01-.03l-.06-.08s0-.01-.01-.02l-.05-.05s0,0-.01-.01l-.07-.06s-.01-.01-.02-.02l-.06-.04s0,0-.01,0l-3.39-1.82.24-.47.06-.1.04-.05.1-.07,11.23-3.62ZM222.15,247.54l.1-.02h.09s.1.05.1.05l4.19,2.24.04.03.05.05.07.1.03.07.25.74-7.94,2.56-.26-.76s0-.01,0-.02l-.04-.09s0-.02-.01-.03l-.06-.08s0-.01-.01-.02l-.05-.05s0,0-.01-.01l-.07-.06s-.01-.01-.02-.02l-.06-.04s0,0-.01,0l-3.45-1.85.2-.41.06-.1.04-.05.1-.07,6.66-2.14ZM206.04,247.66l.06-.1.04-.05.1-.07,9.81-3.15.1-.02h.05s.04,0,.04,0l.07.02,4.22,2.25.04.03.05.05.07.1.03.07.25.74-5.57,1.79s-.01,0-.02,0l-.07.03s-.02.01-.03.02l-.14.1s-.02.01-.02.02l-.06.07s-.01.01-.02.02l-.03.05-.26.5-.45-.24h0s0,0-.01,0l-.07-.03s0,0-.01,0l-.07-.02s-.02,0-.03,0h-.07s-.01-.01-.02-.01h-.08s-.02,0-.04,0h-.08s0,.02,0,.02h-.07s0,.02-.01.02l-3.83,1.23-.26-.76s0-.01,0-.02l-.04-.09s0-.02-.01-.03l-.06-.08s0-.01-.01-.02l-.05-.05s0,0-.01-.01l-.07-.06s-.01-.01-.02-.02l-.06-.04s0,0-.01,0l-3.46-1.85.19-.38ZM199.65,249.71l.06-.1.04-.05.1-.07.05-.02,4.76-1.52.1-.02h.05s.04,0,.04,0l.07.03,4.21,2.25.04.03.05.05.07.1.03.07.25.74-.6.19s-.01,0-.02,0l-.07.03s-.02.01-.03.02l-.14.1s-.02.01-.02.02l-.06.07s-.01.01-.02.02l-.03.05-.28.55-.5-.27h0s0,0-.01,0l-.07-.03s0,0-.01,0l-.07-.02s-.02,0-.03,0h-.07s-.01-.01-.02-.01h-.08s-.02,0-.03,0h0s0,0,0,0h0s-.08.01-.08.01h0s-.07.02-.07.02c0,0,0,0-.01,0l-3.83,1.23-.26-.76s0-.01,0-.02l-.04-.09s0-.02-.01-.03l-.06-.08s0-.01-.01-.02l-.05-.05s0,0-.01-.01l-.07-.06s-.01-.01-.02-.02l-.06-.04s0,0-.01,0l-3.38-1.82.23-.46ZM193.13,251.8l.06-.1.04-.05.1-.07.05-.02,4.73-1.52.14-.03h.05s.04,0,.04,0l.07.02,4.21,2.26.04.03.05.05.07.1.03.07.25.74-.6.19s-.01,0-.02,0l-.07.03s-.02.01-.03.02l-.14.1s-.02.01-.02.02l-.06.07s-.01.01-.02.02l-.03.05-.28.56-.5-.27h0s0,0-.01,0l-.07-.03s0,0-.01,0l-.07-.02s-.02,0-.03,0h-.07s-.01-.01-.02-.01h-.08s-.02,0-.04,0h-.02s-.06.01-.06.01c0,0,0,0-.01,0h-.05s0,.02-.01.02l-3.84,1.23-.26-.76s0-.01,0-.02l-.04-.09s0-.02-.02-.03l-.06-.08s0-.01-.01-.02l-.05-.05s0,0-.01-.01l-.07-.06s-.01-.01-.02-.02l-.06-.04s0,0-.01,0l-3.38-1.82.23-.47ZM186.6,253.89l.06-.1.04-.05.1-.07,4.82-1.55.1-.02h.1s.07.03.07.03l4.21,2.26.04.03.05.05.07.1.03.07.25.75-.61.19s-.01,0-.01,0l-.07.03s-.02.01-.03.02l-.14.1s-.02.01-.02.02l-.06.07s-.01.01-.02.02l-.03.05-.28.56-.5-.27h0s0,0-.01,0l-.07-.03s0,0-.01,0l-.07-.02s-.02,0-.03,0h-.07s-.01-.01-.02-.01h-.08s-.02,0-.03,0h-.08s0,.02,0,.02h-.07s0,.02-.01.02l-3.84,1.23-.26-.76s0-.01,0-.02l-.04-.09s0-.02-.01-.03l-.06-.08s0-.01-.01-.02l-.05-.05s0,0-.01-.01l-.07-.06s-.01-.01-.02-.02l-.06-.04s0,0-.01,0l-3.38-1.82.23-.47ZM180.05,255.99l.06-.1.04-.05.1-.07,4.83-1.55.11-.02h.05s0,0,0,0h.04s.07.03.07.03l4.21,2.26.04.03.05.05.07.1.03.07.25.75-.61.2s0,0-.01,0l-.07.03s-.02.01-.03.02l-.14.1s-.02.01-.02.02l-.06.07s-.01.01-.02.02l-.03.05-.29.56-.5-.27h0s0,0-.01,0l-.07-.03s0,0-.01,0l-.07-.02s-.02,0-.03,0h-.07s-.01-.01-.02-.01h-.08s-.02,0-.03,0h0s0,0,0,0h0s-.08.01-.08.01h0s-.07.02-.07.02c0,0,0,0-.01,0l-3.85,1.23-.26-.76s0-.01,0-.02l-.04-.09s0-.02-.01-.03l-.06-.08s0-.01-.01-.02l-.05-.05s0-.01-.01-.01l-.07-.06s-.01-.01-.02-.02l-.06-.04s0,0-.01,0l-3.37-1.82.23-.47ZM173.49,258.09l.06-.1.04-.05.1-.07,4.84-1.56.1-.02h.1s.07.03.07.03l4.21,2.27.04.03.05.05.07.1.03.07.26.75-.62.2s-.01,0-.02,0l-.07.03s-.02.01-.03.02l-.14.1s-.02.01-.02.02l-.06.07s-.01.01-.02.02l-.03.05-.29.56-.5-.27h0s0,0-.01,0l-.07-.03s-.01,0-.02,0l-.07-.02s-.02,0-.03,0h-.07s-.01-.01-.02-.01h-.08s-.02,0-.03,0h-.08s0,.02,0,.02h-.07s0,.02-.01.02l-3.85,1.24-.26-.76s0-.01,0-.02l-.04-.09s0-.02-.01-.03l-.06-.08s0-.01-.01-.01l-.05-.05s0-.01-.01-.01l-.07-.06s-.01-.01-.02-.02l-.06-.04s0,0-.01,0l-3.37-1.82.23-.47ZM166.91,260.19l.06-.1.04-.05.1-.07,4.85-1.56.11-.02h.05s.04,0,.04,0l.07.03,4.21,2.27.04.03.05.05.07.1.03.07.26.75-.62.2s-.01,0-.02,0l-.07.03s-.02.01-.03.02l-.14.1s-.02.01-.02.02l-.06.07s-.01.01-.02.02l-.04.05-.29.56-.51-.27h0s0,0-.01,0l-.07-.03s-.01,0-.02,0l-.07-.02s-.02,0-.03,0h-.07s-.01-.01-.02-.01h-.08s-.02,0-.03,0h0s0,0,0,0l-.08.02h0s-.07.01-.07.01c0,0,0,0-.01,0l-3.86,1.24-.26-.76s0-.01,0-.02l-.04-.09s0-.02-.02-.03l-.06-.08s0-.01-.01-.01l-.05-.05s0-.01-.01-.02l-.07-.06s-.01-.01-.02-.02l-.06-.04s0,0-.01,0l-3.37-1.83.23-.48ZM160.33,262.3l.06-.1.04-.05.1-.07,4.86-1.56.11-.02h.05s.04,0,.04,0l.07.03,4.21,2.28.04.03.05.05.07.1.03.07.26.75-.63.2s-.01,0-.02,0l-.07.03s-.02.01-.03.02l-.14.1s-.02.01-.02.02l-.06.07s-.01.01-.02.02l-.04.05-.29.57-.51-.28h0s0,0-.02,0l-.07-.03s0,0-.02,0l-.07-.02s-.02,0-.03,0h-.07s-.01-.01-.02-.01h-.08s-.02,0-.03,0h-.03s-.04.01-.04.01c0,0-.02,0-.02,0h-.05s0,.01-.01.02l-3.86,1.24-.26-.76s0-.01,0-.02l-.04-.09s0-.02-.01-.03l-.06-.08s0,0-.01-.01l-.05-.05s0-.01-.01-.02l-.07-.06s-.01-.01-.02-.02l-.06-.04s0,0-.01,0l-3.37-1.83.24-.48ZM153.73,264.41l.06-.1.04-.05.1-.07,4.87-1.56.11-.02h.05s.04,0,.04,0l.07.03,4.21,2.28.04.03.05.05.07.1.03.07.26.75-.63.2s-.01,0-.02,0l-.07.03s-.02.01-.03.02l-.14.1s-.02.01-.02.02l-.06.07s-.01.01-.02.02l-.08.13s0,0,0,.01l-.24.48-.51-.28s0,0-.02,0l-.07-.03s-.01,0-.02,0l-.07-.02s-.02,0-.03,0h-.07s-.01-.01-.02-.01h-.08s-.02,0-.03,0h0s0,0,0,0h0s-.06.01-.06.01c0,0,0,0-.01,0,0,0-.02,0-.02,0h-.05s0,.02-.01.02l-3.87,1.24-.26-.77s0-.01,0-.02l-.04-.09s0-.02-.01-.03l-.06-.08s0,0-.01-.01l-.05-.05s0-.01-.02-.02l-.07-.06s-.01-.01-.02-.02l-.06-.04s0,0-.01,0l-3.36-1.83.24-.49ZM147.12,266.53l.06-.1.04-.05.1-.07,4.88-1.57.11-.02h.05s.05,0,.05,0h.05s4.22,2.31,4.22,2.31l.04.03.05.05.07.1.03.07.26.75-.64.2s-.01,0-.01,0l-.07.03s-.02.01-.03.02l-.14.1s-.02.01-.02.02l-.06.07s-.01.01-.02.02l-.08.13s0,0,0,.01l-.24.48-.51-.28s-.01,0-.02,0l-.07-.03s-.01,0-.02,0l-.07-.02s-.02,0-.03,0h-.07s-.01-.01-.02-.01h-.08s-.02,0-.03,0h0s0,0,0,0h-.01s-.05.01-.05.01c0,0-.02,0-.02,0,0,0-.01,0-.01,0h-.05s0,.01-.01.02l-3.87,1.24-.26-.77s0-.01,0-.02l-.05-.09s0-.02-.01-.02l-.06-.08s0,0-.01-.01l-.05-.05s0-.01-.02-.02l-.07-.06s-.01-.01-.02-.02l-.06-.04s0,0-.01,0l-3.36-1.83.24-.49ZM140.49,268.65l.06-.1.04-.05.1-.07,4.89-1.57.11-.02h.05s.05,0,.05,0h.05s4.22,2.31,4.22,2.31l.04.03.05.05.07.1.03.07.26.75-.64.21s-.01,0-.02,0l-.07.03s-.02.01-.03.02l-.14.1s-.02.01-.02.02l-.06.07s-.01.01-.02.02l-.08.13s0,0,0,.01l-.24.48-.51-.28s-.01,0-.02,0l-.07-.03s-.01,0-.02,0l-.07-.02s-.02,0-.03,0h-.07s-.01-.01-.02-.01h-.08s-.02,0-.03,0h0s0,0,0,0h0s-.06.01-.06.01c0,0,0,0-.02,0,0,0-.01,0-.02,0h-.05s0,.01-.01.02l-3.87,1.24-.27-.77s0-.01,0-.02l-.04-.09s0-.02-.01-.03l-.06-.08s0,0-.01-.01l-.05-.05s0-.01-.02-.02l-.07-.06s-.01-.01-.02-.02l-.06-.04s0,0-.01,0l-3.36-1.84.24-.49ZM133.85,270.78l.06-.1.04-.05.1-.07,4.9-1.57.11-.02h.05s.05,0,.05,0h.05s4.22,2.32,4.22,2.32l.04.03.05.05.07.1.03.07.26.75-.65.21s0,0-.01,0l-.07.03s-.02.01-.03.02l-.14.1s-.02.01-.02.02l-.06.07s-.01.01-.02.02l-.08.14s0,0,0,.01l-.24.48-.51-.28s-.01,0-.02,0l-.07-.03s-.01,0-.02,0l-.07-.02s-.02,0-.03,0h-.07s-.02-.01-.02-.01h-.08s-.02,0-.03,0h-.01s-.06.01-.06.01c0,0-.02,0-.02,0h-.05s0,.01-.01.02l-3.88,1.25-.27-.77s0-.01,0-.02l-.04-.09s0-.02-.02-.03l-.06-.08s0,0-.01-.01l-.05-.05s0-.01-.02-.02l-.07-.06s-.01-.01-.02-.02l-.06-.04s0,0-.01,0l-3.35-1.84.24-.49ZM127.2,272.91l.06-.1.04-.05.1-.07.05-.02,4.87-1.56.11-.02h.05s.05,0,.05,0h.05s4.22,2.32,4.22,2.32l.04.03.05.05.08.1.03.07.26.75-.65.21s0,0-.01,0l-.07.03s-.02.01-.03.02l-.14.1s-.02.01-.02.02l-.06.07s-.01.01-.02.02l-.08.14s0,0,0,.01l-.23.47-.5-.27s0,0-.01,0l-.07-.03s-.01,0-.02,0l-.07-.02s-.02,0-.03,0h-.07s-.02-.01-.02-.01h-.08s-.02,0-.03,0h0s0,0,0,0h-.07s-.02.02-.02.02h-.05s0,.01-.01.02l-3.9,1.25-.27-.77s0-.01,0-.02l-.05-.09s0-.02-.02-.03l-.06-.08s0,0,0-.01l-.05-.05s-.01-.01-.02-.02l-.07-.06s-.01-.01-.02-.02l-.06-.04s0,0-.01,0l-3.35-1.84.24-.5ZM120.53,275.04l.06-.1.05-.05.1-.07.05-.02,4.88-1.56.11-.02h.05s.05,0,.05,0h.05s4.22,2.33,4.22,2.33l.04.03.05.05.08.1.03.07.26.75-3.86,1.24s-.01,0-.02,0l-.07.03s-.02.01-.03.02l-.14.1s-.02.01-.02.02l-.06.07s-.01.01-.02.02l-.08.14s0,0,0,.01l-.77,1.57-5.79-3.07.82-1.66ZM148.98,292.14h-.13s-.12-.02-.12-.02l-3.56-1.89s-.01,0-.01,0l-1.15-.61.64-1.3.06-.1.04-.05.1-.07,8.14-2.64.11-.02h.05s.05,0,.05,0h.05s2.77,1.53,2.77,1.53l.09-.16-.07.16,1.47.81.04.03.05.05.08.1.03.07.4,1.15-9.14,2.96ZM235.83,263.98l-.39-1.15s0-.01,0-.02l-.04-.09s0-.02-.01-.03l-.06-.08s0-.01-.01-.02l-.05-.05s0,0-.01-.01l-.07-.06s-.01-.01-.02-.02l-.06-.04s0,0-.01,0l-1.49-.8-.08.16.07-.16-1.87-1,.26-.52.06-.1.04-.05.1-.07,7.93-2.57.11-.02h.05s.04,0,.04,0l.07.02,4.26,2.27.04.03.05.05.07.1.03.07.38,1.14-9.38,3.04Z"/>
      <path d="M125.02,267.7l5.51,2.91s.03.01.05.02l.09.02s.02,0,.04,0c.01,0,.02,0,.03,0l.12-.02s.02,0,.02,0l26.05-8.34c.09-.03.14-.12.12-.22l-.41-1.56s0-.01,0-.02l-.04-.09s0-.02-.01-.03l-.1-.15s-.01-.02-.02-.02l-.06-.06s0,0,0,0l-.06-.05s0,0-.01,0l-.28-.2,3.06,1.6s.03.01.05.02l.09.02s.02,0,.03,0,.02,0,.03,0l.14-.03s.01,0,.02,0l25.61-8.2c.09-.03.14-.12.12-.22l-.4-1.55s0-.01,0-.02l-.04-.09s0-.02-.01-.03l-.05-.09-.04-.06s-.01-.02-.02-.02l-.06-.06s0,0-.01,0l-.06-.05s0,0-.01,0l-.3-.21,3.09,1.61s.04.02.06.02h.1s.02.02.03.02c.01,0,.03,0,.04,0l.2-.05s0,0,.01,0l25.28-8.09c.09-.03.14-.12.12-.22l-.39-1.55s0-.01,0-.02l-.04-.09s0-.02-.01-.03l-.05-.08s0,0,0-.01l-.04-.06s-.01-.02-.02-.02l-.06-.06s0,0-.01-.01l-.06-.05s0,0-.01,0l-4.11-2.92s0,0-.01,0l-.07-.04s-.02-.01-.03-.01l-.07-.02s0,0-.01,0l-.07-.02s-.02,0-.04,0h-.07s0,0-.01,0h-.07s-.02,0-.04,0l-.07.02s-.01,0-.02,0l-4.75,1.52s-.01,0-.02,0l-.07.03s0,0-.01,0l-.08.04s-.02.01-.03.02l-.14.11s-.01.01-.02.02l-.06.08s0,.01-.01.02l-.39.61-.38-.27s0,0-.01,0l-.07-.04s-.02-.01-.03-.01l-.07-.02s0,0-.01,0l-.07-.02s-.02,0-.04,0h-.07s0,0-.01,0h-.07s-.02,0-.04,0l-.07.02s-.01,0-.02,0l-4.76,1.52s0,0-.01,0l-.07.03s0,0-.01,0l-.08.04s-.02.01-.03.02l-.14.11s-.02.01-.02.02l-.06.08s0,.01-.01.02l-.39.61-.38-.27s0,0-.01,0l-.07-.04s-.02-.01-.03-.01l-.07-.02s0,0-.01,0l-.07-.02s-.02,0-.04,0h-.07s0,0-.01,0h-.07s-.02,0-.03,0l-.07.02s-.01,0-.02,0l-4.77,1.52s0,0-.01,0l-.07.03s0,0-.01,0l-.08.04s-.02.01-.03.02l-.14.11s-.02.01-.02.02l-.06.08s0,.01-.01.02l-.39.61-.38-.27s0,0-.01,0l-.07-.04s-.02-.01-.03-.01l-.07-.02s0,0-.01,0l-.07-.02s-.02,0-.03,0h-.07s0,0-.01,0h-.07s-.02,0-.03,0l-.07.02s-.01,0-.02,0l-4.78,1.53s-.01,0-.02,0l-.07.03s-.02,0-.02,0l-.07.04s-.02.01-.03.02l-.14.11s-.01.01-.02.02l-.06.08s0,.01-.01.02l-1.16,1.82-1.31-.94s0,0-.01,0l-.07-.04s-.02-.01-.03-.02l-.07-.02s0,0-.01,0l-.07-.02s-.02,0-.04,0h-.07s0,0-.01,0h-.07s-.02,0-.03,0l-.07.02s-.01,0-.02,0l-4.79,1.53s-.01,0-.01,0l-.07.03s0,0-.01,0l-.08.04s-.02.01-.03.02l-.14.11s-.02.01-.02.02l-.06.08s0,.01-.01.02l-.4.62-.39-.28s0,0-.01,0l-.07-.04s-.02-.01-.03-.02l-.07-.02s0,0-.01,0l-.07-.02s-.02,0-.04,0h-.07s0,0-.01,0h-.07s-.02,0-.04,0l-.07.02s-.01,0-.02,0l-4.8,1.53s-.01,0-.02,0l-.07.03s0,0-.01,0l-.08.04s-.02.01-.03.02l-.14.11s-.01.01-.02.02l-.06.08s0,.01-.01.02l-.4.62-.39-.28s0,0-.01,0l-.07-.04s-.02-.01-.03-.02l-.07-.02s0,0-.01,0l-.07-.02s-.02,0-.04,0h-.07s0,0-.01,0h-.07s-.02,0-.04,0l-.07.02s-.01,0-.02,0l-4.81,1.54s-.01,0-.01,0l-.07.03s0,0-.01,0l-.08.04s-.02.01-.03.02l-.14.11s-.02.01-.02.02l-.06.08s0,.01-.01.02l-.4.62-.39-.28s0,0-.01,0l-.07-.04s-.02-.01-.03-.01l-.07-.02s0,0-.01,0l-.07-.02s-.02,0-.04,0h-.07s-.01,0-.01,0h-.07s-.02,0-.03,0l-.07.02s-.01,0-.02,0l-4.82,1.54s-.01,0-.01,0l-.07.03s0,0-.01,0l-.08.04s-.02.01-.03.02l-.14.11s-.02.01-.02.02l-.06.08s0,.01-.01.02l-1.18,1.84-1.32-.95s0,0-.01,0l-.07-.04s-.02-.01-.03-.01l-.07-.02s0,0-.01,0l-.07-.02s-.02,0-.03,0h-.07s0,0-.01,0h-.07s-.02,0-.04,0l-.07.02s-.01,0-.02,0l-4.84,1.54s-.01,0-.01,0l-.07.03s0,0-.01,0l-.08.04s-.02.01-.03.02l-.14.11s-.02.01-.02.02l-.06.08s0,.01-.01.02l-.4.63-.39-.28s0,0-.01,0l-.07-.04s-.02-.01-.03-.02l-.07-.02s0,0-.01,0l-.07-.02s-.02,0-.03,0h-.07s0,0-.01,0h-.07s-.02,0-.04,0l-.08.02s-.01,0-.02,0l-4.85,1.55s-.01,0-.01,0l-.07.03s0,0-.01,0l-.08.04s-.02.01-.03.02l-.14.11s-.02.01-.02.02l-.06.08s0,.01-.01.02l-.4.63-.39-.29s0,0-.01,0l-.07-.04s-.02-.01-.03-.02l-.07-.02s0,0-.01,0l-.07-.02s-.02,0-.03,0h-.07s0,0-.01,0h-.07s-.02,0-.04,0l-.08.02s-.01,0-.02,0l-4.86,1.55s0,0-.01,0l-.07.03s0,0-.01,0l-.08.04s-.02.01-.03.02l-.14.11s-.02.01-.02.02l-.06.08s0,.01-.01.02l-.4.63-.4-.29s0,0-.01,0l-.07-.04s-.02-.01-.03-.02l-.07-.02s0,0-.01,0l-.07-.02s-.02,0-.03,0h-.07s-.01,0-.01,0h-.07s-.02,0-.04,0l-.08.02s-.01,0-.02,0l-4.87,1.55s0,0-.01,0l-.07.03s0,0-.01,0l-.08.04s-.02.01-.03.02l-.14.11s-.01.01-.02.02l-.06.08s0,.01-.01.02l-1.39,2.18s-.03.09-.02.14c.01.05.05.09.09.11ZM202.83,241.16l.05-.06.1-.08.06-.03,4.79-1.54h.05s.05-.01.05-.01h.05s.09.03.09.03l4.14,2.94.09.09.07.1.03.07.35,1.37-6.19,1.98-.35-1.36s0-.01,0-.02l-.04-.09s0-.02-.01-.03l-.05-.08s0,0,0-.01l-.04-.06s-.01-.02-.02-.02l-.06-.06s0,0-.01-.01l-.06-.05s0,0-.01,0l-3.43-2.45.39-.61ZM196.28,243.25l.05-.06.1-.08.06-.03,4.8-1.54h.05s.05-.01.05-.01h.05s.09.03.09.03l4.14,2.94.09.09.07.1.03.07.35,1.37-6.21,1.99-.35-1.37s0-.01,0-.02l-.04-.09s0-.02-.01-.03l-.05-.09-.04-.06s-.01-.02-.02-.02l-.06-.06s0,0-.01,0l-.06-.05s0,0-.01,0l-3.43-2.45.4-.62ZM189.72,245.34l.05-.06.1-.08.06-.03,4.76-1.52.1-.03h.05s.04,0,.04,0l.1.03,4.14,2.95.09.09.07.1.03.07.35,1.38-6.22,1.99-.35-1.37s0-.01,0-.02l-.04-.09s0-.02-.01-.03l-.05-.09-.04-.06s-.01-.02-.02-.02l-.06-.06s0,0-.01,0l-.06-.05s0,0-.01,0l-3.43-2.45.4-.62ZM183.15,247.44l.04-.05.1-.08.06-.03,4.82-1.55h.05s.05-.01.05-.01h.05s.09.03.09.03l4.14,2.95.09.09.07.1.03.07.35,1.38-5.39,1.73-.23.06h-.04s-2.46-1.28-2.46-1.28c0,0-.01,0-.01,0l-2.8-1.45-.17-.12,1.17-1.82ZM174.87,250.08l.05-.06.1-.08.06-.03,4.8-1.54.08-.02h.05s.05,0,.05,0l.09.03,4.13,2.96.09.09.07.11.03.07.36,1.38-6.25,2-.35-1.37s0-.01,0-.02l-.04-.09s0-.02-.01-.03l-.05-.09-.04-.06s-.01-.02-.02-.02l-.06-.06s0,0,0,0l-.06-.05s0,0-.01,0l-3.43-2.46.4-.62ZM168.26,252.19l.05-.06.1-.08.12-.05,4.79-1.53h.05s.05-.01.05-.01h.05s.09.03.09.03l4.13,2.96.09.09.07.11.03.07.36,1.38-6.26,2-.36-1.37s0-.01,0-.02l-.04-.09s0-.02-.01-.03l-.1-.15s-.01-.02-.02-.02l-.06-.06s0,0,0,0l-.06-.05s0,0-.01,0l-3.42-2.46.4-.63ZM161.65,254.3l.05-.06.1-.08.12-.05,4.8-1.53h.05s.05-.01.05-.01h.05s.09.03.09.03l4.13,2.97.09.09.07.11.03.07.36,1.38-6.28,2.01-.36-1.37s0-.01,0-.02l-.04-.09s0-.02-.01-.03l-.1-.15s-.01-.02-.02-.02l-.06-.06s0,0,0,0l-.06-.05s0,0-.01,0l-3.42-2.47.4-.63ZM155.02,256.41l.05-.06.1-.08.12-.05,4.81-1.53h.05s.05-.01.05-.01h.05s.09.03.09.03l4.13,2.97.09.09.07.11.03.07.36,1.38-5.62,1.8-.09.02h-.03s-5.24-2.75-5.24-2.75l-.17-.12,1.18-1.85ZM146.66,259.08l.05-.06.1-.08.12-.05,4.82-1.54h.05s.05-.01.05-.01h.05s.09.03.09.03l4.13,2.98.09.09.07.11.03.07.36,1.39-6.31,2.02-.36-1.38s0-.01,0-.02l-.04-.09s0-.02-.01-.03l-.1-.15s-.01-.02-.02-.03l-.06-.06s0,0,0,0l-.06-.05s0,0-.01,0l-3.42-2.47.41-.64ZM140,261.2l.05-.06.1-.08.12-.05,4.83-1.54h.05s.05-.01.05-.01h.05s.09.03.09.03l4.13,2.98.09.09.07.11.03.07.36,1.39-6.32,2.02-.36-1.38s0-.01,0-.02l-.04-.09s0-.02-.01-.03l-.1-.15s-.01-.02-.02-.03l-.07-.07-.06-.05s0,0-.01-.01l-3.41-2.47.41-.64ZM133.33,263.33l.05-.06.1-.08.12-.05,4.84-1.54h.05s.05-.01.05-.01h.05s.09.03.09.03l4.13,2.99.09.09.07.11.03.07.36,1.39-6.33,2.03-.36-1.38s0-.01,0-.02l-.04-.09s0-.02-.01-.03l-.1-.15s-.01-.02-.02-.03l-.07-.07-.06-.05s0,0-.01,0l-3.41-2.48.41-.64ZM126.64,265.47l.05-.06.1-.08.12-.05,4.85-1.55h.05s.05-.01.05-.01h.05s.09.03.09.03l4.13,2.99.09.09.07.11.03.07.37,1.39-5.89,1.89h-.08s-.03,0-.03,0l-5.31-2.81,1.28-2.01Z"/>
      <path d="M117.45,273.04s0-.01,0-.02l-.04-.09s0-.02-.01-.03l-.1-.15s-.01-.02-.02-.03l-.06-.06s0,0,0,0l-.06-.05s0,0-.01,0l-4.1-2.99s0,0-.01,0l-.07-.04s-.02-.01-.03-.02l-.07-.02s-.01,0-.02,0l-.07-.02s-.02,0-.03,0h-.07s-.01,0-.02,0h-.07s-.02,0-.03,0l-.08.02s-.01,0-.02,0l-4.89,1.56s0,0-.01,0l-.07.03s0,0-.01,0l-.08.04s-.02.01-.03.02l-.14.11s-.01.01-.02.02l-.06.08s0,.01-.01.02l-1.34,2.11s-.03.09-.02.14c.01.05.05.09.09.11l5.57,2.96s.03.01.05.02l.09.02s.02,0,.03,0c.01,0,.02,0,.04,0l.15-.03s.01,0,.02,0l5.95-1.9c.09-.03.14-.12.12-.22l-.42-1.57ZM111.7,276.38l-.11.02h-.03s-5.38-2.86-5.38-2.86l1.23-1.94.05-.06.1-.08.12-.05,4.88-1.56h.05s.05-.01.05-.01h.05s.09.03.09.03l.04.03,4.08,2.98.09.09.07.11.03.07.37,1.39-5.78,1.85Z"/>
      <path d="M239.41,221.51s-.02,0-.02,0l-.41.2s-.01,0-.02.01l-.39.26.2.3.38-.25.39-.19.42-.14-.11-.34-.43.14Z"/>
      <path d="M207.58,205.86s-.06.06-.07.1v.04s-.02.03-.02.05v2.29s0,.05.01.07h0c.02.06.05.09.1.11l.29.12s.03.01.05.01h.03s.01,0,.02,0h.03s0,0,0,0c.02,0,.04,0,.05,0l3.24-1.02s.06-.03.08-.05l.02-.02s.01-.01.02-.02l.02-.03s.03-.06.03-.1v-2.22s0-.04,0-.07l-.02-.05s0,0,0-.01v-.03s-.07-.07-.11-.09l-.18-.07s-.07-.07-.12-.07h-.03s-.05,0-.08,0l-3.26,1.02h0s-.03.01-.05.02l-.04.03ZM208.17,208.23v-1.94s2.95-.93,2.95-.93v1.95s-2.95.93-2.95.93Z"/>
    </g>
  </g>
</svg>