<?xml version="1.0" encoding="UTF-8"?>
<svg id="Layer_2" data-name="Layer 2" xmlns="http://www.w3.org/2000/svg" viewBox="0 0 110.68 366.51">
  <g id="Layer_1-2" data-name="Layer 1">
    <path d="M110.66,93.39l-.06-6.05c0-.11-.09-.2-.2-.2l-6.45-.05-6.17.99-7.34,1.68-5.75,1.55s-.03.01-.05.02l-6.02,3.36-5.95,3.13-5.35,2.19s0-.02-.02-.03l-1.69-1.53-.38-.31.23-.32s.03-.06.03-.09h0s.29-1.69.29-1.69c0-.02,0-.05,0-.07l-.28-1.67s0-.01,0-.02v-.04s-.12-.32-.12-.32c0-.02-.01-.03-.03-.05l-1.03-1.46s-.04-.04-.06-.06l-1.69-1.01s-.05-.02-.07-.03l-1.71-.29-.55-1.85-.13-1.84.63-2.19h0s0-.01,0-.01h0s.01-.08,0-.11l-.18-.64s-.02-.03-.03-.04l-.08-1.04v-1.45s.11-1.46.11-1.46c0-.02,0-.05,0-.07l-.21-.79s-.04-.09-.09-.12l-.12-.08-.07-53.5.34-.05s.04,0,.06-.02l1.22-.57s.05-.03.07-.05l.74-.82s0,0,.01-.01h.01s.13-.21.13-.21c.01-.02.02-.04.03-.07l.21-.96s0-.06,0-.09l-.19-.86s.01,0,.02,0l1.19-.95s.06-.06.07-.1l.22-.77s.01-.07,0-.1l-.08-.31-.26-.71s-.05-.08-.08-.1l-1.27-.79s0,0,0,0l-.04-.02h0s0,0,0,0l-2.04-.94-.5-.39.08-.74.1-.19.43-.24s.05-.03.06-.05l1.07-1.41s.02-.03.03-.05l.81-2.19c.02-.05.02-.11,0-.15l-.8-1.81-1.15-2.95-2.7-4.56v-.02s-.01,0-.01,0l-.02-.03-1.53-2.09s-.06-.06-.1-.07l-.91-.33s-.1-.02-.15,0l-.9.36s-.07.04-.09.07l-1.53,2.08-2.72,4.62-1.12,2.91-.81,1.82s-.02.1,0,.15l.8,2.19s.02.04.03.05l1.07,1.41s.04.04.06.05l.46.26.06.11.03.09.07.72-.49.38-2,.92-.04.02s0,0,0,0h-.02s-1.29.81-1.29.81c-.04.02-.07.06-.08.1l-.27.74-.07.29s0,.07,0,.1l.22.77s.04.08.07.11l1.18.95s.02.01.03.02l-.19.85s0,.06,0,.09l.2.96s.02.05.03.07l.14.21s0,0,0,0h0s.75.82.75.82c.02.02.04.04.07.05l1.22.57s.04.01.06.02l.36.05.04,53.51-.11.07s-.07.07-.09.12l-.21.79s0,.05,0,.07l.11,1.45v1.45s-.08,1.05-.08,1.05c0,.02-.02.03-.02.05l-.18.64s-.01.07,0,.11h0s0,0,0,0l.63,2.21-.12,1.84-.54,1.84-1.69.29s-.05.01-.07.03l-1.7,1.01s-.05.03-.06.06l-1.04,1.46s-.02.03-.03.05l-.12.35-.28,1.69s0,.05,0,.07l.28,1.69h0s.01.06.03.09l.24.34-.37.3-1.69,1.52s0,0,0,.01l-5.35-2.16-5.97-3.14-6.03-3.37s-.03-.01-.05-.02l-5.76-1.55-7.35-1.68-6.19-.99-6.42.06c-.11,0-.2.09-.2.21l-.04,16.69c0,.1.07.19.18.2l4.08.62,5.27.87,3.93,1.25,4.37,1.77,3.84,2.07,2.97,2.57,2.25,2.12,1.64,2.17.92,1.99.41,2.24.09,3.49-.09,195.71s0,.04,0,.06l2.02,6.83,7.18,17.09s.01.03.02.04l14.65,19.92s.02.03.04.04l1.72,1.38s.08.05.13.05.09-.02.13-.05l1.71-1.38s.03-.02.04-.04l14.61-19.92s.02-.03.02-.04l7.15-17.11,2-6.8s0-.04,0-.06l-.51-195.7.08-3.46.41-2.27.91-1.99,1.61-2.14,2.26-2.14,2.97-2.58,3.62-1.95.2-.11,4.28-1.74,3.94-1.25,4.14-.7,5.3-.81c.1-.02.18-.1.18-.2l-.02-10.65ZM64.95,336.11l-5.75,11.04-3.58,3.28-3.58-3.28-5.78-11.04-3.5-10.47-1.79-7.33-.18-8.68-.86-187.19-.27-4.93-.61-3.47-1.16-4.05s-.03-.06-.05-.08l-3.15-3.4-3.49-2.86-4.26-2.77-4.81-2.78-5.42-2.24-5.59-1.47-5.56-.88-5.12-.31v-.84s5.16.25,5.16.25l5.73.88,5.85,1.5,5.57,2.3,4.91,2.86,4.63,2.84,3.65,2.75.12-.16.12.17,7.21-5.28,4.32,1.48.69,207.73.13,12.32s.01.07.03.1h0s3.44,5.82,3.44,5.82c.02.03.04.05.07.07l3.42,2.16s.07.03.11.03c.03,0,.07,0,.1-.03,0,0,0,0,0,0h0s3.42-2.16,3.42-2.16c.03-.02.05-.04.07-.07l3.43-5.81s.03-.07.03-.1l.1-12.32.26-192.09-.02-15.65,4.11-1.41.19-.08,7.24,5.29.12-.17.12.16,3.63-2.74,4.64-2.85,4.88-2.85,5.56-2.3,5.85-1.5,5.72-.89,5.2-.25v.84s-5.15.31-5.15.31l-5.56.88-5.59,1.48-5.41,2.25-4.79,2.77-4.26,2.78-3.49,2.86-3.12,3.38s-.04.05-.05.08l-1.16,4.08-.6,3.47-.25,4.91-.45,187.18-.16,8.69-1.77,7.31-3.48,10.48ZM57.14,364.81l-1.31,1.06v-15.07s3.26-3,3.26-3l-1.95,17ZM52.13,347.81l3.27,3v15.06s-1.3-1.06-1.3-1.06l-1.97-17ZM53.39,362.23l-6.63-24.25,4.9,9.36,1.73,14.89ZM59.56,347.34l4.88-9.36-6.58,24.24,1.71-14.89ZM65.09,97.61l-.16.22.08-.47.17-.29-.09.54ZM66.29,100.36l-1.19-.84.41-.6,1.37,1.24-.59.2ZM62.59,117.58l-.26,192.08-.1,12.21-1.65,1.18v-2.22l.1-10.27.25-187.18h0s0,0,0,0v-4.9s0,0,0,0l-.02-14.32.91-1.43.39-.13-.07-.19h0s.14.14.14.14l.29-.28.02,15.31ZM48.15,23.2l.15-.67.86.34-.13.77s0,.05,0,.07l.1.61-.8-.28-.18-.83ZM51.38,8.82l.49,1.73-.86.39-.69-1.7,1.07-.42ZM53.55,2.39l.43-.56-.06.29-.57,2.99-.31,2.94-1.25.23.58-2.75,1.19-3.15ZM55.23,1.07l.68.08.23,1.05.58,2.96.31,2.87-1.79-.02-1.79.02.3-2.85.57-2.97.23-1.05.68-.08ZM56.92,2.39l1.2,3.12.59,2.78-1.24-.23-.33-2.96-.58-2.98-.06-.28.43.56ZM59.71,11.67l.41.47-.49,1.61-.03.15-.25-.55.04-.25.32-1.43ZM62.18,24.02l-.8.28.1-.61s0-.05,0-.07l-.13-.77.86-.34.15.67-.18.83ZM60.52,21.97l-.56-.23.49-.59.75.34-.68.48ZM49.99,21.97l-.68-.48.75-.34.49.59-.56.23ZM49.34,22.5l-.83-.33.42-.45.71.5-.29.27ZM58.96,17.19l.56.36-1.69-.23-2.38-.18v-1.04s1.36,0,1.36,0l1.3.24.79.82h0s.02.02.04.03ZM52.28,15.07l-.47.22-.04-.61.5-.24v.63ZM51.79,15.75l.4-.19-.1.44-.43.19.12-.44ZM52.68,15.2h0s-.02-.91-.02-.91l1.01-.21,1.36-.12v1.74s-1.44,0-1.44,0l-1.06.2.15-.65s0-.03,0-.05ZM55.45,13.95l1.33.11,1.03.22-.02.91s0,.03,0,.05l.15.65-1.1-.2h-1.4s0-1.74,0-1.74ZM58.41,16.01l-.1-.44.4.19.13.44-.43-.19ZM58.69,15.29l-.47-.22v-.63s.51.24.51.24l-.04.61ZM57.84,13.87l-.99-.21-1.4-.12v-1.16s1.38.11,1.38.11l1.08.24-.08,1.15ZM55.04,12.38v1.16s-1.42.12-1.42.12l-.97.2-.08-1.15,1.06-.23,1.41-.11ZM52.17,12.87l.08,1.12-.54.26-.17-1.08.64-.3ZM51.58,17.16h0s.79-.82.79-.82l1.27-.24h1.4s0,1.03,0,1.03l-2.39.18-1.68.23.56-.36h0s.03-.02.04-.03ZM55.25,19.72l2.48.1,1.98.26h0s-1.87-.23-1.87-.23l-2.6-.09-2.6.09-1.86.24h0s1.96-.27,1.96-.27l2.5-.11ZM59.75,19.67l-1.98-.26-2.31-.1v-.28s2.36.11,2.36.11l2.06.27-.12.26ZM55.05,19.03v.28s-2.33.1-2.33.1l-1.96.26-.12-.26,2.04-.26,2.37-.11ZM61,20.1l-.84-.32.13-.28.94.33-.23.27ZM60.07,19.02l-2.21-.29-2.39-.11v-.56l2.48.16,2.42.29-.29.5ZM55.05,18.62l-2.41.11-2.2.28-.29-.5,2.41-.29,2.49-.16v.56ZM50.22,19.5l.13.28-.84.32-.23-.27.94-.33ZM61.98,21.08l.28-.25.04.16-.28.25-.04-.16ZM61.76,20.72l-.42-.4.26-.3.47.42-.31.28ZM61.54,19.5l-1.06-.37.31-.54,1.38.35-.63.57ZM57.97,17.81l-2.52-.16v-.09s2.33.17,2.33.17l2.51.34v.02s-2.33-.28-2.33-.28ZM50.2,18.07l2.5-.34,2.34-.17v.09s-2.53.16-2.53.16l-2.33.28v-.02ZM49.72,18.58l.31.54-1.06.37-.63-.57,1.38-.35ZM49.16,20.33l-.42.4-.31-.28.47-.42.26.3ZM48.24,20.83l.28.25-.04.16-.28-.26.04-.16ZM62.4,20.19l-.51-.45.72-.65.77.48-.99.62ZM59.32,15.19l-.06.54-.17-.19.06-.95.08-.49.22.49-.13.62ZM58.79,14.25l-.54-.26.07-1.02.6.5-.12.78ZM57.96,12.31l-1.07-.23-1.44-.11v-1.5s1.42.1,1.42.1l1.27.27-.18,1.48ZM55.04,10.46v1.51s-1.47.12-1.47.12l-1.04.23-.19-1.48,1.24-.27,1.45-.11ZM51.95,10.97l.18,1.46-.68.32-.31-1.41.81-.37ZM51.2,13.73l.14.85.07.95-.17.2-.06-.56-.19-.89.02-.1.21-.45ZM51.32,16.84h0s0,0,0,0h0ZM48.61,19.73l-.51.45-.99-.63.77-.48.72.65ZM50.51,21.05l1.98-.26,2.76-.08,2.75.08,2,.26-.46.55-1.82-.2h-4.93s-1.8.2-1.8.2l-.46-.55ZM61.59,21.72l.42.45-.83.33-.29-.27.71-.5ZM62.68,21.33l.05-.23s0-.06,0-.09h0s-.11-.47-.11-.47l1.05-.66.12.35-.18.63-.92.48ZM59.68,15.74v-.07s.01.02.01.02v.05ZM58.99,13l-.63-.53.19-1.5.81.37-.37,1.65ZM58.23,10.43l-1.29-.27-1.7-.12-1.7.13-1.27.27-.48-1.72,1.46-.27,2-.03,1.99.02,1.48.28-.48,1.72ZM51.08,13.02l-.27.57-.45-1.46.42-.47.3,1.36ZM50.79,15.47l.03.28-.05-.17.02-.11ZM46.83,19.88l1.05.66-.11.47h0s-.02.06,0,.09l.05.24-.93-.48-.18-.63.12-.35ZM50.07,24.98l-.5-.46-.14-.85.14-.83.5-.46.87-.35,1.86-.2h4.89s1.88.2,1.88.2l.86.35.5.46.14.83-.14.85-.5.46-.36.14v-.47s.06-.07.06-.07c.02-.03.03-.06.04-.09h0s.12-.59.12-.59c0-.03,0-.06,0-.08l-.12-.58s-.02-.06-.05-.09h0s-.4-.47-.4-.47h0s-.04-.04-.07-.05l-.64-.31s-.04-.01-.06-.02h0s-1.49-.21-1.49-.21v.02s-.02,0-.02,0v-.02s-2.22-.11-2.22-.11l-2.18.11v.02s-.01,0-.01,0v-.02s-1.49.21-1.49.21c-.02,0-.04.02-.06.03h0s-.64.31-.64.31l.06.12-.02.02-.11-.09-.4.47s-.04.06-.04.09l-.12.58s0,.06,0,.08l.12.59h0s.02.06.04.09l.06.07v.47s-.37-.14-.37-.14ZM59.57,86.22l.32-1.86.23.16-.47,1.79-.09-.09ZM59.13,82.1l.07,1.11-.54-.15-.06-1.22v-1.45s.05-1.28.05-1.28l.56.16-.08,1.37v1.48ZM58.17,79.01h.06s-.06,1.36-.06,1.36v1.47s.06,1.15.06,1.15l-1.58-.13-1.34-.05-1.34.05-1.58.13.06-1.16v-1.47s-.06-1.34-.06-1.34l1.6-.14,1.31-.05,1.32.05,1.55.13ZM51.98,79.09l.06,1.28v1.45s-.06,1.23-.06,1.23l-.54.15.07-1.12v-1.47s-.08-1.36-.08-1.36l.56-.16ZM54.11,83.75l1.2-.05,1.13.05.65,4.16.55,2.34.14.45-2.44-.1-2.44.1.14-.46.54-2.35.54-4.14ZM58.21,90.71l-.18-.57-.54-2.31-.63-4.06,1.75.16-.1,2.12.16,2.07.67,2.43.11.26-.27-.05-.97-.04ZM58.47,78.62h-.07s-.07-55.86-.07-55.86l.47.13.07,55.84-.4-.11ZM57.02,22.47l.89.19.07,55.92-1.33-.11-1.34-.05-1.34.05-1.33.11-.05-55.92.89-.19,1.76-.09,1.78.09ZM51.71,22.89l.47-.13.05,55.86h-.11s-.37.11-.37.11l-.05-55.84ZM50.74,84.36l.33,1.86-.09.09-.47-1.79.23-.16ZM51.45,86l-.33-1.85.49-.15.1,1.89-.26.11ZM52.14,86.04h0s0-.02,0-.03l-.11-2.1,1.66-.15-.53,4.04-.53,2.32-.18.59-.98.04-.26.04.13-.29.66-2.44.14-2.03ZM59.94,90.88l-.22-.48-.65-2.36-.15-2,.1-2.03.49.15-.37,2.11s0,.03,0,.05l.15,2.06s0,.03,0,.04l.73,2.48-.09-.02ZM59.84,82.56l.08,1-.29-.19-.08-1.28v-1.45s.07-1.17.07-1.17l.33.22-.1,1.4v1.48ZM59.53,78.92s-.04-.02-.06-.03l-.19-.05-.07-55.72.25.17.08,55.64h0ZM51.3,23.12l.05,55.72-.19.05s-.04.01-.06.03h0s-.05-55.64-.05-55.64l.25-.17ZM51.1,80.63v1.45s-.08,1.29-.08,1.29l-.29.19.07-1.02v-1.48s-.1-1.38-.1-1.38l.33-.22.07,1.16ZM51.35,88.42s0-.03,0-.04l.13-1.94.21-.09-.11,1.65-.64,2.37-.22.51-.09.02.72-2.48ZM51.53,91.42l3.8-.17,3.82.17,3.12.54-.45,1.7-2.86-.5-3.6-.26h0s-.02,0-.03,0l-3.62.26-2.84.5-.45-1.7,3.12-.54ZM64.67,99.43l-3.14,2.98h0s-.02.03-.03.04h0s-1.73,2.71-1.73,2.71l-.74-.45,1.24-2.8,2.08-3.08.55-1.02,2.27.89-.5.73ZM60.19,318.82l-.02,4.54-1.82,1.31-2.55,2.19-.22-199.69v-.63s.47-.35.47-.35l.06,1.05.41-.02-.07-1.38,1.16-2.47,1.28-3.71.31-1.3.47.77-.41,1.41-1.43,3.12c-.05.1,0,.22.09.27.03.02.07.03.1.03.07,0,.14-.03.17-.1l.63-.99,1.7.68-.25,187.03-.08,8.26ZM50.99,323.35v-2.52l-.1-8.26-.68-189.05,1.69-.68.61.96c.04.06.11.1.17.1.03,0,.07,0,.1-.03.1-.05.13-.17.09-.27l-1.4-3.05-.42-1.44.47-.78.32,1.33,1.29,3.71,1.16,2.45-.07,1.38.41.02.06-1.05.47.35v.65s0,.73,0,.73h0l.22,198.93-2.56-2.19-.13.16.12-.17-1.81-1.3ZM47.45,95.91l-.14-1.11,1.24-.6.16,1.14-1.26.57ZM60.51,123.08l-1.67-.67.8-1.74.44-1.52s0-.03,0-.05h0s.01-.16.01-.16c0-.02,0-.03-.01-.05h0s-.33-1.8-.33-1.8l.74,1.44v4.55ZM51.41,117.58l-.18.3.23-1.28.02-2.46-.12-2.61-.25-2.51-.63-2.53.31-.5.51,2.18.24,2.51.13,2.56.02,2.36-.27,1.98ZM50.63,118.89s0,.03,0,.05v.16s.01,0,.01,0c0,.02,0,.03,0,.05l.46,1.55.79,1.72-1.67.67v-4.55s.73-1.42.73-1.42l-.32,1.78ZM54.78,124.26l.28.07-.31.56.03-.63ZM54.79,123.84l-.13-2.18-.39-3.12-.14-1.67,1.02-.07v7.14s-.36-.09-.36-.09ZM55.56,116.79l1.04.07-.13,1.66-.39,3.15-.12,2.16-.38.1v-7.15ZM56.48,121.71l.39-3.14.13-1.62.81.25-.27,1.65-.83,3.24-.29.71.06-1.09ZM56.79,107.18l-.3,7.49.13,1.78-1.05-.07v-18.38s2.98.32,2.98.32l-1.75,8.85ZM55.14,98v18.38s-1.02.07-1.02.07l.12-1.8-.32-7.5-1.76-8.82,2.99-.32ZM53.72,116.95l.14,1.63.39,3.12.06,1.1-.29-.68-.84-3.25-.27-1.67.81-.25ZM52.53,117.41l.25,1.54.86,3.3.74,1.79-.05.91-.82-1.73-1.27-3.67-.39-1.66.68-.48ZM55.16,125.01v1.01s-.39-.29-.39-.29l.39-.72ZM55.58,126.02v-1.01s.39.72.39.72l-.39.29ZM55.68,124.34l.28-.07.03.63-.31-.56ZM56.4,124.95l-.05-.91.75-1.82.85-3.29.25-1.52.68.48-.39,1.64-1.27,3.67-.82,1.75ZM59.67,116l-.02-1.85.12-2.59.23-2.45.37-1.47.13,1.21v8.77s-.83-1.63-.83-1.63ZM59.59,109.04l-.24,2.49-.12,2.61.03,2.48.23,1.23-.17-.28-.27-1.95.02-2.38.12-2.56.23-2.49.51-2.2.31.5-.63,2.56ZM59,108.13l-.23,2.53-.12,2.58v2.42s.2,1.55.2,1.55l-.6-.42-.19-1.78.06-2.36.16-2.55.2-2.51.44-2.45.69.41-.6,2.58ZM58.58,104.72s0,.03-.01.05h0s-.49,2.76-.49,2.76l-.21,2.53-.16,2.56-.06,2.4.17,1.59-.79-.25-.12-1.7.3-7.44,2.01-10.12,3.28.6-.49.92-2.08,3.1-1.33,3ZM58.62,97.92l-3.07-.33v-.85s3.24.31,3.24.31l-.17.87ZM55.55,95.54v-.64s3.23.25,3.23.25l2.81.49.18.7-2.89-.51-3.33-.29ZM62.13,94.2l1.23.6-.14,1.11-1.25-.57.16-1.14ZM64.24,96.88l-.62-.73.12-.96.63.79-.13.9ZM63.47,94.4l-1.26-.62.44-1.67,1.35.8-.53,1.48ZM61.57,95.22l-2.75-.48-3.28-.25v-1.16s3.36.24,3.36.24l2.83.5-.16,1.16ZM49.1,95.22l-.16-1.16,2.81-.49,3.38-.24v1.16s-3.3.26-3.3.26l-2.73.48ZM47.2,94.4l-.53-1.48,1.35-.8.44,1.67-1.27.62ZM46.94,95.19l.12.96-.63.74-.13-.91.63-.79ZM49.1,95.64l2.79-.49,3.25-.25v.64s-3.34.29-3.34.29l-2.88.51.18-.7ZM55.14,96.74v.85s-3.07.33-3.07.33l-.17-.87,3.24-.31ZM51.48,97.11l2.02,10.09.32,7.45-.12,1.72-.8.25.16-1.61-.07-2.38-.16-2.56-.21-2.55-.49-2.74h0s0-.03-.01-.05l-1.35-3.03-2.06-3.05-.5-.93,3.28-.6ZM51.78,105.13l.44,2.43.21,2.53.16,2.55.07,2.35-.18,1.8-.6.42.21-1.58-.02-2.4-.13-2.58-.24-2.55-.6-2.55.69-.42ZM50.2,106.12v-1.31s.41.64.41.64l-.41.66ZM50.21,109.16l.13-1.48.35,1.4.24,2.47.12,2.59v1.86s-.84,1.63-.84,1.63v-8.47s0,0,0,0ZM60.49,106.12l-.41-.67.41-.64v1.3ZM59.06,96.66l-3.51-.34v-.37s3.27.28,3.27.28l3.11.55.36.46-3.24-.59ZM62.06,95.83l1.19.54.32.63-1.34-.55-.16-.62ZM64.61,97.29v.05s-.02-.01-.02-.01v-.08s.02.03.02.03ZM64.53,95.53l-.71-.88.49-1.38.75,1.06-.53,1.2ZM46.36,93.27l.49,1.38-.71.89-.53-1.2.76-1.07ZM46.06,97.29v-.05s.02.09.02.09v.02s-.02-.06-.02-.06ZM47.43,96.37l1.19-.54-.16.62-1.35.55.32-.63ZM51.84,96.24l3.29-.29v.37s-3.53.34-3.53.34l-3.22.59.36-.46,3.1-.55ZM47.79,97.81l.56,1.04,2.05,3.03,1.26,2.83-.74.45-1.73-2.72h0s-.02-.03-.03-.04h0s-3.14-2.98-3.14-2.98l-.5-.73,2.28-.89ZM45.84,99.83l1.68,1.6-2.65-.91.97-.69ZM48.41,102.55l.14-.14h0s-.07.19-.07.19l.39.13.91,1.42v14.32s.01,0,.01,0v4.9s0,0,0,0h0l.65,187.18.12,10.27v2.22l-1.64-1.18-.13-12.21-.69-207.39.29.28ZM52.56,324.98l2.82,2.41v2.19s-3.05-1.94-3.05-1.94l-2.92-4.93,3.15,2.26ZM55.8,329.58v-2.2s2.8-2.41,2.8-2.41l3.16-2.26-2.91,4.93-3.06,1.94ZM64.84,99.83l.97.69-2.65.91,1.68-1.6ZM62.93,97.39l-.23-.3,1.19.49.44.35-1.4-.54ZM65.36,95.96l-.43.74-.13-.75.41-.93.15.94ZM61.51,24.81l-.34.05.06-.06.42-.15-.14.16ZM59.95,14.71l-.02.09-.05-.26.15-.7.34-1.1.23.64-.64,1.33ZM60.32,11.74l-.49-.55.69-1.7.73.69-.93,1.56ZM59.48,10.95l-.86-.39.49-1.73,1.06.42-.69,1.7ZM59.15,8.4l-.64-3-.47-1.22,1.29,2.04.79,2.57-.97-.38ZM55.9.73l-.46-.06v-.18s.47.17.47.17v.06ZM55.03.68l-.47.06v-.04s.46-.19.46-.19v.17ZM51.16,6.21l1.29-2.06-.48,1.28-.62,2.97-.97.38.79-2.57ZM49.97,9.49l.69,1.7-.49.55-.93-1.56.73-.69ZM50.12,12.74l.34,1.09.1.46-.06.36-.61-1.26.23-.65ZM49.27,24.8l.06.06-.34-.05-.15-.16.42.15ZM45.87,95.95l-.13.75-.44-.74.16-.94.42.93ZM45.47,97.06l.18.3.08.48-.17-.23-.09-.55ZM46.79,97.58l1.2-.49-.23.29-1.41.55.43-.35ZM45.57,99.52l-1.19.84-.6-.2,1.37-1.24.41.6ZM72.85,98.19l5.97-3.14,6-3.35,5.72-1.54,7.32-1.68,6.12-.98,6.22.05.05,4.39-5.24.25-5.77.89-5.9,1.51-5.62,2.32-4.91,2.87-4.66,2.86-3.52,2.66-6.9-5.05,5.12-2.07ZM61.33,14.02l-.61.47.28-.97.8-.77-.47,1.28ZM62.06,11.91l-1.15,1.12-.33-.92.9-1.52.58,1.32ZM60.99,9.36l-.36-.34-.64-2.06.2.34.8,2.07ZM50.28,7.32l.22-.38-.63,2.07-.37.35.79-2.05ZM49,10.59l.9,1.52-.33.92-1.16-1.12.59-1.32ZM48.67,12.73l.8.78.28.98-.61-.47-.47-1.29ZM6.63,87.49l6.14.98,7.33,1.68,5.73,1.54,6.02,3.36,5.99,3.15,5.1,2.08-6.88,5.04-3.54-2.67-4.65-2.85-4.94-2.88-5.62-2.32-5.89-1.51-5.77-.89-5.2-.25v-4.39s6.19-.06,6.19-.06ZM32.28,327.85l-2.01-6.78.09-195.68-.09-3.53-.42-2.3s0-.03-.02-.05l-.94-2.03s-.01-.03-.02-.04l-1.67-2.21-2.28-2.15-3-2.59s-.02-.02-.04-.03l-3.88-2.09-4.32-1.75-4.07-1.29-4.75-.79-4.46-.68.02-10.25,5.07.3,5.52.88,5.54,1.46,5.37,2.22,4.78,2.76,4.23,2.76,3.2,2.62.26.21,3.1,3.34,1.12,3.92.62,3.48.26,4.89.86,187.18.19,8.71s0,.03,0,.04l1.8,7.37,3.51,10.5,7.55,27.64-13.98-19.01-7.16-17.04ZM105.8,104.54l-4.77.8-4.05,1.29-4.32,1.76-3.85,2.08s-.03.02-.04.03l-3,2.6-2.29,2.17-1.65,2.19s-.02.02-.02.04l-.93,2.03s-.01.03-.02.05l-.42,2.33-.08,3.5.51,195.68-1.98,6.75-7.13,17.07-13.94,19.01,7.51-27.64,3.49-10.51,1.78-7.35s0-.03,0-.04l.16-8.26.46-187.62.25-4.88.59-3.42,1.13-3.97,3.08-3.36,3.45-2.83,4.23-2.76,4.76-2.75,5.36-2.23,5.54-1.46,5.52-.88,5.1-.31.02,10.25-4.46.68Z"/>
  </g>
</svg>