<?xml version="1.0" encoding="UTF-8"?>
<svg id="Layer_2" data-name="Layer 2" xmlns="http://www.w3.org/2000/svg" viewBox="0 0 242.9 176.36">
  <g id="Layer_1-2" data-name="Layer 1">
    <path d="M242.6,58.06s0,0,0,0h0s-51.23-23.03-51.23-23.03l4.19-5.48s.02-.03.03-.04l5.51-9.04s.04-.09.06-.13l.21-.8c.03-.11.02-.22-.02-.33l-.43-1.03c-.02-.06-.06-.11-.1-.15l-.96-1s-.07-.07-.12-.09l-1.23-.69s-.1-.05-.16-.06l-1.17-.21c-.1-.02-.2,0-.29.03l-.8.34c-.07.03-.13.08-.18.13l-6.86,7.95-6.81,6.18-.24.18L113.58.05c-.18-.08-.39-.05-.54.08l-4.75,4.16-7.61-3.43s-.1-.04-.15-.04l-2.98-.33c-.1-.01-.19,0-.28.05l-2.57,1.29c-.05.03-.1.06-.13.1l-3.15,3.23-3.33,3.11s-.09.1-.11.16l-2.34,5.02s-.01.02-.01.03l-.72,1.91-.27.75-.96-.44s-.1-.04-.15-.04l-2.99-.33c-.1-.01-.2,0-.28.05l-2.59,1.3c-.05.03-.1.06-.13.1l-3.17,3.26-3.36,3.14s-.08.1-.11.16h0s-2.34,5.03-2.34,5.03c0,.01,0,.02-.01.03l-.74,1.93-.56,1.56-.45-.2s-.09-.03-.14-.04l-3.04-.45c-.09-.01-.18,0-.26.03l-2.68,1.05c-.05.02-.1.05-.15.09l-6.82,5.94c-.05.05-.1.1-.13.17l-2.32,5-.76,1.95-.59,1.64-.49-.23s-.09-.03-.13-.04l-3.07-.5c-.08-.01-.17,0-.25.02l-2.73.96s-.09.04-.13.07l-3.4,2.45-3.17,1.91c-.08.05-.14.12-.19.2l-.68,1.31s-.01.03-.02.05l-2.89,7.26s0,.02-.01.04l-.55,1.76-.35-.16s-.09-.03-.14-.04l-3.07-.46c-.09-.01-.18,0-.26.03l-2.72,1.07c-.05.02-.1.05-.15.09l-6.96,6.06c-.05.05-.1.1-.13.17l-2.31,5.02-.79,2-1.58,4.46s-.01.04-.02.07l-.92,4.47s0,.03,0,.05l-.3,3L.17,98.86c-.11.1-.18.24-.17.4l.43,14.45c0,.19.12.36.29.44l130.72,62.16h0s0,0,0,0c.07.03.14.05.21.05.12,0,.23-.04.32-.12l110.04-91.72c.11-.09.18-.23.18-.37l.69-25.61c0-.2-.11-.39-.3-.47ZM88.84,8.93l3.26-3.05,3.1-3.19,2.37-1.19,2.75.3,9.08,4.09,1.38,1.48-.53,1.77-3.05,3.16-3.26,3.06-2.45,1-2.83-.39-9.08-4.11-1.33-1.38.58-1.55ZM86.53,13.86l1.17-2.5,1.23,1.28s.1.08.16.11l9.23,4.18s.09.03.14.04l3.04.42s.05,0,.07,0c.07,0,.13-.01.19-.04l2.66-1.09c.06-.02.11-.06.15-.1l3.34-3.14,3.16-3.26c.06-.06.1-.13.12-.21l.29-.96,2.15,4.22,1.19,3.04-3.23,3.07s-.08.09-.11.15l-2.38,5.03s-.01.03-.02.04l-.99,2.67-.88-.4s-.1-.04-.15-.04l-3.01-.34c-.1-.01-.2,0-.28.05l-2.6,1.31c-.05.03-.1.06-.14.1l-2.4,2.48-1.05-2.65s-.01-.03-.02-.05l-2.77-5.36s-.05-.08-.08-.12l-1.65-1.78s-.1-.09-.16-.12l-7.38-3.35,1.01-2.7ZM134.69,20.41c.06-.06.1-.13.12-.21l.28-.95,2.12,4.2,1.22,3.17-3.16,3.02s-.08.09-.11.15l-2.41,5.04s-.01.03-.02.04l-1,2.68-.77-.35s-.1-.04-.15-.04l-3.03-.34c-.1-.01-.2,0-.29.05l-2.6,1.32c-.05.03-.1.06-.14.1l-2.46,2.57-1.08-2.76s-.01-.03-.02-.05l-2.74-5.37h0s-.05-.08-.08-.11l-1.67-1.79s-.1-.09-.16-.12l-7.53-3.42,1.01-2.72,1.19-2.52,1.27,1.32s.1.08.15.11l9.3,4.22s.09.03.14.04l3.05.43s.05,0,.07,0c.07,0,.13-.01.19-.04l2.66-1.1c.06-.02.11-.06.16-.1l3.33-3.17,3.15-3.28ZM210.54,72.75l-.98,2.95-7.7,7.12-4.31,1.75-1.38-.2.03-.1c.02-.07.03-.15.02-.22l-.12-1.08.95.09s.03,0,.05,0c.07,0,.15-.02.22-.05l2.13-1,1.27-.52c.06-.02.11-.06.15-.1l9.52-8.79.14.14ZM200.26,80.59l-2.43.99-1.91-.29-.23-2.04s0-.03,0-.05l-.92-4.23s-.01-.05-.02-.07l-1.53-4.06s-.01-.03-.02-.05l-2.67-5.38s-.05-.09-.08-.12l-1.73-1.83s-.1-.09-.16-.11l-8.08-3.67,1.06-2.73,1.27-2.58,1.4,1.43s.1.08.15.11l9.51,4.31s.09.03.14.04l3.1.44s.05,0,.07,0c.07,0,.13-.01.2-.04l2.67-1.12c.06-.02.11-.06.16-.1l3.3-3.23,3.12-3.35c.06-.06.1-.13.12-.21l.25-.93,2.03,4.15,1.48,4,.89,4.16.51,4.64-.58,1.73-11.04,10.2ZM193.88,88.14l-1,2.98-7.78,7.2-4.35,1.77-1.41-.21.02-.07c.02-.07.03-.15.02-.22l-.13-1.13,1.02.1s.03,0,.05,0c.07,0,.15-.02.22-.05l1.85-.87,1.54-.63c.06-.02.11-.06.15-.1l9.65-8.92.15.15ZM183.46,96.1l-2.45,1-1.95-.29-.24-2.02s0-.04,0-.05l-.98-4.25s-.01-.05-.02-.07l-1.64-4.1s-.01-.03-.02-.05l-2.36-4.47s-.05-.08-.09-.12l-1.71-1.74s-.09-.08-.15-.11l-8.57-3.93,1.37-3.58,1.25-2.56,1.39,1.44s.1.08.15.11l9.53,4.35s.09.03.14.04l3.11.44s.05,0,.07,0c.07,0,.13-.01.2-.04l2.69-1.13c.06-.02.11-.06.16-.1l3.33-3.26,3.15-3.38c.06-.06.1-.13.12-.21l.27-.97,2.07,4.17,1.51,4.01.91,4.17.53,4.65-.59,1.75-11.15,10.3ZM177.06,103.68l-1.03,3.02-7.87,7.27-4.38,1.79-1.44-.22v-.04c.04-.07.05-.15.04-.23l-.15-1.19,1.09.11s.03,0,.05,0c.07,0,.15-.02.22-.05l1.58-.74,1.81-.74c.06-.02.11-.06.15-.1l9.79-9.04.15.15ZM166.5,111.77l-2.47,1.01-1.99-.3-.25-2s0-.04,0-.05l-1-4.25s-.01-.05-.02-.07l-1.66-4.1s-.01-.03-.02-.05l-2.41-4.53s-.05-.08-.09-.12l-1.7-1.72s-.11-.08-.16-.11l-8.54-3.94,1.36-3.54,1.29-2.65,1.38,1.42s.09.08.15.11l9.56,4.4s.09.03.14.04l3.12.47s.05,0,.07,0c.06,0,.13-.01.19-.04l2.7-1.09c.06-.02.11-.05.15-.1l6.71-6.15c.06-.06.11-.13.14-.21l.31-.9,1.8,3.41,1.62,4.04.96,4.18.55,4.65-.6,1.77-11.27,10.41ZM160.05,119.38l-1.05,3.06-7.95,7.35-4.42,1.81-1.47-.22h0c.03-.08.03-.16.02-.24l-.16-1.25,1.15.12s.03,0,.05,0c.07,0,.15-.02.22-.05l1.22-.58,2.15-.88c.06-.02.11-.06.15-.1l9.94-9.18.15.15ZM149.35,127.6l-2.49,1.02-2.04-.31-.25-1.98s0-.04-.01-.05l-1.03-4.26s-.01-.05-.02-.07l-1.7-4.11s-.01-.03-.02-.05l-2.43-4.48s-.05-.08-.08-.11l-1.71-1.78s-.09-.08-.15-.11l-8.67-4.03.53-1.58.88-2.27,2.02-4.68,1.21,1.04s.07.06.12.08l9.63,4.46s.06.03.1.03l3.07.74c.07.02.14.02.2,0l2.59-.44c.07-.01.13-.04.19-.07l3.11-2.02s.02-.01.03-.02l3.35-2.57c.07-.06.13-.13.17-.22l.33-.88,1.88,3.52,1.64,4.04.99,4.19.57,4.66-.62,1.79-11.39,10.52ZM129.6,144.59l-.12.03-2.89-.44-64.45-30.36-1.42-1.52h0l.53-4.68.96-4.42,1.6-4.35.78-2.07,1.15-2.43,1.28,1.35s.1.08.15.11l58.08,27.16s.09.03.14.04l3.15.48s.05,0,.08,0c.07,0,.13-.01.19-.04l2.74-1.12c.06-.02.11-.05.15-.1l6.85-6.28c.06-.06.11-.13.14-.2l.34-.97,1.87,3.45,1.67,4.05,1.01,4.19.59,4.66-.63,1.81-11.51,10.63-2.42.99ZM37.39,96.41l.93-4.41,1.57-4.35.79-2.03,1.14-2.43,1.23,1.31s.1.09.15.11l9.39,4.39s.09.03.14.04l3.1.47s.05,0,.08,0c.06,0,.13-.01.19-.04l2.74-1.09c.05-.02.1-.05.15-.09l6.92-6.14c.06-.05.11-.12.14-.2l.37-.99,1.95,3.5,1.48,3.45-3.69,3.28c-.05.05-.09.1-.12.16l-2.37,5.01s-.01.02-.02.04l-.76,2.01-1.64,4.47s-.01.04-.02.07l-.98,4.48s0,.03,0,.05l-.17,1.53-.53.47-2.51,1.01-2.88-.44-15.86-7.47-1.4-1.51.5-4.68ZM49.77,74.73l2.52-1,2.88.43,9.22,4.29,1.36,1.44-.6,1.59-6.77,6-2.53,1.01-2.89-.44-9.24-4.32-1.35-1.44.62-1.59,6.78-5.97ZM63.86,61.62s.02-.01.03-.02l3.34-2.44,2.54-.9,2.89.47,9.21,4.25,1.34,1.37-.59,1.44-3.26,2.4-3.06,1.89-2.4.39-2.88-.69-9.31-4.31-1.32-1.14.42-.84,3.05-1.86ZM98.58,31.49l3.13-3.24,2.38-1.21,2.78.31,9.17,4.17,1.4,1.51-.54,1.81-3.08,3.21-3.28,3.12-2.47,1.02-2.85-.4-9.17-4.19-1.35-1.42.59-1.58,3.29-3.1ZM95.4,38.36s.1.08.16.11l9.32,4.26s.09.03.14.04l3.06.43c.09.01.18,0,.26-.03l2.68-1.11c.06-.02.11-.06.15-.1l3.36-3.2,3.18-3.31c.06-.06.1-.13.12-.21l.29-.99,2.16,4.22,1.24,3.16-3.27,3.13s-.08.09-.11.15l-2.4,5.05s-.01.03-.02.04l-1.31,3.52-.27-.12s-.09-.03-.14-.04l-3.07-.46c-.09-.01-.18,0-.26.03l-2.69,1.07c-.05.02-.11.05-.15.09l-2.53,2.25-1.23-2.95-.08-.2s-.01-.03-.02-.04l-2.42-4.46h0s-.05-.08-.08-.11l-1.65-1.7s-.1-.08-.16-.11l-8.04-3.68,1.32-3.55,1.18-2.5,1.26,1.32ZM139.86,42.35l1.42,1.52-.53,1.82-1.9,2s-.01.01-.02.02l-1.15,1.21-3.27,3.14-2.47,1.03-2.87-.41-9.24-4.22-1.37-1.43.58-1.6,3.27-3.12,3.12-3.26,2.39-1.21,2.79.31,9.24,4.2ZM163.86,53.25l1.44,1.54-.52,1.83-3.06,3.25-3.26,3.16-2.47,1.04-2.88-.41-9.31-4.25-1.4-1.45.57-1.61,3.26-3.14,3.11-3.28,2.39-1.22,2.81.32,9.31,4.23ZM188.03,64.23l1.46,1.55-.51,1.85-3.05,3.27-3.25,3.18-2.47,1.04-2.9-.41-9.38-4.28-1.42-1.46.56-1.63,3.25-3.17,3.1-3.3,2.39-1.23,2.83.32,9.38,4.26ZM166.29,66.7s-.08.09-.1.14l-2.47,5.06s-.01.03-.02.04l-1.36,3.54-.05-.02s-.09-.03-.14-.04l-3.1-.46c-.09-.01-.18,0-.26.03l-2.69,1.08c-.06.02-.11.05-.15.09l-2.65,2.41-1.37-3.37s-.01-.03-.02-.05l-2.38-4.47s-.05-.08-.08-.12l-1.69-1.73s-.1-.08-.15-.11l-8.39-3.84,1.35-3.57,1.23-2.54,1.35,1.4s.1.08.15.11l9.46,4.32s.09.03.14.04l3.09.44s.05,0,.07,0c.07,0,.13-.01.2-.04l2.69-1.13c.06-.02.11-.06.16-.1l3.34-3.24,3.16-3.35c.06-.06.1-.13.12-.21l.28-.98,2.06,4.11,1.35,3.51-3.12,3.03ZM66.92,91.87l6.76-6.01,2.52-1.01,2.89.43,57.83,26.9,1.43,1.49-.57,1.63-6.69,6.13-2.53,1.03-2.94-.45-57.92-27.09-1.37-1.46.61-1.61ZM87.73,72.66s.02-.01.03-.02l3.33-2.46,2.54-.9,2.9.47,9.28,4.28,1.36,1.39-.58,1.45-3.25,2.42-3.04,1.91-2.4.4-2.89-.7-9.38-4.35-1.34-1.16.41-.85,3.03-1.88ZM108.45,54.92l2.48-.98,2.87.43,9.25,4.24,1.38,1.42-.57,1.56-6.6,5.91-2.49.99-2.88-.43-9.27-4.26-1.37-1.43.58-1.56,6.61-5.88ZM100.68,63.22l1.29,1.34s.1.08.15.11l9.42,4.33s.09.03.14.04l3.09.46s.05,0,.07,0c.06,0,.13-.01.19-.04l2.7-1.08c.05-.02.1-.05.15-.09l6.76-6.06c.06-.06.11-.13.14-.2l.33-.91,1.85,3.45,1.46,3.57-3.36,3.02s-.09.1-.12.16l-2.41,4.99s-.01.03-.02.04l-1.37,3.63-.21-.1s-.09-.03-.13-.04l-3.11-.51c-.09-.01-.17,0-.25.02l-2.73.98s-.09.04-.13.07l-2.71,2.03-1.18-2.83s-.01-.03-.02-.04l-2.46-4.52h0s-.05-.08-.08-.11l-1.66-1.69s-.09-.08-.15-.1l-8.18-3.78,1.31-3.54,1.24-2.61ZM147.1,69.61l1.41,1.44-.56,1.57-6.57,5.96-2.49,1-2.9-.43-9.34-4.3-1.4-1.44.57-1.58,6.59-5.93,2.48-.99,2.88.43,9.32,4.27ZM111.77,83.78s.02-.02.03-.02l3.31-2.48,2.54-.91,2.92.48,9.35,4.32,1.38,1.41-.57,1.47-3.23,2.45-3.02,1.93-2.39.4-2.91-.7-9.45-4.38-1.37-1.18.4-.87,3.01-1.9ZM85.02,77.36s.08.06.12.08l9.49,4.4s.06.02.09.03l3.04.73c.07.02.13.02.2,0l2.6-.43c.07-.01.13-.03.19-.07l3.14-1.97s.02-.02.03-.02l3.38-2.52c.07-.06.13-.13.17-.22l.36-.89,1.92,3.54,1.26,3.02-2.92,1.85c-.08.05-.15.13-.19.21l-.64,1.37-1.84,4.37-1.21,2.96-.59,1.78-23.09-10.74.61-1.87,2.71-6.62,1.16,1ZM127.83,106.85l-23.27-10.83.61-1.86.8-1.98,1.96-4.67,1.19,1.02s.07.06.12.08l9.56,4.43s.06.02.09.03l3.06.74c.07.02.14.02.2,0l2.6-.44c.07-.01.13-.04.19-.07l3.13-1.99s.02-.01.03-.02l3.36-2.54c.07-.06.13-.13.17-.22l.35-.89,1.9,3.54,1.29,3.14-2.83,1.82c-.08.05-.15.13-.19.22l-.62,1.37-2.29,5.31s-.01.03-.02.04l-.78,2-.6,1.79ZM133,96.9l3-1.92s.02-.02.03-.02l3.3-2.5,2.54-.92,2.93.48,9.42,4.35,1.41,1.42-.56,1.48-3.22,2.47-3.01,1.95-2.39.41-2.92-.7-9.52-4.41-1.39-1.19.4-.88ZM145.15,91.07s-.09-.03-.13-.04l-3.13-.51c-.08-.01-.17,0-.25.02l-2.73.99s-.09.04-.13.07l-2.77,2.11-1.21-2.94s-.01-.03-.02-.05l-2.43-4.52s0,0,0,0h0s0,0,0,0c-.02-.04-.05-.08-.08-.12l-1.68-1.7s-.09-.08-.15-.1l-8.36-3.86,1.34-3.54,1.26-2.63,1.33,1.38s.1.08.15.11l9.49,4.37s.09.03.14.04l3.1.46s.05,0,.07,0c.06,0,.13-.01.19-.04l2.7-1.09c.06-.02.11-.05.15-.09l6.73-6.1c.06-.06.11-.13.14-.21l.32-.91,1.83,3.43,1.5,3.69-3.28,2.98s-.09.09-.11.15l-2.44,5s-.01.03-.02.04l-1.4,3.64-.1-.05ZM150,82.94l6.56-5.97,2.48-1,2.9.43,9.39,4.3,1.43,1.45-.55,1.59-6.55,6-2.49,1.01-2.91-.44-9.41-4.33-1.42-1.46.56-1.59ZM142.19,55.7s-.08.09-.1.14l-1.11,2.3s-.01.03-.02.03l-1.31,2.72s-.01.03-.02.04l-1.34,3.53-.16-.07s-.09-.03-.14-.04l-3.09-.46c-.09-.01-.18,0-.26.03l-2.69,1.08c-.06.02-.11.05-.15.09l-2.59,2.33-1.34-3.26s-.03-.05-.03-.07l-2.39-4.44s-.05-.08-.08-.11l-1.67-1.72s-.1-.08-.15-.11l-8.21-3.76,1.33-3.57,1.2-2.52,1.31,1.36s.1.08.15.11l9.39,4.29s.09.03.14.04l3.08.43s.05,0,.07,0c.07,0,.13-.01.19-.04l2.68-1.12c.06-.02.11-.06.16-.1l3.35-3.22,1.16-1.22s.01-.01.02-.02l2-2.1c.06-.06.1-.13.12-.21l.29-.98,2.08,4.1,1.33,3.4-3.19,3.08ZM76.88,52.28l1.25,1.31s.1.08.15.11l9.35,4.3s.09.03.14.04l3.07.46s.05,0,.07,0c.06,0,.13-.01.19-.04l2.69-1.07c.05-.02.11-.05.15-.09l6.78-6.02c.06-.05.11-.12.14-.2l.34-.92,1.83,3.37,1.48,3.53-3.44,3.06c-.05.04-.09.1-.12.16l-2.38,4.99s-.01.03-.02.04l-1.35,3.62-.32-.15s-.09-.03-.13-.04l-3.1-.51c-.08-.01-.17,0-.25.02l-2.73.97s-.09.04-.13.07l-2.65,1.96-1.14-2.72s-.01-.03-.02-.05l-2.47-4.52h0s-.05-.08-.08-.11l-1.64-1.68s-.09-.08-.15-.11l-8.03-3.71.46-1.25.85-2.26,1.22-2.6ZM61.11,66.28s.08.06.12.08l9.42,4.37s.06.02.09.03l3.03.73c.07.02.13.02.2,0l2.6-.42c.07-.01.13-.03.18-.07l3.16-1.95s.02-.01.03-.02l3.39-2.5c.07-.05.13-.13.17-.21l.37-.9,1.89,3.45,1.29,3.03-3.01,1.87c-.08.05-.15.12-.19.21l-.66,1.36-2.98,7.28s0,.02-.01.04l-.58,1.77-.18-.08s-.09-.03-.14-.04l-3.1-.47c-.09-.01-.18,0-.26.03l-2.73,1.09c-.05.02-.1.05-.15.09l-2.43,2.16-1.35-3.16s-.01-.03-.02-.05l-2.49-4.47s-.05-.07-.07-.1l-1.65-1.74s-.1-.08-.15-.11l-8.19-3.81.6-1.87,2.67-6.6,1.13.98ZM205.77,52.25l-3.02,3.24-3.21,3.15-2.45,1.03-2.89-.41-9.36-4.24-1.42-1.45.55-1.61,3.15-3.07,3.14-3.33,2.37-1.22,2.81.32,9.36,4.22,1.46,1.53-.5,1.83ZM183.18,51.33s-.08.09-.1.14l-2.48,5.05s-.01.03-.02.04l-1.04,2.7-.55-.25s-.1-.04-.15-.04l-3.06-.35c-.1-.01-.2,0-.29.05l-2.61,1.34c-.05.03-.1.06-.14.1l-2.58,2.74-1.15-3.01s-.01-.03-.02-.05l-2.69-5.38s-.05-.08-.08-.12l-1.71-1.82s-.1-.09-.16-.11l-7.89-3.59,1.04-2.73,1.24-2.56,1.36,1.39s.1.08.15.11l9.44,4.28s.09.03.14.04l3.08.43s.05,0,.07,0c.07,0,.13-.01.2-.04l2.67-1.12c.06-.02.11-.06.16-.1l3.31-3.21,3.13-3.32c.06-.06.1-.13.12-.21l.26-.94,2.06,4.17,1.28,3.42-2.99,2.93ZM181.63,41.36l-3.03,3.22-3.22,3.13-2.45,1.02-2.87-.4-9.29-4.21-1.39-1.43.55-1.59,3.21-3.1s.03-.03.04-.04l3.06-3.22,2.37-1.21,1.33.15s.03,0,.03,0l1.44.16,9.29,4.19,1.44,1.52-.51,1.81ZM159.14,40.45s-.08.09-.1.14l-2.44,5.04s-.01.03-.02.04l-1.02,2.69-.66-.3s-.1-.04-.15-.04l-3.04-.34c-.1-.01-.2,0-.29.05l-2.6,1.33c-.05.03-.1.06-.14.1l-2.51,2.65-1.11-2.88s-.01-.04-.02-.05l-2.72-5.37s-.05-.08-.08-.12l-1.69-1.81s-.1-.09-.16-.11l-7.71-3.5,1.02-2.72,1.22-2.54,1.32,1.35s.1.08.15.11l9.37,4.25s.09.03.14.04l3.07.43s.05,0,.07,0c.07,0,.13-.01.19-.04l2.66-1.11c.06-.02.11-.06.16-.1l3.32-3.19,3.14-3.3c.06-.06.1-.13.12-.21l.27-.95,2.09,4.19,1.26,3.3-3.08,2.97ZM157.66,30.54l-3.04,3.2-3.23,3.11-2.45,1.02-2.86-.4-9.22-4.18-1.37-1.41.56-1.58,3.24-3.09,3.09-3.23,2.37-1.2,2.78.31,9.22,4.15,1.42,1.51-.52,1.8ZM133.88,19.8l-3.05,3.18-3.25,3.08-2.45,1.01-2.84-.4-9.15-4.15-1.35-1.4.57-1.56,3.25-3.07,3.1-3.21,2.37-1.2,2.77.31,9.15,4.12,1.4,1.49-.52,1.78ZM75.01,20.76l3.13-3.21,2.39-1.2,2.76.31,1.39.63s0,0,0,0l7.71,3.5,1.39,1.49-.55,1.79-3.09,3.18-3.29,3.09-2.47,1.01-2.84-.4-9.1-4.16-1.33-1.4.6-1.57,3.29-3.08ZM68.68,30.69l.73-1.91,1.16-2.48,1.22,1.28s.1.08.16.11l9.26,4.23s.09.03.14.04l3.05.42s.05,0,.07,0c.07,0,.13-.01.19-.04l2.68-1.1c.06-.02.11-.06.15-.1l3.37-3.17,3.19-3.29c.06-.06.1-.13.12-.2l.3-1,2.19,4.24,1.2,3.03-3.35,3.18s-.08.1-.11.15l-2.37,5.04s-.01.03-.02.04l-1.3,3.51-.36-.17s-.09-.03-.14-.04l-3.06-.45c-.09-.01-.18,0-.26.03l-2.68,1.06c-.05.02-.1.05-.15.09l-2.48,2.18-1.28-3.03s-.01-.03-.02-.05l-2.44-4.46s-.05-.08-.08-.11l-1.63-1.69s-.1-.08-.15-.11l-7.89-3.61.59-1.63ZM61.05,33.19l2.48-.97,2.84.42,9.11,4.17,1.34,1.39-.58,1.53-6.64,5.83-2.49.98-2.85-.42-9.13-4.2-1.33-1.4.6-1.53,6.66-5.8ZM51.37,45.79l.74-1.91,1.14-2.46,1.21,1.27s.1.08.15.11l9.28,4.27s.09.03.14.04l3.06.45s.05,0,.07,0c.06,0,.13-.01.19-.04l2.69-1.06c.05-.02.1-.05.15-.09l6.8-5.97c.06-.05.11-.12.14-.2l.35-.92,1.85,3.37,1.45,3.42-3.52,3.1c-.05.05-.09.1-.12.17h0s-.95,2.02-.95,2.02c0,.01-.01.02-.02.04l-1.39,2.95-.64,1.69-.71,1.92-.41-.19s-.09-.03-.13-.04l-3.08-.5c-.08-.01-.17,0-.25.02l-2.73.96s-.09.04-.13.07l-2.6,1.9-1.11-2.62s-.01-.03-.02-.05l-2.49-4.51h0s-.05-.07-.08-.11l-1.62-1.67s-.09-.08-.15-.11l-7.88-3.64.62-1.71ZM37.11,52.51l3.06-1.85s.02-.01.03-.02l3.36-2.42,2.54-.89,2.87.47,9.14,4.22,1.32,1.36-.6,1.42-3.28,2.38-3.07,1.87-2.4.39-2.87-.69-9.24-4.28-1.29-1.13.43-.83ZM33.64,60.89l2.62-6.58,1.11.97s.08.06.12.08l9.35,4.33s.06.03.09.03l3.01.72c.06.02.13.02.2,0l2.6-.42c.06-.01.13-.03.18-.07l3.17-1.93s.02-.01.03-.02l3.41-2.48c.07-.05.13-.13.17-.21l.38-.9,1.92,3.47,1.25,2.91-3.1,1.9c-.08.05-.15.12-.19.21l-.66,1.32s-.01.02-.02.04l-2.94,7.27s0,.02-.01.04l-.56,1.77-.26-.12s-.09-.03-.14-.04l-3.08-.46c-.09-.01-.18,0-.26.03l-2.72,1.08c-.05.02-.1.05-.15.09l-2.37,2.09-1.32-3.06s-.01-.03-.02-.04l-2.51-4.47s-.04-.07-.07-.1l-1.63-1.73s-.1-.08-.15-.11l-8.04-3.74.59-1.87ZM26.04,63.68l2.52-.99,2.86.43,9.15,4.26,1.34,1.43-.61,1.57-6.79,5.95-2.53,1-2.88-.43-9.17-4.29-1.33-1.43.63-1.58,6.8-5.92ZM13.72,85.28l.91-4.41,1.57-4.41.78-1.95,1.11-2.41,1.19,1.27s.1.09.16.11l9.32,4.36s.09.03.14.04l3.08.46s.05,0,.07,0c.06,0,.13-.01.19-.04l2.73-1.09c.05-.02.1-.05.15-.09l6.95-6.09c.06-.05.11-.12.14-.2l.39-.99,1.91,3.41,1.5,3.43-3.77,3.32c-.05.05-.1.1-.12.17l-2.35,5.03-.78,2.01-1.61,4.46s-.01.04-.02.07l-.95,4.47s0,.03,0,.05l-.17,1.59-.48.42-2.51,1-2.86-.43-15.74-7.42-1.38-1.5.47-4.67ZM12.35,90.47l1.61,1.73s.1.09.16.11l3.91,1.84,1.09,1.42c.05.06.11.11.19.15l9.78,4.61c.05.02.11.04.17.05l3.54.35s.03,0,.05,0c.07,0,.15-.02.21-.05l3.02-1.39-.2,1.91c-.02.15.03.29.13.4l1.63,1.75s.1.09.15.11l3.89,1.83,1.11,1.43c.05.06.11.11.18.15l9.85,4.64c.05.02.11.04.17.05l3.56.35s.03,0,.04,0c.08,0,.17-.02.24-.05l3.1-1.44-.22,1.99c-.02.15.03.29.13.4l.1.11-.38.3,1.22,1.55c.05.06.11.11.18.14l32.94,15.94,3.05,1.44,29.25,13.55.85.4c.07.03.14.05.22.05.05,0,.09,0,.14-.02l2.19-.63s0,0,.01,0c.07,0,.13-.01.19-.04l.17-.07,2.33-.67-.07-.26.3-.12c.06-.02.11-.06.15-.1l11.67-10.78c.06-.06.11-.13.13-.21l.37-1.07,1.8.27s.05,0,.08,0c.07,0,.13-.01.19-.04l4.63-1.89c.06-.02.11-.06.15-.1l8.11-7.5c.06-.06.11-.13.13-.21l1.19-3.47c.06-.18.02-.38-.11-.52l-.35-.36.87-.81c.06-.06.11-.13.14-.21l.35-1.01,1.76.26s.05,0,.08,0c.07,0,.13-.01.19-.04l4.6-1.87c.06-.02.11-.06.15-.1l8.03-7.42c.06-.06.11-.13.14-.21l1.17-3.44c.06-.18.02-.38-.12-.52l-.34-.35.9-.83c.06-.06.11-.13.14-.21l.33-.96,1.73.26s.05,0,.07,0c.07,0,.13-.01.19-.04l4.56-1.86c.06-.02.11-.06.15-.1l7.95-7.35c.06-.06.11-.13.13-.21l1.14-3.41c.06-.18.01-.38-.12-.52l-.34-.35.92-.85c.06-.06.11-.13.14-.21l.31-.91,1.69.25s.05,0,.07,0c.06,0,.13-.01.19-.04l4.53-1.84c.06-.02.11-.06.15-.1l7.86-7.27c.06-.06.11-.13.14-.21l1.12-3.37c.06-.18.01-.38-.12-.52l-.34-.34.94-.86c.06-.06.11-.13.14-.21l.65-1.96c.02-.07.03-.14.02-.22l-.52-4.78s0-.03,0-.05l-.9-4.22s-.01-.05-.02-.07l-1.5-4.06s-.01-.03-.02-.05l-2.63-5.38s-.05-.09-.09-.13l-1.73-1.81s-.1-.09-.16-.11l-9.52-4.29s-.1-.04-.15-.04l-3.04-.34c-.1-.01-.2,0-.29.05l-2.59,1.32c-.05.03-.1.06-.14.1l-2.62,2.79-1.13-3.01s-.01-.03-.02-.05l-2.65-5.37s-.05-.09-.09-.13l-1.71-1.8s-.1-.09-.16-.11l-9.45-4.26s-.1-.04-.15-.04l-1.51-.17s-.03,0-.03,0l-1.48-.17c-.1-.01-.2,0-.29.05l-2.58,1.32c-.05.03-.1.06-.14.1l-2.56,2.7-1.1-2.89s-.01-.03-.02-.05l-2.68-5.37s-.05-.09-.08-.12l-1.69-1.79s-.1-.09-.16-.11l-9.38-4.23s-.1-.04-.15-.04l-3.01-.33c-.1-.01-.2,0-.28.05l-2.58,1.31c-.05.03-.1.06-.14.1l-2.5,2.62-1.07-2.76s-.01-.03-.02-.05l-2.71-5.37h0s-.05-.08-.08-.12l-1.67-1.78s-.1-.09-.16-.11l-9.31-4.2s-.1-.04-.15-.04l-3-.33c-.1-.01-.2,0-.28.05l-2.58,1.3c-.05.03-.1.06-.14.1l-2.45,2.53-1.03-2.65s-.01-.03-.02-.04l-2.73-5.36h0s-.05-.08-.08-.12l-1.65-1.76s-.1-.09-.16-.12l-.62-.28,4.16-3.64,68.39,30.75h0s8.53,3.84,8.53,3.84c0,0,0,0,0,0l51.11,22.98-109.9,102.04L1.42,99.11l10.84-9.49-.05.45c-.01.14.03.29.13.39ZM1.04,100.05l130.14,61.59-.02,13.41L1.43,113.36l-.39-13.31Z"/>
  </g>
</svg>