<?xml version="1.0" encoding="UTF-8"?>
<svg id="Layer_2" data-name="Layer 2" xmlns="http://www.w3.org/2000/svg" viewBox="0 0 71 298.89">
  <g id="Layer_1-2" data-name="Layer 1">
    <path d="M24.34,32.56H8.21c-4.54,0-8.21,3.68-8.21,8.21v22.02c0,4.54,3.68,8.21,8.21,8.21H24.34c4.54,0,8.21,3.68,8.21,8.21v10.24c0,4.54-3.68,8.21-8.21,8.21H8.21c-4.54,0-8.21,3.68-8.21,8.21v22.02c0,4.54,3.68,8.21,8.21,8.21H24.34c4.54,0,8.21,3.68,8.21,8.21v10.24c0,4.54-3.68,8.21-8.21,8.21H8.21c-4.54,0-8.21,3.68-8.21,8.21v22.02c0,4.54,3.68,8.21,8.21,8.21H24.34c4.54,0,8.21,3.68,8.21,8.21v10.24c0,4.54-3.68,8.21-8.21,8.21H8.21c-4.54,0-8.21,3.68-8.21,8.21v22.02c0,4.54,3.68,8.21,8.21,8.21H24.34c4.54,0,8.21,3.68,8.21,8.21v16.13c0,4.54,3.68,8.21,8.21,8.21h22.02c4.54,0,8.21-3.68,8.21-8.21v-22.02c0-4.54-3.68-8.21-8.21-8.21h-16.13c-4.54,0-8.21-3.68-8.21-8.21v-10.24c0-4.54,3.68-8.21,8.21-8.21h16.13c4.54,0,8.21-3.68,8.21-8.21v-22.02c0-4.54-3.68-8.21-8.21-8.21h-16.13c-4.54,0-8.21-3.68-8.21-8.21v-10.24c0-4.54,3.68-8.21,8.21-8.21h16.13c4.54,0,8.21-3.68,8.21-8.21v-22.02c0-4.54-3.68-8.21-8.21-8.21h-16.13c-4.54,0-8.21-3.68-8.21-8.21v-10.24c0-4.54,3.68-8.21,8.21-8.21h16.13c4.54,0,8.21-3.68,8.21-8.21v-22.02c0-4.54-3.68-8.21-8.21-8.21h-16.13c-4.54,0-8.21-3.68-8.21-8.21v-10.24c0-4.54,3.68-8.21,8.21-8.21h16.13c4.54,0,8.21-3.68,8.21-8.21V8.21c0-4.54-3.68-8.21-8.21-8.21h-22.02c-4.54,0-8.21,3.68-8.21,8.21V24.34c0,4.54-3.68,8.21-8.21,8.21Z"/>
  </g>
</svg>