<?xml version="1.0" encoding="UTF-8"?>
<svg id="Layer_2" data-name="Layer 2" xmlns="http://www.w3.org/2000/svg" viewBox="0 0 111.69 112.1">
  <g id="Layer_1-2" data-name="Layer 1">
    <polygon points="100.79 90.41 69.38 99.74 77.5 81.53 67.49 80.36 54.73 66.81 95.66 84.36 111.69 52.94 93.62 80.28 88.14 61.11 79.72 66.65 61.24 64.47 103.87 51.6 95.95 17.24 99.69 49.79 83.17 38.63 80.27 48.29 64.71 58.49 89.11 21.23 60.95 0 84.74 22.54 64.91 24.6 68.9 33.86 63.54 51.68 58.27 7.46 23.05 9.29 55.76 11.27 41.9 25.6 50.91 30.13 58.26 47.22 25.8 16.73 0 40.77 26.33 21.26 24.92 41.15 34.73 38.83 51.35 47.2 6.88 44.7 2.57 79.7 10.2 47.84 21.9 63.98 27.93 55.89 46.04 51.62 10.37 78.29 29.57 107.88 14.92 78.56 34.27 83.4 33.68 73.34 44.81 58.42 34.64 101.78 68.36 112.1 38.3 99.06 56.22 90.34 49.31 83 48.25 64.42 68.32 104.18 100.79 90.41"/>
  </g>
</svg>