<?xml version="1.0" encoding="UTF-8"?>
<svg id="Layer_2" data-name="Layer 2" xmlns="http://www.w3.org/2000/svg" viewBox="0 0 91.23 205.28">
  <g id="Layer_1-2" data-name="Layer 1">
    <g>
      <path d="M91.23,7.61c0-.49-.05-.99-.15-1.47-.05-.24-.14-.46-.2-.69-.07-.25-.13-.49-.23-.73-.11-.27-.27-.52-.41-.78-.1-.18-.18-.36-.29-.53-.56-.84-1.28-1.56-2.12-2.12-.18-.12-.38-.21-.57-.31-.25-.14-.48-.28-.74-.39-.25-.1-.51-.16-.76-.24-.22-.07-.43-.15-.66-.2-.49-.1-.99-.15-1.49-.15H12.26c-4.22,0-7.63,3.42-7.63,7.63s3.42,7.63,7.63,7.63h52.91L10.38,70.05c-2.98,2.98-2.98,7.81,0,10.8,1.49,1.49,3.44,2.24,5.4,2.24s3.91-.75,5.4-2.24L75.97,26.06v52.91c0,4.22,3.42,7.63,7.63,7.63s7.63-3.42,7.63-7.63V7.63s0-.01,0-.02Z"/>
      <path d="M78.98,118.67c-4.22,0-7.63,3.42-7.63,7.63v52.91L16.55,124.43c-2.98-2.98-7.82-2.98-10.8,0-2.98,2.98-2.98,7.81,0,10.8l54.79,54.79H7.63c-4.22,0-7.63,3.42-7.63,7.63s3.42,7.63,7.63,7.63H78.98c.5,0,1-.05,1.49-.15,.23-.05,.44-.13,.66-.2,.26-.08,.51-.13,.76-.24,.26-.11,.5-.26,.75-.39,.19-.1,.38-.19,.57-.31,.84-.56,1.56-1.28,2.12-2.12,.12-.17,.19-.36,.3-.54,.14-.25,.29-.5,.41-.77,.1-.24,.16-.5,.23-.75,.07-.23,.15-.44,.2-.68,.1-.49,.15-.99,.15-1.49V126.31c0-4.22-3.42-7.63-7.63-7.63Z"/>
    </g>
  </g>
</svg>