<?xml version="1.0" encoding="UTF-8"?>
<svg id="Layer_2" data-name="Layer 2" xmlns="http://www.w3.org/2000/svg" viewBox="0 0 133.75 204.32">
  <g id="Layer_1-2" data-name="Layer 1">
    <path d="M127.48,94.3c-3.2,0-5.75,2.45-6.12,5.55h-6.11v-3.14h-23.12v3.14h-5.96v-17.58l6.85-6.85c.29,.14,.6,.23,.94,.23,1.21,0,2.19-.98,2.19-2.19s-.98-2.19-2.19-2.19-2.19,.98-2.19,2.19c0,.34,.09,.65,.23,.94l-6.85,6.85h-17.58v-7.18h3.14v-23.12h-3.14V12.38c3.1-.37,5.55-2.92,5.55-6.12,0-3.46-2.81-6.26-6.26-6.26s-6.26,2.81-6.26,6.26c0,3.2,2.45,5.75,5.55,6.12V50.95h-3.14v23.12h3.14v7.18h-17.73l-6.76-6.76c.17-.31,.29-.65,.29-1.03,0-1.21-.98-2.19-2.19-2.19s-2.19,.98-2.19,2.19,.98,2.19,2.19,2.19c.3,0,.59-.06,.85-.17l6.94,6.94v17.43h-5.96v-3.14H18.49v3.14h-6.11c-.37-3.1-2.92-5.55-6.12-5.55-3.46,0-6.26,2.81-6.26,6.26s2.81,6.26,6.26,6.26c3.2,0,5.75-2.45,6.12-5.55h6.11v3.14h23.12v-3.14h5.96v17.48l-6.99,6.99c-.25-.1-.51-.16-.79-.16-1.21,0-2.19,.98-2.19,2.19s.98,2.19,2.19,2.19,2.19-.98,2.19-2.19c0-.4-.13-.75-.32-1.07l6.84-6.84h17.68v7.76h-3.14v23.12h3.14v41.2c-3.1,.37-5.55,2.92-5.55,6.12,0,3.46,2.81,6.26,6.26,6.26s6.26-2.81,6.26-6.26c0-3.2-2.45-5.74-5.55-6.12v-41.2h3.14v-23.12h-3.14v-7.76h17.42l6.99,6.99c-.13,.28-.22,.59-.22,.92,0,1.21,.98,2.19,2.19,2.19s2.19-.98,2.19-2.19-.98-2.19-2.19-2.19c-.35,0-.67,.1-.96,.25l-6.83-6.83v-17.73h5.96v3.14h23.12v-3.14h6.11c.37,3.1,2.92,5.55,6.12,5.55,3.45,0,6.26-2.81,6.26-6.26s-2.81-6.26-6.26-6.26ZM6.26,105.39c-2.66,0-4.83-2.17-4.83-4.83s2.17-4.83,4.83-4.83,4.83,2.17,4.83,4.83-2.17,4.83-4.83,4.83ZM62.04,6.26c0-2.66,2.17-4.83,4.83-4.83s4.83,2.17,4.83,4.83c0,2.43-1.83,4.36-4.17,4.69h-1.33c-2.34-.34-4.17-2.27-4.17-4.69Zm9.66,191.8c0,2.66-2.17,4.83-4.83,4.83s-4.83-2.17-4.83-4.83,2.17-4.83,4.83-4.83,4.83,2.17,4.83,4.83Zm13.04-79.63H49v-35.75h35.75v35.75Zm42.74-13.04c-2.66,0-4.83-2.17-4.83-4.83s2.17-4.83,4.83-4.83,4.83,2.17,4.83,4.83-2.17,4.83-4.83,4.83Z"/>
  </g>
</svg>