<?xml version="1.0" encoding="UTF-8"?>
<svg id="Layer_2" data-name="Layer 2" xmlns="http://www.w3.org/2000/svg" viewBox="0 0 131.96 206.93">
  <g id="Layer_1-2" data-name="Layer 1">
    <path d="M58.64,85.73c-.84,.35-1.8,.16-2.44-.49l-17.39-17.39c-1.12-1.12-2.62-1.74-4.2-1.74-1.59,0-3.08,.62-4.2,1.74l-.9,.9c-1.78,1.77-1.78,4.88,0,6.65l18.28,18.28c.64,.64,.83,1.6,.49,2.44-.35,.84-1.16,1.38-2.07,1.38H5.95c-3.28,0-5.95,2.67-5.95,5.95,0,3.31,2.67,5.98,5.95,5.98H46.18c.91,0,1.72,.54,2.07,1.38,.34,.84,.16,1.79-.49,2.44l-18.27,18.27c-1.78,1.77-1.78,4.88,0,6.65l.9,.9c1.12,1.12,2.62,1.74,4.2,1.74,1.59,0,3.08-.62,4.2-1.74l17.4-17.39c.64-.64,1.6-.83,2.44-.49,.84,.35,1.38,1.16,1.38,2.07v77.72c0,3.28,2.67,5.95,5.95,5.95s5.98-2.67,5.98-5.95V123.27c0-.91,.54-1.72,1.38-2.07,.84-.35,1.8-.16,2.44,.49l17.4,17.4c1.12,1.12,2.62,1.74,4.2,1.74,1.59,0,3.08-.62,4.2-1.74l.9-.9c1.78-1.77,1.78-4.88,0-6.65l-18.27-18.28c-.43-.43-.66-1-.66-1.58,0-.29,.06-.58,.17-.86,.35-.84,1.16-1.38,2.07-1.38h40.23c3.28,0,5.95-2.67,5.95-5.95v-.03c0-3.28-2.67-5.95-5.95-5.95h-40.23c-.91,0-1.72-.54-2.07-1.38-.35-.84-.16-1.8,.49-2.44l18.28-18.28c1.78-1.77,1.78-4.88,0-6.65l-.9-.9c-1.12-1.12-2.62-1.74-4.2-1.74s-3.08,.62-4.2,1.74l-17.4,17.4c-.64,.64-1.6,.83-2.44,.49-.84-.35-1.38-1.16-1.38-2.07V5.95c0-3.28-2.67-5.95-5.95-5.95-3.31,0-5.98,2.67-5.98,5.95V83.66c0,.91-.54,1.72-1.38,2.07ZM62.01,5.95c0-2.18,1.78-3.96,3.96-3.96,2.22,0,3.99,1.78,3.99,3.96V89.11c0,.82,.45,1.5,1.22,1.82,.76,.31,1.56,.16,2.15-.43l21.25-21.25c.75-.75,1.74-1.16,2.8-1.16s2.05,.41,2.8,1.16c1.55,1.55,1.52,4.13,.03,5.62l-21.25,21.25c-.58,.58-.74,1.39-.43,2.15,.32,.76,1,1.22,1.82,1.22h45.68c2.18,0,3.96,1.78,3.96,3.96,0,2.22-1.78,3.99-3.96,3.99h-45.68c-.82,0-1.5,.45-1.82,1.22-.31,.76-.16,1.56,.43,2.15l21.25,21.25c1.49,1.49,1.49,4.1,0,5.6-.77,.77-1.77,1.18-2.82,1.18-1.06,0-2.05-.41-2.8-1.16l-21.25-21.25c-.58-.58-1.39-.74-2.15-.43-.76,.32-1.22,1-1.22,1.82v83.17c0,2.18-1.78,3.96-3.96,3.96-2.22,0-3.99-1.78-3.99-3.96V117.82c0-.82-.45-1.5-1.22-1.82-.76-.31-1.56-.16-2.15,.43l-21.25,21.25c-.75,.75-1.74,1.16-2.8,1.16-1.06,0-2.05-.41-2.8-1.16-1.55-1.55-1.52-4.13-.03-5.62l21.25-21.25c.58-.58,.74-1.39,.43-2.15-.32-.76-1-1.22-1.82-1.22H5.95c-2.18,0-3.96-1.78-3.96-3.96s1.78-3.99,3.96-3.99H51.63c.82,0,1.5-.45,1.82-1.22,.31-.76,.16-1.56-.43-2.15l-21.25-21.25c-1.49-1.49-1.49-4.1,0-5.6,.77-.77,1.77-1.18,2.82-1.18,1.06,0,2.05,.41,2.8,1.16l21.25,21.25c.58,.58,1.39,.74,2.15,.43,.76-.32,1.22-1,1.22-1.82V5.95Z"/>
  </g>
</svg>