<?xml version="1.0" encoding="UTF-8"?>
<svg id="Layer_2" data-name="Layer 2" xmlns="http://www.w3.org/2000/svg" viewBox="0 0 81.7 81.7">
  <g id="Layer_1-2" data-name="Layer 1">
    <path d="M81.7,40.77h-9.15v-.52h-12c-.29-10.42-8.72-18.84-19.15-19.09V8.87h-.47V0h-.16V8.87h-.47v12.28c-10.39,.32-18.78,8.74-19.04,19.15H8.44v.47H0v.16H8.44v.47h12.82c.31,10.36,8.68,18.72,19.03,19.03v12.31h.47v8.96h.16v-8.96h.47v-12.3c10.43-.26,18.86-8.68,19.15-19.09h12v-.41h9.15v-.16Zm-22.03-.52h-.06v.52h-14.99c-.01-2.03-1.66-3.67-3.68-3.68v-15.06c10.16,.01,18.44,8.13,18.73,18.22Zm-18.9-18.22v15.07c-1.98,.07-3.56,1.69-3.57,3.68h-15.06c.01-10.29,8.35-18.67,18.63-18.74Zm-18.63,18.91h15.06c.07,1.94,1.63,3.49,3.57,3.57v15.06c-10.24-.07-18.56-8.39-18.63-18.63Zm18.79,18.63v-15.06c1.99-.01,3.6-1.59,3.68-3.57h15v.41h.06c-.29,10.09-8.58,18.21-18.73,18.22Z"/>
  </g>
</svg>