<?xml version="1.0" encoding="UTF-8"?>
<svg id="Layer_2" data-name="Layer 2" xmlns="http://www.w3.org/2000/svg" viewBox="0 0 83.27 83.27">
  <g id="Layer_1-2" data-name="Layer 1">
    <g>
      <path d="M21.02,38.61H7.86c-1,0-1.82-.81-1.82-1.82v-10.21c0-1-.81-1.82-1.82-1.82H1.82c-1,0-1.82,.81-1.82,1.82v30.09c0,1,.81,1.82,1.82,1.82h2.41c1,0,1.82-.81,1.82-1.82v-10.21c0-1,.81-1.82,1.82-1.82h13.16c1,0,1.82-.81,1.82-1.82v-2.41c0-1-.81-1.82-1.82-1.82Z"/>
      <path d="M81.46,24.77h-2.41c-1,0-1.82,.81-1.82,1.82v10.21c0,1-.81,1.82-1.82,1.82h-13.16c-1,0-1.82,.81-1.82,1.82v2.41c0,1,.81,1.82,1.82,1.82h13.16c1,0,1.82,.81,1.82,1.82v10.21c0,1,.81,1.82,1.82,1.82h2.41c1,0,1.82-.81,1.82-1.82V26.59c0-1-.81-1.82-1.82-1.82Z"/>
      <path d="M56.68,77.23h-10.21c-1,0-1.82-.81-1.82-1.82v-13.16c0-1-.81-1.82-1.82-1.82h-2.41c-1,0-1.82,.81-1.82,1.82v13.16c0,1-.81,1.82-1.82,1.82h-10.21c-1,0-1.82,.81-1.82,1.82v2.41c0,1,.81,1.82,1.82,1.82h30.09c1,0,1.82-.81,1.82-1.82v-2.41c0-1-.81-1.82-1.82-1.82Z"/>
      <path d="M56.68,0H26.59c-1,0-1.82,.81-1.82,1.82v2.41c0,1,.81,1.82,1.82,1.82h10.21c1,0,1.82,.81,1.82,1.82v13.16c0,1,.81,1.82,1.82,1.82h2.41c1,0,1.82-.81,1.82-1.82V7.86c0-1,.81-1.82,1.82-1.82h10.21c1,0,1.82-.81,1.82-1.82V1.82c0-1-.81-1.82-1.82-1.82Z"/>
    </g>
  </g>
</svg>