<?xml version="1.0" encoding="UTF-8"?>
<svg id="Layer_2" data-name="Layer 2" xmlns="http://www.w3.org/2000/svg" viewBox="0 0 101.38 101.49">
  <defs>
    <style>
      .cls-1 {
        stroke: #787878;
        stroke-miterlimit: 10;
      }
    </style>
  </defs>
  <g id="Layer_1-2" data-name="Layer 1">
    <path class="cls-1" d="M100.74,48.48c-.21-1.83-.37-3.66-.6-5.49-.16-1.26-.29-2.54-.62-3.75-.56-2.06-1.26-4.09-1.92-6.13-.35-1.08-.64-2.21-1.15-3.21-1.01-1.98-2.14-3.9-3.26-5.82-.89-1.52-1.67-3.1-2.97-4.35-1.02-.99-1.84-2.19-2.84-3.21-1.32-1.35-2.7-2.67-4.12-3.91-.94-.82-2.03-1.45-3.01-2.22-2.53-1.99-5.25-3.74-8.17-5.03-3.22-1.41-6.46-2.83-9.96-3.63-3.56-.81-7.15-.99-10.74-1.2-1.89-.11-3.8,.14-5.7,.23,0-.03-.01-.06-.02-.1-1.6,.24-3.2,.43-4.79,.74-1.67,.33-3.33,.72-4.96,1.21-1.12,.33-2.16,.91-3.25,1.31-3.06,1.12-5.92,2.64-8.68,4.35-1.58,.98-3.05,2.12-4.54,3.23-1.29,.97-2.64,1.91-3.77,3.05-1.86,1.88-3.56,3.9-5.31,5.88-.35,.4-.65,.86-.92,1.32-.92,1.56-1.84,3.12-2.72,4.7-1.01,1.83-2.17,3.59-2.72,5.65-.45,1.72-.95,3.44-1.61,5.08-1.08,2.7-1.17,5.54-1.46,8.36-.12,1.12-.25,2.25-.32,3.38-.07,1.11-.17,2.24-.09,3.35,.12,1.81,.36,3.62,.56,5.42,.13,1.15,.12,2.33,.42,3.43,.6,2.26,1.34,4.49,2.07,6.71,.45,1.39,.87,2.81,1.48,4.12,.72,1.52,1.61,2.97,2.47,4.41,.93,1.55,1.8,3.16,2.91,4.57,1.66,2.11,3.46,4.11,5.31,6.06,.97,1.02,2.14,1.85,3.27,2.7,1.74,1.31,3.41,2.79,5.32,3.79,4.81,2.53,9.59,5.18,15.02,6.24,1.82,.36,3.61,.88,5.51,.84,1.08-.03,2.16,.18,3.24,.26,.94,.07,1.87,.16,2.81,.14,1.03-.03,2.06-.22,3.09-.26,2.12-.09,4.24-.09,6.32-.6,1.64-.4,3.37-.52,4.92-1.13,2.89-1.12,5.69-2.47,8.5-3.77,1.22-.56,2.46-1.14,3.58-1.87,1.62-1.06,3.15-2.25,4.69-3.42,1.21-.92,2.5-1.78,3.56-2.85,1.68-1.7,3.22-3.55,4.79-5.35,.51-.59,1.03-1.19,1.44-1.86,1.01-1.65,1.98-3.33,2.9-5.03,.85-1.57,1.69-3.14,2.38-4.78,.59-1.41,.9-2.94,1.42-4.39,1.04-2.9,1.71-5.87,1.83-8.96,.04-1.08,.13-2.17,.32-3.23,.3-1.67,.31-3.33,.11-5ZM50.57,7.19c-.54,.06-1.02,.14-1.5,.16-2.27,.11-4.55,.2-6.82,.31-1.73,.09-3.45,.19-5.18,.3-.54,.03-1.07,.12-1.79,.2,.65-.8,1.2-1.48,1.75-2.15,.45-.55,.94-1.08,1.35-1.66,.53-.76,1.35-.65,2.07-.7,2.17-.16,4.35-.21,6.52-.33,1.1-.06,2.21-.17,3.37-.27,.07,1.36,.14,2.7,.22,4.13ZM28.84,26.05c1.58-.08,3.17-.12,4.75-.17,3.37-.1,6.74-.2,10.11-.31,1.31-.04,2.62-.08,3.93-.14,.93-.04,1.87-.12,2.86-.19v11.55c-.54,0-1.08,0-1.62,0-4.32,.05-8.65,.1-12.97,.16-2.58,.04-5.16,.09-7.74,.15-.48,.01-.96,.1-1.59,.17,.2-1.29,.37-2.43,.55-3.56,.33-2,.67-4.01,1-6.01,.07-.41,.06-.84,.18-1.23,.06-.18,.34-.4,.54-.41Zm-.34-.55c.66-2.18,1.26-4.16,1.85-6.15,.22-.75,.43-1.5,.62-2.26,.24-.91,.4-1.02,1.67-1.07,1.06-.04,2.12-.11,3.19-.15,1.61-.06,3.22-.09,4.83-.15,2.47-.1,4.94-.2,7.42-.31,.78-.04,1.57-.12,2.41-.19v9.4c-.83,.07-1.65,.19-2.48,.21-2.33,.07-4.66,.09-6.99,.16-3.22,.09-6.44,.19-9.65,.31-.91,.03-1.81,.13-2.86,.2Zm20.2-10.68c-2.84,.12-5.69,.2-8.54,.31-2.02,.08-4.05,.19-6.07,.29-.81,.04-1.62,.13-2.62,.21,.96-1.93,1.96-3.63,2.67-5.45,.54-1.39,1.36-1.65,2.73-1.66,2.96-.02,5.93-.26,8.89-.42,1.57-.09,3.14-.22,4.75-.33v6.87c-.59,.06-1.2,.16-1.8,.19Zm-17.64,.44c-.35,.73-1.08,.48-1.62,.59-2.3,.45-4.62,.81-6.93,1.2-1.57,.26-3.13,.52-4.7,.77-.13,.02-.27-.02-.52-.04,.95-1.19,1.83-2.3,2.71-3.41,.54-.67,1.12-1.32,1.58-2.03,.7-1.07,1.67-1.49,2.9-1.71,3.01-.52,5.99-1.16,8.99-1.75,.19-.04,.39,0,.67,0-1.06,2.2-2.08,4.29-3.08,6.39Zm-12.07,2.85c2.95-.45,5.88-.99,8.82-1.47,.87-.14,1.74-.23,2.81-.37-.34,1.18-.64,2.2-.94,3.22-.52,1.8-1.05,3.6-1.57,5.4-.14,.48-.41,.67-.94,.72-1.46,.13-2.91,.37-4.37,.55-1.34,.17-2.68,.31-4.01,.48-1.51,.19-3.01,.39-4.51,.58-.6,.07-1.2,.11-1.91,.17,1.17-2.39,2.27-4.68,3.39-6.96,1-2.02,1.01-1.97,3.22-2.31Zm8.77,7.98c-.61,3.79-1.2,7.43-1.79,11.12-5.56,.39-11.13,.78-16.75,1.18,.95-3.45,1.89-6.88,2.86-10.38,5.14-.63,10.32-1.26,15.69-1.92Zm-1.86,11.75c-.21,4.05-.42,8.03-.64,12.06-.78,.06-1.54,.17-2.29,.17-3.73,.02-7.47,0-11.2,.02-1.18,0-2.37,.11-3.67,.18,.33-3.77,.65-7.46,.98-11.26,5.55-.39,11.14-.77,16.82-1.17Zm-.64,12.98c.06,1.08,.12,2.23,.18,3.39,.07,1.38,.12,2.77,.19,4.15,.08,1.45,.19,2.89,.29,4.5-2.02-.12-3.89-.23-5.76-.35-.15,0-.3-.01-.45-.02-1.68-.05-3.37-.08-5.05-.16-1.85-.09-3.69-.23-5.6-.35-.32-3.65-.64-7.34-.98-11.16H25.26Zm-11.09,12.1c1.06,.06,2.12,.12,3.18,.16,1.56,.06,3.12,.1,4.67,.16,1.14,.04,2.27,.07,3.41,.17,.21,.02,.54,.33,.58,.55,.38,2.04,.73,4.09,1.05,6.14,.24,1.52,.45,3.04,.67,4.58-5.21-.54-10.42-1.07-15.71-1.62-.95-3.48-1.89-6.93-2.86-10.47,1.71,.12,3.36,.23,5,.33Zm28.15,12.25c-.91,0-1.83-.11-2.74-.14-2.53-.06-5.06-.09-7.59-.16-1.21-.03-2.41-.14-3.65-.22-.58-3.65-1.17-7.33-1.79-11.18,8.03,.11,15.96,.23,23.94,.34v11.36c-2.77,0-5.47,.01-8.17,0Zm8.16,.83v9.56c-2.39-.12-4.74-.24-7.08-.36-.07,0-.15,0-.22,0-2.03-.05-4.07-.08-6.1-.16-1.83-.07-3.65-.19-5.47-.31-.17-.01-.43-.18-.47-.33-.87-2.94-1.71-5.89-2.55-8.83-.01-.04,.01-.1,.02-.13,1.06,0,2.12,0,3.17,0,.15,0,.29,.04,.44,.04,2.41,.05,4.81,.11,7.22,.16,2.51,.05,5.01,.08,7.52,.16,1.16,.03,2.32,.14,3.53,.22Zm-34.27-1.99c1.19,.12,2.39,.29,3.58,.42,1.73,.2,3.46,.39,5.19,.58,.71,.07,1.42,.17,2.14,.16,.57,0,.85,.23,.99,.74,.83,2.9,1.66,5.81,2.52,8.8-2.13-.33-4.25-.67-6.37-.98-1.87-.27-3.74-.52-5.61-.77-.44-.06-.88-.09-1.31-.17-.43-.09-.75-.27-.97-.73-1.25-2.63-2.55-5.24-3.83-7.86-.07-.15-.13-.31-.22-.52,1.34,.12,2.61,.21,3.88,.34Zm2.34,9.4c2.35,.34,4.69,.69,7.04,1.04,1.67,.25,3.34,.49,5,.76,.14,.02,.31,.16,.37,.29,1.09,2.26,2.18,4.53,3.28,6.83-2.82-.5-5.59-.98-8.35-1.47-.91-.16-1.85-.25-2.74-.5-.42-.12-.8-.52-1.09-.87-1.63-2.01-3.23-4.05-4.96-6.23,.58,.06,1.02,.09,1.45,.15Zm12.9,1.87c2.34,.12,4.48,.23,6.63,.35,.07,0,.15,0,.22,.01,1.93,.05,3.86,.08,5.79,.16,2.12,.09,4.24,.21,6.4,.33v7.05c-3.01-.12-6.01-.24-9.01-.37-1.95-.09-3.9-.17-5.84-.32-.33-.02-.8-.24-.94-.51-1.09-2.15-2.11-4.34-3.25-6.7Zm18.52-22.05c-.46-.04-.93-.13-1.39-.13-6.91-.06-13.82-.11-20.74-.17-.43,0-.87-.11-1.34-.17-.21-4.01-.42-8-.64-12.13h24.64v12.6c-.19,0-.36,.01-.53,0Zm-24.09-13.34c.21-3.97,.41-7.95,.63-12.19,3.14,0,6.21,.02,9.29,0,3.11-.03,6.21-.11,9.32-.15,1.78-.02,3.56,0,5.38,0v12.35H25.88ZM44.94,1.26c1.26-.07,2.52-.1,3.78-.16,.53-.03,1.06-.11,1.63-.17v1.62c-3.41,.22-6.8,.43-10.2,.64-.01-.04-.02-.09-.04-.13,.93-.52,1.82-1.13,2.8-1.53,.61-.25,1.34-.23,2.03-.27Zm-3.97,.64c-2.38,1.96-5.41,1.85-8.16,2.61,2.55-1.38,5.3-2.16,8.16-2.61Zm-9.19,3.39c2.02-.45,4.05-.88,6.25-1.35-.76,.93-1.44,1.76-2.12,2.6-.22,.27-.47,.51-.64,.8-.59,1.01-1.65,1.02-2.6,1.21-2.74,.57-5.5,1.1-8.25,1.64-.16,.03-.34,0-.66,0,1.9-1.48,3.61-2.93,5.44-4.18,.7-.48,1.71-.52,2.58-.72Zm-5.95,2.29c.05,.07,.1,.15,.15,.22-1.88,1.38-3.56,3.05-5.88,3.77,1.91-1.33,3.82-2.66,5.73-4Zm-12.93,10.77c1.17-1.33,2.34-2.67,3.55-3.97,.31-.33,.76-.52,1.17-.74,1.22-.65,2.45-1.29,3.77-1.85-.77,.98-1.54,1.95-2.32,2.93-.76,.96-1.52,1.92-2.3,2.87-.18,.22-.41,.43-.67,.56-1.48,.75-2.98,1.47-4.47,2.19-.08,.04-.19,.01-.46,.03,.64-.74,1.18-1.38,1.73-2.01Zm-3.16,3.85c.28-.5,.67-.77,1.17-1,1.64-.74,3.26-1.53,5.03-2.37-.14,.32-.22,.5-.31,.68-1.26,2.54-2.51,5.08-3.8,7.6-.13,.26-.44,.51-.72,.62-1.86,.7-3.73,1.37-5.7,2.08,1.48-2.61,2.92-5.1,4.32-7.62Zm-4.74,8.5c.04-.12,.16-.27,.28-.31,2-.71,4-1.4,6-2.09,.01,0,.04,.02,.13,.07-.48,1.73-.97,3.47-1.45,5.21-.36,1.31-.78,2.61-1.06,3.95-.16,.74-.52,1.07-1.22,1.21-1.65,.33-3.28,.69-4.93,1.03-.18,.04-.38-.01-.59-.02,.96-3.05,1.89-6.05,2.84-9.05Zm-3.04,9.76c2.22-.46,4.38-.9,6.56-1.35-.33,3.71-.65,7.39-.99,11.18H.93c.34-3.28,.68-6.55,1.02-9.82Zm-.13,19.63c-.15-1.73-.39-3.46-.57-5.19-.13-1.27-.22-2.54-.32-3.87,2.18-.08,4.33-.15,6.6-.23,.33,3.72,.65,7.37,.98,11.13-.98-.13-1.94-.26-2.91-.39-.92-.13-1.84-.29-2.76-.39-.89-.1-.95-.19-1.02-1.06Zm3.14,10.54c-.97-2.96-1.91-5.92-2.9-9.04,.93,.12,1.72,.2,2.51,.32,1.21,.18,2.41,.37,3.61,.59,.19,.03,.46,.21,.51,.37,.92,3.31,1.82,6.62,2.74,10.04-1.27-.38-2.46-.74-3.65-1.09-.77-.23-1.55-.42-2.31-.69-.21-.07-.44-.3-.51-.5Zm5.35,9.46c-.15-.06-.29-.21-.37-.35-1.5-2.63-2.99-5.26-4.47-7.89-.02-.03,0-.09,0-.2,1.04,.31,2.06,.61,3.07,.91,.91,.28,1.81,.55,2.71,.85,.17,.06,.38,.16,.45,.3,1.42,2.83,2.83,5.68,4.32,8.69-2.05-.82-3.88-1.55-5.7-2.3Zm7.61,7.99c-1.09-.46-1.86-1.23-2.58-2.13-.86-1.07-1.84-2.06-2.76-3.09-.58-.64-1.15-1.28-1.67-2.03,.75,.31,1.5,.62,2.25,.93,.88,.36,1.81,.63,2.62,1.1,.6,.35,1.1,.93,1.55,1.48,1.44,1.76,2.84,3.56,4.25,5.34-.02,.03-.04,.06-.06,.09-.23-.1-.46-.2-.68-.31-.97-.46-1.93-.97-2.92-1.39Zm1.28,1.25c3.12,.9,5.36,3.16,7.83,5.07-3.01-1.09-5.26-3.32-7.83-5.07Zm9.07,5.42c-1.52-1.19-3.03-2.39-4.55-3.59,.01-.06,.03-.12,.04-.18,1.31,.24,2.63,.48,3.94,.71,2.11,.38,4.23,.74,6.34,1.13,.23,.04,.51,.11,.64,.27,1.1,1.35,2.18,2.71,3.41,4.26-.89-.15-1.59-.26-2.28-.39-1.86-.38-3.72-.82-5.59-1.13-.82-.14-1.36-.62-1.95-1.08Zm3.71,1.9c1.31,.26,2.46,.48,3.62,.72,.55,.11,1.09,.33,1.63,.35,1.61,.04,2.67,1.17,4.04,1.85-1.38,.27-7.44-1.62-9.3-2.91Zm18.37,3.84c-1.67-.1-3.31-.2-4.95-.3-.12,0-.25-.07-.36-.05-1.54,.31-2.75-.47-3.96-1.22-.4-.25-.79-.52-1.34-.89,3.66,.21,7.11,.42,10.61,.62v1.83Zm.01-2.35c-1.09-.05-2.16-.09-3.22-.15-.24-.01-.49-.08-.73-.09-2.3-.1-4.59-.21-6.89-.3-.54-.02-.86-.34-1.17-.74-.95-1.25-1.94-2.46-2.92-3.69-.03-.03-.02-.09-.05-.21,1.46,.09,2.9,.18,4.34,.27,.12,0,.24,.03,.37,.04,1.58,.05,3.17,.08,4.75,.16,1.87,.09,3.74,.23,5.73,.35-.07,1.47-.14,2.9-.21,4.37Zm50.03-47.85h-6.35c-.34-3.76-.66-7.42-1-11.17,2.09,.44,4.17,.89,6.34,1.35,.34,3.26,.68,6.55,1.01,9.82Zm-34.69,42.23c-1.49,.06-2.97,.09-4.46,.15-3.11,.14-6.22,.3-9.34,.46-.21,.01-.42,.09-.74,.17v-7.12c.77-.07,1.54-.19,2.32-.22,1.88-.07,3.77-.1,5.65-.16,2.57-.09,5.15-.19,7.72-.31,1.04-.05,2.07-.13,3.24-.21-.35,.8-.64,1.49-.96,2.15-.67,1.39-1.41,2.75-2.04,4.15-.3,.66-.75,.91-1.4,.93Zm.61,.37c-.75,.94-1.36,1.71-1.97,2.48-.38,.48-.78,.94-1.15,1.44-.44,.59-1.02,.77-1.72,.8-2.22,.08-4.44,.18-6.66,.3-1.2,.06-2.4,.18-3.64,.28v-4.61c1.38,0,2.69,.04,3.99,0,3.08-.13,6.17-.29,9.25-.46,.56-.03,1.12-.12,1.91-.21Zm-14.97-56.14v-11.47c.69,.04,1.39,.08,2.1,.12,.15,0,.29,.04,.44,.05,2.46,.05,4.91,.09,7.37,.16,2.97,.09,5.94,.19,8.91,.3,1.06,.04,2.11,.14,3.17,.22,.61,3.66,1.22,7.33,1.85,11.07-7.94-.15-15.86-.3-23.84-.45Zm24,1.82c.05,.94,.11,1.87,.15,2.81,.06,1.51,.09,3.02,.16,4.53,.06,1.3,.16,2.61,.25,4h-24.56v-12.45c1.66,0,3.34,0,5.02,0,.19,0,.39,.07,.58,.07,4.22,.06,8.45,.1,12.67,.16,1.71,.03,3.42,.11,5.13,.14,.55,0,.57,.35,.59,.73Zm-2.25-13.07c-.96-.06-1.89-.12-2.81-.17-.12,0-.25-.01-.37-.02-2.46-.05-4.91-.09-7.37-.16-2.97-.08-5.94-.19-8.91-.3-.76-.03-1.51-.14-2.38-.22V15.29c.55,0,1.18-.03,1.81,0,1.31,.08,2.61,.22,3.91,.28,1.73,.08,3.47,.1,5.2,.16,2.25,.09,4.5,.19,6.74,.3,.39,.02,.79,.06,1.16,.16,.17,.04,.39,.22,.45,.39,.87,2.82,1.71,5.65,2.56,8.48,.03,.09,0,.2,0,.42Zm.04,49.24c-1.88,.05-3.77,.11-5.65,.15-2.51,.06-5.01,.1-7.52,.16-1.61,.04-3.22,.09-4.83,.15-1.26,.05-2.51,.13-3.82,.2v-11.52c.12-.02,.21-.04,.3-.04,4.65-.06,9.29-.11,13.94-.17,2.9-.04,5.81-.09,8.71-.14,.27,0,.54,0,.9,0-.62,3.74-1.22,7.44-1.83,11.14-.07,.02-.14,.05-.21,.06Zm.04,.54c-.22,.8-.39,1.45-.58,2.1-.68,2.31-1.36,4.62-2.07,6.93-.06,.18-.3,.41-.48,.43-.88,.09-1.77,.13-2.66,.17-1.83,.06-3.67,.09-5.5,.16-2.35,.09-4.69,.19-7.04,.3-1.21,.06-2.41,.13-3.63,.2v-9.5c.15-.06,.22-.11,.29-.11,2.13-.06,4.26-.11,6.4-.16,2.06-.05,4.12-.1,6.17-.16,1.66-.04,3.32-.09,4.98-.15,1.33-.05,2.66-.13,4.12-.2Zm1.47-12.47c-3.45,.03-6.9,.09-10.35,.14-3.85,.05-7.7,.1-11.55,.16-.46,0-.91,.1-1.43,.16v-12.6h24.59c-.09,1.32-.2,2.52-.26,3.73-.07,1.51-.1,3.02-.16,4.53-.04,1.09-.1,2.17-.15,3.26-.02,.45-.22,.62-.7,.63Zm1.22-24.94c5.52,.39,11.04,.77,16.6,1.16,.33,3.74,.66,7.43,.98,11.06h-16.94c-.22-4.15-.42-8.15-.64-12.21Zm-.07-.64c-.61-3.63-1.22-7.28-1.86-11.11,5.24,.65,10.36,1.28,15.54,1.92,.95,3.43,1.91,6.88,2.88,10.38-5.54-.4-10.99-.79-16.56-1.19Zm10.06-10.18c-1.41-.17-2.82-.37-4.23-.55-1.82-.24-3.65-.48-5.47-.7-.61-.08-1.23-.1-1.83-.21-.23-.04-.54-.24-.6-.44-.92-2.92-1.8-5.86-2.72-8.88,1.59,.26,3.12,.51,4.64,.76,1.95,.32,3.9,.65,5.85,.97,.96,.16,1.93,.3,2.89,.49,.22,.05,.5,.23,.6,.44,1.38,2.73,2.74,5.47,4.11,8.21,.03,.06,.04,.14,.08,.29-1.13-.13-2.22-.24-3.31-.38Zm-6.63-9.96c-2.19-.37-4.39-.75-6.58-1.12-.34-.06-.68-.22-1-.18-.8,.09-1.06-.45-1.34-1.01-.98-1.99-1.97-3.98-2.98-6.01,3,.6,5.93,1.18,8.87,1.77,.79,.16,1.61,.23,2.36,.48,.37,.12,.65,.55,.92,.89,1.55,1.88,3.08,3.77,4.61,5.66,.07,.09,.1,.22,.17,.37-1.71-.29-3.37-.57-5.03-.85Zm-9.12-1.43c-1.99-.12-3.83-.26-5.69-.35-2.8-.12-5.6-.19-8.39-.32-1.6-.07-3.2-.2-4.84-.31V7.82c.37,0,.75-.02,1.14,0,2.74,.14,5.48,.29,8.22,.45,1.65,.09,3.3,.22,4.96,.29,.81,.04,1.37,.24,1.74,1.08,.87,1.97,1.85,3.9,2.86,5.99ZM51.17,7.25V3.19c.96,0,1.89-.04,2.82,.01,1.03,.05,2.05,.21,3.08,.28,1.7,.12,3.4,.19,5.1,.32,.26,.02,.58,.16,.75,.36,1.1,1.25,2.16,2.54,3.37,3.96-5.17-.3-10.13-.59-15.11-.87Zm19.59,78.23c.17-.32,.94-.35,1.45-.43,2.13-.34,4.26-.65,6.39-.97,1.87-.28,3.74-.56,5.75-.86-1.64,2.07-3.27,3.97-4.69,6.01-.86,1.23-2.09,1.23-3.26,1.45-2.96,.58-5.94,1.07-9,1.61,1.13-2.32,2.19-4.6,3.37-6.81Zm13.3-2.71c-1.84,.27-3.68,.52-5.52,.78-1.45,.21-2.9,.43-4.35,.65-1.03,.15-2.07,.31-3.17,.47,.62-2.09,1.23-4.14,1.84-6.18,.27-.91,.53-1.83,.85-2.72,.08-.23,.34-.54,.55-.56,1.56-.19,3.13-.31,4.69-.48,2.12-.23,4.24-.49,6.36-.72,1.27-.13,2.55-.23,3.93-.35-.8,1.61-1.57,3.14-2.33,4.66-.6,1.2-1.25,2.39-1.79,3.62-.23,.53-.59,.75-1.07,.83Zm-10.09-8.11c.19-1.21,.35-2.26,.52-3.32,.33-2,.67-4.01,1-6.01,.07-.41,.1-.83,.17-1.24,.09-.48,.3-.72,.89-.73,2.6-.05,5.2-.17,7.79-.29,1.88-.08,3.75-.19,5.63-.29,.76-.04,1.52-.13,2.38-.2-.98,3.57-1.94,7.03-2.89,10.47-5.17,.54-10.29,1.07-15.51,1.61Zm14.68-12.47c-2.37,.1-4.74,.19-7.11,.31-1.84,.09-3.68,.23-5.67,.36,.22-4.12,.42-8.11,.63-12.07h16.96c-.34,3.79-.66,7.48-.99,11.22-1.31,.06-2.57,.13-3.82,.18Zm8-30.49c.79,2.69,1.69,5.35,2.59,8.16-1.04-.23-1.99-.45-2.93-.66-.86-.19-1.72-.41-2.59-.52-.66-.09-.88-.47-1.03-1.04-.79-2.91-1.6-5.82-2.39-8.73-.05-.18-.1-.35-.19-.67,1.2,.43,2.26,.8,3.33,1.19,.53,.19,1.03,.5,1.57,.61,.96,.19,1.38,.74,1.65,1.66Zm-5.86-10.3c.19,.09,.43,.19,.52,.35,1.52,2.62,3.01,5.26,4.62,8.08-2.06-.77-3.91-1.46-5.74-2.17-.2-.08-.39-.29-.49-.49-1.39-2.73-2.76-5.46-4.19-8.32,.29,.13,.48,.21,.66,.3,1.54,.74,3.09,1.49,4.63,2.24Zm-6.46-7.4c.58,.35,1.04,.92,1.5,1.43,1.02,1.13,2.01,2.3,3.02,3.45,.45,.52,.92,1.03,1.33,1.64-1.68-.81-3.44-1.5-5.02-2.48-.85-.53-1.38-1.57-2.05-2.39-1.03-1.28-2.04-2.56-3.19-4.01,1.61,.85,3.04,1.55,4.4,2.36Zm-8.62-6.25c1.76,1.22,3.51,2.44,5.27,3.66-.06,.09-.13,.18-.19,.27-1.75-1.23-3.5-2.45-5.25-3.68,.06-.09,.12-.17,.17-.26Zm-2.49-.97c1.55,1.15,3.08,2.32,4.71,3.56-3.6-.71-7.07-1.37-10.53-2.11-.45-.1-.86-.6-1.2-.99-.92-1.05-1.8-2.14-2.76-3.28,1.27,.26,2.47,.49,3.66,.75,1.52,.33,3.05,.63,4.55,1.06,.57,.16,1.07,.64,1.57,1.01Zm-4.63-2.27c-2.76-.71-5.74-.7-8.09-2.57,1.24-.04,6.37,1.53,8.09,2.57ZM51.04,1.11c1.12,0,2.22-.04,3.32,.01,1,.04,2,.25,3.01,.26,.72,0,1.35,.17,1.96,.52,.65,.38,1.31,.75,1.96,1.12-.01,.06-.03,.12-.04,.18-3.39-.22-6.78-.44-10.2-.66V1.11Zm7.03,99c-2.27,.1-4.54,.2-6.81,.3-.09,0-.17-.06-.26-.08v-1.68c3.5-.21,6.99-.42,10.48-.62,.02,.05,.03,.1,.05,.16-1.09,.62-2.17,1.25-3.26,1.87-.06,.04-.14,.05-.21,.05Zm2.13-.48c2.59-2.29,5.96-2.13,9.03-2.94-2.83,1.54-5.82,2.57-9.03,2.94Zm12.22-4.45c-.74,.41-1.59,.68-2.42,.87-2.04,.45-4.1,.83-6.15,1.22-.07,.01-.15-.01-.35-.03,1.18-1.44,2.25-2.82,3.41-4.11,.28-.31,.86-.38,1.32-.47,2.97-.57,5.95-1.1,8.93-1.65,.15-.03,.32,0,.67,0-1.16,.92-2.17,1.73-3.18,2.52-.73,.57-1.43,1.21-2.23,1.65Zm2.39-1.09c2.23-1.74,4.26-3.77,7.05-4.65-2.32,1.59-4.36,3.62-7.05,4.65Zm13.18-10.44c-1.05,1.18-2.12,2.35-3.18,3.52-.06,.07-.09,.19-.17,.23-1.52,.76-3.04,1.52-4.56,2.27-.03-.03-.05-.07-.08-.1,.97-1.22,1.94-2.45,2.91-3.67,.66-.83,1.32-1.65,2.01-2.46,.18-.21,.41-.41,.66-.52,1.58-.71,3.16-1.39,4.94-2.16-.93,1.07-1.72,1.99-2.53,2.89Zm3.56-4.33c-.2,.35-.58,.65-.95,.82-1.61,.74-3.25,1.43-5.01,2.2,.12-.31,.18-.53,.28-.74,1.26-2.52,2.51-5.05,3.8-7.55,.15-.3,.5-.58,.82-.69,1.56-.55,3.14-1.05,4.72-1.56,.17-.06,.37-.06,.67-.1-1.5,2.65-2.89,5.14-4.33,7.62Zm5.7-11.51c-.28,.88-.54,1.77-.86,2.64-.09,.24-.3,.55-.53,.62-1.78,.59-3.57,1.13-5.36,1.68-.09,.03-.19,0-.35-.02,.9-3.29,1.81-6.51,2.66-9.74,.16-.6,.54-.5,.94-.56,1.76-.28,3.52-.57,5.28-.86,.04,0,.09,.03,.19,.05-.66,2.06-1.32,4.12-1.97,6.18Zm2.13-6.87c-2.07,.32-4.11,.63-6.32,.96,.33-3.74,.65-7.38,.97-10.99h6.39c-.35,3.39-.69,6.67-1.04,10.02Z"/>
  </g>
</svg>