<?xml version="1.0" encoding="UTF-8"?>
<svg id="Layer_2" data-name="Layer 2" xmlns="http://www.w3.org/2000/svg" viewBox="0 0 102.16 102.04">
  <defs>
    <style>
      .cls-1 {
        stroke: #787878;
        stroke-miterlimit: 10;
      }
    </style>
  </defs>
  <g id="Layer_1-2" data-name="Layer 1">
    <path class="cls-1" d="M15.12,85.38c5.74,5.14,11.2,11.43,19.18,12.72,5.98,1.3,11.97,4.27,18.18,3.22,32.83-1.29,54.49-30.82,48.05-62.57C82.89-18.67,2.87-9.01,.5,51.46c1.75,12.17,4.5,25.83,14.62,33.92ZM4.94,31.68c-.79,3.23-1.14,6.57-2.54,9.63,.83-3.22,1.11-6.57,2.54-9.63Zm20.92,25.73c1.43,.68,.61,3.93,1.13,5.41-.14,.96,1.16,4.82,.17,4.87-4.28-.93-8.56-1.9-12.85-2.81-.41-.09-.44-.25-.39-.74,1.29-12.6-1.58-8.57,11.94-6.72Zm1.83-.01c4.12-.55,8.21-1.35,12.31-2.02,1.03-.17,1.03-.16,1.36,.85,1.05,3,2.11,5.98,3.17,8.99-5.41,.82-10.95,1.87-16.27,2.42-.12-1.17-1.98-10.52-.57-10.24ZM31.97,15.52c-1.1-1.23-2.1-2.34-3.15-3.51,1.01-.51,1.97-.99,3.08-1.54-.2,1.75,.2,3.33,.06,5.05Zm-4.52,30.78c3.27-.52,6.51-1.22,9.79-1.69,.37-.06,.56,0,.69,.43,.12,1.76,3.6,9.22,2.38,9.74-16.3,1.79-12.8,5.97-13.46-6.94,.11-.61-.36-1.45,.6-1.54Zm28.58,1.79c14.06-12.36,7.96-11.84,18.19-3.19,.33,.23,.33,.41,.02,.69-4,3.55-7.94,7.15-11.83,10.82-1.13,1.41-5.31-7.18-6.37-8.32Zm7.58,7.94c3.68-3.3,7.33-6.66,10.93-10.05,.27-.26,.4-.31,.71,.04,.88,1.62,6.68,6.13,5.87,7.33-4.67,3.99-8.98,8.45-13.64,12.47-1.62-2.03-2.81-4.49-4.28-6.65-1.34-1.51-1.27-2.04,.42-3.14ZM23.52,20.49c2.22-.95,4.43-1.91,6.65-2.86,.02,.03,.04,.06,.06,.1-2.1,1.63-4.21,3.26-6.32,4.9-.07-.7-1.05-1.68-.39-2.13Zm1.62,3.97c.25,.19,.69,.25,.42,.68-1.5,2.65-2.89,5.35-4.38,8.01-.34,1.44-3.58-1.97-4.39-2.39,2.33-2.31,4.51-5.1,6.97-7.17,.48-.1,.91,.56,1.38,.87Zm5.6-6.51s.05,.06,.07,.1c-1.6,1.93-3.11,4.4-4.77,6.15-2.69-1.2-1.57-1.37,.18-2.75,1.51-1.16,3.01-2.33,4.52-3.5Zm-2.06,7.42c1.12,.7-1.37,7.69-1.38,9.52-9.22-1.12-5.4-.39-1.38-9.29,.62-1.07,1.83-.15,2.76-.23Zm.74,9.88c1.32,.07,5.2-1.63,5.78-.56,0,1.66,3.09,8.94,1.81,9.34-11.87,1.24-10.26,5.34-9.28-7.63-.09-1.06,.89-1,1.69-1.14Zm28.27-4.5c-1.53,.98-7.86,8.13-8.82,7.03-.87-1.87-5.6-6.58-5.09-8.03,7.7-7.02,4.06-4.73,13.9,1Zm-20.01-8.22c1.08-.59,1.97-2.34,3.16-2.17,2.59,1.45,5.17,2.9,7.86,4.4-8.07,7.04-4.4,5.32-11.02-2.23Zm11.01,16.09c-12.31,4.79-9.44,9.29-12.83-4.17,.16-1.42,4.04-2.17,5.27-3.14,1.73-.86,1.7-.85,2.84,.76,1.53,2.16,3.1,4.3,4.73,6.55Zm-14.83-13.84c-.15-.29,.17-.3,.33-.39,1-.22,2.42-1.9,3.28-1.06,1.58,2.1,3.15,4.2,4.74,6.3-.21,1.35-4.86,2.5-6.24,3.54-.24,.12-.41,.11-.47-.27-.5-2.73-1.09-5.38-1.62-8.13Zm-.51-7.6c2.28,.95,4.38,1.83,6.54,2.74-.87,.43-2.06,2.62-2.85,1.84-1.21-1.57-2.36-2.9-3.68-4.57Zm.73-.32c2.51-.15,4.98,.14,7.46,.03,.33-.03,.3,.17,.19,.34-.58,.57-.89,2.22-1.77,2.1-1.96-.84-3.92-1.65-5.88-2.47Zm.37-.75c2.63-.69,5.29-1.38,8-2.09-.34,.85,.2,2.44-.99,2.43-2.31-.07-4.61-.23-6.93-.16-.08,0-.13-.04-.09-.17Zm17.98,2.57c-1.12,1.17-2.42,5.58-3.86,5.32-2.49-1.38-4.98-2.75-7.48-4.11-.49-.58,.98-1.76,1.14-2.52,2.81-.74,6.99,1.12,10.2,1.3Zm10.11,2.97c1.28,.27-3.76,6.81-4.14,8.17-.54,1.22-7.47-4.6-8.79-5.28,.06-.11,.1-.22,.16-.32,4.58-8.22,2.98-4.72,12.77-2.57Zm-4.02,9.71c2.63,2.16,5.31,4.24,7.97,6.39-3.62,3.25-7.21,6.49-10.81,9.73-7.97-11.45-7.35-6.83,2.16-16.1,.27-.25,.4-.25,.69-.01Zm2.36,26.13c-5.01,2.31-9.95,4.76-14.91,7.16-1.44,1.81-3.35-8.18-4.32-9.42,4.05-2.52,9.01-4.31,13.33-6.66,1.32-.09,4.61,6.77,5.97,8.22,.16,.24,.41,.48-.07,.7Zm-19.47-2.96c-3.8-13.61-5.09-8.6,7.19-15.19,1.59,.13,4.62,6.53,6.2,8.11,.55,.95-2.29,1.38-2.92,1.97-3.46,1.69-6.91,3.38-10.46,5.11Zm-15.01-9.17c-.08,.77-1.13,.17-1.63,.2-1.24-.56-7.54-.64-7.27-1.85,1.15-2.93,2.3-5.87,3.42-8.82,.14-.36,.34-.35,.59-.31,1.42,.58,5.33,.08,5.74,1.53-.4,3.07-.63,6.16-.85,9.25Zm0,11.59c-12.96-3.51-12.64,1.87-9.35-11.81,.08-.36,.15-.37,.5-.3,2.78,.57,5.64,.91,8.4,1.52,.72,.28,.13,.96,.33,1.42,.06,.15,.12,.32,.12,.48,0,2.87,0,5.74,0,8.69Zm-9.55-12.98c-1.6-1.62-5.02-3.12-5.81-4.92,1.22-1.05,4.78-8.62,5.98-7.36,.88,1.11,3.51,1.69,3.33,3.21-1.18,3.01-2.33,6.03-3.5,9.07Zm-1.5-18.27c2.42-1.54,4.76-3.15,7.19-4.67,1.87,2.33-.53,3.23-1.9,4.96-1.1,.77-3.31,4.37-4.25,4.05-.18-1.36-1.75-3.18-1.04-4.35Zm7.86-5.6c.38-.85-.1-2.22,.92-2.37,1.96-.19,3.86-.73,5.85-.57-2.21,.96-4.42,1.92-6.77,2.94Zm.66-2.84c.67-.65,.96-2.31,1.92-2.29,1.77,.45,3.24,.83,5.11,1.37-2.46,.32-4.72,.61-7.02,.92Zm2.02-2.8c2.99-3.56,3.19-.97,5.51,1.43-1.86-.48-3.62-.94-5.51-1.43Zm5.56,3.85c-.68,2.09-1.37,4.19-2.05,6.28-.32,.56-2.09-.08-2.78-.19,1.58-2.09,3.13-4.13,4.68-6.18,.05,.03,.1,.06,.15,.08Zm1.19,6.56c1.35,.26,1.52,6.71,2.2,8.34,.05,.25,0,.37-.31,.42-9.8,2.4-5.73,.24-4.91-7.46,.24-1.38,2.04-.82,3.02-1.3Zm.24-6.99c.06-.02,.12-.04,.18-.06,1.23,1.54,2.47,3.08,3.71,4.64-3.54,1.68-3.03,2.29-3.54-1.75-.12-.94-.24-1.89-.36-2.83Zm-.26-2.55c.12-3.45-1.67-5.44,2.83-5.63-.93,1.86-1.83,3.66-2.83,5.63Zm5.9-5.35c-1.29,1.79-3.48,3.22-4.92,5.03-.05-.04-.11-.08-.16-.12,1.45-2.04,1.7-6.47,5.08-4.91Zm.96,.23c.52,.34,1.05,.68,1.65,1.07-2.39,1.32-4.7,2.59-7.12,3.93,.52-.78,1.22-1.17,1.77-1.72,1.25-.92,2.28-2.96,3.71-3.27Zm2.67,2.79c.27,1.35-6.21,1.86-7.55,2.56,0-.04-.02-.07-.02-.11,1.9-1.04,3.79-2.09,5.69-3.13,1.3-.71,1.27-.71,1.88,.68Zm-.08-1.64c2.9-1.02,5.74-2.06,8.62-3.09,.8-.4,2.03,3.29,2.35,3.95-1.77,.58-4.23,.46-6.22,.78-1.23-.16-3.22,1.06-4.03-.03-.19-.53-.45-1.03-.71-1.61Zm10.64,6.5c-.04,.33-.22,.33-.44,.29-3.19-.55-6.39-1.1-9.57-1.65,.28-.81-.15-2.22,.69-2.63,3.13-.26,6.24-.76,9.37-1,1.22-.04-.23,3.97-.06,5Zm.58-.38c.44-7.31,1.54-3.87,8.89-4.34,1.77,.05,1.74,0,1.61,1.76-.16,2.12-.37,4.23-.61,6.37-3.09-.77-6.08-1.86-9.16-2.69-.66-.19-.83-.49-.73-1.09Zm19.06,8.39c1.9,.17-4.97,9.73-5.5,11.37-9.51-8.23-9.94-3.61-3.58-14.74,.84-1.15,7.25,3.05,9.08,3.37Zm9.11,5.34c1.78-.04-6.01,12.24-6.66,13.54-1.06-1.58-8.05-6.48-7.19-7.66,7.81-11.94,2.42-12.61,13.85-5.88Zm7.73,6.23c.32,.26,.32,.48,.13,.84-2.56,4.72-4.96,9.44-7.47,14.22-6.48-8.16-8.38-4.64-2.68-14.4,4.76-9.01,2.26-6.12,10.02-.66Zm-2.48,22.53c.17,.23,.22,.42-.04,.65-4.65,4.4-9.42,8.69-14.02,13.15-.54,.98-4.9-7.01-4.73-7.62,4.73-4.16,9.19-8.6,13.94-12.74,1.65,2.16,3.23,4.38,4.86,6.57Zm3.77,6.62c.6,.96-.93,1.46-1.4,2.12-4.35,4.08-8.62,8.22-13.02,12.23-.78-2.11-3.44-4.78-3.26-6.75,3.24-2.78,6.29-5.82,9.44-8.72,6.17-5.47,4.05-6.29,8.25,1.12Zm-27.3,20.64c-7.97,3.75-5.74,4.4-9.98-3.35,6.08-2.93,12.17-5.84,18.24-8.78,1.32-.53,2.75,4.42,3.72,5.46,1.88,1.12-10.6,5.57-11.98,6.67Zm-10.25-3.82c-5.4-10.84-3.87-7.42,5.99-12.67,1.84-.49,7.42-4.39,8.56-3.58,.41,1.46,4.95,6.84,3.75,7.5-5.66,2.63-11.24,5.42-16.86,8.13-.42,.21-.86,.37-1.45,.62Zm-7.53-17.65c4.88-2.92,10.58-5.07,15.7-7.81,1.29-.26,4.08,6.29,5.37,7.6,.35,.54,.42,.75-.26,1.07-5.59,2.66-11.19,5.33-16.74,8.08-1.23,0-3.09-7.38-4.07-8.94Zm3.06,9.26c-5.56,.88-11.01,1.58-16.54,2.48-1.54,.27-1.63,.28-1.87-.77-.6-2.65-1.17-5.31-1.75-7.96,4.38-1.93,10.83-1.67,15.87-2.89,1.24,0,1.16,2.17,1.8,3.03,.82,2.02,1.64,4.04,2.49,6.12ZM14.02,54.14c-2.26-1.93-4.62-3.75-6.92-5.63,.06-2.79,2.57-5.8,3.49-8.67,8.75,6.44,5.55,4.19,3.88,14.14-.08,.35-.17,.41-.45,.15Zm.41-27.94c.48,1.69,1.39,3.08,1.5,4.68-1.43,2.77-3.62,5.21-5.33,7.97-3.3-8.95-1.83-6.22,3.83-12.65Zm-5.88,5.16c1.51-6.54,.47-7.52,6.93-10.8-.42,5.6-3,7.03-6.68,10.64-.03,.03-.08,.05-.25,.15Zm14.52-13.44c-.21,4.15-5.3,4.91-8.1,7.44,1.23-7.41,1.76-4.86,8.1-7.44Zm-6.68,1.72c1.35-1.69,2.05-3.94,3.6-5.07,3.04,.45,6.79-1.1,3.02,2.87-2.15,.71-4.29,1.43-6.61,2.2Zm3.81-5.47c1.68-1.36,3.57-3.8,5.45-4.31,.43,.77,2.7,1.64,1.86,2.52-1.14,.73-1.93,2.18-3.43,1.9-1.24-.02-2.46-.28-3.88-.1Zm5.76-4.93c.93-.19,6.7-3.88,6.31-2.52-.42,1.12,.17,2.62-.79,3.44-1.06,.27-2.22,1.48-3.25,1.26-.68-.76-1.58-1.29-2.27-2.18Zm6.29,15.12c-.59-.01-1.19,.25-1.78,.36-1.15-.06,1.61-5.64,1.72-6.81,.04,0,.07,.02,.11,.02,0,.16-.02,.33,0,.49-.15,1.25,1.75,6-.04,5.93Zm.18-14.6c.44-1.25-.33-3.59,1.18-4,1.99-.31,3.62-.98,5.73-1.1-1.52,1.54-2.34,3.63-4.1,4.58-.91,.17-1.83,.34-2.81,.52Zm13.32-4.62c-2.73,1.31-4.83,4.28-7.81,4.22-3.27,.15,.71-2.42,1.2-3.73,1.46-2.12,4.34-.42,6.61-.49Zm4.93,2.58c-2.99,.72-7.8,4.23-10.5,2.33-.41-.36-.33-.43,.01-.65,5.58-3.04,4.62-5.85,10.49-1.68Zm-3.63-2.78c7.22-2.99,6.24-3.03,12.89,1.06-2.82,.64-5.91,1.22-8.75,1.47-1.36-.79-2.69-1.64-4.14-2.53Zm16.74,7.75c-3.28-.07-6.51-.19-9.78-.42-1.09-1.05-1.42-2.9-2.26-4.31,.87-.15,1.72-.3,2.57-.44,7.93-1.55,5.81-1.64,9.47,5.17Zm-2.56-6.14c10.47-.2,7.63-.44,12.53,8.17-3.14-1.21-7.97-.41-9.93-3.13-.74-1.72-1.71-3.34-2.6-5.04Zm12.77,9.15c-.25,3.08-.47,6.18-.69,9.28-.04,.69-.27,.64-.72,.44-9.53-4.83-9.2-.82-8.04-12.08,3.02,.6,6.03,1.2,9.04,1.81,.27,.06,.48,.22,.41,.55Zm.63-.22c11.85,4.44,7.53,1.95,7.54,15.5-2.71-1.44-5.31-3.22-7.99-4.76-.72-.63-.14-1.83-.21-2.69,.29-2.68,.12-5.41,.66-8.05Zm8.74,3.54c2.17,1.66,5.06,2.81,6.77,4.68-.24,4.56-.18,8.94-.5,13.52-1.96-2.61-6.32-3.68-6.9-7.03,.31-3.75,.39-7.39,.63-11.17Zm11.69,25.72c-2.66,5.02-5.15,10.05-7.73,15.13-1.3-2.91-6.01-5.38-4.26-8.69,2.44-4.29,4.49-8.76,6.93-13.06,1.29,2.07,4.85,4.47,5.07,6.62Zm.58,.13c.94,2.05,3.08,4.21,3.12,6.41-2.62,4.96-4.96,10.34-7.69,15.11-.73-1.37-3.75-5.51-3.12-6.77,1.71-3.28,3.4-6.57,5.08-9.86,.94-1.56,1.5-3.54,2.61-4.89Zm-3.2,28.46c-4.51,4.13-8.92,8.39-13.34,12.64-.32,.31-.45,.29-.64-.1-.35-1.56-2.46-3.43-1.74-4.89,4.8-4.46,9.46-8.9,14.2-13.45,.22,1.61,2.26,4.64,1.51,5.79Zm-13.32,17.25c-2.81,1.32-5.61,2.66-8.41,4-2.44,1.17-4.89,2.33-7.32,3.51-1.09,.24-2.07-1.74-2.94-2.39,5.82-2.84,11.68-5.57,17.5-8.42,.35-.17,.49-.13,.62,.25,.04,.94,1.66,2.46,.56,3.05Zm-19.26,4.32c-.28-1.02-3.66-4.03-2.27-4.49,5.91-2.8,11.82-5.61,17.69-8.48,.4-.2,.57-.12,.75,.26,.18,1.22,2.93,4.11,1.56,4.79-5.64,2.61-11.23,5.33-16.83,8.03-.36,.19-.8,.34-.9-.11Zm-.41,.5c-5.92,1.05-11.93,1.44-17.88,2.33-1.74-.36-2.69-2.81-4.08-3.95-.54-.83,2.32-.56,2.88-.79,5.37-.24,11.21-2.28,16.35-1.68,.9,1.35,1.8,2.7,2.73,4.08Zm-25.94-8.67c6.09-1.07,12.46-1.71,18.65-2.64,1.83,.98,2.4,4.18,3.74,5.91,.19,.35,.22,.52-.29,.57-5.81,.63-11.6,1.46-17.39,2.28-2.08,.98-3.54-4.64-4.72-6.11Zm-2.95-8.12c-.08-1.21,8.32-1.3,9.93-1.87,9.76-1.42,7.44-2.82,11.6,6.19,.23,.49,.36,.81-.4,.73-6.05,.8-11.95,1.65-18.06,2.47-1.67-1.65-1.88-5.27-3.08-7.52Zm1.59,7.4c-4.94-1.22-9.87-2.43-14.81-3.65-1.76-1.57-1.62-5.41-2.68-7.78,4.85,1.3,9.79,2.28,14.67,3.47,1.83,1.79,1.95,5.3,3.16,7.67,.19,.54-.07,.36-.35,.3Zm-18.23-20.69c15.38,4.19,13.01-1.02,15.76,12.27-4.85-1-9.53-2.31-14.37-3.29-1.47-.13-1.05-7.35-1.39-8.99Zm-.49-.97c-9.64-8.5-9.71-4.4-6.81-15.59,1.73,1.91,7.67,4.94,7.58,7.3-.46,2.73-.47,5.54-.77,8.29Zm-6.94-16.85c-2.42-8.92-4.13-6.95,1.58-14.88,1.98,5.5,2.8,6.92-.27,12.2-.44,.88-.73,1.84-1.31,2.68Zm2.94-22.75c-.42,4.82-2.13,9.08-5.21,12.83-.02-.02-.04-.04-.07-.06,1.12-3.6,.7-7.93,3.43-10.82,.67-.55,1.08-1.37,1.85-1.96Zm4.26-7.25c-1.7,2.51-3.13,5.2-5.2,7.43,1.72-2.49,3.15-5.19,5.2-7.43Zm5.4-2.87c-2.04,3.74-4.45,6.35-8.22,8.24,1.47-2.38,3-4.7,4.54-7.01,1-.74,2.39-.73,3.68-1.23Zm5.88-5.25c-2.74,2.04-4.81,5.11-8.45,5.41,1.99-1.71,3.94-3.4,5.9-5.08,.72-.66,1.63-1.48,2.55-.33Zm8.35-5.52c-.76,1.63-.76,1.64-2.28,2.39-2.16,.54-4.64,3.52-6.76,2.04,3-1.47,5.97-2.93,9.04-4.43Zm9.77-2.26c-2.65,2.84-6.28,2.99-9.92,3.75,.39-1.9,1.81-2.13,3.45-2.38,2.12-.45,4.25-.9,6.47-1.37Zm9.35,.58s.02,.09,.03,.13c-3.88,1.92-7.53,2.69-11.87,1.69,1.07-.74,2.06-1.36,2.96-2.09,2.73-1.11,5.96,.37,8.88,.27Zm5.37-.79c-3.92,.9-7.81-.03-11.77-.27,2.8-1.32,6.49-.13,9.59-.06,.71,.1,1.47-.07,2.18,.33Zm10.73,4.73c-6.22,.33-8.9-.36-14.08-3.87,1.38-.18,2.64-.43,3.9-.47,3.76-.66,6.83,2.89,10.18,4.34Zm6.72,1.4c-4.92-.51-8.95-3.15-13.13-5.56,.01-.04,.03-.07,.04-.11,4.26,.39,7.77,2.62,11.4,4.7,.56,.31,1.12,.64,1.68,.96Zm7.17,10.49c-8.82-3.09-8.07-3.09-12.36-11.18,2.1,.53,4.11,.99,6.09,1.55,1.96,.21,4.95,7.58,6.27,9.63Zm7.09,4.17s-.07,.07-.11,.1c-5.94-2.56-8.48-7.64-11.31-13.15,2.07,1.37,4.41,1.93,5.97,3.67,1.79,3.14,3.65,6.24,5.45,9.38Zm4.9,4.61c-4.25-3.2-6.3-8.14-8.94-12.6,.04-.03,.09-.07,.13-.1,3.01,2.54,4.89,5.88,6.8,9.27,.67,1.14,1.34,2.28,2.02,3.42Zm.95,16.6c-1.68-2.15-4.56-4-5.15-6.7,.25-4.22,.14-8.42,.47-12.65,1.71,1.49,3.18,3.27,4.81,4.85,.46,4.7-.21,9.72-.14,14.5Zm3.78,6.3s-.09,.04-.14,.06c-.97-2.23-2.92-4.2-3.18-6.65,.39-4.3-.03-8.92,.43-13.08,.77,1.37,1.49,2.77,2.33,4.11,1.7,4.85,.04,10.44,.57,15.56Zm1.58,5.19c-2.17-5.54-.84-11.62-.94-17.41,1.48,4.66,1.05,9.38,.94,14.17,0,1.08,0,2.16,0,3.24Zm-.3,3.71c.64,6.67-4.56,12.08-6.82,18.1-.14-.38-.12-.71-.13-.99-.22-5.91,4.96-11.55,6.96-17.12Zm-7.36,13.62c-.36-1.85-1.82-3.74-1.46-5.58,2.59-5.13,5-9.98,7.6-15.19,.32,2.24,1.57,4.2,1.2,6.26-2.3,4.64-4.59,9.28-6.89,13.91-.1,.2-.13,.48-.44,.6Zm-.53,6.75c-.41,1.79-1.66,3.07-3.06,4.22-3.16,2.7-5.85,6.17-9.19,8.55,0-.4,.05-.76-.02-1.11,3.67-3.96,8.18-8.24,12.26-11.66Zm-12.45,10.97c-.25-1.09-1.02-2.11-1.14-3.13,4.35-4.43,9.2-8.85,13.78-13.18,.46,1.27,.03,2.59,.37,3.83,.05,.19-.08,.33-.21,.42-2.84,2.43-5.42,5.16-8.16,7.71-1.55,1.41-2.96,2.96-4.64,4.34Zm-16.55,8.53c5.41-2.58,10.76-5.13,16.15-7.69q.19,1.53-1.19,2.11c-3.94,1.94-7.96,3.76-11.89,5.74-1.1,.55-2.02,.59-3.06-.15Zm-16.27,2.32c4.35-.75,8.87-1.08,13.27-1.73,1.2-.12,2.44-.54,3.55,.36-3.69,.54-7.42,.89-11.12,1.34-1.91,.28-3.8,.63-5.7,.04Zm-5.55-2.5c0-.06,0-.11,0-.17,5.51-.67,11.02-1.39,16.52-2.07,1.96-.81,2.83,1.19,4.19,2.34-5.5,.7-10.84,1.28-16.31,2.03-1.65,.21-2.96-1.48-4.4-2.13Zm-14.67-3.55c5.54,1.5,11.54,2.06,16.47,5.27-3.61-.67-7.06-1.91-10.64-2.72-2.09-.52-4.03-1.33-5.83-2.55Zm-6.31-5.17c.06-.07,.12-.15,.18-.22,4.54,1.35,9.32,2.38,13.94,3.65,2.55,.19,3.51,2.9,5.18,4.53-4.84-1.06-9.68-2.57-14.52-3.78-1.65-.55-2.63-2.53-4.03-3.6-.22-.22-.5-.39-.75-.58Zm-3.71-6.79c5.19,1.11,10.18,2.49,15.32,3.75,1.93,1.45,2.5,4.27,3.87,6.36-5.23-1.44-10.38-2.7-15.62-4.07-1.59-1.49-2.27-4.09-3.58-6.04Zm-10.1-8.74c4.37,4.21,9.7,7.54,12.01,13.39-.05,.04-.1,.08-.14,.12-2.85-2.83-6.01-5.34-8.87-8.16-1.48-1.44-1.97-3.55-3-5.35Zm-2.36-7.94c5.35,4.31,10.86,8.18,11.48,15.54-3.3-3.54-8.04-5.93-10.27-10.16-.29-1.77-.78-3.51-1.21-5.38Zm-.01-8.55c8.27,7.71,9.05,4.22,9.45,16.13-3.02-2.64-5.92-5.19-8.91-7.82-1.67-2.22-.05-5.62-.54-8.3Zm-.21-1.57c-2.11-6.85-4.18-9.36-.74-16.27,.77,3.17,2.2,5.99,2.5,9.09-.59,2.37-1.16,4.75-1.76,7.17Zm-3.06-8.38c1.89,5.28,3.24,10.39,2.7,16.05-1.09-3.52-2.29-7.17-3.04-10.77-.02-1.72,.08-3.47,.34-5.28Z"/>
  </g>
</svg>