<?xml version="1.0" encoding="UTF-8"?>
<svg id="Layer_2" data-name="Layer 2" xmlns="http://www.w3.org/2000/svg" viewBox="0 0 486.86 42.06">
  <g id="Layer_1-2" data-name="Layer 1">
    <g>
      <path d="M30.91,0c-2.43,0-4.63,.99-6.22,2.58-3.41,3.41-6.24,3.41-9.66,0-1.59-1.59-3.79-2.58-6.22-2.58C3.94,0,0,3.94,0,8.8s3.94,8.8,8.8,8.8c2.43,0,4.63-.99,6.22-2.58,2.35-2.35,4.42-3.08,6.6-2.2-1.4,6.91-5.89,10.64-13.97,11.7h0c-4.32,.57-7.66,4.25-7.66,8.73,0,4.86,3.94,8.8,8.8,8.8s8.65-3.81,8.79-8.55h0c.29-9.69,4.83-14.72,14.45-15.98h0c4.32-.57,7.66-4.25,7.66-8.73,0-4.86-3.94-8.8-8.8-8.8Z"/>
      <circle cx="75.11" cy="8.8" r="8.8"/>
      <circle cx="163.53" cy="8.8" r="8.8" transform="translate(2.35 37.81) rotate(-13.28)"/>
      <path d="M478.06,0c-4.86,0-8.8,3.94-8.8,8.8s3.94,8.8,8.8,8.8,8.8-3.94,8.8-8.8-3.94-8.8-8.8-8.8Z"/>
      <circle cx="30.91" cy="33.26" r="8.8"/>
      <path d="M231.76,24.45c-2.43,0-4.63,.99-6.22,2.58-3.63,3.63-6.63,3.63-10.26,0-4.24-4.24-4.24-7.76,0-12,1.59-1.59,2.58-3.79,2.58-6.22,0-4.86-3.94-8.8-8.8-8.8-2.43,0-4.63,.99-6.22,2.58-3.41,3.41-6.24,3.41-9.66,0-1.59-1.59-3.79-2.58-6.22-2.58-4.86,0-8.8,3.94-8.8,8.8s3.94,8.8,8.8,8.8c2.43,0,4.63-.99,6.22-2.58,3.41-3.41,6.24-3.41,9.66,0,4.24,4.24,4.24,7.76,0,12-1.59,1.59-2.58,3.79-2.58,6.22,0,4.86,3.94,8.8,8.8,8.8,2.43,0,4.63-.99,6.22-2.58,3.63-3.63,6.63-3.63,10.26,0,1.59,1.59,3.79,2.58,6.22,2.58,4.86,0,8.8-3.94,8.8-8.8s-3.94-8.8-8.8-8.8Z"/>
      <circle cx="53.01" cy="33.26" r="8.8"/>
      <circle cx="395.77" cy="33.26" r="8.8"/>
      <path d="M106.02,8.8c0-4.86-3.94-8.8-8.8-8.8s-8.8,3.94-8.8,8.8c0,2.43,.99,4.63,2.58,6.22,4.24,4.24,4.24,7.76,0,12-3.41,3.41-6.24,3.41-9.65,0-1.59-1.59-3.79-2.58-6.22-2.58-4.86,0-8.8,3.94-8.8,8.8s3.94,8.8,8.8,8.8c2.43,0,4.63-.99,6.22-2.58,3.41-3.41,6.24-3.41,9.65,0,1.59,1.59,3.79,2.58,6.22,2.58,4.86,0,8.8-3.94,8.8-8.8,0-2.43-.99-4.63-2.58-6.22-4.24-4.24-4.24-7.76,0-12,1.59-1.59,2.58-3.79,2.58-6.22Z"/>
      <circle cx="119.32" cy="8.8" r="8.8"/>
      <circle cx="276.37" cy="8.8" r="8.8"/>
      <circle cx="254.26" cy="33.26" r="8.8"/>
      <path d="M307.27,8.8c0-4.86-3.94-8.8-8.8-8.8s-8.8,3.94-8.8,8.8c0,2.43,.99,4.63,2.58,6.22,4.24,4.24,4.24,7.76,0,12-3.41,3.41-6.24,3.41-9.65,0-1.59-1.59-3.79-2.58-6.22-2.58-4.86,0-8.8,3.94-8.8,8.8s3.94,8.8,8.8,8.8c2.43,0,4.63-.99,6.22-2.58,3.41-3.41,6.24-3.41,9.65,0,1.59,1.59,3.79,2.58,6.22,2.58,4.86,0,8.8-3.94,8.8-8.8,0-2.43-.99-4.63-2.58-6.22-4.24-4.24-4.24-7.76,0-12,1.59-1.59,2.58-3.79,2.58-6.22Z"/>
      <circle cx="320.58" cy="8.8" r="8.8"/>
      <circle cx="369.57" cy="8.8" r="8.8"/>
      <path d="M163.53,24.45c-2.43,0-4.63,.99-6.22,2.58-3.93,3.93-7.19,3.93-11.12,0-1.59-1.59-3.79-2.58-6.22-2.58-4.86,0-8.8,3.94-8.8,8.8s3.94,8.8,8.8,8.8c2.43,0,4.63-.99,6.22-2.58,3.93-3.93,7.19-3.93,11.12,0,1.59,1.59,3.79,2.58,6.22,2.58,4.86,0,8.8-3.94,8.8-8.8s-3.94-8.8-8.8-8.8Z"/>
      <path d="M344.15,24.45c-2.43,0-4.63,.99-6.22,2.58-3.93,3.93-7.19,3.93-11.12,0-1.59-1.59-3.79-2.58-6.22-2.58-4.86,0-8.8,3.94-8.8,8.8s3.94,8.8,8.8,8.8c2.43,0,4.63-.99,6.22-2.58,3.93-3.93,7.19-3.93,11.12,0,1.59,1.59,3.79,2.58,6.22,2.58,4.86,0,8.8-3.94,8.8-8.8s-3.94-8.8-8.8-8.8Z"/>
    </g>
  </g>
</svg>