<?xml version="1.0" encoding="UTF-8"?>
<svg id="Layer_2" data-name="Layer 2" xmlns="http://www.w3.org/2000/svg" viewBox="0 0 199.12 146.12">
  <g id="Layer_1-2" data-name="Layer 1">
    <path d="M198.16,93.63c-3.45,0-6.65-.02-9.64-.04-.25-9.22-3.88-18.36-10.91-25.4-7.94-7.94-18.57-11.56-28.96-10.84-.02-1.54-.04-3.17-.05-4.85,.39,0,.77,0,1.17,0,.53,0,.97-.43,.97-.97s-.43-.96-.97-.97c-.4,0-.79,0-1.18,0-.01-2.08-.02-4.24-.02-6.52,0-.53-.43-.96-.97-.96s-.96,.43-.97,.96c0,2.28-.01,4.44-.02,6.52-2.26,0-4.43-.02-6.48-.03-.25-9.22-3.88-18.36-10.91-25.4-7.94-7.94-18.57-11.56-28.96-10.84-.06-3.99-.07-8.4-.08-13.31,0-.53-.43-.96-.97-.96s-.96,.43-.97,.96c-.01,4.91-.03,9.33-.08,13.32-10.39-.71-21.02,2.91-28.96,10.85-7.03,7.03-10.66,16.17-10.91,25.39-1.84,.02-3.76,.02-5.77,.03-.01-2.07-.02-4.24-.02-6.51,0-.53-.43-.96-.97-.96s-.96,.43-.97,.96c0,2.28-.01,4.44-.02,6.52-.63,0-1.25,0-1.89,0-.53,0-.96,.43-.96,.97s.43,.97,.96,.97c.64,0,1.26,0,1.88,0-.01,1.68-.03,3.31-.05,4.86-10.39-.71-21.02,2.91-28.96,10.85-7.03,7.03-10.66,16.17-10.91,25.39-2.99,.02-6.19,.03-9.64,.04-.53,0-.96,.43-.96,.97s.43,.97,.96,.97c3.45,0,6.65,.02,9.64,.04,.25,9.22,3.88,18.37,10.91,25.4,7.94,7.94,18.57,11.56,28.96,10.84,.06,3.99,.07,8.4,.08,13.31,0,.53,.43,.97,.97,.97s.97-.43,.97-.97c.01-4.91,.03-9.33,.08-13.32,10.39,.71,21.02-2.91,28.96-10.85,7.03-7.03,10.67-16.17,10.91-25.39,1.84-.02,3.76-.02,5.77-.03,.01,2.07,.02,4.24,.02,6.51,0,.53,.43,.97,.97,.97s.97-.43,.97-.97c0-2.28,.01-4.44,.02-6.52,2.27,0,4.43,.02,6.48,.03,.25,9.22,3.88,18.37,10.91,25.4,7.94,7.94,18.57,11.56,28.96,10.84,.06,3.99,.07,8.4,.08,13.31,0,.53,.43,.97,.97,.97s.97-.43,.97-.97c.01-4.91,.03-9.33,.08-13.32,10.39,.71,21.02-2.91,28.96-10.85,7.03-7.03,10.67-16.17,10.91-25.39,2.99-.02,6.19-.03,9.64-.04,.53,0,.97-.43,.97-.97s-.43-.96-.97-.97ZM29.31,68.2c5.95-5.95,13.42-9.47,21.16-10.56-.24,16.03-1.24,24.96-6.1,29.81-4.45,4.45-12.33,5.66-25.98,6.02,.28-9.17,3.91-18.26,10.91-25.26Zm0,52.81c-7.01-7.01-10.64-16.1-10.91-25.28,13.64,.36,21.53,1.57,25.98,6.02,4.85,4.85,5.85,13.79,6.1,29.82-7.74-1.09-15.21-4.61-21.16-10.56ZM121.42,25.11c7.01,7.01,10.64,16.1,10.91,25.28-13.64-.36-21.53-1.57-25.98-6.02-4.85-4.85-5.85-13.78-6.1-29.82,7.74,1.09,15.21,4.61,21.16,10.56Zm-6.13,61.6c5.08-1.8,9.85-4.72,13.92-8.79,5.27-5.27,8.62-11.71,10.08-18.48,2.36-.84,4.79-1.46,7.24-1.8-.24,16.03-1.24,24.96-6.1,29.81-4.45,4.45-12.33,5.66-25.98,6.02,.07-2.27,.35-4.53,.82-6.75Zm6.13-8.79c-1.49,1.49-3.07,2.82-4.72,4,1.8-5.01,4.67-9.71,8.68-13.73,1.49-1.49,3.07-2.82,4.72-4-1.8,5.01-4.67,9.71-8.68,13.73Zm-3.83-9.72c-5.27,5.27-8.62,11.71-10.08,18.48-2.36,.84-4.79,1.46-7.25,1.8,.24-16.03,1.24-24.96,6.1-29.81,4.45-4.45,12.33-5.66,25.98-6.02-.07,2.27-.35,4.53-.82,6.75-5.08,1.8-9.85,4.72-13.92,8.79ZM76.99,25.13c5.95-5.95,13.42-9.47,21.16-10.56-.24,16.03-1.24,24.96-6.1,29.81-4.45,4.45-12.33,5.66-25.98,6.02,.28-9.17,3.91-18.26,10.91-25.26Zm15.07,33.55c4.85,4.85,5.85,13.79,6.1,29.82-2.19-.31-4.36-.84-6.48-1.53-1.43-6.88-4.79-13.44-10.14-18.78-4.27-4.27-9.31-7.27-14.68-9.04-.44-2.14-.71-4.31-.78-6.49,13.64,.36,21.53,1.57,25.98,6.02Zm-9.39,23.89c-2-1.34-3.91-2.86-5.67-4.63-4.19-4.19-7.14-9.13-8.92-14.38,2,1.34,3.91,2.86,5.67,4.63,4.19,4.19,7.14,9.13,8.92,14.38Zm-30.09-25.22c-.02-1.54-.04-3.17-.05-4.84,2,0,3.92,.02,5.76,.03,.04,1.64,.23,3.28,.49,4.9-2.06-.2-4.14-.24-6.2-.09Zm21.17,63.65c-5.95,5.95-13.42,9.47-21.16,10.56,.24-16.03,1.24-24.96,6.1-29.81,4.45-4.45,12.33-5.66,25.98-6.02-.28,9.17-3.91,18.26-10.91,25.27Zm-15.07-33.55c-4.85-4.85-5.85-13.78-6.1-29.82,2.19,.31,4.36,.84,6.48,1.53,1.43,6.88,4.79,13.44,10.14,18.78,4.27,4.27,9.31,7.27,14.68,9.04,.44,2.14,.71,4.31,.78,6.48-13.64-.36-21.53-1.57-25.98-6.02Zm33.28,1.24c2.06,.2,4.13,.24,6.2,.09,.02,1.54,.04,3.17,.05,4.84-2,0-3.92-.02-5.75-.03-.04-1.64-.23-3.28-.49-4.9Zm8.25,4.94c.01-1.68,.03-3.31,.05-4.85,2.31,.16,4.63,.09,6.93-.18-.27,1.66-.47,3.32-.51,5-2.05,.02-4.21,.03-6.47,.03Zm25.17,27.39c-7.01-7.01-10.64-16.1-10.91-25.28,13.64,.36,21.53,1.57,25.98,6.02,4.85,4.85,5.85,13.79,6.1,29.82-7.74-1.09-15.21-4.61-21.16-10.56Zm21.17-63.66c-2.31-.16-4.63-.09-6.93,.18,.27-1.66,.47-3.32,.51-5,2.05-.02,4.21-.03,6.47-.03-.01,1.68-.03,3.31-.05,4.85Zm23.27,63.64c-5.95,5.95-13.42,9.47-21.16,10.56,.24-16.03,1.24-24.96,6.1-29.81,4.45-4.45,12.33-5.66,25.98-6.02-.28,9.17-3.91,18.26-10.91,25.27Zm-15.07-33.55c-4.85-4.85-5.85-13.78-6.1-29.82,7.74,1.09,15.21,4.61,21.16,10.56,7.01,7.01,10.64,16.1,10.91,25.28-13.64-.36-21.53-1.57-25.98-6.02Z"/>
  </g>
</svg>