<?xml version="1.0" encoding="UTF-8"?>
<svg id="Layer_2" data-name="Layer 2" xmlns="http://www.w3.org/2000/svg" viewBox="0 0 432.34 110.06">
  <g id="Layer_1-2" data-name="Layer 1">
    <g>
      <path d="M376.45,11.58c-23.11,0-41.93,18.54-42.46,41.52h-112.45c-.53-22.98-19.35-41.52-42.46-41.52-7.54,0-14.61,1.99-20.76,5.45-6.15-3.46-13.22-5.45-20.76-5.45s-14.61,1.99-20.76,5.45c-6.15-3.46-13.22-5.45-20.76-5.45s-14.61,1.99-20.76,5.45c-6.15-3.46-13.22-5.45-20.76-5.45C31.08,11.58,12.01,30.65,12.01,54.09s19.07,42.51,42.51,42.51c7.54,0,14.61-1.99,20.76-5.45,6.15,3.46,13.22,5.45,20.76,5.45s14.61-1.99,20.76-5.45c6.15,3.46,13.22,5.45,20.76,5.45s14.61-1.99,20.76-5.45c6.15,3.46,13.22,5.45,20.76,5.45,23.11,0,41.93-18.54,42.46-41.52h112.45c.53,22.98,19.35,41.52,42.46,41.52s42.51-19.07,42.51-42.51-19.07-42.51-42.51-42.51Zm-197.37,1.98c22.02,0,39.95,17.65,40.48,39.54h-39.54c-.34-14.67-8.13-27.5-19.75-34.88,5.63-2.96,12.02-4.66,18.81-4.66ZM95,55.08c-.35,14.34-8.17,26.83-19.72,33.76-11.55-6.93-19.37-19.42-19.72-33.76h39.44Zm-39.44-1.98c.35-14.34,8.17-26.83,19.72-33.76,11.55,6.93,19.37,19.42,19.72,33.76H55.56Zm80.96,1.98c-.35,14.34-8.17,26.83-19.72,33.76-11.55-6.93-19.37-19.42-19.72-33.76h39.44Zm-39.44-1.98c.35-14.34,8.17-26.83,19.72-33.76,11.55,6.93,19.37,19.42,19.72,33.76h-39.44Zm41.52,0c.35-14.34,8.17-26.83,19.72-33.76,11.55,6.93,19.37,19.42,19.72,33.76h-39.44Zm39.44,1.98c-.35,14.34-8.17,26.83-19.72,33.76-11.55-6.93-19.37-19.42-19.72-33.76h39.44ZM137.56,13.56c6.79,0,13.18,1.7,18.81,4.66-9.43,5.99-16.36,15.58-18.81,26.84-2.45-11.26-9.37-20.84-18.81-26.84,5.63-2.96,12.02-4.66,18.81-4.66Zm-41.52,0c6.79,0,13.18,1.7,18.81,4.66-9.43,5.99-16.36,15.58-18.81,26.84-2.45-11.26-9.37-20.84-18.81-26.84,5.63-2.96,12.02-4.66,18.81-4.66ZM54.52,94.62c-22.35,0-40.53-18.18-40.53-40.53S32.17,13.56,54.52,13.56c6.79,0,13.18,1.7,18.81,4.66-11.88,7.55-19.8,20.79-19.8,35.87s7.92,28.32,19.8,35.87c-5.63,2.96-12.02,4.66-18.81,4.66Zm41.52,0c-6.79,0-13.18-1.7-18.81-4.66,9.43-5.99,16.36-15.58,18.81-26.84,2.45,11.26,9.37,20.84,18.81,26.84-5.63,2.96-12.02,4.66-18.81,4.66Zm41.52,0c-6.79,0-13.18-1.7-18.81-4.66,9.43-5.99,16.36-15.58,18.81-26.84,2.45,11.26,9.37,20.84,18.81,26.84-5.63,2.96-12.02,4.66-18.81,4.66Zm41.52,0c-6.79,0-13.18-1.7-18.81-4.66,11.61-7.38,19.41-20.21,19.75-34.88h39.54c-.53,21.89-18.47,39.54-40.48,39.54Zm197.37,0c-22.02,0-39.95-17.65-40.48-39.54h39.29c.55,0,.99-.44,.99-.99s-.44-.99-.99-.99h-39.29c.53-21.89,18.47-39.54,40.48-39.54s40.53,18.18,40.53,40.53-18.18,40.53-40.53,40.53Z"/>
      <rect x="383.37" y="41.77" width="6.04" height="1.98" transform="translate(82.89 285.68) rotate(-44.99)"/>
      <rect x="386.14" y="63" width="1.98" height="6.04" transform="translate(66.75 293.13) rotate(-45.01)"/>
      <rect x="386.38" y="53.1" width="15.51" height="1.98"/>
      <path d="M377.31,0H55.03C24.69,0,0,24.69,0,55.03s24.69,55.03,55.03,55.03H377.31c30.34,0,55.03-24.69,55.03-55.03S407.66,0,377.31,0Zm0,108.08H55.03C25.78,108.08,1.98,84.28,1.98,55.03S25.78,1.98,55.03,1.98H377.31c29.25,0,53.05,23.8,53.05,53.05s-23.8,53.05-53.05,53.05Z"/>
    </g>
  </g>
</svg>