<?xml version="1.0" encoding="UTF-8"?>
<svg id="Layer_2" data-name="Layer 2" xmlns="http://www.w3.org/2000/svg" viewBox="0 0 123.11 121.78">
  <g id="Layer_1-2" data-name="Layer 1">
    <g>
      <path d="M32.79,.3h-2.54c0,16.68-13.57,30.25-30.25,30.25v2.54C18.08,33.09,32.79,18.38,32.79,.3Z"/>
      <path d="M42.64,.3h-2.35C40.29,22.52,22.22,40.6,0,40.6v2.35C23.51,42.94,42.64,23.82,42.64,.3Z"/>
      <path d="M90.32,121.27h2.54c0-16.68,13.57-30.25,30.25-30.25v-2.54c-18.08,0-32.79,14.71-32.79,32.79Z"/>
      <path d="M80.49,121.27h2.3c0-22.23,18.09-40.32,40.32-40.32v-2.3c-23.5,0-42.62,19.12-42.62,42.62Z"/>
      <path d="M123.11,.42v-.42c-3.86,0-7.69,.18-11.49,.54,0-.08,0-.16,0-.24h-1.03c0,.11,0,.22,0,.34-2.97,.3-5.92,.71-8.84,1.23,0-.52,.02-1.04,.02-1.57h-1.22c0,.6-.01,1.2-.02,1.79-2.93,.55-5.83,1.2-8.69,1.96,.05-1.25,.08-2.5,.08-3.76h-1.41c0,1.39-.04,2.77-.1,4.14-2.92,.81-5.8,1.73-8.64,2.76,.19-2.28,.29-4.58,.29-6.9h-1.6c0,2.53-.12,5.04-.35,7.52-2.98,1.13-5.91,2.36-8.78,3.72,.58-3.66,.88-7.42,.88-11.24h-1.79c0,4.17-.38,8.24-1.08,12.21-3.24,1.6-6.4,3.36-9.49,5.26,1.62-5.55,2.51-11.4,2.51-17.46h-1.97c0,6.67-1.1,13.09-3.11,19.09-4.89,3.17-9.57,6.72-14.02,10.62,5.83-8.45,9.25-18.69,9.25-29.71h-2.16C50.33,28.06,27.75,50.64,0,50.64v2.16c11.36,0,21.88-3.64,30.47-9.79-3.83,4.52-7.3,9.27-10.39,14.22-6.29,2.22-13.04,3.45-20.08,3.45v1.97c6.44,0,12.65-.98,18.49-2.8-1.84,3.12-3.54,6.31-5.08,9.57-4.34,.84-8.83,1.3-13.41,1.3v1.79c4.27,0,8.44-.39,12.51-1.11-1.31,2.91-2.51,5.86-3.59,8.87-2.93,.32-5.9,.5-8.92,.5v1.6c2.81,0,5.6-.14,8.34-.42-.98,2.86-1.84,5.75-2.6,8.68-1.9,.12-3.81,.19-5.74,.19v1.41c1.8,0,3.59-.06,5.37-.16-.71,2.88-1.31,5.79-1.81,8.72-1.18,.04-2.37,.07-3.56,.07v1.22c1.13,0,2.25-.03,3.36-.06-.46,2.93-.82,5.88-1.07,8.85-.76,.02-1.52,.03-2.29,.03v1.03c.74,0,1.47-.01,2.2-.03-.23,2.98-.34,5.99-.35,9.01-.62,0-1.23,.02-1.85,.02v.85c3.94,0,7.83-.2,11.68-.56,0,.02,0,.03,0,.05h.66s0-.07,0-.11c3.1-.31,6.16-.74,9.19-1.29,0,.47-.02,.93-.02,1.4h.89c0-.52,.01-1.05,.02-1.57,3.04-.57,6.04-1.25,9-2.05-.05,1.2-.08,2.4-.08,3.61h1.13c0-1.31,.03-2.62,.09-3.92,3.01-.84,5.98-1.79,8.89-2.85-.18,2.23-.28,4.49-.28,6.77h1.36c0-2.46,.12-4.9,.33-7.3,3.06-1.16,6.06-2.43,9-3.83-.56,3.63-.86,7.34-.86,11.13h1.6c0-4.09,.37-8.09,1.04-11.99,3.31-1.63,6.53-3.41,9.66-5.33-1.6,5.5-2.47,11.31-2.47,17.32h1.83c0-6.57,1.07-12.89,3.01-18.81,4.9-3.16,9.56-6.67,13.95-10.48-5.66,8.37-8.96,18.45-8.96,29.3h2.07c0-27.78,22.6-50.38,50.38-50.38v-2.07c-11.2,0-21.58,3.54-30.11,9.54,3.75-4.47,7.19-9.2,10.28-14.18,6.21-2.16,12.88-3.36,19.82-3.36v-1.83c-6.39,0-12.55,.97-18.36,2.76,1.86-3.16,3.58-6.41,5.16-9.74,4.28-.81,8.69-1.26,13.2-1.26v-1.6c-4.22,0-8.35,.39-12.38,1.08,1.34-2.96,2.56-6,3.67-9.08,2.86-.31,5.77-.47,8.71-.47v-1.36c-2.77,0-5.51,.14-8.21,.41,1.01-2.93,1.91-5.91,2.7-8.94,1.82-.11,3.66-.17,5.51-.17v-1.13c-1.75,0-3.49,.05-5.22,.15,.74-2.97,1.37-5.98,1.88-9.03,1.11-.04,2.22-.06,3.34-.06v-.89c-1.07,0-2.13,.02-3.19,.06,.49-3.03,.87-6.1,1.13-9.2,.69-.01,1.37-.03,2.07-.03v-.66c-.67,0-1.34,.01-2.01,.03,.24-3.11,.37-6.25,.37-9.41,.54,0,1.09-.02,1.63-.02Zm-12.53,.65c-.02,3.21-.18,6.38-.47,9.52-3.04,.36-6.05,.83-9.02,1.43,.37-3.19,.59-6.43,.65-9.71,2.91-.52,5.86-.94,8.84-1.24Zm-34.42,79.35c-5.57,5.3-11.69,10.02-18.27,14.07,7-17,20.46-30.67,37.3-37.96-3.93,6.62-8.52,12.81-13.7,18.45-1.89,1.7-3.67,3.52-5.34,5.44Zm-27.74-40.88c5.17-4.73,10.79-8.97,16.78-12.66-7,17.11-20.54,30.88-37.5,38.17,3.59-6.08,7.75-11.78,12.4-17.04,3.03-2.55,5.82-5.39,8.32-8.46Zm1.52,48.02c7.84-16.95,21.39-30.73,38.18-38.86-8.92,16.18-22.17,29.66-38.18,38.86Zm4.44-39.82c5.68-5.31,11.96-9.97,18.75-13.87-7.84,17.01-21.44,30.84-38.28,38.97,3.75-6.81,8.27-13.14,13.44-18.88,2.16-1.95,4.19-4.03,6.1-6.22Zm-12.12,32.59c4.01-7.89,9.15-15.13,15.2-21.48,.7-.69,1.39-1.38,2.06-2.1,6.26-6.17,13.41-11.43,21.23-15.59-8.48,16.69-21.97,30.41-38.49,39.17Zm22.83-30.1c4.15-5.4,7.64-11.32,10.36-17.65,3.51-1.89,7.14-3.58,10.88-5.06-1.3,4.11-2.88,8.09-4.72,11.92-5.9,3.01-11.44,6.63-16.52,10.79Zm-14.04,14.29c-4.06,5.15-7.58,10.74-10.48,16.69-3.8,1.91-7.75,3.57-11.83,4.94,1.41-3.77,3.03-7.42,4.86-10.96,6.28-2.83,12.14-6.42,17.46-10.66Zm-11.45,18.74c-1.65,3.61-3.07,7.35-4.25,11.19-3.3,1.24-6.68,2.32-10.14,3.22,.81-3.35,1.78-6.63,2.92-9.84,3.95-1.27,7.78-2.8,11.47-4.57Zm1.62-.8c6.02-3.03,11.66-6.71,16.84-10.93-4.03,5.26-7.44,11.01-10.11,17.16-3.62,1.97-7.38,3.73-11.26,5.25,1.25-3.95,2.77-7.78,4.53-11.48Zm31.03-25.37c4.13-5.24,7.7-10.94,10.63-17.01,3.66-1.82,7.46-3.41,11.39-4.73-1.46,3.9-3.15,7.69-5.06,11.35-6.09,2.78-11.77,6.28-16.96,10.4Zm11.39-18.64c1.71-3.73,3.17-7.58,4.37-11.56,3.19-1.19,6.45-2.22,9.78-3.09-.83,3.47-1.85,6.88-3.04,10.2-3.82,1.24-7.53,2.73-11.11,4.44Zm4.69-12.63c.99-3.41,1.78-6.9,2.37-10.47,2.97-.91,6-1.7,9.07-2.36-.42,3.33-1.01,6.61-1.74,9.83-3.3,.84-6.53,1.84-9.69,3Zm-1.66,.63c-3.66,1.41-7.22,3.03-10.67,4.84,1.58-3.86,2.87-7.86,3.85-11.98,3.04-1.3,6.16-2.45,9.33-3.48-.63,3.62-1.47,7.16-2.52,10.62Zm-12.92,6.06c-5.64,3.15-10.95,6.82-15.87,10.95,4.1-5.48,7.43-11.56,9.85-18.08,3.32-1.93,6.75-3.68,10.28-5.26-1.09,4.28-2.52,8.42-4.26,12.39Zm-29.53,24.84c-4.06,5.01-7.66,10.4-10.73,16.13-3.94,1.81-8.06,3.31-12.31,4.47,1.52-3.56,3.23-7.03,5.1-10.39,6.49-2.54,12.52-6,17.94-10.21Zm-11.91,18.4c-1.75,3.48-3.31,7.06-4.66,10.75-3.44,1.1-6.96,2.01-10.56,2.7,.97-3.19,2.08-6.32,3.32-9.39,4.1-1.05,8.08-2.42,11.9-4.06Zm-5.25,12.42c-1.1,3.18-2.04,6.43-2.83,9.74-3.21,.8-6.48,1.44-9.8,1.92,.61-3.08,1.34-6.12,2.2-9.1,3.55-.65,7.03-1.51,10.43-2.55Zm-3.13,11.07c-.69,3.09-1.23,6.22-1.63,9.41-3.09,.63-6.23,1.13-9.4,1.5,.31-3.06,.74-6.08,1.29-9.06,3.3-.46,6.55-1.08,9.74-1.85Zm.97-.24c3.41-.86,6.75-1.89,10.02-3.08-.95,3.29-1.71,6.65-2.29,10.08-3.08,.95-6.22,1.77-9.4,2.45,.41-3.2,.97-6.35,1.67-9.44Zm11.34-3.59c3.76-1.44,7.42-3.1,10.96-4.95-1.52,3.72-2.76,7.57-3.72,11.54-3.14,1.35-6.36,2.55-9.64,3.61,.61-3.47,1.42-6.87,2.41-10.19Zm12.87-5.98c5.71-3.16,11.08-6.84,16.05-11-3.93,5.3-7.14,11.15-9.51,17.42-3.42,2-6.96,3.83-10.6,5.46,1.05-4.09,2.41-8.06,4.06-11.88Zm30.12-25.31c4.08-5.05,7.68-10.51,10.75-16.29,3.79-1.72,7.73-3.14,11.8-4.26-1.57,3.68-3.33,7.25-5.28,10.71-6.23,2.48-12.04,5.81-17.28,9.84Zm11.75-18.21c1.8-3.57,3.39-7.25,4.76-11.04,3.3-1.05,6.69-1.91,10.14-2.58-1,3.3-2.15,6.53-3.44,9.7-3.95,1.03-7.78,2.35-11.47,3.93Zm5.23-12.37c1.14-3.28,2.11-6.64,2.91-10.07,3.08-.76,6.22-1.37,9.41-1.84-.63,3.2-1.39,6.35-2.29,9.44-3.42,.64-6.77,1.46-10.04,2.47Zm3.13-11.04c.72-3.2,1.28-6.47,1.68-9.78,2.97-.6,5.98-1.08,9.03-1.44-.31,3.18-.77,6.33-1.35,9.43-3.17,.45-6.3,1.05-9.37,1.79Zm1.19-19.93c-.07,3.29-.31,6.53-.69,9.74-3.06,.65-6.07,1.43-9.03,2.33,.52-3.3,.86-6.66,1.01-10.07,2.86-.77,5.76-1.43,8.71-1.99Zm-10.13,2.38c-.17,3.44-.55,6.83-1.1,10.16-3.15,1.01-6.24,2.15-9.27,3.42,.8-3.51,1.37-7.11,1.7-10.77,2.84-1.04,5.73-1.97,8.67-2.8Zm-10.33,3.43c-.37,3.73-1,7.38-1.87,10.94-3.48,1.54-6.86,3.24-10.14,5.12,1.4-3.94,2.47-8.04,3.17-12.27,2.89-1.38,5.84-2.64,8.84-3.79Zm-10.83,4.77c-.81,4.4-2.03,8.65-3.63,12.73-5.34,3.23-10.39,6.9-15.1,10.95,3.99-5.5,7.11-11.68,9.13-18.32,3.11-1.92,6.3-3.71,9.59-5.35Zm-36.96,28.54c3.66-2.86,6.93-6.18,9.72-9.89,4.69-4.25,9.71-8.13,15.02-11.62-5.94,17.02-19.29,30.59-36.17,36.81,3.41-5.41,7.24-10.52,11.43-15.31Zm-13.05,17.94c6.58-2.14,12.69-5.33,18.12-9.4-3.95,4.76-7.52,9.86-10.65,15.25-4.05,1.67-8.29,2.97-12.67,3.86,1.59-3.32,3.33-6.56,5.2-9.71Zm-6.13,11.69c4.2-.77,8.29-1.9,12.2-3.37-1.81,3.31-3.46,6.73-4.94,10.23-3.55,.93-7.19,1.62-10.9,2.05,1.1-3.03,2.31-6,3.64-8.91Zm-4.23,10.59c3.66-.39,7.24-1.03,10.74-1.89-1.22,3.05-2.31,6.16-3.26,9.33-3.32,.61-6.7,1.03-10.13,1.27,.77-2.95,1.66-5.85,2.65-8.71Zm-3.01,10.14c3.4-.21,6.75-.61,10.05-1.19-.85,2.97-1.56,6-2.16,9.07-3.2,.44-6.44,.73-9.72,.86,.51-2.95,1.12-5.86,1.84-8.74Zm-2.04,9.97c3.27-.12,6.5-.39,9.68-.82-.54,2.97-.97,5.99-1.27,9.04-3.13,.35-6.3,.57-9.5,.64,.26-2.99,.62-5.94,1.09-8.86Zm-1.54,18.91c0-3.03,.13-6.04,.36-9.01,3.2-.07,6.37-.29,9.5-.63-.27,3-.42,6.04-.44,9.1-3.11,.3-6.25,.48-9.42,.54Zm10.07-.6c.03-3.07,.18-6.11,.45-9.12,3.16-.36,6.29-.85,9.37-1.48-.35,3.06-.56,6.16-.63,9.3-3.03,.55-6.09,.98-9.19,1.3Zm10.08-1.47c.07-3.14,.3-6.25,.66-9.32,3.16-.67,6.28-1.47,9.34-2.4-.49,3.17-.82,6.39-.98,9.65-2.96,.8-5.97,1.49-9.02,2.07Zm10.16-2.38c.17-3.29,.53-6.53,1.04-9.71,3.25-1.03,6.43-2.2,9.54-3.51-.76,3.37-1.31,6.82-1.64,10.33-2.93,1.08-5.91,2.04-8.94,2.89Zm10.36-3.43c.36-3.56,.96-7.05,1.78-10.46,3.55-1.56,7.01-3.3,10.36-5.21-1.34,3.79-2.36,7.72-3.05,11.76-2.97,1.42-6,2.72-9.09,3.91Zm10.87-4.79c.79-4.19,1.94-8.26,3.44-12.16,5.35-3.21,10.4-6.85,15.12-10.88-3.77,5.29-6.75,11.19-8.73,17.53-3.18,1.98-6.46,3.82-9.82,5.51Zm35.9-27.39c-2.77,2.29-5.29,4.87-7.54,7.68-4.98,4.64-10.35,8.87-16.06,12.62,5.96-16.84,19.18-30.28,35.89-36.52-3.64,5.75-7.75,11.18-12.29,16.22Zm13.81-18.69c-6.27,2.08-12.11,5.13-17.32,8.98,3.93-4.77,7.47-9.88,10.58-15.27,3.88-1.57,7.92-2.82,12.1-3.68-1.63,3.41-3.42,6.74-5.36,9.96Zm6.19-11.74c-4.02,.76-7.94,1.84-11.7,3.24,1.85-3.38,3.52-6.87,5.02-10.45,3.39-.87,6.88-1.53,10.43-1.95-1.13,3.11-2.38,6.17-3.75,9.16Zm4.26-10.59c-3.5,.39-6.94,1-10.29,1.82,1.25-3.13,2.37-6.34,3.34-9.61,3.18-.57,6.41-.97,9.69-1.2-.8,3.04-1.71,6.04-2.74,8.99Zm3.03-10.14c-3.26,.22-6.47,.6-9.63,1.15,.88-3.08,1.62-6.21,2.23-9.38,3.06-.41,6.16-.68,9.3-.81-.52,3.06-1.16,6.08-1.9,9.05Zm2.05-9.95c-3.13,.12-6.22,.39-9.28,.79,.57-3.09,1.01-6.22,1.32-9.39,3-.33,6.03-.54,9.1-.62-.26,3.11-.64,6.18-1.14,9.22Zm1.2-9.88c-3.07,.08-6.1,.28-9.1,.61,.28-3.13,.44-6.3,.46-9.5,2.98-.28,5.98-.46,9.02-.52,0,3.17-.13,6.31-.38,9.41Z"/>
    </g>
  </g>
</svg>