<?xml version="1.0" encoding="UTF-8"?>
<svg id="Layer_2" data-name="Layer 2" xmlns="http://www.w3.org/2000/svg" viewBox="0 0 81.85 122.77">
  <g id="Layer_1-2" data-name="Layer 1">
    <path d="M61.38,81.85c-14.47,0-20.46-6-20.46-20.46,0,0,0,0,0,0,0,0,0,0,0,0,0-14.47,5.99-20.46,20.46-20.46,11.3,0,20.46-9.16,20.46-20.46S72.69,0,61.38,0s-20.46,9.16-20.46,20.46c0,14.45-5.98,20.45-20.42,20.46-.01,0-.03,0-.04,0-4.4,0-8.47,1.41-11.81,3.78C3.42,48.4,0,54.49,0,61.38c0,3.53,.9,6.86,2.47,9.75,3.46,6.38,10.22,10.71,17.99,10.71,14.47,0,20.46,5.99,20.46,20.46,0,11.3,9.16,20.46,20.46,20.46s20.46-9.16,20.46-20.46-9.16-20.46-20.46-20.46Z"/>
  </g>
</svg>