<?xml version="1.0" encoding="UTF-8"?>
<svg id="Layer_2" data-name="Layer 2" xmlns="http://www.w3.org/2000/svg" viewBox="0 0 74.86 120.88">
  <g id="Layer_1-2" data-name="Layer 1">
    <g>
      <g>
        <path d="M33.89,60.37v.14s.01-.05,.01-.07-.01-.05-.01-.07Zm-1.19,.04c-.03,.23-.07,.47-.11,.7,.05-.22,.08-.44,.12-.67,0-.01,0-.02-.01-.04Zm-24.56,10.87s.09,.06,.13,.1h0s-.09-.07-.13-.1Zm-.96-.71c.18,.14,.35,.28,.53,.41h0c-.18-.14-.35-.27-.53-.41Zm-.54-.45c.16,.16,.34,.3,.51,.44h0c-.18-.15-.35-.29-.51-.44Zm-.52-.47c.16,.16,.33,.32,.5,.46h0c-.16-.15-.33-.3-.5-.46Zm-.49-.48c.15,.16,.3,.32,.47,.47h0c-.16-.16-.32-.32-.47-.47Zm-.92-1.04l-.04-.02c.08,.09,.16,.19,.25,.28-.07-.09-.14-.17-.21-.26Zm-3.39-7.73s-.01-.02-.01-.04v.07c.04,.22,.07,.44,.12,.67l-.11-.7Zm-1.19,.04s.01,.06,.01,.08v-.15s-.01,.05-.01,.07Z"/>
        <g>
          <path d="M1.31,60.29l-.22-1.61c.02-.12,.05-.22,.08-.33,.01,.61,.06,1.24,.14,1.93Z"/>
          <path d="M1.44,61.1c-.05-.22-.08-.44-.12-.67v-.07s0,.02,.01,.04l.11,.7Z"/>
          <path d="M4.93,68.39c-.08-.09-.16-.19-.25-.28l.04,.02c.07,.09,.14,.17,.21,.26Z"/>
          <path d="M6.11,69.63h0c-.16-.14-.32-.29-.47-.46,.15,.15,.3,.3,.47,.46Z"/>
          <path d="M6.63,70.1h0c-.16-.13-.33-.28-.5-.44,.16,.15,.33,.3,.5,.44Z"/>
          <path d="M7.16,70.55h0c-.18-.13-.35-.27-.51-.43,.16,.15,.34,.29,.51,.43Z"/>
          <path d="M7.71,70.97h0c-.18-.12-.35-.26-.53-.4,.18,.14,.35,.27,.53,.4Z"/>
          <path d="M8.28,71.36h0s-.09-.05-.13-.09c.05,.03,.09,.06,.13,.09Z"/>
          <path d="M32.72,60.44c-.03,.22-.07,.44-.12,.67,.04-.23,.07-.47,.11-.7,.01,.01,.01,.02,.01,.04Z"/>
          <path d="M32.96,58.68l-.24,1.68c.1-.71,.15-1.37,.15-2,.05,.11,.07,.21,.09,.33Z"/>
          <path d="M32.86,58.35c0,.63-.05,1.29-.15,2l.24-1.68c-.02-.12-.05-.22-.09-.33Zm-24.71,12.92s.09,.06,.13,.1h0s-.09-.07-.13-.1Zm-.96-.71c.18,.14,.35,.28,.53,.41h0c-.18-.14-.35-.27-.53-.41Zm-.54-.45c.16,.16,.34,.3,.51,.44h0c-.18-.15-.35-.29-.51-.44Zm-.52-.47c.16,.16,.33,.32,.5,.46h0c-.16-.15-.33-.3-.5-.46Zm-.49-.48c.15,.16,.3,.32,.47,.47h0c-.16-.16-.32-.32-.47-.47Zm-.92-1.04l-.04-.02c.08,.09,.16,.19,.25,.28-.07-.09-.14-.17-.21-.26Zm-3.4-7.76v.04h.01s-.01-.02-.01-.04Zm-.15-2.01c-.04,.11-.06,.21-.08,.33l.22,1.61c-.08-.69-.13-1.33-.14-1.93Z"/>
        </g>
        <g>
          <path d="M1.32,101.49l-.22-1.69c.02-.11,.05-.21,.08-.32,0,.65,.06,1.32,.14,2Z"/>
          <path d="M32.95,99.8l-.23,1.69c.09-.68,.15-1.35,.15-2,.04,.11,.06,.21,.08,.32Z"/>
          <path d="M1.18,99.49c-.03,.11-.06,.21-.08,.32l.22,1.69c-.08-.68-.14-1.35-.14-2Zm31.69,0c0,.65-.06,1.32-.15,2l.23-1.69c-.02-.11-.05-.21-.08-.32Z"/>
        </g>
        <g>
          <path d="M73.51,19.27c-.01,.12-.02,.23-.05,.35,.02-.1,.05-.21,.06-.32,0-.01,0-.02-.01-.04Zm1.19-.05v.16s.01-.06,.01-.08-.01-.06-.01-.08Z"/>
          <path d="M74.7,19.39v-.16s.01,.06,.01,.08c.09-.78,.15-1.54,.15-2.28,0-9.39-7.64-17.02-17.02-17.02s-17.02,7.64-17.02,17.02c0,.74,.06,1.51,.16,2.27v.02c-.11,.78-.16,1.52-.16,2.26,0,9.39,7.64,17.02,17.02,17.02s17.02-7.63,17.02-17.02c0-.75-.06-1.48-.15-2.27,0,.02-.01,.06-.01,.08Zm-1.17-.16s0,.03-.01,.05c.01,.01,.01,.02,.01,.04-.01,.11-.04,.21-.06,.32-.01,.12-.04,.24-.06,.36h0c-.04,.25-.08,.47-.14,.69-.06,.23-.12,.47-.19,.69-.06,.23-.13,.47-.21,.69-.07,.22-.15,.44-.23,.67-.01,.02-.02,.05-.02,.07-.16,.42-.35,.83-.55,1.23-.11,.22-.21,.43-.33,.62-.2,.37-.42,.72-.64,1.07-1.45,2.2-3.43,4.01-5.74,5.26-.57,.32-1.17,.58-1.77,.82-.11,.05-.22,.08-.31,.12-.16,.07-.33,.13-.49,.18-1.57,.51-3.23,.79-4.94,.79s-3.37-.28-4.94-.79c-.16-.05-.33-.1-.5-.18-.09-.04-.2-.07-.3-.12-.61-.22-1.19-.5-1.76-.82-3.28-1.76-5.88-4.65-7.26-8.19-.08-.2-.15-.4-.22-.6-.16-.47-.3-.96-.42-1.45-.04-.16-.07-.32-.11-.48-.06-.32-.12-.64-.16-.95,0-.02-.01-.06-.01-.08l-.23-1.7c.02-.11,.05-.21,.08-.3-.01-.07-.01-.13-.01-.2,0-.65,.03-1.3,.13-1.93,.95-7.84,7.63-13.92,15.72-13.92s14.78,6.08,15.72,13.92c.09,.64,.13,1.28,.13,1.93,0,.07,0,.13-.01,.2,.04,.09,.06,.2,.08,.3l-.23,1.7Z"/>
        </g>
        <g>
          <path d="M42.15,19.23l-.23-1.7c.02-.11,.05-.21,.08-.3,0,.66,.06,1.33,.15,2Z"/>
          <path d="M73.52,19.31c-.01,.11-.04,.21-.06,.32,.02-.12,.04-.23,.05-.35,.01,.01,.01,.02,.01,.04Z"/>
          <path d="M73.76,17.53l-.23,1.7c.09-.68,.15-1.34,.15-2,.04,.09,.06,.2,.08,.3Z"/>
          <path d="M73.68,17.22c0,.66-.06,1.33-.15,2l.23-1.7c-.02-.11-.05-.21-.08-.3Zm-31.68,0c-.04,.09-.06,.2-.08,.3l.23,1.7c-.09-.68-.15-1.34-.15-2Z"/>
        </g>
        <path d="M50.07,82.2c-.08,.27-.19,.54-.32,.81l.09,.37,.25-.97,.32-1.27c-.09,.36-.2,.71-.34,1.06Zm-.79-1.34l-.04,.14s.04-.11,.05-.15c.04-.13,.06-.26,.08-.39-.02,.13-.06,.27-.09,.4Z"/>
        <path d="M73.51,101.55c-.02,.1-.04,.22-.05,.34,.02-.1,.05-.21,.06-.32t-.01-.02Zm1.19-.06v.16s.01-.04,.01-.06v-.02s-.01-.06-.01-.08Z"/>
        <path d="M74.7,60.36v.16s.01-.05,.01-.07h0s-.01-.07-.01-.09Zm-1.19,.05c-.05,.36-.11,.7-.18,1.05,.08-.34,.14-.68,.19-1.02,0-.01,0-.02-.01-.04Zm-7.91,21.81c-.14-.36-.25-.71-.34-1.07-.05-.2-.09-.4-.14-.6,.02,.15,.06,.3,.09,.46,.01,.05,.02,.09,.03,.14l.33,1.28,.25,.96,.09-.36c-.13-.27-.23-.54-.32-.81Z"/>
        <g>
          <path d="M1.32,19.21l-.23-1.68c.02-.12,.06-.22,.09-.33,0,.66,.06,1.33,.14,2Z"/>
          <path d="M42.15,101.49l-.23-1.69h0c.01-.12,.05-.21,.08-.32,0,.65,.06,1.32,.15,2Z"/>
          <path d="M50.41,81.15l-.32,1.27c0-.07-.01-.14-.02-.21,.14-.35,.25-.7,.34-1.06Z"/>
          <path d="M73.52,101.57c-.01,.11-.04,.21-.06,.32,.01-.12,.02-.23,.05-.34t.01,.02Z"/>
          <path d="M73.52,60.44c-.05,.34-.11,.68-.19,1.02,.07-.35,.13-.69,.18-1.05,.01,.01,.01,.02,.01,.04Z"/>
          <path d="M65.61,82.22c-.01,.07-.02,.14-.02,.21l-.33-1.28s-.02-.09-.03-.14c-.04-.15-.07-.3-.09-.46,.05,.2,.09,.4,.14,.6,.09,.36,.2,.71,.34,1.07Z"/>
          <path d="M73.76,99.79h0s-.23,1.7-.23,1.7c.09-.68,.15-1.35,.15-2,.04,.11,.07,.2,.08,.3Z"/>
          <path d="M73.76,58.66l-.23,1.7c.09-.68,.15-1.35,.15-2,.04,.09,.06,.2,.08,.3Z"/>
          <path d="M40.97,101.49s-.01,.04,0,.06c.01-.02,.01-.04,.01-.06l.02-.21-.03,.21Zm1.02-2c-.04,.11-.07,.2-.08,.3h0s.23,1.7,.23,1.7c-.09-.68-.15-1.35-.15-2Zm8.07-17.28c-.08,.27-.19,.54-.32,.81l.09,.37,.25-.97,.32-1.27c-.09,.36-.2,.71-.34,1.06ZM1.18,17.21c-.03,.1-.07,.21-.09,.33l.23,1.68c-.08-.68-.14-1.34-.14-2ZM73.68,58.35c0,.65-.06,1.33-.15,2l.23-1.7c-.02-.1-.05-.21-.08-.3Zm0,41.13c0,.65-.06,1.32-.15,2l.23-1.69h0c-.01-.12-.05-.21-.08-.32Zm-7.5-17.43l-.25,.97c.06,.15,.13,.3,.2,.46-.01-.45,.01-.88,.08-1.33-.02-.04-.04-.07-.04-.1Zm-.57,.16c-.14-.36-.25-.71-.34-1.07-.05-.2-.09-.4-.14-.6,.02,.15,.06,.3,.09,.46,.01,.05,.02,.09,.03,.14l.33,1.28,.25,.96,.09-.36c-.13-.27-.23-.54-.32-.81Zm-16.33-1.35l-.04,.14s.04-.11,.05-.15c.04-.13,.06-.26,.08-.39-.02,.13-.06,.27-.09,.4Z"/>
        </g>
      </g>
      <g>
        <g>
          <path d="M1.17,58.35c-.04,.11-.06,.21-.08,.33l.22,1.61c-.08-.69-.13-1.33-.14-1.93Zm31.7,0c0,.63-.05,1.29-.15,2l.24-1.68c-.02-.12-.05-.22-.09-.33Zm-.16,2.05c-.03,.23-.07,.47-.11,.7,.05-.22,.08-.44,.12-.67,0-.01,0-.02-.01-.04Zm-24.56,10.87s.09,.06,.13,.1h0s-.09-.07-.13-.1Zm-.96-.71c.18,.14,.35,.28,.53,.41h0c-.18-.14-.35-.27-.53-.41Zm-.54-.45c.16,.16,.34,.3,.51,.44h0c-.18-.15-.35-.29-.51-.44Zm-.52-.47c.16,.16,.33,.32,.5,.46h0c-.16-.15-.33-.3-.5-.46Zm-.49-.48c.15,.16,.3,.32,.47,.47h0c-.16-.16-.32-.32-.47-.47Zm-.92-1.04l-.04-.02c.08,.09,.16,.19,.25,.28-.07-.09-.14-.17-.21-.26Zm-3.39-7.73s-.01-.02-.01-.04v.07c.04,.22,.07,.44,.12,.67l-.11-.7Z"/>
          <path d="M.14,60.44s.01,.06,.01,.08v-.15s-.01,.05-.01,.07Zm1.03-2.08c-.04,.11-.06,.21-.08,.33l.22,1.61c-.08-.69-.13-1.33-.14-1.93Zm32.72,2.01v.14s.01-.05,.01-.07-.01-.05-.01-.07Zm-1.03-2.01c0,.63-.05,1.29-.15,2l.24-1.68c-.02-.12-.05-.22-.09-.33Zm-.16,2.05c-.03,.23-.07,.47-.11,.7,.05-.22,.08-.44,.12-.67,0-.01,0-.02-.01-.04Zm-31.38,0h-.01v.04c.04,.22,.07,.44,.12,.67l-.11-.7Z"/>
          <path d="M33.89,60.51v-.14s.01,.05,.01,.07c.09-.82,.14-1.57,.14-2.28,0-9.39-7.63-17.02-17.02-17.02S0,48.77,0,58.16c0,.71,.05,1.47,.14,2.28,0-.02,.01-.05,.01-.07v.15s-.01-.06-.01-.08c-.09,.81-.14,1.55-.14,2.27,0,9.39,7.63,17.04,17.02,17.04s17.02-7.65,17.02-17.04c0-.72-.05-1.47-.14-2.27,0,.02-.01,.05-.01,.07Zm-1.17-.15s0,.04-.01,.05c.01,.01,.01,.02,.01,.04-.03,.22-.07,.44-.12,.67-.05,.23-.09,.46-.15,.7-.39,1.66-1.04,3.21-1.9,4.62-.24,.37-.47,.72-.73,1.07-1.54,2.08-3.56,3.78-5.9,4.92-.33,.17-.67,.31-1,.45-.37,.15-.75,.29-1.15,.41-.32,.11-.64,.2-.97,.28-1.22,.29-2.48,.46-3.77,.46s-2.55-.16-3.77-.46c-.33-.08-.66-.18-.97-.28-.4-.12-.77-.26-1.14-.41-.34-.14-.68-.28-1.01-.45-.27-.13-.53-.27-.78-.42-.35-.18-.69-.39-1.03-.61,0-.01-.01-.01-.02-.01-.05-.04-.09-.06-.13-.1-.05-.03-.09-.06-.13-.09-.09-.07-.19-.13-.28-.2,0-.01-.01-.01-.02-.01-.18-.13-.35-.27-.53-.41-.01-.01-.02-.01-.02-.01-.18-.14-.35-.28-.51-.44t-.02-.01c-.16-.14-.33-.29-.5-.46t-.02-.01c-.16-.15-.32-.3-.47-.47-.18-.18-.34-.35-.5-.54-.07-.08-.14-.16-.21-.25-.08-.09-.16-.19-.25-.28h0c-.16-.22-.3-.41-.46-.61-.26-.35-.49-.7-.72-1.07-.61-1-1.12-2.06-1.5-3.19-.01-.01-.01-.04-.02-.06-.15-.46-.28-.91-.39-1.38-.06-.23-.11-.46-.15-.7-.05-.22-.08-.44-.12-.67v-.07s-.01-.06-.01-.08l-.22-1.61c.02-.12,.05-.22,.08-.33v-.2c0-.67,.05-1.34,.13-1.98,.98-7.82,7.65-13.87,15.72-13.87s14.75,6.05,15.73,13.87c.08,.64,.13,1.31,.13,1.98,0,.07,0,.13-.01,.2,.05,.11,.07,.21,.09,.33l-.24,1.68Z"/>
        </g>
        <g>
          <path d="M1.18,99.49c-.03,.11-.06,.21-.08,.32l.22,1.69c-.08-.68-.14-1.35-.14-2Zm31.69,0c0,.65-.06,1.32-.15,2l.23-1.69c-.02-.11-.05-.21-.08-.32Z"/>
          <path d="M1.18,99.49c-.03,.11-.06,.21-.08,.32l.22,1.69c-.08-.68-.14-1.35-.14-2Zm31.69,0c0,.65-.06,1.32-.15,2l.23-1.69c-.02-.11-.05-.21-.08-.32Z"/>
          <path d="M33.89,101.56c.09-.76,.15-1.54,.15-2.27,0-9.39-7.63-17.02-17.02-17.02S0,89.89,0,99.29c0,.74,.06,1.51,.15,2.27v.02c-.09,.76-.15,1.53-.15,2.27,0,9.39,7.63,17.02,17.02,17.02s17.02-7.64,17.02-17.02c0-.74-.06-1.51-.15-2.27v-.02Zm-1.17-.07s-.01,.06-.01,.08c-.21,1.42-.6,2.8-1.16,4.06-.09,.22-.2,.43-.3,.64-.11,.21-.21,.42-.33,.62-.2,.37-.43,.73-.65,1.08-1.31,2-3.07,3.67-5.1,4.89-.18,.11-.36,.21-.54,.32-.04,.01-.06,.04-.09,.05-.41,.22-.82,.42-1.24,.61-.28,.12-.56,.23-.84,.33-.16,.07-.33,.13-.49,.18-.11,.03-.2,.07-.31,.09-.28,.09-.57,.18-.86,.25-1.22,.29-2.47,.46-3.77,.46s-2.55-.16-3.77-.46c-.3-.07-.59-.15-.87-.25-.11-.02-.2-.06-.3-.09-.16-.05-.33-.11-.49-.18-.28-.1-.56-.22-.85-.33-.42-.19-.83-.39-1.24-.61-.04-.01-.06-.04-.09-.05-.18-.1-.36-.21-.54-.32-2.04-1.22-3.79-2.89-5.11-4.89-.22-.35-.44-.71-.64-1.08-.12-.2-.22-.41-.33-.62-.11-.21-.21-.42-.3-.64-.57-1.27-.95-2.64-1.16-4.06,0-.02-.01-.06-.01-.08l-.22-1.69c.02-.11,.05-.21,.08-.32-.01-.07-.01-.13-.01-.2,0-.66,.03-1.3,.13-1.93,.95-7.85,7.64-13.92,15.72-13.92s14.78,6.07,15.73,13.92c.09,.63,.13,1.27,.13,1.93,0,.07,0,.13-.01,.2,.04,.11,.06,.21,.08,.32l-.23,1.69Z"/>
        </g>
        <g>
          <path d="M42.15,19.23l-.23-1.7c.02-.11,.05-.21,.08-.3,0,.66,.06,1.33,.15,2Z"/>
          <path d="M73.52,19.31c-.01,.11-.04,.21-.06,.32,.02-.12,.04-.23,.05-.35,.01,.01,.01,.02,.01,.04Z"/>
          <path d="M73.76,17.53l-.23,1.7c.09-.68,.15-1.34,.15-2,.04,.09,.06,.2,.08,.3Z"/>
          <path d="M73.51,19.27c-.01,.12-.02,.23-.05,.35,.02-.1,.05-.21,.06-.32,0-.01,0-.02-.01-.04Zm.16-2.05c0,.66-.06,1.33-.15,2l.23-1.7c-.02-.11-.05-.21-.08-.3Zm1.02,2v.16s.01-.06,.01-.08-.01-.06-.01-.08Zm-32.7-2c-.04,.09-.06,.2-.08,.3l.23,1.7c-.09-.68-.15-1.34-.15-2Z"/>
        </g>
        <g>
          <path d="M1.32,19.21l-.23-1.68c.02-.12,.06-.22,.09-.33,0,.66,.06,1.33,.14,2Z"/>
          <path d="M42.15,101.49l-.23-1.69h0c.01-.12,.05-.21,.08-.32,0,.65,.06,1.32,.15,2Z"/>
          <path d="M50.41,81.15l-.32,1.27-.25,.97-.09-.37c.13-.27,.23-.54,.32-.81,.14-.35,.25-.7,.34-1.06Z"/>
          <path d="M73.52,101.57c-.01,.11-.04,.21-.06,.32,.01-.12,.02-.23,.05-.34t.01,.02Z"/>
          <path d="M73.52,60.44c-.05,.34-.11,.68-.19,1.02,.07-.35,.13-.69,.18-1.05,.01,.01,.01,.02,.01,.04Z"/>
          <path d="M65.93,83.02l-.09,.36-.25-.96-.33-1.28s-.02-.09-.03-.14c-.04-.15-.07-.3-.09-.46,.05,.2,.09,.4,.14,.6,.09,.36,.2,.71,.34,1.07,.09,.27,.19,.54,.32,.81Z"/>
          <path d="M66.21,82.16c-.07,.44-.09,.88-.08,1.33-.07-.16-.14-.31-.2-.46l.25-.97s.01,.07,.04,.1Z"/>
          <path d="M73.76,99.79h0s-.23,1.7-.23,1.7c.09-.68,.15-1.35,.15-2,.04,.11,.07,.2,.08,.3Z"/>
          <path d="M73.76,58.66l-.23,1.7c.09-.68,.15-1.35,.15-2,.04,.09,.06,.2,.08,.3Z"/>
          <path d="M1.18,17.21c-.03,.1-.07,.21-.09,.33l.23,1.68c-.08-.68-.14-1.34-.14-2ZM40.97,101.49s-.01,.04,0,.06c.01-.02,.01-.04,.01-.06l.02-.21-.03,.21Zm1.02-2c-.04,.11-.07,.2-.08,.3h0s.23,1.7,.23,1.7c-.09-.68-.15-1.35-.15-2Zm31.52,2.06c-.02,.1-.04,.22-.05,.34,.02-.1,.05-.21,.06-.32t-.01-.02Zm.16-2.06c0,.65-.06,1.32-.15,2l.23-1.69h0c-.01-.12-.05-.21-.08-.32Zm0-41.13c0,.65-.06,1.33-.15,2l.23-1.7c-.02-.1-.05-.21-.08-.3Zm1.02,2v.16s.01-.05,.01-.07h0s-.01-.07-.01-.09Zm-1.19,.05c-.05,.36-.11,.7-.18,1.05,.08-.34,.14-.68,.19-1.02,0-.01,0-.02-.01-.04Zm-7.34,21.65l-.25,.97c.06,.15,.13,.3,.2,.46-.01-.45,.01-.88,.08-1.33-.02-.04-.04-.07-.04-.1Zm8.52,19.44v.16s.01-.04,.01-.06v-.02s-.01-.06-.01-.08Z"/>
          <path d="M74.71,60.45s-.01,.05-.01,.07v-.16s.01,.06,.01,.08c.09-.78,.15-1.55,.15-2.28,0-9.35-7.61-16.99-16.97-17.02-6.39-.02-12.4-2.54-16.91-7.07-4.51-4.54-6.97-10.57-6.94-17.04C34.04,7.64,26.41,0,17.02,0S0,7.64,0,17.02c0,.74,.06,1.51,.15,2.26v.02c-.09,.76-.15,1.54-.15,2.27,0,9.35,7.6,16.98,16.95,17.02,13.21,.06,23.91,10.84,23.86,24.11,0,3.62,1.17,7.15,3.32,10.08h-.07l.82,.96c2.41,2.83,3.81,5.14,4.37,7.26l.04-.14c.04-.13,.07-.27,.09-.4-.02,.13-.05,.26-.08,.39-.01,.05-.02,.11-.05,.15h0c-.6,2.14-1.98,4.44-4.37,7.25l-.81,.96h.06c-2.14,2.91-3.32,6.44-3.32,10.07,0,.71,.05,1.46,.16,2.2l.03-.21-.02,.21s0,.04-.01,.06v.05c-.11,.76-.16,1.52-.16,2.26,0,9.39,7.64,17.02,17.02,17.02s17.02-7.64,17.02-17.02c0-.73-.06-1.49-.15-2.26,0,.02-.01,.04-.01,.06v-.16s.01,.06,.01,.08c.09-.79,.15-1.55,.15-2.28,0-3.63-1.17-7.16-3.32-10.07h.07l-.82-.96c-2.39-2.81-3.77-5.13-4.36-7.24v-.02c.58-2.12,1.97-4.44,4.36-7.25l.82-.96h-.07c2.14-2.93,3.32-6.46,3.32-10.08,0-.74-.06-1.51-.15-2.26Zm-1.19-.09s0,.02-.01,.04h0s.01,.04,.01,.05c-.05,.34-.11,.68-.19,1.02-.07,.32-.14,.65-.23,.95-.06,.22-.13,.44-.2,.65-.07,.25-.16,.49-.26,.73-.09,.28-.21,.55-.33,.81-.02,.05-.04,.09-.06,.13-.11,.22-.2,.43-.32,.64-.11,.21-.21,.41-.33,.61-.02,.04-.04,.07-.06,.11-.14,.23-.28,.47-.43,.7-.37,.57-.78,1.12-1.23,1.65l-.81,.96h.02c-1.28,1.59-2.25,3.06-2.91,4.46-.08,.16-.15,.32-.22,.47-.09,.19-.18,.39-.25,.58-.07,.19-.15,.37-.2,.56-.11,.3-.2,.61-.27,.91-.06,.25-.12,.51-.16,.75h0c-.05,.28-.08,.56-.11,.83s-.03,.53-.03,.79h0c0,.39,.03,.76,.07,1.14,.01,.02,.01,.05,.01,.07,.02,.2,.06,.4,.09,.58h0c.05,.21,.09,.41,.14,.61,.09,.36,.2,.71,.34,1.07,.09,.27,.19,.54,.32,.81l.25-.97s.01,.07,.04,.1c-.07,.44-.09,.88-.08,1.33,.67,1.41,1.65,2.91,2.98,4.57h-.04l.82,.96c2.03,2.36,3.29,5.28,3.68,8.34,.07,.64,.12,1.28,.12,1.94,0,.07,0,.13-.01,.2,.04,.11,.07,.2,.08,.3h0s-.23,1.7-.23,1.7c0,.01,0,.04-.01,.05h0s.01,.02,.01,.04c-.01,.11-.04,.21-.06,.32-.02,.11-.04,.21-.06,.33-.04,.23-.08,.48-.14,.71-.06,.24-.12,.47-.19,.69-.06,.23-.13,.47-.21,.69-.07,.22-.15,.44-.23,.67-.01,.02-.02,.05-.02,.07-.16,.43-.35,.83-.55,1.23-.11,.21-.21,.42-.33,.62-.2,.37-.42,.73-.64,1.08-.06,.08-.11,.16-.16,.25-.11,.15-.21,.3-.33,.46-.08,.12-.18,.23-.26,.34-.01,.01-.02,.02-.02,.04-.2,.25-.4,.48-.6,.71-.15,.18-.3,.35-.48,.51-.32,.34-.65,.67-1,.96-.18,.15-.35,.3-.54,.44-.18,.15-.36,.3-.55,.43-.37,.28-.76,.54-1.16,.77-.18,.11-.37,.21-.54,.32-.04,.01-.06,.04-.09,.05-.4,.22-.82,.42-1.24,.61-.28,.12-.56,.23-.85,.33-.16,.07-.33,.13-.49,.18-.11,.03-.2,.07-.3,.09-.28,.09-.57,.18-.86,.25h-.01c-.25,.07-.51,.12-.76,.16-.2,.04-.41,.08-.62,.11-.11,.02-.21,.03-.32,.05-.11,.02-.21,.02-.32,.04-.26,.04-.52,.06-.78,.07-.33,.02-.64,.04-.97,.04s-.64-.01-.97-.04c-.26-.01-.51-.04-.77-.07-.11-.01-.21-.01-.32-.04-.11-.01-.21-.02-.32-.05-.21-.02-.42-.07-.62-.11-.26-.05-.52-.09-.76-.16h-.01c-.29-.07-.58-.15-.86-.25-.11-.02-.2-.06-.3-.09-.16-.05-.33-.11-.5-.18-.28-.1-.56-.22-.84-.33-.21-.09-.42-.19-.63-.29h-.01c-.09-.05-.2-.11-.29-.15-.11-.06-.2-.1-.3-.16-.04-.01-.06-.04-.1-.05-.18-.1-.36-.21-.54-.32-.2-.12-.4-.25-.58-.37-.18-.11-.34-.22-.5-.35-.02-.01-.05-.04-.07-.05-.3-.23-.6-.46-.89-.71-.07-.05-.13-.11-.2-.16-.26-.22-.5-.44-.74-.69-.09-.08-.19-.18-.27-.27-.29-.29-.55-.59-.81-.91-.14-.18-.29-.35-.43-.54-.13-.18-.27-.36-.4-.55-.14-.2-.27-.4-.4-.61-.05-.06-.08-.12-.12-.18-.12-.19-.23-.39-.34-.6-.13-.22-.25-.46-.37-.7-.09-.18-.18-.36-.26-.56-.09-.19-.18-.39-.25-.59-.07-.16-.13-.32-.18-.48-.02-.04-.03-.08-.05-.12-.16-.47-.3-.96-.42-1.45-.01-.07-.04-.14-.05-.21-.01-.08-.04-.15-.05-.21,0-.02-.01-.04-.01-.06-.06-.32-.12-.63-.16-.95,0-.02-.01-.06-.01-.08l-.23-1.69h0c.01-.12,.05-.21,.08-.32-.01-.07-.01-.13-.01-.2,0-.66,.05-1.3,.12-1.94,.39-3.06,1.65-5.97,3.67-8.34l.81-.96h-.02c1.32-1.64,2.31-3.14,2.98-4.54,.07-.17,.15-.33,.21-.5,.13-.27,.23-.54,.32-.81,.14-.35,.25-.7,.34-1.06,.01-.05,.02-.09,.04-.14,.01-.02,.01-.06,.01-.08,.05-.16,.07-.32,.11-.48,.04-.19,.06-.37,.08-.56,.01-.07,.02-.14,.02-.21,.04-.3,.05-.62,.05-.93,0-2.87-1.33-5.82-4.16-9.35h.03l-.82-.96c-2.45-2.87-3.79-6.52-3.79-10.35,.03-13.84-11.19-25.15-25.04-25.21-5.85-.02-11.09-3.31-13.8-8.2-.12-.21-.22-.41-.33-.62-.46-.92-.83-1.89-1.1-2.91-.06-.16-.09-.33-.13-.49-.11-.43-.19-.89-.26-1.35,0-.02-.01-.06-.01-.08l-.23-1.68c.02-.12,.06-.22,.09-.33-.01-.06-.01-.13-.01-.19,0-.67,.03-1.32,.13-1.96C2.26,7.24,8.94,1.17,17.02,1.17s14.71,6.02,15.71,13.84c.1,.68,.15,1.37,.15,2.07v.15c0,1.86,.21,3.69,.61,5.47,.23,1.07,.55,2.14,.92,3.17,1.23,3.34,3.18,6.4,5.75,9,4.73,4.77,11.03,7.4,17.74,7.43,8.06,.04,14.72,6.11,15.66,13.92,.09,.63,.13,1.28,.13,1.93,0,.07,0,.13-.01,.2,.04,.09,.06,.2,.08,.3l-.23,1.7Z"/>
        </g>
      </g>
    </g>
  </g>
</svg>