<?xml version="1.0" encoding="UTF-8"?>
<svg id="Layer_2" data-name="Layer 2" xmlns="http://www.w3.org/2000/svg" viewBox="0 0 106.3 106.29">
  <g id="Layer_1-2" data-name="Layer 1">
    <g id="_Radial_Repeat_" data-name="&amp;lt;Radial Repeat&amp;gt;">
      <path d="M103.78,75.18c-.1,9.17-14.25,5-17.93,3.76-.1-.04-.18-.07-.27-.1-.31-.11-.52-.19-.58-.2,.01,0,.01,.01,.01,.01-6.71-2.08-11.34,1-20.36-1.71-13.05-3.92-17.22-11.14-17.25-13.72-.08,4.7,3.67,7.84,10.84,13.88,12.56,10.55,20.23,22.41,15.11,27.42-6.48,6.36-13.46-6.27-15.28-9.9-.01-.04-.04-.08-.05-.11-.07-.18-.15-.35-.24-.52-.07-.14-.11-.23-.14-.27-.01-.03-.01-.04-.01-.04-3.29-6.19-8.73-7.29-13.19-15.58-6.45-12-4.3-20.04-2.5-21.89-3.38,3.27-2.95,8.13-2.15,17.48,1.41,16.34-1.53,30.15-8.7,30.08-9.17-.1-5-14.25-3.76-17.93,.04-.1,.07-.18,.1-.27,.11-.31,.19-.52,.2-.58,0,.01-.01,.01-.01,.01,2.08-6.71-1-11.34,1.71-20.36,3.94-13.05,11.14-17.22,13.72-17.25-4.7-.08-7.84,3.67-13.88,10.84-10.55,12.56-22.41,20.23-27.42,15.11-6.41-6.55,6.53-13.61,10.01-15.33,.18-.08,.35-.16,.52-.24,.14-.07,.23-.11,.27-.14,6.23-3.27,7.32-8.73,15.62-13.2,12-6.45,20.04-4.3,21.89-2.5-3.26-3.38-8.13-2.95-17.48-2.15-16.34,1.41-30.15-1.53-30.08-8.7,.1-9.17,14.25-5,17.93-3.76,.1,.04,.18,.07,.27,.1,.31,.11,.52,.19,.58,.2-.01,0-.01-.01-.01-.01,6.71,2.08,11.34-1,20.36,1.71,13.05,3.92,17.22,11.14,17.25,13.72,.08-4.71-3.67-7.84-10.84-13.88C35.48,18.62,27.8,6.77,32.92,1.76c6.55-6.41,13.61,6.53,15.33,10.01,.08,.18,.16,.35,.24,.52,.07,.14,.11,.23,.14,.27,3.27,6.22,8.73,7.31,13.2,15.62,6.45,12,4.3,20.04,2.5,21.89,3.38-3.27,2.95-8.13,2.15-17.48-1.41-16.35,1.53-30.15,8.7-30.08,9.03,.1,5.13,13.82,3.83,17.75h0c-.1,.22-.16,.42-.22,.62-.05,.14-.11,.26-.14,.39-2.08,6.71,1,11.34-1.71,20.36-3.92,13.05-11.12,17.22-13.72,17.25,4.71,.08,7.85-3.67,13.88-10.84,10.55-12.56,22.41-20.23,27.43-15.11,6.41,6.55-6.55,13.61-10.02,15.33-.18,.08-.35,.16-.52,.24-.14,.07-.23,.11-.27,.14-6.22,3.27-7.31,8.73-15.62,13.2-12,6.45-20.04,4.3-21.89,2.5,3.27,3.38,8.13,2.95,17.48,2.15,16.35-1.41,30.15,1.53,30.08,8.7Z"/>
    </g>
  </g>
</svg>