<?xml version="1.0" encoding="UTF-8"?>
<svg id="Layer_2" data-name="Layer 2" xmlns="http://www.w3.org/2000/svg" viewBox="0 0 93.66 93.66">
  <g id="Layer_1-2" data-name="Layer 1">
    <path d="M0,49.55H32.64c1.11,5.79,5.68,10.36,11.47,11.47v32.64s5.44,0,5.44,0V61.02c5.79-1.11,10.36-5.68,11.47-11.47h32.64s0-5.44,0-5.44H61.02c-1.11-5.79-5.68-10.36-11.47-11.47V0s-5.44,0-5.44,0V32.64c-5.79,1.11-10.36,5.68-11.47,11.47H0s0,5.44,0,5.44Zm37.81-2.72c0-4.97,4.04-9.01,9.01-9.01,4.97,0,9.01,4.04,9.01,9.01,0,4.97-4.04,9.01-9.01,9.01-4.97,0-9.01-4.04-9.01-9.01Z"/>
  </g>
</svg>