<?xml version="1.0" encoding="UTF-8"?>
<svg id="Layer_2" data-name="Layer 2" xmlns="http://www.w3.org/2000/svg" viewBox="0 0 161.71 79.28">
  <g id="Layer_1-2" data-name="Layer 1">
    <g>
      <path d="M74.93,39.09c0-3.43-2.78-6.21-6.21-6.21H22.38L43.5,11.72c1.18-1.18,1.83-2.73,1.83-4.39,0-.15,0-.33-.03-.48v-.15c.03-.15,.03-.33,.03-.48,0-1.65-.65-3.23-1.83-4.41-2.43-2.43-6.39-2.43-8.82,0L1.83,34.68c-.28,.3-.53,.6-.75,.93-.08,.1-.13,.2-.18,.3-.15,.25-.3,.5-.43,.8l-.18,.53c-.05,.2-.13,.43-.18,.63-.08,.4-.13,.83-.13,1.23,0,.15,0,.33,.03,.48v.15c-.03,.15-.03,.33-.03,.48,0,.43,.05,.83,.13,1.23,.05,.23,.13,.43,.25,.8l.1,.38c.13,.25,.25,.5,.43,.8l.15,.25c.25,.35,.5,.68,.78,.95l32.85,32.85c1.18,1.18,2.76,1.83,4.41,1.83s3.23-.65,4.41-1.83c1.33-1.33,1.93-3.13,1.8-4.89v-.13c.03-.18,.03-.33,.03-.5,0-1.65-.65-3.21-1.83-4.39l-21.12-21.12h46.33c3.43,0,6.21-2.81,6.21-6.24,0-.15,0-.3-.03-.45v-.2c.03-.15,.03-.3,.03-.45Zm-2.56,.55c-.25,1.8-1.8,3.18-3.66,3.18H15.21l1.1,1.1,25.41,25.38c.7,.7,1.1,1.65,1.1,2.63,0,.2-.03,.38-.05,.55-.13,.8-.48,1.5-1.05,2.08-1.4,1.43-3.86,1.43-5.26,0L3.61,41.72c-.18-.18-.33-.35-.45-.53l-.13-.23c-.08-.15-.18-.28-.25-.5l-.1-.33c-.03-.1-.08-.2-.1-.3-.03-.08-.03-.13-.03-.2s.03-.13,.03-.18c.02-.13,.08-.23,.15-.45l-.2-.08c-.03-.08-.03-.15,0-.2,0-.13,.03-.25,.05-.38,.02-.1,.08-.2,.15-.45l-.75-.25s.05-.08,.05-.1l.78,.1c.05-.15,.15-.3,.33-.63,.15-.2,.3-.4,.48-.58L36.46,3.6c1.45-1.45,3.81-1.45,5.26,0,.83,.83,1.18,1.93,1.03,3.01,.03,.03,0,.05,0,.05-.08,.8-.4,1.58-1.03,2.21L15.21,35.38h53.5c2.05,0,3.71,1.65,3.71,3.71,0,.2-.03,.38-.05,.55Z"/>
      <path d="M161.68,39.56c.03-.15,.03-.33,.03-.48,0-.4-.05-.83-.13-1.23-.05-.23-.13-.43-.25-.83l-.1-.33c-.13-.28-.28-.55-.43-.8l-.15-.28c-.25-.35-.5-.65-.78-.95L127.02,1.82c-2.36-2.36-6.47-2.36-8.82,0-1.18,1.18-1.83,2.76-1.83,4.41,0,.15,0,.33,.03,.48v.15c-.03,.15-.03,.33-.03,.48,0,1.65,.65,3.21,1.83,4.39l21.12,21.15h-46.33c-3.43,0-6.21,2.78-6.21,6.21,0,.15,0,.3,.03,.45v.2c-.03,.15-.03,.3-.03,.45,0,3.43,2.78,6.24,6.21,6.24h46.33l-21.12,21.12c-1.18,1.18-1.83,2.73-1.83,4.39,0,.18,0,.33,.03,.5v.13c-.13,1.75,.48,3.56,1.8,4.89,1.18,1.18,2.73,1.83,4.41,1.83s3.23-.65,4.41-1.83l32.85-32.85c.28-.28,.53-.6,.75-.95,.08-.08,.13-.18,.18-.28,.15-.25,.3-.5,.4-.78l.18-.55c.08-.2,.15-.4,.2-.63,.08-.4,.13-.8,.13-1.23,0-.15,0-.33-.03-.48v-.15Zm-2.78,.95c-.08,.18-.15,.33-.35,.68-.13,.18-.28,.38-.45,.53l-32.85,32.85c-1.4,1.43-3.86,1.43-5.26,0-.58-.58-.93-1.28-1.05-2.08-.03-.18-.05-.35-.05-.55,0-.98,.4-1.93,1.1-2.63l25.41-25.38,1.1-1.1h-53.5c-1.85,0-3.41-1.38-3.66-3.18-.03-.18-.05-.35-.05-.55,0-2.05,1.65-3.71,3.71-3.71h53.5l-26.51-26.51c-.58-.58-.95-1.3-1.05-2.08-.18-1.13,.18-2.31,1.05-3.18,1.4-1.4,3.86-1.4,5.26,0l32.85,32.85c.18,.18,.33,.38,.55,.75,.1,.15,.18,.28,.28,.5l.1,.33c.03,.1,.08,.2,.1,.33,.05,.23,.08,.48,.08,.73,0,.18-.03,.38-.05,.55,0,.08,0,.13-.03,.2-.03,.1-.08,.2-.15,.45l.2,.08c.03,.05,.03,.13,0,.18l-.28-.03Z"/>
    </g>
  </g>
</svg>