<?xml version="1.0" encoding="UTF-8"?>
<svg id="Layer_2" data-name="Layer 2" xmlns="http://www.w3.org/2000/svg" viewBox="0 0 118.21 118.21">
  <g id="Layer_1-2" data-name="Layer 1">
    <path d="M14.64,98.23c13.16-19.84,32.87-32.41,39.15-30.88,0,0,0,0,0,0-3.22,8.55-7.99,14.89-10.33,19.25,5.74-7.39,10.08-14.81,13.32-22.03,.22-.19,.44-.38,.66-.56-9.71,29.97-2.12,54.21-2.12,54.21-4.73-23.34,.32-46.16,5.85-49.52,0,0,0,0,0,0,3.77,8.32,4.88,16.18,6.31,20.92-1.16-9.28-3.34-17.59-6.16-25,.02-.29,.04-.58,.07-.86,14.32,28.06,36.84,39.83,36.84,39.83-19.84-13.16-32.41-32.87-30.88-39.15,0,0,0,0,0,0,8.55,3.22,14.89,7.99,19.25,10.33-7.39-5.74-14.81-10.08-22.03-13.32-.19-.22-.38-.44-.56-.66,29.97,9.71,54.21,2.12,54.21,2.12-23.34,4.73-46.16-.32-49.52-5.85,0,0,0,0,0,0,8.32-3.77,16.18-4.88,20.92-6.31-9.28,1.16-17.6,3.34-25,6.16-.29-.02-.58-.04-.86-.07,28.06-14.33,39.83-36.84,39.83-36.84-13.16,19.84-32.87,32.41-39.15,30.88,0,0,0,0,0,0,3.22-8.55,7.99-14.89,10.33-19.25-5.74,7.39-10.08,14.81-13.32,22.03-.22,.19-.44,.38-.66,.56C70.49,24.24,62.89,0,62.89,0c4.73,23.34-.32,46.16-5.85,49.52,0,0,0,0,0,0-3.77-8.32-4.88-16.18-6.31-20.92,1.16,9.28,3.34,17.6,6.16,25-.02,.29-.04,.58-.07,.86C42.5,26.41,19.99,14.64,19.99,14.64c19.84,13.16,32.41,32.87,30.88,39.15,0,0,0,0,0,0-8.55-3.22-14.89-7.99-19.25-10.33,7.39,5.74,14.81,10.08,22.03,13.32,.19,.22,.38,.44,.56,.66C24.24,47.73,0,55.33,0,55.33c23.34-4.73,46.16,.32,49.52,5.85,0,0,0,0,0,0-8.32,3.77-16.18,4.88-20.92,6.31,9.28-1.16,17.6-3.34,25-6.16,.29,.02,.58,.04,.86,.07-28.06,14.33-39.83,36.84-39.83,36.84ZM59.06,59.07s.03-.01,.04-.02c.01,0,.03,.01,.04,.02,0,.01,.01,.03,.02,.04,0,.01-.01,.03-.02,.04-.01,0-.03,.01-.04,.02-.01,0-.03-.01-.04-.02,0-.01-.01-.03-.02-.04,0-.01,.01-.03,.02-.04Z"/>
  </g>
</svg>