<?xml version="1.0" encoding="UTF-8"?>
<svg id="Layer_2" data-name="Layer 2" xmlns="http://www.w3.org/2000/svg" viewBox="0 0 150.1 150.1">
  <g id="Layer_1-2" data-name="Layer 1">
    <g>
      <g id="_Radial_Repeat_" data-name="&amp;lt;Radial Repeat&amp;gt;">
        <g id="_Radial_Repeat_-2" data-name="&amp;lt;Radial Repeat&amp;gt;">
          <g id="_Radial_Repeat_-3" data-name="&amp;lt;Radial Repeat&amp;gt;">
            <path d="M109.34,107.01c-13.23-9.27-18.35-9.36-13.74-1.73,4.07,6.73,9.85,10.09,21.34,17-11.47-6.89-17.2-5.19-20.7-5.39-7.39-.42-12.65-8.96-14.31-12.78-.46-1.04-.72-1.82-.82-2.11,0-.04-.02-.08-.04-.11,0,0,0,0,0-.02,.03,.05,.09,.21,.2,.44,.04,.07,1.9,5.71,4.66,5.59,3.42-.15,3.41,10.85,8.72,5.97,4.15-3.82-2.42-13.86-11.26-21.53-7.48-6.49-16.64,12.4-8.34-17.31,2.9,4.46,2.89,12.3,13.05,15.72,7.02,2.36,10.73,.06,15.95,1.84,.2,.08,.54,.19,.76,.3,.49,.2,.99,.43,1.5,.71,1.36,.73,2.9,1.68,4.49,3.2,16.64,15.87,28.76,17.22,28.76,17.22-9.08-1.02-23.25-10.94-27.73-14.03-9.48-6.51-12.98-1.96-2.51,6.99Z"/>
          </g>
        </g>
      </g>
      <g id="_Radial_Repeat_-4" data-name="&amp;lt;Radial Repeat&amp;gt;">
        <g id="_Radial_Repeat_-5" data-name="&amp;lt;Radial Repeat&amp;gt;">
          <g id="_Radial_Repeat_-6" data-name="&amp;lt;Radial Repeat&amp;gt;">
            <path d="M71.45,121.79c-1-16.12-4.12-20.18-7.22-11.82-2.73,7.38-1.75,13.99,.02,27.28-1.77-13.26-6.67-16.68-8.7-19.55-4.28-6.04-.88-15.48,1.07-19.16,.52-1,.97-1.69,1.14-1.95,.03-.03,.05-.07,.06-.1,0,0,.01,0,.01,0-.02,.05-.1,.2-.22,.43-.03,.07-3.28,5.04-1.46,7.12,2.25,2.58-6.36,9.43,.77,10.54,5.58,.86,9.33-10.53,9.81-22.23,.41-9.89-20.07-5.28,8.34-17.31-1.67,5.05-7.81,9.92-4.15,20,2.53,6.96,6.65,8.43,8.51,13.62,.06,.21,.18,.54,.24,.78,.15,.51,.28,1.04,.38,1.62,.28,1.52,.5,3.31,.3,5.51-2.03,22.91,4.47,33.22,4.47,33.22-4.87-7.74-5.94-25-6.32-30.42-.82-11.47-6.56-11.37-7.03,2.4Z"/>
          </g>
        </g>
      </g>
      <g id="_Radial_Repeat_-7" data-name="&amp;lt;Radial Repeat&amp;gt;">
        <g id="_Radial_Repeat_-8" data-name="&amp;lt;Radial Repeat&amp;gt;">
          <g id="_Radial_Repeat_-9" data-name="&amp;lt;Radial Repeat&amp;gt;">
            <path d="M36.27,101.37c11.98-10.83,13.21-15.81,4.74-13.01-7.47,2.47-12.03,7.36-21.32,17.03,9.27-9.65,8.88-15.61,9.86-18.99,2.06-7.11,11.55-10.34,15.64-11.11,1.11-.22,1.93-.3,2.23-.33,.04,0,.09,0,.11-.02,0,0,0,0,.01,0-.05,.02-.22,.04-.48,.09-.08,.02-5.99,.58-6.48,3.3-.61,3.37-11.34,.91-7.77,7.17,2.8,4.9,14.05,.73,23.49-6.19,7.99-5.85-8.39-18.98,18.73-4.27-4.99,1.84-12.63,.08-18.23,9.23-3.86,6.32-2.45,10.45-5.35,15.14-.13,.18-.31,.48-.46,.68-.3,.44-.64,.87-1.03,1.31-1.02,1.16-2.28,2.45-4.12,3.67-19.17,12.7-23.19,24.21-23.19,24.21,3.01-8.63,15.84-20.24,19.84-23.91,8.46-7.79,4.8-12.22-6.26-4Z"/>
          </g>
        </g>
      </g>
      <g id="_Radial_Repeat_-10" data-name="&amp;lt;Radial Repeat&amp;gt;">
        <g id="_Radial_Repeat_-11" data-name="&amp;lt;Radial Repeat&amp;gt;">
          <g id="_Radial_Repeat_-12" data-name="&amp;lt;Radial Repeat&amp;gt;">
            <path d="M30.29,61.14c15.94,2.61,20.59,.47,13.13-4.41-6.59-4.3-13.25-4.82-26.6-6.05,13.32,1.23,17.75-2.79,20.99-4.13,6.84-2.83,15.29,2.58,18.44,5.3,.86,.73,1.44,1.32,1.65,1.54,.02,.03,.05,.07,.08,.08,0,0,0,0,0,.01-.05-.03-.17-.15-.37-.32-.06-.05-4.19-4.32-6.62-3.01-3.01,1.62-7.78-8.3-10.45-1.6-2.08,5.24,8.19,11.44,19.49,14.51,9.56,2.6,9.61-18.39,15.02,11.98-4.55-2.76-7.94-9.83-18.58-8.5-7.34,.92-9.7,4.6-15.17,5.26-.22,.01-.57,.06-.82,.06-.53,.04-1.08,.04-1.66,0-1.54-.07-3.34-.25-5.44-.93C11.5,63.88,0,67.92,0,67.92c8.63-3.02,25.7-.23,31.07,.61,11.36,1.76,12.55-3.87-.78-7.38Z"/>
          </g>
        </g>
      </g>
      <g id="_Radial_Repeat_-13" data-name="&amp;lt;Radial Repeat&amp;gt;">
        <g id="_Radial_Repeat_-14" data-name="&amp;lt;Radial Repeat&amp;gt;">
          <g id="_Radial_Repeat_-15" data-name="&amp;lt;Radial Repeat&amp;gt;">
            <path d="M58.02,31.38c7.9,14.09,12.47,16.39,11.63,7.52-.75-7.83-4.5-13.37-11.86-24.57,7.34,11.18,13.24,12.14,16.32,13.84,6.48,3.59,7.51,13.56,7.35,17.72-.04,1.13-.14,1.95-.18,2.25-.01,.04-.02,.08,0,.11,0,0-.01,0,0,.01,0-.05,0-.23,.02-.49,0-.08,.77-5.97-1.77-7.05-3.14-1.35,1.64-11.26-5.26-9.17-5.4,1.64-3.84,13.54,.8,24.28,3.93,9.09,20.37-3.95,0,19.21-.68-5.27,2.73-12.33-4.94-19.82-5.3-5.17-9.65-4.71-13.57-8.58-.15-.16-.4-.41-.56-.6-.36-.39-.71-.82-1.05-1.3-.91-1.25-1.88-2.77-2.66-4.83-8.11-21.52-18.44-27.99-18.44-27.99,7.74,4.86,16.2,19.95,18.9,24.67,5.71,9.98,10.85,7.4,5.29-5.21Z"/>
          </g>
        </g>
      </g>
      <g id="_Radial_Repeat_-16" data-name="&amp;lt;Radial Repeat&amp;gt;">
        <g id="_Radial_Repeat_-17" data-name="&amp;lt;Radial Repeat&amp;gt;">
          <g id="_Radial_Repeat_-18" data-name="&amp;lt;Radial Repeat&amp;gt;">
            <path d="M98.58,34.51c-6.1,14.96-5.04,19.97,1.37,13.78,5.66-5.47,7.65-11.85,11.82-24.59-4.16,12.71-1.23,17.92-.65,21.38,1.23,7.3-5.92,14.33-9.27,16.8-.91,.68-1.61,1.11-1.87,1.26-.04,.01-.08,.04-.1,.06,0,0,0,0-.01,0,.04-.04,.18-.14,.39-.29,.06-.05,5.14-3.12,4.41-5.78-.91-3.3,9.82-5.74,3.88-9.83-4.65-3.2-12.98,5.44-18.48,15.77-4.66,8.74,15.79,13.46-15.02,11.98,3.7-3.82,11.35-5.55,12.42-16.22,.74-7.36-2.33-10.48-1.75-15.96,.04-.22,.07-.57,.12-.81,.08-.52,.2-1.06,.36-1.63,.41-1.49,.99-3.2,2.12-5.09,11.77-19.76,10.39-31.87,10.39-31.87,1.03,9.08-5.49,25.1-7.5,30.15-4.24,10.69,.98,13.09,7.37,.89Z"/>
          </g>
        </g>
      </g>
      <g id="_Radial_Repeat_-19" data-name="&amp;lt;Radial Repeat&amp;gt;">
        <g id="_Radial_Repeat_-20" data-name="&amp;lt;Radial Repeat&amp;gt;">
          <g id="_Radial_Repeat_-21" data-name="&amp;lt;Radial Repeat&amp;gt;">
            <path d="M121.42,68.17c-15.5,4.56-18.76,8.51-9.91,9.66,7.8,1.02,14.03-1.41,26.6-6.09-12.54,4.67-14.78,10.21-17.12,12.83-4.94,5.52-14.89,4.3-18.91,3.22-1.1-.29-1.87-.57-2.16-.67-.03-.02-.08-.04-.11-.03,0,0,0-.01-.01,0,.05,0,.22,.06,.47,.12,.08,.02,5.65,2.07,7.27-.16,2.01-2.77,10.61,4.1,10.11-3.09-.4-5.63-12.34-6.75-23.85-4.62-9.74,1.81-.68,20.74-18.73-4.27,5.29,.51,11.41,5.41,20.43-.41,6.22-4.02,6.74-8.36,11.39-11.32,.19-.11,.49-.3,.71-.41,.46-.26,.96-.51,1.5-.73,1.42-.61,3.12-1.22,5.3-1.52,22.78-3.12,31.39-11.75,31.39-11.75-6.46,6.47-23.05,11.36-28.25,12.93-11,3.35-9.63,8.93,3.9,6.32Z"/>
          </g>
        </g>
      </g>
    </g>
  </g>
</svg>