<?xml version="1.0" encoding="UTF-8"?>
<svg id="Layer_2" data-name="Layer 2" xmlns="http://www.w3.org/2000/svg" viewBox="0 0 113.94 113.94">
  <g id="Layer_1-2" data-name="Layer 1">
    <g>
      <g id="_Radial_Repeat_" data-name="&amp;lt;Radial Repeat&amp;gt;">
        <polygon points="61.84 76.58 61.08 89.35 50.92 98.37 46.63 113 39.08 104.5 39.56 96.42 48.06 88.92 53.24 59.21 61.84 76.58"/>
      </g>
      <g id="_Radial_Repeat_-2" data-name="&amp;lt;Radial Repeat&amp;gt;">
        <polygon points="48.09 75.12 39.31 84.41 25.72 84.79 13.03 93.24 12.72 81.88 18.28 75.99 29.61 75.71 52.68 56.28 48.09 75.12"/>
      </g>
      <g id="_Radial_Repeat_-3" data-name="&amp;lt;Radial Repeat&amp;gt;">
        <polygon points="38.51 65.17 25.8 66.64 15.15 58.2 0 56.51 7.06 47.6 15.1 46.67 23.96 53.74 54.12 53.69 38.51 65.17"/>
      </g>
      <g id="_Radial_Repeat_-4" data-name="&amp;lt;Radial Repeat&amp;gt;">
        <polygon points="37.56 51.38 26.88 44.34 24.14 31.03 13.62 20 24.76 17.71 31.52 22.17 33.76 33.28 56.9 52.62 37.56 51.38"/>
      </g>
      <g id="_Radial_Repeat_-5" data-name="&amp;lt;Radial Repeat&amp;gt;">
        <polygon points="45.69 40.21 42.04 27.95 48.5 15.99 47.53 .79 57.53 6.19 59.84 13.95 54.42 23.9 59.71 53.6 45.69 40.21"/>
      </g>
      <g id="_Radial_Repeat_-6" data-name="&amp;lt;Radial Repeat&amp;gt;">
        <polygon points="59.11 36.88 64.19 25.14 76.82 20.14 85.85 7.86 90.04 18.43 86.83 25.86 76.28 30 61.24 56.15 59.11 36.88"/>
      </g>
      <g id="_Radial_Repeat_-7" data-name="&amp;lt;Radial Repeat&amp;gt;">
        <polygon points="71.52 42.95 82.96 37.23 95.85 41.51 110.66 37.92 107.08 48.7 99.84 52.33 89.1 48.72 60.77 59.09 71.52 42.95"/>
      </g>
      <g id="_Radial_Repeat_-8" data-name="&amp;lt;Radial Repeat&amp;gt;">
        <polygon points="77.13 55.59 89.57 58.55 96.69 70.12 110.35 76.89 100.67 82.85 92.79 80.97 86.88 71.3 58.52 61.03 77.13 55.59"/>
      </g>
      <g id="_Radial_Repeat_-9" data-name="&amp;lt;Radial Repeat&amp;gt;">
        <polygon points="73.3 68.87 80.93 79.14 78.94 92.58 85.06 106.54 73.81 104.88 68.99 98.38 70.68 87.18 55.55 61.08 73.3 68.87"/>
      </g>
    </g>
  </g>
</svg>