<?xml version="1.0" encoding="UTF-8"?>
<svg id="Layer_2" data-name="Layer 2" xmlns="http://www.w3.org/2000/svg" viewBox="0 0 136.4 138.53">
  <g id="Layer_1-2" data-name="Layer 1">
    <path d="M75.6,.34c.12,.34,.24,.67,.37,1.01,.43,1.15,.87,2.3,1.31,3.44,.44,1.14,.88,2.29,1.34,3.43,.1,.25,.2,.5,.3,.76,.08,.21,.17,.42,.27,.63,0,.02,.02,.03,.04,.04l5.41,2.73c2.47,1.24,4.94,2.49,7.41,3.73,.21,.11,.42,.21,.63,.32,.82,.42,1.53,.98,2.11,1.67,0,0,.01,.02,.02,.03,.33,1.01,.67,2.03,1,3.04,.72,2.17,1.43,4.35,2.15,6.52,.79,2.38,1.57,4.76,2.36,7.15,.8,2.42,1.59,4.83,2.39,7.25,.74,2.25,1.48,4.5,2.23,6.75,.62,1.89,1.25,3.78,1.87,5.67,.45,1.35,.89,2.71,1.34,4.06,.21,.64,.42,1.27,.63,1.91,.02,.05,.03,.1,.05,.15,.46,1.67,.3,3.43-.47,4.99-.3,.61-.62,1.22-.92,1.83-.89,1.77-1.78,3.55-2.68,5.32-.82,1.62-2.22,2.87-3.95,3.47-.83,.29-1.67,.56-2.51,.83-1.69,.55-3.54,.44-5.15-.33-.67-.32-1.32-.66-1.98-1-1.01-.51-2.03-1.02-3.04-1.53-1.05-.53-2.03-1.11-2.81-2.01,0,0-.01-.02-.02-.03-.05-.16-.11-.33-.16-.49-.08-.23-.15-.46-.23-.69-.17-.52-.37-1.04-.56-1.55-.75-2.01-1.52-4.01-2.31-6.01-.35-.9-.69-1.82-1.1-2.69-.87-1.87-2.5-3.29-4.51-3.81-1.36-.36-2.75-.26-4.07,.18-1.93,.64-3.86,1.27-5.78,1.91-.92,.3-1.83,.55-2.79,.58-.05,0-.09-.04-.09-.09,.01-.64,.06-1.28,.23-1.9,.56-2.08,2.07-3.74,4-4.55,.01,0,.02,0,.03,0,.26,0,.53,0,.79,0,.18,0,.36,0,.54,0,1.32-.02,2.64-.1,3.96-.17,2.17-.11,4.35-.2,6.52-.39,.57-.05,1.14-.14,1.69-.32,1.33-.42,2.34-1.24,3.3-2.2,.82-.83,1.65-1.66,2.47-2.49,.56-.56,1.14-1.11,1.67-1.7,1.19-1.3,1.8-3,1.8-4.75,0-1.06,.06-2.16-.05-3.21-.18-1.66-.97-3.12-2.14-4.28-1.53-1.52-3.06-3.03-4.59-4.55-.54-.54-1.07-1.12-1.68-1.58-1.28-.97-2.8-1.41-4.39-1.41-.57,0-1.13,0-1.7,0-1.36,0-2.72,.01-4.09,.02-1.96,0-3.92,.02-5.87,.03-2.35,.01-4.71,.02-7.06,.03-2.55,.01-5.1,.02-7.64,.03-2.54,.01-5.08,.02-7.63,.03-2.34,.01-4.67,.02-7.01,.03-1.93,0-3.86,.02-5.79,.02-1.32,0-2.64,.01-3.97,.02-.51,0-1.03,0-1.54,0-2.03,.02-4.07,.17-6.1,.28-1.5,.08-3.01,.14-4.51,.28-.32,.03-.63,.07-.95,.14-1.09,.22-2.11,.71-2.97,1.41-.43,.35-.81,.76-1.19,1.15-1.51,1.53-3.03,3.05-4.54,4.58-1.55,1.56-3.09,3.12-4.64,4.68-.21,.21-.42,.43-.64,.64-.05,.05-.02,.15,.06,.15,.08,0,.17,0,.25,0,.36,0,.72-.02,1.08-.04,1.23-.05,2.45-.12,3.68-.18,1.23-.07,2.45-.13,3.67-.21,.27-.02,.54-.04,.81-.05,.23,0,.45-.03,.68-.06,.02,0,.04-.01,.05-.03,1.42-1.43,2.84-2.87,4.26-4.3,1.95-1.96,3.89-3.93,5.84-5.89,.17-.17,.33-.34,.5-.5,.65-.65,1.41-1.15,2.24-1.5,.01,0,.02,0,.03,0h3.2c2.29-.02,4.58-.03,6.87-.04,2.51-.01,5.02-.02,7.52-.03,2.54-.01,5.09-.02,7.63-.03,2.37-.01,4.74-.02,7.11-.03,1.99,0,3.98-.02,5.97-.03,1.43,0,2.85-.01,4.28-.02,.67,0,1.34,0,2.01,0,.05,0,.11,0,.16,0,1.73,.07,3.36,.78,4.6,1.99,.49,.48,.97,.96,1.46,1.45,1.41,1.4,2.82,2.79,4.23,4.19,1.29,1.28,2.05,3,2.08,4.82,.01,.88,.01,1.76,.01,2.64,0,1.78-.68,3.51-1.91,4.79-.51,.53-1.04,1.05-1.56,1.58-.8,.81-1.6,1.61-2.4,2.42-.83,.84-1.68,1.59-2.78,2.05-.01,0-.02,0-.03,0-.17,0-.34,0-.52,0-.24,0-.48,0-.72,0-.55,0-1.1,.03-1.65,.06-2.14,.09-4.29,.21-6.43,.34-.96,.06-1.94,.09-2.9,.21-2.05,.26-3.9,1.36-5.02,3.11-.76,1.18-1.1,2.53-1.09,3.93,0,2.03,.02,4.06,.03,6.09,0,.97-.04,1.92-.31,2.84-.01,.05-.07,.07-.11,.06-.6-.21-1.19-.45-1.74-.81-1.81-1.17-2.92-3.12-3.09-5.21,0-.01,0-.02,0-.03,.08-.25,.16-.5,.24-.75,.06-.17,.11-.34,.16-.52,.39-1.26,.72-2.54,1.06-3.81,.57-2.1,1.16-4.2,1.65-6.32,.13-.56,.22-1.13,.22-1.71,.01-1.39-.45-2.61-1.08-3.82-.54-1.04-1.07-2.08-1.61-3.12-.36-.71-.71-1.43-1.1-2.12-.87-1.53-2.29-2.64-3.96-3.17-1.01-.33-2.03-.73-3.07-.94-1.63-.34-3.26-.04-4.73,.71-1.91,.99-3.83,1.97-5.74,2.96-.68,.35-1.39,.67-2.02,1.1-1.32,.91-2.2,2.23-2.7,3.74-.18,.54-.34,1.08-.52,1.62-.42,1.3-.83,2.59-1.25,3.89-.6,1.86-1.19,3.73-1.79,5.59-.72,2.24-1.43,4.48-2.15,6.72-.78,2.43-1.55,4.85-2.33,7.28-.78,2.42-1.55,4.84-2.33,7.26-.71,2.22-1.42,4.45-2.14,6.67-.59,1.84-1.18,3.67-1.76,5.51-.4,1.26-.81,2.52-1.21,3.78-.16,.49-.32,.98-.47,1.47-.61,1.94-1.1,3.92-1.62,5.89-.39,1.46-.79,2.91-1.12,4.38-.07,.31-.13,.63-.16,.94-.12,1.1,.02,2.23,.43,3.26,.2,.51,.47,1,.73,1.49,.98,1.91,1.97,3.82,2.95,5.74,1.01,1.95,2.01,3.91,3.02,5.86,.14,.27,.28,.54,.41,.8,.03,.07,.13,.06,.16-.01,.03-.08,.05-.16,.07-.24,.1-.34,.2-.69,.29-1.04,.33-1.18,.65-2.37,.96-3.55,.32-1.19,.63-2.37,.93-3.56,.07-.26,.13-.53,.2-.79,.06-.22,.11-.44,.15-.66,0-.02,0-.04,0-.06-.92-1.79-1.85-3.59-2.77-5.38-1.27-2.46-2.53-4.92-3.8-7.37-.11-.21-.22-.42-.33-.63-.41-.82-.66-1.69-.73-2.59,0-.01,0-.02,0-.03,.33-1.02,.65-2.03,.98-3.05,.7-2.18,1.4-4.36,2.09-6.54,.76-2.39,1.53-4.78,2.29-7.17,.78-2.42,1.55-4.84,2.33-7.27,.72-2.26,1.44-4.51,2.17-6.77,.61-1.89,1.21-3.79,1.82-5.68,.43-1.36,.87-2.72,1.3-4.08,.2-.64,.41-1.28,.61-1.91,.02-.05,.03-.1,.05-.15,.6-1.62,1.78-2.95,3.31-3.76,.61-.32,1.22-.63,1.83-.94,1.77-.91,3.53-1.82,5.3-2.73,1.62-.83,3.48-1.02,5.23-.49,.84,.26,1.68,.53,2.52,.81,1.69,.55,3.13,1.73,3.97,3.3,.35,.65,.68,1.31,1.02,1.97,.52,1.01,1.04,2.02,1.56,3.03,.54,1.04,.99,2.08,1.1,3.27,0,.01,0,.02,0,.04l-.16,.5c-.07,.23-.15,.46-.22,.69-.17,.52-.31,1.06-.46,1.58-.57,2.07-1.13,4.14-1.67,6.22-.24,.93-.51,1.87-.7,2.82-.39,2.02,.09,4.13,1.4,5.73,.89,1.09,2.07,1.82,3.4,2.25,1.93,.62,3.87,1.24,5.8,1.86,.93,.3,1.81,.63,2.6,1.17,.04,.03,.05,.08,.02,.12-.39,.51-.8,1-1.3,1.4-1.67,1.36-3.87,1.81-5.91,1.33-.01,0-.02,0-.03-.01l-.64-.46c-.15-.11-.29-.21-.44-.32-1.08-.76-2.2-1.47-3.3-2.19-1.82-1.19-3.64-2.4-5.5-3.52-.49-.3-1.01-.55-1.55-.74-1.32-.44-2.62-.38-3.97-.16-1.15,.19-2.31,.38-3.46,.56-.78,.13-1.57,.23-2.35,.39-1.73,.35-3.22,1.37-4.24,2.79-.62,.86-1.32,1.71-1.85,2.63-.83,1.45-1.05,3.09-.78,4.72,.35,2.12,.69,4.25,1.04,6.37,.12,.75,.21,1.53,.43,2.26,.46,1.54,1.44,2.79,2.72,3.72,.46,.33,.92,.66,1.38,.99,1.11,.8,2.21,1.59,3.32,2.39,1.59,1.14,3.18,2.29,4.77,3.43,1.91,1.37,3.82,2.75,5.73,4.12,2.07,1.49,4.14,2.98,6.2,4.47,2.06,1.49,4.13,2.97,6.19,4.46,1.9,1.36,3.79,2.73,5.69,4.09,1.57,1.13,3.13,2.25,4.7,3.38,1.07,.77,2.15,1.54,3.22,2.32,.42,.3,.83,.6,1.25,.9,1.66,1.18,3.39,2.25,5.1,3.36,1.26,.82,2.52,1.65,3.82,2.42,.27,.16,.56,.32,.85,.45,1.01,.46,2.13,.67,3.23,.6,.55-.03,1.1-.14,1.64-.23,2.12-.35,4.25-.69,6.37-1.04,2.17-.35,4.34-.71,6.5-1.06,.3-.05,.6-.1,.89-.15,.07-.01,.1-.11,.04-.15-.07-.05-.14-.1-.21-.14-.3-.2-.59-.4-.89-.6-1.02-.68-2.05-1.35-3.08-2.01-1.03-.67-2.06-1.33-3.1-1.99-.23-.14-.46-.29-.69-.43-.19-.13-.38-.24-.58-.35-.02,0-.04-.01-.06,0-1.99,.32-3.98,.65-5.98,.97-2.73,.44-5.46,.89-8.19,1.33-.23,.04-.47,.08-.7,.11-.91,.14-1.81,.1-2.69-.1-.01,0-.02,0-.03-.01-.87-.62-1.73-1.25-2.6-1.87-1.86-1.34-3.72-2.68-5.58-4.01-2.04-1.47-4.07-2.93-6.11-4.4-2.06-1.49-4.13-2.97-6.19-4.46-1.92-1.38-3.85-2.77-5.77-4.15-1.61-1.16-3.23-2.32-4.84-3.49-1.16-.83-2.32-1.67-3.47-2.5-.54-.39-1.09-.78-1.63-1.17-.04-.03-.08-.06-.13-.09-1.36-1.08-2.26-2.6-2.55-4.31-.11-.68-.22-1.35-.33-2.03-.32-1.96-.64-3.92-.96-5.88-.29-1.8,.11-3.63,1.15-5.12,.51-.72,1.03-1.43,1.54-2.15,1.05-1.44,2.61-2.44,4.36-2.76,.73-.13,1.46-.24,2.19-.36,1.12-.18,2.24-.37,3.36-.55,1.16-.19,2.29-.3,3.45-.03,.01,0,.02,0,.03,.01,.14,.1,.28,.2,.43,.31,.2,.14,.39,.28,.59,.42,.45,.32,.91,.62,1.37,.92,1.79,1.19,3.59,2.35,5.4,3.51,.81,.52,1.62,1.07,2.47,1.53,1.81,1,3.96,1.19,5.89,.44,1.31-.51,2.37-1.4,3.19-2.54,1.19-1.65,2.37-3.3,3.56-4.94,.57-.79,1.16-1.52,1.92-2.11,.04-.03,.1-.02,.12,.02,.37,.52,.7,1.07,.93,1.67,.77,2.01,.52,4.24-.56,6.03,0,.01-.01,.02-.02,.03-.21,.16-.43,.31-.64,.47-.15,.11-.29,.21-.44,.32-1.06,.79-2.07,1.63-3.1,2.46-1.69,1.37-3.41,2.72-5.05,4.15-.43,.38-.84,.79-1.18,1.25-.83,1.12-1.17,2.38-1.38,3.72-.18,1.16-.36,2.31-.53,3.47-.12,.78-.27,1.57-.36,2.36-.2,1.75,.3,3.48,1.34,4.9,.63,.86,1.22,1.78,1.93,2.57,1.12,1.24,2.61,1.95,4.25,2.2,2.13,.33,4.26,.66,6.38,.98,.75,.12,1.52,.28,2.28,.29,1.6,.04,3.09-.51,4.38-1.44,.46-.33,.91-.67,1.37-1,1.1-.81,2.2-1.61,3.3-2.42,1.58-1.16,3.16-2.32,4.74-3.47,1.9-1.39,3.8-2.78,5.69-4.17,2.05-1.51,4.11-3.01,6.16-4.52,2.05-1.5,4.1-3.01,6.15-4.51,1.88-1.38,3.77-2.76,5.65-4.14,1.56-1.14,3.11-2.28,4.67-3.42,1.07-.78,2.13-1.56,3.2-2.34,.41-.3,.83-.61,1.24-.91,1.63-1.21,3.19-2.53,4.77-3.81,1.17-.95,2.35-1.89,3.48-2.88,.24-.21,.47-.43,.69-.67,.75-.82,1.29-1.82,1.57-2.89,.14-.53,.21-1.09,.29-1.63,.33-2.13,.65-4.25,.98-6.38,.37-2.39,.74-4.78,1.1-7.17l-.29-.17s0,0,0,0c-.28,.22-.57,.44-.85,.67-.96,.76-1.91,1.53-2.87,2.31-.95,.77-1.9,1.55-2.85,2.33l-.63,.52c-.18,.14-.35,.29-.51,.45-.01,.01-.02,.03-.03,.05-.31,1.99-.61,3.99-.92,5.98-.42,2.73-.84,5.46-1.26,8.2-.04,.23-.07,.47-.11,.7-.15,.9-.46,1.76-.93,2.53,0,0-.01,.02-.02,.03-.86,.63-1.72,1.26-2.58,1.89-1.85,1.35-3.69,2.71-5.54,4.06-2.02,1.48-4.05,2.97-6.07,4.45-2.05,1.5-4.1,3.01-6.15,4.51-1.91,1.4-3.82,2.8-5.73,4.2-1.6,1.18-3.21,2.35-4.81,3.53-1.15,.84-2.3,1.69-3.45,2.53-.54,.4-1.08,.79-1.62,1.19-.04,.03-.09,.06-.13,.09-1.44,.96-3.17,1.35-4.89,1.09-.68-.1-1.35-.21-2.03-.31-1.96-.3-3.93-.6-5.89-.91-1.8-.28-3.42-1.22-4.52-2.68-.53-.7-1.05-1.42-1.56-2.13-1.04-1.44-1.51-3.23-1.27-5,.1-.73,.22-1.46,.34-2.19,.17-1.12,.35-2.25,.52-3.37,.18-1.16,.42-2.27,1.03-3.29,0-.01,.01-.02,.02-.03l.42-.31c.19-.14,.39-.28,.58-.43,.44-.33,.87-.67,1.3-1.01,1.68-1.33,3.35-2.69,5-4.05,.75-.61,1.52-1.21,2.22-1.87,1.51-1.41,2.35-3.4,2.24-5.46-.08-1.4-.6-2.69-1.43-3.82-1.2-1.64-2.4-3.27-3.6-4.91-.58-.78-1.09-1.57-1.42-2.48-.02-.05,0-.1,.06-.11,.61-.19,1.23-.33,1.88-.37,2.15-.11,4.2,.81,5.57,2.4,0,0,.01,.02,.02,.03,.08,.25,.17,.5,.25,.75,.06,.17,.11,.34,.17,.51,.42,1.25,.91,2.48,1.38,3.71,.78,2.03,1.53,4.08,2.38,6.08,.23,.53,.49,1.04,.82,1.51,.81,1.13,1.9,1.85,3.12,2.46,1.04,.53,2.09,1.05,3.13,1.58,.71,.36,1.41,.74,2.13,1.07,1.6,.73,3.41,.79,5.07,.24,1.01-.33,2.07-.61,3.04-1.04,1.52-.68,2.67-1.88,3.41-3.36,.97-1.92,1.94-3.85,2.91-5.77,.34-.68,.73-1.36,.99-2.08,.53-1.51,.47-3.1-.02-4.61-.17-.54-.35-1.07-.53-1.61-.43-1.29-.85-2.59-1.28-3.88-.61-1.86-1.23-3.72-1.84-5.58-.74-2.23-1.47-4.47-2.21-6.7-.8-2.42-1.6-4.84-2.39-7.26-.8-2.41-1.59-4.83-2.39-7.24-.73-2.22-1.46-4.44-2.19-6.65-.6-1.83-1.21-3.66-1.81-5.5-.41-1.26-.83-2.51-1.24-3.77-.16-.49-.32-.98-.48-1.46-.65-1.93-1.42-3.82-2.15-5.71-.54-1.4-1.07-2.82-1.66-4.2-.13-.29-.26-.58-.42-.86-.55-.96-1.33-1.79-2.26-2.39-.46-.3-.97-.53-1.46-.78-1.92-.97-3.84-1.94-5.76-2.9-1.96-.99-3.92-1.98-5.88-2.97-.27-.14-.54-.27-.81-.41-.07-.03-.14,.03-.12,.1,.03,.08,.05,.16,.08,.23Zm3.54,52.11s-.08,0-.12,0c1.75-.07,.93,0,.12,0Zm-37.07,26.5s.06,.04,.09,.07c-1.45-.97-.76-.55-.09-.07Zm22.65,16.73s.06-.05,.09-.07c-1.37,1.08-.75,.55-.09,.07Zm-13.74-43.44s-.02,.07-.04,.11c.47-1.69,.29-.89,.04-.11Zm36.65,27.07s-.02-.07-.04-.11c.61,1.64,.29,.89,.04,.11Z"/>
  </g>
</svg>