<?xml version="1.0" encoding="UTF-8"?>
<svg id="Layer_2" data-name="Layer 2" xmlns="http://www.w3.org/2000/svg" viewBox="0 0 148.22 579.58">
  <g id="Layer_1-2" data-name="Layer 1">
    <path d="M139.06,122.52V25.7c5.31-1.69,9.16-6.67,9.16-12.54,0-7.27-5.89-13.16-13.16-13.16-5.87,0-10.85,3.85-12.54,9.16H25.7C24.01,3.85,19.04,0,13.16,0,5.89,0,0,5.89,0,13.16c0,5.87,3.85,10.85,9.16,12.54V122.52c-5.31,1.69-9.16,6.67-9.16,12.54,0,7.27,5.89,13.16,13.16,13.16,5.87,0,10.85-3.85,12.54-9.16h44.37V411.64l32.73,32.73v92.73c-9.91,1.88-17.43,10.59-17.43,21.04,0,11.82,9.61,21.43,21.43,21.43s21.43-9.61,21.43-21.43c0-10.45-7.52-19.16-17.43-21.04v-96.05l-32.73-32.73V139.06h44.45c1.69,5.31,6.67,9.16,12.54,9.16,7.27,0,13.16-5.89,13.16-13.16,0-5.87-3.85-10.85-9.16-12.54Zm-18.83,435.63c0,7.41-6.03,13.43-13.43,13.43s-13.43-6.03-13.43-13.43,6.03-13.43,13.43-13.43,13.43,6.03,13.43,13.43Zm2.29-427.09H25.7c-1.29-4.05-4.49-7.25-8.54-8.54V25.7c4.05-1.29,7.25-4.49,8.54-8.54H122.52c1.29,4.05,4.49,7.25,8.54,8.54V122.52c-4.05,1.29-7.25,4.49-8.54,8.54Z"/>
  </g>
</svg>