<?xml version="1.0" encoding="UTF-8"?>
<svg id="Layer_2" data-name="Layer 2" xmlns="http://www.w3.org/2000/svg" viewBox="0 0 1056.14 92.93">
  <g id="Layer_1-2" data-name="Layer 1">
    <g>
      <path d="M46.46,92.93c16.11,0,31.39-8.73,39.76-22.46h505.64c8.37,13.74,23.65,22.46,39.76,22.46s31.39-8.73,39.76-22.46h167.3c8.37,13.74,23.65,22.46,39.76,22.46s31.39-8.73,39.76-22.46h51.7c8.37,13.74,23.65,22.46,39.76,22.46,25.62,0,46.46-20.84,46.46-46.46S1035.3,0,1009.68,0c-16.11,0-31.39,8.73-39.76,22.46h-51.69c-8.37-13.74-23.65-22.46-39.76-22.46s-31.4,8.73-39.76,22.46h-167.3c-8.37-13.74-23.65-22.46-39.76-22.46s-31.4,8.73-39.76,22.46H86.23C77.86,8.73,62.58,0,46.46,0,20.84,0,0,20.84,0,46.46s20.84,46.46,46.46,46.46Zm0-87.93c15.59,0,29.82,8.94,36.84,22.46h511.48c7.02-13.53,21.25-22.46,36.84-22.46s29.82,8.94,36.84,22.46h173.14c7.02-13.53,21.25-22.46,36.84-22.46s29.82,8.94,36.85,22.46h57.53c7.02-13.53,21.25-22.46,36.85-22.46,22.86,0,41.46,18.6,41.46,41.46s-18.6,41.46-41.46,41.46c-15.59,0-29.82-8.94-36.84-22.46h-57.53c-7.02,13.52-21.25,22.46-36.84,22.46s-29.82-8.94-36.84-22.46h-173.14c-7.02,13.52-21.25,22.46-36.84,22.46s-29.82-8.94-36.84-22.46H83.31c-7.02,13.52-21.25,22.46-36.84,22.46-22.86,0-41.46-18.6-41.46-41.46S23.6,5,46.46,5Z"/>
      <path d="M46.46,77.93c14.25,0,26.28-9.47,30.15-22.46H601.48c3.87,12.99,15.9,22.46,30.15,22.46s26.28-9.47,30.15-22.46h186.52c3.87,12.99,15.9,22.46,30.15,22.46s26.28-9.47,30.15-22.46h70.92c3.87,12.99,15.9,22.46,30.15,22.46,17.38,0,31.46-14.09,31.46-31.46s-14.09-31.46-31.46-31.46c-14.25,0-26.28,9.47-30.15,22.46h-70.92c-3.87-12.99-15.9-22.46-30.15-22.46s-26.28,9.47-30.15,22.46h-186.52c-3.87-12.99-15.9-22.46-30.15-22.46s-26.28,9.47-30.15,22.46H76.62c-3.87-12.99-15.9-22.46-30.15-22.46-17.38,0-31.46,14.09-31.46,31.46s14.09,31.46,31.46,31.46Z"/>
    </g>
  </g>
</svg>