<?xml version="1.0" encoding="UTF-8"?>
<svg id="Layer_2" data-name="Layer 2" xmlns="http://www.w3.org/2000/svg" viewBox="0 0 896.12 197.78">
  <g id="Layer_1-2" data-name="Layer 1">
    <g>
      <path d="M446.64,10.1h38.42c.63,0,1.23,.25,1.67,.69l34.43,34.43c.44,.44,.69,1.05,.69,1.67v51.56c0,1.31-1.06,2.37-2.37,2.37h-.32c-1.31,0-2.37,1.06-2.37,2.37v34.03c0,1.31,1.06,2.37,2.37,2.37h.32c1.31,0,2.37,1.06,2.37,2.37v5.21c0,1.31-1.06,2.37-2.37,2.37h-37.72c-1.31,0-2.37-1.06-2.37-2.37v-.32c0-1.31-1.06-2.37-2.37-2.37h-34.03c-1.31,0-2.37,1.06-2.37,2.37v10.42c0,1.31,1.06,2.37,2.37,2.37h34.03c1.31,0,2.37-1.06,2.37-2.37v-.32c0-1.31,1.06-2.37,2.37-2.37h37.72c1.31,0,2.37,1.06,2.37,2.37v33.72c0,1.31,1.06,2.37,2.37,2.37h330.76c1.31,0,2.37,1.06,2.37,2.37h0c0,1.31,1.06,2.37,2.37,2.37h34.03c1.31,0,2.37-1.06,2.37-2.37v-10.42c0-1.31-1.06-2.37-2.37-2.37h-34.03c-1.31,0-2.37,1.06-2.37,2.37v.63c0,1.31-1.06,2.37-2.37,2.37h-93.04c-1.31,0-2.37-1.06-2.37-2.37V117.92c0-1.31,1.06-2.37,2.37-2.37h12.12c1.31,0,2.37-1.06,2.37-2.37v-10.42c0-1.31-1.06-2.37-2.37-2.37h-34.03c-1.31,0-2.37,1.06-2.37,2.37v10.42c0,1.31,1.06,2.37,2.37,2.37h12.12c1.31,0,2.37,1.06,2.37,2.37v67.71c0,1.31-1.06,2.37-2.37,2.37h-222.89c-1.31,0-2.37-1.06-2.37-2.37v-43.66c0-1.31,1.06-2.37,2.37-2.37h.32c1.31,0,2.37-1.06,2.37-2.37v-34.03c0-1.31-1.06-2.37-2.37-2.37h-.32c-1.31,0-2.37-1.06-2.37-2.37V44.81c0-.63-.25-1.23-.69-1.67L488.82,5.75c-.44-.44-1.05-.69-1.67-.69h-40.51c-1.31,0-2.37-1.06-2.37-2.37v-.32c0-1.31-1.06-2.37-2.37-2.37h-34.03c-1.31,0-2.37,1.06-2.37,2.37V12.78c0,1.31,1.06,2.37,2.37,2.37h34.03c1.31,0,2.37-1.06,2.37-2.37v-.32c0-1.31,1.06-2.37,2.37-2.37Z"/>
      <rect x="373.73" y="144.49" width="13.86" height="15.15" rx="2.37" ry="2.37"/>
      <rect x="348.55" y="144.49" width="13.86" height="15.15" rx="2.37" ry="2.37"/>
      <rect x="279.56" y="0" width="13.86" height="15.15" rx="2.37" ry="2.37"/>
      <rect x="206.06" y="0" width="13.86" height="15.15" rx="2.37" ry="2.37"/>
      <rect x="0" y="0" width="13.86" height="15.15" rx="2.37" ry="2.37"/>
    </g>
  </g>
</svg>