<?xml version="1.0" encoding="UTF-8"?>
<svg id="Layer_2" data-name="Layer 2" xmlns="http://www.w3.org/2000/svg" viewBox="0 0 604.23 148.22">
  <g id="Layer_1-2" data-name="Layer 1">
    <path d="M582.8,9.67c-11.82,0-21.43,9.61-21.43,21.43,0,4.47,1.38,8.61,3.72,12.05l-26.96,26.96H139.06V25.7c5.31-1.69,9.16-6.67,9.16-12.54,0-7.27-5.89-13.16-13.16-13.16-5.87,0-10.85,3.85-12.54,9.16H25.7C24.01,3.85,19.04,0,13.16,0,5.89,0,0,5.89,0,13.16c0,5.87,3.85,10.85,9.16,12.54V122.52c-5.31,1.69-9.16,6.67-9.16,12.54,0,7.27,5.89,13.16,13.16,13.16,5.87,0,10.85-3.85,12.54-9.16H122.52c1.69,5.31,6.67,9.16,12.54,9.16,7.27,0,13.16-5.89,13.16-13.16,0-5.87-3.85-10.85-9.16-12.54v-44.41h402.38l29.3-29.31c3.44,2.35,7.59,3.72,12.05,3.72,11.82,0,21.43-9.61,21.43-21.43s-9.61-21.43-21.43-21.43ZM122.52,131.06H25.7c-1.29-4.05-4.49-7.25-8.54-8.54V25.7c4.05-1.29,7.25-4.49,8.54-8.54H122.52c1.29,4.05,4.49,7.25,8.54,8.54V122.52c-4.05,1.29-7.25,4.49-8.54,8.54ZM582.8,44.53c-7.41,0-13.43-6.03-13.43-13.43s6.03-13.43,13.43-13.43,13.43,6.03,13.43,13.43-6.03,13.43-13.43,13.43Z"/>
  </g>
</svg>