<?xml version="1.0" encoding="UTF-8"?>
<svg id="Layer_2" data-name="Layer 2" xmlns="http://www.w3.org/2000/svg" viewBox="0 0 536.25 388.47">
  <g id="Layer_1-2" data-name="Layer 1">
    <g>
      <path d="M169.18,67.69c5.55,0,10.06,4.51,10.06,10.06v8.76c16.15,.18,54.11,1.9,98.11,12.8,33.81,8.38,64.45,20.47,91.07,35.95,33.39,19.41,60.5,44.21,80.59,73.72l.18,.26h9.32c5.55,0,10.06,4.51,10.06,10.06v25.79c0,5.55-4.51,10.06-10.06,10.06h-25.79c-5.55,0-10.06-4.51-10.06-10.06v-25.79c0-5.55,4.51-10.06,10.06-10.06h6.44c-44.16-61.55-113.15-89.39-163.67-101.92-43.2-10.72-80.38-12.41-96.24-12.59v8.82c0,5.55-4.51,10.06-10.06,10.06h-25.79c-5.55,0-10.06-4.51-10.06-10.06v-25.79c0-5.55,4.51-10.06,10.06-10.06h25.79m-12.89,29.92c3.84,0,6.97-3.13,6.97-6.97s-3.13-6.97-6.97-6.97-6.97,3.13-6.97,6.97,3.13,6.97,6.97,6.97M445.6,239.15c3.84,0,6.97-3.13,6.97-6.97s-3.13-6.97-6.97-6.97-6.97,3.13-6.97,6.97,3.13,6.97,6.97,6.97M169.18,65.64h-25.79c-6.68,0-12.11,5.43-12.11,12.11v25.79c0,6.68,5.43,12.11,12.11,12.11h25.79c6.68,0,12.11-5.43,12.11-12.11v-6.73c15.61,.28,52,2.15,93.69,12.5,49.02,12.16,116.17,39,160.12,97.87h-2.39c-6.68,0-12.11,5.43-12.11,12.11v25.79c0,6.68,5.43,12.11,12.11,12.11h25.79c6.68,0,12.11-5.43,12.11-12.11v-25.79c0-6.68-5.43-12.11-12.11-12.11h-8.24c-20.22-29.48-47.4-54.27-80.82-73.7-26.79-15.57-57.61-27.74-91.6-36.17-42.95-10.64-80.52-12.55-96.55-12.83v-6.73c0-6.68-5.43-12.11-12.11-12.11h0Zm-12.89,29.92c-2.71,0-4.91-2.2-4.91-4.91s2.2-4.91,4.91-4.91,4.91,2.2,4.91,4.91-2.2,4.91-4.91,4.91h0ZM445.6,237.1c-2.71,0-4.91-2.2-4.91-4.91s2.2-4.91,4.91-4.91,4.91,2.2,4.91,4.91-2.2,4.91-4.91,4.91h0Z"/>
      <path d="M169.18,2.05c5.55,0,10.06,4.51,10.06,10.06v25.79c0,5.55-4.51,10.06-10.06,10.06h-25.79c-5.55,0-10.06-4.51-10.06-10.06v-8.78H47.96v8.78c0,5.55-4.51,10.06-10.06,10.06h-6.72c1.26,3.79,3.25,8.64,6.3,13.57,7.3,11.8,17.61,19.59,30.68,23.17v-6.95c0-5.55,4.51-10.06,10.06-10.06h25.79c5.55,0,10.06,4.51,10.06,10.06v25.79c0,5.55-4.51,10.06-10.06,10.06h-9.29c.17,6.28,.97,17.15,4.01,30.29,4.58,19.81,15.3,49.08,40.4,76,14.93,16.01,33.33,29.6,54.76,40.46-24.7-33.95-35.72-66.7-39.71-81.11h-10.76c-5.55,0-10.06-4.51-10.06-10.06v-25.79c0-5.55,4.51-10.06,10.06-10.06h25.79c5.55,0,10.06,4.51,10.06,10.06v25.79c0,5.55-4.51,10.06-10.06,10.06h-6.49c4.6,15.82,17.09,50.89,44.84,85.47,.79,.99,1.62,2.01,2.53,3.09,39.61,16.5,89.04,25.2,146.95,25.87v-8.74c0-5.55,4.51-10.06,10.06-10.06h25.79c5.55,0,10.06,4.51,10.06,10.06v8.78h19.74v-8.78c0-5.55,4.51-10.06,10.06-10.06h25.79c5.55,0,10.06,4.51,10.06,10.06v8.78h15.9c17.04,0,30.9,13.86,30.9,30.9v15.9h8.79c5.55,0,10.06,4.51,10.06,10.06v25.79c0,5.55-4.51,10.06-10.06,10.06h-25.79c-5.55,0-10.06-4.51-10.06-10.06v-25.79c0-5.55,4.51-10.06,10.06-10.06h8.79v-15.9c0-12.51-10.17-22.68-22.68-22.68h-15.9v8.78c0,5.55-4.51,10.06-10.06,10.06h-25.79c-5.55,0-10.06-4.51-10.06-10.06v-8.78h-19.74v8.78c0,5.55-4.51,10.06-10.06,10.06h-25.79c-5.55,0-10.06-4.51-10.06-10.06v-8.83c-51.83-.6-97.24-7.62-135.1-20.86,35.28,36.45,97.61,77.01,200.74,78.29v-8.74c0-5.55,4.51-10.06,10.06-10.06h25.79c5.55,0,10.06,4.51,10.06,10.06v25.79c0,5.55-4.51,10.06-10.06,10.06h-25.79c-5.55,0-10.06-4.51-10.06-10.06v-8.82c-51.99-.62-98.39-10.88-137.94-30.49-30.89-15.32-57.74-36.38-79.81-62.61-28.86-12.31-53.03-28.8-71.86-49-26.36-28.29-37.59-59.05-42.38-79.88-3.22-14.01-4.03-25.42-4.19-31.95h-8.26c-5.55,0-10.06-4.51-10.06-10.06v-10.37c-20.2-4.88-31.66-17.55-37.75-27.46-4.1-6.67-6.49-13.11-7.84-17.75H12.11c-5.55,0-10.06-4.51-10.06-10.06V12.11C2.05,6.57,6.57,2.05,12.11,2.05h25.79c5.55,0,10.06,4.51,10.06,10.06v8.79h85.38V12.11c0-5.55,4.51-10.06,10.06-10.06h25.79m-12.89,29.92c3.84,0,6.97-3.13,6.97-6.97s-3.13-6.97-6.97-6.97-6.97,3.13-6.97,6.97,3.13,6.97,6.97,6.97m-131.28,0c3.84,0,6.97-3.13,6.97-6.97s-3.13-6.97-6.97-6.97-6.97,3.13-6.97,6.97,3.13,6.97,6.97,6.97M91.1,97.61c3.84,0,6.97-3.13,6.97-6.97s-3.13-6.97-6.97-6.97-6.97,3.13-6.97,6.97,3.13,6.97,6.97,6.97m65.18,65.64c3.84,0,6.97-3.13,6.97-6.97s-3.13-6.97-6.97-6.97-6.97,3.13-6.97,6.97,3.13,6.97,6.97,6.97m289.32,141.54c3.84,0,6.97-3.13,6.97-6.97s-3.13-6.97-6.97-6.97-6.97,3.13-6.97,6.97,3.13,6.97,6.97,6.97m-65.64,0c3.84,0,6.97-3.13,6.97-6.97s-3.13-6.97-6.97-6.97-6.97,3.13-6.97,6.97,3.13,6.97,6.97,6.97m131.28,65.64c3.84,0,6.97-3.13,6.97-6.97s-3.13-6.97-6.97-6.97-6.97,3.13-6.97,6.97,3.13,6.97,6.97,6.97m-65.64,0c3.84,0,6.97-3.13,6.97-6.97s-3.13-6.97-6.97-6.97-6.97,3.13-6.97,6.97,3.13,6.97,6.97,6.97M169.18,0h-25.79c-6.68,0-12.11,5.43-12.11,12.11v6.73H50.01v-6.73c0-6.68-5.43-12.11-12.11-12.11H12.11C5.43,0,0,5.43,0,12.11v25.79c0,6.68,5.43,12.11,12.11,12.11h8.92c1.38,4.4,3.75,10.48,7.62,16.77,6.09,9.9,17.49,22.67,37.45,27.99v8.77c0,6.68,5.43,12.11,12.11,12.11h6.27c.28,7.15,1.27,17.71,4.18,30.36,4.84,21.07,16.21,52.19,42.88,80.82,18.92,20.31,43.18,36.9,72.11,49.3,22.2,26.27,49.16,47.38,80.16,62.75,39.31,19.5,85.32,29.81,136.8,30.68v6.8c0,6.68,5.43,12.11,12.11,12.11h25.79c6.68,0,12.11-5.43,12.11-12.11v-25.79c0-6.68-5.43-12.11-12.11-12.11h-25.79c-6.68,0-12.11,5.43-12.11,12.11v6.66c-96.55-1.71-156.49-38.43-191.03-71.49,35.82,11.36,77.94,17.47,125.39,18.18v6.8c0,6.68,5.43,12.11,12.11,12.11h25.79c6.68,0,12.11-5.43,12.11-12.11v-6.73h15.63v6.73c0,6.68,5.43,12.11,12.11,12.11h25.79c6.68,0,12.11-5.43,12.11-12.11v-6.73h13.85c11.37,0,20.63,9.25,20.63,20.63v13.85h-6.73c-6.68,0-12.11,5.43-12.11,12.11v25.79c0,6.68,5.43,12.11,12.11,12.11h25.79c6.68,0,12.11-5.43,12.11-12.11v-25.79c0-6.68-5.43-12.11-12.11-12.11h-6.73v-13.85c0-18.17-14.78-32.95-32.95-32.95h-13.85v-6.73c0-6.68-5.43-12.11-12.11-12.11h-25.79c-6.68,0-12.11,5.43-12.11,12.11v6.73h-15.63v-6.73c0-6.68-5.43-12.11-12.11-12.11h-25.79c-6.68,0-12.11,5.43-12.11,12.11v6.66c-56.52-.85-104.83-9.42-143.64-25.49-.78-.94-1.49-1.82-2.18-2.68-25.74-32.07-38.23-64.28-43.69-82.13h3.73c6.68,0,12.11-5.43,12.11-12.11v-25.79c0-6.68-5.43-12.11-12.11-12.11h-25.79c-6.68,0-12.11,5.43-12.11,12.11v25.79c0,6.68,5.43,12.11,12.11,12.11h9.21c2.14,7.46,5.83,18.67,11.77,32.01,6.44,14.45,14.12,28.28,22.89,41.21-18.01-10.02-33.68-22.11-46.65-36.02-24.79-26.59-35.38-55.49-39.9-75.06-2.65-11.45-3.58-21.14-3.88-27.78h7.16c6.68,0,12.11-5.43,12.11-12.11v-25.79c0-6.68-5.43-12.11-12.11-12.11h-25.79c-6.68,0-12.11,5.43-12.11,12.11v4.19c-11.33-3.73-20.36-10.95-26.88-21.49-2-3.24-3.72-6.74-5.13-10.44h3.81c6.68,0,12.11-5.43,12.11-12.11v-6.73h81.27v6.73c0,6.68,5.43,12.11,12.11,12.11h25.79c6.68,0,12.11-5.43,12.11-12.11V12.11c0-6.68-5.43-12.11-12.11-12.11h0Zm-12.89,29.92c-2.71,0-4.91-2.2-4.91-4.91s2.2-4.91,4.91-4.91,4.91,2.2,4.91,4.91-2.2,4.91-4.91,4.91h0Zm-131.28,0c-2.71,0-4.91-2.2-4.91-4.91s2.2-4.91,4.91-4.91,4.91,2.2,4.91,4.91-2.2,4.91-4.91,4.91h0ZM91.1,95.56c-2.71,0-4.91-2.2-4.91-4.91s2.2-4.91,4.91-4.91,4.91,2.2,4.91,4.91-2.2,4.91-4.91,4.91h0Zm65.18,65.64c-2.71,0-4.91-2.2-4.91-4.91s2.2-4.91,4.91-4.91,4.91,2.2,4.91,4.91-2.2,4.91-4.91,4.91h0Zm289.32,141.54c-2.71,0-4.91-2.2-4.91-4.91s2.2-4.91,4.91-4.91,4.91,2.2,4.91,4.91-2.2,4.91-4.91,4.91h0Zm-65.64,0c-2.71,0-4.91-2.2-4.91-4.91s2.2-4.91,4.91-4.91,4.91,2.2,4.91,4.91-2.2,4.91-4.91,4.91h0Zm131.28,65.64c-2.71,0-4.91-2.2-4.91-4.91s2.2-4.91,4.91-4.91,4.91,2.2,4.91,4.91-2.2,4.91-4.91,4.91h0Zm-65.64,0c-2.71,0-4.91-2.2-4.91-4.91s2.2-4.91,4.91-4.91,4.91,2.2,4.91,4.91-2.2,4.91-4.91,4.91h0Z"/>
    </g>
  </g>
</svg>