<?xml version="1.0" encoding="UTF-8"?>
<svg id="Layer_2" data-name="Layer 2" xmlns="http://www.w3.org/2000/svg" viewBox="0 0 247.82 38.47">
  <g id="Layer_1-2" data-name="Layer 1">
    <g>
      <path d="M16.08,38.47H63.09c5.77,0,11.11-3.13,13.94-8.09h93.76c2.83,4.96,8.17,8.09,13.94,8.09h47.01c8.87,0,16.08-7.21,16.08-16.08v-6.31c0-8.87-7.21-16.08-16.08-16.08h-47.01c-5.77,0-11.11,3.13-13.94,8.09H77.03C74.2,3.13,68.86,0,63.09,0H16.08C7.21,0,0,7.21,0,16.08v6.31c0,8.87,7.21,16.08,16.08,16.08ZM2.09,16.08c0-7.71,6.28-13.99,13.99-13.99H63.09c5.55,0,10.43,3.25,12.67,8.09h96.3c2.24-4.84,7.12-8.09,12.67-8.09h47.01c7.71,0,13.99,6.28,13.99,13.99v6.31c0,7.71-6.28,13.99-13.99,13.99h-47.01c-5.55,0-10.43-3.25-12.67-8.09H75.76c-2.24,4.84-7.12,8.09-12.67,8.09H16.08c-7.71,0-13.99-6.28-13.99-13.99v-6.31Z"/>
      <path d="M16.08,32.2H63.09c4.83,0,8.82-3.5,9.64-8.09h102.37c.82,4.59,4.81,8.09,9.64,8.09h47.01c5.42,0,9.81-4.39,9.81-9.81v-6.31c0-5.42-4.39-9.81-9.81-9.81h-47.01c-4.83,0-8.82,3.5-9.64,8.09H72.73c-.82-4.59-4.81-8.09-9.64-8.09H16.08c-5.42,0-9.81,4.39-9.81,9.81v6.31c0,5.42,4.39,9.81,9.81,9.81Z"/>
    </g>
  </g>
</svg>