<?xml version="1.0" encoding="UTF-8"?>
<svg id="Layer_2" data-name="Layer 2" xmlns="http://www.w3.org/2000/svg" viewBox="0 0 485.09 21">
  <g id="Layer_1-2" data-name="Layer 1">
    <path d="M485.09,9.6c0-5.3-4.31-9.6-9.6-9.6-4.68,0-8.59,3.37-9.43,7.81,0,0,0,0,0,0H38.15s0,0,0,0c-.84-4.44-4.75-7.81-9.43-7.81-2.57,0-4.98,1-6.79,2.82-.74,.74-1.72,1.15-2.77,1.15s-2.03-.41-2.77-1.15c-1.81-1.81-4.23-2.82-6.79-2.82C4.31,0,0,4.31,0,9.6c0,.31,.01,.6,.04,.9-.03,.3-.04,.59-.04,.9,0,5.3,4.31,9.6,9.6,9.6,2.56,0,4.98-1,6.79-2.81,.74-.74,1.72-1.15,2.77-1.15s2.03,.4,2.77,1.15c1.81,1.81,4.22,2.81,6.79,2.81,4.68,0,8.59-3.37,9.43-7.81H466.05c.84,4.44,4.75,7.81,9.43,7.81,5.3,0,9.6-4.31,9.6-9.6,0-.31-.01-.6-.04-.9,.03-.3,.04-.59,.04-.9ZM19.16,7.56c2,0,3.89-.78,5.31-2.2,1.13-1.13,2.64-1.76,4.25-1.76,3.31,0,6.01,2.7,6.01,6.01,0,.31-.02,.61-.07,.9-.44,2.89-2.93,5.11-5.94,5.11-1.61,0-3.12-.62-4.25-1.76-1.42-1.41-3.31-2.2-5.31-2.2s-3.89,.78-5.31,2.2c-1.13,1.14-2.64,1.76-4.25,1.76-3,0-5.51-2.22-5.94-5.11-.04-.3-.07-.6-.07-.9,0-3.31,2.7-6.01,6.01-6.01,1.61,0,3.12,.63,4.25,1.76,1.42,1.42,3.31,2.2,5.31,2.2Zm462.26,2.95c-.44,2.89-2.93,5.11-5.94,5.11s-5.51-2.22-5.94-5.11c-.04-.3-.07-.6-.07-.9,0-3.31,2.7-6.01,6.01-6.01s6.01,2.7,6.01,6.01c0,.31-.02,.61-.07,.9Z"/>
  </g>
</svg>