<?xml version="1.0" encoding="UTF-8"?>
<svg id="Layer_2" data-name="Layer 2" xmlns="http://www.w3.org/2000/svg" viewBox="0 0 252.46 101.04">
  <g id="Layer_1-2" data-name="Layer 1">
    <g>
      <path d="M160.82,27.11v6.54c0,2.56-1.39,4.86-3.54,6.23-3.91,2.49-6.36,7.07-5.76,12.18,.68,5.75,5.33,10.38,11.09,11.02,7.63,.85,14.09-5.09,14.09-12.55,0-4.54-2.4-8.51-5.99-10.73-2.12-1.31-3.4-3.64-3.4-6.14v-6.54c0-6.21,5.03-11.24,11.24-11.24h6.54c2.5,0,4.82,1.28,6.14,3.4,2.22,3.6,6.19,5.99,10.73,5.99,7.46,0,13.4-6.46,12.55-14.09-.64-5.75-5.27-10.41-11.02-11.09-5.11-.6-9.69,1.85-12.18,5.76-1.37,2.16-3.67,3.54-6.23,3.54h-6.54c-9.78,0-17.71,7.93-17.71,17.71Z"/>
      <path d="M227.19,50.52c0,4.54,2.4,8.51,5.99,10.73,2.12,1.31,3.4,3.64,3.4,6.14v3.97c0,2.54-1.24,4.97-3.4,6.31-1.67,1.03-3.07,2.44-4.1,4.1-1.34,2.16-3.77,3.4-6.31,3.4h-3.97c-2.56,0-4.86-1.39-6.23-3.54-2.49-3.91-7.07-6.36-12.18-5.76-5.75,.68-10.38,5.33-11.02,11.09-.85,7.63,5.09,14.09,12.55,14.09,4.54,0,8.51-2.4,10.73-5.99,1.31-2.12,3.64-3.4,6.14-3.4h4.14c2.56,0,4.86,1.39,6.23,3.54,2.49,3.92,7.08,6.37,12.19,5.76,5.72-.68,10.33-5.29,11-11,.6-5.11-1.85-9.69-5.76-12.19-2.16-1.37-3.54-3.67-3.54-6.23v-4.14c0-2.56,1.39-4.86,3.54-6.23,3.91-2.49,6.36-7.07,5.76-12.18-.68-5.75-5.33-10.38-11.09-11.02-7.63-.85-14.09,5.09-14.09,12.55Z"/>
      <path d="M75.73,14.09c.64,5.75,5.27,10.41,11.02,11.09,5.11,.6,9.69-1.85,12.18-5.76,1.37-2.16,3.67-3.54,6.23-3.54h3.97c2.54,0,4.97,1.24,6.31,3.4,1.03,1.67,2.44,3.07,4.1,4.1,2.16,1.34,3.4,3.77,3.4,6.31v3.97c0,2.56-1.39,4.86-3.54,6.23-3.91,2.49-6.36,7.07-5.76,12.18,.68,5.75,5.33,10.38,11.09,11.02,7.63,.85,14.09-5.09,14.09-12.55,0-4.54-2.4-8.51-5.99-10.73-2.12-1.31-3.4-3.64-3.4-6.14v-4.14c0-2.56,1.39-4.86,3.54-6.23,3.92-2.49,6.37-7.08,5.76-12.19-.68-5.72-5.29-10.33-11-11-5.11-.6-9.69,1.85-12.19,5.76-1.37,2.16-3.67,3.54-6.23,3.54h-4.14c-2.5,0-4.82-1.28-6.14-3.4C96.79,2.4,92.82,0,88.28,0c-7.46,0-13.4,6.46-12.55,14.09Z"/>
      <path d="M48.75,75.89c-5.75,.76-10.31,5.49-10.87,11.27-.76,7.95,5.84,14.57,13.79,13.82,5.82-.54,10.58-5.16,11.32-10.96,.2-1.59,.1-3.13-.25-4.57-.61-2.49,.25-5.12,2.06-6.94l14.22-14.22c1.71-1.71,4.17-2.32,6.53-1.8,1.24,.27,2.55,.37,3.89,.24,5.97-.54,10.82-5.35,11.4-11.32,.77-7.95-5.84-14.58-13.78-13.84-5.85,.54-10.62,5.19-11.33,11.02-.2,1.61-.08,3.16,.28,4.61,.63,2.5-.22,5.15-2.04,6.98l-13.82,13.82c-1.8,1.8-4.4,2.66-6.88,2.09-1.43-.33-2.95-.41-4.52-.21Z"/>
      <path d="M25.18,51.68c.6-5.11-1.85-9.69-5.76-12.18-2.16-1.37-3.54-3.67-3.54-6.23v-1.91c0-8.56,6.94-15.5,15.5-15.5h.07c2.56,0,4.86,1.39,6.23,3.54,2.49,3.91,7.07,6.36,12.18,5.76,5.75-.68,10.38-5.33,11.02-11.09C61.71,6.46,55.77,0,48.31,0c-4.54,0-8.51,2.4-10.73,5.99-1.31,2.12-3.64,3.4-6.14,3.4h-.07c-12.14,0-21.97,9.84-21.97,21.97v1.91c0,2.5-1.28,4.82-3.4,6.14C2.4,41.64,0,45.61,0,50.15c0,7.46,6.46,13.41,14.09,12.55,5.75-.64,10.41-5.27,11.09-11.02Z"/>
      <path d="M25.16,90.04c.2-1.59,.11-3.12-.24-4.56-.6-2.49,.26-5.11,2.07-6.92l14.26-14.26c1.71-1.71,4.16-2.32,6.52-1.81,1.23,.27,2.54,.36,3.88,.23,5.96-.55,10.8-5.35,11.38-11.3,.78-7.96-5.83-14.59-13.78-13.85-5.86,.54-10.63,5.21-11.33,11.05-.19,1.61-.08,3.17,.29,4.62,.64,2.51-.21,5.16-2.04,6.99l-13.79,13.79c-1.8,1.8-4.41,2.66-6.9,2.08-1.43-.33-2.96-.42-4.53-.22-5.77,.76-10.34,5.5-10.89,11.28-.76,7.94,5.85,14.56,13.79,13.81,5.81-.54,10.57-5.15,11.31-10.94Z"/>
      <path d="M115.43,95.05c2.22,3.6,6.19,5.99,10.73,5.99,7.46,0,13.4-6.46,12.55-14.09-.64-5.75-5.27-10.41-11.02-11.09-5.11-.6-9.69,1.85-12.18,5.76-1.37,2.16-3.67,3.54-6.23,3.54h-4.14c-2.56,0-4.86-1.39-6.23-3.54-2.49-3.91-7.07-6.36-12.18-5.76-5.75,.68-10.38,5.33-11.02,11.09-.85,7.63,5.09,14.09,12.55,14.09,4.54,0,8.51-2.4,10.73-5.99,1.31-2.12,3.64-3.4,6.14-3.4h4.14c2.5,0,4.82,1.28,6.14,3.4Z"/>
      <path d="M227.3,10.97c-.2,1.58-.11,3.11,.23,4.55,.59,2.49-.27,5.1-2.08,6.91l-13.75,13.75c-1.79,1.79-4.39,2.64-6.86,2.05-.98-.23-2-.35-3.05-.34-6.78,.07-12.42,5.71-12.49,12.5-.01,1.05,.11,2.07,.34,3.05,.59,2.47-.26,5.06-2.05,6.86l-13.75,13.75c-1.81,1.81-4.42,2.66-6.91,2.08-1.43-.34-2.96-.43-4.55-.23-5.78,.75-10.37,5.5-10.92,11.3-.75,7.94,5.86,14.55,13.8,13.8,5.8-.55,10.55-5.14,11.3-10.92,.2-1.58,.11-3.11-.23-4.55-.59-2.49,.27-5.1,2.08-6.91l13.75-13.75c1.79-1.79,4.39-2.64,6.85-2.05,.98,.23,2,.35,3.05,.34,6.78-.07,12.42-5.71,12.49-12.49,.01-1.05-.11-2.07-.34-3.05-.59-2.47,.26-5.06,2.05-6.86l13.75-13.75c1.81-1.81,4.42-2.66,6.91-2.07,1.43,.34,2.96,.43,4.54,.23,5.78-.75,10.37-5.5,10.92-11.3,.75-7.94-5.86-14.55-13.8-13.8-5.8,.55-10.55,5.14-11.3,10.92Z"/>
    </g>
  </g>
</svg>