<?xml version="1.0" encoding="UTF-8"?>
<svg id="Layer_2" data-name="Layer 2" xmlns="http://www.w3.org/2000/svg" viewBox="0 0 95.56 379.69">
  <g id="Layer_1-2" data-name="Layer 1">
    <path d="M77.79,354.37l-2.37,2.37-51.4-51.4,2.38-2.37v-12.19l-5.58-5.58h-5.24v-80.28h1.89c.47-.48,.9-.9,1.3-1.3h2.06l5.58-5.57v-12.19l-5.58-5.58h-4.59V24.64h1.24c.47-.48,.9-.9,1.3-1.3h2.06l5.58-5.57V5.58L20.81,0H8.62L3.05,5.58v2.07c-.4,.39-.82,.82-1.3,1.29v10.99l4.72,4.72h6.75V180.29h-4.59l-5.58,5.58v2.07c-.4,.39-.82,.82-1.3,1.29v10.99l4.72,4.72h6.1v80.28h-3.95l-5.58,5.58v2.07c-.4,.39-.82,.82-1.3,1.29v10.99l4.72,4.72h10.99c.47-.48,.9-.9,1.3-1.3h2.06l1.08-1.08,24.15,24.15L7.16,370.49c-.68-.36-1.44-.58-2.27-.58-2.7,0-4.89,2.19-4.89,4.89s2.19,4.89,4.89,4.89,4.89-2.19,4.89-4.89c0-.78-.2-1.51-.53-2.17l38.9-38.9,25.13,25.13-1.08,1.08v2.07c-.4,.39-.82,.82-1.3,1.29v10.99l4.72,4.72h10.99c.47-.48,.9-.9,1.3-1.3h2.06l5.58-5.57v-12.19l-5.58-5.58h-12.19ZM9.83,20.42l-3.87-3.87V6.78l2.57-2.56,1.3-1.3h9.77l3.87,3.87v9.78l-1.3,1.3-2.57,2.56H9.83Zm0,180.29l-3.87-3.87v-9.78l2.57-2.56,1.3-1.3h9.77l3.87,3.87v9.78l-1.3,1.3-2.57,2.56h-4.03s-3,0-3,0h0s-2.74,0-2.74,0Zm13.65,101.05l-1.3,1.3-.22,.22h0s-2.12,2.12-2.12,2.12h0s-.23,.23-.23,.23H9.83l-3.87-3.87v-9.78l2.57-2.56,1.3-1.3h2.74s3,0,3,0h0s4.03,0,4.03,0l3.87,3.87v9.78Zm69.17,69.17l-1.3,1.3-2.57,2.56h-9.77l-3.87-3.87v-9.78l2.57-2.56,1.3-1.3h9.77l3.87,3.87v9.78Z"/>
  </g>
</svg>