<?xml version="1.0" encoding="UTF-8"?>
<svg id="Layer_2" data-name="Layer 2" xmlns="http://www.w3.org/2000/svg" viewBox="0 0 2340.95 2066.66">
  <g id="Layer_1-2" data-name="Layer 1">
    <g>
      <path d="M492.04,1159.33l325.75,325.75c15.55,15.55,40.77,15.55,56.32,0l325.75-325.75c7.47-7.47,17.6-11.66,28.16-11.66h597.07c35.48,0,53.24,42.89,28.16,67.98l-778.57,778.58c-25.09,25.09-7.32,67.98,28.16,67.98h209.64c10.56,0,20.69-4.2,28.16-11.66l988.66-988.66c15.55-15.55,15.55-40.77,0-56.32L1335.39,11.66C1327.92,4.2,1317.79,0,1307.23,0h-295.32s-5.23,5.23-5.23,5.23l846.55,846.56c25.09,25.09,7.32,67.98-28.16,67.98h-597.07c-10.56,0-20.69-4.2-28.16-11.66l-325.75-325.75c-15.55-15.55-40.77-15.55-56.32,0l-325.75,325.75c-7.47,7.47-17.6,11.66-28.16,11.66H39.82c-21.99,0-39.82,17.83-39.82,39.82v148.25c0,21.99,17.83,39.82,39.82,39.82H463.88c10.56,0,20.69,4.2,28.16,11.66Z"/>
      <path d="M39.82,40.95V456.96c0,35.48,42.89,53.24,67.98,28.16L523.82,69.11c25.09-25.09,7.32-67.98-28.16-67.98H79.64c-21.99,0-39.82,17.83-39.82,39.82Z"/>
      <path d="M79.64,2066.66H495.66c35.48,0,53.24-42.89,28.16-67.98L107.8,1582.66c-25.09-25.09-67.98-7.32-67.98,28.16v416.01c0,21.99,17.83,39.82,39.82,39.82Z"/>
    </g>
  </g>
</svg>