<?xml version="1.0" encoding="UTF-8"?>
<svg id="Layer_2" data-name="Layer 2" xmlns="http://www.w3.org/2000/svg" viewBox="0 0 1255.71 1255.63">
  <g id="Layer_1-2" data-name="Layer 1">
    <g>
      <path d="M658.5,481.33h-114v133.26h114c46.43,0,71.65-19.83,71.65-67.57s-25.22-65.7-71.65-65.7Z"/>
      <path d="M679.62,1037.79c194.6-25.43,345.37-192.32,345.37-393.74,0-218.95-178.15-397.09-397.1-397.09S230.72,425.1,230.72,644.05s178.14,397.1,397.17,397.1c17.53,0,34.79-1.14,51.73-3.35m64.4-163.94c-12.57-29.87-11.26-75.65-16.57-113.43-7.27-49.7-26.52-71.57-78.91-71.57h-104.05v185h-104.13V400.46h255.27c84.87,0,138.57,59,138.57,130.65,0,55.65-22.52,97.44-74.91,118.65v1.31c51.08,13.22,65.61,63,68.95,110.74,1.97,29.79,1.31,85.52,19.92,112.05h-104.13Z"/>
      <path d="M0,0V1255.63H1255.71V0H0ZM627.89,1161.66c-285.45,0-517.69-232.2-517.69-517.6S342.44,126.44,627.89,126.44s517.62,232.2,517.62,517.62-232.2,517.6-517.62,517.6Z"/>
    </g>
  </g>
</svg>