<svg id="Layer_1" data-name="Layer 1" xmlns="http://www.w3.org/2000/svg" viewBox="0 0 1000 1000"><defs><style>.cls-1{fill-rule:evenodd;}</style></defs><path class="cls-1" d="M952.75,586.43q-6.37-11.07-12.76-22.15L921.86,554.2c-12.45-7.46-24.83-16.66-33.57-27.86A221.26,221.26,0,0,1,873.22,505c1.06,2.29,2,4.45,2.65,5.93L853,512.57q-4.54-7.38-9.07-14.77v-.34l22.16-3a9.7,9.7,0,0,1,2.74,2.71q-1.1-2.17-2.07-4.39c-4.46-10.18-8.53-19.64-13.76-28.54-.79-1.68-1.57-3.35-2.35-5l-12.09-6.38c-7.73-5.69-12.23-14.56-18.13-22.16C815,423.54,806.6,418.8,801,411.85l-24.51-28.54q-2.87-5.37-5.71-10.75L749.63,344.7c-2.53-2.86-6.63-7.63-9.74-9.74l-5.71-2.35c-3.09-2.16-6.82-7.66-10.11-13.68.54,1.15,1,2.37,1.38,3.27l-12.76-2.35c-.78-2.24-1.56-4.47-2.35-6.71l11.42,2.68a5.05,5.05,0,0,1,1.55,1.7c-.54-1-1-2-1.55-3v.33l-12.09-2.69c-.78-2.13-1.56-4.25-2.35-6.38l11.08,3.36a4.82,4.82,0,0,1,1.57,1.63,83.36,83.36,0,0,1-3.58-9,17,17,0,0,0-4.41-1.13l2.39.8c-2.56,1.53-11.38,2.21-13.43.67h-.67l10.52-1.6c-5.43-.41-11.53.9-18.24.93l-23.17-.67c-10.41,1.64-25.75,1.82-36.26,0L608.28,296a93.33,93.33,0,0,0-10.44,2.26L609,296.69c1.22,1.24,1.49,5.67,1.68,7.72l-12.09-3.36c-.43-.87-.87-1.74-1.31-2.62l-1.28.35,1.58,1.26c.12.34.23.68.34,1l-12.76,2.35-.67-1L594,299.3c-7.61,2.05-15.35,4-24,3.09-16.41-1.7-33.82-3.88-48.34-1.34l-13.77-.67-25.52,2.35c-9,1.41-18.64-.77-26.52-1-16.92-.5-33.75,2.77-50.36,0-14.44-2.4-25.49-6.15-41.3-6-11.87,7.27-32.8,6.46-48,9.74l-13.09.67-3,3.35c-4.6,3.54-8.33,4.82-15.44,4.37-2.25,6.27-7.08,15.75-12.42,19.14l-6.05,2c-4.39,4-8.95,19.9-13.43,25.85-3.5,4.67-8.64,7.06-12.75,11.08q-3.19,4.88-6.38,9.74l-13.1,15.11L207.06,418.9c-9.67,13.26-26.24,19-36.26,31.56-7.82,9.85-10.89,23.48-17.46,34.58-12.94,21.88-31.38,40-47,59.43L90.56,559.24,72.09,578,55,590.46,30.12,607.92l-.67.34c3.45,2.24,9.16,2,13.77,3L67.39,616l33.91,2.35c14.91,2.33,37.93,3.34,53.72.67,9.87-1.67,21.53-5.51,33.24-3.69l36.6,1.68c10.39,1.61,22.33,1,33.91,1,20.09,0,41,0,57.75-3l39.61-6.38h43l33.24.34,45,3.36,20.14,1L559.59,619l27.87.67,27.87.34,49.69.67,31.22,1h20.82c17,0,33.7.38,49-2l84.61-5.7c23.23-3.68,50-4.82,75.54-3.7,15.18.67,30.07-.85,44,1.68.12-.91-.11-.08.34-1Zm-1,.34.67.67-27.53,1.68L912.8,566.29l24.17-1h2Q945.37,576,951.75,586.77ZM452.83,304.41q-.34,2.68-.67,5.37l-12.43.67h-.33l.67-3.36A28.87,28.87,0,0,1,452.83,304.41Zm-11.75,1.34.67-1h3ZM520.65,334v4.37l-14.1-.67v-4Zm-14.1-1v-4.37l13.76-1v5.71Zm14.1,6.38.33,1.34-14.43-1.34v-1Zm359.25,227,1.67,1.68v.33l-26.52,1.35-11.75-17.8h25.18Zm-10.08-14.44c19.86.61,30.12,2.55,40,13.1h.67l-25.18,3C881,567.74,872.16,555.24,869.82,551.85ZM201.69,512.91l8.06-14.11c1.71-1.54,7.06-.17,9.4-1h12.09l-7.39,13.76c-2.95,1.37-8,1.62-12.92,1.58,4.31.28,8.82.78,11.58-.23q-4,6.38-8.06,12.75c-4.52,2.66-16.95,1.78-23.17,1.68q4.71-6.37,9.4-12.76c1.19-1.05,3.1-1.45,5.33-1.55C204.43,513,203,512.93,201.69,512.91ZM310.81,342.35l11.41.33V343q-1.34,4.86-2.68,9.74l-15.45-1.68c.79-2.58,1.57-5.15,2.35-7.73v-.67Zm-4-.67v-.34l.33-1,3.36,1Zm4.7-.68c1.21.24,1,.14,1.68.68Zm225.62,3.7,14.44.33c.22,1.57.44,3.14.67,4.7l-14.77-4C537.32,345.37,537.21,345,537.1,344.7Zm.34,7.05-15.11,5H522v-7.72l13.43-2.35h1.34C537,348.39,537.21,350.07,537.44,351.75ZM523,405.13v1.68l-17.46,6.38V401.1Zm-17.46-4.7V389L522,399.42h.67v4.7Zm-60.1,39.28-1.68,8.06H424.63l2-8.06c1.05-.94,3.51-1.16,6.35-1.08-2.43-.27-4.65-.55-6-.6q.82-4.35,1.67-8.72l18.47.67v.33L445.44,438c-1,.93-3.43,1.16-6.21,1.08C441.74,439.38,444,439.67,445.44,439.71ZM306.11,480.34l5-13.43,18.47-1.34h1.68q-2.35,6.38-4.7,12.75Zm20.14-1q-2.34,7.21-4.7,14.44l-21.82.67,6-13.09,18.13-2ZM504.87,374.91l.33,4.37-16.11,4.36.33-5.7Zm-15.45,2c.23-2.35.45-4.7.68-7.05l15.1-2v6.38Zm150.75,46c8.48,2.34,16.92.59,21.49,6.71C653,427.34,644.41,429.61,640.17,422.93ZM662,430.65c2.21,1.14,3.79,4.61,5,6.71l-19.47-1-3.36-8.06ZM542.47,413.53c-.22-1-.45-2-.67-3l17.46,1c.33,1.23.67,2.46,1,3.69Zm.34,4.36-18.47,1.34L524,407.48l18.13,7.39C542.36,415.88,542.58,416.88,542.81,417.89Zm57.07-38.61h4.37l2,5.71-14.43,1.68h-2c-.45-2.24-.89-4.48-1.34-6.72Zm-13.09-8.06h15.44l1.68,7-15.44,1Zm31.22,40c-1-2-2-4-3-6.05l17.46,1c.9,2.8,1.79,5.6,2.69,8.39Zm20.48,10.74-17.79-3.36q-1.34-3.36-2.69-6.71l17.13,3.35Q636.82,418.56,638.49,421.92Zm-26.18-23.17,17.12-3.35q1.34,4.86,2.69,9.73C622.34,405.41,615.16,406.23,612.31,398.75Zm-20.48-5-1.68-6.05,15.78-2,2.68,6Zm19.13,4v.33l-17.12,2.69-1.68-6.38,16.12-2Zm-20.14-5v1L575,395.06h-.34q-.66-3.53-1.34-7.05l7-.34h9.07Q590.14,390.19,590.82,392.71Zm-16.12,3,13.43-1h3.36l1.68,6.38-17.12,1.68-1.35-6.71Zm1.68,8.06v-.34l16.45-1.68,2.35,5.71v.34l-15.44,1.68h-2Zm.67,5.71-17.46,1c-.33-2.12-.67-4.25-1-6.38v-.33l16.78-.34Zm17.13-7.73,15.44-2.68h2q1.17,2.69,2.35,5.37l-17.8,3ZM612,398.08c-.78-1.9-1.57-3.8-2.35-5.71l15.78-2.68h1.34c.9,1.68,1.79,3.36,2.69,5Zm14.1-9.06-16.78,2.35q-1-2.87-2-5.71L623.05,384c1,1.57,2,3.13,3,4.7Zm-3-5.71L606.93,385l-2-5.71L617,377.94h4l2,5Zm-33.91,3.36L573,387c-.33-2.35-.67-4.7-1-7.05h15.44Zm-15.44,8.39H557.24c-.22-2.46-.44-4.93-.67-7.39l15.78.34Zm.33.67q.68,3.52,1.34,7l-16.78.34c-.34-2.46-.67-4.93-1-7.39ZM558.92,410.5l-17.12-1c-.22-2.13-.45-4.26-.67-6.38l16.45.67Q558.25,407.15,558.92,410.5Zm1,1,14.44-1h3c.45,1.57.89,3.14,1.34,4.7l-17.46.34C560.83,414.2,560.38,412.85,559.93,411.51Zm18.13-1,14.44-1.67h3.36c.55,1.23,1.11,2.46,1.67,3.69l-17.79,2.68Zm18.47-2,17.12-3.36c1.56,1.14,2,3.7,3,5.37v.34l-18.13,2Zm19.13,3.36c2.6.52,3.21,3.89,4,6v.34l-18.8-3-1.34-1.67Zm4.37,7.38,3,8.4h-18.8q-1-5.55-2-11.08Zm1,.34c6,.82,17.89,1.52,20.14,6.38.45.45.9.89,1.34,1.34l-18.8.34C622.83,424.94,621.93,422.25,621,419.57Zm15.44-4,16.79,2q2,3.36,4,6.72C647.45,424,639,423.88,636.48,415.54Zm-.67-1c-.9-2.79-1.79-5.59-2.69-8.39l17.13,2.35c1,2.69,2,5.37,3,8.06Zm-3-9.06q-1.18-5-2.35-10.07l16.45,2.68q1.51,4.69,3,9.4Zm-2.69-10.75-2.68-5.37,16.78-3.69h.34l2,11.41Zm-3.36-6c-.56-1.34-1.12-2.69-1.67-4l-.68-.67,15.78-4.7h1.35c.89,1.9,1.79,3.8,2.68,5.71ZM624.39,383l-2.68-5.37,15.78-3,3,3.69Zm-3-6-2-6.38,14.77-2c1.67,1,2.57,3.57,3.36,5.37Zm-.67,0-13.43,1.34h-2.69q-.83-3.52-1.67-7l13.09-.67h2.35C619.13,372.68,619.92,374.8,620.7,376.93ZM618,369.88l-15.1.67-1.68-8.73h15.11c.56,2.35,1.11,4.7,1.67,7.05Zm-16.11-.34v1H586.79q-.67-4.53-1.34-9.07l15.11.34C601,364.39,601.45,367,601.9,369.54Zm-16.12,1-15.11-1c-.33-2.91-.67-5.82-1-8.73l15.11.67C585.11,364.51,585.45,367.53,585.78,370.55Zm.34.67c.45,2.58.89,5.15,1.34,7.72v.34l-15.78-.34q-.49-4.37-1-8.73ZM571,378.61v.33l-15.44-1c-.23-3.36-.45-6.72-.68-10.08L570,370.21C570.34,373,570.67,375.81,571,378.61Zm-15.44,0L571,380q.68,3.53,1.34,7.05l-16.11-.33q-.35-3.19-.67-6.38Zm1,16.45-16.45-1-.33-5v-3.36l15.44,1.68C555.68,389.91,556.13,392.49,556.57,395.06Zm0,.67c.34,2.13.67,4.25,1,6.38v1l-16.79-.67-.33-7.73ZM541.8,413.19,524,406.81c-.12-.45-.23-.89-.34-1.34C529.15,406.8,539.94,408,541.8,413.19ZM524,442.06l-19.14,2v-9.4l18.8-3Q523.84,436.85,524,442.06Zm-36.26-45.32c.22-2,.44-4,.67-6.05l15.78-7.38c.83.83.78,2.59.67,4.36Zm-89-3.36c.79-2,1.57-4,2.35-6l16.45,3.35.34.68c-.45.89-.89,1.79-1.34,2.68C412.24,396,404.19,393.53,398.77,393.38Zm16.79,2.35-2,6.72-18.13-2.69,2.68-5.71Zm22.5-10.07-16.46-.34,2-6,15.78.34Q438.73,382.64,438.06,385.66Zm2-6h15.78c-.34,2.12-.67,4.25-1,6.37H438.73C439.17,383.87,439.62,381.74,440.07,379.62Zm-2.69,7.05q-.66,2.85-1.34,5.7l-16.79-2c.67-1.46,1.35-2.91,2-4.37l8.73.68Zm-16.45-2c-2.16,1.69-11.74-.56-15.78-.67l1.68-5,15.78.34ZM420.6,386l-2,4-16.79-3.35,2-2Zm-1.68,5,16.78,2q-.82,2.34-1.67,4.7l-17.13-2.69Zm17.46,2.35,16.78.67c-.44,2-.89,4-1.34,6.05l-16.45-2.35h-.67Zm.33-1,1.68-5.37h16.12v.34c-.34,1.79-.67,3.58-1,5.37ZM455.18,387l16.11-.33q-.33,3-.67,6l-16.45.34C454.51,391,454.84,389,455.18,387Zm16.79-.33L488.08,385l-.33,5-16.12,2.69h-.34C471.52,390.69,471.74,388.68,472,386.67Zm-.34-1-16.12.67q.51-3.36,1-6.71l15.78-.34C472.08,381.41,471.85,383.53,471.63,385.66Zm-15.78-7.05H440.41c.33-2.46.67-4.93,1-7.39h15.45C456.52,373.68,456.19,376.15,455.85,378.61Zm-14.77-8.4H425.63l1.35-9.06,10.07.67h5C441.75,364.62,441.41,367.42,441.08,370.21Zm-1.68.68h1.34c-.45,2.35-.89,4.7-1.34,7.05-2.12,1.93-12.45.8-15.45.33l1.35-7Zm-14.77.67-1.68,6c-2.47,2.24-12,.44-15.78.34l2-6.72h15.45Zm-18.14,5.71v.67H390.71c.79-2.13,1.57-4.26,2.36-6.38l4.7-.34h10.74C407.84,373.24,407.17,375.25,406.49,377.27Zm-.33,1.34q-1,2.52-2,5L387.69,383l2.69-4.36Zm-3.36,6c-2.73,2.89-12.68,2.17-18.13,2l2.35-3ZM387,387.34h13.1v.33q-1.19,2.68-2.35,5.38l-17.13-.34,2.35-4.37Zm10.41,6.71-2.69,5.37-17.79-1,3-5Zm-3,6.38q-1.35,4.69-2.69,9.4c-1.83,1.82-13.77.06-17.79,0q1.33-5.2,2.68-10.41Zm-2.69,10.75q-1.17,6.21-2.35,12.42l-18.46-.67q1.33-6.21,2.68-12.43ZM389,424.27v.34c-.9,3-1.79,6-2.69,9.06l-19.14-1,3.36-9.06Zm.67.34,18.8,2.35v.33c-.78,3-1.57,6-2.35,9.07L387,434Q388.37,429.3,389.71,424.61Zm.33-1q1.18-6.21,2.35-12.42l18.47,4-2,10.75Zm2.69-13.1q1.17-5,2.35-10.07l18.13,3-2,11.08Zm21.15-6.71,17.8,3.36L430,416.88v.67l-17.46-3h-.67Zm1-1h-.67l2-7,17.46,2.69v.33L432,406.47Zm19.47-4,17.12,2c-.33,2.68-.67,5.37-1,8.06l-17.8-2Zm18.13,2.35,16.79-.33c-.22,2.79-.45,5.59-.67,8.39H451.15C451.6,406.48,452,403.79,452.49,401.1Zm0-1,1.35-6.05,6.71-.33h9.74q-.35,3.18-.67,6.38Zm18.8-6.05c2.67-2.58,11.89-2,15.78-3h.34c-.11,2.13-.22,4.25-.34,6.38l-16.78,2.69C470.62,398.08,471,396.07,471.29,394.05Zm16.46,3.7L504.2,389l.33,11.41-17.12,6.38Q487.57,402.28,487.75,397.75Zm1-8.06h-.33l.33-4.37c4-2.94,10.84-2.74,15.45-5C506.36,383,491.56,388.59,488.75,389.69Zm-.67-5.71-15.78,1.68c.22-2.13.45-4.25.67-6.38l13.43-1.34h2.35C488.53,380,488.3,382,488.08,384Zm-15.78-5.71-15.44.34c.22-2.46.44-4.93.67-7.39l15.44-.33C472.75,373.35,472.52,375.81,472.3,378.27Zm-15.11-8.06H441.75c.33-2.68.67-5.37,1-8l15.1.33Q457.53,366.36,457.19,370.21Zm-15.11-9.06-15.1-1q.66-5.7,1.34-11.41l14.77,1.34Q442.6,355.61,442.08,361.15Zm-15.78-1-15.1.34c.56-3.25,1.11-6.49,1.67-9.74l14.44-2Q426.82,354.43,426.3,360.14Zm0,1q-.66,4.53-1.34,9.06H409.52l1.68-8.73Zm-17.45,9.06-15.45.34q1-3.69,2-7.39l15.1-1.68Q409.68,365.85,408.85,370.21Zm-16.12.34H377.29c.78-2,1.56-4,2.35-6l14.1-1.35h1Zm-.34,1q-1.17,3.18-2.35,6.38l-15.44-.67c.78-1.91,1.57-3.81,2.35-5.71Zm-2.68,7.05-2,3.36c-4.09,1.87-11.89-.05-16.78-.34l2.68-3.36Zm-3.7,5-2.35,3-16.45-3v-.33l2-.67Zm-3,3.7c-1,1.68-2,3.35-3,5l-17.12.34c.89-2.8,1.79-5.6,2.68-8.39Zm-3.69,6q-1.51,2.52-3,5l-17.13,1.68,3.36-6.72Zm-6,6h2.35q-1.35,4.88-2.69,9.74v.67l-17.79.67q1.67-4.69,3.35-9.4Zm-3,11.08h2.35q-1.33,5.72-2.68,11.42c-2.45,2.22-14,.78-18.13.67q1.51-5.54,3-11.08Zm-.67,13.1v.33q-1.68,4.36-3.35,8.73L347.4,432q1.85-4.2,3.7-8.39Zm-3.69,9.73v.34l-3.36,11.08L343,444.08,346.73,433Zm1,.34,15.44,1h3.36q-1.35,5.7-2.69,11.41l-19.47-1.34Zm19.81,1L405.82,437v.33q-1.17,4.88-2.35,9.74l-19.81-1ZM406.83,437l18.47,1.68.33.67-2,8.39-19.48-.33Q405.49,442.24,406.83,437Zm0-.67q1.35-4.71,2.69-9.4L428,429v.34L426,438Zm2.69-10.08q1.17-5.37,2.35-10.74L430,418.23v.33l-1.68,9.4Zm21.15-7.72,18.13,1.34q-.68,4.55-1.34,9.07L429,428.3Zm1-1H431l1.68-10.07,17.46,2.35c-.45,3.14-.89,6.27-1.34,9.4Zm19.47-7.05c2.07-1.86,13.05-.44,17.12-.33q-.5,4.53-1,9.06H449.81Q450.47,414.87,451.15,410.5Zm18.13-.33,15.78-2h1.34c-.22,3.25-.45,6.49-.67,9.74l-17.46,1.34C468.61,416.21,468.94,413.19,469.28,410.17Zm1.68-1h-1.68c.34-2.8.67-5.6,1-8.39l16.78-2.69c-.22,3.13-.44,6.27-.67,9.4Zm16.45-1.34,16.79-6.72.33,12.43-17.79,4C487,414.31,487.19,411.06,487.41,407.82Zm17.46,37.27,18.8-2.35c1.13,2.3.77,7.06.67,10.4l-19.81,1.35C504.64,451.35,504.76,448.22,504.87,445.09Zm19.47-24.85,18.47-1.68.67,10.75-18.8,1.34C524.57,427.18,524.45,423.71,524.34,420.24Zm18.47-5.71,17.79,1.68c.45,1.23.9,2.46,1.34,3.69l-18.46-2Zm18.8,1.68h17.46l1.34,2,.67.67-18.46,1C562.28,418.67,561.94,417.44,561.61,416.21Zm18.8,0,16.12-2.35,2.68.34,1.35,1.68-18.81,3C581.31,418,580.86,417.11,580.41,416.21Zm19.47.34h1.35l2,10.74-18.13-2c-1.52-1-2.07-3.57-2.68-5.38Zm3.36,11.75q1.17,5.7,2.35,11.41H586.12l-1.68-13.43Zm1,.33v-.33l19.14.33q1.17,4.71,2.35,9.4v1l-19.48.67Zm19.81,0,10.07-.33h9.07c1.11,2.8,2.23,5.59,3.35,8.39L628.42,439C625.37,438.34,624.94,431.44,624.06,428.63Zm22.16,8.73c2.6,1.87,2.77,10.73,3.69,14.1v.34l-19.81.34q-1.51-6-3-12.09Zm1.68,0,19.47.67q1.51,7.73,3,15.45v.33l-19.47-2Q649.41,444.59,647.9,437.36Zm20.48,1,18.13,2.35c2.58,1.77,3.71,9.55,4.7,12.76l-19.81.33Q669.89,446.1,668.38,438.37Zm-.68-1-4-6.71,18.46,2,4.37,7Zm-5-7.72-3.36-4c8.56.18,17.69.9,21.49,6.05Zm-4.37-5-3.69-7.06,17.46,2,3.69,6.71Zm-4.36-8.06c-1-2.69-2-5.37-3-8.06l16.78,2.69q1.86,3.69,3.7,7.38Zm-3.36-9.07c-.89-3-1.79-6-2.68-9.06l15.78,3.35,3.69,8.4Zm-3-10.07q-1.17-5.88-2.35-11.75l15.78,5q1.34,5.21,2.69,10.41Zm-5.37-18.47,16.45-1.67,2,12.42C652.39,387.82,645.38,386.2,642.19,378.94Zm-.34-.67-1.68-2.35-1.34-1.34L655,368.87c1.12,2.58,2.23,5.15,3.35,7.72Zm-3.36-4.7-2.68-5,15.11-3.7h1l3,3.36Zm-3.35-6c-.67-2-1.35-4-2-6v-.33l13.1-2h2q1.51,2.52,3,5Zm-.67.33-15.45,2-2-8.06,12.76-.67h2.68Q633.45,364.51,634.47,367.86ZM617,361.15l-1.68-9.4,14.77.67c.67,2.69,1.34,5.37,2,8.06Zm12.76-9.4-14.44-.67L613.65,340l14.44,2.35,1.68,9.06ZM616,360.14v1l-14.77-.34-1.35-10.07,14.78,1C615.1,354.55,615.55,357.34,616,360.14Zm-15.78.67H585.45l-1.35-9.73v-.34h15.11C599.55,354.1,599.88,357.46,600.22,360.81Zm-15.78-.33-14.77-.67c-.34-2.69-.67-5.38-1-8.06l14.77-1Zm-15.44,0c.33,3,.67,6,1,9.06l-14.77-2.68c-1.33-1.42-1.15-6.78-1.34-9.07Zm-13.43,26.19L539.79,385l-.34-.34c-.11-3.36-.22-6.71-.34-10.07l15.78,4C555.12,381.29,555.34,384,555.57,386.67Zm-15.45,15.44-16.79-3-.33-8.4,15.78,4h.67C539.67,397.19,539.9,399.65,540.12,402.11Zm0,1c.23,1.68.45,3.36.67,5v1L524,404.8c-.23-1.68-.45-3.36-.68-5Zm-16.45,17.12V431l-18.47,2.69h-.33l.33-8.39Zm-34.92-43.31L473,378.27l.67-6.71,1-.67,14.44-1C489,372.23,488.86,374.58,488.75,376.93Zm-15.44-7.05-5.71.33h-9.74q.51-3.85,1-7.72h14.77Zm-15.11-8.06-15.11-.67c.23-3.69.45-7.39.67-11.08l15.11,1.34C458.65,354.88,458.42,358.35,458.2,361.82Zm-14.77-12.76-14.44-1-.34-.68c2.15-5.16,9.65-3,15.45-4.36h.33C444.1,345,443.76,347.05,443.43,349.06Zm-15.78-1.34-14.78,2.35,1.68-6.72,14.44,1C428.54,345.48,428.09,346.6,427.65,347.72Zm-13.77-4-1.68,5.71c-1.64,2.39-10.75,3.63-14.1,4q.67-4.71,1.34-9.4l14.44-.68Zm-2.68,7.39h1l-1.68,9.73-14.77,1.68q1-4,2-8.06Zm-16.12,11.41-14.77,1,2-7.05,14.1-2C396,357.12,395.53,359.81,395.08,362.49Zm-13.43-5.71c-3.22,8.93-6.18,7.18-17.12,6.38q1.17-3.18,2.35-6.38l4.36-.33h10.41ZM379,364.17v.34c-.78,2-1.56,4-2.35,6l-15.44-.67c.89-1.9,1.79-3.81,2.69-5.71Zm-3.69,7.39h.67l-2,5.37-16.12-.67,2.69-5.37Zm-3.36,6.71h.67l-2.68,3.36-15.45-2-.67-.34,3-2.35Zm-4,4c-3.86,2.17-13.14,2.05-18.46,2l3-3.7Zm-7.38,2h4.36q-1.5,4.19-3,8.39l-14.77,3h-1.34q1.33-5.21,2.68-10.41Zm-.34,9.4h1.35l-3,6.38-16.78,5.37c1.12-2.58,2.23-5.15,3.35-7.72C347.26,394.61,356.45,395.31,360.16,393.72Zm-3,7.72c.88,1.14-2.05,6.72-2.69,9.06l-17.12,2C343,403.3,348.26,406.44,357.14,401.44Zm-4.7,10.07h1.68l-3.36,11.08-18.46-.67,4.36-8.39Zm-2,12.09q-2,4.2-4,8.39l-19.14-1,4.36-8.05Zm-4.37,9.4-3.69,10.74-19.48.67q2-6.37,4-12.75Zm-5,11.75c1.1,1.62-2.7,6.73-3.35,9.4l-20.15,1q2.36-4.87,4.7-9.74Zm-8.39,10.74h4v.34l-4.7,8.06c-1.61,1.59-16.47,2.06-20.15,2l5-10.07ZM332,465.9l17.46-1.68h3v.34c-7.44,19.87-4.95,9-24.51,13.76h-.34Zm.67-1.34,5-9.07,19.81.68-4.37,6.37C351.51,464,336.15,464.57,332.63,464.56Zm5.71-10.07q2.18-4.87,4.36-9.74l19.48.67q-2,4.88-4,9.74Zm24.51-8.73,19.81,1-3.36,9.07-20.15-.67Q361,450.45,362.85,445.76Zm20.48,1.34,19.81,1q-1.51,4.36-3,8.73L380,456.17Zm20.48,1,19.47.67c-.78,2.57-1.56,5.15-2.35,7.72l-19.81.34C402,453.93,402.91,451,403.81,448.11Zm20.14.67h19.48c-.67,2.24-1.35,4.48-2,6.71-3.22,3.05-15,.2-19.81,1.35Q422.79,452.8,424,448.78ZM448.13,430h18.13l-1.35,7.72c-2.65,2.41-13.88,1.13-18.46,1Zm3.35-.67h-3.35c.45-3.14.89-6.27,1.34-9.41l5.37.34h12.42c-.33,2.91-.67,5.82-1,8.73Zm16.79-9.41,17.13-1.34v9.07L467.26,429Q467.77,424.44,468.27,419.9Zm17.8,8.73,18.13-3v8.06l-18.8,3Q485.73,432.67,486.07,428.63Zm0-1c.22-3,.44-6.05.67-9.07l16.11-4h1.68l-.33,10.08Zm18.46,27.53,20.15-1,.33,7.05-20.48,2Zm20.15-23.5,18.8-1.68q.49,5,1,10.07L525,441.73Zm19.13-12.76,18.47,2c.34,2.24.67,4.48,1,6.72l-18.8,1.68C544.26,425.84,544,422.37,543.81,418.9Zm19.14,2,16.45-1h2l2,5v.34l-19.13,2.35Zm20.82,5.37q.68,6.72,1.34,13.43l-19.47,1q-.51-6-1-12.09Zm1.68,14.44,1.68,12.09v.33l-19.81-.67-1.68-10.74Zm1-.33,19.14.33q1.18,6.21,2.35,12.42H588.13Zm20.15.67v-.34l14.77-.67h4.7q1.51,6,3,12.09l-20.14,1Q607.78,447.1,606.6,441.06Zm21.49,11.75h1l3,12.08-20.48,1.35q-1.35-6-2.69-12.09Zm2,0h20.15l3.69,10.07-20.82,2Q631.62,458.86,630.1,452.81Zm21.15,0,19.48,2,4.36,10.41C660.89,464.16,654.85,465.52,651.25,452.81Zm20.48,2.35,6.38-.67c15-.52,13.9.59,18.13,10.74v.34l-20.48-.34Q673.75,460.19,671.73,455.16Zm24.85,11.41,5.71,9.74-20.48-.67-5.38-9.4ZM703,477.32q2.52,7.05,5,14.1l-21.15-2q-2.52-6.37-5-12.75Zm1,0,20.81.67,5.71,14.1L709,491.42Q706.48,484.37,704,477.32Zm-.34-1-5.71-9.74,18.13-1.34h2.69q2.85,6,5.71,12.09Zm14.44-12.09-20.82,1.35q-2.36-5.55-4.7-11.08L713,451.13l5,12.76Zm-25.86-10.74-4-12.76,19.47,1.34c1.45,2.47,2.91,4.93,4.36,7.39l.67.67Zm-4.36-13.77c-1.57-2.23-3.13-4.47-4.7-6.71,9.28.43,18.87,2.42,23.17,8.06Zm-10.07-12.42c7.4,1.87,17.55-.73,20.48,5.71l1.68,1.68C691.51,433.88,681.85,432.63,677.78,427.29Zm-.67-.67-4.37-7.05,17.46,1.34,3.69,6.38.67.67Zm12.42-6.72-16.79-1c-1.34-2.58-2.69-5.15-4-7.72l17.12,1.34,3,6.38c.22.22.44.45.67.67ZM668,410.17l-3-8.06,15.78,1.68c2.05,1.22,3.38,5.51,4.36,7.72Zm-2.69-9.07c-2.17-1.44-2.81-7.47-3.69-10.07l15.45,3.36c1.94,1.47,3,6.08,4,8.39ZM661.66,390q-1.17-6.21-2.35-12.42l15.11,5.71q1.33,5,2.69,10.07Zm12.42-7.72L659,376.59q-1.35-3.85-2.69-7.72l14.77,2c2,1.9,2.18,8.22,3,11.08Zm-2.68-12.42-15.78-2q-1.51-1.67-3-3.35l15.78-4.7q1.5,4.86,3,9.73Zm-19.48-6-2.68-5,13.09-1.68c3.17,0,3.69.83,5.71,1.68ZM664,356.11l-15.11,2c-.78-2-1.56-4-2.35-6.05h14.78c.89,1.24,1.79,2.47,2.68,3.7Zm-15.78,2-15.44,2c-.67-2.46-1.35-4.92-2-7.38v-.34l8.06-.34h7C646.66,354.1,647.45,356.11,648.23,358.13Zm-17.79-6.38L628.76,343v-.34l14.44.67,2,7.73Zm-2-10.07-2-4.37h14.44l2,5Zm-2.68-5.38L624.06,334l13.09-1.67a4.79,4.79,0,0,1,2.35,3.35l.67.67Zm2,5.38-14.44-2.35,10.75-2h1.68Zm-13.43,8.05v1l-14.77-1q-.67-4.37-1.34-8.73l13.43-1C614.13,340.93,613.72,347.05,614.32,349.73Zm-15.44,0-14.78.34c-.33-3.25-.67-6.49-1-9.74l14.43.67Zm-15.45.34-14.77,1c-.34-2.58-.67-5.15-1-7.73l14.78-3C582.76,343.58,583.1,346.82,583.43,350.07Zm-16.11-7.39c-.23-2-.45-4-.67-6l14.77,2.69Zm.33,7.05v1l-14.77-1c-.22-1.56-.45-3.13-.67-4.7l14.44-1.34Zm.34,2c.22,2.68.45,5.37.67,8.06l-14.77-2.69c-.23-2.13-.45-4.25-.67-6.38Zm-14.1,13.76v1l-15.11-4.7q-.35-4.53-.67-9.06l14.77,4.7C553.22,360.14,553.55,362.83,553.89,365.51Zm-15.11-2.68,15.11,4.7c.22,2.57.44,5.15.67,7.72v2.35l-14.77-3.69C538.23,372.24,538.65,365.87,538.78,362.83Zm0,21.49-15.45-7.05c-1.1-1.07-.74-7.6-.67-10.75l15.78,8.06C538.55,377.82,538.67,381.07,538.78,384.32ZM523,378.27l15.78,7.05c.22,2.8.45,5.6.67,8.4l-15.78-4C522.15,388.05,522.88,381.22,523,378.27Zm0,29.21.33,12.09-18.13,4.7V414.2Zm-17.8-40.62-15.1,2,.33-7.05,15.11-1.34c-.11.56-.22,1.12-.34,1.68Zm-14.77-5.71c.11-3,.23-6,.34-9.07l14.77-.67v8.4Zm0-20.48-.33,10.41H475.32c.11-3.58.23-7.17.34-10.75Zm-14.44-1c.12-.33.23-.67.34-1h14.44C488.83,340.77,479.83,339.79,476,339.66Zm14.11,12.42q-.18,4.55-.34,9.07l-15.11.67q.35-4.86.67-9.74Zm-.34,9.74c-.22,2.46-.45,4.93-.67,7.39l-15.11.67c.22-2.46.45-4.93.67-7.39Zm-15.78,0H458.87q.35-5.2.67-10.41l14.78.67Q474.14,357,474,361.82Zm-15.11-11.08L444.1,349.4c.33-2.13.67-4.25,1-6.38l14.43-1.34Q459.21,346.21,458.87,350.74Zm-14.1-8.39-14.1,1c2.21-3.9,8.58-1.43,13.09-3h2C445.44,341,445.11,341.68,444.77,342.35Zm-14.44.33c-2.5,1.19-11.42.95-14.43-.33h-.68l1.35-2.35,13.76,1.34H431C430.78,341.79,430.56,342.24,430.33,342.68ZM415.9,340l-1.35,1.68c-2.1,2-11,1.47-14.77,1.34l2-4.7,14.11,1.34Zm-16.79,3.35-12.76,2.36H385l1.68-8.4,13.43,1h.67Zm-1,.68c1.16,1.45-.56,7.17-1,9.73l-14.43,1.68,2-8.73ZM382,355.44l-14.78.34c.79-2.69,1.57-5.37,2.35-8.06,1.83-1.64,7.59-.12,10.08-1H384Zm-15.45-.33c-2.22,2-11.64-.37-15.11-.68q1.19-5.37,2.35-10.74l14.44,3C368.69,348.88,367.62,353.14,366.54,355.11Zm-.67,1.34.34.33q-1.18,3.2-2.35,6.38l-14.78-1.34h-.67l3-6.71Zm-2.69,7.72-2.68,5.71-15.78-1,3-6Zm-3.35,6.38v.34l-3,5-16.11-2.35,3.36-4Zm-3.7,6-3.69,3-16.12-4v-.34l3.36-1Zm-5,3.7h.67c-4.06,5.69-12,5.74-19.47,8q1.33-6,2.68-12.08Zm-3.7,5q-1.33,5.37-2.68,10.75l-16.12,3L332,389Zm-4,11.75h1l-3.69,8.73-16.45,1.35,3.69-7Zm-3.35,9.4q-1.84,3.19-3.7,6.38H318.87C324.62,405.06,330.81,409.93,340,406.47Zm-4.37,7.39-4,8.06-18.8-2.35,4.7-5.71Zm-4.7,8.73v.34L326.59,431l-18.13,2.35h-.34l4-13.09Zm-7.38,9.4h2.35v.34q-1.85,5.87-3.7,11.75l-19.13,1.68q2.34-5.88,4.7-11.75Zm-4.7,13.43h2.68q-2.52,4.88-5,9.74l-19.48.33,5.37-8.05C305.49,444.6,314.64,447,318.87,445.42Zm-3.36,10.41c.22,2.95-3.6,6.87-4.7,10.07l-20.48.67,6-10.07Zm-12.09,11.08h6.72v.33l-5,13.43L284.62,482l5-14.78Zm1,14.44-5.71,13.09-20.82,2q3-6.7,6.05-13.43Zm-8.73,14.1h2.69q-2.7,7.21-5.38,14.43c-6,1.68-15.35.75-22.49.68l6.38-12.43C282,495.71,290.15,497.57,295.7,495.45Zm3.69-.34,13.77-.33h7.72v.33l-5,13.1c-1.25,1.64-18.28,2.12-22.16,2Q296.54,502.66,299.39,495.11Zm22.5-.33,20.48-3.36c1.19,1.6-3.56,10.19-4.37,13.09l-21.15,4.37Zm.33-1q2.36-7.22,4.7-14.44L344.05,478h4l-4.71,12.42ZM348.75,478l20.48-1.68c1.47,1.19-2.69,10.56-3,13.43l-21.83.67Zm.67-1q2-6.37,4-12.76l19.47-.67c1.74,1.21-2.08,9.18-2.69,12.09Zm4.7-13.76v-.34l4.36-6.71,20.15.67-4.37,5.7Zm21.49-.68,3.69-5.37,20.14.67-3.35,5.38-20.48-.34Zm24.17-4c5.11-2.3,14.62,1.09,20.14-1q-1.17,2.34-2.35,4.7l-20.48,1C398,461.65,398.88,460.08,399.78,458.52Zm21.49-1,17.79-.34h2v.34c-.67,1.68-1.35,3.36-2,5l-20.48-.33C419.48,460.64,420.37,459.07,421.27,457.51Zm20.81-.34,14.78-.33h5q-.66,3.18-1.34,6.38l-20.48-.68Zm.34-1,1.68-7.39,19.47-1c-.45,2.69-.89,5.37-1.34,8.06Zm2-8.4,1.68-8.06,9.07-.33h9.73v.33q-.66,3.19-1.34,6.38C461,448.57,448.68,447.61,444.43,447.77Zm21.16-8.06,18.13-2c1.18,1.33.2,5.37,0,7.72l-19.14,1.34Q465.08,443.24,465.59,439.71Zm.33-1.34,1-8.39,18.13-1.35c-.22,2.8-.45,5.6-.67,8.4Zm19.48-.67,18.8-3q-.18,4.69-.34,9.4l-19.14,1.34C485,442.85,485.17,440.27,485.4,437.7ZM504.2,479l21.15-2.35.33,18.46-21.48.34Zm0-1V464.22l20.48-2H525q.16,6.71.34,13.43ZM525,442.74l19.48-1.68q.5,5.54,1,11.08l-20.14.67C525.24,449.45,525.12,446.09,525,442.74ZM544.49,430l19.13-1.35q.51,6,1,12.09l-19.14-.67C545.16,436.69,544.82,433.33,544.49,430ZM565,441.73c.44,3.36.89,6.71,1.34,10.07v.34H546.16q-.33-5.55-.67-11.08Zm1.34,11.41L568,464.22l-20.48-2.35c-.34-2.91-.67-5.82-1-8.73Zm1,0,19.81.67,2,12.43-19.81-2C567.7,462.52,567.58,455.85,567.32,453.14Zm20.81,1h20.15q1.17,5.88,2.35,11.75v.34H590.15Q589.15,460.19,588.13,454.15ZM611,467.24l3,8.4-21.16-.34q-1.17-4-2.35-8.06Zm1-.33,17.46-1h3.36c1.12,2.69,2.24,5.37,3.35,8.06-2.22,1.62-17.26,1.59-21.15,1.68Q613.49,471.28,612,466.91Zm21.49-1,19.81-2.35h1.34l4.37,8.73-21.83,2Zm22.16-2.35,19.81,2.69q2.34,4.36,4.7,8.73v.33l-20.15-3Zm25.18,12.76q2.36,6.38,4.7,12.76l-21.15-2q-2-6.87-4-13.76Zm5.37,13.77q2.36,7.38,4.7,14.77v.33l-22.49-.33q-1.85-8.4-3.7-16.79Zm1,.33,21.15,2,5.37,14.77-21.82-2Q689.52,497.8,687.18,490.41Zm22.16,2,21.48.67q2.86,7.89,5.71,15.78v.33l-21.82-1.68ZM725.79,478l21.15.33,6,14.11v.33l-21.48-.67Q728.64,485,725.79,478Zm20.48-.67H725.79q-3-6-6-12.09l20.81-2.69q2.85,7.23,5.71,14.44Zm-25.52-13.1c-3.18-.68-5.66-9.92-6.38-13.09l19.48.33,6,9.74.67.67ZM714,450.46l-5.71-8.4c12.37,1.59,18.47,1.26,25.18,8.73ZM702.29,436c10.49.57,18.79,1,23.5,7.39C714.77,440.39,709.58,443.06,702.29,436Zm-6-7,18.13.34c1.46,2.23,2.91,4.47,4.37,6.71l.67.67C707.87,435.77,701.66,436.49,696.24,429Zm-1-1q-2-3.52-4-7l11.41-.33h6l5,8.05Zm-4.37-8.06-4.36-7.38,3-.34H704l4,6.72c.12.33.23.67.34,1Zm-5-8.39q-1.67-3.69-3.35-7.39l7.72-.67h9.06l4,7.73Zm12.76-8.73H681.81l-3.36-8.39,16.45.33,3.69,7.73Zm-20.48-9.4q-1.5-4.86-3-9.74L690.54,385l3.69,9.06Zm12.43-9.06-15.11-1.68q-1.51-5.88-3-11.75l15.1,3,3,10.07Zm-20.82-24.51,15.11,1q1.33,6.21,2.68,12.43C675.21,370.86,672.36,372.52,669.72,359.81Zm-3-2.35-.34-.68,10.75-1h3.69l3.69,4.36C678.53,359.05,671.37,359.26,666.7,357.46Zm-1.35-1.35-3-4c6.16-.15,14.35-1,17.13,2.35h.67Zm-3.69-4.7c-.89-2.24-1.79-4.47-2.68-6.71l14.1.67,3.35,6Zm-1,0-14.43-.33c-.79-2.58-1.57-5.15-2.35-7.73l14.43,1.35C659.09,346.94,659.87,349.17,660.65,351.41Zm-3-7.72-14.1-1.34-2-5L655,338.65l2.68,4.7Zm-15.78-7.39c-1.62-.54-1.91-1.38-2.35-3l-.67-.67,12.42-.67c2.26.66,3,4,3.7,6Zm-3.36-4.7-2.35-3.35,11.76-1.68h2l1.68,4,.67.67Zm-1.67-.67.67.67L623.72,333c-.78-1.23-1.56-2.47-2.35-3.7l11.75-1h2.35Zm-12.09,4.7c.11.34.22.67.34,1l-12.76,2c-1.43-.12-1.33,0-2-.67L609,336.64,622.38,334ZM610,339l-14.44,1.34-1-2c2-1.49,6.84-.41,9.4-1.34h4.37Zm-15.11,1.34-14.1-2c-.34-.67-.67-1.34-1-2L592.83,338A4.45,4.45,0,0,1,594.85,340.33ZM580.08,338,567,335.63c-1.11-.69-1.21-1.41-1.68-2.68,3.57,1.18,12.16,1.43,14.1,4.36Zm-14.44-1.34c.33,2.13.67,4.25,1,6.38l-14.44,1.34-.67-3.69v-2l12.42-2Zm-13.43,13.77c.33,2.12.67,4.25,1,6.37l-15.11-4.7c-.11-1.79-.23-3.58-.34-5.37Zm-13.77,23.16-15.78-7.72-.33-3.69,15.44.33Q538.12,368,538.44,373.57Zm-15.78,24.85-16.45-10.08c-.89-.9-.79-3.16-.67-5l16.79,7.05Zm-17.12-47.68-14.77.34.33-10.41,14.44-.67Zm-14.77-13.09-14.1.33q.33-2.85.67-5.7l13.76-.68ZM476,338l-14.1.34c.23-1.34.45-2.69.67-4l14.11-1.68C476.44,334.4,476.22,336.19,476,338Zm-1.34.67h1c-2,2.19-11.08,2-14.77,2v-.34C463.62,337.66,470.62,340.11,474.65,338.65Zm.34,2q-.35,5.2-.67,10.41l-14.78-.34,1-9.4Zm-14.44-1c-2,2.29-10.8,2.44-14.77,2.35.22-.56.44-1.12.67-1.68l11.41-1h2.69Zm-24.85.67h-3.35l1-5.7,14.11.33c-.34,1.46-.68,2.91-1,4.37Zm-4-.33-14.44-1c.45-1.79.89-3.58,1.34-5.37l14.1,1C432.35,336.42,432,338.21,431.68,340Zm-15.11-1-14.44-1.34,1.68-6,14.1,1.68C417.46,335.18,417,337.09,416.57,339Zm-13.43-7.39-1.68,5.71L387,336.64c.67-2,1.34-4,2-6l14.1.67Zm-16.79,5-14.1-2v-.34c4.09-1.45,10.77-1.75,15.11-3.69h1Zm-.34.67c-.56,2.8-1.11,5.6-1.67,8.4l-14.78.67q1-5.55,2-11.08ZM364.19,336l6.38-2h1Zm6-.67q-.66,5.37-1.34,10.74l-14.1-3h-.67l2.35-4Zm-25.85,5c2.51-2.48,7.82-1.56,11.42-3l1.68.34Zm11.08-1.68c.83.38-.86,2-1.34,3.36-3.37,2-10.09.64-14.44,1.68C343,339.78,350.4,340.86,355.46,338.65Zm-2.68,5q-1,5.37-2,10.74l-14.77-1,2.35-9.07Zm-2.35,11.42v.33c-.9,2.13-1.8,4.25-2.69,6.38l-15.44-.67q1.5-3.52,3-7Zm-4,7.72h.67q-1.51,2.85-3,5.71l-15.11-1.35c.19-1.72,1.79-3.09,2.68-5Zm-3.7,6.38.34.33-3,3.7-16.12-4v-.34l3-1Zm-4.7,4.7c-4.08,2.51-13.79,2-19.47,2.35l3.69-6.72Zm-3.69,2q-1.35,6.21-2.69,12.42l-16.11.68h-.34q1.51-6,3-12.09Zm-12.76,13.43H331q-1.5,4.88-3,9.74l-16.79.33,3.36-9.4Zm0,10.75h5.71l-4,6.71c-2.35,1.86-13.31.09-17.46,0,1.34-1.9,2.69-3.8,4-5.71C312.61,399.83,318.4,401.28,321.55,400.1Zm.67,8-4.36,4.7-17.12-2.68h-.68v-.34l4.37-2Zm-5.37,5.38c-5.39,7.43-11.55,6.41-23.5,6.71l5-9.4Zm-6.71,6.71h1c-2.62,16-6.92,12.89-22.16,15.44q2-7.38,4-14.77Zm-5,14.1h1.68v.34q-2.19,5.54-4.37,11.08l-19.13,1,5.37-10.4Zm-5.37,12.42h2l-5.71,8.4c-1.45,1.31-16.09,1.09-19.47,1l5.37-7.73C286.58,446.31,294.56,448.7,299.73,446.76Zm-5,9.74c.73,1-3.78,8-5.37,9.4s-16.62.07-20.48,0l6-8.06C280.08,455.5,289,458.65,294.69,456.5ZM289,467.24,283.61,482l-21.15.33q2.85-7.71,5.71-15.44ZM283.28,483q-3.19,6.89-6.38,13.77l-21.15.34L262.12,483Zm-9.07,14.44h2.35l-7.05,13.1-22.16.33,7.05-12.09C259.57,496.47,268.53,499.61,274.21,497.46Zm-15.11,14.1h9.74l-7,13.43c-4.28,2-16.48.76-23.17.67q4-6.87,8.06-13.76Zm10.75,0,11.75-.33h10.74l-7,13.76-22.83.67Q266.15,518.61,269.85,511.56Zm23.5-.33,16.45-1h5.37l-6,12.76-22.83,2Zm22.83-.67,19.47-4.7h1.68L332,516.26l-21.49,6.38h-.33Zm22.16-4.37c3.87-3.76,16.41-.69,21.82-2.68q-2.34,5.53-4.7,11.07l-22.83,2Zm.67-1.68c2.72-10.2,2.73-13.42,16.12-13.43l8.39-.33h2v.33q-2.17,5.71-4.36,11.42Zm27.53-13.76,12.76-.34h9.06q-1.67,6.88-3.35,13.77l-22.83-1.68Q364.36,496.62,366.54,490.75Zm.67-1q1.85-6.72,3.7-13.43L390,473.62h1.68q-1.5,7.89-3,15.78Zm4-14.44,3.69-11.75,20.49.67v.34L392.06,472C390.45,473.55,374.78,475.17,371.24,475.3Zm25.18-11.08,18.13-1h2.35v.33c-.89,2.69-1.79,5.37-2.68,8.06l-21.15,1Q394.74,468.42,396.42,464.22Zm21.49-1,16.45.33h4l-2,8.73V473l-21.16-1Q416.57,467.59,417.91,463.22Zm21.49.33,20.81.34c-.56,2.57-1.11,5.15-1.67,7.72-1.63,1.46-17.63,1.27-21.16,1.34C438.06,469.82,438.73,466.68,439.4,463.55Zm21.82,1.34c1.88-1.68,16.57-.42,20.48-.33q-.33,6.21-.67,12.42l-20.82-4.7h-.67Zm10.41-1.67H461.56q.66-3.2,1.34-6.38l19.81-.34c-.22,2.35-.45,4.7-.67,7.05Zm-8.39-7.39c.33-2.69.67-5.37,1-8.06l19.48-1.34c-.23,3-.45,6-.68,9.06Zm20.48.67,19.81-1v7.73l-20.49.33C483.27,461.2,483.49,458.85,483.72,456.5Zm0-1q.33-4.53.67-9.06l19.47-1.34-.33,9.4Zm20.14,40.63h21.82q.18,7.22.34,14.44l-22.16,1Zm21.49-42.31,20.14-.67c.34,2.91.67,5.82,1,8.73L526,461.2C525.8,458.74,525.57,456.28,525.35,453.81Zm21.15,9.07c.45,3.13.9,6.27,1.34,9.4l-21.15,3.36h-.33q-.18-6.72-.34-13.43Zm1,.34,20.48,2,2,6.38-21.48.67Q548,467.75,547.51,463.22Zm21.49,2,20.14,1.68c.9,2.8,1.79,5.6,2.69,8.39l-20.48-3.69C570.11,470.49,569.38,467,569,465.23Zm23.16,11.08q1.35,4.69,2.69,9.4l-22.16,3.36L571,472.62Zm1,0,21.15.34,3.36,9.4-21.82-.34Q594.51,481,593.17,476.31Zm22.16.34,20.14-1.35c2.75.91,4,7.12,5,9.74v.33l-21.82.68Zm22.49-1v-.34l19.48-2h2q2,6.7,4,13.43v.33l-21.15-1.34Zm25.86,12.09,3.69,17.12-22.5.67q-1.5-9.57-3-19.14Zm-3,18.13h7.05l4.71,14.77-23.51,1.68q-2-7.89-4-15.78Zm8.06,0,22.5.33q2.52,7.89,5,15.78l-22.83-1.68Q671.07,513.08,668.71,505.86Zm23.5.33,21.49,2,6.72,13.43V522H697.25Zm23.17,2.35c21.54-.27,21.7.93,28.54,15.78L721.42,522Q718.41,515.27,715.38,508.54Zm22.83,1.68,21.49,1,7,13.76.67,1-22.49-1.68Zm-6.38-17.12,21.83.33q3,8.56,6,17.13C735.08,509.47,739.48,511.37,731.83,493.1ZM748,478.66l9.73-.67c15.88-.54,13.42,4.52,17.8,15.11v.33L754,492.76Zm-.34-1q-2.85-7.38-5.71-14.77l15.45-.67h5.37l6,14.77Zm-6-15.78-6.38-10.41,19.81.68q3.36,4.19,6.71,8.39c.12.34.23.67.34,1Zm-6.72-11.08-6.38-6.38c11.2,2.94,18.19-.47,25.19,7ZM721.42,437.7l10.41-.34h8.06l4.36,6.05,1.68,1.68C735.25,444.85,726.11,444,721.42,437.7Zm-1-1L715,429.31l17.8-1.35c2.6,1.35,5,6.12,6.38,8.73Zm-5.71-8.39-5-7.72,15.45-1.68h3l4.36,7.72.68.67Zm-5.37-8.4-4.7-8,17.12-2.35c2.15,1.12,4.2,5.36,5,7.72l.67.67ZM704,411.18l-4-7.73,14.77-2h2.68l4,6.71.68.68Zm-4.37-8.4-4-8.06,14.1-1.34h3q2,3.53,4,7.05Zm-4.36-8.73-3.36-8.39v-.34l9.73-.67h6l4,7.39Zm2-9.73h-6q-1.35-5-2.69-10.08l15.78.67,3.36,8.73Zm-9.06-11.08q-1.19-6-2.36-12.09l15.11,1q1.35,5.86,2.69,11.75Zm-3-13.1c-1.12-1.56-2.23-3.13-3.35-4.7l15.1.67c.9,1.46,1.8,2.91,2.69,4.37l1,1Zm-6.38-7.72h-.67l5-.67h9.74l3,3.36C690,355.26,681.39,355.82,678.78,352.42Zm-1.67-1-3-6,14.78.34,2.35,4.36.67.67Zm10.74-6.71H674.08l-2.35-3.7-.67-.67,10.75-.67h3c.78,1.34,1.56,2.69,2.35,4l.67.67Zm-15.44-1.35.33,1L659,344l-3-5.38,14.1,1.35C670.84,341.12,671.62,342.24,672.41,343.35Zm-3-4.36-13.76-1q-1.18-2.85-2.35-5.7L667,333.62q1.19,2.52,2.35,5Zm-3-6.38-13.43-1.34-2.35-4.7h13.77l2,5.71Zm-16.45-7.05-2-4.7,13.43-2.35q1.17,3.53,2.35,7.05Zm-.67.34-13.77,1.34-1.68-5c1.46-1.06,5.18-.33,7.06-1h6C647.67,322.76,648.46,324.33,649.24,325.9Zm-15.78-5-2-2c3.77.92,11.52-.91,14.11,1.34Zm1.34,6.71-13.76,1-1.35-6.71h13.43Zm-12.09,5.71L608.28,336l-1.35-4.37v-.33l13.1-2C621.45,330.08,622.05,331.76,622.71,333.28Zm-15.1,2.35L593.84,337c-.45-1.35-.89-2.69-1.34-4v-.34l10.74-1h3ZM593.17,337l-13.77-1.35c-.33-1.45-.67-2.91-1-4.36l13.43,1.34C592.27,334.07,592.72,335.52,593.17,337Zm-15.11-6.38c-.33-1-.67-2-1-3v-.33l10.08-.67h3c.45,1.79.89,3.58,1.34,5.37Zm.67,4.7-14.1-3.36-.33-1.34,13.43.67C578.06,332.61,578.4,334,578.73,335.3ZM564.63,333c.11.56.22,1.12.34,1.68l.33,1L551.54,338h-.34c-.22-2.24-.45-4.47-.67-6.71Zm-13.43,9.73v1.68l-14.44-1-.33-3V340l14.1-1.35C550.75,340,551,341.34,551.2,342.68Zm-.67-4.7-14.1,1c-.23-2-.45-4-.67-6l14.1-1.68c.22,1.9.45,3.8.67,5.71Zm-14.44,5.37-13.76-2.68c-.69-.66-.37-.12-.67-1.34l14.1.67Zm0,.68c.23.56.45,1.12.67,1.68L522,348.39l-.33-6.71Zm1.35,8.73.33,9.06-15.44-.34c-.11-1.23-.23-2.46-.34-3.69Zm-15.11,36.59-16.12-7.05c-.6-.55-.36-.69-.33-2.35l15.78-2H522C522.1,381.74,522.22,385.55,522.33,389.35ZM522,377.27l-16.11,2v-4.7L522,366.52ZM491.1,339.66c1.41-1.54,4.86-.58,7-1.34h7.73C504,340.39,494.8,339.79,491.1,339.66Zm0-8.73-13.76.67.67-4,13.43-.33C491.33,328.47,491.21,329.7,491.1,330.93Zm-14.43.67-12.09,1.68H462.9l.67-4.7,10.75-1h3C477.11,328.92,476.89,330.26,476.67,331.6Zm-13.77-2.68c-.22,1.45-.45,2.91-.67,4.36l-11.75,1c-3-.3-1.77-2.1-1.35-4.7l8.73-1h5Zm-1,5.37-.67,4-14.1,1,1-4.37Zm-14.1-.34-13.43-.33h-.67q.68-2.36,1.34-4.7l4.37.33h9.06C448.24,330.82,448,332.39,447.79,334Zm-13.43-6.38v.68l-13.76-1.68c.56-1.9,1.12-3.81,1.67-5.71l13.43,1v.33Q435,324.89,434.36,327.57Zm0,1.35c-.45,1.56-.89,3.13-1.34,4.7l-14.1-1,1.68-5.37Zm-16.11,3v.67l-13.43-2h-.68l1.68-5.71,13.1,2.35h.67C419.14,328.81,418.69,330.37,418.25,331.94Zm-12.76-8.73c-1.48,2-9.81,2.42-13.1,2.35,3-4.25,9.82-3.8,14.44-6.38C406.38,320.52,405.94,321.87,405.49,323.21Zm-1.35,1.68h1l-1.68,5.71L390,329.92a3,3,0,0,1,1.35-2.68C393.83,324.93,400.79,326.16,404.14,324.89Zm-13.76,2.35L389,329.59l-13.43,2.35c2.92-4.1,8.84-2.9,13.76-5h1Zm-14.77,3.36c-2.09,2.88-9.95,4.56-14.1,5l2-3.35,12.42-2.69C376.92,330,376.07,330,375.61,330.6ZM360.16,336l-13.09,2c3.68-5.28,8.56-3.12,15.11-5.7C362.75,333,361.35,335,360.16,336Zm-13.09,1.34c-3.15,1.57-9.83,1.65-14.1,1.68l2.68-3.69,10.75-1h2.68Zm-4.7,1.68h2.35v.34c-3.91,1.37-10.05,1.18-15.11,2C332.66,339,338.22,340.5,342.37,339Zm-1.68,2.35-2,1.68c-2.05,1.22-8.1-.23-11.75-.34C329.92,340.53,337,342.69,340.69,341.34Zm-3,3q-1.19,4.2-2.35,8.4H320.21q1.34-4.87,2.68-9.74Zm-3,9.74L332,360.81l-15.44-.33q1.67-3.53,3.35-7.05Zm-3.7,7.72v.34l-3.36,4.7-15.78-1.68,4-4Zm-5.71,5.71-18.13,3.36,3.7-5Zm-4.7,2h1l-3.69,6c-2.29,2.57-11.7,3.3-15.45,4l4-8.06Zm-4.36,7.73h1q-1.51,5.53-3,11.07V389l-16.12,1,3.69-9.4Zm-3.69,12.42,1.34.33-3.36,9.07c-3.73,1-13.23-.15-16.79-1.68H293l3.7-5.71C300.58,389.45,307.88,391.41,312.49,389.69Zm-3.7,10.74h.67l-4.36,6.38L287,404.12v-.33l5-5.37Zm-5.7,7.05c-5.11,4-14.89,1.52-22.84,1.35l5.38-4Zm-5.71,3.36-4.7,9.4-17.46,3q2-6.88,4-13.76Zm-6.72,10.41H292q-1.86,7.22-3.7,14.43l-18.46,1q2.34-5.7,4.7-11.41C276.82,422,286.76,422.92,290.66,421.25Zm-7.72,15.44h4.7l-5,10.07-19.48.34,6.05-8.73C271.79,436,279.33,438,282.94,436.69Zm-14.77,11.08H281.6l-5.37,7.72c-4.82,2.21-14.84.47-20.48.34l6.71-7.72Zm6.38,9.4-6.05,8.06c-5.06,2.22-15.43-.86-21.82-1v-.33l8.06-7.05Zm-7.73,9.4.34.67L261.79,482l-21.49-.67q2.85-8.24,5.71-16.46ZM261.12,483v.34q-3.19,6.88-6.38,13.77l-21.83-.34L240,482Zm-7.05,15.11-7,12.09c-4.52,2.66-16.1,1.8-22.5,1.68l7.72-14.1Zm-8.73,13.77q-3.87,6.54-7.72,13.09c-1.85,1.81-18.48,1.45-22.84,1.35l8.4-12.76Zm-9.4,14.77c1.24.4-8.14,9.75-9.4,11.42H203l11.08-10.75Zm1.68,0,22.49-.33c.92.51-6.55,9.38-7.39,11.41-4.75,2.74-17.95.42-24.84.34Q232.74,532.38,237.62,526.67Zm15.44,11.75,8.73-12.08,14.44-.34h8.39l-7.72,11.75c-1.44,1.28-20.44,1.07-23.84,1Zm32.23-12.08L307.45,524c1,1.6-5,7.85-6,10.4-5.4,2.76-16.74,3.52-23.51,3.7ZM309.13,524l21.15-6-4.36,6.38c-4.83,6.26-16.13,7.14-23.84,10.41ZM331,518.61c5.47-3.23,15.4-.59,21.83-3h2.35q-2.19,9.06-4.37,18.13l-25.18-6h-.67Q327.93,523.15,331,518.61Zm25.18-3L380,517.27v.34q-2,7.71-4,15.44c-2.18,2-19.37,1.11-24.17,1Q353.95,524.82,356.13,515.59Zm.34-1,5-11.07L384,504.85l.34.33q-2,5.71-4,11.42Zm29.21-9.4h22.49q-1.5,6.21-3,12.43l-23.84-1Zm.33-1,3.36-13.77,20.82-2.35h1q-1.35,8.22-2.69,16.45Zm3.7-14.78q1.5-7.89,3-15.78l19.14-1h2q-1.33,7.38-2.68,14.77Zm25.18-16.78,21.49,1q-1,8.07-2,16.12l-22.16-2.35Q413.55,480,414.89,472.62Zm22.49,1.68c1.57-1.42,17.47-1.1,21.16-1q-.51,9.39-1,18.8l-22.16-2C436,484.82,436.71,479.55,437.38,474.3Zm22.16-1L481,477.65q-.33,8.06-.67,16.12l-21.82-1.68Q459,482.69,459.54,473.29Zm21.83,21.49,21.48,1.34v15.44l-22.49-.67Q480.86,502.84,481.37,494.78Zm.33-.68q.17-8.06.34-16.11l21.15,1q-.17,8.06-.34,16.11ZM482,477q.33-6.21.67-12.42l20.82-.34q-.18,6.88-.34,13.77Zm21.82,35.59,22.16-1q.33,6.21.67,12.43l-23.16,2Zm22.5-36.26,21.48-3q.35,9.73.68,19.47l-21.83,2.35Zm22.16,17.46q.5,7.73,1,15.44L527,510.56q-.16-7.4-.34-14.78Zm.33-20.82,13.43-.33H570l1.68,16.45-22.16,3.69Q549.19,482.86,548.85,473Zm22.83,17.13c.45,5.81.9,11.64,1.34,17.45l-22.49,1.68q-.51-7.71-1-15.44Zm1-.34,22.16-3,1.68,19.81-22.5,1Q573.36,498.64,572.69,489.74Zm23.17-3.36,22.15.67q1,9.57,2,19.14l-22.5.34Q596.69,496.45,595.86,486.38Zm23.16.67,21.83-.67q1.5,9.57,3,19.14v.34l-22.83.33Q620,496.62,619,487.05Zm2.35,20.15,20.15-.67h2.35q2,8.06,4,16.11l-23.51.34q-1.5-7.72-3-15.45Zm23.84,16.11h3q2.35,6.72,4.7,13.43l-24.17.68q-2-6.72-4-13.43Zm4,.34v-.34l22.16-2h1l5.37,15.11v.33H653.94Q651.59,530.2,649.24,523.65Zm24.51-2.35L696.91,523l6.05,14.1H679.12ZM697.92,523h22.83q3.87,6.54,7.72,13.09l-24.5,1Zm24.18,0,22.15,2.35L752,537.42l.67.67-22.83-2Q726,529.53,722.1,523Zm23.5,2.35L768.09,527q4,5.87,8.06,11.75l1,1L754,538.42ZM769.1,527c21.4-.19,24.15.29,32.57,13.76l-23.51-1Zm-.67-1q-3.69-7.21-7.39-14.44l22.16,1L790.92,526c.12.34.23.67.34,1Zm-7.72-15.44-6.05-17.13,21.49,1q3.2,8.56,6.38,17.12Zm9.4-32.57,18.13-1h3.35l6,18.47-21.15-2Q773.3,485.72,770.11,478Zm-.34-1q-3-7.22-6-14.44l18.13-1.34h3l6.38,15.11Zm-6.38-15.78L756,452.14l19.47,1,7.72,6.38.67,1ZM749,446.43h-.67v-.34l16.46-1.68h2.68l7.39,8.06C763.77,449.67,755.55,454.21,749,446.43Zm1-1.34c-5,0-7.23-4.67-9.06-7.73l15.78-1.68h3.69l4.37,5.71,2,2Zm-10.07-8.73-5.37-8.4L751,425.61h2.35l5.71,8.06.33,1Zm-5.71-9.4-5.37-8.4,18.13-4.36c2.72,1.23,4.83,7.66,6,10.41Zm13.1-13.43-19.14,4.36q-2.35-4.2-4.7-8.39l18.8-6.05,5,9.74Zm-24.18-5-4.7-7.72,17.46-5.71c2.93,1,4.22,5.18,6,7.39Zm-5.71-8.39-4-6.72,16.45-4c2.5.56,2.71,2,4.7,3l1.68,2Zm-4.7-7.73-4-8.05,14.43-2h2.69l4,5.37.33,1Zm-4.36-8.73L705,374.91l14.1-1.67h2l4,8.05Zm-3.69-9.73-3-11.75h15.78l3.36,10.4Zm12.08-12.43H701.61l-2.68-4c-.34-.34-.67-.68-1-1l13.77-1.34h1l3.36,5.37.67.67Zm-19.47-6.37-3.69-3.7,14.1-1,4,3.69h.67Zm-4.7-4.37c-1-1.68-2-3.36-3-5l14.1-1.35,3.36,4.7.67.67Zm-3.36-6-3.36-5,13.43-2h1l3.36,6Zm-4-5.71-2.68-5.37c5.86.65,13.47-.56,16.45,3h.67Zm-1-1,.33,1H670.73l-3-5.37h13.43Zm-16.79-5c-.78-2.13-1.57-4.26-2.35-6.38l13.43,2,2,3.7.67.67Zm10.07-5.38-12.76-1.67q-1.17-3.52-2.35-7l12.43,3.69,2.68,4.7Zm-17.79-12.08h12.76q1.17,3.18,2.35,6.38C669.85,320.58,662.51,319,659.65,315.49Zm-2.69-1v-.34l11.75-4c1.59.67,2.23,2.3,2.69,4l.67.68Zm1,1,2,1,1,1.34c-3.76.89-12.35,3.48-15.11,1.34l-.67-.33Zm-13.77,3-1.34-1.68h-.67l11.41-2h3Zm-1,0-12.76-.34-1.35-2,12.76.67Zm-13.77-.67-5.71-2.35,3.7.33Zm1,1,1.68,2H619.36L618,314.48Zm-10.08,9.73-13.76,2q-.68-3.36-1.34-6.72l12.42-2h1C619.25,324.11,619.81,326.34,620.36,328.58Zm-14.43,2v.33l-13.43,1-1.68-5.37,12.09-2.35h1.67Zm-15.11-5c-.45-1.34-.9-2.69-1.34-4v-.33l13.09-3.36,1.68,5C601.87,324.79,594.44,325.43,590.82,325.56Zm-.67.34-13.43.67c-.34-1.57-.67-3.14-1-4.7l12.09-.67C589.32,322,589.62,324.24,590.15,325.9Zm-12.76,4.7L564,329.92c-.34-1-.67-2-1-3l13.43.34C576.72,328.36,577.05,329.48,577.39,330.6Zm-14.1,0,.67,1.34-12.76-1.68c-1-.6-.84-.65-1.34-1.68Zm-13.77-2.69-.33-2.35,13.09,1.34c.22.9.45,1.79.67,2.69Zm0,2.35-13.76,1.68c-.12-1.79-.23-3.58-.34-5.37l13.77,2Zm-14.1-4.36-.33-3.7,13.09,3c.22.79.45,1.57.67,2.35Zm0,13.09-14.1-.67V334l13.77-1Zm-13.76,22.16-15.11,5.37h-.34v-6l14.44-2.69C521.32,358.47,521.41,360.09,521.66,361.15Zm-1,1.34c1.23.71,1,1.91,1.34,3.36l-16.11,8.06.33-6.38Zm-14.77-29.88-13.77-1.68c.11-1.23.22-2.46.34-3.69l13.43,1.34Zm0,1v4H491.77v-6Zm-14.11-7.39-13.76.34.67-4h13.09ZM478,322.54c-.23,1.45-.45,2.91-.67,4.36l-13.43.67c.22-2,.45-4,.67-6Zm-13.43-1.68c.22-1.23.45-2.46.67-3.69l13.09,1.34C478.13,324,469.44,321.28,464.58,320.86Zm-1.34,6.38-13.77,1c.34-2.35.67-4.7,1-7.05l13.43.33C463.68,323.43,463.46,325.34,463.24,327.24Zm-14.44,1H435l1.35-5.38c1.43-1.92,10-1.76,13.09-1.67C449.25,323.55,449,325.9,448.8,328.25ZM436,320.86l-13.43-.67,1-2c2.24-2.2,8.85-.51,12.08-1.67h1.35C436.71,318,436.38,319.41,436,320.86Zm-13.09-3c-.34.67-.68,1.34-1,2l-13.09-1.34v-.34l1.34-.67H423Zm-1.68,3-1.35,5v.67l-13.76-2.35v-.34l1.68-4.7Zm-26.19,1.34h-.34l1.68-4.7h12.09C405.78,320.11,398.83,320.88,395.08,322.2Zm1-5.37-13.1.34,1.68-5.38,13.1,1.35Zm-26.86,1.34c3.51-8.29,2.47-3.55,10.41-6.38H384C381.5,318.82,378.29,318.42,369.23,318.17Zm17.12-.33h9.07v.33l-1.35,4-13.43.34c.67-1.46,1.35-2.91,2-4.37Zm7,5.37c-2.74,3.88-10,4.38-15.44,5.37l2-5.37Zm-16.11,5.37-13.1,2.69,2.35-5L378,323.55h1.34Zm-13.43,2.35-13.43,2.35q1.17-2.52,2.35-5l12.42-2C365.84,327.07,364.39,329.11,363.86,330.93Zm-14.11,2.35-13.09,1,2-4.37,9.41-1.34h4Q350.93,330.93,349.75,333.28Zm-14.1,1.35-13.43.33c1-1.57,2-3.13,3-4.7l8.06-.67h5Zm-4.7.67h4l-2.68,3c-2.07,1.91-10.05,1.14-13.77,1l3.36-3.7ZM320.54,340H330v.33c-3.49,1.11-9.37,1.15-13.77.67v-.33Zm-1.34,13.43-3.36,6.71-15.44-.67,3.69-7.72Zm-4.36,7.72c-4.25,5.21-11.27,2.84-19.14,4.7l4-5.37Zm-9.07,4.7h4.37c-5.19,7.26-9.62,4.66-19.14,7l3.36-5.71C297.23,365.87,302.46,367.09,305.77,365.85Zm-2,6h1.68c-1.24,2.58-2.47,5.15-3.7,7.73l-16.45-1v-.34l5-4.7Zm-3.7,8.73,1,.34L297.38,390l-17.13-2.35q2.19-4.19,4.37-8.39Zm-3.35,10.07c-1.46,2.13-2.91,4.26-4.37,6.38l-17.79-3.35-.34-.67,5-4.37Zm-5.38,7.39-5.7,5.71-18.47-4v-.34l6-5.37Zm-7.05,6,.34.68c-6.56,3.69-13.94,6.51-21.82,9.4l4-13.77Zm-6.71,5.71c1.43,2-2.53,10.72-3.36,13.77L257.09,427q2.52-5.88,5-11.76Zm-5,14.78h1.35q-2.36,6-4.7,12.08l-18.47,1,5.71-9.74ZM259.44,438l6.71-.33h2.35l-6,8.73c-2.58,2.32-14.85.78-19.14.67C248.09,439.68,248.75,439.67,259.44,438Zm2,10.08-6.71,7.72-20.48-2v-.33l7.72-5.37Zm-8,8.73L246,463.89l-22.16-4v-.34l9.06-5Zm-8.73,7.72.33.67q-2.85,8.06-5.71,16.12l-21.82-2,5.37-18.8ZM239,482l-7.05,14.77-21.49.34q3.36-8.56,6.71-17.13Zm-33.91,45.66h7.38c-10.94,10.8-13,11.09-33.57,12.09l11.42-11.42Zm-5.37,11.41L187.59,549.5l-25.52-2.35v-.33l15.45-6.05Zm-10.75,10.08,12.76-10.08h23.84v.34l-11.08,11.42-25.52-1.35Zm37.61-10.08,24.17.68q-5,5.54-10.07,11.08H215.46Zm25.51.68,10.41-.34h13.43l-9.07,10.41c-3.05,2.7-19.92.07-25.18,1.34Zm24.85-.34,22.83-3.36-7.05,14.44H267.83Zm46-10.74q-2.34,9.9-4.7,19.81c-2.55,2.56-19.31.85-24.17,2h-.34C301.68,529.61,306.64,538.06,322.89,528.69Zm1.35,0,26.19,6v.34c-1.57,5.81-3.14,11.64-4.7,17.45l-26.19-3Q321.88,539.09,324.24,528.69Zm27.19,6.38,8.73-.34h15.45v.34q-2.19,8.05-4.37,16.11c-1.92,1.74-20.12,1.78-24.51,1.68Q349.09,544,351.43,535.07Zm25.18-.34,22.16-4.37h1.35l-3.36,18.47-24.51,3Q374.42,543.3,376.61,534.73Zm.34-1q2-8.06,4-16.11l23.5,1.34v.34q-2,4.69-4,9.4C398.54,530.6,380.85,533.25,377,533.72ZM405.49,519l23.84,2-3,11.76v.67l-24.84-4Q403.47,524.16,405.49,519Zm1.34-1h-.67q1.51-6.37,3-12.76l22.83,1v.34q-1.17,6.71-2.35,13.43Zm2.69-13.43q1.34-8.22,2.68-16.45l22.16,2.69-2,14.43Zm25.85-13.76,21.82,2q-.68,8.06-1.34,16.12L433,505.52Q434.19,498.14,435.37,490.75Zm22.83,2.35,22.16,1.68q-.51,8.06-1,16.11l-21.82-2C455.88,507.21,458.15,496.88,458.2,493.1Zm22.16,18.8,22.49.67L502.52,526l-23.17.34Q479.86,519.11,480.36,511.9Zm22.83,27.87,24.17-1.35q.35,5,.67,10.08v.33l-25.18.67C503,546.26,503.08,543,503.19,539.77Zm0-1q.17-5.88.34-11.75l23.16-2q.34,6,.67,12.09ZM527,511.56l17.46-1.34h5l1.35,11.08v1L527.7,524Q527.37,517.78,527,511.56Zm23.5-1.68,22.83-1.34L575,522.31H551.87Q551.19,516.1,550.53,509.88Zm23.84-1.34,22.49-1q1.18,7.56,2.35,15.11l-22.83-.33Zm23.5-1,22.49-.33,3,15.78H600.22Q599.05,515.26,597.87,507.53ZM623.72,524q1.85,6.54,3.7,13.09l-23.84-1.34q-1.51-6-3-12.09Zm3.36,14.43c2.69,1,4.57,6.82,5.71,9.4l-24.18-1.34q-2.18-4.86-4.36-9.74Zm2,0,15.11-.67h9.07l5.37,13.1-24.17-3Q631.78,543.13,629.09,538.42Zm25.18-.67h23.84q3.2,6.56,6.38,13.1H659.65Q657,544.3,654.27,537.75Zm25.19,0c16.37,4,24.19-5.39,30.88,10.07l1,1-25.85,2Zm25.18.34,19.47-1h4.7l8.39,12.76-24.51-1Zm25.51-1c16.07.85,26.25,1,31.56,13.09.34.34.67.68,1,1l-24.17-1.34Zm24.51,2.35,23.17,1.34,9.4,8.4,1.34,1.68-24.84.33Zm24.85,1.34c18.31,3.21,24-2.35,34.58,10.08H790.25Zm24.84,1c17.69-.11,27.69.38,36.26,9.4H816.1Zm-1-1L793.27,528l22.16.34,10.41,11.75c.11.34.22.67.34,1ZM792.6,527l-8.39-14.44,21.49.67,8.73,13.43.67.67Zm-9.06-15.45q-3.19-8.55-6.38-17.12L798,496.12q3.71,8.06,7.39,16.11ZM792.6,477l20.15,2.35q3.35,8.9,6.71,17.8l-20.81-1.68Zm-.33-.67-6.72-15.11h20.82l6,17.46Zm-15.11-23.17c13.08,3.27,21.12-3.06,27.86,7.39C790.86,457,785.23,463.85,777.16,453.14Zm-1-.67-7.39-8.06,18.81.68,5.7,5,2,2.35Zm-8.06-9.06L761,435.35h19.14l6,7.72c.11.34.23.67.34,1Zm-7.38-8.73-6.38-9.4,16.11-1.35h2.69l6,10.41ZM754,424.61l-5.37-10.75,18.8-3.36,5.37,12.43Zm13.1-14.78-18.81,3.36q-2.52-5-5-10.07l17.46-3.7c3.1.78,5.18,7.34,6.38,10.08Zm-5.71-11.08-17.46,3.7c-2.79-.76-4.87-5.32-6-7.73l16.78-4h1.68l5,7.73Zm-24.18-4.7-4.7-4c-.22-.33-.44-.67-.67-1l17.46-6.38c2.29.74,4.55,4.19,5.37,6.38l.67.67Zm-6.38-5.71q-1.67-2.68-3.35-5.37l-1-1,17.12-5,6,4.7Zm-5-7-3.69-8.39,14.77-2.69h2l4.37,5.71Zm12.09-11.75-15.11,2.69h-1.35q-1.68-5-3.35-10.07h15.78q2,3.52,4,7Zm-19.81-8.06-4.37-6.37,13.43-1.35h2.35q1.85,3.87,3.7,7.72Zm-4.7-7.05H713l-3.69-4,14.43-3.7h1.35q1.68,2.69,3.35,5.37c.12.34.23.68.34,1Zm-4.7-4.7-3-4.7-.67-.67L719.41,340c2.26.5,3.75,3.31,4.36,5.37l.68.67Zm-4.37-6-3-6c6,.14,12.84.54,17.79,1.68Zm-6.71-9.4c5.52.72,11.58,1.25,15.78,2.69C708.72,339,699.58,336.6,697.59,334.29Zm-4.37-4.7,13.1.33q1.5,1.86,3,3.7l.33,1C702.39,334.09,696.48,334.17,693.22,329.59Zm1.34,3,.68.67-13.1-.33-3-4.37C684.88,328.67,692.68,328.35,694.56,332.61Zm-3-4-13.09-.67-2.69-5,12.76,1,2.35,3.69.67.68Zm-16.11-6.38c-.79-2.24-1.57-4.47-2.35-6.71l12.75,2.35q1.35,2.69,2.69,5.37Zm-2.69-7.38c-.78-1.57-1.57-3.14-2.35-4.7l6.38-.34h6.38l2,7.05ZM668,308.1h-.67l11.75-2.35a3.45,3.45,0,0,1,2.35,2.35l1,1C678.23,309.21,670.55,310.05,668,308.1Zm.34,1v.33l-12.76,4.37-2-1.68-.33-1,12.42-3Zm-13.77,5-12.76,1.68-1.68-2-.33-1,10.41-1.34h2.35c.22.45.44.89.67,1.34Zm-14.44,1,.68.67-12.43-.67-2-3,12.76.67C639.5,313.59,639.84,314.37,640.17,315.15Zm-12.75,0c-3.51-.76-9.1-2.44-12.09-1.68l-2-2.35,12.09,1C626.07,313.14,626.74,314.15,627.42,315.15Zm-10.08-.67,1.35,6.38v.34l-13.77,2c-.45-1.68-.89-3.36-1.34-5C606.08,316,613.23,314.46,617.34,314.48Zm-3.35-.34-10.75,3c-.45-1.91-.89-3.81-1.34-5.71L614,313.81Zm-11.42,2.69v.34l-13.43,3.35c-.34-1.9-.67-3.8-1-5.7v-.34l12.76-3Zm-14.1,2.69v1l-13.1.68c-.22-2-.44-4-.67-6.05l12.76-.33C587.8,316.38,588.13,318,588.47,319.52ZM575,321.87c.33,1.56.67,3.13,1,4.7l-13.1-.34c-.33-1.56-.67-3.13-1-4.7Zm-.34-.67-12.76-.34c-.33-2-.67-4-1-6l13.09.67c.23,1.56.45,3.13.67,4.7Zm-13.43.33c.23,1.46.45,2.91.67,4.37l-13.09-1.35c-.22-1.12-.45-2.24-.67-3.35Zm-13.09-1.34c-.22-1.57-.45-3.14-.67-4.7v-.34l12.76-.33c.22,2,.44,4,.67,6Zm0,4.36-13.09-3c-.23-.78-.45-1.57-.68-2.35l13.1,1.68C547.73,322.09,548,323.32,548.18,324.55Zm-13.77-6-.33-4,12.76.67c.22,1.68.44,3.36.67,5Zm.34,6.71v.34L521,326.9v-7.38l13.1,2.35Zm0,1.35q.16,2.85.34,5.71l-13.43,1h-.34q-.17-2.85-.34-5.71Zm-13.43,30.55-15.11,2.69v-8.4l14.77-2C521.1,352,521.21,354.55,521.32,357.12Zm-15.44-29.55-13.43-1,.33-4.37,13.43-.67Zm-10.41-6h-2.69c.11-1,.23-2,.34-3l12.08-3.36h1v5.37Zm-3-3.69h-13.1c.23-1.23.45-2.46.67-3.7,1.8-1.65,9.59-.78,12.76-.67Zm0,.67c-.12,1-.23,2-.34,3l-13.43.34c.22-.79.45-1.57.67-2.35C481.17,317.84,489.32,318.4,492.45,318.51Zm-13.77-.67-12.76-1.34-.33-.34c.22-1.57.44-3.13.67-4.7l12.76,2C478.9,314.93,478.79,316.38,478.68,317.84Zm-13.77-1.68-13.09-1.34c.22-1.46.45-2.91.67-4.37l13.1,1C465.36,313,465.14,314.59,464.91,316.16Zm-.33.67c-.22,1.34-.45,2.69-.67,4l-13.43-.67c.33-1.57.67-3.14,1-4.7Zm-13.77-2.69c-2.18,2-9.58.95-12.75,1.68.33-1.34.67-2.68,1-4,2.39-2.14,9.13-.15,12.42-1.34C451.26,311.68,451,312.91,450.81,314.14Zm-2,1.35h2c-.33,1.56-.67,3.13-1,4.7l-10.75,1h-2.35c.34-1.35.67-2.69,1-4C439.86,315.17,445.8,316.56,448.8,315.49Zm-11.42,0-13.09,1c.45-1.24.89-2.47,1.34-3.7l12.09-1.68C438.43,311.87,437.63,313.64,437.38,315.49Zm-13.76,1-13.1.33,1.35-2c1.86-1.85,7-.71,9.73-1.68h3C424.29,314.26,424,315.38,423.62,316.5Zm-13.77.33H396.76l1.68-3.69,12.76,1Zm-11.75-4.36L385,310.79l1.68-5.71,12.75.34Q398.78,308.94,398.1,312.47ZM386,305.75c-.56,1.68-1.11,3.36-1.67,5l-12.76,1,2-4.36,10.41-2h2Zm-13.09,2-2.35,4-12.09,1.35,2-5.71h12.42Zm-5,5h2.69l-2,5c-1.89,1.92-9.33,2.36-12.43,2.68.67-2.12,1.35-4.25,2-6.38Zm-.33,6.38a4,4,0,0,1,.91,2.33c2.36-4.42,3.78-.69,11.18-3.34h2v.34L380,322.2l-13.09,3c.24-.67.47-1.26.69-1.8-2.76,2.73-11.19,3.47-14.12,4.15l2-6Zm-12.76,2.69-2,5.7-13.1,1q1.19-3.18,2.35-6.38l9.4-.67h3.36ZM339,328.58l-13.09.67c.78-2,1.56-4,2.35-6l12.08-1h1C340.58,324.33,339.79,326.46,339,328.58Zm-11.42-5q-1.17,2.85-2.35,5.7H311.81q1.35-3.18,2.69-6.38l13.09.34Zm-3,6.71c-.78,1.34-1.56,2.69-2.35,4-3.09,1.44-9.83.76-14.1.67l3.36-5Zm-3.69,5.37-3,3.7-13.77.33,3.36-4Zm-14.77,4.7c-.11.56-.23,1.12-.34,1.68H300.4v-.33l2.69-1.35Zm-4.7.34L298.72,342l-4.7-1,4.7-.67h2.69Zm4.36,2c-.78,2.58-1.57,5.15-2.35,7.73v.67l-14.44.33q1.18-4.7,2.35-9.4C296.27,342.23,300.29,342.75,305.77,342.68Zm-5.37,9.07h2.69v.33l-3.36,7.39L285,360.81l3.69-8.39ZM297,360.48h1.68l-2.69,4c-3.35,2.26-10.91,2.18-15.78,2.68v-.33l3.36-4.37C287.1,360.79,293.08,362,297,360.48Zm-3.36,6L290,372.9l-15.11,1.34,3.36-5C282,366.71,288.93,368.3,293.68,366.52Zm-7.05,7.39H289c-4.47,4.48-10.59,6.18-19.47,6.38C275,372.69,277.79,377.19,286.63,373.91Zm-5.37,5.71h2.35l-4,7.72-16.45-2-.33-.67,5.37-3.36Zm-2.68,8.72-5.38,4.37c-4.76,1.59-12.79-2.28-18.13-2.69v-.33l6.05-4Zm-6.38,5.38c-4.92,6.69-13.5,7.73-21.83,11.08q2-7.05,4-14.11Zm-7.39,7h1q-2,6.89-4,13.76l-16.45,3.36q2.34-5.88,4.7-11.75Zm-4.36,14.77h1q-2.52,5.7-5,11.42L239,429l5.37-9.74ZM254.07,428h1.68L250,437.7,231.91,439l5.71-8.39C242,428.46,249.24,429.86,254.07,428Zm-6.38,10.75H249q-3.36,4.19-6.71,8.39l-18.47,1,6.38-7.39Zm-9.4,9.4h2.35v.33l-7.39,5-18.8.67v-.34l8.73-4.7Zm-7.73,6.38-8.05,5-19.81-1v-.34l9.06-3Zm-8.72,5.7v.34q-2.7,9.23-5.38,18.47l-20.81.67q2.52-10.25,5-20.48ZM213.44,480h2.69l-7,17.46-21.16.67L195,480.67Zm-7.38,18.13h2.68v.34l-8.06,14.44-22.16.67,9.07-14.78ZM194.3,513.91h5.38l-9.4,12.76c-2.06,1.88-18.65,1.4-22.84,1.68l9.07-12.42C180.72,513.14,188.78,516,194.3,513.91Zm-7.05,14.44h1.68c-7.71,10.43-16,13.32-33.91,13.43l11.42-12.42Zm-17.12,13.09h2.69v.34c-10.33,2.37-20.6,7.68-32.57,9.4v-.33l13.09-7.73Zm-12.42,6.72h1.34L150,570c-.8,1.47-24.31-3.47-28.88-3.69l16.12-13.43Zm2.35-.34,25.85,2.69h.67l-9.4,21.15L151,571Zm27.86,2.69,25.52,1.34v.34l-9.06,19.14-25.86.33Q183.23,561.09,187.92,550.51Zm26.86,1.34H240q-4,10.41-8.06,20.82l-26.53-1.34Q210.09,561.6,214.78,551.85Zm26.19,0,20.15-.33h4.7L259.1,573H232.91Q236.95,562.43,241,551.85Zm26.19-.33H292v.33q-3,10.24-6.05,20.48l-25.85.67Zm25.85,0,23.84-1.35c1.43,1-4.44,15.45-5.37,18.81l-24.17,3.69H287Q290,562.1,293,551.52Zm25.86-1,26.18,3.36q-3.18,7.05-6.38,14.1l-26.18.67Q315.67,559.58,318.87,550.51Zm27.53,3.36,20.14-1h4.37l-5,15.78-26.19-.34Zm25.51-1,22.16-3h2.35q-1.68,9.39-3.35,18.8H366.88Q369.4,560.75,371.91,552.86Zm25.86-3.36H423l-3,18.13L394.07,569Q395.92,559.25,397.77,549.5Zm0-1q1.67-9.07,3.35-18.14l24.51,3.7.34.33q-1.52,6.72-3,13.43C421.11,549.46,402,548.58,397.77,548.5Zm29.54-14.11,23.84,5.38c1.69,2-.95,10.19-1.34,13.43l-25.18-4.37-.34-.33Q425.81,541.45,427.31,534.39Zm.34-.67q1.34-6.37,2.68-12.76l23.51,4-1.68,13.77ZM431,520.29l-.33-.33q1.17-6.72,2.35-13.43l22.49,3,.34.33-1.68,14.44Zm25.86-10.41,22.49,2-1,14.44-23.16-2Zm22.49,17.46,23.17-.33q-.16,5.87-.34,11.75l-23.84,1.68Q478.85,533.89,479.35,527.34Zm23.5,23.51,25.18-1q.18,11.25.34,22.49L502.52,565ZM527.7,525l23.5-1.68q.67,5.88,1.34,11.76v.33l-24.17,1.68Q528,531,527.7,525Zm24.51-1.68h23.16c.79,2.69,1.57,5.38,2.36,8.06v.34l-24.18,3.36Q552.88,529.19,552.21,523.31Zm24.17,0,23.17.34q1.51,5.7,3,11.42v.33l-22.83-3.69C577.8,530.43,577.17,525.64,576.38,523.31Zm26.86,13.43,3.69,9.74-25.51,4q-1-8.73-2-17.46Zm4,10.75q1,12.42,2,24.84v1L583.1,575l-1.68-23.5Zm1,0,24.84,1.34q1.85,10.57,3.7,21.15l-26.19,3.36h-.34Zm26.19,1.68L659,551.85,664.35,568v.33l-26.53,2Q636.14,559.74,634.47,549.17ZM660,551.85l25.18.34q3.2,7.89,6.38,15.78H665.35Zm26.19,0,23.84-2h2l7.05,17.46-26.52.67Q689.36,559.92,686.17,551.85Zm26.86-2,24.85,1q4,8.55,8,17.12l-25.85-.67Zm26.19,1,24.51,1.34,10.07,13.43L746.94,568Q743.09,559.41,739.22,550.85Zm25.52,1.34,23.16-.34h1.68l9.74,13.77,1,1V567l-25.18-1.34Zm26.52-.34,24.84.34,10.41,17.12-24.51-2Zm25.85.34h25.18l11.08,16.45c.11.34.23.67.34,1l-26.19-.34Zm25.18-1.34-13.09-8.73,23.5.33,14.1,8.06ZM841,528.35h22.83l7.39,8.06,5,5H852.7Zm7,9.74,3,3v.33l-23.16-.33q-5.55-6.37-11.08-12.76h22.49Zm-31.9-10.75L807,513.24l22.16.34,9.73,14.1Zm-9.73-15.11L799,496.45l20.82,1.35q4.19,7.05,8.39,14.1c.11.33.22.67.34,1Zm7.38-32.9,21.16.34,7.38,17.12-21.82.34Zm20.48-.67H813.42l-6-17.46,20.49.34,6.37,16.78Zm-26.86-18.13-9.4-7c13.81-.15,22.48.13,28.54,7.39ZM797,452.47l-8.06-7.38,9.4-.34h9.4l4.37,3.69,4,4.37Zm-9.07-8.39-7-9.07,14.77-1h4.7l6,9.06.67.67Zm-7.72-9.74q-3-5.2-6-10.41l16.78-1.34h1.68L799,432c.11.34.22.67.34,1Zm-6.72-11.41q-2.34-6-4.7-12.09c6.33.94,17,2,19.48,7.05l4,4Zm10.75-9.74-16.12-3.36q-2.52-5.2-5-10.41c10.64,4.7,14.79,4.07,21.15,13.43ZM757.35,391c8.79,2.64,15.45,6,20.14,12.76C767.6,399.44,763,400.06,757.35,391Zm-6-8.39c8.42,3.67,16,4.07,19.47,12.76C762.21,391.56,756.12,390.2,751.31,382.64Zm-6-5.71,15.11,1,5,8.73C757.84,384.38,750,382.1,745.26,376.93Zm-.67-1-5-5.71,15.11,1.68,5,5.38Zm-5.71-6.71-4.36-7c6.18,2,14.82,1.41,17.46,7l1.68,1.68Zm-4.7-7.73q-2-3.69-4-7.38c8.49,1.3,14.69,3.88,18.13,10.41Zm-8.39-14.77c7.54,3.3,13.58,3.42,17.46,10.41C735.27,353.78,729.73,354.13,725.79,346.71ZM721.42,340c7.06,2.64,14,3.06,16.79,10.07C730.44,347.12,725.52,346.61,721.42,340Zm1-.67c4.78.19,8.2.94,10.41,3.69Zm-10.07-3.7c7.22-.19,13.15-.38,16.11,3.7C723.1,337.81,716.17,338.57,712.36,335.63Zm-1.68-1-3.36-4.71,13.43.34,3,3.69c.12.34.23.68.34,1ZM707,329.25l-3.36-4.7a58.57,58.57,0,0,1,15.78,4.37c.11.22.22.45.34.67Zm-1.68-.67.67.67-13.43-.67-2.69-4.36,12.43.33A7.06,7.06,0,0,1,705.31,328.58Zm-15.78-5.37q-1.51-2.68-3-5.37l12.42.67,3,4c.11.33.22.67.34,1Zm9.4-5.37-12.76-.67c-.78-2.47-1.57-4.93-2.35-7.39l12.76.34c.78,2.46,1.57,4.92,2.35,7.38Zm-15.45-8.73-2.68-3.36,12.09-1.68c1.59,1.1,2.54,3.54,3.35,5.37Zm-5.7-5.71,11.75.34C686,305.41,679.71,305,677.78,303.4Zm1,1.34-12.42,2.69-1.68-1-.33-.67,11.75-2.35ZM665,307.09l.33.68-11.75,2.68c-1.7-.38-1.84-.89-2.35-2.35l-.67-.67,12.09-1.68Zm-13.77,3c.23.22.45.44.67.67l-13.09.67-1.34-3.36,3.36-.67h8.72Zm-13.09.67.33,1-12.42-.33-1.68-4.37,12.43.68Zm-12.76.67-12.42-1q-.68-2.52-1.34-5l12.08,1.67Zm-12.09,1,.68.67-12.43-2.69c-.33-1.12-.67-2.24-1-3.36C604,308.41,611.55,309.39,613.31,312.47Zm-12.42-1.68-12.76,3c-.44-1.9-.89-3.81-1.34-5.71l9.74-1h3.35C600.22,308.33,600.56,309.56,600.89,310.79Zm-13.76,2v1l-12.76.67c-.34-1.34-.67-2.69-1-4l10.74-2h2C586.45,309.89,586.79,311.35,587.13,312.8Zm-13.43,1.34v.34l-12.76-.34c-.23-1.45-.45-2.9-.67-4.36l12.42.67C573,311.68,573.36,312.91,573.7,314.14Zm-13.43-5c-.34-1.46-.68-2.91-1-4.37l12.42,1.68.67,3Zm-.68.67.68,4v.33l-12.76.34q-.35-2.85-.67-5.71Zm-.33-1-12.42-.67c-.12-1.34-.23-2.68-.34-4l12.09.67c.22,1,.45,2,.67,3Zm-12.42,5.37v.34l-12.09-1c-1-1-1.11-3.32-1-5.37C542.42,307.75,545.19,306.63,546.84,314.14Zm-.68-6.37-11.75-.34-.67-1-.33-2,12.08-.34c.23,1.12.45,2.24.67,3.36Zm-12.42,10.4-13.09-3v-3l12.42,2C533.29,315.49,533.52,316.83,533.74,318.17Zm0,1c.11.67.23,1.34.34,2L521,318.85l-.33-3ZM521,341.34v7.05l-14.77,2.35c.11-3.58.23-7.16.34-10.74Zm-27.86-23.5.33-4.37,12.43-4,.33,4.7Zm-.34-5H480c.12-1.79.23-3.58.34-5.37l12.76-.67C493,308.77,492.89,310.79,492.78,312.8ZM480,306.42l-9.73-1.68h10.07C480.25,305.3,480.14,305.86,480,306.42Zm-.33.67c-.11,1.91-.23,3.81-.34,5.71l-13.09-2c.22-1.9.45-3.81.67-5.71Zm-14.1,3.7-12.76-1c.22-1.79.45-3.58.67-5.37l12.76.67C466,307,465.81,308.89,465.59,310.79Zm-37.94-3.36,1-2.35,10.41-.34h1.68C439.07,307.06,431.25,307.34,427.65,307.43Zm11.08-.67h1c-2,5.48-7.54,4-13.43,5.37H426c.33-1.23.67-2.46,1-3.69Zm-12.43,2c-1.81,4.84-5.46,3.2-10.74,4.37h-3c.45-2,.89-4,1.34-6.05l11.75,1.35h.67Zm-14.43,4.37-13.1-.67,1.35-7.05,12.75,1.34C412.54,308.88,412.2,311,411.87,313.14Zm-24.51-8.73,1.34-1.68,12.76.34v.33C398.14,304.71,392.18,304.5,387.36,304.41Zm-13.1,2c.67-1.56,1.35-3.13,2-4.7l12.08.67C386.17,305.28,378.77,306.12,374.26,306.42Zm-.67-.67c-1.4,2-9.48,1.13-12.76,1q1.19-2.36,2.35-4.7l11.08-.34C375.61,302.53,374.63,304.42,373.59,305.75Zm-13.43,1-12.42-.34v-.33l1.68-2.69c3.07-1.4,8.6,0,12.09-1.34C362.23,303.08,361,305.25,360.16,306.76Zm-.33.67v.34q-1,2.34-2,4.7c-1.4,1.87-10,1.2-12.76,1.34q1-3.36,2-6.72Zm-9.4,6.71h7.05q-1.19,3.36-2.35,6.72l-12.76.67v-.33C345.13,313.58,343.06,316.76,350.43,314.14Zm-8.73,7.39-8.4.67h-4.36l2-9.4,13.1,1.68Q342.87,318,341.7,321.53Zm-13.77.34-12.76.33q1-5,2-10.07l13.09.67Zm-11.08-10.41-9.06-1.68v-.34l9.73-2.35h1Zm-.33.67q-1.18,4.53-2.35,9.07v.67l-13.77-3.7,2-7.05,2.69-1Zm-2.69,10.41c-.9,2.24-1.79,4.48-2.69,6.71L297,326.9q1.51-4.18,3-8.39Zm-3.36,7.38v.34l-2.68,4.37-14.44-1.35,3.36-5.71Zm-3.69,5.71V336c-.64.47-.21,0-.67.67-5.58,4.35-8.68,1.43-17.13,1l3.7-3.7Zm-9.74,3.7-12.42.67v-.67l3-1Zm-6.38,2.35q-1.17,4.86-2.35,9.73l-14.1,1.68h-.33q1.33-6,2.68-12.09Zm-4.36,10.74,1.34.34L284,361.15l-14.44.67,4-8.06Zm-5,9.4h2l-3.7,5-15.11,1.68,4-5.71Zm-5,6.38h2l-3.36,5c-3.28,1.94-11.46,1.11-16.45,1C264.46,367.42,267.38,371.49,276.23,368.2Zm-3.36,7.05c-4.11,5.62-10.83,6.31-20.48,6.38,1.56-2.13,3.13-4.25,4.7-6.38Zm-9.74,6.38h3V382c-5.63,2.14-12.08,5-19.81,5.7v-.33l5-4.7Zm-5.37,4.7h1v.34c-5.78,2.48-12.53,5.29-19.14,7.72C245,387,249.35,390,257.76,386.33Zm-4.7,4.36L249.7,404.8l-16.79,2.35,5-11.42Zm-5,15.11h1l-4.7,12.09-17.46,1q2.85-5.55,5.71-11.08Zm-9.4,13.1h5v.33L238.29,429H220.16l6-8.73C228.58,418.1,235.35,420.08,238.62,418.9ZM237.28,430l-5.71,8.39c-3.58,2-13.68.4-19.47.34l7.05-8.73Zm-7.39,10.07-4.7,5.71c-4.8,3.64-14,1.64-22.16,1l8.06-7.38Zm-9.06,9.06v.34l-8.4,4.7-19.47-3,8.06-3.36Zm-11.42,5.38c.11.22.23.44.34.67l-27.87,7.72,8.4-11.08Zm-10.07,4.7q-2.35,10.23-4.7,20.48L174.83,483q3.19-9.56,6.38-19.13ZM194,480.67q-1.51,3.7-3,7.39-2,5-4,10.07l-20.82,1,8.06-14.77Zm-8.4,18.13h1l-9.06,14.78-21.83.67c2.15-3.93,6.49-12,10.41-14.1Zm-17.45,15.78h8.39l-10.07,13.77-22.16.67L155,515.26Zm-8.73,14.78h5.7l-11.75,12.76-22.16,2L143.27,530ZM131.86,544.8l18.8-1.68c0,.87-1.33,1-3,2l-11.08,7.05-20.48,4.7C119,553.19,126.8,545.82,131.86,544.8Zm2.35,8.73-7.73,7.05c-7.24,5.62-16.84,8.29-27.53,10.75l15.11-13.1ZM118.09,567.3h1L109,592.14l-31.56-6.38,19.81-13.09Zm2,0,29.21,4.7q-5.19,11.75-10.4,23.5l-28.88-3Q115.07,579.88,120.1,567.3Zm30.56,4.7,26.19.67q-5.39,11.07-10.75,22.16l-25.85.67Zm27.19.67,15.11-.34H203.7l-11.07,19.14-25.19,3Zm26.86-.34,26.53,1.35V574q-4.71,9.74-9.4,19.47c-2,1.55-23.27-1.81-28.21-2Q199.18,581.9,204.71,572.33ZM232.24,574h26.19v.34q-4,10.41-8.06,20.81l-27.53-1Q227.55,584.08,232.24,574Zm27.53,0,22.16-.33h3.36V574q-3.69,10.41-7.39,20.82l-26.52.33Q255.58,584.59,259.77,574Zm26.53-.33,23.16-3.7h1.68q-3.34,10.41-6.71,20.82l-25.18,3.69Zm25.85-4,25.52-.67q-3.19,7.88-6.38,15.78l-24.18,5.7h-1.34Q309,580.06,312.15,569.65Zm27.2-.67,25.85.67V570l-5.71,16.12-27.19-1Zm27.19.67,26.19.33q-2.19,8.73-4.37,17.46l-27.53-1.34Q363.7,577.88,366.54,569.65Zm27.2.33,25.18-1.34c1.25,1.61-2.15,15.41-2.69,18.8l-26.86.34Q391.56,578.89,393.74,570Zm27.19-.67c1.78-1.65,12.21-1.11,14.77-.33h11.08q-1.17,8.06-2.35,16.11l-26.86,2.35Zm0-1.68q1.51-9.06,3-18.13l25.52,4.7q-1.17,6.88-2.35,13.77Zm29.55-13.09,16.45.67h8.73q-.68,5.7-1.34,11.42l-26.19,1Q449.3,561.09,450.48,554.54Zm.33-1q1-6.71,2-13.43L477,541.44q-.5,6.39-1,12.76Zm2.35-14.44q1-6.54,2-13.09c1.55-1.3,19.59.83,23.16,1.34q-.49,6.55-1,13.1Zm25.18,3c3.14-2.81,18-.55,22.84-2.35h1l-.33,2.35v7.72l-24.51,4.36Q477.84,548.16,478.34,542.12ZM502.52,566l25.85,7.39q.33,10.74.67,21.49l-26.86-4.37Q502.35,578.2,502.52,566Zm25.85-27.86,24.17-1.68,1.35,15.11L529,548.83Zm.67,11.75,25.18,2.68q.51,11.25,1,22.5l-25.52-2.35q-.33-9.9-.67-19.81Zm24.51-13.43,24.51-3.69q1,8.89,2,17.79l-24.85,1Zm26.86,15.11,1.68,23.83H556.57q-.66-11.4-1.34-22.83Zm1.68,24.84q1.17,10.57,2.35,21.15l-26.52-.67-1.35-20.48Zm1.34,0,25.18-2c2.4,2.19,2.61,17.21,3.7,21.49v1l-26.53.67Q584.61,586.94,583.43,576.36Zm27.2-2,26.19-3,3.69,24.51-26.86,1Q612.14,585.59,610.63,574.35Zm27.53-3,26.52-2q1.85,12.93,3.7,25.85l-26.86.68ZM665.69,569h26.19q2.18,13.26,4.36,26.52l-26.52-.34Q667.71,582.08,665.69,569Zm27.2,0,26.52-.68q2.36,13.61,4.7,27.2H697.25Q695.08,582.24,692.89,569Zm27.53-.34v-.34l25.85.68q3.19,12.24,6.38,24.5v.34l-27.53,1.68Q722.76,582.07,720.42,568.64Zm27.19.34,25.85-2.35c2.43,1.22,6.45,22,7.73,26.18l-27.2,1Q750.81,581.4,747.61,569Zm28.2-2.35L801,568q4,12.25,8,24.51v.33H782.19Q779,579.72,775.81,566.63Zm26.53,1.67,24.51,2,10.41,21.82v.34l-26.86.33Q806.37,580.56,802.34,568.3Zm26.19,2,25.85.33,11.08,20.48v.34l-27.2.67Zm27.19.33L881.91,569,894,590.46v.34l-27.2.67ZM883.59,569l25.18-2.69h2.35l12.42,23.17-27.86,1.34Zm53.72-5c-2,.9-23.06,2.1-25.85,1L895.68,553.2l24.17.67Zm-20.15-11.42h-7.72c-9.93,0-16.93-1.19-22.56-4.28a48.06,48.06,0,0,1,5.1,4c-17.4-2.22-26.73-.82-37.27-9.74,15-.08,22.7.33,30,4.48a29.73,29.73,0,0,1-4.86-4.14h-.68l11.08-.67C903.84,542,910.79,545.75,917.16,552.52ZM898,538.09l3,3-23.84.33-11.75-13.09,13.09-.67h9.74ZM873.52,511.9h3.35L887,526l.67.67-23.17.67-10.74-14.1ZM862.1,526.34l1,1-22.83.34-10.07-14.1,21.48-.34C855.21,514.94,860.56,522.7,862.1,526.34ZM851.36,511.9l.67.67-22.16.34q-4.53-7.56-9.07-15.11l15.11-.34H843Zm15.11-18.13-23.17,2.68q-3.69-8.22-7.39-16.45l22.5-4.36q4,8.89,8.06,17.79ZM858.07,474c.11.34.23.67.34,1l-23.17,3.69q-3.18-8.4-6.38-16.79v-.33l18.47-1.35h2.35Zm-9.4-14.77-20.81,1.34-9.07-7h19.47Zm-11.41-6.38H817.78q-4-3.87-8.06-7.72h-.67l17.46-1.35h1.68Zm-9.74-10.75.34,1-19.81.67-7-10.07,15.44-1.34h4ZM818.12,430l1.34,1.34L800.66,433l-6.72-10.41,17.8.34Zm-8.06-8.4H792.94l-6.38-7.05C797.53,414.43,805.44,415.36,810.06,421.58ZM802,414.17l.68,0H802v0l-16.1-.64-6-8.4C789.85,405.94,798.5,406.78,802,414.17Zm-8-9,1,1c-10.1-.8-18.08-1.48-21.49-9.07l15.11,2Zm-6-7.05-15.44-2L767.09,388C776.52,391.12,782.7,391,787.9,398.08ZM779.84,389l1.35,1.34L767.09,387c-2.37-1.34-4.17-5.94-5.38-8.39C768.86,380.42,777.06,382.67,779.84,389Zm-4.7-6.72c-7.42-2.88-14.7-4.24-19.13-10.07l14.77,1.68Zm-6-10.07.67.67c-9.36-.3-15.56-1.59-19.47-7.39l14.77,1Zm-5.37-7.72.33,1-14.77-1-4.36-6.38,14.43,1.34ZM758,357.79l.67.67-14.1-1-4.36-6L754,352.76A11,11,0,0,1,758,357.79Zm-5-6.71.68.67-14.44-1.34-3.69-6.05L749,345.71ZM748.62,345c-7.1-.86-13.49-.87-17.46-4.7C739.66,340.21,744.55,341,748.62,345Zm-7-6.71,1.68,1.68c-7.49.07-13.45-.39-17.13-4h13.43C740.23,336.75,740.9,337.54,741.57,338.32Zm-4-3.69-12.09.33-3.69-4.36Zm-4.36-2.35c-5.25-.82-12.26-2-15.11-5.38C724.6,328.72,729.15,328.35,733.18,332.28Zm-7.39-9.41,2.68,4.37.68.67c-7.26-.57-12.83-1.29-15.45-6.71Zm-10.07,3-12.09-2.35c-1.56-.9-2.57-3.09-3.36-4.7l12.42,2Zm-3.36-5.71c-10.81-3-11.28.62-15.11-10.07l11.75,3Zm-3.36-8.4v.34l-12.09-2.69-2.68-5.37,12.42,1.68C707.43,307.77,708.22,309.78,709,311.79Zm-4.7-8.05,10.41-1.35c2,.73,3.14,3.64,3.69,5.71l-14.1-4Zm0,1-6.38-1C700.59,303.64,702.85,303.7,704.3,304.74Zm-3.69-2c-2.88,1.25-10.8.56-12.76-.67C692.14,302,697.34,301.84,700.61,302.73Zm-13.77-.34c-2.89,1.31-10.56.54-12.08-1Zm-14.77-1,3,1,.34.68-12.43,2-2-3Zm-19.81.67H660l2.35,3-12.42,1.34-1.68-3.69Zm-4.7.33,1.68,4-12.42.34-1.35-5Zm-13.09-1c.56,1.68,1.12,3.35,1.67,5v.34l-12.08-.34-1.35-6.71ZM610.29,297,622,299.71l1.35,6v.34l-11.75-1.35Zm.67,8.4,1.35,4.7-12.09-3.7q-.68-2.34-1.34-4.7Zm-13.43-3.7c1,.86,1.39,2.46,1.68,4v.34l-12.42,1.34c-.45-1.12-.9-2.24-1.34-3.36Zm-12.42,3,.67,2.35v.34l-12.42,2c-.34-1-.67-2-1-3v-.33l11.08-1.68Zm-13.76-1.67,11.75-1,1,.67c.12.34.23.67.34,1L572,305.42c-.23-.68-.45-1.35-.67-2Zm-.68,0c.23.78.45,1.56.68,2.35l-12.09-1.35-.67-1.68Zm-12.75-.68c.22.56.44,1.12.67,1.68l-12.43-.67-.33-2ZM533.07,300l11.75,1c.23.67.45,1.34.67,2v.33H533.07Zm.34,13.43-12.76-2c-.11-1-.23-2-.34-3l12.76-.34C533.18,309.89,533.29,311.68,533.41,313.47Zm-.67-6.38-12.43.68v-2l12.43-1.34Zm-12.76-5,12.08-2c.12,1.23.23,2.47.34,3.7l-11.75,1.34h-.34l-.33-2.69Zm-12.76-.67,11.08.67h1v3l-12.09-2Zm12.42,4.36v2l-12.42-4Zm-12.76-1,12.76,3.7v2.68l-12.76-2.35Zm0,4.7,12.43,2.69c.71.71.68,1.16.67,2.69l-13.1-.68Zm0,5.71,12.43.67c.73.73.71,1.45.67,3l-13.1,1.67Zm0,6.38,13.43-2v7.38l-13.43.67Zm-3.35-20.14h3v1.34l-12.43.34C496.23,301.48,500.84,302.38,503.53,301.39Zm-9.41,2.35h11.76l-12.09,2Zm12.09,1v4l-12.76,3.7c.11-2,.23-4,.34-6.05Zm-24.84-1,7.38-1h4.7l-11.75,1.34h-.33Zm11.75.33v1.68l-8.06.67h-4.37c.12-.56.23-1.12.34-1.68Zm-24.51-.67,12.08.34-12.42.33Zm-.67,0c-2,1.52-10.13.5-12.09-.67Zm-19.48-.67h6.72l-12.76,1.34C443.75,302.77,446.47,303.43,448.46,302.73Zm-8.73.34h2.35c-1.57,1.73-9.44,1.39-12.42,1.34C431.9,302.77,436.87,304.1,439.73,303.07Zm-10.74.67c-1.41,1-9.52.65-11.75-.34Zm-1,1.34-1,2.35-12.76-1v-.33l1-1.68Zm-13.09-1-1.34,2-12.76-1.35c.44-.56.89-1.12,1.34-1.67Zm-12.09-2-12.42-.34v-.33c.33-.23.67-.45,1-.67Zm-12.09-1.68c-2.46,2.47-9.84.93-14.1.67l1.68-3.69Zm-13.76-3h.67l-1.68,3.69-12.42.34,2-5Zm-12.42-.67-1.68,4.7-11.75.67c2.86-3.12,8.58-3.22,12.42-5.37Zm-13.1,3.69-1.34,1.68-9.4.67Zm-15.11,3.69,12.43-1.34-1.68,3.36-10.75-1.68Zm10.08,3c-3.41,9.17-4.92,6.21-15.45,5,.79-2.57,1.57-5.15,2.35-7.72Zm-26.53-1.67h1.68l-2,.67Zm12.43-1c-.68,2.57-1.35,5.15-2,7.72l-12.76-.67,1.68-4.7Zm-17.8,2.35,2.69-1h1.68v.34l-4.37,1Zm-13.76,2.35,3-2.35,9.4-.67h1c-3.67,2.29-9.46,2.07-13.43,3.35Zm.33,1h1l-2.69,1Zm-10.41,5,10.08-3.69h.67l-1.68,6-9.07-2Zm-5.7-.67,14.1,3.69c-.34,2.87-1.44,6.6-3,8.4l-14.1-5.37Zm-3.7,7L296,327.24,292.68,333c-4.2-.78-11.79-2.52-14.78-5ZM273.2,333l4-4,14.78,4.7-3.7,3.69-15.11-4Zm-1.34.67,14.77,4c-4.7,4.08-13-1.43-18.8-2ZM266.49,336l13.76,4-17.45,3Zm-4.37,8.73,12.43-3.36h1.34q-1.51,5.54-3,11.08v.67H258.43Zm-4,9.06h14.43v.34c-1.34,2.57-2.68,5.15-4,7.72l-15.1-1Zm-5.38,7.72,15.45,1-4,5.37c-3.75,1.71-12,0-16.45-.67Q250.21,364.34,252.72,361.48Zm-6.38,6.72,16.12,1-5,5-15.44-2-.67-.34Zm-6,4.7,16.12,2v.34l-5,6.38L234.93,381Zm-6,8.73,16.11.67c-4,6.58-11.6,6-21.82,6.38Zm-6.38,7.72,10.74-.33h5c-4.6,6.27-11.92,6.66-21.82,7.72Q224.86,393,227.88,389.35Zm-12.76,17.8,5.37-9.07,16.12-2.35c1.12,1.49-3.53,8.75-4.37,11.42l-17.12.33Zm-6.71,10.74,6-9.74,14.77-.33h2.35v.33q-2.52,5-5,10.08c-3.88,1.47-12.94.09-18.13,0Zm-1,1.34,18.13.34-6.38,9.4-18.8-1Zm-7.72,9.4L218.14,430l-7,8.39-19.81-2.69Zm-9.74,7.73,19.47,3h.67v.33l-5.7,4.37c-3.93,5.28-16-1.14-23.17-1.68-.11-.22-.22-.45-.34-.67Zm-10.41,6.38L200,447.1v.34c-9.36,2.59-17.29,3.37-29.21,4.7Zm-9.4,10.4,17.46-1.34,1.34.34c-8.82,13-10.72,10.59-26.52,15.78Zm-8.39,15.78,17.79-4.7c.89,1.1-4.77,15.37-5.37,18.8L154,485Q157.88,477,161.74,468.92ZM154,486.05l17.13-2h2.35l-8.4,15.11-20.81.67Zm-10.74,14.77,14.44-.67h6.71l-9.73,13.43c-2.48,2.18-17.85,0-22.16,1Zm-11.41,14.44h21.82L143.94,528c-4.69,2.8-16.49,1.47-23.5,1.35Zm-12.43,15.1L137.9,530h4l-12.09,14.1-22.83,1Zm-13.76,15.78,20.48-1h2l-15.44,12.42-21.15,2.69ZM90.22,561.25,111,558.57h1v.33L96.6,572l-21.49,4.7ZM73.44,578l19.47-4.36h.67L75.79,585.43,56,591.13Zm-41.3,30.22-.67-.34,21.82-15.11,21.49-6.38L64.37,614.3Zm33.24,6.38q5.53-14.1,11.08-28.21L108,593.15,95.26,617Zm31.22,2.68,12.76-23.84,28.87,3L125.81,619Zm57.08.67-26.86,1,12.76-22.49,19.47-.67h6.38v.33Zm1.34-.33,11.42-21.49,24.17-3.69H192L180.54,614.3Zm26.53-3.36L193,592.48l27.53,2.68h.67l-10.74,20.15Zm29.88,1.34,11.08-20.48,27.19,1L240,617ZM241.31,617l9.4-20.82,14.77-.33h12.09q-4.2,10.57-8.39,21.15Zm56.4-.34-27.53.34c1.88-4.55,5.85-18.63,9.07-21.15l22.83-3.7h2v.34q-3.18,11.74-6.38,23.5Zm1.35-.33q3-12.26,6-24.51l24.51-5.38h1l-5,26.53Zm27.86-3.7,5-26.52,27.19,1-5.7,20.81Zm28.21-4.7h-.34l5.37-20.81,27.53,1.67q-2.52,9.08-5,18.13Zm28.87-.67,5-17.79v-.68l15.78-.33h11.41q-2,9.22-4,18.46C409.94,609,388.17,606.89,384,607.25Zm29.55.34,3.69-19.14,26.86-2.35q-1.17,11.07-2.35,22.16Zm57.74,3-28.2-2.35q1.17-11.09,2.35-22.16l22.83.67h4.37Zm-25.85-25.52q1.35-7.73,2.69-15.44c.47-.64,0-.21.67-.67L474,567.63q-.68,9.07-1.34,18.13Zm55.4,27.53L473,610.94q.34-12.08.67-24.17l27.54,4.36Q501,601.89,500.84,612.62Zm.34-22.49L474,585.76q.67-9.06,1.34-18.13L501.18,566Zm-25.86-23.5,1.35-11.42,25.18-4.36q-.35,7-.67,14.1Zm27.2,46c-1.25-1.39-.42-17.21-.34-21.15l26.53,4q.49,10.07,1,20.14Zm27.19-38.94L555.23,576l1.68,20.81-26.86-2Q529.89,584.25,529.71,573.68Zm1.35,42q-.34-9.9-.68-19.8l26.53,2,1.68,19.81ZM559.93,618l-2-19.8v-.34l26.86.67q1.34,10.08,2.68,20.15Zm28.87,1q-1.5-10.07-3-20.14v-.34l26.86-.33q1.85,10.39,3.7,20.81Zm28.54,0-3.69-20.81,26.86-1.35q2.36,11.08,4.7,22.16Zm28.88,0q-2.19-11.07-4.37-22.16l23.84-.67h3l5,23.5Zm28.87.67-5.37-23.5,26.86.67q2.85,11.92,5.71,23.84Zm28.2,1-5.7-23.84h26.86q3.18,11.92,6.37,23.84Zm28.88,0-6.72-23.84,25.86-2H753q3.71,12.25,7.39,24.51ZM761.71,619l-7.38-23.84v-.33l22.83-1h4.36l8.73,22.83Zm29.88-2q-4.35-11.58-8.72-23.17h26.85Q815.1,604.4,820.47,615Zm59.1-4.37L822.15,615l-11.42-21.15,10.41-.34h16.79l12.76,18.81Zm1.67,0-13.09-19.14,25.18-1h2l14.1,16.78,1,1Zm30.56-2.68-15.11-17.46,24.84-.67h2l16.45,16.78h.67Zm30.55-1-17.12-17.12,22.16-1.35h5.37L939,607.59l1.68,1.67Zm55.4,1.68L942,609.26l-13.77-16.11-2.68-2.69L946,589.12h7.38q7.23,10.07,14.44,20.14c.34.34.67.68,1,1Z"/></svg>