<?xml version="1.0" encoding="UTF-8"?>
<svg id="Layer_2" data-name="Layer 2" xmlns="http://www.w3.org/2000/svg" viewBox="0 0 499.38 229">
  <defs>
    <style>
      .cls-1 {
        stroke: #fff;
        stroke-miterlimit: 10;
        stroke-width: .75px;
      }
    </style>
  </defs>
  <g id="Layer_1-2" data-name="Layer 1">
    <g>
      <path class="cls-1" d="M119.51,7.13c-2.47-1.68-5.15,1-3.48,3.48,.07,.11,.18,.21,.29,.29,2.47,1.68,5.15-1,3.48-3.48-.07-.11-.18-.21-.29-.29Z"/>
      <path class="cls-1" d="M126.07,7.13c-2.47-1.68-5.15,1-3.48,3.48,.07,.11,.18,.21,.29,.29,2.47,1.68,5.15-1,3.48-3.48-.07-.11-.18-.21-.29-.29Z"/>
      <path class="cls-1" d="M132.63,7.13c-2.47-1.68-5.15,1-3.48,3.48,.07,.11,.18,.21,.29,.29,2.47,1.68,5.15-1,3.48-3.48-.07-.11-.18-.21-.29-.29Z"/>
      <path class="cls-1" d="M139.18,7.13c-2.47-1.68-5.15,1-3.48,3.48,.07,.11,.18,.21,.29,.29,2.47,1.68,5.15-1,3.48-3.48-.07-.11-.18-.21-.29-.29Z"/>
      <path class="cls-1" d="M145.74,7.13c-2.47-1.68-5.15,1-3.48,3.48,.07,.11,.18,.21,.29,.29,2.47,1.68,5.15-1,3.48-3.48-.07-.11-.18-.21-.29-.29Z"/>
      <path class="cls-1" d="M119.51,13.73c-2.47-1.68-5.15,1-3.48,3.48,.07,.11,.18,.21,.29,.29,2.47,1.68,5.15-1,3.48-3.48-.07-.11-.18-.21-.29-.29Z"/>
      <path class="cls-1" d="M126.07,13.73c-2.47-1.68-5.15,1-3.48,3.48,.07,.11,.18,.21,.29,.29,2.47,1.68,5.15-1,3.48-3.48-.07-.11-.18-.21-.29-.29Z"/>
      <path class="cls-1" d="M132.63,13.73c-2.47-1.68-5.15,1-3.48,3.48,.07,.11,.18,.21,.29,.29,2.47,1.68,5.15-1,3.48-3.48-.07-.11-.18-.21-.29-.29Z"/>
      <path class="cls-1" d="M139.18,13.73c-2.47-1.68-5.15,1-3.48,3.48,.07,.11,.18,.21,.29,.29,2.47,1.68,5.15-1,3.48-3.48-.07-.11-.18-.21-.29-.29Z"/>
      <path class="cls-1" d="M145.74,13.73c-2.47-1.68-5.15,1-3.48,3.48,.07,.11,.18,.21,.29,.29,2.47,1.68,5.15-1,3.48-3.48-.07-.11-.18-.21-.29-.29Z"/>
      <path class="cls-1" d="M119.51,20.33c-2.47-1.68-5.15,1-3.48,3.48,.07,.11,.18,.21,.29,.29,2.47,1.68,5.15-1,3.48-3.48-.07-.11-.18-.21-.29-.29Z"/>
      <path class="cls-1" d="M126.07,20.33c-2.47-1.68-5.15,1-3.48,3.48,.07,.11,.18,.21,.29,.29,2.47,1.68,5.15-1,3.48-3.48-.07-.11-.18-.21-.29-.29Z"/>
      <path class="cls-1" d="M132.63,20.33c-2.47-1.68-5.15,1-3.48,3.48,.07,.11,.18,.21,.29,.29,2.47,1.68,5.15-1,3.48-3.48-.07-.11-.18-.21-.29-.29Z"/>
      <path class="cls-1" d="M139.18,20.33c-2.47-1.68-5.15,1-3.48,3.48,.07,.11,.18,.21,.29,.29,2.47,1.68,5.15-1,3.48-3.48-.07-.11-.18-.21-.29-.29Z"/>
      <path class="cls-1" d="M145.74,20.33c-2.47-1.68-5.15,1-3.48,3.48,.07,.11,.18,.21,.29,.29,2.47,1.68,5.15-1,3.48-3.48-.07-.11-.18-.21-.29-.29Z"/>
      <path class="cls-1" d="M119.51,26.94c-2.47-1.68-5.15,1-3.48,3.48,.07,.11,.18,.21,.29,.29,2.47,1.68,5.15-1,3.48-3.48-.07-.11-.18-.21-.29-.29Z"/>
      <path class="cls-1" d="M126.07,26.94c-2.47-1.68-5.15,1-3.48,3.48,.07,.11,.18,.21,.29,.29,2.47,1.68,5.15-1,3.48-3.48-.07-.11-.18-.21-.29-.29Z"/>
      <path class="cls-1" d="M132.63,26.94c-2.47-1.68-5.15,1-3.48,3.48,.07,.11,.18,.21,.29,.29,2.47,1.68,5.15-1,3.48-3.48-.07-.11-.18-.21-.29-.29Z"/>
      <path class="cls-1" d="M139.18,26.94c-2.47-1.68-5.15,1-3.48,3.48,.07,.11,.18,.21,.29,.29,2.47,1.68,5.15-1,3.48-3.48-.07-.11-.18-.21-.29-.29Z"/>
      <path class="cls-1" d="M145.74,26.94c-2.47-1.68-5.15,1-3.48,3.48,.07,.11,.18,.21,.29,.29,2.47,1.68,5.15-1,3.48-3.48-.07-.11-.18-.21-.29-.29Z"/>
      <path class="cls-1" d="M119.51,33.54c-2.47-1.68-5.15,1-3.48,3.48,.07,.11,.18,.21,.29,.29,2.47,1.68,5.15-1,3.48-3.48-.07-.11-.18-.21-.29-.29Z"/>
      <path class="cls-1" d="M126.07,33.54c-2.47-1.68-5.15,1-3.48,3.48,.07,.11,.18,.21,.29,.29,2.47,1.68,5.15-1,3.48-3.48-.07-.11-.18-.21-.29-.29Z"/>
      <path class="cls-1" d="M132.63,33.54c-2.47-1.68-5.15,1-3.48,3.48,.07,.11,.18,.21,.29,.29,2.47,1.68,5.15-1,3.48-3.48-.07-.11-.18-.21-.29-.29Z"/>
      <path class="cls-1" d="M139.18,33.54c-2.47-1.68-5.15,1-3.48,3.48,.07,.11,.18,.21,.29,.29,2.47,1.68,5.15-1,3.48-3.48-.07-.11-.18-.21-.29-.29Z"/>
      <path class="cls-1" d="M145.74,33.54c-2.47-1.68-5.15,1-3.48,3.48,.07,.11,.18,.21,.29,.29,2.47,1.68,5.15-1,3.48-3.48-.07-.11-.18-.21-.29-.29Z"/>
      <path class="cls-1" d="M207.38,7.13c-2.47-1.68-5.15,1-3.48,3.48,.07,.11,.18,.21,.29,.29,2.47,1.68,5.15-1,3.48-3.48-.07-.11-.18-.21-.29-.29Z"/>
      <path class="cls-1" d="M213.94,7.13c-2.47-1.68-5.15,1-3.48,3.48,.07,.11,.18,.21,.29,.29,2.47,1.68,5.15-1,3.48-3.48-.07-.11-.18-.21-.29-.29Z"/>
      <path class="cls-1" d="M220.5,7.13c-2.47-1.68-5.15,1-3.48,3.48,.07,.11,.18,.21,.29,.29,2.47,1.68,5.15-1,3.48-3.48-.07-.11-.18-.21-.29-.29Z"/>
      <path class="cls-1" d="M227.06,7.13c-2.47-1.68-5.15,1-3.48,3.48,.07,.11,.18,.21,.29,.29,2.47,1.68,5.15-1,3.48-3.48-.07-.11-.18-.21-.29-.29Z"/>
      <path class="cls-1" d="M233.61,7.13c-2.47-1.68-5.15,1-3.48,3.48,.07,.11,.18,.21,.29,.29,2.47,1.68,5.15-1,3.48-3.48-.07-.11-.18-.21-.29-.29Z"/>
      <path class="cls-1" d="M207.38,13.73c-2.47-1.68-5.15,1-3.48,3.48,.07,.11,.18,.21,.29,.29,2.47,1.68,5.15-1,3.48-3.48-.07-.11-.18-.21-.29-.29Z"/>
      <path class="cls-1" d="M213.94,13.73c-2.47-1.68-5.15,1-3.48,3.48,.07,.11,.18,.21,.29,.29,2.47,1.68,5.15-1,3.48-3.48-.07-.11-.18-.21-.29-.29Z"/>
      <path class="cls-1" d="M220.5,13.73c-2.47-1.68-5.15,1-3.48,3.48,.07,.11,.18,.21,.29,.29,2.47,1.68,5.15-1,3.48-3.48-.07-.11-.18-.21-.29-.29Z"/>
      <path class="cls-1" d="M227.06,13.73c-2.47-1.68-5.15,1-3.48,3.48,.07,.11,.18,.21,.29,.29,2.47,1.68,5.15-1,3.48-3.48-.07-.11-.18-.21-.29-.29Z"/>
      <path class="cls-1" d="M233.61,13.73c-2.47-1.68-5.15,1-3.48,3.48,.07,.11,.18,.21,.29,.29,2.47,1.68,5.15-1,3.48-3.48-.07-.11-.18-.21-.29-.29Z"/>
      <path class="cls-1" d="M207.38,20.33c-2.47-1.68-5.15,1-3.48,3.48,.07,.11,.18,.21,.29,.29,2.47,1.68,5.15-1,3.48-3.48-.07-.11-.18-.21-.29-.29Z"/>
      <path class="cls-1" d="M213.94,20.33c-2.47-1.68-5.15,1-3.48,3.48,.07,.11,.18,.21,.29,.29,2.47,1.68,5.15-1,3.48-3.48-.07-.11-.18-.21-.29-.29Z"/>
      <path class="cls-1" d="M220.5,20.33c-2.47-1.68-5.15,1-3.48,3.48,.07,.11,.18,.21,.29,.29,2.47,1.68,5.15-1,3.48-3.48-.07-.11-.18-.21-.29-.29Z"/>
      <path class="cls-1" d="M227.06,20.33c-2.47-1.68-5.15,1-3.48,3.48,.07,.11,.18,.21,.29,.29,2.47,1.68,5.15-1,3.48-3.48-.07-.11-.18-.21-.29-.29Z"/>
      <path class="cls-1" d="M233.61,20.33c-2.47-1.68-5.15,1-3.48,3.48,.07,.11,.18,.21,.29,.29,2.47,1.68,5.15-1,3.48-3.48-.07-.11-.18-.21-.29-.29Z"/>
      <path class="cls-1" d="M207.38,26.94c-2.47-1.68-5.15,1-3.48,3.48,.07,.11,.18,.21,.29,.29,2.47,1.68,5.15-1,3.48-3.48-.07-.11-.18-.21-.29-.29Z"/>
      <path class="cls-1" d="M213.94,26.94c-2.47-1.68-5.15,1-3.48,3.48,.07,.11,.18,.21,.29,.29,2.47,1.68,5.15-1,3.48-3.48-.07-.11-.18-.21-.29-.29Z"/>
      <path class="cls-1" d="M220.5,26.94c-2.47-1.68-5.15,1-3.48,3.48,.07,.11,.18,.21,.29,.29,2.47,1.68,5.15-1,3.48-3.48-.07-.11-.18-.21-.29-.29Z"/>
      <path class="cls-1" d="M227.06,26.94c-2.47-1.68-5.15,1-3.48,3.48,.07,.11,.18,.21,.29,.29,2.47,1.68,5.15-1,3.48-3.48-.07-.11-.18-.21-.29-.29Z"/>
      <path class="cls-1" d="M233.61,26.94c-2.47-1.68-5.15,1-3.48,3.48,.07,.11,.18,.21,.29,.29,2.47,1.68,5.15-1,3.48-3.48-.07-.11-.18-.21-.29-.29Z"/>
      <path class="cls-1" d="M207.38,33.54c-2.47-1.68-5.15,1-3.48,3.48,.07,.11,.18,.21,.29,.29,2.47,1.68,5.15-1,3.48-3.48-.07-.11-.18-.21-.29-.29Z"/>
      <path class="cls-1" d="M213.94,33.54c-2.47-1.68-5.15,1-3.48,3.48,.07,.11,.18,.21,.29,.29,2.47,1.68,5.15-1,3.48-3.48-.07-.11-.18-.21-.29-.29Z"/>
      <path class="cls-1" d="M220.5,33.54c-2.47-1.68-5.15,1-3.48,3.48,.07,.11,.18,.21,.29,.29,2.47,1.68,5.15-1,3.48-3.48-.07-.11-.18-.21-.29-.29Z"/>
      <path class="cls-1" d="M227.06,33.54c-2.47-1.68-5.15,1-3.48,3.48,.07,.11,.18,.21,.29,.29,2.47,1.68,5.15-1,3.48-3.48-.07-.11-.18-.21-.29-.29Z"/>
      <path class="cls-1" d="M233.61,33.54c-2.47-1.68-5.15,1-3.48,3.48,.07,.11,.18,.21,.29,.29,2.47,1.68,5.15-1,3.48-3.48-.07-.11-.18-.21-.29-.29Z"/>
      <path class="cls-1" d="M499.01,63.99V22.31c0-.55-.45-1-1-1h-41.68c-.55,0-1,.45-1,1v19.12c0,.45-.3,.85-.74,.97l-126.54,34.29c-.64,.17-1.26-.31-1.26-.97v-18.08c0-.55-.45-1-1-1h-20.35l.06-.12L241.27,21.67c-.32-.17-.52-.51-.52-.88V1.38c0-.55-.45-1-1-1h-41.68c-.55,0-1,.45-1,1V20.05c0,.55-.45,1-1,1h-42.19c-.55,0-1-.45-1-1V1.38c0-.55-.45-1-1-1h-41.68c-.55,0-1,.45-1,1V20.86c0,.34-.18,.67-.47,.85L45.59,61.19c-.67,.42-1.53-.06-1.53-.85v-17.1c0-.55-.45-1-1-1H1.38c-.55,0-1,.45-1,1v41.68c0,.55,.45,1,1,1H43.06c.55,0,1-.45,1-1v-19.48c0-.34,.18-.67,.47-.85L107.66,25.11c.67-.42,1.53,.06,1.53,.85v17.1c0,.55,.45,1,1,1h18.68c.55,0,1,.45,1,1v34.58c0,.55-.45,1-1,1h-18.68c-.55,0-1,.45-1,1v41.68c0,.55,.45,1,1,1h41.68c.55,0,1-.45,1-1v-18.99c0-.48,.35-.9,.82-.98l128.23-23.32c.61-.11,1.18,.36,1.18,.98v18.3c0,.55,.45,1,1,1h41.68c.55,0,1-.45,1-1v-16.43c0-.85,.99-1.31,1.64-.77l79.57,66.46c.72,.6,.29,1.77-.64,1.77h-15.19c-.55,0-1,.45-1,1v41.68c0,.55,.45,1,1,1h41.68c.55,0,1-.45,1-1v-13.89c0-1,1.3-1.38,1.84-.54l18.56,28.83,.07-.05v20.26c0,.55,.45,1,1,1h41.68c.55,0,1-.45,1-1v-41.68c0-.55-.45-1-1-1h-18.94c-.55,0-1-.45-1-1V65.99c0-.55,.45-1,1-1h18.94c.55,0,1-.45,1-1ZM41.25,84.12H3.18c-.55,0-1-.45-1-1V45.06c0-.55,.45-1,1-1H41.25c.55,0,1,.45,1,1v38.06c0,.55-.45,1-1,1ZM199.87,2.18h38.06c.55,0,1,.45,1,1V41.25c0,.55-.45,1-1,1h-38.06c-.55,0-1-.45-1-1V3.18c0-.55,.45-1,1-1Zm-87.87,0h38.06c.55,0,1,.45,1,1V41.25c0,.55-.45,1-1,1h-38.06c-.55,0-1-.45-1-1V3.18c0-.55,.45-1,1-1Zm38.06,120.33h-38.06c-.55,0-1-.45-1-1v-38.06c0-.55,.45-1,1-1h38.06c.55,0,1,.45,1,1v38.06c0,.55-.45,1-1,1Zm2.81-22.58v-18.3c0-.55-.45-1-1-1h-18.68c-.55,0-1-.45-1-1V45.06c0-.55,.45-1,1-1h18.68c.55,0,1-.45,1-1V24.38c0-.55,.45-1,1-1h42.19c.55,0,1,.45,1,1v18.68c0,.55,.45,1,1,1h41.68c.55,0,1-.45,1-1V25.71c0-.76,.81-1.24,1.48-.88l55.16,29.92c.91,.49,.56,1.88-.48,1.88h-12.8c-.55,0-1,.45-1,1v18.99c0,.48-.35,.9-.82,.98l-128.23,23.32c-.61,.11-1.18-.36-1.18-.98Zm171.11-1.43h-38.06c-.55,0-1-.45-1-1V59.44c0-.55,.45-1,1-1h18.26l.22,.12,.06-.12h19.52c.55,0,1,.45,1,1v38.06c0,.55-.45,1-1,1ZM458.14,23.12h38.06c.55,0,1,.45,1,1V62.18c0,.55-.45,1-1,1h-38.06c-.55,0-1-.45-1-1V24.12c0-.55,.45-1,1-1Zm-26.09,169.09h-38.06c-.55,0-1-.45-1-1v-38.06c0-.55,.45-1,1-1h38.06c.55,0,1,.45,1,1v19.61l-.07,.05,.07,.11v18.29c0,.55-.45,1-1,1Zm64.16,34.61h-38.06c-.55,0-1-.45-1-1v-19.61l.07-.05-.07-.11v-18.29c0-.55,.45-1,1-1h38.06c.55,0,1,.45,1,1v38.06c0,.55-.45,1-1,1Zm-20.94-41.87h-18.94c-.55,0-1,.45-1,1v13.89c0,1-1.3,1.38-1.84,.54l-18.56-28.83-.07,.05v-20.26c0-.55-.45-1-1-1h-19.75c-.23,0-.46-.08-.64-.23l-83.65-69.87c-.62-.52-.4-1.52,.38-1.73l123.87-33.57c.64-.17,1.26,.31,1.26,.97v18.08c0,.55,.45,1,1,1h18.94c.55,0,1,.45,1,1v117.95c0,.55-.45,1-1,1Z"/>
      <path class="cls-1" d="M465.65,28.06c-2.47-1.68-5.15,1-3.48,3.48,.07,.11,.18,.21,.29,.29,2.47,1.68,5.15-1,3.48-3.48-.07-.11-.18-.21-.29-.29Z"/>
      <path class="cls-1" d="M472.2,28.06c-2.47-1.68-5.15,1-3.48,3.48,.07,.11,.18,.21,.29,.29,2.47,1.68,5.15-1,3.48-3.48-.07-.11-.18-.21-.29-.29Z"/>
      <path class="cls-1" d="M478.76,28.06c-2.47-1.68-5.15,1-3.48,3.48,.07,.11,.18,.21,.29,.29,2.47,1.68,5.15-1,3.48-3.48-.07-.11-.18-.21-.29-.29Z"/>
      <path class="cls-1" d="M485.32,28.06c-2.47-1.68-5.15,1-3.48,3.48,.07,.11,.18,.21,.29,.29,2.47,1.68,5.15-1,3.48-3.48-.07-.11-.18-.21-.29-.29Z"/>
      <path class="cls-1" d="M491.88,28.06c-2.47-1.68-5.15,1-3.48,3.48,.07,.11,.18,.21,.29,.29,2.47,1.68,5.15-1,3.48-3.48-.07-.11-.18-.21-.29-.29Z"/>
      <path class="cls-1" d="M465.65,34.67c-2.47-1.68-5.15,1-3.48,3.48,.07,.11,.18,.21,.29,.29,2.47,1.68,5.15-1,3.48-3.48-.07-.11-.18-.21-.29-.29Z"/>
      <path class="cls-1" d="M472.2,34.67c-2.47-1.68-5.15,1-3.48,3.48,.07,.11,.18,.21,.29,.29,2.47,1.68,5.15-1,3.48-3.48-.07-.11-.18-.21-.29-.29Z"/>
      <path class="cls-1" d="M478.76,34.67c-2.47-1.68-5.15,1-3.48,3.48,.07,.11,.18,.21,.29,.29,2.47,1.68,5.15-1,3.48-3.48-.07-.11-.18-.21-.29-.29Z"/>
      <path class="cls-1" d="M485.32,34.67c-2.47-1.68-5.15,1-3.48,3.48,.07,.11,.18,.21,.29,.29,2.47,1.68,5.15-1,3.48-3.48-.07-.11-.18-.21-.29-.29Z"/>
      <path class="cls-1" d="M491.88,34.67c-2.47-1.68-5.15,1-3.48,3.48,.07,.11,.18,.21,.29,.29,2.47,1.68,5.15-1,3.48-3.48-.07-.11-.18-.21-.29-.29Z"/>
      <path class="cls-1" d="M465.65,41.27c-2.47-1.68-5.15,1-3.48,3.48,.07,.11,.18,.21,.29,.29,2.47,1.68,5.15-1,3.48-3.48-.07-.11-.18-.21-.29-.29Z"/>
      <path class="cls-1" d="M472.2,41.27c-2.47-1.68-5.15,1-3.48,3.48,.07,.11,.18,.21,.29,.29,2.47,1.68,5.15-1,3.48-3.48-.07-.11-.18-.21-.29-.29Z"/>
      <path class="cls-1" d="M478.76,41.27c-2.47-1.68-5.15,1-3.48,3.48,.07,.11,.18,.21,.29,.29,2.47,1.68,5.15-1,3.48-3.48-.07-.11-.18-.21-.29-.29Z"/>
      <path class="cls-1" d="M485.32,41.27c-2.47-1.68-5.15,1-3.48,3.48,.07,.11,.18,.21,.29,.29,2.47,1.68,5.15-1,3.48-3.48-.07-.11-.18-.21-.29-.29Z"/>
      <path class="cls-1" d="M491.88,41.27c-2.47-1.68-5.15,1-3.48,3.48,.07,.11,.18,.21,.29,.29,2.47,1.68,5.15-1,3.48-3.48-.07-.11-.18-.21-.29-.29Z"/>
      <path class="cls-1" d="M465.65,47.87c-2.47-1.68-5.15,1-3.48,3.48,.07,.11,.18,.21,.29,.29,2.47,1.68,5.15-1,3.48-3.48-.07-.11-.18-.21-.29-.29Z"/>
      <path class="cls-1" d="M472.2,47.87c-2.47-1.68-5.15,1-3.48,3.48,.07,.11,.18,.21,.29,.29,2.47,1.68,5.15-1,3.48-3.48-.07-.11-.18-.21-.29-.29Z"/>
      <path class="cls-1" d="M478.76,47.87c-2.47-1.68-5.15,1-3.48,3.48,.07,.11,.18,.21,.29,.29,2.47,1.68,5.15-1,3.48-3.48-.07-.11-.18-.21-.29-.29Z"/>
      <path class="cls-1" d="M485.32,47.87c-2.47-1.68-5.15,1-3.48,3.48,.07,.11,.18,.21,.29,.29,2.47,1.68,5.15-1,3.48-3.48-.07-.11-.18-.21-.29-.29Z"/>
      <path class="cls-1" d="M491.88,47.87c-2.47-1.68-5.15,1-3.48,3.48,.07,.11,.18,.21,.29,.29,2.47,1.68,5.15-1,3.48-3.48-.07-.11-.18-.21-.29-.29Z"/>
      <path class="cls-1" d="M465.65,54.48c-2.47-1.68-5.15,1-3.48,3.48,.07,.11,.18,.21,.29,.29,2.47,1.68,5.15-1,3.48-3.48-.07-.11-.18-.21-.29-.29Z"/>
      <path class="cls-1" d="M472.2,54.48c-2.47-1.68-5.15,1-3.48,3.48,.07,.11,.18,.21,.29,.29,2.47,1.68,5.15-1,3.48-3.48-.07-.11-.18-.21-.29-.29Z"/>
      <path class="cls-1" d="M478.76,54.48c-2.47-1.68-5.15,1-3.48,3.48,.07,.11,.18,.21,.29,.29,2.47,1.68,5.15-1,3.48-3.48-.07-.11-.18-.21-.29-.29Z"/>
      <path class="cls-1" d="M485.32,54.48c-2.47-1.68-5.15,1-3.48,3.48,.07,.11,.18,.21,.29,.29,2.47,1.68,5.15-1,3.48-3.48-.07-.11-.18-.21-.29-.29Z"/>
      <path class="cls-1" d="M491.88,54.48c-2.47-1.68-5.15,1-3.48,3.48,.07,.11,.18,.21,.29,.29,2.47,1.68,5.15-1,3.48-3.48-.07-.11-.18-.21-.29-.29Z"/>
      <path class="cls-1" d="M462.46,195.46c2.47,1.68,5.15-1,3.48-3.48-.07-.11-.18-.21-.29-.29-2.47-1.68-5.15,1-3.48,3.48,.07,.11,.18,.21,.29,.29Z"/>
      <path class="cls-1" d="M469.02,195.46c2.47,1.68,5.15-1,3.48-3.48-.07-.11-.18-.21-.29-.29-2.47-1.68-5.15,1-3.48,3.48,.07,.11,.18,.21,.29,.29Z"/>
      <path class="cls-1" d="M475.57,195.46c2.47,1.68,5.15-1,3.48-3.48-.07-.11-.18-.21-.29-.29-2.47-1.68-5.15,1-3.48,3.48,.07,.11,.18,.21,.29,.29Z"/>
      <path class="cls-1" d="M482.13,195.46c2.47,1.68,5.15-1,3.48-3.48-.07-.11-.18-.21-.29-.29-2.47-1.68-5.15,1-3.48,3.48,.07,.11,.18,.21,.29,.29Z"/>
      <path class="cls-1" d="M488.69,195.46c2.47,1.68,5.15-1,3.48-3.48-.07-.11-.18-.21-.29-.29-2.47-1.68-5.15,1-3.48,3.48,.07,.11,.18,.21,.29,.29Z"/>
      <path class="cls-1" d="M462.46,202.06c2.47,1.68,5.15-1,3.48-3.48-.07-.11-.18-.21-.29-.29-2.47-1.68-5.15,1-3.48,3.48,.07,.11,.18,.21,.29,.29Z"/>
      <path class="cls-1" d="M469.02,202.06c2.47,1.68,5.15-1,3.48-3.48-.07-.11-.18-.21-.29-.29-2.47-1.68-5.15,1-3.48,3.48,.07,.11,.18,.21,.29,.29Z"/>
      <path class="cls-1" d="M475.57,202.06c2.47,1.68,5.15-1,3.48-3.48-.07-.11-.18-.21-.29-.29-2.47-1.68-5.15,1-3.48,3.48,.07,.11,.18,.21,.29,.29Z"/>
      <path class="cls-1" d="M482.13,202.06c2.47,1.68,5.15-1,3.48-3.48-.07-.11-.18-.21-.29-.29-2.47-1.68-5.15,1-3.48,3.48,.07,.11,.18,.21,.29,.29Z"/>
      <path class="cls-1" d="M488.69,202.06c2.47,1.68,5.15-1,3.48-3.48-.07-.11-.18-.21-.29-.29-2.47-1.68-5.15,1-3.48,3.48,.07,.11,.18,.21,.29,.29Z"/>
      <path class="cls-1" d="M462.46,208.67c2.47,1.68,5.15-1,3.48-3.48-.07-.11-.18-.21-.29-.29-2.47-1.68-5.15,1-3.48,3.48,.07,.11,.18,.21,.29,.29Z"/>
      <path class="cls-1" d="M469.02,208.67c2.47,1.68,5.15-1,3.48-3.48-.07-.11-.18-.21-.29-.29-2.47-1.68-5.15,1-3.48,3.48,.07,.11,.18,.21,.29,.29Z"/>
      <path class="cls-1" d="M475.57,208.67c2.47,1.68,5.15-1,3.48-3.48-.07-.11-.18-.21-.29-.29-2.47-1.68-5.15,1-3.48,3.48,.07,.11,.18,.21,.29,.29Z"/>
      <path class="cls-1" d="M482.13,208.67c2.47,1.68,5.15-1,3.48-3.48-.07-.11-.18-.21-.29-.29-2.47-1.68-5.15,1-3.48,3.48,.07,.11,.18,.21,.29,.29Z"/>
      <path class="cls-1" d="M488.69,208.67c2.47,1.68,5.15-1,3.48-3.48-.07-.11-.18-.21-.29-.29-2.47-1.68-5.15,1-3.48,3.48,.07,.11,.18,.21,.29,.29Z"/>
      <path class="cls-1" d="M462.46,215.27c2.47,1.68,5.15-1,3.48-3.48-.07-.11-.18-.21-.29-.29-2.47-1.68-5.15,1-3.48,3.48,.07,.11,.18,.21,.29,.29Z"/>
      <path class="cls-1" d="M469.02,215.27c2.47,1.68,5.15-1,3.48-3.48-.07-.11-.18-.21-.29-.29-2.47-1.68-5.15,1-3.48,3.48,.07,.11,.18,.21,.29,.29Z"/>
      <path class="cls-1" d="M475.57,215.27c2.47,1.68,5.15-1,3.48-3.48-.07-.11-.18-.21-.29-.29-2.47-1.68-5.15,1-3.48,3.48,.07,.11,.18,.21,.29,.29Z"/>
      <path class="cls-1" d="M482.13,215.27c2.47,1.68,5.15-1,3.48-3.48-.07-.11-.18-.21-.29-.29-2.47-1.68-5.15,1-3.48,3.48,.07,.11,.18,.21,.29,.29Z"/>
      <path class="cls-1" d="M488.69,215.27c2.47,1.68,5.15-1,3.48-3.48-.07-.11-.18-.21-.29-.29-2.47-1.68-5.15,1-3.48,3.48,.07,.11,.18,.21,.29,.29Z"/>
      <path class="cls-1" d="M462.46,221.87c2.47,1.68,5.15-1,3.48-3.48-.07-.11-.18-.21-.29-.29-2.47-1.68-5.15,1-3.48,3.48,.07,.11,.18,.21,.29,.29Z"/>
      <path class="cls-1" d="M469.02,221.87c2.47,1.68,5.15-1,3.48-3.48-.07-.11-.18-.21-.29-.29-2.47-1.68-5.15,1-3.48,3.48,.07,.11,.18,.21,.29,.29Z"/>
      <path class="cls-1" d="M475.57,221.87c2.47,1.68,5.15-1,3.48-3.48-.07-.11-.18-.21-.29-.29-2.47-1.68-5.15,1-3.48,3.48,.07,.11,.18,.21,.29,.29Z"/>
      <path class="cls-1" d="M482.13,221.87c2.47,1.68,5.15-1,3.48-3.48-.07-.11-.18-.21-.29-.29-2.47-1.68-5.15,1-3.48,3.48,.07,.11,.18,.21,.29,.29Z"/>
      <path class="cls-1" d="M488.69,221.87c2.47,1.68,5.15-1,3.48-3.48-.07-.11-.18-.21-.29-.29-2.47-1.68-5.15,1-3.48,3.48,.07,.11,.18,.21,.29,.29Z"/>
      <path class="cls-1" d="M401.49,157.09c-2.47-1.68-5.15,1-3.48,3.48,.07,.11,.18,.21,.29,.29,2.47,1.68,5.15-1,3.48-3.48-.07-.11-.18-.21-.29-.29Z"/>
      <path class="cls-1" d="M408.05,157.09c-2.47-1.68-5.15,1-3.48,3.48,.07,.11,.18,.21,.29,.29,2.47,1.68,5.15-1,3.48-3.48-.07-.11-.18-.21-.29-.29Z"/>
      <path class="cls-1" d="M414.61,157.09c-2.47-1.68-5.15,1-3.48,3.48,.07,.11,.18,.21,.29,.29,2.47,1.68,5.15-1,3.48-3.48-.07-.11-.18-.21-.29-.29Z"/>
      <path class="cls-1" d="M421.16,157.09c-2.47-1.68-5.15,1-3.48,3.48,.07,.11,.18,.21,.29,.29,2.47,1.68,5.15-1,3.48-3.48-.07-.11-.18-.21-.29-.29Z"/>
      <path class="cls-1" d="M427.72,157.09c-2.47-1.68-5.15,1-3.48,3.48,.07,.11,.18,.21,.29,.29,2.47,1.68,5.15-1,3.48-3.48-.07-.11-.18-.21-.29-.29Z"/>
      <path class="cls-1" d="M401.49,163.69c-2.47-1.68-5.15,1-3.48,3.48,.07,.11,.18,.21,.29,.29,2.47,1.68,5.15-1,3.48-3.48-.07-.11-.18-.21-.29-.29Z"/>
      <path class="cls-1" d="M408.05,163.69c-2.47-1.68-5.15,1-3.48,3.48,.07,.11,.18,.21,.29,.29,2.47,1.68,5.15-1,3.48-3.48-.07-.11-.18-.21-.29-.29Z"/>
      <path class="cls-1" d="M414.61,163.69c-2.47-1.68-5.15,1-3.48,3.48,.07,.11,.18,.21,.29,.29,2.47,1.68,5.15-1,3.48-3.48-.07-.11-.18-.21-.29-.29Z"/>
      <path class="cls-1" d="M421.16,163.69c-2.47-1.68-5.15,1-3.48,3.48,.07,.11,.18,.21,.29,.29,2.47,1.68,5.15-1,3.48-3.48-.07-.11-.18-.21-.29-.29Z"/>
      <path class="cls-1" d="M427.72,163.69c-2.47-1.68-5.15,1-3.48,3.48,.07,.11,.18,.21,.29,.29,2.47,1.68,5.15-1,3.48-3.48-.07-.11-.18-.21-.29-.29Z"/>
      <path class="cls-1" d="M401.49,170.3c-2.47-1.68-5.15,1-3.48,3.48,.07,.11,.18,.21,.29,.29,2.47,1.68,5.15-1,3.48-3.48-.07-.11-.18-.21-.29-.29Z"/>
      <path class="cls-1" d="M408.05,170.3c-2.47-1.68-5.15,1-3.48,3.48,.07,.11,.18,.21,.29,.29,2.47,1.68,5.15-1,3.48-3.48-.07-.11-.18-.21-.29-.29Z"/>
      <path class="cls-1" d="M414.61,170.3c-2.47-1.68-5.15,1-3.48,3.48,.07,.11,.18,.21,.29,.29,2.47,1.68,5.15-1,3.48-3.48-.07-.11-.18-.21-.29-.29Z"/>
      <path class="cls-1" d="M421.17,170.3c-2.47-1.68-5.15,1-3.48,3.48,.07,.11,.18,.21,.29,.29,2.47,1.68,5.15-1,3.48-3.48-.07-.11-.18-.21-.29-.29Z"/>
      <path class="cls-1" d="M427.72,170.3c-2.47-1.68-5.15,1-3.48,3.48,.07,.11,.18,.21,.29,.29,2.47,1.68,5.15-1,3.48-3.48-.07-.11-.18-.21-.29-.29Z"/>
      <path class="cls-1" d="M401.49,176.9c-2.47-1.68-5.15,1-3.48,3.48,.07,.11,.18,.21,.29,.29,2.47,1.68,5.15-1,3.48-3.48-.07-.11-.18-.21-.29-.29Z"/>
      <path class="cls-1" d="M408.05,176.9c-2.47-1.68-5.15,1-3.48,3.48,.07,.11,.18,.21,.29,.29,2.47,1.68,5.15-1,3.48-3.48-.07-.11-.18-.21-.29-.29Z"/>
      <path class="cls-1" d="M414.61,176.9c-2.47-1.68-5.15,1-3.48,3.48,.07,.11,.18,.21,.29,.29,2.47,1.68,5.15-1,3.48-3.48-.07-.11-.18-.21-.29-.29Z"/>
      <path class="cls-1" d="M421.16,176.9c-2.47-1.68-5.15,1-3.48,3.48,.07,.11,.18,.21,.29,.29,2.47,1.68,5.15-1,3.48-3.48-.07-.11-.18-.21-.29-.29Z"/>
      <path class="cls-1" d="M427.72,176.9c-2.47-1.68-5.15,1-3.48,3.48,.07,.11,.18,.21,.29,.29,2.47,1.68,5.15-1,3.48-3.48-.07-.11-.18-.21-.29-.29Z"/>
      <path class="cls-1" d="M401.49,183.5c-2.47-1.68-5.15,1-3.48,3.48,.07,.11,.18,.21,.29,.29,2.47,1.68,5.15-1,3.48-3.48-.07-.11-.18-.21-.29-.29Z"/>
      <path class="cls-1" d="M408.05,183.5c-2.47-1.68-5.15,1-3.48,3.48,.07,.11,.18,.21,.29,.29,2.47,1.68,5.15-1,3.48-3.48-.07-.11-.18-.21-.29-.29Z"/>
      <path class="cls-1" d="M414.61,183.5c-2.47-1.68-5.15,1-3.48,3.48,.07,.11,.18,.21,.29,.29,2.47,1.68,5.15-1,3.48-3.48-.07-.11-.18-.21-.29-.29Z"/>
      <path class="cls-1" d="M421.16,183.5c-2.47-1.68-5.15,1-3.48,3.48,.07,.11,.18,.21,.29,.29,2.47,1.68,5.15-1,3.48-3.48-.07-.11-.18-.21-.29-.29Z"/>
      <path class="cls-1" d="M427.72,183.5c-2.47-1.68-5.15,1-3.48,3.48,.07,.11,.18,.21,.29,.29,2.47,1.68,5.15-1,3.48-3.48-.07-.11-.18-.21-.29-.29Z"/>
      <path class="cls-1" d="M293.42,63.38c-2.47-1.68-5.15,1-3.48,3.48,.07,.11,.18,.21,.29,.29,2.47,1.68,5.15-1,3.48-3.48-.07-.11-.18-.21-.29-.29Z"/>
      <path class="cls-1" d="M299.98,63.38c-2.47-1.68-5.15,1-3.48,3.48,.07,.11,.18,.21,.29,.29,2.47,1.68,5.15-1,3.48-3.48-.07-.11-.18-.21-.29-.29Z"/>
      <path class="cls-1" d="M303.06,63.67c-1.68,2.47,1,5.15,3.48,3.48,.11-.07,.21-.18,.29-.29,1.68-2.47-1-5.15-3.48-3.48-.11,.07-.21,.18-.29,.29Z"/>
      <path class="cls-1" d="M309.91,67.15c2.47,1.68,5.15-1,3.48-3.48-.07-.11-.18-.21-.29-.29-2.47-1.68-5.15,1-3.48,3.48,.07,.11,.18,.21,.29,.29Z"/>
      <path class="cls-1" d="M316.47,67.15c2.47,1.68,5.15-1,3.48-3.48-.07-.11-.18-.21-.29-.29-2.47-1.68-5.15,1-3.48,3.48,.07,.11,.18,.21,.29,.29Z"/>
      <path class="cls-1" d="M293.42,69.99c-2.47-1.68-5.15,1-3.48,3.48,.07,.11,.18,.21,.29,.29,2.47,1.68,5.15-1,3.48-3.48-.07-.11-.18-.21-.29-.29Z"/>
      <path class="cls-1" d="M299.98,69.99c-2.47-1.68-5.15,1-3.48,3.48,.07,.11,.18,.21,.29,.29,2.47,1.68,5.15-1,3.48-3.48-.07-.11-.18-.21-.29-.29Z"/>
      <path class="cls-1" d="M306.54,69.99c-2.47-1.68-5.15,1-3.48,3.48,.07,.11,.18,.21,.29,.29,2.47,1.68,5.15-1,3.48-3.48-.07-.11-.18-.21-.29-.29Z"/>
      <path class="cls-1" d="M309.91,73.75c2.47,1.68,5.15-1,3.48-3.48-.07-.11-.18-.21-.29-.29-2.47-1.68-5.15,1-3.48,3.48,.07,.11,.18,.21,.29,.29Z"/>
      <path class="cls-1" d="M316.47,73.75c2.47,1.68,5.15-1,3.48-3.48-.07-.11-.18-.21-.29-.29-2.47-1.68-5.15,1-3.48,3.48,.07,.11,.18,.21,.29,.29Z"/>
      <path class="cls-1" d="M293.42,76.59c-2.47-1.68-5.15,1-3.48,3.48,.07,.11,.18,.21,.29,.29,2.47,1.68,5.15-1,3.48-3.48-.07-.11-.18-.21-.29-.29Z"/>
      <path class="cls-1" d="M299.98,76.59c-2.47-1.68-5.15,1-3.48,3.48,.07,.11,.18,.21,.29,.29,2.47,1.68,5.15-1,3.48-3.48-.07-.11-.18-.21-.29-.29Z"/>
      <path class="cls-1" d="M306.54,76.59c-2.47-1.68-5.15,1-3.48,3.48,.07,.11,.18,.21,.29,.29,2.47,1.68,5.15-1,3.48-3.48-.07-.11-.18-.21-.29-.29Z"/>
      <path class="cls-1" d="M309.91,80.35c2.47,1.68,5.15-1,3.48-3.48-.07-.11-.18-.21-.29-.29-2.47-1.68-5.15,1-3.48,3.48,.07,.11,.18,.21,.29,.29Z"/>
      <path class="cls-1" d="M316.47,80.35c2.47,1.68,5.15-1,3.48-3.48-.07-.11-.18-.21-.29-.29-2.47-1.68-5.15,1-3.48,3.48,.07,.11,.18,.21,.29,.29Z"/>
      <path class="cls-1" d="M293.42,83.19c-2.47-1.68-5.15,1-3.48,3.48,.07,.11,.18,.21,.29,.29,2.47,1.68,5.15-1,3.48-3.48-.07-.11-.18-.21-.29-.29Z"/>
      <path class="cls-1" d="M299.98,83.19c-2.47-1.68-5.15,1-3.48,3.48,.07,.11,.18,.21,.29,.29,2.47,1.68,5.15-1,3.48-3.48-.07-.11-.18-.21-.29-.29Z"/>
      <path class="cls-1" d="M306.54,83.19c-2.47-1.68-5.15,1-3.48,3.48,.07,.11,.18,.21,.29,.29,2.47,1.68,5.15-1,3.48-3.48-.07-.11-.18-.21-.29-.29Z"/>
      <path class="cls-1" d="M309.91,86.96c2.47,1.68,5.15-1,3.48-3.48-.07-.11-.18-.21-.29-.29-2.47-1.68-5.15,1-3.48,3.48,.07,.11,.18,.21,.29,.29Z"/>
      <path class="cls-1" d="M316.47,86.96c2.47,1.68,5.15-1,3.48-3.48-.07-.11-.18-.21-.29-.29-2.47-1.68-5.15,1-3.48,3.48,.07,.11,.18,.21,.29,.29Z"/>
      <path class="cls-1" d="M293.42,89.8c-2.47-1.68-5.15,1-3.48,3.48,.07,.11,.18,.21,.29,.29,2.47,1.68,5.15-1,3.48-3.48-.07-.11-.18-.21-.29-.29Z"/>
      <path class="cls-1" d="M299.98,89.8c-2.47-1.68-5.15,1-3.48,3.48,.07,.11,.18,.21,.29,.29,2.47,1.68,5.15-1,3.48-3.48-.07-.11-.18-.21-.29-.29Z"/>
      <path class="cls-1" d="M306.54,89.8c-2.47-1.68-5.15,1-3.48,3.48,.07,.11,.18,.21,.29,.29,2.47,1.68,5.15-1,3.48-3.48-.07-.11-.18-.21-.29-.29Z"/>
      <path class="cls-1" d="M309.91,93.56c2.47,1.68,5.15-1,3.48-3.48-.07-.11-.18-.21-.29-.29-2.47-1.68-5.15,1-3.48,3.48,.07,.11,.18,.21,.29,.29Z"/>
      <path class="cls-1" d="M316.47,93.56c2.47,1.68,5.15-1,3.48-3.48-.07-.11-.18-.21-.29-.29-2.47-1.68-5.15,1-3.48,3.48,.07,.11,.18,.21,.29,.29Z"/>
      <path class="cls-1" d="M116.32,91.16c2.47,1.68,5.15-1,3.48-3.48-.07-.11-.18-.21-.29-.29-2.47-1.68-5.15,1-3.48,3.48,.07,.11,.18,.21,.29,.29Z"/>
      <path class="cls-1" d="M122.88,91.16c2.47,1.68,5.15-1,3.48-3.48-.07-.11-.18-.21-.29-.29-2.47-1.68-5.15,1-3.48,3.48,.07,.11,.18,.21,.29,.29Z"/>
      <path class="cls-1" d="M129.44,91.16c2.47,1.68,5.15-1,3.48-3.48-.07-.11-.18-.21-.29-.29-2.47-1.68-5.15,1-3.48,3.48,.07,.11,.18,.21,.29,.29Z"/>
      <path class="cls-1" d="M135.99,91.16c2.47,1.68,5.15-1,3.48-3.48-.07-.11-.18-.21-.29-.29-2.47-1.68-5.15,1-3.48,3.48,.07,.11,.18,.21,.29,.29Z"/>
      <path class="cls-1" d="M142.55,91.16c2.47,1.68,5.15-1,3.48-3.48-.07-.11-.18-.21-.29-.29-2.47-1.68-5.15,1-3.48,3.48,.07,.11,.18,.21,.29,.29Z"/>
      <path class="cls-1" d="M116.32,97.76c2.47,1.68,5.15-1,3.48-3.48-.07-.11-.18-.21-.29-.29-2.47-1.68-5.15,1-3.48,3.48,.07,.11,.18,.21,.29,.29Z"/>
      <path class="cls-1" d="M122.88,97.76c2.47,1.68,5.15-1,3.48-3.48-.07-.11-.18-.21-.29-.29-2.47-1.68-5.15,1-3.48,3.48,.07,.11,.18,.21,.29,.29Z"/>
      <path class="cls-1" d="M129.44,97.76c2.47,1.68,5.15-1,3.48-3.48-.07-.11-.18-.21-.29-.29-2.47-1.68-5.15,1-3.48,3.48,.07,.11,.18,.21,.29,.29Z"/>
      <path class="cls-1" d="M135.99,97.76c2.47,1.68,5.15-1,3.48-3.48-.07-.11-.18-.21-.29-.29-2.47-1.68-5.15,1-3.48,3.48,.07,.11,.18,.21,.29,.29Z"/>
      <path class="cls-1" d="M142.55,97.76c2.47,1.68,5.15-1,3.48-3.48-.07-.11-.18-.21-.29-.29-2.47-1.68-5.15,1-3.48,3.48,.07,.11,.18,.21,.29,.29Z"/>
      <path class="cls-1" d="M116.32,104.36c2.47,1.68,5.15-1,3.48-3.48-.07-.11-.18-.21-.29-.29-2.47-1.68-5.15,1-3.48,3.48,.07,.11,.18,.21,.29,.29Z"/>
      <path class="cls-1" d="M122.88,104.36c2.47,1.68,5.15-1,3.48-3.48-.07-.11-.18-.21-.29-.29-2.47-1.68-5.15,1-3.48,3.48,.07,.11,.18,.21,.29,.29Z"/>
      <path class="cls-1" d="M129.44,104.36c2.47,1.68,5.15-1,3.48-3.48-.07-.11-.18-.21-.29-.29-2.47-1.68-5.15,1-3.48,3.48,.07,.11,.18,.21,.29,.29Z"/>
      <path class="cls-1" d="M135.99,104.36c2.47,1.68,5.15-1,3.48-3.48-.07-.11-.18-.21-.29-.29-2.47-1.68-5.15,1-3.48,3.48,.07,.11,.18,.21,.29,.29Z"/>
      <path class="cls-1" d="M142.55,104.36c2.47,1.68,5.15-1,3.48-3.48-.07-.11-.18-.21-.29-.29-2.47-1.68-5.15,1-3.48,3.48,.07,.11,.18,.21,.29,.29Z"/>
      <path class="cls-1" d="M116.32,110.97c2.47,1.68,5.15-1,3.48-3.48-.07-.11-.18-.21-.29-.29-2.47-1.68-5.15,1-3.48,3.48,.07,.11,.18,.21,.29,.29Z"/>
      <path class="cls-1" d="M122.88,110.97c2.47,1.68,5.15-1,3.48-3.48-.07-.11-.18-.21-.29-.29-2.47-1.68-5.15,1-3.48,3.48,.07,.11,.18,.21,.29,.29Z"/>
      <path class="cls-1" d="M129.44,110.97c2.47,1.68,5.15-1,3.48-3.48-.07-.11-.18-.21-.29-.29-2.47-1.68-5.15,1-3.48,3.48,.07,.11,.18,.21,.29,.29Z"/>
      <path class="cls-1" d="M135.99,110.97c2.47,1.68,5.15-1,3.48-3.48-.07-.11-.18-.21-.29-.29-2.47-1.68-5.15,1-3.48,3.48,.07,.11,.18,.21,.29,.29Z"/>
      <path class="cls-1" d="M142.55,110.97c2.47,1.68,5.15-1,3.48-3.48-.07-.11-.18-.21-.29-.29-2.47-1.68-5.15,1-3.48,3.48,.07,.11,.18,.21,.29,.29Z"/>
      <path class="cls-1" d="M116.32,117.57c2.47,1.68,5.15-1,3.48-3.48-.07-.11-.18-.21-.29-.29-2.47-1.68-5.15,1-3.48,3.48,.07,.11,.18,.21,.29,.29Z"/>
      <path class="cls-1" d="M122.88,117.57c2.47,1.68,5.15-1,3.48-3.48-.07-.11-.18-.21-.29-.29-2.47-1.68-5.15,1-3.48,3.48,.07,.11,.18,.21,.29,.29Z"/>
      <path class="cls-1" d="M129.44,117.57c2.47,1.68,5.15-1,3.48-3.48-.07-.11-.18-.21-.29-.29-2.47-1.68-5.15,1-3.48,3.48,.07,.11,.18,.21,.29,.29Z"/>
      <path class="cls-1" d="M135.99,117.57c2.47,1.68,5.15-1,3.48-3.48-.07-.11-.18-.21-.29-.29-2.47-1.68-5.15,1-3.48,3.48,.07,.11,.18,.21,.29,.29Z"/>
      <path class="cls-1" d="M142.55,117.57c2.47,1.68,5.15-1,3.48-3.48-.07-.11-.18-.21-.29-.29-2.47-1.68-5.15,1-3.48,3.48,.07,.11,.18,.21,.29,.29Z"/>
      <path class="cls-1" d="M7.5,52.76c2.47,1.68,5.15-1,3.48-3.48-.07-.11-.18-.21-.29-.29-2.47-1.68-5.15,1-3.48,3.48,.07,.11,.18,.21,.29,.29Z"/>
      <path class="cls-1" d="M14.06,52.76c2.47,1.68,5.15-1,3.48-3.48-.07-.11-.18-.21-.29-.29-2.47-1.68-5.15,1-3.48,3.48,.07,.11,.18,.21,.29,.29Z"/>
      <path class="cls-1" d="M20.62,52.76c2.47,1.68,5.15-1,3.48-3.48-.07-.11-.18-.21-.29-.29-2.47-1.68-5.15,1-3.48,3.48,.07,.11,.18,.21,.29,.29Z"/>
      <path class="cls-1" d="M27.18,52.76c2.47,1.68,5.15-1,3.48-3.48-.07-.11-.18-.21-.29-.29-2.47-1.68-5.15,1-3.48,3.48,.07,.11,.18,.21,.29,.29Z"/>
      <path class="cls-1" d="M33.74,52.76c2.47,1.68,5.15-1,3.48-3.48-.07-.11-.18-.21-.29-.29-2.47-1.68-5.15,1-3.48,3.48,.07,.11,.18,.21,.29,.29Z"/>
      <path class="cls-1" d="M7.5,59.37c2.47,1.68,5.15-1,3.48-3.48-.07-.11-.18-.21-.29-.29-2.47-1.68-5.15,1-3.48,3.48,.07,.11,.18,.21,.29,.29Z"/>
      <path class="cls-1" d="M14.06,59.37c2.47,1.68,5.15-1,3.48-3.48-.07-.11-.18-.21-.29-.29-2.47-1.68-5.15,1-3.48,3.48,.07,.11,.18,.21,.29,.29Z"/>
      <path class="cls-1" d="M20.62,59.37c2.47,1.68,5.15-1,3.48-3.48-.07-.11-.18-.21-.29-.29-2.47-1.68-5.15,1-3.48,3.48,.07,.11,.18,.21,.29,.29Z"/>
      <path class="cls-1" d="M27.18,59.37c2.47,1.68,5.15-1,3.48-3.48-.07-.11-.18-.21-.29-.29-2.47-1.68-5.15,1-3.48,3.48,.07,.11,.18,.21,.29,.29Z"/>
      <path class="cls-1" d="M33.74,59.37c2.47,1.68,5.15-1,3.48-3.48-.07-.11-.18-.21-.29-.29-2.47-1.68-5.15,1-3.48,3.48,.07,.11,.18,.21,.29,.29Z"/>
      <path class="cls-1" d="M7.5,65.97c2.47,1.68,5.15-1,3.48-3.48-.07-.11-.18-.21-.29-.29-2.47-1.68-5.15,1-3.48,3.48,.07,.11,.18,.21,.29,.29Z"/>
      <path class="cls-1" d="M14.06,65.97c2.47,1.68,5.15-1,3.48-3.48-.07-.11-.18-.21-.29-.29-2.47-1.68-5.15,1-3.48,3.48,.07,.11,.18,.21,.29,.29Z"/>
      <path class="cls-1" d="M20.62,65.97c2.47,1.68,5.15-1,3.48-3.48-.07-.11-.18-.21-.29-.29-2.47-1.68-5.15,1-3.48,3.48,.07,.11,.18,.21,.29,.29Z"/>
      <path class="cls-1" d="M27.18,65.97c2.47,1.68,5.15-1,3.48-3.48-.07-.11-.18-.21-.29-.29-2.47-1.68-5.15,1-3.48,3.48,.07,.11,.18,.21,.29,.29Z"/>
      <path class="cls-1" d="M33.74,65.97c2.47,1.68,5.15-1,3.48-3.48-.07-.11-.18-.21-.29-.29-2.47-1.68-5.15,1-3.48,3.48,.07,.11,.18,.21,.29,.29Z"/>
      <path class="cls-1" d="M7.5,72.57c2.47,1.68,5.15-1,3.48-3.48-.07-.11-.18-.21-.29-.29-2.47-1.68-5.15,1-3.48,3.48,.07,.11,.18,.21,.29,.29Z"/>
      <path class="cls-1" d="M14.06,72.57c2.47,1.68,5.15-1,3.48-3.48-.07-.11-.18-.21-.29-.29-2.47-1.68-5.15,1-3.48,3.48,.07,.11,.18,.21,.29,.29Z"/>
      <path class="cls-1" d="M20.62,72.57c2.47,1.68,5.15-1,3.48-3.48-.07-.11-.18-.21-.29-.29-2.47-1.68-5.15,1-3.48,3.48,.07,.11,.18,.21,.29,.29Z"/>
      <path class="cls-1" d="M27.18,72.57c2.47,1.68,5.15-1,3.48-3.48-.07-.11-.18-.21-.29-.29-2.47-1.68-5.15,1-3.48,3.48,.07,.11,.18,.21,.29,.29Z"/>
      <path class="cls-1" d="M33.74,72.57c2.47,1.68,5.15-1,3.48-3.48-.07-.11-.18-.21-.29-.29-2.47-1.68-5.15,1-3.48,3.48,.07,.11,.18,.21,.29,.29Z"/>
      <path class="cls-1" d="M7.5,79.18c2.47,1.68,5.15-1,3.48-3.48-.07-.11-.18-.21-.29-.29-2.47-1.68-5.15,1-3.48,3.48,.07,.11,.18,.21,.29,.29Z"/>
      <path class="cls-1" d="M14.06,79.18c2.47,1.68,5.15-1,3.48-3.48-.07-.11-.18-.21-.29-.29-2.47-1.68-5.15,1-3.48,3.48,.07,.11,.18,.21,.29,.29Z"/>
      <path class="cls-1" d="M20.62,79.18c2.47,1.68,5.15-1,3.48-3.48-.07-.11-.18-.21-.29-.29-2.47-1.68-5.15,1-3.48,3.48,.07,.11,.18,.21,.29,.29Z"/>
      <path class="cls-1" d="M27.18,79.18c2.47,1.68,5.15-1,3.48-3.48-.07-.11-.18-.21-.29-.29-2.47-1.68-5.15,1-3.48,3.48,.07,.11,.18,.21,.29,.29Z"/>
      <path class="cls-1" d="M33.74,79.18c2.47,1.68,5.15-1,3.48-3.48-.07-.11-.18-.21-.29-.29-2.47-1.68-5.15,1-3.48,3.48,.07,.11,.18,.21,.29,.29Z"/>
    </g>
  </g>
</svg>