<?xml version="1.0" encoding="UTF-8"?>
<svg id="Layer_2" data-name="Layer 2" xmlns="http://www.w3.org/2000/svg" viewBox="0 0 80.08 160.18">
  <g id="Layer_1-2" data-name="Layer 1">
    <path d="M80.08,22.67c-8.85-8.85-13.81-13.82-22.66-22.67H22.67C13.81,8.85,8.85,13.82,0,22.67V57.42c8.85,8.85,13.81,13.82,22.67,22.67-8.86,8.85-13.82,13.81-22.67,22.67v34.75c8.85,8.85,13.81,13.81,22.67,22.67H57.42c8.85-8.86,13.81-13.82,22.66-22.67v-34.75c-8.85-8.86-13.81-13.82-22.66-22.67,8.85-8.85,13.81-13.82,22.66-22.67V22.67Zm-17.31,97.46c0,12.55-10.18,22.73-22.73,22.73s-22.72-10.18-22.72-22.73,10.17-22.72,22.72-22.72,22.73,10.17,22.73,22.72Zm-22.73-57.36c-12.55,0-22.72-10.18-22.72-22.73s10.17-22.72,22.72-22.72,22.73,10.17,22.73,22.72-10.18,22.73-22.73,22.73Z"/>
  </g>
</svg>