<?xml version="1.0" encoding="UTF-8"?>
<svg id="Layer_2" data-name="Layer 2" xmlns="http://www.w3.org/2000/svg" viewBox="0 0 86.34 86.34">
  <g id="Layer_1-2" data-name="Layer 1">
    <path d="M0,1.81V84.53c0,1,.81,1.81,1.81,1.81H84.53c1,0,1.81-.81,1.81-1.81V1.81C86.34,.81,85.53,0,84.53,0H1.81C.81,0,0,.81,0,1.81Zm43.7,0L1.81,41.08V1.81H43.7ZM1.81,43.61l.42-.45L45.09,2.99V83.35S2.23,43.17,2.23,43.17l-.42,.45h0Zm0,1.64l41.89,39.27H1.81V45.26Zm82.72,39.27H46.44c.28-.32,.45-.72,.45-1.18V2.99c0-.45-.17-.86-.45-1.18h38.09V84.53Z"/>
  </g>
</svg>