<?xml version="1.0" encoding="UTF-8"?>
<svg id="Layer_2" data-name="Layer 2" xmlns="http://www.w3.org/2000/svg" viewBox="0 0 119.08 119.08">
  <g id="Layer_1-2" data-name="Layer 1">
    <path d="M119.07,58.87C118.71,26.57,92.51,.37,60.21,0h0s-.67,0-.67,0h-.67C26.57,.37,.37,26.57,0,58.87h0v1.35H0c.36,32.3,26.56,58.5,58.86,58.86h0s.67,0,.67,0h.67c32.3-.37,58.5-26.57,58.86-58.87h0v-1.35h0Zm-59.53-9.72c5.73,0,10.39,4.66,10.39,10.39s-4.66,10.39-10.39,10.39-10.39-4.66-10.39-10.39,4.66-10.39,10.39-10.39Zm58.19,9.72h-42.43c-.34-8.17-6.92-14.75-15.09-15.09V1.35c31.55,.36,57.16,25.96,57.52,57.52ZM1.35,60.21H43.78c.34,8.17,6.92,14.75,15.09,15.09v42.43C27.31,117.37,1.71,91.77,1.35,60.21Z"/>
  </g>
</svg>