<?xml version="1.0" encoding="UTF-8"?>
<svg id="Layer_2" data-name="Layer 2" xmlns="http://www.w3.org/2000/svg" viewBox="0 0 325.86 108.41">
  <g id="Layer_1-2" data-name="Layer 1">
    <g>
      <path d="M49.64,0C22.27,0,0,22.27,0,49.64c0,1.53,.08,3.06,.21,4.56-.14,1.5-.21,3.01-.21,4.55,0,27.38,22.27,49.66,49.64,49.66s49.66-22.27,49.66-49.66c0-1.53-.08-3.05-.21-4.55,.14-1.5,.21-3.03,.21-4.56C99.3,22.27,77.03,0,49.64,0Zm46.22,54.19c-2.29,23.49-22.15,41.9-46.22,41.9S5.73,77.68,3.43,54.2c-.15-1.5-.23-3.03-.23-4.56,0-4.27,.58-8.4,1.66-12.33C10.29,17.67,28.31,3.21,49.64,3.21s39.32,14.43,44.75,34.03c0,.01,.01,.02,.01,.02,1.09,3.94,1.68,8.09,1.68,12.38,0,1.53-.08,3.05-.23,4.55Z"/>
      <polygon points="43.23 51.9 64.53 51.9 64.53 45.87 43.23 45.87 43.23 34.8 66.24 34.8 66.24 28.41 35.83 28.41 35.83 70.66 66.66 70.66 66.66 64.27 43.23 64.27 43.23 51.9"/>
      <path d="M162.95,0c-27.38,0-49.66,22.27-49.66,49.64,0,1.53,.08,3.06,.21,4.56-.14,1.5-.21,3.01-.21,4.55,0,27.38,22.27,49.66,49.66,49.66s49.66-22.27,49.66-49.66c0-1.53-.08-3.05-.21-4.55,.14-1.5,.21-3.03,.21-4.56,0-27.37-22.27-49.64-49.66-49.64Zm46.21,54.19c-2.29,23.49-22.13,41.9-46.21,41.9s-43.92-18.41-46.21-41.89c-.15-1.5-.23-3.03-.23-4.56,0-4.29,.58-8.44,1.67-12.38,0,0,.01-.01,.01-.02,5.44-19.6,23.44-34.03,44.75-34.03s39.31,14.43,44.75,34.03c0,.01,.01,.02,.01,.02,1.09,3.94,1.67,8.09,1.67,12.38,0,1.53-.08,3.05-.23,4.55Z"/>
      <path d="M174.11,50.59v-.12c1.35-.47,6.95-2.53,6.95-10.58,0-7.12-4.71-11.35-13.89-11.35h-20.05v41.99h7.35v-17.29h10.82c6.77,0,8.35,3.41,8.35,11.12,0,2.05,0,4.35,1.12,6.17h7.88c-1.58-1.7-2.29-6.17-2.29-11.06,0-6.64-3.71-8.52-6.24-8.88Zm-7.59-2.94h-12.06v-13.12h11.94c3.82,0,7.3,1.06,7.3,6.41,0,4.41-2.53,6.71-7.18,6.71Z"/>
      <path d="M325.86,49.64c0-27.37-22.27-49.64-49.66-49.64s-49.64,22.27-49.64,49.64c0,1.53,.08,3.06,.21,4.56-.14,1.5-.21,3.01-.21,4.55,0,27.38,22.27,49.66,49.64,49.66s49.66-22.27,49.66-49.66c0-1.53-.08-3.05-.21-4.55,.14-1.5,.21-3.03,.21-4.56Zm-3.43,4.55c-2.29,23.49-22.15,41.9-46.22,41.9s-43.93-18.41-46.21-41.9c-.15-1.5-.23-3.02-.23-4.55,0-4.27,.58-8.4,1.66-12.33,5.42-19.65,23.44-34.11,44.77-34.11s39.32,14.43,44.75,34.03c0,.01,.01,.02,.01,.02,1.09,3.94,1.68,8.09,1.68,12.38,0,1.53-.08,3.05-.23,4.55Z"/>
      <polygon points="292.23 34.09 292.23 28.49 260.22 28.49 260.22 34.86 282.86 34.86 258.34 64.57 258.34 70.58 292.82 70.58 292.82 64.21 267.71 64.21 292.23 34.09"/>
    </g>
  </g>
</svg>