<?xml version="1.0" encoding="UTF-8"?>
<svg id="Layer_2" data-name="Layer 2" xmlns="http://www.w3.org/2000/svg" viewBox="0 0 241.87 118.59">
  <g id="Layer_1-2" data-name="Layer 1">
    <path d="M241.87,14.88V2.08c0-1.15-.93-2.08-2.08-2.08h-18.4c-1.15,0-2.08,.93-2.08,2.08V14.21c0,.55-.22,1.08-.61,1.47l-26.15,26.15c-.39,.39-.92,.61-1.47,.61h-17.58c-1.15,0-2.08,.93-2.08,2.08v2.94c0,1.15-.93,2.08-2.08,2.08h-24.98c-1.15,0-2.08-.93-2.08-2.08v-2.94c0-1.15-.93-2.08-2.08-2.08h-5.74c-1.15,0-2.08-.93-2.08-2.08V19.04c0-1.15,.93-2.08,2.08-2.08h5.74c1.15,0,2.08-.93,2.08-2.08V2.08c0-1.15-.93-2.08-2.08-2.08h-18.4c-1.15,0-2.08,.93-2.08,2.08v2.94c0,1.15-.93,2.08-2.08,2.08h-8.4c-1.15,0-2.08-.93-2.08-2.08V2.08c0-1.15-.93-2.08-2.08-2.08h-18.4c-1.15,0-2.08,.93-2.08,2.08v2.94c0,1.15-.93,2.08-2.08,2.08h-9.22c-1.15,0-2.08-.93-2.08-2.08V2.08c0-1.15-.93-2.08-2.08-2.08h-18.4c-1.15,0-2.08,.93-2.08,2.08V14.05c0,.55-.22,1.08-.61,1.47l-26.84,26.84c-.39,.39-.92,.61-1.47,.61H2.08c-1.15,0-2.08,.93-2.08,2.08v12.8c0,1.15,.93,2.08,2.08,2.08H20.48c1.15,0,2.08-.93,2.08-2.08v-12.06c0-.55,.22-1.08,.61-1.47l26.76-26.76c.39-.39,.92-.61,1.47-.61h5.08c1.15,0,2.08,.93,2.08,2.08v9.55c0,1.57,.61,3.04,1.72,4.16l18.95,18.95c.39,.39,.92,.61,1.47,.61h1.83c1.15,0,2.08,.93,2.08,2.08v2.94c0,1.15,.93,2.08,2.08,2.08h5.74c1.15,0,2.08,.93,2.08,2.08v8.48c0,1.15-.93,2.08-2.08,2.08h-5.74c-1.15,0-2.08,.93-2.08,2.08v12.8c0,1.15,.93,2.08,2.08,2.08h5.74c1.15,0,2.08,.93,2.08,2.08v8.48c0,1.15-.93,2.08-2.08,2.08h-5.74c-1.15,0-2.08,.93-2.08,2.08v12.8c0,1.15,.93,2.08,2.08,2.08h18.4c1.15,0,2.08-.93,2.08-2.08v-2.94c0-1.15,.93-2.08,2.08-2.08h8.4c1.15,0,2.08,.93,2.08,2.08v2.94c0,1.15,.93,2.08,2.08,2.08h18.4c1.15,0,2.08-.93,2.08-2.08v-2.94c0-1.15,.93-2.08,2.08-2.08h5.63c.55,0,1.08-.22,1.47-.61l2.16-2.16,19.12-19.12c.39-.39,.92-.61,1.47-.61h17.69c1.15,0,2.08-.93,2.08-2.08v-12.8c0-1.15-.93-2.08-2.08-2.08h-5.74c-1.15,0-2.08-.93-2.08-2.08v-8.48c0-1.15,.93-2.08,2.08-2.08h5.74c1.15,0,2.08-.93,2.08-2.08v-12.14c0-.55,.22-1.08,.61-1.47l26.14-26.14c.39-.39,.92-.61,1.47-.61h17.59c1.15,0,2.08-.93,2.08-2.08Zm-120.77,56.54l-13.32-13.32c-.39-.39-.61-.92-.61-1.47v-2.25c0-1.15,.93-2.08,2.08-2.08h8.4c1.15,0,2.08,.93,2.08,2.08v2.94c0,1.15,.93,2.08,2.08,2.08h5.74c1.15,0,2.08,.93,2.08,2.08v8.48c0,1.15-.93,2.08-2.08,2.08h-4.97c-.55,0-1.08-.22-1.47-.61Zm-1.38-59.48v2.94c0,1.15,.93,2.08,2.08,2.08h5.74c1.15,0,2.08,.93,2.08,2.08v21.32c0,1.15-.93,2.08-2.08,2.08h-5.74c-1.15,0-2.08,.93-2.08,2.08v2.94c0,1.15-.93,2.08-2.08,2.08h-8.4c-1.15,0-2.08-.93-2.08-2.08v-2.94c0-1.15-.93-2.08-2.08-2.08h-5.74c-1.15,0-2.08-.93-2.08-2.08V19.04c0-1.15,.93-2.08,2.08-2.08h5.74c1.15,0,2.08-.93,2.08-2.08v-2.94c0-1.15,.93-2.08,2.08-2.08h8.4c1.15,0,2.08,.93,2.08,2.08Zm-39.35,36.98l-18.44-18.44c-.39-.39-.61-.92-.61-1.47v-9.97c0-1.15,.93-2.08,2.08-2.08h5.74c1.15,0,2.08-.93,2.08-2.08v-2.94c0-1.15,.93-2.08,2.08-2.08h9.22c1.15,0,2.08,.93,2.08,2.08v2.94c0,1.15,.93,2.08,2.08,2.08h5.74c1.15,0,2.08,.93,2.08,2.08v21.32c0,1.15-.93,2.08-2.08,2.08h-5.74c-1.15,0-2.08,.93-2.08,2.08v2.94c0,1.15-.93,2.08-2.08,2.08h-.68c-.55,0-1.08-.22-1.47-.61Zm68.47,59.8h-4.48c-1.15,0-2.08-.93-2.08-2.08v-2.94c0-1.15-.93-2.08-2.08-2.08h-18.4c-1.15,0-2.08,.93-2.08,2.08v2.94c0,1.15-.93,2.08-2.08,2.08h-8.4c-1.15,0-2.08-.93-2.08-2.08v-2.94c0-1.15-.93-2.08-2.08-2.08h-5.74c-1.15,0-2.08-.93-2.08-2.08v-8.48c0-1.15,.93-2.08,2.08-2.08h5.74c1.15,0,2.08-.93,2.08-2.08v-12.8c0-1.15-.93-2.08-2.08-2.08h-5.74c-1.15,0-2.08-.93-2.08-2.08v-8.48c0-1.15,.93-2.08,2.08-2.08h4.94c.55,0,1.08,.22,1.47,.61l13.35,13.35c.39,.39,.61,.92,.61,1.47v12.09c0,1.15,.93,2.08,2.08,2.08h18.4c1.15,0,2.08-.93,2.08-2.08v-2.94c0-1.15,.93-2.08,2.08-2.08h24.98c1.15,0,2.08,.93,2.08,2.08v2.17c0,.55-.22,1.08-.61,1.47l-20.49,20.5c-.39,.39-.92,.61-1.47,.61Zm30.39-36.69h-5.74c-1.15,0-2.08,.93-2.08,2.08v2.94c0,1.15-.93,2.08-2.08,2.08h-24.98c-1.15,0-2.08-.93-2.08-2.08v-2.94c0-1.15-.93-2.08-2.08-2.08h-5.74c-1.15,0-2.08-.93-2.08-2.08v-8.48c0-1.15,.93-2.08,2.08-2.08h5.74c1.15,0,2.08-.93,2.08-2.08v-2.94c0-1.15,.93-2.08,2.08-2.08h24.98c1.15,0,2.08,.93,2.08,2.08v2.94c0,1.15,.93,2.08,2.08,2.08h5.74c1.15,0,2.08,.93,2.08,2.08v8.48c0,1.15-.93,2.08-2.08,2.08Z"/>
  </g>
</svg>