<?xml version="1.0" encoding="UTF-8"?>
<svg id="Layer_2" data-name="Layer 2" xmlns="http://www.w3.org/2000/svg" viewBox="0 0 329.61 131.76">
  <g id="Layer_1-2" data-name="Layer 1">
    <g>
      <path d="M263.73,0c-20.34,0-39.76,9.58-52.19,25.7H118.07C105.64,9.58,86.22,0,65.88,0,29.55,0,0,29.55,0,65.88s29.55,65.88,65.88,65.88c20.34,0,39.76-9.58,52.19-25.7h93.47c12.43,16.12,31.85,25.7,52.19,25.7,36.33,0,65.88-29.55,65.88-65.88S300.05,0,263.73,0Zm0,126.76c-19.19,0-37.48-9.23-48.94-24.69l-.75-1.01H115.57l-.75,1.01c-11.45,15.46-29.75,24.69-48.94,24.69-33.57,0-60.88-27.31-60.88-60.88S32.31,5,65.88,5c19.19,0,37.48,9.23,48.94,24.69l.75,1.01h98.47l.75-1.01c11.46-15.46,29.75-24.69,48.94-24.69,33.57,0,60.88,27.31,60.88,60.88s-27.31,60.88-60.88,60.88Z"/>
      <path d="M263.73,15.06c-18.93,0-35.43,10.36-44.17,25.7H110.05c-8.75-15.35-25.24-25.7-44.17-25.7-28.07,0-50.82,22.75-50.82,50.82s22.75,50.82,50.82,50.82c18.93,0,35.43-10.36,44.17-25.7h109.51c8.75,15.35,25.24,25.7,44.17,25.7,28.07,0,50.82-22.75,50.82-50.82s-22.75-50.82-50.82-50.82Z"/>
    </g>
  </g>
</svg>