<?xml version="1.0" encoding="UTF-8"?>
<svg id="Layer_2" data-name="Layer 2" xmlns="http://www.w3.org/2000/svg" viewBox="0 0 532.14 384.36">
  <g id="Layer_1-2" data-name="Layer 1">
    <g>
      <path d="M177.18,75.7c0-5.55-4.51-10.06-10.06-10.06h-25.79c-5.55,0-10.06,4.51-10.06,10.06v25.79c0,5.55,4.51,10.06,10.06,10.06h25.79c5.55,0,10.06-4.51,10.06-10.06v-8.82c15.86,.17,53.04,1.87,96.24,12.59,50.52,12.54,119.51,40.37,163.67,101.92h-6.44c-5.55,0-10.06,4.51-10.06,10.06v25.79c0,5.55,4.51,10.06,10.06,10.06h25.79c5.55,0,10.06-4.51,10.06-10.06v-25.79c0-5.55-4.51-10.06-10.06-10.06h-9.32l-.18-.26c-20.09-29.51-47.2-54.31-80.59-73.72-26.62-15.47-57.26-27.57-91.07-35.95-44-10.9-81.96-12.62-98.11-12.8v-8.76Zm-22.95,19.86c-3.84,0-6.97-3.13-6.97-6.97s3.13-6.97,6.97-6.97,6.97,3.13,6.97,6.97-3.13,6.97-6.97,6.97Zm289.32,127.6c3.84,0,6.97,3.13,6.97,6.97s-3.13,6.97-6.97,6.97-6.97-3.13-6.97-6.97,3.13-6.97,6.97-6.97Z"/>
      <path d="M522.08,338.46h-8.79v-15.9c0-17.04-13.86-30.9-30.9-30.9h-15.9v-8.78c0-5.55-4.51-10.06-10.06-10.06h-25.79c-5.55,0-10.06,4.51-10.06,10.06v8.78h-19.74v-8.78c0-5.55-4.51-10.06-10.06-10.06h-25.79c-5.55,0-10.06,4.51-10.06,10.06v8.74c-57.91-.67-107.34-9.37-146.95-25.87-.91-1.09-1.74-2.1-2.53-3.09-27.75-34.58-40.24-69.65-44.84-85.47h6.49c5.55,0,10.06-4.51,10.06-10.06v-25.79c0-5.55-4.51-10.06-10.06-10.06h-25.79c-5.55,0-10.06,4.51-10.06,10.06v25.79c0,5.55,4.51,10.06,10.06,10.06h10.76c3.99,14.41,15.01,47.16,39.71,81.11-21.43-10.86-39.82-24.44-54.76-40.46-25.1-26.92-35.83-56.19-40.4-76-3.04-13.15-3.83-24.01-4.01-30.29h9.29c5.55,0,10.06-4.51,10.06-10.06v-25.79c0-5.55-4.51-10.06-10.06-10.06h-25.79c-5.55,0-10.06,4.51-10.06,10.06v6.95c-13.07-3.59-23.38-11.37-30.68-23.17-3.05-4.93-5.04-9.79-6.3-13.57h6.72c5.55,0,10.06-4.51,10.06-10.06v-8.78h85.38v8.78c0,5.55,4.51,10.06,10.06,10.06h25.79c5.55,0,10.06-4.51,10.06-10.06V10.06c0-5.55-4.51-10.06-10.06-10.06h-25.79c-5.55,0-10.06,4.51-10.06,10.06v8.79H45.9V10.06c0-5.55-4.51-10.06-10.06-10.06H10.06C4.51,0,0,4.51,0,10.06v25.79c0,5.55,4.51,10.06,10.06,10.06h10.44c1.35,4.64,3.74,11.08,7.84,17.75,6.09,9.91,17.55,22.59,37.75,27.46v10.37c0,5.55,4.51,10.06,10.06,10.06h8.26c.16,6.53,.97,17.95,4.19,31.95,4.79,20.82,16.02,51.58,42.38,79.88,18.83,20.21,43,36.69,71.86,49,22.07,26.22,48.92,47.29,79.81,62.61,39.55,19.62,85.95,29.87,137.94,30.49v8.82c0,5.55,4.51,10.06,10.06,10.06h25.79c5.55,0,10.06-4.51,10.06-10.06v-25.79c0-5.55-4.51-10.06-10.06-10.06h-25.79c-5.55,0-10.06,4.51-10.06,10.06v8.74c-103.13-1.28-165.46-41.84-200.74-78.29,37.86,13.24,83.26,20.26,135.1,20.86v8.83c0,5.55,4.51,10.06,10.06,10.06h25.79c5.55,0,10.06-4.51,10.06-10.06v-8.78h19.74v8.78c0,5.55,4.51,10.06,10.06,10.06h25.79c5.55,0,10.06-4.51,10.06-10.06v-8.78h15.9c12.51,0,22.68,10.17,22.68,22.68v15.9h-8.79c-5.55,0-10.06,4.51-10.06,10.06v25.79c0,5.55,4.51,10.06,10.06,10.06h25.79c5.55,0,10.06-4.51,10.06-10.06v-25.79c0-5.55-4.51-10.06-10.06-10.06ZM154.23,161.2c-3.84,0-6.97-3.13-6.97-6.97s3.13-6.97,6.97-6.97,6.97,3.13,6.97,6.97-3.13,6.97-6.97,6.97Zm0-145.22c3.84,0,6.97,3.13,6.97,6.97s-3.13,6.97-6.97,6.97-6.97-3.13-6.97-6.97,3.13-6.97,6.97-6.97ZM22.95,29.92c-3.84,0-6.97-3.13-6.97-6.97s3.13-6.97,6.97-6.97,6.97,3.13,6.97,6.97-3.13,6.97-6.97,6.97Zm59.13,58.67c0-3.84,3.13-6.97,6.97-6.97s6.97,3.13,6.97,6.97-3.13,6.97-6.97,6.97-6.97-3.13-6.97-6.97ZM443.55,354.44c3.84,0,6.97,3.13,6.97,6.97s-3.13,6.97-6.97,6.97-6.97-3.13-6.97-6.97,3.13-6.97,6.97-6.97Zm-65.64-51.7c-3.84,0-6.97-3.13-6.97-6.97s3.13-6.97,6.97-6.97,6.97,3.13,6.97,6.97-3.13,6.97-6.97,6.97Zm65.64,0c-3.84,0-6.97-3.13-6.97-6.97s3.13-6.97,6.97-6.97,6.97,3.13,6.97,6.97-3.13,6.97-6.97,6.97Zm65.64,65.64c-3.84,0-6.97-3.13-6.97-6.97s3.13-6.97,6.97-6.97,6.97,3.13,6.97,6.97-3.13,6.97-6.97,6.97Z"/>
    </g>
  </g>
</svg>