<?xml version="1.0" encoding="UTF-8"?>
<svg id="Layer_2" data-name="Layer 2" xmlns="http://www.w3.org/2000/svg" viewBox="0 0 1255.9 1255.89">
  <g id="Layer_1-2" data-name="Layer 1">
    <g>
      <path d="M627.95,271.79c-10.11,0-20.37,.41-30.52,1.23-179.71,14.4-326.04,160.78-340.36,340.48-8.38,105.06,26.26,205.43,97.54,282.62,70.34,76.18,169.97,119.87,273.34,119.87h.01c9.84,0,19.85-.39,29.74-1.16,179.87-14.03,326.5-160.21,341.09-340.03,8.53-105.12-26.04-205.58-97.34-282.9-70.38-76.32-170.07-120.1-273.49-120.1Zm220.96,572.61H510.31V379.16h127.88v352.41h210.72v112.84Z"/>
      <path d="M0,0V1255.89H1255.9V0H0ZM627.95,1136.65c-11.85,0-23.89-.43-35.78-1.27-243.19-17.29-439.14-213.74-455.8-456.96-9.46-138.05,37.23-269.66,131.46-370.57,93-99.59,224.25-156.71,360.11-156.71,271.7,0,492.75,221.05,492.75,492.76s-221.05,492.75-492.75,492.75Z"/>
    </g>
  </g>
</svg>