<?xml version="1.0" encoding="UTF-8"?>
<svg id="Layer_2" data-name="Layer 2" xmlns="http://www.w3.org/2000/svg" viewBox="0 0 2721.24 691.55">
  <g id="Layer_1-2" data-name="Layer 1">
    <g>
      <path d="M2699.41,577.08c-10.1,0-18.57,6.86-21.07,16.17H1652.04v11.33h1026.3c2.5,9.31,10.97,16.17,21.07,16.17,12.06,0,21.84-9.78,21.84-21.84s-9.78-21.84-21.84-21.84Z"/>
      <path d="M1437.46,600.02c0-1.5-.05-2.99-.13-4.48-.03-.52-.09-1.03-.13-1.54-.07-.96-.15-1.91-.26-2.86-.07-.62-.17-1.23-.26-1.85-.12-.82-.23-1.65-.37-2.46-.12-.67-.26-1.34-.39-2.01-.15-.74-.3-1.48-.47-2.21-.16-.71-.35-1.41-.53-2.11-.18-.67-.36-1.34-.55-2-.22-.74-.44-1.47-.68-2.2-.2-.6-.4-1.2-.61-1.79-.27-.77-.55-1.53-.85-2.29-.2-.52-.41-1.04-.63-1.55-.33-.81-.68-1.61-1.04-2.4-.2-.43-.4-.85-.6-1.27-.41-.86-.83-1.72-1.27-2.56-.15-.3-.32-.58-.48-.88-.52-.95-1.04-1.9-1.59-2.83-.04-.07-.08-.13-.12-.19-4.11-6.84-9.26-12.98-15.22-18.21,0,0,0,0-.01-.01l192.17-192.17c8.35,4.82,19.19,3.68,26.33-3.46,8.53-8.53,8.53-22.35,0-30.88-8.53-8.53-22.35-8.53-30.88,0-7.14,7.14-8.28,17.98-3.46,26.33l-193.28,193.28s0,0,0,0c-.76-.49-1.55-.93-2.33-1.39-.86-.51-1.7-1.03-2.58-1.51-.84-.46-1.7-.87-2.56-1.3-.85-.42-1.7-.85-2.57-1.24-.89-.4-1.8-.77-2.7-1.14-.87-.35-1.74-.7-2.63-1.02-.93-.34-1.87-.66-2.82-.96-.89-.29-1.8-.55-2.7-.8-.97-.27-1.93-.53-2.92-.77-.92-.22-1.85-.4-2.78-.58-1-.2-1.99-.41-3-.56-.95-.15-1.92-.25-2.88-.36-1.01-.12-2.01-.27-3.03-.35-1.87-.15-3.76-.23-5.67-.24h5.31V42.9c9.31-2.5,16.17-10.97,16.17-21.07,0-12.06-9.77-21.83-21.83-21.84-12.06,0-21.83,9.78-21.83,21.84,0,10.1,6.86,18.57,16.17,21.07v480.28h5.31c-1.91,0-3.79,.09-5.67,.24-1.02,.08-2.02,.23-3.03,.35-.96,.11-1.93,.21-2.88,.36-1.01,.16-2,.37-3,.56-.93,.18-1.86,.37-2.78,.58-.98,.23-1.95,.5-2.92,.77-.91,.25-1.81,.52-2.7,.8-.95,.3-1.89,.62-2.82,.96-.89,.32-1.76,.67-2.63,1.02-.91,.37-1.81,.74-2.7,1.14-.87,.39-1.72,.82-2.57,1.24-.86,.43-1.72,.84-2.56,1.3-.88,.48-1.72,1-2.58,1.51-.78,.46-1.57,.9-2.33,1.39,0,0,0,0,0,0l-193.28-193.28c4.82-8.35,3.68-19.19-3.46-26.33-8.53-8.53-22.35-8.53-30.88,0s-8.53,22.35,0,30.88c7.14,7.14,17.98,8.28,26.33,3.46l192.17,192.17s0,0-.01,.01c-5.97,5.24-11.11,11.37-15.22,18.21-.04,.07-.08,.13-.12,.19-.55,.93-1.08,1.87-1.59,2.83-.16,.29-.32,.58-.48,.88-.44,.84-.86,1.7-1.27,2.56-.2,.42-.41,.85-.6,1.27-.36,.79-.7,1.6-1.04,2.4-.21,.52-.43,1.03-.63,1.55-.3,.76-.58,1.52-.85,2.29-.21,.59-.41,1.19-.61,1.79-.24,.73-.47,1.46-.68,2.2-.19,.66-.37,1.33-.55,2-.18,.7-.37,1.4-.53,2.11-.17,.73-.32,1.47-.47,2.21-.13,.67-.27,1.33-.39,2.01-.14,.81-.26,1.64-.37,2.46-.09,.62-.18,1.23-.26,1.85-.11,.95-.18,1.9-.26,2.86-.04,.52-.1,1.03-.13,1.54-.09,1.48-.13,2.97-.13,4.48,0,2.41,.11,4.79,.34,7.14-.25,2.46-.37,4.99-.37,7.54,0,42.37,34.47,76.85,76.87,76.85,42.4,0,76.87-34.48,76.87-76.85,0-2.55-.11-5.07-.37-7.54,.23-2.35,.34-4.73,.34-7.14Zm-76.84,68.33c-37.7,0-68.34-30.66-68.34-68.33,0-4.5,.42-8.89,1.27-13.14,1.5-7.73,4.33-15.01,8.24-21.59,11.9-20.11,33.82-33.62,58.82-33.62,25.01,0,46.93,13.52,58.82,33.62,3.91,6.57,6.74,13.85,8.24,21.59,.85,4.25,1.27,8.64,1.27,13.14,0,37.67-30.64,68.32-68.34,68.33Z"/>
      <path d="M1651.68,607.16c.23-2.35,.34-4.73,.34-7.14,0-42.38-34.47-76.85-76.85-76.85s-76.83,34.47-76.83,76.85c0,2.41,.11,4.79,.34,7.14v.06c-.26,2.46-.37,4.96-.37,7.48,0,42.38,34.47,76.85,76.85,76.85s76.88-34.47,76.88-76.85c0-2.52-.11-5.01-.37-7.48v-.06Zm-76.51,61.19c-37.68,0-68.33-30.65-68.33-68.33,0-4.5,.43-8.87,1.28-13.12v-.03c1.5-7.71,4.31-14.96,8.16-21.5,0-.03,.03-.03,.03-.06,.03,0,.03-.03,.03-.03,11.93-20.11,33.82-33.63,58.84-33.63s46.94,13.51,58.84,33.63c0,0,0,.03,.03,.03,0,.03,.03,.03,.03,.06,3.88,6.54,6.68,13.8,8.19,21.5v.03c.85,4.25,1.27,8.61,1.27,13.12,0,37.68-30.65,68.33-68.35,68.33Z"/>
      <path d="M1069.2,593.25H42.9c-2.5-9.31-10.97-16.17-21.07-16.17-12.06,0-21.84,9.78-21.84,21.84s9.78,21.84,21.84,21.84c10.1,0,18.57-6.86,21.07-16.17H1069.2v-11.33Z"/>
      <path d="M1222.57,607.16c.23-2.35,.34-4.73,.34-7.14,0-42.38-34.48-76.85-76.83-76.85s-76.85,34.47-76.85,76.85c0,2.41,.11,4.79,.34,7.14v.06c-.26,2.46-.37,4.96-.37,7.48,0,42.38,34.47,76.85,76.88,76.85s76.85-34.47,76.85-76.85c0-2.52-.11-5.01-.37-7.48v-.06Zm-76.49,61.19c-37.7,0-68.35-30.65-68.35-68.33,0-4.5,.42-8.87,1.27-13.12v-.03c1.5-7.71,4.31-14.96,8.19-21.5,0-.03,.03-.03,.03-.06,.03,0,.03-.03,.03-.03,11.9-20.11,33.82-33.63,58.84-33.63s46.91,13.51,58.84,33.63c0,0,0,.03,.03,.03,0,.03,.03,.03,.03,.06,3.85,6.54,6.66,13.8,8.16,21.5v.03c.85,4.25,1.28,8.61,1.28,13.12,0,37.68-30.65,68.33-68.33,68.33Z"/>
    </g>
  </g>
</svg>