<?xml version="1.0" encoding="UTF-8"?>
<svg id="Layer_2" data-name="Layer 2" xmlns="http://www.w3.org/2000/svg" viewBox="0 0 99.42 480.76">
  <g id="Layer_1-2" data-name="Layer 1">
    <g>
      <path d="M69.33,385.38v-35.78c18.08-7.8,30.09-25.89,30.09-45.67,0-19.78-12.01-37.87-30.09-45.67v-35.78c18.08-7.8,30.09-25.89,30.09-45.67s-12.01-37.87-30.09-45.67v-35.78c18.08-7.8,30.09-25.89,30.09-45.67C99.42,22.3,77.12,0,49.71,0S0,22.3,0,49.71c0,19.78,12.01,37.87,30.09,45.67v35.78C12.01,138.95,0,157.05,0,176.82,0,196.6,12.01,214.69,30.09,222.49v35.78C12.01,266.07,0,284.16,0,303.93s12.01,37.87,30.09,45.67v35.78C12.01,393.18,0,411.27,0,431.05,0,458.46,22.3,480.76,49.71,480.76s49.71-22.3,49.71-49.71c0-19.78-12.01-37.87-30.09-45.67Zm-19.62,92.38c-25.75,0-46.71-20.95-46.71-46.71,0-19.35,12.21-36.82,30.09-43.65v-39.81c-17.88-6.83-30.09-24.3-30.09-43.65s12.21-36.82,30.09-43.65v-39.81c-17.88-6.83-30.09-24.3-30.09-43.65,0-19.35,12.21-36.82,30.09-43.65v-39.81C15.21,86.53,3,69.06,3,49.71,3,23.95,23.95,3,49.71,3s46.71,20.95,46.71,46.71c0,19.35-12.21,36.82-30.09,43.65v39.81c17.88,6.83,30.09,24.3,30.09,43.65s-12.21,36.82-30.09,43.65v39.81c17.88,6.83,30.09,24.3,30.09,43.65,0,19.35-12.21,36.82-30.09,43.65v39.81c17.88,6.83,30.09,24.3,30.09,43.65,0,25.76-20.95,46.71-46.71,46.71Z"/>
      <path d="M61.71,390.7v-46.43c17.4-5.17,30.09-21.27,30.09-40.34,0-19.07-12.69-35.17-30.09-40.34v-46.43c17.4-5.17,30.09-21.27,30.09-40.34s-12.69-35.17-30.09-40.34v-46.43c17.4-5.17,30.09-21.27,30.09-40.34,0-23.25-18.84-42.09-42.09-42.09S7.62,26.46,7.62,49.71c0,19.07,12.69,35.17,30.09,40.34v46.43c-17.4,5.17-30.09,21.27-30.09,40.34s12.69,35.17,30.09,40.34v46.43c-17.4,5.17-30.09,21.27-30.09,40.34s12.69,35.17,30.09,40.34v46.43c-17.4,5.17-30.09,21.27-30.09,40.34,0,23.25,18.84,42.09,42.09,42.09s42.09-18.84,42.09-42.09c0-19.07-12.69-35.17-30.09-40.34Z"/>
    </g>
  </g>
</svg>