<svg id="Layer_1" data-name="Layer 1" xmlns="http://www.w3.org/2000/svg" viewBox="0 0 1000 1000"><defs><style>.cls-1{fill-rule:evenodd;}</style></defs><path class="cls-1" d="M942.4,598c-7-10-12.38-22.43-17.29-33.91l-5.66-14c-2.5-3.64-14.74-13.76-19-15.63l-14.63-6.65-16.29-42.56-9-15.29-12.3-10.64-17-22.61c-9.92-12.74-21.7-27.5-34.58-37.24-11-8.35-22.38-8.87-26.93-24.28l-8-2.32c-2.49-12.11-13.38-16.73-19.62-25.27-8.09-11.07-11.63-24.62-18.62-37.24-1.86-3.35-4.6-6.37-6.87-9.47.51.83,1,1.66,1.55,2.48l1.33,1.33-13,1.33-2-3.65-.67-.67,8.65-1h4a25.16,25.16,0,0,1-2.64-4.32c-6.87-3.13-34.24,1.43-41.23,2.66l-34.25,2.33-16.29-.33c-5.72,1-12.39,2.94-17.29,4l-19.62-1.33L571,307.38l-19.62-5c-9-2.67-17.7-3.71-27.36-4.93l9.07,1.6c1,1.07.93,5.55,1,7.32l-11.64-3.33h-.66v-5.87l-.67-.09v6h-12.3v-6.32l12.09.33c-3-.39-6.15-.81-9.43-1.32l-11.64,1.33-38.57,7.31c-4.45,1.11-10.44,3.28-16.29,2.33l-21.28-1-16.62-4.32c-20.54-4.81-46.25-5.83-69.83-5.65l-8.31.66L306,300.73c-2,1.35-2.7,8.19-3,11-7.08,2.37-10.54,9.67-14.09,16.36l2.12-3.4,13,1,.33.33-3,4.66c-2,1.79-10.24-.23-13.48-.65-.13.22-.25.44-.37.66L300.33,332c-3.23,4.43-9.7,4.29-16.62,5,.58-1,1.17-2,1.76-3.05a16.08,16.08,0,0,1-6.09,5.71c-1.61,1.36-5.22.14-8,.33-4.18.28-8,2.92-10.64,5-5.29,4.2-7.78,11.59-11.3,17.62-7.73,13.25-13.8,27.5-22.61,39.57-8.53,11.68-25.12,21.92-29.93,35.91-3.48,2-8.77.67-13.3,2L172,446c-9,6.43-12.76,19.23-18.62,28.93l-22.27,32.58c-21.75,27.95-49.61,53-76.81,75.48l-18,23.28.34,1c1.06,1,18.61-.65,22.27-1a140.05,140.05,0,0,1,32.92,1L120.11,604l15.3,1.66L153,607.3l35.58,10.31,91.44,1,25.27,1.33c30.38,5.26,61.76-2.06,88.44-7.32,11.41-2.24,21.75-1.81,34.25-4,9.37-1.63,19.89.47,30.26-1.33l17-.33,27.6,5c15.22,3.68,29.69,9.43,49.21,6.32h8.64l29.6-7c18.57-3.56,38.78,0,58.18-3.32l33.92-.33,25.27,1c14.49,2.54,29.72,2.62,43.22,5.66l38.24,6.65c21.09-4.28,42.79-10.77,64.84-15l28.26-2,11.31,1.66,18.62,3,20.61,9.31,30.59-2.32c.12-.34.23-.67.34-1Zm-.67.34-26.6.33q-4.82-12.81-9.64-25.61l23.94,2.66ZM293.35,341.63h1l-2.66,3.66c-2.64,1.8-9.5,1.44-15,1.33C280.68,342.34,287.25,344,293.35,341.63Zm-3-.66v-.34l1.33-.33H293C292.27,340.9,291.86,341,290.36,341Zm244.39-20.62.33,1v.33c-4.27.84-7.18,2.11-13,2v-4ZM522.11,319v-7.31l12.3,4c.12,1.22.23,2.43.34,3.65v.34Zm94.1-9,1.33,4.33-12.63,2c-.56-2-1.11-4-1.67-6l1.33-.34Zm-5-2.32h1.33l.34.66-1,.67C611.67,308.6,611.44,308.16,611.22,307.72Zm2,1.33.33-.67,1.33.67Zm142.64,64.5,3,4.66c-5.48-2.14-13.54-3-17-7.32Zm-9-3.32,3.33.66v.33C748.22,371.29,747.73,371.26,746.88,370.23Zm4,1.33h3.66l.67,1Zm5,.33,5,1.66-4.66-.66ZM326.6,335.31h2.33l-3,6-14-1h-.67c.56-.77,1.11-1.55,1.67-2.33C316.4,335.52,321.9,337,326.6,335.31Zm-9,0,2-1,2.32.33Zm4.66-1V334l1-.33h1.67V334C324.18,334.56,324,334.35,322.28,334.32Zm200.5,26.93-14.63-6.32v-2Zm-14.63-9.64,14.29-1.67c.11,3.44.23,6.88.34,10.31l-14.3-8Zm15,11.3v2l-15.3-5V355.6Zm1-36.91,11.3,2.33c1.15.59.83.52,1.33,1.66l-14-.66v-3Zm-1-1.66h2.33C524.48,325,524.37,324.84,523.11,324.34Zm12.63.33c.12,1,.23,2,.34,3l-10-2.33V325Zm-5.32-.66v-.33l4-1.33c1.16.59.83.52,1.33,1.66Zm101.42-9.31,1.66,4-13.3,4.65h-.33q-.68-4-1.33-8l9.31-.66ZM628.18,313l.67-.34,1,.67-1-.33Zm14.63,6h-8l-2.33-4.32C635.81,316.16,638.8,318.67,642.81,319Zm-8.64-4.65,5.32.33.66,1.66ZM345.88,331h1c-.77,1-1.55,2-2.33,3-1.94,1.78-10.59.78-14,.67C334.1,331.77,341.4,332.84,345.88,331Zm-13.3,2,1-1,2,.33Zm144.31,6.65h.67c-2.24,2.17-11,1.64-14.63,2l.66-4.32C468,338.1,473.64,337.7,476.89,339.64Zm-10.64-3v-1l1.66.66Zm253.37,27.6,1.66,2-15-.34-3.66-5.65C709.47,360.8,714,363.26,719.62,364.24Zm-3.33-2c1.2.23,1,.13,1.67.66ZM361.84,333l-2.32,2.32-14.3-.33v-.33c.77-1.22,1.55-2.44,2.33-3.66Zm-7.64-2.66c1.05.28,1.38.31,2,1ZM666,330.27l.71.06h-.66l-.05-.06-12.26-.94c-.77-1.55-1.55-3.1-2.32-4.66C656,325.82,663.39,327,666,330.27Zm-8.6-5.26,1,.66C657.45,325.24,658,325.69,657.44,325ZM506.82,360.25l.33.33-.33,5.66-15.63.33.33-6.65Zm-15.3-1q.33-2.82.67-5.65l15,1.66v4.33ZM328.93,469.65l5-10.64,17.63-.34h3C348.75,473.37,348.25,469.93,328.93,469.65Zm20.61,1-4,15-21.94-.67,4.65-14.3ZM334.91,458v-.33l4.32-6.32c2.42-1.1,7.57,0,10.31-1h10l-4.66,7.32Zm6-8.31v-.34l4.65-4.32,12.64-.66h6.31l-4.32,5Zm326.85-10.64-4.32-6.65,18-4H683l4,6.65.67.66ZM693,446l-20.62,2.33-4-8,19-3.66C690,437.91,691.84,443.39,693,446ZM542.73,399.16l16,1.33c1.5,1.57,1.42,7.8,1.33,10.64l-17-1Zm.33,21.61-17.62-8.65v-9.64l16.95,8.31C542.62,414.12,542.84,417.44,543.06,420.77Zm42.56-58.19c.44,2.22.89,4.43,1.33,6.65l-15.3,1-1-8ZM570,349h14.63q.5,6,1,12v1l-15-.66Q570.33,355.1,570,349Zm35.91,23.27q.68,5.49,1.33,11l-15.63-4.32-1-8.31Zm-18.29-3-1-6.65,15-.33c.44,2.66.89,5.32,1.33,8Zm23.95,29.26-17,4q-.68-5-1.33-10C598.82,394.4,607.86,394.6,611.56,398.49Zm-19.62-18.62,15.63,4c.44,3.44.88,6.87,1.33,10.31v1.33l-15.63-3.66Q592.6,385.86,591.94,379.87Zm22.28,21.61h.66l-17.62,3.66h-.33l-1.67-2q8.15-2,16.3-4A3.28,3.28,0,0,1,614.22,401.48Zm-18,4-17.29,3c-.44-1.89-.89-3.77-1.33-5.66l17,.67Zm0,.67a3.35,3.35,0,0,1,2,2.33l.66.66v.33l-18,2.33-1.33-2.33Zm2.33.66-.67-.66,17-3.66q1.5,3.82,3,7.65l-18-1Zm17.62-4v-.33l13.63-.66h3.66q1.17,6.48,2.33,13l-17.29-4.65C617.76,407.69,617,405.25,616.21,402.81Zm17-1.66-17.29.33h-.33c-.78-.88-1.56-1.77-2.33-2.66l16.62-4.32c1.71,1.08,2.6,4.33,3.33,6.32Zm-20.62-3-2-1.33-.33-.67,16-5h1.33l2.32,2.66Zm-2.66-2.66q-.82-5.65-1.66-11.31c6.06,1.47,12.57,3.12,17.62,5.32C625.86,391.23,613.5,395,609.89,395.5Zm-1.66-12q-.83-5.49-1.66-11l15,5.32c.67,3.11,1.33,6.21,2,9.31Zm-2-12.31,12.3,1,2.66,4.66Zm-14,20.29-15.63-3q-.66-5.81-1.33-11.63l16,2.66Q591.77,385.53,592.27,391.51Zm-16-2.33,16,3q.83,5.32,1.66,10.64l-16.62-.66q-.51-6.31-1-12.64Zm2,19.62-16.95,2.33H561l-1-10.64,16.62,2.32C577.2,404.81,577.75,406.8,578.3,408.8Zm-.66.66c1.38.44,1.05.17,1.66,1.33l1,1-17.62,2c-.22-.34-.45-.67-.67-1l-.66-.67Zm.66,3.33c3.18,0,3.67,1.73,4,4.32l-18.28,3q-.68-2.66-1.33-5.32Zm3.33,0,17-2.66h1c.66,2.88,1.33,5.76,2,8.64l-18.29-2Zm18.62-2.66,17.62,1q1,5.64,2,11.3v1l-17.62-4.66C601.58,415.89,600.92,413,600.25,410.13Zm18.62,1,16.63,4.32q1.15,6.32,2.32,12.63v1.33l-17-5.65Q619.87,417.45,618.87,411.13Zm18.62,19.28c2,1.2,3.07,5.07,4,7.32H623.19q-1.16-6.5-2.32-13Zm1.66.33,17.63-3.32h1c.34.44.67.88,1,1.33l3.33,3.32-19.29,5.66Zm0-1q-1.15-6.83-2.32-13.64c6.83,1.19,17.08,3.81,19.61,9.65l.67.66Zm-2.66-14.63q-1-6.5-2-13l16.62,3.66q1,7.14,2,14.29Zm14.3-10.31-16.62-3.66q-1.33-3.5-2.66-7l15.29-2h1.66q1.17,6.15,2.33,12.31Zm-2.66-13.3-17.29,2-2-2.33-.67-.33v-.33l16.63-5q1.65,2.84,3.32,5.65Zm-21-1.67-2-1.33-.33-.66,16.29-6.32a3,3,0,0,1,2,2l1.33,1Zm-2.66-2.66c-.66-3-1.33-6-2-9l5.32-.34h10.31l2.66,3Zm-2.66-10c-.66-1.55-1.33-3.1-2-4.66,4.51,0,14.69.14,16.29,3.33l1.33,1.33Zm12.64-4-15-1.66q-.84-5.49-1.67-11l13.3-2h2q.66,6.48,1.33,13Zm-15.63-1.66-15-1.33q-.84-4.16-1.66-8.32l14.29-1.33C618.48,362.43,618.16,368.67,618.87,371.56Zm-17-10.31-1-12.3,14.63,2c.55,3,1.1,6,1.66,9Zm-.66,0-15,.66-.66-13h14.63Q600.75,355.1,601.25,361.25Zm-15,9.31h3.33c.44,2.66.89,5.32,1.33,8l-16-2.33c-.33-1.66-.67-3.32-1-5Zm-10.64,17.62-16.29-2q-.5-5.32-1-10.64l16,1.33Q575,382.54,575.64,388.18Zm0,.67q.51,6.64,1,13.3l-16.29-2.33q-.5-6.48-1-13Zm-15,23.27c.33.67.67,1.33,1,2l-17.62,6.65h-.34l-.66-9.64Zm.33,3c1.5.76,1.55,2.64,2,4.32-.76,2.46-14.79,8.12-18,9.31h-.33q-.5-3.5-1-7Zm-16.29,20.94-18.62,1.33-.33-12.3,18,4.66C544.06,431.85,544.39,434,544.72,436.06Zm-169.58-6.65q1-7.64,2-15.29l16.62-4.32h.34q-.84,8.31-1.67,16.62Zm14.63,7.65-18.28,2q1.49-4.33,3-8.65l17.29-3.32C392.85,427.52,389.93,434.91,389.77,437.06Zm-12.3-23.94q1-7.15,2-14.3l16.95-1q-1,5.48-2,11Zm19.95-15,17.63,1.33v.33c-.78,1.88-1.56,3.77-2.33,5.65-2.7,2.7-13.47,2.62-17.63,3.33Q396.26,403.48,397.42,398.16Zm20.95.33L429,402.15l-11-3-.67-.34Zm-11-4.32H421l-1.66,2.66C417.26,397.63,409.89,395.66,407.4,394.17Zm12.3,3.66v-.34c.67-1,1.33-2,2-3l16.62,1.33c-.44,2.66-.89,5.32-1.33,8Zm35.58-6-16,3.33q.66-5.16,1.33-10.31l15.63-3.33C455.94,385,455.61,388.4,455.28,391.84Zm.66.66,16.3-2.66q-.35,5-.67,10l-16.62,4Zm-16-8.31-15.62,4q.83-4.49,1.66-9l14-4h1.33Q440.65,379.71,440,384.19Zm-1.33,1h1q-.5,5-1,10l-16.29-1.67,1.66-4.32Zm.67,10.64L455,392.5h.33q-.5,5.65-1,11.31l-16.62.33Q438.48,400,439.32,395.83ZM455,405.47c2.34-3.32,12.11-2.86,16-4.65-.11,1.44-.23,2.88-.34,4.32l-16.95,5.32Q454.28,408,455,405.47Zm16,.34,16.62-4.33c.79,1,.19,4.22,0,6.32l-17.62,4C470.24,409.8,470.57,407.8,470.91,405.81Zm.33-1c1.57-7.5,10.81-5.89,16.62-9h1l-.66,4.66Zm17.62-3.33,17.29-2.66v7.65l-17.62,1.33Zm-16.62-1.66.66-10.31,16-2c.91.88.09,5.09,0,7.31Zm0-11-16,2.66,1-10.31,15-2.66C473.8,380.23,472.46,386.18,472.24,388.85Zm-16-8.32-15.63,3.33c.44-3,.88-6,1.33-9l14.3-3.32h1Zm-15-6.31-15,4c.44-2.55.89-5.1,1.33-7.65l14.3-4.32C443,367.54,441.72,372,441.31,374.22Zm-14-4.66-15.3-.33,2-6.65,14.63.33Q428,366.24,427.35,369.56Zm-.33,1v.33c-.56,2.33-1.11,4.66-1.67,7-1.49,1.29-12.52.41-15-.66h-.66c.66-2.44,1.33-4.88,2-7.32Zm-1.67,8.64v.34c-.55,2.88-1.11,5.76-1.66,8.64l-15.29-1.66h-.67c.55-2.77,1.11-5.54,1.66-8.31ZM423,388.85l.33.33-2,4.32H405.07c.78-2,1.55-4,2.33-6Zm-5.66,9.31c-5.26,1.31-13.09-.69-19.28-1l2.66-3.66Zm-1.66,1.66,18,4.32-1,1.67c-3.61,2.05-13.28.41-18.95.33C414.38,404,415.05,401.93,415.71,399.82Zm18.62,4.66,17.29,6.65c-5,1.5-13.25-3.33-18.62-4l-.33-.67Zm3.66.33h16c-.33,1.88-.67,3.77-1,5.65Zm15.63,6.65,16.62-5.32c-.33,1.88-.66,3.77-1,5.65H453.62Zm16.29,1,16.62-3.66h1l-.66,7.65-18,3.32C469.24,417.33,469.58,414.89,469.91,412.46Zm17.62,4.65,18.29,1v11.64l-18.62-3.66Zm.33-.66c.11-2.55.23-5.1.34-7.65l17.95-1.33-.33,10Zm18.62,38.9,19.62,5.32.33,11.3-20.28-10Zm19.62-17.29,17.29-1.33h1.33c.33,2.1.67,4.21,1,6.32l-19.29,8Zm0,21.94-19.62-5.65V445l18.29,6.65C526.32,452.84,525.81,457.79,526.1,460Zm-19.62-62.17-17.29,2.66c.11-1.67.23-3.33.34-5l16.29-3.66C507,393.05,506.29,396.5,506.48,397.83Zm0-7-16.62,3.66.33-7,16.29-1.33Zm-17-4-16.3,2c.23-3.44.45-6.87.67-10.31l16-2Zm-16.3-9.31-16,2.66q.51-4.49,1-9l15.3-2.32h.33Q473.57,373.22,473.23,377.54Zm-15.62-7-15.3,3.32c.33-2.66.67-5.32,1-8l14-3h1.33ZM443,365.24l-14.63,4.32H428q.67-3.31,1.33-6.65L443,358.59h1Zm-14-4c-2.06,1.88-11.42.77-15,.66.55-1.66,1.11-3.32,1.66-5l8-.67h6.65Zm-15.63.66-15-.66,2-5.32,14.64.66C414.49,358.37,413.94,360.14,413.38,361.91Zm-.33.67v.33c-.55,2-1.11,4-1.66,6l-15.63-.67c.78-2.1,1.55-4.21,2.33-6.32Zm-2,7.31c-.67,2.44-1.33,4.88-2,7.32l-15.63-.67c.67-2.43,1.33-4.87,2-7.31Zm-2.33,8.32q-.84,4-1.66,8l-16.3-.67c.78-2.77,1.55-5.54,2.33-8.31Zm-2.33,9q-1,3.17-2,6.32l-16.95-4.32,2.66-2.66Zm-14.3,3.66-7.31-.66,1.66-.67Zm7.65,2.33v.33l-2,3c-4.05,1.88-12.74,1.42-17.95,1.33l2.66-7Zm-18-2.33q-1.32,3.5-2.66,7l-17.29,2.32,3-10.64,17,1Zm-4.32,8h1.33q-1.16,7.32-2.33,14.63l-16.62,4.66q1-8.31,2-16.63C364.81,398.72,373.47,400.36,377.47,398.82Zm-2.33,15.63h1.33q-1.16,7.49-2.32,15l-18-2.32-.33-.67,3.32-7.31Zm-1.33,15.63v.33q-1.65,4.32-3.32,8.65l-18.29.33q1.5-5.82,3-11.64Zm13,8.31h1.66c-4.06,5.5-13.86,3.13-21.61,5C371.53,438.13,379.23,441.19,386.78,438.39Zm21-3-2.33,4-18.62,2.33C391.14,435.81,400.37,438.43,407.73,435.4Zm-17.29,2q1.33-5.31,2.66-10.64l16.63-6c1.61,2-.83,10.78-1.33,14Zm3-11.3q.84-8.31,1.66-16.63l15.63-2.32h1.67q-.84,6.32-1.67,12.63Zm19.95-19.29,18,.67c-.67,2.66-1.33,5.32-2,8l-17.95,4Q412.38,413.13,413.38,406.8Zm18.62,1,18.29,4.32v.34l-1.66,3.32L430,415.45C430.67,412.9,431.34,410.35,432,407.8Zm19,4.66,18,.33q-.5,3.48-1,7l-18.62-3.66C449.85,414.89,450.4,413.67,451,412.46Zm17.62,8.31,18.29-3.33q-.35,4.15-.67,8.32l-18.95.66C467.69,424.54,468.13,422.65,468.58,420.77Zm18.29,6,18.95,3.66-.33,12.64.33.66-19.62-5.32Q486.53,432.57,486.87,426.75ZM506.15,463l20.28,10c.11,1.44.23,2.88.34,4.32v3.33L505.82,472Zm20.28-11.31L545.05,444c1.69,1,1.64,7.5,1.67,10l-20,6C526.66,457.23,526.54,454.46,526.43,451.69Zm19.29-15.29,18.95-7.32q.68,4.32,1.33,8.65v1.66l-19,3.32h-.33C546.38,440.61,546.05,438.5,545.72,436.4Zm0-.67c-.33-2-.67-4-1-6L563,421.43c.55,2.33,1.11,4.66,1.66,7Zm18.62-13.63v-1L582,417.78h.33c.67,3.1,1.33,6.2,2,9.31l-18.62,1C565.23,426.09,564.78,424.09,564.34,422.1Zm19.28-4.32,18,1.66q1,6.15,2,12.3l-18.29-4.32C584.73,424.2,584.18,421,583.62,417.78Zm19,2,17.62,4.66q1,6.65,2,13.3l-17.63-5.66Q603.58,425.92,602.58,419.77Zm19.62,18.62q1.32,6.32,2.66,12.64l-18.29-5.66q-1-6.31-2-12.63Zm1,.33h19c1,1.89,2,3.77,3,5.66l.66.66-20.28,6Q624.35,444.88,623.19,438.72Zm19.62-.33,19.29-5.65,4.65,6.65-20.28,5.32Zm20.28-6.65-4.32-4.65,18.29-5c2.32.72,4.15,3.42,5.32,5.32Zm-4.65-5.32-4-5.32,17-2.66c2.7.45,3.5,1.77,5.65,2.66Zm-4.32-6q-1.17-7.15-2.33-14.3l16.62,4.32,3.66,7.32Zm-2-15.3c-1.89-1.9-2.46-9.85-2.66-13l16.29,2.66q1.17,7.32,2.33,14.63Zm-3.32-14q-1.34-2.82-2.66-5.65l15.29-3h1.66q1.17,5.82,2.33,11.64Zm13.63-9.64-17,3c-1-1.1-2-2.21-3-3.32l16-5h.66l3.33,5Zm-20.62-1h-.33c-.89-1-1.77-2-2.66-3l16.63-6.65,2.32,3.33,1,1Zm-3.32-3.65-3-3.33,16.29-7.31,2,2.66,1.33,1.33Zm-3.33-4-1-14.63,15-.34q1.32,3.82,2.66,7.65Zm-1-15.3q-1.33-2.16-2.66-4.32c5.34.36,11.8,1.05,16,2.66l1,1.33Zm-1.33.33-14.63,2h-.34c-.55-3-1.11-6-1.66-9l14,2.33C631.65,354.1,632.51,356,632.84,357.92Zm-17-7.64c-.56-1.11-1.11-2.22-1.66-3.33,3.5.48,12.55,1.15,14.29,3.66l1.67,1.66Zm-.67,0L600.58,348c-.44-1.22-.88-2.44-1.33-3.66l14,2.33ZM599.92,348v.33H585.29q-.67-3.15-1.33-6.32l14.63,2.33C599,345.51,599.47,346.73,599.92,348Zm-15.3,0v.33H570q-.5-3.66-1-7.31l14.3,1C583.74,344,584.18,346,584.62,348Zm-15.29,1,.66,11.3v1l-15-1-.33-11.64Zm.66,13c.33,2.66.67,5.32,1,8l-15.3,2-.66-11Zm-.66,9.65h4l1,4.32c-4.87.11-15.14.25-16.95-3Zm-11.64,4,.66,10.64-16.29-1-.66-8.31Zm.66,11.3q.51,6.31,1,12.64l-17-1.33-.33-12.31Zm-16,22.95-16.95-8.32c-.11-2.88-.23-5.76-.34-8.64l16.3,5.65Zm.67,12,.66,7.31-18-5-.33-11ZM525.77,451l-18.95-6.65v-13.3l18.62,7Zm-31.59-64.51h-4l.33-10,16.3-1v10Zm-4.32-10.64-16,1.66.66-8.64,15.63-1.33Zm-16-7.65-15.63,2.33c.33-2.66.67-5.32,1-8l15.29-1.66Zm-15.3-6.32-15,3.33c.44-2.33.89-4.66,1.33-7l13.63-3h1Q459.1,358.59,458.6,361.91Zm-14.29-4.32-14.63,4.32q.66-2.66,1.33-5.32l14.29-5Zm-27.93-1.66c.55-1.44,1.1-2.88,1.66-4.32l13.3-1h1C429.59,358.18,424.93,355.12,416.38,355.93Zm-.67-.33-15-.34,2-4.32,14.63.67Zm-13.63-4.66v.33l-2,4H385.45q1.33-2.16,2.66-4.32Zm-13.64-.66,2-2.33c1-.89,3.63-.52,5-1h9.31l-1.33,2.33C400.4,351.06,393.1,350.39,388.44,350.28Zm11.31,5.65c-3.26,7.64-7.32,5.07-17,4.65l2.33-4.65Zm-2.33,6q-1.16,3.16-2.33,6.32l-15.62-2,2.66-4.66Zm-2.66,7v.33c-.66,2.33-1.33,4.65-2,7l-16.3-3.32c.89-2,1.78-4,2.66-6Zm-3,8c.51,2.69-1.15,5.67-1.66,8.64l-16.63-5c.78-2.32,1.55-4.65,2.33-7Zm-2.66,9,.33.67h-.66c-3.17,4.13-13.24-.29-19.29-1l3-4.32Zm-4.66,3.33c-4.19,1.93-13.19-.21-18.62-.33l3-2.66Zm-36.9-.33c1.1-2,2.21-4,3.32-6l17,3C364.44,390,355.11,389,347.55,388.85Zm16.29.66q-1.33,5.33-2.66,10.64l-17,2.66q1.33-6.48,2.66-13Zm-4.32,11.64h1.33q-1,8.48-2,17l-17,3q1.17-8.81,2.33-17.62Zm-2,18h1l-3.66,7.64-17.62,1C343.17,419,348,423.29,357.52,419.11Zm-8.31,8.64h5.32l-3.33,11v.67l-18.62-.33q2.16-5.32,4.33-10.64Zm12,12.3h8.31v.34l-4,3-18.29.66C351.69,438.64,354.44,442.48,361.18,440.05Zm4.65,4.33,17.63-1.67h1l-3.32,4.66c-1.64,1.62-15.81,1.76-19.62,1.66Zm19-1c5.2-2.54,13.62-.76,19.28-3-.77,2-1.55,4-2.33,6L381.79,448Zm20.28-2.66,18-2.66h1.33v.33q-1.17,3.5-2.33,7V446l-19.62.66C403.3,444.71,404.18,442.71,405.07,440.72Zm1-1.33c4.33-6.45,12.66-5.12,19.95-8.65,1.46,1-.47,4-1,6.32Zm3.32-5q1-7,2-14l17-4c1.68,2-.63,10.15-1,13.3ZM430,416.45l18.29.33v.33c-.56,2.66-1.11,5.32-1.67,8l-18.28,4.32Q429.17,422.93,430,416.45Zm19.28.33,18.29,3.66c-.33,2-.66,4-1,6l-18.95-1.33C448.18,422.32,448.74,419.55,449.29,416.78Zm18,10.64,13-.67h6l-.66,11.31-19.62-2.66C466.36,432.74,466.81,430.08,467.25,427.42Zm18.95,11.64,19.62,5.65-.33,9.31-19.95-6ZM505.82,473l20.95,8.65.66,8.64-21.61-3Zm20.95-12.3,20-5.65.66,16.29-20,1Zm20-16.63,19.28-4h.33q.51,7.65,1,15.3v.33L547.71,454Zm18.95-15,19-1q.84,6,1.66,12L567,439.39C566.56,436,566.11,432.52,565.67,429.08Zm20-1,18,4.33q1,5.64,2,11.3V445l-18.29-4.65Q586.46,434.24,585.62,428.08Zm19.62,18c2,2,1.88,8.62,2.66,11.64v1l-19.29-1.33q-.66-8.14-1.33-16.29Zm1.66.33L624.52,452l3.66,7.32v.33l-19.28-1Q607.9,452.52,606.9,446.37Zm19,5.65,19.62-6.31c1.95,1.12,3.87,5.48,4.32,8l-20.61,6Zm21.28-6.31v-.34l20-5.32q2.34,4.32,4.66,8.65l-21,4.65Zm24.61,3.65,4.65,9.65-21.28,4.65-4-9.64Zm1.33,0L691.36,447h2.32q2.34,5,4.66,10v.33l-21,2Zm23.94,9h2q2.5,6.15,5,12.3l-21.61.67L678.06,460Zm1.33,13.3H704q3,5.49,6,11V483l-22.28,1.33q-2.33-5.82-4.66-11.64Zm7,0c11.21,2.09,22.31,1.28,26.6,10.31l.67.66C713,483.1,711.7,485.52,705.32,471.64Zm-.66-1q-2.5-6.15-5-12.3l20.28,1q2.65,7.14,5.32,14.3Zm-5.32-13.3q-2.34-5-4.66-10L712,446.7c4.39.27,6.3,8.62,7.65,12Zm-5-11.3-5-9.31,13.3-.67H709q2.49,5,5,10ZM689,435.73l-5-7.65,19-2.32q2.67,4.65,5.32,9.31Zm13.63-10.64-18.95,2-4.32-4.33-.34-1,18.29-3.66c1.74,1,3.59,3.73,4.32,5.65.34.33.67.67,1,1Zm-24.94-4-3.32-2.66-.67-.33L691,413.79c2.91.52,3.68,2.27,6,3.32Zm-5-3.66-3.66-7L690,413.12Zm12.63-6.31-16.62-1.33q-1.17-7.32-2.33-14.63l16.29,3q1.34,6,2.66,12Zm-3-14c-15.7-.84-14.93-1.81-18.62-14.63l16.29,1q1.17,6.32,2.33,12.63Zm-2.66-14.3-16-1.33-3.66-5.65,14.3-1.66c3.73.27,4.26,5.53,5.32,8.31Zm-3.66-9.31-16.62,1.66-3-4.65,15.3-3.33h1.33l3,6Zm-19.95-3.66-3.32-4,16-4,2.66,3.66,1,1Zm-3.66-4.65c-.77-2.33-1.55-4.66-2.32-7v-.34l14.29-3h1.33c.89,2,1.78,4,2.66,6Zm12.64-11-15.63,3-2-1.66c-.26-2.79,11.23-4.58,14.29-6.65l3.33,5Zm-18.62-.34-2.66-4,14.3-7h1.33l2.32,5Zm-2-1,.67.66-13.63-1.33a6.94,6.94,0,0,1-2.66-2.66l14.29.33C643.59,350.94,644,351.94,644.47,352.94Zm-2-4-13.63-.34a3.31,3.31,0,0,1-2-2.32l-.66-.67L638.82,343h1.66c.67,1.89,1.33,3.77,2,5.65Zm-15.3-.34L613.55,346c-.55-1.21-1.11-2.43-1.66-3.65l13,3.32A5.54,5.54,0,0,1,627.18,348.61ZM612.89,346l-13.64-2.66-2-4.32,13.3,3.33C611.72,343.11,612.29,344.61,612.89,346Zm-15-3.32V343l-14-1.66c-.45-1.55-.89-3.1-1.33-4.66l14,2.33C597,340.19,597.48,341.41,597.92,342.63ZM583,341l-14.3-.67-.66-5,14,1C582.29,337.86,582.63,339.42,583,341Zm-14.63,0,.66,7-14.63-.33-.66-6v-.33ZM555,371.56v.33c-3.94,1.2-10.31.74-15.3.66l-.33-9.64,15-2Q554.71,366.23,555,371.56Zm-11.31,1.66h3l-6.32,1-.33-.67Zm8.32,0,5,.33c.12.33.23.67.34,1v.33l-16.3,1.33-.33-1ZM541.4,385.85l.33,9.65v2.33l-16.63-5.66-.33-7.65Zm-16.3,37.91-18-6V407.47l17.29,5Zm-.33.67q.33,6.31.67,12.63l-18.62-7V418.44Zm-17.95-49.55-15.63,1h-.33l.33-8.31,15.63-.67Zm-16.3-8.31-16,1.33c.34-2.22.67-4.43,1-6.65,2.68-2.39,10.67,0,14.3-1.33h1C490.75,362.14,490.63,364.35,490.52,366.57Zm-16-7.32c-2.41,2.5-11.24,1.76-15,2.66l.67-6.65,13.63-1.66h1.66Q475.07,356.44,474.56,359.25Zm-14.63-5-15,3,1.33-5c2-2.78,9.73-2.15,13-3.66h1.33C460.38,350.5,460.15,352.38,459.93,354.27Zm-14.29-4c-2.35,2.73-10.39,3.73-14,5,1.18-7.34,9.27-6.32,14.63-9.31C446.91,346.55,446.4,349.06,445.64,350.28Zm-26.94.33c.45-1,.89-2,1.33-3l12.31-1.33H434c-.45,1.22-.89,2.44-1.33,3.65Zm-.66,0-14.63-.33,2-3.33,14,.67C418.92,348.61,418.48,349.61,418,350.61Zm-13-4.32H391.44l1.66-3.66h14Zm-25.94-6,2.66-5.32,10.31-1.33h2.33c-.44,2.66-.89,5.32-1.33,8Zm13.64,2-2.33,4-14-4.33v-.33l1.67-.66ZM390.11,347l-2.33,3.33-15.3-5.66,2.33-2.32Zm-3,3.66-2,4.32-15.63-6-.33-.67,2.66-3.32Zm-2.66,5-2.32,4.65-16-6c-.11-.22-.22-.45-.34-.67q1.34-2.16,2.66-4.32Zm-3,5.65q-1.32,2.33-2.66,4.65l-16.29-5.65c.89-1.88,1.77-3.77,2.66-5.65Zm-3,5.32c-.89,2-1.77,4-2.66,6l-17-5.65c1-2,2-4,3-6Zm-3.33,6.65c-.88,2.22-1.77,4.43-2.66,6.65l-17.29-5.65,3-6.65Zm-3.32,7.31v.34c-.78,1.22-1.55,2.44-2.33,3.65-4.35,1.8-12.68-1.77-17.95-2.32l3.32-7.32Zm-18-5.32q-1.49,3.33-3,6.65l-16-.66h-.66l3-5.32c1.22-.56,4.17-.44,5.65-1h11Zm-3.65,7.65-3,5.32c-3.8,1.88-12,1.44-17.29,1.33l3.66-7.31Zm-4,7v.34q-1.34,6.31-2.66,12.63l-16.63,2.33h-.33q1.33-7.32,2.66-14.63Zm-3,14q-1,8.64-2,17.29l-18.29-2.33,3.33-12.63Zm-3,18,.33.33v.33l-3,4c-4,2.74-13.17,2.71-18.95,3.33l4-10.31Zm-6.32,7h1.67v.33l-3.66,9.64L313,437.39l5.32-6.65Zm16.3,11.64v.33L345.88,444l-18.95-.33v-.33l5-3.66ZM344.55,445l-4.65,4.66H320.28l5-5Zm-5.65,5.65q-2.49,3.33-5,6.65c-1.2,1.15-18.51,1.05-20.61,1l5.65-7.65Zm-6,8.32v.33q-2.51,5.15-5,10.31H306.65l6-10.64Zm-5.66,11.63-4.65,14-22.28-.67q2.84-6.65,5.65-13.3Zm-27.93,13.3-21.61-.33q3.16-6.48,6.32-13h21.28Q302.32,477.3,299.33,483.94Zm-.33.67q-3.33,5.65-6.65,11.3c-2.41,2.39-17.25,2.55-21.61,3.66q3.15-7.49,6.32-15Zm1,0,22.28,1q-2.67,8.31-5.32,16.62l-23.61-5.32Q296.66,490.76,300,484.61Zm23.27,1,22,.66v.33l-4,17.29c-1.83,1.42-18.45-1.24-22.94-1.33Zm23,1.66c1.86-1.65,17.81.25,21.94.33q-1.5,9.48-3,18.95l-22.94-2Zm.33-1.66,4-15,17.29.67h4l-3.33,15.63ZM350.87,470l4.32-11,16-.67h5L372.48,470Zm5.32-12.3,4.32-7.65,18.62-1h1l-3.66,8.31ZM381.13,449l19.28-1.33c-.77,3.1-1.55,6.21-2.32,9.31l-20.62.33Zm20.61-1.33,13.31-.66h6.65v.33q-1.17,5.31-2.33,10.64l-20.62-.67Q400.25,452.53,401.74,447.7Zm20.95-1,.67.34h19.28q-.83,6.65-1.66,13.3l-20.61-2Q421.53,452.52,422.69,446.7ZM423,446c2.17-13.32,7.8-5.93,18-9.64h3.66q-.84,4.82-1.66,9.64Zm2.66-9,2.32-6c2.54-3.54,13.44-3.16,17.63-5,1.31,1.56-.39,6.34-.67,9Zm21.61-11,18.62,1,.33.33q-.5,3.82-1,7.65l-19.61.33Q446.47,430.74,447.3,426.09Zm18.62,10.31,18.95,2.32-.33,9-20,.67Q465.25,442.39,465.92,436.4Zm19.62,12.3,19.95,6c-.11,2.44-.23,4.88-.34,7.32l-20.28-1.66Q485.2,454.52,485.54,448.7Zm20.28,39.23,21.61,3.33.33,3.66v3.65l-22.27,2Zm21.61-14.63,20.28-1q.35,4.49.67,9L527.76,481Zm20.28-18.62,19.62,2q.49,8.47,1,17l-20-2.33Q548.05,463,547.71,454.68Zm20.29,1q-.51-7.81-1-15.63l19.28,1q.68,8,1.33,16ZM588,458q.66,7.31,1.33,14.63l-19.95,1q-.51-8.49-1-17Zm.66,0,19.62,1.66q1.17,5.32,2.33,10.64l-20.28,2Q589.44,465.16,588.61,458Zm20.62,1.66,19.62,1q1.49,4,3,8V469l-17.62,1.33h-2.66Q610.39,465,609.23,459.67Zm20.28.67,20.28-6c2,1.45,3.86,6.93,4.33,9.64l-21.28,5Zm24.61,4.32c1.84,1,3.58,4.25,4.32,6.32l.66.66V472c-7.79.13-20.55,2.14-24.6-2l-.67-.33Zm2.32.66-.66-.66,20-4.32c2.92.89,4.54,7.89,5.65,10.64v.33L660.1,472Zm21.95,7h3.66l5,12-21.61-1L660.77,473Zm9,13q2.65,6.5,5.32,13l-22.28-1q-2.32-6.48-4.66-13Zm1,0,17-1.33h5.32l5.65,13.3C695.64,498.77,694.51,501.72,688.36,485.27Zm23.28-1.66h21.61l6.32,12,.66.67v.33l-22.94.66Zm22.94,0,21.61.67,7.32,12.63-21.28-.66C739,495,736,486.77,734.58,483.61Zm-.33-1q-3.5-3.83-7-7.64l19.28,4,7.32,4Zm11.3-5-18.95-4c-2.86-2.38-4.33-10.29-5.65-14l19.28,4q2.67,6.81,5.32,13.63Zm-6-15-18.29-4c-2.76-1.66-4.64-8.61-6-11.63l19.28,2.32q2.49,6.5,5,13ZM715,446l-5.32-10,19.29,1q2.49,5.65,5,11.31Zm-6-11q-2.33-4.67-4.66-9.31l19,.33,4.65,9,.33,1Zm13.3-10H703.66l-4.66-7,18-2,5.32,8.65Zm-24.27-8-4.33-3-.33-.67L711,410.13l5.66,5.32Zm-9.31-5-.34-.66,15-3,6.31,1C704.12,412.05,694.61,412.69,688.7,412.12ZM704,407.47l-17.62,3.66q-1.33-6.33-2.66-12.64l16,2.66,4.32,6Zm-23.27-23.61L697,385.19q1.15,7.65,2.33,15.3C681.14,396.94,685.53,400.56,680.72,383.86Zm16,.66c-13.87-2.27-14.53,2.33-19.29-10.3h16.29l3,10Zm-19.95-11.3-3-6,7-.33h8.64l3.66,6.32Zm12-7H673.07l-3.33-4.33,8-.33h7.65c.67,1,1.33,2,2,3l1.33,1.33Zm-19-5c-1.1-2.11-2.21-4.21-3.32-6.32l13.3-1.33h2l3,7Zm11.31-8.31-15.3,1-2-4.32-.67-.66,11.31-1.33h4l2.66,5Zm-18.62-5c-.78-1.66-1.55-3.33-2.33-5l10.64-1.33h3.66q1.15,2,2.33,4l.66.67Zm-3-6.32c-.78-1.77-1.56-3.55-2.33-5.32h14.3q1.32,2.16,2.66,4.32Zm-.67.33v.34L643.48,349c-.78-2-1.56-4-2.33-6l14.63-6.65Zm-17.95,0c-.67-2.32-1.33-4.65-2-7l14.3-5q1.32,2.67,2.66,5.32Zm-.67-.33V342l-13.3,2.66c-2-.45-2.7-2.31-3-4.32l14-5.32C638.6,337.2,639.37,339.42,640.15,341.63Zm-15.29,3-13.64-3.32c-.44-1.33-.88-2.66-1.33-4l13,3.32ZM610.56,341v.33l-13.63-3c-.45-1.55-.89-3.11-1.33-4.66l13,3.33Zm-14.3-3L583,335.65c-1-.91-1.38-3.1-1.66-4.66l13.3,2.33Zm-14.63-2.66v.34l-14-1-1-5,14,1.33C581,332.43,581.3,333.87,581.63,335.31Zm-13.63,5H553.7c-.22-1.44-.44-2.88-.67-4.32l10.31-.67H567C567.33,337,567.66,338.64,568,340.3Zm-14.3,6.32V348l-15,3.66c-.11-2.88-.22-5.77-.34-8.65L553,341.3C553.26,343.07,553.48,344.85,553.7,346.62Zm-14.63,5.65,14.63-3.66.66,11.64-14.63,2h-.33l-.33-3.33Zm.33,21.61v.34l-15.29-4v-3.66Zm1,2.33h-16l-.33-5C528.37,371.7,538.05,373.38,540.4,376.21Zm.33.67.33,8-16.29-1.33-.33-6.32Zm-16,34.91-17.62-5v-8l17,3Zm-33.91-52.54-15.3.67c.22-2.11.44-4.21.67-6.32h15Zm-15.3-6.31-15,1.33c.33-2,.66-4,1-6l14.63-1C476,349.17,475.78,351.05,475.56,352.94Zm-14.63-5.32-14,3h-.34c.34-1.66.67-3.33,1-5l13-3h1.33C461.6,344.29,461.26,346,460.93,347.62Zm-13.63-3-14,5c.45-1.11.89-2.21,1.33-3.32l13.3-5Zm-12,.34c2.37-4.25,9.46-4.54,13.63-7,.65.74.2.41,0,2Zm-1,.66L420.7,347q.66-2.49,1.33-5l13.63,1C435.22,343.85,434.77,344.74,434.33,345.62Zm-14.3,1-14.29-.33,2-3.66,9.64-.67h4Q420.7,344.3,420,346.62ZM407.4,342l-13.64-.33c.56-2.77,1.11-5.54,1.67-8.31h13.3Q408.05,337.64,407.4,342Zm-12.64-9.31-13,1.33q.68-4.82,1.33-9.64h13.3Q395.6,328.5,394.76,332.65Zm-14,.67V334l-10.64-1.66V332l12-7.32Q381.46,329,380.8,333.32Zm-.67,1.33.33.66c-.77,1.56-1.55,3.11-2.32,4.66l-13.64-6.65-.33-.67,1.66-.33Zm-2.66,5.65c-4.08,2.83-12.39-3.32-17-4.32l-.33-.67,2.33-2Zm-3,1.66v.34l-2,1c-2.21,2.28-11.79-2.43-16-2.66q1.34-2.16,2.66-4.32Zm-3.33,2.66-2,3c-3.82,1.66-11.23-.64-16-1l2.66-5.32ZM367.83,349l-2.66,4c-1.77,1.63-12.09,1.09-14.63.33l-.67.33,3-6.32Zm-3.33,5.65-3,5.32-15.29.66c1-2.1,2-4.21,3-6.31Zm-5,6h1.66c-1,2-2,4-3,6l-15.63.66,2.66-5.32C348.89,360.25,355.4,362.13,359.52,360.58Zm-15.63,3c-2.8,5.56-10.29,7.73-16,10.3,3.8-7.64,10.62-7.15,16.62-12.3Zm-3.33,5a1.69,1.69,0,0,1,.11,1.88c.41-.74.82-1.47,1.22-2.21l10.64-.66h5c-1,2.1-2,4.21-3,6.31l-16,.34,1.95-3.51c-2.26,3.75-14,8.5-16.91,9.16C327.93,373.49,335.06,373.56,340.56,368.56Zm-4.32,7c.81.47-2.1,4.07-2.66,5.65l-15,5C323,379.82,330,380,336.24,375.55Zm-4.32,7c.88,1.17-2,4.7-2.66,6.65l-16,3C317.8,385.78,324.91,386.49,331.92,382.53Zm-3.66,8h.33q-1.32,7.32-2.66,14.63L309,406.47q1.65-6.64,3.32-13.3Zm-3,15.3c-1,4-2,8-3,12-1.79,2.34-13.39,1.46-17.29,1.33l3.65-11C311,405.11,321.39,407.21,325.27,405.81Zm-7.65,13.63h4.32l-4,10.31H299.67l4.65-9.65Zm-.66,11.3-3.66,5.32c-3.8,2.4-14.32-.17-19.95-1v-.34l5.65-4.32Zm13.63,9c-5,5.52-14.3,3.28-23.94,3l5.32-4.32Zm-6.32,5-5,5L299,449.36V449l6-5.32Zm-6.32,6-6,7.65L291.69,458l6.31-7.65ZM311.64,459q-3,5.31-6,10.64H284.7L291,459Zm-27.93,10.64-19.95,4q3-7.15,6-14.3l4.32-.33h16Zm-1.33,1c.73,1-.92,2.86-1.67,4.33l-4,8.64-19,7.32,5.65-16.3Zm-7,14.3c1,.83-2,5.41-2.66,7-4.26,10.42-11.82,12.83-21.61,17.29l6-16.29C259.12,489.69,271.49,487.24,275.39,484.94Zm-6.65,16q-1.65,4.16-3.32,8.31c-4.26,10.3-11.74,14-21.28,18.62q3.15-8.64,6.32-17.29Zm1.67-.66,19.95-2.66h1.33q-3.33,6.81-6.65,13.63l-21.28,5.32Q267.08,508.39,270.41,500.24Zm22.27-2.66L317,502.9v.33l-6.65,11.3-24.61-3Q289.19,504.56,292.68,497.58ZM318,503.23l22.61,2,.34.34-3.66,19.61-25.94-10Q314.63,509.21,318,503.23Zm23.94,2.33,22.61,1.66.34.33-3,20.62-23.6-2.66Q340.07,515.54,341.89,505.56Zm23.94,2,22.95,2.66-3.66,16c-3.06,2.76-13.95,1-18.29,2h-4Q364.34,517.87,365.83,507.55Zm.34-1q1.49-9.3,3-18.62l22.28,2q-1.33,9.65-2.66,19.28Zm3.32-19.61,3.33-15.63,21.61,1q-1.33,8.15-2.66,16.29Zm3.66-16.63,3.66-12h20.61q-1.49,6.32-3,12.64v.66Zm25.27-12L419,459q-1,7.31-2,14.63l-21.61-2Q396.92,465,398.42,458.34ZM420,459l21,2q-.83,8.14-1.66,16.29L418,474Q419,466.49,420,459Zm21.62,2.32,20.94,3.33q-.66,6.81-1.33,13.63l-20.94-1Q441,469.31,441.65,461.33Zm1-1H442q.82-6.66,1.66-13.3l19.62,2q-.33,7.49-.67,15Zm1-14c.67-3.21,1.33-6.43,2-9.64,2.59-2.34,15-.77,19.28-.67q-.5,6.15-1,12.31Zm20.95,3,20-.66q-.33,5.82-.67,11.64L463.92,464h-.33Q464.09,456.69,464.59,449.36Zm20,12,20.61,1.33-.33,9.31-19.28,2.33h-1.67Q484.22,467.82,484.54,461.33Zm20.95,40.24,22.61-2,.33,11.64-23.28.33C505.26,508.22,505.38,504.89,505.49,501.57ZM527.76,482l21,.33c.45,1.44.89,2.88,1.33,4.32v.34l-21.61,3.32Q528.1,486.11,527.76,482Zm20.62-9.64,20.28,2c.56,1.11,1.11,2.22,1.66,3.33V478l-20.94,3.32Q548.87,476.8,548.38,472.31Zm21.28,2.32,19.28-1.33A3.49,3.49,0,0,1,591.6,475h.67l-20.95,3ZM591.6,474l-.33-.67,18.62-2,3.66,1.33.67,1L593.6,475.3Zm21.95-2.33h-.66l18-1.66c2.84.23,3.21,1.22,5.32,2C632.59,473.68,615.48,473.74,613.55,471.64Zm21.28,1.66h3l3.66,9.31H619.54l-3.33-8.31Zm3.66,0,8.31-.33h12.64l5,10.31-21.94-.67Zm26.27,10.64,4.65,13.3-22.61-.66-4-13Zm5,14q2.34,7.14,4.66,14.3l-23.28.66-4-15.29Zm1,0,22,1.33,6.31,12-23.27,1Q673.24,505.05,670.74,497.91ZM694,499.24l19.28-1H717q3.15,6.31,6.32,12.64v.33H700Zm23.94-1,21.28-1h1l7.32,14.3v.33l-23.28-.66Zm23.94-1,22.27.67q4,6.64,8,13.3l-23.27.66Q745.39,504.57,741.9,497.24Zm23.27.67,21-.67h2l8.31,14H773.15Zm-.66-1-7.32-12.3c15.43.63,23,2.64,29.93,12Zm-14.3-17,20.95,5.32C763.07,484.18,755.49,483.6,750.21,480Zm-3-2c-2.88-2.18-4.67-10.09-6-13.63,11.78,3,20.14,7.46,24.27,18.28Zm-6-15c-2.75-2.09-4.39-9.58-5.65-13l17.62,6q2.67,7,5.32,14Zm-5.65-14.3c-2.46-1.76-4.77-8.18-5.65-11.31l16.62,5.32,6,12Zm-6.32-12.3q-2.49-5-5-10l16.3,4.66c2.46,1.46,5,7.83,6,10.64Zm-5.65-11-5-9c12.29,4.14,16.1,2.45,22,13.63Zm-10.64-15,16,2.33,5.32,7C726.11,417.88,717.34,416.21,713,410.46Zm-5.65-2.33,14.63-2h1.66c.33.55.66,1.11,1,1.66l3.65,3.66Zm-2-.66-4.65-6c6.58.66,15.55,1.31,20.61,4Zm-4.65-6.65-3-15.63,16.3,1.33q1.15,8.14,2.32,16.29Zm13-15-16-1.33q-1.65-5.14-3.32-10.3h16q1.66,5.65,3.32,11.3Zm-20-12.63c-1.1-2.11-2.21-4.21-3.32-6.32h16l3.66,6.65Zm-4-7-3.65-5,15.29-1.33,4.32,6.32Zm10.31-8,.67,1-15.3,1.33c-1-2.32-2-4.65-3-7C688.52,355.45,695.23,356.07,700,358.26Zm-.66-1.33,5,2.66A8.51,8.51,0,0,1,699.34,356.93Zm-17.29-4-3-5c5.43,1.15,12.6,3.75,16.3,7Zm-6.32-11c6.5,2.63,12.25,4.2,16,9.65C685.16,349,678.8,348.16,675.73,342Zm-3.33-5.32c5.23,2.88,11.6,4.53,15,9.31C681.64,343.23,675.38,342.23,672.4,336.64Zm-3-4,13,8C677.77,338.4,672.26,336.71,669.41,332.65Zm.33,2,.67.66h-14c-.77-1.77-1.55-3.54-2.32-5.32l13.63,1.67Zm-20-12.64,4.33,2.66C652.13,323.93,650.94,323.57,649.79,322Zm.67,2.33,2.66,4.66-14.63,5q-.84-3.64-1.66-7.31Zm-12.64,10L623.53,340l-2-6,14.3-7C636.49,329.44,637.16,331.88,637.82,334.32ZM622.53,340l-12.64-3.66c-.66-1.66-1.33-3.32-2-5l13,3C621.42,336.2,622,338.09,622.53,340Zm-14-4.32V336l-13.3-3.33q-.66-2.49-1.33-5C601,330,605.9,328.37,608.56,335.65Zm-14-3-13.3-2.32q-.67-2.5-1.33-5l13.3,2.33Q593.93,330.16,594.6,332.65Zm-14.3-3V330l-13.63-1c-.34-1.55-.67-3.11-1-4.66L579,325C579.41,326.56,579.86,328.11,580.3,329.66Zm-14.3,0c.33,1.66.67,3.33,1,5l-14.3.33-.66-4.32v-.33Zm-13.3,11-14.3,1.67-.33-7,14,.67Zm-28.93,22.28H538.4q.35,4.66.67,9.31l-15.3-7Zm-.33-1c1.38-3.61,11.09-7.37,14.63-9l.33,9.31Zm.33,21.62-16.29,2v-10l15.63,1.66C524.11,378.25,523.9,381.46,523.77,383.53Zm.34,1v7.32l-16.63-1v-4.65Zm0,8.32.33,3v5.32l-17.29-3.32v-6Zm-17-38.24-15-1.66.33-5.32,14.63,4.65Zm-29.93-8.31c.11-1.67.23-3.33.34-5l14,3.32h.67C491.19,348.3,481.26,346.49,477.22,346.29Zm14.63,1.33-.33,5H476.23l.66-5.32Zm-15.62-2c-2.07,2.14-11.18,1.67-14.63,2l1-5.32,14.3-1ZM448,345c1.58-6.66,9.18-5.08,14.63-7.65C464.62,343.33,452.08,343.76,448,345Zm-11.3-3q.66-3.48,1.33-7l13,.33v.34C448.54,338.63,440.66,340.87,436.66,342Zm-.67,0-13.63-.66c.44-2.77.89-5.54,1.33-8.31l13.63,2Q436.66,338.48,436,342Zm-14.29-1-13.64.66q.68-4.15,1.33-8.31l13.3-.33Zm-12.64-8.32H395.43c.55-2.77,1.11-5.54,1.66-8.31h13.3C410,327.11,409.5,329.88,409.06,332.65ZM396.42,323c-1.82,1.68-9.76.78-13,.67.55-2.66,1.11-5.32,1.66-8l13,.33C397.53,318.36,397,320.68,396.42,323Zm-13.63.67L370.49,331q.83-5.31,1.66-10.64L383.79,316C384.81,316.69,383,321.62,382.79,323.68Zm-13,7c-1.87,1.79-10,.3-12-.67-1.36-1.61.21-7.24.34-10.3l13.3,1C370.93,324,370.38,327.33,369.82,330.66Zm-8.31.66a5.76,5.76,0,0,1-4.65-.33Zm-3,4.66v.33l-2,3.33c-3.45,1.88-10.1,3.11-14.63,3.32q1.33-3.66,2.66-7.31Zm-4.32,5.32h1c-.88,1.77-1.77,3.55-2.66,5.32l-13.63,4.65q1.34-3.64,2.66-7.31Zm-2.66,6.32c3.12,4.07-13.11,10.69-16,12q1.32-3.49,2.66-7Zm-3.33,7-.66,1.66c-2.57,5.44-9.64,8.93-15.63,10.64C336.29,357.65,340.69,359.77,348.21,354.6Zm-30.92,17.95H317q1.32-4.65,2.66-9.31l13-2.32,1.33.33C330.44,368.7,325.16,369.67,317.29,372.55Zm12.63-4c-.44.89-.88,1.78-1.33,2.66-2.6,4.56-10.28,6.07-16,7.32C317,372.28,323.51,372.84,329.92,368.56Zm-4.65,7c1.06,5.22-13,9.22-17.29,11C312.84,376.59,316.44,380.39,325.27,375.55Zm-5,6.65c-.33.66-.66,1.33-1,2-3.48,4.24-10.79,7.6-16,10C308.59,385.53,312.06,387.17,320.28,382.2ZM315,388.51l-1,1.67c-3.33,3.58-9.17,5.61-14,7.65C303.62,393.5,310.6,392.11,315,388.51Zm-3.66,5q-1.49,6.48-3,13l-17,.67C296.38,399.24,303.7,398.76,311.3,393.5Zm-13.3,14h10l-4,12-17.29.66,4-12.3Zm2.66,12.63h3L299,429.41l-18.95-3C287.46,417.4,290.37,423.87,300.66,420.1Zm-2.66,10-6.31,5-19-2.66,6-5.32Zm13,8-5.32,4c-3.3,2.19-15.12-.72-19.95-1v-.33l6-4.66Zm-6.65,5.32-6.32,6-19.95-1,6.32-6.32ZM297,450v.33L290.69,458l-20.28.33q3.15-4.48,6.31-9Zm-21.28-.33c-6.64,9.84-12.8,10.89-24.61,15.29l5.32-15.63h19.29Zm-8,10c.94,1.33-.38,2.45-1,4-5.14,12.75-9.12,14-20.95,19.62l5-16.63C253.91,462.64,263.44,462.52,267.75,459.67Zm-6,15.63c.78,1.07-4.41,12.69-5,16l-19.28,5.65,7.65-12.3Zm-6.65,17.29h1q-3,8.48-6,17l-23.27-3C234.49,496.54,243.7,498.3,255.11,492.59Zm-5.32,18-6.65,17.63-27.6-10,10.31-11Zm-7.31,18.62-9.31,13-28.93-10.31v-.33l10.3-12.63Zm1.66-.33,17.29-10.31q-3.33,8.33-6.65,16.63L234.5,541.8Q239.32,535.32,244.14,528.83Zm18.62-10.64L283,512.54h1c-4.81,15.31-12.5,18.32-28.26,22.28Q259.26,526.51,262.76,518.19Zm22.61-6,24.27,3.32-7,13.3-23.94-1.33h-.67Zm25.27,3.65,26.27,10q-3.17,5.49-6.32,11l-26.93-7.65Zm27.26,10.31,23.61,3-5.65,9.65c-2,1.74-20.07-1.24-24.61-1.33Q334.58,531.83,337.9,526.17Zm24.61,3,21.94-1.66q-1.81,6.64-3.65,13.3l-23.94-1Zm23.27-1.66,21.29-1h1.33v.34l-3.66,8.31-22.61,5.65h-.34Zm.34-1q1.83-8.14,3.65-16.29l22.62,3.66-3.33,11.64Zm3.65-16.95q1.34-9.81,2.66-19.62l21.62,3q-.84,10-1.66,19.95Zm2.66-20.29,3-16.95,21.28,2.32q-1,8.82-2,17.63Zm25.28-14.63L439,478q-.67,9.3-1.33,18.62l-21.62-4Q416.88,483.61,417.71,474.63ZM440,478.29l21.28,1q-.66,7.48-1.33,15l-21.28,2.33Q439.33,487.43,440,478.29Zm22.28,1,20.28-4-.33,15-20.95,4h-.33Q461.59,486.77,462.26,479.29Zm0-1q.66-6.81,1.33-13.63l19.29-3.33h1l-1,13.3Zm21.61-3,20.95-2.66v14.3l-21.61,3Zm21.28,37.24,23.28-.33.66,16-23.6-1.33C504,525.11,505.05,516.11,505.15,512.54Zm23.61-14-.33-5.32v-2l21.94-3.33q.51,4.67,1,9.31Zm22.28-12c-.44-1.44-.89-2.88-1.33-4.32L569.66,479H571c.66,1.77,1.33,3.54,2,5.32Zm21-8,19.28-2.32h2l2.66,6.65L574,484.28C573.32,482.39,572.65,480.51,572,478.62ZM594.27,476l20.28-1.66c2.13,1.28,3.31,6,4.32,8.31H596.59C595.82,480.4,595,478.18,594.27,476Zm24.93,7.65,3,13H599.59q-1.17-6.31-2.33-12.64Zm1,0h21.61l4,12.64v.33H623.19Q621.71,490.1,620.2,483.61Zm25.94,14,4,15.29-23.28.33q-1.67-7.8-3.32-15.62Zm-19.29,16.29h23.61q1.5,10,3,20v1l-23.94.33q-1.34-10.47-2.66-20.95Zm24.61.33v-.33l23.27-1,4,19.62v1l-24.27,1.33Q653,524.52,651.46,514.2Zm24.6-1.33,23.28-.66q2.65,9.46,5.32,18.95l-24.61,2Zm24.61-.66h23.27q3.33,8.14,6.65,16.29l-24.94,2.33Zm24.27,0,22.94.33,8,13.63.33,1-24.6,1.33Zm24.27.33,13-.33h10.31l8.31,15.62-23.28-.66Zm24.61-.33h23.27l9,14.29.33,1-24.27.67Zm24.6,0,23.28.33,9.31,14,.66.67-24.27.33Q802.92,519.85,798.42,512.21Zm-1-1-8.32-14,22.28,1.67,8.31,11.63,1,1Zm11-14-8.31-.33c-13.13-1.91-13.77-.38-20.29-9.31l19,4.66Zm-.33-1.33,6.65,2.66A14.73,14.73,0,0,1,808.07,495.91Zm-35.92-11.63c9.89.17,17.64,1.38,23,6Zm-5-1.33-7.32-12,9.64-.34h11q3.15,6.83,6.32,13.64Zm-7.65-12.64-5.32-14,17.62,5.32,7.65,8Zm-6-15q-2.65-6-5.32-12c9.37,4.53,17.17,8.8,22.61,17.29Zm-11-23.61c10.59,6.35,15,7.55,21,18.95C754.12,445.17,746.74,442.68,742.56,431.74Zm-6-10c9.32,5.63,14.2,7.84,20.28,17C747,433.9,742.25,431,736.58,421.77Zm-5.32-8c7,4.4,13.75,8,18.62,14.63C742.54,425.52,735,420.48,731.26,413.79Zm-6.32-7.32,14.63,4.32q2.49,5.16,5,10.31C737.57,416.83,729.78,412.93,724.94,406.47Zm-6.32-2.66-.33-.66,16.62-4.33q2.34,5.65,4.66,11.31Zm-1.66-1q-1.17-8.15-2.33-16.29h16.63l4,11.64Zm14-17H714.63Q713,380,711.31,374.22h16q1.83,5.65,3.65,11.3ZM711,373.55l-4-6.65,15.63.33,3.66,5.66.66.66Zm-21.28-25.93c6,2.88,11.86,4.36,15,10.3A25.64,25.64,0,0,1,689.69,347.62ZM686,343l12.3,2.66,3.32,6.65C696,349.91,689.45,347.67,686,343Zm-3.33-3.32-.66-.34L693.68,338h2l2.66,7C693.34,344.18,685.35,343,682.71,339.64Zm-4.65-3L692,330q1.5,3.66,3,7.32C689.31,337.54,681.83,339.66,678.06,336.64Zm-1-.66-2.33-6.65,13-3.33H689l3,3.33Zm-.67-.33-12.3-8.32,10,2C674.84,331.43,675.62,333.54,676.39,335.65ZM660.77,326v-.33l9-2h1.67l2.32,5Zm10-3c-5,.49-9.16,2.59-13.3,1.33l-2-4.65,10.64-1h2.32q1.17,2,2.33,4Zm-14.63.33-8.31-4,7,.34C655.22,320.91,655.67,322.12,656.11,323.34Zm-6,0v.34L636.49,326l-1.66-6.31,13,.66ZM635.83,326l-14.3,7.32c-.44-3.1-.89-6.21-1.33-9.31l13.3-4.32C634.28,321.79,635.05,323.9,635.83,326Zm-15.3,5.66v1.66l-13-3c-.45-2-.89-4-1.33-6h13Q619.88,328,620.53,331.66ZM606.9,330l-13-3c-.44-1.88-.88-3.77-1.33-5.65l12.31,3C606.09,325.43,606.41,328.3,606.9,330Zm-14-3.32-12.64-2.33c-1-.95-1.25-3.11-1.66-4.65l13.3,1.66C592.27,323.12,592.6,324.9,592.94,326.67ZM579,324v.33l-13.63-.66c-.22-1.44-.45-2.89-.67-4.33l13.3.34C578.3,321.13,578.64,322.57,579,324Zm-14,.33.67,4.66-13.63.66c-.22-1.44-.45-2.88-.67-4.32Zm-13,10.31V335l-14-.33-.66-4,13-.33h1C551.59,331.77,551.82,333.21,552,334.65ZM537.74,342l-14.63,6.65v-10l14-3.33Q537.42,338.64,537.74,342Zm-.67,1.33c1.33,1.4,1.12,6.37,1,9l-14.3,7.65-.66-10.31Zm-13.63,25.27v1.33l-15-3.65h-.67v-5.66l15.3,5.32Zm-.66,2.33c.83.88.71,3.65,1,5v.33l-16.29-1.33.33-7.65Zm-15.3-19.95-11.26-5.63-.71,0h.67l0,0,11.26.31Zm-1,.33-14-4.32.33-2ZM492.85,344l-8.64-3.33,9-.66Zm-5.65-1.33-9.31-2,.33-.66C481.72,340.9,484.7,340.88,487.2,342.63Zm-8.31-4.32c-2.71-.76-5.93-.73-8-2l-.67-.33,9-3.33Zm-15-1.67c.11-.33.22-.66.34-1h.66l.33,1Zm-.66-.66c-.64.54-1.47.57-2.66,0h-.67v-.33l2.33-.34h1.66Zm-2.33,1-11.3,3c1.12-3.5,3.81-2.37,7-3.66Zm-10-.34.66-1h2.66Zm.66-2.32H438c.33-2.77.66-5.55,1-8.32l13.3,1.67Q451.95,331,451.62,334.32Zm-14.3,0-13.3-2-.33-.66c.44-2.55.89-5.1,1.33-7.65l13,1.66.33.33ZM423,332l-9.31.66h-4q.66-4.15,1.33-8.31l13-.66Zm-12.64-8.31h-13.3c.55-2.55,1.11-5.1,1.66-7.65h13C411.28,318.58,410.83,321.13,410.39,323.68Zm-12-8.32-13-.33c.56-1.77,1.11-3.55,1.66-5.32h13C399.53,311.6,399,313.48,398.42,315.36Zm-26.27,4.33q.84-4.67,1.66-9.31l12.64-.67C384.06,316.32,379.09,318,372.15,319.69Zm-.66-.34c-1.41,1.41-9.74-.27-13-.33.78-2.1,1.55-4.21,2.33-6.32l12-2.32Q372.15,314.87,371.49,319.35ZM357.85,319l-12.3.67v-.34c3.13-4.67,8.22-3.58,13.3-6.31h1C359.18,315,358.52,317,357.85,319Zm-12-1.33c-2.26,3.51-9.05,3.92-13.3,5.32,3.15-5,8.36-3.81,13.64-6.65C347.12,316.94,346.44,316.83,345.88,317.69Zm11.64,2c-.33,3.43-.66,6.87-1,10.3-4.44-.63-9.06,0-13.63-.33.67-2.77,1.33-5.54,2-8.31C346.28,319.48,354.51,319.63,357.52,319.69Zm-13.63,16c-.89,2.55-1.77,5.1-2.66,7.64l-14.63-1.66c1-2.1,2-4.21,3-6.32Zm-3,8.31q-1.33,3.66-2.66,7.31h-15l3-9Zm-3.33,8.64-3,7.32-14.3,2.33,2.66-10Zm-18.29,9.65-15.62-4.33-.34-.33,3.33-8.64,15.63,3Zm-.66.33.33.33q-1.33,4.83-2.66,9.64l-17-5,3.66-9.31Zm-3,11-3.33,4.66c-4.07,1.77-11.81-.78-17-1l3.66-9Zm-4.66,6-4,7.31-16.29-.66,4.32-8.32Zm-4.65,8v.33l-4,6.32c-2.38,2.12-13.5.11-16.63.33q2.32-3.83,4.66-7.65Zm-5.32,8c-4.06,5.21-12.66,5-20.62,6.32q2.33-3.33,4.66-6.65Zm-6,5-3.66,5.65c-3.58,2.16-12,2.46-17,2.66C280.3,399.58,285,404.49,295,400.49Zm-5.65,7.31c1.23,1.8-2.72,9.19-3.33,12.3l-18.95-4C273.94,406.83,278.51,412,289.36,407.8Zm-5,13H285l-5.66,5.32-18.62-3.66h-.66l6-5.65Zm-6.32,6-6,5.32-19.95-2.66v-.33l7-6Zm13,9-6.32,5.32-19.61-2,6.65-6Zm-7.31,6c-6.83,7.72-12.14,6.91-26.6,6.65l6.65-8.32ZM239.15,456l4.66-16.29,18.95.33C257,448.51,249.07,451.68,239.15,456Zm16-6.31L250.46,465l-17.63,7.65q2.83-7.32,5.66-14.63C241.17,453.69,251,452.69,255.11,449.7Zm-6,16.95c1,1.27-3.92,13.53-4.33,17L222.53,479v-.34Zm-5.66,18h.67l-7.32,12c-5.91.61-19.14-7.51-25.93-9.31l10-7.65Zm-8.31,12.63.33.67-10,8.31-25.94-8q5-5.14,10-10.31Zm-10.31,10-10.31,10.31-25.6-6h-.66l10.3-12.63Zm-11,11-10.64,13-26.27-4q5.33-7.32,10.64-14.63Zm-12.3,14h.66l-10.31,14.29c-4.57,1.95-20.78-1.91-27.26-2.32l11.64-16.3Zm1.66.33,28.93,10.31q-4.66,7-9.31,14c-4.2,1.48-24.09-7.73-30.26-9.31Zm30.26,10.64,19.95-6.65c.79,1.13-6,14.21-7,17.29l-22.95,3.66Q228.52,550.28,233.5,543.13Zm21.94-7.32,20.62-7-7.32,16.63-21.28,8Zm21.95-7.31,24.6,1.33v.33q-3.64,7.32-7.31,14.63l-24.94.33Zm25.6,1.66,26.27,7.65-8,7.65-25.6-.67Zm27.6,8,24.27,2.33-7.65,6.32-24.6-1.33Zm18.29,8.31,6.65-5.65,24.27,1v.33l-5.65,6.65-25.27-2Zm54.86-10-4,11.3-24.27,1C382.48,537.81,392.32,542.05,403.74,536.48Zm1,.33,22.61-4.65h1l-3,12.63-24.6,3Zm1-1.66q1.81-4.32,3.65-8.65l21.95-5h.33q-1.5,4.82-3,9.64Zm5.65-10h-1.33q1.49-5.48,3-11l10.64-.66H435v.33c-.89,2.22-1.78,4.43-2.66,6.65Zm2-12.3q1-9.81,2-19.62l22.28,4q-1,7.65-2,15.3Zm24.94-15,19.95-2.66h1.66q-.82,6.31-1.66,12.63l-21.61,4.33Q437.48,505.05,438.32,497.91Zm22.28-2.66,21.61-4q-.49,6.32-1,12.63l-20.94,3.66h-1Q459.93,501.4,460.6,495.25Zm22.61-4.32,21.28-3h.33l-.33,12.64-22.28,3Q482.71,497.25,483.21,490.93Zm21.61,36.9,24.27,1.33q.17,9.48.34,19l-24.61-3-.33-.33Zm24.27-28.26,22.28-1.33h.33l1,13.3-23.27-.33C529.32,507.33,529.2,503.45,529.09,499.57Zm23.28-2.33c-.33-3.21-.67-6.42-1-9.64l22-2.33q.82,5.82,1.66,11.64Zm21.94-12,22-1.33q1.17,5.82,2.33,11.64v1l-22.28.33Q575.31,491.09,574.31,485.27Zm24.61,12.31q1.33,7.64,2.66,15.29l-23.28-.66q-1-7.32-2-14.63Zm1,0h22.61q1.66,7.82,3.32,15.62l-23.27-.33Q601.25,505.22,599.92,497.58Zm2.66,16.29h23.27q1.33,10.14,2.66,20.28v1l-23.6-.67q-1.17-10.14-2.33-20.28Zm25.93,22.28q1.34,12.14,2.66,24.27l-23.94-1q-1.15-12-2.32-23.94Zm1.33,0,23.94-.34,3,24.28-24.61.33Q631,548.29,629.84,536.15Zm24.94-.34,20.62-1.33h3.65q1.83,12,3.66,23.94l-21.94,1.67h-3Q656.29,548,654.78,535.81Zm25.27-1.33L705,532.16l4.32,22.94L684,558.42ZM706,531.82l22.61-2.32h2.32q2.83,10.63,5.66,21.28l-26.27,4.32Zm25.93-2.66,23.61-1.33c2.49,1.16,7.06,14.9,8.31,18.29v.33l-26.27,4Q734.75,539.81,731.92,529.16Zm25.6-1.33,23.61,1,9.31,14.63.67.67-25.94,2Zm24.94,1,23.94-.66,10,17v.34l-23.94-1.33Zm25.61-.66H832l9.31,17.29.66.66v.33l-23.94-1Q813.06,536.81,808.07,528.17Zm25.27,0h23.94l10,17.62.67.66v.34L843,546.45Q838.15,537.32,833.34,528.17Zm-.67-1-10-14.63,22.94.33,9.64,12.64c.56.55,1.11,1.11,1.66,1.66ZM822,511.54l-9.31-12.3,19.62,4.65,11,7.32.33.66Zm-32.92-25.93-.33-.67,22-6c2.37.87,5.6,15.86,6.65,19.28C806.61,495.84,798.34,488.76,789.11,485.61Zm-1.33-1.33q-3.15-7.15-6.31-14.3l22.27-7.32c3.44,1.36,6.2,11.49,7.65,15Zm-7-14.63-8-8.32,22.61-8.64,4,4.32,4.66,4.66Zm-9-9-6-8.31-.67-.67,21.28-8.31c2.48.57,5.39,4.19,6.32,6.32L795.1,452ZM764.51,451l-6-11,20.62-6.65,7.31,8.32c.11.33.22.66.34,1Zm-6-11.64q-3.15-4.67-6.32-9.31l19.95-6.65c2.82,1.47,5.36,6.59,7,9.31Zm-7-10c-1.55-2.1-3.1-4.21-4.66-6.31l-1-1,20.28-9.31,6,9.64Zm-6-8-5-10.64,19.61-8.64c2.64,1.77,4.42,7.17,6,10Zm-5-11.3q-2.16-5.82-4.33-11.64l18.62-7q2.67,4.82,5.32,9.64Zm-4.66-12.3-3.66-11.64,17.29-4.33,5.32,9Zm-3.32-12.31h-1l-3.33-11.3,16.3.33,3.65,5.32,1.33,1.33Zm-5-12-4-6.32c6.37,1.82,12.8,2.15,17.95,4.33l1.67,2Zm-6-8.31,4.33,1.66C724,366.54,722.78,366.28,721.61,365.24Zm-12.3-5.65h-.66v-.34l13.63-6h.33q1.33,5.66,2.66,11.3C721.7,363.45,712.61,361.53,709.31,359.59Zm-3.66-1L703,353.27l15.63-8c1.85,1.07,3.57,4.93,4,7.31C717.33,354.4,711.68,359.32,705.65,358.59Zm-3-6q-1.67-3.48-3.32-7l15-6.32c2,.73,3.32,3.29,4.32,5ZM699.34,345l-3-7.32,14-4.65c2,.83,3.39,3.76,4.32,5.65Zm-3.66-8L693,329.66l13.63-2a7.08,7.08,0,0,1,3,3.65l1,1ZM694,329c-2.25-.37-3.29-1.82-4.33-3.33l12-2h1.67l1.33,1.66c.55.55,1.1,1.11,1.66,1.66Zm-4.66-4L686,321.35,699,319a5.86,5.86,0,0,1,2.66,3l1,1ZM687,324l1.33,1.33-14,3.32c-.78-1.77-1.55-3.54-2.33-5.32l11.31-1.66C685.82,321.68,686.36,322.33,687,324Zm-2.32-3-13.3,1.66q-1.17-2.16-2.33-4.32l12.3-1.67c1.71.69,2.56,2.42,3.33,4Zm-15.63-3.33L666.42,313l12-1.67c1.69.75,2.59,3,3.32,4.66Zm-1.33-.66.33,1-13,1-2-4.65,9-1h3.32Zm-13.3,2c-5,0-9.68-.54-13-2.33a3.44,3.44,0,0,1-1.33-1.66l6-.66h6.31Zm-11.31-1c-1,.3-.87.23-1.66-.33Zm-23.94,5v.33l-11,.34H605.9q-.66-3.33-1.33-6.65l12.64-1.67C618.62,316.75,618.67,320.89,619.2,323Zm-14,0v.33l-13-2.66-1-5.65,12.64,2C604.35,319,604.79,321,605.24,323Zm-13.64-2.66-13.3-1.66-1-4.32,13,.66Zm-14-1.66h-13.3l-.67-3v-.34l10.64-1h2.33C577,315.81,577.31,317.25,577.64,318.69Zm-13.63,1,.66,3v1l-13.63,1-.33-3.32,11-1.66Zm-12.64,10-14,.33c-.11-.55-.22-1.1-.34-1.66l12.31-2.66C551.16,326.29,551,327.9,551.37,329.66Zm-1-4.65-13.3,2.66-.66-2.66v-.34l13-3.32,1,2.66Zm-.66-4.33L536.41,324l-.33-2,12.63-4c.33.78.67,1.56,1,2.33Zm-13,10,.33,4-14,3-.33-7.65ZM507.48,345l-13.63-.67v-4.65l13.3-5.66h.66Zm-14-18-13.3,4.66.33-10.64,12-1.67h1.33Zm0,.67c-.11,3.88-.23,7.76-.34,11.63l-12.3-.33c-1.72-1.17-.84-4.3-.66-6.65Zm-14,4.32c-4.58,1.38-8.18,4-13.3,3,.22-3.66.44-7.31.67-11l12.3-3C480.53,322.47,479.66,328.94,479.55,332Zm-13.3-8.65-13,3.66c.11-3.66.22-7.31.34-11l13-1.33Zm-1,1c1.66,1.77.5,7.7.34,10.31-3.83-.9-8.68.51-13,.33l.33-7.31Zm-13,2.66L439,325.34l1-8L453,316Zm-14-2-12.63-2H425c.44-2.21.89-4.43,1.33-6.65v-.66l13,1.33C439,319.69,438.65,322.35,438.32,325Zm-14-2-13.3.67q.66-3.82,1.33-7.65l13.3-.33Q425,319.35,424.36,323Zm-12.31-7.65h-13c.56-1.88,1.11-3.76,1.67-5.65h12.63Q412.72,312.55,412.05,315.36Zm-11.64-6.65H387.78l1.66-3h12.64C401.52,306.72,401,307.72,400.41,308.71Zm-13.3,0-13,1,2-4.65,12.64.66C388.22,306.72,387.67,307.72,387.11,308.71Zm-13.63,1-12.3,2c.66-1.89,1.33-3.77,2-5.66l11-1h1.33Zm-13,2.33-12,3c.67-1.66,1.33-3.32,2-5l11.3-3.65C362.58,307.31,360.91,310,360.51,312Zm-13,3.32-11.64,3c3.28-5,8-4.66,13-8h1Zm-10.64.67c-2.06,3.58-8.77,4.77-13.64,5.32,3.27-5.32,8.16-3.86,14-6.65Zm-3.33,3.66c1.29.54-.49,1-1,1.66-2.1,2.91-8.5,3.64-12.63,4.32C322.7,320.83,328.42,322.11,333.58,319.69Zm10.64,1c-.66,2.89-1.33,5.77-2,8.65l-13.64-2C331.68,323.09,338.21,321.89,344.22,320.68Zm-3,9.31v.34l-15,2c.55-1.44,1.1-2.88,1.66-4.32Zm-10,2.33c.26,1.1-2.56,1.44-4.65,2h-1V334Zm-6,10v.33c-.89,2.88-1.77,5.76-2.66,8.64l-15.63-3,3.33-7ZM306.32,348l-15-1.33L295,342.3c.54-.56,1.27-.63,2-1h12.63C308.53,343.52,307.42,345.73,306.32,348Zm-.34,1q-1.65,4.32-3.32,8.64l-16-3.32,4-7Zm-4.32,9.31h.67l-3.66,9-16-4.32H282l4-8Zm-3.32,10-3.66,8.65-17.29-5,4.32-8.31Zm-4,9.31L290,385.85l-17.62-5,4.66-8.32Zm-4.66,9L285,394.17l-18-5v-.33q2.32-3.66,4.66-7.32Zm-5.32,8.31-5,7-18.28-5,5.32-7.32Zm-5.65,7.65-5.32,6.32-18.62-3.33,5.65-8Zm-6.32,7c-5,6.87-13.17,8.45-21.94,11.64l4-15Zm-9,8c.95.35-.28,1.42-1,2-4.05,3.28-11.05,5-17.63,5.65v-.33C250.1,422.9,258.23,420.43,263.42,417.44Zm-6.31,6c.22.1-5.27,5-6,6l-16.62,1v-.33l6.65-3.33Zm-7.32,6.65a7.9,7.9,0,0,1-1,3c.77-1,1.53-2,2.3-3l19.62,2.66c-6.17,7.89-13.08,6.23-26.27,6l2.34-3c-4.74,4.77-13.95,8-19.3,10.36h-.33q2.49-7.32,5-14.63Zm-7.31,10q-2.17,8.15-4.33,16.3L219.53,459l7-11.64Zm-5.32,17.29c1.42,1.93-4.35,11.77-5,15.3L208.56,464C215.29,458.05,227.79,461,237.16,457.34Zm-6,16-10.31,5.32-23.27-7.31-.67-.33,10-6.65ZM219.87,479v.66l-9.65,7L186,483l10-11Zm-11.64,8.31.33.33-9.64,10-23.28-.34q4.83-6.81,9.64-13.63Zm-10.64,11.3-10,12.64-22.28,2.66L175,498.24Zm-13.3,14h2c-9.14,16.45-12.42,13.32-31.25,19h-.34l10-16C168.26,512.11,179.37,514.4,184.29,512.54Zm-10,15.63c.57,1.32-3.37,5.17-4.65,7l-6,9-21.28,5.65q5.33-8.14,10.64-16.29C158.73,530,168,531,174.31,528.17Zm-12.63,17.29h1l-12,16.95-21.61,5.66q6.32-8.66,12.64-17.29Zm2.32-.34,26.6,2.66-11.3,16.3c-2,1.73-23-1.47-27.6-1.67Zm27.6,3,29.93,10-10.31,16c-1.52,1.07-26.49-7.82-30.92-9Q185.94,556.59,191.6,548.12Zm30.93,10.3,21.94-3.32h1.33l-8.64,18.29-24.94,1.33Zm24.27-3.65,20.28-8h1l-8,17-22,9.31Zm22.61-8.65,13.3-.33H294v.33q-3.64,8.64-7.31,17.29l-25.94.67Q265.08,555.1,269.41,546.12Zm25.93-.33,25.27.66q-3.64,8.32-7.31,16.63l-25.6.33Q291.51,554.61,295.34,545.79Zm26.27.66,25.27,1.33q-3.15,7.32-6.32,14.63l-25.93.67Q318.13,554.77,321.61,546.45Zm26.27,1.33,25.6,2-5.65,12.3-26.27.33Q344.73,555.11,347.88,547.78Zm26.6,2,17.62-.67h7.32q-2.16,6.66-4.33,13.3l-26.26-.33Zm48.21-3.66H425q-1.66,7.65-3.32,15.3c-2,1.75-21.13,1.42-25.61,1.33C401.7,539.7,405,552.93,422.69,546.12Zm3.33-.33,24.94-1q-1,9.15-2,18.29l-25.93-1Q424.52,553.93,426,545.79Zm.33-1q1.5-6.31,3-12.63l23.94-3q-1,7.32-2,14.63Zm3.33-14q1.49-4.67,3-9.31l22.94-4.33q-1,5.49-2,11Zm3.65-10.64c.89-2,1.78-4,2.66-6,2.08-2.86,17.06-3.49,21.28-5.32.93,1.28-.85,5.07-1.33,7.32Zm25.61-11.64,20.94-3.66h1q-.5,4.16-1,8.31l-22.94,3C457.61,513.65,458.27,511.1,458.94,508.55Zm22.94-3.66,22.61-3-.33,9.64-23.28,1.66C481.21,510.43,481.55,507.66,481.88,504.89Zm22.61,40.9,24.94,3.32.66,21.28-25.93-5Zm24.94-33.58,23.6.33q.51,8.15,1,16.29v2l-23.94-2.66Zm23.27-14,22.61-.33q1,7.14,2,14.3L554,511.54Q553.37,504.9,552.7,498.24Zm24.61,15q.83,9.81,1.66,19.62l-23.94-2q-.49-9.15-1-18.29Zm1,0,23.28.67q1,10.3,2,20.61L580,532.82Q579.13,523,578.3,513.2Zm25.61,22.28q1,11.64,2,23.28v.33l-24.27-2q-.82-11.62-1.66-23.27Zm2,24.61,3.66,16-25.94,2.32q-1-10.14-2-20.28Zm1.33,0,24.28,1.33,4.65,13-25.6,1.33Zm25.27,1.66,16.63-.67h7.31q3.16,6.66,6.32,13.3h-25.6Zm25.61-.33,22.61-2H683q3,8.31,6,16.63l-25.27-1.67Q660.93,567.9,658.11,561.42ZM684,559.75v-.33L709,556.1q2.65,11.63,5.32,23.27l-23.61-3.32C687.34,573.83,685.63,563.63,684,559.75Zm26.6-3.65,26.27-4.33q2.65,12,5.32,23.94l-26.93,3.66Q713,567.73,710.64,556.1Zm27.27-4.66,25.27-4c2.53.89,6.85,18.63,8.31,22.28l-28.26,6Q740.56,563.58,737.91,551.44Zm27.59-4v-.33l22.28-2h4l8.65,19.29-27.93,5Zm27.27-2.66,24.61,1.66,11,15.63-26.27,2Zm25.6,1.66,24.28,1,10.64,17,.66.66C830.75,563.72,828,561.72,818.37,546.45Zm25.61,1,24.6.33q4.83,11.15,9.64,22.28l-22.94-4.65Q849.63,556.42,844,547.45Zm25.6.33,24.6,1q4.83,11.31,9.65,22.61v.33l-24.61-1.66Q874.41,558.93,869.58,547.78Zm-.67-1-10.3-18.62,22.61,1.33c2.23.83,10.37,14.44,11.3,17.29l1,1Zm-11-19.62L847.3,513.54c13.17,3.14,25.25,6.72,33.25,15Zm-19.28-20.28,19,8.31C850.36,513.33,843.13,511.52,838.66,506.89ZM820,499.57l21.61-5.65c2.67.73,7.65,14.09,9,17.29C841.83,506.76,831.31,500.64,820,499.57Zm-1.67-1q-2.65-9.79-5.32-19.61l23-6q3.32,10,6.65,19.95Zm-6-20.94q-3.33-7.65-6.65-15.3l21.61-4c3.48,2.33,6.72,10.16,8.65,14Zm-5.65-16.3c-3.92-.47-8-6.26-10-9l21-5H819l6.65,8.64,1.66,1.67Zm-10-9.64c-2.11-.82-4.75-4-5.65-6l-2.66-2.66,20.95-6.32,8.31,9,.33,1Zm-9.31-9.64-6.65-8.65,20-6.65h1l6.32,8c.44.45.88.89,1.33,1.33Zm-7.65-9.64q-3-4.67-6-9.31l19.62-6.32c2.51.89,5.65,5.56,6.65,8l1.33,1.33Zm-6.32-10-6-9.64v-.33l18.62-5.32c2.67.84,5.64,5.48,6.65,8l1,1Zm-6.31-10.64-5.66-10,17-3.66h1.67l6,7.31.33,1Zm12.3-14.63-18,4q-2.65-4.81-5.32-9.64l16.3-1.67c3.29.81,4.81,4.9,7,7Zm-23.94-6.65-4.66-8.65,15.63,1.67,6,5,.33.67Zm-5-9.31-4.65-6.32c6.21,2.2,14.41,3.36,18.62,7.65Zm-10-11.64c2.33.05,4.88.32,6,1.66Zm-12.31-3.32,14.63-6,3,9C739.69,368.88,733.45,367.29,728.26,366.24Zm-1.33-.67-.66-.33q-1.17-6.15-2.33-12.3c8.32,2.22,14.23.76,18.62,6.65Zm-3-13.3-4-7c4.68,1.18,13.33,2.6,15.3,6.65l2,2Zm-8-13c6.82,2.57,12.92,2.93,16.29,9C725.05,345.54,720,345.21,716,339.3ZM712,333c7.11,2.68,12.54,2.88,16,9.31C720.57,339.59,715.74,339.29,712,333Zm-3.66-5,12.31,2c1.1,2,2.21,4,3.32,6C717.62,333.64,711.72,333.27,708.31,328Zm-1-1-3-3.32L716,323h1.33c1,2.11,2,4.21,3,6.32Zm9.31-4.65-13,.33-1.66-2L700.33,319l12-2.33H714q1.32,2.67,2.66,5.32Zm-16.63-4L696.68,314l13-2.32c.89,1.1,1.78,2.21,2.66,3.32l1,1Zm-2-1,1,1-13.63,2.32q-1.15-2-2.33-4l11.64-2.32C696.79,314.6,697.41,315.74,698,317.36ZM682.38,316l-2-3.66-.33-1,12-2.32c1.58.66,2.44,2.37,3,4l.67.66Zm-3-5.32c-.78-1.77-1.56-3.55-2.33-5.32l10.64-1.66H690l2.32,4.65Zm-.67-.33v.33l-12.63,1.66c-.67-1.77-1.33-3.55-2-5.32l10.31-1.33h1.66Zm-13.3,2-12.63,1.33c-.67-1.77-1.33-3.55-2-5.32l9.31-1h3.33C664.09,309.05,664.76,310.71,665.42,312.37Zm-13.3,1.33-12.3.33c-.67-1.77-1.33-3.54-2-5.32l4.33-.33h8Zm-13.3.33c-5.07-1.3-10.32-.72-13.63-3.65l10-1.67h2C637.71,310.49,638.27,312.26,638.82,314Zm-11-1.66-1.33.67-.33-1Zm-2.33,0-2.33-1A3.71,3.71,0,0,1,625.52,312.37Zm-4-2.33c1.58,0,2.21,0,3,.67Zm6.32,3.66-9.64,1c-.45-1.55-.89-3.1-1.33-4.66C621.28,310.73,623.12,313.45,627.85,313.7Zm-24.27,2.66-12.64-2c-.33-1.56-.66-3.11-1-4.66l12.64.67C602.91,312.37,603.24,314.37,603.58,316.36Zm-13.3-2-13-.67c-.34-1.22-.67-2.44-1-3.66l7-.33h5.65C589.39,311.26,589.83,312.81,590.28,314.37Zm-13.64-.67-13.3.67-.66-2,11.3-2h1.66C576,311.48,576.31,312.59,576.64,313.7Zm-13,4.66v.33l-13.3,1.66-.66-2.33,12.63-2.66C563.21,316.09,563.32,317.13,563.67,318.36ZM549,316l12.64-3.66,1,2C560.36,315.72,550.66,317.9,549,316Zm-.66-1v-.33l12-3.66,1,.33Zm-.33-1c-.11-.88-.22-1.77-.34-2.66H558Zm.66,3-13,4.32-.33-1,12.3-4.32A2.35,2.35,0,0,1,548.71,317Zm-13.3,2.32-.33-2V316l11-1h1.66Zm12-5-12.3.66-.33-7.65c4.66,1.14,11.16,2.06,12.63,6.65ZM522.44,349l-14.29,2v-5.32L521.78,339C523.15,340.44,522.56,346.26,522.44,349ZM498.5,317l9.65-3.66v6Zm2,1.66h-6v-.33l1.33-1Zm7.31,2.66V324l-12.63,2.66h-1l.33-7.32A57.41,57.41,0,0,1,507.81,321.35Zm-.33,3.32.33,8.32-14,6,.33-11.3Zm-13.63-6L480.55,320l.66-5.32L493.85,317Zm-11.64-6-6-1v-.34l3.65-.33h2.66Zm-1.33.67-13.3.33.33-2Zm-.66,1c-.11,2-.23,4-.34,6l-13,3,.33-8.64Zm-13.3-.67-11,1.33h-2l.66-5,12.64,1.33ZM453.28,315l-11,1.33h-2l1-6.65,12,.33H454C453.73,311.71,453.5,313.37,453.28,315Zm-13.63,1.33L426.35,315c.44-1.55.89-3.1,1.33-4.65,1.78-1.64,9.49-.78,12.64-.67Q440,313,439.65,316.36Zm-14-1.33-13,.33q.66-2.82,1.33-5.65h13C426.57,311.48,426.13,313.26,425.69,315Zm-24.61-6,1.66-3.33,12,1v.33l-.66,1.66Zm-10.64-4.33c.44-.55.89-1.1,1.33-1.66l11.31,1.66Zm-13.63-.33,1.66-2.33,12.3,1C388.51,305.89,381.5,304.55,376.81,304.39Zm-.67-.66c-1.91,1.77-9.65,1.38-12.63,1.66.77-1.55,1.55-3.1,2.32-4.66l12.31,1Zm-11.3-2.66-2,4.32-12,3.66c.67-2.44,1.33-4.88,2-7.32,1.64-1.47,6.73-.2,9-1h3Zm-14.63,8.31-11.64,4.32c.55-3.43,1.11-6.87,1.66-10.31l11.31-2.32C352.66,301.79,350.51,307.42,350.21,309.38Zm-11.31-2.33c-1.63,9.73-4.11,7.5-12.63,9.64q.83-4.65,1.66-9.31l10.64-3.65C340.08,304.71,339.19,305.35,338.9,307.05Zm-13.3,9.64L313,315.36c3-5.74,7.72-4.84,13.3-8C328.06,308.61,326,314,325.6,316.69Zm-.33.67-2.66,4L309.31,320l3-4Zm-4.32,5h.66l-3,3.65-13-.66q1.5-2.32,3-4.66Zm9.31,1.66c-.34.55-.67,1.11-1,1.66-2.47,2.55-9.28,3.23-13.3,4C319.15,325.34,325.11,326.44,330.26,324Zm-3.66,4c3.44,4.81-10.52,6.45-14,7.31h-.33l2.33-4.65Zm-13.3,8.64-2.66,3c-2,1.81-10.17,1.12-13.63,1v-.33l14.63-3.66Zm-19.62,4L297,339h.66Zm-13,6.65h9v.34L286,353.93,271.4,352.6h-.66l4.32-5Zm4.66,7.65-4,7.65-15.63-2.33c.11-2.16,2.73-4.47,4-6.65Zm-4.66,8.31q-1.83,4-3.65,8l-17-3,4.65-7.65Zm-4.32,9-4.65,7.65c-1.09,1-13.66-2.65-17-3l-.33-.67,5-7.65Zm-5.65,8.65.33.33q-2.49,3.82-5,7.65l-17.29-3q2.51-4.32,5-8.64Zm-6,8.64h.67l-5.32,7-17.29-1.67v-.33l5.32-8Zm-5.65,7.65.33.33-5.32,7c-2.69,2.37-13.38-.55-17.62-.67l-.33-.66,5.65-7.65Zm-5.65,9-4,15.29H232.17q1.67-8.48,3.32-16.95Zm-5.65,16v.33c-6.89,2.44-14.93,5.57-22.61,8.31l6.31-8.64Zm-12.64,6.32c1.52.26-11.49,5-14.63,5.32Zm-4.65,3.32c1.08.88-3.79,12.28-4.33,15l-18.62,1,7-11.3Zm-11,16h6l-6.65,11-22.61-7.31V451l11-2.66Zm-2,11.64c-11.24,6.35-19.91-.1-32.92-1l9.64-6.65Zm-12,4.32V464c-7.86,8.43-16.26,6.58-31.59,6.32l9.31-11.3Zm-11,8.31c-9.53,12.92-12.85,9.66-29.59,14.3L173.31,471Zm-11,11.64c-.11,1.56-1.94,3.11-3,4.66C172.74,499.9,169.28,499,156,504.56l8.32-17.29Zm-11,15.3c1.26,1-3.4,6.46-4.32,8-5.79,9.54-12.1,11.19-21.62,16.62q4.5-9,9-17.95Zm-10,16.95L158,523.51c-6.81,10.69-11,11.54-22.61,17l11-16Zm-11.63,18c.66,1.27-2.84,4.91-4,6.65l-6,9.64-20.28,5,13.3-13Zm-12,17.62c.29.59-9.88,15.13-12,17l-23.61,2,15.63-14Zm-13,18q-6.64,8.64-13.3,17.29c-5.21,2.36-20.77.06-27.93,0l17.29-15.3Zm1.66,0,21-5.66c.89,1.42-3.74,5.89-5,7.65L136.41,582l-22.61,5Zm23.28-6,27.26,2.33-12,18.62L137.74,582Zm28.26,2.66,31.25,9.31q-5.48,9.15-11,18.29c-1.73,1.21-26.8-7.82-31.92-8.64l-.33-.67Zm32.25,9.64,21.62-1.33h3.32l-10,19-25.94,1Q206.07,585,211.55,575.71Zm26.27-1.66,21.28-8.64q-2.66,13.46-5.32,26.93l-25.93,1Zm22.61-9,25.6-.66-5,27.27-26.27.66Q257.6,578.7,260.43,565.07Zm26.93-.66,25.94-.33q-2.49,13-5,25.93l-25.6,1.67h-.33Zm26.94-.33,25.93-.67L335.58,588l-26.27,2Q311.8,577.05,314.3,564.08Zm26.93-.67,25.93-.33-4.32,22.61L336.91,588h-.34Q338.91,575.72,341.23,563.41Zm27.26.33c1.62-1.47,13.77-.84,16.63,0h9.31l-4,19.62-26.6,2Zm27.27.67c1.63-1.46,22-1.4,25.94-1.33L418.37,582l-26.93,1Zm26.93-1.33,25.94.66.33.34q-1.17,10.14-2.33,20.28l-26.93-2Zm27.27,1,25.93.33q-.66,9.48-1.33,19l-26.6,1Q449,574.22,450,564.08Zm.33-1q1-9.15,2-18.29l24.93,1-1,17.62Zm2-19.29q1-7.31,2-14.63l24.27-1.33q-.66,8.14-1.33,16.3C475.48,545.62,456.35,544,452.29,543.79Zm2.32-15.62q1-5.49,2-11l23.27-3q-.66,6.48-1.33,13Zm26.27-14,23.28-1.66q-.17,7.14-.34,14.3H479.55Q480.21,520.53,480.88,514.2Zm48.88,57.19q.5,11.31,1,22.61l-26.27-6.31-.33-21.29Zm.66-22.94-.33-19.29L554,531.82q.5,10.81,1,21.62Zm24.94,6.32q.5,10.47,1,20.94V577l-24.94-6-.66-21.61Zm.67-1q-.51-11-1-21.95l23.94,2q.82,11.31,1.66,22.61v.33Zm24.6,4q1,9.81,2,19.62v1l-25.27-1q-.51-11.31-1-22.61Zm2,21.61Q584.3,586.19,586,593l-26.6,5.65H559q-.82-10.14-1.66-20.29Zm1.33,0L607.23,577h2.66l4,13.31L587,592.67Q585.45,586,584,579.37ZM610.89,577v-.33l24.61-1.33c3.14,1.25,5.3,10.18,6.65,13.3L615.21,590Zm26.93-1.66h25.61l6.31,13v.33h-26.6Zm26.6,0L689.36,577l8,13-26.27-1.33Zm26.27,2,23.94,3L722.94,592l1,1-25.6-3Zm25.27,3L740.23,577h2.33q3.5,10.65,7,21.29C729.77,594.18,725.5,595.66,716,580.37Zm27.6-3.66,27.26-6c2.37,1.29,6.67,19.73,8,23.61v.33l-27.93,3.66Q747.23,587.52,743.56,576.71Zm29.26-6v-.34l26.6-5h1.66q4.5,11,9,21.94l-29.59,7Zm29.26-5.66,25.27-2h2l11,19.62L811.06,587Q806.58,576.06,802.08,565.07Zm28.26-2,24.28,3,12.3,15,1.66,1.67-26.93-.33Zm25.94,3.32,22.61,4.66,13.3,17.29-22.28-5.65Q863.1,574.55,856.28,566.4Zm23.94,4.66,24.27,1.66,9.31,24.94V598A58.16,58.16,0,0,1,880.22,571.06Zm38.24-20.28,10.3,23.94-22.94-3c-2.42-1.45-9.6-19.2-10.64-22.94Zm-15.3-13.64,13,11.31c.33.44.66.89,1,1.33l-22.61-2-11-17.95Zm-13-6a37.9,37.9,0,0,1-14.63-7.65Zm-5.32-4c-9.64-4.9-19.67-12.33-31.25-14.63v-.33l21.61-4.33h1.66Zm-8.64-20.28-24.61,4.65q-3.82-9-7.64-18l24.6-7Zm-8.31-21.95.66.67-24.6,7q-3.33-9.81-6.65-19.62l19.61-2.33h3Zm-19.29-24.27,10.31,8.64L837,472l-8-13.63Zm-1-1c-16.77-4.34-18.59,1.67-27.59-12.3l18.62,1C842.05,450.13,845.63,456.43,847.63,459.67Zm-10-13,.66.67-19-1-8.31-9.64,19,.33Zm-9.31-11.63,1,1-19.29-.33-7.31-9.31,18.62.33Zm-9-10.64,1.33,1.33H802.08l-6.65-9,17.62.33Zm-8.64-9.65c.44.45.88.89,1.33,1.33l-17.29-.33-6.65-8.64,16.62,1.33Zm-6.65-7-17-1.66-5.65-8C791.39,399.6,799.21,401.34,804.08,407.8Zm-28.93-17.29c7.85,2.11,15.29,5,20.61,9.64C785.19,397.82,780.7,398.15,775.15,390.51Zm9,2c-3.91-1-9.74-2.47-12-5.32Zm-15.3-16.29c2,1.7,2.94,6.74,4,9.31-6.19-3-12.39-5.64-15.63-11.64Zm-7.65-3.66c-4.49-1.24-9-2.84-14.63-3q-1.32-4.49-2.66-9l14,3.66Zm-5-9.64c-6.72-1.68-13-2.84-16.62-7.65C745.63,357.63,752.18,358.56,756.19,362.91Zm-5.65-5c-6.35-1.64-12.26-3.28-15.63-8C740.79,351.54,747.28,353.59,750.54,357.92Zm-4.65-5c-6.34-2.43-12.46-3.33-15.63-9C736.76,346.49,742.08,347.76,745.89,352.94Zm-4.66-5.66c-6.84-3-11.83-3.87-15.63-10C732.32,340,737.93,341.12,741.23,347.28Zm-4.32-6.65c-7.06-1.78-12.07-3.84-15-10C729,332.5,733.94,334.54,736.91,340.63ZM718,323.34l11.63,4,3.66,6.65C724.87,330.33,722.53,331.2,718,323.34Zm11.63,3c-6.76-1.67-12.8-3.17-15-9.65l12.3,3Q728.27,323,729.59,326.34Zm-3.32-7.65c-6.35-2.05-12.27-1.56-15.3-7h12.31Zm-8-13.3H720l3,5.65H710.31l-3-4.32Zm-9,5.32V311l-11.64,2.33c-2.39-.43-2.46-1.83-3.65-3.33l-.34-1L706,306.72ZM706,306.05l-13,2.33-2.33-4.65,10.64-2H703Zm8-8,1.66,1.67v.33l-12,.66-3-4.32C704.1,297.18,712.16,294.73,714,298.07Zm-17-1.33h3l2,3.33.66.66v.34L690,302.73c-.78-1.66-1.56-3.33-2.33-5Zm-22.28,2.66,9.64-1.33h2.33l2.66,4.33v.33l-12.63,2-2-5Zm-1.33,0,2.66,5.32v.34l-10.64,1.33h-2l-1.67-5.66Zm-24.6,2.33,8.31-.66h4c.55,1.88,1.11,3.76,1.66,5.65l-12.3.66q-.84-2.65-1.66-5.32Zm-1.33,0c1.22,1.26,1.7,3.85,2.32,5.65v.34l-12,.33c-.66-2-1.33-4-2-6Zm-12.31.33,1.67,6-9.65,1h-2.66q-.66-3.66-1.33-7.32Zm-12.63,0q.66,3.17,1.33,6.32v1a24.12,24.12,0,0,1-12.3-2.66c-.85-.75-.95-1.39-1-3Zm-17,3.33,3.66-1.33a4.22,4.22,0,0,1,1,2v.34l-4.66-.67Zm5,2,.33,1.67-7.31-3Zm-1.66,1.67-6,.33c-.33-.89-.66-1.77-1-2.66Zm-6.65.33-13-.67-.67-2.32c4.8,1.73,8.13,1.66,13,.66C601.8,307.83,602,308.6,602.25,309.38Zm-1-3.33-3.66,1.33,1.33-2Zm-3-.66c-.45.55-.89,1.11-1.33,1.66-1.32,1-5.1-.71-7.65-1l6.65-.66Zm-6-.67c-1.33.67-4.08.44-5-.33Zm-7,1.33h2.32c.34.78.67,1.56,1,2.33v.33l-13,.67-.66-1.66Zm-12,2h1c.23.55.45,1.11.67,1.66l-12.64,2-.66-1Zm-4.66,0-8.31,2c-.22-1.44-.44-2.88-.67-4.32ZM559,305.39l.66,5h-12.3l-.33-8.32Zm-13-3.66c.22,2.88.45,5.76.67,8.65l-12-3.66q-.16-3.83-.34-7.65Zm-12,5.32.33,8-12.3-4-.33-7.31Zm-25.27-3.32h12.3v7l-12.3,1.66Zm0,9.31,12.3-1.33c.11,2.43.23,4.87.34,7.31-3.35.55-9.19,2.25-12,.67h-.67Zm4,8.64,8.65,2.33C518.69,325.17,514.47,323,512.8,321.68Zm8.65,4-1-.66C521.44,325.44,520.85,325,521.45,325.67Zm-7.65-4.32V321l7.31-1.33c.11,1.22.23,2.43.34,3.65Zm-5.32.33a11.42,11.42,0,0,1,7.65,2.66l-7.65-.33Zm0,3a44.79,44.79,0,0,1,13.63,2v2.66l-13.63,3.32Zm12.3,5.66h1.33l.33,7.31-14.29,7,.33-11Zm-24.6-32.26,12-1.33v6.32l-12.31,3.33C496,303.62,496.07,300.84,496.18,298.07Zm-.34,9,12-3.32c.11,2.88.23,5.76.34,8.64-2.73,1.2-9,4.31-11.64,3.66C495,314.45,496.11,308.79,495.84,307.05Zm-12.3-6.32,12-2.32-.33,8.31L483.54,310h-.33Zm11,6.65h.67v8.32L482.88,313l.33-2.33Zm-23.6-4,11.63-2.66h.34c-.11,3.22-.23,6.43-.34,9.65-4.6.06-8.05.44-12,0C470.68,308.05,470.8,305.72,470.91,303.39Zm-1,0V310l-12.3-2C459.45,304,465.93,305.23,469.91,303.39Zm-13,2.66.67.34c-.12.44-.23.88-.34,1.33l-6-.34Zm-10,1.67,7.31,1H441.65C442.75,307.9,445.51,308.24,447,307.72Zm-5.32-.67c-1.92.88-7.88.63-9.31-.33Zm-.34,1c-2.17,1.61-9.49.77-13,.66v-.33l.33-1Zm-13-1c-.12.33-.23.67-.34,1-2.91,1.36-9.24.75-13.3.66.22-.55.45-1.1.67-1.66C419.33,307.62,423.36,307.08,428.35,307.05Zm-11-1h1.33l-.66.67Zm1.33-1c-3.44,1.39-9.53-.34-13-.67.44-.66.88-1.33,1.33-2Zm-12.3-3v.34c-.44.55-.89,1.1-1.33,1.66l-12.64-1.66,1.67-2Zm-13-2-.66,1.33c-2.77,1.49-8.74.12-13.3,0l2-2.66Zm-13-1.33-.66,1.33c-3,1.8-9.21.46-13.3,0l1.66-2Zm-13-.67v.34c-3.43,1.59-9.35,1.19-14.3,2l2.33-3Zm-12.64-1c-2.82,4.48-8.69,4-14.3,5.65l2-6.32Zm-16.29-.67h3.32c-.66,2.11-1.33,4.21-2,6.32l-11.64,3.32c.67-3,1.33-6,2-9Zm-9.31.67q-.84,4.65-1.66,9.31L316.29,310q.84-5.48,1.66-11Zm-23.61,4.32L317,299.07q-.68,5.49-1.33,11l-12,1.33C304.32,308.05,305,304.72,305.65,301.4Zm7,9.64H315l-2,3.33c-3.12,1.39-8.48-.2-12.64-.34C303.14,311.22,308.39,312.6,312.63,311Zm-14,3.66,13,1c-.67,1-1.33,2-2,3-3.08,1.79-9.67.14-14-.33Zm-6.32,9h-.66q1.65-2.34,3.32-4.66l13,1.33L305,325ZM305,326l12.63.67c-2.79,3.85-9.35,4.45-15.63,4.65Zm8.64,4.66q-1.15,2.49-2.33,5H298C301.63,330.72,307.26,333.05,313.63,330.66Zm-8.64,6L295,339c.67-.88,1.33-1.77,2-2.66Zm-25.27,3.66,3.32-2.66,10-1h3c-3.1,4.3-9.4,4.24-16.29,4Zm-8.65.67,12.64.66V342c-4.88.79-10.14.09-15.63,0Zm-10.31,5,4.33-3.32,14.29.66c-3.62,4.42-11.13,3.21-18.62,3Zm-1.33,1.33,14.63.34c-3.82,5.37-9.95,5.81-18.95,6Zm-5,7,10.64-.67h3.65v.33c-4.07,6.18-9.5,7.52-18.62,8.65Q252.28,358.43,254.45,354.27Zm-5.32,9.64,13.63-3h1c-5,8.2-9.15,8.18-18.62,11.63Zm-4.66,9.64,13.63-4.65c-.44.88-.88,1.77-1.33,2.66-4,6.08-9.95,8-16.95,11Zm-5,10,12.64-5.66c2.16,4.51-12.84,12.67-17.62,14Zm6.65,3.65c.71.35-.32,1.65-1,2.66-3.73,5.67-10.2,8.43-16.63,11.31C232,392.61,239.32,392.25,246.13,387.18Zm-6,9-1.66,2.66c-3.91,5.2-10,9-17,11C227.27,401.87,232.69,401.73,240.15,396.16Zm-6,8.65c.87,1-2.53,13.57-3,16.62l-18-2.32C218.81,411.54,226.36,410.21,234.16,404.81Zm-21.94,15,18.62,2.33-6.32,8.64-19.29-4-.66-.33Zm-8.32,7.65,19,4v.33l-8.65,4-16.62,3h-.34Q200.58,433.08,203.9,427.42Zm8.32,9.31h1.33q-3.33,5.31-6.65,10.64l-20.29-6.32H186Zm-28.6,4.32,21.28,7-10.64,2.66-20.95-4Zm-12,6.32L192.93,451l.33.66-9.64,6-20.61.66Zm-9.31,12,18.95-.67h1c-7.1,11.14-13,12.77-27.93,16Zm-8.64,16.29,18-4.32c.82.64-6.65,12.4-7.65,15l-19.61,4Zm-10,15.63,18-3.66h1.66L155,504.89l-21.62,1Zm-11,15.29,16.29-.66h5.32q-4.49,9-9,18l-24.6-2.66Zm-12.64,15.3,24.61,3-11,16.29-26.94-5Zm-14.29,15,26.93,5v.33l-14,13c-4.91,1.64-21.51-3.14-27.59-4Zm-16,15.3,26.93,4.32h.66l-15.62,14L73.9,567.07ZM72.57,567.73l28.26,3.33-17,15.3-28.93-2ZM37.65,606.64Q45.8,595.82,54,585l28.26,2.32L63.26,605ZM65.25,605l18.29-17.29,27.6.66v.33l-17,17.63Zm30.59,1q8.31-8.81,16.63-17.62L135.08,583l-13.64,19.62Zm56.86-.33c-1.78,1.46-25.92-2.06-30.26-2.66l14.3-20,28.59,2.33v.33Zm34.91,10c-1.59,1.13-29.08-7.86-33.91-9l13-20.95,32.26,9.64Zm1,1q5.65-10.64,11.3-21.28l23.61-1h2.33v.33q-4.65,11.3-9.31,22.61Zm28.93.67q4.65-11.31,9.31-22.61l26.27-1.33-8,23.61Zm28.59-.33q4.16-11.81,8.32-23.61l23.94-.67h2.32q-3.31,12.3-6.65,24.61Zm28.93.66q3.33-12.3,6.65-24.6l22.94-1.67H308q-2.49,13.8-5,27.6Zm29.26,1.66q2.49-14,5-27.93l25.93-2q-1.65,15.61-3.32,31.25Zm28.93,1.33q1.67-15.45,3.32-30.92c2-1.88,21.63-2.7,25.94-3q-1.5,15.28-3,30.59Zm27.6-3.65q1.48-15.13,3-30.26l26.27-2.33-3,28.6Zm27.59-4.33,3-27.59c2-1.89,21.86-1.77,26.6-1.67q-1.34,12.46-2.66,24.94Zm54.87-6.31-26.93,2q1.49-12.46,3-24.94l26.93,2,.33.33q-1.15,10-2.32,19.95Zm2,0q1.17-10.32,2.33-20.62l26.93-1.33q-.66,10.8-1.33,21.61ZM502.49,611l-28.26-5q.84-10.8,1.66-21.61l26.27,4.32C503.69,590.39,502.58,606.83,502.49,611Zm.34-23.27-26.94-4.33q.67-9.47,1.33-19l25.94,2Zm.33-22.28-25.94-2q.67-8.8,1.33-17.62h24.94Zm-24.61-20.62q.51-8.47,1-17h24.27l-.33,17Zm25.61,66.5c-1.13-1.14-.17-19,0-22.27l26.6,6,.33,22.94ZM556,578q.83,10.31,1.66,20.62l-25.94-4.32-.66-22.62Zm-23.61,39.9q-.33-11.3-.67-22.61L558,599.66q.84,8.8,1.66,17.62ZM561,617q-1-8.66-2-17.29L585,594c2.79,1.08,4,13.18,4.33,16.63Zm29.6-6.65-3.33-16.63,23.94-2.33h3L618.54,608ZM619.87,608l-4.32-17,25.27-1.33h1.66l5.65,17Zm57.19-1.33H649.13l-5.32-17h26.6q3.32,8.31,6.65,16.63Zm1.33,0q-3.33-8.48-6.65-17L698,591l8,16.63Zm28.59,1L699,591l25.27,3.33q4.83,8,9.65,16Zm28.6,2.66c-3.56-2.49-8.08-11.76-9.64-16l24.27,5,10.31,16Zm26.6,5.32-11-16.3,27.26-3.65c2.63,1.74,7.5,20.1,9,24.27Zm26.6,4.32h-.33l-8-24.61,28.59-6.65c2.84.6,9.43,19.22,11,23Zm32.59-8.31-9.65-23.28,29.26-5,12,21.95ZM854,605l-11.64-21.62,26.94.34q6.64,9.13,13.3,18.28l1,1Zm30.92-2-14-19c19.89,3.19,28.71,9.89,38.57,22.94Zm11.31-12c14.07,6.85,25.3,12.87,34.25,24.61C914.43,607.91,906.49,604.58,896.18,591Zm37.24,25.6-17.29-17,12.3-.34h14l19,14.3.66,1Z"/></svg>