<?xml version="1.0" encoding="UTF-8"?>
<svg id="Layer_2" data-name="Layer 2" xmlns="http://www.w3.org/2000/svg" viewBox="0 0 202.27 83.52">
  <g id="Layer_1-2" data-name="Layer 1">
    <path d="M202.27,69.06l-3.96-37.65c-.04-.38-.35-.66-.72-.68l.05-6.14s0-.06,0-.09l-.53-5.01c-.03-.24-.16-.45-.36-.57l.02-2.12s0-.06,0-.09l-1.52-14.44c-.01-.1-.04-.2-.09-.28l-.19-.35c-.06-.11-.14-.2-.24-.27l-.48-.33s-.1-.06-.15-.08l-.75-.3s-.06-.02-.09-.03l-.98-.25s-.05-.01-.07-.01l-1.16-.19s-.03,0-.05,0l-1.28-.12s-.03,0-.05,0l-1.34-.04c-.24,0-.47.1-.62.29-.11.14-.16.3-.17.47h0s-.01,1.35-.01,1.35h-26.15s-.13-1.42-.13-1.42c-.04-.4-.37-.7-.77-.7h-5.82s0,0,0,0c-.42,0-.77.34-.77.77v1.34s-13.35,0-13.35,0l-.12-1.4c-.03-.4-.37-.7-.77-.7h-5.31c-.42,0-.77.34-.77.77v1.34s-13.39,0-13.39,0l-.07-1.38c-.02-.41-.36-.73-.77-.73h-5c-.42,0-.77.34-.77.77v1.34s-13.81,0-13.81,0l-.06-1.37c-.02-.41-.36-.73-.77-.73h-4.8c-.42,0-.77.34-.77.77v1.34s-13.28,0-13.28,0V.77c0-.42-.35-.77-.77-.77h-5.7c-.2,0-.4.08-.54.22-.14.14-.23.34-.23.54v1.34s-13.97,0-13.97,0V.77c0-.42-.35-.77-.77-.77h-4.57c-.41,0-.75.32-.77.73l-.07,1.38h-12.95c-.06,0-.13,0-.19.02l-.49.12v-1.13c0-.24-.12-.46-.31-.6-.19-.14-.43-.2-.66-.14l-5.81,1.48c-.32.08-.56.36-.58.7l-.12,1.6-13.07,3.33v-1.14c-.01-.42-.34-.77-.78-.76-.06,0-.12.01-.18.03h0s-10.65,2.71-10.65,2.71c-.31.08-.54.34-.57.66l-1.27,12.07s0,.06,0,.09l.02,3.1c-.23.11-.39.34-.42.6L0,69s0,.06,0,.09l.09,10.84s0,.06,0,.09l.03.21s.01.08.03.12l.14.46s.01.04.02.05l.08.2c.02.06.05.11.08.16l.12.17c.03.05.07.1.12.14l.63.56s.1.08.15.11l.96.46s.07.03.11.04l1.03.3s.05.01.08.02l1.35.24s.04,0,.05,0l1.36.14s.03,0,.05,0l70.3.06h0s.06,0,.09,0l.17-.02c.06,0,.13-.02.19-.05l.17-.07c.06-.02.11-.05.16-.08l.16-.11s.09-.07.13-.11l.13-.14s0,0,0,0l47.41.02s0,0,0,0l.13.14s.08.08.13.11l.16.11s.1.06.16.08l.17.07c.06.02.12.04.19.05l.17.02s.06,0,.09,0l67.7.04s.04,0,.05,0l1.48-.05s.04,0,.05,0l1.35-.13s.04,0,.06,0l1.34-.24s.06-.01.08-.02l1.03-.3s.08-.03.11-.04l.96-.46c.06-.03.11-.06.15-.11l.63-.56s.08-.09.12-.13l.12-.17c.03-.05.06-.11.09-.16l.08-.2s.01-.04.02-.06l.13-.45s.02-.08.03-.12l.03-.21s0-.06,0-.09l.1-10.84s0-.06,0-.09ZM195.21,18.81h-.12c-.05-.38-.38-.67-.76-.67h-2.42s-.06-.57-.06-.57h3.37s-.01,1.24-.01,1.24ZM193.63,19.68c.05.38.38.67.76.67h1.26s.36,3.47.36,3.47h-1.1c-.22,0-.43.09-.57.25-.11.13-.18.29-.19.45h-1.6s-.48-4.85-.48-4.85h1.57ZM194.21,26.06l-.04,4.67h-1.01s-.46-4.67-.46-4.67h1.51ZM195.75,25.35h.34s-.05,5.38-.05,5.38h-.34s.05-5.38.05-5.38ZM187.69,3.67l1.62,6.27.3,2.96h-27.26s-.84-9.24-.84-9.24h26.18ZM153.95,3.67l.92,9.23h-13.44s-.77-9.24-.77-9.24h13.29ZM133.63,3.66l.71,9.23h-13.59s-.48-9.24-.48-9.24h13.36ZM113.6,3.66l.36,9.23h-13.71s-.42-9.23-.42-9.23h13.77ZM80.07,3.65h13.29s0,9.23,0,9.23h-13.52s.23-9.23.23-9.23ZM72.86,12.88h-14.06s.08-9.23.08-9.23h13.97s0,9.23,0,9.23ZM39.85,3.64h12.77s-.5,9.23-.5,9.23h-13.78s.7-9.03.7-9.03l.81-.21ZM18.49,9.09l13-3.31-.74,10.22h-12.9s.65-6.91.65-6.91ZM6.63,24.16l-.02-2.26h3.64s-.23,2.26-.23,2.26h-3.4ZM6.13,25.69h4.6c.39,0,.73-.3.77-.69l.38-3.8c.02-.22-.05-.43-.19-.59-.15-.16-.35-.25-.57-.25h-4.41s1.13-10.68,1.13-10.68l9.07-2.31-.87,9.32c-.02.22.05.43.2.59.15.16.35.25.57.25h14.67c.4,0,.74-.31.77-.71l.99-13.61,4.23-1.08-.89,11.44c-.02.21.06.42.2.58.15.16.35.25.56.25h15.52c.41,0,.75-.32.77-.72l.66-12.15h3.07s-.11,12.1-.11,12.1c0,.21.09.4.24.55.14.15.35.23.56.23h15.61c.42,0,.77-.34.77-.77V1.54s4.13,0,4.13,0l-.3,12.09c0,.21.07.41.22.56.14.15.34.23.55.23h15.14c.42,0,.77-.34.77-.77V1.55s3.3,0,3.3,0l.55,12.14c.02.41.36.73.77.73h15.33c.21,0,.41-.08.55-.23.15-.15.22-.35.21-.56l-.47-12.08h3.47s.64,12.15.64,12.15c.02.41.36.73.77.73h15.33s0,0,0,0c.21,0,.42-.09.56-.25.15-.16.22-.37.2-.58l-.93-12.05h3.77s1.02,12.18,1.02,12.18c.03.4.37.71.77.71h15.22c.22,0,.42-.09.57-.25.15-.16.22-.38.2-.59l-1.21-12.03h4.27s1.11,12.18,1.11,12.18c.04.4.37.7.77.7h29.04c.22,0,.42-.09.57-.25.15-.16.22-.38.19-.59l-.59-5.92s-.01-.08-.02-.12l-1.54-5.97h.3s1.23.12,1.23.12l1.1.18.9.23.62.25.26.18.03.05,1.41,13.44h-4.14s0,.77,0,.77l-.77.08,1.46,14.7c.04.39.37.69.76.69h4.39s3.87,36.81,3.87,36.81l-.03.09-.24.21-.67.31-1.02.29-1.28.23-1.46.14-69.51.03c-.03-.13-.1-.25-.19-.34-.14-.14-.34-.23-.54-.23l-48.18-.02c-.2,0-.4.08-.54.23-.1.1-.16.22-.2.34l-68.8-.02h-.19s-1.54-.05-1.54-.05l-1.51-.15-1.18-.21-1.12-.31-.67-.31-.24-.21-.03-.09L6.13,25.69ZM78.35,71.33h46.64s-.02,10.03-.02,10.03l-46.6-.02-.02-10.02ZM76.77,81.91h-.04s-.75.01-.75.01l-69.43-.06-1.3-.13-1.27-.23-.93-.27-.77-.37-.48-.42-.16-.47-.09-9.09.34.16s.07.03.11.04l1.12.32s.05.01.08.02l1.35.24s.04,0,.06,0l1.52.15s.03,0,.05,0l70.61.07.02,9.95-.05.06ZM200.62,80.04l-.11.37-.03.08-.49.45-.77.37-.93.27-1.2.22-1.37.14-1.45.05-67.65-.04h-.03s-.06-.07-.06-.07l.02-9.95,67.75.02,1.78-.05s.04,0,.05,0l1.52-.15s.04,0,.06,0l1.35-.24s.05-.01.08-.02l1.12-.32s.08-.03.11-.04l.34-.16-.08,8.99v.1Z"/>
  </g>
</svg>