<?xml version="1.0" encoding="UTF-8"?>
<svg id="Layer_2" data-name="Layer 2" xmlns="http://www.w3.org/2000/svg" viewBox="0 0 276.29 477.31">
  <defs>
    <style>
      .cls-1 {
        fill-rule: evenodd;
      }
    </style>
  </defs>
  <g id="Layer_1-2" data-name="Layer 1">
    <g>
      <path class="cls-1" d="M129.19,477.29h9.47c.46-.15.72-.5.75-1.13h1.44c.47.27.38.96,1,1.13,3.97-.02,7.94-.04,11.91-.06.46-.21.6-.54.75-1.07.75-.09,1.43-.06,1.76-.56.55-.85.31-3.08.31-4.33.04-3.32.08-6.65.13-9.97,1.76-.04,3.51-.08,5.27-.13.39-.17.66-.46.69-1,.78-.07,1.43-.11,1.76-.63.55-.88.31-6.85.31-8.53-.04-9.68-.08-19.36-.13-29.03,2.07-1.26,3.57-3.37,4.08-6.21.08-2.51.17-5.02.25-7.52,1.59-2.3,3.18-4.6,4.77-6.9,6.33-.53,10.82-3.61,10.85-10.35,1.84-1.92,3.82-2.67,4.64-5.77.46-1.76-.05-3.84.25-5.83.13-4.97.25-9.95.38-14.92,0-1.49-.59-3.1-.44-4.14.88-15.44,1.76-30.89,2.63-46.34,10.73-7.74,19.8-18.22,22.89-33.61.06-1.11.13-2.22.19-3.32.31-1.95.25-4.19.25-6.4v-2.76c-.22-1.35-.13-2.95-.06-4.45v-3.01c.04-1.76.08-3.51.13-5.27.42-2.64.38-5.49.38-8.46,0-1.72.1-3.45-.25-4.89-2.58-10.51-11.11-14.63-14.99-23.45-1.38-3.13-2.79-6.51-3.51-10.22-.58-3-.5-6.27-.5-9.72v-4.14c-.04-7.11-.08-14.21-.13-21.32,1,0,4.46.19,5.14-.19.95-.52.78-2.06.82-3.51.06-2.65.13-5.31.19-7.96,1.54-.39,3.65.3,4.39-.88.52-.82.25-3.03.25-4.2-.04-3.47-.08-6.94-.13-10.41-.17-.55-.66-.96-1-1.38-.02-.06-.04-.13-.06-.19,2.17-.74,1.5-4.22,1.5-7.02,0-1.98.48-7.75-.31-8.9-.33-.48-.8-.31-1.32-.63-.17-.23-.33-.46-.5-.69-.47-.34-1.7-.3-2.45-.31-.17-11.83-.33-23.66-.5-35.49-.04-3.36-.08-6.73-.13-10.1,0-1.23.29-3.53-.25-4.39-1.21-1.93-8.85-1.46-12.1-1.5v-9.03c4.14-.13,8.28-.25,12.42-.38,2.28-.35,4.14.17,5.02-1.5.02-9.03.04-18.06.06-27.09,0-2.11.59-7.44-1-7.84,1.3-.55,3.44.41,4.77.63,2.68.44,6.68.35,9.22-.06,1-.04,2.01-.08,3.01-.13.47-.12.72-.53,1.07-.69.77-.06,1.55-.13,2.32-.19,4.04-1.16,8.53-2.53,12.73-3.51,4.64-1.08,9.19-1.51,13.61-2.26,4.12-.21,8.24-.42,12.35-.63.84.08,1.67.17,2.51.25,4.78.79,7.51-1.72,8.21-5.08.23-1.11-.21-2.44-.5-3.14-1.83-4.32-5.23-4.33-11.22-4.33-1.61.02-3.22.04-4.83.06-2.05.37-4.07-.14-6.21.25-2.95.54-5.88.21-8.59-.31-1.4-.21-2.8-.42-4.2-.63h-1.13c-2.22-.63-4.43-1.25-6.65-1.88-2.02-.56-4.21-1.11-6.02-1.69-.79-.06-1.59-.13-2.38-.19-.34-.17-.58-.57-1.07-.69-1.04-.04-2.09-.08-3.14-.13-2.06-.38-5.15-.41-7.27-.06-.88.02-1.76.04-2.63.06-.75.14-1.07.49-1.57.69-.69-.02-1.38-.04-2.07-.06.54-.7.7-1.01.69-2.38-.02-3.49-6.92-2.18-10.16-2.7-4.91-.13-9.82-.25-14.73-.38-8.8-.08-17.6-.17-26.4-.25h-25.14c-4.62.04-9.24.08-13.86.13-1.61-.02-3.22-.04-4.83-.06-3.68.1-7.36.21-11.04.31-4.37.54-8.66-.23-12.79.44-2.69.43-5.09-.23-6.21,1.69-.04,7.67-.08,15.34-.13,23.01-20.95,4.75-41.55,12.61-56.56,23.33-6.7,4.79-13.06,10.18-17.31,17.24-2.58,4.29-5.08,8.55-6.71,13.86-.19,1.07-.38,2.13-.56,3.2-2.16,9.26-.58,19.92,1.82,27.59.52,1.8,1.05,3.6,1.57,5.39,2.94,7.12,6.41,14.02,10.28,20.32,1.77,2.87,3.95,5.42,5.64,8.4,1.8,3.17,5.13,6.56,7.4,9.72,1.98,2.76,4.9,5.38,6.96,8.28,1.11,1.56,3.15,3.02,4.39,4.7v.06c-4.25.79-8.27.2-10.66,2.82-.25.19-.5.38-.75.56-3.53,5.34-.41,11.75,6.27,11.73,1.04,1.07,2.09,2.13,3.14,3.2,1.29,1.03,2.76,2.02,4.2,2.88,1.77,1.06,4.44,1.44,6.33,2.57.28.17,1.08.18,1.5.31,2.68.85,5.34,1.48,8.15,2.19.86.17,1.71.33,2.57.5.83.44,1.51,1.58,2.45,2.01,1.43.64,2.83-.07,4.26.38,3.48,1.07,6.3,2.52,9.97,3.32,3.7.81,8.85-.51,12.54.5.59,0,1.07,1.81,2.51,1.94.28.89.03,2.35-.13,3.26-.7,3.99-1,6.68-2.45,9.78-1.58,3.38-2.72,6.4-4.7,9.28-1.21,1.76-3.08,3.34-4.33,4.83-2.66,3.18-5.49,6.75-7.15,10.85-2.3,5.69-1.27,15.49-.25,21.69,1,6.1-.53,11.13.44,17.05.06,1.19.13,2.38.19,3.57,2.75,12.81,7.3,19.74,14.99,27.28,1.78,1.38,3.55,2.76,5.33,4.14.56.33,1.13.67,1.69,1,.5.44.12,3.85.31,4.83.21,4.97.42,9.95.63,14.92.69,15.86,1.38,31.73,2.07,47.59.19,3.64.38,7.27.56,10.91.95,4.18,5.13,8.01,10.16,7.78.95.81,2.77,4.01,3.39,5.27.07-.12.14,0,.19.06.54.86,1.09,1.71,1.63,2.57,1.78,2.68,3.55,5.35,5.33,8.03.06,1.36.13,2.72.19,4.08.08,1.86.17,3.72.25,5.58.6,2.49,1.93,5.66,4.01,6.4.56,1.14.06,7.35.06,9.28-.08,7.73-.17,15.47-.25,23.2,0,1.95-.17,8.85.5,9.84.35.52,1.04.51,1.76.56.21,1.41,1.62,1.13,3.2,1.13ZM154.77,473.97c-.04-1.4-.08-2.8-.13-4.2-.02-2.9-.04-5.81-.06-8.72.1-10.2.21-20.4.31-30.6.08,1.8.17,3.6.25,5.39-.13,12.71-.25,25.42-.38,38.12ZM156.77,459.54c.06-6.21.13-12.42.19-18.62-.04-2.09-.08-4.18-.13-6.27.36-1.3,2.96-2.13,3.64-3.64.04-.02.08-.04.13-.06.13,9.53.25,19.06.38,28.59h-4.2ZM163.11,441.3c-.04,5.54-.08,11.08-.13,16.62-.13-8.34-.25-16.68-.38-25.02-.19-1.29-.21-7.14.25-7.78v-.13c.08,5.43.17,10.87.25,16.3ZM159.28,429.64c.1-.32.21-.51.44-.69-.15.23-.29.46-.44.69ZM158.28,427.44c-.5,1.07-1,2.13-1.5,3.2v.13c-.68-1.84.67-4.52-1.38-5.02,1.4-3.31,3.22-6.57,4.7-9.72.04-.02.08-.04.13-.06.08,1.69.17,3.39.25,5.08,0,3.15-1.29,4.33-2.19,6.4ZM135.27,418.6c1-.56,1.81-1.45,2.76-2.01-.04,2.9-.08,5.81-.13,8.72h-10.28c-1.09-2.32-2.17-4.64-3.26-6.96,2.62,1.6,8,1.88,10.91.25ZM122.23,388.63c.17,3.59.33,7.19.5,10.78v.56c-1.05,1.12-2.3,1.98-2.82,3.64-3.95-6.02-7.9-12.04-11.85-18.06,3.34,0,7.88-1.48,8.9-3.57.19-.17.38-.33.56-.5,1.57,2.38,3.14,4.77,4.7,7.15ZM119.72,381.23c-.15-3.11-.29-6.23-.44-9.34-.3-1.7-.88-2.86-1.57-4.08v-.06c.98.28,2.4.33,3.45.75.55.62.1,2.54.25,3.51.19,3.76.38,7.52.56,11.29v1.25c-.75-1.11-1.5-2.22-2.26-3.32ZM124.8,400.79c-.44-10.76-.88-21.53-1.32-32.29,3.56-.24,7.8-.1,10.41-1.32.52,11.26,1.05,22.53,1.57,33.8.42.38.84.75,1.25,1.13.78,1,1.52,2.18,1.82,3.64.65,3.19-1.51,5.85-3.2,7.02-6.48,4.49-16.95-.71-13.29-8.97.53-1.19,1.76-2.27,2.76-3.01ZM157.15,296.77c2.49-.1,4.97-.21,7.46-.31,4.85-.82,9.3-1.74,13.54-3.07,7.98-2.51,14.01-7.29,19.81-11.98,1.83-1.47,3.53-3.51,4.95-5.39.71-.92,1.42-1.84,2.13-2.76-6.3,11.83-19.21,19.79-33.55,23.7-7.82,2.13-18.4,1.51-28.15,1.5h-15.36c-3.34,0-6.67.19-9.72-.38-14.48-2.69-23.74-6.87-32.29-15.42-2.35-2.35-4.86-5.03-6.46-8.09.86,1.15,1.71,2.3,2.57,3.45,1.63,1.65,3.26,3.3,4.89,4.95,5.2,4.06,10.7,7.55,17.37,10.22,9.07,3.63,20.97,3.64,33.8,3.64,6.33-.02,12.67-.04,19-.06ZM154.14,366.49c-2.53-.38-4.55-.14-6.33-1.07-3.12-1.63-2.6-4.16-2.57-8.59v-4.95c.15-11.6.29-23.2.44-34.8.04-2.76.08-5.52.13-8.28.1-.93-.15-2.23.19-3.07.48-1.2,1.56-2.15,2.63-2.76,2.54-1.44,7.01-1.25,10.91-1.25,6.39,0,15.46-1,19.25,1.82.79.59.99,1.44,1.5,2.32-.01,2.68-.29,4.97-.69,7.34-.27,2.36-.54,4.72-.82,7.09-.59,5.1-1.17,10.2-1.76,15.3-.44,3.82-.88,7.65-1.32,11.47-.3,1.73-.2,3.47-.75,4.89-1.34,3.44-3.88,6.23-5.83,9.15-3.06,4.59-7.09,6.58-14.99,5.39ZM138.9,378.97c.17-17.43.33-34.86.5-52.29-.18-1.01-.83-1.57-.88-2.57h4.39c.17,13.46.33,26.92.5,40.38,0,6.74,1.62,13.42-4.51,14.48ZM143.79,322.16h-5.27c.02-.54.04-1.09.06-1.63h5.27c-.02.54-.04,1.09-.06,1.63ZM136.15,300.34h12.48c-.51,1.64-3.18,2.24-4.01,4.08-1.14,2.5-.77,9.98-.75,13.61h-5.27c.02-3.03.04-6.06.06-9.09.06-.98.18-2.63-.13-3.57-.33-1.01-1.15-1.63-1.57-2.45-.42-.83-.49-1.83-.82-2.57ZM133.01,300.53v-.19h.75c.15.21.29.42.44.63-.25.07-.98-.23-1.19-.44ZM172.26,300.03c.02-.48.04-.96.06-1.44,3.59-.96,6.98-2.27,10.16-3.51-.23,3.2-.46,6.4-.69,9.59-2.29-3.63-4.23-4.05-9.53-4.64ZM165.3,299.84h.69c-.23.02-.46.04-.69.06v-.06ZM116.39,299.9h-2.95c-.02-.29-.04-.59-.06-.88,1,.19,2.01.38,3.01.56h.13c-.04.1-.08.21-.13.31ZM168.31,299.59c-.06-.06-.13-.13-.19-.19.69-.13,1.38-.25,2.07-.38-.02.31-.04.63-.06.94-.54-.02-1.09-.04-1.63-.06-.06-.1-.13-.21-.19-.31ZM104.61,296.71c2.22.65,4.43,1.3,6.65,1.94.02.46.04.92.06,1.38-3.6.02-6.42.59-8.46,2.13-.71.53-1.06,1.4-1.69,2.01v.13c-.15-3.09-.29-6.19-.44-9.28,1.3.56,2.59,1.13,3.89,1.69ZM104.17,303.42c2.5-1.86,7.19-1.69,11.54-1.69,6.56,0,17.29-1,20.19,2.57.51.63.63,1.31,1,2.13-.17,14.34-.33,28.68-.5,43.01-.61,4.02,1.06,11.84-.88,14.36-.75.98-2.09,1.78-3.39,2.19-2.59.82-10.76,1.07-13.42.25-3.92-1.21-5.37-3.53-7.34-6.65-1.65-2.61-3.86-4.99-4.83-8.21-.94-9.8-1.88-19.61-2.82-29.41-.1-1.36-.21-2.72-.31-4.08-.25-2.76-.5-5.52-.75-8.28-.16-.98-.51-2.47-.25-3.64.23-1.04,1.01-2.02,1.76-2.57ZM135.96,365.99c.44-.52.88-1.05,1.32-1.57-.06,4.37-.13,8.74-.19,13.1-.29,1.94.15,4.15-.25,5.77-.59-1.1-.09-3.97-.31-5.46-.19-3.95-.38-7.9-.56-11.85ZM141.47,379.85c.48,6.71.96,13.42,1.44,20.13v.63c-.93,1.22-2.17,2.35-2.45,4.2-.52-.78-.65-1.8-1.13-2.57-.46-.74-1.4-1.31-1.82-2.01-.21-4.62-.42-9.24-.63-13.86,1.2-1.61,2-2.74,1.94-5.58,1.02-.19,1.73-.75,2.63-.94ZM142.23,406.44c.22-1.36.62-2.6,1.32-3.51.55-.72,1.8-1.33,2.01-2.32.75-11.08,1.5-22.16,2.26-33.23,2.75.85,6.85,1.14,10.41,1.13-.71,10.68-1.42,21.36-2.13,32.04.19.72,1.2,1.09,1.63,1.63.83,1.04,1.52,2.26,1.82,3.82.93,4.88-4.98,9.34-10.03,8.4-3.41-.63-8.01-3.44-7.27-7.96ZM178.91,381.17c.9-.73,1.8-1.46,2.7-2.19-2.91,5.82-13.2,6.74-16.37.5,1.04.62,1.89,1.56,3.07,2.13,2.88,1.38,8.14,1.05,10.6-.44ZM174.02,385.56c-4.24,6.12-8.49,12.25-12.73,18.37-.04.02-.08.04-.13.06-.61-1.27-1.38-3.09-2.63-3.7.25-3.74.5-7.48.75-11.22,1.71-2.51,3.43-5.02,5.14-7.52h.06c2.65,2.49,4.39,4.1,9.53,4.01ZM162.67,380.66c-.42.61-.84,1.21-1.25,1.82-.04.02-.08.04-.13.06.33-4.81.67-9.61,1-14.42.67-.19,1.34-.38,2.01-.56-1.2,2.09-1.66,3.02-1.88,6.14.08,2.32.17,4.64.25,6.96ZM145.36,415.46c2.6,1.56,7.27,1.46,10.16.31,1.52-.6,2.45-1.97,3.7-2.57-2.99,6.14-13.19,6.28-16.43.25.85.65,1.62,1.44,2.57,2.01ZM143.11,416.72c.77.6,1.52,1.3,2.38,1.82,3.12,1.87,8.59,1.33,11.35-.38h.06c-1.09,2.38-2.17,4.77-3.26,7.15-3.59.02-7.19.04-10.78.06.08-2.88.17-5.77.25-8.65ZM166.68,415.03c0,2.97-2.17,5.48-4.45,6.14-.02-.61-.04-1.21-.06-1.82,1.14-.5,2.08-1.93,2.38-3.26.02-.54.04-1.09.06-1.63.44-.63.88-1.25,1.32-1.88.04-.02.08-.04.13-.06.24.73.31,1.66.63,2.51ZM162.17,414.96l-.13.06c-.13-2.61-.25-5.23-.38-7.84,4.41-6.35,8.82-12.71,13.23-19.06.04-.02.08-.04.13-.06.08,2.09.17,4.18.25,6.27-.02,3.02-2.08,4.67-3.39,6.52-3.24,4.7-6.48,9.41-9.72,14.11ZM175.08,399.48c1.34-2.16,2.34-1.3,4.26-2.51.9-.73,1.8-1.46,2.7-2.19-1.23,2.32-3.65,4.51-6.96,4.7ZM177.03,395.09c-.08-3.07-.17-6.15-.25-9.22,1.93-.35,4.92-2.38,5.58-3.95.04-.02.08-.04.13-.06.06,1.59.13,3.18.19,4.77.04,4.29-2.3,7.75-5.64,8.46ZM184.24,378.09c1.77,1.18,2.21,2.43,3.07,4.58.03,2.61-1.08,5.44-2.88,6.02v-2.51c.3-.88,1.07-1.69.82-3.2-.32-1.92-1.07-2.28-1.07-4.89h.06ZM176.02,379.91c-5.43,1.55-12.55-2.26-11.47-7.96.32-1.71,1.12-3.29,2.26-4.2.42-.36.84-.71,1.25-1.07.06-.48.13-.96.19-1.44.27-.6,1.17-1.22,1.57-1.82,1.38-2.09,2.76-4.18,4.14-6.27.8-1.2,1.8-2.37,2.38-3.76,1.47-3.51,1.13-8.46,1.88-12.67.82-7.11,1.63-14.21,2.45-21.32-1.09,15.49-2.17,30.98-3.26,46.46,1.01,1.02,2.44,1.67,3.26,2.88.62.92.73,1.92,1.19,3.07.05,4.46-2.45,7.12-5.83,8.09ZM187.31,377.78c-.02.06-1.86-1.5-2.32-1.76.02-.38.04-.75.06-1.13,1.13.65,1.52,1.83,2.26,2.88ZM188.06,367.31c-.04,2.4-.08,4.81-.13,7.21h-.06c-.52-1.08-1.71-1.57-2.51-2.38-.33-.37.03-3.92.13-4.58,1.13.02,1.98-.31,2.32-1.07.04-.02.08-.04.13-.06.04.29.08.59.13.88ZM188.06,353.83c-.54,3.51.4,10.22-1.82,11.85-.16.13-.37.14-.69.13.94-16.51,1.88-33.02,2.82-49.53.61-.38,1.21-.75,1.82-1.13-.71,12.89-1.42,25.79-2.13,38.69ZM182.67,368.12c-.77-.77-1.25-1.91-2.32-2.38-.62-.94-.35-4.06-.19-5.39.31-4.47.63-8.95.94-13.42,1.3-17.62,2.59-35.24,3.89-52.86,1.04-.63,2.09-1.25,3.14-1.88-1.82,25.31-3.64,50.62-5.46,75.93ZM188.38,314.01c.02-.46.04-.92.06-1.38,1-.59,2.01-1.17,3.01-1.76,1.8-1.36,3.6-2.72,5.39-4.08,1.86-1.88,3.72-3.76,5.58-5.64,1.04-1.36,2.09-2.72,3.14-4.08-3.32,6.22-10.8,13.81-17.18,16.93ZM210.89,269.81c.02.13.04.25.06.38.01,14.93-5.45,24.51-12.92,31.98-2.69,2.69-5.77,5.67-9.34,7.4.44-6.17.88-12.33,1.32-18.5,1.92-.67,3.51-2.55,5.08-3.7,4.99-3.67,8.67-8.54,11.91-13.98.79-1.33,1.77-2.66,2.19-4.33.56.25,1.13.5,1.69.75ZM210.76,267.11h-.06c-.19-.08-.38-.17-.56-.25.21-.54.42-1.09.63-1.63v1.88ZM196.97,214.38c1.15,2.91,2.55,5.79,4.08,8.34,3.25,5.42,8.28,9.19,11.22,14.92.71,1.38,1.26,3.08,1.63,4.7.08.84.17,1.67.25,2.51-.02.85-.17,1.87-.31,2.82-.1,5.75-.21,11.5-.31,17.24-.99-1.54-.25-4.11-.63-6.4-.87-5.25.65-11.4-.75-15.99-1.36-4.46-3.75-7.99-6.27-11.35-.77-.77-1.55-1.55-2.32-2.32-2.71-3.42-6.52-8.36-7.71-13.1v-5.39c.38,1.34.75,2.68,1.13,4.01ZM204.62,145.47v13.23h-2.88c-.02-4.41-.04-8.82-.06-13.23h2.95ZM204.24,128.48v13.29h-2.95v-13.29h2.95ZM199.29,85.4c-.23,13.71-.46,27.42-.69,41.13v12.67c.21,10.6.42,21.19.63,31.79h-3.64c-.1-4.22-.21-8.44-.31-12.67-.06-2.7-.13-5.39-.19-8.09-.04-1.82-.08-3.64-.13-5.46-.02-3.32-.04-6.65-.06-9.97.06-7.88.13-15.76.19-23.64.08-3.91.17-7.82.25-11.73.1-4.68.21-9.36.31-14.05h3.64ZM156.59,96.75h-18.18c-6.81,0-15.36-.66-20.57.82-4.06,1.15-7.38,2.59-10.53,4.45-1.44.71-2.88,1.42-4.33,2.13-1.11.77-2.22,1.55-3.32,2.32-.67.67-1.34,1.34-2.01,2.01-.15-3.68-.29-7.36-.44-11.04,2.76-2.24,5.52-4.47,8.28-6.71.73-.57,2.56-2.48,3.32-2.57.48-.47.97-1.1,1.63-1.38.06-.06.13-.13.19-.19.43.91-.06,1.96.69,2.51,1.85,1.35,9.09,1.18,11.91.94,1.45-.12,3.77.46,4.83-.25.94-.63.83-2.66.82-4.2,10.57-.04,21.15-.08,31.73-.13.61.44.13,1.69.31,2.57.18.85.96,1.29,1.57,1.69.73.49,2.35.31,3.51.31h8.28c1.11,0,2.91.23,3.64-.25.88-.58.83-2.12.82-3.57,4.7,3.82,9.41,7.65,14.11,11.47-.1,4.47-.21,8.95-.31,13.42h-.06c-1.36-3.39-7.47-6.6-10.78-8.34-4.99-2.61-8.65-4.51-15.17-5.83-2.91-.59-6.69-.19-9.91-.19ZM88.37,145.78c-.47-3.03-.19-6.61-.19-9.91.02-2.3.04-4.6.06-6.9.06-5.22.13-10.45.19-15.68.4-9.28.79-18.56,1.19-27.84h3.7c-.4,9.66-.79,19.31-1.19,28.97-.04,4.1-.08,8.19-.13,12.29-.02,1.4-.04,2.8-.06,4.2v9.91c.04,1.9.08,3.8.13,5.71.76,5.07.19,10.8.19,16.18-1.05-.34-1.54-.62-3.14-.69-.25-5.41-.5-10.83-.75-16.24ZM86.42,158.7h-2.63c-.14-4.2-.14-9.03,0-13.23h2.01c.21,4.41.42,8.82.63,13.23ZM85.67,141.77h-2.7c-.27-4.16-.27-9.14,0-13.29h2.7v13.29ZM98.9,85.46c2.86.02,5.73.04,8.59.06-3.45,2.61-6.9,5.23-10.35,7.84-.06.06-.13.13-.19.19h-.06c-.02-1.52-.18-3.71.19-4.77-.58-.22-.35-2.52-.31-3.32h1.94c-.15.31-.29.63-.44.94h.25c.13-.31.25-.63.38-.94ZM94.82,112.55s0,0,0,0c.14-4.07.29-8.15.43-12.22h.31c.15,3.49.29,6.98.44,10.47-.4.58-.79,1.17-1.19,1.75,0,.04,0,.09,0,.13v-.13ZM182.04,85.59h-.13c.98-.04,1.96-.08,2.95-.13h7.59v8.03h-.06c-3.45-2.63-6.9-5.27-10.35-7.9ZM176.02,84.71c.37.4.15,2.26.13,2.95-4.49.02-8.99.04-13.48.06v-3.01h13.36ZM125.92,84.71v3.01h-13.48v-3.01h13.48ZM184.49,77.75h4.58c3.82.1,7.65.21,11.47.31.02,1.34.04,2.68.06,4.01-20.03-.5-40.71-.5-61.26-.5-10.18.04-20.36.08-30.54.13-6.65.13-13.29.25-19.94.38v-4.01c5.89-.13,11.79-.25,17.68-.38h7.78c13.4-.04,26.8-.08,40.19-.13,9.99.06,19.98.13,29.97.19ZM154.27,65.59c11.4,0,22.81.37,33.8.44.02,3.03.04,6.06.06,9.09-7.38-.15-14.76-.29-22.13-.44h-11.54c-6-.02-12-.04-18-.06-4.01.02-8.03.04-12.04.06-2.26.02-4.51.04-6.77.06-5.39.13-10.79.25-16.18.38v-9.03c5.08-.65,11.2-.42,16.55-.44h6.4c5.12-.02,10.24-.04,15.36-.06h14.48ZM82.35,64.52c1.18,1.81,3.48.9,6.08,1.38,3.76.1,7.52.21,11.29.31v9.03c-2.78.08-5.56.17-8.34.25-1.78.3-3.35-.31-4.08,1-.15,4.6-.29,9.2-.44,13.79-.17,4.43-.33,8.86-.5,13.29-.47,2.39.13,4.78-.25,6.71-.13,5.48-.25,10.95-.38,16.43-1.43-.01-3.63-.17-4.26.82-.53.83-.12,2.25-.31,3.45-.31,1.98-.21,11.16.5,12.04.51.63,2.15.58,3.26.56.02.04.04.08.06.13-1.15,0-2.17.07-2.63.75-.57.83-.38,2.76-.38,4.08v7.34c0,1.21-.14,2.72.25,3.64.4.95,2.88,1.75,4.33,1.82.07.96-1.47.55-2.51.56-2.22.13-4.43.25-6.65.38-.44.11-.68.47-1,.63-.84.08-1.67.17-2.51.25-2.75,1.09-6.08,1.84-9.03,2.45-1.21.38-2.42.75-3.64,1.13-2.46.6-5.02.4-7.46,1.07h-.06c.02-.28.04-.34.13-.5-.06-.04-.13-.08-.19-.13-.05.37-.06.28-.25.56.08-.02.17-.04.25-.06-.34.36-2.04.56-2.63.38-1.24-.57-4.16-4.24-5.08-5.39-3.57-4.48-8.08-7.96-11.16-12.98-.19-.31-.93-.89-1.25-1.32-1.61-2.03-3.22-4.05-4.83-6.08-7.03-9.87-13.53-20.01-17.68-33.04-1.92-6.04-3.87-15.38-2.07-23.07.94-4.01,1.79-7.3,3.26-10.66,1.63-3.73,4.43-7.12,7.09-9.91,1.96-2.07,4.27-4.83,6.77-6.71,5.94-4.47,12.21-8.2,19.25-11.73,3.19-1.6,6.73-3.01,10.16-4.45.96-.4,2.86-1.66,3.95-1.44,1.43-1.08,3.75-1.25,5.52-1.94,2.27-.89,4.77-1.53,7.27-2.32.76-.24,2.24-1,3.01-.82.95-.67,5.51-1.76,6.96-1.94.02,7.36.04,14.71.06,22.07,0,1.29-.25,7.64.13,8.21ZM90.44,166.1c.56-.22,1.33-.07,1.76-.31v.75c-.46-.35-.85-.47-1.76-.44ZM76.7,166.16c-.42.18-.63.22-.94.44-.19.97-.24,2.34-.06,3.26.84.59,2.75.37,4.14.31,2.54-.1,5.72-.06,8.53-.06,1.29,0,2.93.26,3.76-.31-.02.52-.04,1.05-.06,1.57v.13c-1.31-.93-9.86-.38-12.29-.38-1.33,0-3.26-.19-4.08.38-.27,1.34-.34,3.34.25,4.14,3.18.58,8.09.13,11.6.13,1.51,0,3.61.21,4.51-.44-.02.59-.04,1.17-.06,1.76-.82-.52-2.62-.25-3.95-.25h-8.65c-1.32,0-2.88-.26-3.7.31-.19.98-.26,2.5,0,3.45.1.15.21.29.31.44,1.61.06,3.22.13,4.83.19,2.17.32,5.04.32,7.21,0,1.3-.19,2.92.25,3.89-.25v.82c-2.59-.47-5.62.54-8.4.13-2.23-.34-5.63-.56-7.65-.13-.2.8-.14,1.81-.06,2.76-.44-.04-.88-.08-1.32-.13-.58-1.63-.31-4.26-.31-6.27.02-3.16.04-6.31.06-9.47.08-1.14-.12-2.72.19-3.82.44-.04.88-.08,1.32-.13.02.31.04.63.06.94.16.36.34.51.88.5ZM77.71,168.42c-.1-.17-.21-.33-.31-.5,4.04-.14,9-.8,13.04-.06-.13.19-.25.38-.38.56-4.14,0-8.15,0-12.35,0ZM80.34,172.87h9.84c.08.08.17.17.25.25v.44c-.76.55-2.45.38-3.76.38h-9.09v-.13c-.21-.18-.25-.22-.25-.63v-.06c.69-.45,1.96-.09,3.01-.25ZM90.44,179.01v.38c-1.32.04-2.63.08-3.95.13-3.02.13-6.1-.11-9.09-.13-.02-.1-.04-.21-.06-.31.13-.17.25-.33.38-.5h8.84c1.41-.02,3.11-.16,3.89.44ZM90.12,183.47c-.67.36-1.81.05-2.7.19-3.09.46-6.57-.04-9.59-.19.77-.3,3.63,0,4.51.13,2.59-.04,5.18-.08,7.78-.13ZM66.86,178.2c-.52-3.4-.04-7.98.13-11.29,1.61-.42,3.22-.84,4.83-1.25-.01,4.46-.72,9.38-.06,13.79.04,1.25.08,2.51.13,3.76v.38c-.65-.1-4.74-1.11-4.89-1.38-.04-1.34-.08-2.68-.13-4.01ZM64.73,180.27c-1.05-.69-1.38-1.97-2.45-2.57.04-3.18.08-6.35.13-9.53.79-.23,1.59-.46,2.38-.69,0,4.19-.06,8.53-.06,12.79ZM200.1,30.29c.65.98,4.05.93,5.58.94.02,10.55.04,21.11.06,31.66-4.85-.15-9.7-.29-14.55-.44-2.88-.04-5.77-.08-8.65-.13-9.43-.04-18.85-.08-28.28-.13h-22.76c-16.03,0-32.18.09-47.59.75v-29.16c9.45-2.28,19.41-4.04,29.41-6.02,7.47-1.48,15.2-1.77,22.82-3.14,5.73-.59,11.45-1.17,17.18-1.76,1.76-.13,3.51-.25,5.27-.38,4.84-.77,10.04-.29,15.05-1.07,3.51-.19,7.02-.38,10.53-.56,5.16-.21,10.33-.42,15.49-.63-.03,2.4-.51,8.61.44,10.03ZM204.68,29.03c-.62.31-2.49.07-2.38-.56.31-.59.95-.58,1.07-1.44h.63c0,.87.19,1.62.69,2.01ZM224.87,27.4c-.01-.85-.09-1.7-.44-2.19-3.24.06-6.48.13-9.72.19-1.96-.04-3.93-.08-5.89-.13h-.13c-.46.6-.41,1.28-.38,2.32h-2.51c-.43-2.16-.2-5.01-.19-7.46,6.83-.1,13.67-.21,20.5-.31.04,2.49.08,4.97.13,7.46-.46.04-.92.08-1.38.13ZM228.82,26.52h-.06c-.02-2.22-.04-4.43-.06-6.65h4.89c.02,1.8.04,3.6.06,5.39-1.61.42-3.22.84-4.83,1.25ZM235.84,24.7h-.06c-.02-1.61-.04-3.22-.06-4.83h2.45c.02,1.4.04,2.8.06,4.2-.79.21-1.59.42-2.38.63ZM252.77,21.44v.06c-1.44.15-2.88.29-4.33.44-2.59.56-5.18,1.13-7.78,1.69-.02-1.23-.04-2.47-.06-3.7,2.84.04,5.69.08,8.53.13,1.13.04,2.26.08,3.39.13.08.42.17.84.25,1.25ZM266.31,20.63h-.13c.61-.04,1.21-.08,1.82-.13,1.42-.31,1.93-1.01,2.88-1.69-.54,1.12-2.69,3-4.58,1.82ZM274.15,16.87c-.25.13-.5.25-.75.38-.1-.04-.21-.08-.31-.13.11-.77.63-.46,1.07-.25ZM211.89,11.54c.61-.04,1.21-.08,1.82-.13-.4.2-1.22.14-1.82.13ZM218.66,11.41c-1.55.02-3.09.04-4.64.06,1.21-.48,3.24-.08,4.64-.06ZM238.1,10.97c.02.17.04.33.06.5-.79-.02-1.59-.04-2.38-.06v-1.07c.77.21,1.55.42,2.32.63ZM233.52,9.78h.13c-.02.54-.04,1.09-.06,1.63h-4.89c.02-.96.04-1.92.06-2.88,1.59.42,3.18.84,4.77,1.25ZM208.19,7.52c.24.26.14,1.15.13,1.63.15.13.29.25.44.38,1.38.25,3.44.08,4.83-.13,2.19-.32,4.48.06,6.58.13,1.4.05,3.57.44,4.51-.19.06-.56.13-1.13.19-1.69.46.04.92.08,1.38.13-.02,1.21-.04,2.42-.06,3.64h-1.44c.02-.7-.06-1.01-.31-1.38-1.36-.34-3.07,0-4.64-.25-2.38-.36-5.37-.36-7.78,0-2.13.31-3.83-.71-3.82,1.82-.86.02-1.71.04-2.57.06-.01-1.22-.25-3.13.19-4.08v-.13c.79.02,1.59.04,2.38.06ZM204.49,6.21c-.36.57-.28,1.24-.56,2.01v.13c-.17-.06-.33-.13-.5-.19-.22-.69-.43-1.23-1.19-1.38v-.31c.23-.17.46-.33.69-.5.41.21.87.27,1.57.25ZM83.91,3.64c2.65-.54,5.91-.26,8.72-.5,6.15-.52,12.97-.5,19.63-.5,3.39-.02,6.77-.04,10.16-.06,7.86-.04,15.72-.08,23.58-.13,12.54.08,25.08.17,37.62.25,6.21.19,12.42.38,18.62.56-.83.31-1.69-.03-2.13.63-.81,1.2-.47,5.86-.44,7.9-6,.25-12,.5-18,.75-3.7.21-7.4.42-11.1.63-1.3.06-2.59.13-3.89.19-4.08.33-8.15.67-12.23,1-2.95.25-5.89.5-8.84.75-2.65.27-5.31.54-7.96.82-6.03,1.03-12.4,1.29-18.25,2.45-2.4.33-4.81.67-7.21,1-6.43,1.27-13.14,2.17-19.31,3.7-3.05.76-6.11,1.1-8.97,2.01V3.64ZM44.04,170.49c-3.62-4.01-7.23-8.03-10.85-12.04-8.27-10.37-16.52-20.9-22.82-33.23-3.11-6.08-5.23-12.69-7.34-19.75-.33-2.32-.67-4.64-1-6.96-.33-1.73-.43-4.22-.25-6.27.02-1.48.04-2.97.06-4.45.48-2.47.96-4.93,1.44-7.4,1.89-6.5,5.39-12.11,9.09-16.87,14.52-18.64,38.97-27.28,64.52-34.93,8.1-2.43,16.67-3.78,25.21-5.64,7.35-1.6,15.02-2.24,22.57-3.64,3.18-.4,6.35-.79,9.53-1.19,3.26-.33,6.52-.67,9.78-1,6.1-1.04,12.76-.76,19-1.76,2.24-.13,4.47-.25,6.71-.38,7.21-1.15,15.29-.45,22.7-1.13,3.85-.13,7.69-.25,11.54-.38,2.03-.04,4.05-.08,6.08-.13,5.56-.06,11.12-.13,16.68-.19,7.36.08,14.71.17,22.07.25,3.16.08,6.31.17,9.47.25,2.75.43,8.62-.43,10.53.63.71.4.75,1.12,1.13,1.88-.13,2.5-2.03,2.63-4.58,2.57-1.07-.02-2.13-.04-3.2-.06-2.88-.08-5.77-.17-8.65-.25-5.79-.1-11.58-.21-17.37-.31h-16.55c-3.59.06-7.19.13-10.78.19-5.2.15-10.41.29-15.61.44-1.71.04-3.43.08-5.14.13-6.1.36-12.21.71-18.31,1.07-2.74.17-5.48.33-8.21.5-2.76.23-5.52.46-8.28.69-7.11.75-14.21,1.5-21.32,2.26-2.32.29-4.64.59-6.96.88-8.11,1.56-16.3,2.21-24.2,3.95-7.76,1.71-15.6,3.05-23.01,5.27-16.97,5.07-32.58,10.56-45.96,19.06-3.15,2-5.99,4.6-8.84,6.9-9.32,7.51-19.18,22.41-15.74,40.69.21,1.55.42,3.09.63,4.64,1.63,6.48,4.04,12.25,6.52,17.87,1.19,2.05,2.38,4.1,3.57,6.14,3.04,5.16,6.07,10,9.53,14.74,3.01,3.78,6.02,7.57,9.03,11.35,3.39,3.76,6.77,7.52,10.16,11.29,4.2,4.24,8.4,8.49,12.6,12.73-.45,1.32-1.14,3.13-2.32,3.7l-.38.38c-4.16-4.16-8.32-8.32-12.48-12.48ZM54.13,191.3c-7.26-2-14.29-3.95-18.31-9.15,1.05-.37,1.59-1.2,2.32-1.88.31-.28,1.58-.15,2.13-.13,2.68,2.06,5.62,3.61,9.09,4.95,2.74,1.06,5.73,1.53,8.34,2.7.29.33.59.67.88,1,.97,1.21,2.78,3.18,4.08,4.01-.13.1-.25.21-.38.31-2.77-.2-5.63-1.12-8.15-1.82ZM72.19,197.14c-2.89-1.15-5.26-3.17-7.52-4.95-1.2-.94-3.54-2.73-4.2-4.08-.29-.29-.59-.59-.88-.88,1.29-.57,3.55-3.95,3.82-5.58.04-.02.08-.04.13-.06,3.92,3.77,8.22,6.12,15.11,7.02,3.44.45,6.77-.59,10.1-.63,0,3.67.06,7.22.06,10.78-5.71-.05-12.4.06-16.62-1.63ZM73.07,185.6c.19.08.38.17.56.25-.19-.04-.38-.08-.56-.13v-.13ZM74.32,186.23h.82c-.16.13-.46.04-.82,0ZM75.2,186.29h1.19c.08.08.17.17.25.25-.48-.06-.96-.13-1.44-.19v-.06ZM74.51,257.52c-1.18-4.69-1.56-12.19.19-16.49,2.51-6.17,7.39-10.1,11.1-15.05,2.1-2.81,4.69-7.8,5.83-11.41,1.02-3.23,1.43-6.24,2.07-10.03.1-5.98.21-11.96.31-17.93.27-18.01.54-36.03.82-54.05.06-4.62.13-9.24.19-13.86.9-4.96,3.07-8.84,6.4-11.35,1.62-1.22,3.44-1.94,5.27-3.01,4.4-2.57,8.75-4.42,14.61-5.64,2.42-.51,5.39-.25,8.09-.25h29.09c2.51,0,5.21-.23,7.46.19,5.21.97,9.21,2.53,13.04,4.77,1.5.75,3.01,1.5,4.51,2.26,2.92,1.78,5.16,4.19,6.9,7.15,1.68,2.85,1.63,6.61,1.63,11.1-.02,1.53-.04,3.05-.06,4.58-.02,3.36-.04,6.73-.06,10.1-.17,21.99-.33,43.98-.5,65.96.17,1.63.33,3.26.5,4.89,1.55,6.23,3.69,11.52,6.71,16.24,1.56,2.43,3.94,4.26,5.64,6.52,1.48,2.28,2.97,4.56,4.45,6.83.77,1.32,1.23,3.1,1.63,4.7.08.69.17,1.38.25,2.07.03,24.7-14.97,37.83-32.54,44.96-3.99,1.62-8.53,2.22-13.17,3.14-1.61.08-3.22.17-4.83.25-1.73.29-3.91.13-5.83.13h-26.33c-3.31,0-6.62.19-9.66-.38-9.93-1.86-18.18-4.36-25.02-9.22-9.09-6.46-15.55-14.65-18.69-27.15ZM74.95,269.87s.08-.04.13-.06c.72,2.68,3,5.89,4.51,7.96,3.09,4.23,6.36,7.7,10.53,10.85,1.36,1.03,2.59,2.14,4.2,2.95.23,5.1.46,10.2.69,15.3v1.94h-.06c-2.72-1.67-5.14-3.93-7.34-6.14-7.66-7.75-12.96-17.21-12.67-32.79ZM91.94,310.63c-4.38-3.3-8.32-7.35-11.16-12.16.86,1.15,1.71,2.3,2.57,3.45,1.65,1.65,3.3,3.3,4.95,4.95,1.67,1.3,3.34,2.59,5.02,3.89.64.44,1.37.64,1.88,1.19v1.13c-1.24-.66-2.18-1.63-3.26-2.45ZM99.09,362.04c-.23-5.48-.46-10.95-.69-16.43-.75-17.64-1.5-35.28-2.26-52.92.77.44,1.55.88,2.32,1.32,1,23.49,2.01,46.99,3.01,70.48v1.19c-.57.7-1.4,1.52-2.07,2.13v.13c-.71-1.53-.04-4.07-.31-5.89ZM100.03,374.46c-.92-2.79.87-5.82,2.32-6.96.48-.38.96-.75,1.44-1.13v-1.88c-.65-14.55-1.3-29.1-1.94-43.64.23,2.53.46,5.06.69,7.59.54,5.71,1.09,11.41,1.63,17.12.36,2.18.11,4.51.69,6.46.74,2.46,2.22,4.19,3.45,6.14,1.23,1.94,2.47,3.89,3.7,5.83.52.71,2.01,1.64,2.32,2.13.02.29.04.59.06.88.61.71,1.21,1.42,1.82,2.13.51.8.52,1.76.94,2.7.11,10.31-14.4,10.9-17.12,2.63ZM100.59,379.47c1.15.88,2.33,1.84,3.82,2.38,5.59,2.04,9.44-.65,12.54-3.01-2.83,5.94-13.12,6.75-16.37.63ZM105.73,395.09c-5.04-2.34-5.85-5.22-5.77-12.54,1.59,1.24,2.93,2.96,5.39,3.32.15,2.57.29,5.14.44,7.71v1.5h-.06ZM101.35,395.27c1.14.86,2.26,1.74,3.7,2.32.61.15,1.21.29,1.82.44.29.44.59.88.88,1.32-2.02.59-5.71-2.78-6.4-4.08ZM119.28,413.83c-3.87-5.91-7.73-11.83-11.6-17.74-.13-2.55-.25-5.1-.38-7.65h.06c3.93,6,7.86,12,11.79,18-.02.42-.04.84-.06,1.25.08,1.69.17,3.39.25,5.08v1.07h-.06ZM121.85,413.52c1.42,1.06,2.8,2.29,4.77,2.82,5.47,1.47,8.72-1.01,11.66-3.2-2.9,5.99-13.31,6.52-16.43.38ZM123.23,426.88c-.4-.69-.79-1.38-1.19-2.07-.78-1.93-.8-5.13-.75-7.71h.06c1.36,2.86,2.72,5.73,4.08,8.59-.46.24-.76.36-1.13.63-.06.82-.13,1.63-.19,2.45-.29-.63-.59-1.25-.88-1.88ZM127.68,475.53c-.38-15.93.21-32.32.19-48.41h9.91c-.13,11.01-.25,22.03-.38,33.04.02,3.22.04,6.44.06,9.66.16,1.9-.22,4.01.25,5.64v.06h-10.03ZM142.73,475.53c-.14-15.98.21-32.31.19-48.34h9.91c-.01,16.02-.84,32.49-.13,48.34h-9.97Z"/>
      <path class="cls-1" d="M208.32,24.45c.93.68,3.02.48,4.58.5,3,.05,6.25.31,9.22-.13.71-.04,1.42-.08,2.13-.13.15-.13.29-.25.44-.38.02-.77.04-1.55.06-2.32-.2-.52-.13-.95-.38-1.32h-11.47c-1.55,0-3.55-.39-4.58.31-.2,1.03-.2,2.41,0,3.45ZM222.99,22.82v.25c-4.27.1-8.73.14-13.04.06.13-.25.25-.5.38-.75h9.15c1.34-.02,2.78-.12,3.51.44Z"/>
      <path class="cls-1" d="M118.96,287.36c2.4.1,4.81.21,7.21.31,5.71.02,11.41.04,17.12.06h10.35c2.09-.06,4.18-.13,6.27-.19,1.34-.06,2.68-.13,4.01-.19,4.35-.78,8.64-1.38,12.35-2.88,10.36-4.2,18.63-10.21,24.08-19.31,3.32-5.54,5.97-12.21,5.83-21.19-.04-.71-.08-1.42-.13-2.13-.31-1.52-.72-2.99-1.32-4.26-2.38-5.11-6.81-8.62-9.91-13.04-3.42-4.89-6.03-11.23-7.4-18-.15-1.55-.29-3.09-.44-4.64.17-21.86.33-43.73.5-65.59.04-4.87.08-9.74.13-14.61,0-3.96.19-7.82-1.19-10.47-1.99-3.82-5.3-5.68-9.15-7.65-2.96-1.51-5.7-3.09-9.28-4.08-2.83-.78-6.41-.69-9.97-.69h-27.97c-2.69,0-5.63-.27-8.09.19-4.79.9-8.09,2.54-11.73,4.39-2.11,1.08-4.26,2.02-6.08,3.39-6.2,4.67-5.18,13.79-5.2,24.33-.25,17.2-.5,34.4-.75,51.6-.1,6.27-.21,12.54-.31,18.81-.19,1.63-.38,3.26-.56,4.89-.54,1.94-1.09,3.89-1.63,5.83-1.36,4.32-3.72,8.6-6.08,12.1-3.31,4.91-8.31,8.44-10.78,14.23-1.73,4.06-1.21,11.2-.13,15.61,2.8,11.38,9,19,17.31,24.83,6.27,4.4,13.84,6.72,22.95,8.34ZM93.13,273.32c-.69-.73-1.38-1.46-2.07-2.19-5.09-5.09-7.91-10.47-9.97-18.69-.9-3.61-1.21-9.58.13-12.85,2.22-5.46,6.92-9.14,10.28-13.54,2.49-3.26,5.07-8.53,6.58-12.67.63-2.32,1.25-4.64,1.88-6.96.21-2.17.42-4.35.63-6.52.08-5.71.17-11.41.25-17.12.25-17.18.5-34.36.75-51.54v-3.76c.06-3.03.13-6.06.19-9.09.23-1.45-.06-2.78.25-4.01.58-2.32,2.32-4.68,4.01-5.96,1.63-1.23,3.63-2.04,5.52-3.01,3.31-1.69,6.32-3.25,10.66-4.08,2.19-.42,5-.13,7.4-.13h15.24c4.45-.02,8.9-.04,13.36-.06,2.13.04,4.26.08,6.4.13,4.18.75,7.08,2.15,10.22,3.76,3.7,1.9,6.82,3.33,8.97,6.77,1.38,2.23,1.19,5.39,1.19,8.97-.04,5.29-.08,10.58-.13,15.86-.17,21.82-.33,43.64-.5,65.46.17,1.67.33,3.34.5,5.02,1.66,7.05,4.12,13.33,7.65,18.56,1.23,1.55,2.47,3.09,3.7,4.64.73.73,1.46,1.46,2.19,2.19,1.21,1.84,2.42,3.68,3.64,5.52.8,1.36.8,2.94,1.44,4.58.04,23.12-15.97,37.04-34.8,41.2-6.8,1.5-15.47,1.19-23.76,1.19-10.53,0-22.62.88-31.29-1.32-8.33-2.11-14.71-5.77-20.5-10.35Z"/>
      <path class="cls-1" d="M175.21,367.18c-4.01-1.19-8.99,1.84-8.53,5.77.89,7.6,12.19,7.45,13.04-.31-.1-.59-.21-1.17-.31-1.76-.7-1.8-2.28-3.13-4.2-3.7ZM169.69,373.33c-.56-2.35,2.17-4.04,4.33-3.51,1.55.38,2.05,1.15,2.7,2.45.12,4.32-6.2,4.5-7.02,1.07Z"/>
      <path class="cls-1" d="M157.4,406.81c-.08-.56-.17-1.13-.25-1.69-.66-1.77-2.17-3.18-4.01-3.76-4.26-1.35-9.53,1.75-8.72,6.4,1.2,6.89,12.43,6.61,12.98-.94ZM147.37,407.44c-.53-2.41,2.24-4.08,4.58-3.45,1.36.37,1.85,1.16,2.45,2.32.13,4.5-6.25,4.62-7.02,1.13Z"/>
      <path class="cls-1" d="M123.42,407.56c1.19,7.2,13.13,6.87,12.98-1.32-1.11-2.77-1.58-4.17-4.64-5.02-4.14-1.14-9.04,2.11-8.34,6.33ZM130.75,403.93c1.58.35,2.09,1.23,2.7,2.57.08,4.17-6.34,4.38-7.09.88-.49-2.3,2.23-3.93,4.39-3.45Z"/>
      <path class="cls-1" d="M119.91,96.94h.19c.02-.06.04-.13.06-.19h-.13s-.08.08-.13.13v.06Z"/>
      <path class="cls-1" d="M114.89,372.64c-.08-.56-.17-1.13-.25-1.69-.67-1.81-2.22-3.14-4.08-3.76-4.19-1.39-9.4,1.97-8.65,6.27,1.22,7.04,12.15,6.74,12.98-.82ZM104.86,373.14c-.44-2.26,2.28-3.89,4.51-3.32,1.52.38,1.97,1.24,2.57,2.57-.08,4.17-6.37,4.4-7.09.75Z"/>
      <path class="cls-1" d="M105.61,73.55v-.19h-.25v.19h.25Z"/>
      <path class="cls-1" d="M105.17,73.86h.25v-.25c-.26.1-.15-.01-.25.25Z"/>
      <path class="cls-1" d="M105.04,74.55c.08-.21.17-.42.25-.63h-.25c-.08.21-.17.42-.25.63h.25Z"/>
      <path class="cls-1" d="M104.92,74.62h-.25v.25c.26-.1.15.01.25-.25Z"/>
      <path class="cls-1" d="M98.08,86.72h.25v-.25c-.26.1-.15-.01-.25.25Z"/>
      <path class="cls-1" d="M97.96,87.41c.08-.21.17-.42.25-.63h-.25c-.08.21-.17.42-.25.63h.25Z"/>
      <path class="cls-1" d="M97.83,87.47h-.25v.25c.26-.1.15.01.25-.25Z"/>
      <path class="cls-1" d="M97.65,87.78h-.25v.25c.26-.1.15.01.25-.25Z"/>
      <path class="cls-1" d="M97.02,88.72c.29-.1.38-.31.44-.63h-.19c-.08.15-.17.29-.25.44v.19Z"/>
      <path class="cls-1" d="M85.73,109.1c.24-.09.13,0,.25-.19-.21.09-.13.04-.25.19Z"/>
      <path class="cls-1" d="M85.54,109.42c.24-.09.13,0,.25-.19-.21.09-.13.04-.25.19Z"/>
      <path class="cls-1" d="M85.61,109.6h-.19v.13c.19-.08.08,0,.19-.13Z"/>
      <path class="cls-1" d="M85.42,109.92h-.19v.13c.19-.08.08,0,.19-.13Z"/>
      <path class="cls-1" d="M84.98,110.42c.23-.07.18-.05.31-.19-.23.07-.18.05-.31.19Z"/>
      <path class="cls-1" d="M84.85,110.73h.19c.02-.06.04-.13.06-.19h-.13l-.13.13v.06Z"/>
      <path class="cls-1" d="M84.92,110.92h-.19s-.04.08-.06.13c.08-.04.17-.08.25-.13Z"/>
      <path class="cls-1" d="M84.73,111.23h-.19s-.04.08-.06.13c.08-.04.17-.08.25-.13Z"/>
      <path class="cls-1" d="M84.29,111.74h.19c.02-.06.04-.13.06-.19h-.13l-.13.13v.06Z"/>
      <path class="cls-1" d="M84.1,112.05c.24-.09.13,0,.25-.19-.21.09-.13.04-.25.19Z"/>
      <path class="cls-1" d="M84.17,112.24h-.19s-.04.08-.06.13c.08-.04.17-.08.25-.13Z"/>
      <path class="cls-1" d="M83.98,112.55h-.19v.13c.19-.08.08,0,.19-.13Z"/>
      <path class="cls-1" d="M83.54,113.05c.24-.09.13,0,.25-.19-.21.09-.13.04-.25.19Z"/>
      <path class="cls-1" d="M83.41,113.37h.19c.02-.06.04-.13.06-.19h-.13l-.13.13v.06Z"/>
      <path class="cls-1" d="M83.41,113.55h-.19v.13c.19-.08.08,0,.19-.13Z"/>
      <path class="cls-1" d="M83.29,113.87h-.19s-.04.08-.06.13c.08-.04.17-.08.25-.13Z"/>
      <path class="cls-1" d="M82.85,114.37h.19c.02-.06.04-.13.06-.19h-.13s-.08.08-.13.13v.06Z"/>
      <path class="cls-1" d="M82.66,114.68c.24-.09.13,0,.25-.19-.21.09-.13.04-.25.19Z"/>
      <path class="cls-1" d="M82.72,114.87h-.19s-.04.08-.06.13c.08-.04.17-.08.25-.13Z"/>
      <path class="cls-1" d="M82.53,115.18h-.19s-.04.08-.06.13c.08-.04.17-.08.25-.13Z"/>
      <path class="cls-1" d="M82.1,115.69c.24-.09.13,0,.25-.19-.21.09-.13.04-.25.19Z"/>
      <path class="cls-1" d="M81.91,116c.23-.07.18-.05.31-.19-.23.07-.18.05-.31.19Z"/>
      <path class="cls-1" d="M81.97,116.19h-.19v.13c.19-.08.08,0,.19-.13Z"/>
      <path class="cls-1" d="M81.78,116.5h-.19v.13c.19-.08.08,0,.19-.13Z"/>
      <path class="cls-1" d="M81.41,117h.19c.02-.06.04-.13.06-.19h-.13l-.13.13v.06Z"/>
      <path class="cls-1" d="M81.22,117.32h.19c.02-.06.04-.13.06-.19h-.13s-.08.08-.13.13v.06Z"/>
      <path class="cls-1" d="M81.28,117.5h-.19s-.04.08-.06.13c.08-.04.17-.08.25-.13Z"/>
      <path class="cls-1" d="M81.09,117.82h-.19s-.04.08-.06.13c.08-.04.17-.08.25-.13Z"/>
      <path class="cls-1" d="M80.65,118.32c.24-.09.13,0,.25-.19-.21.09-.13.04-.25.19Z"/>
      <path class="cls-1" d="M80.47,118.63c.24-.09.13,0,.25-.19-.21.09-.13.04-.25.19Z"/>
      <path class="cls-1" d="M80.53,118.82h-.19s-.04.08-.06.13c.08-.04.17-.08.25-.13Z"/>
      <path class="cls-1" d="M80.34,119.13h-.19v.13c.19-.08.08,0,.19-.13Z"/>
      <path class="cls-1" d="M79.78,119.95l.25.06c.02-.35.06-.36.19-.56-.08-.02-.17-.04-.25-.06-.04.34-.02.26-.19.5v.06Z"/>
      <path class="cls-1" d="M79.78,120.14h-.19v.13c.19-.08.08,0,.19-.13Z"/>
      <path class="cls-1" d="M79.4,120.64h.19c.02-.06.04-.13.06-.19h-.13s-.08.08-.13.13v.06Z"/>
      <path class="cls-1" d="M79.21,120.95h.19c.02-.06.04-.13.06-.19h-.13s-.08.08-.13.13v.06Z"/>
      <path class="cls-1" d="M79.02,121.27c.24-.09.13,0,.25-.19-.21.09-.13.04-.25.19Z"/>
      <path class="cls-1" d="M79.09,121.45h-.19s-.04.08-.06.13c.08-.04.17-.08.25-.13Z"/>
      <path class="cls-1" d="M78.65,121.96c.24-.09.13,0,.25-.19-.21.09-.13.04-.25.19Z"/>
      <path class="cls-1" d="M78.46,122.27c.24-.09.13,0,.25-.19-.21.09-.13.04-.25.19Z"/>
      <path class="cls-1" d="M78.27,122.58c.23-.07.18-.05.31-.19-.23.07-.18.05-.31.19Z"/>
      <path class="cls-1" d="M78.33,122.77h-.19v.13c.19-.08.08,0,.19-.13Z"/>
      <path class="cls-1" d="M77.89,123.27c.23-.07.18-.05.31-.19-.23.07-.18.05-.31.19Z"/>
      <path class="cls-1" d="M77.77,123.59h.19c.02-.06.04-.13.06-.19h-.13s-.08.08-.13.13v.06Z"/>
      <path class="cls-1" d="M77.58,123.9h.19c.02-.06.04-.13.06-.19h-.13l-.13.13v.06Z"/>
      <path class="cls-1" d="M77.64,124.09h-.19s-.04.08-.06.13c.08-.04.17-.08.25-.13Z"/>
      <path class="cls-1" d="M77.21,124.59h.19c.02-.06.04-.13.06-.19h-.13l-.13.13v.06Z"/>
      <path class="cls-1" d="M77.02,124.9c.24-.09.13,0,.25-.19-.21.09-.13.04-.25.19Z"/>
      <path class="cls-1" d="M76.83,125.22c.24-.09.13,0,.25-.19-.21.09-.13.04-.25.19Z"/>
      <path class="cls-1" d="M76.89,125.4h-.19v.13c.19-.08.08,0,.19-.13Z"/>
      <path class="cls-1" d="M76.45,125.91c.24-.09.13,0,.25-.19-.21.09-.13.04-.25.19Z"/>
      <path class="cls-1" d="M76.26,126.22c.23-.07.18-.05.31-.19-.23.07-.18.05-.31.19Z"/>
      <path class="cls-1" d="M76.14,126.53h.19l.06-.19h-.13l-.13.13v.06Z"/>
      <path class="cls-1" d="M76.2,126.72h-.19s-.04.08-.06.13c.08-.04.17-.08.25-.13Z"/>
      <path class="cls-1" d="M75.76,127.22h.19c.02-.06.04-.13.06-.19h-.13s-.08.08-.13.13v.06Z"/>
      <path class="cls-1" d="M75.57,127.54h.19c.02-.06.04-.13.06-.19h-.13s-.08.08-.13.13v.06Z"/>
      <path class="cls-1" d="M75.39,127.85c.24-.09.13,0,.25-.19-.21.09-.13.04-.25.19Z"/>
      <path class="cls-1" d="M75.45,128.04h-.31v.19c.1-.06.21-.13.31-.19Z"/>
      <path class="cls-1" d="M75.2,128.6c.02-.08.04-.17.06-.25h-.19c-.02.06-.04.13-.06.19.06.02.13.04.19.06Z"/>
      <path class="cls-1" d="M74.82,128.85c.24-.09.13,0,.25-.19-.21.09-.13.04-.25.19Z"/>
      <path class="cls-1" d="M74.7,129.17h.19c.02-.06.04-.13.06-.19h-.13l-.13.13v.06Z"/>
      <path class="cls-1" d="M74.7,129.35h-.19v.13c.19-.08.08,0,.19-.13Z"/>
      <path class="cls-1" d="M74.26,129.86c.23-.07.18-.05.31-.19-.23.07-.18.05-.31.19Z"/>
      <path class="cls-1" d="M74.13,130.17h.19l.06-.19h-.13l-.13.13v.06Z"/>
      <path class="cls-1" d="M73.94,130.48c.24-.09.13,0,.25-.19-.21.09-.13.04-.25.19Z"/>
      <path class="cls-1" d="M74.01,130.67h-.19s-.04.08-.06.13c.08-.04.17-.08.25-.13Z"/>
      <path class="cls-1" d="M73.57,131.17h.19c.02-.06.04-.13.06-.19h-.13s-.08.08-.13.13v.06Z"/>
      <path class="cls-1" d="M73.38,131.49c.24-.09.13,0,.25-.19-.21.09-.13.04-.25.19Z"/>
      <path class="cls-1" d="M73.44,131.67h-.19s-.04.08-.06.13c.08-.04.17-.08.25-.13Z"/>
      <path class="cls-1" d="M73.25,131.99h-.19v.13c.19-.08.08,0,.19-.13Z"/>
      <path class="cls-1" d="M72.82,132.49c.24-.09.13,0,.25-.19-.21.09-.13.04-.25.19Z"/>
      <path class="cls-1" d="M72.69,132.8h.19c.02-.06.04-.13.06-.19h-.13s-.08.08-.13.13v.06Z"/>
      <path class="cls-1" d="M72.69,132.99h-.19v.13c.19-.08.08,0,.19-.13Z"/>
      <path class="cls-1" d="M72.57,133.3h-.19s-.04.08-.06.13c.08-.04.17-.08.25-.13Z"/>
      <path class="cls-1" d="M72.13,133.81h.19c.02-.06.04-.13.06-.19h-.13s-.08.08-.13.13v.06Z"/>
      <path class="cls-1" d="M71.94,134.12c.24-.09.13,0,.25-.19-.21.09-.13.04-.25.19Z"/>
      <path class="cls-1" d="M72,134.31h-.19s-.04.08-.06.13c.08-.04.17-.08.25-.13Z"/>
      <path class="cls-1" d="M71.81,134.62h-.19s-.04.08-.06.13c.08-.04.17-.08.25-.13Z"/>
      <path class="cls-1" d="M71.37,135.12c.24-.09.13,0,.25-.19-.21.09-.13.04-.25.19Z"/>
      <path class="cls-1" d="M71.19,135.44c.23-.07.18-.05.31-.19-.23.07-.18.05-.31.19Z"/>
      <path class="cls-1" d="M71.25,135.62h-.19v.13c.19-.08.08,0,.19-.13Z"/>
      <path class="cls-1" d="M71.06,135.94h-.19v.13c.19-.08.08,0,.19-.13Z"/>
      <path class="cls-1" d="M70.68,136.44h.19c.02-.06.04-.13.06-.19h-.13s-.08.08-.13.13v.06Z"/>
      <path class="cls-1" d="M70.5,136.75h.19c.02-.06.04-.13.06-.19h-.13s-.08.08-.13.13v.06Z"/>
      <path class="cls-1" d="M70.56,136.94h-.19s-.04.08-.06.13c.08-.04.17-.08.25-.13Z"/>
      <path class="cls-1" d="M70.37,137.26c-.08-.02-.17-.04-.25-.06v.25c.08-.06.17-.13.25-.19Z"/>
      <path class="cls-1" d="M69.93,137.76c.08.02.17.04.25.06v-.31c-.06.02-.13.04-.19.06-.02.06-.04.13-.06.19Z"/>
      <path class="cls-1" d="M69.74,138.07c.24-.09.13,0,.25-.19-.21.09-.13.04-.25.19Z"/>
      <path class="cls-1" d="M69.81,138.26h-.19s-.04.08-.06.13c.08-.04.17-.08.25-.13Z"/>
      <path class="cls-1" d="M69.62,138.57h-.19v.13c.19-.08.08,0,.19-.13Z"/>
      <path class="cls-1" d="M69.18,139.07c.23-.07.18-.05.31-.19-.23.07-.18.05-.31.19Z"/>
      <path class="cls-1" d="M69.05,139.39h.19c.02-.06.04-.13.06-.19h-.13s-.08.08-.13.13v.06Z"/>
      <path class="cls-1" d="M69.05,139.58h-.19v.13c.19-.08.08,0,.19-.13Z"/>
      <path class="cls-1" d="M68.93,139.89h-.19s-.04.08-.06.13c.08-.04.17-.08.25-.13Z"/>
      <path class="cls-1" d="M68.49,140.39h.19c.02-.06.04-.13.06-.19h-.13s-.08.08-.13.13v.06Z"/>
      <path class="cls-1" d="M68.3,140.7c.24-.09.13,0,.25-.19-.21.09-.13.04-.25.19Z"/>
      <path class="cls-1" d="M68.36,140.89h-.19s-.04.08-.06.13c.08-.04.17-.08.25-.13Z"/>
      <path class="cls-1" d="M68.18,141.21h-.19v.13c.19-.08.08,0,.19-.13Z"/>
      <path class="cls-1" d="M67.74,141.71c.24-.09.13,0,.25-.19-.21.09-.13.04-.25.19Z"/>
      <path class="cls-1" d="M67.55,142.02c.23-.07.18-.05.31-.19-.23.07-.18.05-.31.19Z"/>
      <path class="cls-1" d="M67.61,142.21h-.19v.13c.19-.08.08,0,.19-.13Z"/>
      <path class="cls-1" d="M67.17,142.71c.23-.07.18-.05.31-.19-.23.07-.18.05-.31.19Z"/>
      <path class="cls-1" d="M67.05,143.02h.19c.02-.06.04-.13.06-.19h-.13l-.13.13v.06Z"/>
      <path class="cls-1" d="M66.86,143.34h.19c.02-.06.04-.13.06-.19h-.13s-.08.08-.13.13v.06Z"/>
      <path class="cls-1" d="M66.92,143.53h-.19s-.04.08-.06.13c.08-.04.17-.08.25-.13Z"/>
      <path class="cls-1" d="M66.48,144.03h.19c.02-.06.04-.13.06-.19h-.13l-.13.13v.06Z"/>
      <path class="cls-1" d="M66.29,144.34c.24-.09.13,0,.25-.19-.21.09-.13.04-.25.19Z"/>
      <path class="cls-1" d="M66.11,144.65c.24-.09.13,0,.25-.19-.21.09-.13.04-.25.19Z"/>
      <path class="cls-1" d="M66.17,144.84h-.19v.13c.19-.08.08,0,.19-.13Z"/>
      <path class="cls-1" d="M65.73,145.34c.24-.09.13,0,.25-.19-.21.09-.13.04-.25.19Z"/>
      <path class="cls-1" d="M65.54,145.66c.23-.07.18-.05.31-.19-.23.07-.18.05-.31.19Z"/>
      <path class="cls-1" d="M65.42,145.97h.19c.02-.06.04-.13.06-.19h-.13s-.08.08-.13.13v.06Z"/>
      <path class="cls-1" d="M65.48,146.16h-.19s-.04.08-.06.13c.08-.04.17-.08.25-.13Z"/>
      <path class="cls-1" d="M65.04,146.66h.19c.02-.06.04-.13.06-.19h-.13l-.13.13v.06Z"/>
      <path class="cls-1" d="M64.92,147.35c.03-.34.07-.35.19-.56-.08-.02-.17-.04-.25-.06-.03.34-.07.35-.19.56.08.02.17.04.25.06Z"/>
      <path class="cls-1" d="M64.73,147.48h-.19s-.04.08-.06.13c.08-.04.17-.08.25-.13Z"/>
      <path class="cls-1" d="M64.29,147.98c.24-.09.13,0,.25-.19-.21.09-.13.04-.25.19Z"/>
      <path class="cls-1" d="M64.1,148.29c.24-.09.13,0,.25-.19-.21.09-.13.04-.25.19Z"/>
      <path class="cls-1" d="M63.97,148.6h.19l.06-.19h-.13l-.13.13v.06Z"/>
      <path class="cls-1" d="M63.97,148.79h-.19v.13c.19-.08.08,0,.19-.13Z"/>
      <path class="cls-1" d="M63.54,149.29c.23-.07.18-.05.31-.19-.23.07-.18.05-.31.19Z"/>
      <path class="cls-1" d="M63.41,149.61h.19c.02-.06.04-.13.06-.19h-.13s-.08.08-.13.13v.06Z"/>
      <path class="cls-1" d="M63.22,149.92c.24-.09.13,0,.25-.19-.21.09-.13.04-.25.19Z"/>
      <path class="cls-1" d="M63.29,150.11h-.19s-.04.08-.06.13c.08-.04.17-.08.25-.13Z"/>
      <path class="cls-1" d="M62.85,150.61h.19c.02-.06.04-.13.06-.19h-.13s-.08.08-.13.13v.06Z"/>
      <path class="cls-1" d="M62.66,150.92c.24-.09.13,0,.25-.19-.21.09-.13.04-.25.19Z"/>
      <path class="cls-1" d="M62.47,151.24c.24-.09.13,0,.25-.19-.21.09-.13.04-.25.19Z"/>
      <path class="cls-1" d="M62.53,151.43h-.19v.13c.19-.08.08,0,.19-.13Z"/>
      <path class="cls-1" d="M62.09,151.93c.24-.09.13,0,.25-.19-.21.09-.13.04-.25.19Z"/>
      <path class="cls-1" d="M61.97,152.24h.19c.02-.06.04-.13.06-.19h-.13s-.08.08-.13.13v.06Z"/>
      <path class="cls-1" d="M61.78,152.55h.19c.02-.06.04-.13.06-.19h-.13s-.08.08-.13.13v.06Z"/>
      <path class="cls-1" d="M61.84,152.74h-.19s-.04.08-.06.13c.08-.04.17-.08.25-.13Z"/>
    </g>
  </g>
</svg>