<?xml version="1.0" encoding="UTF-8"?>
<svg id="Layer_2" data-name="Layer 2" xmlns="http://www.w3.org/2000/svg" viewBox="0 0 453.1 513.49">
  <defs>
    <style>
      .cls-1 {
        fill-rule: evenodd;
      }
    </style>
  </defs>
  <g id="Layer_1-2" data-name="Layer 1">
    <g>
      <path class="cls-1" d="M446.9,51.75c-2.3-5.61-5.61-10.82-8.75-15.59-1.51-2.24-2.97-4.21-4.6-6.22-.95-.95-1.85-1.96-2.8-2.97-.78-1.46-.67-2.64-1.96-3.53-.67-.17-1.35-.39-2.02-.56-1.91-1.74-3.81-3.42-5.72-5.16-3.2-2.13-6.34-4.26-9.48-6.39-8.75-5.33-19.23-8.41-31.06-10.6-1.4-.06-2.8-.17-4.21-.22-3.25-.5-7.4-.73-10.71-.17-2.36.11-4.71.22-7.06.39-3.53.67-7.12,1.4-10.65,2.07-8.97,2.64-17.16,6.45-24.11,11.1-3.87,2.58-8.41,5.21-11.27,8.8-7.96,0-15.98.06-24,.06-2.97,0-7.74-.56-9.64.67-1.91,1.29-2.52,4.6-1.96,8.02v3.93c.22,10.2.51,20.41.73,30.56-21.31.06-42.67.11-63.98.11-1.91.56-6.06,5.27-7.29,6.9-.62-.28-1.18-.56-1.79-.9h-60.56c-.28.39-.62.73-.9,1.07-1.91.11-3.81.22-5.72.28-10.93.45-21.92.9-32.86,1.35-10.93,1.68-21.87,3.31-32.75,4.99-8.86,2.75-17.72,5.44-26.58,8.19-2.69,1.57-5.44,3.14-8.13,4.71-4.21,2.3-8.41,4.65-12.62,6.95-2.8,2.97-5.66,5.94-8.47,8.92-1.96,1.91-3.92,3.87-5.83,5.83-1.18,2.58-2.3,5.16-3.48,7.74-1.51,3.2-3.03,6.45-4.6,9.7-.28,2.86-.62,5.78-.95,8.63-1.01,5.94-1.68,12.67-.56,18.5.79,4.93,1.63,9.87,2.41,14.8.9,2.64,1.85,5.21,2.75,7.85,1.68,4.6,3.31,9.2,4.99,13.74,3.92,7.63,7.91,15.19,11.83,22.76,10.04,16.37,21.25,31.79,32.8,46.71,6.62,7.85,13.23,15.76,19.85,23.61,5.44,5.89,10.88,11.77,16.32,17.66,4.49,5.55,10.15,10.04,14.64,15.59,1.74,1.68,3.42,3.36,5.16,5.05,1.74,1.79,3.48,3.59,5.27,5.38,2.64,3.25,6,6.62,9.25,9.25,3.53,3.42,7.06,6.78,10.6,10.2,3.42,3.36,6.9,6.73,10.32,10.15l28.26,26.07c8.92,7.91,17.83,15.81,26.75,23.66,7.01,6,13.96,12,20.97,18,12.95,10.26,25.23,21.31,38.07,31.74-2.19,4.71-3.42,9.92-3.42,15.42,0,20.35,16.54,36.95,36.89,36.95s36.95-16.6,36.95-36.95-16.6-36.89-36.95-36.89c-7.57,0-14.69,2.3-20.58,6.28-1.79-1.46-3.64-2.97-5.44-4.43-12.73-10.71-25.46-21.48-38.18-32.18-14.58-11.66-27.53-25.18-42.05-36.89-3.98-3.76-8.02-7.51-12.06-11.27-6.34-5.83-12.67-11.72-19.01-17.55-2.64-2.64-5.27-5.21-7.91-7.85-2.69-2.64-5.44-5.21-8.13-7.85-1.85-1.46-3.64-3.2-5.16-5.05-3.2-3.31-6.45-6.56-9.64-9.87-5.44-5.5-10.82-11.05-16.26-16.6-5.89-6.45-11.83-12.95-17.77-19.4-9.25-11.49-19.23-22.37-28.04-34.37-8.3-11.27-16.65-22.82-24-34.99-1.68-3.31-3.36-6.67-5.05-10.04-1.85-3.36-3.65-6.78-5.5-10.2-1.74-4.93-3.53-9.87-5.33-14.8-1.29-3.64-1.79-7.57-2.69-11.94-1.07-5.49-1.74-10.88-.73-16.82.17-1.79.28-3.59.45-5.33,1.85-3.98,3.64-7.96,5.44-11.94l4.15-4.15c2.19-2.3,4.43-4.65,6.67-6.95,2.97-1.63,6-3.25,8.97-4.88,2.47-1.4,4.93-2.8,7.34-4.21,7.68-2.35,15.36-4.71,23.05-7.06,9.98-1.51,19.91-2.97,29.89-4.49,6.17-.28,12.28-.5,18.45-.78,6-.22,12.06-.5,18.06-.73,1.68,1.51,11.33.73,14.69.73h34.15c4.32,0,11.21.9,14.13-.84,2.07,1.63,4.82,6.22,7.34,6.9,21.64,0,43.23.06,64.87.06.56,20.8,1.07,41.6,1.63,62.41,1.07,6.67-1.74,19.96,2.75,22.82,1.96,1.23,6.06.79,9.08.79h123.64c3.65,0,7.79.39,9.81-1.23,1.91-1.51,2.41-6,2.02-9.59.28-10.6.5-21.19.78-31.79,2.58-2.92,5.21-5.78,7.79-8.69,6.34-8.41,11.16-18.28,14.52-29.55,5.16-16.93,2.19-39.81-3.53-53.55ZM294.28,441.04c19.57,0,35.55,15.92,35.55,35.49s-15.98,35.55-35.55,35.55-35.49-15.92-35.49-35.55c0-5.21,1.12-10.09,3.14-14.52,2.19,1.85,4.37,3.64,6.62,5.38-1.01,2.86-1.57,5.94-1.57,9.14,0,15.08,12.22,27.36,27.31,27.36s27.36-12.28,27.36-27.36-12.28-27.31-27.36-27.31c-4.6,0-8.92,1.12-12.67,3.14-2.24-1.85-4.54-3.7-6.79-5.49,5.61-3.7,12.28-5.83,19.46-5.83ZM269.72,468.35c.17-.5.34-.95.51-1.46,2.19-5.38,6.06-9.87,11.05-12.73.45-.28,1.01-.56,1.51-.84,3.48-1.74,7.4-2.69,11.49-2.69,14.3,0,25.96,11.61,25.96,25.9s-11.66,25.96-25.96,25.96-25.91-11.61-25.91-25.96c0-2.86.45-5.61,1.35-8.19ZM280.15,453.21c-4.93,2.97-8.8,7.46-11.05,12.78-2.19-1.79-4.37-3.59-6.51-5.38,2.58-5.16,6.39-9.59,11.05-12.9,2.13,1.85,4.32,3.7,6.5,5.5ZM142.83,91.72c-5.78.28-11.61.56-17.38.79-5.94.22-11.89.45-17.89.67-5.83.9-11.72,1.79-17.55,2.69-4.49.62-8.92,1.23-13.4,1.91-4.26,1.35-8.52,2.69-12.78,3.98-3.53,1.07-7.06,2.13-10.6,3.2-2.97,1.68-5.94,3.36-8.86,5.05-2.69,1.4-5.33,2.86-7.96,4.32-1.12,1.18-2.3,2.41-3.42,3.59-2.52,2.58-5.05,5.1-7.57,7.68-1.91,4.26-3.87,8.52-5.83,12.78-.11,1.79-.22,3.59-.39,5.33-2.02,12.22,2.24,26.02,5.78,35.16,1.01,2.97,2.02,5.89,3.03,8.8,2.13,3.98,4.21,7.96,6.34,11.94,1.51,3.03,3.03,6.06,4.54,9.08,9.48,15.59,20.41,29.89,31.06,44.3,6.9,8.19,13.79,16.37,20.63,24.56,3.14,3.42,6.28,6.84,9.36,10.26,3.87,4.21,7.74,8.41,11.55,12.62,3.81,3.81,7.68,7.68,11.49,11.55,2.86,2.92,5.72,5.83,8.58,8.75,2.24,2.24,4.49,4.49,6.67,6.73,4.54,4.37,9.08,8.69,13.57,13.06,2.64,2.64,5.33,5.21,7.96,7.85,9.53,8.8,19.01,17.55,28.54,26.35,8.69,7.74,17.38,15.42,26.07,23.1,8.97,7.74,18,15.42,26.97,23.16,10.6,8.35,20.86,17.1,31.17,25.85-4.6,3.31-8.41,7.74-10.99,12.84-10.6-8.8-21.14-17.77-31.96-26.35-8.97-7.74-17.94-15.42-26.91-23.16-8.97-7.96-18-15.92-26.97-23.89-9.64-8.92-19.29-17.83-28.93-26.75-3.42-3.36-6.9-6.73-10.32-10.09-3.53-3.42-7.06-6.84-10.6-10.26-2.02-2.02-4.09-4.04-6.11-6.11-1.74-1.74-3.42-3.48-5.16-5.21-1.74-1.74-3.42-3.42-5.16-5.1-5.27-6.56-12.06-11.83-17.38-18.45-4.93-5.27-9.87-10.6-14.8-15.92-10.49-13.01-21.36-25.34-31.34-38.91-2.47-3.2-4.99-6.45-7.46-9.7-4.88-7.51-9.76-15.03-14.63-22.54-1.91-3.76-3.81-7.51-5.72-11.33-1.96-3.7-3.93-7.4-5.94-11.16-2.58-7.4-5.21-14.75-7.79-22.15-1.01-6.17-2.02-12.34-2.97-18.56.34-3.59.67-7.18,1.07-10.77.34-3.64.73-7.29,1.12-10.88,2.58-5.66,5.16-11.27,7.74-16.93,1.85-1.91,3.7-3.76,5.55-5.66,2.97-3.03,5.94-6.11,8.86-9.14,3.98-2.19,7.96-4.37,11.94-6.62,2.64-1.51,5.33-3.03,7.96-4.54,8.92-2.8,17.89-5.55,26.8-8.35,10.77-1.63,21.53-3.25,32.3-4.88,6.28-.22,12.56-.5,18.84-.73,6.45-.28,12.84-.56,19.29-.9v17.1ZM205.63,91.84c-4.82,1.57-13.85.79-20.02.79h-40.6v-19.01h42.45c4.82,0,14.91-.84,18.17.73v17.49ZM353.38,3.36c6.11-1.29,14.52-2.47,21.7-1.4,1.79.11,3.59.17,5.38.28,7.29,1.4,14.3,2.97,20.52,5.55,21.76,8.92,38.07,26.47,46.03,49.29,2.58,7.29,4.77,15.98,4.6,25.9-.34-.06-.73-.06-1.07-.11-.95-1.01-.28-4.37-.56-6-.84-5.1-1.12-9.42-2.3-14.07-2.75-10.77-8.07-20.52-13.96-28.37-7.91-10.54-20.24-20.13-33.25-25.51-4.71-1.91-9.2-2.92-14.58-4.21-6.34-1.46-15.19-2.58-22.48-1.4-1.63.06-3.31.17-4.93.28-7.12,1.46-13.85,2.86-19.91,5.33-6.62,2.75-12.84,6.62-18.34,10.6-2.47,2.19-4.93,4.37-7.46,6.5-4.26,3.48-6.45,8.97-11.27,11.94,1.91-3.42,4.65-5.94,7.01-8.86,10.09-12.67,26.07-21.64,44.86-25.74ZM331.79,26.12c7.06-1.63,16.32-.95,24.67-.95,11.94,0,23.72-.39,32.3,2.97,18.28,7.18,33.14,22.82,38.02,43.34,1.63,6.9.56,14.8.11,21.7-1.35.56-1.23,2.02-1.63,3.42-1.01,3.31-1.68,7.29-3.2,10.26-3.2,6.34-7.4,11.89-12.22,16.71-2.52,2.52-5.77,4.26-7.91,7.23-.73,1.07-7.18,3.92-8.8,4.6-3.64,1.57-7.74,3.03-12.05,4.04-2.41.28-4.88.62-7.35.95h-14.41c-9.25,0-19.62.79-27.53-.95-8.3-1.91-16.32-4.43-22.71-8.35-3.36-2.02-6.22-4.65-9.19-7.06-2.58-2.07-4.6-4.43-6.67-7.06-.62-.73-1.29-1.46-1.91-2.19-.06-.45-.11-.9-.22-1.35-2.07-4.15-5.49-7.91-6.95-12.67-.62-2.24-1.18-4.49-1.79-6.73-.28-2.19-.62-4.37-.9-6.56,0-5.78-.28-11.49.95-16.15,6.73-24.9,23.61-39.31,49.4-45.19ZM279.76,24.5c1.74-1.12,6.28-.5,8.86-.5h22.15c-2.58,2.92-5.16,5.83-7.74,8.75-2.02,3.08-4.04,6.22-6.11,9.31-1.91,2.52-4.43,4.77-6.39,7.29-3.42,4.49-6.73,10.43-8.19,16.6h-3.36c-.34-11.55-.62-23.1-.95-34.65,0-3.08-.11-5.61,1.74-6.78ZM207.15,91.95v-.67c1.35,1.01,5.89,4.71,5.89,6.67-1.96-2.02-3.93-3.98-5.89-6ZM213.93,94.02c-2.24-2.02-4.49-4.04-6.67-6.11v-9.7c2.13-1.23,4.32-2.47,6.45-3.64.11-.34.17-.67.22-.95v-.11c-.79-.5-1.63-.11-2.41.17.73-.5,1.4-1.01,2.13-1.51.45-.73.84-2.41.84-3.42v-.11c-.34-.17-.39-.28-.95-.28-1.46,1.18-2.64,2.64-4.21,3.7.67-.9,3.65-4.21,4.71-4.49h67.79c-.5,3.25-1.29,7.01-1.91,10.65-1.01,6.17.45,12.84,1.35,17.83h-67.06c-.11-.67-.17-1.35-.28-2.02ZM214.38,98.62c.11-.34.22-.62.28-.95h67.12c.06.34.17.62.28.95h-67.68ZM425.99,176.39c-.28,3.48.34,6.62-2.02,7.91-2.07,1.18-6.73.62-9.7.62h-23.16c-25.74-.06-51.53-.06-77.27-.11-7.06.06-14.13.06-21.19.11-2.92,0-7.12.5-9.08-.62-3.7-2.02-1.46-16.32-2.3-21.87-.51-20.75-1.01-41.49-1.51-62.29h2.64c1.51,5.89,4.6,11.49,7.85,15.87,1.63,1.91,3.25,3.81,4.88,5.72.62,1.35,1.29,2.69,1.91,4.04,1.96,2.97,3.98,5.94,5.94,8.86,8.3,11.21,20.97,20.75,34.6,26.58,1.85.62,3.76,1.23,5.61,1.79,7.12,2.8,21.42,5.72,31.23,4.15,1.91-.11,3.81-.22,5.72-.28,3.64-.73,7.29-1.4,10.93-2.13,10.82-2.8,19.85-8.07,28.09-13.57,2.3-1.57,5.1-5.05,7.34-6.11.06-.11.17-.17.28-.28-.28,10.54-.5,21.08-.78,31.62ZM443.04,120.04c-9.87,19.34-24.28,32.52-45.3,40.71-13.06,5.05-34.04,7.12-49.4,2.47-22.93-6.95-38.58-19.91-49.96-38.3,1.29,1.12,2.52,2.19,3.81,3.31,6.22,4.43,13.18,8.52,21.31,10.99,6.34,1.96,13.12,2.24,20.52,3.36,5.44-.06,10.82-.06,16.26-.11,7.23,0,14.69.34,20.75-.95,22.65-4.88,37.62-19.34,45.19-39.36,1.63-4.37,2.07-9.2,2.92-14.3v-7.57c-.45-3.36-.22-6.06-.84-9.08-.67-3.2-1.79-6.84-2.97-9.64-7.96-18.95-21.87-32.63-44.01-37.23-6.84-1.46-15.42-.95-23.49-.95-8.86,0-18.34-.56-25.9.95-9.31,1.79-15.7,5.1-23.05,8.58,2.41-3.31,5.44-6.17,8.64-8.69,1.35-1.23,2.75-2.47,4.09-3.76,9.36-6.78,19.46-11.33,32.75-14.41,5.49-1.23,13.46-2.3,19.96-1.35,2.07.17,4.09.28,6.17.39,6.9,1.46,13.4,2.8,19.34,5.27,22.71,9.25,38.97,28.09,46.37,52.71,1.85,6.34,2.19,13.51,2.75,21.03.62.39,1.68.45,2.69.39,0,14.3-3.76,25.96-8.58,35.55Z"/>
      <path class="cls-1" d="M203.41,89.07c.33.2.45.29,1.05.29h.1c1.14-1.96.31-9.68.29-12.51-.33-.2-.45-.29-1.05-.29h-.1c-.91,1.57-.41,7.77-.38,10.22.03.76.06,1.53.1,2.29Z"/>
      <path class="cls-1" d="M335.83,96.83c3.7,8.97,11.05,16.26,20.07,19.96,8.02,3.31,20.07,3.2,28.09-.11,2.97-1.23,6.06-3.03,8.47-4.93.17-.34.34-.67.5-.95.51-.9,1.29-.95,2.3-1.46,1.23-.67,5.89-7.06,6.67-8.58.11-.62.17-1.18.28-1.74,2.13-2.24,5.1-12.17,4.32-17.38-.39-2.41-.39-4.82-.9-7.01-1.29-5.49-3.92-10.54-6.95-14.41-1.18-1.35-2.35-2.75-3.53-4.09-.79-.34-1.01-.22-1.51-.67-.51-.39-.62-1.23-1.07-1.63-2.3-1.91-5.55-3.76-8.41-4.99-3.08-.78-6.17-1.63-9.25-2.47-5.89-1.35-13.23.34-17.38,1.91-11.49,4.43-19.51,12.45-23.16,24.67-.95,3.25-1.29,7.01-1.23,11.16.11,1.29.22,2.58.28,3.81.62,3.14,1.29,6.22,2.41,8.92ZM356.46,50.79c7.91-3.31,18.84-3.31,26.75,0,9.76,3.98,17.16,12.28,20.13,23.1.67,2.24.67,4.54,1.07,7.06.95,6-1.57,12.78-3.31,16.43-4.93,10.2-12.67,16.43-24.95,19.29-3.03.73-7.74,1.12-11.16.39-3.03-.62-5.89-1.23-8.41-2.3-8.86-3.64-15.64-10.65-19.12-19.68-.9-2.3-1.51-4.99-2.02-7.63-.11-1.35-.17-2.69-.28-4.04.06-16.26,9.76-27.87,21.31-32.63Z"/>
      <path class="cls-1" d="M345.19,87.52c3.03,7.91,7.85,13.74,15.59,16.93,15.64,6.5,30-3.42,34.76-14.24,1.29-2.97,3.08-7.63,2.3-12.34-.28-1.85-.62-3.76-.9-5.61-2.47-8.3-8.02-14.52-15.53-17.77-1.91-.78-4.09-1.23-6.22-1.74-5.78-1.23-12.17.5-15.87,2.41-9.08,4.6-14.41,11.66-15.36,24.45.06,1.01.11,1.96.17,2.97.34,1.63.73,3.31,1.07,4.93ZM380.63,55.95c7.29,3.03,12.62,9.08,14.91,17.16.22,1.85.5,3.7.73,5.55.67,3.81-1.29,9.14-2.47,11.44-4.37,8.63-15.14,17.89-29.32,13.91-7.96-2.24-14.02-7.63-16.99-14.86-.79-1.91-1.29-4.09-1.74-6.28-.06-.78-.11-1.57-.17-2.41-.11-17.66,16.77-32.07,35.04-24.5Z"/>
      <path class="cls-1" d="M350.46,87.52c2.3,5.61,6.95,10.04,12.56,12.28,13.68,5.38,25.62-3.87,29.04-13.57.9-2.58,1.79-6.5,1.18-10.15-1.57-8.69-6.34-14.86-13.57-17.89-16.32-6.73-31.12,6.17-30.84,21.98.06.73.11,1.4.17,2.13.45,1.74.95,3.48,1.46,5.21ZM351.98,70.81c3.53-8.52,15.03-16.04,27.14-11.05,6.84,2.8,11.21,8.64,12.62,16.99.56,3.36-.45,6.78-1.29,9.2-2.8,8.02-12.78,16.6-24.84,12.95-6.28-1.91-11.21-6.11-13.63-11.94-.79-1.85-.73-4.04-1.51-6.11-.06-4.09.34-7.18,1.51-10.04Z"/>
      <path class="cls-1" d="M367.84,87.24c6.9,2.8,14.3-3.48,12.95-10.6-2.07-11.27-19.34-10.6-19.06,2.58.22.95.45,1.85.67,2.8.95,2.3,3.08,4.32,5.44,5.21ZM379.28,77.31c.9,5.21-4.71,10.2-9.92,8.69-3.76-1.07-4.49-3.25-6-6.56-.22-11.55,14.19-12.05,15.92-2.13Z"/>
      <path class="cls-1" d="M369.36,83.26c4.49,1.63,8.75-2.75,7.35-7.29-1.79-5.94-10.93-4.99-10.71,3.25.9,1.79,1.46,3.31,3.36,4.04ZM375.3,77.03c.73,3.59-3.7,5.38-6.17,3.64-.73-.56-.95-1.46-1.4-2.41-.22-5.44,6.56-5.78,7.57-1.23Z"/>
      <path class="cls-1" d="M371.93,78.38l.19-.1c.22-.35.3-.58.29-1.24v-.1c-.39-.27-.5-.39-1.24-.38h-.1c-.29.41-.41.63-.38,1.43.13.13.26.25.38.38h.86Z"/>
      <path class="cls-1" d="M294.28,494.65c9.98,0,18.11-8.13,18.11-18.11s-8.13-18.05-18.11-18.05c-2.41,0-4.71.5-6.84,1.35-.45.17-.9.34-1.29.56-4.15,2.13-7.4,5.83-8.92,10.26-.17.45-.28.84-.39,1.23-.39,1.51-.62,3.03-.62,4.65,0,9.98,8.13,18.11,18.06,18.11ZM303.92,471.99c1.51,0,2.75,1.23,2.75,2.75s-1.23,2.69-2.75,2.69-2.69-1.18-2.69-2.69,1.23-2.75,2.69-2.75ZM303.92,480.74c0,1.51-1.23,2.75-2.75,2.75s-2.75-1.23-2.75-2.75,1.23-2.69,2.75-2.69,2.75,1.18,2.75,2.69ZM297.53,471.99c1.51,0,2.75,1.23,2.75,2.75s-1.23,2.69-2.75,2.69-2.75-1.18-2.75-2.69,1.23-2.75,2.75-2.75ZM294.45,478.05c1.51,0,2.75,1.18,2.75,2.69s-1.23,2.75-2.75,2.75-2.75-1.23-2.75-2.75,1.23-2.69,2.75-2.69ZM291.03,471.99c1.51,0,2.75,1.23,2.75,2.75s-1.23,2.69-2.75,2.69-2.69-1.18-2.69-2.69,1.18-2.75,2.69-2.75ZM287.78,478.05c1.51,0,2.69,1.18,2.69,2.69s-1.18,2.75-2.69,2.75-2.75-1.23-2.75-2.75,1.23-2.69,2.75-2.69ZM284.47,471.99c1.51,0,2.69,1.23,2.69,2.75s-1.18,2.69-2.69,2.69-2.75-1.18-2.75-2.69,1.23-2.75,2.75-2.75Z"/>
    </g>
  </g>
</svg>