<?xml version="1.0" encoding="UTF-8"?>
<svg id="Layer_2" data-name="Layer 2" xmlns="http://www.w3.org/2000/svg" viewBox="0 0 608.76 526.64">
  <defs>
    <style>
      .cls-1 {
        fill-rule: evenodd;
      }
    </style>
  </defs>
  <g id="Layer_1-2" data-name="Layer 1">
    <path class="cls-1" d="M593.76,493.99c-8.77,2.46-17.55,4.82-26.23,7.28-26.58,7.72-39.56,9.3-67.9,15-4.91.61-9.82,1.23-14.65,1.84-11.76,1.67-23.51,3.25-35.27,4.91-1.84.09-3.6.18-5.44.26-6.93.18-13.95.44-20.88.61-3.51.09-6.93.26-10.44.35-6.05.88-13.25.7-19.12-.35-3.16-.35-6.4-.7-9.56-.96-8.68-.88-17.37-1.67-26.05-2.54-10.53-2.11-20.27-4.91-30.09-8.07-5.09-1.4-10.18-2.89-15.35-4.3-4.47-2.54-8.95-5.09-13.33-7.54-6.58-3.6-13.16-7.28-19.74-10.88-4.56-4.47-9.12-9.04-13.77-13.6-2.81-2.81-5.7-5.61-8.51-8.42-3.42-2.9-7.19-6.58-9.56-10.35-3.42-6.14-6.93-12.37-10.35-18.51-3.16-5.53-6.32-11.05-9.56-16.58-1.67-6.23-3.33-12.37-5-18.6-2.46-8.77-4.91-17.63-7.37-26.41-.88-12.9-1.76-25.79-2.72-38.6,2.81.35,5.79,1.49,8.77,2.11,9.39,1.84,20-.18,26.41-3.16.79,10.79,1.49,21.49,2.19,32.28,2.11,7.54,4.12,15.09,6.23,22.63,1.49,5.79,3.07,11.58,4.56,17.37,3.16,5.53,6.23,11.05,9.39,16.49,2.81,5.18,5.61,10.35,8.51,15.44.26.44.7.09,1.32.35,1.67,1.67,3.42,3.42,5.18,5.09,4.39,4.47,8.77,8.86,13.16,13.25,10,5.7,20,11.32,30,16.93,11.84,3.51,23.69,6.93,35.53,10.44,1.4.26,2.19-.53,3.77-.26,6.23.7,12.55,1.32,18.77,2.02,7.02,1.32,16.49,1.93,23.95.96,3.24-.09,6.49-.18,9.74-.26,7.72-.26,15.53-.44,23.34-.61,16.75-2.19,33.6-4.3,50.44-6.49l-.7-1.67c-16.32,2.11-32.55,4.21-48.78,6.32-7.63.18-15.18.35-22.81.53-3.25.09-6.49.18-9.74.35-1.93,0-3.95.09-5.88.09-4.3.61-9.39.35-13.42-.44-2.98-.26-5.88-.61-8.86-.88-7.28-.79-14.65-1.58-21.93-2.28-10.88-3.16-21.76-6.32-32.63-9.47-9.83-5.61-19.74-11.14-29.56-16.76l-12.11-12.11c-2.9-2.81-5.7-5.61-8.6-8.42-3.07-5.61-6.14-11.23-9.21-16.84-2.37-4.12-4.65-8.25-7.02-12.46-1.93-7.19-3.86-14.39-5.79-21.58-1.58-6.05-3.25-12.02-4.91-18.07-.7-10.97-1.4-21.84-2.19-32.81,1.84-1.75,4.47-2.81,5.61-5.35,2.37-5.09.88-13.16,2.11-19.48,1.23-16.76,2.54-33.51,3.77-50.27.96-12.72,1.93-25.44,2.81-38.16.26-2.81.44-5.7.7-8.6.88-4.65.79-10.09.79-15.09s.09-9.74.18-14.56c.18-15,.44-30,.61-45,.35-23.95.61-47.9.96-71.85-.35-2.28-1.84-4.04-2.9-5.7-3.07-4.74-6.14-9.47-9.21-14.12v-15.44c-1.23-1.75-3.16-3.16-4.82-4.47-2.98-2.54-5.79-5.35-8.95-7.81-4.21-3.33-8.42-6.76-12.55-10.09-2.81-1.4-5.53-2.81-8.33-4.12l-6.32-3.42c-1.58-.26-3.07-.61-4.56-.88-3.07-.88-6.58-2.28-10.18-2.19-2.37.18-4.65.35-6.93.53-4.83,1.14-9.65,2.37-14.47,3.6-21.93,7.81-43.86,15.62-65.71,23.51-10,3.68-20.35,6.93-29.92,10.97-2.54,1.05-5,2.11-7.54,3.16-1.23,1.14-2.37,2.28-3.6,3.42-10.44,8.07-19.21,25.79-19.39,44.74-2.37.79-4.74,1.67-7.02,2.54-1.84,2.9-.18,13.07-.61,16.23-.26,1.4-.09,3.86.53,4.56,2.72,1.49,5.44,3.07,8.16,4.56,0,1.14,0,2.28-.09,3.51-11.58,4.21-23.16,8.51-34.74,12.72-3.42,1.32-6.84,2.54-10.35,3.77-1.49.61-3.42.88-4.47,2.02-2.02,2.28-4.39,10.44-3.24,14.74,1.32,4.74,4.56,6.76,8.07,9.39,1.4.96,3.25,2.72,6.14,2.19,14.04-5.18,27.98-10.35,42.02-15.44.61,2.37,1.32,4.82,1.93,7.19,2.37,6.23,4.74,12.46,7.11,18.77,1.93,3.68,3.77,7.37,5.7,11.05-.18.88-.35,1.75-.53,2.54-.61,2.98.35,5.53,1.14,7.37,1.49,3.33,5.44,5.88,8.42,7.81.7.35,1.4.7,2.11,1.05,1.49,2.19,2.98,4.47,4.47,6.76,1.49,1.75,3.07,3.51,4.65,5.26,4.39,5.61,9.39,10.35,14.91,14.91,2.28,1.75,5.09,5.18,7.72,6.4,1.23.44,2.81-.7,3.77-1.05,3.07-1.23,6.14-2.37,9.21-3.6-.09,3.86-.53,9.3.53,12.37,4.56,1.4,9.04,2.72,13.6,4.04,1.67,0,3.42,0,5.09.09,2.9-.09,5.79-.09,8.6-.09,3.07-1.05,6.05-2.19,9.04-3.33,10.88-4.12,21.76-8.33,32.63-12.46,1.32,23.6,2.63,47.2,3.86,70.79.44,7.37.79,14.83,1.23,22.28,1.32,4.47,5.26,6.76,9.21,8.68.88,13.33,1.84,26.58,2.81,39.91,1.84,6.76,3.77,13.51,5.61,20.26,2.28,8.33,4.47,16.58,6.76,24.83,3.77,6.67,7.63,13.33,11.4,20,2.98,5.35,5.96,10.61,8.86,15.97,2.37,3.51,5.79,7.02,9.03,9.74,2.28,2.19,4.47,4.47,6.76,6.67,5.35,5.35,10.7,10.61,16.14,15.97,11.23,6.32,22.55,12.63,33.86,18.86,5.53,1.58,11.05,3.07,16.49,4.65,9.48,2.98,18.86,5.61,29.13,7.81,7.81.7,15.62,1.49,23.42,2.28,3.16.26,6.4.61,9.56.88,6.93,1.32,15.53,1.67,22.72.7,4.04-.18,8.07-.26,12.11-.44,7.89-.26,15.88-.53,23.77-.79,17.02-2.28,33.95-4.56,50.97-6.93,11.05-2.37,22.11-4.74,33.16-7.19,6.84-1.4,13.77-2.89,20.61-4.3,16.41-4.56,17.02-4.3,33.51-8.86,4.56-1.4,9.04-2.72,13.6-4.12,2.54-.79,5-1.58,7.46-2.37,0-.61,0-1.23.09-1.93-5,1.67-10,3.25-15,4.82ZM51.97,92.03c-.09,1.14-.09,2.28-.09,3.51-1.14-.7-2.37-1.32-3.51-2.02-.09,0-.09-.09-.18-.09,1.23-.44,2.46-.96,3.77-1.4ZM46.53,94.92c1.75.88,3.51,1.84,5.18,2.72v.88c-1.76-.96-3.51-1.93-5.26-2.9.09-.26.09-.53.09-.7ZM46.62,111.5c-.09-4.47-.18-9.04-.18-13.51,1.75.88,3.42,1.84,5.18,2.81.53,4.39.96,8.77,1.4,13.25-2.19-.88-4.3-1.67-6.4-2.54ZM250.93,32.81c.88.44,1.76.79,2.54,1.14,0,4.39-.09,8.68-.18,13.07-.18,14.21-.35,28.42-.53,42.63-.26-.96-.44-2.02-.7-3.07-.79-3.25-1.23-6.84-1.93-10.44-2.28-11.14-4.39-25.97-.88-37.72.53-1.93.88-4.04,1.67-5.61ZM86.62,38.95c2.46-.7,5.88-.53,8.68-.88,1.14-.09,2.28-.18,3.42-.26,4.65.18,8.07,2.37,12.46,2.72,0,.09.09.18.09.26-.18.09-.35.18-.53.35-3.77-.96-7.54-1.84-11.32-2.81-4.21.26-8.51.44-12.81.7v-.09ZM7.4,159.75c-3.95.61-6.32-7.19-4.65-10.79.18-.18.44-.26.61-.44,3.33.18,7.54,8.95,4.04,11.23ZM13.37,164.23c-2.28-.26-3.16-1.75-4.83-2.54-.09-.09-.09-.18-.09-.18,2.02-1.05,2.54-4.39,1.93-7.19-.79-3.6-2.89-7.72-7.46-7.72.53-3.25,1.32-5,3.86-6.14,6.23.09,9.83,8.86,10.79,14.3.7,3.77-.35,9.91-4.21,9.47ZM18.72,162.56c2.81-8.25-2.46-21.84-8.6-23.33v-.09c23.51-8.6,47.02-17.11,70.53-25.7,6.05.09,9.56,7.98,10.7,12.98.7,3.42.26,7.98-1.75,9.74-1.4,1.23-4.12,1.67-5.96,2.37-4.91,1.75-9.74,3.6-14.65,5.35-16.76,6.23-33.51,12.46-50.27,18.69ZM73.28,189.4c.26-.18.53-.26.79-.44,3.6.09,7.72,9.04,3.86,11.4-4.04-.35-6.32-6.84-4.65-10.97ZM79.34,202.3c0-.09-.09-.18-.18-.26,5.35-2.72.35-16.58-5.7-15,.7-3.25,1.14-4.91,3.77-6.23,6.67,0,10.18,8.68,11.32,14.3.79,4.12-.44,10.53-4.91,9.56-1.84-.35-2.81-1.67-4.3-2.37ZM81,179.49c-.09,0-.09-.09-.09-.18,23.51-8.77,47.11-17.55,70.62-26.32,6.32,0,9.91,7.81,11.05,13.07.79,3.51.26,8.51-2.02,10-23.6,9.04-47.29,17.98-70.88,26.93,2.9-8.33-2.54-21.93-8.68-23.51ZM113.64,236.86h-.09c-1.32-1.05-.79-6.23-.7-8.42.26.09.44.26.61.35.44.53.26,6.84.18,8.07ZM115.66,237.56c0-2.54,0-5.09-.09-7.54,2.72,1.4,5.35,2.9,7.98,4.39-2.63,1.05-5.26,2.11-7.9,3.16ZM113.29,226.34c-.09-4.91-.17-9.83-.26-14.74,3.77,2.11,7.46,4.12,11.14,6.23l.26,14.74c-3.68-2.11-7.37-4.12-11.14-6.23ZM163.64,244.32c-3.68,1.32-7.37,2.72-11.05,4.04h-7.54c-1.67.09-3.33.09-5,.09-3.6-.96-7.19-2.02-10.79-3.07-.09-4.74-.18-9.39-.18-14.04-.61-.44-1.23-.79-1.84-1.14,0-4.56,0-9.12-.09-13.69-3.07-2.46-7.02-4.12-10.44-6.14-1.4-.79-2.54-2.11-4.65-2.11-.26.35-.61.61-.88.88-.53,2.81-.26,7.98.09,10.79-.09,1.23-.26,2.54-.35,3.77,0,3.68,0,7.28-.09,10.97-6.67-5.18-12.81-11.05-17.98-17.72-2.63-3.42-5.79-6.23-7.9-10.18,1.49-.44,2.98-.96,4.39-1.4,4.3-1.58,8.6-3.25,12.9-4.82,12.9-4.91,25.71-9.83,38.51-14.74,4.82-1.84,9.74-3.6,14.56-5.44,2.19-.88,4.83-1.4,6.67-2.72,3.95-2.98,3.16-11.76,1.4-16.32-1.58-3.68-6.05-11.32-12.02-10.35-2.11.35-3.77,1.32-5.61,1.93-4.12,1.58-8.33,3.16-12.46,4.74-12.81,4.74-25.7,9.56-38.51,14.39-5.09,1.84-10.09,3.77-15.18,5.61-3.6,1.4-7.11,2.28-7.63,6.93q-.09,0-.18.09c-1.4-2.72-2.72-5.35-4.12-8.07-1.32-3.68-2.72-7.37-4.04-10.97-1.93-4.91-3.86-9.47-4.21-15.97,7.46-2.72,14.91-5.53,22.46-8.33,5.35-2.02,10.26-2.54,11.58-8.86,1.58-7.11-2.98-15.35-6.4-18.25-1.49-1.23-3.42-3.33-6.49-2.81-3.42.61-6.58,2.28-9.65,3.42-5,1.84-10.09,3.68-15.09,5.53-1.23-6.4,0-13.77-.96-20.7,0-1.84.09-3.6.09-5.44-.09-4.65-.18-9.3-.26-13.95.61-1.67,1.14-3.33,1.75-5.09.97-3.16,1.93-6.32,2.9-9.47,2.37-3.86,4.74-7.72,7.11-11.67,1.75-1.49,3.51-3.07,5.17-4.56,1.4-1.32,2.72-2.54,4.12-3.86,3.6-1.49,7.19-3.07,10.79-4.56,3.68-.26,7.46-.53,11.14-.79,4.47.18,8.07,2.11,12.11,2.72,0,4.12,0,8.33.09,12.46.26,2.11.35,4.21.26,6.84v10.88c.44,1.05,9.74,5.7,11.4,6.58.88.44,2.54,1.84,3.68,1.4.18,0,.26-.09.44-.09,1.49-2.02.79-10.97.79-14.65.44.09.88.18,1.49.18.88-1.32.53-10.53.53-13.33,10.97,7.46,20.26,18.42,27.63,29.39,2.37,3.33,4.65,6.67,7.02,10.09,1.67,3.33,3.33,6.67,5,9.91,7.81,14.04,14.3,32.37,17.98,50.18-.09,7.81-.18,15.7-.26,23.6,1.05,7.72,2.02,16.67.53,25.09-.18,2.98-.44,5.97-.61,8.95-1.67,4.91-3.42,9.83-5.09,14.74-2.46,3.77-5,7.54-7.46,11.23-1.93,1.58-3.95,3.16-5.88,4.74l-3.69,3.16ZM213.12,170.54c-3.6,1.32-7.28,2.72-10.88,4.12-2.28.88-4.65,1.49-6.4,2.9-2.46-.96-4.83-1.93-7.28-2.9,2.19-2.81,11.32-5.18,15.26-6.75,13.69-5.18,27.37-10.44,41.05-15.62h.26c.61,1.75,1.23,3.6,1.84,5.35-11.32,4.3-22.54,8.6-33.86,12.9ZM247.07,159.75c.61,1.05.18,3.68.09,5.18,0,4.12-.09,8.16-.09,12.19-15.88,6.05-31.67,12.11-47.46,18.16.09-5.88.09-11.67.09-17.55,15.79-5.97,31.58-12.02,47.37-17.98ZM197.59,178.88v15.97c-.18-.09-.44-.26-.61-.35-.53-.7-.18-3.16-.18-4.3,0-3.68.09-7.37.09-10.97.18-.09.35-.26.53-.35h.18ZM194.87,179.31c-.09,4.65-.09,9.21-.09,13.86-1.93-1.05-3.77-2.19-5.61-3.25-.44-4.39-.88-8.86-1.32-13.33,2.37.96,4.65,1.84,7.02,2.72ZM187.77,172.56c.09-2.11.09-4.3.18-6.4.26,1.75.53,3.6.79,5.44-.35.35-.61.61-.97.96ZM187.68,150.63c-1.67-6.23-3.25-12.46-4.91-18.69-1.05-2.81-2.19-5.7-3.33-8.6-2.98-7.9-5.88-15.26-9.74-22.19-1.58-3.07-3.16-6.14-4.65-9.21-4.04-5.97-8.16-11.93-12.2-17.81l-6.32-6.84c-2.11-2.46-4.3-4.91-6.49-7.37-3.77-3.07-7.54-6.14-11.32-9.21-.26-.26-.26-.61-.18-1.05,7.19,5.44,14.3,11.4,19.83,18.51,1.84,2.02,3.77,4.12,5.62,6.14,1.93,2.9,3.86,5.88,5.79,8.77,1.93,2.81,3.86,5.53,5.79,8.33,1.58,3.07,3.07,6.05,4.56,9.12,1.93,3.51,3.77,7.11,5.61,10.61,1.4,3.86,2.81,7.63,4.21,11.49,1.23,3.25,2.46,6.4,3.68,9.65.88,3.51,1.76,7.02,2.63,10.53,1.32,4.74,2.81,8.51,2.54,14.74-.35-2.28-.79-4.56-1.14-6.93ZM126.27,50.27c.53.61.09,8.33.09,9.83-.44.18-.79.35-1.14.44-3.6-1.93-7.19-3.86-10.79-5.79h-.26v-.09c4.04-1.49,8.07-2.9,12.11-4.39ZM114.69,52.29v-11.4c25.44-9.12,50.88-18.25,76.32-27.37.35.44.35,9.3,0,10.26-21.23,7.63-42.46,15.18-63.69,22.81-.61.26-.35,1.14-.88,1.49-3.86,1.4-7.81,2.81-11.75,4.21ZM123.64,62.82c-.09,5.18-.17,10.26-.26,15.44-3.77-2.02-7.55-4.04-11.32-6.14.09-5.09.18-10.18.18-15.35,3.77,2.02,7.63,4.04,11.4,6.05ZM112.59,53.08c-.18.09-.44.18-.7.18v-10.61c.26-.09.44-.26.7-.44v10.88ZM164.96,245.9c3.24-2.72,6.58-5.44,9.82-8.16,2.63-3.95,5.26-7.98,7.81-11.93,1.05-2.98,2.02-5.97,3.07-9.04,1.14-3.42,2.37-6.32,2.37-11.14,1.84,3.86-1.14,9.83-2.11,12.72-.88,2.46-1.67,5-2.54,7.46-.96,1.49-1.93,2.9-2.89,4.3-1.58,2.46-3.16,4.91-4.74,7.37-1.58,1.23-3.25,2.54-4.83,3.86-1.84,1.4-3.51,3.86-5.96,4.56ZM172.06,243.18c1.76-1.49,3.51-2.98,5.26-4.47,2.63-3.95,5.26-7.98,7.9-11.93,1.76-5.09,3.51-10.09,5.26-15.09-.35-6.32-.79-12.54-1.14-18.77,2.89,1.58,5.79,3.16,8.6,4.82,1.4.44,2.89-.79,3.77-1.14,3.16-1.23,6.4-2.46,9.65-3.68,12.46-4.74,24.91-9.47,37.37-14.21.79-1.49.35-4.56.35-6.67.17-6.49.53-13.07-1.14-17.72-.44-1.23-.61-4.82-2.81-4.3-18.16,6.84-36.23,13.69-54.3,20.53,0-6.05.09-12.11.09-18.25-.97-3.68-2.02-7.46-2.98-11.23-.88-3.51-1.75-6.93-2.63-10.44-5.26-14.21-10.7-27.98-17.98-40.27-3.95-5.88-7.9-11.67-11.84-17.55-1.49-1.49-2.89-3.07-4.3-4.65-4.3-5.53-9.3-10.35-14.83-14.74-2.19-1.75-4.3-3.42-6.4-5.18,0-.09-.09-.18-.18-.26,25.7-9.21,51.32-18.51,77.02-27.72,1.49-2.02-2.28-2.9-3.69-3.6-3.42-1.84-6.84-3.68-10.26-5.44-1.32-.44-2.98.53-3.86.88-25.09,8.95-50.18,17.98-75.27,27.02-2.19-.61-4.47-1.14-6.76-1.67-2.11-.53-4.21-1.05-6.32-1.58-2.11.09-4.12.18-6.14.26v-.09c16.32-5.79,32.72-11.67,49.04-17.46,11.93-4.3,23.86-8.51,35.79-12.81,4.74-1.14,9.39-2.28,14.12-3.42,2.02-.09,4.12-.26,6.14-.44,2.98.09,5.7,1.14,8.25,1.84,2.02.44,4.12.88,6.14,1.32,1.93,1.05,3.77,2.02,5.7,3.07,8.42,3.95,14.74,9.12,21.49,14.65,2.72,2.9,5.44,5.88,8.07,8.77-1.23,4.21-2.72,8.95-3.77,13.6,0,2.37.09,4.83.09,7.19,0,3.25,0,6.58.09,9.83.61,3.6,1.23,7.11,1.84,10.7.53,3.51,1.14,7.11,1.67,10.61,3.16,13.69,6.32,28.6,9.04,42.81-.09,9.12-.18,18.25-.26,27.46-.17,10.26-.35,20.53-.44,30.79-.79,2.28-1.58,4.56-2.37,6.84-.53,2.46-1.14,4.91-1.76,7.37-.53,1.14-1.05,2.19-1.67,3.33-1.49,3.25-3.07,6.4-4.91,9.3-.79,1.23-1.58,2.46-2.37,3.68-24.12,9.39-48.25,18.69-72.37,28.07ZM193.12,22.99c.09-3.07.09-6.14.09-9.21,3.51,1.75,7.02,3.6,10.44,5.35-3.42,1.23-6.93,2.54-10.44,3.86h-.09ZM251.28,207.74v1.49c-.26.18-.61.35-.96.53.35-.7.61-1.32.96-2.02ZM204.52,330.47c-1.4-2.19-.79-5.61-1.23-8.86-.35-5.97-.7-12.02-.96-17.98-1.23-22.81-2.46-45.62-3.68-68.43.79-.79,2.28-.96,3.33-1.4,3.16-1.23,6.4-2.46,9.56-3.68,9.65-3.68,19.21-7.46,28.86-11.14,1.67-.7,3.42-1.32,5.09-2.02.79-.96,1.49-1.93,2.28-2.9,1.67-1.14,3.33-2.28,4.91-3.42,1.32-1.67,0-4.91.7-7.37.61-1.14,1.23-2.28,1.84-3.33.53-2.28.96-4.47,1.49-6.75.88-2.63,1.75-5.18,2.63-7.81.18-9.12.35-18.25.61-27.37.09-10.61.17-21.32.26-31.93-.79-3.25-1.58-6.49-2.28-9.74-.61-3.77-1.14-7.46-1.67-11.23-.53-2.19-1.05-4.47-1.58-6.67.18-15.53.44-31.05.61-46.49,2.19,3.25,4.3,6.58,6.49,9.83,1.23,1.84,3.25,4.12,3.68,6.49-.18,15.88-.35,31.84-.53,47.72-.26,19.48-.53,39.04-.79,58.51-.09,4.91-.18,9.74-.26,14.65,0,4.12-.09,8.25-.09,12.37-.18,4.91-.09,9.74-.88,14.21-.26,2.9-.44,5.79-.7,8.69-1.14,15.61-2.28,31.32-3.42,46.93-1.14,14.47-2.19,28.95-3.25,43.34-1.23,6.67.35,14.39-3.51,18.07-9.3,8.86-40.44,8.95-47.55-2.28Z"/>
  </g>
</svg>