<?xml version="1.0" encoding="UTF-8"?>
<svg id="Layer_2" data-name="Layer 2" xmlns="http://www.w3.org/2000/svg" viewBox="0 0 216.9 96.49">
  <g id="Layer_1-2" data-name="Layer 1">
    <g>
      <path d="M199.9,47.99s.02,0,.03.01l.11.05s.03.02.05.03l.09.09s.02.03.03.05l.06.11s.02.04.02.06l.02.11s0,.02,0,.04l-.03,1.23h0c0,.05-.03.11-.07.14l-.4.32-.24-.29.11-.09h-.03s.1-.37.1-.37l.15.04.02-.97v-.06s-.04-.06-.04-.06l-.05-.05-.06-.03-11.19-3.14.17.21-.17.13-.23-.3.11-.09L74.77,13.31v.17s-.38,0-.38,0v-.05s-.12.09-.12.09l-.22-.31.42-.3s.11-.04.16-.03h0s125.27,35.11,125.27,35.11Z"/>
      <path d="M76.71,11.4h0c-.05-.01-.11,0-.16.03l-.42.3.11.15-.05.18,42.38,11.86.07-.18-.05.18,66.13,18.5s0,0,0,0l16.64,4.66.06.03.05.05.03.06v.06s-.02,1.21-.02,1.21h.19s.12.15.12.15l.39-.32s.07-.09.07-.14h0s.03-1.23.03-1.23c0-.01,0-.02,0-.04l-.02-.11s-.01-.04-.02-.06l-.06-.11s-.02-.03-.03-.04l-.09-.09s-.03-.02-.05-.03l-.11-.05s-.02-.01-.04-.01l-21.22-5.94s0,0-.01,0l-13.11-3.67s0,0,0,0l-31.29-8.75s-.01,0-.01,0l-.32-.09s-.01,0-.01,0l-20.01-5.6s-.01,0-.01,0l-7.08-1.98s-.02,0-.02,0l-32.06-8.97ZM144.49,30.75l-.03.02-8.91-2.49-.03-.04.26.07.06-.18-.05.18,8.69,2.43ZM154.45,33.57l-.61-.17-.03-.04.66.19-.03.02ZM154.64,33.59l8.1,2.27-.03.02-8.04-2.25-.03-.04ZM153.56,33.32l-8.9-2.49-.03-.04,8.96,2.5-.03.02ZM172.82,38.68l-.03.02-9.97-2.79-.03-.04,4.63,1.29s0,0,0,0l5.4,1.51ZM181.16,41.01l-.03.02-8.03-2.25-.03-.04,7.47,2.09s0,0,.01,0l.6.17ZM191.34,43.86l-.03.03-.75-.21-.04-.04.82.23ZM191.39,43.91l-.04-.04,10.39,2.91.07.04.04.04.03.06v.06s-.01.97-.01.97h-.01s.02-.66.02-.66c0-.01,0-.02,0-.04l-.02-.11s-.01-.04-.02-.06l-.06-.11s-.02-.03-.03-.04l-.09-.09s-.03-.02-.05-.03l-.11-.05s-.02-.01-.04-.01l-10.08-2.82ZM181.23,41.06l-.03-.04,9.24,2.59-.03.03-5.58-1.56s0,0,0,0l-3.59-1ZM76.85,11.85v-.02s31.81,8.9,31.81,8.9l.06-.18-.05.18,7.09,1.98s.01,0,.01,0l19.65,5.5-.03.02-8.99-2.52v-.02s-.03,0-.03,0l-7.7-2.15h-.02s-41.82-11.71-41.82-11.71Z"/>
      <path d="M79.81,9.2h0c-.05-.01-.11,0-.16.03l-.42.3.11.15-.05.18,125,34.87.06.03.05.05.03.06v.06s-.02,1.21-.02,1.21h.19s.12.15.12.15l.39-.32s.07-.09.07-.14h0s.03-1.23.03-1.23c0-.01,0-.02,0-.04l-.02-.11s-.01-.04-.02-.06l-.06-.11s-.02-.03-.03-.04l-.09-.09s-.03-.02-.05-.03l-.11-.06s-.02-.01-.04-.01L79.81,9.2ZM79.95,9.65v-.02s124.73,34.79,124.73,34.79l.06.03.05.05.03.06v.06s-.01.97-.01.97h0s.02-.66.02-.66c0-.01,0-.02,0-.04l-.02-.11s-.01-.04-.02-.06l-.06-.11s-.02-.03-.03-.04l-.09-.09s-.03-.02-.05-.03l-.11-.06s-.02-.01-.04-.01L79.95,9.65Z"/>
      <path d="M78.78,9.93h0c-.05-.01-.11,0-.16.03l-.42.3.11.15-.05.18,125.05,34.92.06.03.05.05.03.06v.06s-.02,1.21-.02,1.21h.19s.12.15.12.15l.39-.32s.07-.09.07-.14h0s.03-1.23.03-1.23c0-.01,0-.02,0-.04l-.02-.11s-.01-.04-.02-.06l-.06-.11s-.02-.03-.03-.04l-.09-.09s-.03-.02-.05-.03l-.11-.05s-.02-.01-.04-.01L78.78,9.93ZM129.31,24.43l-.03.02-50.37-14.07v-.02s50.39,14.07,50.39,14.07ZM129.54,24.52l-.02-.03,74.19,20.71.06.03.05.05.03.06v.06s-.01.97-.01.97h0s.02-.66.02-.66c0-.01,0-.02,0-.04l-.02-.11s-.01-.04-.02-.06l-.06-.11s-.02-.03-.03-.04l-.09-.09s-.03-.02-.05-.03l-.11-.05s-.02-.01-.04-.01l-73.9-20.64Z"/>
      <path d="M77.75,10.67h0c-.05-.01-.11,0-.16.03l-.42.3.11.15-.05.18,60.05,16.79.06-.17h0s-.05.17-.05.17l65.05,18.18.06.03.05.05.03.06v.06s-.02,1.21-.02,1.21h.19s.12.15.12.15l.39-.31s.07-.09.07-.15h0s.03-1.23.03-1.23c0-.01,0-.02,0-.04l-.02-.11s0-.04-.02-.06l-.06-.11s-.02-.03-.03-.04l-.09-.09s-.03-.02-.05-.03l-.11-.05s-.02-.01-.04-.01L77.75,10.67ZM128.3,25.18l-.03.02-50.39-14.09v-.02s50.41,14.09,50.41,14.09ZM137.5,27.76l7.99,2.23-.03.02-7.94-2.22-.03-.03ZM155.45,32.8l-.8-.22-.03-.04,18.3,5.11-.03.02-17.4-4.86-.02-.03-.02.02ZM173.79,37.93l-.81-.23-.03-.04.87.24-.03.02ZM173.99,37.95l17.43,4.87-.03.02-17.37-4.85-.03-.04ZM154.57,32.55l-8.01-2.24-.03-.04,8.07,2.25-.03.02ZM146.35,30.26l-.8-.22-.03-.04.85.24-.03.02ZM191.47,42.87l-.03-.04,11.29,3.16.06.03.05.05.03.06v.06s-.01.97-.01.97h0s.02-.66.02-.66c0-.01,0-.02,0-.04l-.02-.11s-.01-.04-.02-.06l-.05-.1s-.02-.04-.04-.05l-.09-.09s-.03-.02-.05-.03l-.11-.05s-.02-.01-.04-.01l-10.98-3.07ZM133.54,26.67l-5.07-1.42-.03-.03,8.88,2.48-.03.02-.84-.24-.02-.02h-.02s-2.86-.79-2.86-.79c0,0-.01,0-.01,0Z"/>
      <path d="M75.67,12.14h0c-.05-.01-.11,0-.16.03l-.42.3.11.15-.05.18,38.37,10.75s0,0,0,0l21.72,6.08s0,0,0,0l65.12,18.24.06.03.05.05.03.06v.06s-.02,1.21-.02,1.21h.19s.12.15.12.15l.4-.32s.07-.09.07-.14h0s.03-1.23.03-1.23c0-.01,0-.02,0-.04l-.02-.11s-.01-.04-.02-.06l-.06-.11s-.02-.03-.03-.05l-.09-.09s-.03-.02-.05-.03l-.11-.05s-.02-.01-.04-.01L75.67,12.14ZM153.44,34.34l-.82-.23-.03-.04,9.14,2.56-.03.02-8.22-2.3-.02-.03-.02.02ZM170.9,39.23l-9.06-2.54-.03-.04,9.13,2.55-.03.02ZM171,39.22l10.07,2.82-.03.03-10.01-2.8-.03-.04ZM152.56,34.09l-8.98-2.51-.03-.04,9.03,2.53-.03.02ZM190.33,44.67h0s0,0,0,0l-9.03-2.53-.03-.04,19.51,5.46.06.03.05.05.03.06v.06s-.01.97-.01.97h-.01s.01-.66.01-.66c0-.01,0-.02,0-.04l-.02-.11s-.01-.04-.02-.06l-.06-.11s-.02-.03-.03-.04l-.09-.09s-.03-.02-.05-.03l-.11-.05s-.02-.01-.03-.01l-10.16-2.85ZM75.81,12.59v-.02s67.67,18.95,67.67,18.95l-.03.02-8.09-2.27s0,0,0,0l-21.73-6.09s0,0,0,0l-37.81-10.59Z"/>
      <path d="M81.36,8.39l124.89,34.78.06.03.05.05.03.06v.06s-.02,1.21-.02,1.21h.19s.12.15.12.15l.39-.31s.07-.09.07-.14h0s.03-1.23.03-1.23c0-.01,0-.02,0-.04l-.02-.11s-.01-.04-.02-.06l-.06-.11s-.02-.03-.03-.04l-.09-.09s-.03-.02-.05-.03l-.11-.06s-.02-.01-.04-.01L81.88,7.73c-.05-.02-.11,0-.16.03l-.41.29.11.15-.05.18ZM82.02,8.18v-.02s124.62,34.69,124.62,34.69l.06.03.05.05.03.06v.06s-.01.97-.01.97h0s.02-.66.02-.66c0-.01,0-.02,0-.04l-.02-.11s-.01-.04-.02-.06l-.06-.11s-.02-.03-.03-.04l-.09-.09s-.03-.02-.05-.03l-.11-.06s-.02-.01-.04-.01L82.02,8.18Z"/>
      <path d="M149.07,26.21l58.16,16.18.06.03.05.05.03.06v.06s-.02,1.21-.02,1.21h.19s.12.16.12.16l.39-.32s.07-.09.07-.14h0s.03-1.23.03-1.23c0-.01,0-.02,0-.04l-.02-.11s-.01-.04-.02-.06l-.06-.11s-.02-.03-.03-.04l-.09-.09s-.03-.02-.04-.03l-.11-.06s-.02-.01-.04-.02L82.91,7h0c-.05-.01-.11,0-.16.03l-.41.29.11.15-.05.18,66.67,18.55s0,0,0,0ZM149.15,25.84l-24.37-6.78s-.01,0-.01,0l-28.12-7.82s-.01,0-.01,0l-13.59-3.78v-.02s124.57,34.64,124.57,34.64l.06.03.05.05.03.05v.06s-.01.97-.01.97h0s.02-.66.02-.66c0-.01,0-.02,0-.04l-.02-.11s-.01-.04-.02-.06l-.06-.11s-.02-.03-.03-.04l-.09-.09s-.03-.02-.05-.03l-.11-.06s-.02-.01-.04-.01l-58.17-16.18s-.01,0-.02,0Z"/>
      <path d="M187.55,61.17l.37.07-.02.11s0,0,0,.01l-.02.1-.37-.09.02-.09.02-.11Z"/>
      <path d="M205.78,43.27L80.85,8.46c-.05-.02-.11,0-.16.03l-.42.3.11.15-.05.18,124.94,34.83.06.03.05.05.03.06v.06s-.02,1.21-.02,1.21h.19s.12.15.12.15l.39-.32s.07-.09.07-.14h0s.03-1.23.03-1.23c0-.01,0-.02,0-.04l-.02-.11s-.01-.04-.02-.06l-.06-.11s-.02-.03-.03-.04l-.09-.09s-.03-.02-.05-.03l-.11-.06s-.02-.01-.04-.01ZM205.78,43.71l.03.06v.06s-.01.97-.01.97h0s.02-.66.02-.66c0-.01,0-.02,0-.04l-.02-.11s-.01-.04-.02-.06l-.06-.11s-.02-.03-.03-.04l-.09-.09s-.03-.02-.05-.03l-.11-.06s-.02-.01-.04-.01L80.99,8.91v-.02s124.68,34.74,124.68,34.74l.06.03.05.05Z"/>
      <path d="M176.63,63.52l5.24,1.5s.02,0,.04,0h.14s.01.01.02.01c.02,0,.03,0,.05,0l.14-.04s.05-.02.06-.03l.1-.08s.02-.02.03-.03l3.01-3.78s.02-.03.03-.05l.04-.1-.18-.07.17-.08-.04-.09s-.04-.07-.08-.09l-.11-.06s-.03-.01-.04-.02l-.7-.2-.47-1.65s0-.02,0-.02l-.08-.18s-.03-.06-.06-.08l-.09-.07s-.02-.01-.04-.02l-.2-.09s-.03-.01-.04-.01l-.79-.17-.8-.22-.56-.17-.78-.27s-.02,0-.03,0l-.29-.04s-.05,0-.07,0l-.28.06s-.05.02-.07.03l-.21.15s-.03.02-.04.03l-1.67,2.1s0,0,0,.01l-.06.09s-.02.03-.02.04l-.08.22s0,.01,0,.02l-.41,1.66-.98,1.22s-.02.03-.03.05l-.04.1.18.07-.17.08.04.09s.04.07.08.09l.11.06s.03.01.04.02ZM177.19,62.63l-.06.23-.27.33-.1-.03.43-.54ZM184.69,60.75l.45.13-.15.18-.24-.07-.07-.24ZM177.4,63.34l.79-3.16.07-.19.05-.07,1.65-2.08.16-.12.21-.05.24.04.8.28.68.21.67.18.78.17.17.08.03.02.05.12.81,2.84-2.36,2.97-.06.04-.08.02h-.09s-4.57-1.31-4.57-1.31Z"/>
      <path d="M69.04,21.59l.18-.07-.05-.14s-.04-.07-.08-.1l-.16-.09s-.03-.01-.04-.02l-3.74-1.06s-.02,0-.04,0l-.22-.02s-.04,0-.06,0l-.22.06s-.04.02-.06.03l-.17.12s-.02.02-.03.03l-2.41,2.79s-.02.03-.03.05l-.07.15s-.02.1,0,.14l.05.14.18-.07-.09.16.16.09s.03.01.04.02l3.74,1.06s.02,0,.04,0l.22.02s0,0,.01,0c.02,0,.03,0,.05,0l.22-.06s.04-.02.06-.03l.17-.12s.02-.02.03-.03l2.41-2.8s.02-.03.03-.05l.07-.15-.17-.08ZM62.49,23.52v-.02s0-.02,0-.02l.03-.06,2.25-2.6.1-.07h.05s.12,0,.12,0l3.5.99.05.03h0s.03.1.03.1l-2.19,2.54-.12.09-.16.04h-.17s-3.5-1.01-3.5-1.01Z"/>
      <path d="M139.52,47.83l-.18-.07.17-.07-.04-.09s-.04-.07-.08-.09l-.1-.06s-.03-.01-.04-.02l-.72-.2-.49-1.64s0-.01,0-.02l-.07-.17s-.04-.06-.06-.08l-.09-.07s-.02-.01-.03-.02l-.19-.09s-.02-.01-.04-.01l-1.23-.3-.9-.24-1.06-.32-1.1-.36s-.02,0-.03,0l-.29-.04s-.05,0-.07,0l-.28.06s-.05.02-.07.03l-.21.15s-.03.02-.04.03l-.72.88-.42-1.39s0-.01,0-.02l-.07-.18s-.04-.06-.07-.08l-.09-.07s-.02-.01-.03-.02l-.19-.09s-.02-.01-.04-.01l-1.26-.3-.86-.23-1.06-.31-1.1-.36s-.02,0-.03,0l-.28-.04s-.05,0-.07,0l-.28.06s-.05.02-.07.03l-.21.15s-.03.02-.04.03l-.72.87-.41-1.38s0,0,0-.01l-.07-.17s-.04-.06-.07-.08l-.09-.07s-.02-.01-.03-.02l-.19-.09s-.02-.01-.04-.01l-1.19-.28-1.12-.31-.86-.25-1.1-.36s-.02,0-.03,0l-.28-.04s-.05,0-.07,0l-.28.06s-.05.02-.07.03l-.21.15s-.03.02-.04.03l-.71.86-.41-1.36s0,0,0-.01l-.07-.17s-.04-.06-.07-.09l-.09-.07s-.02-.01-.03-.02l-.19-.09s-.03-.01-.04-.01l-1.21-.29-1.11-.31-.83-.25-1.09-.36s-.02,0-.03,0l-.28-.04s-.05,0-.07,0l-.28.06s-.05.02-.07.03l-.21.15s-.02.02-.04.03l-.71.85-.41-1.35s0-.01,0-.02l-.07-.17s-.04-.06-.07-.09l-.09-.07s-.02-.01-.03-.02l-.19-.09s-.02-.01-.04-.01l-1.23-.3-.86-.23-1.05-.31-1.09-.36s-.02,0-.03,0l-.28-.04s-.05,0-.07,0l-.28.06s-.05.02-.07.03l-.21.15s-.02.02-.04.03l-1.71,2.04s-.01.01-.01.02l-.06.09s-.01.02-.02.03l-.09.21s0,.02,0,.03l-.39,1.68-.96,1.14s-.02.03-.03.05l-.04.09.17.07-.18.07.04.09s.04.07.08.09l.1.06s.03.01.04.02l33.97,9.71s.02,0,.04,0h.14s.01.01.02.01c.02,0,.03,0,.05,0l.14-.04s.04-.02.06-.03l.1-.08s.02-.02.03-.03l3.05-3.71s.02-.03.03-.05l.04-.1ZM102.43,41.26l-.06.26-.26.31-.13-.04.45-.53ZM110.71,39.48l-.71.85s0,.01-.01.02l-.06.09s-.01.02-.02.03l-.09.22s0,.02,0,.03l-.72,3.11-6.45-1.84.72-3.11.08-.19.04-.07,1.68-2.01.16-.11.21-.04.23.04,1.08.36,1.06.31,1.05.28,1.05.25.16.08.03.02.05.12.48,1.57ZM117.54,41.43l-.7.85s0,.01-.01.02l-.06.09s-.01.02-.02.03l-.09.22s0,.02,0,.03l-.73,3.11-6.47-1.85.72-3.11.08-.19.04-.07,1.68-2.02.16-.11.21-.04.23.04,1.08.36,1.06.32,1.05.28,1.05.25.16.08.03.02.05.13.48,1.58ZM124.4,43.39l-.69.84s0,.01-.01.02l-.06.09s-.01.02-.02.03l-.09.22s0,.02,0,.03l-.73,3.12-6.49-1.86.73-3.12.08-.19.04-.07,1.68-2.03.16-.11.21-.04.23.04,1.09.36,1.06.32,1.05.29,1.05.25.16.08.03.02.05.11.49,1.61ZM131.28,45.36l-.68.83s0,.01-.01.02l-.06.09s-.01.02-.02.03l-.09.22s0,.02,0,.03l-.74,3.12-6.52-1.86.74-3.12.07-.19.04-.07,1.67-2.03.16-.11.21-.04.23.04,1.29.42.86.26,1.06.29,1.06.25.16.08.03.02.05.12.49,1.62ZM138.53,48.5l-2.4,2.92-.06.04-.08.02h-.09s-5.87-1.69-5.87-1.69l.74-3.12.07-.19.04-.07,1.67-2.04.16-.11.21-.04.24.04,1.09.36,1.07.32,1.06.29,1.06.25.16.08.03.02.05.12.83,2.8ZM138.67,47.65l.45.13-.14.18-.24-.07-.07-.24Z"/>
      <path d="M92.33,41.52l.18-.07-.04-.1s-.04-.07-.08-.09l-.12-.07s-.03-.01-.04-.02l-.79-.22-.47-1.51-.07-.18s-.04-.07-.07-.09l-.09-.07s-.02-.01-.03-.02l-.19-.09s-.02-.01-.04-.01l-1.1-.26-1.58-.44-1.59-.47-1.13-.37s-.02,0-.03,0l-.28-.04s-.05,0-.07,0l-.28.06s-.05.02-.07.03l-.21.15s-.02.02-.04.03l-.79.93-.46-1.47-.07-.18s-.04-.07-.07-.09l-.09-.07s-.02-.01-.03-.02l-.19-.09s-.02-.01-.04-.01l-1.09-.26-1.57-.44-1.59-.47-1.12-.37s-.02,0-.03,0l-.28-.04s-.05,0-.07,0l-.28.06s-.05.02-.07.03l-.21.15s-.02.02-.03.03l-1.73,2.03s-.01.01-.02.02l-.06.09s0,.02-.01.03l-.09.21s0,.02-.01.03l-.34,1.54-.95,1.1s-.02.03-.03.05l-.05.11.17.08-.18.07.04.1s.04.07.08.1l.12.07s.03.01.04.02l15.73,4.52s.02,0,.04,0h.16s.01.01.02.01c.02,0,.03,0,.05,0l.16-.04s.04-.02.06-.03l.12-.09s.02-.02.03-.03l3.03-3.58s.02-.03.03-.05l.05-.11-.17-.07ZM73.6,40.09l-.06.26-.27.32-.12-.03h-.01s.46-.55.46-.55ZM83.04,38.93l-.65.77s-.01.01-.02.02l-.06.09s-.01.02-.01.03l-.09.21s0,.02-.01.03l-.67,2.96-7.71-2.22.66-2.96.08-.19.04-.07,1.71-2,.16-.11.21-.04.23.04,1.11.37,1.6.47,1.58.44,1.08.26.16.08.03.02.04.12.53,1.69ZM91.47,42.3l-2.35,2.77-.08.06-.1.03h-.11s-6.94-2.01-6.94-2.01l.67-2.97.08-.19.04-.07,1.7-2.01.16-.11.21-.04.23.04,1.12.37,1.6.47,1.59.44,1.09.26.16.08.03.02.04.12.85,2.75ZM92.1,41.53h.02s-.14.17-.14.17l-.33-.1-.07-.23.53.15Z"/>
      <path d="M63.2,28.76l-4.51-1.29s-.04,0-.07,0h-.07s-.05.01-.07.03l-.06.03s-.04.03-.05.04l-.29.33s-.03.04-.03.06h0s-.03.03-.03.03c-.02.02-.03.05-.04.08v.05c-.03.07,0,.15.05.19l.05.04s.04.02.06.03l4.58,1.31s.03,0,.05,0h.08s.06,0,.09-.03l.07-.04s.03-.02.05-.04l.35-.4s.03-.05.04-.08v-.05s-.02,0-.02,0h.01s-.01-.06-.01-.06c0-.03-.02-.05-.03-.07l-.02-.03.02-.03-.05-.04s-.04-.03-.06-.03h-.02s0-.01,0-.01c-.02-.01-.04-.02-.06-.03ZM63,29.09l-.2.23-4.37-1.25.2-.23,4.37,1.25Z"/>
      <path d="M64.56,27.2l-4.51-1.28s-.04,0-.07,0h-.07s-.05.01-.07.03l-.06.03s-.04.03-.05.04l-.29.33s-.03.04-.03.06h0s-.03.04-.03.04c-.02.02-.03.05-.04.08v.05c-.03.07,0,.15.05.19l.05.04s.03.02.05.03c0,0,.01,0,.02,0l4.57,1.3s.03,0,.05,0h.08s.06,0,.09-.03l.07-.04s.03-.02.05-.04l.35-.4s.03-.05.04-.08v-.05s-.02,0-.02,0h.01s-.01-.06-.01-.06c0-.03-.02-.05-.03-.07l-.02-.03.02-.03-.05-.04s-.04-.03-.06-.03h-.01s0-.01,0-.01c-.02-.01-.04-.02-.06-.03ZM64.35,27.53l-.2.23-4.37-1.24.2-.23,4.37,1.24Z"/>
      <path d="M171.87,54.92l-1.12-.37s-.02,0-.03,0l-.29-.04s-.05,0-.07,0l-.28.06s-.05.02-.07.03l-.21.15s-.03.02-.04.03l-.75.94-.42-1.46s0-.01,0-.02l-.07-.18s-.04-.06-.06-.08l-.09-.07s-.02-.01-.03-.02l-.2-.09s-.02-.01-.04-.01l-1.09-.26-1.07-.29-1.08-.32-1.12-.37s-.02,0-.03,0l-.29-.04s-.05,0-.07,0l-.28.06s-.05.02-.07.03l-.21.15s-.03.02-.04.03l-.74.93-.42-1.44s0-.01,0-.02l-.07-.18s-.04-.06-.06-.08l-.09-.07s-.02-.01-.03-.02l-.2-.09s-.02-.01-.04-.01l-1.09-.26-1.06-.29-1.07-.32-1.12-.37s-.02,0-.03,0l-.29-.04s-.05,0-.07,0l-.28.06s-.05.02-.07.03l-.21.15s-.03.02-.04.03l-.74.92-.42-1.43s0-.01,0-.02l-.07-.18s-.04-.06-.06-.08l-.09-.07s-.02-.01-.03-.02l-.2-.09s-.02-.01-.04-.01l-1.09-.26-1.06-.29-1.07-.32-1.11-.37s-.02,0-.03,0l-.29-.04s-.05,0-.07,0l-.28.06s-.05.02-.07.03l-.21.15s-.03.02-.04.03l-.73.9-.42-1.42s0-.01,0-.02l-.07-.18s-.04-.06-.06-.08l-.09-.07s-.02-.01-.03-.02l-.2-.09s-.02-.01-.04-.01l-1.08-.26-1.06-.29-1.14-.34-1.03-.34s-.02,0-.03,0l-.29-.04s-.05,0-.07,0l-.28.06s-.05.02-.07.03l-.21.15s-.03.02-.04.03l-1.69,2.07s0,.01-.01.02l-.06.09s-.01.02-.02.03l-.09.22s0,.02,0,.02l-.41,1.7-.95,1.16s-.02.03-.03.05l-.04.1.18.07-.17.07.04.09s.04.07.08.09l.1.06s.03.01.04.02l34.56,9.88s.02,0,.04,0h.14s.01.01.02.01c.02,0,.03,0,.05,0l.14-.04s.05-.02.06-.03l.1-.08s.02-.02.03-.03l3.01-3.77s.02-.03.03-.05l.04-.1-.18-.07.17-.08-.04-.09s-.04-.07-.08-.09l-.11-.06s-.03-.01-.04-.02l-.66-.19-.47-1.65s0-.01,0-.02l-.08-.18s-.03-.06-.06-.08l-.09-.07s-.02-.01-.03-.02l-.2-.09s-.02,0-.04-.01l-1.1-.26-1.07-.29-1.08-.32ZM176.23,58.34l.41.12-.15.18-.19-.05-.07-.24ZM139.36,51.84l-.06.24-.25.3-.12-.03.42-.51ZM147.76,50.08l-.66.82s0,0-.01.01l-.06.09s-.01.02-.02.04l-.08.22s0,.02,0,.02l-.76,3.13-6.58-1.88.75-3.13.07-.19.04-.07,1.67-2.05.16-.11.21-.05.24.04,1.1.36,1.08.32,1.07.29,1.07.25.16.08.03.02.05.12.49,1.66ZM154.72,52.07l-.65.81s0,0-.01.01l-.06.09s-.01.02-.02.04l-.08.22s0,.02,0,.02l-.76,3.14-6.6-1.89.76-3.14.07-.19.04-.07,1.66-2.05.16-.11.21-.05.29.05,1.12.37,1.15.34.94.25,1.07.25.16.08.03.02.05.12.49,1.67ZM161.71,54.07l-.64.8s0,0,0,.01l-.06.09s-.01.02-.02.04l-.08.22s0,.01,0,.02l-.77,3.14-6.63-1.89.76-3.14.07-.19.05-.07,1.66-2.06.16-.12.21-.05.24.04,1.2.39,1.15.34.91.25,1.08.26.16.08.03.02.05.12.49,1.69ZM168.73,56.08l-.64.8s0,0,0,.01l-.06.09s-.01.03-.02.04l-.08.22s0,.01,0,.02l-.78,3.15-6.65-1.9.77-3.14.07-.19.05-.07,1.66-2.06.16-.12.21-.05.24.04,1.24.4,1.15.34.89.24,1.08.26.17.08.03.02.05.12.49,1.7ZM171.85,55.31l1.18.35.9.24,1.08.26.17.08.03.02.05.12.8,2.78-2.4,3-.06.04-.08.02h-.09s-5.95-1.71-5.95-1.71l.78-3.15.07-.19.05-.07,1.65-2.07.16-.12.21-.05.24.04,1.21.39Z"/>
      <path d="M101.78,42.25l-.79-.27s-.02,0-.03,0l-.28-.04s-.05,0-.07,0l-.28.06s-.05.02-.07.03l-.21.15s-.02.02-.04.03l-.71.85-.42-1.36-.07-.18s-.04-.07-.07-.09l-.09-.07s-.02-.01-.03-.02l-.19-.09s-.03-.01-.04-.01l-.76-.17-.63-.17-.64-.2-.78-.27s-.02,0-.03,0l-.28-.04s-.05,0-.07,0l-.28.06s-.05.02-.07.03l-.21.15s-.02.02-.04.03l-1.72,2.05s-.01.01-.02.02l-.06.09s-.01.02-.01.03l-.09.22s0,.02,0,.03l-.35,1.55-.03.03s0,0,0,0l-.28-.05s-.04,0-.07,0l-.28.05s-.05.01-.07.03l-.22.14s-.03.02-.04.03l-5.08,5.8s0,0-.01.01l-.08.11s-.01.02-.02.03l-.09.2s-.01.03-.01.04l-.3,1.36-.22.26-.23.02s-.04,0-.06.02l-.22.1s-.03.01-.04.02l-1.8,1.43s-.03.02-.04.04l-.07.1s0,0,0,.01l-.1.16s-.02.03-.02.05l-.42,1.61-1.17,1.38s-.02.03-.03.05l-.04.1s-.02.1,0,.14l.03.09s.04.07.08.1l.1.06s.03.01.04.02l3.08.9-.3.22s-.03.02-.04.04l-.08.1-.11.16s-.02.04-.02.06l-.5,2-1,1.18s-.02.03-.03.05l-.04.1.17.07-.18.07.04.09s.04.07.08.1l.1.06s.03.01.04.02l75.94,22.24s.02,0,.04,0h.15s.01.01.02.01c.02,0,.03,0,.05,0l.15-.04s.05-.02.06-.03l.11-.08s.02-.02.03-.03l2.78-3.48.15-.11.2-.05.22.02,4.74,1.38s.02,0,.04,0h.15s.04.01.07,0l.15-.04s.05-.02.07-.03l.11-.08s.02-.02.03-.03l12.75-16.03s.02-.03.03-.05l.04-.1-.18-.07.17-.08-.04-.09s-.04-.07-.08-.09l-.11-.06s-.03-.01-.04-.02l-.76-.22-.44-1.53s0-.01,0-.02l-.08-.18s-.04-.06-.06-.08l-.09-.07s-.02-.01-.03-.02l-.2-.1s-.02,0-.04-.01l-1.51-.38-1.76-.49-1.39-.41-1.36-.44s-.02,0-.03,0l-.29-.04s-.05,0-.07,0l-.28.06s-.05.02-.07.03l-.21.16s-.03.02-.04.03l-.76.96-.43-1.49s0-.01,0-.02l-.08-.18s-.04-.06-.06-.08l-.09-.07s-.02-.01-.03-.02l-.2-.1s-.03-.01-.04-.01l-.79-.17-.66-.17-.67-.2-.81-.28s-.02,0-.03,0l-.29-.04s-.05,0-.07,0l-.28.06s-.05.02-.07.03l-.21.16s-.03.02-.04.03l-.76.96-.43-1.49s0-.01,0-.02l-.07-.18s-.04-.06-.06-.08l-.09-.07s-.02-.01-.03-.02l-.2-.1s-.03-.01-.04-.01l-.78-.17-.65-.17-.66-.2-.81-.28s-.02,0-.03,0l-.29-.04s-.05,0-.07,0l-.28.06s-.05.02-.07.03l-.21.15s-.03.02-.04.03l-.76.95-.43-1.48s0-.01,0-.02l-.07-.18s-.04-.06-.06-.08l-.09-.07s-.02-.01-.03-.02l-.2-.09s-.03-.01-.04-.01l-.78-.17-.65-.17-.66-.2-.81-.28s-.02,0-.03,0l-.29-.04s-.05,0-.07,0l-.28.06s-.05.02-.07.03l-.21.15s-.03.02-.04.03l-.75.94-.43-1.46s0-.01,0-.02l-.07-.18s-.04-.06-.06-.08l-.09-.07s-.02-.01-.03-.02l-.2-.09s-.03-.01-.04-.01l-.78-.17-.65-.17-.66-.2-.8-.28s-.02,0-.03,0l-.29-.04s-.05,0-.07,0l-.28.06s-.05.02-.07.03l-.21.15s-.03.02-.04.03l-.75.93-.43-1.45s0-.01,0-.02l-.07-.18s-.04-.06-.06-.08l-.09-.07s-.02-.01-.03-.02l-.2-.09s-.03-.01-.04-.01l-.78-.17-.76-.2-.55-.17-.8-.28s-.02,0-.03,0l-.29-.04s-.05,0-.07,0l-.28.06s-.05.02-.07.03l-.21.15s-.03.02-.04.03l-.75.92-.43-1.44s0-.01,0-.02l-.07-.18s-.04-.06-.07-.08l-.09-.07s-.02-.01-.03-.02l-.2-.09s-.03-.01-.04-.01l-.77-.17-.65-.17-.66-.2-.8-.28s-.02,0-.03,0l-.29-.04s-.05,0-.07,0l-.28.06s-.05.02-.07.03l-.21.15s-.03.02-.04.03l-.74.91-.43-1.43s0-.01,0-.02l-.07-.18s-.04-.06-.07-.08l-.09-.07s-.02-.01-.03-.02l-.2-.09s-.03-.01-.04-.01l-.77-.17-.65-.17-.66-.2-.8-.28s-.02,0-.03,0l-.29-.04s-.05,0-.07,0l-.28.06s-.05.02-.07.03l-.21.15s-.03.02-.04.03l-.74.9-.43-1.42s0-.01,0-.02l-.07-.18s-.04-.06-.07-.08l-.09-.07s-.02-.01-.03-.02l-.19-.09s-.03-.01-.04-.01l-.77-.17-.65-.17-.64-.2-.8-.28s-.02,0-.03,0l-.29-.04s-.05,0-.07,0l-.28.06s-.05.02-.07.03l-.21.15s-.03.02-.04.03l-.73.89-.43-1.41s0,0,0-.01l-.07-.18s-.04-.06-.07-.08l-.09-.07s-.02-.01-.03-.02l-.19-.09s-.03-.01-.04-.01l-.77-.17-.64-.17-.65-.2-.79-.28s-.02,0-.03,0l-.29-.04s-.05,0-.07,0l-.28.06s-.05.02-.07.03l-.21.15s-.03.02-.04.03l-.73.89-.43-1.4s0,0,0-.01l-.07-.18s-.04-.06-.07-.09l-.09-.07s-.02-.01-.03-.02l-.19-.09s-.03-.01-.04-.01l-.76-.17-.64-.17-.65-.2-.79-.28s-.02,0-.03,0l-.28-.04s-.05,0-.07,0l-.28.06s-.05.02-.07.03l-.21.15s-.02.02-.04.03l-.72.88-.42-1.39s0,0,0-.01l-.07-.17s-.04-.06-.07-.09l-.09-.07s-.02-.01-.03-.02l-.19-.09s-.03-.01-.04-.01l-.76-.17-.64-.17-.65-.2-.79-.28s-.02,0-.03,0l-.28-.04s-.05,0-.07,0l-.28.06s-.05.02-.07.03l-.21.15s-.02.02-.04.03l-.72.87-.42-1.38s0,0,0-.01l-.07-.17s-.04-.07-.07-.09l-.09-.07s-.02-.01-.03-.02l-.19-.09s-.03-.01-.04-.01l-.76-.17-.64-.17-.65-.2-.79-.27s-.02,0-.03,0l-.28-.04s-.05,0-.07,0l-.28.06s-.05.02-.07.03l-.21.15s-.02.02-.04.03l-.72.86-.42-1.37-.07-.19s-.04-.07-.07-.09l-.09-.07s-.02-.01-.03-.02l-.19-.09s-.03-.01-.04-.01l-.76-.17-.69-.18-.59-.18ZM109.88,46.53l-.7.85s0,.01-.01.02l-.06.09s-.01.02-.02.03l-.09.22s0,.02,0,.03l-.38,1.65-.09-.04s-.03-.01-.04-.01l-.76-.17-.64-.17-.65-.2-.79-.28s-.02,0-.03,0l-.28-.05s-.04,0-.07,0l-.28.05s-.05.01-.07.03l-.21.14s-.03.02-.04.03l-.73.8-.42-1.3-.03-.09.43-1.86.08-.19.04-.07,1.69-2.03.16-.11.21-.04.23.04.78.27.66.2.65.17.75.16.16.08.03.03.04.11.49,1.61ZM99.48,47.45l.16-.1.21-.04.23.04.78.28.66.21.65.17.75.16.15.07.03.03.05.12.48,1.49-.72.79s-.01.02-.02.02l-.06.1s-.01.02-.01.03l-.09.19s-.01.03-.02.04l-.46,1.82-.37-.12-.78-.29s-.02,0-.03,0l-.28-.06s-.04,0-.06,0l-.28.03s-.05,0-.07.02l-.22.11s-.03.02-.04.03l-.7.63-.46-1.46s0,0,0-.01l-.06-.16s-.02-.05-.04-.06l-.08-.08s-.03-.03-.06-.04l-.19-.09s-.02,0-.03-.01l-1.22-.33.34-1.38.08-.17.05-.07,1.72-1.88ZM92.9,60.19l.17-.07h.22s.25.05.25.05l1.06.37.92.29.92.25,1.05.24.13.05.03.04.05.09.33,1.27-.27.22-.32.27s-.02.02-.03.03l-.08.11s0,0,0,.01l-.1.17s-.02.03-.02.05l-.86,3.36-6.21-1.82.86-3.46.13-.2,1.76-1.32ZM171.03,67.8l1.86.53,1.86.51.83.2.16.07.03.03.05.12.73,2.41-2.95,3.7-.61-1.86s0-.02-.01-.03l-.08-.15s-.02-.03-.03-.04l-.08-.09s-.04-.04-.07-.05l-.2-.08s-.02,0-.03,0l-1.32-.32-1.32-.37-1.25-.38-1.19-.4s-.01,0-.02,0l-.29-.06s-.04,0-.06,0l-.28.03s-.05,0-.07.02l-.22.12s-.03.02-.04.03l-.83.79-.42-1.26s0-.02-.01-.03l-.07-.15s-.02-.03-.03-.04l-.08-.09s-.04-.04-.07-.05l-.2-.08s-.02,0-.03,0l-.8-.17-.37-.1.49-1.84.07-.18.05-.07,1.68-1.94.16-.11.21-.04.24.04.84.28,2.31.69,1.42.41ZM164.51,67.48l-.64.74s0,.01-.01.02l-.07.1s-.01.02-.02.04l-.08.2s0,.02-.01.03l-.49,1.85-.59-.19-.8-.29s-.02,0-.03,0l-.29-.06s-.04,0-.06,0l-.28.03s-.05,0-.07.02l-.22.11s-.03.02-.04.03l-.79.75-.4-1.21s0-.02-.01-.03l-.07-.15s-.02-.03-.03-.04l-.08-.09s-.04-.04-.07-.05l-.2-.08s-.02,0-.03,0l-.79-.17-.39-.1.49-1.84.07-.18.05-.07,1.69-1.93.16-.11.21-.04.24.04.8.28.68.21.67.18.78.17.17.08.03.02.05.12.5,1.61ZM158.9,65.86l-.65.74s0,.01-.01.02l-.07.1s-.01.02-.02.03l-.08.2s0,.02-.01.03l-.49,1.85-.57-.18-.8-.29s-.02,0-.03,0l-.29-.06s-.04,0-.06,0l-.28.03s-.05,0-.07.02l-.22.11s-.03.02-.04.03l-.8.75-.4-1.21s0-.02-.01-.02l-.07-.15s-.02-.03-.03-.04l-.08-.09s-.04-.04-.07-.05l-.2-.08s-.02,0-.03,0l-.79-.17-.41-.11.48-1.84.07-.18.05-.07,1.69-1.93.16-.11.21-.04.24.04.8.28.68.21.67.18.77.17.17.08.02.02.05.12.5,1.61ZM153.3,64.24l-.66.75s0,.01-.01.02l-.07.1s-.01.02-.02.03l-.08.2s0,.03-.01.03l-.49,1.85-.55-.17-.8-.29s-.02,0-.03,0l-.29-.06s-.04,0-.06,0l-.28.03s-.05,0-.07.02l-.22.11s-.03.02-.04.03l-.79.75-.4-1.2s0-.02,0-.02l-.07-.15s-.02-.03-.03-.05l-.08-.09s-.04-.04-.07-.05l-.2-.08s-.02,0-.03,0l-.79-.17-.42-.11.48-1.84.07-.18.05-.07,1.69-1.92.16-.11.21-.04.24.04.8.28.68.21.67.18.77.17.16.07.03.03.05.12.5,1.6ZM147.72,62.63l-.66.75s0,.01-.01.02l-.07.1s-.01.02-.02.03l-.08.2s-.01.03-.01.03l-.48,1.84-.53-.17-.8-.29s-.02,0-.03,0l-.29-.06s-.04,0-.06,0l-.28.03s-.05,0-.07.02l-.22.11s-.03.02-.04.03l-.79.74-.4-1.19s0-.02,0-.02l-.07-.14s-.02-.03-.03-.05l-.08-.09s-.04-.04-.07-.05l-.2-.08s-.02,0-.03,0l-.79-.16-.44-.11.48-1.84.08-.18.05-.07,1.7-1.92.16-.11.21-.04.24.04.79.28.67.21.67.18.77.17.16.07.03.03.05.12.49,1.59ZM142.15,61.01l-.67.76s-.01.01-.01.02l-.06.1s-.01.02-.02.03l-.08.2s-.01.03-.01.04l-.48,1.84-.51-.16-.8-.29s-.02,0-.03,0l-.29-.06s-.04,0-.06,0l-.28.03s-.05,0-.07.02l-.22.11s-.03.02-.04.03l-.79.73-.4-1.18s0-.01,0-.02l-.07-.14s-.02-.03-.03-.05l-.08-.09s-.04-.04-.07-.05l-.2-.08s-.02,0-.03,0l-.78-.16-.45-.12.48-1.83.08-.18.05-.07,1.7-1.92.16-.11.21-.04.24.04.79.28.67.21.66.18.77.17.16.07.03.03.05.12.49,1.57ZM136.6,59.41l-.68.76s-.01.01-.02.02l-.06.1s-.01.02-.02.03l-.08.2s-.01.03-.01.04l-.48,1.84-.49-.15-.79-.29s-.02,0-.03,0l-.29-.06s-.04,0-.06,0l-.28.03s-.05,0-.07.02l-.22.11s-.03.02-.04.03l-.78.72-.4-1.17s0-.01,0-.02l-.07-.14s-.02-.03-.03-.05l-.08-.09s-.04-.04-.07-.05l-.2-.08s-.02,0-.03,0l-.78-.16-.47-.12.47-1.83.08-.18.05-.07,1.7-1.91.16-.11.21-.04.24.04.79.28.67.21.66.17.76.17.16.07.03.03.05.12.49,1.56ZM131.07,57.81l-.68.77s-.01.01-.02.02l-.06.1s-.01.02-.02.03l-.08.2s-.01.03-.01.04l-.47,1.83-.47-.15-.79-.29s-.02,0-.03,0l-.29-.06s-.04,0-.06,0l-.28.03s-.05,0-.07.02l-.22.11s-.03.02-.04.03l-.78.72-.4-1.17s0-.01,0-.02l-.07-.14s-.02-.03-.03-.05l-.08-.09s-.04-.03-.07-.05l-.2-.08s-.02,0-.03-.01l-.78-.16-.48-.13.47-1.83.08-.18.05-.07,1.71-1.91.16-.11.21-.04.24.04.79.28.67.21.66.17.76.17.15.07.03.03.05.11.49,1.55ZM125.55,56.21l-.69.77s-.01.01-.02.02l-.06.1s-.01.02-.02.03l-.08.2s-.01.03-.01.04l-.47,1.83-.45-.14-.79-.29s-.02,0-.03,0l-.28-.06s-.04,0-.06,0l-.28.03s-.05,0-.07.02l-.22.11s-.03.02-.04.03l-.77.71-.39-1.16s0-.01,0-.02l-.07-.14s-.02-.03-.03-.05l-.08-.09s-.04-.03-.07-.05l-.2-.08s-.02,0-.03,0l-.78-.16-.5-.13.47-1.83.08-.18.05-.07,1.71-1.9.16-.11.21-.04.24.04.78.28.67.21.66.17.76.16.15.07.03.03.05.11.49,1.54ZM120.05,54.62l-.7.78s-.01.01-.02.02l-.06.1s-.01.02-.02.03l-.09.2s-.01.03-.01.04l-.47,1.83-.43-.14-.78-.29s-.02,0-.03,0l-.28-.06s-.04,0-.06,0l-.28.03s-.05,0-.07.02l-.22.11s-.03.02-.04.03l-.77.7-.39-1.15s0-.01,0-.02l-.07-.14s-.02-.04-.03-.05l-.08-.09s-.04-.03-.07-.04l-.19-.08s-.02,0-.03-.01l-.77-.16-.51-.14.46-1.82.08-.18.05-.07,1.71-1.9.16-.11.21-.04.24.04.78.28.66.21.66.17.76.16.15.07.03.03.05.11.49,1.53ZM114.56,53.03l-.71.78s-.01.01-.02.02l-.06.1s-.01.02-.02.03l-.09.19s-.01.03-.01.04l-.46,1.83-.41-.13-.79-.29s-.02,0-.03,0l-.28-.06s-.04,0-.06,0l-.28.03s-.05,0-.07.02l-.22.11s-.03.02-.04.03l-.77.7-.39-1.14s0-.01,0-.02l-.07-.14s-.02-.04-.03-.05l-.08-.09s-.04-.03-.07-.04l-.19-.08s-.02,0-.03-.01l-.77-.16-.53-.14.46-1.82.08-.18.05-.07,1.71-1.89.16-.11.21-.04.24.04.78.28.66.21.65.17.75.16.15.07.03.03.05.11.49,1.52ZM109.09,51.45l-.71.79s-.01.01-.02.02l-.06.1s-.01.02-.01.03l-.09.19s0,.01,0,.01c0,0,0,.02,0,.03l-.46,1.82-.39-.12-.78-.29s-.02,0-.03,0l-.28-.06s-.04,0-.06,0l-.28.03s-.05,0-.07.02l-.22.11s-.03.02-.04.03l-.76.69-.39-1.13s0-.01,0-.02l-.06-.14s-.02-.04-.03-.05l-.08-.09s-.04-.03-.07-.04l-.19-.08s-.02,0-.03-.01l-.77-.16-.54-.15.46-1.82.08-.18.05-.07,1.72-1.89.16-.1.21-.04.23.04.78.28.66.21.65.17.75.16.15.07.03.03.05.11.49,1.51ZM141.47,73.82l.54-2,.07-.13.06-.08,1.73-1.45.16-.07.22-.02.25.06.79.3.68.22.67.18.79.16.14.05.03.04.05.1.34,1.3-.56.48s-.02.02-.03.03l-.08.1s0,.01-.01.02l-.09.17s-.01.03-.02.04l-.55,2.02-5.19-1.51ZM152.28,72.06l-.66-.17-.66-.21-.8-.3s-.02,0-.02,0l-.29-.06s-.04,0-.05,0l-.28.02s-.05,0-.07.02l-.22.1s-.03.02-.04.03l-.87.74-.3-1.15s0-.03-.02-.04l-.07-.13s-.01-.02-.02-.03l-.08-.09s-.05-.04-.08-.06l-.14-.05.43-1.64.07-.15.05-.07,1.72-1.61.16-.09.22-.02.25.05.8.29.75.23.6.16.78.16.15.06.03.04.05.11.45,1.36-.65.61s-.02.02-.02.03l-.07.1s-.01.02-.02.03l-.09.18s0,.02-.01.03l-.17.63-.27,1.04-.54-.11ZM147.08,66.18l.78.16.15.06.03.04.05.11.45,1.35-.65.61s-.02.02-.02.03l-.07.1s-.01.02-.02.03l-.09.18s0,.02-.01.03l-.16.63-.27,1.04-.51-.11-.65-.17-.66-.21-.8-.3s-.02,0-.02,0l-.29-.06s-.04,0-.05,0l-.28.02s-.05,0-.07.02l-.22.1s-.03.02-.04.03l-.87.73-.3-1.14s0-.03-.02-.04l-.07-.13s-.01-.02-.02-.03l-.08-.09s-.05-.04-.08-.06l-.16-.06.42-1.64.08-.15.05-.07,1.72-1.61.16-.09.22-.02.24.05.79.29.73.23.61.16ZM141.52,64.58l.78.16.15.06.03.04.05.11.45,1.34-.66.62s-.02.02-.02.03l-.07.1s-.01.02-.02.03l-.09.18s0,.02-.01.03l-.16.63-.27,1.04-.49-.1-.65-.17-.66-.21-.8-.3s-.02,0-.02,0l-.29-.06s-.04,0-.05,0l-.28.02s-.05,0-.07.02l-.22.1s-.03.02-.04.03l-.87.72-.3-1.13s0-.03-.02-.04l-.07-.13s-.01-.02-.02-.03l-.08-.09s-.05-.04-.08-.06l-.18-.07.42-1.63.08-.15.05-.07,1.72-1.6.16-.09.22-.02.24.05.79.29.71.22.63.16ZM135.98,62.98l.78.16.14.06.03.04.05.11.45,1.33-.67.62s-.02.02-.02.03l-.07.1s-.01.02-.01.02l-.09.18s-.01.02-.01.04l-.43,1.67-.47-.1-.65-.17-.66-.21-.79-.3s-.02,0-.02,0l-.29-.06s-.04,0-.05,0l-.28.02s-.04,0-.07.02l-.22.1s-.03.02-.04.03l-.86.72-.3-1.12s0-.03-.02-.04l-.07-.13s-.01-.02-.02-.03l-.08-.09s-.05-.04-.08-.06l-.2-.08s0,0,0,0l.42-1.63.08-.15.05-.07,1.73-1.6.16-.09.22-.02.24.05.79.29.69.22.65.17ZM130.46,61.38l.77.16.14.06.03.04.05.11.45,1.32-.68.63s-.02.02-.03.03l-.07.1s-.01.02-.01.02l-.09.18s-.01.02-.01.04l-.43,1.67-.44-.09-.65-.17-.65-.21-.79-.29s-.02,0-.02,0l-.29-.06s-.04,0-.05,0l-.28.02s-.04,0-.07.02l-.22.1s-.03.02-.04.03l-.86.71-.3-1.12s0-.03-.01-.04l-.07-.13s-.01-.02-.02-.03l-.08-.09s-.05-.04-.08-.06l-.2-.08s-.02,0-.03,0l.41-1.63.08-.15.05-.07,1.73-1.6.16-.08.22-.02.24.05.79.29.67.21s0,0,.01,0l.66.17ZM124.95,59.79l.77.16.14.06.03.04.05.11.45,1.31-.68.63s-.02.02-.03.03l-.07.1s0,.01-.01.02l-.09.18s-.01.03-.02.05h0s-.42,1.65-.42,1.65l-.42-.09-.65-.17-.65-.21-.79-.29s-.02,0-.02,0l-.28-.06s-.04,0-.05,0l-.28.02s-.04,0-.07.02l-.22.1s-.03.02-.04.03l-.85.7-.3-1.11s0-.03-.01-.04l-.07-.13s-.01-.02-.02-.03l-.08-.09s-.05-.04-.08-.06l-.2-.08s-.02,0-.03,0h-.02s.41-1.63.41-1.63l.08-.15.05-.07,1.73-1.59.16-.08.22-.02.24.05.78.29.67.21.66.17ZM119.46,58.21l.77.16.14.06.03.04.05.11.44,1.3-.69.63s-.02.02-.03.03l-.07.1s0,.01-.01.02l-.09.18s-.01.03-.02.04l-.42,1.66-.39-.08-.64-.17-.65-.21-.79-.29s-.02,0-.02,0l-.28-.06s-.04,0-.05,0l-.28.02s-.04,0-.06.02l-.22.1s-.03.02-.04.03l-.85.7-.3-1.1s0-.02-.01-.04l-.07-.13s-.01-.02-.02-.04l-.08-.09s-.05-.04-.08-.05l-.2-.08s-.02,0-.03,0h-.04s.41-1.63.41-1.63l.08-.15.05-.07,1.74-1.59.16-.08.22-.02.24.05.78.29.67.21.66.17ZM113.99,56.63l.77.16.14.06.03.04.05.11.44,1.3-.7.64s-.02.02-.03.03l-.07.1s0,.01-.01.02l-.09.18s-.01.02-.01.04l-.16.62-.26,1.04-.37-.08-.64-.17-.65-.21-.78-.29s-.02,0-.02,0l-.28-.06s-.04,0-.05,0l-.28.02s-.04,0-.06.02l-.22.1s-.03.02-.04.03l-.85.69-.3-1.09s0-.02-.01-.04l-.07-.13s-.01-.03-.02-.04l-.08-.09s-.05-.04-.08-.05l-.2-.07s-.02,0-.03,0h-.06s.41-1.64.41-1.64l.08-.15.05-.07,1.74-1.58.16-.08.22-.02.24.05.78.29.66.21.66.17ZM135.93,72.21l.43-1.58s0,0,0-.01l.11-.4.08-.13.06-.08,1.73-1.44.16-.07.22-.02.25.06.79.29.68.22.67.18.78.16.14.05.03.04.05.1.34,1.29-.57.48s-.02.02-.03.03l-.08.1s0,.01-.01.02l-.09.17s-.01.03-.02.04l-.55,2.01-5.17-1.51ZM130.41,70.6l.53-1.99.08-.13.06-.08,1.73-1.44.16-.07h.22s.25.04.25.04l.79.29.67.21.67.18.78.16.14.05.03.04.05.1.34,1.28-.58.48s-.02.02-.03.03l-.08.1s0,.01-.01.02l-.09.16s-.01.03-.02.04l-.12.44s0,0,0,.01v.02s-.42,1.54-.42,1.54l-5.16-1.5ZM124.91,69l.53-1.99.08-.13.06-.08,1.74-1.43.16-.07h.22s.25.04.25.04l.79.29.67.21.67.17.78.16.14.05.03.04.05.1.34,1.27-.59.49s-.02.02-.03.03l-.08.1s0,.01-.01.02l-.09.16s-.01.03-.02.04l-.54,2.01-5.14-1.5ZM119.42,67.4l.53-1.99.08-.13.06-.08,1.74-1.43.16-.07h.22s.25.04.25.04l.79.29.67.21.67.17.78.16.14.05.03.04.05.1.34,1.26-.6.49s-.02.02-.03.03l-.08.1s0,.01-.01.02l-.09.16s-.01.03-.02.04l-.54,2.01-5.13-1.49ZM113.95,65.8l.53-1.98.08-.13.06-.08,1.74-1.43.16-.07h.22s.24.04.24.04l.78.29.67.21.66.17.77.16.14.05.03.04.05.1.34,1.25-.6.5s-.02.02-.03.03l-.08.1s0,.01-.01.02l-.09.16s-.01.03-.02.05l-.53,2-5.11-1.49ZM108.49,64.21l.07-.27.45-1.71.08-.13.06-.08,1.75-1.42.16-.07h.22s.24.04.24.04l.78.29.67.21.66.17.77.16.14.05.03.04.05.09.34,1.24-.61.5s-.02.02-.03.03l-.08.1s0,.01-.01.02l-.09.16s-.02.03-.02.05l-.53,2-5.09-1.48ZM103.05,62.63l.52-1.98.08-.13.05-.08,1.75-1.42.16-.07h.22s.24.04.24.04l.78.29.66.21.66.17.77.16.14.05.03.04.05.09.34,1.23-.62.5s-.02.02-.03.03l-.08.1s0,.01-.01.02l-.1.16s-.02.03-.02.05l-.53,2-5.08-1.48ZM104.08,58.28l-.07-.13s-.01-.03-.02-.04l-.08-.09s-.05-.04-.08-.05l-.19-.07s-.02,0-.03,0l-.08-.02.4-1.62.08-.15.05-.07,1.74-1.58.16-.08.22-.02.24.05.78.29.66.21.66.17.76.16.14.06.03.04.05.11.44,1.29-.7.64s-.02.02-.03.03l-.07.1s0,.01-.01.02l-.09.18s-.01.03-.02.05l-.42,1.66-.34-.07-.64-.17-.65-.21-.78-.29s-.02,0-.02,0l-.28-.06s-.04,0-.05,0l-.28.02s-.04,0-.06.02l-.22.1s-.03.02-.04.03l-.84.68-.3-1.08s0-.02-.01-.03ZM173.33,75.73l-2.91,3.66-.51-1.98s-.01-.03-.02-.04l-.08-.14s-.01-.02-.02-.03l-.08-.09s-.05-.04-.08-.06l-.2-.08s-.01,0-.02,0l-1.72-.45-3.29-.93.45-1.71.07-.15.05-.07,1.71-1.63.16-.09.22-.02.25.05,1.23.42,1.32.4,1.32.36,1.22.29.15.06.04.04.06.11.68,2.08ZM162.26,74.97l-3.5-1.04.44-1.69.07-.15.05-.07,1.71-1.62.16-.09.22-.02.25.05.8.29.8.25.56.15.79.17.15.06.03.04.06.11.47,1.42-.6.58s-.02.02-.02.03l-.07.1s-.01.02-.02.03l-.09.18s-.01.02-.01.04l-.45,1.72-1.79-.51ZM157.3,73.49l-1.59-.5s-.01,0-.02,0l-.29-.07s-.04,0-.05,0l-.28.02s-.05,0-.07.02l-.22.1s-.03.02-.04.03l-.87.74-.3-1.15s0-.03-.02-.04l-.07-.13s-.01-.02-.02-.03l-.08-.09s-.05-.04-.08-.06l-.12-.05.43-1.64.07-.15.05-.07,1.71-1.62.16-.09.22-.02.25.05.8.29.77.24.58.15.79.17.15.06.03.04.06.11.45,1.36-.65.61s-.02.02-.02.03l-.07.1s-.01.02-.02.03l-.09.18s-.01.03-.02.04l-.44,1.69-1.1-.33ZM153.56,74.09l-.56.48s-.02.02-.03.03l-.08.1s-.01.01-.01.02l-.09.17s-.01.03-.02.04l-.1.37s0,.01,0,.01l-.45,1.64-.37-.1-.94-.29-1.09-.39s-.01,0-.02,0l-.29-.07s-.04,0-.05,0h-.28s-.04.02-.07.03l-.22.09s-.03.02-.04.03l-.98.77-.27-1.06s0-.03-.02-.04l-.07-.14s0-.01-.01-.02c0,0-.01-.01-.01-.01l-.07-.09s-.04-.04-.07-.06l-.2-.1s-.02,0-.03-.01l-.1-.03.54-2,.07-.13.06-.08,1.72-1.45.16-.07.22-.02.25.06.8.3.68.22.68.18.79.16.14.05.04.04.05.1.34,1.3ZM152.79,77.49l.99.23.14.05.04.05.05.09.33,1.34-.46.36s-.02.02-.03.03l-.08.1s0,.01-.01.02l-.09.16s-.01.03-.02.05l-.93,3.53-6.42-1.88.92-3.51.07-.13.06-.08,1.72-1.36.17-.07h.22s.25.05.25.05l1.09.38.95.3,1.05.28ZM145.93,81.51l-49.22-14.41.86-3.34.08-.14.06-.08.29-.25.4-.32.36-.27.41-.29.28-.18.17-.06.23-.02.25.04,8.08,2.35s.01,0,.01,0l38.79,11.3.15.07.04.05.06.11.31,1.2-.46.36s-.02.02-.03.03l-.08.1s0,.01-.01.02l-.09.16s-.02.03-.02.05l-.92,3.52ZM97.64,60.98l.5-1.9.08-.13.05-.08,1.76-1.41.16-.07h.22s.24.04.24.04l.78.29.66.21.66.17.77.16.14.05.03.04.05.09.33,1.22-.63.51s-.02.02-.03.04l-.07.1s0,0,0,.01l-.1.16s-.02.03-.02.05l-.52,2-2.48-.72s-.02,0-.02,0l-.28-.04s-.03,0-.04,0l-.28.02s-.03,0-.05.01l-.22.08s-.03.01-.04.02l-.31.2-.42.3-.18.14-.29-1.13s0-.03-.02-.04l-.06-.12s-.01-.02-.02-.03l-.08-.1s-.05-.05-.08-.06l-.17-.06ZM98.59,56.72s0-.02-.01-.03l-.06-.13s-.02-.03-.02-.04l-.08-.09s-.05-.04-.08-.05l-.19-.07s-.01,0-.02,0h-.03s.4-1.62.4-1.62l.08-.15.05-.07,1.75-1.58.16-.08.22-.02.24.05.78.28.66.21.66.17.76.16.14.06.03.04.05.1.44,1.28-.71.64s-.02.02-.03.03l-.07.1s0,.01-.01.02l-.09.18s-.01.03-.02.05l-.41,1.66-.32-.07-.64-.17-.64-.21-.78-.29s-.02,0-.02,0l-.28-.06s-.04,0-.05,0l-.28.02s-.04,0-.06.02l-.22.1s-.03.02-.04.03l-.9.73-.31-1.15ZM115.33,48.1l-.7.84s0,.01-.01.02l-.06.09s-.01.02-.02.03l-.09.22s0,.02,0,.03l-.39,1.66-.08-.04s-.03-.01-.04-.01l-.77-.17-.64-.17-.65-.2-.79-.28s-.02,0-.03,0l-.28-.05s-.04,0-.07,0l-.28.05s-.05.01-.07.03l-.21.14s-.03.02-.04.03l-.74.81-.42-1.31s0,0,0-.01l-.04-.09.43-1.85.08-.19.04-.07,1.69-2.03.16-.11.21-.05.23.04.78.27.66.2.65.17.75.16.16.08.04.03.04.11.49,1.62ZM120.81,49.68l-.69.84s0,.01-.01.02l-.06.09s-.01.02-.02.03l-.09.22s0,.02,0,.03l-.39,1.66-.08-.04s-.03,0-.04-.01l-.77-.17-.64-.17-.65-.2-.79-.28s-.02,0-.03,0l-.28-.05s-.04,0-.07,0l-.28.05s-.05.01-.07.03l-.21.14s-.03.02-.04.03l-.74.82-.42-1.32s0,0,0-.01l-.04-.1.43-1.84.08-.19.04-.07,1.69-2.04.16-.12.21-.05.23.04.78.27.66.2.65.17.75.17.16.08.04.03.04.11.5,1.64ZM126.29,51.26l-.68.83s0,.01-.01.02l-.06.09s-.01.02-.02.03l-.09.22s0,.02,0,.03l-.39,1.66-.07-.03s-.03,0-.04-.01l-.77-.17-.64-.17-.65-.2-.79-.28s-.02,0-.03,0l-.29-.05s-.04,0-.07,0l-.28.05s-.05.01-.07.03l-.21.14s-.03.02-.04.03l-.74.83-.42-1.33s0,0,0-.01l-.05-.12.43-1.83.08-.19.04-.07,1.68-2.04.16-.12.21-.05.23.04.78.27.67.2.66.17.75.17.16.08.04.03.04.11.5,1.65ZM131.8,52.85l-.67.83s0,.01-.01.02l-.06.09s-.01.02-.02.03l-.09.22s0,.02,0,.03l-.39,1.66-.06-.03s-.03,0-.04-.01l-.77-.17-.64-.17-.65-.2-.8-.28s-.02,0-.03,0l-.29-.05s-.04,0-.07,0l-.28.05s-.05.01-.07.03l-.21.14s-.03.02-.04.03l-.75.84-.42-1.34s0,0,0-.01l-.05-.13.43-1.82.07-.19.04-.07,1.68-2.05.16-.12.21-.05.23.04.79.27.9.27.43.11.76.17.16.08.04.03.04.11.5,1.66ZM137.32,54.44l-.67.82s0,.01-.01.02l-.06.09s-.01.02-.02.03l-.09.22s0,.02,0,.02l-.4,1.66-.06-.03s-.03,0-.04-.01l-.78-.17-.65-.17-.66-.2-.8-.28s-.02,0-.03,0l-.29-.05s-.04,0-.07,0l-.28.05s-.05.01-.07.03l-.21.14s-.03.02-.04.03l-.75.84-.43-1.35s0-.01,0-.02l-.06-.14.43-1.81.07-.19.04-.07,1.68-2.05.16-.12.21-.05.23.04.79.27.67.21.66.17.76.17.16.08.03.02.05.12.5,1.67ZM142.85,56.03l-.66.81s0,0-.01.01l-.06.09s-.01.02-.02.04l-.09.22s0,.02,0,.02l-.4,1.66-.05-.02s-.03,0-.04-.01l-.78-.17-.65-.17-.66-.2-.8-.28s-.02,0-.03,0l-.29-.05s-.04,0-.07,0l-.28.05s-.05.01-.07.03l-.21.14s-.03.02-.04.03l-.76.85-.43-1.36s0-.01,0-.02l-.07-.16.43-1.81.07-.19.04-.07,1.68-2.06.16-.12.21-.05.24.04.79.28.67.21.8.21.62.14.16.08.04.03.04.11.5,1.68ZM148.4,57.63l-.65.81s0,0-.01.01l-.06.09s-.01.02-.02.04l-.08.22s0,.02,0,.02l-.4,1.66-.04-.02s-.02,0-.04-.01l-.78-.17-.65-.17-.66-.21-.8-.28s-.02,0-.03,0l-.29-.05s-.04,0-.07,0l-.28.05s-.05.01-.07.03l-.21.14s-.03.02-.04.03l-.76.86-.43-1.37s0-.01,0-.02l-.07-.17s0,0,0,0l.43-1.8.07-.19.04-.07,1.67-2.06.16-.12.21-.05.24.04.79.28.67.21s.01,0,.02,0l.65.17.76.17.16.08.04.03.04.11.5,1.69ZM153.97,59.24l-.65.8s0,0,0,.01l-.06.09s-.01.02-.02.04l-.08.22s0,.01,0,.02l-.41,1.66-.04-.02s-.02,0-.04-.01l-.78-.17-.65-.17-.66-.21-.8-.29s-.02,0-.03,0l-.29-.05s-.04,0-.07,0l-.28.05s-.05.01-.07.03l-.21.14s-.03.02-.04.03l-.76.87-.43-1.38s0-.01,0-.02l-.07-.17s0,0,0-.01l.43-1.79.07-.19.05-.07,1.67-2.07.16-.12.21-.05.24.04.8.28.67.21.67.18.77.17.16.08.04.03.04.11.5,1.71ZM159.55,60.85l-.64.8s0,0,0,.01l-.06.09s-.01.02-.02.04l-.08.22s0,.01,0,.02l-.41,1.66h-.03s-.02-.02-.04-.03l-.79-.17-.65-.17-.66-.21-.81-.29s-.02,0-.03,0l-.29-.05s-.04,0-.07,0l-.28.05s-.05.01-.07.03l-.21.14s-.03.02-.04.03l-.77.88-.43-1.39s0-.01,0-.02l-.07-.17s0-.01-.01-.02l.44-1.79.07-.19.05-.07,1.67-2.07.16-.12.21-.05.24.04.8.28.68.21.67.18.77.17.16.08.04.03.05.11.5,1.72ZM165.15,62.46l-.63.79s0,0,0,.01l-.06.09s-.01.03-.02.04l-.08.22s0,.01,0,.02l-.41,1.67h-.02s-.02-.02-.04-.02l-.79-.17-.66-.17-.66-.21-.81-.29s-.02,0-.03,0l-.29-.05s-.04,0-.07,0l-.28.05s-.05.01-.07.03l-.21.14s-.03.02-.04.03l-.77.88-.43-1.4s0-.01,0-.02l-.07-.17s-.01-.02-.02-.03l.44-1.78.07-.19.05-.07,1.66-2.08.16-.12.21-.05.24.04.8.28.68.21.67.18.77.17.16.08.04.04.05.11.5,1.73ZM170.77,64.07l-.63.79s0,0,0,.01l-.06.09s-.02.03-.02.04l-.08.22s0,.01,0,.02l-.43,1.72-.91-.27-1.2-.36-.85-.28s-.02,0-.03,0l-.29-.05s-.04,0-.07,0l-.28.05s-.05.01-.07.03l-.21.14s-.03.02-.04.03l-.77.89-.43-1.4s0-.01,0-.02l-.07-.17s-.01-.03-.02-.04l.44-1.78.07-.19.05-.07,1.66-2.08.16-.12.21-.05.25.04.79.28.68.21.67.18.77.17.17.08.03.02.05.12.5,1.74ZM179.78,67.62l-2.93,3.69-.66-2.17s0-.01,0-.02l-.08-.17s-.03-.05-.05-.07l-.09-.07s-.03-.02-.04-.03l-.2-.09s-.02,0-.03-.01l-.84-.2-2.5-.69-1.67-.48-.78-.23.43-1.73.07-.19.05-.07,1.66-2.09.16-.12.21-.05.24.04,1.54.49,1.48.44,1.67.46,1.32.33.17.08.03.03.05.12.8,2.79ZM180.41,66.82h0s-.14.18-.14.18l-.3-.09-.07-.24.51.15ZM161.81,81.73l-.12.15-.52-2.11s-.01-.03-.02-.05l-.08-.13s0-.01-.01-.02l-.08-.1s-.05-.05-.08-.06l-.2-.08s-.02,0-.02,0l-1.2-.28-.83-.23-.95-.3-1.09-.38s-.01,0-.02,0l-.29-.07s-.03,0-.05,0h-.28s-.04.02-.07.03l-.22.09s-.03.02-.04.03l-.98.77-.3-1.2s-.01-.03-.02-.05l-.07-.13s0-.01-.01-.02l-.08-.1s-.05-.05-.08-.06l-.2-.07s-.02,0-.02,0l-1.09-.25-.2-.06.45-1.64s0-.01,0-.01l.09-.35.07-.13.06-.08,1.72-1.46.16-.07.22-.02.25.06,1.58.5,5.27,1.57,5.27,1.49,1.59.42.15.06.04.04.06.1.58,2.23-2.42,3.04-.06.05-.08.02h-.1s-4.74-1.39-4.74-1.39c-.01,0-.02,0-.04,0l-.27-.02s-.04,0-.07,0l-.27.07s-.05.02-.06.03l-.2.15s-.02.02-.03.03ZM153.08,83.6l.92-3.51.07-.13.06-.08,1.72-1.36.16-.07h.22s.25.05.25.05l1.09.39.95.3.95.26,1.1.25.13.05.04.05.06.09.58,2.37-2.37,2.96-.06.05-.08.02h-.1s-5.71-1.68-5.71-1.68ZM83.37,62.5l-.07.27-.27.32-.13-.04.47-.55ZM84.56,59.59l1.77-1.31.17-.07h.22s.25.05.25.05l1.06.37.92.29.92.25,1.05.24.13.05.03.04.05.09.32,1.22-.55.41s-.03.02-.04.04l-.08.1-.1.16s-.02.04-.02.06l-.87,3.48-6.21-1.82.86-3.46.13-.2ZM82.29,57.09l-.07.28-.43.5-.13-.04.63-.74ZM85.35,53.08h.22s.25.04.25.04l1.69.53,4.41,1.32,4.41,1.24,1.69.45.14.05.03.04.05.09.35,1.29-.57.46s-.02.02-.03.04l-.07.1s0,0,0,.01l-.1.16s-.02.03-.02.05l-.51,1.94-.74-.17-.91-.24-.91-.28-1.06-.38s-.01,0-.02,0l-.28-.07s-.03,0-.05,0h-.28s-.04.02-.06.03l-.22.09s-.03.01-.04.02l-.93.69-.29-1.1s0-.03-.02-.04l-.06-.12s-.01-.02-.02-.03l-.08-.1s-.05-.05-.08-.06l-.19-.07s-.02,0-.02,0l-1.05-.24-.9-.24-.91-.28-1.06-.37s-.01,0-.02,0l-.28-.07s-.03,0-.05,0h-.28s-.04.02-.06.03l-.22.09s-.03.01-.04.02l-1.13.84-2.56-.75.85-3.3.08-.13.05-.08,1.77-1.4.17-.07ZM92.22,45.04l2.41.79,2.36.71.72.21.19.11.03.03.07.17.3,1.13-.82.9s-.01.02-.02.02l-.06.1s-.01.02-.01.03l-.09.2s0,.02-.01.03l-.35,1.39-1.16-.31-.15-.09-.05-.13-.35.14.07.19.08-.03-.05.1.28.16s.03.01.04.02l.37.1,2.38.63.15.07.03.03.05.12.51,1.62-.77.7s-.02.02-.03.03l-.07.1s0,.01-.01.02l-.1.18s-.01.03-.02.05l-.4,1.63-1.3-.34-4.4-1.24-4.41-1.32-1.56-.49.36-1.63.08-.17.06-.09,5.06-5.78.16-.11.21-.03.24.05ZM99.01,43.4l-.72.86s-.01.01-.01.02l-.06.09s-.01.02-.01.03l-.09.22s0,.02,0,.03l-.39,1.71-.62-.18-2.35-.71-2.05-.67.37-1.6.08-.19.04-.07,1.7-2.02.16-.11.21-.04.23.04.77.27.66.2.65.17.74.16.16.08.03.02.04.12.49,1.59ZM101.66,42.61l.66.2.65.17.74.16.16.08.03.03.04.12.49,1.6-.71.85s0,.01-.01.02l-.06.09s-.01.02-.02.03l-.09.22s0,.02,0,.03l-.38,1.65-.1-.04s-.03-.01-.04-.01l-.76-.16-.64-.17-.64-.2-.78-.28s-.02,0-.03,0l-.28-.05s-.04,0-.07,0l-.28.05s-.05.01-.07.03l-.21.14s-.03.02-.04.03l-.62.68-.24-.91s0-.02,0-.02l-.09-.22s-.02-.04-.04-.06l-.08-.08s-.03-.03-.05-.04l-.04-.02.41-1.77.08-.19.04-.07,1.69-2.03.16-.11.21-.04.23.04.78.27Z"/>
      <path d="M.02,29.44h0s.31,1.81.31,1.81c0,.02.01.04.02.06l.08.15s.01.02.02.03l.3.35s.03.03.05.04l.16.09s.01,0,.02,0l.59.26s.02,0,.02,0l1.02.3.36.74.16.32s.05.06.08.08l.42.22s.02.01.03.01l14.69,4.28s.02,0,.03,0l.61.08s.02,0,.03,0c0,0,.01,0,.02,0l.71-.06s.02,0,.04,0l.7-.2s.02,0,.04-.01l.58-.31s.01,0,.02-.01l10.86-7.62,9.38-6.01s0,0,.01,0l.16-.12s0,0,.01-.01l.44-.4s.03-.03.04-.05l.08-.16s0-.02.01-.03l.13-.44s0-.01,0-.02l.2-1.02h0s0-.08,0-.11l-.1-.23.09-.29s.01-.07,0-.1l-.24-.97s0-.02-.01-.03l-.25-.56s-.02-.03-.03-.05l-.12-.14s-.02-.02-.03-.03l-.47-.35s-.01,0-.02-.01l-.13-.07s-.02,0-.02-.01l-.7-.27h0s-.01,0-.02,0l-3.31-.94-.04-.67s0-.02,0-.03l-.05-.19s-.01-.04-.02-.05l-.06-.1s-.01-.02-.02-.03l-.04-.04.21-.15s.01,0,.02-.01l1.19-1.03.19-.19s0,0,.01-.01l.81-.95s.02-.02.02-.03l.48-.88s.01-.03.02-.05l.21-.83s0-.01,0-.02l.04-.27s0-.02,0-.03l-.02-.78s0-.03,0-.04l-.17-.75s0-.01,0-.02l-.26-.73-.29-.74-.26-.75-.18-.79-.04-.78.08-.49.28-.68.32-.45.59-.55.84-.56,1.05-.51,1.17-.42,1.37-.36,1.74-.34,1.97-.27,2.21-.2,2.47-.12,2.52-.04,2.28.03,2.08.09,1.92.14,2.01.2.68.08s-.04.03-.05.05l-.36.61s0,.01,0,.02l-.09.21s-.02.05-.02.08v.92s.01.04.02.06l.07.21s.02.04.03.05l.55.72s.04.04.06.05l.95.51s.03.01.04.02l1.2.33s.01,0,.02,0l.17.02,1.25.18s0,0,.01,0l1.49.1,1.58.02,1.59-.03,1.67-.08,1.25-.08.91-.07.02.05s.01.03.02.05l.14.21s.02.02.02.03l.08.08s.05.04.09.05l.11.03s.03,0,.04,0c.02,0,.04,0,.05,0l.11-.03s.02,0,.03-.01l.1-.05s.04-.02.05-.04l.07-.08s.04-.05.04-.09l.05-.25.96-.08h.15s-4.3,3.03-4.3,3.03c-.01,0-.03.02-.04.03l-.07.08s-.02.03-.03.05l-.03.08s0,.01,0,.02l-.03.11s0,.03,0,.04l-.04.6-4.51,3.2-.13.04-.25-.02-.41-.11s-.03,0-.04,0h-.07s-.05,0-.07,0l-.14.05s-.03.01-.04.02l-6.84,4.84-.9-.26s-.02,0-.02,0l-.13-.02s-.04,0-.06,0l-.12.02s-.01,0-.02,0l-.11.03s-.04.02-.06.03l-.11.08s-.02.02-.03.03l-4.4,5.08s0,0-.01.01l-.09.13s0,0,0,.01l-.04.06s-.01.02-.02.04l-.03.09s0,.01,0,.02l-.07.26s0,0,0,.01l-.04.18h0s-2.3,2.67-2.3,2.67l-14.08,16.17h0s-9.73,11.15-9.73,11.15c0,0-.01.01-.02.02l-.25.38s-.01.02-.02.04l-.17.43s0,.02,0,.03l-.08.45s0,.03,0,.04l.02.44s0,.02,0,.03l.08.39s0,.02.01.04c0,.02,0,.04,0,.07l.08.4s0,.02,0,.03l.14.35s0,.02.01.02l.09.16s.03.04.05.06l.45.34s.02.02.04.02l.25.11s.01,0,.02,0l131.33,38.8s.01,0,.02,0l.29.05s.02,0,.03,0c0,0,0,0,.01,0l.28-.02s.01,0,.02,0l.28-.04s.04,0,.06-.02l.17-.09s.03-.01.04-.02l.41-.34s.01-.01.02-.02l8.22-9.62,3.41-2.77s.02-.02.03-.03l.04-.03s.01,0,.02-.01l23.11-18.75s.02-.02.03-.04l.05-.03s.01,0,.02-.01l14.32-11.63s.02-.02.03-.03l.21-.29s0-.01.01-.02l.04-.08s0,0,0-.01l.77-1.61,2.97-2.41s.02-.02.02-.02l.09-.1s0,0,.01-.01l.14-.2s.02-.04.03-.06l.04-.14s0-.03,0-.04l.07-2.78s0-.03,0-.04l-.02-.13s.03-.07.03-.1l.07-2.66s0-.03,0-.04l-.06-.35s-.02-.06-.04-.08l-.08-.1s-.01-.02-.02-.02l-.2-.18s-.04-.03-.06-.04l-.41-.17s-.01,0-.02,0l-2.25-.62-.26-2.04s0-.02,0-.02l-.04-.15s-.02-.05-.03-.06l-.14-.18s-.02-.02-.03-.02l-.16-1.42s0-.02,0-.03l-.03-.12s-.02-.05-.04-.08l-.07-.07s0,0-.01-.01l-.11-.1s-.05-.04-.08-.04l-.52-.14s-.01,0-.02,0h-.09s-.04-.02-.06-.01l-.16.03s-.04,0-.05.02l-.1.05s-.02.01-.03.02l-.32.26-.03-.23s0-.02,0-.03l-.03-.12s-.02-.05-.04-.08l-.07-.07s0,0-.01-.01l-.11-.1s-.05-.04-.08-.04l-.52-.14s-.01,0-.02,0h-.09s-.04-.02-.06-.01l-.16.03s-.04,0-.05.02l-.1.05s-.02.01-.03.02l-.32.26-.03-.23s0-.02,0-.03l-.03-.12s-.02-.05-.04-.08l-.07-.07s0,0-.01-.01l-.11-.1s-.05-.04-.08-.04l-.52-.14s-.01,0-.02,0h-.09s-.04-.02-.06-.01l-.16.03s-.04,0-.05.02l-.1.05s-.02.01-.03.02l-.32.25-.03-.23s0-.02,0-.03l-.04-.12s-.02-.05-.04-.08l-.07-.07s0,0-.01-.01l-.1-.1s-.05-.04-.08-.04l-.52-.14s-.01,0-.02,0h-.09s-.04-.02-.06-.01l-.16.03s-.03,0-.05.02l-.1.05s-.02.01-.03.02l-.32.25-.03-.23s0-.02,0-.03l-.04-.12s-.02-.05-.04-.08l-.07-.07s0,0-.01-.01l-.1-.1s-.05-.04-.08-.04l-.52-.14s-.01,0-.02,0h-.09s-.04-.02-.06-.01l-.15.03s-.03,0-.05.02l-.1.05s-.02.01-.03.02l-.32.25-.03-.22s0-.02,0-.03l-.04-.12s-.02-.05-.04-.08l-.07-.07s0,0-.01-.01l-.1-.1s-.05-.04-.08-.04l-.52-.14s-.01,0-.02,0h-.09s-.04-.02-.06-.01l-.15.03s-.03,0-.05.02l-.1.05s-.02.01-.03.02l-.32.25-.03-.22s0-.02,0-.03l-.04-.12s-.02-.05-.04-.08l-.07-.07s0,0,0,0l-.1-.1s-.05-.04-.08-.04l-.52-.14s-.01,0-.02,0h-.09s-.04-.02-.06-.01l-.15.03s-.03,0-.05.02l-.1.05s-.02.01-.03.02l-.31.25-.03-.22s0-.02,0-.03l-.04-.12s-.02-.05-.04-.08l-.07-.07s0,0,0,0l-.1-.1s-.05-.04-.08-.04l-.52-.14s-.01,0-.02,0h-.09s-.04-.02-.06-.01l-.15.03s-.03,0-.05.02l-.1.05s-.02.01-.03.02l-.31.25-.03-.22s0-.02,0-.03l-.04-.12s-.02-.05-.04-.08l-.07-.07s0,0,0,0l-.1-.1s-.05-.04-.08-.04l-.51-.14s-.01,0-.02,0h-.09s-.04-.02-.06-.01l-.15.03s-.03,0-.05.02l-.1.05s-.02.01-.03.02l-.31.25-.03-.22s0-.02,0-.03l-.04-.12s-.02-.05-.04-.08l-.07-.07s0,0,0,0l-.1-.1s-.05-.04-.08-.04l-.51-.14s-.01,0-.02,0h-.09s-.04-.02-.06-.01l-.15.03s-.03,0-.05.02l-.1.05s-.02.01-.03.02l-.31.25-.03-.22s0-.02,0-.03l-.04-.12s-.02-.05-.04-.08l-.07-.07s0,0,0,0l-.1-.1s-.05-.04-.08-.04l-.51-.14s-.01,0-.02,0h-.09s-.04-.02-.06-.01l-.15.03s-.03,0-.05.02l-.1.05s-.02.01-.03.02l-.31.24-.03-.22s0-.02,0-.03l-.04-.12s-.02-.05-.04-.08l-.07-.07s0,0,0,0l-.1-.1s-.05-.04-.08-.04l-.51-.14s-.01,0-.02,0h-.09s-.04-.02-.06-.01l-.15.03s-.03,0-.05.02l-.1.05s-.02.01-.03.02l-.31.24-.03-.21s0-.02,0-.03l-.04-.12s-.02-.05-.04-.08l-.07-.07s0,0,0,0l-.1-.1s-.05-.04-.08-.04l-.51-.14s-.01,0-.02,0h-.09s-.04-.02-.06-.01l-.15.03s-.03,0-.05.02l-.1.05s-.02.01-.03.02l-.31.24-.03-.21s0-.02,0-.03l-.04-.12s-.02-.05-.04-.08l-.07-.07s0,0,0,0l-.1-.1s-.05-.04-.08-.04l-.51-.14s-.01,0-.02,0h-.09s-.04-.02-.06-.01l-.15.03s-.03,0-.05.02l-.1.05s-.02.01-.03.02l-.31.24-.03-.21s0-.02,0-.03l-.04-.12s-.02-.05-.04-.08l-.07-.07-.11-.11s-.05-.04-.08-.04l-.51-.14s-.01,0-.02,0h-.09s-.04-.02-.06-.01l-.15.03s-.03,0-.05.02l-.1.05s-.02.01-.03.02l-.31.24-.03-.21s0-.02,0-.03l-.04-.12s-.02-.05-.04-.07l-.07-.07-.11-.11s-.05-.04-.08-.04l-.51-.14s-.01,0-.02,0h-.09s-.04-.02-.06-.01l-.15.03s-.03,0-.05.02l-.1.05s-.02.01-.03.02l-.31.24-.03-.21s0-.02,0-.03l-.04-.12s-.02-.05-.04-.08l-.07-.07-.11-.11s-.05-.04-.08-.04l-.51-.14s-.01,0-.02,0h-.09s-.04-.02-.06-.01l-.15.03s-.03,0-.05.02l-.1.05s-.02.01-.03.02l-.3.24-.03-.21s0-.02,0-.03l-.04-.12s-.02-.05-.04-.07l-.07-.07-.11-.11s-.05-.04-.08-.04l-.51-.14s-.01,0-.02,0h-.09s-.04-.02-.06-.01l-.15.03s-.03,0-.05.02l-.1.05s-.02.01-.03.02l-.3.24-.03-.2s0-.02,0-.03l-.04-.12s-.02-.05-.04-.07l-.07-.07-.11-.11s-.05-.04-.08-.04l-.51-.14s-.01,0-.02,0h-.09s-.04-.02-.06-.01l-.15.03s-.03,0-.05.02l-.1.05s-.02.01-.03.02l-.3.23-.03-.2s0-.02,0-.03l-.04-.12s-.02-.05-.04-.08l-.07-.07-.11-.11s-.05-.04-.08-.04l-.51-.14s-.01,0-.02,0h-.09s-.04-.02-.06-.01l-.15.03s-.03,0-.05.02l-.1.05s-.02.01-.03.02l-.3.23-.03-.2s0-.02,0-.03l-.04-.12s-.02-.05-.04-.08l-.07-.07-.11-.11s-.05-.04-.08-.04l-.51-.14s-.01,0-.02,0h-.09s-.04-.02-.06-.01l-.15.03s-.03,0-.05.02l-.1.05s-.02.01-.03.02l-.3.23-.03-.2s0-.02,0-.03l-.04-.12s-.02-.05-.04-.07l-.07-.07-.11-.11s-.05-.04-.08-.04l-.51-.14s-.01,0-.02,0h-.09s-.04-.02-.06-.01l-.15.03s-.03,0-.05.02l-.1.05s-.02.01-.03.02l-.3.23-.03-.2s0-.02,0-.03l-.04-.12s-.02-.05-.04-.07l-.07-.07-.11-.11s-.05-.04-.08-.04l-.51-.14s-.01,0-.02,0h-.09s-.04-.02-.06-.01l-.15.03s-.03,0-.05.02l-.1.05s-.02.01-.03.02l-.3.23-.03-.2s0-.02,0-.03l-.04-.12s-.02-.05-.04-.07l-.07-.07-.11-.1s-.05-.04-.08-.04l-.51-.14s-.01,0-.02,0h-.09s-.04-.02-.06-.01l-.15.03s-.03,0-.05.02l-.1.05s-.02.01-.03.02l-.3.23-.03-.2s0-.02,0-.03l-.04-.12s-.02-.05-.04-.07l-.07-.07-.11-.1s-.05-.04-.08-.04l-.51-.14s-.01,0-.02,0h-.09s-.04-.02-.06-.01l-.15.03s-.03,0-.05.02l-.1.05s-.02.01-.03.02l-.3.23-.03-.19s0-.02,0-.03l-.04-.12s-.02-.05-.04-.07l-.07-.07-.11-.1s-.05-.04-.08-.04l-.51-.14s-.01,0-.02,0h-.09s-.04-.02-.06-.01l-.15.03s-.03,0-.05.02l-.1.05s-.02.01-.03.02l-.3.23-.03-.19s0-.02,0-.03l-.04-.12s-.02-.05-.04-.07l-.07-.07-.11-.1s-.05-.04-.08-.05l-.51-.14s-.01,0-.02,0h-.09s-.04-.02-.06-.01l-.15.03s-.03,0-.05.02l-.1.05s-.02.01-.03.02l-.29.23-.03-.19s0-.02,0-.03l-.04-.12s-.02-.05-.04-.07l-.07-.07-.11-.1s-.05-.04-.08-.04l-.51-.14s-.01,0-.02,0l-.09-.02s-.04,0-.06,0l-.15.03s-.03,0-.05.02l-.1.05s-.02.01-.03.02l-.29.22-.03-.19s0-.02,0-.03l-.04-.12s-.02-.05-.04-.07l-.07-.07-.11-.1s-.05-.04-.08-.05l-.51-.14s-.01,0-.02,0h-.09s-.04-.02-.06-.01l-.15.03s-.03,0-.05.01l-.1.05s-.02.01-.03.02l-.29.22-.03-.19s0-.02,0-.03l-.04-.12s-.02-.05-.04-.07l-.07-.07-.11-.1s-.05-.04-.08-.05l-.51-.14s-.01,0-.02,0l-.09-.02s-.04,0-.06,0l-.15.03s-.03,0-.05.01l-.1.05s-.02.01-.03.02l-.29.22-.03-.19s0-.02,0-.03l-.04-.12s-.02-.05-.04-.07l-.07-.07-.11-.1s-.05-.04-.08-.05l-.51-.14s-.01,0-.02,0l-.09-.02s-.04,0-.06,0l-.15.03s-.03,0-.05.01l-.1.05s-.02.01-.03.02l-.29.22-.03-.19s0-.02,0-.03l-.04-.12s-.02-.05-.04-.07l-.07-.07-.11-.1s-.05-.04-.08-.05l-.5-.14s-.01,0-.02,0l-.09-.02s-.04,0-.06,0l-.15.03s-.03,0-.05.01l-.1.05s-.02.01-.03.02l-.29.22-.03-.18s0-.02,0-.03l-.04-.12s-.02-.05-.04-.07l-.07-.07-.11-.1s-.05-.04-.08-.05l-.5-.14s-.01,0-.02,0l-.09-.02s-.04,0-.06,0l-.15.03s-.03,0-.05.01l-.1.05s-.02.01-.03.02l-.29.22-.03-.18s0-.02,0-.03l-.04-.12s-.02-.05-.04-.07l-.07-.07-.11-.1s-.05-.04-.08-.05l-.5-.14s-.01,0-.02,0l-.09-.02s-.04,0-.06,0l-.15.03s-.03,0-.05.01l-.1.05s-.02.01-.03.02l-.29.22-.03-.18s0-.02,0-.03l-.04-.12s-.02-.05-.04-.07l-.07-.07-.11-.1s-.05-.04-.08-.05l-.5-.14s-.01,0-.02,0l-.09-.02s-.04,0-.06,0l-.15.03s-.03,0-.05.01l-.1.05s-.02.01-.03.02l-.29.22-.02-.18s0-.02,0-.03l-.04-.12s-.02-.05-.04-.07l-.07-.07-.11-.1s-.05-.04-.08-.05l-.5-.14s-.01,0-.02,0l-.09-.02s-.04,0-.06,0l-.15.03s-.03,0-.05.01l-.1.05s-.02.01-.03.02l-.29.22-.02-.18s0-.02,0-.03l-.04-.12s-.02-.05-.04-.07l-.18-.18s-.05-.04-.08-.05l-.5-.14s-.01,0-.02,0l-.09-.02s-.04,0-.06,0l-.15.03s-.03,0-.05.01l-.1.05s-.02.01-.03.02l-.28.21-.02-.18s0-.02,0-.03l-.04-.12s-.02-.05-.04-.07l-.07-.07-.11-.1s-.05-.04-.08-.05l-.5-.14s-.01,0-.02,0l-.09-.02s-.04,0-.06,0l-.15.03s-.03,0-.05.01l-.1.05s-.02.01-.03.02l-.28.21-.02-.18s0-.02,0-.03l-.04-.12s-.02-.05-.04-.07l-.18-.18s-.05-.04-.08-.05l-.5-.14s-.01,0-.02,0l-.09-.02s-.04,0-.06,0l-.15.03s-.03,0-.05.01l-.1.05s-.02.01-.03.02l-.28.21-.02-.18s0-.02,0-.03l-.04-.12s-.02-.05-.04-.07l-.18-.18s-.05-.04-.08-.05l-.5-.14s-.01,0-.02,0l-.09-.02s-.04,0-.06,0l-.15.03s-.03,0-.05.01l-.1.05s-.02.01-.03.02l-.28.21-.02-.17s0-.02,0-.03l-.04-.12s-.02-.05-.04-.07l-.18-.18s-.05-.04-.08-.05l-.5-.14s-.01,0-.02,0l-.09-.02s-.04,0-.06,0l-.15.03s-.03,0-.04.01l-.1.05s-.02.01-.03.02l-.28.21-.02-.17s0-.02,0-.03l-.04-.12s-.02-.05-.04-.07l-.18-.18s-.05-.04-.08-.05l-.5-.14s-.01,0-.02,0l-.09-.02s-.04,0-.06,0l-.15.03s-.03,0-.05.01l-.1.05s-.02.01-.03.02l-.28.21-.02-.17s0-.02,0-.03l-.04-.12s-.02-.05-.04-.07l-.18-.18s-.05-.04-.08-.05l-.5-.14s-.01,0-.02,0l-.09-.02s-.04,0-.06,0l-.15.03s-.03,0-.04.01l-.1.05s-.02.01-.03.02l-.28.21-.02-.17s0-.02,0-.03l-.04-.12s-.02-.05-.04-.07l-.18-.18s-.05-.04-.08-.05l-.5-.14s-.01,0-.02,0l-.09-.02s-.04,0-.06,0l-.15.03s-.03,0-.04.01l-.1.05s-.02.01-.03.02l-.28.21-.02-.17s0-.02,0-.03l-.04-.12s-.02-.05-.04-.07l-.18-.17s-.05-.04-.08-.05l-.5-.14s-.01,0-.02,0l-.09-.02s-.04,0-.06,0l-.15.03s-.03,0-.04.01l-.1.05s-.02.01-.03.02l-.28.21-.02-.17s0-.02,0-.03l-.04-.12s-.02-.05-.04-.07l-.18-.17s-.05-.04-.08-.05l-.5-.14s-.01,0-.02,0l-.09-.02s-.04,0-.06,0l-.15.03s-.03,0-.04.01l-.1.05s-.02.01-.03.02l-.28.2-.02-.17s0-.02,0-.03l-.04-.12s-.02-.05-.04-.07l-.18-.17s-.05-.04-.08-.05l-.5-.14s-.01,0-.02,0l-.09-.02s-.04,0-.06,0l-.15.03s-.03,0-.04.01l-.1.05s-.02.01-.03.02l-.27.2-.02-.17s0-.02,0-.03l-.04-.12s-.02-.05-.04-.07l-.18-.17s-.05-.04-.08-.05l-.5-.14s-.01,0-.02,0l-.09-.02s-.04,0-.07,0l-.15.03s-.03,0-.04.01l-.1.05s-.02.01-.03.02l-.27.2-.02-.16s0-.02,0-.03l-.04-.12s-.02-.05-.04-.07l-.18-.17s-.05-.04-.08-.05l-.5-.14s-.01,0-.02,0l-.09-.02s-.04,0-.07,0l-.15.03s-.03,0-.04.01l-.1.05s-.02.01-.03.02l-.27.2-.02-.16s0-.02,0-.03l-.04-.12s-.02-.05-.04-.07l-.18-.17s-.05-.04-.08-.05l-.5-.14s-.01,0-.02,0l-.09-.02s-.04,0-.07,0l-.15.03s-.03,0-.04.01l-.1.05s-.02.01-.03.02l-.27.2-.02-.16s0-.02,0-.03l-.04-.12s-.02-.05-.04-.07l-.18-.17s-.05-.04-.08-.05l-.5-.14s-.01,0-.02,0l-.09-.02s-.04,0-.07,0l-.15.03s-.03,0-.04.01l-.1.05s-.02.01-.03.02l-.27.2-.02-.16s0-.02,0-.03l-.04-.12s-.02-.05-.04-.07l-.18-.17s-.04-.03-.07-.04v-.03s0-.01,0-.02l-.04-.31s-.01-.06-.03-.08l-.55-.85s0-.01-.01-.02l-.18-.23s-.01-.01-.02-.02l-1.13-1.02s-.01-.01-.02-.01l-1.79-1.24s0,0-.01,0l-2.14-1.26s0,0-.01,0l-2.16-1.05s0,0-.01,0l-2.23-.86s0,0-.01,0l-2.33-.68s0,0-.01,0l-2.47-.52s0,0-.01,0l-2.65-.37-2.91-.24-3.08-.12-3.37-.02-4.11.08-1.17.04-.13-.12s-.05-.04-.08-.05l-.49-.13s-.01,0-.02,0l-.1-.02s-.04,0-.07,0l-.15.03s-.03,0-.04.01l-.1.05s-.02.01-.03.02l-.25.18-.02-.13s0-.02,0-.03l-.04-.12s-.03-.05-.05-.07l-.17-.17s-.05-.04-.08-.05l-.49-.13s-.01,0-.02,0l-.1-.02s-.04,0-.07,0l-.15.03s-.03,0-.04.01l-.1.04s-.02.01-.03.02l-.25.18-.02-.13s0-.02,0-.03l-.04-.12s-.03-.05-.05-.07l-.17-.17s-.05-.04-.08-.05l-.49-.13s-.01,0-.02,0l-.1-.02s-.04,0-.07,0l-.15.03s-.03,0-.04.01l-.1.04s-.02.01-.03.02l-.25.18-.02-.13s0-.02,0-.03l-.04-.12s-.03-.05-.05-.07l-.17-.17s-.05-.04-.08-.05l-.49-.13s-.01,0-.02,0l-.1-.02s-.04,0-.07,0l-.15.03s0,0-.01,0l-.04-.03-.04-.32s-.01-.05-.03-.08l-.53-.88s-.04-.05-.07-.07l-.83-.49s-.02-.01-.04-.02l-.09-.03s-.02,0-.03,0l-.99-.15s-.03,0-.04,0l-1.08.08s-.02,0-.02,0l-1.15.23-1.21.32-2.42.71-1.11.29-.99.19-.28.02-.03-.1s-.03-.06-.06-.08l-.09-.07s-.06-.04-.09-.04l-.11-.02s-.07,0-.1,0l-.14.05s-.06.03-.08.05l-.07.08s-.02.03-.03.05l-.03.07s0,0,0,.01l-1.98-.11-2.09-.17-.29-.03-.76-.18-1.19-.29-1.1-.25-1.01-.19s0,0-.01,0l-.89-.1s-.02,0-.03,0l-.79.03s-.04,0-.06.01l-.58.21-1.04-.13-1.25-.15-1.83-.18-1.94-.14-2.1-.09-2.3-.03-2.55.04-2.5.12-2.25.2-2.01.27-1.78.34s0,0-.01,0l-1.54.41-.23.07-1.35.48s-.01,0-.02,0l-1.12.54s-.01,0-.02.01l-.91.6s-.02.01-.02.02l-.7.65s-.01.01-.02.02l-.18.23-.51.71s-.02.02-.02.04l-.31.75s0,.03-.01.04l-.13.8-.03.31s0,.02,0,.03l.05.93s0,.02,0,.03l.19.85s0,.01,0,.02l.27.79.3.75.25.69.15.66v.55s-.12.51-.12.51l-.42.75-.66.77-1.03.89-1.15.81-.61-.17s-.02,0-.03,0l-.16-.02s-.05,0-.07,0h-.04s-1.15-.32-1.15-.32c-.02,0-.03,0-.05,0h-.29s-.04,0-.06,0l-1.85.55-.97-.28-.04-.67s0-.02,0-.03l-.05-.19s-.01-.04-.02-.05l-.06-.1s-.01-.02-.02-.03l-.07-.08s-.02-.02-.03-.02l-.08-.06s-.01-.01-.02-.01l-.18-.1s-.03-.01-.04-.02l-3.47-.99s-.03,0-.05,0h-.29s-.04,0-.06,0l-2.29.68-.43-.07s-.01,0-.02,0h-.22s-.02-.01-.02-.01h-.19s-.02.01-.03.02l-.17.04s-.02,0-.03,0c0,0-.01,0-.02,0l-.14.06s0,0-.01,0l-12.49,6.17s-.01,0-.02.01L1.12,25.52s0,0-.01.01l-.18.15-.39.33s-.02.02-.03.03l-.14.19s-.02.03-.03.05l-.06.18s0,.02,0,.04l-.05.36L0,28.72c0,.05,0,.1.04.14l.04.05s-.01.03-.01.04l-.05.42s0,.04,0,.06ZM18.25,34.56l.73.13s.02,0,.03,0h1s.02,0,.03-.01l.74-.14-.08.03-.78.14h-.83s-.76-.13-.76-.13l-.09-.02ZM.41,29.29s.02.01.03.02l.04.02-.05.05-.02-.02v-.06ZM29.39,15.58l-1.67-.34s-.02,0-.03,0h-.06s-.02,0-.03,0h-.06s-.02.01-.02.02l-.06.02s-.02,0-.02,0l-.05.02-3.11,1.55h-.04s-.06.02-.06.02h-.08s-.07-.02-.07-.02l-3.8-1.09.19-.52.09-.16.1-.09.07-.04.17-.07,4.53-1.34h.25s3.43.98,3.43.98l.15.08.05.04.05.05.04.06.04.14.04.67ZM36.36,16.61l.15.08.05.04.05.05.04.06.03.14.04.68-1.66-.34s-.02,0-.03,0h-.06s-.02,0-.03,0h-.05s-.02.01-.03.02l-.05.02s-.02,0-.03.01l-.5.25-2.65,1.33h-.04s-.06.02-.06.02h-.08s-.08-.02-.08-.02l-3.82-1.09.19-.52.09-.16.1-.09.07-.04.17-.07,4.51-1.35h.25s3.44.98,3.44.98ZM72.25,1.93h0s0,0,0,0l.47.11,1.33.28,1.37.24,1.4.17.02.16.06.52.02.22-.2-.02-1.43-.17-1.41-.24-1.35-.29-1.28-.3-1.19-.29-1.07-.25-.93-.18s0,0-.01,0l-.75-.09s-.02,0-.03,0h-.31s-.07,0-.07,0c0,0-.01,0-.02,0l-.84-.07s-.02,0-.03,0h-.02s-.53.07-.53.07v-.09s.42-.46.42-.46l.1-.08.6-.21.75-.03.87.1.99.19,1.09.25,1.98.47ZM76.76,2.34h-.04s-1.33-.17-1.33-.17l1.35.07.02.1ZM77.78,4.1h.23s.2.03.2.03l1.25.16,1.49.21s0,0-.01,0l-.73.52h-.2s-1.53-.07-1.53-.07h-.65s-.02-.48-.02-.48l-.03-.37ZM82.46,4.72l.73.1,1.09.12h.09s-.32.23-.32.23l-1.6-.44ZM77.64,2.81l.59.06,1.8.24,2.15.31,1.15.15,1.04.11.92.05s0,0,.01,0c0,0,0,0,0,0l.75-.02s.02,0,.03,0h.03s-1.24.88-1.24.88l-.56-.03-1.08-.11-1.71-.23-2.03-.29-1.45-.18-.31-.03-.04-.45-.05-.44ZM86.85,2.19l.06.64-.35-.02s-.02,0-.02,0l-.77.06s0,0-.01,0l-.91.14-1.09.22-.37-.04-1.15-.15-1.05-.15.15-.03,2.33-.5,1.05-.21.96-.15.87-.07h.16s.14.25.14.25ZM85.64,1.63s0,0-.01,0l-.97.15-1.06.21-.62.13.93-.25,1.03-.2.86-.07h.04s-.19.02-.19.02ZM86.56,3.24l-.52.09-.73.02h-.13s.63-.1.63-.1l.75-.06h.11s-.11.05-.11.05ZM88.03,1.8l.06.5-.79.56-.08-.75s-.01-.05-.02-.08l-.24-.42s-.04-.05-.07-.07l-.42-.23-.03.05v-.05s-.61-.08-.61-.08c-.01,0-.03,0-.04,0l-.89.07s-.01,0-.02,0l-1.05.21-1.16.31-2.42.71-.54.14-.15-.02-1.25-.16-.69-.07v-.08s-.03-.14-.03-.14h.24s.02-.02.02-.02l1-.19s0,0,.01,0l1.13-.3,2.42-.71,1.2-.32,1.13-.22,1.05-.08.96.14.06.02.77.45.49.81ZM89.34,3.01l-3.66,2.6-1.15-.32,4-2.83.05-.02.09-.02h.05s.43.13.43.13l.11.1.02.06.05.3ZM90.95,3.46l-3.65,2.6-1.15-.32,3.98-2.83.07-.03.09-.02h.05s.43.13.43.13l.1.1.02.06.05.3ZM92.57,3.91l-3.65,2.6-1.15-.32,3.98-2.83.07-.03.09-.02h.05s.43.13.43.13l.1.1.02.06.05.3ZM94.19,4.36l-3.65,2.6-1.16-.32,3.98-2.84.07-.03.09-.02h.05s.43.13.43.13l.1.1.02.06.05.31ZM120.45,15.26l3.94-2.89.06-.03.09-.02h.05s.44.13.44.13l.1.1.02.06.05.34-3.58,2.63-1.19-.33ZM108.81,5.54l2.48.35,2.35.49,2.22.65,2.13.82,2.09,1.02,2.09,1.23,1.74,1.21.71.65h-.05s-.04-.01-.07,0l-.15.03s-.03,0-.04.01l-.1.05s-.02.01-.03.02l-.27.2-.02-.16s0-.02,0-.03l-.04-.12s-.02-.05-.04-.07l-.18-.17s-.05-.04-.08-.05l-.5-.14s-.01,0-.02,0l-.09-.02s-.04,0-.07,0l-.15.03s-.03,0-.04.01l-.1.05s-.02.01-.03.02l-.27.2-.02-.16s0-.02,0-.03l-.04-.12s-.02-.05-.04-.07l-.18-.17s-.05-.04-.08-.05l-.49-.14s-.01,0-.02,0l-.09-.02s-.04,0-.07,0l-.15.03s-.03,0-.04.01l-.1.05s-.02.01-.03.02l-.27.2-.02-.15s0-.02,0-.03l-.04-.12s-.02-.05-.04-.07l-.18-.17s-.05-.04-.08-.05l-.49-.14s-.01,0-.02,0l-.09-.02s-.04,0-.07,0l-.15.03s-.03,0-.04.01l-.1.05s-.02.01-.03.02l-.27.19-.02-.15s0-.02,0-.03l-.04-.12s-.02-.05-.05-.07l-.18-.17s-.05-.04-.08-.05l-.49-.14s-.01,0-.02,0l-.1-.02s-.04,0-.07,0l-.15.03s-.03,0-.04.01l-.1.05s-.02.01-.03.02l-.27.19-.02-.15s0-.02,0-.03l-.04-.12s-.02-.05-.05-.07l-.18-.17s-.05-.04-.08-.05l-.49-.14s-.01,0-.02,0l-.1-.02s-.04,0-.07,0l-.15.03s-.03,0-.04.01l-.1.05s-.02.01-.03.02l-.26.19-.02-.15s0-.02,0-.03l-.04-.12s-.02-.05-.05-.07l-.18-.17s-.05-.04-.08-.05l-.49-.14s-.01,0-.02,0l-.1-.02s-.04,0-.07,0l-.15.03s-.03,0-.04.01l-.1.05s-.02.01-.03.02l-.26.19-.02-.15s0-.02,0-.03l-.04-.12s-.02-.05-.05-.07l-.18-.17s-.05-.04-.08-.05l-.49-.14s-.01,0-.02,0l-.1-.02s-.04,0-.07,0l-.15.03s-.03,0-.04.01l-.1.05s-.02.01-.03.02l-.26.19-.02-.15s0-.02,0-.03l-.04-.12s-.02-.05-.05-.07l-.18-.17s-.05-.04-.08-.05l-.49-.14s-.01,0-.02,0l-.1-.02s-.04,0-.07,0l-.15.03s-.03,0-.04.01l-.1.05s-.02.01-.03.02l-.26.19-.02-.15s0-.02,0-.03l-.04-.12s-.02-.05-.05-.07l-.18-.17s-.05-.04-.08-.05l-.49-.14s-.01,0-.02,0l-.1-.02s-.04,0-.07,0l-.15.03s-.03,0-.04.01l-.1.05s-.02.01-.03.02l-.26.19-.02-.15s0-.02,0-.03l-.04-.12s-.02-.05-.05-.07l-.18-.17s-.05-.04-.08-.05l-.49-.14s-.01,0-.02,0l-.1-.02s-.04,0-.07,0l-.15.03s-.03,0-.04.01l-.1.05s-.02.01-.03.02l-.26.19-.02-.15s0-.02,0-.03l-.04-.12s-.02-.05-.05-.07l-.17-.17s-.05-.04-.08-.05l-.49-.14s-.01,0-.02,0l-.1-.02s-.04,0-.07,0l-.15.03s-.03,0-.04.01l-.1.05s-.02.01-.03.02l-.26.19-.02-.14s0-.02,0-.03l-.04-.12s-.02-.05-.05-.07l-.18-.17s-.05-.04-.08-.05l-.49-.14s-.01,0-.02,0l-.1-.02s-.04,0-.07,0l-.15.03s-.03,0-.04.01l-.1.05s-.02.01-.03.02l-.26.19-.02-.14s0-.02,0-.03l-.04-.12s-.02-.05-.05-.07l-.17-.17s-.05-.04-.08-.05l-.49-.14s-.01,0-.02,0l-.1-.02s-.04,0-.07,0l-.15.03s-.03,0-.04.01l-.1.05s-.02.01-.03.02l-.26.19-.02-.14s0-.02,0-.03l-.04-.12s-.02-.05-.05-.07l-.17-.17s-.05-.04-.08-.05l-.49-.14s-.01,0-.02,0l-.1-.02s-.04,0-.07,0l-.15.03s-.03,0-.04.01l-.1.05s-.02.01-.03.02l-.26.18-.02-.14s0-.02,0-.03l-.04-.12s-.02-.05-.05-.07l-.17-.17s-.05-.04-.08-.05l-.49-.14s-.01,0-.02,0h-.07s2.93,0,2.93,0l3.01.12,2.8.23ZM99.37,5.29l-.04-.11h.32s.32,0,.32,0l-.13.02s-.03,0-.04.01l-.1.05s-.02.01-.03.02l-.26.18-.02-.14s0-.02,0-.03ZM118.8,14.81l3.94-2.89.06-.03.09-.02h.05s.44.13.44.13l.1.1.02.06.05.34-3.58,2.63-1.18-.33ZM117.16,14.35l.6-.44s.01,0,.01,0l3.33-2.44.06-.03.09-.02h.05s.44.13.44.13l.1.1.02.06.05.34-3.58,2.63-1.18-.33ZM115.51,13.89l2.03-1.48s0,0,0,0l1.92-1.4.06-.03.09-.02h.05s.44.13.44.13l.1.1.02.06.05.33-2.74,2s-.01,0-.01,0l-.84.61-1.18-.33ZM113.87,13.44l3.95-2.88.06-.03.09-.02h.05s.44.13.44.13l.1.1.02.06.05.33-1.32.96s0,0,0,0l-2.27,1.66-1.18-.33ZM112.23,12.98l3.95-2.88.06-.03.09-.02h.05s.44.13.44.13l.1.1.02.06.05.33-3.6,2.62-1.18-.33ZM110.59,12.53l3.95-2.87.06-.03.09-.02h.05s.44.13.44.13l.1.1.02.06.05.33-3.6,2.62-1.18-.33ZM108.95,12.07l3.95-2.87.06-.03.09-.02h.05s.44.13.44.13l.1.1.02.06.05.33-3.6,2.62-1.17-.33ZM107.31,11.62l3.96-2.87.06-.03.09-.02h.05s.44.13.44.13l.1.1.02.06.05.33-3.61,2.62-1.17-.33ZM105.67,11.16l3.96-2.87.07-.03.09-.02h.05s.44.13.44.13l.1.1.02.06.05.32-3.61,2.62-1.17-.33ZM104.04,10.71l3.96-2.86.07-.03.09-.02h.05s.44.13.44.13l.1.1.02.06.05.32-3.61,2.62-1.17-.32ZM102.41,10.25l3.96-2.86.07-.03.09-.02h.05s.44.13.44.13l.1.1.02.06.05.32-3.62,2.62-1.17-.32ZM100.77,9.8l3.96-2.86.07-.03.09-.02h.05s.43.13.43.13l.1.1.02.06.05.32-3.62,2.61-1.17-.32ZM99.14,9.35l3.97-2.85.07-.03.09-.02h.05s.43.13.43.13l.1.1.02.06.05.32-3.62,2.61-1.16-.32ZM97.51,8.89l3.97-2.85.07-.03.09-.02h.05s.43.13.43.13l.1.1.02.06.05.31-3.63,2.61-1.16-.32ZM95.89,8.44l3.97-2.85.07-.03.09-.02h.05s.43.13.43.13l.1.1.02.06.05.31-3.63,2.61-1.16-.32ZM94.26,7.99l3.97-2.85.07-.03.09-.02h.05s.43.13.43.13l.1.1.02.06.05.31-3.63,2.61-1.16-.32ZM92.63,7.54l3.97-2.84.07-.03.09-.02h.05s.43.13.43.13l.1.1.02.06.05.31-3.64,2.61-1.16-.32ZM91.01,7.09l3.98-2.84.07-.03.09-.02h.05s.43.13.43.13l.1.1.02.06.05.31-3.64,2.61-1.16-.32ZM94.53,4.07h.06s-.05.04-.05.04v-.04ZM126.44,12.3l.02.16-.12-.03s-.01,0-.02,0l-.09-.02s-.04,0-.07,0l-.15.03s-.03,0-.04.01l-.1.05s-.02.01-.03.02l-.21.16v-.27s-.13,0-.13,0h0s-.02-.06-.04-.08l-.05-.04-.3-.46-.03.02-.91-.82s-.01-.01-.02-.01l-1.75-1.22s0,0-.01,0l-2.1-1.23s0,0-.01,0l-2.1-1.02s0,0-.01,0l-2.15-.83s0,0-.01,0l-2.24-.65s0,0-.01,0l-2.37-.5s0,0-.01,0l-2.54-.36-2.77-.23-.02.18v-.18s-3.01-.12-3.01-.12l-3.36-.02h-.87s-.24-.05-.24-.05c0,0-.01,0-.02,0l-.1-.02s-.04,0-.07,0l-.15.03s-.03,0-.04.01l-.1.05s-.02,0-.03.01h-.3s-.04-.1-.04-.1c0-.03-.03-.05-.05-.07l-.17-.17s-.05-.04-.08-.05l-.49-.14s-.01,0-.02,0l-.1-.02s-.04,0-.07,0l-.15.03s-.03,0-.04.01l-.1.05s-.02.01-.03.02l-.25.18-.02-.14s0-.02,0-.03l-.04-.12s-.02-.05-.05-.07l-.17-.17h.08s3.7-.07,3.7-.07l3.36.02,3.1.12,2.85.24,2.63.37,2.46.52,2.32.68,2.21.85,2.15,1.04,2.13,1.25,1.77,1.23,1.11,1,.17.21.52.8ZM126.86,13.42l-3.57,2.63-1.19-.33,3.94-2.9.06-.03.09-.02h.05s.44.13.44.13l.1.1.02.06.05.34ZM128.51,13.88l-3.57,2.63-1.19-.33,3.93-2.9.06-.03.09-.02h.05s.44.13.44.13l.1.1.02.06.05.34ZM130.16,14.34l-2.76,2.04s0,0,0,0l-.8.59-1.19-.33,3.93-2.9.06-.03.09-.02h.05s.44.13.44.13l.1.1.02.06.05.35ZM131.81,14.79l-3.56,2.64-1.19-.33.57-.42s0,0,0,0l3.36-2.48.06-.03.1-.02h.05s.44.13.44.13l.1.1.02.06.05.35ZM133.46,15.25l-3.56,2.64-1.2-.33,3.93-2.91.06-.03.09-.02h.05s.44.13.44.13l.1.1.02.06.05.35ZM135.12,15.71l-3.55,2.64-1.2-.33,3.92-2.91.06-.03.1-.02h.05s.44.13.44.13l.1.1.02.06.05.35ZM136.77,16.17l-3.55,2.64-1.2-.33,3.92-2.91.06-.03.09-.02h.05s.44.13.44.13l.1.1.02.06.05.35ZM138.43,16.63l-3.54,2.64-1.2-.33,3.92-2.91.06-.03.1-.02h.05s.44.13.44.13l.1.1.02.06.05.36ZM140.09,17.09l-3.54,2.64-1.2-.33,3.91-2.92.06-.03.1-.02h.05s.44.13.44.13l.1.1.02.06.05.36ZM141.75,17.55l-2.78,2.08s0,0-.01,0l-.75.56-1.2-.33,3.91-2.92.06-.03.1-.02h.05s.44.13.44.13l.1.1.02.06.05.36ZM143.41,18.01l-3.53,2.64-1.21-.33.51-.38s0,0,.01,0l3.39-2.53.06-.03.1-.02h.05s.44.13.44.13l.1.1.02.06.05.36ZM145.07,18.47l-3.53,2.64-1.21-.33,3.91-2.92.06-.03.1-.02h.05s.45.13.45.13l.1.1.02.06.05.36ZM146.73,18.94l-3.52,2.65-1.21-.34,3.9-2.93.06-.03.1-.02h.05s.45.13.45.13l.1.1.02.06.05.37ZM148.4,19.4l-3.52,2.65-.64-.18-.07.18.05-.18-.55-.15,3.9-2.93.06-.03.1-.02h.05s.45.13.45.13l.1.1.02.06.05.37ZM150.07,19.86l-3.51,2.65-1.21-.34,3.9-2.93.06-.03.1-.02h.05s.45.13.45.13l.1.1.02.07.05.37ZM151.73,20.32l-3.51,2.65-1.21-.34,3.9-2.93.06-.03.1-.02h.05s.45.13.45.13l.1.1.02.06.05.37ZM153.4,20.79l-3.5,2.65-1.22-.34,3.89-2.94.06-.03.1-.02h.05s.45.13.45.13l.1.1.02.07.05.37ZM155.07,21.25l-3.5,2.65-1.22-.34,3.89-2.94.06-.03.1-.02h.05s.45.13.45.13l.1.1.02.07.05.38ZM156.75,21.72l-3.5,2.65-1.22-.34,3.89-2.94.06-.03.1-.02h.05s.45.13.45.13l.1.1.02.07.05.38ZM158.42,22.18l-3.49,2.65-1.22-.34,3.88-2.94.06-.03.1-.02h.05s.45.13.45.13l.1.1.02.07.05.38ZM160.1,22.64l-3.49,2.65-1.22-.34,3.88-2.95.06-.03.1-.02h.05s.45.13.45.13l.1.1.02.07.05.38ZM161.77,23.11l-3.48,2.65-1.22-.34,3.88-2.95.06-.03.1-.02h.05s.45.13.45.13l.1.1.02.07.05.38ZM163.45,23.58l-3.48,2.65-1.23-.34,3.88-2.95.06-.03.1-.02h.05s.45.13.45.13l.1.1.02.07.05.39ZM165.13,24.04l-3.47,2.66-1.23-.34,3.87-2.96.06-.03.1-.02h.05s.45.13.45.13l.1.1.02.07.05.39ZM166.81,24.51l-3.47,2.66-1.23-.34,3.87-2.96.06-.03.1-.02h.05s.45.13.45.13l.1.1.02.07.05.39ZM168.5,24.98l-3.46,2.66-1.23-.34,3.87-2.96.06-.03.1-.02h.05s.45.13.45.13l.1.1.02.07.05.39ZM170.18,25.44l-3.46,2.66-1.23-.34.42-.32,3.44-2.64.06-.03.1-.02h.05s.45.13.45.13l.1.1.02.07.05.4ZM171.86,25.91l-3.46,2.66-1.24-.34,3.86-2.97.06-.03.1-.02h.05s.45.13.45.13l.1.1.02.07.05.4ZM173.55,26.38l-3.45,2.66-1.24-.34,3.86-2.97.06-.03.1-.02h.05s.45.13.45.13l.1.1.02.07.05.4ZM175.24,26.85l-3.45,2.66-1.24-.34,3.86-2.97.06-.03.1-.02h.05s.45.13.45.13l.1.1.02.07.05.4ZM176.93,27.32l-3.44,2.66-1.24-.34,3.85-2.97.06-.03.1-.02h.05s.45.13.45.13l.1.1.02.07.05.4ZM178.62,27.79l-3.44,2.66-1.24-.34,3.85-2.98.06-.03.1-.02h.05s.45.13.45.13l.1.1.02.07.05.41ZM180.31,28.26l-3.43,2.66-1.24-.35,3.85-2.98.06-.03.1-.02h.05s.45.13.45.13l.1.1.02.07.05.41ZM182.01,28.73l-3.43,2.66-1.25-.35,3.84-2.98.06-.03.1-.02h.05s.46.13.46.13l.1.1.02.07.05.41ZM183.71,29.2l-3.42,2.67-1.25-.35,3.84-2.98.06-.03.1-.02h.05s.46.13.46.13l.1.1.02.07.05.41ZM185.4,29.67l-3.42,2.67-1.25-.35,3.84-2.99.06-.03.1-.02h.05s.46.13.46.13l.1.1.02.07.05.42ZM187.1,30.14l-3.41,2.67-1.25-.35,3.83-2.99.06-.03.1-.02h.05s.46.13.46.13l.1.1.02.07.05.42ZM188.8,30.61l-3.41,2.67-1.25-.35,3.83-2.99.06-.03.1-.02h.05s.46.13.46.13l.1.1.02.07.05.42ZM190.5,31.09l-3.41,2.67-1.25-.35,3.83-3,.06-.03.1-.02h.05s.46.13.46.13l.1.1.02.07.05.42ZM192.21,31.56l-3.4,2.67-1.26-.35,3.83-3,.06-.03.1-.02h.05s.46.13.46.13l.1.1.02.07.05.42ZM193.91,32.03l-3.4,2.67-1.26-.35,3.82-3,.06-.03.1-.02h.05s.46.13.46.13l.1.1.02.07.05.43ZM195.62,32.51l-3.39,2.67-1.26-.35,3.82-3,.06-.03.1-.02h.05s.46.13.46.13l.1.1.02.07.05.43ZM197.33,32.98l-3.39,2.67-1.26-.35,3.82-3.01.06-.03.1-.02h.05s.46.13.46.13l.1.1.02.07.05.43ZM199.03,33.46l-3.38,2.67-1.26-.35,3.81-3.01.06-.03.1-.02h.05s.46.13.46.13l.1.1.02.07.05.43ZM200.75,33.93l-3.38,2.67-1.27-.35,3.81-3.01.06-.03.1-.02h.05s.46.13.46.13l.1.1.02.07.05.44ZM202.46,34.41l-3.37,2.67-1.27-.35,3.81-3.01.06-.03.1-.02h.05s.46.13.46.13l.1.1.02.07.05.44ZM204.17,34.88l-3.37,2.68-1.27-.35,3.8-3.02.06-.03.1-.02h.05s.46.14.46.14l.1.1.02.07.05.44ZM205.89,35.36l-3.36,2.68-1.27-.35,3.8-3.02.06-.03.1-.02h.05s.46.14.46.14l.1.1.02.07.05.44ZM207.6,35.84l-3.36,2.68-1.27-.35,3.8-3.02.06-.03.1-.02h.05s.46.14.46.14l.1.1.02.07.05.45ZM209.32,36.31l-3.35,2.68-1.27-.35,3.8-3.02.06-.03.1-.02h.05s.46.14.46.14l.1.1.02.07.05.45ZM211.04,36.79l-3.35,2.68-1.28-.35,3.79-3.03.06-.03.1-.02h.05s.46.14.46.14l.1.1.02.07.05.45ZM212.1,52.75l-13.72,11.14.29-.93,14.08-11.42-.46.95-.19.26ZM197.68,64.46l-22.52,18.28.38-1.33,2.13-2.49,7.97-6.46v.04s0,.09.02.13v.02s.17-.1.17-.1l.07.17h.03s.03-.03.05-.04l2.41-1.93.23.07s.02,0,.03,0h.15s0,0,.01,0c.02,0,.05,0,.07-.01l.19-.08s.03-.02.04-.03l8.95-7.26-.25.81-.12.19ZM187.42,70.45l-2.12,1.7-5.98,4.84,5.41-6.33,2.33-2.73.2,2.34s0,.04.02.06l.02.04.17-.08-.05.16ZM172.7,84.74l2.15-2.52-.25.88-.12.2-1.79,1.45ZM29.61,56.77l-.02-.06.1.04s.01,0,.02,0l131.39,38.79s0,0,.01,0l.29.06s.02,0,.03,0l.3.02s0,0,.01,0c.01,0,.02,0,.03,0l.23-.04s.02,0,.02,0l.2-.06s.07-.03.09-.06l25.11-30.62,1.14,2.99s.01.03.03.05l.02.02.15-.11-.05.18h.03s.03.01.05.01c.03,0,.05,0,.08-.02h.03s.03-.03.04-.04l27.49-22.24-.06,2.26-.02.08-.12.17-.07.08-27.28,22.12-.11.05h-.09s-.04-.02-.04-.02l-1.02-.3-.22-2.61.06-.05-.16-.19-.03-.11h0s.03.11.03.11l-.08-.09-.05.04h-.01s-.09.09-.09.09l-2.64,3.09-.18.21h0s-21.4,25.06-21.4,25.06l-.37.32-.12.06-.24.03h-.25s-.25-.03-.25-.03L30.29,57.28l-.22-.09-.4-.3-.06-.11ZM35.85,49.27l.54-.62-.07.28-.33.37-.14-.04ZM37.41,45.92l.14-.21,5.16-4.88.16-.07h.22s.26.05.26.05l.73.27.64.21.64.17.74.15.05.02-5.17,4.91s-.05.07-.06.11l-.61,3.94-3.73-1.09.83-3.56ZM73,36.06l.58.17h.01s-.14.17-.14.17l-.38-.11-.07-.23ZM72.91,37.02l-3.04,3.54-.73-2.19-.06-.17s-.03-.06-.06-.08l-.09-.07s-.03-.02-.04-.02l-.19-.09s-.03-.01-.04-.01l-.75-.16-.75-.2-.5-.16-.43-.15.37-1.65.08-.18.04-.07,1.71-2,.16-.11.21-.04.23.03.76.27.65.2.64.17.73.16.15.07.03.02.04.11.88,2.78ZM44.01,38.9l.13-.22,1.78-1.53.17-.08.22-.02.24.05.75.28.64.2.64.17.74.15.13.05.03.03.04.1.43,1.2-.77.66s-.02.02-.03.04l-.07.1s0,0,0,.01l-.1.17s-.02.04-.02.06l-.38,1.61-.12-.03s-.04,0-.05,0l-.28.02s-.04,0-.06.02l-.22.09s-.03.01-.04.02l-.84.64-.3-1.04s0-.02,0-.03l-.06-.13s-.02-.03-.03-.05l-.08-.09s-.05-.04-.07-.05l-.19-.07s-.02,0-.03,0l-.75-.15-.62-.16-.62-.2-.57-.21.38-1.61ZM46.23,41.65l.03.04v.02s-.05-.07-.05-.07h.02ZM48.61,46.96l-.06-.12s-.01-.03-.02-.04l-.08-.1s-.05-.05-.08-.06l-.19-.07s-.02,0-.03,0l-.75-.15-.62-.16-.63-.2-.55-.21.47-1.89.14-.2,1.79-1.38.17-.07h.22s.25.05.25.05l.74.28.65.21.64.17.75.15.13.05.03.04.04.09.34,1.18-.66.51s-.03.03-.04.04l-.07.1-.11.17s-.02.04-.02.06l-.48,1.9-.17-.04s-.03,0-.05,0h-.28s-.04.02-.06.02l-.22.09s-.03.01-.04.02l-.86.62-.27-.99s0-.02-.01-.03ZM54.53,48.51l-1.21-.36-1.52-.47-.87-.29.47-1.89.14-.2,1.79-1.38.17-.07h.22s.25.04.25.04l.75.28.65.21.64.17.75.15.13.05.03.04.04.09.34,1.19-.66.51s-.03.02-.04.04l-.07.1-.11.17s-.02.04-.02.06l-.5,1.97-1.37-.39ZM59.11,45s-.04,0-.05,0l-.28.02s-.04,0-.06.02l-.22.1s-.03.01-.04.02l-.84.66-.3-1.05s0-.02-.01-.03l-.06-.13s-.02-.03-.03-.04l-.08-.09s-.05-.04-.08-.05l-.19-.07s-.02,0-.03,0l-.75-.15-.62-.16-.63-.2-.58-.22.38-1.61.08-.14.05-.07,1.77-1.54.17-.08.22-.02.24.05.76.28.65.2.64.17.74.15.13.06.03.03.04.11.43,1.22-.75.66s-.02.02-.03.04l-.07.1s0,0,0,.01l-.1.17s-.02.03-.02.05l-.14.58-.25,1.04-.12-.03ZM62.31,41.28s-.04,0-.06,0l-.28.03s-.04,0-.07.02l-.22.11s-.03.02-.04.03l-.75.65-.39-1.09-.06-.15s-.02-.04-.04-.06l-.08-.09s-.04-.03-.06-.04l-.19-.08s-.02,0-.03-.01l-.75-.16-.62-.16-.63-.2-.49-.18.43-1.78.07-.15.04-.07,1.74-1.85.16-.1.21-.04.23.04.76.27.64.2s0,0,.01,0l.63.17.73.16.15.07.03.03.04.11.47,1.42-.77.82s-.02.02-.02.03l-.06.09s0,.01-.01.02l-.09.2s-.01.02-.01.04l-.42,1.74-.22-.04ZM55.89,34.7l.67.21.61.16.73.16.14.07.03.03.04.11.47,1.41-.78.83s-.02.02-.02.03l-.06.09s0,.01-.01.02l-.1.2s-.01.02-.01.04l-.42,1.74-.22-.05s-.04,0-.06,0l-.28.03s-.04,0-.07.02l-.22.11s-.03.02-.04.03l-.74.65-.39-1.08-.06-.15s-.02-.04-.04-.06l-.08-.09s-.04-.03-.06-.04l-.19-.08s-.02,0-.03-.01l-.75-.16-.62-.16-.63-.2-.48-.18.43-1.78.07-.15.04-.07,1.74-1.85.16-.1.21-.04.23.04.76.27ZM51.23,38.68l.17-.08.22-.02.24.05.76.28.64.2.64.17.74.15.13.05.03.03.04.1.43,1.21-.76.66s-.02.02-.03.04l-.07.1s0,0,0,.01l-.1.17s-.01.02-.02.03c0,0,0,.01,0,.02l-.38,1.61-.12-.03s-.04,0-.05,0l-.28.02s-.04,0-.06.02l-.22.1s-.03.01-.04.02l-.84.65-.3-1.05s0-.02,0-.03l-.06-.13s-.02-.03-.03-.05l-.08-.09s-.05-.04-.07-.05l-.19-.07s-.02,0-.03,0l-.75-.15-.62-.16-.63-.2-.58-.22.38-1.61.13-.22,1.78-1.54ZM47.36,35.09l.08-.17.04-.07,1.75-1.84.16-.1.21-.04.23.04.76.27s.01,0,.01,0l.67.21.59.16.73.16.14.07.03.03.04.11.47,1.4-.78.83s-.02.02-.02.03l-.06.09s0,.01-.01.02l-.1.2s-.01.02-.01.04l-.41,1.74-.23-.05s-.04,0-.06,0l-.28.03s-.04,0-.06.02l-.22.11s-.03.02-.04.03l-.74.64-.39-1.07-.06-.15s-.02-.04-.04-.06l-.08-.09s-.04-.03-.06-.04l-.19-.08s-.02,0-.03-.01l-.75-.15-.62-.16-.63-.2-.48-.18.42-1.75ZM50.3,32.68l.36-1.64.08-.18.04-.07,1.72-1.98.16-.11.21-.04.23.03.78.27.62.19.63.17.72.16.18.1.04.11.48,1.5-.77.89s-.01.02-.02.03l-.06.09s0,.01-.01.02l-.09.21s0,.02-.01.03l-.35,1.62s-.02,0-.03,0l-.28-.05s-.04,0-.06,0l-.28.05s-.05.01-.07.03l-.22.14s-.03.02-.04.03l-.7.74-.47-1.38s-.03-.06-.06-.08l-.09-.07s-.02-.02-.04-.02l-.18-.09s-.03-.01-.04-.01l-.74-.16-.62-.16-.62-.19-.41-.15ZM57.79,30.31l.16-.11.21-.04.23.03.76.27.64.2.63.17.72.16.18.1.04.11.48,1.51-.76.89s-.01.02-.02.02l-.06.09s0,.02-.01.02l-.09.21s0,.02-.01.03l-.36,1.62s-.02,0-.02,0l-.28-.05s-.04,0-.07,0l-.28.05s-.05.01-.07.03l-.22.14s-.03.02-.04.03l-.7.74-.47-1.39s-.03-.06-.06-.08l-.09-.07s-.02-.02-.04-.02l-.18-.09s-.03-.01-.04-.01l-.74-.16-.72-.19-.53-.17-.41-.15.36-1.64.08-.18.04-.07.83-.96s0,0,0,0l.88-1.02ZM63.1,31.83l.16-.11.21-.04.23.03.76.27.65.2.64.17.73.16.18.1.04.11.48,1.52-.75.88s-.01.02-.02.02l-.06.09s0,.02-.01.02l-.09.21s0,.02-.01.03l-.36,1.62s-.01,0-.02,0l-.28-.05s-.04,0-.06,0l-.28.05s-.05.01-.07.03l-.22.14s-.03.02-.04.03l-.7.75-.47-1.4s-.03-.06-.06-.08l-.09-.07s-.02-.02-.04-.02l-.19-.09s-.03-.01-.04-.01l-.74-.16-.74-.2-.52-.16-.42-.15.36-1.65.08-.18.04-.07,1.71-1.99ZM69.58,40.9l-3.05,3.56-.67-1.89-.06-.15s-.02-.04-.04-.06l-.08-.09s-.04-.03-.06-.04l-.19-.08s-.02,0-.03-.01l-.75-.16-.62-.16-.63-.2-.5-.18.42-1.75.08-.17.04-.07,1.74-1.85.16-.1.21-.04.23.04.89.31.52.16.64.17.73.16.15.07.03.03.04.11.8,2.4ZM66.24,44.78l-3.02,3.52-.56-2s0-.02-.01-.03l-.06-.13s-.02-.03-.03-.04l-.08-.09s-.05-.04-.08-.05l-.19-.07s-.02,0-.03,0l-.76-.15-.62-.16-.63-.2-.59-.22.38-1.61.08-.14.05-.07,1.77-1.55.17-.08.22-.02.24.05.76.28.65.21.64.17.74.15.13.06.03.03.05.11.74,2.08ZM62.93,48.64l-3.05,3.56-.56-2.09s0-.02-.01-.03l-.06-.12s-.01-.02-.02-.04l-.08-.1s-.05-.05-.08-.06l-.19-.07s-.01,0-.02,0l-1.17-.29-1.43-.4.49-1.95.13-.2,1.78-1.38.17-.07h.22s.25.04.25.04l.75.28.65.21.64.17.75.15.13.05.03.04.04.09.63,2.22ZM59.58,52.55l-2.41,2.81-.08.06-.1.03h-.11s-9.68-2.85-9.68-2.85l.82-3.43.14-.19,1.79-1.29.17-.07h.22s.31.07.31.07l1.17.39,1.4.43,1.46.43,1.46.42,1.46.4,1.16.29.13.05.03.04.04.09.62,2.33ZM41.89,51.04l.82-3.42.14-.19,1.8-1.28.17-.07h.22s.28.06.28.06l.71.27.65.21.64.17.75.15.13.05.03.04.04.08.3,1.11-.65.47s-.03.03-.04.04l-.18.26s-.02.04-.03.06l-.83,3.44-4.94-1.45ZM40.67,50.68l.61-3.92,5.07-4.81.29,1-.67.52s-.03.03-.04.04l-.07.1-.11.16s-.02.04-.02.06l-.47,1.9-.15-.04s-.03,0-.05,0h-.28s-.04.02-.06.02l-.22.09s-.03.01-.04.02l-1.84,1.32s-.03.03-.04.04l-.18.25s-.02.04-.03.06l-.82,3.44-.86-.25ZM171.77,49.47v.05s.2,0,.2,0l19.75,5.58.1.04.06.04.1.1.05.09.07.2s0,0,0,0l1.77,4.67.35-.13-.18-.48,17.77-14.34s.02-.02.03-.02l.05-.06s.05-.08.04-.13v-.06s-.19,0-.19,0l.18-.07-1.69-4.55s0-.02-.02-.03l-.05-.08s0-.01-.01-.02l-.04-.06s-.03-.03-.05-.04l-.15-.09s-.03-.01-.04-.02l-1.72-.48,3.79-3.03.06-.03.1-.02h.05s.46.14.46.14l.1.1.02.07.17,1.49.14-.02-.08.14.06.03.09.11.03.11v.07s.47,3.53.47,3.53l.37-.05-.15-1.17,2.09.58.37.15.16.15.04.05.05.28-.07,2.58-.1.14-27.4,22.16-1.18-3.08s-.01-.03-.02-.04v-.02s-.07-.06-.11-.07h-.02s-.06.17-.06.17l-.06-.18h-.02s-.05.03-.07.05l-.02.02s-.01.01-.02.02l-25.35,30.91-.14.04-.19.03-.26-.02-.27-.06L29.77,56.16l-.22-.08-.14-.1-.03-.05-.02-.1-.04-.23-.02-.4.07-.41.15-.4.23-.35.06-.07h0s.08-.08.08-.08l.04.04,7.21-8.3-.08.12s-.02.04-.03.06l-.48,2.07-1.02,1.18s-.02.03-.03.05l-.05.11s-.02.1,0,.14l.04.1s.04.08.08.1l.11.07s.03.01.04.02l21.06,6.17s.02,0,.04,0h.16s.01.01.02.01c.02,0,.03,0,.05,0l.17-.04s.04-.02.06-.03l.12-.09s.02-.02.03-.03l16.46-19.17s.02-.03.03-.05l.05-.11-.17-.08.18-.07-.04-.1s-.04-.07-.08-.1l-.12-.07s-.03-.01-.04-.02l-.84-.24-.48-1.51-.06-.18s-.04-.07-.07-.09l-.09-.07s-.02-.01-.03-.02l-.19-.09s-.03-.01-.04-.01l-.74-.16-.62-.16-.63-.2-.77-.27s-.02,0-.03,0l-.28-.04s-.05,0-.07,0l-.28.06s-.05.02-.07.03l-.21.15s-.02.02-.03.03l-.69.81-.42-1.31-.06-.18s-.04-.07-.07-.09l-.09-.07s-.02-.01-.03-.02l-.19-.09s-.03-.01-.04-.01l-.74-.16-.62-.16-.63-.19-.77-.27s-.02,0-.03,0l-.28-.04s-.05,0-.07,0l-.28.06s-.05.02-.07.03l-.21.15s-.02.02-.03.03l-.69.8-.48-1.47s-.04-.07-.07-.09l-.09-.07s-.02-.01-.03-.01l-.18-.09s-.03-.01-.04-.01l-.74-.16-.62-.16-.63-.19-.77-.27s-.02,0-.03,0l-.28-.04s-.05,0-.07,0l-.28.06s-.05.02-.07.03l-.21.15s-.02.02-.03.03l-.68.79-.47-1.46s-.04-.07-.07-.09l-.09-.07s-.02-.01-.03-.01l-.18-.09s-.03-.01-.04-.01l-.74-.16-.62-.16-.63-.19-.77-.27s-.02,0-.03,0l-.28-.04s-.05,0-.07,0l-.28.06s-.05.02-.07.03l-.21.15s-.02.02-.03.03l-1.74,2.01s-.01.02-.02.03l-.06.09s0,.01-.01.02l-.09.21s0,.02-.01.04l-.34,1.57-.03.03s0,0-.01,0l-.28-.05s-.04,0-.06,0l-.28.05s-.05.01-.07.03l-.22.14s-.03.02-.04.03l-1.78,1.87s-.02.02-.02.03l-.06.09s0,.01-.01.02l-.1.2s-.01.02-.01.04l-.3,1.26-.37.42s-.02,0-.03,0l-.28.03s-.04,0-.06.02l-.22.11s-.03.02-.04.03l-1.82,1.57s-.02.02-.03.04l-.07.1-.11.18s-.02.03-.02.05l-.31,1.31-.24.27s-.01,0-.02,0l-.28.02s-.04,0-.06.01l-.22.09s-.04.02-.06.04l-5.04,4.77,16.15-18.6.02-.03h0s2.37-2.73,2.37-2.73l-.03-.03.02-.09s0,0,0-.01l.02-.1.08-.31.02-.04.09-.12,4.38-5.05.06-.04.07-.02h.08s.09,0,.09,0l110.91,31.34ZM171.78,49.07l-93.87-26.52.22-.23,7.77,2.21,8.87,2.49s0,0,0,0l76.95,21.57.03.02.02.02v.02s.02.03.02.03v.4ZM74.85,9.28l6.29-4.45.08-.04h.1s45.25,12.57,45.25,12.57c0,0,0,0,0,0l12.56,3.48s.01,0,.01,0l4.96,1.38s.02,0,.02,0l65.6,18.2.11.08.03.05,1.66,4.47-17.64,14.23-1.45-3.82s0,0,0,0l-.08-.21s0-.02-.01-.03l-.07-.12s-.02-.02-.03-.03l-.14-.14s-.02-.02-.03-.02l-.09-.06s-.02-.01-.03-.02l-.19-.07-19.62-5.54v-.51s.01-.02,0-.04v-.08s-.02-.04-.03-.05l-.04-.08s-.02-.03-.03-.04l-.06-.06s-.03-.03-.05-.03l-.07-.04s-.02-.01-.03-.01l-76.97-21.58s0,0,0,0l-10.23-2.87-6.52-1.86c-.07-.02-.14,0-.19.05l-.43.46-15.18-4.29,6.57-4.65.06-.02h.02s.41.12.41.12c.01,0,.02,0,.04,0l.3.02s.05,0,.07,0l.25-.08h0s5.36-3.81,5.36-3.81l-.05-.07.07.03.02-.04-.13-.05-.12-.16-.43.31.02-.27.04-.13.04-.04ZM78.73,5.57l-.9.07v-.12s0,0,0-.01v-.19s.9.02.9.02l.96.04-.2.14-.77.05ZM77.17,6.08h.04s.05.09.05.09h.02s-.05-.11-.05-.11h0s.14.02.14.02l.03-.14-.09-.02h.09s.02-.37.02-.37c0,0,0,0,0-.01v-.48s-.04-.55-.04-.55l-.06-.77-.05-.47-.11-.88-.05-.32s0-.01,0-.02l-.04-.14h.03s.02,0,.02,0l.02.05.04.14.05.3.06.43.06.52.05.57.05.72.02.48v.38s-.01.36-.01.36l-.02.08-.04.19-.02.02-.06.03h-.04s0,.01,0,.01l-.03-.03-.07-.1ZM64.66,2.51l.58-.32h.06s.7-.1.7-.1l.84.08.96.19,1.05.27,1.15.31,1.25.33,1.33.31,1.39.26h0s1.43.18,1.43.18c0,0,0,0,.01,0l1.54.08.04.6v.24s-.26,0-.26,0l-1.38-.07-1.54-.2-1.46-.27-1.36-.32-1.26-.33-1.15-.31-1.02-.26-.83-.17-.03.14.02-.14h0s-.69-.06-.69-.06l-.02.19-.02-.18-.49.06v.03s-.2.12-.2.12c-.03.02-.05.04-.07.07l-.17.31.07.04v.37s.04,0,.04,0h0s.24.31.24.31c.02.02.04.04.06.05l.64.33s.02.01.04.01l.97.26.03-.12h0s-.02.13-.02.13l1.22.17s0,0,.01,0l1.44.09,1.54.02,1.55-.03,1.32-.06,1.12.14s0,0,.01,0l1.57.08h.13s0,.24,0,.24v.17s-1.21.09-1.21.09l-1.39.09-1.52.07-1.58.03-1.56-.02-1.48-.1-1.39-.2-1.17-.32-.9-.48-.51-.67-.05-.15v-.85s.06-.16.06-.16l.32-.55ZM69.69,4.1l1.37.35,1.22.29.16.03-1.11.02-1.52-.02-1.04-.07h0s-.25-.02-.25-.02l-.96-.18-.82-.28-.66-.4-.08-.07-.32-.4h.01s.34-.04.34-.04l.66.06.49.1.57.19s.02,0,.03,0l.86.16s.01,0,.02,0h.04s1.02.28,1.02.28ZM65.69,3.97l-.03-.02-.17-.22h0s.2.24.2.24ZM36.84,16.04l-.32.22h0s-.03-.02-.04-.02l-.15-.04-.05-.04s-.03-.02-.05-.03l-.16-.08s-.02,0-.03-.01l-.52-.15.9-.63s.01,0,.02-.01l1.15-1h-.01s.61-.72.61-.72c0,0,.02-.02.02-.03l.44-.79s.01-.03.02-.05l.18-.73h-.04s0-.47,0-.47c0-.01,0-.03,0-.04l-.16-.69s0-.01,0-.02l-.25-.71-.29-.75-.27-.77-.18-.82-.05-.89.03-.29.12-.77.29-.71.49-.69.17-.21.68-.63.88-.58,1.1-.53,1.33-.48.21-.06,1.53-.4,1.76-.34,1.99-.27,2.23-.2,2.48-.12,2.54-.04,2.29.03,2.09.09,1.93.14,1.82.18,1.91.23-.32.37s-.04.06-.04.09l-.04.28-.09.05-1.39-.16-1.82-.18-1.93-.14-2.09-.09-2.29-.03-2.54.04-2.48.12-2.23.2-1.99.27-1.76.34s0,0-.01,0l-1.31.35h0s-1.28.45-1.28.45c0,0-.01,0-.02,0l-1.07.52s-.01,0-.02.01l-.87.57s-.02.01-.02.02l-.48.45-.03-.02-.48.67s-.02.02-.02.04l-.3.72s0,.03-.01.04l-.08.5h-.01s.05.89.05.89c0,.01,0,.02,0,.03l.18.82s0,.01,0,.02l.26.76.29.74.26.71.16.72v.75s-.02.24-.02.24l-.2.79-.46.84-.79.93-.18.17-1.17,1.02ZM42.07,21.09l-.1.32-.38.33-20.01,12.12-.68.28-.9.16h-.97s-.86-.14-.86-.14L1.23,29.25l-.6-.27-.25-.3.21-1.78.05-.34.05-.13.11-.15.54-.46,8.07-5.44.08-.04,10.55-5.21-.1.27-.29.14s-.03.01-.04.02l-.04.03s-.07.09-.07.14v.04s.19,0,.19,0l-.13.14.04.04s.04.03.06.04l.07.03s.02,0,.03,0l4.16,1.19s.01,0,.02,0l.1.02s.02,0,.03,0h.1s0,0,0,0c0,0,.01,0,.02,0h.1s.03-.01.04-.02l.07-.02s.02,0,.03-.01l3.19-1.58h.06s.03,0,.03,0l1.37.28-.02.1.57.14-1.59.48s-.01,0-.02,0l-.19.08s-.01,0-.02,0l-.1.06s-.02.02-.04.03l-.13.13s-.03.03-.04.05l-.11.2s0,.02-.01.03l-.11.3-.29.14s-.03.01-.04.02l-.04.03s-.07.09-.07.14v.04s.19,0,.19,0l-.13.14.04.04s.04.03.06.04l.07.03s.02,0,.03,0l4.18,1.19s.01,0,.02,0l.1.02s.02,0,.03,0h.1s0,0,0,0c0,0,.01,0,.02,0h.1s.03-.01.04-.02l.07-.02s.02,0,.03-.01l3.18-1.59h.06s.28.05.28.05l1.91.39,3.09.77.68.26.11.06.44.33.09.1.23.51.22.9ZM3.1,32.7l15.14,4.4s.01,0,.02,0l.8.14s.02,0,.03,0h.88s.02-.01.03-.02l.82-.16s.03,0,.04-.01l.65-.29s.02,0,.03-.01l2.94-1.89-3.57,2.5-.55.29-.66.19-.67.06-.58-.08-14.66-4.27-.35-.18-.13-.26-.21-.43ZM.7,31.15l-.2-1.16.61.28s.02,0,.02,0l16.95,4.92s.01,0,.02,0l.89.15s.02,0,.03,0h1s.02,0,.03-.01l.93-.17s.03,0,.04-.01l.71-.29s.02,0,.03-.01l20.04-12.14s.02-.01.03-.02l.08-.07-.02.11-.13.41-.06.11-.41.37-.15.11-19.81,12.69-.61.27-.79.15h-.84s-.77-.12-.77-.12L1.71,31.9l-.57-.25-.12-.07-.26-.32-.05-.1Z"/>
      <path d="M72.35,48.84s-.03,0-.05,0l-.28.02s-.04,0-.06.02l-.22.1s-.03.01-.04.02l-.76.6-.1-.03-.27-.96s0-.02-.01-.03l-.06-.13s-.02-.03-.03-.04l-.08-.09s-.05-.04-.08-.05l-.19-.07s-.02,0-.03,0l-.76-.16-.63-.16-.63-.2-.77-.29s-.02,0-.02,0l-.28-.06s-.04,0-.05,0l-.28.02s-.04,0-.06.02l-.22.1s-.03.01-.04.02l-1.82,1.42s-.03.02-.04.04l-.07.1-.11.17s-.02.03-.02.05l-.41,1.6-1.16,1.35s-.02.03-.03.05l-.05.11.17.08-.18.07.04.1s.04.07.08.1l.12.07s.03.01.04.02l15.77,4.6s.02,0,.04,0h.16s.01.01.02.01c.02,0,.03,0,.05,0l.17-.04s.04-.02.06-.03l.12-.09s.02-.02.03-.03l3.15-3.71s.02-.03.03-.05l.05-.11-.17-.07.18-.07-.04-.1s-.04-.07-.08-.1l-.12-.07s-.03-.01-.04-.02l-.73-.21-.27-.96s0-.02-.01-.03l-.06-.13s-.02-.03-.03-.04l-.08-.09s-.05-.04-.08-.05l-.19-.07s-.02,0-.03,0l-.76-.16-.63-.17-.64-.2-.55-.2,2.19-2.57s.02-.03.03-.05l.05-.11s.02-.1,0-.14l-.04-.1s-.04-.07-.08-.1l-.12-.07s-.03-.01-.04-.02l-.85-.25-.26-.75s0,0,0-.01l-.06-.14s-.02-.04-.04-.06l-.08-.09s-.04-.03-.06-.04l-.19-.08s-.02,0-.03-.01l-.76-.16-.63-.16-.64-.2-.77-.28s-.02,0-.03,0l-.28-.06s-.04,0-.06,0l-.28.03s-.05,0-.07.02l-.22.11s-.03.02-.04.03l-1.8,1.59s-.02.02-.03.03l-.07.1s0,0,0,.01l-.1.17s-.01.03-.02.05l-.34,1.41-.16.19ZM79.47,48.53l-1.61,1.89-.14-.03s-.04,0-.05,0l-.28.02s-.04,0-.06.02l-.22.1s-.03.01-.04.02l-.83.66-.29-1.05s0-.02-.01-.03l-.06-.13s-.02-.03-.03-.04l-.08-.09s-.05-.04-.08-.05l-.19-.07s-.02,0-.03,0l-.76-.16-.63-.16-.63-.2-.61-.23.39-1.62.08-.14.05-.07,1.76-1.56.17-.08.22-.02.24.05.77.28.65.21.65.17.75.16.14.06.03.03.04.1.7,2ZM80.12,47.76l-.14.16-.37-.11-.08-.23.59.17ZM82.17,53.24h.02s-.14.17-.14.17l-.3-.09-.06-.23.49.14ZM74.52,55.75l.84-3.29.08-.13.05-.08,1.77-1.4.17-.07h.22s.24.04.24.04l.77.29.65.21.65.17.76.16.13.05.03.04.04.09.61,2.18-2.47,2.91-.08.06-.1.03h-.11s-4.27-1.25-4.27-1.25ZM63.68,51.65l-.07.28-.43.51-.12-.03h-.02s.64-.76.64-.76ZM70.55,49.9l-.66.52s-.03.02-.04.04l-.07.1-.11.17s-.02.03-.02.05l-.84,3.31-4.98-1.45.83-3.29.13-.2,1.78-1.39.17-.07h.22s.24.04.24.04l.76.28.65.21.65.17.75.15.13.05.03.04.04.09.33,1.18ZM72.08,49.23h.22s.24.04.24.04l.77.29.65.21.65.17.76.16.13.05.03.04.04.09.33,1.19-.66.52s-.03.02-.04.04l-.07.1s0,0,0,.01l-.1.16s-.02.03-.02.05l-.85,3.31-4.99-1.46.84-3.29.13-.2,1.77-1.39.17-.07Z"/>
    </g>
  </g>
</svg>