<?xml version="1.0" encoding="UTF-8"?>
<svg id="Layer_2" data-name="Layer 2" xmlns="http://www.w3.org/2000/svg" viewBox="0 0 284.15 179.31">
  <g id="Layer_1-2" data-name="Layer 1">
    <g>
      <path d="M160.19,113.89s-.01-.06-.03-.09l-.29-.68s-.02-.05-.04-.07l-.45-.66s-.03-.04-.04-.05l-.61-.64s-.03-.03-.04-.04l-.77-.62s-.02-.02-.04-.03l-.95-.6-1.08-.56-.95-.4-1.58-.57-1.42-.41-1.51-.35-1.59-.29-1.65-.22-1.69-.16-1.72-.09-1.74-.03-1.72.04s-.04,0-.05,0l-1.69.1-1.69.17-1.64.23-1.58.3-1.35.32-1.56.45-1.26.45s-.04.01-.05.02l-1.19.52-1.07.57-.89.59s-.02.02-.04.03l-.75.62s-.03.02-.04.04l-.59.65s-.03.03-.04.05l-.43.67s-.03.05-.04.07l-.26.68s-.02.06-.02.09l-.09.69s0,.07,0,.1l.08.69s.01.06.02.09l.25.68s.02.05.04.07l.42.67s.03.04.04.06l.58.65s.03.03.04.04l.42.35h0s.33.28.33.28c.01.01.02.02.04.03l.93.61,1.07.57,1.2.52,1.32.47,1.43.42,1.53.36,1.61.3,1.68.23,1.73.17,1.39.08,2.15.05,1.78-.04,1.76-.11,1.72-.18,1.67-.24,1.6-.31,1.52-.37,1.42-.43,1.31-.48,1.19-.54,1.05-.58.88-.6s.03-.02.04-.03l.21-.18-.23-.28h0l.24.27.51-.44s.03-.03.04-.04l.56-.65s.03-.04.04-.06l.39-.67s.03-.05.03-.08l.23-.68s.02-.06.02-.09l.05-.69s0-.07,0-.1l-.12-.69ZM156.7,114.13h.24s0,.55,0,.55c-.02-.02-.03-.04-.05-.06l-.19-.15v-.18s0-.16,0-.16ZM156.68,115.74l-.45.47-2.3-.52,2.75.04ZM157.77,116.57h.52s-.15.45-.15.45h-.38s0-.45,0-.45ZM157.77,115.4v-.05s-.01-.1-.03-.14v-.72s.28.4.28.4l.21.5h-.46ZM156.89,113.33h0l.18-.1-.18.1ZM153.29,113.34l2.59-.6h0s.34-.08.34-.08l.13.1.32.57h-3.38ZM152.29,111.99s-.04-.02-.06-.02l-.42-.11v-.06s-.13,0-.13,0h0s.13,0,.13,0v-.03s1.23-.27,1.23-.27h0s.79-.17.79-.17v.26s0,.72,0,.72l-.54.11-1-.44ZM144.45,108.91l.56-.1,1.75.22-.57.38.05.07h0s-.05-.07-.05-.07l-1.7,1.14-.02-1v-.66ZM147.47,110.56l-1.02-.13.47-.33.55-.38v.21s0,.63,0,.63ZM152.58,110.62l.03.13h0s-.03-.13-.03-.13l-1.98.46.42-.24,1.12-.65.7.37-.26.06ZM150.24,108.93l1.07.25s-.09.03-.13.06l-.95.71-.36-.08-1.48-.27-.12-.02v-.62s0-.19,0-.19c0-.02,0-.03,0-.05,0-.02,0-.05-.01-.07,0-.03-.02-.05-.03-.07l.47.06,1.55.28ZM140.31,108.19l1.71-.04,1.61.03.3.02c-.16.05-.28.2-.28.38h0v.59s-1.62-.04-1.62-.04l-1.63.04h0s-.01-.76-.01-.76h-.4s-.01-.19-.01-.19l.34-.02ZM128.16,112.78l.13.03.09-.39-.09.39,2.21.5-2.87.08.52-.61ZM130.4,112.29v-.67s0-.19,0-.19l.64.14h0s.84.19.84.19l-1.41.5s-.05.02-.07.03ZM136.61,109.76l.55.37.46.31-.52.04s-.03,0-.05,0l-.45.09v-.62h0v-.2ZM139.62,110.65l-1.95-1.21-.58-.36.14-.05,2.36-.19v.75s.03,1.07.03,1.07ZM134.18,111.22l-2.6-.55h0s-.04.2-.04.2h-.01s.04-.2.04-.2l-.25-.05,1.33-.35.83.52.7.44ZM129.6,112.23v.05s-.08-.02-.08-.02l.08-.04ZM127.96,116.07l-.15-.24h2.25s-1.86.43-1.86.43l-.25-.19ZM126.7,116.66v.45s-.5,0-.5,0l-.16-.45h.66ZM127.5,117.41v-.63s.2.25.2.25v.78s-.2-.41-.2-.41ZM127.56,113.39l-.26-.22h0s.26.22.26.22h0ZM126.55,114.48l.1.02v.97s-.6,0-.6,0l.2-.51.31-.48ZM127.45,114.45v-.25s.17,0,.17,0v.05s-.17.19-.17.19ZM133.82,108.98l1.54-.29.89-.13-.19.08h0s-.03.01-.04.02c-.13.07-.21.21-.21.35v.6s-.13.02-.13.02l-1.28.24-.63.14-.66-.41c-.01-.12-.07-.22-.16-.29-.1-.07-.22-.08-.33-.05l1.2-.29ZM124.86,115.34l-.07-.59.08-.59.23-.6.39-.6.55-.6.71-.59.84-.55,1.01-.54,1.16-.51,1.23-.44,1.37-.4.19-.04-2.08.73h0s-.05.02-.07.03l-.6.36c-.12.07-.2.2-.2.34v.19s0,0,0,0h0v.43s-.46.2-.46.2l-.82.44-.23-.05-.09.39-.3-.26-.69.81-.44.37s-.03.02-.04.04l-.55.6s-.03.03-.04.05l-.4.62s-.03.05-.04.07l-.24.64s-.02.06-.02.09l-.08.64s0,.03,0,.05l-.08-.13-.22-.6ZM132.82,118.72l-.56-.15-.81-.36,3.11-.72-1.74,1.23ZM131.02,119.82l-.42-.15v-.96s1.36.61,1.36.61c.02,0,.04.02.06.02l.47.12v.78s-.08-.02-.08-.02l-1.39-.41ZM137.12,121.1l-.23-.03v-.46s2.41.31,2.41.31c.01,0,.03,0,.04,0h.42s0,.39,0,.39l-.95-.05-1.69-.16ZM137.57,119.89l2.16-1.49.02,1.73h-.38s-1.81-.24-1.81-.24ZM144.69,119.91l-.04-1.7,2.27,1.51-2.24.19ZM147.45,121.07l-1.69.17-1.05.07v-.59s2.65-.22,2.65-.22l.25.02v.53s-.16.02-.16.02ZM151.64,118.7l-1.51-1.04,2.86.56-1.35.48ZM153.5,119.75l-1.38.42-.15.04v-.59s1.94-.7,1.94-.7v.68s-.42.15-.42.15ZM154.76,119.29l-.05.02v-1.05s0,0,0,0c0,0,0,0,0,0v-.19c0-.19-.13-.36-.32-.39l-5.91-1.15-.31-.22c-.12-.08-.28-.09-.41-.03s-.21.2-.21.35v.19s.27,0,.27,0l-.1.14.09.06-.09.13,3.46,2.39v.86s-.53.13-.53.13l-1.56.3-.67.1v-.78s0-.06-.01-.09c0,0,0-.01,0-.02.03-.16-.04-.32-.17-.41l-3.77-2.5-.22.33h-.4s.06,2.86.06,2.86v.22h0v.81s-1.62.04-1.62.04l-1.73-.03-.04-3.71c0-.15-.08-.28-.22-.35-.13-.07-.29-.06-.41.03l-3.64,2.5c-.11.07-.17.2-.17.33v.8s-.61-.09-.61-.09l-1.57-.29-.6-.14v-1.07s3.4-2.39,3.4-2.39c.16-.11.21-.32.14-.49s-.27-.27-.46-.23l-6.27,1.45c-.18.04-.31.2-.31.39v1.29s-.06-.02-.06-.02l-1.15-.5-.08-.04v-1.62s5.91-1.4,5.91-1.4c.18-.04.31-.2.31-.39v-.19h0s0-.03,0-.05c-.03-.2-.2-.35-.41-.35l-6.05.17-.14-.12.09-.1h.19s0-.38,0-.38c0,0,0,0,0,0h0v-.2s5.85-.05,5.85-.05v-.4s.39-.05.39-.05l-.02-.14c-.02-.21-.2-.35-.41-.35h-.49s-1.53-.33-1.53-.33l.65-.23-.12-.33.12-.04h0s.27,0,.27,0v-.23s3.01.67,3.01.67c.03,0,.06,0,.09,0,.16,0,.3-.09.37-.24l.11-.24c.07-.17.02-.35-.11-.47l.62-.12,1.99-.16.41.28c.07.05.15.07.22.07.02,0,.04,0,.06-.01h0s.22-.03.22-.03v-.07s0,0,0-.01l.21-.22h0s.05-.06.07-.1h.05v-.19h0s0,0,0,0l-.02-1.23,1.61-.05,1.6.03h0s.02,1.06.02,1.06c0,.07.03.13.06.19v.19c0,.2.17.37.37.39l.24.02s.02,0,.04,0c.04,0,.08,0,.12-.02.01,0,.02-.01.04-.02.02-.01.05-.02.07-.03l.43-.3,2.79.35s0,0-.01.01c0,0,0,0,0,0h0s-.12.12-.12.12l.03.03s0,0,0,0c0,.02,0,.05-.01.07,0,.02,0,.04,0,.06,0,.03,0,.05.01.08,0,.02,0,.03,0,.05,0,0,0,0,0,.01,0,0,0,0,0,.01,0,.02.02.03.03.05,0,.01.02.03.03.04.01.02.03.03.05.05.01.01.02.02.04.03.02.01.04.02.07.03.01,0,.02.01.04.02.02,0,.03,0,.05,0l.03.13,2.99-.65v.23s.4,0,.4,0l-.1.39.57.15-1.86.38c-.11.02-.21.1-.27.2-.03.06-.05.13-.05.19h0v.19s0,.09.02.14l.03.08h0c.02.05.05.1.09.15.08.08.18.12.28.12h0l5.77-.02v.16s0,.38,0,.38h.4s-.2.26-.2.26l-6.05-.09c-.14,0-.26.06-.34.18-.08.11-.09.25-.04.38l.06.13.27-.11-.05.22.08.02-.03.11,5.95,1.4v1.58s-.07.03-.07.03l-1.13.51ZM156.89,118.23l-.13.07v-1.32s.21-.25.21-.25v.69s.4,0,.4,0v.4s.11,0,.11,0l-.59.4ZM159.46,115.26l-.2.6-.13.22v-.06s0-.07,0-.1l-.11-.64s-.01-.06-.03-.09l-.27-.64s-.02-.05-.04-.07l-.42-.62s-.03-.04-.04-.05l-.57-.6s-.03-.03-.04-.04l-.25-.2-.37-.67s-.06-.09-.11-.12l-.35-.27c-.09-.07-.21-.09-.32-.07h0s-.4.08-.4.08l-.85-.44-.34-.15v-.49h0v-.19s0,0,0,0c0-.16-.09-.31-.24-.37l-1.67-.72.37.1,1.19.41,1.24.51,1.02.53.9.57.73.58.57.6.41.6.23.54.12.65-.05.59Z"/>
      <path d="M284.15,18.87l-.32-18.48c0-.22-.18-.39-.4-.39h0L.59.62c-.22,0-.4.18-.4.4L0,19.51c0,.06.01.12.04.18v.02s0,.27,0,.27c0,.06.01.12.04.18l1.93,4.02c.05.11.16.19.28.22l19.39,40.47-1.42,7.82-.02.13s0,.05,0,.07l.1,3.19-.92,5.11h-.37c-.19,0-.36.14-.39.33l-1.22,6.71s0,.03,0,.05l-.29,5.99.03.8-6.24,34.6h-.69c-.19,0-.36.14-.39.33l-1.58,8.7s0,.06,0,.09l.12,3.49-1.24,6.84h-.44c-.19,0-.36.14-.39.33l-2.08,11.44h-.55c-.19,0-.36.14-.39.33l-.18.96s0,.06,0,.09l.52,14.14-.08.44s0,.06,0,.09l.07,2.02c0,.21.18.39.4.39h0l277.87-.81c.21,0,.39-.17.4-.39l.08-2.02s0-.07,0-.1l-1.04-4.85.36-9.7s0-.07,0-.1l-.21-.95c-.04-.18-.2-.31-.39-.31h-.71s-2.48-11.42-2.48-11.42c-.04-.18-.2-.32-.39-.32h-.58s-1.47-6.83-1.47-6.83l.12-3.48s0-.07,0-.1l-1.88-8.68c-.04-.18-.2-.32-.39-.32h-1.04s-7.28-33.88-7.28-33.88l.05-1.48-.37-5.95s0-.04,0-.06l-1.45-6.69c-.04-.18-.2-.32-.39-.32h-.49s-1.1-5.1-1.1-5.1l.1-3.19s0-.07,0-.1l-1.79-8.27,22.66-41.32,1.84-3.05c.04-.06.06-.14.06-.21v-.2s.04-.08.04-.08c.03-.06.05-.13.05-.2ZM283.04.8l.31,17.68h-1.01s-.28-16.3-.28-16.3h0c0-.07-.02-.14-.06-.2-.07-.12-.2-.19-.34-.19h0L2.38,2.39c-.22,0-.4.18-.4.4l-.17,16.32H.8S.99,1.42.99,1.42l282.05-.62ZM260.42,75.11h-1.13s.07-2.43.07-2.43h1.13s-.08,2.43-.08,2.43ZM274.65,141.15h-1.34s.1-2.72.1-2.72h1.34s-.1,2.72-.1,2.72ZM8.64,153.09h.36s.39.06.39.06l1.92-10.79s0-.06,0-.08l-.12-3.49.8-4.47-.02.79v.62s.05,1.1.05,1.1l.04.42.04.26s.02.07.03.1l.05.1c.06.12.18.21.31.23.02,0,.03,0,.05,0,.02,0,.03,0,.04,0l-3.89,22.17h-.73c-.19,0-.36.14-.39.33l-.08.44h-.25s1.39-7.77,1.39-7.77ZM9.16,141.89l-.1-2.73h1.34s.09,2.73.09,2.73h-1.34ZM20.83,84.87h.28s.39.06.39.06l1.55-8.76s0-.05,0-.08h0s-.1-3.2-.1-3.2l1.01-5.66v.24s.02,1.45.02,1.45l.06.64s0,.03,0,.05l.03.15c.03.12.14.23.25.29.05.02.1.03.16.04l-4.53,25.79-.05-1.63.28-5.92.62-3.46ZM21.12,75.7l-.08-2.44h1.13s.08,2.44.08,2.44h-1.13ZM272.16,21.99l-2.69-.19-2.06-.3-1.45-.38-.66-.35-.02-.08.37-.3,1.23-.44,1.87-.4,2.39-.31,2.71-.2,2.18-.05-1.6,3.06-2.27-.05ZM275.38,16.04l-1.6.04-2.76.21-2.44.33-1.93.41s-.04,0-.05.02l-1.32.48s-.08.04-.12.07l-.61.51c-.09.08-.15.19-.14.31l.03,2.14s0,.06.01.09h0s.13.5.13.5c.03.11.1.2.2.25l.86.46s.06.03.09.03l1.52.4s.03,0,.04,0l2.11.3,2.52.19-10.72,20.84h0s-.8,1.55-.8,1.55l-1.41.03-2.46.17-2.18.26-1.71.33s-.03,0-.05.01l-1.16.38s-.08.04-.12.06l-.52.41c-.1.08-.16.2-.15.32l.02,1.92s.01.09.02.13h0s.09.26.09.26c0,.02,0,.03.01.04l.03.1c.03.1.11.19.21.24l.79.37s.05.02.08.03l1.42.32,1.28.16,1.64.15h.06s-231.27.56-231.27.56l.78-.05,2.26-.28,1.41-.32s.05-.02.08-.03l.82-.38c.1-.04.17-.12.21-.22l.04-.1s.01-.03.02-.04l.1-.25h0s.03-.1.03-.15v-1.92c.01-.12-.04-.24-.14-.31l-.5-.41s-.08-.05-.13-.07l-1.13-.38s-.03,0-.05-.01l-1.72-.33-2.15-.25-2.45-.15-1.51-.03-1.63-3.63-7.41-18.78,1.91-.15,2.11-.31s.03,0,.04,0l1.55-.4s.06-.02.09-.03l.89-.47c.09-.05.16-.13.19-.23l.16-.5h0s.02-.08.02-.12l.02-2.14c0-.12-.05-.23-.14-.31l-.58-.5s-.08-.06-.12-.07l-1.29-.47s-.04-.01-.05-.02l-1.94-.41-2.42-.31-2.74-.19-.88-.02-.83-.02-.05-.12s0,0,0,0L3.52,6.86l276.89-.61-5.04,9.79ZM257.72,50.15v.23h0l-.02.03-.03-.26-2.37-.15-1.85-.23-1.34-.31-.56-.27.23-.17,1.07-.35,1.66-.32,2.13-.25,2.42-.16,1.88-.04-1.2,2.3-2.01-.04ZM263.39,99.38l-.7-1.27s-.06-.09-.1-.12l-14.61-11.33s-.05-.04-.08-.05l-20.94-9.39s-.04-.02-.06-.02l-25.78-6.99s-.03,0-.05,0l-29.03-4.28s-.03,0-.04,0l-28.85-1.31,112.82-.28,7.43,35.04ZM264.17,97.69l6.71,31.38s-.05.06-.07.1l-.2.38-1.98-9.35c-.04-.19-.2-.33-.41-.32-.2,0-.36.16-.38.35l-.03.26-3.18-15.08.11-3.47s0-.06,0-.1l-.88-4.15h.32ZM271.32,131.97s-.03-.05-.05-.07l-.06-.06s-.08-.06-.13-.08l-.2-.95v-.06s.13-.24.13-.24l.31,1.45ZM276.1,159.33l-65.92.19-7.81.02,8.94-1.62s.04,0,.06-.01l26.8-9.09s.05-.02.08-.04l16.77-9.99,2.44-1.45s.08-.05.1-.09l10.52-12.82c.05-.06.08-.13.09-.21l.17-1.47,7.76,36.59ZM12.52,131.39l.03.06.03.99c-.1,0-.19.03-.26.09l.2-1.14ZM17.99,98.33h1.18s-5.82,33.05-5.82,33.05v-.04c0-.05-.02-.1-.04-.15l-.59-1.3c-.06-.14-.19-.22-.34-.23l5.62-31.33ZM25.01,66.66l-.06-.65s0-.03,0-.05l-.03-.15c-.03-.11-.1-.21-.2-.26l-.03-.02c-.11-.06-.23-.06-.34-.02-.02,0-.04.03-.05.04l.69-3.88s0-.05,0-.07h0s.01-4.2.01-4.2l.12-.67-.03.32-.03,1.39v.75s.05,1.35.05,1.35l.04.52.05.34s0,.05.02.07l.05.16.32-.1v.15s.16,0,.16,0l.03,1.16-.76,4.31v-.5ZM22.68,61.29v.59s-.28-.6-.28-.6h.28ZM23.08,57.78h1.11s-.01,3.43-.01,3.43h-1.21s.11-3.43.11-3.43ZM22.43,48.49l2.41.15,2.11.24,1.66.32,1.04.34.2.16-.62.28-1.33.31-1.88.25-1.96.14-2.51.07-1.04-2.3,1.91.04ZM24.05,52.22h1.06s-.86,4.76-.86,4.76h-1.08s.87-4.76.87-4.76ZM26.66,64.1l-.06-6.06,229.34-.55-.04,6.05-229.23.56ZM25.92,56.58l.02-.15h.06s-.1.54-.1.54l.02-.39ZM25.53,54.46l.04,1.27-.11-.18-.05.03s-.06.05-.09.09l.22-1.21ZM18.47,120.14l.03.77s0,.04,0,.07l.97,4.83s.02.06.03.09l1.21,2.65-3.35-3.88,1.23-7.09-.12,2.57ZM21.97,104.93l4.07-3.3-3.3,4.07s-.03.04-.04.06l-2.54,4.63s-.02.05-.03.08l-.72,2.43.77-4.44,1.8-3.53ZM19.26,104.57l.12,3.74-2.4,13.89-.2-1.3c-.03-.17-.16-.29-.32-.33l2.81-16ZM16.36,123.41l.23,1.49c.01.07.04.14.09.2l11.02,12.78s.06.06.1.09l1.81,1.04.2-.35-.2.35,17.85,10.31s.05.03.08.03l27.17,8.94s.04.01.06.01l9.01,1.57-8.09.02v.4s0-.4,0-.4l-65.75.19,6.42-36.67ZM88.37,159.86l-13.44-2.34-27.11-8.92-17.82-10.29h0s-.29-.17-.29-.17l-3.97-3.94-3.37-4.66-2.15-4.72-.95-4.73.23-4.71,1.38-4.65,2.5-4.56,3.59-4.42,4.62-4.25,5.58-4.03,6.51-3.8,7.67-3.69,8.06-3.2,8.74-2.88,9.33-2.54,9.85-2.18,10.28-1.8,10.62-1.42,10.89-1.03,11.06-.63,11.16-.23,11.16.17,11.08.58,10.92.97,10.67,1.37,10.33,1.75,9.92,2.13,9.41,2.49,8.83,2.83,8.16,3.16,7.43,3.47,6.98,3.94,5.75,4.02,4.77,4.22,3.74,4.4,2.66,4.54,1.55,4.64.4,4.7-.78,4.73-1.98,4.72-3.19,4.67-4.15,4.3-.38.23-16.73,9.97-26.73,9.06-13.33,2.41-109.44.31ZM263.78,107.83l.95,4.53-.85-2.54s-.02-.05-.03-.08l-2.7-4.61s-.03-.04-.04-.06l-3.44-4.05,4.19,3.28,1.93,3.52ZM265.03,125.22s.02-.06.03-.09l.79-4.83s0-.03,0-.05l.03-.77s0-.03,0-.05l-.22-2.65,1.56,7.43-3.59,4.38,1.41-3.37ZM263.8,106.22l-1.29-2.36s-.06-.09-.1-.12l-14.58-11.42s-.05-.04-.08-.05l-5.35-2.42-2.42-1.37-7.63-3.58-8.43-3.28-8.87-2.85-9.45-2.5-9.95-2.13-10.37-1.76-10.7-1.37-10.95-.98-11.11-.58-11.19-.17-11.18.23-11.09.63-10.92,1.03-10.66,1.43-10.31,1.81-9.88,2.19-9.37,2.55-8.78,2.89-8.11,3.22-7.21,3.46-.52.26-2.43,1.42-5.18,2.41s-.06.03-.08.05l-14.19,11.5s-.08.08-.1.13l-1.16,2.27-.13-4.12,1.78-3.46,14.11-11.33,20.55-9.47,25.5-7.1,28.85-4.42,30.54-1.54,30.62,1.39,28.99,4.27,25.73,6.97,20.87,9.35,14.5,11.25,1.91,3.45-.14,4.2ZM110.73,66.07s-.03,0-.04,0l-28.89,4.42s-.03,0-.05,0l-25.55,7.12s-.04.01-.06.02l-20.62,9.5s-.06.03-.08.05l-14.21,11.42s-.08.08-.11.13l-.66,1.29,6.15-35.14,112.91-.28-28.77,1.45ZM254.76,51.67l1.08,5.01-229.17.55.89-5.02,227.21-.54ZM26.33,54.55l-.07-2.33h.48s-.41,2.33-.41,2.33ZM258.56,72.73l-1.32-6.24-.04-.63,1.38,6.45v.42ZM256.97,65.23l-.28-1.34v-.4s.37,1.71.37,1.71l-.08.03ZM256.97,60.65l-.03-3.43h1.24s-.1,3.43-.1,3.43h-1.11ZM256.86,56.42l-1.02-4.75h1.18s1.07,4.75,1.07,4.75h-1.23ZM9.57,19.63l2.7.19,2.37.3,1.88.4,1.19.43.32.28-.03.09-.7.37-1.49.39-2.06.3-2.43.19-2.57.07-1.39-3.06,2.21.05ZM4.28,6.06l-.91-2.03,277.21-.61-1.04,2.04L4.28,6.06ZM3.4,6.06h-.49c-.05,0-.11.01-.15.04v-1.46s.65,1.42.65,1.42ZM2.74,7.07l3.63,8.09-.02,1.85h0s0,0,0,0l-.02,2.15c0,.06.01.11.04.17h0s1.77,3.88,1.77,3.88c.07.14.21.23.36.23,0,0,0,0,0,0l2.58-.06,7.51,19.03.92,2.04v1.66s-.01,0-.01,0l-.02,1.93c0,.06.01.12.04.17h0s1.42,3.12,1.42,3.12c.07.14.21.23.36.23,0,0,0,0,0,0l1.38-.03.21.46c.06.14.19.22.34.23l-.94,5.09s0,.04,0,.06h0s-.11,3.46-.11,3.46L2.62,19.42l.13-12.35ZM22.91,62.55l-.39-.07.36-.17-.14-.29h1.35s-1.87,10.44-1.87,10.44h-1.12s1.8-9.91,1.8-9.91ZM19.14,94.64l.09,2.88h-1.19s-.09-2.88-.09-2.88h1.19ZM276.92,159.32l-1.48-6.99h.14s.01-.34.01-.34l1.56,7.33h-.23ZM272.59,138.88l-1.04-4.88-.03-.8-.04-.43,1.13,5.3-.03.82ZM264.11,96.89h-.42s-.61-2.87-.61-2.87h1.12s-.09,2.87-.09,2.87ZM261.01,84.26h.12s.74,3.46.74,3.46l.05.83-.91-4.29ZM259.3,71.87l-2.23-10.42h1.35s-.12.22-.12.22l.35.19-.39.08,2.15,9.93h-1.11ZM258.89,60.58l.11-3.76s0-.07-.02-.1h0s-1.15-5.09-1.15-5.09c.1-.03.18-.1.23-.19l.25-.49,1.65.03h0c.15,0,.29-.08.35-.21l1.63-3.11h0c.03-.06.05-.12.05-.19l-.03-1.93s0,0,0,0h0l-.03-1.64,10.86-21.1,1.87.04h0c.15,0,.29-.08.35-.21l2.03-3.88h0c.03-.06.05-.12.05-.19l-.04-2.15h0s-.03-1.83-.03-1.83l4.29-8.34.22,12.55-22.65,41.8ZM281.31,5.53c-.07-.05-.15-.09-.24-.09h-.63s.84-1.65.84-1.65l.03,1.74ZM1.03,19.91h.93s20.14,42.62,20.14,42.62l-.18.98L1.03,19.91ZM21.07,76.5h1.12s-.86,4.85-.86,4.85c-.07-.1-.19-.17-.32-.17h-.78s.84-4.67.84-4.67ZM19.38,81.98h1.15s-1.11,6.23-1.11,6.23c0,.02,0,.03,0,.05l-.27,5.58h-1.19s.27-5.51.27-5.51l1.16-6.35ZM10.57,130.46h1.31s-1.41,7.89-1.41,7.89h-1.33s1.44-7.89,1.44-7.89ZM9.11,142.69h1.33s-1.19,6.69-1.19,6.69c-.05-.16-.2-.28-.38-.28h-.93s1.16-6.41,1.16-6.41ZM7.03,149.9h1.37s-1.96,10.96-1.96,10.96h-1.4s1.99-10.96,1.99-10.96ZM280.35,175.2l-275.94.8-.49-13.39,78.69-.23,120.76-.34,77.49-.22-.5,13.37ZM4.39,178.51l-.04-1.22,277.19-.81-.05,1.22-277.1.81ZM281.46,175.68h-.72s0-.08,0-.08h.4s.05-1.21.05-1.21l.28,1.29ZM280.77,161.03l-77.41.22-120.76.34-78.62.22.03-.16,74.65-.21,128.6-.37,73.48-.21.03.15ZM279.53,160.08h-.68s-.1-.44-.1-.44c-.04-.18-.2-.32-.39-.32h-.39s-2.17-10.17-2.17-10.17h1.36s2.37,10.93,2.37,10.93ZM276.09,148.35h-.78c-.21,0-.39.17-.4.39v.33s-1.52-7.1-1.52-7.1h1.32s1.38,6.39,1.38,6.39ZM274.66,137.62h-1.32s-1.68-7.88-1.68-7.88h1.3s1.71,7.88,1.71,7.88ZM263.84,87.72l.34,5.49h-1.18s-.34-5.57-.34-5.57c0-.02,0-.04,0-.06l-1.33-6.21h1.14s1.38,6.34,1.38,6.34ZM261.49,80.57h-.65c-.21,0-.38.16-.39.37l-1.07-5.03h1.11s1,4.66,1,4.66ZM259.07,61.92l23.11-42.64h.9s-23.83,43.44-23.83,43.44l-.17-.8Z"/>
    </g>
  </g>
</svg>