<?xml version="1.0" encoding="UTF-8"?>
<svg id="Layer_2" data-name="Layer 2" xmlns="http://www.w3.org/2000/svg" viewBox="0 0 293.58 184.31">
  <g id="Layer_1-2" data-name="Layer 1">
    <g>
      <path d="M130.77,160.72s-.03-.05-.04-.07c-.02-.03-.02-.07-.05-.09,0,0,0-.01,0-.02-.02-.02-.06-.01-.09-.02-.03,0-.05-.03-.08-.03,0,0,0,0-.02,0,0,0-.01,0-.02,0l-2.09.25c-.13.02-.23.13-.23.26v1.17s0,.01,0,.02c0,0,0,0,0,.02,0,.04.03.07.05.1.01.02.01.04.03.06.05.05.11.07.18.07l.22-.02h.2s.25,0,.25,0h.07s.17,0,.17,0l.27-.03h.19s.09-.03.09-.03h.09s.08-.03.08-.03h.08s0-.02.01-.02l.11-.03.11-.05s0,0,0,0l.18-.02s.04-.02.07-.03c.03-.01.06-.02.09-.05.02-.02.03-.05.04-.08.01-.03.04-.04.04-.07,0,0,0-.01,0-.02,0,0,0-.01,0-.02v-1.17s0,0,0-.02c0,0,0,0,0-.01ZM128.82,161.37l.78-.04.39-.05.07-.02v.42l-.39.06-.47.03-.52.02v-.43h.14Z"/>
      <path d="M122.21,143.62s0,0,0-.01v-.03s0-.04-.01-.06v-.04s-.03-.05-.04-.07l-.02-.04s-.04-.05-.08-.08c-.02-.02-.04-.03-.07-.04l-.05.12s0,0,0,0l.02-.13-.68-.09-4.16.46s-.03.02-.05.03c-.03.01-.06.02-.09.05-.02.02-.04.05-.05.08-.01.02-.03.03-.04.05l-.02.18v5.47s0,.01,0,.02c0,0,0,0,0,.02v.06s0,0,0,0c0,0,0,0,0,0l.02.1s.01.01.02.02c0,0,0,0,0,0,0,0,0,0,0,0,0,0,0,0,0,.01,0,.01,0,.02,0,.03,0,.01.02.01.03.02.03.03.06.06.1.07.01,0,.02.02.04.03l.07.02h.07s.5-.05.5-.05h.05s4.08-.46,4.08-.46l-.02-.14h0l.07.13s.04,0,.07-.02l.05-.03s.04-.03.05-.04l.05-.05s.02-.04.04-.09l.02-.09v-5.4s0,0,0,0ZM117.41,144.32l.13.03v4.92l-.12-.02v-4.93ZM118.07,144.37l3.61-.44v4.93s-3.61.42-3.61.42v-4.9ZM121.95,149.2s0,0,0,0h0s0,0,0,0Z"/>
      <path d="M147,146.59l-.96.11c-.06,0-.11.04-.16.09-.05-.03-.11-.06-.18-.05l-.59.07c-.11.01-.18.1-.21.21-.02-.04-.02-.08-.06-.1-.06-.04-.13-.07-.19-.05l-2.85.32s-.01,0-.02.01l-11.18,1.29c-.14.02-.25.15-.23.29.01.14.13.24.26.24l11.26-1.3s.01-.01.02-.01l2.8-.31c.07,0,.13-.04.18-.1.02-.03.02-.07.03-.11.04.09.12.15.22.15l.62-.07c.07,0,.12-.04.16-.09.04.03.09.05.14.05l.99-.11c.07,0,.13-.04.18-.1.04-.06.06-.13.06-.2-.02-.15-.15-.25-.29-.23ZM130.64,148.87h0s0,0,0,0Z"/>
      <path d="M146.02,145.57v.02s.03.03.04.05c0,0,0,.02,0,.03,0,0,0,0,0,0,0,0,.02.01.02.02,0,0,0,.02.02.02v.03s.13.03.13.03h0s.01.01.02.01h.04s.03,0,.03,0l.13.02h.03s2.26-.26,2.26-.26h.04s.07-.04.12-.07c0,0,.02-.02.02-.03,0,0,0,0,0,0,.01-.02.03-.03.04-.06.02-.04.04-.09.04-.14v-1.65s0-.06-.02-.09v-.03s-.04-.05-.06-.09c-.01-.01-.04-.03-.05-.04,0,0,0,0,0-.01,0,0,0,0-.01,0-.02-.01-.02-.03-.05-.04-.03-.01-.05-.02-.08-.02l-.12-.02s0,0-.01,0c-.04-.01-.08-.02-.12-.01l-2.22.25s-.06.01-.11.04c-.02,0-.02.03-.03.04-.01,0-.02.02-.03.03h-.04s-.03.08-.03.08c0,0,0,0,0,0,0,0,0,0,0,0v.04s-.01.02-.01.02c0,0,0,0,0,0,0,0,0,.01,0,.02v1.73s0,.04,0,.08ZM146.77,145.24v-1.2s1.72-.2,1.72-.2v1.2l-1.72.2Z"/>
      <path d="M127.96,149l-.09.67c-.01.08.02.16.07.22.05.05.12.08.19.08l23.93-2.76s.01,0,.02,0c.02,0,.05,0,.07-.02.03-.01.04-.04.06-.06,0,0,.02-.01.03-.03.03-.04.05-.1.05-.15v-9.66s0-.01,0-.02c0,0,0,0,0-.01,0-.01-.01-.02-.02-.03-.01-.05-.03-.09-.07-.13,0,0,0-.02-.02-.03,0,0-.02,0-.02,0,0,0-.01-.02-.03-.02-.04-.02-.09-.03-.14-.02,0,0,0,0,0,0l-23.91,2.7c-.07,0-.14.05-.18.1-.05.06-.06.14-.05.21l.09.47v8.49ZM129.5,142.08l5.21-.59.07-.02,13.83-1.56v.85l-19.11,2.18v-.86ZM151.76,146.41l-.24-.18v-1.12s0,0,0,0v-.27s0,0,0,0v-1.11s0,0,0,0c0,0,0,0,0,0v-1.05s0,0,0,0v-3.5s0,0,0,0v-.15s0,0,0,0v-.79s0,0,0,0v-.21h0v-.02l.24-.18v8.58ZM128.46,149.26l.81-.09c.14-.02.25-.15.23-.29,0-.07-.04-.13-.1-.18-.06-.04-.12-.07-.2-.05l-.71.08v-8s.69-.08.69-.08c0,0,0,0,0,0l.29-.03.26-.03s0,0,0,0l.97-.11s0,0,0,0l4.1-.46v.75s-.19.19-.19.19l-5.42.63s-.05.03-.08.04c-.03.02-.06.02-.09.05,0,0-.01,0-.01,0-.02.02-.01.06-.02.09,0,.03-.03.05-.03.08v1.39s0,0,0,.02c0,0,0,0,0,.01,0,.04.03.07.05.1.01.02.01.04.03.06.05.05.11.07.18.07l19.58-2.23.06-.02.22.03h.03c.13,0,.25-.1.26-.23,0-.05-.02-.09-.03-.13v-1.33c0-.08-.03-.15-.09-.2-.06-.05-.13-.08-.21-.07l-5.62.64s0,0-.01,0l-8.11.92.02-.93.9-.1.26-.03s0,0,0,0l14.5-1.64v3.3s0,0,0,0v3.36s0,0,0,0v.27s0,0,0,0v.28s0,0,0,0v.19s0,0,0,0v.22s0,0,0,0v.32h-.03s-.04.03-.07.04c-.03,0-.05-.02-.08-.02l-.63.07s-.07.03-.1.06c-.04-.01-.07-.04-.11-.03l-1.35.16s-.02.02-.04.02c-.02,0-.03-.01-.04-.01h-.04s0,0,0,0c0,0,0,0,0,0l-.9.1c-.14.02-.25.15-.23.29.01.13.13.24.26.24l.93-.11s0,0,0,0h.05s.02-.02.03-.02c0,0,.01,0,.02,0l1.39-.16s.07-.03.1-.05c.03.01.05.03.08.03l.66-.08s.04-.02.06-.03c.02,0,.03.02.05.02l.19-.02.15.12-22.9,2.64.02-.14ZM128.13,149.83h0s0,0,0,0Z"/>
      <path d="M293.57,162.85l-.07-.44-.17-.47-.12-.25-.24-.42-.63-.79-.36-.37-.98-.85-.57-.45-.63-.47-.69-.48-1.39-.83-.84-.44-.93-.37-.99-.28s0,0-.01,0l-.65-.17-.24-.07s0,0,0,0h-.03s-1.28-.2-1.28-.2l-1.48-.07h-.94s-1.57.06-1.57.06l-1.52.18-1.07.15-1.38.24-1.18.22-2.59.59-1.39.36-.07-.11-.17-.23-.18-.21-.2-.2-.21-.17-.22-.15-.23-.13-.24-.11-.25-.08-.25-.06-.33-.05h-.25s-.25.01-.25.01l-1.22.22-.34.1-.24.1-.23.12-.27.18-.2.17-.16.16-.2.23-.15.22-.13.24-.12.25-.09.26-.07.26-.05.27-.03.26v.14s-1.37.4-1.37.4l-1.8.6-1.42.53-.9.38-.81.41-.77.47-.5.41-.34.4-.23.39-.16.37-.03.1-19.85-3.11-2.89-.47-2.21-.39-2.99-.57-11-2.39-1.9-.4-4.04-.79-3.33-.57-3.78-.57-2.89-.39-4.67-.56-5.02-.54-7.15-.68-9.5-.78-8.1-.58v-20.13c.01-.05,0-.1-.03-.15l-.19-.27-.17-.18s-.08-.06-.14-.07l-.41-.08-6.77-.85h-.04s-.1,0-.1,0l-.36-.07-55.25-6.91,3.41-3.37s.04-.04.05-.07l.05-.11,28.83-3.08,8.3-.91.18-.06s0,0,0,0l.14-.05.17-.1.15-.14.12-.16.09-.2.06-.2.04-.24.02-.3-.25-7.12,6.65-.7,2.13-.24.81-.12.46-.17.26-.18.3-.35.15-.29.1-.33.08-.55v-1.21s-2.46-82.86-2.46-82.86l.16-.02c.08,0,.15-.05.2-.12.04-.07.06-.15.03-.23l-.43-1.37-.33-11.15-.09-2.6-.06-1.09-.1-.56-.11-.3-.27-.42-.2-.2-.45-.25-.5-.12-11.19-.3-.89.03L62.53,5.89l-2.26.19-.92.11-.41.14-.37.05-3.96,1.17-.78.22-.25.09-.27.18-.2.22-.15.2-.14.26-.11.33-.06.4v1.2s.22,6.77.22,6.77l-.67.41-2.84,1.55-2.25,1.19-1.1.7-.52.35-.31.11-2.04.57-5.02,1.48-6.05,1.68-5.19,1.16-3.84.72-1.99.34-.44.06-.79.09-.22.08-.18.12-.16.17-.11.2-.07.22-.04.28v.79s1.8,55.64,1.8,55.64l.06,1.76.04.73.05.25.07.2.12.2.16.16,7.25,3.25,3.79,1.66.71,18.19.14,3.32.04.29.05.2.08.2.11.19.13.15.16.12.19.09.21.04h.01s0,0,0,0l33.46,4.1,2.05,2.02L.54,129.87s-.08.02-.12.04l-.23.15s0,0,0,0c0,0,0,0,0,0-.03.02-.03.05-.05.08-.02.03-.05.05-.05.08l-.07.39v.03s.1,26.2.1,26.2v.67s0,.05.01.08l.06.2s.02.01.03.03c0,.02,0,.04.01.05.03.04.07.05.11.07.01,0,.02.03.03.03l.22.06v.03s-.01.07-.01.07l-.05.03-.18.06s-.02.02-.03.03c-.03.02-.05.04-.07.07-.02.02-.04.03-.05.05l-.06.14s-.02.07-.02.11l.02,4.29.09.34s.02.02.03.03c0,.02,0,.04.01.06.03.03.07.04.1.06.02,0,.02.03.03.03l.22.07h.03s0,0,0,0l7.39,1.04.2.64.13.36.18.29.18.18.36.18.41.12.89.13,1.03.07,1.16.02,1.15-.03,1.01-.08.41-.06.46-.09.26-.08.14-.05.26-.15.12-.1.1-.12.02-.04,48.21,6.8.2.66.13.37.08.16.09.12.2.2.37.19.43.12.92.13,1.06.07,1.18.02h.08s0,3.18,0,3.18v.28s.08.36.08.36l.05.15.1.21.07.1.19.19.19.13.34.16.34.08,20.92,2.99h.16s.03,0,.03,0c0,0,0,0,0,0l12.56,1.81.29.04.35.02.45-.03,113.47-14,.46-.06.36-.07.28-.11.28-.18.17-.16.09-.13s0,0,0,0h0s0-.01,0-.01c0,0,0,0,0,0l.11-.21.04-.12.08-.39.02-1.15s0-.06-.02-.09l-.04-.09v-.02s.06-.1.06-.15v-.68s0-.52,0-.52v-.3s-.04-.18-.04-.18l-.04-.17-.13-.32-.08-.14-.18-.2-.31-.22-.24-.11-34.18-8.14-.25-.05-.18-.02-.31-.02-19.42,2.3v-6.05s6.09.43,6.09.43l7.72.61,7.37.66,5.22.52,4.9.55,4.53.57,2.79.4,2.39.37,3.32.58,3.06.59,10.13,2.21,3.74.79,1.98.39,4.45.78,9.39,1.46,11.9,1.89-.02.66s0,.01,0,.02c0,0,0,.01,0,.02l.03.22c.01.09.07.17.15.21l.49.22,1.26.28,2.1.33,3.09.42,4.75.49,4.62.42,4.02.31,3.61.22,2.31.09,1.13.02h1.12s1.1-.03,1.1-.03l1.1-.05,1.1-.08,1.09-.11,1.07-.14,1.02-.16.94-.17.84-.18.71-.19.53-.18.38-.19s.07-.05.09-.08l.12-.16s.01-.05.02-.08c.01-.03.03-.05.03-.08v-.71s.05-1.2.05-1.2c0-.03,0-.06-.01-.09l-.08-.24.03-.04.06-.1s.03-.07.03-.1l.07-.94v-.44s0-.64,0-.64ZM292.85,167.3l-.26.14-.52.17-.68.18-.82.18-.93.17-1,.16-1.06.14-1.08.11-1.08.08-1.08.05-1.09.02h-1.1s-2.26-.06-2.26-.06l-3.53-.19-3.84-.28-4.47-.39-5.71-.57-3.66-.49-2.08-.32-1.14-.25-.35-.16v-.06s0-.57,0-.57l.02-.29s0,0,0,0l.02-.28.04-.3.09-.03s.06.03.1.03c.03,0,.06,0,.08-.02.03,0,.05.03.07.04l.52.03h1.14s1.96,0,1.96,0l1.08-.02,2.8.03,2.89.08,1.4.06,1.54.11,1.56.14,1.45.17,1.36.18,1.28.19,3.51.58,2.18.35,1.05.15,1.02.12,1,.09,1,.05,1,.02,1.01-.03,1.03-.08,1.02-.11.98-.14.92-.17.82-.18.67-.19.56-.2.1-.05s0,0,0,0l.3-.1.25-.13-.04,1.16v.63s-.04.04-.04.04ZM220.33,165.51l.04.11.05.25v.77s.01.56.01.56l-.11.07-112.68,13.86-1.9.23-.63.03h-.35s-13.26-1.89-13.26-1.89h-.03s0,0,0,0c-.09-.12-.26-.14-.37-.05l-.06.05c-.11.09-.13.26-.05.37.02.03.06.03.1.05,0,.02-.01.04-.01.06v.95s.02.29.02.29l.07.41.04.13.02.04-20.08-2.86-.46-.09-.18-.07-.2-.13-.14-.16-.1-.25-.05-.26-.02-3.68v-1.32s0-1.78,0-1.78l.02-.13.07-.23.09-.16.11-.13.2-.12.18-.06,2.3-.27c.01.11.07.2.18.23l32.65,8.14h.07s.01,0,.02,0h.02s111.35-13.58,111.35-13.58c.07,0,.13-.04.18-.1.04-.06.06-.13.05-.19-.02-.14-.15-.25-.3-.23h-.06s-.01,0-.01,0c-.03-.02-.06-.03-.09-.04l-15.92-3.78,18.12,4.28.38.1.33.13.15.1.11.1.16.26ZM92.02,181.93l-.07-.03-.14-.11-.05-.07-.09-.22-.05-.32v-1.12s12.63,1.8,12.63,1.8l.6.06h.25s.69-.03.69-.03l112.47-13.81,1.95-.24.21-.04v.76s-.03.35-.03.35l-.07.23-.07.13s0,0,0,0c0,0,0,0,0,0l-.13.16-.13.09-.16.08-.41.1-113.35,14-.55.06-.39.03-.31-.02-12.69-1.81-.13-.02ZM21.57,88.08l-.05-.13-.04-.17-.04-.72-1.8-55.54-.05-1.85v-.74s.02-.17.02-.17l.04-.14.05-.1.08-.09.06-.05.09-.04.31-.04s.02,0,.03,0l.42-.06h.02s0,0,0,0l.44-.06,2-.35,3.85-.72,5.21-1.17,6.07-1.68,5.02-1.48,2.06-.57.07-.02s.03.01.05.01c.05,0,.11-.02.15-.05l.53-.36,1.23-.79,2.23-1.18,2.86-1.56.42-.26,2.67,84.64-3.38-1.02-2.27-.75-1.26-.6-.54-.37-.59-.33s-.01,0-.02,0l-13.25-5.81-9.21-4.06-2.89-1.29-.49-.23-.11-.12ZM151.37,15.14l-.6-1.9-1.62-4.93-.09-.32-.04-.28-.3-4.9c0-.07-.04-.14-.1-.19-.06-.05-.12-.07-.2-.06l-11.38,1.58c-.14.02-.24.14-.23.28l.51,8.21-50.88,4.13-.28-9.03c0-.07-.03-.14-.09-.19-.05-.05-.13-.07-.2-.07l-10.45.82c-.14.01-.25.13-.24.27l.14,4.34.02.31,1.36,4.79,1.35,4.81c.03.12.14.2.26.2l.25-.04,2.39,76.71s0,.06.01.08l.26.8s.02.02.03.04c0,0,0,.02,0,.03,0,0,.02,0,.03.02.03.03.07.06.11.07.01,0,.02.02.03.02l.76.12h.03s63.92-6.51,63.92-6.51c.03,0,.05-.01.07-.02l.69-.29s.03-.03.04-.04c.02-.01.03-.02.05-.04.03-.03.04-.07.05-.11,0-.01.02-.02.02-.04l.08-.97v-.03s-2.19-73.41-2.19-73.41l6.52-.64,2.38,79.95.08,2.87v1.17s-.05.45-.05.45l-.07.24-.09.19-.21.25-.15.11-.34.14-.79.12-22.52,2.37s0,0,0,0l-1.39.15s0,0,0,0c0,0,0,0-.01,0l-5.38.56s0,0,0,0l-1.39.15s0,0,0,0c0,0,0,0,0,0l-18.32,1.92-1.4.15s0,0,0,0l-5.47.57s0,0,0,0l-1.39.15s0,0,0,0l-5.49.58s0,0,0,0l-1.4.15s0,0,0,0l-5.52.58-1.39.15s0,0,0,0l-4.43.46-2.08.2-.86.05h-.2s-3.87-.23-3.87-.23c0,0,0,0,0,0,0,0,0,0,0,0l-.31-.02s0,0,0,0c0,0,0,0,0,0l-6.65-.39-.2-.04-.09-.04s0,0,0,0l-.17-.08-.13-.11-.1-.15-.09-.23-.06-.29-.06-1.15-3.09-97.76-.08-2.95v-1.2s.03-.3.03-.3l.07-.24.1-.19.12-.15.14-.1s0,0,0,0l.22-.1.96-.13L135.69.71l2.11-.15.86-.03,10.9.27h.17s.39.1.39.1l.33.17.12.11.2.29.09.23.09.48.06,1.09.36,11.87ZM151.79,18.22l-9.78.95-3.72.52-.42-6.71s0,0,0,0c0,0,0,0,0,0v-.12s0,0,0,0c0,0,0,0,0,0l-.51-8.22,10.85-1.51.29,4.64.04.28,1.73,5.35,1.53,4.82ZM146.56,93.44l-.28-.1s-.05-.01-.07-.01l-5.14-.27h-.01c-.14,0-.26.11-.27.25,0,.15.11.27.25.28l4.95.26-63.77,6.5-.2-.03s0-.04,0-.05c-.04-.06-.1-.1-.17-.12l-.23-.05-.15-.44-2.39-76.74,3.65-.52,3.62-.31c.14-.01.25-.13.24-.27l-.14-4.39,50.9-4.14.42,6.72c0,.07.04.14.1.19.05.04.11.06.17.06l3.52-.5,2.86-.28,2.19,73.33-.05.63ZM78.49,22.47l-1.26-4.48-1.34-4.59-.04-.19-.15-4.39,9.92-.78.28,9.04s0,0,0,0c0,0,0,0,0,0l.14,4.5-3.04.25-4.53.64ZM143.25,112.85v.21s-.04.18-.04.18l-.04.14-.05.11-.06.09-.06.07-.08.05-.1.04-8.15.89-49.68,5.31-8.87.93-.15-.04-.07-.05-.07-.07-.12-.24-.08-.37-.3-7.24,5.67-.58.29.47.37.41.43.32.49.23.5.12,1.53.09h.47s.52-.1.52-.1l.5-.21.05-.03s0,0,0,0c0,0,0,0,0,0l.41-.29.41-.4.35-.48.27-.54.1-.28.21-.02.29.46.37.41.43.33.47.23.51.12,1.52.09h.47s.52-.11.52-.11l.49-.21.05-.03s0,0,0,0c0,0,0,0,0,0l.4-.28.42-.41.35-.48.27-.53.1-.28.21-.02.29.46.37.41.42.32.48.23.51.12,1.53.09h.47s.52-.1.52-.1l.5-.21.05-.03s0,0,0,0c0,0,0,0,0,0l.41-.29.39-.39.35-.47.28-.54.1-.29.2-.02.29.46.35.39.44.34.48.23.5.12,1.53.09h.47s.52-.1.52-.1l.49-.21s.03-.01.05-.03c0,0,0,0,0,0,0,0,0,0,0,0l.41-.28.4-.39.36-.49.27-.53.09-.28,13.07-1.37.27.43.37.42.43.34.48.23.49.12,1.53.09h.46s.52-.1.52-.1l.49-.21.04-.02s0,0,0,0c0,0,0,0,0,0l.41-.29.41-.4.32-.45.27-.53.02-.07h0s.05-.15.05-.15l.03-.07.17-.02.28.46.35.39.43.34.47.22.51.12,1.52.09h.46s.51-.1.51-.1l.5-.21.04-.03s0,0,0,0c0,0,0,0,0,0l.4-.28.4-.4.33-.46.27-.54.09-.28,8.22-.86.19,5.17.06,1.89ZM70.78,120.26l-.06-.04s0,0,0,0l-.13-.13-.07-.11-.05-.13-.08-.37-.28-6.7,3.44.2h.01l1.11-.06h.14s.21,5.26.21,5.26l.09,1.97.03.21.06.24.08.2-4.32-.51h-.11s-.08-.04-.08-.04ZM86.94,112.01l-.28.39-.32.32-.35.25-.37.17-.39.09h-.39s-.38-.08-.38-.08l-.36-.16-.33-.24-.3-.32-.24-.37,3.9-.41-.19.37ZM93.84,111.28l-.28.39-.32.32-.35.25-.37.17-.39.09h-.39s-.38-.08-.38-.08l-.36-.16-.33-.24-.3-.32-.24-.37,3.88-.4-.19.37ZM100.72,110.56l-.27.39-.32.32-.35.25-.37.17-.38.08h-.38s-.38-.08-.38-.08l-.36-.16-.33-.24-.29-.32-.23-.37,3.86-.4-.18.37ZM107.57,109.84l-.27.39-.32.32-.35.25-.37.17-.38.08h-.38s-.37-.08-.37-.08l-.36-.16-.33-.24-.29-.32-.23-.37,3.85-.4-.18.37ZM127.25,107.78l-.27.38-.31.32-.35.25-.37.17-.38.08h-.38s-.37-.08-.37-.08l-.35-.16-.33-.24-.29-.32-.23-.36,3.81-.4-.18.36ZM134.01,107.07l-.27.38-.31.32-.35.24-.37.17-.37.08h-.38s-.37-.08-.37-.08l-.35-.16-.33-.24-.29-.32-.23-.36,3.79-.4-.18.36ZM57.78,7.19l-.11.33-.06.41v1.29s3.08,97.65,3.08,97.65l.1,2.82.06,1.18.07.36.12.32.1.16-3.91-.23-.21-.04-.15-.07-.25-.24-.11-.17-.09-.23-.06-.29-.06-1.15-3.04-95.82-.08-2.85v-1.15s.03-.29.03-.29l.07-.23.11-.2.26-.31.14-.1.22-.08,3.79-1.12v.02ZM45.37,99.22l1.98.89.46.26.55.38,1.33.64,2.33.77,3.55,1.08.1,3.3.1,2.79.07,1.16.07.37.11.31.16.27.36.37.28.15.32.07,4.73.28h.04s.44-.02.44-.02l.29.07,6.48.38.18,4.66.1,2.1.03.21.06.24.08.2-35.28-4.33h-.1s-.08-.04-.08-.04l-.07-.05-.07-.07-.06-.1-.06-.14-.05-.17-.03-.2-.84-21.25,12.43,5.44ZM70.3,120.76h.03s.23-.02.23-.02l.12.05,5.31.64h.05s8.22-.85,8.22-.85l1.76-.19h.43s3.48-.06,3.48-.06l3.35-.13,3.11-.19,2.79-.25,2.38-.3,1.9-.35.97-.27-3.95,3.91-.49.26-.98.28-1.4.26-1.78.23-2.09.19-2.34.15-2.52.1-2.62.04h-2.64s-2.57-.07-2.57-.07l-2.43-.11-2.21-.16-1.93-.2-1.58-.24-1.17-.26-.72-.27-2.43-2.39,1.75.21ZM70.15,122.87l.19.18.33.3s.05.04.09.06l.77.29,1.26.28,1.61.24,1.95.21,2.23.16,2.45.12,2.59.06h2.65s2.63-.03,2.63-.03l2.53-.1,2.36-.15,2.11-.19,1.8-.23,1.44-.27,1.01-.29.62-.32s.01-.02.03-.03c.01,0,.03,0,.04-.01l.35-.35h.01s.29.18.29.18l.35.3.34.39s0,0,0,0,0,0,0,0l.77.9s0,0,0,0c0,0,0,0,0,0l1.12,1.31c-.49.15-1.5.42-3.19.72-2.36.42-6.55.99-13.12,1.32-11,.55-18.67-1.41-20.56-1.95l2.38-2.78.28-.18.3-.16ZM115.54,130.28c-.05.08-.45.61-3.17,1.2-4.09.9-11.17,1.51-21.05,1.83-8.4.27-20.24.31-28.92-1.07-4.37-.69-6.19-1.48-6.66-1.7v-3.3s.26.26.26.26c.03.03.06.04.09.05l1.52.59,2.45.56,3.18.49,3.87.42,4.44.33,4.88.23,5.16.13,5.29.02h0l5.25-.09,5.05-.2,4.69-.3,4.19-.39,3.57-.47,2.83-.53,2-.58,1.06-.57v3.07ZM66.53,125.95c-.05.07-.07.16-.05.24.02.08.09.15.18.18.22.07,2.28.72,5.77,1.29,2.51.41,6.55.9,11.52.9,1.28,0,2.57-.03,3.84-.1,12.71-.64,16.82-2.18,16.86-2.2.08-.03.15-.1.17-.19.02-.09,0-.18-.07-.24l-.18-.18h0s-.77-.9-.77-.9l2.57.39.52.11h0s0,0,0,0l1.46.32.59.15,1.28.47.53.46.05.06-.1.28-.81.44-1.14.33-1.74.33-3.17.41-3.73.34-4.1.26-4.58.18-4.68.08-4.71-.02-4.6-.11-4.35-.21-3.95-.29-3.44-.37-2.78-.43-.81-.18-1.24-.47-.36-.35.15-.32.09-.11.91-.46,1.71-.47.57-.15,1.02-.19s0,0,0,0l1.29-.23,1.23-.16-.8.93-.15.18ZM67.98,124.23l-1.83.23-1.31.24s0,0,0,0l-2.56.47-1.8.5-1.08.55c-.05.03-.1.07-.12.13l-.24.52c-.03.06-.02.12,0,.18,0,.02.02.03.02.04.01.03.02.06.04.08l.06.06s0,0,0,0l.19.21s.06.06.1.07l.06.03s0,0,0,0l1.05.4,2.21.51h.04s0,0,0,0l2.8.43,2.5.27-.96-.07-3.85-.41-3.15-.49-2.36-.54-1.47-.56-.45-.44.17-.36,1.09-.55.23-.09,2.01-.56,2.8-.51,3.52-.45,2.58-.23-.29.34ZM115.29,126.74l-.98.54-1.97.57-2.79.52-3.55.46-1.97.18,3.05-.4,1.76-.33s0,0,0,0l.76-.14,1.71-.49.65-.35c.06-.03.1-.08.12-.15l.14-.42c.04-.1,0-.22-.08-.29l-.62-.53s-.05-.04-.08-.05l-1.39-.51-2.19-.49-.91-.14-.54-.12-2.62-.39-.55-.06-.29-.34.75.05,3.81.4,3.15.47,2.38.52,1.56.57.22.09.54.46-.12.35ZM68.77,123.31l-3.14.28-3.55.45-2.84.52-2.07.57-.27.11-1.19.6c-.05.03-.09.07-.12.12l-.29.61-.12.43v3.68c0,.09.06.18.14.23.07.04,1.68,1,6.93,1.83,5.14.82,11.92,1.23,20.16,1.23,2.85,0,5.85-.05,8.91-.15,6.76-.22,22.69-.97,24.58-3.18.14-.17.16-.31.15-.36v-3.65s-.1-.4-.1-.4c0-.01-.01-.02-.02-.03,0-.02-.02-.03-.03-.05-.01-.02-.02-.04-.04-.06l-.71-.61s-.05-.03-.07-.04l-1.85-.68-2.47-.55-3.17-.48-3.83-.4-1.29-.09-.27-.32-.4-.35-.26-.17.1-.1,53.68,6.71-87.38,9.71s-.09.02-.12.04l-.12.08h-.02S2.07,130.24,2.07,130.24l66.91-7.17-.2.24ZM271.14,157.38l2.57-.58,1.16-.22,1.37-.23,1.05-.15,1.5-.18,1.53-.07h.91s1.45.08,1.45.08l1.22.18,1.82.5.92.37.8.42,1.35.81.67.46.62.45.55.44.94.8.36.36.56.69.21.38.11.25.14.36.06.37.02.61-.08,1.28-.1.14-.3.17-.59.22-.29.09s-.04.04-.07.05h-.02s-.67.19-.67.19l-.8.18-.9.16-.85.12-1.12.13-1.01.08-.99.03-.98-.02-.98-.05-.99-.09-1.01-.12-1.04-.14-4.47-.74-2.5-.39-1.36-.18-1.46-.17-1.57-.14-1.56-.11-1.41-.07-2.13-.06-2.94-.03h-.28c.37-1.28.87-2.22,1.24-2.78.41-.61.75-.93.8-.98l.53-.45.58-.34.79-.33.86-.27,3.6-.95,2.14-.55ZM.66,162.88l-.02-4.1,66.84,9.33v4.26S.68,162.95.68,162.95l-.02-.07ZM.53,130.7l.02-.12,66.9,8.78-.03.17.06,27.27L.65,157.48l-.12-26.78ZM193.98,167.2l-.77-.21-3.09-.74.2-.44.06-.08,7.72-.95,3.11.79.09.04.23.67-7.56.92ZM105.89,177.94l-.18-.03s0,0,0,0l-22.88-5.7,2.97-.35s0,0,0,0h.03s.05-.04.07-.05c.03-.02.06-.03.08-.06,0,0,.01,0,.01,0,.02-.03,0-.06.02-.09,0-.03.03-.05.02-.08,0,0,0,0,0-.01,0,0,0-.01,0-.02l-.2-.86-.03-.1-.13.06h0s.11-.11.11-.11l-.1-.16-1.48-.7,6.73-.8-.31.53s0,.03,0,.04c0,.01-.02.02-.02.03,0,.02,0,.04,0,.07,0,.02-.02.05,0,.07,0,.01.02.02.02.03.01.03.03.05.06.08.02.02.02.04.04.05.01,0,.03,0,.04,0,.01,0,.02.02.03.02l1.72.43-.05.02-.16.12-.06.11-.53-.15-.18-.02-3.37.4-.08.02-.18.07-.06.04.09.11h0s-.14-.07-.14-.07l-.04.04-.63,1.29s0,.02,0,.03c0,0-.01.01-.02.02,0,.03.01.05.01.08,0,.03-.01.05,0,.08,0,0,.01.01.02.02,0,0,0,.02,0,.03.01.02.04.03.06.05.02.02.03.05.05.06.01,0,.02,0,.04,0,0,0,0,0,.01,0l20.63,5.13-2.04.25ZM70.04,170.07l-.26.22-.06.09s0,0,0,0l-.05.07-.14.31-.07.36v1.52s-1.09-.15-1.09-.15l-.05-.15v-4.57s-.01-.08-.01-.08c0,0,0,0,0,0v-.5s0,0,0,0,0,0,0,0l-.06-27.56.03-.17,7.54.99.03.02v.13s.05,28.59.05,28.59l-4.4.52-.56.07-.4.07-.25.09-.24.13ZM76.38,140.61v-.13s46.42-5.2,46.42-5.2l.07.02.06.11.02,28.2-46.51,5.52-.05-28.52ZM163.11,159.71h.05s3.01,1.31,3.01,1.31l.06.04.08.3-.25.03-.2.03-.18.07-.14.11-.07.11-.53-.14-.18-.02-2.35.28-.06-.25-.09-.25-.06-.09-2.36-1.1.02-.03,3.25-.41ZM198.91,162.44l-.13.06-.15.12-.05.08-.47-.13-.18-.02-.77.09-.02-.06-.14-.21-.14-.11-3.23-.86-.18-.02-.76.09-.02-.06-.15-.22-.14-.1-1.93-.51,2.88-.36,7.35,1.36h.02s.01,0,.01,0l.12.02.09.04.16.49-1.99.24-.16.03ZM198.93,164.2l-.15.12-.04.06-.44-.12-.21-.02-.84.1-.02-.07-.15-.22-.14-.1-1.93-.51,2.9-.36,3.11.79h.01s-1.84.23-1.84.23l-.27.09ZM189.97,165.39l-.37.73-4.01-.96.24-.51.06-.08,3.23-.41,3.11.79h.02s-1.86.23-1.86.23l-.27.09-.15.12ZM190.03,166.96l.15.43-3.88.47-.15-.48-.02-.06-.15-.22-.14-.1-1.94-.52,2.94-.37,3.12.79.09.04ZM105.46,176.53l.21-.47.07-.08,5.58-.69,3.01.79.13.03.06.03.16.46-5.9.72-.25-.02-3.07-.76ZM94.61,171.65h0s-2.03.24-2.03.24l-.08.02-.18.07-.16.12-.49,1-3.93-.98.35-.78.07-.08,3.38-.42,3.08.81ZM96.09,170.3l3.11.82h0s-.14.06-.14.06l-.15.12-.06.09-.51-.14-.18-.02-2.92.35-.02-.05-.16-.22-.13-.09-1.93-.53,3.09-.38ZM83.15,169.18l8.18-.97-.06.1-7.97.95-.16-.07ZM158.68,160.24h.05s3,1.31,3,1.31l.06.04.08.3-.37.04-.08.02-.18.07-.14.11-.07.11-.53-.14-.18-.02-2.34.28-.06-.26-.1-.24-.06-.09-2.36-1.09.02-.03,3.25-.41ZM176.17,166.89l-1.77-.43.22-.47.06-.08,3.25-.41,3.11.79h0s-1.89.23-1.89.23l-.08.02-.18.07-.15.12-.06.1-.52-.14-.19-.02-1.8.22ZM181.72,167.97l-.13-.25-.18-.15-1.96-.53,2.95-.37,3.12.8.09.04.15.44-3.89.47-.14-.44ZM183.59,165.99l-.09.02-.18.07-.15.12-.06.1-.52-.14-.19-.02-.75.09-.02-.06-.15-.22-.14-.1-3.24-.86-.18-.02-3.25.39-.09.02-.18.07-.15.12-.48.97s0,.02,0,.03c0,0-.01.01-.02.02,0,.03.01.05.01.08,0,.03,0,.06.02.1.02.03.04.05.07.07.02.02.03.05.05.06.01,0,.02,0,.04,0,0,0,0,0,.01,0l.71.17h-.04s-.18.08-.18.08l-.15.12-.45.9s0,.02,0,.03c0,0-.01.01-.02.02,0,.03.01.05.01.08,0,0,0,0,0,0l-2.82-.76-.18-.02-.59.07v-.03s-.08-.12-.08-.12l-.11.09h0s.08-.13.08-.13l-.18-.15-3.23-.87-.19-.02-.64.08v-.03s-.11-.16-.11-.16l-.18-.15h0s11.82-1.42,11.82-1.42c0,0,0,0,0,0,.01,0,.03,0,.04,0,.03,0,.04-.04.06-.05.03-.02.06-.03.07-.06.02-.03.02-.06.03-.1,0-.03.02-.05.02-.08,0,0-.01-.01-.01-.02,0,0,0-.02,0-.02l-.19-.6,8.27,1.98-2.13.26ZM164.76,162.08l3.08.79-1.78.21-.19.03-.18.07-.11.08-.09.14-.53-.14-.19-.02-.74.09-.02-.05-.08-.14-.1.1h0s.08-.13.08-.13l-.04-.05s-.04-.04-.07-.06l-.08-.05-1.9-.51,2.93-.37ZM169.18,161.55l3.08.78-1.76.21-.2.03-.19.07-.14.12-.06.1-.52-.14-.19-.02-.74.09-.02-.05-.15-.22-.13-.09-1.91-.51,2.93-.36ZM154.53,171.08h0s0,0,0,0h0ZM128.27,174.28h0s0,0,0,0h0ZM157.3,162.08l.07.04.08.3-.38.05-.08.02-.19.07-.14.11-.09.18-2.34.28-.72-.19-.19-.02-.24.03-2.75-.66.6-1.03.08-.09,3.23-.4h.05s3.01,1.31,3.01,1.31ZM178.8,161.47h0s-1.86.23-1.86.23l-.26.08-.15.12-.44.89-2.27-.6-.21-.02-.3.04-.51-.12-.21-.19-.44-.12.28-.6.07-.08,3.23-.4,3.08.78ZM183.2,160.95h0s-1.85.22-1.85.22l-.08.02-.18.07-.15.12-.06.09-.52-.14-.21-.02-.74.09-.02-.06-.15-.22-.13-.1-1.91-.51,2.9-.36,3.09.78ZM187.59,160.42h0s-1.84.22-1.84.22l-.09.02-.18.07-.15.12-.06.1-.52-.14-.18-.02-.76.09h0s-.02-.06-.02-.06l-.15-.22-.14-.1-1.9-.5,2.89-.36,3.08.78ZM193.43,161.94l3.1.78h.01s-1.84.23-1.84.23l-.09.02-.18.07-.15.12-.06.09-.51-.14-.21-.02-.74.09h0s-.02-.06-.02-.06l-.15-.22-.14-.1-1.92-.51,2.89-.36ZM190.04,163.57l-.15.12-.06.1-.52-.14-.19-.02-.76.09-.02-.06-.15-.22-.14-.1-1.92-.51,2.9-.36,3.1.79h.01s-1.85.23-1.85.23l-.09.02-.18.07ZM165.14,168.27l-.15.12-.07.12-.55-.15-.18-.02-5.01.61v-.02s-.08-.13-.08-.13l-.11.09h0s.08-.13.08-.13l-.05-.06-.12-.09-1.96-.53,9.58-1.17,3.03.78-4.13.5-.09.02-.18.07ZM114.21,174.38l-.15-.22-.13-.09-1.97-.54,3.04-.38,3.04.8-3.83.46v-.02ZM107.62,173.5l-.08-.16-.11.09h0s.08-.13.08-.13l-.06-.07-.13-.09-1.95-.53,3.04-.38,3.09.81h0s-.12.05-.12.05l-.15.12-.05.09-.49-.14-.19-.02-2.89.35ZM101.85,172.44l-.1-.16-.19-.15-1.93-.53,3.07-.38,3.05.8h.03s-.72.1-.72.1l-.08.02-.19.07-.14.11-.06.1-.49-.13-.19-.02-2.04.25-.02-.05ZM100.64,169.75l2.96.78.14.04h0s-.14.06-.14.06l-.16.12-.06.1-.52-.14-.19-.02-2.9.35-.09-.17-.11.09.08-.13-.19-.15-1.92-.53,3.07-.38ZM98.98,169.16l-.05-.16-.12.07h0l.11-.1-.09-.15-2.35-1.11.04-.05,3.35-.43h.05s3,1.34,3,1.34l.07.04.08.31-1.25.15-.08.02-.19.07-.14.11-.07.11-.53-.14-.18-.02-1.6.19-.06-.25ZM160.32,162.61l3.08.79h0s-1.89.23-1.89.23l-.09.02-.18.07-.15.12-.46.93-1.24-.29s-.02,0-.03,0l-1.43-.38-.19-.02-.97-.24-.06-.04h-.03s.32-.7.32-.7l.06-.08,3.25-.4ZM151.9,169.88l-.15.12-.05.08-.49-.13-.18-.02-.76.09v-.02s-.16-.23-.16-.23l-.13-.09-1.94-.52,2.98-.37,3.03.78-1.86.23-.09.02-.18.07ZM125.73,173.06l-.14.11-.08.13-.57-.16-.18-.02-1.49.18v-.02s-.16-.23-.16-.23l-.12-.09-1.96-.54,3.05-.38,3.03.79-1.1.13-.08.02-.19.07ZM118.94,173.88l-.15.12v.02s-.05-.12-.05-.12l-.02-.06-.15-.22-.14-.1-1.95-.53,3.06-.38,3.04.79-3.36.41h-.08s-.19.09-.19.09ZM99.58,170.92h0s0,0,0,0h0ZM104.43,166.69h.07s2.98,1.34,2.98,1.34l.06.04.08.31-1.27.15-.08.02-.18.07-.14.11-.07.11-.52-.14-.19-.02-1.56.19-.06-.25-.03-.12-.15-.24-2.32-1.09.03-.04,3.34-.42ZM108.98,166.15h.05s3,1.33,3,1.33l.07.04.08.31-1.3.15-.08.02-.19.07-.14.11-.07.11-.52-.14-.18-.02-1.53.18-.07-.3-.03-.1-.13.06h0s.11-.11.11-.11l-.11-.16-2.34-1.1.03-.04,3.33-.42ZM111.35,165.89l3.33-.42h.05s3,1.33,3,1.33l.06.04.09.32-2.48.3-.08.02-.18.07-.16.12-.06.1-.52-.14-.18-.02-.75.09-.82-.2-.04-.11-.13.06h0l.11-.11-.11-.17-1.47-.69.3-.52.05-.06ZM119.2,164.93h.05s3,1.33,3,1.33l.06.04.08.31-2.51.3-.09.02-.19.07-.14.11-.06.1-.51-.14-.19-.02-.3.04-.07-.3-.03-.1-.13.06h0s.11-.11.11-.11l-.1-.15-2.34-1.1.03-.04,3.32-.42ZM123.72,164.4h.05s3,1.33,3,1.33l.06.04.08.31-2.53.3-.08.02-.18.07-.16.12-.06.09-.51-.14-.18-.02-.27.03-.06-.25-.04-.14-.13.06h0s.11-.1.11-.1l-.1-.15-2.35-1.1.03-.04,3.31-.42ZM150.05,169.94h0s0,0,0,0ZM141.09,171.03h0s0,0,0,0h0ZM128.22,163.86h.05s3,1.33,3,1.33l.06.04.08.31-2.33.27-.31.04-.18.07-.14.11-.07.1-.52-.14-.18-.02-.24.03-.07-.3-.02-.07-.13-.22-2.35-1.1.03-.04,3.3-.42ZM130.57,163.61l3.29-.42h.05s3,1.32,3,1.32l.06.04.12.45-.27-.07-.19-.02-3.13.37-.25.04-.19.07s-.05.03-.06.04l.02.03-1.15-.28-.15-.3-1.51-.7.29-.51.05-.06ZM138.35,162.66h.05s3,1.32,3,1.32l.06.04.12.46-.3-.08-.19-.02-3.11.37-.27.04-.1.04-.07-.3-.09-.24-.07-.09-2.35-1.1.03-.03,3.29-.42ZM142.82,162.12h.05s3,1.32,3,1.32l.06.04.12.47-.33-.09-.21-.02-3.26.39-.08.02-.08.03-.07-.29-.1-.24-.06-.09-2.35-1.09.02-.03,3.28-.42ZM147.28,161.59h.05s3,1.32,3,1.32l.06.04.08.31-3.86.46h-.06s-.07-.29-.07-.29v-.05s-.15-.24-.15-.24l-2.36-1.1.02-.03,3.27-.42ZM153.06,163.48h0s0,0,0,0l.25-.03,3.06.79-3.18.38-.08.02-.18.07-.15.12-.04.07-.46-.12-.19-.02-2.86.34-.02-.05-.15-.22-.13-.09-1.93-.52,6.04-.74ZM112.12,172.96l-.08-.16-.11.09.08-.13-.05-.05-.14-.1-1.94-.53,3.07-.38,3.1.81h0s-.11.05-.11.05l-.16.12-.06.1-.52-.14-.18-.02-2.9.35ZM106.39,171.9l-.15-.21-.14-.1-1.93-.53,3.07-.38,3.05.8h.03s-.71.09-.71.09l-.08.02-.19.07-.15.12-.06.1-.52-.14-.18-.02-2.01.24-.02-.05ZM105.17,169.21l2.99.78.12.03h0s-.13.05-.13.05l-.14.11-.07.11-.52-.14-.19-.02-2.9.35-.02-.05-.16-.23-.13-.09-1.92-.53,3.06-.38ZM157.74,164.6l3.08.79-5.02.6-.02-.05-.08-.13-.1.1h0s.08-.13.08-.13l-.05-.05-.14-.1-1.92-.51,4.14-.51h0s0,0,0,0h.01ZM154.24,166.24l-.15.12-.06.09-.51-.14-.18-.02-1.98.24-.11-.2-.19-.16-1.93-.52,2.84-.35.11-.02,3.06.79h.02s-.65.08-.65.08l-.09.02-.18.07ZM156.35,167.66l-.14.11-.06.1-.5-.14-.18-.02-2.85.34v-.03s-.09-.14-.09-.14l-.1.1h0s.08-.13.08-.13l-.05-.05-.13-.09-1.95-.53,2.96-.37,3.1.8h0s-.1.04-.1.04ZM138.29,170.04l-.51-.14-.18-.02-2.87.35-.11-.19-.19-.15-1.94-.53,3.01-.38,3.03.79.07.02-.12.05-.14.11-.06.1ZM134,170.36l-.15.12-.06.1-.52-.14-.18-.02-2.87.35v-.03s-.16-.22-.16-.22l-.14-.1-1.94-.53,3.02-.38,3.1.8h0s-.1.04-.1.04ZM129.5,170.91l-.14.11-.07.11-.52-.14-.18-.02-2.88.35-.11-.2-.19-.15-1.94-.53,3.03-.38,3.1.81h0s-.11.04-.11.04ZM124.99,171.45l-.16.12-.06.1-.52-.14-.17-.02-2.89.35v-.03s-.16-.22-.16-.22l-.14-.1-1.94-.53,3.04-.38,3.1.81h0s-.11.04-.11.04ZM120.47,172l-.16.12-.06.1-.52-.14-.19-.02-2.89.35-.11-.2-.19-.15-1.94-.53,3.06-.38,3.09.81h0s-.11.05-.11.05ZM109.7,168.67l3.01.79.1.03h0s-.14.06-.14.06l-.15.12-.06.1-.52-.14-.18-.02-2.89.35-.02-.05-.07-.12-.11.09h0l.08-.13-.18-.15-1.92-.52,3.05-.38ZM114.21,168.13l3.08.8h.03s-.13.06-.13.06l-.15.12-.06.1-.52-.14-.18-.02-2.89.34-.02-.05-.1-.16-.18-.15-1.93-.53,3.04-.38ZM118.71,167.59l3.08.8h.03s-.12.06-.12.06l-.15.12-.06.1-.51-.14-.19-.02-2.88.34-.12-.21-.19-.15-1.92-.52,3.02-.38ZM123.21,167.05l3.08.8.04.02-.11.04-.14.11-.07.11-.51-.14-.19-.02-2.88.34-.02-.05-.08-.14-.1.1h0s.08-.13.08-.13l-.04-.05-.14-.1-1.92-.52,3.01-.37ZM127.69,166.51l3.08.8.04.02-.12.04-.15.12-.06.09-.51-.14-.18-.02-2.88.34-.02-.05-.15-.22-.13-.09-1.92-.52,3-.37ZM155.58,165.89h0s0,0,0,0ZM148.66,165.18l-.12.04-.14.11-.06.1-.5-.13-.19-.02-2.86.34-.02-.05-.15-.21-.14-.1-1.91-.51,2.95-.37,3.13.8ZM110.93,171.35l-.15-.22-.17-.12-1.9-.51,3.05-.38,3.05.8h.03s-.71.09-.71.09l-.08.02-.18.07-.16.12-.06.1-.52-.14-.19-.02-2.01.24-.02-.05ZM149.79,166.77l-.15.12-.05.09-.49-.13-.21-.02-1.97.24-.02-.05-.07-.12-.11.09h0s.08-.13.08-.13l-.05-.05-.14-.1-1.92-.52,2.96-.37,3.06.79h.02s-.67.08-.67.08l-.27.09ZM145.35,167.31l-.15.12-.06.09-.5-.14-.19-.02-1.99.24-.12-.21-.18-.15-1.93-.52,2.97-.37,3.08.79-.66.08-.09.02-.18.07ZM140.88,167.84l-.14.11-.06.1-.51-.14-.19-.02-2,.24-.02-.05-.15-.22-.14-.1-1.93-.52,2.99-.37,3.03.78h.04s-.67.09-.67.09l-.26.08ZM136.4,168.39l-.15.12-.06.09-.51-.14-.18-.02-2,.24-.02-.05-.15-.22-.13-.09-1.94-.53,3.01-.37,3.08.8-.68.08h-.08s-.19.09-.19.09ZM131.92,168.92l-.14.11-.07.11-.51-.14-.19-.02-2,.24-.12-.21-.19-.15-1.93-.52,3.01-.37,3.08.8-.68.08-.09.02-.18.07ZM127.42,169.47l-.15.12-.06.1-.51-.14-.19-.02-2,.24-.02-.05-.1-.16-.19-.15-1.93-.52,3.02-.38,3.06.79h.03s-.69.09-.69.09l-.09.02-.19.07ZM122.92,170.01l-.16.12-.06.1-.52-.14-.18-.02-2,.24-.02-.05-.15-.21-.14-.1-1.93-.53,3.03-.38,3.06.8h.03s-.69.09-.69.09h-.08s-.18.08-.18.08ZM118.4,170.55l-.15.12-.06.1-.52-.14-.19-.02-2.01.24-.02-.05-.16-.23-.13-.09-1.93-.53,3.05-.38h.05s3,.8,3,.8h.03s-.7.09-.7.09l-.08.02-.18.07ZM135.66,166.59s0,0,0,0h0s0,0,0,0ZM144.16,165.7l.04.02-.1.04-.15.12-.05.09-.51-.14-.18-.02-2.87.34-.02-.05-.15-.22-.13-.09-1.93-.52,2.97-.37,3.08.79ZM139.73,166.24h.02s-.11.05-.11.05l-.15.12-.06.09-.5-.14-.19-.02-2.87.34-.02-.05-.07-.13-.11.09h0s.08-.13.08-.13l-.05-.06-.13-.09-1.91-.52,2.97-.37,3.1.8ZM132.17,165.98l3.08.79.04.02-.11.04-.15.12-.06.1-.51-.14-.19-.02-2.88.34-.02-.05-.07-.13-.11.09h0s.08-.13.08-.13l-.04-.05-.13-.09-1.93-.53,2.99-.37ZM152.4,167.97h0s0,0,0,0h0ZM139.2,169.65l-.08-.14-.1.1h0s.08-.13.08-.13l-.04-.05-.13-.09-1.95-.53,3-.37,3.1.8h0s-.1.04-.1.04l-.14.11-.06.1-.51-.14-.17-.02h0s-2.89.34-2.89.34v-.03ZM143.68,169.11l-.16-.23-.13-.09-1.94-.52,2.98-.37,3.1.8h0s-.1.04-.1.04l-.15.12-.06.09-.51-.14-.18-.02-2.86.34v-.03ZM148.14,168.57l-.15-.21-.14-.1-1.93-.52,2.97-.37,3.11.8-.1.04-.14.11-.06.1-.51-.14-.2-.02-2.84.34v-.03ZM156.17,163.65l-.56-.15.67-.08-.11.23ZM151.02,163.19l-.05-.21.6.14-.55.07ZM149.33,161.92l.65-.08-.18.3-.48-.22ZM129.9,163.7l-.54.07-.15-.07.74-.09-.05.09ZM127.78,172.73l-.16-.23-.13-.09-1.95-.53,3.04-.38,3.03.79-3.83.46v-.02ZM132.3,172.18l-.08-.14-.1.1h0s.08-.13.08-.13l-.05-.05-.14-.1-1.95-.53,3.03-.38,3.03.79-3.81.46v-.02ZM136.8,171.64l-.1-.16-.19-.15-1.95-.53,3.02-.38,3.03.79-3.81.46v-.02ZM141.3,171.09l-.08-.13-.1.1h0s.08-.13.08-.13l-.05-.05-.13-.09-1.96-.53,2.98-.37h.03s3.1.8,3.1.8l.08.04-.12.09-.06.1-.53-.14-.19-.02-3.05.37v-.03ZM145.78,170.55l-.15-.22-.14-.1-.07.12s0,0,0,0l.04-.14-1.9-.51,2.98-.37,3.03.78-3.78.46v-.02ZM154.72,169.46l-.15-.21-.14-.1-1.94-.52,2.97-.37,3.11.8h0s-.08.03-.08.03l-.15.12-.05.08-.49-.13-.18-.02-2.89.35v-.02ZM157.05,167.52v-.03s-.08-.13-.08-.13l-.11.09h0s.08-.13.08-.13l-.05-.05-.14-.1-1.93-.52,7.35-.9,3.04.78-8.16.98ZM161.15,164.89l.3-.66.05-.05,3.26-.4,3.13.8.05.03.23.68-3.56.43-3.45-.82ZM168.48,164.48l-.17-.27s-.05-.04-.06-.05l-.08-.05-1.88-.5,2.91-.38,3.09.79.09.04.22.67-3.89.47-.23-.73ZM172.92,163.96l-.02-.06-.15-.22-.14-.1-1.91-.51,2.93-.37,3.09.79.09.04.22.67-3.88.47-.23-.72ZM185.82,162.33l-.08.02-.18.07-.15.12-.06.09-.51-.14-.21-.02-.74.09-.02-.06-.15-.22-.14-.1-1.91-.51,2.9-.36,3.09.78h.01s-1.85.23-1.85.23ZM177.15,163.13l-.12-.09-.43-.12.28-.61.06-.08,3.23-.4h.02s3.07.79,3.07.79h0s-1.86.23-1.86.23l-.09.02-.18.07-.15.12-.44.89-3.4-.82ZM150.32,161.27l-1.9.23-.14-.07,2.09-.25-.05.09ZM110.68,165.99l-.56.07-.15-.07.77-.09-.06.1ZM181.08,164.08l.27-.59.06-.08,3.23-.4,3.1.79h.02s-1.86.23-1.86.23l-.08.02-.18.07-.15.12-.4.81-4-.96ZM190.22,161.8l-.08.02-.18.07-.15.12-.06.09-.52-.14-.18-.02-.76.09-.02-.07-.07-.12-.11.09h0s.04-.07.04-.07l.06-.03-.2-.18-1.91-.51,2.89-.36,3.09.78h.01s-1.84.23-1.84.23ZM170.03,167.52h0s0,0,0,0h0ZM191.95,159.89l-1.86.22-.12.03-.13.06-.14.11-.06.09-.49-.13-.18-.02-.76.09-.02-.06-.15-.22-.13-.09-1.91-.51,2.88-.36,3.07.77ZM115.07,176.07l-.03-.09-.15-.22-.14-.1-1.96-.54,5.26-.65,3.11.82.07.02.17.47-6.18.75-.15-.46ZM121.79,175.22l-.09-.18-.11.09.08-.13-.05-.06-.12-.09-1.97-.54,5.24-.65,3.11.81.09.04.15.45-6.16.75-.16-.49ZM128.51,174.44l-.11-.22-.11.09s0,0,0,0l.08-.13-.05-.05-.13-.09-1.97-.54,18.13-2.21,3.11.81.09.04.15.45-19.05,2.32-.15-.46ZM148.11,172.05l-.04-.1-.15-.22-.13-.09-1.95-.53,5.18-.64,3.11.81.09.04.15.45-6.12.75-.14-.46ZM154.76,171.21l-.02-.06-.07-.13-.11.09h0s.08-.13.08-.13l-.05-.05-.13-.1-1.96-.53,5.11-.63,3.11.8.09.04.15.45-6.05.74-.15-.49ZM161.36,170.4l-.02-.06-.08-.13-.11.09h0l.08-.13-.05-.05-.14-.1-1.95-.52,5.09-.63,3.11.8.09.04.15.44-6.03.74-.15-.49ZM91.9,168.27l.05-.06,3.36-.43h.05s3,1.34,3,1.34l.07.04.08.31-1.22.15-.08.02-.19.07-.15.12-.06.1-.52-.14-.19-.02-2.19.26-2.64-.65.63-1.1ZM92.51,172.53l.06-.08,5.58-.69,3.09.81-4.22.51-.08.02-.18.07-.15.12-.46.93-3.95-.98.32-.7ZM96.95,173.71l.06-.08,6.9-.85h.03s3.01.8,3.01.8l-5.54.67-.08.02-.19.07-.15.12-.42.85-3.91-.97.29-.63ZM101.34,174.89l.07-.09,9.1-1.11,3.03.8-1.04.13-.09.02-.18.07-.16.12-.06.09-.51-.14-.19-.02-5.58.67-.08.02-.19.07-.15.12-.39.77-3.85-.96.25-.56ZM168.08,170.09l-.15-.49-.02-.06-.15-.22-.14-.1-1.95-.52,5.15-.64,3.15.81.06.03.15.44-6.09.74ZM192.84,164.82l-.15-.22-.14-.1-1.93-.51,2.91-.36,3.11.79h.02s-3.79.47-3.79.47l-.02-.06ZM201.52,161.82l.9.21h-.16s-.65.07-.65.07l-.09-.28ZM192.59,159.81l-.02-.05-.06-.08.39.09-.32.04ZM185.68,158.96h-.08s-.18.08-.18.08l-.15.12-.06.1-.51-.14-.21-.02-3.2.38-.08.02-.18.07-.15.11-.06.1-.52-.14-.21-.02-3.2.38-.09.02-.18.07-.14.11-.07.11-.53-.14-.2-.02-3.21.38-.08.02-.18.07-.15.12-.44.89-2.25-.6-.19-.02-2.34.28-.07-.29-.09-.21-.06-.08-1.47-.68,19.22-2.29h0s0,0,0,0l3.84.91-2.54.3ZM78.11,170.91l.62-1.08.05-.06,3.38-.43h.05s3,1.35,3,1.35l.07.04.16.64-3.61.43h-.13s-3.6-.88-3.6-.88ZM174.64,167.7l.06-.08,3.26-.41,3.11.8.09.04.15.43-2.92.36-.55.07h-.06s-.02,0-.02,0l-3.3-.79.19-.41ZM184.15,157.23l-19.91,2.38-.14-.06,20.05-2.38v.07ZM123.74,138.41l.04-.19,33.84-3.8v2.15s0,0,0,0v.84s0,1.62,0,1.62h0s0,9.52,0,9.52c0,0,0,0,0,0v.06s0,0,0,0v3.12s0,3.96,0,3.96c0,0,0,0,0,0v.03s0,0,0,0v.17s0,3.61,0,3.61l-33.85,4.02v-3.56s.04.02.06.02l32.5-3.83s.03-.02.05-.03c.03-.01.06-.01.09-.03,0,0,0-.02.01-.02.03-.03.04-.07.06-.12,0-.02.03-.04.03-.06v-7.26s0,0,0-.02c0,0,0,0,0-.02,0-.03-.03-.05-.04-.08-.02-.03-.02-.06-.05-.09,0,0,0-.01,0-.02-.03-.02-.06-.01-.09-.02-.03,0-.05-.03-.08-.03,0,0,0,0-.01,0,0,0-.01,0-.02,0l-32.47,3.77s-.02.02-.04.02v-13.75ZM124.5,158.85v-5.73s31.17-3.62,31.17-3.62v5.68s-31.17,3.67-31.17,3.67ZM78.17,169.77l-.06.1-3.15.38-.26-.06,3.47-.41ZM77.77,170.45l-.26.44-1.11-.28,1.36-.16ZM174.79,169.54s-.01-.01-.01-.02c0,0,0-.02,0-.03l-.22-.69-.02-.06-.05-.07,2.51.61-2.21.27ZM190.8,167.59l-.21-.68,1.96.47-1.74.21ZM201.86,165.5l-.02-.06-.15-.21-.14-.11-1.94-.51,2.81-.35,3.11.79.09.04.2.67-3.73.45-.23-.71ZM206.23,165.19l-.09-.28-.15-.22-.14-.1-3.24-.86-.21-.02-.75.09-.02-.06-.15-.22-.13-.09-1.98-.53,2.88-.36,7.53,1.4.09.04.41,1.22-3.94.48-.13-.49ZM210.44,163.94l3.46.82-3.07.37-.4-1.2ZM215.42,164.58l-14.38-3.42s-.03,0-.04,0l-.15-.03s-.03-.03-.05-.03l-16.13-3.84v-.08s30.97,7.36,30.97,7.36l-.23.03ZM158.13,159.43v-5.64s0,0,0,0v-2.06s0-14.53,0-14.53v-2.84s.52-.06.52-.06l.29.04s.02,0,.04,0v25s-.85.1-.85.1ZM265.31,158.34h-.01s0,0,0,0l-1.51.4.02-.16.11-.45.08-.22.1-.21.11-.2.13-.18.14-.17.15-.15.16-.13.22-.15.18-.1.19-.08.29-.08,1.05-.2.3-.03h.21s.22.04.22.04l.26.06.2.07.2.09.19.11.18.13.18.15.17.16.16.18.11.15-3.78.98ZM262.51,159.67l-.14.11-.1.1c-.15.14-1.48,1.41-2.23,4.12l-.9.02h-1.95s-1.13,0-1.13,0l-.4-.02s-.04-.04-.06-.05l-.04-.03s0,0,0,0c0,0,0,0,0,0l-.22-.13.02-.06s0,0,0,0h0s.21-.57.21-.57l.18-.32.28-.34.43-.36.63-.39.89-.46.87-.37,1.4-.52,1.78-.59.47-.14ZM122.77,134.53h-.33c-.11.01-.2.08-.24.19-.01.03,0,.07,0,.1l-45.88,5.12s-.06.01-.09.03l-.1.05-.09-.05s-.06-.03-.09-.03l-6.09-.8,87.92-9.78h.08s5.37.66,5.37.66l-40.45,4.51ZM159.51,159.27v-24.99s-.02-.29-.02-.29c0-.02-.02-.03-.03-.05,0-.02,0-.05,0-.06-.01-.02-.03-.02-.05-.04-.01-.01-.01-.03-.03-.04-.01,0-.03,0-.05,0-.02,0-.03-.03-.04-.03l-.22-.05s-.06,0-.09,0l-35.29,3.97s-.07.02-.11.04l-.11.07v-2.42s-.01-.09-.03-.13l-.13-.23,41.64-4.63h.05s.1.14.1.14v20.29h-.01v1.42s0,6.4,0,6.4l-5.56.66Z"/>
      <path d="M156.03,157.56s-.06-.03-.09-.04c-.03-.01-.05-.03-.08-.03,0,0,0,0-.02,0,0,0,0,0-.02,0l-3.58.42c-.13.02-.23.13-.23.26v1.17s0,0,0,.02c0,0,0,0,0,.02,0,.04.03.07.05.1.01.02.02.05.03.06.05.05.11.07.18.07l1.28-.15s0,0,0,0l3.02-.22s.04,0,.08-.02c.02,0,.04-.01.07-.03l.03-.02s.05-.04.08-.07l.02-.03s.05-.1.05-.15v-.93s0-.08-.03-.12l-.02-.03s-.01-.03-.04-.06c-.03-.04-.08-.07-.13-.09l-.61-.09s-.02-.03-.03-.04ZM152.54,158.99v-.49l3.82-.27v.49l-3.82.27Z"/>
    </g>
  </g>
</svg>