<?xml version="1.0" encoding="UTF-8"?>
<svg id="Layer_2" data-name="Layer 2" xmlns="http://www.w3.org/2000/svg" viewBox="0 0 317.42 208.43">
  <g id="Layer_1-2" data-name="Layer 1">
    <g>
      <path d="M317.4,178.1v-.04l-.11-.37v-.06l-.15-.26-.24-.35s-.02-.02-.04-.04l-4.42-3.86s0-.02-.02-.02l-.59-.37-.5-.3-.85-.3-1.06-.33-.02-12.64-.09-.69s-.02-.04-.02-.06l-.3-.59s-.02-.04-.04-.04l-.46-.41-.09-.06s-.04-.02-.06-.02l-.54-.15h-.04l-18.04-.13.15-.06s.04-.02.06-.04l.35-.35s.04-.04.04-.09l.06-.2,17.37-.15h.04l.54-.15s.04-.02.06-.02l.07-.07s.04-.02.07-.06l.41-.35s.04-.02.04-.04l.3-.59v-.06l.11-.72-.04-43.69-.11-.72v-.04l-.3-.59s-.02-.04-.04-.06l-.46-.41-.09-.07s-.04-.02-.06-.02l-.54-.15h-.04l-59.32-1.02-16.95.41-2.3-98.93-.06-.54-.15-.5-.22-.48-.28-.37s-.02,0-.02-.02l-.32-.28s-.02,0-.04-.02l-.56-.28s-.04-.02-.04-.02l-.43-.09-.76-.02h-.04l-4.03-.13-10.06-.37-.07-.04h-.07l-2.97-.11s-.02-.02-.04-.02L76.18.37l-1.37-.04h-.02l-9.89-.33-.43.04h-.04l-.41.17s-.02,0-.04.02l-.17.13-32.67,3.9h-.04l-.5.17-.3.15-.56.3h-.04v.02h-.02l-.39.33s-.02.02-.02.02l-.24.33-.22.39-.2.46-13.14,50.62-13.68,4.57s-.02,0-.04.02l-.43.26-.41.26s-.04.02-.04.04l-.33.41-.13.22-.24.5v.04l-.11.69-.04,35.92.11.67v.04l.24.5s0,.02.02.02l.24.3.2.24s.02.02.04.02l.41.3s.04.02.04.02l.46.17.56.11,8.15.8-.04,40.58.07.52v.04l.17.5s.02.02.02.04l.28.43s.02.02.02.04l.39.37s.02.02.02.02l.46.28s.02.02.04.02l.5.17h.02l.54.07,10.93.11v1.63s0,.04.02.04l-1.32.02h-.04l-.09.02h-1.17l-2.08.02h-.04l-.09.02h-1.17l-2.08.02h-.04l-.07.02h-1.19l-1.15.02-.48.02-.82.11s-.02.02-.04.02l-.72.3s-.02,0-.04.02l-4.38,3.17-.3.3s-.04.04-.04.06l-.13.37s-.02.04-.02.07l-.06,49.67s.02.07.04.09l.41.69s.07.06.11.09l.98.28s.02.02.04.02h1.52v.43s0,.04.02.07l.2.5s.07.09.11.09l.48.22h.06l3.12.02.07.3s.02.04.04.04l.09.15s.07.04.09.07l.17.06h1.02l1.69,1.69s.02.02.02.04l.24.13.37.17.39.11.32.07,2.91.02,4.08-.02h.07l.33-.07.39-.13.35-.15.22-.13h1.76s.04.02.04.02l2.3.13.3.02h.09l3.6-.15,4.47-.17,3.23-.09,2.69-.02h2.43l8.07.09.91.09,1.91.09h2.21l2.56-.06,2.51-.09,2.28-.04,2.12-.02,1.99.02,5.9.11,4.36.07,2.45-.02,2.71-.02,3.01-.09,3.12-.07,2.99-.02,9.41.09h1.21l1.24-.02,1.26-.07,1.19-.09h20.29l1,1s.02.02.04.02l.24.15.39.17.39.11.35.07,2.9.02h4.36s.04-.02.07-.02l.32-.07.39-.11.37-.17.24-.13s.02-.02.04-.04l1.11-1.11,4.73-.07,4.34-.11,4.31-.15,2.58-.11.26.26s.02.02.04.02l.22.13.37.17.37.11.32.06,3.19.02,3.62-.02h.04l.33-.06.37-.11.35-.17.22-.13s.02,0,.04-.02l1.19-1.17,9.56-.04v.17c0,.11.07.17.17.2h1.99l.93-.02c.09,0,.17-.06.17-.17v-.2l9.95-.02,1.45,1.47.11.09s.04.02.07.02l.26.06s.04.02.07.02l3.86.02,4.68-.02h.07l.26-.09s.04-.02.07-.02l.13-.11,1.47-1.5,17.04-.07,1.45,1.45.11.09s.04.02.07.02v.02l.24.07h.07l3.9.02,4.62-.02h.04l.28-.07s.02-.02.04-.04l.15-.09,1.45-1.52h1.71l.04.15s.02.04.04.07l.35.37s.04.02.07.02l.52.24s.04.02.07.02l.63.09h.04l.63-.09s.02,0,.04-.02l.52-.24s.04-.02.07-.02l.35-.37s.04-.04.04-.07l.07-.15.43-.02,1.91,1.95.13.09s.02.02.04.02l.26.09h.07l3.99.02,4.7-.02h.04l.28-.07s.04-.02.07-.04l.13-.11,1.91-1.93,3.75-.02h.11l8.56-.04.04.17s.02.04.02.06l.11.13s.04.07.09.07l.17.06h.07l.95.02,1.71,1.69s.02.02.04.02l.24.15.37.17.39.11.33.07,3.43.02,3.53-.02h.17l.33-.07.39-.13.37-.15.22-.13s.02-.02.04-.04l.11-.11h1.65s.04,0,.04-.02l.28-.07s.04-.02.07-.02l.13-.11,1.6-1.65h.24c.11-.02.17-.09.17-.2v-.11h3.43l.04.11s.02.04.04.06l.35.37s.04.02.07.02l.52.24s.02.02.04.02l.63.09h.04l.63-.09s.02,0,.04-.02l.52-.24s.04-.02.06-.02l.35-.37s.04-.04.04-.06l.04-.13,8.37-.02h.09l8.93-.04h.06l.52-.15s.04,0,.07-.02l.07-.04s.07-.04.09-.09l.39-.35s.04-.02.04-.04l.3-.59s.02-.04.02-.07l.11-.72-.02-10.77,4.03-3.79.28-.33,1.93-1.82.82-.91s0-.02.02-.02l.48-.85s0-.02.02-.02l.26-.85.11-.72.02-.07-.02-4.64ZM6.76,202.19h-.07l.07-49.32h.07l-.07,49.32ZM316.53,177.75v.02l-.24.04.24-.06ZM316.72,178.12v.02l-.28.07v-.04l.28-.04ZM316.74,182.26l-.15.52-.28-.17.13-.52.3.17ZM316.2,177.45l-.2.04-4.08-3.6.17-.02,4.1,3.58ZM315.36,181.53l-155.32-.2-1.11.11v-3.14l1.13.04,155.29.28.78-.02v3.01l-.78-.09ZM316.09,181.98l-.13.52-.78-.09-155.29-.17-1.02.11.04-.54,1.13-.11,155.29.2.76.09ZM160.06,177.93l155.19.33.82-.04v.02l-.72.04-155.29-.3-1.13-.04v-.04l1.13.04ZM159,177.19l.5-3.66,1.15.04,149.92.46.89-.04,4.05,3.53-.52.02-154.88-.33-1.11-.02ZM311.95,173.27s.02-.02.02-.02l.19.13.04.04-.13.09-.56.11-.95.04-149.92-.43-1.3-.06-1.47-.11-1.54-.22-1.5-.24-1.37-.3-1.11-.3-37.94-12.55-.26-.09.13-.04.58.24,37.57,12.42,1.11.3,1.3.28s.04.02.04.02l1.47.24,1.5.2,1.43.13,1.28.04,149.46.46.95-.04.63-.11s.04-.02.07-.02l.26-.2ZM157.48,177.82v-.04l1.11.09v.04l-1.11-.09ZM155.94,177.62v-.04l1.17.15v.04l-1.17-.15ZM155.58,177.56l-1.15-.2v-.04l1.15.22v.02ZM108.18,161.45c-.07.02-.11.07-.11.11l-.02.07-6.4-2.1.85.11,1.41.13,1.39.04,6.14.04-2.34,1.37-.41.06h-.04l-.46.17ZM108.42,161.75l-.02.02-.02-.02h.04ZM98.19,158.29v.06l-.8-.5s-.02-.02-.04-.02l-19.92-6.61-.63-.15-.63-.07-4.9.07.98-1.26-.13-.11.17.09.04-.09,1.17-1.47,5.16-.07.59.04.59.15,17.99,5.94.93.26-.56,3.73ZM98.49,158.98l-21.27-7.07-.65-.15-.56-.07.59.04.59.13,19.97,6.63,1.17.37.17.11ZM69.57,166.35l-.02-.2h.91l-.02.2h-.87ZM70.27,166.7l-.02.04h-.48l-.02-.04h.52ZM69.51,165.79l.02-13.81.04-.35.13-.26,2.47-3.17.32-.26.41-.11h.48l-.11.06s-.02.02-.02.04l-1.21,1.54.15.11-.17-.07-.07.07-1.19,1.56s-.02.02-.04.04l-.13.28s-.02.04-.02.06l-.07.41v13.83h-1ZM66.08,166.37l-.04-.2h.93l-.04.2h-.85ZM66.75,166.72l-.02.04h-.46l-.02-.04h.5ZM66.02,165.81v-13.79l.06-.35.13-.26,2.47-3.17.32-.26.41-.11h.46v.02l.02.02v.04l-.07-.04-.04.02s-.02.02-.02.04l-2.52,3.19s-.02.04-.02.04l-.13.3s-.02.04-.02.07l-.06.39v.48l-.02,13.35h-.98ZM62.59,166.39l-.02-.2h.91l-.04.2h-.85ZM63.28,166.76l-.04.02h-.46l-.02-.04.52.02ZM62.53,165.83l.02-13.77.04-.35.13-.26,2.47-3.17.33-.26.41-.11h.46l-.09.07s-.02.02-.02.04l-.69.87-.02.04-1.8,2.28s-.02.04-.02.04l-.13.3s-.02.04-.02.07l-.07.39-.02,13.83-.98-.02ZM59.12,166.42l-.04-.2h.91l-.02.2h-.85ZM59.79,166.78l-.02.02h-.48l-.02-.02h.52ZM59.06,165.85v-13.75l.07-.35.13-.28,2.45-3.14.35-.26.41-.11h.46l-.11.09s-.02,0-.02.02l-.65.82-.02.02-1.82,2.34s-.02.04-.02.04l-.15.3s-.02.04-.02.04l-.07.41v13.81l-.98-.02ZM55.63,166.44l-.02-.2h.91l-.02.2h-.87ZM56.32,166.81l-.02.02h-.48l-.02-.02h.52ZM55.59,165.9v-13.77l.07-.33.13-.28,2.45-3.14.35-.26.41-.11h.43l-.09.09s-.02,0-.04.02l-2.47,3.19s-.02.04-.04.04l-.13.3s-.02.04-.02.04l-.07.41v13.79h-.98ZM53.29,152.32l-.2.06v13.53h-.98v-13.75l.07-.33.13-.28,2.45-3.14.35-.26.41-.11h.43l-.11.11-.52.65-.02.04-1.95,2.49s-.02.02-.02.04l-.15.3s-.02.02-.02.04l-.07.41v.17h.2ZM52.18,166.46l-.04-.2.91.02-.02.17h-.85ZM52.86,166.83l-.02.04-.46-.02-.04-.02h.52ZM48.72,166.48l-.02-.17h.91l-.04.17h-.85ZM49.39,166.85l-.02.04h-.46l-.02-.04h.5ZM48.65,165.94l.02-13.72.07-.33.11-.28,2.47-3.14.35-.26.39-.11h.46l-.09.09s-.02.02-.04.02l-.3.39-.15.2s-.04.04-.04.06l-1.99,2.54s-.02.02-.02.04l-.15.3v.04l-.06.41v.17l-.02,13.57h-.98ZM45.27,166.5l-.02-.17h.91l-.04.17h-.85ZM45.94,166.87l-.02.04h-.46l-.02-.04h.5ZM45.2,165.96l.02-13.7.07-.35.11-.26,2.47-3.14.35-.26.39-.11h.46l-.11.09-.02.02-2.49,3.19s-.02.02-.02.04l-.15.3v.04l-.07.39v.13l-.02,13.62h-.98ZM41.84,166.52l-.04-.17h.91l-.04.17h-.82ZM42.51,166.89l-.02.04h-.48l-.02-.04h.52ZM41.78,165.98v-13.72h.02l.04-.3.13-.26,2.45-3.14.35-.26.41-.11.43.02-.09.06s-.02.02-.04.02l-2.49,3.19s-.02.02-.02.04l-.13.28s-.02.04-.02.07l-.06.37v.09l-.02,13.66h-.95ZM38.4,166.55l-.02-.17h.89l-.02.17h-.85ZM39.07,166.91l-.02.04h-.46l-.02-.04h.5ZM38.35,166v-13.66l.07-.35.13-.26,2.45-3.14.35-.26.39-.11.43.02-.09.06-.02.02-2.49,3.17s-.02.04-.02.04l-.15.3v.07l-.07.28v.11l-.02,13.7h-.95ZM34.97,166.57l-.02-.17h.89l-.02.2-.85-.02ZM35.64,166.94l-.02.04h-.46l-.02-.04h.5ZM34.93,166.03v-13.66l.07-.33.13-.26,2.45-3.14.35-.26.39-.11.43.02-.09.07-.02.02-2.49,3.17s-.02.04-.02.04l-.15.3s0,.04-.02.04l-.02.24-.02.06-.02,13.79h-.95ZM32.69,152.19l-.2.02-.02.17-.02,13.68-.95-.02.02-13.66.04-.3.13-.28,2.45-3.12.35-.26.41-.09h.41l-.09.07-.02.02-1.11,1.39.15.13-.17-.09-.13.17.13.11-.15-.07-1.21,1.52s-.02.04-.02.04l-.15.3v.04l-.04.17.2.04ZM31.57,166.59l-.02-.17h.89l-.04.2-.82-.02ZM32.22,166.96l-.02.04h-.43l-.02-.04h.48ZM29.29,152.17l-.19.02-.04.24v13.66l-.95-.02.02-13.64.04-.3.13-.28,2.45-3.12.35-.26.39-.09h.43l.02.04v.04l-.07-.06-.04.04s-.02.02-.04.02l-1.21,1.56-.04.04-1.21,1.56s-.02.02-.02.04l-.15.3s0,.02-.02.04v.11l.17.04ZM28.16,166.63l-.04-.2h.89l-.02.2h-.82ZM28.81,166.98l-.02.04h-.46l-.02-.04h.5ZM24.76,166.65l-.04-.2h.89l-.02.2h-.82ZM25.41,167l-.02.04h-.46l-.02-.04h.5ZM24.69,166.11l.02-13.64.04-.33.13-.26,2.45-3.12.35-.26.41-.09h.41l-.09.07s-.02.02-.04.02l-1.02,1.32-.02.02-.13.15.15.11-.17-.07-1.28,1.63-.02.02-.15.33s0,.02-.02.04v.11l-.04.28-.02,13.66h-.95ZM23.02,151.63l1.11-1.39.04-.07.02-.02.8-1.02.02-.04.2-.24,1.63-.02-2.19,2.78-1.63.02ZM24.37,152.28v.02l-1.71.02v-.02l1.71-.02ZM27.6,147.36s.02.02.04.02l1.69.02.24.13h.07v.02l.15.02v.22l-5.48.07v-1.56l3.14-.04v.93c0,.09.06.15.15.17ZM28.7,146.99v-.95h.07v.95h-.07ZM29.12,146.99l.02-.95h.11v.95h-.13ZM29.62,146.99v-.98h.15v.98h-.15ZM26.06,152.26h1.71l-1.71.02v-.02ZM26.43,151.59l1.04-1.32.04-.04.11-.15-.13-.11.15.07.98-1.21,1.63-.02-2.19,2.8h-1.63ZM30.11,146.99v-.98h.17v.98h-.17ZM31.15,147.55s.04-.02.07-.02l.22-.13h.24s.09-.02.13-.04l2.36.02h.37c.11-.02.17-.09.17-.2v-1.04l3.21-.04v1.73l-7.37-.04v-.15l.61-.09ZM30.63,146.99v-.98h.17v.98h-.17ZM31.15,146.99v-1h.15v1h-.15ZM31.65,146.99v-1l2.88-.04v.02h-.17v1.04l-2.71-.02ZM30.83,150.29s.02-.02.02-.04l.11-.13.02-.02,1.04-1.32,1.63-.02-2.19,2.8-1.63.02,1-1.28ZM34.21,150.29l.02-.04.13-.15.04-.04,1.02-1.32,1.65-.02-2.21,2.8-1.63.02.98-1.24ZM58.38,147.01l.24.13.04.02.76.13h.04l.76-.13s.02-.02.04-.02l.22-.11h.22s.09-.02.13-.07l2.41.02h.39c.09,0,.17-.09.17-.2v-.02l3.9.02v.67s.02.04.02.07l-.48.02h-.04l-.09.02-1.21-.02-2.15.04h-.02l-.09.02-1.21-.02-2.15.04h-.04l-.09.02-1.21-.02-2.12.04h-.04l-.09.02h-1.19l-2.12.02h-.04l-.09.02h-1.21l-2.1.02h-.04l-.09.02h-1.21l-2.1.02h-.04l-.09.02h-1.19l-2.12.02h-.04l-.09.02h-.04l.37-1.28,13.25.11v.09c0,.09.07.15.13.2h.04l1.73.02ZM57.76,146.6v-.98h.07v.98h-.07ZM58.19,146.6v-.98h.11v.98h-.11ZM58.49,145.69l.17-.04v-.04h.15v1h-.15v-.91h-.17ZM59.19,146.6v-1h.17v1h-.17ZM59.71,146.6v-1h.17v1h-.17ZM60.55,145.6l-.17.04v.95h-.15v-1.02h.15v.02h.17ZM63.63,145.82l-.17.04v.76l-2.73-.02v-1.02l2.91-.04v.04h-.17v.24h.17ZM76.14,142.05l.04.37h-.02l-.04-.37L73.19,2.86l.02-.35h.02l-.02.37,2.93,139.16ZM76.31,143.83l.06.09-9.54,1-.04-.09,9.52-1ZM76.23,142.78l.02-.02.04.17-.02.02-.04-.17ZM77.51,144.74l.43.06,131.38,1.15-4.88.59-.93.11-57.13-.5-16.41-.13h-.04l-1.97-.02h-.04l-1.95-.02v.17l-.07-.17-4.03-.02-.04-.02h-1.93v.17l-.04-.17h-.04l-1.02-.02h-.95v.17l.02.2h1.54v1.32l-5.68.07v-1.43h.04v-.17l.04.17,1.99.02h.04l1.95.02h.04v-.2l-.04-.17-1.99-.02h-.04l-1.97-.02v.2l-.06-.2h-2.04v-.02l-3.99-.02h-.09l-37.4-.33,2.71-.28-.02-.17.07.17,4.55-.48ZM76.42,143.28l.09.15h-.02l-.07-.15ZM76.62,142.72l.09-.02.04.11-.11.04-.02-.13ZM76.79,143.17l.09-.02.07.11-.11.04-.04-.13ZM77.03,143.61l.09-.04.07.07-.09.04-.07-.06ZM77.38,143.93l.07-.04.04.04-.07.04-.04-.04ZM77.74,144.17l.04-.04.02.02-.02.02h-.04ZM212.83,145.97l14.68.13-5.27.69-12.68-.11-.02.17-.02-.17h-.5l-1.99-.02,5.81-.69ZM212.64,145.65l.09-.13.07-.02s.04,0,.07-.02l.15-.06-.04.11-.19.11-.13.02ZM231.5,110.76v-.02l-.02-.76v-.11l15.31-.37.02,42.56-9.56-3.01-.63-.2h-.02l-.65-.13-.56-.06-14.53-.11h-.15l-6.05-.06v-1.39l7.61.07,7.15-.93.72-.09h.02v-.02l.43-.04s.02-.02.04-.02l.41-.2.2-.13.32-.28s.02-.02.04-.04l.26-.37.02-.02.22-.48.11-.52.04-.54-.76-32.72ZM307.75,153.78l-.02-20.92.46-.02.02,20.92-.46.02ZM308.18,154.12l-.02.07h-.46l.02-.07h.46ZM307.73,125.05l-.02-14.4.46-.02.02,14.42h-.46ZM307.7,110.29l-.02-.07h.43l.02.07h-.43ZM308.14,125.66l.02,6.57-21.25-.26v-.91l19.49.24h.09l.19-.09-.09-.24h.02l.04-.15h.22v-3.79h-.22l-.07-.15.09-.22-.19-.09s-.07-.02-.09-.02l-19.49-.26v-.91l21.22.28ZM286.57,132.05v.07l-.02.09-.02.02h-.04v-1.58l.02.02.04.11v.11l.02,1.17ZM286.48,129.49v-.48l.46.02.39.46h-.85ZM304.82,127.61l-18.28-.22.24-.48,18.71.24-.67.46ZM306.17,127.63v2.58l-.85-.56v-1.45l.85-.56ZM304.65,128.41v1.02l-8.78.15v-1.02l8.78-.15ZM286.54,126.55l-.04.11-.02.04v-1.58h.04l.02.02v1.41ZM295.41,128.28l.07.02.02.11v1.19l-7.7-.09-.65-.8-.3-.26s-.02-.02-.04-.02l-.32-.17v-.09l8.93.11ZM304.82,130.21l.65.46-18.69-.24-.22-.43,18.25.22ZM286.57,124.77h-.28v-11.88l-.07-.37s0-.02-.02-.04l-.15-.33s-.02-.02-.04-.04l-.22-.22h-.02s-.04-.02-.07-.04l-.28-.06h-.04l-15.31-.26v.17l-.04-.17-.28.09s-.07,0-.09.02l-.22.22s-.07.07-.07.09l.13.06-.15-.02-.13.22v.06l-.07.39v11.88l-21.16-.28v-14.79l.02-.24,59.06,1,.09.02.02.04.02.13.02,14.63-20.66-.28ZM283.83,144.09l-4.53-11.53h.04l4.57,11.69.07.28v.15l-.11-.09v-.02l.02-.15v-.07l-.07-.26ZM269.55,144.02l-.02-11.58,9.39.11,4.57,11.64.07.2-.02.07-.04.02-13.9-.13v-.02l-.04-.3ZM263.41,128.41l-.3-.26s-.02-.02-.04-.02l-.37-.2s-.02-.02-.04-.02l-.3-.07,5.83.09v1.34l-4.12-.07-.65-.8ZM263.59,129.21l-.93-.02-.39-.48.93.02.39.48ZM250.71,126.91l-.22-.48,19.12.26-.24.46-18.67-.24ZM260.05,128.19h.8l.28.04.35.17.26.24.43.54-2.12-.02v-.98ZM259.86,127.85v.17h-.17v1.15l-9.11-.13-.04-.11v-1.24l9.93.13-.61.02ZM250.71,129.54l18.67.24.24.46-19.12-.24.22-.46ZM269.48,129.32l-.11-.02s-.04-.02-.06-.02h-.76v-1.6l.76-.02h.06l.11-.04s.04-.02.07-.04l.09-.11s.02-.02.02-.04l.22-.43v2.99l-.22-.46s-.02-.02-.02-.04l-.15-.15ZM269.79,126.07l-19.82-.26h-.07l-.22.09.09.2s-.02.02-.04.04l-.09.22v3.71l.09.22h.02s0,.04.02.04l-.09.2.22.09s.04,0,.07.02l19.79.24.02.91-21.59-.26v-6.66l21.57.3.02.91ZM269.76,124.36v-11.51l.04-.28.11-.22.15-.13.2-.07,14.89.26.17.04.17.13.11.24.04.26v11.47l-15.89-.2ZM250.17,127.43v1.58l-.07.11v-1.8l.07.11ZM279.74,132.55h.04l4.49,11.45h-.04l-4.49-11.45ZM280.15,132.55l4.47.07,1.32-.02v11.4h-1.28l-4.51-11.45ZM270.24,131.77v-6.61l15.85.22.04,4.29v2.3l-15.89-.2ZM269.18,132.4v11.64l.06.37v.04l.17.33s.02.02.04.04l.24.22s.04.02.07.04l.28.07h.04l15.31.15s.04,0,.07-.02l.26-.07s.07-.02.09-.04l.22-.2s.04-.04.04-.07l.17-.3v-.04l.07-.37v-11.6l20.92.24.02,21.03-.02.15-.02.04-.09.02-55.15-.39-3.95-1.26-.02-20.29,21.18.26ZM270.5,156.85l-12.14-.06-.24-.22,11.97-.13.41.41ZM270.15,155.94l5.64.04.09.91-4.81-.02-.91-.93ZM262.37,161.17l-.13.3h-1.02l-.02.35-.11-.02-.59-.17-.37-.15-1.28-.41,2.99.02v.06l.52.02ZM261.27,168.58s-.02-.02-.02-.02l-.17-.3s-.02-.02-.02-.02t-.02-.02l-.11-.11s-.02,0-.02-.02l-.26-.13h-.02l-.35-.17-1.67-.69-1.19-.3-.5-.09.17-.91v-.06l.24-1.19,1.95.02h1.86l.74,2.36.56,2.49.24,1.67h-.82l-.04-.26-.22-1.04v-.04l-.33-1.15ZM198.24,167.35l-1.37-.54-.5-.13h.15v-.17l.04.17h2.04v-.15l.04.15,5.59.02v-.17l.07.17h.24l2.1.02h.04l5.81.02h.04l7.91.04h.07l9.91.04h.04l5.92.02v-.17l.04.17h1.89v-.15l.04.15h.17v-.13l.04.13,5.27.02.04.02h.35v-.2l.04.2h2.3l9.17.04,1.37.15,1.3.33,1.17.43.43.22-60.36-.24-.3-.02-.26-.06-.22-.07-.65-.33ZM198.87,169.58v.02h-.13l.13-.02ZM185.47,169.47l-.32-1.52s-.02-.02-.02-.04l-.13-.2-.07-.07-.07-.02-.11-.04.24-1.02.48-2.41,1.99.04,1.95-.02.76,2.41.56,2.54.24,1.71-5.25-.02-.24-1.26v-.06l-.02-.02ZM114.54,158.96l.15.11-.28-.13-.19-.13.3-.11-.02.06c-.02.07,0,.15.04.2ZM114.47,158.33h-.04l-.04.02-1.04.37-.63.39-7.07-.04-1.54-.04.52-3.56,1.06.04,11.88.07,1.3,2.62h-2.1l-1.56.04-.74.09ZM113.95,159.04l-.24.09-.13-.11.26-.09s.02.04.04.06l.07.04ZM113.36,159.3v.02l-4.16,2.43,4.16-2.45ZM82.43,146.45v-.09l30.85.26v.09l-30.85-.26ZM95.33,146.93v.59h-.11v-.59h.11ZM94.85,146.93v.61l-1.5-.02.07-.09s.02-.04.02-.07l.13-.46,1.28.02ZM92.96,146.9l-.04.22h-.09l.02-.22h.11ZM92.49,146.9l-.02.22h-.26v-.24l.28.02ZM91.68,146.88v.61h-.13v-.61h.13ZM91.19,146.88v.61l-1.89-.02v-.61l1.89.02ZM88.67,146.97v.5l-6.24-.06v-.48l6.24.04ZM95.7,147.03l17.58.15v.48l-17.58-.15v-.48ZM113.47,148.03h.04l43.01.35h.04l5.48.04h.26v-.11h.02l.02.11,6.53.07v-.13h.02l.02.13,7.91.06,3.62.02,20.01.17h.04l20.14.15.59.04.61.13,20.12,6.37-124.7-.85-20.42-6.72,16.63.15ZM120.15,147.6v-1.32l1.67.02v-.17l.07.17,5.53.04v1.3l-7.26-.04ZM155.99,146.75v-.13h-1.28l1.5-.02h.15v1.41h-.13v-1.26h-.24ZM155.79,146.99v.06l-27.92-.22v-.09l27.92.24ZM155.79,147.53v.48l-27.92-.22v-.48l27.92.22ZM156.77,148.01v-1.41l5.72.04v1.3l-5.72.06ZM163.25,147.94v-1.28l7.11.04v1.3l-7.11-.06ZM170.84,147.03v-.07l11.43-.15,3.75.04-15.18.17ZM200.28,147.16v1.21l-19.53-.15v-.82l19.53-.24ZM179.79,147.29v.91l-2.45-.02v-.87l2.45-.02ZM176.97,147.32v.87h-.02v-.87h.02ZM176.28,148.18l-1.86-.02v-.8l1.45-.02.11.46s.02.04.04.07l.26.33ZM174.07,147.36v.8h-.02v-.8h.02ZM173.68,147.49v.67h-.74v-.65l.74-.02ZM172.53,147.51v.17l-.11.46h-1.58v-.61l1.69-.02ZM200.71,148.38v-1.41l2.64.02h.15l.52-.04s.07.07.13.07l2.3.02v1.28l-5.74.07ZM207.22,148.31v-1.28l1.8.02v-.2l.06.2h.46l4.66.04v1.26l-6.98-.04ZM224.39,155.92l-106.41-.69-.02-.02,106.43.72ZM117.31,155.21v.02l-11.58-.09-1.26-.04-1.37-.13-1.39-.2,1.39.17,1.34.13,1.17.04,11.69.09ZM118.18,155.6l125.53.82.11.22-.32-.04-4.42-.04h-.28s-.04.02-.07.02l-.11.07-.11.09-.04.04-.13.24-.02.02-.13.22-1.78-.59-.32-.07-.41-.06-4.44-.02h-.26s-.07,0-.09.02l-.09.04-.02.02-.11.09s-.02.02-.02.04l-.22.35-.02.02v.02l-.07.09-1.78-.59-.33-.09-.32-.02-4.53-.07-.28.02s-.07,0-.09.02l-.09.04s-.02,0-.02.02l-.09.07-.04.04-.28.48-.02.02-1.6-.54-.5-.13-.41-.04-4.47-.04h-.28s-.07.02-.09.02l-.11.07-.09.09s-.04.02-.04.04l-.3.48-1.8-.59-.33-.07-.41-.06-4.47-.02h-.28s-.07,0-.09.02l-.09.04s-.02.02-.04.02l-.09.09s-.02.02-.04.04l-.28.46-1.82-.56-.3-.09-.41-.04-4.51-.04h-.28s-.04.02-.06.02l-.09.04s-.02.02-.04.02l-.09.09-.04.04-.28.5-1.08-.35-.07.17.02-.2-.56-.17-.46-.13-4.94-.09h-.26s-.07,0-.09.02l-.09.04s-.02.02-.04.02l-.09.09s-.02.02-.04.04l-.28.48-1.84-.59-.33-.09-.39-.04-4.53-.04-.28.02s-.07,0-.09.02l-.09.04s-.02,0-.04.02l-.09.07s-.02.04-.04.06l-.3.48-1.67-.54-.48-.13-.41-.04-4.55-.04h-.28s-.04.02-.07.02l-.09.04s-.02.02-.04.02l-.09.09s-.04.02-.04.04l-.3.48-1.84-.59-.3-.07s-.02,0-.02-.02l-.41-.04-4.55-.02h-.28s-.04,0-.09.02l-.09.04s-.02,0-.02.02l-.11.09s-.02.02-.04.04l-.28.5-1.86-.61-.32-.09-.39-.04-4.6-.04h-.28s-.04.02-.07.02l-.09.04s-.02.02-.04.02l-.11.09s-.02.04-.02.04l-.3.52-1.86-.63-.32-.06-.41-.07-4.57-.02h-.3s-.04,0-.06.02l-.09.04s-.02.02-.04.02l-.11.09s-.02.02-.02.04l-1.32,2.19-29.96-.2-1.3-2.6ZM256.3,155.99s.04-.02.06-.04l.24-.15v-.02l.2.13.02.04-.09.06-.5.09-.89.04-11.25-.06v-.02l10.73.07.91-.02.56-.11ZM255.8,155.71l.17-.13s.07-.07.09-.13l.17.13.02.02-.07.04-.39.07ZM254.55,161.13l-.13.3h-1.02v.35l-.78-.22-.3-.13-1.28-.41,3.01.02v.07l.5.02ZM256.76,165.57l.17-1.06h.02l-.19,1.06ZM256.91,165.68l-.17.04v-.07l.17.02ZM256.82,163.99h-.04l-.15-.02-.52-.13h1.04l.46.2-.78-.04ZM256.56,164.46l-.24,1.54.2-1.54h.04ZM248.28,163.84l-.76-.22-1.76-.61,1.17.02v-.17l.04.17h1.86v.09h.52l-.15.33h-1.04l.02.35,1.11.02.46.17-1.02-.04-.46-.11ZM248.69,164.42l-.26,1.54.22-1.54h.04ZM240.41,163.79l-.13-.04-.82-.22-1.58-.54h3.08v.09h.52l-.15.33h-1.04v.35l1.13.02.48.2h-.11v.02h-.04v-.02l-.85-.07-.48-.11ZM240.78,164.38l-.26,1.58.22-1.58h.04ZM232.52,163.77l-.15-.04-.82-.24-1.6-.54h3.1v.09h.52l-.15.33h-1.04v.37h1.11l.5.2h-.24l-.82-.07-.39-.09ZM232.84,164.36l-.26,1.58.22-1.6.04.02ZM224.43,163.68h1.11l.48.2-1.06-.06-.52-.13ZM224.89,164.31l-.26,1.6.22-1.63.04.02ZM216.47,163.64h1.08l.46.2-1.06-.07-.48-.13ZM216.91,164.27l-.26,1.65.22-1.65h.04ZM208.43,163.6l-.65-.17-.35-.13-1.41-.48h1.54v-.17l.04.17,1.54.02v.06l.5.02-.15.33-1.06-.02v.37h1.15l.48.22-.41-.02v.02h-.02l-.02-.02-.65-.04-.52-.15ZM208.89,164.23l-.2,1.21.15-1.21h.04ZM200.41,163.55l-.74-.2-.26-.11-1.43-.48,3.12.02v.09h.52l-.15.33-1.06-.02v.37h1.13l.5.22-.35-.02h-.09v.02h-.04v-.02l-.65-.04-.5-.15ZM200.87,164.18l-.28,1.71.11-.91v-.02l.11-.78h.07ZM198.18,163.92s-.02-.07-.04-.09l-.04-.09s-.04-.04-.07-.04l-.33-.13-.04-.02-.89-.28.09-.15.02-.02.04-.09,1.37.46,1.86.56-.26,2.3h-1.04l-.54-1.95v-.02l-.13-.43ZM194.73,166.31h-.04l-.02.02-.39.09s-.07.02-.09.04l-.24.24s-.04.04-.04.07l-.37.59v.02l-.24.37s-.02.04-.02.04l-.48.91s-.02.04-.02.04l-.28.72-.09.26.33-1.56.02-.04.32-1.52.04-.24.02-.02.41-2.12,1.99.04,1.95-.02.65,2.1-1.6-.02v.2l-.04-.2h-1.78ZM196.31,166.65l-.07-.02v-.13l.07.15ZM192.52,165.7l.22-1.56h.07l-.28,1.56ZM192.87,165.79l.28-1.6h.04l-.33,1.6ZM190.52,161.58l-.61-.15,1.06.02.46.17-.72-.02h-.04l-.15-.02ZM190.68,162.1l-.04.28h-.04l.04-.28h.04ZM190.29,162.06l-.07.3h-.04l.04-.3h.07ZM184.76,163.62l-.28-.06-.04-.02-.82-.22-.35-.15-1.43-.48h.46v-.17l.04.17h1.21l1.45.02v.09h.52l-.17.33h-1.06v.35l1.11.02.52.2h-.17v.02h-.07v-.02l-.91-.07ZM185.1,164.16l-.26,1.32.22-1.34.04.02ZM184.69,164.12l-.28,1.73.13-1v-.02l.11-.74.04.02ZM174.13,161.47l-.5-.11v.04h-.04v-.07l-.13-.02v.04l-.04-.02v-.02l-.32-.11-.33-.13-1.52-.52h1.73v-.17l.07.17,1.37.02v.09h.52l-.17.33h-1.06v.35h1.15l.41.2-1.13-.07ZM174.5,162.01l-.04.28h-.04l.04-.28h.04ZM174.11,161.97l-.07.33h-.04l.04-.33h.07ZM155.86,156.46l-.17.3h-1.06v.37h1.15l.43.2-1.15-.07-.78-.17-.24-.09-.54-.24-1.3-.41h2.75l.39.02v.06l.52.02ZM163.94,156.51l-.15.33h-1.08v.35h1.15l.43.2-1.13-.06-.76-.17-.28-.09-.52-.22-1.3-.43,3.08.02h.07v.09h.5ZM172.01,156.57l-.15.3h-1.06v.37h1.13l.43.2-1.11-.07-.46-.11-.69-.2-.43-.2-1.28-.43,3.12.02v.09l.5.02ZM180.05,156.62l-.15.33-1.06-.02.02.37h1.11l.46.2h-.04l-.98-.06-.87-.17-.3-.11-.52-.22-1.28-.41,2.43.02h.69v.09h.5ZM188.07,156.66l-.17.33h-1.04v.35l1.13.02.46.2h-.07l-1.04-.09-.48-.13-.76-.2-.26-.11-1.39-.48,3.1.02v.09h.52ZM196.05,156.72l-.15.3h-1.04l-.02.17.02.2h1.11l.43.2-1.06-.07-.48-.13-.78-.22-.35-.15-1.28-.41,3.08.02v.06l.52.02ZM204.01,156.77l-.15.33-1.04-.02v.37h1.11l.41.17-1.06-.04-.74-.17-.37-.11-.46-.22-1.28-.41,2.75.02h.32v.09h.5ZM211.94,156.83l-.15.3h-1.04v.35l-.78-.22-.32-.13-1.26-.41h3.03v.09l.52.02ZM215.2,157.68l-1.3.04h-.15l-.87-.17-.74-.33.19-.37.63.17.02-.07.69.22,1.04.35.04-.15v.15l.43.15ZM219.84,156.88l-.13.3h-1.04v.37h1.11l.41.17-1-.07-.52-.11h-.02l-.69-.2-.39-.17-1.26-.41,2.8.02h.24v.09h.5ZM227.73,156.92l-.15.33-1.04-.02v.35l-.76-.2-.33-.15-1.26-.41,3.01.02v.09h.52ZM230.98,157.77l-1.3.04h-.13l-.87-.17-.74-.3.15-.37.65.17v-.06l1.63.52.07-.17v.2l.54.15ZM235.58,156.98l-.15.3h-1.02v.35l1.11.02.39.15-.93-.04h-.02l-.54-.13-.24-.04-.43-.13-.41-.17-1.26-.41h2.71l.3.02v.06l.5.02ZM238.83,157.81l-1.3.07h-.13l-.87-.2-.74-.3.17-.37.63.2v-.07l1.65.5.04-.15v.17l.54.15ZM243.4,157.03l-.15.3h-1.02v.35l-.72-.2-.37-.15-1.24-.41,2.64.02h.35v.09h.5ZM246.5,157.44l.13-.24.93.3,2.28.69-.04.43-.26-.02-.28.02s-.09.02-.11.02l-.17.13-.04.04-.07.13.11.06v.02l-.15-.04-.17.3-.39-.11-.11-.41-.09.02v-.02l.09-.04-.02-.04-.07-.28-.02-.04-.09.02v-.02l.09-.02-.04-.13-.09.02v-.02l.07-.06-.02-.09s0-.02-.02-.04l-.04-.09s-.02-.02-.02-.02c-.02-.02-.04-.04-.07-.06l-.11-.04-.04.09-.02-.02.02-.09h-.04l-.04-.02-.26-.09h-.04l-.02.09h-.02v-.11l-.72-.22ZM251.21,157.07l-.15.3h-1.02v.35l-.35-.07s-.02-.02-.04-.02l-.28-.09-.41-.17-1.24-.41.63.02v-.2l.07.2h2.28v.09h.52ZM253.16,157.96h-.11l-.89-.17-.74-.33.15-.35.63.17.02-.07,1.34.43.87.26-1.28.04ZM255.09,158.44l.09.22-3.92-.02.04-.22,1.93.04,1.86-.02ZM251.57,157.92l-.78-.04-.65-.13h1l.43.17ZM250.95,158.39l-.06.24h-.02l.04-.24h.04ZM250.56,158.35l-.07.28h-.02l.04-.28h.04ZM250.77,163.01l-.54-.17-.2-.07h-.04l-.04-.02h-.04l-.37-.07h-.65v.07h-.02l-.02-.07s-.02-.02-.04-.02h-1.84v.2l-.04-.2h-.15l.04-.24.98.02v-.11h.02l.04.11.89.02h.04l1.84-.02.19.61-.02.15v.2l1.86.59-1.45.04-.89-.17-.76-.33.17-.37.63.17.02-.06.33.09.04.02.04-.17-.02-.2ZM246.07,161.86l-.69-.15-.02.02h-.02v-.04l-.46-.13-.43-.17-1.26-.41h3.01v.09l.52.02-.15.3h-1.02v.35l1.11.02.46.2-1.04-.09ZM246.44,162.4l-.04.26h-.04l.04-.26h.04ZM246.05,162.36l-.04.3h-.04l.04-.3h.04ZM237.68,161.69l1.11.02.43.17-.67-.02-.87-.17ZM238.55,162.36l-.04.26h-.02l.04-.26h.02ZM238.15,162.32l-.04.3h-.04l.04-.3h.04ZM236.68,162.82l-.11-.06-.07.04-.04.04-.28.48-.32-.11-.11-.37v-.04l-.19-.72-.02-.02s-.02-.07-.02-.09l-.07-.09s-.09-.07-.11-.07l-.11-.06h-.04l-1.11-.35.15-.24.76.24,2.45.76-.04.46h-.59s-.06,0-.09.02l-.09.04s-.02.02-.04.02l.09.11ZM230.26,161.78l-.46-.13,1.06.02.46.2-1.06-.09ZM230.63,162.32l-.04.26h-.02l.04-.26h.02ZM230.24,162.27l-.04.3h-.04l.04-.3h.04ZM222.33,161.73l-.65-.15h-.04l-.46-.13-.32-.15-1.41-.48,3.08.02v.09h.5l-.15.33h-1.04v.35l1.13.02.48.2h-.09l-1.02-.09ZM222.7,162.27l-.04.26h-.02l.04-.26h.02ZM222.31,162.23l-.04.3h-.04l.04-.3h.04ZM214.37,161.69l-.61-.13-.04-.02-.5-.13-.46-.2-1.28-.43,3.08.02v.09h.52l-.15.33h-1.06v.35l1.13.02.43.17-1.06-.07ZM214.74,162.23l-.07.26h-.02l.04-.26h.04ZM214.35,162.19l-.07.3h-.04l.04-.3h.07ZM206.37,161.65l-.48-.13-.76-.2-.35-.15-1.28-.43,3.08.02v.09h.52l-.15.33h-1.06v.35l1.13.02.43.17-1.08-.06ZM206.74,162.19l-.04.26h-.04l.04-.26h.04ZM206.35,162.14l-.04.3h-.04l.04-.3h.04ZM198.35,161.6l-.22-.04-.02.04-.02-.02v-.04l-.2-.07-.69-.17-.3-.13-1.43-.48,1,.02h2.12v.09h.52l-.17.33h-1.04v.35l1.13.02.41.17-1.08-.07ZM198.72,162.14l-.04.26h-.04l.07-.26h.02ZM198.33,162.1l-.04.3h-.04l.04-.3h.04ZM195.66,161.84s-.02-.06-.04-.09l-.02-.04-.09.07-.02-.02.09-.07s-.09-.09-.11-.09l-.13-.06-.72-.22h-.04l-.19-.06-.07.17.02-.2-.11-.02.17-.28,3.21,1.02-.04.46h-.67s-.07.02-.09.02l-.09.04s-.04.04-.04.04l-.09.07s-.04.06-.04.06l-.15.26-.02.02-.11.2-.28-.09-.13-.48v-.04l-.2-.67ZM194.53,161.47l-.02.15h-.02l.04-.15ZM189.85,159.52l-.46-.13h1.11l.41.17-1.06-.04ZM190.18,160.04l-.04.26h-.04l.04-.26h.04ZM189.79,160l-.04.3h-.04l.04-.3h.04ZM187.12,159.74s-.02-.04-.02-.07l-.09-.11s-.02-.04-.07-.04l-1.24-.41.17-.28,1.5.5,1.69.54-.04.43-1.76-.02-.02-.04v-.04l-.13-.46ZM182.24,161.52l-.46-.13-.74-.2-.32-.13-1.37-.46,1.65.02v-.2l.04.2h1.45v.09h.52l-.17.33h-1.06v.35l1.15.02.48.2-1.17-.09ZM182.61,162.06l-.06.28h-.02l.04-.28h.04ZM182.2,162.01l-.04.3h-.04l.04-.3h.04ZM180.66,162.47l-.02.02-.07-.11s-.04.04-.04.04l-.09.07s-.02.04-.04.04l-.3.52-.24-.06-.13-.46v-.04l-.2-.74s-.02-.04-.04-.07l-.07-.11s-.09-.06-.11-.06l-.09-.04s-.04-.02-.07-.02l-.04-.02-1-.33.17-.26,3.19,1.02-.04.46h-.69s-.07.02-.09.02l-.04.02.04.11ZM173.72,159.41l-.24-.04-.07-.02-.87-.24-.41-.17-1.3-.43,3.14.02v.09h.5l-.15.33-1.06-.02v.37h1.13l.43.2-1.11-.07ZM174.07,159.95l-.07.26h-.02l.04-.26h.04ZM173.66,159.91l-.04.3h-.04l.04-.3h.04ZM170.8,159.41l-1.21-.39.17-.28,3.19,1.02-.04.46h-.15l-1.6-.02-.17-.56s0-.02-.02-.04l-.04-.07-.09.04-.02-.02.09-.06s-.04-.04-.09-.07ZM169.86,160.37s-.02.02-.02.04l-.3.5-1.86-.61-.33-.07-.41-.06h-.65l.04-.24,2.02.02h1.93l.09.24h-.2s-.04.02-.07.02l-.09.04s-.04.02-.04.02l-.11.09ZM170.12,161.49l-1.43.04h-.07l-.87-.17-.74-.33.2-.39.63.2.02-.07,2.25.72ZM165.59,159.37l-.17-.04h-.02l-.32-.09-.56-.15-.48-.22-1.28-.41,3.14.02.02.07.5.02-.17.33-1.08-.02v.37h1.15l.46.22-1.17-.09ZM165.96,159.91l-.04.26h-.04l.04-.26h.04ZM165.55,159.87l-.04.3h-.04l.04-.3h.04ZM162.71,159.37l-.15-.07-1.06-.35.17-.26,1.58.52,1.58.5-.04.46-1.78-.02-.15-.56s0-.04-.02-.04l-.04-.06-.09.04.07-.09-.07-.06ZM158.68,158.55l.65.2.02-.09.46.15,1.8.56-1.41.06h-.11l-.87-.2-.74-.3.19-.39ZM158.42,158.07h-.41l-2.3-.02.04-.24,2.02.04,1.95-.02.19.63-.78-.26-.3-.09-.41-.04ZM163.01,158.09l.04-.28h.04l-.04.28h-.04ZM163.42,158.11l.04-.26h.04l-.07.26h-.02ZM167.24,158.24l-.3-.07-.28-.04-2.84-.02.07-.24,1.99.04,1.95-.02.17.61-.76-.26ZM169.71,159.41l-1.39.07h-.13l-.89-.2-.72-.3.2-.39.65.2.02-.07,2.25.69ZM171.1,158.13l.04-.28h.04l-.04.28h-.04ZM171.51,158.16l.04-.26h.04l-.07.26h-.02ZM182.03,158.57v.09h.52l-.15.33h-1.06v.35l1.13.02.43.17-1.04-.04-.22-.04v.04h-.04v-.07h-.09v.04l-.04-.02v-.04l-.37-.09-.32-.09-.04-.02-.52-.22-1.28-.43,3.1.02ZM179.16,158.2l.02-.3h.07l-.07.3h-.02ZM179.55,158.2l.04-.26h.04l-.04.26h-.04ZM185.82,159.52l-1.37.04h-.11l-.87-.17-.74-.33.2-.37.63.17.02-.06,1,.33.04.02.74.22.04-.15v.17l.41.13ZM183.39,158.35l-.5-.11h-.04l-.2-.02-2.69-.02.04-.24,1.99.04,1.93-.02.17.61-.72-.24ZM182.13,160l-.04.26h-.04l.04-.26h.04ZM181.74,159.95l-.07.3h-.04l.04-.3h.07ZM181.03,159.8l-.06.46-1.76-.02-.04-.15v-.04l-.11-.35s0-.04-.02-.06l-.02-.02-.04-.09s-.04-.04-.07-.04l-.15-.09-1.08-.33.17-.28,3.19,1.02ZM179.14,160.54l-.02-.02v-.09l.02.11ZM177.8,159.48l-.85.02h-.04l-.52.02h-.11l-.82-.17-.78-.33.2-.37.5.13.04.02.11.02.02-.09.41.15.04-.17v.17l1.8.59ZM176.02,158.72l.02-.17-1.04-.33-.41-.04-2.69-.02.04-.24,2.02.04,1.93-.02.2.63-.07.15ZM174.44,159.98l1.99.04,1.93-.02.09.24h-.17s-.06.02-.09.02l-.09.04s-.02.02-.02.02l-.11.09-.04.04-.28.5-1.86-.61-.32-.06-.39-.04h-.04l-.65-.02.06-.24ZM175.33,160.71l.63.17.02-.04,2.25.69-1.43.04h-.04l-.78-.15-.85-.35.2-.37ZM182.98,162.08l1.99.04,1.95-.02.19.63-.67-.22-.32-.09h-.02l-.48-.07h-.07l-.04-.02v.09h-.02l-.04-.09h-1.91v.17l-.04-.17h-.59l.07-.26ZM184.89,161.62h-.04l-.89-.17-.74-.33.2-.37.63.17.02-.09,2.28.74-1.45.04ZM186.14,160.39l-.09.07s-.04.02-.07.04l-.28.5-1.86-.61-.3-.06h-.07l-.04-.02-.3-.02-.67-.02.04-.24,1.99.04,1.93-.02.09.24h-.17s-.04.02-.09.02l-.09.04s-.02.02-.02.04ZM188.62,159.17l-.37-.15-1.28-.43,3.1.02v.09l.52.02-.17.3h-1.06v.37l-.74-.22ZM187.19,158.24l.04-.28h.04l-.04.28h-.04ZM187.6,158.24l.04-.24h.02l-.04.24h-.02ZM198.03,158.68v-.2l.04.2v.06l.52.02-.17.3h-1.04v.37h1.13l.41.17-1.04-.04-.37-.09h-.04l-.37-.09-.35-.11-.46-.2-.04.04v-.06l-1.28-.41,3.06.02ZM195.19,158.29l.04-.28h.04l-.04.28h-.04ZM195.6,158.29l.04-.24h.02l-.04.24h-.02ZM206.05,158.72v.09h.52l-.02.02.17.06-.2-.02-.13.26-1.04-.02v.37l-.76-.22-.3-.13-1.32-.43,3.08.02ZM203.16,158.35l.04-.3h.04l-.04.3h-.04ZM203.58,158.35l.04-.26h.02l-.04.26h-.02ZM208.76,159.33l.07-.17-.02.2,1.04.3-1.37.07h-.09l-.78-.17-.11-.02-.74-.3.09-.2.02-.04.07-.13.65.17v-.06l.41.13.07-.17-.02.17.72.24ZM208.11,158.91v-.07l.02.02-.02.04ZM214,158.76v.09h.5l-.15.33-1.04-.02v.37l-.76-.22-.11-.04-1.54-.52,3.1.02ZM211.12,158.39l.04-.3.04.02-.04.28h-.04ZM211.51,158.39l.04-.26.04.02-.04.24h-.04ZM217.78,159.72l-1.37.04h-.09l-.87-.17-.74-.33.17-.37.63.17.02-.07.41.13h.04l1.17.39.04-.17v.2l.56.17ZM221.92,158.83v.06h.52l-.15.33h-1.04v.17l.02.17,1.08.02.46.17-1.04-.07-.32-.06-.93-.26-.32-.13-1.32-.43,3.06.02ZM219.03,158.44l.04-.28h.04l-.04.28h-.04ZM219.45,158.44l.04-.24h.02l-.04.24h-.02ZM225.73,159.76l-1.39.04h-.09l-.87-.17-.76-.33.17-.37.65.17v-.06l.41.13.07-.17-.02.2,1.82.56ZM229.81,158.87v.07l.52.02-.15.3h-1.04v.35l-.74-.2-.3-.13-1.32-.43,3.03.02ZM226.92,158.48l.04-.28h.04l-.04.28h-.04ZM227.34,158.48l.04-.24h.02l-.04.24h-.02ZM235.08,159.61l1.73.52-.06.46-.24-.02h-1.45l-.15-.54s-.02-.04-.02-.07l-.09-.11s-.04-.04-.07-.06l-.11-.04s-.07-.02-.07-.02l-.78-.24-.04-.02-.28-.09.15-.24,1.47.48ZM234.58,158.87v-.15l.04.15h-.04ZM237.68,158.91v.09h.52l-.15.3h-1.02v.35l-.78-.22-.33-.13-1.26-.41,3.01.02ZM234.79,158.52l.04-.28h.04l-.04.28h-.04ZM235.21,158.55l.04-.26h.02l-.04.26h-.02ZM245.31,158.96v-.17l.04.17h.17v.09h.52l-.15.3h-1.02v.17l.02.17-.8-.22-.15-.07-1.43-.48,2.8.02ZM242.64,158.59l.04-.3.04.02-.04.28h-.04ZM243.05,158.59l.04-.24h.02l-.04.24h-.02ZM249.32,159.89l-1.34.04h-.11l-.87-.17-.74-.33.15-.35.63.17.02-.04.61.17.07-.17-.02.17,1.6.5ZM249.88,160.82l-.04-.02-.07-.09s-.02.02-.04.02l-.09.09s-.02.02-.04.04l-.28.46-1.45-.46-.07-.02-.28-.09-.28-.06s-.04-.02-.07-.02h-.04l-1.06-.02.07-.26,1.93.04,1.89-.02.07.24h-.02v.11l-.04-.02-.02-.09s-.04.02-.09.02l-.02.02.07.13ZM250.01,161.93l-1.43.04h-.02l-.93-.2-.69-.3.15-.37.65.2.02-.09h.02l2.23.72ZM246.42,159.91l-1-.07-.48-.13h1.04l.43.2ZM245.76,160.37l-.07.28h-.02l.04-.28h.04ZM245.37,160.32l-.04.3h-.04l.04-.3h.04ZM242.6,159.54l2.06.65-.04.43-.28-.02v.2l-.04-.2h-1.37l-.15-.54s-.02-.04-.02-.06l-.09-.11s-.04-.04-.07-.04l-.15-.09-.32-.09-.04-.02-.78-.24.15-.24,1.15.37ZM241.88,160.69l-.11.09s-.02.02-.02.04l-.28.46-1.82-.56-.28-.07s-.04-.02-.04-.02l-.39-.04h-.72l.04-.24,1.95.04,1.89-.02.07.24h-.09s-.07.02-.09.02l-.09.04-.02.02ZM242.12,161.88l-1.41.04h-.02l-.89-.17-.74-.33.15-.37.65.17v-.04l2.25.69ZM237.57,159.8l-.48-.13h1.04l.43.17-1-.04ZM237.89,160.32l-.04.26h-.02l.04-.26h.02ZM237.5,160.28l-.04.3h-.04l.04-.3h.04ZM241.47,159.85l-1.37.04h-.06l-.89-.17-.74-.33.15-.35.65.17.02-.09,2.23.72ZM239.2,158.74h-.02l-.07-.02-.07-.02-.02-.02h-.06l-.04-.02-.22-.04-3.1-.06.04-.24,1.95.04,1.86-.02.17.56-.43-.15ZM233.71,161.67l.52.17-1.41.04h-.02l-.85-.17-.8-.33.17-.37.65.17v-.04l1.63.5.04-.17v.2h.07ZM233.99,160.65l-.09.09s-.02.02-.04.04l-.28.48-1.21-.39-.91-.28-.41-.04h-.72l.04-.24,1.97.04,1.89-.02.07.24h-.11s-.04,0-.09.02l-.06.04s-.02.02-.04.02ZM229.74,159.76l-.43-.09-.15-.06,1.11.02.43.17-.95-.04ZM230.02,160.28l-.07.26h-.02l.04-.26h.04ZM229.61,160.24l-.04.3h-.04l.04-.3h.04ZM233.6,159.8l-1.37.04h-.07l-.89-.17-.74-.33.15-.37.65.2.02-.09.02.02.37.11.04.02.07.02h.04l1.69.54ZM231.5,158.74h-.04l-.04-.02-.19-.06-.39-.09-.37-.04-.04-.02-2.69-.02.04-.22,1.95.04,1.89-.02.17.56-.28-.11ZM227.34,159.61l1.58.48-.07.43h-1.69l-.15-.56s-.02-.02-.04-.04l-.06-.11s-.04-.04-.07-.06l-.15-.07-1.13-.35.15-.24,1.63.52ZM226.06,160.63l-.07.07s-.02.02-.04.04l-.28.48-1.82-.59-.3-.09-.41-.04h-.72l.04-.24,1.97.02h1.89l.09.24h-.11s-.07,0-.09.02l-.09.04s-.04.04-.07.04ZM226.32,161.8l-1.41.04h-.04l-.89-.17-.74-.33.17-.37.63.17.02-.04,2.25.69ZM223.24,158.59l-.24-.06-.24-.02-2.93-.04.04-.24,1.95.04,1.91-.02.17.56-.67-.22ZM222.11,160.24l-.07.26h-.02l.04-.26h.04ZM221.7,160.19l-.04.3h-.04l.04-.3h.04ZM219.42,159.56l1.58.48-.06.43h-1.71l-.15-.56s0-.02-.02-.04l-.07-.11-.07-.07-.15-.06-1.13-.35.15-.26,1.63.54ZM215.28,161.3l.17-.37.65.17.02-.04,2.25.69-1.43.04h-.04l-.89-.17-.04-.02-.07.17.02-.2-.65-.28ZM218.17,160.56l-.11.09s-.02.02-.04.04l-.28.48-1.78-.59h-.04l-.33-.09-.41-.04h-.69l.04-.26,1.97.04h1.91l.07.24h-.11s-.07,0-.09.02l-.09.04s-.02,0-.02.02ZM213.83,159.65l-.5-.13h1.11l.43.2-1.04-.07ZM214.16,160.19l-.04.26h-.02l.04-.28.02.02ZM213.76,160.15l-.04.3h-.04l.04-.33.04.02ZM215.65,158.65l-.02.06h-.04v-.09l-.24-.09s-.04,0-.04-.02l-.26-.04-.02-.02-.41-.04-2.69-.02.04-.24,1.95.04h1.91l.17.56-.35-.11ZM211.49,159.52l1.56.48-.04.43h-1.71l-.15-.56s-.02-.04-.04-.04l-.07-.11-.07-.07-.13-.06h-.04l-1.11-.35.17-.26,1.63.54ZM210.19,160.52l-.09.09s-.04.02-.04.04l-.28.48-1.84-.59-.3-.09h-.04l-.39-.04h-.67l.04-.26,1.97.04h.33l1.58-.02.09.26h-.15s-.07.02-.09.02l-.06.04s-.02,0-.04.02ZM210.43,161.71l-1.45.04h-.04l-.89-.17-.74-.33.19-.37.63.17.02-.06.13.04h.04l2.1.67ZM205.85,159.61l-.48-.13h1.11l.41.2-1.04-.06ZM206.2,160.13l-.04.28h-.04l.04-.28h.04ZM205.81,160.11l-.07.28h-.02l.02-.3.07.02ZM207.39,158.48l-.2-.04-.48-.06-2.75-.02.04-.24,1.97.04,1.91-.02.17.59-.67-.24ZM203.14,159.35l1.95.61-.04.43h-1.73l-.07-.22v-.02l-.09-.33s-.02-.04-.04-.04l-.06-.11s-.04-.04-.07-.06l-.11-.07h-.04l-1.11-.35.15-.26,1.26.41ZM202.21,160.48l-.11.07s-.02.04-.04.06l-.28.48-1.3-.41-.07.17.02-.2-.5-.15-.28-.06s-.02-.02-.04-.02l-.41-.04h-.67l.04-.26,1.99.04,1.91-.02.09.26h-.15s-.07,0-.09.02l-.09.04s-.02,0-.02.02ZM202.43,161.67l-1.45.04h-.04l-.93-.2-.69-.3.17-.37.65.17.02-.06.17.04.02.02,2.08.65ZM201.86,159.61l-1.37.06h-.11l-.87-.2-.74-.3.17-.37.65.17.02-.06.41.11.07-.15-.02.17.93.3.04.02.8.24ZM199.24,158.39l-.52-.07s-.02,0-.04-.02h-.33v.09h-.04l-.02-.09h-.22v.17l-.04-.17-2.04-.02.04-.22,1.99.04,1.91-.02.17.59-.87-.28ZM198.2,160.08l-.04.28-.04-.02.04-.26h.04ZM197.81,160.04l-.04.3h-.04l.04-.3h.04ZM197.09,159.91l-.04.43h-.56v.17l-.02-.17h-1.15l-.17-.56s0-.04-.02-.07l-.06-.11s-.04-.04-.07-.04l-.13-.06s-.02,0-.02-.02l-.46-.13-.04-.02-.61-.17.17-.26,3.19,1.02ZM193.86,159.56l-1.37.04h-.11l-.87-.17-.74-.33.17-.37.65.2v-.07l2.25.69ZM191.41,158.39l-.28-.07h-.04l-.33-.04-.54-.02h-.04l-2.19-.02.04-.22,1.99.02h1.91l.2.59-.72-.24ZM190.55,160.06l1.99.04,1.93-.02.06.24-.15.02s-.07,0-.09.02l-.09.04-.04.02-.09.06s-.02.04-.04.07l-.28.5-.39-.13-.04-.02h-.04l-.04-.02-1.26-.41-.24-.06-.56-.09h-.67l.04-.26ZM191.46,160.8l.65.17v-.07l1.02.33.04.02,1.08.33.04-.17v.2l.07.02-1.43.04h-.04l-.89-.17-.72-.33.17-.37ZM199.09,162.17l1.99.04,1.93-.02.19.63-.74-.26h-.04l-.17-.04-.04-.02-.35-.04-.33-.02v.09h-.02l-.04-.09h-2.43l.04-.26ZM202.01,162.93l.65.17.02-.06.74.24h.07l.11.04.02.02h.07s.02.02.04.02l1.21.39-1.47.04-.89-.17-.74-.33.17-.37ZM203.53,163.12v-.04h.02l-.02.04ZM204.7,162.56l-.07.07s-.02.02-.04.04l-.3.5-.26-.09-.35-1.19s0-.04-.02-.07l-.06-.11s-.09-.06-.11-.06l-.11-.07-.17-.04-.04.11-.02-.02v-.11l-.87-.28.15-.26.72.24,2.49.78-.04.46h-.65s-.07.02-.09.02l-.09.04s-.04.04-.07.04ZM207.11,162.21l1.99.04,1.91-.02.2.61-.37-.11-.56-.17-.04-.02-.48-.06h-2.69l.04-.26ZM210.04,162.95l.65.2v-.09l.95.33.07.02.02-.11h.02v.11l1.21.39-1.47.04-.76-.15-.13-.02-.74-.33.17-.39ZM212.72,162.6l-.09.06s-.02.02-.02.04l-.3.5-.28-.09-.35-1.19s0-.04-.02-.07l-.07-.11s-.07-.04-.09-.07l-.09-.04-.04-.02-1.13-.35.15-.26,1.63.54,1.6.5-.07.43h-.63s-.07.02-.09.02l-.09.04s-.04.04-.04.04ZM215.11,162.25l1.97.04,1.91-.02.2.61-.63-.22-.26-.06-.56-.09h-.5l-2.19-.02.07-.24ZM218.04,162.99l.63.2.02-.06.56.15.02-.07h.02l-.02.09.09.02.06.02.17.07.07-.13v.04l-.02.11.04-.09h.02l-.02.09.04.02,1.24.37-1.47.06-.89-.2-.76-.3.2-.39ZM220.7,162.64l-.07.07s-.04.02-.04.04l-.3.5-.3-.11v-.04l-.02-.04-.3-1.08s0-.04-.02-.06l-.04-.04-.09.04v-.02l.07-.09s-.09-.07-.11-.07l-.06-.02s-.04-.04-.04-.04l-.33-.09-.04-.02-.76-.24.15-.26.8.28,2.41.74-.04.46h-.63s-.04,0-.09.02l-.11.07-.02.02ZM223.07,162.3l1.97.04,1.91-.02.17.61-.43-.15-.46-.13-.04-.02-.48-.07h-.46l-2.23-.02.04-.24ZM225.99,163.03l.65.2v-.09l.65.22h.04l.17.07h.02l.06.02.04.02.63.2.04.02.61.17-1.45.07-.89-.2-.76-.33.17-.37ZM228.66,162.69l-.07.07s-.04.02-.04.04l-.3.5-.3-.11-.33-1.17s-.02-.04-.02-.06l-.09-.11s-.04-.04-.06-.06l-.09-.04-.07.09-.02-.02.02-.09-.33-.09-.04-.02-.76-.24.15-.26,1.52.5,1.69.52-.04.46h-.61s-.07,0-.09.02l-.09.06s-.04.02-.04.02ZM228.98,161.43l-.32-.13-1.28-.41,3.06.02v.07h.52l-.15.33h-1.04v.35l-.78-.22ZM231,162.34l1.97.04,1.89-.02.2.59-.67-.22-.69-.13h-.52v.09h-.02l-.02-.09-2.17-.02.04-.24ZM233.93,163.08l.65.17.02-.07.8.26.04-.06h.02v.09l1.41.43-1.47.07-.89-.2-.76-.33.17-.37ZM237.01,161.52l-.43-.17-1.28-.41h1.19l1.84.02v.06l.52.02-.15.3h-1.04v.35l-.13-.02h-.04l-.48-.15ZM238.91,162.38l1.95.04,1.89-.02.19.59-.67-.22-.56-.11-2.6-.04v.2l-.04-.2h-.19l.04-.24ZM241.84,163.12l.65.17.02-.07.54.17.04.02,1.69.52-1.45.04-.91-.17-.76-.33.17-.37ZM244.49,162.77l-.07.07s-.04.02-.04.04l-.28.48-.35-.11-.09-.37-.02-.04-.22-.74s0-.04-.02-.06l-.07-.11s-.07-.04-.09-.07l-.07.13.02-.15-.07-.02s-.04-.02-.07-.02l-.02.11h-.02v-.13l-.22-.07-.06-.02-.78-.24.13-.24,1.5.48,1.73.52-.04.46h-.59s-.07,0-.09.02l-.07.04s-.04.02-.07.04ZM252.29,162.86s-.07.09-.07.09l-.26.43-.35-.11-.32-1.13s0-.04-.02-.06l-.07-.11s-.09-.06-.11-.06l-.07.13.02-.15-.04-.02s-.07-.02-.07-.02l-.04-.02-.19-.06-.04.11-.02-.02.02-.09s-.04-.02-.04-.02l-.8-.24.15-.24,1.6.52,1.63.48-.07.46-.28-.02-.28.02s-.04,0-.09.02l-.11.06-.09.07ZM250.62,160.11s-.02-.04-.04-.06l-.07-.11s-.04-.04-.07-.04l-.15-.09-1.15-.35.15-.24,3.21,1.02-.04.43-1.69-.02-.15-.54ZM247.28,158.39l.17.54-.93-.28-1.17-.07h-1.91l.04-.22,1.93.02h1.86ZM243.68,157.9l-.56-.06-.8-.13v.04h-.04v-.04h1.06l.46.2h-.11ZM240.08,157.57l1.93.59-.04.41h-.54s-.07.02-.09.04l-.09.04-.04.02-.04.04-.04.02s-.04.04-.04.07l-.15.24v.02l-.13.2-.37-.13-.04-.15v-.04l-.02-.07-.02-.04-.07.02-.02-.02.09-.04-.02-.09-.09.02v-.02l.07-.04-.02-.09v-.02l-.15-.52s0-.04-.02-.04l-.06-.11-.07-.07-.13-.06-.07-.02-1.11-.33.15-.24,1.26.41ZM234.19,158.11l-.04.41h-.59s-.06.02-.09.02l-.11.06-.09.09s-.04.02-.04.04l-.02.04.11.09-.15-.04-.02.06.13.07-.15-.02-.02.02.11.09-.13-.04-.13.22-.35-.11-.02-.06-.09.02v-.02l.07-.04-.02-.11-.02-.04-.24-.85s0-.07-.02-.09l-.02-.04-.04-.04s-.04-.07-.07-.07l-1.3-.41.15-.26,3.21,1.02ZM228.1,157.79l-1.02-.06-.48-.13h1.06l.43.2ZM226.32,158.07l-.07.41h-.59s-.04,0-.07.02l-.09.04s-.02.02-.02.02l-.11.09s-.02.02-.04.04l-.06.09.13.09-.15-.04v.02l-.04.07s-.02.02-.02.04l-.13.22-.35-.11-.02-.09v-.04l-.02-.09-.02-.04-.04-.2-.09.04-.02-.04.09-.04-.07-.24-.02-.04-.09-.37s-.02-.02-.02-.04l-.09-.11s-.04-.04-.06-.04l-.11-.07s-.02-.02-.04-.02l-1.13-.33.15-.26.76.26,2.45.76ZM223.09,157.72l-1.28.04h-.15l-.82-.17-.78-.33.17-.35.63.17.02-.06,1.63.5.04.02.54.17ZM218.4,158l-.04.43h-.59s-.07,0-.09.02l-.22.15s-.02.02-.04.04l-.04.09-.04.04-.04.09-.02.02-.13.24-.33-.11-.02-.06-.02-.04-.02-.11-.09.02v-.02l.07-.04-.24-.89s0-.02-.02-.04l-.07-.11-.07-.07-.11-.04s-.04-.02-.04-.02l-1.13-.35.15-.24.61.2,2.58.8ZM212.29,157.68l-1.04-.06-.46-.13,1.06.02.43.17ZM208.87,157.46s.02.02.04.02l1.58.48-.04.41h-.35l-.26.02s-.07,0-.09.02l-.04.02.04.11h-.02l-.07-.09s-.02,0-.04.02l-.09.07s-.02.04-.04.04l-.02.07-.02.04.11.06-.15-.02-.04.09-.02.02-.13.24-.3-.09h-.02l-.07-.26-.09.02v-.02l.09-.04-.04-.15-.11.02v-.02l.09-.04-.04-.13v-.07l-.11.04v-.02l.09-.04-.11-.43-.02-.02s0-.04-.02-.04l-.06-.11s-.04-.04-.07-.06l-.11-.04-.04-.02-1.11-.35.15-.26,1.56.52ZM207.26,157.61l-1.3.04-.15.02-.87-.2-.74-.3.2-.37.63.17.02-.09,1.39.48.82.24ZM200.95,157.42l1.58.5-.04.41h-.63s-.04.02-.07.02l-.07.02.04.11-.07-.09s-.02.02-.04.02l-.09.09s-.04.06-.06.06l-.02.07.11.09-.13-.06-.02.04-.04.06.11.09-.13-.04-.15.22-.3-.09-.02-.09-.02-.04-.02-.07v-.06l-.09.02-.02-.02.09-.04-.02-.13-.02-.04-.09.02v-.02l.07-.04v-.02l-.02-.07-.09.02v-.02l.09-.06-.15-.5s0-.02-.02-.04l-.07-.11s-.04-.04-.07-.04l-.13-.07-.02-.02-.56-.15-.04-.02-.5-.15.15-.26,1.6.52ZM199.33,157.57l-1.32.04h-.15l-.87-.17-.74-.33.2-.35.63.17.02-.06.39.11.04.02,1.8.56ZM192.67,157.27l1.89.59-.04.43h-.63s-.07,0-.09.02l.04.13-.09-.11-.04.02s-.04.02-.04.04l-.04.04-.04.02s-.04.07-.07.07l-.02.04-.02.04.13.09-.15-.04-.06.11s-.02.02-.02.04l-.11.17-.3-.09-.06-.22-.02-.04v-.04l-.02-.11-.02-.04v-.04l-.19-.67s-.02-.02-.02-.04l-.09-.11s-.02-.04-.07-.07l-.09-.04s-.04-.02-.06-.02l-1.06-.35.15-.24,1.28.41ZM191.33,157.53l-1.3.04h-.15l-.87-.17-.74-.33.2-.37.63.17.02-.07,1.39.46.82.26ZM186.56,157.81l-.04.43h-.65s-.06,0-.09.02l-.06.04s-.04,0-.04.02l-.07.04-.04.02s-.04.06-.04.06l-.02.04.13.09-.15-.04-.09.13.13.06v.02l-.15-.04-.15.24-.28-.09-.07-.26v-.06l-.02-.04-.09.02v-.02l.06-.04-.22-.78s0-.04-.02-.04l-.04-.09-.09.07v-.02l.07-.07s-.04-.04-.07-.06l-.15-.07-1.08-.33.17-.28,1,.35,2.17.67ZM183.33,157.46l-1.32.06h-.15l-.78-.17-.82-.33.19-.37.63.17.02-.06.85.26.82.26.04.02.52.15ZM176.95,157.27l1.58.5-.04.41h-.39l-.28.02s-.11.02-.13.04l-.04.02s-.02,0-.02.02l-.11.06s-.02.04-.04.07l-.13.22-.02.02-.15.26-.26-.11-.04-.13-.02-.04-.26-1s-.02-.04-.04-.06l-.07-.09s-.04-.06-.07-.06l-.15-.09-1.06-.33.15-.26,1.6.52ZM175.3,157.42l-1.34.04h-.15l-.89-.17-.72-.33.19-.37.65.2.02-.09.69.24,1.54.48ZM168.71,157.16l1.76.54-.04.43h-.69s-.04.02-.07.02l-.09.04s-.02.02-.04.02l-.09.09s-.04.02-.04.04l-.3.5-.26-.09-.33-1.17s-.02-.04-.04-.07l-.06-.11-.07-.07-.15-.06-1.06-.33.17-.28,1.41.48ZM167.22,157.38l-1.32.04h-.15l-.87-.17-.74-.33.2-.37.65.17.02-.09,1.39.48.82.26ZM160.8,157.18l1.58.48-.04.43h-.69s-.07,0-.09.02l-.09.04-.02.02-.11.09s-.02.02-.04.04l-.28.5-.28-.09-.33-1.19s0-.04-.02-.04l-.06-.11-.07-.06-.15-.07-1.06-.33.17-.28,1.58.54ZM159.13,157.31l-1.32.06h-.17l-.87-.2-.72-.3.2-.39.63.2.04-.09,1.39.48.82.24ZM155.4,157.79l-.07.26h-.02l.04-.26h.04ZM154.99,157.77l-.04.28h-.04l.04-.3.04.02ZM156.46,159.07l-.54-.24-1.3-.43,3.17.02v.09h.5l-.15.33h-1.08v.37h1.15l.46.2-1.17-.06-.76-.17-.26-.09ZM156.7,159.67l-.72,6.57-5.44-1.8.56-1.41,1.15-2.3,1.28-2.1,1.34.46,1.82.59ZM157.83,159.87l-.3,1.54-.02.04.28-1.6.04.02ZM157.42,159.82l-.26,1.6.22-1.63.04.02ZM157.38,163.75l.82-3.88,2.02.04,1.95-.02.09.26h-.22s-.04,0-.07.02l-.09.04s-.02.02-.04.02l-.09.09s-.04.02-.04.04l-1.37,2.25-1.13,2.34-.58,1.54-.26-.09-.28-.04-1.28-.02.56-2.6ZM159.56,165.33s0-.02.02-.02l1.17-2.43,1.3-2.12.91.3,2.3.72-.76,6.7-5.46-1.84.52-1.3ZM164.94,161.15l-.32-.13-1.5-.5,3.19.02v.06l.52.02-.17.33-1.08-.02v.37h1.15l.5.22h-.04l-1.08-.07-.59-.13-.56-.17ZM166.37,161.97l-.19.95.15-.95h.04ZM165.98,161.93l-.3,1.8.24-1.8h.07ZM166.26,164.38l.48-2.38,2.02.04,1.95-.02.09.26-1.93-.02h-.28s-.07.02-.09.02l-.09.04s-.04.04-.07.04l-.07.07-.04.04-1.34,2.28-1.15,2.32-.17.5.69-3.19ZM170.75,161.3l-.02.11h-.02v-.11l-.69-.24.17-.26,1.6.54,1.58.48-.04.46h-1.76l-.17-.56s0-.04-.02-.06l-.07-.11s-.09-.07-.11-.07l-.11-.06-.35-.11ZM174.87,162.04l2.02.04,1.95-.02.2.65-.63-.22-.41-.11-.5-.06h-.04l-1.99-.02v.17l-.02-.17h-.61l.04-.26ZM177.75,162.79l.65.17.02-.07,1.19.39h.04l.15.06h.04l.82.26-1,.04h-.56l-.76-.17-.8-.33.19-.37ZM180.59,163.21l.17-.28,3.21,1.04-.37,3.23-.82-.28-.11-.5-.69-2.58s-.02-.04-.04-.04l-.07-.11-.07-.07-.15-.06-1.06-.35ZM185.71,163.21l.17-.37.65.17.02-.07,1.08.35.04.02h.04l.04.02.15.04.04.02.85.26-1.47.06-.89-.2-.74-.33ZM188.62,162.47l-.09.06s-.02.02-.02.04l-.17.28-.02.04-.13.2-.11-.04-.06.17.02-.17-.09-.04-.13-.43v-.04l-.09.02-.02-.04.09-.04-.2-.67s-.02-.04-.02-.07l-.07-.11s-.09-.07-.11-.07l-1.21-.39.17-.28.87.3,2.34.72-.06.46h-.67s-.04.02-.09.02l-.09.04s-.04.04-.04.04ZM189.03,161.21l-.3-.13-1.28-.43,1.73.02h1.39v.09h.5l-.15.33h-1.06v.33l-.82-.2ZM191.04,162.12l1.99.04,1.93-.02.19.63-.72-.24-.02-.02-.22-.04-.02.09h-.02v-.09l-.04-.02h-.04l-.37-.04h-.04l-.35-.02v.09h-.04l-.02-.09h-2.25l.04-.26ZM193.97,162.88l.65.17v-.06l.56.17.07-.17-.02.17,1.69.54-1.5.04-.89-.17-.76-.33.2-.37ZM201.21,164.23h.04l-.26,1.28.22-1.28ZM201.62,164.25l1.99.04,1.93-.02.65,2.08h-1.95l-3.03-.02.41-2.08ZM206.13,163.79s-.07-.04-.09-.07l-.09-.04-.04-.02-1.13-.35.17-.26,1.6.54,1.6.48-.24,2.3-1.04-.02-.65-2.38s-.02-.04-.04-.07l-.07-.11ZM209.26,164.27h.04l-.19.93.15-.93ZM209.67,164.29l1.99.04,1.91-.02.65,2.08-4.96-.02.41-2.08ZM214.16,163.84l-.07-.07-.09-.04-1.19-.37.15-.26,3.23,1.02-.26,2.28h-1.02l-.65-2.38s-.02-.04-.04-.06l-.07-.11ZM215.74,163.45l-.3-.13-1.41-.46h3.1v.09l.52.02-.15.3h-1.04l-.02.37-.69-.2ZM217.28,164.31h.02l-.17.95-.02.02.17-.98ZM217.47,165.35v-.02l.2-1,1.99.02h1.91l.65,2.06h-1.69v.17l-.04-.17-3.23-.02.22-1.04ZM222.16,163.88s-.04-.04-.07-.06l-.13-.07s-.07-.02-.09-.02l-1.08-.33.15-.26,1.63.52,1.6.5-.22,2.04v.04l-.02.2h-1.02l-.67-2.41s0-.02-.02-.04l-.06-.11ZM223.69,163.49l-.28-.13-1.41-.46h3.1v.09l.52.02-.15.3h-1.06v.37l-.72-.2ZM225.26,164.36h.04l-.24,1.17.2-1.17ZM225.65,164.38l1.99.02,1.89-.02.65,2.08-4.92-.02.39-2.06ZM230.11,163.92l-.07-.07-1.3-.41.15-.26,3.23,1.02-.09.87v.04l-.15,1.34h-1.02l-.65-2.38s-.02-.04-.02-.04l-.09-.11ZM233.21,164.38h.04l-.24,1.17.2-1.17ZM233.6,164.4l1.97.04,1.91-.02.37,1.24.02.02.26.82-1.71-.02h-3.21l.39-2.08ZM238.11,164.03l-.07-.06s-.02-.07-.07-.07l-.11-.06s-.04,0-.04-.02l-1.15-.35.15-.26,1.43.48,1.8.56-.24,2.25h-1.02l-.17-.67-.02-.04-.46-1.67s-.02-.07-.04-.09ZM241.15,164.42h.02l-.22,1.13.19-1.13ZM241.54,164.44l1.97.04,1.89-.02.65,2.06h-2.19l-2.71-.02.39-2.06ZM245.96,163.99s-.04-.04-.07-.06l-.15-.07-.04-.02h-.04l-1.06-.33.15-.26,1.6.54,1.63.48-.24,2.28-1.02-.02-.65-2.36s-.02-.04-.02-.06l-.09-.11ZM249.04,164.46h.04l-.22,1.08.17-1.08ZM249.45,164.49l1.95.04,1.89-.02.63,2.06-4.88-.02.41-2.06ZM253.85,164.03s-.04-.04-.07-.06l-.15-.07-1.17-.37.15-.24,1.63.54,1.6.48-.24,2.28-.82-.02h-.17l-.65-2.38s-.02-.02-.02-.04l-.09-.11ZM255.26,163.62l-.3-.13-1.28-.43.67.02h2.25v-.17l.04.17h.04v.09h.52l-.13.33-1.04-.02v.35l-.78-.2ZM253.81,162.71l.04-.3h.04l-.04.3h-.04ZM254.22,162.71l.04-.26h.02l-.04.26h-.02ZM254.61,162.71l.04-.24,1.95.04,1.86-.02.17.56-.61-.2-.04-.02-.28-.07-.3-.04-.76-.02h-2.04ZM257.43,163.58l.17-.37.63.17.02-.07.22.07,2.06.65-1.45.04-.89-.2-.76-.3ZM260.38,163.6l.15-.26.95.33,2.3.69-.26,2.38-.41,3.88-.13-1.32-.48-2.54-.69-2.54s-.02-.07-.04-.07l-.04-.09s-.07-.07-.11-.07l-1.24-.41ZM260.98,162.73h-.22l-.28.02s-.04,0-.09.02l-.09.07-.11.06s-.02.04-.04.04l-.28.5-.41-.13-.33-1.13s0-.04-.02-.07l-.07-.11s-.09-.06-.11-.06l-1.3-.41.15-.24,3.23,1-.04.43ZM257.84,161.97l-1.41.04h-.02l-.89-.17-.76-.33.17-.37.63.2.02-.07,1.41.43.85.26ZM254.98,161.99h-.11l-.95-.09-.46-.13,1.04.02.48.2ZM253.14,160.67l.02-.3h.04l-.04.3h-.02ZM253.55,160.67h-.02l.04-.26h.02l-.04.26ZM253.27,159.89l-.46-.11-.85-.24-.35-.15-1.26-.41,4.62.04h2.23v.09h.5l-.13.33-2.95-.02v.35l3.01.02.5.22h-.54l-3.45-.04-.89-.06ZM255.91,158.68v-.04l-.13-.41-.09.04v-.02l.09-.04-.02-.06s-.04-.09-.04-.11l-.04-.06s-.04-.04-.09-.04l-2.84-.91-1.04-.33-.41-.04-2.88-.02h-.07l-1.47-.02-.26.02s-.11.02-.13.04l-.17.11s-.02.04-.02.06l-.07.11.11.07-.13-.04-.19.33-1.5-.48-.2-.39,11.04.09.82-.04,2.82,2.49-.3-.11-.48-.13-.41-.04h-1.89ZM244.42,157.24l.02-.09,1.34.46.87.26-1.3.04h-.11l-.89-.17-.74-.33.15-.35.65.17ZM149.85,158.65l1.26-2.06,1.58.52,1.58.5-.04.43-.43-.02-.28.02s-.04,0-.07.02l-.11.04s-.02,0-.02.02l-.11.09s-.02.02-.04.04l-1.34,2.25-1.06,2.17-.15.41-2.43-.8.52-1.34,1.15-2.3ZM148.29,160.78l-.28.72-20.23-.11-1.54-.52-.5-.52h.26l22.44.13-.15.3ZM146.84,162.23l1.04.33.04.02,2.56.87-.2.5h-.87l-.17.02s-.09.02-.11.06l-.04.04.09.04h-.09v.04l.15.02v.04l-.04.13,6.61,2.25.24.04.2.04,1.58.02.22.02.26.02,13.27,4.47-10.97-.04-.89-.02-1.02-.09-1.06-.13-.54-.11-1.41-.28-.69-.2-23.83-7.87v.02l-.02-.02-1.08-.37,16.78.11ZM171.45,167.07v.04l-.39,3.56-5.51-1.84.54-1.39.89-1.78v-.04l.33-.65,1.28-2.1,1.63.54,1.58.5-.35,3.17ZM171.71,163.34h-.02l-.15-.04-.43-.2-1.43-.48,1.76.02v-.2l.04.2h1.28v-.17l.06.17h2.67l1.39.02.02.09h.48l-.15.33-3.08-.02v.37l3.12.02.54.22h-.11v.02h-.06v-.02h-.52l-3.6-.04-.93-.06-.54-.13-.32-.09ZM172.92,164.1l-.22,1.11.17-1.11h.04ZM172.68,165.31l-.02.13v-.09l.02-.04ZM172.51,165.27l-.2.02-.02.06-.17-.02.17-.04.17-1.24h.07l-.22,1.19.2.02ZM172.2,169.26v-.04l.24-1.06.85-4.03,4.03.04,3.97-.02.76,2.41.02.15-1.63-.54h-.06l-.15-.04h-.04l-4.86-.07h-.76l-.41.04s-.04,0-.07.02l-.07.04s-.04.02-.04.04l-.15.11s-.02.04-.04.07l-.65,1.24-.02.02-.15.35.09.07-.11-.02-.28.59-.67,1.6.22-.95ZM175.33,166.42l-.04-.02v-.17l.04.2ZM172.7,169.56l.87-1.73.59-1.08,4.05,1.3-.07.54v.04l-.3,2.62-5.05-.02h-.07l-.61-.2.59-1.47ZM175.35,166.42l4.34.02.46.02.02-.17.02.2,3.47,1.11-4.05-.02-.56-.02-.22-.02-3.47-1.11ZM179.36,168.97l.02-.04.15-.72,4.99.02.32,1.24.35,1.56.04.24h-2.06l-4.31-.02.5-2.28ZM185.8,171.19l5.46.02h.11l.5.04.11.04h-.61v.17l-.07-.17-5.51-.02v-.09ZM191.82,167.89l.04-.02v.02h-.04ZM191.85,165.96v.04l-.19,1.8v.07l-.24,2.23-.11-1.06-.48-2.58s-.02-.02-.02-.04l-.69-2.54s-.02-.04-.02-.06l-.09-.09s-.04-.04-.07-.06l-.11-.07s-.07-.02-.07-.02l-1.08-.33.17-.28.48.15.04.02,1.08.37,1.6.5-.07.74-.02.04-.13,1.17ZM192.15,167.93v.02l.17.02-.15.02-.13-.02.11-.04ZM192.06,163.47l-.3-.09-1.84-.63,1.67-.02h.04l1.43.02v.09h.52l-.15.33h-1.06v.35h1.13l.5.22h-.32l-.82-.06-.33-.09h-.04l-.41-.11ZM192.78,169.91l.41-.98.28-.5v-.04l.17-.33.63-1.02.78.13,1.3.33,1.19.46.93.46-.32,2.8v.11l-4.99-.02-.78-.26.39-1.13ZM199.26,170.73l.48-2.06,60.92.24.33.93.28,1.08.11.59-14.14-.02v.17l-.04-.17-7.87-.04h-.04l-7.46-.02h-.04l-24.3-.09v.2l-.04-.2-8-.02v.17l-.04-.17h-.26l.13-.59ZM261.89,171.45l13.7.04h.15s.11-.04.13-.11l.02-.02-.09-.06v-.07h-.04l.06-.13-.13-.07h-.02l-.8-.26-.15-1.43-.46-2.54-.52-1.91,20.7,6.72-32.56-.11v-.07ZM264.71,167.22l.52-2.67,3.88.07,3.79-.02.74,2.36.56,2.49.22,1.67-10.54-.02.82-3.88ZM264.21,166.16l.22-1.65h.04l-.26,1.65ZM264.58,166.03l.26-1.47h.02l-.28,1.47ZM269.98,163.94l-.78-.33.15-.35.63.17.02-.06,1.41.46.85.24-.93.04h-.56l-.78-.17ZM269.98,162.9l-.56-.17.46-1.02.52.15,30.35,9.58.22.09-.13.11-3.84-.02-27.01-8.72ZM269.07,162.64l-.46-.11.43-1.02.48.11-.46,1.02ZM268.27,162.47l-.52-.09.41-1.02.54.09-.43,1.02ZM267.38,162.32l-.41-.04v-.06s-.02-.02-.04-.04l-.02-.07.32-.85.56.06-.41,1ZM267.92,163.14h.54v.09h.5l-.13.3h-2.95v.35l3.03.02.52.22h-.54l-3.47-.04-.89-.07-.78-.17-.48-.13-.22-.11-1.5-.5.95.02h.04l5.35.02ZM261.66,162.75l.04-.3h.04l-.06.3h-.02ZM262.05,162.75l.04-.26h.04l-.07.26h-.02ZM266.58,161.91l-.46-.13.24-.61.5.04-.28.69ZM266.3,162.53l.07.24-3.92-.02.04-.24,1.95.02h1.86ZM265.84,161.99l.04-.11-.02.11h-.02ZM265.78,161.67l-.59-.17-1.13-.37h.26l1.65.02-.2.52ZM265.65,162.01l-1.41.04-.89-.17-.76-.33.15-.37.65.2v-.07l2.25.69ZM262.78,162.04h-.11l-.07-.02h-.07l-.2-.02h-.02l-.56-.04-.54-.13,1.08.02.48.2ZM258.04,160.69h-.28s-.04.02-.09.02l-.07.04s-.02.02-.02.02l-.11.09s-.02.02-.04.04l-.28.46-1.78-.56-.19-.04-.54-.09h-.72l.04-.24,3.86.04h3.79l.09.24-3.66-.02ZM260.1,160h-.61l-.8-.17-.76-.3.17-.37.63.17v-.07l2.28.69-.91.04ZM259.66,159.04l-3.03-2.65.13-.02,3.06,2.67h-.15ZM257.54,156.07l-.24-.22,12.29.09-12.05.13ZM257.54,155.14l-1.32-.02-.24-.13s-.02-.02-.04-.02l-.07-.02h1.67v.2ZM253.7,154.62l1.54.52.39.22.02.02-.07.04-.43.09-.8.02-10.97-.07-20.66-6.55,12.57.11.61.04.61.13.11.04,17.08,5.38ZM246.81,109.16l-15.35.37v-.37l15.39-.37-.04.37ZM231.09,145.15l-.28.11-.3.04-17.02-.15v-.04l17.08.15.3-.04s.02-.02.04-.02l.24-.11-.07.07ZM81.95,145.95v1.32l-7.39-.07v-1.32l7.39.07ZM73.8,145.88l-.02,1.32-5.64.09v-1.45l5.66.04ZM66.56,144.5l-.04-.06-.02-.04s-.02-.02-.02-.04l9.58-1,.07.15-9.56,1ZM75.92,143l-9.6,1-.04-.17,9.58-1,.07.17ZM66.41,144.37l-.11.04.07-.04h.04ZM67.71,146.23v.09l-3.9-.02v-.09l3.9.02ZM56.48,146.23l-17.13-.15,4.01-.04,13.12.11v.09ZM41.99,147.38l.22-.78h.24l-.26.91-.13.37h-.26l.2-.5ZM41.65,147.27l-.22.61h-.24l.22-.61.2-.69h.24l-.2.69ZM42.54,147.62l.28-1.02h.02l-.3,1.02-.04.15-.02.11h-.04l.11-.26ZM40.87,146.58l-.2.65-.24.67h-.87l-.09.02h-1.11v-1.37l2.49.02ZM36.29,152.15l1.73-.02v.02l-1.73.02v-.02ZM36.66,151.48l2.19-2.8,1.65-.02-2.21,2.8-1.63.02ZM39.72,152.11l1.73-.02v.02l-1.73.02v-.02ZM40.09,151.43l2.19-2.8,1.65-.02-2.19,2.8-1.65.02ZM43.14,152.06l1.76-.02v.02l-1.76.02v-.02ZM43.51,151.39l2.21-2.8,1.65-.02-2.21,2.8-1.65.02ZM46.59,152.02l1.76-.02v.02l-1.76.02v-.02ZM46.96,151.35l2.21-2.8,1.65-.02-2.21,2.8-1.65.02ZM52.16,149.07l-.13-.11.15.07.43-.52,1.65-.02-2.19,2.82h-1.67l1.76-2.23ZM55.59,149.07l.02-.04.46-.59,1.67-.02-2.21,2.84-1.65.02,1.71-2.21ZM56.95,151.91l1.78-.02v.02l-1.78.02v-.02ZM57.32,151.24l2.21-2.84,1.67-.02-2.21,2.84-1.67.02ZM60.44,151.87l1.76-.02v.02l-1.76.02v-.02ZM60.81,151.2l1.58-2.04-.13-.13.15.09.59-.76,1.69-.02-2.21,2.84-1.67.02ZM63.91,151.82l1.78-.02v.02l-1.78.02v-.02ZM64.28,151.15l.32-.41.02-.02,1.21-1.56-.15-.11.17.06.63-.8,1.69-.02-2.21,2.84-1.69.02ZM67.4,151.78l1.78-.02v.02l-1.78.02v-.02ZM67.77,151.11l2.21-2.84,1.69-.02-2.21,2.84-1.69.02ZM70.89,151.74l4.92-.04-4.92.07v-.02ZM97.93,153.95l-18.02-5.94-.3-.09.61.13,17.8,5.9,1.06.3,1.26.28h-.07l-1.28-.28-1.06-.3ZM99.49,153.73l-1-.28-17.17-5.68,11.43.09h.07l2.02.02.59.04.59.13,19.88,6.55-10.12-.07-1.43-.04-1.19-.11-1.26-.17-1.24-.22-1.15-.26ZM109.03,161.84l-.15.09-.02-.02.17-.07ZM108.77,162.34l.87.33,42.08,13.98,1,.3v.02l-.91-.26-43.34-14.42.3.04ZM151.85,175.95l-41.84-13.94h-.04l-.46-.02,4.21-2.45.59.24,37.96,12.55.98.26-.46,3.62-.93-.26ZM153.06,177.04l1.02.22v.04l-1.02-.24v-.02ZM311.32,173.05c.07-.02.09-.09.09-.15l.19.11.02.06-.11.07-.39.06.2-.15ZM309.83,172.31l.76.28.39.22.02.04-.09.07-.5.09-.87.02-149.22-.46-1.17-.04-1.28-.11-1.37-.17-1.32-.24-1.21-.26-1.04-.3-37.35-12.34-.56-.24-.13-.11.26-.11.65-.09h.09l.89-.02,32.5.2-.48,1-23.33-.13-.74.02-.52.09h-.04l-.28.13c-.07.04-.11.11-.09.17v.17s.02.11.07.13l.28.2s.04.02.04.02l.39.15,6.44,2.12v.02h.04l.15.04,23.61,7.8h.02l.76.22.93.22,1.04.17,1.08.13,1.04.09.89.04,12.16.04h.04l10.38.02v-.17l.07.17,2.32.02h5.74v-.17l.07.17,8,.04h.07l8,.02h.04l24.3.09h.04l7.46.02v-.17l.04.17,7.87.02h.04l7.89.02v-.17l.04.17,45.79.15.69-.02v-.02h.04v.02l.43-.06s.04-.02.07-.02l.22-.13c.09-.04.11-.13.09-.22l-.07-.17s-.04-.07-.06-.09l-.35-.22-.56-.22-30.57-9.65-.76-.2-1.91-.37-1.04-.13-.98-.09-.87-.02-2.99-.02-.07-.22s-.02-.04-.02-.07l-.07-.09s-.06-.07-.09-.07l-.15-.06-1.47-.48,4.6.02,1.34.04,1.19.11,1.11.13,2.3.41.87.22.54.17,37.4,11.79ZM125.51,160.63l-.04-.02-.22-.22.02-.02.24.26ZM286.31,161.93h.02l-.07-.37s0-.04-.02-.04l-.15-.33s-.02-.02-.04-.04l-.24-.22s-.04-.02-.07-.04l-.28-.06h-.04l-11.04-.07-2.06-.65-.26-.06-.09-.04v.02l-.89-.26-1.04-.22-2.12-.28-1.47-.13-5.49-.06-.37-.33,46.55.28.07.04.02.02.04.13v11.9l-20.94-6.61v-2.56s0-.02-.02-.02ZM285.7,162.12v2.19l-9.26-2.91,8.76.04.17.04.15.13.13.24.04.26ZM308.18,159.09h-.43l-.02-.04.46-.02v.07ZM308.2,159.46l.02,11.97-.46-.15-.02-11.82h.46ZM307.88,157.72l.41.11.35.3.24.48.09.59.02,12.47-.04-.02-.02-12.42-.07-.5s-.02-.02-.02-.04l-.17-.35s-.04-.04-.04-.06l-.26-.24s-.04-.02-.09-.02v-.02l-.37-.09h-.04l-48.58-.33-.22-.17,48.82.33ZM282.14,156.94l-5.55-.04-.07-.91,6.5.04-.89.91ZM283.34,156.33l3.6-.04.04.17s.02.04.04.07l.35.35s.04.04.07.04l.11.06-4.81-.04.61-.61ZM287.63,156.14h.13v.07h-.11l-.02-.07ZM288.13,156.2v-.07h.24v.07h-.24ZM288.71,156.2v-.09h.26l-.02.09h-.24ZM289.32,156.2v-.09h.17v.09h-.17ZM289.86,156.23v-.11h.02l-.02.11ZM298.71,155.42l-40.72-.28v-.17l40.72.28v.17ZM247.5,109.38l.09-.61.24-.48.35-.3.43-.11,59.21,1.02.43.11.35.3.24.48.09.59.04,43.62-.09.61-.24.48-.35.3-.41.11-8.72-.06v-.17l8.69.06s.02,0,.04-.02l.37-.09s.04-.02.07-.04l.28-.22s.02-.04.02-.06h.02l.17-.35v-.06l.09-.5-.04-43.58-.09-.48s0-.04-.02-.07h.02l-.2-.35s-.02-.04-.02-.04l-.28-.24s-.04-.04-.07-.04l-.37-.11h-.04l-59.19-1h-.04l-.37.09s-.07.02-.09.04l-.26.24s-.04.02-.04.04l-.19.35h.02s-.02.04-.02.06l-.09.52.02,42.88-.04-.02-.02-41.06v-1.84ZM231.43,108.18l15.91-.39-.04.02-15.87.39v-.02ZM247.09,108.18l-.13.24-15.5.39-.02-.24,15.65-.39ZM227.34,6.94l.3.06.09.04-.3-.04-.5-.02-.02-.04h.43ZM219.94,6.66l5.94.2.09.04.09.11.04.22.13,5.57-2.88.15v-3.04l-.07-.3s0-.02-.02-.04l-.09-.17s-.02-.02-.02-.04l-.22-.2s-.04-.02-.07-.04l-.26-.09-.2-.04h-.04l-2.43-.11v-2.21ZM222.7,10.08v3.06l-8.93-.33-.02-3.06,8.95.33ZM218.86,6.61l.02,2.23-5.83-.22h-.17l-.06-2.04-.04-.2,6.09.22ZM212.38,9.34v.06l.09,3.36v.04l.07.26s.02.07.04.09l.15.2s.04.04.07.04l.22.09s.04.02.04.02l13.48.48h.04l.22-.07s.07-.02.09-.07l.13-.2s.02-.04.04-.07l.04-.3-.13-5.96.41.02.26.04.2.11.2.15.15.22.13.26.09.3.04.37,3.12,134.59-.02.37-.07.33-.13.28-.15.24-.2.15-.22.09-.24.04-17.04-.15-3.17-138.04,1.99.09.04,2.56ZM212.03,109.46v.04h-.17l.17-.04ZM212.27,6.37l.02.04-1.97-.09-.02-.04,1.97.09ZM209.58,5.85l.17.09.11.2s-.04-.04-.09-.06l-.13-.07s-.04-.02-.07-.02-.02-.02-.02-.02l-.07-.11h.09ZM211.68,109.46v.04l.8,35.23-133.9-1.21-.28-.04-.24-.11-.22-.17-.17-.22-.15-.28-.11-.33-.04-.41L74.47,2.95l.02-.37.07-.3.13-.26.15-.22.2-.15.22-.09.24-.02,133.83,5.12,2.36,102.81ZM74.08,1.32l.09.06-.04.02-.09-.04.04-.04ZM74.08,2.47l.09-.39.17-.35.22-.28.24-.2.28-.11.3-.04,133.87,5.14.02.06L75.49,1.19l-.3.02s-.04,0-.07.02l-.24.09s-.04.02-.04.04l-.24.17-.02.02-.2.24s0,.02-.02.04l-.15.33-.09.37-.02.41,2.93,139.03.04.46.11.39.19.35.22.26s0,.02.02.04l.24.2s.02.02.04.02l.28.13h.04l.35.07,133.9,1.19v.07l-133.96-1.19-.35-.04-.3-.15-.28-.22-.24-.3-.2-.37-.13-.43-.04-.46L74.04,2.91l.04-.43ZM73.84,1.67l.11.07-.04.06-.11-.04.04-.09ZM73.69,2.1l.09.02-.02.11-.11-.02.04-.11ZM73.6,2.56l.11.02-.02.33,2.91,139.1.04.33-.11.02-.02-.33L73.58,2.88l.02-.33ZM73.3,2.15h-.02l.02-.13h.04l-.04.13ZM63.8.85l9.52.3-.02.02-9.5-.3v-.02ZM63.54,1.21l9.56.3-.04.11-9.56-.3.04-.11ZM63.35,1.67l9.6.3-.04.15-9.6-.3.04-.15ZM63.24,2.17l9.6.33-.02.37,2.93,139.21.04.39-9.6,1-.04-.37-1.04-49.91v-.06l-.24-11.12v-.02l-1.3-62.94v-.02l-.35-16.48.02-.37ZM62.85,2.58l.35,16.46,1.32,62.94v.06l.24,11.08h.17l-.17.06,1.04,49.93-.04-.24-1.26-60.86h-.19l.17-.06-1.65-79.11.02-.26ZM29.57,5.51L62.74,1.54l-.04.07-33.15,3.95.02-.04ZM62.59,1.99l-.04.13-32.95,3.9.06-.13L62.59,1.99ZM1.11,62.72l14.11-4.7-.04.15-14.14,4.73.06-.17ZM.89,63.31l14.18-4.7-.09.28L.87,63.59l.02-.28ZM10.47,102.52l-9.06-.89-.07-.09,9.13.89v.09ZM10.47,102.07l-9.41-.91-.11-.24,9.52.93v.22ZM10.47,101.48l-9.63-.93-.04-.3,9.67.93v.3ZM10.6,77.27l-.09,1.91-.04,21.64-9.69-.93.04-35.9,14.05-4.68-3.62,13.96-.37,1.86-.28,2.15ZM11.1,144.61l-.07-.15h.09l.04.15h-.07ZM11.08,79.09l-.07,64.65.02.35h-.09l-.02-.33.07-64.63.11-1.86.26-2.15.37-1.84,3.79-14.63-3.69,14.5-.39,1.86-.26,2.19-.11,1.89ZM11.34,145.06l-.07-.11h.02l.06.11h-.02ZM11.36,143.72l.09-64.61.09-1.89.28-2.15.37-1.84L29.07,6.92l.04.02s.04.02.09.02c.02,0,.06-.02.09-.04.04-.02.07-.07.07-.11h.02l.09-.41,33.04-3.9-.02.33,1.65,79.15v.04l1.26,60.88.04.37-53.44.78-.59.02-.04-.35ZM11.49,144.43l.5-.02,53.51-.8.07.17-53.42.78-.61.02-.04-.15ZM11.77,145.04l-.06-.11,53.98-.78.04.11-53.35.76-.61.02ZM12.7,145.41h-.61l-.02-.02,53.87-.78s.02.04.02.04l-53.27.76ZM23.96,148.81l.33-.26.41-.09h.41l-.09.07-.02.02-.26.33.15.11-.17-.06-.8,1.02s-.02.02-.04.02l-1.37,1.76s0,.02-.02.02l-.13.3s-.02.04-.02.06l-.07.35v.04l-.02,13.64h-.95l.02-13.62.07-.33.13-.26,2.45-3.12ZM21.36,166.68l-.02-.2h.89l-.04.2h-.82ZM22.01,167.02l-.02.04h-.43l-.02-.04h.48ZM23.46,148.88l-2.21,2.78-1.6.02,2.19-2.77,1.63-.02ZM20.99,152.32v.02l-1.71.02v-.02l1.71-.02ZM20.9,148.59l.41-.09h.41l-.09.06s-.02.02-.04.02l-2.47,3.17-.02.02-.15.3v.07l-.06.28-.02,13.72h-.95l.02-13.59.07-.33.11-.26,2.47-3.12.33-.26ZM17.97,166.7l-.02-.2.87.02-.02.17h-.82ZM18.62,167.07l-.02.02h-.43l-.02-.04.48.02ZM20.05,148.92l-2.19,2.77-1.6.02,2.19-2.77,1.6-.02ZM17.52,148.64l.41-.09h.41l-.09.07s-.02.02-.04.02l-2.47,3.14s-.02.02-.02.04l-.15.3v.04l-.06.41-.02,13.59h-.93v-13.57l.06-.33.13-.26,2.45-3.12.33-.26ZM14.59,166.72l-.02-.2.87.02-.02.17h-.82ZM15.24,167.09l-.02.02h-.43l-.02-.04.48.02ZM16.67,148.96l-2.19,2.78-1.6.02,2.19-2.78,1.6-.02ZM13.81,148.94l.35-.26.39-.09h.41l-.09.07-.02.02-2.49,3.14s0,.02-.02.04l-.13.3s-.02.02-.02.04l-.07.41-.02,13.57h-.93l.02-13.55.04-.33.13-.28,2.45-3.1ZM11.23,166.74l-.04-.17h.89l-.04.17h-.8ZM11.88,167.11l-.02.02h-.46l-.02-.02h.5ZM11.88,149.03l1.43-.02-2.19,2.78-2.82.02-.28.02,3.86-2.8ZM7.18,152.87l3.64-.04-.02,13.55h.02s-.02.02-.02.04l.09.52h.02s0,.06.02.06l.24.41s.04.04.06.07l.33.15.07-.13h.02l.07.13.32-.15s.07-.04.09-.09l.24-.39s.02-.04.02-.06l.09-.52v-.04l.02-13.57,1.71-.02-.02,13.57v.02l.09.54s0,.04.02.06l.24.41s.04.04.09.07l.33.15.04-.13h.04l.07.13.33-.15s.04-.04.07-.09l.24-.39s.02-.04.02-.06l.09-.52s.02-.04.02-.04v-13.59l1.71-.02v13.61l.09.54s0,.04.02.07l.24.41s.04.04.09.06l.33.15.04-.13h.04l.04.11.35-.13s.04-.04.06-.09l.24-.39s.02-.04.02-.07l.09-.52s.02-.04.02-.04v-13.61l1.73-.02-.02,13.61v.02l.09.54s0,.04.02.07l.24.41s.04.04.09.06l.32.13.07-.11h.02l.07.11.33-.13s.06-.04.09-.09l.24-.39s0-.04.02-.07l.09-.52v-.04l.02-13.46v-.17h1.71l-.02,13.62h.02l-.02.02.09.54h.02s0,.04.02.07l.24.41.07.06.35.13.04-.11h.04l.04.11.35-.15s.04-.02.07-.07l.24-.39s.02-.04.02-.07l.09-.52s.02-.04.02-.06v-13.62l1.73-.02-.02,13.64v.02l.09.54h.02v.06l.26.39s.04.07.06.09l.33.13.07-.11h.04l.04.11.33-.13s.07-.04.09-.09l.24-.39s.02-.04.02-.06l.09-.54v-.04l.02-13.64,1.73-.02-.02,13.66h.02v.02l.09.54s0,.04.02.06l.24.39s.04.07.09.09l.33.13.04-.13h.04l.04.13.35-.15s.07-.02.07-.07l.26-.39s0-.04.02-.06l.09-.54v-13.7l1.76-.02-.02,13.68v.02l.09.54s.02.04.02.06l.24.39s.07.07.09.09l.32.13.07-.13h.02l.07.13.32-.15s.07-.02.09-.07l.24-.39s.02-.04.02-.06l.09-.54s.02-.02.02-.04v-13.68l1.76-.02-.02,13.68v.04l.09.54s.02.04.02.07l.24.39s.07.06.09.06v.02l.33.13.07-.13h.02l.06.13.33-.15s.07-.02.09-.06l.24-.39s.02-.04.02-.07l.09-.54s.02-.02.02-.04v-13.7l1.76-.02-.02,13.7v.04l.09.54h.02v.07l.26.39s.04.06.09.06l-.02.02.35.13.04-.13h.04l.04.13.35-.15s.07-.02.07-.06l.26-.41s.02-.02.02-.04l.09-.54v-.04l.02-13.42v-.28l1.73-.02v13.75l.09.54s.02.04.02.07l.24.39s.07.06.09.06v.02l.32.13.07-.13h.04l.04.13.35-.15s.04-.04.07-.06l.26-.41s0-.04.02-.07l.09-.52v-13.77l1.76-.02v13.75l.09.56s.02.04.02.07l.24.39s.07.07.09.07l.35.15.04-.13h.04l.04.13.33-.15s.07-.04.09-.07l.26-.41s.02-.04.02-.06l.09-.52v-13.79l1.78-.02-.02,13.75v.02l.09.56h.02s0,.04.02.06l.24.39s.04.07.09.07l.32.15.07-.13h.02l.07.13.33-.15s.06-.04.09-.07l.24-.41s.02-.04.02-.06l.09-.52v-.04l.02-13.7v-.06l1.76-.02v13.79l.09.54s.02.06.02.09l.26.39s.04.04.07.07l.35.15.04-.13h.04l.04.13.35-.15s.07-.04.09-.07l.24-.41s.02-.04.02-.06l.09-.54v-.04l.02-13.64h-.17l.17-.04v-.09l1.78-.02-.02,13.79v.02l.09.54s.02.07.02.07l.26.41.07.06.35.15.04-.13h.04l.06.13.33-.15s.07-.04.09-.06l.24-.41s.02-.04.02-.07l.09-.54s.02-.02.02-.04v-13.59h-.17l.17-.04v-.15l1.78-.02-.02,13.81.02.02.09.54s0,.04.02.07l.24.41s.04.04.09.06l.32.15.07-.13h.02l.07.13.35-.15s.04-.04.07-.06l.26-.41s.02-.04.02-.07l.09-.54v-.04l.02-13.55h-.2l.2-.04v-.22h1.78l-.02,13.81v.02l.11.54s0,.04.02.07l.24.41s.04.04.09.06l.33.15.07-.13h.02l.06.13.33-.15s.07-.04.09-.06l.26-.41s.02-.04.02-.07l.09-.54v-.04l.02-12.81v-.72h-.2l.2-.04-.02-.24,1.8-.02-.02,13.81h.02s-.02.02,0,.04l.09.54s0,.06.02.09l.24.39s.07.04.09.07l.35.15.04-.13h.04l.04.13.35-.15s.07-.04.09-.07l.24-.41s.02-.04.02-.06l.09-.54v-.04l.02-13.44v-.39l5.07-.07.59.04.59.15,74.58,24.8,1,.28.02,6.83-1.08.93-12.27,12.21-.02.02-4.7,4.68-.78.54-.78.22-125.94-.59.04-49.32ZM9.86,203.79h-.07v-.26h.07v.26ZM9.93,204.27l-.04-.11h.04l.04.13-.04-.02ZM7.46,202.88l-.2-.33,125.83.59s.07-.02.07-.02l.8-.22s.04-.02.07-.02l.82-.59,4.75-4.7.02-.02,12.27-12.21.89-.78.11.41-1.02.89-17.04,16.91-.76.52-.76.22-125.85-.65ZM135.17,203.25l-.48.33-.22-.11.48-.33.22.11ZM134.24,203.73l-.33.09-.11-.04.32-.09.11.04ZM10.23,203.79v-.26l79.05.43h.04l44.55.24h1.08s.02-.02.02-.02h.04l.8-.22s.04-.02.07-.02l.82-.56,10.25-10.19s.02-.02.02-.02l5.85-5.81.82-.72.09.2-.93.8-16.15,16.02-.85.59-.85.24-46.03-.26h-.04l-78.68-.43ZM135.28,203.62l.28-.2h.43l-.28.2h-.43ZM13.9,204.92l-.02-.06,5.98.04.02.06-5.98-.04ZM16.87,206.87l-1.37-1.37,4.57.02.2,1.37-3.4-.02ZM25.93,206.87l-4.66.02-.2-1.37,6.22-.02-1.37,1.37ZM20.86,204.96v-.06l6.29.04-6.29.02ZM28.51,206.89l-1.43-.5.07-.07,1.65.56s.02.02.04.02l-.32-.02ZM35.4,206.48l-4.36.2-2.17-.13-1.45-.5.19-.2,1.37.48h.04l2.15.13,4.27-.2-.04.22ZM27.92,205.57l.07-.07h.24l.61.2v.2l-.91-.33ZM31.18,206.09l-1.97-.11v-.22l1.86.11,4.31-.2.07.24-4.27.17ZM31.07,205.5l-.28-.02,4.42-.2,3.73-.13,3.12-.07v-.06h1v.04l.32-.04,1.45.02v.02l-2.36.02-3.17.09-3.77.13-4.47.2ZM39.15,205.55l3.32-.09,2.71-.04v-.07l.59-.02h.17v.28h.39l.54.04h-1.54l-1.58.02-4.31.09-3.62.13-.07-.24,3.4-.11ZM47.59,206.24h-2.43l-2.71.02-3.17.09-3.51.13.04-.22,3.64-.13,2.12-.06,3.75-.04h3.79l1.08.24-2.62-.02ZM65.47,206.42l-2.52.09-2.51.06-2.17-.02-1.86-.06-1.6-.15-1.39-.15-1.19-.22-1.04-.2-1.84-.41-.87-.17-.8-.13,1.39.02,2.28.5,1.04.2,1.19.22,1.37.15,1.58.15,1.86.07,2.17.02,2.49-.07,2.49-.09.78-.02,1.39.17-2.23.04ZM53.57,205.37l1.37.17,1.56.13,1.84.09h2.15l1.82-.04,1.63.2-.89.02-2.49.06h-2.17l-1.84-.09-1.56-.13-1.37-.17-1.17-.2-1.04-.22-.61-.13h1.13v.02l1.65.28ZM54.22,205.09h.28l1.82.17,1.84.06,1.04.02.46.04h-1.3l-1.84-.09-1.56-.13-.74-.09ZM63.76,205.5l-2.97-.37h.15l6.89.87-4.08-.5ZM69.92,206.24l-1.97-.22,2.17.22.11.02-.3-.02ZM87.72,205.92l-1.26.2-1.73.15-2.08.11-2.49.04-2.65-.04-2.56-.11-2.45-.15-2.36-.22-2.25-.26-3.9-.48h1.86l2.04.26,2.28.24,2.36.22,2.47.17,2.58.11,2.67.04,2.49-.04,2.1-.11,1.73-.17,1.17-.15-.02.2ZM69.05,205.18l2.39.02,1.13.11,2.43.15,2.54.11,2.62.04,2.47-.04,1.54-.09c0,.09.09.17.17.17h.74l-.26.02-2.08.11-2.49.04-2.67-.02-2.56-.11-2.45-.17-2.36-.22-1.15-.13ZM85.16,205.29v-.02h.04v.02h-.04ZM85.57,205.29v-.02h.09v.02h-.09ZM86.03,205.29v-.02l.09.02h-.09ZM87.41,205.4v-.11h.67l-.17.04-.5.07ZM88.11,205.66l.72-.15-.02.2-.72.15.02-.2ZM112.04,206.09l-1.26.13-1.24.11-1.21.04-1.17.02-1.17.02-9.37-.09h-3.03l-5.23.13.26-.06.52-.15,4.6-.11h3.06l9.34.09h1.15l1.17-.04,1.19-.04,1.21-.09,1.24-.13,1.24-.17,1.26-.22.41-.09h.85l-1.28.26-1.26.22-1.28.17ZM89.17,205.59l.04-.17.35-.13h.07l-.02.17-.43.13ZM90.04,205.87l.28-.22.02-.04,3.32-.06,3.06-.02,9.37.09h1.15l1.15-.02,1.19-.06,1.21-.09.24-.02,1.93.02-.89.11-1.21.13-1.21.09-1.19.07-1.15.02h-1.15l-9.34-.09-3.08.02-3.69.09ZM118.52,206.52l-3.4-.02h-1.21l1.97-.11.28-.02,3.19-.28,2.41-.35.06.78h-3.29ZM116.16,206l1.11-.26.93-.28,2.88.02-1.78.24-3.14.28ZM122.17,206.52l-.07-.82.5-.07.65-.15,1.99.02.04,1.02h-3.12ZM125.66,206.52l-.06-1.02,2.06.02v.2c0,.11.07.17.17.2h.91l.07.09s.04.04.09.07l.17.06h1.04l.39.39h-4.83ZM128.67,205.55v-.02h.07v.02h-.07ZM129.08,205.55v-.02h.11v.02h-.11ZM129.54,205.55v-.02h.11v.02h-.11ZM129.99,205.55v-.02h.04v.02h-.04ZM132.16,207.59l-1.43-1.45,3.23.02,1.73.02.15,1.43-3.69-.02ZM130.95,205.57v-.04l4.57.04v.04l-4.57-.04ZM136.09,204.75l-.93.24-124.1-.69h-.69l-.07-.13,124.7.67h.04l.89-.24s.04-.02.06-.04l.89-.61,16.17-16.04.87-.74.11.15-.89.76-14.85,14.72-1.32,1.32-.89.63ZM137.1,204.49l.07.02-.61.39-.04-.02.58-.39ZM141.57,207.59l-4.68.02-.17-1.43,6.31-.02-1.45,1.43ZM136.54,205.61v-.06l8.15-.02v.04l-8.15.04ZM152.82,206.22l-4.31.11-5.07.11.28-.28,1-.02h.04l.2-.06s.07-.04.09-.07l.11-.15s.02-.02.02-.07l.07-.26,11.27-.04.15.61-3.84.13ZM157.03,206.09l-.15-.61h1.26l.54.52-1.65.09ZM159.59,206.31l-.85-.82,4.21-.02.09.87-3.45-.02ZM168.39,206.31l-4.36.02-.09-.87,5.33-.02-.89.87ZM194.38,206.46l-1.08-1.11,1.84-.02.17.2s.04.02.07.04l.52.22s.02.02.04.02l.63.09h.04l.61-.09s.04,0,.06-.02l.52-.22s.04-.02.04-.04l.17-.17.11,1.13-3.75-.02ZM203.49,206.46l-4.62.02-.11-1.15,5.85-.02-1.13,1.15ZM223.91,206.33l-1.08-1.11h4.75l.11,1.15-3.77-.04ZM232.97,206.35l-4.57.02-.09-1.15,5.79-.02-1.13,1.15ZM242.43,206.74l-1.56-1.58h5.29l.13,1.6-3.86-.02ZM251.68,206.76h-4.66l-.13-1.6h6.35l-1.56,1.6ZM269.74,207l-1.41-1.39,5.03.02.11,1.39-3.73-.02ZM269.03,205.07l.09-.02v.02h-.09ZM269.48,205.07v-.02h.07v.02h-.07ZM269.92,205.07v-.02h.02v.02h-.02ZM270.78,205.07v-.02h2.47v.02h-2.47ZM278.91,207l-4.42.02-.11-1.39,5.92-.02-1.39,1.39ZM274.25,205.07v-.02l7.7-.04-.02.04-7.67.02ZM281.28,206.63h-1.34l1.04-1.02h.98s.02,0,.04-.02l.17-.04s.07-.04.09-.07l.11-.15h.2l-1.28,1.3ZM282.3,204.75h.02v.09l-.02-.09ZM295.59,204.33l-158.42.59.43-.28,158.37-.56-.39.26ZM298.75,204.38h-2.56l.28-.17h2.28v.17ZM297.95,202.95l9.34-8.82.02,8.59-.04.15-.02.04-.07.02-9.24.02ZM309.01,202.84l-.09.61-.24.48-.35.3-.41.11-8.72.04v-.17l8.69-.04h.04l.37-.11s.07-.02.09-.04l.26-.22s.02-.04.04-.07l.17-.35s0-.04.02-.07l.07-.5v-10.25l.04-.04v10.32ZM308.22,202.97v.04h-.48l.02-.04h.46ZM307.79,202.6v-8.93l.46-.43v9.37h-.46ZM313.95,186.84l-.37.63-.67.78-16.39,15.46-158.55.56,15.89-15.74.91-.78,1.04-.69,1.11-.59,1.08-.41.95-.24.93-.09,152.97.04.67.09.32.2.17.33-.09.46ZM314.38,186.27l-.19-.41s-.04-.06-.09-.09l-.41-.24s-.04-.02-.06-.02l-.74-.09-153.02-.06-.98.11-1,.24-1.13.43-1.13.59-1.08.72-.95.82-16.11,15.98-.09-.04,15.98-15.85,1-.85,1.13-.76,1.21-.63,1.21-.48,1.08-.26,1.04-.11,152.8.07h.24l.74.11.39.22.2.37-.04.24ZM160.11,184.37l-.09-.2,152.71.11.07.17-152.69-.09ZM312.91,184.82l.02.17-152.71-.09-.02-.17,152.71.09ZM313.21,184.47l-.07-.15.39.04.07.15-.39-.04ZM313.71,184.91v.15l-.41-.04-.02-.17.43.06ZM314.08,185.17v-.11l.15.09v.09l-.15-.07ZM316.03,184.71l-.41.72-.74.82-.15.13.07-.37.02-.5s0-.04-.02-.07l-.22-.54-.24-.5s-.04-.04-.07-.07l-.52-.3s-.04-.02-.07-.02l-.82-.11-153.13-.11-1.06.11.02.2-.2.07.15.35-.85.22-.09-.22.46-.11-.09-.35-.67.17-1.28.5-1.3.67-1.21.78-1.02.89-5.85,5.81s0,.02-.02.02l-9.97,9.91-.24.24h-.59l16.72-16.59,1-.85,1.17-.78,1.26-.65,1.26-.5,1.15-.28,1.08-.11,155.16.13.78.11.43.24.17.37-.09.56ZM316.68,184.24l-.28.5.09-.56s0-.09-.02-.11l-.22-.48s-.04-.07-.09-.09l-.5-.3s-.04,0-.07-.02l-.85-.09-154.93-.15h-.28l-1.11.11-1.21.3-1.3.52-1.28.67-1.21.78-1.02.89-16.93,16.8-.24-.13,5.35-5.31.02-.02s.02-.02.04-.02l11.45-11.38,1.08-.93,1.3-.87,1.41-.72,1.43-.56,1.37-.35,1.21-.11,155.25.15.89.11.52.3.2.43-.09.63ZM316.51,181.72l-.02-3.17.28-.04.02,3.36-.28-.15ZM316.92,183.09l-.02-.07.11-.35.02.09-.11.33Z"/>
      <path d="M257.48,143.15l.11.47.18.44.24.39.27.3s.02.02.03.03l.31.22s.02.01.04.02l.34.14s.03,0,.04.01l.35.05s.02,0,.02,0c0,0,.01,0,.02,0l.35-.04s.03,0,.04-.01l.34-.13s.03-.01.04-.02l.31-.21s.02-.02.03-.03l.29-.32.24-.38.17-.43.11-.47.03-.49-.04-.49-.11-.47-.18-.44-.24-.39-.27-.3s-.02-.02-.03-.03l-.31-.22s-.02-.01-.04-.02l-.34-.14s-.03,0-.04-.01l-.35-.05s-.03,0-.05,0l-.35.04s-.03,0-.04.01l-.34.13s-.03.01-.04.02l-.31.21s-.02.02-.03.03l-.29.32-.24.38-.17.43-.11.47-.03.49.04.49ZM259.12,141.93l.1-.04h.1s.1,0,.1,0l.1.04.1.07h0s-.02,0-.02,0c-.01,0-.03,0-.04-.01h-.08s-.03-.01-.05-.01h-.08s-.03.01-.04.02l-.07.03s-.02.01-.04.02l-.07.05s-.02.02-.03.03l-.08.09-.06.1-.04.11-.03.12v.13s0,.13,0,.13l.03.12.05.12.07.1.06.06s.02.02.03.03l.07.05s.02.01.04.02l.07.03s.03,0,.04.01h.08s.02.01.03.01c0,0,.01,0,.02,0h.08s.03-.01.04-.02h.04s-.02,0-.02,0l-.09.06-.1.04h-.1s-.1,0-.1,0l-.1-.04-.09-.07-.09-.1-.08-.12-.06-.14-.04-.15v-.16s0-.16,0-.16l.03-.15.06-.14.07-.12.09-.09.09-.07ZM259.65,142.65l-.02.14-.05.11-.08.07-.06.02h-.03s-.07-.05-.07-.05l-.08-.13-.03-.14.02-.14.05-.11.08-.07.06-.02.1.05.08.13.03.14ZM257.92,143.1v.09s-.01-.09-.01-.09h.01ZM258.01,143.34l.04.24h.09s.04.2.04.2l.11-.02.05.19.14-.03.05.16.16-.05.04.12.17-.06.03.08.19-.06v.04s.44-.16.44-.16c.01,0,.03-.01.04-.02l.16-.11s.02-.02.03-.03l.12-.13-.13.21-.21.22-.22.15-.23.09-.24.03-.24-.03-.12-.05-.18-.19-.2-.31-.15-.36-.03-.11h.04ZM258.47,141.03l.15-.06.24-.03.24.03.23.1.22.16.19.2.11.18-.08-.09s-.02-.02-.03-.02l-.16-.12s-.02-.01-.04-.02l-.22-.08h0s-.02,0-.02,0l-.19-.07v.03s-.2-.06-.2-.06l-.02.07-.18-.05-.03.11-.16-.04-.04.15-.14-.03-.04.18-.12-.02-.04.21h-.09s-.03.22-.03.22h-.05s.02-.11.02-.11l.14-.36.19-.31.16-.17ZM257.92,142.22h-.02s.03-.13.03-.13v.13Z"/>
      <path d="M204.78,15.37l-.07-.48-.13-.46-.22-.41-.26-.33s-.02-.02-.02-.04l-.3-.24s-.02-.02-.04-.02l-.33-.15s-.04-.02-.06-.02l-.37-.06-121.32-4.38-.35.04s-.04,0-.07.02l-.33.13s-.04.02-.04.02l-.3.24s-.02.02-.04.02l-.26.33s0,.02-.02.04l-.2.41-.11.46-.04.48,2.67,122.99.04.5.15.48.2.39s.02.02.02.02l.26.35s.02.02.04.02l.3.24s.02.02.04.02l.35.17h.04l.39.07,121.47,1.19.35-.04s.04,0,.07-.02l.32-.13s.02-.02.02-.04l.3-.22s.02-.02.02-.04l.24-.3s.02-.02.02-.04l.2-.41.11-.46.02-.46-2.78-119.87ZM204.02,14.98l.02.07-.04.02-.02-.07.04-.02ZM205.99,129.5v.04l-.02.37-.09.35-.15.33-.17.26-.24.17-.24.09-.28.04-112.97-1.34-.3-.04-.28-.11-.24-.2-.22-.26-.15-.3-.11-.35-.04-.41-2.43-111.91.02-.39.09-.37.15-.3.19-.24.24-.17.26-.11.28-.02,112.95,4.03.3.04.26.11.24.2.2.26.15.3.11.35.04.39,1.99,89.26v.02l.46,19.92ZM205.6,131.93l.24-.26.07,2.91v.11l-.28-.22.02-.35-.04-2.19ZM202.87,134.07l-.17.11-.26.04-116.83-1.3,5.27-2.3.3.04,113.63,1.34-1.93,2.06ZM204.58,133.66l-.02.26-.89.06.89-.95.02.63ZM83.52,133.36l.91-.07.35-.06.33.04,113.69,1.28-1.32.09.02.37,1.97-.15-.11.22-.13.17-114.67-1.17-.3-.04-.22-.09-.24-.2-.22-.26v-.02l-.06-.11ZM80.81,12.04l.06-.13.87.02-.93.11ZM80.99,13.23v.02h-.28v-.02h.28ZM201.76,16.55l-.78.06-.04-.02.8-.09h.02v.04ZM201.85,16.87l.02.24v.11l-.43-.3.41-.04ZM202.02,17.82l-113.39-4.05-.28.04-4.86-1.52,116.29,4.21.26.04.22.09,1.76,1.19ZM88.6,14.4s-.02.02-.04.04l-.26.2s-.04.02-.04.02l-.22.28s-.02.02-.02.04l-.17.35-.04.17.02-.15s.02-.02.02-.02l.04-.15.13-.3.22-.24.22-.17.15-.06ZM87.62,14.85v.02l-.02-.02h.02ZM87.49,15.22v.02l-.02-.02h.02ZM81.77,12.99l5.51,1.71v.02l-5.51-1.73ZM87.14,15.07v.02l-5.55-1.73-.26-.06v-.02l.26.04,5.55,1.76ZM154.07,14.49l41.56,1.47.19.04-41.76-1.52ZM195.98,15.66l-.3-.04-114.56-4.08.04-.07.17-.13.28-.11.26-.04,116.88,4.16-2.78.3ZM81.27,13.66l.24.04,5.57,1.73-.02.28,2.45,112.95.02.26-5.49,2.41-.24.09-.02-.17-2.51-117.4v-.2ZM89.61,129.35l-5.46,2.38-.26.09-.02-.04.3-.09,5.44-2.38v.04ZM89.77,129.67v.02l-5.44,2.38-.28.09-.02-.02.26-.09,5.49-2.38ZM83.54,131.9l-.17.04h-.11v-.02h.04l.22-.04.02.02ZM83.67,132.25v.02l-.13.02h-.11l.24-.04ZM90.07,129.5h.02l.02.02-.02.02-.02-.04ZM90.31,129.82v.02l-.02-.02h.02ZM90.29,129.02l.2.37s0,.02.02.02l.24.3.02.02.28.22s.02.02.04.02l.22.09h-.07l-.28-.13-.24-.2-.22-.26-.17-.3-.04-.15ZM203.2,18.15l-.09-.06-.17-.13-.02-1.34-.04-.33.28-.24v.09l.04,2.02ZM203.85,14.59l.04.04-.04.02-.04-.04.04-.02ZM203.82,18.97l-.17-.35-.09-.09-.04-2.43-.04-.33.26-.15v.11l.09,3.23ZM203.39,15.42l-.02-.04.28-.2.02.07-.28.17ZM203.63,14.27l.02.02-.02.02-.02-.02.02-.02ZM203.5,14.79l.02.04-.28.2-.02-.04.28-.2ZM203.28,14.46l.02.02-.28.2-.02-.02.28-.2ZM202.61,14.75l.22.28.17.33.09.28-.3.26-.06-.2-.2-.39-.24-.3s-.02-.02-.04-.04l-.28-.24s-.02-.02-.04-.02l-.07-.02.3-.24.19.09.26.22ZM81.42,9.63l.17-.02,120.63,4.34-.13.09-.3-.04-120.22-4.31-.15.02v-.06ZM201.7,14.33l-.22.2-.28-.04-119.48-4.27-.2.02-.04-.2h.11l120.11,4.29ZM80.38,11.02v-.04l.15-.33.22-.26.26-.2.13-.07.04.2-.17.06s-.02.02-.04.02l-.28.24s-.02.02-.04.02l-.24.3s-.02.02-.02.04ZM80.62,11.43l-.13.3.04-.2.13-.28.26-.35.24-.2.28-.11.3-.04,119.41,4.27.33.06.26.13.26.2.22.28.17.33.11.39.04.41.02,1.08-.04-.04-.02-.69-.04-.41v-.04l-.13-.43-.19-.39-.24-.3s-.02-.02-.04-.02l-.28-.24s-.02-.02-.02-.02l-.32-.15h-.04v-.02l-.35-.07-118.89-4.23-.33.04h-.07l-.32.13s-.02.02-.02.02l-.3.24s-.02,0-.02.02l-.24.3-.02.02ZM80.75,16.02l-.04-2.43h.02l.19.02-.02.22,2.54,117.38.02.3-.2.04-2.51-115.53ZM83.26,133.77l-.09-.13-.02-.09.11.22ZM83.83,135l-.13-.07-.26-.22-.24-.28-.09-.2.2.26.02.02.3.24s.02.02.04.02l.2.09-.04.13ZM84.32,135.11l-.15-.02.04-.11.22.02,119.61,1.21.26-.04.19.15-120.17-1.21ZM204.3,135.81l-.28.04-119.56-1.19-.33-.06-.28-.13-.28-.2-.22-.3-.09-.17.26.3s.02.02.02.04l.3.22s.02.02.04.02l.32.15s.02.02.04.02l.37.04,119.02,1.21.32-.04s.04,0,.04-.02l.3-.13s.04-.02.04-.02l.28-.22s.02-.02.02-.04l.22-.28s.02-.02.02-.04l.19-.39.09-.39v-.04l.04-.43-.04-1.39.04-.04.04,1.8-.02.41-.09.35-.15.35-.22.28-.24.2-.26.11ZM204.69,136.67l.24-.02.06.02h-.3ZM205.65,135.7l-.22.26-.24.2-.2.09-.26-.22.04-.04.28-.22.02-.02.24-.3s0-.02.02-.04l.17-.39.04-.15.3.24-.07.28-.15.33ZM206.12,136.22l-.3-.17.02-.02.3.17-.02.02ZM206.32,135.89l-.3-.17.02-.04.3.17-.02.04ZM206.45,135.5l-.28-.17.02-.04.28.17-.02.04ZM206.51,135.07l-.26-.15.02-.35-.09-3.34.17-.35.07-.28.09,4.34v.13ZM206.69,136.05h-.04l.02-.04.04.02-.02.02ZM206.82,135.68l-.02-.02v-.04h.04l-.02.07ZM206.88,135.26l-.02-.02.02-.3-.59-25.37v-.04l-2.19-93.81-.04-.3h.04l.02.15,2.78,119.48-.02.22Z"/>
      <path d="M227,126.61h0s0-.02,0-.04l-.06-.25h0s-.01-.05-.03-.07l-.14-.18h0s-.05-.05-.08-.06l-.19-.07h0s-.04-.01-.06-.01l-8.01-.1v.07s-.04,0-.04,0l-.02-.06-.21.07s-.05.03-.07.06l-.13.17s-.03.06-.03.08l-.04.24s0,.02,0,.04l.24,10.46s0,.02,0,.04l.06.25s.02.05.03.07l.14.18s.08.06.11.07l.16.06s.04.01.06.01l8.01.08v-.05s.05,0,.05,0v.04s.2-.06.2-.06h0s.06-.03.09-.06l.13-.18h0s.03-.05.04-.08l.05-.25s0-.02,0-.04h0s-.24-10.44-.24-10.44ZM226.63,136.91l-.23-10.08.25-.02.23,10.08-.25.02ZM218.23,126.52v-.07s7.64.1,7.64.1l.05.02.04.11.24,10.39-.02.1-.05.03-7.61-.08-.04-.17-.24-10.43Z"/>
      <path d="M219.08,71.67l-.05-.17-.18.05h-.07s0,.08,0,.08l-.03-.03-.17.15s-.03.03-.04.06l-.08.15h-.01s0,.02,0,.02l-.03.07.04.02v.04s-.06,0-.06,0l-.02.11h-.1s.03.37.03.37h.05s.15,5.76.15,5.76h-.08s.03.37.03.37h.06s.01.15.01.15l-.22.02.03.36.17-.02.02.18.19-.02v.08s.54-.05.54-.05l4.5.1v.02s.18-.02.18-.02h0s0,0,0,0h.05s.19-.06.19-.06c.03,0,.05-.02.07-.04l.18-.16s.03-.03.04-.06l.12-.24s.01-.04.02-.05l.04-.28-.16-6.14-.05-.25s0-.03-.02-.05l-.13-.25s-.02-.04-.04-.05l-.19-.17s-.04-.03-.07-.04l-.19-.06s-.03,0-.05,0l-4.7-.12v.18ZM219.03,72.44v-.11s.04-.06.04-.06l.07-.03,1.43.03-.13.05s-.03.01-.04.02l-.38.26-.38.04.03.31-.04.05-.39.04.03.36h.09s-.06.09-.06.09h-.06s0,.11,0,.11h-.01s-.18.45-.18.45h0s-.04-1.6-.04-1.6ZM221.01,72.49l.44-.04.44.07.43.18.39.27.37.39.31.47.23.54.15.58.06.61-.03.6-.12.58-.19.49-.29.49-.35.38-.39.27-.42.16-.46.05h0s-.42-.07-.42-.07l-.43-.18-.41-.29-.36-.39-.04-.06.35.37.38.27s.02.01.04.02l.41.17s.03,0,.04.01l.42.06s.02,0,.03,0c.04,0,.09-.02.12-.05.04-.04.06-.09.06-.14l-.14-5.6c0-.05-.03-.1-.06-.13-.04-.03-.09-.05-.14-.04l-.41.04s-.03,0-.04.01l-.4.15s-.03.01-.04.02l-.37.25s-.02.02-.03.03l-.34.37-.25.42.03-.07.28-.45.34-.37.39-.26.42-.16ZM219.56,75.46l.02-.52.1-.49.17-.44.24-.4.3-.33.33-.23.36-.13.2-.02.13,5.19-.19-.03-.37-.15-.33-.23-.32-.33-.26-.4-.2-.46-.13-.5-.05-.52ZM219.67,77.17l-.02-.04.21.34-.2-.3ZM219.15,76.88l.19.45h.02s0,.02,0,.02h0s.01.02.01.02v.08s.05,0,.05,0l.1.16-.17.02.03.36.38-.04.07.08h-.07s.03.37.03.37l.29-.03.03.32-.73-.02h-.12s-.04-.05-.04-.05l-.04-.07-.05-1.66h0ZM220.57,78.66v.02s-.21,0-.21,0l.21-.02ZM222.62,78.68s.03-.01.04-.02l.42-.29s.02-.02.03-.03l.39-.42.28-.46s.02-.04.03-.05l.18-.46.04,1.46h-.08s.01.14.01.14h-.02s.01.11.01.11h-.03s0,.07,0,.07h-.12s-1.3-.02-1.3-.02l.12-.04ZM223.7,72.35h0s.02,0,.02,0v.04s.04,0,.04,0v.09s.02,0,.02,0v.13s.03,0,.03,0v.14s.07,0,.07,0l.04,1.4-.2-.46s-.02-.04-.03-.05l-.33-.5-.41-.44-.44-.31s-.02-.01-.04-.02l-.13-.05,1.35.03ZM223.96,79.14l-4.66-.11-.13-.04-.02-.02.09.03s.03,0,.04,0l4.65.11h0s.04-.02.04-.02h0s.11-.01.11-.01h0s.04-.02.05-.03l-.06.05-.12.03ZM223.88,72h.02s-.09-.01-.09-.01c-.01,0-.03,0-.04,0h0s-4.64-.12-4.64-.12c-.02,0-.03,0-.05,0l-.11.03s-.03.02-.05.02l.05-.05.13-.03,4.65.11.13.04Z"/>
      <path d="M218,23.53l4.16.14v.08s.58-.07.58-.07l.19-.05s.05-.02.07-.04l.18-.16s.03-.04.04-.06l.12-.24s.01-.04.02-.05l.04-.28-.16-6.13-.05-.25s0-.03-.02-.05l-.13-.25s-.02-.04-.04-.05l-.19-.17s-.04-.03-.06-.04l-.19-.06s-.03,0-.05,0l-4.7-.17v.18s-.05-.17-.05-.17l-.17.04-.18.02v.08s-.1.1-.1.1c-.02.02-.03.04-.04.06l-.12.24s-.02.03-.02.06l-.02.11h-.1s.04.37.04.37h.04s.15,5.74.15,5.74h-.09s.04.37.04.37h.05s.02.15.02.15l-.22.02.04.36.17-.02.02.19.18-.02v.08s.54-.06.54-.06ZM220.77,22.67l-.44.04-.44-.07-.43-.18-.41-.29-.36-.39-.03-.05.35.37.38.27s.02.01.03.02l.41.17s.03,0,.04.01l.42.07s.02,0,.03,0c0,0,.01,0,.02,0l.42-.04s.03,0,.04,0l.4-.14s.03-.01.04-.02h0s.37-.24.37-.24c.01,0,.02-.02.03-.03h0s.32-.33.32-.33c0,0,0-.02.02-.03h0s.25-.39.25-.39l-.03.07-.27.44-.34.36-.39.26-.42.15ZM219.79,17.08h.08s.02.16.02.16h-.13s.12,4.83.12,4.83h.12s.02.16.02.16h-.07s-.37-.17-.37-.17l-.34-.24-.32-.33-.26-.41-.2-.46-.13-.5-.05-.52.02-.52.1-.49.17-.45.25-.4.29-.31.33-.22.36-.13ZM221.26,17.52l.3.33.02.09h.04s.18.27.18.27l.02.17h.06s.1.23.1.23l.03.26h.06s.05.17.05.17h-.01s.04.36.04.36h.04s.02.18.02.18h-.04s.04.36.04.36h0s0,.18,0,.18h-.06s.03.25.03.25l-.06.27h-.06s.02.16.02.16l-.12.31h-.04s0,.08,0,.08h0s-.24.39-.24.39l-.26.28-.48.05.02.2-.24.03s.01-.04.01-.06l-.12-4.74.35-.04.31.22ZM220.24,21.89l-.11-4.46h.12s.11,4.47.11,4.47h-.12ZM220.17,17.05l.16.03h-.3s.14-.03.14-.03ZM221.84,17.62h0s0,0,0,0c0,0,0,0,0,0ZM221.51,17.26s-.02-.01-.03-.02h0s-.38-.28-.38-.28c-.01,0-.02-.01-.04-.02h0s-.41-.18-.41-.18c-.01,0-.03,0-.04,0h0s-.42-.07-.42-.07h0s-.03,0-.05,0l-.42.04.02.18-.06-.17-.4.14s-.03.01-.04.02l-.37.25s-.02.02-.03.03l-.32.34s-.02.02-.02.03l-.26.42.03-.08.28-.45.34-.36.39-.26.4-.14.46-.05.44.07.43.18.4.28.37.39.04.06-.32-.34ZM218.06,21.46h.02s0,.02,0,.02h0s0,.02,0,.02v.09s.05,0,.05,0l.26.41.07-.04v.02s-.05.05-.05.05l.14.15-.19.02.04.36.4-.04.04.32-.8-.03h-.05s-.04-.05-.04-.05l-.04-.07-.05-1.65.19.44ZM219.29,22.81v.02s-.15,0-.15,0l.15-.02ZM221.33,22.85s.03-.01.04-.02l.42-.28s.02-.02.03-.03l.37-.39s.02-.02.02-.03l.28-.46s.02-.04.03-.05l.18-.45.04,1.47h-.09s.02.15.02.15h-.02s.01.11.01.11h-.03s0,.07,0,.07h-.08s-1.35-.04-1.35-.04l.12-.04ZM222.41,16.54h0s.02,0,.02,0v.04s.04,0,.04,0v.09s.03,0,.03,0v.13s.03,0,.03,0l.02.14h.06s.04,1.38.04,1.38l-.2-.46s-.02-.04-.03-.05l-.33-.5-.41-.44-.43-.31s-.02-.02-.04-.02l-.12-.05,1.34.05ZM219.12,16.42v.05s-.47.05-.47.05l.03.23-.45.05.04.34-.41.05.04.36.18-.02-.1.16.07.05v.02s-.09-.04-.09-.04l-.17.45-.04-1.6v-.11s.04-.06.04-.06l.07-.03,1.27.05ZM222.67,23.33l-4.65-.16-.13-.04h-.02s.09.01.09.01c.01,0,.03,0,.04,0l4.65.16h0s.04-.01.04-.01h0s.11-.01.11-.01h0s.04-.02.06-.03l-.06.05-.12.03ZM217.82,15.99l4.65.17.13.04h.01s-.08-.01-.08-.01c-.01,0-.03,0-.04,0h0s-4.64-.17-4.64-.17c-.02,0-.03,0-.05,0l-.11.02s-.04.02-.05.03l.06-.05.13-.03Z"/>
      <path d="M262.68,186.69l-.04-.1h0c-.02-.05-.06-.09-.12-.11l-.16-.04s-.03,0-.04,0h0s-4.71,0-4.71,0h0s-.02,0-.03,0l-.24.04s-.03,0-.04.01h0s-.25.1-.25.1c-.01,0-.02.01-.04.02h0s-.22.15-.22.15l-.93.89-.52.59s-.02.02-.02.03l-.3.55s-.02.04-.02.07l-.05.47s0,.07.02.11l.2.36s.04.06.07.07l.43.23s.04.02.06.02l.64.08s.01,0,.02,0c0,0,.01,0,.02,0l.82-.08.92-.23.97-.37.95-.48.86-.56.72-.6.91-.88s.02-.02.03-.03l.08-.13s0,0,0,0c0,0,0,0,0,0h0s0,0,0,0c.03-.05.04-.11.01-.17ZM256.71,189.44v-1.92s.32-.01.32-.01l.05.03v1.87s-.37.04-.37.04ZM257.41,186.93h.03s.06.08.06.08l-.09-.08ZM257.45,189.33v-1.66s.4.04.4.04h.07s0,1.5,0,1.5l-.47.12ZM259.16,187.42l.2-.1s.04-.02.05-.04l.1-.1.16-.03v1.31s-.51.26-.51.26v-1.31ZM260.04,187.07l.44-.11v1s-.44.29-.44.29v-1.17ZM260.84,187.66v-.81s.13-.04.13-.04h.81s-.56.53-.56.53l-.39.32ZM258.85,186.83h-.03s0-.02,0-.02h.03s0,.02,0,.02ZM258.45,186.86h-.11s-.02-.05-.02-.05h.13s0,.05,0,.05ZM257.99,186.94l-.09.02-.09-.13.09-.02h.06s.03.13.03.13ZM256.35,189.43l-.22-.03v-1.44s.13-.15.13-.15l.09-.09v1.71ZM258.28,187.69l.35-.05.18-.06v1.31s-.52.2-.52.2v-1.4ZM255.77,189.27l-.04-.02v-.8s.04-.07.04-.07v.89Z"/>
      <path d="M306.87,186.7l-.04-.1c-.02-.06-.07-.09-.13-.1h0s-.15-.04-.15-.04c-.01,0-.03,0-.04,0h0s-4.62,0-4.62,0h0s-.02,0-.03,0l-.23.04s-.03,0-.04.01h0s-.25.1-.25.1c-.01,0-.02.01-.03.02h0s-.22.15-.22.15l-.93.88-.53.59s-.02.02-.02.03l-.3.54s-.02.04-.02.06l-.06.47s0,.07.02.11l.18.36s.04.06.07.08l.42.22s.04.02.06.02l.62.08s.01,0,.02,0c0,0,.01,0,.02,0l.81-.08.91-.23.96-.37.94-.48.86-.56.72-.59.91-.87s.02-.02.03-.03l.08-.13h0s0,0,0,0h0s.04-.11.02-.16ZM300.37,189.39v-1.38s.17-.2.17-.2l.04-.03v1.63s-.21-.03-.21-.03ZM301.68,186.93h.03s.06.08.06.08l-.09-.08ZM303.35,187.44l.25-.12s.04-.02.05-.04l.1-.11.1-.02v1.3s-.51.26-.51.26v-1.26ZM304.22,187.07l.44-.11v.99s-.44.28-.44.28v-1.16ZM305.02,186.86l.13-.04h.81s-.56.53-.56.53l-.39.32v-.8ZM303.1,186.83h-.02s0-.02,0-.02h.02s0,.02,0,.02ZM302.71,186.86h-.1s-.01-.05-.01-.05h.12s0,.05,0,.05ZM302.25,186.94l-.09.02-.08-.13.09-.02h.06s.03.13.03.13ZM300.94,187.52h.36s0,1.86,0,1.86l-.36.04v-1.9ZM301.65,187.67l.44.05h.02s0,1.48,0,1.48l-.46.12v-1.65ZM302.48,187.71l.39-.07.12-.04v1.27s-.51.2-.51.2v-1.37ZM300.01,189.24h-.03s0-.75,0-.75l.03-.05v.8Z"/>
      <path d="M215.7,186.68l-.05-.1h0s-.06-.09-.12-.1l-.16-.04s-.03,0-.04,0h0s-4.81,0-4.81,0h0s-.02,0-.03,0l-.24.04s-.03,0-.04.01h0s-.25.1-.25.1c-.01,0-.02.01-.04.02h0s-.22.15-.22.15l-.92.9-.52.6s-.02.02-.02.03l-.29.55s-.02.04-.02.07l-.04.48s0,.07.02.1l.21.37s.04.05.07.07l.45.23s.04.02.06.02l.65.08s.01,0,.02,0c0,0,.01,0,.02,0l.84-.08.94-.24.98-.37.95-.49.87-.57.71-.6.91-.89s.02-.02.03-.04l.08-.14h0c.03-.05.04-.11.01-.17ZM208.7,188.37l.04-.04v.96s-.05-.03-.05-.03v-.86l.02-.03ZM211.29,189.11v-1.4s.42-.07.42-.07l.12-.04v1.3s-.53.2-.53.2ZM209.1,189.43v-1.51s.24-.24.24-.24v1.77s-.24-.03-.24-.03ZM210.55,187.01l-.1-.09h.03s.07.09.07.09ZM209.7,189.46v-1.94s.38-.01.38-.01v1.92s-.38.04-.38.04ZM210.44,189.36v-1.69s.47.05.47.05h.02s0,1.51,0,1.51l-.49.12ZM212.45,187.32s.03-.02.05-.04l.11-.12.09-.02v1.33s-.51.26-.51.26v-1.29s.26-.13.26-.13ZM213.06,187.06l.45-.11v1.01s-.45.29-.45.29v-1.19ZM213.87,187.67v-.82s.13-.04.13-.04h.81s-.56.54-.56.54l-.39.32ZM211.91,186.82h-.03s0-.02,0-.02h.04s-.01.02-.01.02ZM211.51,186.86l-.11.02-.02-.07h.14s0,.06,0,.06ZM211.04,186.94l-.09.02-.09-.14.09-.02h.06s.03.14.03.14Z"/>
      <path d="M169.75,186.67l-.05-.1h0s-.06-.09-.12-.1l-.17-.04s-.03,0-.04,0h0s-4.9,0-4.9,0h0s-.02,0-.03,0l-.24.04h0s-.03,0-.04.01l-.23.09s-.04.02-.06.03h0s-.22.16-.22.16l-.92.91-.51.6s-.02.02-.02.04l-.28.56s-.02.05-.02.07l-.03.48s0,.07.03.1l.22.37s.04.05.07.07l.46.23s.04.02.06.02l.66.08s.01,0,.02,0c0,0,.01,0,.02,0l.86-.08.94-.24.99-.38.96-.49.87-.57.72-.62.9-.89s.02-.02.03-.04l.08-.14h0c.03-.05.03-.11,0-.17ZM164.39,186.91h.03s.07.09.07.09l-.1-.09ZM163.71,187.52h.34s.06.02.06.02v1.91l-.4.04v-1.97ZM164.47,187.68l.41.04h.09s0,1.53,0,1.53l-.5.12v-1.7ZM167.12,187.06l.45-.12v1.02l-.45.29v-1.2ZM167.92,186.84l.13-.04h.81s-.56.55-.56.55l-.38.33v-.83ZM165.87,186.82h-.04s0-.03,0-.03h.05v.03ZM165.46,186.85l-.12.02-.02-.08h.14s0,.06,0,.06ZM164.99,186.93l-.09.02-.1-.14.09-.02h.06s.03.14.03.14ZM163.35,189.48l-.25-.03v-1.58l.25-.25v1.86ZM165.32,187.7l.35-.06.18-.06h0s0,1.34,0,1.34l-.54.21v-1.43ZM166.23,187.41l.21-.1s.03-.02.05-.03l.1-.1.18-.04v1.35l-.53.27v-1.34ZM162.74,189.32l-.07-.03v-.92l.07-.08v1.03Z"/>
      <path d="M196.94,153.35l-.24-.15s-.02-.01-.03-.02l-8.3-2.69-.41-.11-.94-.21-1.67-.25-.81-.07-39.74-.33-.6.02-.41.06s-.04,0-.05.02l-.21.1c-.07.03-.11.1-.1.18v.13c.01.05.04.1.09.14l.23.16s.02.01.04.02l.22.07s0,0,.01,0l.37.14v-.02s1.04.34,1.04.34h0s.03,0,.03,0l.42.14h0s.03,0,.03,0l6.14,2.02.61.17.75.16.83.14.73.09.95.09.72.03,39.09.28.57-.02s.02,0,.02,0l.4-.06s.04,0,.05-.02l.2-.1c.07-.04.11-.11.1-.19l-.02-.13c0-.05-.04-.09-.08-.12ZM185.36,150.91l.09-.34.39.05-.1.33-.38-.05ZM185.08,150.53l-.09.33-.35-.03.08-.34.36.03ZM186.2,150.67l.37.06-.11.33-.36-.06.1-.33ZM187.11,151.19l-.29-.06.11-.33.3.07-.12.32ZM144.98,150.17h.18s38.77.3,38.77.3h.43s-.08.35-.08.35l-38.59-.32h-.26s-.24-.07-.24-.07l-.21-.26ZM193.28,153.13s-.03-.01-.03-.01l-5.29-1.7-.5-.14.12-.32,7.83,2.49.34.12-.07.06h-.87s-1.53-.5-1.53-.5ZM156.62,153.35l-.7-.03-.81-.07-.84-.11-.82-.14-.73-.16-.59-.16-5.13-1.67,11.83.09s.07,0,.07,0l7.93.06s.04,0,.04,0l5.9.04s.04,0,.04,0l11.09.08.53.02,1.2.12,1.34.24,6.07,1.93-22.23-.16-14.18-.1Z"/>
      <path d="M200.05,25.24l-.04-.41-.13-.41-.2-.37-.24-.28s-.02-.02-.02-.04l-.26-.22s-.02-.02-.04-.02l-.3-.15h-.04l-.33-.07-104.91-3.64-.32.04s-.02,0-.04.02l-.3.13s-.02,0-.04.02l-.26.2-.04.04-.22.28s-.02.02-.02.04l-.17.35-.13.41-.02.43,2.19,101.35.07.43.11.39s.02.02.02.02l.19.39.26.28s0,.02.02.02l.28.24s.02,0,.02.02l.33.13s.02.02.04.02l.35.07,104.91,1.34.33-.04s.02,0,.04-.02l.28-.13s.02,0,.04-.02l.26-.22s.02-.02.02-.02l.22-.28s.02-.02.02-.02l.17-.37.11-.41.04-.41-2.23-99.12ZM201.53,124.51l.04.02-.02.02-.02-.02v-.02ZM201.4,124.88l.04.02-.02.02-.04-.02.02-.02ZM198.95,23.79l.24.22.2.24.15.3.04.15-.19-.37-.22-.3s-.02-.02-.04-.02l-.28-.22s-.02-.02-.02-.04l.13.04ZM199.6,24.72v.02s0-.02-.02-.02h.02ZM199.34,25.09v.02l-.02.02-.02-.02.04-.02ZM199.21,24.74l-.04.02-.02-.04.04-.02.02.04ZM198.99,24.39l-.04.02-.02-.02.04-.02.02.02ZM93.88,20.49l103.11,3.56-10.99,3.01-.76-.24-4.75-.67-5.49-.61-.46-.04-5.2-.46-7.05-.46-7.15-.37-12.01-.48-11.32-.33-8.65-.17-7.91-.04-6.76.06-7.09.2-6.72.3-.85.17-.13-3.43.17-.02ZM93.37,20.62l.13,3.4-.61.28.48-3.69ZM92.52,22.57v-.02h.11l.26-1-.32,2.47-.04-1.08.09-.35-.09-.02ZM94.69,122.34l-.02-.46.3,1.13-.28-.67ZM95.81,121.71l-.98-.48-.17-.13-2.1-96.19.19-.15.98-.43.98-.2,6.7-.3,7.09-.2,6.76-.07,7.05.04,8.09.13,12.73.37,11.95.46,7.22.39,7.05.46,5.18.43,4.99.56,5.44.76.76.26.78.5.8.76.78.95.65,1.11.54,1.15.35,1.15,1.67,8.09,1.24,8.35.89,9.08.54,8.3.3,8.37.07,8.35-.15,8.33-.48,9.13-.78,7.78-1.34,8.69-.3,1.17-.48,1.15-.61,1.08-.72.91-.78.72-.76.46-.63.15-3.88.22-3.53.13-4.55.13-10.8.11-7.15-.02-10.82-.11-12.01-.2-7.57-.15-7.94-.24-5.38-.2-10.06-.48-6.74-.41-1.04-.22ZM101.36,124.23l-5.2-.06-.19-.04-.02-2.02.87.17,6.76.41,9.11.46h.04l3.64.15,16.69.46,24.3.33,7.15.02,7.05-.04,1.21-.02h.02l4.21-.07,4.05-.15,6.4-.33v-.02h.02l.02.02.72-.17,10.45,2.17-97.3-1.26ZM191.79,118.7l.28-1.04,1.21-7.78.02-.04.82-8.24.56-10.56.15-7.87-.07-7.96-.3-8-.5-7.83-1.04-10.49-1.19-8.15-1.65-7.89-.3-1,9.28-6.09v.13l2.19,97.89v.13l-9.47-5.2ZM201.22,125.23v.02l-.02-.02h.02ZM201.81,125.05l-.15.33-.2.24-.24.2-.24.11h-.09l.2-.07-.02-.02h.04l.28-.22s.02-.02.02-.04l.22-.28s.02-.02.02-.02l.17-.35-.02.13Z"/>
      <path d="M144.34,20.64s0,.04.02.05l.08.15.02.14h.1s.08.06.08.06c.02.02.04.03.07.04l.14.05s.03,0,.05,0l3.68.13v-.18s.05.18.05.18l.14-.04s.05-.02.07-.04l.13-.11s.03-.04.04-.06l.09-.17s.01-.04.02-.06l.03-.21-.08-3.02-.04-.19s0-.03-.02-.05l-.1-.18s-.02-.04-.04-.05l-.14-.12s-.04-.03-.06-.04l-.14-.05s-.03,0-.05,0l-3.68-.13v.18s-.05-.18-.05-.18l-.14.03s-.05.02-.07.04l-.13.11s-.03.04-.05.06l-.09.17.1.05v.03s-.12-.01-.12-.01l-.03.21.08,3.02.04.19ZM148.44,17.47h.03s.05.08.05.08l.09,2.97v.09s-.05.04-.05.04h-.08s-.31,0-.31,0c.02-.03.03-.06.03-.09v-.06s0-.05-.01-.08l-1.23-2.08,1.08.04h0s.13,0,.13,0h.03s.07-.04.09-.07l.02-.03s.03-.05.03-.08v-.04s.01-.03.01-.04v-.26s0-.02-.01-.04v-.05s-.03-.05-.04-.07l-.03-.03s-.05-.05-.08-.06h-.03s-.04-.02-.06-.02l-2.91-.1v.16s-.06-.16-.06-.16h-.03s-.07.04-.09.07l-.02.02h0s0,.01,0,.01c-.02.02-.03.05-.04.08v.04s.06.01.06.01v.04s-.07,0-.07,0v.25s0,.02.01.04v.05s.03.05.04.07l.03.03s.05.05.08.06h.03s.04.02.06.02l1.19.04-1.11,1.94-.03.07s-.01.05-.01.08v.06s.02.05.04.07h-.34s-.03-.02-.03-.02l-.05-.07-.07-2.32-.02-.66v-.09s.03-.04.03-.04l.04-.02,3.59.13ZM148.01,17.93v.08s-2.69-.1-2.69-.1v-.08s2.69.1,2.69.1ZM146.66,18.56l1.13,1.86-2.14-.07,1.01-1.78ZM147.92,20.6v.04s0,0,0,0v-.04Z"/>
      <path d="M151.45,126.38s0-.04-.02-.05l-.1-.18s-.02-.04-.04-.05l-.14-.12s-.04-.03-.07-.04l-.14-.04s-.03,0-.05,0l-3.68-.05v.18s-.05-.17-.05-.17l-.11.03-.29.02.02.18s0,0,0,.01l-.09.17s-.01.04-.02.06l-.03.21.08,3.03.04.19s0,.04.02.05l.1.18s.02.04.04.05l.14.12s.04.03.07.04l.15.04s.03,0,.05,0l3.68.04h0s.03,0,.05,0l.14-.04s.05-.02.07-.04l.13-.12s.03-.03.04-.06l.09-.18s.01-.04.02-.05l.03-.21-.08-3.03-.04-.18ZM147.24,126.21h0s0,.06,0,.06v-.05s0,0,0,0ZM147.25,129h-.18s.18-.04.18-.04l-.06-2.37v-.09s.03-.04.03-.04l.05-.02h.39s0,0,0,0v.1s-.07,0-.07,0v.05s0,.05.01.08l1.23,2.07h-1.16s0,.04,0,.04c-.01,0-.03,0-.04,0v-.04s-.05.01-.05.01c-.02,0-.03.02-.04.03h-.18s.03.37.03.37h.03s0,.11,0,.11c0,.01,0,.02,0,.04v.05s.03.05.05.07l.03.03s.05.05.08.06h.04s.04.02.06.02l2.83.03h0s.1,0,.1,0c.01,0,.03,0,.04,0h.03s.07-.05.09-.08l.02-.03s.03-.05.03-.07v-.04s.01-.03.01-.04v-.26s0-.02-.01-.04v-.04s-.03-.05-.05-.07l-.03-.03s-.05-.05-.08-.06h-.04s-.04-.02-.06-.02h-1.18s1.1-1.98,1.1-1.98l.03-.08s.01-.05.01-.08v-.06s-.02-.05-.04-.08h.35s.03.01.03.01l.05.07.09,2.98v.09s-.05.04-.05.04h-.17s-3.46-.03-3.46-.03h-.03s-.05-.07-.05-.07l-.02-.18h-.18s.18-.05.18-.05v-.36ZM147.79,129.18v-.08s2.69.03,2.69.03v.08s-2.69-.03-2.69-.03ZM150.14,126.7l-1.02,1.83-1.12-1.86,2.14.03ZM147.87,126.5v-.04s0,0,0,0v.04Z"/>
      <path d="M258.83,111.59v-.11s-.02-.03-.02-.04l-.05-.12s-.01-.03-.02-.04l-.08-.1s-.03-.03-.04-.04l-.09-.07s-.06-.03-.08-.03l-.08-.02s-.02,0-.04,0l-7.95-.13v.23s-.07-.22-.07-.22h-.07s-.04.03-.06.04l-.09.06s-.05.04-.06.06l-.06.08s-.02.03-.03.04l-.05.12s0,.03-.01.04l-.02.16v10.45h.11s-.1.02-.1.02l.02.14h.09s0,.01,0,.01l-.08.03.05.13s.01.03.02.04l.08.1s.03.03.04.04l.09.06s.04.02.06.03l.1.02s.02,0,.04,0l7.95.11h0s.02,0,.03,0l.1-.02s.05-.01.06-.03l.09-.06s.03-.03.04-.04l.07-.1s.02-.03.02-.04l.05-.12s0-.03.01-.04l.02-.16v-10.44s0-.04-.01-.05ZM258.47,122.17l-.03.08-.04.05-.09.03-7.92-.11h-.05s-.08-.1-.08-.1l-.03-.08v-.1s-.02-10.42-.02-10.42v-.11s.04-.08.04-.08l.04-.05.1-.04,7.91.13h.05s.08.1.08.1l.03.08.02,10.51v.11Z"/>
    </g>
  </g>
</svg>