<?xml version="1.0" encoding="UTF-8"?>
<svg id="Layer_2" data-name="Layer 2" xmlns="http://www.w3.org/2000/svg" viewBox="0 0 429.84 350.66">
  <g id="Layer_1-2" data-name="Layer 1">
    <g>
      <path d="M429.8,153.03l-.08-.85-.1-.57-.14-.62-.48-1.7s0-.03-.01-.04l-.19-.54-.26-.59-.49-1.01-.74-1.34-.35-.6-9.84-14.89-78.46-111.44-8.31-10.95-1.12-1.4-1.03-1.16-.47-.48-.54-.51-.61-.53s-.03-.02-.04-.03l-1.51-1.1-.55-.37-.52-.31-.45-.24s-.03-.02-.05-.02l-1.78-.77-.55-.21-.5-.16s-.03,0-.05-.01l-.51-.12-1.87-.32-.78-.1-.48-.03s-.04,0-.05,0l-.51.02-1.85.17-.43.07s-.04,0-.06.01l-.49.12-.45.14s-.03.01-.05.02l-1.64.65-1.03.48L47.62,155.7l-36.7,21.52-.82.54-1.73,1.39s-.02.02-.03.03l-.33.31-.99,1.04-.29.32-.41.34s-.04.04-.06.05l-.53.56-3,1.8s-.1.07-.14.11l-.11.11c-.05.05-.09.11-.12.18l-.05.12c-.04.09-.06.19-.06.29l.02,1.27-1.23,1.89c-.04.05-.06.12-.08.18l-.88,3.09s-.01.04-.01.06l-.05.29s-.01.08-.01.12l.04,3.39c0,.06,0,.11.02.17l.96,3.43s.03.09.05.14l.67,1.2-.35,14.03c0,.06,0,.12.02.18l.02.09c.03.11.08.21.16.29l.06.06s.07.07.12.1l9.42,6.25-2.2,11.34c-.01.05-.01.11-.01.16l.09,1.63s0,.06.01.09l.04.22s.01.06.02.09l.56,1.6c.02.05.04.1.08.15l1.23,1.81s.03.04.05.06l84.84,97.13,6.01,8.61s.03.04.05.06l2.44,2.76s.07.07.11.1l2.96,2.15s.08.05.13.07l3.3,1.39s.1.03.15.04l3.4.54s.07,0,.1,0c.02,0,.05,0,.07,0l3.27-.34s.1-.02.14-.03l3.15-1.29s.06-.03.09-.04l298.19-179.82s.06-.04.08-.06l2.28-1.93s.02-.02.03-.03l3.68-3.56s.07-.07.1-.12l.06-.09,1.29-1.25s.03-.03.04-.04l.31-.36s.02-.02.03-.04l.24-.33s.02-.03.03-.04l.9-1.46s.02-.03.02-.04l.21-.41.29-.68s.01-.03.02-.04l.14-.42s.01-.03.01-.05l.44-1.71s0-.03,0-.04l.08-.45s0-.04,0-.05l.05-.48s0-.03,0-.05v-.52s-.03-1.85-.03-1.85ZM3.04,201.92l9.21,13.21-.79,4.08-8.73-5.78.31-11.51ZM428.52,155.35l-.04.42-.07.4-.43,1.67-.13.38-.16.38-.28.56-.88,1.42-.21.29-.27.32-1.3,1.26-1.26,1.06-.68.51L125.31,343.39l-.77.41-2.03.85-.37.12-.44.11-.58.11-1.5.16-.73.05-.88-.05h-.02s0,0,0,0l-1.81-.29s-.02,0-.04,0l-.46-.1-.48-.14-.43-.15-1.53-.65-.71-.33s0,0,0,0l-.37-.21-2.08-1.48-.39-.31-.73-.7-1.34-1.53-.65-.8L25.52,221.81s-.01-.01-.02-.02l-.13-.19s-.02-.03-.04-.05l-10-14.32-.03-.05s-.01-.02-.02-.03l-6.98-9.99-.55-.86-1.2-2.19-.22-.45-.18-.45-.14-.44-.49-1.82-.1-.47-.06-.44s0-.02,0-.03l-.04-1.78.02-.86s0,0,0-.01l.05-.44.12-.58.49-1.72.1-.3.22-.49.17-.31.59-.91.43-.65h0s.15-.2.15-.2c0,0,0,0,0,0l1.25-1.34.29-.27,1.34-1.1.69-.5L310.63,3.02l.75-.38,2.12-.87.38-.12.42-.1.36-.06,1.77-.16h.45s.41,0,.41,0l.45.05,2.05.35.44.11.45.14.49.18,1.73.75.87.49.5.33,1.47,1.07.38.32.69.64.42.44,1,1.13.42.51,8.46,11.12-.14.04.12.36.26-.08,78.33,111.18,9.76,14.71.41.65,1.05,1.86.27.55.42.93.17.48.46,1.65.13.56.09.5.05.44.06,2.07v.47Z"/>
      <path d="M147.88,281.51c-.02-.07-.05-.14-.09-.21l-10.15-14.76c-.04-.06-.09-.11-.15-.16l-.36-.27c-.06-.04-.13-.08-.2-.1l-.38-.11c-.08-.02-.17-.03-.25-.02l-.4.04c-.1,0-.19.04-.27.09l-13.32,7.96c-.09.05-.16.12-.21.2l-.21.32c-.05.08-.09.17-.1.27l-.05.37c-.01.09,0,.18.02.26l.11.42c.02.07.05.14.09.2l10.14,14.79c.04.06.09.11.14.15l.36.27c.06.05.13.08.21.11l.38.11c.06.02.12.03.19.03.02,0,.05,0,.07,0l.4-.05c.09-.01.18-.04.26-.09l13.33-7.99c.09-.05.16-.12.21-.21l.21-.32c.05-.08.09-.17.1-.27l.05-.37c.01-.08,0-.17-.02-.25l-.11-.42ZM134.5,269.45l1-.59,9.5,13.8-11.91,7.14-9.48-13.83,10.9-6.52Z"/>
      <path d="M383.11,115.28c0-.12-.05-.24-.12-.35l-2.45-3.42.05-.62c0-.1,0-.2-.05-.29l-.22-.54s-.04-.09-.07-.13l-10.18-14.46s-.07-.08-.11-.12l-.44-.38c-.07-.06-.15-.11-.24-.13l-.39-.12c-.11-.03-.22-.04-.33-.01l-.1.02-2.39-3.32s.03-.09.03-.13l.07-.84c0-.1,0-.2-.05-.29l-.22-.54s-.04-.09-.07-.13l-10.17-14.46s-.07-.08-.11-.12l-.44-.38c-.07-.06-.15-.11-.24-.13l-.39-.12c-.11-.03-.22-.04-.33-.01l-.36.08-2.24-3.12.09-.24c.02-.06.04-.12.04-.18l.07-.84c0-.1,0-.19-.05-.28l-.22-.54s-.04-.09-.07-.13l-10.17-14.45s-.07-.08-.11-.12l-.44-.38c-.07-.06-.15-.11-.24-.13l-.39-.12c-.11-.03-.22-.04-.33-.01l-.48.1s-.05.01-.07.02l-.07.02-2.28-3.17.2-.52c.02-.06.04-.12.04-.18l.07-.85c0-.1,0-.19-.05-.28l-.22-.54s-.04-.09-.07-.13l-10.16-14.44s-.07-.08-.11-.12l-.44-.38c-.07-.06-.15-.11-.24-.13l-.39-.12c-.11-.03-.22-.04-.33-.01l-.48.1s-.05.01-.07.02l-.31.11-.1-.14c-.07-.1-.16-.17-.27-.21h0s-.32-.14-.32-.14c-.08-.03-.16-.05-.25-.06h-.41c-.06-.01-.13,0-.19.01l-.49.13c-.06.02-.11.04-.16.07l-18.75,11.04s-.01,0-.02.01L59.71,187.57c-.05.03-.1.07-.14.11l-.36.37c-.05.05-.09.11-.12.18l-.11.24c-.07.02-.14.05-.2.09-.19.13-.28.33-.28.54,0,.13.04.26.11.37l72.91,106.35c.13.18.33.28.54.28.11,0,.23-.03.34-.09l19.08-11.44c.08.04.17.06.26.06.11,0,.22-.03.32-.09l.35-.2.41-.12c.05-.02.11-.04.16-.07l225.74-135.39s.07-.05.1-.07l.33-.29c.12-.11.2-.26.21-.42l.08-.72c.01-.14-.02-.27-.08-.38h0s-.25-.45-.25-.45c-.01-.02-.03-.05-.04-.07l-1.25-1.74.62-1.58c.02-.06.04-.12.04-.18h0s0,0,0,0h0s.07-.83.07-.83c0-.1,0-.2-.05-.29l-.22-.54s-.04-.09-.07-.13l-10.19-14.49s-.07-.08-.11-.12l-.44-.38c-.07-.06-.17-.11-.26-.14h0s15.11-9.03,15.11-9.03c.05-.03.1-.07.14-.11l.33-.36c.05-.06.09-.12.12-.19l.15-.35c.04-.09.06-.19.05-.29l-.02-.33h0ZM136.88,263.61h0s0,0,0,0h0ZM377.08,146.51l.48.67-1.04,1.03-.14.08.7-1.78ZM136.84,262.13h-.02c-.11-.04-.22-.04-.33-.02l-.35.07c-.07.01-.14.04-.2.08l-15.81,9.45,2.04-5.55s.03-.09.04-.14v-.03s.09-.02.09-.02c.06-.02.12-.04.17-.07l34.72-20.74-2.19,5.89-.4.46-17.78,10.62ZM338.45,141.24s.06.08.1.11l.44.39s.01,0,.02.01c.02.02.05.03.07.05.03.02.05.04.08.05h0s-1.84,1.1-1.84,1.1l.83-2.13.29.41ZM358.49,158l.5.71-1.02.61.52-1.32ZM356.14,160.42l-20.77,12.46,2.04-5.25s.03-.09.04-.14v-.03s.09-.02.09-.02c.06-.02.12-.04.18-.07l20.53-12.3-2.1,5.37ZM104.39,253.3l.29-.05c.08-.01.15-.04.22-.08l.81-.48-.28.28-.57.62c-.06.06-.1.14-.13.22l-.35-.51ZM333.05,173.58l-.52-.73,1.16-2.99c.02-.06.04-.12.04-.18h0s0-.01,0-.01v-.03s.07-.81.07-.81c0-.1,0-.19-.05-.28l-.22-.54s-.04-.09-.07-.13l-9.73-13.86,1.65-1.63,10.1,14.38s.05.07.09.1l.06.06s-.02.04-.02.05l-2.57,6.59ZM197.34,254.95l-.67-.96.98-2.6c.02-.05.03-.11.04-.17l.06-.59v-.29c.01-.09,0-.18-.04-.27l-.22-.55s-.04-.09-.07-.13l-9.76-13.95,1.85-1.84,10.18,14.54s.06.07.09.1l.07.06s-.02.04-.03.06l-2.47,6.56ZM157.91,247l1.04-2.8c.02-.05.03-.1.04-.16l.06-.55s0-.03,0-.05v-.29c.01-.09,0-.18-.04-.26l-.22-.55s-.04-.09-.07-.13l-9.56-13.67-.22-.31,1.71-1.72,10.18,14.56s.06.07.09.1l.07.07s-.02.04-.03.06l-2.44,6.57-.61-.87ZM304.37,47.14l10.01,14.24-12.41,7.34-10.04-14.28,12.42-7.32.03.03ZM329.25,88.58s.06.08.1.11h0s-1.03.62-1.03.62c0,0,0,0,0,0l.51-1.34.42.6ZM335.34,114.01s.06.08.1.11l.02.02-.63.38.31-.8.21.3ZM333,115.6h0s-1.57.94-1.57.94c-.05.03-.09.06-.13.1l-.48.48-2.99,1.78-.24.05s-.04.01-.06.02l-.32.11s-.09.04-.13.06l-6.9,4.11,2.23-5.78s.03-.09.04-.14v-.03s.09-.02.09-.02c.06-.02.12-.04.17-.07l12.59-7.49-2.28,5.9ZM320.59,151.91s.06.08.1.11l.44.39s.01,0,.02.01c.02.02.05.03.07.05.03.02.05.04.08.05l.15.07s.05.02.08.03l-.26.06s-.04,0-.06.02l-.32.1s-.09.04-.14.06l-1.29.77.83-2.15.3.43ZM85.03,176.62l10.17,14.55s.06.07.09.1l.07.07s-.02.04-.03.07l-2.39,6.61-1.24-1.77.46-1.29s.03-.1.04-.15l.06-.55s0-.04,0-.06v-.29c0-.09-.01-.17-.04-.25l-.22-.55s-.04-.09-.07-.13l-4.7-6.73-.41-.58s-.03-.04-.03-.04l-4.4-6.3,2.63-2.72ZM103.95,165.47l10.16,14.53s.06.07.09.1l.07.07s-.02.04-.03.07l-2.4,6.61-1.23-1.75.48-1.31c.02-.05.03-.1.04-.16l.06-.55s0-.04,0-.05v-.29c0-.09,0-.17-.04-.25l-.22-.55s-.04-.09-.07-.13l-4.7-6.72s0,0,0-.01l-4.82-6.9,2.62-2.7ZM122.83,154.35l10.15,14.51s.06.07.09.1l.07.07s-.02.04-.03.07l-2.41,6.62-1.21-1.74.49-1.34c.02-.05.03-.1.04-.16l.06-.54s0-.03,0-.05v-.29c0-.09,0-.18-.04-.26l-.22-.55s-.04-.09-.07-.13l-4.68-6.69s0-.01-.01-.02l-4.83-6.9,2.61-2.69ZM141.65,143.26l10.14,14.49s.06.07.09.1l.07.07s-.02.04-.03.07l-2.43,6.62-1.2-1.72.5-1.37c.02-.05.03-.1.04-.16l.06-.54s0-.03,0-.05v-.29c.01-.09,0-.18-.04-.26l-.22-.54s-.04-.09-.07-.13l-9.52-13.6,2.61-2.68ZM160.42,132.2l10.13,14.46s.06.07.09.1l.07.06s-.02.04-.03.07l-2.44,6.62-1.19-1.7.51-1.4c.02-.05.03-.13.04-.19l.05-.52s0-.03,0-.05v-.29c.01-.09,0-.18-.04-.26l-.22-.54s-.04-.09-.07-.13l-4.68-6.68s0-.01-.01-.02l-.2-.28s0-.01-.01-.02l-4.61-6.59,2.6-2.67ZM179.14,121.17l10.12,14.44s.06.07.09.1l.07.06s-.02.04-.03.06l-2.45,6.63-1.18-1.68.53-1.42c.02-.05.03-.14.04-.19l.05-.55v-.29c.01-.09,0-.18-.04-.26l-.22-.54s-.04-.09-.07-.13l-9.51-13.57,2.59-2.65ZM197.81,110.17l10.11,14.42s.06.07.09.1l.07.06s-.02.04-.03.06l-2.46,6.63-1.17-1.66.54-1.45c.02-.05.03-.11.04-.16l.06-.58v-.29c.01-.09,0-.18-.04-.27l-.22-.54s-.04-.09-.07-.13l-4.92-7.02s-.03-.04-.03-.04l-4.55-6.49,2.58-2.64ZM216.43,99.19l10.1,14.4s.05.07.09.1l.07.06s-.02.04-.03.06l-2.48,6.63-1.15-1.65.55-1.48c.02-.05.03-.11.04-.16l.06-.58v-.29c.02-.09,0-.18-.03-.27l-.22-.54s-.04-.09-.07-.13l-9.49-13.53,2.57-2.63ZM235,88.25l10.09,14.38s.05.07.09.1l.07.06s-.02.04-.03.06l-2.49,6.64-1.14-1.63.56-1.5c.02-.05.03-.11.04-.17v-.02h0s.07-.84.07-.84c0-.09-.02-.2-.05-.29l-.21-.53s-.04-.09-.07-.13l-1.66-2.37s0,0,0-.01l-3.01-4.28s0-.01-.01-.02l-4.8-6.84,2.57-2.62ZM253.52,77.34l10.08,14.36s.05.07.09.1l.06.06s-.02.04-.03.06l-2.5,6.64-1.13-1.61.58-1.53c.02-.05.03-.11.04-.17l.05-.57v-.29c.02-.09,0-.19-.03-.27l-.22-.54s-.04-.09-.07-.13l-9.48-13.5,2.56-2.61ZM271.99,66.45l10.07,14.34s.05.07.09.1l.06.06s-.02.04-.03.06l-2.52,6.64-1.12-1.59.59-1.56c.02-.05.03-.11.04-.17l.05-.57v-.29c.02-.09,0-.19-.03-.28l-.22-.54s-.04-.09-.07-.13l-4.66-6.63s0-.01-.01-.02l-4.8-6.83,2.55-2.59ZM285.98,57.97l10.02,14.26-12.45,7.36-10.05-14.31,12.45-7.34.03.03ZM176.28,236.32l1.18-3.17c.02-.05.03-.11.04-.16l.06-.59v-.29c.01-.09,0-.18-.04-.26l-.22-.55s-.04-.09-.07-.13l-9.82-14.03,1.48-1.49,10.17,14.54s.06.07.09.1l.07.06s-.02.04-.03.06l-2.45,6.58-.46-.66ZM302.68,162.61s.06.08.1.11l.44.4s.01,0,.02.01c.02.02.05.03.08.05.03.02.05.04.08.05h0s-1.86,1.11-1.86,1.11l.83-2.17.31.44ZM304.48,76.69l10.07,14.33s.05.07.09.1l.06.06s-.02.04-.03.06l-2.54,6.63-.56-.8,1.14-2.97c.02-.06.03-.11.04-.17v-.02h0s.07-.83.07-.83c0-.1-.01-.19-.05-.28l-.22-.54s-.04-.09-.07-.13l-9.67-13.75,1.67-1.68ZM312.93,127.76l-3,1.79-.24.05s-.04.01-.06.02l-.32.1s-.09.04-.13.06l-7.04,4.19,2.22-5.79s.03-.09.04-.14v-.03s.09-.02.09-.02c.06-.02.12-.04.17-.07l12.63-7.52-2.27,5.9h0s-1.46.87-1.46.87c-.05.03-.09.06-.13.1l-.48.48ZM149.98,224.8l-3.32,1.97-.25.06s-.04.01-.06.02l-.32.1s-.09.03-.13.06l-8.24,4.9,2.14-5.81s.03-.09.03-.14v-.03s.09-.02.09-.02c.06-.02.12-.04.17-.07l13.01-7.74-2.19,5.92h0s-.34.21-.34.21c-.05.03-.09.06-.13.1l-.47.47ZM311.43,99.15s.06.08.1.11h.01s-1.06.64-1.06.64l.52-1.35.43.61ZM317.35,124.72s.06.08.1.11l.02.02-.65.38.31-.82.21.3ZM284.73,173.33s.06.08.1.11l.44.4s.01,0,.02.01c.02.02.05.03.08.05.03.02.05.04.08.05h0s-1.87,1.12-1.87,1.12l.84-2.19.31.44ZM194.49,225.4l1.17-3.11c.02-.05.03-.11.04-.16l.06-.59v-.29c.01-.09,0-.18-.04-.27l-.22-.55s-.04-.09-.07-.13l-9.8-14,1.52-1.53,10.16,14.52s.06.07.09.1l.07.06s-.02.04-.03.06l-2.47,6.58-.49-.69ZM286.6,87.26l10.08,14.35s.05.07.09.1l.06.06s-.02.04-.03.06l-2.53,6.63-.57-.81,1.13-2.95c.02-.06.03-.11.04-.17v-.02h0s.05-.55.05-.55l.02-.29c0-.1-.01-.19-.05-.28l-.22-.54s-.04-.09-.07-.13l-9.67-13.77,1.67-1.69ZM295.01,138.44l-3.02,1.8-.24.05s-.04,0-.06.02l-.32.1s-.09.04-.13.06l-7.19,4.28,2.21-5.79s.03-.09.04-.14v-.03s.09-.02.09-.02c.06-.02.12-.04.17-.07l12.67-7.54-2.26,5.9h0s-1.34.81-1.34.81c-.05.03-.09.06-.13.1l-.48.48ZM168.22,213.94l-3.04,1.81-.25.06s-.04,0-.05.01l-.32.1s-.09.04-.14.06l-8.29,4.94,2.15-5.81s.03-.09.04-.14v-.03s.09-.02.09-.02c.06-.02.12-.04.17-.07l12.97-7.72-2.2,5.92h0s-.52.31-.52.31c-.05.03-.09.06-.13.1l-.47.47ZM293.58,109.75s.06.08.1.11h.01s-1.07.64-1.07.64l.52-1.37.44.62ZM264.18,185.81l-.25.3-.14.15-12.4,7.41,2.3-6.05s.03-.09.04-.14v-.03s.09-.02.09-.02c.06-.02.12-.04.17-.07l12.43-7.42-2.24,5.88ZM248.93,192.92l1.2-3.17c.02-.05.03-.11.04-.17v-.02h0s.07-.84.07-.84c0-.09-.01-.19-.05-.27l-.22-.54s-.04-.09-.07-.13l-9.78-13.95,1.51-1.51,10.13,14.45s.05.07.09.1l.07.06s-.02.04-.03.06l-2.51,6.59-.46-.66ZM230.83,203.72l1.19-3.15c.02-.05.03-.11.04-.17l.07-.87c0-.09-.01-.18-.05-.27l-.22-.54s-.04-.09-.07-.13l-9.79-13.96,1.51-1.52,10.14,14.47s.06.07.09.1l.07.06s-.02.04-.03.06l-2.49,6.59-.47-.67ZM212.68,214.54l1.18-3.13c.02-.05.03-.11.04-.17l.06-.58v-.29c.02-.09,0-.18-.03-.27l-.22-.54s-.04-.09-.07-.13l-9.79-13.98,1.52-1.53,10.15,14.5s.06.07.09.1l.07.06s-.02.04-.03.06l-2.48,6.58-.48-.68ZM131.86,201.2l.06-.55s0-.03,0-.05v-.29c0-.09,0-.17-.04-.26l-.22-.55s-.04-.09-.07-.13l-9.74-13.93,1.73-1.77,10.17,14.54s.06.07.09.1l.07.07s-.02.04-.03.07l-2.42,6.6-.65-.92,1.01-2.77c.02-.05.03-.1.04-.16ZM141.87,172.85l10.16,14.51s.06.07.09.1l.07.07s-.02.04-.03.06l-2.43,6.6-.64-.91,1.03-2.79c.02-.05.03-.11.04-.16l.06-.55s0-.03,0-.05v-.29c.01-.09,0-.18-.04-.26l-.22-.55s-.04-.09-.07-.13l-9.74-13.91,1.72-1.76ZM160.13,162.06l10.15,14.49s.06.07.09.1l.07.06s-.02.04-.03.06l-2.44,6.61-.63-.9,1.04-2.81c.02-.05.03-.11.04-.16l.05-.54s0-.03,0-.04v-.29c.01-.09,0-.18-.04-.26l-.22-.54s-.04-.09-.07-.13l-9.73-13.89,1.71-1.75ZM178.34,151.29l10.14,14.47s.06.07.09.1l.07.06s-.02.04-.03.06l-2.45,6.61-.62-.88,1.05-2.83c.02-.05.03-.11.04-.16l.06-.59v-.29c.01-.09,0-.18-.04-.26l-.22-.54s-.04-.09-.07-.13l-1.66-2.37s-.03-.04-.03-.04l-7.79-11.12s-.03-.04-.03-.04l-.22-.31,1.71-1.74ZM196.5,140.55l10.13,14.45s.05.07.09.1l.07.06s-.02.04-.03.06l-2.47,6.61-.61-.87,1.06-2.85c.02-.05.03-.11.04-.16l.06-.58v-.29c.01-.09,0-.18-.03-.27l-.12-.3s0-.01,0-.02l-.09-.22s-.04-.09-.07-.13l-9.71-13.86,1.7-1.73ZM214.61,129.84l10.12,14.43s.06.07.09.1l.07.06s-.02.04-.03.06l-2.48,6.62-.6-.86,1.08-2.87c.02-.05.03-.11.04-.17l.06-.58v-.29c.01-.09,0-.18-.03-.27l-.22-.54s-.04-.09-.07-.13l-9.71-13.84,1.7-1.72ZM232.68,119.15l10.11,14.41s.06.07.09.1l.07.06s-.02.04-.03.06l-2.49,6.62-.59-.85,1.09-2.89c.02-.05.03-.11.04-.17l.06-.58v-.29c.02-.09,0-.18-.03-.27l-.22-.54s-.04-.09-.07-.13l-9.7-13.82,1.69-1.71ZM250.7,108.5l10.1,14.39s.05.07.09.1l.06.06s-.02.04-.03.06l-2.51,6.62-.59-.83,1.1-2.91c.02-.05.03-.11.04-.17l.05-.57v-.29c.02-.09,0-.19-.03-.27l-.22-.54s-.04-.09-.07-.13l-9.69-13.81,1.68-1.7ZM268.67,97.87l10.09,14.37s.05.07.09.1l.06.06s-.02.04-.03.06l-2.52,6.63-.58-.82,1.11-2.93c.02-.05.03-.11.04-.17l.05-.57v-.29c.02-.09,0-.19-.03-.27l-.22-.54s-.04-.09-.07-.13l-9.68-13.79,1.68-1.7ZM277.04,149.14l-3.03,1.8-.24.05s-.04,0-.06.02l-.32.1s-.09.04-.13.06l-7.34,4.37,2.2-5.79s.03-.09.04-.14v-.03s.09-.02.09-.02c.06-.02.12-.04.17-.07l12.71-7.56-2.25,5.91h0s-1.23.74-1.23.74c-.05.03-.09.06-.13.1l-.48.48ZM149.04,195.5s.06.08.1.11l.02.02-1.18.7.56-1.54.5.71ZM167.27,184.68s.06.08.1.11l.02.02-1.16.69.56-1.51.49.7ZM185.46,173.89s.06.08.1.11h.02s-1.15.7-1.15.7l.55-1.49.48.69ZM203.59,163.13s.06.08.1.11h.02s-1.14.69-1.14.69l.55-1.47.47.67ZM221.68,152.4s.06.08.1.11h.01s-1.12.68-1.12.68l.54-1.45.47.66ZM239.73,141.7s.06.08.1.11h.01s-1.11.67-1.11.67l.54-1.43.46.65ZM257.72,131.02s.06.08.1.11h.01s-1.1.66-1.1.66l.53-1.41.45.64ZM275.67,120.37s.06.08.1.11h.01s-1.08.65-1.08.65l.53-1.39.44.63ZM259.02,159.87l-3.04,1.81-.24.05s-.04,0-.06.02l-.32.1s-.09.04-.13.06l-7.48,4.46,2.19-5.8s.03-.09.04-.14v-.03s.09-.02.09-.02c.06-.02.12-.04.17-.07l12.75-7.59-2.24,5.91h0s-1.11.67-1.11.67c-.05.03-.09.06-.13.1l-.48.48ZM240.95,170.63l-3.05,1.82-.24.05s-.04,0-.06.02l-.32.1s-.09.04-.14.06l-7.63,4.54,2.18-5.8s.03-.09.04-.14v-.03s.09-.02.09-.02c.06-.02.12-.04.17-.07l12.8-7.61-2.23,5.91h0s-.99.6-.99.6c-.05.03-.09.06-.13.1l-.48.48ZM222.84,181.41l-3.06,1.82-.25.05s-.04,0-.06.02l-.32.1s-.09.04-.14.06l-7.78,4.63,2.17-5.8s.03-.09.04-.14v-.03s.09-.02.09-.02c.06-.02.12-.04.17-.07l12.84-7.64-2.23,5.91h0s-.87.53-.87.53c-.05.03-.09.06-.13.1l-.48.48ZM204.68,192.23l-3.08,1.83-.25.06s-.04,0-.05.01l-.32.1s-.09.04-.14.06l-7.93,4.72,2.17-5.8s.03-.09.04-.14v-.03s.09-.02.09-.02c.06-.02.12-.04.17-.07l12.88-7.66-1.45,3.87s-.02.04-.02.04l-.75,2h0s-.76.46-.76.46c-.05.03-.09.06-.13.1l-.47.48ZM253.12,136.02l10.07,14.35-13.69,8.15-10.1-14.4,13.69-8.13.03.03ZM245.63,166.55l-.38-.54,1.3-3.43c.02-.05.03-.11.04-.17l.05-.57v-.29c.02-.09,0-.19-.03-.27l-.22-.54s-.04-.09-.07-.13l-9.79-13.96,1.35-1.36,10.12,14.43s.06.07.09.1l.07.06s-.02.04-.03.06l-2.5,6.61ZM210.06,184.16l.06-.58v-.29c.01-.09,0-.18-.03-.27l-.22-.54s-.04-.09-.07-.13l-9.8-13.99,1.36-1.37,10.14,14.47s.06.07.09.1l.07.06s-.02.04-.03.06l-2.47,6.6-.39-.56,1.27-3.39c.02-.05.03-.11.04-.17ZM228.35,173.27l.06-.58v-.29c.02-.09,0-.18-.03-.27l-.22-.54s-.04-.09-.07-.13l-9.8-13.98,1.35-1.37,10.13,14.45s.06.07.09.1l.07.06s-.02.04-.03.06l-2.49,6.6-.38-.55,1.28-3.41c.02-.05.03-.11.04-.17ZM234.91,146.83l10.08,14.37-13.73,8.17-10.11-14.42,13.73-8.15.03.03ZM216.65,157.66l10.09,14.39-13.77,8.19-10.12-14.45,13.77-8.17.03.03ZM198.35,168.52l10.1,14.42-13.81,8.22-10.13-14.47,13.81-8.19.03.03ZM208.02,189.66s.02-.04.02-.05l.15-.41.25.36s.06.08.1.11l.02.02-.72.43.17-.46ZM226.47,178.34l.25.35s.06.08.1.11l.02.02-.71.42.34-.9ZM244.7,167.49l.24.34s.06.08.1.11l.02.02-.7.41.34-.89ZM179.97,179.39l.03.03,10.11,14.44-13.85,8.24-10.14-14.49,13.85-8.22ZM262.88,156.68l.23.33s.06.08.1.11l.02.02-.68.41.33-.87ZM263.81,155.73l-.37-.53,1.31-3.44c.02-.05.03-.11.04-.17l.05-.57v-.29c.02-.09,0-.19-.03-.27l-.22-.54s-.04-.09-.07-.13l-9.78-13.94,1.34-1.35,10.11,14.41s.05.07.09.1l.06.06s-.02.04-.03.06l-2.51,6.61ZM257.59,133.32l13.65-8.1.03.03,10.06,14.33-13.65,8.12-10.09-14.38ZM191.72,195.07l.06-.59v-.29c.01-.09,0-.18-.04-.26l-.22-.54s-.04-.09-.07-.13l-9.81-14.01,1.36-1.38,10.15,14.49s.06.07.09.1l.07.06s-.02.04-.03.06l-2.46,6.6-.4-.57,1.26-3.37c.02-.05.03-.11.04-.16ZM220.32,184.74l.03.03,10.1,14.42-13.45,8.03-10.13-14.47,13.45-8.01ZM238.45,173.95l.03.03,10.1,14.4-13.41,8.01-10.12-14.45,13.42-7.99ZM161.57,190.3l.03.03,10.12,14.46-13.89,8.26-10.15-14.51,13.89-8.24ZM189.86,200.1l.26.37s.06.08.1.11l.02.02-.73.44.35-.94ZM253.26,185.57l-10.11-14.42,13.38-7.97.03.03,10.08,14.37-13.38,7.99ZM281.01,145.9l.23.32s.06.08.1.11l.02.02-.67.4.32-.85ZM281.94,144.94l-.36-.52,1.32-3.46c.02-.05.03-.11.04-.17l.05-.57v-.29c.02-.09,0-.19-.03-.28l-.22-.54s-.04-.09-.07-.13l-9.77-13.92,1.34-1.34,10.1,14.39s.05.07.09.1l.06.06s-.02.04-.03.06l-2.53,6.61ZM275.75,122.55l13.61-8.08.03.03,10.05,14.31-13.61,8.1-10.08-14.36ZM272.89,122.21l-.23.28-.16.17-1.77,1.05-.27.06s-.04.01-.06.02l-.32.1s-.09.03-.13.06l-9.42,5.59,2.2-5.81s.03-.09.04-.14v-.03s.09-.02.09-.02c.06-.02.12-.04.17-.07l12.13-7.19-2.25,5.93ZM254.93,132.87l-.23.28-.16.17-1.97,1.17-.27.06s-.04.01-.06.02l-.32.1s-.09.03-.13.06l-9.26,5.49,2.19-5.81s.03-.09.04-.14v-.03s.09-.02.09-.02c.06-.02.12-.04.17-.07l12.17-7.21-2.24,5.93ZM236.93,143.55l-.23.29-.16.17-2.17,1.29-.28.06s-.04.01-.06.02l-.32.1s-.09.03-.13.06l-9.1,5.4,2.18-5.81s.03-.09.04-.14v-.03s.09-.02.09-.02c.06-.02.12-.04.17-.07l12.2-7.24-2.23,5.94ZM218.87,154.27l-.23.29-.15.17-2.37,1.41-.28.06s-.04.01-.06.02l-.32.1s-.09.03-.13.06l-8.93,5.3,2.17-5.82s.03-.09.04-.14v-.03s.09-.02.09-.02c.06-.02.12-.04.17-.07l12.24-7.26-2.22,5.94ZM200.77,165.01l-.24.29-.15.17-2.58,1.53-.28.06s-.04,0-.06.02l-.32.1s-.09.04-.13.06l-8.77,5.2,2.16-5.82s.03-.09.04-.14v-.03s.09-.02.09-.02c.06-.02.12-.04.17-.07l12.28-7.28-2.21,5.94ZM182.63,175.77l-.39.45-2.78,1.65-.28.06s-.04,0-.06.02l-.32.1s-.09.04-.13.06l-8.61,5.11,2.15-5.82s.03-.09.03-.14v-.03s.09-.02.09-.02c.06-.02.12-.04.17-.07l12.32-7.31-2.2,5.94ZM164.43,186.57l-.04.05-.47.48-2.87,1.7-.28.06s-.04,0-.06.02l-.32.1s-.09.04-.13.06l-8.44,5.01,2.14-5.82s.03-.09.03-.14v-.03s.09-.02.09-.02c.06-.02.12-.04.17-.07l12.37-7.33-2.19,5.94ZM141.95,199.93s-.09.03-.13.06l-8.27,4.91,2.13-5.83s.03-.09.03-.14v-.03s.09-.02.09-.02c.06-.02.12-.04.17-.07l12.4-7.36-2.18,5.95h0s0,0,0,0l-.09.05s-.09.06-.13.1l-.48.49-2.88,1.71-.28.06s-.04,0-.06.02l-.32.1ZM173.33,206.02l.05-.55s0-.03,0-.04v-.29c.01-.09,0-.18-.04-.26l-.22-.55s-.04-.09-.07-.13l-9.82-14.03,1.37-1.39,10.16,14.52s.06.07.09.1l.07.06s-.02.04-.03.06l-2.45,6.59-.41-.58,1.25-3.36c.02-.05.03-.11.04-.16ZM182.76,205.08s-.09.04-.14.06l-8.08,4.81,2.16-5.81s.03-.09.04-.14v-.03s.09-.02.09-.02c.06-.02.12-.04.17-.07l12.92-7.69-2.21,5.92h0s-.64.38-.64.38c-.05.03-.09.06-.13.1l-.47.48-3.09,1.84-.25.06s-.04,0-.06.02l-.32.1ZM202.15,195.56l.03.03,10.11,14.44-13.49,8.06-10.15-14.49,13.49-8.03ZM265.3,99.63l10.05,14.31-13.06,7.74-10.08-14.36,13.06-7.72.03.03ZM247.31,110.27l10.06,14.33-13.09,7.76-10.09-14.38,13.09-7.74.03.03ZM229.28,120.93l10.07,14.35-13.13,7.79-10.1-14.4,13.13-7.76.03.03ZM211.21,131.62l10.08,14.38-13.17,7.81-10.11-14.43,13.17-7.79.03.03ZM193.08,142.34l10.09,14.4-13.2,7.83-10.12-14.45,13.2-7.81.03.03ZM174.91,153.08l10.1,14.42-13.24,7.85-10.13-14.47,13.24-7.83.03.03ZM156.69,163.86l10.11,14.44-13.28,7.87-10.14-14.49,13.28-7.85.03.03ZM138.43,174.66l10.12,14.46-13.32,7.9-10.15-14.52,13.32-7.87.03.03ZM171.49,211.03l.27.38s.06.08.1.11l.03.02-.75.44.36-.96ZM217.44,209.27s.03-.09.04-.14v-.03s.09-.02.09-.02c.06-.02.12-.04.17-.07l12.51-7.47-2.23,5.89-.25.3-.14.15-1.01.61s-.01,0-.02,0l-11.45,6.84,2.28-6.06ZM235.59,198.44s.03-.09.04-.14v-.03s.09-.02.09-.02c.06-.02.12-.04.17-.07l12.47-7.45-2.24,5.89-.25.3-.14.15-12.44,7.43,2.29-6.05ZM271.32,174.79l-10.1-14.4,13.34-7.94.03.03,10.07,14.35-13.34,7.97ZM299.1,135.14l.22.31s.06.08.1.11l.02.02-.66.39.32-.83ZM300.02,134.17l-.35-.5,1.33-3.48c.02-.06.03-.11.04-.17v-.02s0,0,0,0v-.03s.07-.81.07-.81c0-.1-.01-.19-.05-.28l-.22-.54s-.04-.09-.07-.13l-9.76-13.9,1.33-1.34,10.09,14.37s.05.07.09.1l.06.06s-.02.04-.03.06l-2.54,6.62ZM293.85,111.8l13.58-8.06.03.03,10.04,14.28-13.57,8.08-10.07-14.33ZM290.8,111.58l-.23.28-.16.17-1.57.93-.27.06s-.04.01-.06.02l-.32.11s-.09.03-.13.06l-9.58,5.69,2.21-5.8s.03-.09.04-.14v-.03s.09-.02.09-.02c.06-.02.12-.04.17-.07l12.09-7.17-2.26,5.93ZM130.26,205.63l.5.72s.06.08.1.11l.02.02-1.19.71.57-1.56ZM154.89,216.99l.06-.55s0-.03,0-.05v-.29c.01-.09,0-.18-.04-.26l-.22-.55s-.04-.09-.07-.13l-9.83-14.05,1.37-1.4,10.17,14.54s.06.07.09.1l.07.06s-.02.04-.03.06l-2.43,6.59-.41-.59,1.23-3.34c.02-.05.03-.11.04-.16ZM199.24,220.14s.03-.09.04-.14v-.03s.09-.02.09-.02c.06-.02.12-.04.17-.07l12.55-7.5-2.22,5.89-.25.3-.14.15-12.52,7.48,2.27-6.06ZM212.12,216.03l.34.49s.06.08.1.11l.44.4s.01,0,.02.01c.03.02.06.04.09.06.03.02.05.04.08.05h0s-1.92,1.15-1.92,1.15l.85-2.26ZM230.27,205.2l.33.47s.06.08.1.11l.44.4s.01,0,.02.01c.03.02.06.04.09.05.03.02.05.04.08.05h0s-1.91,1.14-1.91,1.14l.85-2.24ZM248.37,194.4l.33.46s.06.08.1.11l.44.4s.01,0,.02.01c.03.02.06.04.08.05.03.02.05.04.08.05h0s-1.9,1.14-1.9,1.14l.84-2.22ZM266.42,183.63l.32.45s.06.08.1.11l.44.4s.01,0,.02.01c.02.02.05.03.08.05.03.02.05.04.08.05h0s-1.88,1.13-1.88,1.13l.84-2.2ZM267.44,182.8l-.46-.65,1.22-3.19c.02-.06.03-.11.04-.17v-.02h0s.07-.84.07-.84c0-.09-.01-.19-.05-.27l-.22-.54s-.04-.09-.07-.13l-9.77-13.93,1.5-1.5,10.12,14.43s.06.07.09.1l.06.06s-.02.04-.03.06l-2.52,6.59ZM283.23,89.03l10.04,14.29-13.02,7.72-10.07-14.34,13.02-7.7.03.03ZM120.08,185.46l.03.03,10.13,14.49-13.35,7.92-10.16-14.54,13.35-7.9ZM117.34,209.94s.03-.09.03-.14v-.03s.09-.02.09-.02c.06-.02.12-.04.17-.07l12.45-7.38-2.18,5.95h0s-.29.17-.29.17c-.05.03-.09.06-.13.1l-.48.49-3.27,1.94-.28.06s-.03,0-.05.01l-.32.1s-.09.04-.14.06l-7.73,4.59,2.12-5.83ZM143.12,201.25l.03.03,10.13,14.48-13.93,8.29-10.17-14.54,13.93-8.26ZM153.07,221.98l.27.39s.06.08.1.11l.03.02-.76.45.36-.98ZM183.93,206.41l.03.03,10.12,14.46-13.53,8.08-10.16-14.51,13.53-8.06ZM282.19,175.05l-.25.3-.14.15-12.36,7.39,2.31-6.05s.03-.1.04-.14v-.03s.09-.02.09-.02c.06-.02.12-.04.17-.07l12.39-7.4-2.25,5.88ZM289.33,164.03l-10.09-14.38,13.3-7.92.03.03,10.06,14.33-13.3,7.94ZM308.67,100.98l-.24.3-.14.15-1.37.81-.27.06s-.04.01-.06.02l-.32.11s-.09.03-.13.06l-9.74,5.78,2.21-5.8s.03-.09.04-.14v-.03s.08-.02.08-.02c.06-.02.12-.04.17-.07l12.05-7.14-2.27,5.93ZM193.93,226.88l.35.5s.06.08.1.11l.44.4s.01,0,.02.01c.03.02.06.04.09.06.03.01.05.04.07.05h0s-1.94,1.16-1.94,1.16l.85-2.28ZM285.43,172.05l-.45-.64,1.23-3.21c.02-.05.03-.11.04-.17l.07-.86c0-.09-.01-.19-.05-.28l-.22-.54s-.04-.09-.07-.13l-9.76-13.91,1.5-1.49,10.11,14.41s.05.07.09.1l.06.06s-.02.04-.03.06l-2.53,6.6ZM318.05,123.44l-.35-.49,1.35-3.5c.02-.06.04-.11.04-.17h0s0-.01,0-.01h0s.07-.83.07-.83c0-.1,0-.19-.05-.28l-.22-.54s-.04-.09-.07-.13l-9.76-13.88,1.33-1.33,10.08,14.35s.05.07.09.1l.06.06s-.02.04-.02.06l-2.55,6.62ZM301.12,78.45l10.03,14.27-12.98,7.7-10.06-14.31,12.98-7.68.03.03ZM82.35,207.77l19.28-11.4.03.03,10.14,14.51-19.28,11.43-10.18-14.57ZM96.95,228.65l27.3-16.2.03.03,10.14,14.51-27.29,16.24-10.18-14.58ZM165.73,217.25l.03.03,10.14,14.49-13.57,8.1-10.17-14.53,13.57-8.08ZM181,231.04s.03-.09.04-.14v-.03s.09-.02.09-.02c.06-.02.12-.04.17-.07l12.6-7.52-2.21,5.89-.24.29-.16.17-12.56,7.51,2.26-6.06ZM186.56,234.19c-.06-.05-.13-.09-.21-.11l.81-.48-.6.6ZM300.15,164.32l-.25.3-.14.15-12.32,7.36,2.32-6.04s.03-.09.04-.14v-.03s.09-.02.09-.02c.06-.02.12-.04.17-.07l12.35-7.38-2.26,5.88ZM307.29,153.31l-10.08-14.36,13.27-7.9.03.03,10.05,14.31-13.26,7.92ZM321.97,115.4l-10.06-14.31,13.54-8.03.03.03,10.03,14.27-13.54,8.05ZM276.77,90.77l1.22-3.23.98,1.4s.06.08.1.11l.24.22-2.55,1.51ZM265.52,92.55s.03-.09.04-.14v-.03s.08-.02.08-.02c.06-.02.12-.04.18-.07l11.56-6.83-2.25,5.96-.23.28-.16.17-11.53,6.82,2.31-6.12ZM260.87,100.17l-2.56,1.52,1.23-3.26,1,1.42s.06.08.1.11l.24.22ZM247.01,103.48s.03-.09.04-.14v-.03s.08-.02.08-.02c.06-.02.12-.04.18-.07l11.6-6.86-2.24,5.96-.23.28-.15.17-11.56,6.84,2.3-6.13ZM242.37,111.11l-2.58,1.53,1.23-3.29,1.01,1.43s.06.08.1.11l.24.22ZM228.46,114.45s.03-.09.04-.14v-.03s.09-.02.09-.02c.06-.02.12-.04.17-.07l11.61-6.86-2.2,5.94-.23.29-.15.17-11.6,6.86,2.29-6.13ZM223.83,122.08l-2.6,1.54,1.24-3.32,1.02,1.45s.06.08.1.11l.24.22ZM209.85,125.44s.03-.09.04-.14v-.03s.09-.02.09-.02c.06-.02.12-.04.17-.07l11.66-6.89-2.2,5.95-.39.45-11.64,6.88,2.28-6.13ZM205.23,133.07l-2.61,1.55,1.24-3.34,1.03,1.47s.06.08.1.11l.25.22ZM191.19,136.46s.03-.09.03-.14v-.03s.09-.02.09-.02c.06-.02.12-.04.17-.07l11.7-6.91-2.19,5.95-.39.45-11.68,6.91,2.27-6.14ZM186.59,144.1l-2.63,1.56,1.25-3.37,1.04,1.48s.06.08.1.11l.25.22ZM172.48,147.52s.03-.09.03-.14v-.03s.09-.02.09-.02c.06-.02.12-.04.17-.07l11.74-6.93-2.18,5.95-.39.45-11.72,6.93,2.26-6.14ZM167.9,155.15l-2.65,1.57,1.25-3.4,1.05,1.5s.06.08.1.11l.25.22ZM153.72,158.6s.03-.1.04-.15v-.02s.09-.02.09-.02c.06-.02.12-.04.17-.07l11.78-6.96-2.17,5.96-.39.45-11.76,6.95,2.25-6.14ZM149.15,166.23l-2.66,1.58,1.25-3.43,1.06,1.52s.06.08.1.11l.25.22ZM134.92,169.71s.03-.09.03-.14v-.03s.09-.02.09-.02c.06-.02.12-.04.17-.07l11.84-7-2.19,5.97-.39.45-11.8,6.98,2.24-6.14ZM130.36,177.34l-2.68,1.58,1.26-3.45,1.07,1.53s.06.08.1.11l.25.22ZM116.06,180.85s.03-.09.03-.14v-.03s.09-.02.09-.02c.06-.02.12-.04.17-.07l11.88-7.02-2.18,5.97-.39.45-11.84,7,2.23-6.15ZM111.51,188.49l-2.7,1.59,1.26-3.48,1.08,1.55s.06.08.1.11l.25.23ZM97.15,192.02s.03-.09.03-.14v-.03s.09-.02.09-.02c.06-.02.12-.04.17-.07l11.92-7.04-2.17,5.98-.39.45-11.88,7.02,2.22-6.15ZM113.42,212.13l.06-.55s0-.04,0-.06v-.29c0-.09,0-.17-.04-.25l-.21-.55s-.04-.09-.07-.14l-9.51-13.61-.22-.32,1.8-1.85,10.18,14.56s.06.07.09.1l.07.07s-.02.04-.03.07l-2.4,6.6-.7-1,.96-2.63c.02-.05.03-.1.04-.16ZM136.03,228.21v-.03s0,0,0,0h0s.05-.51.05-.51c0-.02,0-.03,0-.05v-.29c.01-.09,0-.18-.04-.26l-.2-.51s-.03-.06-.04-.08c-.01-.03-.03-.06-.05-.09l-9.77-13.98,1.69-1.72,10.18,14.56s.06.07.09.1l.07.07s-.02.04-.03.06l-2.42,6.59-.61-.87,1.04-2.83c.02-.05.03-.1.04-.16ZM185.91,235.5l.03.03,10.14,14.49-22.03,13.2-10.18-14.55,22.04-13.17ZM191.02,232.45l131.04-78.32.03.03,10.06,14.32-130.97,78.49-10.16-14.51ZM303.39,161.33l-.44-.63,1.24-3.22c.02-.06.04-.11.04-.17v-.02h0s.07-.84.07-.84c0-.1-.01-.19-.05-.28l-.22-.54s-.04-.09-.07-.13l-9.75-13.89,1.49-1.49,10.1,14.39s.05.07.09.1l.06.06s-.02.04-.02.06l-2.54,6.6ZM318.97,67.89l10.02,14.25-12.95,7.68-10.05-14.29,12.95-7.66.03.03ZM267.55,68.84l10.03,14.28-12.49,7.38-10.06-14.33,12.49-7.36.03.03ZM249.06,79.73l10.04,14.3-12.52,7.4-10.07-14.35,12.52-7.38.03.03ZM230.53,90.65l10.05,14.32-12.52,7.4-.04.02-10.08-14.37,12.56-7.4.03.03ZM211.94,101.6l10.06,14.35-12.6,7.44-10.09-14.4,12.6-7.42.03.03ZM193.31,112.58l10.07,14.37-12.63,7.46-10.11-14.42,12.63-7.44.03.03ZM174.63,123.59l10.08,14.39-12.67,7.49-10.12-14.44,12.67-7.47.03.03ZM155.89,134.63l10.1,14.41-12.71,7.51-10.13-14.47,12.71-7.49.03.03ZM137.11,145.69l10.11,14.44-12.74,7.53-10.14-14.49,12.74-7.51.03.03ZM118.28,156.79l10.12,14.46-12.78,7.55-10.15-14.51,12.78-7.53.03.03ZM99.39,167.92l10.13,14.48-12.82,7.57-10.16-14.53,12.82-7.55.03.03ZM80.46,179.08l10.14,14.5-12.86,7.6-10.17-14.56,12.86-7.58.03.03ZM91.17,197.75l1.1,1.57s.06.08.1.11l.25.23-2.72,1.61,1.27-3.51ZM111.88,216.42l.56.8s.06.08.1.11l.02.02-1.29.77.62-1.69ZM134.41,232.69l.47.67s.06.08.1.11l.03.02-1.14.68.55-1.49ZM111.54,249.52l35.67-21.24.03.03,10.14,14.51-35.65,21.29-10.19-14.59ZM175.72,237.81l.32.46s.06.08.1.11l.44.4s.01,0,.02.01c.03.03.07.04.1.06.02.01.05.03.07.05h0s-1.89,1.13-1.89,1.13l.83-2.22ZM336.98,165.58l-10.08-14.35,21.5-12.85.03.03,10.04,14.29-21.5,12.88ZM318.06,153.62l-.24.3-.14.15-12.28,7.34,2.33-6.04s.03-.09.04-.14v-.03s.09-.02.09-.02c.06-.02.12-.04.17-.07l12.31-7.35-2.27,5.88ZM325.21,142.61l-10.07-14.33,13.23-7.88.03.03,10.04,14.29-13.23,7.9ZM326.49,90.41l-.24.3-.14.15-1.17.7-.27.06s-.04.01-.06.02l-.32.11s-.09.03-.13.06l-9.9,5.87,2.22-5.8s.03-.09.04-.14v-.03s.08-.02.08-.02c.06-.02.12-.04.17-.07l12.01-7.12-2.28,5.92ZM297.71,78.39l-2.53,1.5,1.22-3.21.97,1.39s.06.08.1.11l.24.21ZM293.54,80.52l-.23.28-.16.17-11.49,6.79,2.32-6.12s.03-.09.04-.14v-.03s.08-.02.08-.02c.06-.02.12-.04.17-.07l11.53-6.81-2.26,5.95ZM78.19,203.22s.03-.09.03-.14v-.02s.09-.02.09-.02c.06-.02.12-.04.17-.07l11.96-7.07-2.16,5.98-.39.46-11.92,7.04,2.21-6.15ZM92.97,224.39s.03-.09.03-.14v-.03s.09-.02.09-.02c.06-.02.12-.04.17-.07l18.37-10.9-2.17,5.95s0,0,0,0l-14.1,8.37s-.09.06-.13.1l-.47.48-4.01,2.38,2.22-6.12ZM107.58,245.28s.03-.1.03-.15v-.03s.09-.02.09-.02c.06-.02.12-.04.17-.07l26.37-15.69-2.17,5.92h0s-22.11,13.17-22.11,13.17c-.05.03-.09.06-.13.1l-.47.47-4.01,2.39,2.23-6.1ZM162.77,241.92s.03-.09.04-.14v-.03s.09-.02.09-.02c.06-.02.12-.04.17-.07l12.64-7.55-2.2,5.89-.24.29-.16.17-12.6,7.53,2.25-6.06ZM145.08,259.9l13.6-8.13.03.03,10.15,14.52-13.6,8.15-10.19-14.57ZM322.62,152.77s-.1-.05-.15-.07l-.13-.04.22-.04c.08-.01.16-.04.23-.08l.17-.1-.33.33ZM321.29,150.63l-.43-.61,1.25-3.24c.02-.06.04-.12.04-.18h0s0-.01,0-.01h0s.07-.83.07-.83c0-.1,0-.19-.05-.28l-.22-.54s-.04-.09-.07-.13l-9.75-13.87,1.49-1.48,10.1,14.37s.05.07.09.1l.06.06s-.02.04-.02.06l-2.56,6.6ZM338.6,106.11l-2.56,6.62-.34-.48,1.36-3.51c.02-.06.04-.12.04-.18l.07-.84c0-.1,0-.19-.05-.28l-.22-.54s-.04-.09-.07-.13l-9.75-13.87,1.32-1.32,10.07,14.32s.05.07.09.1l.06.06s-.02.04-.02.06ZM332.5,80.66l-2.56,6.64-.55-.79,1.15-2.99c.02-.06.04-.12.04-.18h0s0-.01,0-.01h0s.07-.83.07-.83c0-.1,0-.19-.05-.28l-.22-.54s-.04-.09-.07-.13l-9.66-13.74,1.66-1.67,10.06,14.31s.05.07.09.1l.06.06s-.02.04-.03.06ZM298.07,76.78l-1.11-1.58.6-1.58c.02-.06.03-.11.04-.17v-.02h0s.05-.54.05-.54l.02-.29c0-.1-.01-.19-.05-.28l-.22-.54s-.04-.09-.07-.13l-9.47-13.47,2.54-2.58,10.06,14.31s.05.07.09.1l.06.06s-.02.04-.03.06l-2.53,6.65ZM75.54,211.16l1.95-1.15-1.45,1.48-.18.21-.36-.52s.02,0,.03-.01ZM90.09,232.38c.08-.01.15-.04.22-.08l.89-.53-.57.58-.31.35h-.01s0,.01,0,.01l-.02.02-.24-.35h.04ZM157.36,248.5l.47.67s.06.08.1.11l.45.4s.01,0,.02.01c.03.03.07.04.1.06.02.01.04.03.07.04l.16.06s.04.02.06.02l.24.07c.06.02.12.03.18.03.04,0,.07,0,.11,0l.5-.09c.08-.01.15-.04.22-.08l-.68.68h0c-.07-.07-.15-.11-.24-.14l-.4-.12c-.11-.03-.22-.03-.33-.01l-.49.11s-.03,0-.05.01l-.32.1s-.1.04-.14.06l-.98.59.96-2.59ZM170.44,267.7c.02-.05.03-.11.04-.16l.05-.55s0-.03,0-.04v-.29c.01-.09,0-.18-.04-.26l-.22-.55s-.04-.09-.07-.13l-9.76-13.96,1.91-1.91,10.19,14.57s.06.07.09.1l.07.06s-.02.04-.03.06l-2.45,6.56-.72-1.03.93-2.48ZM174.49,265.27s.03-.09.04-.14v-.03s.09-.02.09-.02c.06-.02.12-.04.17-.07l21.09-12.64-2.03,5.39-21.34,12.8,1.97-5.27ZM196.11,255.48l.45.65-.9.54.45-1.19ZM201.62,249.02s.03-.09.04-.14v-.03s.09-.02.09-.02c.06-.02.12-.04.17-.07l130-77.91-2.09,5.37-130.19,78.08,1.98-5.27ZM331.97,174.31l.3.43-.61.36.31-.79ZM335.93,142.94l-.24.3-.14.15-12.24,7.31,2.34-6.04s.03-.09.04-.14v-.03s.09-.02.09-.02c.06-.02.12-.04.18-.07l12.27-7.33-2.28,5.87ZM316.06,67.54l-2.52,1.49,1.22-3.18.96,1.37s.06.08.1.11l.24.21ZM311.9,69.66l-.23.28-.16.17-11.45,6.77,2.33-6.12s.03-.09.04-.14v-.03s.08-.02.08-.02c.06-.02.12-.04.18-.07l11.49-6.79-2.27,5.95ZM155.71,276.53s.03-.09.04-.14v-.03s.09-.02.09-.02c.06-.02.12-.04.17-.07l12.67-7.59-1.17,3.14s0,.01,0,.02l-.83,2.23-12.92,7.75,1.96-5.28ZM168.74,272.26s0-.01,0-.02l.22-.58.5.72-.99.59.27-.71ZM359.78,157.56l-.72-1.02.96-2.46c.02-.06.04-.12.04-.18l.07-.84c0-.1,0-.2-.05-.29l-.22-.54s-.04-.09-.07-.13l-9.65-13.73,2-1.97,10.09,14.35s.05.07.09.1l.06.06s-.02.03-.02.05l-2.59,6.6ZM349.06,137.08c-.06-.05-.14-.09-.21-.12l.85-.51-.64.63ZM339.15,139.96l-.42-.6,1.27-3.26c.02-.06.04-.12.04-.18l.07-.85c0-.1,0-.19-.05-.28l-.22-.54s-.04-.09-.07-.13l-9.74-13.86,1.48-1.47,10.08,14.35s.05.07.09.1l.06.06s-.02.04-.02.05l-2.57,6.61ZM363.97,97.15l-.07-.1,1.46-3.74,1.52,2.11-2.9,1.73ZM362,98.32h0s-23.84,14.2-23.84,14.2l2.24-5.78s.03-.09.04-.14v-.03s.09-.02.09-.02c.06-.02.12-.04.18-.07l23.61-14.05-2.3,5.89ZM347.61,77.87s-.02,0-.02,0l-15.54,9.22,2.23-5.79s.03-.09.04-.14v-.03s.08-.02.08-.02c.06-.02.12-.04.17-.07l15.31-9.08-2.29,5.91ZM316.42,65.93l-1.1-1.56.61-1.61c.02-.06.03-.11.04-.17l.05-.56.02-.29c0-.1-.01-.19-.05-.28l-.22-.54s-.04-.09-.07-.13l-9.46-13.45,2.54-2.57,10.05,14.29s.05.07.09.1l.06.06s-.02.04-.03.06l-2.54,6.65ZM289.37,54.28l-3.57,2.1c-.05,0-.1,0-.16.01h-.03s3.96-2.33,3.96-2.33l-.21.21ZM270.95,65.14l-3.58,2.11c-.05,0-.1,0-.16.01h-.04s3.99-2.34,3.99-2.34l-.21.22ZM252.49,76.01l-3.6,2.12c-.05,0-.1,0-.15.01h-.05s4.02-2.36,4.02-2.36l-.22.22ZM233.97,86.92l-3.63,2.14c-.05,0-.1,0-.15.01h-.05s4.05-2.38,4.05-2.38l-.22.23ZM215.41,97.86l-3.65,2.15c-.05,0-.1,0-.15.01h-.06s4.08-2.39,4.08-2.39l-.22.23ZM196.79,108.83l-3.67,2.16c-.05,0-.1,0-.15.01l-.07.02,4.11-2.42-.23.23ZM178.13,119.82l-3.69,2.17s-.1,0-.15.01l-.07.02,4.14-2.44-.23.24ZM159.42,130.85l-3.71,2.18s-.1,0-.15.01l-.08.02,4.18-2.46-.24.24ZM140.65,141.9l-3.73,2.2s-.1,0-.15.01l-.09.02,4.21-2.48-.24.25ZM121.84,152.98l-3.75,2.21s-.1,0-.14.01l-.1.02,4.24-2.5-.24.25ZM102.97,164.1l-3.77,2.22s-.09,0-.14.01l-.11.02,4.27-2.51-.25.26ZM84.06,175.24l-3.79,2.23c-.05,0-.1,0-.15.01l-.1.02,4.3-2.53-.25.26ZM65.08,186.43l-4.58,2.7-.04-.04v-.02s.06-.07.06-.07l4.83-2.85-.27.28ZM141.26,261.02l-2.54,2.55-.11.12-.5-.73s-.02-.02-.03-.04l3.18-1.9ZM376.48,118.52l-12.71,7.6s-.09.06-.12.1l-.98.96-21.51,12.85,2.35-6.03s.03-.09.04-.14v-.03s.09-.02.09-.02c.06-.02.12-.04.17-.07l34.88-20.83-2.21,5.63ZM343.08,131.94l-10.06-14.31,35.86-21.36.03.03,10.02,14.24-35.85,21.41ZM339.96,104.69l-10.05-14.29,24.57-14.58.03.03,10.01,14.23-24.56,14.62ZM349.43,76.79l1.41-3.66,1.42,1.98-2.83,1.68ZM333.86,79.25l-10.04-14.27,16.26-9.61.03.03,10,14.22-16.26,9.64ZM334.75,56.49l-.03-.05,1.44-3.76,1.5,2.08-2.91,1.72ZM333.03,57.17l-.23.28-.16.17-14.23,8.41,2.34-6.11s.03-.09.04-.14v-.03s.08-.02.08-.02c.06-.02.12-.04.17-.07l14.27-8.43-2.28,5.95ZM320.33,57.86l-10.03-14.26,15.21-8.96.03.03,10,14.21-15.2,8.98ZM307.77,43.43l-3.6,2.12s-.09,0-.13.01h-.03s.15-.08.15-.08c0,0,.01,0,.02-.01l3.77-2.22-.19.19ZM363.73,149.55l-10.06-14.31,13.17-7.87.03.03,10.03,14.27-13.17,7.89ZM380.16,116.32l-1.69,1.01-.08-.11,1.46-3.73,1.31,1.83-1.01,1ZM374.54,149.39l-12.44,7.46,2.06-5.24s.03-.09.04-.14v-.04s.09-.02.09-.02c.06-.02.12-.04.18-.07l12.2-7.31-2.11,5.36ZM132.24,294.57l-13.81-20.15.46-.08-.05-.29.11-.05s.04-.02.06-.03l.44-.26.13.21,16.87-10.08.36-.1.38.36,12.9,18.76.46.72-18.32,10.98Z"/>
    </g>
  </g>
</svg>