<?xml version="1.0" encoding="UTF-8"?>
<svg id="Layer_2" data-name="Layer 2" xmlns="http://www.w3.org/2000/svg" viewBox="0 0 207.16 259.79">
  <g id="Layer_1-2" data-name="Layer 1">
    <g>
      <path d="M164.3,169.33s0-.02,0-.02l-.24-.59s0-.02-.01-.03l-.29-.55s0-.02-.02-.03l-.33-.5s0-.01-.01-.02l-.33-.44-.48.35.32.44.32.49.27.52.23.56.34,1.12.13.62.08.65.04.68v.7s-.07.73-.07.73l-.11.74-.16.76-.2.77-.25.78-.29.78-.34.78-.38.77-.42.76-.39.64s0,0,0,0l-.06.1-.49.73-.52.71-.56.69-.07.08-.51.58-.61.63-.63.6-.65.56-.66.52-.68.48-.69.44-.69.39-.69.34-.69.29-.69.24-.68.19-.67.14-.65.08-.63.03-1.17-.04-.6-.08-.56-.13-.54-.18-.53-.21-.22.56.51.2s0,0,.01,0l.57.19s.02,0,.03,0l.6.14s.02,0,.03,0l.63.08s.02,0,.03,0l1.2.05s0,0,.01,0c0,0,0,0,.01,0l.66-.03s.02,0,.02,0l.67-.09s.01,0,.02,0l.69-.14s.01,0,.02,0l.7-.2s.01,0,.02,0l.7-.25s.01,0,.02,0l.71-.3s.01,0,.02,0l.71-.35s0,0,.01,0l.71-.4s0,0,.01,0l.7-.45s0,0,.01,0l.69-.49s0,0,.01,0l.68-.53s0,0,.01,0l.66-.57s0,0,0,0l.64-.61s0,0,0,0l.62-.64s0,0,0,0l.51-.58.08-.09s0,0,0-.01l.56-.7s0,0,0-.01l.53-.73s0,0,0,0l.5-.74s0,0,0-.01l.06-.1s0,0,0,0l.4-.65s0,0,0-.01l.42-.78s0,0,0-.01l.38-.78s0,0,0-.01l.34-.79s0,0,0-.01l.3-.79s0,0,0-.01l.25-.79s0-.01,0-.02l.21-.78s0-.01,0-.02l.16-.78s0-.01,0-.02l.11-.76s0-.01,0-.02l.06-.75s0-.01,0-.02v-.72s.01-.01.01-.02l-.04-.7s0-.02,0-.02l-.09-.67s0-.02,0-.02l-.14-.64s0-.02,0-.02l-.18-.61-.17-.54Z"/>
      <path d="M141.01,185.08s0,.02,0,.02l.12.87s0,.02,0,.02l.18.83s0,.02,0,.02l.25.79s0,.02,0,.03l.31.74s0,.02.01.03l.37.69s.01.02.02.03l.43.63s.01.02.02.03l.48.57s.01.02.02.02l.54.51.41-.43-.52-.5-.46-.55-.41-.6-.35-.66-.3-.71-.24-.76-.18-.81-.12-.85-.06-.89v-.77s.08-.96.08-.96l.14-.99.19-.98.27-1.05.3-.95.41-1.11.44-1.03.5-1.02.54-1,.6-.99.67-1,.7-.95.74-.92.77-.88.81-.84.84-.79.86-.74.82-.64.91-.65.96-.61.86-.48.93-.46.96-.41.9-.31.74-.2.87-.17.85-.1.83-.03.59.03h.21s.76.12.76.12l.67.16s0,0,0,0h.06s.69.26.69.26l.64.31.61.38.32-.51-.63-.39s-.02-.01-.03-.02l-.67-.32s-.02,0-.03-.01l-.72-.25s-.02,0-.03,0l-.07-.02h0s-.68-.17-.68-.17c0,0-.02,0-.03,0l-.79-.11s-.02,0-.03,0h-.22s-.6-.04-.6-.04c0,0-.02,0-.03,0l-.85.03s-.02,0-.02,0l-.87.11s-.02,0-.02,0l-.89.18s-.01,0-.02,0l-.77.21.06.23-.08-.22-.92.32s-.01,0-.02,0l-.93.39s-.01,0-.02,0l-.93.46s0,0-.01,0c0,0,0,0,0,0l-.93.52s0,0-.01,0l-.92.58s0,0-.01,0l-.91.64s0,0-.01,0l-.89.7s0,0-.01,0l-.87.75s0,0-.01,0l-.85.8s0,0,0,0l-.82.85s0,0,0,0l-.78.89s0,0,0,.01l-.75.93s0,0,0,.01l-.7.96s0,0,0,.01l-.66.99s0,0,0,.01l-.61,1.01s0,0,0,.01l-.56,1.03s0,0,0,.01l-.51,1.04s0,0,0,.01l-.45,1.04s0,0,0,.01l-.39,1.04s0,.01,0,.02l-.33,1.04s0,.01,0,.02l-.27,1.04s0,.01,0,.02l-.2,1.02s0,.01,0,.02l-.14,1s0,.01,0,.02l-.07.98s0,.01,0,.02v.95s0,0,0,0l.05.77Z"/>
      <path d="M145.95,183.34l-.04-.16-.06-.54v-.54s.08-.47.08-.47l1.14.89.56.9.08.24-.19.8-.44.73c-.04.06-.05.14-.04.21l.13.74h.07s.17.28.17.28l.52-.3-.23-.39-.06-.33.41-.68s.03-.05.03-.08l.23-.93c.01-.06.01-.11,0-.17l-.12-.36s-.02-.04-.03-.06l-.61-.98s-.04-.06-.07-.08l-1.39-1.09.15-.38.16-.11,4.44,3.46.72.93.12.7.12.83.59-.09-.12-.83-.12-.73s-.01-.05-.02-.07l-.04-.08s-.02-.04-.04-.06l-.77-.99s-.03-.04-.05-.05l-4.35-3.39.31-.47s.02-.03.03-.05l.21-.5s.02-.09.02-.13l-.03-.51h0c0-.06-.02-.12-.06-.17l-.58-.74s-.02-.03-.03-.04l-.02-.02.03-.11.27-.69.34-.65.4-.62.46-.64.18-.22h.16s.02,0,.02,0l.53-.07c.06,0,.12-.03.16-.07l.45-.4s.05-.05.07-.09l.27-.54c.03-.05.04-.12.03-.18l-.07-.53s0-.01,0-.02l-.04-.18.66-.8.51-.56.54-.5.59-.44.09-.05.03.02s.03.02.05.02l.86.37s.08.02.12.02c.02,0,.04,0,.06,0l.5-.1s.09-.03.12-.05l.43-.33s.03-.02.04-.04l.35-.4,4.4,3.33s.04.03.06.04l.91.38.24.1s.04.02.07.02h.09s.03.02.05.02c0,0,.02,0,.03,0l.72-.07.64-.07s0,0,0,0l.2-.02-.02-.16.29-.1-.2-.56-.4.14s0,0,0,0l-.4.14-.16.04-.69.07-.22-.09-.88-.37-4.5-3.4.06-.21.12-.14.2-.11,1.45,1.09s.06.04.09.05l1.1.34s.04.01.07.01l.37.03s.01,0,.02,0c.05,0,.1-.01.14-.04l.84-.46s.05-.03.07-.05l.59-.61.11-.06h.07s.35.06.35.06l.08-.59-.35-.05-.13-.02-.04-.07h-.01s0,0,0,0l-.16.09s0,0,0,0l-.23.13s-.05.03-.07.05l-.6.62-.72.39-.25-.02-1.02-.31-1.19-.9.47-.17.53-.15.54-.08h.16s.49.1.49.1l.12-.59-.21-.04v-.08s-.6,0-.6,0c-.01,0-.03,0-.04,0l-.57.09s-.03,0-.04,0l-.56.16s-.01,0-.02,0l-.57.21s-.03.01-.05.02l-.78.44s-.06.04-.08.07l-.2.23s-.05.07-.06.11l-.17.59-.35.39-.36.27-.34.07-.46-.19.34-.17.49-.04-.05-.6-.54.05s-.07.01-.11.03l-.49.24s-.01,0-.02.01l-.66.4s-.02.01-.02.02l-.62.46s-.02.01-.02.02l-.57.52s-.01.01-.02.02l-.52.58s0,0,0,.01l-1,1.22.04.03-.03.05.24.15v.03s.06.43.06.43l-.21.41-.34.3-.4.05-.18-.19-.05.05-.04-.03-.52.63s0,.01-.01.02l-.46.64s0,0,0,.01l-.42.65s-.01.02-.01.02l-.36.68s0,.02-.01.03l-.28.71s0,.02,0,.03l-.21.74s0,0,0,.01l-.17.74h.04s-.05.57-.05.57l.6.06.07-.74s0-.01,0-.02v-.04s.07-.31.07-.31l.06.06.25.31.02.35-.17.41-.29.44-.56.38.1.15-.19-.07-.12.3-.06-.02-.15.57s0,0,0,0l-.08.29h.03s-.09.63-.09.63c0,.01,0,.03,0,.04v.58s-.01.03,0,.04l.06.58s0,.03,0,.04l.14.58.07-.02.09.19s.01.02.02.03l.38.59.5-.32-.37-.58-.21-.43Z"/>
      <path d="M166.02,74.34l-.24-.63s0-.02-.01-.03l-.29-.59s0-.02-.01-.02l-.34-.55s-.01-.02-.02-.02l-.03-.04s0,0,0,0l-.69-.9-.47.37.7.9s0,0,0,0l.34.54.29.58.24.61.17.52.18.64.13.67.09.7.04.73v.75s-.07.77-.07.77l-.11.79-.16.8-.21.81-.26.81-.3.81-.35.81-.39.8-.43.79-.13.22s0,0,0,0l-.33.55-.51.76-.54.74-.57.71-.6.68-.63.65-.65.61-.67.57-.68.53-.7.48-.71.44-.71.39-.71.34-.71.28-.71.23-.7.17-.68.12-.67.06h-.66s-.55,0-.55,0l-.61-.05-.65-.11-.59-.16-.51-.18-.2.56.52.18s.01,0,.02,0l.62.17s.02,0,.03,0l.65.11s.02,0,.03,0l.67.05s.02,0,.02,0h1.24s.02-.01.02-.01l.69-.07s.02,0,.02,0l.71-.12s.01,0,.02,0l.72-.18s.01,0,.02,0l.72-.24s.01,0,.02,0l.73-.29s.01,0,.02,0l.73-.34s.01,0,.02,0l.73-.39s0,0,.01,0l.72-.44s0,0,.01,0l.7-.49h0s0-.01.01-.02l.7-.54s0,0,.01,0l.68-.58s0,0,.01-.01l.66-.62s0,0,0,0l.64-.66s0,0,0-.01l.61-.69s0,0,0-.01l.58-.72s0,0,0-.01l.55-.75s0-.01.01-.02l.51-.76s0,0,0-.01l.33-.55s0,0,0,0l.14-.23s0,0,0-.01l.44-.81s0,0,0-.01l.4-.82s0,0,0-.01l.35-.82s0,0,0-.01l.31-.83s0,0,0-.01l.26-.83s0,0,0-.01l.21-.82s0-.01,0-.02l.16-.82s0-.01,0-.02l.11-.8s0-.01,0-.02l.06-.79s0-.01,0-.02v-.77s.01-.01.01-.02l-.04-.75s0-.01,0-.02l-.09-.72s0-.02,0-.02l-.14-.69s0-.02,0-.02l-.19-.65s0,0,0,0l-.17-.53s0-.01,0-.02Z"/>
      <path d="M142.06,90.08s0,.01,0,.02l.12.93s0,.01,0,.02l.19.89s0,.02,0,.02l.25.85s0,.02,0,.02l.32.8s0,.02.01.03l.38.74s0,.02.01.03l.44.69s.01.02.02.02l.5.63s.01.02.02.02l.55.56h0s.38.31.38.31l.38-.46-.39-.32-.49-.5-.48-.6-.42-.66-.37-.72-.31-.77-.24-.81-.19-.88-.12-.91-.06-.95v-.83s.08-1.02.08-1.02l.14-1.04.21-1.06.27-1.07.33-1.08.39-1.06.46-1.1.51-1.07.57-1.05.62-1.03.67-1.01.72-.98.76-.94.8-.9.83-.86.86-.81.89-.75.91-.7.21-.14s0,0,0,0l.71-.49.94-.57.94-.51.95-.44.9-.35.83-.26.91-.22.9-.15.88-.07h.85l.79.07.82.15.75.22.71.29.52.28.5.34.34-.49-.41-.28h0s-.69-.38-.69-.38c0,0-.02,0-.03-.01l-.74-.3s-.02,0-.03-.01l-.78-.23s-.02,0-.03,0l-.81-.15s-.02,0-.03,0l-.85-.08s-.02,0-.03,0h-.88s-.02,0-.03,0l-.9.08s-.02,0-.02,0l-.92.15s-.01,0-.02,0l-.94.23s-.01,0-.02,0l-.82.26h0s-.96.37-.96.37c0,0-.01,0-.02,0l-.96.45s-.01,0-.02,0l-.96.52s0,0-.01,0l-.95.58s0,0-.01,0l-.72.5s0,0,0,0l-.21.14s0,0-.01,0l-.92.71s0,0-.01,0l-.9.76s0,0-.01,0l-.87.82s0,0-.01,0l-.84.87s0,0,0,.01l-.81.91s0,0,0,.01l-.77.95s0,0,0,.01l-.73.99s0,0,0,.01l-.68,1.02s0,0,0,.01l-.63,1.04s0,0,0,.01l-.58,1.07s0,0,0,.01l-.52,1.08s0,0,0,.01l-.46,1.09s0,0,0,.01l-.4,1.1s0,0,0,.01l-.34,1.09s0,.01,0,.02l-.28,1.09s0,.01,0,.02l-.21,1.08s0,.01,0,.02l-.14,1.06s0,.01,0,.02l-.08,1.04s0,.01,0,.02v1.01s0,0,0,0l.05.83Z"/>
      <path d="M148.41,91.48h.06s.19.32.19.32l.52-.3-.22-.39-.07-.38.42-.72s.03-.05.03-.08l.23-.94c.01-.05.01-.11,0-.16l-.12-.39s-.02-.05-.03-.07l-.63-.96s-.04-.06-.07-.08l-1.53-1.13.13-.32,4.88,3.59.73.91v.03s.13.73.13.73l.12.87.59-.08-.12-.85-.13-.79s0-.03-.01-.05l-.04-.11s-.03-.06-.05-.09l-.79-.99s-.04-.04-.06-.05l-4.89-3.6.31-.21s.06-.05.08-.07l.35-.49s.02-.04.03-.06l.21-.53s.02-.09.02-.13l-.03-.54c0-.06-.03-.12-.06-.17l-.33-.41s-.01-.01-.02-.02l-.11-.12-.14-.16s-.01-.02-.02-.02l-.08-.07.08-.27.28-.72.35-.68.43-.66.46-.65.11-.13h.21s.01.01.02.01c.01,0,.02,0,.04,0l.55-.07c.06,0,.12-.03.16-.07l.47-.41s.05-.06.07-.09l.28-.56c.03-.05.04-.11.03-.17l-.07-.55s0,0,0-.01l-.05-.29.02-.02.68-.82.52-.57.56-.51.57-.41.17.12s.04.03.07.04l.89.33s.07.02.1.02c.02,0,.03,0,.05,0l.52-.09s.09-.03.13-.05l.45-.33s.04-.03.05-.05l.03-.03,4.87,3.47s.04.03.06.03l1.18.47.08.04s.08.02.12.02c0,0,.02,0,.03,0l1.61-.15-.05-.6-.85.08-.68.06h-.02s0-.01,0-.01l-1.15-.45-4.81-3.42h.01s.05-.08.06-.13l.18-.65.08-.1,1.75,1.24s.06.04.1.04l1.14.3s.03,0,.04,0l.38.05s.02,0,.04,0c.05,0,.1-.01.15-.04l.86-.49s.05-.03.07-.05l.62-.65.05-.03.5.05.06-.6-.46-.04-.07-.12-.42.24s-.05.03-.07.05l-.62.64-.74.42-.27-.03-1.06-.29-1.49-1.06.21-.13.55-.18.54-.13.51-.06h.03s.68.16.68.16l.13-.58-.71-.16s-.03,0-.05,0h-.09s0,.1,0,.1v-.1s-.6.07-.6.07c-.01,0-.03,0-.04,0l-.57.14s-.01,0-.02,0l-.58.19s-.05.02-.07.03l-.26.17-.52.28s-.07.05-.09.08l-.2.25s-.04.07-.05.11l-.18.64-.36.43-.36.26-.37.06-.66-.25.1-.06.43-.19.5-.02-.02-.6-.56.02s-.07,0-.11.02l-.5.22s-.02.01-.03.02l-.68.4s-.02.01-.02.02l-.64.46s-.02.01-.02.02l-.58.53s-.01.01-.02.02l-.53.58s0,0,0,.01l-1.03,1.25.05.04-.04.07.22.14.03.13.06.45-.21.42-.35.31-.34.04-.25-.27-.04.04-.05-.05-.54.63s-.01.01-.02.02l-.47.66s0,0,0,.01l-.44.68s0,.02-.01.02l-.37.71s0,.02-.01.03l-.29.75s0,.02,0,.03l-.13.46s0,.01,0,.02l-.08.3s0,0,0,.01l-.18.77h.04s-.06.62-.06.62l.6.06.07-.77s0-.01,0-.02v-.07s.06-.23.06-.23l.09.1.26.33.02.38-.17.44-.3.42-.6.41.06.09-.13-.05-.33.85s-.01.04-.02.07l-.14.92s0,.02,0,.04v.62s-.01.02-.01.04l.06.62s0,.03,0,.04l.15.62h.06s.11.22.11.22c0,0,.01.02.02.03l.39.63.51-.32-.34-.54.05-.07-.16-.13-.14-.29-.06-.27-.06-.58v-.56s.05-.24.05-.24l1.23.91.58.89.09.27-.2.81-.45.77.23.13-.27.05.14.78Z"/>
      <path d="M157.68,86.7s0,0-.01-.01l-6.92-5.05-1.75-1.3-.36.48,1.7,1.27,6.96,5.07.7.66.5.49.42-.43-.51-.49-.29-.27.02-.03-.47-.39Z"/>
      <path d="M195.33,195.58s-.02-.08-.04-.12l-.34-.57-.26.15.15-.26-.55-.32s-.09-.04-.13-.04l-.71-.04s-.07,0-.1.01l-.79.24s-.05.02-.07.03l-.8.5s-.03.02-.05.04l-.73.71s-.03.03-.04.04l-.59.85s-.02.03-.03.05l-.39.91s-.02.04-.02.07l-.15.88s0,.06,0,.09l.1.76s.02.08.04.12l.34.57.26-.16-.15.26.55.32s.09.04.13.04l.71.04s.01,0,.02,0c.03,0,.06,0,.09-.01l.79-.24s.05-.02.07-.03l.8-.5s.03-.02.05-.04l.73-.71s.03-.03.04-.04l.59-.85s.02-.03.03-.05l.39-.91s.02-.04.02-.07l.15-.88s0-.06,0-.09l-.1-.76ZM194.69,197.17l-.36.85-.55.8-.69.67-.74.46-.7.21-.58-.04-.43-.25-.27-.45-.09-.65.14-.8.36-.85.56-.8.69-.67.74-.46.7-.21.58.04.43.25.27.45.09.65-.14.8Z"/>
      <path d="M194.77,30.42s.02.07.03.11l.36.66s.05.08.09.1l.58.4s.08.04.13.05l.74.1s.03,0,.04,0c.02,0,.05,0,.07,0l.83-.21s.05-.02.08-.03l.84-.49s.04-.03.06-.04l.77-.73s.03-.03.04-.05l.62-.9s.02-.04.03-.05l.41-.98s.02-.04.02-.07l.16-.96s0-.06,0-.09l-.1-.85s-.02-.07-.03-.11l-.36-.66s-.05-.08-.09-.1l-.58-.4s-.08-.04-.13-.05l-.74-.1s-.08,0-.11,0l-.84.2s-.05.02-.08.03l-.84.49s-.04.03-.06.04l-.77.73s-.03.03-.04.05l-.62.9s-.02.04-.03.05l-.41.98s-.02.04-.02.07l-.16.97s0,.06,0,.09l.11.85ZM195.41,28.65l.39-.92.59-.85.72-.69.78-.45.74-.18.62.09.46.32.3.55.09.76-.15.89-.38.92-.58.85-.72.69-.77.45-.74.18-.62-.09-.46-.32-.3-.55-.09-.76.15-.89Z"/>
      <path d="M138.2,94.59l.59,2.6s0,.04.02.05l.99,2.29s.02.04.03.05l1.37,1.94s.03.04.04.05l1.71,1.54s.04.03.06.04l2.02,1.1s.04.02.06.03l2.28.65s.04,0,.06.01l2.39.17h.1s.01,0,.02,0h0s.02,0,.03,0l2.64-.29s.03,0,.05,0l2.74-.75s.03,0,.04-.01l2.77-1.2s.02-.01.03-.02l2.75-1.61s.02-.01.03-.02l2.66-2s.02-.01.02-.02l2.51-2.33s.01-.01.02-.02l2.31-2.62s.01-.01.02-.02l2.06-2.85s.01-.02.02-.02l1.77-3.02s0-.02.01-.03l1.44-3.12s0-.02.01-.03l1.07-3.15s0-.02,0-.03l.68-3.11s0-.02,0-.04l.28-3.01s0-.03,0-.04l-.14-2.84s0-.03,0-.05l-.55-2.6s0-.04-.02-.05l-.95-2.31s-.02-.04-.03-.05l-1.33-1.97s-.03-.04-.04-.05l-1.58-1.49h0s-.1-.09-.1-.09c-.02-.02-.04-.03-.06-.04l-1.99-1.15s-.04-.02-.06-.03l-2.26-.7s-.04-.01-.06-.01l-.86-.08h0s-1.63-.15-1.63-.15c-.02,0-.04,0-.06,0l-2.65.25s-.03,0-.05,0l-2.11.55h0l-.65.17s-.03,0-.04.01l-2.8,1.18s-.02.01-.03.02l-2.79,1.61s-.02.01-.03.02l-2.7,2.01s-.02.01-.02.02l-2.56,2.36s-.01.01-.02.02l-2.35,2.66s-.01.02-.02.02l-1.19,1.64-.91,1.25s0,0,0,0c0,0,0,.01-.01.02l-1.79,3.07s0,.02-.01.03l-1.45,3.17s0,.02-.01.03l-1.07,3.19s0,.02,0,.03l-.66,3.15s0,.02,0,.02c0,0,0,0,0,.01l-.25,3.03s0,.03,0,.04l.17,2.85s0,.03,0,.05ZM139.52,85.58l1.06-3.16,1.43-3.14,1.78-3.04,1.66-2.29.42-.58,2.33-2.64,2.53-2.34,2.68-1.99.31-.18s0,0,0,0l2.44-1.41,2.77-1.17,2.72-.71,2.6-.24,2.43.22,2.2.68,1.93,1.12,1.63,1.53,1.29,1.92.92,2.26.53,2.54.14,2.81-.27,2.97-.67,3.08-1.06,3.12-1.42,3.09-1.76,2.99-.63.87-1.42,1.95-1.94,2.19-.36.41-2.49,2.31-2.63,1.98-2.72,1.6-2.73,1.18-2.69.74-2.59.28h-.11s-1.03-.08-1.03-.08h0s-1.3-.09-1.3-.09l-2.22-.63-1.96-1.07-1.66-1.49-1.33-1.88-.97-2.24-.58-2.55-.17-2.8.24-2.99.66-3.11Z"/>
      <path d="M207.16,16.84l-.16-1.34s-.02-.07-.03-.11l-.56-1.04s-.05-.08-.09-.1l-.91-.64-10.61-7.17L185.58.23s-.08-.04-.12-.05l-1.16-.17s-.08,0-.11,0l-1.3.3s-.03,0-.04.01l-56.95,23.14-.47-.81s-.05-.07-.09-.09h0s-10.27-7.25-10.27-7.25l-8.94-6.3-.95-.63s-.08-.04-.12-.05l-1.2-.17s-.07,0-.11,0l-1.34.31s-.03,0-.04.01L27.56,38.39c-.12.05-.19.16-.19.28v.69s-.22-.17-.22-.17c-.03-.02-.05-.03-.09-.04l-.07-.02c-.07-.02-.14-.02-.2,0l-15.9,6.29-9.38,3.77-.31.12s-.03.01-.05.02l-.26.15s-.03.02-.05.03l-.29.26s-.06.07-.08.11l-.11.25s0,.02,0,.03l-.26.79s0,.03-.01.04l-.09.56s0,.04,0,.05l5.74,193.5s0,.04,0,.05l.09.43s0,.03.01.04l.1.28s.04.09.08.12l15.99,13.66s.11.07.17.07l.43.04s.02,0,.03,0c.05,0,.09-.01.13-.03l.42-.21,6.99-3.2.7-.33c.06-.03.12-.08.14-.15l.08-.17.42.36c.06.05.12.07.19.07.04,0,.08,0,.11-.02l.77-.31s0,0,.01,0l51.53-23.61.02,3.73s0,.04,0,.05l.08.43s0,.04.02.06l.12.28s.05.08.08.11l16.07,13.13.45.38s.11.06.17.07l.43.04s.02,0,.03,0c.05,0,.1-.01.14-.03l.4-.21,6.97-3.24.52-.25c.06-.03.11-.08.14-.14l.07-.15.41.34c.05.04.12.07.19.07.04,0,.08,0,.11-.02l.75-.31s0,0,.01,0l61.66-28.69s.02-.01.03-.02l1.25-.78s.03-.02.05-.04l1.14-1.11s.03-.03.04-.04l.92-1.32s.02-.03.03-.05l.55-1.3,2.42-1.13.76.59s.02.02.04.02l.87.49s.09.04.13.04l1.11.06s.01,0,.02,0c.03,0,.06,0,.09-.01l1.24-.38s.03,0,.04-.01l13.09-6.09s.02-.01.03-.02l1.24-.77s.03-.02.05-.04l1.13-1.1s.03-.03.04-.04l.91-1.32s.02-.03.03-.05l.6-1.41s.02-.04.02-.07l.24-1.36s0-.03,0-.04l6.04-183.64s0-.03,0-.05ZM204.03,13.41s0,0,0,0l-1.3.31s-.03,0-.04.01l-13.87,5.72s-.02.01-.04.02l-1.32.77s-.04.03-.06.04l-1.21,1.15s-.03.03-.04.05l-.97,1.41s-.02.04-.03.05l-.64,1.54s-.02.04-.02.07l-.25,1.51s0,.03,0,.04l-2.37,90.2-1.74-1.27,2.31-90.54.24-1.46.61-1.48.93-1.36,1.16-1.1,1.29-.75c.14-.08.19-.25.12-.39-.07-.14-.24-.2-.38-.14l-11.36,4.68c-.14.06-.22.22-.17.37.05.15.2.23.35.2l1.26-.31,1.05.15.86.59h0l.45.31s-.03,0-.05,0l-1.32.32s-.03,0-.04.01l-65.46,26.99-.65.23-1.06-.77-.43-.44-.22-.5v-.49s.19-.45.19-.45l8.14-10.65.65-.68.55-.27-.13-.27.13.27.83-.41,39.53-16.17h0s8.16-3.34,8.16-3.34l10.02-4.1,14.58-5.96,1.22-.29.52.08h0s.51.08.51.08l9.5,6.42ZM182.76,117.56l.7.81.21,1.63-.31,1.92-.83,1.58-.83,1.15s-.05.11-.06.17l-2.24,85.5s0,.03,0,.05l.13.97-1.16-.9-.48-.78-.15-1.09,2.18-85.34.8-1.11s.02-.02.02-.04l.85-1.63s.03-.06.03-.09l.33-2s0-.06,0-.09l-.17-1.29.19.14s0,0,0,0h0s0,0,0,0c0,0,.02.01.03.02l.76.42ZM177.89,124.62l-.19-1.72.29-1.98.78-1.56.88-1.16s.06-.11.06-.17l.06-2.51.98.72.38.44.21,1.63-.31,1.91-.82,1.57-.84,1.16s-.05.11-.06.17l-.07,2.64-1.11-.82-.25-.31ZM178.74,23l-.18.26.18-.26-.92-.63s-.08-.04-.13-.05l-.49-.07,7.04-2.9-.46.44s-.03.03-.04.05l-.97,1.41s-.02.04-.03.05l-.64,1.54s-.02.04-.02.07l-.25,1.51s0,.03,0,.04l-.03,1.33-.57-1.03s-.05-.08-.09-.1l-2.4-1.65ZM179.82,115.18l-.04.05v-.06s.04,0,.04,0ZM115,52.54l48.35-19.97h0s0,0,0,0l1.78-.74s0,0,0,0l10.64-4.4,1.66-.69.81-.2.54.07.4.28.26.47.05.41.05.41-2.25,90.49-.84,1.1s-.02.03-.03.05l-.41.81-.41.82s0,.02-.01.03c0,.02-.01.04-.02.06l-.02.11-.23,1.57-.04-.29s-.02-.08-.04-.11h0s-.36-.61-.36-.61l-.24.14h0s.15-.24.15-.24l-.58-.36s-.08-.04-.13-.04l-.74-.07s-.07,0-.11,0l-.83.23s-.05.02-.08.03l-.83.5s-.04.03-.05.04l-.76.73s-.03.03-.04.05l-.61.88s-.02.04-.03.05l-.4.95s-.02.04-.02.07l-.15.92s0,.06,0,.09l.11.81s.02.08.04.11l.36.61.26-.15-.16.25.58.36s.08.04.13.04l.74.07s.02,0,.03,0c.03,0,.05,0,.08-.01l.82-.23s.05-.02.07-.03l.83-.5s.04-.02.05-.04l.76-.73s.03-.03.04-.05l.61-.88s.02-.04.03-.05l.4-.95h0s.02-.04.02-.07l.09-.52.15,1.3s.02.08.04.11c0,.01.02.03.03.04l.75.94s.06.06.1.08l.68.33-2.12,85.13-.15.86-.31.74-.48.7-.57.56-.02.02-.81.51-61.54,28.61h0s-7.42,3.46-7.42,3.46l.03-13.98,8.55-3.94c.03.13.15.22.29.22h0c.16,0,.3-.13.3-.3l.02-5.2c0-.17-.13-.3-.3-.3h0c-.13,0-.24.08-.28.19-.08-.03-.16-.03-.24,0l-8.34,3.83v-4.56h0v-6.83s1.52-.85,1.52-.85l.17-.1,1.53-.89s.03-.02.05-.03h0s0,0,0,0c0,0,0,0,0,0l.6-.52.73-.64h0s0,0,0,0c.02-.02.04-.04.06-.06l.94-1.47s.04-.09.05-.14l.11-1.49-.3-.02.28-.1-.4-1.12-.28.1.14-.26-.97-.53c-.06-.03-.13-.04-.19-.03l-1.34.22s-.05.01-.07.02l-1.18.54v-.15s.98-1.91.98-1.91h0s.06-.11.06-.11l.06-.11s0-.01,0-.02h0s0-.01,0-.01h0s1.12-2.56,1.12-2.56c0-.02.01-.04.02-.06l.55-2.53s0-.04,0-.06l.04-1.85s0-.05,0-.07l-.38-1.64.63-.99.89-1.44-.25-.16.28.1.46-1.3-.28-.1.3.03.1-1.23s0-.07,0-.1l-.26-1.03-.29.07.23-.19-.61-.74-.23.19.12-.28-.89-.38s-.08-.02-.12-.02l-1.09.03s-.06,0-.09.02l-1.36.46.1.28-.12-.27-.11.05.12.27-.12-.27-1.26.57.03-15.82h-.2s.2,0,.2,0l.02-11.15.16-.08h0s1.65-.83,1.65-.83l1.98-.99-.13-.27.24.17,3.47-4.85h0s3.99-5.58,3.99-5.58c0,0,0,0,0,0l.3-.42,3.15-1.46.79-.37.89,1.41s.06.07.1.1l1.39.81s.08.04.13.04l1.76.14s.02,0,.02,0c.03,0,.05,0,.08-.01l1.95-.55s.05-.02.07-.03l.37-.22h0s1.58-.95,1.58-.95l-.15-.26.21.22,1.77-1.69-.21-.22.25.17,1.41-2.05s.02-.03.03-.05l1.06-2.43,2.43-1.07,1.3.4c.07.02.14.02.21-.01l1.76-.77s.08-.05.11-.08h0s0,0,0,0l.89-1.04.5-.59,2.31-.96.21-.09h0s.91-.4.91-.4c.04-.02.08-.05.11-.08l.91-1.07-.23-.19.29.08.36-1.25c.02-.06.02-.12,0-.18l-.33-.94-.28.1.09-.29-.89-.28c-.07-.02-.14-.02-.21.01l-1.12.49-1.89.86h0s-.37.17-.37.17l-1.3-.41c-.07-.02-.14-.02-.21.01l-.38.17h0s-1.38.6-1.38.6c-.04.02-.08.05-.11.08h0s0,0,0,0l-1.39,1.64-2.35.99-.93-1.38s-.06-.07-.1-.09l-1.38-.83s-.08-.04-.13-.04h0s-.88-.08-.88-.08l-.88-.08h0s-.07,0-.11,0l-1.95.54s-.05.02-.07.03l-1.96,1.18s-.04.02-.05.04h0s0,0,0,0l-1.78,1.7s-.03.03-.04.05l-1.42,2.06s-.02.04-.03.06l-.73,1.75.03-4.94h-.3s.3,0,.3,0l.08-12.26c0-.1-.05-.2-.13-.25s-.19-.07-.28-.02l-12.35,5.36h0l-3.1,1.35.06-31.02.32-.14h0s.47-.2.47-.2h0s5.71-2.43,5.71-2.43c.1-.04.16-.13.18-.23l.99-6.84,1.56-6.7,2.14-6.48.69-1.61-.28-.12.28.12,2.03-4.75s.02-.08.02-.12l.03-5.44c0-.14-.1-.26-.24-.29l-3-.65h0s-5.75-1.25-5.75-1.25l-.04-6.5s0-.06-.01-.09l-.28-.87s-.04-.09-.08-.12l-.52-.5s-.09-.07-.14-.08l-.54-.12s-.05,0-.08,0l-.62.03s-.04,0-.06,0c0,0,0,0,0,0l-.64.19s-.02,0-.03.01l-2.02.88v-2.33s.35-.15.35-.15l6.28-2.64,1.51-.63h0s0,0,0,0l2.81-1.16h0ZM170.48,127.37l-.3-.5-.1-.7.14-.84.37-.89.57-.83.71-.68.08-.05,2.66,1.96-.3.7-.57.83-.71.68-.77.46-.73.2-.61-.06-.46-.28ZM174.78,124.2l-1.99-1.46-.04-.31.63-.17.16.02,1.21.89.09.64-.07.4ZM109,50.37h0s0,0,0,0h0ZM109.6,51.16v-.05s0-.35,0-.35l.27.28s.02.02.04.03l1.08.78v.57s-.32-.23-.32-.23l-.06-.16s-.05-.09-.09-.12l-.92-.76ZM115.47,78.88l-.69,1.62s0,.02,0,.02l-2.14,6.51s0,.02,0,.03l-1.57,6.73s0,.02,0,.02l-.51,3.5.39-3.26,1.58-6.79,2.17-6.58,2.67-6.21s.02-.07.02-.11l.1-4.91c0-.14-.1-.27-.24-.3l-2.36-.49-.06.29.06-.29-10.59-2.21-.94-.81-.03-8.53v-.62s7.56-3.12,7.56-3.12v.17s-7.24,2.99-7.24,2.99c-.11.05-.18.16-.18.28v.11h0v2.98s0,0,0,0h0v5.33c-.01.09.03.18.1.23l.88.72.19-.23-.06.29,4.2.91s0,0,0,0l5.99,1.3.06-.29-.06.29,2.76.6-.03,5.14-2,4.7h0ZM107.12,133.7l.07.16h0s-.07-.16-.07-.16ZM127.79,138.73l1.38.12.26.02,1.27.76,1.03,1.53.25-.17.11.26-.38.15-1.12-1.5-.24.18.15-.26-1.23-.74s-.08-.04-.13-.04l-1.56-.13s-.07,0-.11,0l-1.74.48s-.05.02-.07.03l-1.7,1.02.08-.08,1.9-1.14,1.86-.51ZM137.83,137.73l1.3.41s.06.01.09.01c.04,0,.08,0,.12-.03l2.37-1.08,1.01-.44.64.2.25.71-.09.31s0-.07-.02-.11l-.2-.58-.28.1.09-.29-.54-.17c-.07-.02-.15-.02-.22.02l-.89.43-2.49,1.09-1.31-.41c-.07-.02-.14-.02-.21.01l-1.28.56.05-.06,1.59-.7ZM141.63,139.96l-.2.09-2.33.96.05-.06,2.52-1.08.85-.34-.05.05-.84.37h0ZM125.58,151.67l-1.86.52-1.63-.13-.66-.38-.61-.36-.27-.43-.72-1.14h0s0,0,0,0c-.05-.08-.14-.13-.24-.14l.25-.11,1.09,1.53.24-.17-.15.26,1.23.72s.08.04.13.04l1.56.13s.02,0,.02,0c.03,0,.05,0,.08-.01l1.73-.48s.05-.02.07-.03l1.67-1.01-.06.06-1.89,1.14ZM105.3,191.9l.1-.04,1.3-.44.98-.03.76.32.52.63.23.92-.1,1.14-.44,1.23h0s.33-.93.33-.93c0-.02.01-.05.02-.07l.08-1s0-.07,0-.1l-.21-.84s-.03-.08-.06-.11l-.49-.6-.23.19.12-.28-.72-.3s-.08-.02-.12-.02l-.89.02s-.06,0-.09.02l-1.22.42-.6.22.27-.12h0s.48-.22.48-.22h0ZM107.05,198.36l.4,1.72-.04,1.78-.54,2.48-.07.16.5-2.31s0-.04,0-.06l.04-1.69s0-.04,0-.06l-.36-1.9.07-.13s0,0,0,.01ZM108.56,209.66l.34.95-.1,1.36-.05.08.06-1.06s0-.08-.02-.11l-.3-.88-.28.1.14-.26-.72-.39c-.06-.03-.13-.04-.2-.03l-1.09.2s-.03,0-.05.01l-.41.15.7-.32,1.2-.2.77.42ZM107.13,60.35l.2-.77s.01-.06,0-.09l-.02-.35.05.05.27.32.12.57-.07.38-.05.04-.51.04h-.05s.06-.18.06-.18c0,0,0,0,0-.01ZM104.04,61.71h.03s.05.04.08.04l.57.12s.04,0,.06,0h.65s0,0,0,0h.06s-.05.17-.05.17l-.22.65-.16.17-.27-.04-.42-.13-.33-.22v-.77ZM106.57,62.22s0,0,0-.01c0,0,0,0,0,0l.11-.38h.27s0-.01.01-.01l.24-.02-.4.56-.36.22.12-.35ZM104.08,78.78l.23-1.12,1.24-4.39,1.61-4.41.49-1.09.98.2v.35s-2.64,6.15-2.64,6.15c0,0,0,.02,0,.02l-1.9,5.8v-1.53ZM106.61,68.63s0,.01,0,.02l-1.61,4.43s0,.01,0,.02l-.89,3.15v-2.87s.03-.09.03-.09l1.67-4.58.54-1.21.72.15-.44.98ZM105.23,68.47s0,.01,0,.02l-1.13,3.1v-2.93s.35-.94.35-.94l.25-.57,1.03.21-.49,1.1ZM104.4,81.26l2.15-6.56,2.65-6.19s.02-.07.02-.11v-.3s5.52,1.15,5.52,1.15h0s2.12.44,2.12.44l-.09,4.6-2.65,6.17s0,.02,0,.02l-2.18,6.61s0,.02,0,.03l-1.59,6.82s0,.02,0,.03l-.69,5.82-6.77-5.06v-6.91s1.53-6.56,1.53-6.56ZM120.25,146.82c.07-.03.13-.08.16-.16l1.08-2.44,1.22-1.78,1.53-1.47,1.68-1.01,1.64-.45.63.05,3.21,2.44c.05.04.12.06.18.06.04,0,.08,0,.11-.02l1.63-.66.31.11-.08.21,1.07.4s.07.02.11.02c.02,0,.05,0,.07,0l.69-.17s.06-.02.09-.04l.48-.31c.07-.05.12-.12.13-.2l.03-.19s0-.04,0-.06l.07.03s.09.03.14.03.09-.01.13-.03c.03-.01.05-.04.08-.06h0s.43-.43.43-.43c.01-.01.03-.03.04-.05l.43-.65s.03-.06.04-.1l.03-.12s0,0,0-.01l.14-.77s0-.07,0-.11l-.07-.35,1.22.38c.07.02.14.02.21-.01l2.59-1.14s0,0,0,0l.79-.38.29.09.12.34-.18.61-.47.55-.83.33-2.59,1.11s-.08.05-.11.08l-1.4,1.64-1.16.51-1.3-.4c-.07-.02-.15-.02-.21.01l-3.22,1.48c-.06.03-.12.08-.15.15l-1.3,2.8-1.22,1.78-1.52,1.46-1.67,1.01-1.64.46-1.44-.12-1.12-.66-1.2-1.68s-.04-.05-.06-.06h0s-3.21-2.46-3.21-2.46v-.47s1.77,1.35,1.77,1.35c.05.04.12.06.18.06.04,0,.08,0,.11-.02l1.27-.52ZM136.64,140.3h0s-.07-.18-.07-.18l-.08-.19.3-.24s0,0,0,0l.28-.25-.04.24v.06s-.39.58-.39.58ZM135.48,140.79l.16.4-.31.2-.56.14-.24-.09.08-.02s.06-.03.09-.05l.62-.46s0,0,0,0l.15-.13v.02ZM134.64,140.23l-1.88.76,1.93-.81-.05.06ZM107.31,162.55l-.27.14.28-.15v.02ZM103.29,192.6s.02.02.04.03c.01,0,.03.02.04.02l-.08.03v-.09ZM108.17,134.09l-.05,15.13v11.27s-.76,1.05-.76,1.05v-7.14s.06-19.99.06-19.99l.75-.32ZM114.93,151.04s-.09.06-.12.1l-6.1,8.52v-10.43s.05-15.39.05-15.39l9.89-4.3-.09,16.93-3.1-2.38-.36.47,1.22.94v.65s-.28.36-.28.36l3.32,2.55-4.43,1.99ZM116.6,150.95l-1.37.63.02-.03,1.35-.61ZM103.19,102.9l-.33-.25v-7.17s6.42,4.79,6.42,4.79l-6.09,2.63ZM106.82,134.67l-.03,10.44-2.84,3.97.02-13.17,2.85-1.24ZM106.79,146.15l-.02,8.26v7.75s-3.7,1.99-3.7,1.99l-.29-.23.02-12.17,4-5.59ZM102.81,193.34c.05.04.12.06.19.06.03,0,.07,0,.1-.02l2.25-.8,1.18-.41.78-.02.6.25.4.49.19.73-.08.91-.35.99-.81,1.29s0,0,0,0l-.85,1.45c-.04.06-.05.14-.04.21l.38,1.98-.04,1.63-.5,2.3-1.06,2.39-1.2,2.38c-.03.05-.04.12-.03.18l.08.56-1.29-1.04.02-15.59.09.07ZM107.95,210.3l.24.71-.05.98-.64.96-1.05.91-1.41.81s0,0-.01,0l-2.09,1.34-.26-.21v-2.14s.31.24.31.24l.51.37s.05.03.07.04l.46.17s.07.02.1.02h.44s0,0,0,0c.08,0,.16-.03.22-.09l.07-.07.16.06s.06.02.1.02.06,0,.09-.02h0s.48-.16.48-.16c.03,0,.05-.02.07-.03l.74-.49s.06-.05.09-.09l.46-.72s.02-.03.03-.05l.21-.53c.04-.09.02-.2-.03-.28l-.05-.07.17-.16c.05-.05.08-.11.09-.18l.06-.51s0-.08,0-.12l-.18-.6s-.03-.07-.05-.1l-.19-.24.33-.06.53.29ZM111.38,228.56l-2.16-1.75,2.17-1v2.75ZM108.62,227.09l2.5,2.02-8.15,3.75-.31-.25v-3.07s.08.06.08.06c.05.04.12.07.19.07.04,0,.08,0,.12-.03l5.56-2.55ZM103.23,216.55l.14-.09.09.15h-.22s0-.07,0-.07ZM106.49,210.74l-.05-.5.08.07.26.33.14.49-.04.34-.08.07-.49.11h0s.02-.1.02-.1c0,0,0,0,0-.01l.16-.71s0-.06,0-.09ZM105.88,213.26s0,0,0-.01l.09-.35.27-.04s0,0,.01,0l.13-.03-.28.44-.29.19.06-.2ZM105.32,210.59l.02.24-.13.61-.1.39-.21.03-.65.08-.46-.06-.5-.27-.14.26-.29-.07-.16.61c-.03.1,0,.2.07.27.02.03.05.05.08.06h0s.55.3.55.3c.03.02.07.03.1.03l.55.08s.03,0,.04,0c.01,0,.02,0,.04,0l.63-.08s0,0,.01,0h.02s-.02.09-.02.09l-.18.59-.14.14h-.26s-.37-.14-.37-.14l-.47-.34-.46-.35-.21-.16v-2.55s.36-.45.36-.45l1.16.93c.05.04.12.07.19.07.03,0,.07,0,.1-.02l.83-.29ZM103.22,233.41l.14-.06.06.13h-.2s0-.07,0-.07ZM112.28,225.84h-.09s.09,0,.09,0h0ZM111.89,225.34h-.19s-.06-.13-.06-.13l.26-.12v.25ZM103.23,228.9v-.25s.2,0,.2,0l.06.13-.26.12ZM103.23,223.62h0s.21,0,.21,0h-.21ZM106.46,214.55l-1.33.77h0s.22-.14.22-.14l1.31-.75-.03.03-.17.1h0ZM104.98,210.08l-.34.12-.05-.32h.3s.09.2.09.2ZM104.59,209.87l-.07-.52.07-.13v.65ZM110.78,157.8l.2.14-.2-.14h0ZM134.45,143.05l-1.15.5,1.51-.7,1.3.4c.07.02.14.02.21-.01l1.27-.56-.04.05-1.6.71-1.3-.4c-.07-.02-.14-.02-.21.01ZM119.17,146.62v-.3s.18,0,.18,0l.1.18-.28.12ZM119.17,128.86s-.03-.03-.04-.04c0,0-.01,0-.02,0l.06-.03v.07ZM103.39,135.51v-.29s.21,0,.21,0l.07.16-.28.12ZM104.75,65.67l-.72-.58v-1.89s.04.03.04.03c.02.02.05.03.08.04l.49.14s.03,0,.04,0l.44.07s.03,0,.05,0c.08,0,.16-.03.22-.09h0s.26.06.26.06c.02,0,.05,0,.08,0,.02,0,.04,0,.06,0h0s.5-.11.5-.11c.03,0,.06-.02.09-.04l.8-.49s.06-.05.09-.08l.5-.7s.02-.04.03-.06l.24-.57c.04-.1.03-.22-.04-.31l-.07-.09.21-.15c.07-.05.11-.12.12-.2l.1-.56s0-.07,0-.11l-.12-.61h0s.24.75.24.75l.05,6.34-3.77-.82ZM106.16,59.18l.02.32-.19.72-.11.37h-.26s-.61.01-.61.01l-.5-.1-.46-.24v-.17s2.12-.92,2.12-.92ZM102.91,66.21l.59.44-.03,15.94-.59,2.57.03-18.94ZM102.81,136.13l.1.08c.09.07.2.08.3.04l.17-.07-.03,13.75-.57.79.02-14.58ZM110.21,245.34l-7.21,3.35v-.3s.11-7.38.11-7.38v7.09c-.01.1.04.2.13.25.05.03.1.05.16.05.04,0,.09,0,.13-.03l6.69-3.11v.07ZM115.78,34.93l-1.84-1.29h0s-1.51-1.06-1.51-1.06c0,0,0,0,0,0l-1.92-1.35v-.49s8.26,5.89,8.26,5.89l-.48.24s-.06.04-.08.06l-.51.53h0s0,0,0-.01l-.02-.55s-.01-.08-.03-.11l-.25-.53s-.03-.06-.06-.08l-.43-.44s-.03-.02-.04-.03l-1.09-.77h0ZM106.17,31.42l.3-.28.34-.32.86-.5,13.92-5.65.83-.2.56.08.11.07-12.99,5.28c-.11.05-.19.15-.19.28v.65s-.2-.14-.2-.14c-.01-.01-.03-.02-.05-.03l-.06-.03c-.07-.03-.16-.04-.24,0l-3.68,1.48.47-.68ZM183.05.89l1.22-.29,1.03.16,8.11,5.48s0,0,0,0l-1.3.31s-.03,0-.04.01l-14.6,5.97-10.02,4.1-8.16,3.34.11.28-.11-.28-39.37,16.11h0l-.56.23-8.52-6.08L183.05.89ZM123.76,24.34l-.5-.33s-.04-.02-.06-.03c-.02,0-.04-.01-.07-.02l-.68-.09s-.07,0-.11,0l-.78.18-.13.03s-.03,0-.04.01l-13.96,5.67h0s-.02.01-.04.02l-.37.21h0s-.55.31-.55.31c-.02.01-.04.03-.06.04l-.69.65s-.03.03-.04.05l-.5.74-.05.07h0s0,0,0,0c0,0,0,.01,0,.01,0,.01-.02.03-.02.04l-.21.51-1.34.54.54-1.35.94-1.37,1.18-1.11,1.31-.75,14.23-5.77,1.26-.3,1.08.15.84.56.4.68-1.58.64ZM123.1,21.72h-.06s-.07-.01-.11,0l-1.34.32s-.03,0-.04.01l-14.27,5.79s-.02.01-.04.02l-1.36.78s-.04.03-.06.04l-1.22,1.15s-.03.03-.04.05l-.97,1.42s-.02.04-.03.06l-.63,1.54s-.02.05-.02.07l-.04.26-1.91.77v-1.11s.21-1.46.21-1.46l.6-1.48.94-1.36,1.17-1.11,1.32-.76c.14-.08.19-.25.12-.39-.07-.14-.24-.21-.38-.15l-11.69,4.73c-.15.06-.22.22-.17.37.05.15.2.24.35.2l1.31-.31,1.11.15.91.59.49.35-.17-.02s-.07,0-.11,0l-1.36.33s-.03,0-.04.01L28.27,59.88l-.66.24-1.02-.77-.41-.44-.2-.5.02-.5.23-.46,8.79-10.78.7-.69,1.43-.7.2-.08h0s.41-.17.41-.17h0s36-14.49,36-14.49h0s22.88-9.21,22.88-9.21l14.85-5.98,1.26-.3,1.08.15.76.51h0s.13.09.13.09l8.38,5.91ZM62.83,199.05l-.31.1s-.09.04-.13.08l-.4.42s0,0,0,0l-.82.93-.5-1-.58-2.15-.22-2.4.12-1.93,1.3-.54-.11-.28.3.02.04-.69h0c0-.08-.02-.15-.07-.21l-.49-.56-.45.39.2.23-.5.17.1-.52h.02s.02-.19.02-.19l.23-1.16.9-2.75,1.23-2.72,1.57-2.7.05-.07.43.19.12-.27.25.17.46-.69h0c.07-.1.07-.23,0-.33l-.28-.42.8-1.11,2.08-2.35,2.24-2.08,2.44-1.84.42-.25.07.44c.02.1.08.18.16.22.04.02.09.03.13.03.05,0,.1-.01.14-.04l.67-.37c.1-.06.16-.17.15-.29v-.08s0,0,0,0l-.06-.66.81-.48,2.51-1.11,2.47-.71,1.97-.26-.15.35s-.03.09-.02.13l.02.34.6-.03v-.27s.18-.45.18-.45l.06-.12.38.02v-.3s0,.3,0,.3l.39.02-.69,1.44c-.04.08-.04.18,0,.26s.11.14.2.16l.56.13s.04,0,.07,0c0,0,.01,0,.02,0v.57s-.15-.05-.15-.05c0,0-.02,0-.03,0l-.28-.06h0s-.51-.12-.51-.12c0,0-.02,0-.03,0l-.82-.11s-.02,0-.03,0l-.86-.04s-.02,0-.03,0l-.88.04s-.02,0-.02,0l-.91.11s-.01,0-.02,0l-.92.18s-.01,0-.02,0l-.81.22h0s-.95.32-.95.32c0,0-.01,0-.02,0l-.96.39s-.01,0-.02,0l-.96.46s0,0-.01,0l-.95.53s0,0-.01,0l-.5.32s0,0,0,0l-.43.27s0,0-.01,0l-.93.65s0,0-.01,0l-.91.71s0,0-.01,0l-.89.76s0,0-.01,0l-.86.81s0,0,0,0l-.83.85s0,0,0,.01l-.79.89s0,0,0,.01l-.75.93s0,0,0,.01l-.71.96s0,0,0,.01l-.66.99s0,0,0,.01l-.61,1.01s0,0,0,.01l-.55,1.03s0,0,0,.01l-.5,1.04s0,0,0,.01l-.44,1.05s0,0,0,.01l-.38,1.05s0,.01,0,.02l-.32,1.05s0,.01,0,.02l-.25,1.04s0,.01,0,.02l-.19,1.03s0,.01,0,.02l-.12,1.01h.09s-.09,0-.09,0l-.04.84s0,.01,0,.02l.02.94s0,.01,0,.02l.08.91s0,.02,0,.02l.15.87s0,.02,0,.02l.21.83s0,.02,0,.03l.28.79s0,.02.01.03l.34.74s0,.02.01.03l.4.69s.01.02.02.03l.46.63s.01.02.02.02l.52.57h0s.36.32.36.32l.4-.45-.39-.35-.44-.48-.44-.6-.38-.65-.34-.73-.27-.76-.21-.81-.14-.85-.08-.84-.02-.97.04-.82.11-.97.18-1.01.25-1.02.31-1.03.37-1.04.43-1.03.49-1.03.55-1.02.6-1,.65-.98.7-.95.74-.92.78-.88.82-.84.85-.8.88-.75.9-.7.92-.64.42-.26s0,0,0,0l.5-.31.94-.52.94-.45.94-.39.9-.31.76-.2.95-.19.88-.11.86-.04.83.04.8.11.5.11.07-.29-.07.29.21.05.39.13.04,9-.62.22h0s-.19.07-.19.07l-.13.04-.71.07h-.03s-1.06-.46-1.06-.46l-4.73-3.73.39-.21,1.49,1.17s.06.04.09.05l1.07.34s.05.01.07.01l.39.02s.01,0,.02,0c.05,0,.1-.01.14-.04l.83-.46s.05-.03.07-.05l.59-.62.11-.07.37.05.21.12.3-.52-.26-.15s-.07-.03-.11-.04l-.52-.07-.03-.06-.4.23s-.05.03-.07.05l-.59.62-.71.39-.27-.02-.99-.32-1.21-.96.28-.1.55-.15.56-.08h.22s.49.09.49.09l.12-.59-.24-.05v-.07s-.62.01-.62.01c-.01,0-.03,0-.04,0l-.6.09s-.02,0-.04,0l-.58.16s-.01,0-.02,0l-.59.21s-.04.01-.05.02l-.18.11-.6.34s-.06.04-.09.07l-.18.23s-.05.07-.06.11l-.15.6-.32.38-.36.27-.36.07-.34-.15-.16-.07.29-.14.52-.05-.05-.6-.57.05s-.07.01-.1.03l-.51.25s-.02,0-.02.01l-.67.4s-.02.01-.02.02l-.63.46s-.02.01-.02.02l-.58.52s-.02.02-.02.02l-.53.58s0,0,0,.01l-1.02,1.23.05.04-.03.04.33.21.05.39-.21.41-.34.31-.43.05h-.03s-.18-.19-.18-.19l-.06.06-.05-.04-.54.64s-.01.01-.02.02l-.46.64s0,0,0,.01l-.42.65s0,.02-.01.02l-.35.68s0,.02-.01.03l-.28.72s0,.02,0,.03l-.21.74s0,0,0,.02l-.16.74h.06s-.05.57-.05.57l.6.05.06-.74s0,0,0-.01v-.15s.07-.31.07-.31l.13.15.27.32.03.35-.16.41-.32.45-.6.41.08.12-.16-.06-.32.83s-.01.04-.02.07l-.13.9s0,.03,0,.05v.58s0,.03.01.04l.08.58s0,.03,0,.04l.16.58.1-.03.1.19s.01.02.02.03l.4.6.5-.33-.39-.58-.3-.58v-.02s-.08-.54-.08-.54v-.54s.09-.68.09-.68l1.32,1.08.54.92.09.24-.21.8-.45.77.22.13-.26.05.15.74.09-.02.18.3.51-.31-.27-.46-.05-.23.41-.71s.02-.05.03-.07l.24-.93c.02-.06.01-.12-.01-.18l-.14-.36s-.01-.03-.02-.04l-.58-.99s-.04-.06-.07-.08l-1.55-1.26.07-.18.52-.35,4.49,3.65.72.96v.02s.13.67.13.67l.14.83.59-.1-.26-1.57s-.02-.08-.05-.12l-.05-.08s0,0,0,0l-.74-1s-.03-.04-.05-.05l-4.52-3.68.12-.17s.03-.04.03-.06l.2-.51s.02-.09.02-.13l-.04-.51h0c0-.05-.02-.1-.06-.15l-.54-.74s-.03-.04-.05-.05l-.14-.12.27-.69.34-.66.41-.63.44-.62.18-.21h.01s.24-.03.24-.03c0,0,.01,0,.02,0l.54-.07c.06,0,.12-.03.16-.07l.46-.4s.05-.06.07-.09l.27-.54c.03-.05.04-.12.03-.18l-.07-.53s0-.03,0-.05l-.06-.19v-.03s.6-.74.6-.74l.51-.56.56-.5.6-.44.19-.11.1.06s.02.01.03.02l.83.38s.08.03.12.03c.02,0,.04,0,.06,0l.52-.1s.09-.03.12-.05l.45-.33s.04-.03.05-.05l.38-.46s.05-.07.06-.12l.04-.15,4.61,3.64s.04.03.07.04l1.13.49s.06.02.08.02h.1s.02.01.04.01c0,0,.02,0,.03,0l.75-.07.39-.05h0l.46-.05-.02-.17.05-.02.03,6.7-.14.26-.49.83-.13.2h0s-.36.54-.36.54l-.53.72-.56.69-.59.67-.62.64-.64.6-.66.57-.68.53-.69.49-.7.44-.71.4-.71.35-.71.3-.71.25-.7.19-.68.14-.68.09-.66.03-.64-.02-.54-.02-.63-.08-.6-.13-.57-.18-.49-.2-.23.55.5.2s.01,0,.02,0l.6.19s.02,0,.03,0l.63.13s.02,0,.03,0l.65.08s.01,0,.02,0l.55.02.66.02s0,0,0,0c0,0,.01,0,.02,0l.68-.04s.02,0,.02,0l.7-.09s.01,0,.02,0l.71-.14s.01,0,.02,0l.72-.2s.01,0,.02,0l.73-.25s.01,0,.02,0l.73-.3s.01,0,.02,0l.73-.35s0,0,.01,0l.72-.4s0,0,.01,0l.71-.45s0,0,.01,0l.7-.49s0,0,.01,0l.69-.54s0,0,.01,0l.67-.58s0,0,0,0l.65-.61s0,0,0,0l.63-.65s0,0,0,0l.6-.68s0,0,0-.01l.57-.7s0,0,0-.01l.53-.73s0,0,0-.01l.36-.54-.25-.17.25.17.14-.2s0,0,0-.01l.13-.21.02,4.43-.62.7-.18.19.22.21-.22-.21-.66.68-.82.77-.96.83-.93.72-.95.67-.96.61-.97.54-.98.48-.98.41-.97.34-.96.27-.95.2-1.11.15-.91.05-.89-.03-.85-.1-.82-.17-.78-.25-.73-.32-.69-.39-.86-.61h0s-.4-.36-.4-.36c0,0,0,0-.01,0l-.59-.47-.37.47.35.28-1.57,1.78-.27-.34-.15-.3.92-1.04.41-.43.23-.07-.18-.57ZM60.05,192.31l.83-.29v.06s-.85.35-.85.35l.02-.12ZM64.83,180.79l.07.04-.14.22-.08-.04.16-.22ZM73.97,172.11l.02.26-.13.07-.04-.25.14-.09ZM62.3,202.32l-.04-.05.98-1.11-.94,1.16ZM64.33,200.75l.4.29.27.19s.02.01.02.02l.71.4s.02,0,.03.01l.76.33s.02,0,.03.01l.8.25s.02,0,.03,0l.84.18s.02,0,.03,0l.88.1s.02,0,.03,0l.91.03s0,0,0,0c0,0,.01,0,.02,0h.21s-.25,1.03-.25,1.03l-.09.28h-.06s-1.13.16-1.13.16l-1.1.06-1.07-.03-1.03-.12-.99-.21-.94-.3-.44-.19-.4-.31-.12-.15,1.65-2.05ZM83.63,195.67l.19-.2s0,0,0,0l.18-.21v.16s-.33.37-.33.37l-.68.7-.07-.1.03-.02s0,0,0,0l.66-.69h0ZM82.49,196.81l.33.47.24-.17-.24.17.39.54-.28.27-.63-1.1.19-.18ZM82.04,197.82l-.11-.21s0,0,0-.01l-.1-.18.03-.03.27.47-.08-.04ZM81.36,197.82l.04.08.04.08-.91.78-1.11.87-1.14.8-1.15.73-1.17.65-1.17.57-1.17.49-.88.31.18-.96.28-.06s.01,0,.02,0l.98-.27s.01,0,.02,0l.99-.35s.01,0,.02,0l.99-.42s.01,0,.02,0l.99-.48s0,0,.01,0l.99-.55s0,0,.01,0l.98-.61s0,0,.01,0l.96-.68s0,0,.01,0l.94-.73s0,0,.01,0l.21-.18ZM71.93,204.28l-.16.03.48-1.96h.04s-.35,1.92-.35,1.92ZM71.16,204.27l-.6-.29.07-.21s0-.01,0-.02l.3-1.23h.11s.02,0,.02,0l.54-.07-.45,1.82ZM66.35,204.65l.19.02s.02,0,.03,0l1.09.03s0,0,0,0c0,0,.01,0,.02,0l1.13-.06s.02,0,.02,0l1.15-.15s.01,0,.02,0l.15-.03.72.35-1.16.17-2.24-.06-1.14-.26ZM72.61,203.86h0s.01,0,.02,0l1.19-.41s.01,0,.02,0l1.19-.5s.01,0,.02,0l1.19-.58s0,0,.01,0l1.18-.66s0,0,.01,0l1.17-.74s0,0,.01,0l1.15-.81s0,0,.01,0l1.13-.88s0,0,.01,0l.95-.81.5.24h0s.29.14.29.14l-.77.72-1.16.88-1.21.92-2.46,1.47-2.49,1.12-2.07.62.12-.66ZM83.85,197.67l-.49-.69.03-.03-.18-.17h0s.18.17.18.17l.63-.65v1.21s-.17.16-.17.16ZM69.74,205.57s0,0,0,0c.01,0,.03,0,.04,0l2.42-.35s.03,0,.04,0l2.5-.75s.02,0,.04-.01l2.52-1.13s.02-.01.03-.02l2.49-1.49s.02-.01.03-.02l1.23-.93,1.17-.89s.02-.01.02-.02l1.75-1.63v.54s-1.36,1.27-1.36,1.27l-2.37,1.8-2.46,1.47-2.49,1.12-2.46.74-2.37.34-2.24-.06-.07-.02,1.53.04ZM80.16,109.44l-1.41.82-1.37.8-2.81,1.19-2.78.75-2.69.29-2.53-.17-2.33-.63-.94-.49-1.13-.58-1.77-1.49-1.43-1.88-1.06-2.24-.67-2.55-.25-2.81.18-3,.6-3.12.2-.62.82-2.55,1.08-2.41.33-.74,1.77-3.05,2.09-2.89,2.36-2.65,2.57-2.36,2.73-2.01,2.82-1.61,2.85-1.18.34-.09h0l1.37-.35h0s1.1-.28,1.1-.28l2.7-.25.44.04h.17s0,1.38,0,1.38l-1.21-.1s-.04,0-.05,0l-2.51.24s-.03,0-.05,0l-2.59.67s-.03,0-.04.01l-2.19.91s0,0,0,0l-.43.18s-.02.01-.03.02l-2.6,1.48s-.02.01-.03.02l-2.51,1.84s-.02.01-.02.02l-2.36,2.16s-.01.01-.02.02l-2.16,2.43s-.01.02-.02.02l-1.78,2.46s0,0,0,0h0s-.13.18-.13.18c0,0-.01.02-.02.03l-1.62,2.8s0,.02-.01.03l-1.29,2.89s0,.02-.01.03l-.93,2.92s0,.02,0,.03l-.56,2.88s0,.03,0,.04l-.16,2.77s0,.03,0,.04l.23,2.6s0,.03,0,.05l.62,2.37s.01.04.02.05l.99,2.09s.02.04.03.05l1.34,1.76s.03.03.05.05l1.66,1.4.11-.13h.02s-.08.17-.08.17l1.94,1s.04.02.06.02l2.17.59s.04,0,.06,0l2.36.16s.01,0,.02,0c.01,0,.02,0,.03,0l2.49-.27s.03,0,.05,0l2.57-.69s.03,0,.04-.01l2.6-1.1s.02-.01.03-.02l2.56-1.48s.02-.01.03-.02l2.47-1.83s.02-.01.02-.02l1.02-.94v1.12s-.78.73-.78.73l-2.68,1.99ZM83.5,76.15l-.44-.17s-.02,0-.03,0l-.81-.22s-.02,0-.03,0l-.85-.15s-.02,0-.03,0l-.88-.07s-.02,0-.03,0h-.91s-.02,0-.02,0l-.93.08s-.02,0-.02,0l-.95.15s-.01,0-.02,0l-.97.23s-.01,0-.02,0l-.85.27h0s-.99.38-.99.38c0,0-.01,0-.02,0l-.99.45s-.01,0-.02,0l-.98.52s0,0-.01,0l-.97.59s0,0-.01,0l-.96.65s0,0-.01,0l-.94.71s0,0-.01,0l-.91.77s0,0-.01,0l-.89.82s0,0-.01.01l-.85.87s0,0,0,.01l-.82.92s0,0,0,.01l-.77.96s0,0,0,.01l-.73.99s0,0,0,.01l-.68,1.02s0,0,0,.01l-.63,1.05s0,0,0,.01l-.57,1.07s0,0,0,.01l-.51,1.09s0,0,0,.01l-.45,1.1s0,0,0,.01l-.39,1.1s0,.01,0,.02l-.07.24s0,0,0,.01l-.25.85s0,.01,0,.02l-.26,1.09s0,.01,0,.02l-.19,1.08s0,.01,0,.02l-.12,1.06h0s-.05.91-.05.91c0,0,0,.01,0,.02l.02,1s0,.01,0,.02l.08.97s0,.01,0,.02l.15.93s0,.02,0,.02l.22.89s0,.02,0,.02l.29.85s0,.02,0,.03l.35.8s0,.02.01.02l.41.74s0,.02.02.02l.47.69s.01.02.02.02l.53.63s.01.02.02.02l.59.56.41-.43-.58-.55-.51-.6-.46-.66-.4-.72-.34-.77-.28-.82-.21-.87-.15-.91-.08-.95-.02-.98.05-.9.12-1.01.19-1.06.24-1.02.26-.9s0,0,0-.01l.07-.23.36-1.01.47-1.16.51-1.07.56-1.06.62-1.04.67-1.01.72-.98.76-.95.81-.91.81-.83.91-.85.9-.76.93-.7.78-.53,1.13-.69.97-.51.97-.44.89-.34.9-.28.9-.21.98-.16.91-.08h.88s.84.07.84.07l.84.15.79.22.64.24.02,4.1-.16.12.16.23.05,12.3-.03.06-.43.8-.47.78-.51.76-.54.74-.58.71-.61.68-.63.65-.66.61-.68.57-.7.53-.71.49-.72.44-.73.39-.73.34-.73.29-.73.23-.72.18-.71.12-.69.07h-.68s-.54,0-.54,0l-.68-.05-.65-.1-.61-.16-1.12-.41-.21.56,1.13.42s.02,0,.03,0l.65.17s.02,0,.03,0l.68.11s.02,0,.03,0l.7.05s.01,0,.02,0h.55s.7-.01.7-.01c0,0,.02,0,.02,0l.72-.07s.02,0,.02,0l.73-.13s.01,0,.02,0l.74-.18s.01,0,.02,0l.75-.24s.01,0,.02,0l.75-.29s.01,0,.02,0l.75-.35s.01,0,.02,0l.74-.4s0,0,.01,0l.74-.45s0,0,.01,0l.72-.5s0,0,.01,0l.71-.54s0,0,.01,0l.69-.58s0,0,.01,0l.67-.62s0,0,.01-.01l.64-.66s0,0,0-.01l.62-.69s0,0,0-.01l.58-.72s0,0,0-.01l.55-.75s0,0,0-.01l.51-.77s0,0,0-.01l.42-.7.02,4.89-.08.1-.83.94-.87.89-.86.8-.98.83-.96.73-.98.67-.99.6-1,.54-1.01.47-1.01.4-1,.32-1,.25-.16.03-.98.17-.98.09h-.94s-.91-.05-.91-.05l-.88-.14-.84-.22-.8-.29-.76-.37-.71-.44-.27-.18-.36-.26-.35.49.37.26s0,0,.01,0l.28.18.73.45h0s.02.01.03.02l.78.38s.02,0,.03.01l.83.3s.02,0,.03,0l.87.22s.02,0,.03,0l.91.14s.02,0,.03,0l.94.06s.01,0,.02,0c0,0,0,0,0,0h.27s-.3,1.25-.3,1.25l-.1.32h-.05s-1.17.12-1.17.12l-1.14.02-1.1-.07-1.06-.17-1.02-.26-.6-.22-.92-.77-.33-.43,1.75-2.17-.23-.19.21-.22-.42-.39s-.01-.01-.02-.02l-.61-.47-.37.47.36.28-1.47,1.65-.17-.22-.22-.47.74-.83.42-.44.24-.08-.19-.57-.32.1s-.09.04-.12.08l-.41.43s0,0,0,0l-.64.72-.46-.98-.6-2.32-.23-2.55.13-2.15,1.05-.41-.11-.28.3.02.04-.73h0c0-.08-.02-.15-.07-.21l-.5-.56-.43.39.31-1.63.92-2.89,1.28-2.87,1.59-2.74.24.12s.09.03.13.03c.1,0,.19-.05.25-.13l.47-.71s0,0,0,0h0s0,0,0,0c.07-.1.07-.23,0-.33l-.17-.25.99-1.38,2.14-2.41,2.34-2.14,2.48-1.82.18-.11.06.36c.02.1.08.18.16.22.04.02.09.03.13.03.05,0,.1-.01.14-.03l.69-.36c.11-.06.17-.17.16-.29l-.05-.66,1.1-.63.42-.17s0,0,0,0l2.16-.9,2.55-.66,1.82-.17-.21.49s-.03.09-.02.13l.02.34.6-.03v-.27s.19-.47.19-.47l.12-.25.78.07-.74,1.56c-.04.08-.04.17,0,.25.04.08.11.14.19.16l.57.16s.05.01.08.01c.11,0,.21-.06.26-.16l.04-.08v.97ZM68.87,110.3s.02,0,.02,0l.2-.04.91.4-1.1.12-2.3-.16-.91-.25.78.05s.01,0,.02,0c0,0,0,0,0,0l1.16-.02s.02,0,.02,0l1.19-.12ZM69.53,109.54s0-.01,0-.02l.34-1.41h.08s.02,0,.02,0l.59-.06-.48,2-.63-.28.07-.23ZM83.62,103.45l-.47.43c.08-.1.08-.24.01-.35l-.48-.71.75-.77s0,0,0-.01l.17-.2v1.6ZM71.44,110.38l.12-.65h.04s1.22-.4,1.22-.4c0,0,.01,0,.02,0l1.23-.48s.01,0,.02,0l1.22-.57s.01,0,.02,0l1.22-.65s0,0,.01,0l1.2-.73s0,0,.01,0l1.18-.81s0,0,.01,0l1.16-.89s0,0,.01,0l.99-.83.9.4c.08.04.18.03.25,0l-.86.79-2.44,1.81-2.53,1.46-2.56,1.09-2.51.68s.06-.09.07-.14ZM83.61,100.95l-.61.69-.66.68-.15-.22.05-.04s0,0,.01-.01l.88-.9s0,0,0-.01l.47-.54v.36ZM81.74,102.5l.78,1.15-.3.28-.68-1.24.2-.19ZM81.08,103.1l.38.69-.17-.07-.11-.23s0,0,0-.01l-.17-.31.08-.07ZM80.37,103.7l.17-.14.11.19.05.11-.94.8-1.15.88-1.17.8-1.19.73-1.2.65-1.21.56-1.21.48-.95.31.21-1.16v-.04s.11-.02.11-.02c0,0,0,0,.01,0l.17-.04s0,0,.01,0l1.01-.25s.01,0,.02,0l1.02-.33s.01,0,.02,0l1.02-.4s.01,0,.02,0l1.02-.47s.01,0,.02,0l1.02-.55s0,0,.01,0l1-.61s0,0,.01,0l.99-.68s0,0,.01,0l.97-.74s0,0,.01,0ZM70.89,110.06l-.19.03.37-1.54.14-.58h.06s-.38,2.09-.38,2.09ZM71.44,111.11s.03,0,.05,0l2.57-.69s.03,0,.04-.01l2.6-1.1s.02-.01.03-.02l2.56-1.48s.02-.01.03-.02l2.47-1.83s.02-.01.02-.02l1.82-1.67v.54s-1.41,1.3-1.41,1.3l-2.44,1.81-2.53,1.47-2.56,1.09-2.53.68-2.45.27-.57-.04,2.3-.25ZM62.44,105.77l-1.33,1.65-.06-.08,1.4-1.57ZM59.1,95.8l.18.21-.24.08.05-.28ZM58.92,96.75l.58-.18v.1s-.61.23-.61.23l.03-.16ZM72.99,76.11l.02.18-.14.08-.03-.17.16-.09ZM83.04,74.76h0s.45-.95.45-.95v.11s-.45.84-.45.84ZM83.78,41.25l-.1.25s0,.02-.01.03l-.21.78s0,.02,0,.03l-.09.55s0,.03,0,.05l.12,27.78-.59-.05s-.04,0-.05,0l-1.83.17-.92.09s-.03,0-.05,0l-2.49.64.07.29-.07-.29-.36.09s-.03,0-.04.01l-2.88,1.19s-.02.01-.03.02l-1.23.7-1.63.93s-.02.01-.03.02l-2.76,2.03s-.02.01-.02.02l-2.6,2.38s-.01.01-.02.02l-1.25,1.41-1.13,1.27s-.01.02-.02.02l-2.1,2.91s-.01.02-.02.03l-1.78,3.08s0,.02-.01.03l-1.42,3.18s0,.01,0,.02,0,.01,0,.02l-1.03,3.21s0,.02,0,.03l-.51,2.65-.1.51s0,.03,0,.04l-.18,3.04s0,.03,0,.04l.25,2.86s0,.03,0,.05l.68,2.6s.01.04.02.05l1.09,2.3s.02.04.03.05l1.47,1.94s.03.03.05.05l1.82,1.53s0,0,.01,0c.01.01.03.02.04.03h0s0,0,0,0l2.13,1.1s.04.02.06.02l2.39.64s.04,0,.06,0l2.59.17s.01,0,.02,0h0s.02,0,.03,0l2.74-.3s.03,0,.05,0l2.44-.66h0s.39-.11.39-.11c.01,0,.03,0,.04-.01l2.85-1.21s.02-.01.03-.02l2.81-1.63s.02-.01.03-.02l1.07-.79h0l1.64-1.22s.02-.01.02-.02l.4-.37.25,59.23-.57-.03s-.03,0-.05,0l-2.67.35s-.03,0-.04,0l-2.77.8s-.03,0-.04.01l-2.68,1.18s0,0,0,0l-.11.05s-.02.01-.03.02l-.35.21h0s-1.49.88-1.49.88l.15.26.16.25,1.77-1.05.06-.03.03-.02.05-.02s0,0,0,0l2.67-1.17,2.72-.79,2.62-.34h.03s0,0,0,0h0s.54.02.54.02v1.26s-.51-.02-.51-.02h0l-.67-.03s-.03,0-.05,0l-2.43.32s-.03,0-.04,0l-2.52.73s-.03,0-.04.01l-2.55,1.12s-.02.01-.03.02l-2.52,1.49s-.02.01-.03.02l-2.43,1.83s-.02.01-.02.02l-2.29,2.13s-.01.01-.02.02l-2.1,2.37s-.01.01-.02.02l-1.86,2.57s-.01.02-.02.02l-1.57,2.7s0,.02-.01.03l-1.26,2.77s0,.02-.01.03l-.91,2.78s0,.02,0,.03l-.54,2.73s0,.03,0,.04l-.16,2.62s0,.03,0,.05l.22,2.44s0,.03,0,.05l.6,2.21s.01.04.02.05l.96,1.93s.02.04.03.05l1.3,1.61h0s.05.03.05.03v.02s1.6,1.26,1.6,1.26c.02.01.04.03.06.04l1.88.88s.04.02.06.02l2.11.47s.04,0,.06,0l2.29.06s0,0,0,0c.01,0,.03,0,.04,0l2.42-.35s.03,0,.04,0l2.5-.75s.03,0,.04-.01l2.52-1.13s.02-.01.03-.02l2.49-1.49s.02-.01.03-.02l2.4-1.82s.02-.01.02-.02l.97-.91v1s-.76.71-.76.71l-2.61,1.98-1.25.75h0s-1.22.73-1.22.73l-.24.14-2.73,1.23-1.66.5.09.29-.09-.29-1.04.31-2.61.38-2.03-.06h0s-.43-.01-.43-.01l-2.26-.51-2-.93-1.71-1.34-1.39-1.72-1.03-2.07-.64-2.38-.24-2.63.17-2.83.58-2.96.99-3.03,1.37-3.02,1.71-2.94,2.02-2.8,2.29-2.59,1.4-1.3-.41-.44-1.41,1.31s-.01.01-.02.02l-2.31,2.61s-.01.01-.02.02l-2.04,2.82s-.01.02-.02.02l-1.73,2.97s0,.02-.01.03l-1.38,3.05s0,.02-.01.03l-1,3.06s0,.02,0,.03l-.59,3s0,.03,0,.04l-.17,2.87s0,.03,0,.05l.25,2.68s0,.03,0,.05l.66,2.43s.01.04.02.05l1.06,2.12s.02.04.03.05l1.43,1.77s.03.03.05.05l1.77,1.38s.04.03.06.04l2.06.96s.04.02.06.02l2.32.52s.04,0,.06,0h.46s2.06.07,2.06.07c0,0,0,0,0,0,.01,0,.03,0,.04,0l2.66-.38s.03,0,.04,0l1.06-.32h0s.79-.24.79-.24h0s.89-.27.89-.27c.01,0,.02,0,.04-.01l1.02-.46h0s1.74-.79,1.74-.79c.01,0,.02-.01.03-.02l2.73-1.64s.02-.01.03-.02l2.63-2s.02-.01.02-.02l.37-.35.12,28.26-51.81,23.71h0s-2.02.92-2.02.92c0,0,0,0,0,0l-5.62,2.58-.33-14.02,8.8-3.99c.03.13.15.23.29.23,0,0,0,0,0,0,.17,0,.3-.14.29-.31l-.11-5.21c0-.16-.14-.29-.3-.29,0,0,0,0,0,0-.13,0-.23.09-.27.2-.08-.03-.17-.04-.24,0l-8.59,3.89-.12-4.84h0l-.16-6.59h0s0,0,0,0l1.57-.87h.01s.14-.08.14-.08l1.16-.66.09-.05h0s.32-.18.32-.18c.02,0,.03-.02.05-.03l.68-.59.68-.58h0s0,0,0,0c.02-.02.04-.04.06-.07l.94-1.48s.04-.09.05-.15l.08-1.5-.3-.02.28-.11-.44-1.12-.28.11.14-.27-1.02-.52c-.06-.03-.12-.04-.19-.03l-1.39.23s-.05.01-.07.02l-1.24.55v-.17s1.08-2.13,1.08-2.13c0,0,0-.01,0-.02l1.11-2.58s.01-.04.02-.06l.51-2.54s0-.04,0-.06v-1.85s0-.05-.01-.08l-.43-1.63.63-.99.89-1.44-.25-.16.28.1.45-1.31-.28-.1.3.02.08-1.23s0-.07-.01-.1l-.3-1.04-.29.08.22-.2-.65-.74-.22.2.11-.28-.94-.37s-.08-.02-.12-.02l-1.13.03s-.06,0-.09.02l-1.4.47s-.02,0-.03.01l-1.43.63-.33-13.79h0l-.32-13.26,2.04-1h0s1.85-.91,1.85-.91c.04-.02.08-.05.11-.09l1.41-1.97,6.38-8.94,4.07-1.85.97,1.42s.06.07.1.09l1.47.81s.08.03.12.04l.26.02,1.57.12s.01,0,.02,0c.03,0,.05,0,.08-.01l.5-.14,1.51-.42h0s.05-.02.07-.03l2-1.19-.15-.26.21.22,1.79-1.7-.21-.22.25.17,1.41-2.06s.02-.03.03-.05l1.04-2.44,2.03-.88h0s.47-.2.47-.2l1.37.4s.03,0,.05,0c0,0,.01,0,.02,0,0,0,.01,0,.02,0,0,0,0,0,0,0,.01,0,.03,0,.04,0,0,0,.01,0,.02,0,.02,0,.04,0,.05-.02l1.81-.78s.08-.05.11-.08l1.4-1.64,2.32-.94.21-.09h0s.99-.43.99-.43c.04-.02.08-.05.11-.08l.92-1.08-.23-.19.29.08.34-1.25c.02-.06.01-.13,0-.19l-.37-.95-.28.11.09-.29-.93-.28c-.07-.02-.14-.02-.2.01h0s0,0,0,0l-.75.32-.4.17h0s0,0,0,0l-2.34,1.04-1.37-.41c-.07-.02-.14-.02-.2.01l-.43.19h0l-1.37.59s-.08.05-.11.08l-1.4,1.65-2.43,1.01-1.01-1.4s-.06-.06-.1-.09l-1.46-.82s-.08-.03-.12-.04l-1.83-.15s-.07,0-.1,0l-.11.03h0s-1.91.52-1.91.52c-.03,0-.05.02-.07.03l-2.01,1.19s0,0,0,0h0s-.01,0-.02.01c-.01,0-.02.02-.04.03l-1.8,1.71s-.03.03-.04.05l-1.42,2.07s-.02.04-.03.06l-.45,1.13-.28.69-.07-3.64h0l-.26-13.68c0-.1-.05-.19-.14-.25-.08-.05-.19-.06-.28-.02l-12.23,5.23.12.28-.12-.28-3.68,1.57-.74-31.12,6.68-2.8c.1-.04.17-.13.18-.24l.86-6.86,1.45-6.73,2.05-6.51,1.37-3.29,1.23-2.95-.28-.12.28.11.06-.15-.28-.11h.3s-.11-5.46-.11-5.46c0-.14-.1-.26-.24-.29l-1.36-.28h0s-7.8-1.6-7.8-1.6l-.21-6.53s0-.06-.02-.09l-.31-.87s-.04-.09-.08-.12l-.55-.5s-.09-.06-.14-.07l-.57-.12s-.05,0-.08,0l-.64.03s-.05,0-.07.01l-.66.19s-.02,0-.03.01l-2.1.9-.06-2.34.36-.15,6.57-2.71,1.45-.59h0s0,0,0,0l1.61-.65h0l3.05-1.24,36.67-14.89s0,0,0,0l13.05-5.3-.11-.28.11.28,1.83-.74s0,0,0,0l10.92-4.43.84-.2.57.07.44.28.02.03-3.48,1.4-9.25,3.78-.27.1s0,0,0,0h-.02s-.03.02-.04.03l-.27.15s-.04.02-.05.04l-.28.25s-.06.07-.08.11ZM25.4,59.14v.13s-.03-.08-.03-.08l.03-.06ZM26.02,60.02v-.42s.15.17.15.17c.01.01.03.02.04.04l1.05.8v.56s-.36-.28-.36-.28l-.04-.1s-.04-.08-.08-.11l-.76-.66ZM34.47,77.83l.1,5.15-.04.09h0s-1.23,2.95-1.23,2.95l-1.37,3.3s0,.02,0,.02l-2.06,6.53s0,.02,0,.03l-1.46,6.76s0,.02,0,.03l-.55,4.43.41-4.19,1.47-6.82,2.08-6.61,2.61-6.24s.02-.08.02-.12l-.02-4.92c0-.14-.1-.26-.24-.29l-.69-.14-.06.29.06-.29-12.84-2.53-1-.81-.24-8.2-.02-.97,7.8-3.17v.18s-7.44,3.02-7.44,3.02c-.12.05-.19.16-.19.28v.11s.07,2.99.07,2.99h0s.13,5.35.13,5.35c0,.09.05.18.12.23l.94.72s.08.05.12.06l4.39.9s0,0,0,0l8.03,1.64.06-.29-.06.29,1.12.23ZM21.72,144.25l.07.17-.3.13v-.29s.22,0,.22,0ZM45.01,148.2l1.87-.51-.08-.29.08.29.06-.02,1.62.13h.09s1.34.77,1.34.77l1.11,1.53.24-.18h0s.11.27.11.27l-.39.15-1.22-1.51-.23.19.15-.26-1.3-.74s-.08-.03-.12-.04l-1.62-.13s-.07,0-.1,0l-1.79.49s-.05.02-.07.03l-1.78,1.05s-.04.02-.05.04l.15-.14,1-.59.94-.56ZM57.07,146.75l.27-.12,1.37.41s.06.01.09.01c.04,0,.08,0,.12-.03l1.18-.53h0s1.21-.54,1.21-.54l1.1-.47.69.21.28.72-.3,1.09-.02.03.2-.74c.02-.06.01-.13,0-.19l-.22-.58-.28.11.09-.29-.57-.17c-.07-.02-.15-.02-.21.02l-.91.43-2.56,1.11-1.38-.41c-.07-.02-.14-.02-.2.01l-1.35.59.06-.07,1.37-.59ZM53.99,151.98l-.57.25h0s-1.16.5-1.16.5l2.09-.94,1.37.4c.07.02.14.02.2-.01l1.35-.58-.06.07-1.64.71-1.37-.4c-.07-.02-.14-.02-.2.01ZM44.99,160.65l-1.02.28-.9.25-1.28-.09-.43-.03-1.35-.75-1.07-1.57c-.06-.09-.15-.13-.25-.13l.27-.12,1.18,1.55.24-.18-.15.26,1.3.72s.08.03.12.04l1.62.12s.01,0,.02,0c.03,0,.05,0,.08-.01l1.79-.49s.05-.02.07-.03l1.78-1.05s0,0,.01,0l-.11.11-1.94,1.15ZM28.21,200.87l.56.64.27.92-.07,1.14-.42,1.23-.06.1.35-1.03s.01-.05.02-.08l.06-1s0-.07-.01-.1l-.24-.84s-.03-.08-.06-.11l-.53-.6-.22.2.11-.28-.76-.3s-.08-.02-.12-.02l-.93.03s-.06,0-.09.02l-1.26.43-.74.26.97-.43,1.35-.45,1.02-.03.81.32ZM26.93,207.55l.46,1.72v1.78s-.49,2.48-.49,2.48l-1.09,2.53-.15.3.06-.13s0,0,0-.01l1.05-2.44s.01-.04.02-.06l.47-2.36s0-.04,0-.06v-1.7s0-.04,0-.07l-.43-1.9.09-.16s0,.04,0,.05ZM24.68,219.11h.3s.09.2.09.2l-.35.12-.15-.87.09-.18s0,.02,0,.04l.03.69ZM28.8,218.87l.37.95-.07,1.35-.08.12.03-1.11s0-.08-.02-.11l-.33-.88-.28.11.14-.27-.76-.39c-.06-.03-.13-.04-.19-.03l-1.12.2s-.03,0-.05.01l-.54.19.81-.36,1.26-.21.83.43ZM23.84,242.69l.16-.07.06.14h-.22s0-.07,0-.07ZM22.69,218.71l.05.04-.05.07v-.11ZM22.72,219.77l.49-.63,1.09.92c.05.05.12.07.19.07.03,0,.07,0,.1-.02l.89-.31.03.26-.13.62-.09.39-.28.04-.61.07-.47-.06-.5-.27-.14.26-.29-.07-.15.61c-.02.1,0,.2.07.27.02.02.05.04.08.06h0s.54.3.54.3c.03.02.07.03.1.03l.56.08s.03,0,.04,0c.01,0,.02,0,.04,0l.65-.08s0,0,.01,0h.04s-.02.09-.02.09l-.17.59-.13.14h-.27s-.36-.14-.36-.14l-.5-.34-.45-.36-.32-.27-.05-2.25ZM26.1,222.47s0,0,0-.01l.08-.34.29-.05s0,0,.01,0l.18-.04-.29.45-.34.22.07-.23ZM26.75,219.5l.25.34.16.5-.03.33-.09.08-.52.11h-.03s.03-.1.03-.1c0,0,0,0,0-.01l.15-.71s0-.06,0-.09l-.06-.55h0s.01,0,.01,0l.12.11ZM22.79,222.82l.39.31s.01,0,.02.01l.54.37s.04.02.06.03l.44.17s.07.02.11.02h.45s0,0,0,0c.08,0,.16-.04.22-.1l.07-.07.17.06s.07.02.1.02c.03,0,.06,0,.09-.02h0s.49-.16.49-.16c.03,0,.05-.02.07-.04l.74-.49s.06-.05.08-.08l.48-.72s.02-.04.03-.06l.2-.53c.03-.09.02-.19-.03-.27l-.06-.09.16-.14c.06-.05.09-.12.1-.19l.05-.51s0-.08-.01-.12l-.2-.6s-.02-.06-.04-.08l-.19-.26.29-.05h0s.57.29.57.29l.27.72-.03.97-.63.96-1.07.91-1.44.81s0,0-.01,0l-2.14,1.36-.29-.25-.05-2.19ZM23.74,238.19v-.26s.21,0,.21,0l.06.14-.27.12ZM32.16,235.03l.06,2.73-2.13-1.8,2.07-.94ZM32.45,234.57l-.06-.14.27-.12v.26s-.21,0-.21,0ZM23.42,225.86v-.07s.15-.1.15-.1l.09.16h-.24ZM25.39,224.55l-.21.11.41-.26,1.42-.8-.08.07-.45.26-1.08.62ZM21.31,161.71l4.48-6.27.18,8.05.13,7.43-.13.18-4.06,2.15-.33-.27-.27-11.27ZM20.32,75.79s.08.05.12.06l.38.07.34,14.61-.62,2.91-.43-17.8.2.15ZM25.97,76.93v.13s-2.57,6.17-2.57,6.17c0,0,0,.02,0,.03l-1.15,3.66.1-.56,1.18-4.41,1.56-4.42.31-.71.58.11ZM24.52,77.3s0,.01,0,.02l-1.56,4.45s0,.01,0,.02l-1.19,4.43s0,.02,0,.02l-.08.41-.07-3.09.42-1.59,1.62-4.6.36-.83.78.15-.26.6ZM23.09,77.15s0,.01,0,.02l-1.53,4.35-.06-2.7.86-2.44.06-.15.99.2-.31.72ZM21.8,76.15s0,.01,0,.02l-.34.96-.03-1.09.39.08-.02.04ZM20.43,96.84l1.45-6.8,2.06-6.59,2.59-6.22s.02-.08.02-.12v-.07s6.8,1.34,6.8,1.34h0l.45.09.02,4.62-2.59,6.19s0,.02,0,.03l-2.09,6.63s0,.02,0,.03l-1.48,6.85s0,.02,0,.03l-.57,5.81-7.19-5.63v-.44s.54-5.75.54-5.75ZM41.32,151.01s0,0,0,0h0s0,0,0,0ZM39.99,152.94s0,0,0,0l-.35.79.29-.71.06-.09ZM39.3,155.81c.07-.03.13-.09.16-.16l1.06-2.45,1.22-1.79,1.55-1.47,1.72-1.02,1.7-.46,1.04.08,3.02,2.4c.05.04.12.06.19.06.04,0,.07,0,.11-.02l1.79-.71s.02,0,.03.01h0s.35.13.35.13l-.08.21,1.09.41s.07.02.1.02c.02,0,.05,0,.07,0l.72-.18s.06-.02.09-.04l.49-.31c.08-.05.13-.14.14-.23v-.19s.01-.04,0-.06l.09.05s.09.04.14.04.1-.01.14-.04c.03-.01.05-.03.07-.05h0s.43-.43.43-.43c.02-.02.03-.03.04-.05l.41-.65s.02-.04.03-.07l.04-.12s0-.03.01-.05l.12-.78s0-.08,0-.12l-.07-.29,1.15.34c.07.02.14.02.2-.01l2.67-1.15s0,0,0,0l.81-.38.32.1.13.35-.17.6-.47.55-.85.33-2.67,1.12s-.08.05-.11.08l-1.41,1.65-1.2.52-1.37-.4c-.07-.02-.14-.02-.21.01l-3.31,1.5c-.07.03-.12.08-.15.15l-1.28,2.81-1.23,1.79-1.54,1.47-1.71,1.02-1.7.47-1.51-.11-1.19-.66-1.29-1.69s-.03-.04-.05-.05h0s-3.08-2.47-3.08-2.47v-.35s1.52,1.23,1.52,1.23c.05.04.12.07.19.07.04,0,.08,0,.11-.02l1.31-.53ZM56.32,149.21l-.03.03-.09-.22-.08-.19.3-.24s0,0,0,0l.34-.3-.04.27-.02.06-.37.59ZM55.27,150.1l-.3.19-.58.14-.26-.1.06-.02s.06-.03.09-.05l.63-.47s0,0,0,0l.17-.14.2.44ZM51.62,150.13l2.55-1.06-.06.07-2.49.99ZM26.28,171.64l-.65.32.68-.36-.03.04ZM23.35,157.83l-.31-13.29,2.48-1.06.25,10.97-2.42,3.39ZM26.57,163.48l-.46-20.25.67-.29.46,20.74.02,5.63-.57.8-.12-6.63ZM33.91,160.06s-.09.06-.12.1l-5.93,8.3-.02-4.8-.46-20.98,9.85-4.21.34,16.96-2.82-2.26-.37.47,1.18.95v.64s-.22.29-.22.29l3.15,2.53-4.58,2.02ZM37.74,137.82s-.04-.04-.06-.05c0,0-.01,0-.02-.01l.08-.03v.1ZM22.45,144.79l.33,13.85-.64.9-.35-14.47.66-.28ZM22.87,201.87v-.11s.03.03.05.05c.02.01.03.02.05.03l-.1.04ZM34.23,160.58l2.27-1-2.3,1.05h0s0,0,0,0l.03-.04ZM50.23,155.4l-.18.43-.04.06.22-.49ZM58.73,149.93l.06-.07,2.49-1.05,1.01-.4-.06.07-.93.4-2.58,1.05ZM38.17,155.62v-.31s.19,0,.19,0l.1.19-.29.12ZM23.61,67.85l.12.11.26.32.14.58-.06.37-.07.04-.54.05h-.08s.05-.19.05-.19c0,0,0,0,0-.01l.19-.77s0-.06,0-.09l-.03-.42ZM20.26,70.49l.06.03s.05.02.08.03l.58.12s.04,0,.06,0h.67s0,0,0,0h.09s-.05.18-.05.18l-.21.66-.15.17-.28-.04-.4-.13-.43-.31-.02-.71ZM22.91,71s0,0,0-.01l.11-.38h.28s0-.01.01-.01l.29-.03-.41.56-.41.25.13-.39ZM21.11,74.49l-.77-.59-.05-1.96.11.08s.05.03.08.04l.47.15s.03,0,.05.01l.46.07s.03,0,.04,0c.08,0,.16-.04.22-.1h.01s.27.06.27.06c.03,0,.05.01.08.01.02,0,.04,0,.06,0h0s.51-.11.51-.11c.03,0,.06-.02.09-.04l.8-.49s.06-.05.08-.08l.52-.7s.03-.04.04-.06l.24-.57c.04-.1.03-.21-.04-.29l-.08-.11.2-.13c.07-.05.12-.12.13-.21l.08-.56s0-.08,0-.11l-.14-.59.27.76.21,6.34-3.95-.81ZM22.44,67.95l.02.34-.18.72-.11.37h-.28s-.64.02-.64.02l-.51-.1-.53-.28v-.13s2.21-.95,2.21-.95ZM19.51,75.17l.5,20.79-.16.77s0,.02,0,.03l-.08.81-.55-22.64.3.23ZM26.75,109.16l-6.29,2.67-.36-.29-.19-7.73,6.84,5.35ZM20.12,112.32l.27,11.14-.27-11.14h0ZM21.02,145.23s.11.06.17.06l.36,15.06-.26.36-.38-15.57.1.08ZM22.39,202.52c.05.05.12.07.19.07.03,0,.07,0,.1-.02l1.15-.4,2.38-.82.82-.02.64.25.44.5.21.73-.06.91-.34.99-.81,1.29s0,0,0,0l-.84,1.46c-.04.06-.05.14-.03.22l.44,1.99v1.63s-.46,2.3-.46,2.3l-1.04,2.4-1.19,2.39c-.03.06-.04.12-.03.18l.09.5-1.38-1.16-.37-15.47.09.07ZM23.26,238.87c.06.05.12.07.19.07.04,0,.08,0,.12-.03l5.92-2.68,2.49,2.1-8.39,3.8-.34-.29-.07-3.05.08.07ZM31.43,254.63l-7.43,3.4v-.32s-.1-9.08-.1-9.08l.21,8.81c0,.1.06.19.14.25.05.03.1.05.16.05.04,0,.09,0,.12-.03l6.04-2.77s0,0,0,0l.85-.39v.08ZM98.08,35.16l-.11-.17h0s0,0,0,0c-.02-.04-.06-.07-.09-.1h0s0,0,0,0l-.55-.36s-.03-.02-.05-.02c0,0,0,0-.01,0-.02,0-.04-.01-.06-.02l-.69-.09s-.07,0-.11,0l-.82.2h0s-.1.02-.1.02c-.01,0-.03,0-.04.01l-10.93,4.44s0,0,0,0l-1.83.74h0l-13.05,5.3s0,0,0,0l-36.66,14.89-3.05,1.24h0l-1.6.65-.42.15-.03-1.38.62-.22s0,0,.01,0l67.31-27.3,1.29-.31,1.11.15.86.56.56.93v.07s-1.52.62-1.52.62ZM100.19,34.31s-.02-.07-.04-.1l-.62-1.04s-.05-.07-.08-.09l-2.32-1.67-.17.24.16-.25-.97-.63s-.08-.04-.12-.05l-.53-.07,7.29-2.95-.49.46s-.03.03-.04.05l-.97,1.42s-.02.04-.03.06l-.62,1.54s-.02.05-.02.07l-.22,1.52s0,.03,0,.04v1.37s-.2.08-.2.08ZM102.55,9.06l1.26-.29,1.08.15.89.59,7.03,4.96h-.05s-.07-.01-.11,0l-1.34.31s-.03,0-.04.01l-14.87,5.98-11.03,4.44h0s-7.49,3.01-7.49,3.01h0s0,0,0,0h0s-40.36,16.24-40.36,16.24l.09.23-.09-.23-.62.25s0,0,0,0l-.41.17-8.22-6.14L102.55,9.06ZM27.98,39.27l7.94,5.93-.51.25s-.06.03-.08.06l-.5.49v-.52s-.02-.07-.03-.1l-.22-.54s-.03-.06-.06-.09l-.41-.44s-.03-.03-.04-.04l-6.07-4.46v-.53ZM22.96,259.01s0,0-.01,0l-.35.18-.25-.02-15.74-13.43-.12-.1-.07-.19-.08-.38L.6,51.6l.06-.36.03-.15.24-.76.08-.18.22-.19.21-.13.29-.11,8.95-3.6,16.21-6.41,6.81,5,.36.38.18.44.02.8v.32s-8.5,10.42-8.5,10.42c-.01.02-.03.04-.04.06l-.28.55s-.03.08-.03.12v.25s-.36.44-.36.44c-.01.02-.03.04-.04.06l-.24.49.05.02-.12.05.24.61s.03.07.06.09l.46.5s.02.02.02.02l.85.73.1.24v.25s-7.87,3.2-7.87,3.2c-.12.05-.19.16-.19.28l4.68,193.49h.27s.05.03.05.03l.09.19-.5.23ZM32.39,255.24l-.36.15v-.47s0-.07,0-.1v-.54s52.13-23.86,52.13-23.86v1.12s-51.77,23.72-51.77,23.72ZM101.91,249.68s0,0-.01,0l-.33.17-.25-.02-.21-.18-16.06-13.12-.12-.1-.08-.18-.07-.37-.82-192.92.08-.51.2-.75.07-.17.2-.18.22-.13h0s0,0,0,0l8.98-3.66,15.75-6.33,2.63,1.84s0,0,0,0l1.51,1.06.17-.24-.17.24,1.84,1.29.17-.24-.17.24,1.07.75.38.38.2.43.02.48v.34s0,.39,0,.39l-7.79,10.19s-.03.04-.04.06l-.24.54s-.03.08-.03.12h0v.15s-.3.4-.3.4h-.4s.02.64.02.64c0,.04.01.08.03.11l.27.61s.03.06.06.09l.49.5s.01.01.02.02l.88.72.09.23v.26s-7.66,3.16-7.66,3.16c-.11.05-.18.16-.19.28l-.29,192.96h.26s.07.06.07.06l.07.16-.53.25ZM175.94,214.19l-.88,1.28-1.1,1.06-1.21.76-61.63,28.68-.33.14v-.46s.02-.07.02-.11v-.54s62.12-28.88,62.12-28.88c.01,0,.02-.01.03-.02l.52-.32.32-.2s.03-.02.04-.03c0,0,0,0,.01,0l.64-.63s0,0,0,0h0s.03-.03.04-.04l.3-.43.22-.32s.01-.02.02-.03c0,0,0-.01.01-.02l.34-.8s.02-.04.02-.07h0s0,0,0,0l.16-.92s0-.03,0-.04l2.12-85.35h0c0-.12-.06-.23-.17-.28l-.79-.38-.39-.49-.26-.33v-.08s-.19-1.64-.19-1.64l.15-1.04.14-.95.78-1.56.88-1.16s.06-.11.06-.17l2.25-90.61s0-.03,0-.05l-.11-.82v-.09s-.03-.07-.05-.11l-.32-.59s-.05-.08-.09-.1l-.52-.36s-.08-.04-.13-.05l-.67-.09s-.08,0-.11,0l-.89.22s-.03,0-.04.01l-12.33,5.09s0,0,0,0l-1.78.74-37.47,15.47h0s-10.89,4.5-10.89,4.5l.11.28-.11-.28-2.8,1.16-.39.14v-1.37s.61-.22.61-.22c0,0,0,0,.01,0l65.44-26.99,1.24-.3,1.05.15.8.55.51.93.16,1.26-.26,10.13s0,0,0,0l-2.05,80.48-.84,1.11s-.02.03-.03.05l-.81,1.63s-.02.06-.03.09l-.3,2.07s0,.05,0,.08l.21,1.84c0,.06.03.11.06.15l.75.94.13-.11.05.03-.08.16.68.33-2.17,85.25-.22,1.31-.58,1.35ZM177.19,212.41l.14-.81s0-.03,0-.04l.04-1.61.52.84.25-.16-.18.24.96.74-1.73.8ZM200.52,200.49l-.23,1.3-.58,1.35-.88,1.27-1.09,1.06-1.2.75-13.05,6.07-1.17.36-.98-.05-.74-.42-.47-.76-.15-1.09,2.24-85.38.79-1.09s.02-.02.02-.04l.86-1.64s.03-.06.03-.09l.33-2.01s0-.06,0-.09l-.23-1.77c0-.06-.03-.11-.07-.16l-.79-.92-.23.2.15-.26-.64-.36,2.38-90.56.24-1.46.61-1.48.94-1.36,1.16-1.1,1.28-.74,13.83-5.7,1.22-.29,1.03.15.78.55.5.92.15,1.26-6.04,183.6Z"/>
      <path d="M205.24,16.84s0,0,0,0c0-.01,0-.03,0-.04,0,0,0,0,0-.01,0-.02-.01-.03-.02-.05l-.31-.58s-.05-.08-.09-.1l-.51-.36s-.08-.04-.13-.05l-.65-.09s-.02,0-.03,0c0,0-.02,0-.03,0,0,0-.02,0-.03,0-.01,0-.02,0-.03,0l-.88.21s-.03,0-.04.01l-8.4,3.47-5.18,2.14h0s-.02.01-.04.02l-.89.52s-.04.03-.06.04l-.68.65s-.03.03-.04.05l-.55.8s-.02.04-.03.05l-.36.87.28.12-.3-.05-.17,1.02.3.05h-.3s-2.43,90.58-2.43,90.58h.3s-.14.27-.14.27l.74.41.7.81.21,1.64-.32,1.93-.83,1.58-.82,1.13s-.06.11-.06.17h0l-2.29,85.34s0,.03,0,.05l.11.79s.02.08.04.12l.31.5s.06.08.11.1l.49.28s.09.04.13.04l.63.04s.01,0,.02,0c.03,0,.06,0,.09-.01l.83-.25s.03,0,.04-.01l12.82-5.96s.02-.01.03-.02l.84-.52s.03-.02.05-.04l.64-.62s.03-.03.04-.04l.52-.74s.02-.03.03-.05l.34-.79h0s.01-.04.02-.07c0,0,0,0,0,0l.16-.92s0-.03,0-.04l5.94-183.39s0-.03,0-.05l-.11-.9ZM182.06,210.45l-.23-.38-.1-.71,2.28-85.22.78-1.07s.02-.02.02-.04l.86-1.65s.02-.06.03-.09l.33-2.02s0-.06,0-.09l-.23-1.77c0-.06-.03-.11-.07-.16l-.79-.92-.23.19.14-.26-.63-.35,2.42-90.38.16-.97.34-.81.51-.75.63-.6.84-.49,13.17-5.44.36-.15.56-.13h0s.24-.06.24-.06l.53.08.39.28.24.45-5.98,185.07-.05.13-.25.59-.48.7-.6.58-.79.49-12.79,5.94-.64.2-.12.04-.5-.03-.36-.21Z"/>
      <path d="M186.78,189.18s.01.06.03.09l.37.81s.04.07.07.1l.61.56s.07.05.11.06l.8.27s.06.02.1.02c0,0,0,0,.01,0l.95-.03s.06,0,.08-.01l1.02-.33s.04-.02.06-.03l1.03-.61s.03-.02.04-.03l.97-.85s.02-.02.03-.04l.84-1.03s.02-.03.03-.04l.66-1.14s.02-.03.02-.05l.43-1.17s.01-.04.01-.06l.17-1.12s0-.05,0-.07l-.1-1s-.01-.06-.03-.09l-.37-.81s-.04-.07-.07-.1l-.6-.56s-.07-.05-.11-.06l-.8-.28s-.07-.02-.11-.02l-.95.03s-.06,0-.08.01l-1.02.33s-.04.02-.06.03l-1.03.61s-.03.02-.04.03l-.97.85s-.02.02-.03.04l-.84,1.03s-.02.03-.03.04l-.66,1.14s-.02.03-.02.05l-.43,1.17s-.01.04-.01.06l-.17,1.12s0,.05,0,.08l.11,1ZM187.43,187.1l.41-1.12.63-1.1.81-.99.93-.82.98-.58.95-.31.85-.03.69.24.51.48.32.71.09.91-.16,1.05-.41,1.12-.63,1.09-.81.99-.93.81-.98.58-.95.31-.85.03-.69-.23-.52-.47-.32-.7-.1-.91.16-1.06Z"/>
      <path d="M190.77,49.63l.38.9s.04.07.06.09l.63.65s.06.05.1.07l.84.35s.07.02.11.02l.99.02s0,0,0,0c.03,0,.05,0,.08-.01l1.07-.3s.04-.02.07-.03l1.08-.6s.03-.02.05-.03l1.01-.87s.03-.02.04-.04l.88-1.07s.02-.03.03-.04l.68-1.2s.02-.03.02-.05l.45-1.25s.01-.04.01-.06l.18-1.21s0-.05,0-.07l-.11-1.1s-.01-.06-.02-.09l-.38-.9s-.03-.07-.06-.09l-.63-.65s-.06-.05-.1-.07l-.84-.35s-.07-.02-.11-.02l-.99-.03s-.06,0-.09.01l-1.07.3s-.05.02-.07.03l-1.08.6s-.03.02-.05.03l-1.01.87s-.03.02-.04.04l-.88,1.07s-.02.03-.03.04l-.69,1.2s-.02.03-.02.05l-.45,1.25s-.01.04-.01.06l-.17,1.22s0,.05,0,.07l.11,1.1s.01.06.02.09ZM191.4,47.27l.43-1.2.66-1.16.85-1.03.97-.83,1.02-.57.99-.28.89.03.73.31.55.57.34.81.1,1.02-.17,1.15-.43,1.2-.66,1.15-.84,1.03-.97.83-1.02.57-.99.28-.89-.02-.73-.3-.55-.56-.34-.81-.1-1.02.17-1.15Z"/>
      <path d="M168.99,159.61l-1.94-1.01s-.04-.02-.06-.02h0s0,0,0,0l-1.63-.42-.57-.15s-.04,0-.06,0l-2.27-.11s0,0,0,0h-.14s0,0,0,0h0s-.04,0-.05,0l-2.58.34s-.03,0-.05,0l-2.68.79s-.03,0-.04.01l-2.72,1.22s-.02.01-.03.02l-2.7,1.62s-.02.01-.03.02l-2.62,1.99s-.02.01-.02.02l-2.48,2.32s-.01.01-.02.02l-2.28,2.59s0,0,0,0h0s0,.01-.01.02c0,0,0,0,0,0l-2.03,2.8s-.01.02-.02.02l-1.74,2.95s0,.02-.01.03l-1.4,3.04s0,.02-.01.03l-1.03,3.05s0,.02,0,.03l-.64,2.99s0,.03,0,.04l-.24,2.87s0,.03,0,.04l.17,2.68s0,.03,0,.05l.57,2.43s.01.04.02.05l.96,2.12s.02.04.03.06l1.33,1.77s.03.04.05.05l1.67,1.38s0,0,.01,0c.01.01.03.02.05.03l1.96.96s.04.02.06.02l1.71.41h0s.51.12.51.12c.02,0,.04,0,.06,0l2.42.08s0,0,0,0c.01,0,.03,0,.04,0l2.57-.37s.03,0,.04,0l1.32-.4h0s1.34-.41,1.34-.41h0s.02,0,.04-.01l2.69-1.23s.02-.01.03-.02l2.67-1.62s.02-.01.03-.02l2.58-1.98s.02-.01.02-.02l2.44-2.29s.01-.01.02-.02l2.25-2.56s.01-.01.02-.02l2-2.76s.01-.02.02-.02l1.72-2.91s0-.02.01-.03l1.39-2.99s0-.02.01-.03l1.04-3.01s0-.02,0-.03l.66-2.96s0-.02,0-.04l.27-2.85s0-.03,0-.04l-.13-2.67s0-.03,0-.05l-.53-2.43s-.01-.04-.02-.06l-.92-2.14s-.02-.04-.03-.06l-1.29-1.8s-.03-.04-.05-.05l-1.63-1.42s-.04-.03-.06-.04ZM171.51,163.25l.9,2.09.52,2.38.05,1.09.08,1.54-.26,2.8-.5,2.26-.15.66-1.03,2.98-1.38,2.96-1.7,2.88-1.99,2.74-2.23,2.53-2.42,2.27-2.56,1.96-2.64,1.61-2.66,1.22-1.27.39-1.35.41-.88.13-1.64.24-2.36-.08-2.14-.51-1.89-.92h-.03s-1.61-1.35-1.61-1.35l-1.29-1.72-.94-2.07-.56-2.37-.17-2.63.24-2.82v-.04s.05-.19.05-.19h0s.59-2.72.59-2.72l.85-2.52h0s.17-.5.17-.5l1.39-3.01,1.72-2.93,2.02-2.78,2.27-2.57,2.46-2.3,2.6-1.98,1.34-.8,1.34-.8,1.49-.66,1.2-.54,2.64-.77,2.53-.33h.12s0,0,0,0l1.57.08.66.03.81.21,1.33.35,1.88.98,1.58,1.38,1.25,1.75Z"/>
      <path d="M139.86,93.62l.54,2.37s0,.04.02.05l.9,2.09s.02.04.03.05l1.24,1.76s.03.04.04.05l1.56,1.4.09-.1.03.02-.07.12,1.84,1.01s.04.02.06.03l2.08.59s.04,0,.06.01l2.27.17s.01,0,.02,0c.01,0,.02,0,.03,0l2.41-.26s.03,0,.05,0l2.49-.68s.03,0,.04-.01l2.53-1.09s.02-.01.03-.02l2.5-1.47s.02-.01.03-.02l2.42-1.82s.02-.01.02-.02l2.29-2.13s.01-.01.02-.02l2.11-2.39s.01-.01.02-.02l1.88-2.6s.01-.02.02-.02l1.61-2.75s0-.02.01-.03l1.31-2.84s0-.02.01-.03l.97-2.87s0-.02,0-.03l.62-2.84s0-.02,0-.04l.25-2.74s0-.03,0-.04l-.13-2.59s0-.03,0-.05l-.5-2.37s0-.04-.02-.05l-.86-2.11s-.02-.04-.03-.05l-1.21-1.79s-.03-.04-.04-.05l-1.53-1.44-.1.1-.03-.03.07-.12-1.82-1.05s-.04-.02-.06-.03l-2.06-.63s-.04-.01-.06-.01l-2.27-.21s-.04,0-.06,0l-2.42.23s-.03,0-.05,0l-2.51.66s-.03,0-.04.01l-2.55,1.08s-.02.01-.03.02l-2.54,1.47s-.02.01-.03.02l-2.46,1.83s-.02.01-.02.02l-2.33,2.15s-.01.01-.02.02l-2.14,2.42s-.01.01-.02.02l-1.91,2.63s-.01.02-.02.02l-1.63,2.79s0,.02-.01.03l-1.32,2.88s0,.02-.01.03l-.97,2.91s0,.02,0,.03l-.61,2.87s0,.02,0,.04l-.23,2.76s0,.03,0,.04l.16,2.59s0,.03,0,.05ZM142.31,98.51l1.02-1.15-.98,1.21-.04-.06ZM149.59,101.57s.02,0,.02,0l.22-.04.92.4-1.01.11-2.21-.16-.74-.21.48.04s.01,0,.02,0c0,0,0,0,0,0l1.12-.02s.02,0,.02,0l1.15-.11ZM150.27,100.81s0-.01,0-.02l.36-1.42h.17s.02,0,.02,0l.54-.05-.51,1.99-.66-.28.07-.22ZM152.17,101.64l.13-.68,1.13-.37s.01,0,.02,0l1.19-.48s.01,0,.02,0l1.19-.56s.01,0,.02,0l1.19-.65s0,0,.01,0l1.18-.73s0,0,.01,0l1.16-.81s0,0,.01,0l1.14-.88s0,0,.01,0l.97-.83.94.4c.09.04.2.03.28-.03l-.87.8-2.4,1.8-2.47,1.45-2.49,1.07-2.45.67s.06-.08.07-.14ZM163.62,94.86l-.48-.76.69-.71s0,0,0-.01l1-1.13s0,0,0-.01l.95-1.18s0,0,0-.01l.9-1.22s0,0,0-.01l.84-1.26s0,0,0-.01l.78-1.29s0,0,0-.01l.71-1.32s0,0,0-.01l.65-1.33s0,0,0-.01l.3-.71.92.08s.02,0,.02,0c.06,0,.12-.02.17-.05l-.11.32-1.29,2.81-1.6,2.72-1.86,2.57-2.09,2.36-.89.83.29-.27c.1-.1.12-.26.05-.38ZM171.58,82.56s-.02-.04-.04-.06l-.69-.8.38-1.2s0,0,0-.02l.35-1.35s0-.01,0-.02l.27-1.34s0-.01,0-.02l.19-1.32s0-.01,0-.02l.11-1.29s0-.01,0-.02l.02-1.26s0-.01,0-.02l-.07-1.48s0-.01,0-.02l-.09-.78.3-.21.42,1.97.12,2.54-.25,2.7-.61,2.8-.4,1.18ZM170.05,72.18l1.83-1.41.04.13-1.87,1.29h0ZM170.93,69.83s.01,0,.02-.01l.17-.15.5.55-1.77,1.36-.18-.48s0-.02-.01-.02l-.09-.19,1.37-1.05ZM170.16,80.51l.22-1.12s0-.01,0-.02l.16-1.1s0-.01,0-.02l.09-1.08s0-.01,0-.02l.02-1.05s0-.01,0-.02l-.05-1.02s0-.01,0-.02l-.14-1.17s0-.02,0-.02l-.19-.95s0-.02,0-.02l-.03-.09,1.22-.84.06.45.07,1.45-.02,1.24-.1,1.27-.19,1.3-.27,1.32-.34,1.33-.36,1.15h-.16s-.22.01-.22.01l.25-.96s0-.01,0-.02ZM169.73,82.08h.41s.01,0,.02,0h.23s.28.31.28.31h-1.04s.1-.31.1-.31ZM169.43,83h1.45s-.13.33-.13.33l-1.41-.12.08-.21ZM169.07,83.96s0,0,0-.01l.06-.15.25.02-.22.52-.64,1.32-.71,1.3-.77,1.28-.83,1.25-.89,1.21-.94,1.17-.99,1.12-.58.6-.09-.15.07-.06s0,0,0,0l.87-.9s0,0,0-.01l.34-.38s0,0,0,0l.49-.55s0,0,0-.01l.79-.98s0,0,0-.01l.75-1.02s0,0,0-.01l.7-1.05s0,0,0-.01l.65-1.08s0,0,0-.01l.6-1.1s0,0,0-.01l.54-1.12s0,0,0-.01l.48-1.13ZM162.28,93.85l.71,1.12-.29.27-.61-1.21.19-.18ZM161.63,94.44l.35.7-.25-.11-.1-.22s0,0,0-.01l-.13-.25.13-.11ZM160.94,95.02s0,0,.01,0l.07-.06.06.12.05.11-.93.8-1.13.87-1.15.8-1.16.72-1.17.64-1.18.56-1.17.47-.81.26.22-1.12v-.04s.13-.02.13-.02l.18-.04s0,0,.01,0l.98-.25s.01,0,.02,0l.99-.32s.01,0,.02,0l1-.4s.01,0,.02,0l1-.47s.01,0,.02,0l.99-.54s0,0,.01,0l.98-.61s0,0,.01,0l.97-.67s0,0,.01,0l.95-.73ZM151.62,101.33l-.16.03.54-2.11h.03s-.41,2.08-.41,2.08ZM173.56,73.93l.12,2.54-.25,2.7-.61,2.8-.96,2.84-1.3,2.81-1.6,2.72-1.86,2.57-2.09,2.37-2.27,2.11-2.4,1.8-2.47,1.45-2.49,1.07-2.45.67-2.36.26-.53-.04,2.15-.23s.03,0,.05,0l2.49-.68s.03,0,.04-.01l2.53-1.09s.02-.01.03-.02l2.5-1.47s.02-.01.03-.02l2.42-1.82s.02-.01.02-.02l2.29-2.13s.01-.01.02-.02l2.11-2.39s.01-.01.02-.02l1.88-2.6s.01-.02.02-.02l1.61-2.75s0-.02.01-.03l1.31-2.84s0-.02.01-.03l.97-2.87s0-.02,0-.03l.62-2.84s0-.02,0-.04l.25-2.74s0-.03,0-.04l-.13-2.59s0-.03,0-.05l-.45-2.13.21.5.49,2.32ZM164.92,64.71h.06s-.55,1.02-.55,1.02l.49-1.02ZM154.49,67.66l-.12.06v-.11s.11-.07.11-.07v.12ZM142.08,82.54l1.3-2.85,1.56-2.67.13.07s.09.03.14.03c.1,0,.19-.05.25-.13l.47-.71s0,0,0,0h0s0,0,0,0c.07-.1.07-.24,0-.34l-.11-.15,1.07-1.47,2.12-2.4,2.3-2.13,2.43-1.81.05-.03.04.29c.01.1.07.18.16.23.04.02.09.03.14.03s.1-.01.14-.04l.67-.36c.1-.05.16-.16.16-.28l-.03-.61,1.18-.69,2.52-1.06,2.47-.65,1.53-.15-.21.49s-.03.09-.02.14l.02.34.6-.04-.02-.27.2-.47.13-.26h.14s.68.05.68.05l-.76,1.58c-.04.08-.04.17,0,.25.04.08.11.14.19.17l.55.16s.06.01.08.01c.11,0,.21-.06.26-.16l1.02-1.89.18.02,2,.62,1.23.71.8.75.15.25.46.93.38,1,.02.05-.3.26-1.27.98-.03-.06s0-.02-.01-.03l-.46-.74s-.01-.02-.02-.02l-.52-.68s-.01-.02-.02-.02l-.58-.61s-.02-.02-.02-.02l-.64-.54-.26-.21s0,0,0,0l-.37-.28-.36.48.36.27.25.21.62.53.56.59.5.65.44.71.38.77.32.83.25.88.19.93.14,1.15.05,1-.02,1.03-.09,1.06-.15,1.08-.22,1.1-.29,1.11-.35,1.11-.42,1.12-.48,1.11-.53,1.1-.59,1.08-.65,1.07-.69,1.04-.74,1.01-.78.97-.48.54s0,0,0,0l-.34.38-.86.89-.86.81-.94.81-.94.72-.96.66-.97.6-.98.53-.98.46-.98.39-.97.32-.96.24-.17.03-.96.17-.93.09h-.91s-.87-.05-.87-.05l-.84-.14-.8-.22-.76-.29-.72-.37-.27-.17-.69-.45-.38-.26-.34.49.38.26.7.46.28.18s.02,0,.02.01l.74.38s.02,0,.03.01l.79.3s.02,0,.03,0l.83.23s.02,0,.03,0l.87.15s.02,0,.03,0l.9.07s.02,0,.02,0c0,0,0,0,0,0h.15s-.32,1.25-.32,1.25l-.11.33h-.06s-1.12.12-1.12.12l-1.09.02-1.06-.08-1.02-.17-.97-.26-.12-.05h-.02s-1.06-.97-1.06-.97l-.35-.5,1.68-2.08-.23-.19.21-.21-.39-.39h0s-.02-.02-.03-.03l-.62-.47-.36.48.36.27-1.37,1.55-.1-.14-.26-.61.6-.68.41-.43.25-.08-.19-.57-.32.1s-.09.04-.12.08l-.41.43s0,0,0,0l-.47.54-.35-.82-.52-2.32-.15-2.55.18-2.18.9-.36-.11-.28.3.02.05-.73h0c0-.08-.02-.16-.08-.22l-.51-.56-.22.2.31-1.45.96-2.88ZM140.79,87.28l-.07.02.02-.08.05.06ZM140.58,87.97l.41-.13v.1s-.44.17-.44.17l.03-.13Z"/>
      <path d="M169.38,162.66s-.03-.04-.05-.05l-1.49-1.29-.05.05-.04-.04.03-.06-1.77-.92s-.04-.02-.06-.02l-2.01-.52s-.04,0-.06,0l-1.47-.07s0,0,0,0l-.73-.04s-.04,0-.05,0l-.97.13.04.3-.04-.3-1.38.18s-.03,0-.05,0l-2.44.72s-.03,0-.04.01l-2.48,1.11s-.02.01-.03.02l-2.46,1.48s-.02.01-.03.02l-1.25.95s0,0,0,0l-1.14.87s-.02.01-.02.02l-2.26,2.11s-.01.01-.02.02l-2.08,2.36s-.01.01-.02.02l-1.67,2.31.24.17h0s-.22-.15-.22-.15l-.02-.02s0,0,0,0h0s0,0,0,0c0,0,0,0,0,0l-.17.23s-.01.02-.02.02l-1.58,2.69s0,.02-.01.03l-1.28,2.76s0,.02-.01.03l-.94,2.77s0,.02,0,.03l-.59,2.72s0,.03,0,.04l-.22,2.61s0,0,0,0c0,.01,0,.02,0,.04l.15,2.44s0,.03,0,.05l.52,2.21s.01.04.02.05l.88,1.93s.02.04.03.06l1.21,1.61s.03.04.05.05l1.52,1.26.13-.16h.02s-.09.2-.09.2l1.79.88s.04.02.06.02l2.02.48s.04,0,.06,0l2.2.07s0,0,0,0c.01,0,.03,0,.04,0l2.34-.34s.03,0,.04,0l2.42-.74s.03,0,.04-.01l2.45-1.12s.02-.01.03-.02l2.43-1.48s.02-.01.03-.02l2.35-1.8s.02-.01.02-.02l2.23-2.09s.01-.01.02-.02l2.05-2.33s.01-.01.02-.02l1.83-2.52s.01-.02.02-.02l1.57-2.65s0-.02.01-.03l1.27-2.73s0-.02.01-.03l.95-2.74s0-.02,0-.03l.6-2.7s0-.02,0-.04l.24-2.59s0-.03,0-.04l-.12-2.43s0-.03,0-.05l-.49-2.22s0-.04-.02-.05l-.84-1.95s-.02-.04-.03-.06l-1.18-1.64ZM145.18,195.68l.93.03s0,0,0,0c0,0,.01,0,.02,0l1.09-.06s.02,0,.02,0l1.11-.15s.01,0,.02,0l.16-.03.74.35-1.06.15-2.15-.07-.9-.21ZM149,194.79s0-.01,0-.02l.32-1.23h.19s.02-.01.02-.01l.49-.06-.47,1.82-.63-.29.07-.2ZM168.73,166.77l1.25-.98.02.08-1.27.9ZM169.07,164.82l.16-.14.48.55-1.72,1.35-.16-.41s0-.02-.01-.03l-.12-.24,1.37-1.07s.01,0,.02-.01ZM168.31,175.06s0-.01,0-.02l.22-1.06s0-.01,0-.02l.15-1.04s0-.01,0-.02l.08-1.02s0-.01,0-.02l.02-.99s0-.01,0-.02l-.05-.96s0-.01,0-.02l-.14-1.12s0-.02,0-.02l-.19-.89s0-.02,0-.02l-.03-.08,1.19-.84.03.28.06,1.15v.24s-.01,1.17-.01,1.17l-.1,1.2-.18,1.23-.26,1.25-.33,1.27-.35,1.1-.16.02h-.15s.2-.74.2-.74ZM167.94,176.41l.36-.02s.01,0,.02,0l.2-.02.3.36-1,.05.12-.37ZM167.62,177.39l1.37-.06-.11.29-1.33-.05.06-.17ZM167.26,178.34s0,0,0-.01l.07-.17h.16s-.16.37-.16.37l-.62,1.27-.69,1.25-.75,1.23-.75,1.13-.09.12.6-.89s0,0,0-.01l.63-1.04s0,0,0-.01l.58-1.06s0,0,0-.01l.52-1.07s0,0,0-.01l.47-1.08ZM161.12,187.48l.05-.04s0,0,0,0l.84-.88s0,0,0,0l.77-.87-.09.12-.96,1.09-.6.63-.02-.02ZM160.68,187.9l.35.52s0,0,0,0l.3.46-.27.26-.56-1.07.18-.17ZM160.04,188.48l.26.49-.17-.08-.09-.2s0,0,0-.01l-.07-.13.08-.07ZM159.37,189.07s0,0,.01,0l.12-.1h0s.04.09.04.09l-.75.65-.15.13-1.09.86-1.11.79-1.13.72-1.14.65-1.14.57-1.14.49-.74.26.19-.93.29-.06s.01,0,.02,0l.95-.27s.01,0,.02,0l.96-.34s.01,0,.02,0l.97-.41s.01,0,.02,0l.97-.48s0,0,.01,0l.96-.55s0,0,.01,0l.95-.61s0,0,.01,0l.94-.67s0,0,.01,0l.92-.73ZM150.68,193.37h0s-.39,1.91-.39,1.91l-.13.03.51-1.94ZM151,194.85l1.08-.38s.01,0,.02,0l1.16-.49s.01,0,.02,0l1.16-.58s0,0,.01,0l1.15-.65s0,0,.01,0l1.14-.73s0,0,.01,0l1.13-.8s0,0,.01,0l1.1-.87s0,0,.01,0l.15-.13.78-.68.83.39-.74.7-2.33,1.78-2.4,1.46-.33.15.12.27-.12-.27-2.09.95-2.03.62.14-.68ZM161.97,188.75l-.44-.66s0,0,0,0l-.05-.08.7-.73s0,0,0,0l.97-1.1s0,0,0-.01l.92-1.14s0,0,0-.01l.87-1.18s0,0,0-.01l.82-1.22s0,0,0-.01l.76-1.24s0,0,0-.01l.69-1.27s0,0,0-.01l.63-1.28s0,0,0-.01l.25-.58.81.03-.05.16-1.26,2.7-1.55,2.62-1.81,2.49-2.03,2.31-.28.26ZM169.5,176.61l-.5-.62.36-1.14s0-.01,0-.02l.34-1.28s0-.01,0-.02l.26-1.27s0-.01,0-.02l.18-1.25s0-.01,0-.02l.1-1.22s0-.01,0-.02l.02-1.19s0-.01,0-.02l-.07-1.41s0-.01,0-.02l-.08-.6.06-.04.35,1.59.12,2.38-.24,2.55-.59,2.66-.33.95ZM163.2,160.37h.02s-.19.35-.19.35l.17-.35ZM153.08,163.48l-.1.06-.02-.18.12-.07v.2ZM139.97,183.08l-.68.29.02-.1.66-.23v.05ZM139.21,188.39l-.15-2.39.17-1.96,1.15-.48-.12-.28.3.02.05-.69h0c0-.08-.02-.16-.07-.22l-.5-.56-.45.4.2.23-.32.11.39-1.82.93-2.74,1.26-2.73,1.57-2.66v-.02s.33.15.33.15l.13-.27.25.17.46-.69h0c.07-.1.07-.23,0-.34l-.22-.31.88-1.21,2.06-2.34,2.21-2.07,1.15-.88s0,0,0,0l1.23-.94.28-.17.05.36c.01.1.07.18.16.23.04.02.09.03.13.03.05,0,.1-.01.15-.04l.65-.37c.1-.06.16-.16.15-.28l-.04-.7.9-.54,2.44-1.09,2.4-.7,1.36-.18h0s.32-.04.32-.04l-.15.34s-.03.09-.02.14l.02.33.6-.04-.02-.26.19-.44.07-.15.64.03s0,0,0,0h.16s-.71,1.46-.71,1.46c-.04.08-.04.18,0,.26.04.08.11.14.2.16l.53.13s.05,0,.07,0c.11,0,.21-.06.26-.16l.91-1.67s0,0,0,0l.06-.1,1.89.49,1.44.75.89.77.43.59.06.12.37.92.02.05-.29.26-1.27,1-.43-.66s-.01-.02-.02-.03l-.5-.62s-.01-.02-.02-.02l-.56-.55s0,0-.01-.01l-.25-.22s0,0,0,0l-.35-.29-.38.47.32.26.27.23.54.53.48.59.43.65.37.71.31.76.24.82.18.86.12.91.02.18.05.94-.02.97-.08,1-.15,1.02-.21,1.04-.27,1.03-.34,1.06-.41,1.1-.46,1.07-.52,1.06-.57,1.05-.62,1.01-.68,1.02-.72.98-.76.95-.8.91-.83.87-.83.79-.39.34.2.23-.2-.23-.53.46-.91.72-.93.66-.94.6-.95.54-.95.47-.95.4-.94.33-.93.26-.92.19-1.09.15-.88.04-.85-.03-.82-.1-.78-.18-.74-.25-.69-.32-.66-.39-.26-.18-.36-.27-.17.23-.22-.18.2-.22-.38-.36s-.01-.01-.02-.02l-.6-.47-.37.47.35.28-1.48,1.68-.2-.26-.2-.43.84-.95.34-.35.23-.07-.18-.57-.31.1s-.09.04-.13.08l-.4.41s0,0,0,0l-.67.76-.38-.85-.51-2.16ZM141.13,193.18l.6-.68-.58.72-.02-.03ZM141.52,193.71l1.57-1.95.37.27s0,0,.01,0l.27.18s0,0,.01,0l.68.4s.02.01.03.02l.72.33s.02,0,.03.01l.77.26s.02,0,.03,0l.81.18s.02,0,.03,0l.84.11s.02,0,.03,0l.88.03s0,0,0,0c0,0,.01,0,.02,0h.08s-.27,1.04-.27,1.04l-.1.28-.07.02-1.09.14-1.06.06-1.03-.03-.99-.12-.94-.21-.85-.28-.57-.47-.21-.28ZM171.34,168.68l.12,2.38-.24,2.55-.59,2.66-.94,2.71-1.26,2.7-1.55,2.62-1.81,2.49-2.03,2.31-2.2,2.07-2.33,1.79-2.4,1.46-2.42,1.11-2.38.73-2.29.33-2.15-.07h0s1.36.04,1.36.04c0,0,0,0,0,0,.01,0,.03,0,.04,0l2.34-.34s.03,0,.04,0l2.42-.74s.03,0,.04-.01l2.11-.96h0s.35-.16.35-.16c.01,0,.02-.01.03-.02l2.43-1.48s.02-.01.03-.02l2.35-1.8s.02-.01.02-.02l2.22-2.09s.01-.01.02-.02l2.05-2.33s.01-.01.02-.02l1.83-2.52s.01-.02.02-.02l1.56-2.65s0-.02.01-.03l1.27-2.72s0-.02.01-.03l.94-2.74s0-.02,0-.03l.6-2.7s0-.02,0-.04l.24-2.59s0-.03,0-.04l-.12-2.43s0-.03,0-.05l-.39-1.75.13.31.48,2.16Z"/>
      <polygon points="79.95 187.27 80.43 187.62 80.78 187.14 80.31 186.79 73.84 181.64 72.09 180.28 71.72 180.75 73.35 182.02 79.94 187.26 79.95 187.27"/>
      <path d="M65.13,96.44l.08.62s0,.03,0,.04l.17.62.09-.02.12.23s.01.02.02.03l.41.63.5-.33-.33-.51.07-.09-.22-.18-.2-.4-.03-.11-.08-.58v-.58s.05-.43.05-.43l1.43,1.1.55.9.1.27-.22.82-.46.82.18.1-.22.04.1.5.06.29.08-.02.19.33.52-.3-.27-.47-.06-.28.42-.76s.02-.05.03-.07l.25-.94c.02-.06.01-.12,0-.18l-.14-.39s-.02-.04-.03-.05l-.6-.97s-.04-.06-.07-.08l-1.7-1.31.16-.41.11-.07,5.09,3.91.73.94.02.04.12.71.14.87.59-.09-.13-.84-.14-.8s-.02-.06-.03-.09l-.06-.1s-.02-.03-.03-.04l-.77-.99s-.03-.04-.05-.05l-4.96-3.81s.03-.03.05-.05l.38-.5s.03-.05.04-.07l.2-.53s.02-.09.02-.13l-.05-.54h0c0-.06-.02-.11-.06-.16l-.56-.72s-.02-.03-.04-.04l-.2-.18.04-.15.27-.72.35-.69.42-.66.46-.65.1-.12.03-.03h.3s0,.01.01.01c.01,0,.02,0,.04,0l.55-.07c.06,0,.12-.03.16-.07l.47-.41s.05-.06.07-.09l.28-.56c.03-.05.04-.11.03-.17l-.08-.55s0-.03,0-.04l-.09-.33.03-.04.56-.68.59-.64.57-.51.62-.45.05-.03.24.16s.04.02.06.03l.85.33s.07.02.11.02c.02,0,.03,0,.05,0l.53-.09s.08-.03.12-.05l.46-.33s.04-.04.06-.06l.24-.31,5.02,3.74s.04.03.07.04l1.17.47s.01,0,.02,0l.11.04s.06.02.09.02c0,0,.02,0,.03,0l.77-.07.88-.08-.06-.6-.87.08-.71.06-1.16-.47-5.08-3.78.1-.4.11-.16.14-.07,1.82,1.35s.06.04.1.05l1.11.31s.03,0,.05,0l.4.05s.02,0,.03,0c.05,0,.1-.01.15-.04l.85-.49s.05-.03.07-.05l.56-.59.13-.09.5.05.06-.6-.49-.05-.07-.11-.41.24s-.05.03-.07.05l-.61.65-.73.42-.28-.03-1.03-.29-1.55-1.15.06-.04.52-.17.57-.14.57-.06h.04s.7.16.7.16l.13-.58-.73-.16s-.03,0-.05,0h-.09s-.03,0-.05,0l-.61.07s-.02,0-.04,0l-.6.14s-.01,0-.02,0l-.61.19.05.15-.08-.13-.28.18-.54.28s-.08.05-.1.09l-.19.25s-.04.07-.05.11l-.16.65-.33.43-.37.26-.38.06-.71-.28h.03s.46-.21.46-.21l.53-.02-.02-.6-.59.02s-.07,0-.1.02l-.53.22s-.02.01-.03.02l-.69.4s-.02.01-.02.02l-.65.46s-.02.01-.02.02l-.59.53s-.01.01-.02.02l-.55.59s0,0,0,.01l-1.05,1.25.06.05-.04.06.32.2.02.08.06.44-.21.43-.36.32-.41.05-.25-.28-.05.05-.06-.05-.56.64s-.01.02-.02.02l-.47.67s0,0,0,.01l-.43.68s0,.02-.01.02l-.36.71s0,.02-.01.03l-.29.75s0,.02,0,.03l-.09.34s0,0,0,0l-.12.42s0,.01,0,.02l-.17.77h.06s-.05.62-.05.62l.6.05.06-.77s0,0,0-.01v-.18s.06-.23.06-.23l.17.19.27.34.03.38-.16.43-.33.43-.64.44.04.06-.1-.04-.33.86s-.01.04-.02.07l-.13.93s0,.03,0,.05v.62s0,.02.01.04Z"/>
      <polygon points="70.17 90.22 69.8 90.69 76.55 95.83 77.04 96.21 77.41 95.74 76.91 95.35 70.17 90.22"/>
      <path d="M69.82,173.29l.51-.38,2.13-1.6.89-.53-.3-.51-.9.53s-.02.01-.03.02l-2.67,2.01s-.02.01-.02.02l-.5.46.41.44.49-.45Z"/>
    </g>
  </g>
</svg>