<?xml version="1.0" encoding="UTF-8"?>
<svg id="Layer_2" data-name="Layer 2" xmlns="http://www.w3.org/2000/svg" viewBox="0 0 296.75 315.41">
  <g id="Layer_1-2" data-name="Layer 1">
    <g>
      <path d="M199.09,203.05l-.95.09h-.96s-.99-.1-.99-.1l-1.02-.2-.87-.18-.99-.29-1-.38-1-.47-1-.56-1-.64-.98-.73-.97-.81-.95-.88-.92-.96-.89-1.02-.85-1.09-.77-1.08-.81-1.25-.72-1.24-.67-1.28-.62-1.31-.56-1.34-.5-1.36-.44-1.37-.37-1.38-.31-1.38-.24-1.37-.17-1.36-.1-1.34-.03-1.31.04-1.28.11-1.24.18-1.19.25-1.14.31-1.08.38-1.02.44-.95.5-.88.47-.78.58-.83.63-.74.69-.66.68-.56-.47-.58-.69.57s-.01.01-.02.02l-.71.69s-.02.02-.03.03l-.65.77s-.01.02-.02.03l-.59.85s0,.01-.01.02l-.49.79-.52.91s0,.02-.01.03l-.45.98s0,.02-.01.03l-.39,1.05s0,.02,0,.03l-.32,1.11s0,.02,0,.02l-.25,1.16s0,.02,0,.02l-.18,1.21s0,.01,0,.02l-.11,1.24v.02s0,.02,0,.02l-.04,1.3s0,.01,0,.02l.03,1.33s0,.01,0,.02l.1,1.36s0,.01,0,.02l.17,1.38s0,.01,0,.02l.24,1.39s0,.01,0,.02l.31,1.4s0,.01,0,.02l.38,1.39s0,.01,0,.02l.44,1.39s0,.01,0,.02l.51,1.37s0,.01,0,.02l.57,1.35s0,.01,0,.02l.63,1.33s0,0,0,.01l.68,1.29s0,0,0,.01l.73,1.25s0,0,0,.01l.78,1.21s0,0,0,.01l.82,1.16s0,0,.01.01l.86,1.1s0,0,.01.01l.9,1.04s0,0,.01.01l.93.97s0,0,.01.01l.96.9s.01,0,.02.01l.98.82s.01,0,.02.01l1,.74s.01,0,.02.01l1.02.66s.01,0,.02.01l1.02.57s.02,0,.02.01l1.03.48s.02,0,.03.01l1.03.39s.02,0,.03,0l1.02.29s.02,0,.03,0l.89.19,1.04.2s.02,0,.03,0l1.02.1s.03,0,.04,0h1s0,0,0,0c.01,0,.02,0,.04,0l.77-.08,1.11-.14-.09-.74-.89.11Z"/>
      <path d="M203.27,196.61l.11-.65.2-.77c.02-.06.02-.12,0-.18l-.13-.6s-.03-.09-.05-.12l-.67-1.03-.22-1.12.05-.64.34-.5,1.15-1,.32-.14-.04.55-.19,1.09-.25.58.69.29.26-.62s.02-.05.02-.08l.2-1.15s0-.03,0-.04l.08-1.16s0-.03,0-.04l-.06-1.16s0-.03,0-.04l-.18-1.16s0-.01,0-.02l-.24-1.18-.25-1.22-.08.02-.08-.23s-.04-.09-.07-.12l-.16-.18-.12.1-.7-.37-.23-.29-.36-.79-.03-.76.2-.31.02.37s0,.01,0,.01h.11s.03.14.03.14l.73-.14-.22-1.16s0-.02,0-.02c0,0,0-.01,0-.02l-.36-1.26s0-.01,0-.02l-.21-.65s0,0,0,0l-.2-.59s0-.02-.01-.03l-.52-1.19s-.01-.02-.02-.03l-.64-1.13s-.01-.02-.02-.03l-.74-1.07s0,0,0-.01l-1.56-2.04-.59.46.15.19-.08.08.65.66.18.23-.67-.03-.56-.45-.4-.75-.19-.57.08-.99.08-.05-.19-.32.06-.05-.88-1.18s-.02-.02-.02-.03l-.76-.83s0-.01-.01-.02l-.78-.76s-.02-.02-.03-.03l-.85-.66s-.02-.02-.04-.03l-.93-.56s-.02-.01-.04-.02l-1-.46-.04.09-.61-.12-1.04-.22-.15.73,1.04.22.96.19.51.23.9.54.53.41-.83.35-1.61.13-.62.04-.47-.26-.82-.97-.46-1.24c-.03-.08-.08-.14-.15-.18l-1.12-.71s-.06-.03-.09-.04l-.53-.16s-.06-.01-.08-.02l-.53-.04s-.06,0-.1,0l-.68.13s-.04,0-.05.01l-.85.3.25.7.82-.29.6-.12.44.03.44.13.97.62.44,1.18s.04.08.06.11l.89,1.05-3.53,1.49-1.79.19-1.34-.76-.99-.8-.17.21-.06-.16-.19.07.1.27-.15.19,1.01.82s.03.02.05.03l1.47.83c.06.03.12.05.18.05.01,0,.03,0,.04,0l1.97-.21s.07-.01.11-.03l4.09-1.72s.09.03.13.03c0,0,.01,0,.02,0l.72-.04h.02s1.03-.06,1.03-.06c0,0,.01,0,.02,0l.64-.08s.07-.01.1-.03l1.21-.51.42.41.74.81.43.58.32.56-.08,1s0,.1.02.15l.15.45-12.63,5.38-1.45.38-1.08.05s-.02,0-.02,0l-1.2.13.08.74,1.19-.13,1.11-.05s.05,0,.08-.01l1.52-.4s.03-.01.05-.02l11.81-5.03.87-.37.24.45s.06.08.1.11l.71.57c.06.05.14.08.21.08l.85.04s.01,0,.02,0c.03,0,.06,0,.09-.01l.36-.09.17.22.7,1.02.65,1.14.51,1.16.19.58s0,0,0,0l.21.63.26.93-.16.09s-.09.07-.12.12l-.46.73c-.04.06-.06.14-.06.22l.04.95s.01.09.03.14l.41.89s.03.05.05.08l.31.39s.07.07.12.1l.84.44.18.51.36,1.74.02.15-12.12,5.32s-.01,0-.02,0l-.58.29s-.02.01-.04.02l-1.3.84s-.07.06-.1.09l-.67.92-.77,1,.59.46.77-1s0,0,0,0l.64-.87,1.23-.79.55-.27,11.93-5.23.03.22.04.87-.7.31s-.07.04-.09.06l-1.23,1.07s-.05.05-.07.07l-.42.63c-.04.05-.06.12-.06.18l-.06.79s0,.07,0,.1l.16.78-2.83,1.25s-.05.03-.08.05l-.49.37s-.01.01-.02.02l-1.44,1.28c-.07.06-.11.14-.12.23l-.24,1.64s0,.07,0,.1l.15,1.15v.16s-.61.74-.61.74l.58.47.68-.84c.05-.06.08-.14.08-.22v-.07s.05,0,.05,0l-.19-1.44.21-1.45,1.32-1.18.44-.34,2.71-1.2.58.9.1.45-.18.7s0,.02,0,.03l-.11.62-.25.59-.33.43-.65.57-.9.58.41.63.92-.6s.03-.02.04-.03l.63-.54.09.06.42-.68s.02-.03.03-.05v-.02s.01,0,.01,0l.28-.67s.02-.05.02-.08Z"/>
      <path d="M181.48,157.51l.25.71.66-.23,1.11-.25,1.18-.14,1.22-.02,1.25.11,1.28.23,1.3.36,1.31.48,1.32.6,1.14.62,1.27.81,1.31.95,1.29,1.06,1.26,1.16,1.22,1.26,1.18,1.35,1.14,1.44,1.08,1.51,1.03,1.58.78,1.33s0,0,0,0l.18.3.89,1.7.82,1.74.74,1.78.66,1.8.58,1.82.49,1.83.4,1.83.31,1.82.22,1.8.13,1.77.03,1.74-.06,1.69-.16,1.64-.25,1.57-.3,1.31-.4,1.34-.51,1.33-.59,1.24-.67,1.14-.74,1.04-.8.91-.9.84-.94.71-1.02.61.38.64,1.04-.62s.02-.01.03-.02l.98-.73s.02-.02.03-.03l.91-.85s.02-.02.03-.03l.84-.96s.02-.02.02-.03l.76-1.07s.01-.02.02-.03l.69-1.17s.01-.02.01-.03l.6-1.26s0-.02.01-.03l.52-1.35s0-.02,0-.03l.36-1.21h.01s.34-1.52.34-1.52c0,0,0-.02,0-.02l.25-1.6s0-.02,0-.02l.16-1.66s0-.01,0-.02l.06-1.71s0-.01,0-.02l-.03-1.76s0-.01,0-.02l-.13-1.79s0-.01,0-.02l-.22-1.82s0-.01,0-.02l-.32-1.84s0-.01,0-.02l-.41-1.85s0-.01,0-.02l-.5-1.85s0-.01,0-.02l-.59-1.84s0-.01,0-.02l-.67-1.82s0-.01,0-.02l-.75-1.79s0-.01,0-.02l-.83-1.76s0,0,0-.01l-.9-1.71s0,0,0-.01l-.18-.3s0,0,0,0l-.79-1.35s0,0,0-.01l-1.04-1.6s0,0,0-.01l-1.09-1.53s0,0-.01-.01l-1.15-1.45s0,0-.01-.01l-1.2-1.37s0,0-.01-.01l-1.24-1.28s0,0-.01-.01l-1.27-1.18s-.01,0-.02-.01l-1.3-1.07s-.01,0-.02-.01l-1.33-.97s-.01,0-.02-.01c0,0-.01,0-.01,0l-1.33-.85h0s-1.14-.62-1.14-.62c0,0-.02,0-.02-.01l-1.34-.61s-.02,0-.03-.01l-1.34-.49s-.02,0-.03,0l-1.33-.36s-.02,0-.03,0l-1.31-.24s-.02,0-.03,0l-1.29-.11s-.02,0-.03,0l-1.26.02s-.03,0-.04,0l-1.22.14s-.03,0-.04,0l-1.18.27v.06s0-.06,0-.06l-.68.24Z"/>
      <path d="M72.03,143.87l-.88.02-.9-.08-.94-.17-.87-.19-.92-.26-.92-.35-.93-.43-.93-.52-.93-.61-.92-.69-.91-.77-.89-.84-.86-.91-.84-.98-.81-1.04-.77-1.09-.73-1.15-.64-1.11-.69-1.31-.59-1.26-.12-.29-.34.14.34-.14-.42-1-.49-1.31-.43-1.33-.37-1.33-.31-1.34-.25-1.33-.18-1.32-.12-1.3-.05-1.28v-1.24s.09-1.21.09-1.21l.14-1.16.21-1.11.27-1.06.33-1,.39-.93.45-.86.5-.8.5-.75.57-.74.62-.65.67-.58.7-.54-.46-.59-.7.55s0,0-.01.01l-.69.59s-.02.02-.03.03l-.64.68s-.02.02-.02.03l-.59.76s-.01.01-.01.02l-.51.77-.52.82s-.01.02-.02.03l-.46.89s0,.02-.01.03l-.4.96s0,.02,0,.03l-.34,1.02s0,.02,0,.03l-.28,1.08s0,.02,0,.02l-.21,1.14s0,.02,0,.02l-.15,1.19s0,.01,0,.02l-.08,1.23s0,.01,0,.02v1.27s-.01.01-.01.02l.05,1.29s0,.01,0,.02l.12,1.32s0,.01,0,.02l.18,1.34s0,.01,0,.02l.25,1.35s0,.01,0,.02l.31,1.35s0,.01,0,.02l.37,1.35s0,.01,0,.02l.43,1.34s0,.01,0,.02l.49,1.33s0,0,0,.01l.42,1h0l.13.3s0,0,0,.01l.6,1.28s0,0,0,.01l.65,1.24s0,0,0,.01l.7,1.2s0,0,0,.01l.74,1.16s0,0,0,.01l.78,1.11s0,0,.01.01l.82,1.05s0,0,.01.01l.85.99s0,0,.01.01l.88.92s0,.01.01.01l.9.85s.01,0,.02.01l.92.78s.01,0,.02.01l.94.7s.01,0,.02.01l.95.62s.01,0,.02.01l.95.53s.02,0,.02.01l.96.45s.02,0,.03.01l.95.36s.02,0,.03,0l.95.27s.01,0,.02,0l.89.19s0,0,.01,0l.96.18s.02,0,.04,0l.94.08s.02,0,.03,0c0,0,0,0,0,0l.92-.02s.02,0,.03,0l.88-.1-.08-.74-.86.09Z"/>
      <path d="M83.8,131.39s0-.01,0-.02l-.15-1.74s0-.01,0-.02l-.24-1.77s0-.01,0-.02l-.32-1.78s0-.01,0-.02l-.41-1.79s0-.01,0-.02l-.49-1.79s0-.01,0-.02l-.57-1.78s0,0,0-.01l-.65-1.76s0,0,0-.01l-.72-1.73s0,0,0-.01l-.8-1.69s0,0,0-.01l-.86-1.65s0,0,0-.01l-.25-.43s0,0,0,0l-.67-1.16s0,0,0-.01l-.98-1.53s0,0,0-.01l-1.04-1.46s0,0-.01-.01l-1.08-1.39s0,0-.01-.01l-1.13-1.3s0,0-.01-.01l-1.16-1.22s0,0-.01-.01l-1.19-1.12s-.01,0-.02-.01l-1.22-1.02s-.01,0-.02-.01l-1.24-.91s-.01,0-.02-.01l-1.25-.8h0s-1.04-.57-1.04-.57c0,0-.02,0-.02-.01l-1.25-.57s-.02,0-.03-.01l-1.24-.45s-.02,0-.03,0l-1.23-.33s-.02,0-.03,0l-1.21-.21s-.02,0-.04,0l-1.19-.08s-.03,0-.04,0l-1.16.04s-.03,0-.04,0l-1.12.16s-.03,0-.04,0l-1.08.29.19.72,1.06-.28,1.08-.16,1.12-.04,1.15.08,1.18.2,1.19.32,1.22.44,1.22.56,1.02.56,1.2.77,1.22.9,1.2,1.01,1.17,1.1,1.07,1.12,1.2,1.38,1.07,1.37,1.03,1.45.97,1.52.67,1.16s0,0,0,0l.24.41.85,1.63.79,1.68.72,1.71.64,1.74.52,1.62.52,1.86.42,1.82.32,1.76.24,1.75.15,1.68.06,1.72-.03,1.56-.11,1.68-.2,1.53-.29,1.47-.33,1.26-.4,1.17-.49,1.15h0l-.03.07-.6,1.12-.67,1.02-.73.92-.8.82-.85.71-.91.6-.98.49.34.67,1-.5s.03-.01.04-.02l.94-.62s.02-.02.03-.02l.89-.73s.02-.02.03-.03l.82-.84s.02-.02.02-.03l.76-.95s.01-.02.02-.03l.68-1.05s.01-.02.02-.03l.61-1.15s0-.02.01-.03l.04-.09-.34-.15.34.15.5-1.15s0-.02.01-.03l.38-1.1h0s.37-1.42.37-1.42c0,0,0-.02,0-.02l.29-1.49s0-.02,0-.02l.2-1.56s0-.01,0-.02l.12-1.62s0-.01,0-.02l.03-1.67s0-.01,0-.02l-.06-1.71Z"/>
      <path d="M75.92,138.87l.37-.68s.01-.02.02-.03l.32-.74-.33-.13.35.04.06-.57.16-.75s.01-.1,0-.15l-.11-.57s-.03-.09-.05-.13l-.61-.97-.18-1.06.03-.63.3-.48,1.16-.93h.02s-.01.25-.01.25l-.16,1.07-.2.59.71.23.21-.62s.01-.04.01-.06l.17-1.12s0-.03,0-.04l.05-1.13s0-.03,0-.04l-.08-1.13s0-.03,0-.04l-.19-1.13s0-.01,0-.02l-.51-2.32h-.05s-.08-.19-.08-.19c-.01-.04-.03-.07-.05-.1l-.12-.16-.11.08-.63-.33-.16-.24-.36-.77-.04-.73.06-.1v.12s.09,0,.09,0l.03.13.73-.16-.25-1.14s0-.01,0-.02l-.34-1.21s0-.01,0-.02l-.39-1.2s0-.02-.01-.03l-.5-1.15s-.01-.02-.02-.03l-.61-1.09s-.01-.02-.02-.03l-.71-1.03s0,0,0-.01l-1.49-1.96-.59.45.16.21-.07.07.54.55.26.34-.49-.02-.52-.42-.38-.72-.23-.57.07-.95h-.07s.1-.07.1-.07l-.19-.34.05-.04-.85-1.14s-.01-.02-.02-.03l-.71-.79s0-.01-.01-.02l-.73-.72s-.02-.02-.03-.03l-.8-.63s-.03-.02-.04-.03l-.87-.53s-.02-.01-.04-.02l-.94-.43-.05.1-.54-.1-.97-.2-.15.73.95.19.94.18.43.19.84.5.71.56-.72.28-.53.08-1.64.06-.43-.24-.82-.95-.47-1.2c-.03-.07-.08-.14-.15-.18l-1.06-.68s-.06-.03-.1-.04l-.46-.14s-.06-.01-.09-.01h-.46s-.07-.01-.1,0l-.61.14.17.73.56-.13h.37s.37.12.37.12l.91.58.45,1.15s.04.08.07.11l.91,1.05s.06.06.1.08l.22.12-3.4,1.34-1.77.17-1.29-.73-.72-.6s0,0,0,0l-.16-.13-.16.19-.04-.11-.16.06.07.21-.2.23.91.76s.04.03.06.04l1.42.81c.06.03.12.05.18.05.01,0,.02,0,.04,0l1.94-.18s.07-.01.1-.02l4.67-1.84.82-.03s.03,0,.04,0l.59-.09s.06-.01.08-.02l1.07-.42.16.16.69.77.51.68.29.49-.07.92c0,.06,0,.11.03.17l.27.67s.01.02.02.04l.31.58-11.78,4.69-1.45.35-1.02.05s-.02,0-.03,0l-1.12.14.1.74,1.11-.14,1.04-.06s.05,0,.07-.01l1.5-.37s.03,0,.05-.02l12.05-4.8.37.29c.06.05.14.08.22.08l.81.04s.01,0,.02,0c.03,0,.06,0,.09,0l.25-.06.07.09.7,1.01.59,1.06.48,1.11.39,1.17.3,1.04h0c-.05.04-.1.08-.13.13l-.44.7c-.04.07-.06.14-.06.22l.05.92s.01.09.03.14l.4.86s.02.04.03.05l.23.34c.03.05.08.09.14.12l.73.38.11.31.41,1.87.19,1.1v.06s-10.95,4.5-10.95,4.5c-.01,0-.03.01-.04.02l-.52.29s0,0-.01,0l-1.28.78h-.01s-.08.07-.11.11l-.43.61-.91,1.26.6.44.37-.51.94-1.32,1.22-.75.5-.28,10.71-4.39.02.24h0s-.39.17-.39.17c-.03.01-.06.03-.09.05l-1.25,1s-.06.06-.08.09l-.38.62c-.03.05-.05.12-.06.18l-.03.77s0,.05,0,.08l.18,1.09-2.44,1.01s-.07.04-.1.06l-1.87,1.58c-.07.06-.11.14-.13.23l-.13.87h0l-.11.7s0,.07,0,.11l.17,1.31-.57.67.57.49.26-.31.39.06.11-.77s0-.07,0-.1l-.18-1.38.1-.65-.37-.06.37.06.11-.73,1.72-1.46,2.44-1.01.33.53.08.43-.15.7s0,.03,0,.04l-.06.53-.29.66-.27.5-.52.49-.73.5h0s-.11.08-.11.08l.42.62.11-.08-.21-.31.21.31.75-.51s.03-.02.04-.04l.58-.54h.02ZM64.77,135.14l.02.03h0s-.02-.03-.02-.03Z"/>
      <path d="M239.4,136.44l.55,1.68s.02.05.03.07l.87,1.53s.03.05.05.07l1.11,1.23s.05.04.07.06l1.24.81s.07.04.11.05l1.25.31s.06.01.09.01c.02,0,.05,0,.07,0l1.14-.22c.06-.01.11-.04.16-.07l.91-.73s.08-.07.1-.12l.6-1.17s.03-.07.04-.11l.23-1.49s0-.06,0-.09l-.17-1.67s0-.05-.02-.08l-.55-1.68s-.02-.05-.03-.07l-.78-1.37s0,0,0,0l-.09-.16s-.03-.05-.05-.07l-1.11-1.23s-.05-.05-.07-.06l-1.24-.81s-.07-.04-.11-.05l-1.25-.31c-.05-.01-.11-.01-.16,0l-1.13.22c-.06.01-.11.04-.16.08l-.91.73s-.07.07-.1.12l-.6,1.17s-.03.07-.04.11l-.22,1.49s0,.06,0,.1l.17,1.66s0,.05.02.08ZM240.17,133.29l.53-1.04.77-.62.96-.19,1.11.27,1.15.75,1.05,1.16.83,1.46.52,1.61.16,1.58-.21,1.38-.53,1.04-.78.62-.96.19-1.11-.28-1.14-.75-1.05-1.16-.83-1.46-.52-1.6-.16-1.58.21-1.38Z"/>
      <path d="M11.8,34.09s0,.05.02.07l.52,1.58s.02.04.03.06l.8,1.42s.03.04.05.06l.99,1.13s.05.05.07.06l1.09.73s.08.04.12.05l1.09.25s.06,0,.08,0c.03,0,.06,0,.09-.01l.97-.25-.09-.36.26.27.76-.72s.07-.08.09-.13l.48-1.13s.02-.07.03-.11l.15-1.42s0-.06,0-.09l-.2-1.58s0-.05-.02-.07l-.52-1.58s-.02-.04-.03-.07l-.8-1.43s-.03-.04-.05-.06l-1-1.13s-.05-.05-.07-.06l-1.1-.73s-.08-.04-.12-.05l-1.09-.25c-.06-.01-.12-.01-.18,0l-.97.25.09.36-.26-.27-.76.72s-.07.08-.09.12l-.48,1.13s-.02.07-.03.11l-.15,1.42s0,.06,0,.08l.2,1.58ZM12.48,31.14l.43-1.01.64-.6.79-.2.93.21.98.65.95,1.08.76,1.36.5,1.51.19,1.5-.14,1.32-.43,1-.64.6-.79.2-.93-.22-1-.66-.93-1.06-.76-1.36-.5-1.51-.19-1.5.14-1.32Z"/>
      <path d="M218.68,131.76l.58,2.15s.01.04.02.06l.94,2.04s.02.04.03.06l1.24,1.8s.03.04.05.05l1.46,1.44s.05.04.07.06l1.56.97s.06.03.09.04l.61.17.1-.36-.1.36.97.27s.07.01.1.01c0,0,.02,0,.03,0l1.48-.11-.03-.37.17.33,1.28-.66s.08-.05.11-.09l1-1.17s.05-.07.06-.1l.64-1.6s.02-.06.02-.09l.24-1.92s0-.05,0-.08l-.18-2.11s0-.04-.01-.07l-.58-2.15s-.01-.04-.02-.06l-.95-2.05s-.02-.04-.03-.06l-1.25-1.81s-.03-.04-.05-.05l-1.46-1.44s-.04-.04-.07-.05l-1.58-.97s-.06-.03-.1-.04l-1.58-.44s-.09-.02-.13-.01l-1.48.12v.03s-.02-.05-.02-.05l-.1.04s-.02,0-.03.01l-1.28.67s-.08.05-.11.09l-.99,1.18s-.05.07-.06.1l-.63,1.6s-.02.06-.02.09l-.24,1.92s0,.05,0,.08l.18,2.1s0,.04.01.07ZM219.46,127.74l.59-1.5.9-1.07,1.15-.6,1.34-.11,1.47.41,1.5.92,1.41,1.39,1.21,1.75.92,1.99.56,2.09.17,2.04-.23,1.83-.6,1.5-.91,1.07-1.15.59-1.34.1-.9-.26h0s-.56-.16-.56-.16l-1.49-.93-1.4-1.38-1.2-1.75-.92-1.99-.56-2.08-.17-2.03.22-1.83Z"/>
      <path d="M30.73,47s0,.04.01.06l.57,2.04s.01.04.02.06l.89,1.93s.02.04.03.05l1.15,1.69s.03.04.04.05l1.33,1.34s.04.04.07.05l1.42.89s.06.03.1.04l1.41.39s.07.01.1.01c.01,0,.03,0,.04,0l1.31-.15-.04-.37.19.32,1.12-.67s.08-.06.11-.1l.85-1.15s.04-.07.05-.1l.53-1.55s.02-.06.02-.09l.16-1.85s0-.05,0-.07l-.21-2.02s0-.04-.01-.06l-.57-2.05s-.01-.04-.02-.06l-.89-1.94s-.02-.04-.03-.05l-1.15-1.7s-.03-.04-.04-.05l-1.33-1.34s-.04-.04-.07-.05l-1.42-.89s-.07-.03-.1-.04l-1.41-.38s-.09-.02-.14-.01l-1.31.16.04.37-.19-.32-1.12.68s-.08.06-.11.1l-.85,1.16s-.04.07-.05.1l-.52,1.55s-.02.06-.02.09l-.16,1.85s0,.05,0,.07l.21,2.01ZM31.41,43.18l.49-1.46.77-1.05.98-.6,1.16-.14,1.29.35,1.34.84,1.28,1.28,1.11,1.64.87,1.88.55,1.99.2,1.95-.16,1.77-.49,1.46-.77,1.04-.99.59-1.16.13-1.29-.35-1.33-.84-1.27-1.28-1.11-1.64-.86-1.88-.55-1.98-.21-1.94.15-1.77Z"/>
      <path d="M88.58,134.67l-.58-5.12s0,0,0,0h0s0-.03,0-.04l-.67-3.11h0l-.15-.68-.3-1.41s0-.02,0-.03l-.53-1.7-.36.11.36-.11-1.1-3.49s0-.02-.01-.03l-2.11-5.04s0-.02-.01-.03l-2.54-4.78s-.01-.02-.02-.03l-2.91-4.41s-.01-.02-.02-.03l-3.22-3.94s-.02-.02-.03-.03l-3.45-3.38s-.02-.02-.03-.03l-3.6-2.75s-.03-.02-.04-.03l-3.66-2.05s-.04-.02-.06-.03l-3.65-1.31s-.05-.01-.07-.02l-2.4-.37h0s-1.15-.18-1.15-.18c-.03,0-.05,0-.08,0l-3.38.23s-.06,0-.09.02l-3.12,1,.11.36-.2-.32-2.8,1.74s-.05.03-.07.05l-2.42,2.45s-.03.04-.05.06l-.45.7.31.2-.31-.2-1.54,2.39s-.02.04-.03.06l-1.51,3.67s-.01.04-.02.05l-.1.42h0l-.9,3.73s0,.03,0,.05l-.47,4.56s0,.03,0,.04l.06,4.85s0,.03,0,.04l.6,5.05s0,.02,0,.04l1.12,5.13s0,.02,0,.03l1.62,5.1s0,.02.01.03l2.08,4.96s0,.02.01.03l2.49,4.71s.01.02.02.03l2.85,4.35s0,0,0,0c0,0,.01.01.02.02l3.15,3.91s.02.02.03.03l2.54,2.53h0s.85.84.85.84c.01.01.02.02.03.03l.24.19,3.3,2.58s.03.02.04.03l3.62,2.09s.04.02.05.03l3.62,1.38s.04.01.07.02l3.54.62s.04,0,.06,0c0,0,.01,0,.02,0l3.39-.14s.06,0,.09-.01l3.15-.91s.06-.02.08-.04h0s0,0,0,0l2.85-1.66s.05-.03.07-.05l2.02-1.94h0s.45-.43.45-.43c.02-.02.04-.04.05-.06l2.05-3.04s.02-.04.03-.06l1.57-3.64s.01-.04.02-.06l.75-2.94h0l.31-1.22s0-.03,0-.05l.52-4.59s0-.03,0-.04l-.03-4.91s0-.03,0-.04ZM86.3,148.25l-.62,1.43h0s-.93,2.15-.93,2.15l-2.01,2.98-2.42,2.32-2.77,1.62-3.06.89-3.3.14-3.47-.61-3.56-1.35-2.19-1.26-1.39-.8-2.49-1.95h0s-.49-.38-.49-.38l-.49-.38-.84-.83-2.54-2.54-3.13-3.88-1.62-2.47-1.22-1.86-2.48-4.68-2.06-4.92-1.6-5.06-1.11-5.09-.59-5.01-.06-4.81.47-4.51.99-4.1,1.49-3.61,1.52-2.36h0l.43-.66,2.36-2.39,2.73-1.7,3.04-.97,2.54-.17.75-.05,3.48.53,3.59,1.29,3.61,2.02,3.56,2.72h0s.76.75.76.75h0l2.65,2.61,3.19,3.91,2.89,4.38,2.53,4.75,2.1,5.01,1.02,3.24h0s.07.23.07.23h0l.53,1.68.3,1.4.8,3.72.59,5.11v.02s.03,4.78.03,4.78v.08s-.52,4.54-.52,4.54l-1.05,4.11Z"/>
      <path d="M215.66,189.23s0-.03,0-.04l-1.11-5.38s0-.02,0-.04l-1.67-5.37s0-.02-.01-.03l-2.19-5.23s0-.02-.02-.03l-1.37-2.56s0,0,0,0l-.6-1.12-.69-1.29s0-.01-.01-.02c0,0,0,0,0-.01l-.61-.92-2.46-3.68s-.01-.01-.02-.02c0,0,0,0,0,0,0,0,0,0,0,0l-3.4-4.12s-.03-.03-.04-.04l-3.66-3.55s-.02-.02-.03-.03l-3.85-2.9s-.03-.02-.04-.03l-3.93-2.19s-.04-.02-.05-.02l-3.93-1.43s-.04-.01-.07-.02l-3.84-.64s-.05,0-.08,0l-3.67.16s-.06,0-.08.01h0s0,0,0,0l-3.41.96s-.06.02-.08.03l-3.07,1.73s-.05.03-.07.05l-1,.92-1.67,1.54s-.04.04-.05.06l-.97,1.37h0s-1.25,1.76-1.25,1.76c-.01.02-.02.04-.03.06l-1.71,3.73s-.02.04-.02.06l-1.17,4.25s0,.03-.01.05l-.61,4.67s0,.03,0,.05l-.03,4.99s0,.03,0,.04l.55,5.2.37-.04-.37.08,1.11,5.29s0,.02,0,.04l1.57,5.03.07.24s0,.02.01.03l2.15,5.14.34-.14-.33.18,2.61,4.89s.01.02.02.03l3.01,4.54s.01.02.02.03l3.34,4.08s.02.02.03.03l3.6,3.54s.02.02.03.03l3.79,2.92s.03.02.04.03l3.89,2.23s.03.02.05.02l3.9,1.5s.04.01.06.02l1.92.36,1.92.36s.05,0,.07,0c0,0,0,0,0,0l3.68-.07s.06,0,.08-.01l3.43-.86s0,0,0,0h0s0,0,0,0c.03,0,.06-.02.08-.03l3.12-1.64s.05-.03.07-.05l1-.87h0s1.74-1.52,1.74-1.52c.02-.02.04-.04.05-.06l2.28-3.08s.03-.04.04-.06l1.78-3.71s.01-.03.02-.05c0,0,0-.01,0-.02l.61-2.11.62-2.14s0-.03.01-.05l.66-4.7s0-.03,0-.05l.07-5.04s0-.03,0-.04l-.53-5.27ZM206.84,217.4l-2.93,1.54h0s-.11.06-.11.06l-3.35.84-3.59.07-1.09-.2-2.68-.5-2.86-1.1h0l-.98-.38-3.84-2.21-3.75-2.89-3.53-3.48-3.34-4.08h0s-2.99-4.52-2.99-4.52l-2.59-4.86-2.14-5.1-.07-.22h0s-1.57-5.02-1.57-5.02l-1.1-5.26-.54-5.16.03-4.94.6-4.62,1.16-4.19,1.68-3.67,1.23-1.74h0s.47-.66.47-.66l.48-.67,1.94-1.79.3-.27h0l.37-.34,3-1.69,3.32-.94,3.58-.16,3.77.63,3.87,1.41,3.89,2.16,3.81,2.87,1.82,1.76,1.82,1.76.99,1.2,2.39,2.9,3.05,4.57,1.28,2.39s0,0,0,0l1.36,2.54,2.18,5.2,1.65,5.29,1.11,5.38.52,5.2h0v.03s-.07,5-.07,5l-.65,4.65-.42,1.45h0s-.56,1.93-.56,1.93l-.24.82-.8,1.66-.95,1.98-2.24,3.02-1.51,1.32-.2.17h0l-.96.84Z"/>
      <path d="M86.38,133.86l-.53-4.66s0-.02,0-.04l-1.02-4.74s0-.02,0-.03l-.84-2.68s0-.01,0-.01l-.64-2.03s0-.02-.01-.03l-1.92-4.59s0-.02-.01-.03l-2.31-4.35s-.01-.02-.02-.03l-2.65-4.02s-.01-.02-.02-.03l-2.93-3.59s-.02-.02-.03-.03l-3.14-3.08s-.02-.02-.03-.03l-3.27-2.5s-.03-.02-.04-.03l-3.34-1.87s-.04-.02-.06-.03l-3.32-1.2s-.05-.01-.07-.02l-3.23-.5s-.05,0-.08,0l-3.07.21s-.06,0-.09.02l-2.85.91s-.06.02-.08.04l-2.55,1.58s-.05.03-.07.05l-2.21,2.22s-.03.04-.05.06l-1.81,2.81s-.02.04-.03.06l-1.38,3.34s-.01.04-.02.05l-.92,3.79s0,.03,0,.05l-.43,4.15s0,.03,0,.04l.06,4.42s0,.03,0,.04l.54,4.6s0,.02,0,.04l1.02,4.67s0,.02,0,.03l1.47,4.64s0,.02.01.03l1.89,4.52s0,.02.01.03l2.27,4.29s.01.02.02.03l2.6,3.97s.01.02.02.03l2.87,3.56s.02.02.03.03l3.08,3.07s.02.02.03.03l3.23,2.52s.03.02.04.03l3.3,1.91s.04.02.05.03l3.3,1.25s.04.01.07.02l3.23.57s.04,0,.06,0c0,0,.01,0,.02,0l3.08-.13s.06,0,.09-.01l2.87-.83s.06-.02.08-.04l2.59-1.52s.05-.03.07-.05l2.25-2.17s.04-.04.05-.06l1.86-2.77s.02-.04.03-.06l1.43-3.32s.01-.04.02-.06l.96-3.79s0-.03,0-.05l.47-4.17s0-.03,0-.04l-.03-4.47s0-.03,0-.04ZM85.45,140.17l-.64-.54.05-.24.63.47-.04.32ZM73.69,104.56l-.26-.28.03-.1.26.32-.03.06ZM60.28,97.29l-.55-2.39.2.03.43,2.36h-.08ZM77.48,150.59l.05-.03,1.61,3.42-.17.16-1.49-3.55ZM76.8,150.9l1.54,3.67-1.41.82h-.02s-1.31.03-1.31.03l-1.48-.13-1.51-.28-1.53-.44-1.55-.59-1.43-.67-.31-.15-.03-.51.02-1.64.11.04s.02,0,.03,0l1.3.37s.02,0,.03,0l1.29.24s.02,0,.04,0l1.26.11s.02,0,.03,0c0,0,0,0,0,0l1.24-.02s.03,0,.04,0l1.2-.15s.03,0,.04,0l1.16-.28s.02,0,.03,0l.52-.17.7-.26ZM45.34,103.53l.89-2.14.68-1.05.4.51-.31.75s0,.01,0,.02l-.14.41-.55,1.68s0,.02,0,.02l-.45,1.78s0,.02,0,.02l-.32,1.76-.02.11s0,.01,0,.02l-.24,1.94s0,.01,0,.02l-.13,2.01s0,.01,0,.02l-.02,2.07s0,.01,0,.02l.08,1.91-1.46,1.02c-.06.04-.1.09-.13.15l-.05-4.06.43-4.1.9-3.73.47-1.14h0ZM47.48,99.87l.16-.25,2.16,3.07-.06.09-2.26-2.91ZM43.96,118.6l1.59.44.13.93s0,.01,0,.02l.41,2.21s0,.01,0,.01l.51,2.2s0,.01,0,.02l.61,2.2s0,.01,0,.02l.71,2.19s0,.01,0,.02l.8,2.17s0,0,0,.01l.89,2.13s0,0,0,.01l.98,2.09s0,0,0,.01l.36.7h0s.41.79.41.79l-1.18,1c-.14.12-.17.32-.08.47l.8,1.39c.08.14.23.21.39.18l1.64-.29,1.08,1.69s0,0,0,.01l1.27,1.81s0,0,.01.01l1.33,1.72s0,0,.01.01l1.39,1.62s0,0,.01.01l1.43,1.51s0,0,.01.01l1.47,1.4s.01,0,.02.01l1.51,1.28s.01,0,.02.01l1.4,1.05-.1,1.4c0,.06,0,.12.03.18l-1.49-.86-3.19-2.49-3.05-3.04-2.85-3.53-2.58-3.94-2.25-4.26-1.88-4.48-1.46-4.61-1.01-4.64-.35-2.96c.05.06.11.1.19.12ZM65.4,154.12l1.97-.33.27.13,1.58.74s.02,0,.03.01l1.58.6s.02,0,.03,0l1.57.44s.02,0,.03,0l1.4.26-1.8.08-3.15-.55-3.24-1.23-.31-.18s.03,0,.05,0ZM67.01,152.68l.02.41-1.32.22.04-3.12.5.24s0,0,.01,0l.29.12s0,0,.01,0l.46.17-.03,1.92s0,.02,0,.03ZM64.97,153.11l-.35-.2.22-3.17.09.05s.02,0,.02.01l.06.03-.04,3.27ZM64.02,150.81l-1-.75-1.49-1.26-1.46-1.39-1.42-1.5-1.38-1.61-1.32-1.71-1.26-1.8-1.05-1.65.09-.1.18.29s0,0,0,.01l1.06,1.51s0,0,.01.01l1.11,1.44s0,0,.01.01l1.16,1.35s0,0,.01.01l1.2,1.26s0,0,.01.01l1.23,1.17s.01,0,.02.01l1.26,1.07s.01,0,.02.01l1.28.96s.01,0,.02.01l1.29.85s.01,0,.02.01l.49.28-.1,1.47ZM53.22,138.48s0,0-.01.01l-.24.27-.64.11.77-.8.2.32-.08.09ZM51.35,138.82l-.4-.69,1.45-1.23.29.51-1.35,1.41ZM51.99,136.27l-.33-.64-.33.17.33-.17-.36-.69-.97-2.07-.02-.05.73,1.55s0,0,0,.01l.89,1.7s0,0,0,.01l.09.16-.03.02ZM48.64,128.6l-.7-2.18-.61-2.19-.5-2.18-.41-2.19-.08-.61.27.07.04.4s0,.01,0,.02l.25,1.82s0,.01,0,.02l.34,1.84s0,.01,0,.02l.43,1.84s0,.01,0,.02l.51,1.84s0,.01,0,.02l.55,1.69-.09-.24ZM44.41,117.95l-.06-.67,2.14.79.04.47-2.12-.58ZM44.72,116.62l.87-.61.33.15s.02,0,.02,0l.46.17.04.91-1.72-.64ZM46.73,111.06l-.13,1.07h0l-.07.55s0,.01,0,.02l-.11,1.68s0,.01,0,.02v1.15s-.2-.07-.2-.07l-.3-.13-.08-1.87.02-2.05.13-1.99.23-1.92.02-.1.32-1.74.44-1.75.54-1.66.14-.39.14-.34,1.49,1.92-.12.18s-.01.02-.02.03l-.63,1.23s0,.02-.01.02l-.67,1.61s0,.02,0,.03l-.46,1.4s0,.02,0,.02l-.38,1.48s0,.02,0,.02l-.29,1.55s0,.02,0,.02ZM50.27,102.04l-2.12-3,1.17-.77.22.36s0,.01.01.02l1.51,2.14.11.17-.43.45s-.02.02-.02.03l-.46.6ZM67.37,156.15l-3.24-1.23-3.25-1.88-3.19-2.49-3.05-3.04-2.85-3.53-2.58-3.94-2.25-4.26-1.88-4.48-1.46-4.61-1.01-4.64-.54-4.56-.06-4.38.43-4.1.9-3.73,1.35-3.28,1.77-2.75.72-.72-1.61,2.49s-.02.04-.03.06l-.9,2.17.35.14-.35-.14-.48,1.16s-.01.04-.02.05l-.92,3.79s0,.03,0,.05l-.44,4.15s0,.03,0,.04l.05,4.42s0,.03,0,.04l.54,4.6s0,.02,0,.04l1.02,4.67s0,.02,0,.03l1.47,4.64s0,.02.01.03l1.89,4.51s0,.02.01.03l2.27,4.29s.01.02.02.03l2.6,3.97s.01.02.02.03l2.87,3.56s.02.02.03.03l3.08,3.07s.02.02.03.03l3.23,2.52s.03.02.04.03l3.3,1.9s.04.02.05.03l3.3,1.25s.04.01.07.02l2.41.42-.61.03-3.15-.55ZM84.65,144.6s0,0,0,0l-.41,1.61-1.41,3.26-1.53,2.27-.63-1.33s0,0,0-.01l-.42-.8c-.03-.06-.07-.11-.13-.14l-.43-.28-.4.63.35.22.37.71.78,1.66-1.08,1.04-1.62-3.45s0,0,0,0l-.04-.08c-.04-.09-.12-.16-.22-.19-.1-.03-.2-.03-.29.02l-.7.36h0s-.98.37-.98.37l-.49.16-1.12.27-1.16.14-1.2.02-1.23-.11-1.25-.23-1.27-.36-1.29-.49-.27-.11-1.29-.6-1.28-.72-1.27-.83-1.26-.95-1.24-1.05-1.22-1.15-1.18-1.25-1.15-1.34-1.1-1.42-1.05-1.5-1-1.57-.94-1.63-.88-1.68-.81-1.73-.74-1.77-.67-1.8-.59-1.81-.51-1.83-.42-1.83-.34-1.82-.25-1.81-.16-1.78-.07-1.75.02-1.71.1-1.61.07-.58-.37-.05.37.05.13-1.06.28-1.53.37-1.46.45-1.38.54-1.3.12-.28.62-1.21.69-1.1.77-1,.83-.89.9-.77.96-.66,1.02-.54.47-.22.67-.29-.29-.69-.68.29s0,0-.01,0l-.48.23s0,0-.01,0l-1.05.56s-.02.01-.04.02l-.99.68s-.02.02-.03.03l-.86.74-1.53-2.17-.35-.58.09-.15.92-1.21.58-.62.82-.51,1.61-.51,2.99-.2,2.09.32.68,2.95.36-.08-.03.37.84.06h0s.02,0,.03,0c.04,0,.08,0,.12-.02l1.16-.38-.23-.71-.75.25-.37-2,1.51.54.09.65-.15.41.7.25.18-.5c.02-.06.03-.12.02-.18l-.05-.35.22.08,3.29,1.84,3.23,2.47,3.1,3.05v.02s-.24.76-.24.76l.35.12-.27.26.81.85h0c.07.07.17.12.27.12.02,0,.04,0,.06,0l.66-.1,1.25,1.54,2.63,3.99,2.3,4.32,1.91,4.56.11.36-.07.02c-.1.03-.19.09-.24.18s-.06.2-.03.3l.4,1.24h0c.05.15.19.26.35.26,0,0,.02,0,.02,0h.18s.74,2.33.74,2.33l1.01,4.71.52,4.62.03,4.42-.07.65-.76-.56c-.1-.08-.24-.09-.36-.05-.12.05-.21.15-.23.28l-.2,1.04c-.03.13.02.27.13.36l1.19,1-.16,1.41-.54,2.12Z"/>
      <path d="M208.26,212.8l2.08-2.81s.03-.05.04-.07l1.62-3.37s.02-.04.02-.06l1.12-3.87s0-.03.01-.05l.6-4.28s0-.03,0-.05l.06-4.59s0-.03,0-.04l-.48-4.8s0-.03,0-.04l-1.01-4.9s0-.02,0-.04l-1.52-4.88s0-.02-.01-.03l-1.99-4.76s0-.02-.02-.03l-1.47-2.74s0,0,0,0l-.95-1.78s-.01-.02-.02-.03l-2.79-4.19s-.01-.02-.02-.03l-3.1-3.75s-.02-.02-.03-.03l-3.34-3.24s-.02-.02-.03-.03l-3.5-2.65s-.03-.02-.04-.03l-3.58-2s-.04-.02-.05-.02l-3.58-1.3s-.04-.01-.07-.02l-3.5-.58s-.05,0-.08,0l-3.34.15s-.06,0-.08.01l-3.11.87s-.06.02-.08.03l-2.8,1.57s-.05.03-.07.05l-2.44,2.24s-.04.04-.05.06l-2.02,2.85s-.03.04-.03.06l-1.56,3.4s-.02.04-.02.06l-1.07,3.87s0,.03-.01.05l-.55,4.25s0,.03,0,.05l-.03,4.55s0,.03,0,.04l.5,4.74s0,.03,0,.04l1.01,4.8v.02s.01.02.01.03l1.5,4.8s0,.02.01.03l.67,1.6s0,0,0,.01l1.28,3.07s0,.02.01.03l2.38,4.46s.01.02.02.03l2.74,4.13s.01.02.02.03l3.04,3.72s.02.02.03.03l3.28,3.23s.02.02.03.03l3.45,2.66s.03.02.04.03l3.54,2.03s.03.02.05.02l3.55,1.36s.04.01.06.02l3.49.65s.05,0,.07,0c0,0,0,0,0,0l3.35-.07s.06,0,.08-.01l3.13-.79s.06-.02.08-.03l2.84-1.5s.05-.03.07-.05l2.49-2.18s.04-.04.05-.06ZM212.81,199.66l-.69-.57.06-.29.67.49-.05.36ZM186.16,153.08l.34,1.97h-.15s-.45-2.04-.45-2.04l.12.02.14.05ZM179.34,152.6l3.26-.14,2.51.42.57,2.59.36-.08-.03.37.91.08h0s.02,0,.03,0c.04,0,.08,0,.12-.02l1.18-.4-.24-.71-.77.26-.28-1.59,1.51.55.02.17-.15.44.71.25.18-.52s0-.04.01-.05l.29.1,3.53,1.97,3.46,2.62,3.29,3.19-.14.37.35.13-.26.26.86.89h0c.07.07.17.11.27.11.02,0,.04,0,.06,0l.29-.05,1.67,2.02,2.77,4.16.95,1.77h0l1.46,2.73,1.98,4.73v.02s-.07.07-.1.12c-.05.09-.06.2-.03.3l.41,1.29h0c.05.15.18.25.34.26l.89,2.86,1,4.86.48,4.76-.06,4.55-.03.24-.81-.59c-.1-.07-.23-.09-.35-.05-.12.04-.21.14-.23.27l-.24,1.07c-.03.14.02.28.13.37l1.22,1.01-.27,1.92-1.11,3.82-1.59,3.32-1.62,2.19-.84-1.78s0,0,0-.01l-.43-.83c-.03-.06-.07-.11-.13-.14l-.44-.28-.41.63.35.23.39.74.99,2.1-1.15,1-1.86-3.94c-.09-.19-.31-.27-.49-.18l-.75.35-.42.15-1.2.39-1.22.25-1.27.12h-1.3s-1.33-.15-1.33-.15l-1.36-.27-1.38-.4-1.39-.53-.28-.12-1.38-.65-1.38-.77-1.37-.89-1.35-1-1.33-1.11-1.3-1.21-1.26-1.31-1.22-1.4-1.17-1.49-1.11-1.57-1.05-1.64-.99-1.7-.92-1.75-.85-1.8-.77-1.83-.65-1.77-.63-1.97-.51-1.89-.42-1.89-.33-1.88-.23-1.86-.14-1.83-.04-1.8.05-1.75.15-1.7.24-1.64.34-1.57.43-1.49.52-1.42.11-.28.61-1.33.69-1.23.78-1.12.85-1.01.92-.9.99-.78,1.06-.66.46-.23,1.15-.55.68-.31-.31-.68-.68.31-1.12.54-.52.26s-.02.01-.03.02l-1.09.68s-.02.02-.03.02l-1.02.8s-.02.02-.03.03h0s-.06-.09-.06-.09c0,0,0,0,0-.01l-1.67-2.34-.39-.64.09-.13.77-.92,1.4-.79,2.26-.63ZM192.45,212.46l-1.33.25.11-3.23.64.3s0,0,.01,0l.29.12.33.12-.07,1.96s0,.02,0,.03l.02.44ZM190.38,212.53l-.44-.24.3-3.29.19.11s.02,0,.02.01h.03s-.11,3.41-.11,3.41ZM189.39,210.2l-1.29-.96-1.59-1.33-1.56-1.46-1.51-1.57-1.46-1.68-1.4-1.78-1.34-1.88-1.11-1.72.15-.16.07-.07.34.52s0,0,0,.01l1.12,1.58s0,0,.01.01l1.18,1.5s0,0,.01.01l1.23,1.42s0,0,.01.01l1.27,1.33s0,0,.01.01l1.31,1.23s.01,0,.02.01l1.34,1.12s.01,0,.02.01l1.37,1.01s.01,0,.02.01l1.39.9s.01,0,.02.01l.49.27-.15,1.6ZM177.77,197.12s0,0-.01.01l-.28.29-.52.1.84-.8.15.23-.18.17ZM175.85,197.54l-.44-.75,1.66-1.28.33.56-1.55,1.47ZM176.51,195l-.82-1.56-1.01-2.15-.92-2.2-.82-2.23-.72-2.25-.61-2.26-.51-2.26-.39-2.25-.08-.62.56.16.03.43s0,.01,0,.02l.24,1.88s0,.01,0,.02l.33,1.9s0,.01,0,.02l.43,1.9s0,.01,0,.02l.52,1.9s0,.01,0,.02l.61,1.89s0,.01,0,.02l.69,1.87s0,.01,0,.02l.77,1.85s0,0,0,.01l.85,1.81s0,0,0,.01l.93,1.76s0,0,0,.01l.07.13-.19.14ZM169.93,173.86l.36.16s.01,0,.02,0l.72.27.02.98-2.03-.76.9-.67ZM171.08,176.09l.04.5-2.39-.68-.06-.72,2.41.9ZM171.49,168.88s0,.02,0,.02l-.25,1.66s0,.01,0,.02l-.15,1.72s0,.01,0,.02l-.04,1.18-.46-.17-.34-.15-.05-1.93.06-2.1.18-2.04.29-1.97.4-1.88.52-1.8.12-.39.63-1.71.23-.5,1.79,2.27-.12.18s-.01.02-.02.03l-.71,1.25s0,.02-.01.03l-.62,1.35s0,.02-.01.02l-.64,1.73s0,.02,0,.03l-.44,1.51s0,.02,0,.02l-.34,1.59ZM172.42,157.39l.21-.3,2.33,3.26-.09.13-2.44-3.1ZM175.44,159.75l-2.29-3.21,1.2-.82.24.39s0,.01.01.02l1.67,2.34.14.21-.4.39s-.02.02-.03.03l-.55.65ZM171.81,157.83l.3.38-.39.86s0,.02-.01.03l-.64,1.73s0,.01,0,.02l-.64,2.22s0,.02,0,.02l-.41,1.91s0,.02,0,.02l-.3,1.99s0,.01,0,.02l-.18,2.06s0,.01,0,.02l-.06,2.12s0,.01,0,.02l.05,1.98-1.47,1.09c-.1.08-.16.2-.15.33l.12,1.57c.01.16.12.29.27.33l1.57.44.12.94s0,.01,0,.02l.4,2.27s0,.01,0,.02l.51,2.28s0,.01,0,.02l.62,2.28s0,.01,0,.02l.72,2.27s0,.01,0,.02l.83,2.24s0,.01,0,.02l.93,2.21s0,0,0,.01l1.02,2.17s0,0,0,.01l.89,1.69-1.21.93c-.15.11-.19.32-.1.48l.84,1.45c.08.14.24.21.39.18l1.64-.32,1.14,1.76s0,0,0,.01l1.35,1.89s0,0,.01.01l1.41,1.8s0,0,.01.01l1.47,1.7s0,0,.01.01l1.52,1.59s0,0,.01.01l1.57,1.47s.01,0,.02.01l1.61,1.35s.01,0,.02.01l1.64,1.22s.01,0,.02.01h0s-.13,1.4-.13,1.4c-.01.15.06.29.19.36l1.18.66c.08.04.16.06.25.04l1.98-.37.26.13,1.7.8s.02,0,.03.01l1.7.65s.02,0,.03,0l1.69.49s.02,0,.03,0l1.67.33s.02,0,.03,0l1.65.17s.02,0,.04,0h.28s-.91.23-.91.23l-3.27.07-3.42-.64-3.5-1.34-3.49-2-3.41-2.63-3.25-3.19-3.02-3.69-2.72-4.1-2.33-4.38-1.97-4.69-1.49-4.77-1-4.78-.49-4.69.03-4.5.55-4.2,1.05-3.81,1.54-3.34,1.04-1.47ZM204.35,214.93l-1.14.11h-1.57s-1.61-.18-1.61-.18l-1.64-.33-1.66-.48-1.67-.64-1.54-.72-.31-.15-.02-.53.06-1.69.35.13s.02,0,.03,0l1.41.41s.02,0,.03,0l1.39.28s.02,0,.03,0l1.37.14s.02,0,.04,0h1.34s.03,0,.04,0l1.31-.13s.03,0,.04,0l1.26-.26s.03,0,.04-.01l1.18-.38.15-.05,1.73,4.13-.63.33ZM205.61,214.15l-1.66-3.96.11-.05,1.79,3.8-.24.21ZM192.77,216.1l-3.5-1.34-3.49-2.01-3.41-2.63-3.25-3.2-3.02-3.69-2.72-4.1-2.36-4.43-1.28-3.06s0,0,0-.01l-.66-1.58-1.49-4.77-1-4.79-.49-4.7.03-4.5.55-4.21,1.05-3.82,1.53-3.34,1.98-2.79.46-.42-1.53,2.16s-.03.04-.03.06l-1.56,3.4s-.02.04-.02.06l-1.07,3.87s0,.03-.01.05l-.55,4.25s0,.03,0,.05l-.03,4.54s0,.03,0,.04l.5,4.73s0,.03,0,.04l1.01,4.82s0,.02,0,.03l1.5,4.8s0,.02.01.03l1.96,4.68s0,.02.02.03l2.38,4.45s.01.02.02.03l2.74,4.13s.01.02.02.03l3.04,3.72s.02.02.03.03l3.28,3.22s.02.02.03.03l3.45,2.66s.03.02.04.03l3.54,2.03s.03.02.05.02l3.56,1.36s.04.01.06.02l3.02.57-.96.02-3.42-.64Z"/>
      <path d="M296.75,119.79l-.25-2.59s0-.05-.02-.08l-.84-2.61s-.02-.05-.03-.07l-1.36-2.37s-.03-.05-.05-.07l-1.73-1.9s-.05-.05-.07-.06l-1.94-1.24s-.03-.02-.05-.03L41.64.4s-.05-.02-.07-.02l-1.69-.37c-.06-.01-.12-.01-.18,0l-1.51.4s-.02,0-.03.01l-16.64,6.15s0,0,0,0L2.38,13.64h0s-.09.05-.13.08l-1.18,1.13s-.07.08-.09.12l-.74,1.76s-.02.07-.03.11L0,19.06s0,.03,0,.04l.46,24.55s0,.03,0,.04l.31,2.43s0,.05.02.07l.81,2.44s.02.04.03.06l1.23,2.2s.03.04.04.06l1.53,1.75s.05.05.07.06l.47.32.08,4.34-1.87.71h0s-.09.04-.12.08l-1.17,1.1s-.07.08-.09.13l-.73,1.72s-.02.07-.03.11l-.22,2.18s0,.03,0,.04l2.04,109.75s0,.01,0,.02l.09,1.21c0,.13.09.25.21.31l.93.46-.33.16c-.13.06-.21.2-.21.34l.24,13.05-.02.36c0,.06.01.13.04.19l.28.54s.06.09.11.13l.36.27s.04.03.06.04l2.22,1.13,246.75,122.66,2.58,1.25c.05.02.11.04.16.04,0,0,.01,0,.02,0l.94-.05c.05,0,.11-.02.15-.04l.25-.13,30.66-14.41.45-.21s.06-.03.09-.06l.27-.24s0,0,.01-.01l.51-.5s.05-.05.06-.08l.27-.48.87-1.46.33-.53s.03-.06.04-.09l.24-.79s.02-.07.02-.1l.43-15.35.54-26.98v-.95c0-.09-.03-.17-.09-.24l-.38-.46,1.16-.53c.13-.06.21-.19.22-.33l3.36-131.55s0-.03,0-.05ZM21.76,7.28l.97-.26h0s.43-.12.43-.12l1.56.35,82.86,36.43,165.72,72.87,1.88,1.21,1.68,1.84.32.56h0l1,1.75.82,2.54.18,1.83.07.7-.56,24.42h0s0,0,0,0l-.28,12.08h0l-.23,9.84h0l-1.36,59.08-.53,23.14h0l-.02.75-.04,1.67-.26,2.31-.74,2.61-8.04,20.12s0,0,0,0l-4.24,10.6-.71,1.37-.98,1.34-1.11,1.1-1.06.7-1.64.77-.02-.7,2.34-115.98s0-.03,0-.04l-.26-2.58s0-.05-.02-.08l-.85-2.61s-.02-.05-.03-.07l-1.35-2.38s-.03-.04-.05-.06l-1.73-1.92s-.05-.04-.07-.06l-1.93-1.27s-.03-.02-.05-.03l-121.59-55.63,3.39-1.38,122.22,55.79,1.87,1.23,1.67,1.85,1.31,2.31.82,2.53.25,2.53c.02.19.18.34.37.34,0,0,0,0,.01,0,.2,0,.35-.17.36-.37l.44-20.99c0-.2-.14-.36-.34-.38-.2-.02-.37.12-.4.31l-.35,2.25-.87,1.67-1.33,1.04-2.25.98.78-1.5s.03-.08.04-.12l.36-2.31s0-.03,0-.05l.53-26s0-.03,0-.04l-.26-2.61s0-.05-.02-.08l-.85-2.63s-.02-.05-.03-.07l-1.36-2.39s-.03-.05-.05-.07l-1.74-1.92s-.05-.05-.07-.06l-1.94-1.26s-.03-.02-.05-.03L5.85,13.64s-.05-.02-.07-.02l-.72-.16,16.71-6.17ZM7.75,57.21l1.38-.34,1.55.37,113.49,51.8,1.01,2s.02.04.04.06l1.71,2.21s.06.06.09.09l2.61,1.67s.07.04.1.04l.79.22-.9.94-1.53.58-2.45-.68-2.51-1.61-1.65-2.14-1.05-2.07c-.04-.08-.1-.14-.18-.17L6.64,58.19s-.04-.02-.07-.02l-.82-.2,2-.76ZM3.49,50.5l-1.19-2.14-.79-2.37-.3-2.38-.46-24.51.22-2.13.68-1.64,1.05-1.01,1.32-.35,1.56.35,248.44,110.39,1.88,1.22,1.68,1.85,1.33,2.32.83,2.55.25,2.54-.52,25.95-.34,2.22-.87,1.67-1.29,1.01-1.6.29-1.84-.47-28.11-12.82-.16.34.15-.34-94.3-43.01-1.03-1.91s-.02-.03-.03-.05l-1.72-2.31s-.06-.07-.09-.09l-2.53-1.67s-.07-.04-.11-.05l-2.53-.64c-.08-.02-.17-.01-.24.02l-1.71.75s-.08.04-.11.07l-.9.86-20.76-9.47-.15.34.15-.34-55.35-25.24h0S6.58,53.28,6.58,53.28l-1.62-1.09-1.48-1.69ZM5.73,53.61l.46.31s.03.02.05.03l37.44,17.08.15-.34-.15.34,55.35,25.24h0s20.99,9.57,20.99,9.57c.05.02.1.03.15.03.05,0,.09,0,.14-.03l3.68-1.49,1.35.34,2.42,1.6,1.66,2.24,1.07,2c.04.07.1.13.17.16l94.42,43.06h0l28.14,12.84s.04.02.06.02l1.95.5s.06.01.09.01c.02,0,.04,0,.07,0l1.77-.32s.06-.01.08-.03h0s4.35-1.89,4.35-1.89l-.15-.34.23.29,1.43-1.12s.08-.07.1-.12l.53-1.01-.29,13.83h0s-.46-1.4-.46-1.4c0-.02-.02-.05-.03-.07l-1.35-2.38s-.03-.05-.05-.07l-1.73-1.92s-.05-.04-.07-.06l-1.93-1.27s-.03-.02-.05-.03l-122.39-55.86-.16.34-.14-.35-3.62,1.47-1.5-.42-2.51-1.6-1.65-2.13-1.06-2.08c-.04-.08-.1-.14-.18-.17L10.96,56.55s-.04-.02-.07-.02l-1.67-.4c-.06-.01-.12-.01-.18,0l-1.49.37.09.36-.13-.35-1.7.65-.06-3.55ZM3.61,173.23L1.57,63.51l.21-2.1.68-1.6,1.04-.98,1.31-.32,1.55.37,113.47,51.91,1.01,1.99s.02.04.04.06l1.71,2.22s.06.06.09.09l2.62,1.67s.07.04.1.05l2.62.73c.08.02.16.02.23-.01l1.72-.65c.05-.02.1-.05.14-.09l.89-.94,122.11,55.87,1.87,1.23,1.67,1.86,1.32,2.31.82,2.53.25,2.51-2.34,115.98s0,.01,0,.02l.02.65-.97-.47-.16.34h0s.15-.33.15-.33l-.9-.44-.03-.99,1.41-71.61h0l.87-44.12s0-.03,0-.04l-.18-1.74s0-.05-.02-.08l-.48-1.47s-.02-.05-.03-.07l-.76-1.34s-.03-.04-.05-.06l-.97-1.09s-.05-.04-.07-.06l-1.3-.86s-.03-.02-.05-.03l-27.89-12.79-.16.34.16-.34-94.21-43.19s-.04-.02-.06-.02c-.04-.01-.08-.01-.11-.01-.1,0-.19.04-.26.12l-.48.5-.09.1h0l-.44.47-1.53.58-2.45-.68-2.51-1.61-.75-.97-.9-1.17-1.05-2.06c-.04-.08-.1-.14-.18-.17l-20.88-9.57-1.05-.48s-.01,0-.01,0l-41.37-18.97-13.76-6.31h0S6.88,61.48,6.88,61.48h0s0,0,0,0c-.02,0-.04-.02-.07-.02l-1.13-.27c-.06-.01-.12-.01-.18,0l-.85.21s-.08.03-.11.05c-.02.01-.04.02-.05.04l-.66.62s-.07.08-.09.13l-.41.97s-.02.07-.03.11l-.15,1.47s0,.03,0,.04l2,109.56.02.56-1.49-.74-.07-.99ZM253.86,310.46l-20.72-10.28.23-13.89h0l.03-1.55h0c0-.15-.08-.28-.21-.34l-5.31-2.61h0s-.04-.02-.04-.02h0s-.75-.37-.75-.37l-.1-.05h0s-.79-.39-.79-.39c-.11-.06-.25-.05-.36.02-.11.07-.18.18-.18.31l-.18,11.99-.05,3.07-16.46-8.17-.04-.5h0l-.19-2.65-.23-2.84s0-.05-.01-.07l-.76-2.75s-.02-.06-.04-.09l-1.45-2.39c-.03-.05-.08-.1-.13-.13l-2.04-1.2s-.1-.04-.15-.05l-1.84-.2h0s0,0,0,0l-.04.37-.23-.3-1.38,1.04c-.07.05-.11.12-.14.2l-.57,2.11h0s-.01.06-.01.09l-.03,2.23-.04-.02h0s-.32-.15-.32-.15l-2.28-3.08s0-.01-.01-.02l-.39-.47-2.46-2.93s-.03-.04-.05-.05c0,0,0,0,0,0l-3.18-2.53s-.04-.03-.06-.04l-2.54-1.33s-.06-.03-.09-.03l-2.55-.58-.76-1.23-1.65-2.66s-.03-.04-.05-.06l-1.5-1.55s-.05-.04-.08-.06h0s-1.63-.98-1.63-.98c-.04-.02-.08-.04-.12-.05l-.8-.16-.8-.16c-.06-.01-.11,0-.17,0l-1.4.38s-.09.04-.13.06c-.01,0-.03.02-.04.03l-1.08,1.04s-.04.04-.05.06c0,0,0,0,0,.01-.01.02-.02.04-.03.06l-.65,1.59s-.02.07-.03.1l-.22,2.27s0,.02,0,.03l-.02,2.51-35.94-17.84h0s-.36-.18-.36-.18l-.28-6.71c0-.06-.02-.11-.04-.16l-9.77-18.16-.11-7,.57-.1h0s.63-.11.63-.11c.03,0,.06-.01.09-.03l1.1-.49h0s1.04-.45,1.04-.45c.03-.01.06-.03.08-.05l.97-.78s.08-.08.1-.13l1.21-2.48s.03-.08.03-.12l.42-3.21s0-.06,0-.09l-.41-3.62s0-.05-.02-.07l-1.21-3.67s-.02-.04-.03-.07l-1.89-3.36s-.03-.04-.04-.06l-2.63-3.11v-4.38s1.33-1.73,1.33-1.73c.05-.07.08-.14.08-.23v-3.1c0-.05,0-.1-.03-.15h0s0,0,0,0l-.67-1.53-.7-1.58.06-2.82.03-1.26h0,0s0-1.99,0-1.99c0-.05-.01-.1-.03-.15l-.89-2.03s-.05-.09-.09-.13l-1.44-1.3c-.06-.06-.14-.09-.23-.1l-1.07-.06s-.05,0-.07,0l-.54.08.02.13-.1-.08-.89,1.18c-.05.06-.08.14-.08.23v1.98s.05,4.1.05,4.1l-1.32,1.74c-.05.07-.08.14-.08.23v3.1c0,.05.01.1.03.15l1.37,3.1-.05,4.12v.11s-2.17.48-2.17.48l-.24.05.08.36-.24-.29-1.87,1.53s-.08.08-.1.13l-1.2,2.49s-.03.07-.03.11l-.41,3.2s0,.06,0,.09l.42,3.6s0,.05.02.07l1.2,3.65s.02.04.03.07l1.87,3.34s.03.04.04.06l2.18,2.5-10.23-5h0s-12.24-5.98-12.24-5.98h0s-.1-.04-.16-.04h0c-.21,0-.37.17-.37.37l.11,26.3-37.95-18.83h0s-.46-.23-.46-.23l-.11-10.76v-.08c0-.12-.06-.23-.16-.3l-.06-.04-7.72-5.39-7.29-6.12-6.71-6.76-6.26-7.47s-.08-.07-.12-.1l-6.4-3.13c-.18-.09-.39-.02-.49.15l-6.25,11.18-7.5-3.59s-.08-.03-.13-.04l-1.13-.1c-.07,0-.15,0-.21.04l-.81.43c-.06.03-.11.08-.15.15l-.38.68s-.03.05-.03.08l-.24.87s-.01.05-.01.07l-.06.99s0,.02,0,.04l.11,3.34-2.64-1.31-.03-.63-.28-9.74h0s0,0,0,0l-.03-1.22-.2-11.14-1.82-100.01.14-1.39.05-.12h0l.31-.73.53-.5.66-.16,1,.24,36.27,16.63.15-.33v.02s-.15.32-.15.32l56.2,25.77,20.76,9.52,1,1.98s.02.04.04.06l1.72,2.23s.06.06.09.08l2.41,1.54-.56-.14-.09.36-.08-.37-1.04.22c-.06.01-.12.04-.17.08l-.83.71s-.07.08-.1.12l-.53,1.12s-.03.07-.03.11l-.18,1.43s0,.06,0,.09l.18,1.6s0,.05.02.07l.53,1.61s.02.05.03.07l.83,1.47s.03.04.05.06l1.04,1.18s.05.05.07.06l1.15.77s.07.04.12.05l1.16.29s.06.01.09.01c.03,0,.05,0,.08,0l1.04-.21c.06-.01.12-.04.17-.08l.83-.7s.07-.08.1-.12l.53-1.12s.03-.07.03-.11l.18-1.43s0-.06,0-.09l-.18-1.6s0-.05-.02-.07l-.53-1.62s-.02-.05-.03-.07l-.83-1.47s-.03-.04-.05-.06l-1.04-1.18-.28.25.21-.31-.93-.62,1.98.55s.07.01.1.01c.04,0,.09,0,.13-.02l1.72-.65c.05-.02.1-.05.14-.09l.88-.93,93.97,43.08h0s27.87,12.78,27.87,12.78l1.24.82.92,1.02.46.81.27.47.45,1.4.17,1.67-.87,44.1-1.42,71.55h0s-.02,1-.02,1l-.04,3.11v.56s0,0,0,0l-.12,8.9ZM203.32,281.13s0,0,.01.01l.67.58s.1.07.16.08l-.1.04-.48-.41-.74-.69-.02-.07.49.46ZM205.21,280.09l-.05.16s0,.02-.01.03l-.12.38-.21.1.27-.87.3-.47-.18.68ZM205.51,283.02l.82.65s.07.04.1.06l.51.19v.14s-.44-.16-.44-.16l-.72-.57-.33-.28.05-.02ZM206.75,283.05l-.72-.57-.6-.51.14-.49.29-.93.37-.59.58,2.17.08.98-.14-.05ZM205.01,278.67s-.07.06-.1.1l-.48.76s-.03.06-.04.09l-.3.99-.05.16-.22-.19-.74-.69-.14-.38.2-.42.49-.46.81-.45.31-.15.51.28.08.13-.33.23ZM203.24,277.99s-.05.03-.07.05l-.58.54s-.06.07-.08.11l-.3.63c-.04.09-.05.19-.01.29l.08.23-.23.22c-.06.06-.1.14-.11.22h0s-.1.8-.1.8c0,.03,0,.06,0,.1l.1.73-.75.34.25-2.71.4-1.56.81-.61,1.22.14.09.05-.73.41ZM203.09,281.98s0,0,.01.01l.49.42-.14.5s0,0,0,.01l-.1.43-.57-.93-.12-.85.43.41ZM203.99,283.97l-.02-.05.2-.81.16-.55.23-.11-.08.28s-.05.07-.06.12l-.21.73s0,0,0,.01l-.09.37-.13.02ZM204.92,283.78l.05-.17.22.19s0,0,.01,0l.89.71s.07.05.11.06l.83.3.02.15-.22.09-.71.15-.82-.14-.5-.33-.07-.23.19-.8ZM207.55,282.03s0-.05-.01-.07l-.61-2.27s-.02-.06-.04-.09l-1.04-1.76c-.03-.06-.08-.1-.14-.14l-1.54-.86s-.09-.04-.14-.04l-1.44-.17c-.1-.01-.19.01-.27.07l-1.03.78c-.07.05-.12.12-.14.2l-.44,1.71s0,.04-.01.06l-.27,2.92-1.4-.45-2.49-3.3s0,0-.01-.01l-2.7-3.22s-.03-.04-.05-.05l-2.95-2.35s-.04-.03-.06-.04l-2.33-1.21s-.05-.02-.08-.03l-2.91-.78-1.3-1.96-1.37-2.21s-.03-.04-.05-.06l-1.22-1.26s-.05-.04-.08-.06l-1.32-.8s-.08-.04-.12-.05l-1.3-.26c-.06-.01-.11,0-.17,0l-1.14.31c-.06.02-.12.05-.16.09l-.88.84s-.07.08-.09.13l-.53,1.3s-.02.07-.03.11l-.19,2.05-.27,3.23-37.68-18.69-.02-.31h.32s-.17.32-.17.32l37.03,18.38c.12.06.25.05.36-.02.11-.07.18-.19.18-.32l.02-3.09.03-.27h0s.19-1.93.19-1.93l.6-1.47.95-.91,1.23-.33.84.17.6.12.45.27,1.08.65,1.44,1.48,1.39,2.23,1.07,1.75c.05.09.14.15.24.17l2.65.6,2.47,1.29,3.12,2.49,2.82,3.36,2.32,3.14s.08.09.14.11l.4.19.16-.34-.16.34.18.09h0s.39.19.39.19l.16-.34h.37s.03-2.77.03-2.77l.53-1.94,1.16-.88,1.62.17,1.89,1.11,1.38,2.27.73,2.66.18,2.22.29,3.92-.48-3.75-.21-2.64ZM183.31,268.99l-7.29,3.31.26-3.14.19-1.99.48-1.18.75-.72.97-.26,1.15.23,1.22.74,1.16,1.19,1.13,1.83ZM105.88,216.18l-.33.67,14.33,7.02-19.04,9.93v-.86s0-.02,0-.03l-.1-23.62,10.61,5.17h0s12.02,5.85,12.02,5.85c.05.03.11.04.16.04.05,0,.1-.01.15-.03l6.95-3.02-.3-.69-6.42,2.78.03-1.59c0-.09-.03-.18-.09-.25l-2.57-3.11-1.63-2.91-1.05-3.17-.36-3.11.35-2.74,1-2.08,1.55-1.26,2.87-.81s.03,0,.05-.02l2.4-1.03.03,2.1c0,.08.03.16.08.23l2.95,3.67,1.65,2.94,1.05,3.19.36,3.13-.31,2.38-.57-.28-.33.67.67.32-.83,1.7-4.53,1.96c-.14.06-.23.2-.22.34l.04,6.59-20.64-10.12ZM100.09,208.43s-.02.02-.02.03v-.36s11.57,5.65,11.57,5.65h0s11.03,5.39,11.03,5.39c.05.03.11.04.16.04.07,0,.15-.02.21-.06.07-.04.11-.11.14-.18v.45s-11.63-5.66-11.63-5.66h0s-11.02-5.37-11.02-5.37c-.14-.07-.32-.04-.43.07ZM124.44,180.48l-.04-1.47.34-.45.55.03.72.65.48,1.09-.04,1.37-.03,2.79-.45.39s-.02.02-.03.03l-.6.69c-.05.05-.08.12-.09.19l-.17,1.15s0,.07,0,.11l.13.9c.01.1.07.19.15.25l.19.14c.06.05.13.07.21.07h.21s0,.04,0,.04l-.32.19c-.15.09-.22.28-.16.45l.32.9s.02.04.03.06l.57,1s.06.08.1.11l.19.15.94.68s.01,0,.02.01l-1.18,1.54c-.05.07-.08.15-.08.23l.04,2.79-2.15.92.14-5c0-.06,0-.11-.03-.16l-1.37-3.12v-2.13s1.32-1.75,1.32-1.75c.05-.06.08-.14.08-.23v-4.6ZM126.3,185.98l.25,1.22s0,0,0,.01l.12.47h-.13s-.62-.02-.62-.02l-.1-.67.15-.98.35-.4-.04.25s0,.09,0,.13ZM126.8,189.48h.33s.16.65.16.65c0,0,0,0,0,.01l.24.82-.39-.28-.12-.09-.51-.91-.08-.21h.36ZM129.92,219.36c.05-.01.11-.04.15-.07l1.67-1.35s.08-.08.1-.13l1.08-2.2s.03-.08.03-.12l.37-2.85s0-.06,0-.09l-.37-3.21s0-.05-.02-.07l-1.07-3.26s-.02-.05-.03-.07l-1.68-2.99s-.02-.04-.03-.05l-2.89-3.59-.08-5.44,1.32-1.73c.05-.07.08-.14.08-.23v-2.33c0-.05,0-.1-.03-.15l-1.37-3.13.04-4.47.05-1.56c0-.06,0-.11-.03-.16l-.54-1.24s-.05-.09-.09-.13l-.88-.79c-.06-.06-.14-.09-.23-.1l-.88-.05c-.12,0-.24.05-.32.15l-.54.72c-.05.07-.08.15-.08.24l.05,1.59v4.46s-1.32,1.75-1.32,1.75c-.05.07-.08.14-.08.23v2.33c0,.05.01.1.03.15l1.37,3.11-.14,5.22-2.68.75s-.1.04-.13.07l-1.67,1.37s-.08.08-.1.13l-1.07,2.21s-.03.08-.03.11l-.36,2.84s0,.06,0,.09l.37,3.2s0,.05.02.07l1.07,3.24s.02.04.03.07l1.66,2.97s.02.04.04.06l2.5,3.03v.58s-.04-.43-.04-.43c0-.08-.04-.16-.09-.22l-2.34-2.68-1.84-3.28-1.18-3.58-.41-3.51.4-3.09,1.14-2.36,1.74-1.43,2.61-.58c.17-.04.29-.19.29-.36l.06-4.61c0-.05-.01-.11-.03-.16l-1.37-3.11v-2.89s.07-.09.07-.09h0l1.25-1.65c.05-.07.08-.15.08-.23l-.04-3.87v-2.2s.66-.87.66-.87l.25-.04.9.05,1.29,1.16.83,1.88v1.9s-.09,4.16-.09,4.16h0c0,.05,0,.11.03.16l1.37,3.11v2.9s-1.33,1.73-1.33,1.73c-.05.07-.08.15-.08.23v1.42h0v3.22h0c0,.08.02.15.07.21,0,0,.01.02.02.03l2.7,3.19,1.85,3.3,1.19,3.6.4,3.53-.41,3.1h0s-1.14,2.35-1.14,2.35l-.87.7-1,.44.15.34-.15-.34-1.06.47-1.47.25c-.18.03-.31.19-.31.37l.12,7.41c0,.06.02.12.04.17l9.77,18.16.2,4.85-.34-4.92c0-.05-.02-.1-.04-.15l-9.77-18.17-.05-8.09,2.71-.64ZM208.45,288.75l17.18,8.53c.05.03.11.04.17.04.07,0,.13-.02.19-.05.07-.04.11-.1.14-.17v.49s-17.85-8.81-17.85-8.81l-.04-.31c.01.12.09.23.2.29ZM227.1,283.34v-1.11s1.97.97,1.97.97l3.58,1.76-.16,10.02-5.61,2.61.22-14.25ZM9.67,189.27l-.12-3.72.06-.93.21-.79.3-.55.31-.16-.07.05s-.07.08-.1.12l-.28.58c-.04.08-.05.17-.02.26l.07.25-.18.16c-.07.06-.11.14-.12.23h0s-.1.75-.1.75c0,.03,0,.06,0,.08l.13,1.35c0,.05.02.11.05.15l.65,1.12s.02.03.04.05l.54.66h0c.07.08.17.14.29.14.02,0,.03,0,.05,0l.12-.02s0,0,0,0l.16.42c.03.07.07.13.13.17l.6.45s.09.05.14.06l.87.2s.06,0,.08,0c.02,0,.04,0,.07,0l.8-.14s.05-.01.07-.02l.87-.33.48-.14c.1-.03.19-.11.24-.21l1.62-3.63,1.46.7-2.73,4.88-.97.64-5.72-2.84ZM10.51,186.81l-.06-.66.27.29s0,0,.01.01l.43.42-.13.46s0,.01,0,.02l-.06.26-.45-.78ZM12.93,184.1l-.15.54-.12.18s-.03.06-.05.09l-.11.35-.12.05.25-.78.3-.44ZM11.67,186.31h0s0,0,0,0c0,0,0,0,0,0ZM11.91,187.3l-.2.67s0,.01,0,.02l-.07.3h-.05s-.01-.03-.01-.03l.18-.73.14-.49.23-.1-.04.15c-.08.05-.15.12-.18.22ZM12.43,188.17l.02-.07.14.14s0,0,.01.01l.8.7s.07.05.11.07l.79.32s.09.03.14.03c.02,0,.04,0,.05,0h.03s-.34.13-.34.13l-.69.12-.72-.16-.45-.33-.08-.21.18-.73ZM13.7,188.21s.03.01.04.02l.78.32.05.05h-.08s-.64-.25-.64-.25l-.15-.14ZM15.35,187.74l-.64.09-.64-.26-.74-.66-.42-.41.13-.45.27-.85.4-.59.52-.35,2.56,1.23-.03.03s-.03.03-.04.04l-.55.61s-.04.05-.06.08l-.75,1.49ZM12.45,183.47l-.47.7s-.04.06-.05.1l-.29.92-.02.08-.05-.05-.74-.76-.1-.37.18-.38.5-.42.37-.19.71.34s-.03.03-.04.05ZM126.51,121.55l.99,1.11.79,1.4.51,1.55.17,1.52-.17,1.33-.47,1-.69.59-.87.18-1.01-.26-1.06-.71-.98-1.11-.79-1.4-.51-1.54-.17-1.52.17-1.33.47-1,.69-.59.86-.18,1.01.25,1.06.71ZM291.41,252.68l.33.39v.8s-.97,42.27-.97,42.27l-.21.69-.31.49-.88,1.47-.25.44-.46.45-.22.2-31.06,14.61s-.01,0-.02,0l-.19.1-.77.04-2.49-1.21L7.4,190.91l-2.41-1.23-.26-.2-.19-.38v-.28s.01-.02.01-.02v-.14s.06.09.11.13c0,.12.07.24.17.31.06.04.13.06.2.06.05,0,.1,0,.14-.03l.09-.04,10.32,5.06c.05.03.11.04.16.04.05,0,.1-.01.14-.03h0s14.66-6.09,14.66-6.09c.02,0,.04-.02.05-.03l1.6-.98c.06-.03.1-.08.13-.14l2.62-4.73-.65-.36-2.57,4.65-1.49.91-12.29,5.1,8.86-16.12-.65-.36-9.1,16.56-1.33.82-9.75-4.77-.73-.36-.23-12.32.19.09.03,1.2h-.01s.19,10.55.19,10.55c0,.12.07.24.17.31.01,0,.03.02.04.02h0s9.63,4.78,9.63,4.78c.12.06.26.05.37-.02l1.23-.81s.09-.08.12-.13l9.21-16.49,6.01,2.94,6.22,7.42s.01.02.02.02l6.73,6.78s.02.02.02.02l7.32,6.14s.02.01.03.02l7.64,5.33v.18s0,0,0,0l.1,10.35v.35h0s0,.02,0,.04c0,0,0,0,0,.01,0,.02,0,.04.01.06,0,0,0,0,0,.01,0,.02.01.03.02.05,0,0,0,.01,0,.02.01.02.02.04.04.05,0,0,0,0,0,0,.01.01.02.03.04.04,0,0,.01,0,.02.01.02.01.04.02.05.03,0,0,0,0,0,0l39.16,19.43c.05.03.11.04.17.04.07,0,.14-.02.2-.06.06-.04.1-.09.13-.15.03.06.08.12.14.15.06.04.13.05.19.05.06,0,.12-.01.17-.04l20.07-10.47,5.81,2.85v1.05c0,.06.02.12.05.17l9.78,18.18.5,7.36c0,.13.09.25.21.31l38.37,19.02c.05.03.11.04.17.04.05,0,.11-.01.15-.03l7.98-3.61,1.2,1.81c.05.08.13.13.21.15l3,.81,2.26,1.18,2.89,2.3,2.67,3.19,2.55,3.39c.05.06.11.11.18.13l1.96.64s.08.02.12.02c.05,0,.11-.01.16-.03l1.14-.52s.02.04.03.07l.71,1.16s.03.04.04.06l.61.67h0c.07.08.17.12.27.12.02,0,.04,0,.06,0l.2-.03.14.44c.03.08.08.15.15.19l.67.44s.09.05.14.06l.97.16s.04,0,.06,0c.03,0,.05,0,.08,0l.81-.17s.05-.01.07-.02l.06-.02.42,3.26c.02.12.09.23.2.29l18.55,9.16c.05.03.11.04.17.04s.11-.01.16-.03l5.82-2.71-.08,4.59c0,.14.08.28.21.34l21.39,10.62.15-.3h.46s.12-9.48.12-9.48l.06-2.81.62.31s.06.02.09.03l1.45.71c.05.03.11.04.16.04s.11-.01.16-.04l2.18-1.02s.03-.02.05-.03l1.11-.74s.04-.03.06-.05l1.15-1.15s.03-.03.04-.04l1.02-1.39s.02-.03.03-.05l.73-1.42s.01-.02.01-.03l4.24-10.61s0,0,0,0l8.05-20.15s0-.02.01-.04l.75-2.66s0-.04.01-.06l.06-.49.82-.81.94-.62,11.45-5.29h0s1.26-.58,1.26-.58l.17.08ZM292.65,251.13l-15.67,7.24v-.36s.05-1.68.05-1.68h0l2.14-92.81h-.37s.37,0,.37,0l.22-9.45h0l.62-27.07h0s0-.03,0-.04l-.25-2.6s0-.05-.02-.08l-.85-2.62s-.02-.05-.03-.07l-1.36-2.38s-.03-.05-.05-.07l-.76-.83-.98-1.08s-.05-.05-.07-.06l-1.94-1.25s-.02,0-.03-.01-.02,0-.03-.01L24.99,6.56s-.02,0-.02,0c-.02,0-.03-.01-.05-.02l-.71-.16,14.19-5.24,1.41-.37,1.56.34,248.7,108.36,1.88,1.2,1.67,1.83,1.32,2.3.82,2.53.24,2.52-3.35,131.29Z"/>
      <path d="M99.03,92.98h0s0,0,0,0h0s21,9.56,21,9.56c.02.01.04.02.07.02,0,0,.01,0,.02,0,.02,0,.04,0,.06,0,0,0,0,0,.01,0,0,0,0,0,0,0,.02,0,.04,0,.06,0,0,0,.01,0,.02,0,.02,0,.03,0,.05-.01,0,0,.01,0,.02,0,.01,0,.03-.01.04-.02,0,0,.01,0,.02-.01.02-.01.04-.03.05-.04l1.01-.98,1.45-.64.09-.04,2.36.59,2.44,1.6,1.67,2.25,1.05,1.97s.02.04.03.05c.04.05.09.09.14.11l25.97,11.82,68.5,31.17h0s0,0,0,0h0s27.95,12.72,27.95,12.72c.02,0,.04.02.06.02l1.31.33s.06.01.09.01c.02,0,.05,0,.07,0l1-.18c.06-.01.12-.04.16-.07l.12-.09.21-.17h0s.47-.37.47-.37c.04-.03.08-.07.1-.12l.48-.93h0s.05-.09.05-.09c.02-.04.03-.07.04-.11l.24-1.56s0-.03,0-.05l.37-18.82s0-.01,0-.01l.04-2.19h-.37s.37,0,.37,0l.09-4.42s0-.03,0-.04l-.18-1.76s0-.05-.02-.08l-.48-1.48s-.02-.05-.03-.07l-.77-1.35s-.03-.05-.05-.07l-.98-1.09s-.05-.04-.07-.06l-1.31-.85s-.03-.02-.05-.03L6.09,16.97s-.05-.02-.07-.02l-1.13-.26c-.06-.01-.12-.01-.18,0l-.85.22h0s0,0,0,0c-.06.02-.12.05-.16.09l-.44.42h0s-.23.22-.23.22l.26.27-.34-.14-.42.99s-.02.07-.03.11l-.15,1.49s0,.03,0,.04l.44,24.06s0,.03,0,.04l.21,1.64s0,.05.02.07l.46,1.38s.02.04.03.06l.45.8.25.45s.03.04.05.06l.87.99s.05.05.07.06l1.14.76s.03.02.05.03l67.75,30.83,24.9,11.33ZM4.17,47.32l-.14-.43-.29-.87-.2-1.59-.44-24.02.14-1.41.36-.87.54-.52.63-.17,250.23,111.44.9,1,.73,1.28.46,1.41.17,1.69-.09,4.4h0l-.04,2.19s0,.01,0,.01l-.37,18.8-.23,1.47-.02.03h0s-.45.86-.45.86l-.41.32h0s-.26.2-.26.2l-.83.15-1.2-.31-12.83-5.84-109.43-49.8-1-1.88s-.02-.03-.03-.05l-1.73-2.32s-.06-.07-.09-.09l-2.54-1.68s-.07-.04-.11-.05l-2.54-.63c-.08-.02-.16-.01-.24.02l-1.72.75s-.08.04-.11.07l-.87.85-11.56-5.26-18.98-8.64-45.11-20.53h0s0,0,0,0h0S6.71,50.15,6.71,50.15l-.64-.43-.43-.29-.81-.92-.66-1.18Z"/>
    </g>
  </g>
</svg>