<?xml version="1.0" encoding="UTF-8"?>
<svg id="Layer_2" data-name="Layer 2" xmlns="http://www.w3.org/2000/svg" viewBox="0 0 363.93 254.55">
  <g id="Layer_1-2" data-name="Layer 1">
    <g>
      <path d="M163.63,103.79v.04s.47-.03.47-.03l-.44.17.1.3s.02.04.03.07l10.47,20.86s.03.05.04.07l.2.28s.07.08.11.11l.26.2s.1.06.15.08l.27.1c.06.03.13.04.2.04h.31c.06,0,.13-.02.19-.04l.28-.11s.06-.03.09-.05l124.76-79.11s.06-.04.08-.07l.2-.19c.05-.05.1-.12.12-.19l.1-.25c.03-.07.04-.14.04-.22v-.28c-.02-.06-.03-.13-.06-.19l-.12-.28s-.05-.09-.08-.13l-.22-.26s-.03-.03-.05-.05l-.25-.22s0-.02-.01-.02l-.19-.21s-.03-.03-.05-.05l-4.81-4.16-12.47-10.94s-.03-.03-.05-.04l-.3-.21s-.07-.04-.1-.06l-.35-.14s-.07-.02-.11-.03l-.37-.06s-.09,0-.13,0l-.34.03c-.05,0-.1.02-.15.04l-.29.12s-.06.03-.08.04l-116.74,73.35s-.05.04-.08.06l-.23.21s-.08.08-.1.13l-.16.29s-.04.09-.05.14l-.07.34s-.01.1-.01.14l.02.35h0ZM175.31,124.88l-.13-.19-10.43-20.8-.07-.2v-.09s.02-.09.02-.09h0s.24.19.24.19c0,.04.02.08.03.11l.1.28s.02.04.03.06l9.75,19.84s.02.05.04.07l.16.24s.07.08.11.11l.19.15s.1.06.15.08l.21.07c.06.02.12.03.18.03h.23s.06-.02.08-.02l-.37.24-.16.07h-.08s-.12-.04-.12-.04l-.13-.1ZM300.02,45.07h0s-123.94,78.58-123.94,78.58l-.1.04h-.03s-.1-.06-.1-.06l-.1-.14-9.71-19.78-.07-.2v-.16s.02-.14.02-.14l.06-.1.11-.1,115.93-72.86.14-.06h.15s.19.01.19.01l.19.07.2.13,12.15,10.5.04.03h0s4.75,4.1,4.75,4.1l.11.13Z"/>
      <path d="M261.15,64.53l-.52.06.51-.12-.1-.43s0-.03-.01-.04l-.11-.36s-.02-.06-.03-.08l-.18-.34s-.03-.06-.05-.08l-2.26-2.88.93-1.14s.05-.07.07-.11l.15-.32c.03-.06.04-.12.05-.18l.03-.37s0-.12-.01-.16c0-.01,0-.02,0-.04l-.09-.38s-.03-.1-.06-.14l-.21-.35s-.05-.08-.09-.11l-.3-.29s-.07-.06-.11-.08l-.36-.21s-.09-.04-.13-.05l-.39-.1s-.13-.02-.18-.01l-.39.02c-.06,0-.12.02-.17.04l-.34.14c-.06.02-.12.06-.16.1l-.26.24s-.03.03-.05.05l-.36.44-.08-.07s-.04-.03-.07-.05l-.33-.22s-.04-.02-.06-.03l-.35-.17s-.04-.02-.07-.03l-.36-.11s-.05-.01-.08-.02l-.36-.06s-.05,0-.08,0h-.36s0,0,0,0h-.03s0,0,0,0l-.39.02s-.05,0-.07,0l-.37.07s-.05.01-.08.02l-.35.12s-.07.03-.1.05l-.3.19s-.07.05-.09.08l-.25.25s-.04.05-.06.07l-.2.29s-.03.05-.04.07l-.15.32s-.03.07-.03.1l-.08.35s-.01.1-.02.13l-.02.34s0,.06,0,.09l.05.38s0,.06.02.08l.11.38s.02.06.04.09l.19.37s.03.06.06.09l4.7,6s.04.05.07.07l.32.28s.05.04.07.05l.36.22s.04.02.06.03l.39.17s.05.02.07.03l.4.11s.05.01.08.02l.4.05s.04,0,.06,0c0,0,.02,0,.02,0l.39-.02s.05,0,.07,0l.37-.07s.06-.01.08-.02l.35-.12s.07-.03.1-.05l.3-.19s.06-.05.09-.07l.25-.25s.04-.05.06-.07l.2-.29s.03-.05.04-.07l.15-.32s.03-.07.03-.1l.08-.35s.01-.06.01-.1l.02-.37s0-.06,0-.09l-.05-.38ZM256.09,62.9c.06-.02.12-.06.16-.1l.19-.18.96,1.23.09.17.06.18.03.18v.14s-.14.02-.14.02h-.18s-.01,0-.01,0l-1.25-1.6.09-.04ZM254.71,58.76h-.01s-.06,0-.09,0h-.26s-.05,0-.07.01l-.25.04s-.06.01-.09.02l-.23.08s-.08.03-.11.05l-.12.07.09-.14.1-.1.11-.07.16-.05.2-.03h.22s.22.03.22.03l.16.05-.03.04ZM252.67,59.85h.05s-.17.13-.17.13l-.04-.05.16-.08ZM257.55,66.1l.05.02v.03s-.06-.03-.06-.03v-.02ZM259.07,62.82s-.09.08-.12.14l-.06-.12s-.03-.06-.06-.09l-1.21-1.54.09-.11,1.35,1.72ZM257.11,57.49l.16-.15.17-.07h.25s.25.05.25.05l.24.14.2.2.13.23.06.25v.19s-.1.18-.1.18l-1.97,2.41s-.02.03-.02.03l-.71.87-.16.15-.17.07h-.15s-.91-1.16-.91-1.16l.03-.07,2.7-3.31Z"/>
      <path d="M213.82,94.47l-.52.06.51-.13-.1-.4s-.01-.05-.01-.05l-.11-.36s-.02-.06-.04-.09l-.18-.35s-.03-.06-.05-.08l-2.29-2.93.88-1.09s.05-.07.07-.11l.15-.33c.03-.06.04-.12.05-.18l.03-.38s0-.1,0-.14c0,0,0-.05-.01-.06l-.09-.38s-.03-.1-.06-.14l-.21-.36s-.05-.08-.09-.11l-.3-.3s-.07-.06-.11-.08l-.37-.21s-.09-.04-.13-.05l-.4-.1s-.09-.02-.14-.02c0,0-.03,0-.04,0l-.4.02c-.06,0-.12.02-.17.04l-.35.14c-.06.02-.12.06-.16.1l-.26.25s-.04.04-.05.06l-.3.38-.06-.05s-.04-.04-.07-.05l-.34-.22s-.04-.02-.06-.03l-.36-.17s-.04-.02-.07-.03l-.36-.11s-.05-.01-.08-.02l-.36-.06s-.04,0-.06,0h-.35s-.02.52-.02.52l-.03-.53-.39.02s-.05,0-.07,0l-.38.07s-.06.01-.08.02l-.35.13s-.07.03-.1.05l-.31.19s-.07.05-.09.08l-.25.25s-.04.05-.06.07l-.2.3s-.03.05-.04.07l-.15.33s-.03.07-.04.1l-.09.36s-.01.06-.01.09c0,0,0,.04,0,.04l-.02.34s0,.06,0,.09l.04.39s0,.06.02.08l.11.39s.02.06.04.09l.19.37s.03.06.06.09l4.73,6.06s.04.05.07.07l.32.28s.05.04.08.06l.37.22s.04.02.07.03l.39.17s.05.02.07.03l.4.11s.05.01.08.02l.4.05s.04,0,.06,0c0,0,.02,0,.03,0l.39-.02s.05,0,.07,0l.38-.07s.05-.01.08-.02l.35-.13s.07-.03.1-.05l.31-.19s.07-.05.09-.08l.25-.26s.04-.05.06-.07l.2-.3s.03-.05.04-.07l.15-.33s.03-.06.03-.1l.09-.36s.01-.06.01-.1l.02-.38s0-.06,0-.09l-.05-.39ZM208.71,92.83c.06-.02.12-.06.16-.1l.22-.2.97,1.25.09.17.06.18.03.18v.16s-.03,0-.03,0l-.16.03h-.17s-.05,0-.05,0l-1.25-1.6.13-.05ZM207.32,88.65h0s-.06,0-.09,0h-.26s-.05.01-.07.01l-.25.04s-.06.01-.09.02l-.23.08s-.07.03-.11.05l-.15.09h0s.1-.16.1-.16l.1-.11.12-.07.16-.06.21-.03h.22s.23.03.23.03l.15.05-.04.05ZM205.14,88.12l-.18-.03.04-.06.14.09ZM205.2,89.79h.07s-.16.12-.16.12l-.04-.05.12-.06ZM212.78,94.67h0s0,0,0,0h0ZM211.72,92.75s-.09.08-.12.14l-.06-.12s-.03-.06-.06-.09l-1.23-1.57.09-.11,1.37,1.76ZM209.66,87.41l.16-.15.17-.07h.25s.25.05.25.05l.24.14.2.2.13.23.06.25-.02.2-.09.18-2.65,3.29-.16.15-.17.07h-.19s-.9-1.15-.9-1.15l.05-.11,2.65-3.3Z"/>
      <path d="M287.14,48.08l-.52.07.52-.11-.09-.43s0-.03-.01-.05l-.11-.35s-.02-.06-.04-.08l-.18-.34s-.03-.06-.05-.08l-2.25-2.86.94-1.15s.05-.07.07-.11l.15-.32c.03-.06.04-.12.05-.18l.03-.37s0-.11-.01-.15c0-.02,0-.03,0-.05l-.1-.37s-.03-.09-.06-.14l-.21-.35s-.05-.08-.09-.11l-.3-.29s-.07-.06-.11-.08l-.36-.21s-.08-.04-.13-.05l-.39-.1c-.05-.01-.1-.02-.15-.02l-.42.02c-.06,0-.11.02-.17.04l-.34.13c-.06.02-.12.06-.16.1l-.26.24s-.03.03-.05.05l-.38.46-.08-.07s-.04-.03-.07-.05l-.33-.21s-.04-.02-.06-.03l-.35-.17s-.04-.02-.07-.03l-.36-.11s-.05-.01-.08-.02l-.36-.06s-.05,0-.08,0h-.36s0,0,0,0h-.02s0,0,0,0l-.38.02s-.05,0-.07,0l-.37.07s-.06.01-.08.02l-.34.12s-.07.03-.1.05l-.3.19s-.07.05-.09.08l-.24.25s-.04.05-.06.07l-.2.29s-.03.05-.04.07l-.15.32s-.03.07-.03.1l-.08.35s-.01.06-.01.09c0,0,0,.03,0,.04l-.02.34s0,.06,0,.09l.05.38s0,.06.02.08l.11.38s.02.06.04.09l.19.37s.03.06.06.09l4.69,5.97s.04.05.07.07l.32.28s.05.04.07.05l.36.22s.04.02.06.03l.38.17s.05.02.07.03l.4.11s.05.01.08.02l.4.05s.04,0,.06,0c0,0,.02,0,.02,0l.38-.02s.05,0,.07,0l.37-.07s.06-.01.08-.02l.34-.12s.07-.03.11-.05l.3-.19s.07-.05.09-.08l.24-.25s.04-.05.06-.07l.19-.29s.03-.05.04-.07l.15-.32s.03-.07.03-.1l.08-.35s.01-.06.01-.1l.02-.37s0-.06,0-.09l-.05-.38ZM282.08,46.49c.06-.02.12-.06.16-.1l.2-.18.96,1.22.09.17.06.18.03.18v.13s-.14.02-.14.02h-.16s-1.25-1.58-1.25-1.58l.05-.02ZM280.72,42.35h-.01s-.06,0-.09,0h-.26s-.05,0-.07.01l-.25.04s-.06.01-.08.02l-.22.08s-.08.03-.11.05l-.1.06.08-.13.1-.1.11-.07.15-.05.2-.03h.21s.22.03.22.03l.16.05-.03.04ZM278.72,43.41h.04s-.18.14-.18.14l-.04-.05.18-.09ZM283.6,49.66h.02s-.01.03-.01.03h-.02s0-.03,0-.03ZM285.06,46.39s-.09.08-.12.14l-.06-.12s-.03-.06-.06-.09l-1.2-1.53.09-.11,1.34,1.71ZM283.13,41.07l.16-.15.16-.07h.25s.24.05.24.05l.24.14.2.2.13.23.06.24v.2s-.09.17-.09.17l-2.73,3.32-.16.15-.16.06h-.1s-.94-1.19-.94-1.19v-.03s2.74-3.32,2.74-3.32Z"/>
      <path d="M187.09,111.39l-.52.06.51-.14-.23-.81s-.02-.06-.04-.09l-.18-.35s-.03-.06-.05-.08l-2.3-2.95.86-1.08s.05-.07.06-.1l.16-.33c.03-.06.04-.12.05-.18l.03-.38c0-.05,0-.11-.01-.16,0,0,0-.04,0-.04l-.09-.38s-.03-.1-.06-.14l-.21-.36s-.05-.08-.09-.11l-.3-.3s-.07-.06-.11-.08l-.37-.21s-.09-.04-.13-.05l-.4-.1s-.08-.02-.13-.02c0,0-.04,0-.05,0l-.4.02c-.06,0-.12.02-.17.04l-.35.14c-.06.02-.11.06-.16.1l-.27.25s-.04.04-.05.06l-.28.35-.05-.05s-.04-.04-.07-.05l-.34-.22s-.04-.02-.06-.03l-.36-.17s-.05-.02-.07-.03l-.37-.11s-.05-.01-.08-.02l-.37-.05s-.04,0-.06,0h-.35s-.02.51-.02.51l-.03-.53-.4.02s-.05,0-.07,0l-.38.07s-.05.01-.08.02l-.35.13s-.07.03-.1.05l-.31.2s-.06.05-.09.07l-.26.26s-.04.05-.06.07l-.21.3s-.03.05-.04.07l-.16.33s-.03.07-.04.1l-.09.36s-.01.1-.02.13l-.02.35s0,.06,0,.09l.04.39s0,.06.02.08l.11.39s.02.06.04.09l.19.38s.03.06.06.09l4.75,6.1s.04.05.07.07l.33.29s.05.04.07.05l.37.23s.04.02.06.03l.39.17s.05.02.07.03l.41.11s.05.01.08.01l.41.05s.04,0,.06,0c0,0,.02,0,.03,0l.4-.02s.05,0,.07,0l.38-.07s.06-.01.08-.02l.35-.13s.07-.03.1-.05l.31-.2s.07-.05.09-.08l.25-.26s.04-.05.06-.07l.2-.3s.03-.05.04-.07l.16-.33s.03-.07.04-.1l.09-.36s.01-.06.01-.09l.02-.38s0-.06,0-.09l-.04-.39ZM181.97,109.72c.06-.02.11-.06.16-.1l.22-.21.98,1.25.09.17.06.19.03.18v.17s-.05.01-.05.01l-.16.03h-.17s-.07,0-.07,0l-1.25-1.61.17-.07ZM180.6,105.47l-.04.05s-.06,0-.09,0h-.27s-.05.01-.07.02l-.26.04s-.06.01-.09.02l-.23.08s-.07.03-.11.05l-.16.1h0s.1-.17.1-.17l.11-.11.12-.08.16-.06.21-.03h.22s.23.03.23.03l.15.05ZM178.33,104.99l-.16-.02.04-.05.12.08ZM178.4,106.69h.09s-.15.11-.15.11l-.04-.05.1-.05ZM184.98,109.66s-.09.08-.12.14l-.06-.12s-.03-.06-.06-.09l-1.23-1.59.09-.11,1.38,1.78ZM182.88,104.3l.17-.15.18-.07h.26s.25.05.25.05l.25.14.2.2.13.23.06.26-.02.2-.09.19-2.62,3.28-.17.15-.18.07h-.23s-.88-1.12-.88-1.12l.07-.14,2.62-3.29Z"/>
      <path d="M274.17,56.29l-.52.06.51-.11-.1-.43s0-.03-.01-.05l-.11-.35s-.02-.06-.03-.08l-.18-.34s-.03-.06-.05-.08l-2.25-2.86.95-1.16s.05-.07.07-.11l.15-.32c.03-.06.04-.12.05-.18l.03-.37s0-.11-.01-.15c0-.02,0-.03,0-.05l-.1-.38s-.03-.1-.06-.14l-.21-.35s-.05-.08-.09-.11l-.3-.29s-.07-.06-.11-.08l-.36-.21s-.08-.04-.13-.05l-.39-.1c-.05-.01-.13-.02-.18-.01l-.39.02c-.06,0-.12.02-.17.04l-.34.14c-.06.02-.12.06-.16.1l-.26.24s-.03.03-.05.05l-.38.46-.08-.07s-.04-.04-.07-.05l-.33-.21s-.04-.02-.06-.03l-.35-.17s-.04-.02-.07-.03l-.36-.11s-.05-.01-.08-.02l-.36-.06s-.05,0-.08,0h-.36s0,0,0,0h-.03s0,0,0,0l-.39.02s-.05,0-.07,0l-.37.07s-.06.01-.08.02l-.34.12s-.07.03-.1.05l-.3.19s-.07.05-.09.08l-.25.25s-.04.05-.06.07l-.2.29s-.03.05-.04.07l-.15.32s-.03.07-.03.1l-.08.35s-.01.1-.02.13l-.02.34s0,.06,0,.09l.05.38s0,.06.02.08l.11.38s.02.06.04.09l.19.37s.03.06.06.09l4.69,5.98s.04.05.07.07l.32.28s.05.04.07.05l.36.22s.04.02.06.03l.38.17s.05.02.07.03l.4.11s.05.01.08.02l.4.05s.04,0,.06,0c0,0,.02,0,.02,0l.39-.02s.05,0,.07,0l.37-.07s.06-.01.08-.02l.34-.12s.07-.03.1-.05l.3-.19s.07-.05.09-.08l.24-.25s.04-.05.06-.07l.2-.29s.03-.05.04-.07l.15-.32s.03-.07.03-.1l.08-.35s.01-.06.01-.1l.02-.37s0-.06,0-.09l-.05-.38ZM269.13,54.67c.06-.02.12-.06.16-.1l.18-.17.96,1.22.09.17.06.18.03.18v.13s-.15.02-.15.02h-.16s0,0,0,0l-1.25-1.59.09-.03ZM267.76,50.53h-.02s-.06,0-.09,0h-.26s-.05,0-.07.01l-.25.04s-.06.01-.09.02l-.23.08s-.08.03-.11.05l-.11.07.08-.13.1-.1.11-.07.16-.05.2-.03h.22s.22.03.22.03l.16.05-.03.04ZM265.73,51.61h.07s-.19.14-.19.14l-.04-.05.17-.09ZM270.59,57.85l.05.02v.02s-.06-.03-.06-.03h0ZM272.09,54.59s-.09.08-.12.14l-.06-.12s-.03-.06-.06-.09l-1.2-1.53.09-.11,1.35,1.72ZM270.16,49.25l.16-.15.16-.07h.25s.24.05.24.05l.24.14.2.2.13.23.06.24v.2s-.1.17-.1.17l-1.99,2.43s-.02.03-.02.03l-.71.86-.16.15-.16.07h-.15s-.91-1.15-.91-1.15l.03-.07,2.71-3.32Z"/>
      <path d="M200.49,102.91l-.52.06.51-.13-.12-.45-.11-.36s-.02-.06-.04-.09l-.18-.35s-.03-.06-.05-.08l-2.29-2.94.88-1.1s.05-.07.07-.1l.16-.33c.03-.06.04-.12.05-.18l.03-.38c0-.05,0-.1,0-.15,0,0,0-.04-.01-.05l-.09-.38s-.03-.1-.06-.14l-.21-.36s-.05-.08-.09-.11l-.3-.3s-.07-.06-.11-.08l-.37-.21s-.09-.04-.13-.05l-.4-.1s-.08-.02-.13-.02c-.01,0-.04,0-.05,0l-.4.02c-.06,0-.12.02-.17.04l-.35.14c-.06.02-.11.06-.16.1l-.27.25s-.04.04-.05.06l-.3.38-.06-.06s-.04-.04-.07-.05l-.34-.22s-.04-.02-.06-.03l-.36-.17s-.05-.02-.07-.03l-.37-.11s-.05-.01-.08-.02l-.37-.05s-.04,0-.06,0h-.35s-.02.52-.02.52l-.03-.53-.4.02s-.05,0-.07,0l-.38.07s-.05.01-.08.02l-.35.13s-.07.03-.1.05l-.31.19s-.06.05-.09.07l-.25.26s-.04.05-.06.07l-.2.3s-.03.05-.04.07l-.16.33s-.03.07-.04.1l-.09.36s-.01.1-.02.13l-.02.35s0,.06,0,.09l.04.39s0,.06.02.08l.11.39s.02.06.04.09l.19.37s.03.06.06.09l4.74,6.08s.04.05.07.07l.33.28s.05.04.07.05l.37.23s.04.02.06.03l.39.17s.05.02.07.03l.4.11s.05.01.08.01l.41.05s.04,0,.06,0c0,0,.02,0,.03,0l.4-.02s.05,0,.07,0l.38-.07s.06-.01.08-.02l.35-.13s.07-.03.1-.05l.31-.2s.06-.05.09-.07l.25-.26s.04-.05.06-.07l.2-.29s.03-.05.04-.08l.15-.33s.03-.07.04-.1l.09-.36s.01-.06.01-.1l.02-.38s0-.06,0-.09l-.04-.39ZM195.39,101.24c.06-.02.11-.06.16-.1l.21-.19.97,1.25.09.17.06.18.03.18v.16s-.04.01-.04.01l-.16.03h-.17s-.06,0-.06,0l-1.26-1.61.17-.07ZM194.02,97.01l-.04.05h0s-.06,0-.09,0h-.27s-.05.01-.07.01l-.26.04s-.06.01-.09.02l-.23.08s-.07.03-.11.05l-.16.1h0s.1-.16.1-.16l.1-.11.12-.07.16-.06.21-.03h.22s.23.03.23.03l.16.05ZM191.77,96.53l-.16-.03.04-.05.12.08ZM191.84,98.22h.08s-.15.11-.15.11l-.04-.05.11-.06ZM198.39,101.18s-.09.08-.12.14l-.06-.12s-.03-.06-.06-.09l-1.23-1.57.09-.11,1.37,1.76ZM196.32,95.83l.17-.15.17-.07h.26s.25.05.25.05l.25.14.2.2.13.23.06.26-.02.2-.09.19-2.64,3.29-.17.15-.18.07h-.23s0,.01,0,.01l-.88-1.13.07-.14,2.63-3.29Z"/>
      <path d="M250.56,71.76l-.16-.47-.5.17.48-.21-.16-.38s-.02-.05-.04-.07l-.26-.41s-.02-.03-.03-.05l-4.85-6.19s-.02-.03-.04-.04l-.35-.36s-.05-.05-.08-.07l-.41-.28s-.06-.04-.1-.05l-.47-.19-.23-.08-.17.5.08-.52-.48-.07s-.09,0-.14,0l-.46.05c-.05,0-.1.02-.15.04l-.4.17s-.05.02-.07.04l-26.27,16.56s-.05.03-.07.05l-.32.28s-.08.08-.11.13l-.21.37s-.05.1-.06.15l-.09.44s-.01.1,0,.15l.04.47s.01.09.03.14l.16.47s.03.07.05.11l.28.44s.02.03.03.05l5.17,6.62s.02.03.04.04l.37.38s.05.05.08.07l.44.3s.07.04.1.05l.48.19s.08.03.12.03l.49.07s.05,0,.08,0c.02,0,.04,0,.06,0l.46-.05c.05,0,.1-.02.15-.04l.4-.17s.05-.02.07-.04l26.25-16.61s.05-.03.07-.05l.32-.28s.08-.09.11-.14l.21-.37s.05-.1.06-.15l.09-.43s.01-.1,0-.15l-.04-.47s-.01-.09-.03-.13ZM221.83,88.38l-.23-.24-.75-.97.66-.42-.11-.18.15.12.13-.16h.02s.08-.14.08-.14c.07-.14.07-.29.02-.42h0s0-.02,0-.02l1.91-1.21-.26-.42h0s.38.31.38.31l.02-.02c.09.07.2.11.32.11.1,0,.19-.03.28-.08l14.13-8.93c.13-.08.21-.21.24-.35.01-.06,0-.12,0-.18.04-.01.09-.03.13-.06l1.96-1.24.09.07c.09.06.2.1.3.1.02,0,.03,0,.05,0l.19-.02c.08,0,.16-.03.23-.08l2.08-1.32.92,1.17.07.11.03.08v.04s0,.03,0,.03l-22.76,14.44-.12-.05-.14-.08ZM237.53,75.14l-.37.23.28-.34.09.11ZM220.26,86.3l-.22-.28.29-.36.31.4-.38.24ZM242.63,72.17l-.22-.28.3-.37.31.4-.39.25ZM240.09,71.64c-.08.05-.14.12-.18.2l-.03.06-1.11.7-.04.03s-.04.03-.05.04c-.01.01-.05.05-.07.06,0,.01-.02.02-.03.03l-.8.98h0s-.02.03-.02.03c-.17-.14-.41-.16-.6-.04l-13.29,8.39s0,0-.01,0c-.06,0-.11.01-.17.03l-.13.05s-.05.02-.07.03c-.01,0-.05.03-.06.03l-1.46.92-.36.26s-.02.02-.03.03l-.33.28s-.03.02-.04.04l-.25.25s-.02.02-.03.04l-.3.37-.03-.02c-.11-.07-.23-.1-.35-.09h0s-.19.01-.19.01c-.08,0-.16.03-.24.08l-.75.47-1.09-1.4,22.71-14.33.12-.05h.07s.08,0,.08,0l.09.03.08.05.11.11.83,1.06-1.99,1.26ZM245.89,73.74l-.05-.16s-.03-.08-.05-.12l-.13-.21s-.02-.04-.04-.05l-1.46-1.87s-.02-.03-.02-.03l-2.07-2.65s-.03-.03-.04-.05l-.18-.18s-.06-.06-.1-.08l-.18-.11s-.07-.04-.11-.05l-.2-.07s-.08-.02-.12-.03l-.21-.02s-.09,0-.13,0l-.2.03s-.03,0-.04,0h-.06s-.06.03-.09.05l-.22.1s-.04.02-.06.03l-22.79,14.38-.41-.52h0s24.47-15.44,24.47-15.44l.17-.07.15-.02.19.03.2.08.19.13.2.21,4.42,5.64.15.23.02.06-1.19.75ZM249.52,72.64l-.13.22-.22.19-26.18,16.57-.29.13-.32.04-.36-.05-.37-.15-.34-.23-.19-.2.33-.31-.25.38.17.12s.07.04.1.05l.31.12s.08.03.12.03l.32.05s.05,0,.08,0c.02,0,.04,0,.06,0l.3-.03c.05,0,.1-.02.15-.04l.29-.12-.1-.22.13.2,25.26-15.98s.05-.03.07-.05l.22-.2-.7-.79-.03.02-.18-.29s-.04-.06-.05-.07l-4.43-5.66s-.02-.03-.04-.04l-.26-.27s-.05-.05-.08-.07l-.28-.19s-.06-.04-.1-.05l-.31-.12s-.08-.03-.12-.03l-.31-.05s-.09,0-.14,0l-.3.03c-.05,0-.1.02-.15.04l-.28.12s-.05.02-.07.04l-24.49,15.44-.33-.19-.14.24s-.05.1-.06.15l-.05.25.46.1h0s-.47.05-.47.05l.02.29s.01.09.03.13l.1.31-.06-.08-.24-.38-.12-.35-.03-.33.06-.28.13-.22.22-.2,26.2-16.51.29-.12.31-.04.36.05.56.21.32.22.29.3,4.81,6.15.22.36.14.33.13.38.03.33-.06.28Z"/>
      <path d="M363.89,76.06l-.07-.18s-.04-.1-.08-.14l-.13-.17s-.08-.09-.14-.12l-94.12-58.95c-.05-.03-.12-.06-.18-.07l-.2-.04c-.07-.01-.13-.01-.2,0l-.19.04c-.06.01-.13.04-.18.07l-3.62,2.26c-.05.03-.1.08-.14.13l-.12.16s-.05.07-.07.12l-.07.18c-.03.06-.04.13-.04.2v.4s-41.57,25.96-41.57,25.96l-2.87.35-7.68.64-3.91.3-1.66.1-1.08-2.34s-.01-.02-.02-.03l-.09-.16s-.06-.08-.09-.12l-.06-.06c-.12-.12-.3-.17-.46-.14l-3.02.55-.07-.14s-.02-.03-.02-.05l-.18-.31s-.03-.05-.05-.07l-.16-.19s-.08-.08-.13-.11l-.43-.24c-.06-.03-.12-.05-.19-.06l-.26-.03s-.07,0-.1,0l-3.5.27-3.66.32-5.09.53s-.04,0-.07.01l-.88-.62-1.41-1.35-.92-1.19-.55-1.04-.37-1.22-.11-1.18.1-1.15.29-1.11.39-.93.44-.78.68-.97.72-.88.75-.8,1.08-1.03,1.14-.98,1.19-.93,1.21-.9,3.6-2.51,1.13-.8,1.06-.8.94-.78s.02-.02.03-.02l.83-.79s.02-.02.04-.04l.69-.8s.02-.03.03-.04l.56-.8s.02-.03.03-.04l.46-.82.2-.39s.01-.02.02-.03l.35-.81s.02-.04.02-.06l.24-.82s.01-.05.02-.07l.12-.83s0-.05,0-.08v-.84s-.01-.05-.01-.08l-.14-.86s0-.05-.02-.07l-.27-.87s-.01-.04-.02-.06l-.4-.89s-.02-.04-.03-.05l-.75-1.24v-.02s-.01,0-.01,0h0s-.02-.03-.03-.04l-.67-.92s-.02-.02-.03-.03l-.06-.07,1.23-.49,2.13-.8,1.97-.71,1.85-.63,1.76-.56,1.7-.5,1.68-.45,1.69-.41,1.74-.39,1.82-.37,1.93-.36,4.71-.8,2.54-.4,2.46-.34,2.39-.29,2.33-.22,2.28-.14,2.25-.06,2.22.03,2.21.13,2.21.24,2.23.36.89.19v.04c0,.05.02.1.04.15l.07.18s.04.09.08.13l.15.19s.07.08.12.11l.51.36.05.14c.04.12.13.21.24.27l.17.09s.08.04.12.05l2.34.63h0s.09.02.14.02c.07,0,.15-.02.22-.05l.08-.04.22.09.27.2.29.31s.04.04.07.06l.42.32s.04.03.06.04l.21.12s.03.02.04.02l.51.22s.05.02.08.03l2.36.64s.09.02.14.02c.01,0,.03,0,.04,0l.25-.02c.06,0,.12-.02.18-.05l.27-.12c.07-.03.13-.08.18-.14l.25-.3,1.85.5s.09.02.14.02c.08,0,.15-.02.22-.05l.15-.07,1.77.48.08.2c.04.12.13.21.23.27l.16.09s.08.04.12.05l2.09.56c.05.11.12.2.23.26l.18.1s.08.04.12.05l.26.07c.04.11.12.21.23.26l.2.11s.08.04.12.05l.56.15s.09.02.14.02c.08,0,.15-.02.22-.05l.21-.1.38.1h0s.09.02.14.02c.08,0,.15-.02.22-.05l.23-.11c.07-.03.13-.08.18-.14l.26-.3s.04-.06.06-.09l.26-.47s.02-.04.03-.06l.24-.59s.01-.03.02-.05l.19-.65s0-.03.01-.05l.13-.65s0-.04,0-.06l.05-.59s0-.05,0-.08l-.03-.47c0-.05-.01-.1-.03-.15l-.11-.3c-.04-.12-.13-.21-.23-.27l-.18-.1s-.08-.04-.12-.05l-.27-.07c-.04-.11-.12-.2-.23-.26l-.2-.11s-.08-.04-.12-.05l-.56-.15c-.12-.03-.24-.02-.36.03l-.21.1-.38-.1c-.12-.03-.24-.02-.36.03l-.2.09-2.19-.59c-.12-.03-.24-.02-.35.03l-.2.09c-.06.03-.11.06-.16.11l-.02.02-1.75-.47c-.05-.1-.12-.18-.21-.23l-.14-.08s-.08-.04-.12-.05h0s-1.77-.48-1.77-.48v-.15s-.03-.09-.04-.13l-.13-.35c-.04-.1-.11-.19-.19-.25l-.2-.14s-.03-.02-.04-.02l-.22-.12s-.08-.04-.12-.05l-2.36-.63s-.05-.01-.08-.01l-.55-.06s-.08,0-.13,0l-.53.07s-.06.01-.09.02l-.42.13-.42.06-.23-.03c-.04-.06-.1-.12-.16-.15l-.17-.09s-.08-.04-.12-.05h0s-2.34-.63-2.34-.63c-.12-.03-.24-.02-.35.03l-.21.1s-.08.05-.12.08l-.55.05c-.05,0-.1.02-.15.04l-.39.16c-.07.03-.13.08-.18.14l-.12.14-1.06-.23-2.36-.38-2.34-.25-2.34-.14-2.34-.03-2.35.06-2.38.15-2.41.23-2.46.29-2.52.35-2.58.4-2.67.44-2.11.37-1.97.37-1.87.38-1.79.4-1.75.43-1.74.47-1.76.52-1.81.58-1.89.65-2.01.72-2.15.81-2.22.87-.83-.67s-.03-.02-.04-.03l-1.1-.72s-.03-.02-.04-.03l-1.17-.62s-.03-.01-.04-.02l-1.24-.52s-.03-.01-.05-.02l-1.31-.41s-.03,0-.05-.01l-1.36-.29s-.03,0-.05,0l-1.41-.17s-.03,0-.05,0l-1.46-.05s-.03,0-.04,0l-1.49.07s-.03,0-.04,0l-1.52.2s-.03,0-.04,0l-1.54.33s-.03,0-.04,0l-1.56.46s-.03,0-.04.01l-1.57.59s-.02,0-.03.01l-1.57.73s-.02.01-.03.02l-1.58.87s-.02.01-.03.02l-1.6,1.03-1.59,1.17-1.58,1.32-1.56,1.47-1.54,1.63-1.52,1.78-1.49,1.94-1.45,2.1-1.33,2.09h0s0,0,0,0l-.16.26-1.23,2.03-1.02,1.77-.89,1.62v.02s-11.98,1.75-11.98,1.75l-2.73.43-2.44.44-3.54.74-2.91.67-1.61.4-1.7.46-1.78.52-1.85.58-1.91.65-1.97.72-2.01.8-2.05.89-2.06,1-1.83,1.05s-.02.01-.03.02l-1.63,1.09s-.02.02-.04.03l-1.41,1.13s-.03.02-.04.03l-1.19,1.15s-.03.03-.04.05l-.95,1.17s-.03.04-.04.06l-.71,1.18s-.01.03-.02.04l-.19.39s-.01.03-.02.04l-.46,1.2s-.02.07-.03.11l-.19,1.19s0,.08,0,.13l.1,1.17s.01.09.03.13l.4,1.13s.03.08.05.11h0s0,0,0,0l.02.03.91,1.41s.05.07.08.1l1.06.99s.06.05.09.07l1.44.86s.05.03.07.04l1.77.7s.04.01.06.02l2.06.54s.03,0,.05.01l2.3.36s.03,0,.05,0l2.5.17s.02,0,.04,0h0l2.66-.04s.03,0,.04,0l2.77-.27s.03,0,.04,0l2.85-.51s.03,0,.04,0l2.88-.76s.03,0,.04-.01l2.87-1.04s.03-.01.05-.02l2.84-1.34,2.59-1.43,2.27-1.35,1.98-1.28,1.72-1.21,1.49-1.16,1.29-1.11,1.11-1.07.96-1.03.84-.99.75-.96,1.34-1.86.63-.95.18-.31.02-.04h0s.61-1.02.61-1.02l.57-1.04,2.44-4.81,3-.64s.04,0,.06-.02l3.65-1.21s.03-.01.04-.02l3.57-1.55s.02,0,.03-.02l3.51-1.82,3.03-1.78,3.35-2.11,3.27-2.17,3.18-2.15,3.09-2.06,2.77-1.75,2.62-1.47,1.07-.49.74.86.59.8.28.47.34.75.22.72.11.69v.68s-.09.67-.09.67l-.19.67-.23.54-.26.46-.49.71-.61.71-.75.72-.88.73-1,.76-4.72,3.3-1.25.92-1.24.98-1.21,1.04-1.16,1.1-.82.88-.78.95s-.02.02-.02.03l-.73,1.05s-.02.03-.03.04l-.65,1.15-.2.39s-.01.02-.02.04l-.51,1.22s-.02.05-.02.07l-.34,1.29s-.01.06-.02.09l-.12,1.35s0,.07,0,.1l.14,1.4s.01.07.02.1l.43,1.44s.02.06.04.09l.77,1.47s.01.02.02.03l.22.36s.02.03.03.04l1.14,1.47s.03.04.05.06l1.23,1.18-.26.17s-.07.05-.09.08l-.39.4-.35.35s-.04.04-.06.06l-.59.81-.84.94-1.16.97-1.3.78-1.23.43-3.22.49h-1.19c-.24,0-.45.17-.51.4l-.05.19s-.02.08-.01.13v1.14s-1.19.25-1.19.25c-.01,0-.03,0-.04.01l-3.05.91s-.02,0-.03.01l-2.98,1.11-2.88,1.26-2.79,1.37-2.71,1.43-5.23,2.87-2.53,1.35-2.48,1.24-2.43,1.09-2.43.91-2.41.79-2.32.73-2.22.67-2.14.6-2.07.53-2.02.45-1.99.37-1.97.29-1.97.21-1.99.12-2.02.03-2.07-.06-2.02-.16-1.87-.25-1.75-.32-1.66-.38h0s.84-.34.84-.34l1.95-.89.4-.21h0s.01,0,.02,0l1.68-.94s.05-.03.07-.05l1.29-1.02s.09-.08.12-.13l.04-.06h0s.04-.02.06-.04l.62-.44s.05-.04.07-.06l.51-.52.43-.49h0s.04-.05.06-.08l.36-.61s.04-.08.05-.13l.18-.68s.02-.09.02-.13v-.77s0-.1-.01-.14l-.23-.85-.19-.62h0s-.03-.08-.05-.12l-.48-.78s-.04-.06-.07-.09l-.7-.72s-.04-.04-.07-.06l-.9-.64s-.04-.03-.06-.04l-1.06-.55s-.04-.02-.06-.03l-1.2-.44s-.04-.01-.06-.02l-1.31-.32s-.04,0-.06-.01l-1.4-.17s-.04,0-.06,0h-1.45s-.04,0-.07,0l-1.48.18s-.05,0-.07.01l-1.46.39s-.05.01-.07.03l-1.39.6s-.03.02-.05.03l-1.26.71s-.02.01-.03.02l-1.14.75s-.02.01-.03.02l-1.03.79s-.02.02-.03.02l-.93.83s-.02.02-.03.03l-.83.86s-.02.02-.03.03l-.73.89s-.02.02-.03.03l-.64.92s-.02.02-.02.04l-.55.95s-.01.02-.02.04l-.49,1.01-.57,1.43-.79.06s-.06,0-.08.01l-1.77.42s-.04.01-.07.02l-1.71.66s-.03.01-.05.02l-1.65.84s-.03.01-.04.02l-1.61,1-1.53,1.09-1.45,1.14-1.37,1.14-3.48,3.05-.93.76-1.71,1.27-.79.6-.67.57s-.03.03-.04.04l-.55.58s-.04.05-.06.07l-.4.61s-.05.08-.06.12l-.22.68-.22.77s-.02.1-.02.14v.7s-3.4,1.23-3.4,1.23l-6.36,2-6.5,1.87-6.54,1.83-6.48,1.88-6.32,2.02-6.03,2.24s-.02,0-.03.01l-5.68,2.56-.36.17s-.03.01-.04.02l-5.25,3s-.03.02-.04.02l-4.73,3.29s-.02.01-.03.02l-4.24,3.4s-.02.02-.03.03l-3.73,3.5s-.02.02-.03.03l-3.19,3.59s-.02.03-.04.04l-2.61,3.67s-.02.04-.04.06l-1.99,3.74s-.02.05-.03.07l-1.34,3.79s-.02.06-.02.09L0,132.63s0,.07,0,.1l.07,3.51.04,1.03s0,.06.01.09l.84,3.85s.02.06.03.09l1.64,3.83s.03.05.04.08l2.47,3.8s.03.04.04.06l3.09,3.54s.03.03.04.04l3.44,3.1s.03.02.04.04l3.7,2.69s.03.02.04.03l3.89,2.3s.02.01.04.02l3.99,1.94s.02.01.03.02l4.03,1.62h0s0,0,0,0l.05.02,4.22,1.41,3.78,1.04,3.43.77,3.38.62,2.87.42,2.43.28,2.48.18,2.48.07,2.46-.03,2.44-.12,2.4-.18,2.36-.24,2.31-.28,2.25-.3,3.02-.44-1.78,3.3-3.46,6.44-2.46,4.78-2.28,4.75-2.02,4.69-1.65,4.56s0,.03-.01.04l-1.21,4.44s0,.04-.01.06l-.68,4.28s0,.05,0,.07l-.06,4.09s0,.06,0,.09l.76,4.56s.02.07.03.11l1.46,3.6s.03.06.04.08l2.09,3.3s.02.04.04.05l2.47,3s.03.03.04.04l2.81,2.72s.03.03.04.04l3.1,2.42s.03.02.04.03l3.35,2.12s.03.02.04.02l3.55,1.81s.03.01.04.02l3.7,1.49s.03.01.04.02l3.81,1.17s.03,0,.04.01l3.87.84s.03,0,.04,0l3.89.5s.03,0,.05,0l3.86.15s.01,0,.02,0c0,0,.02,0,.03,0l3.77-.21s.04,0,.06,0l3.6-.6s.04,0,.06-.01l3.38-.97s.03,0,.04-.02l3.24-1.25,3.12-1.42,6.15-3.02,3.16-1.43,3.27-1.27,3.39-1.02,3.97-.81,1.31-.12-.32,10.95s0,.05,0,.07l.09.64h0s0,.08,0,.08c0,.03,0,.05,0,.07l.98,8.9.13.75c0,.06.03.11.06.16l.48.83s.06.09.1.12l.67.61s.07.05.11.08l.41.22.29,2,.13.74c.01.06.03.12.06.17l.61,1.05s.06.09.1.12l.64.58s.07.05.11.07l.84.45s.07.03.1.04l.99.28s.06.01.1.02l1.1.1,43.57.25,1.16-.09s.06,0,.09-.02l1-.27s.07-.02.1-.04l.86-.44s.07-.04.11-.07l.66-.57s.07-.07.1-.12l.44-.69.2-.37s.04-.1.05-.15l.16-.74s0-.03,0-.04l.27-2.08.21-.11s.07-.04.11-.07l.7-.6s.07-.07.1-.12l.44-.7s.02-.03.02-.04l.06-.11s.04-.09.05-.13l.16-.75s0-.04,0-.06l.84-8.86s0-.03,0-.04v-.09s0-.04,0-.04c0-.02,0-.04,0-.06l.05-.56s0-.03,0-.04l.37-30.3s0-.07,0-.1l-.14-.75s0-.03-.01-.05l-.07-.24s-.03-.09-.06-.13l-.42-.7s-.06-.09-.1-.12l-.68-.6s-.07-.05-.11-.07l-.92-.48-.2-.09s-.05-.02-.07-.03l-1.05-.29s-.04-.01-.06-.01l-1.62-.24-1.13-.11s-.03,0-.05,0l-14.93-.08-.29-16.68c0-.06-.01-.11-.03-.16l-.15-.43s-.04-.09-.07-.14l-.28-.4s-.02-.02-.03-.04l-1.94-2.27s-.07-.07-.12-.1l-.4-.25c-.05-.03-.12-.06-.18-.07l-.53-.11s-.07,0-.1-.01l-3.97-.02s-.07,0-.1,0l-.54.1c-.06.01-.12.03-.18.07l-.41.25s-.08.06-.12.1l-2.03,2.25s-.03.03-.04.05l-.28.39s-.04.07-.06.11l-.16.42c-.02.06-.03.12-.04.19l-.11,16.66-18.59-.11s-.03,0-.05,0l-1.17.1-1.53.22s-.04,0-.06.01l-1.06.28s-.05.02-.08.03l-1.12.55s-.07.04-.1.07l-.71.59s-.07.07-.1.11l-.45.69s-.06.1-.07.16l-.23,1s-.01.07-.01.1l-.47,15.98-1.9.17s-.04,0-.05,0l-4.12.82s-.03,0-.05.01l-3.79,1.13s-.03,0-.04.01l-3.28,1.27-3.46,1.55-6.28,3.08-2.98,1.36-3.01,1.16-3.07.88-3.23.54-3.41.18-3.49-.14-3.49-.44-3.53-.75-3.72-1.12-3.46-1.39-3.33-1.7-3.15-1.99-2.92-2.28-2.65-2.56-2.33-2.83-1.95-3.07-1.34-3.31-.5-2.95.06-3.78.65-4.09,1.17-4.29,1.6-4.44,1.97-4.59,2.25-4.68,2.44-4.74,1.66-3.1,2.56-4.75,2.12-3.95,5.15-.69,4.94-.57,2.66-.27,2.75-.25,2.79-.22,2.8-.17,2.78-.12h.23s-.41,10.36-.41,10.36c0,.03,0,.05,0,.08l.09.64h0s0,.06,0,.06c0,.03,0,.06,0,.09l1.04,8.87.12.73c0,.06.03.11.06.17l.47.81s.06.09.1.13l.65.58s.07.05.11.07l.44.23.32,2.08.12.72c.01.06.03.12.06.18l.59,1.02s.06.09.1.13l.62.56s.07.05.11.07l.82.43s.07.03.1.04l.97.27s.05.01.08.02l1.15.11s.03,0,.05,0l42.67.24h0s.03,0,.04,0l1.01-.08.14-.02s.04,0,.06-.01l.98-.26s.07-.02.1-.04l.85-.42s.07-.04.1-.07l.66-.55s.07-.07.1-.12l.42-.64s.02-.03.02-.04l.2-.37s.04-.09.05-.13l.16-.72s0-.04,0-.05l.26-2.21.12-.06s.07-.04.1-.07l.69-.58s.07-.07.1-.12l.44-.67s.02-.04.03-.06l.05-.11s.03-.07.04-.11l.16-.72s0-.05.01-.07l.75-8.87v-.11s0-.02,0-.02c0-.02,0-.05.01-.07l.05-.59.66-29.24s0-.07,0-.11l-.13-.72s0-.03-.01-.05l-.07-.24s-.03-.09-.06-.13l-.41-.67s-.06-.09-.1-.12l-.66-.58s-.07-.05-.11-.07l-.89-.46-.2-.09s-.05-.02-.08-.03l-1.03-.28s-.03,0-.05-.01l-1.58-.27s-.03,0-.04,0l-1.11-.1s-.03,0-.05,0l-14.92-.08-.43-17.11c0-.05-.01-.11-.03-.16l-.14-.41s-.04-.09-.07-.14l-.28-.4s-.02-.03-.03-.04l-1.88-2.19s-.07-.07-.12-.1l-.39-.25c-.05-.03-.11-.06-.18-.07l-.52-.1s-.07,0-.1-.01l-3.9-.02s-.07,0-.1,0l-.53.1c-.06.01-.12.03-.17.07l-.4.24s-.08.06-.12.09l-2.02,2.17s-.04.04-.05.06l-.27.39s-.04.06-.05.1l-.17.41c-.03.06-.04.13-.04.2l.02,17.09-17.96-.1s-.03,0-.04,0l-1.12.09s-.03,0-.05,0l-1.49.25s-.03,0-.05,0l-1.04.27s-.07.02-.1.04l-1.09.53s-.07.04-.1.07l-.7.57s-.07.07-.1.11l-.45.67c-.04.05-.06.11-.08.17l-.23.96s-.01.07-.01.1l-.62,15.53h-.48s-2.84.13-2.84.13l-2.85.18-2.84.22-2.78.25-2.7.28-2.58.29-2.42.29-2.82.35,1.74-3.39,2.14-4.46,1.88-4.32,1.6-4.19.49-1.56,1.11-.57,2.48-1.35,2.38-1.39,2.27-1.43,2.15-1.48,2.51-1.9,1.9-1.61,1.74-1.66s.02-.02.02-.03l1.58-1.73s.02-.02.03-.03l1.42-1.82s.02-.02.03-.03l1.26-1.91s.02-.03.02-.04l1.09-2.01s.01-.03.02-.04l1.26-2.88s.01-.02.01-.04l.95-2.72.71-2.56.55-2.42.92-4.51.52-2.15.67-2.14.88-2.13,1.16-2.18,1.53-2.26,1.98-2.38,2.39-2.54,2.45-2.43,2.52-2.32,2.6-2.23,2.69-2.14,2.79-2.06,2.57-1.76,2.95-1.89,3.11-1.85,3.25-1.82,3.4-1.79,3.56-1.76,4.49-2.25,3.95-2.13,7-3.93,4.61-2.55,3.65-1.91,3.46-1.64,3.09-1.23,2.2-.64,1.28.39,1.42.57,1.14.54s.03.02.05.02l1.01.35s.06.02.09.02l1.17.2s.06,0,.08,0h.65s1.52.91,1.52.91l.78.75.61,1.02.33.94.05.51v.5s-60.16,37.57-60.16,37.57c-.03.02-.05.04-.08.06l-.14.13s-.07.08-.1.12l-.1.17s-.04.09-.05.13l-.48-.32c-.05-.04-.11-.06-.18-.08l-.2-.04c-.07-.02-.14-.02-.22,0l-.2.04c-.06.01-.12.04-.18.07l-3.82,2.38c-.05.03-.1.08-.14.12l-.13.17s-.05.08-.07.13l-.07.18c-.03.06-.04.13-.04.2l.13,9.66s0,.03,0,.04l.12,1.32s0,.06.02.09l.32,1.18s.02.07.04.1l.52,1.02.12.22s.04.06.06.09l.7.8s.07.07.1.09l94.54,62.79-8.31.32s-.06,0-.09.01l-.47.11s-.03,0-.04.01l-.08.03c-.06.02-.11.04-.15.08l-.37.28c-.08.06-.14.14-.18.24l-.19.52c-.02.06-.03.11-.03.17l-.2,35.25v.06s0,.04,0,.06l.26,2.75h0s0,.03,0,.04v.07s0,.04,0,.05l.27,2.75s.01.09.03.13l.04.1s.02.06.04.09l.2.35c.05.08.11.15.2.19l.43.24s.05.03.07.03l.05.02s.08.02.11.03l.5.07s.05,0,.07,0c0,0,.01,0,.02,0l25.65-1-.04,3.26s0,.04,0,.06l.04.4c0,.06.02.12.05.18v.03s.01.03.02.04v.04s-.01.07-.01.11v.34s0,.07,0,.11v.04s-.01.07-.01.11v.34s0,.07,0,.11v.04s-.01.07-.01.11v.34s0,.07,0,.11v.04s-.01.07-.01.11v.34s0,.07,0,.11v.04s-.01.07-.01.11v.34s0,.07,0,.1l.02.11-.06.09c-.06.08-.08.18-.08.28h0s-.01,1.14-.01,1.14c0,.02,0,.04,0,.06l.04.41s.01.08.03.12l.04.1s.01.04.02.06l1.34,2.73h0s.03.07.06.1h0s.03.08.06.12l1.63,2.47s.06.08.1.12l.36.29s.1.07.15.09l.07.03s.03,0,.04.01l.47.13s.1.02.14.02c.01,0,.02,0,.03,0l.51-.03s.06,0,.09-.01l1.57-.39s.04,0,.06,0c.04,0,.09,0,.13-.02l30.68-7.66s.04-.01.06-.02l.04-.02s.07-.03.1-.05l1.54-.38s.03,0,.05-.01l.05-.02s.04-.01.05-.02l.45-.21c.08-.04.16-.1.21-.18l.23-.33s.04-.07.05-.1l.04-.1c.02-.06.04-.12.04-.19l.02-1.14s0-.05,0-.08l-.05-.38s-.03-.1-.05-.14h0s0-.09-.01-.13v-.02s.02-.07.02-.11v-.34s0-.08,0-.12v-.02s.02-.07.02-.11v-.34s0-.08,0-.12v-.02s.02-.07.02-.11v-.34s0-.08,0-.12v-.02s.02-.07.02-.11v-.34s0-.08,0-.12v-.02s.02-.07.02-.11v-.34s0-.08,0-.12l-.02-.09.06-.09c.06-.08.09-.18.09-.28l.11-5.39,19.26,3.41s.06,0,.09,0c.02,0,.03,0,.05,0h.15c.09-.02.18-.05.26-.11l.12-.09c.07-.05.13-.11.16-.19l.12-.24,8.57-23.21.2-.63s0-.03.01-.04l.09-.42s0-.03,0-.04l.06-.43s0-.04,0-.05l.09-3.09v-.1s0,0,0,0c0-.02,0-.03,0-.05l.08-3.09v-.11s0-.04,0-.06l-.04-.29c-.01-.08-.04-.16-.09-.22l-.08-.12c-.05-.08-.12-.14-.21-.18l-.24-.11s-.09-.03-.13-.04l-45.26-7.94s-.1-.01-.14,0l-.19.02c-.1,0-.19.05-.26.1l-.16.12c-.06.04-.11.1-.14.16l-.11.2s-.02.05-.03.07l-3.62,9.42-6.44,1.59.09-6.33s0-.04,0-.06l-.29-2.73s0-.04-.01-.07v-.03s0-.04,0-.06l-.3-2.74s-.01-.08-.03-.12l-.05-.14s-.02-.06-.04-.09l-.21-.36c-.05-.08-.11-.15-.19-.19l-.43-.25s-.06-.03-.1-.04l-.06-.02s-.06-.02-.09-.02l-.49-.07s-.06,0-.09,0l-22.76.88,1.12-.57,9.05-5.21,9.03-5.35,9-5.5,8.97-5.54,8.94-5.6,17.8-11.37,8.86-5.86,8.83-5.9,8.8-5.97,8.77-6.02,8.75-6.06,8.58-6.11,8.65-6.3,1.42-1.12s.03-.02.04-.03l1.21-1.17s.02-.02.03-.03l1.16-1.34s.02-.02.03-.03l1.08-1.47s.02-.02.02-.03l.97-1.56s.01-.02.02-.04l.84-1.62s.01-.03.02-.04l.69-1.64s.01-.03.02-.04l.52-1.62s0-.03.01-.05l.34-1.55s0-.04,0-.06l.15-1.48.36-9.63c0-.07,0-.14-.03-.21ZM268.89,17.45l93.53,58.58-3.03,1.97-63.65-39.92-13.29-11.66s-.04-.04-.07-.05l-10.94-6.85-.09-.05s-.06-.03-.09-.04l-.19-.07s-.12-.03-.17-.03c-.05,0-.1,0-.15.01l-.33.08c-.06.01-.11.04-.16.07l-2.09,1.3-2.28-1.43,3-1.9ZM293.66,138.39l-.14-.22.15.22h0ZM293.23,137.72l-17.69,11.28-8.91,5.57-8.95,5.52-8.95,5.46-7.18,4.25-10.65,6.15-.81.42-.56.19-.52.08-.45-.03-.38-.12-.15-.1.07-.1-.37-.25-.21-.25-.12-.24-.11-.46-.06-.81v-.03s.79.52.79.52c.04.03.08.05.13.06l.46.15s.07.02.1.02l.8.07s.02,0,.03,0c.02,0,.05,0,.07,0,0,0,.03,0,.04,0l.51-.08s.06-.01.09-.02l.56-.19s.05-.02.07-.03l.78-.4,6.51-3.74,10.59-6.24,8.93-5.46,8.91-5.5,8.88-5.57,6.76-4.31,10.91-7.03,5.87-3.85,11.68-7.72,8.74-5.89,16.72-11.49,9.32-6.6,7.82-5.69.73-.58s.03-.02.04-.03l.54-.52s.02-.02.03-.03l.53-.61s.02-.02.03-.03l.5-.68s.02-.02.02-.03l.45-.73s.01-.02.02-.04l.39-.75s.01-.03.02-.04l.32-.76s.01-.03.02-.04l.24-.75s0-.03.01-.05l.15-.71s0-.04,0-.06l.08-.84.31-8.62c0-.07,0-.14-.03-.2l-.07-.19s-.04-.1-.08-.14l-.14-.18s-.08-.09-.14-.12l-3.35-2.1c-.05-.03-.11-.06-.17-.07l-.21-.04c-.07-.01-.14-.01-.21,0l-.2.04c-.07.01-.13.04-.18.07l-.81.52-.31-.2.02-.44c0-.05,0-.11-.02-.16l-.1-.34c-.02-.08-.06-.15-.12-.21l-.26-.28s-.07-.06-.11-.09l-1.51-.95c-.06-.04-.12-.06-.19-.07l-.26-.05s-.09-.01-.13,0l-.28.02c-.09,0-.18.03-.25.08l-.39.25-.38-.24v-.44c.02-.05.01-.11,0-.16l-.1-.34c-.02-.08-.06-.15-.12-.21l-.25-.28s-.07-.06-.11-.09l-1.51-.95c-.06-.04-.12-.06-.19-.07l-.26-.05s-.09,0-.13,0l-.28.02c-.09,0-.18.03-.25.08l-.39.25-.38-.24v-.44c.02-.05,0-.11,0-.16l-.1-.34c-.02-.08-.06-.15-.12-.21l-.25-.27s-.07-.06-.11-.09l-1.51-.95c-.06-.04-.12-.06-.19-.07l-.23-.04s-.04,0-.04,0c-.04,0-.08,0-.12,0l-.28.02c-.09,0-.18.03-.25.08l-.39.25-.38-.24v-.44c.02-.05,0-.11,0-.16l-.1-.34c-.02-.08-.06-.15-.12-.21l-.25-.28s-.07-.06-.11-.09l-1.5-.94c-.06-.04-.12-.06-.19-.07l-.23-.04s-.04,0-.04,0c-.04,0-.08,0-.12,0l-.28.02c-.09,0-.18.03-.25.08l-.39.25-.37-.23v-.44c.02-.05,0-.11,0-.16l-.1-.34c-.02-.08-.06-.15-.12-.21l-.25-.27s-.07-.06-.11-.09l-1.5-.94c-.06-.04-.12-.06-.19-.07l-.26-.05s-.09-.01-.13,0l-.28.02c-.09,0-.18.03-.25.08l-.39.25-.37-.23v-.44c.02-.05,0-.11,0-.16l-.1-.34c-.02-.08-.06-.15-.12-.21l-.25-.27s-.07-.06-.11-.09l-1.5-.94c-.06-.04-.12-.06-.19-.07l-.26-.05s-.08-.01-.13,0l-.28.02c-.09,0-.18.03-.25.08l-.39.25-.37-.23v-.44c.01-.05,0-.11,0-.16l-.1-.34c-.02-.08-.06-.15-.12-.21l-.25-.28s-.07-.06-.11-.09l-1.5-.94c-.06-.04-.12-.06-.19-.07l-.26-.05s-.08,0-.13,0l-.27.02c-.09,0-.18.03-.25.08l-.39.25-.36-.23v-.44c.01-.05,0-.11,0-.16l-.1-.34c-.02-.08-.06-.15-.12-.21l-.25-.28s-.07-.06-.11-.09l-1.49-.94c-.06-.04-.12-.06-.19-.07l-.23-.04s-.04,0-.04,0c-.04,0-.08,0-.12,0l-.28.02c-.09,0-.18.03-.25.08l-.39.25-.36-.23v-.44c.01-.05,0-.11,0-.16l-.1-.34c-.02-.08-.06-.15-.12-.21l-.25-.28s-.07-.06-.11-.09l-1.49-.94c-.06-.04-.12-.06-.19-.07l-.25-.05s-.09,0-.13,0l-.28.02c-.09,0-.18.03-.25.08l-.39.25-.36-.22v-.44c.01-.05,0-.11,0-.16l-.1-.34c-.02-.08-.06-.15-.12-.21l-.25-.27s-.07-.06-.11-.09l-1.49-.94c-.06-.04-.12-.06-.19-.07l-.25-.05s-.09-.01-.13,0l-.28.02c-.09,0-.18.03-.25.08l-.39.25-.35-.22v-.44c.01-.05,0-.11,0-.16l-.1-.34c-.02-.08-.06-.15-.12-.21l-.25-.27s-.07-.06-.11-.09l-1.49-.93c-.06-.04-.12-.06-.19-.07l-.26-.05s-.08,0-.12,0l-.28.02c-.09,0-.18.03-.25.08l-.39.25-.35-.22v-.44c.01-.05,0-.11,0-.16l-.1-.34c-.02-.08-.06-.15-.12-.22l-.25-.27s-.07-.06-.11-.09l-1.49-.93c-.06-.04-.12-.06-.19-.07l-.26-.05s-.08,0-.12,0l-.28.02c-.09,0-.18.03-.25.08l-.39.25-.31-.19.02-.62c0-.09-.02-.17-.06-.25l-.19-.38s-.05-.09-.09-.12l-.38-.41-.41-.41-2.84-2.49,58.13,36.47-.34,9.34-.09.88-.16.75-.26.8-.34.82-.43.82-.49.79-.54.74-.57.66-.58.56-.78.62-8.53,6.21-8.65,6.15-14.9,10.28-11.31,7.68-17.65,11.72h0ZM138.41,105.18l-.04-.06v-.78s.03-.09.03-.09l.16-.17-.04-.04.1-.12,12.02-8.4.05.09.19-.1-.06-.11,119.93-74.98.11-.03,10.94,6.85,21.06,18.47.37.37.31.34.05.09-.13.05.1.29.08-.03v.5s-16.97,10.76-16.97,10.76c0,0-.04.02-.04.02l-111.35,70.67v-.18s0-.07-.02-.1l.31-.03-.04-.34-.37.04-.04-.14-1.01.31.11.35v.39s-.05.04-.08.06l-35.67-23.56c.03-.13.02-.28-.06-.4ZM229.13,173.98l-.27-.09-.32-.19-.22-.26-.17-.35-.11-.44-.05-.68.07-8.62,128.6-83.26-.28,7.8-.08.78-.14.65-.22.7-.23.55-.44.89-.43.69-.47.64-.5.57-.51.49-.69.55-7.8,5.68-8.64,6.13-17.37,11.93-8.73,5.88-8.76,5.81-8.79,5.76-8.82,5.69-8.84,5.64-8.87,5.56-17.83,10.95-7.92,4.69-9.13,5.26-.73.37-.48.16-.44.07-.38-.02ZM227.61,162.41l-.05.03-2.82-1.86,128.72-83.23h0s2.79,1.75,2.79,1.75l-128.64,83.31ZM350.78,76.88v.09s-128.34,82.96-128.34,82.96h0s0-.08-.02-.12l128.35-82.92ZM223.24,161.14l-.36-.24.4-.26c-.02.05-.03.11-.03.17v.33ZM221.91,158.9s-.04-.04-.06-.05l-1.13-.75,128.39-82.89h.07s.1.01.1.01l1.07.67-128.44,83.01ZM346.82,74.39v.09s-128.34,82.83-128.34,82.83h0s0-.08-.02-.12l1.95-1.24s0,0,.01,0l126.39-81.55ZM219.21,158.19c-.04.07-.06.16-.06.24h0s-.24-.15-.24-.15l.39-.25-.09.17ZM219.84,155.05s0,0-.01,0l-1.89,1.22s-.04-.04-.06-.05l-1.13-.75,128.39-82.76h.07s.1.01.1.01l1.07.67-126.54,81.65ZM342.86,71.9v.09s-128.34,82.71-128.34,82.71h0s0-.08-.02-.12l128.36-82.67ZM215.25,155.58c-.04.07-.06.16-.06.24h0s-.24-.15-.24-.15l.39-.25-.09.16ZM213.98,153.66s-.04-.04-.06-.05l-1.13-.74,128.39-82.64h.08s.1.01.1.01l1.07.67-128.44,82.75ZM211.29,152.96c-.04.07-.06.16-.06.24h0s-.23-.15-.23-.15l.38-.24-.09.15ZM226.34,142.89v-.02s.03-.06.03-.06l.03.04-.06.04ZM310.81,88.52h0s.04-.07.04-.07l.02.04-.06.04ZM338.9,69.41v.09s-14.79,9.52-14.79,9.52l-.04-.06,14.83-9.54ZM310.14,88l-69.63,44.81s-.05-.05-.08-.07l69.72-44.83v.1ZM225.66,142.36l-15.1,9.71h0s0-.08-.02-.12l15.11-9.72v.13ZM210.15,150.97l-.13.08s-.04-.04-.06-.05l-1.12-.74,128.39-82.51h.08s.1.01.1.01l1.06.67-128.31,82.54ZM207.34,150.36c-.04.07-.06.16-.06.24h0s-.23-.15-.23-.15l.37-.24-.08.15ZM219.91,141.89v-.02s.03-.06.03-.06l.03.04-.06.04ZM304.46,87.55h0s.04-.07.04-.07l.02.03-.06.04ZM334.95,66.93v.09s-12.41,7.97-12.41,7.97l-.04-.06,12.45-8ZM303.8,87.03l-64.78,41.62s-.05-.05-.08-.07l64.86-41.65v.1ZM219.24,141.36l-12.62,8.11h0s0-.09-.02-.12l12.64-8.12v.13ZM206.07,148.45s-.04-.04-.06-.05l-1.12-.74,128.38-82.38h.07s.1.01.1.01l1.06.67-128.43,82.5ZM203.39,147.75c-.04.07-.06.16-.06.24h0s-.23-.15-.23-.15l.36-.23-.08.14ZM215.46,139.62h0s.04-.08.04-.08l.02.04-.06.04ZM300.03,85.35h0s.04-.07.04-.07l.02.03-.06.04ZM331.01,64.45v.09s-11.93,7.65-11.93,7.65l-.04-.06,11.97-7.67ZM299.37,84.84l-63.79,40.92s-.05-.05-.08-.07l63.88-40.95v.1ZM214.79,139.1l-12.12,7.77h0s0-.09-.02-.13l12.14-7.78v.13ZM202.13,145.84s-.04-.04-.06-.05l-1.12-.74,128.38-82.25h.07s.1.01.1.01l1.06.66-128.43,82.37ZM199.45,145.15c-.04.07-.06.16-.06.24l-.22-.15.36-.23-.07.14ZM212.68,136.29h0s.04-.07.04-.07l.02.04-.06.04ZM297.21,82.13l.04-.06.02.03-.06.04ZM327.07,61.98v.09s-13.04,8.35-13.04,8.35l-.04-.07,13.08-8.37ZM296.55,81.62l-66.06,42.31s-.05-.05-.08-.07l66.14-42.34v.1ZM212,135.77l-13.27,8.5h0s0-.09-.02-.13l13.29-8.51v.13ZM198.19,143.24s-.04-.04-.06-.05l-1.11-.74,128.38-82.13h.08s.1.01.1.01l1.05.66-128.43,82.24ZM195.51,142.55c-.04.07-.06.16-.06.24l-.22-.14.35-.22-.07.13ZM212.58,131.25h0s.04-.07.04-.07l.02.03-.06.04ZM297,77.25l.04-.06.02.02-.05.03ZM323.14,59.51v.09s-16.73,10.7-16.73,10.7l-.04-.07,16.78-10.72ZM296.33,76.74l-73.59,47.07s-.05-.05-.08-.07l73.68-47.09v.1ZM211.91,130.73l-17.11,10.95h0s0-.09-.02-.13l17.13-10.95v.13ZM194.5,140.49l-.24.15s-.04-.03-.06-.05l-1.11-.73,128.38-82h.08s.1.01.1.01l1.05.66-128.19,81.96ZM319.21,57.05v.09s-128.34,81.95-128.34,81.95h0s0-.09-.02-.13l128.36-81.92ZM191.59,139.96c-.04.07-.06.15-.06.24l-.21-.14.34-.22-.07.12ZM190.34,138.06s-.04-.04-.06-.05l-1.11-.73,128.38-81.88h.08s.1.01.1.01l1.05.66-128.43,81.99ZM187.66,137.37c-.04.07-.06.15-.06.24l-.21-.14.33-.21-.06.11ZM315.29,54.58v.09s-23.2,14.79-23.2,14.79l-105.14,67.03h0c0-.05,0-.09-.02-.13l128.36-81.79ZM186.42,135.47s-.04-.04-.06-.05l-1.1-.73,128.38-81.75h.08s.1.01.1.01l1.04.65-128.43,81.86ZM311.38,52.13v.09s-128.34,81.7-128.34,81.7h0c0-.05,0-.09-.02-.13l128.35-81.67ZM183.75,134.79c-.04.07-.06.15-.06.23l-.21-.14.32-.2-.05.11ZM182.51,132.89s-.04-.04-.06-.05l-1.1-.73,80.35-51.09s.03-.02.03-.02l47.99-30.51h.08s.1.01.1.01l1.04.65-128.43,81.74ZM307.47,49.67v.09s-128.34,81.58-128.34,81.58h0c0-.05,0-.09-.02-.13l128.35-81.54ZM179.84,132.21c-.04.07-.06.15-.06.23l-.2-.13.31-.2-.05.1ZM178.6,130.31s-.04-.04-.06-.05l-1.1-.72,128.37-81.5h.08s.1.01.1.01l1.04.65-128.42,81.61ZM286.9,58.56l.12.16h-.01s-.11-.16-.11-.16ZM175.93,129.63c-.04.07-.05.15-.06.23l-.17-.11.24-.15v.03ZM176.98,130.65l-.05-.07v-.12s.97.64.97.64l.13.15.05.16v.21s-.06.04-.09.06l-.96-.63c.03-.14.02-.28-.06-.41ZM180.88,133.23l-.04-.07v-.12s.97.64.97.64l.13.15.05.16v.21s-.06.04-.09.07l-.96-.63c.03-.14.02-.28-.06-.41ZM184.79,135.81l-.05-.07v-.12s.98.64.98.64l.13.15.05.16v.21s-.06.04-.09.07l-.96-.63c.03-.14.02-.28-.06-.41ZM188.71,138.39l-.05-.07v-.12l.98.65.13.15.05.16v.22s-.07.04-.1.07l-.96-.64c.03-.14.02-.28-.06-.41ZM192.63,140.98l-.05-.07v-.12s.98.65.98.65l.13.15.05.16v.22s-.07.04-.1.07l-.97-.64c.03-.14.02-.28-.06-.41ZM196.55,143.58l-.05-.07v-.12s.99.65.99.65l.13.15.05.16v.21s-.07.04-.1.07l-.97-.64c.03-.14.02-.28-.06-.41ZM200.49,146.17l-.05-.07v-.12s.99.65.99.65l.13.15.05.16v.22s-.07.04-.1.07l-.97-.64c.04-.14.02-.28-.06-.41ZM204.43,148.77l-.05-.07v-.12s1,.66,1,.66l.13.15.05.16v.22s-.07.04-.1.07l-.97-.64c.03-.14.02-.28-.06-.41ZM208.37,151.38l-.05-.07v-.12s1,.66,1,.66l.13.15.05.16v.21s-.07.04-.1.07l-.98-.64c.04-.14.02-.28-.06-.41ZM212.32,153.99l-.05-.07v-.12s1,.66,1,.66l.13.15.05.16v.21s-.07.04-.1.07l-.98-.65c.04-.14.02-.28-.06-.41ZM216.28,156.6l-.05-.07v-.12s1.01.66,1.01.66l.13.15.05.16v.21s-.07.04-.11.07l-.98-.65c.04-.14.02-.28-.06-.41ZM220.25,159.22l-.05-.07v-.13s1.01.67,1.01.67l.13.15.05.16v.21s-.07.05-.11.07l-.98-.65c.04-.14.02-.28-.06-.41ZM224.29,161.55l2.73,1.81v.75s-.03-.03-.03-.03c-.04-.05-.08-.09-.13-.13l-2.57-1.7v-.71ZM206.19,56.26l-.74-.26s-.06-.02-.09-.02l-1.13-.18s-.06,0-.09,0h-.12s.05-.03.07-.06l.29-.35s.07-.1.09-.16l.08-.23s.02-.07.02-.1l.03-.31s0-.04,0-.06v-.63s2.66-.49,2.66-.49c.13-.02.25-.1.33-.21l.03-.05c.04-.06.07-.13.09-.2l.02-.1s0-.04,0-.06l.18-1.8s0-.02,0-.04v-.21s0-.04,0-.05v-.18s-.01-.03-.02-.04l-.03-.18s0-.03,0-.04l-.04-.19s0-.03,0-.04l-.06-.19.54-.03,3.5-.27,5.92-.49-11.57,7.23ZM204.68,45.56l2.04,4.39.08.2.08.3.03.28-.16,1.7-2.12.39v-.66s0-.03,0-.04l-.03-.45s0-.04,0-.06l-.09-.5s0-.03,0-.04l-.14-.52s-.01-.03-.02-.05l-.18-.47s-.03-.06-.03-.07l-1.84-3.96,2.39-.44ZM162.6,27.68l1-1.73.95-1.56,1.29-2.02,1.41-2.05,1.44-1.88,1.46-1.71,1.48-1.56,1.49-1.4,1.49-1.25,1.5-1.1,1.51-.96,1.48-.81,1.47-.68,1.44-.55,1.42-.42,1.39-.3,1.35-.18,1.31-.06,1.27.04,1.23.15,1.19.25,1.14.35,1.09.45,1.04.55.61.4-.06.03s-.03.01-.04.02l-2.72,1.53-2.84,1.79-2.92,1.95-2.94,1.99-3.08,2.06-3.21,2.05-3.63,2.14-3.41,1.77-3.44,1.49-3.31,1.1-.86.19.06-.1ZM157.25,32.54l-1.13,2.22-.54.99-.38.63-.56.83-1.3,1.8-.71.91-.79.93-.9.96-1.04,1-1.21,1.05-1.42,1.1-1.65,1.16-1.91,1.23-2.2,1.31-2.5,1.38-2.7,1.27-2.71.98-2.72.72-2.68.48-2.6.25-2.48.04-2.31-.16-2.1-.33-1.85-.48-1.55-.61-1.21-.71-.85-.79-.31-.48-.29-.84-.07-.88.15-.93.3-.79.5-.83.86-1.05,1.09-1.05,1.31-1.05,1.53-1.02,1.72-.98,1.95-.95,1.97-.85,1.94-.77,1.9-.7,1.85-.63,1.8-.56,1.73-.5,1.65-.45,1.57-.39,1.47-.35,1.37-.31,2.39-.51,2.24-.43,2.53-.42,11.5-1.69-.64,1.27ZM262.4,5.16s-.02.04-.03.06l-.16.4s-.01.03-.02.05l-.13.45s0,.03-.01.05l-.09.44s0,.04,0,.06l-.02.29-1.46-.39v-.13s.02-.33.02-.33l.08-.39.12-.4.14-.35.14-.24h0s1.47.39,1.47.39l-.03.05ZM259.73,4.32s-.02.04-.03.06l-.19.46s-.01.03-.02.05l-.15.51s0,.03-.01.05l-.1.51s0,.04,0,.06l-.04.43-1.55-.42v-.21s.02-.39.02-.39l.09-.46.14-.46.17-.41.16-.29.04-.05,1.55.42-.08.15ZM263.07,7.44l.04-.45.1-.52.16-.53.19-.47.19-.34.08-.09,1.51.41-.06.12s-.02.04-.03.06l-.24.59s-.01.03-.02.05l-.19.65s0,.03-.01.05l-.13.66s0,.04,0,.06l-.04.46-1.52-.41-.02-.29ZM253.7,2.31l.53-.07s.06-.01.09-.02l.42-.13.42-.06.44.05,1.66.44s-.02.02-.02.03l-.31.55s-.02.04-.03.06l-.28.69s-.01.03-.02.05l-.22.77s0,.03-.01.05l-.15.77s0,.04,0,.06l-.06.69s0,.05,0,.08l.02.28-1.55-.42-.45-.2-.16-.09-.35-.27-.29-.31s-.04-.04-.07-.06l-.42-.32-.14.18.09-.2-.41-.18s-.05-.02-.08-.03l-.15-.04-.02-.24.03-.42.09-.49.14-.49.18-.43.17-.31.06-.07.06.02s.05.01.08.02l.55.06s.08,0,.12,0ZM250.44,1.49l.1-.11,1.27.34-.15.27s-.02.04-.03.06l-.22.54s-.01.03-.02.05l-.18.6s0,.03-.01.05l-.12.6s0,.04,0,.06l-.04.54s0,.05,0,.07l-1.26-.34-.03-.32.04-.47.11-.55.16-.55.2-.49.2-.36ZM175.72,52.63s.05,0,.08,0l3.31-.5s.06-.01.09-.02l1.33-.47s.07-.03.1-.05l1.38-.83s.05-.03.07-.05l1.23-1.02s.04-.03.06-.05l.89-.99s.02-.03.03-.04l.58-.8.09-.09h0s.23-.23.23-.23h0s0,0,0,0l.35-.37.79-.51.86-.35.94-.27,4.22-.45,4.3-.38,3.61-.28h.11s.21.13.21.13l.08.09.14.25,2.26,4.87.27.65.11.41.1.51.03.4v2.31s-.03.23-.03.23l-.03.09-.14.17-.09.05-3.28.98-1.59-.04-1.19-.18-1.05-.43-2.26-1.57-.65-.69c-.09-.09-.2-.15-.33-.16l-.34-.03c-.07,0-.14,0-.2.02l-.52.16s-.06.02-.09.04l-.61.32s-.02.01-.03.02l-.73.45-.53-.22c-.05-.02-.1-.03-.16-.04l-2.71-.22s-.08,0-.12,0l-2.98.41s-.05,0-.08.02l-3.23.94-.32.11h0s-.02,0-.02,0l-3.26,1.3-.41.2v-.57s0-.04,0-.06l-.05-.39s0-.04-.01-.06l-.13-.54s0-.03-.01-.04l-.2-.6s0-.02-.01-.03l-.24-.59-.4-.88h0s.2-.01.2-.01ZM52.38,102.55l2.94-.28,2.89-.07,2.7.14,2.59.34,2.54.54,2.46.75,2.4.95,2.33,1.16,2.26,1.37,1.97,1.44,1.63,1.5,1.32,1.54,1.04,1.58.77,1.61.51,1.59.17.94.06,1.14-.94-1.7s-.02-.04-.04-.06l-1.51-2.02s-.03-.03-.04-.05l-1.77-1.83s-.03-.03-.05-.04l-2-1.64s-.03-.02-.05-.03l-2.22-1.45s-.03-.02-.04-.03l-2.41-1.25s-.03-.01-.04-.02l-2.57-1.05s-.03-.01-.04-.02l-2.72-.85s-.03,0-.04-.01l-2.84-.65s-.03,0-.04,0l-2.94-.45s-.02,0-.04,0l-3.01-.24s-.02,0-.04,0l-3.06-.04s-.02,0-.04,0l-3.11.18-3.09.34-3.06.46-3.03.59-2.98.72-2.92.86-2.84,1-2.75,1.15-2.6,1.28s-.02.01-.03.02l-2.47,1.43s-.02.01-.03.02l-1.71,1.16,2.24-1.77,2.89-1.93,3.04-1.72,3.26-1.58,3.88-1.59,3.86-1.31,3.25-.92,3.14-.7,2.99-.48ZM78.74,129.97l-1.27,1.46-1.43,1.45-1.57,1.41-1.67,1.34-1.51,1.09-1.9,1.23-1.96,1.14-2.01,1.04-2.06.93-2.23.89-2.5.89-2.73.84-2.91.76-3.06.63-3.17.46-3.26.25h-3.28s-3.28-.28-3.28-.28l-3.24-.6-3.18-.97-3.09-1.38-2.38-1.4-2.31-1.74-1.87-1.82-1.45-1.88-1.04-1.92-.64-1.95-.26-1.96.08-1.38.45-1.87.84-1.95,1.19-1.91,1.55-1.86,1.83-1.76,2.01-1.62,2.17-1.48,2.31-1.34,2.42-1.19,2.55-1.07,2.65-.93,2.73-.81,2.8-.68,2.85-.56,2.89-.44,2.89-.32,2.87-.16,2.81.03,2.76.22,2.68.41,2.59.6,2.47.78,2.34.96,2.19,1.14,2.01,1.31,1.82,1.49,1.6,1.66,1.37,1.84,1.68,3.03,1,2.65-.34.87-.74,1.47-.93,1.48-1.12,1.48ZM68.78,149.13l-2.55.94-2.7.83-2.9.7-3.15.56-3.46.41-3.51.21-4.54.07-4.35-.32-4.22-.8-4.05-1.24-3.83-1.63-3.16-1.75-3.1-2.19-2.75-2.44-2.29-2.61-.44-.68.29.38s.03.04.05.06l2.07,2.02s.03.03.05.04l2.54,1.91s.03.02.05.03h0s0,0,0,0l.1.06,3.31,1.96s.04.02.05.03l3.27,1.46s.04.02.06.02l3.39,1.03s.04.01.06.01l3.46.65s.03,0,.05,0l3.48.3s.03,0,.05,0h3.46s.03,0,.04,0l3.44-.27,3.34-.49,3.21-.66,3.04-.79,2.83-.88,2.59-.92,2.33-.93,2.18-.99,2.14-1.11,2.08-1.21,2.01-1.3,1.55-1.12.67-.48h0s.02-.02.02-.02l1.83-1.47,1.71-1.53,1.57-1.58,1.39-1.6s.02-.02.02-.03l1.22-1.62s.02-.02.02-.04l.04-.07.08,1.01-.14,3.48-.51,3.46-.93,3.96-.4,1.26-4.89,2.51-2.42,1.21-2.41,1.13-2.46,1.05ZM102.01,68.63l.33-.68.57-1.04.62-.94.69-.84.78-.73.87-.61.67-.34.96-.34,1.07-.23,1.06-.1,1.04.03.99.16.81.25.51.25.65.47.55.59.17.28-.11.05-.89.33-6.11,2.08-1.18.36-3.07.87-.64.21-.36-.07ZM88.61,88.4h-.06s-.16-.03-.16-.03l-1.21-.47-1.13-.63-.87-.65-.72-.7-.66-.87-.1-.19,1.52-.66.36-.17s.02-.01.03-.02l5.52-3.01s.03-.02.05-.03l4.07-2.87-.11,3.32-.1,1.13-.18,1.04-.3.93-.43.82-.32.39-.78.66-.99.66-1.09.56-1.15.45-1.2.33ZM85.62,80.12l1.56-.82,1.78-.83.24-.11-.1.07-5.08,2.77.32-.27,1.28-.81ZM80.64,86.19l.18.33s.03.05.05.07l.2.26-.24-.19-.38-.39.2-.09ZM101,74.44l-.64.44-.09-.53s-.01-.05-.02-.08l-.3-.89c-.02-.07-.07-.14-.12-.2l-.7-.73s-.09-.08-.14-.1l-.87-.44s-.05-.02-.07-.03l-.82-.26-.06-.02.84-.07.89.05.03-.47h0s0,.47,0,.47c0,0,.04,0,.04,0l1.63.19.27.65.07.21s0,0,0,.01l.2.73v.05s0,.01,0,.02l.04.61-.2.38ZM64.11,165.08l-2.26.27-2.29.23-2.32.18-2.34.11-2.35.03-2.34-.06-2.35-.17-2.33-.26-2.79-.41-3.16-.58-3.46-.78-3.67-1.01-3.56-1.18-3.75-1.51-3.79-1.85-3.69-2.19-3.51-2.55-3.26-2.94-2.93-3.36-2.33-3.58-1.53-3.57-.77-3.49-.06-2.96.6-3.56,1.25-3.55,1.88-3.53,2.48-3.49,3.05-3.44,3.59-3.38,4.11-3.29,4.56-3.18,4.99-2.85,5.23-2.36,5.93-2.2,6.24-1.99,6.44-1.87,6.53-1.83,6.53-1.88,6.43-2.02,4.11-1.49.52.65s.02.03.04.04l1.06,1.08s.03.03.05.04l1.19.95s.05.03.07.05l1.34.73s.05.02.08.03l1.43.51s.05.02.07.02l1.49.3s.05,0,.07,0l1.52.1s.02,0,.03,0c0,0,.02,0,.03,0l1.52-.08s.04,0,.06,0l.91-.15.46.1s.06.01.09.01l1.67.09s.02,0,.03,0c.02,0,.04,0,.07,0l1.7-.21s.08-.01.12-.03l1.55-.57.38-.17h0s.07-.04.11-.06l1.29-.97s.07-.06.1-.1l.92-1.19s.04-.06.06-.1l.64-1.35s.02-.05.03-.07l.44-1.47s0-.03.01-.05l.31-1.57.22-1.59.35-3.04.22-1.36.14-.54h.28c.06,0,.11-.02.16-.04.01,0,.02-.01.03-.02.04-.02.08-.04.12-.07.02-.01.03-.03.04-.04.03-.03.05-.05.07-.08.01-.02.02-.04.03-.06,0-.02.02-.04.03-.06l.47-1.36.9-.62c.07-.05.13-.11.17-.19l.32-.61.87-.45,1.94-.85.5-.2,2.71.76,1.67.44,1.78.41,1.9.35,2.04.27,2.19.17,2.24.06,2.18-.04,2.14-.13,2.12-.23,2.11-.31,2.11-.4,2.12-.47,2.16-.55,2.21-.62,2.27-.68,2.35-.74,2.49-.81,2.58-.96,2.58-1.15,2.58-1.29,2.58-1.38,5.22-2.87,2.65-1.4,2.69-1.32,2.74-1.2,2.81-1.05,2.85-.85,1.29-.27.13.29.09.17-1.74.82-3.11,1.63-3.64,1.99-7.59,4.26-4.59,2.49-3.14,1.58-3.8,1.88-3.68,1.91-3.52,1.95-3.35,1.98-3.2,2.03-3.05,2.08-.09.06h0s-.5.36-.5.36l-2.71,1.98-2.84,2.26-2.68,2.3-2.6,2.39-2.52,2.5-2.41,2.56-2.16,2.59s-.02.03-.03.04l-1.63,2.41s-.02.03-.03.05l-1.25,2.33s-.02.03-.02.05l-.94,2.27s-.01.03-.02.04l-.71,2.27-.55,2.24-.93,4.53-.53,2.34-.68,2.45-.91,2.6-1.21,2.76-1.02,1.88-1.18,1.79-1.34,1.71-1.5,1.64-1.64,1.56-1.8,1.52-1.46,1.11-2.08,1.43-2.21,1.39-2.33,1.36-1.06.58.47-1.98s0-.03,0-.05l.55-3.77s0-.04,0-.06l.15-3.66s0-.04,0-.06l-.29-3.5-.1-.75s0-.03,0-.04l-.48-2.16.47-1.65s0-.03.01-.05l.31-1.73s0-.04,0-.06l.12-1.76s0-.04,0-.06l-.09-1.78s0-.04,0-.07l-.46-2.52s0-.04-.02-.07l-.57-1.78s-.02-.04-.03-.07l-.85-1.77s-.02-.04-.03-.06l-1.14-1.74s-.03-.04-.04-.05l-1.46-1.7s-.03-.03-.04-.05l-1.79-1.65s-.03-.03-.04-.04l-2.15-1.58s-.03-.02-.04-.03l-2.44-1.48s-.03-.01-.04-.02l-2.53-1.26s-.03-.01-.04-.02l-2.62-1.04s-.03-.01-.04-.01l-2.72-.82s-.03,0-.04-.01l-2.81-.6s-.03,0-.04,0l-2.94-.38h-.08s-.02,0-.02,0h0s-2.96-.15-2.96-.15c-.01,0-.03,0-.04,0l-3.01.07s-.02,0-.04,0l-3.12.29h-.02s0,0,0,0l-.19.03-3.19.51-3.37.75-3.38.95-4.14,1.4-3.84,1.56-3.57,1.71s-.02.01-.03.02l-3.32,1.88s-.02.01-.03.02l-3.05,2.03s-.02.02-.03.03l-2.76,2.18s-.02.02-.04.03l-2.45,2.32s-.02.02-.04.04l-2.12,2.46s-.02.03-.04.05l-1.78,2.58s-.02.04-.03.05l-1.41,2.7s-.02.04-.03.06l-1.03,2.82s-.02.05-.02.07l-.63,2.93s0,.05,0,.07h0s-.05.71-.05.71l-.05,3.04s0,.08.01.12l.66,3.07s.02.07.03.1l1.32,3.03s.03.05.04.08l1.92,2.94s.03.04.04.06l2.45,2.8s.03.03.05.05l2.94,2.61s.03.03.05.04l3.36,2.37s.03.02.04.03h0s0,0,0,0l.14.08,3.98,2.22s.03.02.05.02l3.99,1.7s.03.01.05.02l4.25,1.3s.04.01.06.01l4.44.85s.04,0,.06,0l4.57.33s.03,0,.04,0h0l4.4-.05,3.98-.24,3.64-.43,3.33-.59,3.07-.75,2.85-.88,2.68-.99,2.55-1.09,2.47-1.16,2.44-1.22,2.04-1.05-.76,2-1.92,4.42-2.11,4.4-2.34,4.56-.45.84-5.48.78-2.21.3ZM187.24,250.79l-.14.65-.15.27-.38.6-.56.48-.76.38-.9.24-1.01.08h-.03s-43.42-.25-43.42-.25l-1.08-.1-.89-.25-.74-.39-.53-.48-.51-.88-.31-2.03.48.14s.03,0,.05.01l.13.02s.03,0,.04,0l1.12.1s.03,0,.05,0l47.61.27h0s.03,0,.04,0l1.13-.09s.03,0,.05,0l.12-.02s.03,0,.04,0l.72-.19-.19,1.45ZM189.35,246.05l-.14.65-.4.64-.59.5-.8.4-.98.26-1.15.1-47.56-.27-1.08-.1-1.04-.29-.78-.41-.56-.51-.36-.62-.13-.67-.71-6.42.07.06s.07.05.11.07l.89.47s.07.03.1.04l1.04.3s.06.01.09.02l1.12.11s.03,0,.05,0l49.76.29h0s.03,0,.04,0l1.13-.09s.06,0,.09-.02l1.05-.29s.07-.02.1-.04l.91-.46s.07-.04.11-.07l.2-.18-.61,6.51ZM182.31,212.68l1.16,1.91.69,2,.21,2.04-.27,2.04-.75,2-1.22,1.91-1.67,1.78-2.09,1.6-2.45,1.37-2.75,1.1-2.98.8-3.14.48-3.21.15-3.21-.19-3.12-.52-3.07-.88s-.05-.01-.08-.02l-.77-.1s-.07,0-.1,0l-.86.06s-.03,0-.04,0l-.09-.33-.74.21s-.06.02-.08.03l-5.02,2.37-1.99.69.11.32-.1.03-2.12.23-2.12-.22-1.89-.64-1.46-.98-.89-1.18-.28-1.26.31-1.26.92-1.19.21-.14.05.08.98-.65-.56.72s-.05.07-.06.11l-.47.6c-.04.06-.08.12-.1.19l-.28,1.12c-.02.08-.02.16,0,.24l.25,1.12c.02.07.05.14.09.2l.76,1.01s.08.09.13.12l1.19.8s.08.05.12.06l1.51.52h0s0,0,0,0l.16-.47-.04.49,1.67.18s.04,0,.06,0,.04,0,.05,0l1.68-.18s.08-.01.11-.03l1.52-.52v-.02s.1-.07.1-.07l.02.03,1.22-.8s.09-.07.13-.12l.79-1.01c.05-.06.08-.12.1-.2l.28-1.12c.02-.08.02-.16,0-.24l-.25-1.12c-.02-.07-.05-.14-.09-.2l-.76-1.01s-.04-.03-.05-.05l-.41-.55s-.08-.09-.13-.12l-1.07-.72s-.08-.05-.12-.06l-1.35-.46s-.08-.02-.11-.03l-1.5-.16s-.07,0-.11,0l-.56.06s-.04,0-.04,0l-.88.09,1.95-.96s.03-.02.03-.02l.31-.15s.07-.04.11-.07l.53-.45-.13-.15.22-.41-.46-.25h.53s.01-.5.01-.5c0-.06,0-.12-.03-.18l-.4-1.18-.19-2.04.29-2,.78-2.03,1.24-1.9,1.68-1.77,2.09-1.58,2.44-1.35,2.74-1.09,2.76-.74v1.42s-1.47.39-1.47.39c-.02,0-.04.01-.06.02l-2.3.91s-.04.02-.06.03l-2.06,1.14s-.04.03-.06.04l-1.77,1.34s-.04.04-.06.06l-1.43,1.5s-.04.05-.06.08l-1.06,1.63s-.04.06-.05.1l-.67,1.72s-.02.08-.03.11l-.26,1.77s0,.08,0,.12l.16,1.78s.01.08.02.12l.56,1.69s.03.07.05.1l.93,1.58s.04.06.06.08l1.31,1.47.05-.04.06.07-.03.04s.03.02.03.02l1.98,1.59s.06.04.08.05l1.93,1.13s.04.02.06.03l2.16.91h0s.05.01.05.01l.03-.07h0s-.02.07-.02.07l2.47.7s.04,0,.06.01l2.6.43s.04,0,.06,0l2.67.16s.02,0,.03,0c0,0,.02,0,.02,0l2.68-.13s.04,0,.06,0l2.62-.4s.04,0,.06-.01l2.49-.67-.02-.06h.01s.02.06.02.06l.04-.02h0s2.3-.92,2.3-.92c.02,0,.04-.02.06-.03l2.06-1.15s.04-.03.06-.04l1.76-1.35s.04-.04.06-.06l1.43-1.51s.04-.05.06-.08l1.05-1.64s.04-.06.05-.1l.65-1.73s.02-.08.03-.12l.24-1.77s0-.08,0-.12l-.18-1.77s-.01-.08-.03-.12l-.6-1.73s-.03-.07-.05-.1l-1-1.65s-.04-.05-.06-.08l-1.37-1.52s-.04-.04-.06-.06l-1.71-1.36s-.04-.03-.06-.04l-2.01-1.16s-.04-.02-.06-.03l-2.26-.94s-.04-.01-.06-.02l-1.99-.56-.02-1.41.54.09,2.93.82,2.69,1.12,2.39,1.38,2.02,1.6,1.61,1.78ZM141.26,232.14l-1.25-.43-1.01-.68-.05-.06.7.47s.08.05.13.06l1.35.46s.08.02.11.03l1.5.16s.04,0,.06,0,.04,0,.06,0l1.51-.16s.08-.01.11-.03l1.37-.46s.08-.03.12-.06l.78-.52-.07.1-1.03.68-1.27.43-1.57.16-1.55-.17ZM147.02,227.61l.17.77-.19.77-.58.75-.96.63-1.25.42-1.4.15-1.39-.15-1.23-.42-.94-.63-.56-.74-.09-.42s0,0,0,0l-.07-.34.2-.78.58-.75.96-.63,1.2-.41.89-.1s.04,0,.04,0l.51-.05,1.39.15,1.23.42.94.63.56.74ZM168.72,186.19l.4,23.21.43-.02h.01s-.45.06-.45.06l.06,2.7s0,.05,0,.05l.02.6s.01.11.03.16l.07.21,1-.33-.05-.15-.02-.49.02.03.38.85.39,1.64.26-.06.22.5.11.85-.07.42-.42.89-.68.82-.71.56-1.23.66-1.42.49-1.54.3-1.61.1-1.6-.11-1.53-.32-1.4-.51-1.17-.65-.67-.56-.66-.85-.37-.85-.05-.4.15-.9.24-.51.23.05.37-1.63.34-.71v.33s-.05.15-.05.15l1,.32.07-.23s.02-.1.03-.15l.19-26.52,1.44,1.69s.07.07.12.1l.4.26c.05.03.12.06.18.07l.53.11s.07,0,.1.01l3.98.02h0s.07,0,.1,0l.54-.1c.06-.01.12-.03.18-.07l.41-.25s.08-.06.12-.1l1.57-1.74ZM169.25,228.67l-.6.12-2.19.34-2.62.12-2.62-.15-2.04-.34-.79-.16-1.13-.32-2.17-.79-2.35-1.31-1.9-1.58-1.38-1.78-.86-2h0s-.03-.07-.05-.1c-.11-.15-.28-.23-.47-.22h-.07s-.13-.4-.13-.4l-.15-1.63.15-1.07.28.02s.03,0,.04,0c0,0,.02,0,.03,0,.2,0,.39-.12.47-.3l.96-1.99.3-.36-.33.68s-.04.09-.04.14l-.32,1.85c0,.05-.01.1,0,.15l.23,1.85s.02.1.04.14l.98,2.27.11-.05.06.08-.1.08,1.26,1.63s.05.06.08.08l1.72,1.43s.05.04.08.06l2.11,1.18s.05.03.08.03l2.42.88s.05.02.07.02l2.63.55s.05,0,.07,0l2.74.2s.03,0,.04,0c.01,0,.02,0,.03,0l2.75-.16s.05,0,.07,0l2.65-.52s.05-.01.07-.02l2.45-.85s.05-.02.08-.03l2.15-1.15s.05-.03.08-.05l1.77-1.41s.06-.05.08-.08l1.33-1.61s.05-.07.07-.11l.83-1.75h-.02s0-.03,0-.03h.02s.22-.5.22-.5c.02-.04.03-.08.04-.12l.3-1.85c0-.05,0-.1,0-.15l-.24-1.85s-.02-.1-.04-.14l-.42-.95.48.61.88,1.99c.08.19.31.31.52.31,0,0,.02,0,.03,0h.24s.11,1.04.11,1.04l-.22,1.63-.16.41h-.06c-.18-.02-.36.06-.47.21-.02.03-.03.06-.05.09h0s-.94,1.99-.94,1.99l-1.45,1.76-1.96,1.56-2.4,1.29-2.11.74-1.33.36ZM169.39,221.55l-1.52.53-1.94.38-2.01.12-2.01-.14-1.92-.4-1.38-.5-.07-.04,1.46.53s.05.02.07.02l1.84.38s.05,0,.07,0l1.92.14s.03,0,.04,0c.01,0,.02,0,.03,0l1.92-.11s.05,0,.07,0l1.85-.36s.05-.01.07-.02l1.59-.55-.07.04ZM170.18,212.12l.03.04-.5.02.47-.06ZM171.44,218.68l-.04-.05.06-.07.06.05.81-.98s.05-.07.07-.11l.51-1.06s.04-.09.04-.14l.18-1.11c0-.05,0-.1,0-.15l-.13-1.01.18.41.15,1.12-.19,1.12-.52,1.09-.85,1.03-1.16.92-1.43.76-1.64.57-1.78.35-1.85.11-1.85-.13-1.76-.37-1.61-.59-1.39-.78-1.12-.93-.81-1.04-.47-1.1-.14-1.12.19-1.12.15-.32-.15.89c0,.05,0,.1,0,.15l.14,1.11s.02.1.04.14l.46,1.07s.04.08.07.11l.77.99s.05.06.08.08l1.05.87h0s.03.02.03.02l.28-.34-.2.39,1.25.7s.05.03.08.03l1.47.54s.05.02.07.02l1.6.33s.05,0,.07,0l1.67.12s.02,0,.04,0c.01,0,.02,0,.03,0l1.68-.1s.05,0,.07,0l1.62-.32s.05-.01.07-.02l1.49-.52s.05-.02.08-.03l1.31-.7s.05-.03.08-.05l1.08-.86ZM161.36,182.72l.26-.16.39-.07,3.87.02.39.08.25.16,1.83,2.14.03.08-.03.09-1.91,2.13-.26.16-.39.07-3.87-.02-.39-.08-.25-.16-1.82-2.14-.03-.08.03-.09,1.92-2.12ZM133.62,205.92l.15-.68.04-.15.36-.55.6-.5.84-.42.15-.07.99-.26,1.47-.21,1.11-.09,18.56.11v1.78s-.04,0-.06,0l-3.02.81s-.04.01-.06.02l-2.8,1.11s-.04.02-.06.03l-2.51,1.39s-.04.03-.06.04l-2.15,1.63s-.04.04-.06.06l-1.75,1.83s-.04.05-.06.08l-1.3,1.99s-.04.06-.05.1l-.82,2.11-.24.66.13.05-.23,1.56s0,.08,0,.12l.2,2.16s.01.08.02.12l.39,1.15v.29s-.18.32-.18.32l-.35.3-.74.36h0s-3.98,1.96-3.98,1.96c-.02,0-.04.02-.06.03l-1.61,1.07s-.09.07-.13.12l-1.04,1.34s-.05.07-.07.11l-.38.86.14.06-.16.66c-.02.08-.02.16,0,.24l.34,1.49c.02.07.05.14.09.2l1.01,1.34s.08.09.13.12l1.59,1.06s.08.05.12.06l2.01.68s.08.02.11.03l2.23.23s.04,0,.05,0,.04,0,.06,0l2.24-.24s.08-.01.11-.03l2.02-.69s.04-.01.06-.02l5.09-2.4.63-.17.75-.05.68.09,3.06.88s.04,0,.06.01l3.17.53s.04,0,.06,0l3.26.19s.04,0,.06,0l3.27-.15s.04,0,.06,0l3.19-.49s.04,0,.06-.01l3.04-.82s.04-.01.06-.02l2.81-1.12s.04-.02.06-.03l2.51-1.4s.04-.03.06-.04l2.15-1.65s.04-.04.06-.06l1.74-1.85s.04-.05.06-.08l1.28-2s.04-.06.05-.1l.79-2.11s.02-.08.03-.12l.29-2.16s0-.08,0-.12l-.23-2.16s-.01-.08-.03-.12l-.73-2.11s-.03-.07-.05-.1l-.86-1.41.04-.03-.42-.59h0s-.02-.03-.04-.05l-1.67-1.85s-.04-.04-.06-.06l-2.09-1.65s-.04-.03-.06-.04l-2.45-1.41s-.04-.02-.06-.03l-2.75-1.14s-.04-.01-.06-.02l-2.99-.84s-.04,0-.06-.01l-.76-.13-.03-1.66,14.88.08,1.08.1,1.56.23.98.27.97.49.57.5.35.57.17.82-.37,30.22-.05.51-.13.64-.35.56-.6.51-.74.38-1.03.29-1.07.09-49.7-.29-1.06-.1-.95-.27-.79-.42-.57-.51-.33-.55-.09-.51-.08-.64.88-30.2ZM152.47,189.79l-.14.62-.15.28-.36.56-.55.46-.75.37-.9.24-1.03.09-42.63-.24-.94-.09-.12-.02-.88-.25-.72-.37-.51-.46-.5-.86-.32-2.11.41.11s.02,0,.04,0l.13.03s.04,0,.06,0l1.1.1s.03,0,.04,0l46.76.26h0s.03,0,.04,0l1.11-.09s.04,0,.06,0l.94-.24-.19,1.58ZM154.48,185.03l-.14.63-.39.61-.58.49-.79.39-.95.25-1.14.1-46.72-.26-1.05-.1-1.03-.28-.76-.39-.54-.49-.35-.59-.12-.65-.75-6.41h.01s.07.07.11.09l.87.45s.07.03.1.04l1.02.29s.06.01.09.02l1.1.1s.03,0,.05,0l48.88.28h0s.03,0,.04,0l1.11-.09s.06,0,.09-.02l1.04-.28s.07-.02.1-.04l.9-.44s.07-.04.1-.07l.24-.2-.55,6.58ZM147.67,152.44l1.12,1.84.66,1.92.19,1.96-.28,1.96-.76,1.93-1.22,1.85-1.66,1.72-2.06,1.54-2.42,1.32-2.71,1.06-2.94.78-3.09.47-3.16.15-3.15-.18-3.06-.5-3.01-.85s-.05-.01-.08-.02l-.75-.09s-.07,0-.1,0l-.84.06s-.03,0-.04,0l-.09-.32-.73.2s-.06.02-.09.03l-5,2.31-.27.09,1.19-.77s.09-.07.13-.11l.78-.98c.05-.06.08-.12.1-.19l.29-1.08c.02-.08.02-.17,0-.25l-.24-1.08c-.02-.07-.05-.14-.09-.2l-.74-.97s-.03-.02-.04-.04l-.43-.57s-.08-.09-.13-.12l-1.04-.69s-.08-.04-.12-.06l-1.32-.44s-.07-.02-.11-.02l-1.47-.15s-.07,0-.11,0l-1.26.13,2.09-1.01s.07-.04.1-.06l.53-.43-.12-.14.22-.39-.46-.26.53.02.02-.49c0-.06,0-.12-.03-.18l-.38-1.14-.16-1.96.31-1.96.78-1.92,1.24-1.83,1.67-1.7,2.07-1.52,2.41-1.3,2.7-1.05,2.49-.65v1.32s-1.24.33-1.24.33c-.02,0-.04.01-.06.02l-2.27.88s-.04.02-.06.03l-2.03,1.1s-.04.02-.06.04l-1.75,1.29s-.04.03-.06.06l-1.42,1.45s-.04.05-.06.07l-1.06,1.58s-.04.06-.05.1l-.67,1.66s-.03.08-.03.12l-.27,1.71s0,.08,0,.13l.14,1.71s.01.08.02.12l.54,1.63s.03.07.05.1l.9,1.52s.04.06.06.08l1.27,1.42.04-.04.07.08-.03.04.08.06s.03.02.03.02l1.83,1.46s.05.03.07.05l1.9,1.09s.04.02.06.03l2.12.87h0s.02,0,.02,0l.02-.05.05.02v.06s2.38.67,2.38.67c.02,0,.04,0,.06.01l2.55.42s.04,0,.06,0l2.63.15s.02,0,.03,0c0,0,.02,0,.02,0l2.63-.12s.04,0,.05,0l2.58-.39s.04,0,.06-.01l2.46-.65s.04-.01.06-.02l2.27-.89h0s.06-.04.06-.04h0s2.03-1.1,2.03-1.1c.02-.01.04-.03.06-.04l1.75-1.3s.04-.04.06-.06l1.41-1.46s.04-.05.06-.08l1.05-1.58s.04-.06.05-.1l.66-1.67s.03-.08.03-.12l.25-1.71s0-.08,0-.13l-.16-1.71s-.01-.08-.03-.12l-.57-1.67s-.03-.07-.05-.1l-.96-1.59s-.04-.06-.06-.08l-1.33-1.47s-.04-.04-.06-.06l-1.67-1.31s-.04-.03-.06-.04l-1.96-1.12s-.04-.02-.06-.03l-2.21-.9s-.04-.01-.06-.02l-2.11-.58-.03-1.31.72.12,2.87.79,2.63,1.08,2.33,1.33,1.97,1.54,1.56,1.72ZM102.28,167.46l.91-1.14.2-.13.05.07.82-.53-.43.53s-.07.1-.09.15l-.02.05-.41.51c-.05.06-.08.12-.1.19l-.29,1.08c-.02.08-.02.17,0,.25l.23,1.08c.02.07.05.14.09.21l.73.98s.08.09.13.12l1.16.78.02-.03.11.07v.02s1.47.5,1.47.5c.04.01.08.02.11.03l1.65.17s.04,0,.05,0,.04,0,.05,0l1.66-.17s.08-.01.11-.02l.1.3-.1.03-2.09.22-2.08-.21-1.85-.62-1.42-.94-.86-1.13-.26-1.2.32-1.21ZM105.94,170.78l-.97-.65-.03-.04.65.43s.08.05.12.06l1.32.45s.07.02.11.03l1.48.15s.04,0,.05,0,.04,0,.05,0l1.48-.15s.08-.01.11-.02l1.35-.45s.08-.03.12-.06l.78-.5-.07.09-1,.64-1.27.42-1.55.16-1.54-.16-1.22-.41ZM111.99,171.64l.03.05h-.01s-.02-.05-.02-.05ZM112.03,171.69l.08-.05v.02s-.08.03-.08.03ZM112.85,166.82l.16.73-.2.74-.58.72-.95.61-1.23.41-1.37.14-1.36-.14-1.2-.41-.91-.61-.51-.68s0,0,0,0l-.17-.75.19-.7.59-.76.95-.61,1.14-.37,1.46-.17,1.36.14,1.2.4.91.6.54.71ZM137.74,166.92l-1.44.49-1.83.48-2.52.38-2.58.12-2.57-.15-2.41-.4h-.03s-1.67-.47-1.67-.47l-1.87-.67h-.02s-2.29-1.27-2.29-1.27l-1.84-1.52-1.33-1.71-.82-1.92h0s-.03-.07-.05-.1c-.11-.15-.28-.23-.47-.22h-.07s-.13-.38-.13-.38l-.13-1.57.16-1,.32.02s.02,0,.03,0c.2,0,.38-.11.47-.29l.96-1.92.12-.14-.19.37s-.04.09-.05.14l-.33,1.78c0,.05-.01.1,0,.16l.21,1.79c0,.05.02.1.04.15l.74,1.73.21.48.11-.05.06.08-.1.08,1.22,1.57s.05.06.08.08l1.67,1.38s.05.04.08.05l2.06,1.14s.05.03.08.03l2.36.85s.05.02.07.02l2.58.53s.05,0,.07,0l2.69.19s.02,0,.04,0c.01,0,.02,0,.03,0l2.7-.16s.05,0,.07,0l2.61-.5s.05-.01.07-.02l2.42-.82s.05-.02.07-.03l2.13-1.11s.05-.03.08-.05l1.76-1.36s.06-.05.08-.08l1.32-1.55s.05-.07.07-.11l.83-1.69-.03-.02v-.03s.05.01.05.01l.21-.51s.03-.07.03-.11l.32-1.78c0-.05.01-.1,0-.16l-.22-1.79c0-.05-.02-.1-.04-.15l-.36-.82.44.55.84,1.92c.08.19.31.31.52.31,0,0,.02,0,.03,0h.21s.09.96.09.96l-.23,1.57-.16.41h-.04c-.19-.02-.36.06-.47.21-.02.02-.03.05-.04.08h0s-.94,1.92-.94,1.92l-1.44,1.7-1.94,1.51-2.24,1.17-.49.19ZM136.89,158.14l-.03-.04.06-.07.05.04.81-.95s.05-.07.07-.11l.51-1.03s.04-.09.05-.14l.19-1.07c0-.05.01-.1,0-.16l-.11-.92.16.36.13,1.07-.19,1.07-.52,1.05-.84.99-1.15.89-1.41.74-1.61.55-1.75.34-1.82.11-1.81-.13-1.73-.35-1.58-.57-1.36-.75-1.09-.89-.78-.99-.45-1.04-.13-1.08.2-1.07.11-.21-.13.72c0,.05-.01.1,0,.16l.13,1.07c0,.05.02.1.04.15l.44,1.03s.04.08.07.12l.75.95s.05.06.08.08l1.02.84h0s0,0,0,0l.33-.4-.25.45,1.25.69s.05.03.08.03l1.44.52s.05.02.07.02l1.57.32s.05,0,.07,0l1.64.11s.02,0,.04,0c.01,0,.02,0,.03,0l1.65-.1s.05,0,.07,0l1.59-.3s.05-.01.07-.02l1.47-.5s.05-.02.07-.03l1.3-.68s.05-.03.08-.05l1.07-.83ZM135.75,152.32v-.5s0,.03,0,.03l.37.82.4,1.64.26-.06.21.49.09.77-.08.42-.42.86-.63.74-.75.58-1.22.64-1.4.48-1.52.29-1.58.09-1.57-.11-1.5-.31-1.37-.49-1.17-.65-.62-.51-.64-.81-.34-.79-.05-.39.16-.86.26-.51.21.05.34-1.58.31-.63v.19s-.05.15-.05.15l1.01.31.07-.22s.02-.1.02-.15l.02-1.17v-1.74s-.49,0-.49,0h0s.49-.06.49-.06l-.02-23.4,1.36,1.59s.07.07.12.1l.39.25c.05.03.11.06.18.07l.52.1s.07,0,.1.01l3.91.02h0s.06,0,.1,0l.53-.1c.06-.01.12-.03.17-.07l.41-.24s.08-.06.12-.09l1.56-1.69.53,21.54.14,4.97,1.05-.05ZM126.82,122.52l.26-.15.39-.07,3.8.02.38.07.24.15,1.77,2.06.02.06-.03.07-1.9,2.05-.26.15-.39.07-3.8-.02-.38-.08-.24-.15-1.76-2.06-.02-.06.03-.07,1.9-2.04ZM99.97,146l.2-.81.36-.52.59-.48.99-.48.97-.25,1.44-.24,1.07-.09,17.94.1v1.72s-2.78.73-2.78.73c-.02,0-.04.01-.06.02l-2.76,1.07s-.04.02-.06.03l-2.48,1.34s-.04.02-.06.04l-2.13,1.57s-.04.03-.06.05l-1.73,1.77s-.04.05-.06.07l-1.29,1.92s-.04.06-.05.1l-.83,2.05-.23.66.11.04-.23,1.48s0,.08,0,.13l.17,2.09s.01.08.02.12l.37,1.11v.27s-.16.28-.16.28l-.36.31-4.65,2.24s-.04.02-.06.03l-1.59,1.03s-.09.07-.13.11l-1.03,1.3s-.05.08-.07.12l-.37.84.12.05-.16.62c-.02.08-.02.17,0,.25l.32,1.44c.02.07.05.14.09.2l.98,1.3s.08.09.13.12l1.55,1.03s.08.05.12.06l1.97.66s.07.02.11.02l2.19.22s.04,0,.05,0,.04,0,.06,0l2.2-.23s.08-.01.11-.02l1.99-.67s.04-.01.05-.02l5.02-2.32.62-.17.74-.05.66.08,3,.85s.04,0,.06.01l3.11.51s.04,0,.06,0l3.2.18s.04,0,.05,0l3.21-.15s.04,0,.05,0l3.14-.47s.04,0,.06-.01l2.99-.79s.04-.01.06-.02l2.77-1.09s.04-.02.06-.03l2.48-1.35s.04-.03.06-.04l2.13-1.59s.04-.04.06-.06l1.72-1.78s.04-.05.06-.08l1.28-1.93s.04-.06.05-.1l.8-2.03s.03-.08.03-.12l.3-2.09s0-.08,0-.13l-.2-2.09s-.01-.08-.03-.12l-.7-2.03s-.03-.07-.05-.1l-.82-1.34.04-.03-.42-.6h0s-.02-.04-.04-.05l-1.63-1.79s-.04-.04-.06-.06l-2.03-1.59s-.04-.03-.06-.04l-2.39-1.36s-.04-.02-.06-.03l-2.69-1.1s-.04-.01-.06-.02l-2.93-.81s-.04,0-.06-.01l-.95-.15-.04-1.51,14.87.08,1.07.1,1.54.26.96.26.96.48.55.48.33.54.16.79-.66,29.15-.04.52-.13.6-.35.53-.59.49-.8.39-.95.25-1.05.08-48.82-.28-1.04-.1-.93-.26-.77-.4-.55-.49-.31-.53-.07-.47-.08-.66,1.16-29.14ZM186.81,57.24l-.94-.38.88-.12,1.52.12v.91s0,.09.02.13l-.34-.12-1.15-.54ZM192.8,59.45s-.06-.05-.1-.07l-2.49-1.47s-.06-.03-.09-.04l-.8-.29v-1.2l.07-.21.26-.35.46-.43.55-.4,1-.62.55-.29.37-.11h.05s.56.59.56.59c.02.03.05.05.08.07l2.35,1.64s.07.04.1.06l.99.41v.06s1.57.24,1.57.24c.02,0,.04,0,.07,0l1.72.05s.03,0,.05,0l1.64-.08,1.32-.13h1.04s.91.14.91.14l-10.1,6.31v-.72s.05-.77.05-.77l-.46-.03-.13-.37h-.03s-.61-1.01-.61-1.01c-.02-.04-.05-.08-.09-.11l-.87-.84ZM134.25,102.5v-.03S264.87,20.86,264.87,20.86l1.59,1-116.24,72.67-12.27,8.57s-.07.06-.1.1l-.19.22s-.03.04-.04.06l-.13.2s-.03.05-.04.08l-.11.29c-.03.06-.04.13-.04.2v.09s-.04,0-.06,0c-.14.02-.26.1-.34.21l-2.65-1.75v-.3ZM132.28,102.76l93.53,61.77-3.17,2.06-.09.05-57.46-38s-.03-.02-.03-.02l-36.01-23.82,3.23-2.04ZM252.82,187.11l-.08-.05s-.1-.05-.16-.06l-.31-.05s-.06,0-.09,0h-.16s-.06-.04-.06-.04c-.07-.05-.14-.08-.23-.1l-.63-.11s-.07,0-.11,0l-1.36.05c-.05,0-.11.01-.16.03l-.23.08c-.11.04-.19.11-.26.21l-28.77,1.11h0c-.07-.09-.17-.15-.28-.18l-.23-.06c-.05-.01-.11-.02-.16-.02l-1.36.05s-.07,0-.1.01l-.63.16c-.07.02-.14.05-.2.1l-.08.06-.62.02-.16-1.63s0-.04-.01-.07v-.04s0-.04,0-.05l-.24-2.43,36.41-1.4h.05s.27,2.46.27,2.46l-.03,1.95ZM217.8,189.13l.47-.11,1.07-.04v.09s0,0,0,0v.02s-1.57.06-1.57.06l.02-.02ZM249.97,187.89v-.03s0,0,0,0v-.06s1-.04,1-.04l.45.08h0s-1.46.06-1.46.06ZM129.7,118.06l-.57-1.11-.29-1.08-.11-1.26-.12-8.87,93.42,61.81-.07,9.64s0,.03,0,.04l.09,1.33s0,.06.01.09l.29,1.18s.02.05.03.08l-92.06-61.14-.62-.71ZM250.4,195.75l-6.83,1.68s-.02,0-.04.01l-.07.02s-.04.02-.07.03l-.45.22c-.08.04-.16.1-.21.18l-.23.34s-.04.07-.05.1l-.06.14c-.02.06-.04.12-.04.19l-.27,22.7s0,.04,0,.04v1.01s-21.66.84-21.66.84l-.45-.05-.31-.15-.16-.18-.06-.23.19-28.91.07-.26.19-.22.34-.18.46-.09,28.77-1.11.45.05.31.15.16.18.06.24-.04,3.25ZM243.14,221.38l.26-22.1.84,1.64c-.06.03-.11.06-.15.11l-.14.15c-.06.06-.1.13-.12.2l-.05.17c-.02.05-.02.1-.03.15l-.34,27.92-.29-.58-.02-.03-.05-.32.09-7.27s0-.04,0-.04ZM245.49,201.05s-.01-.04-.02-.07l-1.17-2.28,33.99-8.38h.13s1.53,2.3,1.53,2.3l-.06,2.74-.2-.34c-.03-.06-.08-.11-.13-.15l-.06-.05s-.04-.03-.06-.04l-.43-.25c-.08-.05-.18-.08-.28-.07l-.6.02s-.07,0-.11.02l-1.29.32s-.09.03-.14.06l-.2.11-27.9,6.89h-.17c-.06-.02-.12-.02-.17,0l-1.3.32s-.05.01-.07.02c0,0-.03.01-.04.02l-.34.16h-.02s-.84-1.3-.84-1.3c-.01-.02-.03-.03-.04-.04ZM247.14,203.21l1.09-.27.18.31-1.16.29h-.13s-.17-.24-.17-.24l.18-.08ZM249.46,202.99s-.03-.09-.05-.13l-.06-.11,26.66-6.58v.27s-26.54,6.55-26.54,6.55ZM277.06,196.08l.37-.3-.02-.04.82-.2h.39s.23.12.23.12l.04.07-1.83.45v-.1ZM281.05,194.68l.24.46-.25.06v-.52ZM303.81,215.37l.08-.52.12-.54.12-.41,6.01-16.27-.04,1.33-.04.49-.08.52-.12.54-.12.4-6.01,16.29.03-1.34.04-.49ZM283.22,195.7l-.05-.39s-.01-.07-.03-.11l-.05-.14s-.02-.05-.03-.07l-1.38-2.61s-.04-.06-.06-.09c-.01-.04-.04-.07-.06-.1h0s-1.66-2.55-1.66-2.55c-.03-.04-.06-.08-.1-.11l-.36-.3s-.1-.07-.16-.1l-.57-.18c-.06-.02-.12-.02-.18-.02,0,0-.04,0-.04,0l-.46.03s-.06,0-.1.01l-11.94,2.94,1.91-4.98.15-.2.27-.16.4-.09.48.02,37.18,6.52.42.13.23.17.07.13v.16s-6.74,18.16-6.74,18.16l-.14.2-.27.16-.4.09-.48-.02-16.14-2.85.28-13.58s0-.05,0-.07ZM249.36,239.2l.44-32.5.06-.25.17-.24.28-.22.37-.15,28.37-7.01.33-.03.17.05.06.06.03.14-.66,32.76-29.63,7.39ZM281.34,231.12l-.29.14-.99.25.66-32.5s0-.09-.01-.13l-.09-.36c-.02-.1-.09-.2-.16-.27l-.24-.24c-.06-.06-.14-.11-.22-.13l-.4-.12c-.06-.02-.13-.03-.2-.02l-.47.04s-.05,0-.08.01l-28.45,7.03s-.05.01-.07.02l-.47.19s-.09.04-.13.07l-.39.3s-.09.08-.12.13l-.27.39c-.04.05-.06.11-.08.18l-.1.4s-.01.08-.02.12l-.44,32.8-1.38.34-.38.02-.33-.09-.22-.18-.02-.02.36.1s.1.02.15.02c.01,0,.02,0,.03,0l.57-.04h0s.08,0,.12-.02c.22-.07.38-.27.38-.5v-.42s-.13,0-.13,0c.08-.09.14-.21.14-.34v-.25s-.13,0-.13,0c.01-.01.03-.03.04-.04h0s0,0,0,0c.06-.08.1-.18.1-.29v-.25s-.13,0-.13,0c.01-.01.03-.02.04-.04h.01s0-.01,0-.01c.06-.08.1-.19.1-.29v-.25s-.13,0-.13,0c.01-.01.03-.03.04-.04h0s0,0,0,0c.06-.08.1-.18.1-.29v-.25s-.13,0-.13,0c.01-.01.02-.02.04-.04h0s0,0,0,0c.02-.03.04-.07.06-.11.02-.06.03-.12.03-.19h0s0-.25,0-.25c0-.06-.01-.11-.03-.17.02-.05.03-.11.03-.17v-.42s-.17,0-.17,0l-.18-.28-.18.12-.02-.37-.48.03-.35-.1-.2-.17-1.53-2.34.13-10.44s0-.04,0-.04l.24-19.27.8,1.24s0,0,0,.01l.54.84s.06.08.1.12l.19.16c.06.05.12.08.19.1l.19.06c.06.02.12.03.18.02l.27-.02s.06,0,.1-.01l34.29-8.47s.07-.02.1-.04l.22-.11s.06-.04.09-.06l-.62,29.73-.07.1-.33.16c-.18.09-.29.27-.3.46v.43c0,.05,0,.11.02.16-.02.05-.03.11-.03.17v.25s.13,0,.13,0c-.08.09-.14.21-.14.34v.26c0,.05,0,.11.02.16-.02.05-.03.11-.03.17v.23s.14,0,.14,0c-.09.09-.15.22-.16.36v.25c0,.06,0,.11.02.17-.02.05-.03.11-.03.17v.25c0,.06,0,.11.02.17-.02.05-.03.11-.03.17v.42s.52.01.52.01l.15.31v.14s-.1.15-.1.15ZM302.01,222.66l-.04.09-19.23-3.41.05-2.35,19.18,3.39s.06,0,.09,0h.15c.06,0,.13-.01.19-.03l.13-.05c.08-.03.16-.09.22-.16l.07-.09s.07-.1.09-.15h0s.15-.07.15-.07l-1.04,2.82ZM265.9,184.06v-.02s45.07,7.9,45.07,7.9v.11s-.05,2.58-.05,2.58c-.06-.03-.11-.06-.18-.07h-.04s-.09.49-.09.49l-.27-.4-.08.05c-.09.05-.16.13-.2.22h0s-.03,0-.03,0l-.13.28s-.01.03-.02.04l-6.76,18.3h.04s0,.04,0,.04l-.14.46s0,.03-.01.04l-.13.59-.09.58s0,.03,0,.04l-.04.53-.04,1.49h0s-.68,1.84-.68,1.84l-19.19-3.39.11-5.33,16.02,2.83s.05,0,.07,0l.59.03s.02,0,.02,0c.04,0,.08,0,.12-.01l.55-.13c.05-.01.1-.03.15-.06l.43-.26c.06-.04.12-.09.16-.15l.25-.35s.05-.08.06-.12l6.78-18.29s.03-.1.03-.15l.03-.39-.48-.02h.48c0-.09-.02-.19-.06-.27l-.2-.37c-.04-.07-.09-.13-.15-.17l-.4-.29s-.1-.06-.15-.08l-.53-.17s-.05-.01-.07-.02l-37.25-6.54s-.05,0-.07,0l-.58-.02s-.09,0-.14.01l-.55.12c-.05.01-.1.03-.15.06l-.43.25c-.06.04-.12.09-.16.15l-.25.35s-.05.08-.07.12l-2.2,5.73-2.21.54,3.34-8.7ZM251.46,195.49l.04-3.05s0-.06-.01-.09h0s0,0,0,0c0-.02,0-.04,0-.06l-.11-.42c-.02-.08-.06-.16-.12-.22l-.32-.36c-.05-.05-.1-.09-.17-.12l-.49-.23c-.05-.02-.11-.04-.16-.05l-.58-.06s-.05,0-.08,0l-28.84,1.11s-.05,0-.08,0l-.58.11c-.05,0-.1.03-.15.05l-.49.27c-.06.03-.11.07-.15.12l-.33.38c-.05.06-.09.13-.11.21l-.12.44s-.02.09-.02.13l-.2,29.05s0,.03,0,.05h0s0,0,0,0c0,.03,0,.06.01.08l.11.43c.02.08.06.16.12.22l.32.35c.05.05.1.09.17.12l.49.23c.05.02.11.04.16.05l.58.06s.04,0,.06,0c0,0,.01,0,.02,0l21.64-.84v.92s-25.67,1-25.67,1l-.38-.05-.24-.13-.11-.18-.26-2.65.19-32.83s.03.1.06.13l.1.17c.05.08.11.15.2.2l.15.09c.06.03.12.06.19.07l.27.04s.06,0,.09,0l36.58-1.41s.06,0,.1-.01l.26-.06c.07-.02.19-.08.25-.13l.07-.05-.09,6.32-2.35.58ZM275.37,153.53l-8.94,5.59-8.97,5.54-8.99,5.49-9.02,5.34-9.02,5.19-1.26.64-1.18.4-1.09.17-.97-.06-.85-.27-.71-.48-.58-.68-.43-.89-.27-1.08-.09-1.26.07-9.62,3.17-2.06-.07,8.77s0,.03,0,.04l.06.83s0,.06.01.09l.15.61s.02.07.04.1l.25.52h.03s.08.08.08.08l-.04.03.35.41s.07.07.11.1l.44.29s.08.05.13.06l.52.17s.09.02.13.02l.58.04s.02,0,.03,0c.03,0,.05,0,.08,0l.62-.09s.06-.01.09-.02l.64-.22s.05-.02.07-.03l.87-.44,7.41-4.26,9.32-5.49,10.1-6.14,8.95-5.52,8.92-5.57,17.02-10.86-.1,3.21-17.64,11.27ZM362.51,85.83l-.15,1.42-.33,1.5-.51,1.57-.67,1.6-.82,1.58-.95,1.53-1.06,1.43-1.13,1.3-1.18,1.14-1.2.96-8.67,6.32-8.71,6.2-5.85,4.06-11.65,8.01-8.8,5.97-16.75,11.14.1-3.14h-.09s17.36-11.53,17.36-11.53l8.78-5.94,17.46-12.03,8.66-6.16,8.55-6.23.81-.65s.03-.02.04-.03l.62-.6s.02-.02.03-.03l.6-.69s.02-.02.03-.03l.57-.77s.02-.02.02-.03l.51-.82s.01-.02.02-.04l.44-.86s.01-.03.02-.04l.36-.86s.01-.03.02-.04l.27-.85s0-.03.01-.05l.18-.8s0-.04,0-.06l.1-.94.35-9.41,2.93-1.89-.33,8.81Z"/>
    </g>
  </g>
</svg>