<?xml version="1.0" encoding="UTF-8"?>
<svg id="Layer_2" data-name="Layer 2" xmlns="http://www.w3.org/2000/svg" viewBox="0 0 248.14 99.27">
  <g id="Layer_1-2" data-name="Layer 1">
    <g id="ViewLayer_LineSet" data-name="ViewLayer LineSet">
      <g id="strokes">
        <path d="M224.81,38.29h-.45s0-.27,0-.27c0-.11.08-.2.19-.22l.23-.05v-.17s-.28-.17-.28-.17l.24-.38.33.21s.04.03.05.04l.05.06s.06.09.05.15v.36s0,.05-.02.08l-.02.06s-.05.09-.1.12l-.09.05s-.04.02-.06.02l-.13.03v.07Z"/>
        <path d="M223.16,43.36l-.07-.44,1.31-.22.24-.07.12-.12v-.06s.02-1.06.02-1.06l-.03-.05-.12-.07.23-.38.16.1s.05.04.07.07l.1.14s.04.08.04.13l-.02,1.19s0,.04,0,.06l-.03.11s-.03.07-.06.09l-.22.21s-.05.04-.09.05l-.31.09s-.02,0-.03,0l-1.33.22Z"/>
        <path d="M224.78,40.76h-.45s0-.27,0-.27c0-.11.08-.2.19-.22l.23-.05v-.17s-.06-.04-.06-.04l.24-.38.12.07s.04.03.05.04l.05.06s.06.1.06.15v.36s-.01.05-.02.08l-.02.06s-.05.09-.1.12l-.09.05s-.04.02-.06.02l-.13.03v.07Z"/>
        <path d="M224.79,39.53h-.45s0-.27,0-.27c0-.11.08-.2.19-.22l.23-.05v-.17s-.06-.04-.06-.04l.24-.38.1.06s.05.04.07.05l.05.06s.06.1.06.15v.36s0,.05-.02.08l-.02.06s-.05.09-.1.12l-.09.05s-.04.02-.06.02l-.13.03v.07Z"/>
        <path d="M224.57,39.13c-.05,0-.11-.02-.15-.05-.05-.04-.08-.11-.08-.17v-.26c0-.11.08-.2.19-.22l.23-.05v-.17s-.06-.04-.06-.04l.24-.38.12.07s.04.03.05.04l.05.06s.06.1.06.15v.36s0,.05-.02.08l-.02.06s-.05.09-.1.12l-.04.02.16.06-.02.06s-.05.09-.1.12l-.1.05s-.04.02-.06.02l-.15.04-.16.03s-.02,0-.04,0Z"/>
        <path d="M224.78,40.15h-.45s0-.27,0-.27c0-.11.08-.2.19-.22l.23-.05v-.17s-.06-.04-.06-.04l.24-.38.12.07s.04.03.05.04l.05.06s.06.1.06.15v.36s-.01.05-.02.08l-.02.06s-.05.09-.1.12l-.1.05s-.04.02-.06.02l-.13.03v.08Z"/>
        <path d="M224.62,38.51l-.07-.44.25-.05.07-.04.06.11.28.11-.02.06s-.05.09-.1.12l-.09.05s-.04.02-.06.02l-.15.04-.16.03Z"/>
        <path d="M224.77,41.56h-.45s0-.44,0-.44c0-.11.08-.2.19-.22l.23-.05v-.17s-.06-.04-.06-.04l.24-.38.12.07s.04.03.05.04l.05.06s.06.1.06.15v.36s0,.05-.02.08l-.02.06s-.05.09-.1.11l-.09.05s-.04.02-.06.02l-.13.03v.25Z"/>
        <path d="M224.59,40.98l-.07-.44.25-.05.07-.04.06.11.28.11-.02.06s-.05.09-.1.12l-.09.05s-.04.02-.06.02l-.15.04-.16.03Z"/>
        <path d="M224.6,40.36l-.07-.44.25-.05.07-.04.06.11.28.11-.02.06s-.05.09-.1.12l-.1.05s-.04.02-.06.02l-.15.04-.16.03Z"/>
        <path d="M224.6,39.75l-.07-.44.25-.05.07-.04.06.11.28.11-.02.06s-.05.09-.1.11l-.09.05s-.04.02-.06.02l-.15.04-.16.03Z"/>
        <path d="M224.59,37.89c-.05,0-.11-.02-.15-.05-.05-.04-.08-.11-.08-.17v-.44c0-.1.07-.18.17-.21l.28-.08.04-.04.4-31.11-.02-.09-.06-.09-.08-.07-1.46-.93h-.07s-.03,0-.03,0v1.14s-.46,0-.46,0l.02-1.33c0-.11.08-.2.19-.22l.25-.04s.04,0,.06,0l.15.02s.06.02.09.03l1.51.97s.02.01.03.02l.11.1s.03.03.04.04l.1.14s.02.04.03.06l.04.16s0,.04,0,.06l-.4,31.23c0,.06-.02.11-.06.15l-.14.14s-.06.05-.1.06l-.12.03.05.08.28.11-.02.06s-.05.09-.1.12l-.1.05s-.04.02-.06.02l-.15.04-.16.03s-.02,0-.04,0Z"/>
        <path d="M224.6,41.77l-.13-.43.28-.08.1-.1.32.32-.14.14s-.06.05-.1.06l-.34.1Z"/>
        <path d="M195.24,30.39h-.45s.19-21.24.19-21.24c0-.02,0-.04,0-.05l.04-.17s.02-.06.04-.09l.11-.13s.05-.05.08-.06l.15-.07s.04-.01.06-.02l.26-.04s.1,0,.14.02l1.65.91.14.04h.12s.2,0,.2,0l.17-.03,26.2-4.14-1.16-.75.24-.38,1.47.94s.05.04.07.07l.05.08c.06.09.05.2-.03.28l-.05.05s-.06.05-.1.06l-.16.05s-.02,0-.03,0l-26.64,4.21-.24.02s-.02,0-.04,0l-.16-.02s-.03,0-.05,0l-.18-.06s-.03-.01-.04-.02l-1.61-.88-.15.02-.07.03-.04.05-.02.11-.19,21.19Z"/>
        <path d="M195.54,8.88l-1.44-.95s-.06-.05-.08-.07l-.05-.08c-.05-.09-.04-.2.03-.28l.05-.05s.06-.05.1-.06l.16-.05s.02,0,.03,0l26.58-4.18.24-.02s.02,0,.04,0l.16.02s.03,0,.05,0l.18.06s.03,0,.04.02l1.69.91-.21.4-1.67-.9-.14-.04h-.12s-.2,0-.2,0l-.17.03-26.17,4.12,1.14.75c.06.04.1.11.1.19v.07s-.27,0-.27,0l-.08.12Z"/>
        <path d="M223.42,5.75h-.45s.02-1.41.02-1.41c0-.11.08-.2.19-.22l.25-.04s.04,0,.06,0l.15.02s.09.03.12.06l.05.05-.22.24v.09s-.08,0-.08,0h0s0,0,0,0h-.04s-.03,0-.03,0l-.02,1.21Z"/>
        <path d="M193.56,29.84h-.45s.19-21.89.19-21.89c0-.02,0-.04,0-.06l.05-.15s.03-.07.06-.09l.26-.24s.05-.04.09-.05l.3-.09s.02,0,.03,0l26.69-4.2.42-.03s.02,0,.04,0l.39.04s.03,0,.05,0l.3.1s.03,0,.04.02l1.73.93-.21.4-1.71-.92-.26-.08-.34-.04-.38.02-26.66,4.2-.24.07-.15.15-.02.07-.19,21.85Z"/>
        <path d="M195.14,30.36h-.45s.19-21.26.19-21.26c0-.02,0-.04,0-.05l.04-.17s.02-.06.04-.09l.11-.13s.05-.05.08-.06l.15-.07s.04-.01.06-.02l.26-.04.07.44-.23.04-.07.03-.04.05-.02.09-.19,21.23Z"/>
        <path d="M215.42,44.67l-.07-.44,7.6-1.25.44-34.45-.06-.31-.18-.26.37-.25.2.3s.03.06.03.09l.07.38s0,.03,0,.04l-.35,27.25v.02l-.09,7.22s0,.02,0,.03l-.02.11s-.02.07-.04.1l-.05.06s-.09.08-.15.09l-7.72,1.27Z"/>
        <path d="M199.63,31.83h-.45s.19-19.52.19-19.52c0-.01,0-.03,0-.04l.08-.41s.01-.05.03-.07l.21-.37s.03-.04.05-.06l.31-.27s.04-.03.07-.04l.37-.14s.03,0,.04-.01l22.1-3.5s.03,0,.05,0l.36.02s.07.01.1.03l.31.17-.22.39-.26-.15-.29-.02-.3.05-21.75,3.44-.31.11-.25.22-.17.3-.07.35-.18,19.5Z"/>
        <path d="M170.75,22.36h-.45s.11-18.95.11-18.95c0-.02,0-.04,0-.06l.05-.16s.03-.07.06-.1l.12-.12s.06-.05.09-.06l.17-.05s.04,0,.05,0h.28c.09-.02.16.02.21.1l.57.97.03.02.08.02h.2s29.69-1.55,29.69-1.55l.04-.02.05.1.29.09-.03.08c-.02.06-.07.11-.13.14l-.08.04s-.04.01-.06.02l-.2.03-2.62.14-26.94,1.39h-.24s-.03,0-.04-.01l-.14-.03s-.05-.01-.07-.03l-.12-.07s-.06-.05-.08-.08l-.52-.9h-.12s-.08.03-.08.03l-.04.04-.02.08-.11,18.91Z"/>
        <path d="M170.71,22.35h-.45s.11-19,.11-19c0-.02,0-.04,0-.06l.05-.16s.03-.07.06-.1l.12-.12s.06-.05.09-.06l.17-.05s.04,0,.06,0h.28s.02.43.02.43h-.26s-.08.04-.08.04l-.04.04-.02.08-.11,18.96Z"/>
        <path d="M171.02,3.12l-.59-1.02c-.03-.06-.04-.13-.02-.19l.03-.08c.02-.06.06-.1.12-.13l.09-.04s.04-.01.06-.02l.2-.03L200.39.1h.24s.03,0,.04.01l.14.03s.05.01.07.03l.12.07s.06.04.08.07l.63,1.01-.38.24-.6-.97-.04-.02-.08-.02h-.2s-.2,0-.2,0l-29.28,1.51.48.82s.03.07.03.11v.06s-.33,0-.33,0l-.09.05Z"/>
        <path d="M170.1,22.15h-.45s.11-19.85.11-19.85c0-.02,0-.04,0-.06l.04-.16.06-.16s.04-.07.06-.09l.11-.1s.04-.03.06-.03l.23-.1s.04-.01.06-.02l.37-.05,29.6-1.52h.42s.03.02.04.02l.33.07s.05.01.07.03l.2.12s.02.02.04.03l.11.1s.03.03.04.05l.65,1.05s.02.04.03.06v.04s-.32.09-.32.09l-.09.05-.02-.03h0s0,0,0,0l-.62-.99-.07-.07-.15-.09-.28-.06h-.38s-29.56,1.51-29.56,1.51l-.32.05-.17.08-.05.04-.07.2-.11,19.82Z"/>
        <rect x="201.64" y="1.42" width=".45" height="1.19" transform="translate(29.29 106.77) rotate(-31.83)"/>
        <path d="M202.99,6.12h-.45s.03-3.26.03-3.26l-.03-.09-.62-.99-.05-.04-.07-.02h-.04s0,.97,0,.97h-.45s.01-1.18.01-1.18c0-.12.09-.22.21-.22h.28s.04-.01.06-.01l.16.03s.08.03.11.06l.12.11s.03.03.04.05l.65,1.04s.02.04.03.06l.04.16s0,.04,0,.06l-.03,3.29Z"/>
        <path d="M201.72,2.69h-.45s.01-1.25.01-1.25c0-.12.09-.22.21-.22h.28s.04-.01.06,0l.16.03s.08.03.11.05l.12.11-.3.33-.07-.07-.08-.02h-.04s-.01,1.03-.01,1.03Z"/>
        <path d="M174.51,23.6h-.45s.1-15.65.1-15.65c0-.02,0-.03,0-.04l.1-.46s.02-.06.03-.08l.27-.4s.04-.04.06-.06l.4-.28s.05-.03.07-.03l.47-.11s.03,0,.04,0l23.3-1.21s.03,0,.04,0l.47.07s.06.01.08.03l.4.24s.05.04.07.06l.26.36s.04.06.04.09l.07.37-.44.09-.06-.33-.21-.29-.32-.19-.4-.06-23.26,1.2-.41.1-.33.23-.22.33-.08.41-.1,15.61Z"/>
        <polygon points="199.85 6.29 199.84 6.28 200.22 6.04 199.85 6.29"/>
        <path d="M244.12,35.85h-.09s-18.94-.96-18.94-.96l.02-.45,19.01.96h.07s.26-.74.26-.74l.42.15-.29.83s-.04.07-.07.1l-.05.04s-.06.04-.09.04l-.1.02s-.03,0-.04,0h-.12Z"/>
        <path d="M244.12,35.99h-.07s-18.95-.96-18.95-.96l.02-.45,18.95.96h0s.05,0,.05,0h.04s0,0,0,0h0s0,.03,0,.03l.33.11-.04.13s-.04.07-.07.1l-.02.02s-.06.04-.09.04h-.04s-.03.01-.04.01h-.07Z"/>
        <path d="M244.12,36.04h-.09s-18.94-.96-18.94-.96l.02-.45,19.01.96h.07s.26-.74.26-.74l.42.15-.29.83s-.04.07-.07.1l-.05.04s-.06.04-.09.04l-.1.02s-.03,0-.04,0h-.12Z"/>
        <path d="M244.07,39.86s0,0-.01,0l-19.15-.97.02-.45,19.12.97h.05s.03-.04.03-.04l3.34-9.56.04-.19.04-.29.03-.38.05-3.14h.13s.04-.02.04-.02l.1-.24h.03c.05.03.09.07.12.12l.02.04s.02.07.02.1l-.05,3.16-.03.4-.04.32-.05.22s0,.02,0,.02l-.21.61-3.16,9.03s-.03.07-.06.09l-.09.08s-.02.02-.03.02l-.04.03s-.05.02-.07.03l-.12.03s-.03,0-.05,0Z"/>
        <path d="M247.8,26.48l-.42-.15.26-.75.05-3.12-.02-.28-.04-.2h-.06s-22.29-1.12-22.29-1.12l.02-.45,22.35,1.11s.04,0,.06.01l.12.04s.07.03.1.06l.08.09s.04.06.05.1l.06.28s0,.02,0,.03l.02.32-.05,3.17s0,.05-.01.07l-.27.78Z"/>
        <rect x="247.31" y="25.98" width=".83" height=".45" transform="translate(140.97 251.28) rotate(-70.66)"/>
        <path d="M244.74,37.63s0,0-.01,0h-.03s.01-.25.01-.25l-.14-.12.03-.03,2.6-7.42.05-.23.04-.36.03-.45.02-.47.06-3.52v-.41s-.02-.25-.02-.25l-.03-.1.18-.06v-.24s.04,0,.04,0c.09,0,.17.07.2.16l.04.13s0,.03,0,.05l.02.29v.43s-.07,4.01-.07,4.01l-.04.47-.05.39-.06.26s0,.02,0,.02l-2.61,7.47s-.02.05-.04.07l-.05.06c-.04.05-.11.08-.17.08Z"/>
        <path d="M244.53,37.48l-.04-.12s0-.03-.01-.05l-.02-.29v-.44s.07-4.05.07-4.05l.04-.48.05-.39.06-.26s0-.02,0-.02l2.62-7.43s.02-.05.04-.07l.05-.06.33.28h0s.01.01.01.01l-.02.03-2.6,7.37-.05.23-.05.36-.04.46-.02.47-.06,3.55v.41s.02.25.02.25l.03.1-.43.14Z"/>
        <rect x="244.57" y="34.6" width=".19" height=".45" transform="translate(206.02 278.92) rotate(-89.1)"/>
        <path d="M245.06,31.52l-.42-.15,2.62-7.43s.02-.05.04-.07l.05-.06.33.28h0s.01.01.01.01l-.02.03-2.6,7.39Z"/>
        <path d="M244.96,22.72l-.02-.07-.12-.07-.32-.09-.44-.05-18.8-.94.02-.45,18.81.94.47.05s.02,0,.04,0l.37.1s.04.01.06.03l.22.14s.08.08.1.13l.04.15s0,.04,0,.06v.03s-.33,0-.33,0l-.11.03Z"/>
        <path d="M241.17,30.63l-16.01-.81.02-.45,16,.8h.45s.39-.07.39-.07l.25-.09.08-.08,2.61-7.35.43.13-2.64,7.42s-.03.06-.05.08l-.15.15s-.05.04-.08.05l-.31.11s-.03,0-.04.01l-.43.07s-.02,0-.03,0h-.48Z"/>
        <path d="M72.28,68.44l-.19-.4.26-.12s.02,0,.03-.01l115.55-36.37s.04-.01.07-.01h.12s0,.45,0,.45h-.09s-115.5,36.35-115.5,36.35l-.24.12Z"/>
        <path d="M65.64,66.06l-.19-.41.26-.12s.02,0,.03-.01l115.53-36.18s.05,0,.07-.01h.13s0,.45,0,.45h-.09s-115.48,36.16-115.48,36.16l-.24.12Z"/>
        <path d="M80.19,71.72v-.22s0-.05,0-.08l.09-.27s.02-.05.04-.08l.14-.17s.06-.06.1-.07l78.86-24.98s.02,0,.02,0l36.7-11.62.28-.06s.07,0,.1,0l.2.05,1.3.43s.06.02.08.05l.22.19s.06.07.07.11l.09.32s0,.04,0,.06v.6s-.45,0-.45,0v-.57s-.06-.23-.06-.23l-.13-.12-1.37-.44-.21.05-36.66,11.61-.11-.2.07.21-78.8,24.96-.07.08-.06.19v.18s-.45,0-.45,0Z"/>
        <path d="M76.84,70.52v-.21s0-.06,0-.08l.09-.27s.02-.05.04-.08l.14-.17s.06-.06.1-.07l115.57-36.51.28-.06s.07,0,.1,0l.18.04s.03,0,.04,0l1.28.42s.06.02.08.05l.22.19s.06.07.07.11l.09.32s0,.04,0,.06v.6s-.45,0-.45,0v-.57s-.06-.23-.06-.23l-.13-.12-1.36-.44-.21.05-115.49,36.49-.07.08-.06.19v.18s-.45,0-.45,0Z"/>
        <path d="M73.5,69.32v-.21s0-.06,0-.08l.09-.27s.02-.05.04-.08l.14-.17s.06-.06.1-.07l115.56-36.41.28-.06s.07,0,.1,0l.2.05,1.29.42s.06.02.08.05l.22.19s.06.07.07.11l.09.32s0,.04,0,.06v.59s-.45,0-.45,0v-.56s-.06-.23-.06-.23l-.13-.12-1.36-.44-.21.05-115.48,36.39-.07.08-.06.19v.18s-.45,0-.45,0Z"/>
        <path d="M70.17,68.12v-.21s0-.06,0-.08l.09-.27s.02-.05.04-.08l.14-.16s.06-.06.1-.07l115.54-36.32.28-.06s.07,0,.1,0l.2.05,1.29.42s.06.02.08.05l.22.19s.06.07.07.11l.09.32s0,.04,0,.06v.59s-.45,0-.45,0v-.56s-.06-.23-.06-.23l-.13-.12-1.36-.44-.21.05-115.47,36.29-.07.08-.06.19v.18s-.45,0-.45,0Z"/>
        <path d="M68.96,67.25l-.19-.41.26-.12s.02,0,.03-.01l115.54-36.27s.04-.01.07-.01h.13s0,.45,0,.45h-.09s-115.49,36.26-115.49,36.26l-.24.12Z"/>
        <path d="M75.61,69.64l-.19-.41.26-.12s.02,0,.03-.01l115.56-36.47s.05,0,.07-.01h.12s0,.45,0,.45h-.09s-115.52,36.45-115.52,36.45l-.24.12Z"/>
        <path d="M89.04,74.46l-.19-.4.26-.12s.02,0,.03-.01l115.61-36.85s.05-.01.07-.01h.12s0,.45,0,.45h-.09s-115.58,36.85-115.58,36.85l-.23.11Z"/>
        <path d="M59.04,63.68l-.19-.41.25-.12s.02,0,.03-.01l115.5-35.99s.05,0,.07-.01h.13s0,.45,0,.45h-.09S59.28,63.57,59.28,63.57l-.24.12Z"/>
        <path d="M86.9,74.13v-.22s0-.05.01-.07l.09-.27s.02-.05.04-.07l.14-.17s.06-.06.1-.07l115.61-36.8.28-.06s.07,0,.1,0l.2.05,1.3.43s.06.02.08.05l.22.19s.06.07.07.11l.09.32s0,.04,0,.06v.34s-.45,0-.45,0v-.3s-.06-.23-.06-.23l-.13-.12-1.37-.44-.21.05-115.52,36.78-.07.08-.06.19v.18s-.45,0-.45,0Z"/>
        <path d="M157.91,37.9h0s-.29-.01-.29-.01v-.2c0-.1.07-.18.16-.21l8.49-2.66.13.43-8.33,2.61v.04s-.13,0-.13,0h-.03Z"/>
        <path d="M85.67,73.25l-.19-.4.26-.12s.02,0,.03-.01l115.6-36.76s.04-.01.07-.01h.13s0,.45,0,.45h-.09s-115.59,36.76-115.59,36.76l-.2.1Z"/>
        <path d="M55.75,62.5l-.1-.2-.09-.21.25-.12s.02,0,.03-.01l115.48-35.89s.04,0,.07-.01h.13s0,.45,0,.45h-.09S55.99,62.39,55.99,62.39l-.24.11Z"/>
        <path d="M62.33,64.87l-.19-.41.26-.12s.02,0,.03-.01l115.51-36.08s.04-.01.07-.01h.13s0,.45,0,.45h-.09s-115.46,36.07-115.46,36.07l-.24.12Z"/>
        <path d="M66.86,66.93v-.2s0-.06,0-.09l.09-.27s.02-.06.04-.08l.14-.16s.06-.06.1-.07l115.53-36.22.28-.06s.07,0,.1,0l.2.05,1.28.42s.06.02.08.05l.22.19s.06.07.07.11l.09.32s0,.04,0,.06v.59s-.45,0-.45,0v-.56s-.06-.23-.06-.23l-.13-.12-1.35-.43-.21.05-115.45,36.2-.07.08-.06.19v.18s-.45,0-.45,0Z"/>
        <path d="M82.31,72.04l-.19-.4.26-.12s.02,0,.03-.01l115.59-36.66s.04-.01.07-.01h.13s0,.45,0,.45h-.09s-115.61,36.67-115.61,36.67l-.18.09Z"/>
        <path d="M52.47,61.32l-.19-.41.26-.12s.02,0,.03-.01l115.47-35.8s.05,0,.07-.01h.13s0,.45,0,.45h-.09S52.71,61.21,52.71,61.21l-.24.12Z"/>
        <path d="M83.54,72.93v-.22s0-.05,0-.07l.09-.27s.02-.05.04-.08l.14-.17s.06-.06.1-.07l115.59-36.7.28-.06s.08,0,.11,0l.2.05,1.3.43s.06.02.08.05l.22.19s.06.07.07.11l.08.3s0,.02,0,.02c0,.02,0,.04,0,.06v.6s-.45,0-.45,0v-.57s-.06-.23-.06-.23l-.13-.12-1.37-.44-.21.05-115.51,36.68-.07.08-.06.19v.18s-.45,0-.45,0Z"/>
        <rect x="181.3" y="38.81" width=".22" height=".45" transform="translate(141.14 220.18) rotate(-89.61)"/>
        <path d="M78.96,70.84l-.19-.41.26-.12s.02,0,.03-.01l115.58-36.56s.04,0,.07-.01h.12s0,.45,0,.45h-.09s-115.53,36.55-115.53,36.55l-.24.12Z"/>
        <path d="M164.21,42.47h-.15s0,0,0,0h0s-.29,0-.29,0v-.21c0-.1.06-.18.16-.21l10.54-3.33s0,0,.01,0l5.62-1.78.14.43-5.63,1.78s0,0-.01,0l-10.37,3.28v.05Z"/>
        <path d="M160.28,41.48h0s-.29,0-.29,0v-.21c0-.1.06-.18.16-.21l17.03-5.37.13.43-16.88,5.32v.05s-.15,0-.15,0h0Z"/>
        <rect x="172.82" y="34.98" width=".21" height=".45" transform="translate(136.54 207.89) rotate(-89.61)"/>
        <path d="M63.55,65.74v-.2s0-.07,0-.09l.09-.27s.02-.06.04-.08l.14-.16s.06-.06.1-.07l115.52-36.13.28-.06s.07,0,.1,0l.2.05,1.28.42s.06.03.08.05l.22.19s.06.07.07.11l.09.32s0,.04,0,.06v.58s-.45,0-.45,0v-.55s-.06-.23-.06-.23l-.13-.12-1.35-.43-.21.05-115.44,36.1-.07.08-.06.19v.18s-.45,0-.45,0Z"/>
        <path d="M60.24,64.55v-.2s0-.07,0-.09l.09-.27s.02-.06.04-.08l.14-.16s.06-.06.1-.07l115.5-36.03.28-.06s.07,0,.1,0l.2.05,1.28.42s.06.02.08.05l.22.19s.06.07.07.11l.09.32s0,.04,0,.06v.58s-.45,0-.45,0v-.55s-.06-.23-.06-.23l-.13-.12-1.35-.43-.21.05-115.43,36.01-.07.08-.06.19v.18s-.45,0-.45,0Z"/>
        <path d="M56.95,63.37v-.22s0-.05,0-.07l.09-.27s.02-.06.04-.08l.14-.16s.06-.06.1-.07l115.49-35.94.28-.06s.07,0,.1,0l.2.05,1.27.42s.06.02.08.05l.21.19s.06.07.07.11l.09.32s0,.04,0,.06v.58s-.45,0-.45,0v-.55s-.06-.23-.06-.23l-.13-.12-1.34-.43-.21.05L57.53,62.91l-.07.08-.06.19v.18s-.45,0-.45,0Z"/>
        <path d="M53.67,62.18v-.22s0-.05,0-.07l.09-.27s.02-.06.04-.08l.14-.16s.06-.05.1-.07l115.48-35.84.27-.06s.07,0,.11,0l.2.05,1.27.42s.06.03.08.05l.21.19s.06.07.07.11l.09.32s0,.04,0,.06v.57s-.45,0-.45,0v-.54s-.06-.23-.06-.23l-.13-.12-1.34-.43-.21.05L54.25,61.73l-.07.08-.06.19v.18s-.45,0-.45,0Z"/>
        <path d="M50.39,61.01v-.22s0-.05,0-.07l.09-.27s.02-.06.04-.08l.14-.16s.06-.05.1-.07l115.46-35.75.27-.06s.07,0,.1,0l.2.05,1.27.42s.06.03.08.05l.21.19s.06.07.07.11l.09.32s0,.04,0,.06v.57s-.45,0-.45,0v-.54s-.06-.22-.06-.22l-.13-.12-1.34-.43-.21.05L50.97,60.55l-.07.08-.06.19v.18s-.45,0-.45,0Z"/>
        <path d="M157.94,40.05h0s-.29,0-.29,0v-.21c0-.1.06-.18.16-.21l15.06-4.73c.1-.03.21.01.27.11.05.1.03.21-.06.28l-.17.14-.04-.05-14.76,4.64v.03s-.12,0-.12,0h-.04Z"/>
        <path d="M180.13,37.46l-.08-.1h-.11s0-.14,0-.14l-.09-.11.17-.14c.07-.05.16-.06.24-.03.08.04.13.12.13.2v.21s-.13,0-.13,0l-.12.1Z"/>
        <path d="M177.21,36.21l-.08-.1h-.11s0-.14,0-.14l-.09-.11.17-.14c.07-.05.16-.06.24-.03.08.04.13.12.13.2v.21s-.13,0-.13,0l-.13.1Z"/>
        <path d="M166.3,35.33l-.09-.11h-.11s0-.14,0-.14l-.09-.11.17-.14c.07-.05.16-.07.24-.03.08.04.13.12.13.2v.2s-.12,0-.12,0l-.13.11Z"/>
        <path d="M169.69,42.93h-.45s0-.22,0-.22c0-.1.06-.18.16-.21l11.94-3.78c.1-.03.22.01.27.11.05.1.03.21-.06.28l-.17.14-.04-.05-11.64,3.69v.05Z"/>
        <path d="M18.23,49.44v-.4s0-.05,0-.07l.1-.32s.02-.05.03-.07l.2-.29s.02-.02.02-.03l10.46-10.54s.02-.02.03-.02l.16-.11.15-.09s.03-.02.05-.02L136.6,5.4s.04,0,.06,0h.16s.02,0,.03,0l.16.02s.03,0,.04,0l8.98,2.92s.02,0,.03.01l.1.05.19.11s.02.01.02.02l18.34,14.88s.01.01.02.02l.31.33s.03.04.04.06l.16.35s.02.06.02.1v.73s-.45,0-.45,0v-.67s-.12-.27-.12-.27l-.28-.29-18.32-14.87-.22-.13-8.95-2.91h-.12s-.12,0-.12,0L29.6,37.91l-.11.07-.13.09-10.43,10.51-.17.24-.07.25v.36s-.44,0-.44,0Z"/>
        <rect x="164.69" y="24.04" width=".45" height=".31" transform="translate(.33 50.54) rotate(-17.44)"/>
        <rect x="162.16" y="23.32" width=".12" height=".45" transform="translate(56.06 148.44) rotate(-57.89)"/>
        <path d="M50.25,58.34s-.02,0-.03,0l-.27-.04s-.04,0-.05-.02l-.26-.11s-.03-.02-.05-.03l-.23-.17s-.03-.03-.04-.04l-.17-.21s-.01-.02-.02-.03l-8.54-15.05s-.01-.02-.01-.03l-.09-.23.42-.16.08.22,8.52,15.02.14.18.18.14.21.09.21.03.21-.03,23.78-7.34s.02,0,.02,0l87.82-27.12.1-.06.02-.04v-.06s-.07-.12-.07-.12l-.16-.16-.21-.17.28-.35.22.18s.01.01.02.02l.19.19s.03.03.04.05l.1.2s.02.06.03.1v.18s0,.09-.03.13l-.09.15s-.05.06-.08.08l-.18.1s-.03.01-.04.02l-87.84,27.13s-.02,0-.02,0l-23.8,7.35s-.02,0-.04,0l-.25.03s-.02,0-.03,0Z"/>
        <path d="M40.47,42.31v-.23s0-.06,0-.08l.08-.21s.03-.05.04-.07l.15-.17s.04-.04.07-.05l.21-.11s.02-.01.04-.01l104.36-31.51s.02,0,.03,0l.25-.04s.03,0,.05,0l.3.03-.04.45-.27-.02-.21.03-104.32,31.5-.16.08-.09.1-.05.13v.19s-.44.01-.44.01Z"/>
        <path d="M161.81,23.75l-.09-.16-.16-.16-.09-.07.28-.35.09.08s.01.01.02.02l.19.19s.03.03.04.05l.1.19s.03.06.03.1h-.23s-.19.11-.19.11Z"/>
        <path d="M169.54,43.01l-.14-.43,11.77-3.73c.07-.02.14,0,.2.03.06.04.09.11.09.18v.13s-.18,0-.18,0l.03.08-11.77,3.73Z"/>
        <path d="M160.28,41.57l-.14-.43,16.86-5.31c.07-.02.14,0,.2.03.06.04.09.11.09.18v.13s-.18,0-.18,0l.03.09-16.86,5.31Z"/>
        <path d="M157.91,37.98l-.13-.43,8.32-2.61c.07-.02.14,0,.2.03.06.04.09.11.09.18v.12s-.19,0-.19,0l.03.09-8.32,2.61Z"/>
        <path d="M164.06,42.55l-.14-.43,16-5.05c.07-.02.14,0,.2.03.06.04.09.11.09.18v.13s-.18,0-.18,0l.03.08-16,5.05Z"/>
        <path d="M157.94,40.13l-.13-.43,14.89-4.68c.07-.02.14,0,.2.03.06.04.09.11.09.18v.12s-.19,0-.19,0l.03.09-14.89,4.68Z"/>
        <rect x="106.03" y="62.73" width=".45" height=".22" transform="translate(-.19 .32) rotate(-.17)"/>
        <rect x="104.91" y="60.85" width=".45" height=".22" transform="translate(-.18 .32) rotate(-.17)"/>
        <rect x="102.02" y="59.53" width=".45" height=".21" transform="translate(-.24 .42) rotate(-.23)"/>
        <rect x="97.66" y="58.68" width=".45" height=".21" transform="translate(-.21 .36) rotate(-.21)"/>
        <rect x="90.88" y="58.6" width=".45" height=".21" transform="translate(-.31 .48) rotate(-.3)"/>
        <path d="M82.21,61.62h0s-.29,0-.29,0v-.21c0-.1.06-.19.16-.22l8.96-2.81c.1-.03.21.01.26.11.05.09.03.21-.05.28l-.17.14-.04-.05-8.67,2.72v.04s-.16,0-.16,0Z"/>
        <path d="M87.83,66.46v-.22c0-.1.06-.19.16-.22l17.08-5.4c.1-.03.21.01.27.11.05.09.03.21-.06.28l-.17.14-.04-.05-16.78,5.3v.05s-.45,0-.45,0Z"/>
        <path d="M84.03,65.41v-.22c0-.1.06-.19.16-.22l17.99-5.67c.1-.03.21.01.26.11.05.09.03.21-.06.28l-.17.14-.04-.05-17.69,5.57v.05s-.45,0-.45,0Z"/>
        <path d="M88.81,74.82v-.19s-.07-.25-.07-.25l-.14-.13-1.18-.42-.16.03-.09-.44.22-.05s.08,0,.12,0l1.28.46s.05.03.08.05l.22.21s.05.06.06.1l.09.34s0,.04,0,.06v.22s-.45,0-.45,0Z"/>
        <path d="M85.44,73.61v-.19s-.07-.25-.07-.25l-.14-.13-1.18-.42-.16.03-.09-.44.22-.05s.08,0,.12,0l1.28.46s.05.03.08.05l.22.2s.05.07.06.11l.09.34s0,.04,0,.06v.22s-.45,0-.45,0Z"/>
        <path d="M82.08,72.4v-.19s-.07-.25-.07-.25l-.14-.13-1.17-.42-.15.03-.1-.44.22-.05s.08,0,.12,0l1.28.46s.05.03.08.05l.22.2s.05.06.06.1l.09.34s0,.04,0,.06v.22s-.45,0-.45,0Z"/>
        <path d="M78.73,71.19v-.19s-.07-.25-.07-.25l-.14-.13-1.17-.42-.15.03-.1-.44.22-.05s.08,0,.12,0l1.27.46s.05.03.08.05l.22.2s.05.06.06.11l.09.34s0,.04,0,.06v.22s-.45,0-.45,0Z"/>
        <path d="M75.39,69.99v-.19s-.07-.25-.07-.25l-.14-.13-1.17-.42-.15.03-.1-.44.22-.05s.08,0,.12,0l1.27.46s.05.03.08.05l.22.2s.05.06.06.1l.09.34s0,.04,0,.06v.22s-.45,0-.45,0Z"/>
        <path d="M72.05,68.79v-.19s-.07-.24-.07-.24l-.14-.13-1.16-.42-.15.03-.1-.44.22-.05s.08,0,.12,0l1.27.45s.06.03.08.05l.2.19s.07.08.08.12l.09.33s0,.04,0,.06v.22s-.45,0-.45,0Z"/>
        <path d="M68.73,67.6v-.19s-.07-.24-.07-.24l-.14-.13-1.16-.42-.15.03-.1-.44.21-.05s.08,0,.12,0l1.26.45s.05.03.08.05l.21.19s.06.08.07.12l.09.33s0,.04,0,.06v.22s-.45,0-.45,0Z"/>
        <path d="M65.41,66.41v-.19s-.07-.24-.07-.24l-.14-.13-1.15-.41-.15.03-.1-.44.21-.05s.08,0,.12,0l1.26.45s.05.03.08.05l.21.19s.06.08.07.12l.09.33s0,.04,0,.06v.22s-.45,0-.45,0Z"/>
        <path d="M62.11,65.22v-.19s-.07-.24-.07-.24l-.14-.13-1.15-.41-.15.03-.1-.44.21-.05s.08,0,.12,0l1.26.45s.06.03.08.05l.21.2s.06.07.07.11l.09.33s0,.04,0,.06v.22s-.45,0-.45,0Z"/>
        <path d="M58.81,64.03v-.19s-.07-.24-.07-.24l-.14-.13-1.15-.41-.15.03-.1-.44.21-.05s.08,0,.12,0l1.25.45s.05.03.08.05l.21.2s.06.07.07.11l.09.33s0,.04,0,.06v.22s-.45,0-.45,0Z"/>
        <path d="M55.52,62.85v-.19s-.07-.24-.07-.24l-.14-.13-1.14-.41-.15.03-.1-.44.21-.05s.08,0,.13,0l1.25.45s.06.03.08.05l.21.2s.05.07.07.11l.09.33s0,.04,0,.06v.22s-.45,0-.45,0Z"/>
        <path d="M52.24,61.67v-.19s-.07-.24-.07-.24l-.13-.13-1.14-.41-.15.03-.1-.44.21-.05s.09,0,.13,0l1.25.45s.06.03.08.05l.21.2s.05.06.06.1l.09.33s0,.04,0,.06v.22s-.45,0-.45,0Z"/>
        <path d="M82.05,63.9h0s-.29,0-.29,0v-.21c0-.1.06-.19.16-.22l15.9-5c.1-.03.21.01.26.11.05.09.03.21-.05.28l-.17.14-.04-.05-15.61,4.9v.05s-.16,0-.16,0Z"/>
        <path d="M93.42,66.94v-.22c0-.1.06-.19.16-.22l12.62-3.99c.1-.03.21.01.27.11.05.09.03.21-.06.28l-.17.14-.04-.05-12.32,3.9v.06s-.45,0-.45,0Z"/>
        <rect x="49.24" y="59.74" width=".45" height=".33" transform="translate(-5.37 4.88) rotate(-5.35)"/>
        <path d="M49,60.51v-.37s-.11-.35-.11-.35l.43-.12.11.38s0,.04,0,.06v.4s-.44,0-.44,0Z"/>
        <path d="M40.48,42.35v-.08s0-.06.01-.08l.08-.22.42.15-.07.18v.04s-.01,0-.01,0h-.01s-.42,0-.42,0Z"/>
        <path d="M40.89,42.54l-.33-.3.11-.12s.04-.04.07-.05l.22-.11s.02-.01.03-.01l.62-.19.13.43-.6.18-.16.08-.08.09Z"/>
        <path d="M93.71,67.02l-.14-.43,12.45-3.94c.07-.02.14,0,.2.03.06.04.09.11.09.18v.14s-.18,0-.18,0l.02.08-12.45,3.94Z"/>
        <path d="M84.33,65.5l-.14-.43,17.82-5.61c.07-.02.14,0,.2.03.06.04.09.11.09.18v.13s-.18,0-.18,0l.03.08-17.82,5.61Z"/>
        <path d="M82.21,61.71l-.13-.43,8.8-2.76c.07-.02.14,0,.2.03.06.04.09.11.09.18v.12s-.19,0-.19,0l.03.09-8.8,2.76Z"/>
        <path d="M88.12,66.54l-.14-.43,16.91-5.34c.07-.02.14,0,.2.03.06.04.09.11.09.18v.13s-.18,0-.18,0l.03.08-16.91,5.34Z"/>
        <path d="M82.05,63.98l-.13-.43,15.73-4.94c.07-.02.14,0,.2.03.06.04.09.11.09.18v.13s-.18,0-.18,0l.03.09-15.73,4.94Z"/>
        <path d="M14.75,48.19v-.14s0-.03,0-.04l.03-.17s.02-.05.03-.08l.09-.14s.04-.05.07-.07l.13-.08s.04-.02.06-.03l6.15-1.85.13.43-6.12,1.85-.06.04-.04.06-.02.11v.12s-.45,0-.45,0Z"/>
        <path d="M41.45,42.98l-.41-.19.55-1.19s.02-.04.04-.06l.14-.15s.02-.02.03-.03l.08-.06s.02-.01.03-.02l.19-.09s.02-.01.03-.01l103.7-31.32s.02,0,.03,0l.22-.03s.03,0,.05,0l.26.02s.03,0,.04,0l.27.07s.02,0,.03.01l.26.12s.02.01.03.02l.23.15,14.55,11.65s.01.01.02.02l.16.16s.03.03.04.05l.08.14s.02.06.03.09v.24s0,.08,0,.11l-.58,1.15-.4-.2.55-1.1v-.11s-.05-.07-.05-.07l-.13-.13-14.52-11.63-.2-.13-.23-.1-.24-.06-.21-.02-.18.03-103.67,31.31-.2.11-.1.1-.53,1.15Z"/>
        <path d="M50.42,56.71s-.06,0-.09-.02l-.07-.03.16-.34v-.06s.03,0,.03,0h.02s.29-.08.29-.08l110.36-34.02.15.42-.09.03L50.55,56.7s-.03,0-.05,0h-.07s0,0,0,0Z"/>
        <path d="M50.52,57.14s-.02,0-.03,0l-.2-.03s-.04,0-.06-.02l-.18-.08s-.03-.02-.05-.03l-.16-.12s-.03-.03-.04-.04l-.14-.18s-.01-.02-.02-.03l-7.94-14.28s0-.02-.01-.03l-.08-.21s-.01-.05-.01-.07v-.2s0-.06,0-.08l.07-.18s.03-.05.05-.07l.13-.14.33.3-.1.11-.04.1v.12s.06.16.06.16l7.93,14.25.11.14.12.09.13.06.14.02.16-.02,110.93-34.21.08-.04v-.05s.04,0,.04,0h0s.41-.02.41-.02v.13s0,.09-.03.13l-.07.11s-.05.06-.09.08l-.15.08s-.03.01-.04.02L50.79,57.09s-.02,0-.03,0l-.21.03s-.02,0-.03,0Z"/>
        <path d="M119.55,25.08l-.04-.21s0-.03,0-.05v-.2s.46.02.46.02v.17s.02.19.02.19l-.44.08Z"/>
        <path d="M125.54,31.43h-.33s-.36-.05-.36-.05c0,0-.02,0-.03,0l-.35-.08s-.02,0-.02,0l-.35-.12s-.01,0-.02,0l-.33-.16s-.01,0-.02-.01l-.31-.19s-.02-.01-.02-.02l-.28-.22s-.02-.02-.03-.03l-3.98-4.49s-.02-.02-.03-.04l-.15-.26s-.01-.03-.02-.04l-.09-.26s0-.03-.01-.04l-.03-.25s0-.03,0-.05l.03-.24s0-.04.01-.06l.08-.22s.02-.04.03-.05l.14-.19s.02-.02.03-.03l.18-.16.3.34-.16.15-.11.14-.06.16-.02.18.03.2.09.25.11.19,3.96,4.46.25.2.29.18.31.15.32.12.32.08.33.04h.29s.27-.03.27-.03l.22-.07.18-.1.14-.13.11-.14.06-.16.02-.18-.03-.23.45-.06.03.25s0,.03,0,.05l-.02.24s0,.04-.01.06l-.08.22s-.02.04-.03.05l-.14.19s-.02.02-.03.03l-.18.16s-.02.02-.04.03l-.22.13s-.03.02-.05.02l-.27.08s-.03,0-.04,0l-.31.03s-.02,0-.02,0Z"/>
        <polygon points="121.14 24.1 120.85 24.06 120.91 23.62 121.2 23.66 121.18 23.88 121.14 24.1"/>
        <path d="M119.53,24.5l-.23-.39.65-.38s.03-.02.05-.02l.23-.07s.03,0,.04,0l.27-.03s.02,0,.03,0h.29s.02.01.03.01l.31.04s.02,0,.03,0l.31.08s.02,0,.02,0l.31.12s.01,0,.02,0l.36.19-.24.38-.04-.02-.27-.14-.29-.11-.28-.08-.28-.04s0,0,0,0h-.27s-.23.01-.23.01l-.19.06-.63.37Z"/>
        <path d="M126.5,29.94l-.1-.55-.08-.2-.13-.21-2.46-2.77.34-.3,2.48,2.79s.02.02.02.03l.15.24s.01.02.02.04l.09.24s0,.03.01.04l.1.57-.44.08Z"/>
        <path d="M121.78,24.92l-.26-.13-.26-.1-.25-.07-.24-.04h-.23s-.2,0-.2,0l-.15.05-.12.07-.1.1-.05.07-.37-.25.06-.09s.02-.03.03-.04l.14-.13s.03-.02.04-.03l.17-.1s.03-.02.05-.02l.2-.06s.03,0,.04,0l.23-.02s.02,0,.03,0h.26s.02.01.02.01l.27.04s.02,0,.03,0l.28.07s.02,0,.02,0l.28.11s.01,0,.02,0l.27.14s.03.02.04.02l-.24.38Z"/>
        <path d="M124.99,30.45s0,0,0,0h-.25s-.02-.01-.02-.01h-.09s.06-.46.06-.46h.08s.23.02.23.02l.2-.02.14-.04.12-.07.1-.09.07-.1.03-.11v-.14s-.02-.16-.02-.16l-.16-.4c-.04-.1,0-.22.09-.28.09-.06.22-.04.29.04l.34.38s.02.02.02.03l.12.2s.02.04.03.05l.08.22s0,.03.01.04l.04.21s0,.03,0,.05v.2s-.01.04-.02.06l-.05.15-.43-.13.04-.13v-.13s0,0,0,0c0,.02-.02.04-.03.06l-.1.15s-.02.03-.03.04l-.13.13s-.03.02-.04.03l-.16.1s-.03.02-.05.02l-.19.06s-.03,0-.05,0l-.23.02s-.01,0-.02,0Z"/>
        <path d="M125.56,30.59s0,0,0,0h-.27s-.02-.01-.02-.01l-.28-.04s-.02,0-.03,0l-.28-.08s-.01,0-.02,0l-.29-.11s-.01,0-.02,0l-.28-.14s-.01,0-.02-.01l-.26-.17s-.02-.01-.02-.02l-.23-.19s-.02-.02-.02-.02l-3.7-4.17s-.02-.02-.02-.03l-.13-.22s-.01-.02-.02-.04l-.08-.22.42-.16.07.2.14.21,3.65,4.12.21.17.29.18.21.11.26.1.26.07.33.04h.16s.22-.02.22-.02l.05.45-.24.02s-.01,0-.02,0Z"/>
        <path d="M125.86,30.56l-.13-.43.16-.05.14-.09.1-.1.31.32-.14.13s-.03.02-.04.03l-.17.1s-.03.02-.05.02l-.19.06Z"/>
        <path d="M124.34,29.98h0s0,0,0,0v-.02s-.06-.14-.06-.14l-.09-.14-1.4-1.57.34-.3,1.41,1.59s.02.02.02.03l.11.18s.01.02.02.04l.07.18s0,.03.01.04v.04s-.43.08-.43.08Z"/>
        <path d="M124.39,30.31l-.04-.45h.07s.12-.04.12-.04l.1-.06.08-.08.06-.08.03-.09v-.11s-.01-.13-.01-.13l-.05-.14-.09-.15-1.46-1.64.34-.3,1.47,1.66s.02.02.03.03l.11.18s.01.02.02.04l.07.18s0,.03.01.04l.03.18s0,.03,0,.05v.17s-.02.04-.02.06l-.05.15s-.02.04-.03.06l-.09.13s-.02.03-.03.04l-.12.11s-.02.02-.04.03l-.14.09s-.03.02-.05.02l-.17.05s-.03,0-.04,0h-.09Z"/>
        <path d="M120.24,25.51l-.45-.02v-.09s0-.05.02-.07l.05-.17s.02-.04.03-.06l.1-.15s.02-.03.03-.04l.13-.13s.03-.02.04-.03l.16-.1s.03-.02.05-.02l.2-.06s.03,0,.04,0l.23-.02s.02,0,.03,0h.25s.02.01.02.01l.26.04s.02,0,.03,0l.27.07s.02,0,.02,0l.13.05-.16.42-.21-.07-.15-.04-.24-.03h-.23s-.19,0-.19,0l-.15.04-.12.07-.1.09-.07.1-.03.11v.08Z"/>
        <path d="M120.7,26.26l-.31-.33.09-.09s.03-.02.04-.03l.14-.08s.03-.02.05-.02l.17-.05s.03,0,.04,0l.2-.02s.02,0,.03,0h.21s-.01.46-.01.46h-.19s-.16.01-.16.01l-.12.04-.1.06-.07.07Z"/>
        <path d="M124.25,30.23s0,0,0,0h-.04s.01-.45.01-.45h.03s.15-.01.15-.01l.11-.03.09-.05.07-.07.05-.08.03-.08v-.1s-.02-.12-.02-.12l-.05-.13-.09-.13-1.42-1.6.34-.3,1.43,1.62s.02.02.02.03l.11.17s.01.02.02.04l.07.17s0,.03.01.04l.03.17s0,.03,0,.05v.16s-.01.04-.02.06l-.04.14s-.02.04-.03.06l-.08.12s-.02.03-.03.04l-.11.11s-.02.02-.04.03l-.13.08s-.03.02-.05.02l-.16.05s-.03,0-.04,0l-.19.02s-.01,0-.02,0Z"/>
        <path d="M124.46,30.21l-.13-.43.11-.04.07-.05.07-.07.05-.07.02-.08v-.1s-.02-.12-.02-.12l-.05-.13-.08-.13-1.37-1.55.34-.3,1.38,1.56s.01.02.02.03l.11.16s.02.03.02.04l.07.17s0,.03.01.04l.03.16s0,.03,0,.05v.15s0,.04-.01.06l-.04.14s-.02.04-.03.06l-.08.12s-.02.03-.03.04l-.11.1s-.03.02-.04.03l-.13.08s-.03.02-.05.02l-.12.04Z"/>
        <path d="M120.76,26.28l-.08-.08-.28-.19v-.02s.03-.03.04-.04l.11-.11s.03-.02.04-.03l.13-.08s.03-.02.05-.02l.16-.05s.03,0,.04,0l.19-.02s.02,0,.03,0h.16s-.02.45-.02.45h-.14s-.15,0-.15,0l-.11.03-.09.05-.09.09Z"/>
        <path d="M120.81,26.37l-.31-.32.08-.08s.03-.02.04-.03l.13-.08s.03-.02.05-.02l.16-.05s.03,0,.05,0l.19-.02s.02,0,.03,0h.09s-.02.45-.02.45h-.07s-.15.01-.15.01l-.11.03-.09.05-.06.06Z"/>
        <path d="M77.51,37.82l-.37-.25.08-.11s.02-.03.03-.04l.14-.13s.02-.02.04-.03l.17-.1s.03-.02.05-.02l.21-.06s.03,0,.04,0l.24-.02s.02,0,.03,0h.27s.02.01.02.01l.27.04s.02,0,.03,0l.28.07s.02,0,.02,0l.28.11s.01,0,.02,0l.25.13-.2.4-.24-.12-.26-.1-.26-.07-.25-.04h-.24s-.2.01-.2.01l-.16.05-.13.08-.11.1-.06.09Z"/>
        <path d="M77.13,37.4l-.23-.39.66-.39s.03-.02.05-.02l.24-.07s.03,0,.04,0l.28-.03s.02,0,.03,0h.3s.02.01.02.01l.31.04s.02,0,.02,0l.33.09s.02,0,.02,0l.31.12s.01,0,.02,0l.3.15-.2.4-.29-.15-.29-.11-.3-.08-.28-.04h-.27s-.24.01-.24.01l-.19.06-.63.37Z"/>
        <path d="M83.16,44.46h-.34s-.02,0-.02,0l-.35-.04s-.02,0-.03,0l-.36-.09s-.02,0-.02,0l-.35-.13s-.01,0-.02,0l-.34-.16s-.01,0-.02-.01l-.32-.2s-.02-.01-.02-.02l-.28-.23s-.02-.02-.03-.03l-3.99-4.58s-.02-.02-.03-.04l-.15-.27s-.01-.03-.02-.04l-.09-.27s0-.03,0-.04l-.03-.26s0-.04,0-.05l.03-.24s0-.04.01-.06l.09-.22s.02-.04.03-.05l.15-.19s.02-.02.03-.03l.19-.16.3.34-.17.15-.11.15-.07.17-.02.19.02.21.09.26.11.19,3.97,4.54.25.21.3.18.32.15.33.12.33.08.32.04h.31s.28-.03.28-.03l.23-.07.19-.11.15-.14.11-.15.07-.17.02-.19-.03-.23.45-.05.03.26s0,.03,0,.05l-.03.24s0,.04-.01.06l-.09.22s-.02.04-.03.05l-.14.19s-.02.02-.03.03l-.19.17s-.02.02-.04.03l-.23.13s-.03.01-.05.02l-.28.09s-.03,0-.04,0l-.31.04s-.02,0-.02,0Z"/>
        <path d="M84.17,42.95l-.11-.56-.08-.21-.13-.21-2.49-2.85.34-.3,2.5,2.86s.02.02.02.03l.15.25s.01.03.02.04l.09.25s0,.02,0,.03l.11.58-.44.08Z"/>
        <path d="M83.49,43.57l-.13-.43.17-.05.16-.11.09-.09.31.32-.14.14s-.03.02-.04.03l-.17.1s-.03.02-.05.02l-.2.06Z"/>
        <path d="M77.21,38.24l-.07-.2s0-.03-.01-.04l-.03-.22s0-.03,0-.05v-.2s.46.03.46.03v.18s.01.17.01.17l.07.18-.42.15Z"/>
        <path d="M82.61,43.46s0,0,0,0h-.26s-.02,0-.02-.01l-.12-.02.02-.22.03-.22.12.02h.23s.2-.01.2-.01l.15-.05.12-.07.1-.1.07-.11.04-.12v-.14s-.02-.16-.02-.16l-.16-.41c-.04-.1,0-.22.09-.28.09-.06.21-.04.29.04l.34.39s.02.02.02.03l.13.22s.01.03.02.04l.08.22s0,.03.01.04l.03.21s0,.03,0,.05v.2s-.02.04-.02.06l-.05.15-.43-.14.04-.12v-.15s0,0,0,0v.04s-.03.04-.04.06l-.1.15s-.02.03-.03.04l-.14.13s-.03.02-.04.03l-.17.1s-.03.02-.05.02l-.2.06s-.03,0-.04,0l-.23.02s-.01,0-.02,0Z"/>
        <path d="M83.18,43.61h-.28s-.02-.01-.02-.01l-.28-.04s-.02,0-.03,0l-.29-.08s-.02,0-.02,0l-.29-.11s-.01,0-.02,0l-.26-.13s-.03-.02-.04-.02l-.26-.17s-.02-.01-.02-.02l-.23-.19s-.02-.02-.03-.02l-2.62-3s0,0,0,0l-1.09-1.24s-.02-.02-.02-.03l-.13-.22.39-.23.16.25,1.03,1.18s0,0,0,0l2.61,2.99.21.17.28.18.22.11.27.1.27.07.26.04h.25s.23-.01.23-.01l.05.45-.25.02s-.01,0-.02,0Z"/>
        <path d="M81.97,43.32l-.04-.45h.12s.13-.05.13-.05l.1-.06.11-.11.04-.06.03-.1v-.12s0-.14,0-.14l-.05-.15-.1-.17-1.46-1.67.34-.3,1.49,1.7s.02.02.03.04l.11.19s.01.03.02.04l.06.19s0,.03,0,.04l.03.18s0,.03,0,.05v.17s-.02.04-.03.05l-.05.15s-.02.04-.03.06l-.09.13s-.02.02-.03.04l-.12.11s-.02.02-.04.03l-.15.09s-.03.02-.05.02l-.18.05s-.03,0-.04,0h-.14Z"/>
        <path d="M82,42.97h0s0-.01,0-.01h0s-.05-.15-.05-.15l-.09-.15-1.41-1.61.34-.3,1.42,1.63s.02.02.02.03l.11.18s.01.03.02.04l.07.18s0,.03.01.04v.03s-.37.06-.37.06l-.06.02Z"/>
        <path d="M77.83,38.46l-.45-.03v-.12s.01-.05.02-.07l.06-.17s.02-.04.03-.06l.1-.15s.02-.03.03-.04l.14-.13s.03-.02.04-.03l.17-.1s.03-.02.05-.02l.2-.06s.03,0,.04,0l.23-.02s.02,0,.03,0h.26s.02.01.02.01l.27.04s.02,0,.03,0l.27.07s.02,0,.02,0l.1.04-.16.42-.18-.06-.16-.04-.24-.03h-.23s-.2.01-.2.01l-.15.05-.12.07-.1.1-.07.1-.04.12v.1Z"/>
        <path d="M78.29,39.21l-.31-.33.12-.11s.02-.02.04-.03l.15-.09s.03-.02.05-.02l.18-.05s.03,0,.04,0l.21-.02s.02,0,.03,0h.18s-.01.45-.01.45h-.17s-.17.01-.17.01l-.13.04-.1.06-.1.09Z"/>
        <path d="M81.88,43.24s0,0,0,0h-.1s.02-.45.02-.45h.08s.16-.01.16-.01l.12-.04.09-.06.09-.09.04-.06.03-.09v-.11s-.01-.12-.01-.12l-.05-.13-.09-.14-1.43-1.64.34-.3,1.45,1.66s.02.02.02.03l.11.17s.01.03.02.04l.07.17s0,.03.01.04l.03.17s0,.03,0,.05v.16s-.01.04-.02.06l-.05.14s-.02.04-.03.06l-.09.13s-.02.02-.03.04l-.11.11s-.02.02-.04.03l-.14.08s-.03.02-.05.02l-.17.05s-.03,0-.04,0l-.19.02s-.01,0-.02,0Z"/>
        <path d="M78.36,39.22l-.37-.25.03-.05s.02-.03.03-.04l.12-.11s.02-.02.04-.03l.14-.08s.03-.02.05-.02l.17-.05s.03,0,.04,0l.19-.02s.02,0,.03,0h.13s-.02.45-.02.45h-.12s-.16.01-.16.01l-.12.04-.09.06-.1.1Z"/>
        <path d="M82.09,43.21l-.13-.43.14-.05.05-.03.08-.07.05-.08.03-.08v-.1s-.02-.12-.02-.12l-.05-.13-.12-.17-1.35-1.55.34-.3,1.4,1.6s.01.02.02.03l.1.16s.01.03.02.04l.07.17s0,.03.01.04l.03.17s0,.03,0,.05v.16s-.01.04-.02.06l-.04.14s-.02.04-.03.06c0,0-.01.02-.01.02l-.07.1s-.02.03-.03.04l-.11.11s-.02.02-.04.03l-.14.08s-.03.02-.05.02l-.13.04Z"/>
        <path d="M78.39,39.33l-.31-.32.1-.1s.02-.02.04-.03l.14-.08s.03-.02.05-.02l.16-.05s.03,0,.04,0l.19-.02s.02,0,.03,0h.07s-.02.45-.02.45h-.05s-.15.01-.15.01l-.11.03-.09.06-.09.08Z"/>
        <path d="M142.62,18.05l-.04-.21s0-.03,0-.05v-.2s.46.02.46.02v.17s.03.18.03.18l-.44.08Z"/>
        <path d="M148.58,24.35h-.33s-.02,0-.02,0l-.34-.04s-.02,0-.03,0l-.34-.08s-.02,0-.02,0l-.34-.12s-.01,0-.02,0l-.33-.16s-.01,0-.02-.01l-.31-.19s-.02-.01-.02-.02l-.28-.22s-.02-.02-.03-.02l-3.97-4.45s-.02-.02-.03-.03l-.15-.25s-.02-.03-.02-.05l-.09-.26s0-.03-.01-.04l-.03-.25s0-.04,0-.06l.02-.23s0-.04.01-.06l.08-.21s.02-.04.03-.06l.13-.18s.02-.02.03-.03l.18-.16.3.33-.16.14-.1.14-.06.16-.02.18.03.2.09.25.11.19,3.95,4.42.25.2.28.17s0,0,.01,0l.31.15.32.12.32.08.31.04h.3s.27-.02.27-.02l.22-.07.17-.1.14-.13.1-.14.06-.16.02-.18-.03-.22.44-.06.03.25s0,.03,0,.05l-.02.24s0,.04-.01.06l-.08.21s-.02.04-.03.06l-.13.18s-.02.02-.03.03l-.17.16s-.02.02-.04.03l-.22.13s-.03.02-.05.02l-.26.08s-.03,0-.04,0l-.3.03s-.02,0-.02,0Z"/>
        <polygon points="144.18 17.09 144.05 17.07 144.11 16.63 144.24 16.65 144.22 16.87 144.18 17.09"/>
        <path d="M142.59,17.48l-.23-.39.65-.38s.03-.02.05-.02l.23-.07s.03,0,.04,0l.27-.02s.02,0,.03,0h.29s.03.01.04.02l.3.04s.02,0,.03,0l.3.08s.02,0,.02,0l.31.12s.01,0,.02,0l.37.19-.24.38-.05-.03-.27-.13-.28-.11-.28-.08-.28-.04h-.27s-.23.01-.23.01l-.18.06-.62.37Z"/>
        <path d="M149.51,22.87l-.09-.54-.08-.2-.13-.21-2.46-2.74.33-.3,2.47,2.76s.02.02.02.03l.15.24s.01.02.02.04l.09.24s0,.03.01.04l.1.57-.44.07Z"/>
        <path d="M144.83,17.91l-.03-.02-.25-.13-.24-.09-.25-.07-.24-.03h-.23s-.19,0-.19,0l-.15.05-.12.07-.1.09-.04.06-.38-.25.05-.08s.02-.03.03-.04l.13-.13s.03-.02.04-.03l.16-.1s.03-.02.05-.02l.2-.06s.03,0,.04,0l.23-.02s.02,0,.03,0h.26s.02.01.02.01l.27.04s.02,0,.03,0l.27.07s.02,0,.02,0l.27.11.34.17-.24.38Z"/>
        <path d="M148.03,23.37s0,0,0,0h-.25s-.02-.01-.02-.01h-.07s.06-.45.06-.45h.06s.22.02.22.02l.19-.02.14-.04.11-.07.09-.09.06-.1.03-.11v-.13s-.04-.19-.04-.19l-.15-.36c-.04-.1,0-.22.08-.28.09-.06.22-.04.29.04l.34.38s.02.02.02.03l.13.21s.01.02.02.04l.08.21s0,.02.01.04l.04.21s0,.03,0,.05v.19s-.01.04-.02.06l-.05.16-.43-.13.04-.13v-.11s0,.03-.02.04l-.09.15s-.02.03-.03.04l-.13.13s-.03.02-.04.03l-.16.1s-.03.02-.05.02l-.19.06s-.03,0-.05,0l-.23.02s-.01,0-.02,0Z"/>
        <path d="M148.61,23.51s0,0,0,0h-.26s-.02-.01-.02-.01l-.27-.04s-.02,0-.03,0l-.28-.08s-.01,0-.02,0l-.37-.16-.21-.1-.28-.18s-.02-.01-.02-.02l-.23-.19s-.02-.01-.02-.02l-3.7-4.13s-.02-.02-.02-.03l.17-.15-.19.12-.12-.19s-.01-.02-.02-.04l-.08-.22.42-.16.08.2.13.2,3.65,4.08.2.17.28.17.48.21.26.07.26.04h.22s.22-.01.22-.01l.05.45-.24.02s-.01,0-.02,0Z"/>
        <path d="M148.91,23.48l-.13-.43.16-.05.13-.08.11-.11.31.32-.14.13s-.02.02-.04.03l-.16.1s-.03.02-.05.02l-.19.06Z"/>
        <path d="M147.36,22.91v-.02s-.06-.14-.06-.14l-.09-.14-1.39-1.56.33-.3,1.41,1.57s.02.02.02.03l.11.18s.01.02.02.04l.07.18s0,.03.01.04v.04s-.43.08-.43.08Z"/>
        <path d="M147.45,23.23l-.04-.45h.05s.12-.04.12-.04l.09-.06.08-.07.05-.08.03-.09v-.11s-.02-.13-.02-.13l-.05-.14-.09-.14-1.46-1.63.33-.3,1.47,1.65s.02.02.03.03l.11.18s.01.02.02.04l.07.18s0,.03.01.04l.03.18s0,.03,0,.05v.16s-.01.04-.02.06l-.05.15s-.02.04-.03.06l-.09.13s-.02.02-.03.03l-.12.11s-.03.02-.04.03l-.14.08s-.03.02-.05.02l-.17.05s-.03,0-.04,0h-.07Z"/>
        <path d="M143.31,18.47l-.45-.02v-.09s0-.05.01-.07l.05-.17s.02-.04.03-.06l.1-.15s.02-.03.03-.04l.13-.12s.03-.02.04-.03l.16-.1s.03-.02.05-.02l.19-.06s.03,0,.04,0l.23-.02s.02,0,.03,0h.25s.02.01.02.01l.26.04s.02,0,.03,0l.26.07s.02,0,.02,0l.14.05-.16.42-.22-.07-.15-.04-.23-.03h-.22s-.19,0-.19,0l-.14.04-.11.07-.09.09-.06.1-.04.18Z"/>
        <path d="M143.77,19.22l-.31-.33.08-.07s.03-.02.04-.03l.14-.08s.03-.02.05-.02l.17-.05s.03,0,.04,0l.2-.02s.02,0,.03,0h.21s0,.46,0,.46h-.2s-.16,0-.16,0l-.12.04-.09.06-.06.06Z"/>
        <path d="M147.3,23.16s0,0,0,0v-.29s-.01-.16-.01-.16l.16-.02.11-.03.09-.05.07-.07.05-.07.02-.08v-.1s-.02-.12-.02-.12l-.05-.13-.09-.13-1.42-1.59.33-.3,1.43,1.6s.01.02.02.03l.11.16s.01.02.02.04l.07.17s0,.03.01.04l.03.17s0,.03,0,.05v.15s0,.04-.01.06l-.04.14s-.02.04-.03.06l-.08.12s-.02.03-.03.04l-.11.1s-.03.02-.04.03l-.13.08s-.03.02-.05.02l-.16.05s-.03,0-.04,0l-.19.02s-.01,0-.02,0Z"/>
        <path d="M147.51,23.14l-.13-.43.09-.03.08-.05.08-.09.03-.05.02-.08v-.1s-.02-.12-.02-.12l-.05-.13-.08-.13-1.37-1.53.33-.3,1.38,1.55s.01.02.02.03l.11.16s.01.02.02.04l.07.17s0,.03.01.04l.03.16s0,.03,0,.05v.15s0,.04-.01.06l-.04.14s-.02.04-.03.06l-.08.12s-.02.03-.03.04l-.1.1s-.03.02-.04.03l-.11.07s-.05.03-.07.03l-.12.04Z"/>
        <path d="M143.81,19.24l-.15-.14-.21-.13h0s.02-.03.03-.04l.11-.1s.03-.02.04-.03l.13-.08s.03-.02.05-.02l.16-.05s.03,0,.04,0l.19-.02s.02,0,.03,0h.16s-.02.46-.02.46h-.14s-.15,0-.15,0l-.11.03-.09.05-.08.08Z"/>
        <path d="M143.87,19.33l-.31-.32.05-.05s.04-.03.05-.04l.13-.08s.03-.02.05-.02l.16-.05s.03,0,.05,0l.18-.02s.02,0,.03,0h.09s-.02.45-.02.45h-.07s-.15,0-.15,0l-.11.03-.08.05-.05.04Z"/>
        <path d="M53.32,45.19l-.37-.26.09-.13s.02-.02.03-.04l.14-.14s.02-.02.04-.03l.18-.1s.03-.02.05-.02l.21-.06s.03,0,.04,0l.24-.02s.02,0,.03,0h.27s.02,0,.02.01l.28.04s.02,0,.03,0l.28.08s.02,0,.02,0l.28.11s.01,0,.02,0l.24.12-.2.4-.23-.12-.26-.1-.26-.07-.25-.04h-.24s-.21.01-.21.01l-.16.05-.13.08-.11.1-.07.11Z"/>
        <path d="M52.96,44.76l-.23-.39.66-.39s.03-.02.05-.02l.25-.07s.03,0,.04,0l.28-.03s.02,0,.03,0h.3s.02.01.02.01l.31.04s.03,0,.03,0l.33.09s.02,0,.02,0l.32.12s.01,0,.02,0l.28.14-.2.4-.27-.14-.29-.11-.31-.08-.29-.04h-.28s-.24.02-.24.02l-.2.06-.64.38Z"/>
        <path d="M58.99,51.89h-.34s-.37-.05-.37-.05c0,0-.02,0-.03,0l-.36-.09s-.02,0-.02,0l-.36-.13s-.01,0-.02,0l-.34-.16s-.01,0-.02-.01l-.32-.2s-.02-.01-.02-.02l-.28-.23s-.02-.02-.03-.03l-4-4.62s-.02-.02-.03-.04l-.15-.27s-.01-.03-.02-.04l-.08-.27s0-.03,0-.04l-.03-.26s0-.03,0-.05l.03-.25s0-.04.01-.06l.09-.22s.02-.04.03-.05l.15-.19s.02-.02.03-.03l.19-.17.29.34-.17.15-.12.15-.07.17-.03.19.02.21.09.26.11.2,3.97,4.59.25.21.3.18.32.15.33.12.33.08.34.04h.3s.28-.03.28-.03l.25-.08.18-.11.16-.14.12-.15.07-.17.03-.19-.02-.24.45-.05.03.26s0,.03,0,.05l-.03.25s0,.04-.01.05l-.09.22s-.02.04-.03.05l-.15.19s-.02.02-.03.03l-.19.17s-.02.02-.04.03l-.23.13s-.03.01-.05.02l-.28.09s-.03,0-.04,0l-.32.04s-.02,0-.03,0Z"/>
        <path d="M60.04,50.36l-.11-.57-.07-.22-.13-.22-2.5-2.88.34-.29,2.51,2.9s.02.02.02.03l.15.25s.01.03.02.04l.09.25s0,.02,0,.03l.12.58-.44.09Z"/>
        <path d="M59.33,50.99l-.13-.43.17-.05.13-.08.13-.12.31.33-.15.14s-.02.02-.04.03l-.18.11s-.03.02-.05.02l-.2.06Z"/>
        <path d="M53.03,45.61l-.07-.21s0-.03-.01-.04l-.03-.22s0-.03,0-.05l.02-.21.45.04v.18s.01.17.01.17l.06.19-.42.15Z"/>
        <path d="M58.44,50.88s0,0,0,0h-.26s-.02,0-.02-.01l-.16-.02.06-.44.14.02h.24s.2-.01.2-.01l.16-.05.13-.08.11-.1.07-.11.04-.12v-.14s-.01-.16-.01-.16l-.15-.41c-.04-.1,0-.22.09-.28.09-.06.22-.04.29.04l.34.4s.02.02.02.03l.13.22s.01.03.02.04l.08.22s0,.03.01.04l.03.22s0,.03,0,.05l-.02.2s0,.04-.01.06l-.05.14-.43-.14.04-.11v-.15s0-.02,0-.02l-.02.05s-.02.04-.03.06l-.11.15s-.02.02-.03.04l-.14.13s-.02.02-.04.03l-.17.1s-.03.02-.05.02l-.2.06s-.03,0-.04,0l-.24.02s-.01,0-.02,0Z"/>
        <path d="M59.02,51.03s0,0,0,0h-.28s-.02-.01-.02-.01l-.29-.04s-.02,0-.03,0l-.29-.08s-.01,0-.02,0l-.29-.11s-.01,0-.02,0l-.28-.14s-.02-.01-.02-.01l-.27-.17s-.02-.01-.02-.02l-.23-.2s-.02-.02-.03-.02l-3.72-4.3s-.02-.02-.02-.03l-.13-.22.38-.24.12.21,3.69,4.27.21.18.28.17.23.12.27.1.27.07.26.04h.24s.24-.01.24-.01l.05.45-.25.02s-.01,0-.02,0Z"/>
        <path d="M57.79,50.73l-.04-.45h.14s.13-.06.13-.06l.11-.06.09-.08.06-.09.03-.1v-.12s0-.14,0-.14l-.05-.15-.09-.16-1.47-1.7.34-.29,1.49,1.72s.02.02.03.04l.11.19s.01.03.02.04l.06.19s0,.03,0,.04l.02.18s0,.03,0,.05l-.02.17s0,.04-.01.05l-.05.15s-.02.04-.03.05l-.09.13s-.02.02-.03.03l-.12.11s-.02.02-.04.03l-.15.09s-.03.02-.05.02l-.18.05s-.03,0-.04,0l-.17.02Z"/>
        <path d="M57.86,50.37l-.06-.17-.09-.15-1.41-1.63.34-.29,1.43,1.65s.02.02.02.03l.11.18s.01.03.02.04l.06.19s0,.03,0,.04v.03s-.35.05-.35.05l-.08.03Z"/>
        <path d="M53.65,45.84l-.45-.03v-.13s.02-.05.02-.07l.06-.18s.02-.04.03-.06l.11-.15s.02-.02.03-.04l.14-.13s.02-.02.04-.03l.17-.1s.03-.02.05-.02l.21-.06s.03,0,.04,0l.24-.02s.02,0,.03,0h.26s.02,0,.02.01l.27.04s.02,0,.03,0l.28.07s.02,0,.02,0l.08.03-.16.42-.16-.05-.16-.04-.25-.03h-.24s-.2.01-.2.01l-.16.05-.13.07-.11.1-.07.11-.04.12v.11Z"/>
        <path d="M54.11,46.59l-.13-.14-.21-.14h0s.02-.03.03-.05l.12-.11s.02-.02.04-.03l.15-.09s.03-.02.05-.02l.18-.05s.03,0,.04,0l.21-.02s.02,0,.03,0h.18s-.01.45-.01.45h-.16s-.17.01-.17.01l-.13.04-.11.06-.11.1Z"/>
        <path d="M57.72,50.65s0,0,0,0h-.13s.01-.45.01-.45h.11s.16-.01.16-.01l.12-.04.09-.06.14-.16.03-.09v-.11s-.01-.13-.01-.13l-.05-.14-.08-.14-1.44-1.66.34-.29,1.45,1.68s.02.02.02.03l.1.17s.01.03.02.04l.06.18s0,.03.01.04l.03.17s0,.03,0,.05v.16s-.02.04-.02.06l-.05.15s-.02.04-.03.06l-.09.13s-.02.02-.03.04l-.12.11s-.02.02-.04.03l-.14.08s-.03.02-.05.02l-.17.05s-.03,0-.04,0l-.2.02s-.01,0-.02,0Z"/>
        <path d="M54.18,46.61l-.37-.26.04-.06s.02-.02.03-.04l.12-.11s.02-.02.04-.03l.14-.08s.03-.02.05-.02l.17-.05s.03,0,.04,0l.2-.02s.02,0,.03,0h.13s-.02.45-.02.45h-.12s-.16.01-.16.01l-.12.04-.1.06-.11.12Z"/>
        <path d="M57.93,50.63l-.13-.43.11-.03.09-.06.08-.08.05-.08.03-.09v-.1s-.01-.12-.01-.12l-.05-.13-.08-.13-1.39-1.6.34-.29,1.4,1.62s.01.02.02.03l.1.17s.01.03.02.04l.06.17s0,.03.01.04l.03.17s0,.03,0,.05v.16s-.01.04-.02.06l-.04.13s-.02.05-.03.07l-.09.12s-.02.03-.03.04l-.12.11s-.02.02-.04.03l-.14.08s-.03.02-.05.02l-.13.04Z"/>
        <path d="M54.22,46.71l-.14-.15-.19-.14h0s.02-.03.03-.03l.12-.11s.02-.02.04-.03l.14-.08s.03-.02.05-.02l.17-.05s.03,0,.04,0l.19-.02s.02,0,.03,0h.06s-.02.45-.02.45h-.05s-.16.01-.16.01l-.12.04-.09.06-.1.09Z"/>
        <path d="M131.13,21.55l-.04-.21s0-.03,0-.05v-.2s.46.02.46.02v.17s.03.19.03.19l-.44.08Z"/>
        <path d="M137.11,27.87h-.33s-.36-.05-.36-.05c0,0-.02,0-.03,0l-.35-.08s-.02,0-.02,0l-.34-.12s-.01,0-.02,0l-.37-.18-.29-.18s-.02-.01-.02-.02l-.28-.22s-.02-.02-.03-.03l-3.98-4.47s-.02-.02-.03-.03l-.15-.26s-.01-.03-.02-.04l-.09-.26s0-.03-.01-.04l-.03-.25s0-.03,0-.05l.02-.24s0-.04.01-.06l.08-.21s.02-.04.03-.05l.14-.18s.02-.02.03-.03l.18-.16.3.33-.16.14-.1.14-.06.16-.02.18.03.2.09.25.11.19,3.95,4.44.25.2.3.18.3.14.32.12.32.08.32.04h.29s.27-.02.27-.02l.22-.07.18-.1.14-.13.1-.14.06-.16.02-.18-.03-.23.45-.06.03.25s0,.03,0,.05l-.02.24s0,.04-.01.06l-.08.21s-.02.04-.03.05l-.14.19s-.02.02-.03.03l-.18.16s-.02.02-.04.03l-.22.13s-.03.02-.05.02l-.27.08s-.03,0-.04,0l-.3.03s-.02,0-.02,0Z"/>
        <polygon points="132.71 20.58 132.5 20.55 132.56 20.11 132.76 20.14 132.75 20.36 132.71 20.58"/>
        <path d="M131.11,20.98l-.23-.39.65-.38s.03-.02.05-.02l.23-.07s.03,0,.04,0l.27-.03s.02,0,.03,0h.29s.03.01.04.01l.3.04s.02,0,.03,0l.31.08s.02,0,.02,0l.31.12s.01,0,.02,0l.37.19-.24.38-.05-.03-.27-.14-.29-.11-.28-.08-.28-.04h-.27s-.23.01-.23.01l-.19.06-.63.37Z"/>
        <path d="M138.05,26.39l-.09-.55-.08-.2-.13-.21-2.45-2.74.33-.31,2.47,2.77s.02.02.02.03l.15.24s.01.02.02.04l.09.24s0,.03.01.04l.1.57-.44.07Z"/>
        <path d="M133.36,21.41l-.03-.02-.24-.12-.25-.1-.27-.07-.22-.03h-.23s-.2,0-.2,0l-.15.05-.12.07-.1.09-.04.06-.37-.25.06-.08s.02-.03.03-.04l.13-.13s.03-.02.04-.03l.16-.1s.03-.02.05-.02l.2-.06s.03,0,.04,0l.23-.02s.02,0,.03,0h.26s.02.01.02.01l.27.04s.02,0,.03,0l.27.07s.01,0,.02,0l.28.11s.01,0,.02,0l.32.17-.24.38Z"/>
        <path d="M136.56,26.9s0,0,0,0h-.25s-.02-.01-.02-.01h-.08s.06-.46.06-.46h.07s.22.02.22.02l.19-.02.15-.04.11-.07.09-.09.06-.1.03-.11v-.14s-.02-.16-.02-.16l-.16-.4c-.04-.1,0-.22.09-.28.09-.06.21-.04.29.04l.34.38s.02.02.02.03l.13.21s.01.02.02.04l.08.21s0,.03.01.04l.04.21s0,.03,0,.05v.19s-.01.04-.02.06l-.05.16-.43-.13.04-.13v-.12s0,.04-.02.05l-.1.15s-.02.03-.03.04l-.13.13s-.03.02-.04.03l-.16.1s-.03.02-.05.02l-.17.05s-.05.01-.06.01l-.23.02s-.01,0-.02,0Z"/>
        <path d="M137.13,27.03s0,0,0,0h-.26s-.02-.01-.02-.01l-.28-.04s-.02,0-.03,0l-.28-.08s-.02,0-.02,0l-.28-.11s-.01,0-.02,0l-.28-.14-.28-.18s-.02-.01-.02-.02l-.23-.19s-.02-.02-.02-.02l-2.57-2.89s-.02-.02-.02-.02l-1.11-1.25s-.02-.02-.02-.03l-.13-.22s-.01-.02-.02-.04l-.08-.22.42-.16.08.2.14.21,1.08,1.21s.02.02.02.02l2.56,2.87.26.21.22.13.48.21.26.07.31.04h.17s.22-.01.22-.01l.05.45-.24.02s-.01,0-.02,0Z"/>
        <path d="M137.43,27l-.13-.43.16-.05.13-.08.11-.11.31.32-.14.13s-.03.02-.04.03l-.17.1s-.03.02-.05.02l-.19.06Z"/>
        <path d="M135.9,26.43h0s0,0,0,0v-.02s-.06-.14-.06-.14l-.09-.14-1.38-1.55.16-.16.17-.15h0s1.4,1.57,1.4,1.57c0,0,.02.02.02.03l.11.18s.01.02.02.04l.07.18s0,.03.01.04v.04s-.43.08-.43.08Z"/>
        <path d="M135.97,26.76l-.04-.45h.06s.12-.04.12-.04l.09-.06.08-.08.05-.08.03-.09v-.11s-.02-.13-.02-.13l-.05-.14-.09-.15-1.45-1.63.33-.3,1.47,1.65s.02.02.03.03l.11.18s.01.02.02.04l.07.18s0,.03.01.04l.03.18s0,.03,0,.05v.17s-.01.04-.02.06l-.05.15s-.02.04-.03.06l-.08.11s-.03.04-.04.05l-.11.11s-.02.02-.04.03l-.14.09s-.03.02-.05.02l-.17.05s-.03,0-.05,0h-.08Z"/>
        <path d="M131.82,21.97l-.45-.02v-.09s0-.05.01-.07l.05-.17s.02-.04.03-.06l.1-.15s.02-.03.03-.04l.13-.13s.03-.02.04-.03l.16-.1s.03-.02.05-.02l.19-.06s.03,0,.04,0l.23-.02s.02,0,.03,0h.25s.02.01.02.01l.26.04s.02,0,.03,0l.27.07s.02,0,.02,0l.14.06-.16.42-.22-.08-.15-.04-.23-.03h-.22s-.19,0-.19,0l-.15.04-.11.07-.09.09-.07.1-.03.11v.07Z"/>
        <path d="M132.28,22.72l-.31-.33.08-.08s.03-.02.04-.03l.14-.08s.03-.02.05-.02l.17-.05s.03,0,.04,0l.2-.02s.02,0,.03,0h.22s-.01.46-.01.46h-.2s-.16,0-.16,0l-.12.04-.1.06-.07.06Z"/>
        <path d="M135.82,26.68s0,0,0,0h-.03s.01-.44.01-.44h0s0-.01,0-.01h.01s.15-.01.15-.01l.11-.03.09-.05.07-.07.05-.07.02-.08v-.1s-.02-.12-.02-.12l-.05-.13-.09-.13-1.41-1.59.33-.3,1.43,1.6s.02.02.02.03l.11.17s.01.02.02.04l.07.17s0,.03.01.04l.03.17s0,.03,0,.05v.16s0,.04-.01.06l-.04.14s-.02.04-.03.06l-.08.12s-.02.03-.03.04l-.11.11s-.03.02-.04.03l-.13.08s-.03.02-.05.02l-.16.05s-.03,0-.04,0l-.19.02s-.01,0-.02,0Z"/>
        <path d="M136.03,26.66l-.13-.43.1-.03.08-.05.07-.07.05-.07.02-.08v-.1s-.02-.12-.02-.12l-.05-.13-.08-.13-1.37-1.53.34-.3,1.38,1.55s.01.02.02.03l.11.16s.02.03.02.04l.07.17s0,.03.01.04l.03.16s0,.03,0,.05v.15s0,.04-.01.06l-.04.14s-.02.04-.03.06l-.08.12s-.02.03-.03.04l-.11.1s-.03.02-.04.03l-.13.08s-.03.02-.05.02l-.12.04Z"/>
        <path d="M132.33,22.75l-.13-.14-.22-.13h0s.02-.04.03-.05l.11-.11s.03-.02.04-.03l.13-.08s.03-.02.05-.02l.16-.05s.03,0,.04,0l.19-.02s.02,0,.03,0h.17s-.02.46-.02.46h-.15s-.15,0-.15,0l-.11.03-.09.05-.09.09Z"/>
        <path d="M132.39,22.84l-.31-.32.07-.07s.03-.02.04-.03l.13-.08s.03-.02.05-.02l.16-.05s.03,0,.05,0l.19-.02s.02,0,.03,0h.1s-.02.45-.02.45h-.08s-.15,0-.15,0l-.11.03-.08.05-.05.05Z"/>
        <path d="M65.47,41.49l-.37-.26.08-.12s.02-.02.03-.04l.14-.13s.02-.02.04-.03l.17-.1s.03-.02.05-.02l.21-.06s.03,0,.04,0l.24-.02s.02,0,.03,0h.27s.02.01.02.01l.28.04s.02,0,.03,0l.28.08s.02,0,.02,0l.28.11s.01,0,.02,0l.25.13-.2.4-.24-.12-.26-.1-.26-.07-.3-.04h-.19s-.21.01-.21.01l-.16.05-.13.08-.11.1-.07.1Z"/>
        <path d="M65.1,41.06l-.23-.39.46-.27s.02-.01.02-.01l.18-.11s.03-.02.05-.02l.24-.07s.03,0,.04,0l.28-.03s.02,0,.03,0h.3s.02.01.02.01l.31.04s.02,0,.03,0l.33.09s.02,0,.02,0l.31.12s.01,0,.02,0l.3.15-.2.4-.29-.15-.29-.11-.3-.08-.29-.04h-.27s-.25.02-.25.02l-.19.06-.16.09s-.02.01-.02.01l-.46.27Z"/>
        <path d="M71.13,48.16h-.34s-.02,0-.02,0l-.35-.04s-.02,0-.03,0l-.36-.09s-.02,0-.02,0l-.35-.13s-.01,0-.02,0l-.34-.16s-.01,0-.02-.01l-.32-.2s-.02-.01-.03-.02l-.28-.23s-.02-.02-.03-.03l-4-4.6s-.02-.02-.03-.04l-.15-.27s-.01-.03-.02-.04l-.08-.27s0-.03,0-.04l-.03-.26s0-.04,0-.05l.03-.24s0-.04.01-.05l.09-.22s.02-.04.03-.05l.15-.19s.02-.02.03-.03l.19-.17.3.34-.17.15-.12.15-.07.17-.02.19.02.21.09.26.11.19,3.97,4.57.29.23.26.16.41.19.24.09.33.08.33.04h.31s.28-.03.28-.03l.24-.07.19-.11.15-.14.11-.15.07-.17.02-.19-.02-.23.45-.05.03.26s0,.03,0,.05l-.03.24s0,.04-.01.05l-.09.22s-.02.04-.03.05l-.15.19s-.02.02-.03.03l-.19.17s-.02.02-.04.03l-.23.13s-.03.02-.05.02l-.28.09s-.03,0-.04,0l-.32.04s-.02,0-.03,0Z"/>
        <path d="M72.16,46.64l-.11-.56-.07-.21-.13-.21-2.48-2.86.34-.29,2.5,2.87s.02.02.02.03l.15.25s.01.03.02.04l.09.25s0,.02,0,.03l.11.58-.44.09Z"/>
        <path d="M71.46,47.27l-.13-.43.17-.05.13-.08.13-.12.31.33-.14.14s-.03.02-.04.03l-.18.11s-.03.02-.05.02l-.2.06Z"/>
        <path d="M65.17,41.91l-.07-.21s0-.03-.01-.04l-.03-.22s0-.03,0-.05v-.2s.46.03.46.03v.18s.01.17.01.17l.07.19-.42.15Z"/>
        <path d="M70.58,47.15s0,0,0,0h-.26s-.02,0-.02-.01l-.14-.02.06-.45.13.02h.23s.2-.01.2-.01l.16-.05.12-.07.1-.1.07-.11.04-.12v-.14s-.02-.16-.02-.16l-.16-.41c-.04-.1,0-.22.09-.28s.22-.04.29.04l.34.39s.02.02.02.03l.13.22s.01.03.02.04l.08.22s0,.03.01.04l.03.21s0,.03,0,.05v.2s-.02.04-.02.05l-.05.14-.43-.14.04-.12v-.15s0-.01,0-.01l-.02.04s-.02.04-.03.06l-.1.15s-.02.02-.03.04l-.14.13s-.03.02-.04.03l-.17.1s-.03.02-.05.02l-.2.06s-.03,0-.04,0l-.24.02s-.01,0-.02,0Z"/>
        <path d="M71.15,47.3s0,0,0,0h-.27s-.02-.01-.02-.01l-.28-.04s-.02,0-.03,0l-.29-.08s-.02,0-.02,0l-.07-.03s-.02,0-.02,0l-.2-.08s-.01,0-.02,0l-.27-.14s-.03-.01-.03-.02l-.27-.17s-.02-.01-.02-.02l-.23-.2s-.02-.02-.02-.02l-3.71-4.27s-.02-.02-.02-.03l-.13-.22.39-.23.12.2,3.72,4.27.18.15.28.18.23.12.19.07s.02,0,.02,0l.06.02.27.07.26.04h.25s.23-.01.23-.01l.05.45-.25.02s-.01,0-.02,0Z"/>
        <path d="M69.93,47.01l-.04-.45h.13s.13-.05.13-.05l.1-.06.09-.08.06-.09.03-.1v-.12s0-.14,0-.14l-.05-.15-.09-.15-1.47-1.69.34-.29,1.48,1.7s.02.02.03.04l.11.19s.01.03.02.04l.06.19s0,.03,0,.04l.02.18s0,.03,0,.05v.17s-.02.04-.03.06l-.05.15s-.02.04-.03.05l-.09.13s-.02.02-.03.03l-.12.11s-.02.02-.04.03l-.15.09s-.03.02-.05.02c0,0-.02,0-.02,0l-.16.05s-.03,0-.04,0l-.15.02Z"/>
        <path d="M69.98,46.65h0s0-.01,0-.01h0s-.05-.15-.05-.15l-.09-.15-.69-.8s0,0,0,0l-.71-.81.34-.29.7.81s0,0,0,0l.71.82s.02.02.02.03l.11.18s.01.03.02.04l.07.18s0,.03.01.04v.03s-.37.06-.37.06l-.07.02Z"/>
        <path d="M65.79,42.13l-.45-.03v-.12s.02-.05.02-.07l.06-.18s.02-.04.03-.06l.1-.15s.02-.02.03-.04l.14-.13s.02-.02.04-.03l.17-.1s.03-.02.05-.02l.2-.06s.03,0,.04,0l.24-.02s.02,0,.03,0h.26s.02,0,.02.01l.27.04s.02,0,.03,0l.27.07s.02,0,.02,0l.1.04-.16.42-.18-.06-.16-.04-.24-.03h-.23s-.2.01-.2.01l-.16.05-.12.07-.1.1-.07.11-.04.12v.11Z"/>
        <path d="M66.25,42.89l-.15-.16-.19-.13h0s.02-.03.03-.04l.12-.11s.02-.02.04-.03l.15-.09s.03-.02.05-.02l.18-.05s.03,0,.04,0l.21-.02s.02,0,.03,0h.19s-.01.45-.01.45h-.18s-.17.01-.17.01l-.13.04-.1.06-.1.1Z"/>
        <path d="M69.85,46.93h-.12s.01-.45.01-.45h.1s.16-.01.16-.01l.12-.04.1-.06.14-.16.03-.09v-.11s-.01-.12-.01-.12l-.05-.13-.08-.14-1.43-1.64.34-.29,1.44,1.66s.02.02.02.03l.11.17s.01.03.02.04l.07.18s0,.03.01.04l.03.17s0,.03,0,.05v.16s-.02.04-.02.06l-.05.14s-.02.04-.03.06l-.09.12s-.02.02-.03.04l-.12.11s-.02.02-.04.03l-.14.08s-.03.02-.05.02l-.17.05s-.03,0-.04,0l-.2.02s-.01,0-.02,0Z"/>
        <path d="M66.32,42.9l-.37-.26.04-.05s.02-.02.03-.04l.12-.11s.02-.02.04-.03l.14-.08s.03-.02.05-.02l.17-.05s.03,0,.04,0l.2-.02s.02,0,.03,0h.14s-.01.45-.01.45h-.13s-.16.01-.16.01l-.12.04-.1.06-.11.11Z"/>
        <path d="M70.06,46.9l-.13-.43.1-.03.09-.06.08-.07.05-.08.03-.08v-.1s-.02-.12-.02-.12l-.05-.13-.08-.13-1.38-1.59.34-.29,1.39,1.6s.01.02.02.03l.1.16s.02.03.02.04l.07.17s0,.03.01.04l.03.17s0,.03,0,.05v.16s-.01.04-.02.06l-.04.13s-.02.05-.03.07l-.08.12s-.02.03-.03.04l-.11.11s-.02.02-.04.03l-.14.08s-.03.02-.05.02l-.13.04Z"/>
        <path d="M66.35,43.01l-.31-.33.11-.11s.02-.02.04-.03l.14-.08s.03-.02.05-.02l.16-.05s.03,0,.04,0l.19-.02s.02,0,.03,0h.08s-.02.45-.02.45h-.06s-.16.01-.16.01l-.12.04-.09.06-.09.09Z"/>
        <path d="M55.81,48.81s0,0-.01,0l.02-.23-.03-.22.27-.04.17-.09.1-.13,2.17-4.67.03-.18h0s-.06-.21-.06-.21l-.14-.21-.26-.23-.23-.13-.3-.1-.3-.03-.24.03-.2.1-.11.14-2.07,4.46-.41-.19,2.08-4.48s.02-.03.03-.04l.15-.19s.04-.04.06-.05l.04-.02.25-.13s.05-.02.07-.02l.31-.04s.04,0,.06,0l.34.04s.02,0,.03,0l.07.02.3.1s.03.01.04.02l.26.15s.01,0,.02.01l.05.04s.01,0,.02.02l.26.24s.03.03.04.04l.17.26s.02.04.03.07l.08.33s0,.05,0,.07l-.04.24s0,.04-.02.06l-2.2,4.72s-.02.03-.03.04l-.15.19s-.05.05-.07.06l-.24.13s-.05.02-.07.02l-.3.04s-.03,0-.05,0Z"/>
        <path d="M145.53,21.38l-.06-.44.15-.02.15-.08.09-.13,2.25-4.56.02-.17-.06-.2-.14-.2-.26-.23-.22-.12-.3-.09-.29-.03-.22.03-.18.09-.1.13-1.75,3.57s0,0,0,0l-.35.71-.4-.2.34-.69s0-.01.01-.02l1.77-3.59s.01-.02.02-.03l.14-.18s.04-.05.07-.06l.04-.02.23-.12s.05-.02.07-.02l.29-.04s.04,0,.06,0l.42.05s.02,0,.03,0l.28.09s.03.01.04.02l.25.15s.03.02.04.03l.3.27s.02.02.03.04l.17.25s.02.04.03.06l.08.25s0,.02,0,.04v.05s0,.04,0,.06l-.03.23s-.01.05-.02.07l-2.27,4.61s-.01.02-.02.03l-.14.18s-.05.05-.08.07l-.23.12s-.05.02-.07.02l-.18.03Z"/>
        <path d="M134.04,24.89l-.06-.44.18-.03.15-.08.14-.22,2.19-4.48.02-.17-.06-.2-.14-.2-.26-.23-.22-.13-.3-.09-.29-.03-.22.03-.18.09-.1.13-1.74,3.57s-.01.02-.01.02l-.36.73-.4-.2.35-.72s.01-.03.02-.03l1.75-3.59s.01-.02.02-.04l.14-.19s.04-.04.07-.06l.04-.02.23-.12s.05-.02.07-.02l.29-.04s.04,0,.06,0l.42.06s.02,0,.03,0l.28.09s.03.01.04.02l.26.15s.03.02.04.03l.3.27s.02.02.03.04l.17.25s.02.04.03.06l.08.25s0,.02,0,.03v.05s0,.04,0,.06l-.03.23s-.01.05-.02.07l-2.26,4.63s-.01.02-.02.03l-.14.19s-.05.05-.08.07l-.23.12s-.05.02-.07.02l-.22.03Z"/>
        <path d="M122.45,28.43l-.06-.44.19-.03.15-.08.1-.13,2.23-4.59.02-.17-.06-.2-.14-.2-.26-.23-.22-.13-.3-.09-.29-.03-.23.03-.18.1-.1.13-2.1,4.34-.4-.2,2.11-4.36s.01-.02.02-.04l.14-.19s.04-.04.07-.06l.04-.02.24-.12s.05-.02.07-.02l.29-.04s.04,0,.06,0l.42.06s.02,0,.03,0l.28.1s.03.01.04.02l.26.15s.03.02.04.03l.3.27s.03.03.04.04l.17.25s.02.04.03.06l.07.25s0,.02,0,.03v.05s0,.04,0,.06l-.03.23s-.01.05-.02.07l-2.25,4.64s-.01.02-.02.04l-.14.19s-.05.05-.08.07l-.23.12s-.05.02-.07.02l-.23.03Z"/>
        <path d="M80.03,41.41l-.06-.44.24-.03.16-.08.1-.13,2.19-4.64.03-.17-.06-.21-.14-.21-.26-.23-.23-.13-.3-.1-.3-.03-.24.03-.19.1-.1.14-2.08,4.41-.41-.19,2.09-4.43s.02-.03.02-.04l.15-.19s.04-.04.06-.06l.04-.02.25-.13s.05-.02.07-.02l.3-.04s.04,0,.06,0l.34.04s.02,0,.02,0l.07.02s.01,0,.02,0l.28.1s.03.01.04.02l.26.15s.02.01.02.02l.05.04.27.24s.03.03.04.04l.17.26s.02.04.03.07l.07.26s0,.02,0,.03v.05s.01.05,0,.07l-.04.24s0,.04-.02.06l-2.22,4.69s-.02.03-.02.04l-.15.19s-.05.05-.08.06l-.24.12s-.05.02-.07.02l-.28.04Z"/>
        <path d="M67.96,45.09s-.02,0-.04,0l.04-.22-.03-.22.3-.05.14-.07.1-.13,2.18-4.65.03-.17-.06-.21-.14-.21-.26-.23-.23-.14-.3-.1-.3-.04-.24.03-.19.1-.11.14-2.08,4.45-.41-.19,2.09-4.47s.02-.03.03-.04l.15-.19s.04-.04.06-.06l.04-.02.25-.13s.05-.02.07-.02l.3-.04s.04,0,.06,0l.34.04s.02,0,.03,0l.07.02.31.1s.03.01.04.02l.26.15s.02,0,.02.01l.05.04.27.25s.03.03.04.04l.17.26s.02.04.03.07l.07.26s0,.02,0,.02v.05s.01.05,0,.07l-.04.24s0,.04-.02.06l-2.21,4.7s-.02.03-.03.04l-.15.19s-.05.05-.07.06l-.24.12s-.04.02-.07.02l-.31.04s-.03,0-.04,0Z"/>
        <path d="M88.22,36.15l-.13-.43,21.55-6.57s.02,0,.03,0l.25-.04s.03,0,.05,0l.26.02s.03,0,.04,0l.27.07s.02,0,.03.01l.27.12s.02.01.03.02l.24.16s.02.01.03.02l.22.21.98,1.11,2.52,2.86-.34.3-3.49-3.95-.19-.18-.21-.14-.23-.11-.24-.06h-.21s-.21.02-.21.02l-21.53,6.57Z"/>
        <path d="M92.92,41.64s0,0-.01,0l-.41-.03s-.03,0-.04,0l-.43-.11s-.02,0-.04-.01l-.42-.19s-.02-.01-.03-.02l-.38-.25s-.02-.02-.03-.02l-.31-.3-.66-.75s-.02-.02-.02-.02l-.23-.27s-.02-.02-.02-.02l-3.46-3.95s0-.01-.01-.02l-.23-.32s-.02-.03-.03-.05l-.13-.33s-.01-.05-.02-.07l-.02-.31s0-.06.01-.09l.09-.27s.03-.06.05-.08l.2-.21.33.31-.16.18-.06.18v.23s.12.27.12.27l.21.29,3.7,4.23s.01.02.02.02l.68.77.25.23.35.23.38.17.39.1.36.02.32-.05,23.45-7.21.23-.11.13-.14.06-.18-.02-.26.45-.03.02.31s0,.06-.01.09l-.09.27s-.03.06-.05.08l-.19.21s-.04.04-.07.05l-.28.14s-.02,0-.03.01l-23.48,7.22s-.02,0-.03,0l-.36.06s-.03,0-.04,0Z"/>
        <path d="M86.63,34.32l-.21-.4.88-.44s.02,0,.03-.01l23.15-7.04s.02,0,.03,0l.33-.05s.03,0,.05,0l.38.03s.02,0,.02,0c.01,0,.02,0,.03,0l.39.1s.02,0,.04.01l.38.17s.02.01.03.02l.35.23s.02.01.03.02l.29.27,4.13,4.67.22.31s.02.03.03.05l.12.31.17.59-.43.13-.17-.57-.11-.26-.21-.29-4.08-4.62-.26-.25-.32-.21-.35-.16-.35-.09-.34-.02-.29.05-23.12,7.03-.26.12-.6.31Z"/>
        <path d="M93.06,40.69s-.01,0-.02,0l-.32-.02s-.03,0-.04,0l-.33-.09.11-.43.31.08.28.02.26-.04,23.06-7.08.13.43-23.07,7.09s-.02,0-.03,0l-.3.05s-.02,0-.04,0Z"/>
        <path d="M91.61,40.17l-.25-.24s-.02-.02-.02-.02l-.07-.08.15-.17-.17.15-3.98-4.54s-.01-.02-.02-.02l-.19-.26s-.02-.03-.03-.05l-.1-.26.42-.17.09.23.16.23,3.97,4.54s.02.02.02.02l.18.18.13.12-.31.33Z"/>
        <path d="M92.3,40.56l-.04-.02-.29-.13s-.02-.01-.03-.02l-.25-.17h-.02s-.03-.04-.03-.04l.25-.38.29.19.3.14s.02,0,.02.01l-.2.4Z"/>
        <path d="M94.43,39.78c-.06,0-.13-.03-.17-.08l-.41-.47.34-.3.31.36,12.17-3.74-.49-.56.34-.3.72.82c.05.06.07.14.05.21-.02.07-.08.13-.15.15l-12.64,3.88s-.04,0-.07,0Z"/>
        <path d="M107.17,35.53l-.1-.06s-.04-.03-.05-.04l-.21-.24s-.04-.05-.04-.08l-.03-.09c-.02-.06-.01-.12.01-.17l.66-1.37s.01-.02.02-.03l.05-.07s.02-.03.04-.04l.06-.05s.03-.02.05-.03l.07-.04s.02-.01.04-.01l1.3-.4s.04,0,.05,0h.28s.06-.01.09,0l.1.04s.07.03.09.06l.35.41s.04.06.04.09l.02.1s0,.07,0,.1l-.06.28s0,.03-.02.05l-.42.87-.4-.2.41-.85.05-.21h0s-.1-.12-.1-.12l-.18-.19h-.21s-1.3.43-1.3.43l-.04.06-.59,1.22.14.16.08.05-.23.38Z"/>
        <path d="M109.91,35.19s-.01,0-.02,0h-.17s-.08-.03-.11-.05l-.16-.11s-.03-.02-.04-.04l-.2-.22.34-.3.18.2.09.06h.06s1.68-.51,1.68-.51l-.54-.61-.14-.09.25-.37.16.11s.03.02.04.04l.63.72s.03.04.04.06l.06.14c.03.08.02.17-.03.23l-.07.09s-.06.06-.11.07l-1.89.58s-.04,0-.07,0Z"/>
        <path d="M110.48,34.95l-.4-.2.55-1.13-.75.23-.13-.43,1.04-.32s.06-.01.09,0h.17c.07.02.14.06.18.13.04.06.04.14,0,.21l-.74,1.52Z"/>
        <path d="M94.34,38.78l-.13-.43,12.08-3.7c.09-.03.18,0,.24.07.06.07.07.16.03.24l-.59,1.22-.4-.2.37-.76-11.59,3.55Z"/>
        <path d="M107.4,35.57h-.13c-.08,0-.15-.05-.19-.11s-.04-.15-.01-.21l.66-1.37s.01-.02.02-.03l.05-.07s.02-.03.04-.04l.06-.05s.03-.02.05-.03l.07-.04s.02-.01.03-.01l1.3-.4s.04,0,.05,0l.28-.02c.07,0,.14.03.19.08l.12.15-.35.28-.05-.06h-.14s-1.3.42-1.3.42l-.02.03-.45.93,1.47-.45.03-.02h.01s.01,0,.01,0v.02s.28.3.28.3l-.06.05s-.06.05-.1.06l-1.87.58s-.04,0-.07,0Z"/>
        <path d="M89.77,37.92l-.13-.43,19.41-5.94s.02,0,.03,0l.19-.03s.03,0,.05,0h.18s.03,0,.04.01l.18.04s.02,0,.04.01l.18.07s.02.01.03.02l.16.1s.03.02.04.03l.13.12s.02.02.03.03l2.2,2.49-.34.3-2.19-2.48-.13-.12-.12-.08-.14-.06-.18-.03h-.1s-.16.03-.16.03l-19.4,5.93Z"/>
        <path d="M91.63,39.76l-.41-.19.4-.84s.01-.02.02-.03l.24-.34s.02-.03.04-.04l.34-.29s.03-.03.05-.03l.36-.18s.03-.01.04-.02h.03s1.28-.4,1.28-.4c.02,0,.04,0,.05,0h.06s.06,0,.09,0l.1.04s.07.03.09.06l.25.29s.04.06.05.09l.02.11s0,.06,0,.1v.06s-.02.03-.03.05l-.66,1.37-.41-.19.64-1.34-.17-.19-1.29.4-.29.14-.3.26-.24.36-.36.75Z"/>
        <path d="M91.98,40.32l-.13-.43,1.81-.56.03-.02h.01s0,.01,0,.01v.02s.28.3.28.3l-.06.06s-.05.04-.09.05l-1.86.57Z"/>
        <path d="M92,40.12l-.41-.19.38-.79s.01-.02.02-.03l.24-.34s.02-.03.04-.04l.34-.3s.03-.02.05-.03l.36-.18s.02-.01.03-.01l1.31-.4s.03,0,.05,0h.06c.07,0,.14.02.19.08l.02.03-.19.16v.18s-.02,0-.02,0l-1.29.4-.32.17-.27.24-.24.36-.34.72Z"/>
        <rect x="153.54" y="75.61" width=".45" height="4.36" transform="translate(-.3 .6) rotate(-.22)"/>
        <path d="M185.32,72.2l-.33-.3.13-.14s.05-.04.08-.06l.45-.19s.02,0,.03-.01l.68-.18.65-.12,1.23-.41.88-.38.3-.17.57-.5,2.65-3.77.37.26-2.66,3.79s-.02.03-.04.04l-.61.54s-.03.02-.04.03l-.34.19-.92.4-1.27.42s-.02,0-.03,0l-.65.12-.65.17-.4.17-.1.1Z"/>
        <path d="M212.02,38.45l-.18-.41.17-.08s.01,0,.02,0l3.19-1.02s.03,0,.04,0h.11s.05.43.05.43h-.09s-3.16,1.02-3.16,1.02l-.16.07Z"/>
        <path d="M95.48,96.68s0,0-.01,0l-1.16-.06s-.03,0-.05,0l-1.11-.3L14.34,67.35s-.02,0-.03-.01l-1.03-.54s-.03-.02-.04-.03l-.92-.76s-.02-.02-.03-.03l-.9-1.1s-.01-.02-.02-.02l-.64-1.12s-.01-.02-.02-.03l-.48-1.27s0-.02,0-.03l-.3-1.39s0-.02,0-.03l-.12-1.46-.16-10.39s0-.05.01-.07l.06-.19s.04-.08.07-.11l.12-.1s.05-.03.08-.04l3.65-1.09s.07,0,.1,0l.19.04s.02,0,.03,0l78.99,28.4s.06.03.08.05l.11.11s.04.05.06.09l.07.2s.01.05.01.07l.06,10.62.05.78.14.69.23.65.31.58-.39.23-.33-.6s-.01-.02-.01-.03l-.24-.68s0-.02,0-.03l-.15-.74s0-.02,0-.03l-.06-.94-.05-10.44-.04-.11-.03-.03L13.82,48.01l-.12-.03-.11.03-3.42,1.03-.04.03-.03.09.16,10.34.11,1.43.29,1.36.46,1.24.62,1.1.09.12.77.93.89.73,1,.52,78.78,28.95,1.07.29,1.12.06,1.34-.22,8.23-1.94,8.23-2.11,8.16-2.27,8.12-2.33,8.07-2.39,8.03-2.48,7.98-2.53,7.93-2.7,7.89-2.75,7.84-2.83,9.12-3.39,6.43-2.44,7.7-3.1,7.65-3.24,1.06-.54,1.04-.75.99-.94.92-1.12.82-1.26.71-1.38.58-1.47.42-1.5.27-1.52.1-1.49.12-10.2-.03-.1-.03-.03-57.23-18.76.14-.43,57.27,18.77s.06.03.08.05l.11.1s.05.06.06.1l.06.19s.01.05.01.07l-.12,10.25-.1,1.51s0,.02,0,.02l-.27,1.54s0,.01,0,.02l-.43,1.53-.59,1.5s0,.01,0,.02l-.72,1.4s0,.01-.01.02l-.84,1.28s0,.01-.01.02l-.94,1.14s-.01.01-.02.02l-1.01.96s-.02.01-.02.02l-1.06.76s-.02.01-.03.02l-1.09.55-7.67,3.25-7.82,3.14-9.45,3.57-6,2.22-7.85,2.83-7.89,2.75-7.94,2.7-7.99,2.53-8.03,2.48-8.08,2.39-8.12,2.33-8.17,2.27-8.22,2.1s-.02,0-.03,0l-8.42,1.98-1.2.19s-.02,0-.03,0Z"/>
        <path d="M153.76,75.56l-.14-.43,7.93-2.68,7.87-2.73,7.82-2.81,8.33-3.08,7.16-2.71,7.65-3.06,7.52-3.17.69-.35.51-.37.5-.48.47-.58.43-.66.37-.73.3-.76.22-.77.14-.77.06-.93.11-10.12h-.03s-49.09-16.15-49.09-16.15l.14-.43,49.1,16.14s.02,0,.02,0l.17.08c.08.04.13.12.13.21l-.11,10.28-.06.96s0,.02,0,.02l-.14.8s0,.01,0,.02l-.23.8-.31.8-.39.76s0,.01-.01.02l-.44.68s0,.01-.01.02l-.49.6s-.01.01-.02.02l-.52.5s-.02.01-.02.02l-.54.39s-.02.01-.03.02l-.71.36-7.54,3.18-7.66,3.07-7.72,2.92-7.9,2.91-7.71,2.77-7.87,2.73-7.93,2.69Z"/>
        <path d="M105.04,98.64l-.31-.32.15-.15s.04-.04.07-.05l.49-.2s.02,0,.03,0l.71-.19.67-.12,78.17-25.74.03-.04.14-.34.35-1.25s0-.02,0-.03l.69-1.68s0-.01,0-.02l.05-.09.4.21-.04.08-.69,1.68-.34,1.23s0,.02,0,.03l-.16.38s-.02.03-.03.05l-.09.12s-.07.06-.11.08l-78.25,25.77s-.02,0-.03,0l-.67.12-.68.18-.44.18-.12.12Z"/>
        <path d="M187.16,71.62l-.19-.41.7-.32.32-.39.51-1.33.46-1.68.43.12-.47,1.71-.53,1.39s-.02.04-.04.06l-.38.46s-.05.05-.08.06l-.75.34Z"/>
        <path d="M95.06,91.16l-.52-.28s-.03-.02-.04-.03l-.47-.39s-.02-.02-.03-.03l-.3-.37.35-.28.28.35.43.36.5.27-.21.4Z"/>
        <path d="M89.09,77.72l-.17-.08L9.98,49.17h-.08s.07-.46.07-.46l.1.02s.03,0,.04.01l78.98,28.48s.01,0,.02,0l.18.08-.19.41Z"/>
        <path d="M95.67,96.64s0,0-.01,0l-1.15-.06s-.03,0-.05,0l-1.1-.3s-.03-.01-.05-.02l-1.02-.54s-.03-.02-.04-.03l-.91-.76s-.02-.02-.03-.03l-.78-.97s-.02-.02-.02-.03l-.63-1.15s-.01-.02-.01-.03l-.46-1.31s0-.02,0-.03l-.29-1.43s0-.02,0-.03l-.1-1.5-.06-10.69v-.22c0-.09.05-.17.14-.2l.18-.08s.01,0,.02,0l3.49-1.12s.03,0,.04,0l.12-.02.06.45h-.1s-3.5,1.14-3.5,1.14v.07s.06,10.67.06,10.67l.1,1.47.28,1.4.45,1.27.61,1.11.75.93.87.73.97.51,1.05.29,1.11.06,1.16-.18.07.44-1.18.19s-.02,0-.03,0Z"/>
        <path d="M96.45,91.54s0,0-.01,0l-.59-.03s-.03,0-.05,0l-.57-.16s-.03-.01-.05-.02l-.53-.28s-.03-.02-.04-.03l-.48-.4s-.02-.02-.03-.03l-.41-.51.35-.28.4.49.45.38.48.26.52.14.54.03.75-.12,8.6-2.02,7.64-1.94,8.12-2.25,8.1-2.31,8.05-2.37,8-2.45,7.91-2.49.14.43-7.91,2.49-8.01,2.45-8.05,2.37-8.1,2.31-8.13,2.25-8.16,2.07-8.12,1.9-.79.12s-.02,0-.03,0Z"/>
        <path d="M102.29,99.27s-.03,0-.04,0l-.55-.11s-.02,0-.03,0l-6.83-2.51.15-.42,6.81,2.5.51.1h.62s.56-.12.56-.12l1.23-.4v-.02s.15-.36.15-.36l.33-1.33s0-.02,0-.02l.68-1.82s0-.02.01-.03l.49-.91.4.21-.48.89-.68,1.82-.32,1.3s0,.02,0,.02l-.14.39s0,.02-.01.03l-.06.12s-.07.09-.13.11l-1.33.44s-.02,0-.03,0l-.6.12s-.03,0-.04,0h-.66s0,0,0,0Z"/>
        <path d="M107,98.02l-.18-.41.72-.33.32-.4.49-1.32.44-1.62.43.12-.44,1.64-.51,1.37s-.02.04-.04.06l-.38.47s-.05.05-.08.06l-.77.35Z"/>
        <path d="M189.19,67.77h0c-.11,0-.21-.09-.22-.21v-.06s0,0,0,0v-.05s.25.03.25.03l.19-.02v.04s0,.07,0,.07c-.02.11-.11.19-.22.19Z"/>
        <path d="M109.01,94.24h0c-.12,0-.21-.09-.22-.2l-.07-.71h.14s0-.08,0-.08l.45.05-.08.75c-.01.11-.11.2-.22.2Z"/>
        <path d="M96.59,89.49s0,0-.01,0l-.53-.03s-.03,0-.05,0l-.51-.14-1.51-.55.15-.42,1.49.54.47.13.48.03.86-.14,7.41-1.73,8.14-2.07,8.1-2.25,8.05-2.3,8.01-2.38,7.96-2.47,7.92-2.53,7.87-2.61,7.83-2.67,7.78-2.76,7.74-2.83,7.69-2.88,7.64-3.05,6.88-2.9.61-.31.45-.32.44-.42.42-.5.38-.58.32-.63.27-.71.18-.64.12-.68.06-.83.1-9.13-.03-.11-.04-.03-2.93-.95-.13.03-115.8,36.95-.04.04-.04.11v.64s-.45,0-.45,0v-.68s0-.05,0-.07l.07-.21s.04-.07.07-.1l.13-.11s.05-.03.08-.04l115.86-36.96.2-.05s.07,0,.1,0l.18.04,2.88.95s.06.03.08.05l.12.1s.05.06.06.1l.06.2s.01.05.01.07l-.1,9.18-.06.85s0,.02,0,.02l-.12.7s0,.01,0,.02l-.2.71-.28.71s0,.01,0,.02l-.34.65s0,.01-.01.02l-.39.6s0,.01-.01.02l-.43.52s-.01.01-.02.02l-.46.44s-.02.01-.02.02l-.47.34s-.02.01-.03.02l-.64.32-6.9,2.9-7.65,3.05-7.7,2.89-8.56,3.13-6.97,2.47-7.83,2.67-7.88,2.62-7.92,2.53-7.97,2.47-8.01,2.38-8.06,2.31-8.1,2.25-8.15,2.07-7.62,1.77-.71.11s-.02,0-.03,0Z"/>
        <path d="M93.9,75.83l-.18-.41.19-.09s.01,0,.02,0l115.87-37.06s.03,0,.04,0h.11s.05.43.05.43h-.09s-115.84,37.06-115.84,37.06l-.18.08Z"/>
        <path d="M96.79,89.45s0,0-.01,0l-.51-.03s-.03,0-.05,0l-.5-.14s-.03-.01-.05-.02l-.47-.25s-.03-.02-.04-.03l-.42-.35s-.02-.02-.03-.03l-.36-.45s-.02-.02-.02-.03l-.29-.53s-.01-.02-.01-.03l-.21-.6s0-.02,0-.03l-.13-.65s0-.02,0-.03l-.06-.84-.04-9.54v-.09s-.05-.02-.05-.02l-2.82-1.01-.09-.02.07-.44.11.02s.03,0,.04.01l2.85,1.02s.01,0,.02,0l.19.09c.08.04.13.12.13.2v.23s.04,9.53.04,9.53l.05.81.12.62.2.57.27.5.33.42.39.32.42.23.45.12.47.02.67-.1.07.44-.69.11s-.02,0-.03,0Z"/>
        <path d="M167.27,37.19l-.04-.45h.13s.02-.01.02-.01h.3s0,.45,0,.45h-.29s-.12,0-.12,0Z"/>
        <path d="M92.13,60.81l-.04-.45h.13s.02-.01.02-.01h.31s0,.45,0,.45h-.29s-.12,0-.12,0Z"/>
        <polygon points="55.79 29.48 55.66 29.05 58.57 28.21 62.15 27.1 69.97 24.58 72.43 23.86 74.78 23.25 74.81 23.24 76.99 22.79 79.03 22.45 80.33 22.25 80.4 22.69 79.1 22.89 77.07 23.23 74.9 23.68 72.24 24.38 69.75 25.12 67.14 25.95 61.6 27.74 58.7 28.64 55.79 29.48"/>
        <path d="M6.59,43.25l-1.44-.21-1.36-.29s-.01,0-.02,0l-1.06-.34s-.02,0-.03-.01l-.75-.39s-.03-.02-.05-.03l-.47-.42s-.04-.04-.05-.06l-.24-.44s-.03-.07-.03-.1v-.46s0-.07.01-.1l.21-.47s.02-.04.04-.06l.43-.48s.02-.02.03-.03l.64-.48s.02-.01.02-.02l.84-.48,1.05-.49,1.24-.48,1.42-.46,1.59-.44,1.75-.42,1.75-.37,1.72-.35,1.68-.32,1.63-.29,1.57-.27,2.95-.47,6.81-1,2.07-.27,2.34-.26,2.64-.26,2.97-.26,3.33-.26,2.29-.18,2.73-.28,3.17-.52,3.12-.67,3.06-.78,3-.86,3.61-1.13,7.79-2.5,2.15-.64,2.33-.61,2.18-.45.71-.12.07.44-.7.12-2.16.45-2.31.61-2.46.73-2.6.83-5.55,1.8-2.92.91-3.01.86-3.08.79-3.14.67-3.19.52-3.21.34-5.17.39-2.96.26-2.63.26-2.33.26-2.06.27-6.81,1-2.94.47-1.57.27-1.62.29-1.67.32-1.71.34-1.74.37-1.74.41-1.57.44-1.4.45-1.21.47-1.02.47-.81.47-.61.46-.39.44-.18.39v.35s.2.36.2.36l.42.38.7.37,1.03.33,1.33.29,1.43.2-.06.44Z"/>
        <path d="M10.6,44.73l-2.08-.08-2.08-.19-1.73-.25-1.49-.32s-.01,0-.02,0l-1.18-.38s-.02,0-.03-.01l-.85-.44s-.03-.02-.05-.03l-.52-.47s-.04-.04-.05-.06l-.48-.92s-.02-.06-.02-.1v-.52s0-.06,0-.08l.17-.44.24-.53s.02-.04.04-.06l.46-.52s.02-.02.03-.03l.68-.52s.02-.01.02-.02l.89-.51,1.11-.51,1.29-.5,1.78-.57,1.61-.45,1.78-.42,1.77-.38,1.73-.35,1.69-.32,1.64-.3,1.59-.27,2.98-.48,6.87-1.01,2.08-.27,2.34-.26,2.63-.26,2.96-.26,3.32-.26,1.81-.13,3.13-.33,3.11-.51,3.08-.66,3.04-.77,2.98-.85,3.59-1.12,7.81-2.51,2.15-.64.13.43-2.48.74-2.6.83-5.54,1.8-2.91.9-3.23.92-2.81.72-3.1.66-3.37.54-2.91.3-5.13.39-2.96.25-2.63.26-2.33.26-2.08.27-6.86,1.01-2.97.48-1.59.27-1.64.3-1.69.32-1.73.35-1.76.38-1.76.42-1.89.53-1.45.47-1.27.49-1.08.5-.86.5-.65.5-.43.48-.22.48-.15.39v.42s.2.38.2.38l.24.45.47.43.8.42,1.16.38,1.46.32,1.89.27,1.87.16,2.06.08h2.21s2.33-.11,2.33-.11l2.41-.21,2.63-.35,2.52-.45,1.32-.31.1.44-1.33.31-2.72.48-2.66.34-2.34.2-2.24.1h-2.23Z"/>
        <path d="M1.32,41.34v-.42s0-.07.01-.1l.21-.46s.02-.04.04-.06l.42-.47s.02-.02.03-.03l.63-.48s.02-.01.02-.02l.83-.48,1.04-.48,1.23-.47,1.4-.46,1.57-.44,1.74-.41,1.74-.37,1.71-.35,1.67-.32,1.62-.29,1.57-.27,2.94-.47,6.8-1,2.06-.27,2.33-.26,2.63-.26,2.96-.26,5.17-.39,3.21-.34,3.19-.52,1.01-.22.09.44-1.02.22-3.21.53-3.23.34-3.56.26-3.14.26-2.79.25-2.47.26-2.18.26-1.93.27-5.86.87-2.94.47-1.56.27-1.62.29-1.67.32-1.71.34-1.73.37-1.73.41-1.56.43-1.38.45-1.2.46-1.01.47-.8.46-.6.45-.38.43-.17.38v.37s-.44,0-.44,0Z"/>
        <polygon points="7.12 38.28 7 37.85 8.39 37.47 10.16 37.04 11.94 36.66 13.68 36.31 15.38 35.99 17.03 35.69 18.62 35.42 21.62 34.94 28.53 33.92 30.59 33.65 32.92 33.39 35.53 33.14 38.47 32.88 43.9 32.46 46.7 32.17 47.81 31.99 47.89 32.43 46.76 32.61 43.61 32.94 38.5 33.33 35.57 33.59 32.96 33.84 30.65 34.1 28.59 34.36 21.68 35.38 18.7 35.86 17.11 36.13 15.46 36.43 13.76 36.75 12.03 37.1 10.26 37.48 8.5 37.9 7.12 38.28"/>
        <path d="M1.74,41.07l-.41-.19.04-.09s.02-.04.04-.06l.43-.48s.02-.02.03-.03l.64-.48s.02-.01.02-.02l.84-.48,1.05-.49,1.24-.48,1.41-.46,1.58-.44,1.75-.42,1.75-.38,1.72-.35,1.68-.32,1.63-.29,1.58-.27,2.96-.47,6.84-1.01,2.06-.27,2.32-.26,2.62-.25,2.95-.25,5.14-.39,3.19-.33,1.13-.19.07.44-1.14.19-3.21.34-5.15.39-2.95.25-2.61.25-2.32.26-2.05.27-6.84,1.01-2.95.47-1.57.27-1.63.29-1.68.32-1.72.35-1.74.37-1.74.41-1.64.46-1.32.43-1.21.47-1.02.47-.81.47-.61.46-.39.44-.03.06Z"/>
        <path d="M10.57,43.5l-2.08-.08-1.88-.16s-.02,0-.03,0l-1.67-.24-1.43-.31s-.01,0-.02,0l-1.12-.36s-.02,0-.03-.01l-.8-.42s-.03-.02-.05-.03l-.5-.45s-.04-.04-.05-.06l-.25-.47s-.03-.07-.03-.1v-.48s0-.07.01-.1l.22-.49s.02-.04.04-.06l.45-.5s.02-.02.03-.03l.66-.5s.02-.01.02-.02l.87-.5,1.08-.5,1.27-.49,1.44-.47.14.43-1.43.46-1.24.48-1.05.49-.84.48-.63.48-.41.46-.19.42v.38s.21.39.21.39l.45.4.76.39,1.09.35,1.4.3,1.65.24,1.88.16,2.06.08h2.22s2.33-.11,2.33-.11l2.41-.21,2.46-.32.06.45-2.66.34-2.35.2-2.24.1h-2.23Z"/>
        <path d="M10.53,43.84l-2.15-.08-1.96-.17-1.75-.25-1.5-.32s-.01,0-.02,0l-1.19-.39s-.02,0-.03-.01l-.85-.44s-.03-.02-.05-.03l-.53-.48s-.04-.04-.05-.06l-.26-.49s-.03-.07-.03-.1v-.51s.44,0,.44,0v.45s.22.41.22.41l.48.43.81.42,1.16.38,1.47.32,1.72.24,1.94.17,2.13.08h2.28s2.39-.11,2.39-.11l2.47-.21,2.51-.33,2.52-.45,2.44-.56.1.44-2.45.57-2.54.45-2.78.35-2.4.2-2.29.1h-2.24Z"/>
        <path d="M10.52,44.35l-2.17-.09-1.99-.17-1.77-.25-1.52-.33s-.01,0-.02,0l-1.21-.39s-.02,0-.03-.01l-.87-.45s-.03-.02-.05-.03l-.54-.49s-.04-.04-.05-.06l-.27-.5.4-.21.25.47.49.44.83.43,1.18.38,1.49.32,1.74.25,1.96.17,2.15.08h2.3s2.41-.12,2.41-.12l2.49-.22,2.53-.33,2.54-.45,1.68-.39.1.44-1.69.39-2.56.45-2.55.33-2.7.23-2.31.1h-2.25Z"/>
        <polygon points="10.55 44.72 8.41 44.63 6.45 44.46 6.49 44.02 8.43 44.19 10.56 44.27 12.83 44.26 15.21 44.15 17.68 43.94 20.19 43.61 20.24 44.06 17.48 44.41 15.08 44.61 12.79 44.71 10.55 44.72"/>
        <polygon points="20.03 42.86 19.95 42.42 22.23 42.01 24.62 41.46 25.69 41.17 25.81 41.6 24.73 41.89 22.32 42.45 20.03 42.86"/>
        <polygon points="20.07 42.85 19.99 42.41 22.46 41.97 24.9 41.41 25.65 41.2 25.77 41.64 24.74 41.91 22.55 42.41 20.07 42.85"/>
        <polygon points="41.42 34.34 41.12 34.01 42.68 32.61 42.98 32.94 41.42 34.34"/>
        <polygon points="41.88 34.21 41.58 33.88 43.01 32.58 43.31 32.92 41.88 34.21"/>
        <polygon points="42.92 33.9 42.62 33.56 43.79 32.52 44.08 32.85 44.01 32.91 42.92 33.9"/>
        <polygon points="43.94 33.59 43.64 33.26 43.89 33.03 44.59 32.43 44.88 32.77 43.94 33.59"/>
        <polygon points="44.6 31.56 44.31 31.22 44.45 31.1 45.41 30.34 46.51 29.5 47.76 28.59 49.1 27.68 50.47 26.84 51.85 26.08 53.24 25.38 54.64 24.75 56.04 24.19 57.44 23.69 58.84 23.25 60.23 22.88 61.61 22.57 63.19 22.28 64.5 22.09 65.78 21.96 67.03 21.88 68.25 21.85 69.44 21.88 70.58 21.96 71.88 22.12 72.97 22.3 74.02 22.53 74.99 22.81 75.76 23.08 75.61 23.5 74.86 23.23 73.91 22.96 72.89 22.74 71.62 22.53 70.54 22.4 69.42 22.33 68.25 22.3 67.05 22.33 65.82 22.4 64.55 22.53 63.07 22.76 61.7 23.01 60.34 23.32 58.96 23.68 57.58 24.11 56.2 24.61 54.81 25.16 53.43 25.78 52.06 26.47 50.7 27.23 49.35 28.06 48.02 28.96 46.78 29.86 45.69 30.69 44.6 31.56"/>
        <polygon points="44.37 33.47 44.07 33.13 44.45 32.8 44.94 32.39 45.22 32.74 44.37 33.47"/>
        <polygon points="44.93 31.53 44.65 31.18 44.88 30.99 45.84 30.22 46.93 29.39 48.18 28.49 49.52 27.58 50.87 26.75 52.24 25.98 53.62 25.29 55 24.67 56.39 24.11 57.77 23.62 59.14 23.19 60.51 22.83 61.86 22.52 63.19 22.28 63.27 22.72 61.95 22.96 60.61 23.26 59.27 23.63 57.91 24.05 56.55 24.53 55.18 25.08 53.81 25.7 52.45 26.38 51.1 27.13 49.76 27.96 48.44 28.85 47.2 29.75 46.12 30.58 44.93 31.53"/>
        <polygon points="45.76 31.44 45.48 31.09 46.26 30.47 47.35 29.64 48.59 28.73 49.92 27.83 51.27 27 52.63 26.25 53.99 25.56 55.36 24.95 56.73 24.4 58.09 23.91 59.44 23.49 60.78 23.13 62.09 22.84 63.39 22.6 64.65 22.41 65.89 22.29 67.08 22.21 68.24 22.19 69.37 22.21 70.45 22.29 71.49 22.41 72.49 22.57 73.44 22.78 74.34 23.04 74.93 23.25 74.78 23.67 74.21 23.47 73.33 23.22 72.4 23.01 71.43 22.85 70.41 22.73 69.35 22.66 68.24 22.64 67.1 22.66 65.92 22.73 64.71 22.86 63.46 23.04 62.18 23.28 60.88 23.57 59.57 23.92 58.23 24.34 56.89 24.82 55.54 25.36 54.19 25.97 52.84 26.64 51.5 27.39 50.17 28.21 48.85 29.1 47.62 30 46.54 30.82 45.76 31.44"/>
        <polygon points="46.62 31.35 46.34 31 46.43 30.93 47.52 30.1 48.76 29.2 50.09 28.3 51.43 27.47 52.78 26.71 54.14 26.03 55.51 25.42 56.87 24.87 58.22 24.39 59.56 23.97 60.89 23.61 62.19 23.32 63.47 23.08 64.72 22.9 65.93 22.78 67.11 22.7 68.24 22.68 69.34 22.7 70.4 22.78 71.42 22.89 72.4 23.06 73.33 23.26 74.05 23.47 73.93 23.9 73.22 23.7 72.31 23.5 71.36 23.34 70.36 23.22 69.32 23.15 68.24 23.13 67.12 23.15 65.97 23.22 64.77 23.35 63.54 23.53 62.28 23.76 60.99 24.05 59.69 24.4 58.36 24.81 57.03 25.29 55.68 25.83 54.34 26.44 52.99 27.11 51.66 27.86 50.33 28.67 49.02 29.56 47.79 30.46 46.62 31.35"/>
        <polygon points="47.03 31.3 46.76 30.94 47.34 30.5 48.58 29.6 49.91 28.7 51.26 27.87 52.61 27.11 53.98 26.42 55.35 25.81 56.72 25.26 58.08 24.77 59.43 24.35 60.77 23.99 62.09 23.69 63.38 23.45 63.46 23.89 62.18 24.13 60.88 24.43 59.56 24.78 58.22 25.2 56.88 25.68 55.53 26.22 54.17 26.83 52.83 27.51 51.48 28.26 50.15 29.08 48.84 29.97 47.61 30.86 47.03 31.3"/>
        <polygon points="73.32 24.07 72.42 23.87 71.45 23.71 70.42 23.59 69.36 23.52 68.25 23.49 67.11 23.51 65.92 23.59 64.71 23.71 63.46 23.9 63.39 23.45 64.65 23.27 65.89 23.14 67.09 23.07 68.25 23.04 69.38 23.07 70.46 23.14 71.7 23.29 72.51 23.43 73.41 23.63 73.32 24.07"/>
        <polygon points="63.29 23.93 63.22 23.48 64.49 23.3 65.78 23.17 67.04 23.09 68.27 23.06 69.45 23.09 70.6 23.17 71.69 23.29 71.64 23.74 70.56 23.61 69.43 23.54 68.27 23.51 67.06 23.54 65.82 23.61 64.55 23.74 63.29 23.93"/>
        <polygon points="75.48 23.52 75.38 23.47 74.53 23.17 73.61 22.91 72.64 22.7 71.62 22.53 71.69 22.08 72.73 22.26 73.72 22.48 74.66 22.75 75.66 23.11 75.48 23.52"/>
        <polygon points="56.03 48.68 55.62 48.5 55.62 48.49 56.03 48.68"/>
        <polygon points="68.17 44.96 67.76 44.78 67.76 44.77 68.17 44.96"/>
        <rect x="70.08" y="67.73" width=".32" height=".45" transform="translate(-17.14 24.18) rotate(-17.44)"/>
        <rect x="66.77" y="66.54" width=".32" height=".45" transform="translate(-16.92 23.09) rotate(-17.42)"/>
        <rect x="73.41" y="68.93" width=".33" height=".45" transform="translate(-17.37 25.28) rotate(-17.47)"/>
        <rect x="87.41" y="34.85" width=".11" height=".45" transform="translate(25.92 106.43) rotate(-71.08)"/>
        <rect x="76.74" y="70.13" width=".33" height=".45" transform="translate(-17.57 26.33) rotate(-17.47)"/>
        <rect x="80.08" y="71.33" width=".33" height=".45" transform="translate(-17.87 27.6) rotate(-17.59)"/>
        <rect x="98.42" y="60.66" width=".45" height=".3" transform="translate(26.87 151.79) rotate(-83.38)"/>
        <rect x="102.95" y="61.49" width=".45" height=".24" transform="translate(17.93 146.32) rotate(-75.66)"/>
        <rect x="50.36" y="60.65" width=".27" height=".45" transform="translate(-15.75 17.67) rotate(-17.21)"/>
        <rect x="53.6" y="61.81" width=".3" height=".45" transform="translate(-15.97 18.72) rotate(-17.24)"/>
        <rect x="56.88" y="62.99" width=".31" height=".45" transform="translate(-16.21 19.81) rotate(-17.29)"/>
        <rect x="60.16" y="64.17" width=".31" height=".45" transform="translate(-16.45 20.9) rotate(-17.34)"/>
        <rect x="63.46" y="65.35" width=".31" height=".45" transform="translate(-16.69 22.01) rotate(-17.39)"/>
        <rect x="83.43" y="72.53" width=".34" height=".45" transform="translate(-18.08 28.67) rotate(-17.59)"/>
        <rect x="86.79" y="73.74" width=".34" height=".45" transform="translate(-18.35 29.89) rotate(-17.67)"/>
        <rect x="90.16" y="74.94" width=".44" height=".45" transform="translate(-18.55 30.99) rotate(-17.67)"/>
        <rect x="173.41" y="37.04" width=".45" height=".3" transform="translate(117.2 205.55) rotate(-83.56)"/>
        <rect x="177.88" y="37.83" width=".45" height=".24" transform="translate(99.01 201.98) rotate(-76.28)"/>
      </g>
    </g>
  </g>
</svg>