<?xml version="1.0" encoding="UTF-8"?>
<svg id="Layer_2" data-name="Layer 2" xmlns="http://www.w3.org/2000/svg" viewBox="0 0 190.45 196.42">
  <g id="Layer_1-2" data-name="Layer 1">
    <g id="ViewLayer_LineSet" data-name="ViewLayer LineSet">
      <g id="strokes">
        <path d="M123.78,196.42c-.08,0-.16-.02-.24-.07L10.32,126.03c-.13-.08-.21-.22-.21-.38v-1.12s.89,0,.89,0v.87s112.33,69.77,112.33,69.77l.06-17.07h.9s-.06,17.87-.06,17.87c0,.16-.09.31-.23.39-.07.04-.14.06-.22.06Z"/>
        <rect x="108.3" y="67.01" width=".9" height="4.3" transform="translate(-6.88 126.08) rotate(-58.66)"/>
        <rect x="104.8" y="97.41" width="38.63" height=".9" transform="translate(25.78 221.6) rotate(-89.78)"/>
        <path d="M179.07,184.99l-.67-.61,4.7-5.16,3.46-6.43,2.17-7.6.81-8.59-.58-9.37-1.96-9.91-3.31-10.2-4.57-10.23-5.71-9.99-6.72-9.51-7.55-8.78-8.19-7.83-8.69-6.72-.85-.51.47-.77.94.57s.03.02.04.03l8.66,6.71s.02.02.04.03l8.22,7.86s.02.02.03.03l7.58,8.81s.02.02.03.03l6.74,9.54s.02.02.02.04l5.74,10.03s.01.03.02.04l4.59,10.27s.01.03.02.04l3.32,10.24s0,.03.01.05l1.98,9.96s0,.04,0,.06l.58,9.43s0,.05,0,.07l-.82,8.67s0,.05-.02.08l-2.19,7.69s-.02.06-.04.09l-3.51,6.52s-.04.06-.06.09l-4.74,5.2Z"/>
        <rect x="140.8" y="72.45" width=".9" height=".95" transform="translate(5.58 155.77) rotate(-58.72)"/>
        <path d="M142.11,73.18h-.9s.04-6.62.04-6.62l-.54-.24c-.12-.05-.21-.15-.25-.28-.04-.12-.02-.26.05-.37l2.02-3.32L17.29,7.71l.36-.83,125.71,54.85c.12.05.21.15.25.28.04.12.02.26-.05.37l-2.02,3.32.34.15c.16.07.27.24.27.41l-.04,6.91Z"/>
        <path d="M10.37,124.94l-8.82-3.94c-.16-.07-.26-.23-.27-.41L0,4.58c0-.15.07-.3.2-.38.13-.08.29-.1.43-.04l7.11,3.11-.36.82L.91,5.27l1.27,115.03,8.55,3.82-.37.82Z"/>
        <path d="M3.52,2.59l-.58-.69,1.58-1.33c.13-.11.31-.14.47-.07l.35.15-.26.59v.02s-.02.03-.02.03l-.08.19-.09-.04-1.37,1.15Z"/>
        <path d="M142.11,73.18h-.9s.04-6.92.04-6.92c0-.13.06-.25.15-.34l3.77-3.28L12.23,4.64l.36-.83,133.6,58.28c.14.06.24.19.26.34.02.15-.03.31-.15.41l-4.16,3.62-.04,6.71Z"/>
        <path d="M1.28,120.59L0,4.58c0-.13.06-.26.16-.35l.84-.71.58.69-.68.57,1.28,115.8h-.9Z"/>
        <path d="M141.7,66.71c-.06,0-.12-.01-.18-.04l-.81-.35.36-.83.55.24,3.56-3.1L12.23,4.64l.36-.83,133.6,58.28c.14.06.24.19.27.34.02.15-.03.31-.15.41l-4.31,3.75c-.08.07-.19.11-.3.11Z"/>
        <path d="M3.52,2.59l-.58-.69,1.58-1.33c.13-.11.31-.14.47-.07l.35.15-.26.59v.02s-.02.03-.02.03l-.08.19-.09-.04-1.37,1.15Z"/>
        <path d="M7.38,8.1L.27,4.99c-.14-.06-.24-.19-.27-.35-.02-.15.04-.31.16-.41l.84-.71.58.69-.28.24,6.45,2.81-.36.82Z"/>
        <path d="M123.78,196.42c-.08,0-.16-.02-.24-.07L3.95,122.07l.47-.76,119.35,74.14,4.35-2.78-4.31-2.68.47-.76,4.92,3.05c.13.08.21.22.21.38,0,.15-.08.3-.21.38l-5.19,3.32c-.07.05-.16.07-.24.07Z"/>
        <polygon points="98.07 63.2 95.5 61.64 95.97 60.87 98.53 62.43 98.07 63.2"/>
        <polygon points="77.55 50.73 74.98 49.17 75.45 48.4 78.02 49.96 77.55 50.73"/>
        <rect x="64.22" y="40.88" width=".9" height="3" transform="translate(-5.14 75.61) rotate(-58.69)"/>
        <polygon points="57.04 38.27 54.47 36.71 54.94 35.94 57.5 37.5 57.04 38.27"/>
        <path d="M124.19,78.99c-.08,0-.16-.02-.23-.07L17.01,13.95s-.02-.01-.03-.01L.68,4.03c-.13-.08-.22-.23-.22-.38s.08-.3.22-.39L5.95.07c.14-.09.32-.09.47,0l123.27,74.8c.13.08.22.23.22.38s-.08.3-.21.38l-5.26,3.29c-.07.05-.16.07-.24.07ZM17.44,13.16s.02.01.03.01l106.72,64.84h.01s4.39-2.76,4.39-2.76L6.18.98,1.78,3.65l15.65,9.51Z"/>
        <path d="M124.02,196.27c-.08,0-.17-.02-.24-.07l-.24-.15.15-.24h-.12s0-.22,0-.22l.06-17.31h.9s-.06,17.53-.06,17.53c0,.16-.09.31-.23.39-.07.04-.14.05-.22.05Z"/>
        <path d="M178.76,185.19l-.67-.61,4.61-5.06,3.46-6.43,2.17-7.6.81-8.59-.58-9.37-1.96-9.91-3.31-10.2-4.57-10.23-5.71-9.99-6.72-9.51-7.55-8.78-8.19-7.83-8.62-6.68-.52-.32.47-.77.54.33s.03.02.04.03l8.66,6.71s.02.02.04.03l8.22,7.86s.02.02.03.03l7.58,8.81s.02.02.03.03l6.74,9.54s.02.02.02.04l5.74,10.03s.01.03.02.04l4.59,10.27s.01.03.02.04l3.32,10.25s0,.03.01.05l1.98,9.96s0,.04,0,.06l.58,9.43s0,.05,0,.07l-.82,8.67s0,.05-.02.08l-2.19,7.69s-.02.06-.04.09l-3.51,6.52s-.04.06-.06.09l-4.65,5.1Z"/>
        <path d="M141.42,74.1l-8.31-5.05-8.81-3.92-8.57-2.38-8.11-.79-.65.07-.1-.89.7-.08s.06,0,.09,0l8.19.8s.05,0,.08.01l8.64,2.4s.04.01.06.02l8.87,3.94s.03.02.05.03l8.33,5.06-.47.77Z"/>
        <path d="M158.12,192.04s-.03,0-.05,0l-8.18-.95s-.05,0-.07-.02l-8.58-2.51s-.04-.01-.06-.02l-8.76-4s-.03-.02-.05-.03l-8.52-5.27.47-.77,8.5,5.25,8.71,3.98,8.51,2.49,8.09.94,7.48-.63,6.69-2.18,5.78-3.71.39-.29.54.72-.4.3s-.02.01-.03.02l-5.84,3.75s-.07.04-.1.05l-6.8,2.22s-.07.02-.1.02l-7.58.64s-.02,0-.04,0Z"/>
        <rect x="178.31" y="184.49" width=".13" height=".9" transform="translate(-78.46 192.37) rotate(-47.69)"/>
        <path d="M179.07,184.99l-.67-.61,4.7-5.16,3.46-6.43,2.17-7.6.81-8.59-.58-9.37-1.96-9.91-3.31-10.2-4.57-10.23-5.71-9.99-6.72-9.51-7.55-8.78-8.19-7.83-8.69-6.72-.85-.51.47-.77.94.57s.03.02.04.03l8.66,6.71s.02.02.04.03l8.22,7.86s.02.02.03.03l7.58,8.81s.02.02.03.03l6.74,9.54s.02.02.02.04l5.74,10.03s.01.03.02.04l4.59,10.27s.01.03.02.04l3.32,10.24s0,.03.01.05l1.98,9.96s0,.04,0,.06l.58,9.43s0,.05,0,.07l-.82,8.67s0,.05-.02.08l-2.19,7.69s-.02.06-.04.09l-3.51,6.52s-.04.06-.06.09l-4.74,5.2Z"/>
        <g>
          <polygon points="140.88 65.91 140.86 68.91 140.85 71.91 140.85 72.68 135.72 69.57 133.73 68.35 125.5 64.7 124.86 64.42 121.97 63.61 119.07 62.81 116.22 62.02 114 61.8 111.01 61.51 108.03 61.22 106.58 61.38 98.88 56.7 96.32 55.15 93.75 53.59 86.06 48.92 83.49 47.37 75.8 42.69 73.23 41.14 70.67 39.58 62.97 34.91 60.41 33.36 57.84 31.8 55.28 30.24 52.71 28.68 50.15 27.13 47.58 25.57 45.16 24.1 47.91 25.3 50.66 26.5 53.41 27.7 56.16 28.9 58.91 30.11 61.66 31.31 64.41 32.51 67.16 33.71 69.91 34.91 72.65 36.11 75.41 37.31 78.15 38.51 80.91 39.71 83.65 40.92 86.4 42.12 89.15 43.32 91.9 44.52 94.65 45.72 97.4 46.92 100.15 48.12 102.9 49.32 105.65 50.52 108.4 51.72 111.15 52.92 113.9 54.12 116.65 55.32 119.4 56.52 122.15 57.73 124.9 58.93 127.65 60.13 130.4 61.33 133.15 62.53 135.9 63.73 138.65 64.93 140.88 65.91"/>
          <path d="M140.85,73.13c-.08,0-.16-.02-.23-.07l-7.1-4.31-8.81-3.91-8.57-2.38-8.11-.79-1.4.15c-.1.01-.2-.01-.28-.06L44.92,24.49c-.2-.12-.28-.38-.17-.59.11-.21.36-.3.58-.21l95.73,41.8c.16.07.27.24.27.42l-.04,6.77c0,.16-.09.31-.23.39-.07.04-.14.06-.22.06ZM108.03,60.77s.03,0,.04,0l8.2.8s.05,0,.08.01l8.64,2.4s.04.01.06.02l8.87,3.94s.03.02.05.03l6.44,3.91.03-5.68L51.15,27.21l55.53,33.7,1.29-.14s.03,0,.05,0Z"/>
        </g>
        <rect x="111.67" y="57.5" width=".9" height="8.23" transform="translate(39.89 167.21) rotate(-84.42)"/>
        <rect x="140.8" y="72.45" width=".9" height=".95" transform="translate(5.58 155.77) rotate(-58.72)"/>
        <rect x="10.07" y="118.88" width=".9" height="5.64" transform="translate(-1.22 .11) rotate(-.58)"/>
        <rect x="9.49" y="8.79" width=".9" height="110.09" transform="translate(-.64 .1) rotate(-.57)"/>
        <rect x="5.69" y="117.73" width=".9" height="9.65" transform="translate(-108.27 78.2) rotate(-65.94)"/>
        <rect x="123.99" y="116.79" width=".13" height=".9" transform="translate(6.53 241.03) rotate(-89.87)"/>
        <rect x="119.61" y="121.28" width="8.85" height=".9" transform="translate(1.9 245.37) rotate(-89.81)"/>
        <rect x="123.82" y="125.91" width=".41" height=".9" transform="translate(-2.82 249.89) rotate(-89.78)"/>
        <rect x="102.51" y="147.56" width="42.88" height=".9" transform="translate(-24.46 271.47) rotate(-89.81)"/>
        <rect x="119.53" y="173.32" width="8.65" height=".9" transform="translate(-50.32 297.07) rotate(-89.81)"/>
        <rect x="111.07" y="55.44" width=".9" height="30.21" transform="translate(-6.67 129.23) rotate(-58.72)"/>
        <polygon points="98.38 63.08 16.99 13.64 17.44 12.86 17.45 12.86 98.85 62.32 98.38 63.08"/>
        <rect x="119.73" y="173.47" width="8.73" height=".9" transform="translate(-50.31 297.34) rotate(-89.78)"/>
        <rect x="102.97" y="147.88" width="42.44" height=".9" transform="translate(-24.55 272.04) rotate(-89.81)"/>
        <path d="M143.17,130.39l-.36-1.79-.02-.05-.59-1.79v-.02s-.83-1.82-.83-1.82v-.03s-.82-1.4-.82-1.4l-.21-.37-1.21-1.71-1.36-1.58-1.47-1.41-1.55-1.21-1.59-.97-1.59-.72-1.56-.44-1.48-.16-1.37.13-1.22.42-.95.63-.09.06-.62.71v3.05s-.02,3-.02,3v3s-.01.87-.01.87v.32s.59,1.32.59,1.32l1.03,1.79,1.21,1.71,1.35,1.58,1.47,1.41,1.55,1.21,1.59.98,1.59.72,1.55.45,1.48.16,1.37-.13,1.22-.41.24-.16.81-.53.02-.02.83-.93h0s.61-1.17.61-1.17h0s.38-1.4.38-1.4l.14-1.57-.11-1.7ZM140.53,131.19l-.06.65-.28,1.03-.46.87-.6.67-.02.03-.77.51-.9.31-1.01.09-1.09-.12-1.14-.33-1.17-.53-1.17-.72-1.14-.89-1.08-1.04-1-1.16-.89-1.26-.76-1.32-.61-1.35-.44-1.35-.27-1.31-.09-1.25.1-1.15.28-1.03.45-.87.62-.7.14-.09.63-.42.9-.31,1.01-.1,1.09.11,1.15.33,1.17.53,1.17.72,1.14.89,1.08,1.04,1,1.16.89,1.26.76,1.32.61,1.35.44,1.35.26,1.32.05.68.04.57-.05.5Z"/>
        <g>
          <polygon points="140.53 130.11 140.53 131.19 140.47 131.83 140.19 132.86 139.73 133.73 139.13 134.4 138.5 134.82 137.6 135.13 136.59 135.22 135.51 135.1 134.37 134.77 133.2 134.25 132.02 133.53 130.89 132.64 129.81 131.6 128.81 130.44 127.92 129.19 127.17 127.87 126.56 126.52 126.12 125.17 125.85 123.85 125.77 122.6 125.86 121.45 126.14 120.43 126.6 119.55 127.19 118.87 127.82 118.46 128.72 118.15 129.73 118.05 130.81 118.16 131.96 118.49 133.13 119.02 134.3 119.74 135.44 120.62 136.53 121.66 137.52 122.83 138.41 124.08 139.17 125.41 139.78 126.76 140.22 128.11 140.49 129.43 140.53 130.11"/>
          <path d="M136.59,135.67s-.03,0-.05,0l-1.09-.12s-.05,0-.08-.01l-1.14-.33s-.04-.01-.06-.02l-1.17-.53s-.03-.02-.05-.03l-1.17-.72s-.03-.02-.04-.03l-1.14-.89s-.02-.02-.03-.03l-1.08-1.04s-.02-.02-.03-.03l-1-1.16s-.02-.02-.03-.03l-.89-1.26s-.02-.02-.02-.04l-.76-1.32s-.01-.03-.02-.04l-.61-1.35s-.01-.03-.02-.04l-.44-1.35s0-.03-.01-.05l-.27-1.31s0-.04,0-.06l-.08-1.25s0-.05,0-.07l.1-1.15s0-.06.01-.08l.28-1.03s.02-.06.03-.09l.45-.87s.04-.06.06-.09l.6-.68s.06-.06.09-.08l.63-.42s.07-.04.1-.05l.9-.31s.07-.02.1-.02l1.01-.1s.06,0,.09,0l1.09.11s.05,0,.08.01l1.15.33s.04.01.06.02l1.17.53s.03.02.05.03l1.17.72s.03.02.04.03l1.14.89s.02.02.03.03l1.08,1.04s.02.02.03.03l1,1.16s.02.02.03.03l.89,1.26s.02.02.02.04l.76,1.32s.01.03.02.04l.61,1.35s.01.03.02.04l.44,1.35s.01.03.01.05l.26,1.32s0,.04,0,.06l.05.68s0,.02,0,.03v1.08s0,.02,0,.04l-.06.65s0,.05-.01.08l-.28,1.03s-.02.06-.04.09l-.46.87s-.04.06-.06.09l-.6.67s-.05.05-.09.08l-.63.42s-.07.04-.1.05l-.9.31s-.07.02-.1.02l-1.01.09s-.03,0-.04,0ZM135.6,134.66l1,.11.91-.08.79-.27.54-.36.52-.58.41-.78.26-.94.05-.59v-1.04s-.04-.63-.04-.63l-.25-1.26-.43-1.31-.59-1.31-.74-1.29-.86-1.22-.97-1.13-1.05-1.01-1.1-.86-1.13-.69-1.11-.5-1.08-.31-1-.11-.91.09-.79.27-.53.35-.52.59-.41.78-.26.94-.09,1.08.08,1.18.26,1.26.43,1.3.59,1.31.73,1.28.86,1.22.97,1.13,1.05,1.01,1.1.86,1.12.69,1.11.5,1.07.31Z"/>
        </g>
        <rect x="105.12" y="97.18" width="38.49" height=".9" transform="translate(26.29 221.65) rotate(-89.79)"/>
        <rect x="139.06" y="68.97" width="13.81" height=".9" transform="translate(75.69 214.97) rotate(-89.66)"/>
      </g>
    </g>
  </g>
</svg>