<?xml version="1.0" encoding="UTF-8"?>
<svg id="Layer_2" data-name="Layer 2" xmlns="http://www.w3.org/2000/svg" viewBox="0 0 177.82 145.68">
  <defs>
    <style>
      .cls-1 {
        fill-rule: evenodd;
      }
    </style>
  </defs>
  <g id="Layer_1-2" data-name="Layer 1">
    <g>
      <path class="cls-1" d="M177.58,53.49c.42-1.27.18-3.87.18-5.63,0-.74-.24-1.79-.06-2.09,0-.18-.02-.36-.03-.54-.14-.2-.28-.4-.42-.6,0-.06-.02-.12-.03-.18.02-.3.38-1.68.21-2.21-.07-.22-.27-.51-.21-.8.07-.33.33-.52.45-.77v-2.26c-.15-.2-.3-.4-.45-.6-.08-.33.15-.6.21-.8.07-.24-.16-.56-.18-.77-.06-.88-.45-1.66-.72-2.35v-.69c-.16-.34-.32-.75-.45-1.1-.09-.25-.02-.61-.09-.77v-.6c-.16-.33-.41-.64-.54-.98-.03-.23-.06-.46-.09-.69-.07-.15-.23-.24-.33-.36-.23-.28-.12-.68-.27-.95-.17-.32-.38-.55-.54-.83-.1-.18.01-.39-.09-.6-.42-.85-.67-1.84-1.07-2.74-.09-.21-.34-.31-.45-.48-.12-.19-.07-.39-.18-.6-.1-.19-.35-.31-.45-.48-.25-.43-.45-.89-.72-1.37-.21-.39-.73-.73-.95-1.1-.34-.58-.61-1.23-1.04-1.73-.22-.17-.44-.34-.66-.51-.05-.09-.05-.26-.15-.39-.27-.35-.97-.69-1.16-1.01-.29-.49-.55-1.04-.98-1.37-.2-.12-.4-.24-.6-.36-.81-1.05-1.64-1.95-2.8-2.65-.16-.21-.32-.42-.48-.63-1.06-.69-1.98-1.54-3.04-2.2-.55-.34-1.11-.45-1.64-.8-1.12-.75-2.43-1.39-3.67-2.03-.37-.09-.74-.18-1.1-.27-.14-.12-.28-.24-.42-.36-.26-.06-.52-.12-.77-.18-.21-.15-.42-.3-.63-.45-.26-.11-.44-.05-.66-.18-.13-.08-.24-.28-.39-.36-.25-.06-.5-.12-.74-.18-.11-.11-.22-.22-.33-.33-.36-.09-.72-.18-1.07-.27-.2-.15-.4-.3-.6-.45h-.42c-.34-.11-.55-.41-.83-.54-.25-.06-.5-.12-.74-.18-.15-.07-.26-.28-.39-.36-.23-.06-.46-.12-.69-.18-.16-.08-.26-.27-.39-.36-.25-.16-.49-.07-.8-.18-.75-.27-1.92-.9-2.98-.6-.2-.12-.33-.37-.54-.45h-7.21c-.22.08-.29.37-.51.45-.37-.03-.73-.06-1.1-.09-.13-.12-.26-.24-.39-.36-.29-.07-.44.36-.63.45-.77.34-2.13.21-2.47-.36h-.27c-.22.18-.26.28-.72.27-.14-.12-.28-.24-.42-.36h-1.94c-.13.12-.26.24-.39.36h-.48c-.29.09-1.01.1-1.31.27-.8.45-1.65,1.02-2.44,1.49-.25.06-.5.12-.74.18-.27.12-.44.44-.74.54h-.51c-.37.13-.83.33-1.19.45-.44.14-.87.04-1.37.18-.44.12-.91.35-1.37.51h-.57c-.3.11-.66.14-.98.27-.19.08-1.52.42-1.7.36-.68-.25-1.41-.36-2.09-.63-.21-.15-.42-.3-.63-.45-.27-.08-.54-.16-.8-.24-.14-.12-.28-.24-.42-.36-.28-.06-.56-.12-.83-.18-.25-.1-.49-.34-.74-.45-.31-.13-.63.01-.92-.09-.29-.1-.53-.34-.77-.45-.42-.06-.83-.12-1.25-.18-.25-.1-.51-.33-.77-.45-.6-.26-1.29,0-1.82-.36-.26.05-.33.17-.66.18-.18-.14-.36-.28-.54-.42-.46.02-.91.04-1.37.06-.39-.1-1.03.06-1.49-.06-.22-.06-.35-.29-.51-.36-.28-.11-.45.17-.54.27-.3-.07-.35-.34-.6-.45h-8.37c-.22.08-.28.37-.51.45-.76.25-.94-.61-1.43-.45-.27.09-.32.44-.6.54-.56.19-1.46-.14-1.91,0-.58.18-1.21.4-1.79.6h-.66c-2.2.83-4.54,1.55-6.82,2.32-.31.11-.48.39-.77.51-.24.03-.48.06-.72.09-.17.07-.32.28-.48.36-.27.14-.56.05-.86.18-.22.09-.5.28-.72.36h-.69c-1.57,0-2.61-.52-3.69-.98-.3-.13-.62,0-.89-.09l-.54-.36c-.39-.05-.77-.1-1.16-.15-.28-.15-.56-.3-.83-.45-.24-.09-.44,0-.72-.09-.27-.09-.42-.32-.63-.45-.32-.12-.64-.24-.95-.36-.4-.24-.95-.61-1.37-.8h-.48c-.35-.12-.75-.32-1.1-.42-.24-.07-.41.25-.69.15-.19-.14-.38-.28-.57-.42-.52-.16-1.96.26-2.62.06-.55-.17-.93-.06-1.55-.06h-2.15c-.1-.02-.25-.16-.45-.09-.33.11-.73.15-1.22.15-1.13,0-3.02.11-3.43-.42-.36.01-.32.15-.63.18-.67-.53-1.78-.37-2.95-.36-.58.64-1.52.26-2.44.69-.28.13-.62.33-.95.45h-.48c-.29.15-.56.42-.89.54-.27.1-.49-.03-.72.09-.54.29-1.23.71-1.79.98-.29.06-.58.12-.86.18-.23.12-.4.37-.69.45-.3.05-.6.1-.89.15-.2.13-.35.35-.63.45-.28.1-.52,0-.74.09-.22.09-.42.35-.66.45-.31.13-.55.03-.8.18-.1.12-.2.24-.3.36-.18.12-.37.08-.57.18-.11.12-.22.24-.33.36-.99.58-2.04,1.1-3.01,1.67-.26.15-.55.13-.83.27-.19.15-.38.3-.57.45-.17.03-.34.06-.51.09-.11.05-.21.21-.3.27-.23.15-.5.12-.74.27-.13.14-.26.28-.39.42-.23.1-.46.2-.69.3-.1.11-.2.22-.3.33-.23.09-.46.18-.69.27-1.76,1.32-3.73,2.62-4.86,4.47-.1.16-.37.23-.54.33-.33.32-.66.64-.98.95-.64,1-1.4,1.69-2.03,2.71-.09.15-.34.17-.45.3-.34.41-.52.94-.8,1.4-.31.52-.81.86-1.16,1.37.09.09-.03.12-.06.18-.13.29-.27.63-.45.92-.12.1-.24.2-.36.3-.06.22-.12.44-.18.66-.15.15-.3.3-.45.45-.19.4-.35.68-.54,1.01-.06.23-.12.46-.18.69l-.45.42c.1.13-.41.83-.51,1.01-.5.99-.81,2.28-1.25,3.28v.95c-.15.36-.4.66-.54,1.01-.13.32.04.65-.09,1.01-.11.3-.27.54-.45.86.22.24-.13.87-.18.98l.12,2.09c-.09.28-.22.89-.36,1.22v1.79c0,1.59-.26,3.82.18,5.1.12.35-.38.77-.18,1.22.28.63,0,1.52,0,2.5,0,2.2-.14,4.79.36,6.47.12.42-.07.84.06,1.07.11.21.3.36.39.54-.07.12.57,2.07.69,2.23.12.1.24.2.36.3.13.22.12.47.27.69.09.07.18.14.27.21.44.75.64,1.46,1.13,2.09.26.34.26.88.54,1.4.24.45.59.92.8,1.37.06.29.12.58.18.86.11.21.35.43.45.66.06.31.12.62.18.92.62,1.09.75,2.2,1.58,3.19.12.15.44.23.54.39.52.85,1.16,1.49,2,2,.22.24.44.48.66.72.17.06.34.12.51.18.33.23.45.72.74.98.31.29.67.49.95.8.06.11.12.22.18.33.18.1.36.2.54.3.35.56.84.99,1.16,1.52.48.78.86,1.61,1.58,2.18.18.14.39.15.6.27.3.18.58.58.89.77.32.12.64.24.95.36.42.25.93.69,1.37.89.62.29,1.16.45,1.73.8.1.12.2.24.3.36.22.17.54.22.77.36.32.18.61.55.89.77.42.33.84.52,1.31.8.16.09.24.35.39.45.2.14.48.08.72.18.2.08.44.28.63.36h1.01c.72.27,1.64.37,2.32.6.29.03.58.06.86.09.22.15.44.3.66.45.64.28,1.23.45,1.82.8.13.08.24.28.39.36.26.06.52.12.77.18.22.12.41.35.66.45.17,0,.34-.02.51-.03,1.02.14,2.35.12,3.55.12.26,0,1.12-.12,1.19-.09.3.13.6.05.95.18.2.11.4.22.6.33.4.03.79.06,1.19.09.23.09.46.18.69.27.13.02.34-.19.57-.09.28.12.68.59,1.31.36,1.3-.48,3.07-.59,4.35-1.13.17-.07.28.07.39.09h3.4c.71-.29,1.42-.38,2.12-.72.21-.15.42-.3.63-.45.3-.06.6-.12.89-.18.15-.08.31-.29.48-.36.77-.33,1.77,0,2.47-.27.2-.08.46.11.54.09.2-.06.44-.27.63-.36.31-.06.62-.12.92-.18.27-.11.7-.41.95-.6.45-.34,2.21-2.11,3.07-1.79.36.14.94.43,1.16.72.03.09.06.18.09.27.12.11.35.14.45.27.12.16.07.37.18.54.22.34.4.65.63,1.04.15.13.3.26.45.39.23.38.27.71.51,1.01.21.19.42.38.63.57.35.53.64.96.98,1.49.21.16.42.32.63.48.11.19.11.4.24.57.23.29.68.43.89.74.1.14.08.27.18.42.36.52,1.79,1.18,1.07,2.18-.2.27-.64.6-1.16.54-.11-.03-.22-.06-.33-.09-.17.06-.68.23-.95.09-.22-.11-1.41-.47-1.91-.24-.13.06-.41.18-.54.24h-.92c-.17.12-.34.24-.51.36-.28.09-.56.18-.83.27-.8.48-1.51,1.44-2.06,2.2-.14.2-.43.32-.54.57-.1.23.02.48-.09.74-.13.31-.66,1.21-.54,1.55.22.61.93,2.26,1.55,2.59.61.33,1.37.5,2,.77.02,0,1.51-.09,1.79-.09.84,0,1.79-.02,2.38.18.24.08.5-.09.8-.09.37,0,.52.1.74.18h.98c.3.15.82.49.92.83.32,1.03-1.68,2.18-2.06,2.77-.31.48-.67.9-.86,1.34-.33.74-.41,1.42-.8,2.09-.15.13-.3.26-.45.39-.1.12-.08.29-.18.42-.16.22-.57.23-.72.48-.96,1.59-3.41,3.04-2.12,5.87.1.21.06.41.18.6.16.24.75,1.03.98,1.16.2.06.4.12.6.18.16.1.25.33.45.42.42.18.75-.1,1.13,0,.36.1,1.55.17,1.94,0,.35-.17.7-.34,1.04-.51.74-.26,1.25-.26,1.85-.63l.33-.36c.79-.45,1.31-1.02,1.82-1.76.17-.25.61-.32.8-.57-.05-.04.37-.6.45-.69.22-.22.51-.35.77-.54.18-.2.36-.4.54-.6.77-.6,1.78-.05,2.09.57.29.58-.13.93-.27,1.28.03.31.06.62.09.92-.18.35-.27.6-.27,1.22v1.13c.26.49.43,1.08.63,1.64.13.36-.07.96.09,1.28.1.2.29.46.36.66.3.81-.57.99-.27,1.76.14.37-.18.78-.27.98v1.82c.17.36,1.02,3.48.95,3.67.11.19.34.55.21.95-.08.26-.34.43-.45.66.03.35.06.7.09,1.04-.1.26-.39,1.89-.18,2.35.45.99.63,2.06,1.04,2.92.03.2.06.4.09.6.16.42.38.83.54,1.19.1.24.04.48.18.69.06.09.73.85.8.89.1.06.21.02.27.12.21.33.5.78.86.92h2c.2-.08.21-.3.36-.42.14-.06.28-.12.42-.18.42-.46.83-.91,1.25-1.37.23-.4.46-.8.63-1.22.09-.23-.02-.4.09-.6.12-.21.34-.42.45-.63.21-.4.08-.93.27-1.31.12-.24.28-.41.36-.66,0-.23-.02-.46-.03-.69.12-.39.29-.53.27-1.13,0-.04.02-.08.03-.12-.08-.17-.23-.37-.3-.6-.14-.47.25-.99.12-1.25-.08-.16-.34-.52-.3-.74.02-.12.17-.19.12-.33-.03-.09-.19-.17-.12-.39.04-.13.17-.3.21-.42,0-.38-.02-.75-.03-1.13.15-.45.41-.99.63-1.49v-.83c0-.65.03-1.23.18-1.67.1-.29-.12-.53-.18-.69v-1.1c-.08-.21-.4-.67-.27-1.01.06-.15.21-.41.27-.57v-1.25c.1-.31.32-.58.45-.86v-.39c.18-.47.26-1.25.45-1.73.07-.17-.14-.41-.18-.51v-.95c-.07-.14-.54-2.15-.54-2.15.16-.38.53-.79.77-1.1,1.95-.01,2.09,1.43,3.19,2.23.13.1.27.08.42.18.37.25.65.82.98,1.13.11.06.22.12.33.18.18.2.27.48.51.63.36.22.82.29,1.19.54.17.11.27.36.48.45.3.03.6.06.89.09.23.1.43.33.69.42.53.18,2.72.09,3.13-.09.14-.06.24-.25.36-.33.61-.39.81-.2,1.22-.86.17-.28.48-.55.63-.83.06-.23.12-.46.18-.69.12-.18.36-.36.45-.57.1-.23-.02-1.5-.09-1.61-.08-.12-.28-.22-.36-.36-.13-.22-.12-.49-.27-.69-.12-.16-.35-.2-.45-.39-.1-.2-.11-.4-.24-.57-.67-.87-1.93-1.52-2.5-2.44-.09-.31-.18-.62-.27-.92-.11-.11-.22-.22-.33-.33-.16-.3-.05-.66-.18-.92-.07-.15-.26-.23-.36-.39-.16-.27-.19-.53-.36-.77-.14-.2-.38-.31-.6-.45l-.03-.03c-.23-.2-.36-.52-.54-.77-.28-.21-.56-.42-.83-.63-.02,0-.04-.02-.06-.03-.04-.08-.23-.45-.18-.66.2-.82,1.32-1.01,2.18-1.31.16-.06.21.07.27.09.3.1.63-.11.8-.18h1.01c.23-.08.7.05.8,0,.3-.14.59-.66,1.22-.45.21.07.47.28.69.36.31.11,2.1-.41,2.32-.54.65-.36.96-1.09,1.34-1.73.11-.1.22-.2.33-.3.28-.43.2-1.14.03-1.55v-.74c-.09-.22-.33-.37-.45-.57-.12-.2-.07-.39-.18-.6-.17-.34-.49-.73-.72-1.07-.43-.67-2.48-1.54-3.37-1.88h-.74c-.23-.08-2.56-.21-2.89-.09-.13.05-.64.2-.89.09-.55-.23-.82-.54-1.13-1.01.08-.66.62-.65.89-1.07.16-.24.2-.43.36-.69.33-.31.66-.62.98-.92.29-.37.5-.75.77-1.19.24-.19.48-.38.72-.57.38-.61.68-1.09,1.07-1.67.24-.35.66-.52.86-.89.07-.2.14-.4.21-.6.17-.15.34-.3.51-.45.33-.37.45-.88.72-1.31.16-.25,1.68-1.09,2.38-.83,1.29.48,2.1,1.31,3.22,1.97.17.1.36.34.57.42h.45c.33.12.68.32.95.45h.92c.06.02.27.16.33.18.51.18,1.13-.08,1.58.09.2.08.37.27.54.36.38.09.75.18,1.13.27.61.34,1.41.7,2.06.98.27.12.89-.04,1.04-.09.34-.12.88.06,1.1.09h.8c.24-.12.75-.72,1.28-.45.24.12.46.35.74.45h1.1c.88.43,2.43.99,3.58.6.38-.13.75.04,1.07-.09.32-.13.71-.37,1.04-.51.3-.03.6-.06.89-.09.33-.12.65-.32.92-.45h.09c.26-.04.52.04.66.09.44-.03.87-.06,1.31-.09h.09c.17.08.39.29.57.36.22.09,2.82-.36,3.01-.45,1.22-.56,2.42-1.15,3.72-1.7.26-.17.52-.34.77-.51.36-.03.72-.06,1.07-.09.42-.16.95-.31,1.34-.45.4-.13.76-.02,1.1-.18.08-.09.16-.18.24-.27.28-.18.63-.12.95-.27.23-.11.43-.3.69-.45.23-.13.32-.49.54-.63.24-.11.48-.22.72-.33.23-.17.34-.57.57-.72.2-.07.4-.14.6-.21.1-.11.2-.22.3-.33.27-.09.54-.18.8-.27.15-.12.3-.24.45-.36.76-.35,1.48-.46,2.23-.8.11-.11.22-.22.33-.33.22-.06.44-.12.66-.18.1-.12.2-.24.3-.36.2-.07.4-.14.6-.21.21-.14.27-.47.48-.6,1.14-.72,2.07-2.5,2.89-3.61.12-.07.24-.14.36-.21.43-.41.94-.91,1.22-1.37.25-.42.94-.74,1.34-1.01.56-.39,1.25-1.1,1.58-1.64.08-.13.22-.13.36-.21.08-.05.66-.8.72-.89.34-.56.43-1.21.8-1.76.11-.17.36-.27.45-.48.12-.28-.03-.53.06-.72.23-.49.47-1.17.8-1.82.19-.37.09-.83.27-1.22.1-.22.36-.4.45-.6.3-.66.44-1.27.8-1.88.12-.1.24-.2.36-.3.14-.22.13-.46.27-.69.12-.19.4-.37.54-.57,0-.02-.02-.04-.03-.06.12-.35.33-.88.54-1.22.18-.17.36-.34.54-.51.69-1.44,1.1-3.41,1.67-4.65.2-.45-.23-.64-.09-1.07ZM175.61,48.96v3.99c.07.18.31.59.18.92-.07.17-.2.48-.27.66v.69c-.18.38-.37.8-.54,1.16-.12.26-.03.51-.18.72-.48.65-.5,1.1-.95,1.82-.1.16-.35.29-.45.48-.14.28-.11.53-.27.77-.08.13-.28.24-.36.39-.11.2-.06.41-.18.6-.15.13-.3.26-.45.39-.26.45-.38,1.1-.63,1.4-.13.16-.41.34-.51.57-.09.21,0,.4-.09.66-.13.36-.38.72-.54,1.07-.13.29.02.61-.09.86-.1.23-.35.4-.45.66-.14.35.07.75-.09,1.04-.1.18-.35.29-.45.45-.12.19-.08.39-.18.6-.27.55-.62.92-.86,1.37-.11.2-.1.44-.18.57-.18.1-.36.2-.54.3-.33.25-.65.68-1.01.89-.17.06-.34.12-.51.18-.06.04-.94.75-.95.77-.15.24-.33.66-.57.8-.19.11-.36.13-.51.27-.22.21-.28.5-.45.77-.18.16-.36.32-.54.48-.16.2-.14.42-.24.57-.16.14-.32.28-.48.42-.28.4-.42.77-.69,1.19-.08.13-.22.12-.36.21-.43.3-.71.93-1.16,1.22-.55.36-1.08.5-1.7.8-.21.1-.35.36-.6.45h-.45c-.29.13-.56.32-.8.45-.26.06-.52.12-.77.18-.2.15-.4.3-.6.45-.22.06-.44.12-.66.18-.09.14-.18.28-.27.42-.4.29-.82.5-1.22.8-.29.3-.58.6-.86.89-.19.06-.38.12-.57.18-.1.12-.2.24-.3.36-.37.22-.83.1-1.28.27-.31.11-.68.3-1.01.42-.46.16-.92-.07-1.34.09-.24.09-.46.34-.69.45-.2.09-.45-.02-.69.09-.26.12-.49.33-.72.45-.25.06-.5.12-.74.18-.57.25-1.17.82-1.76,1.07-.22.1-.45-.02-.69.09-.19.09-.4.3-.6.36-.19.06-.33-.06-.42-.09h-2.41c-.25,0-1.79-.09-1.79-.09-.23.11-.46.22-.69.33h-.98c-.35.16-.59.48-.95.63-.64.26-.8-.28-1.31.36-.6,0-.74-.19-1.16-.36h-.89c-.36-.18-.72-.36-1.07-.54-.43-.15-1.02-.04-1.4-.18-.21.03-.42.06-.63.09-.45-.03-.89-.06-1.34-.09-.14.07-.39.21-.54.27h-.09s-1.77-.08-1.79-.09c-.43-.16-.85-.41-1.25-.6-.29-.13-.53-.03-.77-.18-.13-.08-.24-.28-.39-.36-.37-.19-.83-.02-1.25-.18-.27-.1-.51-.34-.8-.45h-.83c-.33-.13-.73.18-1.16,0-.25-.1-.57-.14-.86-.27-1.41-.61-2.36-1.82-3.72-2.47-.23-.11-.54.02-.83-.09-.34-.13-1.47-.31-1.91-.09-1.81.89-2.76,2.57-3.69,4.11-.15.11-.3.22-.45.33-.41.7-.84,1.24-1.25,1.91-.35.33-.7.66-1.04.98-.17.19-.22.46-.36.69-.26.43-.81.7-1.07,1.1-.13.2-.13.4-.27.6-.19.27-.58.38-.69.69-.08.24-.34.32-.48.51-.35.46-.97,1.49-.69,2.26.09.25-.03.47.09.66.2.31.8.93,1.16,1.07h.66c.22.09.48.28.69.36h2.18c.6-.03,1.19-.06,1.79-.09.17.06.45.21.63.27h.89c1.16.54,2,1.24,2.44,2.35v.57c0,.91-.14.97-.6,1.37-.17.15-.3.36-.54.45,0,0-2.31-.05-2.41-.09-.06-.02-.16-.16-.33-.09-.4.16-1.05.09-1.46.27h-.74c-.21.08-.39.27-.57.36h-.72c-.12.02-.46.14-.57.18h-1.01c-1.03.5-2.2.79-2.65,1.88-.27.65.2,1.19.36,1.43.14.22.13.46.27.69.13.22.49.28.63.48.09.12.06.27.15.39.31.41.83.63,1.16,1.01.27.27.54.54.8.8.2.31.19.67.36,1.01.08.17.28.39.36.6.08.2-.02.35.09.51.11.09.22.18.33.27.09.28.18.56.27.83.26.37.62.64.89,1.01.07.1.02.19.09.27.13.14.43.21.54.36.16.21.18.45.36.63.47.47,1.33.73,1.52,1.46.02.06-.09,1.34-.09,1.64-.41.29-.83.75-1.34.92h-.74c-1.3,0-1.69-.16-2.5-.54-.2-.03-.4-.06-.6-.09-.27-.12-.43-.38-.66-.51-.16-.06-.32-.12-.48-.18-.4-.4-.79-.79-1.19-1.19-.2-.32-.35-.71-.63-.95-.24-.21-.61-.35-.77-.63-.1-.17-.13-.3-.27-.42-.32-.27-.52-.22-.86-.6-.77-.85-3.09-2-4.14-.63-.08.24-.16.48-.24.72-.18.23-.36.46-.54.69v.83c-.26.66-.11,1.42.09,2.09v.92c.15.33.68.89.45,1.52-.35.96-.74,2.42-1.16,3.4-.16.36.12,3.58.18,3.72.11.26.35.55.45.83.13.37-.35.87-.45,1.1-.15.34-.04,1.1-.18,1.46-.12.29-.33.56-.45.83v1.04c-.07.15-.21.41-.27.57-.18.46.18.92.27,1.16.14.38-.2.77-.09,1.04.05.12.23.31.27.42-.03.43-.06.85-.09,1.28.13.28-.04,1.24-.18,1.61-.13.36-.39.61-.54.92-.13.27.02.57-.09.89-.09.27-.33.43-.45.63-.1.16-.02.41-.15.66-.05.09-.83.86-.98.92-.37.15-1.14-.04-1.28-.18-.21-.21-.6-.71-.72-1.04-.1-.3.04-.54-.09-.8-.16-.32-.4-.66-.54-1.01-.17-.45-.07-.84-.27-1.22-.16-.3-.57-1-.36-1.58.22-.61-.23-1.38,0-1.97.31-.79.27-2.64,0-3.43v-.72c-.15-.33-.41-.64-.54-.98v-.77c-.08-.23-.21-.62-.27-.83v-.03c-.06-.3.2-.6.27-.8v-1.22c.02-.06.15-.3.18-.36v-.89c0-1.81-.43-2.96-.8-4.08-.11-.32-.06-1.35.06-1.58.02-.02.04-.04.06-.06.03-.45-.27-.74-.12-1.22.06-.2.2-.52.3-.69-.23-.19.11-1.73-.03-2.06-.32-.74-.38-1.2-.86-1.82-.35-.44-.76-.57-1.58-.57h-.48c-.26.11-.41.42-.66.54-.17.03-.34.06-.51.09-.16.07-.26.27-.39.36-.27.18-.6.18-.86.36-.53.35-.83,1.02-1.34,1.4-.18.13-.39.18-.51.36-.19.29-.27.72-.57.89-.15.09-.29.08-.42.18-.21.27-.42.54-.63.8-.12.13-1.13.65-1.31.72-.88.3-2.96,1.19-4.08.6-.11-.12-.22-.24-.33-.36-.23-.16-.58-.23-.69-.51-.11-.28,0-1.72.09-1.88.1-.18.38-.2.54-.33.45-.37.81-.96,1.13-1.46.11-.18.47-.32.63-.48.57-.57.88-1.39,1.25-2,.13-.21.39-.34.51-.57.28-.54.28-1.26.63-1.76.25-.36.57-.66.95-.89.19-.21.38-.42.57-.63.75-.75,1.47-1.42,1.94-2.47.37-.84-.65-1.95-.98-2.15-.21-.12-.41-.08-.66-.18-.23-.15-.46-.3-.69-.45h-.98c-.52-.19-1.15-.32-1.64-.54-.22-.09-.66-.03-.8-.09h-3.93c-.1.04-.46.18-.69.09-.33-.12-.47-.47-.74-.63-.33-.19-.52-.31-.66-.69-.16-.45.48-1.58.63-1.85.64-1.17,1.6-1.41,2.89-1.94.31-.13,1.74.01,1.94.09h2.95c.22-.1.51-.27.74-.36.25-.1.47.02.66-.09.13-.15.26-.3.39-.45.1-.07.2-.03.27-.12.28-.38.64-1.37.33-1.94-.06-.11-.72-.98-.72-1.01.02-.22-1.7-2.53-2.09-2.8-.23-.16-.28-.45-.45-.69-.13-.18-.4-.23-.54-.39-.1-.12-.18-.47-.27-.6-.24-.21-.48-.42-.72-.63-.26-.32-.36-.76-.63-1.07-.21-.16-.42-.32-.63-.48-.19-.31-.28-.73-.42-.98-.15-.27-.46-.42-.63-.66-.58-.85-.83-1.93-1.61-2.56-.33-.27-.92-.63-1.4-.45-.6.22-1.5-.19-2,.09-.3.17-.63.34-.95.54-.11.15-.22.3-.33.45-.29.18-.59.28-.83.51-.16.21-.32.42-.48.63-.46.27-.96.3-1.46.54-.15.07-.3.24-.57.21-.58-.06-1.02-.04-1.58-.03h-.69c-.28.11-.54.35-.8.45-.29.11-.54-.04-.8.09-.59.29-1.32.74-1.91,1.04-.32.17-.71-.05-1.07.09l-.54.36c-.28.11-.83-.04-.98-.09h-2.12c-.12-.03-.24-.06-.36-.09-.21.07-.42.29-.63.36h-.89c-.08.03-.4.15-.48.18h-.66c-.26.11-.55.35-.83.45h-.06l-1.94-.09c-.29-.13-.64-.33-.95-.45h-1.04c-.25-.11-.59-.26-.83-.36-.36.03-.72.06-1.07.09-.15-.06-.27-.29-.45-.36-.24-.09-.5.07-.63.09-.41.07-.95-.19-1.22-.09-.25.09-1.89.25-2.32.09-.34-.12-.56-.35-.83-.51-.26-.15-.55-.13-.83-.27-.46-.23-1-.66-1.46-.89-.26-.06-.52-.12-.77-.18-.27-.14-.53-.42-.83-.54-.48-.03-.95-.06-1.43-.09-.21-.14-.42-.28-.63-.42-.12-.03-.32.12-.39.15-.02,0-1.6-.22-1.73-.27-.14-.11-.28-.22-.42-.33-.26-.16-.53-.19-.77-.36-.16-.18-.32-.36-.48-.54-.31-.19-.55-.33-.86-.54-.13-.15-.26-.3-.39-.45-.9-.54-1.78-1.03-2.62-1.58-.51-.33-1.28-.56-1.88-.8-.51-.21-1.08-.74-1.52-1.07-.2-.09-.4-.18-.6-.27-.65-.61-1.04-1.54-1.49-2.26-.13-.11-.26-.22-.39-.33-.17-.3-.63-1.07-.95-1.28-.3-.2-.71-.44-.89-.74-.08-.13-.06-.27-.15-.39-.3-.4-.77-.52-1.16-.83-.29-.23-.51-.66-.8-.86-.38-.26-.74-.37-1.13-.63-.25-.33-.5-.66-.74-.98-.18-.13-.48-.18-.6-.36-.07-.2-.14-.4-.21-.6-.08-.13-.26-.24-.33-.39-.03-.2-.06-.4-.09-.6-.14-.29-.41-.54-.54-.83-.09-.22.02-.45-.09-.69-.13-.28-.33-.63-.45-.89-.08-.18,0-.45-.06-.57-.1-.19-.3-.29-.45-.48-.25-.32-.16-.97-.45-1.4-.26-.4-.58-.92-.8-1.34-.13-.24-.04-.5-.18-.72-.09-.06-.18-.12-.27-.18-.17-.23-.12-.52-.27-.77-.25-.44-.65-.87-.95-1.25-.18-.23-.11-.52-.27-.86-.26-.58-.6-1.33-.89-1.88-.15-.28-.17-.75-.27-1.01v-.57c-.09-.18-.28-.42-.36-.63-.15-.41.25-.73.09-1.07-.24-.53-.34-1.22-.09-1.82.17-.41-.11-.83,0-1.16.23-.68-.44-1.13-.18-1.85.02-.06.15-.3.18-.36v-1.22c.08-.21.28-.46.36-.66v-.89c-.09-.18-.28-.42-.36-.63-.11-.3,0-.79-.09-1.01v-.83c-.4-.82-.3-2.34.09-3.25v-.98c.07-.2.28-.44.36-.63-.06-.75-.12-1.51-.18-2.26.05-.12.22-.34.27-.48.15-.38,0-.98.18-1.37.36-.8.86-1.92,1.07-2.71,0-.19-.02-.38-.03-.57.15-.57.35-.99.54-1.49.06-.27.12-.54.18-.8.07-.16.29-.27.36-.42.13-.29.11-.58.27-.83.21-.35.57-.74.77-1.1l.21-.77c.11-.18.34-.29.45-.45.13-.2.07-.4.15-.57.12-.24.33-.47.48-.69-.06-.05.09-.48.15-.57.18-.17.36-.34.54-.51.48-.84,1.04-1.48,1.61-2.21.16-.21.15-.44.27-.6.2-.26.51-.48.72-.74.09-.2.18-.4.27-.6.35-.38.95-.53,1.22-.98.39-.64,1.11-.98,1.49-1.58.12-.2.13-.4.27-.6.19-.27.71-.48.95-.72.37-.42.74-.83,1.1-1.25,1.73-1.13,3.44-2.31,5.24-3.37.29-.17.57-.13.92-.27.2-.15.4-.3.6-.45.24-.06.48-.12.72-.18.44-.23.88-.69,1.28-.95.22-.14.46-.13.69-.27.83-.5,1.78-1.13,2.71-1.52.24-.05.48-.1.72-.15.27-.11.55-.33.86-.45.31-.11.56-.05.83-.18,1.45-.69,2.99-1.44,4.5-2.06.3-.12.65-.01.98-.15.21-.08.4-.26.57-.36.32-.19.77-.01,1.13-.18.28-.13.59-.33.86-.45.34-.14.7.05,1.07-.09.07-.02.29-.16.36-.18.67-.23,1.02.48,1.61.27.4-.14.52.14.83.27.23-.03.46-.06.69-.09.1.05.26.22.39.27h8.79c.09-.04.41-.24.57-.18.15.06.41.21.57.27h1.46c.27.11.61.34.92.45.34.12.61,0,.86.18.83.56,1.79,1.15,2.74,1.58.27.12.54-.02.77.09.16.07.32.28.48.36.36.18.77.03,1.19.18.41.15.79.39,1.19.51h.77c.33.09.55.32.8.45.22.11.4,0,.66.09.32.12.65.33.95.45h.8c1.63,0,2.28-.43,3.37-.86.27-.06.54-.12.8-.18.61-.3,1.41-.72,2.03-.98.36-.15.74-.03,1.07-.18.23-.1.45-.35.72-.45.32-.11.63.02.89-.09.24-.15.48-.3.72-.45.32-.03.64-.06.95-.09.47-.17.95-.42,1.43-.6.38-.14.71.07,1.04-.09.17-.08.34-.29.54-.36.4-.14,1.04.09,1.49-.09.14-.05.36-.21.48-.27.33-.15.61.15.86,0,.09-.05.19-.22.3-.27.38-.15.78.09,1.13.09,1.01,0,1.7-.03,2.38-.27.56-.19,1.08.61,1.73-.18.47,0,1.02.42,1.55.18.13-.06.58-.2.74-.18h.06c.22.07.45.27.66.36.36.16.86-.3,1.31-.09.15.07.44.29.74.18.07-.02.29-.17.48-.09.24.11.59.27.83.36.22.08.41-.2.72-.09.12.09.24.18.36.27.25.1.68-.05.8-.09h.03c.22-.05.59.12.74.18h1.13c.2.1.51.27.74.36.35.12.68-.03.98.09.35.14.78.35,1.1.51.39.06.77.12,1.16.18.36.13.69.4,1.07.54h.69c.27.1.49.33.72.45.39.2.79.15,1.13.36.13.08.24.28.39.36.17.03.34.06.51.09.2.11.39.33.63.42.28.06.56.12.83.18.13.05.29.22.42.27h.03l2.03.09c.26-.15.52-.3.77-.45.31-.09,1.08-.15,1.4-.15h.66c.27-.11.56-.33.83-.45.43-.19.98.08,1.37-.09.33-.14.72-.41,1.07-.54.34-.12.7.06.98-.09.23-.12.45-.35.72-.45.21-.03.42-.06.63-.09.44-.22.93-.69,1.34-.95.19-.06.38-.12.57-.18.35-.18.7-.49,1.07-.63h.54c.24-.11.48-.33.74-.45.33-.14.91.07,1.13.09.6-.03,1.19-.06,1.79-.09.16.07.36.3.51.36h2.62c.17-.07.34-.29.51-.36.27-.11.72.02.89.09h3.04c.75-.27,2.02-.18,3.04-.18,2.9,0,4.81.63,6.67,1.67.28.09.56.18.83.27.11.12.22.24.33.36.17.09.34,0,.57.09.32.13.63.33.92.45.23.06.46.12.69.18.19.15.38.3.57.45.26.06.52.12.77.18.12.07.26.29.39.36.27.08.54.16.8.24.48.27,1.23.79,1.76.98h.54c.3.11.53.33.77.45.32.09.64.18.95.27.51.28,1.04.72,1.55.98.19.06.38.12.57.18.16.14.32.28.48.42.62.28,1.15.46,1.73.8.11.12.22.24.33.36.44.27.86.43,1.28.72.13.15.26.3.39.45.17.06.34.12.51.18.24.26.48.52.72.77.23.12.46.24.69.36.23.23.19.55.48.72.33.19.65.24.86.54.15.2.25.54.45.69.16.06.32.12.48.18.22.13.36.58.51.8.23.2.46.4.69.6.34.44.68.86.98,1.34.3.49,1.28,1.05,1.52,1.46.52.88,1.12,1.85,1.76,2.8.12.1.24.2.36.3.71,1.2,1.17,2.41,1.76,3.61.03.2.06.4.09.6.13.27.34.58.45.83.06.26.12.52.18.77.11.2.34.35.45.54.06.27.12.54.18.8.11.24.35.41.45.63.12.25.06.84.15,1.01.09.17.23.37.3.6,0,.22-.02.44-.03.66.05.13.17.34.21.48,0,.16-.02.32-.03.48.15.5.39,1,.63,1.55v.42c.21.54.32,1.26.54,1.82.03.09-.09,1.67-.09,2.03,0,1.71.22,3.94-.06,5.51-.04.24.17.61.24.77.15.39-.2.82-.09,1.1.07.19.27.35.36.51.35.63-.18,1.22-.36,1.61Z"/>
      <path class="cls-1" d="M129.75,12.79h.57c.27-.12.64-.42,1.22-.27.41.1,1.03-.17,1.46,0,.21.08.53.31.77.36.1.02.51-.09.74-.09.26.03.52.06.77.09,1.01-.5,1.58-.47,1.52-1.7-.53-.12-.46-.57-.8-.8-.26-.06-.52-.12-.77-.18-.16-.07-.31-.29-.48-.36-.6-.26-3.11-.1-3.99-.09-.25.24-.82-.08-1.16.09-.82.4-2.38.33-2.38,1.55,0,.32.09.6.24.77.45.52,1.32.63,2.29.63Z"/>
      <path class="cls-1" d="M122.66,13.47c-.09-.09.33-.57.18-.86-.32-.63-.73-1.02-1.73-.98-.58.54-1.44.22-1.43,1.49.22.33.52.69.8.95.58.7,1.97-.33,2.18-.6Z"/>
      <path class="cls-1" d="M164.59,30.78c-.27-.47-.38-.99-.63-1.46-.16-.31-.77-.77-.72-1.19.03-.19-.75-1.17-.95-1.49-.06-.17-.12-.34-.18-.51-.15-.1-.3-.2-.45-.3-.12-.17-.08-.37-.18-.57-.12-.11-.24-.22-.36-.33-.27-.44-.39-.88-.69-1.28-.15-.13-.3-.26-.45-.39-.53-.76-1.18-1.69-1.88-2.38-.24-.23-.48-.46-.72-.69-.14-.07-.28-.14-.42-.21-.31-.49-1.34-1.73-1.79-2.03-.19-.12-.37-.12-.57-.24-.35-.21-.69-.66-1.04-.89-.22-.09-.44-.18-.66-.27-.07-.12-.14-.24-.21-.36-.19-.06-.38-.12-.57-.18-.43-.22-.88-.73-1.31-.95-.69-.36-1.31-.51-1.97-.89-.13-.12-.26-.24-.39-.36-.49-.26-.86-.37-1.31-.63-.1-.12-.2-.24-.3-.36-.32-.12-.64-.24-.95-.36-.13-.09-.18-.27-.36-.33-.49-.17-1.2-.1-1.82-.09-.26.33-.58.56-.8.95.01.31.15.31.27.48.15.22.17.54.36.72.4.38.95.46,1.52.69.19.08.34.27.51.36.33.17.74.09,1.04.27.46.28.89.82,1.37,1.07.23.12,1.19.55,1.31.72.29.4.33.27.74.51.31.18.76.79,1.04.98.19.09.38.18.57.27.15.12.54.38.66.54.14.19.37.68.54.8.23.09.46.18.69.27.21.26.42.52.63.77.23.15.45.21.69.36.3.19.49.73.74.98.57.56,1.67,1.35,2.03,1.97.18.3.25.58.45.86.18.12.36.24.54.36.21.19.25.52.42.74.27.37.81.56,1.07.92.51.71.81,1.42,1.25,2.2.09.07.18.14.27.21.06.19.12.38.18.57.18.18.36.36.54.54.15.29.11.52.24.72.09.15.24.2.3.36.27.76.19,1.55.77,2.15.33.34,1.01,1.03,1.7.63.21-.27.42-.54.63-.8v-.8c.1-.37-.69-1.81-1.04-2.32-.12-.1-.24-.2-.36-.3Z"/>
      <path class="cls-1" d="M162.02,42.94c-.08-.16-.29-.31-.36-.48-.18-.42,0-1.11-.18-1.55-.34-.83-.67-1.92-.98-2.77-.08-.21.01-.49-.06-.66-.13-.28-.38-.49-.48-.72-.11-.24,0-.65-.15-.98-.12-.28-.42-.49-.54-.74-.25-.56-.31-1.47-.63-1.94-.15-.13-.3-.26-.45-.39-.41-.73-.66-1.14-1.13-1.73-.07-.2-.14-.4-.21-.6-.2-.38-.63-.75-.86-1.1-.3-.46-.44-.94-.77-1.37-.19-.17-.38-.34-.57-.51-.19-.3-.23-.56-.45-.77-.2-.15-.4-.3-.6-.45-.12-.2-.12-.43-.27-.6-.87-.98-1.93-1.95-3.07-2.65-.18-.2-.36-.4-.54-.6-.15-.15-.35-.17-.54-.3-.22-.24-.44-.48-.66-.72-1.29-.94-2.52-1.95-3.87-2.83-.2-.06-.4-.12-.6-.18-.6-.3-1.33-.66-1.97-.95-.49-.22-1.02-.12-1.46-.36-.09-.05-.22-.22-.33-.27h-1.28c-.19-.09-1.55-.37-1.94-.18-.15.07-.51.33-.74.27-.13-.04-1.46-.21-1.55-.18-.13.05-.47.25-.69.18-.33-.12-.69-.27-1.13-.27-.44,0-1.81.17-2.03.09-.22-.15-.44-.3-.66-.45-.24-.09-.46.07-.6.09-.77.1-1.58-.09-2.23-.09-.38.56-.78.13-1.34.36-.81.33-1.54.53-1.85,1.34-.09.25,0,1.48.09,1.61.15.13.3.26.45.39.21.36.37.79.69,1.19.12.07.24.14.36.21.19.32.29.68.54.95.24.19.48.38.72.57.21.35.34.63.6.92.16.14.32.28.48.42.89,1.73,1.68,3.95,2.38,5.93.11.31-.05.94.06,1.16.17.34.07.7.18.98.12.3.35.62.39.98.03.28-.06.57.06.86.14.35.41.64.54.98.12.33.04.58.18.86.08.17.29.37.36.57.15.42-.1.87.09,1.25.6,1.23.75,3.01,1.16,4.32,0,0-.09,3.15-.12,3.22l.12.12c.06.16-.12.6-.12.6.04.37.08.73.12,1.1-.16.48-.38.95-.54,1.4v.57c-.07.18-.19.48-.27.66.03.24.06.48.09.72-.09.24-.35.41-.45.63-.12.27.21.43.09.74-.22.58-.35,2.71-.09,3.4.16.43-.49,2.94-.63,3.31-.1.25-.33.43-.45.63-.37.63-.5,1.13-.77,1.61-.16.15-.32.3-.48.45-.27.36-.45.68-.69,1.07-.15.13-.3.26-.45.39-.55.84-.71,1.86-1.16,2.59,0,0-.03.75-.06.83-.15.25-.3.5-.45.74-.03.29-.06.58-.09.86-.1.26-.34.52-.45.74-.17.37-.16.77-.36,1.1-.12.19-.35.32-.45.57-.12.3.09.57.09.8,0,.27-.21.49-.09.77.09.22.33.23.45.39.37.5.72.77,1.31,1.04.17.03.34.06.51.09.24.12.49.33.74.45h.45c.74.28.98.81,1.94.45.54-.21.89.37,1.37.18.47-.19.92-.45,1.37-.63.25-.03.5-.06.74-.09.17-.12.34-.24.51-.36h1.19c1.34,0,2.46.12,3.43-.18h.54c.89-.35,1.81-.9,2.59-1.4.41-.15.81-.3,1.22-.45.13-.09.23-.28.39-.36.35-.16.95-.03,1.31-.18.17-.12.34-.24.51-.36.24-.06.48-.12.72-.18.15-.07.24-.25.36-.33.27-.09.54-.18.8-.27.12-.12.24-.24.36-.36.39-.26.76-.37,1.13-.63.37-.26.47-.73.72-1.13.18-.16.36-.32.54-.48.3-.51.62-1.31,1.16-1.67.9-.6,2.79-1.46,3.34-2.29.34-.51.54-.99.89-1.49.11-.06.22-.12.33-.18.23-.2.43-.61.54-.83.09-.28.18-.56.27-.83.11-.17.35-.28.45-.48.12-.26-.03-.54.09-.77.1-.19.35-.34.45-.54.06-.35.12-.7.18-1.04.11-.22.35-.44.45-.66.03-.2.06-.4.09-.6.11-.22.35-.44.45-.66.15-.33.1-.56.27-.77.26-.33.58-.79.77-1.25.12-.29.06-.56.18-.86.1-.26.33-.49.45-.72.19-.37.03-.87.18-1.28.39-1.05.67-2.49,1.07-3.52.29-.75-.37-2.02-.54-2.41-.15-.34-.01-.82-.18-1.13ZM160.65,46.37c-.56,1.16-.46,2.78-1.07,3.75.02.02-.11,1.06-.15,1.19-.17.52-.64,1.06-.89,1.52-.06.26-.12.52-.18.77-.14.31-.48.55-.63.83-.15.29-.23.57-.36.8-.11.42-.22.83-.33,1.25-.11.24-.29.51-.48.8v.03c-.06.62-.32.83-.51,1.31-.06.21-.12.42-.18.63-.22.36-.65.74-.86,1.1-.07.2-.14.4-.21.6-.1.14-.3.11-.45.21-.37.24-.54.81-.89,1.04-.59.38-1.26.6-1.76,1.07-.63.59-1.29,1.28-1.85,1.94-.31.37-.73,1.39-1.1,1.61-.5.29-.99.45-1.46.77-.08.09-.16.18-.24.27-.29.09-.58.18-.86.27-.12.12-.24.24-.36.36-.3.18-.67.03-1.01.18-.25.11-.54.34-.8.45-.3.06-.6.12-.89.18-.21.11-.43.34-.66.45-.19.06-.38.12-.57.18-.12.11-.24.22-.36.33-.33.13-.65.07-.89.27-.14.11-.24.28-.42.36-.29.13-1,.05-1.25.18-.27.13-.6.49-1.1.36h-.03c-.27-.1-.53-.35-.8-.45l-.54.09c-.06-.02-.27-.18-.45-.09-.16.08-.32.28-.48.36h-.77c-.54.22-2.04.88-2.53.72-.54-.19-1.19.24-1.61.09-1.09-.4-1.99-.71-2.38-1.55-.12-.25.01-.89.09-1.04.47-.94.8-2.3,1.34-3.31.2-.37.08-.87.27-1.22.08-.14.28-.32.36-.48.06-.22.12-.44.18-.66.15-.28.52-.51.72-.77,0-.02-.02-.04-.03-.06.09-.22.27-.59.45-.86.14-.22.49-.26.63-.51.21-.39.41-.74.63-1.1.07-.12,0-.25.09-.36.06-.08.22-.13.27-.24.06-.24.12-.48.18-.72.11-.22.36-.41.45-.66,0-.2-.02-.4-.03-.6.11-.36.13-.93.27-1.28.06-.15.21-.27.27-.42.16-.39-.34-.5-.18-.95.09-.12.18-.24.27-.36v-.92c0-.97-.18-1.96.09-2.62v-.86c.13-.39.29-.88.45-1.25.17-.39-.04-.81.09-1.19.3-.9.54-1.59.54-2.92v-2.12c-.08-.17-.29-.39-.36-.57-.17-.43.35-.69.18-1.04-.1-.21-.28-.49-.36-.72-.18-.49.13-1.31-.09-1.76-.2-.42-.36-.92-.54-1.37-.09-.25.02-.55-.06-.72-.6-1.21-1.02-3.24-1.61-4.89-.13-.36.09-.8-.09-1.16-.06-.11,0-.45-.09-.63-.15-.31-.32-.7-.45-1.01-.13-.32-.02-.63-.18-.92-.15-.28-.34-.62-.45-.95-.07-.22.03-.38-.06-.54-.15-.27-.37-.48-.48-.86-.05-.25-.1-.5-.15-.74-.39-.66-.73-1.29-1.07-2-.12-.11-.24-.22-.36-.33-.21-.34-.32-.62-.54-.95-.25-.39-.69-.61-.95-1.04-.31-.51-.89-.67-1.16-1.28-.21-.47.24-.89.45-1.01.7-.42,3.42-.19,4.53-.18,0-.03.02-.06.03-.09.67,0,1.35.76,2,.45.95-.46,3.29.23,4.2-.09.46-.16,1.15.07,1.4.18h.98c.33.12.6.4.89.54.26.12.56-.03.77.09.14.08.26.28.39.36.22.13.46.06.72.18.22.1.35.34.54.45.24.08.48.16.72.24l.45.45c.43.21.68.39,1.07.63.19.21.38.42.57.63.27.21.57.35.86.54.16.18.32.36.48.54.24.14,1.11.54,1.22.72.19.3.28.56.54.77.17.14.4.14.6.27.48.53.95,1.05,1.43,1.58.91.6,1.54,1.67,2.15,2.59.14.12.28.24.42.36.42.6.83,1.61,1.34,2.21.12.09.24.18.36.27.09.26.18.52.27.77.3.55.75,1.22.98,1.67.05.21.1.42.15.63.56,1.16,1.16,2.51,1.61,3.78v.48c.26.57.38,1.25.63,1.91,0,.18-.02.36-.03.54.31.61.58,1.02.63,1.85.02.35.82,1.88.54,2.47Z"/>
      <path class="cls-1" d="M53.35,72.29c.12-.34.83-.61.54-1.37-.1-.26-.41-.3-.54-.51-.13-.22-.08-.37-.24-.57-.3-.28-.6-.56-.89-.83-.13-.22-.12-.47-.27-.69-.12-.1-.24-.2-.36-.3-.16-.31-.03-.77-.18-1.1-.11-.27-.34-.56-.45-.86v-.92c-.15-.32-.11-.85-.27-1.22-.28-.66-.62-1.15-.89-1.67.04-.07-.09-.52-.15-.63-.11-.18-.35-.37-.45-.57-.29-.58-.37-1.16-.72-1.67-.12-.1-.24-.2-.36-.3-.09-.24-.18-.48-.27-.72-.21-.44-.54-.89-.77-1.19-.17-.21-.14-.57-.27-.89-.15-.23-.3-.46-.45-.69-.07-.18-.3-2.45-.18-2.71.11-.23.51-1.68.27-2.18-.14-.28-.47-1.19-.27-1.7.03-.08.18-.4.09-.6-.06-.13-.24-.46-.18-.69.08-.26.4-1.15.18-1.61-.36-.75-.52-1.76-.8-2.56v-.8c-.1-.2-.28-.45-.36-.69-.15-.47.25-.82.36-1.07.15-.36.03-1.09.18-1.46.38-.93.73-2.07,1.16-2.95.15-.3.06-.6.15-.8.47-1.11,1-2.67,1.61-4.05v-1.07s.3-.57.27-.6c-.01-.1-.2-.5-.09-.72.08-.16.29-.31.36-.48.14-.35.01-1,.18-1.37.55-1.21.86-2,1.49-3.04.06-.23.12-.46.18-.69.11-.2.34-.35.45-.54v-.18c.16-.25.45-.32.63-.54.14-.18.15-.39.27-.6.15-.13.3-.26.45-.39.38-.56,1.43-1.84,1.04-2.83-.09-.22-.34-.25-.45-.42-.6-.99-1.34-1.21-2.56-1.64-.23.03-.46.06-.69.09-.19-.07-.5-.19-.72-.27-.38.3-1.23-.11-1.73.09-.06.03-.33.15-.39.18h-1.28c-.15.06-.68-.02-.89.09-.22.11-.39.37-.66.45-.26.08-.55-.33-.86-.18-.1.05-.4.16-.63.09-.81-.25-1.67-.68-2.59-.36-.62.22-1.38-.38-2.06-.09-.22.15-.44.3-.66.45-.26.1-.49-.02-.77.09-.29.11-.59.35-.86.45-.42.09-.83.18-1.25.27-.13.08-.24.26-.39.33-.32.06-.64.12-.95.18-.1.12-.2.24-.3.36-.22.06-.44.12-.66.18-.28.13-.6.36-.89.54-.13.15-.26.3-.39.45-.96.63-1.73,1.23-2.71,1.85-.34.36-.68.72-1.01,1.07-1.07.63-1.61,1.39-2.41,2.26-.17.19-.47.22-.66.39-.19.17-.31.47-.45.69-.23.21-.46.42-.69.63-.17.28-.27.49-.45.77-.18.13-.36.26-.54.39-.15.16-.15.4-.27.6-.14.23-.49.42-.63.66-.34.57-.61,1.01-.95,1.55-.12.1-.24.2-.36.3-.24.4-.44.83-.63,1.22-.06.21-.12.42-.18.63-.12.09-.24.18-.36.27-.06.29-.12.58-.18.86-.3.67-.73,1.38-.95,1.88-.17.38-.01.61-.18.95-.07.16-.29.27-.36.42-.09.42-.18.83-.27,1.25-.35.73-.69,1.79-.98,2.53-.03.28-.06.56-.09.83-.41.99-.63,1.53-.51,2.71v1.49c-.04.26-.33.73-.21,1.07.06.17.2.42.27.63v1.4c.16.4.31,1.01.45,1.43.03.27.06.54.09.8.95,1.73,1.81,3.37,2.74,4.89.06.29.12.58.18.86.12.2.33.41.45.63.21.4.14,1,.36,1.4.3.56.47,1.32.8,1.88.13.21.43.37.54.57.08.15.1.48.24.66.15.12.3.24.45.36.22.31.26.74.54.98.84.76,1.81,1.33,2.8,1.94.4.42.79.83,1.19,1.25.18.11.35.14.51.27.18.34.36.68.54,1.01.08.13,1.35,1.18,1.52,1.28.32.12.64.24.95.36.12.09.21.26.36.33.23.03.46.06.69.09.25.15.5.3.74.45h.74c.27.11.51.33.74.45.17.03.34.06.51.09.27.12.43.39.66.54.21.14.47.12.69.27l.42.45c.8.35,1.46.75,2.26,1.04.22.08,2.56.41,2.86.27.26-.13.87-.46,1.4-.27.08.03.25.16.45.09.08-.03.25-.16.45-.09.5.19,1.08.42,1.55.63h.6c.35.17.8.03,1.19.18.18.12.36.24.54.36.25.1,1.09-.37,1.31-.45h.66c.8-.3,1.72-1.01,2.53-1.25h.83c.46-.16,1.26-.37,1.4-.74ZM49.54,71.61c-.22.13-.46.36-.74.45-.38.12-.71-.04-1.04.09-.39.15-.72.43-1.1.54-.37.1-.83-.43-1.07-.54h-.57c-.32-.13-.95-.05-1.25-.18-.18-.08-.38-.27-.57-.36h-.72c-.06-.02-.29-.16-.36-.18-.25-.08-.74.21-.92.27-.22.08-.43-.07-.54-.09-.39-.08-.61.14-.92.12-.62-.05-1.47-.08-2.03-.3-1.33-.51-2.33-1.56-3.55-2.12-.32-.06-.64-.12-.95-.18-.24-.15-.48-.3-.72-.45-.35-.14-.7-.04-1.07-.18-.21-.15-.42-.3-.63-.45-.56-.26-.93-.39-1.4-.72-.15-.2-.3-.4-.45-.6-.2-.19-.88-.52-.98-.69-.13-.19-.14-.37-.27-.57-.38-.33-.75-.66-1.13-.98-.07-.12-.14-.24-.21-.36-.46-.35-.98-.54-1.46-.86-.52-.54-1.03-1.07-1.55-1.61-.2-.15-.4-.3-.6-.45-.45-.66-.84-1.57-1.16-2.32-.12-.28-.05-.77-.15-.98-.11-.23-.3-.4-.39-.63-.08-.33-.16-.66-.24-.98-.12-.11-.24-.22-.36-.33-.06-.22-.12-.44-.18-.66-.12-.14-.24-.28-.36-.42-.06-.21-.12-.42-.18-.63-.11-.22-.43-.35-.54-.6-.03-.17-.06-.34-.09-.51-.34-.64-.77-1.3-.98-1.82-.09-.22-.05-.59-.15-.8-.07-.15-.28-.32-.36-.48-.22-.43-.32-1.86-.18-2.26.28-.82-.79-.88-.45-1.73.1-.25.02-.68.06-.98.04-.3.2-.52.3-.74.09-.21.04-.66.09-.8v-.48c.73-1.79.96-3.1,1.76-4.89.03-.21.06-.42.09-.63.15-.29.3-.58.45-.86.06-.27.12-.54.18-.8.15-.19.3-.38.45-.57.06-.26.12-.52.18-.77.2-.37.33-1.02.54-1.25.11-.13.27-.24.36-.39-.07-.08.08-.52.15-.63.25-.39.68-.83.98-1.19.14-.17.15-.4.27-.6.12-.1.24-.2.36-.3.29-.35.48-.83.72-1.13.11-.14.25-.17.42-.27.18-.11.24-.32.36-.51.15-.22.89-.64,1.07-.92.58-.88,1.5-1.36,2.15-2.15.18-.22.3-.54.54-.69.28-.17.62-.32.86-.54.15-.2.3-.4.45-.6,1.35-.9,2.57-2.12,4.11-2.77.53-.22.94-.39,1.43-.6.29-.12.53-.05.8-.18.18-.12.36-.24.54-.36.26-.1.62.05.89-.09.39-.19.74-.45,1.19-.63.58-.23,2.16.27,2.53.09.66-.32,1.21.45,1.94.18.54-.2,1.19.07,1.76,0,.14-.02.34-.14.45-.18.45-.16,1.19,0,1.64-.18.28.03.56.06.83.09.22-.11.55-.37.74-.54.89-.01,3.1.79,2.68,1.88-.19.5-.51.6-.72.95-.12.2-.13.4-.27.6-.15.13-.3.26-.45.39-.67,1.12-1.51,2.66-2.12,3.99-.06.34-.12.68-.18,1.01-.18.32-.44.68-.54,1.01,0,.25.02.5.03.74-.1.32-.19,1.07-.39,1.37,0,0-.07,1.24-.15,1.43-.15.37-.37.74-.54,1.1-.13.29-.04.67-.18.95-.08.16-.28.32-.36.48-.15.31-.02.68-.18.95-.12.21-.36.44-.45.66-.03.22-.06.44-.09.66-.18.41-.4.93-.54,1.37,0,.11.02.22.03.33-.11.37-.5.77-.54,1.13-.09,1.04-.27,1.78-.27,2.98v.63c.08.17.22.47.27.66v.92c.12.2.24.4.36.6,0,.21-.02.42-.03.63.05.14.17.34.21.48.08.3-.13.62-.12.74v2.06c.08.2.2.43.27.63.13.38-.2.63-.18.86v4.44c.1.27.35.53.45.8.14.4-.09.82.09,1.16.12.23.33.42.45.63.06.22.12.44.18.66.15.14.3.28.45.42.35.53.5,1.31.77,1.73.12.11.24.22.36.33.09.28.18.56.27.83.09.13.29.22.36.39.1.24.04.49.18.69.09.13.28.23.36.39.06.26.12.52.18.77.1.24.34.41.45.63.12.24-.02.49.09.77.18.45.3,1.13.45,1.58.09.29-.03.58.09.89.24.61.69,1.06,1.04,1.61.23.35.29.75.63.98.02,1.03-.85,1.08-1.49,1.46Z"/>
      <path class="cls-1" d="M82.26,22.86c.1.25.35.54.45.8.09.25,0,.43.12.63.17.16.34.32.51.48.03.17.06.34.09.51.08.17.46.76.6.95.28.39.73.6.98,1.01.42.68.83,1.5,1.16,2.26.06.42.12.83.18,1.25.55,1.37.9,3.23,2.15,3.72.89.35,1.48-.71,1.7-1.13.1-.19.35-.31.45-.48v-.06c.02-.09.04-.18.06-.27.02-.37-.05-.78.09-1.04.09-.16.33-.3.36-.54-.06-.15-.12-.3-.18-.45-.09-.33.32-1.99.45-2.2.76-1.24,1.88-2.43,2.56-3.58.06-.23.12-.46.18-.69.13-.27.4-.47.54-.72.12-.23,0-.45.09-.72.07-.2.27-.37.36-.54.03-.2.06-.4.09-.6.15-.34.83-1.81.63-2.32-.09-.22-.32-.45-.45-.66-.12-.19-.11-.46-.27-.6-.22-.06-.44-.12-.66-.18-.22-.15-.44-.3-.66-.45h-.83c-.4-.14-.72-.39-1.04-.54h-.95c-.19-.07-.5-.19-.72-.27-.12.09-1.79.27-2,.27h-.89c-.38.16-.78.39-1.19.54h-1.1c-.3.1-.93-.05-1.31.09-.54.2-1.65.56-1.97.98-.61.81.15,3.03.36,3.58.12.33-.03.63.09.92ZM83.81,20.24c.21-.37.64-.72,1.04-.89h1.07c.16-.09.31-.29.48-.36h.63c.39,0,1.38-.05,1.61-.27.26,0,.48.04.63.09.56.2,1.05-.19,1.49,0h1.07c.26.1.49.33.72.45.2.1.45.12.6.27.12.13.39,1.16.3,1.46-.03.1-.22.5-.21.63.02.41-.4.72-.6,1.13-.21.46-.34,1.24-.63,1.61-.18.15-.36.3-.54.45-.27.34-.4.76-.63,1.13-.15.13-.3.26-.45.39-.12.19-.12.46-.24.66-.09.07-.18.14-.27.21-.39.66-.33,3.32-1.1,3.4-.88.09-1.1-1.27-1.1-2.06,0-.17-.16-.31-.24-.45-.09-.35-.18-.7-.27-1.04-.15-.13-.3-.26-.45-.39-.22-.34-.32-.63-.54-.95-.18-.16-.36-.32-.54-.48-.11-.19-.11-.4-.24-.57-.13-.11-.26-.22-.39-.33-.25-.42-.31-.99-.6-1.46-.23-.39-.94-2.09-.63-2.62Z"/>
      <path class="cls-1" d="M116.08,25.69c.18.11.48.11.66.21.38-.05.43-.24.6-.51.13-.21.42-.32.54-.57.32-.7-1.4-2.41-1.97-2.41-.21.19-.56.2-.72.45-.68,1.11.15,2.36.89,2.83Z"/>
      <path class="cls-1" d="M103.8,28.01c.11-.08.62-.79.72-.95.39-.37.77-.74,1.16-1.1.19-.27.37-.68.51-.95.45-.9-.55-1.76-1.28-1.79-.2.26-.76.27-1.04.45-.27.17-.34.69-.54.95-.28.39-1.67,1.94-1.49,2.5.1.3.5.48.6.89.33.04,1.06.22,1.37,0Z"/>
      <path class="cls-1" d="M71.65,25.66c.16.28.2.55.36.83.46.81,1.54,1.65,2.35,2.15.42-.06,1.62-1.22,1.4-1.79-.08-.21-.35-.31-.45-.48-.09-.29-.18-.58-.27-.86-.41-.63-1.45-1.95-2.44-1.94-.12.12-.36.08-.51.18-.18.12-.76.97-.89,1.19.01.45.3.45.45.72Z"/>
      <path class="cls-1" d="M118.31,53.07v-1.01c0-.86-.23-2.05.09-2.74.15-.26.3-.52.45-.77.03-.17.06-.34.09-.51.21-.19.42-.38.63-.57.11-.34.22-.68.33-1.01.09-.25.47-.87.27-1.31-.07-.16-.08-.56-.15-.69-.18-.34-.43-.71-.57-1.19,0-.19.02-.38.03-.57-.26-.83-.74-2.07-1.07-2.95-.11-.3-.05-.58-.18-.86-.07-.14-.28-.33-.36-.48-.17-.3-.11-.67-.27-.95-.05-.09-.22-.19-.27-.3-.1-.22-.07-.78-.15-.92-.1-.19-.22-.35-.3-.51-.14-.27-.05-.58-.15-.83-.31-.81-.32-1.76-.72-2.65-.12-.28-.41-.83-.63-1.07-.15-.13-.3-.26-.45-.39-.11-.2-.06-.41-.18-.6-.2-.32-.63-.69-.8-1.01-.09-.16-.08-.36-.24-.57-.18-.15-.36-.3-.54-.45-.33-.46-1.09-1.47-1.61-1.67h-1.7c-.26.24-.79.29-.98.6-.14.22-.11.51-.27.72-.12.09-.24.18-.36.27-.09.26-.18.52-.27.77-.04.08-.23.21-.27.3-.11.23-.03.58-.15.83-.1.21-.32.39-.45.66-.12.24-.05.48-.18.69-.13.2-.46.22-.63.39-.25.26-.33.65-.54.95l-.8.98c-.1.07-.19.03-.27.12.13.11-.35.73-.42.86-.16.3-.05.61-.18.95-.1.27-.33.56-.45.8v.74c-.08.22-.17.61-.27.83-.17.4.36.79.18,1.22-.18.44-.37.99-.54,1.43-.06.27-.12.54-.18.8-.43.78-.85,1.65-1.07,2.32,0,.25.02.5.03.74,0,2.02.82,2.89,1.58,4.35.14.27-.06.73.09,1.04.17.36.27.94.09,1.37v2.32c.18.36.4.79.54,1.22v.39c.15.31.44.6.54.83.11.25.04.45.18.72.12.22.3.34.42.57.11.21.06.4.18.6.09.07.18.14.27.21.12.18.07.4.18.6.08.15.28.26.36.39.26.45.38.88.69,1.28.42.55.98.93,1.34,1.55.31.52,1.96,2.63,3.07,2.18,2.36-.97,2.39-2.88,3.61-4.83.36-.34.72-.68,1.07-1.01.16-.21.2-.46.36-.69.21-.3.54-.52.69-.83.12-.26.11-.53.27-.74.12-.17.36-.26.45-.48v-.6c.13-.34.39-.67.54-.98.13-.28.07-.68,0-.86ZM117.92,45.47v.74c-.1.26-.35.49-.45.72-.13.3-.08.62-.27.86-.14.18-.35.29-.45.54-.1.27,0,.53-.06.8-.06.29-.36.5-.45.69v.77c0,.52-.02,1.03-.03,1.55.05.13.22.51.12.8-.04.04-.08.08-.12.12,0,.29.02.58.03.86-.69,1.7-1.86,3.04-2.95,4.41-.71.89-1.1,2.91-2.18,3.34-.92.36-1.74-1.4-2.03-1.85-.24-.38-.76-.71-.98-1.1-.12-.22-.09-.46-.27-.74-.82-1.34-1.69-2.88-2.2-4.5-.33-1.04,0-1.77,0-2.95v-.77c-.12-.19-.24-.38-.36-.57-.18-.49.04-.94-.18-1.4-.09-.2-.39-.38-.51-.63-.14-.27-.03-.6-.18-.86-.11-.21-.35-.43-.45-.66-.1-.23-.1-.6-.18-.8-.28-.72.95-2.99,1.16-3.49.09-.2-.02-.32.06-.6.07-.22.23-.45.3-.66l-.03-.89c.05-.13.2-.26.27-.42.1-.23-.06-.61-.09-.72-.1-.33.18-.75.27-.95v-.86c.07-.16.28-.34.36-.48.12-.22.05-.47.18-.69.11-.18.36-.32.45-.51.06-.18.12-.36.18-.54.14-.23.56-.33.72-.57.15-.22.19-.43.33-.66.16-.14.32-.28.48-.42.15-.18.13-.42.24-.66.15-.19.3-.38.45-.57.29-.55.43-1.72.89-2.03.23-.15.5-.1.77-.21,1.19.06,1.62,1.18,2.12,1.97.12.1.24.2.36.3.36.6.87,1.66,1.22,2.56.03.43.06.85.09,1.28.1.23.35.44.45.66.06.38.12.75.18,1.13.7,1.33,1.14,2.81,1.67,3.99.03.23.06.46.09.69.14.28.35.61.45.89.03.27.06.54.09.8.13.27.33.59.45.86.16.37,0,1.07,0,1.37Z"/>
      <path class="cls-1" d="M71.68,59.42c.14-.22.13-.46.27-.69.17-.28.48-.65.63-.95.67-1.45.71-2.66,1.31-4.02.02-.06.2-2.35.18-2.41-.05-.14-.19-.63-.09-.89.24-.65.32-1.68.63-2.32.26-.55.74-1.09.98-1.64.09-.2.29-1.36.18-1.67-.21-.58-.4-1.13-.63-1.64-.14-.32-.02-.65-.18-.95-.6-1.14-1.12-2.58-1.52-3.93-.11-.35,0-1.01.12-1.19,0-.33-.02-.66-.03-.98,0,0,.02-.02.03-.03-.1-.18-.24-.51-.3-.72v-.48c-.28-.74-.92-1.58-1.49-2.15-.24-.21-.48-.42-.72-.63-.75-1.12-1.21-3.83-2.65-4.5h-1.79c-.24.35-.76.55-.98.89-.09.14-.07.28-.21.36-.18.11-.4.19-.51.36-.18.29-.43.58-.54.8-.09.19-.05.44-.18.6-.11.09-.22.18-.33.27-.09.32-.18.64-.27.95-.34.63-.64,1.53-.89,2.21-.06.3-.12.6-.18.89-.12.16-.24.32-.36.48-.14.32-.08.69-.27.95-.12.1-.24.2-.36.3-.09.16-.13.54-.24.72s-.36.29-.45.51c-.2.5-.34.87-.54,1.31-.16.36-.04.74-.18,1.07-.06.15-.21.39-.27.54v.83c-.27.65-.93,2.74-.63,3.55v.66c.09.22.34.44.45.66.03.16.06.32.09.48.15.15.3.3.45.45.17.32.26.85.36,1.16.21.66-.02,1.54-.18,1.94.03.14.06.28.09.42-.03.35-.06.7-.09,1.04.13.26.35.53.45.8.02.43.04.85.06,1.28.14.26.28.47.39.69.05.22.1.44.15.66.18.16.36.32.54.48.13.22.12.47.27.69.21.31.79.32.98.66.39.71.86,1.64,1.07,2.23.09.25.05.59.15.8.1.22.39.47.54.74.18.35.18.78.45,1.04.17.09.34.18.51.27.32.34.46.68.92.89h.63c.08.02.18.15.36.09,1.46-.52,2.11-1.66,2.74-2.71.13-.11.26-.22.39-.33.13-.17.12-.38.24-.57.15-.1.3-.2.45-.3ZM70.84,56.56c-.06.26-.12.52-.18.77-.1.2-.34.31-.45.48-.53.87-1.09,2.41-2.32,2.92-.96.39-1.78-1.45-1.97-1.97-.1-.28.03-.56-.09-.77-.09-.07-.18-.14-.27-.21-.15-.24-.14-.48-.27-.74-.15-.14-.3-.28-.45-.42-.06-.1-.05-.26-.15-.39-.15-.13-.3-.26-.45-.39-.25-.38-.41-.79-.72-1.13-.12-.1-.24-.2-.36-.3-.24-.41-.16-1-.36-1.4-.1-.21-.28-.49-.36-.72-.1-.29.11-.6.18-.74v-2.41c-.06-.15-.22-.4-.27-.57-.11-.37.04-.72-.09-1.01-.09-.08-.18-.16-.27-.24-.2-.33-.14-.76-.33-1.1-.14-.26-.34-.48-.45-.8-.08-.24.07-.47.09-.6.06-.42-.2-1.26-.09-1.49.15-.31.35-.59.45-.92.11-.38,0-.97.15-1.4.09-.26.31-.59.45-.86.09-.35.18-.7.27-1.04.24-.51.62-1.12.89-1.61.15-.27.09-.57.27-.8.13-.17.36-.25.45-.48.4-1.08.49-1.8.95-2.86.13-.29.06-.57.18-.86.12-.29.4-.56.54-.83.12-.24.05-.47.18-.69.34-.31.68-.62,1.01-.92h.54c.27.22.54.44.8.66.11.23-.02.48.09.74.07.17.26.26.36.39.15.21.14.46.27.69.15.13.3.26.45.39.43.63.66,1.1,1.13,1.73.12.16.42.21.54.39.21.31.03.68.18,1.04.09.22.28.49.36.72.14.38-.11.83-.18,1.04v.03c-.14.55.15,1.04.27,1.37v.92c.39.8.93,1.79,1.16,2.44.12.34.1.69.24.98.21.45.55,1.35.27,2.03v.72c-.06.18-.24.3-.33.45-.2.34-.07.64-.27,1.01-.1.18-.33.39-.45.66v.74c-.07.2-.18.55-.27.74.03.33.06.66.09.98-.12.18-.24.36-.36.54-.09.2.06.52.09.6-.06.56-.12,1.11-.18,1.67-.35.86-.66,2.01-.98,2.86Z"/>
      <path class="cls-1" d="M55.5,39.16c.42,0,1.07-.57,1.22-.83.32-.55.33-1.25.63-1.88.25-.53.65-1.23.89-1.76.06-.28.12-.56.18-.83.2-.35.47-.66.51-1.13.08-1.16-.15-2.09-1.25-2.09-.24.33-.9.48-1.22.98-.92,1.43-1.11,3.11-1.88,4.86v.86c-.03.28-.06.56-.09.83.19.5.57.73,1.01.98Z"/>
      <path class="cls-1" d="M77.13,35.43c.2.15.85.18,1.13.18.24-.33.69-.72.83-1.04.12-.27-.06-.65-.09-.74,0-.2.02-.4.03-.6-.29-.84-1.2-2.5-2.26-2.5-.25.32-.7.26-.89.72,0,.12.02.24.03.36-.36,1.1.51,3.1,1.22,3.64Z"/>
      <path class="cls-1" d="M101.06,33.44c.12-.31.35-.69.45-1.01.07-.24-.44-1.23-.54-1.43-.34-.02-.79-.06-1.16-.09-.16.12-.32.24-.48.36-.1.14-.07.27-.21.36l-.24.09c-.4.49-.53,1.26-.77,1.88-.1.24-.44.92-.27,1.34.18.44.55.72.69,1.19.75.28,1.55-.24,1.82-.8.06-.22.12-.44.18-.66.1-.18.34-.21.45-.36.17-.22-.02-.56.09-.86Z"/>
      <path class="cls-1" d="M122.21,32.24h-.95c-.08.09-.28.16-.42.18-.11.62-.39,1.72,0,2.32.12.19.77.6.98.86,1.83.02,1.61-2.85.39-3.37Z"/>
      <path class="cls-1" d="M78.65,51.25c-.81.92-1.64,2.93.72,2.86.37-.24,1.45-1.34.89-2.15-.11-.06-.22-.12-.33-.18-.46-.45-.28-.57-1.28-.54Z"/>
      <path class="cls-1" d="M123.79,51.25h-.8c-.29.34-.53.75-.83,1.1.04.13.09.82.18.95.14.21.39.31.45.63.16.01.15.03.24.09h.86c.14-.08.76-1.17.89-1.37,0-.45-.69-1.27-.98-1.4Z"/>
      <path class="cls-1" d="M30.86,74.44c-.29-.13-.59-.1-.83-.27-.15-.1-.26-.28-.45-.36-1.49-.6-2.66-1.2-3.81-2.12-.38-.3-.91-.42-1.16-.83-.25-.41-.41-.77-.69-1.1-.24-.22-.48-.44-.72-.66-.37-.66-.81-1.47-1.43-1.85-1.37-.83-2.92-1.82-3.69-3.07-.18-.16-.36-.32-.54-.48-.14-.26-.11-.54-.27-.77-1.07-1.59-1.76-3.44-2.47-5.07-.03-.2-.06-.4-.09-.6-.01-.03-.98-1.25-.98-1.25-.19-.13-.51-.18-.8-.18-.34.31-.82.79-.98,1.16-.18.42.08,1.08.15,1.19,0,.03.02.06.03.09.29.94,1.06,2.25,1.67,3.34.15.16.3.32.45.48.64,1.25,1.47,2.05,2.29,3.25.25.36.76.64.98,1.01.12.19.11.39.24.57.1.08.2.16.3.24.33.63.72,1.61,1.22,2.35.21.18.42.36.63.54.14.21.16.45.36.6.75.58,1.54,1.05,2.29,1.61.32.12.64.24.95.36.14.1.15.33.33.42.62.3,1.23.43,1.79.8.41.28.78.82,1.19,1.07,1.13.68,2.05,1.57,3.25,2.21.61.32,1.88.41,2.35-.09.29-.31.15-1.01-.03-1.34-.21-.4-1.1-1.06-1.52-1.25Z"/>
      <path class="cls-1" d="M81.63,72.95c.31.19.94.25,1.25.36.7-.06,1.39-.12,2.09-.18.17.07.32.28.48.36.53.09,1.05.18,1.58.27.77.39,1.16.79,2.2.45.33-.11.75.38,1.22.18.64-.28,1.27-.49,1.91-.72.13-.05,1.86-.22,1.97-.18.18.06.95.22,1.25.09.78-.34,1.49-.82,1.94-1.49.08-.12.2-.78.09-1.01-.07-.15-.28-.26-.36-.39-.15-.24-.15-.47-.27-.74-.25-.57-.67-.96-1.04-1.52-.31-.47-.75-.95-1.07-1.43-.16-.24-.12-.51-.27-.77-.07-.12-.29-.27-.36-.39-.08-.25-.16-.5-.24-.74-.1-.08-.2-.16-.3-.24-.1-.17-.08-.43-.24-.66-.63-.87-1.3-1.57-1.79-2.62-.12-.15-.24-.3-.36-.45-.1-.25-.3-.84-.18-1.19.03-.08.18-.34.09-.54-.45-1.04-.86-3.09-1.97-3.55h-.77c-.24.26-.85.64-1.01.92-.11.19-.37,1.12-.51,1.49v.77c-.03.07-.15.29-.18.36v1.13c-.11.24-.34.5-.45.77-.03.19-.06.38-.09.57-.45.73-1.18,1.31-1.7,1.97-.3.37-.4.73-.69,1.19-.25.4-.75.74-.98,1.19-.14.27-.1.54-.27.77-.13.18-.42.26-.54.48-.25.46-.21.78-.42,1.25-.08.19-.35.32-.45.54-.16.36-.11.69-.27,1.1-.11.27-.29.51-.42.77.26.52.64,1.54,1.1,1.82ZM84.16,68c.09-.23.18-.46.27-.69.15-.13.3-.26.45-.39.19-.36.39-.72.69-1.19.15-.13.3-.26.45-.39.1-.12.09-.27.18-.42.21-.19.42-.38.63-.57.21-.34.31-.7.54-1.04.11-.1.22-.2.33-.3.25-.54.32-.95.54-1.46v-.48c.12-.39.21-.55.57-.72,1.04.13.97,1.26,1.28,2.09-.08.35.8,1.4,1.04,1.76.46.68.91,1.36,1.34,2.06.09.27.18.54.27.8.12.12.24.24.36.36.1.19.12.47.24.66.22.34.65.66.89.98.07.09.03.21.09.3.32.54.98.76.45,1.7-.07.11-.02.2-.12.27-.54.38-1.69,0-2.35.27-.19.08-.39.28-.57.36h-.6c-.73.26-2.58.4-3.37.09-.37-.14-.73-.39-1.1-.54h-.89c-1.12-.4-2.11.23-2.65-.92-.41-.88.7-2.12,1.07-2.59Z"/>
      <path class="cls-1" d="M60,60.19c-.08-.16-.29-.31-.36-.48-.06-.26-.12-.52-.18-.77-.12-.21-.36-.42-.45-.66-.09-.23-.04-.48-.15-.66-.17-.27-.55-.63-.63-1.07-.33-.04-.65-.17-1.01-.18-.09.12-.24.09-.36.18-.18.27-.36.54-.54.8-.1.22.03,1.51.09,1.61.12.1.24.2.36.3.09.27.18.54.27.8.19.41.62.78.86,1.13.07.2.14.4.21.6.29.51.94.99,1.46,1.34.69-.11.67-.92,1.13-1.25-.04-.45-.4-.55-.54-.89-.11-.29-.04-.54-.18-.8Z"/>
      <path class="cls-1" d="M122.39,57.63c-.32-.16-.71-.34-1.04-.54-.25.25-.63.37-.86.63-.44.5-.66,1.52-.98,1.94-.09.07-.18.14-.27.21-.09.13-.14.54-.24.72-.14.24-.42.41-.54.72-.29.75-.41,1.98.15,2.47.18.26,1.03.14,1.37.09.23-.56.74-.94.98-1.46.09-.31.18-.62.27-.92.41-.71.92-1.56,1.25-2.18-.13-.15-.09-1.47-.09-1.67Z"/>
      <path class="cls-1" d="M76.59,58.26c-.3.24-.6.48-.89.72-.24.31-.27.72-.51,1.1-.15.14-.3.28-.45.42-.32.66-.65,1.13-.98,1.73-.15.27-.09.57-.27.8-.15.12-.3.24-.45.36-.09.12-.1.3-.15.39-.18.14-.36.28-.54.42-.22.35-.4.63-.63,1.01-.14.13-.28.26-.42.39-.34.59.32,1.49.69,1.7,1.27.74,2.1-.86,2.5-1.64.13-.24.4-.36.54-.57.51-.77.92-1.6,1.31-2.26.12-.1.24-.2.36-.3.06-.23.12-.46.18-.69.1-.18.35-.24.45-.39.12-.2,0-.42.09-.69.12-.33.36-.58.54-.86-.03-.69-.66-1.61-1.37-1.64Z"/>
      <path class="cls-1" d="M106.36,65.29c-.24-.39-.41-.74-.69-1.1-.19-.17-.38-.34-.57-.51-.4-.83-1.09-1.56-1.58-2.41-.21-.19-.42-.38-.63-.57-.17-.27-.18-.62-.45-.77-.32-.09-.64-.18-.95-.27-.26.25-.65.19-.83.54-.44.85.33,1.52.54,2,.03.2.06.4.09.6.1.19.35.31.45.48.16.28.19.7.33.92.22.35.68.67.89,1.01.39.65.99,1.34,1.49,1.91.39.27.77.54,1.16.8,1.22,0,1.69-1.33,1.16-2.23-.14-.13-.28-.26-.42-.39Z"/>
      <path class="cls-1" d="M55.14,76.11c-.47.5-1.19.35-1.73.72-.58.4-.78.79-1.13,1.37.05.58.58.63.69,1.13.25.03,1.4.24,1.73.09.2-.09.38-.35.57-.45.34-.06.68-.12,1.01-.18.77-.4,2.02-1.55,1.01-2.5-.28-.34-1.55-.19-2.15-.18Z"/>
      <path class="cls-1" d="M84.79,79.5c.11-.19.11-1.24,0-1.43-.1-.17-.36-.23-.51-.36-.07-.12-.14-.24-.21-.36-.24-.18-.58-.06-.89-.18-.25-.09-.46-.35-.72-.45-.36-.03-.72-.06-1.07-.09-.74-.29-1.37-.56-2.47-.54-.33.36-.84.51-1.07.98-.29.58.23,1.13.6,1.37,1.03.68,2.44.87,3.64,1.4.72.32,2.4.2,2.71-.36Z"/>
      <path class="cls-1" d="M36.96,76.64c-.13.13-.38.08-.54.18-.17.11-.22.43-.39.54-.17.11-.31.11-.42.27-.51.28.4,1.46.63,1.7.25.27.69.2,1.07.36.24.12.48.24.72.36.2-.03.4-.06.6-.09,1.14,0,2.25-.27,2.44-1.46-.85-1.4-1.85-1.88-4.11-1.85Z"/>
      <path class="cls-1" d="M97.21,76.64c-.14.16-.41.07-.6.18-.16.09-.34.28-.54.36-.33.03-.66.06-.98.09-.73.27-1.83.48-2.21,1.1-.1.17-.59.58-.36,1.04.24.47,1,.94,1.49,1.16.53.24.94-.27,1.19-.36.47-.17,1.13-.08,1.58-.27.28-.11.54-.35.8-.45.24-.09.55.04.8-.09.22-.11.49-.29.72-.45.39-.27.53-.72.77-1.13-.19-.27-.49-.97-.72-1.1-.1-.06-1.61-.09-1.97-.09Z"/>
      <path class="cls-1" d="M47.42,77.27c-.81.96-4.04-.2-3.28,2.32.08.27,0,.46.24.63.54.37,1.5.5,2.12.27.21-.08.48.06.57.09.28.1.56-.12.72-.18h.45c.17-.09.39-.28.57-.36.16-.03.32-.06.48-.09.43-.25.75-1.5.24-1.97-.15-.19-1.64-.73-2.09-.72Z"/>
      <path class="cls-1" d="M83.6,88.14c-.31.33-.68.44-.89.89v.33s-.15.09-.09.24c.61,1.46,1.71,1.11,2.44.03-.16-.58-.51-1.5-1.46-1.49Z"/>
      <path class="cls-1" d="M95.4,106.44c-.12-.29-.24-.58-.36-.86-.38-.44-.83-.47-1.07-1.1-.55-1.42,1.5-2.13,1.88-2.77.11-.18.2-.45.27-.63.3-.77-.41-2.48-.63-2.86-.34-.61-.23-1.49-.72-1.94-.16-.15-1.67-.69-2.15-.51-.24.09-.61.64-1.01.51-.27-.09-.49-.31-.72-.42-.44-.21-1.08-.01-1.58-.18-.17-.06-.36-.18-.57-.24-.1.07-.32.2-.42.24-.61.03-1.21.06-1.82.09-.2.07-.41.27-.66.27h-.15c-.14-.09-.28-.18-.42-.27-.52-.18-1.83.33-2.06.51-.44.33-.77,1.58-.98,2.15-.12.32-.03.67-.18.95-.11.21-.35.37-.42.54-.12.29,0,1.23.06,1.34.13.23.86,1.1,1.07,1.25.1.07.21.02.27.12.13.2.19.36.36.51.24.22.76.46.54,1.1-.27.42-.54.83-.8,1.25-.22.2-.55.29-.72.54-.52.79-.94,1.34-1.4,2.09,0,.63.48,1.23.89,1.4.22.09.39-.08.54-.09h.54c.76-.39,1.93-2.03,3.28-1.43.94.42,1.19,1.36,1.64,2.15.15.27.65.97,1.19.77.45-.17.81-.42.98-.86.06-.21.12-.42.18-.63.12-.07.24-.14.36-.21.43-.59.43-.82,1.28-1.13.33-.12.56.12.72.18.27.06.54.12.8.18.94.47,1.87,1.68,2.86.36.42-.56,0-1.53-.36-1.97-.12-.15-.44-.23-.54-.39ZM92.09,102.83v1.37c.11.23.42.88.27,1.28-.21.55-.83,1.01-1.37,1.25-.24.11-.47-.03-.69.09-.33.18-.6.5-1.01.63-.23.07-.96-.24-1.1-.36-.05-.09-.1-.18-.15-.27-1.01-.68-1.97-.77-2.47-2-.1-.24.04-.69.09-.8,0,0-.15-1.47-.18-1.52-.23-.45-2-2.06-1.67-2.92.26-.68.98-1.33,1.67-1.58.38-.14.86-.04,1.19-.18.6-.26,1.16.33,1.61-.09.44,0,.7.07.98.18.17.06.27-.07.33-.09.4-.17,1.05.09,1.25.18.56.24,1.08-.29,1.61-.09.19.07.3.27.45.36.2.06.4.12.6.18.42.27.58,1.36.36,2-.35.99-1.34,1.47-1.76,2.38Z"/>
    </g>
  </g>
</svg>