<?xml version="1.0" encoding="UTF-8"?>
<svg id="Layer_2" data-name="Layer 2" xmlns="http://www.w3.org/2000/svg" viewBox="0 0 218.95 117.08">
  <defs>
    <style>
      .cls-1 {
        fill-rule: evenodd;
      }
    </style>
  </defs>
  <g id="Layer_1-2" data-name="Layer 1">
    <g>
      <path class="cls-1" d="M52.47,103.85c1.06-.36,2.48-2,1.89-3.78-.29-.61-.58-1.23-.87-1.84-.03-.66-.06-1.32-.1-1.99-.29-1-1.09-1.91-1.79-2.52-.59-.51-1.56-.92-2.62-.92-.4.03-.81.06-1.21.1-1.25-.25-2.07-.82-3.34-1.07-1.36-.26-2.6.35-3.68-.15-.65-.52-1.29-1.03-1.94-1.55-.68-.32-1.36-.65-2.04-.97-.76-.27-1.59-.21-2.23-.58-1.27-.73-3.04-3.1-4.17-4.22-.66-.65-1.83-1.01-2.33-1.79-.43-.67-.38-1.69-.82-2.33-.57-.55-1.13-1.1-1.7-1.65-.48-.82-.97-1.65-1.45-2.47-.6-.61-1.2-1.23-1.79-1.84-.3-.53-.27-1.14-.48-1.79-.24-.52-.48-1.03-.73-1.55-.9-2.24,1.54-3.01.87-5.33-.46-1.58-2.1-2.02-2.76-3.34-.37-.73-.21-1.98-.24-3.05v-6.93c.47-1.56,2.56-1.4,3.01-3.01.51-1.82-.59-4.38.1-6.16.3-.78.83-1.8,1.5-2.23.71-.45,1.49-.75,1.94-1.45.4-.89.81-1.78,1.21-2.67.29-1.03.33-2.05.87-2.81.67-.93,2.35-.84,3.01-1.74.77-1.08.85-2.83,1.89-3.64.89-.69,2.68-.3,3.68-.87,1.06-.61,1.52-1.89,2.71-2.37.74-.08,1.49-.16,2.23-.24.61-.23,1.23-.45,1.84-.68.91-.52,1.42-1.84,2.42-2.18,1.46-.5,2.29.93,3.78.48.92-.48,1.84-.97,2.76-1.45,1.19-.34,2.65,1.19,3.54,1.45,1.75.52,3-1.03,4.9-.48.82.23,1.54.71,2.42.97h3.1c.73.18,1.7.93,2.81.58,1.69-.54,1.82-5.43,4.27-4.65,1.59.51.57,2.38.87,4.07.36,1.98.12,4.99,1.84,5.62,2.01.74,2-1.08,2.52-1.99.52-.9,1.83-.52,2.76-1.02.57-.6,1.13-1.2,1.7-1.79,1.36-1.02,2.99-1.36,3.83.39-.21,1.96-3.3,1.38-4.31,2.81-.68.96-1.1,3.47.29,3.97,1.35.49,1.94-1.05,3.05-1.21,1.05.43,1.5,1.4,1.45,2.91-.21.21-.42.42-.63.63-.89.42-1.83.18-2.13,1.16-.41,1.34.87,1.92,1.21,2.62.59,1.21.4,4.65,2.86,3.83,2.34-.78.77-3.56,1.41-5.72.6-2.03,1.5-.79,3.01-1.45,1.24-.55.89-1.94,2.81-1.94h.97c1.29.39.85,1.72,1.16,3.05.19.78,0,1.69-.15,2.33-.24,1.13-.3,6.62,0,7.37.94,2.33,3.62.8,4.41-.53.96-1.61.85-5.04.34-6.98-.19-.71.23-1.61.34-2.23.02-.69.03-1.39.05-2.08.18-.73.61-1.34.82-1.99.11-.78.23-1.55.34-2.33.16-.53.74-1.22.48-2.08-.52-1.74-2.8-1.25-3.78-2.47-.16-.31-.32-.61-.48-.92-.63-.87-1.76-1.4-2.18-2.47-.29-.75-.18-1.63-.58-2.33-.39-.68-1.22-1.04-1.7-1.65-.48-.74-.97-1.49-1.45-2.23-1.21-.44-2.42-.87-3.64-1.31-.66-.21-1.42.02-1.99-.24-1.59-.74-1.27-3.61-2.91-4.31-1.11-.48-2.31.39-3.39-.1-1.14-.51-1.87-1.49-2.91-2.04-.78-.41-1.89-.34-2.57-.82-.92-.66-1.48-1.85-2.62-2.28-1.52-.57-3.71.4-5.23-.24-1.22-.52-1.14-2.45-2.57-2.86-1.24-.36-1.98.5-2.71.82-.56.24-1.2.24-1.99.24h-1.07c-.97-.31-1.75-.91-2.67-1.21-.69-.23-2.75-.08-3.44-.1-.59.29-1.2.18-1.65.58-.63.56-.78,1.45-1.74,1.7-1.55.4-3.09-1-4.31-.15-1.36.95-.54,4.4-2.23,5.04-1.99.76-2.68-2.68-4.7-1.11-.87.67-.12,1.84-.39,3.05-.18.83-.75,2.89-1.21,3.49-.75.97-2.81.03-4.17.44-.85.25-1.61.77-2.57.97-.78.17-1.49-.1-2.04.24-2.02,1.26-.65,5.02-2.52,5.72-2.83,1.06-2.42-3.69-2.86-5.48-.18-.74-.63-2.04-1.74-1.36-1.06.65-.96,6.34-.63,8.29.18,1.05.3,2.85,0,3.83-.25.82-.72,1.42-.92,2.37-.24,1.14.35,1.99-.29,2.76-.46.55-1.59.23-2.37.48-.55.31-1.1.61-1.65.92-.47-.02-.94-.03-1.41-.05-2.05-.01-1.52-.45-2.04-2.04-.71-2.22-.72-3.88.63-5.67.79-1.05,2.79-.61,3.25-2.04-.27-.6-.04-1.16-.39-1.6-.33-.42-4.04-1.27-4.8-.92-1.41.65-.55,2.21-1.02,3.78-.25.85-.74,1.54-.97,2.57v3.1c-.35,1.23-.82,3.73-.1,4.99.23.39.9.82,1.36.97.95.32,1.56-.47,2.47-.24,1.87.46,3.77.93,2.37,3.25-.34.57-2.33,1.55-3.3,1.41-1.45-.22-2.98-1.27-3.97.39-.85,1.4.57,2.29.92,3.05.41.89-.35,1.84,0,2.86.79,2.32,1.24,5.9-1.41,6.54-1.22.29-2.5-1.55-2.71-2.42-.03-.63-.06-1.26-.1-1.89-.24-.77-.62-1.35-.78-2.33-.02-.48-.03-.97-.05-1.45-.3-.84-1.66-1.77-2.76-.97-.23.31-.45.61-.68.92-.28.83-.04,2.13.1,2.96.21,1.2-.39,2.44,0,3.59.54,1.58,1.92,1.36,2.62,2.42.13.48.26.97.39,1.45.36.88,1.21,1.15,1.79,1.79.21.27.42.55.63.82,1.25.98,3.22.44,2.47,3.44-.21.85-.93,3.06-2.23,2.67-.73-.22-1.41-1.04-2.62-.73-.81.21-1.08,1.11-1.79,1.36-.91.31-1.33.14-1.74.92.07.27.1.41.15.68.82.52,1.23-.01,2.13.24.64.18,1.26.73,1.74,1.11,1.32,1.04,1.34,3.35,2.81,4.27,1.04.64,3.06-.06,3.49,1.21-.03.95-.06,1.91-.1,2.86-.04,2.78.32,3.83-.73,5.77-.25.46-.36.93-.78,1.21-.95.65-2.47-.4-2.96.97-.13.38-.03.96.1,1.21.55,1.14,1.74.58,2.91.53.75.68,1.39,2.33,2.96,1.7.35-.14.67-.31.82-.63.77-1.57-1.02-2.87,1.11-3.59.26-.09.95-.2,1.36-.1,1.66.41,1.13,2.8,2.37,3.59.89.56,2.92.04,3.54.87.44.6.14,1.63.39,2.47.21.69.64,1.27.82,2.08.49,2.12-.85,3.35-1.16,4.99-.43,2.29.88,5.69,2.33,6.11.61.17.93-.2,1.41-.24.73,1.19,1.77,4.67,2.96,5.14,1.43.56,3.42-2.63,4.8-1.02.87,1.01-.73,6.6,1.94,5.67,1.24-.43,1.32-6.42.63-7.8-.24-.48-.81-.69-1.21-1.02-.15-.24-.29-.48-.44-.73.24-1.16,1.68-.96,2.28-1.74.9-1.18-.1-2.44.44-3.78.42-1.04,2.09-1.15,2.67-.19.98,1.63-1.57,2.7-1.89,3.78-.23.76.14,5.26.34,5.62.41.73,1.35,1.04,1.6,1.94.33,1.2-.26,2.36.29,3.15,1.4,2,3.18-.95,4.7,0,1.54.96-.09,5.35,3.2,4.36,1.41-.42.7-1.38,1.07-2.76.3-1.11,1.18-2.33.92-3.88-.36-2.11-2.04-4.14-.24-6.16,1.21.07,1.53,1.77,3.2,1.21Z"/>
      <path class="cls-1" d="M218.77,57.03c-.24-.55-.48-1.1-.73-1.65-.21-.72.67-2.27.82-3.05.4-2.06-.77-3.28-1.16-4.56v-5.19c.09-.44.17-1.14,0-1.65-.46-1.36-2.51-.98-3.01-2.28-.11-.48-.23-.97-.34-1.45-.57-1.39-1.34-2.69-2.04-4.07-.47-.94-1.15-1.82-1.45-2.91-.4-1.45.43-3.53-.34-4.7-.57-.87-2.58-.35-3.39-.97-1-.75-1.24-2.71-2.04-3.68-.72-.87-2.34-.61-3.3-1.26-1.09-.73-1.26-2.58-2.04-3.64-.9-1.21-2.63-1.36-3.83-2.28-.87-.67-.99-2.15-1.84-2.81-.98-.76-2.59-.84-3.78-1.41-1.72-.81-2.92-2.2-4.7-3.01-.82-.37-2.24-.11-3.15-.48-1.22-.51-1.64-2.01-2.86-2.52-1.34-.56-2.13.77-3.39.39-.97-.48-1.94-.97-2.91-1.45-.5-.11-1-.23-1.5-.34-.52-.24-1.03-.48-1.55-.73-.99-.05-1.97-.1-2.96-.15-.63-.31-1.26-.61-1.89-.92-1.44-.05-2.88-.1-4.31-.15-.31.08-.61.16-.92.24-.48.27-.97.55-1.45.82-1.54.46-3.04-.25-4.17.63-1.59,1.23-.32,3.95-2.28,4.51-.35.1-.95-.03-1.16-.1-.7-.21-1.05-.4-1.26-1.07-.45-1.46.9-2.31-.73-3.15-.27-.14-.91-.23-1.31-.1-1.31.45-1.59,2.46-1.26,4.22.03.63.06,1.26.1,1.89.29.88.95,1.83.39,2.96-.7,1.4-1.62.77-3.2,1.21-1.04.29-3.43,3.37-4.75,1.31-1.1-1.71,1.12-4.43-.73-6.25-2.19-.41-1.57,1.9-1.99,3.44-.24.65-.48,1.29-.73,1.94-.16.62.05,1.57.15,1.99v4.8c-.11.41-.46.94-.78,1.16-1.55,1.09-3.78-.1-4.99-.48-.87-.28-1.68-.21-2.18-.82-.48-.59-.82-3.47-2.52-2.04-1.3,1.1.03,3.49-.44,5.38-.24.96-.72,1.75-.97,2.62-.28.96.26,1.87,0,2.96-.2.83-.48,1.76-.82,2.62-1.03,2.56-4.3-.88-6.79.1-.44.17-.79.27-1.02.63-1.88,3.04,3.16,3.32,1.79,6.4-.18.4-.6.57-.87.87-2-.02-2.06-1.24-3.39-1.7-2.09-.71-3.97,3.73-3.68,5.62.28,1.88,1.64,2.15,2.08,3.68.54,1.89-1.44,2.44-.82,4.31.2.62,1.04,1.35.73,2.37-.29.95-.89,2.02-1.84,2.33-1.12.36-1.96-.12-2.57.68-.74.97-.14,1.83-.39,3.05-.15.76-.5,1.28-.73,1.89-.3.78-.4,1.72-.63,2.37-1.31.84-2.98-.57-3.25-1.84-.18-.86.68-1.88.87-2.62.49-1.84-.41-3.84-.87-4.8-.5-1.04-1.87-2.66-3.49-1.5-.58.41-.74,1.12-1.11,1.74-.43.74-1.23,1.23-1.55,2.08-.45,1.22.59,2.28.92,2.86,1.19,2.11,3.14,3.54,3.88,6.11.34,1.19-.86,2.86-1.07,3.93-.23,1.18.32,2.3,0,3.39-.31,1.07-1.48,3.33-3.15,2.13-.57-.41-.77-1.3-1.5-1.55h-1.11l-3.01,2.18c-.91,1.6,1.02,2.05,1.55,2.71.38.48.43,1.02.63,1.7.12.4.29.95.1,1.41-.74,1.74-4.4-.32-5.43,1.07-1.08,1.46.77,3.17.19,4.99-.57,1.8-2.02,1.08-3.39,1.89-1.85,1.1-1.38,3.85-4.46,3.83-.26-.22-.62-.37-.73-.73-.62-2.02,1.24-6.12-.97-6.83-.51-.17-1.02.11-1.26.24-2.16,1.16-.35,4.83-1.31,7.03-.5,1.14-1.3,2.13-1.65,3.39-.38,1.36.7,3.7-.48,4.41-1.67,1.01-2.52-1.24-4.41-.73-.6.16-1.11.63-1.5,1.02-.46.46-1.04,1-1.26,1.7-.39,1.25.24,3.92-2.08,3.15-1.23-.41-.56-1.84-.97-3.1-.44-1.36-3.71-2.17-2.28-4.02.92-1.19,3.53.03,4.31-1.55,1.33-2.68-2.77-4.93-5.14-4.12-1.95.66-3.49,1.79-2.96,4.65.03.45.06.9.1,1.36.24.74.68,1.48.87,2.33.17.74.18,3.31,0,3.83-.31.87-.78,1.43-.97,2.57-.24,1.47.54,3.19.1,4.7-.59,2.02-3.57.06-4.17,1.89-.44,1.34,1.1,2.22,1.84,2.47,3.21,1.09,4.84-1.23,6.98-1.94,1.27-.42,2.73.28,4.02-.1,1.26-.37,1.85-1.51,3.1-1.94,1-.03,2-.06,3.01-.1.5-.24,1-.48,1.5-.73.71-.08,1.42-.16,2.13-.24.6-.24,1.2-.48,1.79-.73.53-.11,1.07-.23,1.6-.34,1.29-.56,1.84-1.88,3.01-2.52,1.17-.65,2.74-.55,3.88-1.36.91-.65,1.14-2.02,2.08-2.62,1.13-.55,2.26-1.1,3.39-1.65.96-.59,1.48-1.78,2.52-2.28.82-.39,1.93-.33,2.62-.82,1.52-1.1,3.11-3.18,3.88-5.04.6-1.47.7-2.86,1.45-4.07,1.03-1.65,2.92-2.53,4.02-4.07.83-1.15.77-4.84,3.34-4.07,1.54.46,1.54,2.54,3.1,3.01,2.27.68,3-1.12,4.27-1.7,1.29-.59,2.87-.42,3.44-1.7.58-1.29.83-4.58,1.84-5.23.51-.33,1.24-.15,1.94-.34,1.41-.39,1.91-1,2.71.58-.09.97-.86,1.14-1.26,1.79-.24.4-1.52,4.28-1.41,4.7.24.39.48.78.73,1.16.34.71.4,1.52,1.16,1.79.82.29,1.37-.42,1.55-.82.48-1.08-.17-2.35.15-3.73.26-1.14.59-2.37.97-3.44.67-.19.8.14,1.26.48.54.4,1.05.73,1.26,1.45.29.99-.09,2,.39,2.71.91,1.34,2.28.88,3.64,1.65,1.36.78.94,3.76,2.08,4.8.85.77,1.97,0,3.25,0,1.36.92,2.68,5.29,3.34,7.12.21.58.41,1.68.15,2.37-.38.99-1.63.79-2.37,1.41-.67.55-1.01,2.38-1.21,3.34-.25,1.21.88,1.88,1.26,2.57.75,1.36.73,3.31,1.45,4.7.51.98,1.77.71,2.71,1.26,1.1.64.99,2.7,2.91,2.37.62-.11,1-.24,1.26-.68,1.19-2.01-1.2-4.68,1.5-5.82.28-.12.79-.4,1.31-.24,2.6.8-.55,6.17,1.5,7.46,3.05,1.92,2.19-3.24,4.46-2.52,1.45.46,1.41,2.47,3.01,2.96,1.48.45,5.87.08,7.08-.24,1.51-.4,1.72,1.58,3.3,1.11,1.98-.59,2.86-2.41,4.41-3.39.78-.5,2.26-.22,3.2-.58,1.27-.5,1.99-1.79,3.39-2.28,1.59-.55,3.44.77,5.04,0,1.19-.57,1.1-2.42,2.18-3.1.85-.54,2.59-.06,3.44-.58,1.26-.77,1.36-2.91,2.71-3.49,1.22-.52,2.61.04,3.64-.73,1.16-.86.82-2.99,1.79-4.02.45-.47,1.01-.99,1.7-1.21.78-.25,1.5-.17,2.04-.63,1.3-1.11.94-3.18,1.79-4.51.61-.95,2.18-.67,3.05-1.36,1.2-.94,1.08-2.88,1.74-4.17.52-.69,1.03-1.39,1.55-2.08.15-1,.29-2,.44-3.01.21-.42.42-.84.63-1.26.16-.68.32-1.36.48-2.04.54-1.14,1.28-2.04,1.65-3.39v-6.64c.42-1.38,1.54-2.32,1.94-3.64.41-1.37.1-4.06.1-5.67v-1.74Z"/>
      <path class="cls-1" d="M34.88,9.53c1.52-.49,1.87-5.19-1.31-5.09-.48.4-.97.57-1.21,1.21-.58,1.56.95,4.38,2.52,3.88Z"/>
      <path class="cls-1" d="M132.3,17.58c1.62-.62,1.48-4.03-1.07-3.93-.43.39-.99.56-1.21,1.16-.54,1.47.6,3.4,2.28,2.76Z"/>
      <path class="cls-1" d="M17.57,17.19c.64.01.78-.17,1.07-.48v-1.02c-.15-.45-.48-.61-1.11-.58-.68.61-.96,1.55.05,2.08Z"/>
      <path class="cls-1" d="M6.33,37.64c.72-.25,2.08-2.56,1.6-3.83-.33-.87-2.28-2.03-3.59-1.99-.55.41-1.16.5-1.41,1.21-.66,1.89,1.26,5.36,3.39,4.6Z"/>
      <path class="cls-1" d="M102.59,44.48c-.46.65-.29,2.18-.29,3.25,0,2.41.59,6.34,2.37,6.93.55.18,1.39,0,1.74-.19,1.33-.7,1.38-3.06.97-4.75-.08-.33-.39-.94-.24-1.45.34-1.17,3.36-5.23-.44-5.14-.95.79-3.48.46-4.12,1.36Z"/>
      <path class="cls-1" d="M92.56,54.8c.23.14.74.41,1.26.24,2.17-.7-.82-5.86-1.07-6.69-.46-1.55.99-3.83-1.36-3.83-.52.49-1.14.86-.92,2.08.18,1.03.79,1.52,1.02,2.37.18.66-.1,1.47-.19,1.99-.32,1.79.28,3.26,1.26,3.83Z"/>
      <path class="cls-1" d="M.76,70.99c-.57.5-1.32,2.12-.1,2.57,1.76.64,1.57-1.61,1.16-2.33-.28-.19-.55-.26-1.07-.24Z"/>
      <path class="cls-1" d="M5.12,73.8c-.39.14-.74.14-.97.44-.69.89-.38,3.89,1.31,3.3,1.53-.54,2-3.73-.34-3.73Z"/>
      <path class="cls-1" d="M121.1,82.09c-.26.15-.52.29-.78.44-.54.67-.14,1.84.39,2.18,1.32.84,2.31-.18,2.67-1.16-.02-1.08-1.1-1.5-2.28-1.45Z"/>
      <path class="cls-1" d="M17.48,86.64c-.3-.25-.78-.25-1.36-.24-.54.57-1.09.76-1.36,1.65-.23.8.06,1.83-.24,2.52-.33.74-1.74,1.48-1.07,2.86.44.9,1.22.53,2.33.82.51.14,1.33.65,2.13.39,2.28-.76.74-4.62.29-6.11-.21-.71-.23-1.48-.73-1.89Z"/>
      <path class="cls-1" d="M130.41,88.05c-.24.05-.48.1-.73.15-.98.52-.66,2.36-1.5,3.01-.89.67-1.79,0-2.47,1.11,0,.65.22.95.58,1.21.79.56,5.59,1.39,6.4.78.57-.43.69-1.85.53-2.96-.25-1.79-.73-3.33-2.81-3.3Z"/>
      <path class="cls-1" d="M118.1,88.44c-.47.41-1.02.52-1.26,1.16-.49,1.31,1.4,2.46,2.57,2.04,1.49-.54,1.35-3.31-1.31-3.2Z"/>
      <path class="cls-1" d="M139.04,96.53c.05-.86.1-1.71.15-2.57-.15-.29-.29-.58-.44-.87-.29-.35-.84-.35-1.5-.34-.39.4-.86.57-1.11,1.11-.92,1.99-.87,6.44,1.07,7.22h1.21c.23-.24.56-.43.68-.78.42-1.2-.25-2.45-.05-3.78Z"/>
      <path class="cls-1" d="M120.86,93.82c-.84.82-.9,2.47.82,2.13.61-.77.51-2.18-.82-2.13Z"/>
      <path class="cls-1" d="M125.03,96c-.42.34-.91.51-1.11,1.07-.63,1.72.66,3.83,2.47,3.3,1.64-.48,1.66-4.47-1.36-4.36Z"/>
      <path class="cls-1" d="M130.17,100.36c-2.62.91-1.08,3.97.92,3.25,1.66-.6.85-3.09-.92-3.25Z"/>
      <path class="cls-1" d="M54.12,109.08c-.35-.27-.52-.41-1.21-.39-.55.53-.61.91-.44,1.84,1.09.82,1.93-.03,1.65-1.45Z"/>
    </g>
  </g>
</svg>