<?xml version="1.0" encoding="UTF-8"?>
<svg id="Layer_2" data-name="Layer 2" xmlns="http://www.w3.org/2000/svg" viewBox="0 0 96.91 141.91">
  <defs>
    <style>
      .cls-1 {
        fill-rule: evenodd;
      }
    </style>
  </defs>
  <g id="Layer_1-2" data-name="Layer 1">
    <g>
      <path class="cls-1" d="M21.88,42.81c.12.04.25.08.37.13.26.15.43.31.81.37h3.06c.36.06.62.18.95.24h.88c.28.07.48.24.79.31.47,0,.93.02,1.4.03.36.06.59.25.89.34.25.03.5.06.75.08.21.05.42.09.64.14.19,0,.39.02.58.03.28.08.44.31.71.4.35.02.71.05,1.06.07.29.08.59.15.88.23.2.11.4.23.59.34.37.11.72.06,1.03.18.2.1.4.21.59.31.21.06.42.12.62.18.17.1.33.2.5.3.23.09.5.09.69.21.13.13.25.26.38.4.14.07.27.14.41.21.14.12.27.24.41.35.19.12.4.2.54.37.2.26.42.51.61.76.11.15.18.35.33.45.17.09.34.18.51.27.21.15.36.38.64.47.66.22,1.47.4,1.8.95.21.34.17,1.13.1,1.61-.07.45,0,.98.04,1.37.02.27-.06.54.01.78.08.25.4.29.5.54.03.23.07.45.1.68.1.3.37.49.45.82.03.29.06.59.08.88.13.22.26.44.4.67.05.31.1.62.16.93.09.25.31.37.38.65.24.98.16,2.3.16,3.5,0,.3-.06.78-.03,1.02.12.79.44.95.57,1.73v1.57c.02.79.04,1.58.06,2.37-.01.3-.03.59-.04.89.07.5.35.67.45,1.09.12.46.02,1.05.17,1.46.06.15.19.24.28.35.18.24.3.82.23,1.27-.11.67-.44.81-.57,1.39-.11.49-.07,1.15-.07,1.71,0,.86,0,1.72-.01,2.58,0,.65-.06,1.4.18,1.81.2.33.43.54.93.54.08,0,.16,0,.24.01.1-.03.73-.67.78-.76.07-.26.13-.52.2-.78.1-.22.29-.4.34-.67.12-.6-.35-.9-.44-1.4v-1.33c-.16-1-.17-2.36,0-3.33.08-.48.42-.53.5-1.02,0-.42,0-.84-.01-1.26,0-1.05,0-2.1,0-3.09,0-.48,0-.95.01-1.43.08-.37.46-.4.55-.74,0-.46,0-.92-.01-1.37,0-.42,0-.83.01-1.25.09-.58.06-1.22.16-1.84v-1.39c.07-.32.33-.46.4-.79.07-.36-.06-.78.06-1.06.1-.24.41-.29.48-.55v-1.13c.09-.52.31-.96.45-1.46.04-.41.09-.82.13-1.23.08-.27.34-.34.47-.55.04-.22.09-.44.13-.67.15-.16.29-.32.44-.48.08-.31.15-.62.23-.93.11-.18.22-.37.33-.55.1-.26.09-.55.24-.75.2-.28.51-.51.74-.76.62-.72,1.26-1.32,2.01-1.91.22-.17.31-.42.48-.65.25-.21.51-.42.76-.64.18-.13.49-.11.68-.24.12-.13.25-.25.37-.38.32-.2.63-.4.95-.59.16-.05.32-.09.48-.14.36-.15.69-.36,1.09-.47.28-.04.57-.08.85-.11.3-.08.49-.33.81-.42.28-.03.56-.06.84-.08.27-.08.37-.37.65-.45.35-.02.7-.04,1.05-.06.16-.05.32-.1.48-.16.21-.03.42-.07.64-.1.18-.07.31-.23.54-.28.36-.01.72-.03,1.08-.04.5-.09,1.01-.19,1.57-.28.46,0,.92,0,1.37-.01.72-.13,1.69-.39,2.66-.23.42.07.83.13,1.25.2.33.01.65.03.98.04.32,0,.63.02.95.03.35-.09.7-.18,1.05-.27.27,0,.54-.02.81-.03.45-.1,1.55-1.26,1.25-1.93-.09-.21-.58-.73-.79-.79-.27-.08-.52-.03-.75-.11-.29-.1-.56-.26-.89-.33-.45-.09-1.01-.04-1.52-.04-1.11,0-2.14-.01-3.23-.01-.55,0-1.1,0-1.66-.01-.36-.06-.61-.21-.95-.27-.16.01-.31.03-.47.04-.6,0-1.2-.02-1.8-.03-.34-.1-.67-.2-1.01-.3-.35,0-.71,0-1.06-.01-.28-.07-.44-.27-.71-.34-.5-.14-.98-.1-1.49-.25-.31-.09-.52-.33-.84-.42-.43-.06-.86-.12-1.29-.18-.25-.08-.37-.31-.61-.38-.24-.08-.55-.04-.76-.13-.18-.12-.36-.25-.54-.37-.2-.11-.45-.09-.64-.2-.13-.11-.26-.22-.4-.33-.19-.09-.38-.18-.57-.27-.09-.1-.19-.21-.28-.31-.21-.1-.42-.2-.62-.3-.22-.17-.34-.43-.51-.65-.33-.3-.65-.59-.98-.89-.13-.14-.26-.28-.4-.42-.11-.16-.22-.32-.33-.48-.09-.07-.19-.13-.28-.2-.29-.23-.47-.54-.69-.84-.15-.14-.3-.27-.45-.41-.06-.24-.12-.48-.18-.72-.1-.26-.26-.49-.34-.79-.07-.28-.03-.61-.16-.84-.11-.1-.22-.21-.33-.31-.13-.16-.19-.37-.31-.54-.1-.14-.25-.23-.33-.41-.16-.38-.11-.86-.24-1.29-.1-.33-.29-.58-.37-.95,0-.3-.02-.59-.03-.89-.07-.27-.4-.31-.5-.55-.13-.33.02-.79-.07-1.16-.07-.27-.31-.43-.37-.74-.09-.48-.03-1.19.07-1.6.06-.23.21-.52.17-.82-.05-.4-.16-.65-.23-1.02v-1.06c-.06-.34-.11-.69-.17-1.03,0-1.04,0-2.09-.01-3.13-.04-.33-.09-.66-.13-.99-.08-.49.07-.82-.03-1.26-.09-.4-.31-.65-.38-1.06,0-.37,0-.75-.01-1.12-.08-.3-.3-.47-.41-.74-.11-.28-.14-1.73-.06-2.1.09-.38.38-.58.47-.96.07-.3.03-1.98-.06-2.21-.11-.28-.36-.4-.42-.74-.11-.6.08-1.21-.04-1.76-.09-.38-.26-.55-.44-.81-.2-.28-.28-.48-.75-.51-.33.12-.64.01-.82.27-.25.35-.18,1.59-.01,2.07.13.37.54.57.42,1.19-.07.41-.37.56-.47.93,0,.17-.02.34-.03.51-.11.68-.15,1.57-.1,2.38v.91c-.07.42-.28.7-.38,1.06,0,.14-.02.28-.03.42-.14.74.1,1.74-.03,2.58-.12.73-.06,1.63-.06,2.45v.84c-.11.71-.31,1.17-.42,1.91-.09.54.08,1.04.16,1.47.03.37.07.74.1,1.1.04.22.11.53.06.81-.06.33-.32.5-.4.81-.14.58.04,1.3-.11,1.83-.08.27-.34.37-.44.59-.13.28-.04.75-.16,1.03-.1.25-.35.39-.42.65-.02.27-.05.55-.07.82-.13.26-.25.53-.38.79-.08.37-.15.75-.23,1.12-.09.22-.33.32-.41.54-.11.31,0,.74-.07,1.09-.07.34-.31.49-.42.76-.06.19-.12.38-.18.57-.12.1-.24.21-.35.31-.1.16-.21.32-.31.48-.09.09-.19.18-.28.27-.06.21-.11.42-.17.62-.08.08-.16.16-.24.24-.08.12-.17.24-.25.35-.08.05-.17.1-.25.16-.14.1-.22.23-.33.37-.13.1-.26.21-.4.31-.26.23-.48.55-.69.82-.29.36-.7.59-1.08.86-.36.25-.69.6-1.08.84-.24.14-.62.12-.88.25-.22.11-.3.35-.58.42-.22.01-.44.03-.67.04-.23.13-.45.26-.68.4-.33.07-.65.13-.98.2-.28.09-.46.33-.76.41-.3.02-.6.05-.91.07-.45.11-.91.38-1.35.51-.27.03-.54.06-.81.09-.21.06-.37.23-.61.28-.31,0-.62,0-.93-.01-.6.08-1.21.16-1.81.24-.37,0-.74,0-1.1.01-.48.08-.76.33-1.25.41h-2.44c-.17.04-.33.09-.5.13-.23,0-.46.02-.69.03-.27.06-.39.3-.59.42-.17.1-.42.14-.55.28-.07.08-.18.29-.14.45.08.35.46.84.74,1.01Z"/>
      <path class="cls-1" d="M75.7,19.48c.24.09.52-.07.62-.14.26-.17.61-.58.51-1.08-.05-.27-.21-.56-.14-.95.08-.46.3-.72.57-.99.14-.14.33-.32.52-.4.55-.23,1.89-.42,2.01-.99.05-.22-.24-.25-.44-.21-.24.04-.53.15-.82.07-.25-.07-.43-.22-.74-.23-.09.02-.18.05-.27.07-.26.12-.85.51-.99.74-.2.32-.42,1.08-.52,1.47-.08.31-.05.65-.2.88-.28.42-.82.83-.42,1.43.08.12.17.27.31.33Z"/>
      <path class="cls-1" d="M82.74,15.91s.06-.02.08-.03c.15-.23.1-.43-.11-.58h-.17c-.06.04-.1.04-.14.1-.07.31.12.44.34.51Z"/>
      <path class="cls-1" d="M67.58,16.77c.3.09.95-.37,1.03-.57.13-.29-.03-.56-.35-.55-.33.22-.81.44-.86.92.05.1.07.16.18.2Z"/>
      <path class="cls-1" d="M69.94,19.79c.19-.08.35-.22.61-.27.58-.1,1.19.16,1.46-.25.31-.48-.91-1.19-1.26-1.2-.13.02-.26.05-.4.07-.09.08-.19.16-.28.24-.5.32-1.08.71-.55,1.42.14.03.28.06.42,0Z"/>
      <path class="cls-1" d="M66.22,18.19v-.03s-.02-.02-.03-.03h-.04v.03s.02.03.04.04c0,0,.02,0,.03-.01Z"/>
      <path class="cls-1" d="M64.45,19.18c.2-.01.5-.25.38-.51-.03-.04-.06-.09-.08-.13-.08-.01-.15-.03-.23-.04-.13.09-.45.25-.28.52.04.09.13.12.21.16Z"/>
      <path class="cls-1" d="M83.9,21.23c.16.07.41.11.55.14.09-.06.18-.09.23-.2.21-.5-.42-1.13-.79-1.16-.27.23-.41,1.02.01,1.22Z"/>
      <path class="cls-1" d="M81.5,22.04c.32.29,1.05.22,1.35-.03.13-.11.2-.29.27-.45-.02-.15-1.04-.8-1.27-.81-.49.27-.91.76-.34,1.29Z"/>
      <path class="cls-1" d="M69.53,21.21c-.06.08-.11.15-.17.23-.08.23.18,1.05.31,1.16.07.06.21.07.33.08.32-.26,1.1-.77,1.18-1.22-.23-.35-1.1-.23-1.64-.25Z"/>
      <path class="cls-1" d="M56.74,23.2c.21-.19.35-.33.48-.59,0-.17-.07-.2-.11-.31-.07-.02-.12-.04-.23-.04-.25.1-.51.23-.64.45-.2.34.16.51.5.5Z"/>
      <path class="cls-1" d="M64.94,23.61c.82,0,1.39-.11,1.87-.44.13-.09.4-.33.27-.57-.11-.22-.49-.22-.84-.21-.62.25-1.65.1-2.17.47-.16.11-.36.38-.17.62.17.22.67.13,1.03.13Z"/>
      <path class="cls-1" d="M92.17,24.01c.37-.35-.09-.87-.54-.86-.22.25-.03.57.1.78.15.03.29.06.44.08Z"/>
      <path class="cls-1" d="M89.92,25.4c.1.12.73.41.89.47.29.1.55-.23.55-.51-.26-.29-.61-.46-.92-.71-.22-.17-.29-.48-.5-.65-.1-.08-.31-.1-.48-.1-.35.31-.03.59.16.82.1.23.2.45.3.68Z"/>
      <path class="cls-1" d="M75.2,26.67c-.04.24.07.53.13.71.08.24.23,1.28.65.91.19-.12-.09-.9.03-1.25.13-.4.48-.67.58-1.09.07-.29-.13-.45-.21-.64-.22-.5-.43-1.13-1.15-1.12-.65.55.05.88.16,1.53.06.39-.13.65-.18.95Z"/>
      <path class="cls-1" d="M81.94,24.96c-.06.02-.11.04-.17.06-.27.14-.2.58-.04.78.16.2.47.29.69.42.33.2.69.41.99.64.32.24.34.69.74.88.54-.06,1.28-.65.82-1.19-.21-.14-.42-.27-.64-.41-.32-.25-.65-.58-1.01-.79-.22-.07-.44-.14-.67-.21-.22-.08-.42-.17-.72-.17Z"/>
      <path class="cls-1" d="M70.09,31.14c.25-.08.88-.79.84-1.13-.04-.39-.36-.58-.52-.85-.17-.27-.15-.63-.59-.62-.37.24-.37.62-.61.98-.14.22-.41.37-.47.67-.08.36.98,1.08,1.36.96Z"/>
      <path class="cls-1" d="M80.24,33.7c.32.13.6-.35.93-.41.73-.13.91.72,1.4.58.72-.2.17-1.56.57-2.05.41-.52,1.37-.28,1.56-1.2-.12-.22-.12-.34-.48-.33-.34.22-.52.59-.99.68-.53.1-.87-.45-1.32-.21-.41.22-.46.83-.91,1.02-.34.14-.93-.1-1.18.06-.51.33-.02,1.7.41,1.87Z"/>
      <path class="cls-1" d="M60.04,33.29c.18.04.41-.12.48-.21.39-.51-.57-1.49-1.06-1.53-.28.12-.78.2-.65.67.05.12,1.1,1.05,1.23,1.08Z"/>
      <path class="cls-1" d="M72.75,37.4c.18.12,1.22.39,1.52.23.36-.2.4-.81.64-1.13.33-.44.98-.66,1.26-1.15.14-.24.07-.66.17-.92.14-.37.46-.58.57-.96.14-.49-.37-.54-.76-.52-.25.21-.47.41-.64.71-.12.21-.17.43-.31.61-.57.72-1.4,1.23-1.97,1.97-.14.18-.91.88-.47,1.18Z"/>
      <path class="cls-1" d="M69.11,34.21c0-.07,0-.13.01-.2-.04-.05-.08-.1-.11-.16-.06,0-.11-.02-.17-.03-.14.08-.23.11-.25.31.1.25.37.25.52.07Z"/>
      <path class="cls-1" d="M86.09,36.01c.12-.04.22-.07.27-.17.04-.07.04-.22,0-.28-.05-.11-.14-.18-.31-.17-.11.14-.17.2-.16.44.06.07.11.14.2.18Z"/>
      <path class="cls-1" d="M90.07,36.83c.1.08.1.22.16.35.05.13.17.23.27.33.28-.05.14-.44.04-.58-.08-.12-.21-.23-.25-.38-.02-.17-.04-.35-.06-.52-.12-.35-.55-.56-1.02-.55-.33.15-.35.1-.57.37.06.51,1.08.7,1.43.99Z"/>
      <path class="cls-1" d="M81.02,35.67c-.24.11-.41.14-.41.48.05.02.09.05.14.07.26-.01.47-.14.51-.37-.05-.06-.09-.11-.14-.17-.03,0-.07,0-.1-.01Z"/>
      <path class="cls-1" d="M79.7,36.48c-.38.16-1.11.6-1.12,1.1.21.16,1.12.26,1.39.13.27-.13.27-.95.28-1.23-.07-.04-.18-.04-.3-.06-.08.02-.17.04-.25.06Z"/>
      <path class="cls-1" d="M88.84,39.58c.25-.12.26-.62.01-.75-.16-.09-.33-.09-.51-.11-.32.3-.27.51-.03.85.17.04.36.09.52.01Z"/>
      <path class="cls-1" d="M86.86,40.51c.07-.04.12-.06.16-.14,0-.02,0-.05.01-.07-.07-.08-.12-.12-.28-.11-.04.04-.08.08-.11.11.02.13.1.19.23.21Z"/>
      <path class="cls-1" d="M89.08,43.53s.02,0,.03-.01c.32-.44-.62-.91-.78-1.25-.1-.05-.34-.04-.5-.04-.07.08-.12.16-.17.27,0,.14.05.3.13.38.16.18.98.66,1.29.65Z"/>
      <path class="cls-1" d="M90.97,44.71c.4.62,1.22-.56,1.33-.85-.02-.43-.41-.39-.68-.57-.25-.17-.36-.38-.79-.4-.02.02-.05.05-.07.07.03.23.21.35.25.59.08.45-.28.79-.04,1.15Z"/>
      <path class="cls-1" d="M86.67,46.48c.13.08.35.06.47-.01.09-.06.1-.15.16-.24.39-.66-.08-1.5-.59-1.71-.14,0-.28,0-.42-.01-.33.12-.59.24-.68.59-.06.26.87,1.26,1.08,1.39Z"/>
      <path class="cls-1" d="M90.24,46.04c.19-.26-.06-.57-.42-.55-.05.02-.09.05-.14.07,0,.08-.02.17-.03.25.13.16.3.32.59.23Z"/>
      <path class="cls-1" d="M79.51,46.93c.47,0,2.06-1.23.74-1.25-.39.24-1.03.21-1.01.85,0,.19.14.33.27.4Z"/>
      <path class="cls-1" d="M82.72,47.23c.15-.06.32-.12.51-.16.44-.07,1.06.1,1.27-.2.33-.45-.61-.87-.98-.88-.55.24-1.47.45-1.44,1.18.06.06.12.12.18.18.15-.04.3-.09.45-.13Z"/>
      <path class="cls-1" d="M70.79,46.29s-.07-.09-.1-.13c-.13,0-.25,0-.38-.01-.15.07-.34.06-.42.2.04.06.08.12.11.18.3.08.72.1.79-.24Z"/>
      <path class="cls-1" d="M33.03,47.47c.02-.08-.05-.21-.1-.27-.12-.02-.25-.05-.37-.07-.18.1-.38.14-.54.25-.51.38-.96,1-1.29,1.57-.09.24-.19.48-.28.72-.11.13-.23.25-.34.38-.31.47-.5.95-.78,1.46-.08.14-.17.27-.25.41-.08.26-.17.53-.25.79-.31.34-.62.68-.93,1.02-.5.77-.85,1.69-1.53,2.28-.23.29-.45.59-.68.88-.08.19-.16.39-.24.58-.08.09-.15.19-.23.28-.18.33-.06.7.18.86.59.41,1.05.09,1.52-.2.25-.12.51-.24.76-.35.39-.26.77-.64,1.15-.92.37-.27,1.08-.48,1.35-.82.2-.25.16-.67.27-1.02.11-.21.22-.42.33-.62.12-.5-.6-.69-.33-1.35.26-.34.53-.67.79-1.01.22-.34.18-.92.42-1.23.2-.25.79-.67.89-.91.29-.66-.25-1.19-.11-1.9.09-.44.47-.49.59-.84Z"/>
      <path class="cls-1" d="M77.42,47.57c0-.15-.06-.22-.17-.27-.22-.08-.56.06-.82.06-.63,0-1.17-.07-1.71-.11-.08.07-.19.08-.24.18,0,.03,0,.07-.01.1.45.65,2.53.9,2.96.04Z"/>
      <path class="cls-1" d="M70.35,52.4c-.25-.1-.4-.32-.59-.48-.19-.16-.47-.19-.72-.3-.15-.06-.29-.2-.54-.16-.26.05-.49.2-.79.25-.59.1-.9-.17-1.46.01-.29.09-.43.32-.65.48-.52.38-1.45,1.22-1.7,1.81-.28.67-.22,1.43.28,1.83.64.5,1.89-.31,2.37-.45.24-.06.48-.11.72-.17.14-.09.28-.19.42-.28.28-.12.61-.13.85-.28.41-.26.74-.64,1.13-.89.29-.18.7-.22.98-.4.16-.12.32-.25.48-.37.07-.12.14-.25.21-.37.37-.33.87-.2,1.12-.76.4-.89-.9-.79-1.03-1.36-.19-.79.89-.55,1.13-.92.07-.11.07-.36,0-.48-.19-.33-.5-.56-.65-.92-.13-.31-.16-.62-.42-.79-.12-.08-.36-.06-.55-.06-.3.19-.78.61-.92.93-.14.31-.15.74-.42.92-.29.19-.83.07-1.18.21-.13.1-.26.2-.4.3-.11.09-.39.26-.23.48.07.1.33.08.44.03.12-.08.25-.16.37-.24.3-.13.93-.15,1.35-.08.5.08,1.06.47,1.18.91,0,.17.02.35.03.52.08.27.27.7.06,1.01-.12.18-.63.16-.85.07Z"/>
      <path class="cls-1" d="M60.08,54.44c-.19.08-.38.15-.57.23-.09.09-.19.18-.28.27-.17.1-.35.2-.52.3-.27.21-.48.52-.75.74-.49.39-.95.9-1.35,1.39-.16.14-.31.28-.47.42-.11.17-.23.33-.34.5-.1.11-.2.22-.3.33-.16.34-.1,1.04-.23,1.44-.12.32-.24.63-.35.95-.04.3-.08.6-.11.91-.04.22-.12.62,0,.84,0,.01.02.03.03.04.43-.02.66-.48,1.01-.62.25-.06.49-.11.74-.17.34-.1.57-.31.91-.41.3-.09.65-.08.89-.23.73-.45,1.28-1.19,1.76-1.9.08-.16.16-.31.24-.47.4-.47,1.59-1.23,1.7-1.87.11-.61-.38-.98-.59-1.3-.1-.21-.2-.42-.3-.62-.13-.2-.31-.36-.37-.65-.18-.91.92-1.17,1.25-1.64.08-.15.17-.3.25-.45.07-.32-.08-.56.04-.82.13-.27.44-.58.51-.84,0-.16.02-.31.03-.47.06-.31.37-.49.78-.4.23.05.33.23.51.31.4.16.51-.35.62-.54.28-.46,1.23-1.45,1.01-2.17-.06-.02-.11-.05-.17-.07-.23.13-.45.28-.72.34-.13,0-.25,0-.38.01-.18.06-.26.25-.37.38-.29.24-.58.47-.86.71-.21.08-.42.17-.64.25-.13.09-.26.19-.4.28-.17.09-.35.19-.52.28-.3.24-.57.56-.89.79-.66.48-1.4.93-1.83,1.63-.08.13-.06.33-.1.5-.14.66.83.51,1.19.78.29.21.21.84-.04,1.02ZM60.98,51.28c.11-.15.25-.15.45-.23.96-.01.7,1.38-.27,1.15-.34-.08-.39-.65-.18-.92Z"/>
      <path class="cls-1" d="M87.15,50.13c.13-.09.15-.17.23-.31-.03-.39-1.1-1.09-1.5-1.1-.09.05-.11.07-.17.14-.06.59.85,1.31,1.44,1.27Z"/>
      <path class="cls-1" d="M19.94,65.74c.05.17.04.48.01.67-.05.36.13.82.28,1.01.27.32,1.04.11,1.29.47.27.38-.15,1.13.13,1.36.42.35,1.34.03,1.93.17.29.07.48.28.78.35.32.08.68.05.96.16.24.09.45.28.74.33.59.1,1.29-.07,1.76-.16.39-.07.68.13,1.02.18.27,0,.54,0,.81-.01.45.07.91.13,1.36.2.22.06.4.2.58.28.2.09.4.12.52.28.26.35,0,.97-.07,1.32-.07.35.11.9-.07,1.18-.16.25-.85.41-1.12.58-.58.37-1,.95-1.56,1.35-.14.07-.27.13-.41.2-.27.18-.85.83-.5,1.26.21.26.87.25,1.26.16.26-.06.58-.13.79-.25.14-.08.27-.2.44-.27.21-.08.45-.07.69-.14.31-.09.57-.28.82-.45.73-.5.11-1.02-.16-1.5-.09-.17-.23-.65-.01-.79.51-.34,1.47-.22,1.69.28.15.36-.03.82.37.93.18.05.67.04.84-.04.16-.08.79-.72.84-.91.08-.34-.15-.85.06-1.13.27-.37.91-.07,1.2-.67-.02-.46-.7-1.1-1.3-.88-.57.21-.74,1.32-1.39,1.57-.46.18-1.02.05-1.12-.38-.1-.42.36-1.11.55-1.26.09-.06.19-.12.28-.18.13-.15.25-.3.38-.45.38-.3.82-.53,1.12-.91.33-.42.61-.92,1.05-1.23.25-.18.74-.38,1.19-.28.12.03,1.24.73,1.29.81.06.09.06.32.01.42-.16.39-1.08.34-.93.92.03.13.09.25.18.31.23.14,1.23.2,1.61.11.14-.06.27-.11.41-.17.3-.08.59-.16.89-.24.17-.11.33-.22.5-.33.17-.08.35-.16.52-.24.1-.09.21-.19.31-.28.41-.3.83-.53,1.23-.84.09-.1.19-.21.28-.31.32-.25,1.14-.76,1.01-1.4-.12-.58-.7-.84-1.37-.62-.19.1-.39.2-.58.3-.31.13-.71.05-.78-.24-.14-.58.31-.83.54-1.06.63-.63,1.84-1.15,2.21-1.94-.26-.58-.59-.14-.92,0-.17.07-.34.13-.51.2-.23.17-.45.35-.68.52-.4.22-.8.44-1.2.67-.4.31-.67.77-1.06,1.08-.18.15-.63.38-.95.17-.27-.18-.33-.8-.2-1.2.1-.28.21-.58.38-.79.28-.34,1.08-.52.61-1.29-.2-.32-.57-.07-.78.07-.49.33-1.54,1.43-2.01.24-.08-.21-.12-.53-.03-.75.12-.29.35-.4.54-.61.3-.34.71-1.01,1.47-.85.44.09.59.44.99.59.03,0,.06,0,.08-.01,0-.02.02-.05.03-.07-.01-.21-.12-.26-.18-.41-.05-.15-.1-.3-.16-.45-.19-.3-.82-.83-.68-1.36.12-.46.76-.34,1.02-.65.2-.25.16-.7.3-1.02.19-.26.38-.53.57-.79.35-.84-.38-1.09-.24-1.83.08-.22.15-.43.23-.65,0-.21-.02-.42-.03-.62-.07-.43.12-.98-.04-1.35-.28-.6-.99-.83-1.37-1.32-.25-.32-.87-1.25-1.3-1.3-.25.17-.69.53-.82.79.01.51.49.67.79.91.32.25.27.87.38,1.33.11.28.22.56.33.84.08.27.15.54.23.81.06.14.16.27.2.44.08.39-.27.61-.65.54-.37-.07-.39-.47-.71-.54-.23.11-.38.29-.65.34-.59.11-1.12-.74-.99-1.3.06-.27.29-.43.37-.67.16-.45-.17-1.16-.52-1.26-.38-.11-.73.12-1.02.17-.31.05-.65-.11-.91.03-.29.16-.48.96-.69,1.26-.22.3-.66.4-.95.62-.34.27-.67,1.39-.75,1.94-.1.62.59.75.42,1.33-.14.48-.88.34-.93.92-.03.31.19.44.31.61.09.19.19.38.28.57.1.15.21.29.31.44.18.38.1,1.03-.17,1.25-.71.57-.92-.1-1.26-.47-.19-.17-.38-.33-.57-.5-.1-.11-.2-.22-.3-.33-.14-.1-.28-.21-.42-.31-.21-.26-.47-.66-.82-.75-.24-.06-.63.4-.79.5-.43.27-.75.66-1.19.92-.22.13-.52.11-.79.2-.13.05-.25.1-.38.16-.37.1-.72-.14-1.02-.21-.56-.13-1.33.13-1.5.5-.08.16.05.44.17.48.05.02.11-.02.17.01.39.21.65.46,1.37.34.46-.08,1.48-.05,1.8.14.23.14.32.45.61.54.26.08.73.08.99.01.18-.04.41-.15.67-.1.52.1.7.46,1.25.45.21-.2.5-.38.82-.47.15-.04.29-.08.44-.11.3-.15.43-.41.84-.5.69-.15,1.99.75,1.63,1.35-.2.34-.77.78-1.36.54-.25-.11-.49-.49-.85-.27-.09.08-.18.17-.27.25-.38.27-.69.51-.93.91-.32.51-.18.89-.92,1.03-.83.16-1.75-.82-2.35-.54-.23.11-.33.49-.5.67-.34.34-.9.52-1.22.86-.17.18-.44.71-.86.42-.21-.14-.18-.61-.08-.86.13-.35.99-1.45.84-1.86-.06-.16-.19-.28-.34-.37-.65-.37-.96.78-1.74.3-.48-.29.01-.89.01-1.39-.32-.35-.75-.09-1.33-.18-.17-.03-.34-.07-.51-.1-.15-.08-.29-.16-.44-.24-.29-.04-.69.53-.72.81.16.15.48.14.68.25.38.22.44.6.69.95.13.18.34.28.44.51.1.24-.04.44-.18.52-.42.24-.65-.18-.82-.34-.29-.27-.68-.52-.89-.86-.12-.2.04-.58-.06-.79-.1-.22-.82-.06-1.02.04-.16.08-.35.25-.45.4-.12.18-.52,1.03-.42,1.27.17.43.7.62.84,1.08ZM38.28,66.78c.05-.11.12-.12.23-.17.42-.02.57.41.27.61-.27.18-.7-.11-.5-.44ZM31.8,67.92c.04-.18.02-.43.06-.64.04-.2.18-.44.16-.68-.03-.36-.27-.62-.18-1.06.12-.64,1.08-1.5,1.59-1.8.85,0,.85.53,1.19,1.02.2.29.46.47.58.86.02.26.04.53.06.79.14.49.54,1.02.37,1.71-.15.6-.76,1.1-1.19,1.43-.28.22-1.03,1.05-1.56.89-.85-.25.59-1.33-.08-1.61-.13.01-.26.03-.4.04-.25.05-.43.09-.61.21-.33.22-.61.55-1.23.41-.2-.04-.35-.1-.45-.24-.08-.11-.1-.31-.06-.47.26-.85,1.17-.45,1.77-.88ZM27.43,67c.09-.56.4-.84.88-.99.1-.02.21-.04.31-.06.77-.01,2.28.53,1.67,1.32-.43.57-2.16,1.25-2.75.34-.09-.14-.15-.4-.11-.61ZM22.94,65.59c.22-.17.19-.45.48-.62,1.19-.02.9,1.12.47,1.67-.12.16-.34.25-.41.45-.17.46.42,1.5-.61,1.29-.58-.12-.23-.6-.48-.96-.17-.25-.63-.2-.79-.57-.46-1.08.9-.9,1.35-1.26Z"/>
      <path class="cls-1" d="M81.77,49.98c-.18.24-.46.48-.51.84.09.19.4.6.68.34.05-.09.1-.19.16-.28.22-.33.38-.54.13-.96-.02,0-.05,0-.07-.01-.08.07-.25.1-.38.08Z"/>
      <path class="cls-1" d="M73.95,52.78c-.11.3.38,1.01.52,1.12.14.1.33.11.54.1.27-.43.68-1.38,1.46-1.25.3.05.39.26.74.27.17-.16.23-.38.37-.57.15-.2.36-.36.5-.58.08-.14.15-.38,0-.5-.34-.26-1.13,0-1.47-.25-.31-.23-.09-1.03-.57-1.08-.08,0-.17.02-.25.03-.36.26-.32.57-.41,1.12-.02.15,0,.24-.07.34-.12.19-.33.25-.51.38-.26.19-.72.54-.84.86Z"/>
      <path class="cls-1" d="M86.36,51.39c-.28.19-.44.3-.25.69.12.09.35.07.54.07.07-.09.16-.18.18-.31.04-.15-.15-.37-.25-.44-.07,0-.14,0-.21-.01Z"/>
      <path class="cls-1" d="M77.85,53.77c-.35.24-.71.47-1.06.71-.18.08-.41.14-.47.33-.12.38.35.59.58.69.17.08.33.16.5.24.3.09.61-.03.96-.03.21,0,.35.1.52.13.28.05.57-.14.75-.21.12-.23,0-.7.1-.96.15-.35.58-.33.86-.54.07-.08.14-.17.21-.25,0-.3-.14-.35-.27-.51-.14,0-.28,0-.42-.01-.37.16-.57.49-.98.58-.52.12-.97-.24-1.29-.16Z"/>
      <path class="cls-1" d="M80.31,55.74s-.02.09-.03.14c.39.42,1.1,1.04,1.97.69.34-.14.57-.44.92-.54.25-.07.57,0,.79-.08.25-.1.97-.69,1.08-.93.17-.41-.64-.8-.96-.84-.31.16-.63.2-.88.41-.34.28-.55.85-.98,1.02-.5.21-1.35.05-1.91.13Z"/>
      <path class="cls-1" d="M71.53,55.27c-.42-.12-.83-.31-1.39-.3-.11.04-.23.08-.34.11-.29.17-.55.42-.79.65-.17.16-.26.4-.47.52-.48.29-1.04.34-1.61.55-.27.1-.45.3-.71.41-.25.08-.49.15-.74.23-.14.09-.27.19-.41.28-.44.26-.84.46-1.26.74-.08.08-.17.17-.25.25-.52.41-1,.82-1.49,1.25-.65.56-2.37,1.19-1.54,2.44.18.27.82.22,1.22.14.44-.08.73-.24,1.06-.37.24-.05.47-.1.71-.16.23-.06.46-.18.74-.18.46-.01.97.25,1.27.17.28-.07.4-.33.65-.44.27-.07.54-.14.81-.21.18-.09.36-.19.54-.28.1-.03.2-.06.3-.08.22-.17.43-.34.65-.51.28-.12.73-.08.98-.24.71-.48.94-1.31,1.46-1.97.3-.25.59-.51.89-.76.39-.44.7-.92,1.02-1.43-.03-.36-.49-.72-.82-.79-.14-.03-.33.03-.47-.01Z"/>
      <path class="cls-1" d="M20.83,58.22c.67.21,1.78.14,2.12-.3.31-.39.74-1.59-.21-1.63-.4.31-.96.52-1.56.64-.18.03-.39-.03-.54-.01-.45.04-1.14.11-1.15.58.21.2.33.18.59.31.25.12.46.32.74.41Z"/>
      <path class="cls-1" d="M77.37,64.69c0,.34.5.59.85.51.23-.05.42-.19.65-.28.33-.14.53-.46.93-.55.38-.09.85.08,1.13-.08.36-.21.24-.78.45-1.13.13-.21.38-.31.41-.62-.12-.27-.34-.25-.58-.4-.13-.11-.26-.23-.4-.34-.2-.13-.44-.15-.58-.34-.36-.48-.35-1.11-.61-1.7-.15-.35-.61-.58-.86-.84-.18-.18-.28-.43-.44-.64-.35-.45-.91-.76-1.42-1.06-.2-.12-.33-.31-.61-.34-.15.05-.29.09-.44.14-.64.3-.98.55-1.35,1.13-.14.22-.17.52-.27.78-.25.65-.65,1.29-1.22,1.63-.17.1-.37.11-.57.18-.19.11-.39.23-.58.34-.4.17-.83.28-1.19.44-.24.1-.57.16-.71.35-.09.13-.15.35-.18.52-.06.31.05.65.11.91.2.83.3,1.26.88,1.7.2.15.33.34.64.4.28,0,.57-.02.85-.03.19-.05.4-.18.68-.13.86.16,2.3.84,2.96-.04.08-.64-.74-.6-.74-1.4,0-.19.03-.36.11-.48.27-.4,1.73-.48,1.9-.81.09-.26-.27-.51-.4-.64-.14-.15-.27-.29-.41-.44-.1-.16-.12-.33-.16-.57-.13-.74.23-1.13.78-1.25.43-.09.71.19.91.35.23.18.54.54.62.85.1.35-.2,1.49-.31,1.76-.09.14-.18.28-.27.42-.1.34.37.71.17,1.18-.15.36-.58.26-.76.51ZM75.45,61.61c-.83.36-1.6-.91-.59-1.36.87-.03,1.2,1.1.59,1.36Z"/>
      <path class="cls-1" d="M84.87,57.72c-.24.51.61,1.16.81,1.49.22.36.28.93.86.93.17-.17.22-.4.11-.67-.22-.3-.44-.59-.67-.89-.18-.31-.2-.73-.35-1.08-.06-.15-.16-.16-.35-.18-.15.13-.32.2-.41.4Z"/>
      <path class="cls-1" d="M15.79,98.15c.06-.2-.5-.66-.62-.81-.17-.27-.33-.55-.5-.82-.1-.13-.24-.21-.31-.37-.08-.22-.15-.43-.23-.65-.12-.19-.24-.38-.35-.57-.05-.22-.1-.43-.16-.65-.09-.29-.21-.51-.27-.85.02-.38.04-.76.06-1.15-.07-.41-.09-1.05-.01-1.47.11-.59.45-1.12.44-1.78-.08-.08-.14-.15-.25-.2-.88.01-.97,1.99-1.49,2.51-.25.26-.8.39-1.19.16-.36-.22-.65-.83-.33-1.32.32-.49.66-.99,1.03-1.43.36-.43.89-.84,1.01-1.5.13-.75-1.26-1.05-1.86-1.2-.26-.07-.6-.27-.86-.08-.33.22-.23.67-.44,1.02-.16.27-.49.24-.74.42-.17.12-.11.38-.17.61-.07.25-.24.4-.34.59-.03.06-.07.21-.04.31.06.19.38.36.51.5.08.1.15.21.23.31.36.45.48.34.59,1.1.11.7-.31,1.01-.47,1.44-.14.39-.08.84-.18,1.33-.05.22-.17.49-.08.76.18.61.47,1.17.85,1.59.1.1.21.2.31.3.1.17.2.35.3.52.18.2.48.26.64.48.21.29.36.85-.14.95-.83.16-.74-.71-1.12-.92-.19-.08-.38-.15-.57-.23-.38-.23-.66-.59-.96-.91-.13-.12-.25-.24-.38-.35-.15-.24-.22-.68-.3-.98-.12-.47.07-.86.17-1.18.12-.41.09-.86.17-1.32.07-.4.16-.99.11-1.44-.07-.6-.43-.96-.65-1.39-.26-.49-.29-1.06-1.03-1.03-.23.23-.54.35-.81.55-.34.25-.58.7-1.06.81-.73.16-1-1.27-1.12-1.86-.06-.28-.09-.75.06-.95.52-.72,1.34.53,1.87.41.62-.13,1.08-.58,1.71-.71.57-.11.84.47,1.42.47,0,0,.02,0,.03-.01.16-.28-.1-.82-.18-1.02-.12-.27-.37-.55-.61-.69-.16-.1-.36-.1-.57-.14-.53-.11-.83-.36-.98-.86-.05-.18-.08-.54,0-.72.09-.22.42-.4.69-.21.21.14.78,1.06,1.1.98.6-.15,1-1.3,1.44-1.74.18-.18.56-.28.65-.54.16-.46-.73-.68-.84-1.22-.08-.42.2-.62.3-.88.06-.19.11-.39.17-.58.09-.19.19-.38.28-.57.14-.42.21-1.32.08-1.84-.1-.42-.35-.66-.44-1.09-.07-.34.08-.77-.06-1.06-.16-.36-.65-.47-.85-.81-.18-.3-.07-.87-.18-1.23-.16-.55-.64-.83-.78-1.54-.14-.74.35-.9.59-1.25.16-.22.46-.72.52-.99.01-.22.03-.44.04-.67.04-.22.15-.49.08-.78-.1-.43-1.3-1.33-1.98-1.2-.42.08-.61.36-1.01.44-.59.12-.95-.37-.84-.98.09-.45.59-.94.84-1.27.09-.16.18-.31.27-.47.1-.1.27-.26.51-.21.61.13.47,1.05,1.42.76.12-.03.24-.07.35-.1.09-.08.19-.17.28-.25.19-.13.5-.19.62-.38.3-.48.23-1.24.85-1.39.61-.14.9.72,1.25.92.41.24,1.16-.06,1.7.03.6.1.82.17,1.12.55.12.15.33.37.24.71-.12.46-1.02.21-1.47.3-.41.08-.76.5-.93.84.02.29.55.83.75.98.28.21.57.19.65.61.11.55-.22.75-.42,1.02-.14.18-.21.4-.34.59-.19.27-.3.25-.33.67.03,0,.06.02.08.03.3-.09.36-.35.57-.52.24-.2.35-.47.54-.72.34-.47.71-.85.88-1.5.16-.59-.12-1.43.18-1.91.19-.3.65-.35,1.02-.47.28-.09.6-.38.76-.59.15-.2.17-.47.3-.71.25-.45.61-.89.88-1.32.16-.26.2-.59.37-.84.18-.26.73-.83.68-1.22-.02-.17-.2-.34-.28-.47-.23-.36-.5-.82-1.22-.67-.25.05-.48.25-.82.18-.46-.09-.76-.39-1.3-.38-.26.12-.42.19-.62.34-.01.33.2.51.14.88-.07.4-.81,1.12-1.15,1.26-.52.21-.72-.32-.95-.55-.16-.17-.32-.34-.48-.51-.31-.2-1.25-.24-1.7-.1-.61.19-1.42,1.45-1.8,1.97-.11.12-.22.24-.33.35-.27.38-.39,1.22-1.2.98-.13-.07-.26-.14-.4-.21-.32-.13-1.16.91-1.3,1.13-.33.53-.8,1.02-1.05,1.61-.13.32-.04.76-.13,1.16-.06.28-.26.47-.33.71-.14.52.41.8.04,1.46-.43.77-.96.73-1.67,1.16-.14.09-.2.26-.33.37,0,.69.81.67.62,1.46-.08.36-.43.45-.52.78-.01.36-.03.73-.04,1.09-.09.42-.28.72-.41,1.13-.08.24-.43.75-.41.96.07.8,1.12,1.06,1.29,1.74.16.66-.66,1.09-.78,1.64-.09.42.59,1.62.75,1.9.16.28.03.7.13,1.08.05.21.14.45.25.61.06.07.12.14.18.21.22.48.16,1.36-.3,1.49-.96.27-.78-.57-.91-1.18-.11-.51-.4-.75-.52-1.2-.1-.35-.09-.75-.27-1.02-.08-.13-.21-.17-.42-.17-.74.53.07,1.47.21,2.04v.44c-.06.37.09.69.23.88.15.2.56.23.82.3.16.27.22.83.04,1.13-.09.15-.22.27-.27.47-.14.6.12,1.2.03,1.76-.07.42-.27.88-.16,1.32.07.25.21.4.33.58.1.2.21.4.31.59.24.33.58.39.68.91.14.73-.42,1.11-.61,1.53-.1.21-.07.49-.07.76,0,.22-.04.33.01.51.07.22.73,1.09.92,1.22.32.21.61.26.84.57.48.65-.08,1.04.11,1.69.15.51.68.58.78.93.15.56-.43.8-.54,1.19-.08.28,0,.62-.08.86-.05.14-.3.42-.25.59.09.19.18.38.27.57.2.45.37.91.54,1.33.15.36.06.92.21,1.3.08.13.16.26.24.4.09.24.19.47.28.71.13.16.26.32.4.48.1.19.2.38.3.57.22.39.02,1.3.3,1.53.35.28.84-.08,1.33.06.32.09.36.41.65.52.03,0,.06-.02.08-.03.03-.03.06-.06.08-.08-.03-.35-.3-.42-.45-.64-.18-.25-.61-1.09-.51-1.54.08-.37.32-.81.52-1.09.11-.16.28-.27.34-.48.12-.44-.28-.67-.18-1.19.04-.24.14-.47.25-.65.08-.13.34-.33.34-.51,0-.49-.36-.76-.47-1.23-.1-.41.09-.82.01-1.22-.08-.4-.3-.62-.42-.95-.17-.45-.08-1.24.24-1.43.28-.17.65.06.76.21.17.23.09.65.17.98.1.46.38.88.81,1.01.52.15.86-.16,1.16-.34.18-.11.4-.14.52-.31.24-.32.39-.64.79-.81.34-.14.72.03,1.02.08.32.06.57-.08.82-.13.67-.11,1.6.1,1.73-.52ZM7.81,78.9c.07-.11.2-.14.31-.2.82-.04.7.66.2.81-.38.11-.73-.26-.51-.61ZM14.74,60.29c.08-.3.35-.39.61-.51.56-.01.88.13,1.03.51.19.48-.33,1.23-.65,1.3-.65.14-1.17-.67-.99-1.3ZM4.64,75.29c-.06,0-.11-.02-.17-.03-.07-.12-.03-.19.06-.25h.14s.05.06.07.08c0,.04,0,.08.01.11-.04.03-.08.06-.11.08ZM3.13,72.41c.17-.28.46-.29.74-.47.16-.1.28-.26.4-.41.21-.26.49-.45.81-.61.51,0,.81.27.58.76-.17.36-.64.48-.84.81-.08.14-.03.36-.07.55-.08.43-.38.99-.99.74-.18-.08-.3-.24-.42-.38-.29-.32-.52-.47-.2-.99ZM3.22,81.69c.07-.11.18-.14.3-.21.98-.03.79,1.54.14,1.7-.9.22-.69-1.11-.44-1.49ZM4.23,92.63c-.5.11-.71-.55-.48-.92.06-.1.16-.14.27-.2.77-.03.71,1.01.21,1.12ZM6.6,100.45c-.75.46-1.6-.78-1.03-1.22.09-.07.21-.07.33-.11.28,0,.52.06.68.18.26.2.36.94.03,1.15ZM6.36,91.44c-.29-.07-.43-.55-.28-.91.12-.28.39-.36.67-.48.98-.02.51,1.59-.38,1.39Z"/>
      <path class="cls-1" d="M21.14,61.02c.15.23.24.43.51.54.09-.14.19-.28.28-.42.16-.2.5-.24.59-.51.18-.5-.53-.97-.91-.98-.46.35-.89.72-.48,1.37Z"/>
      <path class="cls-1" d="M96.63,61.17l-.11.11c-.07.15.04.25.13.3.13-.01.2-.06.24-.16.09-.19-.12-.25-.25-.25Z"/>
      <path class="cls-1" d="M65.86,68.25c.37-.11.62.12.92.13.19-.16.42-.29.35-.69,0-.1-.02-.21-.03-.31.03-.15.06-.3.08-.45-.05-.24-.3-.4-.23-.78.05-.28.51-.62.37-.88-.16-.32-.78-.09-.88-.52-.19-.8.83-.83.91-1.39.06-.48-1.08-.67-1.59-.67-.15.06-.29.11-.44.17-.22.14-.43.32-.71.4-.43.12-1-.01-1.36.16-.29.14-.39.46-.75.55-.3,0-.6.02-.91.03-.4.07-.74.42-.98.68-.53.58.07,1.7-.37,2.15-.28.29-.65.12-1.13.2-.62.11-1.16.35-.85,1.12.21.52.94,1.13,1.59,1.23.61.1,1.33-.11,1.9.03.54.13,1.01.63,1.84.4.3-.08.48-.26.71-.4.18-.09.36-.19.54-.28.35-.27.52-.72,1.01-.86ZM63.68,68.8c-.61.35-1.47-.24-1.18-.91.08-.19.26-.21.45-.3.4-.01.74,0,.91.23.23.32.08.82-.18.98Z"/>
      <path class="cls-1" d="M54.33,66.31c-.06.26-.06.63.13.72.36.16.86-.32,1.09-.44.47-.24.89-.66,1.2-1.06.08-.16.17-.32.25-.48.31-.41.92-.64,1.13-1.13.19-.45-.35-1.03-.82-1.02-.11.04-.23.08-.34.11-.35.23-.76.75-1.44.57-.26-.07-.39-.27-.61-.38-.02,0-.05,0-.07.01-.19.11-.17.5-.23.75-.15.71-.13,1.66-.3,2.35Z"/>
      <path class="cls-1" d="M80.84,69.88c.23.26.58.85.92.96.22.07.92-.39,1.06-.51.24-.2.16-.71.28-1.02.22-.39.43-.78.65-1.18.16-.43.08-.95.33-1.3.39-.56,1.26-.25,1.57-.98-.01-.29-.25-.31-.57-.3-.28.11-.65.05-.92.13-.32.11-.63.23-.95.34-.47.08-.93.15-1.4.23-.27.07-.48.21-.76.25-.3-.01-.6-.03-.91-.04-.57.09-1.56.4-1.35,1.19.05.17.19.29.27.42.11.18.16.39.28.55.4.5,1.06.77,1.49,1.25Z"/>
      <path class="cls-1" d="M18.47,67.92c-.17-.61-.69-1.73-1.44-1.73-.76.32-.66.65-.96,1.37-.11.2-.22.41-.33.61-.07.22-.14.43-.21.65-.2.45-.67.69-.92,1.09-.07.17-.14.34-.21.51-.24.41-.56.81-.82,1.19-.1.26-.2.52-.3.78-.09.11-.18.22-.27.33-.18.27-.31.56-.5.82-.09.18-.19.37-.28.55-.12.13-.24.26-.35.4-.25.41-.44,1.17.06,1.46.53.3,1.01-.19,1.3-.4.27-.19.73-.16,1.01-.34.18-.12.13-.51.24-.69.22-.36.74-.46.92-.93.18-.48-.55-1.08-.11-1.4.31-.23,1.1-.07,1.46-.24.44-.2.82-.85,1.13-1.22.29-.35.74-.6.91-1.06.14-.39-.18-.7-.25-.99-.02-.25-.04-.5-.06-.75Z"/>
      <path class="cls-1" d="M88.98,68.28c-.23.14-.93.36-.68.81.1.21.45.19.67.1.34-.14.8-.59.93-.93,0-.23-.15-.35-.38-.34-.22.11-.35.25-.54.37Z"/>
      <path class="cls-1" d="M71.62,70.88c.3-.05.62-.18.99-.11.52.09,1.11.37,1.63.14.22-.09.34-.26.51-.4.14-.08.27-.15.41-.23.24-.23.47-.45.71-.68.12-.13.44-.3.37-.59-.13-.55-1.22-.72-1.95-.72-.25.1-.53.02-.74.14-.16.13-.32.26-.48.4-.17.08-.34.15-.51.23-.19.13-.33.3-.58.37-.45.13-1.05.02-1.47.13-.56.21-1.12.42-1.69.62-.18.1-.3.28-.51.37-.21.07-.42.13-.62.2-.21.1-.87.46-.98.64-.34.55.4,1.19.82,1.32.5-.21-.16-.98.57-1.12.73-.14.88.94,1.1,1.36.18.34.46.67.57,1.06.04.25.08.49.11.74.2.45.61.72.84,1.18.35.69.24,1.1.98,1.44.38-.03.92-1.13.81-1.64-.09-.4-.45-.79-.23-1.3.16-.36.87-.98,1.2-1.18.14-.06.27-.12.41-.18.11-.08.17-.34.08-.5-.11-.22-.38-.18-.55-.06-.31.23-1.07.92-1.63.82-.62-.11-.36-.48-.62-.88-.19-.3-.48-.29-.57-.78-.14-.78.45-.69,1.02-.78Z"/>
      <path class="cls-1" d="M45.96,76.04c.15-.1.37-.15.47-.3.13-.27.25-.54.38-.81.08-.31-.26-.71-.55-.71-.24.23-.31.6-.61.78-.63.37-1.21-.26-1.3-.74-.08-.43.31-.54.25-.86-.05-.31-.35-.56-.23-.99.12-.41.79-1.02,1.12-1.26.13-.09.29-.16.37-.3.06-.1.12-1.06.06-1.2-.04-.09-.14-.14-.25-.16-.28.15-.32.28-.54.42-.39.26-.72.49-1.09.76-.13.12-.25.24-.38.35-.13.06-.26.11-.4.17-.19.1-.32.28-.52.37-.27.11-.46.11-.62.31-.13.16-.58.8-.51,1.09.07.33.39.4.54.65.27.45-.02,1.03-.3,1.25-.79.63-1.66-.21-1.83-.91-.1-.41.17-.66.1-1.05-.13-.1-.2-.15-.45-.14-.36.34-.58.79-.88,1.19-.12.16-.34.28-.4.5-.15.51.18.76.37,1.09.06.17.11.33.17.5.16.43.57.83,1.03.98.25.04.51.08.76.11.22.05.44.17.65.2.65.1,1.3-.19,1.43.51.06.35-.18.56-.33.71-.41.41-.94.65-1.19,1.23-.14.32-.02.95-.01,1.39.01.52-.09.87-.16,1.26-.02.26-.04.52-.06.78-.09.39-.28.74-.4,1.08-.08.27-.16.54-.24.81-.09.15-.19.3-.28.45-.08.22-.07.43-.08.68,0,.29,0,.58-.01.86.08.36.37.89.68,1.02.18.08.35.06.51.13.17.09.34.18.51.27.43.09.87.18,1.3.27.26.05.58-.01.81-.06.35-.07,1.35-.05,1.2-.55-.06-.23-.26-.4-.31-.67,0-.32,0-.64.01-.96-.12-.38-.68-.49-.51-1.1.16-.56,1.03-1.2,1.5-1.49.18-.11.63-.15.72-.34.16-.32-.15-1.8-.55-1.63-.41.25-.25,1.03-.62,1.29-.46.31-.87-.25-1.25-.28-.27.21-1.2,1-1.43.17-.11-.4.24-.64.17-.96-.1-.47-.69-.83-.48-1.5.08-.26.31-.38.51-.52.21-.24.42-.48.64-.72.1-.17.1-.43.16-.64.14-.49.42-1.46.76-1.73.22-.17.47-.37.69-.51.19-.08.38-.16.57-.24.11-.1.22-.2.33-.3Z"/>
      <path class="cls-1" d="M55.33,75.74c.26-.06.5-.19.72-.28.16-.04.31-.08.47-.11.23-.08.75-.65.86-.86.22-.43.06-1.19.25-1.67.08-.2.41-.43.31-.76-.1-.37-.69-.46-.91-.74-.23-.29-.37-.72-.81-.79-.4-.06-1.31.21-1.57.08-.26-.12-.23-.42-.69-.42-.06.05-.12.09-.18.14-.02.13,0,.28.03.42.26.17.65-.05.89.08.47.26.6.87.91,1.3.17.24.44.38.52.71.1.37-.13.71-.33.85-.29.21-.88.27-1.33.16-.2-.05-.33-.14-.55-.08-.11.18-.08.42-.13.68-.04.21-.12.52-.06.75.13.46.97.68,1.59.55Z"/>
      <path class="cls-1" d="M11.44,71.59c.27-.35.6-.77.58-1.35-.01,0-.03-.02-.04-.03h-.04c-.26.18-.62.58-.75.88-.08.17-.1.35-.2.5-.21.33-.37.45-.55.86-.12.27-.37.55-.27.93.02.02.05.04.07.06h.04c.49-.28.59-.98.84-1.52.07-.16.23-.21.33-.34Z"/>
      <path class="cls-1" d="M23.86,81.66c.15-.13.29-.25.44-.38.5-.7.88-1.28,1.26-2.14.09-.21.26-.41.33-.65.2-.7-.42-1.22-.2-1.77.16-.39.72-.5,1.05-.72.19-.13.31-.35.48-.51.36-.35.73-.67,1.05-1.06.17-.21.43-.38.51-.67.23-.81-.85-.34-1.09-.65-.24-.32-.01-1.04-.34-1.27-.71-.51-1.92-.04-2.99-.21-.65-.11-.9-.39-1.61-.38-.22.16-.43.3-.64.47-.47.39-.78.94-1.44,1.13-.61.18-.98-.21-1.43-.3-.23-.05-1.07.27-1.23.37-.45.27-.25.64-.41,1.18-.07.23-.31.37-.5.48-.48.29-1.03.54-1.6.72-.28.06-.56.11-.84.17-.2.13-.14.54-.21.79-.07.17-.13.33-.2.5-.05.26.18.46.25.62.28.66,1.23,1.18,1.06,2.15-.12.7-1.72,1.52-1.13,2.28.15.2.86.61,1.12.68.24.02.47.05.71.07.44,0,.88,0,1.32-.01.3.07.45.26.69.38.25-.02.32-.16.45-.3.27-.27,1.04-.81,1.09-1.2.03-.23-.09-.53-.03-.76.32-.21.66.06.98.1.19.02.37-.13.52-.17.41-.12.77.12.84.41.17.81-1.23,1.02-1.1,1.77.11.65,1.38.38,1.76.13.26-.25.53-.49.79-.74.1-.17.2-.33.3-.5ZM22.96,80.2c-.5.29-.85-.16-1.03-.42-.14-.2-.32-.35-.4-.62-.02-.29-.04-.58-.06-.86-.09-.47-.4-.99-.84-1.1-.61-.16-1.02.25-1.36.45-.26.15-.63.15-.93.27-.11.07-.22.14-.33.21-.19.11-.44.18-.67.24-.41.11-1.18.43-1.46.01-.36-.54.43-.95.67-1.12.21-.15.47-.23.69-.37.18-.11.36-.22.54-.33.33-.08.66-.17.99-.25.19-.12.39-.24.58-.35.34-.09.67-.18,1.01-.27.4,0,.64.13.96.2.26.03.52.06.78.08.24.07.37.23.55.34.23.08.46.15.69.23.22.1.33.29.5.44.26.22.66.37.54.96-.11.51-.65.71-.88,1.1-.24.42-.14.92-.55,1.16Z"/>
      <path class="cls-1" d="M29.71,71.92s0-.03-.01-.04c-.03,0-.06,0-.08-.01-.03.04-.05.06-.06.13v.06s.06.06.08.08c.02-.02.05-.05.07-.07v-.14Z"/>
      <path class="cls-1" d="M85.87,73.52c.36.01.42-.27.33-.55-.08-.06-.11-.1-.25-.1-.21.11-.25.12-.34.35.07.14.13.23.27.3Z"/>
      <path class="cls-1" d="M65.06,74.62c-.1-.16-.21-.31-.31-.47-.22-.47-.16-1-.82-1.03-.15.07-.3.07-.47.14-.1.11-.2.23-.3.34-.24.31-.53.73-.88.93-.41.24-.68.09-1.18.18-.42.11-.83.22-1.25.33-.64.26-.98.9-1.49,1.3-.14.11-.27.25-.47.3-.2.05-.41,0-.57.08-.26.16-.36.76-.18,1.1.11.22.3.33.51.45.13.08.23.2.4.24.63.16.94-.18,1.16-.48.09-.09.19-.19.28-.28.14-.2.2-.46.3-.69.09-.15.18-.3.27-.45.12-.28.15-.62.31-.85.29-.41,1.07-.5,1.4-.07.41.53-.06.69-.08,1.06-.02.28,1.19.55.67,1.35-.25.39-.72.25-1.26.37-.33.07-1.22.61-1.29.93-.14.64.54.4.92.51.22.06.37.27.44.48.04.13.04.33-.01.44-.15.29-.7.4-.54.91.04.14.14.25.25.31.1,0,.21.02.31.03.5-.45.09-.52.25-1.1.09-.31.35-.47.45-.78.06-.37.11-.74.17-1.1.3-.77,1.27-.38,1.88-.78.29-.19.93-1.03.89-1.5-.03-.34-.25-.65-.17-1.13.06-.36.49-.74.38-1.06Z"/>
      <path class="cls-1" d="M77.71,75.2c.29,0,1.17-.98.96-1.33-.05-.08-.17-.1-.3-.1-.36.24-.9.83-.76,1.37.03.02.07.04.1.06Z"/>
      <path class="cls-1" d="M38.89,80.4c-.1-.48-.4-.89-.58-1.27-.15-.32-.18-.67-.37-.93-.23-.24-.46-.47-.69-.71-.12-.16-.15-.36-.24-.55-.16-.33-.66-.69-1.1-.72-.25.2-.49.36-.76.55-.21.15-.34.37-.59.48-.48.21-1.01.25-1.53.44-.31.11-.36.54-.78.67-.72.22-1.17-.34-1.87.07-1.56.91-2.71,2.15-3.8,3.54-.13.11-.26.23-.4.34-.35.4-.69.84-1.02,1.26-.2.26-.48.42-.65.72-.08.25-.15.5-.23.75-.12.36-.28.77-.44,1.13-.11.17-.22.34-.33.51-.16.36-.11.81-.2,1.27-.04.16-.08.31-.11.47.04.17.08.33.11.5.02.4.04.8.06,1.2-.14.86-.48,1.96.21,2.49.68.52,1.61.42,2.63.59.29,0,.59,0,.88.01.35.06.6.23.89.34.23.06.46.12.69.18.16.05.35.18.57.16.58-.07,1.02-.46,1.43-.71.22-.08.44-.16.67-.24.14-.08.27-.16.41-.24.43-.18,1.05-.1,1.5-.21.49-.12.78-.37,1.2-.51.22-.05.44-.1.67-.16.2-.09.33-.28.55-.37.3-.08.59-.15.89-.23.52-.21,1.33-.79,1.47-1.36v-2.2c-.07-.35-.28-.71-.2-1.16.11-.61.39-1.16.55-1.73.03-.25.07-.51.1-.76.04-.14.08-.27.13-.41.04-.45.08-.9.13-1.35-.04-.24-.12-.57-.07-.88.05-.28.27-.71.21-.99ZM25.55,86.11c-.6.17-.82-.44-.33-.71.48-.01.56.43.33.71ZM36.02,80.54c-.53.17-1.05-.13-.91-.69.08-.31.29-.41.57-.54,1.1-.03.96,1.03.34,1.23ZM37.46,82.87c-.41.26-1.28-.47-.45-.82.57-.03.92.53.45.82Z"/>
      <path class="cls-1" d="M11.19,80.12c.09.33.12.8.41.92.31.1.61-.28.76-.41.19-.16.43-.41.51-.67.12-.4-.4-1.6-.54-1.8-.12-.16-.26-.54-.5-.57-.12.02-.24.05-.35.07-.06.08-.12.17-.18.25-.1.22-.05.49-.11.75-.05.24-.24.53-.2.79.04.25.14.44.2.65Z"/>
      <path class="cls-1" d="M80.04,77.8c-.1.08-.12.11-.18.23,0,.14.06.27.18.3.2.06.33-.18.38-.34-.07-.15-.16-.19-.38-.18Z"/>
      <path class="cls-1" d="M66.05,81.45c.12-.13.25-.25.37-.38.18-.15.36-.25.51-.44.08-.1.25-.25.17-.45-.06-.1-.21-.13-.35-.13-.09.02-.19.04-.28.06-.13.11-.25.22-.38.33-.4.29-.86.48-.45,1.09.08.01.33-.02.42-.07Z"/>
      <path class="cls-1" d="M44.89,80.18c-.09,0-.19,0-.28-.01-.25.14-.47.22-.52.55.24.36.66.11.95-.01.05-.08.11-.19.07-.31-.04-.09-.12-.17-.21-.21Z"/>
      <path class="cls-1" d="M54.52,81.37s.04-.06.06-.08c-.03-.24-.33-.39-.57-.42-.4.23.16.63.51.51Z"/>
      <path class="cls-1" d="M10.28,82.88c-.16.15-.18.64.04.74.27.13.48-.18.54-.37.04-.13-.05-.24-.07-.33-.09-.06-.18-.11-.33-.11-.06.02-.12.05-.18.07Z"/>
      <path class="cls-1" d="M13.49,85.22c.22.02.43.04.65.06.66.11,1.65.28,2.24.01.24-.11.38-.39.61-.52.41-.25.99-.57.98-1.22-.02-.02-.04-.05-.06-.07-.07,0-.14-.02-.21-.03-.26.16-.51.33-.85.4-.3.06-.62,0-.88.07-.45.12-.78.49-1.46.35-.58-.12-1.06-.52-1.73-.58-.31-.03-.85.4-.72.76.12.35,1.02.68,1.43.76Z"/>
      <path class="cls-1" d="M15.28,95.63c.11.11.22.23.33.34.11.14.19.28.35.37.27.14.69.06,1.03.14.26.06.48.2.76.25.32.06,1.26.04,1.46-.01.22-.08.44-.16.67-.24.35-.07.71-.13,1.06-.2.2-.11.41-.23.61-.34.59-.25,1.32-.34,1.46-1.02.06-.27-.24-.55-.33-.74-.06-.2-.12-.41-.18-.61-.22-.87-.54-1.56-.78-2.35-.02-.3-.05-.59-.07-.89-.07-.31-.13-.62-.2-.93-.18-1.06.39-1.66.52-2.41.08-.41-.1-.9,0-1.33.08-.37.35-.65.24-1.03-.09-.06-.21-.11-.37-.11-.21.2-.45.33-.61.59-.26.43-.44,1.44-.93,1.57-.86.23-.34-1-1.08-1.06-.12-.01-.32.02-.42.08-.54.33-.91.89-1.4,1.27-.39.3-.82.48-1.09.89-.15.22-.15.56-.25.82-.15.29-.29.59-.44.88-.28.54-.84,1.05-.69,1.98.06.41.04,1.07-.06,1.4-.06.17-.12.33-.18.5-.05.27.15.53.21.76.1.41.18,1.1.38,1.42Z"/>
      <path class="cls-1" d="M52.27,84.55c-.24.14-.47.28-.71.42-.17.15-.34.33-.57.42-.59.24-1.85.21-2.51.03-.19-.05-.39-.2-.57-.24-.06.23,0,.62-.1.84-.15.35-.52.44-.65.71-.2.42.66,1.03.96,1.08.36-.19.33-.75.71-.92.31-.14.83-.02,1.13-.13.34-.12.8-.31,1.08-.52.23-.18.4-.43.65-.58.37-.22.92-.3,1.02-.79-.1-.18-.17-.31-.45-.31Z"/>
      <path class="cls-1" d="M40.34,91.06c-.39.15-.69.14-.75.61.12.19.24.35.47.42.45.16,1.47-.12,1.56-.5.13-.55-.77-.55-1.27-.54Z"/>
      <path class="cls-1" d="M72.27,91.54c-.21.11-.3.22-.24.52.25.18.51-.03.5-.34-.08-.09-.1-.17-.25-.18Z"/>
      <path class="cls-1" d="M92.25,126.19h-1.93c-.24.04-.38.16-.57.24-.29.13-.81.15-1.19.07-.49-.1-.98-.2-1.47-.3-.42,0-.84.02-1.26.03-.26-.04-.62-.06-.88-.01-.54.1-.99.28-1.59.38h-4.39c-.37-.06-.74-.11-1.1-.17-.38.06-.76.11-1.13.17-.66,0-1.32,0-1.98-.01-1.46,0-2.97.04-4.19-.16h-2.15c-.28-.08-.56-.15-.84-.23-.37-.08-.75-.03-1.08-.13-.12-.06-.25-.11-.37-.17-.26-.09-.49-.09-.72-.18-.18-.08-.35-.19-.55-.25-.38-.12-.8-.11-1.13-.24-.25-.12-.5-.24-.75-.35-.2-.07-.4-.14-.59-.21-.12-.09-.25-.18-.37-.27-.19-.08-.39-.15-.58-.23-.14-.1-.27-.2-.41-.3-.26-.09-.53-.18-.79-.27-.4-.23-.77-.59-1.18-.81-.5-.27-.91-.53-1.36-.85-.11-.1-.22-.21-.33-.31-.19-.11-.39-.23-.58-.34-.21-.16-.42-.32-.64-.48-.11-.11-.22-.23-.33-.34-.74-.53-1.45-1.07-2.01-1.77-.12-.2-.25-.4-.37-.59-.09-.08-.18-.17-.27-.25-.38-.52-.79-1.05-1.12-1.61-.1-.27-.21-.54-.31-.81-.26-.45-.63-.9-.84-1.4-.08-.26-.15-.53-.23-.79-.17-.48-.63-.86-.5-1.64.1-.6.32-1.05.5-1.61.04-.13.17-.39.14-.55-.07-.43-.28-.78-.42-1.12-.24-.56-.42-1.07-.52-1.73-.01-.17-.03-.35-.04-.52-.07-.33-.2-.73-.13-1.05.1-.45.44-.75.52-1.23.06-.37-.26-.77-.65-.61-.24.14-.37.87-.25,1.27.05.19.28.46.18.74-.1.3-.52.52-.71.76-.29.39-.47.93-.58,1.5-.09.43.74.93.91,1.33.14.34-.08.57-.16.79-.04.3-.08.59-.13.89-.09.26-.19.52-.28.78-.08.37-.02.67-.27.85-.14.1-.5.12-.65.01-.29-.2-.85-1.55-.68-2.15.11-.38.5-.55.51-.92-.24-.23-.7.17-.98-.2-.3-.41-.31-1.36-.79-1.57-.06-.02-.13.01-.2.03-.31.52-.4,1.18-1.05,1.36-.61.17-1.45-.2-1.78.23-.44.56.46,1.58-.35,2.11-.13.09-.37.19-.61.13-.65-.18-.34-1.01-.28-1.57.06-.59-.34-1.03-.2-1.64.08-.36.39-.44.58-.68.11-.16.23-.31.34-.47h0c-.31-.28-.67-.22-.81-.67-.11-.35.02-.7.07-.99.11-.59-.1-1.04.42-1.22.18-.06.44-.04.61.03,1.36.6-.04,1.38.06,2.12.03.22-.27.55-.04.69.12.07,1.14.56,1.25.54.17-.09.33-.19.5-.28.25-.1.5-.12.57-.4.05-.19-.06-.34-.1-.45-.16-.4-.07-.74.14-1.01.37-.46,1.37-.39,1.6-.98.12-.32.02-.73.1-1.09.08-.37.33-.57.41-.93.02-.39.04-.77.06-1.16.09-.33.6-.61.54-.95-.09-.47-.59-.47-.67-.99-.08-.55.48-.65.55-1.09.06-.33-.28-.53-.37-.76-.05-.19-.1-.39-.16-.58-.1-.17-.2-.33-.3-.5-.16-.32-.28-.68-.45-.98-.12-.2-.23-.53-.17-.88,0-.12.02-.25.03-.37-.11-.62-.31-1.26-1.02-1.27-.4.19-.88.26-.91.81.11.15.22.29.33.44.39.91-.42,1.03-.89,1.27-.25.13-.42.29-.72.4-.29.1-.74.46-1.12.3-.25-.11-.36-.53-.25-.89.08-.21.17-.42.25-.62.04-.3-.38-.82-.58-.88-.33-.1-.63.13-.78.23-.23.16-.44.3-.65.47-.29.23-.52.58-.88.74-.49.22-.93-.15-1.47-.06-.26.04-.52.08-.78.13h-.78c-.26.1-.52.21-.78.31-.49.15-.7-.33-1.23-.34-.07,0-.14,0-.21-.01-.53.16-.69,1.29-1.26,1.15-.34-.08-.49-.46-.85-.58-.52-.18-1.19,0-1.67.07-.26,0-.53.02-.79.03-.38.09-.64.26-.93.4-.22.07-.43.14-.65.21-.23.1-.55.37-.76.52-.28.2-.45.54-.82.64-.49.14-.79-.18-1.09-.27-.23-.07-.44.07-.61.1-.25.02-.5.04-.75.06-.34.09-.63.26-.88.45-.96.72-.34.98-.16,1.87.02.32.04.63.06.95.05.25.17.44.3.62.35.51,1.24.46,1.61.93.21.27.16.8.35,1.08.1.09.2.19.3.28.11.18.22.37.33.55.31.34.73.61,1.01.99.2.27.4.54.59.81.12.1.24.2.35.3.07.08.13.17.2.25.48.36,2.04,1.09,1.76,2.04-.13.43-.79.63-1.39.48-.33-.08-.47-.32-.71-.48-.18-.08-.36-.15-.54-.23-.22-.13-.44-.34-.71-.41-.63-.16-.94.58-1.42.31-.45-.26-.49-.93-1.03-1.12-.16-.03-.31-.06-.47-.08-.74-.18-1.25-.26-1.67.31-.11.15-.24.26-.18.51.34.19.85-.23,1.23.04.61.44-.45,1.82-.78,1.95-.87.36-.9-1.12-.96-1.73-.9-.5-1.55.62-2.18.86-.35.14-.86,0-1.27.1-.33.08-.48.28-.76.38-.39.14-1.08-.21-1.22.01-.15.13-.09.4-.03.58.17.52.29.98.59,1.36.25.32.73.37.95.74.14.24.13.6.25.86.11.16.23.31.34.47.08.14.15.28.23.42.08.12.22.19.28.33.14.3.18.69.37.93.14.12.27.24.41.35.12.13.25.26.37.4.18.14.46.17.59.35.09.23.19.46.28.69.32.65.99.91,1.43,1.43.31.37.49.88.79,1.25.19.14.39.27.58.41.33.26.61.66.98.89.14.05.27.09.41.14.2.1.32.27.5.38.13.06.25.12.38.18.23.17.26.52.4.78.22.2.44.4.67.59.25.17.67.13.98.25.19.08.3.25.47.35.15.08.3.15.45.23.22.15.45.41.61.62.08.11.16.22.24.33.32.24.71.46.92.81.25.42.14,1.08.51,1.37.35.28.78.43,1.06.78.24.31.48.62.72.93.1.08.22.09.35.14.15.09.3.18.45.27.25.1.51.11.69.25.31.24.41.74.72.96.26.19.87,0,1.12.2.19.14.08.44.13.69.04.24.16.45.28.62.11.17.77.59.98.65.29.09.5.08.71.24.39.3.47.81.68,1.3.11.18.22.37.33.55.14.33.21.73.57.84.21,0,.42,0,.64.01.34-.31.24-.89.23-1.46,0-.39.05-.7.1-1.01.11-.64.05-.95.57-1.19.54-.25.84.42,1.1.62.39.29.93.39,1.05.96.07.37-.29.46-.47.59-.21.15-.74.69-.88.91-.07.17-.14.33-.21.5-.14.21-.46.55-.2.86.2.24.59.61.92.69.29.08.56.08.78.21.12.12.25.24.37.35.18.07.37.13.55.2.21.09.35.27.62.31.66.11.88-.69,1.84-.42.6.17.73.8,1.26,1.01.48-.21.81-.64,1.25-.89.24-.08.47-.17.71-.25.49-.31.96-.38,1.27.18.08.15.12.38.08.59-.1.61-.14.44-.54.71-.12.11-.25.23-.37.34-.44.27-.72.14-.98.64.04.47,1.02.78,1.61.58.18-.06.27-.17.38-.3-.1-.72-.46-1.49.68-1.46.13,0,.26.04.34.1.45.31.44,1.24,1.02,1.4.35.1.59-.28.79-.38.27-.13.63-.1.92-.23.24-.11.47-.32.68-.47.15-.11.47-.31.37-.64-.06-.21-.29-.26-.47-.37-.36-.22-.69-.44-1.2-.52h-1.3c-.59-.11-1.03-.51-1.57-.68-.25-.05-.51-.09-.76-.14-.25-.11-.44-.47-.72-.64-.44-.26-1.01-.41-1.43-.69-.12-.1-.24-.2-.35-.3-.24-.15-.47-.23-.68-.4-.25-.25-.51-.49-.76-.74-.24-.09-.47-.19-.71-.28-.39-.25-.67-.62-1.02-.89-.2-.16-.4-.31-.59-.47-.33-.19-.75-.25-.96-.55-.25-.36-.06-1.16-.28-1.54-.24-.41-.65-.62-1.03-.89-.14-.13-.27-.25-.41-.38-.28-.15-.67-.12-.91-.3-.3-.23-.63-1.2-1.01-1.2,0,0-.02,0-.03.01-.04.06-.09.1-.11.18.01.21.03.42.04.62v.98c.17.56.68,1.11.34,1.94-.08.2-.29.3-.41.47-.19.25-.37.62-.89.52-.76-.14-1.55-1.8-1.13-2.85.16-.4.56-.52.71-.92.11-.32-.14-.68-.34-.78-.17,0-.33.02-.5.03-.12.04-.26.15-.41.2-.58.17-1.14-.16-.96-.79.09-.34.38-.52.5-.85.12-.34-.03-.72-.08-1.06-.14-.84.47-1.37-.38-1.76-.62-.28-1.69-.14-2,.33-.19.29-.65,1.36-1.25,1.02-.38-.22-.56-.96-.24-1.39.17-.23.54-.24.79-.4.61-.37.1-1.07-.23-1.33-.15-.12-.39-.38-.61-.41-.2-.03-.49.08-.64.11-.35.08-.81,0-1.06-.1-.45-.18-.63-.65-.98-.93-.11-.09-.24-.29-.5-.18-.27.11-.34.49-.45.76-.15.34-.51.9-.89.99-.91.22-.2-1.27-.37-1.66-.18-.41-1.49-.54-1.16-1.36.42-1.03,2.65-.79,3.5-1.46.25-.2.53-.9,1.06-.68.33.14.4.73.2,1.08-.2.35-.58.65-.68,1.08-.09.38.64,1.29.86,1.36.39.13.52-.16.74-.33.41-.33.85-.58,1.18-.99.17-.22.39-.58.64-.72.17-.05.34-.09.51-.14.21-.1.85-.49.96-.67.16-.25.04-.69.11-1.05.05-.23.2-.37.25-.57.08-.29.02-.68.1-.95.1-.32.55-.66.48-1.02-.16-.8-.35-1.52-.92-1.91-.24-.08-.48-.16-.72-.24-.46-.19-.54-.32-1.08-.1-.26.11-.3.65-.52.82-.23.18-.71.11-.88.35-.62.9.69,1.62.14,2.37-.11.14-.22.3-.4.37-.1.02-.2.04-.3.06-.54.02-.82-.4-.61-.92.06-.16.26-.35.21-.59-.04-.19-.35-.47-.5-.57-.32-.2-1.46.26-1.29-.51.07-.3.69-.74.95-.89.15-.09.32-.08.41-.23-.19-.41-.37-.73.01-1.12.13-.13.58-.32.76-.08.12.52-.09.87-.23,1.2.02.2.32.29.57.28.11-.1.16-.22.25-.34.62-.79.22-.97-.51-1.33-.06-.24-.25-.69-.1-.96.18-.32,1.92-.77,2.49-.54.28.11.35.51.45.79.07.04.15.07.25.04.04-.02.08-.05.11-.07.06-.34-.18-.41-.24-.64-.07-.26.06-.52.01-.76-.05-.32-.26-.42-.37-.67-.06-.18-.11-.36-.17-.54-.16-.23-.63-.3-.84-.64-.23-.38-.09-.92.18-1.12.09-.05.19-.09.28-.14.14-.04.33,0,.42.04.54.28.19.78.35,1.36.07.23.28.33.47.44.16.06.31.12.47.18.1.08.2.16.3.24.32.16.68.1.85.4.33.56-.12,1.4.41,1.83.21.16.46.21.72.33.22.11.43.22.65.33.23.07.48.08.67.2.12.11.25.22.37.33.13.07.26.14.4.21.11.1.22.2.33.3.21.1.42.2.64.3.13.17.25.35.38.52.14.12.39.28.59.31.12,0,.24,0,.35-.01.37-.02.71.05.92.2.22.15.24.4.38.62.14.22.61.9.84.99.38.16.9-.04,1.36.07.3.07.57.33.71.57.35.58-.41.83-.34,1.33.07.5.74.64.55,1.35-.12.45-1.17.98-.51,1.5.1.06.2.12.3.18,1.28.43.98-1.46,1.95-.86,1.05.64-.22,1.33-.04,2.1.07.3.32.45.48.67.08.11.18.29.31.34.62.21.67-.51,1.27-.38.6.12.94,1.04,1.69.78.48-.17.88-1.26,1.59-1.05.42.12.75.9.57,1.5-.1.34-.36.57-.42.93-.05.27.46.92.62.98.15.06.27-.02.4-.06.25-.41.1-.91.51-1.23.38-.3.71.02,1.08.1.26.06.52.02.74.11.32.13.52.42.59.79.04.22.03.41.13.57.12.19.43.21.65.31.36.16.52.58,1.03.59.19-.15.38-.29.57-.44.49-.2.79.23,1.09.35.16.04.31.08.47.11.45.09.91-.08,1.27.08.25.13.49.26.74.4.15.11.27.3.47.37.32.1.67-.07,1.01-.01.37.06.65.2.96.28.6.16,2.54.2,1.94,1.18-.17.27-.48.4-.72.59-.08.11-.16.22-.24.33-.2.25-.7.28-1.05.14-.45-.18-.76-.73-1.49-.58-.22.04-.48.18-.78.13-.46-.07-.67-.26-.98-.45-.25-.11-.5-.22-.75-.33-.12-.07-.24-.14-.35-.21-.41-.14-.96.04-1.42-.03-.54-.09-.99-.36-1.53-.38-.35-.01-.72.27-1.12.1-.64-.26-.68-1.1-1.2-1.47-.17-.07-.33-.14-.5-.21-.35-.2-.63-.46-1.1-.55-.4-.08-.91.03-1.3-.03-.46.45.08.85.41,1.06.1.05.21.09.31.14.12.09.25.18.37.27.22.06.43.12.65.18.16.07.26.21.4.31.17.09.35.19.52.28.12.09.25.19.37.28.26.16.53.22.75.4.2.16.34.31.65.37.61.11,1.12-.32,1.69-.07.29.13.35.5.67.61.36.12.89-.06,1.27.06.28.08.41.3.65.4.25.06.5.12.75.18.44.17.86.43,1.39.52.53.1.82-.31,1.39-.18.86.19,1.37.9,2.58.72.18,0,.37,0,.55-.01.36-.1.44-.6.92-.71.49-.11.77.23,1.15.31.31.07.58-.11.81-.18.02-.03.04-.07.06-.1-.08-.15-.24-.42-.18-.68.06-.26.5-.59.86-.38.11.06.16.17.2.31.14.58-.39.73-.75.88.55.76.85.22,1.56.1.47-.08.93.16,1.37.04.39-.1.76-.43,1.32-.3.27.06.46.22.75.27.68.12,1.79,0,2.28-.18.25-.11.5-.23.75-.34.32-.1.76-.02,1.06-.1.45-.11.74-.33,1.1-.48.25-.05.51-.1.76-.16.38-.13.56-.47.98-.58.57-.15,1.52-.13,2.01.07.18.11.37.22.55.33.37.1.68-.18.92-.25.39-.06.78-.12,1.18-.18.26-.09.53-.19.79-.28.37-.09.81-.01,1.15-.1.55-.14.95-.44,1.46-.57.85-.22,1.54-.15,2.01-.75,0-.04,0-.08-.01-.11-.3-.21-.74.06-1.12.13ZM43.72,97.5c.13-.22.34-.25.59-.35,1.02-.03.76,1.59-.25,1.35-.32-.08-.57-.61-.34-.99ZM24.94,112.23c-.23.24-.54.3-.82.5-.35.25-.72,1.1-1.4.93-.59-.14-.74-.94-1.09-1.33-.17-.18-.42-.23-.64-.37-.23-.14-.55-.37-.69-.59-.14-.21-.25-.68-.07-.93.55-.77,1.27.62,2.07.44.5-.11.81-.65,1.23-.91.65,0,.68.58.92.96.17.27.61.37.69.71.06.27-.09.48-.2.59ZM29.4,123.28c.09-.22.26-.2.5-.28.81-.02,1.06.95.48,1.19-.51.21-1.17-.4-.98-.91ZM32.89,114.7c.59-.02.85.76.38.96-.54.24-1.17-.65-.38-.96ZM30.05,104.51c-.81.23-.75-.48-.92-.95-.11-.18-.22-.37-.33-.55-.25-.65.26-.97.65-1.15.8-.02,1.01.58.95,1.37-.04.57.29,1.09-.35,1.27ZM35.79,98.18c-.58.14-1.08-.6-.98-1.18.1-.57.3-.94.72-1.19.19,0,.36,0,.47.07.51.37.45,2.13-.21,2.29ZM40.71,107.29c-.31.47-.96-.14-1.3-.08-.48.08-1.3.93-1.97.44-.23-.17-.32-.61-.16-.93.31-.62.67-1.13,1.27-1.44.21,0,.42,0,.57.06.19.09.28.29.44.41.37.28.9.48,1.13.89.08.14.12.51.01.67ZM40.48,98.49c-.35-.08-.81.22-1.1.28-.34.08-.95.22-1.23.01-.29-.21-.17-.69.01-.92.36-.46.77-.25,1.37-.44.22-.07.32-.25.5-.35.1-.03.2-.07.3-.1.68,0,.61.42,1.03.55.73.22,1.26.06,1.63.67.07.11.13.34.04.5-.24.42-.88.24-1.3.14-.19-.02-.39-.05-.58-.07-.22-.09-.44-.18-.67-.27ZM41.24,102.23c.08-.14.21-.18.37-.25.84-.03.79,1.04.24,1.18-.55.14-.86-.5-.61-.92ZM48.82,116.54c-.25.15-.65.05-.85-.06-.61-.33-.66-1.35-1.02-1.93-.14-.22-.42-.31-.52-.57-.17-.41.02-.75.27-.89.75,0,.78.8,1.08,1.26.14.13.28.25.42.38.09.15.19.29.28.44.13.18.33.28.45.48.18.3.19.7-.11.88ZM49.45,114.29c-.51.34-1.05-.37-.47-.71.52-.03.92.42.47.71ZM51.27,119.03c-.57.39-1.37-.59-.59-1.02.22,0,.41,0,.54.08.27.17.36.73.06.93Z"/>
      <path class="cls-1" d="M68.95,95.8c-.14.09-.24.16-.27.37.06.09.11.15.24.18.19-.08.22-.19.3-.38-.02-.03-.04-.06-.06-.08-.04-.07-.11-.09-.21-.08Z"/>
      <path class="cls-1" d="M79.21,98.36c.08-.04.16-.15.2-.24,0-.08-.02-.15-.03-.23-.06-.09-.91-.57-1.06-.58-.08.05-.15.06-.2.16-.2.42.74,1,1.09.89Z"/>
      <path class="cls-1" d="M63.14,99.06c-.18.11-.24.16-.33.37.02.34.28.3.52.34.1-.05.21-.14.25-.24.1-.21-.09-.41-.21-.45-.08,0-.16,0-.24-.01Z"/>
      <path class="cls-1" d="M59.86,102.83v.08c.08.06.19.14.28.04.06-.03.07-.08.08-.16-.04-.04-.08-.08-.11-.13-.03,0-.06,0-.08-.01-.06.06-.11.11-.17.17Z"/>
      <path class="cls-1" d="M56.46,106.91c.33,0,.39-.19.57-.34.28-.23.39-.57.59-.86.25-.36.61-.65.85-1.01.15-.22.45-.37.45-.74-.12-.08-.22-.12-.44-.11-.88.41-1.45,1.23-1.98,1.98-.22.32-.62.79-.04,1.08Z"/>
      <path class="cls-1" d="M43.98,115.6s-.09.06-.14.08c-.02.17-.05.35-.07.52-.09.22-.33.31-.44.52.01.07.03.13.04.2.03.07.06.1.14.11.17.04,1.11-.81,1.22-.98-.12-.32-.29-.48-.75-.47Z"/>
      <path class="cls-1" d="M38.84,118.85s.04-.07.04-.14c0,0,0-.02-.01-.03-.04,0-.08-.02-.11-.03-.02,0-.05.02-.07.03-.02.06-.05.11-.07.17.03.02.07.04.1.06.08,0,.09-.01.13-.06Z"/>
      <path class="cls-1" d="M37.66,121.98c.09.06.18.12.27.18.2-.11.25-.41.11-.65-.16-.27-.46-.42-.69-.61-.23-.18-.33-.52-.51-.75h-.11s-.09.06-.14.08c0,.62.39,1.48.81,1.67.1.05.18.02.27.07Z"/>
      <path class="cls-1" d="M51,123.07c-.18-.14-.37-.27-.55-.41-.27-.27-.31-.52-.89-.51-.04.04-.08.08-.13.13-.14.35.3.58.47.69.3.21.59.46.89.69.14.14.27.27.41.41.11.07.33.07.44.11.16-.15.32-.41.17-.69-.14-.26-.56-.27-.81-.42Z"/>
      <path class="cls-1" d="M37.39,125.35c.09.3-.01,1.02.5.82.2-.07.28-.34.38-.52.4-.73.57-1.16.04-1.9-.13-.18-.2-.39-.45-.44-.35.25-.85.68-.69,1.36.08.23.15.45.23.68Z"/>
      <path class="cls-1" d="M75.51,137.59c-.38-.11-.91.18-1.39.11-.33,0-.65,0-.98-.01-.41-.07-.7-.22-1.19-.21-.42.22-1.2.31-1.81.2-.21-.04-.46-.13-.72-.08-.33.06-.74.08-1.09.18-.16.05-.32.14-.51.17-.81,0-1.62,0-2.44-.01-.44.07-.87.29-1.46.2-.26-.04-.53-.08-.79-.13-.33.07-.66.13-.99.2-.51.08-.92-.07-1.36-.07-.59,0-1.55-.11-2.03.06-.18.06-.86.44-.96.58-.22.28-.43.61-.71.84-.2.16-1.02.96-.95,1.29.05.24.71.78,1.02.72.23-.09.45-.19.68-.28.72-.22,1.52-.18,2.39-.18h.92c.36.06.84.24,1.26.08.4-.15.57-.51,1.02-.62.55-.14,1.29.06,1.87-.04.39-.07.64-.33,1.06-.41.86-.17,1.1.54,1.71.41.47-.17.94-.35,1.42-.52.2-.08.36-.24.58-.3.36-.1.71.1,1.08.01.27-.08.55-.15.82-.23.24-.12.47-.25.71-.37.77-.3,3.02-.22,3.24-.95.1-.32-.22-.57-.41-.62Z"/>
      <path class="cls-1" d="M54.46,140.73s-.09.02-.14.03c-.06.1-.07.14-.06.3.07.08.11.17.23.21.08.04.2,0,.27-.01.03-.03.06-.07.08-.1,0-.28-.16-.38-.38-.42Z"/>
      <path class="cls-1" d="M56.91,141.75c-.17.03-.34.07-.51.1,0,.02,0,.04-.01.06h1.73s0,0,.01-.01h0c-.34-.13-.8-.15-1.22-.14Z"/>
      <path class="cls-1" d="M61.63,141.87s0,0-.01.01h0c.16.02.31.02.47.03,0,0,0,0,.01-.01h0c-.08-.02-.17-.03-.25-.04-.07,0-.14,0-.21.01Z"/>
    </g>
  </g>
</svg>