<?xml version="1.0" encoding="UTF-8"?>
<svg id="Layer_2" data-name="Layer 2" xmlns="http://www.w3.org/2000/svg" viewBox="0 0 180.03 188.47">
  <defs>
    <style>
      .cls-1 {
        fill-rule: evenodd;
      }
    </style>
  </defs>
  <g id="Layer_1-2" data-name="Layer 1">
    <g>
      <path class="cls-1" d="M47.88,25.04c.4-.44.47-1.2.86-1.66.63-.74,1.07-1.68,1.72-2.42.24-.27.61-.54.8-.86.38-.65.65-1.35,1.34-1.69.74-.37,1.44-.74,2.2-1.05.88-.37,1.89-.33,2.68-.8,1.31-.77,2.81-1.64,4.27-2.2,1.27-.48,2.42-.82,3.66-1.37.59-.26,1.12-.77,1.69-1.05.28-.07.55-.15.83-.22.63-.29,1.42-.65,2.07-.92.33-.14.62-.08.96-.22,1.07-.46,2.13-1.17,3.15-1.62.29-.13.59-.07.89-.22.78-.38,1.66-.92,2.45-1.27,1.24-.56,2.34-.9,3.54-1.5,1.73-.86,3.51-1.25,4.62-2.77C86.68,1.7,85.01-.03,83.53,0c-.36.34-1,.34-1.43.61-1.77,1.06-3.52,2.23-5.51,3.09-.4.18-.93.04-1.37.22-1.02.42-1.71,1.35-2.68,1.75-1.25.52-2.7.66-3.92,1.24-.92.44-2,.98-2.96,1.4-.29.07-.57.15-.86.22-.63.28-1.27.79-1.94,1.05-1.11.31-2.23.62-3.35.92-1.11.53-1.93,1.62-3.06,2.07l-.86.1c-.4.11-.88.35-1.24.48-.28.03-.55.06-.83.1-.95.32-1.8,1.08-2.64,1.53-.92.48-1.8,1.21-2.23,2.17-.18.41-.13.72-.35,1.12-.34.44-.68.87-1.02,1.31-.38.53-.34,1.21-.57,1.91-.12.28-.23.55-.35.83-.14,1.02-1.14,1.66-.48,2.71.39.63,1.43.86,2.01.22Z"/>
      <path class="cls-1" d="M87.73,15.01v1.53c0,1.43.16,3.76,1.18,4.08,1.01.32,2.29-.69,2.58-1.18.13-.22.54-1.56.35-2.1-.13-.35-.37-.8-.25-1.4.11-.59.25-1.76.1-2.48-.05-.23-.19-.68-.1-1.02.12-.44.71-2.37.48-2.96-.55-1.38-.89-2.49-2.8-2.52-.25.12-.6.09-.83.22-.23.13-.31.43-.48.64-.87,1.09-.89,2-.89,3.98,0,.68-.12,1.55.1,2.1.16.41.44.69.57,1.12Z"/>
      <path class="cls-1" d="M123.19,55.69c-.33.19-1.19.6-1.5.7-.37.07-.74.15-1.12.22-.71.29-1.59.66-2.33.92-.42.04-.85.08-1.27.13-.55.19-1.09.49-1.72.67h-2.17c-.44.13-1.03.34-1.47.48-.38.01-.76.02-1.15.03-.46.09-.94.21-1.31.32-.63-.01-1.25-.02-1.88-.03-.59-.09-1.04.14-1.4.25-.63.2-2.13.43-1.69,1.56.55,1.41,2.64,1.14,4.59,1.15.66,0,.97.31,1.43.48h.99c.54.07,1.08.15,1.62.22h.67c.21.07.56.27.76.35.7.07,1.4.15,2.1.22.21.07.55.28.76.35.4.04.81.08,1.21.13,1.34.57,2.94,1.07,4.27,1.59.32.12.58.11.86.25,1.35.68,2.03,2.04,3.12,2.87.76.58,2.77,1.12,3.09,1.91.39.96-.12,2.67.22,3.73.15.25.3.51.45.76l.13.73c.14.34.34.64.48.99.03.31.06.62.1.92.36,1,.84,2.17,1.18,3.28.33,1.09-.34,2.73-.22,3.54.12.83.62,1.23.8,1.91v4.01c-.06.27-.26.92-.13,1.37.19.36.38.72.57,1.08.04.4.08.81.13,1.21.19.41.38.83.57,1.24.14.54-.55,1.71-.7,2.23.01.64.02,1.27.03,1.91-.01,1.34-.02,2.68-.03,4.01.12.35.42.52.64.76,1.2.02,1.39-.29,1.75-1.08.17-.37.74-1.11.45-1.85-.11-.28-.35-.6-.45-.92v-1.88c-.1-.47-.32-1.62-.13-2.26.12-.41.34-.91.48-1.27.26-.67.06-2.31.06-3.22.01-1.05.02-2.1.03-3.15.19-.31.38-.62.57-.92v-2.17c0-.9.17-1.65.32-2.42.01-.62.02-1.23.03-1.85.11-.35.1-.83.22-1.27.08-.31.37-.62.48-.89.04-.47.08-.93.13-1.4.15-.29.3-.57.45-.86.04-.55.08-1.1.13-1.66.32-.81.89-1.57,1.27-2.33,0,0,.49-1.52.57-1.69.61-1.22,2.04-2.23,3.06-3.09.46-.39.71-1,1.21-1.37.29-.22.66-.3.99-.48.53-.28,1.03-.82,1.59-1.05.62-.25,1.23-.46,1.82-.67.33-.12.52,0,.83-.13.7-.28,1.54-.66,2.23-.92.59-.04,1.19-.08,1.78-.13.3-.11.67-.33.96-.45.46-.18,1.21-.08,1.66-.22.66-.2,1.46.18,2.01.1.81-.13,1.95-.87,2.9-.57.74.23,3.16.92,4.17.48.17-.07.43-.28.61-.35.34-.04.68-.08,1.02-.13.49-.18.99-.7,1.18-1.18v-.48c0-.92-.55-1.03-1.24-1.27-.26-.09-.62-.26-.89-.35-.46-.16-3.19-.22-3.82-.1-.5.1-2.63.26-3.15.1-.31-.1-.68-.36-.96-.48-.49.01-.98.02-1.47.03-.62.1-2.94-.08-3.38-.25l-.8-.45c-.45-.04-.89-.08-1.34-.13-.55-.21-1.29-.47-1.88-.7-.61-.24-1.22-.17-1.78-.45-2.29-1.13-4.09-2.44-5.61-4.33-.43-.53-1.07-.93-1.47-1.5-.41-.58-.39-1.38-.7-2.1-.36-.84-1.02-1.5-1.37-2.36-.04-.38-.08-.76-.13-1.15-.13-.35-.37-.8-.48-1.18-.03-.21-.06-.42-.1-.64-.12-.27-.39-.6-.48-.89-.15-.46-.1-1.04-.22-1.43-.37-1.19.47-2.25.13-3.44-.12-.4.03-1.31-.13-1.75-.08-.23-.28-.57-.35-.8-.24-.75.1-2.57.1-3.28,0-.58-.16-1.22-.06-1.85.14-.92-.41-1.28-.61-1.85-.03-.46-.06-.91-.1-1.37-.07-.22-.27-.54-.35-.76-.31-.9.16-1.98.35-2.52.39-1.11-.1-2.88-.35-3.66v-1.56c-.31-.96-.48-1.7-1.82-1.69-.08.12-.27.13-.35.25-.64,1.02.06,2.35.35,3.22.15.45-.34,1.12-.45,1.47-.04,1.08-.08,2.17-.13,3.25v.61c-.09.25-.38.62-.48.92-.02.87-.04,1.74-.06,2.61.19.88.1,2.15.1,3.19v1.05c-.17.6-.52,1.05-.67,1.72-.11.5.07,2.3.19,2.74.05.19.25.72.22.96-.04.39-.35.73-.45.99v1.66c-.51,1.42-1.13,2.89-1.62,4.33-.03.29-.06.57-.1.86-.08.3-.37.61-.48.89-.03.34-.06.68-.1,1.02-.14.44-.38.98-.61,1.4-.26.48-.75.9-1.02,1.37-1.02,1.81-3.21,3.88-5,4.91Z"/>
      <path class="cls-1" d="M3.69,40.37l.67.67c.27.29.92.89,1.47.57.84-.48,1.01-1.48,1.4-2.39.08-.19.02-.36.13-.51l.8-.8c.83-.7,2.77-.66,3.82-1.18.89-.44,1.71-1.06,2.55-1.5.87-.45,1.76-.67,2.64-1.15.61-.32,1.26-.87,1.91-1.15.33-.14.66-.08,1.02-.22,1.3-.54,2.88-1.11,4.17-1.62.64-.25,1.21-.3,1.82-.57.28-.19.55-.38.83-.57.68-.39,1.5-.76,2.2-1.05.82-.34,1.8-.3,2.64-.7.82-.39,1.63-.95,2.33-1.47.26-.19.58-.2.89-.35.76-.36,1.61-.86,2.39-1.18,1.06-.44,2.13-.68,3.19-1.15,1.04-.47,3.62-2.64,4.14-3.6.1-.19.02-.33.1-.57.44-1.5-.22-2.12-1.72-2.1-.47.19-1.03.09-1.43.32-.42.24-.74.7-1.08,1.02-.58.54-1.38,1.18-2.1,1.53-.47.23-1.05.06-1.62.22-.59.17-1.34.3-1.88.57-1.14.59-1.91,1.71-3.06,2.33-.8.43-2.03.33-2.84.8-.91.52-1.98,1.11-3.03,1.5-.33.12-.55,0-.86.13-.34.13-.68.43-1.02.57-.57.24-1.05.21-1.62.45-.37.15-.8.43-1.18.57-.5.12-1,.23-1.5.35-.91.39-1.82,1.07-2.71,1.5-.84.4-1.79.49-2.58.96-.99.58-1.97,1.32-3.06,1.82-1.19.54-2.88.52-3.98,1.15-.66.37-.82,1.07-1.18,1.75-.24.44-.71.84-1.08,1.15-.89.73-2.16,1.31-1.72,3.15.07.3.05.54.16.76Z"/>
      <path class="cls-1" d="M100.51,35.24c.51-.15,1.02-.3,1.53-.45.79-.36,1.62-.87,2.39-1.27.18-.04.36-.08.54-.13,1.25-.61,2.49-1.24,3.82-1.85.72-.33,1.42-.83,2.13-1.15.5-.22,1-.23,1.5-.48.4-.2.79-.52,1.27-.67h.57c.42-.12.93-.32,1.31-.45.37-.04.74-.08,1.12-.13,1.28-.51,2.18-1.5,3.31-2.17.65-.38,1.38-.53,2.13-.83.53-.28,1.06-.55,1.59-.83.25-.22.51-.45.76-.67.29-.16.57-.19.86-.35,1.29-.73,2.86-1.53,3.47-2.93.62-1.41-.07-3.07-1.66-3.06-.34.14-.64.08-.92.25-.86.53-1.51,1.44-2.36,1.98-.37.23-.86.25-1.21.48-.88.58-1.81,1.34-2.77,1.82-.89.44-1.67.65-2.61,1.05-.53.23-.99.68-1.53.92-.63.28-1.3.43-2.07.57h-1.08c-1.14.69-2.27,1.38-3.41,2.07-.78.19-1.55.38-2.33.57-1.18.56-2.14,1.46-3.31,1.98-1.02.45-2.33.63-3.19,1.24-.36.2-.72.4-1.08.61-.83.47-1.42,1.35-2.39,1.72h-.48c-.65.17-1.56.39-2.01.8-.41.38-1.17,1.25-.8,1.98,1.48,2.89,5.24.02,6.88-.64Z"/>
      <path class="cls-1" d="M88.88,35.81c1.37.1,1.91-1.07,2.26-2.04.03-.48.06-.96.1-1.43.04-.27.25-.57.35-.8.18-.4.04-1.11.03-1.47,0-.53-.5-.93-.38-1.66.03-.17.21-.43.25-.57l.1-.96c.16-.5.85-1.32.61-2.07-.29-.89-.95-1.55-2.2-1.53-.2.16-.48.14-.73.25-.63.29-1.15.65-1.43,1.27-.03.25-.06.51-.1.76-.11.35-.57.84-.35,1.47l.35.7v3.79c-.2.55-1.07,1.74-.7,2.77.26.71.92,1.43,1.85,1.5Z"/>
      <path class="cls-1" d="M43.93,32.11c.08.23.29.56.35.8-.01.34-.02.68-.03,1.02-.05.86.44,1.69,1.05,1.88.77.24,1.28-.34,1.62-.57.42-.27.84-.55,1.08-.99.36-.65.16-1.44.35-2.33.38-1.74.01-3.17-1.88-3.19-.31.14-.78.11-1.08.22-.73.29-1.89,1.9-1.47,3.15Z"/>
      <path class="cls-1" d="M148.33,50.91c.35.15,1.56.76,2.1.57.31-.15.62-.3.92-.45.38-.14.66-.07.99-.22.44-.28.87-.55,1.31-.83.33-.13.67-.09,1.02-.22.25-.09.48-.33.7-.45.55-.3,1.2-.32,1.78-.57.39-.23.79-.47,1.18-.7,1.05-.44,2.07-.67,3.09-1.15,1.35-.64,2.65-1.56,4.01-2.2.63-.3,1.23-.42,1.85-.7,1.77-.8,3.47-1.79,5.1-2.77.29-.31.57-.62.86-.92.84-.94,1.85-1.68,2.52-2.8.18-.3.55-.56.7-.89v-.38c.51-1.75-1.08-2.13-2.71-2.1-.2.13-.4.25-.61.38-.88.96-1.79,1.98-2.77,2.84-.15.08-.3.17-.45.25-.37.38-.74.76-1.12,1.15-1.43.82-3.15,1.24-4.62,2.07-.78.44-1.59,1.14-2.42,1.5-.97.23-1.93.47-2.9.7-.97.52-1.85,1.37-2.84,1.85-1.27.61-3.08.55-4.3,1.15-.55.48-1.1.96-1.66,1.43-.27.36-.57.89-.96,1.12-.44.26-1.28.22-1.56.64-.66.57.34,1.53.76,1.72Z"/>
      <path class="cls-1" d="M65.05,50.91c1.57-.61,3.27-1.45,4.84-2.07.34-.14.64-.08.99-.22.4-.16.72-.51,1.08-.7l.96-.35c.97-.56,2.03-1.23,3.12-1.72.34-.15.74-.07,1.12-.22,1.01-.42,1.97-1.08,2.96-1.5.87-.37,1.77-.48,2.58-.92,1.88-1.04,3.82-2.28,4.84-4.17.42-.77-1.66-2.49-2.45-2.48-.55.48-1.41.58-1.98,1.05-.37.31-.51.78-.83,1.15-.48.54-1.33,1.09-2.01,1.4-1.28.58-2.97.58-4.21,1.15-.29.19-.57.38-.86.57-.49.25-1.01.33-1.53.57-.67.32-1.41.86-2.1,1.15-.66.27-1.33.29-1.94.57-1.41.65-2.65,1.55-4.11,2.2-.39.17-.71.07-1.18.22-.4.13-.89.35-1.24.48-.72.25-1.34.17-1.98.45-.49.22-1.54.89-1.88,1.27-.32.37-.5.85-.89,1.15-.57.44-1.34.89-2.01,1.15-.58.22-1.34-.11-1.94.13-1.22.47-1.97,1.63-2.8,2.52-.3.32-.72.43-1.08.7-.82.61-1.53,1.55-2.13,2.39-.53.73-2.33,1.58-1.56,2.96.38.69,1.84,1.5,2.99.96.85-.4,1.5-1.51,1.91-2.36-.03-.06.15-.52.22-.64.5-.73,1.23-1.49,2.01-1.94.36-.13.72-.25,1.08-.38.82-.43,1.79-.61,2.64-1.02.78-.37,1.58-.74,2.39-1.15.4-.2.74-.63,1.15-.83.29-.07.57-.15.86-.22.73-.3,1.46-.86,2.23-1.15.24-.04.49-.08.73-.13Z"/>
      <path class="cls-1" d="M46,41.67c.29.49.9,1.15,1.69.83.43-.18.81-.68,1.02-1.08.19-.36.44-.7.57-1.15.13-.43-.12-.78-.22-.99-.62-1.22-1.14-2.11-3.03-2.07-.98.37-1.34.78-1.08,2.04.09.42-.04.73.13,1.05.22.41.66.92.92,1.37Z"/>
      <path class="cls-1" d="M91.33,40.88c1.4.77,3.1-.46,3.28-1.53.17-.98-.26-1.78-1.21-1.75-.28.22-.75.07-1.12.22-.75.32-2.2,2.38-.96,3.06Z"/>
      <path class="cls-1" d="M175.57,46.64v.45c.15.37.33.83.45,1.27.26,1.01-.18,2.25-.32,3.09.01.92.02,1.85.03,2.77.06.27.19,1.04.06,1.4-.41,1.16.01,3.8.25,4.75-.01.57-.02,1.15-.03,1.72.01.52.02,1.04.03,1.56-.29,1.14-.23,2.89-.57,3.92-.16.48-1.02.92-.7,1.82.36,1,.85,1.61,1.05,2.96.12.81-.17,3.34-.38,3.73-.25.45-.7.98-.67,1.69.03.68.06,1.36.1,2.04.08.23.37.47.48.67.21.37.32.94.45,1.34.16.51-.11,1.59-.22,1.98-.14.46-.44.99-.57,1.43-.33,1.06-.27,1.94-.7,2.84-.22.44-1.19,1.95-1.56,2.2-.47.28-.93.55-1.4.83-.31.22-.97,1.05-1.27,1.37-.53.57-.73,1.45-1.43,1.85-1.05.59-2.51.61-3.6,1.18-.95.5-1.74,1.25-2.74,1.72-1.09.51-2.37.58-3.41,1.15-.33.18-.66.52-.99.7-.3.16-.58.17-.86.35-.33.21-.61.61-.99.8-.41.2-.9.06-1.37.22-.35.12-.8.38-1.18.48l-.92.1c-.87.36-1.44,1.12-2.26,1.5-.28.13-.49,0-.76.13-.3.14-.61.45-.92.57-.4.16-.78.04-1.15.22-1.03.51-1.97,1.17-2.99,1.72-.47.25-.9.69-1.37.92-.74.28-1.49.55-2.23.83-.36.23-.66.72-.92,1.05-.37.47-.96.72-1.27,1.27-.58,1.01-1.04,2.62.35,3.15.59.23,2.48-.59,2.87-.83,1.5-.94,2.82-2.07,4.43-2.87,1.05-.52,2.22-.79,3.19-1.37.29-.17.59-.2.89-.35.46-.22.94-.61,1.43-.8.27-.1.43-.01.7-.13.33-.14.7-.44,1.02-.57.37-.15.75-.05,1.08-.22.79-.41,1.6-1,2.39-1.4.28-.14.56-.08.86-.22.31-.14.67-.4.96-.57.3-.17.6-.17.89-.35.34-.21.74-.53,1.12-.7.93-.42,1.86-.57,2.77-1.02,1.47-.72,2.93-1.68,4.4-2.42.28-.14.62-.11.92-.25.98-.47,2.09-1,2.99-1.59.7-.46,1.15-1.22,1.62-1.91.29-.43.75-.79,1.05-1.21.26-.37.38-.73.7-1.02.27-.24.65-.36.89-.64.24-.33.49-.66.73-.99.36-.35.83-.56,1.15-.96.22-.39.45-.79.67-1.18.16-.18.32-.36.48-.54.61-1.09-.21-2.91.1-4.14.19-.75.27-3.63,0-4.36-.13-.35-.45-.65-.57-.99-.33-.89.24-2.09.45-2.48.15-.3.17-.91.25-1.18v-.61c.2-1.18.14-2.83-.13-3.89-.11-.43.04-1.04.1-1.34-.03-1.02-.06-2.04-.1-3.06,0-.35.07-.57.13-.76v-1.27c.15-.3.3-.59.45-.89.23-.63.1-1.64.1-2.42v-1.34c-.18-.85-.44-1.44-.67-2.23-.13-.45.03-1.18.1-1.5.07-.33-.05-.64-.1-.86-.15-.78.07-1.56.19-2.17.21-1.09-.43-2.04-.76-2.58-.19-.3-.84-.77-.57-1.47.2-.51.66-.92.92-1.37.29-.49.22-1.08.45-1.75.12-.22.23-.45.35-.67.23-.63.1-1.64.1-2.42,0-2.48.28-3.77-2.36-3.73-.21.11-.55.09-.73.22-.59.43-.61,1.17-.86,1.98-.47,1.49-.94,3.95-.48,5.67Z"/>
      <path class="cls-1" d="M3.08,49.41c1.43-.49,2.65-2.47,1.5-4.17-.32-.47-.81-.78-1.31-1.08-.48-.3-.67-.59-1.53-.57-.6.56-1.31.9-1.62,1.75-.15.4-.16,1.98-.03,2.33.25.69,1.65,2.21,2.99,1.75Z"/>
      <path class="cls-1" d="M87.03,52.03c-.26,1.2,1.22,2.91,2.36,2.45,1.52-.62,2.68-2.74,2.2-4.91-.03-.4-.06-.81-.1-1.21-.54-1.34-1.42-2.41-2.2-3.5h-.64c-.28.45-.52.92-.7,1.53-.29.96.43,1.74.13,2.68-.32,1.01-.82,1.88-1.05,2.96Z"/>
      <path class="cls-1" d="M1.71,65.5v.96c-.49,1.28-1.1,3.37.8,3.82.19.04.5.16.8.1.35-.07.73-.15.99-.32.46-.3,1.65-2.11,1.31-3.19-.35-.83-.7-1.66-1.05-2.48-.29-1.12.78-2.08.57-3.28-.07-.63-.15-1.25-.22-1.88-.21-.55-.81-2.34-.45-3.41.17-.51.39-1.09.57-1.56.49-1.3-.97-2.84-1.62-3.06h-.64c-.23.24-.64.32-.83.61-.75,1.17-1.1,3.11-1.59,4.52.01.81.02,1.61.03,2.42,0,1.34-.05,3.03.32,4.01.12.23.23.47.35.7.03.34.06.68.1,1.02.13.33.44.67.57,1.02Z"/>
      <path class="cls-1" d="M45.01,56.9c3.06.25,4.62-5.19.64-5.1-.38.2-.79.2-1.12.41-1.17.75-2.64,3.69-.61,4.59.32.14.68.06,1.08.1Z"/>
      <path class="cls-1" d="M92.16,54.35c-.16.02-.32.04-.48.06-.53.23-.9.9-1.08,1.47-.36,1.09,1.01,3.12,2.23,2.64,2.25-.88,2.75-4.26-.67-4.17Z"/>
      <path class="cls-1" d="M69,67.86c.42-.25.5-.86.7-1.34.25-.59.67-1.11,1.21-1.4,1.11-.6,2.48-.7,3.6-1.27.57-.29,1.15-.81,1.75-1.05,1.4-.57,2.74-1.14,4.08-1.72,1.53-.66,3.58-1.09,4.78-2.07.54-.45,1.13-1.91.61-2.93-.34-.66-1.34-.71-2.36-.7-.18.1-.42,0-.67.1-.24.12-.49.23-.73.35-.39.13-.7.06-1.02.22-1.95.96-3.66,2.15-5.8,2.99-.52.21-1.04.15-1.59.35-1.11.4-2.24.85-3.12,1.5-.75.54-.8,1.63-1.27,2.45-.58,1.02-3.62,2.27-2.29,3.95.34.43,1.31,1.07,2.13.57Z"/>
      <path class="cls-1" d="M103.12,60.15c-.39-.57-1.08-.76-2.07-.73-.21.03-.42.06-.64.1-.51.2-.88.53-1.15.99-.02,1.68,3.93,2.07,3.85-.35Z"/>
      <path class="cls-1" d="M87.29,75.82h.67c1.39,0,1.66-.7,2.26-1.47.5-.64.66-.95.92-1.88v-1.18c.1-.36.31-.72.45-1.08.31-.86.1-3.38.1-4.52,0-.47.06-1.35-.1-1.69-.15-.32-.35-.68-.45-.96-.19-.52-.02-.88-.25-1.24-.35-.54-1.27-.71-2.17-.7-.32.34-.66.3-.89.83-.19.44-.22,4.51-.1,5.22.06.36.37,1.45.22,1.85-.51,1.35-1.35,2.18-1.85,3.47-.51,1.33.33,3,1.18,3.35Z"/>
      <path class="cls-1" d="M52.02,74.2l.64-.35c.22-.03.45-.06.67-.1.95-.37,1.72-1.2,2.58-1.62.27-.13.58-.07.86-.22,1.36-.71,2.84-1.55,4.08-2.42.44-.19.87-.38,1.31-.57.36-.2,1.6-1.31,1.78-1.66.19-.37.19-.93.19-1.47-.02-.47-.04-.93-.06-1.4-.24-.74-1.51-1.45-2.58-1.43-.52.6-1.49.78-2.01,1.4-.27.32-.34.74-.57,1.12-.4.63-1.16,1.45-1.78,1.85-.47.3-1.36.1-1.88.38-.44.24-1.02.39-1.5.67-.75.43-1.4,1.22-2.01,1.82-.87.86-2.2.25-2.52,1.78-.08.4.04.91.29,1.18.26.28,1.83,1.29,2.52,1.05Z"/>
      <path class="cls-1" d="M47.4,68.5c.99-.2,1.8-.76,2.13-1.59v-1.05c0-1.65-.73-2.44-2.33-2.42-.21.03-.42.06-.64.1-.45.24-.76.85-.92,1.37-.48,1.51.06,3.95,1.75,3.6Z"/>
      <path class="cls-1" d="M93.02,74.84c-.12.61-.02,1.37.25,1.78.73,1.13,2.74.2,3.5-.35.78-.57,1.65-1.32,2.55-1.72,1.29-.58,2.68-.92,3.98-1.5.52-.31,1.04-.62,1.56-.92,1.41-.61,3.12-.95,4.27-1.85.48-.37.84-1.96.35-2.68-.36-.53-1.28-.62-2.17-.61-.42.17-1,.06-1.4.22-.96.38-1.83.95-2.84,1.27-.7.22-1.46.14-2.07.45-1.7.85-2.86,2.26-4.72,2.99-1.67.66-2.89.95-3.28,2.9Z"/>
      <path class="cls-1" d="M1.17,85.1c0,1.73-.38,4.43.7,5.13.2.13.63.57,1.15.35.61-.27,1.46-.75,1.78-1.31.24-.42.13-1.1.32-1.62.58-1.61.57-3.68.57-5.93,0-.79.12-1.96-.1-2.61-.15-.46-.44-.99-.57-1.34v-.57c-.27-1.48,1.04-2.47.35-3.73-.48-.87-1.34-1.55-2.71-1.53-.44.51-1.13.52-1.4,1.24-.25.66-.12,1.96,0,2.61v1.47c.14.38.71,1.33.45,2.01-.57,1.45-.54,3.68-.54,5.83Z"/>
      <path class="cls-1" d="M7.89,95.99c.48-.74.47-2.02,1.15-2.55,1.06-.82,2.08-.85,3.41-1.37.78-.31,1.38-.77,2.07-1.15.82-.31,1.64-.62,2.45-.92,1.42-.77,2.89-1.73,4.4-2.42.36-.12.72-.23,1.08-.35.34-.15.69-.45,1.08-.57h.45c.32-.12.6-.43.89-.57.25-.13.47-.1.76-.22.83-.35,1.52-1.03,2.39-1.4.42-.07.85-.15,1.27-.22l.8-.45c.37-.13.64.01,1.02-.13.35-.13.81-.27,1.18-.45.6-.3,1.15-.84,1.72-1.18.49-.29.98-.41,1.53-.67.24-.16.49-.32.73-.48,1.08-.42,2.16-.58,3.09-1.15,1.47-.9,2.59-1.91,3.47-3.41.27-.29.53-.57.8-.86.68-1.04-.68-1.94-1.62-1.94-.51.21-.89.22-1.31.48-.93.57-1.49,1.66-2.55,2.1-.72.3-1.37.62-2.17.8-.52.12-.96-.07-1.4.13-1.24.55-2.25,1.5-3.41,2.07-1.61.79-3.4,1.27-5.16,1.94-.53.2-.96.66-1.43.92-.52.29-1.07.53-1.56.8-.38.2-.79.18-1.21.35-.48.19-.98.52-1.47.7-.51.07-1.02.15-1.53.22-.83.33-1.72.67-2.58,1.05-.5.22-.76.77-1.21,1.02l-.73.35c-.25.2-.49.54-.76.7-.62.36-1.44.66-2.1.92-.22.04-.45.08-.67.13-1.11.43-2.13.98-2.93,1.72-.72.66-1.13,1.81-2.01,2.29-1.12.61-3.68,1.44-2.26,3.41.79,1.1,3.34,1.88,4.33.35Z"/>
      <path class="cls-1" d="M55.75,134.09c.39-.55.97-.96,1.4-1.47.3-.35.56-.77.96-1.02.36-.23.73-.34,1.08-.57.18-.12.37-.36.57-.45.3-.13.61-.07.92-.22,1.2-.57,2.75-1.16,4.11-1.53.41-.03.83-.06,1.24-.1.52-.15,1.03-.41,1.5-.57h.48c.36-.09.92-.23,1.24-.35h1.78c1.24-.44,3.31-.13,4.52-.57.47-.17,1.1-.47,1.4-.83.21-.26.31-.53.61-.7.71.08,1.06.97,1.72,1.18h4.72c.39-.12.8-.6.92-.99.33-1.03-1.13-1.44-1.98-1.59-.51-.09-1.06.26-1.66.1-.47-.12-1.25-.32-1.85-.13-.7.22-1.17.98-1.85,1.15-.83-.76-1.44-1.05-2.61-1.5-.67-.25-2.06.14-2.71-.1-1.89-.69-4.73-.61-6.63-1.27-.42-.15-.72.01-1.12-.13-1.69-.6-3.31-1.3-4.78-2.07-.7-.36-1.46-.56-2.04-1.05-1.24-1.05-2.18-2.17-3.03-3.63-.22-.25-.45-.51-.67-.76-.33-.54-.45-1.3-.83-1.82-.37-.49-.85-.98-1.15-1.53-.27-.49-.14-1.12-.35-1.72-.39-1.12-.84-2.4-1.15-3.6-.14-.55.29-.81.13-1.34-.11-.37-.45-.68-.57-1.02v-.51c-.07-.45-.23-1.04-.13-1.62.06-.35.17-.85.1-1.31-.17-1.07-.41-1.87-.57-2.9.04-1.22.08-2.44.13-3.66-.23-1.42-.53-3.64-.25-5.1.12-.62-.13-1.4,0-2.1.01-.87.02-1.74.03-2.61-.11-.27-.39-.63-.48-.92v-1.56c-.17-.97-.45-1.82-1.59-1.82-.31.3-.81.47-1.02.86-.12.23.03.72-.1,1.12-.16.32-.32.64-.48.96-.15.68.36,1.3.48,1.72.29.98-.41,1.86-.13,2.9.16.61.57,3.7.35,4.36-.15.46-.05,1.08-.22,1.59-.11.33-.45.61-.57.92-.17.42.07,1.18.13,1.43.13.57-.07,1.33-.13,1.72-.17,1.12.8,1.64.57,2.36-.15.29-.3.57-.45.86-.07.61-.15,1.21-.22,1.82-.21,1.24.37,2.43-.03,3.54-.25.69-.64,1.3-.92,1.91-.39.86-.42,1.58-.8,2.45-.09.21-.37.51-.48.76-.19.45-.36,1.09-.54,1.59l-.13.86c-.3.63-.92,1.03-1.27,1.59-.27.46-.53.91-.8,1.37-.22.19-.45.38-.67.57-.17.29-.34.57-.51.86-.42.62-1.59,1.6-2.23,2.01-.3.19-.66.17-.99.35-.46.25-.95.59-1.47.8-.32.07-.64.15-.96.22-.32.19-.64.38-.96.57l-.89.13c-.29.15-.57.3-.86.45-.33.04-.66.08-.99.13-1.2.41-2.32.94-3.66,1.27h-6.4c-.38-.1-1.1-.33-1.62-.22-.66.13-1.11.41-1.62.57-1.14.36-2.39-.2-2.8.92-.45,1.23,1.14,1.78,1.78,2.01h1.12c.35.1.7.37,1.02.48,1.78-.01,3.57-.02,5.35-.03.66-.13,1.15-.38,1.69-.54.93-.27,1.55.77,2.07,1.02.47.23,1,.42,1.43.57h.96c.32.08.83.1,1.21.22,2.57.86,5.1,1.75,7.01,3.25.49.31.98.62,1.47.92.17.23.34.47.51.7.44.43,1.03.86,1.34,1.4.36.62.57,1.27.92,1.88.2.34.53.69.7,1.05.12.34.23.68.35,1.02.27.54.72,1.16.92,1.75.04.49.08.98.13,1.47.5,1.35,1.1,2.55,1.59,3.92v5.26c.07.28.33.7.25,1.08-.06.32-.29,1.11-.13,1.59.24.7.03,1.57.03,2.42v5.32c0,2.04-.03,4.03.41,5.58.18.65.02,1.56.13,2.13.25,1.35-.32,1.36.76,1.94.11.06.69.22.92.1.84-.43,1.27-1.27,1.05-2.45-.04-.21-.24-.67-.13-1.05.48-1.56.8-3.1.8-5.35v-1.56c-.05-.29.01-.71-.1-1.05-.19-.6-.43-1.75-.25-2.61.1-.52.25-.95.25-1.62v-3.28c.08-.22.31-.55.35-.76.16-.75-.05-1.81.22-2.55.19-.33.38-.66.57-.99.2-.63-.31-1.01-.13-1.59.23-.59.47-1.19.7-1.78.07-.48.15-.96.22-1.43.17-.43.34-.9.45-1.47.13-.68-.25-1.47.03-2.1.51-1.14,1.11-2.21,1.72-3.31.5-.49,1-.98,1.5-1.47.19-.36.38-.72.57-1.08Z"/>
      <path class="cls-1" d="M91.01,80.6c-.33-.2-.89-.23-1.4-.22-.44.2-.82.11-1.08.48-.22.32-.05.59-.22,1.05-.78,2.06.03,4.97.03,7.52,0,1.71-.22,3.29.83,3.92.16.1.37.33.73.22,1.44-.43,2.28-1.46,2.26-3.28.01-.3.02-.59.03-.89-.23-.93-.94-1.26-.96-2.45,0-.55.63-1.24.83-1.69.55-1.26-.36-4.23-1.05-4.65Z"/>
      <path class="cls-1" d="M87.86,108.8c.73.58,2.43.08,3.12.7.74.66.37,3.54,2.39,2.87.89-.3,1.57-1.53,1.24-2.77-.32-1.21-2.09-1.3-2.64-2.33-.57-1.06.33-2.72-.03-3.79-.28-.83-2.13-2.75-3.03-2.84-.15.1-.4.14-.51.29-.57.76-.09,2.23-.32,3.25v.57c-.14.38-.28.96-.48,1.34-.19.27-.38.53-.57.8-.3.81.5,1.65.83,1.91Z"/>
      <path class="cls-1" d="M6.3,104.72c.38-1.69-1.28-2.61-2.71-2.58-.82.56-1.7.54-2.2,1.43-.64,1.14-.09,4.3.22,5.29.29.93-.5,1.43-.25,2.33.1.37.23.82.32,1.27.01.5.02,1,.03,1.5.06.17.24.66.19.92-.22,1.22-.5,3.08-.19,4.49.16.74,0,1.87-.1,2.48-.34,2.04.22,3.81,1.78,4.01,1.59.21,2.64-3.35,2.29-5.22-.27-1.49-.29-3.27,0-4.75l.03-.7c.12-.29.35-.57.45-.8.3-.77-.34-1.43-.48-1.85v-1.47c0-.66-.1-1.28-.22-1.78v-.96c0-1.74.53-2.33.83-3.63Z"/>
      <path class="cls-1" d="M177.61,103.8l-.73.19c-.81.46-1.69,4.21-1.4,5.86.2,1.15.32,2.27.32,3.73v1.21c-.12.54-.23,1.08-.35,1.62-.21.42-.9,1.21-.67,1.94.11.36.4.62.57.96.21.39.31.97.45,1.37.21.62-.19,3.92-.35,4.21-.2.37-.55.64-.67,1.02.03.7.06,1.4.1,2.1.2.34.4.68.61,1.02.14.44.19.89.32,1.27.15.48-.14,1-.22,1.27-.03.38-.06.76-.1,1.15-.18.53-.54.86-.67,1.53-.28,1.41.18,1.96.64,2.68.18.29.26.78.48,1.12.23.36,1.15.94.8,1.78-.34.82-1.63.92-2.07,1.69-.23.4-.6,1.41-.35,2.2.23.71.47,1.84-.25,2.23-.67.36-1.51.36-2.23.7-.65.39-1.3.79-1.94,1.18-.53.39-.9,1.1-1.47,1.47-.82.53-2.24.42-3.06.92-1.16.72-2.2,1.63-3.54,2.2-1.27.54-2.83.67-4.05,1.27-.71.5-1.42,1-2.13,1.5-1.53.66-2.93,1.15-4.4,1.85-1.34.64-2.46,1.66-3.89,2.2-1.68.64-3.31,1.07-4.72,1.94-.77.48-1.51,1.06-2.36,1.5-.4.12-.81.23-1.21.35-.61.31-1.1.86-1.85,1.05-1.1.29-1.28-1.24-1.56-1.85-.21-.44-1-1.54-.83-2.23.2-.78.9-1.18,1.18-1.88.56-1.42-1.05-3.33-2.39-2.8-.36.14-1.71,1.73-1.5,2.33.17.47.95.91.7,1.69-.28.86-.96,1.33-1.27,2.1-.04.24-.08.49-.13.73-.1.23-.34.54-.45.86v1.21c-.69,2.11-2.89,3.05-4.68,4.08-.31.28-.62.55-.92.83-.98.57-1.73,1.25-2.84,1.72-.55.24-1.47.08-2.04.35-.39.19-1.03.43-1.4.7-.89.66-1.73,1.59-2.8,2.07-.52.23-1.23,0-1.78.22-.79.32-1.93.41-2.74.8-.31.23-.62.47-.92.7-1.82.85-3.52,2.11-5.32,2.9l-.54.1c-.44.27-.87.53-1.31.8-.35.12-.7.23-1.05.35-.31.15-.61.44-.96.57-1.25.46-2.5.73-3.6,1.27-.87.43-1.66,1.13-2.42,1.72-.27.31-.53.62-.8.92-.68.46-2.23,1.1-2.61,1.75-.28.49,0,1.06.22,1.4.17.26.59.44.86.61,1.76,1.09,3.53-.48,4.72-1.15.56-.46,1.13-.91,1.69-1.37.43-.26.96-.54,1.4-.7.35-.13.65-.07.96-.22,1.53-.76,2.93-1.76,4.49-2.42.89-.38,1.76-.41,2.64-.8.34-.28.68-.55,1.02-.83,1.29-.67,2.55-1.1,3.95-1.72.79-.35,1.49-.8,2.33-1.15,1.96-.82,3.95-1.93,5.89-2.77,1.5-.65,2.95-1.11,4.36-1.85.51-.27.96-.72,1.43-1.02.75-.48,1.46-.83,2.23-1.27,1.53-.88,1.59-3.38,3.35-4.05,1.1-.42,3.19,1.66,4.59,1.02,1.75-.8,3.51-1.51,5.19-2.39.92-.48,1.94-1.2,2.9-1.62l.48-.13c.4-.24.83-.6,1.27-.8.4-.12.81-.23,1.21-.35.94-.41,1.76-1.07,2.64-1.5.68-.33,1.26-.48,1.98-.8,1.02-.45,2.07-1.15,3.06-1.62.27-.07.53-.15.8-.22.52-.26,1.03-.67,1.56-.92.46-.22.93-.42,1.37-.57.39-.14.7-.06,1.05-.22.96-.45,1.93-.99,2.8-1.5,1.04-.42,2.08-.85,3.12-1.27,1.22-.61,2.1-1.58,3.28-2.2.31-.16.63-.07.99-.22.8-.33,1.62-.77,2.26-1.27.42-.33.91-1.12,1.08-1.59.25-.69-.16-1.67.13-2.23.32-.62,1.41-.83,2.04-1.15.64-.32,1.6-1.54,1.88-2.2.45-1.05-1.9-2.47-1.5-3.54.24-.64.87-.91,1.24-1.4.23-.29.95-1.75.7-2.36-.12-.29-.36-.56-.45-.83-.17-.49-.02-.92-.22-1.34-.32-.67-.66-1.58-.48-2.71v-.64c.17-.42.42-.77.57-1.31.17-.6.05-1.16.22-1.75.1-.34.33-.64.41-1.08.12-.66-.36-1.11-.51-1.53-.15-.43,0-1.55-.13-2.01-.23-.89.1-1.82.1-2.68-.03-.87-.06-1.74-.1-2.61.06-.22.13-.49.13-.86v-1.56c.17-.55.4-1.04.54-1.66v-2.93c0-2.74.14-6.28-2.39-6.44Z"/>
      <path class="cls-1" d="M68.46,117.62c.46.79,3.41,1.64,4.94,1.08,2.91-1.06,5.55-2.73,8.25-4.05,1.36-.66,2.99-.96,4.14-1.82.61-.45,1.06-2.22.51-3.06-.27-.42-.84-.63-1.53-.64-.69.28-1.28.28-2.01.51-.38.12-.72.43-1.08.57l-.73.1c-.39.16-.85.37-1.27.57-.54.27-.98.77-1.5,1.05-.84.42-1.68.85-2.52,1.27-.96.58-1.83,1.45-2.96,1.85-.43.15-.79.31-1.18.45h-.8c-1.2,0-1.96-.02-2.36.76-.08.15-.23.57-.13.89.07.15.15.3.22.45Z"/>
      <path class="cls-1" d="M98.15,146.39c2.01-.84,3.77-1.78,5.64-2.77.34-.18.69-.54,1.05-.7.53-.24,1.01-.32,1.5-.57.79-.41,1.58-.67,2.45-1.05.93-.4,1.89-.98,2.87-1.37.9-.36,1.72-.43,2.61-.8,1.26-.52,2.35-1.39,3.54-1.98.31-.15.64-.07.99-.22.26-.11.6-.37.86-.48.2-.03.4-.06.61-.1.64-.27,1.34-.76,1.98-1.05.4-.12.81-.23,1.21-.35,1.9-.8,3.74-1.97,5.48-2.99.59-.35,1.49-1.94,1.75-2.64.31-.82.35-1.44.83-2.04.28-.35.85-.49,1.24-.73.87-.55,2.24-1.79,2.77-2.68.35-.59.84-1.67.64-2.74-.09-.49-.26-2.23-.06-2.74.19-.29.38-.57.57-.86.2-.5.12-1.44-.1-1.85-.77-1.49-1.97-1.17-3.19-2.01-.24-.17-.29-.54-.38-.76-.46-1.1-.78-1.77-2.39-1.75-.14.13-.38.15-.57.22-.47.19-.92.53-1.37.8-.24.14-.43.4-.64.57-.62.51-1.28.92-1.91,1.4-.32.24-.62.64-1.02.8-.27.11-.42.02-.7.13-.3.15-.59.3-.89.45h-.8c-.57,0-.94.13-1.31.35-.75.45-.74,1.53-1.31,2.17-.26.29-.67.39-1.02.61-1.12.68-1.69,1.81-.92,3.15.37.65,1.82,1.03,2.48.35.66-.66.94-2.26,1.66-2.74.26-.17,1.39-.46,1.72-.57.44-.04.87-.08,1.31-.13.99-.37,2.14-.88,2.93-1.5.52-.41,2.4-2.16,3.19-2.04,1.33.21.46,1.72.67,2.99v1.98c.04.15.2.37.13.67-.14.53-.46,1.05-.73,1.47-.21.32-.59.56-.8.89-.28.46-.6,1.03-.8,1.5-.2.48-.13.91-.35,1.31-.29.53-.95.67-1.47.99-.4.25-.7.65-1.15.92-.33.34-.66.68-.99,1.02-.46.45-1.08.67-1.66,1.02-.18.16-.36.32-.54.48-.43.26-.9.25-1.4.48-.54.25-1.13.56-1.69.8l-.51.1c-.99.43-2.05.95-2.99,1.5-.35.2-.65.63-1.02.83-.6.31-1.34.19-2.01.45-.78.3-1.55.49-2.39.83-.76.31-1.46,1-2.2,1.37-.71.35-1.65.54-2.39.8-.46.16-.84.07-1.24.25-1.41.65-2.55,1.58-3.85,2.29-.87.47-1.81.71-2.68,1.15-.56.28-1.08.83-1.69,1.05-.79.29-1.87.15-2.36.73-.47.55-.76,1.96-.25,2.77.45.72,2.03,1.03,3.06.61Z"/>
      <path class="cls-1" d="M88.59,119.41c.34.15,1.02.16,1.43.1.61-.09,1.23.11,1.75-.1.56-.22,1.22-.83,1.43-1.4.54-1.46-1.75-3-2.84-3.03-.44.36-1.09.36-1.59.67-.38.24-.43.62-.61,1.08-.12.31-.33.67-.45.99-.24.69.51,1.53.86,1.69Z"/>
      <path class="cls-1" d="M94.26,133.23c.52-.17.98-.58,1.43-.8,1.01-.49,1.86-1.03,2.77-1.62.91-.59,1.91-1.08,3.03-1.5.8-.3,1.77-.26,2.55-.57,1.03-.42,1.78-1.26,2.74-1.72,1.39-.67,2.85-1.21,4.17-1.98.25-.23.51-.47.76-.7.21-.16.45-.18.7-.32.37-.35.74-.7,1.12-1.05.4-.29.81-.55,1.12-.92.39-.47.49-3.23.13-3.85-.25-.43-1.37-.84-2.13-.83-.3.39-.89.49-1.15.96-.65,1.16-1.07,2.67-2.13,3.41-.71.49-1.97.47-2.84.83-1.24.51-2.11,1.75-3.35,2.2-1.12.41-2.64.34-3.76.8l-.73.45c-.38.16-.8.15-1.15.35-.4.23-.69.71-1.12.92-.26.13-.5.19-.73.35-.95.68-1.76,1.6-2.58,2.42-.28.28-.73.54-.89.92-.25.59.24,1.3.48,1.56.22.24,1.01.88,1.56.7Z"/>
      <path class="cls-1" d="M92.73,125.05c1.45-.89-.09-2.71-1.05-3.06h-.96c-.22.24-.59.35-.7.7-.51,1.56,1.45,3.13,2.71,2.36Z"/>
      <path class="cls-1" d="M138.42,130.33c.02-.38.04-.76.06-1.15-.02-1.19-.23-1.78-1.56-1.75-.48.25-1.12.16-1.56.41-.36.2-.58.63-.86.92-1.04,1.09-1.27,2.53.29,3.31,1.43.72,3.33-.79,3.63-1.75Z"/>
      <path class="cls-1" d="M3.34,134.86c.28.07.47-.08.61-.13,1.06-.32,1.24-.55,1.66-1.5.18-.4.57-.73.7-1.18-.04-.27-.08-.53-.13-.8v-1.21c-.3-.85-1.33-1.55-2.52-1.53-.99.37-1.72.46-2.17,1.34-1.06,2.07.07,4.55,1.85,5Z"/>
      <path class="cls-1" d="M88.72,131.48c.97.4,1.44-.69,1.85-1.02.04-1.2-.6-1.47-1.78-1.43l-.38.25c-.48.67-.4,1.87.32,2.2Z"/>
      <path class="cls-1" d="M29.46,134.41c-.51.2-1.11.07-1.56.25-.95.4-1.55,1.18-2.39,1.62-.94.5-1.99.87-3.06,1.24-.56.19-1.07.13-1.56.35-.89.4-1.57,1.13-2.42,1.5-1.05.45-2.67.41-3.66.92-1.21.63-1.91,1.98-3.09,2.64-.39.22-1.18.08-1.59.25-1.84.77-2.73,1.91-3.57,3.7-.26.55-.49,1.67-.13,2.33.28.51,1.14.78,1.85.48.65-.28,1.01-.9,1.56-1.24.86-.54,1.61-1.13,2.52-1.66.88-.51,1.78-.95,2.68-1.47.3-.23.59-.47.89-.7.29-.15.57-.1.89-.22.74-.29,1.62-.7,2.33-1.02l.83-.13c.3-.13.62-.43.92-.57,1.1-.54,2.26-.96,3.28-1.5.41-.12.83-.23,1.24-.35.99-.51,2.05-1.12,3.06-1.62.35-.18.69-.18,1.02-.35.24-.18.49-.36.73-.54,1.1-.68,1.66-.67,2.23-1.88.11-.24-.04-.78-.1-.89-.51-.96-1.4-1.17-2.9-1.15Z"/>
      <path class="cls-1" d="M132.33,141.07c-.03.3-.06.59-.1.89-.1.33-.25.82-.35,1.21-.35,1.38,1.26,3.71,2.39,3.31.7-.25,2.14-1.96,2.39-2.68v-2.29c.12-.7,0-1.58,0-2.29,0-.88.14-1.94-.1-2.68-.32-1.02-1.64-1.9-3.09-1.88-.14.14-.36.12-.54.22-.43.24-.88.81-1.05,1.31-.11.31.34,2.3.45,2.55.14.33.66.84.48,1.43-.16.3-.32.59-.48.89Z"/>
      <path class="cls-1" d="M89.42,146.74c.43-.53.96-1.01,1.37-1.53.25-.32.19-.74.35-1.18.15-.28.3-.55.45-.83v-1.24c.29-.94,1.19-1.71,1.18-2.87-.55-.81-1.13-1.92-2.45-1.94l-.48.03c-.57.22-1.33.95-1.53,1.53.01.38.02.76.03,1.15.09.63.03,1.59-.16,2.04-.63,1.48-1.66,2.64-2.55,3.89-.22.21-.45.42-.67.64-.37.54-.61,1.23-1.12,1.62-.62.48-1.44.88-2.13,1.24-.24.12-.47.11-.67.25-1.31.94-2.83,2.03-4.43,2.64-.83.32-1.86.11-2.58.48-1.15.58-1.97,1.32-2.93,2.04-.72.54-1.75.65-2.61,1.05-.72.33-1.49.84-2.2,1.15-.33.14-.64.16-.92.35-.46.31-1.05.72-1.59.92-.36.04-.72.08-1.08.13-1.23.35-2.51.58-3.5,1.15-.59.34-1.18.89-1.66,1.37-.26.26-.43.65-.76.83-1.16.62-3.21.87-2.93,2.77.09.62.06.8.35,1.18.57.73,1.96.68,2.8.25,1.37-.69,2.66-1.7,4.05-2.42,1.58-.82,3.32-1.45,4.94-2.2,1.07-.5,2.18-.82,3.25-1.37.37-.19.74-.53,1.12-.7.76-.34,1.53-.41,2.23-.8,1.25-.68,2.53-1.65,3.85-2.2,1.1-.46,2.22-.73,3.28-1.27,1.19-.61,2.39-1.4,3.54-2.04.29-.08.57-.17.86-.25.88-.47,1.68-1.03,2.45-1.59.22-.16.48-.2.67-.38.59-.55.66-1.33,1.05-2.1.29-.58.73-1.28,1.15-1.78Z"/>
      <path class="cls-1" d="M6.17,139.76c-.1-.22-.33-.49-.45-.76-.19-.45-.18-.9-.57-1.21-.37-.29-1.06-.26-1.72-.25-.62.42-1.25.49-1.59,1.18-.24.48-.33,1.56-.19,2.23.04.19.16.71.06.99-.12.35-.3.73-.45,1.05v.41c-.22,1.24.76,2.17,1.75,2.33.79.12,1.29-.42,1.69-.73.77-.61.68-.91.99-1.88.1-.32.38-.67.48-.92.15-.38.16-2.05,0-2.42Z"/>
      <path class="cls-1" d="M93.34,162.19c-.13-.48-.38-1.09-.73-1.37-.74-.58-1.91-.69-2.26-1.66-.25-.68,1.13-2,1.37-2.45.18-.35.32-.73.45-1.12v-.38c.14-.37.5-.72.61-1.12.12-.43-.06-.87.1-1.21.38-.82.96-1.44,1.5-2.13.4-.51.49-2.47-.13-2.93-.39-.29-1.09-.27-1.78-.25-.19.13-.38.25-.57.38-.29.49-.54,1.3-.7,1.82-.21.67.23,1.18,0,1.72-.2.48-1.66,1.77-2.1,2.2-.22.2-.45.4-.67.61-.56,1.04-.1,2.64-.1,3.92,0,1.12-.27,2.54.13,3.47.11.25.35.55.45.8.16.4-.02.83.1,1.15.44,1.26.59,2.17,1.94,2.58,1.72.52,2.89-2.35,2.42-4.01Z"/>
      <path class="cls-1" d="M133.1,153.18c.24.22.58.75,1.18.57.8-.24,1.35-.87,1.72-1.56.22-.3.45-.59.67-.89.51-1.3-.54-2.39-1.18-2.9-.48-.38-.74-.72-1.66-.7-.54.62-1.5,1.05-1.85,1.85-.27.62-.02,2.46.25,2.84.23.32.57.54.86.8Z"/>
    </g>
  </g>
</svg>