<?xml version="1.0" encoding="UTF-8"?>
<svg id="Layer_2" data-name="Layer 2" xmlns="http://www.w3.org/2000/svg" viewBox="0 0 127.6 127.61">
  <defs>
    <style>
      .cls-1 {
        fill-rule: evenodd;
      }
    </style>
  </defs>
  <g id="Layer_1-2" data-name="Layer 1">
    <g>
      <path class="cls-1" d="M127.58,63.32c-.07-.25-.23-.45-.31-.66-.06-.16-.03-.57-.06-.71v-.68c-.23-1.27.04-3.2-.26-4.42-.17-.71.27-1.51.14-1.98-.08-.3-.44-.49-.57-.81v-.29c0-.37.15-1.06.06-1.35-.1-.32-.33-.59-.45-.92v-.23c-.04-.15-.09-.49-.12-.64v-.37c-.09-.32-.24-.64-.32-.95-.05-.21,0-.34-.06-.55-.09-.3-.2-.66-.31-.95-.07-.2,0-.34-.06-.54-.08-.28-.18-.54-.26-.8-.08-.25-.03-.5-.12-.74-.08-.2-.23-.4-.31-.6-.1-.25-.03-.45-.14-.69-.08-.18-.22-.38-.31-.55-.11-.24-.02-.59-.12-.84-.11-.28-.33-.5-.45-.8-.07-.19,0-.33-.06-.51-.12-.33-.34-.64-.45-.98-.07-.22-.04-.41-.12-.61-.13-.23-.26-.45-.38-.68-.16-.49-.34-.96-.57-1.44-.12-.2-.25-.4-.37-.6-.4-.88-.64-1.69-1.07-2.55-.14-.18-.29-.36-.43-.54-.11-.22-.07-.52-.18-.72-.13-.16-.26-.32-.38-.48-.16-.3-.23-.6-.38-.86-.14-.24-.36-.47-.49-.72-.2-.39-.39-.81-.63-1.21-.15-.16-.3-.33-.45-.49-.13-.23-.16-.52-.32-.72-.23-.26-.46-.52-.69-.78-.16-.32-.33-.63-.49-.95l-.43-.43c-.28-.41-.6-.79-.89-1.18-.09-.16-.17-.32-.26-.48-.38-.53-.91-.98-1.32-1.49-.38-.48-.7-.98-1.07-1.47-.27-.36-.66-.64-.94-.98-.18-.22-.33-.46-.51-.68-.23-.21-.46-.43-.69-.64-.14-.19-.23-.39-.37-.57-.18-.14-.37-.28-.55-.41-.46-.45-.91-.88-1.38-1.32-.32-.35-.64-.71-.97-1.06-.29-.19-.57-.38-.86-.57-.34-.29-.68-.6-1.03-.89-.22-.21-.44-.42-.66-.63-.85-.56-1.65-1.23-2.43-1.87-.17-.14-.38-.22-.58-.32-.44-.24-.83-.6-1.27-.88-.4-.25-.79-.6-1.17-.88-.16-.12-.34-.17-.52-.26-.32-.16-.63-.43-.92-.63-.19-.09-.39-.17-.58-.26-.62-.36-1.24-.7-1.89-1.06-.14-.08-.27-.23-.41-.31-.48-.25-.9-.43-1.41-.63-.18-.07-.34-.23-.49-.32-.16-.09-.34-.11-.51-.18-.16-.07-.3-.22-.45-.31-.46-.26-1.02-.38-1.47-.64-.2-.12-.38-.31-.58-.43-.14-.08-.29-.07-.45-.14-.25-.12-.56-.26-.83-.37-.13-.05-.2,0-.32-.06-.23-.1-.45-.29-.68-.38-.24-.1-.48-.08-.72-.18-.59-.26-1.27-.57-1.89-.81-.35-.09-.71-.17-1.06-.26-.18-.07-.36-.24-.54-.31-.25-.1-.57-.04-.83-.12-.19-.06-.38-.24-.55-.32-.22-.1-.46-.03-.71-.12-.29-.11-.58-.3-.88-.38-.23-.07-.49-.04-.72-.12-.7-.26-1.59-.46-2.29-.69-.3-.1-.67.04-1.01-.06-.36-.1-.75-.22-1.14-.31-.5-.11-1,.08-1.43-.08-.27-.1-.55-.23-.86-.31h-.94c-.27-.02-.66-.06-1.01-.06h-.61c-.32-.08-.78-.12-1.12-.18h-.71c-.25-.07-.46-.26-.75-.32h-7.43c-.1.06-.82.35-.94.32-.18-.05-.42-.33-.68-.25-.22.07-.39.24-.6.31-.21.07-.48.08-.66.12-.41,0-.83-.01-1.24-.02-.27.04-.53.07-.8.11-.16-.03-.56-.1-.77-.03-.3.09-.59.31-.92.38-.15,0-.31-.01-.46-.02-.31-.05-.73.03-.97.08h-.21c-.42.15-1.02.22-1.44.37-.27.09-.5-.02-.75.06-.17.06-.42.15-.6.2-.23.06-.39-.02-.6.06-.25.09-.54.22-.81.31-.31.1-.58.03-.88.12-.31.1-.61.28-.94.38-.26.08-.48.02-.71.12-.19.09-.39.26-.6.32-.27.04-.53.08-.8.12-.28.11-.58.26-.86.37-.28.11-.57.08-.84.2-.19.08-.39.23-.58.31-.26.06-.51.12-.77.18-.18.08-.37.24-.55.32-.24.11-.49.07-.72.18-.17.08-.35.25-.54.32-.2.04-.4.08-.6.12-.5.23-.98.62-1.47.88-.94.49-1.91.92-2.76,1.5-.16.07-.32.13-.48.2-.34.21-.69.5-1.06.69-.21.08-.42.16-.63.25-.18.11-.33.34-.52.45-1.36.75-2.55,1.66-3.87,2.44-.3.15-.59.3-.89.45-.28.12-.64.04-.95.14-.56.17-1.1.31-1.57.57-.51.29-.7.91-.97,1.46-.14.19-.29.39-.43.58-.05.18-.09.36-.14.54-.17.38-.82.96-1.14,1.24-.37.33-.79.58-1.18.89-.26.27-.52.54-.78.81-.9.78-1.82,1.62-2.56,2.55-.27.27-.54.53-.81.8-2.38,3.27-4.99,6.36-6.99,10.01-.09.16-.28.29-.37.45-.24.42-.38.9-.63,1.34-.08.13-.24.23-.32.35-.13.2-.14.42-.25.64-.08.12-.16.25-.25.37-.07.21-.13.42-.2.63-.23.51-.58.99-.81,1.49-.06.21-.12.43-.18.64-.13.19-.26.39-.38.58-.07.17-.05.32-.12.49-.05.13-.18.26-.25.37-.18.34-.36.79-.51,1.12-.11.37-.21.74-.32,1.11-.11.26-.26.55-.37.81-.07.17-.07.36-.12.49-.06.14-.2.31-.26.49-.06.26-.12.52-.18.78-.13.21-.26.42-.38.63-.07.21.03.45-.06.69-.09.24-.27.44-.37.66-.09.22.02.52-.08.75-.21.48-.37.99-.55,1.47-.12.32.04.71-.06,1.01-.09.25-.3.46-.38.77v.61c-.03.12-.06.25-.06.43v.37c-.09.3-.36.48-.45.75v1.07c-.06.2-.04.55-.12.75-.07.19-.26.38-.32.57-.06.18.01.45.02.66,0,.34-.05.65-.12.92,0,.24-.01.47-.02.71-.12.41-.21.87-.31,1.3-.05.24.03.49.06.66.05.26-.06.58-.11.8-.07.34.16.83.05,1.23-.19.66-.12,1.62-.12,2.46,0,1.33-.15,3.06.12,4.18.11.44-.04.98-.11,1.3-.04.18.07.49.11.63v.43c0,.24.02.46.06.63v.51c.07.3.15.66.25.94v.6c.04.22.1.49.14.69,0,.31-.01.61-.02.92.11.18.21.37.32.55.09.21.12.69.12.95v.48c.11.4.33.68.45,1.06.11.37-.05.96.06,1.34.08.29.26.57.32.84.07.29-.01.53.05.75.03.13.16.3.2.43.15.43.27.85.43,1.21.12.27-.04.65.08.89.09.19.29.36.37.55.09.24.02.57.12.81.06.16.25.33.32.51.09.2.04.43.12.64.12.2.25.41.37.61.09.19.06.4.14.6.21.55.37,1.07.57,1.64.1.17.2.35.31.52.1.23.1.45.21.64.1.14.19.29.29.43.05.19.09.38.14.57.14.2.29.41.43.61.08.18.04.36.12.54.23.5.55,1,.81,1.46.08.14.07.29.12.41.21.53.61,1.03.88,1.5.09.25.18.5.28.75.19.35.47.65.68,1,.21.4.43.81.64,1.21.08.08.16.16.25.25.2.25.47.61.63.88.33.57.7,1.08,1.06,1.63.17.17.34.34.51.51.64.9,1.26,1.78,1.93,2.64.21.21.43.42.64.63.48.61.88,1.26,1.38,1.84.23.22.46.44.69.66.52.6,1.06,1.14,1.63,1.69,1.29,1.26,2.54,2.57,3.98,3.68.13.15.26.31.38.46.83.65,1.61,1.34,2.47,1.95.36.25.71.58,1.04.88.34.29.73.52,1.11.77.62.41,1.19.85,1.83,1.26.44.27.83.7,1.3.94.43.22.8.39,1.21.63.16.12.33.25.49.37.16.07.33.13.49.2.17.12.35.25.52.37,1.1.56,2.21,1.04,3.33,1.58.14.1.29.2.43.31.19.07.38.13.57.2.15.1.31.2.46.31.12.05.19,0,.32.06.27.11.54.29.81.38.37.13.71.16,1.06.31.19.08.4.24.6.32.21.08.41.04.61.12.17.07.35.22.51.31.22.13.49.1.74.2.26.11.56.26.84.37.3.11.63.07.91.2.21.1.46.23.69.31.28.09.57.03.84.12.23.11.46.21.69.32.37.1.78.06,1.15.18.34.11.72.3,1.07.38.35.08.71.05,1.03.18.14.06.32.19.46.25.22.09.43,0,.69.06.31.07.58.22.84.32.24.09.48-.02.75.06.31.1.59.2.97.26.3,0,.6-.01.91-.02.32.07.62.22.89.32.23.09.59.08.81.12h2.01c.46.12.7.41,1.15.51h8.23c.33-.07.51-.29.77-.38.14-.05.36-.09.49-.12h1.8c.07-.02.12-.06.25-.06.26.01.52.02.78.03.34-.07.59-.22.89-.29h.31c.27-.07.55-.13.91-.12h.64c.19-.07.43-.18.63-.25.4-.02.8-.04,1.2-.06.24-.08.47-.26.74-.32h.61c.34-.09.61-.27.92-.37.24-.08.42.01.66-.06.54-.17,1.08-.32,1.57-.51h.34c.16-.04.42-.05.6-.12.2-.08.43-.24.63-.32.23-.09.46-.04.71-.12.38-.12.76-.32,1.12-.45.3-.1.6-.07.88-.18.18-.08.37-.23.55-.31.26-.1.55-.08.78-.2.12-.06.24-.19.37-.25.18-.08.36-.05.55-.12.25-.09.49-.28.74-.38.37-.15.74-.18,1.11-.31.41-.15.81-.42,1.17-.63.2-.12.44-.1.68-.2.48-.19,1.06-.63,1.52-.88.14-.07.26-.06.41-.12.21-.13.43-.26.64-.38.23-.1.46-.13.68-.25,1.75-.97,3.36-2.13,4.93-3.27.16-.09.33-.17.49-.26.46-.39.99-.72,1.49-1.06.26-.18.49-.44.74-.63.56-.44,1.1-.86,1.63-1.32.26-.19.52-.38.78-.57.23-.23.45-.46.68-.69.38-.33.75-.7,1.14-1.01.26-.17.52-.34.78-.51.09-.12.17-.24.26-.35.24-.22.48-.44.72-.66.32-.33.64-.67.97-1,.72-.72,1.43-1.43,2.15-2.15.1-.14.2-.29.31-.43.17-.15.34-.3.51-.45.71-.98,1.47-1.87,2.26-2.76.32-.36.51-.82.83-1.18.31-.35.57-.71.86-1.09.11-.11.23-.21.34-.32.57-.87,1.15-1.64,1.69-2.53.07-.12.24-.23.31-.35.23-.41.42-.78.64-1.2.09-.16.26-.29.37-.43.23-.32.34-.75.51-1.12.13-.28.36-.51.49-.8.07-.16.05-.38.14-.57.11-.14.21-.29.32-.43.08-.2.16-.4.25-.6.11-.19.27-.39.37-.58.22-.45.3-.87.51-1.34.1-.22.29-.42.38-.63.07-.15.1-.38.18-.57.1-.15.2-.31.31-.46.07-.21.06-.41.12-.6.06-.19.24-.34.32-.51.12-.25.07-.55.18-.83.13-.33.35-.65.51-.97.09-.18,0-.36.06-.57.08-.24.29-.43.38-.64.1-.22-.02-.46.06-.72.09-.28.31-.48.43-.74.08-.18,0-.38.08-.63.08-.25.27-.44.37-.66.12-.28.04-.67.12-.97.05-.18.14-.44.2-.66.05-.19,0-.29.06-.46.08-.22.23-.46.31-.68.02-.28.04-.56.06-.84.08-.26.25-.54.32-.84v-.43c.03-.15.08-.48.12-.63v-.23c.1-.26.28-.51.38-.75.11-.27.14-.89.06-1.21-.03-.11-.13-.38-.06-.57.11-.33.49-.5.57-.81.07-.3-.08-.6-.14-.84v-1.07c.15-.74.12-1.64.12-2.56v-1.09c.08-.44.12-1.04.2-1.5v-.63c.08-.14.16-.29.25-.43.06-.16.13-.91.06-1.15ZM27.18,16.41c-.03-.08-.11-.27-.06-.43.06-.2.17-.45.25-.64.08-.23.03-.44.14-.63.33-.58.9-.89,1.43-1.27.56-.4,1.07-.84,1.69-1.2.3-.18.58-.42.86-.61.18-.12.4-.16.6-.26.18-.13.37-.26.55-.38.15-.08.29-.1.45-.18.42-.22.82-.6,1.24-.81.43-.22.83-.35,1.27-.57.16-.12.33-.25.49-.37.14-.08.31-.07.48-.14.18-.12.36-.25.54-.37.16-.07.33-.13.49-.2.15-.08.29-.22.43-.31.17-.1.35-.11.52-.2.18-.09.38-.23.57-.31.16-.07.3-.05.46-.12.27-.13.56-.34.84-.45.39-.14.72-.25,1.04-.43.16-.09.33-.06.51-.14.22-.09.44-.27.66-.37.19-.08.37-.06.58-.12.24-.07.47-.24.69-.32.22-.09.42-.04.68-.12.44-.14.8-.36,1.21-.51.24-.08.42.01.66-.06.32-.1.62-.29.92-.38.33-.1.64-.03.98-.12.28-.07.56-.22.81-.31h.2c.27-.09.63-.15.94-.2h.51c.25-.1.5-.27.77-.37.35-.13.89.12,1.26,0,.23-.07.51-.21.75-.26h.49c.25-.07.55-.17.78-.25h.69c.31,0,.6-.06.84-.12h1.46c.24-.05.54-.12.75-.18h.46c.64,0,1.33.17,1.81-.08h3.41c.81,0,1.73-.02,2.35.14.31.08.81-.01,1.03-.06.57-.13,1.18.1,1.61.18h1.29c.12.03.39.1.52.12h.78c.23.09.53.18.78.25.13,0,.26.01.38.02.2.07.42.18.61.25.44.14.76-.12,1.17,0,.44.14.81.3,1.24.43.25,0,.49.01.74.02.33.1.63.25.94.37.24.09.62.05.88.12,1.08.29,2.34.62,3.33,1.01.24.09.47.04.71.12.21.08.42.25.63.32.19.06.39.04.58.12.86.37,1.76.74,2.61,1.12.8.36,1.61.46,2.12,1.09.25.31.49.78.58,1.23,0,.5-.01,1-.02,1.5.04.44.18.91.32,1.29.11.28.1.63.18.91.09.31-.06.67-.12.86-.08.26-.13,1.05-.06,1.38.11.51.4.74.57,1.15.09.21.01.42.06.69.1.52.06,1.26.06,1.87v.97c-.12.39-.36.54-.57.81-.2.26-.47.73-.63,1.01-.14.23-.28.49-.37.75-.11.31-.08.51-.2.8-.1.2-.2.41-.31.61-.25.65.23,1.45,0,2.09-.08.23-.32.34-.45.52-.27.39-.42.77-.69,1.15-.39.46-.79.91-1.18,1.37-.3.46-.53.93-.83,1.41-.06.09-.19.19-.25.29-.11.21-.18.41-.35.55-.96.77-2.17,1.27-3.1,2.07-.3.26-.68.55-.89.89-.3.5-.45,1.09-.97,1.37-.72.39-1.56-.19-2.49,0-.34.07-.69.13-1.03.2-.63.24-1.55.84-1.87,1.38-.13.21-.38.61-.32.95.07.38.81,1.17,1.15,1.35.25.14.53.18.78.31.55.29,1.05.77,1.55,1.14l.32.32c.33.22.69.42.97.69.49.49,1.89,1.79.46,2.29-.32.11-.54-.13-.69-.2-.57-.27-.91-.62-1.35-1-.19-.19-.39-.38-.58-.57-.3-.24-.65-.4-.97-.63-.54-.39-1.07-.86-1.67-1.2-.25-.14-.51-.19-.77-.32-.73-.38-1.79-1.09-2.24-1.73-.57-.82.6-1.54.77-2.27.16-.71-.07-1.66-.26-2.29-.14-.46-.11-.9-.31-1.29-.46-.92-1.37-1.01-2.41-1.34-.22-.07-.38.01-.61-.06-.3-.1-.52-.35-.83-.45-.34-.11-.84.05-1.2-.06-.27-.08-.55-.23-.81-.31-.26,0-.51-.01-.77-.02-.14-.04-.41-.09-.55-.12h-.58c-.21-.06-.53-.13-.77-.18-.51.01-1.01.02-1.52.03-.46-.09-.77-.24-1.18-.34-.66-.16-1.39.18-1.83.29-.41.11-1.05-.43-1.6-.23-.62.23-.96.66-1.37,1.11-.14.16-.44.47-.35.83.09.35.26.5.41.75.12.19.14.4.26.6.1.1.2.19.31.29.31.36.58.69.95.98.5.39.98.39,1.63.18.22-.02.44-.04.66-.06.18-.07.52-.31.86-.18.45.16.97.29,1.52.38h1.09c.24.07.54.18.78.25.28.08.45-.12.71-.06.2.05.47.14.68.18h.45c.12.03.39.09.52.12h.35c.24.06.51.19.77.26h.32c.18.05.46.12.64.18h.2c.45.17.96.54,1.23.91.1.14.46.47.29.8-.16.32-1.06.53-1.5.34-.21-.09-.4-.29-.61-.38-.21-.08-.4.01-.63-.06-.21-.07-.42-.22-.61-.31-.16,0-.33-.01-.49-.02-.18-.04-.47-.09-.64-.12h-1.73c-.13-.04-.42-.09-.57-.12h-.41c-.21-.07-.4-.23-.6-.31h-.51c-.56.01-1.18-.04-1.69.03-.59.08-.93-.4-1.6-.23-.83.22-1.46.71-2.03,1.2-.14.13-.29.26-.43.38-.42.24-.89.37-1.43.49-.35.08-.72-.16-.95-.25-.21-.08-.49-.07-.68-.12h-.23c-.42-.16-.91-.35-1.32-.51-.21-.08-.38,0-.61-.06-.41-.11-.83-.25-1.2-.45-.52-.27-.95-.7-1.44-1-.35-.21-.76-.42-1.14-.57-.2-.08-.39-.04-.58-.12-.55-.24-1.18-.56-1.72-.81-.23-.11-.47-.08-.69-.2-.19-.1-.41-.22-.61-.31-.16-.07-.29-.06-.43-.14-.31-.19-.74-.47-.97-.75-.09-.18-.17-.37-.26-.55-.14-.2-.28-.41-.43-.6-.36-.47-1.83-1.4-2.5-1.55-.34-.07-1.33-.02-1.55.08-.3.13-.45.37-.89.37-.36-.49.78-.96.6-1.78-.08-.37-.54-.98-.77-1.24-.46-.52-1.2-.71-1.83-1.07-.19-.11-.39-.3-.61-.37h-.43c-.37.03-.84-.04-1.06-.18-.78-.52-.69-1.57-1.15-2.36-.21-.36-.94-1.18-1.27-1.41-.35-.24-.72-.43-1.04-.69-.14-.16-.29-.33-.43-.49-.13-.13-.31-.25-.4-.41-.42-.8.12-2.29.31-2.99.12-.45,0-1.18-.12-1.58ZM88.58,40.76c.23.23.6.77.34,1.2-.32.51-1.26.14-1.63-.09-1.29-.84-2.28-1.95-3.79-2.56.12-.44,1.12-.71,1.49-.97.19.05.3.23.45.34.18.13.37.21.57.34.14.11.28.23.41.34.79.45,1.54.81,2.16,1.41ZM81.62,37.18v.28c-.08.07-.15.14-.23.21-.27,0-.43-.18-.43-.45.07-.09.14-.17.21-.26.3,0,.29.1.45.21ZM47.14,39.27c-.26.3-.77.64-1.15.8-.16.07-.31.05-.46.12-.12.09-.25.17-.37.26-.89.51-1.61,1.09-2.47,1.63-.39.24-1.06.72-1.67.51-.17-.06-.24-.25-.37-.34-.02-1.36,2.23-2.14,3.19-2.7.31-.18.65-.41.94-.63.12-.11.25-.21.37-.32.31-.17.87-.13,1.11-.37.55,0,.96.07,1.14.43.11.27-.14.49-.25.61ZM13.78,93.9c-.16-.19-.72-.57-.95-.68-.36-.16-.9.04-1.23.12-.3.08-1.02-.14-1.18-.25-.37-.23-.88-1.07-1.11-1.49-.09-.17-.29-.32-.37-.52-.07-.17-.05-.32-.12-.49-.23-.55-.62-1.04-.88-1.55-.09-.18-.04-.41-.14-.6-.11-.21-.31-.44-.38-.68-.05-.15-.07-.37-.18-.52-.11-.15-.24-.34-.31-.54-.07-.24.01-.43-.06-.64-.13-.23-.26-.45-.38-.68-.06-.26-.12-.51-.18-.77-.09-.26-.28-.49-.38-.74-.06-.3-.12-.6-.18-.91-.08-.18-.25-.36-.32-.55-.08-.23-.04-.47-.12-.72-.07-.22-.22-.44-.31-.64-.11-.26-.05-.59-.14-.83-.08-.22-.22-.43-.31-.63-.1-.24.03-.57-.06-.86-.09-.29-.31-.55-.38-.83-.08-.29.01-.51-.06-.81-.08-.31-.16-.68-.25-.98v-.86c-.07-.2-.26-.38-.32-.58-.1-.29,0-.88-.12-1.21-.06-.16-.19-.34-.25-.51-.11-.33-.14-.76-.2-1.09,0-.28.01-.55.02-.83-.02-.17-.12-.4-.06-.61.06-.21.21-.57.12-.89-.05-.18-.21-.29-.31-.41-.12-.16-.2-.39-.26-.6v-.64c0-.87.12-1.43.12-2.27v-4.34c-.1-.53-.12-1.16-.12-1.83v-.52c.13-.42.46-.63.57-.95.11-.34-.1-.68-.14-.91-.05-.24.06-.43.08-.61.03-.39-.06-.87.06-1.21.13-.39.25-.84.37-1.24.1-.34.03-.7.12-1.01.06-.21.24-.42.32-.61v-.8c.09-.3.16-.68.25-1,.08-.3-.02-.53.06-.81.08-.31.29-.51.38-.81,0-.24.01-.47.02-.71.09-.31.26-.56.35-.81.08-.2-.01-.41.08-.64.1-.27.28-.53.37-.8.08-.26.03-.52.14-.74.12-.18.25-.37.37-.55.08-.2-.01-.38.06-.6.14-.44.35-.75.51-1.17.08-.22.03-.44.12-.64.13-.22.26-.44.38-.66.08-.25.02-.54.12-.77.1-.15.2-.31.31-.46.07-.21.13-.42.2-.63.1-.15.2-.31.31-.46.1-.21.1-.43.2-.63.16-.26.33-.51.49-.77.22-.44.28-.97.52-1.4.18-.32.36-.69.57-1.01.08-.12.22-.23.29-.35.38-.71.72-1.44,1.14-2.16.25-.44.63-.83.89-1.24.19-.31.32-.63.49-.95.14-.18.29-.37.43-.55.39-.64.8-1.22,1.21-1.84.11-.12.21-.25.32-.37.16-.27.29-.56.51-.78.14-.14.34-.3.43-.48.29-.54.62-1.03,1.01-1.47.16-.16.33-.32.49-.48,1.09-1.44,2.21-2.85,3.47-4.11.45-.47.9-.94,1.35-1.41.22-.23.4-.51.68-.68.15-.09.29-.07.48-.14.49.02.67.25.78.63v.45c.06.26.16.54.25.77.03.19.05.38.08.57.37,1.01,1.04,1.65,1.5,2.53.1.18.11.37.18.57.14.37.37.68.51,1.07.08.25.08.47.18.71.38.87,1.3,1.32,1.89,2,.26.29.49.66.69,1,.12.19.13.44.26.61.1.14.27.26.37.4.24.35.43.71.71,1.03.12.13.3.22.45.32.28.18.54.47.83.64.45.26.94.44,1.34.75.48.38.68.95,1.01,1.47.33.52.79.9,1.27,1.27.26.21.59.44.89.58.26.12.68.17.95.25h.29c.21.07.39.24.58.32.15.04.3.08.45.12.48.22.56.89.28,1.38-.44.76-1.26.81-2.2,1.09h-.8c-.89.16-2.18.18-3.06,0h-2.4c-.98,0-2.39.45-3.22.06-.51-.24-.9-.71-1.23-1.14-.16-.21-.21-.48-.38-.68-.57-.66-1.15-1.36-2.03-1.7-.19-.08-.35,0-.57-.06-.75-.22-2.19-.82-2.92-.12-.58.55-.44,1.07-.18,1.86.06.18.04.33.12.49.1.19.29.35.38.55.17.36.33.8.63,1.03.45.35.87.53,1.47.75.2.13.41.26.61.38.2.08.41.04.61.12.21.13.42.26.63.38.16.07.31.05.46.12.21.1.36.33.55.45.34.2.73.33,1.04.57.16.12.33.28.51.37.19.07.38.13.57.2.19.12.39.28.61.37.23.09.69-.06.97-.06h1.03c.16.05.55.12.8.06.23-.06.47-.02.72,0h.49c.26.08.45.27.68.37.2.07.4.13.6.2.15.07.29.24.45.31.23.1.49.04.74.14.3.12.62.26.92.37h1.09c.6.15,1.59.06,2.26.18.28-.02.55-.03.83-.05.39.09.65.3.98.43.25.1.57.04.81.12.21.13.43.26.64.38h2.59c.52.16,1.45.13,2.04,0h.29c.82-.25,1.19-.97,1.78-1.44.39-.32.99-.52,1.5-.71.2-.07.39-.23.6-.31.21-.08.38,0,.57-.06.2-.13.41-.26.61-.38.18-.08.36-.05.54-.12.27-.11.55-.3.84-.38.47-.14.97-.19,1.43-.31h.64c.27-.06.63-.14.92-.17.18.02.36.03.54.05.38-.09.77-.17,1.15-.26.36-.07.76.08,1.04.14.48.1,1.48-.01,1.86-.08h.31c.13-.03.34-.1.54-.06.28.06.57.17.86.25.24,0,.48.01.72.02.23.09.53.18.8.25.29.07.5,0,.75.06.61.16,1.15.39,1.7.57.24.08.43.04.64.12.24.09.47.28.71.38.45.19.81.3,1.26.51.16.1.32.2.48.31.21.1.44.09.63.2.78.45,1.52.95,2.3,1.38.2.16.41.33.61.49.8.46,1.49,1.14,2.04,1.84.19.25.31.54.51.78.43.55.98,1.05,1.38,1.63.11.19.21.39.32.58.25.27.5.53.75.8.19.27.35.59.57.84.09.11.24.23.31.35.09.17.17.35.26.52.27.38.6.77.81,1.2.19.37.28.69.45,1.03.04.08.33.77.31.8.06.26.28.49.38.75.1.26-.04.53.06.75.09.2.29.35.38.54.11.22.09.8.05,1.09-.12.73.37,1.11-.25,1.54-.33-.07-.36-.31-.52-.54-.3-.42-.55-.94-.75-1.46-.13-.32-.13-.61-.26-.94-.08-.21-.22-.45-.31-.66-.08-.19-.06-.35-.12-.54-.13-.22-.26-.44-.38-.66-.02-.1-.04-.2-.06-.31-.08-.19-.23-.39-.31-.57-.07-.21-.13-.43-.2-.64-.07-.15-.22-.28-.31-.41-.13-.2-.14-.46-.26-.68-.22-.39-.59-.72-.8-1.11-.1-.19-.15-.38-.26-.58-.23-.42-.62-.7-.94-1.03-.44-.47-.8-1.01-1.23-1.49-.2-.16-.41-.33-.61-.49-.2-.19-.34-.51-.58-.66-.14-.08-.28-.14-.4-.25-.26-.24-.49-.57-.8-.75-.85-.49-1.71-1.07-2.61-1.5-.2-.1-.4-.1-.6-.2-.15-.1-.31-.2-.46-.31-.45-.23-.86-.39-1.3-.63-.26-.14-.52-.34-.81-.45-.6-.22-1.17-.35-1.81-.51-.28-.07-.65.03-.94-.06-.27-.09-.49-.28-.74-.37h-1.01c-.3-.09-.71-.06-1.12-.06h-1.97c-.86,0-1.83-.03-2.52.12-.32-.03-.63-.06-.95-.09-.35.07-.55.23-.83.34-.45.17-1.15.02-1.58.2-.76.32-1.6.67-2.3,1.07-.2.12-.41.25-.61.37-.86.37-2.08.4-2.56,1.14-.31.47.04,2.14.18,2.58.08.24,0,.57.06.77.02.08.11.28.14.37v.63c.09.41.26,1.06.12,1.57-.12.46-.34.78-.45,1.2-.06.22.02.57-.06.78-.08.2-.22.37-.31.54-.16.31-.15.75-.34,1.04-.53.81-1.07,1.73-1.49,2.63-.14.29-.24.58-.32.92-.05.21,0,.33-.06.51-.07.19-.22.39-.31.55-.12.22-.11.52-.2.72-.09.21-.27.41-.37.61-.08.17-.06.35-.12.52-.11.3-.37.52-.51.8-.24.5-.29.95-.51,1.49-.12.24-.25.48-.37.72-.06.14-.01.33-.08.48-.12.27-.32.49-.43.77-.08.21-.05.41-.14.6-.1.14-.19.29-.29.43-.09.21-.17.42-.26.63-.08.16-.25.31-.32.49-.09.22-.09.45-.18.66-.11.16-.21.33-.32.49-.07.18.02.36-.06.55-.11.27-.27.53-.37.8-.1.27-.04.55-.12.84-.04.16-.15.39-.2.55-.19.61.04,1.39.18,1.77.03.26.05.52.08.78.13.4.28.87.49,1.23.17.28.97.78,1.26,1.03.24.21,1.09,1.14.69,1.64-.46.59-1.24-.32-1.46-.63-.35-.49-.52-1.28-1.01-1.61-.21-.14-.49-.15-.74-.26-.17-.07-.54-.32-.88-.18-.14.06-.31.19-.45.25-.26.11-.52.14-.77.26-1.46.74-1.97,2.37-3.29,3.25-.15.1-.33.11-.51.2-.7.55-1.4,1.1-2.1,1.64-.2.19-.4.46-.61.63-.15.1-.3.2-.45.31-.18.19-.36.38-.54.57-.43.26-.99.24-1.49.45-.56.23-1.07.56-1.55.88-.77.51-1.26,1.64-1.84,2.36-.53.65-1.47.83-2.13,1.35-.99.78-1.61,1.96-2.53,2.81-.6.55-1.59.64-2.38.97-1.18.48-2.7,1.22-3.29,2.26h-.34c-.18-.08-.31-.37-.43-.52ZM82.62,70.87c-.16.36-.47.52-.8.72-.14.12-.29.25-.43.37-.33.19-.72.33-.91.66-.15.27-.33.64-.38.94-.05.25-.02.6-.12.84-.19.45-.48.97-.75,1.35-.07.16-.14.32-.21.48-.36.62-.71,1.1-1.4,1.4-.25.11-.44.32-.8.32-.1-.09-.26-.16-.32-.29-.17-.38.54-1.34.71-1.58.5-.7.85-1.5,1.32-2.23.33-.43.67-.86,1-1.29.15-.23.57-.93.38-1.38-.08-.19-.28-.4-.38-.61-.1-.22-.09-.45-.18-.66-.41-.89-1.32-2.03-2.16-2.47-.2-.1-.44-.19-.68-.25-.85-.22-1.5.45-2-.34-.35-.56.22-1.51.37-1.84.25-.55.28-1.35.12-1.98v-.64c-.09-.4-.38-.6-.51-.89-.12-.27,0-.69-.12-.97-.06-.13-.18-.28-.25-.4-.13-.24-.09-.46-.26-.68-.24-.3-.5-.62-.69-.97-.1-.19-.09-.4-.18-.6-.09-.2-.27-.36-.37-.54-.1-.2-.15-.4-.26-.58-.1-.12-.2-.24-.31-.35-.6-1.06-1.57-2.17-2.47-2.93-.37-.32-.79-.57-1.17-.89-.82-.7-1.66-1.37-2.69-1.87-.21-.1-.42-.1-.64-.2-.64-.27-1.47-.53-2.1-.81-.54-.02-1.07-.04-1.61-.06-.46-.12-1.1-.25-1.6-.38h-.89c-.16-.03-.44-.11-.68-.06-.96.21-1.94.47-2.76.81-.31.13-.7.07-1.03.2-.18.08-.39.23-.57.31-.24.1-.46.08-.69.18-.17.08-.36.24-.54.32-.17.07-.31.06-.49.12-.61.21-.91.34-1.15-.37-.03-.08-.11-.24-.06-.4.44-1.41,3.37-1.87,4.82-2.4.36-.13.76.03,1.18-.08.24-.06.48-.18.68-.25.14-.05.31-.04.41-.12h1.75c.37.12.73.26,1.12.37.39,0,.79.01,1.18.02.44.15.85.29,1.26.43.19.07.32,0,.51.06.69.22,1.46.36,2.15.63.27.1.5.33.75.45.17.08.35.05.52.12.32.14.59.45.88.63.66.42,1.33.84,1.92,1.34.28.29.56.58.84.88.19.14.38.29.57.43.25.2.42.5.61.75.29.38.7.75.94,1.17.16.29.34.53.51.8.12.19.13.41.25.6.26.41.63.84.83,1.3.08.18,0,.35.06.57.1.36.31.58.45.88.06.13.04.25.12.35.28.36.79.48,1.21.69.36.18.89.61,1.17.89.37.38.68.98.89,1.5.02.1.04.2.06.31.12.29.37.47.51.72.11.2.13.41.25.6.15.16.3.33.45.49.37.47.81.88,1.18,1.35.48.6.78,1.4,1.2,2.01.26.38.8,2.35.51,3.01ZM83.36,78.16c.07-.16.13-.33.2-.49.13-.19.32-.38.43-.58.25-.47.31-1,.63-1.41.15-.19.39-.24.58-.4.53,0,1.08.67.81,1.24-.08.18-.22.43-.31.63-.04.17-.08.34-.12.51-.11.25-.34.45-.49.66-.24.34-.3.78-.52,1.12-.14.21-.36.36-.54.54-.19.19-.6.84-1.09.68-.46-.15-.63-.89-.32-1.34.25-.36.5-.78.74-1.15ZM69.94,77.12c-.19.17-.38.34-.57.51-.41.27-.79.58-1.17.88-.12.1-.27.12-.41.2-.14.08-.28.23-.41.31-.2.11-.39.15-.6.26-.48.25-1.05.51-1.54.75-.21.11-.43.08-.66.18-.19.09-.41.25-.61.32-.5.17-1.07.24-1.57.37h-.32c-.33.08-1,.31-1.49.18-.15-.04-.43-.1-.66-.06-1.19.22-2.9.2-3.42-.64-.09-.15-.07-.32-.02-.45.22-.56,1.2-.38,1.95-.38,1.29,0,2.47-.1,3.44-.43.27-.09.81.02,1.11-.06.46-.13.89-.35,1.29-.51.27-.11.54-.08.8-.18.43-.17.85-.55,1.27-.75.21-.09.43-.17.64-.26.61-.35,1.42-.92,1.95-1.38.14-.15.28-.3.41-.45.37-.34.74-.68,1.11-1.01.15-.2.3-.4.45-.6.31-.36.7-.74.94-1.17.32-.57.69-1.08,1-1.64.3-.57.41-1.12.64-1.67.08-.19.27-.32.38-.48.11-.15.2-.37.35-.48.1-.08.24-.09.35-.17.49.06.51.5.51,1.06v.48c-.15.26-.3.52-.45.78-.06.2-.04.38-.12.57-.16.35-.36.77-.57,1.12-.06.09-.19.19-.25.29-.11.26-.21.52-.32.78-.22.37-.53.66-.81.97-.17.25-.35.5-.52.75-.14.13-.29.27-.43.4-.45.62-1.04,1.18-1.67,1.61ZM70.42,84.13c-.21.4-.88.85-1.27,1.09-.41.25-.83.33-1.3.52-.71.29-1.57.59-2.32.88-.33.13-.85-.02-1.18.12-.25.11-.48.3-.77.38h-1.47c-.21.08-.44.23-.66.31h-.54c-.24.04-.55.1-.75.18-.22,0-.44.01-.66.02-.55,0-1.06.02-1.4-.2-.17-.11-.31-.31-.48-.43-.15-.11-.35-.24-.43-.41-.18-.39.38-.84.61-.94.15-.06,1.46-.13,1.7-.06.57.16,1.31.13,1.89,0h.75c.31,0,.63-.04.88-.12h.4c.47-.1.94-.3,1.41-.45.28-.09.62-.02.89-.12.18-.07.34-.24.51-.32.2-.09.37-.05.61-.12.27-.08.53-.23.75-.37.15-.05.31-.09.46-.14.37-.17.83-.37,1.2-.55.11-.06.24-.05.32-.14.59-.01,1.16.27.84.88ZM55.86,63.87c-.09-.33-.1-.83,0-1.15.32-1.03,1.15-1.63,2.13-2.04.19-.08.53-.06.69-.18h1.18c.82.25,1.78.77,2.26,1.35.1.15.2.31.31.46.18.21.4.44.51.71.95,2.29-.88,4.56-2.49,5.11h-.34c-.49.12-1.05.16-1.57.02-.26-.07-.54.01-.77-.08-.74-.3-1.66-1.18-1.84-1.98-.06-.24-.23-.6-.14-.97.05-.18.15-.38.2-.55.08-.3-.09-.52-.14-.69ZM56.19,72.63c.23.08.47.03.69.12.2.08.41.23.6.31.46.18.83-.15,1.32-.06.16.03.37.11.6.06.2-.04.6-.13.88-.06.11.03.44.14.63.06.21-.1.42-.2.63-.31.5-.19.98-.21,1.43-.45.9-.47,1.75-1.09,2.47-1.75.19-.17.38-.35.57-.52.52-.78,1.03-1.69,1.38-2.61.1-.26.12-.96.12-1.29v-.52c.1-.42.32-.79.43-1.26.07-.32-.37-1.01-.43-1.3-.1-.47.08-1.1-.06-1.52-.57-1.65-1.72-3.56-3.16-4.34-.58-.31-1.26-.7-1.87-.95-.22-.09-.44-.04-.68-.12-.4-.14-.85-.31-1.27-.45-.29-.09-.67-.06-.94,0h-.68c-.2.04-.55.12-.83.06-.42-.08-.74.14-1.03.26-.26.11-.51.08-.78.18-.15.06-.32.18-.46.25-1.63.79-2.8,1.84-3.75,3.32-.18.27-.38.53-.51.86-.09.22,0,.77.06.95.1.28.32.54.45.8.23.49.41.98.57,1.47v.84c-.21.64-.59,1.13-.88,1.67-.07.17-.13.34-.2.51-.08.13-.22.22-.31.34-.09.18-.17.37-.26.55-.26.28-.51.55-.77.83-.19.14-.41.1-.66.18-.34.11-.67.24-1.01.38-.58.24-1.54.88-1.83,1.4-.1.17-.11.39-.2.55-.1.17-.23.32-.28.55-.06.32.59,1.3.72,1.54.68,1.18,1.92,1.85,2.52,3.1-.01.18-.1.27-.21.35-.6.41-1.36-.2-1.73-.45-.23-.15-.4-.39-.6-.57-.44-.38-.94-.84-1.24-1.35-.37-.61-.61-1.27-.95-1.9-.1-.19-.65-1.28-.57-1.52.04-.14.2-.25.26-.37.12-.22.18-.43.31-.63.09-.08.17-.16.26-.25.26-.31.52-.67.74-1,.33-.49.6-.99.89-1.52.1-.12.2-.25.31-.37.17-.27.26-.57.46-.8.33-.38.84-.68,1.06-1.17.07-.15.05-.32.14-.46.12-.18.25-.37.37-.55.08-.21.04-.42.12-.63.08-.2.24-.43.31-.64.19-.57.11-1.4.32-1.93.25-.62.51-1.28.88-1.83.22-.33.49-.56.69-.94.24-.23.47-.46.71-.69.24-.3.47-.59.75-.84.14-.12.31-.17.48-.26.19-.15.38-.3.57-.45.75-.39,1.6-.62,2.41-.94.15-.06.32-.08.45-.12h.43c.27-.07.47-.23.69-.32.41-.17,1.06-.02,1.43-.25.46,0,.8.08,1.18.17.18,0,.37.01.55.02.22.09.45.23.71.31.23.07.45,0,.66.08.51.18,1.02.33,1.49.57,1.27.65,2.89,1.8,3.68,2.9.27.37.43.8.64,1.21.16.2.33.41.49.61.15.23.4.86.51,1.17.06.19.01.34.08.48.09.2.24.42.31.64v.43c.06.3.15.96.06,1.34-.04.17-.14.57-.11.78.3,1.69-.16,3-.77,4.16-.39.75-.75,1.44-1.21,2.12-.34.49-.85.85-1.3,1.23-.14.14-.28.29-.41.43-.66.46-1.33.84-2.1,1.2-.16.1-.32.2-.48.31-.23.11-.51.04-.77.14-.36.14-.73.3-1.11.43-.33.11-.78-.04-1.09.08-.26.1-.73.39-1.18.25-.36-.12-.81-.24-1.21-.32-.24-.05-.54.02-.75-.06-.25-.1-.55-.21-.8-.31-.24-.09-.5-.03-.72-.14-1.06-.55-2.25-1-3.06-1.81-.42-.42-1.49-1.28-.88-2.04.21-.26.72-.22,1.01-.06.68.36,1.12.96,1.8,1.32.2.19.41.38.61.57.18.06.36.12.54.18.22.1.44.3.69.38ZM31.8,85.81c-.07.08-.14.16-.21.25h-.32c-.26-.18-.33-.35-.31-.74.09-.08.17-.15.26-.23.36,0,.6.34.58.72ZM58.23,119.03c-.07.31-.13.61-.2.92-.1.21-.28.41-.37.63-.07.18,0,.31-.06.51-.05.18-.15.39-.18.52-.04.14-.2.31-.26.45-.07.14-.05.27-.12.4-.51.92-1.51,1.29-2.56,1.66h-1.7c-.35-.12-.72-.29-1.12-.38-.28-.07-.49.02-.77-.06-1.7-.48-3.62-.83-5.2-1.44-.28-.11-.63-.01-.91-.12-.2-.13-.4-.26-.6-.38-.25-.04-.49-.08-.74-.12-.63-.29-1.4-.61-2.07-.88-.26-.1-.51-.09-.75-.2-.13-.06-.28-.18-.4-.25-.23-.13-.5-.13-.72-.25-.16-.11-.32-.21-.48-.32-.21-.06-.43-.12-.64-.18-.13-.06-.25-.2-.37-.26-.17-.06-.35-.12-.52-.18-.15-.1-.31-.2-.46-.31-.19-.07-.38-.13-.57-.2-.15-.08-.29-.23-.45-.31-.17-.07-.34-.13-.51-.2-.14-.09-.3-.23-.45-.31-.18-.09-.37-.1-.54-.2-.23-.14-.43-.36-.68-.49-.23-.12-.46-.17-.66-.32-.34-.25-.7-.44-1.06-.69-.1-.08-.19-.16-.29-.25-.18-.1-.36-.14-.52-.26-.43-.32-.85-.66-1.32-.95-.47-.29-.85-.85-1.3-1.12-.25-.12-.5-.25-.75-.37-.51-.3-1.02-.86-1.5-1.2-1.96-1.36-3.62-2.98-5.34-4.58-.56-.52-1.07-1.06-1.57-1.64-.45-.53-1-.96-1.44-1.5-.23-.21-.45-.43-.68-.64-.59-.73-1.19-1.45-1.78-2.18-.37-.53-1.56-1.69-1.2-2.59.27-.68,1.03-1.53,1.75-1.73.51-.14,1.28-.07,1.89-.06.15,0,.3.01.45.02.32-.05.48-.22.74-.32h.31c.1-.03.29-.07.4-.12.44-.22,1.1-.85,1.34-1.27.2-.36.33-.69.57-1,.6-.76,1.83-.94,2.63-1.5.48-.34.99-.82,1.35-1.29.29-.37.76-1.02,1.17-1.23.48-.24,1.1.07,1.57.18.66.17,1.36-.17,1.73-.31.25-.09.49-.03.71-.14.34-.17,1.22-.91,1.43-1.21.24-.35.6-.91.97-1.11.22-.12.45-.14.71-.25.88-.37,1.66-.83,2.29-1.44.2-.2.44-.36.55-.64.11-.29.11-.74.06-1.03-.05-.27.03-.47-.06-.69-.2-.52-.73-.82-.94-1.32-.17-.41-.13-1.12.21-1.29.59-.29,1.11.32,1.3.66.17.21.34.42.51.63.38.66.72,1.09,1.37,1.49.19.12.48.42.89.29.28-.09,1.27-.72,1.44-.94.14-.17.29-.34.43-.51.24-.19.53-.4.71-.64.34-.47.64-.95,1.15-1.24.61-.35,1.39-.12,2.03-.37h.92c.23-.07.44-.26.69-.32.26-.07.49.03.71-.06.17-.12.34-.25.51-.37.4-.25.74-.47,1.03-.83.19-.23.3-.48.51-.68.19-.15.39-.3.58-.45.12-.06.25-.06.35-.14.94,0,1.94.69,2.23,1.32.15.32.07,1.06,0,1.43v.55c-.14.55-.18,1.49-.06,2.12.06.34.08.71.2,1.01.29.74.71,1.34.94,2.1v.55c0,.66-.06,1.17-.06,1.8,0,.4.17.9.06,1.37-.14.58.23.63.43,1.01.09.17.05.39.14.57.24.51.63.98.81,1.57.17.54-.06,1.03-.18,1.43-.1.32-.06.75-.06,1.15v.57c.06.21.18.47.25.69v.28c.05.18.11.42.18.6.2.45.67,1,.83,1.46.16.45-.19.82-.32,1.06-.2.37-.3.77-.43,1.21-.07.23,0,.39-.06.63-.05.24-.15.58-.2.84v2.16c.06.21.16.45.2.66.06.3-.04.63-.08.84v1.2c.03.1.05.2.08.31v.95c.12.6.23,1.16.43,1.7.23.62.81,1.03.95,1.72.03.16-.04.31-.06.4-.05.19-.03.33-.06.46-.03.13-.15.3-.2.41-.11.26-.17,1-.06,1.29.1.26.26.53.32.8.08.32-.01.64.12.91.29.57.6,1.11.72,1.83.03.2-.1.41-.15.54ZM58.32,93.19c-.06-.14-.02-.29,0-.37.2-.7.92-.75,1.81-.75h.63c.7.19,1.61.03,2.2-.18.28,0,.56-.01.84-.02.17-.06.36-.19.54-.25.27-.09.64.02.91-.06.42-.13.89-.32,1.29-.45.27-.09,1.1-.12,1.27-.25.68,0,.65.14.98.43,0,.79-.98,1.21-1.61,1.41-.42.14-.91.29-1.34.45-.42.15-.94.05-1.41.12-.49.08-.86.22-1.26.32h-.54c-.39,0-.82,0-1.12.06-.35.06-.7-.1-1-.05-.79.16-1.95.14-2.2-.43ZM60.01,98.49c.17-.06.47-.21.77-.12.58.17,1.48.26,2.16.06.23-.07.49-.2.74-.26h.84c.18-.04.49-.09.68-.12.12.02.25.03.37.05.23.04.97-.14,1.11-.23.55-.01.75.12.92.49-.05.73-1.29,1.17-1.93,1.35h-1.38c-.2.06-.43.2-.64.26h-.32c-.23.06-.56.13-.78.18-.45.11-.88-.13-1.26-.06-.25.04-1.27.15-1.58.06-.45-.13-.66-.43-.98-.66,0-.82.69-.8,1.3-1ZM58.95,105.87c-.25-.8,1.33-.91,2.04-.91.77,0,1.43-.15,2-.32.36-.11.72.02,1.12-.06.23-.05.52-.13.72-.18.52-.14,1.05.23,1.46-.06.49,0,.9.11,1.04.45.06.16-.02.33-.06.41-.2.37-.54.54-.97.68-.17.05-.27,0-.43.06-.39.15-.97.18-1.41.31h-.51c-.34.07-.64.24-.95.32-.32.08-.66-.06-.84-.12-.35-.12-.78.06-1.01.12h-.52c-.77,0-1.5-.14-1.67-.69ZM59.65,112.18c-.14-.35.28-.63.46-.74.34-.19.86-.23,1.3-.32h.84c.12-.03.38-.09.49-.12.14-.04.23,0,.32-.06h1.75c.31,0,.68-.03.91.06.18.08.46.37.35.72-.09.29-.4.49-.71.57h-.6c-.31.09-.6.28-.94.37h-.72c-.2.04-.55.12-.83.06-.11-.02-.28-.1-.46-.06-.22.05-.48.15-.68.2-.54.13-1.35-.38-1.5-.68ZM65.07,118.39c-.14.41-.84.75-1.3.88-.34.09-.68.26-1.01.38-.68.25-1.97-.64-2.1-1-.13-.36.14-.59.31-.72.23-.18.48-.35.8-.45h.57c.12-.03.39-.09.51-.12.23-.06.46.02.63-.06.31,0,.52.12.74.18.45.14,1.11.21.88.91ZM125.13,66.48c0,.52.01,1.03.02,1.55-.1.38-.16.87-.25,1.26v.48c-.09.28-.23.44-.32.71-.16.45.2.83.06,1.27-.14.44-.28.94-.43,1.34v1.5c-.08.29-.34.49-.45.75-.15.36.06.95-.06,1.41-.1.36-.14.81-.25,1.14-.09.29-.27.63-.38.94v.69c-.07.3-.29.5-.38.72-.13.31.02.84-.12,1.14-.06.12-.19.24-.25.35-.14.27-.09.57-.2.83-.11.25-.26.49-.37.74-.13.29-.09.61-.18.91-.11.31-.31.68-.45,1-.07.18-.05.36-.14.52-.08.16-.23.39-.31.6-.05.14,0,.22-.06.35-.07.17-.24.33-.32.49,0,0-.16.76-.18.83-.15.25-.3.49-.45.74.07.12-.13.29-.12.41,0,.13-.48.95-.6,1.15-.16.28-.24.6-.4.91-.1.19-.29.35-.38.54-.15.29-.33.58-.45.83-.06.14-.04.21-.12.34-.16.27-.41.52-.57.8-.35.61-.69,1.18-1.06,1.77-.2.31-.51.61-.69.92-.54.92-1.05,1.8-1.7,2.61-.15.15-.31.31-.46.46-.77.55-1.33-.76-1.64-1.14-.52-.63-1.36-.95-1.81-1.66-.29-.46-.7-1.24-1.17-1.49-.27-.15-.62-.42-.88-.51-.28-.09-1.88,0-2.07.08-.4.14-1.34.75-1.84.49-.37-.19-.26-.63-.4-1.06-.2-.62-.5-1.2-.89-1.64-.42-.49-.95-.91-1.52-1.24-.5-.29-.95-.36-1.35-.77-.21-.21-.42-.54-.52-.81-.09-.24-.06-.49-.18-.69-.47-.73-.9-1.46-1.32-2.24-.3-.56-1.1-.91-1.67-1.23-.35-.2-.79-.88-1.03-1.21-.2-.28-.32-.61-.51-.91-.69-1.11-2.54-3.01-3.95-1.38-.18.21-.19.5-.31.8-.05.13-.18.23-.26.34-.08.15-.16.31-.25.46-.53.85-1.3,1.4-1.57,2.55-.05.21.03.44.06.58v.32c.16.46.41.8.63,1.24.31.63,1.09,1.24,1.75,1.52.32.14.7.15.98.32.35.21.67.56.98.81.52.42,1.08.75,1.7,1.07.24.12.45.33.71.43.25.1,1.26.16,1.63.08.46-.1.89-.5,1.38-.18.57.37.13,1.63.35,2.3.07.2.27.36.38.54.19.3.29.65.51.92.36.45.79.82,1.46.95.6.12,1.25-.12,1.72.12.36.19.69,1.05.92,1.43.32.52.97.92,1.5,1.21.4.22.91.35,1.43.43.24.04.43-.12.71-.06.12.03.32.11.45.14.22.05.45-.17.72-.06.42.17.79.48,1.18.68.12.06.21.02.34.08.35.15,1.11.65,1.21,1.03.19.7-.9,1.59-1.2,1.97-1.37,1.73-3.12,3.13-4.65,4.7-1.51,1.55-3.26,2.81-4.93,4.21-.39.24-.78.47-1.17.71-.16.14-.32.29-.48.43-.64.45-1.27.85-1.87,1.32-.27.13-.53.26-.8.38-.34.21-.69.49-1.04.69-.19.11-.42.13-.6.26-.32.23-.68.5-1.04.69-.25.13-.52.17-.77.31-.14.11-.29.21-.43.32-.14.07-.26.05-.4.12-.21.1-.41.27-.61.37-.24.09-.47.17-.71.26-.35.22-.76.52-1.15.69-.22.1-.48.09-.69.18-.15.1-.3.2-.45.31-.2.13-.48.1-.71.2-.23.1-.46.3-.71.38-.29.06-.57.12-.86.18-.23.09-.46.27-.69.37-.2.09-.38.06-.58.14-.2.08-.41.22-.6.31-.2.04-.41.08-.61.12-.23.08-.42.3-.68.38-.24.08-.43-.01-.64.06-.27.1-.57.25-.84.37-.32.05-.64.09-.97.14-.16.05-.39.14-.55.18-.18.06-.29,0-.46.06-.21.08-.5.21-.74.26-.37.08-.83.04-1.15.18-.15.07-.34.19-.49.25-.32.13-.81-.01-1.14.12-.24.1-.47.3-.75.38-.39.11-.73-.04-1.12.03-.34.07-.58.19-.88.28h-3.58c-.19,0-.43-.17-.64-.11-.23.06-.45.19-.66.25-.31.08-.59.11-.84.18h-.54c-.5.12-.87.25-1.54.25-1.25,0-2.45,0-3.5-.18-.6-.11-.98.12-1.14-.41.37-.67,1.01-.35,1.8-.55.27-.07.68-.12.97-.18h.98c.25-.05.77-.15,1.11-.06.46.12,1.74.14,2.16,0,.59-.2.76-.61,1.09-1.06.07-.1.2-.19.25-.32.3-.88-.23-1.42-.45-1.97-.11-.28-.01-.66-.12-.94-.06-.16-.23-.3-.31-.45-.1-.19-.15-.79-.08-1.09.07-.3.29-.54.43-.81.44-.86.98-1.75,1.27-2.67.23-.71-.03-1.57-.25-2.04-.1-.22-.38-.57-.26-.97.21-.7.53-1.42.89-2.03.09-.15.24-.31.31-.48.08-.19.05-.4.12-.58.13-.2.26-.41.38-.61v-.28c0-.51-.11-.77-.31-1.06-.16-.23-.08-.56-.2-.84-.1-.26-.32-.51-.38-.8-.12-.52.25-.8.38-1.09.1-.22-.03-.46.06-.71.1-.28.3-.5.43-.75.09-.17.1-.51.14-.71.07-.4.04-1.85-.06-2.13-.15-.23-.3-.45-.45-.68-.08-.2-.01-.38-.06-.63-.02-.08-.08-.2-.05-.32.1-.38.29-.58.43-.88.1-.21.08-.46.18-.66.08-.16.25-.32.32-.48.11-.24.08-.49.18-.74.13-.32.36-.64.45-.97.06-.22,0-.69.06-.88.12-.3.38-.49.49-.77.14-.37-.11-.77-.18-1.01-.09-.31.08-.74.12-.98v-.43c.09-.3.31-.51.45-.75.31-.54.54-1.17.75-1.8.13-.39.09-.92.18-1.32v-.43c.13-.54.45-.82.45-1.57v-.35c-.15-.38-.41-.7-.51-1.14v-.74c-.02-.2-.04-.41-.06-.61.09-.44.29-.78.51-1.12.25-.38,1.31-1.41,1.97-1.18.34.12.44.58.58.91.21.47.59.99,1.01,1.24.39.23.9.39,1.34.55.2.08.47,0,.68.08.3.11.61.25.92.37h.28c.12.03.31.07.43.12.17.07.25.23.38.32.2.15.46.25.61.45.16.2.31.44.51.61.32.28.7.5,1.09.71,1.49.77,3.63.67,4.36-.72.1-.2.14-.4.26-.58.23-.36.53-.73.74-1.11.07-.14.13-.28.2-.41.1-.13.24-.29.31-.45.07-.24.13-.47.2-.71.15-.3.39-.46.49-.84.08-.29.01-1.78-.06-1.98-.14-.2-.29-.4-.43-.6-.1-.2-.05-.41-.14-.64-.11-.28-.26-.56-.37-.81-.07-.17-.06-.32-.14-.48-.26-.57-.7-1.1-.94-1.69-.11-.26-.02-.64-.12-.91-.13-.2-.26-.41-.38-.61-.1-.29,0-.71-.12-1-.1-.25-.26-.5-.37-.77,0-.21-.01-.43-.02-.64-.11-.38-.22-.79-.37-1.17-.1-.24,0-.5-.06-.8-.11-.52-.18-1.06-.25-1.6-.04-.35-.23-.68-.32-.97-.08-.24-.03-.5-.12-.74-.07-.18-.21-.37-.26-.54-.13-.46.45-1.23.72-1.34.7-.27,1.48.53,1.75.92.16.24.41.46.52.75.13.33.11.7.25,1.03.08.18.22.36.31.54.1.22.06.46.14.71.08.25.23.5.31.75.1.33-.04.67.06.95.12.33.33.64.45,1.01v.51c.07.33.2.62.38.83.16.14.32.29.48.43.19.11.38.21.57.32.35.11.57-.15.74-.25.49-.28.86-1.2,1.5-1.2.28.19.31.37.48.68.06.12.21.24.26.37.1.22.09.46.18.69.22.53.75,1.07,1.37,1.21.55.13,1.31-.49,1.44-.83.08-.2,0-.36.06-.58.06-.19.18-.41.25-.58v-.54c-.06-.17-.18-.39-.25-.57v-.28c-.09-.31-.21-.58-.38-.8-.31-.41-1.13-1.14-1.58-1.4-.17-.09-.38-.09-.54-.2-.24-.16-.71-.66-.89-.89-.19-.34-.38-.69-.57-1.03-.17-.23-.34-.45-.51-.68-.35-.65-.63-1.26-1-1.9-.3-.52-.74-.94-1.07-1.44-.15-.14-.3-.29-.45-.43-.24-.24-.45-.57-.71-.78-.14-.11-.28-.21-.41-.32-.81-.79-1.55-1.62-2.44-2.33-.81-.65-1.51-1.6-2.09-2.49-.24-.38-.72-.79-1.01-1.17-.38-.48-.87-.88-1.3-1.3-.38-.37-.74-.83-1.17-1.14-.66-.47-1.4-1.09-1.75-1.86-.67-1.47,1.12-2.61,1.64-3.39.18-.27.19-.68.4-.92.2.09.45.06.68.14.12.04.27.15.38.18.41.13,1.04.1,1.46.18.51.11.97-.15,1.5-.06.43.07.89-.01,1.37.06.21.01.42.02.63.03.2-.11.4-.23.6-.34.26-.1.55.02.84-.09.32-.12.59-.27.97-.38.33-.1.55.15.91.08.49-.1,1.14.1,1.67.03.15-.02.41-.09.55-.11.36.02.73.03,1.09.05.31-.1.64-.28.97-.34.25-.05.46,0,.71-.09.15-.1.31-.19.46-.29.18-.08.42-.1.58-.15.23-.07.45-.28.71-.35.15.01.31.02.46.03.18.02.38-.1.61-.05.11.02.25.07.4.09.22.03.41-.01.54-.05.4.02.81.03,1.21.05.22.03.52.18.77.11.25-.07.44-.26.66-.35.19-.08.36-.08.54-.15.19-.12.38-.25.57-.37.35-.19.7-.31,1.04-.51.19-.11.36-.32.57-.41.16-.07.31-.04.48-.11.21-.12.43-.24.64-.35.17-.05.41-.01.61-.09.21-.08.41-.27.61-.35.17-.07.32-.04.49-.11.37-.14.82-.4,1.11-.64.32-.28.44-.71.68-1.07.08-.13.26-.26.34-.4.1-.19.5-1.29.43-1.55-.35-1.41-1.82-1.3-3.06-.84-.27.03-.54.06-.81.09-.31.12-.59.3-.91.46-1.25.63-1.58,2.48-3.07,2.95-.55.17-1.89-.09-2.33-.23-.52-.03-1.03-.05-1.55-.08-.61-.09-1.57-.11-2.07.03-.46-.02-.92-.04-1.38-.06-1.13-.17-2.3-.2-3.21-.58-.38-.16-.54-.42-.8-.71-.42-.47-.97-.94-1.49-1.3-.33-.23-.69-.45-1.03-.68-.12-.08-.32-.06-.4-.18-.54-.83.7-.89.51-1.6.17-.22.54-.29.74-.49.11-.11.17-.26.26-.4.09-.15.26-.28.37-.41.22-.28.56-.97.69-1.32v-.52c-.02-.22.02-.44.06-.58.13-.48-.19-.92,0-1.3.21-.42.82-.3,1.29-.48.39-.14,1.1-.75,1.23-1.14.31-.97-.21-1.61-.45-2.2-.11-.26-.11-.63-.18-.89v-.84c-.07-.38-.13-.78-.18-1.17-.01-.09-.09-.22-.08-.35.09-.79.7-1.04,1.09-1.55.12-.16.15-.38.25-.57.16-.19.33-.39.49-.58.1-.25,0-.86,0-1.21v-1.11c-.16-.2-.33-.4-.49-.6-.11-.22-.11-.49-.25-.69-.18-.27-.52-.38-.75-.6-.21-.25-.43-.49-.64-.74-.24-.24-1.09-1.41-.88-2.03.13-.38.37-.72.57-1.06.13-.22.54-.5.78-.6.09-.04.16,0,.23-.05.43.01.62.29.94.41.5.2.88.38,1.3.64.12.08.23.23.35.31.37.24.75.39,1.11.63.21.14.39.37.6.51,2.44,1.57,4.72,3.29,6.94,5.08.25.26.49.51.74.77.57.49,1.15.95,1.72,1.44.27.27.53.54.8.81.74.59,1.3,1.32,1.93,2.01.72.78,1.48,1.53,2.07,2.44.16.24.49.41.63.68.31.58.69,1.1,1.06,1.64.24.36.59.7.83,1.06.37.56.69,1.12,1.06,1.7.22.34.56.65.77,1,.22.37.34.8.57,1.17.12.18.3.35.43.52.19.24.42.78.57,1.06.19.36.34.66.51,1.03.06.14.05.27.12.4.11.19.34.34.45.54.13.23.14.49.26.72.37.74.83,1.53,1.18,2.29.05.27.09.53.14.8.12.17.25.34.37.51.07.16.05.31.12.49.24.58.55,1.26.81,1.83.12.26.09.62.2.95.09.27.26.49.37.72.13.26.02.58.14.84.08.18.28.38.37.6.13.32,0,.85.14,1.15.12.18.25.37.37.55.13.33-.07.69.06,1.03.15.38.32.79.45,1.21v.29c.06.28.12.67.18.94v.84c.11.28.37.49.45.78.12.43-.17.84-.08,1.26.03.13.15.34.2.46.14.34.19.72.31,1.06.16.48-.21.9-.06,1.35.08.24.25.47.32.72.08.27,0,.48.06.78.07.31.11.74.18,1.04v1.41c-.02.09-.09.22-.06.37.08.48.06,1.06.06,1.63v.89c-.07.56.06.97.06,1.5,0,.39-.14.68-.08,1.09ZM94.14,87.86c-.16.31-.48.51-.81.64-.29-.01-.7-.48-.6-.83.06-.21.19-.43.31-.58.12-.15.35-.17.48-.31.56-.02.92.52.63,1.07Z"/>
      <path class="cls-1" d="M55.97,28.85c.28.14.62-.01.88-.06h.45c.23-.09.47-.26.74-.32.46-.1.92.08,1.29.08.15-.03.3-.05.45-.08h1.92c.3,0,.56.09.81.14.27.05.47-.02.69.06.14.06.32.19.46.25.33.13.87-.11,1.23,0,.21.07.51.1.74.18.27.1.5.29.81.38h.51c.3.07.76.05,1.11.06h.46c.41.11,1.08.62,1.64.45.48-.15.72-.68.95-1.11.1-.19.32-.33.38-.55.13-.43-.18-.73-.31-.94-.11-.18-.11-.36-.2-.57-.2-.48-.52-.86-.92-1.15-.18-.13-.35-.32-.54-.45-.24-.16-.56-.2-.84-.31-.21-.11-.43-.21-.64-.32-.24-.08-.5-.03-.74-.12-.24-.09-.48-.26-.77-.32h-.35c-.34-.09-.72-.12-1.18-.12h-.78c-.6-.13-1.48-.06-2.18-.06-.67,0-1.18-.07-1.81-.06-.3.14-1.34.16-1.73.18h-.69c-.22.06-.37.29-.55.38-.19.1-.38.14-.57.25-.71.42-1.21,1.4-1.58,2.15-.3.61.56,1.81.89,1.98Z"/>
      <path class="cls-1" d="M59.29,66.98c.17,0,.35-.01.52-.02.44-.17,1.42-.96,1.6-1.38.16-.39.21-1,.12-1.43-.06-.31-.02-.6-.12-.88-.09-.22-.29-.37-.45-.54-.46-.5-.97-.92-1.93-.91-.16.16-.8.24-1.03.37-.53.28-1.36,1.37-1.6,1.97-.15.38.25.9.37,1.12.35.66,1.48,1.87,2.52,1.69Z"/>
    </g>
  </g>
</svg>