<?xml version="1.0" encoding="UTF-8"?>
<svg id="Layer_2" data-name="Layer 2" xmlns="http://www.w3.org/2000/svg" viewBox="0 0 240.35 112.3">
  <defs>
    <style>
      .cls-1 {
        fill-rule: evenodd;
      }
    </style>
  </defs>
  <g id="Layer_1-2" data-name="Layer 1">
    <g>
      <path class="cls-1" d="M111.57,20.51v-7.72c.96-4.87,4.8-3.73,10.29-3.72h26.16c5.82,0,12.99,1.1,11.35-6.3-.54-2.45-3.86-1.91-4.17-2.75h-47.63v.35c-.9.16-2.01.05-2.66.44-2.92,1.75-1.86,9.2-1.86,13.75v79.73c0,4.06-.81,12.71.89,15.08,1.41,1.97,9.02,1.33,12.59,1.33h39.11c.98-.24,2.55-.87,3.1-1.6,1.84-2.43.39-6.44-1.95-7.01h-31.75c-2.39.03-4.79.06-7.18.09-.33-.18-.65-.35-.98-.53-1.21-.3-2.67.26-3.55-.27-2.42-1.43-1.77-6.48-1.77-10.29v-31.4c.31-1.49,1.19-3.3,2.84-3.46.83.03,1.66.06,2.48.09,1.15-.25,2.88-.35,4.52-.35h21.46c4.79,0,9.06.75,10.38-2.75.03-.68.06-1.36.09-2.04-.05-4.25-4.63-3.73-8.87-3.72h-29.53c-3.71-1.06-3.37-4.48-3.37-9.22v-17.74Z"/>
      <path class="cls-1" d="M211.61.02h-36.98v.35c-2.43.62-3.6.57-4.52,2.57-.03,6.24-.06,12.48-.09,18.71v64.83c.03,7.06.06,14.13.09,21.2.64,1.6,2.07,2.84,3.99,3.1.66.09,1.24-.37,1.69-.53,3.94-1.4,2.84-6.04,2.84-11.09v-28.47c0-3.58-.71-8.72,1.42-10.2,1.46-1.01,5.68-.44,8.16-.44h19.87c4.52,0,8.22.14,9.4-3.19.37-1.04-.08-2.43-.35-3.1-1.27-3.11-4.47-2.66-8.78-2.66h-20.31c-4.99,0-8.11.74-9.4-3.19v-29.89c0-4.12-.56-8.17,2.84-8.96h31.04c4.19,0,9.83.69,10.73-2.57C225.22-.68,217.91.02,211.61.02Z"/>
      <path class="cls-1" d="M1.6,50.3c1.11,3.2,2.05,6.46,3.46,9.4,3.25,6.77,9.11,12.2,15.17,16.23,1.24.56,2.48,1.12,3.72,1.69,2.49,1.31,5.78,2.53,8.78,3.28,1.8.45,3.4-.15,5.14.27,1.14.27,3.44.94,5.32.53,2.78-.6,6.18-.8,9.05-1.6,9.74-2.69,18.97-10.14,23.24-18.36.54-1.04,1.6-2.1,2.04-3.28,1.39-3.68,2.45-7.57,3.46-11.53v-3.72c1.07-4.92-1.07-12.79-2.66-16.41C71.74,11.8,59.89.94,38.05,1.26c-1.13.67-4.16.53-5.59.89-3.18.79-6.01,1.8-8.87,2.93-1.37.54-2.8,1.77-3.99,2.57C11.35,13.24,5.22,19.99,2.13,30.7c-1.24,4.29-1.84,10.75-.8,15.7.29,1.38-.22,2.51.27,3.9ZM7.8,30c3.05-8.79,10.76-17.55,19.33-20.75,1.95-.65,3.9-1.3,5.85-1.95,1.51-.33,3.25-.12,4.35-.8,5.27-.01,9.48.25,13.57,1.33,16.94,4.46,31.53,26.15,22.35,47.27-4.37,10.06-12.38,16.8-23.41,20.22-1.98.61-4.08.7-5.94,1.06-1.97.39-5.04,0-6.47-.35h-2.13c-2.75-.64-5.66-1.65-7.98-2.57C13.56,68.02.88,49.94,7.8,30Z"/>
      <path class="cls-1" d="M28.65,60.68c1.32,1.92,4.78,1.33,5.94-.27,2.63-3.62-1.49-15,3.37-16.32,2.72-.74,4.09,2.02,4.79,3.55,1.05,2.29,2.57,4.84,3.55,7.18.84,2.02,1.44,3.98,2.75,5.5,1.6,1.87,5.79,2.47,6.92-.27.6-1.55-.66-3.14-1.06-4.08-.77-1.78-4.81-9.99-4.61-11.44.36-2.64,3.29-3.2,4.43-5.06.73-1.19,1.56-2.36,2.04-3.72.3-1.39.59-2.78.89-4.17.12-7.56-1.88-12.29-7.01-14.54-.68-.38-1.36-.77-2.04-1.15-1.97-.53-4.34-.35-6.74-.35h-10.82c-.74.4-1.93.74-2.39,1.42-1.42,2.08-.89,6.74-.89,10.11v22.53c0,3.57-.64,8.87.89,11.09ZM35.65,25.38c1.13-2.78,2.88-1.15,5.23-2.31,2.5.53,5.42.1,7.1,1.33,3.17,2.33,2.02,9.31-.71,11.09-1.92,1.25-8.71,1.39-10.73,0-.92-.64-1.63-8.29-.89-10.11Z"/>
      <path class="cls-1" d="M85.23,104.4c-2.81-1.37,0-8.71-3.19-11.17-2.81-.5-2.78,1.93-3.9,3.37-.65.83-5.41,3.55-6.56,3.81-1.96.45-3.16-1.71-4.7-2.04-2.73-.59-5.11.53-6.83,1.24-.3.15-.59.3-.89.44-2.39-.41-3.4-6.55-7.8-4.08-.95.54-1.56,2.05-2.48,2.75-3.27.56-5.92-1.69-8.69.18-2.1,1.42-1.15,4.73-3.37,6.3-4.17-.46-.79-4.82-.44-6.3.35-1.49-.35-3.28-.89-4.08-.73-1.09-2.32-2.11-3.72-2.48-2.63-.7-8.05.15-8.87,1.42-1.5,2.32.11,6.06-2.22,7.8-1.39.03-2.78.06-4.17.09-1.84.39-3.26,3.12-4.97.18-.25-.44-.74-1.23-.53-2.04.49-1.93,1.77-3.23,2.13-5.23-.26-.64-.51-1.08-1.15-1.33-1.88-.84-2.91,1.36-5.06,1.15-1.73-.17-2.84-2.22-4.97-1.77-.65.35-1.3.71-1.95,1.06v2.22h.44c.58,1.72,2.72,3.53,2.04,6.12-.35.68-.71,1.36-1.06,2.04-.26.64-.74,1.93-1.42,2.13v1.95c.84.17,1.28,1.18,2.48.89,1.64-.4,2.53-2.35,5.06-1.6,1.22.36,2.61,2.34,4.35,2.04,1.83-.32,2.2-2.47,3.46-3.37.26-.18,2.91-.74,3.19-.8,3.58-.77,3.36,2.87,5.32,3.64,2.34.91,3.87-1.32,5.23-1.95,1.92.3,2.82,2.09,4.79,2.48,1.25.25,2.22-1.09,3.72-.8,2.28.44,6.89,1.53,10.2.8.5-.27,1.01-.53,1.51-.8,2.38-.59,4.16,1.63,5.76,1.24,1.44-.35,2.19-1.75,3.37-2.04,3.03-.76,4.2,2.25,7.63,1.6,1.95-.37,2.87-1.98,4.7-2.39,1.24-.24,3.74,2.07,5.41,2.39,3.97.77,6.65-1.09,9.76-.44,2.25.47,4.68-.79,3.46-3.02-.59-1.29-2.63-1.24-4.17-1.6ZM58.36,105.29l-.35.27h-.53c-.84-.43-.71-1.9-.44-2.75.12-.09.24-.18.35-.27.18.03.35.06.53.09.7.4.58,1.71.44,2.66Z"/>
      <path class="cls-1" d="M238.75,101.03c-2.38-1.71-8.96-1.23-10.38.89-1.16,1.73-1.03,6.64-.09,8.34.5.9,1.8,1.49,2.66,2.04h6.12v-.44c1.29-.21,2.24-.81,2.66-1.86.28-.69-.13-2.04.62-2.31.05-2.47-.17-5.63-1.6-6.65Z"/>
    </g>
  </g>
</svg>