<?xml version="1.0" encoding="UTF-8"?>
<svg id="Layer_2" data-name="Layer 2" xmlns="http://www.w3.org/2000/svg" viewBox="0 0 188.78 62.06">
  <defs>
    <style>
      .cls-1 {
        fill-rule: evenodd;
      }
    </style>
  </defs>
  <g id="Layer_1-2" data-name="Layer 1">
    <g>
      <path class="cls-1" d="M85.53,10.18c-.15-.3-1.05-.61-1.37-.53-.51.13-1.1.55-1.69.79-.51.21-.87-.11-1.32-.05-.4.16-.81.32-1.21.47-.45.08-.94-.33-1.32-.47-.38-.14-.82.18-1.16.26-.37-.64-1.25-.95-1.9-1.05-.3.04-.6.07-.9.11-.27.25-.63.52-.74.95v.11c0,.64.58,1.18.74,1.69.27.86-.1,1.3.42,2.22v.05c.26.05.25.07.53.05.5-.38.5-.75.69-1.42-.14-.02-.03.05-.16-.05.21-.37.35-1.81.84-1.69h.26c.05.04.11.07.16.11.02,1.21.04,2.49,1.11,3.22,1.51-.64,1.26-.44,2.74.05.41.13.94-.24,1.37,0,.83.47,2.24,1.32,2.95.05-.08-.25-.11-1.36-.42-1.58.25-.33.63-2.78.37-3.27Z"/>
      <path class="cls-1" d="M178.83,47.68c-.38.1-.84.74-1.27.74-.32,0-.56-.28-.84-.37-.28.04-.56.07-.84.11-1.11-.46-2.64.04-3.43.37h-.11c-.07-.12-.14-.25-.21-.37-.39-.3-.89-.53-1.74-.53-.48.2-.76.26-1.11.53-.14.81.12,1.82.42,2.32-.42,1-.65,1.54-.32,2.64.87.27,1.56.58,2.43,0,.26-.18.31-.62.63-.74.38-.14.54.15.69.21.46.18,1.28-.45,1.64-.63.19-.1,1.46.61,1.69.74.07-.02.14-.04.21-.05.75-.21,1.78-.03,2.43-.16.22-.65,1.7-1.27,2.16-1.85.09-.46.18-.91.26-1.37-.36-.95-1.41-1.93-2.69-1.58ZM172.4,51.74v.11s-.07-.04-.11-.05c-.02.02-.04.04-.05.05-.21-.21-.42-.42-.63-.63.2-.78-.28-.64.32-1.69.14.02.28.04.42.05.29.61.54,1.77.05,2.16Z"/>
      <path class="cls-1" d="M166.44,50.42c-.18.27-.38.4-.53.74.11.32.24.53.58.47.29.1.6.12.84,0,.12-.12.25-.25.37-.37-.02-.16-.04-.32-.05-.47-.47-.2-.67-.24-1.21-.37Z"/>
      <path class="cls-1" d="M117.33,13.24c.14.61.19.97.47,1.48.24-.04.2-.03.37.11.19-.11.39-.21.58-.32-.07-.98.48-2.11.9-3.01.14.04.28.07.42.11.2.65.51,2.12.47,2.85.42.19.49.54,1,.37.99-.16,1.21-.7,2.22.16.37-.05.74-.11,1.11-.16,1.4.38,1.78,1.55,3.38.32,0-.6-.35-1.12-.32-1.53.1-1.13.69-2.7.05-3.69-.4-.02-.5-.15-.79-.21-.94-.18-1.51.52-2.16.84-.04-.02-.07-.04-.11-.05-.4.01-1.22-.22-1.74.05-.09.04-.26.29-.37.32-.43.12-1.07-.34-1.32-.47-.51.07-1.02.14-1.53.21-.27-.79-1.21-.76-1.9-1.05-.45.33-.83.22-1.32.79.15.92.25,1.64.69,2.53-.04.12-.07.25-.11.37Z"/>
      <path class="cls-1" d="M135.79,18.14c-.07.68-.32.85-.42,1.69-.05.43.2.72.16.95-.11.61-.4.92-.42,1.42-2.82-.03-.85-3.8-3.06-3.74,0,.22-.27.6-.47.79.76,1.36-.98,3.2,1.27,4.17.22.09.83.19,1.37-.05.26-.19.53-.39.79-.58.49.07.74.35,1.16.53.7.3,1.23.17,2,.11.04-.3.34-.41.53-.53-.09-.51-.13-.77-.26-1.21-.26-.86.39-1.49.11-2.11.11-.3.21-.6.32-.9-1.23-1.29-1.3-1.56-3.06-.53Z"/>
      <path class="cls-1" d="M131.62,14.4c.83,1.77,2.4,1.11,3.8.21.98.18,1.43.91,2.43,1.05.92.13,1.39-.82,1.95-1.05.53.07,1.05.14,1.58.21.69-.21.83-.65,1.58-.63.58,1.24,3.46.42,3.64.74.3-.29.55-.47.79-.74.65.14,2.01,1.01,2.64.53.19.34.53.21.74.37v.26s.59.19.63.05c.74.83,1.64-.12,2.37-.47-.18-.47-.35-.95-.53-1.42.15-.42.82-2.51.63-2.8-.26-.76-.8-.71-1.48-1.05,0,0-2.4.76-2.48.74-.33-.07-.64-.48-1.16-.37-2.12.46-5.31.17-7.7-.05-.54.97-1.66.2-2.53.58-.05.02-.41.55-.63.63-.15.05-.37-.02-.42-.05-.26-.19-.53-.39-.79-.58-.26.05-1.42.26-1.42.26-.95-.16-1.28-1.43-2.58-.84-.21.09-.23-.13-.32,0-1.9,1.19.31,2.69-.74,4.43Z"/>
      <path class="cls-1" d="M77.35,48c-.02-.07-.04-.14-.05-.21-1.03.22-1.46-.04-2.11,1.11.17.42.51.84.42,1.32.06.56-.97,1.24-1.16,1.79-.11.02-.21.04-.32.05-.14-.12-.28-.25-.42-.37v-1.16c.09-.65.38-1.3.42-1.74-.28-.18-.05-.41-.32-.69-.62-.66-1.49-.25-2.32-.21-.07.5-.53.75-.69,1.11-.06.14.04.96.11,1.05-.54,1.03.23,3.98,2.06,3.27.39-.15.84-.46,1.37-.79,1.02,1.16,3.09,1.33,4.06-.21-.44-1.18.44-1.76.69-3.06-.83-.49-.84-1.16-1.74-1.27Z"/>
      <path class="cls-1" d="M164.27,50.74c.34-.51-.17-2.3-.74-2.69-.91.05-1.52.4-2,1.05-.57-.44-2.09-1.94-3.27-1.05-.37.27-.61.75-.95,1.05-.07-.32-.5-.34-.84-.63-1.92-1.62-1.92.06-3.53.21-.5-.62-1.84-1.01-2.69-1-.32.19-.63.39-.95.58-.66.75-.62,3.65.42,4.32,1.16-.7,2.75-1.58,3.64-3.01.44.19.69.27,1.05.69-.16.33.16.25-.05.74-.33.77-.69.54-.63,1.69.19.18.39.35.58.53,1.8.04,1.98-.54,3.32-1.11.16.63.78.86,1.21,1.21.55-.22,1.2-.02,1.79-.47.28-.22.37-.72.74-.84-.3-1.08.24-1.65.21-2.37h.16c.15.24.55.41.74.84-.17.72-.76,1.72-.42,2.32.18.15.1.02.11.32.63.07,1.32.67,1.79.42,1.03-.54,1.33-1.91.32-2.8ZM158.42,51.11c-.2.34-.61.57-1.05.53-.04-.05-.07-.11-.11-.16.3-.8-.5-1.53.26-2.11.61.2.74.54,1.11.95-.08.33-.05.61-.21.79Z"/>
      <path class="cls-1" d="M44.33,35.87c-.52.02-4.64-.09-4.91-.53v-.26c.58-1.26,3.2-2.56,4.11-3.9,2.69-3.95,2.3-8.65-1.42-11.71-2.81-2.31-10.19-2.08-12.55.26-.31.31-.76.47-1.05.79-1.01,1.11-2.35,4.29-1.79,5.43-.05.19-.11.39-.16.58.08.36.18.86.37,1.16,1.04,1.66,4.86.33,5.64.79.15-.38.4-.14.63-.42.14-.28.28-.56.42-.84.32-.56-.02-1.51.26-2.16.47-1.11,1.87-1.56,2.9-.84.4.28.53.84.74,1.11.51.66-.9,2.81-1.32,3.32,0,0-.33.03-.42.11-.2.17-.56.78-.84,1.05-.37.36-1.03.56-1.37.79-.08.06-.27.47-.42.63-.52.57-1.47.99-2.06,1.48-.86.72-1.59,1.83-2.32,2.53-.67.64-3.29.65-3.8.11-.41-.44-.38-2.73-.32-3.32.05-.35.11-.7.16-1.05-.17-.62-.31-3.4-.05-4.17-.11-.53-.25-1.76-.16-2.11.17-.63.26-1.68,0-2.43.05-.3.11-.6.16-.9.1-.49-.26-2.24-.32-2.32-.59-.84-2.21-1.26-3.64-.95-.22.05-.39.21-.63.11v.26c-.35-.1-1.51.49-1.79.79-.1.44-1.33.53-1.95.84-1.3.65-4.26.62-4.91,2.32v1.11c-.85,3.4,3.11,3.02,5.06,3.11.02.12.04.25.05.37.11.05.21.11.32.16-.06.66.08,2.09.26,2.64-.04.04-.07.07-.11.11-.41.77.1,3.43,0,4.38-.07.66-.5.8-.63,1.37-1.41-.26-3.7.1-4.75.9-.26,1.4-.82,3.81.21,5.01.15.17.93.51,1.21.58.23-.04.46-.07.69-.11,2.16.37,5.06-.23,7.44.05.91.11,5.7.34,6.7-.05.28.05.56.11.84.16.42.06.55-.2.9-.16.97.11,2.19.24,3.16,0,.31-.08,1.36.08,1.64.11.79-.02,1.58-.04,2.37-.05,1.32-.13,2.51.18,3.59-.05l1.21.11c.57-.04,2.49.14,3.06-.42.7-.69,1.06-3.7.53-4.8-.16-.33-.77-.65-.95-1.05Z"/>
      <path class="cls-1" d="M122.29,48.15c-.22-.12-.76-.71-1.42-.47-.69.25-1.54,1.1-1.95.9-.32-.67-1.22-.79-1.85-.95-2.15,1.84-3.15-.85-5.12.42-.18.26-.35.53-.53.79-.05.77-.11,1.55-.16,2.32h.21c-.3.54.32.82.26,1.32,1.01.1,1.3.48,2.16.32.42-.11.84-.21,1.27-.32.45.03.58.44.84.63.8.6,1.84.28,2.58-.26.22-1.13-.26-1.7.32-2.69.04.02.07.04.11.05.19.72.09,2,.79,2.32.81.38,1.45-.43,1.95-1.05.05-.06.2-.21.26-.11.64-1.04.11-2.45.26-3.22Z"/>
      <path class="cls-1" d="M81.15,47.73c-.7.37-1.53.41-1.69,1.48.2.22.3.48.58.63-.44.9-1.17,1.55-1.05,2.74.26.12.3.41.53.53,1.27.66,1.93.34,2.9-.37-.3-1.15.34-1.89.58-2.9.18-.75-.53-1.22-.63-1.74-.35.04-.76-.2-1.21-.37Z"/>
      <path class="cls-1" d="M117.65,29.59c-.4-.84-1.48-1.48-2.27-1.79-.74-.29-2.21.19-2.8.21-1.57.05-3.34-.01-5.12-.26-1.09.53-1.99.13-2.95,1.27-.74.87-.2,2.08-.16,2.95.03.51-.5,1.18-.32,1.74.14.42.7,1.02,1.16,1.42.96.83,3.03.7,4.27.37,0,0,.59.22.74.21.53-.04.95-.15,1.27,0,.02-.07.04-.14.05-.21.1.06,1.21.3,1.48.11.19.11.56.17.79.05,1.68.61,3.03-.77,3.96-1.79-.18-.48-.42-2.39-.42-2.53,0-.7.66-1,.32-1.74ZM111.63,32.81s-1.37.03-1.69.05c-.16-.21-.47-.34-.58-.53-.12-.26-.33-.71-.16-1-.13-.59.73-.6,1.05-.84.65.16,1.65,0,2.16.47-.11.62.28,1.63-.79,1.85Z"/>
      <path class="cls-1" d="M156.31,18.51c-.61-.32-.95,0-1.42.11-.24.05-1.57-.42-1.64-.47-.76.59-1.48-.22-2-.42-1.23-.46-2.39.58-2.9,1.69h-.05c-.98-.38-1.61-2.12-2.85-1.32-.32.04-1.05,1.37-1.48,1.74-1.14-.92-.41-1.89-2.27-2.22-1.87.78-1.8.5-2.48,2.22.07.02.14.04.21.05-.45,1.08,0,2.82,1.21,3.38.35.16.8.06,1.11.26.4-.16,1.3-.6,1.79-.74.77-.21,1.53.36,2.27.05.44.05.88.11,1.32.16l1.9-.16c.07.5,1.86.73,2.11.58.32-.18.67-.55.9-.84-.03-.49-.1-.58-.21-1.05-.37.04-1.22-.26-1.37-.63-.99-.77,1.93-1.84,2.16-.95.92.42,1.06,1.92,1.58,2.53.24.29.59.2.79.32.74-.41,2.36-3.64,1.32-4.27Z"/>
      <path class="cls-1" d="M139.8,32.17c-.65.2-1.75,1.43-2.53.32-.19-.26-.03-.78-.16-1.05.21-.34.34-.7.84-.74.32-.35,1.51.8,2.22.74.51-.05.84-.38,1.16-.79-.2-.82.05-1.16-.32-1.79-.17-.3-.42-.22-.63-.37.11-.37-1.91-1.11-2.48-1-1.15.21-2.86.62-3.59,1.69-1.11-.1-1.58-1.26-2.8-1.53-.86-.19-2.68-.26-3.38,0-.34.13-.74.43-1.16.47-.32-.11-.63-.21-.95-.32-.86-.3-1.91-.28-2.9-.37-.64.52-1.74.06-2.32.9-.5.71-.41,2.27-.26,3.01.22,1.07-.49,3.1.42,4.11,1.17,1.31,4.29.45,5.96.16.36-.06.57.13.84.21.99.28,1.84-.16,2.58-.79.86.39,2.26,1.38,3.11.79.37-.26.51-.7.95-.95.82.42,1.65.99,2.64,1.27,1.38.39,3.54-.61,4.17-1.74.18-.33.07-.84.21-1.16-.24-.29-.41-.61-.58-.9-.35-.05-.7-.11-1.05-.16ZM126.77,33.12c-.12.07-.25.14-.37.21h-.63c-.16-.19-.32-.39-.47-.58.3-.65,0-1.64.21-2.37.16.01.35-.04.53-.16.39.04.45.07.74.26.19,1.13.12,1.54,0,2.64Z"/>
      <path class="cls-1" d="M168.07,10.23c-.3.42-.6.84-.9,1.27-.38-.69-1.65-1.99-2.53-1.32-.43.33-.53.83-.95,1.32.28.24-.5,1.45-.37,1.79-.31.1-.38.38-.58.58-.07-.04-.14-.07-.21-.11-1.2-.6-.12-2,0-3.22-.66-.57-.6-.73-1.64-.95-.68.32-1.26.25-1.64,1-.65-.05-.59-.16-1.05-.47-.11.02-.21.04-.32.05-1.78-.92-2.44-.35-3.74.9.72,1.15-.35,3.03.95,3.9.64-.04,2.76.42,3.27-.32.26-.55-.2-.81.05-1.37.23-.51.26-1.41.79-1.9,2.29,1.21-.51,3.02.37,3.8.66,1.12,2.49.43,3.22-.21,1.24-.03,2.35.3,3.53.26.56-.09,1.13-.18,1.69-.26.69.06,1.57.37,2,.21l-.05.21c.64-.14,1.04.13,1.53,0,.2-.32.62-.62.74-1,.33-1.08-.2-3.48-.84-4.01-1.47-.01-2.27-1-3.32-.16Z"/>
      <path class="cls-1" d="M188.69,47.94c-.04-.56-.07-1.13-.11-1.69.14-.56.26-4.45,0-5.33-.2-.67.24-1.68,0-2.37-.14-.39.33-1.77-.05-2.27.32-.67.14-2.87.05-4.06-.07-.95.42-5.59,0-6.38-.14-.27.18-1.56-.05-2,.36-1.18.14-4.05,0-4.85-.06-.36.17-.8.21-1.05,0,0-.19-1.9-.21-2-.04-.2.11-1.9.16-2.11-.04-.37-.07-.74-.11-1.11.2-1.14.13-2.63-.05-3.69-.19-1.11.39-2.92.05-4.11-.07-.24.12-.63.16-.79-.04-.05-.07-.11-.11-.16,0-1.31,0-2.21-.47-3.06v-.16c-.98-1.12-2.8-.35-4.17-.58-.87-.15-3.3-.16-4.01.05-.41.12-1.09-.27-1.37.05-.26-.07-.53-.14-.79-.21-.48.08-1.41.24-1.95.16-.8-.13-4.18,0-4.27-.11-.76-.17-1.57.36-2.11-.05-.46.25-1.85.16-2.37.05-1.63-.34-3.22.5-4.54-.11l-2.06.21c-1.38-.57-4.48.33-5.96-.16-.37.04-.74.07-1.11.11-1.13.13-3.45.16-4.32-.11-.47.07-.95.14-1.42.21-.52.06-.99-.18-1.27-.21-.04.05-.07.11-.11.16-.08.03-1.43-.08-1.69-.16-.39-.12-1.15.4-1.42,0h-.05c-.05.04-2,.23-2.37.16-.7-.13-5.21-.26-5.8.05-.05.03-1.84-.17-2.32-.11-.42.05-3.6.18-4.11-.05-.89.24-1.9-.17-3.01,0-1.18.18-3-.06-4.48-.05-1.09,0-2.39.26-3.48.11h-6.12c-.99.28-2.19-.09-2.8-.05-.1,0-.05.05-.11-.05-.17-.08-2.46.22-2.69.16-2.03-.52-3.82.34-6.8-.16-.21.07-.42.14-.63.21-.02.02-.68-.2-.74-.21-.51-.15-3.48.21-3.48.21-.22-.41-2.09.03-2.48-.05-2.52-.54-6.51.56-9.18-.16-.12-.03-.91.06-1,.16-.05.05-.89-.16-1.11-.11-.74.17-1.68.07-2.37,0-.25.04-.49.07-.74.11-1.38-.22-2.8.27-4.27-.11-.88-.22-2.25.48-2.69-.05-.33.26-2.41.18-2.9,0-1.15.26-3.31.24-4.27.05-1.3-.26-2.96.41-4.11-.05-.04.05-.07.11-.11.16-.04-.05-.07-.11-.11-.16l-2.85.05c-.33.05-4.74.26-5.17-.05-.3.3-1.87-.04-2.64.05-1.12.14-2.83.12-3.9-.05,0,0-1.74.06-2,.16-1.1-.26-3.86.31-4.64-.16-.01,0-1.65.12-2,.11-1.85-.07-3.9.22-5.7.05-5.16-.48-11.52.5-16.67-.16,0,0-1.49.17-1.58.16-1.52-.12-2.74.22-4.48-.21l-.16.21c-.67-.4-2.71.08-3.64-.11C3.08.03,1.99.4,1.82.11,1.12.69.6.7.24,1.48c-.42.9.02,1.85-.11,3.06-.11,1.07-.17,2.81.05,3.85.21.96-.16,1.8,0,2.53.17.77-.43,2.09,0,2.85C-.02,14.35,0,15.96.19,16.51c-.16.84.11,1.15,0,1.95-.4,2.83.31,4.66-.05,7.81-.02.14-.08,3.34.11,3.48-.15.11-.15,3.75-.05,4.06-.04.32-.07.63-.11.95.1,1.23-.17,2.32.11,3.48-.04.79-.07,1.58-.11,2.37.04,2.6.07,5.2.11,7.81-.04.47-.07.95-.11,1.42.14,2.08-.33,6.26.11,7.75.25.86-.41,3.03.42,3.74,1.52,1.3,5.41.4,7.49.53.91.06,2.02.26,3.27.11.23-.03.57-.24.95-.16.67.15,1.55.35,2.43,0,1.12.31,3.72.17,4.38.11.91-.1,2.45.37,3.06-.05.23.05.46.11.69.16.39.12,4.01-.21,4.01-.21.05.02.11.04.16.05.48.06,4.69.33,5.38,0,.87.27,2.49.17,3.85,0,1.17-.14,2.97.05,4.32.16,2.08.16,4.81-.44,6.7-.05.85.17,3.54.02,4.01-.16.23-.09,1.09.44,1.32,0,.16.23,3.27.15,4.11.11h55.64c.66-.13,3.37,0,3.59.11.32.15,2.39-.23,2.95-.05.16-.05.32-.11.47-.16.21.05.43.18.69.21.44-.05.88-.11,1.32-.16.88.26,4.02.2,4.75,0,1.01-.27,2.17.34,3.11-.05.23-.1,2.47.25,2.95.16,1.85-.36,3.63.13,5.38-.05h19.51c.95-.15,3.92.28,4.22-.11.18.07.35.14.53.21.76-.06,3.72-.02,3.9-.21.03-.03.99.26,1.32.16,1.36-.43,3.67.44,4.8-.16.14-.07.45.22.58.21.26-.01.76-.24,1.16-.21,1.28.1,3.49.39,4.75.05.68-.18,1.94.02,2.32.11,1.58.35,3.7-.44,5.01,0,1.1.37,2.48-.47,2.8-1.32.26-.68.4-2.14.05-2.64.31-.62-.13-1.22,0-1.69.2-.72.12-1.53.05-2.27-.09-1.06-.06-2.77.16-3.69.16-.67-.23-1.65-.05-2.43ZM53.3,45.57c.19.09.12.01.21.21-.21.19-.06,3.43-.05,4.06.02,3.08.09,5.94-.11,8.65-.21.06-1.01.62-1.21.74-.05-.04-.11-.07-.16-.11-1.21-.2-2.78.21-4.01-.05-.09-.02-.18-.04-.26-.05-.68.43-2.03-.09-3.01.05-.62.09-2.97.28-3.59,0-.98.31-3.07.13-4.27-.05,0,0-1.88.2-2.27.16-1.77-.19-4.04.28-5.49-.11-.76-.2-2.59.14-3.22.16-.59.01-3.62.05-4.06-.16-1.17.35-5.2.04-5.7-.05-.4-.08-1.67.09-1.9.21-.47-.07-.95-.14-1.42-.21-.81.26-4.01.15-4.17.05-.02-.02-.04-.04-.05-.05-.1-.05-.95.16-1.16.21-.43.11-3.51-.13-4.17-.42-.06-.3-.24-.48-.32-.69l.05-2c-.17-.27-.13-4.35,0-4.75.09-.27-.07-.8-.11-.95-.14-.59,0-3.17.11-3.59.11-.47-.05-1.25-.11-1.48-.1-.39.09-3.39.16-3.53.18-.38-.52-3.3,0-3.74-.05-.19-.11-.39-.16-.58-.04-.16-.05-2.63,0-3.06.04-1.72.07-3.45.11-5.17-.16-.6-.21-1.69.05-2.48.11-.33-.17-1.27-.11-1.58.09-.47.1-1.17-.11-1.42.21-.4.04-1.42,0-1.85v-.05c.45-.92-.08-2.72.16-4.01.12-.65-.24-1.35,0-1.85.24-.49-.34-2.06.05-2.32-.07-.07-.14-.14-.21-.21.12-.24.23-.82,0-1.05.52-.79-.1-5.31.16-6.43.18-.78-.45-2.07.26-2.69,1.09-.95,5.42-.12,6.75-.37.84-.16,2.06.37,2.53-.11.07.05.14.11.21.16.83-.35,1.94.07,3.01,0,2.22-.16,4.7-.01,6.86-.11.74.04,1.48.07,2.22.11,2.03-.2,4.46-.13,6.65,0,1.84.11,4.38-.19,6.01,0,.81.09,3.66-.21,3.8,0,.98-.04,1.97-.07,2.95-.11.92-.05,2.19.2,3.06.11,1.97-.22,3.78-.14,5.8.21.02.29.21.68.37.95.09.16,0,1.93-.05,2.32-.18,1.36.3,4.5-.11,5.96.07.09.14.18.21.26-.28.21-.02,1.72-.16,2.22-.03.11.06.82.11.9-.54,1.34.26,2.55-.11,3.74-.08.25.15.56.16.74,0,.24.02.83-.21,1,.29.2.18,1.99.11,2.32-.1.44.22,1.13-.11,1.42l.16,1.64c.05.35.03,4.06-.11,4.32-.29.55.41,1.94,0,2.48,0,0,.06,2.39.16,2.64-.49,1.98.4,5.45-.16,7.17-.14.43.19,1.68-.05,2.27ZM92.07,53.53c-.17.75-.25,4.11,0,4.69-.14.04-.66.63-.74.84-1.06-.29-3.15.29-4.43.16-1.17-.12-5.09-.37-6.17-.05-.78.23-1.85-.33-2.58.05-.11-.04-.21-.07-.32-.11h-2.64c-.25-.04-.49-.07-.74-.11-1.09.27-3.22.26-4.17.05-1.44-.32-3.87.33-5.38,0-1.72-.38-7.55.76-8.49-.47.07-.54-.48-1.1-.32-1.64.22-.74.03-1.75,0-2.69.04-.02.07-.04.11-.05.09-.16.08-.85.05-1.11-.15-1.58-.2-3.95,0-5.43.13-.99-.52-3.89.42-4.64.74-.13,4.79-.23,4.96-.37l.16.16c.69-.09,3.12-.27,3.8.05.73-.2,5.32-.24,5.8-.11.95.26,2.76-.33,3.16.11,0,0,1.26-.09,1.32-.16.48.37,2.9-.04,3.43.11.49-.04.98-.07,1.48-.11.08-.05,1.17.17,1.53.11.61-.12,3.48-.13,3.74,0,.34.17.89-.03,1.16-.11.13-.04,3.37,0,3.64.05.21.05.72.32.9.58.26.43.48,2.25.21,2.74.18.51.2,5.01-.05,6.12.07.04.14.07.21.11-.33.26.08.61-.05,1.21ZM139.11,55.38c.08.73,0,3.57-.58,3.43-1.47.81-2.37-.07-4.43.26-.25.04-2.27.31-2.74-.05-.57.28-2.68.18-3.48.05-.93-.15-1.94.21-2.58.11-.89-.15-2.97.26-3.64-.16-.04.07-.07.14-.11.21-.58-.27-6.52-.24-6.91,0-.3-.13-3.9-.31-4.38-.05-.76-.26-1.61.19-2.48,0-.6-.13-2.45-.21-2.95,0-.48.2-2.28-.1-2.58-.05-1.27.2-2.35-.36-3.43-.05-.34.1-2.52.22-3.11.05-1.36-.39-.84-2.44-.9-3.59-.03-.6-.18-4.25.05-4.48-.2-.17-.06-3.82-.05-3.85.23-1.29-.51-3.17.32-4.11.7-.79,2.7.06,3.32-.42.07.05.14.11.21.16h11.18c.46-.04.91-.07,1.37-.11.46-.05.98.08,1.27.16.27.07.53-.11.74-.16.4-.08,2.1.07,2.37.16.29.09,3.3-.11,3.48-.16.05-.02.11-.04.16-.05.52.43,1.33-.06,1.74,0,1.67.23,4.1-.14,5.91.16.64.1,2.12,0,2.48-.16.27-.11,1.95.25,2.58.16.29-.04,1.6-.2,2,.05.56-.22,3.68-.28,4.32-.05.29.1.47.41.74.58-.01.04-.09,4.4.16,4.85-.23.58-.06,1.7,0,2.48.14,1.7-.22,3.12-.05,4.64ZM185.53,58.76c-.9.53-6.31.59-7.6.32-.39.04-.77.07-1.16.11-.74.09-1.74,0-2.32-.11-1.18-.22-3.19.45-3.9-.05-.27.22-.27.07-.58.16-.62-.16-4.46-.1-4.69,0-1.01-.28-2.3.08-3.16.05-.28,0-.69-.11-.9-.16-1.26-.31-2.51.41-3.64-.05-.16-.07-1.44.14-1.95,0-.14.05-.28.11-.42.16-.81-.04-1.62-.07-2.43-.11-1.59-.23-3.96.49-5.12,0-.33-.14-.89.09-1.05.16-.04-.02-.07-.04-.11-.05-1.13-.34-2.72.35-3.9-.11-.56-.22-.72-.91-.74-1.48-.04-1.11-.14-7.27.11-7.65-.31-.75-.19-3.57-.05-4.64.07-.57-.26-1.38.05-1.9.8-1.31,4.07-.03,4.59-.74l.16.16c.64-.16,3.7-.2,4.17.05,0,0,1.15-.04,1.37-.16.18.06,1.72.33,2-.05.04.04.07.07.11.11.47.02.95.04,1.42.05.88-.07,1.68-.05,2.69.05.14.01.44-.15.58-.21.14-.06,1.09.3,1.58.16.44-.13,5.39-.15,5.85.05.23-.04.46-.07.69-.11.87-.05,3.01-.17,3.53.11.16.08,1.74-.12,2-.05.47.13,1.49-.04,1.85-.11.34-.06,4.13.02,4.43.16.08.04,1.04-.13,1.11-.16,1.63.35,3.43-.04,5.22.26.16.21.32.42.47.63.17.35.03,6.94,0,7.01-.19.4.11,3.15.05,3.43-.29,1.48.52,3.54-.32,4.69ZM185.95,27.43s-.17,1.3-.16,1.53c.03.52.16,1.22-.05,1.64.07.04.14.07.21.11-.3.5-.14,1.34-.05,1.9-.04.49-.07.98-.11,1.48.28.92.16,4.83-.37,5.64-1.5.41-3.55.49-4.64.16-.32.05-.63.11-.95.16-.41.09-2.68,0-2.9-.16-1.13.5-2.69-.12-4.06.16-.19-.05-.39-.11-.58-.16-.6.16-2.62.31-3.32,0-.28.07-2.24.29-2.58,0-.18.1-.52.23-.79.21-1.49-.09-2.59-.36-3.8,0-.18-.05-.35-.11-.53-.16-.13-.04-2.93-.09-3.43.16-.52-.14-1.21-.26-1.69-.21-.05,0-.82.22-.84.21-.22-.06-.94-.27-1.32-.21-1.73.26-4.1.28-5.49.05-.36-.06-1.21.28-1.79.16-1.02-.21-2.26-.23-2.9-.05-.25-.04-.49-.07-.74-.11-.99.02-2-.15-2.9.16-.4.14-1.98-.22-2.69-.05-1.17.27-5.09-.51-5.75.05-.21-.12-1.07-.25-1.42,0-.7-.32-5.52-.16-6.22-.05-.65.1-1.92-.05-2.37-.16-.32.07-.63.14-.95.21-.41-.26-5.73-.13-6.01-.05-1.15.31-1.95-.4-2.9.05-.25.12-2.71-.24-3.06-.21-.81.06-3.79.37-4.8,0-.07-.03-.78.22-.9.21,0,0-.17-.12-.21-.11-.64.16-1.66-.16-2.37.11-.14.05-1.5-.23-2.16,0-.16.05-2.84-.03-3.01-.05-.11-.05-.21-.11-.32-.16-2.81.65-6.23-.27-9.6.21l-1.42-.21s-.07.07-.11.11c-.88.16-4.15-.25-4.48.11l-1.37-.16c-1.34.24-3.04-.28-4.91,0-2.49.38-6.91-.28-9.39.11-1.21.19-2.85-.34-4.01,0-.91.27-1.94-.25-2.9-.11-.09-.37-.28-.19-.42-.42-.17-.27-.22-.87-.26-1.05-.12-.52.04-2.1.11-2.69.04-.37-.11-3.03-.16-3.06.23-.2.18-4.28.05-5.12-.28-1.89.39-3.68,0-5.06-.15-.54.08-2.39.16-2.85.04-.25-.15-3.21-.21-3.27,0,0,.31-3.26,0-3.8.07-.04.14-.07.21-.11-.23-.46-.16-1.21,0-1.74.03-.09-.16-2.43-.16-2.43.05-.07.21-3.24.11-3.69-.05-.04-.11-.07-.16-.11.28-.22.12-.63.26-.95.26-.21.53-.42.79-.63.79.4,5.02-.37,6.28,0,.36.1,1.38.04,1.48-.11,1.44.55,4.78-.07,6.59,0,2.74.1,5.82.24,8.76.21,0,0,2.31-.18,2.53-.16,1.04.1,2.71-.17,3.74,0,.45.07,1.15.17,1.64.11.42-.05,3.59-.26,3.96.05.37-.2,2.62-.25,3.43-.16,2.8.04,5.59.07,8.39.11,1.11-.16,3.01-.22,3.8,0,.93.26,2.89-.41,3.74.05.07.04,2.5-.15,2.8-.11,1-.02,2-.04,3.01-.05.65-.13,1.61.19,2.37.11.63-.07,1.84-.22,2.43.05.17.08,1.37-.17,1.42-.21.61.37,4.57.03,5.59.16.63-.04,1.27-.07,1.9-.11.37-.07,2.38.01,2.64.16.04.02.93-.13,1.11-.16.32.04.63.07.95.11.94.16,1.49-.15,2.53,0,1.51.22,4.37-.48,5.33.05.12.06.93-.23,1.27-.16.85.17,2.14,0,3.48,0,2.69,0,4.97.34,7.17.11,1.04-.11,2.56-.25,3.74,0,.27.06,2.37-.05,2.53-.16.65.29,3.11.14,4.01.05,1.06-.1,3.99-.09,5.01.16,0,0,1.86-.2,1.9-.21.02,0,.64.15.69.16.26-.04.53-.07.79-.11,1.43.21,3.82-.2,5.17.11.53-.04,1.05-.07,1.58-.11.2-.12,4.12.15,4.54.26.78,1.74.07,3.83.47,5.7-.04.42-.07.84-.11,1.27.41,1.95-.23,4.23,0,6.65.22,2.3.28,5.43,0,7.65-.1.81-.04,2.61.16,3.01Z"/>
      <path class="cls-1" d="M122.92,23.37s1.24-.13,1.48-.26c.54-.31.99-.08,1.53.26.7.45,2.47-.12,2.43-.26v-.11l.16-.16c.43-.34.33-.96.74-1.27.1-.23-.02-.98-.05-1.05.3-1.82-.63-2.32-2.06-3.06-.66.43-1.76.23-2.32,1-1.39-.38-2.35-.15-3.59-.79-.27.51-1.29.77-1.32,1.58-.77,0-1.02-.8-1.48-1.27-2.23-.53-2.26,2.36-2.8,3.53-.08.17.23.48.11.69.14.32.49.58.74.79.54-.24,1.61-.1,2.06,0,1.17.26,3.37-.82,4.38.37Z"/>
      <path class="cls-1" d="M88.69,12.92c-.43.19.06,1.56.26,1.85.36.09.4.14.84.16.24-.56,1.14-1.39,1.9-1.42.18,1.83,3.03,1.95,4.43,1.53.84.18,1.63.56,2.32.69.8.14,1.12-.66,1.74-.84.12.19.46.14.74.32.86.55,1.87.9,2.58-.16-.27-1.02-.94-1.24-1.21-2.16-.26-.9.08-1.72-.58-2.22-.14-.02-.28-.04-.42-.05-.14.05-.28.11-.42.16,0,.42-.21.55-.32.9-.19.64.27,1.04,0,1.85-.11.33-.4.54-.37.9-.14.05-.28.11-.42.16-.32-.67-1.05-.79-1.42-1.48-.04-.58-.07-1.16-.11-1.74-.15-.3-.46-.74-.9-.63-.16.03-.03-.06-.16.05-.29.22-.57.57-.74.9-1.08-.2-1.17-1.87-2.43-1.64-1.18.22-1.5,2.33-2.27,2.27-.13-.02-.07,0-.21-.11,0-.49.34-1.86-.26-2.06-.14-.29-.55-.42-.9-.47-.31.19-.98.47-1.37.47-.11.69-.96,2.54-.32,2.8Z"/>
      <path class="cls-1" d="M90.48,17.99c-.38-.1-.56-.32-.9-.47-.86.34-1.29,0-1.85.58-.76.79-.04,3.12-.37,3.64-.04.07-.07.14-.11.21.43.33.31.7.58,1.05.69.9,2.17.58,2.85-.32-.07-.5-.14-.53-.42-1-.32-.53.89-2.65.21-3.69Z"/>
      <path class="cls-1" d="M109.37,15.4c.27-.15.44-.47.79-.58.57-.17,1.31.26,1.79.11,1.63-.53,2.09-3.46,1.74-4.85-.4-.06-.78-.35-1.42-.37-.35.3-1.44.88-2,1-.15-.31-.42-.27-.74-.42-1.07-.52-1.9-.87-3.06.47.12,1.13-.75,2.56.11,4.01.43.74,1.96,1.1,2.8.63Z"/>
      <path class="cls-1" d="M104.78,22.52c-.28-1.15-1.56-2.04-.32-3.22.2-.19.11-.36.42-.47.11.41.66,2.68.16,2.95-.11,1.13,2.24,1.28,3.11,1.16.62-.08.78-.43,1.32-.53.47,1.16,2.06.97,2.9,1.05.09-.41.52-.55.53-1.16-.63-.41,0-3.28-.11-4.17-1.55-1.73-2.22.38-3.43.21-.52-.08-1.3-.51-1.64-.84-.16.05-.32.11-.47.16-.43.08-.52-.21-.84-.11-.64.2-1.05.85-1.58,1.16-.33-.93-1.17-1.13-2-1.32-.6.45-1.37.43-1.74,1.05-2.5-1.04-2.42-1.05-4.91-.16-.52-.88-1.65-.07-2.32-.16-.6-.08-.93-.22-1.37-.21h-.37c-.29.12-.62.4-.79.63-.47.88.4,2.68,0,2.95.06.49.18.9.63,1.16.35-.04.64.14,1-.05.29-.15.37-.5.74-.63.11-.04.45.11.74,0,.27.76,1.25.48,1.48.74l.37-.16c.22,0,.88.04,1.16.26,1.61-.81,2.59-1.93,3.69-3.32.14-.02.28-.04.42-.05,0,.34.49.63.42.95-.22.25.09.18.05.47-.06.45-.44.91-.53,1.27-.07.27.16.83.16,1,.35.08.58.25.74.47,1.19-.48,1.51.19,2.37-1.11Z"/>
    </g>
  </g>
</svg>