<?xml version="1.0" encoding="UTF-8"?>
<svg id="Layer_2" data-name="Layer 2" xmlns="http://www.w3.org/2000/svg" viewBox="0 0 378.07 215.07">
  <defs>
    <style>
      .cls-1 {
        fill-rule: evenodd;
      }
    </style>
  </defs>
  <g id="Layer_1-2" data-name="Layer 1">
    <g>
      <path class="cls-1" d="M234.01,7.77c1.4-.04,2.8-.07,4.2-.11.11.21.21.42.32.63h1.68c1.15-1.73,2.26-2.31,4.94-2.31h2c.41-.21.09-.56.84-.63,1.23.04,2.45.07,3.68.11.14-.21.28-.42.42-.63h2c.98-.54.96-.88,2.73-.53.32-.29.62-.93.95-1.16.69-.49.88.2,1.89-.63.73.13.43.47.84.63h6.83c.04-.6.07-1.19.11-1.79-.21-.25-.42-.49-.63-.74-1.43,0-1.34-.48-1.89-.63h-3.26c-.07.14-.14.28-.21.42-1.05.48-3.36-.4-4.52.21-.11.21-.21.42-.32.63-.46-.04-.91-.07-1.37-.11-.37.18-1.17,1.1-1.58,1.26-1.75-.04-3.5-.07-5.25-.11-.14.21-.28.42-.42.63h-2c-.14.21-.28.42-.42.63-.42-.04-.84-.07-1.26-.11-.11.21-.21.42-.32.63h-3.78c-.14.21-.28.42-.42.63-1.19-.04-2.38-.07-3.57-.11-.11.21-.21.42-.32.63h-3.15c-1.09.56-.46.65-2.31.53-.21.42-.17.45-.63.63v.63h3.57c.39.1.37.65.63.74Z"/>
      <path class="cls-1" d="M376.8,103.81c.18-.07.35-.14.53-.21v-2.94c0-1.03-.3-.99-.53-1.47v-6.51c-.47-1.23-1.72-3.04-2.31-4.41-.48-1.11,1.34-2.26.53-3.78-.75-1.41-2.17-2.8-2.84-4.31v-4.73c-2-2.12-2.4-2.63-2.31-6.93l-1.26-1.26c-.71-.37-1.67-.18-2.1-.63l-.63-2.94c.14-.3,1.01-1.17.53-2.1-.82-1.58-2.44-2.33-3.36-3.68-.39-.57-.08-.86-.63-1.26.05-1.35.54-1.85.53-3.57-1.26-1.42-3.42-2.08-4.52-3.78-.76-1.18-.5-3.02-1.16-4.31-.7-1.38-4.19-2.97-4.62-3.78-.42-.79-.23-1.83-.63-2.63-.18-.07-.35-.14-.53-.21v-1.47c-1.07-2.07-4.76-2.48-5.78-4.31-.81-1.44-.94-2.74-1.68-4.2-.32-.63-2.49-1.5-3.26-1.89-1.68-.86-2.39-3.41-3.78-4.62-.49-.43-1.17-1.4-1.68-1.68-.64-.35-1.7-.34-2.1-.63-.28-.39-.56-.77-.84-1.16-.64-.31-1.2-.1-2-.53-.08-.04-3.03-2.48-3.05-2.52-.44-.82-.49-1.7-1.26-2.1-.25.04-.49.07-.74.11-.14-.21-.28-.42-.42-.63h-1.47c-.11-.21-.21-.42-.32-.63-.6.04-1.19.07-1.79.11-.14-.21-.28-.42-.42-.63h-3.78l-.32-.63c-.63.04-1.26.07-1.89.11-.99-.39-.71-.64-2.63-.63-.31.32-.23.46-.74.63-.79-.53-2.39-1.28-2.73-2.21v-2.42c-.19-.42-.47-.21-.53-1.05-.49-.04-.98-.07-1.47-.11-.14-.21-.28-.42-.42-.63h-2.63c-.07-.18-.14-.35-.21-.53h-3.15c-.11-.21-.21-.42-.32-.63-.98.04-1.96.07-2.94.11-.14-.21-.28-.42-.42-.63h-2.63c-.11-.21-.21-.42-.32-.63-.81.04-1.61.07-2.42.11-.14-.21-.28-.42-.42-.63h-2.1c-1.73-.89-2.39-1.17-5.46-1.16-.25.48-.63.95-1.16,1.16v.74c.36.2.35.13.53.53h2c.14.21.28.42.42.63h1.37c.14.21.28.42.42.63.42-.04.84-.07,1.26-.11.14.21.28.42.42.63h2c.11.21.21.42.32.63.81-.04,1.61-.07,2.42-.11.14.21.28.42.42.63h7.77c.07.18.14.35.21.53h1.47c.43.22,1.17.98,1.58,1.26.25-.04.49-.07.74-.11.43.23.67.98,1.16,1.26.25.52.24,1.49.21,2.31-.25.28-.49.56-.74.84-.53.04-1.05.07-1.58.11-.9-.99-3.8-.68-5.67-.63-.04.56-.07,1.12-.11,1.68.41.35,2.65,1.84,3.15,2,.75.23,1.98.13,2.52.53.61.44.52,1.55,1.26,1.89-.01,1.62-.51,1.78-.53,3.26.25.18.49.35.74.53,1.43.38,2.68-.75,3.78-1.16h.53c1.08-.06.86.39,1.37.63h2c.11.21.21.42.32.63.63-.04,1.26-.07,1.89-.11.14.21.28.42.42.63h2c.11.21.21.42.32.63.25-.04.49-.07.74-.11.39.17,1.21,1.1,1.58,1.26.62.27,1.5.21,2,.63h.11c1.23,1.25,2.59,4.18,4.2,5.04h.84c.4.21,1.51,1.58,2.1,1.79.42-.04.84-.07,1.26-.11.68.27,2.06,1.32,2.52,1.89.61.76.17,1.63.63,2.63.88,1.9,3.9,1.53,4.73,3.05h1.05c.16-.33.22-.68.21-1.26-.63-.63-1.26-1.26-1.89-1.89-1.51-.7-3.36-1.51-4.41-3.05-.94-1.36-.83-3.75-2.52-4.41-.42.04-.84.07-1.26.11-.42-.16-1.2-1.08-1.58-1.26h-.95c-.28-.39-.56-.77-.84-1.16h-.84c-1.63-1.17-2.5-4.35-4.31-5.15-.65-.29-1.07-.15-1.89-.53-.14-.21-.28-.42-.42-.63-1.19.04-2.38.07-3.57.11-3.5-1.37-8.45-1.86-8.41-6.93.33-.31.53-.5.74-.95,2.11-.39,3.8,1.09,4.94,1.68h3.68c.14.21.28.42.42.63h2.63c.28-.22.29-.23.42-.63,1.58.1,6.59,2.59,7.14,3.68.7,1.38.67,2.76,1.79,3.68.74.61,2.34.73,3.26,1.26.28.39.56.77.84,1.16,1.5.78,2.99,1.73,3.89,3.05.82,1.2.54,3.27,1.89,3.89,3.22,1.47,5.73,1.89,5.67,7.25,1.28,1.43,3.85,1.59,5.46,2.42.79.4.82,1.97,1.37,2.63-.17.89-.54,1.11-.53,2.42,1.15,1.23,3.09,1.21,3.99,2.63.46.72.24,1.86.63,2.63.77.7,1.54,1.4,2.31,2.1.71,1.39,1.29,3.05,2.63,3.78.25.52.24,1.49.21,2.31-.62.7-1.72,1.76-2.63,2.1-1.45.55-1.09-.52-2.21.53-.76-.13-.44-.45-.84-.63h-1.47c-.07-.18-.14-.35-.21-.53-1.53-.79-4.99.59-5.88.63-1.33-1.16-7.46-.68-8.09.32-.11.11-.21.21-.32.32,1.61,0,1.39.23,2.21.63h1.37c.14.21.28.42.42.63,2.22.81,5.37-1.57,7.14-.63.11.21.21.42.32.63,2.73-.04,5.46-.07,8.2-.11l.32.63h3.26c.8.43,1.46,1.47,2.42,1.89v1.79c-1.08.52-1.51.79-3.26.74-.3.46-.71.94-1.26,1.16v1.16c1.83,2.07,2.56.37,4.83,1.26.92.36,1.41,1.08,2.52,1.26.23,1.01.61,1.17.63,2.31-.74.87-1.56,1.47-3.15,1.47h-1.37c-.54.33-.09.63-1.05.53-.04.46-.07.91-.11,1.37.41.21.42.21.63.63,1.45-.12,2.41-.64,4.83-.63.6.88,2.92,2.61,2,4.73-.39.9-1.1,1.14-1.16,2.63,3.22,2.18,3.56,3.64,3.47,9.14,1.04,1.16,1.47,2.68,2.31,4.1-1.47,2.37-.28,3.72.53,5.46v6.62c.21.14.42.28.63.42.29.74.19,1.29.42,1.79.07.04.14.07.21.11,3.55-3.27-1-6.56.11-8.93Z"/>
      <path class="cls-1" d="M50.15,23.64c.21.07.42.14.63.21.74-1.17,2.39-1.12,3.57-1.79.67-.38,1.03-1.37,1.79-1.79v-1.89c1.03-1.16,2.41-2.65,3.68-3.26,1.22-.59,5.59.06,6.62-.53.11-.21.21-.42.32-.63.42.04.84.07,1.26.11.14-.21.28-.42.42-.63h1.47c.88-.59,1.88-1.17,3.47-1.16-.09-3.54,1.33-3.61,3.26-4.52.25-.25.49-.49.74-.74.39.04.77.07,1.16.11.51-.27.19-.63,1.26-.63.43.39.34.64,1.05.53.52.48.47,1.47.42,2.52-1.57,1.1-2.69,2.25-4.41,3.05-.07.25-.14.49-.21.74,2.96.82,4.09-1.04,5.78-1.68.9-.34,1.48-.02,2.42-.53.77-.41,1.25-1.63,1.89-2.21.56-.5,2.88-.91,3.36-1.26.58-.42,1.26-1.21,2.1-1.05.54-.32,3.34-2.02,4.94-1.26.73.35,1.39,1.4,2.1,1.79,2.31-.04,4.62-.07,6.93-.11.38.1.29.5.53.63.76.43.76-.16,1.16.63h3.47c.11-.21.21-.42.32-.63.25.04.49.07.74.11l.74-.74c.35.04.7.07,1.05.11.14-.21.28-.42.42-.63.63.04,1.26.07,1.89.11.11-.21.21-.42.32-.63.36-.19,5.24-.91,6.2-.53.28.28.56.56.84.84.04.67.07,1.33.11,2-1.3,1.28-2.99,3.19-5.15,3.26-.04.21-.07.42-.11.63,2.74.72,4.62-.78,7.56-.42,1.76-2.64,6.49-4.19,11.24-4.1.26.54.24,1.57.21,2.42-.63.72-2.3,2.06-3.36,2-.04.07-.07.14-.11.21v.42c1.69.65,4.94-.11,6.72.74.28.39.56.77.84,1.16.45.44.89.5,1.16,1.16h8.09c.14-.21.28-.42.42-.63.81.04,1.61.07,2.42.11.81-.34.17-.65,1.79-.63.04-.81.07-1.61.11-2.42-.79-.2-1.24-.19-2.1-.63l-.32-.63c-1.4.04-2.8.07-4.2.11-.14-.21-.28-.42-.42-.63h-3.15c-.11-.21-.21-.42-.32-.63-.42.04-.84.07-1.26.11-.8-.3-1.47-1.4-2.1-1.79h-.95c-.44-.28-.89-.87-1.37-1.16h-.95c-.51-.33-.81-1.39-1.37-1.68-1-.54-1.38-.16-2.42-.53-.29-.1-.24-.52-.42-.63h-1.47c-.14-.21-.28-.42-.42-.63-.37-.14-5.45.51-5.67.63-.28.15-.09.77-.74.63-.14-.21-.28-.42-.42-.63h-2c-.11-.21-.21-.42-.32-.63-.25.04-.49.07-.74.11-.14-.21-.28-.42-.42-.63-.89-.48-1.62-.22-2.42-.53-.14-.21-.28-.42-.42-.63-1.48-.77-4.02.63-5.25.63h-2.94c-.14-.21-.28-.42-.42-.63-1.25-.65-2.92.47-3.36.63h-4.94l-.32-.11c-.14.21-.28.42-.42.63-1.82.74-5.78-.78-6.51-1.16h-4.62c-.14.21-.28.42-.42.63-.63-.04-1.26-.07-1.89-.11-.11.21-.21.42-.32.63h-1.47c-.74.44-1.78,1.44-2.73,1.79-2.14-.04-4.27-.07-6.41-.11-.14.21-.28.42-.42.63h-2.52c-.14.21-.28.42-.42.63-.42-.04-.84-.07-1.26-.11-.49.6-.98,1.19-1.47,1.79-.25-.04-.49-.07-.74-.11-.35.42-.7.84-1.05,1.26-.25-.04-.49-.07-.74-.11-.39.2-1.16,1.08-1.58,1.26-.25-.04-.49-.07-.74-.11-.11.21-.21.42-.32.63h-3.78c-.14.21-.28.42-.42.63-.42-.04-.84-.07-1.26-.11-.11.21-.21.42-.32.63h-1.47c-.28.39-.56.77-.84,1.16h-.84c-1.86.99-2.46,4.1-4.31,5.15-.77.44-1.37.22-2,.53-.11.21-.21.42-.32.63-.78.42-1.39.21-2,.53-.11.21-.21.42-.32.63h-1.47c-.14.21-.28.42-.42.63-.42-.04-.84-.07-1.26-.11-.11.21-.21.42-.32.63-.69.32-1.77.11-2.42.42-.14.27-.19.37-.21.84.04.04.07.07.11.11,2.38-.34,6.54-1.65,7.88.95Z"/>
      <path class="cls-1" d="M274.68,25.43c.07.04.14.07.21.11.7-.14.59-.39,1.16-.63,0-1.66,1.14-4.57.53-5.88-.35-.74-1.74-2.68-1.05-4.2.35-.78,1.02-1.26,1.16-2.42.53-.04,1.05-.07,1.58-.11.14-.21.28-.42.42-.63h.32c.14.21.28.42.42.63h2c.11.21.21.42.32.63.25-.04.49-.07.74-.11.73.29,2.12,1.49,2.73,1.79h1.47c1.3.74,3.08,1.14,4.1,2.42.62.77.73,2.58,1.37,3.36,1.1,1.35,3.13,1.93,4.83,2.84,1.08.58,1.14,2.23,1.89,3.15-.06.61-.05.56-.53.74,0,2.84,1.97,4.64,3.99,5.46.03,1.77.64,2.3.63,4.41.98.4.65.78,1.16,1.68.5.89,2.33,1,2.84,2,.37.73.32,3.21.63,3.78.67,1.24,1.2,1.75,1.16,3.99-.28.27-.49.4-.63.84-.37.17-1.24-.05-1.58.11-1.02.46-1.84,2.02-2.73,2.42h-1.47c-.11.21-.21.42-.32.63,4.75.01,4.98,1.8,9.14,1.79.21-.5.63-.96,1.16-1.16,0-2.81-.59-2.4-1.16-3.99-.76-2.14,1.37-2.2,0-4.73-.62-1.14-2.23-1.84-2.84-3.15v-1.37c-.21-.18-.42-.35-.63-.53-.37-1.03-.05-1.55-.53-2.42-.29-.53-1.26-.92-1.68-1.37-1.83-1.91-2.97-3.26-2.94-7.14-1.7-1.88-3.54-3.38-3.47-7.04-.42-.17-.37-.07-.53-.53-1.88-.45-3.15-2.31-4.62-3.47-.53-.41-1.2-.12-1.68-.84-.94-1.4-1.48-3.69-3.05-4.41-.58-.27-1.7-.15-2.52-.53l-.42-.63c-.42.04-.84.07-1.26.11-.11-.21-.21-.42-.32-.63h-1.47c-.14-.21-.28-.42-.42-.63-.77-.26-1.69-.04-2.52-.53-1.15-.68-2.22-2.55-3.26-3.47h-.42c-1.09,1.64-1.01,4.74-2.84,5.67-.31.65-.24,1.97-.21,2.94.31.35.67.76,1.16.95-.02,3.58-1.7,3.95-1.68,7.77.74.47,1.65,1.12,1.68,2.31Z"/>
      <path class="cls-1" d="M263.85,9.25c-.48.26-.99.94-1.47,1.16h-1.47c-.11.21-.21.42-.32.63-1.02-.04-2.03-.07-3.05-.11l-.32.63h-4.2c-.39.35-.77.7-1.16,1.05-.15.31-.22.6-.21,1.16.21.28.42.56.63.84,4.37.08,7.57-.05,8.93-2.84,2.4-.48,6.17,1.83,4.83,4.73-.16.36-1.01,1.12-1.16,1.47-.56,1.33.58,1.92.63,2.94h.84c.31.32.23.46.74.63.5-.38.41-.62,1.37-.63.52-1.99-.58-2.76-1.05-3.89-.61-1.45.53-5.29.53-7.14-.57-.14-2.72-1.37-4.1-.63Z"/>
      <path class="cls-1" d="M205.75,22.59c.55-.58,7.89-2.34,9.14-2.21.04-.67.07-1.33.11-2,.36-.94,1.44-1.73,1.89-2.63h1.47c.14-.21.28-.42.42-.63.6.04,1.19.07,1.79.11l.74-.74c.77.04,1.54.07,2.31.11.11-.21.21-.42.32-.63,1.61-.73,3.46.52,4.52.63.46.91.77,1.56.74,2.94-.43.5-1.41,1.24-1.89,1.47h-2.63c-.14.21-.28.42-.42.63-.6-.04-1.19-.07-1.79-.11-.11.21-.21.42-.32.63-.21.11-3.7.53-3.78.53-.17.45-.18.46-.63.63v.74h.84c.14.21.28.42.42.63h2.73c.14-.21.28-.42.42-.63h2c.76-.41,1.26-1.19,2-1.68h.84c.53-.56,1.05-1.12,1.58-1.68,1.09-.04,2.17-.07,3.26-.11.85.83,1.2,3.81,2,4.2.51.96,2.64-.89,3.15-1.47.62-.7.6-1.7,1.16-2.52.74-.67,1.47-1.33,2.21-2v-1.26c.46-1.24,1.9-2.64,2.94-3.36v-.53c-.6-.04-1.19-.07-1.79-.11-.59.54-1.6,1.3-1.89,2.1-.47.22-1.6-.08-2.21.21-.07.18-.14.35-.21.53-1.68.04-3.36.07-5.04.11-.28-.1-.25-.53-.42-.63h-2c-.14-.21-.28-.42-.42-.63h-1.26c-.53-.56-1.05-1.12-1.58-1.68-3.79,0-6.99-.05-9.25,1.16-1.85.99-2.43,4.14-4.31,5.15-1.04.56-2.07.18-3.05.53-.14.21-.28.42-.42.63h-2c-.76.39-1.02,1.09-2.31,1.16-.04.6-.07,1.19-.11,1.79.18.18.35.35.53.53.07.04.14.07.21.11Z"/>
      <path class="cls-1" d="M152.17,21.33c-.04.21-.07.42-.11.63,1.35.49,2.19.41,3.99.74.14-.21.28-.42.42-.63h3.47c.11.21.21.42.32.63.63-.04,1.26-.07,1.89-.11.14.21.28.42.42.63.53-.04,1.05-.07,1.58-.11.91.15.47.64,2.1.63.51.82,1.33,1.19,1.89,1.89.68.85.6,2.78,1.16,3.68.28.64-.11.92-.42,1.26l.42.42c-.15.76-.44,1.75-.63,2.84-2.37.46-3.58,1.29-6.3,1.26-.14-.21-.28-.42-.42-.63h-2.21c-.11.21-.21.42-.32.63h-2.1c-.11.21-.21.42-.32.63-.63-.04-1.26-.07-1.89-.11-.11.21-.21.42-.32.63h-3.26c-.67.38-1.55,1.09-2.94.53-.53-.56-1.05-1.12-1.58-1.68h-5.25c-.11.21-.21.42-.32.63h-4.94c-.51-.18-1.38-.98-1.89-1.26-.2-.42-.24-1.09-.21-1.79,1.58-1.1,5.41-2.06,8.62-2,.44-1.09,1.96-1.86,3.36-1.68-.53-.6-1.05-1.19-1.58-1.79-1.53-.65-3.9.57-5.15,1.05-1.48.57-2.73-.26-4.2.53-1.44.77-1.76,3.25-3.15,3.99-3.03,1.63-6.44,2.53-9.46,3.99-1.55.75-1.19,3.84-2.63,4.62-.72.39-1.64.27-2.1.63-.33.26-1.1,1.01-1.47,1.16-.25-.04-.49-.07-.74-.11-.31.16-.55.95-.84,1.16-.35.07-.7.14-1.05.21-.68.62-1.29,2-1.68,2.84v1.37c-.21.4-6.57,4.27-7.35,4.2-.04.28-.07.56-.11.84-.75.63-.07.48,0,1.68-.68.86-.15.93-.63,1.89-.65,1.29-3.25,2.52-4.41,3.05-.55.25-.86,1.45-1.26,1.89.14.92.53.95.53,2.21.21.07.42.14.63.21,1.57-2.36,5.63-2.03,8.09-3.57.97.06.67.38,1.16.63h1.47c.11.21.21.42.32.63h1.58c.6-.56,1.19-1.12,1.79-1.68-.18-.28-.35-.56-.53-.84-1.89.05-3.73,0-4.41-.84-.04-.7-.07-1.4-.11-2.1,1.01-.86,2.41-1.55,3.78-2.1.6.04,1.19.07,1.79.11.14-.21.28-.42.42-.63h5.46c.68-.36,1.46-1.13,2.94-.53,1.02.57,1.43,1.7,2.1,2.63-.04,1.36-.79,1.91-1.26,2.84h-2c-.14.21-.28.42-.42.63h-2.52c-.57.28-.19.6-1.16.53-.04.21-.07.42-.11.63.39.42.77.84,1.16,1.26,2.75.61,6.85-.84,7.67-2.31.45-.81.3-1.52.63-2.42.29-.53,3.69-2.49,4.31-2.73.9-.34,1.74,0,2.52-.63,1.89-1.5,2.87-4.04,4.73-5.57.35-.04.7-.07,1.05-.11.75-.59,1.8-1.34,2.52-1.68h1.47c.46-.28.9-.9,1.37-1.16h.95c.11-.21.21-.42.32-.63.25.04.49.07.74.11l.32-.63h.95c1.19-.8,1.31-3.34,2.52-3.99,1.05-.56,2.04-.19,3.05-.53l.74-.74c.56.04,1.12.07,1.68.11.14-.21.28-.42.42-.63.6.04,1.19.07,1.79.11.14-.21.28-.42.42-.63h2c.07-.18.14-.35.21-.53h1.47c1.62-.73,1.93-1.81,4.52-1.79.81-.67,1.59-1.68,2-2.73,1.87-.67,6.99-1.45,9.98-.63.28-.21.56-.42.84-.63v-2.42l-1.26-1.26h-1.47c-.07-.18-.14-.35-.21-.53h-2c-.11-.21-.21-.42-.32-.63-.65-.27-2.2.02-3.15-.53-1.04-.59-.8-2.85-1.37-3.99-1.01-2.03-4.55-2.43-5.78-4.62-2.39,0-3.08-.36-5.15-.63-.07.18-.14.35-.21.53-1.08.3-2.02.26-2.73.63-.31.16-.55.95-.84,1.16h-.84c-1.12.52-1.22,1.72-2.94,1.79ZM134.2,48.54c-1.59,1.84-2.59,1.53-4.52,2.63-.11.21-.21.42-.32.63-.63-.04-1.26-.07-1.89-.11-.32.13-.5,1.07-1.47.63-.11-.21-.21-.42-.32-.63-.63.04-1.26.07-1.89.11-.14-.21-.28-.42-.42-.63-.95-.45-1.22.5-1.58.63h-3.68c-.49-.53-.98-1.05-1.47-1.58v-1.37c1.06-1.99,9.3-3.16,13.03-2.63.11-.21.21-.42.32-.63h3.36c.33.32.35.54.84.74v2.21ZM145.02,42.55h-3.26c-.61.36-5.42,2.8-6.51,2.31-.49-.22-1-.91-1.47-1.16h-4.31c-.14-.21-.28-.42-.42-.63h-1.79c-.33-.19-.67-.6-.84-.95v-2.1c1.55-.72,4.28-1.09,5.88-1.89h8.41c.11-.21.21-.42.32-.63,1.06-.48,1.05.41,1.68-.53h3.89c.46.49.91.98,1.37,1.47.04.7.07,1.4.11,2.1-1.02.7-2.06,1.47-3.05,2Z"/>
      <path class="cls-1" d="M249.98,21.54c.2-.63.29-.85.63-1.26-.36-.48-.82-1.22-1.05-1.79-1.16-.04-2.31-.07-3.47-.11-1.05,1.48-1.96,1.95-1.89,4.73,1.5.24,3.75-1.82,5.78-1.58Z"/>
      <path class="cls-1" d="M61.81,20.28c-.25-.21-.49-.42-.74-.63-.14.25-.28.49-.42.74h1.16v-.11Z"/>
      <path class="cls-1" d="M60.76,64.2c1.16-.57,3.45-2.47,4.52-2.52.04-1.61.07-3.22.11-4.83,1.05-1.23,4.05-3.82,6.2-3.78.04-.18.07-.35.11-.53-.92-1.08-1.22-1.54-1.16-3.78.53-.36.79-1.03,1.26-1.37.35-.04.7-.07,1.05-.11,1.25-.98,2.58-1.5,3.99-2.31-.04-1.52-.53-2.29-.53-4.2,1.05-1.21,2.47-1.3,3.89-2,.28-.39.56-.77.84-1.16h.84l1.26-1.26c.04-1.19.07-2.38.11-3.57.55-1.01,6.59-3.75,7.88-4.31-1.54-4.51,2.62-4.95,4.73-7.14v-.42c-.21-.25-.42-.49-.63-.74-1.81,0-1.37.32-2.21.63-.42-.04-.84-.07-1.26-.11-.11.21-.21.42-.32.63h-3.47c-.11-.21-.21-.42-.32-.63h-2.84c-.11.21-.21.42-.32.63h-3.78c-.21.25-.42.49-.63.74.24.94.66,1.39.63,2.94-.4.33-.96,1.26-1.37,1.47h-1.47c-.07.18-.14.35-.21.53h-1.47c-.59.28-1.56,1.29-2.1,1.68-.74.04-1.47.07-2.21.11-.25-.32-.49-.63-.74-.95-.66-1.55.43-4.14,1.26-4.62h.95c.88-.56,1.23-1.89,2.31-2.31v-.74c-2.27,0-5.05.44-6.41,1.16-.86.45-.72,1.27-1.26,2.1-.66,1.02-5.38,4.34-6.62,4.83-.95-.04-1.89-.07-2.84-.11-.76-2.07-2.67-1.74-4.1-1.68h-1.37c-.3.21-.34,1.01-1.26.63-.4-.17-1.2-1.1-1.58-1.26-1.8-.77-6.5,2.96-7.56,3.57v3.68c-1.86,1.3-3.69,3.81-6.72,3.78.49.53.98,1.05,1.47,1.58.04.88.07,1.75.11,2.63-.67.56-1.22,1.51-1.89,2h-.84c-.79.38-1.82,1.26-2.42,1.89.04,1.54.53,2.7.53,4.73-.53.59-4.52,3.19-5.57,3.26,2.73,3.69,1.64,5.51-1.89,7.46-.04,1.53-.11,3.08.53,3.89-.33,1.75-2.62,3.96-3.99,4.73.06,2.1,1.12,2.4,1.05,4.73-1.08,1.4-5.43,3.57-2.73,6.83-.34,2.64-2.91,3.82-2.94,6.83.77.04,1.54.07,2.31.11.95-.85,1.4-2.31,2.52-2.94v-.42c-.39-.35-.77-.7-1.16-1.05v-2.84c.95-.42,1.43-.46,1.89-1.37h3.68c.89-.85,2.02-1.73,3.05-2.42v-.42c-.25-.28-.49-.56-.74-.84h-.95c-.14.21-.28.42-.42.63h-2.94c-.28-.59-.71-1.05-1.26-1.37v-1.47c1.49-1.65,3.81-3.35,6.51-1.47,1.12-.78,1.92-.59,3.15-1.26.47-.26.82-1.37,1.16-1.79-.34-.39-.49-.39-.53-1.16-.88-.27-1.01-.63-1.26-.74h-3.57c-.48-.33-.36-1.51-.32-2.31.21-.25.42-.49.63-.74,1.03-.49,3.43.35,4.41-.11,2.3-1.06,2.94-1.83,6.62-1.79,1.63,3.27-.09,5.88-2.63,7.35-.04,1.17.06,1.63.53,2.21.03,1.9-1.68,4.61-2.84,5.25.03,2.73.71,4.25-.11,5.99,0,0-2.62,1.89-2.63,1.89v.32h2.73c.28-.27.19-.36.63-.53.42-1.64.26-2.59.84-3.89,1.33-1.18,2.34-.57,3.26-2.52.57-1.22-.18-3.51.63-4.94.45-.79,1.35-.9,2.21-1.37.05-.02,2.37-3.44,2.42-3.57.19-.57-.45-.86-.63-1.16.33-3.58,3.05-3.31,4.2-5.57h2.21c.81.77,1.61,1.54,2.42,2.31.25.52.24,1.49.21,2.31-1.25,1.43-2.91,1.79-4.52,2.63-.04.6-.07,1.19-.11,1.79.61.4,1.34,1.03,1.68,1.68.07.04.14.07.21.11.32-.35.63-.7.95-1.05,1.09-.04,2.17-.07,3.26-.11.35.42.7.84,1.05,1.26.79-.18,4.15-1.95,4.52-2.52.72-1.79-1.17-2.55-.53-4.1.22-.52.58-.28.63-1.26ZM62.96,38.14c.75-.4.38-1.1,1.68-1.16.3-.97.01-1.7-.42-2.21.71-4.45,3.97-3.13,5.36-5.25h2.84c.39.69.67,1.16,1.79,1.16.29.77.25,2.23.11,3.15-.7.21-.97.55-1.37.74-.42-.04-.84-.07-1.26-.11-.14.21-.28.42-.42.63h-1.47c-.86.5-2.05,1.75-3.36,1.68-.25,1.44,1.83,2.6.95,4.83-.53,1-5.95,3.3-7.56,3.26-.39-.64-.86-1.45-1.37-2,.46-3.01,2.28-3.51,4.52-4.73ZM52.14,31.42c2.11-.95,4.52-.89,6.09-2.52,1.21.07.93.56,2.1.63,2.03,4.02-6.17,9.07-8.72,5.25-.04-.88-.07-1.75-.11-2.63.31-.25.48-.29.63-.74ZM45.84,40.24c.55-1.06,3.46-2.15,5.04-2.1.28-.39.56-.77.84-1.16h1.68c.41.62.88,1.42,1.37,2-.39,2.69-2.59,4.12-4.31,5.25h-2.63c-.63-.6-1.26-1.19-1.89-1.79-.21-.42-.36-1.65-.11-2.21ZM45.42,52.85c-.67.04-1.33.07-2,.11v.11c.53.46,1.05.91,1.58,1.37.05,4.67-2.39,3.56-3.57,5.88-.95.04-1.89.07-2.84.11-.8-.98-1.84-1.09-2.52-2.1-.04-.49-.07-.98-.11-1.47,1.11-.95,2.5-2.06,3.68-2.63h1.47c.88-.46.43-1.17,2.1-1.16v-.11c-1.04-1.41-2.16-2.02-2.1-4.62.93-.93,2.69-2.37,4.52-2.1.11-.21.21-.42.32-.63.95.04,1.89.07,2.84.11.21.18.42.35.63.53,1.67,3.54-3,4.79-3.99,6.62ZM49.52,60.41c-.32-.46-.5-1.07-.84-1.47.54-3.41,3.27-4.03,4.83-5.88,1.12,0,1.43.38,2.1.63,1.13.66,1.55,2.19,1.47,4.1-2.04,1.44-3.93,2.69-7.56,2.63ZM58.24,65.77c-.21.25-.42.49-.63.74-.52.25-1.49.24-2.31.21-.07-.11-.14-.21-.21-.32-.04-.7-.07-1.4-.11-2.1.28-.32.56-.63.84-.95,1.28.05,1.03.56,2.21.63.2.42.24,1.09.21,1.79ZM58.87,51.17c-1.4.87-1.54,1.2-4.31,1.16-.18-.38-.15-.43-.53-.63-.31-.65-.24-1.97-.21-2.94.81-.54,3.2-2.37,3.68-3.15,3.56-.04,3.18.74,5.15,1.79.25.52.24,1.49.21,2.31-.31.25-.48.29-.63.74-.37.18-1.12-.02-1.47.11-.14.21-.28.42-.42.63h-1.47Z"/>
      <path class="cls-1" d="M95.85,56.74s3.01-2.5,3.05-2.52h.95c.72-.46.37-1.1,1.68-1.16.15-.53.07-.8.53-1.05-.14-.41-.2-.36-.42-.63.03-.92.28-1.69.63-2.52.32-.61,6.33-3.82,6.72-3.78.31-1.17.18-3,.74-3.89.68-1.09,5.89-3.4,7.35-4.2,1.25-.69,1.63-4.33,3.15-5.15,2.29-1.23,4.9-1.77,7.14-2.84.88-.42.86-2.12,1.58-2.73.07-.11.14-.21.21-.32-4.05-.74-6.67,1.81-10.82,1.05-.62.64-1.25.69-2.63.63-.14-.21-.28-.42-.42-.63h-2.21c-.11.21-.21.42-.32.63h-2.42c-.96.04-.71.45-1.26.63-.72.23-3.1-1.13-3.36-1.58-.04-.67-.07-1.33-.11-2,.76-.65,1.67-1.72,2.63-2.1.6.04,1.19.07,1.79.11.76-.3,1.99-1.23,2.94-1.16.04-.46.07-.91.11-1.37h-6.41c-.07.18-.14.35-.21.53h-.11s-2.38.62-2.52.63c-1.04,3.39-4.6,4.96-7.25,6.3-1.41.72-2.28.61-3.15,1.89-.41,1.13-.07,2.32-.74,3.15-.74.93-5.14,4.15-6.09,4.1-.81,3.16-.21,3.92-2.84,5.15-.35.42-.7.84-1.05,1.26-.25-.04-.49-.07-.74-.11-.81.81-1.61,1.61-2.42,2.42.07,6.13-3.82,4.42-5.36,7.35h-1.47v.11c.28.25.56.49.84.74.31.65.24,1.97.21,2.94-1.3.83-5.89,5.08-4.62,6.51-.17,3.8-3.48,4.85-3.47,8.72.21.07.42.14.63.21.48-.79,4.16-2.38,5.25-2.31.5-1.77-.13-3.77.74-5.04,1.05-1.55,3.64-1.12,4.83-2.52.6.11.53.17.74.63h7.25c.11.21.21.42.32.63.25-.04.49-.07.74-.11.17.08,1.44,1.21,1.58,1.26.77.3,3.37-.92,3.89-1.16,1.01-.46,3.06-3.01,3.57-4.1.49-1.04.12-1.71.63-2.63ZM97.64,32.78c.52-.96,5.08-2.95,6.62-2.63.14-.21.28-.42.42-.63.83.11.5.46.95.63h1.47c.07.18.14.35.21.53.07.03,4.15-.63,5.36-.63.46.53.91,1.05,1.37,1.58v1.37c-1.43,2.67-8.35,2.63-12.71,2.63-.61,0-.71,1.09-1.79.63-.33-.14-1.65-1.12-1.89-1.58v-1.89ZM95.64,37.51c1.35-.05,2.6.43,3.05,1.26,2.3-.35,4.8-1.21,6.09.84.04.49.07.98.11,1.47-1.38,1.19-4,2.63-6.41,2.63-.14-.21-.28-.42-.42-.63h-2.84c-.11.21-.21.42-.32.63h-1.47c-.14.21-.28.42-.42.63-1.16.43-2.04-.49-2.84-.74-.04-.95-.07-1.89-.11-2.84,1.59-1.34,4.1-1.7,5.57-3.26ZM89.86,57.89c-1.07.51-3.77,2.65-4.52,1.26-2.53.34-3.72.65-6.62.63-.18-.38-.15-.43-.53-.63-.25-.52-.24-1.49-.21-2.31.96-.8,1.98-1.73,2.94-2.52.59-.49,1.26.03,2-.74.66.16.36.43.74.63h1.47c.11.21.21.42.32.63,1.19-.04,2.38-.07,3.57-.11.28.32.56.63.84.95v2.21ZM92.07,51.17c-2.27,0-4.87.26-5.88,1.16-1.06-.16-1.58-.88-2.42-1.37v-2.21c1.17-.79,2.81-1.6,3.78-2.63,3.24,0,4.86.64,8.41.63.21.21.42.42.63.63.2.42.24,1.09.21,1.79-.92.63-1.61,1.59-2.52,2h-2.21Z"/>
      <path class="cls-1" d="M4.76,87.52h1.47c.11.21.21.42.32.63h1.58c.93-.85,2.15-1.81,3.15-2.52-.07-4.1.82-6.5,3.36-7.88.04-1.86.07-3.71.11-5.57.95-.84,1.89-1.68,2.84-2.52.03-1.92-.11-4,.53-5.36.65-1.4,4.86-3.12,2.94-5.36.52-2.97,3.13-3.43,3.99-5.67.38-.19.92-.23,1.58-.21-.4-.53-1.36-1.51-1.58-2.1-.48-1.31,3.79-5.53,4.62-5.99v-3.68c1.38-.92,3.42-2.83,4.2-4.31h1.79c.04-.07.07-.14.11-.21-.64-.52-.98-1.33-1.47-2,.38-1.86,1.67-3.63,2.94-4.62.43-.34,1.74-.35,2.21-1.26.38-.74.27-1.98.53-2.84.2-.67.61-.63.63-1.79-.21-.04-.42-.07-.63-.11-1.31,2.13-5.18,2.4-6.41,4.62-.99,1.79-1.39,4.22-3.15,5.15-1.25.66-3.16,1.8-3.78,2.94-.39.73-.25,1.94-.63,2.63-.96,1.72-3.23,4.31-4.94,5.25-.27.6.14,1.99-.21,2.73-1.18,2.49-2.76,3.89-5.15,4.83,0,2.3.53,3.09.53,5.46-1.53,1.07-3.34,1.71-5.04,2.52-.22.88-.2,1.34-.63,1.89.47.46,1.43.95,2,1.26.25.52.24,1.49.21,2.31-1.07,1.27-2.11,1.56-4.52,1.47-.3.57-.72,1.52-1.26,1.89v1.58c.5.21,1.69.13,2.63.11l1.26,1.26c.2.42.24,1.09.21,1.79-.49.46-.98.91-1.47,1.37h-3.99c-.49.42-.98.84-1.47,1.26v2.31c1.26.07,2.52.14,3.78.21.21.18.42.35.63.53.25.52.24,1.49.21,2.31-1.53,1.32-2.44,1.54-5.57,1.47-.25.21-.49.42-.74.63v2.94h1.89c.14.21.28.42.42.63Z"/>
      <path class="cls-1" d="M235.7,38.56c.62-1.74,2.76-2.45,3.47-3.89.45-.92.2-2.21.63-3.15.24-.53,1.48-1.8,1.89-2.52.76-.12.76-.22,1.37-.53.31-.65.24-1.97.21-2.94-.14-.11-.28-.21-.42-.32-.58.48-1.77.72-2.1,1.37-.35.69-.17,1.18-.74,1.58h-.84c-.81.81-1.61,1.61-2.42,2.42-.46.99-.24,3.53-.63,4.31-.64,1.28-2.22,2.02-2.84,3.15-1.25,2.31-1.52,5.51-3.89,6.72-.9,1.96,1.19,2.92.42,4.94-.42,1.1-1.17,1.37-1.16,3.26.75.2.95.08,1.26.74h1.68c.11-.21.21-.42.32-.63h2c.18-.21.35-.42.53-.63h4.83c.14.21.28.42.42.63h15.76c.38.15.13.61.74.63h6.51c.11-.21.21-.42.32-.63h1.89c.7-.62.33-1.11.84-2,.56-.53,1.12-1.05,1.68-1.58.64-1.38.56-3.78.53-5.78-.25-.18-.49-.35-.74-.53-.7-.04-1.4-.07-2.1-.11-.25.32-.3.46-.74.63.03,3.06,1.6,4.29,1.05,7.25-.65.29-.99.27-1.37.84-1.92,0-1.49-.12-2.52-.63h-2c-.11-.21-.21-.42-.32-.63-1.02.04-2.03.07-3.05.11-.14-.21-.28-.42-.42-.63h-6.3c-.14.21-.28.42-.42.63h-3.26c-.11-.21-.21-.42-.32-.63h-9.14c-.14.21-.28.42-.42.63-1.03-.17-2.04-.83-2.84-1.26-1.26-2.81,1.36-5.67,2.1-7.35.48-1.1.1-2.28.53-3.47Z"/>
      <path class="cls-1" d="M198.08,30.15c.14-.21.28-.42.42-.63h3.78c.41-.21,1.75-1.21,3.05-.63.18.08,1.43,1.2,1.58,1.26.43.18,7.19-1.02,7.46-1.16.39-.46.77-.91,1.16-1.37.04-.53.07-1.05.11-1.58-1.74-.7-4.39.46-5.67,1.05h-4.41c-.28-.35-.56-.7-.84-1.05-1.54-.07-3.08-.14-4.62-.21-1.07,1.34-2.76.91-4.2,1.79-.47.28-.54.9-1.16,1.16v1.26l.11.11h3.26Z"/>
      <path class="cls-1" d="M266.8,26.48h-1.79c-.69,2.59.47,3.64,1.05,5.04.48,1.15-.32,2.6-.53,3.05-.56,1.25.7,3.33,1.05,3.99.18.07.35.14.53.21.28-.21.56-.42.84-.63,0-1.78-1.48-4.42-1.16-5.36.66-1.92,1.79-1.17,1.79-4.41-.6-.49-1.46-1.15-1.79-1.89Z"/>
      <path class="cls-1" d="M314.08,32.57c-.57-1.04-.54-2.34-1.26-3.26-1.05-1.34-3.15-2.08-5.15-2.31-.2.79.21.59.42,1.05.51,1.11.81,2.81,1.89,3.26.76.31,1.59.47,2.1,1.26.53.81.64,3.29,1.16,4.31.77,1.52,2.78,2.4,3.47,3.78v1.37c.21.14.42.28.63.42v1.37c.18.11.35.21.53.32v1.37c.55,1.11,2.35,1.42,2.84,2.31.07.04.14.07.21.11v-4.62c-1.78-1.96-2.91-2.93-2.84-6.93-1.33-1.26-2.66-2.52-3.99-3.78Z"/>
      <path class="cls-1" d="M228.13,27.63c-.26.5-.66.9-1.16,1.16v2.31c.21.25.42.49.63.74h2.73c.39-.35.77-.7,1.16-1.05.32-.67.24-2.05.21-3.05-1.19-.04-2.38-.07-3.57-.11Z"/>
      <path class="cls-1" d="M152.8,30.68v-.74h-1.37c-.14-.21-.28-.42-.42-.63h-2.84v.11c.84,1.09,2.36,1.34,4.62,1.26Z"/>
      <path class="cls-1" d="M273.52,52.95c.73.22,3.81,1.71,4.73,1.26.14-.21.28-.42.42-.63.42.04.84.07,1.26.11.11-.21.21-.42.32-.63h1.47c.23-.12.07-.39.42-.53.11-.04.21-.07.32-.11.14.21.28.42.42.63h2c.11.21.21.42.32.63.84.39,4.12-.63,5.67-.63h2.1c.11.21.21.42.32.63,1.58-.04,3.15-.07,4.73-.11.57.22.38.6,1.47.63.59-.57,1.54-1.25,2.31-1.68v-.11c-.14-.21-.28-.42-.42-.63-1.94-.37-3.74-1.01-5.25-1.79-1.59-.82-4.6.63-5.88.63-2.63-.04-5.25-.07-7.88-.11-.11.21-.21.42-.32.63h-3.47c-.97-.44-2.4-1.21-3.47-1.79-1.28-2.9,2.64-4.96.42-7.67.23-1.28,1.94-5.16,1.05-7.14-.59-1.32-1.74-2.73-2.31-4.1h-.63c-.87,1.66-.22,9.36,1.05,10.82-.13.69-.33.38-.53.74v1.89c-.21.18-.42.35-.63.53-.27.7.63,1.77.63,3.05,0,1.59-.29,1.32-.63,2.1v3.36Z"/>
      <path class="cls-1" d="M195.35,38.14h.84c.59.32,1.09,1.36,1.68,1.79,1.11-.31,1.69-.95,2.52-1.26.83-.31,1.48-.06,2.42-.53l1.05-1.05c.17-.34.23-.76.21-1.37-.04-.04-.07-.07-.11-.11-.95.13-6.88.76-7.14.63-.11-.21-.21-.42-.32-.63h-.95c-1.23-.98-.32-.89-2.42-1.16-.2.42-.24,1.09-.21,1.79.83.71,1.56,1.41,2.42,1.89Z"/>
      <path class="cls-1" d="M180.22,35.93s-2.83,2.1-2.84,2.1v.63c.13.02,2.62.57,2.73.63.11.21.21.42.32.63h1.26c.34.2.67.58.84.95v2.1c-.4.18-4.34,1.66-5.15,1.37-.14-.21-.28-.42-.42-.63h-2c-.48-.21-.99-.91-1.47-1.16h-4.52c-2.28,0-3.71.56-5.04,1.16h-2.52c-.14.21-.28.42-.42.63-.42-.04-.84-.07-1.26-.11-.32.12-1.15.95-1.47,1.16h-.84c-1.39.64-3.43,2.21-3.68,3.99-1.05.21-2.82.72-3.78,1.16-.14.21-.28.42-.42.63-.99.42-2.28.21-3.05.53-.4.17-1.25,1.1-1.68,1.26-.6.23-2.42.19-3.05.53-.42.22-.66.89-1.16,1.16v3.05c-.87.66-2.64,1.34-3.15,2.1h-.21c.95.07,1.89.14,2.84.21.92-3.22,3.23-3.18,5.78-4.62.49-.28.98-.93,1.47-1.16h1.37c.14-.21.28-.42.42-.63.42.04.84.07,1.26.11.14-.21.28-.42.42-.63,2.88-1.2,5.73,2.51,8.3,1.16.14-.21.28-.42.42-.63,1.37.04,2.73.07,4.1.11.63-.25,1.5-1.12,2-1.58.28-.26.46-.18.84-.11.04-.07.07-.14.11-.21-.18-.21-.35-.42-.53-.63h-3.47c-.14.21-.28.42-.42.63h-3.78c-.55-.2-.28-.56-1.26-.63-.26-.54-.24-1.57-.21-2.42.53-.35.98-.76,1.26-1.37h1.47c.11-.21.21-.42.32-.63h2.63c.14-.21.28-.42.42-.63.98.04,1.96.07,2.94.11.11-.21.21-.42.32-.63h1.47c.14-.21.28-.42.42-.63h.84c.14.21.28.42.42.63h2.1c.11.21.21.42.32.63,2.24-.04,4.48-.07,6.72-.11,4.59.04,9.18.07,13.76.11h.11c.04-.6.07-1.19.11-1.79-1.96-2.17-5.21-2.82-5.15-7.04-.81-.35-1.62-1.45-2.42-1.79h-4.52c-.07.11-.14.21-.21.32Z"/>
      <path class="cls-1" d="M220.04,46.02c.21.25.42.49.63.74,1.53,0,1.86-.58,2.84-.53.48-1.43.77-2.71.74-4.94.7-.63,1.4-1.26,2.1-1.89.32-.67.24-2.05.21-3.05-.81-.04-1.61-.07-2.42-.11-1.3,2.05-1.33,1.9-1.26,5.46-.95.88-1.89,1.75-2.84,2.63v1.68Z"/>
      <path class="cls-1" d="M347.17,45.18c.07-.11.14-.21.21-.32-1.02-.6-2.53-1.18-3.68-1.68-.14.21-.28.42-.42.63.7.78,2.4,1.53,3.26,1.89.21-.18.42-.35.63-.53Z"/>
      <path class="cls-1" d="M336.45,50.54c-.89.36-2.61,2.15-4.83,1.26-.4-.16-1.22-1.1-1.58-1.26-.46.04-.91.07-1.37.11-.11-.21-.21-.42-.32-.63-1.72.04-3.43.07-5.15.11-.53-.11-.5-.58-1.16-.74-.55.82-1.27,1.73-1.79,2.52-.04.35-.07.7-.11,1.05,1.47.04,2.94.07,4.41.11.11.21.21.42.32.63.42-.04.84-.07,1.26-.11.14.21.28.42.42.63h4.52c.53-.44,1.21-.99,1.47-1.68,1.12-.04,2.24-.07,3.36-.11.14.21.28.42.42.63h1.47c.11.21.21.42.32.63h12.61c.18-.18.35-.35.53-.53.17-.34.23-.76.21-1.37-1.15-.15-2.96-.73-3.57-1.79-1.17-.03-4.02.65-4.31,1.16-1.32,0-5.65-1.24-7.14-.63Z"/>
      <path class="cls-1" d="M186.73,55.37c.14-.21.28-.42.42-.63,2.28-.85,9.25,1.05,9.98.63.48-.28.96-.75,1.58-1.05.54-1.19-.38-1.66-.42-3.15-.37-.15-.48-.55-.74-.63-.42.04-.84.07-1.26.11-.11-.21-.21-.42-.32-.63h-3.99c-.86.05-.56.44-1.05.63-.63-.04-1.26-.07-1.89-.11-.11.21-.21.42-.32.63h-2c-.14.21-.28.42-.42.63-.63-.04-1.26-.07-1.89-.11-.11.21-.21.42-.32.63h-2.63l-.42.63c-.77-.04-1.54-.07-2.31-.11-.14.21-.28.42-.42.63h-2c-.14.21-.28.42-.42.63-.81-.04-1.61-.07-2.42-.11-.69.32-.24.63-1.79.63-.04,1.97-1.13,2.7-1.16,4.62.18.21.35.42.53.63.6.04,1.19.07,1.79.11,1.05-1.69,3.19-1.49,3.68-3.99,1.08-.19,1.61-.9,2.52-1.26,2.23-.88,6.52,1.22,7.67.63Z"/>
      <path class="cls-1" d="M208.59,50.01h-4.62c-.97,1.71-.27,1.15-.11,2.94,1.47.04,2.94.07,4.41.11.11.21.21.42.32.63h9.77c.11-.21.21-.42.32-.63h2c.04-.81.07-1.61.11-2.42h-11.77c-.14-.21-.28-.42-.42-.63Z"/>
      <path class="cls-1" d="M226.03,60.41c-.9.35-.8-.08-1.79.42-1.36,3.11.95,5.8-2.31,7.46-.21.43-.24,1.17-.21,1.89.18.18.35.35.53.53.45.2,1.68.13,2.42.21l.53-.53c.41-.93-.27-2.8.21-3.89,1.09-2.44,2.99-5.73,5.57-6.62.12-.04,4.29.57,4.41.63.11.21.21.42.32.63,1.58-.04,3.15-.07,4.73-.11.14.21.28.42.42.63h5.15c1.66,0,5.55-.33,5.88-.95,1.12-.51,1.22.38,2,.42,2.59-.04,5.18-.07,7.77-.11.83.29,1.54,1.43,2.21,1.79.87.46,1.08.18,1.58.95.04,2.17.07,4.34.11,6.51.14.14.28.28.42.42.07.04.14.07.21.11.46-.43,1.23-.84,1.79-1.16.03-2.25-.21-3.74-1.05-5.04,0,0,.51-3.5.53-4.73-1.62-.45-2.24-.43-3.99-.74-.14.21-.28.42-.42.63h-11.24c-.14.21-.28.42-.42.63h-3.78c-.14-.21-.28-.42-.42-.63h-2.52c-.14-.21-.28-.42-.42-.63-2.14.04-4.27.07-6.41.11-.14-.21-.28-.42-.42-.63h-5.15c-.15.27-.17.35-.42.53h-3.57c-.11.21-.21.42-.32.63h-1.47c-.14.21-.28.42-.42.63Z"/>
      <path class="cls-1" d="M196.08,66.72c-1.19-.04-2.38-.07-3.57-.11-.11.21-.21.42-.32.63h-2.63c-1.2.62-1.91,1.19-3.99,1.16-.04.07-.07.14-.11.21.12.65.27.5.53.95,2.52,1.02,5.7-.42,8.3-.42h5.36c.11.21.21.42.32.63.81-.04,1.61-.07,2.42-.11.14.21.28.42.42.63h2.21c.79-.65.91-1.28.84-2.84-1.25-1.05-2.31-2.35-2.94-3.99v-1.89c-.36-.79-1.28-1.47-1.68-2.21-1.75-.07-3.5-.14-5.25-.21-.11.21-.21.42-.32.63-2.47.01-3.79.52-5.25,1.16h-3.68c-1.04.5-.44.7-2.31.53-.18.33-.19.44-.53.63.18.25.35.49.53.74h2.31c.14-.21.28-.42.42-.63,1.48-.55,9.32.96,10.09,1.26.49.33.36,1.6.32,2.42-.45.22-1.17.73-1.47.84Z"/>
      <path class="cls-1" d="M273.52,71.03v5.99c.21.25.42.49.63.74h1.16c.25-.21.49-.42.74-.63v-4.62c-.18-.07-.35-.14-.53-.21,0,0,.53-2.67.53-3.26,0-3.29-.92-4.01.53-6.83.04-.32.07-.63.11-.95.39-.53,1.62-1.06,2.21-1.37,1.3.82,4.5,1.2,5.15,2.42h3.36c.14-.21.28-.42.42-.63h3.15c.14-.21.28-.42.42-.63h8.93c.14.21.28.42.42.63h1.37c.14.21.28.42.42.63h4.41c.28-.27.19-.36.63-.53.32-1.6-1.42-1.45-2.52-2-.14-.21-.28-.42-.42-.63-1.58.04-3.15.07-4.73.11-.11-.04-.21-.07-.32-.11-.11.21-.21.42-.32.63h-2c-.14.21-.28.42-.42.63-1.12.41-1.5-.43-1.89-.63h-4.62c-.86,0-2.52.63-2.52.63-.11-.21-.21-.42-.32-.63h-2c-.14-.21-.28-.42-.42-.63h-6.2c-.07.11-.14.21-.21.32-.55.73-3.55,1.06-4.94.84-.18.18-.35.35-.53.53-.73,1.52.23,3.78.95,4.62-.17.71-.88,1.81-1.16,2.42-.52,1.12.3,2.74.53,3.15Z"/>
      <path class="cls-1" d="M316.39,59.36c-1.37-.07-2.73-.14-4.1-.21-.18.18-.35.35-.53.53-.16.33-.22.68-.21,1.26,1.21,1.35,1.71,1,3.26,1.89.73.42.99,1.52,1.89,1.89,0,2.52-.53,3.47-.53,5.99.14.18.28.35.42.53.11.07.21.14.32.21.33-.59.87-1.26,1.47-1.58.97-2.15-.87-4.35-1.47-5.78v-4.2c-.18-.18-.35-.35-.53-.53Z"/>
      <path class="cls-1" d="M334.35,59.78c-.11-.21-.21-.42-.32-.63h-2.21c-.07.11-.14.21-.21.32-.68.9-2.33.78-3.05,1.47-.75-.13-.45-.46-.84-.63-.63.04-1.26.07-1.89.11-.11-.21-.21-.42-.32-.63-.91-.53-1.63.55-2.31.53-.65,2.52.61,3.34,1.05,4.73v5.25c.14.27,1.09,1.99,1.16,2.21.46,1.5-1.53,3.07-.63,5.15.48,1.12,1.82,2.15,2.31,3.26v4.2c.61,1.44,1.75,3.09,2.31,4.73-.71,1-1.2,2.24-1.16,3.99.52.19.98.62,1.16,1.16,1.36-.02,1.31-.57,2.31-.53.59-2.25-.34-4.24-.95-5.57v-3.68c-.21-.14-.42-.28-.63-.42v-1.37c-.17-.4-1.01-1.19-1.16-1.58v-4.73c-.47-1.11-1.58-1.81-2.21-2.73-.67-1.67.51-4.21.53-6.3-.39-.35-.77-.7-1.16-1.05v-2.73c.9-.99,1.8-1.86,2.42-3.15,1.9-.41,4.32-.08,4.94,1.16,2.15-.15,4.6.24,5.46-1.16.07-.04.14-.07.21-.11-1-.25-1.97-.82-2.73-1.26h-2.1Z"/>
      <path class="cls-1" d="M137.04,59.78h-.42c.21.21.04.11.42.21v-.21Z"/>
      <path class="cls-1" d="M163.72,62.83c.21-.38.25-.42.63-.63v-1.68c-.18-.11-.35-.21-.53-.32-.64-1.31-5.77.68-6.51.74v1.16c.21.25.42.49.63.74h5.78Z"/>
      <path class="cls-1" d="M217.73,62.94c.26-.54.24-1.57.21-2.42l-.74-.74h-8.62c-.04.42-.07.84-.11,1.26.94.24.67.32,1.26.63h2.52c.91.38,1.51,1.47,2.52,1.89v2.1l-1.47,1.47c-.26.54-.24,1.57-.21,2.42.18.11.35.21.53.32.29.67,2,.48,2.94.42.25-.21.49-.42.74-.63-.01-2.73-1.07-2.97-1.16-4.73.49-.64.81-1.61,1.58-2Z"/>
      <path class="cls-1" d="M180.43,62.2c.14.04.28.07.42.11-.11-.11-.21-.21-.32-.32-.04.07-.07.14-.11.21Z"/>
      <path class="cls-1" d="M181.27,61.99c-.07.04-.14.07-.21.11.14.07.28.14.42.21v-.32h-.21Z"/>
      <path class="cls-1" d="M183.37,61.99c-.04.07-.07.14-.11.21.14.04.28.07.42.11-.11-.11-.21-.21-.32-.32Z"/>
      <path class="cls-1" d="M82.61,67.98v-.63c-1.19-.04-2.38-.07-3.57-.11-.07.18-.14.35-.21.53h-.74c-.27.25-.26.21-.32.74,1.37.04,2.73.07,4.1.11.23-.35.29-.46.74-.63Z"/>
      <path class="cls-1" d="M202.39,74.07c-.18.21-.35.42-.53.63h-3.05c-.14.21-.28.42-.42.63-.6-.04-1.19-.07-1.79-.11-.14.21-.28.42-.42.63h-2c-.07.18-.14.35-.21.53h-3.15c-.16.33-.22.68-.21,1.26.21.21.42.42.63.63,1.93.04,3.85.07,5.78.11.11-.21.21-.42.32-.63,1.61-.03,9.26,1.78,9.46,2.31.89-.05,1.58-.78,2.42-1.16.03-2.34-.32-3.27-1.05-4.62-1.93-.07-3.85-.14-5.78-.21Z"/>
      <path class="cls-1" d="M321.01,88.36c-.04-1.44-.07-2.87-.11-4.31-2.51-2.77-2.4-3.34-2.31-8.62-.69-.83-1.05-1.18-2.21-1.37-.46.42-.91.84-1.37,1.26v2.42c.95.84,1.89,1.68,2.84,2.52-.03,2.76-.93,5.12,0,7.14.39.32.77.63,1.16.95.46,1.02-.1,1.16.63,1.79-.17.56-.46.41-.63.74v3.36c5.08,5.3-1.48,5.07-2.73,8.3.46.21.86.57,1.05,1.05,1.88,0,3.18-.55,4.1-.53.34-1.1.33-3.94-.42-4.41.15-1.2.74-2.65,1.68-3.15v-3.47c-.16-.36-.98-1.1-1.16-1.47v-2c-.18-.07-.35-.14-.53-.21Z"/>
      <path class="cls-1" d="M51.62,77.75c.32.39.63.77.95,1.16h1.05c.77-.68,1.57-1.26,2.52-1.79v-2.31c-.25-.21-.49-.42-.74-.63-.07.11-.14.21-.21.32-.94.93-2.03,1.43-3.99,1.37-.55-.56-1.29-1.17-2.52-1.16-.77.71-1.71,1.78-2.94,1.68-.04.6-.07,1.19-.11,1.79.25.28.49.56.74.84,1.73-.55,2.52-1.29,5.25-1.26Z"/>
      <path class="cls-1" d="M267.95,76.49c-.23-.52-.91-1.19-1.16-1.79h-1.79c-.41,1.27-.67,2.29-.63,4.2,1.97.84,1.94,4.14,1.16,6.3-.21.18-.42.35-.63.53v4.2c-.47,1.13-.51,2.08-.53,3.89.5.2.96.67,1.16,1.16h1.68c.25-.21.49-.42.74-.63.03-1.94-.77-2.22-1.16-3.36-.42-1.22.38-2.06-.53-2.73.12-.66.37-.47.53-.84v-5.25c.36-1.04,2.11-3.55,1.16-5.67Z"/>
      <path class="cls-1" d="M215.42,77.85c.21-.43.24-1.17.21-1.89-.42-.04-.84-.07-1.26-.11-.21.25-.42.49-.63.74.45.32.84,1.17,1.05,1.68.36-.16.3-.24.63-.42Z"/>
      <path class="cls-1" d="M218.88,95.4c.21.25.42.49.63.74h1.79c.21-.38.25-.42.63-.63-.01-3-1.17-3.36-1.16-6.51.77-.7,1.54-1.4,2.31-2.1.03-1.96-.03-3.58-.63-4.73.26-1.75,1.76-2.96,1.79-5.04l-1.26-1.26h-1.16c-.07.18-.14.35-.21.53-.79.14-.76.21-1.37.53-.75,1.64.29,4.01.32,6.09-.49.46-.98.91-1.47,1.37-.92,1.98.47,4.17.95,5.46-1,1.35-1.21,3.09-1.16,5.57Z"/>
      <path class="cls-1" d="M110.77,77.01c-3.13,0-2.73.39-4.41,1.16h-1.37c-.51.27-.23.59-1.26.63-.35-.42-.7-.84-1.05-1.26h-1.68c-.79.33-1.24,1.21-2.31,1.16-.04.21-.07.42-.11.63.21.25.42.49.63.74,2.06-.06,1.96-1.17,4.31-1.16.54.84,1.35,1.63,1.37,2.94-.37.37-.88.67-.53,1.47.29.25,1.68.2,2.31.21.47-1.68,2.24-3.47,4.1-3.47-.03-1.03.1-1.29.53-1.79-.32-.42-.5-.48-.53-1.26Z"/>
      <path class="cls-1" d="M115.39,83.21c.19.69.63.72.95,1.26.48.21,1.65.16,2.42.21.11-.39.21-.77.32-1.16h2.1c.43.24.83.7,1.05,1.16h2.84c.56-.56,1.12-1.12,1.68-1.68.16-.33.22-.68.21-1.26l-1.26-1.26h-1.05c-.74.74-1.47,1.47-2.21,2.21-.7.04-1.4.07-2.1.11-.07-.11-.14-.21-.21-.32-.65-1.62.5-2.54.53-4.2l-.63-.63c-.39-.04-.77-.07-1.16-.11-.4.6-1.8,1.43-2.42,1.79.04.84.71,1.85.42,2.21-.35.25-.7.49-1.05.74-.31.61.15.61-.42.95Z"/>
      <path class="cls-1" d="M93.01,80.8c.45-.22.99-.2,1.58-.11.21-.38.2-.45.63-.63v-.63c-1.02-1.17-2.73-1.33-5.25-1.26-1.11,1.99-2.86,4.04-3.57,6.2-.91.04-1.82.07-2.73.11-.04.39-.07.77-.11,1.16.47.52.91,1.27,1.26,1.89h1.79c.42-.96.78-.64,1.68-1.16.14-.21.28-.42.42-.63,1.58.04,3.15.07,4.73.11.11-.21.21-.42.32-.63.48-.26,1.02-.27,1.37-.42.04-.11.07-.21.11-.32h-2.1c-.18-.38-.15-.43-.53-.63-.25-.52-.24-1.49-.21-2.31.31-.25.48-.29.63-.74Z"/>
      <path class="cls-1" d="M207.85,82.27c-.38.94-6.75,1.93-8.3,2.63-.07.11-.14.21-.21.32,2.3.41,4.26,1.42,6.09,2.42.19.4.24,1,.21,1.68-.55.48-1.48,1.35-2.21,1.58-.6-.04-1.19-.07-1.79-.11-.75.37-.08.66-1.89.63-.28-.38-.24-.51-.84-.63l-.63.63c1.05,1.94,10.09,2.77,13.76,3.05.21-.42.17-.45.63-.63,0-1.51-.02-2.47-.53-3.47-.39-.32-.77-.63-1.16-.95v-1.37c-.21-.18-.42-.35-.63-.53v-3.47c-.74-.87-1.48-1.38-2.52-1.79Z"/>
      <path class="cls-1" d="M25.46,83.32v.74c.41.21.42.21.63.63h1.68c.21-.18.42-.35.63-.53-.23-.56-.48-.54-.53-1.37-.56-.04-1.12-.07-1.68-.11-.23.35-.29.46-.74.63Z"/>
      <path class="cls-1" d="M274.15,94.35c.35.04.7.07,1.05.11.21-.18.42-.35.63-.53.79-1.74.24-7.5.21-9.88-.9-1.03-1.23-1.13-2.84-1.37-.25.28-.49.56-.74.84-.99,2.55,1.2,3.55,1.68,4.94v5.88Z"/>
      <path class="cls-1" d="M132.73,83.42c-.42-.04-.84-.07-1.26-.11l-1.05,1.05c-.17.34-.23.76-.21,1.37.81.04,1.61.07,2.42.11.04-.81.07-1.61.11-2.42Z"/>
      <path class="cls-1" d="M364.51,83.42c0,2.01.62,2.38.63,4.1.11.04.21.07.32.11.76-.54,1.01-1.77.95-3.15-.77-.31-1.15-.73-1.89-1.05Z"/>
      <path class="cls-1" d="M74.94,85.1v1.68c.87.98,1.96,1.22,3.47,1.37.59-1.18.78-2.27.74-4.2-.95-.04-1.89-.07-2.84-.11-.46.42-.91.84-1.37,1.26Z"/>
      <path class="cls-1" d="M88.71,211.92c-1.37-.78-3.75-4.75-1.05-6.09-.98-.4-1.63-.26-2.52-.74-1.18-.63-1.69-2.47-3.05-3.05-.04-1.05-.07-2.1-.11-3.15.18-.25.35-.49.53-.74-1.75-1.52-3.63-3.1-4.52-5.46-.22-.59.62-1.72.63-2.94-1.38-1.12-5.27-4.48-3.05-7.56-.26-.37-.14-.65-.42-1.16-.77-.67-1.54-1.33-2.31-2v-1.37l-.63-.63c.56-.99.68-2.22.63-3.99-3.22-2.15-1.87-4.09-1.79-7.99-.82-.99-2.93-3.09-2.31-5.25l.63-.63v-2.73c-3.1-3.45-.69-3.68-.63-8.09-2.79-3.1-.58-3.88-.53-7.99-.7-.67-1.4-1.33-2.1-2-.19-.4-.24-1-.21-1.68.21-.18.42-.35.63-.53v-1.58c-.43-.18-1.43.21-2.1-.11-.11-.21-.21-.42-.32-.63h-1.47c-.11-.21-.21-.42-.32-.63-.46.04-.91.07-1.37.11-.11-.21-.21-.42-.32-.63-.99-.51-1.39.62-2.1.53-.11.04-.21.07-.32.11v.63c.8.22,1.22.18,2.1.63.11.21.21.42.32.63.29.15,1.87.19,2.52.53.7.36.63,1.55,1.37,1.89v1.16c-.53.35-.98.76-1.26,1.37-1.69.25-2.58-.15-3.57-.63-1.01.83-.86.2-1.89.63-.39.39-.77.77-1.16,1.16v.11c.32.35.63.7.95,1.05.94.44,2.3.12,2.84-.42,1.29.24,1.71,1.2,2.73,1.79.31.65.24,1.97.21,2.94-.78.89-1.68,1.52-3.47,1.47l-.42-.63c-2.04.15-3.22,1.72-5.25,1.16-.91-.84-1.82-1.68-2.73-2.52v-2.1c.83-.9,2.66-1.95,3.26-2.73-.7-.77-1.4-1.54-2.1-2.31-.98-.04-1.96-.07-2.94-.11l-1.05,1.05c-1.04,2.28.82,3.77.95,5.46-.65.81-1.02,2.02-1.68,2.84.01,2.79,1.05,2.4,1.68,3.78,1.09,2.41-2.11,4.23-1.16,5.99.4.74,1.33,1.75,1.68,2.52.43.95-.52,4.44-.53,5.99,1.01,1.01,1.82,2.03,2.31,3.57-.68.96-1.2,2.21-1.16,3.89,1.59,1.67,2.39,2.47,2.31,5.99l-1.16,1.16c-.14.14-.28.28-.42.42h1.26c.84,1.02,1.79,2.16,2.52,3.26.04,1.05.07,2.1.11,3.15-.31.25-.48.29-.63.74-.65.31-1.97.24-2.94.21-.81-.81-1.61-1.61-2.42-2.42-.36-.76-.24-2.37-.21-3.47.53-.53,1.05-1.05,1.58-1.58-1.32-.09-3.19-2.33-3.78-3.26-.95-2.37,1.02-3.08,1.05-5.25-.56-.61-1-.31-1.58-.74-.49-.36-.66-1.02-1.26-1.37v-3.26c.75-.79,1.21-.93,1.16-2.63-.95-.88-1.89-1.75-2.84-2.63v-2.42c.75-.31,1-.97,1.68-1.37v-1.68c-.77-.7-1.54-1.4-2.31-2.1,0-2.73.53-3.88.53-6.51-.35-.32-.7-.63-1.05-.95-.45-.75.1-1.21-.63-1.68.2-1.27.97-2.93,1.68-3.78-.18-1.36-1.2-2.01-1.79-2.94h-1.05c-.93.93-3.97.76-5.67.53-.6.36-1.08.77-1.68,1.16-.28.04-.56.07-.84.11v1.16c.88,1.04,2.61,1.82,4.1,1.89.35-.89,1.82-.7,3.05-.63.21.21.42.42.63.63.26.54.24,1.57.21,2.42-.53.35-.98.76-1.26,1.37-2.83.32-6.29,0-7.35,1.47-.11.11-.21.21-.32.32,1.91.98,3.16,2.46,6.09,2.42.21-.21.42-.42.63-.63.57.33.76.51,1.58.74.04.77.07,1.54.11,2.31-.4.26-.52.38-.74.84-2.4.39-4.83-.34-5.67,1.58-.52.26-2.28.4-2.94.11-.98-.7-1.73-2.11-2-3.47.62-.71.87-2.03,1.26-2.94.43-.44.89-.29,1.37-.84-.54-.3-1.05-.72-1.58-.63-1.06-.93-2.24-3-1.58-5.25.49-.49.98-.98,1.47-1.47.15-.31.22-.6.21-1.16-.8-.98-2.46-2.41-1.79-4.73.25-.87,1.99-2.27,1.16-4.1-.2-.44-1.01-1.18-1.16-1.68v-6.41c-.52-.2-.96-.63-1.16-1.16-1.06.07-1.34.7-2.21.53-.7,1.27.29,5.25.32,7.25-.85.91-1.52,1.83-2.31,2.84.24.92,1.2,1.28,1.68,2,1.12,2.74-1.15,4.26-1.68,5.67-.84.04-1.68.07-2.52.11-.33-.85-2.58-2.51-3.36-2.94-.2-.42-.24-1.09-.21-1.79,1.22-.83,2.07-1.87,3.47-2.63v-1.05c-.94-1.04-2.26-2.02-3.47-2.73v-1.58c.83-.91,2.16-1.93,3.26-2.52.16-.33.22-.68.21-1.26-1.56-1.07-2.5-1.32-5.57-1.26-.29-.5-.62-1-1.16-1.26-.25-.52-.24-1.49-.21-2.31.37-.28.52-.38.74-.84h5.99c.28-.27.19-.36.63-.53.19-.76-.12-.76-.42-1.26-1.26-.04-2.52-.07-3.78-.11-1.92-.87-3.22-1.52-3.15-4.73.91-.73,2.41-2.89,4.62-2.1.14.21.28.42.42.63h1.79c.04-.6.07-1.19.11-1.79-.21-.21-.42-.42-.63-.63-2.8-.54-5.83.18-7.46,1.05-.75,1.73,1.36,2.86.42,4.94-.39.32-.77.63-1.16.95-.39.76.06.74-.63,1.16,0,2.41.64,3.25.63,5.88-.77.7-1.54,1.4-2.31,2.1.06,2.55,1.69,2.46,1.68,5.36-.8,1.03-2.39,4.09-4.62,3.15-4.25-2.51-.49-5.25-.32-8.3-.55-.69-1.9-2.63-1.16-4.41.16-.38.99-1.13,1.16-1.47.75-1.55-.34-4.52-.63-5.25.56-.83,2.02-3.75,1.16-5.67-.39-.35-.77-.7-1.16-1.05-.97-2.68,1.14-4.54,2.31-5.25v-2.84c-.34-.41-.6-.7-1.16-.63-.67-.36-.71-1.84-.42-2.73,1.02-.19,1.21-.65,2.73-.63.21-.25.42-.49.63-.74v-2.73l-.74-.74h-3.99c-.07.18-.14.35-.21.53-.06.05-2.53.62-2.73.63v3.05h.95c.18.38.15.43.53.63.31.65.24,1.97.21,2.94-.7.63-1.4,1.26-2.1,1.89-.98,2.15,1.9,2.94.95,5.04-.88,1.95-2.35,2.54-1.16,5.25.49,1.11-.11,1.35.63,2.52-.31.57-1.73,4.06-1.16,5.25.18.07.35.14.53.21v2c.26.61.61.67.63,1.89-1.99,1.72.63,6.39,1.16,7.77v4.1c.18.21.35.42.53.63.6.04,1.19.07,1.79.11.28-.39.56-.77.84-1.16h1.58c.7.63,1.4,1.26,2.1,1.89v2.84c-.81.58-1.61,1.4-2.73,1.37-.04.63-.07,1.26-.11,1.89.77.67,1.54,1.33,2.31,2,.04,1.77.13,3.49-.63,4.41.16.6.47.44.63.84v1.37c.3.52,1.39.84,1.68,1.37.91,1.64,1.18,3.47,1.16,5.99.7.47,3.74,2.26,3.99,2.63.99,1.46.44,4.44,1.26,6.09.61,1.22,2.67,2.12,3.68,2.94h.42c.04-.53.07-1.05.11-1.58.49-.24.97-.61,1.16-1.16.54-.26,1.57-.24,2.42-.21.81,1.27,1.43,1.92,1.37,4.2-.38.25-.52.42-.74.84-1.29.07-2.72.23-3.15-.63h-.53s-.07.07-.11.11c.34.49.46,1.72,1.05,2,.11.24,3.24,1.21,3.99,2.31.04.32.07.63.11.95.17.28.84.47,1.05.74.04.53.07,1.05.11,1.58.18.07.35.14.53.21v2c1.1,2.31,3.44,3.29,5.67,4.2.6-.48.75-.98,1.05-1.79.74-.13.73-.42,1.26-.63,1-.39,3.12,1.54,3.47,2.1.04.49.07.98.11,1.47-.53.46-1.05.91-1.58,1.37-.16.33-.22.68-.21,1.26.84.84,1.68,1.68,2.52,2.52.25-.04.49-.07.74-.11.11.21.21.42.32.63h.95c.33.22,1.05.99,1.37,1.16h.95c.42.53.84,1.05,1.26,1.58,1.72,1.72,3.43,3.43,5.15,5.15,1.33.07,2.66.14,3.99.21.38-.38.69-.62.95-1.16.77-.04,1.54-.07,2.31-.11.49.76,1.59,1.27,2,2,.96,1.73,1.19,4.81,3.05,5.57.25-.04.49-.07.74-.11.11.21.21.42.32.63.39-.04.77-.07,1.16-.11l.74.74c1.93-.04,3.85-.07,5.78-.11.14.21.28.42.42.63.39-.04.77-.07,1.16-.11.25.25.49.49.74.74.67-.04,1.33-.07,2-.11h2.1c.11.21.21.42.32.63.42-.04.84-.07,1.26-.11.53.6,1.05,1.19,1.58,1.79.54.52,1.05.26,1.58.63.5.36.8,1.4,1.37,1.68h1.47c.11.21.21.42.32.63,1.14.46,2.5-.68,3.26-1.05.04-.14.07-.28.11-.42-.14-.14-.28-.28-.42-.42-.28-.04-.56-.07-.84-.11ZM15.58,130.07c-.04.11-.07.21-.11.32h-1.58c-.75-.46-.46-2.23,0-2.73.46.04.91.07,1.37.11.11.04.21.07.32.11v2.21ZM17.58,144.15c.75-.85,1.91-1.1,2.52-2.1h2.73c2.99,2.8.83,4.39-.42,6.72h-2.73c-.7-.63-1.4-1.26-2.1-1.89v-2.73ZM20.31,150.04h2.42c1.29,1.3,1.65,2.61,1.58,5.36-.49.46-.98.91-1.47,1.37-1.99.88-4.01-1.01-4.62-2-1-2.32,1.11-3.93,2.1-4.73ZM24.83,163.48c-.38.25-.52.42-.74.84-1.86.02-2.93-.26-3.89-.63-.81-.46-1.5-1.76-1.47-3.05.94-.48,1.99-1.62,2.52-2.52h2.21c.98,1.54,1.43,2.55,1.37,5.36ZM31.02,157.6h2.31c.46.95,1.9,2.47,2.84,2.94.25.52.24,1.49.21,2.31-1.01.72-2.49,2.9-4.62,2-2.81-1.58-2.39-4.92-.74-7.25ZM32.39,166.11c2.56-.05,4.1,1.21,5.04,2.73.04.49.07.98.11,1.47-.9.59-2.01,1.66-2.52,2.63-.74-.04-1.47-.07-2.21-.11-2.15-1.53-2.43-5.01-.42-6.72ZM39.22,178.93c-.7.79-2.55,2.07-3.99,2.1-.75-.77-2.03-1.08-2.63-2-.42-.65-.18-1.28-.63-1.79.22-1.32,1.28-2.19,2-3.05,2.09.06,3.75,1.72,5.25,2.52v2.21ZM66.22,168.84c.04.49.07.98.11,1.47-.57.37-1.05.85-1.37,1.47-3.01.01-4.56.91-7.56.53-.34-.87-1.2-1.35-1.79-2v-2c.46-.53.91-1.05,1.37-1.58,4.11-.07,7.75-.28,9.25,2.1ZM54.87,150.04c.88.04,1.75.07,2.63.11.14.21.28.42.42.63,1.58-.04,3.15-.07,4.73-.11.64.32,1.18.95,1.89,1.37v2.21c-.39.42-.77.84-1.16,1.26-.54.26-2.28.82-2.84.84-.28-.25-.56-.49-.84-.74-2.02,1.73-4.64.42-6.2-.53-.96-1.99.37-4.24,1.37-5.04ZM54.45,162.85v-3.15c.32-.35.63-.7.95-1.05,5.21-.03,6.51.22,9.56,1.89.19.4.24,1,.21,1.68-.46.52-1.14,1.5-2,1.58-.46-.04-.91-.07-1.37-.11-3.11,1.44-5.26,1.64-7.35-.84ZM57.5,197h-2.73c-1-.63-1.47-1.94-2.63-2.42v-3.36c.28-.32.56-.63.84-.95h2.73c1.26,2,2.59,2.26,2.52,5.88-.35.27-.52.42-.74.84ZM57.92,178.3c-.69-1.54.25-2.99.95-3.57.88.04,1.75.07,2.63.11.14.21.28.42.42.63,1.37-.04,2.73-.07,4.1-.11.67.26,1.14.97,1.89,1.26.04.6.07,1.19.11,1.79-.53.35-.98.76-1.26,1.37h-4.31c-.14.21-.28.42-.42.63h-2.21c-.63-.7-1.26-1.4-1.89-2.1ZM62.23,188.39c-1.5-.88-2.18-2.06-2.1-4.62.37-.3.59-.52.84-.95,3.25,0,5.87.74,8.72,1.26v2.84c-.23.36-6,2.1-7.46,1.47ZM65.07,196.48c-.6-.6-1.19-1.19-1.79-1.79-.32-.67-.24-2.05-.21-3.05.49-.2.68-.52,1.05-.84,2.26.17,8.17.6,9.04,2.21v1.58c-.64.28-1.39,1.13-2,1.37-.81-.04-1.61-.07-2.42-.11-.11.21-.21.42-.32.63h-3.36ZM76.1,203.1c-.11.07-.21.14-.32.21h-3.05c-2.86,1.41-4.3.48-6.2-.74v-2.94c.7-.22.95-.07,1.37-.74.73,0,3.14.49,3.36.63.14.21.28.42.42.63,1.19-.04,2.38-.07,3.57-.11.26.41.4.6.84.84v2.21Z"/>
      <path class="cls-1" d="M367.24,94.77c.11.07.21.14.32.21.18-.25.35-.49.53-.74.04-.7.07-1.4.11-2.1-.42-.46-.84-.91-1.26-1.37h-.63v2.94c.32.35.63.7.95,1.05Z"/>
      <path class="cls-1" d="M212.16,98.97s-.07-.07-.11-.11h-.32c-1.02-.04-2.03-.07-3.05-.11-.31.13-.27.64-.74.74-1.51-.04-3.01-.07-4.52-.11-.07.18-.14.35-.21.53h-3.05c-.11.04-.21.07-.32.11v.53c.21.25.42.49.63.74,2.56-.03,7.53,1.77,8.51,3.26.04.46.07.91.11,1.37-1.55,1.52-3.14,2.81-6.2,2.73.78,1.05,3.86,1.4,5.25,1.89.9.52,1.02,1.43.95,2.94-1.28.91-6.71,2.13-8.62,2-.04.87-.25.91-.63,1.37v.53c4.74.34,7.72,2.33,12.82,2.31.18-.42.25-.43.63-.63v-3.36l-1.68-1.68c-.75-1.89.59-3.14,1.05-4.1.04-.09-.53-4.8-.53-5.99l1.05-1.05c.7-1.64-.56-3.01-1.05-3.89Z"/>
      <path class="cls-1" d="M263.22,102.44c1.33.57,1.78,1.2,4.1,1.16.04-1.33.07-2.66.11-3.99-.68-.8-1.03-.66-2.31-.84l-1.68,1.68c-.22.45-.24,1.25-.21,2Z"/>
      <path class="cls-1" d="M273.2,98.76c-.53.87-.88,1.52-.84,2.94.39.39.77.77,1.16,1.16,1.56.63,2.57-.66,3.99-.32.07-.04.14-.07.21-.11-1-1.35-2.04-2.42-3.05-3.68h-1.47Z"/>
      <path class="cls-1" d="M359.36,101.71c-.02.82-.17.85-.53,1.26.42.39.84.77,1.26,1.16,2.07.57,3.86-1.35,5.88-.53.41.17,1.02.99,2,.63.45-.17,1.41-.97,1.89-1.26v-2.31c-.56-.56-1.12-1.12-1.68-1.68-.35-.07-.7-.14-1.05-.21-.76.54-2.29,1.83-2.63,2.73-1.13.52-3.63.24-5.15.21Z"/>
      <path class="cls-1" d="M347.59,102.86h-5.46c-1.19,0-1.22-.42-1.79-.63-.6.04-1.19.07-1.79.11-.14-.21-.28-.42-.42-.63h-2.42c-3.03,0-5.69-.41-6.83-2.31h-1.68c-.42.46-.84.91-1.26,1.37.17.85.81,1.53,1.16,2.21.98.04,1.96.07,2.94.11.34-.15.91-1.13,2-.63.11.21.21.42.32.63.25-.04.49-.07.74-.11.43.16,1.27,1.12,1.68,1.26h4.41c.21-.21.42-.42.63-.63h9.56c.11.21.21.42.32.63h3.89c.25-.32.3-.46.74-.63v-1.16c-2.27-2.54-4.63-.55-6.72.42Z"/>
      <path class="cls-1" d="M224.56,102.02c.04-.07.07-.14.11-.21-1.32-.57-3.18-.74-4.1-1.89h-.42c-.29.53-.74.96-1.26,1.26v2.42h3.47c.69-.67,1.27-1.11,2.21-1.58Z"/>
      <path class="cls-1" d="M159.63,195.85c-.47-.21-1.76-.13-2.52-.53-.11-.21-.21-.42-.32-.63h-.95c-.43-.31-.51-.87-1.05-1.16-.47-.97-.17-2.65.21-3.36-.18-.21-.35-.42-.53-.63-1.64.1-6.84-2.57-7.35-3.68-.47-1.01.08-1.15-.63-1.79.23-.89.65-1.01.63-2.42-.54-.36-1.2-.48-1.58-.74-.28-.39-.56-.77-.84-1.16-.65-.34-1.2-.09-2-.53-.49-.26-.79-1.04-1.37-1.37v-2.73c.46-.49.91-.98,1.37-1.47h.21c-.83-.39-1.59-.23-2.52-.74-.49-.6-.98-1.19-1.47-1.79h-.95c-.49-.36-.67-1.01-1.26-1.37v-4.31c-1.21-.62-3.3-2.67-3.89-3.89-.39-.9.73-2.43,1.37-2.73.17-.34.23-.76.21-1.37-1.02-1.02-2.03-2.03-3.05-3.05-.82.25-.79.95-1.37,1.26-1.55.83-4.39.69-6.62.53-.04.6-.07,1.19-.11,1.79.29.14.53-.11.95.11.11.21.21.42.32.63.42-.04.84-.07,1.26-.11.14.21.28.42.42.63h1.47c.4.21.09.48.74.63,1.41-1.26.87-.4,1.89,0h1.26c2.35,1.56-.44,4.15-2,4.41-.14-.21-.28-.42-.42-.63h-2.21c-.45.45-1.06.77-1.68,1.05-1.34,3.03,4.69,1.18,6.41,2,1.07.51,2.32,1,3.05,2.1.04.49.07.98.11,1.47-.75.5-1.4.9-2,1.47-.95-.17-1.02-.46-2.42-.63-.72.66-2.14.55-2.52,1.58-.78.37-2.45.24-3.57.21-1.07-1.61-2.45-2.48-3.15-4.62,1.92-2.71-1.1-4.49-2.21-6.09-.78-1.95.49-3.44.53-5.15-.67-.82-1.36-2.2-2.31-2.73-.07-2.41.19-4.02,1.68-4.83v-1.16c-1.86-1.92-4.06-1.95-3.99-6.3-.35-.07-.7-.14-1.05-.21-.11.04-.21.07-.32.11.11.97.7,1.07,1.05,1.79.79,1.79-1.02,3.91-2,4.41-.89,1.97,1.15,3.38,1.58,4.73.43,1.37-.39,2.38-.63,2.94v2.73c.7.67,1.4,1.33,2.1,2,.82,1.78-.29,3.63-.32,5.67,1.9.77,2.23,2.74,3.36,4.31-.19.98-.55,1.98-.53,3.57,1.53,1.52,2.91,2.25,2.84,5.46-.53.35-.98.76-1.26,1.37h-2.31c-1.22-1.22-3.24-1.19-4.2-2.63-.04-.84-.07-1.68-.11-2.52.32-.28.63-.56.95-.84.17-.34.23-.76.21-1.37-1.69-1.19-3.11-2.15-5.67-2.42-.18.21-.35.42-.53.63-1.05-.18-2.08-.85-2.94-1.37v-2.94c1.15-.46,2.71-.26,3.36.42.42-.56,2.07-1.16,2.73-1.05.2-.42.24-1.09.21-1.79-1.05-1.16-2.75-1.02-3.47-2.42-.42-.04-.84-.07-1.26-.11-.11.21-.21.42-.32.63h-2.21c-.25-.32-.49-.63-.74-.95-.04-.49-.07-.98-.11-1.47.4-.26.52-.38.74-.84,1.82-.33,2.3.49,3.89.53v-.84c.56-.49,1.12-.98,1.68-1.47v-1.16c-.8-.9-1.45-.63-2.63-1.26-.11-.21-.21-.42-.32-.63h-3.57c-.88-.5-1.02-1.36-.95-2.84.33-.31.53-.5.74-.95.7-.04,1.4-.07,2.1-.11.25.26.29.2.42.63,1.11-.63,2.32-.75,3.05-1.89.04-.32.07-.63.11-.95-.48-.4-.97-.77-1.26-1.37h-5.57c-.23-.61-.73-1.07-1.26-1.37v-2.84c.44-.17,2.18-1.45,2.31-1.89-1.12-.81-2.23-1.11-2.84-2.42-.39.32-.77.63-1.16.95-1.07,2.34,1.29,4.44.32,6.72-.49,1.14-1.65,1.52-1.68,3.15.57.68,2.75,3.29,2.31,4.73-.35,1.15-1.12,1.47-1.16,3.36.55.64,1.38,1.67,2.21,2,.43,3.39-1,3.74-1.05,6.09,1.52.43,1.91,1.95,3.36,2.52.3,3.27-1.01,2.78-1.05,5.04,1.12,1.02,2.24,2.03,3.36,3.05.05,2.2-.15,3.35-1.16,4.41v.42c1.49,1,2.93,2.26,4.41,3.05.78,1.69-.26,3.57-.32,5.04.73.5,4.28,2.79,4.52,3.15.38.59.16,1.26.63,1.89-.21.94-.73,2.36-1.47,2.84-.04.07-.07.14-.11.21,3.09-.01,4,2.54,5.99,3.57.36.76.24,2.37.21,3.47-.4.26-.52.38-.74.84h-2.42c-.95-2.31-3.88-1.98-4.73-5.78.38-.49.89-1.22,1.16-1.79l.32-.32c-4.23-1.54-6.2-2.17-6.09-8.09-1.26-1.19-2.52-2.38-3.78-3.57-.72-1.56.26-3,.32-4.41-1.44-1.54-3.24-2.7-3.99-4.94-.23-.67.41-.58.53-.84v-2.21c-.81-.98-3.85-4.16-2.84-6.62.36-.86.5-.6.53-2.21-1.07-.45-3.25-3.07-2.21-5.36.16-.34,1.04-1.59.53-2.63-.37-.76-1.33-1.75-1.68-2.52-.35-.77.51-4.99.53-6.51-.65-.74-1.29-1.74-1.68-2.73-.34-.87.39-1.07.53-1.37.67-1.52-.94-3.92-1.68-4.31v-2.21c1.09-1.05,2.17-2.1,3.26-3.15h2.73c.14.38,2.95,2.73,3.47,2.94.99-.83,1.83-1.36,3.15-1.89,1.56,1.11,5.62.48,6.62-.53.73.14.44.45.84.63h1.47c.07.18.14.35.21.53h4.52c.6-.6,1.19-1.19,1.79-1.79-.94-1.13-1.64-1.77-1.58-3.99-.18-.21-.35-.42-.53-.63-1.3.56-2.3,2.18-3.57,2.21-.07.28-.14.56-.21.84-.31.51-.41.03-.95.32-.32.39-.63.77-.95,1.16-1.46.7-2.6-.88-3.15-1.16h-4.94c-.04-.14-.07-.28-.11-.42-2.85-1.11-5.93.8-8.41.42-1.16-1.2-2.09-2.28-3.57-2.94-3.14,2.6-11.6,2.68-13.87-.84-.04-.67-.07-1.33-.11-2,.31-.25.48-.29.63-.74,2.1-.97,6.8-1.33,9.88-.74.32.39.63.77.95,1.16h.53c.04-.21.07-.42.11-.63-1.3-1.44-3.35-2.07-4.52-3.78-.86-1.26,0-2.91-.63-4.31-.46-1.03-1.85-1.76-2.31-2.63v-1.37c-.18-.11-.35-.21-.53-.32-.12-.27.53-2.81.53-3.89v-3.36c-.18-.07-.35-.14-.53-.21-.4-.85.41-1.19.53-1.47v-3.99c-1.44-.39-1.9.47-2.94.42-.04,1.26-.07,2.52-.11,3.78-.58,1.35-1.46,2.88-2.63,3.68-.91.04-1.82.07-2.73.11-1.14-1.79-2.1-4.3.32-5.67v-1.79s-.07-.07-.11-.11h-2.63c-1.66,1.19-1.7,3.87-3.26,5.15-1.14.93-4.65.19-5.57.63-.88.42-1.48,1.28-2.42,1.79v2.31l.53.53c1.16.48,2.86-.4,4.94-.42.65.6,1.46,1.77,1.47,2.94-1.37,1.18-2.94,2.9-6.09,2-.25.25-.49.49-.74.74.18.21.35.42.53.63h3.68l2.42,2.42c.3.63.24,1.89.21,2.84-.48.41-3.86,2.79-5.46,1.47-.26-.21-1.05-1-1.37-1.16h-3.68c-1.34-1.34-2.87-3.48-3.78-5.15-1.38.01-2,.63-2.73.53-.85.86.8,3.92,1.58,4.31.25-.04.49-.07.74-.11.42.17,1.26,1.13,1.68,1.26.81-.04,1.61-.07,2.42-.11.76.37,1.33,1.41,2.1,1.79.56.28,1.75.15,2.52.53.11.21.21.42.32.63.6-.04,1.19-.07,1.79-.11,2.25.81,1.9,1.86,5.67,1.79.72-2.77-.79-4.83-.42-7.88,1.48-.61,1.68-2.29,2.84-3.15-.02-1.95-.64-2.43-.63-4.62l2.63-2.63h2.73c.28.25.56.49.84.74.07,2.61-.1,4.43-1.68,5.36v2.42c.38.85,1.65,1.64,1.16,3.36-.08.29-.99,1.91-1.16,2.21,0,0-.64,7.85-.63,7.88v.21c.1.24.64,1.02.84,1.37,1.9-.56,5.68-1.54,6.72.53h2.21c.14-.21.28-.42.42-.63,1.76.28,3.64,1.36,4.73,2.63.04.84.07,1.68.11,2.52-.82.84-1.66,1.76-2.63,2.21h-.21c-1.17.26-1.29-.44-1.79-.63-.98.04-1.96.07-2.94.11-.84-.04-1.68-.07-2.52-.11-.07-.18-.14-.35-.21-.53-1.3-.04-2.59-.07-3.89-.11-.28.25-.56.49-.84.74v6.51c-.46,1.08-1.15,1.35-1.16,3.15,2.71,3.01,1.22,4.21,1.16,8.62.57.64,1.53,1.53,1.79,2.42.64,2.18-1.51,3.1-.63,5.15.29.69,1.39,1.41,1.68,2,.48.97-.04,1.03.63,1.89,0,0-.98,2.79-1.05,2.84.46,1.45,1.47,3.19,2.73,3.89,0,2.11-.49,3.39-.53,4.83,1.05,1.12,4.57,3.56,3.47,6.51-.21.55-.57.42-.63,1.47,1.04,1.09,4.99,3.92,4.1,6.51-.16.47-.5.32-.63,1.05,2.06,1.37,4.69,3.54,4.62,7.04-.31.37-.66.76-1.16.95-.12.38-.08.31-.32.53v.11c.63.04,1.26.07,1.89.11.61,1.23,2.41,2.98,3.57,3.68v2.94c2.1,2.76,4.39,1.93,8.62,2.63.14-.21.28-.42.42-.63h8.41c.14-.21.28-.42.42-.63.97-.28.89.45,1.26.63h7.35c.56-.47,1.3-.92,1.37-1.89-1.76-.71-2.92-2.08-4.52-3.05-.04-.95-.07-1.89-.11-2.84.43-.31,1.23-.72,1.79-.84,1.31-.35,3.04,2.44,4.52,2.21.69.65,1.12,2.3,1.58,2.52-.11.9-.42.69-.53,1.58h.84c.14.21.28.42.42.63h4.52c1-1.53,2.82-2.53,5.25-2.31.24-.58,2.61-2.41,3.26-2.84,1.09-.04,2.17-.07,3.26-.11.14.21.28.42.42.63.55.22,4.92-.47,5.04-.53,1.05-1.16,2.1-2.31,3.15-3.47.51-.4,2.41-.22,3.26-.63.42-.2,2.26-2.13,2.63-2.31.82-.41,3.16-.29,3.68-.53.55-.24.51-.8,1.58-.53.91-.74,1.8-2.54,2.63-3.05v-.53c-1.3-.04-2.59-.07-3.89-.11-.11-.21-.21-.42-.32-.63ZM78.62,121.14c.63-.71,1.42-.76,1.89-1.47.86.07.49.44.95.63,2.5,1.03,1.16.84.95,3.05-.65.31-1.97.24-2.94.21l-.84-.84v-1.58ZM76.94,146.15c-.04-.67-.07-1.33-.11-2,.31-.25.48-.29.63-.74,1.75-.81,4.21-1,6.72-.74.14-.21.28-.42.42-.63,1.1.02.85.4,1.37.63h1.26c.96.63,1.02,2.43.95,4.1-.47.3-.97.68-1.16,1.26-1.72.8-7.47.07-8.62-.32-.49-.53-.98-1.05-1.47-1.58ZM78.2,154.45c-.25-.52-.24-1.49-.21-2.31.4-.26.52-.38.74-.84h1.47c.11-.21.21-.42.32-.63,2.28.04,4.55.07,6.83.11,1.07.76,1.66,2.39,1.37,4.2-.6.23-1,.69-1.26,1.26-3.9.73-7.2-.66-9.25-1.79ZM79.15,162.33v-2.1c.21-.25.42-.49.63-.74.81-.37,1.52-.46,2.21-.84.33.22.35.26.53.63,1.79-.01,1.96-.61,3.47-.53.11-.21.21-.42.32-.63h1.05c.84.88,1.68,1.75,2.52,2.63v2.52c-.4.81-1.44,1.26-2.21,1.68-.9-.09-.59-.37-1.05-.63h-3.78c-.11-.21-.21-.42-.32-.63-.42.04-.84.07-1.26.11-.65-.23-1.48-1.12-2.1-1.47ZM80.3,169.79c.05-1.32.57-1.06.63-2.31.52-.2.93-.18,1.58-.11.11-.21.21-.42.32-.63h1.05c.07.04.14.07.21.11.67,1.68,3.76-.95,5.57-.11.5.23.09.6.84.53.87.45,1.11,1.37,1.68,2.1-.03,1.46-.77,1.98-1.26,2.94-2.59.3-4.42-.97-6.09.11-2.23-.18-3.08-1.74-4.52-2.63ZM83.24,177.77c-.04-.46-.07-.91-.11-1.37.28-.27.49-.4.63-.84,1.02-.45,1.46-.22,2.21-.84,4.17-.11,8.45-.4,8.51,3.57-.35.43-.52.41-.53,1.26-.82.45-1.43.88-2.94.84-.14-.21-.28-.42-.42-.63-3.59.38-5.76-.13-7.35-2ZM88.6,187.86c-.11-.21-.21-.42-.32-.63h-.74c-.74-.42-1.01-1.05-.95-2.31.54-.43,1.03-.82,1.37-1.47h3.68c.14-.21.28-.42.42-.63,2.86-.07,4.21.48,5.25,2.1.6,1.39-.24,2.74-.63,3.47-1.12.04-2.24.07-3.36.11-.14-.21-.28-.42-.42-.63h-4.31ZM93.33,195.95c-.14-.21-.28-.42-.42-.63h-1.47c-.22-.11-.24-.47-.53-.63-.21-.43-.24-1.17-.21-1.89.76-.39,1.29-1.09,2-1.37,1.78-.71,2.26.48,3.68-.63,2.38.12,2.57,1.75,4.41,2.52.12.79.14,1.87-.11,2.52-1.03.19-1.26.66-2.84.63-.97-1.19-2.73.15-4.52-.53ZM96.9,203.31h-1.26l-.84-.84c-.04-.49-.07-.98-.11-1.47,1.15-1.3,2.61-1.69,5.04-1.47.14-.21.28-.42.42-.63,3.19-.03,3.42,1.43,5.25,2.52v2.21c-.21.28-.42.56-.63.84h-3.05c-.07-.18-.14-.35-.21-.53h-4.31c-.11-.21-.21-.42-.32-.63ZM110.56,211.61l-.11.32c-1.12.04-2.24.07-3.36.11-.38-.15-.18-.53-.74-.63-1.3-.23-3.26.63-3.26.63-.14-.21-.28-.42-.42-.63-1-.5-2.16-.05-2.73-.95v-2c.82-1.16,3.91-.68,5.04-1.58,2.39.16,4.7.55,5.57,2.21v2.52ZM137.67,185.34v1.68c-.67.63-1.33,1.26-2,1.89-.7.04-1.4.07-2.1.11-1.16-1.1-2.78-1.9-3.68-3.26-.69-1.54.25-2.99.95-3.57,3.28.18,4.54,1.84,6.83,3.15ZM126.11,174.2c2.94-.03,5.11,1.46,6.93,2.52v2.21c-.7.67-1.4,1.33-2.1,2h-2.73c-.18-.5-2.38-2.2-2.94-2.42-.04-1.09-.07-2.17-.11-3.26.32-.35.63-.7.95-1.05ZM117.18,186.49v-2.31c.9-.38,1.5-1.39,2.21-2,3.15.16,5.77,2,5.67,5.88-.31.25-.48.29-.63.74-1.87.88-6.02-1.59-7.25-2.31ZM122.54,194.69c-.31-.65-.24-1.97-.21-2.94.49-.49.98-.98,1.47-1.47,3.58-.03,4.25,1.84,6.41,3.15v2.73c-.4.26-.52.38-.74.84-2.09.4-5.45-1.52-6.93-2.31ZM137.04,204.15c-.4.6-.44.04-.95.32-.11.21-.21.42-.32.63-1.4.72-2.68-.91-3.15-1.16h-1.47c-.11-.21-.21-.42-.32-.63h-1.26c-.42-.39-.84-.77-1.26-1.16-.25-.52-.24-1.49-.21-2.31.56-.53,1.12-1.05,1.68-1.58,2.66.47,5.95,1.9,7.25,3.89v2ZM138.93,195.85c-.64-.33-1.19-.1-2-.53-.74-.39-1-1.51-1.89-1.89v-2.21c.28-.32.56-.63.84-.95,2.82-.05,7.22,1.59,8.09,3.36v2.1c-.6.23-1,.69-1.26,1.26-2.31.43-2.51-.5-3.78-1.16ZM150.38,202.99c-.21.25-.42.49-.63.74-3.2,1.54-5.75-1.43-7.25-2.31v-2.21c.44-.31.7-.63,1.16-.95,1.89.33,2.87.52,4.2,1.26l.42.63h.84c.43.35.49.87,1.05,1.16.19.4.24,1,.21,1.68Z"/>
      <path class="cls-1" d="M238.95,102.97c1.4.04,2.8.07,4.2.11.11-.21.21-.42.32-.63h3.05c-.14-.25-.28-.49-.42-.74h-9.04c-.11-.21-.21-.42-.32-.63-1.19.04-2.38.07-3.57.11-.14-.21-.28-.42-.42-.63h-2.84c-.07.18-.14.35-.21.53-.88.14-.91.22-1.58.63v.11c2.05.44,4.15.95,5.78,1.79h4.62c.14-.21.28-.42.42-.63Z"/>
      <path class="cls-1" d="M282.87,104.23h2.84c.18-.18.35-.35.53-.53.21-.43.24-1.17.21-1.89-.36-.25-3.53-1.89-4.73-1.26-.61.32-1.06.84-1.79,1.16v.74h.84c.56.72,1.68,1.01,2.1,1.79Z"/>
      <path class="cls-1" d="M248.83,101.71c-.15.37-.09.33-.42.53v.11c.63.04,1.26.07,1.89.11.11.21.21.42.32.63.42-.04.84-.07,1.26-.11.14.21.28.42.42.63h5.88v-1.79c-.18-.18-.35-.35-.53-.53-2.31-.94-6.64.41-8.83.42Z"/>
      <path class="cls-1" d="M297.05,102.97c.6.11.53.17.74.63h4.62c.04-.42.07-.84.11-1.26-.71-.16-.77-.39-1.26-.63h-2c-.11-.21-.21-.42-.32-.63h-3.89c-.55.69-2.65,1.22-3.36,1.58-.07.11-.14.21-.21.32.18.14.35.28.53.42v.21c1.72.04,4.28.34,5.04-.63Z"/>
      <path class="cls-1" d="M307.56,103.6c.45.18.43.21.63.63,2.11-.16,4.14-.1,5.25-1.37v-.42c-1.24-1.41-3.43-1.11-5.78-1.37-.04.84-.07,1.68-.11,2.52Z"/>
      <path class="cls-1" d="M137.88,110.43v-2.94h-3.15c-.14-.21-.28-.42-.42-.63h-1.47c-.4-.26-.57-.88-1.05-1.16-.29-.6-.24-1.81-.21-2.73-.63-.04-1.26-.07-1.89-.11.07,2.18.2,3.85-1.16,4.62-.03,1.7-.29,4.15.53,5.04-.66,2.76-2.36,3.29-2.31,7.04,1.09.27,1.09-.3,1.68-.53,1.79.04,3.57.07,5.36.11.37-.97,1.38-1.32,2.21-1.68.75-1.63-.38-2.66-.42-4.31.75-.96,1.24-2.08,2.31-2.73Z"/>
      <path class="cls-1" d="M202.28,108.53c.07.11.14.21.21.32.07-.04.14-.07.21-.11-.14-.07-.28-.14-.42-.21Z"/>
      <path class="cls-1" d="M225.92,108.53c-.07.18-.14.35-.21.53-1.68.04-3.36.07-5.04.11-.49.25-.12.64-.95.53-.82.87-.32,4.56-.32,6.09,0,3.25-1.1,6.27,0,8.72v1.37c.37.81,1.92,2.13,2.42,3.05h.42c.21-.18.42-.35.63-.53.42-.9.24-2.84.21-4.1-.77-.84-1.8-1.66-2.31-2.73-.49-1.03.38-2.16.53-2.52v-3.47c.24-.76,1.34-3.03,2-3.36,2.32-1.17,6.84.09,7.77,1.79h2.84c.2-.75.51-2.51,1.16-2.84-.49-1.39-6.96-2.4-9.14-2.63Z"/>
      <path class="cls-1" d="M267.95,143.21c.91-1.94-.84-3.71-1.16-4.52-.61-1.58.78-3.28,1.16-4.1.83-1.79-.88-3.21-1.16-3.99-.43-1.23.42-1.94.63-2.42v-5.15c-.16-.34-.99-1.1-1.16-1.47v-5.36c-.39-.32-.77-.63-1.16-.95-.71-1.29-1.16-2.31-1.16-4.2-.59-.63-1.36-1.11-1.79-1.89h-4.62c-.14.21-.28.42-.42.63-.42-.04-.84-.07-1.26-.11-.11.21-.21.42-.32.63-1.02.52-1.3-.63-1.89-.63-2.89-.01-6.69.52-8.83-.53h-2c-.11-.21-.21-.42-.32-.63h-3.89c-.38.5-.79.95-1.37,1.26v.63c2.2.54,4.04,2.03,5.88,2.94h6.3c.14-.21.28-.42.42-.63,1.19.04,2.38.07,3.57.11.11-.21.21-.42.32-.63h1.47c.23-.12.07-.39.42-.53v-.11s5.73,2.26,6.09,2.42c.7.48,3.85,7.13,3.15,8.72-.24.55-1.15,3.14-.53,4.41.35.72,1.11,1.91,1.16,2.94-.6.52-1.24,4.15-.63,5.57.21.18.42.35.63.53.84,2.45-1.79,4.22-.63,6.93.26.6,1.14,2.13.63,3.57-.15.42-.97,1.17-1.16,1.58v1.37c-.21.14-.42.28-.63.42v2.52c-.38.91-1.13,1.19-1.16,2.63l.74.74h1.47c.67-.6,1.33-1.19,2-1.79.32-.54,1.16-5.71.63-6.93-.2-.47-1.06-1.19-.63-2.42.15-.41.97-1.19,1.16-1.58Z"/>
      <path class="cls-1" d="M278.67,109.8c-.14-.21-.28-.42-.42-.63h-2.31c-.07.18-.14.35-.21.53h-.74c-.53.54.03,1.28-.32,2.1-.18.11-.35.21-.53.32v1.37c-.39.32-.77.63-1.16.95-.85,1.83.4,6.21,1.16,6.72-.07,1.84-1.77,5.52.32,6.62,1.29,2.88-1.96,4.42-.95,6.72.29.67,1.25,1.4,1.3,2.6.53-1.97,2.59-4.21,1.74-6.07-.14-.31-.91-1.05-1.05-1.37-.69-1.5.52-2.84.53-4.31,0-1.52-.17-1.78-.53-2.63-.85-2.01.5-6.36.53-7.88,1.45-1.23,3.37-2.09,4.94-3.15.88-.04,1.75-.07,2.63-.11,1.54,1.96,2.56,3.03,6.2,2.94.53-.95,1.52-1.89,1.89-2.84,2.55-.34,4.76,1.89,7.14,2.31.14-.21.28-.42.42-.63h1.05c.14.21.28.42.42.63h3.78c.49-.42.98-.84,1.47-1.26v-1.68c-2.01-2.15-7.18-.95-11.24-1.26-.94-.07-2.07,1.91-3.99,1.16-.76-.3-3.01-2.46-4.41-1.79-.14.21-.28.42-.42.63-.14.05-5.54.59-5.67.53-.11-.21-.21-.42-.32-.63-.42.04-.84.07-1.26.11Z"/>
      <path class="cls-1" d="M274.82,137.09c-.08.3-.12.59-.12.87.1-.32.13-.61.12-.87Z"/>
      <path class="cls-1" d="M273.52,141.95c.35.81,1.86,2.64,1.16,4.31-.25.59-1.07,1.2-1.16,2-.3,2.94.64,4.07.63,6.93.25.25.49.49.74.74,1.31-.17,2.54-.65,4.73-.63.14.21.28.42.42.63h3.36c.18-.18.35-.35.53-.53.16-.33.22-.68.21-1.26-.21-.25-.42-.49-.63-.74-2.23.03-4.2-.14-5.36-.63-1.07-.64-.36-1.01-.95-2.21-.18-.07-.35-.14-.53-.21-.04-.7-.07-1.4-.11-2.1-.18-.39-.88-1.6-1.05-2v-7.04c-.21-.14-.42-.28-.63-.42-.12-.27-.18-.55-.18-.83,0,.03-.02.06-.03.1-.29.85-1.91,2.16-1.16,3.89Z"/>
      <path class="cls-1" d="M320.38,119.78c.11-.04.21-.07.32-.11.28-.21.56-.42.84-.63v-8.62c-.75-.2-.95-.08-1.26-.74-.92.08-2.7,1.39-4.31.63-.11-.21-.21-.42-.32-.63-.42.04-.84.07-1.26.11-.14-.21-.28-.42-.42-.63h-3.47c-.44.7-.68.99-.63,2.31.64.71,1.29,1.45,1.68,2.42,1.33.04,2.66.07,3.99.11.38-.33.71-.67.95-1.16h2.21c.25.21.49.42.74.63.75,1.63-.39,2.98-.42,4.94l1.37,1.37Z"/>
      <path class="cls-1" d="M348.85,110.95c-.11-.21-.21-.42-.32-.63h-7.77c-.14-.21-.28-.42-.42-.63-.6.04-1.19.07-1.79.11-.85-.32-.39-.63-2.21-.63-1.2,2.58-.06,3.74,1.05,5.78.45.19,1.6.09,2.31.21.93-.88,1.95-1.83,3.78-1.79.14.21.28.42.42.63h3.36c.11-.21.21-.42.32-.63h2.84c1.67,1.75,1.98,1.34,4.83,1.79h.11c.49-1.54,1.29-2.05,1.26-4.1-.6-.63-1.19-1.26-1.79-1.89-3.04,0-3.68,1.27-5.99,1.79Z"/>
      <path class="cls-1" d="M364.93,110.32c-.14-.21-.28-.42-.42-.63h-2.73c-.54.85-.79,1.32-.74,2.94.84.84,1.68,1.68,2.52,2.52.61.25,1.13.11,1.89.53.53.29,2.22,3.32,2.63,3.99h1.05c.77-.72,1.18-1.72,2.42-1.68.18-.38.15-.43.53-.63-1.47-1.71-3.42-3.78-3.36-6.93-1.26-.04-2.52-.07-3.78-.11Z"/>
      <path class="cls-1" d="M332.78,155.92c.28-.36.24-1.22.21-1.89l-1.05-1.05c-.65-.26-2.16.26-3.15-.11-.57-.21-1.45-1.03-2-1.37-.18-1-1.3-4.34-.63-5.78.17-.36,1-1.12,1.16-1.47v-2c.18-.07.35-.14.53-.21v-3.05c.21-.18.42-.35.63-.53v-1.89c.18-.11.35-.21.53-.32v-1.37c.21-.14.42-.28.63-.42.74-1.7-.81-2.95-1.16-3.68v-2.84c.7-.63,1.4-1.26,2.1-1.89.43-.95.21-2.89.21-4.2v-11.45c-.81-.04-1.61-.07-2.42-.11-.04,1.05-.07,2.1-.11,3.15-.21.14-.42.28-.63.42v5.67c.22.51,1.14,1.72.63,3.05-.21.18-.42.35-.63.53v1.37c-.18.07-.35.14-.53.21-.92,1.97,1.48,3.35.53,5.46-.39.32-.77.63-1.16.95-.61,1.2-.94,4.36,0,5.46-.27,1.6-1.14,3.57-1.68,4.83-.49,1.15.49,1.82.63,2.31-.04.88-.07,1.75-.11,2.63-3.34,1.34-1.75,5.99-1.68,9.46h4.31c.41.17,1.26,1.13,1.68,1.26h1.37c.59-.45.91-1.33,1.79-1.16Z"/>
      <path class="cls-1" d="M374.8,117.15c-.49.04-.98.07-1.47.11.52.73.72.34,1.37.74.73.45,1.32,1.63,2,2.21.04-1.72.07-3.43.11-5.15-.18-.07-.35-.14-.53-.21-.46.76-1.23,1.57-1.47,2.31Z"/>
      <path class="cls-1" d="M45.73,118.52v-1.79c-.98-.04-1.96-.07-2.94-.11-.04.39-.07.77-.11,1.16.21.25.42.49.63.74h2.42Z"/>
      <path class="cls-1" d="M183.79,126.08c-.2-.55-.38-.47-.42-1.26-.71-.28-3.32-.36-3.89-.74-.4-.27-.56-.88-1.05-1.16-.29-.6-.24-1.81-.21-2.73-2.71-1.85-3.3-3.64-8.2-3.57-.04.6-.07,1.19-.11,1.79,1.08.74,2.46,1.43,3.68,1.89,1.47.87,2.18,3.79,2.1,6.2h1.37c.55.2.27.58,1.26.63.32.67.24,2.05.21,3.05-2.18,1.54-4.6,1.77-8.41,1.37-.07.14-.14.28-.21.42-1.02.5-1.09-.22-1.68-.42-.39.04-.77.07-1.16.11-.77-.26-1.43-2.22-1.58-3.05.41-.47,1.16-2.97,1.16-3.78-.21-.25-.42-.49-.63-.74h-4.73c-.65-.37-1.26-1.53-1.58-2.21-.77-.04-1.54-.07-2.31-.11-2.16,3.27-4.53,5.8-7.67,1.68h-1.47c-.18.21-.35.42-.53.63-3.05.59-3.53-1.68-7.14-1.68-.41.96-1.19,2.24-2.1,2.73-.21.43-.24,1.17-.21,1.89.89.87,1.72,1.67,1.68,3.47-.55.6-.95,1.27-1.68,1.68v.11c-.01.58.03.95.21,1.26h4.31c.07-.04.14-.07.21-.11v-.74c-1.39-.04-1.97-.82-2.84-1.37.04-.77.07-1.54.11-2.31,1.2-.62,2.3-2,3.68-2.52h7.77c.97.36,1.75,1.48,2.63,2v2.21c-1.37.96-1.78,2.08-3.89,2-.04.21-.07.42-.11.63.92.98,2.13,1.12,2.94,2.42h2.94c.18-.45.58-.89,1.05-1.05.44-1.53-.37-2.62-.95-3.47-.99-2.48,2.76-4.38,3.57-5.78h2.84c.39.39.77.77,1.16,1.16,1.47,3.17-1.41,5.83-2.52,7.35.35.45.84,1.27,1.05,1.79h4.1c.18-.21.35-.42.53-.63,1.16.04,2.31.07,3.47.11.14-.21.28-.42.42-.63,1.41-.56,2.2.2,3.68-.63,1.52.99,2.77,1.02,5.04,1.26.59-.61,1.48-1.21,2.42-1.16.75-3-.56-6.6,1.68-7.99Z"/>
      <path class="cls-1" d="M144.18,118.31v.32c.18-.04.35-.07.53-.11v-.11c-.18-.04-.35-.07-.53-.11Z"/>
      <path class="cls-1" d="M133.78,126.4c.04-.53.07-1.05.11-1.58-.39-.39-.77-.77-1.16-1.16-.35-.17-1.12-.06-1.68-.21-1.44,1.26-3.17-.35-5.36-.53-.94,1.59-2.84,1.69-4.1,3.05v.42c.52.56,1.41.67,1.79,1.37h3.36c.14-.21.28-.42.42-.63,1.65-.07,3.15.17,3.57,1.05.93-.24,2.41-.77,3.05-1.79Z"/>
      <path class="cls-1" d="M314.39,156.45c1.66-1.44,1.96-4.31,3.05-6.3v-5.25c.15-.5.95-1.24,1.16-1.68v-6.93c.21-.21.42-.42.63-.63v-1.89c.18-.11.35-.21.53-.32.4-.91-1.18-3.15-.53-4.83.65-1.69,1.71-2.21,1.68-4.94-.25-.21-.49-.42-.74-.63-.31.56-2.45,1.73-3.15,1.58-.34.34-.54,1.01-.84,1.37.17,1.01.86,2.6,1.16,3.47-1.04,1.52-1.16,3.71-1.16,6.3v2.42c-.21.14-.42.28-.63.42v1.37c-.18.11-.35.21-.53.32-.82,1.95,1.32,2.92.53,4.83-.18.11-.35.21-.53.32-.4.88-.2,1.78-.63,2.63-.18.07-.35.14-.53.21v4.31c-.21.14-.42.28-.63.42v1.89c-.16.38-.42.17-.53.84.18.11.35.21.53.32.2.51.45.47,1.16.42Z"/>
      <path class="cls-1" d="M368.19,123.03c-.94.42-1.47,1.22-2.42,1.58-.04,1.26-.07,2.52-.11,3.78-.41,1.07-1.21,2.73-1.68,3.78-.06.13.52,4.79.53,5.99-.78.55-.92,1.43-2.21,1.47-.04,1.16-.07,2.31-.11,3.47,1.44.4,1.95-.69,2.73-1.05h2.73c.58.53,1.42,1.17,1.47,2.21.39.04.77.07,1.16.11.63-.6,1.26-1.19,1.89-1.79-.07-3.43-.07-6.71,2.1-7.88.38-.81.24-2.52.21-3.68h-1.89c-.25.55-.94.72-1.16,1.16-.51,1.03.18.98-.63,1.89.16.61.46.46.63.84.71,1.59-1.97,4.87-2.73,5.25h-1.89c-.49-.49-.98-.98-1.47-1.47-.04-.67-.07-1.33-.11-2,.77-.7,1.54-1.4,2.31-2.1v-2.42c-.17-.37-1.35-2.37-1.16-2.94.32-.94,1.44-1.75,1.89-2.63,1.1-.17,1.23-.05,1.89-.63,1.43.29,2.08,1.17,4.1,1.16,1.04-.87,1.44-2.07,1.37-4.1-1.4.77-6.61,1.95-7.46,0Z"/>
      <path class="cls-1" d="M188.42,132.91v2.1c.48.39.73-.03,1.05.74.57-.34,1.05-.9,1.58-1.16h7.77c.9-.43.61-.69,2.21-.53,1.04-1.06,5.18.22,5.78,1.68h1.68c.56-.53,1.12-1.05,1.68-1.58.57-1.24-.36-3.5.21-4.94.15-.39.94-.62,1.16-.95.59-.92.65-1.98.63-3.47-.39-.39-.77-.77-1.16-1.16-1.16-.07-2.31-.14-3.47-.21-.11.21-.21.42-.32.63h-6.09c-.49.22-1.04.92-1.47,1.16h-4.31c-.04.6-.07,1.19-.11,1.79,1.94.53,3.94-1.46,6.51-.53,1.17.42,2.25,1.42,3.26,2v2.21c-1.03,1.17-2.16,1.53-4.62,1.47-.14-.21-.28-.42-.42-.63h-3.47c-.11.21-.21.42-.32.63h-2.73c-.32-.39-.63-.77-.95-1.16-1.71-.02-3.42.78-4.1,1.89Z"/>
      <path class="cls-1" d="M52.67,134.59c.08-1.2.59-.95.63-2.21-.55-.65-.85-.9-1.26-1.79-.48-.39-.73.03-1.05-.74h-.11c-1.37,1.18-1.97,2.45-1.89,5.15,1.42.61,2.37-.34,3.68-.42Z"/>
      <path class="cls-1" d="M39.32,132.81c-1.11-.02-2.38-.96-2.84-1.79h-1.79c-.53.53-1.05,1.05-1.58,1.58-.17.34-.23.76-.21,1.37h4.2c.33.12,1.42,1.13,1.68,1.26.86.43,1.11.01,1.68,1.16h1.16c.3-.51.74-.97,1.26-1.26v-2.84c-.18-.18-.35-.35-.53-.53-1.05-.49-2.33.42-3.05,1.05Z"/>
      <path class="cls-1" d="M227.08,147.72c-.2-.48-.99-1.75-1.16-2.21-.37-1.03-.05-1.55-.53-2.42-.39-.28-.77-.56-1.16-.84-.43-.77-.23-1.24-.63-2-.34-.64-1.36-1.35-1.68-2.1v-1.89c-.21-.21-.42-.42-.63-.63-.31-1.08.43-1.25.63-1.68v-2.31s-.07-.07-.11-.11h-1.68c-.18.18-.35.35-.53.53-.07.11-.14.21-.21.32.16.6.48.44.63.84.5,1.29.04,2.84.53,4.1.21.18.42.35.63.53.62,1.63-.61,2.51-.63,4.1,1.25.83,3.18,1.35,3.99,2.84.46,1.23-.69,2.64-1.05,3.47-.8,1.79.45,4.6.53,5.78,1.02.04,2.03.07,3.05.11v-6.41Z"/>
      <path class="cls-1" d="M127.37,135.22c.14-.21.28-.42.42-.63h2.52c.65-.31.54-.61,1.68-.53.25-.25.49-.49.74-.74v-.53c-.65-.19-1.03-.61-1.37-.74-1.09-.41-1.68.59-2.21.74-1.89.53-4.01-.45-5.04-.74-1.01,1.2-.85.1-1.89.63-.45.23-.74.97-1.26,1.26v.53c.98.26,4.96,1.31,6.41.74Z"/>
      <path class="cls-1" d="M146.28,132.7h-.42c.21.21.04.11.42.21v-.21Z"/>
      <path class="cls-1" d="M147.02,132.81c-.18-.04-.35-.07-.53-.11.21.21.1.15.53.21v-.11Z"/>
      <path class="cls-1" d="M201.76,154.45c.21-.14.42-.28.63-.42v-1.37c.84-1.82,2.84-1.43,2.84-4.83-.21-.25-.42-.49-.63-.74h-2.42c-.44.27-1.11,1.06-2.31.63-.14-.21-.28-.42-.42-.63-.18-.1-3.66-.6-3.89-.63-.04-.77-.07-1.54-.11-2.31,3.4-3.88,5-1,10.19-.95.42-.39.84-.77,1.26-1.16v-2.31c-.94-1.09-2.38-1.35-4.73-1.26v.32c-1.04.54-1.91.79-2.52,2-2.87,0-2.4-.69-3.89-1.26-1.26.04-2.52.07-3.78.11l-.63.63c-.96-.55-2.16-1.2-3.47-1.26l-1.26,1.26v2.21c.49.46.98.91,1.47,1.37.85,1.87-.29,3.83-.32,5.67.54.28.72.89,1.16,1.16,2.02,1.21,4.25,1.21,5.67,3.05.44.56.27,2.4.63,3.15.56.56,1.12,1.12,1.68,1.68,2.16.94,3.57-.81,4.83-1.58v-2.52Z"/>
      <path class="cls-1" d="M197.56,165.17c.74-1.6-.31-3.06-.42-4.31-4.42.05-3.07-2.26-4.73-2.94-1.95-.8-6.87-2.81-7.88-4.73v-1.37c-.21-.21-.42-.42-.63-.63.27-.45.5-.43.63-1.05-1-1.31-2.34-4.11-4.41-4.2-.85-1.87.29-3.83.32-5.67-.56-.04-1.12-.07-1.68-.11-.25.21-.49.42-.74.63v1.68c.32.28.63.56.95.84,1.69,3.65-2.16,4.51-2.73,5.88-.54.26-1.57.24-2.42.21-.45-.77-1.58-1.58-2.52-1.79-.25.21-.49.42-.74.63v1.16c.64.71,1.3.64,1.89,1.37,1.47-.41,2.97-.98,4.73-.63.82.82,2.48,1.78,3.05,2.63.6,1.39-.24,2.74-.63,3.47-1.3.04-2.59.07-3.89.11-.29-.1-.25-.52-.42-.63h-4.94c-1.46-.67-3.31-1.55-4.62-2.42-.78.57-.47,3.42-.42,4.73,2.31,1.54,3.55,3.44,3.47,7.46,1.71,1.15,5.26,2.38,6.3,4.41.28.55.97,3.58,1.26,3.78,1.99,1.36,6.59,1.65,8.09,3.99,2.21.03,4.46-.88,5.25-2.31v-.84c.34-.66,1.48-1.41,1.79-2.21v-3.05c.26-.58.96-1.27,1.26-1.89.51-.06,3.05-.51,3.26-.63.53-.53,1.05-1.05,1.58-1.58ZM176.23,163.8c-.14-.21-.28-.42-.42-.63h-1.47c-.42-.22-.64-.99-1.16-1.26-.19-.4-.24-1-.21-1.68.31-.25.48-.29.63-.74,1.6-.75,3.43-.92,5.67-.74.11-.21.21-.42.32-.63,2.58-.03,6.44,1.84,7.56,3.26v1.89c-.25.35-.49.7-.74,1.05h-3.36c-.14-.21-.28-.42-.42-.63-2.14.04-4.27.07-6.41.11ZM189.47,170.31c-.42.49-2.17,2.15-3.57,1.47-.11-.21-.21-.42-.32-.63-.63.04-1.26.07-1.89.11-.54-.22-.27-.57-1.26-.63-.26-.54-.24-1.57-.21-2.42.32-.32.63-.63.95-.95,3.3-.04,4.15.13,6.09,1.26.2.42.24,1.09.21,1.79Z"/>
      <path class="cls-1" d="M216.78,146.67c-.21-.18-.42-.35-.63-.53v-5.25c-.21-.25-.42-.49-.63-.74h-1.79v4.2c.22.49,1.06,2.37.53,3.57-.39.32-.77.63-1.16.95-1.07,2.02-2.1,4-3.99,5.15v1.26c3.64-.04,5.85-2.65,8.2-4.1,0-1.79,0-3.18-.53-4.52Z"/>
      <path class="cls-1" d="M145.23,142.05c1.1.03,1.85.61,2.42,1.16,1.28-.04,1.89-1.19,3.47-.63.14.21.28.42.42.63.47.27,2.85.58,3.47.63l1.05-1.05c.17-.34.23-.76.21-1.37h-6.51c-.86.06-.69-.53-1.16-.74h-3.15c-.23.29-.24.79-.21,1.37Z"/>
      <path class="cls-1" d="M172.44,173.57c-2.24-1.23-5.28-2.29-6.83-4.41-.04-1.23-.07-2.45-.11-3.68-.54-.05-4.84-3.1-5.15-3.68v-1.37c-.21-.18-.42-.35-.63-.53v-2.94c-.76-.8-1.91-1.72-2.31-2.84v-3.05c-.18-.07-.35-.14-.53-.21v-2c-.24-.49-.57-.19-.63-1.16-1.52-.32-1.35.18-2.1.53-1.49.69-4.27-.54-5.36-.63-.62.63-1.44,1.18-2.42,1.16v1.89c.74.04,1.47.07,2.21.11.56-.6,1.12-1.19,1.68-1.79h2.84c.7.42,4.44,3.25,3.57,5.25-.83,1.91-3.28,3.54-6.62,2.52-.21.18-.42.35-.63.53-.07.11-.14.21-.21.32.06.42.07.39.21.63h.84c.14-.21.28-.42.42-.63,3.79-.03,4.5,1.68,6.93,2.94.25.52.24,1.49.21,2.31-.4.26-.52.38-.74.84h-1.47c-.11.21-.21.42-.32.63h-4.31c-.49.25-1.07,1-2.31.63-.52-.15-1.26-1.05-1.68-1.26h-.95c-.07-.18-.14-.35-.21-.53h-1.47c-.42-.53-.84-1.05-1.26-1.58-.04-.46-.07-.91-.11-1.37.71-.62,1.13-1.52,2.21-1.47.04-.42.07-.84.11-1.26-2.85-1.83-6.53-3.23-2.94-7.46-.88-1.09-1.02-3.38-1.68-4.62.54-.84,1.17-2.02,1.16-3.36-.21-.25-.42-.49-.63-.74h-2.21c-.39.35-.77.7-1.16,1.05-.79,1.83.75,4.24-.21,4.83-.02,2.38,1.23,5.93,2.31,7.25-.42,2.11-.95,3.53.53,5.25.42.39.84.77,1.26,1.16v4.73c1.16,2.54,2.85,2.15,2.84,6.41-.53.49-1.05.98-1.58,1.47.51.29,1.3.14,1.89.21,1.81,1.79,4.78,2.91,4.83,6.41-.18.11-.35.21-.53.32v.74c1.08.43,1.44,1.01,2.31,1.68.35.04.7.07,1.05.11.47.4.79,1.42,1.37,1.68h.84c.52.35.56.97,1.26,1.26.2,1.25.14,2.52-.42,3.26.88.87,1.2.16,2,.63,1.08.64,2.63,1.75,3.78,2.31h.84c.73.46,1.05,1.44,1.89,1.89v2c2.21.6,7.07-2.16,7.14-4.31.78-.39,2.21-1.54,3.15-1.26,1.53-1.26,2.59-4.59,3.99-5.25.93-.44,2.3-.22,3.05-.53.35-.35.7-.7,1.05-1.05.33-.69.24-2.13.21-3.15-4.81.09-10.1-2.13-10.3-6.83ZM150.8,171.79c-.84-.84-1.68-1.68-2.52-2.52v-2.31c.45-.24.67-.53,1.05-.84,1.87,0,2.98.08,4.2.63.14.21.28.42.42.63,1.37-.04,2.73-.07,4.1-.11.14.21.28.42.42.63h1.47c.21.11.25.47.53.63.26.54.24,1.57.21,2.42-1.96,1.38-7.01,2.3-9.88.84ZM160.89,179.77c-.14.21-.28.42-.42.63-1.9.85-5.91-1.79-6.41-2.73-.56-1.28.32-2.13.63-2.84.74,0,.92-.01,1.26-.63.81.08.42.42.84.63.56-.04,1.12-.07,1.68-.11.25.25.49.49.74.74,1.67-1.24,6.62.97,7.14,1.16.04.81.07,1.61.11,2.42-.31.15-1.26-.03-1.68.21-.14.21-.28.42-.42.63-1.16-.04-2.31-.07-3.47-.11ZM172.65,187.23h-1.47c-.41.2-1.19,1.1-1.68,1.26-2.81.9-6.11-1.8-7.46-2.63v-2.73c.11-.11.21-.21.32-.32h3.26c.14.21.28.42.42.63,1.72-.04,3.43-.07,5.15-.11l.74.74h1.37c.04.77.07,1.54.11,2.31-.37.28-.52.38-.74.84Z"/>
      <path class="cls-1" d="M105.52,142.68h2.31c.04-.25.07-.49.11-.74-.98-.04-1.96-.07-2.94-.11.18.28.35.56.53.84Z"/>
      <path class="cls-1" d="M123.38,151.3h5.88c.35.39.7.77,1.05,1.16h.42c.64-.56.38-.74.84-1.58.17-.31,1.06-1.17,1.16-1.47.13-.41-1.75-3.13-1.79-4.62h-1.26c-.04.25-.07.49-.11.74-.78,1.47-2.3,2.21-4.62,2.21-.53-.04-1.05-.07-1.58-.11-.54.27-.5.82-1.58.53-.07.04-.14.07-.21.11v1.16c.59.63,1.37,1.1,1.79,1.89Z"/>
      <path class="cls-1" d="M365.24,147.62c-.44.65-1.88,2.07-1.26,3.57.19.45,1.01,1.89.53,3.05-.62,1.46-2.19,2.36-2.84,3.78v4.73c-.11.32-.55.56-.74.95-1.45.23-3,2.07-5.57,1.26-.35-.11-.3-.51-.53-.63h-1.37c-.14-.21-.28-.42-.42-.63-.6.04-1.19.07-1.79.11-.14-.21-.28-.42-.42-.63h-8.41c-.47-.24-.92-.88-1.37-1.16-1.4-.87-4.38.95-4.73,1.16v1.89c.28.21.56.42.84.63h4.2c.35-.32.25-.49.84-.63.54-.18,2.93.91,3.26,1.58,1.12.07,2.24.14,3.36.21,1.54-1.31,3.34-.12,4.73.74v2.73c-1.28.88-2.38,2.28-3.78,3.05-.63,1.44-.19,3.63-.84,5.04-.51,1.09-2.67,2.25-3.89,2.63-.98-.04-1.96-.07-2.94-.11-.49.26-.14.59-1.16.63-.04.07-.07.14-.11.21.17.59.47.44.63.84.65,1.61-.62,4.1-1.26,4.62h-.95c-.11.21-.21.42-.32.63h-1.47c-.14.21-.28.42-.42.63-1.12-.04-2.24-.07-3.36-.11-.23-.61-.73-1.07-1.26-1.37v-1.58c.51-.35.9-1.22,1.37-1.47.8-.43,1.36-.2,2-.53,1.06-.54,1.54-1.77,2.94-2.31-.03-1.47-.53-1.57-.53-3.15.35-.39.46-.63.74-1.16.87-1.18,2.08-.36,3.15-.84.94-.42,1.92-1.25,2.84-1.68.19-.37.34-1.29.11-1.79v-.21h-3.47c-.5.22-.22.59-1.26.63-.12,1.84-1.51,2.73-1.89,4.41-2.28,1.01-5.57,3.35-6.72,5.99v5.36c-.16.35-.98,1.1-1.16,1.47v1.37c-1.18,2.91-4.7,5.53-7.25,7.14-.04.07-.07.14-.11.21,1.65.04,3.29.07,4.94.11,1.05-1.02,2.1-2.03,3.15-3.05.79-1.53,1.14-3.03,2.52-3.89.65-.4,2.34-.24,3.05-.53.75-.31,1.49-1.44,2.1-1.79h.84c1.38-.71,1.45-3.93,2.52-5.04.66-.69,4.17-2.31,5.04-2.52.39.04.77.07,1.16.11.88-.54,1.26-1.87,2.31-2.31.04-2.87,2.49-2.84,3.47-4.62.98-1.79,1.17-3.75,1.16-6.51,1.53-1.35,2.3-2.81,5.15-2.63.36-.82,1.19-1.04,1.68-1.68.04-.32.07-.63.11-.95.76-1.59,1.93-4.06,3.47-4.94-.05-4.41,0-5.91,2.73-7.35.55-.29.86-1.43,1.26-1.89-.15-.95-.82-1.56-1.16-2.31-1.58.04-1.78.68-3.47.53Z"/>
      <path class="cls-1" d="M164.14,151.19c.31-.14.13,0,.32-.21.57-.5.5-2.28.53-3.26h-.32c-.18.25-.35.49-.53.74v2.73Z"/>
      <path class="cls-1" d="M355.89,149.41v1.37c-.38.97-1.41,2.16-1.89,3.15-1,.17-1.72,1.03-2.63,1.26h-.32c-.7,0-.48-.46-.84-.63h-2c-.11-.21-.21-.42-.32-.63-1.79.04-3.57.07-5.36.11-.94-.41-1.3-1.06-2.52-1.26-.6.56-1.19,1.12-1.79,1.68-.21.43-.24,1.17-.21,1.89,2.16.64,3.98-.51,5.46-.53h8.62c.41.17,1.28,1.13,1.68,1.26h2c.42-.39.84-.77,1.26-1.16.27-.62-.13-1.96.21-2.73.53-1.19,1.11-3,2.21-3.68v-.74c-.51-.22-.48-.46-1.05-.63-.63.72-2.11.47-2.52,1.26Z"/>
      <path class="cls-1" d="M231.49,155.18c1.87.56,3.18-1.43,5.46-.53.42.17,1.27,1.13,1.68,1.26h2.63c.46-.42.91-.84,1.37-1.26v-2.42c-5.46-.02-7.69.64-10.93,2.21-.07.25-.14.49-.21.74Z"/>
      <path class="cls-1" d="M288.02,154.66c.59.57,1.4,1.72,1.79,2.42h1.47c.67-.6,1.33-1.19,2-1.79v-2.31c-.21-.25-.42-.49-.63-.74h-2.94c-.34.76-1.16,1.71-1.68,2.42Z"/>
      <path class="cls-1" d="M251.25,156.45c.11-.21.21-.42.32-.63,1.58.04,3.15.07,4.73.11.14-.21.28-.42.42-.63h2c.04-.6.07-1.19.11-1.79-1.68-.04-3.36-.07-5.04-.11-.11-.21-.21-.42-.32-.63h-3.99c-.32.64-1.12,1.52-1.79,1.79v1.16c.21.25.42.49.63.74h2.94Z"/>
      <path class="cls-1" d="M304.72,152.77c-.57,1.1-4.14.68-5.78.63-.21.25-.42.49-.63.74v.42c.39.42.77.84,1.16,1.26h4.31c.67.26,1.48,1.03,3.05.63h.21c.6-.31,1.07-.85,1.79-1.16v-.63c-.59-.61-1.38-1.11-1.79-1.89h-2.31Z"/>
      <path class="cls-1" d="M222.25,175.78c.48.21,1.65.16,2.42.21l.53-.53c.26-.54.24-1.57.21-2.42-1.04-.72-2.15-1.93-3.26-2.52-.78-1.69.28-3.21.32-4.94-1.51-1.68-2.98-3.01-3.99-5.25-1.16-.04-2.31-.07-3.47-.11-.07.18-.14.35-.21.53-.74.04-1.47.07-2.21.11-.14.21-.28.42-.42.63-.6-.04-1.19-.07-1.79-.11-.11.21-.21.42-.32.63h-3.26c-.07.18-.14.35-.21.53l-2.63.63c-.04.6-.07,1.19-.11,1.79,3.83,1.01,7.94-.76,10.4-1.16.84.61,1.05.68,2.63.63.17.27,2.54,3.42,2.63,3.47.73.39,1.13.15,1.58.74.27.35.35,1.51.53,1.79.04.04.07.07.11.11,0,0-.52,3.34-.53,4.2.35.35.7.7,1.05,1.05Z"/>
      <path class="cls-1" d="M248.51,164.54h1.47c.36-.15.14-.47.74-.63.78-.16.67.49,1.16.63.6-.04,1.19-.07,1.79-.11.14.21.28.42.42.63,1.63.82,2.81-1.57,4.83-.63.11.21.21.42.32.63,1.53.84,3.44,1.34,5.04,1.79.25-.25.49-.49.74-.74.21.04.42.07.63.11v-4.62c-.21-.25-.42-.49-.63-.74-3.14.03-3.09,1.05-5.04,1.79-1.45.55-2.66-.53-3.36-.63-1.7-.24-2.14.31-2.94.63-2.45.98-4.74-1.33-5.36-2.42-2.29.26-2.81,1.94-4.52,2.84-.16.33-.22.68-.21,1.26l.74.74h3.99c.07-.18.14-.35.21-.53Z"/>
      <path class="cls-1" d="M313.45,163.91c-.21-.25-.42-.49-.63-.74-3.19.08-5.43,1.43-6.83-1.68-1.51-.31-1.36.16-2.1.53-1.76.86-4.5-.53-5.36-.63-1.26,1.26-3.16,2.69-5.67,2.31-.5-1.21-1.86-2.19-2.42-3.36-.39-.04-.77-.07-1.16-.11-.47.66-.49.22-1.26.63-.98,1.02-1.96,2.03-2.94,3.05v.42c.18.11.35.21.53.32.17.34,5.08.8,5.88.42.14-.21.28-.42.42-.63h3.26c.11.21.21.42.32.63h3.05c1.09-.02.9-.42,1.47-.63h3.15c.14.21.28.42.42.63h4.1l2.84,2.84h1.79c.54-1.17,1.19-2.19,1.16-3.99Z"/>
      <path class="cls-1" d="M238.53,184.6h1.16c.31-.94.64-1.22.63-2.42-2.03-1.35-4.06-3.37-3.99-6.83-1.83-1.94-2.99-2.17-4.62-4.62.04-.99.4-.73.63-1.26v-1.37c.39-.81,1.66-2.6,2.42-3.05,1.89-1.12,3.51-.73,4.31-3.15-.14-.14-.28-.28-.42-.42-1.19-.04-2.38-.07-3.57-.11-.04.14-.07.28-.11.42-.54.25-2.21-.18-2.84.21-.18.11-.13.53-.42.63-.6-.04-1.19-.07-1.79-.11-.21.09-1.18.86-1.58,1.05-.28.58-.24,1.73-.21,2.63,1.37.54,1.76,2.37,1.68,4.41,2.76,2.95,4.09,3.79,3.99,9.77.76.52,4.4,3.67,4.73,4.2Z"/>
      <path class="cls-1" d="M282.24,164.54c.04-.46.07-.91.11-1.37-.49-.24-.94-.64-1.16-1.16h-7.56l-1.05,1.05c-.42.9-.24,2.84-.21,4.1.21.25.42.49.63.74h1.16c1.48-1.33,5.43-3.75,8.09-3.36Z"/>
      <path class="cls-1" d="M325,165.06h.74c.14.21.28.42.42.63h4.83c.28-.21.56-.42.84-.63v-1.79c-.39-.42-.77-.84-1.16-1.26h-2.42c-.18.11-.13.53-.42.63-2.3.79-5.45-.49-7.56.53l-1.58,1.58c-.33.69-.24,2.13-.21,3.15h1.68c1.35-1.2,3.02-2.4,4.83-2.84Z"/>
      <path class="cls-1" d="M274.36,171.36c-.25-.07-.49-.14-.74-.21-.17.41-.48.37-.63.63v6.62c-.21.14-.42.28-.63.42v3.26c.28.25.56.49.84.74.11.04.21.07.32.11.46-.42.91-.84,1.37-1.26v-5.99c.18-.41,1.06-.87.63-2-.23-.61-.62-.65-.63-1.89-.37-.15-.33-.09-.53-.42Z"/>
      <path class="cls-1" d="M315.02,176.62s6.86-4.01,3.36-5.36v.32c-.58.28-1.73.24-2.63.21-.39.35-.77.7-1.16,1.05-.37.78-.24,2.45-.21,3.57.21.07.42.14.63.21Z"/>
      <path class="cls-1" d="M266.06,171.79c-.07.18-.14.35-.21.53h-.84c-.04,2.03-.07,4.06-.11,6.09-.16.38-.99,1.13-1.16,1.47-.97,2.01.78,4.11,1.16,4.94v.21c.29,1.26-.23,2.28-.53,2.84-.69,1.29.51,4.16.53,5.25l.11.11h.53c.34-1,.84-1.56,1.26-2.31,1.08-1.95-1.39-6.56-.53-8.41.18-.07.35-.14.53-.21.51-.93-.05-3.55-.53-3.78.28-2.07,1.18-3.38,1.16-6.09-.76-.19-.75-.27-1.37-.63Z"/>
      <path class="cls-1" d="M308.72,171.79c-.07.18-.14.35-.21.53h-1.47c-.22.89-.13,1.82-.53,2.42v.11c2.18-.1,2.76-.48,4.1-1.26v-1.05c-.21-.25-.42-.49-.63-.74h-1.26Z"/>
      <path class="cls-1" d="M197.56,175.88c.6.04,1.19.07,1.79.11.04-.6.07-1.19.11-1.79-.21-.25-.42-.49-.63-.74h-1.16c-.04.81-.07,1.61-.11,2.42Z"/>
      <path class="cls-1" d="M201.97,181.14c.14.21.28.42.42.63.98-.04,1.96-.07,2.94-.11.73.28.45.63,2,.63.25-.21.49-.42.74-.63v-1.16c-.44-.49-1.27-1.01-1.79-1.26h-2c-.11-.21-.21-.42-.32-.63-.81.04-1.61.07-2.42.11-.36-.14-.38-.55-.84-.74-.32.33-.67.57-.84,1.05-.42.2-1.09.24-1.79.21-.14-.21-.28-.42-.42-.63-2.01.14-3.75.02-4.62,1.37-.04.35-.07.7-.11,1.05l1.26,1.26h3.36c.39-.33.7-.68.95-1.16h3.47Z"/>
      <path class="cls-1" d="M321.64,192.06h.95c.74-.74,1.47-1.47,2.21-2.21.21-.43.24-1.17.21-1.89-.77-.04-1.54-.07-2.31-.11-1.61,1.58-3.22,3.15-4.83,4.73-.86,1.68-1.57,3.13-3.05,3.89h-6.09c-.04.14-.07.28-.11.42-.72.26-1.09-.39-2.42-.42-.23-.4-.26-.55-.74-.74-.22-1.64.26-3.73,1.37-4.31.65-.33,1.15-.04,1.47-.63v-.84c.33-.6,1.35-1.28,1.68-2,.49-1.06.1-1.71.63-2.63,1.54-1.44,3.08-2.87,4.62-4.31,0-1.25-.66-2.38-1.37-2.94-.07.18-.14.35-.21.53-1.83.31-2.66,1.96-4.2,2.84-.35.77.19,2.32-.21,3.26-.91,2.12-3.75,3.24-4.62,4.94v1.47c-.18.07-.35.14-.53.21-.4.84-.19,1.82-.63,2.63-.36.66-2.59,1.58-3.26,1.89-2.68,1.25-3.07,5.38-3.05,9.46-1.15,1.31-2.46,1.25-3.99,2.1-.63.74-1.26,1.47-1.89,2.21h-.84c-.35.42-.7.84-1.05,1.26-.25-.04-.49-.07-.74-.11-1.29.67-1.54,1.81-3.68,1.79-1.52-1.38-3.61-2.2-5.88-1.16h-1.47c-.45.26-.92.93-1.37,1.16-1.25.62-2.82-.47-3.26-.63-1.45-.54-6.03.58-6.83.63-.04.21-.07.42-.11.63,3.26,2.21,4.66.14,8.93.11.14.21.28.42.42.63,3.17-.42,5.98-.65,9.98-.63.32.39.63.77.95,1.16,3.7.04,10.02-2.89,11.03-5.57.52-.25,1.49-.24,2.31-.21.14.21.28.42.42.63,3.02-.18,5.48-1.71,8.09-2.42,1.54.04,3.08.07,4.62.11.14-.21.28-.42.42-.63.42.04.84.07,1.26.11l2.42-2.42c.4-.8.15-1.88.63-2.63.52-.82,1.28-.87,2.21-1.37,1.23-.66.34-1.17,2.84-1.16v-.11c-.37-.19-.38-.21-.53-.63h-.95c-.32-.66-.77-1.95-1.26-2.52.14-1.19.98-2.98,1.79-3.57ZM315.02,201.94c-.92.63-1.63,1.58-2.52,2h-1.47c-.14.21-.28.42-.42.63-.81-.04-1.61-.07-2.42-.11-.11.21-.21.42-.32.63h-3.15c-1.8.93-2.2,2.35-5.36,2.31-.28-.28-.56-.56-.84-.84-.05-3.6,1.8-4.81,3.89-5.88.77-.4,1.32-1.42,2.1-1.79,1.12-.52.73.33,2-.63.83.12.73.57,1.16.74,1.25.49,2.36-.64,2.94-.74,1.23.04,2.45.07,3.68.11.18.38.15.43.53.63.31.65.24,1.97.21,2.94Z"/>
      <path class="cls-1" d="M304.2,181.66v-1.79c-.21-.04-.42-.07-.63-.11-.44.81-2.04,1.57-2.73,2.21l-2,2c-.47.92-.43,2-1.16,2.63-.35.04-.7.07-1.05.11-.91.51-2.2,2.15-2.94,2.94-.69.74-1.24,1.87-1.68,2.84v1.37s-.07.07-.11.11c-.52.73-.9.37-1.58.74-.63.74-1.26,1.47-1.89,2.21l-.11.11h-.84c-.46.56-.91,1.12-1.37,1.68-.35.04-.7.07-1.05.11-.84.95-1.68,1.89-2.52,2.84-2.14,1.15-4.75,2.05-8.3,1.68l-1.26,1.26v1.16l1.26,1.26c.5,0,4.09-.62,4.1-.63.69-.54,1.17-1.3,1.89-1.68h1.47c.14-.21.28-.42.42-.63,1.09-.41,1.91.09,3.05-.53.84-.95,1.68-1.89,2.52-2.84h.95s4.1-4.1,4.1-4.1c.41-.8.13-1.88.63-2.63.52-.77,2.71-2.96,3.47-3.57.54-.44,1.28,0,1.68-.74.6-1.07-.03-2.22.53-3.57.87-2.15,3.28-3.28,5.15-4.41Z"/>
      <path class="cls-1" d="M228.76,185.65c.14-.18.28-.35.42-.53.22-.23.89-3.64.74-3.99-.62-.57-1.89-.8-3.47-.74-.56.87-.68,1.84-.63,3.47.76.85,1.98,1.01,2.94,1.79Z"/>
      <path class="cls-1" d="M211.85,190.28h2.73c.11.21.21.42.32.63.77-.04,1.54-.07,2.31-.11.25.25.49.49.74.74.81-.66,2.92,1.03,3.15,1.47.48.21,1.65.16,2.42.21.04-.46.07-.91.11-1.37h-.84c-.59-.61-1.28-1.22-2-1.68h-.95c-.49-.6-.98-1.19-1.47-1.79-1.97-.97-7.8-2.71-8.83,0-3.23.41-5.14-.52-8.62-.53-.62-.6-.93-.57-2.1-.63-.18.18-.35.35-.53.53.65,2.19,3.62,2.83,5.25,3.78.83-.61,2.47,0,2.73.53,1.25-.08,1.97-.06,2.94-.63.24-.14.15-.53.53-.63.56.04,1.12.07,1.68.11.14-.21.28-.42.42-.63Z"/>
      <path class="cls-1" d="M232.65,190.91c.21-.18.42-.35.63-.53.2-.42.24-1.09.21-1.79-1.02-.85-2.73-1.28-3.68-1.89-1.14,1.92-.16,1.71,0,3.57,1.03.13,1.29.64,2.84.63Z"/>
      <path class="cls-1" d="M273.83,198.47c1.77-1.72.21-2.54,1.05-4.41.21-.14.42-.28.63-.42v-2c.39-.81.57-1.02.53-2.52-.6-.43-.91-1.13-1.68-1.37-.8.94-1.36,2.27-1.37,3.99v2.1c-.21.14-.42.28-.63.42-.16.36-.53,3.47-.53,3.99.18.18.35.35.53.53.73.29.98.16,1.47-.32Z"/>
      <path class="cls-1" d="M244.84,192.06c.18-.18.35-.35.53-.53.26-.54.24-1.57.21-2.42-1.42-.97-2.54-1.32-5.36-1.26-.03,2.43.92,2.84,1.79,4.2h2.84Z"/>
      <path class="cls-1" d="M228.76,199.42c1.72.04,3.43.07,5.15.11.77-.38,1.21-.98,2.73-.53.18-.21.35-.42.53-.63h2c-.14-3.19-2.47-4.31-5.88-4.2-.8,1.87-4.39,2.4-7.35,2.31-.53.48-1.14,1-1.47,1.68-.94.16-3.15,1.16-4.52.63-.14-.21-.28-.42-.42-.63h-1.47c-.5-.33-.81-1.41-1.37-1.68h-1.47c-.11-.21-.21-.42-.32-.63h-4.52c.21.52.39.48.42,1.26,1.65.54,2.87,1.72,4.1,2.42.39-.04.77-.07,1.16-.11.66.19,1.2.97,1.79,1.26h.84c.28.39.56.77.84,1.16,1.42,1.29,2.42,1.7,5.36,1.68.14.18.28.35.42.53.28-.24.4-.31.53-.74-.39-.21-.33-.11-.42-.63.41-.47.96-1.85,1.16-2.42.42-.21.94-.18,1.47-.11.25-.25.49-.49.74-.74Z"/>
      <path class="cls-1" d="M266.27,201.94c.15-.84,1.21-3.34.53-4.83-.36-.79-1.1-.5-1.05-1.68h-.32c-1.19,1.9.79,3.64-.53,5.99-.76,1.36-4.49,1.91-5.78,3.26v.42c.63.63,1.26,1.26,1.89,1.89,3.78.04,3.75-.51,5.78-1.79.05-1.36.11-2.6-.53-3.26Z"/>
      <path class="cls-1" d="M255.13,202.89c.42.04.84.07,1.26.11.04-.81.07-1.61.11-2.42-.47-.3-5.08-4.39-5.15-4.52-.66-.28-2.58-.14-3.57-.21-.48.74-.78.9-.74,2.31.88.96,3.82,1.92,5.57,1.89.84.95,1.68,1.89,2.52,2.84Z"/>
      <path class="cls-1" d="M241.58,205.3c-.43-.91.02-1.98.42-2.42-.14-.18-.28-.35-.42-.53-.25-.07-.49-.14-.74-.21-.32.6-.83,1.89-1.37,2.31h-1.47c-2.78,1.18-6.34,1.47-10.4,1.16v.11c1.48,1.86,3.22,2.31,6.41,2.31h2.84c2.98,1.06,4.68,2.98,9.25,2.94.16-.45.3-.39.53-.74.04-.53.07-1.05.11-1.58-1.8-1.17-3.97-1.58-5.15-3.36Z"/>
      <path class="cls-1" d="M254.08,210.24c-.15.27-.17.35-.42.53h-1.79c-.59.21-.65.66-1.89.63-.18.25-.35.49-.53.74-.04.35-.07.7-.11,1.05.21.21.42.42.63.63,2.1.04,4.2.07,6.3.11.84-.32,1.9-1.22,2.94-1.16.04-.21.07-.42.11-.63-1.23-1.45-2.35-1.96-5.25-1.89Z"/>
    </g>
  </g>
</svg>