<?xml version="1.0" encoding="UTF-8"?>
<svg id="Layer_2" data-name="Layer 2" xmlns="http://www.w3.org/2000/svg" viewBox="0 0 213.82 288.65">
  <defs>
    <style>
      .cls-1 {
        fill-rule: evenodd;
      }
    </style>
  </defs>
  <g id="Layer_1-2" data-name="Layer 1">
    <g>
      <path class="cls-1" d="M93.03,5.17c.21,1.02.43,2.04.64,3.06.75.7,1.5,1.4,2.25,2.09.68,1.03.35,3.03,1.05,4.11,2.12,2.09,4.24,4.19,6.36,6.28.97,1.07,1.93,2.15,2.9,3.22,2.23,1.51,7.09-.91,9.34.56,1.59,1.04-.18,3.69.97,4.99,1.25,2.2,4.12-1.65,4.99-2.26.19.03.38.05.56.08.44.79.62,2.17,1.37,2.66.7.46,9.22.52,10.31.24.56-.72.99-1.44.4-2.5-1.35-2.42-2.81-1.85-5.56-1.37-1.69.3-3.86-.05-5.24-.24-.08-.11-.16-.21-.24-.32.38-4.15,6.27.61,7.89-2.9.22-.48.51-.89.32-1.61-.66-1.53-2.86-1.05-4.83-1.05-3.44,0-10.42,1.58-11.84-.56.17-1.65,3.92-2.51,2.5-4.67-.89-1.35-4.02.27-5.32-.72-2.01-1.99-4.03-3.97-6.04-5.96-.56-.64-1.13-1.29-1.69-1.93-1.8-1.11-4.35.84-6.04-.32-1.88-1.29-.31-3.22-1.37-4.83-1.1-1.69-5.62-1.14-8.38-1.13-.32.4-.64.81-.97,1.21-1.47,3.73,4.64,2.07,5.64,3.87Z"/>
      <path class="cls-1" d="M1.94,14.27c-.4.13-.81.27-1.21.4-.32.24-.32.62-.72.81-.14,3.56,2.42,4.25,4.59,2.5.61-2.35-.25-3.78-2.66-3.7Z"/>
      <path class="cls-1" d="M138.93,29.9c1.16.56,3.53.37,4.91.16,2.86-.43,5.64.69,5.4-2.9-2.74-3.08-4.8.15-7.41-1.13-1.98-.97-.78-2.75-1.69-4.51-.69-1.33-2.54-1.3-4.59-1.29-3.1,1.38-.5,3.32.56,4.75,1.24,1.66.84,3.95,2.82,4.91Z"/>
      <path class="cls-1" d="M139.42,36.26c2.6-.89.68-4.52-1.85-4.43-2.69,1.48-1.14,5.46,1.85,4.43Z"/>
      <path class="cls-1" d="M144.73,32.07c-3.32,1.47-1.54,2.8.08,4.35.7.67,1.4,1.34,2.09,2.01.86.41,2.05-.04,2.98-.08,2.03-.09,3.96.75,4.83-.89.88-1.65-1.06-2.33-1.85-2.9-.75-.7-1.5-1.4-2.26-2.09-.58-.37-4.68-.41-5.88-.4Z"/>
      <path class="cls-1" d="M18.29,39c1.24-.75,1.23-3.35,0-4.11-.53-.32-1.63-.29-2.5-.24-2.54,1.86-.43,6.12,2.5,4.35Z"/>
      <path class="cls-1" d="M76.68,64.69c1.17.21,3.36.92,4.51.24.78-.46,1.03-1.83.48-2.74-.51-.67-1.02-1.34-1.53-2.01l.08-.4c.83-1.74,3.06-.31,4.99-.81,1.7-.43,3.09.03,4.83-.24,2.16-.34,4.77-.33,6.93,0,3.99.62,6.21-1.99,8.05,1.77v.4c-1.84,1.02-4.48-1.3-5.56,1.53-.23.59-.3,1.31.08,1.85.93,1.32,4.68,1.68,5.48,0,.38-.81-.05-3.33,1.53-2.66,1.26.53,1.86,1.96,3.06,2.5,1.2.54,3.02.1,3.79,1.05.87,1.08.02,3.91,1.13,4.75,1.03.78,2.84-.11,3.95.48.59.26.91.8.89,1.69-1.19,1.11-4.01.79-3.22,3.62.44,1.02,2.52,1.65,3.38.56.24-.75.48-1.5.73-2.26.21-.11.43-.21.64-.32,1.54.64,3.23,2.38,4.11,3.7.52.78.83,1.76,1.69,2.17,1.38.67,6.49-.54,8.05-.81,1.59-.27,3.27.12,4.59.32,1.18-.03,2.36-.05,3.54-.08,1.65-.25,3.34.15,4.75.24.3.41.47.7.64,1.29-1.93,2.92-15.72-1.99-14.5,3.3.68,2.95,6.65,1.33,9.99,1.61,1.12.1,2.94.55,3.87,0,1.03-.61.74-2.51,1.77-3.06,1.7-.51,2.91,3.29,6.36,3.22.88-.02,1.56-.29,1.93-.81,2.13-2.92-6.75-5.61-2.09-7.97,2.03.07,1.84,1.57,2.98,2.42,1.23.92,5.71.78,7.01-.08,1.8-1.19.42-3.17,1.37-4.91.59-1.1,2.51-.91,2.9-2.26-.03-.97-.05-1.93-.08-2.9-.46-2.4-.24-5.74-.24-8.54,0-1.01.19-2.47-.16-3.22-1.13-2.43-4.41-3.59-5.4-6.04-.16-.99-.32-1.99-.48-2.98-.32-.8-1.39-1.24-1.93-1.85-.94-1.07-1.99-1.97-2.98-2.98-1.39-1.42-1.29-3.03-3.95-3.3-1.71.74-8.46.09-6.2,3.7,1.56,2.5,6.19-1.07,7.97,1.05.03.08.05.16.08.24-.3,3.33-6.54-.44-4.99,4.75,1.02.64,2.36,1.12,4.03.72.68-.16,1.96-.9,2.98-.4.79.38,3.74,3.26,4.03,4.11.11.81.21,1.61.32,2.42.27.76,1.07,1.34,1.61,1.85,1.48,1.41,1.27,3.21,1.05,5.64-.26,2.89,1.08,6.63-.72,8.13-.19-.05-.38-.11-.56-.16-1.38-.93.52-3.85-2.34-4.83-.49-.17-1.13-.2-1.61.08-.5.29-.77.9-.97,1.53-1.04,3.39,2.6,2.81,3.06,4.75.36,1.24-1.25,2.33-2.66,1.93-1.86-.52-1.97-3.97-4.51-3.38-2.15.93-1.94,4.98-5.72,5.64-.95-.73-1.12-2.33-2.34-2.74-2.44-.82-5.32,1.28-7.97.4-1.27-.42-1.78-1.68-2.82-2.26-.83-.46-2.25-.11-3.22-.48-1.4-.53-1.71-2.12-2.9-2.74-1.1-.19-2.2-.38-3.3-.56-.72-.67-1.45-1.34-2.17-2.01-1.1-.7-3.5-.25-4.35-1.21-.82-.92-.27-3.31-.64-4.59-1.2-.8-3.19.02-4.51-.72-2.15-1.21-3.82-4.79-5.96-5.64-1.52-.6-3.43.47-4.91-.08-1.47-.54-2.01-2.25-3.62-2.66-1.41-.36-3.55.25-5.07.48-3,.45-7.21-.96-9.42-.32-1.43.41-1.83,2.08-3.38,2.42l-2.26-.08c-1.53-.23-2.98.17-3.95.48-.72,1.16-.43,3.94-1.53,4.75-1.5,1.11-4.21-.34-5.15,1.45-.04,4.19,3.62,2.28,6.68,2.82Z"/>
      <path class="cls-1" d="M25.21,62.27c3.36-.58,3.87-4.73-.32-4.51-.55.28-1.07.44-1.37.97-.81,1.41.16,3.81,1.69,3.54Z"/>
      <path class="cls-1" d="M160.84,65.25c3.46-1.01,2.76-5.1-1.53-4.91-.76.34-1.57.48-2.01,1.13-1.53,2.22,1.04,4.52,3.54,3.79Z"/>
      <path class="cls-1" d="M29.8,64.85c1.91,1.3,4.55-.71,3.87-2.9-.4-.96-1.22-1.35-2.66-1.29-1.47.69-3.46,2.66-1.21,4.19Z"/>
      <path class="cls-1" d="M94.88,60.82c-.72-.05-1.45-.11-2.17-.16-.98.5-2.99,1.86-2.01,3.62.74,1.34,4.22,1.45,5.48.48,1.51-1.16-.21-3.54-1.29-3.95Z"/>
      <path class="cls-1" d="M85.94,60.9c-1.62.91-1.8,3.63.56,3.87,2.13.82,2.75-3.96-.56-3.87Z"/>
      <path class="cls-1" d="M32.06,69.92c1.49,1.42,3.03,1.81,4.59.08.51-2.34-.71-3.83-2.9-3.79-1.37.83-1.85,1.55-1.69,3.7Z"/>
      <path class="cls-1" d="M83.93,66.3c-1.2.56-3.42,1.43-2.09,3.54.9,1.44,5.15,2.08,6.36.4,1.87-2.6-1.82-4.05-4.27-3.95Z"/>
      <path class="cls-1" d="M66.69,85.95c.32,1.13.64,2.26.97,3.38,1.1,1.77,3.5,3.18,4.91,4.91-.18,1.43-4.34,3.59-1.85,5.32,1.23.85,3.33.13,4.67-.08,3.42-.53,8.32,1.63,6.68-3.38-1.26-.85-4.34-.29-5.15-1.61-1.22-1.97.58-5.32-1.45-6.68-1.37-.92-4.31.4-4.35-1.93-.03-1.51,2.07-2.21,2.58-3.38.11-.26.4-6.3.32-6.77-.35-2.08-2.67-2.03-2.74-4.27.24-.3.48-.59.72-.89,3.83-.89,3.82,4.21,6.6,3.14.89-.33,1.65-2.05.97-3.14-.72-.48-1.45-.97-2.17-1.45-1.75-1.33-1.97-2.61-5.4-2.5-1.3.49-2.9-.11-3.87.56-1.75,1.22-.99,4.67-.64,6.77.03.94.05,1.88.08,2.82.12.6.48,1.7.24,2.58-.51,1.88-3.14,1.68-3.46,3.62-.33,1.41,1.76,2.1,2.34,2.98Z"/>
      <path class="cls-1" d="M111.07,70.73c2-1.43-.77-4.17-2.66-4.11-.51.32-.86.5-1.21.97-.56,2.45,1.8,4.61,3.87,3.14Z"/>
      <path class="cls-1" d="M81.83,79.67c2.5-.84,1.43-4.91-1.77-4.83-2.44,1.47-1.79,6.03,1.77,4.83Z"/>
      <path class="cls-1" d="M35.84,75.16c-2.1.89-.33,5.21,2.26,4.27,2.41-.88,1.59-4.65-1.45-4.51-.27.08-.54.16-.81.24Z"/>
      <path class="cls-1" d="M37.54,85.39c2.67-.51,2.24-4.37-.56-4.51-2.82,1.13-1.83,4.96.56,4.51Z"/>
      <path class="cls-1" d="M75.87,82.09c-.8,1.55.78,3.71,2.5,3.3,2.23-.53,1.82-4.55-.89-4.43-.6.3-1.31.54-1.61,1.13Z"/>
      <path class="cls-1" d="M39.23,90.14c.55-1.96-.48-3.57-2.42-3.54-3.44,2.06-.84,6.21,2.42,3.54Z"/>
      <path class="cls-1" d="M81.03,91.67c.59.74,1.03,1.93,1.93,2.34.74.33,1.67.07,2.34-.08.31-.42.88-.92.72-1.77-.3-1.65-1.96-1.98-2.82-3.06-.56-.72-1.13-1.45-1.69-2.17-.4-.11-.81-.21-1.21-.32-3.47,2.11-.59,3.41.72,5.07Z"/>
      <path class="cls-1" d="M36.57,93.12c-2.27,1.4-2.08,6.94,1.05,6.28,3-.63,2.91-6.45-1.05-6.28Z"/>
      <path class="cls-1" d="M90.45,99.72c2.51-1.42,1.15-4.69-2.25-4.51-2.71,1.54-.28,5.94,2.25,4.51Z"/>
      <path class="cls-1" d="M157.46,101.66c-1.03,1.51-.01,3.19,1.53,3.7,1.29.03,2.58.05,3.87.08,3.15.51,6.88.11,10.15.08,2.06-.02,4.52,1.02,6.44.24.96-.39,1.2-1.65,1.45-2.74.27-.11.54-.21.81-.32,1.59.64,2.12,2.27,3.62,2.74,3.23,1.02,7.25-2.1,8.78.97l-.16.64c-1.9.52-6.78-.23-4.59,3.46.32.55,1.18.84,1.85,1.05,3.16.98,3.29-1.68,4.35-3.3.87-.24,1.36-.03,1.93.4.26,1.16-.46,3.01.24,4.03.64.46,1.29.91,1.93,1.37,1.17,1.55-2.29,2.76-1.13,4.67.76,1.24,3.75.54,4.83,2.26,1.18,1.87-.16,4.48.24,6.85.12.71.27,2.23-.32,2.42-.82.26-3.12-1.84-3.87-2.17-1.06,0-1.52.58-1.85,1.29.02,2.89,3.81,3.53,4.91,5.56-.1,1.42-1.3,1.78-1.85,2.82-.03,2.97,2.62,1.77,4.91,2.26,1.06.22,2.52.77,3.79.32,1.06-.51,1.2-2.06.48-3.06-1.02-1.44-6.42-3.38-5.32-5.8.8-.98,3.6.81,4.99.16,2.25-1.06-1.14-4.16-1.69-4.91.17-1.28,1.44-1.58,2.09-2.42.45-1.94-1.34-2.12-2.17-3.22-.75-1-.61-2.91-1.37-3.95-.83-.89-1.66-1.77-2.5-2.66-.69-.59-1.56-.78-2.01-1.61.18-1.79,1.92-1.86,2.42-3.22,1.13-3.1-3.05-2.34-4.99-2.66-.79-1.11-.38-3.92-1.53-4.83-1.5-1.19-4.45-.15-6.36-.64-1.6-.41-2.02-2-3.46-2.42-1.92-.55-4.02.31-5.56-.48-1.7-.87-1.21-2.96-3.87-3.14-.68.31-1.29.28-1.45,1.13-.43,2.05,4.01,2.84,2.66,4.99-7.26,1.73-1.91-8.01-8.21-5.32-.43,1.43.25,4.1-.97,4.99-2.05,1.51-10.05-.45-13.05.4Z"/>
      <path class="cls-1" d="M94.48,104.48c.58-2.2-.5-3.54-2.74-3.46-.24.11-.48.21-.72.32-1.85,2.85,1.54,5.92,3.46,3.14Z"/>
      <path class="cls-1" d="M75.79,104.39c.68,2.18,4.73,1.32,6.85,1.05,1.72-.22,3.02.53,4.27-.4,1.19-.89,1.09-3.21-.32-3.79-.94-.05-1.88-.11-2.82-.16-2.16.86-9.26-.8-7.97,3.3Z"/>
      <path class="cls-1" d="M37.78,105.76c2.5-.69,2.17-4.75-1.13-4.59-2.42,1.35-1.59,5.34,1.13,4.59Z"/>
      <path class="cls-1" d="M38.91,111.16c1.89-1.07-.14-4.37-2.09-4.35-3.89,2.27-.14,6.55,2.09,4.35Z"/>
      <path class="cls-1" d="M100.28,107.94c-2.85-3.3-3.52.81-5.07,1.53-1.48.53-2.44-2.55-4.99-2.58-2.32.89-10.17-.95-8.54,3.46.97,2.64,8.49-.11,10.87,1.37.45.28,3.38,2.9,3.54,3.3.63,1.55,0,3.63,1.37,4.43,1.98,1.15,6.86-1.89,6.68,1.93-1.83,1.22-4.23-.44-4.99,2.17-.17.6.04,1.36.32,1.77.39.57,1.13.7,1.93.89,3.8.9,3.04-1.96,4.99-3.06,2.03.22,2.28,2.39,4.11,2.82,1.96.46,4.3-.31,5.96-.56h17.88c1.2.21,2.53.99,4.11.64,1.32-.29,1.59-1.73,2.01-2.9.19-.05.38-.11.56-.16,1.05.74,2.52,3.96,4.43,2.9.74-.34,1.28-1.35.89-2.34-.46-1.14-1.77-1.69-2.42-2.66-.56-.84-.61-1.99-1.05-2.98-.42-.95-3.2-5.05-4.51-4.83-.82.14-1.4.59-1.69,1.29-1.06,2.52,1.09,3.75,2.01,5.23.28.45.96,1.75.24,2.17-.81.47-2.78-.04-3.54-.16-1.13.05-2.26.11-3.38.16-1.47-.21-3.37-.61-5.07-.32-1.21.13-2.42.27-3.62.4-1.62-.26-3.93-.64-5.88-.32-2,.33-5.31.84-7.33.08-.97-.36-1.37-1.4-2.09-2.01-2.02-1.72-3.7-3.86-5.8-5.48-1.06-.82-4.05-.35-4.67-1.61-.03-.21-.05-.43-.08-.64,1.28-1.13,2.95-1.59,2.82-3.95Z"/>
      <path class="cls-1" d="M152.06,108.02c-.25-.79-.76-1.17-1.85-1.13-.32.13-.64.27-.97.4v.08c-.75.59-1.03,1.42-1.61,2.17-.68.88-2.06,1.34-2.5,2.42l-.08.08c-.61,1.97.95,6.54,1.85,7.17.43.3,5.73,1.14,6.44.97.42-.1.94-.44,1.13-.81,1.68-2.09-4.55-5.2-4.91-6.85-.5-2.28,3.5-2.06,2.5-4.51Z"/>
      <path class="cls-1" d="M163.18,111.32c2.29-1.03-.48-3.71-1.61-4.11-.78-.03-1.56-.05-2.34-.08-1.1.41-2.75.03-3.7.48-.77.37-1.26,1.2-1.61,2.01-1.18,2.75,1.52,3.36,2.5,4.83,1.86,2.81-.38,5,4.11,5.8.7.12,1.6.25,2.25-.08,1.04-.53,1.41-2.27.64-3.3-1.18-1.58-5.45-2.64-4.91-5.07,1.23-.83,3.28.13,4.67-.48Z"/>
      <path class="cls-1" d="M169.22,109.79c-2.97,1.91-.16,6.36,2.58,4.35.4-.29.63-.93.64-1.61.06-2.19-1.03-2.85-3.22-2.74Z"/>
      <path class="cls-1" d="M176.55,109.79c-.64.29-1.32.35-1.69.89-1.34,1.96,3.39,6.63,5.64,6.44,2.52-2.91.02-7.42-3.95-7.33Z"/>
      <path class="cls-1" d="M190.88,115.51c-2.8-1.1-3.25-5.64-7.01-5.64-.3.21-.59.43-.89.64-.76,2.96,3.73,5.64,5.32,7.09.8.73,1.22,1.94,2.17,2.5.97.56,3.02.57,3.79-.16.56-.53,1.36-2.24.81-3.3-.67-1.28-2.78-.57-4.19-1.13Z"/>
      <path class="cls-1" d="M110.18,115.35c1.1,2.12.27,3.22,2.82,4.27,1.62.67,5.05-.07,4.11-2.34-.56-1.4-3.5-2.68-4.51-3.95-.71-.9-1.15-2.32-2.09-2.98-.52-.36-1.19-.41-2.09-.4-3.94,2.36,1.05,4,1.77,5.4Z"/>
      <path class="cls-1" d="M33.59,113.01c-2.3,1.31-2.43,7.42,1.29,6.6,2.93-.64,2.32-6.73-1.29-6.6Z"/>
      <path class="cls-1" d="M94.32,118.89c-.66-2.15-3.57-5.29-5.8-5.8-.46.27-.73.51-1.13.81-.05.56-.11,1.13-.16,1.69.25.82,1.47,1.43,2.09,1.93,1.06.86,3.67,5.33,4.99,1.37Z"/>
      <path class="cls-1" d="M132.89,119.38c2.95-.58,2.79-5.9-.64-6.28-.71.31-1.37.45-1.77,1.05-1.25,1.87.23,5.67,2.42,5.23Z"/>
      <path class="cls-1" d="M125.08,119.62c1.97-1.14,1.65-4.28-1.45-4.11-.46.19-.91.38-1.37.56-1.17,1.63.62,4.82,2.82,3.54Z"/>
      <path class="cls-1" d="M200.71,123.64c-.64-1.56-1.7-2.32-4.03-2.26-1.67.68-3.09,2.63-1.05,4.11,1.87,1.35,4.91.44,5.07-1.85Z"/>
      <path class="cls-1" d="M33.67,121.47c-2.62,1.49-1.96,4.75,1.85,4.59,1.82-1.5,1.04-4.67-1.85-4.59Z"/>
      <path class="cls-1" d="M149.73,121.87c-3.27,2.06-.87,5.53,1.85,4.19,2.07-1.02.71-4.31-1.85-4.19Z"/>
      <path class="cls-1" d="M27.31,140.31c2.24,1.5,3.03-1.71,3.95-2.42,1.02-.78,2.33-.93,2.5-2.58-.59-1.33-2.34-1.61-2.58-3.06.53-1.16,1.77-1.3,2.34-2.5,0-1.61-.84-2.64-2.58-2.58-.61.5-4.42,4.43-4.51,4.99-.25,1.57,1.86,1.72,2.17,3.14-.63,1.12-3.94,3.22-1.29,4.99Z"/>
      <path class="cls-1" d="M194.18,131.46c.7-.3,1.09-.88,1.37-1.61-.1-1.72-1.25-2.73-3.22-2.66-1.72,1.19-.87,5.12,1.85,4.27Z"/>
      <path class="cls-1" d="M110.91,131.62c2.01-1.39-.34-4.2-2.42-4.11-3.07,1.54-.45,6.09,2.42,4.11Z"/>
      <path class="cls-1" d="M137.81,130.33c-.14-1.75-1.8-3.14-3.95-2.82-5.5.82-12.33-.04-17.88,0-1.28.66-3.48,2.62-1.37,3.95,1.34.85,3.66.32,5.56.32,4.23,0,8.82-.41,12.4.16,2.58.41,4.48.1,5.23-1.61Z"/>
      <path class="cls-1" d="M194.18,140.23c2.63-.78,2.89-6.76-.97-6.6-.43.24-.86.48-1.29.72-1.26,1.68-1.08,6.86,2.26,5.88Z"/>
      <path class="cls-1" d="M155.61,169.31c1.85.16,1.76,2.11,2.98,2.9.78.5,5.54.62,6.36.16.72-.4,1.08-1.59,1.37-2.42.36-.27.43-.41,1.13-.4.83.78,3.61,5.07,4.91,1.77.25-.61.01-1.48-.24-1.85-.7-.72-1.4-1.45-2.09-2.17-.87-1.52.02-5.7-2.9-4.83-2.95.88-.78,3.14-2.01,5.07-.53.77-1.55.58-2.74.72-1.79.21-3.66.03-4.19-1.29-.78-1.97.27-4.02-2.09-4.43-2.36-.68-2.14,3.48-2.58,5.15-.94.66-2.96.87-3.7-.16-.36-2.02,1.52-2.39,2.01-4.03-.24-.38-.48-.75-.72-1.13-2.35-.66-2.37,1.06-3.62,2.09-.32.03-.64.05-.97.08-1.05-1-1.36-2.35-3.14-2.66-1.65-.29-2.76.72-3.95.97-1.13.23-2.29-.27-3.14-.4-.97.13-1.93.27-2.9.4-.57-.14-.95-.58-1.21-1.05-.04-2.06,2.6-2.36,1.85-4.75-2.07-1.24-9.23.68-10.23-1.37-.3-.86,2-2.18,2.5-3.14-.05-.3-.11-.59-.16-.89l-.16-.08c-.62-.43-1.23-.86-1.85-1.29-.67-.81-1.34-1.61-2.01-2.42-.45-.24-1-.25-1.69-.24-.63.68-1.03,1.43-1.37,2.42-.74.48-1.28.18-1.93-.24-1.28-.82-2.3-2.08-2.74-3.7-.28-1.05.07-2.4-.48-3.14-1.26-1.7-4.25-.3-6.52-.97-1-.29-1.41-1.23-2.01-1.93-.62-.46-1.24-.91-1.85-1.37-1.54-1.24-1.5-2.88-4.35-2.98-1.14.44-2.18.12-2.66,1.21-1.22,2.82,2.83,3.12,4.51,3.54.19.38.38.75.56,1.13-.03.08-.05.16-.08.24-1.56.89-4.62.08-6.6.08-4.88,0-9.65.11-14.66.08-2.63-.02-5.6-.42-7.17.72-.85,3.61,3.41,3.54,6.85,3.54,5.01,0,9.92-.75,14.82-.16,1.64-.05,3.28-.11,4.91-.16,2.35.44,2.34,2.75,4.67,3.14,1.55-.91,1.47-3.97,4.51-3.22,1.89.46,1.33,2.24,2.01,3.95.62,1.55,2.62,2.99,3.95,3.87,1.08.71,3.32.51,3.95,1.69-.51,4-12.5-2.53-11.03,3.7.61,2.58,4.04,1.63,6.68,1.61,1.24,0,2.84.33,3.7-.24,1.03-.67,1.33-3.14,3.54-2.5,1.02.3,1.14,1.58,1.85,2.17.87.73,2.96.2,3.79.97.83.77.44,2.53,1.05,3.54,1.03,1.72,2.89,2.87,4.27,4.27.89.9,1.38,4.62,3.7,3.38,1.19-.58.84-2.47,1.93-3.06.21-.03.43-.05.64-.08,1.44,1.29,1.8,4.21,4.91,3.54.56-.12.96-.16,1.29-.48.71-.7.74-1.94,1.53-2.58.32-.03.64-.05.97-.08,1.24,1.14,3.05,4.77,5.96,2.82,1.02-.69,1.02-2.32,2.09-3.06Z"/>
      <path class="cls-1" d="M88.36,136.29c-.16.27-.32.54-.48.81-1.38,3.12,6.39,5.56,5.8-.16-.8-.76-1.56-1.09-3.22-1.05-.7.13-1.4.27-2.09.4Z"/>
      <path class="cls-1" d="M82.88,140.07c2,.06,2.83-1.71,2.26-3.46-.7-.48-1.37-.69-2.66-.64-1.84,1.02-1.37,3.29.4,4.11Z"/>
      <path class="cls-1" d="M27.63,151.03c.77-2.12-2.14-2.69-2.26-4.59,1.82-1.77,3.57-1.75,1.21-4.75-.3-.05-.59-.11-.89-.16-.35.16-.7.32-1.05.48-.03.03-.05.05-.08.08-.56.86-1.13,1.72-1.69,2.58-.57.73-1.62,1.03-2.09,1.85-.05.05-.11.11-.16.16-.41,1.02,0,2.97.4,3.54.84,1.17,5.64,3.47,6.6.81Z"/>
      <path class="cls-1" d="M188.3,146.27c2.89-.63,2.62-4.94-1.13-4.75-.7.39-1.43.73-1.69,1.53-.53,1.62,1.14,3.59,2.82,3.22Z"/>
      <path class="cls-1" d="M205.3,146.44c.87-.16,1.5-.45,1.93-1.05.81-4.12-3.24-2.87-6.04-3.3-1.5-.23-2.92-.52-4.67-.48-1.25.54-3.03,2.45-1.21,3.79.56.41,8.71,1.28,9.99,1.05Z"/>
      <path class="cls-1" d="M179.85,148.21c-1.11,1.6.73,4.4,2.66,3.95,3.13-.74,1.69-4.14-.89-4.75-.67.25-1.4.27-1.77.81Z"/>
      <path class="cls-1" d="M70.23,151.91c2.05-.26,5.22,1.19,6.28-.72,1.96-3.54-3.9-3.7-6.68-3.62-.4.13-.81.27-1.21.4-.67.72-1.34,1.45-2.01,2.17-.88.7-2.03.97-2.58,2.01,0,.95.33,1.39.81,1.85,2.19,2.09,3.49-1.85,5.4-2.09Z"/>
      <path class="cls-1" d="M85.7,147.72c-1.71,1.01-2.24,3.3-.08,4.27,3.58.12,3.13-4.25.08-4.27Z"/>
      <path class="cls-1" d="M195.47,159.48c.51-.71.92-2.34.48-3.46-.4-1.03-1.45-1.54-2.17-2.26-1.37-1.36-4.14-5.95-6.28-6.04-.68.42-1.2.6-1.53,1.37-1.31,2.85,4.98,3.8,5.07,6.77-.32.32-.64.64-.97.97-1.91.69-6.16-2.52-7.01.89-.92,3.78,10.77,4.08,12.4,1.77Z"/>
      <path class="cls-1" d="M200.95,154.57c.66-.42.72-1.14.89-2.09.57-3.2-2.28-4.84-5.32-4.75-.38.17-.84.16-1.13.4-.75.39-.76,1.52-.32,2.26.66,1.12,3.96,5.41,5.88,4.19Z"/>
      <path class="cls-1" d="M92.7,154.81c2.62-.67,2.32-6.04-.72-6.44-1.04.48-2.11,1.08-2.42,2.26-.54,2.08.88,4.76,3.14,4.19Z"/>
      <path class="cls-1" d="M102.37,154.17c.51-2.53-2.69-5.62-4.91-5.64-4.68,2.94,2.25,9.38,4.91,5.64Z"/>
      <path class="cls-1" d="M171.95,150.54c-.7.86-1.35,2.89-.08,3.79,1.44,1.01,3.66-.34,3.79-1.77.49-1.41-1.22-2.33-2.74-2.26-.32.08-.64.16-.97.24Z"/>
      <path class="cls-1" d="M108.73,151.75c-.32-.91-1.37-1.34-2.66-1.29-1.52,1.04-1.96,3.79.16,4.51,1.63.56,3.27-1.55,2.5-3.22Z"/>
      <path class="cls-1" d="M80.46,155.78c-1.05-.12-1.77-1.87-2.82-2.34-1.77.05-1.45,1.79-2.5,2.5-.86.59-2.54.08-3.7.4-1.78.5-1.34,3.31-.16,4.11,3.66,2.47,4.38-2.59,6.12-2.42,1.58.16,2.08,4.18,4.43,2.58.46-.67.91-1.34,1.37-2.01,1.16-1.52,3.84-1.49,2.01-4.35-.4-.62-.61-.94-1.61-.97-.79.45-2.52,2.57-3.14,2.5Z"/>
      <path class="cls-1" d="M181.3,156.83c.43-1.87-.46-3.55-2.66-3.46-1.21.55-2.82,1.63-1.61,3.46.88,1.34,3.38,1.26,4.27,0Z"/>
      <path class="cls-1" d="M17.72,165.04c.47.48.87,1.45,2.01,1.21.6-.13,5.1-4.15,5.23-4.75-.03-.83-.05-1.66-.08-2.5-.02-3.01-.03-5.2-3.06-5.15-2.57,1.75-.29,4.09-1.21,6.93-.64,1.99-2.93,1.25-2.9,4.27Z"/>
      <path class="cls-1" d="M61.78,167.94c.51.27,1.02.54,1.53.81.87.61.75,1.86,1.37,2.74.7.4,1.4.81,2.09,1.21.81.86,1.61,1.72,2.42,2.58,1.97,1.65,4.35,6.91,7.49,4.51.13-.49.39-1.18.16-1.77-.44-1.12-4.03-3.15-5.07-4.75-.02-.38-.06-.43.08-.72.55-1.04,2.02-.82,2.26-2.26.25-.84-.71-2.07-1.37-2.34-1.94-.8-2.35,1.74-3.38,2.26-.96.36-3.33-2.2-3.62-2.9-.3-1.02-.59-2.04-.89-3.06-.75-1.16-2.18-1.42-2.26-3.3.13-.13.27-.27.4-.4,1.43-.25,2.89.25,4.19-.08.21-.38.43-.75.64-1.13,0-2.12-1.59-3.37-3.79-3.3-.73.37-1.53.45-2.01,1.05-.4.7-.81,1.4-1.21,2.09-1.02,1.06-3.24,1.23-2.74,3.79.12.6,3.23,4.62,3.7,4.99Z"/>
      <path class="cls-1" d="M139.82,160.13c1.95-1.28,1.24-4.04-1.69-3.87-.59.32-1.04.53-1.53.89-.51,1.81,1.51,4.11,3.22,2.98Z"/>
      <path class="cls-1" d="M154.07,160.53c2.23-.86,1.96-4.48-1.93-4.27-2.94,1.59-.67,5.27,1.93,4.27Z"/>
      <path class="cls-1" d="M173.97,160.45c2.38-1.09,1.23-4.25-1.61-4.11-2.43,1.67-.83,5.22,1.61,4.11Z"/>
      <path class="cls-1" d="M122.99,165.93c.29-.37.27-1.17.16-1.69-.41-2-1.87-2.45-4.35-2.34-1.02.75-2.13,1.09-2.34,2.66-.75,2.36,5.26,3.01,6.52,1.37Z"/>
      <path class="cls-1" d="M159.55,163.19c.09,2.67,3.74,3.18,4.19.56.29-1.16-1.63-1.75-2.9-1.69-.72.38-.86.46-1.29,1.13Z"/>
      <path class="cls-1" d="M187.02,165.2c-.14-3.69-4.12-2.9-7.73-2.98-1.72-.05-3.44-.11-5.15-.16-.93.48-1.53.55-2.09,1.37-1,4.34,6.54,2.67,9.99,3.22,2.37.38,4.29.15,4.99-1.45Z"/>
      <path class="cls-1" d="M76.27,166.49c2.03-.98.92-4.43-1.69-4.35-3.16,1.56-1.36,5.82,1.69,4.35Z"/>
      <path class="cls-1" d="M125.81,167.78c-3.09,1.57-.05,6.29,2.66,4.59,2.49-1.13-.22-4.65-2.66-4.59Z"/>
      <path class="cls-1" d="M24.57,170.76c1.05-2.23-1.22-2.95-3.22-2.9-2.12.96-3.67,1.43-3.38,4.75.07.86.07,1.99-.24,2.74-.54,1.31-2.31,1.44-2.82,2.74-.46,1.18.23,2.37.97,2.66,2.02.79,2.93-1.86,3.87-2.58.78-.6,1.84-.81,2.17-1.85.32-.98-.29-1.91.08-2.9.46-1.23,2.04-1.53,2.58-2.66Z"/>
      <path class="cls-1" d="M60.81,175.35c.41,1.58-4.36,3.35-1.85,5.23,2.33,1.76,5.24-1.99,7.49.64-.35,2.81-6.64.4-5.07,4.35,1.13,3.26,9.28.42,9.91-2.01.71-2.76-2.39-3.43-3.38-4.67-.99-1.26-1.99-2.52-2.98-3.79-.16-.89-.32-1.77-.48-2.66-.32-.76-1.32-1.12-1.93-1.61-1.83-1.45-2.3-2.91-5.8-2.9-.71.44-.85.58-1.29,1.29.32,3.53,4.65,3.25,5.4,6.12Z"/>
      <path class="cls-1" d="M177.67,172.37c2.16-.95.42-4.18-1.61-4.19-.91.53-1.45,1.06-1.85,2.09.04,1.39,1.77,3.11,3.46,2.09Z"/>
      <path class="cls-1" d="M77.97,186.87c3.46-1.36,1.79-4.98-2.17-4.83-4.56,2.22-1.81,6.4,2.17,4.83Z"/>
      <path class="cls-1" d="M35.84,219.97c.17-.32.51-.71.4-1.29-.41-2.23-2.77-.92-4.75-1.45-1.13-.3-3.05-2.02-3.7-2.9-.9-1.21-.08-4.23-1.29-5.15-1.78-.39-3.7.81-4.43-1.05v-.89c.62-1.18,3.8-1.28,2.82-3.7-.2-.57-.6-.81-1.13-1.05-2.76.01-1.98,2.74-4.03,3.22-3.6-1.82,1.12-5.06,1.77-6.44-.22-1.73-2.03-1.68-2.09-3.62.58-.55,1.45-.7,2.09-1.21,2.64-2.08-2.35-3.51-2.82-4.43-1.01-2.67,1.97-3.08,2.9-4.35,1.49-2.04-.82-3.32-2.82-3.38-.54.11-1.07.21-1.61.32-2.05.95-1.27,3.18-2.5,4.91-.85,1.21-3.2,1.77-2.42,4.11.67,1.4,3.23.44,4.75.81.16.27.32.54.48.81-.09,1.98-2.21,1.5-2.58,3.22.11,1.1.21,2.2.32,3.3-.1,1.57-.91,3.36-.48,5.07.35,1.41,1.95,1.61,2.66,2.66.3,1.13.59,2.26.89,3.38,1.69,1.61,3.38,3.22,5.07,4.83,1.07,1.36-.03,4.5,1.45,5.4,1.2.72,3.59.11,4.99,0,2.56-.21,4.81,1.16,6.04-1.13Z"/>
      <path class="cls-1" d="M82.8,187.99c-3.71,2.72,1.34,6.5,3.14,3.7.53-2.46-.79-3.8-3.14-3.7Z"/>
      <path class="cls-1" d="M77.72,188.4c-.89.61-1.59,2.16-2.66,2.42-1.5.36-2.27-1.43-3.06-1.93-1.09-.7-3.62-.56-5.32-.56-1.18.45-3.41,1.39-2.34,3.3.76,1.35,2.99.36,4.43.89,1.62.59,2.13,2.61,3.95,3.06,2.01.5,6.68-4.04,6.85-5.56-.46-.83-.72-1.44-1.85-1.61Z"/>
      <path class="cls-1" d="M84.09,204.34c.81.84,1.07,2.29,2.26,2.74,1.46.56,3.43-.1,4.67-.32,2.38-.43,4.4.71,5.48-1.05.27-.44.28-1.15.08-1.61-1.49-3.49-7.55.38-10.31-1.53-.97-.67-.74-2.01-1.21-3.22-.52-1.34-3.15-4.86-4.75-4.99-5,3.14,1.71,7.84,3.79,9.99Z"/>
      <path class="cls-1" d="M87.39,198.06c-.64,2.04,4.06,4.51,4.27.24-.58-1.09-1.28-1.67-2.9-1.69-.74.38-1.19.51-1.37,1.45Z"/>
      <path class="cls-1" d="M136.76,201.52c2.4-.78,1.7-4.85-1.77-4.67-2.93,1.45-1.74,5.81,1.77,4.67Z"/>
      <path class="cls-1" d="M209.4,211.67c-1.04-.25-3.44.21-4.35-.4-.92-.61-.51-2.39-.97-3.46-.4-.94-4.25-4.29-5.32-4.67-2.71-.98-7.78,2.05-8.54-1.21l.08-.64c.97-.55,3.4-1.43,2.58-3.38-.26-.76-.95-1.09-2.01-1.05-2.11,1.02-1.38,1.55-2.74,2.66-.13.03-.27.05-.4.08-.98-.54-3.33-4.82-4.99-1.45.14,1.78,1.97,2.14,2.66,3.46-.2,2.75-4.07,1.14-6.2,1.45-1.02-.03-2.04-.05-3.06-.08-2.33,0-3.86.22-6.04-.08-.99.08-1.99.16-2.98.24-1.47-.18-3.77-.94-5.4-.4-1.22.41-1.21,1.99-2.26,2.58-2.26-.17-2.94-4.19-5.64-2.26-.22.83-.32,1.93.16,2.66.78.59,1.56,1.18,2.34,1.77,1.53,1.42,5.18,7.99,7.57,4.19-.22-2.16-2.51-2.25-2.58-4.51.16-.13.32-.27.48-.4,1.99.05,3.97.11,5.96.16,4.86,0,9.28-.31,13.77.32,2.9.41,5.53-1.53,7.65-.97,2.07.55,2.28,3.07,4.75,3.14.76-.74,1.35-1.75,2.34-2.26,2.25.03,2.68,1.95,3.62,3.3.77,1.11,2.48,1.48,3.14,2.66.57,1.01-.19,2.68.16,3.79.03.03.05.05.08.08.43,1.06,1.64,1.29,2.5,1.93.51.64,1.02,1.29,1.53,1.93,1.5,1.15,6.21,1.21,5.88-1.69-.28-2.42-2.57-1.65-4.75-2.17-1.45-2.11,2.92-2.62.97-5.32Z"/>
      <path class="cls-1" d="M146.34,198.54c-.5-1.31-1.49-1.68-3.38-1.61-1.1.9-1.64,3.46,0,4.27,2.02.99,3.22-.97,3.38-2.66Z"/>
      <path class="cls-1" d="M147.87,198.46c.64,2.23,2.45,3.79,4.59,2.09.66-2.36-.32-3.73-2.74-3.62-.97.52-1.31.58-1.85,1.53Z"/>
      <path class="cls-1" d="M166.16,196.93c-.27.21-.54.43-.81.64-1.02,3.64,4.26,4.47,4.11.56-.8-.91-1.48-1.27-3.3-1.21Z"/>
      <path class="cls-1" d="M172.44,197.09c-.54.32-.95.35-1.21.97-.74,1.62,2.26,3.97,3.7,1.61.24-.4.52-.88.32-1.53-.41-.94-1.4-1.11-2.82-1.05Z"/>
      <path class="cls-1" d="M178.48,200.64c1.28.69,2.97-1.02,2.74-2.26-.2-1.03-1.46-1.38-2.82-1.29-.63.32-1.07.38-1.37,1.05-.42.99.78,2.25,1.45,2.5Z"/>
      <path class="cls-1" d="M76.68,200.64c.48-1.86-.5-3.41-2.5-3.46-3.42,1.75-.73,6.13,2.5,3.46Z"/>
      <path class="cls-1" d="M147.95,202.89c-.39-.26-1.04-.25-1.69-.24-3.06,2.01,1.01,3.87,1.61,5.32.77,1.85-.44,3.76,1.69,4.43.65.2,1.57.03,2.01-.24,1-.61,1.46-2.58.89-4.19-.05-.14-4.31-4.94-4.51-5.07Z"/>
      <path class="cls-1" d="M117.83,212.96c1.92,1.04,1.99,4.45,5.24,2.09.5-2.04-3.84-6.23-5.56-6.6-1.64-.36-2.99.8-4.51.24-1.62-.59-1.45-2.94-3.54-3.14-1.55-.15-1.58,2.05-2.66,2.58-2.74-1.21-3.33-5.41-6.77-5.4-.6.37-.99.52-1.13,1.37-.4,1.75,2.69,2.25,2.17,4.03-.37,1.27-2.09,1.43-2.42,3.06.33.74,1.12,2.1,2.42,1.53,1.11-.44,1.15-1.85,2.26-2.34,1.95-.68,3.83,3.97,4.99,4.83.97.72,2.51.93,3.14-.24.24-.59.48-1.18.72-1.77.7-.4,1.67-.48,2.82-.48.98,0,2.17-.11,2.82.24Z"/>
      <path class="cls-1" d="M131.52,211.35c.75,1.13,3.69,2.88,5.07,1.13.27-.81.54-1.61.81-2.42,2.39-1.33,4.03,5.45,8.38,2.17.61-2.62-4.06-6.97-6.85-6.93-1.76.99-1.27,2-2.5,3.14-2.01-.29-2.2-2.26-4.35-2.5-1.76.93-1.66,3.75-.56,5.4Z"/>
      <path class="cls-1" d="M128.71,215.38c1.28-1.87.1-8.22-1.37-9.26-.77-.55-1.95-.59-3.3-.56-.46.13-.91.27-1.37.4-1.72,1.22,1.75,4.22,2.09,5.07.97,2.43-.43,5.6,3.95,4.35Z"/>
      <path class="cls-1" d="M96.49,212.24c1.34-2.24-1.35-3.93-3.38-3.87-1.46.71-2.64.83-2.82,2.82.64,1.69,4.88,3.26,6.2,1.05Z"/>
      <path class="cls-1" d="M165.35,211.27c.45,1.04,2.87,2.94,4.19,1.37,1.23-1.47-.36-3.69-1.77-3.95-1.36.54-2.24.9-2.42,2.58Z"/>
      <path class="cls-1" d="M178.72,211.59c-.15-1.77-1.15-2.89-3.22-2.82-.83.55-2.27,1.88-1.29,3.38,1.2,1.84,3.7.87,4.51-.56Z"/>
      <path class="cls-1" d="M187.18,208.77c-2.85,1.4-1.47,5.35,1.69,4.43,2.7-.79.69-4.3-1.69-4.43Z"/>
      <path class="cls-1" d="M195.47,211.27c-2.04,1.49-1.74,3.95.81,4.67.4.11,1.01.39,1.53.16,2.58-1.15.34-4.87-2.34-4.83Z"/>
      <path class="cls-1" d="M158.1,215.22c.63-2.29-.77-3.8-3.14-3.7-.24.08-.48.16-.72.24-.21.21-.43.43-.64.64-1.37,3.07,2.68,4.31,4.51,2.82Z"/>
      <path class="cls-1" d="M102.37,214.49c-2.32,1.42-.31,5.33,3.06,4.19,1.54-2.05-.03-4.5-2.66-4.43-.13.08-.27.16-.4.24Z"/>
      <path class="cls-1" d="M202.96,227.54c2.84-.7,1.69-4.96-1.45-4.91-2.56,1.14-2.15,5.79,1.45,4.91Z"/>
      <path class="cls-1" d="M213.59,228.42c-1.46-3.55-.02-4.65-4.67-5.48-4.89,1.97-.98,3.12-.16,5.48.8,2.32-.2,3.33,2.09,4.35.45.2,1.14.36,1.69.08.78-.39,1.7-2.83,1.05-4.43Z"/>
      <path class="cls-1" d="M56.06,255c.34-.49.59-1.33.32-1.93-.82-1.83-2.43-.44-4.19-1.05-.54-.19-.8-.7-1.05-1.21.68-1.24,2.06-1.22,2.66-2.74-.2-1.71-1.97-1.62-2.98-2.5-1.02-1.15-2.04-2.31-3.06-3.46-.21-.89-.43-1.77-.64-2.66-.54-1.12-1.66-1.45-1.69-3.14.59-.5,1.35-.72,2.01-1.21,1.54-1.15.35-3.2-.97-3.62-.59.21-1.29.32-1.69.72-.99.98-.59,2.92-2.66,2.42-.74-.97.08-2.49-.4-3.79-.78-.86-1.56-1.72-2.34-2.58-.55-.99-.17-2.28-.56-3.54-.67-2.14-4.63-1.62-7.41-1.61-.89.44-2.78,1.56-1.85,3.14.83,1.68,4.3.37,5.4,1.77.99,1.26.4,5.44.97,7.17,1.05.62,4.03.14,4.67,1.21.27,1.13.54,2.26.81,3.38.66,1.14,2.1,1.84,2.58,3.14.38,1.04-.11,2.89.48,3.7.99,1.35,3.98-.01,4.75,1.69v.89c-.81,1.44-4.12,1.57-2.26,5.4,1.06,2.17,7.73,2.4,9.1.4Z"/>
      <path class="cls-1" d="M199.82,236.16c.86-.79,1.57-1.61,1.53-3.3-.7-.83-1.23-1.48-2.82-1.45-2.11,1.13-2,4.9,1.29,4.75Z"/>
      <path class="cls-1" d="M207.71,234.22c-.95-1.26-1.26-2.55-3.3-2.74-.44.28-.82.41-1.13.81-.37,2.14,1.8,2.31,2.09,4.03.21.59-.33,1.11-.73,1.37-1.11.24-2.53-.15-3.62.16-2.8,4.06,6.95,5.46,8.7,3.14.4-.53.45-1.09.64-1.85.75-2.96-1.54-3.42-2.66-4.91Z"/>
      <path class="cls-1" d="M150.93,247.03c.4-.33.48-.89.72-1.37-.94-2.65-3.16-3.5-4.67-5.48-.87-1.13-.85-2.58-2.82-2.66-.4.21-.81.43-1.21.64-.49.6-.5,1.62-1.21,2.01h-.81c-.95-.4-1.06-1.62-1.85-2.17-1.05-.73-7.67-.66-8.21.64-.23.6.08,1.1.32,1.45,1.82,2.72,5.04.19,7.33,1.77,1.45,1,.24,6.82,3.62,5.48,2.13-.75.51-2.89,1.21-4.83l.48-.48c.21-.03.43-.05.64-.08,1.48,1.37.65,2.7,1.61,4.35.83,1.42,3.46,1.86,4.83.72Z"/>
      <path class="cls-1" d="M163.1,246.38c.38-.61.44-1.69,0-2.26-.66-.86-1.93-.26-3.22-.56-2.24-.53-2.3-2.98-5.24-2.9-4.83,4.48,5.93,9.84,8.46,5.72Z"/>
      <path class="cls-1" d="M200.3,243c-.6.31-1.29.32-1.69.81-.55.68-.59,1.47-1.45,1.85-2.27.81-2.15-3.49-4.75-2.09-.5.27-.78.45-.89,1.13.57,1.1,2.64,2.48,2.26,3.95-.96,1.91-6.69-.15-8.78.48-1.15.35-1.23,1.91-2.26,2.42-2.03,1.46-3.75-4.45-7.33-2.26-.53.33-1.07.96-.97,1.69.39,2.74,2.83,1.67,4.67,2.9,1.08.73,1.1,2.35,2.66,2.66,2.35.46,2-2.43,3.3-3.06,2.07-1.01,6.64,1.1,8.86.16.87-.37,1.22-1.47,1.77-2.17.64-.48,1.29-.97,1.93-1.45.59-.7,1.18-1.4,1.77-2.09,1.68-1.06,4.52.97,4.91-1.61.62-1.86-2.3-3.29-4.03-3.3Z"/>
      <path class="cls-1" d="M134.18,243.32c-2.39.14-5.31.06-8.05,0-.99.08-1.99.16-2.98.24-1.54.48-1.24,2.57-.16,3.3,1.2.81,7.43.63,9.5.97,1.97.32,4.45.29,4.67-1.45.4-1.26-1.74-3.13-2.98-3.06Z"/>
      <path class="cls-1" d="M172.52,248.96c.22-.52.07-1.5-.16-1.85-.7-.51-1.4-1.02-2.09-1.53-.56-.64-1.13-1.29-1.69-1.93-.43-.11-.86-.21-1.29-.32-1.06.48-1.56.43-2.01,1.53.09,1.76,5.73,7.86,7.25,4.11Z"/>
      <path class="cls-1" d="M183.23,246.71c1.93-3.04-1.85-3.5-4.43-3.38-.73.36-1.4.31-1.61,1.21-.68,2.36,4.55,4.52,6.04,2.17Z"/>
      <path class="cls-1" d="M187.1,243.32c-.38.21-.75.43-1.13.64-.46,1.62.58,3.12,2.34,3.06.7-.6,1.34-1.14,1.45-2.34-.41-1.01-1.18-1.43-2.66-1.37Z"/>
      <path class="cls-1" d="M125.24,248.88c-1.96.31-1.9,1.89-3.14,2.82-2.47-.09-2.16-2.62-4.59-2.82-3.86,2.27-.3,3.85,1.37,5.07.86.89,1.72,1.77,2.58,2.66-.08.27-.16.54-.24.81-1.35.5-3.34.3-4.35,1.05-.71,2.7,2.06,4.81,4.83,3.7,1.05-.42,1.23-1.94,2.09-2.58,1.06-.78,1.86-.79,2.58-1.93-.28-1.99-2.29-1.98-2.66-3.79.19-.19.38-.38.56-.56,1.32.03,2.63.05,3.95.08,1.76-1.86-.31-4.93-2.98-4.51Z"/>
      <path class="cls-1" d="M161.73,249.04c-.71.4-1.48.89-1.85,1.61-.92,1.79,1.05,3.56,2.98,3.06,2.31-.59,1.51-4.76-1.13-4.67Z"/>
      <path class="cls-1" d="M149.4,249.2c-.51.38-1.24.8-1.45,1.45-.66,2.04,1.11,3.61,2.9,2.98,2.52-.89,1.48-4.57-1.45-4.43Z"/>
      <path class="cls-1" d="M155.36,249.28c-.96.5-1.32.7-1.77,1.69-.04,1.66,1.88,3.52,3.62,2.42,1.96-1.24.02-4.05-1.85-4.11Z"/>
      <path class="cls-1" d="M169.46,251.94c-3.17,1.7-.22,3.63,1.13,4.83,1.16,1.03,1.57,2.19,3.22,2.82,1.76-.03,2.47-1.69,1.61-3.14-.62-1.04-4.51-4.44-5.96-4.51Z"/>
      <path class="cls-1" d="M58.88,260.88c1.69-2.26-.63-3.48-3.22-3.38-2.52,1.02-4.27-.68-5.64,1.85-.23.44-.48,1.13-.16,1.69.93,2.06,7.89,1.34,9.02-.16Z"/>
      <path class="cls-1" d="M113.16,262.25c2.32-.69,1.56-4.85-1.21-4.75-2.92,1.32-2.15,5.75,1.21,4.75Z"/>
      <path class="cls-1" d="M65.08,266.84c.25-.36.29-1.02.16-1.53-.48-1.9-1.99-2.01-4.43-1.93-2.22.85-9.79-.89-8.05,3.46.84,2.1,4.87,1.06,6.93.81,2.06-.26,4.26.8,5.4-.81Z"/>
      <path class="cls-1" d="M117.75,263.46c-.54.25-1.21.33-1.53.81-.81,1.18.29,3.08,1.05,3.54,1.1.67,2.9.28,3.3-.72.78-1.77-1.3-3.66-2.82-3.62Z"/>
      <path class="cls-1" d="M74.26,278.2c-.9-.28-1.92-.08-2.58-.56-1.06-.78-.74-2.97-1.53-4.03-.76-1.03-2.51-.83-3.79-1.37-2.02-.86-2.09-3.19-5.15-3.14-1.34.58-3.51,1.45-2.66,3.54.65,1.59,3.74.56,5.15,1.37,1.31.75,1.99,2.38,3.14,3.3,1.09.88,2.37,1.79,3.22,2.9.55.71.79,1.75,1.53,2.26,1.19.81,3.45.35,4.11-.56,1.06-1.48.04-3.23-1.45-3.7Z"/>
      <path class="cls-1" d="M109.94,269.18c-1.58.85-1.33,1.78-2.5,2.66-1.32.15-4.68-5.05-6.12-1.45-1.22,3.04,5.55,4.44,6.12,7.01-.16.24-.32.48-.48.72-1.2.26-3.02.2-4.27,0-2.15.05-4.3.11-6.44.16-1.11.15-2.24-.32-3.14-.4-1.33-.12-2.93.69-2.58,2.26.65,2.84,8.43,2.29,12.16,2.34,1.36.02,2.99.68,4.27.16,1.35-.55,1.32-2.47,2.66-2.98,1.67-.64,5.64.91,4.99-2.01-.72-3.24-4.1-1.38-5.48-3.38v-.48c.16-.13.32-.27.48-.4,1.76-1.32,6.62,2.26,7.81-.72.24-.59-.08-1.19-.24-1.61-.89-2.36-4.02-1.94-7.25-1.85Z"/>
      <path class="cls-1" d="M94.96,271.91c-1.01.41-1.69.37-2.09,1.37-.7,1.52,1.7,3.62,3.22,2.82,1.84-.96,1.7-4.31-1.13-4.19Z"/>
      <path class="cls-1" d="M74.34,272.08c-.75.44-1.14.48-1.53,1.29-.02,1.8,2.52,3.73,3.95,2.09,1.51-1.73-.52-3.49-2.42-3.38Z"/>
      <path class="cls-1" d="M88.11,279.32c-1.76-2.01-2.19-.35-4.35-1.29-1.5-.65-1.6-2.44-3.79-2.5-.59.26-1.12.31-1.37.89v.16c-.42,1.29.4,2.54.16,3.95-.15.86-.64,1.85-.4,2.98.1.48.44,1.13.81,1.37.63.42,1.79.19,2.34-.16.7-.7,1.4-1.4,2.09-2.09,2.07-1.23,4.58.17,4.51-3.3Z"/>
      <path class="cls-1" d="M92.54,283.75c-1.8,1.14-3.01,2.81-.81,4.59.62.56,3.56.19,4.59.16.27-.54.54-1.07.81-1.61.46-2.42-2.35-3.22-4.59-3.14Z"/>
      <path class="cls-1" d="M86.26,284.08c-2.99,1.6-2.1,1.74-1.29,4.43h2.66c.5-1.46,2-4.47-1.37-4.43Z"/>
    </g>
  </g>
</svg>