<?xml version="1.0" encoding="UTF-8"?>
<svg id="Layer_2" data-name="Layer 2" xmlns="http://www.w3.org/2000/svg" viewBox="0 0 135.56 367.85">
  <defs>
    <style>
      .cls-1 {
        fill-rule: evenodd;
      }
    </style>
  </defs>
  <g id="Layer_1-2" data-name="Layer 1">
    <g>
      <path class="cls-1" d="M135.4,55.35c-.08-.01-.17-.02-.25-.03-.15.14-.34.34-.56.4-.13.02-.27.04-.4.06-.32.2-.58.64-.9.87-.14.04-.29.08-.43.12-.17.15-.33.31-.5.46-.13.05-.27.1-.4.15-1.64,1.49-3.33,2.87-5.11,4.24-.2.23-.39.45-.59.68-.19.11-.37.23-.56.34-.63.47-.99,1.12-1.73,1.52-.26.32-.52.64-.77.96-1.42,1.17-2.78,2.34-4.33,3.37-.39.41-.78.83-1.18,1.24-.19.16-.43.14-.65.28-.12.15-.25.31-.37.46-.37.24-.68.43-1.05.68-.54.37-.87,1.01-1.39,1.36-.18.07-.35.14-.53.22-.1.12-.21.25-.31.37-.6.42-1.16.74-1.8,1.15-.11.13-.23.27-.34.4-.41.29-.84.39-1.24.68-.08.11-.17.23-.25.34-.35.33-.81.51-1.21.8-.32.24-.63.62-.96.84-.21.06-.41.12-.62.19-.37.23-.72.67-1.08.9-.15.04-.31.08-.46.12-.44.22-.92.67-1.33.93-.18.06-.35.12-.53.19-.32.24-.61.63-.93.87-.37.27-.76.39-1.15.65-.37.25-.7.73-1.08.96-.91.54-1.73,1.08-2.6,1.67-.37.25-.7.71-1.08.96-.17.06-.33.12-.5.19-.34.23-.63.67-.96.9-.38.26-.74.37-1.11.62-.13.14-.27.29-.4.43-.21.05-.41.1-.62.15-.19.12-.37.25-.56.37-.32.04-.64.08-.96.12-.15.14-.31.29-.46.43-.12.03-.25.06-.37.09-1.42.88-2.04,2.62-3.37,3.59-.91.66-1.74,1.47-2.66,2.07-.14.05-.29.1-.43.15-.11.14-.23.29-.34.43-.42.25-.81.37-1.21.65-.33.23-.6.68-.93.9-.18.05-.35.1-.53.15-.34.23-.62.72-.96.93-.17.06-.33.12-.5.19-.55.41-1.05,1.03-1.64,1.39-.15.05-.31.1-.46.15-.65.44-1.25,1.17-2.14,1.39-.95.24-1.59-.74-1.8-1.27-.04-.24-.08-.47-.12-.71-.1-.06-.21-.12-.31-.19-.41-.4-.54-.64-1.05-.99-.46-.31-.88-1.18-1.15-1.67-.27-.49-.12-1.57-.12-2.26,0-1.47.06-2.66.06-4.15,0-.64-.14-1.62.06-2.14.25-.64.68-1.51,1.33-1.76.3-.06.6-.12.9-.19.19-.12.37-.25.56-.37.28-.03.56-.06.84-.09.23-.14.45-.29.68-.43.32-.02.64-.04.96-.06.19-.15.37-.31.56-.46.23-.02.45-.04.68-.06.28-.14.56-.29.84-.43.26-.04.52-.08.77-.12.24-.08.42-.3.62-.4.25-.05.5-.1.74-.15.14-.11.29-.23.43-.34.3-.04.6-.08.9-.12.29-.08.43-.38.68-.46.22-.02.43-.04.65-.06.24-.08.96-.55,1.08-.77.16-.39-.24-.44-.31-.68-.1-.38.15-.67-.19-.87-.39-.27-2.81.45-3.16.59-.56.05-1.11.1-1.67.15-.15.09-.31.19-.46.28-.27.11-.75.14-.99.19-.6.04-1.2.08-1.8.12-.74.19-2.1.73-3.34.43-1.33-.32-.87-3.4-.87-5.01.03-2.02.06-4.05.09-6.07.07-.32.21-.62.28-1.02.17-1.06,0-2.36.15-3.22.01-1.3.02-2.6.03-3.9.09-.29.4-.26.53-.5v-7.06c0-.51.12-.83.19-1.24-.01-1.94-.02-3.88-.03-5.82.09-.43.19-.87.28-1.3-.01-1-.02-2-.03-3,.04-.45.08-.91.12-1.36,0-1.19.21-5.09-.22-5.7-.29-.42-1.27-.44-1.92-.31-.11.18-.55.81-.59.93-.01.99-.02,1.98-.03,2.97-.06.4-.22.69-.28,1.02.01.86.02,1.71.03,2.57-.28,1.79-.28,4.45-.28,6.41v4.02c0,.43.09,1.07-.06,1.39-.09.2-.36.21-.46.4-.01.61-.02,1.22-.03,1.83.02,1.65.04,3.3.06,4.95-.11.94.11,2.17-.06,3.19-.06.36-.3.53-.37.84v1.05c0,.87.02,1.79-.09,2.54v2.07c-.03.46-.06.93-.09,1.39v2.26c-.07.18-.14.35-.22.53.01.71.02,1.42.03,2.14.05.5-.19.98-.28,1.33-.01.59-.02,1.18-.03,1.76-.04.17-1.12,1.28-1.3,1.39-.27.05-.54.1-.8.15-1.17.2-1.82-.31-1.98-1.21-.13-.72.29-1.24.4-1.76.03-.27.06-.54.09-.8.13-.3.39-.4.46-.8.34-1.94-.76-2.49-1.05-3.81v-3.1c-.12-.23-.44-.23-.53-.46-.01-4.18-.02-8.36-.03-12.54-.31-1.81-.22-4.32-.22-6.47v-2.51c-.09-.32-.19-.64-.28-.96v-5.17c-.27-1.69-.06-3.79-.06-5.6-.03-5.06-.06-10.11-.09-15.17-.07-.29-.31-.5-.37-.84-.02-5.02-.04-10.05-.06-15.08-.72-.37-.53-1.06-.53-2.07,0-1.46-.05-2.65-.43-3.68-.18-.14-.26-.23-.62-.22-.18.04-.35.08-.53.12-.15.3-.11.72-.22,1.11-.3,1.12-.37,2.42-.37,3.93v70.86c-.08.35-.6.47-.59.84.02.62.21,1.52-.22,1.86-1.04.22-1.76-1.1-2.2-1.8-.07-.22-.14-.43-.22-.65-.26-.41-.62-.94-.87-1.36-.08-.23-.17-.45-.25-.68-.28-.27-.63-.56-.84-.9-.34-.55-.36-1.18-.68-1.76-.12-.22-.43-.38-.53-.65-.03-.2-.06-.39-.09-.59-.13-.22-.27-.43-.4-.65-.03-.21-.06-.41-.09-.62-.13-.15-.27-.31-.4-.46-.04-.27-.08-.54-.12-.8-.23-.42-.79-.91-.96-1.36-.04-.23-.08-.45-.12-.68-.13-.18-.34-.24-.43-.5-.06-.27-.12-.54-.19-.8-.25-.43-.68-.94-.87-1.39-.05-.23-.1-.45-.15-.68-.12-.19-.25-.37-.37-.56-.04-.22-.08-.43-.12-.65-.23-.41-.64-.83-.9-1.24-.29-.46-.42-1.23-.68-1.73-.31-.46-.62-.93-.93-1.39-.06-.23-.12-.45-.19-.68-.12-.15-.25-.31-.37-.46-.04-.21-.08-.41-.12-.62-.14-.24-.29-.47-.43-.71-.04-.15-.08-.31-.12-.46-.28-.43-.7-.92-.93-1.39-.05-.25-.1-.5-.15-.74-.12-.14-.25-.29-.37-.43-.15-.3-.11-.67-.28-.93-.19-.3-.74-1.06-.84-1.36-.02-.18-.04-.35-.06-.53-.09-.22-.34-.27-.43-.46-.05-.3-.1-.6-.15-.9-.2-.53-.82-.99-.99-1.52-.02-.17-.04-.33-.06-.5-.13-.23-.27-.45-.4-.68-.05-.28-.1-.56-.15-.84-.09-.07-.19-.14-.28-.22-.08-.22-.17-.43-.25-.65-.17-.21-.33-.41-.5-.62-.03-.15-.06-.31-.09-.46-.12-.2-.25-.39-.37-.59-.05-.22-.1-.43-.15-.65-.25-.36-.61-.76-.84-1.15-.06-.24-.12-.47-.19-.71-.12-.18-.25-.35-.37-.53-.23-.52-.35-1.01-.65-1.49-.15-.18-.31-.35-.46-.53-.55-1.09-.95-2.29-1.89-3-1.03-.2-1.76.47-1.36,1.55.12.11.25.23.37.34.08.27.17.54.25.8.11.14.3.15.37.34.04.29.08.58.12.87.26.48.69,1.11.93,1.61.05.25.1.5.15.74.24.38.72.77.9,1.21.28.7.3,1.24.59,1.92.08.2.32.18.43.34.37.52.44,1.11.68,1.76.07.19.24.21.34.34.18.24.09.66.25.93.25.4.79.87.96,1.33.02.22.04.43.06.65.14.18.29.35.43.53.06.28.12.56.19.84.23.37.83,1.02.96,1.39.03.21.06.41.09.62.11.17.23.33.34.5.05.29.1.58.15.87.22.41.88,1.1,1.02,1.55.02.2.04.39.06.59.12.14.25.29.37.43.03.23.06.45.09.68.12.1.25.21.37.31.11.29.23.58.34.87.09.11.19.23.28.34.03.23.06.45.09.68.12.13.25.27.37.4.06.26.12.52.19.77.13.22.27.43.4.65.03.23.06.45.09.68.14.11.29.23.43.34.39.63.46,1.26.74,2.01.12.2.25.39.37.59.02.2.04.39.06.59.34.53.68,1.05,1.02,1.58.03.19.06.37.09.56.14.22.29.43.43.65.09.27.05.54.19.74.23.34.8,1.06.93,1.42.03.2.06.39.09.59.11.25.35.4.43.71.03.21.06.41.09.62.29.72.84,1.15,1.15,1.92.1.17.21.33.31.5.03.25.06.5.09.74.14.21.29.41.43.62.05.28.1.56.15.84.11.21.36.43.43.68.02.31.04.62.06.93.11.15.23.31.34.46.06.24.12.47.19.71.13.21.27.41.4.62.05.33.1.66.15.99.32.87,1.51,1.64.8,3.03-1.37.48-1.46-.62-2.07-1.21-.71-.68-1.34-1.29-1.95-2.07-.25-.32-.7-.56-.93-.9-.65-.95-.66-2.55-2.23-2.38-.06.11-.09.17-.09.37.43.45.29.59.59,1.08.38.65.98,1.24,1.39,1.86.11.37.23.74.34,1.11.08.11.17.23.25.34.18.53-.04,1.37.22,1.83.47.83,1.3,1.59,2.1,2.1.12.08.67.84.84,1.02.16.18.1.49.19.74.13.22.27.43.4.65.22.62-.02,1.29.15,1.98.08.3.42.33.5.62-.01.98-.02,1.96-.03,2.94-.07.29-.39.32-.46.62-.22.88-.03,2.2.09,2.97-.01.28-.02.56-.03.84.11.15.23.31.34.46.15.36.17,1.19.09,1.67-.04.31-.08.62-.12.93-.09.14-.19.29-.28.43-.11.43-.03.94-.09,1.3v2.94c-.09.67-.19,1.34-.28,2.01.11.52.22,1.27.31,1.86v.59c.12.13.25.27.37.4.03.3.06.6.09.9.08.21.33.32.4.59.07.55.14,1.09.22,1.64.09.39.28.75.37,1.08.01.25.02.5.03.74.07.2.33.19.43.34.2.29.29.98.4,1.27.23.56.12,1.23.31,1.89.14.29.29.58.43.87.03.9.06,1.8.09,2.69.12.28.25.56.37.84.05.35.1.7.15,1.05.15.24.31.47.46.71.03.34.06.68.09,1.02.13.19.27.37.4.56.03.29.06.58.09.87.29,1.28.49,2.19-.25,3.19-.67.17-1.66-.36-1.83-.96-.02-.33-.04-.66-.06-.99-.07-.22-.32-.26-.4-.5-.04-.37-.08-.74-.12-1.11-.14-.59-.29-1.18-.43-1.76-.04-.59-.08-1.18-.12-1.76-.1-.27-.78-.89-.93-1.24-.29-.67-.35-1.22-.59-1.92-.08-.24-.33-.2-.46-.37-.15-.2-.43-.86-.53-1.08-.06-.34-.12-.68-.19-1.02-.13-.19-.27-.37-.4-.56-.04-.27-.08-.54-.12-.8-.11-.17-.23-.33-.34-.5-.06-.33-.12-.66-.19-.99-.11-.41-.38-.62-.46-1.11v-1.61c-.07-.36-.36-.64-.46-1.05-.05-.34-.1-.68-.15-1.02-.38-.86-1.36-1.34-1.55-2.38-.19-1.08.22-1.68.46-2.32.04-.29.08-.58.12-.87.14-.17.29-.33.43-.5.05-.21.1-.41.15-.62.13-.18.27-.35.4-.53.05-.24.1-.47.15-.71.11-.12.23-.25.34-.37.24-.44.11-2.32.03-2.79-.12-.08-.15-.12-.37-.12-.23.22-.55.53-.68.84-.04.14-.08.29-.12.43-.29.44-.83.91-1.27,1.21-.25.08-.5.17-.74.25-.13.11-.27.23-.4.34-.43.02-.87.04-1.3.06h-3.37c-.31-.02-.62-.04-.93-.06-.53.08-.65-.28-1.05-.37-.59-.04-1.18-.08-1.76-.12-.53-.11-1.05-.35-1.52-.46-.48-.03-.97-.06-1.45-.09-.23-.11-.45-.23-.68-.34-.79-.08-1.59-.17-2.38-.25-.3-.12-.6-.25-.9-.37-.51-.03-1.01-.06-1.52-.09-.39-.11-.95-.37-1.42-.46-.89-.18-1.93-.13-2.76-.03h-2.38c-.8.01-1.61.02-2.41.03-1.63-.26-3.23-.67-4.74-1.05-.32-.02-.64-.04-.96-.06-.35-.07-.56-.28-.87-.37-.57-.06-1.14-.12-1.7-.19-.42-.14-.85-.29-1.27-.43-.55-.03-1.09-.06-1.64-.09-.18-.11-.35-.23-.53-.34-.56-.18-3.3-.29-3.68-.15-.06.26.07.47.03.74-.04.29-.24.35-.25.71.74.66,1.18.48,2.26.77.27.14.54.29.8.43.37.04.74.08,1.11.12.24.09.38.33.68.4.56.04,1.11.08,1.67.12.46.1.82.36,1.33.46.39.02.78.04,1.18.06.32.1.69.33,1.08.43.37.04.74.08,1.11.12.24.12.47.25.71.37.45.04.91.08,1.36.12.42.15.85.31,1.27.46.38.02.76.04,1.15.06.26.12.52.25.77.37.5.07.99.14,1.49.22.27.12.54.25.8.37.33.03.66.06.99.09,1.01.25,2.33.66,3.31.96.36.05.72.1,1.08.15.31.13.62.27.93.4.4.03.8.06,1.21.09.2.13.39.27.59.4.48.04.97.08,1.45.12.38.15.76.31,1.15.46.39.04.78.08,1.18.12.25.12.5.25.74.37.5.03.99.06,1.49.09.27.12.54.25.8.37.45.05.91.1,1.36.15.38.14.76.29,1.15.43.41.04.83.08,1.24.12.22.12.43.25.65.37.41.06.83.12,1.24.19.15.12.31.25.46.37.19.02.37.04.56.06.25.15.5.31.74.46.18.04.35.08.53.12.31.29.62.58.93.87.23.15.45.31.68.46.08.25.17.5.25.74.11.13.23.27.34.4.2.51.08,1.04.19,1.67.1.58.33,1.02.43,1.45.01.19.02.37.03.56.07.23.33.24.43.43.06.3.12.6.19.9.14.37.29.74.43,1.11.02.25.04.5.06.74.07.23.27.27.37.43.04.25.08.5.12.74.1.44.57.71.43,1.3-.12.52-.72,1.19-1.24,1.3-.27.01-.54.02-.8.03-.22.1-.43.21-.65.31-.86.01-1.71.02-2.57.03-.4.05-.8.1-1.21.15-1.08.11-2.4-.04-3.34.12h-2.76c-.3.11-.6.23-.9.34h-1.86c-.97.03-1.94.06-2.91.09-2.16,0-4.79.19-6.1-.68-1.41-.93-2.53-2.21-3.9-3.19-.5-.36-.63-.93-1.49-.96h-.03c-.04.07-.16.18-.09.34.25.13.5.27.74.4.25.29.5.58.74.87.2.05.39.1.59.15.58.37.99,1.08,1.55,1.45.13.04.27.08.4.12.33.19.58.63.87.87.26.2.52.39.77.59.21.04.41.08.62.12.17.12.33.25.5.37,1.09.44,3.1-.17,4.24.22.18.12.35.25.53.37.36.1.65-.27.93-.37.87-.32,2.96-.34,3.31.4-.48,1.04-2.98,1.3-4.09.59-.32.04-.5.25-.77.34-.3.05-.6.1-.9.15-.1.13-.21.27-.31.4v.22c.4.41.69.24,1.15.53.57.36,1.02.95,1.52,1.39.21.07.41.14.62.22.23.27.45.54.68.8.18.06.35.12.53.19.08.11.17.23.25.34.24.18.47.35.71.53.19.22.37.43.56.65.28.18.59.26.77.53.1.15.21.31.31.46.86.59,1.62,1.17,2.48,1.73.33.22.54.61.84.87.35.3.76.48,1.15.74.29.3.58.6.87.9.38.26.71.41,1.08.68.26.31.52.62.77.93,1.15.88,2.19,1.91,3.53,2.57,1.14-.05,2.35-1.39,3.16-1.92.22-.08.43-.17.65-.25.3-.27.6-.54.9-.8.2-.13.36-.1.5-.28.35-.48.87-2.09,1.3-2.32.29-.24,1.01-.03,1.15.19.11.17.12.58.19.74h.46c.21-.24.41-.47.62-.71.36-.91.38-2.69,1.89-2.38.48.1.53.43,1.21.43.02-.01.04-.02.06-.03.1-.38-.04-.84.06-1.27.13-.51.41-.75.4-1.55-.03-.02-.06-.04-.09-.06-.45.27-.92,1.46-1.67,1.27-.34-.09-1.2-1.24-1.3-1.58-.04-.35-.08-.7-.12-1.05-.09-.27-.31-.47-.4-.77-.04-.29-.08-.58-.12-.87-.12-.13-.25-.27-.37-.4-.05-.26-.1-.52-.15-.77-.17-.29-.33-.58-.5-.87-.08-.72-.17-1.44-.25-2.17.22-.96.92-.85,1.83-1.15.19-.1.37-.21.56-.31.43-.13.8-.05,1.02-.37.17-.34.33-.68.5-1.02.21-.72-.09-1.6.62-1.83.02-1.24.04-2.48.06-3.71.07-.34.34-.44.4-.74-.02-.56-.04-1.11-.06-1.67-.11-.21-.23-.41-.34-.62-.02-1.18-.04-2.35-.06-3.53.02-.27.04-.54.06-.8-.17-.17-.33-.33-.5-.5-.03-.3-.06-.6-.09-.9-.12-.58-.28-1.22-.43-1.7-.04-.32-.08-.64-.12-.96-.14-.19-.29-.37-.43-.56-.23-.45-.34-1.03-.68-1.36-.12-.12-.28-.12-.37-.28-.35-.6-.52-1.08-.93-1.58-.23-.27-.71-.49-.99-.71-.34-.28-.45-.8-.84-1.05-.06-.05-.04-.04-.15-.06-.4.25-.51.82-.93.99-.97.4-1.2-.64-1.36-1.3-.21-.89-.48-2.86.09-3.59.14-.09.29-.19.43-.28.19-.14.38-.48.28-.9-.06-.22-.28-.29-.37-.46-.05-.29-.1-.58-.15-.87-.17-.25-.33-.5-.5-.74-.21-.79.02-1.79-.22-2.54-.26-.82-.92-1.14-.8-2.23.79-.62,1.99.05,3.03-.22.05-.04.1-.08.15-.12v-.4c-.67-.46-.3-.56-.65-1.24-.11-.22-.33-.46-.4-.74-.02-.2-.04-.39-.06-.59-.14-.38-.81-1.13-.99-1.52-.05-.31-.1-.62-.15-.93-.13-.24-.27-.47-.4-.71-.02-.21-.04-.41-.06-.62-.13-.1-.27-.21-.4-.31-.1-.35-.21-.7-.31-1.05-.1-.17-.21-.33-.31-.5-.01-.43-.02-.87-.03-1.3-.14-.18-.29-.35-.43-.53-.04-.29-.08-.58-.12-.87-.08-.21-.28-.3-.4-.46-.17-.23-.45-.57-.56-.8-.05-.21-.1-.41-.15-.62-.1-.15-.28-.22-.37-.4-.08-.3-.17-.6-.25-.9-.26-.41-.7-.94-.87-1.39-.04-.21-.08-.41-.12-.62-.13-.26-.27-.52-.4-.77-.03-.19-.06-.37-.09-.56-.12-.1-.25-.21-.37-.31-.12-.29-.25-.58-.37-.87-.08-.09-.17-.19-.25-.28-.04-.23-.08-.45-.12-.68-.09-.19-.33-.25-.4-.5-.03-.24-.06-.47-.09-.71-.27-.45-.75-1.01-.96-1.52-.05-.25-.1-.5-.15-.74-.21-.53-.64-1.2-.87-1.73-.05-.26-.1-.52-.15-.77-.31-.44-.76-1.02-.99-1.55-.04-.24-.08-.47-.12-.71-.13-.21-.27-.41-.4-.62-.03-.22-.06-.43-.09-.65-.15-.34-.88-1.09-.99-1.45-.02-.24-.04-.47-.06-.71-.12-.12-.25-.25-.37-.37-.06-.28-.12-.56-.19-.84-.21-.47-.79-.92-.99-1.39-.03-.22-.06-.43-.09-.65-.12-.19-.25-.37-.37-.56-.04-.26-.08-.52-.12-.77-.07-.19-.27-.25-.37-.4-.06-.18-.12-.35-.19-.53-.17-.21-.33-.41-.5-.62-.31-.56-.39-1.15-.71-1.67-.27-.44-.54-.89-.8-1.33-.05-.28-.1-.56-.15-.84-.1-.09-.21-.19-.31-.28-.06-.22-.12-.43-.19-.65-.13-.2-.27-.39-.4-.59-.03-.2-.06-.39-.09-.59-.12-.1-.25-.21-.37-.31-.21-.39-.41-.78-.62-1.18-.07-.28-.14-.56-.22-.84-.1-.14-.21-.29-.31-.43-.04-.22-.08-.43-.12-.65-.28-.37-.85-1.25-.99-1.7-.02-.27-.04-.54-.06-.8-.17-.45-.52-.33-.28-1.11.07-.04.14-.08.22-.12,1.12.06.82.52,1.21,1.15.23.37.65.75.87,1.15.06.24.12.47.19.71.04.07.47.9.5.93.18.15.31.13.43.34.3.5.42.92.65,1.52.13.18.27.35.4.53.07.26.14.52.22.77.24.36.61.78.84,1.15.05.32.1.64.15.96.11.09.23.19.34.28.06.24.12.47.19.71.11.14.23.29.34.43.09.24.19.47.28.71.12.14.25.29.37.43.03.25.06.5.09.74.12.17.25.33.37.5.15.3.05.78.25,1.02.09.12.24.12.31.28.1.25.03.56.19.74.11.14.29.12.37.31.04.21.08.41.12.62.09.21.34.28.4.53.03.23.06.45.09.68.11.09.23.19.34.28.06.24.12.47.19.71.13.17.27.33.4.5.04.2.08.39.12.59.12.18.36.23.46.46.05.2.1.39.15.59.11.19.23.37.34.56.05.21.1.41.15.62.33.4.81,1.05.99,1.55.04.2.08.39.12.59.11.17.23.33.34.5.03.17.06.33.09.5.22.43.76.9.96,1.36.05.25.1.5.15.74.12.12.29.11.37.28.07.29.14.58.22.87.27.38.75.89.93,1.33.04.23.08.45.12.68.12.22.35.35.43.65.03.22.06.43.09.65.35.84,1.05,1.57,1.42,2.45.04.25.08.5.12.74.33.53.66,1.05.99,1.58.03.24.06.47.09.71.14.17.29.33.43.5.03.26.06.52.09.77.11.21.35.43.43.68.03.21.06.41.09.62.2.36.68.62.9.96.22.34.45,1.1.71,1.36.2.19.42.3.53.59.19.5.29,1.03.59,1.45.08.05.17.1.25.15.07.2.14.39.22.59.13.24.4.56.59.8.12.11.25.23.37.34.04.22.08.43.12.65.12.11.25.23.37.34.39.55.38,1.42.99,1.73.06.01.12.02.19.03.28-.51,0-1.42.12-2.1.08-.44.65-.7.5-1.24-.13-.13-.27-.27-.4-.4-.19-.31-.19-1.51-.09-1.98.18-.38.35-.76.53-1.15-.01-2.82-.02-5.63-.03-8.45V29.97c-.01-3.36-.02-6.73-.03-10.09,0-1.27-.19-3.51.12-4.52.12-.2.25-.39.37-.59.29.05.27.24.43.46.18.22.35.43.53.65.28.68.12,1.91.12,2.79-.01.91-.02,1.82-.03,2.72.08.3.33.54.4.9v6.44c-.09.49.12.84.12,1.33v9.97c0,1.02-.04,2.17.12,3v2.1c0,1.52.03,3.01.25,4.21v2.17c0,2.04-.14,4.5.19,6.16-.01,4.13-.02,8.26-.03,12.38.11.36.39.5.5,1.08v4.67c.47.27.79-.23,1.3-.15.1.16.2.34.25.56.03.15-.41,2.24-.5,2.41-.15.17-.31.33-.46.5v.59c-.08.49-.25.89-.37,1.45-.09.4-.34,1.36-.06,1.8.39.5,1.69-.11,2.07-.15.43-.05.93.02,1.24-.15.12-.11.25-.23.37-.34.3-.04.6-.08.9-.12.02-.01.67-1.16.68-1.21.01-.64.02-1.28.03-1.92.07-.41.36-.63.31-1.05-.15-1.15,0-2.59.15-3.53v-1.92c.13-.78-.02-1.85.12-2.72.09-.38.19-.76.28-1.15.17-.83-.29-1.7-.12-2.66.11-.29.23-.58.34-.87v-3c.07-.44.43-.84.37-1.24-.1-.26-.21-.52-.31-.77-.01-1.65-.02-3.3-.03-4.95.07-.41.33-.65.4-.99v-2.29c.02-1.6.04-3.2.06-4.8.03-2.38.06-4.77.09-7.15.1-.5.55-.49.46-1.08-.21-1.47-.11-4.01,1.45-3.22.23.84-.03,2.03.12,3.03.15.96.08,2.31-.06,3.19v3.68c-.09.25-.19.5-.28.74v3.84c0,1.4-.07,2.54-.22,3.65-.12.92.07,2.08-.06,2.94v3c-.08.42-.36.53-.43.9-.04,2.32-.08,4.64-.12,6.97-.21,1.24-.53,2.92-.28,4.55.07.49-.09.95-.15,1.33v4.89c0,1.05-.23,2.03.03,2.88.6.36,1.31-.04,2.2-.06.83-.02,1.34-.29,1.92-.46.39-.02.78-.04,1.18-.06.67-.17,1.34-.33,2.01-.5.61-.06,1.22-.12,1.83-.19.17-.1.33-.21.5-.31.31-.1,2.69-.25,2.69-.25.17.08.22.17.28.37.22.75-.55.66-.96.9-.23.14-.33.35-.65.43-.29.07-.57.01-.77.15-.09.1-.19.21-.28.31-.21.05-.41.1-.62.15-.18.13-.35.27-.53.4-.27.03-.54.06-.8.09-.19.14-.37.29-.56.43-.28.03-.56.06-.84.09-.29.09-.47.34-.71.43-.29.04-.58.08-.87.12-.3.14-.6.29-.9.43-.36.03-.72.06-1.08.09-.18.12-.35.25-.53.37-.26.03-.52.06-.77.09-.03,0-1.76.77-1.76.77-.11.16-.52.69-.56.8v9.41c.06.3.27.33.4.53.25.36.35.88.34,1.39-.19.21-.61.34-.71.62-.01.31-.02.62-.03.93-.23,1.27-.41,3.78-.03,5.05.11.07.19.1.4.09.52-.47,1.14-.7,1.76-1.08.38-.23.69-.69,1.05-.93.71-.47,1.51-.74,2.2-1.24.57-.42,1.09-1.07,1.7-1.42.22-.12.42-.1.59-.25.43-.38,1.09-1.06,1.58-1.33.13-.03.27-.06.4-.09.23-.15.68-.74.96-.93.18-.05.35-.1.53-.15.53-.34,1.11-1.08,1.7-1.45.15-.04.31-.08.46-.12.1-.13.21-.27.31-.4.26-.22.63-.26.87-.5.37-.36.71-.79,1.15-1.08.15-.04.31-.08.46-.12.37-.23.68-.72,1.05-.96.36-.23.83-.39,1.08-.71.62-.79,1.02-1.84,1.8-2.48.27-.22.63-.54.96-.65.4-.03.8-.06,1.21-.09.17-.03.78-.29.96-.4.35-.21.69-.67.99-.96.51-.49,1.19-.82,1.8-1.21.13-.13.27-.27.4-.4.13-.02.27-.04.4-.06.13-.14.27-.29.4-.43.89-.64,1.72-1.15,2.66-1.76.11-.12.23-.25.34-.37.15-.06.31-.12.46-.19.1-.11.21-.23.31-.34.25-.11.74.02.93-.15.13-.28.27-.56.4-.84.36-.52,1.82-1.33,2.72-1.33.03.02.06.04.09.06.18.29.14.59.03.93-1.13.67-1.13,1.59-2.85,1.8-.12.28-.25.56-.37.84-.15.08-.31.17-.46.25-1.1,1.07-2.13,2.3-3.53,3.06-.37.2-.58.75-.9,1.02-.7.6-1.58,1.18-2.35,1.7-.35.23-.61.67-.93.93-.36.28-.75.44-1.11.71-.3.22-.64.7-.93.9-.13.05-.27.1-.4.15-.51.46-1.01.93-1.52,1.39-.14.05-.29.1-.43.15-.28.31-.56.62-.84.93-.11.06-.23.12-.34.19-.1.12-.21.25-.31.37-.18.04-.35.08-.53.12-.17.14-.33.29-.5.43-.28.12-.57.02-.77.19-1.08.84-1.83,1.95-2.79,2.91-.27.28-.59.4-.93.62-.29.32-.58.64-.87.96-.36.27-.9.47-1.24.77-.97.86-1.99,1.82-3.16,2.48-.38.21-.63.78-.99,1.02-.17.06-.33.12-.5.19-.27.29-.54.58-.8.87-.37.24-.75.38-1.05.68-.29.28-.56.67-.9.9-.38.25-.73.37-1.11.59-.12.17-.25.33-.37.5-.77.6-2.5,2.02-2.82,2.94-.04.88-.08,1.75-.12,2.63-.09.55-.36.77-.46,1.24-.01.32-.02.64-.03.96-.08.35-.41.44-.53.68-.12.27-.11,2.53-.06,2.6.06.1.09.1.19.15.5-.01.67-.26,1.05-.37.42-.05.85-.1,1.27-.15.33-.13.66-.27.99-.4.31-.05.62-.1.93-.15.32-.14.64-.29.96-.43.29-.03.58-.06.87-.09.32-.08.53-.34.8-.43.39-.14.8-.07,1.15-.22.17-.1.33-.21.5-.31.3-.1.57-.05.8-.19.13-.11.27-.23.4-.34.27-.04.54-.08.8-.12.2-.14.39-.29.59-.43.36-.02.72-.04,1.08-.06.18-.14.35-.29.53-.43.33-.14.76-.06,1.05-.19.17-.11.33-.23.5-.34.29-.12.63-.06.87-.22.12-.1.25-.21.37-.31.28-.06.56-.12.84-.19.22-.12.43-.25.65-.37.23-.04.45-.08.68-.12.19-.13.37-.27.56-.4.26-.04.52-.08.77-.12.17-.12.33-.25.5-.37.23-.03.45-.06.68-.09.35-.09.53-.36.8-.46.29-.04.58-.08.87-.12.15-.13.31-.27.46-.4.31-.05.62-.1.93-.15.15-.12.31-.25.46-.37.26-.12.68,0,.9-.15.14-.13.29-.27.43-.4.25-.02.5-.04.74-.06.2-.15.39-.31.59-.46.26-.02.52-.04.77-.06.21-.17.41-.33.62-.5.22-.02.43-.04.65-.06.21-.13.41-.27.62-.4.25-.04.5-.08.74-.12.21-.13.41-.27.62-.4.27-.05.54-.1.8-.15.27-.13.54-.27.8-.4.23-.04.45-.08.68-.12.19-.13.37-.27.56-.4.3-.06.6-.12.9-.19.14-.11.29-.23.43-.34.25-.06.5-.12.74-.19.15-.11.31-.23.46-.34.21-.03.41-.06.62-.09.31-.14.62-.29.93-.43.27-.04.54-.08.8-.12.18-.14.35-.29.53-.43.24-.03.47-.06.71-.09.19-.13.37-.27.56-.4.26-.03.52-.06.77-.09.25-.15.5-.31.74-.46.24-.04.47-.08.71-.12.15-.12.31-.25.46-.37.23-.05.45-.1.68-.15.17-.12.33-.25.5-.37.2-.03.39-.06.59-.09.32-.1.53-.36.8-.46.3-.06.6-.12.9-.19.15-.11.31-.23.46-.34.73-.3,1.29-.35,2.04-.65.38-.15.51-.32,1.02-.43.62-.13,2.64-1.44,3.37-1.02.39.2.32.98.09,1.3,0,0-2.4,1.19-2.48,1.21-.3.09-.53.06-.74.22-.08.09-.17.19-.25.28-.26.04-.52.08-.77.12-.2.14-.39.29-.59.43-.24.04-.47.08-.71.12-.17.12-.33.25-.5.37-.24.05-.47.1-.71.15-.17.12-.33.25-.5.37-.29.05-.58.1-.87.15-.22.14-.43.29-.65.43-.27.04-.54.08-.8.12-.15.12-.31.25-.46.37-.26.03-.52.06-.77.09-.22.14-.43.29-.65.43-.21.04-.41.08-.62.12-.21.13-.41.27-.62.4-.24.04-.47.08-.71.12-.21.12-.41.25-.62.37-.27.05-.54.1-.8.15-.19.14-.37.29-.56.43-.27.04-.54.08-.8.12-.15.12-.31.25-.46.37-.27.05-.54.1-.8.15-.18.12-.35.25-.53.37-.22.04-.43.08-.65.12-.2.14-.39.29-.59.43-.23.03-.45.06-.68.09-.19.14-.37.29-.56.43-.28.06-.56.12-.84.19-.18.12-.35.25-.53.37-.23.04-.45.08-.68.12-.47.24-1.13.68-1.64.87-.25.04-.5.08-.74.12-.18.14-.35.29-.53.43-.28.04-.56.08-.84.12-.22.14-.43.29-.65.43-.26.06-.52.12-.77.19-.14.11-.29.23-.43.34-.25.05-.5.1-.74.15-.17.12-.33.25-.5.37-.21.03-.41.06-.62.09-.15.12-.31.25-.46.37-.28.06-.56.12-.84.19-.52.21-1.12.73-1.64.93-.23.03-.45.06-.68.09-.24.15-.47.31-.71.46-.28.06-.56.12-.84.19-1.86.99-3.88,1.81-5.94,2.57-.18.13-.35.27-.53.4-.24.06-.47.12-.71.19-.15.12-.31.25-.46.37-.21.02-.41.04-.62.06-.26.08-.42.29-.62.4-.28.06-.56.12-.84.19-.17.12-.33.25-.5.37-.19.05-.37.1-.56.15-.13.12-.27.25-.4.37-.19.02-.37.04-.56.06-.15.15-.31.31-.46.46-.17.03-.33.06-.5.09-.22.09-.3.28-.46.4-.22.04-.43.08-.65.12-.2.15-.39.31-.59.46-.19.02-.37.04-.56.06-.2.15-.39.31-.59.46-.21.05-.41.1-.62.15-.14.12-.29.25-.43.37-.2.04-.39.08-.59.12-.14.13-.29.27-.43.4-.17.01-.33.02-.5.03-.02,0-.99.68-1.02.71-.19.23-.37.45-.56.68-.08.46-.17.93-.25,1.39-.1.14-.21.29-.31.43-.01.73-.02,1.47-.03,2.2-.12.21-.25.41-.37.62-.03.6-.06,1.2-.09,1.8-.02.48-.04.97-.06,1.45-.06.34-.34.72-.25,1.15.14.63.63,1.15,1.27,1.27.25.03.5.06.74.09.15.12.31.25.46.37.27.03.54.06.8.09.22.14.43.29.65.43.31.04.62.08.93.12.21.12.41.25.62.37.66.28,1.88.29,2.63.09.31-.08,1.29-.76,1.61-.96.27-.09.54-.19.8-.28.1-.1.21-.21.31-.31.27-.04.54-.08.8-.12.12-.12.25-.25.37-.37.2-.05.39-.1.59-.15.15-.13.31-.27.46-.4.21-.02.41-.04.62-.06.39-.14.97-.36,1.45-.46.33-.02.66-.04.99-.06.27-.08.36-.3.56-.43.19-.07.37-.14.56-.22.18-.13.35-.27.53-.4.24-.05.47-.1.71-.15.13-.1.27-.21.4-.31.34-.05.68-.1,1.02-.15.14-.11.29-.23.43-.34.29-.06.58-.12.87-.19.19-.12.37-.25.56-.37.41-.14.92.01,1.27-.15.48-.23,1.03-.7,1.49-.9.21-.03.41-.06.62-.09.45-.14.82-.33,1.3-.53.38-.15.46-.47,1.05-.46v-.09c-1.26-.16-1.2.25-1.89.5-.23.02-.45.04-.68.06-.19.15-.37.31-.56.46-.65.31-1.17.38-1.86.62-.24.14-.47.29-.71.43-.25.02-.5.04-.74.06-.33.09-.53.37-.8.46-.31.04-.62.08-.93.12-.15.12-.31.25-.46.37-.27.05-.54.1-.8.15-.19.14-.37.29-.56.43-.23.06-.45.12-.68.19-.11.1-.23.21-.34.31-.24.02-.47.04-.71.06-.33.15-.66.31-.99.46-.94.25-1.57.31-2.38.65-.19.14-.37.29-.56.43-.23.04-.45.08-.68.12-.14.13-.29.27-.43.4-.18.05-.35.1-.53.15-.15.12-.31.25-.46.37-.19.03-.37.06-.56.09-.24.15-.47.31-.71.46-.92.25-2.43.33-3.34-.03-.21-.13-.41-.27-.62-.4-.36-.05-.72-.1-1.08-.15-.22-.12-.43-.25-.65-.37-.92-.32-1.9-.64-2.1-1.64-.21-1,.08-2.15.22-2.88.14-.77.04-1.39.28-2.04.09-.12.19-.25.28-.37-.01-.43-.02-.87-.03-1.3.04-.31.08-.62.12-.93.12-.19.25-.37.37-.56.05-.24.1-.47.15-.71.13-.17,1.45-1.2,1.64-1.27.22-.06.43-.12.65-.19.1-.09.21-.19.31-.28.18-.03.35-.06.53-.09.13-.13.27-.27.4-.4.23-.06.45-.12.68-.19.17-.12.33-.25.5-.37.48-.27,1.07-.41,1.61-.62.18-.15.35-.31.53-.46.2-.04.39-.08.59-.12.12-.11.25-.23.37-.34.23-.06.45-.12.68-.19.15-.12.31-.25.46-.37.23-.03.45-.06.68-.09.22-.15.43-.31.65-.46.18-.02.35-.04.53-.06.24-.15.47-.31.71-.46.25-.07.5-.14.74-.22.11-.1.23-.21.34-.31.21-.02.41-.04.62-.06.22-.15.43-.31.65-.46.25-.03.5-.06.74-.09.22-.08.32-.29.5-.4.56-.35,1.21-.41,1.86-.68.17-.13.33-.27.5-.4.25-.03.5-.06.74-.09.19-.14.37-.29.56-.43.19-.03.37-.06.56-.09.23-.14.45-.29.68-.43.26-.05.52-.1.77-.15.18-.13.35-.27.53-.4.23-.04.45-.08.68-.12.18-.13.35-.27.53-.4.2-.02.39-.04.59-.06.23-.15.45-.31.68-.46.24-.05.47-.1.71-.15.13-.12.27-.25.4-.37.24-.03.47-.06.71-.09.19-.14.37-.29.56-.43.27-.03.54-.06.8-.09.15-.13.31-.27.46-.4.27-.05.54-.1.8-.15.21-.14.41-.29.62-.43.29-.04.58-.08.87-.12.13-.12.27-.25.4-.37.24-.06.47-.12.71-.19.15-.11.31-.23.46-.34.25-.04.5-.08.74-.12.18-.13.35-.27.53-.4.23-.04.45-.08.68-.12.2-.13.39-.27.59-.4.21-.05.41-.1.62-.15.22-.13.43-.27.65-.4.24-.04.47-.08.71-.12.14-.12.29-.25.43-.37.26-.04.52-.08.77-.12.19-.13.37-.27.56-.4.31-.07.62-.14.93-.22.13-.1.27-.21.4-.31.27-.05.54-.1.8-.15.2-.13.39-.27.59-.4.24-.04.47-.08.71-.12.18-.12.35-.25.53-.37.22-.03.43-.06.65-.09.3-.08.46-.31.68-.43.34-.07.68-.14,1.02-.22.15-.11.31-.23.46-.34.27-.04.54-.08.8-.12.15-.13.31-.27.46-.4.29-.06.58-.12.87-.19.15-.11.31-.23.46-.34.31-.07.62-.14.93-.22.11-.1.23-.21.34-.31.28-.05.56-.1.84-.15.14-.12.29-.25.43-.37.26-.05.52-.1.77-.15.17-.12.33-.25.5-.37.24-.05.47-.1.71-.15.12-.11.25-.23.37-.34.23-.05.45-.1.68-.15.19-.14.37-.29.56-.43.22-.03.43-.06.65-.09.37-.17,1.22-1.02.96-1.64-.15-.36-.65-1.03-1.27-.9-.21.12-.41.25-.62.37-.3.04-.6.08-.9.12-.49.2-1.3.66-1.8.9-.22.03-.43.06-.65.09-.27.15-.54.31-.8.46-.26.05-.52.1-.77.15-.15.12-.31.25-.46.37-.28.04-.56.08-.84.12-.55.22-1.25.67-1.8.93-.23.04-.45.08-.68.12-.18.14-.35.29-.53.43-.26.03-.52.06-.77.09-.21.14-.41.29-.62.43-.3.04-.6.08-.9.12-.19.13-.37.27-.56.4-.26.04-.52.08-.77.12-.19.13-.37.27-.56.4-.32.05-.64.1-.96.15-.19.13-.37.27-.56.4-.71.25-1.14.32-1.83.59-.21.14-.41.29-.62.43-.31.06-.62.12-.93.19-.13.11-.27.23-.4.34-.33.06-.66.12-.99.19-.15.11-.31.23-.46.34-.7.32-1.44.39-2.17.68-.18.12-.35.25-.53.37-.24.03-.47.06-.71.09-.2.15-.39.31-.59.46-.27.03-.54.06-.8.09-.22.15-.43.31-.65.46-.29.06-.58.12-.87.19-.17.11-.33.23-.5.34-.23.04-.45.08-.68.12-.2.12-.39.25-.59.37-.22.03-.43.06-.65.09-.2.14-.39.29-.59.43-.24.02-.47.04-.71.06-.32.09-.51.35-.77.46-.33.06-.66.12-.99.19-.18.12-.35.25-.53.37-.24.04-.47.08-.71.12-.22.13-.43.27-.65.4-.2.03-.39.06-.59.09-.22.14-.43.29-.65.43-.26.06-.52.12-.77.19-.15.11-.31.23-.46.34-.27.03-.54.06-.8.09-.17.12-.33.25-.5.37-.33.07-.66.14-.99.22-.18.12-.35.25-.53.37-.34.04-.68.08-1.02.12-.41.12-.66.41-1.11.5-.52.1-.54.26-.87.43-.28.05-.56.1-.84.15-.21.11-.32.34-.59.4-.37.09-.66.03-.96.15-.21.11-.41.23-.62.34-.31.04-.62.08-.93.12-.23.14-.45.29-.68.43-.3.02-.6.04-.9.06-.28.13-.56.27-.84.4-.82.33-2.22.07-2.6-.37-.2-.24-.33-.94-.22-1.45.17-.39.33-.78.5-1.18.02-.3.04-.6.06-.9.08-.15.26-.23.31-.43.08-.88.17-1.75.25-2.63.14-.17.29-.33.43-.5.26-.53.39-.96.8-1.3.2-.17.49-.2.68-.37.19-.23.37-.45.56-.68.2-.06.39-.12.59-.19.29-.3.58-.6.87-.9.15-.1.26-.09.37-.22.06-.1.12-.21.19-.31.36-.28.74-.44,1.11-.71.11-.15.23-.31.34-.46.26-.24.53-.32.84-.53.31-.33.62-.66.93-.99,1.02-.66,1.86-1.46,2.88-2.1l.4-.5c.41-.31.87-.44,1.24-.77.5-.47,1.01-.88,1.55-1.33.33-.36.66-.72.99-1.08.19-.14.37-.18.53-.34.35-.36.55-.87.93-1.21.08-.02.17-.04.25-.06.15-.17.31-.33.46-.5.2-.05.39-.1.59-.15.11-.13.23-.27.34-.4.19-.04.37-.08.56-.12.23-.1.62-.41.84-.59,2.78-2.23,5.43-4.74,8.42-6.75.34-.23.57-.76.93-.99.15-.05.31-.1.46-.15.26-.29.52-.58.77-.87.15-.05.31-.1.46-.15.19-.12.38-.37.56-.53.31-.26.55-.75.9-.96.69-.42,1.13-1.03,1.76-1.49.22-.09.43-.19.65-.28.56-.53,1.12-1.03,1.73-1.52.26-.29.52-.58.77-.87.36-.26.73-.41,1.08-.68.32-.25.46-.75.8-.99.64-.45,1.13-1.12,1.76-1.55.17-.05.33-.1.5-.15.12-.13.25-.27.37-.4.55-.36.95-.76,1.49-1.15.5-.48.99-.97,1.49-1.45,1.63-1.27,3.13-2.63,4.8-3.87.12-.14.25-.29.37-.43.29-.19.57-.31.8-.56.1-.14.21-.29.31-.43.19-.06.37-.12.56-.19.34-.22.58-.66.9-.9.33-.25.62-.41.96-.65.32-.3.64-.6.96-.9.18-.05.35-.1.53-.15.51-.31.98-1.07,1.45-1.42.23-.07.45-.14.68-.22.29-.26.47-.67.8-.9,1.02-.71,1.86-1.51,2.88-2.23.31-.22.51-.67.84-.9,1.83-1.31,3.75-2.65,4.98-4.55v-.15l-.15-.09ZM53.31,84.26c-1.1.4-3.06-1.07-2.41-2.29.09-.18.2-.19.37-.28.34,0,.74-.03.96.09.49.28,1.47,1.68,1.08,2.48ZM15.57,100.08c-.21-.11-.41-.23-.62-.34-.46-.05-.93-.1-1.39-.15-.52-.13-1.33-.33-1.89-.43-.3-.02-.6-.04-.9-.06-.18-.12-.35-.25-.53-.37-.4-.08-.8-.17-1.21-.25-.6-.41-.41-1.08.19-1.36.41.01.83.02,1.24.03.29.11.58.23.87.34.69.1,1.38.21,2.07.31.19.09.37.19.56.28.52.03,1.03.06,1.55.09.04.01,1.1.63,1.21.71.18.72-.26,1.43-1.15,1.21ZM19.66,100.54c-.98.61-2.73-.34-2.01-1.18.15-.24.72-.38.96-.53.48.01.65.25,1.02.37.21.35.16.94.03,1.33ZM46.28,106.52c-.5-.09-.74-.34-1.18-.43-.63-.06-1.26-.12-1.89-.19-.24-.07-.36-.31-.65-.37-.48-.03-.97-.06-1.45-.09-.42-.11-1-.36-1.49-.46-.43-.01-.87-.02-1.3-.03-.4-.17-.8-.33-1.21-.5-.33-.02-.66-.04-.99-.06-.51-.15-1.01-.31-1.52-.46-.32-.03-.64-.06-.96-.09-.22-.12-.43-.25-.65-.37-.38-.04-.76-.08-1.15-.12-.39-.14-.78-.29-1.18-.43-.41-.03-.83-.06-1.24-.09-.24-.11-.47-.23-.71-.34-1.76-.48-3.25-.46-4.58-1.36-.42-1.7,1.71-1.24,2.82-1.64.91,0,1.55.12,2.23.25.43.02.87.04,1.3.06.41.14.83.29,1.24.43.46.02.93.04,1.39.06.48.1,1.18.39,1.7.5.55.03,1.09.06,1.64.09.29.12.58.25.87.37.39.12.83,0,1.3.09.46.17.93.33,1.39.5.56.02,1.11.04,1.67.06.28.07.51.3.84.37.29.01.58.02.87.03,1.23.21,2.78.35,3.99,0,.23-.13.45-.27.68-.4.35.02.7.04,1.05.06.28-.09.42-.6.87-.37.77.39-.17,1.22-.25,1.36-.03.29-.06.58-.09.87-.08.4-.34.52-.46.84-.05.35-.1.7-.15,1.05-.33.63-1.58,1.04-2.76.84ZM39.04,123.7c.18-.12,1.83-.57,2.07-.62h2.01c1.07-.17,2.37.12,3.53-.09.32-.11.64-.23.96-.34.79.02,1.59.04,2.38.06.25-.06.5-.12.74-.19.97-.18,2.1.1,2.91-.22.82.04,1.32.55,1.45,1.27.11.57-.05,1.32-.4,1.45-.81.31-2.88-.02-3.75-.06h-8.42c-1.25-.04-3.42-.1-3.78-.93.09-.11.19-.23.28-.34ZM56.56,133.88c-.22.91-1.58,2.85-2.26,3.28-.17.06-.33.12-.5.19-.48.35-.8.75-1.39,1.02-.53.24-1.07.79-2.04.62-1.71-.31-3.27-2.27-4.43-3.25-.34-.28-.72-.45-1.08-.71-.29-.3-.58-.6-.87-.9-.66-.49-1.21-.97-1.8-1.52-.2-.07-.39-.14-.59-.22-.57-.37-.99-1.08-1.55-1.45-.15-.04-.31-.08-.46-.12-.24-.28-.47-.56-.71-.84-.59-.42-1.02-.86-1.61-1.27-.12-.15-.25-.31-.37-.46-.53-.32-1.57-.73-1.33-1.76.28-1.2,2-.73,3.03-1.15,2.34.02,4.82.09,7.27.09,1.9,0,4.16-.09,5.73.22.66.13,1.51-.17,2.04.09.83.4,1.59,1.27,1.86,2.23.02.27.04.54.06.8.8.46,1.35,3.6.99,5.11ZM55.75,99.99c.25-.44.61-.62,1.11-.84,1.58-.02,1.83,1.3,2.41,2.26.21.35.64.63.87.99.32.5.45,1.06.8,1.52.13.11.27.23.4.34.05.4.1.8.15,1.21.08.38.36.57.43,1.02v4.55c.13.26.27.52.4.77.1.47.04,1.36-.09,1.7-.09.23-.29.32-.34.62.02.6.04,1.2.06,1.8-.02.46-.04.93-.06,1.39.01.27.02.54.03.8-.06.3-.31.41-.4.65-.03.24-.06.47-.09.71-.17.46-.65.66-1.15.84-.21.08-.38.29-.65.31-1.13.07-1.7-1.25-1.89-2.17-.03-.42-.06-.85-.09-1.27-.11-.12-.23-.25-.34-.37-.05-.27-.1-.54-.15-.8-.09-.2-.31-.35-.4-.59-.15-.39.04-1.08-.15-1.49-.12-.11-.25-.23-.37-.34-.05-.46-.1-.93-.15-1.39-.13-.32-.27-.64-.4-.96-.45-1.85-.22-4.42-.22-6.59,0-1.11-.1-4.02.28-4.67ZM73.15,101.88c-.14.12-.18.34-.37.4-1.09.37-2.42-.62-2.17-1.64.15-.62.9-1.12,1.39-1.42.61-.01.71.22,1.08.37,1.42.59.92,1.57.06,2.29Z"/>
      <path class="cls-1" d="M50.27,92.65c.05.41.1.83.15,1.24.07.12.14.25.22.37.13.49,0,.94.4,1.15h.22c.23-.17.05-.45.19-.71.09-.1.19-.21.28-.31.12-.28.16-1.26.03-1.58-.12-.18-.25-.35-.37-.53-.03-.39-.06-.78-.09-1.18-.09-.13-.19-.27-.28-.4-.16-.37-.13-.78-.22-1.24-.05-.39-.1-.78-.15-1.18-.11-.23-.23-.45-.34-.68-.03-.26-.06-.52-.09-.77-.09-.18-.32-.26-.4-.5-.25-.72-.34-1.3-.71-1.89-.22-.35-.59-.68-.8-1.02-.36-.56-.38-1.24-.74-1.76-.3-.26-.6-.52-.9-.77-.31-.44-.88-1.6-1.24-1.89-.12-.06-.25-.12-.37-.19-.16-.2-.46-.52-.56-.74-.06-.21-.12-.41-.19-.62-.1-.08-.21-.17-.31-.25-.17-.25-.05-.64-.31-.8-.24-.06-.47-.12-.71-.19-.04.02-.08.04-.12.06-.25.18-.19.69-.03.96.38.62.91,1.13,1.3,1.7.08.22.17.43.25.65.1.06.21.12.31.19.27.27.48,1,.74,1.33.25.32.7.55.93.9.3.45.42,1.08.74,1.52.27.35.67.68.9,1.08.03.27.06.54.09.8.14.18.29.35.43.53.07.37.14.74.22,1.11.18.44.56.96.8,1.33.07.32.14.64.22.96.12.19.25.37.37.56.35.79,0,1.79.15,2.76Z"/>
      <path class="cls-1" d="M67.39,90.95c.15-.12.31-.25.46-.37.02-.43.04-.87.06-1.3.19-.97.98-2.9.22-3.9-.28-.01-.56-.02-.84-.03-1.26.55-3.05.58-4.3,1.15h-.06c.16.37.75.5.93.93.2.47,0,1.29.25,1.76.12.11.25.23.37.34.81,1.18,1.1,2.01,2.29,2.85h.4c.21-.33.03-1.02.22-1.42ZM66.68,90.64c-1,.26-1.16-.27-1.49-.8-.32-.52-.77-.75-.46-1.8.12-.39.76-.84,1.11-1.02,1.83-.05,2.05,1.05,1.55,2.38-.22.58-.08,1.08-.71,1.24Z"/>
      <path class="cls-1" d="M59.81,91.38c-.08-.11-.12-.12-.31-.12-.06.07-.12.14-.19.22-.04.18-.11.5-.03.68.1.21.32.17.43.34.09.13.59,1.4.62,1.55.04.31.08.62.12.93.1.2.32.27.4.53h.03c.24-1.34-.53-2.48-.9-3.34-.06-.26-.12-.52-.19-.77Z"/>
      <path class="cls-1" d="M66.68,95.16c-.18-.26-1.18-.55-1.55-.56-.33.25-.8.42-.99.8-.17.34.04.8-.03,1.24.01,1.58.02,3.16.03,4.74-.02.7-.04,1.4-.06,2.1.08.26.43.36.53.65.27.79.36,1.3.65,2.07.12.21.25.41.37.62.1.06.11.08.28.09.56-.79.18-1.95.4-3.19.07-.38.29-.62.37-.93-.01-.57-.02-1.14-.03-1.7.07-1.12.14-2.25.22-3.37.02-.79.15-2.08-.19-2.57ZM65.13,98.87c-.42-.19-.61-1.68-.31-2.23.13-.24.4-.31.65-.43.26,0,.38.04.56.09.42.67.26,3.19-.9,2.57Z"/>
      <path class="cls-1" d="M65.13,109.43c-.05.14.1,1.53.19,1.86.02.01.04.02.06.03.31-.36.14-1.61-.15-1.89h-.09Z"/>
      <path class="cls-1" d="M11.64,157.97h1.27c.79,0,1.6-.03,2.26-.09h1.15c.29-.13.58-.27.87-.4.56.01,1.11.02,1.67.03,1.13,0,2.28-.24,3.5-.09.66.01,1.32.02,1.98.03.85-.14,1.62-.4,2.38-.53,2.01-.02,4.02-.04,6.04-.06.39-.07.61-.33.96-.4.52.01,1.03.02,1.55.03.63,0,1.14-.04,1.64-.12h6.35c1.32,0,2.96.04,3.53.74.54.67,1.07,1.39,1.64,2.04.22.25.27.7.46.96.24.32.87,1.02.71,1.64-.09.37-1.09,1.23-1.45,1.36-1.38.02-2.77.04-4.15.06-.59-.1-1.15-.37-1.83-.5-.89-.04-1.77-.08-2.66-.12-.37.01-.74.02-1.11.03-.32-.13-.64-.27-.96-.4-.8-.17-1.55.11-2.35-.09-.25-.14-.5-.29-.74-.43-.4-.04-.8-.08-1.21-.12-.18-.13-.35-.27-.53-.4-.43-.03-.87-.06-1.3-.09-.38-.09-.6-.37-1.02-.46-.29-.02-.58-.04-.87-.06-.3-.15-.6-.31-.9-.46-.3-.03-.6-.06-.9-.09-.25-.09-.39-.35-.68-.43-.31-.03-.62-.06-.93-.09-.32-.12-1.01-.78-1.58-.4-.09.06-.26,1.22-.28,1.39-.09.7.65.56,1.08.77.15.14.31.29.46.43.25.04.5.08.74.12.23.13.45.27.68.4.26.04.52.08.77.12.14.13.29.27.43.4.27.03.54.06.8.09.21.1.32.35.59.43.31.03.62.06.93.09.29.14.58.29.87.43.32.04.64.08.96.12.23.15.45.31.68.46.28.02.56.04.84.06.28.11.49.35.84.43.38.04.76.08,1.15.12.2.12.39.25.59.37.37.05.74.1,1.11.15.17.12.33.25.5.37.38.05.76.1,1.15.15.2.12.39.25.59.37.36.04.72.08,1.08.12.3.14.6.29.9.43.3.03.6.06.9.09.29.14.58.29.87.43.25.03.5.06.74.09.18.13.35.27.53.4.26.05.52.1.77.15.48.21.92.63,1.33.9.22.07.43.14.65.22.09.11.19.23.28.34.35.25.79.44,1.05.77.13.17.53.55.59.68.04.25.08.5.12.74.11.29.37.48.46.87.23.95.17,1.75.62,2.45.24.38.61.78.87,1.18.06.24.12.47.19.71.13.25.65.76.84,1.05.09.26.19.52.28.77.09.14.26.19.34.37.05.19.1.37.15.56.13.21.34.26.43.56.16.51.27,1.69.06,2.26-.25.69-1.1,1.04-2.1.77-.26-.07-.36-.32-.59-.43-.53-.25-1.01-.31-1.49-.62-.18-.17-.35-.33-.53-.5-.17-.02-.33-.04-.5-.06-.37-.17-1.02-.79-1.36-.96-.19-.03-.37-.06-.56-.09-.2-.14-.39-.29-.59-.43-1.18-.49-2.37-1.03-3.41-1.7-.1-.11-.21-.23-.31-.34-.42-.31-.92-.46-1.27-.84-.23-.28-.45-.56-.68-.84-.35-.27-.74-.39-1.08-.65-.15-.21-.31-.41-.46-.62-.18-.24-.5-.29-.71-.5-.64-.62-1.41-1.93-2.54-1.98-.01.01-.02.02-.03.03v.03c.52.38,1.01.75,1.55,1.11.26.17.4.5.59.74.34.44.81.74,1.24,1.08.34.38.68.76,1.02,1.15.2.07.39.14.59.22l1.33,1.33c.18.07.35.14.53.22.19.15.37.31.56.46.19.03.37.06.56.09.39.21.86.6,1.24.84.24.06.47.12.71.19.45.17.98.61,1.36.87.24.07.47.14.71.22.19.12.29.34.53.43.15.03.31.06.46.09.43.26.98.63,1.39.9.21.06.41.12.62.19.4.25.86.72,1.3.9.26.05.52.1.77.15.39.16.45.45,1.08.43.27-.26.57-.93.93-1.05,1.7-.57,1.47,2,1.27,3.1v1.15c-.08.44-.43.44-.53.74-.02.52-.04,1.03-.06,1.55-.13.37-.27.74-.4,1.11-.06.39-.12.78-.19,1.18-.19.47-.59,1.11-.8,1.58-.07.41-.14.83-.22,1.24-.23.62-.99,1.23-1.67,1.39-.87.2-1.8-.6-1.95-1.15-.02-.25-.04-.5-.06-.74-.13-.12-.27-.25-.4-.37-.04-.17-.08-.33-.12-.5-.31-.56-.74-1.14-1.11-1.67-.21-.31-.54-.55-.77-.84-.07-.18-.14-.35-.22-.53-.31-.34-.62-.68-.93-1.02-.46-.64-.84-1.28-1.33-1.89-.23-.29-.61-.46-.84-.77-.21-.31-.41-.62-.62-.93-.23-.26-.61-.44-.84-.71-.21-.26-.5-.6-.65-.87-.06-.17-.12-.33-.19-.5-.13-.08-.27-.17-.4-.25-.29-.39-.61-.74-.9-1.11-.32-.41-.49-.9-.8-1.3-.13-.16-.63-.5-.8-.68-.08-.18-.17-.35-.25-.53-.25-.41-.74-.77-1.05-1.24-.8-1.21-2.83-1.54-3.78-2.72-.26-.33-1.15-.47-.77-1.24.01-.03.02-.06.03-.09.36-.05.66.12,1.02.03.12-.3-.07-.34-.15-.56-.24-.64.36-1.19.71-1.36.02-.03.04-.06.06-.09v-.03c-.63,0-.7.32-1.11.46-.24.04-.47.08-.71.12-.54.27-1.3,1.51-.62,2.26.19.21.76.68.99.84.17.05.33.1.5.15,1.03.68,2.14,1.39,3.16,2.1.51.36.76,1.05,1.18,1.52.22.24.55.41.77.65.38.41.55.95.9,1.39.12.08.25.17.37.25.3.36.61.75.9,1.11.11.25.23.5.34.74.29.38.91.88,1.27,1.24.24.24.25.66.53.87.14.07.29.14.43.22.55.58.92,1.36,1.42,1.98.39.48.78.68,1.08,1.3.3.62.94,1.05,1.33,1.58.09.23.19.45.28.68.34.52.78.88,1.02,1.55.14.37.76.77.4,1.45-.12.1-.25.21-.37.31-1.5,2.12-4.95,3.33-7.77,4.15-.45.04-.91.08-1.36.12-.35.11-.71.34-1.15.43-.35.04-.7.08-1.05.12-.24.12-.47.25-.71.37-.32.05-.64.1-.96.15l-.5.37c-.3.04-.6.08-.9.12-.18.14-.35.29-.53.43-.23.02-.45.04-.68.06-.2.14-.39.29-.59.43-.6.28-1.2.35-1.8.65-.18.14-.35.29-.53.43-.22.03-.43.06-.65.09-.41.13-.74.37-1.27.46-.41.02-.83.04-1.24.06-.28.08-.42.33-.65.43-.29.03-.58.06-.87.09-.22.14-.43.29-.65.43-.27.04-.54.08-.8.12-.15.13-.31.27-.46.4-.25.04-.5.08-.74.12-.15.11-.31.23-.46.34-.24.06-.47.12-.71.19-.21.13-.41.27-.62.4-.24.03-.47.06-.71.09-.23.14-.45.29-.68.43-.62.2-1.71.42-1.98.9.04.43.28.3.43.56.05.27.1.54.15.8.66.35,1.84-.25,2.29-.43.62-.05,1.24-.1,1.86-.15.23-.13.45-.27.68-.4.61-.06,1.22-.12,1.83-.19.22-.12.43-.25.65-.37.37-.04.74-.08,1.11-.12.19-.12.37-.25.56-.37.37-.05.74-.1,1.11-.15.17-.13.33-.27.5-.4.28-.04.56-.08.84-.12.26-.14.52-.29.77-.43.33-.05.66-.1.99-.15.22-.12.43-.25.65-.37.43-.06.87-.12,1.3-.19.22-.11.43-.23.65-.34.39-.04.78-.08,1.18-.12.22-.1.43-.21.65-.31.41-.06.83-.12,1.24-.19.28-.12.56-.25.84-.37.44-.08.89-.17,1.33-.25.17-.1.33-.21.5-.31.3-.06.6-.12.9-.19.15-.11.31-.23.46-.34.55-.06,1.09-.12,1.64-.19.28-.13.56-.27.84-.4.58-.07,1.16-.14,1.73-.22.18-.08.35-.17.53-.25.73-.22,1.7-.12,2.57-.12.75,0,1.74-.1,2.23.19.85.51,1.87,1.74,2.23,2.72.04.24.08.47.12.71l.37.5c.06.32.12.64.19.96.19.34.74.88.87,1.21.29.75.31,1.39.62,2.1.09.21.36.24.46.43.19.36.33.83.46,1.15.2.47.05,1.07.19,1.58.14.19.29.37.43.56.05.38.1.76.15,1.15.31.83.86,1.86.56,3.19-.36,1.58-3.57,1.98-5.7,1.98-.43.01-.87.02-1.3.03-.28-.14-.56-.29-.84-.43-.33-.03-.66-.06-.99-.09-.22-.12-.43-.25-.65-.37-.52-.06-1.03-.12-1.55-.19-.32-.14-.64-.29-.96-.43-.37-.02-.74-.04-1.11-.06-.3-.14-.6-.29-.9-.43-.58-.04-1.16-.08-1.73-.12-.35-.13-.7-.27-1.05-.4-.59-.03-1.18-.06-1.76-.09-.47-.14-1.01-.41-1.45-.5-.69-.01-1.38-.02-2.07-.03-.32-.07-.51-.31-.87-.37-1.22-.23-2.35.09-3.65-.12-.34-.06-.8-.14-1.15-.09-.8.12-1.66-.19-2.07.34-.45,2.33.85,1.57,2.48,2.1.22.11.43.23.65.34.37.02.74.04,1.11.06.25.13.5.27.74.4.57.05,1.14.1,1.7.15.32.1.59.32.99.4.61.05,1.22.1,1.83.15.26.12.52.25.77.37.36.05.72.1,1.08.15.28.11.51.33.87.4.41.03.83.06,1.24.09.45.15.91.31,1.36.46.35.02.7.04,1.05.06.21.13.41.27.62.4.25.03.5.06.74.09.81.24,1.89.64,2.72.9.38.06.76.12,1.15.19.19.12.37.25.56.37.28.07.56.14.84.22.14.11.29.23.43.34.21.03.41.06.62.09.21.14.41.29.62.43.23.04.45.08.68.12.15.13.31.27.46.4.24.05.47.1.71.15.13.12.27.25.4.37,1.1.64,3.65-.11,4.3.71.88,1.1.56,4.07.56,6.07,0,.66-.09,1.18-.19,1.67v2.97c-.08.41-.17.83-.25,1.24v1.27c-.26,1.54-.09,3.58-.09,5.36,0,1.32-.23,4.36.19,5.17.1.02.21.04.31.06h.03c.34-.63-.18-2.32-.03-3.22.14-.89.06-1.61.06-2.54v-4.86c0-1.02.49-1.74.34-2.69-.17-1.08-.03-3.55.43-3.99.24-.23.97-.34,1.49-.25,1.05.19,1.51.83,1.49,2.14-.01.58-.34.89-.43,1.39-.19,1.02.05,2.22-.15,3.34-.08.42-.17.85-.25,1.27-.09.15-.19.31-.28.46v3.56c-.13.25-.27.5-.4.74-.02.68-.04,1.36-.06,2.04-.17,1.04-.42,1.9-.99,2.54.01.03.02.06.03.09l.09.09c.36-.17.82-.49.9-.93v-.93c.09-.15.19-.31.28-.46.05-.39.1-.78.15-1.18.02-.72.04-1.44.06-2.17.19-.25.37-.5.56-.74v-2.91c.1-.65.34-.73.43-1.08v-.9c.06-1.09.12-2.19.19-3.28.08-.13.17-.27.25-.4.28-.81-.15-4.11.62-4.24.44-.8-.25-1.69.59-2.32.14-.1.3-.3.59-.25.54.1.82,1.09,1.05,1.58.15.22.31.43.46.65.02.28.04.56.06.84.08.18.35.27.43.5.03.25.06.5.09.74.14.3.29.6.43.9.02.25.04.5.06.74.08.28.39.3.5.53.05.25.1.5.15.74.13.24.27.47.4.71.05.37.1.74.15,1.11.08.13.25.21.31.37.04.21.08.41.12.62.12.19.36.36.46.59.04.24.08.47.12.71.13.27.27.54.4.8.03.26.06.52.09.77.14.19.29.37.43.56.04.31.08.62.12.93.12.18.25.35.37.53.08.25.17.5.25.74.11.13.23.27.34.4.04.3.08.6.12.9.12.22.33.47.4.74.05.33.1.66.15.99.11.12.23.25.34.37.15.61.31,1.22.46,1.83-.09.88-.7,1.38-1.02,2.01v.25c.44.07.39-.26.65-.43.18-.07.35-.14.53-.22.05-.07.48-1.22.46-1.27-.11-.18-.23-.35-.34-.53-.03-.38-.06-.76-.09-1.15-.08-.26-.34-.3-.43-.53-.04-.3-.08-.6-.12-.9-.08-.32-.3-.57-.4-.84-.04-.33-.08-.66-.12-.99-.11-.16-.34-.16-.43-.34-.08-.31-.17-.62-.25-.93-.09-.13-.19-.27-.28-.4-.03-.26-.06-.52-.09-.77-.08-.25-.33-.36-.43-.56-.03-.26-.06-.52-.09-.77-.11-.22-.39-.35-.5-.62-.03-.26-.06-.52-.09-.77-.08-.29-.31-.38-.4-.62-.03-.25-.06-.5-.09-.74-.15-.25-.31-.5-.46-.74-.04-.34-.08-.68-.12-1.02-.12-.15-.25-.31-.37-.46-.07-.28-.14-.56-.22-.84-.1-.1-.21-.21-.31-.31-.05-.29-.1-.58-.15-.87-.1-.26-.33-.55-.4-.84-.03-.24-.06-.47-.09-.71l-.4-.4c-.06-.25-.12-.5-.19-.74-.14-.22-.29-.43-.43-.65-.03-.3-.06-.6-.09-.9-.14-.24-.29-.47-.43-.71-.03-.3-.06-.6-.09-.9-.09-.06-.19-.12-.28-.19-.07-.28-.14-.56-.22-.84-.15-.25-.31-.5-.46-.74-.02-.26-.04-.52-.06-.77-.01-.02-.02-.04-.03-.06-.11-.1-.23-.21-.34-.31-.19-.33-.03-.93-.37-1.11-.47-.16-.62.58-1.15.28-.45-.26-1.62-1.23-1.8-1.7-.02-.26-.04-.52-.06-.77-.09-.21-.34-.26-.4-.56-.11-.52.22-.69.34-.96.04-.31.08-.62.12-.93.12-.27.25-.54.37-.8.2-.74-.21-2.64-.43-3.31-.13-.17-.27-.33-.4-.5-.06-.19-.12-.37-.19-.56-.11-.18-.32-.3-.4-.53-.04-.15-.08-.31-.12-.46l-.34-.34c-.06-.27-.12-.54-.19-.8-.13-.24-.27-.47-.4-.71-.04-.2-.08-.39-.12-.59-.27-.42-.78-.89-.96-1.39-.04-.33-.08-.66-.12-.99-.14-.26-.29-.52-.43-.77-.01-.2-.02-.39-.03-.59-.13-.12-.27-.25-.4-.37-.06-.24-.12-.47-.19-.71-.12-.12-.25-.25-.37-.37-.05-.44-.1-.89-.15-1.33-.11-.27-.42-.38-.5-.74-.1-.45-.02-1.24.15-1.49.12-.09.25-.19.37-.28.11-.23.03-.52.03-.8-.21-.21-.52-.2-.87-.28-.31-.44-.38-1.5-.15-2.14.08-.22.34-.43.28-.77-.09-.24-.19-.47-.28-.71-.23-1.09.26-1.84.43-2.51.04-.31.08-.62.12-.93.12-.17.25-.33.37-.5.06-.38.12-.76.19-1.15l.31-.31c.09-.21.19-.41.28-.62.1-.07.21-.14.31-.22.03-.6.06-1.2.09-1.8.13-.23.27-.45.4-.68.6-1.44,1.29-2.53,3.41-1.92.31.09.45.35.71.46,1.21.52,4.74,1.76,3.41,3.56-.6.8-4.29,2.3-3.16,3.87.36.04.72.08,1.08.12.23.1.37.33.65.4.38.04.76.08,1.15.12.15.09.31.19.46.28.53.08,1.05.17,1.58.25.25.09.49.29.77.37.51.04,1.01.08,1.52.12.27.17.54.33.8.5.42.02.85.04,1.27.06,1.23.31,2.6.75,3.9,1.02.68.14,1.64-.14,2.2.09h.12v-.03c-.11-.11-.28-.07-.43-.15-.43-.23-.85-.67-1.24-.96-.18-.07-.35-.14-.53-.22-.35-.25-.7-.66-1.05-.9-.62-.42-1.28-.75-1.83-1.24-.08-.11-.17-.23-.25-.34-.65-.46-1.3-.76-1.95-1.21-.33-.23-.52-.75-.84-.96-2.28-1.48-4.15-3.3-6.35-4.86-.46-.33-.69-.96-1.05-1.39-.11-.05-.23-.1-.34-.15-.19-.25-.37-.5-.56-.74-.07-.26-.14-.52-.22-.77-.1-.15-.33-.15-.4-.34-.24-.61-.12-1.02-.46-1.52-.25-.36-.78-.18-1.18-.4-.76-.43-1.5-1.03-2.01-1.7-.22-.39-.43-.78-.65-1.18-.03-.33-.06-.66-.09-.99-.15-.21-.31-.41-.46-.62-.03-.46-.06-.93-.09-1.39-.31-.51-.89-.78-1.24-1.24-.32-.43-.52-.9-.87-1.3-.43-.49-1.08-.85-1.45-1.39-.58-.84-.91-2.08-1.21-3.19-.58-.35-1.45-.34-2.04-.68-.66-.38-1.34-1.19-2.1-1.39-.6-.05-1.2-.1-1.8-.15-.35-.08-.53-.35-.84-.46-.44-.04-.89-.08-1.33-.12-.15-.11-.31-.23-.46-.34h-.84c-.7,0-1.31,0-1.89-.15-.24-.14-.47-.29-.71-.43-.32-.04-.64-.08-.96-.12-.17-.12-.33-.25-.5-.37-.43-.05-.87-.1-1.3-.15-.2-.12-.39-.25-.59-.37-.55-.05-1.09-.1-1.64-.15-.18-.12-.35-.25-.53-.37-.29-.05-.58-.1-.87-.15-.24-.11-.33-.36-.65-.43-.43-.03-.87-.06-1.3-.09-.26-.08-.44-.35-.74-.43-.27-.03-.54-.06-.8-.09-.12-.11-.25-.23-.37-.34-.28-.07-.56-.14-.84-.22-.25-.13-.34-.39-.71-.46-.63-.13-2.34-.5-2.07-1.36.13-.42,1.22-.25,1.67-.12.21.14.41.29.62.43.35.04.7.08,1.05.12.25.12.5.25.74.37.67.09,1.34.19,2.01.28.5.16,1.18.57,1.67.71.55.07,1.09.14,1.64.22.28.11.47.36.84.43.58.12,1.22-.04,1.83.06.28.09.56.19.84.28.6-.01,1.2-.02,1.8-.03.36.09.72.19,1.08.28.85.14,1.64-.13,2.45.03.31.13.62.27.93.4.68.14,1.78.09,2.32,0h1.18c.36-.07.63-.46,1.08-.37.26.05.38.28.59.37.91.41,2.36.7,2.91,1.42.28.38.49.79.74,1.18h.06c.31-.26.64-1.31,1.36-.9.2.1.64.7.68.93.03.18-.07.35.03.53.17.12.33.25.5.37.22.46.44,1,.56,1.45.03.29.06.58.09.87.07.15.22.17.31.28.08.25.17.5.25.74l.62.31c.24.38.47.76.71,1.15v.99c.09.46.19.93.28,1.39.05.15.36.88.46,1.02.13.11.27.23.4.34.28.45.39,1,.71,1.45.18.26.5.52.71.77h.25c.2-.2.48-.53.59-.8.04-.17.08-.33.12-.5.13-.08.27-.17.4-.25.07-.24.14-.47.22-.71.09-.08.19-.17.28-.25.04-.21.08-.41.12-.62.12-.19.25-.37.37-.56.05-.18.1-.35.15-.53.19-.29.83-.93,1.18-1.02.3.01.6.02.9.03.72.11,1.04-.28,1.39-.62,1.18-1.12,2.12-2.6,3.06-3.96.35-.39.7-.78,1.05-1.18l.37-.25c.29-.42.38-.86.68-1.24.12-.06.25-.12.37-.19.27-.25.5-1.09.74-1.42.47-.66,2.21-2.83,3.13-2.85v-.09c-.08-.07-.17-.14-.25-.22-1.38.22-2.08,1.84-2.82,2.76-.21.26-.57.48-.77.74-.25.46-.5.93-.74,1.39-.2.27-.59.46-.8.74-.71.94-1.2,1.72-2.04,2.54-.11.24-.23.47-.34.71-.14.21-.45.68-.65.84-.11.06-.23.12-.34.19-.21.29-.41.58-.62.87-.12.04-.25.08-.37.12-.19.12-.22.38-.46.46-.28.03-.56.06-.84.09-.19.13-.37.27-.56.4-.41.24-.82.32-1.18.59-.18.13-.14.38-.25.59-.19.35-.57.73-.8,1.05-.16.22-.14.6-.31.84-.1.05-.21.1-.31.15-.38.26-.45.85-1.33.53-.44-.16-1.23-1.37-1.36-1.86-.21-.76,0-1.57-.12-2.38-.14-.87-.09-2.3.06-3.22.12-.73.34-1.33.5-1.89.03-.4.06-.8.09-1.21.09-.36.35-.57.46-.84.03-.31.06-.62.09-.93.1-.3.21-.6.31-.9v-1.39c0-.57.08-.97.15-1.39.01-.51.02-1.01.03-1.52.06-.36.12-.72.19-1.08.1-.12.21-.25.31-.37.02-.61.04-1.22.06-1.83.09-.49.31-.9.4-1.45.16-.94-.07-1.89.12-2.79.08-.38.42-.49.5-.8.02-.56.04-1.11.06-1.67.13-.22.27-.43.4-.65.23-.67.21-1.02.71-1.36.43-.3.9-.4,1.36-.68.13-.12.27-.25.4-.37.22-.05.43-.1.65-.15.1-.1.21-.21.31-.31.2-.07.39-.14.59-.22.11-.12.23-.25.34-.37.19-.04.37-.08.56-.12.15-.12.31-.25.46-.37.26-.07.52-.14.77-.22.15-.12.31-.25.46-.37.27-.09.4-.02.59-.15.1-.11.21-.23.31-.34.23-.04.45-.08.68-.12.29-.11.44-.36.8-.43,1.07-.21,1.52.36,2.17.5.36.03.72.06,1.08.09.23.12.45.25.68.37.39.05.78.1,1.18.15.23.13.45.27.68.4.33.03.66.06.99.09.39.15.78.31,1.18.46.38.03.76.06,1.15.09.22.14.43.29.65.43.39.03.78.06,1.18.09.26.14.52.29.77.43.38.03.76.06,1.15.09.25.15.5.31.74.46.21.01.41.02.62.03.44.12.9.39,1.42.5.37.03.74.06,1.11.09.18.13.35.27.53.4.4.03.8.06,1.21.09.3.1.48.39.84.46.37.02.74.04,1.11.06.2.13.39.27.59.4.32.02.64.04.96.06.62.12,1.13.39,1.61.53.41.04.83.08,1.24.12.25.12.5.25.74.37.42.06.85.12,1.27.19.23.11.45.23.68.34.42.04.85.08,1.27.12.74.22,1.13.49,2.26.46.02-.04.04-.08.06-.12.07-.15,0-.34-.03-.46-.38-.21-1.15.08-1.73-.03-.3-.14-.6-.29-.9-.43-.4-.04-.8-.08-1.21-.12-.34-.12-1.02-.63-.84-1.18.13-.37.97-.38,1.45-.28.32.14.64.29.96.43.4.05.8.1,1.21.15.42.17.76.84,1.42.43.03-.02.06-.04.09-.06v-.03c-1.35-1.03-3.82-1.37-5.57-1.98-.31-.06-.62-.12-.93-.19-.56-.23-1.3-.61-1.86-.84-.34-.06-.68-.12-1.02-.19-.18-.12-.35-.25-.53-.37-.33-.05-.66-.1-.99-.15-.22-.14-.43-.29-.65-.43-.22-.02-.43-.04-.65-.06-.12-.11-.25-.23-.37-.34-.2-.14-.41-.09-.68-.19-.14-.12-.29-.25-.43-.37-.27-.05-.54-.1-.8-.15-.14-.12-.29-.25-.43-.37-.27-.16-.65-.06-.99-.19-.19-.13-.37-.27-.56-.4-.39-.04-.78-.08-1.18-.12-.19-.12-.37-.25-.56-.37-.36-.06-.72-.12-1.08-.19-.39-.21-.95-.56-1.36-.77-.28-.15-.57-.11-.9-.25-.19-.14-.37-.29-.56-.43-.3-.04-.6-.08-.9-.12-.12-.14-.25-.29-.37-.43-.14-.09-.34-.14-.46-.22-.32-1.35.43-1.53,1.24-2.01.11-.11.23-.23.34-.34.25-.13.49-.06.68-.22.52-.42,1.13-.65,1.73-1.02.13-.11.27-.23.4-.34.22-.05.43-.1.65-.15.37-.23.79-.68,1.18-.9.25-.04.5-.08.74-.12.12-.13.25-.27.37-.4.2-.05.39-.1.59-.15.14-.13.29-.27.43-.4.19-.04.37-.08.56-.12.11-.12.23-.25.34-.37.19-.06.37-.12.56-.19.14-.12.29-.25.43-.37.15-.03.31-.06.46-.09.11-.13.23-.27.34-.4.76-.54,2.24-.74,2.26-1.98-.03-.02-.06-.04-.09-.06-.37-.07-.38.6-.62.77-.26.08-.52.17-.77.25-.43.34-.87.65-1.33.99l-.4.4c-.17.03-.33.06-.5.09-.41.18-.89.65-1.27.9-.21.06-.41.12-.62.19-.11.12-.23.25-.34.37-.24.04-.47.08-.71.12-.25.07-.36.29-.56.4-.18.05-.35.1-.53.15-.09.11-.19.23-.28.34-.21.05-.41.1-.62.15-.11.13-.23.27-.34.4-.25.19-.64.38-.9.53-.22.07-.43.14-.65.22-.15.12-.31.25-.46.37-.17.04-.33.08-.5.12-.12.12-.25.25-.37.37-.15.03-.31.06-.46.09-.15.14-.31.29-.46.43-.22.05-.43.1-.65.15-.36.24-.75.65-1.15.87-.46.25-.66.16-.9.62.02.11.04.23.06.34.32.2.78.17,1.18.34.24.13.47.27.71.4.29.03.58.06.87.09.25.14.5.29.74.43.28.02.56.04.84.06.21.14.41.29.62.43.25.05.5.1.74.15.38.24.78.7,1.18.9.43.04.87.08,1.3.12.35.14.7.29,1.05.43.27.03.54.06.8.09.18.1.35.21.53.31.26.07.52.14.77.22.14.13.29.27.43.4.18.04.35.08.53.12.19.13.37.27.56.4.22.04.43.08.65.12.15.13.31.27.46.4.23.05.45.1.68.15.12.12.25.25.37.37.33.08.66.17.99.25.24.32.34.72.06,1.08-.18.04-2.39-.28-2.79-.4-.21-.1-.41-.21-.62-.31-.35-.03-.7-.06-1.05-.09-.29-.08-.44-.34-.77-.4-.51-.06-1.01-.12-1.52-.19-.31-.14-.62-.29-.93-.43-.21-.02-.41-.04-.62-.06-.14-.12-.29-.25-.43-.37-.33-.04-.66-.08-.99-.12-.22-.13-.43-.27-.65-.4-.33-.04-.66-.08-.99-.12-.21-.1-.41-.21-.62-.31-.46-.08-.93-.17-1.39-.25-.32-.13-.64-.27-.96-.4-.28-.05-.56-.1-.84-.15-.2-.13-.39-.27-.59-.4-.25-.02-.5-.04-.74-.06-.5-.1-.88-.34-1.3-.46-.31-.04-.62-.08-.93-.12-.55-.19-1.39-.62-1.95-.84-.41-.06-.83-.12-1.24-.19-.64-.19-1.53-.6-2.14-.84-.5-.08-.99-.17-1.49-.25-.22-.1-.43-.21-.65-.31-1.17-.34-2.16-.43-3.28-.77-.61-.19-1.26-.6-2.26-.43-.45.08-.66.32-1.02.4-.61.05-1.22.1-1.83.15-.71.26-.95,1.07-1.52,1.45-.68.46-1.18.9-1.95,1.3-.2.64-.06,1.23-.34,1.89-.27.08-.69.13-.99.03-.33-.16-.42-.56-.77-.74-.32.05-3.06,1.69-3.25,1.92-.31.38-.26.75-.68,1.02-.45.28-.87.32-1.42.56-.18.14-.35.29-.53.43-.19.04-.37.08-.56.12-.34.22-.65.63-.96.9-.43.37-1.04.42-1.55.71-.13.12-.27.25-.4.37-.24.08-.47.17-.71.25-.12.11-.25.23-.37.34-.18.04-.35.08-.53.12-.14.12-.29.25-.43.37-.17.03-.33.06-.5.09-.35.22-.79.66-1.15.9-.23.09-.45.19-.68.28-.36.27-.92.67-1.36.84-.22.04-.43.08-.65.12-.1.11-.21.23-.31.34-.21.05-.41.1-.62.15-.23.15-.45.31-.68.46-.6.23-1.46.28-1.92-.03-.31-1.41,1.87-2.54,2.69-3.16.33-.25.62-.65.96-.9.4-.29.87-.39,1.27-.68.13-.15.27-.31.4-.46.32-.24.67-.32,1.02-.56.34-.23.61-.76.96-.96.17-.05.33-.1.5-.15.33-.23.62-.61.93-.87.2-.07.39-.14.59-.22.32-.29.64-.58.96-.87.81-.53,1.24-1.06,1.83-1.8.2-.25.65-.3.71-.68-.06-.09-1.73-1.3-1.83-1.33-.36-.1-.82.03-1.08-.15-.54-.36-.93-1.32-1.42-1.8-.18-.18-.48-.13-.71-.28-.11-.12-.23-.25-.34-.37-.64-.43-1.21-.77-1.86-1.18-.65-.41-1.27-1.64-1.92-2.14-.36-.27-.66-.72-1.02-.96-.14-.07-.29-.14-.43-.22-.47-.57-.86-1.06-1.49-1.49-.29-.33-.58-.66-.87-.99-.31-.17-1.01-.52-1.21-.77-.77-.96-1.54-2.03-2.51-2.79-.2-.09-.39-.19-.59-.28-.47-.44-.84-1.19-1.52-1.39-1.02-.31-2.43-.02-2.85-.87.03-.57.58-.57.84-.93-.04-.44-.26-.39-.43-.65-.29-.42-.42-.89-.74-1.27-.23-.27-.65-.43-.87-.71-.22-.29-.19-.75-.5-.96-.41-.28-1-.49-1.18-.99-.08-.03-.17-.06-.25-.09-.06.08-.07.08-.09.22.46,1.03,1.6,1.38,2.01,2.48.21.55-.03,1.46-.46,1.64-.55.23-1.21-.02-1.86.09-.39.07-.67.24-.99.34-.18.05-.34.03-.46.12-.25.15-.23,1.19-.03,1.49.21.12.41.25.62.37.44.25,1.09.15,1.76.15,1.57,0,3.36-.17,4.8.09.29.03.58.06.87.09.1.11.21.23.31.34.23.17.5.26.71.43.21.24.41.47.62.71,1.07.73,2.2,1.9,2.97,2.94.13.17.31.21.5.34.3.31.6.62.9.93.5.39.97.81,1.49,1.18.3.34.6.68.9,1.02.66.4,1.06,1.03,1.58,1.58.22.23.48.37.74.56.1.14.21.29.31.43.36.44.87.86,1.36,1.18.11.17.23.33.34.5,1.1.88,2.2,1.82,3.16,2.85.26.28.83.85.71,1.45-.15.76-.75,1.49-1.3,1.86-.2.06-.39.12-.59.19-.09.13-.19.27-.28.4-.39.25-.73.36-1.11.62-.11.13-.23.27-.34.4-.68.52-1.35,1.09-2.04,1.58-.2.08-.39.17-.59.25-1.35,1-2.73,2.01-4.06,3.06-.29.23-.47.64-.74.9-.25.24-.56.41-.84.62-.37.27-.63.74-1.08.96-.69.33-1.72-.02-2.54.12-.36.06-.55.3-.87.37h-.99c-.7.13-1.72.16-2.41.28-.33-.01-.66-.02-.99-.03-.31.12-.62.25-.93.37-1.09.03-2.19.06-3.28.09-.29.12-.58.25-.87.37-.5-.01-.99-.02-1.49-.03-.72.15-2,.14-2.76.28h-1.73c-.35.12-.7.25-1.05.37-1.21.21-2.36-.2-3.56.03-.82.16-1.63.56-2.66.56-.36.48-.42,1.52-.09,2.1,2.03.38,4.14-.16,5.76-.46ZM27.12,207.06c-.4.15-.98-.08-1.39.03-.23.06-.32.32-.5.43-.38.25-1.18.14-1.55,0-.31-.95.03-1.67.87-1.89.2-.01.39-.02.59-.03.26-.08.37-.4.59-.53.46-.27.96-.33,1.45-.53.38,0,.73.02.99.09.5.86-.47,2.2-1.05,2.41ZM39.25,202.27c-.22.07-.43.14-.65.22-.42.25-.93.68-1.39.87-.53.22-2.73.28-3.31.12-.13-.19-.28-.54-.12-.84.3-.58,2.18-1.1,2.91-1.39.22-.12.43-.25.65-.37.49-.16.93-.11,1.33-.31.63-.02.99.17,1.18.59,0,.45-.32.93-.59,1.11ZM54.92,201.68c-1.14,1.76-1.81-.31-2.57-.84-.22-.04-.43-.08-.65-.12-.24-.11-.33-.4-.65-.46-.94-.2-2.88.39-3.34-.28-.67-.96.45-1.54.93-1.83.38-.32.76-.64,1.15-.96.25-.04.5-.08.74-.12.4-.14.8-.29,1.21-.43.3-.02.6-.04.9-.06.3-.08.39-.37.62-.5.25-.11.5-.23.74-.34,1.65.26,1.02,2.24,1.02,3.78,0,.59.17,1.76-.09,2.17ZM48.63,222.11c-.18.09-.35.3-.65.25-.73-.13-1.52-.65-2.1-.99-.2-.12-.29-.37-.56-.43-.39.01-.78.02-1.18.03-.85-.06-1.69-.12-2.54-.19-.45.08-1.11.22-1.7.12-.72-.12-1.18-.79-1.83-.96-.27.03-.54.06-.8.09-.59-.04-1.39-.09-2.07-.22-.56-.17-1.11-.33-1.67-.5-.34-.02-.68-.04-1.02-.06-.27-.12-.6-.44-.87-.62-.09-.33-.14-.87.09-1.11.11-.22.32-.18.56-.28,1.04.02,2.08.04,3.13.06.33.12.66.25.99.37.78.14,1.49-.03,2.26.12.54.15,1.07.31,1.61.46.63.02,1.26.04,1.89.06.21.11.41.23.62.34.55.06,1.09.12,1.64.19.28.14.56.29.84.43.39.03.78.06,1.18.09.26.11.52.23.77.34.5.08.99.17,1.49.25.28.13.44.43.77.56.5.84-.26,1.3-.84,1.58ZM61.11,226.26c1.2-.02,2.42,1.09,2.63,2.04.14.61-.11,1.18-.19,1.64-.1.59.16,1.42-.12,1.83-.14.08-.29.17-.43.25-.2.2-.32.42-.65.5-.62.14-.77-.31-1.11-.43-.19-.03-.37-.06-.56-.09-1.23-.51-.81-1.72-.8-3.06,0-.57-.14-1.59.09-1.98.21-.35.75-.5,1.15-.68ZM58.75,220.62c.03-.32.06-.64.09-.96.13-.14.27-.29.4-.43v-.71c.12-1,.15-1.04.9-1.42,1.08,0,1.47,1.39,1.24,2.66-.07.41-.41.44-.5.74-.01.29-.02.58-.03.87-.07.28-.29.35-.4.56-.05.25-.1.5-.15.74-.19.51-.91.69-1.45.9-.39.21-.96,2.2-1.95,1.36-.26-.15-.37-.94-.15-1.27.24-.37,1.23-.55,1.36-.9.06-.46.12-.93.19-1.39.15-.25.31-.5.46-.74ZM57.02,223.01c-1.51,1.05-6.48.6-5.57-1.89.57-.33,1.58-.17,2.29-.34.23-.11.45-.23.68-.34.35-.01.7-.02,1.05-.03.53-.09.92-.27,1.36-.46,2.47-.05,1.04,2.47.19,3.06ZM71.41,195.27c.17.39-.18.79-.34.99-.55.71-1.85-.09-2.38-.22-.29-.02-.58-.04-.87-.06-.39-.14-.78-.29-1.18-.43-.39-.04-.78-.08-1.18-.12-.67-.25-2.59-1.16-1.73-2.35.1-.13.26-.09.4-.19.1-.14.21-.29.31-.43.32-.27.72-.43,1.11-.62.48.01.97.02,1.45.03.78.23,4.11,2.75,4.4,3.41ZM56.22,182.52c.14-.47.63-.9,1.05-1.11.54.02,2.72,1.44,2.94,1.76.09.24.19.47.28.71.09.06.19.12.28.19.23.32.36,1.34.15,1.76-.33.68-1.37.86-1.98,1.27-.73.48-.74,1.84-2.14,1.49-.46-.79.08-3.36-.12-4.55-.09-.52-.7-.73-.46-1.52ZM54.2,176.79c.08-.05.17-.1.25-.15.1.03.21.06.31.09.14.08.17.21.22.37,0,.25-.05.36-.22.43-.25.11-.46-.07-.56-.22-.05-.2-.05-.33,0-.53ZM96.12,147.16c.64,0,1.06.14,1.42.4.09.31.06.59-.09.8-.47.12-1.02.01-1.39-.12-.26-.35-.25-.8.06-1.08ZM56.83,166.6c-.95.22-1.14-1.16-1.3-1.86-.08-.33-.38-.43-.46-.71-.2-.66.6-1.38.93-1.64,2.13-.04,2.58,3.81.84,4.21ZM59.74,164.1c-1.01.62-1.26-.38-1.52-1.05-.1-.26-.32-.46-.4-.77-.19-.12-.48-.1-.71-.22-.39-.2-.66-.78-1.02-.99-.45-.26-.94-.37-1.3-.71-.34-.33-.39-1.32-.03-1.67.16-.16.44-.12.68-.22,1.16.04,1.22.97,1.76,1.61.44.52.77.48,1.11,1.24.44.07.9-.27,1.33-.03.93.44.32,2.12.09,2.82ZM58.6,158.31c-.29.3-.65.8-1.3.62-.47-.13-.42-.43-.62-.84-.25-.52-.68-.61-.46-1.64.07-.34.35-.39.43-.65.04-.5.08-.99.12-1.49.08-.27.31-.38.4-.59.05-.28.1-.56.15-.84.11-.09.23-.19.34-.28.02-.2.04-.39.06-.59.11-.6.39-.67.87-.9.17.03.33.06.5.09.58.99-.04,4.14-.22,5.11-.12.68.11,1.58-.28,1.98ZM53.18,144.25c.35-.22.98,0,1.45-.09.34-.07.67-.34.96-.53,1.1-.71.83-3.13,2.94-2.48.23.38.34,1.39.12,1.92-.13.22-.27.43-.4.65-.01.7-.02,1.4-.03,2.1.25-.46.4-1.12.53-1.7.03-.27.06-.54.09-.8.47-.85,2.26-1.04,2.57-1.64.11-.23.07-.55.06-.8-.03-.68.21-1.21.65-1.42.21-.03.41-.06.62-.09,1.25.3.79.47.99,1.55.04.02.08.04.12.06.47.18,1.26-.76,1.55-.96.27-.07.54-.14.8-.22.93-.15,1.71.44,2.35.62.48.06.97.12,1.45.19.28.14.49.37.84.5.9,1.35-.92,2.23-1.83,2.54-.22.15-.43.31-.65.46-.18.01-.35.02-.53.03-.18.17-.35.33-.53.5-.2.04-.39.08-.59.12-.14.13-.29.27-.43.4-.24.1-.49.03-.68.15-.09.11-.19.23-.28.34-.18.05-.35.1-.53.15-.15.13-.31.27-.46.4-.18.03-.35.06-.53.09-.23.09-1.18.7-1.3.9-.05.21-.1.41-.15.62-.09.29-.34.37-.4.68-.02.66-.04,1.32-.06,1.98-.09.4-.42.54-.5.99.02.31.04.62.06.93-.04.79-.08,1.59-.12,2.38-.07.3-.35.31-.43.53-.03.4-.06.8-.09,1.21-.13.33-.64.47-.9.68-.04-.01-.08-.02-.12-.03-.43-.26.03-1.72.03-2.41.04-.55.08-1.09.12-1.64.09-.28.36-.37.43-.71.02-.77.04-1.55.06-2.32.08-.43.46-1.02.31-1.55-.36-1.26-2.22-1.04-2.48-2.38-.02-.01-.04-.02-.06-.03-.03.33-.06.66-.09.99-.09.14-.19.29-.28.43-.08.5-.17.99-.25,1.49-.13.21-.27.41-.4.62-.05.33-.1.66-.15.99-.13.14-.27.29-.4.43v.8c-.07.41-.14.83-.22,1.24-.11.37-.21.95-.4,1.36-.14.31-.53.22-.5.68.07,1.01-1.1,3.53-2.23,3.25-.54-.13-.46-1.73-.34-2.38.13-.65.27-1.3.4-1.95.05-.65.1-1.3.15-1.95.13-.45.56-.35.46-1.02-.1-.65.24-1.68-.03-2.17-.12-.08-.25-.17-.37-.25-.07-.26-.14-.52-.22-.77-.12-.18-.25-.35-.37-.53-.04-.21-.08-.41-.12-.62-.11-.18-.35-.23-.43-.46-.33-.91.26-1.74.74-2.04ZM42.32,150.07c.17-.05.33-.1.5-.15.15-.13.31-.27.46-.4.21-.09.48-.01.65-.12.1-.12.21-.25.31-.37.52-.25,1.03-.5,1.55-.74.36-.23.74-.61,1.08-.84.2-.04.39-.08.59-.12.24-.14.47-.29.71-.43,1.84-.03,1.66,1.39.96,2.41-.24.35-1.07,1.45-1.39,1.64-.21.05-.41.1-.62.15-.18.14-.35.29-.53.43-.36.02-.72.04-1.08.06-.31.12-.62.25-.93.37-.71.18-1.98.23-2.66,0-.94-.45-.05-1.61.4-1.89ZM21.89,155.27c.48-.04.97-.08,1.45-.12.33-.08.54-.27.96-.34.63-.01,1.26-.02,1.89-.03.87-.12,2.1-.37,3.06-.53,1.14-.19,2.05.12,3.1-.12.36-.08.57-.33.99-.4h2.35c.34-.11.68-.23,1.02-.34.99-.24,2.05-.1,3.1-.31.24-.11.47-.23.71-.34.75-.19,1.46.08,2.2-.06.67-.13,1.56-.41,2.17-.53.59-.11,1.1.02,1.55-.15.21-.11.41-.23.62-.34.19-.02.37-.04.56-.06.52-.5,1.03-.99,1.55-1.49.06-.21.12-.41.19-.62.49-.94,1.08-2.13,2.01-2.63,1.21-.01,2.36,1.59,2.14,2.94-.06.33-.12.66-.19.99-.13.2-.4.18-.46.46.02,1.24.04,2.48.06,3.71-.12.76-.42,1.21-.56,1.83-.14.65.07,1.28-.19,1.8-.1.1-.21.21-.31.31-.01.34-.02.68-.03,1.02-.08.46-.39,1.03-.68,1.3-.69.65-1.51-.58-1.73-.9-.09-.29-.19-.58-.28-.87-.1-.06-.21-.12-.31-.19-.37-.51-.7-1.06-1.05-1.55-.07-.2-.14-.39-.22-.59-.45-.68-1.83-1.19-2.76-1.36h-7.92c-.36.1-.72.21-1.08.31-.69-.01-1.38-.02-2.07-.03-.19.07-.37.14-.56.22h-3.62c-.85.13-2.01-.06-2.88.12-.32.12-.64.25-.96.37h-1.58c-.73.11-2.82.19-3.53,0-.24-.06-.41-.24-.53-.43.08-1.07.83-.88,1.83-1.05ZM17.95,156.11c.07-.04.14-.08.22-.12.42,0,.69.06.96.19v.19c-.16.29-.74.33-1.11.22-.11-.18-.1-.23-.06-.46ZM15.35,155.96c.35,0,.46.08.65.22.35,1.25-1.93,1.43-2.29.71.01-.76,1.09-.7,1.64-.93ZM6.75,157.13c.28-.57,1.67-.52,2.35-.77.65-.01,1.42-.09,1.7.28v.46c-.27.72-3.23,1.16-4.06.56-.05-.17-.09-.37,0-.53Z"/>
      <path class="cls-1" d="M67.89,177.07c-.04.23-.08.45-.12.68-.11.31-.41.81-.62,1.11-.08.12-.2.09-.31.19-.06.15-.12.31-.19.46-.24.41-.59.75-.9,1.08-.17.18-.04.56-.15.8-.1.21-.34.26-.4.53-.36,1.48,1.49,3.82,2.29,4.02.69.17,1.18-.31,1.58-.43.31-.05.62-.1.93-.15.19-.12.37-.25.56-.37.33-.03.66-.06.99-.09.2-.14.39-.29.59-.43.26-.03.52-.06.77-.09.29-.09.5-.34.74-.43.33-.05.66-.1.99-.15.19-.12.37-.25.56-.37.26-.04.52-.08.77-.12.24-.13.47-.27.71-.4.72-.3,1.29-.36,2.01-.65.19-.13.37-.27.56-.4.3-.05.6-.1.9-.15.13-.12.27-.25.4-.37.28-.05.56-.1.84-.15.57-.22,1.27-.74,1.86-.93.23-.03.45-.06.68-.09.21-.14.41-.29.62-.43.24-.04.47-.08.71-.12.21-.14.41-.29.62-.43.25-.03.5-.06.74-.09.14-.11.29-.23.43-.34.28-.06.56-.12.84-.19.18-.12.35-.25.53-.37.3-.06.6-.12.9-.19.15-.12.31-.25.46-.37.23-.03.45-.06.68-.09.19-.14.37-.29.56-.43.28-.04.56-.08.84-.12.21-.08.32-.3.5-.4.29-.06.58-.12.87-.19.48-.19,1.28-.73,1.73-.9.24-.04.47-.08.71-.12.23-.14.45-.29.68-.43.24-.04.47-.08.71-.12.49-.25,1.14-.7,1.67-.9.22-.04.43-.08.65-.12.18-.13.35-.27.53-.4.28-.04.56-.08.84-.12.19-.14.37-.29.56-.43.26-.03.52-.06.77-.09.13-.12.27-.25.4-.37.23-.07.45-.14.68-.22.11-.11.23-.23.34-.34.25-.03.5-.06.74-.09.2-.13.39-.27.59-.4.31-.05.62-.1.93-.15.2-.14.39-.29.59-.43.65-.26,1.22-.39,1.76-.74.13-.11.27-.23.4-.34.25-.04.5-.08.74-.12.19-.13.37-.27.56-.4.18-.02.35-.04.53-.06.58-.2,1.33-.7,1.89-.96.23-.04.45-.08.68-.12.17-.12.33-.25.5-.37.26-.04.52-.08.77-.12.25-.09.38-.32.59-.43.25-.05.5-.1.74-.15.19-.12.37-.25.56-.37.63-.27,1.24-.32,1.98-.37.01-.08.02-.17.03-.25-.39-.11-1.43-.1-1.76.09-.13.11-.27.23-.4.34-.26.12-.61.05-.84.19-.15.12-.31.25-.46.37-.28.04-.56.08-.84.12-.13.12-.27.25-.4.37-.24.05-.47.1-.71.15-.14.12-.29.25-.43.37-.26.04-.52.08-.77.12-.21.14-.41.29-.62.43-.25.04-.5.08-.74.12-.17.13-.33.27-.5.4-.22.05-.43.1-.65.15-.15.11-.31.23-.46.34-.21.04-.41.08-.62.12-.15.12-.31.25-.46.37-.21.04-.41.08-.62.12-.29.09-.44.35-.68.46-.29.05-.58.1-.87.15-.18.13-.35.27-.53.4-.23.04-.45.08-.68.12-.18.12-.35.25-.53.37-.28.14-.6.09-.84.25-.12.1-.25.21-.37.31-.22.03-.43.06-.65.09-.21.14-.41.29-.62.43-.2.02-.39.04-.59.06-.19.15-.37.31-.56.46-.22.03-.43.06-.65.09-.17.12-.33.25-.5.37-.25.05-.5.1-.74.15-.27.09-.43.33-.65.43-.6.27-1.21.37-1.83.62-.21.14-.41.29-.62.43-.29.05-.58.1-.87.15-.15.13-.31.27-.46.4-.23.02-.45.04-.68.06-.18.14-.35.29-.53.43-.32.05-.64.1-.96.15-.18.14-.35.29-.53.43-.21.03-.41.06-.62.09-.2.12-.39.25-.59.37-.24.04-.47.08-.71.12-.2.14-.39.29-.59.43-.29.04-.58.08-.87.12-.15.13-.31.27-.46.4-.28.04-.56.08-.84.12-.2.14-.39.29-.59.43-.23.04-.45.08-.68.12-.21.13-.41.27-.62.4-.23.03-.45.06-.68.09-.21.13-.41.27-.62.4-.29.08-.58.17-.87.25-.1.09-.21.19-.31.28-.27.04-.54.08-.8.12-.21.14-.41.29-.62.43-.28.05-.56.1-.84.15-.14.11-.29.23-.43.34-.32.06-.64.12-.96.19-.13.11-.27.23-.4.34-.28.06-.56.12-.84.19-.14.11-.29.23-.43.34-.32.05-.64.1-.96.15-.2.13-.39.27-.59.4-.28.03-.56.06-.84.09-.22.14-.43.29-.65.43-.3.06-.6.12-.9.19-.19.11-.37.23-.56.34-.41.06-.83.12-1.24.19-.18.12-.35.25-.53.37-.33.05-.66.1-.99.15-.22.11-.43.23-.65.34-.97.29-1.79-.48-2.14-.96-.07-.21-.14-.41-.22-.62-.11-.21-.35-.31-.43-.59-.12-.39-.14-1.28.03-1.64.12-.11.25-.23.37-.34.07-.28.14-.56.22-.84.62-.91,1.25-1.8,1.83-2.76.08-.3.17-.6.25-.9.07-.12.22-.12.31-.22.35-.37.48-.97.77-1.39.13-.09.27-.19.4-.28.06-.17.12-.33.19-.5.37-.58.89-1.04,1.33-1.55.08-.22.17-.43.25-.65.15-.24.34-.55.53-.8.1-.06.21-.12.31-.19.34-.43.45-.99.68-1.52.08-.19.28-.31.4-.46.08-.26.17-.52.25-.77.22-.34.56-.68.77-1.02.08-.25.17-.5.25-.74.09-.08.19-.17.28-.25.11-.29.23-.58.34-.87.26-.32.63-.71.84-1.08.3-.56.37-1.08.62-1.7.13-.32.4-.44.4-.9-.12-.12-.17-.2-.37-.25-.12.28-.03.77-.15,1.11-.2.53-.78.98-1.02,1.45-.03.18-.06.35-.09.53-.14.19-.29.37-.43.56-.05.18-.1.35-.15.53-.21.3-.41.6-.62.9-.1.07-.21.14-.31.22-.03.18-.06.35-.09.53-.09.31-.28.64-.43,1.02-.21.53-.69.98-.99,1.42-.32.47-.43,1-.71,1.49-.29.34-.58.68-.87,1.02-.1.23-.21.45-.31.68-.22.29-.82.94-1.11,1.15-.27.08-.54.17-.8.25-.18.1-.27.26-.5.34-.26.45.21,1.47-.15,2.01-.13.09-.27.19-.4.28Z"/>
      <path class="cls-1" d="M117.88,167.56c-.11.12-.23.25-.34.37-.23.02-.45.04-.68.06-.23.15-.45.31-.68.46-.25.03-.5.06-.74.09-.13.13-.27.27-.4.4-.23.07-.45.14-.68.22-.1.1-.21.21-.31.31-.25.05-.5.1-.74.15-.18.07-.26.24-.4.34-.26.07-.52.14-.77.22-.18.12-.35.25-.53.37-.2.03-.39.06-.59.09-.21.13-.41.27-.62.4-.25.04-.5.08-.74.12-.19.14-.37.29-.56.43-.23.02-.45.04-.68.06-.32.08-.48.36-.74.46-.3.04-.6.08-.9.12-.14.12-.29.25-.43.37-.23.06-.45.12-.68.19-.17.12-.33.25-.5.37-.21.04-.41.08-.62.12-.21.13-.41.27-.62.4-.25.04-.5.08-.74.12-.14.12-.29.25-.43.37-.24.05-.47.1-.71.15-.18.13-.35.27-.53.4-.21.04-.41.08-.62.12-.19.13-.37.27-.56.4-.25.04-.5.08-.74.12-.18.14-.35.29-.53.43-.24.05-.47.1-.71.15-.12.12-.25.25-.37.37-.19.05-.37.1-.56.15-.15.13-.31.27-.46.4-.26.04-.52.08-.77.12-.2.13-.39.27-.59.4-.24.04-.47.08-.71.12-.47.2-1.03.7-1.49.9-.19.02-.37.04-.56.06-.33.1-.52.39-.8.5-.24.04-.47.08-.71.12-.12.11-.25.23-.37.34-.25.07-.5.14-.74.22-.17.12-.33.25-.5.37-.24.06-.47.12-.71.19-.11.11-.23.23-.34.34-.22.02-.43.04-.65.06-.19.15-.37.31-.56.46-.28.03-.56.06-.84.09-.2.08-.28.3-.43.4-.22.06-.43.12-.65.19-.17.12-.33.25-.5.37-.26.04-.52.08-.77.12-.15.14-.31.29-.46.43-.25.02-.5.04-.74.06-.24.08-.34.33-.53.43-.2.05-.39.1-.59.15-.17.13-.33.27-.5.4-.26.05-.52.1-.77.15-.15.12-.31.25-.46.37-.22.03-.43.06-.65.09-.14.13-.29.27-.43.4-.26.08-.52.17-.77.25-.1.09-.21.19-.31.28-.27.05-.54.1-.8.15-.17.13-.33.27-.5.4-.22.04-.43.08-.65.12-.22.08-.35.27-.53.37-.24.06-.47.12-.71.19-.18.12-.35.25-.53.37-.22.04-.43.08-.65.12-.17.12-.33.25-.5.37-.21.04-.41.08-.62.12-.13.12-.27.25-.4.37-.51.34-.94.29-1.24.84.05.44,1.16,1.3,1.52,1.52,1.59.96,2.54,2.72,4.12,3.68.09.13.19.27.28.4.04.05,1.24,1.15,1.24,1.15.56.28,1.04.62,1.39,1.08.09.13.19.27.28.4.17.06.33.12.5.19.6.5,1.15,1.07,1.76,1.58.28.34.56.68.84,1.02.94.59,1.69,1.39,2.48,2.14.3.31.6.62.9.93,2.03,1.36,3.64,3.3,5.14,5.2.15.08.31.17.46.25.33.22.58.62.8.96.03.01.06.02.09.03.04-.01.08-.02.12-.03.06-.1.09-.12.09-.31-.86-.9-1.81-1.73-2.57-2.72-.26-.33-.7-.57-.96-.9-.23-.3-.44-.67-.71-.93-1.39-1.32-2.9-2.55-4.4-3.75-.41-.45-.83-.91-1.24-1.36-.17-.07-.33-.14-.5-.22-.19-.19-.37-.37-.56-.56-.25-.3-.5-.6-.74-.9-.11-.04-.23-.08-.34-.12-.31-.32-.62-.64-.93-.96-.13-.04-.27-.08-.4-.12-.36-.39-.72-.78-1.08-1.18-.2-.22-.43-.23-.68-.4-.12-.15-.25-.31-.37-.46-.51-.33-.85-.77-1.36-1.11-.54-.36-.85-1.1-1.36-1.49-.88-.65-1.36-1.2-2.04-2.04-.15-.09-.31-.19-.46-.28-.3-1.33,1.8-2.12,2.79-2.48.24-.09.37-.3.56-.4.26-.04.52-.08.77-.12.15-.13.31-.27.46-.4.23-.05.45-.1.68-.15.17-.13.33-.27.5-.4.21-.03.41-.06.62-.09.18-.14.35-.29.53-.43.18-.02.35-.04.53-.06.31-.08.46-.35.71-.46.25-.04.5-.08.74-.12.21-.08.29-.3.46-.4.21-.05.41-.1.62-.15.14-.12.29-.25.43-.37.25-.03.5-.06.74-.09.19-.15.37-.31.56-.46.27-.04.54-.08.8-.12.46-.19.99-.7,1.45-.9.26-.03.52-.06.77-.09.23-.08.32-.31.5-.43.28-.07.56-.14.84-.22.17-.12.33-.25.5-.37.19-.03.37-.06.56-.09l.4-.4c.22-.03.43-.06.65-.09.17-.13.33-.27.5-.4.23-.04.45-.08.68-.12.2-.14.39-.29.59-.43.75-.28,1.22-.38,1.92-.68.15-.12.31-.25.46-.37.26-.04.52-.08.77-.12.17-.13.33-.27.5-.4.26-.06.52-.12.77-.19.14-.12.29-.25.43-.37.23-.05.45-.1.68-.15.17-.12.33-.25.5-.37.23-.04.45-.08.68-.12l.4-.4c.26-.04.52-.08.77-.12.12-.11.25-.23.37-.34.19-.04.37-.08.56-.12.18-.14.35-.29.53-.43.28-.04.56-.08.84-.12.18-.14.35-.29.53-.43.25-.05.5-.1.74-.15.18-.12.35-.25.53-.37.27-.07.54-.14.8-.22.13-.1.27-.21.4-.31.2-.03.39-.06.59-.09.2-.14.39-.29.59-.43.27-.04.54-.08.8-.12.18-.13.35-.27.53-.4.26-.03.52-.06.77-.09.19-.13.37-.27.56-.4.22-.05.43-.1.65-.15.22-.14.43-.29.65-.43.21-.03.41-.06.62-.09.2-.14.39-.29.59-.43.23-.03.45-.06.68-.09.2-.14.39-.29.59-.43.64-.28,1.36-.39,1.92-.74.11-.1.23-.21.34-.31.26-.04.52-.08.77-.12.15-.13.31-.27.46-.4.23-.03.45-.06.68-.09.39-.15,1.2-.74,1.42-1.08-.05-.01-.1-.02-.15-.03-.18.06-.35.12-.53.19Z"/>
      <path class="cls-1" d="M48.79,185.05c.32.25,1.05.82,1.3,1.11.24.28.47.56.71.84.2.09.39.19.59.28.4.34.67,1.07,1.52.84.1-.35.26-1.2.09-1.55-.26-.53-.66-.42-1.18-.71-.13-.13-.27-.27-.4-.4-.18-.04-.35-.08-.53-.12-.14-.13-.29-.27-.43-.4-.19-.03-.37-.06-.56-.09-.19-.13-.37-.27-.56-.4-.24-.04-.47-.08-.71-.12-.37-.13-.47-.45-1.02-.53.11.5.81.98,1.18,1.27Z"/>
      <path class="cls-1" d="M59.19,192.89c.2-.34.22-1.2.03-1.55-.08-.01-.17-.02-.25-.03-.23.31-.44.87-.43,1.39.07.08.14.17.22.25.15.06.29-.02.43-.06Z"/>
      <path class="cls-1" d="M75.72,200.25c-.45-.03-.91-.06-1.36-.09-.27-.13-.54-.27-.8-.4-.54-.02-1.07-.04-1.61-.06-.35-.14-.7-.29-1.05-.43-.75-.06-1.51-.12-2.26-.19-.26-.12-.52-.25-.77-.37-.38-.02-.76-.04-1.15-.06-.43-.11-1.07-.39-1.55-.5-.5-.02-.99-.04-1.49-.06-.35-.13-.7-.27-1.05-.4-.77-.04-1.55-.08-2.32-.12-.36-.1-.38-.42-.87-.43-.37.22-.79.38-1.15.62-.08.33-.15,1.14.03,1.42.11.17.31.26.37.5.03.31.06.62.09.93.1.39.32.66.43.96.03.28.06.56.09.84.12.06.25.12.37.19,0,0,.64,1.73.65,1.76.02.3.04.6.06.9.14.21.29.41.43.62.18.44.48.83.59,1.21.05.28.1.56.15.84.11.17.23.33.34.5.03.34.06.68.09,1.02.11.17.32.23.4.46.06.34.12.68.19,1.02.14.42.84,1.8,1.15,2.04.05.01.1.02.15.03.71-.37,1.07-1.24,1.67-1.73.21-.14.41-.29.62-.43.4-.47.6-1.08,1.11-1.42.6-.41,1.16-.8,1.58-1.36.63-.85,1.19-1.82,2.07-2.41.48-.52.97-1.03,1.45-1.55.91-.53,1.52-1.46,2.38-2.07.2-.15.87-.22,1.02.03.62,1.04-1.33,2.21-1.58,2.72-.49,1.03-1.1,1.89-1.8,2.72-.11.07-.23.14-.34.22-.24.3-.39.78-.71.99-.2.13-.63.43-.77.5-.35.15-.76.04-1.02.25-.42.33-.48.76-.77,1.21-.32.34-.64.68-.96,1.02-.26.35-.41.68-.65,1.05-.35.54-2.51,2.5-1.89,3.22.24.42,1,.25,1.58.25h1.08c.81-.16,1.56-.66,2.6-.5.89-.03,1.77-.06,2.66-.09.44-.12.85-.34,1.39-.43h1.8c.36-.08.72-.17,1.08-.25.48.01.97.02,1.45.03.24-.09.47-.19.71-.28.89-.03,1.77-.06,2.66-.09.37-.09.69-.3,1.15-.37h1.49c1.59,0,2.9.02,3.22,1.27.31,1.23-.64,1.14-1.52,1.33-.21.11-.41.23-.62.34-.52.02-1.03.04-1.55.06-.49.1-.85.54-1.64.37-.27-.06-.55-.41-.96-.28-.15.12-.31.25-.46.37-.53.02-1.05.04-1.58.06-.38.06-.76.12-1.15.19-.41-.03-.77-.28-1.3-.19-.63.12-1.26.34-1.8.46-.57.03-1.14.06-1.7.09-.54.1-1.19.34-1.83.46-.55.01-1.09.02-1.64.03-.57.11-1.02.38-1.49.5-.36.02-.72.04-1.08.06-.23.06-.3.29-.46.4-.21.05-.41.1-.62.15-.29.12-.43.39-.8.46v.03c.17.07.33.14.5.22.24.18.18.54.34.8.11.18.33.24.4.46.03.28.06.56.09.84.14.25.29.5.43.74.03.22.06.43.09.65.12.06.25.12.37.19.09.29.19.58.28.87.11.15.23.31.34.46.05.32.1.64.15.96.12.15.25.31.37.46.06.22.12.43.19.65.12.14.25.29.37.43.05.25.1.5.15.74.12.23.25.45.37.68.02.22.04.43.06.65.07.23.33.32.43.5.06.25.12.5.19.74.25.44.7.96.9,1.42.04.23.08.45.12.68.14.21.29.41.43.62.04.27.08.54.12.8.24.5.83.98,1.02,1.52.03.2.06.39.09.59.12.2.25.39.37.59.02.24.04.47.06.71.12.09.25.19.37.28.06.23.12.45.19.68.13.18.27.35.4.53.04.26.08.52.12.77.12.13.25.27.37.4.06.27.12.54.19.8.25.48.7.99.93,1.49.36.8.61,1.61,1.02,2.32.03.19.06.37.09.56.08.19.9,1.04,1.15,1.08.83-.54,1.19-1.43,1.8-2.2.26-.24.52-.47.77-.71.47-.69.84-1.36,1.33-2.01.22-.29.58-.54.8-.84.09-.26.19-.52.28-.77.2-.27.56-.48.77-.74.38-.47.49-1.1.84-1.61.25-.37.5-.69.84-.99.33-.3.46-.92.68-1.33.07-.13.22-.17.31-.28.36-.42.52-.94.87-1.39.1-.07.21-.14.31-.22.22-.43.43-.87.65-1.3.23-.36.66-.66.9-1.02.29-.46.36-.94.65-1.39.22-.34.62-.65.9-.96.07-.21.14-.41.22-.62.14-.29.35-.51.53-.84.23-.44.67-.8.96-1.18.3-.4.45-.84.68-1.3v-.03s-.04-.02-.06-.03c-.67.42-1.19,1.28-1.61,1.95-.09.23-.19.45-.28.68-.1.05-.21.1-.31.15-.14.12-.4.56-.5.71-.3.49-.34,1.02-.65,1.49-.3.33-.6.66-.9.99-.08.2-.17.39-.25.59-.31.51-.68,1.04-1.02,1.58-.31.36-.62.72-.93,1.08-.09.23-.19.45-.28.68-.12.17-.36.61-.53.74-.11.06-.23.12-.34.19-.47.75-.71,1.53-1.18,2.26-.26.28-.52.56-.77.84-.13.27-.27.54-.4.8-.21.28-.53.56-.74.84-.49.65-.82,1.34-1.27,2.04-.38.59-1.03,1.01-1.42,1.58-.26.38-.51.91-.99,1.05-1.65.47-2.8-2.58-3.22-3.62-.05-.26-.1-.52-.15-.77-.28-.46-.78-1.08-.96-1.58-.03-.24-.06-.47-.09-.71-.14-.18-.29-.35-.43-.53-.04-.25-.08-.5-.12-.74-.2-.44-.81-.94-.96-1.42-.02-.24-.04-.47-.06-.71-.11-.08-.23-.17-.34-.25-.17-.24-.12-.57-.22-.9-.08-.27-.31-.49-.4-.71-.02-.18-.04-.35-.06-.53-.08-.24-.35-.24-.46-.43-.19-.33-.44-.83-.56-1.15-.03-.25-.06-.5-.09-.74-.13-.12-.27-.25-.4-.37-.03-.21-.06-.41-.09-.62-.09-.23-.39-.34-.5-.59-.06-.3-.12-.6-.19-.9-.12-.18-.25-.35-.37-.53-.02-.24-.04-.47-.06-.71-.13-.13-.27-.27-.4-.4-.06-.34-.12-.68-.19-1.02-.11-.12-.23-.25-.34-.37-.41-.62-1.04-2.17-1.18-3-.16-1.01.28-1.8.93-2.01.34-.03.68-.06,1.02-.09.23-.12.45-.25.68-.37.95-.23,1.75-.09,2.66-.28.31-.1.62-.21.93-.31.6-.03,1.2-.06,1.8-.09.37-.12.73-.34,1.21-.43.84-.06,1.67-.12,2.51-.19.2-.09.39-.19.59-.28.56-.04,1.11-.08,1.67-.12.54-.11,1.08-.34,1.67-.46.62-.04,1.24-.08,1.86-.12.32-.12.64-.25.96-.37.45-.03.91-.06,1.36-.09.22-.12.43-.25.65-.37.39-.07.78-.14,1.18-.22.28-.02.56-.04.84-.06.26-.1.52-.21.77-.31.63-.05,1.26-.1,1.89-.15.3-.13.6-.27.9-.4,1.1-.24,2.13.12,1.86-1.27-.08-.42.01-.67-.15-.93-.84-.18-3.11-.17-3.99,0-.43.08-.69.46-1.27.37-.94-.01-1.88-.02-2.82-.03-1.18-.03-2.35-.06-3.53-.09-.28.08-.56.17-.84.25-1,.03-2,.06-3,.09-.26.12-.52.25-.77.37h-1.83c-.47.08-1.15-.04-1.7.06-.29.07-.58.14-.87.22-.25.01-.5.02-.74.03-.14.08-.29.17-.43.25-1.09.03-2.19.06-3.28.09-.4.09-.64.32-1.15.4-.6.1-1.42-.26-1.55-.65-.13-.39-.08-1.35.09-1.61.11-.09.23-.19.34-.28.21-.28.26-.65.53-.87.2-.15.39-.31.59-.46.06-.17.12-.33.19-.5.12-.08.25-.17.37-.25.2-.3.39-.6.59-.9.29-.37.74-.67,1.02-1.05.34-.44.76-.76,1.08-1.18.49-.63.77-1.38,1.27-2.01.21-.26.59-.45.8-.71.57-.7.92-1.44,1.58-2.04.08-.2.17-.39.25-.59.2-.31.77-.85,1.11-.99,1.04-.43,2.48.18,2.97.56.64.49,1.19,1.1,1.83,1.61.12.14.25.29.37.43,1.24.76,2.3,1.7,3.44,2.54.34.2.68.39,1.02.59.37.28.7.71,1.08.99.15.06.31.12.46.19.1.14.21.29.31.43.21.17.49.42.71.53.15.04.31.08.46.12.45.31.91,1.08,1.64.9.03-.04.06-.08.09-.12-.01-.06-.02-.12-.03-.19-.28-.09-.56-.19-.84-.28-.37-.21-.68-.73-1.05-.96-.14-.03-.29-.06-.43-.09-.23-.09-.5-.37-.74-.53-.13-.18-.27-.35-.4-.53-.13-.09-.22-.06-.31-.19-.06-.18-.12-.35-.19-.53-.43-.41-.87-.83-1.3-1.24-.26-.07-.52-.14-.77-.22-.13-.12-.27-.25-.4-.37-.23-.12-.53-.09-.71-.25-.58-.53-.91-1.44-1.58-1.86-.27-.17-.77-.04-1.02-.22-.61-.43-.6-1.23-1.02-1.86-.13-.2-.74-.59-.96-.74-.65-.46-.97-1.32-1.8-1.61l-.06.06c.18.21.35.41.53.62.09.2.09.64.03.87-.33,1.35-2.54.29-3.31.15ZM73.98,201.77c-.27,1.11-1.88,2.16-2.72,2.79-.64.48-.98,1.33-1.52,1.92-.13.07-.27.14-.4.22-.95,1.14-1.93,2.21-2.97,3.25-.17.17-.51.28-.65.46-.44.57-1.2,1.59-2.29.8-.36-.26-.25-.73-.46-1.15-.12-.18-.25-.35-.37-.53-.02-.24-.04-.47-.06-.71-.09-.21-.39-.25-.5-.5-.05-.3-.1-.6-.15-.9-.12-.23-.25-.45-.37-.68-.02-.26-.04-.52-.06-.77-.14-.2-.29-.39-.43-.59-.08-.39-.17-.78-.25-1.18-.15-.28-.29-.75-.46-1.05-.12-.17-.25-.33-.37-.5-.05-.3-.1-.6-.15-.9-.09-.2-.3-.35-.37-.59-.23-.71-.35-2.4.12-2.85.21-.06.41-.12.62-.19,3.97,0,6.93,1.02,10.43,1.64h.8c.38.14.76.29,1.15.43.32.05.64.1.96.15.3.14.63.84.5,1.39ZM91.63,214.34c.19-.13.39-.14.65-.25.62-.01,1.32-.07,1.58.28.28,1.22-1.11,1.45-2.17,1.11-.26-.35-.21-.72-.06-1.15Z"/>
      <path class="cls-1" d="M96.27,225.79c-.12.35-.04.88-.19,1.24-.23.55-.61.87-.96,1.27-.26.29-.48.99-.68,1.36-.4.75-1.03,1.41-1.45,2.1-.31.51-.39,1.01-.71,1.49-.23.35-.7.62-.9.99-.05.19-.1.37-.15.56-.55.98-1.31,2.07-1.98,2.97-.28.38-.33.89-.56,1.3-.25.45-.72.91-1.02,1.33-.06.22-.12.43-.19.65-.37.66-.92,1.27-1.33,1.92-.07.3-.14.6-.22.9-.12.15-.25.31-.37.46-.04.2-.08.39-.12.59-.17.47-.63.99-.9,1.39-.08.27-.17.54-.25.8l-.31.31c-.11.28-.23.56-.34.84-.09.04-.19.08-.28.12-.05.25-.1.5-.15.74-.13.12-.27.25-.4.37-.03.22-.06.43-.09.65-.1.28-.36.86-.53,1.18-.17.31-.39.84-.62,1.15-.12.15-.3.22-.37.43-.04.26-.08.52-.12.77-.08.19-.32.31-.4.46-.03.27-.06.54-.09.8-.32.41-.64.83-.96,1.24-1.31,2.16-2.99,3.95-4.46,5.97-.29.3-.58.6-.87.9-.27.41-.39.83-.65,1.24-.37.59-1,1.06-1.42,1.61-.08.21-.17.41-.25.62-.22.33-.62.61-.9.9-.3.3-.43.73-.65,1.11-.24.33-.47.66-.71.99-.08.03-.17.06-.25.09-.32.35-.41.83-.68,1.24-.26.38-.74.68-.99,1.05-1.47,2.22-2.89,4.4-4.4,6.59-.37.54-.88,1.13-1.3,1.64-.36.43-.47,1-.8,1.45-.24.32-.7.6-.9.96-.25.44-.29.87-.56,1.27-.19.19-.37.37-.56.56-.29.4-.42.88-.71,1.3-.41.58-.97,1.15-1.36,1.73-.07.18-.14.35-.22.53-.11.08-.23.17-.34.25-.3.42-.43.9-.74,1.3-.22.29-.6.49-.8.8-.3.45-.45.93-.77,1.36-.25.33-.67.6-.87.99-.3.61-.39,1.14-.77,1.64-.22.28-.64.5-.84.8-.29.45-.37.92-.68,1.33-.15.1-.31.21-.46.31-.37.65-.67,1.3-1.08,1.92-.26.38-.7.71-.96,1.08-.33.48-.44,1.04-.8,1.49-.21.26-.66.47-.84.74-.52.8-.73,1.76-1.36,2.45-.18.2-.46.3-.62.53-.08.23-.17.45-.25.68-.16.27-.42.56-.62.84-.28.3-.56.6-.84.9-.05.19-.1.37-.15.56-.11.25-.41.65-.59.9-.37.51-.91.89-1.27,1.42-.12.33-.25.66-.37.99-.19.27-.5.49-.71.74-.13.28-.27.56-.4.84-.39.51-.93,1-1.3,1.52-.52.72-.8,1.56-1.36,2.23-.11.07-.23.14-.34.22-.28.44-.39.98-.71,1.39-.43.56-.99,1.12-1.36,1.73-.29.47-.44,1-.77,1.42-.2.24-.53.44-.74.68-.36.41-.5,1-.8,1.45-.39.57-.94,1.15-1.33,1.73-.07.22-.14.43-.22.65-.36.57-1.08.98-1.49,1.52-.32.41-.44.94-.77,1.33-.24.15-.47.31-.71.46-.07.32-.14.64-.22.96-.31.76-.98,1.34-1.39,2.01-.08.23-.17.45-.25.68-1.59,1.97-2.98,4.17-4.52,6.19-.09.22-.19.43-.28.65-.1.17-.24.18-.37.31-.27.48-.54.97-.8,1.45-.21.27-.58.49-.77.77-.08.21-.17.41-.25.62-.15.22-.39.61-.59.8-.1.05-.21.1-.31.15-.25.45-.5.91-.74,1.36-.44.55-.94,1.15-1.36,1.7-.36.47-.51,1.14-.93,1.55-.21.2-.5.4-.68.62-.05.17-.1.33-.15.5-.12.26-.38.61-.56.87-.22.32-.6.54-.84.84-.34.43-.46.97-.8,1.39-.21.26-.57.44-.77.71-.06.18-.12.35-.19.53-.14.14-.29.29-.43.43-.63.89-1.17,1.7-1.7,2.69-.37.7-1.08,1.28-1.49,1.95-.53.86-.94,1.57-1.61,2.26-.38.4-.45,1.1-.84,1.49-.24.24-.57.51-.77.77-.25.42-.5.85-.74,1.27-.39.52-1.01.96-1.36,1.52-.21.34-.27.57-.53.84v.03s.08.02.12.03c.79-.54,1.13-1.18,1.7-1.95.12-.16.34-.53.5-.65.09-.04.19-.08.28-.12.3-.35.43-.79.68-1.18.42-.65,1.06-1.23,1.49-1.86.53-.78.96-1.5,1.58-2.17.2-.22.5-1.06.68-1.36.24-.4.7-.75.93-1.15.26-.46.42-.85.71-1.3.28-.42.61-.89.93-1.3.17-.11.33-.23.5-.34.29-.38.4-.95.71-1.33.11-.05.23-.1.34-.15.15-.11.43-.56.53-.71.3-.47.45-.87.77-1.3.29-.33.58-.66.87-.99.06-.17.12-.33.19-.5.08-.11.21-.1.31-.19.07-.17.14-.33.22-.5.24-.38.66-.69.9-1.05.42-.63.75-1.56,1.27-2.07.1-.05.21-.1.31-.15.35-.43.44-1.02.8-1.42.23-.26.64-.53.8-.84.05-.17.1-.33.15-.5.1-.16.24-.18.37-.31.33-.31.43-.88.68-1.27.22-.35.66-.62.9-.96.06-.2.12-.39.19-.59.41-.69,1.01-1.33,1.45-1.98.27-.4.39-.78.65-1.21.22-.35.63-.61.93-.9.07-.19.14-.37.22-.56.27-.41.52-.87.8-1.3.2-.17.39-.33.59-.5.32-.49.39-1.03.71-1.52.24-.35.67-.65.9-.99.31-.46.42-1.01.77-1.42,1.02-1.16,1.81-2.56,2.85-3.71.1-.24.21-.47.31-.71.41-.59,1.02-1.13,1.39-1.73,1-1.63,2.02-3.14,3.19-4.58.09-.22.19-.43.28-.65.23-.35.64-.73.84-1.08.13-.24.12-.48.28-.68.21-.27.56-.46.77-.71.36-.43.41-1.1.8-1.49.22-.22.53-.39.71-.65.08-.22.17-.43.25-.65.4-.66.94-1.33,1.42-1.92.3-.36.43-.82.71-1.21.25-.35.63-.64.9-.96.32-.38.46-1.05.77-1.45.24-.31.63-.58.84-.9.47-.73.75-1.54,1.27-2.23.24-.31.65-.58.87-.9.05-.17.1-.33.15-.5.12-.24.38-.54.56-.77.26-.34.67-.66.9-1.02.26-.41.37-.78.59-1.21.21-.41.69-.72.96-1.08.33-.45.45-.97.77-1.42.41-.58,1.01-1.17,1.42-1.76.32-.46.4-1,.74-1.42.11-.06.23-.12.34-.19.17-.19.39-.6.5-.8.08-.21.17-.41.25-.62.62-.76,1.3-1.56,1.86-2.38.18-.27.18-.62.4-.84.61-.58.92-1.18,1.39-1.92.23-.36.68-.66.9-1.02.29-.47.41-1.02.71-1.49.23-.35.66-.65.9-.99.47-.67.75-1.43,1.21-2.1.25-.37.63-.68.9-1.02.33-.43.48-.95.8-1.36.12-.09.25-.19.37-.28.27-.37.37-.8.62-1.21.38-.63.99-1.3,1.45-1.86.32-.38.42-.89.71-1.3.09-.13.52-.77.62-.84.09-.03.19-.06.28-.09.25-.45.5-.91.74-1.36.21-.29.6-.52.8-.8.48-.67.77-1.37,1.24-2.04.32-.33.64-.66.96-.99.23-.34.31-.72.56-1.02.47-.58,1.03-1.19,1.49-1.8.12-.25.25-.5.37-.74.2-.28.54-.46.77-.71.29-.48.58-.97.87-1.45.2-.24.53-.42.74-.65.31-.34.41-.82.68-1.21.31-.31.62-.62.93-.93.47-.64.85-1.3,1.33-1.95.2-.26.56-.46.77-.71.27-.32.37-1.03.56-1.45.18-.21.35-.41.53-.62.34-.52.39-1.16.62-1.8.34-.95.98-1.86,1.45-2.69.04-.18.08-.35.12-.53.14-.19.29-.37.43-.56.06-.25.12-.5.19-.74.2-.37.56-.78.8-1.11.14-.2.09-.45.19-.71.13-.19.27-.37.4-.56.07-.27.14-.54.22-.8.17-.28.34-.75.56-1.02.1-.06.21-.12.31-.19.05-.22.1-.43.15-.65.13-.32.36-.74.56-1.08.23-.42.7-.8.93-1.21.28-.5.38-.86.62-1.39.36-.81,1.13-1.44,1.52-2.2.25-.48.32-.88.56-1.33.22-.42.68-.75.96-1.11.33-.42.51-1.05.8-1.52.24-.38.68-.72.9-1.08.3-.5.38-.98.68-1.49.17-.29.37-.68.59-.96.11-.07.23-.14.34-.22.35-.42.46-1.01.68-1.55.2-.48.6-.92.84-1.36,0-.31-.09-.64-.34-.71Z"/>
      <path class="cls-1" d="M1.8,363.51c.11-.12.23-.25.34-.37.05-.18.1-.35.15-.53.18-.31.58-.55.8-.84.34-.43.48-.98.8-1.42.12-.07.25-.14.37-.22.46-.55.77-1.56,1.18-2.2.24-.37.68-.6.96-.93.35-.41.47-.96.8-1.39.2-.26.57-.48.77-.74.32-.43.45-1.09.74-1.55.26-.4.67-.77.93-1.15.25-.45.5-.91.74-1.36,1.2-1.57,2.31-3.28,3.44-4.92.06-.22.12-.43.19-.65.19-.34.64-.64.87-.96.09-.22.19-.43.28-.65.28-.4.57-.86.87-1.27.19-.19.37-.37.56-.56.25-.44.36-.8.62-1.24.25-.41.71-.71.99-1.08.24-.45.47-.91.71-1.36.29-.34.58-.68.87-1.02.39-.72.7-1.47,1.18-2.14.25-.35.69-.65.93-1.02.27-.42.37-.83.62-1.27.23-.4.7-.71.96-1.08.32-.45.45-.96.77-1.42.32-.47.73-.89,1.08-1.36.26-.25.52-.5.77-.74.06-.26.12-.52.19-.77.1-.25.31-.26.46-.43.37-.42.4-1.02.71-1.52l.62-.62c.25-.32.48-.71.71-1.02.29-.38.45-1,.71-1.42.19-.32.44-.77.68-1.08.09-.06.19-.12.28-.19.32-.44.39-1.09.77-1.49.1-.05.21-.1.31-.15.51-.66.73-1.5,1.21-2.2.24-.35.63-.61.9-.93.33-.39.44-.92.71-1.36.38-.63.84-1.21,1.3-1.76.14-.3.29-.6.43-.9.12-.15.37-.57.53-.68.09-.04.19-.08.28-.12.46-.58.75-1.42,1.15-2.07.23-.39.66-.66.96-.99.29-.32.44-1.08.71-1.45.22-.3.59-.55.8-.87,1.07-1.54,2.16-3.08,3.28-4.55.55-.73.74-1.75,1.27-2.48.12-.08.25-.17.37-.25.31-.39.4-.91.68-1.33.12-.09.25-.19.37-.28.06-.2.12-.39.19-.59.21-.38.57-.63.87-.93.35-.34.45-.89.74-1.3.22-.32.64-.56.87-.87.05-.21.1-.41.15-.62.11-.23.39-.82.56-1.05.3-.31.6-.62.9-.93.17-.25.46-.58.56-.84.06-.19.12-.37.19-.56.2-.27.55-.48.74-.77.06-.19.12-.37.19-.56.1-.24.3-.29.43-.46.04-.18.08-.35.12-.53.2-.32.39-.64.59-.96.27-.31.64-.64.87-.99.07-.18.14-.35.22-.53.29-.33.58-.66.87-.99.14-.22.48-.78.56-.96.04-.17.08-.33.12-.5.4-.65,1.03-1.28,1.49-1.89.25-.34.4-.9.62-1.27.21-.29.41-.58.62-.87.09-.04.19-.08.28-.12.07-.2.14-.39.22-.59.13-.13.27-.27.4-.4.07-.18.14-.35.22-.53.94-1.39,1.95-2.81,2.94-4.15.06-.2.12-.39.19-.59.22-.32.43-.64.65-.96.1-.06.21-.12.31-.19.32-.41.4-.97.71-1.39.1-.07.21-.14.31-.22.08-.23.17-.45.25-.68.21-.32.56-.55.8-.84.06-.19.12-.37.19-.56.33-.57.71-1.31,1.11-1.86.12-.08.25-.17.37-.25.3-.35.38-.82.62-1.24.22-.39.71-.71.93-1.11.04-.17.08-.33.12-.5.17-.21.33-.41.5-.62.02-.12.04-.25.06-.37.35-.66,1-1.28,1.45-1.86.05-.21.1-.41.15-.62.12-.26.37-.67.56-.93.11-.08.23-.17.34-.25.05-.18.1-.35.15-.53.1-.11.21-.23.31-.34.36-.57.12-.67.68-1.18v-.8c-.02-.05-1.04-.88-1.11-.9-.13.33.06.83.12,1.21.08.53-.02,1.34-.19,1.73-.35.84-1.1,1.52-1.52,2.26-.07.2-.14.39-.22.59-.1.08-.21.17-.31.25-.05.19-.1.37-.15.56-.38.7-.95,1.31-1.39,1.95-.06.2-.12.39-.19.59-.2.39-.64.74-.9,1.08-.51.69-.79,1.49-1.24,2.23-.31.37-.62.74-.93,1.11-.47.78-.73,1.59-1.3,2.26-.1.05-.21.1-.31.15-.3.35-.45,1.05-.71,1.45-.41.64-1.02,1.22-1.42,1.86-.09.23-.19.45-.28.68-.41.56-.95,1.14-1.33,1.7-.25.38-.34.78-.59,1.15-.26.39-.66.72-.93,1.11-.08.22-.17.43-.25.65-.58.91-1.45,1.75-1.98,2.69-.24.42-.29.82-.56,1.21-.26.38-.66.76-.93,1.15-.08.22-.17.43-.25.65-.24.38-.68.69-.93,1.05-.47.69-.78,1.41-1.21,2.14-.21.36-.58.67-.84.99-.24.3-.42.93-.62,1.27-.25.43-.75.81-1.02,1.24-.22.44-.43.89-.65,1.33-.3.34-.6.68-.9,1.02-.1.25-.21.5-.31.74-.11.08-.23.17-.34.25-.25.32-.38.7-.62,1.02-.15.15-.31.31-.46.46-.42.7-.75,1.41-1.24,2.04-.11.07-.23.14-.34.22-.07.19-.14.37-.22.56-.25.41-.63.86-.84,1.3-.07.2-.14.39-.22.59-.25.34-.63.67-.87,1.02-.29.44-.41.88-.71,1.3-.25.35-.65.67-.9,1.02-.32.46-.43,1-.77,1.42-.22.27-.57.49-.77.77-.31.42-.47.86-.74,1.3-.3.34-.6.68-.9,1.02-.48.73-.75,1.57-1.3,2.23l-.31.12c-.2.17-.5.99-.65,1.27-.31.59-1.03,1.34-1.45,1.89-.33.43-.42.99-.74,1.42-.24.32-.6.61-.84.93-.23.46-.45.93-.68,1.39-.31.34-.62.68-.93,1.02-.32.44-.46.94-.74,1.39-.3.37-.6.74-.9,1.11-.42.74-.69,1.48-1.11,2.23-.12.22-.37.35-.53.53-.33.37-.4.8-.68,1.24-.23.36-.65.63-.9.96-.31.42-.39.94-.68,1.36-.13.12-.27.25-.4.37-.07.22-.14.43-.22.65-.19.26-.53.49-.77.71-.12.1-.55,1.12-.68,1.33-.11.18-.32.19-.43.34-.48.6-.78,1.34-1.15,2.04-.35.68-1.11,1.2-1.52,1.86-.29.46-.38.9-.68,1.33-.22.31-.8.87-.96,1.18-.06.2-.12.39-.19.59-.13.19-.43.7-.62.84-.09.04-.19.08-.28.12-.31.4-.39.92-.68,1.33-.1.08-.21.17-.31.25-.09.23-.19.45-.28.68-.21.34-.56.56-.84.84-.31.32-.41.87-.65,1.27-.23.39-.69.68-.93,1.08-.27.46-.34.92-.62,1.36-.26.42-.73.74-.99,1.15-.31.48-.45.97-.77,1.42-.28.34-.56.68-.84,1.02-.06.17-.12.33-.19.5-.12.11-.25.23-.37.34-.26.42-.36.82-.62,1.21-.12.09-.25.19-.37.28-.49.62-.8,1.39-1.18,2.1-.19.36-.59.68-.87.96-.1.24-.21.47-.31.71-.08.15-.26.19-.37.31-.08.19-.17.37-.25.56-.24.34-.61.63-.84.96-.24.42-.47.85-.71,1.27-.26.36-.65.67-.9,1.02-.3.42-.43,1.03-.77,1.42-.78.89-1.39,1.84-1.98,2.94-.11.2-.34.24-.46.4-.49.62-.82,1.54-1.08,2.35.01.03.02.06.03.09.1-.19.21-.37.31-.56.2-.28.49-.54.68-.8.33-.45.47-.97.77-1.42Z"/>
      <path class="cls-1" d="M1.02,367.85h.15c0-.3.09-.29.15-.5-.08.02-.17.04-.25.06-.12.09-.08.22-.06.43Z"/>
    </g>
  </g>
</svg>