<svg width="141" height="141" viewBox="0 0 141 141" fill="none" xmlns="http://www.w3.org/2000/svg">
<path d="M116.201 35.6725C115.136 35.6915 114.361 35.9292 113.877 36.3854C113.544 36.6991 113.463 37.0651 113.634 37.4833L114.447 39.5508C108.135 43.2579 103.592 47.7493 100.816 53.0248C100.626 53.3955 100.36 53.6997 100.018 53.9374L97.4512 55.7767C97.0234 56.0903 96.5624 56.3375 96.0681 56.5181C93.397 57.4877 91.534 59.3222 90.4789 62.0218C90.2793 62.5351 90.4456 62.8488 90.9779 62.9629C93.6489 63.5427 96.244 63.4286 98.7629 62.6206C99.2097 62.478 99.6612 62.421 100.117 62.4495L113.777 63.5189C114.033 64.9827 115.165 65.1729 117.17 64.0893L125.283 62.3497C125.673 62.2642 126.044 62.3117 126.395 62.4923L129.076 63.8326C129.147 63.869 129.227 63.8866 129.307 63.8837C129.387 63.8808 129.465 63.8577 129.533 63.8163C129.602 63.7749 129.659 63.7167 129.698 63.6472C129.738 63.5777 129.759 63.4991 129.76 63.4191V62.6492C129.76 61.9838 130.079 61.5655 130.716 61.3944C131.809 61.0997 132.726 60.577 133.468 59.826C133.869 59.4195 134.362 59.115 134.906 58.938C135.449 58.7611 136.027 58.7168 136.591 58.809C137.155 58.9011 137.688 59.1269 138.147 59.4676C138.606 59.8083 138.977 60.2538 139.228 60.7671C140.312 62.9913 139.413 66.7983 139.841 69.4504C140.497 73.5473 140.236 77.6156 139.057 81.6555C138.99 81.8836 139.004 82.3351 139.1 83.01C139.147 83.3047 139.023 83.4235 138.729 83.3665L133.738 82.3826C133.573 82.3458 133.427 82.2496 133.325 82.1117C130.797 78.5757 127.598 78.0149 123.729 80.4293C123.292 80.7049 122.893 80.6573 122.531 80.2866L121.505 79.2601C120.973 78.7278 120.526 78.7942 120.165 79.4596L119.808 80.1298C119.637 80.453 119.371 80.586 119.01 80.529C109.476 79.1222 99.8893 78.6089 90.2507 78.9892C89.8515 79.0082 89.7897 79.1603 90.0653 79.4454C97.8979 87.5537 105.783 95.6001 113.72 103.585C116.857 106.75 119.537 108.09 123.758 108.404C124.235 108.439 124.696 108.598 125.094 108.864C125.492 109.131 125.814 109.496 126.027 109.924C126.24 110.352 126.338 110.827 126.31 111.304C126.282 111.78 126.13 112.24 125.868 112.639L122.959 117.087C122.693 117.496 122.356 117.833 121.947 118.1C118.401 120.447 115.592 123.494 113.52 127.239C113.283 127.667 112.921 127.824 112.437 127.71L108.801 126.868C108.588 126.822 108.394 126.713 108.242 126.556C108.09 126.399 107.987 126.2 107.945 125.984L106.562 118.984C106.477 118.527 106.267 118.138 105.935 117.814L78.7301 90.9661C78.1502 90.3957 77.9268 90.5099 78.0599 91.3083C78.5637 94.4071 78.5162 97.5106 77.9173 100.619C77.8223 101.123 77.8793 101.603 78.0884 102.059C78.9344 103.903 78.9582 105.733 78.1597 107.548C77.9696 107.967 77.9411 108.399 78.0742 108.846L79.0152 112.225C79.0917 112.495 79.0923 112.779 79.0166 113.046C78.941 113.313 78.7923 113.553 78.5874 113.737C77.4373 114.782 77.5846 115.733 79.0294 116.588C79.1424 116.654 79.2399 116.743 79.3154 116.85C79.3909 116.957 79.4425 117.078 79.4668 117.207C79.4912 117.335 79.4877 117.468 79.4565 117.595C79.4253 117.721 79.3671 117.84 79.2861 117.943C77.1616 120.581 78.6872 127.396 78.5874 130.861C78.5831 131.076 78.6254 131.291 78.7114 131.49C78.7975 131.689 78.9254 131.868 79.0865 132.016C81.6102 134.383 83.6349 137.22 80.0133 140.029C79.633 140.333 79.2006 140.485 78.7158 140.485L60.5079 140.414C60.2715 140.412 60.0378 140.363 59.8209 140.268C59.604 140.174 59.4084 140.037 59.2459 139.865C59.0834 139.693 58.9574 139.49 58.8753 139.269C58.7933 139.047 58.7569 138.811 58.7685 138.574L58.968 134.183C58.9758 133.956 59.0563 133.739 59.1975 133.561C59.3388 133.384 59.5333 133.257 59.7523 133.199C61.4158 132.752 62.257 131.521 62.276 129.506C62.3425 118.204 62.4328 106.26 62.5469 93.6752C62.5659 91.4984 61.8055 91.1752 60.2656 92.7056L40.9028 111.94L38.7355 114.064C34.1016 118.755 34.0731 122.349 31.4068 127.139C31.1597 127.586 30.7842 127.762 30.2804 127.667C25.4326 126.74 17.7902 117.458 14.4537 113.679C14.102 113.29 14.0498 112.862 14.2969 112.396L16.5639 108.176C16.7039 107.913 16.9335 107.71 17.211 107.603C17.4884 107.495 17.7951 107.491 18.0753 107.591C21.1408 108.632 23.3651 108.504 25.6322 105.923C32.0104 98.6228 38.7214 91.641 45.7649 84.9777C47.0197 83.7895 48.2982 82.0499 49.6004 79.7591C49.8856 79.2553 49.7382 79.0081 49.1583 79.0176L17.562 79.4026C16.7826 79.0414 15.7084 79.0795 14.3396 79.5167C13.7028 79.0509 12.624 79.0319 11.1031 79.4596C8.39401 78.5091 6.48337 79.4692 5.37122 82.3398C3.69825 83.0432 2.32945 82.8056 1.26483 81.6269C0.922635 81.2562 0.751557 80.819 0.751557 80.3152L0.70874 61.2233C0.708962 60.819 0.812771 60.4214 1.01028 60.0686C1.2078 59.7157 1.49245 59.4193 1.83703 59.2077C2.18161 58.9961 2.57469 58.8763 2.97872 58.8597C3.38275 58.8432 3.78429 58.9304 4.14503 59.1131L9.36352 61.7366C9.71523 61.9172 10.086 62.0075 10.4757 62.0075C13.3559 61.9695 16.0459 62.7062 18.5459 64.2176C18.8976 64.4267 19.254 64.441 19.6152 64.2603L23.0372 62.5493C23.2939 62.4258 23.3889 62.5019 23.3223 62.7775C23.1037 63.69 23.56 64.1986 24.6912 64.3032C25.271 64.3602 25.7225 64.1415 26.0457 63.6473L26.8727 62.3497C26.9447 62.2401 27.0404 62.1483 27.1527 62.0811C27.265 62.0138 27.3908 61.9731 27.5203 61.9621C27.6498 61.9511 27.7796 61.97 27.8997 62.0174C28.0198 62.0649 28.1271 62.1396 28.213 62.2357L29.4107 63.5332C29.7243 63.8754 30.1093 64.0085 30.5656 63.9324C34.9476 63.2005 39.3439 63.1768 43.7545 63.8612C44.2107 63.9372 44.6385 63.8516 45.0378 63.6044L46.6061 62.6064C46.7876 62.4941 47.0047 62.4551 47.212 62.4976C47.4193 62.5402 47.6007 62.6608 47.7183 62.8345L49.1156 64.902C49.194 65.0143 49.3069 65.098 49.4372 65.1401C49.5676 65.1822 49.7082 65.1806 49.8375 65.1353C49.9668 65.0901 50.0777 65.0037 50.1533 64.8895C50.2289 64.7752 50.2651 64.6394 50.2562 64.5027C50.1517 62.7157 49.6716 61.4277 48.8161 60.6388C40.5083 52.9108 32.4904 44.8976 24.7624 36.5993C22.3385 33.99 20.4422 33.5195 17.12 34.3322C16.92 34.3832 16.7091 34.3753 16.5121 34.3097C16.3151 34.244 16.1401 34.1232 16.0078 33.9615C14.1162 31.6422 13.8406 29.1897 15.1809 26.6042C15.2933 26.3823 15.4712 26.2003 15.6905 26.083C15.9099 25.9656 16.1601 25.9186 16.4071 25.9484C19.1922 26.2906 20.5088 25.0216 20.3567 22.1414C20.3282 21.514 20.5658 21.0198 21.0696 20.6586L28.5409 15.1976C29.0352 14.8364 29.5723 14.7699 30.1521 14.998C32.6996 15.9866 33.6787 17.8829 33.0893 20.6871C33.0357 20.9373 33.0372 21.196 33.0938 21.4448C33.1505 21.6936 33.2609 21.9265 33.4172 22.1272C41.4161 32.4929 51.5966 41.2475 60.7361 50.6437C60.8964 50.8067 61.1025 50.9178 61.3271 50.9623C61.5517 51.0068 61.784 50.9824 61.9931 50.8926C62.2022 50.8028 62.3782 50.6516 62.4975 50.4594C62.6168 50.2672 62.6739 50.043 62.661 49.8167C61.9908 36.8845 62.4899 24.1091 62.2047 11.1625C62.1952 10.7063 62.0004 10.3593 61.6201 10.1217C59.3388 8.71486 58.2932 6.59514 58.4833 3.76249C58.5213 3.16365 58.8255 2.96401 59.3958 3.16363L61.1496 3.77677C61.2498 3.81051 61.3565 3.82005 61.4611 3.80466C61.5656 3.78926 61.6652 3.74935 61.7514 3.68817C61.8376 3.62699 61.908 3.54628 61.9571 3.45264C62.0062 3.359 62.0324 3.2551 62.0336 3.1494V1.69503C62.0336 1.1342 62.2997 0.948867 62.8321 1.13898L63.8729 1.52394C64.3767 1.71405 64.8758 1.70928 65.3701 1.50966C67.0621 0.81576 68.7493 0.887086 70.4317 1.72357C70.8104 1.90843 71.2427 1.95867 71.6579 1.86612L78.1027 0.525838C78.5685 0.430783 79.0057 0.502109 79.4144 0.739747C80.7452 1.5192 81.729 2.62181 82.3659 4.04763C82.537 4.45637 82.5179 4.85564 82.3088 5.24537L79.7852 9.85076C79.5285 10.3165 79.1863 10.711 78.7585 11.0342C77.884 11.6711 77.8555 12.3983 78.673 13.2157C78.8342 13.3823 78.939 13.5948 78.9723 13.8228C79.0056 14.0508 78.9657 14.2825 78.8583 14.4847C77.7082 16.6805 77.7415 18.8382 78.9582 20.958C79.2053 21.4047 79.2338 21.861 79.0437 22.3268C77.9126 25.1119 77.8651 27.8304 78.9012 30.4825C79.0818 30.9388 79.115 31.4093 79.001 31.894C78.2595 34.8978 78.3213 37.8635 79.1863 40.7912C79.3194 41.2665 79.2576 41.7133 79.001 42.1315C77.9839 43.8235 77.7985 45.5915 78.4449 47.4356C78.5875 47.8443 78.6207 48.2626 78.5447 48.6903L78.3451 49.8453C78.334 49.9205 78.3438 49.9974 78.3736 50.0674C78.4034 50.1374 78.4519 50.1979 78.5138 50.2421C78.5757 50.2863 78.6486 50.3126 78.7245 50.3181C78.8004 50.3235 78.8763 50.3079 78.9439 50.273L86.0873 46.466C86.458 46.2664 86.6434 45.9575 86.6434 45.5392C86.6576 39.7218 91.9047 40.8197 93.2164 36.8417C93.3685 36.3854 93.6442 36.0289 94.0434 35.7723C98.9911 32.4786 101.272 26.8181 106.961 24.993C107.18 24.917 107.294 24.7649 107.304 24.5368L107.703 16.6948C107.712 16.5445 107.755 16.3982 107.829 16.2672C107.903 16.1361 108.006 16.0239 108.131 15.9391C112.964 12.6026 122.802 24.9218 125.996 28.6717C126.338 29.0709 126.405 29.5082 126.196 29.9834C125.53 31.4663 125.416 32.9682 125.854 34.4891C126.025 35.0784 125.816 35.2875 125.226 35.1164C122.07 34.2134 119.062 34.3988 116.201 35.6725Z" fill="#030303"/>
</svg>
