<svg width="109" height="109" viewBox="0 0 109 109" fill="none" xmlns="http://www.w3.org/2000/svg">
<path d="M54.0883 104.784C81.9787 104.784 104.588 82.1745 104.588 54.2841C104.588 26.3938 81.9787 3.78415 54.0883 3.78415C26.198 3.78415 3.58833 26.3938 3.58833 54.2841C3.58833 82.1745 26.198 104.784 54.0883 104.784Z" stroke="black" stroke-width="7" stroke-miterlimit="10"/>
<path d="M54.0883 3.86969V104.784" stroke="black" stroke-width="7" stroke-miterlimit="10"/>
<path d="M54.0883 104.784C68.0335 104.784 79.3383 82.1745 79.3383 54.2841C79.3383 26.3938 68.0335 3.78415 54.0883 3.78415C40.1431 3.78415 28.8383 26.3938 28.8383 54.2841C28.8383 82.1745 40.1431 104.784 54.0883 104.784Z" stroke="black" stroke-width="7" stroke-miterlimit="10"/>
<path d="M3.67386 54.2841H104.588" stroke="black" stroke-width="7" stroke-miterlimit="10"/>
</svg>
