<svg width="102" height="103" viewBox="0 0 102 103" fill="none" xmlns="http://www.w3.org/2000/svg">
<g clip-path="url(#clip0_1_14)">
<mask id="mask0_1_14" style="mask-type:luminance" maskUnits="userSpaceOnUse" x="0" y="0" width="102" height="103">
<path d="M102 0.521927H0V102.522H102V0.521927Z" fill="white"/>
</mask>
<g mask="url(#mask0_1_14)">
<path fill-rule="evenodd" clip-rule="evenodd" d="M67.3894 84.4358C62.4403 92.6845 56.4555 96.4019 51 96.4019C45.5443 96.4019 39.5596 92.6845 34.6104 84.4358C29.7343 76.3089 26.52 64.6866 26.52 51.5219C26.52 38.3571 29.7343 26.735 34.6104 18.6082C39.5596 10.3596 45.5443 6.64193 51 6.64193C56.4555 6.64193 62.4403 10.3596 67.3894 18.6082C72.2655 26.735 75.48 38.3571 75.48 51.5219C75.48 64.6866 72.2655 76.3089 67.3894 84.4358ZM102 51.5219C102 23.3554 79.1663 0.521927 51 0.521927C22.8335 0.521927 0 23.3554 0 51.5219C0 79.6882 22.8335 102.522 51 102.522C79.1663 102.522 102 79.6882 102 51.5219ZM6.12 51.5219C6.12 69.8462 17.1016 85.6052 32.8426 92.5769C25.2951 83.2893 20.4 68.3586 20.4 51.5219C20.4 34.6854 25.2951 19.7544 32.8426 10.4667C17.1016 17.4387 6.12 33.1978 6.12 51.5219ZM95.88 51.5219C95.88 69.8462 84.8982 85.6052 69.1575 92.5769C76.705 83.2893 81.6 68.3586 81.6 51.5219C81.6 34.6854 76.705 19.7544 69.1575 10.4667C84.8982 17.4387 95.88 33.1978 95.88 51.5219ZM51 57.1319C54.0982 57.1319 56.61 54.6202 56.61 51.5219C56.61 48.4236 54.0982 45.9119 51 45.9119C47.9017 45.9119 45.39 48.4236 45.39 51.5219C45.39 54.6202 47.9017 57.1319 51 57.1319Z" fill="#0A0A0A"/>
</g>
</g>
<defs>
<clipPath id="clip0_1_14">
<rect width="102" height="102" fill="white" transform="translate(0 0.521927)"/>
</clipPath>
</defs>
</svg>
