<svg width="101" height="102" viewBox="0 0 101 102" fill="none" xmlns="http://www.w3.org/2000/svg">
<g clip-path="url(#clip0_1_30)">
<mask id="mask0_1_30" style="mask-type:luminance" maskUnits="userSpaceOnUse" x="0" y="0" width="101" height="102">
<path d="M101 0H0V102H101V0Z" fill="white"/>
</mask>
<g mask="url(#mask0_1_30)">
<path fill-rule="evenodd" clip-rule="evenodd" d="M60.6 7.28571C60.6 3.26192 57.37 0 53.3856 0H47.6143C43.6299 0 40.4 3.26193 40.4 7.28571V8.78572C40.4 15.2766 32.6292 18.5272 28.0845 13.9375L27.0342 12.8768C24.2168 10.0316 19.649 10.0316 16.8316 12.8768L12.7506 16.9982C9.93325 19.8435 9.93325 24.4565 12.7506 27.3018L13.8009 28.3625C18.3456 32.9523 15.1269 40.8 8.69963 40.8H7.21428C3.22994 40.8 0 44.0619 0 48.0857V53.9141C0 57.938 3.22994 61.2 7.21428 61.2H8.69958C15.1269 61.2 18.3456 69.0479 13.8009 73.6374L12.7506 74.6982C9.93325 77.5435 9.93325 82.1564 12.7506 85.0017L16.8316 89.123C19.649 91.9683 24.2168 91.9683 27.0342 89.123L28.0845 88.0622C32.6292 83.4727 40.4 86.7235 40.4 93.2142V94.7141C40.4 98.738 43.6299 102 47.6143 102H53.3856C57.37 102 60.6 98.738 60.6 94.7141V93.2142C60.6 86.7235 68.3709 83.4727 72.9154 88.0622L73.9658 89.123C76.7832 91.9683 81.351 91.9683 84.1683 89.123L88.2493 85.0017C91.0667 82.1564 91.0667 77.5435 88.2493 74.6982L87.1994 73.6374C82.6544 69.0479 85.8732 61.2 92.3004 61.2H93.7856C97.77 61.2 101 57.938 101 53.9141V48.0857C101 44.0619 97.77 40.8 93.7856 40.8H92.3004C85.8732 40.8 82.6544 32.9523 87.1989 28.3625L88.2493 27.3018C91.0667 24.4565 91.0667 19.8435 88.2493 16.9982L84.1683 12.8768C81.351 10.0315 76.7832 10.0315 73.9658 12.8768L72.9154 13.9375C68.3709 18.5272 60.6 15.2766 60.6 8.78572V7.28571Z" fill="#0A0A0A"/>
</g>
</g>
<defs>
<clipPath id="clip0_1_30">
<rect width="101" height="102" fill="white"/>
</clipPath>
</defs>
</svg>
