<svg width="102" height="102" viewBox="0 0 102 102" fill="none" xmlns="http://www.w3.org/2000/svg">
<mask id="mask0_1_39" style="mask-type:luminance" maskUnits="userSpaceOnUse" x="0" y="0" width="102" height="102">
<path d="M102 0H0V102H102V0Z" fill="white"/>
</mask>
<g mask="url(#mask0_1_39)">
<path fill-rule="evenodd" clip-rule="evenodd" d="M51.818 0.438411C51.4218 -0.222065 50.4646 -0.222065 50.0684 0.438412L40.4488 16.4772C40.1869 16.9138 39.6432 17.0904 39.1747 16.8911L21.9649 9.56983C21.2562 9.26832 20.4818 9.83095 20.5495 10.5981L22.1944 29.228C22.2392 29.7352 21.9032 30.1976 21.407 30.3118L3.18061 34.5044C2.43005 34.6771 2.13427 35.5874 2.64 36.1683L14.9211 50.2733C15.2554 50.6573 15.2554 51.229 14.9211 51.613L2.64 65.7181C2.13427 66.299 2.43005 67.2093 3.18062 67.3817L21.407 71.5744C21.9032 71.6886 22.2392 72.1512 22.1944 72.6582L20.5495 91.2879C20.4818 92.0555 21.2562 92.618 21.9649 92.3166L39.1747 84.9951C39.6432 84.7956 40.1869 84.9726 40.4488 85.4092L50.0684 101.448C50.4646 102.109 51.4218 102.108 51.818 101.448L61.4377 85.4092C61.6993 84.9726 62.243 84.7956 62.7116 84.9951L79.9216 92.3166C80.63 92.618 81.4047 92.0555 81.3368 91.2879L79.6921 72.6582C79.6472 72.1512 79.9833 71.6886 80.4795 71.5744L98.7059 67.3817C99.4561 67.2093 99.7519 66.299 99.2465 65.7181L86.9652 51.613C86.6312 51.229 86.6312 50.6573 86.9652 50.2733L99.2465 36.1683C99.7519 35.5874 99.4561 34.6771 98.7059 34.5044L80.4795 30.3118C79.9833 30.1976 79.6472 29.7352 79.6921 29.228L81.3368 10.5981C81.4047 9.83095 80.63 9.26832 79.9216 9.56983L62.7116 16.8911C62.243 17.0904 61.6993 16.9138 61.4377 16.4772L51.818 0.438411ZM51 76.5C65.0832 76.5 76.5 65.0831 76.5 51C76.5 36.9167 65.0832 25.5 51 25.5C36.9168 25.5 25.5 36.9167 25.5 51C25.5 65.0831 36.9168 76.5 51 76.5Z" fill="#0A0A0A"/>
</g>
</svg>
