<svg width="101" height="103" viewBox="0 0 101 103" fill="none" xmlns="http://www.w3.org/2000/svg">
<g clip-path="url(#clip0_1_52)">
<mask id="mask0_1_52" style="mask-type:luminance" maskUnits="userSpaceOnUse" x="0" y="0" width="101" height="103">
<path d="M101 0.609589H0V102.61H101V0.609589Z" fill="white"/>
</mask>
<g mask="url(#mask0_1_52)">
<path d="M50.5 0.609589L51.8458 38.6758L60.9995 1.72406L54.4794 39.2411L71.0404 5.01877L56.9387 40.347L80.1834 10.3497L59.1168 41.945L88.0286 17.4839L60.9181 43.9655L94.2345 26.1096L62.264 46.32L98.5285 35.8497L63.0962 48.9057L100.723 46.2786L63.3775 51.6096L100.723 56.9406L63.0962 54.3136L98.5285 67.3696L62.264 56.8993L94.2345 77.1096L60.9181 59.254L88.0286 85.7352L59.1168 61.2741L80.1834 92.8696L56.9387 62.8724L71.0404 98.2006L54.4794 63.9781L60.9995 101.495L51.8458 64.5432L50.5 102.61L49.1539 64.5432L40.0004 101.495L46.5206 63.9781L29.9598 98.2006L44.0612 62.8724L20.8169 92.8696L41.8833 61.2741L12.9712 85.7352L40.0819 59.254L6.76573 77.1096L38.7358 56.8993L2.47164 67.3696L37.9039 54.3136L0.276642 56.9406L37.6225 51.6096L0.276642 46.2786L37.9039 48.9057L2.47164 35.8497L38.7358 46.32L6.76573 26.1096L40.0819 43.9655L12.9712 17.4839L41.8833 41.945L20.8169 10.3497L44.0612 40.347L29.9598 5.01877L46.5206 39.2411L40.0004 1.72406L49.1539 38.6758L50.5 0.609589Z" fill="#0A0A0A"/>
</g>
</g>
<defs>
<clipPath id="clip0_1_52">
<rect width="101" height="102" fill="white" transform="translate(0 0.609589)"/>
</clipPath>
</defs>
</svg>
