<svg width="102" height="102" viewBox="0 0 102 102" fill="none" xmlns="http://www.w3.org/2000/svg">
<g clip-path="url(#clip0_1_76)">
<mask id="mask0_1_76" style="mask-type:luminance" maskUnits="userSpaceOnUse" x="0" y="0" width="102" height="102">
<path d="M102 0H0V102H102V0Z" fill="white"/>
</mask>
<g mask="url(#mask0_1_76)">
<path fill-rule="evenodd" clip-rule="evenodd" d="M54.5562 44.6762C52.9967 47.4496 49.0035 47.4496 47.4438 44.6762L25.739 6.07986C24.2095 3.36014 26.1749 4.06777e-06 29.2952 2.89331e-06L72.7046 0C75.8253 -2.72785e-07 77.7903 3.36013 76.2608 6.07986L54.5562 44.6762ZM44.6762 54.5562C47.4496 52.9966 47.4496 49.0034 44.6762 47.4437L6.07987 25.7389C3.36013 24.2095 2.03388e-06 26.1749 1.89751e-06 29.2952L0 72.7046C-1.36374e-07 75.8253 3.36014 77.7903 6.07987 76.2608L44.6762 54.5562ZM54.5562 57.324C52.9967 54.5501 49.0035 54.5506 47.4438 57.324L25.739 95.9203C24.2096 98.6401 26.1749 102 29.2952 102H72.7046C75.8253 102 77.7903 98.6396 76.2608 95.9203L54.5562 57.324ZM57.324 47.4438C54.5501 49.0035 54.5501 52.9966 57.324 54.5562L95.9203 76.2608C98.6401 77.7903 102 75.8253 102 72.7046V29.2953C102 26.175 98.6396 24.2095 95.9203 25.739L57.324 47.4438Z" fill="#0A0A0A"/>
</g>
</g>
<defs>
<clipPath id="clip0_1_76">
<rect width="102" height="102" fill="white"/>
</clipPath>
</defs>
</svg>
