<svg width="101" height="101" viewBox="0 0 101 101" fill="none" xmlns="http://www.w3.org/2000/svg">
<g clip-path="url(#clip0_1_96)">
<mask id="mask0_1_96" style="mask-type:luminance" maskUnits="userSpaceOnUse" x="0" y="0" width="101" height="101">
<path d="M101 0H0V101H101V0Z" fill="white"/>
</mask>
<g mask="url(#mask0_1_96)">
<path fill-rule="evenodd" clip-rule="evenodd" d="M29.6223 74.6319C28.9591 73.1982 27.8037 72.0428 26.3697 71.3792C15.209 66.2171 6.37997 58.7729 1.66721 54.3087C-0.555742 52.2029 -0.555732 48.7988 1.66721 46.693C6.37997 42.2286 15.209 34.7844 26.3697 29.6223C27.8037 28.9591 28.9591 27.8037 29.6223 26.3697C34.7845 15.209 42.2286 6.37997 46.693 1.66721C48.7988 -0.555739 52.2029 -0.555734 54.3087 1.66721C58.7729 6.37997 66.2171 15.209 71.3792 26.3697C72.0428 27.8037 73.1982 28.9591 74.6319 29.6223C85.7929 34.7844 94.6218 42.2286 99.3345 46.693C101.558 48.7988 101.558 52.2029 99.3345 54.3087C94.6218 58.7729 85.7929 66.2171 74.6319 71.3792C73.1982 72.0428 72.0428 73.1982 71.3792 74.6319C66.2171 85.7929 58.7729 94.6218 54.3087 99.3345C52.2029 101.558 48.7988 101.558 46.693 99.3345C42.2286 94.6218 34.7845 85.7929 29.6223 74.6319ZM50.501 69.0643C60.753 69.0643 69.0643 60.753 69.0643 50.501C69.0643 40.2486 60.753 31.9375 50.501 31.9375C40.2487 31.9375 31.9376 40.2486 31.9376 50.501C31.9376 60.753 40.2487 69.0643 50.501 69.0643Z" fill="#0A0A0A"/>
</g>
</g>
<defs>
<clipPath id="clip0_1_96">
<rect width="101" height="101" fill="white"/>
</clipPath>
</defs>
</svg>
