<svg width="100" height="106" viewBox="0 0 100 106" fill="none" xmlns="http://www.w3.org/2000/svg">
<path d="M50.069 103.784C64.025 103.784 75.3387 92.4705 75.3387 78.5145C75.3387 64.5584 64.025 53.2448 50.069 53.2448C36.1129 53.2448 24.7993 64.5584 24.7993 78.5145C24.7993 92.4705 36.1129 103.784 50.069 103.784Z" stroke="black" stroke-width="4" stroke-miterlimit="10"/>
<path d="M50.069 53.3235C64.025 53.3235 75.3387 42.0099 75.3387 28.0538C75.3387 14.0978 64.025 2.78415 50.069 2.78415C36.1129 2.78415 24.7993 14.0978 24.7993 28.0538C24.7993 42.0099 36.1129 53.3235 50.069 53.3235Z" stroke="black" stroke-width="4" stroke-miterlimit="10"/>
<path d="M71.9536 65.9191C85.9097 65.9191 97.2233 54.6055 97.2233 40.6494C97.2233 26.6934 85.9097 15.3797 71.9536 15.3797C57.9976 15.3797 46.684 26.6934 46.684 40.6494C46.684 54.6055 57.9976 65.9191 71.9536 65.9191Z" stroke="black" stroke-width="4" stroke-miterlimit="10"/>
<path d="M28.2631 91.1886C42.2192 91.1886 53.5328 79.875 53.5328 65.9189C53.5328 51.9628 42.2192 40.6492 28.2631 40.6492C14.3071 40.6492 2.99347 51.9628 2.99347 65.9189C2.99347 79.875 14.3071 91.1886 28.2631 91.1886Z" stroke="black" stroke-width="4" stroke-miterlimit="10"/>
<path d="M28.2631 65.9191C42.2192 65.9191 53.5328 54.6055 53.5328 40.6494C53.5328 26.6934 42.2192 15.3797 28.2631 15.3797C14.3071 15.3797 2.99347 26.6934 2.99347 40.6494C2.99347 54.6055 14.3071 65.9191 28.2631 65.9191Z" stroke="black" stroke-width="4" stroke-miterlimit="10"/>
<path d="M71.9536 91.1886C85.9097 91.1886 97.2233 79.875 97.2233 65.9189C97.2233 51.9628 85.9097 40.6492 71.9536 40.6492C57.9976 40.6492 46.684 51.9628 46.684 65.9189C46.684 79.875 57.9976 91.1886 71.9536 91.1886Z" stroke="black" stroke-width="4" stroke-miterlimit="10"/>
</svg>
