<svg width="111" height="102" viewBox="0 0 111 102" fill="none" xmlns="http://www.w3.org/2000/svg">
<path d="M103.993 63.6092C99.5999 59.2161 93.7425 57.0195 87.9664 57.1009C84.5496 57.1009 81.4582 55.3111 79.7498 52.3824L74.8686 44.0031C73.1602 41.0743 73.1602 37.4134 74.8686 34.4847C79.9125 25.9426 78.7735 14.7159 71.3704 7.31274C62.6656 -1.39205 48.5101 -1.39205 39.724 7.31274C32.3208 14.7159 31.1819 25.8613 36.2258 34.4847C37.9343 37.4134 37.9343 41.0743 36.2258 44.0031L31.3447 52.3824C29.6362 55.3111 26.5448 57.1822 23.128 57.1009C17.3519 57.0195 11.4944 59.2161 7.10137 63.6092C-1.60341 72.3139 -1.60341 86.4694 7.10137 95.2556C15.8062 103.96 29.9616 103.96 38.7478 95.2556C40.2121 93.7912 41.4324 92.1641 42.4087 90.4557C44.1171 87.527 47.2085 85.6558 50.6253 85.6558H60.3064C63.7232 85.6558 66.8959 87.4456 68.523 90.4557C69.4992 92.1641 70.7195 93.7912 72.1839 95.2556C80.8887 103.96 95.0442 103.96 103.83 95.2556C112.698 86.4694 112.698 72.3139 103.993 63.6092ZM42.3273 58.4839L47.2085 50.1045C48.9169 47.0945 52.0896 45.386 55.5878 45.386C55.6692 45.386 55.7506 45.386 55.8319 45.386C59.2488 45.386 62.4216 47.1758 64.2113 50.1045L69.0925 58.4839C70.801 61.4126 70.8009 65.0735 69.0111 68.0022C68.9298 68.0836 68.9298 68.1649 68.9298 68.2463C67.2214 71.2564 64.0486 73.1275 60.6318 73.1275H50.9507C47.5339 73.1275 44.3612 71.2564 42.6528 68.2463C42.6528 68.1649 42.5713 68.0836 42.5713 68.0022C40.6189 65.1549 40.6189 61.494 42.3273 58.4839Z" fill="#0F0F0F"/>
</svg>
