<svg width="102" height="102" viewBox="0 0 102 102" fill="none" xmlns="http://www.w3.org/2000/svg">
<mask id="mask0_1_59" style="mask-type:luminance" maskUnits="userSpaceOnUse" x="0" y="0" width="102" height="102">
<path d="M101.999 0H0.486603V101.512H101.999V0Z" fill="white"/>
</mask>
<g mask="url(#mask0_1_59)">
<path fill-rule="evenodd" clip-rule="evenodd" d="M51.2428 101.512C79.2744 101.512 101.999 78.7878 101.999 50.7562C101.999 22.7243 79.2744 0 51.2428 0C23.2109 0 0.486603 22.7243 0.486603 50.7562C0.486603 78.7878 23.2109 101.512 51.2428 101.512ZM51.2428 72.962C63.5065 72.962 73.4486 63.0199 73.4486 50.7562C73.4486 38.4922 63.5065 28.5504 51.2428 28.5504C38.9788 28.5504 29.037 38.4922 29.037 50.7562C29.037 63.0199 38.9788 72.962 51.2428 72.962Z" fill="#0A0A0A"/>
</g>
</svg>
