<svg width="110" height="99" viewBox="0 0 110 99" fill="none" xmlns="http://www.w3.org/2000/svg">
<path d="M48.788 97.7588L81.7046 98.2679L76.9694 86.7063L56.2768 86.3833L46.3082 67.5245L32.6992 67.311L48.788 97.7588Z" fill="#0B0B0B"/>
<path d="M9.28571 69.0464L25.0296 97.9613L32.7702 88.1515L22.8728 69.977L34.3961 52.0215L27.8872 40.0712L9.28571 69.0464Z" fill="#0B0B0B"/>
<path d="M17.0318 19.7616L0.499573 48.2332L12.9042 49.7495L23.2943 31.8542L44.622 32.3743L51.4539 20.6047L17.0318 19.7616Z" fill="#0B0B0B"/>
<path d="M100.919 33.9619L85.7117 4.76227L77.7905 14.4298L87.3485 32.7849L75.5023 50.5215L81.7867 62.5922L100.919 33.9619Z" fill="#0B0B0B"/>
<path d="M93.1293 80.2192L109.749 51.7969L97.35 50.2422L86.9051 68.1047L65.5829 67.5244L58.7127 79.2722L93.1293 80.2192Z" fill="#0B0B0B"/>
<path d="M62.4188 1.36267L29.5131 0.267822L34.0458 11.917L54.7275 12.6013L64.3567 31.6353L77.9602 32.0896L62.4188 1.36267Z" fill="#0B0B0B"/>
</svg>
