<svg width="118" height="115" viewBox="0 0 118 115" fill="none" xmlns="http://www.w3.org/2000/svg">
<path d="M67.2476 106.593C94.6777 106.593 116.914 84.3561 116.914 56.926C116.914 29.4959 94.6777 7.25946 67.2476 7.25946C39.8175 7.25946 17.581 29.4959 17.581 56.926C17.581 84.3561 39.8175 106.593 67.2476 106.593Z" stroke="#0B0B0B" stroke-miterlimit="10"/>
<path d="M64.3899 103.73C90.2389 103.73 111.194 82.7751 111.194 56.9261C111.194 31.0771 90.2389 10.1223 64.3899 10.1223C38.5408 10.1223 17.5861 31.0771 17.5861 56.9261C17.5861 82.7751 38.5408 103.73 64.3899 103.73Z" stroke="#0B0B0B" stroke-miterlimit="10"/>
<path d="M61.3531 101.056C85.525 101.056 105.12 81.4607 105.12 57.2888C105.12 33.1169 85.525 13.5217 61.3531 13.5217C37.1812 13.5217 17.5861 33.1169 17.5861 57.2888C17.5861 81.4607 37.1812 101.056 61.3531 101.056Z" stroke="#0B0B0B" stroke-miterlimit="10"/>
<path d="M86.2725 86.2126C101.986 70.4985 101.986 45.0211 86.2725 29.3071C70.5584 13.5931 45.081 13.5931 29.367 29.3071C13.653 45.0211 13.653 70.4986 29.367 86.2126C45.081 101.927 70.5585 101.927 86.2725 86.2126Z" stroke="#0B0B0B" stroke-miterlimit="10"/>
<path d="M54.2707 94.4357C74.531 94.4357 90.9553 78.0114 90.9553 57.7511C90.9553 37.4907 74.531 21.0665 54.2707 21.0665C34.0103 21.0665 17.5861 37.4907 17.5861 57.7511C17.5861 78.0114 34.0103 94.4357 54.2707 94.4357Z" stroke="#0B0B0B" stroke-miterlimit="10"/>
<path d="M51.0648 90.0916C69.5574 90.0916 84.5487 75.2427 84.5487 56.9258C84.5487 38.6089 69.5574 23.7601 51.0648 23.7601C32.5722 23.7601 17.581 38.6089 17.581 56.9258C17.581 75.2427 32.5722 90.0916 51.0648 90.0916Z" stroke="#0B0B0B" stroke-miterlimit="10"/>
<path d="M67.506 74.2569C76.9157 74.2569 84.5437 66.7001 84.5437 57.3783C84.5437 48.0566 76.9157 40.4998 67.506 40.4998C58.0964 40.4998 50.4684 48.0566 50.4684 57.3783C50.4684 66.7001 58.0964 74.2569 67.506 74.2569Z" stroke="#0B0B0B" stroke-miterlimit="10"/>
<path d="M70.4683 71.3247C78.2447 71.3247 84.5487 65.0807 84.5487 57.3785C84.5487 49.6762 78.2447 43.4323 70.4683 43.4323C62.6919 43.4323 56.3879 49.6762 56.3879 57.3785C56.3879 65.0807 62.6919 71.3247 70.4683 71.3247Z" stroke="#0B0B0B" stroke-miterlimit="10"/>
<path d="M73.4056 67.9596C79.557 67.9596 84.5437 63.0197 84.5437 56.9259C84.5437 50.8322 79.557 45.8922 73.4056 45.8922C67.2542 45.8922 62.2675 50.8322 62.2675 56.9259C62.2675 63.0197 67.2542 67.9596 73.4056 67.9596Z" stroke="#0B0B0B" stroke-miterlimit="10"/>
<path d="M64.4643 77.2688C75.5538 77.2688 84.5437 68.3635 84.5437 57.3783C84.5437 46.3931 75.5538 37.4878 64.4643 37.4878C53.3748 37.4878 44.3849 46.3931 44.3849 57.3783C44.3849 68.3635 53.3748 77.2688 64.4643 77.2688Z" stroke="#0B0B0B" stroke-miterlimit="10"/>
<path d="M61.8053 79.9035C74.3633 79.9035 84.5437 69.8188 84.5437 57.3788C84.5437 44.9388 74.3633 34.8541 61.8053 34.8541C49.2472 34.8541 39.0669 44.9388 39.0669 57.3788C39.0669 69.8188 49.2472 79.9035 61.8053 79.9035Z" stroke="#0B0B0B" stroke-miterlimit="10"/>
<path d="M59.1165 82.567C73.1623 82.567 84.5487 71.2897 84.5487 57.3784C84.5487 43.467 73.1623 32.1897 59.1165 32.1897C45.0707 32.1897 33.6843 43.467 33.6843 57.3784C33.6843 71.2897 45.0707 82.567 59.1165 82.567Z" stroke="#0B0B0B" stroke-miterlimit="10"/>
<path d="M56.2238 85.4348C71.8645 85.4348 84.5437 72.8735 84.5437 57.3783C84.5437 41.8832 71.8645 29.3219 56.2238 29.3219C40.5832 29.3219 27.904 41.8832 27.904 57.3783C27.904 72.8735 40.5832 85.4348 56.2238 85.4348Z" stroke="#0B0B0B" stroke-miterlimit="10"/>
<path d="M53.2915 88.228C70.5544 88.228 84.5487 74.365 84.5487 57.264C84.5487 40.1631 70.5544 26.3 53.2915 26.3C36.0286 26.3 22.0343 40.1631 22.0343 57.264C22.0343 74.365 36.0286 88.228 53.2915 88.228Z" stroke="#0B0B0B" stroke-miterlimit="10"/>
</svg>
