<svg width="175" height="175" viewBox="0 0 175 175" fill="none" xmlns="http://www.w3.org/2000/svg">
<path d="M81.1056 7.63554C82.2017 5.34942 83.8545 2.31169 86.2137 1.01379C93.7262 -3.12698 99.6173 24.39 100.317 28.2385C100.32 28.2558 100.319 28.2736 100.314 28.2907C100.31 28.3077 100.302 28.3235 100.29 28.3371C100.279 28.3507 100.265 28.3616 100.249 28.3692C100.233 28.3768 100.216 28.3809 100.198 28.3811H75.225C75.0278 28.3811 74.9478 28.2849 74.9849 28.0923C76.342 21.2862 78.0957 13.9232 81.1056 7.63554Z" fill="black"/>
<path d="M80.8481 1.53231C79.0874 3.90194 77.8069 6.60562 76.77 9.35802C74.4989 15.3662 72.7742 21.5785 71.5958 27.995C71.547 28.2525 71.3916 28.3812 71.1295 28.3812H48.1708C48.1436 28.381 48.1169 28.3738 48.0933 28.3601C48.0697 28.3465 48.0501 28.3269 48.0364 28.3034C48.0227 28.2799 48.0154 28.2531 48.0151 28.2259C48.0149 28.1987 48.0218 28.1718 48.0351 28.1481C55.318 15.5866 66.0771 4.61875 80.6881 1.28526C80.7194 1.27803 80.7522 1.28062 80.782 1.29269C80.8118 1.30475 80.8372 1.3257 80.8547 1.35269C80.8721 1.37968 80.8809 1.4114 80.8797 1.44353C80.8786 1.47567 80.8675 1.50667 80.8481 1.53231Z" fill="black"/>
<path d="M94.9928 1.29215C109.503 5.09888 120.192 15.6109 127.28 28.1689C127.359 28.3104 127.317 28.3811 127.155 28.3811H104.102C104.007 28.3815 103.914 28.3473 103.84 28.2848C103.767 28.2224 103.718 28.1356 103.702 28.0401C102.568 21.3987 100.768 14.9289 98.3019 8.63071C97.3311 6.14277 96.1098 3.84969 94.6553 1.7793C94.3235 1.30839 94.436 1.14601 94.9928 1.29215Z" fill="black"/>
<path d="M66.1675 3.65137C56.856 9.51109 49.6183 18.3459 44.1483 28.2385C44.1241 28.2818 44.0888 28.3179 44.046 28.343C44.0031 28.3681 43.9544 28.3813 43.9048 28.3812H24.3388C24.3132 28.3807 24.2883 28.3728 24.2671 28.3585C24.2459 28.3441 24.2293 28.3239 24.2194 28.3004C24.2094 28.2768 24.2065 28.2508 24.2111 28.2256C24.2156 28.2005 24.2273 28.1771 24.2448 28.1585C35.7995 15.9357 49.7227 7.64948 66.0144 3.29993C66.8379 3.08187 66.8889 3.19902 66.1675 3.65137Z" fill="black"/>
<path d="M108.81 3.17813C124.869 7.34674 139.81 15.9171 151.029 28.1167C151.05 28.139 151.064 28.167 151.07 28.1973C151.075 28.2276 151.071 28.2587 151.059 28.2869C151.047 28.3151 151.026 28.3391 151.001 28.3559C150.975 28.3726 150.945 28.3814 150.914 28.3812H131.512C131.437 28.3811 131.363 28.3611 131.299 28.3231C131.235 28.2852 131.182 28.2307 131.146 28.1654C125.725 18.3041 118.324 9.38233 108.723 3.38691C108.701 3.37236 108.684 3.35026 108.676 3.3245C108.668 3.29873 108.669 3.27094 108.679 3.24602C108.69 3.22109 108.708 3.20063 108.732 3.18821C108.756 3.1758 108.784 3.17223 108.81 3.17813Z" fill="black"/>
<path d="M0.865184 85.2802C1.57155 65.4637 8.34641 47.1399 20.9253 31.9409C20.969 31.8885 21.0235 31.8465 21.0848 31.8176C21.1461 31.7887 21.2128 31.7738 21.2802 31.7738H41.8971C42.0618 31.7738 42.1093 31.8492 42.0398 32C34.1851 48.7951 30.202 66.4925 30.0907 85.0923C30.0898 85.256 30.0241 85.4127 29.908 85.5281C29.792 85.6435 29.635 85.7082 29.4713 85.7082H1.27926C0.993931 85.7082 0.855905 85.5656 0.865184 85.2802Z" fill="black"/>
<path d="M33.4242 85.3951C33.6852 66.873 37.5441 48.4726 45.8744 32.0104C45.9099 31.9394 45.9645 31.8796 46.0321 31.8378C46.0997 31.796 46.1777 31.7738 46.2571 31.7738H70.6146C70.7352 31.7738 70.7944 31.833 70.7921 31.9513C70.7747 32.7133 70.5033 33.6459 70.4267 34.1504C67.8402 51.1543 66.5724 68.2764 66.6235 85.5169C66.6235 85.5676 66.6037 85.6163 66.5684 85.6522C66.5332 85.6881 66.4854 85.7082 66.4356 85.7082H33.7304C33.5217 85.7082 33.4196 85.6039 33.4242 85.3951Z" fill="black"/>
<path d="M74.261 31.9269C74.2795 31.8249 74.3398 31.7738 74.4419 31.7738H100.877C100.92 31.7739 100.963 31.7892 100.997 31.8172C101.03 31.8451 101.053 31.8839 101.061 31.9269C104.102 49.5548 105.282 67.4332 105.338 85.4299C105.34 85.6155 105.247 85.7082 105.059 85.7082H70.2733C70.0854 85.7082 69.9915 85.6131 69.9915 85.4229C70.0019 67.5167 71.2267 49.513 74.261 31.9269Z" fill="black"/>
<path d="M104.534 31.8956C104.531 31.8805 104.532 31.8651 104.536 31.8503C104.54 31.8356 104.548 31.8219 104.558 31.8103C104.568 31.7987 104.58 31.7894 104.594 31.7831C104.608 31.7768 104.623 31.7736 104.638 31.7738H128.978C129.085 31.7739 129.19 31.8035 129.281 31.8594C129.372 31.9153 129.445 31.9953 129.493 32.0905C137.796 48.577 141.742 67.3149 141.898 85.503C141.898 85.6398 141.83 85.7082 141.693 85.7082H108.995C108.956 85.7082 108.917 85.7006 108.881 85.6857C108.845 85.6708 108.812 85.6489 108.784 85.6214C108.757 85.5939 108.735 85.5613 108.721 85.5254C108.706 85.4895 108.699 85.4512 108.699 85.4125C108.759 67.4575 107.371 49.6186 104.534 31.8956Z" fill="black"/>
<path d="M154.345 31.9235C166.973 46.9485 173.828 65.6864 174.444 85.3881C174.451 85.6015 174.347 85.7082 174.134 85.7082H145.601C145.512 85.7082 145.427 85.6732 145.363 85.6106C145.3 85.5481 145.264 85.4631 145.263 85.3742C145.114 66.9634 141.23 48.6083 133.206 31.9896C133.137 31.8457 133.182 31.7738 133.342 31.7738H154.025C154.155 31.7738 154.262 31.8237 154.345 31.9235Z" fill="black"/>
<path d="M21.1967 142.948C21.15 142.948 21.1036 142.938 21.0609 142.917C21.0182 142.897 20.9802 142.867 20.9497 142.83C8.28609 127.406 1.59591 109.639 0.8791 89.5289C0.869821 89.2435 1.00785 89.1009 1.29318 89.1009H29.7357C29.8164 89.1009 29.8937 89.1326 29.951 89.1893C30.0084 89.246 30.041 89.323 30.042 89.4036C30.2368 107.724 34.0296 126.114 42.1267 142.733C42.1963 142.876 42.1511 142.948 41.991 142.948H21.1967Z" fill="black"/>
<path d="M45.93 142.75C37.4641 126.671 33.5912 107.383 33.4451 89.3027C33.4451 89.1681 33.5123 89.1009 33.6469 89.1009H66.4216C66.449 89.1009 66.4762 89.1063 66.5015 89.1168C66.5268 89.1272 66.5498 89.1426 66.5692 89.162C66.5886 89.1814 66.604 89.2044 66.6145 89.2297C66.625 89.2551 66.6304 89.2822 66.6304 89.3096C66.5654 107.237 67.9468 125.047 70.7746 142.739C70.7955 142.879 70.7364 142.948 70.5972 142.948H46.2571C46.1086 142.948 45.9996 142.882 45.93 142.75Z" fill="black"/>
<path d="M101.065 142.802C101.049 142.9 100.991 142.948 100.891 142.948H74.5223C74.4512 142.948 74.3825 142.923 74.3283 142.877C74.2741 142.831 74.238 142.768 74.2265 142.698C71.2688 125.188 70.0057 107.331 69.9883 89.3758C69.9883 89.3397 69.9954 89.3039 70.0092 89.2706C70.023 89.2372 70.0433 89.2069 70.0688 89.1814C70.0943 89.1558 70.1246 89.1356 70.158 89.1218C70.1913 89.108 70.2271 89.1009 70.2632 89.1009H104.976C105.213 89.1009 105.331 89.2192 105.331 89.4558C105.331 107.31 104.089 125.296 101.065 142.802Z" fill="black"/>
<path d="M108.65 94.9919C108.676 93.1384 108.705 91.249 108.737 89.3236C108.742 89.1751 108.819 89.1009 108.967 89.1009H141.683C141.815 89.1009 141.881 89.1681 141.881 89.3027C141.7 107.787 137.74 126.305 129.399 142.837C129.383 142.87 129.357 142.899 129.325 142.918C129.293 142.938 129.256 142.948 129.219 142.948H104.732C104.6 142.948 104.544 142.883 104.565 142.753C107.066 126.914 108.428 110.994 108.65 94.9919Z" fill="black"/>
<path d="M145.169 92.5561C145.204 91.5169 145.24 90.437 145.277 89.3166C145.282 89.1728 145.357 89.1009 145.503 89.1009H174.05C174.35 89.1009 174.493 89.2505 174.482 89.5497C173.706 108.886 166.99 128.233 154.383 142.799C154.298 142.898 154.19 142.948 154.06 142.948H133.335C133.194 142.948 133.154 142.884 133.217 142.757C140.802 127.029 144.588 109.972 145.169 92.5561Z" fill="black"/>
<path d="M131.275 146.421C131.289 146.397 131.308 146.377 131.332 146.363C131.356 146.349 131.383 146.341 131.411 146.341H150.9C150.935 146.341 150.969 146.352 150.997 146.371C151.026 146.39 151.049 146.417 151.063 146.448C151.076 146.48 151.08 146.514 151.074 146.548C151.068 146.581 151.053 146.612 151.029 146.637C139.509 158.797 125.64 167.056 109.423 171.415C108.428 171.682 108.369 171.545 109.245 171.005C118.592 165.235 125.857 156.063 131.275 146.421Z" fill="black"/>
<path d="M29.012 151.244C27.0564 149.448 25.7203 148.227 24.2518 146.529C24.2381 146.512 24.2293 146.492 24.2265 146.47C24.2238 146.449 24.2271 146.427 24.2362 146.408C24.2453 146.388 24.2598 146.371 24.2779 146.359C24.2961 146.348 24.3172 146.341 24.3388 146.341H43.9118C43.9647 146.341 44.0167 146.355 44.0625 146.382C44.1084 146.409 44.1464 146.448 44.1728 146.494C49.6323 156.488 56.8943 165.281 66.2059 171.095C66.8531 171.499 66.8067 171.605 66.0667 171.415C52.0507 167.785 39.6991 161.061 29.012 151.244Z" fill="black"/>
<path d="M80.7961 173.506C66.1642 170.009 55.2555 159.32 48.0457 146.536C47.9738 146.406 48.0121 146.341 48.1605 146.341H71.234C71.3229 146.341 71.4089 146.372 71.477 146.429C71.545 146.485 71.5908 146.564 71.6063 146.651C73.2696 155.886 75.7575 165.291 80.8761 173.392C80.8843 173.405 80.8886 173.42 80.8883 173.436C80.888 173.451 80.8832 173.466 80.8745 173.479C80.8658 173.491 80.8536 173.5 80.8396 173.505C80.8256 173.51 80.8104 173.511 80.7961 173.506Z" fill="black"/>
<path d="M88.5939 173.959C81.3041 176.391 75.8097 150.858 74.9815 146.536C74.9769 146.512 74.9776 146.488 74.9835 146.464C74.9894 146.441 75.0004 146.419 75.0157 146.401C75.031 146.382 75.0502 146.367 75.072 146.357C75.0937 146.346 75.1175 146.341 75.1416 146.341H100.105C100.137 146.341 100.169 146.348 100.198 146.362C100.227 146.375 100.253 146.395 100.274 146.42C100.295 146.444 100.31 146.473 100.317 146.504C100.325 146.535 100.326 146.567 100.32 146.598C99.1998 152.5 94.9512 171.84 88.5939 173.959Z" fill="black"/>
<path d="M103.81 146.508C103.82 146.461 103.846 146.419 103.884 146.388C103.922 146.358 103.97 146.341 104.019 146.341H127.162C127.336 146.341 127.38 146.416 127.294 146.567C120.088 159.097 109.152 170.236 94.5718 173.458C94.5507 173.462 94.5286 173.46 94.5085 173.452C94.4885 173.444 94.4713 173.43 94.4593 173.412C94.4473 173.394 94.441 173.373 94.4412 173.351C94.4414 173.33 94.4481 173.309 94.4605 173.291C99.7391 165.59 101.966 155.51 103.81 146.508Z" fill="black"/>
</svg>
