<svg width="193" height="180" viewBox="0 0 193 180" fill="none" xmlns="http://www.w3.org/2000/svg">
<path d="M0.835812 134.683C-2.5613 102.75 24.3791 76.118 56.3021 79.6508C56.3149 79.6522 56.3277 79.6498 56.3391 79.6439C56.3505 79.6381 56.3599 79.6291 56.3663 79.6179C56.3726 79.6068 56.3756 79.594 56.3748 79.5813C56.3739 79.5685 56.3694 79.5562 56.3618 79.546C48.3584 68.7624 45.1176 55.2911 47.1739 42.0194C50.4415 20.9355 66.767 4.41463 87.5938 0.571285C87.6458 0.561714 87.6995 0.573165 87.7434 0.603169C87.7872 0.633173 87.8177 0.679328 87.8282 0.731683L88.1058 2.20198C88.1223 2.28287 88.0901 2.3329 88.0092 2.3521C80.7612 4.00953 74.4413 7.16741 69.0495 11.8258C58.85 20.6414 53.4911 34.0612 54.7722 47.5181C56.7031 67.8288 73.1746 83.7882 93.3948 85.3881C106.759 86.4451 120.136 80.8044 128.781 70.4054C149.102 45.9573 136.114 9.025 105.124 2.37677C105.101 2.37182 105.081 2.35809 105.068 2.33851C105.055 2.31893 105.05 2.29504 105.054 2.2719L105.357 0.667934C105.372 0.581567 105.422 0.54661 105.509 0.563061C141.734 7.26064 158.878 49.4984 136.831 79.5233C136.823 79.5348 136.818 79.5484 136.817 79.5625C136.817 79.5766 136.82 79.5907 136.827 79.603C136.834 79.6153 136.844 79.6254 136.857 79.6321C136.869 79.6387 136.883 79.6417 136.897 79.6405C169.217 76.3092 195.623 102.725 192.3 135.018C192.183 136.168 190.755 136.653 190.136 135.767C189.971 135.53 189.887 135.138 189.886 134.591C189.83 109.503 167.72 89.8997 142.785 92.9617C124.571 95.1969 109.574 109.359 106.502 127.523C102.138 153.337 121.717 176.142 147.611 176.672C148.263 176.684 148.806 176.526 149.233 177.133C149.924 178.107 149.151 178.957 148.141 179.066C126.085 181.47 105.462 169.337 96.6254 149.177C96.6214 149.167 96.6148 149.159 96.6064 149.154C96.598 149.148 96.5881 149.145 96.5781 149.145C96.568 149.145 96.5581 149.148 96.5497 149.154C96.5413 149.159 96.5347 149.167 96.5308 149.177C87.5691 169.458 67.316 181.26 45.1895 179.09C43.9249 178.967 43.4951 177.34 44.5726 176.826C44.7741 176.73 45.147 176.68 45.6913 176.674C62.9421 176.471 78.262 165.722 84.4702 149.656C91.4577 131.576 84.9061 111.311 69.2305 100.254C51.1653 87.5061 26.0263 91.2713 12.3494 108.676C6.39416 116.255 3.35212 124.97 3.22325 134.823C3.20474 136.23 1.02088 136.429 0.835812 134.683ZM130.648 15.7267C130.393 15.4662 130.361 15.4909 130.551 15.8007C130.827 16.249 131.306 16.7323 131.606 17.1332C148.884 40.1974 139.698 73.4756 112.862 84.2201C99.0231 89.762 83.0534 87.8496 70.9661 79.0792C50.4024 64.1582 46.6537 35.3115 62.7324 15.6568C62.742 15.6458 62.7433 15.6335 62.7365 15.6198C62.7296 15.6047 62.7146 15.5944 62.6912 15.5889C62.6844 15.5862 62.6775 15.5875 62.6707 15.593C45.3972 32.8809 43.5136 60.2285 58.7204 79.5583C59.2201 80.1937 59.3682 80.9484 58.6813 81.4645C58.0747 81.9211 57.1041 81.6188 56.298 81.5201C41.9693 79.7866 27.3835 84.654 16.9927 94.8453C9.0976 102.59 4.35014 112.074 2.75029 123.297C2.73658 123.39 2.73795 123.464 2.7544 123.517C2.78867 123.639 2.82363 123.63 2.85927 123.49C8.15441 103.05 27.3629 89.6386 48.2494 90.9464C68.0378 92.1844 84.7725 107.177 88.3485 126.643C92.3111 148.194 80.0572 168.741 59.7013 176.082C58.669 176.453 57.6182 176.757 56.5489 176.993C56.5187 177 56.494 177.012 56.4749 177.03C56.4543 177.048 56.4358 177.068 56.4193 177.092C56.3741 177.155 56.3899 177.181 56.4666 177.172C73.9766 174.914 88.6241 163.598 95.299 147.291C95.5074 146.784 95.7254 146.452 95.9529 146.296C96.4814 145.932 97.341 146.104 97.6165 146.793C104.238 163.333 118.972 174.914 136.776 177.168C136.782 177.168 136.788 177.168 136.794 177.166C136.8 177.164 136.805 177.16 136.809 177.156C136.814 177.152 136.817 177.146 136.819 177.141C136.821 177.135 136.822 177.129 136.821 177.122C136.82 177.098 136.805 177.081 136.778 177.073C110.783 170.162 96.8248 141.654 107.754 116.988C118.073 93.6999 146.245 83.8088 168.73 96.0627C178.812 101.557 187.202 111.465 190.102 122.853C190.399 124.025 190.466 124.011 190.303 122.812C188.469 109.318 180.772 96.8544 169.404 89.3219C159.179 82.5455 147.835 80.0011 135.373 81.6887C134.018 81.8717 133.702 80.498 134.428 79.5768C149.655 60.2387 147.732 33.142 130.648 15.7267Z" fill="black"/>
<path d="M73.833 77.2449C72.4203 76.2085 72.19 73.8683 73.3415 72.5481C73.6061 72.2438 74.2415 71.7654 75.2478 71.1128C88.3921 62.5953 105.219 62.6262 118.294 71.3575C119.177 71.9456 119.751 72.4289 120.017 72.8072C120.809 73.928 120.78 75.6718 119.891 76.7678C119.65 77.0639 119.203 77.4204 118.551 77.8371C117.194 78.7022 115.56 79.6022 113.65 80.5371C111.635 81.5221 110.615 80.8209 108.826 79.9017C100.862 75.8034 91.6 75.9082 83.7406 80.167C81.5588 81.3514 80.839 81.115 78.7745 80.1382C76.9018 79.2526 75.2546 78.2881 73.833 77.2449ZM74.5383 75.1104C75.0195 76.373 79.2556 78.3224 80.6231 78.9352C81.2277 79.2067 81.6122 79.2149 82.2189 78.8694C91.3409 73.6853 102.085 73.8231 111.146 78.9846C111.565 79.2231 111.997 79.2231 112.408 79.0442C114.286 78.2354 116.166 77.199 118.047 75.935C119.176 75.1762 118.824 74.004 117.856 73.3296C104.981 64.3741 88.2461 64.4111 75.3568 73.2884C74.7008 73.7408 74.2402 74.3331 74.5383 75.1104Z" fill="black"/>
<path d="M108.38 139.244C107.63 138.651 107.228 137.836 107.173 136.801C107.089 135.193 107.14 133.142 107.325 130.649C107.467 128.736 108.176 128.177 109.865 127.198C118.551 122.158 123.338 113.529 123.509 103.554C123.528 102.448 124.042 101.556 125.051 100.879C126.852 99.6682 128.736 98.6037 130.702 97.6851C132.269 96.9531 134.251 97.4918 135.082 99.0382C135.315 99.4728 135.464 100.14 135.53 101.041C136.688 117.054 127.856 132.043 113.506 138.997C111.536 139.954 110.122 140.624 108.38 139.244ZM109.063 136.748C109.135 137.799 110.148 138.457 111.074 138.062C125.81 131.759 134.708 117.058 133.688 101.041C133.632 100.169 133.342 99.3919 132.441 99.25C131.148 99.0465 127.317 101.623 126.163 102.404C125.729 102.699 125.359 103.11 125.359 103.605C125.365 114.387 119.595 124.013 110.171 129.17C109.41 129.586 109.239 129.982 109.172 130.799C108.984 133.087 108.947 135.07 109.063 136.748Z" fill="black"/>
<path d="M81.2006 139.682C66.1419 133.254 56.806 118.119 57.5853 101.843C57.6388 100.727 57.7245 99.9896 57.8424 99.6305C58.2845 98.2897 59.7013 97.3191 61.1284 97.3911C61.5644 97.413 62.1313 97.5892 62.8291 97.9196C64.6112 98.7613 66.3153 99.7394 67.9412 100.854C68.9282 101.531 69.6624 102.419 69.6624 103.566C69.6624 113.49 74.867 122.444 83.4852 127.305C84.7458 128.019 85.6012 128.742 85.7472 130.118C85.9584 132.096 86.0248 134.265 85.9467 136.624C85.8624 139.139 83.5942 140.704 81.2006 139.682ZM59.4895 101.078C58.3524 116.731 67.17 131.377 81.4988 137.795C83.004 138.469 84.0322 138.089 84.1042 136.312C84.1536 135.095 84.4003 129.939 83.2446 129.316C73.8594 124.26 67.972 114.846 67.8157 104.15C67.8055 103.498 67.7047 102.949 67.1988 102.594C65.7429 101.571 64.069 100.594 62.1772 99.6634C60.6637 98.919 59.6211 99.2583 59.4895 101.078Z" fill="black"/>
<path d="M99.3029 108.193C98.1617 110.537 95.038 110.572 93.8741 108.24C93.0351 106.56 92.1111 104.928 91.1022 103.344C90.4921 102.387 90.1473 101.693 90.0678 101.261C89.7223 99.3899 91.3386 97.7325 93.2778 97.8538C95.3355 97.9813 97.3926 97.9895 99.4489 97.8785C100.196 97.8387 100.738 97.8702 101.073 97.9731C103.222 98.6373 103.564 101.01 102.447 102.723C101.183 104.663 100.135 106.486 99.3029 108.193ZM95.9922 107.93C97.0122 108.426 97.409 107.821 97.845 106.959C98.7539 105.163 99.7629 103.423 100.872 101.738C101.614 100.611 101.191 99.6305 99.778 99.7128C97.3185 99.8588 95.3342 99.7683 93.2469 99.7148C92.8768 99.7052 92.5855 99.7731 92.373 99.9184C91.571 100.472 91.9268 101.177 92.3894 101.888C93.5849 103.731 94.6693 105.634 95.6426 107.599C95.7187 107.753 95.8462 107.86 95.9922 107.93Z" fill="black"/>
</svg>
