<svg width="141" height="141" viewBox="0 0 141 141" fill="none" xmlns="http://www.w3.org/2000/svg">
<path d="M134.496 98.736C128.003 113.605 118.259 124.702 105.264 132.027C102.357 131.893 100.497 132.844 99.6844 134.881C52.9682 154.001 4.30122 124.726 0.442868 74.2806C-1.2353 52.2923 9.5222 29.5725 26.3039 16.3336C29.1439 14.096 30.6212 10.9118 35.4406 10.6393C35.7503 10.6207 36.0473 10.5217 36.3012 10.3524L42.6983 6.22153C57.4289 0.814098 68.2151 -0.677636 83.8206 2.2484C116.122 8.32998 138.813 35.1807 140.505 67.9552C140.792 73.4344 139.444 79.602 139.229 85.5545C139.162 87.5339 137.584 91.9277 134.496 98.736ZM47.6611 12.0306C45.1654 12.0784 43.3868 13.1302 42.3254 15.1861C42.0003 15.8077 41.6321 15.8363 41.221 15.2722L40.6759 14.5263C40.3317 14.0578 39.8966 13.9526 39.3707 14.2108C35.5745 16.1232 32.2707 18.6667 29.4594 21.8414C29.1248 22.2143 28.9526 22.6542 28.9431 23.161C28.7901 30.9542 24.7596 35.0038 16.8516 35.3098C16.7492 35.3128 16.6493 35.3425 16.5619 35.396C16.4745 35.4496 16.4025 35.525 16.3533 35.6149C16.304 35.7047 16.2791 35.8059 16.2809 35.9084C16.2828 36.0109 16.3114 36.1111 16.364 36.1991C17.2246 37.7099 16.9138 38.6709 15.4317 39.0821C14.8962 39.2351 14.5089 39.5602 14.2699 40.0575C3.21593 62.9303 4.24866 84.9282 17.368 106.051C26.2465 120.351 43.5302 131.482 60.1398 133.705C103.83 139.586 137.952 106.295 133.592 63.0498C128.644 28.8266 102.094 6.85262 68.0717 7.05343C62.1909 7.09646 55.7364 8.6025 49.6262 9.64957C49.1576 9.72607 48.8038 9.97471 48.5648 10.3954L47.6611 12.0306ZM22.9045 27.3349L23.4639 29.7876C23.4911 29.9092 23.5419 30.0243 23.6136 30.1262C23.6852 30.2281 23.7763 30.3148 23.8816 30.3814C23.9869 30.4481 24.1043 30.4932 24.227 30.5144C24.3498 30.5356 24.4755 30.5323 24.597 30.5048L24.8265 30.4474C25.8079 30.2242 26.7032 29.8089 27.3163 29.2927C27.9294 28.7764 28.21 28.2013 28.0968 27.6935L27.9964 27.2202C27.9397 26.9681 27.7875 26.7402 27.5484 26.5497C27.3093 26.3591 26.9881 26.2097 26.6031 26.1097C26.2181 26.0098 25.7768 25.9614 25.3046 25.9674C24.8324 25.9733 24.3385 26.0335 23.8512 26.1444L23.6217 26.2018C23.5001 26.2289 23.3851 26.2798 23.2832 26.3514C23.1813 26.4231 23.0945 26.5142 23.0279 26.6195C22.9613 26.7247 22.9161 26.8421 22.8949 26.9649C22.8737 27.0877 22.877 27.2134 22.9045 27.3349Z" fill="#030303"/>
<path d="M49.6691 56.653L41.7372 65.1299C41.6638 65.2067 41.5753 65.2676 41.4773 65.3088C41.3793 65.3499 41.2738 65.3705 41.1675 65.3691C41.0612 65.3678 40.9564 65.3446 40.8594 65.3009C40.7625 65.2573 40.6756 65.1942 40.6041 65.1155L36.7171 60.8269C36.579 60.6762 36.506 60.4771 36.5141 60.2729C36.5222 60.0687 36.6106 59.876 36.7601 59.7368L44.8927 52.2639C44.9679 52.1937 45.0284 52.1093 45.0706 52.0155C45.1129 51.9217 45.136 51.8205 45.1387 51.7177C45.1413 51.6149 45.1235 51.5126 45.0862 51.4167C45.0489 51.3209 44.9929 51.2334 44.9215 51.1594L36.215 42.0227C36.0752 41.874 35.9997 41.6759 36.005 41.4718C36.0104 41.2676 36.0962 41.0738 36.2437 40.9326L39.93 37.3611C40.0744 37.2218 40.2672 37.144 40.4678 37.144C40.6685 37.144 40.8613 37.2218 41.0057 37.3611L49.8699 45.9385C50.0143 46.0778 50.2071 46.1557 50.4078 46.1557C50.6084 46.1557 50.8012 46.0778 50.9456 45.9385L59.3222 37.8488C59.3983 37.7769 59.4882 37.7212 59.5864 37.685C59.6847 37.6488 59.7892 37.6329 59.8938 37.6382C59.9984 37.6436 60.1008 37.6701 60.1948 37.7162C60.2889 37.7622 60.3726 37.8269 60.441 37.9062L64.3423 42.3957C64.4118 42.4746 64.4644 42.5667 64.4971 42.6666C64.5297 42.7665 64.5417 42.872 64.5323 42.9766C64.5229 43.0813 64.4923 43.1829 64.4424 43.2754C64.3925 43.3678 64.3243 43.4492 64.2419 43.5145L55.6216 50.3849C55.5368 50.4524 55.4671 50.5369 55.417 50.6329C55.3669 50.729 55.3375 50.8346 55.3307 50.9427C55.324 51.0509 55.34 51.1592 55.3778 51.2608C55.4155 51.3623 55.4741 51.4549 55.5499 51.5324L64.1989 60.5974C64.2755 60.677 64.3341 60.772 64.371 60.8761C64.4078 60.9802 64.4219 61.091 64.4124 61.201C64.4029 61.3111 64.37 61.4178 64.3158 61.514C64.2617 61.6103 64.1876 61.6939 64.0985 61.7592L59.5516 65.0868C59.3976 65.2008 59.2067 65.2536 59.016 65.2351C58.8252 65.2165 58.6481 65.128 58.5189 64.9864L50.8022 56.6673C50.7307 56.5886 50.6438 56.5255 50.5469 56.4818C50.4499 56.4382 50.3451 56.415 50.2388 56.4136C50.1325 56.4123 50.0271 56.4329 49.9291 56.4741C49.8311 56.5152 49.7426 56.5761 49.6691 56.653Z" fill="#030303"/>
<path d="M83.9353 40.3875L89.6726 45.3933C90.1603 45.8141 90.6384 45.8045 91.1069 45.3647L98.9528 38.1356C99.2874 37.8296 99.646 37.7914 100.029 38.0209C102.17 39.3404 103.643 41.2529 104.446 43.7582C101.004 45.5081 98.1543 47.8843 95.8976 50.8868C95.7703 51.0634 95.7091 51.2787 95.7248 51.4941C95.7406 51.7096 95.8324 51.9112 95.9837 52.063L104.69 60.8124C104.777 60.899 104.844 61.0043 104.884 61.1205C104.924 61.2366 104.937 61.3604 104.921 61.4823C104.906 61.6042 104.863 61.721 104.796 61.8237C104.728 61.9264 104.638 62.0123 104.532 62.0746L99.6269 64.972C99.4642 65.0666 99.2736 65.1025 99.086 65.0739C98.8985 65.0452 98.7251 64.9537 98.5942 64.8142L92.2401 57.9438C91.7811 57.4465 91.2551 57.3605 90.6623 57.6856C86.9999 59.6458 83.8922 62.2468 81.3391 65.4884C80.9949 65.9282 80.6507 65.9282 80.3064 65.4884L77.1939 61.544C76.9261 61.2093 76.9022 60.8554 77.1222 60.4825C79.0824 57.2218 81.6069 54.5348 84.6955 52.4216C84.8106 52.3437 84.9071 52.2415 84.9782 52.1221C85.0493 52.0027 85.0933 51.8692 85.107 51.7309C85.1206 51.5926 85.1037 51.453 85.0574 51.322C85.0111 51.191 84.9364 51.0718 84.8389 50.9729L77.2369 43.3709C77.0371 43.1719 76.9144 42.9083 76.8908 42.6272C76.8671 42.3462 76.944 42.0658 77.1078 41.8362L80.1917 37.6192C80.5263 37.1698 80.8849 37.1507 81.2674 37.5619L83.9353 40.3875Z" fill="#030303"/>
<path d="M68.9753 85.655C54.5076 87.6344 44.649 95.4324 39.3993 109.049C39.2368 109.489 38.9452 109.804 38.5244 109.996C33.2174 112.463 31.2093 106.266 33.5903 102.566C34.4652 101.174 36.5307 100.629 36.6024 98.1624C36.6119 97.6843 36.7506 97.2444 37.0183 96.8428C45.7104 83.8286 58.0457 77.7566 74.0242 78.6268C75.8888 78.7272 76.4912 79.3726 78.0116 80.2763C78.4227 80.5153 78.834 80.5105 79.2452 80.2619C80.6508 79.4109 82.1472 79.3439 83.7345 80.0611C95.2092 85.2056 103.552 93.9454 108.764 106.281C108.972 106.768 108.98 107.318 108.787 107.811C108.594 108.305 108.215 108.703 107.731 108.92C106.956 109.264 106.493 109.886 106.34 110.785C106.206 111.578 105.795 111.769 105.106 111.358L101.492 109.164C101.296 109.043 101.145 108.862 101.061 108.647C96.1081 95.7671 86.8519 88.342 73.2926 86.3722C72.891 86.3148 72.542 86.4295 72.2456 86.7164L71.2702 87.6918C71.1744 87.7882 71.0541 87.8567 70.9223 87.8897C70.7904 87.9228 70.6521 87.9192 70.5222 87.8793C70.3923 87.8394 70.2757 87.7648 70.1851 87.6635C70.0944 87.5622 70.0332 87.4381 70.008 87.3045L69.7929 86.2431C69.7068 85.7841 69.4343 85.5881 68.9753 85.655Z" fill="#030303"/>
</svg>
