<svg width="102" height="101" viewBox="0 0 102 101" fill="none" xmlns="http://www.w3.org/2000/svg">
<path d="M50.8746 15.8368C69.9434 15.8368 85.5377 31.3504 85.5377 50.5C85.5377 69.6496 70.0242 85.1632 50.8746 85.1632C31.725 85.1632 16.2114 69.6496 16.2114 50.5C16.2114 31.3504 31.725 15.8368 50.8746 15.8368ZM50.8746 0C22.9986 0 0.374603 22.624 0.374603 50.5C0.374603 78.376 22.9986 101 50.8746 101C78.7506 101 101.375 78.376 101.375 50.5C101.375 22.624 78.7506 0 50.8746 0Z" fill="#0F0F0F"/>
<path d="M50.8746 0C22.9986 0 0.374603 22.624 0.374603 50.5H50.8746V0Z" fill="#0F0F0F"/>
<path d="M50.8746 100.919C78.7506 100.919 101.375 78.2952 101.375 50.4192H50.8746V100.919Z" fill="#0F0F0F"/>
</svg>
