<svg width="101" height="102" viewBox="0 0 101 102" fill="none" xmlns="http://www.w3.org/2000/svg">
<mask id="mask0_1_71" style="mask-type:luminance" maskUnits="userSpaceOnUse" x="0" y="0" width="101" height="102">
<path d="M101 0H0V102H101V0Z" fill="white"/>
</mask>
<g mask="url(#mask0_1_71)">
<path fill-rule="evenodd" clip-rule="evenodd" d="M95.4152 51C97.3483 51 99.2209 50.7379 101 50.2469C99.5855 49.9457 98.119 49.7872 96.6161 49.7872H71.6368C67.5109 49.7872 63.6608 48.5934 60.4076 46.529C61.1186 42.3247 63.0811 38.2942 66.2949 35.0487L82.26 18.9258C83.627 17.5452 84.7673 16.0226 85.6818 14.4051C84.4703 15.202 83.3225 16.1372 82.26 17.2106L64.5966 35.0487C61.6792 37.9949 58.121 39.8999 54.3754 40.7635C51.9342 37.2827 50.5 33.0312 50.5 28.4414V5.64024C50.5 3.68785 50.2405 1.79668 49.7543 0C49.456 1.42836 49.2991 2.90938 49.2991 4.4274V29.6543C49.2991 33.8209 48.117 37.7088 46.0729 40.9944C41.9098 40.2761 37.9187 38.2941 34.7051 35.0486L18.7402 18.9258C17.3732 17.5452 15.8655 16.3933 14.2638 15.47C15.053 16.6931 15.979 17.8524 17.0419 18.9258L34.7051 36.7639C37.6224 39.7102 39.5088 43.3035 40.3639 47.0864C36.9172 49.5514 32.7074 51 28.1626 51H5.58495C3.65168 51 1.77906 51.2621 0 51.7533C1.41437 52.0542 2.88087 52.2128 4.38402 52.2128H29.3635C33.4894 52.2128 37.3391 53.4067 40.5925 55.4712C39.8812 59.6751 37.9187 63.7056 34.7051 66.9513L18.7402 83.0744C17.3733 84.455 16.2326 85.9773 15.3184 87.5951C16.5295 86.7979 17.6774 85.8626 18.7402 84.7895L36.4034 66.9513C39.3208 64.005 42.8789 62.1001 46.6248 61.2362C49.0656 64.7175 50.5 68.9688 50.5 73.5588V96.3599C50.5 98.3122 50.7596 100.203 51.2459 102C51.5438 100.571 51.7009 99.0904 51.7009 97.5727V72.3455C51.7009 68.1788 52.8831 64.2911 54.9273 61.0057C59.09 61.7238 63.0811 63.7056 66.2949 66.9513L82.26 83.0744C83.627 84.455 85.1344 85.6066 86.7363 86.5302C85.947 85.3067 85.0208 84.1475 83.9583 83.0744L66.2949 65.2361C63.3775 62.2899 61.4913 58.6964 60.6364 54.9137C64.083 52.4484 68.2927 51 72.8377 51H95.4152Z" fill="#0A0A0A"/>
</g>
</svg>
