<svg width="117" height="117" viewBox="0 0 117 117" fill="none" xmlns="http://www.w3.org/2000/svg">
<path fill-rule="evenodd" clip-rule="evenodd" d="M101.961 58.3175C101.961 49.8025 92.1752 42.4303 77.9195 38.8595C74.3487 24.6038 66.9765 14.8175 58.4615 14.8175C49.9465 14.8175 42.5743 24.6038 39.0034 38.8595C24.7478 42.4303 14.9615 49.8025 14.9615 58.3175C14.9615 66.8325 24.7478 74.2047 39.0034 77.7755C42.5743 92.0312 49.9465 101.818 58.4615 101.818C66.9765 101.818 74.3487 92.0312 77.9195 77.7756C92.1752 74.2047 101.961 66.8325 101.961 58.3175ZM77.7948 38.9842C62.6927 37.2603 54.2301 37.227 39.1282 38.9842C37.1226 51.8453 37.253 60.4571 39.1282 77.6508C54.2238 79.3219 62.6955 79.3117 77.7948 77.6508C80.1826 61.0754 80.4291 52.4571 77.7948 38.9842Z" fill="black"/>
</svg>
