<svg width="117" height="117" viewBox="0 0 117 117" fill="none" xmlns="http://www.w3.org/2000/svg">
<path fill-rule="evenodd" clip-rule="evenodd" d="M96.986 38.4851C98.9118 36.9674 99.4836 35.6833 99.4836 34.7391C99.4836 33.7949 98.9118 32.5108 96.986 30.9931C95.0875 29.4969 92.1905 28.0438 88.3952 26.7787C80.83 24.2569 70.225 22.6557 58.4003 22.6557C46.5756 22.6557 35.9706 24.2569 28.4054 26.7787C24.6101 28.0438 21.7131 29.4969 19.8146 30.9931C17.8888 32.5108 17.317 33.7949 17.317 34.7391C17.317 35.6833 17.8888 36.9674 19.8146 38.4851C21.7131 39.9813 24.6101 41.4344 28.4054 42.6995C35.9706 45.2212 46.5756 46.8224 58.4003 46.8224C70.225 46.8224 80.83 45.2212 88.3952 42.6995C92.1905 41.4344 95.0875 39.9813 96.986 38.4851ZM58.4003 49.2391C82.4247 49.2391 101.9 42.7472 101.9 34.7391C101.9 26.7309 82.4247 20.2391 58.4003 20.2391C34.3759 20.2391 14.9003 26.7309 14.9003 34.7391C14.9003 42.7472 34.3759 49.2391 58.4003 49.2391Z" fill="black"/>
<path fill-rule="evenodd" clip-rule="evenodd" d="M96.986 48.1517C98.9118 46.634 99.4836 45.3499 99.4836 44.4057C99.4836 43.4616 98.9118 42.1775 96.986 40.6598C95.0875 39.1635 92.1905 37.7104 88.3952 36.4453C80.83 33.9236 70.225 32.3224 58.4003 32.3224C46.5756 32.3224 35.9706 33.9236 28.4054 36.4453C24.6101 37.7104 21.7131 39.1635 19.8146 40.6598C17.8888 42.1775 17.317 43.4616 17.317 44.4057C17.317 45.3499 17.8888 46.634 19.8146 48.1517C21.7131 49.6479 24.6101 51.1011 28.4054 52.3661C35.9706 54.8879 46.5756 56.4891 58.4003 56.4891C70.225 56.4891 80.83 54.8879 88.3952 52.3661C92.1905 51.1011 95.0875 49.6479 96.986 48.1517ZM58.4003 58.9057C82.4247 58.9057 101.9 52.4139 101.9 44.4057C101.9 36.3976 82.4247 29.9057 58.4003 29.9057C34.3759 29.9057 14.9003 36.3976 14.9003 44.4057C14.9003 52.4139 34.3759 58.9057 58.4003 58.9057Z" fill="black"/>
<path fill-rule="evenodd" clip-rule="evenodd" d="M96.986 57.8184C98.9118 56.3007 99.4836 55.0166 99.4836 54.0724C99.4836 53.1282 98.9118 51.8441 96.986 50.3264C95.0875 48.8302 92.1905 47.3771 88.3952 46.112C80.83 43.5903 70.225 41.9891 58.4003 41.9891C46.5756 41.9891 35.9706 43.5903 28.4054 46.112C24.6101 47.3771 21.7131 48.8302 19.8146 50.3264C17.8888 51.8441 17.317 53.1282 17.317 54.0724C17.317 55.0166 17.8888 56.3007 19.8146 57.8184C21.7131 59.3146 24.6101 60.7677 28.4054 62.0328C35.9706 64.5545 46.5756 66.1557 58.4003 66.1557C70.225 66.1557 80.83 64.5545 88.3952 62.0328C92.1905 60.7677 95.0875 59.3146 96.986 57.8184ZM58.4003 68.5724C82.4247 68.5724 101.9 62.0805 101.9 54.0724C101.9 46.0643 82.4247 39.5724 58.4003 39.5724C34.3759 39.5724 14.9003 46.0643 14.9003 54.0724C14.9003 62.0805 34.3759 68.5724 58.4003 68.5724Z" fill="black"/>
<path fill-rule="evenodd" clip-rule="evenodd" d="M96.986 67.4851C98.9118 65.9674 99.4836 64.6833 99.4836 63.7391C99.4836 62.7949 98.9118 61.5108 96.986 59.9931C95.0875 58.4969 92.1905 57.0438 88.3952 55.7787C80.83 53.2569 70.225 51.6557 58.4003 51.6557C46.5756 51.6557 35.9706 53.2569 28.4054 55.7787C24.6101 57.0438 21.7131 58.4969 19.8146 59.9931C17.8888 61.5108 17.317 62.7949 17.317 63.7391C17.317 64.6833 17.8888 65.9674 19.8146 67.4851C21.7131 68.9813 24.6101 70.4344 28.4054 71.6995C35.9706 74.2212 46.5756 75.8224 58.4003 75.8224C70.225 75.8224 80.83 74.2212 88.3952 71.6995C92.1905 70.4344 95.0875 68.9813 96.986 67.4851ZM58.4003 78.2391C82.4247 78.2391 101.9 71.7472 101.9 63.7391C101.9 55.7309 82.4247 49.2391 58.4003 49.2391C34.3759 49.2391 14.9003 55.7309 14.9003 63.7391C14.9003 71.7472 34.3759 78.2391 58.4003 78.2391Z" fill="black"/>
<path fill-rule="evenodd" clip-rule="evenodd" d="M96.986 77.1517C98.9118 75.634 99.4836 74.3499 99.4836 73.4057C99.4836 72.4616 98.9118 71.1774 96.986 69.6598C95.0875 68.1635 92.1905 66.7104 88.3952 65.4453C80.83 62.9236 70.225 61.3224 58.4003 61.3224C46.5756 61.3224 35.9706 62.9236 28.4054 65.4453C24.6101 66.7104 21.7131 68.1635 19.8146 69.6598C17.8888 71.1774 17.317 72.4616 17.317 73.4057C17.317 74.3499 17.8888 75.634 19.8146 77.1517C21.7131 78.6479 24.6101 80.1011 28.4054 81.3661C35.9706 83.8879 46.5756 85.4891 58.4003 85.4891C70.225 85.4891 80.83 83.8879 88.3952 81.3661C92.1905 80.1011 95.0875 78.6479 96.986 77.1517ZM58.4003 87.9057C82.4247 87.9057 101.9 81.4139 101.9 73.4057C101.9 65.3976 82.4247 58.9057 58.4003 58.9057C34.3759 58.9057 14.9003 65.3976 14.9003 73.4057C14.9003 81.4139 34.3759 87.9057 58.4003 87.9057Z" fill="black"/>
<path fill-rule="evenodd" clip-rule="evenodd" d="M96.986 86.8184C98.9118 85.3007 99.4836 84.0166 99.4836 83.0724C99.4836 82.1282 98.9118 80.8441 96.986 79.3264C95.0875 77.8302 92.1905 76.3771 88.3952 75.112C80.83 72.5903 70.225 70.9891 58.4003 70.9891C46.5756 70.9891 35.9706 72.5903 28.4054 75.112C24.6101 76.3771 21.7131 77.8302 19.8146 79.3264C17.8888 80.8441 17.317 82.1282 17.317 83.0724C17.317 84.0166 17.8888 85.3007 19.8146 86.8184C21.7131 88.3146 24.6101 89.7677 28.4054 91.0328C35.9706 93.5545 46.5756 95.1557 58.4003 95.1557C70.225 95.1557 80.83 93.5545 88.3952 91.0328C92.1905 89.7677 95.0875 88.3146 96.986 86.8184ZM58.4003 97.5724C82.4247 97.5724 101.9 91.0805 101.9 83.0724C101.9 75.0643 82.4247 68.5724 58.4003 68.5724C34.3759 68.5724 14.9003 75.0643 14.9003 83.0724C14.9003 91.0805 34.3759 97.5724 58.4003 97.5724Z" fill="black"/>
</svg>
