<svg width="117" height="117" viewBox="0 0 117 117" fill="none" xmlns="http://www.w3.org/2000/svg">
<path d="M14.6516 15.4416C14.6516 39.466 34.1272 58.9416 58.1516 58.9416C82.176 58.9416 101.652 39.466 101.652 15.4416H87.1516C87.1516 31.4578 74.1679 44.4416 58.1516 44.4416C42.1354 44.4416 29.1516 31.4579 29.1516 15.4416H14.6516Z" fill="black"/>
<path d="M58.1516 29.9416C50.1435 29.9416 43.6516 23.4497 43.6516 15.4416L72.6516 15.4416C72.6516 23.4497 66.1597 29.9416 58.1516 29.9416Z" fill="black"/>
<path d="M58.1516 58.9416C34.1272 58.9416 14.6516 78.4172 14.6516 102.442H29.1516C29.1516 86.4253 42.1354 73.4416 58.1516 73.4416C74.1679 73.4416 87.1516 86.4253 87.1516 102.442L101.652 102.442C101.652 78.4172 82.176 58.9416 58.1516 58.9416Z" fill="black"/>
<path d="M58.1516 87.9416C50.1435 87.9416 43.6516 94.4335 43.6516 102.442H72.6516C72.6516 94.4335 66.1597 87.9416 58.1516 87.9416Z" fill="black"/>
</svg>
