<svg width="117" height="117" viewBox="0 0 117 117" fill="none" xmlns="http://www.w3.org/2000/svg">
<path fill-rule="evenodd" clip-rule="evenodd" d="M31.5147 14.9897C30.7841 14.8763 30.0354 14.8175 29.2731 14.8175C21.2649 14.8175 14.7731 21.3094 14.7731 29.3175C14.7731 30.0799 14.8319 30.8285 14.9453 31.5591C14.8317 32.4069 14.7731 33.272 14.7731 34.1508C14.7731 34.9226 14.8183 35.6838 14.9062 36.432C14.8182 37.2707 14.7731 38.1222 14.7731 38.9842C14.7731 39.762 14.8098 40.5312 14.8817 41.2902C14.8098 42.1231 14.7731 42.966 14.7731 43.8175C14.7731 44.5995 14.804 45.3743 14.8648 46.1407C14.804 46.9695 14.7731 47.8066 14.7731 48.6508C14.7731 49.436 14.7998 50.2148 14.8524 50.9866C14.7998 51.8123 14.7731 52.6451 14.7731 53.4842C14.7731 54.2717 14.7966 55.0537 14.843 55.8295C14.7966 56.6529 14.7731 57.4825 14.7731 58.3175C14.7731 82.3419 34.2487 101.818 58.2731 101.818C82.2975 101.818 101.773 82.3419 101.773 58.3175C101.773 34.2931 82.2975 14.8175 58.2731 14.8175C57.438 14.8175 56.6085 14.841 55.7851 14.8875C55.0092 14.841 54.2272 14.8175 53.4397 14.8175C52.6007 14.8175 51.7679 14.8442 50.9422 14.8969C50.1704 14.8442 49.3915 14.8175 48.6064 14.8175C47.7621 14.8175 46.9251 14.8484 46.0963 14.9092C45.3299 14.8485 44.5551 14.8175 43.7731 14.8175C42.9216 14.8175 42.0787 14.8542 41.2458 14.9261C40.4868 14.8543 39.7176 14.8175 38.9397 14.8175C38.0777 14.8175 37.2263 14.8626 36.3876 14.9507C35.6394 14.8627 34.8782 14.8175 34.1064 14.8175C33.2276 14.8175 32.3624 14.8761 31.5147 14.9897ZM38.9397 60.7342C29.7884 60.7342 21.957 55.0823 18.7459 47.0788C18.8277 46.7905 18.9126 46.5036 19.0004 46.218C22.5432 50.6472 27.9935 53.4842 34.1064 53.4842C44.7839 53.4842 53.4397 44.8283 53.4397 34.1508C53.4397 28.038 50.6027 22.5877 46.1735 19.0449C46.4592 18.957 46.7461 18.8721 47.0343 18.7903C55.0379 22.0015 60.6897 29.8328 60.6897 38.9842C60.6897 50.9964 50.9519 60.7342 38.9397 60.7342ZM19.9662 43.4402C20.2641 42.6739 20.5842 41.9187 20.9259 41.1754C23.2861 42.8399 26.1654 43.8175 29.2731 43.8175C37.2812 43.8175 43.7731 37.3256 43.7731 29.3175C43.7731 26.2099 42.7955 23.3306 41.131 20.9704C41.8743 20.6287 42.6295 20.3085 43.3958 20.0107C47.9904 23.0352 51.0231 28.2388 51.0231 34.1508C51.0231 43.4937 43.4492 51.0675 34.1064 51.0675C28.1944 51.0675 22.9907 48.0348 19.9662 43.4402ZM29.2731 41.4008C26.5498 41.4008 24.0369 40.4999 22.0162 38.9799C25.8524 31.8022 31.7577 25.8969 38.9354 22.0606C40.4555 24.0813 41.3564 26.5942 41.3564 29.3175C41.3564 35.9909 35.9465 41.4008 29.2731 41.4008ZM63.1064 38.9842C63.1064 30.293 58.5185 22.6734 51.6324 18.4151C62.4773 21.7667 70.3564 31.8719 70.3564 43.8175C70.3564 58.4991 58.4546 70.4008 43.7731 70.4008C31.8275 70.4008 21.7222 62.5217 18.3707 51.6769C22.629 58.5629 30.2486 63.1508 38.9397 63.1508C52.2866 63.1508 63.1064 52.3311 63.1064 38.9842ZM58.4763 18.8158C67.0322 23.8584 72.7731 33.1675 72.7731 43.8175C72.7731 59.8338 59.7893 72.8175 43.7731 72.8175C33.1231 72.8175 23.8139 67.0766 18.7714 58.5207C22.9096 71.0365 34.7033 80.0675 48.6064 80.0675C65.9574 80.0675 80.0231 66.0018 80.0231 48.6508C80.0231 34.7478 70.992 22.954 58.4763 18.8158ZM82.4397 48.6508C82.4397 36.0413 75.5417 25.0429 65.3133 19.2234C79.5022 24.1401 89.6897 37.6224 89.6897 53.4842C89.6897 73.5045 73.4601 89.7342 53.4397 89.7342C37.578 89.7342 24.0956 79.5466 19.179 65.3577C24.9985 75.5861 35.9969 82.4842 48.6064 82.4842C67.292 82.4842 82.4397 67.3365 82.4397 48.6508ZM72.146 19.6354C84.0484 26.2273 92.1064 38.9147 92.1064 53.4842C92.1064 74.8392 74.7947 92.1508 53.4397 92.1508C38.8703 92.1508 26.1829 84.0928 19.591 72.1904C25.281 88.0538 40.4519 99.4008 58.2731 99.4008C80.9628 99.4008 99.3564 81.0072 99.3564 58.3175C99.3564 40.4963 88.0094 25.3254 72.146 19.6354Z" fill="black"/>
</svg>
