<svg xmlns="http://www.w3.org/2000/svg" viewBox="0 0 101 101"><g id="Layer_2" data-name="Layer 2"><g id="Calque_1" data-name="Calque 1"><path d="M101,50.5c0-4.68-8.27-7.66-15.21-9.33-2.67-.65-5.6-1.21-8.71-1.68,1.87-2.54,3.54-5,5-7.34,3.72-6.1,7.47-14,4.16-17.36S75,15.23,68.85,19c-2.34,1.43-4.8,3.1-7.34,5-.47-3.11-1-6-1.68-8.71C58.16,8.27,55.18,0,50.5,0s-7.66,8.27-9.33,15.21c-.65,2.67-1.21,5.6-1.68,8.71-2.54-1.87-5-3.54-7.34-5-6.1-3.72-14-7.47-17.36-4.16S15.23,26.05,19,32.15c1.43,2.34,3.1,4.8,5,7.34-3.11.47-6,1-8.71,1.68C8.27,42.84,0,45.82,0,50.5s8.27,7.66,15.21,9.33c2.67.65,5.6,1.21,8.71,1.68-1.87,2.54-3.54,5-5,7.34C15.23,75,11.48,82.9,14.79,86.21a4.88,4.88,0,0,0,3.59,1.28c3.9,0,9.33-2.73,13.77-5.44,2.34-1.43,4.8-3.1,7.34-5,.47,3.11,1,6,1.68,8.71C42.84,92.73,45.82,101,50.5,101s7.66-8.27,9.33-15.21c.65-2.67,1.21-5.6,1.68-8.71,2.54,1.87,5,3.54,7.34,5,4.44,2.71,9.87,5.44,13.77,5.44a4.88,4.88,0,0,0,3.59-1.28c3.31-3.31-.44-11.26-4.16-17.36-1.43-2.34-3.1-4.8-5-7.34,3.11-.47,6-1,8.71-1.68C92.73,58.16,101,55.18,101,50.5ZM82.63,15.29a3.16,3.16,0,0,1,2.32.76c2.47,2.47-1.17,11.43-9.88,23.15-3.8-.52-7.86-.92-12.09-1.18-.26-4.23-.66-8.29-1.18-12.09C71.1,19,78.67,15.29,82.63,15.29Zm-21,35.21c0,1.55,0,3.07-.05,4.57-1,1.08-2.1,2.17-3.2,3.27s-2.19,2.16-3.27,3.19c-1.5,0-3,.06-4.57.06s-3.07,0-4.57-.05c-1.08-1-2.17-2.1-3.27-3.2s-2.16-2.19-3.2-3.27c0-1.5-.05-3-.05-4.57s0-3.07.05-4.57c1-1.08,2.1-2.17,3.2-3.27s2.19-2.16,3.27-3.2c1.5,0,3-.05,4.57-.05s3.07,0,4.57.05q1.62,1.56,3.27,3.2c1.1,1.1,2.16,2.19,3.2,3.27C61.57,47.43,61.59,49,61.59,50.5Zm-2-9.1-1.89-1.86c1.21,0,2.41.1,3.59.16.06,1.18.12,2.37.16,3.59Zm-3.8-3.7q-2-1.87-4-3.66c2.87-2.53,5.66-4.82,8.32-6.87.44,3.33.79,6.92,1,10.75C59.42,37.82,57.62,37.75,55.8,37.7Zm-2.65-.05h-5.3c.89-.83,1.77-1.64,2.65-2.42C51.38,36,52.26,36.82,53.15,37.65Zm-7.95.05c-1.82,0-3.62.12-5.4.22.25-3.83.6-7.42,1-10.75,2.66,2,5.45,4.34,8.32,6.87Q47.18,35.82,45.2,37.7Zm-1.91,1.84L41.4,41.4l-1.86,1.89c0-1.21.1-2.41.16-3.59C40.88,39.64,42.08,39.58,43.29,39.54ZM37.7,45.2q-1.87,2-3.66,4c-2.53-2.87-4.82-5.66-6.87-8.32,3.33-.44,6.92-.79,10.75-1C37.82,41.58,37.75,43.38,37.7,45.2Zm-.05,2.65c0,.88,0,1.76,0,2.65s0,1.77,0,2.65c-.83-.89-1.63-1.77-2.42-2.65C36,49.62,36.82,48.74,37.65,47.85Zm.05,7.95c0,1.82.12,3.62.22,5.39-3.83-.24-7.42-.59-10.75-1,2-2.66,4.34-5.45,6.87-8.32Q35.82,53.82,37.7,55.8Zm1.84,1.91L41.4,59.6l1.89,1.86c-1.22,0-2.41-.1-3.59-.16C39.64,60.12,39.58,58.92,39.54,57.71ZM45.2,63.3q2,1.88,4,3.66c-2.87,2.53-5.66,4.82-8.32,6.87-.44-3.33-.79-6.92-1-10.75C41.58,63.18,43.38,63.25,45.2,63.3Zm2.65.05h5.3c-.89.83-1.77,1.63-2.65,2.42C49.62,65,48.74,64.18,47.85,63.35Zm7.95-.05c1.82,0,3.62-.12,5.39-.22-.24,3.83-.59,7.42-1,10.75-2.66-2-5.45-4.34-8.32-6.87Q53.82,65.18,55.8,63.3Zm1.91-1.84L59.6,59.6l1.86-1.89c0,1.21-.1,2.41-.16,3.59C60.12,61.36,58.92,61.42,57.71,61.46ZM63.3,55.8q1.88-2,3.66-4c2.53,2.87,4.82,5.66,6.87,8.32-3.33.44-6.92.79-10.75,1C63.18,59.42,63.25,57.62,63.3,55.8Zm.05-2.65c0-.88,0-1.76,0-2.65s0-1.77,0-2.65c.83.89,1.63,1.77,2.42,2.65C65,51.38,64.18,52.26,63.35,53.15ZM63.3,45.2c0-1.82-.12-3.62-.22-5.4,3.83.25,7.42.6,10.75,1-2,2.66-4.34,5.45-6.87,8.32Q65.18,47.18,63.3,45.2ZM50.5,1.78c3.5,0,7.26,8.9,9.38,23.36-3.05,2.31-6.2,4.9-9.38,7.71-3.18-2.81-6.33-5.4-9.38-7.71C43.24,10.68,47,1.78,50.5,1.78ZM16.05,16.05a3.16,3.16,0,0,1,2.32-.76c4,0,11.53,3.72,20.83,10.64-.52,3.8-.92,7.85-1.18,12.09-4.23.26-8.29.66-12.09,1.18C17.22,27.48,13.57,18.52,16.05,16.05ZM1.78,50.5c0-3.5,8.9-7.26,23.36-9.38,2.31,3.05,4.9,6.2,7.71,9.38-2.81,3.18-5.4,6.33-7.71,9.38C10.68,57.76,1.78,54,1.78,50.5ZM18.37,85.71A3.16,3.16,0,0,1,16.05,85c-2.48-2.47,1.17-11.43,9.88-23.15,3.8.52,7.86.92,12.09,1.18.26,4.23.66,8.29,1.18,12.09C29.89,82,22.33,85.71,18.37,85.71ZM50.5,99.22c-3.5,0-7.26-8.9-9.38-23.36,3.05-2.31,6.2-4.9,9.38-7.71,3.18,2.81,6.33,5.4,9.38,7.71C57.76,90.32,54,99.22,50.5,99.22ZM85,85c-2.47,2.47-11.43-1.17-23.15-9.89.52-3.79.92-7.85,1.18-12.08,4.23-.26,8.29-.66,12.09-1.18C83.78,73.52,87.42,82.48,85,85ZM68.15,50.5c2.81-3.18,5.4-6.33,7.71-9.38C90.32,43.24,99.22,47,99.22,50.5s-8.9,7.26-23.36,9.38C73.55,56.83,71,53.68,68.15,50.5Z"/><circle cx="50.5" cy="50.78" r="8"/></g></g></svg>