<svg width="101" height="102" viewBox="0 0 101 102" fill="none" xmlns="http://www.w3.org/2000/svg">
<mask id="mask0_1_25" style="mask-type:luminance" maskUnits="userSpaceOnUse" x="0" y="0" width="101" height="102">
<path d="M101 0H0V102H101V0Z" fill="white"/>
</mask>
<g mask="url(#mask0_1_25)">
<path d="M45.4156 3.1256C47.5492 -1.04187 53.4507 -1.04187 55.5843 3.1256L69.1714 29.6638C69.7158 30.7273 70.5737 31.5938 71.6272 32.1437L97.9049 45.8652C102.032 48.02 102.032 53.9799 97.9049 56.1347L71.6272 69.8562C70.5737 70.406 69.7158 71.2725 69.1714 72.3364L55.5843 98.8742C53.4507 103.042 47.5492 103.042 45.4156 98.8742L31.8285 72.3364C31.284 71.2725 30.426 70.406 29.373 69.8562L3.09496 56.1347C-1.03165 53.9799 -1.03165 48.02 3.09496 45.8652L29.373 32.1437C30.426 31.5938 31.284 30.7273 31.8285 29.6638L45.4156 3.1256Z" fill="#0A0A0A"/>
</g>
</svg>
