<svg xmlns="http://www.w3.org/2000/svg" viewBox="0 0 431.79 212.99"><g id="Layer_2" data-name="Layer 2"><g id="Calque_1" data-name="Calque 1"><circle cx="42" cy="156.77" r="33"/><circle cx="37.65" cy="58.77" r="37.65"/><path d="M431.7,147.4l-.21-3.54-.52-3.49c-.09-.58-.17-1.16-.28-1.74l-.4-1.7-.83-3.39-1.08-3.29-.55-1.65c-.19-.54-.43-1.06-.64-1.59a101.07,101.07,0,0,0-13.55-23.44,157,157,0,0,0-18-19.69A228.32,228.32,0,0,0,375.31,67C368.24,61.8,360.89,57,353.37,52.49c-3.73-2.3-7.58-4.4-11.39-6.55s-7.71-4.14-11.65-6-7.88-3.79-11.83-5.65l-6-2.64c-2-.89-4-1.73-6-2.54-8-3.38-16.27-6.35-24.52-9.19-4.15-1.35-8.28-2.75-12.47-4-2.09-.62-4.17-1.29-6.27-1.86l-6.31-1.73c-8.43-2.22-16.91-4.27-25.48-5.9-4.26-.9-8.57-1.56-12.86-2.32-4.32-.61-8.62-1.32-13-1.79s-8.67-.93-13-1.35S183.9.33,179.54.21a255.7,255.7,0,0,0-26.12.26A201.56,201.56,0,0,0,127.5,3.74a134.78,134.78,0,0,0-25.06,7.32A95.09,95.09,0,0,0,90.7,16.8c-1,.53-1.84,1.16-2.77,1.74s-1.86,1.12-2.71,1.81a57.34,57.34,0,0,0-5.11,4.07A51.69,51.69,0,0,0,71.4,34.1l-1.75,2.75c-.59.92-1,1.93-1.51,2.89l-.73,1.46c-.24.48-.39,1-.59,1.51l-1.14,3,1.2-3c.21-.49.37-1,.63-1.49l.75-1.44c.53-.95,1-1.95,1.56-2.84l1.8-2.7a51.39,51.39,0,0,1,8.84-9.44A59.55,59.55,0,0,1,85.6,20.9c.85-.66,1.82-1.15,2.73-1.74S90.15,18,91.1,17.49a94.37,94.37,0,0,1,11.73-5.43,133,133,0,0,1,25-6.74,200,200,0,0,1,25.74-2.71,251.26,251.26,0,0,1,25.89.28c4.31.2,8.61.63,12.91,1s8.58.94,12.85,1.6,8.52,1.34,12.78,2,8.49,1.59,12.69,2.56c8.45,1.79,16.8,4,25.09,6.35L262,18.29c2.06.61,4.1,1.31,6.16,2,4.12,1.28,8.17,2.76,12.24,4.17,8.1,3,16.15,6.07,24,9.57,2,.84,3.95,1.71,5.9,2.63l5.85,2.72c3.86,1.91,7.75,3.76,11.53,5.8s7.57,4.09,11.32,6.17,7.43,4.33,11,6.65c7.27,4.57,14.36,9.41,21.12,14.65A217.49,217.49,0,0,1,390.5,89.3a150.49,150.49,0,0,1,16.69,19.06,92.85,92.85,0,0,1,12,21.71c.18.48.38,1,.54,1.43l.45,1.45.89,2.91.65,2.94.32,1.47c.09.49.13,1,.2,1.48l.39,3,.11,2.95c0,.49.05,1,0,1.48l-.09,1.46c-.08,1-.08,2-.22,2.92a39.09,39.09,0,0,1-1.18,5.69,39.85,39.85,0,0,1-1.94,5.46c-.38.88-.89,1.71-1.32,2.57l-.68,1.29-.8,1.21c-.55.81-1.07,1.63-1.63,2.42l-1.87,2.26a21.41,21.41,0,0,1-2,2.17c-.71.69-1.36,1.42-2.11,2.08-1.54,1.26-3,2.63-4.65,3.75-.82.58-1.62,1.18-2.45,1.75l-2.59,1.58-1.29.79c-.44.26-.9.48-1.35.72l-2.71,1.42a107.46,107.46,0,0,1-23.4,8.12c-16.29,3.8-33.33,4.85-50.27,4.4-2.12-.08-4.24-.09-6.36-.23l-6.36-.39c-4.24-.37-8.48-.69-12.7-1.22s-8.44-1.1-12.65-1.69-8.41-1.36-12.59-2.22A387.77,387.77,0,0,1,173,163a314.32,314.32,0,0,1-43.63-25.87c-1.73-1.2-3.37-2.5-5.07-3.75l-2.52-1.89c-.84-.63-1.63-1.31-2.45-2l-4.88-3.95L110.36,122c11.74-6.15,30.45-7.64,60.94-9.24-75.6-4-78.82-7.2-82.8-82.8-4,75.6-7.2,78.82-82.8,82.8,75.6,4,78.82,7.2,82.8,82.8,1.65-31.44,3.18-50.36,9.84-62l.43.38,5.17,4.34,5.32,4.13c.89.68,1.76,1.39,2.67,2l2.72,2c1.83,1.29,3.62,2.64,5.48,3.87a327.19,327.19,0,0,0,46.35,26.23,401.3,401.3,0,0,0,100.8,31.6c4.34.8,8.72,1.38,13.09,2s8.76,1.12,13.17,1.48,8.81.71,13.22,1l6.64.26c2.21.11,4.43.07,6.64.12,17.71.09,35.58-1.35,53-5.79a117.37,117.37,0,0,0,25.46-9.45l3-1.66c.5-.29,1-.54,1.5-.85l1.46-.93,2.92-1.88c.95-.67,1.88-1.39,2.81-2.08a69.91,69.91,0,0,0,5.37-4.53c.87-.79,1.65-1.69,2.48-2.54a28.45,28.45,0,0,0,2.35-2.66l2.21-2.81c.67-1,1.3-2,2-3,.32-.5.65-1,.95-1.52l.82-1.6c.52-1.09,1.11-2.14,1.57-3.24a50.34,50.34,0,0,0,2.28-6.84,49.56,49.56,0,0,0,1.3-7.06c.14-1.19.13-2.38.2-3.57l.07-1.79C431.78,148.58,431.73,148,431.7,147.4Z"/></g></g></svg>