<?xml version="1.0" encoding="UTF-8"?>
<svg id="Layer_2" data-name="Layer 2" xmlns="http://www.w3.org/2000/svg" viewBox="0 0 83.97 83.97">
  <g id="Layer_1-2" data-name="Layer 1">
    <path d="M69.58,59.74c-8.31-.5-14.98-7.17-15.48-15.48,0-.07,0-.15,0-.22v-11.16c0-1.66-1.35-3.01-3.01-3.01h-11.16c-.07,0-.15,0-.22,0-8.31-.5-14.98-7.17-15.48-15.48,0-.07,0-.15,0-.22V3.01c0-1.66-1.35-3.01-3.01-3.01H3.01C1.35,0,0,1.35,0,3.01V21.21c0,1.66,1.35,3.01,3.01,3.01H14.17c.07,0,.15,0,.22,0,8.31,.5,14.98,7.17,15.48,15.48,0,.07,0,.15,0,.22v11.15c0,1.66,1.35,3.01,3.01,3.01h11.15c.07,0,.15,0,.22,0,8.31,.5,14.98,7.17,15.48,15.48,0,.07,0,.15,0,.22v11.16c0,1.66,1.35,3.01,3.01,3.01h18.2c1.66,0,3.01-1.35,3.01-3.01v-18.2c0-1.66-1.35-3.01-3.01-3.01h-11.15c-.07,0-.15,0-.22,0Z"/>
  </g>
</svg>