<?xml version="1.0" encoding="UTF-8"?>
<svg id="Layer_2" data-name="Layer 2" xmlns="http://www.w3.org/2000/svg" viewBox="0 0 219.46 437.16">
  <g id="Layer_1-2" data-name="Layer 1">
    <g>
      <path d="M156.99,39.07h59.27c1.77,0,3.2-1.44,3.2-3.2V11.65c0-.86-.33-1.66-.94-2.26L210.07,.94c-.6-.6-1.41-.94-2.26-.94h-50.82c-1.77,0-3.2,1.44-3.2,3.2v13.33h-22.78c-1.42-7.83-8.28-13.8-16.52-13.8s-15.09,5.96-16.52,13.8H55.41c-1.37-6.18-6.87-10.8-13.46-10.8h0c-7.62,0-13.8,6.18-13.8,13.8s6.18,13.8,13.8,13.8h0c.84,0,1.67-.09,2.47-.23,.06,.14,.12,.26,.18,.4,9.05,19.68,27.81,53.77,53.12,64.95,0,.24-.04,.47-.04,.7,0,8.24,5.96,15.1,13.8,16.52v46.58c-7.83,1.42-13.8,8.28-13.8,16.52,0,9.26,7.54,16.8,16.8,16.8,8.24,0,15.1-5.97,16.52-13.8h22.78v13.33c0,1.77,1.44,3.2,3.2,3.2h59.27c1.77,0,3.2-1.44,3.2-3.2v-24.21c0-.86-.33-1.66-.94-2.26l-8.45-8.45c-.6-.6-1.41-.94-2.26-.94h-50.82c-1.77,0-3.2,1.44-3.2,3.2v13.33h-22.78c-1.24-6.86-6.66-12.27-13.52-13.52v-46.58c6.86-1.24,12.27-6.66,13.52-13.52h22.78v13.33c0,1.77,1.44,3.2,3.2,3.2h59.27c1.77,0,3.2-1.44,3.2-3.2v-24.21c0-.86-.33-1.66-.94-2.26l-8.45-8.45c-.6-.6-1.41-.94-2.26-.94h-50.82c-1.77,0-3.2,1.44-3.2,3.2v13.33h-22.78c-1.42-7.83-8.28-13.8-16.52-13.8-6.89,0-12.82,4.17-15.41,10.12-22.97-10.85-40.46-42.85-49.03-61.47-.04-.08-.07-.15-.11-.23,2.73-1.95,4.72-4.85,5.46-8.24h42.56c1.42,7.84,8.28,13.81,16.52,13.81s15.1-5.97,16.52-13.81h22.78v13.34c0,1.77,1.44,3.2,3.2,3.2Zm58.2,153.77c0,.66-.54,1.2-1.2,1.2h-54.73c-.66,0-1.2-.54-1.2-1.2v-28.13c0-.66,.54-1.2,1.2-1.2h47.61c.32,0,.62,.12,.85,.35l7.12,7.12c.23,.23,.35,.53,.35,.85v21.01Zm0-79.62c0,.66-.54,1.2-1.2,1.2h-54.73c-.66,0-1.2-.54-1.2-1.2v-28.13c0-.66,.54-1.2,1.2-1.2h47.61c.32,0,.62,.12,.85,.35l7.12,7.12c.23,.23,.35,.53,.35,.85v21.01Zm-89.9,65.55c0,5.96-4.84,10.8-10.8,10.8s-10.8-4.85-10.8-10.8,4.84-10.8,10.8-10.8,10.8,4.85,10.8,10.8Zm-10.8-90.42c5.96,0,10.8,4.85,10.8,10.8s-4.84,10.8-10.8,10.8-10.8-4.85-10.8-10.8,4.84-10.8,10.8-10.8Zm0-58.02c-5.96,0-10.8-4.85-10.8-10.8s4.84-10.8,10.8-10.8,10.8,4.85,10.8,10.8-4.84,10.8-10.8,10.8Zm100.7,3.26c0,.66-.54,1.2-1.2,1.2h-54.73c-.66,0-1.2-.54-1.2-1.2V5.47c0-.66,.54-1.2,1.2-1.2h47.61c.32,0,.62,.12,.85,.35l7.12,7.12c.23,.23,.35,.53,.35,.85v21.01Z"/>
      <path d="M210.07,239.79c-.6-.6-1.41-.94-2.26-.94h-50.82c-1.77,0-3.2,1.44-3.2,3.2v13.33h-25.49v3c0-7.62-6.18-13.8-13.8-13.8h0c-6.59,0-12.09,4.62-13.46,10.8H58.47c-1.42-7.84-8.28-13.8-16.52-13.8-3.7,0-7.11,1.21-9.89,3.25-10.53-9.53-26.06-29.74-26.06-66.06,0-33.6,18.23-56.38,29.09-66.97,.15-.15,.3-.29,.45-.43,1.92,1.01,4.09,1.58,6.41,1.58h0c7.62,0,13.8-6.18,13.8-13.8s-6.18-13.8-13.8-13.8h0c-7.62,0-13.8,6.18-13.8,13.8,0,3.12,1.05,5.99,2.8,8.31-.01,.01-.03,.03-.04,.04C19.36,118.75,0,142.97,0,178.77c0,38.44,16.58,60.1,27.92,70.4-1.74,2.65-2.77,5.81-2.77,9.21,0,9.26,7.54,16.8,16.8,16.8,8.24,0,15.09-5.96,16.52-13.8h42.56c1.37,6.18,6.87,10.8,13.46,10.8h0c7.62,0,13.8-6.18,13.8-13.8v3h25.49v13.33c0,1.77,1.44,3.2,3.2,3.2h59.27c1.77,0,3.2-1.44,3.2-3.2v-24.21c0-.86-.33-1.66-.94-2.26l-8.45-8.45Zm-168.12,29.4c-5.96,0-10.8-4.85-10.8-10.8s4.85-10.8,10.8-10.8,10.8,4.85,10.8,10.8-4.84,10.8-10.8,10.8Zm116.1,3.26v-28.13c0-.66,.54-1.2,1.2-1.2h47.61c.32,0,.62,.12,.85,.35l7.12,7.12c.23,.23,.35,.53,.35,.85v21.01c0,.66-.54,1.2-1.2,1.2h-54.73c-.66,0-1.2-.54-1.2-1.2Z"/>
      <path d="M210.07,319.41c-.6-.6-1.41-.94-2.26-.94h-50.82c-1.77,0-3.2,1.44-3.2,3.2v13.33h-25.49v3c0-7.62-6.18-13.8-13.8-13.8h0c-6.59,0-12.09,4.62-13.46,10.8H55.41c-1.37-6.18-6.87-10.8-13.46-10.8h0c-7.62,0-13.8,6.18-13.8,13.8h0c0,6.59,4.62,12.09,10.8,13.46v52.69c-6.18,1.37-10.8,6.87-10.8,13.46,0,7.62,6.18,13.8,13.8,13.8h0c7.62,0,13.8-6.18,13.8-13.8,0-6.59-4.62-12.09-10.8-13.46v-52.69c5.21-1.16,9.31-5.25,10.46-10.46h45.61c1.37,6.18,6.87,10.8,13.46,10.8h0c7.62,0,13.8-6.18,13.8-13.8v3h25.49v13.33c0,1.77,1.44,3.2,3.2,3.2h59.27c1.77,0,3.2-1.44,3.2-3.2v-24.21c0-.86-.33-1.66-.94-2.26l-8.45-8.45Zm-52.01,32.66v-28.13c0-.66,.54-1.2,1.2-1.2h47.61c.32,0,.62,.12,.85,.35l7.12,7.12c.23,.23,.35,.53,.35,.85v21.01c0,.66-.54,1.2-1.2,1.2h-54.73c-.66,0-1.2-.54-1.2-1.2Z"/>
      <path d="M210.07,399.03c-.6-.6-1.41-.94-2.26-.94h-50.82c-1.77,0-3.2,1.44-3.2,3.2v13.33h-25.49v3c0-7.62-6.18-13.8-13.8-13.8s-13.8,6.18-13.8,13.8,6.18,13.8,13.8,13.8h0c7.62,0,13.8-6.18,13.8-13.8v3h25.49v13.33c0,1.77,1.44,3.2,3.2,3.2h59.27c1.77,0,3.2-1.44,3.2-3.2v-24.21c0-.86-.33-1.66-.94-2.26l-8.45-8.45Zm-52.01,32.66v-28.13c0-.66,.54-1.2,1.2-1.2h47.61c.32,0,.62,.12,.85,.35l7.12,7.12c.23,.23,.35,.53,.35,.85v21.01c0,.66-.54,1.2-1.2,1.2h-54.73c-.66,0-1.2-.54-1.2-1.2Z"/>
      <path d="M114.49,15.74c-2.1,0-3.8,1.7-3.8,3.8s1.7,3.8,3.8,3.8,3.8-1.71,3.8-3.8-1.71-3.8-3.8-3.8Zm0,6c-1.21,0-2.2-.99-2.2-2.2s.99-2.2,2.2-2.2,2.2,.99,2.2,2.2-.99,2.2-2.2,2.2Z"/>
      <path d="M114.49,102.95c2.1,0,3.8-1.71,3.8-3.8s-1.71-3.8-3.8-3.8-3.8,1.71-3.8,3.8,1.7,3.8,3.8,3.8Zm0-6c1.21,0,2.2,.99,2.2,2.2s-.99,2.2-2.2,2.2-2.2-.99-2.2-2.2,.99-2.2,2.2-2.2Z"/>
      <path d="M110.69,178.77c0,2.1,1.7,3.8,3.8,3.8s3.8-1.71,3.8-3.8-1.71-3.8-3.8-3.8-3.8,1.71-3.8,3.8Zm6,0c0,1.21-.99,2.2-2.2,2.2s-2.2-.99-2.2-2.2,.99-2.2,2.2-2.2,2.2,.99,2.2,2.2Z"/>
      <path d="M41.95,164.97h0c-7.62,0-13.8,6.18-13.8,13.8s6.18,13.8,13.8,13.8h0c7.62,0,13.8-6.18,13.8-13.8s-6.18-13.8-13.8-13.8Z"/>
      <path d="M41.95,254.59c-2.1,0-3.8,1.71-3.8,3.8s1.71,3.8,3.8,3.8,3.8-1.7,3.8-3.8-1.7-3.8-3.8-3.8Zm0,6c-1.21,0-2.2-.99-2.2-2.2s.99-2.2,2.2-2.2,2.2,.99,2.2,2.2-.99,2.2-2.2,2.2Z"/>
      <path d="M179.26,12.43c-.18-.18-.41-.27-.7-.27h-2.76c-.28,0-.51,.1-.68,.31l-2.01,1.95c-.17,.17-.25,.4-.25,.7v7.61c0,.3,.08,.53,.25,.7l2.01,1.97c.19,.19,.42,.29,.68,.29h2.76c.28,0,.51-.09,.7-.27l1.97-1.97c.19-.19,.29-.43,.29-.71v-7.61c0-.27-.1-.5-.29-.7l-1.97-1.99Zm-4.41,7.38c-.05,0-.08-.05-.08-.16v-3.9c0-.17,.06-.3,.17-.39l1.1-1.12c.1-.1,.24-.15,.41-.15h1.47c.17,0,.3,.05,.41,.15l.97,.97s.06,.08,.06,.12-.02,.08-.06,.12l-4.33,4.31s-.08,.06-.12,.06Zm4.75,2.28c0,.15-.06,.28-.17,.39l-1.1,1.1c-.09,.12-.23,.17-.41,.17h-1.47c-.17,0-.3-.06-.41-.17l-.97-.95c-.05-.05-.08-.09-.08-.12s.03-.06,.08-.12l4.33-4.31s.08-.06,.12-.06c.05,0,.08,.05,.08,.15v3.9Z"/>
      <path d="M189.31,12.43c-.18-.18-.41-.27-.7-.27h-2.76c-.28,0-.51,.1-.68,.31l-2.01,1.95c-.17,.17-.25,.4-.25,.7v7.61c0,.3,.08,.53,.25,.7l2.01,1.97c.19,.19,.42,.29,.68,.29h2.76c.28,0,.52-.09,.7-.27l1.97-1.97c.19-.19,.29-.43,.29-.71v-7.61c0-.27-.1-.5-.29-.7l-1.97-1.99Zm-4.41,7.38c-.05,0-.08-.05-.08-.16v-3.9c0-.17,.06-.3,.17-.39l1.1-1.12c.1-.1,.24-.15,.41-.15h1.47c.17,0,.3,.05,.41,.15l.97,.97s.06,.08,.06,.12-.02,.08-.06,.12l-4.33,4.31s-.08,.06-.12,.06Zm4.75,2.28c0,.15-.06,.28-.17,.39l-1.1,1.1c-.09,.12-.22,.17-.41,.17h-1.47c-.17,0-.3-.06-.41-.17l-.97-.95c-.05-.05-.08-.09-.08-.12s.03-.06,.08-.12l4.33-4.31s.08-.06,.12-.06c.05,0,.08,.05,.08,.15v3.9Z"/>
      <path d="M199.82,23.76h-.81c-.22,0-.4-.07-.54-.21-.14-.14-.21-.32-.21-.54V13.11c0-.26-.09-.48-.28-.67-.19-.19-.42-.28-.69-.28-.12,0-.24,.02-.36,.06-.12,.04-.24,.11-.34,.21l-2.51,2.51c-.1,.1-.17,.22-.21,.34s-.06,.24-.06,.36c0,.27,.09,.5,.28,.69,.19,.19,.41,.28,.67,.28,.28,0,.51-.09,.7-.27l.68-.68s.08-.06,.12-.06c.05,0,.08,.05,.08,.16v7.25c0,.22-.07,.4-.22,.54-.15,.14-.33,.21-.53,.21h-.81c-.26,0-.48,.1-.67,.29-.19,.19-.28,.42-.28,.7s.09,.48,.28,.67c.19,.19,.41,.28,.67,.28h5.06c.26,0,.48-.09,.67-.28,.19-.19,.28-.41,.28-.67,0-.27-.09-.5-.28-.7-.19-.19-.41-.29-.67-.29Z"/>
      <path d="M179.26,93.36c-.18-.18-.41-.27-.7-.27h-2.76c-.28,0-.51,.1-.68,.31l-2.01,1.95c-.17,.17-.25,.4-.25,.7v7.61c0,.3,.08,.53,.25,.7l2.01,1.97c.19,.19,.42,.29,.68,.29h2.76c.28,0,.51-.09,.7-.27l1.97-1.97c.19-.19,.29-.43,.29-.71v-7.61c0-.27-.1-.5-.29-.7l-1.97-1.99Zm-4.41,7.38c-.05,0-.08-.05-.08-.16v-3.9c0-.17,.06-.3,.17-.39l1.1-1.12c.1-.1,.24-.15,.41-.15h1.47c.17,0,.3,.05,.41,.15l.97,.97s.06,.08,.06,.12-.02,.08-.06,.12l-4.33,4.31s-.08,.06-.12,.06Zm4.75,2.28c0,.15-.06,.28-.17,.39l-1.1,1.1c-.09,.12-.23,.17-.41,.17h-1.47c-.17,0-.3-.06-.41-.17l-.97-.95c-.05-.05-.08-.09-.08-.12s.03-.06,.08-.12l4.33-4.31s.08-.06,.12-.06c.05,0,.08,.05,.08,.15v3.9Z"/>
      <path d="M189.31,93.36c-.18-.18-.41-.27-.7-.27h-2.76c-.28,0-.51,.1-.68,.31l-2.01,1.95c-.17,.17-.25,.4-.25,.7v7.61c0,.3,.08,.53,.25,.7l2.01,1.97c.19,.19,.42,.29,.68,.29h2.76c.28,0,.52-.09,.7-.27l1.97-1.97c.19-.19,.29-.43,.29-.71v-7.61c0-.27-.1-.5-.29-.7l-1.97-1.99Zm-4.41,7.38c-.05,0-.08-.05-.08-.16v-3.9c0-.17,.06-.3,.17-.39l1.1-1.12c.1-.1,.24-.15,.41-.15h1.47c.17,0,.3,.05,.41,.15l.97,.97s.06,.08,.06,.12-.02,.08-.06,.12l-4.33,4.31s-.08,.06-.12,.06Zm4.75,2.28c0,.15-.06,.28-.17,.39l-1.1,1.1c-.09,.12-.22,.17-.41,.17h-1.47c-.17,0-.3-.06-.41-.17l-.97-.95c-.05-.05-.08-.09-.08-.12s.03-.06,.08-.12l4.33-4.31s.08-.06,.12-.06c.05,0,.08,.05,.08,.15v3.9Z"/>
      <path d="M199.76,93.38c-.19-.19-.42-.29-.7-.29h-3.56c-.27,0-.5,.1-.7,.29l-1.6,1.58c-.17,.21-.25,.43-.25,.68v.87c0,.27,.09,.5,.27,.69,.18,.19,.41,.28,.68,.28s.5-.09,.69-.28c.19-.19,.28-.42,.28-.69v-.21c0-.18,.06-.32,.17-.41l.71-.71c.1-.1,.23-.15,.39-.15h2.28c.15,0,.28,.05,.39,.15l.75,.75c.09,.09,.14,.19,.14,.31,0,.14-.04,.24-.14,.29l-6.36,6.36c-.17,.17-.25,.39-.25,.68v2.11c0,.26,.09,.48,.27,.67,.18,.19,.41,.28,.68,.28h6.77c.26,0,.48-.09,.67-.28,.19-.19,.28-.41,.28-.67,0-.27-.09-.5-.28-.7-.19-.19-.41-.29-.67-.29h-5.03c-.18,0-.35-.05-.5-.15-.15-.1-.23-.25-.23-.43,0-.1,.04-.2,.13-.29l6.3-6.3c.1-.1,.17-.22,.21-.34,.04-.12,.06-.24,.06-.36v-1.18c0-.26-.09-.48-.27-.66l-1.58-1.6Z"/>
      <path d="M179.26,171.38c-.18-.18-.41-.27-.7-.27h-2.76c-.28,0-.51,.1-.68,.31l-2.01,1.95c-.17,.17-.25,.4-.25,.7v7.61c0,.3,.08,.53,.25,.7l2.01,1.97c.19,.19,.42,.29,.68,.29h2.76c.28,0,.51-.09,.7-.27l1.97-1.97c.19-.19,.29-.43,.29-.71v-7.61c0-.27-.1-.5-.29-.7l-1.97-1.99Zm-4.41,7.38c-.05,0-.08-.05-.08-.16v-3.9c0-.17,.06-.3,.17-.39l1.1-1.12c.1-.1,.24-.15,.41-.15h1.47c.17,0,.3,.05,.41,.15l.97,.97s.06,.08,.06,.12-.02,.08-.06,.12l-4.33,4.31s-.08,.06-.12,.06Zm4.75,2.28c0,.15-.06,.28-.17,.39l-1.1,1.1c-.09,.12-.23,.17-.41,.17h-1.47c-.17,0-.3-.06-.41-.17l-.97-.95c-.05-.05-.08-.09-.08-.12s.03-.06,.08-.12l4.33-4.31s.08-.06,.12-.06c.05,0,.08,.05,.08,.15v3.9Z"/>
      <path d="M189.31,171.38c-.18-.18-.41-.27-.7-.27h-2.76c-.28,0-.51,.1-.68,.31l-2.01,1.95c-.17,.17-.25,.4-.25,.7v7.61c0,.3,.08,.53,.25,.7l2.01,1.97c.19,.19,.42,.29,.68,.29h2.76c.28,0,.52-.09,.7-.27l1.97-1.97c.19-.19,.29-.43,.29-.71v-7.61c0-.27-.1-.5-.29-.7l-1.97-1.99Zm-4.41,7.38c-.05,0-.08-.05-.08-.16v-3.9c0-.17,.06-.3,.17-.39l1.1-1.12c.1-.1,.24-.15,.41-.15h1.47c.17,0,.3,.05,.41,.15l.97,.97s.06,.08,.06,.12-.02,.08-.06,.12l-4.33,4.31s-.08,.06-.12,.06Zm4.75,2.28c0,.15-.06,.28-.17,.39l-1.1,1.1c-.09,.12-.22,.17-.41,.17h-1.47c-.17,0-.3-.06-.41-.17l-.97-.95c-.05-.05-.08-.09-.08-.12s.03-.06,.08-.12l4.33-4.31s.08-.06,.12-.06c.05,0,.08,.05,.08,.15v3.9Z"/>
      <path d="M201.35,172.99l-1.58-1.58c-.19-.19-.42-.29-.7-.29h-3.56c-.27,0-.5,.1-.7,.29l-1.6,1.58c-.17,.21-.25,.43-.25,.68v.87c0,.27,.09,.5,.27,.69,.18,.19,.41,.28,.68,.28s.5-.09,.69-.28c.19-.19,.28-.42,.28-.69v-.21c0-.18,.06-.32,.17-.41l.71-.71c.1-.1,.23-.15,.39-.15h2.28c.15,0,.28,.05,.39,.15l.71,.71c.12,.09,.17,.23,.17,.41v1.31c0,.15-.06,.28-.17,.39l-.71,.73c-.12,.12-.25,.17-.39,.17h-2.18c-.27,0-.5,.09-.69,.27-.19,.18-.28,.41-.28,.68s.09,.5,.28,.69c.19,.19,.42,.28,.69,.28h2.18c.14,0,.27,.06,.39,.17l.71,.73c.12,.09,.17,.22,.17,.39v1.29c0,.17-.06,.3-.17,.41l-.71,.7c-.09,.12-.22,.17-.39,.17h-2.28c-.15,0-.28-.06-.39-.17l-.71-.7c-.12-.1-.17-.24-.17-.41v-.23c0-.26-.09-.48-.28-.66-.19-.18-.42-.27-.69-.27s-.5,.09-.68,.27-.27,.4-.27,.66v.89c0,.24,.08,.47,.25,.68l1.6,1.58c.19,.19,.42,.29,.7,.29h3.56c.27,0,.5-.1,.7-.29l1.58-1.58c.1-.1,.17-.21,.21-.33,.04-.12,.06-.23,.06-.35v-2.59c0-.28-.09-.52-.27-.7l-.37-.37c-.15-.15-.23-.34-.23-.56,0-.21,.08-.39,.23-.54l.37-.37c.18-.18,.27-.41,.27-.7v-2.61c0-.12-.02-.23-.06-.35-.04-.12-.11-.23-.21-.33Z"/>
      <path d="M175.12,263.2c.19,.19,.42,.29,.68,.29h2.76c.28,0,.51-.09,.7-.27l1.97-1.97c.19-.19,.29-.43,.29-.71v-7.61c0-.27-.1-.5-.29-.7l-1.97-1.99c-.18-.18-.41-.27-.7-.27h-2.76c-.28,0-.51,.1-.68,.31l-2.01,1.95c-.17,.17-.25,.4-.25,.7v7.61c0,.3,.08,.53,.25,.7l2.01,1.97Zm4.41-7.36c.05,0,.08,.05,.08,.15v3.9c0,.15-.06,.28-.17,.39l-1.1,1.1c-.09,.12-.23,.17-.41,.17h-1.47c-.17,0-.3-.06-.41-.17l-.97-.95c-.05-.05-.08-.09-.08-.12s.03-.06,.08-.12l4.33-4.31s.08-.06,.12-.06Zm-4.75-2.28c0-.17,.06-.3,.17-.39l1.1-1.12c.1-.1,.24-.15,.41-.15h1.47c.17,0,.3,.05,.41,.15l.97,.97s.06,.08,.06,.12-.02,.08-.06,.12l-4.33,4.31s-.08,.06-.12,.06c-.05,0-.08-.05-.08-.16v-3.9Z"/>
      <path d="M185.17,263.2c.19,.19,.42,.29,.68,.29h2.76c.28,0,.52-.09,.7-.27l1.97-1.97c.19-.19,.29-.43,.29-.71v-7.61c0-.27-.1-.5-.29-.7l-1.97-1.99c-.18-.18-.41-.27-.7-.27h-2.76c-.28,0-.51,.1-.68,.31l-2.01,1.95c-.17,.17-.25,.4-.25,.7v7.61c0,.3,.08,.53,.25,.7l2.01,1.97Zm4.41-7.36c.05,0,.08,.05,.08,.15v3.9c0,.15-.06,.28-.17,.39l-1.1,1.1c-.09,.12-.22,.17-.41,.17h-1.47c-.17,0-.3-.06-.41-.17l-.97-.95c-.05-.05-.08-.09-.08-.12s.03-.06,.08-.12l4.33-4.31s.08-.06,.12-.06Zm-4.75-2.28c0-.17,.06-.3,.17-.39l1.1-1.12c.1-.1,.24-.15,.41-.15h1.47c.17,0,.3,.05,.41,.15l.97,.97s.06,.08,.06,.12-.02,.08-.06,.12l-4.33,4.31s-.08,.06-.12,.06c-.05,0-.08-.05-.08-.16v-3.9Z"/>
      <path d="M194.82,257.83c.19,.19,.42,.29,.7,.29h3.42c.22,0,.4,.07,.55,.22s.22,.33,.22,.53v3.67c0,.26,.09,.48,.28,.67,.19,.19,.42,.28,.69,.28,.26,0,.48-.09,.67-.28,.19-.19,.28-.41,.28-.67v-11.63c0-.26-.09-.48-.28-.67-.19-.19-.41-.28-.67-.28-.27,0-.5,.09-.69,.28-.19,.19-.28,.41-.28,.67v4.52c0,.22-.07,.4-.22,.54-.15,.14-.33,.21-.55,.21h-2.78c-.15,0-.28-.05-.39-.15l-.71-.71c-.12-.1-.17-.24-.17-.41v-4c0-.26-.09-.48-.28-.67s-.42-.28-.69-.28-.5,.09-.68,.28c-.18,.19-.27,.41-.27,.67v4.64c0,.3,.08,.53,.25,.7l1.6,1.58Z"/>
      <path d="M175.12,343.72c.19,.19,.42,.29,.68,.29h2.76c.28,0,.51-.09,.7-.27l1.97-1.97c.19-.19,.29-.43,.29-.71v-7.61c0-.27-.1-.5-.29-.7l-1.97-1.99c-.18-.18-.41-.27-.7-.27h-2.76c-.28,0-.51,.1-.68,.31l-2.01,1.95c-.17,.17-.25,.4-.25,.7v7.61c0,.3,.08,.53,.25,.7l2.01,1.97Zm4.41-7.36c.05,0,.08,.05,.08,.15v3.9c0,.15-.06,.28-.17,.39l-1.1,1.1c-.09,.12-.23,.17-.41,.17h-1.47c-.17,0-.3-.06-.41-.17l-.97-.95c-.05-.05-.08-.09-.08-.12s.03-.06,.08-.12l4.33-4.31s.08-.06,.12-.06Zm-4.75-2.28c0-.17,.06-.3,.17-.39l1.1-1.12c.1-.1,.24-.15,.41-.15h1.47c.17,0,.3,.05,.41,.15l.97,.97s.06,.08,.06,.12-.02,.08-.06,.12l-4.33,4.31s-.08,.06-.12,.06c-.05,0-.08-.05-.08-.16v-3.9Z"/>
      <path d="M185.17,343.72c.19,.19,.42,.29,.68,.29h2.76c.28,0,.52-.09,.7-.27l1.97-1.97c.19-.19,.29-.43,.29-.71v-7.61c0-.27-.1-.5-.29-.7l-1.97-1.99c-.18-.18-.41-.27-.7-.27h-2.76c-.28,0-.51,.1-.68,.31l-2.01,1.95c-.17,.17-.25,.4-.25,.7v7.61c0,.3,.08,.53,.25,.7l2.01,1.97Zm4.41-7.36c.05,0,.08,.05,.08,.15v3.9c0,.15-.06,.28-.17,.39l-1.1,1.1c-.09,.12-.22,.17-.41,.17h-1.47c-.17,0-.3-.06-.41-.17l-.97-.95c-.05-.05-.08-.09-.08-.12s.03-.06,.08-.12l4.33-4.31s.08-.06,.12-.06Zm-4.75-2.28c0-.17,.06-.3,.17-.39l1.1-1.12c.1-.1,.24-.15,.41-.15h1.47c.17,0,.3,.05,.41,.15l.97,.97s.06,.08,.06,.12-.02,.08-.06,.12l-4.33,4.31s-.08,.06-.12,.06c-.05,0-.08-.05-.08-.16v-3.9Z"/>
      <path d="M194.82,343.72c.19,.19,.42,.29,.7,.29h3.54c.28,0,.52-.1,.71-.29l1.58-1.58c.1-.1,.17-.21,.21-.33,.04-.12,.06-.23,.06-.35v-3.03c0-.13-.02-.25-.06-.38-.04-.12-.11-.23-.21-.32l-1.58-1.58c-.19-.19-.43-.29-.71-.29h-2.9c-.15,0-.28-.06-.39-.17l-.71-.7c-.12-.1-.17-.24-.17-.41v-1.41c0-.22,.07-.4,.22-.54,.15-.14,.33-.21,.55-.21h5.03c.26,0,.48-.09,.67-.28,.19-.19,.28-.42,.28-.71,0-.26-.09-.48-.28-.67-.19-.19-.41-.28-.67-.28h-6.77c-.27,0-.5,.09-.68,.28-.18,.19-.27,.41-.27,.67v3.79c0,.26,.08,.49,.25,.7l1.6,1.58c.19,.19,.42,.29,.7,.29h2.92c.15,0,.28,.05,.39,.16l.71,.71c.12,.09,.17,.23,.17,.41v1.74c0,.17-.06,.3-.17,.41l-.71,.7c-.09,.12-.22,.17-.39,.17h-2.28c-.15,0-.28-.06-.39-.17l-.71-.7c-.12-.1-.17-.24-.17-.41v-.23c0-.26-.09-.48-.28-.67-.19-.19-.42-.28-.69-.28s-.5,.09-.68,.28c-.18,.19-.27,.41-.27,.67v.89c0,.24,.08,.47,.25,.68l1.6,1.58Z"/>
      <path d="M175.12,422.98c.19,.19,.42,.29,.68,.29h2.76c.28,0,.51-.09,.7-.27l1.97-1.97c.19-.19,.29-.43,.29-.71v-7.61c0-.27-.1-.5-.29-.7l-1.97-1.99c-.18-.18-.41-.27-.7-.27h-2.76c-.28,0-.51,.1-.68,.31l-2.01,1.95c-.17,.17-.25,.4-.25,.7v7.61c0,.3,.08,.53,.25,.7l2.01,1.97Zm4.41-7.36c.05,0,.08,.05,.08,.15v3.9c0,.15-.06,.28-.17,.39l-1.1,1.1c-.09,.12-.23,.17-.41,.17h-1.47c-.17,0-.3-.06-.41-.17l-.97-.95c-.05-.05-.08-.09-.08-.12s.03-.06,.08-.12l4.33-4.31s.08-.06,.12-.06Zm-4.75-2.28c0-.17,.06-.3,.17-.39l1.1-1.12c.1-.1,.24-.15,.41-.15h1.47c.17,0,.3,.05,.41,.15l.97,.97s.06,.08,.06,.12-.02,.08-.06,.12l-4.33,4.31s-.08,.06-.12,.06c-.05,0-.08-.05-.08-.16v-3.9Z"/>
      <path d="M185.17,422.98c.19,.19,.42,.29,.68,.29h2.76c.28,0,.52-.09,.7-.27l1.97-1.97c.19-.19,.29-.43,.29-.71v-7.61c0-.27-.1-.5-.29-.7l-1.97-1.99c-.18-.18-.41-.27-.7-.27h-2.76c-.28,0-.51,.1-.68,.31l-2.01,1.95c-.17,.17-.25,.4-.25,.7v7.61c0,.3,.08,.53,.25,.7l2.01,1.97Zm4.41-7.36c.05,0,.08,.05,.08,.15v3.9c0,.15-.06,.28-.17,.39l-1.1,1.1c-.09,.12-.22,.17-.41,.17h-1.47c-.17,0-.3-.06-.41-.17l-.97-.95c-.05-.05-.08-.09-.08-.12s.03-.06,.08-.12l4.33-4.31s.08-.06,.12-.06Zm-4.75-2.28c0-.17,.06-.3,.17-.39l1.1-1.12c.1-.1,.24-.15,.41-.15h1.47c.17,0,.3,.05,.41,.15l.97,.97s.06,.08,.06,.12-.02,.08-.06,.12l-4.33,4.31s-.08,.06-.12,.06c-.05,0-.08-.05-.08-.16v-3.9Z"/>
      <path d="M194.82,422.98c.19,.19,.42,.29,.7,.29h3.54c.28,0,.52-.1,.71-.29l1.58-1.58c.1-.1,.17-.21,.21-.33,.04-.12,.06-.23,.06-.35v-2.59c0-.28-.09-.52-.27-.7l-1.58-1.6c-.09-.08-.2-.14-.32-.19-.12-.05-.25-.08-.4-.08h-3.4c-.22,0-.4-.08-.55-.23-.15-.15-.22-.34-.22-.56v-1.82c0-.18,.06-.32,.17-.41l.71-.71c.1-.1,.23-.15,.39-.15h2.28c.15,0,.28,.05,.39,.15l.71,.71c.12,.09,.17,.23,.17,.41v.21c0,.27,.09,.5,.28,.69,.19,.19,.42,.28,.69,.28,.26,0,.48-.09,.67-.28s.28-.42,.28-.69v-.87c0-.12-.02-.23-.06-.35-.04-.12-.11-.23-.21-.33l-1.58-1.58c-.19-.19-.43-.29-.71-.29h-3.54c-.27,0-.5,.1-.7,.29l-1.6,1.58c-.17,.21-.25,.43-.25,.68v8.43c0,.24,.08,.47,.25,.68l1.6,1.58Zm.06-4.72c0-.22,.07-.41,.22-.56,.15-.15,.33-.23,.55-.23h2.78c.14,0,.27,.06,.39,.17l.71,.73c.12,.09,.17,.22,.17,.39v1.29c0,.17-.06,.3-.17,.41l-.71,.7c-.09,.12-.22,.17-.39,.17h-2.28c-.15,0-.28-.06-.39-.17l-.71-.7c-.12-.1-.17-.24-.17-.41v-1.8Z"/>
    </g>
  </g>
</svg>