<?xml version="1.0" encoding="UTF-8"?>
<svg id="Layer_2" data-name="Layer 2" xmlns="http://www.w3.org/2000/svg" viewBox="0 0 223.52 73.33">
  <g id="Layer_1-2" data-name="Layer 1">
    <path d="M220.41,18.85c-.27-.28-.66-.45-1.05-.45h-6.07c-.4,0-.79,.17-1.04,.44l-2.68,2.67c-.28,.28-.43,.65-.43,1.05v.48l-.28,.28c-.27,.29-.41,.65-.41,1.03v.6H105.08v-1.83c0-.4-.15-.77-.43-1.05l-2.66-2.65c-.27-.29-.66-.46-1.07-.46h-6.07c-.4,0-.79,.17-1.04,.44l-2.68,2.68c-.28,.28-.43,.65-.43,1.05v.48l-.27,.27c-.19,.21-.33,.46-.38,.72h-3.05v-1.48c0-.39-.16-.77-.43-1.05l-.21-.21,7.19-7.19c.28,.27,.65,.42,1.03,.42h5.43c.39,0,.77-.16,1.05-.44l.22-.22,.52-.04c.39,0,.77-.16,1.05-.43l2.68-2.68c.28-.28,.43-.65,.43-1.05V4.16c0-.39-.16-.78-.43-1.05l-2.66-2.65c-.27-.29-.66-.46-1.07-.46h-6.07c-.4,0-.77,.16-1.05,.44l-2.67,2.67c-.28,.28-.44,.66-.44,1.05v.49l-.25,.25c-.28,.28-.43,.65-.43,1.05v5.43c0,.39,.15,.77,.44,1.05l.03,.03-7.2,7.2-.24-.24c-.27-.29-.66-.46-1.07-.46h-6.07c-.4,0-.77,.16-1.05,.44l-2.67,2.67c-.28,.28-.44,.66-.44,1.05v.49l-.25,.25c-.21,.21-.35,.47-.41,.75H15.08v-1.48c0-.4-.15-.77-.43-1.05l-2.66-2.65c-.27-.29-.66-.46-1.07-.46H4.85c-.4,0-.77,.16-1.05,.44l-2.67,2.67c-.28,.28-.44,.66-.44,1.05v.49l-.25,.25c-.28,.28-.44,.66-.44,1.05v5.43c0,.4,.16,.77,.44,1.05l2.21,2.22c.28,.28,.66,.44,1.05,.44h5.43c.39,0,.77-.16,1.05-.44l.26-.26h.48c.4,0,.77-.15,1.05-.43l2.68-2.68c.28-.28,.43-.65,.43-1.05v-1.48h56.83v2.62c0,.4,.16,.77,.44,1.05l2.21,2.21c.28,.28,.66,.44,1.05,.44h5.43c.39,0,.78-.16,1.05-.44l.26-.26h.48c.39,0,.77-.16,1.05-.43l2.68-2.68c.28-.27,.43-.66,.43-1.05v-1.48h3.01v2.62c0,.38,.15,.74,.44,1.05l.3,.3c.14,.14,.28,.27,.42,.42l.79,.79c.21,.21,.45,.45,.73,.74,.29,.27,.65,.42,1.04,.42h2.28v3.81h-1.14c-.39,0-.77,.16-1.04,.44l-2.69,2.68c-.28,.28-.43,.65-.43,1.04v.48c-.08,.09-.17,.17-.25,.26-.28,.28-.44,.66-.44,1.05l-3.36,.04v-1.83c0-.39-.15-.76-.43-1.05l-2.68-2.67c-.28-.28-.66-.44-1.05-.44h-6.07c-.38,0-.76,.16-1.05,.44l-2.68,2.68c-.28,.28-.43,.65-.43,1.04v.48c-.08,.08-.17,.17-.25,.25-.28,.28-.44,.66-.44,1.05v5.43c0,.38,.15,.75,.44,1.05l.76,.76c.17,.17,.34,.33,.51,.51l.95,.95c.28,.28,.66,.43,1.05,.43h5.43c.39,0,.77-.16,1.05-.44l.26-.26h.48c.39,0,.77-.16,1.05-.43l2.68-2.68c.28-.27,.43-.66,.43-1.05v-1.13h3.36v2.28c0,.38,.15,.74,.44,1.05,.72,.71,1.21,1.2,1.85,1.85l.39,.39c.29,.26,.65,.41,1.03,.41h5.43c.39,0,.77-.16,1.05-.44l.25-.26h.48c.39,0,.77-.16,1.05-.43l.24-.24,9.55,9.54-.24,.24c-.28,.28-.43,.65-.43,1.05v.48l-.25,.26c-.28,.28-.44,.66-.44,1.05v5.43c0,.39,.16,.77,.44,1.05l2.22,2.22c.28,.28,.66,.43,1.05,.43h5.43c.4,0,.77-.16,1.05-.44l.25-.25h.48c.38,0,.74-.15,1.05-.44l2.69-2.69c.27-.29,.42-.65,.42-1.04v-6.07c0-.39-.16-.77-.44-1.05l-2.7-2.7c-.28-.26-.65-.41-1.03-.41h-6.07c-.4,0-.77,.15-1.05,.43l-.24,.24-9.55-9.55,.24-.24c.27-.27,.43-.66,.43-1.05v-6.07c0-.39-.15-.76-.43-1.05l-2.68-2.67c-.28-.28-.66-.44-1.05-.44h-1.83v-3.81h.04c.39,0,.77-.16,1.05-.44l.26-.26h.48c.4,0,.77-.15,1.05-.43l2.68-2.68c.28-.28,.43-.65,.43-1.05v-1.13h103.36v1.72c0,.38,.15,.74,.44,1.05l1.58,1.58c.19,.19,.4,.4,.65,.66,.28,.27,.65,.42,1.04,.42h5.43c.39,0,.77-.16,1.05-.44l.26-.26h.48c.39,0,.78-.16,1.05-.43l2.68-2.68c.28-.27,.43-.66,.43-1.05v-6.07c0-.39-.15-.76-.43-1.05l-2.67-2.66Zm-7.74,8.94v-4.37l1.47-1.47h4.35l1.47,1.47v4.37l-1.46,1.46h-4.37l-1.47-1.46Zm-118.43,19.45v-4.37l1.46-1.46h4.37l1.46,1.46v4.37l-1.47,1.46h-4.37l-1.47-1.46Zm0-18.9v-4.37l1.47-1.47h4.36l1.47,1.47v4.37l-1.46,1.46h-4.37l-1.46-1.46Zm21.86,33.45h4.37l1.47,1.46v4.37l-1.46,1.46h-4.37l-1.46-1.46v-4.37l1.46-1.46ZM96.57,3.55h4.35l1.47,1.47v4.37l-1.46,1.46h-4.37l-1.47-1.46V5.01l1.47-1.47Zm-20.43,24.79v-4.37l1.47-1.47h4.35l1.47,1.47v4.37l-1.46,1.46h-4.37l-1.47-1.46ZM5.7,29.8l-1.47-1.46v-4.37l1.47-1.47h4.35l1.47,1.47v4.37l-1.46,1.46H5.7Zm71.57,18.9l-1.47-1.46v-4.37l1.47-1.46h4.37l1.47,1.46v4.37l-1.47,1.46h-4.37Z"/>
  </g>
</svg>