<?xml version="1.0" encoding="UTF-8"?>
<svg id="Layer_2" data-name="Layer 2" xmlns="http://www.w3.org/2000/svg" viewBox="0 0 90.45 402.49">
  <g id="Layer_1-2" data-name="Layer 1">
    <path d="M88.03,388.3c-2.25-2.24-5.54-3-8.53-2.01l-45.42-45.41c1-2.99,.24-6.28-2.01-8.53-1.57-1.57-3.66-2.43-5.88-2.43-3.26,0-5.92-2.66-5.92-5.92,0-2.22-.86-4.31-2.43-5.88-1.06-1.06-2.36-1.8-3.79-2.17V36c2.93-1.34,4.87-4.32,4.87-7.56,0-2.22-.86-4.31-2.43-5.88-2.31-2.31-2.31-6.06,0-8.37,1.57-1.58,2.43-3.66,2.43-5.89C18.93,3.73,15.2,0,10.62,0c-1.97,0-3.79,.7-5.22,1.84C2.27,2.78,0,5.66,0,9.08c0,2.09,.85,3.97,2.21,5.34,2.61,2.61,2.61,6.84,0,9.45-1.36,1.36-2.21,3.25-2.21,5.33,0,3.22,2.03,5.97,4.88,7.05V318.39c-.47,.29-.9,.64-1.31,1.03-2.95,2.95-2.95,7.73,0,10.68,1.48,1.48,3.41,2.21,5.34,2.21,3.69,0,6.68,2.99,6.68,6.68,0,1.94,.73,3.86,2.21,5.33,1.85,1.85,4.42,2.54,6.81,2.06,.85,.17,1.72,.2,2.59,.09l45.12,45.12c-1.39,2.82-.93,6.33,1.42,8.68,1.85,1.85,4.44,2.54,6.83,2.07,.51,.1,1.03,.15,1.57,.15,2.22,0,4.31-.86,5.88-2.43,3.24-3.25,3.24-8.52,0-11.76Zm-4.09,12.43c-.57,.15-1.18,.24-1.79,.24-1.81,0-3.52-.7-4.8-1.99-2.06-2.05-2.57-5.19-1.28-7.8l.24-.49-46.61-46.62-.49,.24c-2.61,1.29-5.75,.77-7.81-1.28-1.28-1.29-1.98-2.98-1.98-4.8,0-4.1-3.34-7.45-7.45-7.45-1.81,0-3.52-.7-4.8-1.99-1.28-1.28-1.99-2.98-1.99-4.79s.71-3.52,1.99-4.8c.34-.34,.73-.66,1.17-.93l.36-.22V34.96l-.5-.18c-2.62-.99-4.38-3.54-4.38-6.34,0-1.81,.7-3.51,1.99-4.8,2.9-2.9,2.9-7.62,0-10.53-1.29-1.28-1.99-2.98-1.99-4.8,0-3.22,2.27-5.94,5.3-6.61,.47-.11,.97-.17,1.48-.17,3.74,0,6.78,3.05,6.78,6.78,0,1.81-.7,3.52-1.99,4.8-2.9,2.91-2.9,7.63,0,10.53,1.29,1.29,1.99,2.98,1.99,4.8,0,2.79-1.76,5.34-4.38,6.34l-.49,.18V317.22l.63,.11c1.38,.24,2.63,.89,3.6,1.88,1.29,1.28,1.99,2.98,1.99,4.8,0,4.1,3.34,7.45,7.45,7.45,1.81,0,3.51,.7,4.8,1.98,1.93,1.94,2.52,4.82,1.49,7.36l-.19,.47,46.17,46.17h0l.66,.66,.47-.19c.34-.14,.7-.25,1.06-.33,2.24-.51,4.62,.15,6.28,1.82,2.65,2.64,2.65,6.95,0,9.59-.84,.85-1.88,1.45-3,1.75Z"/>
  </g>
</svg>