<?xml version="1.0" encoding="UTF-8"?>
<svg id="Layer_2" data-name="Layer 2" xmlns="http://www.w3.org/2000/svg" viewBox="0 0 2245.02 2245.02">
  <g id="Layer_1-2" data-name="Layer 1">
    <g>
      <path d="M1952.61,0H292.41C131.18,0,0,131.18,0,292.41V1952.61c0,161.23,131.18,292.41,292.41,292.41H1952.61c161.23,0,292.41-131.18,292.41-292.41V292.41C2245.02,131.18,2113.84,0,1952.61,0Zm231.4,1952.61c0,127.67-103.73,231.4-231.4,231.4H292.41c-127.52,0-231.4-103.73-231.4-231.4V292.41c0-127.52,103.88-231.4,231.4-231.4H1952.61c127.67,0,231.4,103.88,231.4,231.4V1952.61Z"/>
      <path d="M1952.61,183.04H292.41c-60.25,0-109.37,49.12-109.37,109.37V1952.61c0,60.4,49.12,109.37,109.37,109.37H1952.61c60.4,0,109.37-48.97,109.37-109.37V292.41c0-60.25-48.97-109.37-109.37-109.37Zm-552.64,1246.68c-81.91,0-159.09-31.88-217.36-90-18.76-18.76-43.62-28.98-70.01-28.98s-51.41,10.22-70.32,29.13c-58.12,57.96-135.3,89.84-217.21,89.84-169.31,0-307.05-137.74-307.05-307.21s137.74-307.21,307.05-307.21c82.06,0,159.25,32.03,217.36,89.99,18.61,18.76,43.63,29.13,70.17,29.13s51.4-10.37,70.01-29.13c58.12-57.96,135.3-89.99,217.36-89.99,169.32,0,307.06,137.74,307.06,307.21s-137.74,307.21-307.06,307.21Z"/>
    </g>
  </g>
</svg>