<?xml version="1.0" encoding="UTF-8"?>
<svg id="Layer_2" data-name="Layer 2" xmlns="http://www.w3.org/2000/svg" viewBox="0 0 67.24 148.48">
  <g id="Layer_1-2" data-name="Layer 1">
    <path d="M56.96,90.68h.01c-9.3-8.98-9.3-23.89,0-32.87h-.01c6.33-6.11,10.28-14.69,10.28-24.18C67.24,15.05,52.19,0,33.62,0S0,15.05,0,33.62c0,9.5,3.95,18.07,10.28,24.18h-.01c9.3,8.98,9.3,23.89,0,32.87h.01C3.95,96.79,0,105.36,0,114.86c0,18.57,15.05,33.62,33.62,33.62s33.62-15.05,33.62-33.62c0-9.5-3.95-18.07-10.28-24.18Z"/>
  </g>
</svg>