<svg id="Layer_1" data-name="Layer 1" xmlns="http://www.w3.org/2000/svg" viewBox="0 0 2000 2000"><defs><style>.cls-1{fill:#fff;}.cls-1,.cls-2,.cls-3{stroke:#1d1d1b;stroke-miterlimit:10;stroke-width:0.75px;}.cls-3{fill:none;}</style></defs><path class="cls-1" d="M1117.83,1725c-.09,6.76-1.69,8.91-8.14,10.31-13,2.81-26.19,3-39.35,3.79-12,.69-24.11,1-36.17,1.28-30.33.59-60.66,1.24-91,1.46-18.58.14-37.18-.3-55.76-.77-20.87-.53-41.73-1.28-62.58-2.14-8.14-.33-16.27-1.08-24.37-1.91a76.4,76.4,0,0,1-12.47-2.27c-5-1.36-5.59-2.54-5.62-7.82s0-10.27,0-15.25a23.29,23.29,0,0,0-2.62-1.31c-11.45-3.78-22.92-7.49-34.36-11.3-10.81-3.6-10.8-3.65-18.07-13-.5-.65-1-1.32-1.55-1.92a9.43,9.43,0,0,1-2.39-6.83c0-8.14-.11-16.29-.11-24.44,0-12.46.15-24.93.07-37.4a11.92,11.92,0,0,1,3.41-8.84,64,64,0,0,1,18.22-14c7-3.55,13.73-7.51,20.56-11.28a29.92,29.92,0,0,0,0-3.69q-3.51-26.93-7.09-53.84-2.58-19.51-5.23-39c-.58-4.34.38-7.54,4.59-9.89,9.85-5.51,19.37-11.61,29.16-17.22,3-1.74,4.33-3.67,4.3-7.36-.2-18.79-.08-37.58-.08-56.37q0-68.82,0-137.66a12.84,12.84,0,0,0-3.31-8.92c-10.3-12.23-20.35-24.68-30.56-37a10.48,10.48,0,0,1-2.61-7.23c.08-6.49-.1-13-.1-19.46q0-172.08,0-344.16c0-8,.16-15.95.22-23.93,0-1-.14-2-.21-2.94-.26-3.6-.61-7.21-.74-10.82a5.25,5.25,0,0,1,2.8-4.89c1.77-1.09,3.37-2.47,5.31-3.93-6.45-4.78-12.38-9.48-18.62-13.7-3.76-2.54-5.9-5.45-5.4-10.18a18.66,18.66,0,0,0-.35-4c-3.07-1-5.7-1.83-8.3-2.74a5.46,5.46,0,0,1-3.91-5.66q0-21.19,0-42.39c0-2.42.91-4.22,3.11-5.16,2.93-1.26,5.92-2.38,9.28-3.73v-6.24q0-95.78,0-191.53a29.62,29.62,0,0,1,.22-6,9.61,9.61,0,0,1,2.16-4.22c1.85-2.07,4.07-3.79,6-5.77q32.2-32.77,64.36-65.6c1.18-1.2,2.25-2.52,3.91-4.39-6.8-.73-7.82-4.66-7.63-9.74.22-5.47,0-11,0-16.45,0-1.31.19-3-.48-3.86-1.67-2.24-1.43-4.69-1.44-7.15,0-4.65.22-9.32,0-14-.28-5.1.9-9.5,4.5-13.15,2.1-2.13,2.57-4.66,2.52-7.69-.2-11.3-.13-22.61-.07-33.92,0-6.58,1.12-7.63,7.72-8.13,1-.07,2-.08,2.93-.12,6.52-.24,13-.59,19.55-.68,8.48-.1,17-.19,25.43.09,7.65.26,15.28,1.05,22.92,1.57,10.41.7,20.83,1.29,31.22,2.13a21.59,21.59,0,0,1,6.51,2,65.24,65.24,0,0,1,8.29,4.22c2.39,1.46,4.54,3.33,7.17,5.3,8.31-.2,17.27-.38,26.23-.65a12.83,12.83,0,0,0,3.2-.84c1.67-.5,3.31-1.35,5-1.51,3.4-.33,6.84-.37,10.26-.38,16.47-.05,33-.44,49.41.05,14.65.44,29.28,1.84,43.91,2.88,4.06.29,8.32.12,12.08,1.41a23.07,23.07,0,0,0,8.5,1.3c3.41-.12,6.83-.7,10.23-.6,18.52.55,37,1.25,55.57,1.91.8,0,1.61.25,2.41.36a6.64,6.64,0,0,1,4.8,3c7.61,11,15.33,21.91,22.92,32.91,2,2.87,1.72,4.9-.68,7.62-1.74,2-3.73,3.72-5.48,5.69a6.79,6.79,0,0,1-6.13,2.28c-5.36-.45-10.73-.79-16.1-1.1-4.56-.26-9.13-.42-13.84-.63.19.53.2.73.31.82a13.29,13.29,0,0,0,1.54,1.17A219.27,219.27,0,0,1,1209,420.65c27.19,30.49,46.73,65.36,57.79,105.05,7.89,28.36,10.53,57.1,4.88,86.25-4.55,23.44-14.31,44.23-32.37,59.92-5.29,4.6-6.59,9.14-6.58,15.68q.21,203.25.09,406.5c0,6.65-.16,13.31-.11,20a9.28,9.28,0,0,1-2.48,6.73q-23.45,26.12-46.72,52.4c-2.94,3.34-6.28,4.29-10.45,3.9-6.65-.62-13.32-1-20-1.45-2.24-.14-4.49,0-7.07,0-.09,2-.22,3.58-.24,5.21-.08,7.15-.21,14.3-.15,21.45a11.15,11.15,0,0,1-2.81,7.66c-8.26,9.87-16.38,19.85-24.5,29.82-3.12,3.83-7.29,7.32-8.85,11.75-1.64,4.61-.88,10.17-.89,15.31q0,90.78,0,181.56v6.08c1.51.95,2.88,1.83,4.27,2.67,10.1,6.06,20.19,12.15,30.34,18.13,2.84,1.68,4.36,3.87,3.9,7.3q-3,22.95-6.06,45.91-3.16,24-6.32,47.91c-.2,1.6-.16,3.24-.24,4.83,6.23,3.4,12.09,6.64,18,9.82,7.62,4.11,15.35,8,20.77,15.3,1.55,2.09,2.7,4,2.69,6.67,0,21.29,0,42.57-.06,63.85a9.74,9.74,0,0,1-1.15,4.71c-2,3.4-4.35,6.62-6.65,9.84a16.87,16.87,0,0,1-9,6.5c-3.58,1.09-7.14,2.25-10.69,3.44-10,3.34-20.08,6.7-30.48,10.18C1117.84,1716.37,1117.89,1720.69,1117.83,1725Zm44.11-955.38c.21,3.7-1.38,6.31-4.25,8.4-5.71,4.14-11.35,8.38-17,12.6-.77.58-1.47,1.25-2.51,2.14,1.65,1.21,3,2.37,4.46,3.25a6.83,6.83,0,0,1,3.55,6.61c-.14,3.13-.47,6.25-.71,9.37-.07.82-.18,1.64-.17,2.46.12,7.8.36,15.61.36,23.42q0,138.38,0,276.74c0,3.25.16,6.5.28,10.87,3.48-3.73,6.16-6.59,8.82-9.45a16.19,16.19,0,0,1,2-2.22c6.44-4.83,7.43-11.4,7.42-19.19q-.32-161.06-.15-322.12c0-2.54-.1-5.09-.16-7.64h-1.67A44.47,44.47,0,0,0,1161.94,769.63Zm80.46-149.44a114.53,114.53,0,0,0,5.76-32.72c1.09-30.21-5.89-58.65-18-85.94a233.36,233.36,0,0,0-56.1-78.33c-14.63-13.41-30.76-24.54-49.16-32-2.87-1.16-5.49-2.49-8.78-1-1.66.76-3.81.4-6.17.58a62.12,62.12,0,0,0,.1,16.47c.17,1.5,2,2.92,3.28,4.15q24.78,23.71,49.64,47.36c21.77,20.79,43.48,41.66,65.33,62.36,3.27,3.09,4.48,6.39,4.47,10.89-.11,32.92,0,65.84,0,98.76v6.85l1.12.27C1237.8,632.54,1240.3,626.44,1242.4,620.19Zm-78.58-88.07c-.09-.53-.66-1-1.71-2.39,0,46.22,0,91.32.05,136.43,0,.27.69.54,1.09.84C1164,664.11,1164.6,536.57,1163.82,532.12Zm-.18,174.37V694.75C1161.45,699.11,1161.6,703.21,1163.64,706.49Zm-41.09-348.26-2.34,2.76,4.42,1.6.46-.75C1124.31,360.72,1123.52,359.61,1122.55,358.23Z"/><path class="cls-2" d="M730.65,713.47v.76l6.13,1.4c-.07-1.37-.11-2.26-.15-3.16,2.76.49,5.58.76,7.62,3.12a3.4,3.4,0,0,0,2.2.88,50.47,50.47,0,0,0,5.5-.09c3.67-.21,7.31-.36,10.8,1.22a9,9,0,0,0,3.4.7c3.33.09,6.67-.07,10,.05,2.64.1,5.26.46,7.89.71,1.16.1,2.32.24,3.47.31,9.31.57,18.62-.09,28,.9,11.09,1.16,22.28-.07,33.45.94,8.94.81,18,.22,27,.26a46.83,46.83,0,0,1,7.5.16c6.31,1.11,12.64.66,19,.73,7.84.08,15.68,0,23.52,0,19,0,38.06,0,57.1,0,3.82,0,7.64-.49,11.47-.64,3-.12,6.11-.57,9,0,5.67,1.15,11.29.49,16.94.34,6.83-.18,13.68-1,20.49-.76,16.87.64,33.69-1,50.54-.94,1,0,2-.31,3-.39,3-.22,6-.47,8.94-.56,5-.17,10.09.36,15-.46a82.48,82.48,0,0,1,18.87-1.41,66,66,0,0,0,9-.21c2.65-.2,5.59-.09,7.82-1.25a23.82,23.82,0,0,1,5.72-2.12c.85-4.91.8-20.59,0-24.61a5.68,5.68,0,0,0-1.3-.59,141.5,141.5,0,0,1-36.63-12.87c-20.65-10.3-38.75-24.16-55-40.45a256.56,256.56,0,0,1-33.59-41.59c-15.17-23.41-26.65-48.44-33.45-75.55-.49-1.92-1.11-3.81-1.79-6.13h-5.53c-38.89,0-77.79.63-116.67-.75-13-.46-26-.72-39-.94-16.51-.27-33-1-49.47-1.94-10.49-.58-21-1.16-31.4-2.34-5.6-.64-11.12-2-16.65-3.15-1-.2-1.77-1.1-3.06-1.94l27.19-27.3q13.45-13.47,26.91-26.92c8.93-9,18-17.79,27.07-27.27l-10.4-4.17v-5.06c0-6.34,0-12.69-.07-19,0-1.11,0-2.72-.61-3.23-1.67-1.32-1.35-3-1.35-4.55,0-5.51.1-11,0-16.53a9.83,9.83,0,0,1,2.51-7.32,44,44,0,0,0,4-5.15,5.19,5.19,0,0,0,.9-2.73c-.07-12-.23-24-.33-36,0-1.8.17-3.59.26-5.45a15.78,15.78,0,0,1,2.26-.48c16.15-.95,32.31-1.85,48.5-1.09,5.17.25,10.32.69,15.48,1,12.66.77,25.32,1.44,38,2.32a29.67,29.67,0,0,1,8.76,1.7c4.32,1.72,8.38,4.07,12.46,6.11.47,1.41.88,2.64,1.28,3.86,6.2,0,12.19.05,18.18,0s12-.25,18.4-.39c0-2.29,1.71-2.47,3.72-2.51,13.18-.22,26.37-.77,39.55-.66,11.17.09,22.34.84,33.5,1.45q18,1,36,2.27c3.34.23,7.11-.8,9.61,2.73.26.37,1.25.34,1.9.32,7.17-.2,14.34-.47,21.51-.66,6.33-.18,12.75-.94,19-.2,5,.6,9.92.55,14.88.75,7,.28,14,.61,21.06.92,3,4.24,5.95,8.29,8.85,12.36s5.66,7.85,8.38,11.84,6.09,7.83,8.39,12.48c-1.79,1.87-3.53,3.44-5,5.25-2.22,2.79-5,3.53-8.39,3s-6.65-.6-10-.84q-12.48-.87-25-1.71c-1.49-.1-3-.24-4.49-.27s-3.11.05-4.67.08a17.73,17.73,0,0,0,5,3.39A191.13,191.13,0,0,1,1190.93,401a256.76,256.76,0,0,1,64.92,85.41c10.48,22,17.84,44.86,21.05,69a173,173,0,0,1-.44,51.36,117.17,117.17,0,0,1-12.7,37.2,92,92,0,0,1-25.22,29.41,6,6,0,0,0-2.69,5.44c.09,5.18,0,10.35,0,15.53q0,200.58,0,401.16c0,6.17-.18,12.35-.07,18.53a9.57,9.57,0,0,1-2.75,7.16c-5.14,5.48-10.07,11.15-15.14,16.69-10.47,11.46-21,22.85-31.41,34.38a8.36,8.36,0,0,1-7.47,3c-8.15-.62-16.31-1.08-24.47-1.6-2.43-.16-4.88-.77-7.56.1-.08,2-.2,3.8-.22,5.61-.08,8-.21,16-.14,24a9.73,9.73,0,0,1-2.58,6.75c-10.47,12.36-20.77,24.85-31.29,37.15a14.72,14.72,0,0,0-3.93,10.35c.14,10.35-.16,20.7-.16,31q0,82.14,0,164.27v6.41l11.11,6.52c8.62,5.06,17.23,10.15,25.89,15.14,2,1.16,2.83,2.55,2.35,4.9-.56,2.77-.85,5.6-1.23,8.41q-2.24,16.86-4.47,33.72c-1.49,11.24-3,22.47-4.51,33.71q-1.38,10.41-2.68,20.85a33.79,33.79,0,0,0,0,3.9c6.92,3.72,13.54,7.22,20.1,10.83,7,3.83,14.36,7,19.51,13.59,1.87,2.4,3,4.54,2.94,7.57-.07,13.52.06,27,.07,40.57,0,6.84-.1,13.69-.14,20.53a7.56,7.56,0,0,1-1.24,4.73c-1.88,2.55-3.55,5.25-5.41,7.81a16.38,16.38,0,0,1-8.7,6.36c-9.08,2.75-18.09,5.72-27.11,8.67-5.51,1.8-11,3.71-16.6,5.61-.09,1.74-.22,3.21-.24,4.68-.06,4.17,0,8.35-.14,12.52-.08,3.37-1.2,4.82-4.36,5.79a12.65,12.65,0,0,1-2.46.42c-9.11,1-18.21,2.15-27.35,2.79-10.15.7-20.33,1-30.5,1.31-17.35.58-34.7,1.34-52.05,1.54-25,.3-50.09.29-75.12.16-19.87-.1-39.73-.49-59.59-.9q-17.76-.36-35.53-1.19c-8.66-.4-17.32-1-26-1.78-6-.51-11.93-1.23-17.87-2.1-1.87-.28-3.63-1.34-5.41-2-.28-7.39.12-14.39-.45-21.34-1.54-.57-2.76-1.08-4-1.48-13.45-4.38-26.89-8.8-40.37-13.09-3.94-1.25-7.29-3.05-9.49-6.73a28.67,28.67,0,0,0-3.38-4.33,10.75,10.75,0,0,1-2.82-7.7c.12-20,.06-40.06.06-60.1a14.74,14.74,0,0,1,.09-2.49,4.55,4.55,0,0,1,.75-2.3c4.1-4.37,7.92-9.07,13.33-12,6.45-3.48,12.91-6.94,19.34-10.44,3.34-1.82,6.63-3.71,10.15-5.69-.61-5-1.13-9.82-1.77-14.6-1.5-11.24-3.07-22.47-4.58-33.71-1.92-14.22-3.9-28.43-5.66-42.66-.5-4.09-1.9-8.15-.92-12.77l38.62-22.77v-6.18q0-80.62,0-161.26c0-12-.14-24,0-36.06a10.82,10.82,0,0,0-2.89-7.63c-10.6-12.45-21-25-31.6-37.53a10.67,10.67,0,0,1-2.86-7.67c.19-5.66-.06-11.35-.06-17V837.46c0-5.85.19-11.69.08-17.53-.06-2.81.27-5.24,3.24-6.7l-4-2.45v-9.37c3.21-3.31,7.53-4.72,10.4-8.35l-26.45-19.34c-.18-4-.34-7.83-.51-11.66-2.43-.48-4.54-.84-6.63-1.31a11.78,11.78,0,0,1-5.88-2.73V713.26c3.69-3.53,8.17-3.48,12.41-4.1a13.35,13.35,0,0,1,3.25.53l-2.53,2.9ZM1049.6,353.25c1.51.41,3.1,1.19,4.19-.68,2.21.14,4.47.77,6.54-.61,2.19-.49,4.67.57,6.59-1.3l6.5-.65c2.14-.63,4.66.57,6.55-1.33l6.5-.63c3.67-.46,7.35-.89,11-1.43.51-.07,1-.67,1.43-1,4.46.78,8.65-.68,12.93-1.48.1,0,.15-.28.23-.42H1117c-1.65-.8-3.27-1-4.82.11l-13.11,1.91c-3.62.47-7.25.9-10.86,1.45-.56.08-1,.66-1.58,1-2.21-.18-4.45-.61-6.54.61-1.47.1-3,.11-4.42.35a7.91,7.91,0,0,0-2.1,1l-6.52.63c-2.16.66-4.68-.53-6.6,1.3l-6.5.62ZM756.23,1595c-6.85,2.91-13.13,6.85-19.46,11a6.38,6.38,0,0,0,2.23-.3c5.64-3.13,11.25-6.34,16.84-9.56.37-.21.53-.76.79-1.15,3.33-.53,5.8-2.73,8.51-4.48-3,1.11-6.19,2-8.42,4.57C756.55,1595,756.36,1594.92,756.23,1595ZM1133,820.8c-8.76,1.09-17.56,1.66-26.37,2.22-14.81,1-29.63,1.4-44.46,2-56.05,2.23-112.12,2-168.18,1.62-15.86-.1-31.71-.59-47.55-1q-13.75-.35-27.5-1c-11.64-.57-23.3-1.12-34.92-2.06-8.62-.7-17.19-2-25.78-3.05-.46-.06-.94-.06-1.57-.1a9.74,9.74,0,0,0-.42,2q0,192,0,383.78c2.84,2.79,6.24,2.59,9.23,2.91,9.43,1,18.91,1.58,28.37,2.32,16,1.25,32,1.44,48,2.17,15.68.72,31.37.24,47,.92,31.37,1.36,62.75.61,94.12.65,22.53,0,45.05-.61,67.58-1.05,9.5-.18,19-.54,28.49-1,12.15-.57,24.31-1.11,36.44-2,7.95-.6,15.86-1.82,23.78-2.78a11.82,11.82,0,0,0,2.43-.52,3,3,0,0,0,2.24-3c0-1.17.05-2.34.05-3.5q0-188,0-376.06c0-1.61.41-3.32-.71-5C1139.8,819.76,1136.39,820.37,1133,820.8Zm-331,640.78c2.62.43,5.27.76,7.92,1,6,.44,12,.86,18,1.11,11.49.47,23,.44,34.47,1.29,13.83,1,27.67.83,41.51.85q59.57.1,119.15-.21c11.83,0,23.67-.54,35.49-1.07,10.15-.45,20.29-1.13,30.42-1.94,5.28-.43,10.53-1.36,16-2.09a19.58,19.58,0,0,0,.79-3.42c.13-3,.14-6,.14-9q0-91.62,0-183.23a56.19,56.19,0,0,0-.47-10.24c-3.22.4-6.13.84-9.06,1.11-7.29.68-14.58,1.4-21.89,1.86-11.3.72-22.62,1.27-33.94,1.8-4.16.19-8.34,0-12.51.15-40.54,1.24-81.09,1.3-121.64.88-15.51-.17-31-.6-46.53-1-7.84-.21-15.67-.46-23.49-1-12.11-.85-24.22-2-36.32-3-1.8-.16-3.57-.61-5.83-1-.11,1.72-.3,3.15-.3,4.57q0,18.52,0,37,0,78.6,0,157.21v6.72C796.78,1460.52,799.34,1461.15,801.93,1461.58Zm-40.38,134.55c-3.7,2.25-7.54,4.26-11.31,6.4s-7.49,4.28-11.28,6.44v30a22.19,22.19,0,0,0,3-1.12c7.26-4.07,14.48-8.24,21.76-12.27,2.18-1.2,3.59-2.59,4-5.24.56-3.26,1.87-6.38,2.65-9.62a20.73,20.73,0,0,0,.44-4.92c0-3.34-.2-6.68-.16-10a9.54,9.54,0,0,1,1.06-2.74c2.63,2.28,1.61,5,1.89,7.31a66.83,66.83,0,0,1,.06,7.57,38,38,0,0,0,3.41-1.79c5.78-4,11.67-7.78,17.24-12a15.16,15.16,0,0,1,10.66-3.23c7.15.45,14.31.72,21.47,1l23.48,1.06a12.29,12.29,0,0,1,1.78.31c1.65,1.41,1.27,3.18,1.31,4.8.19,7.67.32,15.35.5,23,0,1.46.24,2.91.38,4.66,18.71,1.85,37.17,1,55.77,1.28,1.64-5.65.52-11.29,2.36-16.53,1.76-5,3.14-10.15,4.64-15.07,6.47-1.41,67-2.15,74.05-.89,2.37,6.34,4.89,12.84,7.19,19.42.53,1.52.3,3.3.43,5,.2,2.48.41,5,.6,7.36,3.73.89,30.92,1.25,40.15.32,13.25-1.33,26.65.19,40.16-2.15,1-10.72.14-21.56,1.67-32.29,3.31-.44,6.09-1,8.89-1.16,7.15-.49,14.31-.84,21.46-1.24,3.31-.19,6.75-1,9.87-.35,3,.63,5.58,2.83,8.71,4.55a16.24,16.24,0,0,0,1.18-3.17q2.67-19.57,5.23-39.17,2.28-17.12,4.58-34.21c1.13-8.43,2.31-16.85,3.39-25.28a45.27,45.27,0,0,0,0-5.25c-1.61.09-3.06.11-4.49.29-4.62.55-9.23,1.24-13.85,1.73-6.3.66-12.6,1.2-18.9,1.72-2.16.18-4.34.12-6.5.2-10.67.4-21.36.49-32,1.3-10.84.83-21.67.5-32.51.87-51.55,1.74-103.12.79-154.69.69-14.34,0-28.69-.58-43-1-8.17-.23-16.34-.49-24.49-1q-18.69-1.14-37.36-2.68c-7.09-.58-14.15-1.48-21.5-2.26.31,2.75.6,5.7,1,8.64q3.79,28,7.62,56c1.39,10.24,2.88,20.47,4,30.74.32,2.81,1.12,4.73,3.81,5.74.36.14.54.77,1,1.45C769.28,1592.51,765.15,1593.93,761.55,1596.13Zm411.3-879.34c-4.92.68-9.83,1.42-14.77,2s-9.9,1.29-14.88,1.63c-8,.56-16,.84-24,1.28-10.15.55-20.29,1.19-30.45,1.7-3.83.2-7.67.1-11.51.18-19.19.37-38.38.54-57.56,1.19-40.22,1.36-80.45.61-120.68.63-18.35,0-36.71-.57-55.07-1-10.34-.23-20.68-.61-31-1-8.34-.29-16.67-.57-25-1-10.48-.57-21-1.09-31.42-2-9.6-.87-19.23-1.62-28.68-3.77a4.52,4.52,0,0,0-1.31.27c-.87,4.28-.32,8.75-.42,13.17s-.09,8.68,0,13-.44,9,.53,13.4c3.83,2.38,8.12,2.37,12.17,2.85,8.75,1,17.57,1.55,26.36,2.29q20.43,1.74,40.94,2c10.67.15,21.35.37,32,1,20.68,1.26,41.38.68,62.07.95,19.19.24,38.39.81,57.58.73,31.54-.13,63.09-.62,94.63-1.07,11.17-.16,22.34-.59,33.52-1,8.16-.27,16.33-.55,24.49-1,10.81-.58,21.63-1.13,32.42-2,8.45-.7,16.87-1.87,25.28-2.94A33.16,33.16,0,0,0,1173,757C1173.62,750.21,1173.47,720.57,1172.85,716.79ZM751.6,502.87c4.12.58,8.28.89,12.42,1.23,7.46.62,14.93,1.17,22.4,1.74.49,0,1,.08,1.49.1,10.66.4,21.32.9,32,1.19,16.84.44,33.68.49,50.51,1.15,40.69,1.59,81.4.33,122.1.72,1.31,0,2.63,0,4.15,0,.69-2.08.13-3.81-.18-5.56a188.55,188.55,0,0,1-3.12-39.32,157.17,157.17,0,0,1,5-34.57c.26-.94.38-1.91.66-3.37-2.22-.05-4.17-.13-6.13-.13-26.69,0-53.39.08-80.08-.09-14.68-.1-29.36-.59-44-1-6.5-.18-13-.42-19.47-1-8.45-.71-16.89-1.65-25.3-2.71a6.21,6.21,0,0,0-5.77,2c-6.46,6.51-13,12.92-19.55,19.38l-51.22,50.7a61.57,61.57,0,0,0-6.56,7.39C744.87,501.51,748.21,502.38,751.6,502.87Zm408.52,1.07c-2.8.44-5.36.91-7.93,1.24-5.28.67-10.56,1.4-15.86,1.88-5.8.52-11.63.81-17.45,1.15-11.15.64-22.29,1.29-33.44,1.86-3.66.18-7.34.11-11,.18q-25,.56-50,1.12c-1.64,0-3.36-.29-5.13,1.2a28.33,28.33,0,0,0,.54,3.56,231.31,231.31,0,0,0,21.07,51.73,238.31,238.31,0,0,0,44.3,57.72c17.07,16.21,36.06,29.56,58.17,38.09,3.88,1.5,7.85,2.74,11.81,4a49.35,49.35,0,0,0,4.95,1Zm-32.7,707.67c-5.29.56-10.58,1.31-15.89,1.64-9,.56-18,.93-27,1.25-12.33.45-24.66.81-37,1.15-11.84.33-23.68.49-35.51.89-30.52,1-61.05.88-91.58.73-20.36-.09-40.71-.58-61-1q-15.51-.3-31-1c-9.48-.42-18.95-1.09-28.42-1.67-5.82-.35-11.65-.62-17.45-1.12-6.29-.54-12.57-1.31-18.86-2-1-.1-2-.11-3.5-.19a15.07,15.07,0,0,0,1.36,2.64c9.72,11.65,19.52,23.23,29.2,34.92a12.17,12.17,0,0,0,8.53,4.48c8.44,1,16.88,1.65,25.36,2.19,17.47,1.12,35,1.41,52.45,2,43.88,1.49,87.75.61,131.62.6,13,0,26-.59,39-1,7-.22,14-.53,21-1,8.81-.56,17.6-1.26,26.4-2a68.28,68.28,0,0,0,7.39-1.12,9.1,9.1,0,0,0,5.44-3.26c9.9-11.94,19.89-23.81,29.84-35.71.51-.61.94-1.29,2.06-2.82ZM1114.6,378.39A143.57,143.57,0,0,1,1156.91,397c24.7,15.69,45,36,61.9,59.75,18,25.43,31,53.18,38.15,83.62a167.45,167.45,0,0,1,3.58,58.15c-2.13,18.16-7.82,35.13-19.6,49.55a69.17,69.17,0,0,1-45,25.51c-17.06,2.5-33.49-.14-49.6-5.75-18.33-6.37-34.65-16.3-49.61-28.46a234.18,234.18,0,0,1-46.8-51.15c-17.86-26.58-30.58-55.4-36.59-87-3-16-4.12-32.11-2.21-48.31,1.87-15.9,6.09-31.09,15-44.63,10.92-16.62,25.77-27.69,45.53-31.56,3.92-.77,7.9-1.19,11.84-1.83a6.14,6.14,0,0,0,2.77-.9c4.49-3.69,8.88-7.48,13.81-11.67-1.69-.56-2.7-1.15-3.73-1.2-19-1-37.14,2.28-53.7,12.24A86.79,86.79,0,0,0,1011,406.75c-8.76,15.92-13,33.09-14.26,51.12-1.63,22.92,1.45,45.28,7.9,67.2,11,37.24,29.72,70.15,55.51,99.1a222.91,222.91,0,0,0,43.69,38,166.73,166.73,0,0,0,44.5,21.15,115.49,115.49,0,0,0,33.43,5.1,99.49,99.49,0,0,0,29.06-4c17.84-5.49,32.16-15.91,43.28-30.73,10.51-14,16.57-30,19.42-47.18,3.78-22.84,2.47-45.53-2.54-68.07a237,237,0,0,0-20.79-57.17c-16.61-32.31-38.61-60.34-67.11-83.05a181.73,181.73,0,0,0-52.87-29.82c-4.55-1.61-9.23-2.83-13.87-4.12-2.89-.81-5.47-.5-7.79,1.86s-5.26,4.62-7.87,7a12.25,12.25,0,0,0-1.49,2.1C1104.61,376.34,1109.66,377.16,1114.6,378.39Zm32,440.61c-.08,6.34.09,12.68.09,19q0,138.43,0,276.86c0,5.34.16,10.68.27,16,0,1.14.19,2.29.33,3.95a15.05,15.05,0,0,0,2.18-1.55c7-7.42,13.87-14.9,20.86-22.29a7.06,7.06,0,0,0,2.08-5.35c-.08-5.17.07-10.35.07-15.52V779.24q0-7.26-.1-14.52c0-1.28-.23-2.57-.37-4.1l-8.36,1.48a39.79,39.79,0,0,0-.28,6.07c.41,3.83-1.34,6.23-4.34,8.28-4.55,3.1-8.94,6.42-13.39,9.66-3,2.15-5.89,4.32-9.11,6.68a31.42,31.42,0,0,0,7.68,5.73,5.46,5.46,0,0,1,3.06,5.73c-.07.66,0,1.34,0,2,0,4,0,4-3.57,7.09A6,6,0,0,1,1146.57,819Zm-124-310.81c13-.06,26-.06,39-.28,10-.17,20-.55,30-1,12-.55,24-1.09,35.92-2,9.11-.68,18.19-1.89,27.27-2.95a33.11,33.11,0,0,0,4.63-1.29c-.91-1.09-1.48-1.87-2.16-2.54q-29.71-29.73-59.47-59.43c-5.19-5.18-10.62-10.13-15.76-15.37-1.84-1.88-3.67-2.65-6.21-2.07a93.55,93.55,0,0,1-17.83,2c-5.16.16-10.3.7-15.46.92a6.44,6.44,0,0,0-4,1.71c-2.55,2.15-5,4.37-7.68,6.42-2,1.57-3.28,1.16-4.1-1.22-.6-1.72-1-3.51-1.5-5.53l-3.73-.34c-10.1,19.32-10.43,59.17-3.21,82.72C1019.62,508,1021.09,508.2,1022.55,508.19Zm87.51-121.7c-1,7.07-.17,14.35,0,21.89,5.51,5.17,11.09,10.41,16.68,15.64l102.72,96.1c6.17,5.78,6.23,5.8,6.24,14.12q.09,47.58.1,95.15c0,5,.14,10,.27,15,0,1.11.26,2.21.5,4.16,1.62-1.92,2.84-3.22,3.9-4.64a85.38,85.38,0,0,0,13.74-28.69,121.71,121.71,0,0,0,4.33-28.61c1-29.6-5.75-57.55-17.47-84.5a240.29,240.29,0,0,0-43-66.45c-15.62-17.15-33.33-31.72-53.85-42.69a149.27,149.27,0,0,0-23.17-9.8C1118.21,387.6,1113.76,384.94,1110.06,386.49Zm-17.73,1078.42c-11.6,1.31-23.24,1.94-34.9,2.19-7.67.15-15.34.46-23,.88-22.84,1.28-45.71.72-68.56,1.12-6.83.12-13.67.67-20.51.6q-32.54-.32-65.06-1-15.76-.3-31.51-1c-11.65-.54-23.31-1.12-34.93-2-6.44-.51-12.84-1.73-19.24-2.71a6.71,6.71,0,0,0-4.76.86c-10.74,6.38-21.52,12.68-32.28,19-.12.07-.15.29-.34.71a10.56,10.56,0,0,0,2.56,1c6.77.78,13.55,1.59,20.35,2.16,8.62.73,17.26,1.27,25.9,1.82,2.83.19,5.67.14,8.51.22,13.5.37,27,.66,40.5,1.15,51.22,1.86,102.45.68,153.68.87,5.34,0,10.68,0,16-.11q22.51-.48,45-1.09,11.49-.32,23-1c10.14-.57,20.28-1.21,30.41-2,5.47-.43,10.9-1.25,16.35-2a22.22,22.22,0,0,0,3.3-.95,3.93,3.93,0,0,0-.06-.57c-.06-.15-.12-.35-.24-.42l-33.94-20C1102.52,1463.53,1097.44,1464.33,1092.33,1464.91ZM1209.8,688.1v421.58c4.9,1.11,9.59,1.8,14.62,1,.16-1.29.38-2.41.42-3.53.86-27,.35-418.74-.62-424.6ZM785,1732.22a34,34,0,0,0,4.56,1.32c3.94.62,7.9,1.2,11.87,1.54,8.45.71,16.92,1.29,25.39,1.86,2.49.17,5,.13,7.51.19,15.5.39,31,.59,46.5,1.2,41.52,1.63,83.07.5,124.6.64,14.17,0,28.34-.56,42.51-1q12-.33,24-1c9.48-.56,18.94-1.21,28.4-2,4.46-.38,8.88-1.25,13.23-1.89,1.47-3.4,1.83-11.82.77-18.65a27.5,27.5,0,0,0-3.27,0c-5.45.61-10.89,1.37-16.35,1.91-13.1,1.28-26.24,1.93-39.41,2.15-10,.17-20,.55-30,.92-43.7,1.61-87.42.87-131.12.7-14.35-.05-28.69-.59-43-1-7.5-.21-15-.46-22.48-1-12.28-.87-24.55-2-36.82-3-2.13-.18-4.23-.67-6.86-1.1ZM1175.74,691.77c-.08,1.88-.26,3.51-.21,5.13.24,8.16.68,16.31.77,24.47.12,10.68.49,21.39-.17,32-1.06,17.18-.56,34.35-.58,51.51q-.13,147.92,0,295.84v6.59c2.48,1.29,5,.62,7.45,1s4.57.57,7.23.9a35.39,35.39,0,0,0,.58-4.16c.06-5.67,0-11.34,0-17q0-194.22,0-388.44c0-2.47-.13-4.94-.21-7.79ZM749.81,779.85c4.45,3.25,9,6.31,13.33,9.73,4,3.16,8.48,4.43,13.35,5,9.1,1,18.22,1.68,27.37,2.24,16.14,1,32.3,1.32,48.44,2,24,1.06,48,.59,72.05.89,7.18.09,14.34.66,21.51.67,9,0,18-.32,27-.51,2.67-.06,5.33-.16,8-.18,17.69-.09,35.38-.05,53.06-.28,12-.15,24-.63,36-1,6.49-.22,13-.46,19.47-1,11.62-.88,23.22-1.91,34.82-3a21,21,0,0,0,11.4-4.48c5.48-4.32,11.24-8.29,16.71-13-1.63.22-3.26.5-4.89.66s-3.34.19-5,.33c-7.13.6-14.25,1.31-21.39,1.8-9.8.68-19.61,1.23-29.43,1.76-3.16.18-6.33.11-9.5.19-17,.41-34,.74-51,1.27-49.38,1.55-98.77.7-148.16.59-15.17,0-30.35-.58-45.53-1-9.33-.24-18.66-.62-28-1-7-.28-14-.58-21-1-9.47-.6-18.94-1.26-28.39-2.06-4.3-.36-8.55-1.12-12.83-1.7l-.46.58C747.8,778.2,748.76,779.08,749.81,779.85ZM1105.24,1649c-1.47-1.11-3.16-.54-4.77-.46-3.16.16-6.31.48-9.47.56q-27.74.73-55.47,1.38l-32,.79c-1.32,0-2.63,0-4.21,0a17.77,17.77,0,0,0-.59,3.1q0,23,0,46a13.25,13.25,0,0,0,.3,1.92c1.55,1.22,3.27.71,4.88.68q20.25-.39,40.5-.86c14.82-.36,29.65-.69,44.47-1.17,5.31-.17,10.6-.73,16.22-1.13C1105.88,1695.3,1105.94,1653.7,1105.24,1649ZM739.4,771.54c3.39,2.45,7.35,2.46,11.05,2.86,9.1,1,18.24,1.52,27.36,2.27,14.29,1.19,28.62,1.46,42.93,2.16,11.67.57,23.34.48,35,.86,57.06,1.86,114.14.83,171.2.72,15,0,30-.62,45-1q12.49-.35,25-1c11.31-.58,22.63-1.12,33.92-2,8.12-.65,16.2-1.82,24.28-2.85a35.8,35.8,0,0,0,4.89-1.35V763.3c-1.75-1-3.75-.5-5.67-.34-6.31.53-12.59,1.24-18.9,1.69-10,.71-20,1.29-29.93,1.86-2.83.16-5.67.07-8.51.15-16.17.41-32.36.53-48.51,1.37-15.85.81-31.7.32-47.54.79q-34.79,1-69.57.73-36-.34-72.08-1c-12.34-.21-24.68-.6-37-1-9-.27-18-.57-27-1q-17.22-.85-34.42-2c-5.64-.39-11.26-1.14-16.89-1.68-1.31-.12-2.65,0-4.61,0Zm246.07,855.69q-32.43.55-64.82,1.14c-.73,4-1,54.19-.31,62.28a13.78,13.78,0,0,0,2.69.53q31,0,62-.15c1.29,0,2.59-.21,3.8-.31,1-4.75.92-58.91-.06-63.23C987.73,1627.41,986.6,1627.21,985.47,1627.23Zm24.92-1293c-7.33.17-14.65.58-22,.81-13,.41-26,.7-39,1.16-6,.21-12,.71-18.3,1.1-1.15,1.28-2.58,2.69-3.8,4.26-6.68,8.54-13.26,17.16-20,25.67a10,10,0,0,0-2.32,6.86c.15,5.32,0,10.66,0,16.19,4,1,7.75.57,11.51.37,2.64-.14,5.28-.81,7.91-.77,3.45.05,5.61-1,6.7-4.55,1.23-4,3-7.76,4.65-11.6a18.5,18.5,0,0,1,1.54-2.52c.94-.11,1.76-.26,2.58-.29,10.16-.39,20.33-.8,30.49-1.11,13.67-.43,27.34-.72,41-1.19,4.48-.15,8.94-.69,13.31-1.05,1.21-2.17.16-3.72-1.1-5.08-2.28-2.43-2.94-5.45-3.71-8.56-1-4,.45-7.57,1.22-11.28a3,3,0,0,1,.72-1.29c2-2.34,4.09-4.66,6.28-7.16C1022,334.19,1016.19,334.09,1010.39,334.22ZM909.82,1651.64c-1.05-.12-2.17-.35-3.29-.38-3.33-.07-6.67,0-10-.08q-27.76-.53-55.53-1.06c-2,0-3.93.07-5.77.11-1,4.17-1.17,44.64-.29,50.48a36.49,36.49,0,0,0,9.15,1.3c4,0,8,0,12,.1,16.18.3,32.36.64,48.53.9,1.77,0,3.68.54,5.31-.63C910.61,1697.58,910.55,1656,909.82,1651.64Zm-90.31-25a18.07,18.07,0,0,0-7.82-1.41c-2.16,0-4.33,0-6.5-.12-9.48-.35-19-.74-28.45-1.08-1.81-.07-3.63,0-5.68,0a15.13,15.13,0,0,0-.69,3q-.06,28.77,0,57.52a10.94,10.94,0,0,0,.32,1.86c5.61,1.64,39.19,3.34,48.83,2.43ZM882,362.72c-1.15-1.83-2.31-3.64-3.61-5.7-1.69-.3-3.46-.75-5.25-.91-4.31-.39-8.62-.69-12.94-.94-8-.46-16-.84-23.93-1.29-5.31-.3-10.62-.68-15.93-1-1,0-2,.1-3.25.17,1,4.52,5.31,7.33,5.74,12.19-4.91,1.74-9.64-.13-14.49-.1-.93,3.27-.39,6.43-.48,9.54s0,6.31,0,9.73c5.06,1.14,9.87,2,14.86.92a15.33,15.33,0,0,1,3.95-.19c2.82.17,5.63.49,8.44.7q12.43.92,24.88,1.79c5.8.41,11.61.94,17.43,1.08a134,134,0,0,1,15.36,1.63c2.77.37,5.58.38,8.29.55,1-4.12,1.06-14.68.11-19.49-5.86-.85-12.11,0-18-1.89C884,365.89,884,365.89,882,362.72Zm111.31,1344c-2.18-.9-4-.6-5.7-.6-24.52,0-49,.1-73.57-.07-21-.15-42-.58-63-1-10.83-.21-21.66-.61-32.49-1-8.33-.29-16.66-.57-25-1-10.3-.57-20.6-1.28-30.89-2a37.37,37.37,0,0,0-7.59-.25c1.84.72,3.65,1.52,5.52,2.14,7.43,2.43,14.9,4.72,22.3,7.23a69.79,69.79,0,0,0,15.66,2.87c7.61.74,15.25,1.29,22.88,1.86,2.16.16,4.33.1,6.5.17,13.16.39,26.33.64,39.48,1.22,38.19,1.67,76.38.67,114.58.93,1.15,0,2.31-.13,3.57-.2ZM768.8,803.59c10.27,1,20.54,2,30.88,2.18,6.49.09,13,.68,19.46.92,10.66.39,21.35.35,32,1.11,15.34,1.09,30.68.82,46,.85q66.81.12,133.63-.19c14.17-.06,28.34-.65,42.5-1.08,6.83-.2,13.66-.45,20.48-.93,11.28-.78,22.56-1.73,33.83-2.68,3.81-.32,7.61-.78,11.4-1.28a26.24,26.24,0,0,0,3.83-1.22l-8.58-6.08c-4.15.87-7.68,1.79-11.28,2.32-4.12.6-8.28.9-12.42,1.24-7.8.64-15.6,1.21-23.4,1.81-.5,0-1,.07-1.5.08-14,.41-28,.61-42,1.28-22.17,1.06-44.36.73-66.53,1.07-13,.2-26,.69-39,.61-22.18-.14-44.36-.57-66.54-1-11-.2-22-.6-33-1-8.16-.28-16.32-.57-24.48-1-9.47-.55-18.95-1.14-28.39-2-5.61-.54-11.16-1.67-16.73-2.63-1.88-.32-3.57-.4-5.2.88-1.81,1.44-3.76,2.69-6.49,4.6A45.45,45.45,0,0,0,768.8,803.59ZM876.58,353.53a8.54,8.54,0,0,0,.66-2.28q0-16,0-32a8.49,8.49,0,0,0-.36-1.78c-4.67-1.53-56.69-4.7-61.52-4.26-.87,3.86-.32,7.84-.41,11.77s0,8,0,12v12.48Zm279.74,1331.34c1-5.43.37-10.74.48-16s0-10.66,0-16c0-5.16,0-10.33,0-15.49s.3-10.56-.3-15.85l-34.94,2.53a21.08,21.08,0,0,0-.63,3.54q0,28.47,0,57a28.4,28.4,0,0,0,.41,3.29C1133.33,1686.71,1144.82,1687,1156.32,1684.87ZM756,809.21c2.69,1.89,6,2,9,2.27,9.1.92,18.24,1.52,27.36,2.27,14.79,1.21,29.63,1.41,44.44,2.13s29.7.34,44.53.92c39.55,1.53,79.11.53,118.66.64,18,0,36-.59,54.06-1q13.76-.31,27.49-1c11.82-.57,23.64-1.12,35.43-2,7.79-.6,15.53-1.8,23.28-2.81a22.38,22.38,0,0,0,3.81-1.18v-4.26c-.44-.15-.9-.47-1.31-.41-2,.25-3.93.71-5.91.91q-11.68,1.17-23.37,2.22c-13.62,1.21-27.29,1.47-40.93,2.18-11.34.59-22.69.34-34,.93-21.85,1.12-43.71.63-65.57.9-8.34.11-16.68.76-25,.7-25.36-.19-50.73-.56-76.09-1-12.18-.2-24.35-.61-36.53-1-8.5-.27-17-.56-25.49-1-10.14-.56-20.3-1.14-30.41-2-7.12-.63-14.19-1.82-21.28-2.76l-2.15-.24Zm450.5,297.36c-.22-4.83,0-9.68,0-14.52q0-195.22,0-390.46V689.11l-4.63.67v425.58C1205.5,1113,1206.67,1110.26,1206.5,1106.57Zm-30.31-576.12c-.88,4.14-1.25,128.52-.45,140.23,2.23,1.33,4.77.63,7.19.75s4.62,0,6.83,0c1.38-2,1-3.89,1-5.65,0-9,0-18,0-27q0-50.25,0-100.51c0-2.14-.12-4.27-.19-6.61A41.67,41.67,0,0,0,1176.19,530.45ZM914.27,1614a6,6,0,0,0,.68,3.76c1,2.07,2.43,4,3.62,5.85,24.1,2,48.07,1.34,72,.2a20.83,20.83,0,0,0,3.33-6.15c-13.47-1.86-26.78,1.69-39.9-1.22a4.69,4.69,0,0,1,0-.92c4.16-1.42,8.63-.65,12.94-1,4.48-.41,9-.3,13.5-.35s8.95,0,13.78-.06c-1.17-6.12-3.74-11.16-5.64-16.71h-69.4C917.53,1602.84,915.77,1608.38,914.27,1614Zm295.9-1081.3c-.72,4-.92,127.94-.23,134.16,5-1.14,9.24-3.69,13.31-6.57a4.19,4.19,0,0,0,1.41-2.45,21.05,21.05,0,0,0,.15-4q0-57.51,0-115c0-1.63-.16-3.26-.27-5.38C1219.29,533.48,1214.79,531.74,1210.17,532.68Zm17.94,150.15c0,.83,0,1.67,0,2.51q0,210.31,0,420.65c0,1,.07,2,0,3-.18,2.78.89,4.51,4.16,4.78a21.31,21.31,0,0,0,.59-2.62c.11-1.16,0-2.33,0-3.5q0-208.08,0-416.15c0-4.3.14-8.61-.22-13C1228.47,679.6,1228.31,679.76,1228.11,682.83ZM1100.05,1643c-5.48-4.37-11-8.66-16.46-13.07a7.13,7.13,0,0,0-5-1.75c-5.66.26-11.32.51-17,.67-6,.17-12,.2-18,.33q-21.27.49-42.52,1a7.6,7.6,0,0,0-1.39.27c-1.16,3.48-1.37,10.53-.49,17.08a19.62,19.62,0,0,0,3.23.49c13.34-.06,26.69-.08,40-.3,11.34-.18,22.67-.55,34-.92,8-.27,16-.66,24-1a8.14,8.14,0,0,0,1.76-.62A25.54,25.54,0,0,0,1100.05,1643Zm95-952.3c-1.42,1.72-1,3.63-1,5.4q-.08,22.27,0,44.55,0,181,0,361.93c0,1.34,0,2.67,0,4,.12,3.62.13,3.62,4.19,4.78.85-4.69.85-415.86-.08-420.66Zm16.75,422.6a5.93,5.93,0,0,0-5.23,2.24q-10.43,11.13-20.93,22.18c-2.64,2.78-5.38,5.46-8,8.29a6.89,6.89,0,0,1-5.77,2.27,101.35,101.35,0,0,1-13.06-1.41c-1-1.91.2-2.78,1.1-3.74q10-10.79,20.11-21.57c2.71-2.91,5.35-5.89,8.52-9.39a30.14,30.14,0,0,0-4.46-.81c-11.62-.16-8.19-1.92-16.22,6.61-5.83,6.18-11.49,12.53-17.45,18.59a11,11,0,0,0-3.47,8.89c.23,5.31.06,10.63.06,16.26a33.36,33.36,0,0,0,5,1.15c6.63.48,13.29.76,19.92,1.25a8,8,0,0,0,7-2.79c5.94-6.53,12.11-12.86,18.16-19.29q11.13-11.85,22.19-23.74c1-1.08,1.87-2.26,3.47-4.2C1218.38,1113.83,1215.07,1113.67,1211.77,1113.34Zm6.32-587.23q-40.21-37.59-80.46-75.16-17.57-16.4-35.07-32.84c-1.74-1.64-3.33-3.07-6-3-3.2.1-3.2-.09-6.85,2.7,3.65,3.47,7.24,6.93,10.88,10.34q32.65,30.66,65.34,61.29c12.54,11.75,25.24,23.34,37.57,35.3a17.49,17.49,0,0,0,11.93,5.19c1.75.09,3.52,0,6.11,0C1220,528.25,1219.14,527.09,1218.09,526.11Zm-449.3,1172a16.54,16.54,0,0,0-.23-3.84c-1.07-3.25-1-6.57-1-9.89q-.19-16.48-.42-32.95c0-1.16-.14-2.32-.24-3.91a25,25,0,0,0-4.1-1.17c-6.92-.78-13.86-1.44-20.8-2.12a23,23,0,0,0-2.34,0,5.52,5.52,0,0,0-.47.45c-.11.12-.28.26-.28.4q-.09,23.46-.16,46.93c0,1,.15,2,.28,3.53C749.12,1696.83,758.71,1698.48,768.79,1698.1Zm358.3,3.51c-1.82.13-3.63.43-5.46.5q-16.47.69-32.94,1.3c-9.15.34-18.32.45-27.46,1-17,1-34,.73-51,1-4.15.08-8.29.61-12.94,1l-8.06,10.52c1.72.14,2.78.3,3.83.3,9.84,0,19.68,0,29.51-.23,11.16-.23,22.32-.61,33.47-1,7-.25,14-.46,21-1,10.77-.82,21.53-1.88,32.28-2.92a28.63,28.63,0,0,0,5.86-1.2c9.34-3,18.65-6,28-9.12a16.55,16.55,0,0,0,2.42-1.38C1139,1700.8,1133.05,1701.19,1127.09,1701.61Zm-288.9-106.4c-10.65-.48-21.3-.83-32-1.26a12.14,12.14,0,0,1-3-.42,4.64,4.64,0,0,0-4.22.88c-8.21,5.72-16.46,11.37-24.61,17.16a7.22,7.22,0,0,0-2.19,3.16,39.88,39.88,0,0,0-1.32,5.14,9.09,9.09,0,0,0,2.59,1c10.65.47,21.31.82,32,1.27,3.66.15,7.32.38,11,.78a8.55,8.55,0,0,0,7.66-2.7c1.12-1.18,2.42-2.21,4.15-3.78a77.47,77.47,0,0,0-10.15-1.16c-4.5-.07-9-.16-13.51-.22a10.91,10.91,0,0,1-6.57-1.7c.93-.54,1.55-1.21,2.17-1.21,5,0,10,.16,15,.31,5.65.17,11.29.41,16.61.6a207,207,0,0,0,15.81-16.82C844,1595.82,841.12,1595.34,838.19,1595.21Zm333.74-924.14c.71-4.39.8-135.06.11-142.37-2.65-2.14-5-4.94-8-7.21-.8,4.86-1,142.28-.2,148.19Zm-35.23,143a276.72,276.72,0,0,1-30.82,2.9c-9.66.46-19.3,1.13-29,1.71-.67,0-1.34.08-2,.09-16.84.39-33.69.67-50.54,1.17-37.54,1.11-75.1.94-112.65.78-19.19-.08-38.38-.6-57.56-1q-14.76-.33-29.52-1c-12.66-.57-25.32-1.15-38-2.06-7.79-.55-15.54-1.7-23.31-2.62a4.06,4.06,0,0,0-4.46,2,4.55,4.55,0,0,0,2.92,1.29q5.43.75,10.9,1.26c6.63.63,13.26,1.18,19.9,1.76.49,0,1,.08,1.49.1,11.5.41,23,.52,34.48,1.32,12.67.87,25.37.28,38,1,20.68,1.24,41.37.62,62.06.8,28.87.24,57.75.06,86.62-.16,15.68-.11,31.36-.61,47-1q12.5-.33,25-1c10.48-.55,21-1,31.41-2,7.59-.73,15.3-.84,23-3.18A4.41,4.41,0,0,0,1136.7,814.06Zm-34.19-427.68c-.18,1.56-.47,3-.49,4.45-.06,6.34,0,12.68-.09,19a7.58,7.58,0,0,0,2.58,6.17q24.2,22.47,48.27,45.05,18.27,17.1,36.48,34.23,16.41,15.4,32.84,30.8c1.45,1.35,3.05,2.54,4.67,3.89l4.92-3.21a22.23,22.23,0,0,0-1.92-2.42q-43.47-40.67-87-81.31c-10.72-10-21.37-20.12-32.17-30.05a10.12,10.12,0,0,1-3.61-8.24c.08-6-.37-11.95-.62-18.38ZM909.29,1648.14c1.37-4.07,1.45-13,.22-17.7-1.21-.07-2.51-.2-3.81-.21-5.83-.07-11.66,0-17.49-.16-10.16-.23-20.31-.47-30.46-.89a9,9,0,0,0-7.85,3.25c-4,4.61-8.41,8.94-13.45,14.24C861.6,1648.29,885.51,1648,909.29,1648.14ZM881.53,317.07a18.48,18.48,0,0,0-.51,2.87c-.19,10-.27,20-.53,29.95A14.21,14.21,0,0,0,883,358.8c1.59,2.27,3,4.68,4.7,7.41.92-1,1.51-1.52,2-2.13,7-8.92,13.88-17.87,20.9-26.74a9.9,9.9,0,0,0,2.33-6.84c-.16-4.62,0-9.26,0-14.26C902,315.44,891.89,316.7,881.53,317.07Zm270.39,1294.14c-3.56.31-6.85.81-10.14.82-3,0-6.14,1.23-9.66-.23,2.09-2.79,4.86-1.66,7.05-2.18a74.68,74.68,0,0,1,7.9-1,11.84,11.84,0,0,0-1.77-1.78c-7.4-4.5-14.83-8.93-22.23-13.43a9.65,9.65,0,0,0-6.18-1.38c-6.62.63-13.25,1.19-19.88,1.74-1.49.13-3,.13-4.49.21-1.76.09-3.53.21-6,.36,1,1.06,1.53,1.67,2.13,2.14,9.37,7.49,18.78,14.93,28.1,22.48a7.46,7.46,0,0,0,5.43,2c8.3-.58,16.59-1.11,24.88-1.67,2.63-.18,5.26-.38,9-.65ZM1197.79,524.4c-1.88-1.89-3.33-3.47-4.88-4.92q-26.31-24.62-52.66-49.2-26.14-24.42-52.32-48.81c-1.13-1.06-2.07-2.71-4.55-2a11.25,11.25,0,0,0,1.25,2.06q7,7.15,14.08,14.24,30.87,30.74,61.79,61.41c10.08,10,20.36,19.72,30.57,29.55a9.89,9.89,0,0,0,1.54.94Zm-283,1178.12a16.31,16.31,0,0,0,2.53.47q37.47,0,74.93,0a13,13,0,0,0,1.66-.24c0-3.19-2.17-5.44-3.41-8.25H919.12Zm288-1033.23,3.4-1c.11-1.2.3-2.33.3-3.46q0-64.32,0-128.64c0-2.93,0-5.72-2.94-7.42a2.75,2.75,0,0,0-.93-.15C1201.33,535.52,1201.45,663.27,1202.79,669.29Zm-61.17-302.74,47.78,3.24a16.84,16.84,0,0,0-1.18-2.91c-1.87-2.75-4-5.34-5.73-8.16s-4-3.6-7.11-3.68c-4-.1-8-.59-11.92-.83-7.63-.46-15.26-.85-22.89-1.29-2.76-.16-5.5-.39-9.06-.64ZM1083.37,1624a4.09,4.09,0,0,0,1.59,3.47l20,15.82a16,16,0,0,0,.59-2.74c0-8,0-16,0-24,0-1.51-.06-3-1.42-4.06-6.64-5.25-13.25-10.53-20.82-16.57C1083.38,1606,1083.4,1615,1083.37,1624ZM976.3,393.77c-3.88-1-15.71-1-21-.11-.9,3.77-1,23.66-.18,28.66,3.49.89,15.6.91,21.05,0C976.71,412.8,976.55,403.24,976.3,393.77Zm-71.38.77a272.31,272.31,0,0,0-.15,27.69c4.32.85,16,.88,20.62.14.67-4.12.73-23.93,0-29.42Zm204.75,1302.22a48.36,48.36,0,0,0,6.81-7.39,6.1,6.1,0,0,0,.71-3.29c.08-4.33,0-8.67,0-13,0-14.84,0-29.67,0-44.51,0-6.28.84-4.78-4.35-9.17-.63-.54-1.3-1.05-2-1.53a7.82,7.82,0,0,0-1.32-.53C1108.58,1622.34,1108.62,1692,1109.67,1696.76Zm-281.89-76c-3.58,2.63-5.08,5.88-5,10.58.3,18.35.17,36.72.07,55.07,0,2.87.52,5.16,2.82,7,1.63,1.32,2.78,3.21,5.08,4.57.19-1.43.4-2.35.44-3.28.64-17.4.29-70.74-.6-76.16C829.31,1619.54,828.56,1620.16,827.78,1620.74Zm370.45-950.65c.82-4.53.86-136.7.09-141.28-3.34.42-3.92.86-4.16,3.45-.12,1.33-.08,2.67-.08,4q0,64.35,0,128.71c0,1.8.13,3.61.23,6Zm-1.55-304.46a11.37,11.37,0,0,0,1-1.6c-1.65-3.64-18.84-28.13-23.36-33.2l-40.71,1.32v2h4.56c.62,1.39,1.23,2.73,1.92,4.28a5.87,5.87,0,0,0,1.72.41c8-.24,16-.53,24-.81,1,0,2,0,3-.15,2.66-.33,4.27.89,5.71,3.09,5.48,8.36,11.13,16.61,16.73,24.9.64.94,1.41,1.8,2.48,3.14C1194.92,367.62,1195.84,366.66,1196.68,365.63ZM734.27,1613.08c-5.53,4.28-5.53,4.28-5.53,11.1,0,18,.1,36-.07,54,0,4.23.61,7.87,3.92,10.74a30.9,30.9,0,0,1,2.41,2.63c.72-4.38.84-73,.17-78.76A4.6,4.6,0,0,0,734.27,1613.08Zm493.8-1076.94c.1,1.5,0,3,0,4.5q0,54.57,0,109.14c0,2,.09,3.94.16,6.31,3.13-1.41,4.71-3.21,4.59-6.29-.07-1.5,0-3,0-4.51q0-54.06,0-108.12c0-2.15-.11-4.29-.18-6.74C1228.86,531.3,1227.88,533.28,1228.07,536.14Zm-.62,578.88c-3.14,1.62-5.07,4.19-7.2,6.46q-19.17,20.43-38.18,41c-1,1.09-1.89,2.28-3.06,3.69l3.69,5.35c6-5.66,11.11-11.76,16.47-17.56,5.55-6,11-12.07,16.48-18.14s11-11.58,16.19-18.13ZM793.68,1700c9.63.44,19.27.77,28.91,1.12,1.75.06,3.51,0,6.16,0a62.89,62.89,0,0,0-7.24-7.92,6.48,6.48,0,0,0-2.25-.87,4.07,4.07,0,0,0-1,0c-10-.38-19.94-.74-29.9-1.17-3.15-.14-6.29-.51-9.43-.68-2.61-.13-5.25-.48-8.23.3l2,8.07C780.1,1699.27,786.89,1699.74,793.68,1700Zm45.25-60.28c3.06-3.28,6.09-6.6,9.17-9.87a6.85,6.85,0,0,0,2.07-4.91c0-8,0-16-.06-24a7.27,7.27,0,0,0-.59-1.75c-1,.89-1.94,1.54-2.68,2.33-3.4,3.66-6.71,7.39-10.15,11a7.25,7.25,0,0,0-2.22,5.33c.08,7.82,0,15.65.06,23.47a17.48,17.48,0,0,0,.49,2.39C836.68,1642.09,837.82,1641,838.93,1639.76Zm37.34-1218.4V392.1c-4.29-.29-8.91-.16-13.46-.09-1,3.52-1.25,23.06-.41,28.91C865.82,422.1,870.49,422.26,876.27,421.36Zm257.07,1174.81c4.79,2.91,9.31,5.71,13.87,8.43,7.6,4.53,7.75,4.62,11.33,12.48a11.3,11.3,0,0,1,1,3.81c.27,3.15.36,6.32.51,9.48.19,4.15.59,4.58,5.4,5.57a10.66,10.66,0,0,0,.33-1.9c0-8.17,0-16.34,0-24.51,0-2-.47-3.46-2.4-4.48-9.13-4.81-18.19-9.74-27.29-14.6a9.7,9.7,0,0,0-1.82-.37C1133.91,1592.23,1133.64,1594.12,1133.34,1596.17ZM918.4,336.07a4.51,4.51,0,0,0-4.4,1.75c-.3.39-.7.71-1,1.11q-10.57,13.57-21.14,27.17a3.73,3.73,0,0,0-.38.89c3.23,1.2,5,1.3,11.92.65,7.58-9.87,15.55-19.82,23.46-30.52Zm174.7,5.09a45.21,45.21,0,0,0,.92-12.59c-4.22-1-37.39-1.13-47.55.06,2.27.06,4.55.06,6.81.22,3.65.25,7.3.64,11,.93,1.9.14,2.9,1.48,3.93,2.79,2.88,3.66,5.74,7.34,8.79,11.25ZM1164,1694.71c.73-.21,1.34-1.36,1.68-2.21a7,7,0,0,0,.18-2.47q.06-21.94.08-43.89a23.76,23.76,0,0,0-.25-2.53c-1.94-.83-3.59-.43-5.46.79-.1,1.34-.3,2.79-.32,4.25-.14,11-.35,21.94-.3,32.91a21.64,21.64,0,0,1-2.45,11,29.69,29.69,0,0,0-1.31,3.76C1159.19,1695.69,1161.63,1695.39,1164,1694.71Zm5.62-7c2.76-2.25,4.62-4.5,5.12-7.69a17.18,17.18,0,0,0,.07-2.49c0-19.31-.07-38.62.06-57.93,0-3.94-1.7-6.49-5.25-9.25ZM953.3,389.63h21.41c-2.45-5.46-6-10.07-9-15.44-6.87-.08-13.82-.25-20.78.1-.16,0-.31.49-.54.89Q948.76,382.29,953.3,389.63Zm-6.59,8.6a90.47,90.47,0,0,0-15,0c-.78,3.95-.92,15.26-.26,21.31,4.85.81,9.79.21,15.38.38C946.94,412.34,947.13,405.42,946.71,398.23Zm54.12-.6a4.52,4.52,0,0,0-1.34-.41c-4.16,0-8.32,0-12.42,0-1.11,3.41-1.3,15.47-.34,21.58a64.17,64.17,0,0,0,14.06-.09C1001.77,414.13,1001.77,401.94,1000.83,397.63Zm154.82,1290.92c-2,0-3.38-.21-4.78-.11-8.29.59-16.56,1.44-24.86,1.78-3.93.16-7.12,1.18-9.7,4.16-1.49,1.72-3.46,3-4.51,5.52l40-2.88C1153.11,1694.17,1154.26,1691.63,1155.65,1688.55Zm-89.6-1354a3.92,3.92,0,0,0-3.4-1.71c-6.15.12-12.31.17-18.46.33a12.3,12.3,0,0,0-2.8.88c3.92,4,7.3,7.87,7.59,13.71,8.38.1,16-2.27,24.64-3.36C1070.69,340.62,1068.36,337.61,1066.05,334.58Zm-45-4.43c-8.3-.46-16.6-.83-24.89-1.39-6.29-.42-12.56-1.09-18.85-1.65-.33,0-.66-.07-1-.07H939.43c-1.51,1.72-.84,3.47-.7,5.6,3,0,5.82.06,8.6,0q16-.39,31.93-.85l40.41-1.09c.63,0,1.25-.13,2.11-.22A3.1,3.1,0,0,0,1021.08,330.15ZM892.14,418.82c.86-3.71,1.05-14.15.4-21.15-1.94-1-4.13-.63-6.24-.7s-4.32,0-6.4,0c-1.12,3.46-1.33,15.25-.38,21.86Zm187.61-66.55-31.47,4.93c-2.58,4.19-5.34,8.05-9.88,10.3,5-.33,9.91-.44,14.63-2.43a83,83,0,0,1,26.44-6.38,34.2,34.2,0,0,0,4.53-1Zm-155.91-35.9c-2.31-1-4.83-.64-7.51-.23-.1,1-.25,1.76-.26,2.56,0,4.48,0,8.95,0,13.7a32.77,32.77,0,0,0,3.6.43q5.25,0,10.49-.15c4.88-.13,5.25-.53,5.25-5.62,0-1.64-.13-3.27-.21-5C931.26,320.06,927.62,318.06,923.84,316.37ZM1171.23,1145c9-9.46,17.68-19.24,26.63-29.43l-5.13-3.14c-10,10.41-19.71,20.8-29.53,31.73C1166.11,1145.54,1168.57,1145,1171.23,1145ZM820.44,400.81c0,5,.08,9.94.12,15.26l8.94,3V390.4C820.48,392.23,820.45,392.23,820.44,400.81Zm343,109.08c0,7,0,7,5.25,11.89.24.22.53.41.75.65,3,3.33,6.47,5.43,11.28,4.92,2.07-.22,4.23.49,6.53.8-1.67-3.09-16-16.91-23.8-22.92C1163.48,507.31,1163.48,508.6,1163.47,509.89ZM913.6,1626.44c-.6,16-.27,64.83.51,69.87,2.26-2.06,2.82-4.42,2.8-7.17-.06-10.34,0-20.7,0-31.05q0-14.27,0-28.54c0-2.34,0-4.66-2.85-6.1C913.86,1624.59,913.64,1625.51,913.6,1626.44ZM858.61,392l-7.45,2.92c-.95,4.53-.95,18.92,0,23.5l7.46,2.47ZM766.3,1627.63c-7.91,4-15.39,8.47-23.83,13.28,8.51,1.78,16.27,1.69,23.8,3A37.38,37.38,0,0,0,766.3,1627.63ZM847.22,415.05c0-5.31.1-10.62,0-15.93,0-3.24-.63-3.76-3.73-3.95-1-.06-2-.05-3,0-.65,0-1.29.13-1.89.19-.89,3.68-1,16.27-.19,21.47l8.3,1A18.22,18.22,0,0,0,847.22,415.05Zm199.18-7.31a3.73,3.73,0,0,0,1-2.2c.11-3,0-5.92,0-9.07-3.88-.67-7.27-1.2-9.84,2.13a4.44,4.44,0,0,0-1.17,2.1c-.23,4.91-.24,9.83,0,15.69A102.76,102.76,0,0,0,1046.4,407.74Zm123.24,282.88c-1.81-.22-3.64-.28-5.39-.4-1.06,3.79-1.27,11.21-.58,18.14,2.35,1.86,5.44.81,8.47,2.32.46-6.58.3-12.66.29-19.14A16.41,16.41,0,0,0,1169.64,690.62Zm-88.2-300.94c.2,9.06.39,17.61.58,26.22,2.41.57,4.08-.55,5.92-1.33V391.35Zm-49.59-36a7.63,7.63,0,0,0,3.15-8.29c-.6-3.08-2-5.62-5.27-6.67-6.26,4.4-7.74,11.18-4,20.07C1028.05,356.83,1029.84,355.1,1031.85,353.65Zm115.7,811.69c-.2,1.61-.36,2.84-.57,4.52,10.6,1.61,21,1.73,31.66,2.53,0-2.35-1.57-3.39-2.63-5Zm10.23-823c1.53,2.46,3,4.82,4.47,7.15a4.27,4.27,0,0,0,3.66,2.22c3.64,0,7.27,0,11.26,0-1.53-4-4.07-7-6.24-10.53C1166.35,341.13,1162.19,340.57,1157.78,342.32Zm-95.72,63.93a4.63,4.63,0,0,0-1.07,2.68c-.13,3.29,0,6.59,0,10.2,3.41,0,6.09-1.17,9.19-2.55,0-2.67,0-5.47,0-8.27a79.55,79.55,0,0,0-.23-8.93A48.59,48.59,0,0,0,1062.06,406.25Zm-66.59,1219.9a34.91,34.91,0,0,0-.63-3.44,38,38,0,0,0-2,4.43,11.87,11.87,0,0,0-.14,3v58.1c0,2.5,0,5,2.2,7.54C995.69,1690.8,996.05,1637.89,995.47,1626.15ZM1126.91,351c-3.13,3.49-7.52,5.91-5.47,11.5l16.33,5.49.67-.77ZM939.76,374.59c-3.11,4.18-4.72,9.8-3.85,13.61A29.22,29.22,0,0,0,949,389.59C947.9,386.1,942.53,377.43,939.76,374.59Zm-43.57,22v22.94a18.93,18.93,0,0,0,1.94,1.09,26.83,26.83,0,0,0,2.67.82c1-4.59.5-9,.5-13.46s.49-8.92-.55-13.81ZM725.14,1621.14c0-.24-.29-.48-.45-.75-.84,4.26-.81,55,.46,59.77Q725.15,1650.66,725.14,1621.14ZM1016,392.9a19.53,19.53,0,0,0-11.48.21c-.82,5.53.33,11.06,1.09,16.54Q1010.86,401.28,1016,392.9Zm82.25-4.18-3.9-.39c-.41.5-.79.75-.79,1,0,7.27,0,14.54,0,22.15l4.74.43C1098.57,403.82,1098.44,396.42,1098.29,388.72ZM1015,387.3c-10.82-.16-21.64-.24-32.46-.32a10.88,10.88,0,0,0-3,.32c-.5.14-.87.75-1.74,1.56a9.67,9.67,0,0,0,2.61.91c10.14-.13,20.3.59,30.43-.6,2.72-.32,5.48-.22,8.23-.31,0-.26.06-.53.08-.79A24.47,24.47,0,0,0,1015,387.3Zm63,28.4c1.07-4.71,1-17.49,0-21.39-3.44.51-4.45,1.1-4.49,3.35-.11,5.95-.33,11.9.15,18Zm26.72-60.95a4.88,4.88,0,0,0,4.27-2c1.33-1.66,2.77-3.23,4.76-5.53-3.28.38-5.63.63-8,.94-2,.27-3.91.68-5.88.93-3.21.4-5.45,2-7.33,5.63C1097,354.72,1100.82,354.64,1104.63,354.75Zm11-23.68a4.3,4.3,0,0,0-4,1.45c-1.58,1.88-3.26,3.66-5.67,6.33,3.74-.49,6.4-.82,9-1.2,2-.29,3.9-.66,5.86-1a6.8,6.8,0,0,0,5.73-4.48C1122.73,331.8,1119.16,331.42,1115.59,331.07ZM983,412.41c0-4.66,0-9.32,0-14,0-1.69-.48-2.95-2.45-3-1.08,3.74-1.21,20.9-.15,25.72l2.63-.79Zm74-21.79c-2.74-1-5.36.73-8.73.4,3.33,3.78,1.38,8.31,3.14,12C1058.15,399.14,1058.18,397.22,1057,390.62ZM834.86,416c0-6.47.1-12.93,0-19.39-.05-2.5.41-4.56,2.67-5.68a3.23,3.23,0,0,0-.08-.66c-1.29-.12-2.57-.21-3.71-.3-.34.54-.64.8-.66,1.07-.62,9.23-.29,25.24,1.46,28.61C834.63,418.42,834.85,417.21,834.86,416Zm304-73.9c-4,.71-5.78,4-9.32,6.05,4.82,2.37,9.07,1.52,14,1.54Zm-271.8-30.3c-3.81-.24-7.62-.6-11.43-.81a20.67,20.67,0,0,0-6.07.48,19.25,19.25,0,0,0,4.31,1.06c11.79.2,23.53,2.32,35.56.67C882,312.72,874.52,312.28,867.07,311.79Zm231.87,72.89v-5.56c-2.08-1.59-4-1.17-5.83.32s-3.5,2.94-5.24,4.42l.29,1A66.31,66.31,0,0,0,1098.94,384.68Zm-48.44,35.64a3.44,3.44,0,0,0,1,.43c5.55.42,6.14-.1,6.11-5.51,0-1.44-.17-2.88-.31-4.93C1053.39,413.1,1050,415.35,1050.5,420.32Zm-35.71-96.95c12.23.68,24.44,2.44,36.74,1C1039.29,323.81,1027.08,322.14,1014.79,323.37Zm84.79,6.77c-.7,2.54.55,4.37,1.19,6.53,4.71.38,5.59-3.82,8.25-5.73l-.61-.8Zm-31.13,50.24a22.32,22.32,0,0,0,1.21,2.54c1.4,2.14,2.84,2.52,4.93,1s3.75-3.16,5.61-4.77c-.13-.29-.25-.58-.37-.88Zm-252.57,13c-.29.08-.81.11-.84.25-1.34,6.36-.5,12.81-.58,19.22a6,6,0,0,0,.78,2C817.13,410.05,817,396.55,815.88,393.36ZM1102.8,378.8c-.11,1.58-.18,2.63-.27,4a109.88,109.88,0,0,0,13.59,0c0-.37,0-.74,0-1.11Zm47.66-33.22c.44-.57.82-1.76.53-2.18a3.56,3.56,0,0,0-2.36-1.37,51.8,51.8,0,0,0-5.94.21l4.33,6.84A43.87,43.87,0,0,0,1150.46,345.58Zm-114-7.6a14.43,14.43,0,0,0,.7,2.4,18.56,18.56,0,0,1,2.26,7.54c.08,1.37.91,2.06,2.37,1.55C1043.29,343.65,1042.1,340.87,1036.48,338Zm22.26,46.11c.16,1.82,1,2.93,3,2.84,1.78-.08,3.57-.21,5.85-.35C1065.39,381,1064.8,380.9,1058.74,384.09ZM818.45,362.8a17.29,17.29,0,0,0-4.26-7.07l-4.63,6.13C812.9,363.18,815.52,362.75,818.45,362.8Zm112.93,30.44c4.26,2,13.41,2.26,18,0Zm103.37-37.86c-2.84,2.23-6.7,3.45-5,9C1032.19,361.44,1036,360.11,1034.75,355.38Zm115.82-5.16a11.11,11.11,0,0,0,4.23.61c1.27.07,2.55,0,4.56,0-1.27-2-2.17-3.46-3.56-5.65ZM810.36,412.79c1.14-3.37,1.18-17.75,0-21.69C809.71,395.14,809.68,408.09,810.36,412.79ZM730,1612.86a21.31,21.31,0,0,0,3.4-4.08c-3.67.76-5.09,4-7.68,6l1,1C727.73,1614.76,728.9,1613.87,730,1612.86ZM880.86,393.27c.23.17.45.47.68.47,3,0,5.93,0,9.91,0C885.35,391.66,883.45,391.63,880.86,393.27Zm152.83-18.15c1-.58,1.76-.93,2.44-1.37.94-.61,1.85-1.28,3.41-2.37h-5.85Zm-47,18.87c4.43,0,8.86,0,14.29,0-4-1.3-10.81-1.42-16.52-.5A14.55,14.55,0,0,0,986.68,394Zm177.55,318.34-1.8,2.59c.19.16.41.48.57.45,2.23-.33,4.45-.7,6.68-1.07l0-.58ZM998.7,422.72v-.3H986.78v.3ZM843.24,391.05c1.73,1.55,1.73,1.55,2.43,1.64,2,.25,2.26.18,6.11-1.64Zm176.45-63.92v.43h10.72v-.43Zm-14.85-1v.41h10.42l-.07-.41Zm-4.46-.52v-.41H989.74v.41Zm29.38,92.31-.2,0v5.68l.2,0Zm34.84-25.48-3.23-1.41c-.11,1.36-.2,2.37-.36,4.4Zm-84.3-68.14,0,.27h5l0-.27Zm59.4,4.26,0-.3h-4.65l-.16.3Zm-6.79,79.92v-3.82C1030.57,406.22,1031.92,407,1032.91,408.45Zm128.77,1229.79a1.82,1.82,0,0,0-1.29.08.85.85,0,0,0-.22.83c.22.36.62.81,1,.85a9.68,9.68,0,0,0,2.21-.34A9.94,9.94,0,0,0,1161.68,1638.24Z"/><line class="cls-3" x1="738.01" y1="501.38" x2="738.01" y2="709.7"/></svg>