<svg id="Layer_1" data-name="Layer 1" xmlns="http://www.w3.org/2000/svg" viewBox="0 0 2000 2000"><defs><style>.cls-1{stroke:#000;stroke-miterlimit:10;stroke-width:0.75px;}</style></defs><path class="cls-1" d="M1135.31,784.52c4,1.91,5.17,5.05,4.62,9.17a12.45,12.45,0,0,1-.16,2.31c-.49,1.42-1.66,2.75-1.67,4.12,0,1.57,1.26,3.12,1.37,4.71.24,3.72.14,7.47.14,11.2v335.3c0,3.89-.14,7.78,0,11.67a11.93,11.93,0,0,1-3.14,8.48c-9.79,11.49-19.38,23.15-29.18,34.63a12,12,0,0,0-3.11,8.42c.08,23.81,0,47.63,0,71.45,0,37.2.1,74.41,0,111.61,0,3.37,1.06,5.34,4,7,9.75,5.47,19.29,11.34,29.09,16.72,3,1.67,3.76,3.6,3.27,6.71-1,6.15-1.79,12.31-2.61,18.48q-4.14,31-8.23,62c-.6,4.58-1,9.17-1.53,13.52,8.6,4.75,16.5,9.42,24.69,13.53a33.31,33.31,0,0,1,11.82,10.24,10.59,10.59,0,0,1,2.35,6.82c0,17.12-.22,34.25.15,51.36a24.55,24.55,0,0,1-5.45,16.75,13.09,13.09,0,0,1-6.63,4.76c-8,2.43-16,5-24,7.62-5.88,1.92-11.72,4-17.79,6-.12,1.53-.28,2.9-.32,4.27-.11,4.2-.26,8.4-.24,12.6,0,2.63-1,4-3.68,4.44-2.3.33-4.56,1.08-6.87,1.26-13,1-26,2.23-39.09,2.71-24.1.9-48.22,1.61-72.34,1.88-46.54.52-93.08,0-139.59-1.81-13.36-.52-26.69-1.72-40-2.81-3.5-.28-6.93-1.34-10.61-2.09-.29-7.2-.57-14-.83-20.58-12.75-4.18-24.83-8.78-37.27-12-7.72-2-12.37-6.45-15.84-12.94a9.73,9.73,0,0,1-1.31-4.33q-.13-29.17,0-58.37a6.79,6.79,0,0,1,1.18-3.86c3.64-4.81,7.08-9.89,13.24-12a27.1,27.1,0,0,0,4.06-2.26l21-11.5c-.2-1.89-.35-3.57-.57-5.25q-1.14-8.79-2.31-17.57-3.08-22.89-6.14-45.77c-1.11-8.32-2.13-16.66-3.28-25-.44-3.18.5-5.39,3.51-6.8,2.25-1,4.34-2.43,6.48-3.68l26.17-15.36v-19.53q0-77.05,0-154.11c0-5-.31-10-.22-14.94a10.76,10.76,0,0,0-2.82-7.57c-8.88-10.42-17.42-21.15-26.53-31.36-4.13-4.62-5.63-9.35-5.62-15.49.18-69.11.09-138.23.1-207.34q0-71.69.08-143.37a56.85,56.85,0,0,1,1.07-7.72c0-.39.32-1,.16-1.13-2.71-2.76-1.32-6.16-1.54-9.3a4.82,4.82,0,0,1,2.59-4.59c2-1.33,4-2.79,6.2-4.33a21.29,21.29,0,0,0-1.66-1.51c-6.4-4.69-12.76-9.43-19.26-14-2-1.39-3-2.88-2.92-5.35.07-2.73-.25-5.48-.38-7.89l-11.61-2.9V707.79c0-2,1-3.08,3-3.48,2.87-.56,5.69-1.34,8.95-2.12v-16c0-56,.18-112.08-.12-168.12,0-7.83,2.33-13.28,7.9-18.65,20.39-19.67,40.34-39.78,60.44-59.74,2.07-2.05,4-4.21,6.28-6.55a51.3,51.3,0,0,0-5.76-2.07c-2.29-.51-2.94-1.83-2.92-4q.12-10.05,0-20.08c0-2.7.91-4.39,3.66-5.11,3.31-.85,6.52-2.05,9.82-2.9,2-.51,2.84-1.54,2.81-3.59a76.4,76.4,0,0,1,.2-10.27c.76-6-.73-11-5-15.26-2-2-2.56-4.42-2.53-7.23.12-10,0-19.92,0-29.88,0-1.53.12-3.06.2-4.76a38.13,38.13,0,0,1,4-.51q22.19-.22,44.36-.36a7.94,7.94,0,0,1,3.18.52c7.09,3.15,14.15,6.38,21.21,9.61,3.06,1.4,5.76,3.13,5.06,7.31,1.55.08,2.78.21,4,.2l99.92-.72a3.6,3.6,0,0,0,.93,0c1-.28,2-.63,3-.92a14.31,14.31,0,0,1,3.82-1c17.74.06,35.49.29,53.23.31,5,0,8.78,2.81,12.86,5a3.17,3.17,0,0,1,1.45,2.22,139.71,139.71,0,0,1-.07,19.08l-7.29.76a43.77,43.77,0,0,0,15.65,2.45,9.24,9.24,0,0,0,6.28-2.47c5.85-5.37,12-10.42,17.66-16a15,15,0,0,1,11.24-4.47c13.08,0,26.15.08,39.23-.12a21.22,21.22,0,0,1,18,8.68c1.73,2.21,3.62,4.28,5.43,6.42,5.63,6.64,11.29,13.28,16.89,19.95,3.1,3.69,3.06,3.72-.75,6.93a35.17,35.17,0,0,1-4.34,3.52,4,4,0,0,1-3.33.42c-2.94-1.67-6.06-3.32-8.4-5.69-4-4.08-7.58-8.66-11.23-13.11-.73-.9-.91-2.23-1.53-3.24-1.88-3-2.83-7.24-7.45-7.26-11.2,0-22.41.12-33.62.15a8.22,8.22,0,0,0-5.86,2.37c-4.12,3.79-8.37,7.44-12.53,11.2-1.1,1-2,2.14-3.23,3.39l5.85,3a182.48,182.48,0,0,1,43.27,30.6c26.76,25.55,44.49,56.14,51.32,92.68a12.47,12.47,0,0,0,5.13,8.31c8.42,6.4,16.59,13.14,25,19.6a7,7,0,0,1,3,6.35c-.13,5.29,0,10.59,0,15.88q0,181.18,0,362.38c0,6.23.12,12.46.13,18.68q.06,73.32.11,146.64a13.08,13.08,0,0,0,0,1.4c.23,2.21-.73,3.71-2.4,5.18-10.87,9.55-21.61,19.26-32.46,28.84-7.47,6.59-15,13.06-22.58,19.58-1.29,1.11-2.39,2.07-4.51,1.23-6.23-2.48-10.31-7.07-13.89-12.66,1.43-1.36,2.61-2.59,3.89-3.69q13.08-11.3,26.19-22.54c7.55-6.5,15.07-13,22.66-19.48a8.2,8.2,0,0,0,3.21-7.26c-.22-4,0-8.09,0-12.13V557.48c0-4.51,0-9-.15-13.54,0-1.16-.23-2.68-1-3.4-2.94-2.87-6.12-5.48-10-8.84,0,2,0,2.92,0,3.81a130.6,130.6,0,0,1-6.1,41.84c-10.33,32.75-30.2,58.26-59.15,76.66-2.54,1.61-3.64,3.24-3.6,6.29.17,12.61.06,25.22.08,37.83,0,1.36.21,2.72.32,4.17l11.69,3c0,15.05.23,29.77-.25,44.66l-11.63,2.74c-.1,2.28-.37,4.61-.27,6.91a7.12,7.12,0,0,1-3.48,6.63c-4.34,3-8.59,6.19-12.86,9.31-2.48,1.81-4.93,3.66-7.67,5.7C1132.61,782.54,1133.83,783.81,1135.31,784.52Zm-358.69,382c3,.62,6.12,1.48,9.27,1.85,6.47.77,13,1.45,19.46,1.85,8.84.54,17.7.68,26.55,1.19,34,2,68.1,1.86,102.16,1.91,12.6,0,25.21.72,37.8.65,23.35-.12,46.69-.53,70-.93,10.26-.17,20.51-.51,30.77-1,11.32-.5,22.66-1,34-1.86,8.35-.61,16.66-1.69,25-2.64a32.51,32.51,0,0,0,4.24-1.07V806.11c-4.42.5-8.66,1-12.91,1.45-5.09.55-10.17,1.29-15.28,1.52-18,.83-36,1.48-54.05,2.17-7.62.29-15.23.66-22.84.73-37.82.34-75.64.72-113.46.81-17.11,0-34.23-.52-51.34-.9-8.86-.2-17.73-.46-26.58-.93-15.51-.84-31-1.75-46.52-2.86-5.37-.39-10.69-1.44-16.24-2.22Zm303.87,47.28c-9.92.67-19.84,1.32-29.77,1.71-40,1.58-79.94,2.09-119.93,1.77q-26.37-.21-52.74-1-20.26-.58-40.52-1.88c-8.34-.51-16.64-1.6-25.29-2.47v190.94c1.85.32,3.9.78,6,1,7.69.91,15.38,2,23.1,2.54,8.67.63,17.38.77,26.08,1.08,48.85,1.74,97.71,1,146.56.88,13.06,0,26.12-.51,39.17-1,10.24-.39,20.48-1,30.7-1.81,5.67-.43,11.31-1.39,17.12-2.14V1212C1093.75,1212.63,1087.13,1213.31,1080.49,1213.76ZM761.61,706.9c3.13.64,6.42,1.37,9.73,2,2.28.4,4.6.69,6.91.88,4.92.4,9.85.64,14.77,1.06,3.71.32,7.39.82,11.09,1.24a19.1,19.1,0,0,0,2.71.25c2.93-.11,5.87-.59,8.78-.41,5.25.33,10.47,1,15.71,1.58.93.09,1.87,0,2.8.06,14,.05,28-.27,42,.23,47.44,1.71,94.9.5,142.35.66,16,.05,32-.52,48.05-1,10.09-.31,20.17-1.07,30.25-1.52,2.14-.09,4.31.45,6.46.41,2.44-.06,4.87-.49,7.31-.69,3.86-.31,7.74-.52,11.6-.87,4.92-.45,9.82-1.09,14.74-1.49a52,52,0,0,1,8.82-.16c1.34.13,2.75,1.17,3.81-.15a20.31,20.31,0,0,0,2.41-4.3,4.72,4.72,0,0,0,.09-1.85q0-20.07,0-40.15c0-1.19-.25-2.38-.42-3.93a17.17,17.17,0,0,0-2.39.84,152.08,152.08,0,0,1-53,16.78,181,181,0,0,1-94.65-14c-37.57-16.68-66.8-42.8-87-78.68a152.55,152.55,0,0,1-19-58.6c-.07-.62-.16-1.23-.28-1.84-.23-1.22-.49-2.44-.82-4.06-1.28-.1-2.62-.25-4-.28-18.19-.38-36.39-.6-54.58-1.15-12.89-.38-25.79-.95-38.65-1.91-11-.82-21.89-2.32-32.84-3.5a23.29,23.29,0,0,0-2.64,0C760.87,516.18,760.64,700.68,761.61,706.9Zm369.57,722.28c-7.25.73-14.51,1.6-21.79,2-16.13.85-32.28,1.47-48.43,2.14-7,.3-14,.66-21,.71-45.28.34-90.55.69-135.83.82-15.24,0-30.49-.44-45.73-.92-14.76-.45-29.52-.93-44.25-1.91-11.91-.79-23.77-2.34-35.65-3.55-.88-.09-1.77-.15-3.21-.28,4.15,31.16,8.26,61.91,12.44,93.29,4.11.64,8.19,1.28,12.27,1.89,1.22.19,2.48.21,3.7.42a3.17,3.17,0,0,1,2.94,3.07c.11,1.39.33,2.78.36,4.17.11,6.38.17,12.76.26,19.14,0,1.51.14,3,.23,4.89l16.15,1.28a39.28,39.28,0,0,0,.75-6c-.14-3.25,1.2-5.57,3.58-7.64,5.4-4.69,10.7-9.51,16-14.32a7.22,7.22,0,0,1,5.44-2.1c18.18.65,36.36,1.21,54.53,1.82a12,12,0,0,1,2.14.51c1.8,9.79.63,19.76,1.34,29.89,1.31.13,2.5.34,3.69.35,12.14.07,24.28.08,36.41.18,4.51,0,9,.48,13.52.44,13.51-.12,27-.38,41.12-.6.34-10.17.67-20,1-30.29,1.53-.19,2.87-.47,4.2-.51q19.83-.52,39.65-1c4.66-.1,9.32,0,14-.17a8.17,8.17,0,0,1,6.2,2.59c5.12,4.77,10.24,9.55,15.44,14.22a5.94,5.94,0,0,1,2.32,4.79c0,2.31.3,4.63.46,6.86,4.56,1.24,11.57.94,18.26-.76.81-9.79-.42-19.77,1.3-30.06l20-3c4.16-31.13,8.27-61.91,12.5-93.52C1135.07,1428.49,1133.14,1429,1131.18,1429.18Zm1.21-915c-5.71.63-11.42,1.29-17.15,1.6-9.78.53-19.57.9-29.36,1.17-25.19.69-50.38,1.5-75.58,1.88-30.18.46-60.38.51-90.57.74h-6.18c.56,3.87.89,7.21,1.53,10.51,8.1,42.22,31,74.72,65.72,99.27a162.16,162.16,0,0,0,63,26.77c6.52,1.28,13.25,1.45,19.82,2.5,7.79,1.23,15.52.36,23.25-.13a129.37,129.37,0,0,0,47-12.11c5.19-2.43,10.08-5.48,15.2-8.06a4.75,4.75,0,0,0,3-5.19c-.09-.93,0-1.87,0-2.81V511.75C1145,512.63,1138.7,513.48,1132.39,514.19Zm31.48,196.13c-1.35.12-2.38.15-3.39.3-5.06.74-10.1,1.79-15.18,2.2-11,.88-22,1.63-33,2.09-19.42.83-38.85,1.41-58.27,2.07-6.84.24-13.67.56-20.51.63-36,.34-71.9.77-107.84.84-20.07,0-40.15-.52-60.22-.9q-16.56-.3-33.12-.93c-13.51-.52-27-1-40.52-1.91-12.37-.87-24.71-2.34-37.06-3.59-1.68-.17-3.33-.57-5.41-.93-.15,1.52-.39,2.87-.4,4.21q0,14.48,0,29c0,4.31.11,4.16,4.29,4.92,17.31,3.16,34.79,4.25,52.35,4.7,18.34.46,36.66,1.24,55,1.82,60,1.91,120.13.73,180.19.68,12.29,0,24.57-.49,36.85-.93,14-.5,28-.94,41.92-1.88,12.84-.87,25.64-2.34,38.45-3.62a53.93,53.93,0,0,0,5.89-1.29ZM956.05,439.44h-22.6C918,462.54,911.52,488,913.76,516.13c1.51.12,2.85.31,4.2.31,28.16,0,56.32.09,84.49-.07,17.26-.1,34.53-.45,51.79-.93,16.62-.45,33.25-.93,49.84-1.92,13.62-.81,27.19-2.35,40.77-3.65a61.28,61.28,0,0,0,6.39-1.29,15.53,15.53,0,0,0-1.72-2.66q-20-19.92-40.09-39.77c-9.61-9.53-19.32-19-28.8-28.63-2.49-2.53-5-3.13-8.32-2.55a109.44,109.44,0,0,1-13.86,1.55Q1023.74,438,989,439.15c-5,.18-10,.19-14.94.14a8.8,8.8,0,0,0-5.62,1.75c-2.86,2.11-5.84,4-9,6.19C956.26,445.18,954.56,443.05,956.05,439.44Zm117-55.67a163.42,163.42,0,0,1,68.42,29c22.38,16.08,40.07,36.28,52.19,61.13a138.79,138.79,0,0,1,14.42,66.3c-.95,29.64-11,55.63-30.65,77.71-19.47,21.87-44,35-72.59,41a154.14,154.14,0,0,1-44.51,2.49,161.44,161.44,0,0,1-55-14.67A169.13,169.13,0,0,1,942.19,597C925,574.9,914,550.11,910.89,522.21c-6.09-54.11,20.76-102.85,68.92-126.62a147.6,147.6,0,0,1,44.34-13.41c4.14-.61,8.35-.68,12.52-1.14a10.26,10.26,0,0,0,4.37-1.19c4.66-3.07,9.16-6.38,14.63-10.25-2.57-.53-4.24-1.14-5.92-1.18-43-1.13-80.92,11.52-112,41.84-22.24,21.69-35.2,48.32-39.06,79.2-3.65,29.16,1.27,56.95,13.89,83.46,16.61,34.88,42.3,61.07,76,79.67A182.8,182.8,0,0,0,1044,672.24a169.79,169.79,0,0,0,45.55,1.86c26.91-2.34,51.83-11,74-26.82,26.13-18.67,43.91-43.45,52.34-74.42,9.77-35.86,5.6-70.66-10.56-103.92-20.45-42.07-53.36-70.83-96.39-88.38a175.65,175.65,0,0,0-36.25-10.06,6.85,6.85,0,0,0-4.44.63c-4.56,2.88-8.94,6.07-14.18,9.7C1061.15,381.92,1067.14,382.75,1073.09,383.77Zm47.74,787.94c-5.72.55-11.42,1.28-17.15,1.61-9.46.53-19,.72-28.42,1.2-30.3,1.52-60.64,1.77-91,2-13.07.07-26.14.66-39.2.59-21.78-.12-43.57-.53-65.35-.91q-16.1-.29-32.18-.93c-12.89-.52-25.78-1.08-38.65-1.93-8.51-.57-17-1.7-25.47-2.55-.91-.09-1.85,0-3.26,0a23.4,23.4,0,0,0,1.69,2.84c8.86,10.63,17.84,21.17,26.59,31.89a10.92,10.92,0,0,0,7.55,4c5.85.72,11.72,1.4,17.59,1.81,7.28.52,14.58.86,21.88,1.07,14.46.42,28.91.88,43.37,1,33.76.34,67.52.63,101.28.7,13.84,0,27.69-.45,41.53-.94,12.57-.44,25.14-1.1,37.7-1.85,5.73-.35,11.42-1.26,17.14-1.72,3.94-.31,6.47-2.63,8.81-5.42q12.87-15.41,25.74-30.8c.56-.67,1-1.46,1.86-2.75ZM772.76,510.77c7.4.78,14.82,1.48,22.24,1.92,9.15.54,18.3.85,27.46,1.13q33.07,1,66.15,1.85c1.83.05,3.66,0,6.15,0-1.39-27.18,4.11-52.49,17.13-76.48a30.24,30.24,0,0,0-3.55-.67c-2.18-.1-4.36,0-6.53-.08-12.12-.35-24.24-.48-36.34-1.14-8.66-.47-17.29-1.59-25.91-2.55-2.48-.28-4.54-.07-6.3,1.95-1.42,1.64-3.15,3-4.69,4.53q-30.37,30.33-60.7,60.69c-2,2-3.81,4.06-6.47,6.9C765.82,509.6,769.27,510.41,772.76,510.77Zm316.46-102.45c0,5-.06,10-.09,14.95,0,1.24,0,2.49-.06,3.73a3.87,3.87,0,0,1-3.07,4.1c-1.72.5-3.37,1.25-5.57,2.08,2.13,2.21,3.91,4.13,5.77,6q24.9,24.63,49.82,49.23c5.42,5.36,10.79,10.78,16.32,16a7.76,7.76,0,0,1,2.51,6.16c0,13.08.07,26.15.09,39.22q0,39,.06,78c0,1.79.14,3.59.25,6.36,3-2.29,5.19-3.89,7.28-5.67,22.17-18.85,36-42.54,41.07-71.22,2.11-11.88,2-23.84,1.1-35.83-.27-3.54-1.93-5.86-4.66-8q-52.05-41-104-82.2c-2.79-2.21-4.35-4.42-4.09-8.14.31-4.33,0-8.71,0-13.07,0-1.37-.15-2.73-.22-4C1089.09,405.3,1089.23,406.92,1089.22,408.32Zm35.23,1008.93c-5.77-3.37-11.59-6.66-17.29-10.13A8.79,8.79,0,0,0,1101,1406c-8.76,1.12-17.53,2.35-26.34,2.85-20,1.11-40,1.92-60.08,2.64-9,.33-18,.21-27.07.21-29.09,0-58.19.13-87.28-.21-18.19-.21-36.37-1-54.54-1.88-9.91-.49-19.91-1.08-29.62-2.92-5.79-1.09-10.06.12-14.68,3-7.23,4.54-14.71,8.69-22.07,13-.9.52-1.74,1.15-3.05,2,4.45,2.1,8.84,2,13,2.32,18.28,1.21,36.58,2.15,54.88,3,10.71.5,21.43.83,32.16.92,44.33.34,88.66.68,133,.76,17.57,0,35.14-.49,52.71-1q20-.59,40-1.83c10-.63,20.08-1.77,30.11-2.75a39.32,39.32,0,0,0,5.15-1.34C1132.41,1421.93,1128.44,1419.58,1124.45,1417.25Zm-227.28,211.5c37.93,1.47,75.87,1.62,114.07,0v-46.41c-2.65-.89-103.86-1.44-114.07-.55Zm-93.76,28.75c5.1.75,10,1.57,14.83,2.13,4.32.48,8.66.78,13,1,10.71.44,21.44.66,32.16,1.14,40.42,1.8,80.88,1.88,121.33,1.67,19.14-.1,38.27-.51,57.41-1q20-.55,40-1.84c8.35-.54,16.65-1.74,25-2.66a13.57,13.57,0,0,0,2.07-.63v-16.74c-3.88.38-7.55.77-11.23,1.1-6.18.57-12.35,1.35-18.54,1.6-24.87,1-49.73,2-74.6,2.57-20.38.45-40.78.44-61.16.31q-36.42-.24-72.82-1.07c-13.67-.31-27.34-1-41-1.91-8-.51-16-1.72-24-2.6-.61-.07-1.23,0-2.43,0ZM785.84,780.1c2.5,1.57,5.84,2.07,8.88,2.45,6.77.86,13.58,1.51,20.4,1.91,9.3.54,18.63.86,28,1.13,22.38.66,44.76,1.61,67.15,1.76,38.44.25,76.88.07,115.32-.1,12.6,0,25.2-.5,37.78-1,11.65-.45,23.29-1,34.91-1.84,8-.58,16-1.64,24-2.69a13.27,13.27,0,0,0,5.58-2.08c5.66-3.85,11.15-7.94,16.69-12a6.53,6.53,0,0,0,.92-1.37c-3,.3-5.77.66-8.5.83-15.81,1-31.61,2.07-47.43,2.94-8.69.49-17.4.62-26.09,1-38.57,1.52-77.15,1.93-115.73,1.72q-44.82-.24-89.63-1.1-24.71-.47-49.4-1.91c-13.31-.78-26.58-2.29-39.88-3.46a14.27,14.27,0,0,0-2,.3C773.67,771.57,779.55,776.15,785.84,780.1ZM761.36,762c3.21.66,6.18,1.51,9.21,1.85,6.94.79,13.89,1.49,20.85,1.93,8.69.55,17.39.86,26.08,1.15,20.67.67,41.33,1.6,62,1.81q69.3.72,138.63.76c14.93,0,29.86-.49,44.79-1s30.14-.93,45.18-1.88c12.69-.8,25.33-2.28,38-3.53a47.94,47.94,0,0,0,5.59-1.24v-8.6c-1.85,0-3.64-.11-5.42,0-7.58.56-15.15,1.38-22.74,1.77-15.52.79-31,1.37-46.58,2-6.83.28-13.66.54-20.5.74-58,1.75-116.08.88-174.13.81-13.37,0-26.75-.49-40.12-.93-14.92-.5-29.83-1.06-44.73-1.89-10.22-.57-20.42-1.67-30.63-2.49-1.66-.14-3.35,0-5.47,0Zm124-358.55c2.29-4.56,4.69-9.09,6.83-13.73,1.07-2.31,2.55-3,5.07-3.08,21.15-.19,42.3-.56,63.45-.77a17,17,0,0,0,8-2c5.22-2.71,10.66-5,16-7.48l3.23-1.53c-.85-9.29-.64-9.84,7.62-20-14.07,0-28.36,0-42.65,0-13.69.06-27.38.23-41.06.32-7.32.05-14.63.09-21.94,0a7.15,7.15,0,0,0-5.78,2.3c-8.26,8.68-16.61,17.26-24.87,25.94a5.51,5.51,0,0,0-1.65,3.17c-.17,5.73-.08,11.46-.08,18.22Zm-57.22,1154v59.07c18.77,1,37.3,1.67,56.11,1.14v-58.58Zm197.38,1.66c-1.14,3.86-1.44,52.08-.49,58,4.74,1.35,47.58.77,56.28-.81v-58.67ZM1245.91,545.18v6.72q0,119.52,0,239.06v276.88c0,4.51,0,9,.06,13.54s.21,4.65,5.43,5.89V542.69ZM1111.76,405.76c0,6.25-.21,12.58.15,18.87.09,1.45,1.93,3,3.3,4.14,8.83,7.12,17.74,14.14,26.64,21.19l53,41.93a12.28,12.28,0,0,0,3.28,1.95A142.67,142.67,0,0,0,1167.39,440a163.27,163.27,0,0,0-50-38.36C1117.66,405.93,1114.5,405.14,1111.76,405.76ZM1085.57,1627c15.81.57,31.2-1.24,47.26-2,.17-15.85,0-31.61.08-47.89l-47.34,2.64Zm33.19,1.66c-2.17.14-4.33.43-6.5.5q-32.15,1.13-64.3,2.17c-9,.29-18,.58-27,.68-28.16.34-56.31.68-84.46.82-10.42.05-20.84-.47-31.26-.72-1.51,0-3,0-5.24,0,3,4.64,6.93,7.39,10.46,10.48.64.57,2.1.29,3.18.29,33.76,0,67.52,0,101.28-.12,11.81,0,23.63-.44,35.43-.89,12-.46,23.88-1.35,35.83-1.76,17.63-.61,34.11-5.86,50.45-11.85.24-.09.4-.41.76-.79C1131,1627.87,1124.9,1628.25,1118.76,1628.66Zm-294.9-48.94c-15.15-1.32-30.14-1.44-45.48-3-.17,2-.39,3.51-.4,5q-.06,19.14,0,38.28c0,4.75.24,4.88,5,5.13,11.63.62,23.26,1.3,34.89,1.91,1.82.1,3.66,0,6,0ZM786.94,790.93c4.62.52,9.27.88,13.91,1.15q22.56,1.33,45.11,2.53c3.73.19,7.47.11,11.2.22,55.21,1.69,110.44,1,165.66.85,14.3,0,28.61-.52,42.9-1,12.58-.43,25.15-1,37.7-1.83,9.44-.63,18.83-1.76,28.24-2.72a23.41,23.41,0,0,0,3.62-1c-3.6-5-6.11-5.86-11.59-4.8a131,131,0,0,1-16.1,2.28c-13.8.91-27.61,1.5-41.42,2.16-57.21,2.75-114.46,1.81-171.7,1.59-17.87-.07-35.74-1-53.61-1.75-12-.48-23.9-1.11-35.82-2a158.3,158.3,0,0,1-17-2.61c-2.45-.46-4.53-.44-6.45,1.35-1.22,1.13-2.64,2-4,3l.19,1C780.86,789.91,783.88,790.59,786.94,790.93Zm339.9,2.57c-6.17.62-12.34,1.34-18.52,1.72q-24.19,1.44-48.39,2.6c-4.81.24-9.65,0-14.47.18-50.23,1.59-100.48,1-150.72.8-13.53,0-27.06-.48-40.58-.94s-27.34-.94-41-1.89c-11.44-.8-22.83-2.31-34.24-3.48a20,20,0,0,0-2.19,0c-.77,4-.63,4.52,2.57,5.07,4.58.78,9.19,1.46,13.81,1.86,6.19.54,12.4.86,18.6,1.12q23.5,1,47,1.9c9.63.36,19.26.74,28.89.86,27.68.36,55.37.82,83.06.8,25.35,0,50.7-.56,76-1,9.32-.15,18.64-.5,28-.92,11.48-.52,23-1.05,34.42-1.9,8-.59,16-1.64,24-2.68,3.74-.48,3.87-.92,3.21-5.24C1133.2,792.75,1130,793.18,1126.84,793.5Zm-228.9,784.77h112.83c-2.7-5.66-5.19-10.9-7.69-16.15H906.3Zm116.64-31.3c2.13,3.3,5.5,5.87,8.56,8.46.88.74,2.66.59,4,.57q22.85-.42,45.67-1c2.76-.07,5.51-.56,8.58-.89.11-2,.21-3.81.34-6.29-5.93.35-11.31.87-16.69.94-5.23.07-10.55.56-15.74-.25l0-1.75a32.87,32.87,0,0,1,4.66-.86c3.88-.16,7.78-.06,11.66-.2,4.32-.16,8.63-.47,14-.77-4.17-3.93-7.62-7.18-11.09-10.42-1.14-1.06-2.42-2-3.47-3.12a6.52,6.52,0,0,0-5.41-2.06c-14.9.39-29.82.67-44.72,1.08-2.47.07-4.92.6-8,1C1009.6,1537,1011.59,1542.33,1014.58,1547Zm-186.67,7c3.52.37,7,.84,10.5,1.06,3.1.19,6.22.06,9.33.14,10.42.28,20.84.36,31.24,1,5,.29,8.74-1.14,11.58-6-4.76-.34-9.28-.79-13.82-1-5.13-.21-10.27-.14-15.4-.28-1.25,0-2.92.54-3.44-1.88,5.94-1.83,11.92-.54,17.85-.44s12.13,0,18.73,0c2.49-4.74,5.06-9.64,8-15.18a64.27,64.27,0,0,0-6.58-1c-3.57-.17-7.15-.05-10.73-.14-11.35-.27-22.69-.54-34-.9a8.74,8.74,0,0,0-6.74,2.43c-5.34,5-10.85,9.8-16.47,14.85ZM845.61,335.4c-.17,2.09-.39,3.72-.4,5.36,0,8.54.1,17.09,0,25.63a10.8,10.8,0,0,0,2.65,7.66c1.9,2.23,3.6,4.64,5.61,7.24,1.41-1.36,2.65-2.49,3.82-3.69,7.33-7.61,14.61-15.26,22-22.82a9,9,0,0,0,2.78-7.07c-.18-4.13,0-8.28,0-13.12ZM780,1629.61c6.91,2.27,13.77,4.74,20.78,6.66a99.3,99.3,0,0,0,15,2.78c5.85.68,11.76,1,17.64,1.17,18.61.7,37.22,1.27,55.83,2,5.11.19,10.21.62,15.8,1-.69-2.71-2.78-3.68-4.06-5.23-3.68-4.47-8.23-6.08-14.2-6-16,.12-32-.39-48-.9-14.11-.45-28.22-1.14-42.32-1.89-5.87-.31-11.73-1.06-17.59-1.57-1-.09-2,0-3,0l-.1.46C777.23,1628.51,778.61,1629.13,780,1629.61ZM1130.2,801.07c-10.2.88-20.39,2-30.6,2.64-32.91,2.14-65.87,2.82-98.84,2.93-25,.08-50.09.67-75.12.51-23-.15-46-.89-69-1.58q-24.93-.74-49.85-2.07c-7.89-.44-15.73-1.67-23.6-2.41a23.09,23.09,0,0,0-4.72.5l-.13,1.2a27.25,27.25,0,0,0,4.6,1.24c7.71.76,15.43,1.59,23.17,2,15.2.8,30.41,1.36,45.61,2,9,.36,18,.79,27,.87,41.37.35,82.74.71,124.11.8,17.26,0,34.52-.58,51.78-1,8.07-.18,16.15-.43,24.22-.89q21.62-1.23,43.2-2.8c4.22-.31,8.39-1.24,12.94-1.94C1133.58,800.5,1131.83,800.92,1130.2,801.07Zm34,750.68-16.28,2.14c-1.24,3.35-1.7,51-.49,59,5.32.2,10.55-.85,16.69-2C1164.26,1591,1164.13,1571.54,1164.15,1551.75Zm36.69-1049.94a8.57,8.57,0,0,0-2.74-3.61q-30.84-24.56-61.78-49c-8.17-6.47-16.3-13-24.57-19.32a7.06,7.06,0,0,1-3-6.36c.13-5.73,0-11.46,0-17.52h-6.34c0,7.75-.14,15.35.13,22.93.05,1.33,1.59,2.88,2.81,3.87,8.93,7.27,17.95,14.41,26.94,21.6q33.17,26.5,66.32,53c1.18.94,2.42,1.8,4.3,3.21A90.28,90.28,0,0,0,1200.84,501.81ZM763.65,1613.15v-59.24c-2.31-.39-4.7-.82-7.11-1.18s-4.88-.66-7.3-1c-1,3.33-1.3,52.49-.3,59.13Zm344.17-84.73a15.38,15.38,0,0,0-.66,2.94c-.05,7.29,0,14.58,0,21.87,0,1.59.13,2.92,1.75,3.94,7.72,4.85,15.36,9.83,23.47,15,1-5,.4-9.6.52-14.14s0-9,0-13.64Zm-308.14,2.09c-6.06,3.8-12,7.73-18.16,11.42-2.52,1.52-3.71,3.27-3.62,6.36.22,7.61.07,15.22.07,23.84,9.4-5.33,17.61-11,26-16.17v-27.69C802.06,1529.25,800.82,1529.8,799.68,1530.51Zm277.92-1143c-3.7-.72-7.43-1.55-11.2-2.16-3.05-.49-6.15-.65-9.22-1.08-5.16-.71-9.74.24-13.74,3.89a90.11,90.11,0,0,1-7.61,5.66l3.82,8.8,37.95,1.24Zm62.4-25.2h5.08c11.18,0,22.36.19,33.54,0a7.84,7.84,0,0,1,7,3.51c5.79,7.49,11.78,14.82,17.71,22.19,1,1.18,2,2.25,3.31,3.64l5.58-4.44c-2.37-2.87-4.58-5.59-6.84-8.27-5.7-6.77-11.44-13.5-17.12-20.28-1.35-1.61-2.7-2.67-5-2.65-14.44.12-28.89.07-43.33.08a18.39,18.39,0,0,0-2,.3C1138.6,358.52,1139.22,360.23,1140,362.35ZM1085.57,1576.5c14.34-.13,28.54-1.28,43.25-2.06-.69-1-.86-1.52-1.19-1.73-6.9-4.46-13.77-9-20.77-13.25a9.09,9.09,0,0,0-4.85-1c-5.38.21-10.75.69-16.44,1.09Zm-261.82.14v-17.3c-5.41-.38-10.61-.85-15.83-1.06a7.41,7.41,0,0,0-3.89,1.15c-7,4.31-13.89,8.74-20.81,13.15-.23.15-.31.51-1,1.76Zm300.93-40.84c6,4.14,12,8.37,17.78,12.75a8.87,8.87,0,0,0,5.92,2.07,58.63,58.63,0,0,0,14.53-2c-1.92-2.61-2.88-5.7-5.86-6.17-2.44-.38-5,.41-7.62.68-.16-3.08,2.13-2.59,3.87-3.42a18.22,18.22,0,0,0-2.44-2c-7.19-4-14.39-8-21.66-11.81a9.29,9.29,0,0,0-4.8-1.27c-4.24.39-8.44,1.23-13.71,2C1115.93,1530.1,1120.39,1532.84,1124.68,1535.8Zm119.53-448c-18,15.49-36,31-54.23,46.64l4.75,5.52,55.8-49.08Zm-108,534.08c4.44-3.87,7.59-7.25,7.43-13.42q-.66-24.7,0-49.44c.15-5.78-2.38-8.83-7.42-11.38Zm-54.86,5.47v-7.27c-6.48,0-12.64-.1-18.8,0-10.39.19-20.77.52-31.16.78a32.38,32.38,0,0,1-4.18,0,6,6,0,0,0-6.24,3,52.58,52.58,0,0,1-3.48,4.41C1023.28,1629.49,1073,1628.72,1081.39,1627.39ZM913.87,435.09c3.88-3.66,4.92-8.12,4.61-13.17-.25-4.29-.05-8.61-.05-13-6.17-2.2-12.06-.9-18.47-1.34-.43,4.6-.16,9-.21,13.45s0,9,0,14ZM774.14,1548.53c-5.11,1.55-7,4-7,9.12,0,17,.25,33.93-.15,50.88-.13,5.87,2.92,9,6.84,12.32C774.81,1616.87,775,1554.35,774.14,1548.53Zm116.41,78.83c-5-6.36-5-6.29-13.07-6.46-14.76-.3-29.51-.69-44.27-1-1.66,0-3.32,0-5.18,0v7a30.16,30.16,0,0,0,5.19,1c18.63.44,37.27.78,55.91,1.14a18.16,18.16,0,0,0,2.17-.27A12.23,12.23,0,0,0,890.55,1627.36ZM764.2,1550.43c3.42,0,5.41-3,7.73-5.83-4.1-.77-8-.21-12.09-2.85a23.09,23.09,0,0,1,11.55-.13,9.63,9.63,0,0,0,7.85-1.51c6.69-4.44,13.54-8.64,21.23-13.51-5.22-.94-9.38-1.79-13.58-2.35-.91-.12-2,.71-2.94,1.22-8.86,4.79-17.74,9.54-26.54,14.43-3.33,1.85-5.42,5-8.33,9.12C754.74,1549.59,759.47,1550.45,764.2,1550.43Zm278-1196.23c1.67,1.84,3.52,3.52,5.1,5.43a4.6,4.6,0,0,0,4.94,1.64c6.84-1.35,13.69-2.58,20.53-3.9,5-1,5.23-.92,7.84,4.88-.54.36-1.33.83-2.07,1.37s-1.4,1.12-2.69,2.17h10.94V350.65c-9.06-.09-18-.1-27-.3s-17.7-.56-26.55-.85A12.89,12.89,0,0,1,1042.22,354.2Zm-148.67,1198c-3.76,3-6.15,5.68-6.07,10.59.3,17.24.34,34.5,0,51.74-.1,5.11,2.65,7.75,6.09,11.62ZM911.07,350.68c1.87,1.22,95.17.74,110.9-.55-1.92-1.94-3.56-3.34-6.26-3.27-10.56.26-21.13.39-31.69.58-4,.07-8.08.2-12.11.2q-27.75,0-55.48,0h-5.36Zm104.44,1274.39c3.56-2.76,5.44-5.32,5.39-9.57q-.3-26.77,0-53.55c.06-4.18-1.81-6.49-5.4-8.79ZM960.76,410.75c-4.33,3.76-8.56,7.64-12.88,11.42a7.39,7.39,0,0,0-2.71,6.56c.15,2.27,0,4.57,0,7.39,4.25,0,7.94.13,11.62-.08a4.45,4.45,0,0,0,2.9-1.79c1.67-2.42,3-5,4.52-7.59a3.36,3.36,0,0,0,.52-1.28,123,123,0,0,0,.15-17.25A36.08,36.08,0,0,0,960.76,410.75ZM992,436.25l18.23-1.12V411.71l-19.16,13.37C991.4,428.76,991.69,432.26,992,436.25ZM885.75,335a72.08,72.08,0,0,0-.1,15h21.83v-8.59C900.42,339.31,894.42,333.68,885.75,335Zm151.13,71.79V434.1c2,.12,3.48.28,5,.28s3.06-.13,5.08-.22c.8-9,.31-17.91.32-27.33Zm-15.54-39.95,24.21-4.47c-2.85-2.84-4.91-5.14-7.24-7.11a5.85,5.85,0,0,0-3.48-.82c-7.61-.07-15.23,0-22.54,0ZM899.72,404.21h18.06c.93-4.54-.44-8.85-.9-13.53-5.89-1.45-11.73-.54-18.47-.76C898.88,395,899.28,399.46,899.72,404.21Zm-26.53,30v-26.4h-8.33c-1.19,3.7-1.4,20.94-.28,26.4Zm160.72-2.91V411.92h-11v20.49ZM876.78,411.62v19.62h10.55c.63-6.26.24-12.67.13-19.62ZM838.45,405l-8.06,2.57c0,6.68-.06,13.15.08,19.62a3.35,3.35,0,0,0,1.8,2.3,52.8,52.8,0,0,0,6.18,1.83Zm235.3,26.41,7.84-2.27c.08-2.58.21-5.17.24-7.75,0-3.42.05-6.84,0-10.26-.1-3.77-.57-4.2-4.41-4.34-1.07,0-2.15.11-3.63.19Zm176.4,108.3c-8.89-7.69-17.84-14.36-27.28-21.84.37,3.06.52,5.31,1,7.5a4.91,4.91,0,0,0,1.64,2.6c6.12,4.95,12.32,9.8,18.59,14.76ZM959.48,442.24c.15.24.29.49.43.73a12.12,12.12,0,0,0,1.89-.89q57.19-40.15,114.35-80.35l-.77-1ZM842,368.16V359c0-6.67,0-13.33,0-20,0-5.11,0-5.11-6-7.1-.36,11.09-.14,22-.08,32.95Zm208.92,39c-.24,9.06-.26,17.45,0,26.41l7.37-2.44V409.68ZM860.17,433.34v-25.9l-7.15,2V431Zm258.17-53c5.59-5,11.5-10.14,17.27-15.47a4.23,4.23,0,0,0,.76-3.27c-.19-1.3-1-2.52-1.83-4.41l-20.16,18C1115.79,377.07,1116.92,378.52,1118.34,380.36Zm-264.4,7.87a4.78,4.78,0,0,0-1.87-3.35c-2.55-1.64-5.36-2.86-8.55-4.5v17.14L854,402.71C854,397.19,854.16,392.7,853.94,388.23Zm66.29,1.22c.13,1.9.23,3.18.33,4.65a27.94,27.94,0,0,0,3,.3c8.08-.07,16.17-.14,24.26-.27,5.13-.08,5.82-.44,10.21-4.68ZM896.84,1553.71c.42,5.87.09,11.8.09,17.83,2.82-2.51,6.41-9.07,6.47-12.32.11-7,0-14,0-21l-1-.29C899.91,1543,896.4,1547.44,896.84,1553.71ZM1081.3,388.28v14.86c3.32.92,6.58.13,10.17-.82V391.14ZM973.88,412.51V427c5-3.44,9.47-6.57,14.06-9.77v-4.73Zm37.58,1137.05c0-4.25-3.07-7.23-5.27-10.83-.12,1.13-.32,2.25-.33,3.38,0,4.35.29,8.73-.08,13-.5,6,2.49,10.63,5.69,15.37C1011.47,1563.53,1011.52,1556.55,1011.46,1549.56Zm50.72-1139v20l6.08-.67V409.34ZM843,409.4v20.11l6,1.26c.68-6.91.23-13.44.26-20.37Zm48.35,5.17c0,5.87,0,11.74,0,18l5,2V409.36C891.41,410.48,891.38,410.48,891.35,414.57Zm255.56,1201.66a3.62,3.62,0,0,0-1.93,1.07,49.45,49.45,0,0,0-5.43,6.5c6-.09,12-.08,17.43-2.58,2.18-1,3.4-4.08,5.66-7C1156.63,1615,1151.76,1615.55,1146.91,1616.23ZM1111.82,398.89c-5.09-2.12-10.19-4.19-15.87-6.52v9.81h18C1114.48,400,1113.1,399.42,1111.82,398.89ZM1082,347.2c-1.22-.65-1.87-1.28-2.55-1.32-5.74-.34-11.48-.75-17.22-.82-10-.13-19.92,0-29.88,0h-4.56C1031.3,347,1069.91,348,1082,347.2ZM757.9,1615.13a42.33,42.33,0,0,1-6.87-.79c1.45,6.36,6.17,8.11,11.6,8.84,2.87.38,5.78.57,9.42.91C768.26,1618.77,764.51,1614.82,757.9,1615.13Zm441.82-499.46-16.13,14c3.72,3.1,3.87,3.13,6.78.64,4.33-3.71,8.62-7.46,13.3-11.5ZM1014.6,433.82c4.54-.64,4.61-.64,4.66-4.61q.09-7.44,0-14.9c-.06-3.2-.15-3.19-4.62-4.94ZM841.15,330.53c1.42.56,2.18,1.14,3,1.14,13.32.05,26.64,0,40,0C881.21,329.83,851.49,329.31,841.15,330.53Zm157.16,29c-5.9,2.82-8.1,8.13-5.75,13.73,1-.21,2-.38,3-.68s1.72-.69,2.79-1.14ZM1012.68,390c.13,2.92.24,5.57.4,9.2a133.54,133.54,0,0,0,13.27-9.2Zm-5.58-24c0-2.17-.25-4.33-.32-6.5,0-1.72-1.16-2.4-2.57-2.83-1.57-.48-2.48.14-2.38,1.73.24,3.69.61,7.37,1,11.44C1007,369.49,1007.07,369.49,1007.1,366Zm-84.64,46.52v10.36l8.62-10.36Zm.23-15.07c7.62,1.3,15.28,1.07,22.93,1.16l.11-1.16Zm107.38,6.67v-5.61c-3.42,1-5.63,3.15-8.64,5.61Zm-38.93,10.7,9.29-6.36-.36-.86-8,1C991.74,410.69,991.51,412.32,991.14,414.85Zm-68.2-10.7v.91h15.39l0-1.2A75,75,0,0,0,922.94,404.15Zm85.64-2.26a13.78,13.78,0,0,0-.6-12.09C1006.54,394.43,1007.27,398,1008.58,401.89Zm7-34.23c.34-3.66-1.57-5.54-4.75-7.58.24,2.89.43,5.1.67,7.93ZM987.8,432.37v-4.89L982,431.55c.08.27.15.55.22.82Zm-18.57-11.63H970V411.6l-.75-.05Zm-129-49.08,6.09,7.48,1-1C845.21,375.82,844.21,372.4,840.28,371.66ZM757.7,705.79l-6.48,1c2.39,1.7,4.51,1.74,7.28,2.13Zm397.08,3,6.1-1C1155.57,705.63,1155.57,705.63,1154.78,708.76Zm-165.53-305v.41h13.6l.09-.41Zm44.11-19.44-10.14,1C1026.59,385.58,1030.09,386.42,1033.36,384.32ZM986.68,409v-.3H973v.3Zm-9.93-4c-2.19-1.92-4.35-1.62-7.59,0Zm9.58,31v-.21h-9V436ZM1021,407.71V408h9.79v-.29Zm-141.27,0v.4h9.94l-.08-.4Zm43.94.91V409h9.81v-.34Zm73.23-16.12c-.53.06-1.32-.09-1.52.2-.81,1.12-.72,2.2,1.85,3.49C997.06,394.5,997,393.5,996.88,392.5ZM852,406.93l0-.95h-3.78l0,1.16ZM941.37,430l-1-.06-.31,3.76,1.35.11Zm114.2-64.39.07.53,5.28-.75-.12-.77ZM881.64,434.86v.2h4v-.2Zm148.73.19v-.18h-3.86v.18Zm32.75-28,0-.2-2-.18-.16.38Z"/></svg>