<svg id="Layer_1" data-name="Layer 1" xmlns="http://www.w3.org/2000/svg" viewBox="0 0 2000 2000"><defs><style>.cls-1{fill:#fff;}</style></defs><path d="M760.82,543.38C780.08,500.21,799,458,817.63,415.78c1.3-2.92,1.49-6.49,1.57-9.77.51-21.26.38-21.2-12.29-37.94a8.6,8.6,0,0,0-7.14-3.72c-5.7-.34-11.67-.22-17-1.9-16.56-5.2-26.34-16.62-28.66-34.05-.19-1.42-.45-2.83-.83-5.16l9.1-2.28c.23-1.08.59-2.44.83-3.81,2.65-15.52,17-26.85,31.41-26.08,3.58.19,7.21-.35,10.78-.08,7.55.57,15.08,1.44,23.66,2.3.11-.17.91-1.55,1.84-2.85a19.89,19.89,0,0,1,15.69-8.79c1.68-.09,3.36-.11,5-.11q114.36,0,228.71,0c8.31,0,16.19,1.28,23.26,6a23.37,23.37,0,0,1,9.36,11.37c5.75,15,12.08,29.72,17.89,44.67,1.46,3.77,3.68,5.51,7.48,6.58,28.33,7.95,54.66,19.89,78.72,37.19,23,16.53,41.46,37.07,56.44,60.63a163.57,163.57,0,0,1,21.48,50.72c4.84,20.78,8,41.72,7.92,63.2a180.1,180.1,0,0,1-7.87,50.94c-4.92,16.47-11.37,32.58-21.22,46.94-3.41,5-4.6,10.2-4.59,16.18q.09,178.37,0,356.72,0,117.58,0,235.17c0,8.39,0,16.79-.35,25.17-.43,11.65-5.32,16.42-16.88,16.76-4.79.14-9.59.14-14.38.14l-85.59-.06h-8.83v-8c2.6-.16,5.13-.43,7.65-.44,20.38-.08,40.76-.09,61.13-.14,8.63,0,17.27,0,25.89-.14,8.86-.13,10.55-1.7,11-10.37.26-5.26.25-10.54.25-15.81q0-278.32,0-556.66,0-8.62-.22-17.25a57.33,57.33,0,0,0-.91-6c-36.22,39-79.71,63.84-130.69,76.74v8q0,242,.14,484c0,23.45,2.56,46.89,3.27,70.36.51,16.74.63,33.56-.33,50.28-2,33.75-3.86,67.48-3,101.31a12,12,0,0,0,3.91,8.8c16.63,16.59,33.07,33.37,49.74,49.93a13.88,13.88,0,0,1,4.57,10.72q-.2,53.58,0,107.15c0,5.09-1.65,8.36-6,11.13-8.89,5.65-17.52,11.73-26.07,17.9a15.15,15.15,0,0,1-9.3,3c-8.63,0-17.26.34-25.89.34q-172.6,0-345.2,0c-8.39,0-16.78-.37-25.17-.37a15.39,15.39,0,0,1-9.34-3c-9.19-6.5-18.43-13-27.8-19.18-2.78-1.85-3.61-4-3.6-7.16q.2-55,.16-110c0-5,1.72-8.49,5.2-11.92,16-15.84,31.74-32,47.78-47.82a13.6,13.6,0,0,0,4.32-10.77c-.47-37.39-1-74.78-1.06-112.17,0-25.64.77-51.29.82-76.94.09-52.73-.06-105.47-.12-158.21,0-20.85-.1-41.69-.07-62.53q.17-158.94.53-317.88c0-7-2-12.09-7-16.94-15.62-15.23-30.81-30.89-46.32-46.23a12.29,12.29,0,0,1-4-9.48q.09-55,0-110c0-4.29,1.52-7,5.1-9.41,9.19-6.08,18.06-12.64,27.26-18.71a16.4,16.4,0,0,1,7.92-2.54C745.26,543.16,752.93,543.38,760.82,543.38Zm499.62,67.07a6.91,6.91,0,0,0,2.92-7.17,7,7,0,0,0,2.83-7.23c1.29-2.42,3.16-4.7,3.76-7.27,3.24-14,6.43-27.89,6.82-42.45.28-10.62-.66-21-1.79-31.44-1.45-13.48-5.47-26.31-10.71-38.61a180.32,180.32,0,0,0-23-39.65c-14.53-18.88-32.25-34.11-52.4-46.44a194.86,194.86,0,0,0-47-21.15,72.78,72.78,0,0,1-7.35-3,4,4,0,0,1,3.87-.9c18.86,5.74,37,13.42,53.58,23.94a197.38,197.38,0,0,1,55.3,51.7,171.44,171.44,0,0,1,30.51,75,162.9,162.9,0,0,1-.16,49.39,182.37,182.37,0,0,1-12.86,44.71,185.22,185.22,0,0,1-19.7,35,217.59,217.59,0,0,1-54.68,53.46A246.21,246.21,0,0,1,1110.91,734a236.71,236.71,0,0,1-64,7.51,258.28,258.28,0,0,1-40.68-4,229.48,229.48,0,0,1-48-14.46c-16.09-6.85-31.42-15.32-45.16-26.34-4.29-3.45-8.44-7.07-12.77-10.47a23.61,23.61,0,0,0-4.36-2.16,6.4,6.4,0,0,0,2,4.36c9.64,10.22,21.26,18,33.21,25a225.79,225.79,0,0,0,70.25,26.27,253.4,253.4,0,0,0,164.6-23.42c29.14-15.1,54.24-34.78,74.92-60.34,21.58-26.67,35.58-56.75,40.85-90.55a171,171,0,0,0-5.49-76.72c-7.73-25.51-21-47.55-38.61-67.3-10.74-12.06-23.08-22.22-36.25-31.5A202.05,202.05,0,0,0,1163,369.11a210,210,0,0,0-49.49-14.37c-2.52-.38-5-.88-8.28-1.46-.76,4.65-1.46,8.6-2,12.57-.54,3.81,1,5.85,5,6.14,2.13.15,4.2.94,6.33,1.29a199.08,199.08,0,0,1,50.62,15.57,204.91,204.91,0,0,1,60,41.36c18.25,18.15,30.69,39.52,39.41,63.4a149,149,0,0,1,8.68,48.58,161.55,161.55,0,0,1-5.53,46.24,71.19,71.19,0,0,0-1.33,7.77c-.94,2.41-1.89,4.82-2.82,7.24s-2,4.77-2.92,7.16l-2.62,5.26,1.54.46ZM784,1075.79c3.65-2.71,3.11-7.16,4.29-10.82,2.59-8.06,2.37-8.13-.12-10.91a74.66,74.66,0,0,0-2.19,7.63c-.81,4.68-1.34,9.41-2,14.13v0Zm469.83-650.85,2.31,5.26,1.33-.82-3.79-4.3c-6.93-10-16.16-17.78-25.16-25.76,4.52,5.14,9.29,10.06,14.14,14.88C1246.28,417.84,1250.06,421.36,1253.78,424.94ZM745.55,716.29l-8.81-2.44c2.73,2.9,5.48,3.79,8.84,2.43,1,5.16,5.32,4.65,9,5,15.36,1.45,30-2,44.32-7q53.55-18.65,107-37.55,83.61-29.41,167.2-58.93c17.11-6.08,34.1-12.56,50.86-19.56,14.7-6.13,26.14-16.33,34.71-30,4.85-7.73,5.37-16.1,6.18-24.61,0-.34-.8-.76-1.42-1.31a68.09,68.09,0,0,0-1.44,7.41c-.93,11.51-7.66,20.14-15.1,27.81-11.52,11.86-26.12,19.35-41.57,24.83-50.51,17.89-101.1,35.52-151.65,53.3q-79.87,28.08-159.74,56.21c-11.11,3.89-22.62,6.37-34.44,6.35C754.82,718.18,750.19,717,745.55,716.29Zm328.22,448.15,4.61.93c11.24-23.87,10.56-93.57-1.4-107.7a73.38,73.38,0,0,0-5.09,5.78c-2.36,3.31-5,6.58-6.57,10.26-3.69,8.51-8.48,17-9.79,26-1.7,11.64-1.71,23.64,3,35.33a125.49,125.49,0,0,0,12.14,23.45,63.86,63.86,0,0,1,3.33,6.22c-1.69-1.48-3.68-2.74-5-4.49a109.34,109.34,0,0,1-6.28-9.61,73.62,73.62,0,0,1-10-28.92c-2.53-19.47,2.15-37.5,13.41-53.7l9.62-13.81-4.23-5.83a38.94,38.94,0,0,0-18.43,15.3c-6.56,10.72-11.57,22.27-13.88,34.43a75.76,75.76,0,0,0,.1,27.68,98.23,98.23,0,0,0,12.49,31.91,50.07,50.07,0,0,0,12.23,13.88c6.26,4.94,8,4.42,11.62-2.68C1075,1167.34,1074.37,1165.89,1073.77,1164.44ZM739.54,718.39l-.95,1.58c4.5,6.45,8.79,13.06,13.59,19.28a21.69,21.69,0,0,1,4.65,13.89c0,17,.29,34,.45,51.05,0,2.31,0,4.61,0,6.92a4.53,4.53,0,0,0,2.54-2.66c3.77-8.55,9.3-10.71,18.39-8.38s16.17,8.23,21.5,14.91c11.77,14.76,20.2,31.41,19.8,51.1-.13,6.19-.11,12.54-1.51,18.49a84.64,84.64,0,0,1-15.53,32.87c-7,9-15.11,16.55-26.78,19.19a13.29,13.29,0,0,1-15-6.78c-.78-1.6-1.58-3.19-2.37-4.79l-1.3.28v133c1.41-3,2.49-5.06,3.28-7.19,1.14-3.08,3.23-4.79,6.17-6.36,4-2.16,7.52-1.87,11.61-.53a48.1,48.1,0,0,1,13.7,7.52c9,6.65,14.87,15.81,19.64,25.35a82,82,0,0,1,7.62,25.25,72.62,72.62,0,0,1-5,38,82.51,82.51,0,0,1-14.9,24.32c-5.85,6.48-12.38,12.55-21.59,14.75-8.59,2-14.17-.16-17.74-8.17a13.17,13.17,0,0,0-1.77-2.37l-1.18.4v133.34a29,29,0,0,0,3.46-6.68c2.26-5.24,7.71-9,13.1-7.78,5,1.14,10.5,2.67,14.43,5.75,20.41,16,31,37.21,31.55,63.17a77,77,0,0,1-1.17,17.11,86.75,86.75,0,0,1-16.21,35.65c-6.31,8.19-13.63,15.31-24,18.43-9,2.68-14.76.14-18.2-8.35-.77-1.89-1.75-3.71-2.58-5.45,0,23.87.16,47.56-.18,71.25,0,3.48,2.75,4.16,3.78,5.55-3.06,2-5.9,3.23-8,5.26-14.29,13.83-28.44,27.82-42.6,41.79-1.16,1.14-2.1,2.49-3.14,3.74a12.36,12.36,0,0,0,6.9-1.51c9.88-5.33,20.84-7,31.59-9.2,2.91-.61,6.18.07,9.22.58a127.1,127.1,0,0,1,38.46,13.38,17,17,0,0,0,11.81,1.54c5.87-1.18,11.78-2.15,17.61-3.52,28.06-6.59,56.63-9.66,85.28-11.93,23.08-1.82,45.89,2.37,68.66,5.19,17.3,2.14,34.39,6.13,51.5,9.68a31.65,31.65,0,0,0,16.88-1c11.58-3.77,23.2-7.6,35-10.33,9.26-2.13,19-4.15,28.35-3.51,13.51.92,27.09,3.15,40,7.81,6.21,2.23,12.49,4.25,18.74,6.37a44.88,44.88,0,0,0-7.77-9.77c-13-13.09-26-26.27-39.2-39.12-3.78-3.66-5.18-7.47-5.11-12.63.2-13.66-.15-27.32-.17-41q-.06-37.37,0-74.73c-.54,14-1.75,27.82-6.76,40.92-3.17,8.3-7.59,15.73-17.19,18.83-9.37,3-17.77.38-25.46-3.77-9.92-5.35-18.87-12.33-23.2-23.54-.51-1.32-1.51-2.45-2.08-3.76-4.18-9.67-8.26-19.38-9.26-30-1.83-19.54,3-37.34,13.16-54.09,8.22-13.58,20.09-21.4,35.27-24.67,6.93-1.49,14-.18,18.93,4.37,4.37,4,7.53,9.94,9.81,15.59,5.1,12.57,6,26,6.68,39.48V1125.09c-.6,12.25-2.1,24.38-6.55,35.86-3.67,9.46-9.44,17.31-20.34,19.25-8.15,1.45-15.79-1.17-22.76-4.77-10.16-5.25-18.14-12.86-23.06-23.69-4.29-9.47-7.69-19.19-8.72-29.41a99.45,99.45,0,0,1,3.29-36.23c4.49-16.63,12.94-29.7,28.3-37.79,6.57-3.46,13.72-6,21.22-5.1,12.13,1.45,18.51,9.77,22.41,20.54,4.09,11.29,5.28,23.08,6.16,35.81V883.13c-.58,5.09-.94,11.09-2,17a92.53,92.53,0,0,1-4.55,17.3c-3.18,8-7.28,15.3-16.54,18.48-9.06,3.12-17.36.59-25-3-12.59-5.93-21.94-16-29.43-27.68a14,14,0,0,1-1.61-4.68c-3.27-15.33-3.93-30.87-3.75-46.48a14.08,14.08,0,0,1,.85-4.17,163.12,163.12,0,0,1,15.2-33.24,13,13,0,0,1,3.15-3.81c8.81-6.26,17.85-12,28.9-13.62,7-1,13.84.2,18.82,4.78A37.21,37.21,0,0,1,1109,820.24c3.54,11.2,5.06,22.65,5.84,34.29.09-9.12.09-18.23.09-27.33s.06-18.22,0-27.33.4-18-.33-26.56c-13.58,1.73-26.35,3.33-39.11,5-18.68,2.43-37.41,1.49-55.91-.95-28.87-3.81-56.6-11.91-82.46-25.76-3.3-1.78-7.08-2.67-10.62-4a8.7,8.7,0,0,1-2.38-1.29c-3.87-3.13-7.45-6.66-11.56-9.42A197.94,197.94,0,0,1,883.83,713C873.65,703,873.46,703.56,859,701.41c-7.26-1.07-13.55.2-20.15,2.66-13,4.84-26.05,9.64-39.3,13.71a141.48,141.48,0,0,1-25.87,5.48C762.1,724.53,750.31,725.16,739.54,718.39ZM801,1550.17v117.5c1.86.54,3.21,1,4.61,1.33,30.72,6.21,61.5,12,92.61,16,9.73,1.23,19.41,2.89,29.3,1.48,29.59-4.22,59.21-8.32,88.47-14.56l19.48-4.16V1550.55c-2.33-.58-4.37-1.21-6.46-1.61-24.65-4.66-49.08-10.71-74.22-12.41-17.12-1.16-34-4.92-51.45-2.3-19.84,3-39.88,4.68-59.72,7.65C829.46,1544,815.47,1547.31,801,1550.17Zm371.74.5a15.6,15.6,0,0,0-2.39-1.45c-17.64-6.08-35.23-12.4-53.91-14.57-5-.57-10.08-1.66-14.93-1a244.41,244.41,0,0,0-57.6,14.54c-4.07,1.59-5.59,3.41-5.57,7.7q.2,53.22,0,106.43c0,4.16,1.13,6.32,5.44,7.78,18.15,6.15,36.37,12,55.16,15.81a35.2,35.2,0,0,0,12.74.12,188.8,188.8,0,0,0,22.33-5.34c13-3.93,25.86-8.31,38.72-12.48ZM877,508.29c39.54.14,77.49-.05,116.49.17V541.4c4.85.5,8.65,1.21,12.45,1.23,36.92.15,73.84.17,110.76.28,2.55,0,4.49-.51,6.09-2.81,3.81-5.46,3.52-8.68-1.88-13.39q-63.95-55.8-127.83-111.64c-2.86-2.51-5.3-2.75-8.37-1.27-9.49,4.58-19.34,8.54-28.37,13.87-25,14.76-46.95,33.18-64.18,56.74C886.84,491.64,882.47,499.55,877,508.29ZM797.52,1549.84c-8.63-3.87-16.48-8.08-24.78-11-13.65-4.73-27.35-7-42-2.08-10.71,3.59-20.58,8.55-30.72,12.9v118.38c14.38,8.14,29.62,13.68,45.21,18.27,2.51.75,5.66,0,8.36-.67,13-3.32,25.19-8.84,37.43-14.32,5.06-2.26,6.56-4.95,6.54-10.16-.18-35.2-.08-70.4-.08-105.6Zm375-979.43c-9-3.65-8.82-3.55-13.89,3.56-3.31,4.64-6.69,9.36-10.79,13.25-11.51,10.92-25.77,17.16-40.49,22.41-21.16,7.55-42.31,15.14-63.6,22.34-4.33,1.47-5.45,3.73-5.41,7.82.13,11.5,0,23,0,34.49,0,4.5,0,9,0,13.78,15.23,4.53,29.16,11.11,44.54,12.91,7.84.92,15.82,3.43,23.46,2.61,15.61-1.68,31.49-2.69,46.37-8.71,6.57-2.65,13.32-4.86,19.84-7.23Zm-7.79-9.62a10.81,10.81,0,0,0,2.46,2.27c7.17,3.34,8.48,9.18,8.41,16.53-.27,29,0,58-.05,87,0,7.41,1.32,15.56-1.31,22-2.51,6.19-9.36,10.62-14.32,15.81l-9.1,9.49a10.74,10.74,0,0,0,2.6,0c35.24-16,64-40.06,86.59-71.35,3.93-5.44,8.71-11,8.71-18.53q0-36.66.08-73.33a19.26,19.26,0,0,0-6.85-15.14q-30.72-27.67-61.3-55.47a37.47,37.47,0,0,0-4.23-2.88,151.8,151.8,0,0,0,6.47,20.84c3.55,9.66,7.35,19.23,10.6,29,3.84,11.53-.81,18.29-11.53,18.14-4.74-.07-9.49.55-14.58.88C1166.51,551.11,1165.67,555.79,1164.77,560.79Zm-291,77.27,161.59-56.82c.2-2.08.39-3.25.41-4.43.08-6.52.06-6.51-6.46-7.79-5.63-1.11-11.3-2-16.88-3.38-32.31-7.72-65.24-10.12-98.28-10.43-15.75-.15-31.52,1.85-47.27,3a40.11,40.11,0,0,0-6.52,1.52C855.2,589.62,860.48,613.9,873.76,638.06Zm235.91-297c-5.18-13-10.78-26.75-16.08-40.59a23.19,23.19,0,0,0-10-11.72c-5.48-3.41-11.39-4.65-17.78-4.65q-87.33,0-174.67,0c-2.07,0-4.13.36-6,.53-2.76,15.3,7.38,28.44,21.95,28.55,30.42.23,60.86.08,91.29.22,15.09.07,30.18.38,45.27.69,6.18.13,7.14,1.05,7.35,7.08.26,7.18.3,14.37.39,21.56,0,3.76,0,7.51,0,11.09,7.31,1.43,12.47.71,16.69-5.18,3.41-4.77,9.71-4.12,13.55.48,1.34,1.61,2.38,3.48,3.7,5.42h15.9ZM1167,694c-.24-.36-.48-.71-.73-1.06-3.8,1.24-7.56,2.62-11.41,3.72-7.56,2.16-15.11,4.45-22.78,6.14a144.64,144.64,0,0,1-17.75,2.48,73.53,73.53,0,0,1-14.29.39c-17.87-1.85-35.6-4.6-52.21-11.95-7.31-3.23-14.5-3.07-22.27-1.54-23.42,4.65-46.64,10.7-70.74,11.28-5.63.14-11.23,1.08-16.95,1.67.32,1,.34,1.49.62,1.75a8.62,8.62,0,0,0,1.77,1.2c24.51,13.6,50.56,22.77,78.39,26.34a237,237,0,0,0,50.81,1.47c18-1.56,35.39-5.17,52.76-9.86,14.37-3.88,26.32-10.82,35.71-22.34C1160.71,700.25,1164,697.21,1167,694ZM877.12,330.73c-3.8-1.4-5.54.36-7.3,1.82-10.9,9-18.91,20.34-24.73,33.09C833.85,390.25,823,415,811.93,439.72q-38.38,85.92-76.68,171.87c-5.62,12.67-10.7,25.6-15.4,38.65a32,32,0,0,0-.21,21.85c3.77,10.09,12,14.67,22.92,15.31,14.19.83,27.62-2.14,40.81-6.76q55.57-19.41,111.1-39,76.88-27,153.73-54.12c16.24-5.74,32.49-11.48,48.58-17.62,10.32-3.94,19.94-9.25,28.23-16.78,5.79-5.26,10.63-11.46,13-18.66,4-12.05,2.25-23.74-6.54-33.57a161.18,161.18,0,0,0-13.57-13.84q-89-77.9-178.24-155.61c-4.32-3.77-8.64-7.52-13.29-11.56l-4,4.61c3.19,3,5.88,5.7,8.75,8.2q92.37,80.64,184.71,161.32a75.43,75.43,0,0,1,12.51,13.79c6.78,9.86,8,21.69.88,32.21-3.17,4.67-7.38,8.72-11.53,12.61-8.25,7.69-18.71,11.63-29,15.32-45.51,16.27-91.15,32.18-136.75,48.21-57.34,20.16-114.64,40.43-172.06,60.37-12.17,4.23-24.59,7.77-37.94,5.25-11.42-2.16-18.1-11.14-18.19-20.73-.1-10.2,3.13-19.38,7.07-28.33,16.4-37.25,33.07-74.38,49.65-111.55,23-51.61,45.89-103.27,69.13-154.77,4.91-10.87,10.74-21.41,20.6-29C872.56,335.65,874.49,333.32,877.12,330.73Zm157.14,69.92c3,2.8,4.94,4.82,7.07,6.68,31.19,27.31,62.47,54.51,93.55,81.94,8.24,7.27,16.09,15.06,19.41,26.13a9,9,0,0,0,2.22,3.64c5.13,5.09,7.51,11.53,9.29,18.31.47,1.8,1.21,3.53,1.82,5.27,7.3-2.21,9.12-4.9,7.87-11.48a39.44,39.44,0,0,0-1.89-6.16c-10.72-29-21.84-57.77-32-86.92-3.27-9.4-7.56-14.69-17.91-17.08-14.36-3.33-28-9.52-42.13-14.13-10.14-3.32-18.56-8.91-24.75-17.53-2.7-3.74-5.65-4.7-10.34-3v11.14ZM876.81,691.17c4.86,5,9,9.36,13.26,13.51,11.64,11.18,24.8,20.42,38.69,28.45a221,221,0,0,0,49.44,21,265.78,265.78,0,0,0,142.58,1.37c29.26-7.94,56.76-20.07,81.68-37.8A255.11,255.11,0,0,0,1251.85,672a218.13,218.13,0,0,0,25.56-39.82,188.19,188.19,0,0,0,15.72-42.29,219.15,219.15,0,0,0,5.32-41.21c.72-15.73-1.49-31-4.87-46.2-4-18.16-11.9-34.83-20.65-51.11-1-1.87-2.39-3.54-3.59-5.31l-1.18.75c3.29,6.58,6.75,13.08,9.82,19.76a172.56,172.56,0,0,1,13,43.19,184.9,184.9,0,0,1,1.72,45.82,174.49,174.49,0,0,1-8.5,41.4,208.34,208.34,0,0,1-19.24,41.62c-14.32,23.75-32.74,43.74-54.32,60.73-21.37,16.83-45.19,29.5-70.85,38.87a249.87,249.87,0,0,1-53.54,13.24c-29.32,3.82-58.73,3.5-87.92-2.66-32.51-6.85-62.74-18.86-89.47-38.84C900.6,703.79,893,696.87,885,690.32a22.77,22.77,0,0,0-2.49-1.55Zm157.53-55.78-129,45.37c6.25,7.9,13.74,12.64,20.76,18a17.72,17.72,0,0,0,13.31,3.66c21.66-2,43.39-3.32,64.68-8.36,10.19-2.41,20.53-4.18,30.55-6.19C1036.34,680.5,1036.14,641.93,1034.34,635.39ZM1153.18,399c3.2,8,5.81,14.63,8.51,21.24,5.46,13.39,12,26.15,22.4,36.48q15,15,30.49,29.49c14.14,13.29,28.46,26.41,42.71,39.59,7.32,6.76,12.39,14.54,11.86,25.06a47.51,47.51,0,0,0,.6,6.69,97.23,97.23,0,0,0,1-20.12,95.76,95.76,0,0,0-1.86-15.68c-5.62-25.85-17.88-48.44-35.06-68.3a181.45,181.45,0,0,0-53.7-42.67C1172,406.53,1164.1,401.41,1153.18,399ZM715.5,1678.87l-.35.43c3.38,2.42,6.93,4.64,10.1,7.3,5.42,4.54,11.39,5.89,18.48,5.88q179-.29,358-.14c10.55,0,21.09,0,31.63,0,1.9,0,4.22.35,5.63-.56,7.54-4.91,14.86-10.17,22.26-15.31-.23-.44-.46-.88-.7-1.32l-6,1.64c-14.52,4-29,8.09-43.61,11.73a26.27,26.27,0,0,1-11.2,0,347.85,347.85,0,0,1-55.79-16,24.34,24.34,0,0,0-14.11-.94c-32.07,6.78-64.34,12.46-96.87,16.53-6.15.77-12.49,2-18.54,1.36q-27.79-3.15-55.42-7.76c-17.69-3-35.25-6.72-52.84-10.21a23.09,23.09,0,0,0-13.94,1.76c-12.55,5.27-25.32,10-38,15.07a15,15,0,0,1-11.15,0C733.94,1685,724.7,1682,715.5,1678.87ZM715.3,659l-1.24.06c.26,5.83-.53,12,1.06,17.4,2,6.81,6,12.65,13.07,16.23,11.45,5.78,23.22,5.07,35,2.91,19.16-3.52,37-11.3,55.34-17.64,37.08-12.86,74.07-26,111.09-39,42-14.77,84-29.44,125.92-44.37,17.34-6.18,34.62-12.58,51.67-19.51,15.46-6.28,28.21-16.31,36.36-31.17a38.19,38.19,0,0,0,3.9-28.29c-2.65-10.91-9.32-18.93-17.22-25.86q-90.26-79.21-180.85-158c-4.7-4.1-9.39-8.2-14.13-12.24-1.45-1.24-3-2.64-5.11.21,2.25,2,4.49,4.07,6.78,6.07q91.56,79.9,183.07,159.86a113.28,113.28,0,0,1,15.29,16.14c8.39,11,9.61,23.57,4.13,35.9s-15.55,21.42-27.37,27.62A250,250,0,0,1,1079.71,579c-45.53,16.19-91.2,32-136.79,48-53.71,18.9-107.36,38-161.09,56.81-13.19,4.62-26.76,7.35-40.89,6.07-6.64-.6-13-2.8-17.46-7.31s-8.06-10.18-7.73-17.26A54,54,0,0,0,715.3,659Zm584.61-82.59-.6.21c-3.74,12.32-7.28,24.7-11.27,36.94-5.84,17.94-15.32,34.13-26.14,49.34a249.74,249.74,0,0,1-106.81,84.5,263.78,263.78,0,0,1-78.42,19.37C1040.35,770,1005,766.63,970.43,755c-30.13-10.18-57.1-25.65-80.49-47.26-4.58-4.23-9.08-8.54-13.79-12.62-1.4-1.21-3.4-1.73-5.12-2.57a5.54,5.54,0,0,0,1,4.13c1.76,2.26,3.52,4.56,5.49,6.64,19,19.94,40.45,36.38,65.43,48.45a252.2,252.2,0,0,0,76.62,23.09,256.64,256.64,0,0,0,59.48,1,266.46,266.46,0,0,0,51.36-10c17.89-5.41,35.4-12.13,51.48-21.75a378.73,378.73,0,0,0,37.46-25.24,195.59,195.59,0,0,0,41.11-43c7.75-11.18,15.2-22.75,21.21-34.92a176.62,176.62,0,0,0,16.41-51.83C1298.72,584.88,1299.3,580.66,1299.91,576.45ZM865.46,450.67l1.51,1c22.91-30.3,51.89-53.15,86.46-70.7-10.65-9.06-19.75-18.49-30.85-25.69a34,34,0,0,0-17.23-5.84c-4.16,13.39-11.7,13.58-19.77,7.56-8,6.09-12.45,14.5-16.44,23.42,2.54,1.9,4.54,3.21,6.34,4.76,5.36,4.62,5.88,7.27,2.95,13.7-3.67,8.05-7.4,16.07-11,24.17a19.43,19.43,0,0,0-1.92,6.82C865.3,436.81,865.46,443.74,865.46,450.67ZM1106.75,349c3.66,2.7,3.63,2.88,10.74,4.05a209,209,0,0,1,52.63,16.37c15.44,7,30.25,15.45,43.54,26.3A245.74,245.74,0,0,1,1250,432.3a150.92,150.92,0,0,1,21.9,37.77,196,196,0,0,1,11.55,37.61c4.53,24.22,3.56,48.5-2.15,72.69a190.53,190.53,0,0,1-31,67.4,225,225,0,0,1-55.77,54.46,253.71,253.71,0,0,1-118.77,43.26,267.75,267.75,0,0,1-54.52-.23,240.61,240.61,0,0,1-59.81-14.61,189.06,189.06,0,0,1-38.87-19.9c-9.85-6.73-18.92-14.61-28.3-22-2.1-1.66-4-3.71-7.08-.35,4.7,4.4,9.12,9.12,14.11,13.12,24.82,19.93,53,33.42,83.53,41.77a210.22,210.22,0,0,0,35.24,6.6,264.45,264.45,0,0,0,105.83-9.72A244.84,244.84,0,0,0,1176.11,719a255.15,255.15,0,0,0,42.4-29.4c11.85-10.23,22.85-21.29,31.74-34.11,8.17-11.76,16.08-23.88,22.45-36.67a178.07,178.07,0,0,0-14.55-182.11,202.6,202.6,0,0,0-60.57-56.46A233.37,233.37,0,0,0,1111.81,349,36.2,36.2,0,0,0,1106.75,349Zm-117,192.51V512H875.25c-3.73,9.84-8.66,18.85-11,29.54ZM720.9,698c.24-.4.47-.81.71-1.22-2-3.23-4.28-6.34-6-9.73a33.36,33.36,0,0,1-3-8.67c-2.82-14.7.64-28.51,6.56-41.86C730,612,741,587.55,751.85,563.05c1-2.25,1.73-4.61,2.66-7.1-16.12-2.32-38.81,3.94-54.37,14.53v118ZM941,317.63l-.57,1.5q24.83,21.71,49.62,43.45c2.48,2.18,5,2.33,8,1.62,8.35-2,16.72-3.91,25.12-5.65,8.11-1.67,16.28-3.08,24.63-4.65,0-10.8,0-21,0-31.29,0-3.15-1.66-4.85-4.91-4.86-2.16,0-4.31-.14-6.46-.14l-86.86,0Zm216.79,212c-.84,5.11-1.19,8.71-2,12.17-1.2,4.84-2.08,10-4.36,14.29a66.2,66.2,0,0,1-18.5,21.65c-9.27,7.15-19.67,12-30.42,15.85-47.5,17-95.16,33.65-142.76,50.42-46,16.2-92,32.53-138.1,48.54-15.8,5.48-31.72,10.78-47.88,15-12.63,3.33-25.57,3.51-37.69-3.11a60.92,60.92,0,0,0-6.35-2.62c4.17,9.7,12.7,12.42,21.6,13.49,14.78,1.79,29.08-1.49,43-6.34,42.67-14.91,85.27-30,127.92-45q88-30.93,176-61.85c14.89-5.26,29.46-11.17,41.74-21.7,11.12-9.52,19.08-20.46,20.55-35.57A27.38,27.38,0,0,0,1157.75,529.68Zm-372,892.86c-8.2-34-8.22-91.36-.19-127.66-2-.87-4.09-1.89-6.26-2.68-9.87-3.58-14.64-1.94-17.66,7.86-2.58,8.36-4.62,17.2-4.9,25.89-.7,21.5-.61,43-.11,64.56.24,10.22,1.45,20.54,6.16,30,2,4,7.35,7.51,10.75,6.52C777.65,1425.83,781.56,1424.12,785.8,1422.54Zm.44-492.12c-4.22-10.13-3.5-20-3.54-29.73q-.09-32,.24-63.92c.09-10.23-.58-20.54,3-31.21-3.64-1.24-6.92-2.51-10.3-3.47-5.59-1.6-10.7.44-12.79,5.81-1.7,4.37-3.2,9.14-3.27,13.75-.45,28.24-.52,56.49-.6,84.74a79.15,79.15,0,0,0,.85,13.6c1.63,9.67,7,15.38,13.79,14.38C777.72,933.76,781.64,931.91,786.24,930.42Zm289.58,494.11c9.52,4.46,18,2.3,24-5.32,7-8.86,9.6-19.28,10.75-30a281,281,0,0,0,0-61c-1.21-11-3.83-21.62-11.13-30.57-5.78-7.08-14.58-9.12-23.74-4.66a42.76,42.76,0,0,0,2.3,4.28c5.72,8.37,8.14,18.08,8.83,27.74,1.24,17.65,1.61,35.4,1.3,53.08-.28,15.6-2.63,31-11.69,44.46A6.73,6.73,0,0,0,1075.82,1424.53ZM785.59,1050.37a24.4,24.4,0,0,0-12.41-4.57c-3.82-.41-7.89,1-9.64,4.84-1.94,4.31-3.84,8.87-4.49,13.5-3.3,23.3-3.76,46.76-2.6,70.24a187.53,187.53,0,0,0,2.74,26.37c1,5.17,3.22,10.79,6.67,14.61,4.37,4.84,12.76,3,19.65-2.9-.94-3.67-2-7.32-2.79-11-3.18-15.36-2.9-31-2.91-46.52C779.8,1093.39,779.74,1071.84,785.59,1050.37Zm289.69-118.28c10,4.35,18.74,2,24.81-5.51,6.9-8.62,9.28-18.86,10.46-29.3a267.5,267.5,0,0,0,0-58.79c-1.21-11.21-4.09-22.07-11.83-31a17.82,17.82,0,0,0-23.17-3c7.2,9.14,10.47,20,11.3,31.22,1.24,16.68,1.64,33.48,1.3,50.2C1087.81,902,1085.63,917.92,1075.28,932.09Zm.75,244c10.43,3.72,18.07,1.38,24.53-6.78s8.81-18,10-28a263.17,263.17,0,0,0,0-58.78c-1.15-10.48-3.78-20.64-10.71-29.22-6.11-7.56-14.94-9.62-24.08-4.9.8,1.43,1.51,2.92,2.43,4.28,5.5,8.17,7.61,17.55,8.75,27a254.84,254.84,0,0,1,1.63,29.37c.07,16.26.52,32.65-4.64,48.38C1081.87,1163.7,1078.8,1169.63,1076,1176.09Zm178.9-486.79-1.93-.57c-.55,2.1-1.49,4.17-1.58,6.28-.25,5.74-.18,11.5-.18,17.25q0,275.39,0,550.75c0,9.83-.08,19.66-.37,29.48-.23,7.75-2.86,10.31-10.48,10.62-9.1.36-18.2.73-27.3.8-18.22.13-36.43,0-54.65.1-2.4,0-5.12-.8-7.67,1.58,2.45,2.48,5.18,1.71,7.58,1.72q39.18.07,78.37,0a44.86,44.86,0,0,0,6.46-.23c5.06-.71,9.31-2.8,10.39-8.33a62.88,62.88,0,0,0,1.33-12q.09-294.79.06-589.58ZM795.25,293.17c-16-.37-30.06,11.64-30.39,29.61-.32,17.06,14.1,30.47,29.89,30.34a30.11,30.11,0,0,0,30-30.14A29.76,29.76,0,0,0,795.25,293.17Zm5.58,370.61,39.26-14c-3.61-14.66-7.67-28.19-10.14-42s-3.33-27.78-5-42.17c-7.91,2-16.33,2-24.16,5.5Zm60.44-108.32c1.79.15,2.72.32,3.65.3,1.92,0,3.84-.12,5.74-.33a438.33,438.33,0,0,1,91-.39c8.32.82,16.67,1.6,24.91,3,11.56,1.93,23.2,3.75,34.47,6.86,10.95,3,21,2,31.31-2.15,11.79-4.78,24-8,36.85-8.6,6.2-.3,12.35-1.47,18.54-2.09a9.2,9.2,0,0,0,7.86-5.26c-13.65-1.7-246.31-1.25-252.61.5C862.52,549.69,862,552.22,861.27,555.46ZM967.05,392.58a136.72,136.72,0,0,0-36.8,21c-11.31,8.78-22.53,17.92-32.45,28.19a180.89,180.89,0,0,0-38.13,59.41,167,167,0,0,0-11.54,75.13c1.15,15.66,5.26,30.63,10.4,45.32,2,5.6,5.07,10.82,7.88,16.09.49.92,2.16,1.2,4.73,2.53-8.44-17.37-13.45-33.72-15.76-50.94-3-22.66-1.64-45,5.45-66.71,10.57-32.31,29.09-59.6,54.51-82.19,15.11-13.42,31.47-24.95,49.81-33.57,3.55-1.67,7-3.58,11.16-5.73Zm295.18,895.65c4.88-4.44,3.69-8.53,3.69-12.19q.09-296.28,0-592.56a36.4,36.4,0,0,0-.07-4.31,29.63,29.63,0,0,0-1.08-4c-3.86,3.7-2.51,7.79-2.51,11.42q-.12,296.64-.08,593.28ZM759.4,680.11c0-.58-.06-1.15-.1-1.73-3.56,0-7.14.23-10.69,0-9.38-.71-15.13-5.89-15.47-15.39a35.06,35.06,0,0,1,.68-10,114.48,114.48,0,0,1,5.83-17.69q53.39-120.09,107.1-240c8.29-18.46,14.56-38.19,30.12-52.55,2.36-2.18,1.8-4.58-.24-7.31-1.49,1.1-2.82,2-4,3-10,8.34-16.34,19.33-21.56,31Q821.36,435.53,791.9,501.8,762.2,568.37,732.58,635c-3.66,8.3-6.86,16.88-6.38,26.29.48,9.14,5.79,16.28,14.72,17.88C747,680.21,753.23,679.83,759.4,680.11Zm318.42,734.31c11.46-16.61,11.34-98-.08-111C1049.27,1329.75,1044.83,1382,1077.82,1414.42Zm-283.12.46c16.84-19,25.08-40.55,22.4-65.72-1.63-15.28-12.91-40.71-23.22-45.77C782.88,1320.36,783.09,1399,794.7,1414.88Zm354-904.32c.51,2,.88,4.11,1.54,6.09,2.92,8.77.86,17.46-2.64,25.1-7.34,16-20.34,27.17-36.25,34.25-14,6.2-28.39,11.42-42.8,16.55-46,16.37-92,32.49-138,48.7-37,13-74,26.21-111,39-17.85,6.16-35.78,12.21-54,17.1-12.76,3.43-26,4.17-38.38-2.73a13.84,13.84,0,0,0-3.21-.91l-1.61,2a36.78,36.78,0,0,1,3.85,1.69c11.08,6.31,23.23,7.92,35.42,6.15,9.63-1.41,19.05-4.62,28.36-7.65,14.55-4.75,28.94-10,43.39-15.08q49.1-17.24,98.19-34.48,63.3-22.25,126.59-44.55c15.34-5.42,30.74-10.68,45.84-16.7,18.07-7.21,34.13-17.25,44.28-34.8C1155.8,537.1,1155.83,523.91,1148.68,510.56Zm-354.58,303c-11.11,17.93-11,91-.26,108.67C823.66,896.34,826.77,844.55,794.1,813.54Zm283.7,108.57c11.48-13.45,11.47-94.78,0-108.15C1047.28,841.72,1046.6,893.46,1077.8,922.11ZM794,1165.5c10.35-5.85,26.16-34.77,23.36-60.21-1.7-15.41-7.84-28.9-16.79-41.29-1.76-2.44-2.9-5.66-6.68-5.75C783,1073.9,783,1150.23,794,1165.5Zm3.19-585.27a21.63,21.63,0,0,0-2,2.64q-18.78,41.45-37.44,82.93c-1.3,2.89-1.82,6.13-2.73,9.31,9.71,1.17,28.41-3.7,42.19-10.7Zm82.3-235.78c-1.08.79-1.86,1.28-2.56,1.88-8,6.9-12.75,16.14-17,25.5q-38.22,85.11-76.08,170.37c-14.13,31.68-28.34,63.32-42.38,95-3.69,8.33-6.63,16.93-5.75,26.35.28,2.9.48,5.63,4.21,7.67-1.79-13.27,3-24.46,8-35.59q8.13-18,16.15-36,48.51-108.81,97-217.64c4.88-11,9.91-21.82,18.88-30.2C882.51,349.45,882.09,347.3,879.51,344.45ZM746.3,676.32c1.33-3.49,2.16-5.65,3-7.82,2-5.37,3.77-10.85,6.1-16.08,9.45-21.21,19.1-42.33,28.65-63.49q37.79-83.79,75.55-167.6c4.33-9.6,8.58-19.23,13-28.8,1.5-3.28,2-5.93-2.92-7-.94,1.87-1.95,3.72-2.81,5.63Q810.88,514.8,755,638.51c-3.74,8.27-7,16.79-10.17,25.29C743.47,667.37,743,671.17,746.3,676.32ZM1071.55,1293c-7.84,2.55-13,7.8-16.91,13.68a104.91,104.91,0,0,0-16.14,40.4,68.89,68.89,0,0,0,.53,25.68,110,110,0,0,0,13.19,34,46.28,46.28,0,0,0,12.78,14.32c6.08,4.33,8,3.49,10.13-4-30.24-37.67-31.59-78.67.86-117.18ZM920.9,327.52c-2.73,2.47-3.16,4.64-.49,6.92,1.46,1.25,2.88,2.54,4.33,3.8q77.46,67.61,154.91,135.22,19.21,16.8,38,34c4.81,4.39,8.82,9.51,10.09,16.19a35.84,35.84,0,0,1,.74,6.35,52.25,52.25,0,0,1-.69,6.2c4.7-9.9,4.62-19.57-2.33-28.15a122.42,122.42,0,0,0-14.4-15q-92.52-81-185.24-161.72C924.26,330,922.53,328.78,920.9,327.52Zm220,91.33c-3.89-9.77-7.42-18.61-10.92-27.41-15.46-3.6-30.55-7-45.94-6.21-7.14,9.66-10.44,9.77-18.88,1.59-1.34-1.3-3.89-1.34-7.3-2.41,5.45,10.39,13.06,15.47,22,18.66,12.16,4.34,24.37,8.56,36.69,12.41C1124.05,417.82,1131.69,420,1140.9,418.85Zm-57.54-37.28c70,5.22,127.39,32.19,168.33,90.3a36.87,36.87,0,0,0-4.33-9.86,182,182,0,0,0-62.69-60.11c-21.43-12.47-44.32-21.45-68.92-25.66-4.68-.8-9.56-1.67-13.76-3.72-6.06-2.95-12-3.15-18.63-2.62ZM865.14,640.7c-3.14-6.16-6.7-11.41-8.6-17.22-4.07-12.47-8.28-24.89-10-38.1a171.53,171.53,0,0,1,1.32-52.85,173.79,173.79,0,0,1,32.26-73.65,216.84,216.84,0,0,1,78.61-65.76,52.3,52.3,0,0,0,4.81-3.08c-3.72-1.66-3.69-1.59-6.18-.68-11.86,4.36-22,11.82-31.9,19.2-11.11,8.25-22,17-31.61,27A193.1,193.1,0,0,0,852.77,499a174,174,0,0,0-11.81,78c1.18,15.91,5.47,31.08,10.69,46,2.34,6.7,6.13,12.89,9.33,19.44ZM985.8,410.18c-5.95-7.44-5.83-7.15-13.22-4-12,5.09-22.89,11.95-33.75,19C926.27,433.28,915.18,443.2,905,454c-17.64,18.63-31.46,39.88-39.66,64.33-3.41,10.17-5.42,20.8-7.94,31.26-.38,1.58,0,3.34,0,5C874.11,483.24,920.48,438.66,985.8,410.18Zm89.54,515.29c-30.38-37.93-31.78-75.3.31-115.35l-3.9-5.91c-11.12,3.52-13.39,6.3-13.66,16.75a61.18,61.18,0,0,1-4.19,21c-4.61,11.79-8.65,23.81-13.11,35.66a14.92,14.92,0,0,0-.21,9.72A93.8,93.8,0,0,0,1053.21,916,64.57,64.57,0,0,0,1065.34,929C1070.48,933.24,1071.89,932.5,1075.34,925.47Zm-118.66-540-.27-.88c-5.29,2.57-10.86,4.69-15.8,7.81-14.58,9.21-28.77,18.89-41.54,30.68a210.43,210.43,0,0,0-45.27,59,180.93,180.93,0,0,0-19.12,64.3c-2.83,27.53,1.26,53.95,10.7,79.68,2.36,6.41,5.85,12.4,8.88,18.73l4.56-1.75c-7.64-11.82-11.5-24.62-15.29-37.45-4-13.42-5.48-27.24-5.72-41.12a150.68,150.68,0,0,1,6.77-48.88c3.79-11.81,7.9-23.69,13.5-34.7a187.52,187.52,0,0,1,31-43.85c10.72-11.33,22-22.1,35-30.78C934.8,399.09,945.8,392.39,956.68,385.49Zm183.37,9.82c5.44,11.75,10.92,23.14,16,34.71a91.55,91.55,0,0,0,21.74,30.05c23,21.65,45.94,43.5,69.64,64.41,10.2,9,15.47,18.72,14.71,32.37-.69,12.37-.15,24.81-.15,38.59,3.21-6.1,3.9-8.67,3.94-14.83.06-10.31-.14-20.61.07-30.91.19-9-3.18-16-9.84-22.08q-37.16-33.92-73.91-68.27c-9.76-9.06-17.75-19.45-22.66-32-3.41-8.68-7-17.29-10.06-26.09C1147.92,396.77,1145.45,394.6,1140.05,395.31ZM1251.6,620.1l2.17.24a74.51,74.51,0,0,0,1.07-8.87c.09-20.13-.12-40.25.13-60.37.1-7.74-2.31-13.88-8.08-19.07-23.15-20.82-46-42-69.32-62.59-14.2-12.53-26.77-26-33.67-44-.42-1.1-1.66-1.89-3.5-3.9,0,2.57-.36,3.83.06,4.72,2.87,6.05,5.61,12.19,8.94,18,7.06,12.26,18,21,28.33,30.26,22.32,19.95,44.36,40.21,66.58,60.28,4.77,4.31,6.76,9.4,6.72,15.88-.13,20.84.13,41.68.27,62.52C1251.31,615.48,1251.5,617.79,1251.6,620.1Zm7.75,677.74V684.51l-1.48,0v12q0,276.42,0,552.84c0,18.06.8,36.16-2.24,54.4h8.23c1-2.76,2-5.54,3.12-8.72ZM1081.05,285.09c11.2,4.21,14.32,13,17.65,21.75,4.25,11.19,8.88,22.23,13.52,33.26.77,1.84,2.12,4.18,3.75,4.76,4.17,1.48,8.64,2.1,13.88,3.26-.72-2.34-1-3.45-1.4-4.5q-8.67-21.66-17.4-43.31C1106.64,289.34,1095.23,283,1081.05,285.09ZM844.39,326.21l-2.25-.54c-3.53,18.8-13.44,32.14-32.15,38,5.13,9.89,15.53,15.63,17.83,27.75,1.19-2.17,2-3.51,2.69-4.93,3.37-7.41,6-15.25,10.21-22.16,4-6.57,5.14-13.2,4.63-20.52C844.94,337.93,844.7,332.07,844.39,326.21Zm56,10.27c-1,4.85,1.92,5.87,5.08,6.26,6.88.86,12.78,3.86,18.1,8.06s10.88,8.63,16.11,13.19q87.45,76.27,174.84,152.62c1.16,1,2.42,1.93,3.64,2.89A17.81,17.81,0,0,0,1113,512q-94.43-82.5-188.93-164.89c-2.16-1.88-4.49-3.58-6.8-5.28C912.29,338.2,906.47,337.41,900.35,336.48ZM750,674.4l1.12.43c.48-.49,1.14-.91,1.4-1.49,5.37-12.52,10.5-25.15,16-37.58Q799,567.63,829.66,499.62,852.79,448.28,876.07,397a23.45,23.45,0,0,0,1-4,15.15,15.15,0,0,0-4.35,5.92q-15.91,35.32-31.79,70.66-42.45,93.79-84.89,187.59C753.56,662.73,752,668.66,750,674.4Zm7-349.69c-.39.85-.78,1.28-.76,1.69,1.33,22,22.34,41,48.66,34.29,16.4-4.15,26.1-15.54,28.33-32.38,1.19-9,1.15-18.14,1.55-27.22.39-8.89,3.84-12.51,12.83-12.85,9.57-.36,19.15-.51,28.73-.85a33.41,33.41,0,0,0,5-.93c0-.52-.07-1-.1-1.57a34.81,34.81,0,0,0-5.11-.75c-9.11-.06-18.21-.12-27.32.05-12.74.23-17.72,5.39-18,18-.2,8.13-.6,16.27-1.08,24.4A33.07,33.07,0,0,1,824,342.68c-10.92,17-35.46,20.84-51,7.95-6.69-5.57-11.1-12.38-12.71-21C760,327.78,760.59,325.06,757,324.71Zm306.33,44.88c-19.38-.71-37.26,3.42-56.5,7.67,3.25,2.85,5.49,4.6,7.47,6.6,2.94,3,6,3.73,10.27,2.78,8.12-1.78,16.44-2.67,24.7-3.78,4.67-.63,9.39-.95,14.16-1.41a22.56,22.56,0,0,0,.41-3.24C1063.69,375.61,1063.49,373,1063.28,369.59ZM1116.78,512l1.49-1.41q-99-87-198.58-173.41l-1.36,1.55Zm-63.15,303.23c-7.76,8.9-12.4,19.43-16.39,30.34-2.39,6.49-3.1,27.3-.73,35.56,5-13.83,9.54-27.18,14.78-40.25A44.17,44.17,0,0,0,1053.63,815.24ZM849.12,348c13-11.81,13-11.81,13.06-27.49,0-2.62,0-5.25,0-7.87V298.49l-13.07.69Zm28.65-25.06c2.49,11.23,5.65,22,10.9,32a4.34,4.34,0,0,0,.92,1.09,7.46,7.46,0,0,0,8.67.44c2.75-1.9,2.15-4.1,1.2-6.87-3.48-10.17-6.55-20.48-10-30.67-.52-1.55-2.05-3.8-3.21-3.86a9.45,9.45,0,0,0-6.31,2C878.6,318.34,878.46,320.92,877.77,322.92Zm-12.14,7.89,8.88-4.7c.42-2.66.44-4.87,1.13-6.84,2.63-7.49,11.93-9.6,17-3.5,3.08,3.68,5.66,1.89,9.71,1-10.29-2.82-15.15-10.14-19.3-17.72H865.63ZM1102.5,556.54l-.24-1.48c-3.76.43-7.53.9-11.3,1.31-11.4,1.25-22.74,2.64-33.48,7.09-4.17,1.73-8.54,3-12.82,4.48-7.08,2.44-7.4,3.11-4.77,11.73C1060.78,571.92,1082.21,565.8,1102.5,556.54Zm-23.17-188.09h.08c0-5-.05-10,0-15,0-2.59-.35-4.81-3.36-5.42a6.29,6.29,0,0,0-7.26,3.27,8.75,8.75,0,0,0-.9,4.15c0,9.52-.07,19,.29,28.56a6.22,6.22,0,0,0,6.35,6.27c3-.23,4.7-2.49,4.76-6.75C1079.39,378.47,1079.33,373.46,1079.33,368.45ZM831.68,542.58c-2.95,11.49-3.33,23.26-2.92,34.74a176.54,176.54,0,0,0,12,57.35,87.09,87.09,0,0,0,5.05,10.26c1.16,2.13,2.89,2.23,5.31,0C834.54,613,828.5,578.67,831.68,542.58Zm-4.19,3.48c-4.82,0-8.6-.19-12.34.09-1.44.12-3.52,1-4.08,2.08-2.81,5.65-5.22,11.5-8.36,18.6l22.88-4.3c.44-2.1.92-3.69,1.09-5.31C827,553.93,827.17,550.62,827.49,546.06Zm306.72-153.61c4.34,29.42,34.65,73.59,59.26,85.51-5.41-5-9.88-9.29-14.46-13.42-10.43-9.4-19-20.15-24.86-33-4.94-10.88-9.9-21.75-15-32.57C1138.05,396.58,1137.67,393.42,1134.21,392.45ZM861.15,436.86c-4.1,9.13-8.1,17.41-11.52,25.92-1.85,4.6-1.62,9.59-.36,14.87C859.37,465.9,865.22,453.44,861.15,436.86Zm202.72-73.58c-12.7-2.35-55.69,4.74-61.32,9.88,1.94,2.5,4.24,1.15,6.54.76,15.05-2.56,29.84-6.9,45.31-6.72a25.71,25.71,0,0,0,7.08-.95C1062.39,366,1063,364.49,1063.87,363.28ZM758.36,546.52c-21-2.63-30.69.25-41.27,12,11.2-3.29,22.53-5.84,34.33-5.62C756.41,553,756.41,552.89,758.36,546.52Zm-16.5,183.6.49-.68c-4.84-6.83-10.16-13.37-14.38-20.56-4.93-8.39-13-11.08-22.05-14.77ZM844.2,474.3c-5,11.07-9.89,22.15-15.06,33.72h7.59C840.4,497,847.92,487.29,844.2,474.3Zm-22,66.81c4.12,1.57,6.41.95,7.1-3.34a83.32,83.32,0,0,1,2.48-10.41c1.64-5.54.16-9.69-5.08-12.69C819.82,522.78,822.57,532.2,822.19,541.11Zm367-16H1177.3c.64,3.79,1.19,7.1,1.72,10.24h12.77C1192.28,530.37,1192.28,530.37,1189.15,525.16Zm-126.85-166c-14.45-2.16-54.78,4.54-63.13,9.84,10.8-2,21.25-4.27,31.8-5.92C1041.36,361.45,1051.85,360.44,1062.3,359.15ZM856.44,293.63l.55,1.62h25.36c-1.32-4.56-1.32-4.88-3.41-4.92a153.49,153.49,0,0,0-16.48.31C860.38,290.83,858.44,292.58,856.44,293.63ZM915,330.74c-5.85-2.08-11.4-4.07-18-2.22.45,2,.86,3.69,1.16,5L915,336.84Zm202.43,1051.65.52.39c.45-5.67,1.07-11.33,1.29-17s.23-11.46,0-17.17c-.26-5.45-1-10.89-1.51-16.33l-.27,0Zm138.44-846.95-.75.32c.74,5.82,2,11.62,2.13,17.45.46,15.54.45,31.09.65,46.64,0,1.91.19,3.82.29,5.74,1-19.89,1.2-39.71.89-59.52C1259,542.51,1257,539,1255.88,535.44Zm-213-145.84a47.54,47.54,0,0,0-17.41,3.2c5.24,8.55,11.59,3,18,2.83C1043.26,393.44,1043.11,391.69,1042.92,389.6ZM783.7,1337.11c0-12.28,3.59-23.78,7.13-35.32.22-.72-.78-1.81-1.92-4.23C783.53,1311.32,783.17,1324.14,783.7,1337.11ZM894.62,322.19c.94,1.71,1.28,3.09,1.79,3.16,6.14.8,12.3,1.53,18.48,1.95,1,.07,2.14-1.39,3.74-2.51C910.55,320.77,903.24,321.25,894.62,322.19Zm-110.94,811.1c-.19,12.4-.17,24.66,4.65,36.26,2.84-.61,3-1.74,2.31-3.76C786.86,1155.25,783.92,1144.51,783.68,1133.29Zm.26,247c-1.76,11.59.88,30.21,5.84,37.32C788.29,1405.15,783.37,1393.14,783.94,1380.34ZM1082.45,365c6.85,2.75,10.51,3.06,17.38,1.76a10.1,10.1,0,0,0,0-1.94c-5-.81-10.06-1.56-15.12-2.13C1084.19,362.6,1083.56,363.78,1082.45,365ZM786.25,911.32c.39,5-1.23,10.42,2.74,15C791,922.62,790.77,921.59,786.25,911.32Zm71.62-213.7.06,1.43,13.26,1c-2.22-2.72-3.32-4.08-4.5-5.54Zm187.45,211.46c-1.19-2.52-2.49-5-3.52-7.57s-1.83-5.31-2.72-8C1038.48,902.33,1038.55,902.5,1045.32,909.08ZM822.39,403.52c2.77-6.76,2.68-12.49,0-16.14ZM790.75,811l-1.86-.5c-3.63,3.86-2,8.65-1.62,13.25Zm43.91-473.23c3-7.38,3.7-15,2.86-23.5C836.51,322.52,835.58,330.13,834.66,337.73Zm351.15,183c-1.31-7.44-1.31-7.44-5.54-10.3C1182.43,514.23,1180.43,519,1185.81,520.71ZM821.18,295.1l.26-1.11-11.29-1-.25,1.21,4.58,3.09Zm263.17,62.7.05,2.18,14.74.72.09-1.43ZM813.63,541.56l5.17.61V533l-1.15-.25C816.41,535.42,815.18,538.14,813.63,541.56ZM820.74,303c2.1,4,4.21,8,6.35,12C826.52,309.59,826.17,308.83,820.74,303Zm62.65,51.48c-6.31,3.53-6.43,3.66-8.77,9.67Zm-39.26-54h-1.08v6.94h1.08Zm-21.69-1.17,4.56,5C828,300.43,828,297.88,822.44,299.24Zm24.12-3.4,4.43-4.18C848.24,291.47,845.24,290.77,846.56,295.84Zm343.26,244.3v-.95h-11.26v.95Zm-282,148.67.6-.51-4.92-4.56-.55.54ZM833.54,517.45c.68-2.63,1-3.88,1.45-5.56H829.4ZM1034.27,1356l-.12.1v4.86h.12Zm-116-1038,0,.29h3.1l0-.29Zm231,987.51a15.41,15.41,0,0,0-2.78-1c-.34,0-1.07.44-1,.64a6.26,6.26,0,0,0,.61,1.69ZM1262,435.92l-.88.91,2.73,3.13.68-.56ZM1202.6,487.7c.19-.22.39-.44.59-.65l-2.41-2.2-.58.65Zm-80.19,30.86.72-.56-2.15-2.74-.7.54ZM838.61,298.42l-.6.17c.06.84.13,1.68.19,2.51l.41,0Z"/><path class="cls-1" d="M739.54,718.39c10.77,6.77,22.56,6.14,34.14,4.87a141.48,141.48,0,0,0,25.87-5.48c13.25-4.07,26.3-8.87,39.3-13.71,6.6-2.46,12.89-3.73,20.15-2.66,14.46,2.15,14.65,1.55,24.83,11.63a197.94,197.94,0,0,0,28.73,23.82c4.11,2.76,7.69,6.29,11.56,9.42a8.7,8.7,0,0,0,2.38,1.29c3.54,1.35,7.32,2.24,10.62,4,25.86,13.85,53.59,21.95,82.46,25.76,18.5,2.44,37.23,3.38,55.91.95,12.76-1.66,25.53-3.26,39.11-5,.73,8.58.24,17.59.33,26.56s0,18.22,0,27.33,0,18.21-.09,27.33c-.78-11.64-2.3-23.09-5.84-34.29A37.21,37.21,0,0,0,1098.87,804c-5-4.58-11.83-5.78-18.82-4.78-11,1.58-20.09,7.36-28.9,13.62a13,13,0,0,0-3.15,3.81,163.12,163.12,0,0,0-15.2,33.24A14.08,14.08,0,0,0,1032,854c-.18,15.61.48,31.15,3.75,46.48a14,14,0,0,0,1.61,4.68c7.49,11.69,16.84,21.75,29.43,27.68,7.62,3.58,15.92,6.11,25,3,9.26-3.18,13.36-10.46,16.54-18.48a92.53,92.53,0,0,0,4.55-17.3c1.09-5.86,1.45-11.86,2-17v216.43c-.88-12.73-2.07-24.52-6.16-35.81-3.9-10.77-10.28-19.09-22.41-20.54-7.5-.9-14.65,1.64-21.22,5.1-15.36,8.09-23.81,21.16-28.3,37.79a99.45,99.45,0,0,0-3.29,36.23c1,10.22,4.43,19.94,8.72,29.41,4.92,10.83,12.9,18.44,23.06,23.69,7,3.6,14.61,6.22,22.76,4.77,10.9-1.94,16.67-9.79,20.34-19.25,4.45-11.48,6-23.61,6.55-35.86v222.67c-.71-13.43-1.58-26.91-6.68-39.48-2.28-5.65-5.44-11.54-9.81-15.59-4.92-4.55-12-5.86-18.93-4.37-15.18,3.27-27,11.09-35.27,24.67-10.13,16.75-15,34.55-13.16,54.09,1,10.65,5.08,20.36,9.26,30,.57,1.31,1.57,2.44,2.08,3.76,4.33,11.21,13.28,18.19,23.2,23.54,7.69,4.15,16.09,6.8,25.46,3.77,9.6-3.1,14-10.53,17.19-18.83,5-13.1,6.22-27,6.76-40.92q0,37.36,0,74.73c0,13.66.37,27.32.17,41-.07,5.16,1.33,9,5.11,12.63,13.25,12.85,26.18,26,39.2,39.12a44.88,44.88,0,0,1,7.77,9.77c-6.25-2.12-12.53-4.14-18.74-6.37-13-4.66-26.53-6.89-40-7.81-9.35-.64-19.09,1.38-28.35,3.51-11.85,2.73-23.47,6.56-35,10.33a31.65,31.65,0,0,1-16.88,1c-17.11-3.55-34.2-7.54-51.5-9.68-22.77-2.82-45.58-7-68.66-5.19-28.65,2.27-57.22,5.34-85.28,11.93-5.83,1.37-11.74,2.34-17.61,3.52a17,17,0,0,1-11.81-1.54A127.1,127.1,0,0,0,754.87,1532c-3-.51-6.31-1.19-9.22-.58-10.75,2.24-21.71,3.87-31.59,9.2a12.36,12.36,0,0,1-6.9,1.51c1-1.25,2-2.6,3.14-3.74,14.16-14,28.31-28,42.6-41.79,2.1-2,4.94-3.28,8-5.26-1-1.39-3.83-2.07-3.78-5.55.34-23.69.18-47.38.18-71.25.83,1.74,1.81,3.56,2.58,5.45,3.44,8.49,9.24,11,18.2,8.35,10.4-3.12,17.72-10.24,24-18.43a86.75,86.75,0,0,0,16.21-35.65,77,77,0,0,0,1.17-17.11c-.59-26-11.14-47.2-31.55-63.17-3.93-3.08-9.42-4.61-14.43-5.75-5.39-1.22-10.84,2.54-13.1,7.78a29,29,0,0,1-3.46,6.68V1169.3l1.18-.4a13.17,13.17,0,0,1,1.77,2.37c3.57,8,9.15,10.22,17.74,8.17,9.21-2.2,15.74-8.27,21.59-14.75a82.51,82.51,0,0,0,14.9-24.32,72.62,72.62,0,0,0,5-38,82,82,0,0,0-7.62-25.25c-4.77-9.54-10.65-18.7-19.64-25.35a48.1,48.1,0,0,0-13.7-7.52c-4.09-1.34-7.58-1.63-11.61.53-2.94,1.57-5,3.28-6.17,6.36-.79,2.13-1.87,4.14-3.28,7.19v-133l1.3-.28c.79,1.6,1.59,3.19,2.37,4.79a13.29,13.29,0,0,0,15,6.78c11.67-2.64,19.78-10.19,26.78-19.19A84.64,84.64,0,0,0,818,884.57c1.4-6,1.38-12.3,1.51-18.49.4-19.69-8-36.34-19.8-51.1-5.33-6.68-12.34-12.57-21.5-14.91s-14.62-.17-18.39,8.38a4.53,4.53,0,0,1-2.54,2.66c0-2.31,0-4.61,0-6.92-.16-17-.41-34-.45-51.05a21.69,21.69,0,0,0-4.65-13.89c-4.8-6.22-9.09-12.83-13.59-19.28ZM853,1358.59c1.18,8,2,16.14,3.6,24.07,3.48,17,11.83,30.6,28.26,38.09.87.39,1.69.9,2.54,1.35,11.53,6.19,24.14,7.85,36.83,7.2,13.18-.66,26.1-3.44,37.25-11.37.78-.55,1.7-.88,2.53-1.36,10.45-6,18.42-14.78,24.26-24.88,6.1-10.58,9.85-22.33,8.27-35-.27-2.13-.09-4.31-.22-6.47-.66-10.82-4.81-20.59-10.95-29.11A76.93,76.93,0,0,0,953.57,1295a81.11,81.11,0,0,0-73,3.64c-11.06,6-16.78,15.69-21.17,26.06S853.08,1346.8,853,1358.59ZM996.36,869.26a59.23,59.23,0,0,0-3.84-24.7c-3.79-10.08-10.42-17.6-17.8-24.8-10.18-9.93-22.47-15.94-36.31-18.77-20.92-4.28-40.76-2-59.31,9.47-4.82,3-9.09,6-12,10.89-1.58,2.66-3.62,5.06-5.26,7.7a68.46,68.46,0,0,0-9.54,28.31,89.22,89.22,0,0,0,3.27,36.16c3.11,10.58,9.57,18.57,16,26.86a15.11,15.11,0,0,0,4.58,3.35c3.53,2,7.22,3.76,10.73,5.82,11.39,6.7,24.16,8,36.72,7.43,12.31-.52,24.83-2.35,35.5-9.8a21.38,21.38,0,0,1,3.2-1.63c11-5.18,19.06-14.21,25.18-23.92S998.47,880.77,996.36,869.26ZM853.88,1111.81a74.87,74.87,0,0,0,5.34,32.42c3,7.39,8.41,13.8,12.84,20.59a6.31,6.31,0,0,0,2.38,1.53c11.56,6.24,22.83,13.28,36.65,13.27a3.7,3.7,0,0,1,.7.16c12.15,2.74,24.24.21,35.29-3.62,12.47-4.31,24.75-10.45,33-21.88,2.37-3.27,5.94-5.81,7.77-9.31,5.92-11.33,10.27-23.19,8.56-36.4a25.25,25.25,0,0,1-.11-3.59c.2-10.81-4.48-20.3-10.17-28.63a73.79,73.79,0,0,0-39.14-29c-9-2.87-18.86-4.77-28.2-4.34a85.06,85.06,0,0,0-39.55,11.34c-10.42,6.06-15.87,15.22-20.09,25.1A71.08,71.08,0,0,0,853.88,1111.81ZM919.58,1492c12.26,1.54,174.65,1.1,180.05-.33C1088.41,1489.43,928.74,1489.39,919.58,1492Zm-59.78.32h28.79C879.09,1489.44,869.54,1490.66,859.8,1492.34Zm-27.71-.06c-7.86-1.62-15.63-3-23.4,0Zm-44.72.11c0-.68-.09-1.35-.13-2l-13.65.69.06,1.33ZM777.09,747.13l-.06-1h-4.8l0,1.21Z"/><path class="cls-1" d="M801,1550.17c14.47-2.86,28.46-6.17,42.62-8.29,19.84-3,39.88-4.66,59.72-7.65,17.4-2.62,34.33,1.14,51.45,2.3,25.14,1.7,49.57,7.75,74.22,12.41,2.09.4,4.13,1,6.46,1.61v117.16l-19.48,4.16c-29.26,6.24-58.88,10.34-88.47,14.56-9.89,1.41-19.57-.25-29.3-1.48-31.11-3.9-61.89-9.74-92.61-16-1.4-.29-2.75-.79-4.61-1.33Z"/><path class="cls-1" d="M1172.74,1550.67v117.52c-12.86,4.17-25.72,8.55-38.72,12.48a188.8,188.8,0,0,1-22.33,5.34,35.2,35.2,0,0,1-12.74-.12c-18.79-3.8-37-9.66-55.16-15.81-4.31-1.46-5.45-3.62-5.44-7.78q.17-53.21,0-106.43c0-4.29,1.5-6.11,5.57-7.7a244.41,244.41,0,0,1,57.6-14.54c4.85-.64,10,.45,14.93,1,18.68,2.17,36.27,8.49,53.91,14.57A15.6,15.6,0,0,1,1172.74,1550.67Z"/><path class="cls-1" d="M877,508.29c5.5-8.74,9.87-16.65,15.16-23.88,17.23-23.56,39.19-42,64.18-56.74,9-5.33,18.88-9.29,28.37-13.87,3.07-1.48,5.51-1.24,8.37,1.27q63.79,55.94,127.83,111.64c5.4,4.71,5.69,7.93,1.88,13.39-1.6,2.3-3.54,2.82-6.09,2.81-36.92-.11-73.84-.13-110.76-.28-3.8,0-7.6-.73-12.45-1.23V508.46C954.46,508.24,916.51,508.43,877,508.29Z"/><path class="cls-1" d="M797.52,1549.84v5.76c0,35.2-.1,70.4.08,105.6,0,5.21-1.48,7.9-6.54,10.16-12.24,5.48-24.41,11-37.43,14.32-2.7.69-5.85,1.42-8.36.67-15.59-4.59-30.83-10.13-45.21-18.27V1549.7c10.14-4.35,20-9.31,30.72-12.9,14.61-4.91,28.31-2.65,42,2.08C781,1541.76,788.89,1546,797.52,1549.84Z"/><path class="cls-1" d="M1172.56,570.41V687.64c-6.52,2.37-13.27,4.58-19.84,7.23-14.88,6-30.76,7-46.37,8.71-7.64.82-15.62-1.69-23.46-2.61-15.38-1.8-29.31-8.38-44.54-12.91,0-4.78,0-9.28,0-13.78,0-11.49.16-23,0-34.49,0-4.09,1.08-6.35,5.41-7.82,21.29-7.2,42.44-14.79,63.6-22.34,14.72-5.25,29-11.49,40.49-22.41,4.1-3.89,7.48-8.61,10.79-13.25C1163.74,566.86,1163.59,566.76,1172.56,570.41Z"/><path class="cls-1" d="M873.76,638.06c-13.28-24.16-18.56-48.44-13.41-78.34a40.11,40.11,0,0,1,6.52-1.52c15.75-1.14,31.52-3.14,47.27-3,33,.31,66,2.71,98.28,10.43,5.58,1.33,11.25,2.27,16.88,3.38,6.52,1.28,6.54,1.27,6.46,7.79,0,1.18-.21,2.35-.41,4.43Z"/><path class="cls-1" d="M1109.67,341.06l-8.5,13.46h-15.9c-1.32-1.94-2.36-3.81-3.7-5.42-3.84-4.6-10.14-5.25-13.55-.48-4.22,5.89-9.38,6.61-16.69,5.18,0-3.58,0-7.33,0-11.09-.09-7.19-.13-14.38-.39-21.56-.21-6-1.17-6.95-7.35-7.08-15.09-.31-30.18-.62-45.27-.69-30.43-.14-60.87,0-91.29-.22-14.57-.11-24.71-13.25-21.95-28.55,1.89-.17,3.95-.53,6-.53q87.33,0,174.67,0c6.39,0,12.3,1.24,17.78,4.65a23.19,23.19,0,0,1,10,11.72C1098.89,314.31,1104.49,328,1109.67,341.06Z"/><path class="cls-1" d="M1167,694c-3,3.22-6.28,6.26-9.07,9.69-9.39,11.52-21.34,18.46-35.71,22.34-17.37,4.69-34.8,8.3-52.76,9.86a237,237,0,0,1-50.81-1.47c-27.83-3.57-53.88-12.74-78.39-26.34a8.62,8.62,0,0,1-1.77-1.2c-.28-.26-.3-.78-.62-1.75,5.72-.59,11.32-1.53,16.95-1.67,24.1-.58,47.32-6.63,70.74-11.28,7.77-1.53,15-1.69,22.27,1.54,16.61,7.35,34.34,10.1,52.21,11.95a73.53,73.53,0,0,0,14.29-.39,144.64,144.64,0,0,0,17.75-2.48c7.67-1.69,15.22-4,22.78-6.14,3.85-1.1,7.61-2.48,11.41-3.72C1166.51,693.28,1166.75,693.63,1167,694Z"/><path class="cls-1" d="M877.12,330.73c-2.63,2.59-4.56,4.92-6.91,6.72-9.86,7.55-15.69,18.09-20.6,29-23.24,51.5-46.12,103.16-69.13,154.77-16.58,37.17-33.25,74.3-49.65,111.55-3.94,8.95-7.17,18.13-7.07,28.33.09,9.59,6.77,18.57,18.19,20.73,13.35,2.52,25.77-1,37.94-5.25C837.31,656.6,894.61,636.33,952,616.17c45.6-16,91.24-31.94,136.75-48.21,10.33-3.69,20.79-7.63,29-15.32,4.15-3.89,8.36-7.94,11.53-12.61,7.16-10.52,5.9-22.35-.88-32.21A75.43,75.43,0,0,0,1115.88,494q-92.25-80.77-184.71-161.32c-2.87-2.5-5.56-5.21-8.75-8.2l4-4.61c4.65,4,9,7.79,13.29,11.56q89.15,77.78,178.24,155.61a161.18,161.18,0,0,1,13.57,13.84c8.79,9.83,10.52,21.52,6.54,33.57-2.37,7.2-7.21,13.4-13,18.66-8.29,7.53-17.91,12.84-28.23,16.78-16.09,6.14-32.34,11.88-48.58,17.62q-76.85,27.13-153.73,54.12-55.53,19.53-111.1,39c-13.19,4.62-26.62,7.59-40.81,6.76-10.88-.64-19.15-5.22-22.92-15.31a32,32,0,0,1,.21-21.85c4.7-13,9.78-26,15.4-38.65q38.14-86,76.68-171.87c11-24.7,21.92-49.47,33.16-74.08,5.82-12.75,13.83-24.05,24.73-33.09C871.58,331.09,873.32,329.33,877.12,330.73Z"/><path class="cls-1" d="M1266.35,596.19a74,74,0,0,1,1.34-7.76,161.55,161.55,0,0,0,5.53-46.24,149,149,0,0,0-8.68-48.58c-8.72-23.88-21.16-45.25-39.41-63.4a204.91,204.91,0,0,0-60-41.36,199.08,199.08,0,0,0-50.62-15.57c-2.13-.35-4.2-1.14-6.33-1.29-4-.29-5.58-2.33-5-6.14.57-4,1.27-7.92,2-12.57,3.26.58,5.76,1.08,8.28,1.46A210,210,0,0,1,1163,369.11a202.05,202.05,0,0,1,38.49,20.71c13.17,9.28,25.51,19.44,36.25,31.5,17.58,19.75,30.88,41.79,38.61,67.3a171,171,0,0,1,5.49,76.72c-5.27,33.8-19.27,63.88-40.85,90.55-20.68,25.56-45.78,45.24-74.92,60.34a253.4,253.4,0,0,1-164.6,23.42,225.79,225.79,0,0,1-70.25-26.27c-12-6.92-23.57-14.74-33.21-25a6.4,6.4,0,0,1-2-4.36,23.61,23.61,0,0,1,4.36,2.16c4.33,3.4,8.48,7,12.77,10.47,13.74,11,29.07,19.49,45.16,26.34a229.48,229.48,0,0,0,48,14.46,258.28,258.28,0,0,0,40.68,4,236.71,236.71,0,0,0,64-7.51,246.21,246.21,0,0,0,79.45-35.64A217.59,217.59,0,0,0,1245,644.85a185.22,185.22,0,0,0,19.7-35,182.37,182.37,0,0,0,12.86-44.71,162.9,162.9,0,0,0,.16-49.39,171.44,171.44,0,0,0-30.51-75,197.38,197.38,0,0,0-55.3-51.7c-16.6-10.52-34.72-18.2-53.58-23.94a4,4,0,0,0-3.87.9,72.78,72.78,0,0,0,7.35,3,194.86,194.86,0,0,1,47,21.15c20.15,12.33,37.87,27.56,52.4,46.44a180.32,180.32,0,0,1,23,39.65c5.24,12.3,9.26,25.13,10.71,38.61,1.13,10.46,2.07,20.82,1.79,31.44-.39,14.56-3.58,28.47-6.82,42.45-.6,2.57-2.47,4.85-3.76,7.27Z"/><path class="cls-1" d="M1034.26,400.65l12.23-3.16V386.35c4.69-1.73,7.64-.77,10.34,3,6.19,8.62,14.61,14.21,24.75,17.53,14.09,4.61,27.77,10.8,42.13,14.13,10.35,2.39,14.64,7.68,17.91,17.08,10.14,29.15,21.26,58,32,86.92a39.44,39.44,0,0,1,1.89,6.16c1.25,6.58-.57,9.27-7.87,11.48-.61-1.74-1.35-3.47-1.82-5.27-1.78-6.78-4.16-13.22-9.29-18.31a9,9,0,0,1-2.22-3.64c-3.32-11.07-11.17-18.86-19.41-26.13-31.08-27.43-62.36-54.63-93.55-81.94C1039.2,405.47,1037.21,403.45,1034.26,400.65Z"/><path class="cls-1" d="M876.81,691.17l5.71-2.4a22.77,22.77,0,0,1,2.49,1.55c7.94,6.55,15.59,13.47,23.82,19.63,26.73,20,57,32,89.47,38.84,29.19,6.16,58.6,6.48,87.92,2.66a249.87,249.87,0,0,0,53.54-13.24c25.66-9.37,49.48-22,70.85-38.87,21.58-17,40-37,54.32-60.73A208.34,208.34,0,0,0,1284.17,597a174.49,174.49,0,0,0,8.5-41.4,184.9,184.9,0,0,0-1.72-45.82,172.56,172.56,0,0,0-13-43.19c-3.07-6.68-6.53-13.18-9.82-19.76l1.18-.75c1.2,1.77,2.58,3.44,3.59,5.31,8.75,16.28,16.61,32.95,20.65,51.11,3.38,15.19,5.59,30.47,4.87,46.2a219.15,219.15,0,0,1-5.32,41.21,188.19,188.19,0,0,1-15.72,42.29A218.13,218.13,0,0,1,1251.85,672a255.11,255.11,0,0,1-49.39,45.72c-24.92,17.73-52.42,29.86-81.68,37.8a265.78,265.78,0,0,1-142.58-1.37,221,221,0,0,1-49.44-21c-13.89-8-27-17.27-38.69-28.45C885.76,700.53,881.67,696.14,876.81,691.17Z"/><path class="cls-1" d="M1034.34,635.39c1.8,6.54,2,45.11.33,52.5-10,2-20.36,3.78-30.55,6.19-21.29,5-43,6.35-64.68,8.36a17.72,17.72,0,0,1-13.31-3.66c-7-5.38-14.51-10.12-20.76-18Z"/><path class="cls-1" d="M715.5,1678.87c9.2,3.12,18.44,6.13,27.58,9.41a15,15,0,0,0,11.15,0c12.65-5,25.42-9.8,38-15.07a23.09,23.09,0,0,1,13.94-1.76c17.59,3.49,35.15,7.25,52.84,10.21q27.59,4.6,55.42,7.76c6.05.69,12.39-.59,18.54-1.36,32.53-4.07,64.8-9.75,96.87-16.53a24.34,24.34,0,0,1,14.11.94,347.85,347.85,0,0,0,55.79,16,26.27,26.27,0,0,0,11.2,0c14.61-3.64,29.09-7.77,43.61-11.73l6-1.64c.24.44.47.88.7,1.32-7.4,5.14-14.72,10.4-22.26,15.31-1.41.91-3.73.55-5.63.56-10.54,0-21.08,0-31.63,0q-179,0-358,.14c-7.09,0-13.06-1.34-18.48-5.88-3.17-2.66-6.72-4.88-10.1-7.3Z"/><path class="cls-1" d="M715.3,659a54,54,0,0,1,.45,6.33c-.33,7.08,3.35,12.8,7.73,17.26s10.82,6.71,17.46,7.31c14.13,1.28,27.7-1.45,40.89-6.07C835.56,665,889.21,646,942.92,627.06c45.59-16,91.26-31.86,136.79-48a250,250,0,0,0,32.36-13.64c11.82-6.2,21.87-15.23,27.37-27.62s4.26-24.94-4.13-35.9A113.28,113.28,0,0,0,1120,485.71Q1028.59,405.66,937,325.85c-2.29-2-4.53-4.05-6.78-6.07,2.07-2.85,3.66-1.45,5.11-.21,4.74,4,9.43,8.14,14.13,12.24q90.47,79,180.85,158c7.9,6.93,14.57,14.95,17.22,25.86a38.19,38.19,0,0,1-3.9,28.29c-8.15,14.86-20.9,24.89-36.36,31.17-17,6.93-34.33,13.33-51.67,19.51-41.92,14.93-83.94,29.6-125.92,44.37-37,13-74,26.11-111.09,39-18.29,6.34-36.18,14.12-55.34,17.64-11.79,2.16-23.56,2.87-35-2.91-7.1-3.58-11.09-9.42-13.07-16.23-1.59-5.44-.8-11.57-1.06-17.4Z"/><path class="cls-1" d="M1299.91,576.45c-.61,4.21-1.19,8.43-1.83,12.63a176.62,176.62,0,0,1-16.41,51.83c-6,12.17-13.46,23.74-21.21,34.92a195.59,195.59,0,0,1-41.11,43A378.73,378.73,0,0,1,1181.89,744c-16.08,9.62-33.59,16.34-51.48,21.75a266.46,266.46,0,0,1-51.36,10,256.64,256.64,0,0,1-59.48-1A252.2,252.2,0,0,1,943,751.72c-25-12.07-46.43-28.51-65.43-48.45-2-2.08-3.73-4.38-5.49-6.64a5.54,5.54,0,0,1-1-4.13c1.72.84,3.72,1.36,5.12,2.57,4.71,4.08,9.21,8.39,13.79,12.62,23.39,21.61,50.36,37.08,80.49,47.26,34.58,11.68,69.92,15,106.24,11.86a263.78,263.78,0,0,0,78.42-19.37,249.74,249.74,0,0,0,106.81-84.5c10.82-15.21,20.3-31.4,26.14-49.34,4-12.24,7.53-24.62,11.27-36.94Z"/><path class="cls-1" d="M865.46,450.67c0-6.93-.16-13.86.09-20.78a19.43,19.43,0,0,1,1.92-6.82c3.56-8.1,7.29-16.12,11-24.17,2.93-6.43,2.41-9.08-2.95-13.7-1.8-1.55-3.8-2.86-6.34-4.76,4-8.92,8.49-17.33,16.44-23.42,8.07,6,15.61,5.83,19.77-7.56a34,34,0,0,1,17.23,5.84c11.1,7.2,20.2,16.63,30.85,25.69-34.57,17.55-63.55,40.4-86.46,70.7Z"/><path class="cls-1" d="M1106.75,349a36.2,36.2,0,0,1,5.06,0,233.37,233.37,0,0,1,85.77,31.26,202.6,202.6,0,0,1,60.57,56.46,178,178,0,0,1,29,65.91,182.77,182.77,0,0,1-14.47,116.2c-6.37,12.79-14.28,24.91-22.45,36.67-8.89,12.82-19.89,23.88-31.74,34.11a255.15,255.15,0,0,1-42.4,29.4,244.84,244.84,0,0,1-50.17,21.11,264.45,264.45,0,0,1-105.83,9.72,210.22,210.22,0,0,1-35.24-6.6c-30.55-8.35-58.71-21.84-83.53-41.77-5-4-9.41-8.72-14.11-13.12,3-3.36,5-1.31,7.08.35,9.38,7.42,18.45,15.3,28.3,22a189.06,189.06,0,0,0,38.87,19.9,240.61,240.61,0,0,0,59.81,14.61,267.75,267.75,0,0,0,54.52.23,253.71,253.71,0,0,0,118.77-43.26,225,225,0,0,0,55.77-54.46,190.53,190.53,0,0,0,31-67.4c5.71-24.19,6.68-48.47,2.15-72.69a196,196,0,0,0-11.55-37.61A150.92,150.92,0,0,0,1250,432.3a245.74,245.74,0,0,0-36.37-36.59c-13.29-10.85-28.1-19.29-43.54-26.3A209,209,0,0,0,1117.49,353C1110.38,351.87,1110.41,351.69,1106.75,349Z"/><path class="cls-1" d="M989.72,541.5H864.28c2.31-10.69,7.24-19.7,11-29.54H989.72Z"/><path class="cls-1" d="M720.9,698l-20.76-9.51v-118c15.56-10.59,38.25-16.85,54.37-14.53-.93,2.49-1.66,4.85-2.66,7.1C741,587.55,730,612,719.13,636.52c-5.92,13.35-9.38,27.16-6.56,41.86a33.36,33.36,0,0,0,3,8.67c1.72,3.39,4,6.5,6,9.73C721.37,697.19,721.14,697.6,720.9,698Z"/><path class="cls-1" d="M941,317.63h8.5l86.86,0c2.15,0,4.3.14,6.46.14,3.25,0,4.89,1.71,4.91,4.86,0,10.25,0,20.49,0,31.29-8.35,1.57-16.52,3-24.63,4.65-8.4,1.74-16.77,3.66-25.12,5.65-3,.71-5.47.56-8-1.62q-24.74-21.81-49.62-43.45Z"/><path class="cls-1" d="M1157.75,529.68a27.38,27.38,0,0,1,2.64,15.25C1158.92,560,1151,571,1139.84,580.5c-12.28,10.53-26.85,16.44-41.74,21.7q-87.93,31.08-176,61.85c-42.65,15-85.25,30.1-127.92,45-13.87,4.85-28.17,8.13-43,6.34-8.9-1.07-17.43-3.79-21.6-13.49a60.92,60.92,0,0,1,6.35,2.62c12.12,6.62,25.06,6.44,37.69,3.11,16.16-4.26,32.08-9.56,47.88-15,46.09-16,92.07-32.34,138.1-48.54,47.6-16.77,95.26-33.38,142.76-50.42,10.75-3.86,21.15-8.7,30.42-15.85a66.2,66.2,0,0,0,18.5-21.65c2.28-4.33,3.16-9.45,4.36-14.29C1156.56,538.39,1156.91,534.79,1157.75,529.68Z"/><path class="cls-1" d="M785.8,1422.54c-4.24,1.58-8.15,3.29-12.21,4.48-3.4,1-8.76-2.53-10.75-6.52-4.71-9.45-5.92-19.77-6.16-30-.5-21.51-.59-43.06.11-64.56.28-8.69,2.32-17.53,4.9-25.89,3-9.8,7.79-11.44,17.66-7.86,2.17.79,4.25,1.81,6.26,2.68C777.58,1331.18,777.6,1388.53,785.8,1422.54Z"/><path class="cls-1" d="M786.24,930.42c-4.6,1.49-8.52,3.34-12.62,4-6.74,1-12.16-4.71-13.79-14.38a79.15,79.15,0,0,1-.85-13.6c.08-28.25.15-56.5.6-84.74.07-4.61,1.57-9.38,3.27-13.75,2.09-5.37,7.2-7.41,12.79-5.81,3.38,1,6.66,2.23,10.3,3.47-3.58,10.67-2.91,21-3,31.21q-.3,32-.24,63.92C782.74,910.43,782,920.29,786.24,930.42Z"/><path class="cls-1" d="M1075.82,1424.53a6.73,6.73,0,0,1,.58-1.91c9.06-13.46,11.41-28.86,11.69-44.46.31-17.68-.06-35.43-1.3-53.08-.69-9.66-3.11-19.37-8.83-27.74a42.76,42.76,0,0,1-2.3-4.28c9.16-4.46,18-2.42,23.74,4.66,7.3,9,9.92,19.62,11.13,30.57a281,281,0,0,1,0,61c-1.15,10.69-3.78,21.11-10.75,30C1093.8,1426.83,1085.34,1429,1075.82,1424.53Z"/><path class="cls-1" d="M785.59,1050.37c-5.85,21.47-5.79,43-5.78,64.53,0,15.55-.27,31.16,2.91,46.52.77,3.72,1.85,7.37,2.79,11-6.89,5.85-15.28,7.74-19.65,2.9-3.45-3.82-5.66-9.44-6.67-14.61a187.53,187.53,0,0,1-2.74-26.37c-1.16-23.48-.7-46.94,2.6-70.24.65-4.63,2.55-9.19,4.49-13.5,1.75-3.88,5.82-5.25,9.64-4.84A24.4,24.4,0,0,1,785.59,1050.37Z"/><path class="cls-1" d="M1075.28,932.09c10.35-14.17,12.53-30.08,12.87-46.15.34-16.72-.06-33.52-1.3-50.2-.83-11.19-4.1-22.08-11.3-31.22a17.82,17.82,0,0,1,23.17,3c7.74,8.92,10.62,19.78,11.83,31a267.5,267.5,0,0,1,0,58.79c-1.18,10.44-3.56,20.68-10.46,29.3C1094,934.14,1085.33,936.44,1075.28,932.09Z"/><path class="cls-1" d="M1076,1176.09c2.77-6.46,5.84-12.39,7.89-18.64,5.16-15.73,4.71-32.12,4.64-48.38a254.84,254.84,0,0,0-1.63-29.37c-1.14-9.46-3.25-18.84-8.75-27-.92-1.36-1.63-2.85-2.43-4.28,9.14-4.72,18-2.66,24.08,4.9,6.93,8.58,9.56,18.74,10.71,29.22a263.17,263.17,0,0,1,0,58.78c-1.14,10-3.42,19.74-10,28S1086.46,1179.81,1076,1176.09Z"/><path class="cls-1" d="M1254.93,689.3v7.87q0,294.8-.06,589.58a62.88,62.88,0,0,1-1.33,12c-1.08,5.53-5.33,7.62-10.39,8.33a44.86,44.86,0,0,1-6.46.23q-39.2,0-78.37,0c-2.4,0-5.13.76-7.58-1.72,2.55-2.38,5.27-1.57,7.67-1.58,18.22-.09,36.43,0,54.65-.1,9.1-.07,18.2-.44,27.3-.8,7.62-.31,10.25-2.87,10.48-10.62.29-9.82.37-19.65.37-29.48q0-275.37,0-550.75c0-5.75-.07-11.51.18-17.25.09-2.11,1-4.18,1.58-6.28Z"/><path class="cls-1" d="M795.25,293.17A29.76,29.76,0,0,1,824.72,323a30.11,30.11,0,0,1-30,30.14c-15.79.13-30.21-13.28-29.89-30.34C765.19,304.81,779.27,292.8,795.25,293.17Z"/><path class="cls-1" d="M800.83,663.78v-92.7c7.83-3.5,16.25-3.5,24.16-5.5,1.63,14.39,2.5,28.42,5,42.17s6.53,27.35,10.14,42Z"/><path class="cls-1" d="M861.27,555.46c.7-3.24,1.25-5.77,1.76-8.18,6.3-1.75,239-2.2,252.61-.5a9.2,9.2,0,0,1-7.86,5.26c-6.19.62-12.34,1.79-18.54,2.09-12.84.61-25.06,3.82-36.85,8.6-10.3,4.18-20.36,5.17-31.31,2.15-11.27-3.11-22.91-4.93-34.47-6.86-8.24-1.38-16.59-2.16-24.91-3a438.33,438.33,0,0,0-91,.39c-1.9.21-3.82.28-5.74.33C864,555.78,863.06,555.61,861.27,555.46Z"/><path class="cls-1" d="M967.05,392.58l9.26,8.49c-4.17,2.15-7.61,4.06-11.16,5.73-18.34,8.62-34.7,20.15-49.81,33.57-25.42,22.59-43.94,49.88-54.51,82.19-7.09,21.66-8.49,44.05-5.45,66.71,2.31,17.22,7.32,33.57,15.76,50.94-2.57-1.33-4.24-1.61-4.73-2.53-2.81-5.27-5.92-10.49-7.88-16.09-5.14-14.69-9.25-29.66-10.4-45.32a167,167,0,0,1,11.54-75.13,180.89,180.89,0,0,1,38.13-59.41c9.92-10.27,21.14-19.41,32.45-28.19A136.72,136.72,0,0,1,967.05,392.58Z"/><path class="cls-1" d="M1262.23,1288.23v-8.36q0-296.64.08-593.28c0-3.63-1.35-7.72,2.51-11.42a29.63,29.63,0,0,1,1.08,4,36.4,36.4,0,0,1,.07,4.31q0,296.28,0,592.56C1265.92,1279.7,1267.11,1283.79,1262.23,1288.23Z"/><path class="cls-1" d="M759.4,680.11c-6.17-.28-12.45.1-18.48-1-8.93-1.6-14.24-8.74-14.72-17.88-.48-9.41,2.72-18,6.38-26.29Q762,568.3,791.9,501.8,821.45,435.56,851,369.35c5.22-11.65,11.54-22.64,21.56-31,1.22-1,2.55-1.9,4-3,2,2.73,2.6,5.13.24,7.31C861.31,357,855,376.77,846.75,395.23q-53.81,119.91-107.1,240A114.48,114.48,0,0,0,733.82,653a35.06,35.06,0,0,0-.68,10c.34,9.5,6.09,14.68,15.47,15.39,3.55.28,7.13,0,10.69,0C759.34,679,759.37,679.53,759.4,680.11Z"/><path class="cls-1" d="M1077.82,1414.42c-33-32.42-28.55-84.67-.08-111C1089.16,1316.38,1089.28,1397.81,1077.82,1414.42Z"/><path class="cls-1" d="M794.7,1414.88c-11.61-15.87-11.82-94.52-.82-111.49,10.31,5.06,21.59,30.49,23.22,45.77C819.78,1374.33,811.54,1395.91,794.7,1414.88Z"/><path class="cls-1" d="M1148.68,510.56c7.15,13.35,7.12,26.54-.51,39.73-10.15,17.55-26.21,27.59-44.28,34.8-15.1,6-30.5,11.28-45.84,16.7q-63.27,22.35-126.59,44.55-49.1,17.26-98.19,34.48c-14.45,5.07-28.84,10.33-43.39,15.08-9.31,3-18.73,6.24-28.36,7.65-12.19,1.77-24.34.16-35.42-6.15a36.78,36.78,0,0,0-3.85-1.69l1.61-2a13.84,13.84,0,0,1,3.21.91c12.37,6.9,25.62,6.16,38.38,2.73,18.21-4.89,36.14-10.94,54-17.1,37.08-12.8,74-26,111-39,46-16.21,92.08-32.33,138-48.7,14.41-5.13,28.84-10.35,42.8-16.55,15.91-7.08,28.91-18.2,36.25-34.25,3.5-7.64,5.56-16.33,2.64-25.1C1149.56,514.67,1149.19,512.59,1148.68,510.56Z"/><path class="cls-1" d="M794.1,813.54c32.67,31,29.56,82.8-.26,108.67C783.09,904.56,783,831.47,794.1,813.54Z"/><path class="cls-1" d="M1077.8,922.11c-31.2-28.65-30.52-80.39,0-108.15C1089.27,827.33,1089.28,908.66,1077.8,922.11Z"/><path class="cls-1" d="M794,1165.5c-11-15.27-11-91.6-.11-107.25,3.78.09,4.92,3.31,6.68,5.75,8.95,12.39,15.09,25.88,16.79,41.29C820.18,1130.73,804.37,1159.65,794,1165.5Z"/><path class="cls-1" d="M1074,1164.69a66.18,66.18,0,0,0-3.34-6.22,125.49,125.49,0,0,1-12.14-23.45c-4.71-11.69-4.7-23.69-3-35.33,1.31-9,6.1-17.47,9.79-26,1.6-3.68,4.21-7,6.57-10.26a73.38,73.38,0,0,1,5.09-5.78c12,14.13,12.64,83.83,1.4,107.7l-4.61-.93Z"/><path class="cls-1" d="M797.21,580.23v84.18c-13.78,7-32.48,11.87-42.19,10.7.91-3.18,1.43-6.42,2.73-9.31q18.6-41.52,37.44-82.93A21.63,21.63,0,0,1,797.21,580.23Z"/><path class="cls-1" d="M879.51,344.45c2.58,2.85,3,5,.48,7.37-9,8.38-14,19.24-18.88,30.2q-48.48,108.83-97,217.64-8,18-16.15,36c-5,11.13-9.76,22.32-8,35.59-3.73-2-3.93-4.77-4.21-7.67-.88-9.42,2.06-18,5.75-26.35,14-31.72,28.25-63.36,42.38-95q38-85.2,76.08-170.37c4.21-9.36,8.92-18.6,17-25.5C877.65,345.73,878.43,345.24,879.51,344.45Z"/><path class="cls-1" d="M746.3,676.32c-3.33-5.15-2.83-9-1.48-12.52,3.21-8.5,6.43-17,10.17-25.29q55.82-123.74,111.84-247.38c.86-1.91,1.87-3.76,2.81-5.63,4.93,1.1,4.42,3.75,2.92,7-4.4,9.57-8.65,19.2-13,28.8Q821.81,505.14,784,588.93c-9.55,21.16-19.2,42.28-28.65,63.49-2.33,5.23-4.08,10.71-6.1,16.08C748.46,670.67,747.63,672.83,746.3,676.32Z"/><path class="cls-1" d="M1071.55,1293l4.44,6.86c-32.45,38.51-31.1,79.51-.86,117.18-2.08,7.54-4.05,8.38-10.13,4a46.28,46.28,0,0,1-12.78-14.32,110,110,0,0,1-13.19-34,68.89,68.89,0,0,1-.53-25.68,104.91,104.91,0,0,1,16.14-40.4C1058.58,1300.78,1063.71,1295.53,1071.55,1293Z"/><path class="cls-1" d="M745.56,716.29c4.63.67,9.26,1.89,13.9,1.9,11.82,0,23.33-2.46,34.44-6.35q79.92-28,159.74-56.21c50.55-17.78,101.14-35.41,151.65-53.3,15.45-5.48,30-13,41.57-24.83,7.44-7.67,14.17-16.3,15.1-27.81a68.09,68.09,0,0,1,1.44-7.41c.62.55,1.45,1,1.42,1.31-.81,8.51-1.33,16.88-6.18,24.61-8.57,13.67-20,23.87-34.71,30-16.76,7-33.75,13.48-50.86,19.56q-83.52,29.7-167.2,58.93-53.49,18.81-107,37.55c-14.32,5-29,8.48-44.32,7-3.64-.34-7.93.17-9-5Z"/><path class="cls-1" d="M1073.77,1164.44c.6,1.45,1.21,2.9,1.84,4.41-3.64,7.1-5.36,7.62-11.62,2.68a50.07,50.07,0,0,1-12.23-13.88,98.23,98.23,0,0,1-12.49-31.91,75.76,75.76,0,0,1-.1-27.68c2.31-12.16,7.32-23.71,13.88-34.43a38.94,38.94,0,0,1,18.43-15.3l4.23,5.83-9.62,13.81c-11.26,16.2-15.94,34.23-13.41,53.7a73.62,73.62,0,0,0,10,28.92,109.34,109.34,0,0,0,6.28,9.61c1.33,1.75,3.32,3,5,4.49Z"/><path class="cls-1" d="M920.9,327.52c1.63,1.26,3.36,2.46,4.94,3.83q92.65,80.82,185.24,161.72a122.42,122.42,0,0,1,14.4,15c7,8.58,7,18.25,2.33,28.15a52.25,52.25,0,0,0,.69-6.2,35.84,35.84,0,0,0-.74-6.35c-1.27-6.68-5.28-11.8-10.09-16.19q-18.83-17.21-38-34-77.4-67.68-154.91-135.22c-1.45-1.26-2.87-2.55-4.33-3.8C917.74,332.16,918.17,330,920.9,327.52Z"/><path class="cls-1" d="M1140.9,418.85c-9.21,1.13-16.85-1-24.33-3.37-12.32-3.85-24.53-8.07-36.69-12.41-9-3.19-16.57-8.27-22-18.66,3.41,1.07,6,1.11,7.3,2.41,8.44,8.18,11.74,8.07,18.88-1.59,15.39-.8,30.48,2.61,45.94,6.21C1133.48,400.24,1137,409.08,1140.9,418.85Z"/><path class="cls-1" d="M1083.36,381.57V369.9c6.58-.53,12.57-.33,18.63,2.62,4.2,2.05,9.08,2.92,13.76,3.72,24.6,4.21,47.49,13.19,68.92,25.66A182,182,0,0,1,1247.36,462a36.87,36.87,0,0,1,4.33,9.86C1210.75,413.76,1153.31,386.79,1083.36,381.57Z"/><path class="cls-1" d="M865.14,640.7,861,642.36c-3.2-6.55-7-12.74-9.33-19.44-5.22-14.9-9.51-30.07-10.69-46a174,174,0,0,1,11.81-78,193.1,193.1,0,0,1,41.1-63.43c9.57-9.94,20.5-18.72,31.61-27,9.94-7.38,20-14.84,31.9-19.2,2.49-.91,2.46-1,6.18.68a52.3,52.3,0,0,1-4.81,3.08,216.84,216.84,0,0,0-78.61,65.76,173.79,173.79,0,0,0-32.26,73.65,171.53,171.53,0,0,0-1.32,52.85c1.7,13.21,5.91,25.63,10,38.1C858.44,629.29,862,634.54,865.14,640.7Z"/><path class="cls-1" d="M985.8,410.18c-65.32,28.48-111.69,73.06-128.47,144.39,0-1.67-.33-3.43,0-5,2.52-10.46,4.53-21.09,7.94-31.26,8.2-24.45,22-45.7,39.66-64.33,10.2-10.77,21.29-20.69,33.85-28.82,10.86-7,21.78-13.89,33.75-19C980,403,979.85,402.74,985.8,410.18Z"/><path class="cls-1" d="M1075.34,925.47c-3.45,7-4.86,7.77-10,3.49A64.57,64.57,0,0,1,1053.21,916a93.8,93.8,0,0,1-12.63-28.74,14.92,14.92,0,0,1,.21-9.72c4.46-11.85,8.5-23.87,13.11-35.66a61.18,61.18,0,0,0,4.19-21c.27-10.45,2.54-13.23,13.66-16.75l3.9,5.91C1043.56,850.17,1045,887.54,1075.34,925.47Z"/><path class="cls-1" d="M956.68,385.49c-10.88,6.9-21.88,13.6-32.59,20.75-13,8.68-24.27,19.45-35,30.78a187.52,187.52,0,0,0-31,43.85c-5.6,11-9.71,22.89-13.5,34.7a150.68,150.68,0,0,0-6.77,48.88c.24,13.88,1.75,27.7,5.72,41.12,3.79,12.83,7.65,25.63,15.29,37.45l-4.56,1.75c-3-6.33-6.52-12.32-8.88-18.73-9.44-25.73-13.53-52.15-10.7-79.68a180.93,180.93,0,0,1,19.12-64.3,210.43,210.43,0,0,1,45.27-59c12.77-11.79,27-21.47,41.54-30.68,4.94-3.12,10.51-5.24,15.8-7.81Z"/><path class="cls-1" d="M1140.05,395.31c5.4-.71,7.87,1.46,9.46,6,3.07,8.8,6.65,17.41,10.06,26.09,4.91,12.52,12.9,22.91,22.66,32q36.86,34.25,73.91,68.27c6.66,6.08,10,13.07,9.84,22.08-.21,10.3,0,20.6-.07,30.91,0,6.16-.73,8.73-3.94,14.83,0-13.78-.54-26.22.15-38.59.76-13.65-4.51-23.38-14.71-32.37-23.7-20.91-46.59-42.76-69.64-64.41A91.55,91.55,0,0,1,1156,430C1151,418.45,1145.49,407.06,1140.05,395.31Z"/><path class="cls-1" d="M1251.6,620.1c-.1-2.31-.29-4.62-.3-6.94-.14-20.84-.4-41.68-.27-62.52,0-6.48-2-11.57-6.72-15.88-22.22-20.07-44.26-40.33-66.58-60.28-10.37-9.26-21.27-18-28.33-30.26-3.33-5.79-6.07-11.93-8.94-18-.42-.89-.06-2.15-.06-4.72,1.84,2,3.08,2.8,3.5,3.9,6.9,18,19.47,31.49,33.67,44,23.34,20.6,46.17,41.77,69.32,62.59,5.77,5.19,8.18,11.33,8.08,19.07-.25,20.12,0,40.24-.13,60.37a74.51,74.51,0,0,1-1.07,8.87Z"/><path class="cls-1" d="M1259.35,1297.84l7.59-2.86c-1.14,3.18-2.14,6-3.12,8.72h-8.23c3-18.24,2.24-36.34,2.24-54.4q.08-276.42,0-552.84v-12l1.48,0Z"/><path class="cls-1" d="M1081.05,285.09c14.18-2,25.59,4.25,30,15.22q8.71,21.65,17.4,43.31c.42,1.05.68,2.16,1.4,4.5-5.24-1.16-9.71-1.78-13.88-3.26-1.63-.58-3-2.92-3.75-4.76-4.64-11-9.27-22.07-13.52-33.26C1095.37,298.06,1092.25,289.3,1081.05,285.09Z"/><path class="cls-1" d="M844.39,326.21c.31,5.86.55,11.72,1,17.58.51,7.32-.65,13.95-4.63,20.52-4.18,6.91-6.84,14.75-10.21,22.16-.65,1.42-1.5,2.76-2.69,4.93-2.3-12.12-12.7-17.86-17.83-27.75,18.71-5.84,28.62-19.18,32.15-38Z"/><path class="cls-1" d="M900.35,336.48c6.12.93,11.94,1.72,16.92,5.39,2.31,1.7,4.64,3.4,6.8,5.28Q1018.57,429.56,1113,512a17.81,17.81,0,0,1,5.12,7.46c-1.22-1-2.48-1.87-3.64-2.89Q1027.06,440.31,939.64,364c-5.23-4.56-10.66-8.9-16.11-13.19s-11.22-7.2-18.1-8.06C902.27,342.35,899.33,341.33,900.35,336.48Z"/><path class="cls-1" d="M750,674.4c2-5.74,3.6-11.67,6.09-17.2q42.33-93.84,84.89-187.59,16-35.3,31.79-70.66a15.15,15.15,0,0,1,4.35-5.92,23.45,23.45,0,0,1-1,4q-23.18,51.33-46.41,102.63-30.64,68-61.13,136.14c-5.55,12.43-10.68,25.06-16,37.58-.26.58-.92,1-1.4,1.49Z"/><path class="cls-1" d="M757,324.71c3.64.35,3,3.07,3.35,4.92,1.61,8.62,6,15.43,12.71,21,15.49,12.89,40,9.07,51-7.95a33.07,33.07,0,0,0,5.68-16.06c.48-8.13.88-16.27,1.08-24.4.31-12.64,5.29-17.8,18-18,9.11-.17,18.21-.11,27.32-.05a34.81,34.81,0,0,1,5.11.75c0,.52.07,1.05.1,1.57a33.41,33.41,0,0,1-5,.93c-9.58.34-19.16.49-28.73.85-9,.34-12.44,4-12.83,12.85-.4,9.08-.36,18.24-1.55,27.22-2.23,16.84-11.93,28.23-28.33,32.38-26.32,6.68-47.33-12.27-48.66-34.29C756.17,326,756.56,325.56,757,324.71Z"/><path class="cls-1" d="M1063.28,369.59c.21,3.42.41,6,.51,8.62a22.56,22.56,0,0,1-.41,3.24c-4.77.46-9.49.78-14.16,1.41-8.26,1.11-16.58,2-24.7,3.78-4.32.95-7.33.19-10.27-2.78-2-2-4.22-3.75-7.47-6.6C1026,373,1043.9,368.88,1063.28,369.59Z"/><path class="cls-1" d="M1116.78,512,918.33,338.74l1.36-1.55Q1019,423.92,1118.27,510.6Z"/><path class="cls-1" d="M1053.63,815.24a44.17,44.17,0,0,1-2.34,25.65c-5.24,13.07-9.75,26.42-14.78,40.25-2.37-8.26-1.66-29.07.73-35.56C1041.23,834.67,1045.87,824.14,1053.63,815.24Z"/><path class="cls-1" d="M849.12,348v-48.8l13.07-.69v14.13c0,2.62,0,5.25,0,7.87C862.14,336.17,862.14,336.17,849.12,348Z"/><path class="cls-1" d="M877.77,322.92c.69-2,.83-4.58,2.19-5.81a9.45,9.45,0,0,1,6.31-2c1.16.06,2.69,2.31,3.21,3.86,3.43,10.19,6.5,20.5,10,30.67.95,2.77,1.55,5-1.2,6.87a7.46,7.46,0,0,1-8.67-.44,4.34,4.34,0,0,1-.92-1.09C883.42,344.89,880.26,334.15,877.77,322.92Z"/><path class="cls-1" d="M865.63,330.81V299.08h17.46c4.15,7.58,9,14.9,19.3,17.72-4,.86-6.63,2.65-9.71-1-5.11-6.1-14.41-4-17,3.5-.69,2-.71,4.18-1.13,6.84Z"/><path class="cls-1" d="M1102.5,556.54c-20.29,9.26-41.72,15.38-62.61,23.13-2.63-8.62-2.31-9.29,4.77-11.73,4.28-1.47,8.65-2.75,12.82-4.48,10.74-4.45,22.08-5.84,33.48-7.09,3.77-.41,7.54-.88,11.3-1.31Z"/><path class="cls-1" d="M1079.33,368.45c0,5,.06,10,0,15-.06,4.26-1.73,6.52-4.76,6.75a6.22,6.22,0,0,1-6.35-6.27c-.36-9.51-.29-19-.29-28.56a8.75,8.75,0,0,1,.9-4.15,6.29,6.29,0,0,1,7.26-3.27c3,.61,3.39,2.83,3.36,5.42-.07,5,0,10,0,15Z"/><path class="cls-1" d="M831.68,542.58c-3.18,36.09,2.86,70.4,19.49,102.31-2.42,2.27-4.15,2.17-5.31,0a87.09,87.09,0,0,1-5.05-10.26,176.54,176.54,0,0,1-12-57.35C828.35,565.84,828.73,554.07,831.68,542.58Z"/><path class="cls-1" d="M827.49,546.06c-.32,4.56-.48,7.87-.81,11.16-.17,1.62-.65,3.21-1.09,5.31l-22.88,4.3c3.14-7.1,5.55-13,8.36-18.6.56-1.12,2.64-2,4.08-2.08C818.89,545.87,822.67,546.06,827.49,546.06Z"/><path class="cls-1" d="M1134.21,392.45c3.46,1,3.84,4.13,5,6.51,5.08,10.82,10,21.69,15,32.57,5.84,12.86,14.43,23.61,24.86,33,4.58,4.13,9,8.39,14.46,13.42C1168.86,466,1138.55,421.87,1134.21,392.45Z"/><path class="cls-1" d="M861.15,436.86c4.07,16.58-1.78,29-11.88,40.79-1.26-5.28-1.49-10.27.36-14.87C853.05,454.27,857.05,446,861.15,436.86Z"/><path class="cls-1" d="M1063.87,363.28c-.92,1.21-1.48,2.71-2.39,3a25.71,25.71,0,0,1-7.08.95c-15.47-.18-30.26,4.16-45.31,6.72-2.3.39-4.6,1.74-6.54-.76C1008.18,368,1051.17,360.93,1063.87,363.28Z"/><path class="cls-1" d="M758.36,546.52c-2,6.37-2,6.46-6.94,6.37-11.8-.22-23.13,2.33-34.33,5.62C727.67,546.77,737.41,543.89,758.36,546.52Z"/><path class="cls-1" d="M741.86,730.12l-35.94-36c9,3.69,17.12,6.38,22.05,14.77,4.22,7.19,9.54,13.73,14.38,20.56Z"/><path class="cls-1" d="M844.2,474.3c3.72,13-3.8,22.7-7.47,33.72h-7.59C834.31,496.45,839.25,485.37,844.2,474.3Z"/><path class="cls-1" d="M822.19,541.11c.38-8.91-2.37-18.33,4.5-26.44,5.24,3,6.72,7.15,5.08,12.69a83.32,83.32,0,0,0-2.48,10.41C828.6,542.06,826.31,542.68,822.19,541.11Z"/><path class="cls-1" d="M1189.15,525.16c3.13,5.21,3.13,5.21,2.64,10.24H1179c-.53-3.14-1.08-6.45-1.72-10.24Z"/><path class="cls-1" d="M1062.3,359.15c-10.45,1.29-20.94,2.3-31.33,3.92-10.55,1.65-21,3.89-31.8,5.92C1007.52,363.69,1047.85,357,1062.3,359.15Z"/><path class="cls-1" d="M856.44,293.63c2-1.05,3.94-2.8,6-3a153.49,153.49,0,0,1,16.48-.31c2.09,0,2.09.36,3.41,4.92H857Z"/><path class="cls-1" d="M915,330.74v6.1l-16.88-3.31c-.3-1.32-.71-3.06-1.16-5C903.61,326.67,909.16,328.66,915,330.74Z"/><path class="cls-1" d="M1117.44,1382.39v-50.08l.27,0c.52,5.44,1.25,10.88,1.51,16.33.26,5.71.25,11.45,0,17.17s-.84,11.33-1.29,17Z"/><path class="cls-1" d="M1255.88,535.44c1.12,3.54,3.15,7.07,3.21,10.63.31,19.81.15,39.63-.89,59.52-.1-1.92-.27-3.83-.29-5.74-.2-15.55-.19-31.1-.65-46.64-.17-5.83-1.39-11.63-2.13-17.45Z"/><path class="cls-1" d="M1042.92,389.6c.19,2.09.34,3.84.54,6-6.36.18-12.71,5.72-18-2.83A47.54,47.54,0,0,1,1042.92,389.6Z"/><path class="cls-1" d="M783.7,1337.11c-.53-13-.17-25.79,5.21-39.55,1.14,2.42,2.14,3.51,1.92,4.23C787.29,1313.33,783.66,1324.83,783.7,1337.11Z"/><path class="cls-1" d="M894.62,322.19c8.62-.94,15.93-1.42,24,2.6-1.6,1.12-2.72,2.58-3.74,2.51-6.18-.42-12.34-1.15-18.48-1.95C895.9,325.28,895.56,323.9,894.62,322.19Z"/><path class="cls-1" d="M783.68,1133.29c.24,11.22,3.18,22,7,32.5.73,2,.53,3.15-2.31,3.76C783.51,1158,783.49,1145.69,783.68,1133.29Z"/><path class="cls-1" d="M783.94,1380.34c-.57,12.8,4.35,24.81,5.84,37.32C784.82,1410.55,782.18,1391.93,783.94,1380.34Z"/><path class="cls-1" d="M1082.45,365c1.11-1.19,1.74-2.37,2.24-2.31,5.06.57,10.1,1.32,15.12,2.13a10.1,10.1,0,0,1,0,1.94C1093,368,1089.3,367.72,1082.45,365Z"/><path class="cls-1" d="M1253.79,424.93c-3.73-3.57-7.51-7.09-11.18-10.73-4.85-4.82-9.62-9.74-14.14-14.88,9,8,18.23,15.74,25.16,25.76Z"/><path class="cls-1" d="M784,1075.81c.64-4.71,1.17-9.44,2-14.12a74.66,74.66,0,0,1,2.19-7.63c2.49,2.78,2.71,2.85.12,10.91-1.18,3.66-.64,8.11-4.29,10.82Z"/><path class="cls-1" d="M786.25,911.32c4.52,10.27,4.7,11.3,2.74,15C785,921.74,786.64,916.34,786.25,911.32Z"/><path class="cls-1" d="M857.87,697.62l8.82-3.16c1.18,1.46,2.28,2.82,4.5,5.54l-13.26-1Z"/><path class="cls-1" d="M1045.32,909.08c-6.77-6.58-6.84-6.75-6.24-15.54.89,2.66,1.67,5.37,2.72,8S1044.13,906.56,1045.32,909.08Z"/><path class="cls-1" d="M822.39,403.52V387.38C825.07,391,825.16,396.76,822.39,403.52Z"/><path class="cls-1" d="M790.75,811l-3.48,12.75c-.43-4.6-2-9.39,1.62-13.25Z"/><path class="cls-1" d="M834.66,337.73c.92-7.6,1.85-15.21,2.86-23.5C838.36,322.72,837.65,330.35,834.66,337.73Z"/><path class="cls-1" d="M1185.81,520.71c-5.38-1.67-3.38-6.48-5.54-10.3C1184.5,513.27,1184.5,513.27,1185.81,520.71Z"/><path class="cls-1" d="M821.18,295.1l-6.7,2.15-4.58-3.09.25-1.21,11.29,1Z"/><path class="cls-1" d="M1084.35,357.8l14.88,1.47-.09,1.43L1084.4,360Z"/><path class="cls-1" d="M813.63,541.56c1.55-3.42,2.78-6.14,4-8.86l1.15.25v9.22Z"/><path class="cls-1" d="M820.74,303c5.43,5.85,5.78,6.61,6.35,12C825,311,822.84,307,820.74,303Z"/><path class="cls-1" d="M883.39,354.46l-8.77,9.67C877,358.12,877.08,358,883.39,354.46Z"/><path class="cls-1" d="M844.13,300.41v6.94h-1.08v-6.94Z"/><path class="cls-1" d="M784,1075.79v0Z"/><path class="cls-1" d="M822.44,299.24c5.59-1.36,5.53,1.19,4.56,5Z"/><path class="cls-1" d="M846.56,295.84c-1.32-5.07,1.68-4.37,4.43-4.18Z"/><ellipse class="cls-1" cx="1184.19" cy="539.67" rx="7.96" ry="0.68"/><path class="cls-1" d="M907.77,688.81l-4.87-4.53.55-.54,4.92,4.56Z"/><path class="cls-1" d="M833.54,517.45l-4.14-5.56H835C834.55,513.57,834.22,514.82,833.54,517.45Z"/><path class="cls-1" d="M1034.27,1356v5h-.12v-4.86Z"/><path class="cls-1" d="M745.58,716.28c-3.36,1.36-6.11.47-8.84-2.43l8.82,2.44Z"/><path class="cls-1" d="M918.23,317.94h3.1l0,.29h-3.1Z"/><path class="cls-1" d="M1149.23,1305.45l-3.22,1.29a6.26,6.26,0,0,1-.61-1.69c0-.2.71-.68,1-.64A15.41,15.41,0,0,1,1149.23,1305.45Z"/><path class="cls-1" d="M1262,435.92l2.53,3.48-.68.56-2.73-3.13Z"/><path class="cls-1" d="M1253.63,425.08l3.79,4.3-1.33.82q-1.15-2.62-2.3-5.27Z"/><path class="cls-1" d="M1266.19,596.05a7,7,0,0,1-2.82,7.24l.16.14,2.83-7.23Z"/><path class="cls-1" d="M1260.6,610.59l2.94-7.15-.17-.15a6.93,6.93,0,0,1-2.93,7.16Z"/><path class="cls-1" d="M1260.44,610.45l-.9,5.87-1.54-.46,2.61-5.26Z"/><path class="cls-1" d="M1202.6,487.7l-2.4-2.2.58-.65,2.41,2.2C1203,487.26,1202.79,487.48,1202.6,487.7Z"/><path class="cls-1" d="M1122.41,518.56l-2.13-2.76.7-.54,2.15,2.74Z"/><path class="cls-1" d="M838.61,298.42v2.65l-.41,0c-.06-.83-.13-1.67-.19-2.51Z"/><path d="M853,1358.59c.1-11.79,2-23.36,6.42-33.88s10.11-20,21.17-26.06a81.11,81.11,0,0,1,73-3.64,76.93,76.93,0,0,1,31.78,26.06c6.14,8.52,10.29,18.29,10.95,29.11.13,2.16,0,4.34.22,6.47,1.58,12.71-2.17,24.46-8.27,35-5.84,10.1-13.81,18.89-24.26,24.88-.83.48-1.75.81-2.53,1.36-11.15,7.93-24.07,10.71-37.25,11.37-12.69.65-25.3-1-36.83-7.2-.85-.45-1.67-1-2.54-1.35-16.43-7.49-24.78-21.09-28.26-38.09C855,1374.73,854.16,1366.62,853,1358.59ZM925.33,1338H869.92c-4.81,11.23-4.09,22.92-2.21,34.06A85.65,85.65,0,0,0,881,1405.91c5.65,8.4,13.75,13.29,22.43,17.13,5.34,2.37,11.58,2.76,17.46,3.79,1.24.22,2.67-.63,4.49-1.12Zm4.22,87.62c4.46-.82,8.46-1.44,12.4-2.32a15.75,15.75,0,0,0,4.56-2c9.25-5.57,17.62-11.87,24.28-20.8,12-16.11,16-33.85,13.87-53.42a19.25,19.25,0,0,0-.83-3.49c-1.75-5.38-2.33-5.85-8.15-5.88-11.75-.06-23.49,0-35.23-.06h-9.72C928.27,1343.9,927.46,1410.21,929.55,1425.62ZM927,1291.92c-25-4.72-52.55,15.68-54,40.07,19.47,1.65,99.75.88,105-1-3.66-17.73-29-38.68-46.68-38q-.62,18-1.26,36.1h-1.76C927.89,1316.84,927.47,1304.58,927,1291.92Zm-34.8,130c-8.36-5.77-13.78-13.42-18.21-22.08a93.06,93.06,0,0,1-9.91-33.44c-1.93-19.71,3-38,13.55-54.65,3.29-5.18,7.76-9.62,11.44-14.11-15.34,5.15-23.72,17.19-28.92,32.24-4.33,12.53-3.76,25.49-3.42,38.39.41,15.84,6.53,29.67,16,42.1a9,9,0,0,0,2.75,2.23C881.1,1415.71,886.67,1418.78,892.23,1421.88Zm74.43-10.52c21-15.88,30.05-36.79,27.33-62.94-1.44-13.8-17.27-38.38-29.21-43.51C995.78,1340.28,996.28,1375.54,966.66,1411.36Z"/><path d="M996.36,869.26c2.11,11.51-2.81,22.67-8.93,32.37s-14.14,18.74-25.18,23.92a21.38,21.38,0,0,0-3.2,1.63c-10.67,7.45-23.19,9.28-35.5,9.8-12.56.53-25.33-.73-36.72-7.43-3.51-2.06-7.2-3.8-10.73-5.82a15.11,15.11,0,0,1-4.58-3.35c-6.39-8.29-12.85-16.28-16-26.86a89.22,89.22,0,0,1-3.27-36.16,68.46,68.46,0,0,1,9.54-28.31c1.64-2.64,3.68-5,5.26-7.7,2.92-4.89,7.19-7.9,12-10.89,18.55-11.49,38.39-13.75,59.31-9.47,13.84,2.83,26.13,8.84,36.31,18.77,7.38,7.2,14,14.72,17.8,24.8A59.23,59.23,0,0,1,996.36,869.26Zm-69.82,37.41c-1-35.29-2.08-69.8-3.11-104.21-6.85-1-19.63,2-25.13,4.87A51.17,51.17,0,0,0,875,831.73c-3.77,8.19-7.6,16.71-9.12,25.48-2.61,15.15.79,29.89,6.88,44,1.61,3.73,4,5.52,8.21,5.45,10.52-.19,21.05,0,31.57,0C917,906.68,921.47,906.67,926.54,906.67Zm4.08-.11c12.77,0,24.47-.22,36.15.11,5.21.14,8.05-2.4,10-6.54,1.53-3.24,2.69-6.64,4-10,6-14.86,5.69-29.53.13-44.62-3.58-9.73-9.57-17.55-16.05-25.2-6.16-7.28-14.5-11.66-23-15.34-4.17-1.81-9.08-1.87-14.4-2.86A974.69,974.69,0,0,0,930.62,906.56ZM894.48,805.08c-7.15,3.88-13.06,7-18.86,10.3a13.39,13.39,0,0,0-3.6,3.37c-12.55,15.78-19.15,33.62-17.59,53.9a108.85,108.85,0,0,0,4,20.31c4.94,18,16.4,30,34.15,36a12,12,0,0,0-3-2.48,28.92,28.92,0,0,1-11.62-11.38c-1.55-2.69-4-5-5.07-7.81-3.63-9.56-8.09-19.06-9.86-29a63.85,63.85,0,0,1,4.18-35.88c5.82-14.14,11.78-27.75,26.17-35.36C893.48,807,893.55,806.66,894.48,805.08ZM926.84,911c-9.88-1.65-42.6-1.19-47.18.53,7.68,14.7,30.81,25.44,47.18,21.49Zm39.69,8.24c38.57-27.43,35.82-78.7-.86-103.13,12.79,14.69,22.17,30.64,22.41,51C988.32,887.72,979.37,904.12,966.53,919.26Zm-34.67-8.72c-1.53,8.81-1.2,16.74.73,21.72,13.41-.2,31.81-11.78,34.48-21.72Z"/><path d="M853.88,1111.81a71.08,71.08,0,0,1,5.31-32.32c4.22-9.88,9.67-19,20.09-25.1a85.06,85.06,0,0,1,39.55-11.34c9.34-.43,19.21,1.47,28.2,4.34a73.79,73.79,0,0,1,39.14,29c5.69,8.33,10.37,17.82,10.17,28.63a25.25,25.25,0,0,0,.11,3.59c1.71,13.21-2.64,25.07-8.56,36.4-1.83,3.5-5.4,6-7.77,9.31-8.29,11.43-20.57,17.57-33,21.88-11.05,3.83-23.14,6.36-35.29,3.62a3.7,3.7,0,0,0-.7-.16c-13.82,0-25.09-7-36.65-13.27a6.31,6.31,0,0,1-2.38-1.53c-4.43-6.79-9.87-13.2-12.84-20.59A74.87,74.87,0,0,1,853.88,1111.81ZM927,1176.94c.18-3.5.41-6.11.43-8.71.13-18.93.29-37.85.29-56.78,0-19.17-.15-38.33-.3-57.5-.07-7.87-1.68-9.11-9.53-7.72-3.53.63-7,1.4-10.56,2.06a40.86,40.86,0,0,0-22.68,12.93A67.24,67.24,0,0,0,868,1099.5c-1.4,13.32-1.27,26.74,3.7,39.69,4.88,12.73,10.59,24.63,23.69,31,1.07.52,2,1.3,3.06,1.86C907.14,1176.6,916.38,1177.88,927,1176.94Zm5.24-.78c4-.72,8-.69,11.37-2.2a70.05,70.05,0,0,0,33.3-30.45c6.3-11.46,9.4-23.87,8.19-37.29-1-11.07-5-21-10.75-30a69.64,69.64,0,0,0-26.64-24.51,32.31,32.31,0,0,0-15.51-4C930.31,1055,930.18,1166.38,932.2,1176.16Zm-41.92-5.5c-7.54-2.78-10.58-9.47-14.21-15.63-.72-1.24-1.47-2.47-2.23-3.68a62.46,62.46,0,0,1-8.63-26.37c-1.67-15.23-1.34-30.66,5.06-45.11,4.75-10.73,9.76-21.39,21-27.23a18.56,18.56,0,0,0,2.69-2.12c-4.77,1.7-8.91,4.06-13.19,6.15-10.47,5.09-15.84,14.62-19.47,24.65-6.48,18-6.52,36.52-1.8,55C863.72,1153.05,873,1165.44,890.28,1170.66Zm75.2-110.13c2.55,3.15,5.15,6.26,7.64,9.45,9.85,12.62,15.63,26.67,14.79,43-.23,4.51.22,9.32-1.18,13.47-3.74,11.06-7.63,22.18-16.37,30.67-1.83,1.78-3.14,4.08-4.7,6.14C1002.36,1137.84,1005.46,1088,965.48,1060.53Z"/><path d="M919.58,1492c9.16-2.63,168.83-2.59,180.05-.33C1094.23,1493.12,931.84,1493.56,919.58,1492Z"/><path d="M859.8,1492.34c9.74-1.68,19.29-2.9,28.79,0Z"/><path d="M832.09,1492.28h-23.4C816.46,1489.27,824.23,1490.66,832.09,1492.28Z"/><path d="M787.37,1492.39H773.65l-.06-1.33,13.65-.69C787.28,1491,787.32,1491.71,787.37,1492.39Z"/><path d="M777.09,747.13l-4.84.26,0-1.21H777Z"/><path class="cls-1" d="M925.33,1338v87.71c-1.82.49-3.25,1.34-4.49,1.12-5.88-1-12.12-1.42-17.46-3.79-8.68-3.84-16.78-8.73-22.43-17.13a85.65,85.65,0,0,1-13.24-33.85c-1.88-11.14-2.6-22.83,2.21-34.06Z"/><path class="cls-1" d="M929.55,1425.62c-2.09-15.41-1.28-81.72,1.18-87.95h9.72c11.74,0,23.48,0,35.23.06,5.82,0,6.4.5,8.15,5.88a19.25,19.25,0,0,1,.83,3.49c2.17,19.57-1.88,37.31-13.87,53.42-6.66,8.93-15,15.23-24.28,20.8a15.75,15.75,0,0,1-4.56,2C938,1424.18,934,1424.8,929.55,1425.62Z"/><path class="cls-1" d="M927,1291.92c.44,12.66.86,24.92,1.28,37.19h1.76q.63-18.09,1.26-36.1c17.67-.69,43,20.26,46.68,38-5.26,1.88-85.54,2.65-105,1C874.48,1307.6,902,1287.2,927,1291.92Z"/><path class="cls-1" d="M892.23,1421.88c-5.56-3.1-11.13-6.17-16.67-9.32a9,9,0,0,1-2.75-2.23c-9.52-12.43-15.64-26.26-16-42.1-.34-12.9-.91-25.86,3.42-38.39,5.2-15,13.58-27.09,28.92-32.24-3.68,4.49-8.15,8.93-11.44,14.11-10.57,16.64-15.48,34.94-13.55,54.65A93.06,93.06,0,0,0,874,1399.8C878.45,1408.46,883.87,1416.11,892.23,1421.88Z"/><path class="cls-1" d="M966.66,1411.36c29.62-35.82,29.12-71.08-1.88-106.45,11.94,5.13,27.77,29.71,29.21,43.51C996.71,1374.57,987.64,1395.48,966.66,1411.36Z"/><path class="cls-1" d="M926.54,906.67c-5.07,0-9.56,0-14,0-10.52,0-21-.21-31.57,0-4.25.07-6.6-1.72-8.21-5.45-6.09-14.09-9.49-28.83-6.88-44,1.52-8.77,5.35-17.29,9.12-25.48a51.17,51.17,0,0,1,23.35-24.4c5.5-2.89,18.28-5.89,25.13-4.87C924.46,836.87,925.49,871.38,926.54,906.67Z"/><path class="cls-1" d="M930.62,906.56a974.69,974.69,0,0,1-3.13-104.42c5.32,1,10.23,1.05,14.4,2.86,8.52,3.68,16.86,8.06,23,15.34,6.48,7.65,12.47,15.47,16.05,25.2,5.56,15.09,5.89,29.76-.13,44.62-1.35,3.33-2.51,6.73-4,10-2,4.14-4.81,6.68-10,6.54C955.09,906.34,943.39,906.56,930.62,906.56Z"/><path class="cls-1" d="M894.48,805.08c-.93,1.58-1,1.88-1.17,2-14.39,7.61-20.35,21.22-26.17,35.36A63.85,63.85,0,0,0,863,878.3c1.77,9.94,6.23,19.44,9.86,29,1.07,2.83,3.52,5.12,5.07,7.81a28.92,28.92,0,0,0,11.62,11.38,12,12,0,0,1,3,2.48c-17.75-6-29.21-18-34.15-36a108.85,108.85,0,0,1-4-20.31c-1.56-20.28,5-38.12,17.59-53.9a13.39,13.39,0,0,1,3.6-3.37C881.42,812.07,887.33,809,894.48,805.08Z"/><path class="cls-1" d="M926.84,911v22c-16.37,4-39.5-6.79-47.18-21.49C884.24,909.83,917,909.37,926.84,911Z"/><path class="cls-1" d="M966.53,919.26c12.84-15.14,21.79-31.54,21.55-52.18-.24-20.31-9.62-36.26-22.41-51C1002.35,840.56,1005.1,891.83,966.53,919.26Z"/><path class="cls-1" d="M931.86,910.54h35.21c-2.67,9.94-21.07,21.52-34.48,21.72C930.66,927.28,930.33,919.35,931.86,910.54Z"/><path class="cls-1" d="M927,1176.94c-10.58.94-19.82-.34-28.53-4.88-1-.56-2-1.34-3.06-1.86-13.1-6.38-18.81-18.28-23.69-31-5-13-5.1-26.37-3.7-39.69a67.24,67.24,0,0,1,16.63-38.28,40.86,40.86,0,0,1,22.68-12.93c3.52-.66,7-1.43,10.56-2.06,7.85-1.39,9.46-.15,9.53,7.72.15,19.17.29,38.33.3,57.5,0,18.93-.16,37.85-.29,56.78C927.37,1170.83,927.14,1173.44,927,1176.94Z"/><path class="cls-1" d="M932.2,1176.16c-2-9.78-1.89-121.17,0-128.46a32.31,32.31,0,0,1,15.51,4,69.64,69.64,0,0,1,26.64,24.51c5.79,9.06,9.75,19,10.75,30,1.21,13.42-1.89,25.83-8.19,37.29a70.05,70.05,0,0,1-33.3,30.45C940.24,1175.47,936.21,1175.44,932.2,1176.16Z"/><path class="cls-1" d="M890.28,1170.66c-17.31-5.22-26.56-17.61-30.81-34.31-4.72-18.51-4.68-37.08,1.8-55,3.63-10,9-19.56,19.47-24.65,4.28-2.09,8.42-4.45,13.19-6.15a18.56,18.56,0,0,1-2.69,2.12c-11.21,5.84-16.22,16.5-21,27.23-6.4,14.45-6.73,29.88-5.06,45.11a62.46,62.46,0,0,0,8.63,26.37c.76,1.21,1.51,2.44,2.23,3.68C879.7,1161.19,882.74,1167.88,890.28,1170.66Z"/><path class="cls-1" d="M965.48,1060.53c40,27.48,36.88,77.31.18,102.7,1.56-2.06,2.87-4.36,4.7-6.14,8.74-8.49,12.63-19.61,16.37-30.67,1.4-4.15.95-9,1.18-13.47.84-16.3-4.94-30.35-14.79-43C970.63,1066.79,968,1063.68,965.48,1060.53Z"/></svg>