<svg id="Layer_1" data-name="Layer 1" xmlns="http://www.w3.org/2000/svg" viewBox="0 0 2000 2000"><defs><style>.cls-1{fill:#1d1d1b;}</style></defs><path class="cls-1" d="M1180.59,753.33c-4.91,13.65-11,27-20.28,38.83,2.29,2.57,4.13,5.15,6.46,7.13,3.7,3.14,3.53,6.71,2,10.65-.42,1.07-1,2-1.55,3.08-2.1,4.22-2.11,4.23,1,7.56,8.33,8.84,16.56,17.78,25.08,26.45,2.68,2.73,3,5.19,1.27,8.32-1.24,2.27-2.37,4.6-3.62,7,1.88,2.09,3.58,4.08,5.37,6,13.33,14.07,26.72,28.08,40,42.23,2.2,2.35,5.71,4.3,4.5,8.58-.07.23.17.65.38.87,3,3,4.88,6.92,8.9,8.94,1.26.63,2.77,2.3,2.82,3.54.12,3.53-.45,7.09-.8,11.31-3.77,0-7,0-10.28,0a4.28,4.28,0,0,1-3.6-2c-2.76-3.4-5.81-6.58-8.84-9.75a3.71,3.71,0,0,0-2.53-1.24c-2.58.25-3.8-1.47-5.27-3q-21.81-23.12-43.67-46.16c-1.2-1.26-2.49-2.43-3.62-3.53-5.79,3.32-6,3.37-9.19,2.41,4.31-5.52,11.09-8.19,15.48-13.55s10.36-9.52,13.24-16.43l-29.72-31.36-30.93,29.09c1.41,1.64,2.73,3.3,4.18,4.83,7.55,8,15.15,16,22.7,24,1.15,1.22,2.69,2.27,2.85,5.54-11.65-11.09-21.28-22.61-32-33.12-3.95,3.3-8.46,3.19-12.86,3.23-1.08,0-2.33-.92-3.23-1.73-2.16-1.92-4.16-4-6.21-6.06l-8.22,5.19c2.19,3.69,0,6.09-2,8.59-.61.77-1.09,1.66-1.77,2.36-2.69,2.77-3.42,6-3.43,9.86,0,15.4-.13,15.4-6.14,29.43-1.17,2.71-2.37,5.41-3.53,8.12-1.8,4.2-3.59,8.41-5.61,13.14a50.39,50.39,0,0,0,5.16.8c12,.49,24,.9,35.93,1.37,2.3.1,4.59.3,6.87.57.94.11,2.15.22,2.71.83,3.29,3.53,7,6.55,6.91,12.36q-1,43.09-1.5,86.21a20.62,20.62,0,0,1-5,13.9c-2.16,2.57-4.32,3.63-7.49,3.52-11.33-.36-22.65-.64-34-.94-1.58,0-3.16,0-4.87,0a23.18,23.18,0,0,0-.22,3.4c.73,8,1.47,16,2.29,24,1,9.8,1.8,19.54.11,29.42-4.09,23.83-5.73,47.92-6.27,72.06-.48,21-.48,42-.35,63.07a226.62,226.62,0,0,0,1.69,24.54c1.81,15.64,4.35,31.21,6,46.88,2.74,26.69,2.25,53.43,1.09,80.21-.91,20.83-.67,41.71-.93,62.56a5.83,5.83,0,0,0,.52,1.34c.51-1.17.92-2,1.22-2.86,2.86-8.21,5.67-16.44,8.55-24.64,1.43-4.08,3.34-5.51,7.59-5.64,4.6-.15,9.2-.26,13.8-.23,10.34.08,20.7,0,31,.49,6.37.29,8-.29,10.33,8.57,2.33,9.06,5.4,18,7,27.17,2.51,14.69,3.49,20.47-7.78,30.07a33.18,33.18,0,0,0-2.44,2.45c-2,2.12-3.94,4.25-6,6.44,3.39,4.87,6.28,9.47,9.63,13.71,2.84,3.59,3.67,7.43,3.56,11.87-.49,19.21-.78,38.43-1.18,57.64a39.79,39.79,0,0,1-.56,6.37c-1,5.46-3.76,7.69-9.33,7.83-2,0-3.94.06-5.91,0-6.71-.24-13.42-.51-20.16-.77-.91,1.9-1.52,3.64-4,4-1.37.2-2.77,1.6-3.74,2.8a50.8,50.8,0,0,0-4,6.18c-4.23,7.27-11.49,9.78-19,10.52-9.93,1-20,.77-30,.73-19.06-.08-38.11-.37-57.16-.64-16.74-.24-33.49-.41-50.23-.89-22.32-.64-44.63-1.52-66.95-2.37-4.41-.17-8.86-.38-12.67-3.15-.4-.29-1.09-.18-2.18-.32,4.44,8.89,8.56,17.28,12.83,25.58a18.1,18.1,0,0,1,2.12,9.47c-.44,8.36-.77,16.73-1.2,25.09a15,15,0,0,1-.62,2.71c-6.35,0-12.4-.06-18.44,0-3.9.06-7.33-.63-10.38-3.44-2.44-2.26-3.06-1.92-5.47.66a7.65,7.65,0,0,1-1.71.89c-.15-1.91-.36-3.5-.37-5.09-.07-6.73-.27-13.47,0-20.2a21.07,21.07,0,0,0-2.33-10.83c-7.35-14.3-14.43-28.75-21.66-43.12a37,37,0,0,1-3.86-18.9c.25-4.92.4-9.85.48-14.77.18-10.51.24-21,.42-31.54q.93-55.17,1.94-110.35c.15-7.76-2.87-14.66-4.61-21.87l-8.68-.69c1.55-6.9,3-13.23,4.35-19.41l8.35-1.27c1.3-5.1,3.26-9.74,3.58-14.93l-7.31-1.26c1.57-6.21,3-12,4.57-18.11h7.95c.84-4.24,1.62-8.18,2.44-12.3l-6.89-1.73V1317l5.51-1.33-4.65-2.57h6.35c2.77,3.55,2.8,7.07,2,10.72a71.37,71.37,0,0,0-1.65,7.7c-.48,4.12-2.93,5.91-6.68,6.71-4.36.94-4.34,1-4.57,5.75,4.72,1.19,6.7,4,6.1,8.7a10,10,0,0,1-.28,1.45c-1.17,4.27-2.49,8.51-3.51,12.82-.74,3.12-2.7,4.72-5.58,5.54-1.24.34-2.48.7-3.88,1.1-.47,2.3-.92,4.48-1.4,6.82l4.28.85c1,3.76,2.44,6.92,7.15,7.22.82-3.39,1.61-6.72,2.43-10,4.21-17,8.55-34.05,12.61-51.13,3.46-14.57,4.78-29.45,5.94-44.36,1.54-19.85,2.43-39.73.16-59.52-2.31-20.2-5.69-40.28-8.65-60.41-.25-1.73-.28-3.82-2.62-4.23s-4.41-.9-6.3,1.34c-1.06,1.27-2.89,1.89-4.42,2.83-.16,2.11.26,3.57,2.9,4.14,3.6.79,5.57,3.73,6,7.28s1.05,7.12,1.75,10.65c.55,2.78.07,4.41-2.25,5.76a29,29,0,0,1-3.26,1.41c-.41,2.26.12,3.48,2.19,4,4.11,1,6.24,3.95,6.81,8,.46,3.24.94,6.5,1.16,9.77.27,4.14-1.17,5.82-5.3,6.77a7.25,7.25,0,0,0-1.42.74c.17,1.12.33,2.21.47,3.18,5.82,1.5,7.81,4.06,7.78,9.77,0,2.63-.11,5.26-.08,7.89.06,5-.46,5.71-5.55,7.62-.63.24-1,1.26-1.51,2,5.63,2,7,4,7.17,9.52,0,2.3,0,4.6-.09,6.9-.18,6.44-.69,7.13-6.85,8.8-1.35.37-2.62.59-2.39,2.56a2.57,2.57,0,0,0,.65.53c2.18.86,5.16.52,5.86,3.65a42.5,42.5,0,0,1,1.21,7.13,62.84,62.84,0,0,1-.45,7.37c-.49,7.1-3.4,9.06-10.81,6.92-.07-1.44-.14-3-.22-4.79l7.69-1c.41-4.1.8-8,1.2-12l-7.71-1.61c.26-4.87.52-9.7.79-14.72l7.87-.94v-10.93l-7-1V1244l7.84-1.23-.87-10.94-7.63-1.4c.2-4.15.37-7.68.54-11.38l4.49-1a4.86,4.86,0,0,0-2.62-1.45l-2.88-.79.11-.83,6.79-1c-.55-4-1.06-7.58-1.55-11.06l-7.6-1.4c-.29-4.34-.55-8.2-.81-12.09l4.38-.89a6.3,6.3,0,0,0-2.87-1.3c-1-.26-1.92-.57-2.87-.85l.06-.85,7-1c-.66-3.92-1.27-7.54-1.84-11l-8.12-1.3-2.76-16.54,8.63-.68c1.4-2.89,2.61-5.58,4-8.18,2.75-5.21,4.69-10.43,4.71-16.6,0-8.35,1.22-16.69,1.94-25,1.13-13.08,2.32-26.16,3.41-39.25.89-10.63,1.78-21.27,2.42-31.92.15-2.34-.05-5.18-1.25-7-5.58-8.69-8.35-18.51-12-28a16.12,16.12,0,0,1-.1-12c3.65-9.14,7.5-18.21,11.18-27.34a9.58,9.58,0,0,1,5.27-5.47c6.13-2.74,12.18-5.67,18.48-8.63.2-4.49.39-9.24.64-14,.06-1.14-.13-2.66.51-3.33,3.87-4.07,7-9.22,13.87-8.86,6.56.34,13.13.39,19.7.51,1.7,0,3.41-.17,5.56-.29-2.54-6.45-4.47-12.39-7.14-18a65.74,65.74,0,0,1-6.64-34.3,13.57,13.57,0,0,0-3.93-11.16c-2.7-2.78-4.88-5.82-2.26-10.16-3.32-2.25-6.38-4.31-9.45-6.4a40.35,40.35,0,0,0-4.36,4c-3.68,4.54-8.36,4.75-13.39,3.22a35.4,35.4,0,0,1-5.29-2.66c-1.42,1.25-2.81,2.39-4.11,3.63-8.39,8.1-16.84,16.13-25.08,24.38-2.79,2.8-5.58,3.07-8.88,1.55-1.92-.89-3.79-1.88-6.05-3-2.07,1.91-4.26,3.85-6.36,5.88-13.56,13.15-27.06,26.36-40.7,39.43-2.2,2.1-4,5.38-8,4.54-.37-.08-.93.36-1.28.68-2.88,2.68-6.62,4.91-8.4,8.2-2.28,4.24-5.22,4.32-9,3.78-1.93-.28-3.85-.59-6.22-1l-.73-8.84c-.24-2.93,1-4.4,3.64-6.1,4.2-2.75,9.75-5.09,9.14-11.89-.07-.7,1-1.6,1.7-2.26q20.33-19.74,40.67-39.45c3.17-3.08,6.17-6.32,9.25-9.49-1.14-2.91-2-5.57-3.22-8.06-1.44-3-.78-5.06,1.61-7.33,9-8.61,17.8-17.5,26.84-26.11,2.05-2,2.37-3.51,1.13-6-1-2-1.45-4.33-2.26-6.47-1.12-3-.44-5.23,2-7.4,2.79-2.46,5.19-5.38,8-8.33-16.06-23.64-22.93-50.14-27.15-77.6-1.86,0-3.17.07-4.47,0-10.92-.65-9,2-16.09-8.83-1.65-2.51-3.51-3.33-6.43-3.36-15.27-.16-30.54-.5-45.81-.86-1.57,0-3.56-.14-4.61-1.06-2.75-2.41-5.84-2.45-8.78-1.46-6.82,2.32-9.72-2.15-10.95-7.74-1-4.4,3.13-10.35,7-10.2s7.94,1,12.51,1.58l-3,6.85c-.47-2.34-.68-3.4-.93-4.67-2,0-3.75,0-5.54,0a3.38,3.38,0,0,0-3.35,2.37c-1.88,4.11,0,7.8,4.56,8.68,3.67.72,7.87-.33,10.72,3.32.4.51,1.88.21,2.87.22q21.44.19,42.87.37c1.75,0,3.5-.16,4.63-.21,1.51-1.87.28-4.23,3.17-5.25-.85,6.49,3.11,10.69,6.31,15.16a6.32,6.32,0,0,0,3.79,2.62c3.7.36,7.47.12,11.25.12V687.77c-3.2-1.82-3.2-1.82-6.67-1.73-4.69.1-7.33-1.67-9-6.1-.51-1.37-.91-2.78-1.58-4.81-19.69-1.54-39.58-1.59-60.29-1.68,2-2.45,3.94-2.05,5.62-2.05,13,0,26-.37,38.92.33,7.52.41,13-1.39,16.49-8.21,1.72-3.35,4.77-4.2,8.31-4,2.74.12,5.48,0,8.11,0,10.78-54.82,14.59-53.09,31.61-84.64-2.4-2.53-4.71-5.32-7.38-7.71-3.05-2.73-3.29-5.83-2-9.34a33,33,0,0,1,1.78-4c2.22-4.19,2.31-4.25-.87-7.66-4.7-5-9.52-10-14.25-15s-9.38-10-14.17-15.15L806,504.19c-.69-.82-1.49-1.83-2.37-2.76Q781.3,477.79,759,454.14c-1.08-1.14-2.54-2.61-2.56-3.95-.1-5.95-5.2-8.26-8.2-12.08-4.26-.42-4.11-3.5-3.91-6.55.19-2.74.51-5.47.81-8.63,4-.09,7.56-.33,11.12-.15,1,.05,2.14,1.18,2.92,2.06,2.82,3.16,5.48,6.45,8.27,9.62.5.58,1.44,1.27,2,1.16,3-.58,4.48,1.62,6.12,3.35q19.53,20.52,39,41.11c2.79,3,5.52,6,8,8.66,2.45-1.18,4.08-1.95,5.68-2.75,4-2,7.26-1.45,10.43,2.12,6.43,7.24,13.22,14.16,19.9,21.17,2.46,2.59,5,5.06,6.87,6.9,4.32-.86,7.65-1.46,10.95-2.19a6.15,6.15,0,0,1,6.56,2.17c2,2.31,4.29,4.38,6.57,6.68a184.13,184.13,0,0,1,39.27-20.33c-1-2.88-.4-5,2-6.18,3.9-1.85,4.2-5,3.71-8.68q-2.07-15.36-4.07-30.74a30.84,30.84,0,0,1,0-4.08,5.41,5.41,0,0,1,2.48,3c1.55,4.5,2.94,9.06,4.52,13.55,2,5.72,4.13,11.41,6.26,17.1.87,2.33,2.07,4.42,4.73,5.23,2.37.72,4.69,1.62,7.63,2.65a22.93,22.93,0,0,0,0-3.71c-1.59-10.89-3.28-21.75-4.87-32.63-.59-4-1.7-8.15,1.31-11.71a21.86,21.86,0,0,1-1.73-3.75c-1.62-6.73,2.15-11.43,8-11.09a30.55,30.55,0,0,0,3.45,0,5.55,5.55,0,0,1,6,4.23c.74,2.72-.12,5.93.81,8.54,1,2.8,4.09,4.74,3.93,8.23a2.63,2.63,0,0,0,.06.48c1.28,8.44,2.54,16.88,3.86,25.31a23.2,23.2,0,0,0,1.06,3.35c2.24-7.89,1.39-15.74,1.81-23.51.43-8,.54-16,.8-24.53l11.66-3.17c.06-1.34.16-2.79.19-4.24q.66-31.77,1.33-63.55c.08-3.15-.7-6.64,2.72-8.84a1.79,1.79,0,0,0,.43-1.36c-.09-4.22-.34-8.44-.32-12.65,0-1.52.1-3.49,1-4.47a103.92,103.92,0,0,1,8.08-7.22c2.86,2.59,5.51,4.59,7.61,7.06,1,1.16,1.28,3.22,1.26,4.87,0,2.21-.82,4.4-1,6.63-.26,3.38-.26,6.77-.38,10.46H996.56c-1.3,4.81-2.23,69.28-1,73.73,5.55.17,11.19.61,17.11-.28.14-2.17.31-3.94.36-5.72.15-5.41.3-10.83.37-16.25.23-16.1.41-32.19.65-48.29,0-1.45-.52-3.13,1.41-4.22,1.48,25.09-.58,50.17-.18,75.23,1.8.2,2.94.27,4.07.45,6.32,1,7.64,2.54,7.71,8.91,0,1.15,0,2.3,0,3.45-.25,11.16-.53,22.33-.75,33.49,0,1.56.18,3.12.28,4.69a6.42,6.42,0,0,0,2-3.8c2-10.81,4-21.63,6.09-32.42a12.12,12.12,0,0,1,2.4-5.19c1.78-2.15,3-4.11,2.25-7.09a5.94,5.94,0,0,1,1.78-5.84c3-2.91,9.28-3.41,13.18-.81s4.54,5.58,2.4,10.71c-.59,1.4-1.27,3.41-.69,4.51,1.54,3,.8,5.82.33,8.67-1,6-2.26,11.93-3.36,17.9-1.34,7.24-2.62,14.5-3.93,21.8a40.81,40.81,0,0,0,3.63,2.89c2.53,1.55,3.69,1.4,5.4-1a26.33,26.33,0,0,0,3.08-5.57c3.67-9.14,7.19-18.32,10.8-27.48.55-1.39.71-3.13,2.91-4a19.94,19.94,0,0,1,0,3.15c-1.23,6.78-2.65,13.53-3.76,20.33-.79,4.85-1.24,9.76-1.73,14.65-.16,1.65,0,3.28,1.79,4.25a7.69,7.69,0,0,1,4.37,6.88c14.71,5.65,26.28,16,40.52,23.7,1.88-2.23,3.81-4.47,5.69-6.75,1.6-1.94,3.68-2.52,6.11-2.57,4.82-.12,9,1.26,12.37,5.15l33.67-32.74,8.27,5.53c5.22-5,10.22-9.73,15.15-14.53,10.72-10.42,21.29-21,32.15-31.25,2.52-2.38,4.37-6.53,9.13-5.41.23.05.61-.25.83-.47a120.21,120.21,0,0,0,8.57-9.23c1.23-1.58,2.38-2.56,4.26-2.78,9.88-1.18,11.78.58,11.37,10.54,0,.49.12,1.08-.09,1.46-.61,1.07-1.14,2.47-2.11,3-5.21,2.87-9.82,6-10.52,12.69-.1.94-1.21,1.87-2,2.65q-20.49,19.92-41,39.8c-3,2.95-5.89,6.07-8.66,8.92,1.13,2.87,1.85,5.25,3,7.43,1.68,3.25,1.19,5.68-1.59,8.18-4.64,4.16-9,8.61-13.43,13-5.07,5.12-10,10.35-15.2,15.71,1,2.83,2,5.92,3.12,9,1.23,3.31.53,5.85-2.2,8.26-3,2.68-5.68,5.81-8.45,8.71,15.79,24.76,24.05,51.58,27,80.38a63.18,63.18,0,0,0,7.18,0c7.09-.85,12.51,1.33,15.46,8.16,1.56,3.62,4.41,4.12,8,4.12,14.62,0,29.24.26,43.85.51,1.75,0,3.91.05,5.17,1,3.22,2.45,6.39,2.59,10.06,1.39,3.45-1.13,5.54-.26,7.59,2.78a25,25,0,0,1,1.75,3.51c2,4.22-.65,7.21-2.82,10.27-1.9,2.7-4.49,1.93-7.13,1.35-3.36-.75-6.72-1.29-9.82,1.23-.86.7-2.51.55-3.8.58-13.13.22-26.27.39-39.41.6-3.6.06-7.62-.75-10.69.59-2.67,1.17-4.35,4.73-6.29,7.37a7.45,7.45,0,0,1-6.62,3.38c-4.24,0-8.47.48-13.43.8C1189.81,725.94,1185.44,739.83,1180.59,753.33ZM995.17,536.89c2.2,4.9,4.5,9.76,6.78,14.7,2.54-.94,3-2.29,2-4.31-1.82-3.85-3.54-7.75-5.36-11.6a6.59,6.59,0,0,1-.25-6.13l9.19-9.3c-3.36,2.83-7.59,4.86-9.08,9.41C993.93,531.84,993.39,532.92,995.17,536.89Zm.47,300.75-3.85-5.25c-1.83-1.74-1.07-3.65-.23-5.4,2.2-4.59,4.51-9.12,6.83-13.64a8.12,8.12,0,0,1,5.26-4.13c5.34-1.57,10.72-3.07,16-5a17.55,17.55,0,0,1,13.78.46c5.38,2.38,10.93,4.39,16.6,6.63l2.19-2.68c-.53-.48-.84-.92-1.26-1.09-6.54-2.63-13.11-5.2-19.64-7.86a11.27,11.27,0,0,0-8.12-.48q-10.75,3.51-21.62,6.67a9.09,9.09,0,0,0-6.13,5.18c-2.29,4.91-4.86,9.68-7.14,14.6-1.65,3.56-.66,5.16,3.63,6.59C991.19,835.34,994,836.11,995.64,837.64ZM942.48,848.9c3.69,3.89,7.25,7.9,11,12.07,1.4-1.31,1.37-2.4.35-3.48-3.91-4.13-7.86-8.23-11.7-12.24l-3.55.81a10.35,10.35,0,0,0-1.13-2.08c-11-11.47-19-24.86-25.82-39.18-8.4-17.76-13.75-36.45-17.59-55.59-1.61-8-2.32-16.22-3.47-24.33-.16-1.1-.51-2.16-.81-3.41-2.62.67-2.63,2.32-2.37,4.22,2.36,17.21,5.2,34.27,10,51.07,4,14.15,10.14,27.32,16.27,40.5,3.28,7.06,8.23,13.39,12.75,19.82,3.08,4.38,6.71,8.36,10.62,13.16.8-2,1.24-3.11,1.68-4.21A27.63,27.63,0,0,1,942.48,848.9ZM766.76,914.72,801,881.38c4.92-4.81,9.86-9.61,14.9-14.52-2.29-4.51-5.71-7.4-9.75-10.7L754,906.85l7.45,10.76-10.16-8.37-10,9.76,7.76,8.28c2.85-2.56,5.53-5.1,8.38-7.46a23.73,23.73,0,0,1,4-2.24C763.81,917.74,765.26,916.19,766.76,914.72ZM1087,1565.05c8.32.5,16.65.88,25,1.3,0-.76,0-.93-.06-1.09s-.1-.37-.16-.37q-13.71-.57-27.44-1.08c.94-.52,1.9-1.54,2.88-1.55,9-.12,18-.07,27.25-.07,1.36,7.43-1.66,15.19,4.37,21.44h16.19c.17-.74.35-1.49.51-2.22.39-.05.8-.24,1-.12,5.55,3.45,11.81,3.29,18,3.46,2.52.07,2.91-2.1,3.55-4.11-5-1-10.07.31-14.82-1.63-.33-4.32-.87-8.42.84-12.48,1.87,3.21.32,6.86,1.42,10.48,4.21,1.94,8.79.5,14,1.1.5-22.69,1-44.93,1.49-67.56-6.7-.79-12.92-2-19.54.06-1.9,18.56-.37,37.4-2,56.09l-1.08.11a33.42,33.42,0,0,1-.41-3.83q.29-20.45.64-40.89c0-2.79,0-5.58.21-8.37a10.94,10.94,0,0,0-2.32-7.29c-4.21-5.84-8.21-11.84-12.54-18.13,1.46-1.57,2.75-3,4.06-4.38,2.82-3,5.32-6.38,8.52-8.88,7.77-6,7.54-14.15,5.86-22.29-2-9.46-4.8-18.75-7.3-28.1-1-3.84-1.49-4.13-5.41-4.35-3.76-.21-7.53-.47-11.29-.75-.27,0-.53-.31-1.72-1.06,5.72-.64,10.64-1.29,15.5-.53,2.44.38,4.06,2.71,4.73,5.24,2.7,10.14,5.57,20.25,7.9,30.48.82,3.6.25,7.51.34,11.28,0,2.19.07,2.19,2.53,3.41.56-6.54,1.52-12.83-.54-19.41-3.27-10.47-5.68-21.21-8.53-32.11h-36.84c-7,11.22-9.83,24.23-14.06,36.65-1.46,4.29-.62,9.41-.52,14.15,0,1.11,1.16,2.32,2,3.25,10.32,11.11,18.86,23.57,27.39,36a31.9,31.9,0,0,1,2,3.36c.2.38,0,.94,0,1.82h-33.26V1522l30,1a164.25,164.25,0,0,1-.54,28.7H1085a28.18,28.18,0,0,0-.52,12C1085.3,1564.21,1086.14,1565,1087,1565.05ZM894.81,1358.11c.82-5,2.37-9.86,3.65-15l-5.63-1.48c0-.29-.05-.58-.08-.88l5.71-1.71c-.73-3.86-1.46-7.79-2.22-11.87l-9.93-1.32c1.18-2.81,3.08-1.77,4.55-1.9s3.23,0,5.34,0c6.58-38.77,8.71-77.2,2.94-116.08l-10.44-1.69c3.67-2.88,7.18-.64,10.7-2.15.5-1.54,1.19-3.5,1.76-5.51s.9-3.78,1.38-5.81c-2.78-1.39-4.44-.67-5.6,1.93-1.06,2.39-2.27,4.74-3.52,7a11.44,11.44,0,0,1-1.79,2l-.93-.48c2.17-5.37,4.35-10.74,6.57-16.24,1.65.29,1.63,4.62,5.33,1.59,0-4.24-1.26-9.08-2.08-13.26-10-3.45-19.42-6.7-28.84-10a17,17,0,0,1-8.48-6.28c4.17-1.34,15.8-1.2,22.62.21,1.82,7.16,9.13,7.38,14.33,11.74.43-4.81,0-8.54-2.2-11.86s-4.66-6.76-7.18-10a9.93,9.93,0,0,1-2.14-7.31c.82-9.66,1.52-19.32,2.31-29q2.28-28.23,4.62-56.46c.19-2.27.4-4.54.63-7.18-9.77-1.94-19.56-1.19-29.62-1.33-.23,1.42-.47,2.48-.56,3.56q-2.68,32.14-5.33,64.3c-.67,8.18-1.43,16.36-2,24.55a17,17,0,0,1-2.76,8.24c-2.1,3.32-5,6.62-5.63,10.24-.65,4,.9,8.39,1.58,12.6.73,4.53,1.61,9,2.31,13.59a6.16,6.16,0,0,1-.9,4.3,24.77,24.77,0,0,1-1.07-3.4c-1.34-7.77-2.63-15.54-3.92-23.31-.28-1.63-.31-3.49-3.47-2.71.31,2.3.6,4.67.93,7,2.72,19,5.75,38,8.07,57,1.67,13.7,1.53,27.53.89,41.34-1,21.67-2.47,43.3-7.38,64.49-3.74,16.14-8,32.17-12,48.25-.8,3.18-1.56,6.38-2.3,9.57-.3,1.32-.47,2.64,1.77,3.12,2.84-5,2.25-11.26,5.71-16.3a13.27,13.27,0,0,1,.13,3c-.55,2.9-1.2,5.79-1.94,8.65-1,3.87-1.61,7.7,0,11.57a7.41,7.41,0,0,1,0,2.34c-3.44-1.31-1.65-5.85-5.55-7.1.46,2,.76,3.51,1.15,5,.45,1.75,1.1,3.45,1.46,5.21.75,3.72,2,7,6.88,7.56-.62,38.11-1.24,76-1.86,114.34l16.05-1.07c.07-2.06.17-4,.21-5.87.5-23,1.06-46,1.43-69,.08-5.16,1-9.76,5-13.31.24-.21.39-.53.62-.76,5.28-5.29,8.9-11.25,8.28-19.13-.24-2.94,1.24-5.29,3.08-7.53,3.34-4,6.48-8.28,9.76-12.38a20.9,20.9,0,0,1,2.54-2.33l.81.74a27.27,27.27,0,0,1-1.79,3.11c-2.89,3.78-5.69,7.66-8.84,11.22-3.35,3.8-3.89,8.11-3.46,13.2h46.64c1-9,2.06-17.94,3-26.89.37-3.59.33-7.22.65-10.81.81-9.16-1.73-17.92-2.89-26.85A31.38,31.38,0,0,1,922,1347c2.82-13.5,5.36-27,6.56-40.8a43,43,0,0,0,.16-7.86c-1.35-13.71-2.47-27.48-7-40.65-.53-1.54-.88-3.16-1.4-4.71a25.1,25.1,0,0,1-.5-14c3.73-16.53,5.23-33.39,6.85-50.21.34-3.54-.49-7.18-.73-10.78-1.16-17.07-3.5-34-8.15-50.45a23.19,23.19,0,0,1-.21-11.67c1.93-8.48,3.41-17.07,5.62-25.48s.87-16.64.56-25c-.27-7.54-.85-15.08-1.54-22.6-.47-5.2-1.34-10.36-2.13-16.25-1.46,1.27-2.47,2-3.3,2.89-4.81,5.18-9.47,10.5-14.4,15.55a14.75,14.75,0,0,0-4.3,9.61q-1.58,19.63-3.26,39.26-1.76,20.86-3.52,41.71c-.06.66,0,1.33-.16,2-1,5-.12,9.3,3.55,13.11,5.71,5.92,7.78,13.36,8.81,21.37,2.44,19,5.6,38,7.76,57.07a216.89,216.89,0,0,1,.5,40.85c-1.12,14.56-2.71,29.08-4.15,43.61a56.6,56.6,0,0,1-1.12,5.6l-1.12,0a19.78,19.78,0,0,1-.22-3.42c1.15-10.77,2.53-21.52,3.51-32.31,1.78-19.5,2.13-39,0-58.52-1-8.65-2.1-17.27-3.18-25.9-.09-.73-.31-1.45-.71-3.24-2.31,5.63-3.54,10.22-2.8,15.23a287.24,287.24,0,0,1,2.8,51.09,406.47,406.47,0,0,1-5.48,57.32,33.08,33.08,0,0,0,1.54,17c1.19-4.5,2.11-8,3.09-11.67,2.17,1,1.45,2.36,1.17,3.5q-5.48,22.21-11,44.43c-.74,3-1.61,5.93-2.68,9.85-2-3.43-.48-5.78,0-8.13s1-4.65,1.8-7.9c-4.91,2.2-9,3.79-12.84,5.87-1.37.75-2.1,2.68-3.44,4.5l-1.87-3.8c-3.08,0-6.72.38-10.23-.11-3.72-.52-6.27,2.19-10,2.15,1.67-1.57,3.7-2.9,4.91-4.76s1.69-4.32,2.48-6.5l1,.27v5.28c8.43-1.32,16.31-4.47,25-6.12-.39,1.46-.62,2.35-.86,3.24-5.81-.24-10.94,2.34-17.4,3.82,7.25,1.81,12.22-1.21,17.26-3.94C891.61,1365.43,894,1362.82,894.81,1358.11Zm36.07,64.28a4.43,4.43,0,0,1,4.58,2.94,70.18,70.18,0,0,0,9,14.65,9.56,9.56,0,0,1,1.61,5.41c.13,9.68,0,19.38,0,29.07v6c2,.14,3.71.35,5.43.37,27.92.34,55.84.57,83.75,1,11.82.2,23.62.93,35.43,1.37,2.6.1,5.2,0,8.13,0,1.76-9.39,4.74-18.31,4.84-27.74.18-17.08,0-34.17.39-51.24.3-14.44,1.24-28.87,1.7-43.3a357.65,357.65,0,0,0-1.57-51.65c-2.08-18.58-5-37.08-6.76-55.69-1.21-12.72-1.52-25.58-1.47-38.37.08-21.51.47-43,1.29-64.51.75-19.69,3.34-39.22,6.06-58.73a62.93,62.93,0,0,0,.38-13.23c-.81-11-2-21.9-3-32.84-.17-1.78-.53-3.54-.87-5.7-3.75-.32-7.46-.82-11.18-.94q-23.14-.77-46.29-1.3c-5.09-.12-9.34-1.2-12.82-5.64-5.26-6.71-11.22-12.86-17-19.17a8.31,8.31,0,0,1-2.32-6.22c.13-4.75,0-9.51,0-14.82-22.6-.71-45-.55-67.52-.53-2.43,6.32-3.79,12.38-2.85,19,1.89,13.31,3.75,26.64,5.11,40,1,10.12,1.66,20.31,1.69,30.47,0,5.16-1.57,10.34-2.61,15.48-1.33,6.59-2.73,13.17-4.3,19.72a21.77,21.77,0,0,0,.11,10.67c1.55,6,3.18,12.08,4.27,18.21,1.3,7.26,2.39,14.58,3,21.92.72,9,2.33,17.89,1.36,27-1.63,15.18-3.19,30.36-6.49,45.29a22.31,22.31,0,0,0,.37,12.54c5.26,15.32,7.35,31.26,8.84,47.29a24.42,24.42,0,0,1-.06,4.91c-1.49,13.71-3.17,27.4-6.61,40.78a31.33,31.33,0,0,0,.09,15.57c4,16.14,2.26,32.3.39,48.47-.49,4.22-1,8.45-1.55,13.17C926.33,1422.2,928.6,1422.41,930.88,1422.39Zm122.15-925a74.33,74.33,0,0,1-1.34,8.12c-.4,1.45-1.36,3.35-2.58,3.88-5.22,2.28-10.51,5-16.49,2.33a16.37,16.37,0,0,0-3.26-1.07c-5.5-1.13-8.12-5.05-9.9-9.9-.94-2.56-.84-4.76,1.32-6.7a36.57,36.57,0,0,0,4.15-4.2,31.49,31.49,0,0,0,2.46-4.5h-10l-.13.59,7.31,1.12c0,.28,0,.57,0,.85l-7.42,1.12c.37,1.81.7,3.43,1.1,5.41-2.81-.25-3-2.31-3.9-4.3-1.1,7.58,1.35,13.59,4.84,19.21a8.81,8.81,0,0,0,4.21,3.08c5.15,2,10.42,3.67,15.61,6.22a36.29,36.29,0,0,1-5.74-.68c-3.15-.88-6.16-2.3-9.32-3.12a11,11,0,0,1-8.11-7.15,33.61,33.61,0,0,0-2.43-4.22c-1.16,5.91-2.12,10.8-3.07,15.69-.32,1.61-.6,3.22-.9,4.84-2.47,13.6-1.75,8.88,3.19,20.57a5,5,0,0,0,2.82,2.31c5.58,1.89,11.22,3.57,16.84,5.35a1.38,1.38,0,0,1,1,1.1c-7.69.42-14.06-3.2-21.66-5.69l-3.11,2a21,21,0,0,0,2.54,1.35c5.73,2,11.49,3.9,17.2,6a11.55,11.55,0,0,0,8.15.08c4.64-1.64,9.31-3.21,14-4.63,3-.9,4.83-2.41,5.16-5.74s1.16-6.79,1.68-10.19c.46-3-.77-5-4.24-6-.83,4.16-1.94,8.09-2.31,12.1-.44,4.67-2.82,7.13-7.17,8.13-2.42.55-4.68,2-7.23,1.87l-.36-1.07c1.84-.76,3.63-1.86,5.55-2.22,5-.91,7-3.88,7.65-8.74,1-7.14,2.58-14.2,3.86-21.31.23-1.27.23-2.58.35-4l-3.69-.18c-.09-.3-.18-.6-.26-.91l7-3.19c-.75,4.34-1.22,7.87-2,11.33-.58,2.57,0,4.4,2.22,5.88,1.77,1.17,3.33,2.66,5,4a5.49,5.49,0,0,1,2.2,6q-2.49,13-4.58,26.18a7.66,7.66,0,0,1-6,6.86c-6,1.76-11.85,3.86-17.75,5.87a15.45,15.45,0,0,1-10.58,0c-7-2.49-14-4.84-21-7.13a10.3,10.3,0,0,1-6.72-6c-2.09-4.82-4.56-9.47-6.53-14.33a14.44,14.44,0,0,1-.81-6.17,37.66,37.66,0,0,1,1.44-8.23,13.19,13.19,0,0,1,2.76-5c3.08-3.42,6.31-6.71,9.69-9.82,4.06-3.72,6.79-7.95,6.47-14.37-1.13-.33-2.59-.8-4.07-1.19-6.89-1.79-8.11-4-7.16-9.56-6.24-.38-12.37-.77-17.94,3a31.86,31.86,0,0,1-4.47,2.05c-13.09,6.06-23.45,15.55-32.45,26.54a163.64,163.64,0,0,0-19.57,29.45,246.06,246.06,0,0,0-22.8,66.29c-.73,3.87-1.51,7.73-2.24,11.6a8,8,0,0,0,.09,1.73c17.82,5.23,25.52,18.54,27.79,35.88l207.69,2.55c1-4.17,2.29-8.09,2.91-12.11.72-4.78,3.41-7.08,7.88-8.18,3.33-.81,6.46-2.45,9.81-3.17a42.58,42.58,0,0,1,9.7-.81c1.22,0,2.58,1.18,3.59,2.12a10.51,10.51,0,0,1,2.57,3.58c3,7.81,9.51,7.71,16.42,7.43a35.18,35.18,0,0,0-.45-13.74c-2-8.81-3.88-17.64-6.34-26.32-1.38-4.85-4-9.34-5.73-14.11-6-16.44-16.78-30-26.23-44.36-.16-.26-.51-.4-1.22-.94a40.81,40.81,0,0,0-4,4.68,9.12,9.12,0,0,0-1,4c-.19,2.28-.06,4.59-.24,6.87a4.19,4.19,0,0,1-3.68,4.08c-3.56.39-7.18.47-10.09-2.45s-6-6-7.13-10.37-1-4.8,2.52-8c2.58-2.38,5.08-3.53,8.3-1.33.93.64,2,1.13,3.23,1.83l8.26-4.82c-1-1.13-1.65-2-2.43-2.76-5.26-5.17-10.41-10.46-15.86-15.44a104.76,104.76,0,0,0-12.24-9.81c-9.68-6.47-19.28-13.21-29.53-18.67-7.59-4-16.13-6.29-24.3-9.19-.88-.31-2.11.34-3.18.55C1055.36,501,1056,498,1053,497.42ZM897.78,724.1c.74,4.67,1.58,9.3,2.17,14,2.17,17,6.87,33.49,12.68,49.51,5.93,16.33,13.52,32,23.8,46.24a126.48,126.48,0,0,0,16.86,19.13c1.74,1.61,3.51,2.8,6.05,2.77,13.47-.16,26.93-.22,40.4-.35a11.3,11.3,0,0,0,2-.41c.82-3.68.28-6.6-2.56-9.39-4.21-4.13-8-8.65-11.88-13.15a11.82,11.82,0,0,1-2.43-4.67,47.49,47.49,0,0,1-1.42-9.23,13.52,13.52,0,0,1,1.15-6.13c2.51-5.34,5.45-10.48,8.06-15.78a7.39,7.39,0,0,1,4.77-3.92c8-2.46,16-5,24-7.21a12.9,12.9,0,0,1,7.16.17c7,2.4,13.76,5.33,20.66,8a6.22,6.22,0,0,1,4.21,5.5q1.89,13.9,3.89,27.79a5.82,5.82,0,0,1-2.21,5.66,54.32,54.32,0,0,1-5.07,3.91c-2.52,1.63-3.6,3.6-2.61,6.6a33.44,33.44,0,0,1,.82,4.76c8.28-.38,16-2.82,23.92-3.47,8.27-.67,14.68-6.25,22.64-8.11,2.25,3.94,1.51,8.15,2.27,12.84,8.53-4.47,16.48-9.28,23.35-15.83s13.84-13,21.26-20c-3.18-2-5.9-4.08-8.93-5.48-1.17-.53-3,.39-4.57.76-1.83.43-3.63,2.45-5.48.91a57.76,57.76,0,0,1-6.06-6.34,1.83,1.83,0,0,1-.1-1.42c1.57-6.54,5.2-11.8,11.13-14.81,2.2-1.12,5.49-.47,8.19,0,1,.17,2.09,1.9,2.62,3.14a6,6,0,0,1,.32,3.87c-1.73,5.26,1.1,8.73,4.36,12.11.57.59,1.09,1.2,1.86,2,24.78-27.7,38.79-59.92,43.39-96.68-4.14-1.35-7.89-.77-11.57-.52-.89.07-1.8,1.29-2.5,2.14-1.67,2-3.21,4.16-4.82,6.23-3.49,4.49-8,5.79-13.44,3.63-4.56-1.83-9-4-13.59-5.73a6.84,6.84,0,0,1-4.67-5.73c-.8-4.52-1.83-9-2.81-13.49a27.94,27.94,0,0,0-1-2.93c-3.33-.27-6.58-.69-9.83-.79-15.59-.52-31.19-.92-46.78-1.42-20-.63-40-1.32-60-2q-32.49-1-65-2c-8.18-.25-16.37-.57-25-.88C924.46,706.07,916.16,719,897.78,724.1Zm-16.24-52.62c-2.29-.13-4.6-.22-6.89-.21-2.13,0-3.43-.82-4.84-2.59-2.84-3.58-6.28-6.67-9.43-10-1.33-1.42-2.88-1.38-4.53-.94-2.69.71-5.36,1.53-8.06,2.22a6.66,6.66,0,0,1-4.36-.18,9.58,9.58,0,0,1,2.25-1.36c4-1.1,8-1.95,11.87-3.19a8.34,8.34,0,0,0,4.33-2.74c5.37-8.13,12.16-14.15,22-16,2.35-.44,2.41-2.42,2.73-4.16,1.41-7.58,2.5-15.24,4.24-22.74s4.19-14.82,6.17-22.26c4.16-15.68,11.12-30.27,19.36-44,6.44-10.72,13.38-21.48,23.49-29.49a71.32,71.32,0,0,0,5.88-5.25A48,48,0,0,1,962.22,498a14.77,14.77,0,0,0,2.13-1.18c.11-.06.12-.29.44-1.22-4,.89-7.76,1.13-11,2.59-7.43,3.34-15.33,4.64-23.13,6.5a61.63,61.63,0,0,0-12,4.17c-9.19,4.35-18.3,8.88-26.79,15.17,1,2.65-.79,4.29-2.39,6.21-2.71,3.26-5,6.84-7.62,10.2a80.74,80.74,0,0,1-6.9,8.28c-5.39,5.28-10.82,10.58-16.63,15.38a151.79,151.79,0,0,1-16.4,11.62,15,15,0,0,0-4.65,4.09c-11.79,16.52-19.18,34.95-24.15,54.52a164.91,164.91,0,0,0-5.1,31,21.37,21.37,0,0,0,.06,2.4c0,.11.24.2.87.69.2-1,.34-1.68.57-2.83,3,0,6.06-.09,9.13,0,6.73.24,13.45.56,20.18.87a10.17,10.17,0,0,0,5.84-1.8c3-1.74,6.7-2.34,10.11-3.4a2.19,2.19,0,0,1,1,.06c2.92.51,10.32,8.53,10.44,11.57a95.42,95.42,0,0,1,0,10.83c-.1,1.51-1.08,3-1.74,4.43-.19.42-.69.69-1,1.07-7.47,9.29-12,7.5-21.86,1.75.09,3.69,1.83,5.62,5.51,6.2a19.22,19.22,0,0,1,6.58,2.63c-3.68,1.34-6.86-.4-10-1.58-3.78-1.43-4-5.66-5.86-9H808.58c-1.21,5-.23,9.91,0,14.75.5,12.72,3.31,25.18,7,37.14,4.25,13.7,9.14,27.45,17.86,39.26a8.82,8.82,0,0,0,2.67,2.73,72.62,72.62,0,0,1,20.69,15.58c4.16,4.64,8.89,8.75,13.14,13.32a40.58,40.58,0,0,1,6.12,8.19c2.29,4.19,4.41,8.43,7.84,11.84,1.77,1.76,2.75,3.64.69,6.24,8.54,5.16,15.64,11.71,25.22,14.71a43.9,43.9,0,0,0,13.86,2.25c4.38,0,8.76,0,14.05,0-.91-1.68-1.24-3-2.07-3.71-9.82-8.82-16-20.34-22.88-31.28-3.71-5.93-6-12.76-8.9-19.17-7.06-15.31-10.78-31.65-14.49-47.94-1.89-8.29-2.58-16.86-3.63-25.32-.38-3.1-1.31-4.72-4.8-5.56-7.84-1.88-13.51-7.14-17.94-13.74a44.19,44.19,0,0,0-2.87-4.58,20.65,20.65,0,0,0-3.74-2.73c.92-2,2.5-1.39,3.9-1.32,7.05.36,14.1.65,21.14,1.1a9.67,9.67,0,0,0,8-2.77c10.54-10.39,8.93-6.31,9.21-20.57,0-1.6-.14-3.2-.24-5.15C892.6,672.17,887.07,671.8,881.54,671.48Zm-8.24,911.34c19.71.19,39.42.23,59.12.39,34,.3,68,.5,102,1,18.71.29,37.41,1.11,56.12,1.8,4.9.18,9.78,1,14.68,1.16a95.61,95.61,0,0,0,16.62-.71l-4.79-.75a27,27,0,0,1-4.63-17.44c-3.4,0-6.33.1-9.25,0-5.08-.19-10.16-.64-15.24-.72-3,0-4.86-1.48-5.55-4a21.22,21.22,0,0,1,.35-13.52c.44-1.14,1.56-2,2.32-2.94,1.25.9,2.25,2.23,3.28,2.25a185.27,185.27,0,0,0,23.54-.72c-3.45,0-6.91.14-10.36,0s-7,.49-10.17-1.42c7-1.06,13.93-.65,20.8-.87,1.21-3.64,1.39-11.18.39-16.94-1.3-.11-2.71-.26-4.13-.33-6.72-.32-13.44-.59-20.16-1-2.87-.15-5-1.6-5.11-4.25-.31-5.32-1.29-10.77,1.47-16.18-11.07-1.85-22.29-.7-33.25-2.68,6.53-1.44,13.09-.64,19.62-.55,6.73.1,13.46.43,20.18.7s13.42.6,20.31.91c-.71-4.53-3.36-7.69-5.78-10.91a5.23,5.23,0,0,0-3.32-1.49c-2.44-.27-4.92-.12-7.38-.3a22.37,22.37,0,0,1-3.55-.79l.06-1h11.12c-2.49-3.43-4.5-5.2-8.25-5.3-17.55-.49-35.09-1.6-52.65-1.9-31.85-.55-63.71-.69-95.56-1-1.31,0-2.61.11-4.35.2-.57,1.57-1.15,3.19-2,5.44,2.19.1,3.9.27,5.6.25,19.71-.2,39.42-.7,59.12-.57,20,.14,40,.91,60.08,1.4,5.41.13,10.84.19,16.25.42,2,.08,4,.53,6,.81,0,.34-.05.69-.07,1a23.1,23.1,0,0,1-3.58.36c-39.23-2-78.48-1.44-117.73-1.18-7.88,0-15.77-.22-23.65-.11a10.34,10.34,0,0,1-7.51-2.85c-7.2-6.39-7.3-6.33-7.14-15.75q.22-12.81.67-25.61c.11-2.94-.42-5.41-2.6-7.61-2.54-2.55-4.31-6.27-7.29-7.85-2.78-1.48-6.7-1-10.13-1.07q-16-.23-32-.12c-1.27,0-2.55,1-3.78,1.69-.41.21-.63.75-1,1.07-5.95,5.1-8.51,11.25-8.1,19.37.51,10.3-.31,20.68-.63,31-.08,2.69-.06,5.21-1.55,7.93-1.38,2.5-.8,6.08-1.08,9.18,4.86,6.44.77,13.73,1.92,20.52.11.64.19,1.28.34,2.35,10.24,1.44,20.48,1,30.91,1,.2-1.47.4-2.57.5-3.68.24-2.55-.23-5.34,3.1-6.55.59-.22,1-1.64,1-2.51.1-6.73.13-13.46,0-20.2a4,4,0,0,0-1.27-2.93c-2.12-1.47-2.14-3.38-2.08-5.62.4-13.39,1-17,5-26.22h14.22c2.12,5,4.59,9.87,4.55,15.43-.1,15.11-.33,30.21-.5,45.31,0,2.12,0,4.23,0,6.56a20.81,20.81,0,0,0,2.58.44c5.91.15,11.83.32,17.74.38,34.16.36,68.32.64,102.47,1.06,11.66.14,23.31.59,35,.94,1.94.06,3.88.35,6.46.59.45,14.06-.51,27.88-.64,42.22-3.48.17-6.55.48-9.61.44-35.79-.52-71.58-1.14-107.37-1.65-17.41-.25-34.82-.32-52.23-.53-14.45-.17-28.9-.42-43.35-.62-2.29,0-4.58,0-7.48,0-.67,4.76-.43,9.38-.19,14.51C865.19,1582.34,869.24,1582.79,873.3,1582.82Zm173.58-655.89c.62,3.46-1,5.61-3.84,7.24-3.78,2.2-9.61,1.75-12.72-1.36a6.84,6.84,0,0,0-5.16-2.15c-12.86-.25-12.87-.31-23.51,7a109.74,109.74,0,0,0-9.19,6.61c-3.52,3-7.5,3.54-11.88,3.47-13.31-.21-26.61-.21-39.91-.34-2.3,0-4.42,0-4.07,3.43l18.08.8v14.06l-.86.18a7.2,7.2,0,0,1-.9-2.19c-.11-2.62,0-5.25-.06-7.88,0-1.9-1-2.67-3.38-2.05v20.05l4.52,1.29c-3.72,2.11-33.12,2.32-45.29.41-2-3,1.54-7.71-3-9.9l2.59-3.24h-8.15c.44,1,.85,1.94,1.42,3.22a4.72,4.72,0,0,0-2.3,4.48c.34,5.94-1.22,11.69-2.8,17.37a10.57,10.57,0,0,1-5.85,6.92c-3.09,1.44-6.38,2.44-9.58,3.64-.75.28-1.49.58-2.26.88,2.24,4.22,7.56,5.28,11.54,2.24s7.74-6.1,11.41-9.39a11.77,11.77,0,0,1,8.47-3.1c22.66.15,45.32.18,68,.24h10.32c-1.88-6.64-2.12-6.83-7.67-6.87-9.69-.08-19.39-.14-29.07-.25-1.51,0-3-.3-4.53-.46l0-1.13a15,15,0,0,1,2.91-.58c11,0,22,.16,33,.07,2.82,0,4.2,1.17,5.85,3.37,3.65,4.89,3.92,10.38,3.63,15.93a14.85,14.85,0,0,0,4.6,11.86c3.53,3.66,6.72,7.65,9.94,11.59a7.07,7.07,0,0,0,5.81,3c3.44,0,6.88.35,10.32.59a9.2,9.2,0,0,1,4,1c-6,1.65-12.06.94-18.81.6,2.06,2.31,3.56,4.5,5.56,6.06a9,9,0,0,0,5,1.41c11.65.4,23.31.51,35,1,20,.76,40,1.7,60,2.56a34.87,34.87,0,0,1,4.92.17c5.4,1,8.7-1.46,10.94-6.59a12.28,12.28,0,0,0-2.93-.89c-15.25-.5-30.52-.87-45.77-1.39-15.09-.52-30.18-1.18-45.27-1.79a34.51,34.51,0,0,1-3.49-.63c1.81-.76,2.56-1.35,3.31-1.34,5.09,0,10.18,0,15.26.24q23.13.88,46.26,1.9c9.34.42,18.68,1,28,1.44,1.77.08,3.55-.17,5.78-.29a55.74,55.74,0,0,0,.88-6.37q.77-41.13,1.41-82.26c0-1.93,0-3.85,0-6-27.89-1.52-55.25-2.19-82.53-4.49,13.33-.91,26.61.14,39.9.52s26.78,1.1,40.89,1.7c-1.91-4-3.77-6.14-7.93-6.26-13.94-.41-27.87-1.2-41.8-1.79-9.68-.41-19.36-.72-29-1-1.91-.07-3.83,0-5.91,0A24.35,24.35,0,0,0,1046.88,926.93Zm7.67,638.08c-.92-10.45.38-20.91-.35-31.68l-15.76-1.35.07-1.09h39.41c-2-1.73-4.27-1.82-6.59-1.85q-58.62-.68-117.24-1.34-51.74-.54-103.46-.92c-1.81,0-3.81-.53-6.39,1.48,2.35.2,3.7.41,5,.42,23.65.16,47.31.27,71,.46q46.8.34,93.6.82c2.17,0,4.54-.47,7.33,1.93-60.67.59-120.31-1.21-180.46-.87-.3,9.81-.59,19.23-.9,29.17L859,1561.4c-2.63,2.32-5.16,1.45-7.39,1.73s-4.73.25-7.65.38c1.67,2.17,3.44,1.59,4.94,1.6,20.2.17,40.4.26,60.6.43q53.7.45,107.41,1c14.61.17,29.22.58,43.83.93,4.76.12,9.51.44,14.27.61a17,17,0,0,0,2.64-.28l0-1.5ZM903,890.65c4.73,10.81,9,21.83,13.45,32.75.36.9.84,1.76,1.49,3.1,7.56,0,15.25,0,22.94,0,3.44,0,6.89,0,10.34.16a5.51,5.51,0,0,1,3.34,1.39c-5,1.29-10,.69-14.87.79s-9.7,0-15.22,0l2.25,7.66c9.2.19,18.2.47,27.19.56,11.16.11,22.33,0,33.49.16,3.08,0,5.75-.43,8.12-2.58,1.68-1.53,3.65-2.73,6.53-4.83-14.5-.53-28,.25-41.28-1l-.16-1.21a22.25,22.25,0,0,1,3.31-.57c9.51-.16,19-.56,28.55-.27a43.09,43.09,0,0,0,18.16-3.41c4.51-1.87,9.11-3.5,14.27-5.46-2-13.68-4.1-27.4-6.1-40.72-2.74-1.58-5-3-7.48-4.23a7.13,7.13,0,0,0-3.3-.46c-7.2.29-14.39,1-21.59.92-24.45-.12-48.91-.57-73.36-.68-3.84,0-6.57-1.1-8.66-4.24a43,43,0,0,0-3.71-4.06C901.19,874.05,899.34,882.43,903,890.65Zm-28.3,705.12a4.81,4.81,0,0,0,3,1.18c3.26.33,6.54.64,9.82.66,30.22.18,60.45.21,90.67.45,17.9.14,35.8.56,53.7.91,2.21,0,4.42.42,6.63.64,0,.37,0,.75,0,1.12a15.74,15.74,0,0,1-3.46.7c-11.65-.14-23.31-.44-35-.56q-59.37-.57-118.75-1h-3.7c2.42,2.44,4.55,3.86,7.38,4.06,1.15.08,2.3.06,3.45.07q56.67.49,113.33,1c6.35.07,12.71.47,19.88.74-1,.9-1.41,1.24-1.88,1.64,1.85.13,3.76.37,5.68.38,22.67.08,45.33.1,68,.22,6.09,0,11.34-2.78,15.84-6,3.33-2.4,5-7.12,7.74-11.34a36.3,36.3,0,0,0-4.15-.65c-9.19-.37-18.38-.55-27.56-1-48.09-2.43-96.22-1.6-144.33-2q-33.49-.29-67-.64c-1.75,0-3.49,0-6.25,0C870.49,1590,872.44,1593,874.65,1595.77Zm134-743.41a8.51,8.51,0,0,1,5.69-5c4.4-1.3,8.76-2.74,13.18-4,2-.56,4.1-1.11,5.65.65-5.71,1.63-11.3,3.29-16.92,4.83a8.9,8.9,0,0,0-5.6,4.39c-5.55,9.53-5.56,9.83,2.11,17.82,1.14,1.19,1.14,1.19,4.22,2.18-1.84-2.19-3.22-3.93-4.69-5.58-1.86-2.07-2.29-4.32-.94-6.78,1.78-3.24,2.62-7.27,6.83-8.54,5.59-1.7,11.07-4.51,17.13-1.8.45.2.92.35,1.37.54,7.34,2.91,9.53,7.58,7.11,15.68l3.33-1c.09,2.58-1.92,3.19-3.2,4-2.77,1.74-3.38,3.86-2.83,7,1.68,9.69,3,19.44,4.55,29.16.19,1.26.58,2.49.94,3.94h23.2c8.2-14.61,11.47-30,9.47-45-4.89-.32-9.89-.78-14.9-.94s-10.08,0-15.66,0a39.69,39.69,0,0,1-1-4c-1.76-12.11-3.67-24.19-5.1-36.34-.5-4.26-2.06-6.83-6.14-8.28a35.85,35.85,0,0,1-10-5.58,8.77,8.77,0,0,1,2.81,0c3.84,1.41,7.82,2.63,11.38,4.59,2.84,1.57,4.48.49,7.21-1.6-6.82-2.6-12.94-5.17-19.23-7.2-2-.65-4.62-.25-6.77.34-5.69,1.55-11.25,3.58-16.92,5.2a7.74,7.74,0,0,0-5.13,4.18c-2.06,4.11-4.09,8.23-6.17,12.32-.92,1.8-1,3.34.59,4.89,1.72,1.71,3.25,3.61,5.5,6.14.17-5.32-2.18-9.91.63-14,2.34-3.45,2.61-8.43,8.16-11-2.42,4.66-4.4,8.29-6.17,12a9,9,0,0,0-1.16,4.62c1.19,8.61,2.63,17.18,4,25.77,0,.25.32.47.8,1.16C1007,855.4,1007.93,853.94,1008.62,852.36ZM890.51,1005.49c-1.32-.06-2.63,0-3.94-.11-6.61-.31-7.51-.85-11-6.6a13.84,13.84,0,0,0-11.19,2.09c-1.74,1.2-3.83,1.88-5.64,3s-3.39,1-5.08-1.56c-2.43,4.65-4.74,8.75-6.67,13-.5,1.11-.07,2.9.47,4.14a30.24,30.24,0,0,0,3.05,4.6l1.93-2.57c4.27,7.92,8.34,15.46,12.51,23.21,5.41.29,10.8.55,16.19.86,4.58.26,9.17.47,13.74.91a5.41,5.41,0,0,0,5.15-1.94q8.82-9.94,17.91-19.66a4.82,4.82,0,0,0,1.24-4.47c-.68-4.37-1.38-8.74-2.16-13.74Zm-51.14,570.28-1.1,0c-.26-2.33-.61-4.65-.75-7s.07-4.5-1.57-6.52c-.69-.86-.55-2.5-.56-3.78a179.09,179.09,0,0,0-.69-18.22c0,11,0,22,0,33a17.07,17.07,0,0,0,1.91,8c7.48,15,14.78,30,22.32,45a21.8,21.8,0,0,1,2.56,11.32q-.5,9.34-.78,18.69c-.06,1.87-.39,4,2.83,5,.56-9.25,1.12-18.3,1.67-27.35l1.16-.15a8.61,8.61,0,0,1,.83,2.66c-.16,4.75-.56,9.5-.71,14.25-.13,4.08,0,8.16,0,12.8h20.43a14.28,14.28,0,0,0,.74-3c.42-7.37.86-14.74,1-22.12a14.33,14.33,0,0,0-1.28-6.11c-4.61-10-9.21-20-14.23-29.72a99.48,99.48,0,0,0-9.45-14.91c-1.37-1.79-4.36-2.35-7.34-3.84v-15.17l-16-1.59C840,1570.17,839.69,1573,839.37,1575.77Zm-4.14-1026.1c13.28-6.62,23-16.8,31.3-28.94-3.06-3.28-6.14-6.64-9.27-10-6.88-7.26-13.75-14.54-20.71-21.73-2.91-3-5.28-3-7.86,0a125.83,125.83,0,0,1-22.42,21.27,11.36,11.36,0,0,0-1.41,1.9c5.12-1.94,7.87-5.59,11.19-8.43s6.74-6,10.44-8.62c-.78,3.63-3.86,5.3-6.18,7.58-2.57,2.53-5.21,5-8,7.33s-5.38,4.16-8.45,6.5Zm-4.6,259.89c-10.9,10.72-21.61,21.25-32.66,32.1,8.9,6.05,15.45,13.68,22.55,20.77l-.66.9a7.57,7.57,0,0,1-2.14-1c-4.26-4.09-8.4-8.3-12.68-12.36a25.53,25.53,0,0,0-6-4.18c.4,2.65,2.93,3.26,4.55,4.73,1.81,1.66,3.58,3.37,5.38,5s3.69,3.26,5.35,5.06,3.12,3.8,4.64,5.73,3,3.85,5,6.54v-4.81l4.28,3.35,32.51-31.79C852.14,827.48,843,817.2,830.63,809.56Zm376.14-144.12c-1.46.5-2.67,1-3.92,1.32-.76.21-2,.56-2.3.22-2.13-2.47-4.9-1.32-7.36-1.43-7.86-.35-15.73-.5-23.59-.75a4.41,4.41,0,0,1-3-1.11l5.1-1.45c-2.81-5.45-3-5.5-8.27-3.64-2.16.76-4.33,1.51-6.47,2.3-.27.1-.45.46-.67.69,0,.32-.26.71-.14.94,1.59,3.09,1.84,6.11-.13,9.19-.51.79-.48,1.92-.9,2.79-4.22,8.65-2.37,17.21.24,25.8a7.62,7.62,0,0,0,4.81,5.2,31.92,31.92,0,0,0,9.44,2.19c9.14.29,18.3.1,27.91.1l-2.13-2.94c3-.56,5.14,1.17,7.41,2,3.56,1.32,3.55,1.36,6-2.58-1.12-.22-2.22-.37-3.27-.66-4.65-1.32-7.09-4.19-8.41-9.08-1.78-6.59-1-12.59,1.27-18.72.9-2.48,2.28-4.24,5-4.89,1.89-.45,3.7-1.26,6.18-2.14ZM1146.63,530c4.08,4,8.08,8.15,12.23,12.12,1.43,1.36,2.12,3.87,4.88,3.49.24,0,.81.62.83,1,.2,3.75,3.59,5.23,5.64,8.33l30.73-30.07c-1.11-7.49-4.88-12.95-9.87-17.59-1.57-1.46-4-2-5.69-3.33-3.2-2.56-6.15-5.43-9.21-8.17-.61-.54-1.25-1-2.1-1.75l-32.15,31.62C1143.77,527.37,1145.24,528.66,1146.63,530Zm-128.44-96a5.36,5.36,0,0,0-1.74.07c-.33,2.52-2.26,1.82-3.7,1.81-3.77,0-7.55-.1-11.32-.28a5.34,5.34,0,0,1-3.11-.88c-1.54-1.38-2.6-1.22-4.26-.1-1.22.82-3,.91-4.58,1.09-2.09.23-4.21.23-7,.36-.37,15.16-.73,30.15-1.11,45.71h27q1.18-14,2.39-28l1.28,0c2.33,9.39,1.61,19.28,3.94,28.91h7.61c.38-15.15,1.27-30.27.9-44.85C1022.28,435.31,1018.78,437.52,1018.19,434Zm-92.67,250c2.51-.11,5.09-.38,7.66-.31q36.44,1,72.88,2.07c17.4.48,34.81.89,52.2,1.42,19,.57,38.08,1.26,57.12,1.87,3.23.1,6.47,0,9.86,0,.27-2.91.5-5.33.74-7.92-2.67-1.72-5.61-1.63-8.52-1.68-28.24-.49-56.49-1.08-84.74-1.46-33.18-.44-66.36-.7-99.54-1.06-2.58,0-5.16-.24-7.89-.37-.51-2.94-1-5.49-1.41-8l-.7,0q-.39,12.65-.79,25.28l.9.14C924,690.84,924.69,687.72,925.52,684.05ZM822.64,491.61c-2.53-2.7-5.3-5.68-8.1-8.63q-19.29-20.39-38.64-40.72c-1.57-1.64-2.8-4.14-6-3.14-.63.2-1.85-1.16-2.68-1.94-2.38-2.25-4.75-4.54-7-6.89a2.69,2.69,0,0,0-4.28-.05c-1.85,2-3.39,4.29-5.37,6.86l10,11.26-1.32,2.87,51,53.92C814.45,500.5,818.41,496.2,822.64,491.61Zm353.64,384.8c1.4,1.69,2.64,3.36,4.06,4.86q21.45,22.72,43,45.39c2.22,2.35,3.28,2.41,5.79.27a74.39,74.39,0,0,1,7.6-6.11c-1.17,3.48-4.4,5.28-6.78,8.53l9.83,8.92c3.3-1,5.32-4,8.15-7-2.43-2.88-4.84-5.69-7.19-8.56-1.36-1.67-3.48-2.87-2.5-5.86.31-.94-1.43-2.76-2.51-3.91-7.51-8-15.12-15.95-22.67-23.94-6.54-6.91-13-13.85-19.58-20.76-1.22-1.29-2.54-2.48-4.19-4.08C1184.74,868.4,1180.71,872.21,1176.28,876.41Zm19.92-367.16,51.45-50.11c-2.26-3.78-5.41-6.57-8.53-9.4-1.81-1.64-3.43-1.54-5.16.1-2.72,2.61-5.54,5.12-8.25,7.74q-17.65,17.13-35.26,34.3c-2.1,2.05-4,4.27-6.16,6.55ZM830.76,1417.37q-1.17,67.25-2.31,134.5c-.1,6.4-.16,12.81-.33,19.21a22.25,22.25,0,0,0,2.55,10.87c7.67,15.24,15.15,30.59,22.77,45.86a18.17,18.17,0,0,1,2.06,8.49c0,6.24.09,12.48.24,18.72,0,1.31-.61,3,1.89,3.78a17.45,17.45,0,0,0,.55-2.61c.36-6.56.63-13.12,1-19.67a16.18,16.18,0,0,0-2-8.49c-7.41-14.64-14.63-29.38-22.06-44a23.2,23.2,0,0,1-2.72-11.32q.87-41.88,1.61-83.74.71-37.2,1.46-74.39c.08-4.13,0-4.13-4.32-5.49C831,1411.94,830.81,1414.65,830.76,1417.37Zm33.86-862.63c3-2.85,6-5.64,9-8.43a49.67,49.67,0,0,0,9-11c1.83-3,4.49-5.61,7.17-8.87l-9.19-10c-14.84,18.05-31,34.13-50.68,47.27L839.58,574A132.79,132.79,0,0,0,864.62,554.74ZM1199.51,683c-1.6,1.13-1.34,2.46-.74,3.87.37.89,1,1.67,1.36,2.57,2.2,6.25,2.18,6.31,9,6.38q25.61.26,51.22.41H1266c-1.31-2.57-2.81-4.65-3.44-7s-.42-4.85-.6-7.78a31.87,31.87,0,0,0-4-.47c-18.54,0-37.09,0-56.56,0A10.13,10.13,0,0,1,1199.51,683ZM1036.57,907.1c1.72-.23,3.69,1.42,6.09,2.45-.41-3.24-.75-6.24-1.17-9.22q-3.18-22.38-6.41-44.74a3,3,0,0,0-3.81-2.63c-2.79.86-5.57,1.8-8.27,2.91a6.71,6.71,0,0,0-4.32,7c2.34,15.55,4.8,31.08,7.24,46.62a2.37,2.37,0,0,0,.36.73C1030,909,1033.22,907.54,1036.57,907.1Zm-33.83-43.83c1.31-1.82.88-3.09-1.12-3.45a8,8,0,0,0-1.47,0c-13.12-.09-26.25-.2-39.37-.23-1.58,0-3.88-.67-3.73,2.82l18.89,1.09.09,1c-1.75.12-3.5.25-5.26.35-2,.11-3.93.31-5.89.27-11-.21-11-.24-18.29-8.46-1.72-1.92-3.53-3.77-6.08-6.49-.57,5.31-1,9.59-1.53,14.2-11.21,1.47-22.34-.34-33.4.51,1.07,4.17,2.54,5.48,6.33,5.65.33,0,.66,0,1,0q43.56.32,87.11.6a85.1,85.1,0,0,0,8.68-.87c-2.08-2.92-3.43-5.42-7.3-4.6l.06-1.25A8.09,8.09,0,0,0,1002.74,863.27ZM814.59,685.88c3.53.32,6.7.72,9.87.87q13.26.62,26.52,1.06c4.55.15,8.1-2,9.45-5.45A10,10,0,0,0,857.21,671a5.91,5.91,0,0,0-3-1.38c-12.73-.62-25.48-1.14-39.21-1.72C819.27,674.66,818.35,680.11,814.59,685.88Zm30,453.17,6.51,2.6c.61-6.12,1.21-11.64,1.71-17.16q2.71-30.36,5.37-60.71c.36-4.08.46-8.2,1.1-12.23a13.11,13.11,0,0,0-1.81-8.91c-1.41-2.5-2.6-5.11-3.89-7.67l-1.11.23C849.88,1069.72,847.26,1104.24,844.62,1139.05Zm9.78-141c2.88-1.49,5.05-2.55,7.16-3.73,2.76-1.52,5.55-2.92,8.81-2.7,10.31.7,18.42-10,18-20.42a21.61,21.61,0,0,0-5.27-14c-3.56-4-10.28-6.23-15.19-4.26-5.91,2.36-11.6,5.27-17.82,8.13C851.55,973.37,852.94,985.33,854.4,998Zm310,471.4c.92-6.91,1.45-13.59-.69-20.4-2.4-7.65-4.14-15.5-6.19-23.26-.5-1.89-1.1-3.75-1.76-6h-13.59c-.77,1.63.18,3.45.65,5.23q3,11.41,6.09,22.78a41.69,41.69,0,0,1,1.56,14.57,58.13,58.13,0,0,0,.23,7.08ZM1030.64,505.88a10.8,10.8,0,0,0,8.28,1.82c3.13-.65,5.19-2,5.83-5.62,2.68-15.14,5.62-30.23,8.43-45.35a21,21,0,0,0,0-3.47h-12.77C1037.2,470.62,1033.92,488.24,1030.64,505.88Zm-65.43-16c.93-5.05,5-6.83,9.67-8.51-.91-6.38-1.8-12.83-2.74-19.27-.48-3.24-1-6.47-1.6-9.7-.89-5-2.84-6.56-8-6.59a21.78,21.78,0,0,0-3.43.09,7.07,7.07,0,0,0-6.19,7.9c1.71,12.17,3.56,24.31,5.39,36.46a6,6,0,0,0,.83,1.54ZM840.91,806.61c11.44,11.95,23.92,22.89,33,37.77l9-8.39c-.11-.86,0-1.28-.21-1.48a61.25,61.25,0,0,1-9.45-14.85,9.48,9.48,0,0,0-1.93-2.83c-6.73-6.7-13.51-13.35-20.35-20.09Zm55.89,676.76a3.49,3.49,0,0,0,1,2.56c2.48,1.64,2.45,3.9,2.38,6.49-.17,6.72,0,13.45-.14,20.17,0,1.39-.27,3.62-1.1,4-3.66,1.76-3,4.56-2.57,7.82h12.51c.16-2,.4-3.93.44-5.86.28-14,.41-27.9.83-41.85a34.17,34.17,0,0,0-3.82-16.39h-5.29C896.35,1467.56,896.7,1475.5,896.8,1483.37ZM893.43,625.1c2.2-17.05,7.41-33.36,13.5-49.24a152.83,152.83,0,0,1,17.4-33.56c3-4.29,5.95-8.69,9.36-12.67,3.61-4.21,7.76-8,11.65-11.94,7.57-7.74,16.67-13.14,26.53-17.42a11.47,11.47,0,0,0,3.41-1.91,3,3,0,0,0,.3-2.57c-.14-.44-1.29-.58-2-.82a.71.71,0,0,0-.47.12c-7.36,4.26-15.75,6.62-22.48,12.06-.64.51-1.22,1.1-1.88,1.59-12.38,9.11-21.38,21.26-29.66,33.89-4,6.14-6.83,13.07-10.22,19.63-6.75,13.06-10.53,27.22-14.55,41.22-2.84,9.89-4,20.26-5.89,30.42-.33,1.75-.22,3.28,2.4,4.49C891.76,633.74,892.87,629.46,893.43,625.1Zm156.05,230.64c.35,2.33.64,4.33.87,5.85,12.63.38,24.73.57,36.8,1.2,4,.2,6.59-.75,8.18-4.48a35.38,35.38,0,0,1,2.69-4.44l-4.56-6.76-2.15.92v-2.82c-4.53.85-7.87,4.93-13.75,4.34a27.1,27.1,0,0,1,2.72-1.84c4.12-2,8.29-3.91,12.38-6,.68-.35,1.06-1.29,2.08-2.6-1.44,0-2.15-.22-2.57,0-10.69,6.47-22.87,7.59-34.77,9.68-2.1.37-4.21.69-6.28,1.18-1.29.31-2.6.84-1.69,3.22l11-1.82.13,1.54Zm7.3,707.32h20.66c.48-9.45.54-19,.61-29.26l-21.27-1ZM992.66,811.74c1.87-4.76,5.25-7.14,10-8.42,6.33-1.7,12.56-3.75,18.81-5.73a15,15,0,0,1,11,.47c6.14,2.64,12.42,4.94,18.68,7.4,1.68-6,.47-8.76-4.43-10.71-5.78-2.31-11.6-4.53-17.37-6.87a11,11,0,0,0-8.1-.4c-7.31,2.41-14.69,4.62-22.07,6.79a8,8,0,0,0-5.33,4.64q-3.48,7.33-7.25,14.53c-1.58,3-1.38,5.92.28,9.67C989,818.94,991.19,815.48,992.66,811.74ZM874.72,945.84c2.29.36,4.37.71,6.46,1a17.87,17.87,0,0,1,10.93,6,10.44,10.44,0,0,1,1.27,1.49c3.39,5.72,8.56,5.66,14.37,4.49.36-2.44.71-4.81,1.13-7.61h21c.09-1.32.15-2.21.24-3.62l-6.38-.27c-6.22-.25-12.44-.71-18.66-.68a8.93,8.93,0,0,1-7.26-3.24c-3-3.27-6.34-6.21-9.15-9.61a10.55,10.55,0,0,0-10.29-4.11c-1.11.15-2.23.18-3.63.29ZM1143.81,554.3c1.89,1.83,3.4,2.14,5.52.58,2.74-2,5.62-3.87,9-6.16-3.28-3.65-6-7.25-9.32-10.3-5.62-5.23-11.53-10.15-17.37-15.14-3.22-2.74-5.32-2.66-8.54.18-1.95,1.73-3.82,3.55-5.91,5.49C1126.36,537.66,1135.16,545.91,1143.81,554.3Zm0,260.14-32.38,29.7c1.09,1.28,2.29,2.76,3.58,4.16,2.65,2.87,5.43,3.21,8.52.68,6.21-5.07,12.37-10.19,18.36-15.51,4-3.56,7.66-7.5,11.91-11.7ZM1009.14,569.32c5.58,1.89,11.17,3.75,16.71,5.74a13.33,13.33,0,0,0,9.13.07c5.73-1.93,11.46-3.9,17.24-5.67,3.17-1,5.15-2.63,5.22-6.17a34.57,34.57,0,0,1,.8-4.78c-1.8.47-3.17.77-4.49,1.2-5.6,1.81-11.21,3.61-16.78,5.53a13.13,13.13,0,0,1-9.08-.11c-7.07-2.56-14.23-4.89-21.36-7.29-1.06-.36-2.15-.6-3.53-1C1000.46,566.39,1000.47,566.38,1009.14,569.32Zm-100.29,90c3.51,3.06,4.41,6.67,4.28,10.91-.21,7.22-.55,14.43-.53,21.64a9.74,9.74,0,0,1-3.37,7.78c-3.38,3.1-6.61,6.37-9.87,9.6-1.48,1.47-2.88,3-4.65,4.9,3.24,1.26,5.55.75,7.6-1.18,5.24-5,10.57-9.83,15.62-15a8.47,8.47,0,0,0,2.17-5.2c.26-8.69.26-17.39.17-26.08a6.34,6.34,0,0,0-1.59-3.9c-5-5.2-10.19-10.21-15.27-15.35-2-2-4.27-2.14-7.95-1.6C900.33,650.82,904.33,655.37,908.85,659.32ZM885.6,708.73c1.28.29,3.22-.65,4.32-1.63,4.3-3.81,8.5-7.75,12.5-11.88a8.09,8.09,0,0,0,2.06-4.69c.42-6.39.44-12.8.75-19.19a9.56,9.56,0,0,0-3.1-7.93C898.55,660,895,656.56,891.68,653a6.18,6.18,0,0,0-7-1.94c-4.31,1.34-8.68,2.46-12.88,4.45,4.06.28,8.12.67,12.19.8a9.24,9.24,0,0,1,7,3c2.22,2.41,4.56,4.73,7,7a8.09,8.09,0,0,1,2.82,6.51c-.13,4.43,0,8.87,0,13.3a9.65,9.65,0,0,1-3.48,7.8,46.06,46.06,0,0,0-6.1,5.73c-2.6,3.18-5.85,3.79-9.65,3.64-4.31-.18-8.64,0-13,0l-.18.9C874.07,705.67,879.78,707.42,885.6,708.73ZM903.42,643c-6.89-2-7.19-2.29-6-9.47a317.79,317.79,0,0,1,15-56.45c3.55-10,9.19-18.82,13.6-28.31a17.32,17.32,0,0,0,1.59-4.47c-2.66,1.53-4.1,4-5.48,6.52a231,231,0,0,0-26,73.36c-1,5.66-2.15,11.27-3.32,17.36l-8.9,2.3c5.22-.17,10.09-.26,14.95-.51a8,8,0,0,1,6.5,2.8c4.44,4.6,9,9.08,13.55,13.6.89.88,1.85,1.7,2.78,2.55C918.78,652.72,913.18,645.8,903.42,643ZM937.89,944.9c1.84.13,3.05.27,4.27.28,13.62.09,27.24.13,40.85.28a10.76,10.76,0,0,0,6.85-2.1c5.83-4.24,11.88-8.19,17.75-12.38a11.53,11.53,0,0,1,7.3-2.36c4.24.12,8.48,0,12.89,0,.53-2,.93-3.53,1.5-5.71-6.61,0-12.61-1.45-18.08,3.29-4.44,3.84-9.67,6.75-14.39,10.29a13.94,13.94,0,0,1-9.06,3c-13.61-.19-27.23-.15-40.85-.19h-5.5C940.32,941.06,939.29,942.67,937.89,944.9ZM883.7,649.14c4-1.27,6.87-.52,9.64,2.59,3.38,3.8,7.07,7.34,10.77,10.83a8.89,8.89,0,0,1,3,7c-.15,7.39-.17,14.78-.59,22.16a8.81,8.81,0,0,1-2.53,5.07c-4.26,4.32-8.85,8.31-13.23,12.53-2.15,2.07-4.38,2.37-7.18,1.48-5.78-1.82-11.63-3.39-17.57-5.1-.18,2,1.41,2.41,2.6,2.77,6.43,2,12.87,3.89,19.37,5.59a5,5,0,0,0,3.95-.92c5.73-5.16,11.36-10.45,16.83-15.89a7.11,7.11,0,0,0,1.69-4.37c.38-7.87.44-15.76.79-23.63a9.48,9.48,0,0,0-3.15-7.87c-4.78-4.5-9.41-9.16-14-13.9a5.35,5.35,0,0,0-5.75-1.64c-6.18,1.66-12.38,3.23-18.52,5-1.25.37-2.29,1.46-3.43,2.22l.36.67C872.41,652.23,878.13,650.91,883.7,649.14ZM1080.12,911c1.85-4.27,3.42-8.55,5.5-12.56a45.7,45.7,0,0,0,5.3-25.52c-.19-2.26,0-4.55,0-7.54l-8.35-.91c-.63,8.2-.39,16.14-2.06,23.67s-5.24,14.66-8.15,22.42ZM939.38,1480.16c1.3-6,1.77-30.77.64-36h-9.49c-1.52,12-.81,23.86-1.31,36Zm-87.9-478.87a5.33,5.33,0,0,0,.63-2.8c-1.13-10.4-2.35-20.8-3.67-32.33-1,1.83-1.6,2.66-2,3.58-2.5,5.88-4.92,11.79-7.43,17.67a13,13,0,0,0-.44,9.6c1.86,5.4,3.95,10.73,6.27,17C847.41,1009.11,849.5,1005.23,851.48,1001.29ZM1141,694.18a27.45,27.45,0,0,1,.42-17.32c2.14-6.13,3.78-12.43,5.74-19h-5.84c-1.13,4.56-2.53,9.08-3.31,13.69-.65,3.84-2.42,6.33-6.14,7.34-3.11.85-4,3.18-4,6,0,2.6.76,4.8,3.62,5.67,3.54,1.08,5.12,3.67,5.67,7.23.57,3.71,1.77,7.34,2.12,11.07.49,5,3.52,6.83,7.65,7.39C1145,708.85,1143.17,701.47,1141,694.18ZM912.66,794.73a72.28,72.28,0,0,1-3.19-8.24c-2.07-6.73-3.77-13.58-6-20.27-3.79-11.45-4.81-23.41-6.9-35.17a51.85,51.85,0,0,1-1-8.76c0-3.58.83-4.36,4.21-4.81,10.75-1.41,16.69-8.54,20.79-18a23.83,23.83,0,0,0-2.45,1.77c-4.34,4-8.79,7.91-12.9,12.14a11.52,11.52,0,0,1-10.16,3.66,30.89,30.89,0,0,0-3.71,0c.37,1.47.87,3,1.11,4.52,1.49,9.4,2.58,18.87,4.45,28.18,2.75,13.65,6,27.21,11.49,40.1,2.76,6.49,5.44,13,8.47,19.38,1.94,4.06,4.45,7.85,6.7,11.76l.81-.44C920.5,811.93,916.53,803.35,912.66,794.73Zm-77,734.89c2.33-1,2.8-2.87,2.84-5.25q.9-53,1.92-105.91c0-2.19-.17-4.38-.26-6.56h-1.11C837.34,1415.51,834.8,1503.56,835.66,1529.62ZM1130,1493.45c2.76,4,5.58,8.06,8.38,12.08.94,1.34,1.82,2.59,3.87,2.44,4.21-.31,8.45-.37,12.67-.55,1.13-.05,2.26-.18,3.59-.28-.09-2.63-2-4.17-3.18-6-2.28-3.38-4.08-7.74-7.3-9.64s-7.83-1.31-11.86-1.62c-2.54-.19-5.11,0-8.14,0C1128.77,1491.27,1129.28,1492.42,1130,1493.45Zm12.76-17.12.86.93-8.65,10.15c4.35.32,7.84.66,11.34.79a3.91,3.91,0,0,0,2.59-1c4.49-4.54,8.89-9.18,13.3-13.81.15-.16,0-.59,0-1.29-1.2-.06-2.45-.14-3.7-.19-2.62-.11-5.47.43-7.82-.42-5.33-1.93-8.66.48-11.91,4.1s-6.9,7.33-10.35,11l.75.85C1135.23,1485.89,1137.7,1479.29,1142.74,1476.33ZM873.16,669.09l24.3,1.12.52-1c-3.33-3.26-6.63-6.53-10-9.75a3,3,0,0,0-1.75-.78c-7.44-.52-14.88-1.49-23.34-.76Zm282.52,150.37c5.64-4.24,8.87-9.7,12.2-15.82l-8.92-9.79-12.17,16Zm-151.8-265c1.87.74,3.32,1.38,4.8,1.9,6.49,2.29,13,4.46,19.48,6.83a11.68,11.68,0,0,0,8.15.23c6.21-2.11,12.41-4.26,18.65-6.25,2.64-.83,4.12-2.29,4.52-5.12.65-4.54,1.64-9,2.33-13.56.23-1.49.83-3.32-1.93-4.57-.52,3-.94,5.76-1.51,8.54-2,9.95.09,9.57-11,13.06a79.84,79.84,0,0,0-7.91,2.66c-4.82,2.12-9.44,1.83-14.28,0-6.1-2.38-12.35-4.35-19.14-6.71C1005.43,552.27,1004.8,553.14,1003.88,554.44Zm145.43,103.7c-2,6.57-3.66,12.7-5.79,18.66a26.57,26.57,0,0,0-.34,17.73c1.65,5.13,2.85,10.41,4.06,15.67a7,7,0,0,0,4.44,5.39c3.49,1.42,6.9,3,10.36,4.47,1.7.72,3.43,1.24,4.86-1.49-3.43-1.6-6.66-3.41-10.1-4.63-4-1.41-6-4-6.84-8.1-.92-4.65-2.25-9.22-3.49-13.8a21.51,21.51,0,0,1,.23-12.56c2-6.07,3.71-12.21,5.7-18.86ZM905.68,935.43a4.75,4.75,0,0,0,3.08,1.17c4.56,0,9.12-.22,13.67-.36,0-5.67-.29-5.94-4.9-7.53a5.61,5.61,0,0,1-2.89-2.9c-1-2.35-2.52-3.09-4.92-3.19-5.22-.22-10.44-.68-15.66-1l-.56,1.2C897.55,927,901.54,931.29,905.68,935.43Zm-52.33,206.45c3.26,1.11,3.16-1.12,3.32-2.54.51-4.39.82-8.81,1.17-13.23q2.91-36.52,5.77-73.07a45.73,45.73,0,0,0-.2-5.22l-1.49-.11Zm66.35-150.1c-4.15-.32-7.82-.66-11.5-.83a4.49,4.49,0,0,0-2.72.81c-4.07,3.2-8,6.51-13,10.52,8.72,1.51,16.37,1.12,24.42,1.29C917.92,999.38,918.73,995.92,919.7,991.78ZM835.85,785.44l-10.14,10.14L839,804.7a86,86,0,0,0,9.78-10.35ZM876.9,951c7.39,2.13,11.24,7.71,12.86,14.8a24.49,24.49,0,0,1-2.21,17.69c-3,5.39-7.53,9.82-13.74,9.92-7.11.11-12.33,3.72-18.08,6.63.13,1.68.82,2.28,2.27,1.59a51.73,51.73,0,0,0,4.82-2.43c3.7-2.23,7.43-3.74,12-3.57,5.32.21,9.27-3.16,12.36-7.08,8.3-10.56,7.31-27.73-2.83-36.16a16.76,16.76,0,0,0-13.29-3.8,3.24,3.24,0,0,0-1.33.56c-.24.16-.34.52-.53.83C871.79,950.25,874.45,950.23,876.9,951Zm282-244a9.1,9.1,0,0,1-5.79-7.32c-.45-2.58-1.24-5.09-1.85-7.64a21.76,21.76,0,0,1,.41-12.58c1.24-3.55,2.37-7.16,3.28-10.8.33-1.35-.12-2.9-.22-4.35l-1.32-.13c-2,6.82-4,13.62-5.89,20.46a7.16,7.16,0,0,0,.08,3.41c1.6,6.53,3.15,13.07,5,19.5a7.92,7.92,0,0,0,3.41,3.81,47.1,47.1,0,0,0,6.71,3c4.78,2,5,1.92,7.81-2.85C1166.68,709.93,1162.74,708.5,1158.87,706.91ZM968.3,492.34a6,6,0,0,0,1.5.58,10.05,10.05,0,0,0,2.45-.12c3.12-.61,5.5.05,6.08,3.63.77,0,1.35.1,1.68-.12,5.65-3.87,12-3.88,18.44-3.44a43.75,43.75,0,0,0,4.43.18c3-.1,3.28-.44,4.07-4.72H968.3ZM934.52,859c-2.45-.19-4.92-.18-7.38-.19-6.22,0-12.36-.11-18-3.5-1.88-1.13-4.31-1.34-7-1.27l5,4c-2.08,1.07-3.63,1.12-5.18-.68a51.59,51.59,0,0,0-8.33-8.06c.12.94-.07,2.09.42,2.78a105.41,105.41,0,0,0,6.57,8.59,5,5,0,0,0,3.31,1.6c10.34.23,20.68.29,31,.38a8.53,8.53,0,0,0,1.66-.37C937.34,859.94,936.18,859.11,934.52,859Zm-19.08,569.57c2.86,0,4.83-1.37,7.15-3.86-2.17-.14-3.72-.32-5.28-.33-12.6-.06-25.2-.06-37.8-.15-2.42,0-4.21.45-4.15,4.32C889,1428.53,902.2,1428.51,915.44,1428.55ZM1028.85,504.2c1.24-6.45,2.43-12.51,3.56-18.58q2.89-15.42,5.68-30.86c.31-1.73,1.47-3.86-2-5.19-1.72,9-3.34,17.69-5.06,26.38s-2.61,17.25-5.33,26.2l-1.5-2.09C1023.76,504.34,1027.5,502.1,1028.85,504.2Zm-192,651.8,11.33,1.23,7.18-12.06-11.27-3.63ZM1168,559.69c-2.69-3.07-5-5.76-7.45-8.54l-10.31,10.42,7.57,8.81ZM920.07,971.64c3.13-.11,6.21-4.21,6.16-8.2-.06-4.33-2.64-7.43-6.11-7.35a7.56,7.56,0,0,0-7.22,7.7C912.94,967.82,916.55,971.76,920.07,971.64ZM1249.25,456l9.07-9.39-7.53-8.22-10.64,9.35ZM936.89,956.33c-4.22,0-7.28,3.19-7.25,7.6,0,4.08,3.19,7.77,6.65,7.77s6.62-3.74,6.65-7.83C943,959.57,940.38,956.35,936.89,956.33Zm62.86-615.17c-.3,4.47-.58,8.75-.9,13.53h11.85V341.16Zm-95.86,598.7a3.57,3.57,0,0,0-.16-3.05c-4.32-4.82-8.81-9.48-13.62-14.58l-3.84,6.2L901.16,944C902.35,942.23,903.39,941.15,903.89,939.86Zm30.15-.34H906.76l-2.93,4.88,26.91.93Zm12.38,34.38V953.6H910.81v6.24c2.54-2.66,4.74-5.51,8.61-5.92,4.06-.42,6.24,2.2,8.37,4.94,6.7-5.5,11-6.1,14.62-2.12,4.28,4.64,3.44,10.8-3,17.16Zm-31.36,548q.53-24.31,1-48.62c.09-5.17-2.11-9.62-4.47-15-1.28,2.83-.15,4.43.49,5.88a24.94,24.94,0,0,1,1.86,11c-.39,15.23-.6,30.45-.85,45.68a34.7,34.7,0,0,0,.29,3.66l1.2.08A16,16,0,0,0,915.06,1521.87Zm4.79-91.92c3,3.61,5.67,6.93,8.55,10a6,6,0,0,0,3.54,1.26c2.08.2,4.19,0,7.2,0a162.6,162.6,0,0,0-12.45-16.38Zm243.33-849.87c3.55-3.43,6.88-6.67,10.29-10l-4.11-8.82c-3.49,3.83-6.61,7.24-9.95,10.89Zm-286-63.1c-2.57-.87-3.29.67-4.13,1.75a193.73,193.73,0,0,1-26.45,27c-4.22,3.63-8.86,6.75-13.27,10.15-1.31,1-2.47,2.21-3.7,3.32l1.09,1.09C848.42,548.44,863.59,533.84,877.17,517Zm-80,166.25c3.71.13,5.94-2.35,5.88-6.78a9.49,9.49,0,0,0-.8-4.22c-1.33-2.51-3.38-3.32-5.71-2.73-2.51.63-4.69,3.72-4.79,6.79C791.61,679.93,794.1,683.11,797.15,683.23Zm286.73,786.16-2.83,13.92h16C1092.4,1478.17,1089.33,1473.13,1083.88,1469.39ZM895,984.15c1.77-6.63,2-13.21,2.38-19.87a2.93,2.93,0,0,0-.34-1.83,99.37,99.37,0,0,0-7.61-9.07c8.14,14.72,7.8,28.33-4.4,40.78C890.34,992.7,893.49,989.93,895,984.15ZM751.16,904.48l.88.9c17.58-16.55,34.69-33.59,52-50.44l-1-1Zm294.22,16c.92.16,1.83.42,2.75.49,3.39.23,6.78.39,10.43.6v-8.22c-4-.39-7.49-1.85-11.19-.68C1046.62,915.56,1046,917.87,1045.38,920.44ZM839.58,809.23c.48,1.4.56,2.35,1.06,2.93a61.87,61.87,0,0,0,4.76,5,173.07,173.07,0,0,1,23.05,26.7c.43.61,1,1.13,2.19,2.44C870.65,839.56,849.56,817.13,839.58,809.23ZM1010.64,545.4c-3.24-6.3-7.08-12.48-3.26-19.95l-1.12-.35-7,7.1c2.48,5.32,4.8,10.31,7.41,15.93Zm32.82,385.78c2.52-1.79,2.09-4.88-.57-6.4-3-1.71-7.69-1.32-10,1.22-1,1.06-1.93,3-1.6,4.18s2.16,2.18,3.5,3c.61.37,1.6.13,2.42.16l.24.55C1039.45,933,1041.7,932.44,1043.46,931.18ZM802.68,662.3c-6.74-2.09-11.23.82-14.59,6.41-.74,1.23-1.65,2.36-2.86,4.07l4.21.33c.5-.41.86-.55,1-.81,2.13-5,6.29-5.45,11-5.12,4,.28,4.14,0,4.08-4.53A16.39,16.39,0,0,1,802.68,662.3Zm242.7-234.51c-1.3.78-3.13,1.7-3.43,2.88s.61,3.18,1.61,4.2c2.31,2.35,7.14,2.66,10.09,1.07,2.56-1.39,2.91-3.91.82-6-1.75-1.75-3.46-2.34-7.14-2.33A3.91,3.91,0,0,0,1045.38,427.79ZM993.26,550c2,3.6,3.64,7.44,5.86,12.07,1.64-4.7,2.09-8.1,0-11.71-2-3.42-3.55-7.12-5.67-11.46C991.6,543.27,991.29,546.5,993.26,550Zm288.12,142c1,2.63,3.48,2.91,5.32.77a8.49,8.49,0,0,0-.59-11.39c-1.47-1.39-3.12-1.39-4,.36a32.9,32.9,0,0,0-1.86,5.24A34.82,34.82,0,0,0,1281.38,692ZM1043.81,817.66c.76,5.31,1.5,10.55,2.3,16.17,2.93-.62,4.5-1.93,4.29-4.62-.35-4.49-.88-9-1.42-14.25ZM883.75,1161.11l-14.53-.81c-.08.42-.17.84-.25,1.26,8.15,3.84,17,5.94,25.37,9.13C891.21,1167.17,885.44,1167.05,883.75,1161.11ZM806.33,682.5a4.93,4.93,0,0,0,6.63-1.91,7.38,7.38,0,0,0,.22-7.52c-1.37-2.75-4-3-6.85-2.37Zm232.09,236.72c-.39-2.82-.74-5.35-1.11-8-2.59-1-4.79-.72-6.34,1.31-2.18,2.86-1,5.81.26,9.07ZM962.7,436.91a7.1,7.1,0,0,0-6.93,1.09c-2.54,1.83-1.19,4.27-1.37,6.48l11.06-1.42C965.71,440.44,965.3,438,962.7,436.91ZM1277.58,687H1265c.84,6.4,2.67,7.34,11.36,5.82C1276.8,690.8,1277.18,689,1277.58,687ZM868.34,648.91c7.51-1.34,11.74-8.49,19.08-9C881.16,637.85,872.83,641.85,868.34,648.91Zm-37.87,755.34c.4,1.16,2.06,1.89,3.66,2.42-2-5.68-1.11-12.38-6.13-16.63l-1.44.66C827.83,1395.23,829,1399.81,830.47,1404.25ZM1152.25,657c.68,2.09,2,2.7,4,2l12-4.29C1165.08,651.68,1162.5,652.15,1152.25,657ZM943.53,1479.09v-33.78C943,1456.56,941.91,1467.81,943.53,1479.09ZM1046.19,440.86l-4.3-1.86c-3.15,7.53-3,8.48,2.68,11.4C1045.14,447,1045.62,444.17,1046.19,440.86Zm15.62,472.3v8.08l5.1.32c.22-2.73.42-5.23.67-8.4ZM1053,812.41c-1.76.1-2.13,1.35-2,2.69.6,5.14,1.31,10.27,2.11,16.36C1055.74,827.8,1055.58,823.72,1053,812.41ZM886,719.87l-16.58-9-.61,1.15C873.39,717,878.63,720.55,886,719.87Zm162.63-279.43c-.65,3.16-1.29,6.28-2,9.47,5.15.48,5.46,0,6.07-8.94Zm-5.45,235.16v.29h42.6v-.29Zm-41.55-.68v-.31H960.36l-.09.31Zm263.1,9.15,12.94,1.08c-.4-1.5-.69-2.63-1-3.93C1272.85,681.94,1268.54,679,1264.73,684.07Zm-193.3,230.4a6,6,0,0,0,.2,6.88c3.11-1.61,3.25-4.57,4.26-7.11C1074.07,913,1072.34,912.91,1071.43,914.47ZM876.67,927.16h7.66l3.1-4.77C882,920.6,880.22,924.25,876.67,927.16ZM754,425.37h-6.83l-.81,6.51,1.23.47Zm376.63,374.14a119.58,119.58,0,0,0,10.5,8.15c-2.08-4.72-5.88-7.84-11-10.32C1130.25,798.08,1130.16,799.12,1130.62,799.51ZM737.15,922.42c.16,3.1.27,5.24.41,7.9l7.68.37ZM836.86,808c-.24-2.64-3.52-5.33-11.33-9.08C827.07,802.33,832,806.05,836.86,808ZM923.05,973.7c3.4.52,6.34-.06,9,0l-4.5-4.72ZM969,1607.05v.31h27.66l.17-.31ZM1123.5,677v-.49H1096l.21.49ZM1010.44,336.14l-4.6-5.45-4.29,3.51c0,.37.09.74.14,1.11ZM939.39,1483h-7.92l6.07,5.59C938.26,1486.43,938.75,1485,939.39,1483Zm172.78,26.75v-.39h-24v.39ZM1006.5,485.61v-.44H983.62v.44Zm105.38,1040.1v-.46h-23.3v.46ZM916.81,973.89l-6-5.42v5.12Zm21-33.93c-2.79,2.73-5.79,5.35-4.89,10.83Zm-8.14,485,6.36,8.16C933.34,1425,933.34,1425,929.63,1425ZM1261,441.9v-5.78l-5.7-.29Zm-11,499.38c.19-1.63.34-3,.5-4.41l-.77-.55-5.1,5Zm-208.24-21.2c1-4.23.73-5.54-1.61-8.23C1039.63,916.13,1039.78,916.92,1041.83,920.08Zm22.06-230.36v-.26h-15.14l-.07.26Zm29.92,1v-.39h-15.63l.18.39Zm12.81.62v.32h14.81v-.32Zm-95.16-205.2c-.6,3.19-1,5.38-1.42,7.58a12.94,12.94,0,0,0,0,2C1012.35,494.11,1012.35,494.11,1011.46,486.13Zm7.48,202.33v.2h12.53v-.2Zm115.12-117.12,1.36,1.26,5.32-5.89C1138.11,567.87,1135.24,568.83,1134.06,571.34ZM997.63,687.71v-.22H987.43v.22Zm9.16-187.92c-.34-.12-1.28.51-1.38.92s.35,1.48.71,1.55a36.14,36.14,0,0,0,4.31.39l.16-1A37.66,37.66,0,0,0,1006.79,499.79Zm43.39,3.82c.12-2.77,1.18-5.09-2.15-6.35Zm82,76.43.7-.73-4.59-4.55-.87.93Zm-194-93.53,1.25,7.16C941.31,490.81,939.41,488.73,938.19,486.51ZM1068.85,502l.37-1.12-6.52-2.28-.33,1.44Zm-9.55-7c2.42-.15,2.42-.15,3.52-4.86ZM847.53,665.26c.08.31.15.62.23.93l7.29-2-.2-.77Zm97.09-166c-3.68-.54-3.68-.54-7.62,1.65Zm68.83,364.64-.79.66,3.37,3.89.77-.76Zm52.84-373.49-.87-.2-1.28,5,1.44.29C1065.82,493.86,1066.06,492.15,1066.29,490.44ZM840.82,1302.6H836C837.51,1304.26,839,1304.64,840.82,1302.6Zm326.6-747.74-3.49-3.88-.53.66ZM834.2,1335.51c-1.61-1.91-3-1.82-4.45-1.13l-.09,1.13Zm324.56-789.45.46-.4-3-3.29-.4.54ZM833.43,1170.82l.21-.87-2.81-.73-.05,1.24Zm9.3,58.24c-1.41-.92-1.87-1.42-2.42-1.54a5.55,5.55,0,0,0-1.78.21l0,1Zm.38,27.27c-2.16-1.49-3.2-1.57-4.58,0Zm293.53-690.26c-2.68-.13-3.91.33-4.67,1.5.23.36.46.72.7,1.08Zm-94.07,294.84-.56-.15c-.32,1.26-.65,2.53-1,3.79l.92.39C1042.16,863.6,1042.36,862.26,1042.57,860.91Zm-224.2,522.45-.06,1,3.07.15.09-1ZM1124.6,567.81l-.54.14.78,3.3.78-.1ZM898.87,720.19l.18.95,3.23-.88c0-.18-.07-.36-.11-.55Zm-71.66,627,0,.83,3.09.23,0-1.06ZM1127.1,791.3l-.58-.66-3.12,2.83.53.6Zm4.25,11.69-3.17-2.38C1127.94,803.21,1129.28,803.23,1131.35,803ZM831.23,1159.4l.4-.64a5.51,5.51,0,0,0-1.48-1.12,4.18,4.18,0,0,0-1.64.19c0,.26,0,.52-.08.78Zm376.72-488-.84.68,2.38,2.89,1-.72ZM862.82,840.73c-.81,2.61.28,2.91,2.7,3Zm41.33-200.07.2-.7-3.82-1.15-.22.78Zm94,375.38.27-.3-1.3-1.66-.47.54Zm25.27-520-.51-.46-2,2.24.58.53ZM856.9,667.78c.06-.25.11-.5.17-.76l-2.48-.46-.12.54ZM1144.5,531l-.73.74,1.92.95.2-.57Zm-7.87-6.91-.75.76,2.95,1.11Z"/><path class="cls-1" d="M910.17,623.7c2.51,1,5.09,1.95,7.51,3.18,2.77,1.42,5.39,1.41,7.8-.47,3.55-2.76,6.8-2.43,10.78-.46s5.22,4.63,6,8.61.21,7-2.48,9.76c-.78.82-1.27,1.95-2.12,2.69a9.45,9.45,0,0,1-3.56,2.29c-7,1.68-10.31.3-14.42-5.65-.27-.41-.71-.77-.82-1.21-.34-1.37-1.17-3-.72-4.12,1.57-3.76-.41-5.77-3-7.86-2.1-1.7-4-3.67-5.94-5.53Zm22.34,4.38,4.41,5C937.61,630.25,935.58,628.87,932.51,628.08Zm1.42,10.26-6-2.61C929.05,637.77,929.81,640.72,933.93,638.34Zm-.81-2.82c-.27-1-.29-2-.56-2.06a19.64,19.64,0,0,0-3.27-.43l-.06.85Z"/><path class="cls-1" d="M920.55,714.29c2.15-2.75,4.58-3.59,8-3.46,4.8.18,8.53,1.47,10.51,6.15a8,8,0,0,0,.88,1.18c1.77,2.65,1.77,12.17-.68,13.89a31.15,31.15,0,0,1-9.69,4.18c-1.38.38-3.51-.64-4.81-1.64-3.64-2.81-7.24-3.07-11.32-1.13-1.6.76-3.53.82-5.32,1.2-.17-.39-.35-.78-.53-1.17l10.43-7.94C915.53,720.83,917.93,717.63,920.55,714.29Zm9.73,6.34-5.89,4.52C930.73,723.33,930.73,723.33,930.28,720.63Zm-2.52,5.7c0,.23.06.47.08.7h3.71c0-.46,0-.93-.08-1.39Zm4.5,5.75-.19-.54-3.75,1.32.53.61Z"/><path class="cls-1" d="M858.41,1233.67c1.79,41.64-4,82.41-13.6,122.75,0,0,.22.15.34.22C854.14,1345.58,865.38,1245.88,858.41,1233.67Z"/><path class="cls-1" d="M877.9,1263.19c6.05-8.78-3.87-86.4-9.07-96.33a39,39,0,0,0,.33,4.47,623.91,623.91,0,0,1,8.19,61.93c.69,8.16.4,16.4.55,24.61C877.93,1259.64,877.9,1261.42,877.9,1263.19Z"/><path class="cls-1" d="M868.54,1343.26c5-9.65,12.62-66.63,9.67-74.7-2,6.6-1.12,12.85-2.07,18.88-1,6.31-1.26,12.72-2.1,19.06-.81,6.17-1.84,12.32-3,18.45s-2.45,12.07-3.7,18.1Z"/><path class="cls-1" d="M893,1270.77c1.71-6.71,2.21-13.53.47-20.36A64.92,64.92,0,0,0,893,1270.77Z"/><path class="cls-1" d="M889.92,1308.8c1.84-5.45,2.25-11,2.4-17.56C889.65,1294.76,888.36,1304.41,889.92,1308.8Z"/><path class="cls-1" d="M855,1204.16c.61,5,1.22,10,2,16C859.09,1216.3,858.25,1207.86,855,1204.16Z"/><path class="cls-1" d="M893.58,1245.57c1.8-3.64,1.11-7.18-.17-11C891.81,1237.06,891.79,1240.33,893.58,1245.57Z"/><path class="cls-1" d="M826.71,732.07c1.68-.87,3.34-1.78,5-2.61,3.1-1.5,6.18-3.05,9.34-4.41,3.66-1.57,6.34-3.81,7-8a12.15,12.15,0,0,1,1.54-4.13,5.21,5.21,0,0,1,2.37-2.21c5.84-2.22,8.82-1.26,12.6,3.81.39.53.79,1,1.16,1.59a13.37,13.37,0,0,1-2.87,18.24c-1.8,1.38-3.52,1.69-5.44.64-2.83-1.55-5.62-3.18-9.11-5.16l-21.16,3.92Zm23.48-9.67a5.57,5.57,0,0,0-1.88,1.5c3.3-.55,6.51-1.27,9.16-3.15l-.58-1.28C854.65,720.45,852.4,721.39,850.19,722.4Zm2-8.15.18,1.11,4.4-.88c-.06-.38-.12-.77-.17-1.15Zm2.1,11.23,4.07-.25C856.79,723,855.59,724.33,854.31,725.48Z"/><path class="cls-1" d="M829.2,622.5c3.88,1.06,7.85,1.86,11.6,3.24,6,2.21,11.57,2.64,17-1.39,1.59-1.17,3.74-2.64,5.79-.65,2.35,2.3,5.68,3.66,5.69,8A20.6,20.6,0,0,1,864,646c-2.72,3.19-5.58,2.57-8.83,2.28s-4.89-1.79-5.2-4.81c-.76-7.38-5.07-11.59-11.78-14a53.06,53.06,0,0,1-7.38-3.88,19.45,19.45,0,0,1-2.17-1.59Zm21.2,11-.38.73,8.45,4.48c.19-.51.39-1,.58-1.51Zm10,1.35c.11-.46.21-.92.32-1.39l-4.19-.81-.25,1.19Z"/><path class="cls-1" d="M870.81,680.82V688C872.65,684.14,872.64,683.72,870.81,680.82Z"/><path class="cls-1" d="M1127.25,962.26c-3.79,1.18-2.28-3.32-4.31-4.38L1076.4,956a15.51,15.51,0,0,0-3.34,9.85c0,6.56-.49,13.12-.76,19.68-.08,2-.14,4-.2,5.93h-1.18a61.46,61.46,0,0,1-.38-7.16c.53-9.24-1.32-18.72,2.68-27.64.74-1.67.08-2.72-2.32-3.37-1.14,3.54-3,6.87-3.16,10.29-.53,10-.4,20-.5,30,0,1.25.18,2.5.27,3.65l4.27.72-4.06,3c.92,1.62,1.7,3,2.07,3.67,4.17-.4,7.67-1,11.16-1,6.73,0,13.45.46,20.18.72l24.35,1a26.2,26.2,0,0,1-1.29,3.57c-1.14,2.18-2.66,4.19-3.61,6.44-1.43,3.44-3.81,4.31-7.37,4.12-14.09-.78-28.19-1.33-42.29-1.93-11-.47-8.1,1-13-8.55-1.41-2.74-3-5.34-2.92-8.72.42-13.79.64-27.58,1-41.36a8.73,8.73,0,0,1,.56-3.36c1.88-4,3.94-7.94,5.88-11.92a3.34,3.34,0,0,1,3.59-1.93q21.88.88,43.78,1.69c2.13.08,4.26.21,6.39.28a5.14,5.14,0,0,1,5.15,3.69c1.86,5,3.93,9.95,5.92,14.91Zm-69.39,0v35.86h6.77c.69-11.76.72-23.61.5-35.86Zm5.68,52.92c13,.37,25.92.69,38.8,1.12,3.06.11,4.44-1.36,5.06-4.82-15.41-1.06-30.61-1.66-46.59-2Zm-1.45-65.35,45.53,1.61c-.69-4.88-1.19-5.6-4.88-5.75-12.14-.5-24.28-.87-36.42-1.28a13.53,13.53,0,0,0-2,.3Zm57.06,58.35c-3.76-1.25-38.51-2.85-43.63-2C1078.71,1007.39,1113,1009,1119.15,1008.15Zm.7-52.71.05-1.09L1076,952.43l0,1.3C1090.61,954.58,1105.22,955.29,1119.85,955.44Zm-51-2.77h-8.44c-.82,1.81-1.71,3.82-2.65,5.92C1067,960.53,1067,958.93,1068.87,952.67Zm-10.73,48.2c-.64,5.48.95,6.47,10.11,6.06l-3-6.06Zm50.76,15.85h8.31l2.55-4.94C1110.89,1011,1110.89,1011,1108.9,1016.72Zm11-65c-.94-5.86-1.46-6.12-10-4.89C1111.64,952,1112.58,952.46,1119.92,951.68Z"/><path class="cls-1" d="M1120.87,967.3c.17,9.3,0,18-.7,27.3-14.61-.53-28.75-.72-42.77-1.93V966C1092.15,965.43,1106.26,966.66,1120.87,967.3Zm-22.53,1.94v22.3l19.93,1.17c.3-8,.58-15.43.89-23.47Zm-3,22.48c.18-7.68-.87-14.88-1-22.62l-14.53-1.16a216.19,216.19,0,0,0,1.71,22.91Z"/><path class="cls-1" d="M900.73,980.13a124.09,124.09,0,0,0,34.91.13C924,978.59,912.41,979.1,900.73,980.13Z"/><path class="cls-1" d="M1127.25,962.26c-.57,2.35-1.55,4.69-1.62,7.06-.29,9.65-.3,19.32-.39,29a2.73,2.73,0,0,0,1,2,9.91,9.91,0,0,0,.87-2.74c.08-11.78.07-23.56.1-35.34Z"/><path class="cls-1" d="M1045.92,1563.55a152.72,152.72,0,0,0-29.86-.62C1019.18,1565,1039.57,1565.38,1045.92,1563.55Z"/><path class="cls-1" d="M930.77,1563.28h5.84v-.88h-5.85Z"/><path class="cls-1" d="M1122.52,1453.34c3.3-5.59,1.85-10.58-.76-15.58l-8.22-.91c.25-4.12,6-3,4.8-7.66,2.71,1.57,4.32,3.06,5.09,5.37,2.84,8.56,5.71,17.12,8.5,25.69.21.63-.06,1.41-.17,3-3.33-3.86-3-8.55-5.93-12.29-1.82,4.51-3.38,8.39-5.13,12.71,3.57.31,6.49.55,9.41.83,3.45.32,3.65.6,3.51,5a257.08,257.08,0,0,1-39.37-1.48,17.44,17.44,0,0,1,5-3c6-2.48,12.38-.19,19-1.68C1119.65,1460,1120.7,1456.42,1122.52,1453.34Zm4.56,13.25a92.14,92.14,0,0,0-14.07.71h16.88l0-.56C1129,1466.69,1128,1466.6,1127.08,1466.59Z"/><path class="cls-1" d="M1139.18,1577.73l.46-6.81C1137,1573.74,1137,1573.81,1139.18,1577.73Z"/><path class="cls-1" d="M1024.32,809.77c-3.44-.65-6.38.6-9.16,2.42C1018.62,813,1021.51,811.62,1024.32,809.77Z"/><path class="cls-1" d="M866.87,1631.78c-8.73-18.2-18.07-36.1-27.27-55-.5,1.41-1.08,2.21-1,2.88a12.45,12.45,0,0,0,1.33,3.14q11.74,23.79,23.54,47.54a12.42,12.42,0,0,0,2,2.34Z"/><path class="cls-1" d="M1194.08,699.14c-.57-5.69-1.75-10.73-1.35-15.64.39-4.74,2.42-9.33,4-14.87C1189.8,675,1188.58,691.25,1194.08,699.14Z"/><path class="cls-1" d="M761.91,447.2c2.6-.73,4.34-2.39,5.94-5.7C764.46,442.88,762.81,444.64,761.91,447.2Z"/><path class="cls-1" d="M999.36,864.25c-5.79-1.06-11.59-1.08-18.31-.9C984.73,865.83,993.78,866.24,999.36,864.25Z"/><path class="cls-1" d="M883.07,976c-2.3,8.69-11.29,12-18,6.78A14.11,14.11,0,0,1,860.8,966a13,13,0,0,1,12.09-7.81c5.06,0,7.76,3.14,9.62,7.18.8,1.73.87,3.8,1.17,5.28A37.18,37.18,0,0,1,883.07,976Zm-1.55-6.63c-.42-4.14-3.44-8.21-6.64-9a10.53,10.53,0,0,0-11.06,4.73,11.42,11.42,0,0,0-.62,12.13c1.85,3.57,4.72,5.79,9,5.72a9.67,9.67,0,0,0,8.65-6.78,38,38,0,0,0,.89-4.8l-.22,0A18.48,18.48,0,0,0,881.52,969.37Z"/></svg>