<svg id="Layer_1" data-name="Layer 1" xmlns="http://www.w3.org/2000/svg" viewBox="0 0 2000 2000"><defs><style>.cls-1,.cls-2{stroke:#1d1d1b;stroke-miterlimit:10;stroke-width:3px;}.cls-2{fill:#fff;}</style></defs><path class="cls-1" d="M383.29,1231.91c-4.24-2.18-4.74-3-4.27-7.67,1.12-11.21,2.34-22.41,3.45-33.62,1.17-11.87,2.34-23.75,3.34-35.63a72.72,72.72,0,0,1,3.32-15c6.61-21.86,13.3-43.7,19.83-65.59,2-6.76,5.58-12.72,8.83-18.85,8.53-16.09,17.21-32.09,25.72-48.19a121.52,121.52,0,0,1,14.4-21.94C471.49,969.34,484.73,953,498,936.64a90.41,90.41,0,0,1,13.08-12.87c17.71-14.48,35.44-28.93,53-43.54,4.4-3.66,9.47-6.07,14.4-8.73,13.1-7.08,26.28-14,39.44-21q18.43-9.75,36.89-19.42c.88-.47,1.75-.94,2.64-1.4a5.36,5.36,0,0,0,3.1-5.2c0-5.31.34-10.61.34-15.91q0-41.28-.11-82.57c0-1.78-.17-3.55-.27-5.36-2.62-.5-4.85-1-7.1-1.35-2.56-.43-3.59-2.13-3.87-4.48a20.55,20.55,0,0,1-.08-2.48V686c0-.83,0-1.67.09-2.49a4.66,4.66,0,0,1,3.54-4.29c1.72-.52,3.46-1,5.46-1.5.08-1.89.23-3.68.24-5.47q.07-31.08.12-62.17,0-67.64,0-135.28c0-6.3-.31-12.6-.3-18.9a5.33,5.33,0,0,0-3-5.18c-7.18-4.12-14.25-8.43-21.43-12.54a19.56,19.56,0,0,0-5.49-2.05,4.58,4.58,0,0,1-3.79-3.35c-1-2.87-1.14-2.73-4.23-2.69a34.35,34.35,0,0,1-14.46-3c-11.92-5.3-19.89-14.51-24.64-26.62a14.82,14.82,0,0,1-.71-7.32,4.64,4.64,0,0,1,4.61-4.36c3.27-.24,6.62-.65,9.9,1.81.14-2,.27-3.62.36-5.21.71-11.52,9.31-20.59,18.39-22.9s17-.83,24,5.44a13,13,0,0,1,2.09,2.11c2.3,3.23,5.49,4,9.19,3.57,1.48-.18,3-.45,4.45-.49,2.46-.06,4-1.17,5.81-3,4.14-4.28,9-7.84,15-9.21,2.58-.59,5.13-1.32,7.7-1.93a31.67,31.67,0,0,1,4.86-1c6.28-.45,12.56-1,18.85-1.13,90.18-2.12,180.37-.64,270.55-1,9.27,0,18.56.42,27.81,1a52.33,52.33,0,0,1,10.61,2.28c10.41,2.9,10.35,3,17.8,10.73a30.38,30.38,0,0,1,6.72,9.7c4.37,10.73,9,21.37,13.27,32.12,6.87,17.22,13.56,34.51,20.34,51.77q14.45,36.75,28.9,73.49c.36.92.74,1.84,1.1,2.77a3.9,3.9,0,0,0,2.38,2.28c7.92,3.33,15.82,6.72,23.66,10.24A86.31,86.31,0,0,1,1138,557c4.41,2.62,8.82,5.27,13.08,8.13,3.85,2.57,7.5,5.45,11.23,8.2,11.54,8.5,21.41,18.77,30.85,29.46,3.07,3.46,5.6,7.38,8.45,11,6.45,8.26,11.28,17.48,16.28,26.65,5.36,9.84,9,20.33,12.14,30.9,3.45,11.71,6.2,23.72,6.48,36.1.15,6.45.9,12.92.68,19.36a177.28,177.28,0,0,1-5,37.36c-3.6,14.34-8.33,28.23-15.53,41.21-1.77,3.18-3.27,6.5-4.9,9.75,1.18,3.26,2.28,6.55,3.54,9.77q12.32,31.46,24.67,62.87c7.32,18.64,14.84,37.21,21.92,56,4.44,11.76,8.23,23.77,12.32,35.67,4.8,13.93,9.66,27.83,14.36,41.79a29.67,29.67,0,0,1,1.47,7.75c1,17.54,2,35.08,2.81,52.63.55,11.92,1.18,23.85,1.19,35.78q.12,216.86,0,433.71c0,15.41-.6,30.83-.92,46.24,0,.83,0,1.66-.1,2.48a5.53,5.53,0,0,1-5,5.23,39.23,39.23,0,0,1-6.94.08c-3.7-.27-5.71-2.31-5.93-6-.39-6.62-.85-13.24-.92-19.87-.15-13.76-.07-27.52-.1-41.28,0-5.8-.34-11.62,0-17.4.34-6-1-11.11-6.19-14.67-9.93-11.09-9.21-7.55-9.53-23.21-.69-34.81-.8-69.62-1.19-104.44q-.59-52.71-1.24-105.43-.6-53.71-1.16-107.42c-.22-20.56-.26-41.12-.79-61.67-.29-11.09-1.39-22.16-2.23-33.23-.76-9.91-1.68-19.81-2.49-29.72-.43-5.28-.68-10.59-1.25-15.86a22.62,22.62,0,0,0-1.76-6.66c-2.43-5.43-5.11-10.76-7.75-16.11-6.58-13.37-13.42-26.62-19.73-40.12-7.22-15.48-15.87-30.17-24.19-45q-12.75-22.76-25.61-45.43c-.73-1.28-1.53-2.53-2.51-4.14a18.51,18.51,0,0,0-2.4,1.61c-6.26,5.78-13.59,10-20.75,14.49a185.3,185.3,0,0,1-45.95,20.77c-4.43,1.3-8.84,2.7-13.25,4.1a11.46,11.46,0,0,0-1.94,1.13l12.07,10c2.56,2.1,5.25,4.07,7.69,6.3a95.77,95.77,0,0,1,9.16,9.08c15.35,18.5,30.53,37.13,45.83,55.67a64.29,64.29,0,0,1,7,10.81c10.14,19,20.13,38,30.54,56.87,4.87,8.8,7.8,18.21,10.65,27.72,5.52,18.39,11,36.8,16.74,55.12a86.1,86.1,0,0,1,3.34,17.5c1.15,11.54,2.19,23.09,3.32,34.64.84,8.57,1.75,17.14,2.61,25.71.18,1.81.31,3.63.42,5.45.3,5.09.29,5.09-4.44,7.83,4.5.91,4.87,3.87,4.46,7.53-.94,8.56-1.62,17.15-2.46,25.73-.86,8.9-1.79,17.8-2.66,26.71-.72,7.25-1.36,14.51-2.12,21.76a23.41,23.41,0,0,1-1,4.34c-7.28,23.91-14.65,47.79-21.81,71.74a69.19,69.19,0,0,1-5.94,13.07c-11.19,20.67-22.37,41.35-33.79,61.9-2.15,3.85-5.26,7.21-8.14,10.62-13.92,16.44-28,32.79-41.86,49.25a68.23,68.23,0,0,1-10.42,9.9q-27.72,21.46-55.41,43a44,44,0,0,1-7.11,4.52c-22.51,11.23-45,22.45-67.64,33.48-3.67,1.78-7.79,2.7-11.75,3.8q-33.68,9.39-67.39,18.62a75.94,75.94,0,0,1-10.72,1.93c-4.1.52-8.24.78-12.37,1.1-13.7,1.09-27.4,2.12-41.1,3.24-5.28.44-10.54,1.15-15.82,1.57a66,66,0,0,1-9.43.21c-6.11-.38-12.21-1-18.31-1.57-4.45-.4-8.9-.86-13.36-1.21-9.73-.77-19.48-1.47-29.22-2.25-5.11-.41-10.27-.63-15.31-1.49-5.52-.95-11-2.39-16.39-3.87q-31.56-8.61-63.08-17.41a48.31,48.31,0,0,1-8.35-3.08q-33.18-16.34-66.27-32.87a49,49,0,0,1-8-5q-28.35-21.87-56.55-43.92a58.56,58.56,0,0,1-8.21-7.92c-15.43-18-30.71-36.12-46.15-54.11a61.28,61.28,0,0,1-7-10.79l-26.85-49.28c-2.29-4.21-4.68-8.38-6.83-12.67a50.19,50.19,0,0,1-3.17-7.8q-11-35.84-21.84-71.73a47.26,47.26,0,0,1-1.77-8.73c-1.52-15-2.89-30-4.35-45-.8-8.24-1.7-16.47-2.54-24.72-.11-1-.16-2-.21-3-.11-2.37.56-4.26,3.12-5A5.56,5.56,0,0,0,383.29,1231.91Zm489.09-622.2c-1.46.45-2,1.7-2.44,2.95,1.15-.72,2.22-1.51,2.35-3,.92-.9,2.33-1.49,2-4.14C873.41,607.42,872.89,608.56,872.38,609.71Zm136.32-74.63,8.16-.49c-2.72,0-5.54-1.06-8.09.57-2.41.21-4.94-.56-7.23.8l-9.45,1.36a17.53,17.53,0,0,0,9.38-1.45Zm46.53,0,7.23.81a27,27,0,0,0,11,2c2.3,1.35,4.94,1.36,7.43,1.93,2.66.61,5.29,1.32,7.94,2-4.88-2.47-10.12-3.35-15.45-3.84l-10.95-2c-2.29-1.35-4.82-.59-7.24-.81-3-1.53-6.1-.79-9.2-.51ZM991.58,897.14a30,30,0,0,0,11.26,1.74c.37.29.71.82,1.1.84,9.86.72,19.72,1.53,29.6,2,3.59.16,7.22-.74,10.83-.77a96.81,96.81,0,0,0,21.5-2.54c-21,3.07-42.06,2.91-63.12.56-3.7-.91-7.39-2-11.26-1.72-3.87-1.91-8.2-1.73-12.26-2.78C983.17,896.21,987.36,896.75,991.58,897.14Zm198.1-290.6a3.59,3.59,0,0,0,2.32,3.12,4.82,4.82,0,0,0-2.41-3c-2.23-4-5.8-6.87-9.15-9.89C1183.3,600.21,1186,603.84,1189.68,606.54Zm26.73,169.1a7.9,7.9,0,0,0,1.34-1.95c1.37-4.41,2.67-8.84,3.94-13.29,3.74-13.15,4.4-26.73,5.43-40.25a31.74,31.74,0,0,0-.17-4.46c-.23-3.14-.43-6.28-.77-9.4-.63-5.75-1.11-11.53-2.1-17.22-1.08-6.18-2.14-12.46-4.14-18.38-3.75-11.1-7.82-22.08-13.35-32.54a174.6,174.6,0,0,0-20-30.13,189.61,189.61,0,0,0-44.89-39.62A202.28,202.28,0,0,0,1098,547.55c-3.92-1.31-7.84-2.63-11.82-3.69a220.83,220.83,0,0,0-37.52-6.52,4.92,4.92,0,0,0-4,.81,15.38,15.38,0,0,0,1.85.54c5.9.7,11.84,1.18,17.7,2.12a174.86,174.86,0,0,1,18.89,3.78c11,3,21.91,6.26,32.22,11.24,4.76,2.3,9.78,4.15,14.28,6.87,10.62,6.4,21.38,12.66,30.64,21.07,1.34,1.23,2.8,2.33,4.2,3.5a151.51,151.51,0,0,1,22.32,23.26C1194,619.75,1201,629.26,1206,640c2.8,6,6.14,11.71,8.15,18.06,1.79,5.68,4.16,11.2,5.54,17a207.31,207.31,0,0,1,5.45,31.73,165.87,165.87,0,0,1-1.07,36.15c-1.36,10.1-3.22,20.27-7,29.89a14.65,14.65,0,0,0-.52,2.91,19.85,19.85,0,0,0-1.62,3c-1.93,5.44-3.81,10.89-6.66,16-.15.25,0,.67,0,2.09C1212.21,789.4,1215.23,782.88,1216.41,775.64Zm-1.93-129.18c-1.9-5.34-2.19-5.83-4.91-8.15,1.34,2.58,2.41,4.74,3.59,6.83.29.52.94.83,1.42,1.24.69,2.37,1.3,4.76,2.08,7.1,2.61,7.84,5.92,15.42,7.72,23.55a215.09,215.09,0,0,1,5,34.34c.42,7.3-.3,14.55-.57,21.83-.44,12-3.12,23.68-6.39,35.08a154.3,154.3,0,0,1-15.9,37.36c-1.45,2.4-2.54,5.05-4.16,7.33-6.42,9-12.73,18.12-20.25,26.37a194.67,194.67,0,0,1-29.64,26.4,167.46,167.46,0,0,1-33.9,19.57c-4.57,1.9-9,4.34-13.67,5.82-10.22,3.23-20.36,6.62-31,8.74a228.35,228.35,0,0,1-36.39,4.2c-9.4.35-18.85-.58-28.28-1a4.1,4.1,0,0,1-.49-.06c-8-1.41-16-2.5-23.9-4.3A196.65,196.65,0,0,1,949.19,887c-2-.86-3.86-1.88-5.84-2.71-11.52-4.85-22-11.55-32.06-18.79-10.74-7.74-20.91-16.31-29.51-26.52-3.73-4.43-7.66-8.72-11.09-13.37a187.85,187.85,0,0,1-16.18-25.57,182,182,0,0,1-14.86-39.35,178,178,0,0,1-5.15-39.31c-.11-4.95.58-9.91.71-14.87a102.5,102.5,0,0,1,2.13-18.22c2.16-10.38,4.39-20.71,8.56-30.53,1.85-4.35,3.31-8.87,5.13-13.81-2,1.57-2.52,3.49-3.17,5.24-2.14,5.73-4.18,11.5-6.24,17.26a40.22,40.22,0,0,0-1.9,5.64c-2,10.37-4.75,20.58-5.52,31.24-1.2,16.61-.75,33,2.43,49.42A170.1,170.1,0,0,0,852.56,799c2.52,4.84,4.78,9.88,7.84,14.37,6.43,9.44,13,18.79,20.8,27.22A195.85,195.85,0,0,0,910.88,867c10.35,7.38,21.14,14.24,33,19.09,4.59,1.87,8.94,4.4,13.62,6,12.2,4.06,24.44,7.88,37.21,10.14,12.94,2.3,25.92,2.92,39,3.5,3.28.15,6.59-.73,9.88-.74a123.21,123.21,0,0,0,22.19-2.14c5.68-1.06,11.46-1.73,17-3.26,8.59-2.37,17.26-4.75,25.46-8.17,10.81-4.5,21.54-9.28,31.56-15.55,14.53-9.1,28.11-19.29,39.81-31.87,3.83-4.12,7.94-8.06,11.26-12.57,7.36-10,14.55-20.06,20.16-31.26A186.41,186.41,0,0,0,1226,759.78a158.93,158.93,0,0,0,4.41-31.91c.38-11.45.36-22.94-1.5-34.21-1.91-11.56-4.22-23.12-8.82-34-1.09-2.59-1.84-5.33-2.91-7.92C1216.39,649.89,1215.38,648.2,1214.48,646.46Zm-550.89,75c0,3.4,0,6.21,0,9-.08,30.83-.22,61.67-.18,92.5,0,4.54-1.63,7.47-5.64,9.54-11.61,6-23.14,12.15-34.7,18.24-15.07,8-30.18,15.84-45.2,23.89a76.42,76.42,0,0,0-13,8.16c-19.1,15.89-38.39,31.57-57.59,47.35a28.59,28.59,0,0,0-3.84,3.86q-24.33,29.55-48.58,59.16a41.88,41.88,0,0,0-4.15,6.17c-3.12,5.65-6.05,11.4-9.1,17.09-7.19,13.43-14.45,26.82-21.58,40.27-2.71,5.11-5.86,10.15-7.58,15.61-7.8,24.78-15.16,49.69-22.67,74.57a18.66,18.66,0,0,0-.76,3.37q-1.51,14.07-2.95,28.16-2,19.52-3.84,39c-.24,2.47-.41,5-.47,7.44-.08,3,.28,3.57,3.07,4.16s5.86.89,8.8,1.26a198.5,198.5,0,0,0,24.72,1.88c.83,0,1.66,0,2.48.06,8.92.58,17.82,1.27,26.74,1.71s17.87.25,26.81.85c11.56.78,23.17.42,34.77,1,14.72.79,29.48.51,44.23.91,31.81.85,63.64.89,95.46,1.26,3.48,0,7,0,10.45,0,38.29.29,76.58.17,114.87.8,34.46.56,69,.16,103.43-.58,42.75-.91,85.53.29,128.3-1,24.17-.72,48.39-.18,72.57-1.14,10.76-.42,21.52-.1,32.29-.81,11.72-.78,23.51-.37,35.26-1.08,12.89-.78,25.82-.89,38.72-1.3.5,0,1,0,1.49-.09,7.91-.59,15.83-1.16,23.74-1.79,4-.32,7.9-.68,11.83-1.21a29.56,29.56,0,0,0,5.24-1.45,2.62,2.62,0,0,0,2-3.06c-.21-1.63-.57-3.26-.72-4.9-.77-8.41-1.48-16.81-2.24-25.22q-.52-5.68-1.12-11.36c-.89-8.56-1.92-17.1-2.63-25.67a69.59,69.59,0,0,0-2.59-14.62c-6.41-21-12.86-42.08-19.06-63.19a110.26,110.26,0,0,0-8.92-21.48c-10.23-18.93-20.28-38-30.45-56.92a47.75,47.75,0,0,0-4.68-7.59q-24.66-30.25-49.51-60.36a26.47,26.47,0,0,0-3.46-3.56c-7.78-6.46-15.64-12.82-23.39-19.31a5,5,0,0,0-4.53-1.08c-8.3,1.37-16.51,3.35-25,3.57-6.44.16-12.9,1.17-19.32.93-12.22-.46-24.48-.67-36.52-3.35-5.64-1.26-11.45-1.84-17-3.38-15.31-4.25-30.26-9.59-44.34-17-12.45-6.58-24.48-13.86-35.2-23.13-4-3.47-8.49-6.45-12.16-10.24-9.79-10.12-19.21-20.53-27.24-32.22a184,184,0,0,1-16.62-29.9c-4.39-9.94-8.26-20.19-10.44-31s-4.68-21.69-4.66-32.88a52.22,52.22,0,0,0-.93-7c-1.26-.13-2.22-.32-3.18-.33-23.37-.31-46.74-.56-70.11-.9q-34.05-.49-68.11-1.14c-1.32,0-2.63-.28-4-.41A94.52,94.52,0,0,0,663.59,721.44Zm565.27,515.74c-6.88.79-13.09,1.71-19.33,2.19-10.72.83-21.46,1.43-32.2,2-7.27.41-14.55.77-21.83,1-10.27.29-20.53.28-30.8.94-12.06.78-24.17.83-36.26,1.07q-30.57.6-61.15,1-48.22.61-96.46,1.06c-33.81.3-67.63,0-101.44.83-32.31.84-64.64-.45-96.95-.74-37-.34-73.93.32-110.89-.85-25.51-.81-51-.82-76.57-1.16-8.12-.11-16.24,0-24.36-.27-16.39-.48-32.78-1.15-49.17-1.68-5.8-.19-11.61,0-17.4-.31-10.91-.49-21.81-1.14-32.72-1.75-6.78-.38-13.56-.63-20.31-1.25-6.22-.56-12.41-1.53-19-2.36a25.93,25.93,0,0,0-.21,3.76c.44,5.45.95,10.89,1.48,16.32.88,9.07,1.81,18.13,2.7,27.19.76,7.74,1.35,15.51,2.27,23.23a66.5,66.5,0,0,0,2.18,12.19c6.32,20.38,12.38,40.85,18.65,61.26a119.87,119.87,0,0,0,5.65,15.85c3.22,6.89,7.13,13.45,10.77,20.14,7.59,14,15.26,27.87,22.78,41.86a73.58,73.58,0,0,0,8.83,13.15c15.2,17.75,30.29,35.6,45.47,53.36a37.08,37.08,0,0,0,5.35,5.13q28.6,22.35,57.31,44.54a54.83,54.83,0,0,0,8.81,5.5q32.6,16.35,65.31,32.49a45.78,45.78,0,0,0,7.85,3c21.46,6,43,11.82,64.42,17.82,8.79,2.46,17.62,4.29,26.8,4.42,4.45.06,8.9.62,13.34,1,9.38.88,18.74,1.87,28.12,2.69,5.92.52,11.87.8,17.81,1.22,1,.07,2,.46,2.93.48,3.13.06,6.27.06,9.4,0,1,0,1.95-.4,2.93-.47,5.78-.42,11.55-.77,17.33-1.2,4.78-.35,9.56-.75,14.33-1.17,6.25-.56,12.5-1.2,18.75-1.74,5.11-.43,10.26-.52,15.33-1.2a109.48,109.48,0,0,0,15.57-2.76c21.77-6.15,43.6-12,65.39-18.1a62.75,62.75,0,0,0,10.74-3.7c22.73-11.13,45.38-22.43,68-33.7a28.57,28.57,0,0,0,4.65-2.83q29.47-22.82,58.87-45.75a45.34,45.34,0,0,0,6.46-6.16q23.57-27.58,47-55.3a37.72,37.72,0,0,0,4.26-6.08q16.59-30.27,33-60.61c2.44-4.5,4.9-9,6.39-14,6.21-20.77,12.55-41.49,18.78-62.25a97.31,97.31,0,0,0,3.45-13.43c1.2-8,1.91-16.09,2.7-24.16.83-8.56,1.48-17.15,2.29-25.71.45-4.78,1.13-9.53,1.59-14.3C1228.33,1245.1,1228.56,1241.18,1228.86,1237.18ZM941.49,424.37c-2.16-.55-3.73-1.08-5.35-1.35a385.91,385.91,0,0,1-45.76-10.93,137.52,137.52,0,0,0-28.69-5.29c-6.09-.46-12.13-1.55-18.2-2.24-5.58-.64-11.17-1.15-16.77-1.63-1.81-.16-3.64,0-5.46-.13-9.75-.55-19.5-1.27-29.26-1.66-13.24-.54-26.49-.79-39.74-1.25-2.46-.08-4.91-.61-7.37-.9a5.33,5.33,0,0,1-4.14-3.19,12,12,0,0,1-1-2.81q-1.6-6.75-3.13-13.54a2.49,2.49,0,0,0-2.72-2.29c-1,0-2,0-3,0-7.62,0-15.25-.05-22.87,0-5.94,0-6-.86-6,5.92q0,36.56,0,73.1,0,109.17,0,218.32c0,1.82,0,3.65.13,5.47.05,1.1.57,1.91,1.8,1.92,3.12,0,6.24,0,9.73,0,.39-2.74.89-5.15,1.05-7.58.35-5.49,1.17-10.84,3.56-15.87.92-1.94,1.5-4,2.37-6a41.12,41.12,0,0,1,2.7-5.29c1.77-2.8,3.69-5.5,5.59-8.22A66.63,66.63,0,0,1,746.4,622c9.59-6.49,19.88-11.69,31.43-14.23a104.34,104.34,0,0,1,35.49-2.09c12.83,1.58,25.28,4.91,36.35,12.15,2.16,1.41,4.57,2.43,7,3.73,1.9-2.56,3.6-4.79,5.22-7.07a162,162,0,0,1,12-15.21c12.56-13.78,26.25-26.2,42.1-36.12,5-3.16,9.92-6.7,15.27-9.25,11.47-5.48,22.83-11.32,35.25-14.53,2.87-.74,5.68-1.74,8.49-2.7,1.2-.41,2.33-1,3.7-1.64a26.72,26.72,0,0,0-1-2.49c-4.16-7.72-8.21-15.51-12.57-23.12a67.86,67.86,0,0,1-6.32-15.56c-1.92-6.84-2.48-13.41-.52-20.47,1.38-5,2.54-9.87,5.5-14.18a16.4,16.4,0,0,0,1.26-3.14c-4-.89-7.47-1.82-11-2.41a6.93,6.93,0,0,1-5.36-3.91c-1.68-3.23-3.28-6.51-5.14-9.64a11.87,11.87,0,0,1-1.68-6.12C941.79,430.87,941.61,427.75,941.49,424.37Zm216,427.22c-.53-1.14-.7-1.61-.94-2q-21.71-38.49-43.45-76.95a22.78,22.78,0,0,0-3.59-4.7c-17.2-17.31-33.26-35.57-47.34-55.54-5.06-7.17-10.37-14.17-15.69-21.14-3.56-4.66-1.89-4-7.64-4q-36.54-.11-73.09-.06c-1.45,0-2.89.16-4.63.26-.1,1.85-.24,3.47-.26,5.08,0,6.63-.06,13.26-.1,19.89a31,31,0,0,1-.12,3.48,3.28,3.28,0,0,1-2.63,3.2c-2.54.56-5.09,1.08-7.89,1.67-.06,1.29-.19,2.58-.19,3.88q0,48.72.06,97.45c0,1.16,0,2.32.1,3.48a4.45,4.45,0,0,0,2.23,3.66c1,.62,2,1.07,3.08,1.61q14,7.39,28.09,14.81c15.48,8.21,31,16.38,46.42,24.71,5.66,3,11.64,5.58,16.59,9.89,4.63,4,9.47,7.78,14.18,11.7a6.21,6.21,0,0,0,5.41,1.67,182.93,182.93,0,0,0,42.72-12.41c6.38-2.72,12.69-5.67,18.78-9,5.94-3.25,11.69-6.91,17.29-10.73C1149.26,858.49,1153.24,855,1157.53,851.59ZM993.29,551.34a24.11,24.11,0,0,0,1,2.52Q1077.26,701.21,1160.46,849c1.71-1.43,3.31-2.58,4.67-4,3.27-3.3,6.45-6.68,9.61-10.07a174.21,174.21,0,0,0,21.9-30,10,10,0,0,0,.66-9.8c-5-12.42-9.86-24.92-14.76-37.4q-19.51-49.68-39-99.36-10.24-26.12-20.52-52.21c-5.45-13.87-10.94-27.71-16.28-41.62a7.68,7.68,0,0,0-5.48-5.1c-6.65-2-13.25-4.13-19.87-6.18a36.79,36.79,0,0,0-3.86-.94c-5-1-10-1.95-15.09-2.83a62.82,62.82,0,0,0-13.81-1.29,4.51,4.51,0,0,0-3.58,1.29c-7.28,8.13-20.5,7.28-27,.12a3.91,3.91,0,0,0-3-1.39C1007.65,548,1000.6,549.67,993.29,551.34ZM1096,538.8a34.44,34.44,0,0,0-.93-3.68q-14.65-37.46-29.36-74.89c-6.72-17.1-13.39-34.22-20.22-51.27-3.32-8.29-6.93-16.47-10.5-24.66a13.21,13.21,0,0,0-2.47-3.68c-2.48-2.67-5.08-5.23-7.68-7.78a7.72,7.72,0,0,0-2.76-2c-5.19-1.63-10.36-3.61-15.69-4.44a117.9,117.9,0,0,0-18.32-1.09q-116.64-.11-233.27,0c-4.3,0-8.59.56-12.89.84A1.8,1.8,0,0,0,740,368a44.44,44.44,0,0,0,0,4.47c.42,7.15,2.27,14,4.1,20.91.7,2.62,1.33,3,4.31,3.09q12.17.51,24.32,1c8.6.32,17.21.11,25.82.84,10.22.87,20.51.81,30.77,1.31,4.61.22,9.22.75,13.81,1.27,7.38.84,14.77,1.64,22.11,2.74,5.55.83,11.14,1.12,16.63,2.55,17.88,4.66,35.65,9.8,53.89,13,7.4,1.3,7.36,1.56,14.41-1,2-.73,4-1.65,6-2.24a21.25,21.25,0,0,0,9.52-6c2.65-2.75,5.42-5.37,8.14-8,5.07-5,5.12-5,11.39-1.51.29.16.58.32.86.5,5.9,3.93,12.38,7.08,16.81,13,.49.64,1.49.9,2.69,1.58a38.12,38.12,0,0,0-3,2.58c-3.82,4.13-7.53,8.37-11.39,12.47-9.43,10-18.51,20.32-24.89,32.69a22,22,0,0,0-2.68,6.89,57.82,57.82,0,0,1-1.72,8.25c-1.05,3.5-.43,6.8.31,10.23a79.41,79.41,0,0,0,8.13,21.75c3.52,6.38,6.83,12.87,10.27,19.29.92,1.72,2,3.36,3,5,10.43-1.72,20.4-4.18,30.66-4.7a4.3,4.3,0,0,0,3.56-2.3c.53-.81.92-2,1.67-2.33,6.77-3.3,13.69-5,20.92-1.28,1.85,1,4,1.31,4.84,3.8.47,1.46,2,2,3.61,2.13,5.59.57,11.2,1.06,16.72,2.05,8.12,1.46,16.17,3.29,24.23,5C1091.72,537.31,1093.53,538,1096,538.8Zm111.67,283.13c-1.26,1.59-1.92,2.32-2.48,3.12-5.26,7.44-10.36,15-16.93,21.4-5.1,5-10,10.18-15.14,15-3.68,3.45-3.84,3.28-1.36,7.75.08.14.17.28.25.43,13.14,23.37,26.42,46.68,39.36,70.16,5.43,9.86,10.18,20.08,15.15,30.18q11.73,23.85,23.3,47.77a18.38,18.38,0,0,1,1.67,6.13c.82,8.9,1.43,17.82,2.14,26.74.36,4.62.76,9.23,1.15,13.85.83,9.9,1.91,19.78,2.43,29.69.58,10.92.79,21.86.94,32.8q.6,45.24,1,90.49.58,58.17,1.13,116.35c.23,22.37.58,44.74.86,67.12q.54,44,1,88a22.74,22.74,0,0,0,.3,4,7,7,0,0,0,1.19,3.19c3.73,4.22,7.58,8.33,11.45,12.42a3.45,3.45,0,0,0,2.14,1.08c4.07.07,8.19.58,12.37-.36.08-1,.2-1.85.21-2.65.12-8.62.33-17.24.32-25.86-.06-29.17-.28-58.35-.29-87.52q-.06-133.53,0-267c0-12.59.25-25.18-.84-37.75-.24-2.8-.13-5.64-.27-8.45-.62-12.07-1.22-24.14-1.93-36.21-.43-7.26-1.12-14.41-3.69-21.4-5.47-14.91-10.43-30-15.59-45-3-8.6-5.64-17.31-8.9-25.8-8.19-21.32-16.63-42.54-25-63.8q-10.51-26.81-21.05-53.6C1211.12,830.3,1209.53,826.52,1207.66,821.93Zm-103.14-64.39c-.62-1.13-1.23-2.27-1.86-3.4q-11.72-20.76-23.44-41.53-24.63-43.7-49.24-87.41-15.12-26.84-30.27-53.64-4.89-8.65-9.88-17.24c-1.31-2.25-1.62-2.31-4-1.85-.49.09-1,.29-1.43.42-12.26,3.43-24.32,7.28-35.91,12.71a190.85,190.85,0,0,0-37.95,23.34A165.69,165.69,0,0,0,878,622.84c-1.73,2.43-3.5,4.83-5.2,7.28-.83,1.2-1.54,2.49-2.37,3.85,2.53,3.67,5,7.18,7.4,10.74a62.42,62.42,0,0,1,9.72,25.77c.43,2.78.64,5.59,1,8.39s.53,2.93,3.44,3c1,0,2,0,3,0,6.63,0,13.26,0,19.89.12,1.47,0,3.33-.18,4.32.6,2.09,1.66,4.32,1.41,6.59,1.41q39.79,0,79.58,0c11.6,0,23.21.22,34.81.12a8.73,8.73,0,0,1,7.84,4c10.49,14.3,21.16,28.46,31.78,42.65C1087,740.61,1095.46,749.23,1104.52,757.54Zm-45.52,137a27.22,27.22,0,0,0-2.21-2.4c-4.71-3.93-9.43-7.85-14.2-11.71a24.05,24.05,0,0,0-3.73-2.42c-5.68-3.06-11.39-6.07-17.09-9.09l-61-32.24q-4.6-2.43-9.19-4.9a6.92,6.92,0,0,1-4-6.35c-.14-7.13-.56-14.25-.59-21.37-.08-25.19,0-50.39,0-75.59,0-1.65-.05-3.31-.09-5,0-1.35-.66-2.17-2.11-2.19-1.16,0-2.33-.08-3.48,0-4.63.28-9.25.73-13.88.89-12.42.41-24.84.83-37.27,1-13.09.19-26.19.11-39.28.16-1.16,0-2.32,0-3.48,0a1.82,1.82,0,0,0-1.88,1.87,18.74,18.74,0,0,0-.09,2c-.06,14.2,2.5,28,6.44,41.58a159.23,159.23,0,0,0,16.73,38.08A175.74,175.74,0,0,0,891.25,837a194.25,194.25,0,0,0,34.66,28.84,184.18,184.18,0,0,0,33.51,17.14,194.71,194.71,0,0,0,32.72,9.67,240.34,240.34,0,0,0,37.4,4.06c7.74.32,15.53-.55,23.29-1A49.25,49.25,0,0,0,1059,894.49ZM673.25,680c.32-2.67.57-4.79.84-6.9.82-6.4,1-13,2.61-19.17,3.09-12.34,9.26-23,19.84-30.58a3.76,3.76,0,0,0,1.73-3.34c0-.82,0-1.65,0-2.48q-.09-116.62-.2-233.26c0-1.16,0-2.32-.07-3.48-.16-2.19-.5-2.53-2.7-2.66a54,54,0,0,0-15.22,1.77c-6.79,1.56-11.1,5.79-12.43,12.47-.64,3.25-1.23,6.51-2,9.71a9.4,9.4,0,0,1-1.9,3.94c-5.84,6.32-11.29,13-18.38,18.1-3.37,2.41-6.67,4.93-10,7.44a31.54,31.54,0,0,0-2.48,2.38c1.43.9,2.53,1.62,3.66,2.3,7.53,4.5,15,9,22.62,13.46a4.56,4.56,0,0,1,2.56,4.37c.1,7.79.53,15.57.52,23.36,0,9.28-.54,18.55-.55,27.83q-.11,84.56-.07,169.1c0,.83,0,1.66,0,2.49.18,2.37.7,3,2.95,3.12C667.27,680.11,669.9,680,673.25,680Zm530.06,112.81c1.34-3.34,2.61-6.2,3.63-9.14,2.56-7.33,5.81-14.43,7.26-22.12.8-4.23,1.84-8.41,2.62-12.63a146.5,146.5,0,0,0,2.32-29.16,162.41,162.41,0,0,0-5.22-38.78,159.55,159.55,0,0,0-14.63-37.31c-.56-1-1.19-2-1.69-3-4.53-9.49-10.92-17.81-17.53-25.82a167.08,167.08,0,0,0-26.17-25.71,185.92,185.92,0,0,0-35.68-22.26c-1.41-.65-2.85-1.23-5.21-2.24,29.88,76,59.37,151.11,88.89,226.17A13.46,13.46,0,0,0,1203.31,792.83ZM831.18,682.53c1.75-10.64,5.47-20.58,9.54-30.3s9.15-18.9,13.86-28.46c-2.14-1.27-4.09-2.52-6.11-3.63-6.52-3.57-13-7-20.36-8.92a101.05,101.05,0,0,0-43.74-2.14A86.6,86.6,0,0,0,739.6,631a75.2,75.2,0,0,0-15,19.66,57.13,57.13,0,0,0-7.34,28c0,.94.13,1.88.19,2.75C726.79,682.84,818.36,683.76,831.18,682.53ZM653,683.07c-.07.09-.42.36-.42.62-.09,10.11-.19,20.21-.16,30.31,0,1.87.9,2.54,2.83,2.83,2.29.34,4.58.74,6.88.87,7.11.4,14.22.81,21.33,1,13.75.3,27.5.66,41.24.87,32.48.5,65,.28,97.46.32,1.29,0,2.57-.22,3.88-.34,1.51-5.59,1-11.1,1.59-16.5s1.53-10.76,2.37-16.54c-2.08,0-4-.1-6-.12-31.16-.26-62.31.36-93.47-.67-18.21-.6-36.44-.52-54.65-1.3C668.31,684.06,660.72,683.52,653,683.07Zm192.79,36.21a7.38,7.38,0,0,0,1.63.42c14.25,0,28.5.1,42.75-.2,16.54-.35,33.09-1.06,49.63-1.7,5.11-.19,10.22-.62,15.33-1,2.17-.17,2.57-.56,2.65-2.74.12-3.31.09-6.63.09-9.94,0-4.64,0-9.28-.08-13.92,0-2.28-.45-2.61-2.59-2.74-1.32-.07-2.65,0-4,0-8.28-.11-16.57-.18-24.85-.36-2.31,0-4.79.07-6.88-.71a20.51,20.51,0,0,0-7.8-1c-15.24.26-30.48.58-45.72.86q-7.2.12-14.41.12c-1.78,0-2.58.74-3,2.51a120.49,120.49,0,0,0-3.14,28.06A14.65,14.65,0,0,0,845.81,719.28Zm385.73-27.39c.06.81.11,1.63.17,2.44.56,6.6,1.42,13.18,1.59,19.79.16,6.27-.55,12.56-.6,18.84-.11,12.57-3.08,24.68-6.46,36.58a160,160,0,0,1-16.51,38.71c-1.53,2.56-2.84,5.26-4.51,7.71a225.77,225.77,0,0,1-24.1,30.29,198.37,198.37,0,0,1-27.45,23.66,180.23,180.23,0,0,1-36.28,20.38c-3.06,1.25-6,3-9.09,4-11.18,3.47-22.2,7.43-33.79,9.65a314.82,314.82,0,0,1-35.91,4.26c-9.95.75-19.83-1-29.77-1a4.21,4.21,0,0,1-.5,0c-8.12-1.47-16.3-2.7-24.36-4.48-6.11-1.36-12.05-3.47-18.1-5.15-14-3.87-26.87-10.21-39.36-17.34a243.67,243.67,0,0,1-20.71-13.68,159.19,159.19,0,0,1-13.44-11,167.36,167.36,0,0,1-21.47-22.75,201.9,201.9,0,0,1-19.8-30.31,189.24,189.24,0,0,1-13.77-34.53,168.72,168.72,0,0,1-6.69-45c-.1-8.26.81-16.52,1.29-24.79.1-1.74.3-3.48.54-6.29-2.09,5.32-1.51,9.86-2.08,14.26a146.37,146.37,0,0,0-.55,26.8,133.62,133.62,0,0,0,1.3,14.84,200.86,200.86,0,0,0,4.27,19.88A184.7,184.7,0,0,0,867.2,832c2,2.62,4,5.3,6.13,7.81a218.53,218.53,0,0,0,32.91,30.93c2.22,1.72,4.5,3.38,6.86,4.91,3.9,2.51,7.87,4.9,11.81,7.34A179.83,179.83,0,0,0,958,898.75a214.57,214.57,0,0,0,35.76,9.84,208.14,208.14,0,0,0,28.55,3.07c9.25.39,18.53.53,27.79-.66,4.4-.56,8.91-.29,13.31-1.22,3.23-.68,6.45-1.45,9.72-1.9,12.36-1.7,24.13-5.72,35.66-10.13a202,202,0,0,0,30.81-14.84,206,206,0,0,0,33.86-25.11c8.67-7.91,16.92-16.35,23.65-26.1,3.76-5.45,7.94-10.66,11.25-16.37a210.27,210.27,0,0,0,16.43-35,187.74,187.74,0,0,0,8.11-33.21,149,149,0,0,0,1.51-30.25C1234,708.46,1233.76,700,1231.54,691.89ZM1040.66,390c-2.18-7.27-4.83-14.18-10.62-19.29-1.86-1.65-3.59-3.44-5.44-5.11a7,7,0,0,0-2.43-1.64c-5.54-1.64-11-3.73-16.69-4.58a140.73,140.73,0,0,0-19.81-1.1c-21.88-.13-43.76-.19-65.64,0-60.82.4-121.65-1-182.46.79-13.57.39-27.14-.19-40.72.89-7,.55-13.81,1.24-20.49,3.25-4.63,1.4-8.56,4.19-12.54,6.82a2.11,2.11,0,0,0-.65,3.2c1.36-.93,2.69-1.87,4.05-2.76s2.43-2,3.8-2.32c6.07-1.54,12.15-3.42,18.34-4.09,8.53-.92,17.17-1,25.77-1.19,6.3-.17,12.6,0,18.9,0q108.39,0,216.79-.06c16.72,0,33.45-.61,50.17.8,4.64.4,9.19.78,13.62,2.22,11.82,3.86,7.91,1.11,17,10.14,3,2.95,5.58,6.07,7,10.12A28.88,28.88,0,0,0,1040.66,390Zm-397.39,2.21c1.23-11.57-10.88-22.37-21.66-22.35S599,378.33,599.1,392c.07,13.13,9.94,22,21.87,22.32C633.51,414.7,644.23,403.34,643.27,392.16Zm89.34-26.8c-1.25-.07-2.23-.19-3.2-.16-10.26.27-20.51-.18-30.79.64-8.12.65-16.1,1.42-23.89,3.84A27.72,27.72,0,0,0,661.07,379c-4,5-6.46,10.77-9.21,16.42-2,4.16-4.11,8.31-6.45,12.29a20.79,20.79,0,0,1-9.95,8.72,30.27,30.27,0,0,1-28.09-1.84,34.21,34.21,0,0,1-13.43-14.29,5.3,5.3,0,0,0-5.53-3.29c-3.09.19-3.83,1.22-2.75,4.08a41.86,41.86,0,0,0,7.84,12.58,32.92,32.92,0,0,0,6.89,6.41c7.51,4.75,15.51,8.09,24.76,6.36a5.44,5.44,0,0,1,1,0c5.67.08,10.68-2.28,15.41-4.9a34.74,34.74,0,0,0,9.13-7.53,41.38,41.38,0,0,0,7.4-11.71c1.47-3.68,3.2-7.27,5-10.82a45.79,45.79,0,0,1,4.18-7.31A19.58,19.58,0,0,1,679,376.47a86.4,86.4,0,0,1,19.68-2,60.35,60.35,0,0,0,6.45-.22,114.42,114.42,0,0,1,20.36,0c2.6.21,5.23,0,8,0C734.14,371.25,733.55,368.56,732.61,365.36Zm234.85,87.3c1.92-2.59,3.25-4.7,4.9-6.53,6.07-6.77,12.24-13.44,18.37-20.16,2.45-2.68,5-5.27,7.31-8.09,1.83-2.26,1.69-3.73-.75-5.4-4.9-3.36-10-6.47-15-9.62-2.09-1.31-4-1-5.83.72-3,2.89-6.19,5.52-9,8.54a27.41,27.41,0,0,1-12.81,8,79,79,0,0,0-8.17,3.38c-.2,3.27-.58,6.54-.53,9.81a14.68,14.68,0,0,0,1.25,5.7,70.34,70.34,0,0,0,4.82,8.65,5.6,5.6,0,0,0,2.93,2.37C959.07,451.09,963.28,451.81,967.46,452.66Zm310,1063.4c0,2,0,4.14,0,6.27q.32,25.35.63,50.69c.07,5.64,0,11.27.08,16.91,0,3.29.24,6.59.36,9.73a9.21,9.21,0,0,0,1.57.87c1.59.44,3.19.84,4.79,1.2a4,4,0,0,0,4.94-3.36,20.43,20.43,0,0,0,.07-2.48l.33-74.08c0-1.16,0-2.32-.08-3.47-.17-1.85-.53-2.22-2.52-2.27C1284.45,1516,1281.32,1516.06,1277.42,1516.06ZM868.84,637.13c-6.6,10-15.19,29.42-17.89,40.41-.38,1.58-.83,3.21.17,5.13l34.49-.94C885.7,664.52,879.76,649.94,868.84,637.13ZM698.4,625.53a24.26,24.26,0,0,0-2.92,1.82,50.56,50.56,0,0,0-12.77,17.43,66.55,66.55,0,0,0-5.08,20.05c-.45,3.93-.84,7.88-1,11.83-.12,2.68.44,3.16,3.17,3.23,5.12.11,10.25.11,15.37.12,1.11,0,2.22-.18,3.24-.27C699.15,675,699.19,630.58,698.4,625.53ZM1220.89,744.3l.4,0c.63-7.91,1.29-15.82,1.87-23.73a34.3,34.3,0,0,0-.15-5c-.21-2.81-.68-5.6-.71-8.41-.17-11.53-2.68-22.72-5.77-33.66-3.23-11.43-7.31-22.67-13.34-33.05-2.25-3.86-4.07-8-6.52-11.7a197,197,0,0,0-26.21-32.38,174.74,174.74,0,0,0-24.41-20.32,202.49,202.49,0,0,0-30.6-17.36,205.86,205.86,0,0,0-39.38-13.16,199.22,199.22,0,0,0-26.4-4.18c-1.15-.09-2.32-.1-3.47-.08-1,0-1.65.57-1.44,1.54.15.67.64,1.64,1.17,1.79a30,30,0,0,0,5.34,1c2,.19,4-.08,6,.26,7.63,1.37,15.32,2.54,22.83,4.44a214.64,214.64,0,0,1,37.75,13.33,187.42,187.42,0,0,1,28.7,16.69c8.78,6.15,17.34,12.75,24.56,20.84,4.41,4.94,9.24,9.55,13.28,14.77,7.79,10.09,14.92,20.67,20.27,32.32,1.52,3.3,3.13,6.56,4.5,9.92,1.44,3.52,2.73,7.11,3.9,10.72,1.32,4.09,2.68,8.18,3.59,12.37,1.93,8.88,3.94,17.71,4.46,26.88s.93,18.5-.13,27.76A75.51,75.51,0,0,0,1220.89,744.3Zm-377.84.37c0-4.4.35-7.72-.07-10.93-1.47-11.29-.66-22.58.8-33.7a166.46,166.46,0,0,1,8.74-35.59,174.26,174.26,0,0,1,15.08-31.23A168.69,168.69,0,0,1,885,609.66a184.5,184.5,0,0,1,30.77-28.1c9.52-6.83,19.48-13.16,30.37-17.76,4.86-2.06,9.6-4.47,14.57-6.23,11.2-4,22.48-7.75,34.31-9.5,6-.89,12-2.66,18.13-2.46a9.28,9.28,0,0,0,2.45-.34c2.29-.55,3-1.38,2.58-2.82-.61-1.86-2.24-1.17-3.37-1-6.55.84-13.08,1.84-19.61,2.78-12.67,1.81-24.84,5.69-36.66,10.29a197.64,197.64,0,0,0-34.43,17.57,186.35,186.35,0,0,0-27.77,21.67,158.23,158.23,0,0,0-24.48,28.65c-2.7,4.16-5.81,8.05-7.9,12.61-1.38,3-3,5.93-4.61,8.79-5.64,9.68-9.05,20.28-12.07,30.91a146.77,146.77,0,0,0-5.84,38.68A204.09,204.09,0,0,0,843.05,744.67ZM1018.5,538.28a6,6,0,0,0-4.83-.85c-4.59.53-9.2,1-13.74,1.84-8.75,1.62-17.6,2.85-26.06,5.85-6.68,2.38-13.56,4.27-20.09,7a219.1,219.1,0,0,0-32.1,16.67,186.2,186.2,0,0,0-27.41,21.3A178.66,178.66,0,0,0,860,633.62c-1.54,2.74-2.81,5.63-4.35,8.37-5.56,9.88-9.08,20.61-12.15,31.39a158,158,0,0,0-6,39.14c-.27,10.63-.15,21.29,1.56,31.71s3.58,20.88,7.65,30.76c1.75,4.23,3.23,8.57,4.83,12.86a14.22,14.22,0,0,0-1.09-5.72c-1.85-5.31-4.08-10.51-5.52-15.93-3.63-13.61-6.12-27.45-6.35-41.59-.1-5.77.44-11.56.61-17.35.43-14.52,3.72-28.49,8.3-42.19a150,150,0,0,1,11.8-27.27c2-3.45,3.61-7.12,5.88-10.35,6.37-9.07,12.72-18.12,20.29-26.33a190,190,0,0,1,29.35-25.94c9.79-7,20.08-13.42,31.3-18.1,4.87-2,9.58-4.56,14.57-6.2,10.34-3.4,20.61-7.06,31.44-8.73,8-1.24,15.88-3.18,24-3.4A19.1,19.1,0,0,0,1018.5,538.28Zm22.55,10.29c.17-1.67.4-3,.4-4.22,0-5.11,0-10.23-.11-15.34,0-1.17-.91-1.65-2-1.65-5.12,0-10.23,0-15.34,0-1.65,0-2.47.72-2.48,2.34,0,3.79-.09,7.58-.06,11.38.09,9-.84,7.46,7.65,7.59C1033,548.7,1036.9,548.6,1041.05,548.57ZM639,373.66c-4.41-7.41-11.17-10.22-19.41-9.59-9,.7-15.54,5.23-19.06,13.71,3.31-3.42,6.67-6.72,11.2-8.62,4.76-2,9.67-1.93,14.6-1.32C631.13,368.44,635,371.31,639,373.66Zm15.78,5.44c-2.54,0-4.79-.1-7,.08-.54,0-1.51,1.1-1.44,1.56.55,3.55,1.3,7.07,2.13,11.3,2.11-4,3.87-7.31,5.59-10.64A16.8,16.8,0,0,0,654.8,379.1Zm-85.59,861.78v-.21H548v.21Zm232.67,2-.21-.15H780.56v.15ZM512,1239.71l.11.19h18.09v-.19ZM885.91,595l-.64-.66q-4.2,4.4-8.39,8.81a.56.56,0,0,0-.11.45c0,.14.21.24.47.51Zm-.83,243.63.7-.5q-3.66-3.86-7.31-7.7a.39.39,0,0,0-.39,0c-.1,0-.14.23-.28.51Zm290.09,4c-3.65,2.36-6.19,5.14-7.05,7ZM1180,836l.67.78c1.09-1.15,2.2-2.29,3.27-3.45s2.24-2.51,3.79-4.25ZM1073.3,896.64a26.41,26.41,0,0,0,11.41-2.31ZM632.17,429l-4.49,1.54C629.6,432.23,629.6,432.23,632.17,429Zm230,379.83.88-.52c-1.24-2.26-2-4.82-4.37-6.37ZM972.51,542.88l6.94-2.34A11.15,11.15,0,0,0,972.51,542.88Zm123.94,347.56.2.63,6.92-2.32c-.06-.18-.11-.36-.17-.54ZM958.3,887.39,958,888l6.36,2.12.19-.61ZM1103.63,546c1.91,1.18,3.84,2.25,6.19,1.93Zm-247,86.15c.36.1.74.28.81.2a7.16,7.16,0,0,0,1.86-5.2ZM957,1241.7l-.1.14h6v-.14ZM911.92,863c-.25-1.91-1.56-2.36-3-2.64ZM897.41,583.71l-.78-.82-2.5,3.14.3.35Zm268.64-1.5-.57.6,3.06,2.47.39-.51Zm-10.9-8.92a3,3,0,0,0,2.85,2.51Zm4.94,283c-.45-.13-.82-.34-.92-.26-.89.79-1.73,1.62-2.59,2.44l.45.5Zm-2.24,381.5c-.1,0,0,0,.1,0l2.42,0,.13,0c-.31,0-.63,0-.94,0Zm42-427.4.82.49,1.66-3.15-.6-.34ZM938.38,878.26l-.45.59,2.71,1.1.19-.46Zm182.72,2.22.45.51,2.28-1.16-.29-.57Zm-167.87,5.46.52-.34a1.37,1.37,0,0,0-.35-.3c-.8-.33-1.59-.65-2.39-1-.06.13-.11.26-.16.39Zm157.71-.11-.19-.46-2.52,1.07.22.52ZM899.59,853.3c.24-.24.48-.47.71-.71l-1.91-1.82-.79.79Zm55.3-304.72-.54-.54-2.21,1.21.3.56Zm245.57,72.56c.32,1,.23,2.55,2.17,2.59ZM908.39,574.72l-.57-.63-1.9,2,.48.44Zm-43.78,44.62c1.56,0,1.91-1,1.84-2.18ZM939,555.23l.52.56,2.24-1.23-.3-.55Zm222.3,22.67-.66.64c.62.63,1.25,1.25,1.88,1.87l.8-.8ZM1196.68,617l.57-.51a9.73,9.73,0,0,0-.83-1.16c-.37-.4-.56-1.3-1.62-.54ZM1165,852.26l-.38-.49-2,1.73.45.51Zm-42.55-297.47.55-.65-2.81-1c-.06.15-.12.31-.17.46Zm31.73,306.37-.62-.62-1.88,2,.49.44ZM902.38,579.64l-.59-.58-1.86,2,.5.48Zm-182,663.19-.14-.19h-2.57v.19ZM904.52,855.7l-.54.37a8.09,8.09,0,0,0,.87,1,7.28,7.28,0,0,0,1.19.67l.28-.49Z"/><path class="cls-2" d="M663.59,721.44a94.52,94.52,0,0,1,17.32.3c1.32.13,2.63.38,4,.41q34,.6,68.11,1.14c23.37.34,46.74.59,70.11.9,1,0,1.92.2,3.18.33a52.22,52.22,0,0,1,.93,7c0,11.19,2.47,22,4.66,32.88s6,21,10.44,31a184,184,0,0,0,16.62,29.9c8,11.69,17.45,22.1,27.24,32.22,3.67,3.79,8.15,6.77,12.16,10.24,10.72,9.27,22.75,16.55,35.2,23.13,14.08,7.44,29,12.78,44.34,17,5.55,1.54,11.36,2.12,17,3.38,12,2.68,24.3,2.89,36.52,3.35,6.42.24,12.88-.77,19.32-.93,8.49-.22,16.7-2.2,25-3.57a5,5,0,0,1,4.53,1.08c7.75,6.49,15.61,12.85,23.39,19.31a26.47,26.47,0,0,1,3.46,3.56q24.79,30.15,49.51,60.36a47.75,47.75,0,0,1,4.68,7.59c10.17,19,20.22,38,30.45,56.92a110.26,110.26,0,0,1,8.92,21.48c6.2,21.11,12.65,42.15,19.06,63.19a69.59,69.59,0,0,1,2.59,14.62c.71,8.57,1.74,17.11,2.63,25.67q.58,5.67,1.12,11.36c.76,8.41,1.47,16.81,2.24,25.22.15,1.64.51,3.27.72,4.9a2.62,2.62,0,0,1-2,3.06,29.56,29.56,0,0,1-5.24,1.45c-3.93.53-7.88.89-11.83,1.21-7.91.63-15.83,1.2-23.74,1.79-.49,0-1,.08-1.49.09-12.9.41-25.83.52-38.72,1.3-11.75.71-23.54.3-35.26,1.08-10.77.71-21.53.39-32.29.81-24.18,1-48.4.42-72.57,1.14-42.77,1.29-85.55.09-128.3,1-34.48.74-69,1.14-103.43.58-38.29-.63-76.58-.51-114.87-.8-3.48,0-7,0-10.45,0-31.82-.37-63.65-.41-95.46-1.26-14.75-.4-29.51-.12-44.23-.91-11.6-.62-23.21-.26-34.77-1-8.94-.6-17.88-.41-26.81-.85s-17.82-1.13-26.74-1.71c-.82,0-1.65-.06-2.48-.06a198.5,198.5,0,0,1-24.72-1.88c-2.94-.37-5.9-.65-8.8-1.26s-3.15-1.2-3.07-4.16c.06-2.48.23-5,.47-7.44q1.89-19.53,3.84-39,1.43-14.09,2.95-28.16a18.66,18.66,0,0,1,.76-3.37c7.51-24.88,14.87-49.79,22.67-74.57,1.72-5.46,4.87-10.5,7.58-15.61,7.13-13.45,14.39-26.84,21.58-40.27,3.05-5.69,6-11.44,9.1-17.09a41.88,41.88,0,0,1,4.15-6.17q24.24-29.62,48.58-59.16a28.59,28.59,0,0,1,3.84-3.86c19.2-15.78,38.49-31.46,57.59-47.35a76.42,76.42,0,0,1,13-8.16c15-8,30.13-15.94,45.2-23.89,11.56-6.09,23.09-12.25,34.7-18.24,4-2.07,5.64-5,5.64-9.54,0-30.83.1-61.67.18-92.5C663.6,727.65,663.59,724.84,663.59,721.44Z"/><path class="cls-2" d="M1228.86,1237.18c-.3,4-.53,7.92-.91,11.83-.46,4.77-1.14,9.52-1.59,14.3-.81,8.56-1.46,17.15-2.29,25.71-.79,8.07-1.5,16.15-2.7,24.16a97.31,97.31,0,0,1-3.45,13.43c-6.23,20.76-12.57,41.48-18.78,62.25-1.49,5-4,9.46-6.39,14q-16.45,30.35-33,60.61a37.72,37.72,0,0,1-4.26,6.08q-23.43,27.71-47,55.3A45.34,45.34,0,0,1,1102,1531q-29.38,23-58.87,45.75a28.57,28.57,0,0,1-4.65,2.83c-22.66,11.27-45.31,22.57-68,33.7a62.75,62.75,0,0,1-10.74,3.7c-21.79,6.06-43.62,12-65.39,18.1a109.48,109.48,0,0,1-15.57,2.76c-5.07.68-10.22.77-15.33,1.2-6.25.54-12.5,1.18-18.75,1.74-4.77.42-9.55.82-14.33,1.17-5.78.43-11.55.78-17.33,1.2-1,.07-2,.45-2.93.47-3.13.06-6.27.06-9.4,0-1,0-1.95-.41-2.93-.48-5.94-.42-11.89-.7-17.81-1.22-9.38-.82-18.74-1.81-28.12-2.69-4.44-.42-8.89-1-13.34-1-9.18-.13-18-2-26.8-4.42-21.46-6-43-11.84-64.42-17.82a45.78,45.78,0,0,1-7.85-3q-32.7-16.17-65.31-32.49a54.83,54.83,0,0,1-8.81-5.5q-28.72-22.17-57.31-44.54a37.08,37.08,0,0,1-5.35-5.13c-15.18-17.76-30.27-35.61-45.47-53.36a73.58,73.58,0,0,1-8.83-13.15c-7.52-14-15.19-27.9-22.78-41.86-3.64-6.69-7.55-13.25-10.77-20.14a119.87,119.87,0,0,1-5.65-15.85c-6.27-20.41-12.33-40.88-18.65-61.26a66.5,66.5,0,0,1-2.18-12.19c-.92-7.72-1.51-15.49-2.27-23.23-.89-9.06-1.82-18.12-2.7-27.19-.53-5.43-1-10.87-1.48-16.32a25.93,25.93,0,0,1,.21-3.76c6.55.83,12.74,1.8,19,2.36,6.75.62,13.53.87,20.31,1.25,10.91.61,21.81,1.26,32.72,1.75,5.79.26,11.6.12,17.4.31,16.39.53,32.78,1.2,49.17,1.68,8.12.24,16.24.16,24.36.27,25.53.34,51.06.35,76.57,1.16,37,1.17,73.92.51,110.89.85,32.31.29,64.64,1.58,96.95.74,33.81-.87,67.63-.53,101.44-.83q48.23-.42,96.46-1.06,30.57-.39,61.15-1c12.09-.24,24.2-.29,36.26-1.07,10.27-.66,20.53-.65,30.8-.94,7.28-.2,14.56-.56,21.83-1,10.74-.6,21.48-1.2,32.2-2C1215.77,1238.89,1222,1238,1228.86,1237.18Z"/><path class="cls-2" d="M941.49,424.37c.12,3.38.3,6.5.34,9.63a11.87,11.87,0,0,0,1.68,6.12c1.86,3.13,3.46,6.41,5.14,9.64a6.93,6.93,0,0,0,5.36,3.91c3.56.59,7.07,1.52,11,2.41a16.4,16.4,0,0,1-1.26,3.14c-3,4.31-4.12,9.2-5.5,14.18-2,7.06-1.4,13.63.52,20.47a67.86,67.86,0,0,0,6.32,15.56c4.36,7.61,8.41,15.4,12.57,23.12a26.72,26.72,0,0,1,1,2.49c-1.37.61-2.5,1.23-3.7,1.64-2.81,1-5.62,2-8.49,2.7-12.42,3.21-23.78,9-35.25,14.53-5.35,2.55-10.22,6.09-15.27,9.25-15.85,9.92-29.54,22.34-42.1,36.12a162,162,0,0,0-12,15.21c-1.62,2.28-3.32,4.51-5.22,7.07-2.47-1.3-4.88-2.32-7-3.73-11.07-7.24-23.52-10.57-36.35-12.15a104.34,104.34,0,0,0-35.49,2.09C766.28,610.31,756,615.51,746.4,622a66.63,66.63,0,0,0-17.32,16.92c-1.9,2.72-3.82,5.42-5.59,8.22a41.12,41.12,0,0,0-2.7,5.29c-.87,2-1.45,4.06-2.37,6-2.39,5-3.21,10.38-3.56,15.87-.16,2.43-.66,4.84-1.05,7.58-3.49,0-6.61,0-9.73,0-1.23,0-1.75-.82-1.8-1.92-.09-1.82-.13-3.65-.13-5.47q0-109.15,0-218.32,0-36.54,0-73.1c0-6.78,0-5.88,6-5.92,7.62-.05,15.25,0,22.87,0,1,0,2,0,3,0a2.49,2.49,0,0,1,2.72,2.29q1.51,6.78,3.13,13.54a12,12,0,0,0,1,2.81,5.33,5.33,0,0,0,4.14,3.19c2.46.29,4.91.82,7.37.9,13.25.46,26.5.71,39.74,1.25,9.76.39,19.51,1.11,29.26,1.66,1.82.11,3.65,0,5.46.13,5.6.48,11.19,1,16.77,1.63,6.07.69,12.11,1.78,18.2,2.24a137.52,137.52,0,0,1,28.69,5.29A385.91,385.91,0,0,0,936.14,423C937.76,423.29,939.33,423.82,941.49,424.37Z"/><path class="cls-2" d="M993.29,551.34c7.31-1.67,14.36-3.36,21.71-3.17a3.91,3.91,0,0,1,3,1.39c6.53,7.16,19.75,8,27-.12a4.51,4.51,0,0,1,3.58-1.29,62.82,62.82,0,0,1,13.81,1.29c5,.88,10.06,1.86,15.09,2.83a36.79,36.79,0,0,1,3.86.94c6.62,2,13.22,4.22,19.87,6.18a7.68,7.68,0,0,1,5.48,5.1c5.34,13.91,10.83,27.75,16.28,41.62q10.26,26.1,20.52,52.21,19.52,49.68,39,99.36c4.9,12.48,9.74,25,14.76,37.4a10,10,0,0,1-.66,9.8,174.21,174.21,0,0,1-21.9,30c-3.16,3.39-6.34,6.77-9.61,10.07-1.36,1.38-3,2.53-4.67,4q-83.31-148-166.15-295.09A24.11,24.11,0,0,1,993.29,551.34Z"/><path class="cls-2" d="M1096,538.8c-2.46-.77-4.27-1.49-6.14-1.9-8.06-1.76-16.11-3.59-24.23-5-5.52-1-11.13-1.48-16.72-2.05-1.64-.16-3.14-.67-3.61-2.13-.81-2.49-3-2.85-4.84-3.8-7.23-3.72-14.15-2-20.92,1.28-.75.37-1.14,1.52-1.67,2.33a4.3,4.3,0,0,1-3.56,2.3c-10.26.52-20.23,3-30.66,4.7-1-1.66-2-3.3-3-5-3.44-6.42-6.75-12.91-10.27-19.29a79.41,79.41,0,0,1-8.13-21.75c-.74-3.43-1.36-6.73-.31-10.23a57.82,57.82,0,0,0,1.72-8.25,22,22,0,0,1,2.68-6.89c6.38-12.37,15.46-22.65,24.89-32.69,3.86-4.1,7.57-8.34,11.39-12.47a38.12,38.12,0,0,1,3-2.58c-1.2-.68-2.2-.94-2.69-1.58-4.43-5.87-10.91-9-16.81-13-.28-.18-.57-.34-.86-.5-6.27-3.48-6.32-3.47-11.39,1.51-2.72,2.68-5.49,5.3-8.14,8a21.25,21.25,0,0,1-9.52,6c-2.05.59-4,1.51-6,2.24-7,2.58-7,2.32-14.41,1-18.24-3.21-36-8.35-53.89-13-5.49-1.43-11.08-1.72-16.63-2.55-7.34-1.1-14.73-1.9-22.11-2.74-4.59-.52-9.2-1.05-13.81-1.27-10.26-.5-20.55-.44-30.77-1.31-8.61-.73-17.22-.52-25.82-.84q-12.16-.43-24.32-1c-3-.13-3.61-.47-4.31-3.09-1.83-6.87-3.68-13.76-4.1-20.91a44.44,44.44,0,0,1,0-4.47,1.8,1.8,0,0,1,1.88-1.87c4.3-.28,8.59-.83,12.89-.84q116.63-.08,233.27,0a117.9,117.9,0,0,1,18.32,1.09c5.33.83,10.5,2.81,15.69,4.44a7.72,7.72,0,0,1,2.76,2c2.6,2.55,5.2,5.11,7.68,7.78a13.21,13.21,0,0,1,2.47,3.68c3.57,8.19,7.18,16.37,10.5,24.66,6.83,17.05,13.5,34.17,20.22,51.27q14.7,37.44,29.36,74.89A34.44,34.44,0,0,1,1096,538.8Z"/><path class="cls-2" d="M1207.66,821.93c1.87,4.59,3.46,8.37,5,12.18q10.55,26.79,21.05,53.6c8.35,21.26,16.79,42.48,25,63.8,3.26,8.49,5.94,17.2,8.9,25.8,5.16,15,10.12,30.12,15.59,45,2.57,7,3.26,14.14,3.69,21.4.71,12.07,1.31,24.14,1.93,36.21.14,2.81,0,5.65.27,8.45,1.09,12.57.84,25.16.84,37.75q0,133.53,0,267c0,29.17.23,58.35.29,87.52,0,8.62-.2,17.24-.32,25.86,0,.8-.13,1.61-.21,2.65-4.18.94-8.3.43-12.37.36a3.45,3.45,0,0,1-2.14-1.08c-3.87-4.09-7.72-8.2-11.45-12.42a7,7,0,0,1-1.19-3.19,22.74,22.74,0,0,1-.3-4q-.54-44-1-88c-.28-22.38-.63-44.75-.86-67.12q-.61-58.17-1.13-116.35-.47-45.24-1-90.49c-.15-10.94-.36-21.88-.94-32.8-.52-9.91-1.6-19.79-2.43-29.69-.39-4.62-.79-9.23-1.15-13.85-.71-8.92-1.32-17.84-2.14-26.74a18.38,18.38,0,0,0-1.67-6.13q-11.55-23.94-23.3-47.77c-5-10.1-9.72-20.32-15.15-30.18-12.94-23.48-26.22-46.79-39.36-70.16-.08-.15-.17-.29-.25-.43-2.48-4.47-2.32-4.3,1.36-7.75,5.18-4.86,10-10.08,15.14-15,6.57-6.41,11.67-14,16.93-21.4C1205.74,824.25,1206.4,823.52,1207.66,821.93Z"/><path class="cls-2" d="M1104.52,757.54c-9.06-8.31-17.54-16.93-24.81-26.64-10.62-14.19-21.29-28.35-31.78-42.65a8.73,8.73,0,0,0-7.84-4c-11.6.1-23.21-.11-34.81-.12q-39.79,0-79.58,0c-2.27,0-4.5.25-6.59-1.41-1-.78-2.85-.58-4.32-.6-6.63-.09-13.26-.09-19.89-.12-1,0-2,0-3,0-2.91-.11-3.12-.3-3.44-3s-.54-5.61-1-8.39a62.42,62.42,0,0,0-9.72-25.77c-2.41-3.56-4.87-7.07-7.4-10.74.83-1.36,1.54-2.65,2.37-3.85,1.7-2.45,3.47-4.85,5.2-7.28a165.69,165.69,0,0,1,32.63-33.9,190.85,190.85,0,0,1,37.95-23.34c11.59-5.43,23.65-9.28,35.91-12.71.48-.13.94-.33,1.43-.42,2.34-.46,2.65-.4,4,1.85q5,8.58,9.88,17.24,15.15,26.81,30.27,53.64,24.63,43.69,49.24,87.41,11.7,20.77,23.44,41.53C1103.29,755.27,1103.9,756.41,1104.52,757.54Z"/><path class="cls-2" d="M1059,894.49a49.25,49.25,0,0,1-6.17,1.17c-7.76.46-15.55,1.33-23.29,1a240.34,240.34,0,0,1-37.4-4.06,194.71,194.71,0,0,1-32.72-9.67,184.18,184.18,0,0,1-33.51-17.14A194.25,194.25,0,0,1,891.25,837a175.74,175.74,0,0,1-22.67-30.09,159.23,159.23,0,0,1-16.73-38.08c-3.94-13.54-6.5-27.38-6.44-41.58a18.74,18.74,0,0,1,.09-2,1.82,1.82,0,0,1,1.88-1.87c1.16,0,2.32,0,3.48,0,13.09-.05,26.19,0,39.28-.16,12.43-.19,24.85-.61,37.27-1,4.63-.16,9.25-.61,13.88-.89,1.15-.07,2.32,0,3.48,0,1.45,0,2.07.84,2.11,2.19,0,1.66.08,3.32.09,5,0,25.2,0,50.4,0,75.59,0,7.12.45,14.24.59,21.37a6.92,6.92,0,0,0,4,6.35q4.59,2.46,9.19,4.9l61,32.24c5.7,3,11.41,6,17.09,9.09a24.05,24.05,0,0,1,3.73,2.42c4.77,3.86,9.49,7.78,14.2,11.71A27.22,27.22,0,0,1,1059,894.49Z"/><path class="cls-2" d="M673.25,680c-3.35,0-6,.09-8.61,0-2.25-.1-2.77-.75-2.95-3.12-.06-.83,0-1.66,0-2.49q0-84.55.07-169.1c0-9.28.53-18.55.55-27.83,0-7.79-.42-15.57-.52-23.36a4.56,4.56,0,0,0-2.56-4.37c-7.57-4.43-15.09-9-22.62-13.46-1.13-.68-2.23-1.4-3.66-2.3a31.54,31.54,0,0,1,2.48-2.38c3.29-2.51,6.59-5,10-7.44,7.09-5.06,12.54-11.78,18.38-18.1a9.4,9.4,0,0,0,1.9-3.94c.81-3.2,1.4-6.46,2-9.71,1.33-6.68,5.64-10.91,12.43-12.47a54,54,0,0,1,15.22-1.77c2.2.13,2.54.47,2.7,2.66.09,1.16.07,2.32.07,3.48q.1,116.63.2,233.26c0,.83,0,1.66,0,2.48a3.76,3.76,0,0,1-1.73,3.34C686,631,679.79,641.61,676.7,654c-1.56,6.22-1.79,12.77-2.61,19.17C673.82,675.23,673.57,677.35,673.25,680Z"/><path class="cls-2" d="M831.18,682.53c-12.82,1.23-104.39.31-113.71-1.11-.06-.87-.18-1.81-.19-2.75a57.13,57.13,0,0,1,7.34-28,75.2,75.2,0,0,1,15-19.66,86.6,86.6,0,0,1,44.77-21.91,101.05,101.05,0,0,1,43.74,2.14c7.32,1.94,13.84,5.35,20.36,8.92,2,1.11,4,2.36,6.11,3.63-4.71,9.56-9.81,18.78-13.86,28.46S832.93,671.89,831.18,682.53Z"/><path class="cls-2" d="M653,683.07c7.7.45,15.29,1,22.88,1.32,18.21.78,36.44.7,54.65,1.3,31.16,1,62.31.41,93.47.67,2,0,3.92.08,6,.12-.84,5.78-1.79,11.14-2.37,16.54s-.08,10.91-1.59,16.5c-1.31.12-2.59.35-3.88.34-32.48,0-65,.18-97.46-.32-13.74-.21-27.49-.57-41.24-.87-7.11-.16-14.22-.57-21.33-1-2.3-.13-4.59-.53-6.88-.87-1.93-.29-2.82-1-2.83-2.83,0-10.1.07-20.2.16-30.31C652.6,683.43,653,683.16,653,683.07Z"/><path class="cls-2" d="M845.81,719.28a14.65,14.65,0,0,1-.39-2.34,120.49,120.49,0,0,1,3.14-28.06c.44-1.77,1.24-2.51,3-2.51q7.2,0,14.41-.12c15.24-.28,30.48-.6,45.72-.86a20.51,20.51,0,0,1,7.8,1c2.09.78,4.57.67,6.88.71,8.28.18,16.57.25,24.85.36,1.33,0,2.66,0,4,0,2.14.13,2.54.46,2.59,2.74.11,4.64.08,9.28.08,13.92,0,3.31,0,6.63-.09,9.94-.08,2.18-.48,2.57-2.65,2.74-5.11.4-10.22.83-15.33,1-16.54.64-33.09,1.35-49.63,1.7-14.25.3-28.5.16-42.75.2A7.38,7.38,0,0,1,845.81,719.28Z"/><path class="cls-2" d="M1231.54,691.89c2.22,8.14,2.5,16.57,2.89,25a149,149,0,0,1-1.51,30.25,187.74,187.74,0,0,1-8.11,33.21,210.27,210.27,0,0,1-16.43,35c-3.31,5.71-7.49,10.92-11.25,16.37-6.73,9.75-15,18.19-23.65,26.1a206,206,0,0,1-33.86,25.11,202,202,0,0,1-30.81,14.84c-11.53,4.41-23.3,8.43-35.66,10.13-3.27.45-6.49,1.22-9.72,1.9-4.4.93-8.91.66-13.31,1.22-9.26,1.19-18.54,1-27.79.66a208.14,208.14,0,0,1-28.55-3.07A214.57,214.57,0,0,1,958,898.75,179.83,179.83,0,0,1,924.91,883c-3.94-2.44-7.91-4.83-11.81-7.34-2.36-1.53-4.64-3.19-6.86-4.91a218.53,218.53,0,0,1-32.91-30.93c-2.15-2.51-4.1-5.19-6.13-7.81a184.7,184.7,0,0,1-31.8-64.59,200.86,200.86,0,0,1-4.27-19.88,133.62,133.62,0,0,1-1.3-14.84,146.37,146.37,0,0,1,.55-26.8c.57-4.4,0-8.94,2.08-14.26-.24,2.81-.44,4.55-.54,6.29-.48,8.27-1.39,16.53-1.29,24.79a168.72,168.72,0,0,0,6.69,45,189.24,189.24,0,0,0,13.77,34.53,201.9,201.9,0,0,0,19.8,30.31,167.36,167.36,0,0,0,21.47,22.75,159.19,159.19,0,0,0,13.44,11,243.67,243.67,0,0,0,20.71,13.68c12.49,7.13,25.4,13.47,39.36,17.34,6,1.68,12,3.79,18.1,5.15,8.06,1.78,16.24,3,24.36,4.48a4.21,4.21,0,0,0,.5,0c9.94,0,19.82,1.8,29.77,1a314.82,314.82,0,0,0,35.91-4.26c11.59-2.22,22.61-6.18,33.79-9.65,3.14-1,6-2.72,9.09-4a180.23,180.23,0,0,0,36.28-20.38,198.37,198.37,0,0,0,27.45-23.66,225.77,225.77,0,0,0,24.1-30.29c1.67-2.45,3-5.15,4.51-7.71a160,160,0,0,0,16.51-38.71c3.38-11.9,6.35-24,6.46-36.58,0-6.28.76-12.57.6-18.84-.17-6.61-1-13.19-1.59-19.79C1231.65,693.52,1231.6,692.7,1231.54,691.89Z"/><path class="cls-2" d="M1040.66,390a28.88,28.88,0,0,1-2-3.94c-1.39-4.05-4-7.17-7-10.12-9.13-9-5.22-6.28-17-10.14-4.43-1.44-9-1.82-13.62-2.22-16.72-1.41-33.45-.78-50.17-.8q-108.39-.09-216.79.06c-6.3,0-12.6-.18-18.9,0-8.6.22-17.24.27-25.77,1.19-6.19.67-12.27,2.55-18.34,4.09-1.37.35-2.55,1.5-3.8,2.32s-2.69,1.83-4.05,2.76a2.11,2.11,0,0,1,.65-3.2c4-2.63,7.91-5.42,12.54-6.82,6.68-2,13.53-2.7,20.49-3.25,13.58-1.08,27.15-.5,40.72-.89,60.81-1.79,121.64-.39,182.46-.79,21.88-.15,43.76-.09,65.64,0a140.73,140.73,0,0,1,19.81,1.1c5.67.85,11.15,2.94,16.69,4.58a7,7,0,0,1,2.43,1.64c1.85,1.67,3.58,3.46,5.44,5.11C1035.83,375.77,1038.48,382.68,1040.66,390Z"/><path class="cls-2" d="M643.27,392.16c1,11.18-9.76,22.54-22.3,22.18C609,414,599.17,405.15,599.1,392c-.07-13.69,11.76-22.18,22.51-22.21S644.5,380.59,643.27,392.16Z"/><path class="cls-2" d="M732.61,365.36c.94,3.2,1.53,5.89.87,8.91-2.79,0-5.42.18-8,0a114.42,114.42,0,0,0-20.36,0,60.35,60.35,0,0,1-6.45.22,86.4,86.4,0,0,0-19.68,2,19.58,19.58,0,0,0-11.74,7.68,45.79,45.79,0,0,0-4.18,7.31c-1.77,3.55-3.5,7.14-5,10.82a41.38,41.38,0,0,1-7.4,11.71,34.74,34.74,0,0,1-9.13,7.53c-4.73,2.62-9.74,5-15.41,4.9a5.44,5.44,0,0,0-1,0c-9.25,1.73-17.25-1.61-24.76-6.36a32.92,32.92,0,0,1-6.89-6.41,41.86,41.86,0,0,1-7.84-12.58c-1.08-2.86-.34-3.89,2.75-4.08a5.3,5.3,0,0,1,5.53,3.29,34.21,34.21,0,0,0,13.43,14.29,30.27,30.27,0,0,0,28.09,1.84,20.79,20.79,0,0,0,9.95-8.72c2.34-4,4.42-8.13,6.45-12.29,2.75-5.65,5.21-11.45,9.21-16.42a27.72,27.72,0,0,1,13.66-9.33c7.79-2.42,15.77-3.19,23.89-3.84,10.28-.82,20.53-.37,30.79-.64C730.38,365.17,731.36,365.29,732.61,365.36Z"/><path class="cls-2" d="M967.46,452.66c-4.18-.85-8.39-1.57-12.52-2.62a5.6,5.6,0,0,1-2.93-2.37,70.34,70.34,0,0,1-4.82-8.65,14.68,14.68,0,0,1-1.25-5.7c-.05-3.27.33-6.54.53-9.81a79,79,0,0,1,8.17-3.38,27.41,27.41,0,0,0,12.81-8c2.8-3,6-5.65,9-8.54,1.81-1.76,3.74-2,5.83-.72,5,3.15,10.12,6.26,15,9.62,2.44,1.67,2.58,3.14.75,5.4-2.29,2.82-4.86,5.41-7.31,8.09-6.13,6.72-12.3,13.39-18.37,20.16C970.71,448,969.38,450.07,967.46,452.66Z"/><path class="cls-2" d="M1214.48,646.46c.9,1.74,1.91,3.43,2.66,5.24,1.07,2.59,1.82,5.33,2.91,7.92,4.6,10.92,6.91,22.48,8.82,34,1.86,11.27,1.88,22.76,1.5,34.21a158.93,158.93,0,0,1-4.41,31.91A186.41,186.41,0,0,1,1211,800.14c-5.61,11.2-12.8,21.27-20.16,31.26-3.32,4.51-7.43,8.45-11.26,12.57-11.7,12.58-25.28,22.77-39.81,31.87-10,6.27-20.75,11-31.56,15.55-8.2,3.42-16.87,5.8-25.46,8.17-5.55,1.53-11.33,2.2-17,3.26a123.21,123.21,0,0,1-22.19,2.14c-3.29,0-6.6.89-9.88.74-13-.58-26-1.2-39-3.5-12.77-2.26-25-6.08-37.21-10.14-4.68-1.56-9-4.09-13.62-6-11.89-4.85-22.68-11.71-33-19.09a195.85,195.85,0,0,1-29.68-26.38c-7.83-8.43-14.37-17.78-20.8-27.22-3.06-4.49-5.32-9.53-7.84-14.37a170.1,170.1,0,0,1-15.93-46.26c-3.18-16.39-3.63-32.81-2.43-49.42.77-10.66,3.49-20.87,5.52-31.24a40.22,40.22,0,0,1,1.9-5.64c2.06-5.76,4.1-11.53,6.24-17.26.65-1.75,1.17-3.67,3.17-5.24-1.82,4.94-3.28,9.46-5.13,13.81-4.17,9.82-6.4,20.15-8.56,30.53a102.5,102.5,0,0,0-2.13,18.22c-.13,5-.82,9.92-.71,14.87a178,178,0,0,0,5.15,39.31,182,182,0,0,0,14.86,39.35,187.85,187.85,0,0,0,16.18,25.57c3.43,4.65,7.36,8.94,11.09,13.37,8.6,10.21,18.77,18.78,29.51,26.52,10,7.24,20.54,13.94,32.06,18.79,2,.83,3.88,1.85,5.84,2.71a196.65,196.65,0,0,0,35.71,11.73c7.88,1.8,15.93,2.89,23.9,4.3a4.1,4.1,0,0,0,.49.06c9.43.37,18.88,1.3,28.28,1a228.35,228.35,0,0,0,36.39-4.2c10.6-2.12,20.74-5.51,31-8.74,4.7-1.48,9.1-3.92,13.67-5.82a167.46,167.46,0,0,0,33.9-19.57,194.67,194.67,0,0,0,29.64-26.4c7.52-8.25,13.83-17.33,20.25-26.37,1.62-2.28,2.71-4.93,4.16-7.33a154.3,154.3,0,0,0,15.9-37.36c3.27-11.4,6-23,6.39-35.08.27-7.28,1-14.53.57-21.83a215.09,215.09,0,0,0-5-34.34c-1.8-8.13-5.11-15.71-7.72-23.55-.78-2.34-1.39-4.73-2.08-7.1Z"/><path class="cls-2" d="M1277.42,1516.06c3.9,0,7,0,10.17,0,2,0,2.35.42,2.52,2.27.1,1.15.08,2.31.08,3.47l-.33,74.08a20.43,20.43,0,0,1-.07,2.48,4,4,0,0,1-4.94,3.36c-1.6-.36-3.2-.76-4.79-1.2a9.21,9.21,0,0,1-1.57-.87c-.12-3.14-.32-6.44-.36-9.73-.07-5.64,0-11.27-.08-16.91q-.29-25.35-.63-50.69C1277.39,1520.2,1277.42,1518.08,1277.42,1516.06Z"/><path class="cls-2" d="M868.84,637.13c10.92,12.81,16.86,27.39,16.77,44.6l-34.49.94c-1-1.92-.55-3.55-.17-5.13C853.65,666.55,862.24,647.14,868.84,637.13Z"/><path class="cls-2" d="M698.4,625.53c.79,5.05.75,49.49,0,54.21-1,.09-2.13.27-3.24.27-5.12,0-10.25,0-15.37-.12-2.73-.07-3.29-.55-3.17-3.23.17-3.95.56-7.9,1-11.83a66.55,66.55,0,0,1,5.08-20.05,50.56,50.56,0,0,1,12.77-17.43A24.26,24.26,0,0,1,698.4,625.53Z"/><path class="cls-2" d="M1220.89,744.3a75.51,75.51,0,0,1,0-8.38c1.06-9.26.65-18.48.13-27.76s-2.53-18-4.46-26.88c-.91-4.19-2.27-8.28-3.59-12.37-1.17-3.61-2.46-7.2-3.9-10.72-1.37-3.36-3-6.62-4.5-9.92-5.35-11.65-12.48-22.23-20.27-32.32-4-5.22-8.87-9.83-13.28-14.77-7.22-8.09-15.78-14.69-24.56-20.84a187.42,187.42,0,0,0-28.7-16.69,214.64,214.64,0,0,0-37.75-13.33c-7.51-1.9-15.2-3.07-22.83-4.44-1.94-.34-4-.07-6-.26a30,30,0,0,1-5.34-1c-.53-.15-1-1.12-1.17-1.79-.21-1,.46-1.53,1.44-1.54,1.15,0,2.32,0,3.47.08a199.22,199.22,0,0,1,26.4,4.18,205.86,205.86,0,0,1,39.38,13.16,202.49,202.49,0,0,1,30.6,17.36,174.74,174.74,0,0,1,24.41,20.32,197,197,0,0,1,26.21,32.38c2.45,3.71,4.27,7.84,6.52,11.7,6,10.38,10.11,21.62,13.34,33.05,3.09,10.94,5.6,22.13,5.77,33.66,0,2.81.5,5.6.71,8.41a34.3,34.3,0,0,1,.15,5c-.58,7.91-1.24,15.82-1.87,23.73Z"/><path class="cls-2" d="M843.05,744.67a204.09,204.09,0,0,1-1.63-31.29,146.77,146.77,0,0,1,5.84-38.68c3-10.63,6.43-21.23,12.07-30.91,1.66-2.86,3.23-5.79,4.61-8.79,2.09-4.56,5.2-8.45,7.9-12.61a158.23,158.23,0,0,1,24.48-28.65,186.35,186.35,0,0,1,27.77-21.67,197.64,197.64,0,0,1,34.43-17.57c11.82-4.6,24-8.48,36.66-10.29,6.53-.94,13.06-1.94,19.61-2.78,1.13-.15,2.76-.84,3.37,1,.47,1.44-.29,2.27-2.58,2.82a9.28,9.28,0,0,1-2.45.34c-6.18-.2-12.1,1.57-18.13,2.46-11.83,1.75-23.11,5.52-34.31,9.5-5,1.76-9.71,4.17-14.57,6.23-10.89,4.6-20.85,10.93-30.37,17.76A184.5,184.5,0,0,0,885,609.66a168.69,168.69,0,0,0-17.38,23.56,174.26,174.26,0,0,0-15.08,31.23A166.46,166.46,0,0,0,843.78,700c-1.46,11.12-2.27,22.41-.8,33.7C843.4,737,843.05,740.27,843.05,744.67Z"/><path class="cls-2" d="M1018.5,538.28a19.1,19.1,0,0,1-2.4.47c-8.13.22-16,2.16-24,3.4-10.83,1.67-21.1,5.33-31.44,8.73-5,1.64-9.7,4.17-14.57,6.2-11.22,4.68-21.51,11.11-31.3,18.1a190,190,0,0,0-29.35,25.94c-7.57,8.21-13.92,17.26-20.29,26.33-2.27,3.23-3.9,6.9-5.88,10.35a150,150,0,0,0-11.8,27.27c-4.58,13.7-7.87,27.67-8.3,42.19-.17,5.79-.71,11.58-.61,17.35.23,14.14,2.72,28,6.35,41.59,1.44,5.42,3.67,10.62,5.52,15.93a14.22,14.22,0,0,1,1.09,5.72c-1.6-4.29-3.08-8.63-4.83-12.86-4.07-9.88-5.94-20.36-7.65-30.76s-1.83-21.08-1.56-31.71a158,158,0,0,1,6-39.14c3.07-10.78,6.59-21.51,12.15-31.39,1.54-2.74,2.81-5.63,4.35-8.37a178.66,178.66,0,0,1,34.28-43.52,186.2,186.2,0,0,1,27.41-21.3,219.1,219.1,0,0,1,32.1-16.67c6.53-2.74,13.41-4.63,20.09-7,8.46-3,17.31-4.23,26.06-5.85,4.54-.84,9.15-1.31,13.74-1.84A6,6,0,0,1,1018.5,538.28Z"/><path class="cls-2" d="M1216.5,775.71a14.65,14.65,0,0,1,.52-2.91c3.79-9.62,5.65-19.79,7-29.89a165.87,165.87,0,0,0,1.07-36.15,207.31,207.31,0,0,0-5.45-31.73c-1.38-5.76-3.75-11.28-5.54-17-2-6.35-5.35-12.07-8.15-18.06-5-10.75-12-20.26-19.22-29.48a151.51,151.51,0,0,0-22.32-23.26c-1.4-1.17-2.86-2.27-4.2-3.5-9.26-8.41-20-14.67-30.64-21.07-4.5-2.72-9.52-4.57-14.28-6.87-10.31-5-21.24-8.22-32.22-11.24a174.86,174.86,0,0,0-18.89-3.78c-5.86-.94-11.8-1.42-17.7-2.12a15.38,15.38,0,0,1-1.85-.54,4.92,4.92,0,0,1,4-.81,220.83,220.83,0,0,1,37.52,6.52c4,1.06,7.9,2.38,11.82,3.69a202.28,202.28,0,0,1,43.74,20.85A189.61,189.61,0,0,1,1186.58,608a174.6,174.6,0,0,1,20,30.13c5.53,10.46,9.6,21.44,13.35,32.54,2,5.92,3.06,12.2,4.14,18.38,1,5.69,1.47,11.47,2.1,17.22.34,3.12.54,6.26.77,9.4a31.74,31.74,0,0,1,.17,4.46c-1,13.52-1.69,27.1-5.43,40.25-1.27,4.45-2.57,8.88-3.94,13.29a7.9,7.9,0,0,1-1.34,1.95Z"/><path class="cls-2" d="M1041.05,548.57c-4.15,0-8.07.13-12,.07-8.49-.13-7.56,1.41-7.65-7.59,0-3.8,0-7.59.06-11.38,0-1.62.83-2.35,2.48-2.34,5.11,0,10.22,0,15.34,0,1.13,0,2,.48,2,1.65.1,5.11.12,10.23.11,15.34C1041.45,545.62,1041.22,546.9,1041.05,548.57Z"/><path class="cls-2" d="M639,373.66c-4-2.35-7.89-5.22-12.67-5.82-4.93-.61-9.84-.67-14.6,1.32-4.53,1.9-7.89,5.2-11.2,8.62,3.52-8.48,10-13,19.06-13.71C627.85,363.44,634.61,366.25,639,373.66Z"/><path class="cls-2" d="M1002.75,899c21.06,2.35,42.1,2.51,63.12-.56a96.81,96.81,0,0,1-21.5,2.54c-3.61,0-7.24.93-10.83.77-9.88-.46-19.74-1.27-29.6-2-.39,0-.73-.55-1.1-.84Z"/><path class="cls-2" d="M654.8,379.1a16.8,16.8,0,0,1-.73,2.3c-1.72,3.33-3.48,6.65-5.59,10.64-.83-4.23-1.58-7.75-2.13-11.3-.07-.46.9-1.52,1.44-1.56C650,379,652.26,379.1,654.8,379.1Z"/><path class="cls-2" d="M1216.41,775.64c-1.18,7.24-4.2,13.76-8.21,21.07,0-1.42-.13-1.84,0-2.09,2.85-5.06,4.73-10.51,6.66-16a19.85,19.85,0,0,1,1.62-3Z"/><ellipse class="cls-2" cx="558.63" cy="1240.77" rx="14.97" ry="0.14"/><path class="cls-2" d="M801.88,1242.86H780.57v-.15h21.11Z"/><path class="cls-2" d="M512,1239.71h18.2v.19H512.08Z"/><path class="cls-2" d="M1073.33,537.92c5.33.49,10.57,1.37,15.45,3.84-2.65-.67-5.28-1.38-7.94-2-2.49-.57-5.13-.58-7.43-1.93Z"/><path class="cls-2" d="M885.91,595l-8.67,9.11c-.26-.27-.43-.37-.47-.51a.56.56,0,0,1,.11-.45q4.18-4.41,8.39-8.81Z"/><path class="cls-2" d="M1189.68,606.54c-3.69-2.7-6.38-6.33-9.24-9.81,3.35,3,6.92,5.84,9.15,9.89Z"/><path class="cls-2" d="M885.08,838.58l-7.28-7.73c.14-.28.18-.46.28-.51a.39.39,0,0,1,.39,0q3.66,3.84,7.31,7.7Z"/><path class="cls-2" d="M1175.17,842.56l-7.05,7C1169,847.7,1171.52,844.92,1175.17,842.56Z"/><path class="cls-2" d="M1180,836l7.73-6.92c-1.55,1.74-2.66,3-3.79,4.25s-2.18,2.3-3.27,3.45Z"/><path class="cls-2" d="M991.58,897.14c-4.22-.39-8.41-.93-12.35-2.68,4.06,1,8.39.87,12.26,2.78Z"/><path class="cls-2" d="M1073.3,896.64l11.41-2.31A26.41,26.41,0,0,1,1073.3,896.64Z"/><path class="cls-2" d="M632.17,429c-2.57,3.27-2.57,3.27-4.49,1.54Z"/><path class="cls-2" d="M1214.58,646.38c-.48-.41-1.13-.72-1.42-1.24-1.18-2.09-2.25-4.25-3.59-6.83,2.72,2.32,3,2.81,4.91,8.15Z"/><path class="cls-2" d="M862.15,808.79l-3.49-6.89c2.4,1.55,3.13,4.11,4.37,6.37Z"/><path class="cls-2" d="M1001.47,535.87a17.53,17.53,0,0,1-9.38,1.45l9.45-1.36Z"/><path class="cls-2" d="M1073.41,537.84a27,27,0,0,1-11-2l-.08.09,10.95,2Z"/><path class="cls-2" d="M972.51,542.88a11.15,11.15,0,0,1,6.94-2.34Z"/><path class="cls-2" d="M1002.84,898.88a30,30,0,0,1-11.26-1.74l-.09.1c3.87-.23,7.56.81,11.26,1.72Z"/><path class="cls-2" d="M1096.45,890.44l7-2.23c.06.18.11.36.17.54l-6.92,2.32Z"/><path class="cls-2" d="M958.3,887.39l6.24,2.09-.19.61L958,888Z"/><path class="cls-2" d="M1055.23,535.06l-9.29-.42c3.1-.28,6.22-1,9.2.51Z"/><path class="cls-2" d="M1103.63,546l6.19,1.93C1107.47,548.26,1105.54,547.19,1103.63,546Z"/><path class="cls-2" d="M1008.77,535.16c2.55-1.63,5.37-.57,8.09-.57l-8.16.49Z"/><path class="cls-2" d="M856.67,632.16l2.67-5a7.16,7.16,0,0,1-1.86,5.2C857.41,632.44,857,632.26,856.67,632.16Z"/><path class="cls-2" d="M957,1241.7h5.91v.14h-6Z"/><path class="cls-2" d="M911.92,863l-3-2.64C910.36,860.6,911.67,861.05,911.92,863Z"/><path class="cls-2" d="M897.41,583.71l-3,2.67-.3-.35,2.5-3.14Z"/><path class="cls-2" d="M1166.05,582.21l2.88,2.56-.39.51-3.06-2.47Z"/><path class="cls-2" d="M1155.15,573.29l2.85,2.51A3,3,0,0,1,1155.15,573.29Z"/><path class="cls-2" d="M1160.09,856.25l-3.06,2.68-.45-.5c.86-.82,1.7-1.65,2.59-2.44C1159.27,855.91,1159.64,856.12,1160.09,856.25Z"/><path class="cls-2" d="M1157.85,1237.75h1.71c.31,0,.63,0,.94,0l-.13,0-2.42,0C1157.85,1237.8,1157.75,1237.7,1157.85,1237.75Z"/><path class="cls-2" d="M1001.54,536c2.29-1.36,4.82-.59,7.23-.8l-.07-.08-7.23.79Z"/><path class="cls-2" d="M1199.81,810.35l1.88-3,.6.34-1.66,3.15Z"/><path class="cls-2" d="M1062.46,535.87l-7.23-.81-.09.09c2.42.22,4.95-.54,7.24.81Z"/><path class="cls-2" d="M872.29,609.63c-.13,1.52-1.2,2.31-2.35,3,.48-1.25,1-2.5,2.44-2.95Z"/><path class="cls-2" d="M1189.59,606.62a4.82,4.82,0,0,1,2.41,3,3.59,3.59,0,0,1-2.32-3.12Z"/><path class="cls-2" d="M938.38,878.26l2.45,1.23-.19.46-2.71-1.1Z"/><path class="cls-2" d="M1121.1,880.48l2.44-1.22.29.57-2.28,1.16Z"/><path class="cls-2" d="M953.23,885.94l-2.38-1.21c0-.13.1-.26.16-.39.8.31,1.59.63,2.39,1a1.37,1.37,0,0,1,.35.3Z"/><path class="cls-2" d="M1110.94,885.83l-2.49,1.13-.22-.52,2.52-1.07Z"/><path class="cls-2" d="M899.59,853.3l-2-1.74.79-.79,1.91,1.82C900.07,852.83,899.83,853.06,899.59,853.3Z"/><path class="cls-2" d="M954.89,548.58l-2.45,1.23-.3-.56,2.21-1.21Z"/><path class="cls-2" d="M1200.46,621.14l2.17,2.59C1200.69,623.69,1200.78,622.13,1200.46,621.14Z"/><path class="cls-2" d="M908.39,574.72l-2,1.79-.48-.44,1.9-2Z"/><path class="cls-2" d="M864.61,619.34l1.84-2.18C866.52,618.38,866.17,619.31,864.61,619.34Z"/><path class="cls-2" d="M939,555.23l2.46-1.22.3.55-2.24,1.23Z"/><path class="cls-2" d="M1161.29,577.9l2,1.71-.8.8c-.63-.62-1.26-1.24-1.88-1.87Z"/><path class="cls-2" d="M1196.68,617l-1.88-2.21c1.06-.76,1.25.14,1.62.54a9.73,9.73,0,0,1,.83,1.16Z"/><path class="cls-2" d="M1165,852.26l-2,1.75-.45-.51,2-1.73Z"/><path class="cls-2" d="M1122.41,554.79l-2.43-1.23c0-.15.11-.31.17-.46l2.81,1Z"/><path class="cls-2" d="M1154.14,861.16l-2,1.84-.49-.44,1.88-2Z"/><path class="cls-2" d="M902.38,579.64l-2,1.86-.5-.48,1.86-2Z"/><path class="cls-2" d="M720.38,1242.83h-2.71v-.19h2.57Z"/><path class="cls-2" d="M872.38,609.71c.51-1.15,1-2.29,1.9-4.22.34,2.65-1.07,3.24-2,4.14Z"/><path class="cls-2" d="M904.52,855.7l1.8,1.6-.28.49a7.28,7.28,0,0,1-1.19-.67,8.09,8.09,0,0,1-.87-1Z"/></svg>