<svg id="Layer_1" data-name="Layer 1" xmlns="http://www.w3.org/2000/svg" viewBox="0 0 2000 2000"><defs><style>.cls-1{fill:#1d1d1b;stroke:#1d1d1b;stroke-miterlimit:10;stroke-width:3px;}</style></defs><path class="cls-1" d="M1355.66,1445c-2.61,3.4-5,6.17-6.94,9.21a10.33,10.33,0,0,0-1.33,5.07c-.3,9.48-.55,19-.55,28.45a10.39,10.39,0,0,1-3.4,8.17c-4,3.83-7.77,7.72-13,9.71-1.52.57-3.11,1.53-4.63,1.45-3.7-.17-6.08,1.77-8.6,4-4.21,3.76-5.7,3.78-10.73,1.08l-17.5-9.37-13.26,15.15c1.59,2.86,3.26,5.85,4.92,8.85,3,5.33,2.73,8.34-1.3,12.84-3.42,3.81-7,7.39-12.17,9-3.15,1-5.58,3-8.17,5.12-3.63,2.89-8,5-12.19,7-1.6.78-3.74.45-5.92.65,1.38,3.55,2.71,7.29,4.31,10.92,1,2.31.62,4-.89,6-4.75,6.18-11.31,9.54-18.37,12.18-2.9,1.08-5.09.36-7.22-2.07-4.07-4.64-8.51-9-13-13.58l-8.46,5.08a90.48,90.48,0,0,0,2.88,9.43c1.76,4.19.47,7.45-2.38,10.43a29.16,29.16,0,0,1-15.91,8.31c-.57,5-3.86,7.9-8.07,10-1.47.73-3,1.38-4.48,2-2.49,1-4.69,2.05-6.23,4.76-1.26,2.2-3.92,3.77-6.23,5.17-4.75,2.9-10.09,4-15.61,4.36a6,6,0,0,1-6.28-3.3c-2.11-3.62-4.44-7.12-6.71-10.64-1.26-2-2.6-3.89-4-5.93-5.9,1.6-11.48,3.09-16,7.37.22,6.07.56,12.25.65,18.43.1,6.65-1,8.24-7.43,10a86.82,86.82,0,0,1-12.26,2.51c-4.23.55-7.41-1.1-8.73-5.55a41.78,41.78,0,0,0-2.07-4.79,5.23,5.23,0,0,0-1.25-.58c-4.86-.45-7.38-3.37-8.54-7.87a37.65,37.65,0,0,0-1.71-4.61c-.67-1.7-1.91-2-4.11-1.15-.29,2.92-.85,6.14-.86,9.35,0,4.37-1.42,7.38-6,8.28-2.13.41-4.19,1.14-6.32,1.53-3.18.6-3.46.81-4,4.14,0,.17,0,.36-.06.54-.84,5.68-3,7.78-8.75,8.35a76.7,76.7,0,0,1-10.89.71,20.55,20.55,0,0,1-7.78-2.08c-1.15-.57-1.86-2.59-2.24-4.08-1.59-6.17-3-12.4-4.46-18.6-.41-1.7-1-3.36-1.52-5.2-2.79,1.17-2.8,3.43-3,5.25-.61,6.27-4.49,8.93-10.18,9.17-4.66.19-9.35-.31-15-.54a28.42,28.42,0,0,0-1.76,3.17c-.58,1.32-.85,2.78-1.3,4.16-1.76,5.3-4.18,7.07-9.66,6.59a108.63,108.63,0,0,1-11.34-1.63c-6.4-1.25-7.8-2.81-8.32-9.42-.42-5.45-.53-10.93-.83-16.39-.1-1.77-.39-3.53-.62-5.52l-20.37-3.58c-1,1.7-1.77,3.08-2.52,4.49-2.38,4.51-5.16,8.88-7,13.6-1.93,5-5.76,6.15-10,5.52-5.71-.86-11.4-2.3-16.4-5.61-2.37-1.57-3-3.51-3.23-6.35A123.54,123.54,0,0,1,889,1611l-9.26-3.64c-3.77,2.89-5.85,6.81-8.42,10.26-5.21,7-6.86,7.9-15.14,5.42a26,26,0,0,1-11.75-6.68c-2.87-3-5.54-5.94-3.66-10.78-.49.39-1.18.68-1.44,1.19-2,3.91-5.45,4.17-8.91,3.17a41.92,41.92,0,0,1-17.49-9.74c-2-1.88-2.77-4.06-1.65-6.38,2.61-5.39,1.56-11.08,1.71-16.66a7,7,0,0,0-1.48-3.84c-3.9-5.46-9.55-8.86-15.23-12.75-1.15.87-2.33,1.65-3.39,2.58-2.46,2.16-5.17,4.15-7.23,6.66-4,4.86-8.46,5-13.53,2.22a34.53,34.53,0,0,1-12.4-10.44c-2.09-3-2.53-5.76-.74-9.07,2.17-4,4-8.19,5.92-12.31.62-1.3,1.16-2.64,1.7-3.89-2.82-3.24-2.92-3.42-5.79-1.95a112,112,0,0,0-10.83,6.27,7.41,7.41,0,0,1-7.63.75,24.55,24.55,0,0,1-10.73-8.13c-2.31-3-4.82-5.89-6.93-9a9,9,0,0,1-1.12-4.61c-.16-7.47-.54-15-.08-22.42.41-6.61-1.73-11.68-7.14-16.16-2,.81-4.3,1.72-6.58,2.72-4.5,2-9.06,3.84-13.43,6.06-2.73,1.38-4.84.9-7-.93-2.62-2.25-5.27-4.47-7.9-6.71l.67-1c-2.47.49-4.93,1.09-7.43,1.43-5.23.73-10.15,0-14.35-3.53-2.23-1.88-4.82-3.45-6.64-5.65-3.27-4-5.39-8.26-5.2-13.89.38-11.48,0-23-.16-34.47,0-2-.2-3.92-.32-6.07-5.28,0-10.19-.42-15,.12a17.17,17.17,0,0,1-11.35-3c-3.14-2-4.18-5.89-4.68-9.5a92.36,92.36,0,0,1-.76-12q-.15-38-.15-76.07v-6.2c-1,.3-1.7.29-1.94.61-3,3.94-7.07,4.08-11.38,3.46s-8.57-1.33-13.4-2.09c0-4.74-.13-9.1,0-13.44q1.67-49.22,3.44-98.42,1.26-35,2.64-70,1.31-32.25,2.8-64.5c.84-18.58,1.67-37.16,2.69-55.74,1.18-21.3,2.6-42.59,3.86-63.88.93-15.66,1.91-31.31,2.57-47,.51-11.89,2.61-23.54,4.53-35.22q3.54-21.58,7.34-43.11A12.62,12.62,0,0,1,621,818c10-14.12,19.81-28.42,30.36-42.13,9.6-12.46,21.6-22.69,33.36-33.08,2.73-2.42,5.6-4.7,8.13-7.32,4.92-5.09,11.08-8.09,17.26-11.27,19.5-10,40.17-17,60.94-23.71a18.88,18.88,0,0,0,10.55-8,194.63,194.63,0,0,1,17.5-23c10-11,21.72-20,33.8-28.49,4.14-2.91,9-4.73,13.38-7.35,10.6-6.38,22.42-9.55,34.17-12.62,7-1.83,14.4-1.95,21.64-2.7,4-.41,7.85-.7,11.6-2.54,2.34-1.15,5.27-1.34,8-1.48,4.35-.23,8.73-.06,12.66-.06,2-2,1.38-3.92,1.38-5.66-.1-21-.35-42-.37-62.93,0-14.59-.06-29.19.57-43.76a155.27,155.27,0,0,0-.17-20.69c-.42-4.7,0-9.47,0-14.21-.11-5.47-.57-10.93-.56-16.4,0-6.37-.39-12.88.75-19.07,1.53-8.27,4.73-16.16,11.48-21.82a85.81,85.81,0,0,1,11-8,32.85,32.85,0,0,1,19.38-4.6c2.89.19,5.81,0,8.91,0,1.45-2.71,2.87-5.23,4.16-7.82,6.1-12.24,14.8-22.53,24.4-32.06,2.65-2.63,6.25-4.37,9.56-6.25,3.08-1.75,6.24-2,9.94-1.23,12.85,2.65,23.33,9.26,32.09,18.6a35.49,35.49,0,0,1,8.54,15.09c1.26,4.75,2.85,9.42,3.93,14.21a46.12,46.12,0,0,1,1.1,9.72q.39,80.18.65,160.34.15,42.41.24,84.82c0,2,0,4,0,5.83,1.16.75,1.87,1.32,2.66,1.72,12.76,6.52,23.63,15.78,35,24.34,7.14,5.4,13.19,12.29,16.55,20.73,2.12,5.32,3.79,11.23,3.82,16.88.11,23.17-.47,46.33-.83,69.49,0,2,.2,4.2-.54,5.95-2.08,5-1.33,10-1.29,15.08q.44,51.71.78,103.42c0,6.38,0,12.76,0,19.27l17.54,9.35c14.3,7.61,28.85,14.8,42.81,23a170.1,170.1,0,0,1,24.82,17.87c12.83,11.07,25.06,22.84,37.42,34.46,15.1,14.19,27.31,30.79,39.18,47.65,3.09,4.39,6.55,8,11.58,10.42,16.77,8,30.56,20.41,45.37,31.29,4.35,3.2,7.75,7.69,11.56,11.61,2,2.09,3.91,4.36,6.06,6.32,12.52,11.46,19.31,26.78,27.74,41a3.89,3.89,0,0,1,.53,1c2.67,11.32,6.21,22.53,7.74,34,1.74,13,.65,26.23-.47,39.33-.84,9.77-2,19.53-2.48,29.33s-.14,19.69-.15,29.54q0,30.64-.07,61.3c0,3.09-.39,6.18-.41,9.28a7.06,7.06,0,0,1-4.36,6.92,32.55,32.55,0,0,0-3.14,2c-.2,3.82-.55,7.8-.6,11.79-.15,11.31-.13,22.62-.27,33.93a23.15,23.15,0,0,1-4.81,14.17c-4.11,5.46-9.35,7.14-15.71,6.45-5.79-.61-11.56-1.41-17.34-2.07C1358.5,1445,1357.05,1445,1355.66,1445ZM1237,1562.87c0,1.48.08,2.93,1.87,3.65l-2-3.57c-1.24-4.68-1.24-4.68-4-6.74ZM944.79,636.13c-2.8,4.77-1.86,10-1.89,15.41l1.81-15.49c.58-1.61,1.15-3.23,1.73-4.85l-.93-.19Zm40.53,218.61-4.07-.61,0,.29,4.2.25c5,.65,10,1.65,15,1.85,7.89.31,15.8.08,23.7.08,0-.35,0-.7,0-1.06C1011.09,857,998.21,855.63,985.32,854.74ZM949.08,979.66a92.45,92.45,0,0,0,9.21-3.15c4.3-2,8.4-4.37,12.62-6.52,10.66-5.45,19.79-13,28.34-21.19a164.15,164.15,0,0,0,26.56-33.23,174.71,174.71,0,0,0,15.43-31.91c4.31-11.94,8.4-24.07,9.89-36.84.68-5.78,2.35-11.49,2.5-17.27.37-14.56.8-29.1-.6-43.7a202.33,202.33,0,0,0-8.16-40,199,199,0,0,0-16.61-39.14,184.32,184.32,0,0,0-20.84-30c-6.17-7.16-13.43-13.36-20.3-19.9-.4-.38-1.63.09-3.5.25,4,4,7.1,7.26,10.45,10.32,10.87,9.94,19.38,21.75,26.79,34.33a222,222,0,0,1,12.21,23.77A205.47,205.47,0,0,1,1048.36,781c.43,3.24.44,6.55.89,9.79,1.75,12.73,1.41,25.55.22,38.21a212.71,212.71,0,0,1-9.1,45.41,191.82,191.82,0,0,1-16.17,36.93c-7.28,12.64-15.8,24.51-26.36,34.76s-21.86,19.8-35.31,26.36c-4.55,2.22-8.93,4.82-13.38,7.24l-12.77,3.16c.11.39.22.78.34,1.17Zm361.36,102.28-.66.65,2.67,5.07q9.63,18.09,19.23,36.19c2,3.7,3.62,7.58,5.76,11.17a43,43,0,0,1,4.8,12.12c2.73,11.51,5.71,23,8.31,34.51a176,176,0,0,1,3.81,21.44c.56,5.76,0,11.66-.37,17.48a45.61,45.61,0,0,1-3.53,15.9,111,111,0,0,0-4.06,10.73,55.09,55.09,0,0,1-9.11,16.68c-2.68,3.46-5.29,7-7.66,10.66a63.88,63.88,0,0,1-11.6,13c-3.41,3-6.72,6.16-10.12,9.19s-6.84,6.68-10.75,9.27c-15.18,10-30,20.66-46.81,28-13.65,6-26.81,13.13-41.3,17.09-1,.29-2,.76-3.08,1.12-8.25,2.83-16.33,6.42-24.79,8.34-21.24,4.84-42.15,11.25-63.92,13.76-11,1.26-21.87,3.79-32.88,4.89-15.57,1.56-31.21,3-46.85,3.27-21.32.38-42.66-.17-64-.72-8.89-.23-17.76-1.4-26.63-2.28-10.49-1-21-1.85-31.43-3.44-14.91-2.29-29.85-4.64-44.53-8-15.22-3.5-30.15-8.27-45.2-12.48-1.53-.43-3.84-.52-3.07-2.8.68-2,2.67-1.12,4.24-.67,6.64,1.88,13.28,3.79,19.94,5.56,9.48,2.53,18.93,5.2,28.49,7.33,9,2,18.21,3.4,27.32,5.06,5.9,1.08,11.76,2.44,17.7,3.17,8.48,1,17,1.55,25.51,2.39,5.25.52,10.46,1.29,15.7,1.84a122.21,122.21,0,0,0,14.13,1.19c24.23-.25,48.48,1.33,72.71-.82,8.88-.78,17.82-.88,26.73-1.3.73,0,1.46-.07,2.18-.17,9.16-1.34,18.32-2.77,27.5-4,14.4-1.94,28.77-3.89,42.87-7.61,11.24-3,22.85-4.68,33.86-8.29,20.53-6.73,41.33-12.86,60.68-22.8,8.25-4.23,16.72-8.05,24.82-12.56,6.35-3.54,12.35-7.73,18.38-11.83,5.12-3.47,10.26-7,15-10.9,6-5,11.8-10.35,17.38-15.84,8.89-8.76,15.21-19.49,22.14-29.74a4.42,4.42,0,0,0,.47-1c2.71-7.16,5.44-14.3,8.1-21.47a13.53,13.53,0,0,0,.84-3.69c.5-7.46,1-14.91,1.31-22.37a28.93,28.93,0,0,0-.61-7.6c-3.16-13.84-6.6-27.62-9.69-41.48a91.22,91.22,0,0,0-8.71-23.45c-3.63-6.73-7-13.59-10.54-20.39-7.59-14.76-15.53-29.3-25.57-42.59-7.14-9.45-13.78-19.32-21.49-28.28-8-9.24-16.85-17.68-25.49-26.31-4.64-4.63-9.73-8.82-14.42-13.41-10.32-10.12-21.72-18.9-33.49-27.22a44.25,44.25,0,0,0-4.68-2.81q-22.83-12.3-45.7-24.54c-4-2.12-8-4.11-13.06-6.7.58,2.6.84,4.14,1.28,5.61,1.44,4.89,3,9.75,4.41,14.64,1.87,6.37.91,12.63-1.06,18.77-3.87,12-12.38,20.51-22.25,27.63-14.51,10.45-30.93,16.66-48.18,21.15a246.08,246.08,0,0,1-101.27,4,197,197,0,0,1-34.32-8.66c-18.24-6.52-35.05-15.32-47.64-30.63-1.62-2-3.68-2.75-6-3.36-11.45-2.93-22.93-5.76-33.36-11.66-5.51-3.12-11.21-5.91-17.21-9-8.17,5.57-17.32,10.2-24.89,17.15q-24.37,22.39-48.6,44.93a70.42,70.42,0,0,0-8.29,9.37c-8.61,11.54-17.17,23.12-25.51,34.87-5.9,8.31-12.41,16.22-17,25.43-5.58,11.26-11.59,22.33-16.77,33.77-3.9,8.61-7.65,17.45-9.93,26.57-3.22,12.84-6.92,25.61-7.72,39-.64,10.62-1.24,21.05,2.13,31.35,1.13,3.45,1.81,7,2.76,10.56a17.41,17.41,0,0,0,1.47,4.1c7.37,13,14.25,26.28,25.48,36.61,4,3.69,7.08,8.55,11.42,11.73,12.91,9.46,24.94,20.23,39.49,27.33,3,1.44,5.76,3.13,8.65,4.68,10.25,5.52,20.45,11.11,31.54,14.91,5.67,1.94,11.17,4.38,16.76,6.57,1.28.5,2.5,1.08,1.87,2.71s-2,1.15-3.21.7c-.35-.12-.69-.25-1-.39-14.36-5.69-29.08-10.52-42.54-18.34-8-4.67-16.78-8.2-24.4-13.42-17.14-11.73-34-23.89-47.25-40.32-2-2.56-4.76-4.67-6.43-7.43-7.88-13.06-16.76-25.69-18.91-41.39-.29-2.15-1.1-4.23-1.53-6.36a27.5,27.5,0,0,1-.73-5.39c0-12.4.27-24.77,3.37-36.9,2.16-8.45,3.67-17.11,6.34-25.4a231.07,231.07,0,0,1,16.6-39.2c3-5.6,5.8-11.36,8.88-16.94,2.55-4.61,5.38-9.07,8.12-13.58.7-1.16,1.51-2.26,2.28-3.38a92,92,0,0,0-13.29,7.58c-10,6.62-20.4,12.72-29.12,21.2-10.56,10.28-22.27,19.36-30.23,32.17-5.46,8.77-12.67,16.44-15.56,26.76a108.44,108.44,0,0,1-5,13.27c-2.2,5.14-2.82,10.52-3.07,16-.13,2.73.21,5.55-.34,8.19-2,9.66.36,18.79,2.89,27.94a5.34,5.34,0,0,1,.18.52c1.84,10.55,6.23,20,11.72,29.16,5.72,9.58,11.66,18.79,19.49,26.87,9.53,9.83,18.78,19.83,30.26,27.53,10.13,6.78,19.35,14.81,30.35,20.39,16.87,8.56,33.05,18.45,51.07,24.64,13.23,4.54,26.2,9.83,39.46,14.28,8.94,3,18.16,5.21,27.3,7.63,7.89,2.09,15.77,4.3,23.77,5.91,13,2.63,26.1,4.62,39.1,7.23,12.68,2.54,25.55,3.49,38.37,4.82,5.24.55,10.53.7,15.76,1.35a209,209,0,0,0,28.28,2.06c5.83-.07,11.68,0,17.5.41,20.6,1.28,41.17.36,61.74-.67.36,0,.72-.08,1.08-.11,8.35-.63,16.7-1.17,25-1.9,8.51-.75,17-1.53,25.48-2.61,9-1.14,18-2.57,26.93-4,8.07-1.29,16.12-2.66,24.14-4.18,5.17-1,10.31-2.18,15.4-3.5,15.28-4,30.93-6.45,45.82-12,18.38-6.83,37.44-11.82,55.09-20.69,15.92-8,32.68-14.37,47.07-25.22.73-.54,1.6-.88,2.35-1.4,8.28-5.63,17.15-10.42,24.58-17.26s14.8-13.53,22.16-20.34a27.87,27.87,0,0,0,3.63-4q8.49-11.75,16.86-23.57c3.36-4.74,13.4-29.59,14-35.36.82-8.15,1.49-16.32,1.85-24.5a39.91,39.91,0,0,0-1.1-10.25c-1.62-7.28-3.54-14.5-5.41-21.72a19.52,19.52,0,0,0-1.83-5.12c-8.41-14.23-15.27-29.54-28.07-40.76-.54-.48-.94-1.12-1.45-1.63-5.4-5.42-10.4-11.33-16.3-16.13-9.32-7.59-19.16-14.56-29-21.54C1319,1086.5,1314.63,1084.37,1310.44,1081.94ZM1081.9,663.78c-.16,1.64-.31,2.53-.34,3.43-.27,10.2-.49,20.41-.81,30.62a24,24,0,0,1-.78,5.92c-2.66,9.07-9.5,14.37-17.31,18.71-.5.28-1.33,0-2.13-.07-.64-3.16,1.78-3.92,3.45-5,8.82-5.83,13.41-13.34,13.26-24.55-.48-34.47-.1-68.94-.14-103.41-.07-58.91-.31-117.82-.21-176.73a74.18,74.18,0,0,0-3.86-23.55,77.26,77.26,0,0,0-4.27-11.15c-6.4-12.54-17.85-18.83-30.31-23.6-5.75-2.2-11.23-1.45-16.39,2.45a78.76,78.76,0,0,0-19.6,21.13c-7.78,12.51-14.62,25.6-21.83,38.46-3.84,6.83-7.37,13.83-11.5,20.47-4,6.43-9.85,11-16.51,14.55L947.15,446c0,4.47.1,7.91,0,11.33-.32,8.51.79,16.67,5.08,24.24,2,3.55,2.44,7.46,2.44,11.58,0,30.83.2,61.65.08,92.47,0,4.73,1.89,7.63,5.71,9.56,4,2,8.3,3.69,12.37,5.69,3.08,1.52,6.64,2.72,8.92,5.09,10.65,11.08,17.08,24,15.32,39.9a4.85,4.85,0,0,0,1.74,4.75c3.55,3.14,7.06,6.32,10.44,9.64,4.29,4.21,8.68,8.36,12.58,12.93,11.79,13.79,21,29.28,29.19,45.4,1.26,2.49,2.33,4.85,5.45,5.07.24,2.17-2.25,3.14-1.26,5.34,1.84,4.11,3.27,8.41,4.94,12.8,13.17-3.72,25.23-8.68,35.82-16.66a42.13,42.13,0,0,0,11.18-11.89c5.56-9.33,6.47-18.69.63-28.36-3.08-5.11-7.3-9.08-11.78-12.8A49.09,49.09,0,0,0,1081.9,663.78ZM754.29,760.32c-2.37.69-3.75,1-5.07,1.48-8.23,2.89-16.48,5.76-24.67,8.75-13.49,4.92-27.32,8.92-40.25,15.34-2.57,1.28-4,2.77-4.37,5.61-.86,6.13-2,12.22-2.94,18.34-1.57,9.89-3.71,19.74-4.54,29.7-1.54,18.7-2.35,37.47-3.4,56.22q-1.84,32.75-3.58,65.52-1.69,32.49-3.2,65c-.58,12-1.15,24-1.64,36.06q-1,24.87-1.85,49.74a28.6,28.6,0,0,0,.71,4.58l5.11-4.57c4.89-4.38,9.36-9.37,14.75-13,13.11-8.87,26.66-17.1,40-25.67a13.68,13.68,0,0,0,3.42-3.41c6.39-8.65,12.69-17.36,19-26,4.31-5.87,8.41-11.86,13.89-16.83q18-16.35,35.69-33.09c10.75-10.17,22-19.71,34.94-27a20.1,20.1,0,0,0,2.37-1.88c-1.72-1.34-3.09-2.46-4.53-3.51a168.64,168.64,0,0,1-34.95-34.31,180.84,180.84,0,0,1-22.44-38.63,200.17,200.17,0,0,1-12.36-39,223.54,223.54,0,0,1-4.71-49.39C750,787.25,751,774.2,754.29,760.32Zm255,867a333.52,333.52,0,0,0,55.21-3.35c-1-3.22-1.78-6-2.73-9.14,2.91-2,5.47-4.71,8.58-5.77,6.86-2.35,13.92-4.26,21.37-3.62,4,.34,5.13,1,6,4.9.48,2.25.6,4.58.92,7.28,15.39-3.09,29.61-8.3,43.93-13.75-2.29-5.73,2.92-6.54,4.94-8.73l-13.34-17.94-6.63,1.91c-10.12,2.88-20.24,4.36-30.59.82a8.55,8.55,0,0,1-5.36-4.12q-5.35-9.84-11.08-19.48a11.64,11.64,0,0,1-1.42-7.87c.86-6.12,1.8-12.24,2.52-18.38,1.08-9.22,2.09-18.44,3-27.68.58-6.16,1-12.35,1.27-18.53q1.13-22.38,2.08-44.77a28.55,28.55,0,0,0-.53-4.69c-4.22,0-7.87-.2-11.49,0-7.81.51-15.6,1.47-23.41,1.83-12.56.58-25.13.81-37.69,1.2-2,.06-3.9.18-6.25.29-.09,3-.28,5.48-.24,8q.51,32.26,1.07,64.54c.15,9.67-.56,19.43.57,29,1.63,13.7-1.27,26.83-3.09,40.14-.35,2.5-1.64,4.06-4.11,5.23-4.22,2-8.64,2.58-13.14,3.33-8,1.32-15.57-.34-23.11-2.51-1.88-.54-3.55-1.79-5.32-2.72-2-1-2.66-2.69-2.7-4.93-.14-8.2-.65-16.4-.67-24.61-.09-37-.06-74.06-.1-111.09,0-2.1-.25-4.21-.39-6.56-13.06-1.23-25.56-2.18-38-3.64s-24.7-3.42-37.68-5.26c0,3.88-.21,7.31,0,10.71,1,13.25,2,26.51,3.21,39.74.72,7.78,1.67,15.56,2.87,23.29,2.12,13.66,4,27.37,7.76,40.73.65,2.28.66,4.64-1.23,6.65-6.35,6.79-12.56,13.72-19,20.43a11.68,11.68,0,0,1-5.09,2.8c-7.54,2.15-15.12,1.58-22.67-.22-1.36-.32-3.35-1-4.09-.4-2.69,2.24-5.65,4.46-6.69,7.92,16.19,12.13,33,22.41,52.18,28.42a13.29,13.29,0,0,0,.7-2c1-7.22,1-7.21,8-6,.71.12,1.48,0,2.17.22,7.11,2,14.67,2.6,20.84,7.47,3.91,3.08,4.26,3.23,2.8,8.07-.25.83-.41,1.68-.6,2.47,8.8,4,44.52,9.15,51.64,7.5-.13-1.42-.28-2.85-.38-4.29-.33-4.78,1.59-7.52,6.4-8.44a57.29,57.29,0,0,1,23.86.48c4.83,1.14,7,5,6,9.84C1010,1623.55,1009.72,1625.09,1009.3,1627.29ZM1132.7,831.1c-.69.07-.92,0-1,.11a8.59,8.59,0,0,0-1.06,1.2c-7.62,11.39-18.32,19.08-30.33,25.2a145.21,145.21,0,0,1-35.32,12.6,6.13,6.13,0,0,0-5.18,4.78,126.14,126.14,0,0,1-4.22,12.38c-6.37,15.15-13.75,29.83-23.93,42.78-6.62,8.43-13.54,16.84-21.49,23.94a154.41,154.41,0,0,1-29.84,21c-18.56,10-38.34,14.34-59,15.73-6.89.46-13.84.14-20.76,0-2.64,0-5.27-.43-8.74-.73,1.2,1.42,1.85,2.23,2.55,3,9.27,10.17,20.82,16.95,33.33,22.29a181.17,181.17,0,0,0,40.71,11.81c11.65,2,23.37,3.52,35.23,3.5,9.64,0,19.26.15,28.92-.77,8.33-.8,16.59-1.85,24.81-3.3a183.87,183.87,0,0,0,28.88-7.78,127.22,127.22,0,0,0,32-16.31A57.69,57.69,0,0,0,1135,984.78a31.74,31.74,0,0,0,4.59-15,51.8,51.8,0,0,0-4.44-22.29,15.19,15.19,0,0,1-1.26-5.19c-.38-12-.79-24-.86-36.07-.13-23.15,0-46.3-.06-69.45C1132.92,834.91,1132.78,833,1132.7,831.1ZM916.45,674.53l0-.51c-2.46,1.11-4.91,2.22-7.38,3.32-5.14,2.28-10.11,5.18-15.9,5.4-3.07.12-4.9,1.67-6.79,3.8C876.2,698,866.07,709.46,854.87,720a49.59,49.59,0,0,1-19.47,11.44c-10.74,3.41-21.3,7.4-32,11.06-2.61.9-4.37,2.35-5.08,5.12-1.1,4.22-2.6,8.35-3.51,12.61A231.71,231.71,0,0,0,789.93,797,189.08,189.08,0,0,0,792,833a157.43,157.43,0,0,0,12,42.48,239.68,239.68,0,0,0,14.56,27.48,128.58,128.58,0,0,0,25.7,29.66c5.88,5.11,12.28,9.64,18.38,14.38l22.57-11c.09-1.53.22-2.78.23-4q.29-31.46.55-62.92.25-30.64.47-61.28a16.61,16.61,0,0,0-.22-4.9c-2.48-8-2-16.26-2-24.43-.13-20.42,0-40.85.15-61.27,0-6,2.31-11.46,5.42-16.4,3.39-5.38,7.22-10.53,12.29-14.57C906.86,682.34,911.64,678.42,916.45,674.53Zm488.08,568.68c-1,2.69-2.2,5.33-3.1,8a78.45,78.45,0,0,1-13.09,24.4c-3.61,4.58-6.7,9.56-10.24,14.2a81.07,81.07,0,0,1-7.25,8.14c-3.1,3.09-6.44,5.93-9.66,8.89-9.27,8.5-18.42,17.11-29.4,23.51-6.76,3.95-13.12,8.59-19.78,12.71-4.17,2.59-8.49,5-12.88,7.16-6,3-12.16,5.79-18.26,8.63-7.43,3.44-14.71,7.31-22.36,10.16-13.29,4.94-26.81,9.28-40.25,13.79-4.65,1.56-9.33,3.07-14.08,4.27q-15.33,3.87-30.74,7.38c-11.87,2.71-23.64,5.8-35.81,7.06-8.67.89-17.23,2.69-25.87,3.92-8.82,1.26-17.65,2.6-26.52,3.38s-17.82.93-26.73,1.36c-1.09,0-2.18.18-3.27.25-9.08.6-18.16,1.67-27.24,1.69-16.23,0-32.46-.51-48.68-.94-6.91-.18-13.82-.51-20.71-1-13.24-1.05-26.46-2.25-39.68-3.48-4.52-.42-9-1-13.52-1.71-6.82-1.1-13.61-2.34-20.4-3.61-17.86-3.31-35.9-5.68-53.35-11-17.72-5.42-36-9-53.14-16.31-16-6.84-32.84-11.86-48.13-20.58s-31.11-15.93-44.86-27c-10.33-8.33-21.41-15.62-30.46-25.62-10.55-11.66-21.12-23.15-27.93-37.52a18,18,0,0,0-1.13-1.88c-3.72-5.89-6.68-12.09-7.82-19a42.55,42.55,0,0,0-1.33-4.49c-.17,1.52-.24,2-.28,2.49-.6,6.54,2.06,12.51,3.2,18.75a87.37,87.37,0,0,0,13.11,32.1c3.28,5,5.68,10.78,9.59,15.22,12.28,13.94,24.44,28.08,40.18,38.45,9,5.91,16.87,13.36,26.59,18.19,4.89,2.43,9.59,5.24,14.44,7.74,8.74,4.49,17.35,9.3,26.35,13.19,11.67,5.06,23.67,9.37,35.54,14,3.39,1.31,6.76,2.73,10.24,3.74q13.59,4,27.29,7.62c10.18,2.7,20.33,5.57,30.62,7.75,13,2.75,26.08,4.73,39.08,7.3,12.15,2.4,24.46,3.41,36.74,4.7,5.61.59,11.27.7,16.85,1.41a198.33,198.33,0,0,0,28.29,2c4-.06,8,.17,12,.38,23.15,1.26,46.28.61,69.41-.62.36,0,.72-.07,1.09-.1,8.89-.64,17.78-1.22,26.67-2q8.13-.66,16.24-1.73c8.82-1.16,17.63-2.45,26.43-3.76,8.62-1.28,17.31-2.25,25.81-4.08,16.87-3.63,33.83-7,50.37-11.85,23.37-6.79,46.71-13.93,68.75-24.48,15.07-7.21,30.78-13.24,44.58-23,12-8.5,25.32-15.17,36-25.71,9.81-9.72,20.74-18.21,28.6-30,7.2-10.77,15-21,18.62-33.75a40.43,40.43,0,0,1,2.13-5.61A41.06,41.06,0,0,0,1404.53,1243.21ZM910,684.47c-2.89,2.52-4.86,4.13-6.71,5.86-10,9.39-15.93,20.34-15.59,34.64.53,22.24.19,44.49.36,66.74a30.49,30.49,0,0,0,3.76,14.08c3.74,7.07,9.11,12.69,15.31,17.61,11.44,9.08,24.59,14.79,38.38,19.1a184.11,184.11,0,0,0,53.57,8.87c1.63,0,3.25.4,4.89.51,7.43.52,14.87,1.18,22.12-1.06a10.87,10.87,0,0,0,.9-2.18c1.56-10.25,3.7-20.42,3.76-30.86,0-9.1,0-18.16-.78-27.28-1.06-12.24-4-24-6.76-35.89-.56-2.43-1.84-3.37-4.23-3.16a72.29,72.29,0,0,1-9.27.62c-18.58-.78-37-2.68-54.79-8.63-14.09-4.73-27.39-11-37.73-22.17-9.13-9.89-12.84-21-7.85-34.09C909.56,686.7,909.63,686.18,910,684.47ZM676.39,789.59c-5.65,2.86-10.55,4.6-14.6,7.52-10.48,7.53-18.58,17.37-25.28,28.35a12.94,12.94,0,0,0-1.48,4.6c-2.18,13.09-4.29,26.2-6.41,39.31-1.1,6.83-2.5,13.62-3.18,20.49-1,10.14-1.53,20.33-2.15,30.5-.79,12.72-1.47,25.45-2.2,38.17s-1.46,25.45-2.18,38.17c-.74,12.9-1.54,25.81-2.18,38.72-.8,16-1.49,32-2.17,48q-1.15,27.3-2.18,54.6c-.74,18.94-1.43,37.87-2.18,56.8-.69,17.47-1.47,34.94-2.15,52.41-.49,12.75-.86,25.5-1.32,38.24-.29,7.83-.7,15.65-1,23.48a28.5,28.5,0,0,0,.66,4.53c6-3.33,9.9-6.61,9.61-13.74-.48-11.83-.12-23.69-.21-35.55a26.45,26.45,0,0,0-.8-7,72,72,0,0,1-2.48-23.22c.53-13.47.8-27,1.34-40.42a26.21,26.21,0,0,1,1.53-8c4.52-12.08,8.18-24.54,14.81-35.73a82.77,82.77,0,0,1,7.52-11.33c4.45-5.27,9.38-10.13,14.18-15.1a7,7,0,0,0,2.39-4.7c.21-4.54.72-9.08.92-13.62q1.17-26.47,2.22-53c.74-18,1.4-36,2.23-54.05.6-13.1,1.44-26.18,2.14-39.27.81-14.91,1.51-29.82,2.37-44.73,1-17.26,2.6-34.51,3-51.79.47-18.47,3.31-36.58,6.39-54.71C674.54,802.06,675.32,796.51,676.39,789.59Zm213.54,41v6c0,30.25,0,60.49,0,90.73,0,7.29-.46,14.56-.72,21.84,0,1.45,0,2.85-1.89,3.46s-2,2.23-1.52,4c8.83,3.38,17.92,4.16,27.28,4.29,13.84.18,26.51-3.81,38.84-9.36A116.88,116.88,0,0,0,978.1,935a130.87,130.87,0,0,0,21.9-23.46c7.32-9.88,12.49-20.91,17.59-32a27,27,0,0,0,1-3.48c-3.51,0-6.4.11-9.29,0-9.44-.42-18.94-.42-28.31-1.53a195,195,0,0,1-35.13-7.47c-11.32-3.53-22.27-8-32.26-14.44C904.53,846.82,896.37,839.86,889.93,830.59Zm250,596.53v129.59a25.81,25.81,0,0,0,4.34-1.53c3.92-2.29,8.29-2.61,12.61-3.08,6.48-.7,7.63.17,9,6.39q2.81,12.78,5.56,25.53l6.51,1.85c17.38-8.51,33.92-18.28,49.08-32-2.65-.21-4.27-.21-5.84-.5a12.25,12.25,0,0,1-4.61-1.36q-13.82-9.33-27.44-18.94c-3.13-2.19-3.13-2.57-1.83-6.43,1.45-4.31,3.25-8.53,4.33-12.93,3.48-14.12,7.58-28.11,9.46-42.6,1.29-9.91,2.69-19.81,3.92-29.73.74-6,1.35-11.93,1.79-17.92.27-3.56,1-7.19-.14-10.66-.55-.18-.93-.46-1.23-.39q-30.32,6.63-60.63,13.32C1143.34,1426.08,1142,1426.54,1139.88,1427.12ZM1062,745.51c.55,7,3,13.35,4.13,19.92s2.16,12.91,2.91,19.41c.78,6.69,1.49,13.41,1.62,20.13.13,6.54-.38,13.11-.85,19.65s-1.25,13.19-2,20.39c2.34-.51,4.12-.75,5.79-1.3,8.45-2.8,16.87-5.62,24.9-9.6,9.08-4.49,17.47-9.86,24.48-17.16,6.45-6.7,11.53-14.45,11.67-24,.37-24.62.3-49.25.33-73.88a30.55,30.55,0,0,0-3.77-14.11c-3.23-6.26-7.92-11.34-12.82-16.25-1.52-1.52-3.16-3.26-6-3.62.48,1.24.75,1.91,1,2.59,4,11,2.45,21.3-5.08,30.24a80.48,80.48,0,0,1-12.65,12c-7.73,5.89-16.56,9.84-25.82,12.79C1067.33,743.46,1064.82,744.47,1062,745.51ZM771.05,1396.24c0,4.36-.32,7.46.06,10.47,1.63,13,3.23,26,5.28,38.91a282.47,282.47,0,0,0,18.41,66.06c.28.68.82,1.4.73,2a6.23,6.23,0,0,1-1.18,3.32,13.46,13.46,0,0,1-3.74,2.2c-6,3-12.07,6-18.09,9-1.57.79-3.07,1.74-5.1,2.91,13.4,12,26.11,23.84,41.28,33.43l9.14-25.36L829,1540c1-6.29.84-120.41-.24-125.12C809.85,1409.33,790.31,1405,771.05,1396.24ZM756.68,746.88c-8.23,2.82-15.47,5.23-22.66,7.76-23,8.1-46.59,14.49-68.28,26-4.65,2.46-9.74,4.3-13.93,7.39-11.31,8.32-19.8,19.27-27,31.19a13.06,13.06,0,0,0-1.7,4.51c-2.58,14.88-5,29.79-7.6,44.67a295.5,295.5,0,0,0-4.23,31.91c-.78,12.35-1.46,24.72-2.18,37.09q-1.66,28.64-3.32,57.27c-.71,12.18-1.52,24.36-2.13,36.55-.83,16.37-1.53,32.76-2.23,49.14q-1.11,26-2.14,51.89-1.14,28.14-2.25,56.27c-.33,8.19-.7,16.38-1,24.57-.76,19.12-1.62,38.24-2.21,57.36-.35,11.49-.27,23-.37,34.48,0,2,0,3.94,0,6.52l7.91.63c.21-1.3.39-2,.42-2.69q1.08-25.12,2.14-50.25,1.11-26.76,2.17-53.53,1.11-27,2.21-54.08t2.19-54.07c.73-17.85,1.4-35.69,2.23-53.53.59-12.55,1.44-25.09,2.12-37.64.81-15.09,1.53-30.2,2.37-45.29.63-11.27,1.45-22.54,2.07-33.81.56-10,.9-20,1.47-30,.2-3.63.67-7.26,1.23-10.85,2.78-17.62,5.67-35.21,8.41-52.83.8-5.1,2-9.93,5.54-14,1.93-2.17,3.38-4.75,5.16-7.06,7.43-9.6,16-17.91,27.19-23,9.6-4.37,19-9.14,28.87-12.95,13.71-5.34,27.71-9.94,41.59-14.87,5.44-1.94,10.88-3.93,16.12-5.82C755.42,752.78,756,750.32,756.68,746.88Zm181.55-102.4c.71-4.85.68-4.76-2.88-6-11.5-4.05-23.57-4.19-35.5-5.34a10,10,0,0,0-2.18.09c-4.5.6-9,1.56-13.51,1.77-10.38.48-20,4-29.39,7.77a129.81,129.81,0,0,0-30.25,17.32,156,156,0,0,0-41.09,47.07,181.21,181.21,0,0,0-20.69,55c-3.53,17.58-5.22,35.23-4,53.15A203.69,203.69,0,0,0,762.16,844a200.64,200.64,0,0,0,17.23,49.89,175.88,175.88,0,0,0,25.18,36.9c8.13,9.22,17.65,16.8,27.69,23.85,8.15,5.72,17.15,9.66,26.18,13.43a91.27,91.27,0,0,0,21,5.68c10.19,1.59,20.52,2.78,30.9,1.22,4.49-.67,9.06-.95,13.46-2a128.68,128.68,0,0,0,49.07-22.85,142.06,142.06,0,0,0,27.42-27.29,174,174,0,0,0,26.81-51.63,189.84,189.84,0,0,0,8.88-42.67,198.11,198.11,0,0,0-1-45.84,207.68,207.68,0,0,0-10.9-43.33,187.37,187.37,0,0,0-18.37-36.53,162.4,162.4,0,0,0-29.18-33.89,14.21,14.21,0,0,0-2.21-1.28c-1.08,2.57.84,3.39,1.84,4.4,9.19,9.38,18.17,18.92,25.81,29.68a167.84,167.84,0,0,1,16.37,29,185.47,185.47,0,0,1,11.58,34.64,188.8,188.8,0,0,1,4.85,36.75,199,199,0,0,1-2.3,38.68,189.64,189.64,0,0,1-9.87,36.84c-8.66,22.37-21.31,42.31-39.07,58.64a132.61,132.61,0,0,1-19.8,15.43c-14,8.64-29.15,14.9-45.69,16.92-6.31.77-12.72,1.64-19,1.31-10-.53-19.85-1.67-29.55-4.65a135.45,135.45,0,0,1-36.25-17.37A130.9,130.9,0,0,1,808,925.35a165.06,165.06,0,0,1-17.05-22.67,176.6,176.6,0,0,1-16-33.46,196.1,196.1,0,0,1-11-58.81c-.25-7.81.47-15.65.78-23.48.46-11.52,2.79-22.8,5.83-33.82a181.72,181.72,0,0,1,13.78-35.59,177.46,177.46,0,0,1,17.56-27,134.06,134.06,0,0,1,18.46-19.35,132.19,132.19,0,0,1,30-19.8A123.87,123.87,0,0,1,883.49,641c3.22-.51,6.56-.43,9.73-1.16,9.68-2.24,19.21.53,28.81.66,1.77,0,3.54.77,5.31,1.21Zm38.56,18.9c2.21,2.33,4,4.4,6,6.26A182.66,182.66,0,0,1,1006,696.47a171,171,0,0,1,17.81,31.89,210.48,210.48,0,0,1,11.72,35.74,212.79,212.79,0,0,1,1.38,85.14,195.85,195.85,0,0,1-9.75,33.5,176.44,176.44,0,0,1-20.47,37.9A151.63,151.63,0,0,1,984,945.78a134.47,134.47,0,0,1-30.18,20.51,124.36,124.36,0,0,1-47,12.61,134.26,134.26,0,0,1-24-1,108.76,108.76,0,0,1-27.35-7c-11.71-4.57-22.86-10.43-32.68-18.48-.42-.35-.91-.62-1.34-.95a150.33,150.33,0,0,1-25.37-24.79,166.71,166.71,0,0,1-20.25-31.07,192.85,192.85,0,0,1-15.09-40.29c-2.44-9.88-4.73-19.84-5.36-30.06-.47-7.63-1-15.26-1.23-22.9A97.56,97.56,0,0,1,755,792c.39-5.08.36-10.23,1.24-15.22,2-11.45,3.88-22.92,7.52-34.07a213.42,213.42,0,0,1,15.18-35A155.7,155.7,0,0,1,798.82,679c9.16-10.49,19.29-20,31.11-27.35,8.15-5.07,16.66-9.92,25.61-13.25,9.79-3.65,19.88-6.56,30.59-7.53,16.13-1.46,31.92-1.31,47.52,3.34,1.88.56,3.83.87,5.67,1.28,2.45-4.42,2.37-4.79-1.53-5.87s-8-2.64-12.13-3.1c-11-1.24-22-2.8-33.13-1.15-6.1.91-12.24,1.64-18.26,2.93-4.78,1-9.42,2.75-14.1,4.22-10.51,3.29-20.16,8.52-29.23,14.54a149.28,149.28,0,0,0-29.34,25.27,187.54,187.54,0,0,0-24.15,34.32A190.83,190.83,0,0,0,762.15,744c-1.09,3.66-2.49,7.27-3.14,11-2.1,12-4.36,23.91-5.09,36.18a229.2,229.2,0,0,0,1,38.17A202.68,202.68,0,0,0,765.47,875a184.09,184.09,0,0,0,18.15,37.84c12.42,19.52,27.9,36.35,47.39,49.35a131.15,131.15,0,0,0,27.64,14.13c16.61,6.07,33.9,9.29,51.82,7.48,8.69-.88,17.24-2,25.71-4.4a127.55,127.55,0,0,0,33.67-15.27,146,146,0,0,0,25-20.22,166.61,166.61,0,0,0,25.91-34.41A185.69,185.69,0,0,0,1036.7,873a203.08,203.08,0,0,0,9.2-49.24,209.65,209.65,0,0,0-5.65-64.5,213.41,213.41,0,0,0-17.43-46.37,173.8,173.8,0,0,0-40.67-51.66,21.38,21.38,0,0,0-2.28-1.54Zm281,864.12c3.29-.78,5-3.35,7-5.28,5.92-5.65,11.72-11.43,17.46-17.27a10,10,0,0,0,3.31-7.93c-2.85-1.06-5.74-2.1-8.62-3.2-4.88-1.88-4.91-2.14-2.66-7.08,2.41-5.3,4.92-10.56,6.93-16a344.61,344.61,0,0,0,17.13-63.66c1.64-10,2.66-20.19,3.91-30.29a9.46,9.46,0,0,0-.45-2.42l-43.88,20.7c-.3,43.62-.6,87-.86,130.32A7.3,7.3,0,0,0,1257.74,1527.5Zm-289.51,53.89c9.07,2,18,.89,26.71.87.4-.86.67-1.18.67-1.5q.09-68.85.15-137.71c0-1.46-.13-2.91-.21-4.36,0-.16-.17-.31-.27-.45s-.24-.28-.41-.47c-8.73-1.73-17.54-1.53-26.64-1Zm162.1-7.84c.34-17.33.87-33.88,1-50.43.15-31.34,0-62.67,0-94,0-.15-.18-.31-.3-.44s-.26-.24-.62-.57c-8.36,1.11-17,1.9-25.21,3.92a10,10,0,0,0-.56,2q-.09,68.6-.11,137.2c0,1.45.2,2.89.32,4.34a1,1,0,0,0,.23.48,8.39,8.39,0,0,0,.76.75C1113.88,1577.55,1121.9,1575.42,1130.33,1573.55Zm-269-5.64c1.12-4.32,1.23-139.76.09-145.21-3.89-.82-7.92-2-12-2.45s-8.12-2.87-13.08-2.44c.39,48.31.77,96.22,1.16,144.25C845.35,1565.63,853.34,1566.85,861.37,1567.91Zm368.57-163.65c-1,11.11-.59,140.79.42,144.77,9.1-1.5,16.84-4.54,21.19-8.26V1396.83Zm-554.89-59.82c-.87,9-.58,129.46.29,133.5,4.25.34,36.7-7.32,40.85-9.66a10.39,10.39,0,0,0-.47-1.53,287.45,287.45,0,0,1-20.52-56.28,377.15,377.15,0,0,1-9.06-48.77c-1.23-10.82-1.17-10.83-10.1-17A5.43,5.43,0,0,0,675.05,1344.44Zm99.27-640.63c-2.52.56-3.73.71-4.87,1.09-17.56,5.93-35.23,11.47-51.91,19.83-9.65,4.83-18.87,9.79-26.79,17.38-12.49,12-26,22.85-37,36.38-1.07,1.32-2.13,2.67-3.19,4a3.76,3.76,0,0,0,3-.18c4.27-2,8.48-4.19,12.79-6.12,8.46-3.79,16.79-8,25.5-11.07,20.7-7.39,41.58-14.29,62.42-21.3,3-1,4.94-2.5,5.8-5.75,2.69-10.08,7.05-19.49,12-28.67C772.73,708,773.22,706.47,774.32,703.81Zm-46.94,673.35c-.1,2.1-.21,3.18-.21,4.26q0,63.7.07,127.4a104.08,104.08,0,0,0,.85,11.42,4.19,4.19,0,0,0,1.48,2.71,42,42,0,0,0,16.39,7.57V1387Zm650.15,66.27a35.62,35.62,0,0,0,.44-3.58q0-60.9-.14-121.81a.67.67,0,0,0-.22-.46,6.66,6.66,0,0,0-1.31-.35c-2.18,2.37-4.42,5.3-7.17,7.65-3.15,2.71-4.41,6-4.9,9.95a314.5,314.5,0,0,1-15.31,64,22.59,22.59,0,0,0-1.3,6.89c-.15,9.83-.1,19.66-.08,29.5,0,1.41.26,2.82.44,4.62C1357.76,1441.43,1367.38,1442.66,1377.53,1443.43Zm-62.22-76.82c-2.22,1.35-3.57,2.25-5,3-2.85,1.53-3.85,3.91-4.22,7.09-1.7,14.62-3.27,29.24-6.4,43.69-5,23.18-11.56,45.82-21.51,67.41a7,7,0,0,0-.32,2c7.94,3.88,33.38,12.12,37.44,12ZM1014,729.66c-5-8.6-8.84-16.25-13.59-23.33a183.34,183.34,0,0,0-24-28.32c-3.79-3.72-7.44-7.4-12.76-9a19.23,19.23,0,0,1-5.26-2.85,9.69,9.69,0,0,0-8.24-1.56c-3.72.84-4,.74-4,4.42-.07,9.66,0,19.32,0,29A17.54,17.54,0,0,0,950.82,710,45.37,45.37,0,0,0,963.61,720c10.49,5.48,21.76,8.15,33.35,9.52C1002.11,730.17,1007.4,729.66,1014,729.66Zm6.44,17.73c-1.2-3.44-2-6-3-8.53-1.78-4.65-2.21-4.82-7.16-5.07-6.17-.3-12.36-.5-18.49-1.21-10.36-1.21-20.44-3.86-29.59-8.92-10.78-5.95-20.42-13.09-20.26-27.33a3,3,0,0,0-2.42-3.21c-3.6-.61-6.08-3.14-9.08-4.79a52.94,52.94,0,0,0-10.59-4.07A4,4,0,0,0,915,686c-2.56,4.9-4.2,10.14-3.47,15.72.82,6.31,3.84,11.65,8.07,16.41,7.06,7.95,16,13.13,25.51,17.4,22.4,10,46.2,12.24,70.31,12.77A29.84,29.84,0,0,0,1020.42,747.39ZM723.13,1374.88,712,1368.79c-3.83-2.08-7.64-4.2-11.51-6.22-3.56-1.86-6.06-5.51-10.8-6.62,3.91,40.33,14.12,78.32,31.74,114-.41.71-.51,1.17-.78,1.31-1.37.77-2.79,1.45-4.43,2.29a31.87,31.87,0,0,0,7,8.8Zm68.24,139.52c-.55-1.56-.81-2.42-1.16-3.24-6.13-14.27-10.36-29.21-13.76-44.25-4-17.55-7.42-35.27-8.46-53.34-.3-5.26-1.07-10.5-1.83-15.71-.6-4.1-.75-4.08-5.73-4.69a5.69,5.69,0,0,0-.52,1.5c-.09,2-.14,4-.13,6q.12,64,.27,128a.81.81,0,0,0,.24.49,7.18,7.18,0,0,0,1.05.64Zm538-13.32a42.84,42.84,0,0,0,8.28-4.83c4-2.93,5.53-6.49,5.46-11.58-.29-19.49-.1-39-.1-58.48q0-35.54,0-71.06c0-1.87.47-3.9-.93-6-2.74,1.7-5.09,3.43-7.67,4.7-4.1,2-5.36,5-5.34,9.59.18,44.09.1,88.18.11,132.28C1329.16,1497.3,1329.3,1498.88,1329.4,1501.08Zm-113.3-91.64c-2.29.25-4.2.72-4.38,3.64-.09,1.63-.54,3.24-.68,4.86-1.15,14.13-2.28,28.25-4.3,42.31a390.09,390.09,0,0,1-14.83,65.31c-1.22,3.73-1.2,4,2.06,6.33q9.84,6.9,19.8,13.62a12.66,12.66,0,0,0,2.79,1C1217.46,1533.25,1217.07,1414,1216.1,1409.44ZM907.19,965.9c-4.15-.41-8.3-1-12.47-1.2-10.5-.5-20.45-3.56-30.07-7.29A115.89,115.89,0,0,1,834.45,940a159.62,159.62,0,0,1-24.12-23.72,147.39,147.39,0,0,1-17.64-26.91,173,173,0,0,1-14.14-37.15,199.37,199.37,0,0,1-5.39-31.7,193.73,193.73,0,0,1,.84-41.43,176.82,176.82,0,0,1,9.15-37.58,184.28,184.28,0,0,1,19.61-38.86,144.12,144.12,0,0,1,24.94-28.16,119.38,119.38,0,0,1,34.55-21.68,140.38,140.38,0,0,1,22.87-7.09c7.59-1.61,15.46-1.87,23.22-2.72a159.88,159.88,0,0,0-22.77,1.2A116.25,116.25,0,0,0,839,661.93a139.41,139.41,0,0,0-38.13,36.38,170,170,0,0,0-19.35,34.77,186.48,186.48,0,0,0-13.77,69.17c-.07,5.81.73,11.62.83,17.44.24,12.5,2.81,24.69,6.27,36.5,5.78,19.81,14,38.63,26.74,55.24,13.79,18,30,33,50.67,43.1C869.69,963.06,888,966.42,907.19,965.9Zm-259.5,448.74c.11-2.38.26-4.17.26-6q0-40.18,0-80.36c0-1.64-.12-3.28-.12-4.92a12.15,12.15,0,0,0-3.81-9.3,55.87,55.87,0,0,1-11.19-15.38,13.68,13.68,0,0,0-1.79-2c-.45,39.82,0,78.7,1,117.91ZM949.08,603.37c-2.69.4-3.55-.74-3.68-2.61-.47-6.71-1.26-13.41-1.27-20.12q-.07-45.37.3-90.76c0-4.47-1.48-8-4.64-11.9-.11,24.53-.26,48.25-.31,72s0,47.65,0,71.34c3.23,1.62,5.47,2.13,8.54.2,4-2.5,8.72-2.27,13.08-.36,3.19,1.4,6.17,3.09,6.68,7.2.31,2.49,2.06,4,4.32,5.23,4.94,2.67,9.71,5.68,14.57,8.51,1,.56,2.06.92,3.53,1.57a53.31,53.31,0,0,0-8.86-27.73A23.69,23.69,0,0,0,969,606.55a96.06,96.06,0,0,1-12.2-5.95c-2.63-1.4-5.1-3.08-8.08-4.89C948.86,598.78,949,601,949.08,603.37ZM660.83,1474.75l1.28-.48V1470q-.09-51.09-.16-102.18c0-10,0-20,0-30.06,0-1.6.16-3.57-.66-4.74a39.91,39.91,0,0,0-8.49-9c-.15,2-.32,3.22-.32,4.44q0,66.12,0,132.24C652.39,1467.34,656.37,1471.12,660.83,1474.75ZM944.25,661.6c-2-.59-2.84-1-3.67-1.05-13.69-.11-27.4-.08-39.83,6.88-7.11,4-14.75,5-22.67,4.94a15.85,15.85,0,0,1-2.18,0c-5.95-.81-11.2,1.19-16,4.34-5.23,3.46-9.64,7.92-11.76,13.92A119,119,0,0,0,843.31,708c-1.39,7.29-5.49,11.55-12.38,13.75-7.45,2.37-14.77,5.18-22.25,7.48-3.37,1-5.3,2.93-6,6.26-.22,1-.51,2-.85,3.25a12.42,12.42,0,0,0,2.51-.27c12.16-4.3,24.35-8.54,36.45-13,5.79-2.14,9.75-6.08,10.9-12.52.76-4.29,2.25-8.46,2.93-12.76,1.84-11.53,13.92-21.41,25.26-20.74a64.27,64.27,0,0,0,8.21-.1c5.07-.34,10.16-.75,14.78-3.21,11-5.87,22.79-9.49,34.89-12.21A68.28,68.28,0,0,0,944.25,661.6Zm20.46-27.41c-.21.38-.41.77-.61,1.15,3.36,1.71,7,3.06,10,5.2,10,7,20.06,13.73,28.92,22.33a188.67,188.67,0,0,1,31.25,39.82A197.56,197.56,0,0,1,1055,752.41c4.41,16.6,7.24,33.43,7.2,50.66,0,6-.17,12-.09,18,.17,13-2.36,25.78-5.33,38.3-2.93,12.34-6.44,24.66-12.36,36.06-1.43,2.75-2.75,5.55-4.07,8.35-5.46,11.61-12.72,22.11-20.82,32a151.93,151.93,0,0,1-30.75,28.56,30.7,30.7,0,0,0-2.59,2.27,2.22,2.22,0,0,0,2.19-.28c6.77-5.24,14-10,20.17-15.86a169.64,169.64,0,0,0,35.7-47.94,196.14,196.14,0,0,0,17.8-52.52,228.55,228.55,0,0,0,3.82-35.23c.31-11.7-.73-23.25-1.9-34.86a177.56,177.56,0,0,0-7.63-35.13,204.08,204.08,0,0,0-17.82-41,197.35,197.35,0,0,0-23-31.85A155.26,155.26,0,0,0,980,642.32C975.06,639.31,969.8,636.88,964.71,634.19ZM875.09,1561.6c.32.19.63.39.94.59,5-5.53,10-11,14.79-16.66.84-1,.76-3.09.53-4.58-.42-2.68-1.43-5.27-1.92-7.94-2.94-15.74-6.18-31.42-7.53-47.41-1.1-13.06-2.26-26.1-3.33-39.16-.44-5.26-.72-10.53-1-15.8-.11-1.73-.06-3.49-2.45-5.19ZM849.26,664.52l-.41-.65c-1.15.71-2.36,1.34-3.44,2.14-2.79,2.06-5.52,4.18-8.27,6.29a122.91,122.91,0,0,0-22.82,23.43,172.62,172.62,0,0,0-18.67,30.78c-4.81,10.09-8.16,20.68-11.13,31.34A120.39,120.39,0,0,0,780,783.61c-.57,11-1.64,22.06-.61,33.26a213.69,213.69,0,0,0,10.41,50.62,166,166,0,0,0,16,33.43,146,146,0,0,0,29.76,34.79c7.91,6.68,16.52,12.29,25.54,15.8-7.12-5.1-15.23-10.09-22.36-16.21-18.13-15.56-31.56-34.78-41.08-56.6a187.15,187.15,0,0,1-15.19-66.15,189.43,189.43,0,0,1,4.92-52.6,167.71,167.71,0,0,1,26.51-59.46,150,150,0,0,1,33.43-34.28C848,665.7,848.61,665.09,849.26,664.52Zm47.82,157c2.17,3.26,4,6.81,6.57,9.75,8.75,10.12,19.83,17,32.1,22.08A160.91,160.91,0,0,0,973.38,864c8.06,1.24,16.24,1.73,24.37,2.51,2.89.28,5.8.56,8.71.67a100,100,0,0,0,12,.09c3.64-.31,4.41-1.9,3.77-6.63-22.4,1.05-44.81-.32-66-8.14C935.34,844.81,914.71,836.18,897.08,821.53Zm86.91-420c-23.75-4.39-44.28,14.82-44.35,34.33,8.53-8.49,17.2-4.85,26.17-.2C971.94,424.17,977.81,413.14,984,401.53Zm-58.5,247.24c-5.35-.53-9.85-1.16-14.37-1.4-9.12-.48-18.09,1.13-27,2.4A14.56,14.56,0,0,0,874,655.58c-3,4-6.67,7.68-10,11.54a26.14,26.14,0,0,0-2,3.08c3.6-.62,6.79-1.86,9.85-1.58,12.39,1.14,23.71-1.84,34.43-7.78a18,18,0,0,1,3-1.26,21.32,21.32,0,0,1,3.66-.92c3.6-.46,7.21-.75,10.8-1.24a33.86,33.86,0,0,0,4.54-1.32C927.25,653.35,926.36,651,925.49,648.77ZM807.61,724.53l.86.76c5.65-2,11.17-4.43,17-5.76,9.15-2.1,13.62-7.37,15.24-16.63,1.55-8.87,4-17.76,10.45-24.76.15-.16,0-.62-.07-1.15-2.08.66-4.08,1.4-6.13,1.94-5.1,1.33-9,4.25-12.58,8.09-7,7.51-12.48,16.07-18.09,24.55C811.59,715.6,809.8,720.19,807.61,724.53Zm417.71,682c-4.33.83-4.34.83-4.49,4,0,1.1,0,2.19,0,3.28v128.94c0,1.64,0,3.28.11,4.91a6.33,6.33,0,0,0,.58,1.61,13.14,13.14,0,0,0,2.14.21,6.9,6.9,0,0,0,1.68-.55Zm-474.54-17.27c-1.07,5.74-1,140.9.18,142.44h4c.1-2.37.27-4.52.27-6.66q0-63.43,0-126.86c0-1.64,0-3.29-.06-4.92C755,1390.12,754.93,1390.12,750.78,1389.25Zm574,114c1-9.51.63-138.28-.36-142.24-4.35.87-4.28,4.15-4.27,7.55q0,62.07,0,124.13c0,3.43.21,6.86.33,10.56Zm-458.37,64.4c4.43-.14,3.69-3,3.72-5.16.32-21.12.69-42.25.82-63.38.14-22.77,0-45.54,0-68.31v-6.23l-4.58-.83ZM666.31,1338.26a9.53,9.53,0,0,0-.37,1.57q.38,67.47.77,134.93c0,.54,0,1.09.08,1.63.24,2.39,1.76,2.28,3.89,1.9V1347.14c0-1.1-.08-2.19,0-3.28C670.9,1340.86,669.51,1339.13,666.31,1338.26Zm724.12,98c3-3,3.73-6.55,3.74-10.21q.19-64.18.32-128.38c0-1.13-.23-2.27-.38-3.74-3.4,2.44-3.71,5.36-3.7,8.58q.06,65.28,0,130.57Zm-7.66,6.61c2.65-.27,3.43-1.42,3.61-3a32.6,32.6,0,0,0,.11-3.83q0-63.46,0-126.94c0-1.3-.23-2.6-.37-4.15-3.35,2.67-3.6,5.83-3.6,9.22q.06,61.55,0,123.11C1382.54,1439.06,1382.68,1440.84,1382.77,1442.86Zm-291.32,124.93c1.41-6.12,1.61-96.26.14-123.85-.3,6.64.06,13.31-.37,19.92-1.15,17.59-2.45,35.17-4.08,52.72-1,10.29-2.67,20.52-4,30.78-.23,1.78-.71,3.9,0,5.35C1085.57,1557.69,1088.46,1562.43,1091.45,1567.79ZM1064.76,861c5-1.58,9.35-2.82,13.6-4.31,13.84-4.85,26.91-11.09,37.53-21.55,4.09-4,7.69-8.44,9.38-14.13-1.94,1.15-3.48,2.69-5.24,3.93-5.35,3.76-10.47,8-16.26,10.95-11.18,5.65-22.73,10.58-34.2,15.64-2.47,1.08-3.86,2.56-4.14,5.17C1065.31,857.8,1065.1,858.87,1064.76,861Zm-65,720.54c3.41-2,2.54-4.17,2.54-6q.21-65.37.31-130.73a45.15,45.15,0,0,0-.2-5.46c-.08-.64-.86-1.2-1.73-2.33a10.67,10.67,0,0,0-.89,2.59C999.75,1486.64,999.75,1533.63,999.75,1581.56Zm99.46-5.25c1.22-5.41,1.08-139.18-.18-143.67-.75.63-1.74,1-1.88,1.66a19.53,19.53,0,0,0-.29,4.34q0,65.91,0,131.83a17.81,17.81,0,0,0,.35,4.33C1097.36,1575.39,1098.43,1575.75,1099.21,1576.31ZM624,1285v4.55q0,56.84,0,113.67c0,2.73.07,5.47.32,8.18.07.78.85,1.48,1.31,2.22l1.09-.26c0-1.93.12-3.86.12-5.79q0-44,0-88,0-13.66,0-27.33C626.9,1289.87,627.07,1287.47,624,1285Zm723.47,103c4-8.43,5.63-17.51,8-26.39,3.72-14.12,5-23.56,3.81-27.58-3.32,3-6.51,6-9.76,8.85a6,6,0,0,0-2,4.81Q1347.53,1367.79,1347.5,1387.94Zm-384.89,49.39a12.76,12.76,0,0,0-.34,2.1q.18,69.39.4,138.77a.66.66,0,0,0,.27.46c.12.1.33.08.49.11C964.37,1573.29,964.24,1441.41,962.61,1437.33ZM855.41,714.22c10.65-10,19-20.22,28.06-30.18-10.27-2.58-19.73,3.91-23.31,11.86C857.79,701.19,857.14,707.26,855.41,714.22ZM1018,872c-16.17-.88-32.33-1.56-48.32-4.59-18-3.42-35.3-8.74-51.06-18.25-9.77-5.91-18.35-13.21-23.84-23.52a41.77,41.77,0,0,1-2.56-6c-.69-2-1.11-4.12-1.65-6.19,0,8.85,3.58,16.2,9.38,22.63,12.65,14,29.11,21.6,46.62,27.16a200.75,200.75,0,0,0,40.52,8.06C997.44,872.32,1007.7,871.64,1018,872Zm-68.19-382-.77-.12a5.9,5.9,0,0,0-.66,1.82q.11,48.58.31,97.18c0,.18.55.37,1.36.89.18-.35.63-.82.63-1.29Q950.28,539.16,949.81,489.91Zm452.3,787.23c-1.08,1.41-1.41,1.66-1.49,2a9.57,9.57,0,0,0-.27,2.14q0,46.18.12,92.36a.63.63,0,0,0,.23.47c.13.08.35,0,1,0C1402.47,1342.12,1402,1310.14,1402.11,1277.14ZM969,1653.17c1.64-8.15,4.16-15.49,5-23.36-3.21-1-6-1.3-9.16.12.18,7.4-2.27,14.63-1,22.19Zm94.87-787.7.36,1.06a147.79,147.79,0,0,0,21.15-6.45,114.18,114.18,0,0,0,27.38-14.48,54.81,54.81,0,0,0,14.93-15.75c3.08-5.07,5.39-10.44,4.78-16.62-2.51,14.28-11.53,24-22.63,32.17a107.1,107.1,0,0,1-31.15,15.31C1073.73,862.28,1068.8,863.88,1063.86,865.47Zm78.32,695c3.07,6,5.71,11.38,8.54,16.65,2.1,3.91,3,3.94,7.3.53l-7.36-21Zm-121.81,71c.32,8.25,1.91,15.61,3.78,23.22l5.73-.48c-.45-7.73-.88-15.1-1.32-22.74Zm64.05.82c-1.38-7.57-1.33-14.81-3.64-22.15l-8,1.86c1.21,7.54,3.68,14.24,5.81,21.21ZM903.9,1603.71c-1.37,6.27-2.67,11.7-3.71,17.19-.82,4.36-.16,4.94,5.22,5.22,2.35-6.42,4.74-12.95,7.31-19.94Zm267.29,7.73-6.55-21-8.32,3.27,9.34,19.89Zm-177.82,25.18c4.42.45,5.06.33,5.48-1.94,1.17-6.2,2.13-12.43,3.17-18.59a9.47,9.47,0,0,0-8.65-.49Zm40.18-6.07a226.87,226.87,0,0,0,.3,23.73,26.23,26.23,0,0,0,2.64.26,15.57,15.57,0,0,0,2.37-.51c.48-7.6,2.33-15.25,1.7-23.48ZM958.12,642.43,979,655l5-2.79c-7.68-5.77-14.64-11.24-23.6-13.73Zm29.75,994.36a74.19,74.19,0,0,0,1-21.63h-7.67c.76,7.47,1.49,14.54,2.22,21.63Zm-33.24,14.27c4.16-.27,4.59-.51,4.88-3.51.51-5.2.88-10.43,1.21-15.65a22,22,0,0,0-.44-3.8l-6.76-.36C953.89,1635.65,954.25,1643.14,954.63,1651.06ZM1223,1562.14l11.51,18.12,4.06-3.08c-3.07-6.51-6-12.79-9.15-19.42Zm-453.17,2.68,4.93,2.9c4.37-4.71,8.62-8.87,12.52-13.82l-6-5.35C777.33,1554.11,773.72,1559.25,769.8,1564.82Zm444,4.75c4.68,5.53,8.44,10.85,13.36,15.29l3.83-2.68-11.13-17.6Zm-394.11,28.76,4.77,2.06c4.71-6.6,8.79-14.64,9.38-18.35h-8ZM880.42,955.4c4.1-7.91,4.92-11.17,3.86-14.58-9.37,3.48-13.65,5.81-15.9,8.87Zm-10.2,648.4c-2.46-1.61-4.24-3.08-7-3-2.18,5.77-5.72,10.86-7.38,17.15l4.62,1.24C863.66,1614.08,866.77,1609.19,870.22,1603.8Zm-16.8-9.45-6,19.09,4.58,2.11c2.79-6,5.33-11.59,8-17.29Zm238.84,15.13c-2.89,0-4.86-.76-6.83,1,1,6.91,2,13.82,2.89,20.51,2.41,1,3.87.64,3.91-1.61C1092.33,1622.88,1092.26,1616.41,1092.26,1609.48Zm39.78,2.36c3.24,5.61,6.22,10.77,9.19,15.93,1.3,2.24,2.94,2.26,5.45.62l-7.92-18.8Zm-299.86-7.32c2-2.84,4-5.45,5.84-8.11s3.7-5.33,5.61-8.09c-1.82-1.69-3.19-3.32-5.65-3.8-2.9,6.22-6.91,11.64-9.22,18.15Zm-53.85-58.67-5.33-4.66c-3,5.71-5.85,10.94-8.56,16.24-1.1,2.15,0,3.39,2.71,4.3Zm319.93,75.94,3.75,23.42c1.57-1.49,3-2.18,3-3,.52-7.21-.62-14.32-1.25-21.9Zm56.41-65.77c3.17,7.8,4.55,15.36,8.35,22,3.15-1,2.52-3,2.17-4.69-.86-4.07-1.88-8.1-2.87-12.13-.41-1.71-.93-3.4-1.44-5.2Zm-262,67.6c2.53.5,3.19-.73,3.56-2.54,1-5.14,2.16-10.26,3.17-15.4a11.65,11.65,0,0,0-.19-2.84l-5.21-1C893.38,1609.41,891.51,1616.37,892.64,1623.62Zm-63.06-76.08-1.11-.44c-2.82,6.09-5.65,12.17-8.54,18.4,1.19.77,1.89,1.31,2.67,1.7a17.91,17.91,0,0,0,2.15.8C831.61,1562.07,829.23,1554.51,829.58,1547.54Zm318.47,51.94c3.27,5.37,6.18,10.18,9.11,15,1.09,1.8,2.35,2.79,4.6.4-2.83-6.07-5.71-12.23-8.76-18.79ZM1260,1532a26.74,26.74,0,0,0,8.87,11l4.1-3.33a46,46,0,0,0-8.8-11.58Zm-115,75.13-1.29.23c-.21.62-.77,1.37-.58,1.84,2.37,6,4.85,12,7.42,18.25l5.3-2.67C1152.91,1618.14,1148.68,1612.8,1145.05,1607.1ZM950.66,660.93c-2.12-13.76-1-25.86,6.67-37.32C948.25,628.47,944,651.68,950.66,660.93Zm6.84-13.52c-.53,4.22-.58,4.3,1.41,5.41,4.69,2.64,9.42,5.19,14.43,7.93l2.77-2.16C970,653.74,964.59,649.73,957.5,647.41Zm231.58,953.35c-2.82-4.36-3.86-9.07-7.06-12.43-4.14,2.33-4.87,3.42-3.45,6.5,1.34,2.91,3.34,5.52,5.16,8.44Zm-375.87-36.83c1.54,0,2.35.19,2.49,0,3.83-6.15,6.6-12.78,9.59-19.85l-4.81-.86C818.06,1550.09,815.74,1556.7,813.21,1563.93ZM846.7,673.15l.47,1.05c4.53-1.35,9.29-2.08,12.08-6.92,1.33-2.33,3.4-4.23,5.17-6.3s3.42-3.89,5.59-6.36c-5.72.79-7,1.21-7.37,3.69s-2,3.74-3.65,5.08C854.91,666.66,850.8,669.9,846.7,673.15Zm95.51-203c.57-.66.93-.9,1-1.19a10.51,10.51,0,0,0,.22-2.17q0-12.82-.13-25.67a.54.54,0,0,0-.27-.42c-.14-.05-.35,0-.53.08C940.09,448.11,939.81,466.25,942.21,470.18Zm223.9,1112.5c-7-1.72-13.51,1.08-16,6.85C1156.84,1590.73,1163,1588.1,1166.11,1582.68Zm11.18,27.47a157.07,157.07,0,0,0-4.13-20.19c-.53-1.92-2.08-1.59-4.1-.59,1.06,6.69,3.43,13.09,5.75,19.5C1175,1609.32,1175.92,1609.47,1177.29,1610.15Zm-30.48-25.35c2.46-1.41,2.15-2.67,1.39-4.12-2.12-4-4.16-8.09-6.28-12.1a20.9,20.9,0,0,0-1.9-2.47c-1.48,4.67-1.77,6.06-.67,7.78C1141.67,1577.54,1144.22,1581.05,1146.81,1584.8Zm-238,43.83c1.56-.12,2.28,0,2.52-.23,1.79-2,7.49-14.9,8.12-18.35l-3.47-1.27Zm226.69-128.45.2-.13V1429.7h-.2Zm-423.85-25.3c-10.31,4.59-16.77,8.56-18.77,12a213.54,213.54,0,0,0,20.76-9.13C712.82,1476.54,712.32,1475.83,711.66,1474.88Zm480.48,123.26c2.76-.89,3.3-2.42,2.78-4.11-1.06-3.37-2.37-6.65-3.76-10.49l-5,2.65ZM941,667c-3.92,2.13-8.65,1-11.94,5,4,2.62,7.81,2.81,11.52.7C942.48,671.63,942.17,669.7,941,667Zm326.27,857.61c3.27,4.41,5.42,8.47,9.19,11.39,1.57-2.85,1.65-2.89,1-4-2-3.34-4-6.65-6.49-10.72ZM813,1568.08c5.15,7.18,10.09,10.13,15.12,9.07C824.45,1572,819.52,1569.25,813,1568.08Zm241.38,74.09c1.42-.77,2.57-1,2.81-1.58,1.46-3.61,1.32-7.33.58-11.47l-4.57.42C1053.63,1633.7,1054,1637.44,1054.42,1642.17Zm35.62-1.93c.85,2.53,1.5,4.49,2.26,6.74l5.53-1.63c-.43-2.76-.84-5.31-1.33-8.43Zm-17.13-5.62,1.09-.36c-1-7.52-3.76-16.21-6.22-19.18-.42.63-1.24,1.36-1.11,1.75C1068.68,1622.79,1070.81,1628.7,1072.91,1634.62Zm218.24-135.3c6.36,3.54,12.47,7.56,19.43,9.89C1305.21,1503.73,1298.6,1500.71,1291.15,1499.32ZM908.41,1640.7c2.53,1.52,3.41-.07,4.23-1.75,2.13-4.37,4.27-8.74,6.36-13.13.54-1.13.93-2.32,1.38-3.49a46.76,46.76,0,0,0-4.68,8c-1.05,2.13-2.11,4.09-4.55,5.07S908.57,1638.5,908.41,1640.7Zm-75.66-76.38c-4.44,6-4.44,6-1.24,8.9,1.65-2,3.27-4.07,5-6.27ZM779.67,1570c2.25-2,4.67-3.84,6.71-6,1.91-2,5-3.26,5.59-7C788.31,1558.49,783,1563.71,779.67,1570Zm41,9.7c-3,5.49-4.79,10.55-5.06,16,2.65-4.62,4.94-9.36,5.8-14.65C821.48,1580.65,820.93,1580.15,820.67,1579.68Zm439.73-33.81c-8.69,4.79-10.1,6.05-11.9,10.23A23.66,23.66,0,0,0,1260.4,1545.87ZM935.7,619.26c-3.28-1.84-9-2.06-15.06-.58,5,.55,9.39,1,13.77,1.48C934.67,620.19,935,619.79,935.7,619.26Zm22.16-175.87c-2.84-2.29-5.09-3.72-8.77-2.3l4.22,5.48Zm3.85-3.8c.15-.4.3-.81.44-1.21-2.21-1-4.36-2.24-6.65-3.09-3.94-1.46-4.81-1.32-6.73.26ZM955,638.11l8-9.28c-1.43-2.13-2-2.31-3.58-.61C956.79,631.1,956,634.83,955,638.11Zm14.71,28.27c-2.52-2.91-5.54-4.88-10-4.91C963,665,963.87,665.46,969.71,666.38ZM939.56,656.1c-.86-2,.09-4.24-2.68-4.52-.82-.09-1.65-.11-2.6-.17v4.69ZM1049.17,1631c-1.66,4.79-2.12,9.92-1.31,12.37C1050,1641.06,1050,1640.74,1049.17,1631Zm-150,3.08c.07,3.9,1.4,5.58,3.67,5.1a2.85,2.85,0,0,0,1.82-1.68,2.46,2.46,0,0,0-.88-2.21A23.93,23.93,0,0,0,899.17,1634Zm74.1,18.19c4.11-6.27,4.46-8,2.68-11.45Zm43.89-8c-.09-4.2.07-8.41-2.83-11.88Q1015.75,1638.24,1017.16,1644.18Zm69.93,4.72c.94-3.27-.12-5.16-1-7a1.52,1.52,0,0,0-1.35-.49c-.5.36-1.13,1.1-1.06,1.58A9.14,9.14,0,0,0,1087.09,1648.9Zm-88.95-7.78H986.6C990.49,1642.92,993.7,1643.09,998.14,1641.12Zm90-5.62-9.36,1.83C1082.34,1638.68,1085.35,1637.23,1088.17,1635.5ZM695.58,1478l-6.54,1.76c.19.66.37,1.32.56,2C691.87,1481.42,693.76,1479.81,695.58,1478Zm308.26,150.64c.38,0,.61.07.75,0s.14-.31.18-.48c.7-2.9,2-5.72.88-8.9C1005.06,1622.26,1004.46,1625.33,1003.84,1628.59Zm-57.19-1147c-.8-5.22-.8-5.22-3.83-7.08Zm264.21,1091-1,.92,5.88,6.31.81-.77Zm47-36.12c-1.06,2.17-.78,4.09,2.39,5.7C1259.2,1539.63,1258.53,1538,1257.85,1536.42Zm-383.08,70-1-.81c-1.33,2.08-2.67,4.16-4,6.25l.68.46C871.91,1610.34,873.34,1608.38,874.77,1606.41Zm18,30.51c2.92-3.83,2.92-3.83-.36-4.59C892.55,1633.55,892.64,1634.69,892.81,1636.92Zm79.5-663,.3.6,6.75-3.36-.3-.61Zm275.44,576.55-1.62-1.42c.21,1.52-3.93.15-1.12,3.58ZM920.43,644.25l-.07-.23h-5.09v.23Zm-74,957.23.55.15,1.13-4-.65-.17C847.07,1598.78,846.72,1600.13,846.38,1601.48Zm501.16-155,.77.31.84-2.47c-.33,0-.9-.16-.93-.08C1347.94,1445,1347.75,1445.77,1347.54,1446.52Z"/><path class="cls-1" d="M1045.35,1567.78c2.89.39,5.25.58,7.55,1.06,6.62,1.36,9.68,5.85,8.79,12.54-.7,5.21-1.28,10.45-1.89,15.68a13.59,13.59,0,0,1-2.76,7.55,8.72,8.72,0,0,1-5.86,3.58c-2.15.25-4.28,1-6.42,1-11.53.3-12.38-1.37-15.36-10.58-1.73-5.36-3.36-10.75-5.1-16.1-.79-2.44-.3-4.29,1.22-6.5C1030.6,1568.7,1038.46,1569,1045.35,1567.78Zm-7.32,27.49c4.87-.69,5-.69,5-4.33,0-3.08,0-6.17-.34-9.23s-.91-6.26-1.45-9.84l-7.85,2.73A118.38,118.38,0,0,0,1038,1595.27Zm14.41-1c.73-7.31,2-14,1-21.52l-8-.72c1.8,7.85.32,15.28,2.69,22.24Zm2.53,7.31c-.79-1.19-1-1.81-1.41-2.07-3-1.87-13.73-1.54-16.32.69a4.38,4.38,0,0,0-1.18,3.31c.07.68,1.48,1.66,2.36,1.75,4.35.41,8.76.63,12.93-1C1052.59,1603.69,1053.59,1602.58,1055,1601.55Zm-25.27-23-1.71.38c.41,2,.72,4.09,1.24,6.08s1.38,4.14,2,6.24c.52,1.87.83,3.8,2.67,5Q1031.78,1587.38,1029.7,1578.51Z"/><path class="cls-1" d="M939.37,1604.53c-5.62.55-10.65.71-15.67-.76a16.66,16.66,0,0,1-7.68-4.92,7.13,7.13,0,0,1-2.14-5.4c.31-7.09.45-14.21,1-21.28.42-5.27,2.58-7.13,7.88-8,7.67-1.32,14.92.63,21.81,3.46,3.42,1.4,5.94,4.71,7.92,8.69Zm-6.62-36.33c-1.48,7.71-2.79,14.56-4.2,21.89l5.82,1.27c2.44-7.21,5.63-13.63,6.88-21.07Zm-4-.69-7.9,1.78c.5,7.09-1.51,13.64-.86,20.12,3.23,1.25,4.55.07,5.05-2.61C926.2,1580.77,927.38,1574.74,928.78,1567.51Zm-10,27c2.37,5.93,10.44,8.27,18.07,5.61C934.68,1594.63,929.49,1593,918.8,1594.47Zm20.36-.53c1.46-1.74,8.19-15,8.4-16.58a2.72,2.72,0,0,0-2.09-3.27C941.66,1580.79,938.58,1590.52,939.16,1593.94Z"/></svg>