<svg id="Layer_1" data-name="Layer 1" xmlns="http://www.w3.org/2000/svg" viewBox="0 0 2000 2000"><defs><style>.cls-1{fill:#fff;}.cls-1,.cls-2{stroke:#000;stroke-miterlimit:10;stroke-width:2px;}</style></defs><path class="cls-1" d="M1034.7,1735.46c-9.92,7.67-21.21,7.65-32.77.16-.85,2.64-1.71,5.2-2.5,7.78s-2.36,3.8-5,4.58c-7.48,2.2-14.7.81-21.85-1.17-3.94-1.08-7.38-3.11-7.45-7.57-5.1.19-9.92.93-14.59.37-4.52-.54-8.89-2.41-13.95-3.88-3.24,2.36-7.62,2.79-12.09,1.72-5.48-1.31-11.12-2.16-15.88-5.7-2.49-1.85-3.65-3.94-3.38-7,.54-6.19,1-12.38,1.47-18.57.08-1,.12-2,.2-3.38l-10.11-3.91c-.93,1.16-1.76,2-2.4,3-2.79,4.32-7,5.19-11.69,4.84-7.32-.53-12.82-4.6-18.39-9.48a50.07,50.07,0,0,0-3.88,4.56c-2,3-4.84,3.78-8.13,3.11-9.07-1.85-18.12-3.58-25.84-9.46-5.81-4.42-7.32-7.67-4.84-14.55,2-5.66,4.16-11.27,6.13-16.59-6-4.73-11.58-9.21-17.24-13.65a2.94,2.94,0,0,0-1.84-.7c-8.09.8-14.2-2.9-19.5-8.48a15,15,0,0,0-1.43-1.16c-1.83,1.47-3.79,2.84-5.51,4.47-3,2.88-6.17,2.9-10,1.42-6-2.37-10.57-6.6-14.42-11.45-3.71-4.66-4.13-10-.92-15.41,2.28-3.83,4.41-7.76,6.67-11.75l-32.33-38.4c.37,0,0-.1-.28,0-8.73,3.59-7.6,4-15.66-2.23a4.6,4.6,0,0,0-5.11-.76c-7,2.52-10.19,1.48-14.5-4.73a80.09,80.09,0,0,1-6.64-11c-2.72-5.73-1.79-8.92,2.92-13.19,4.46-4,8.88-8.14,13.44-12.34l-2.1-4.89c-5.38-1.76-10.36-3.48-15.41-5a18.63,18.63,0,0,0-4.62-.31q-14-.36-27.94-.72a9.15,9.15,0,0,1-6-2.44,11.48,11.48,0,0,1-4.2-9.43q-.21-74-.71-148.05c0-3.1,0-6.2,0-9.56-1.11-.57-2.13-1.12-3.18-1.62a5.38,5.38,0,0,1-3.24-5.39q.06-12.94,0-25.88c0-3,1.4-5,4.17-5.83,3.94-1.16,7.91-2.52,12-3,11.81-1.32,23.67-2.24,35.51-3.32.68-.07,1.35-.18,2.33-.31,1.39-6.91,2.65-13.85,4.23-20.71a79.43,79.43,0,0,1,3.73-12.31c5.15-12.59,10.35-25.18,16-37.56,2.84-6.25,6.56-12.11,10-18.05,5.66-9.67,11.33-19.34,17.23-28.85a110.2,110.2,0,0,1,8.32-11.18c9.91-12.18,19.82-24.36,29.92-36.37a96.6,96.6,0,0,1,10.88-11c12.41-10.7,24.83-21.39,37.57-31.7,13-10.51,26.51-20.4,39.55-30.89,6.7-5.39,12.86-11.47,19.25-17.26.76-.69,1.74-1.43,2-2.32,1.84-6.44,4.78-12.88,5-19.4.83-22.75.73-45.54.93-68.32,0-5-.3-4.57-4.44-6.78-9.39-5-18.58-10.42-27.69-15.94-3.06-1.86-5.6-4.59-8.41-6.86-16.83-13.6-28.62-30.92-38-50.2-4.12-8.41-7-17.21-10.23-25.92-1.29-3.5-1.84-7.28-2.86-11.5-1.62.85-3.11,1.51-4.48,2.36-26.89,16.48-53.93,32.71-80.55,49.6a280.73,280.73,0,0,0-33.4,24.39A99.29,99.29,0,0,0,663.22,942a13.19,13.19,0,0,1-1,1.82c-3.84,5.3-5.5,11.29-6.38,17.74-2.75,20.15-5.91,40.25-8.64,60.41-.94,7-1.17,14.09-1.55,21.15-1.23,23.08-2.33,46.17-3.56,69.26-1.5,28.25-3.12,56.5-4.61,84.75-.53,10.16-.86,20.34-1.23,30.51q-2.29,63.12-4.57,126.22c-1,27.42-1.75,54.85-3.2,82.24-1.13,21.18-3.14,42.31-4.83,63.46-.43,5.37-1.29,6-6.82,6.06-3.46,0-6.91.09-10.36,0s-4.24-.81-4.84-4.12a40.4,40.4,0,0,1-.63-6.68c-.37-30.89,0-61.76,1.5-92.63,1.12-23.26,1.69-46.55,2.57-69.83q1.78-47.07,3.66-94.13c.41-10.69.71-21.39,1.24-32.07,1.28-25.5,2.67-51,4-76.49,1.17-22.22,2.27-44.45,3.53-66.67.88-15.32,1.23-30.73,3.15-45.93,3-23.58,7-47,10.85-70.52a32.24,32.24,0,0,1,3.29-9.13c2.8-5.53,6.12-10.8,8.93-16.32,4.38-8.58,11.46-15,17.17-22.59,4-5.32,9.49-8.93,14.6-13,24-19.3,51-34,77.29-49.82q22.8-13.74,45.74-27.27c2.83-1.66,4.13-3.55,4.25-6.93.54-16.31,4.22-32,9.54-47.39,7.08-20.53,18.17-38.66,32.11-55a185.46,185.46,0,0,1,32.77-29.94c19.35-14,40.64-23.7,63.31-30.72.49-.15,1-.37,1.83-.72.07-1.51.19-3.18.23-4.84q.93-41.14,1.91-82.28c.08-3.25.88-6.48,1.15-9.74a126.4,126.4,0,0,0-.92-26.78c-1.09-8.52-.79-17.22-1-25.85-.46-17.94-.83-35.88-1.28-53.82-.2-7.75-.8-15.51-.73-23.26.14-16.34,9.75-28.58,24.77-33.91,8.06-2.87,16.31-4.13,24.85-2.35a19.31,19.31,0,0,0,3.22,0c3.23-7,6.68-14.1,9.8-21.34a157,157,0,0,0,6-16c1-3.07,1-6.44,1.43-9.67s1.35-4.6,4.6-5.38a23.83,23.83,0,0,1,5.63-.74c15.33,0,30.3,2.58,44.19,9,8,3.68,13.58,10.62,16,19.36,2.67,9.44,4.6,19,4.61,28.95q.09,132.8.6,265.57c0,1.73.1,3.46,0,5.18-.12,1.92.75,3,2.23,4.25,7.16,5.94,14.57,11.67,21.11,18.26a137.62,137.62,0,0,1,29.53,43.92c3.39,8.09,7,16.15,9.52,24.52a154.61,154.61,0,0,1,4.82,23.22c2.17,15.13,1.24,30.19-1.22,45.29-2,12.54-6.79,24.17-10.49,36.16a23.42,23.42,0,0,0-1.27,5c-.2,2.82-1.69,4.35-3.68,6.29-2.71,2.64-4.27,6.47-6.45,10a16.06,16.06,0,0,0,2.81,2.08c5,2,5.91,6,5.89,10.9q-.15,51,0,102c0,13.11,0,26.25.9,39.32.45,6.58,2.86,13.05,4.64,19.5.38,1.35,1.76,2.54,2.91,3.54,9.66,8.32,19,17.11,29.15,24.76,23.74,17.86,46.15,37.3,68.84,56.41a61.76,61.76,0,0,1,7.57,7.77c10,12.08,19.7,24.47,30,36.34,9.81,11.33,16,24.88,24.17,37.24,13.08,19.89,21,42.22,30,64,2.66,6.42,3.21,13.71,4.69,20.61.54,2.53,1,5.08,1.54,8.06,5,.47,10.15.87,15.24,1.42q14.37,1.54,28.74,3.25a28.12,28.12,0,0,1,4.45,1.3c4.2,1.26,6.06,4,6,8.47-.16,6.55-.18,13.12,0,19.67.17,5.26-.48,9.8-6.83,11,0,3.32,0,6.24,0,9.16q-.24,74-.46,148.06c0,3.57-.41,6.73-3.39,9.32-2,1.78-4,3.15-6.78,3.21-9.14.2-18.27.51-27.41.69a17.56,17.56,0,0,0-8.43,1.78,19.36,19.36,0,0,1-7.46,1.82c-3.84.32-6,2.17-6.69,6.59,1.21,1.25,2.68,2.87,4.27,4.36,3,2.83,6.12,5.59,9.18,8.38,4.6,4.2,5.5,6.63,2.82,12.31a74.52,74.52,0,0,1-8.4,13.58c-2.94,3.83-7.18,5.49-12,3.09-2.71-1.37-4.83-1.25-6.84,1.16-.63.76-1.77,1.08-2.53,1.76-2.78,2.51-5.78,2.74-9.07,1.11-1.22-.6-2.5-1.08-3.62-1.57-10.8,12.9-21.48,25.67-32.29,38.6,2.26,4,4.38,7.91,6.72,11.72,4,6.52,1.86,12.45-1.6,16.22a68.29,68.29,0,0,1-10.9,9.45c-5,3.54-8.77,3.05-13.59-.86-1.58-1.29-3.2-2.54-4.87-3.86-4.36,4.45-9.06,7.8-14.87,9.34-1.15.31-2.56,1-3.46.65-3.12-1.35-4.8.73-6.79,2.29-4.86,3.8-9.73,7.58-14.88,11.58,2.11,5.73,4.34,11.68,6.49,17.65,1.91,5.29,1.07,9-3.47,12.23-3.91,2.79-8,5.61-12.45,7.26-5.09,1.89-10.61,2.74-16,3.57a7.09,7.09,0,0,1-7.51-3.52,22.2,22.2,0,0,0-3-3.43c-4.64,2.62-8.7,5.67-13.26,7.33-9.2,3.36-12.54,2.12-18.86-5.32a9.4,9.4,0,0,0-1.29-.93l-9.66,3.64c.12,2.64.21,5.35.38,8.07.28,4.3.42,8.62,1,12.89s-1.13,7.46-4.89,9.27c-5.92,2.84-12.17,4.9-18.78,4.92-2.61,0-5.23-1.17-8.76-2-7.61,5.23-17.06,4-26.88,3-.94,6.4-6.32,7.77-11.44,9.05a38.88,38.88,0,0,1-17.92.15,6.41,6.41,0,0,1-5.35-4.86C1036.54,1740.75,1035.67,1738.34,1034.7,1735.46Zm-85-1021.1c-3.39,2.51-6.18,4.22-8.54,6.39-8.15,7.46-17.2,13.07-28.3,14.88a44.4,44.4,0,0,0-4.93,1.52c-9.82,2.85-15.63,9.7-18.38,19.16-1.72,5.94-2.75,12.08-4,18.14A31.13,31.13,0,0,1,871.12,795c-9.31,5.9-18.64,11.8-28.21,17.26-3.78,2.16-5.07,4.69-4.36,8.77.65,3.73,1.06,7.51,1.57,11.26,2.29,16.69,9.53,31,20.13,44,6.62,8.11,14.45,14.8,22.62,21.13a50.36,50.36,0,0,0,13.53,7.47c.1-1.7.22-2.88.23-4.06.08-7.94.22-15.87.16-23.8,0-3.25.88-5.81,3.91-7.22a39.23,39.23,0,0,1,7.53-3c3.64-.84,7.41-1.12,11.29-1.65v-4.77c-2.66-.31-5.07-.45-7.43-.88-3.87-.7-7.73-1.52-11.55-2.43s-5.49-3.59-5.5-7.6q-.06-36.23-.3-72.44a14,14,0,0,1,4.59-10.55c4.8-4.7,9.79-9.29,14-14.48s9.65-7.27,16.2-7.47,13.31-.85,20.11-1.31Zm-59.13-13.71c3.5,6.12.38,10.44-4.39,14.47,5.72-1.92,10.63-3.65,15.6-5.2,3.11-1,6.32-1.62,9.46-2.49a9.18,9.18,0,0,0,3.26-1.35c9.1-7.26,19.14-13.49,25.61-23.68,1.86-2.94,3.14-5.61,2-9.42A157.62,157.62,0,0,0,890.54,700.65Zm197.28-.14v42.68l27,2C1110.23,727.61,1101,713.27,1087.82,700.51Zm-243.73,80.4c4-2.43,7.21-3.87,9.76-6.08,2.25-2,4.61-4.5,5.41-7.23,3-10.12,5.3-20.42,8-31A132.67,132.67,0,0,0,844.09,780.91Z"/><path class="cls-2" d="M1342.07,1300.08c6.48.51,12.49.88,18.47,1.49,8.91.91,17.81,1.88,26.68,3.07,2.66.36,5.2,1.53,8,2.38.87,10,.46,19.6.26,29.51l-6.37,3.22c0,1.51,0,3.21,0,4.92q-.25,68.88-.53,137.75,0,8.8-.25,17.61c-.12,5-2.42,7.53-7.34,8.27a30,30,0,0,1-4.13.29c-8.28.12-16.57.2-24.85.32-1.38,0-3.08-.3-4.07.36-4.82,3.24-10.38,3.38-16.05,4.2-1.56,3.11-3.43,6.17-4.08,10.24,3.43,3.2,6.93,6.49,10.45,9.77,1.52,1.41,3.08,2.77,4.59,4.19,3.4,3.19,4,4.9,1.83,9.07a88.08,88.08,0,0,1-7.31,11.86c-2.59,3.53-4.78,3.81-9.1,2.21l-5.17-1.93c-2.4,1.95-4.68,3.74-6.9,5.61-1.82,1.54-3.62,1.58-5.72.52s-4.12-1.68-6.5-2.62c-3.68,4.82-7.2,9.64-11,14.27-3.91,4.83-8,9.48-12.07,14.21l-11.84,13.9c2.58,4.53,4.87,9,7.55,13.17a10.84,10.84,0,0,1-1.73,14.09,115.5,115.5,0,0,1-9.06,7.67c-3.88,2.73-6,2.42-9.74-.51-2.17-1.71-4.31-3.45-6.47-5.17a11.62,11.62,0,0,0-1.21-.68,30.47,30.47,0,0,0-2.31,2.36,25.29,25.29,0,0,1-12.79,8.35,6,6,0,0,1-3.94,0c-2-.92-3.28-.2-4.63,1q-.76.69-1.56,1.35c-2.9,2.46-5.67,5.09-8.74,7.3-2.91,2.11-6.14,3.79-9.55,5.84.41,1.43.73,2.89,1.24,4.28,2,5.51,4,11,6,16.51,1.41,3.88,1,6.31-2.24,8.61-3.78,2.67-7.9,4.89-12,7.18a6.73,6.73,0,0,1-3.47.91c-2.86-.16-5.42.74-8,1.65-3.52,1.23-6.33.53-8.55-2.71-1.64-2.39-3.67-4.52-5.65-6.93a26.58,26.58,0,0,1-17.72,11.85c-4,.77-7.12-.31-9.52-3.56l-3.65-4.89-15.18,5.59c.67,9,1.32,17.7,1.94,26.08-5.3,5.93-16.48,9.07-24.67,7.07-.7-1.13-1.49-2.41-2.31-3.71-2,1.32-3.76,2.57-5.61,3.73a16.22,16.22,0,0,1-8.84,2.49c-4,0-7.91,0-12.11,0l-5-10.53c-.34,2.08-.53,3-.62,3.88-.19,1.88-.26,3.78-.49,5.67-.84,7-.83,7.27-7.54,9.23-6.38,1.86-12.9,1.59-19.7-.07-2.34-7.24-4.63-14.37-6.93-21.51l-.69,0a53.11,53.11,0,0,0-1.65,7.47c-.31,3.75-2.62,5.51-5.74,6.47a26.72,26.72,0,0,1-15.81,0c-3.2-1-5.36-3-5.85-6.51-.34-2.47-.91-4.92-1.55-8.31-2.13,4.26-2.91,7.93-4.05,11.48s-2.19,6.88-3.23,10.14c-5.07,2.84-10.22,2.38-15.33,1.66A54.75,54.75,0,0,1,973,1741a5.88,5.88,0,0,1-4.58-6.07c-.08-2.93-.41-5.86-.67-8.78-.08-.81-.31-1.61-.65-3.38-1.15,2.72-2.06,4.55-2.7,6.47-1,2.88-2.5,4.35-5.81,4.77a29.41,29.41,0,0,1-22.78-6.71l-2.66,4.18c-1.68.23-3.79,1-5.67.67a98.09,98.09,0,0,1-13.93-3.77c-4.36-1.57-5.11-3.55-4.65-8.43.52-5.49,1-11,1.37-16.5.12-1.69,0-3.4,0-5.43l-14.79-5.57c-1.3,1.7-2.64,3.25-3.75,5-2.16,3.35-5.27,4.15-9,3.62A25.43,25.43,0,0,1,865.92,1691c-.31-.4-.57-.85-.89-1.24-.09-.11-.32-.11-.79-.25-2,2.4-4.21,4.79-6.12,7.42-1.67,2.3-3.81,3-6.3,2.21-3.61-1.19-7.41-1.48-11-2.46s-6.8-3.21-10.08-5.08a27.35,27.35,0,0,1-4.94-3.68,5.65,5.65,0,0,1-1.47-7c2.2-5.24,4-10.64,6-16,.58-1.6,1.09-3.23,1.54-4.56l-22.22-16.65c-5.88,1.82-10.81-.73-15.3-4.36-2.11-1.71-3.81-3.94-6-6.22-2.59,2.05-5.3,3.9-7.62,6.15-2.51,2.43-4.84,2.43-7.93,1.1-5.3-2.27-9.14-6.17-12.57-10.48-2.68-3.37-2.83-7.19-.47-11.07,2.75-4.55,5.26-9.25,7.89-13.91-11.23-14.55-24.51-27-34.43-42.57-2.64,1-5.08,1.79-7.38,2.88a4.09,4.09,0,0,1-4.78-.5c-2.27-1.85-4.55-3.66-7.21-5.8-1.69.62-3.82,1.23-5.8,2.15a6,6,0,0,1-7.53-1.45,43.12,43.12,0,0,1-9.07-14.88c-1-2.87-.14-4.88,2.11-6.78,3.69-3.12,7.19-6.46,10.74-9.74,1.64-1.52,3.2-3.12,5.08-5l-4.14-9.69c-3.43-.54-6.49-1-9.54-1.54a7.69,7.69,0,0,1-3.4-1.06c-2.84-2.26-6.09-2.08-9.37-2.1-7.94-.07-15.88-.13-23.82-.29-3.09-.07-6.14-.24-8.49-2.91a7.63,7.63,0,0,1-2.29-5.49c.09-5.87,0-11.74,0-17.6q-.28-68.1-.58-136.2c0-2.22,0-4.44,0-6.59l-6.65-3.46c0-5,0-10,0-15,0-3.45.15-6.91,0-10.35-.1-2.65,1-4.26,3.45-5a23.75,23.75,0,0,1,3.93-1.22c9.06-1.11,18.12-2.21,27.2-3.14,6.16-.63,12.34-1,19-1.48.7-3.21,1.46-6.53,2.13-9.86.85-4.22,1.64-8.46,2.43-12.7a63.4,63.4,0,0,1,4.22-13.8c5.24-12,10.05-24.2,15.49-36.11,2.85-6.25,6.62-12.08,10.07-18.05s7.43-12,10.73-18.29c7-13.25,17.06-24.22,26.39-35.73,4.24-5.23,8.72-10.27,12.79-15.63,6.53-8.58,14.28-15.87,22.57-22.7,10.25-8.46,20.18-17.3,30.53-25.64,11.55-9.3,23.57-18,35.09-27.38,8.3-6.73,16.12-14,24.17-21.09,1.89-1.65,2.77-3.78,3.62-6.1,3.62-9.87,4.69-20,4.64-30.47-.09-19,.3-38,.48-57,0-1.89,0-3.79,0-5.85-24.31-10.28-45.49-24.64-61.52-45.75a162.82,162.82,0,0,1-31.08-70.07c-1.4.68-2.79,1.22-4,2-28.51,17.49-57.07,34.9-85.45,52.6-7.3,4.56-14,10.05-21,15.11-.56.4-1.07.89-1.66,1.24-10.76,6.37-18.67,15.75-26.38,25.28-2.59,3.19-4.45,7-6.8,10.36a60.63,60.63,0,0,0-10.23,27.73c-2.35,19-5.51,37.88-8.22,56.83-.58,4.09-.71,8.25-.93,12.38-.86,16.38-1.64,32.75-2.51,49.12-.84,15.69-1.76,31.36-2.63,47-.41,7.41-.87,14.82-1.2,22.23-1.19,26.38-2.41,52.76-3.48,79.14-1.14,27.94-2.13,55.88-3.18,83.82q-1.53,40.37-3,80.72c-.66,17.25-1.23,34.5-2.09,51.74-.48,9.47-1.47,18.92-2.25,28.37q-.84,10.32-1.76,20.63c-.15,1.68-.47,3.34-.74,5.18H605.06c-.18-2-.47-3.82-.5-5.65-.51-27.45-.44-54.89.87-82.32.66-13.79,1-27.6,1.49-41.4q1.29-33.88,2.65-67.78c.5-12.93.94-25.87,1.43-38.81.92-23.8,1.78-47.6,2.81-71.39.72-16.73,1.6-33.44,2.52-50.16,1.17-21.19,2.48-42.38,3.66-63.57q1.34-24,2.48-48.09a271.13,271.13,0,0,1,3.53-29.78q4.05-25.54,7.84-51.13c.84-5.69,2.1-11.15,5.44-16a27.7,27.7,0,0,0,2.26-4.06c6.19-13.11,15.42-24,25-34.73a30.6,30.6,0,0,1,4.54-4.2c10-7.44,19.81-15,30-22.13,6.78-4.72,14-8.8,21.1-13.06q34.36-20.64,68.78-41.19c4.87-2.92,9.77-5.79,14.43-8.54a15.15,15.15,0,0,0,.34-2c.25-11.26,2.23-22.3,4.36-33.3a77.8,77.8,0,0,1,2.46-9c1.12-3.44,2.63-6.75,3.64-10.22,3.45-11.91,9.73-22.5,16.15-32.85,5.06-8.15,11.48-15.52,17.76-22.83A190.51,190.51,0,0,1,865.4,680c3.28-3,7.11-5.46,10.57-8.31,10.87-8.95,23.14-15.7,35.77-21.6,10.25-4.78,20.85-9,32-11.55a11.6,11.6,0,0,0,1.89-.91c.11-1.6.34-3.43.37-5.26.15-9.5.17-19,.38-28.48q.6-27.43,1.38-54.88a78,78,0,0,1,1.07-8.7,83.84,83.84,0,0,0,.18-22.71c-.23-1.78-.82-3.75,1.07-5,2,.62,1.85,2.13,1.89,3.46.1,3.11.14,6.22.14,9.32q0,41.43,0,82.86c0,1.92.48,4-1.5,6.31-1.94-3.86-.59-7.49-1.37-10.84-.83,11.14-.74,28.69.26,33.5C961,634,972.75,633,985,632.12c.61-1.19,1.38-2.49,2-3.87,1.51-3.65,4.59-4.4,8-4.39s6.47,1,7.72,4.74a33.42,33.42,0,0,0,1.61,3.5l21.7,2.62a36.87,36.87,0,0,0-10.17-19,11.51,11.51,0,0,0-8.42-3.4c-8.61.13-17.22.47-25.84.69-2.56.07-5.13,0-8.17,0-.23-2.41-.6-4.58-.61-6.76-.12-13.46-.28-26.93-.21-40.39q.28-61.36.72-122.72c0-2,0-4.06,0-6.35-3.89-1-7.37-1.83-10.83-2.76-3-.8-3.38-1.16-3.53-4.21-.42-8.27-.74-16.54-1-24.82a16.35,16.35,0,0,1,13-17,73.45,73.45,0,0,1,12.28-1.24,6.74,6.74,0,0,0,6.09-3c1.16-1.68,2.5-3.24,3.79-4.9-12.47-4.73-32.31.61-40.62,12.93a24.63,24.63,0,0,0-4.46,12.51,167.9,167.9,0,0,0,.52,27.91c.41,3.41.21,6.9.28,10.35q.68,31.31,1.32,62.62a14.3,14.3,0,0,1-1.14,6.24,6.21,6.21,0,0,1-1.19-1.79,14.43,14.43,0,0,1-.17-3.09c-.28-11-.53-22.09-.84-33.13-.51-18.29-1.07-36.58-1.58-54.87-.09-3.27.1-6.56,0-9.83-.24-5.5,1.32-10.56,3.47-15.5a12.9,12.9,0,0,1,1.51-2.69c5.65-7.38,12.93-12.59,22-14.5,6-1.26,12.21-2.41,18.45-.73a30.27,30.27,0,0,0,5.48.39c2.5-4.79,5.25-9.37,7.34-14.24,3.54-8.22,6.78-16.59,9.9-25a30.49,30.49,0,0,0,1.53-8.06c.42-5.21.28-5.54,5.63-5.83a79.18,79.18,0,0,1,20.54,1.4,138.35,138.35,0,0,1,19.42,5.18c9.81,3.61,16,10.47,18.88,20.34,1.45,4.95,2.65,10,3.63,15.08a44.29,44.29,0,0,1,.46,8.24q.32,109.79.58,219.57.06,26.42.06,52.83c0,2.06,0,4.12,0,5.82,6,4.92,11.62,9.4,17.05,14.15A138.47,138.47,0,0,1,1128,697.1c8.38,13.61,14.25,28.3,19.25,43.35,1.83,5.52,2.39,11.46,3.5,17.21,2.32,12,2.13,24.13,1,36.12-1,10.75-2.53,21.56-6.58,31.8-2.27,5.76-4.19,11.67-6.11,17.57a48.41,48.41,0,0,0-1.13,6.52c-3.31,1.34-5,4.47-6.58,7.78-1.38,2.92-2.92,5.78-4.38,8.66l9.34,5.11c.11,2.34.31,4.55.31,6.77.09,32.62.09,65.25.24,97.87.06,14.33.37,28.66.64,43a27.35,27.35,0,0,0,.83,5.6c.51,2.17,1.55,4.25,1.86,6.45,1.08,7.68,5.7,12.86,11.18,17.92,10.44,9.62,21.67,18.21,33,26.68,14.95,11.17,29,23.39,43.3,35.36,2,1.67,3.86,3.48,5.94,5,14.18,10.29,24.35,24.34,35.35,37.61,4.41,5.31,8.65,10.77,13.17,16a124.61,124.61,0,0,1,13.25,19.09c6,10.28,12.17,20.47,18.18,30.74a84.51,84.51,0,0,1,4.48,8.73c4.4,10.11,8.45,20.38,13.07,30.39a110,110,0,0,1,8.27,28.17C1340.19,1291.12,1341.19,1295.63,1342.07,1300.08ZM707.42,1529.59l-5,3.79.58.64,4.35-4.52a3.46,3.46,0,0,0,3-3.33Zm306.49-37.24a16.68,16.68,0,0,0,9.57,0c2.39-.1,4.78-.22,7.16-.31,2.15-.08,4.15-.42,5.65-2.46-5-1.18-8.44,2.57-12.73,2.85h-9.73c-1.32-.28-2.64-.54-4-.84a10.37,10.37,0,0,1-2.89-.8c-2.85-1.7-2.82-1.79-6.15-.57a14.31,14.31,0,0,0,7.46,1.83C1010.17,1492,1012,1492.25,1013.91,1492.35ZM874.28,780.81c-1.89,1.44-3.68,3-5.69,4.28-10.08,6.25-20.23,12.39-30.34,18.6a37.13,37.13,0,0,0-3.12,2.37,2.63,2.63,0,0,0,2.56-.11q15.84-9.68,31.63-19.44a10.56,10.56,0,0,0,4.87-5.78,6,6,0,0,0,2.87-5.22Zm91-386.51c-3.58,2-3.93,5.49-4,8.95-.06,7.75.1,15.5.2,23.25,0,1.15.26,2.3.42,3.7a15.63,15.63,0,0,0,2.7-.32,1.85,1.85,0,0,0,1.08-1,4.84,4.84,0,0,0,.23-2c-.22-3.08-.53-6.16-.77-9.25-.51-6.68.41-13.42-.93-20.08-.2-1,.6-2.21.93-3.32l14.32-1.16c1.94-.15,3-1.19,3.67-3.35C976.36,389,970.27,389.5,965.26,394.3Zm110.83,284.92,2.72,2.42.44-.72-3.26-1.61c-1.45-2.92-4.15-4.53-6.77-6.1-8.54-5.12-17.13-10.11-26.37-14-12-5.05-24.26-8.52-37.28-9.14a6.55,6.55,0,0,0-1.69.49c.07,1.34.14,2.65.19,3.75,6.23,1,12.17,1.74,18,2.91a144.37,144.37,0,0,1,17,4.17,149.61,149.61,0,0,1,34.3,16.41C1074.22,678.34,1075.17,678.74,1076.09,679.22ZM661.81,928.72a3.48,3.48,0,0,0,.84-.55c5.41-6.47,10.75-13,16.22-19.42a27.85,27.85,0,0,1,4.89-4.57c14.14-10.12,27.73-21,42.7-30,18.61-11.14,37-22.62,55.52-34q11.22-6.88,22.43-13.82c.92-.57,2.12-1,1.79-2.95-1.43.79-2.62,1.39-3.75,2.08-18.24,11.11-36.53,22.13-54.66,33.41-15.79,9.81-31.9,19.09-46.93,30.16-19.15,14.11-19.35,13.84-33.46,30.47a11.64,11.64,0,0,0-1.32,1.58c-1.43,2.53-2.8,5.09-4.19,7.63l-2.82,3.68A4,4,0,0,0,661.81,928.72ZM841.12,856.2c1.13,4.36,3.84,7.82,6.5,11.31-1.79-4-3.62-7.94-6.58-11.24-1.21-3.21-2.3-6.47-3.66-9.62a101.55,101.55,0,0,1-7.87-33,128.16,128.16,0,0,1,7.11-53.88,156.09,156.09,0,0,1,22.26-40.58c7.64-10.17,16.7-18.84,26.34-26.91a157.9,157.9,0,0,1,30.28-19.64,161.42,161.42,0,0,1,34.16-12.92c9.66-2.39,19.34-5,29.47-4.8,1.8,0,3.61-.76,5.39-1.17a19.48,19.48,0,0,0,.1-2.47,8.16,8.16,0,0,0-.56-1.69,37.13,37.13,0,0,0-5.06,0c-7.14,1-14.34,1.34-21.45,2.89a189.36,189.36,0,0,0-44.63,15.66,161,161,0,0,0-32.3,21.27,157.85,157.85,0,0,0-24.31,25.3c-9.18,12.2-16.87,25.14-22,39.57A125.61,125.61,0,0,0,830,767.53c-2.39,10.25-4,20.62-3.44,31.23.2,3.61,0,7.25.09,10.86A97.7,97.7,0,0,0,830.29,832a168.31,168.31,0,0,0,5.79,16C837.25,851,838.47,854.07,841.12,856.2Zm490.71,649.16c-2-.85-4.49-1.26-6-2.66-1.92-1.77-3.87-2-6.14-2-9.32,0-18.64.08-28,0a23.47,23.47,0,0,1-5.61-.68c-5.65-1.42-6.89-3.61-4.74-9a215.91,215.91,0,0,0,8.54-26c3.07-11.83,6.28-23.63,9.18-35.5,1.38-5.68,2.1-11.52,3.23-17.27a376.89,376.89,0,0,0,5.56-37.81c.89-9.44,1.95-18.86,2.79-28.3.37-4.23.85-8.51,0-12.74-6.68-1.7-13.25-1.68-19.77-1.45s-12.91-2.11-19.69-.34v6.42q0,65.5,0,131c0,6.39-.23,12.78-.14,19.16a6.36,6.36,0,0,1-3.75,6.23,11.29,11.29,0,0,1-3.84,1.38c-3.59.39-7.2.62-10.81.74-11.55.39-23.1.83-34.65.95a27.7,27.7,0,0,1-9-1.72c-3.91-1.35-4.76-3.19-3.63-7.15,3.21-11.28,5.64-22.73,7.8-34.25,1.64-8.8,3.48-17.57,4.93-26.4,1.47-9,2.6-18.07,3.82-27.12.74-5.46,1.52-10.93,2-16.41.59-6.53.85-13.08,1.35-19.61.5-6.7,1.29-13.38,1.64-20.09.24-4.76.78-9.57,0-14.26-8.92-1.77-55.37-2.44-61.36-.83-.06,2.09-.17,4.31-.18,6.52-.13,45.22.29,90.45-.8,135.66-.1,4.32-.09,8.63-.17,13-.09,5.09-.87,6.23-5.57,8a16.67,16.67,0,0,1-3,.7c-12.29,2.2-24.71,2.32-37.12,1.85a21.69,21.69,0,0,1-10.42-2.62c-1.7-1-2.57-2.2-2.41-4.14s.31-4.12.58-6.17c.46-3.59,1.14-7.15,1.51-10.74,1.19-11.31,2.39-22.62,3.39-33.95,1.38-15.62,2.74-31.24,3.82-46.88.68-10,.87-20,1.23-30q.51-14.21.89-28.44a39.44,39.44,0,0,0-.36-4.44c-1.35-.12-2.2-.27-3.05-.27q-34.44,0-68.88,0a23.34,23.34,0,0,0-3.68.62v7q-.12,70.95-.29,141.89c0,4.61-.61,9.22-1,14.1-2.79,1.11-5.27,2.76-7.87,3a125.08,125.08,0,0,1-25.81.08,30.17,30.17,0,0,1-5.52-1.32c-3.12-1-4.68-2.94-4.72-6.47-.09-9.66-.71-19.32-.73-29-.11-40.91-.06-81.82-.09-122.74,0-2.19-.19-4.38-.28-6.3-.78-.39-1.07-.66-1.38-.67-3.27-.1-6.55-.21-9.82-.2q-31.32.11-62.64.26c-.15,0-.3.14-.44.23s-.25.24-.9.86c0,1.37-.05,3.24,0,5.11.39,13.45.74,26.89,1.21,40.34.28,8.1.73,16.19,1.18,24.28q.48,8.52,1.21,17,1.34,15.19,2.83,30.36,1.26,12.6,2.74,25.17c.63,5.3,1.41,10.58,2.17,15.87.4,2.72-.49,4.5-3,5.88a20.44,20.44,0,0,1-9.93,2.38c-10.69.11-21.4.37-32-1.08-4.72-.65-9.66-.94-13.17-5-.31-5.74-.84-11.42-.89-17.09q-.28-31.59-.31-63.18c-.05-24.86,0-49.72-.05-74.58,0-1.82.54-3.79-1-5.79-20.29,0-40.74-.56-61.24,1.38a23.93,23.93,0,0,0-.21,2.94c.21,3.44.52,6.88.73,10.32.47,7.57.71,15.16,1.4,22.71q1.78,19.29,4,38.55c1,8.89,2.12,17.8,3.72,26.6,3.49,19.14,7,38.3,12.3,57,1.16,4.08.15,6.25-3.93,7.58a28.9,28.9,0,0,1-9.09,1.57c-13.62-.18-27.24-.62-40.86-1a24.87,24.87,0,0,1-5.61-.9c-4.25-1.15-5.81-3.32-5.94-7.79-.21-7.08-.63-14.15-.64-21.22q-.11-64.22-.07-128.43c0-2.19-.17-4.39-.25-6.46-4.82-1-34.57.63-39.56,2,0,1.47-.11,3,0,4.52q1.38,15.43,2.84,30.88c.71,7.37,1.14,14.8,2.33,22.1,2.27,13.94,4.38,28,7.69,41.66,4.67,19.4,9.32,38.87,16.77,57.49.32.8.62,1.61.89,2.43.61,1.84.09,3.19-1.37,4.57a12,12,0,0,1-8.9,3.37c-9.67-.1-19.34-.07-29-.07-2.21,0-4.48-.37-5.76,2.31-.32.66-1.79.79-2.74,1.13-1.22.43-2.45.83-3.67,1.24,5.75,14.06,8.28,20.27,13.16,24,3-2.81,6-5.67,9-8.45s3.88-2.87,7.29-.91a15.7,15.7,0,0,1,4,3.2A57.58,57.58,0,0,1,749,1540.82a6.82,6.82,0,0,1-.6,6.31c-1,1.86-2.72,2.57-4.46,3.29-3.77,1.56-7.56,3.06-11.86,4.8,3.88,6.12,7.05,12,11.39,17.16q11.05,13,22.21,26c1,1.16,2.08,2.22,3.57,3.79,1.53-3.51,3.81-2.08,5.78-1.15a16.9,16.9,0,0,1,4.11,3.07c2.63,2.49,5.12,5.13,7.74,7.63a32.49,32.49,0,0,0,3.4,2.47c.89-2,1.51-3.57,2.29-5.07,2-3.82,3.49-7.89,6.71-11a3.91,3.91,0,0,1,4.18-1.22c3.91,1.24,8,2.16,10.68,5.75,1.34,1.77,3.19,3.15,4.71,4.79a43.83,43.83,0,0,1,7.29,10.46c-6.54,6.41-13.23,12.5-20.35,18.53,11.17,9.36,21.19,20,35.71,24.1,3.78-5.44,4.66-5.75,11.3-3.57a20.65,20.65,0,0,1,3.26,1.55c4.08,2.17,8.14,4.36,12.47,6.69.52-2,1.06-3.75,1.44-5.57a6.84,6.84,0,0,1,4.07-5c2.3-1.12,4.59-1.05,7-.79,5.1.53,9.47,2.8,13.94,5.06a23.46,23.46,0,0,1,10.45,10.66c-3.55,6.71-9.18,12-13.08,19a303.32,303.32,0,0,0,43.44,13.81c.24-2.59.42-4.61.58-6.38,1.85-1.85,3.91-1.94,6-2.15,9.43-1,18.07,1.59,26.31,5.88,1.21.63,2.65,1.26,3.35,2.32s.71,2.74,1,4c5,.32,9.78.38,14.54,1s9.54,2.28,14.77,2.26c-.52-3.09-1-5.61-1.34-8.16a4.58,4.58,0,0,1,.27-2.92c1.68-2.42,3.67-4.77,6.83-5.11a104,104,0,0,1,20.65,0c3,.28,4.86,2.53,6.63,4.62,1.37,1.62.62,3.64.2,5.47-.47,2-1.07,4,0,6.42,9.4-2.15,18.81-3.92,29.44-3.22-2.53-4.19.41-5.31,2.64-6.45,3-1.56,6.37-2.56,9.49-4,6.42-2.91,13.13-2.33,19.82-1.78a11.49,11.49,0,0,1,3.26,1.31c.23,1.19.4,2.2.62,3.21s.53,2.23.86,3.62c14.62-4.06,29-7.71,42.79-14.08-4.29-6.81-9.54-12.33-13.19-18.54,4.48-9.45,17.18-15.59,26.77-16,4.72-.22,7.65,2.16,9,6.67.47,1.53-.13,3.6,2.16,4.61,1.33-.81,2.76-1.74,4.25-2.57,4.5-2.5,8.89-5.23,14.1-6.18,4.37-.8,4.39-.9,6.69,3.33a7,7,0,0,0,.91,1.1c14.69-4.33,25-14.73,36-24.45-5.79-3.88-17.75-15.16-20.08-18.94,2.83-5.28,7.07-9.54,11-14.07,2.9-3.33,6.55-4.8,10.52-6.07a4.48,4.48,0,0,1,4.69,1.13c3.32,2.78,4.86,6.63,6.63,10.36l2.83,6c2.3-2.12,4.2-3.8,6-5.57,2.11-2,4-4.27,6.22-6.22,3.31-3,5.47-3.16,9.13-1.19a14.74,14.74,0,0,0,1.49-1.37c8.2-9.57,16.52-19,24.5-28.77a101.12,101.12,0,0,0,10.41-16.19c-1.46-.66-2.52-1.19-3.61-1.63-2.88-1.16-5.79-2.21-8.64-3.43-4.71-2-6-5.25-4.08-9.91a41.89,41.89,0,0,1,3.47-7.49,71,71,0,0,1,8.58-11c4.12-4.07,6.26-3.79,10.51,0,2.79,2.51,5.53,5.06,8.28,7.57C1324.21,1524.1,1330.08,1512.86,1331.83,1505.36Zm7-206.28a22.11,22.11,0,0,0-.17-2.8c-1.21-6.26-2.34-12.54-3.74-18.75a71.4,71.4,0,0,0-3.32-11.35c-5.1-12.44-10.43-24.78-15.74-37.12a65.41,65.41,0,0,0-3.79-7.35c-6.47-11-13.11-21.89-19.48-32.94a124.56,124.56,0,0,0-13.08-18.58q-10-11.84-19.69-24c-8.18-10.29-17-19.89-27.33-28.14-16-12.82-31.68-26.12-47.64-39-10.32-8.36-21.41-15.75-31.13-24.86-3.4-3.19-6.86-6.31-10.3-9.45a9.3,9.3,0,0,0-5.92-2.79c-7.9-.51-15.77-1.45-23.68-1.79-12.92-.55-25.86-1-38.8-1.08-48.32-.22-96.64-.8-144.94,1-9.63.35-19.23,1.42-28.86,1.8a13.15,13.15,0,0,0-9.1,4.08,340,340,0,0,1-33.71,28.19c-7.24,5.3-14.4,10.73-21.3,16.45q-21.51,17.84-42.68,36.08a70.84,70.84,0,0,0-8.26,8.53q-14.26,17.09-28.29,34.36c-4,4.94-8.12,9.79-11.31,15.4-6.31,11.09-13,21.94-19.46,33a127.75,127.75,0,0,0-6.71,12.8c-5.44,12.48-10.67,25-15.94,37.6a36,36,0,0,0-1.9,5.88c-1.07,4.88-2,9.78-2.95,14.69-.64,3.33-1.15,6.69-1.8,10.55,3.61,0,6.69.13,9.75,0,12.74-.61,25.47-1.37,38.21-1.94,10.51-.47,21-.79,31.53-1.1q19.66-.58,39.32-1c17.25-.38,34.5-.77,51.76-1,27.78-.39,55.56-.61,83.34-.82,50.73-.38,101.47-1,152.21.51,28.63.85,57.29-.21,85.93,1.12,14,.64,27.93.67,41.9,1q23.81.57,47.59,1.22c5.68.16,11.35.61,17,.82q19.13.72,38.26,1.31A35.34,35.34,0,0,0,1338.83,1299.08ZM1031.41,637.34a35.37,35.37,0,0,0,3.6-3.57,4,4,0,0,1,5-1.62c3.27,1.05,6.54,2.09,9.8,3.16,9.83,3.24,19.46,6.93,28.13,12.74a26,26,0,0,0,3.18,1.5V645q0-131.78,0-263.55c0-10.54-1-21-4.09-31.14-2.75-8.87-8.17-15.28-17-18.74-7.76-3-15.87-4.56-24-6-5.71-1-11.58-.56-16.92-.18-1.59,5.58-2.72,10.63-4.46,15.45-2.69,7.45-5.55,14.86-8.81,22.07a85.74,85.74,0,0,1-8.29,14.87c-4,5.57-8.88,10.54-13.32,15.82a8.44,8.44,0,0,1-7.21,3.18c-3.18-.06-6.46-.41-9.67.59.71,10.87,0,21.58,2,32.44a78.55,78.55,0,0,0,8.45,3.43c3.18.9,4.43,2.59,4.47,5.89.16,12.94.69,25.88.78,38.82.14,20,0,40,0,60.06q0,32.63,0,65.24c0,2-.52,4.15,1.14,6.23h4c6.22,0,12.43.07,18.64.07,5.84,0,10.66,1.85,14.37,6.69a51.36,51.36,0,0,1,7.81,14.47C1029.58,632.59,1030.33,634.47,1031.41,637.34ZM897,1039.26c2.24,0,3.6.09,4.95,0,7.37-.59,14.73-1.47,22.11-1.81,12.41-.55,24.82-1,37.23-1.08,29-.18,58-.13,87-.14,10.53,0,21.06-.08,31.57.23,15.34.46,30.66,1.23,46,1.91,2.57.12,5.13.51,7.69.74,2,.18,4,.68,6.26-.26-.72-2.65-1.41-5.12-2.06-7.61-.92-3.48-2.32-6.94-2.6-10.48-.58-7.56-.76-15.16-.78-22.75q-.11-57.71-.08-115.42c0-3.07-.26-6.14-.42-9.65-2.92-.31-5.46-.53-8-.84s-4.14.69-5.54,2.82a110.46,110.46,0,0,1-16.61,19.76c-2.13,2-4,4.31-6.05,6.37a82.52,82.52,0,0,1-7.18,6.7c-11.26,8.82-22.63,17.43-35.41,24.12a209.56,209.56,0,0,1-41.59,16.58,184,184,0,0,1-43.24,6.66c-4.81.15-9.63-.14-14.44-.08a104.69,104.69,0,0,1-22.07-2.16c-9.77-2-19.67-3.48-28.88-7.58a12.36,12.36,0,0,0-2.34-.42v6c-.06,21.4-.15,42.79-.16,64.19a37.14,37.14,0,0,1-1.73,11.69C899.27,1030.58,898.29,1034.57,897,1039.26Zm204.25-195.08c1.21-2.32,2.47-4.95,3.92-7.46,7.42-12.81,11.89-26.61,14.74-41.1,2.33-11.82,2-23.66,1.62-35.54-.2-6.27-5.6-11.51-11.92-12.16-4.11-.43-8.23-.82-12.35-1-12.24-.43-24.48-1.09-36.71-1-34.15.21-68.31-1.06-102.44.79-10,.54-20,.82-30,1.19a11.79,11.79,0,0,0-8.67,3.89c-4.69,5.05-9.45,10.06-14.43,14.83a14.38,14.38,0,0,0-4.67,11.48c.4,21.38.53,42.76.79,64.15,0,1.33.29,2.66.48,4.31,1.27,0,2.28.07,3.27,0,7-.6,14-1.49,21.08-1.81,12-.55,24.12-1,36.19-1.06,37.09-.13,74.18-.06,111.27,0,3.61,0,7.23.44,10.84.5C1089.77,844.24,1095.27,844.18,1101.21,844.18ZM644,1333c.91-.14,1.57-.26,2.22-.34,11.43-1.4,22.84-3.06,34.3-4.11s23-1.53,34.53-2.17c7.57-.43,15.15-.72,22.72-1,9-.37,17.91-.74,26.87-1q18.36-.58,36.72-1c15.17-.38,30.35-.75,45.53-1,22.42-.4,44.85-.81,67.27-1q29.77-.29,59.54-.12c59.53.24,119.06-.72,178.59,1,13.1.37,26.23,0,39.34.28,20.86.47,41.71,1.2,62.57,1.85,8.27.25,16.53.6,24.8.9,11,.39,22,.76,33.07,1.18,9.65.36,19.29.78,28.93,1.18.51,0,1,.1,1.54.14,7.37.61,14.75,1.16,22.11,1.85,5.3.5,10.59,1.15,15.87,1.81,4.06.51,8.1,1.14,12.35,1.75V1308.8a37.23,37.23,0,0,0-5.48-1.67c-7.65-1.08-15.31-2.22-23-2.93-9.77-.91-19.57-1.55-29.37-2.08-14.62-.8-29.26-1.45-43.9-2.08-10-.42-20-.72-30-1-13.1-.38-26.21-.76-39.32-1-17.76-.39-35.53-.85-53.3-1-38.47-.37-77-.57-115.42-1-42.79-.44-85.58.45-128.37.73-10.18.07-20.36,0-30.55.07-9.31,0-18.64,0-28,.22-22.76.53-45.52,1.21-68.29,1.79-17.58.45-35.17.83-52.76,1.25-.51,0-1,0-1.55.07-10.32.59-20.64,1.24-31,1.77-9.29.47-18.59.82-27.89,1.23-.69,0-1.37.11-2.06.18-5.47.57-10.95,1.09-16.42,1.72-5.8.66-11.61,1.35-17.39,2.19a20.84,20.84,0,0,0-4.24,1.59C644.26,1317,642.92,1324.84,644,1333ZM835.1,810.53c0,3.44-.33,6.41.07,9.28a188.78,188.78,0,0,0,3.55,20.36,79,79,0,0,0,5.95,15.93,107.51,107.51,0,0,0,16.42,23.74,122.14,122.14,0,0,0,37.5,27.89c.24.12.64-.09,1.39-.22,0-1.6,0-3.29,0-5,0-9,.16-17.95,0-26.92a6.57,6.57,0,0,1,3.49-6.33c3.38-2.11,7.12-2.42,10.88-2.7,2.9-.21,5.78-.31,8.51-1.55a29.49,29.49,0,0,0-.12-10.32c-8.12-1.7-16.56-.36-23.79-5-.1-1-.24-1.83-.25-2.68q-.37-36-.73-72a11.6,11.6,0,0,1,3.65-8.77c5.36-5.38,10.73-10.75,15.87-16.33a13.67,13.67,0,0,1,10-4.58c7.58-.34,15.15-.73,22.73-1.13a24.92,24.92,0,0,0,2.8-.49c.09-3.23.2-6.3.25-9.38s0-6.21,0-9.32.06-6.21-.06-9.32.41-6-.66-9.47c-2.29,1.29-4.17,2.15-5.81,3.32a106.92,106.92,0,0,0-10.69,8.16,45.29,45.29,0,0,1-22.17,11.38c-4,.84-8.25,1.71-11.79,3.65-8.16,4.47-13.89,11.28-16.19,20.48-1.59,6.35-2.77,12.8-4.21,19.19-1.58,7.09-5.88,12.39-11.65,16.45-4.36,3.07-9.07,5.63-13.62,8.43Zm194.18-148c-1.65,3.2-2.9,5.65-4.18,8.07-4.57,8.66-11.36,13.54-21.55,13-4.47-.23-9,0-13.44.15a11.2,11.2,0,0,0-4.89,1.23c-8.36,4.79-16.58,9.85-25,14.63-2.9,1.66-4,3.76-4,7.1.13,11,0,22.07,0,33.1a28,28,0,0,0,.43,3.54c41.52-.33,82.77-.89,124.37.46v-5.62c0-14.66-.3-29.32.16-44,.18-5.78-1.88-9.49-6.46-12.35-1.17-.72-2.32-1.48-3.47-2.24-9.81-6.57-20.74-10.72-31.77-14.63A103.9,103.9,0,0,0,1029.28,662.53ZM805.35,810.25c-2.18,1.19-3.83,2-5.42,3-23.24,13.89-46.52,27.71-69.68,41.72-10.47,6.33-21.29,12.12-31.1,19.53-6.61,5-13.24,10-20,14.71a80.63,80.63,0,0,0-13.88,13.06,126.46,126.46,0,0,0-19.19,28.09A13.91,13.91,0,0,1,645,932.1c-4,5.82-5.7,12.37-6.66,19.31-2.37,17.06-4.69,34.13-7.68,51.08-2.16,12.28-2.69,24.66-3.6,37-.9,12.2-1.4,24.43-2.07,36.65q-1.07,19.62-2.12,39.25-1,18.33-2,36.65c-.71,13.09-1.44,26.17-2.09,39.25-.41,8.44-.7,16.89-1,25.33q-1.05,27.15-2.07,54.29l-2.07,54.29q-.52,13.69-1,27.4c-.69,18.27-1.42,36.54-2.07,54.81-.47,13.1-.83,26.21-1.25,39.31-.36,11-.76,22.06-1.09,33.1,0,1.83.14,3.67.22,5.6H617c.37-2.74.86-5.12,1-7.51q1.1-22.22,2.06-44.44c.75-18.09,1.39-36.19,2.09-54.29q.5-13.18,1-26.36,1.05-27.67,2.08-55.33c.46-12.58.76-25.17,1.25-37.76.54-14.13,1.23-28.25,1.83-42.38.38-9,.64-17.92,1.07-26.88.64-13.43,1.38-26.85,2.09-40.28.68-12.74,1.4-25.47,2-38.21.77-15.15,1.44-30.31,2.24-45.46.55-10.5,1.43-21,1.84-31.48a224.5,224.5,0,0,1,2.11-25.23c3-19.92,5.78-39.89,8.65-59.83a27.35,27.35,0,0,1,3.87-11.11c3-4.8,5.77-9.8,8.69-14.69a39.61,39.61,0,0,1,3.19-4.7c13.27-16.26,13.26-16.28,30.26-28.67,7.25-5.29,14.32-10.87,21.93-15.6,25.63-15.91,51.47-31.48,77.22-47.21,4.09-2.5,8.1-5.12,11.83-7.48Zm97.3,99.5c6.46,2.35,12.74,5.36,19.37,6.88,11.37,2.62,22.79,5.3,34.66,4.74,7.22-.34,14.43-.27,21.66-1,11.57-1.1,22.69-3.94,33.62-7.48a164.13,164.13,0,0,0,36.4-17,150.23,150.23,0,0,0,28.82-22.59,37.86,37.86,0,0,0,2.48-3.29h-10.11c-34.51,0-69-.11-103.52.06-15.18.08-30.34.7-45.51,1.17-4.3.14-8.59.57-12.87,1a39.06,39.06,0,0,0-5,1.17Zm81.8-272.68c-.06-2.4-1.54-2.08-2.61-2-5.33.32-10.79.12-16,1.26-11.89,2.62-24,4.3-35.44,9-6.67,2.76-13.58,5-20.05,8.19a206.34,206.34,0,0,0-35.13,21.69,179.81,179.81,0,0,0-27.18,26.14,152.34,152.34,0,0,0-22.43,34c-1.9,4-3.81,8.1-5.49,12.24-1.48,3.67-2.47,7.53-3.95,11.2-3.68,9.06-5.15,18.71-5.85,28.23-.88,12-1.32,24.14.91,36.12.85,4.57,1.23,9.29,2.66,13.67,3.81,11.62,8.12,23,14.69,33.51a145.34,145.34,0,0,0,26.37,31,131.13,131.13,0,0,0,31.94,20.85c10.83,5.13,22.13,9.41,34.11,11.52,9.15,1.61,18.19,3.87,27.59,3.23a5.38,5.38,0,0,1,1.55.11c9,2,17.84-.15,26.75-.58a58.34,58.34,0,0,0,10.25-1.09c13.72-3.17,27.42-6.29,40.53-11.8,14.54-6.11,28.34-13.34,40.92-22.81,6-4.56,12.09-9.2,17.7-14.28,11.45-10.36,20.72-22.61,29.55-35.2a46.07,46.07,0,0,0,2.6-4.47,210.59,210.59,0,0,0,16-36.34,122.48,122.48,0,0,0,5.49-27.79c.93-12.33,1.43-24.82-.88-37.15-1-5.4-1.73-10.93-3.41-16.14-3.65-11.31-7.63-22.53-14.38-32.49-.29-.43-.56-.88-.81-1.33-5.49-9.92-12.94-18.38-21-26.09-8.46-8.08-17.48-15.67-28.11-21-2.15-1.08-4.13-2.49-6.26-3.62a55.5,55.5,0,0,0-6.5-3.14c-5.47-2.08-11-4-16.51-5.94a13.72,13.72,0,0,0-3-.87c-1.62-.19-2.53.68-2.78,2.73,1.46.62,3,1.3,4.55,1.9,5.46,2.11,11.13,3.77,16.36,6.35a137.73,137.73,0,0,1,61.57,57.85,124.47,124.47,0,0,1,11.9,30.73c2.52,10.16,4.25,20.59,3.74,31.21-.24,5,.23,10.07-.46,15a177.81,177.81,0,0,1-8.32,35.65,169.61,169.61,0,0,1-15,30.58c-8.72,14.4-20,26.88-32.53,38a173.79,173.79,0,0,1-27.59,20,198.42,198.42,0,0,1-39,17.59A181.46,181.46,0,0,1,962.9,931a163.81,163.81,0,0,1-25.81-1.16,152.35,152.35,0,0,1-22.73-4.61c-12-3.31-23.6-7.54-34.21-14.19-4.09-2.56-8.48-4.69-12.32-7.57A144.19,144.19,0,0,1,840.32,877a118.2,118.2,0,0,1-15-24.71c-4-9.07-7.76-18.42-9-28.49-.69-5.8-1.94-11.57-2.33-17.39-.86-13,.91-25.78,3.52-38.5a127.87,127.87,0,0,1,9.63-28.3,149.68,149.68,0,0,1,19.68-32.09,165.9,165.9,0,0,1,13.39-15,243.75,243.75,0,0,1,21.76-19.07,174.18,174.18,0,0,1,34.32-19.95c11.13-4.92,22.6-9.24,34.73-11.41,8.12-1.44,16.07-3.82,24.45-3.7C978.53,638.39,981.51,637.52,984.45,637.07Zm47.7,8.63c5.67,2.25,10.76,4.29,15.87,6.3a119.73,119.73,0,0,1,26.48,14.93c9.91,7.19,19,15.44,26.27,25.49.2.28.44.53.66.79a103.48,103.48,0,0,1,14.49,24.36,122,122,0,0,1,9,29.55,150.22,150.22,0,0,1,1.61,22.67,144.34,144.34,0,0,1-2.33,24.65c-1.72,10.68-5.34,20.75-9.59,30.47a151.31,151.31,0,0,1-16.49,28.61,170.65,170.65,0,0,1-26.7,28.75A172.22,172.22,0,0,1,1008,916.89c-10.21,2.94-20.47,6-31.3,6.2-5.15.09-10.3,1.33-15.44,1.22-11.87-.23-23.7-.91-35.41-3.49a143.65,143.65,0,0,1-31.68-10.76,127.05,127.05,0,0,1-32-21.62,117.3,117.3,0,0,1-18.52-21.53,123.53,123.53,0,0,1-13.79-27.67,150.77,150.77,0,0,1-5.2-21.54,104.59,104.59,0,0,1-.85-30.93,146.78,146.78,0,0,1,9-36.51,143.18,143.18,0,0,1,14.38-27.39c6.2-9.29,13-18.18,21.46-25.77,5.76-5.19,11.34-10.54,17.48-15.34A161.93,161.93,0,0,1,918,662.68c11.2-5.17,22.86-9.53,35.16-11.75,7.1-1.28,14-3.33,21.38-3.32,3.21,0,6.43-.79,9.6-1.21.75-3.19.79-3.19-.35-6.32a86.65,86.65,0,0,1-9,.95c-11.69.06-22.9,3.09-33.91,6.28-12.54,3.64-24.87,8.18-36.16,15-1.17.71-2.42,1.32-3.63,2a160.61,160.61,0,0,0-31.73,23A152.82,152.82,0,0,0,854.68,702a182.77,182.77,0,0,0-21.95,32.52,151.74,151.74,0,0,0-11.8,30.82,104,104,0,0,0-3.72,33.28c.2,3.09.06,6.21.06,9.31a83.5,83.5,0,0,0,3.61,24,133.91,133.91,0,0,0,12.25,29.52,124.8,124.8,0,0,0,22.32,28.33,128.2,128.2,0,0,0,27.51,20,163,163,0,0,0,37,14.19c13.1,3.31,26.49,4.34,39.91,4.41,6.84,0,13.68-1.24,20.53-1.82,11.73-1,23-4,34.06-7.86,12.2-4.21,24.12-9.25,35-16.36.57-.37,1.23-.62,1.83-1A146.84,146.84,0,0,0,1077.46,882a181.79,181.79,0,0,0,28.17-32.3A156.92,156.92,0,0,0,1120.12,823c4.22-9.94,7.88-20.23,9.31-31.11.67-5.12,1.94-10.18,2.28-15.31A131.09,131.09,0,0,0,1114,700.7a141.93,141.93,0,0,0-26.42-31.63c-9-8.25-19.29-14.57-30-20.08-7.26-3.73-15.23-6.07-23.24-9.16Zm.23,839.41c0-52.16,0-104,0-155.95,0-1.2-.13-2.4-.22-3.6a1.09,1.09,0,0,0-.22-.46c-.1-.13-.23-.25-.34-.37-4.51-1.35-22.58-1.29-26.86.26v6.5q0,72.93,0,145.88c0,1.55-.07,3.1,0,4.65a29.21,29.21,0,0,0,.57,3.31C1010.78,1486.1,1027.71,1486,1032.38,1485.11Zm-128.44,1.71c0-2.55,0-4.26,0-6q-.11-77.4-.23-154.8a.84.84,0,0,0-.22-.44,3.15,3.15,0,0,0-.37-.36c-5.77-.75-20.29-.59-24.09.26-1.07,4.93-.91,154.56.27,161.27C887.22,1487,895.24,1486.8,903.94,1486.82Zm229.9-162a14.52,14.52,0,0,0-.58,2.25q-.08,76.34-.1,152.66c0,1.89.17,3.78.27,5.67a1.05,1.05,0,0,0,.16.48,1.61,1.61,0,0,0,.32.36c5.06.9,19.8.77,23.49-.18,1.69-7.37,1.83-153.85.65-161.19C1150.12,1324.75,1142.1,1324.83,1133.84,1324.86ZM1267.07,1490c1.08-10.68,1-157.27,0-161.68-4.34-1.6-13.89-1.93-19.21-.65-.76,4.92-.68,156.49.15,161ZM768.84,1328.3v4.53c.2,50.69-.57,101.38.77,152.06,0,1.5.26,3,.41,4.67,6.52.8,12.51-1.07,19-.77.1-2.75.24-5,.24-7.16q0-73.44,0-146.9c0-1.38.07-2.76,0-4.13a36.38,36.38,0,0,0-.72-3.69C781.93,1327.23,775.57,1326,768.84,1328.3ZM714,1331.53v4.88q.07,77.64.17,155.27a.93.93,0,0,0,.17.47,4.9,4.9,0,0,0,.57.6l38.37.86c-.78-2.23-1.44-4.14-2.13-6-1.17-3.24-2.6-6.4-3.5-9.72-5.45-20.09-12-39.91-15.08-60.6-1.69-11.23-4-22.37-5.44-33.63-1.56-12.3-2.41-24.68-3.57-37-.42-4.43-.84-8.86-1.3-13.77Zm-50.1,4.18c-1,5.06-.9,156.85,0,160.92,5.47.8,20.67.65,24.24-.21-.17-1.71-.47-3.41-.5-5.1-.35-18.8-.74-37.6-.94-56.39a79.18,79.18,0,0,0-1.87-16.38c-1.89-8.57-3.88-17.15-5.06-25.83-1.92-14.15-3.23-28.39-4.79-42.59-.47-4.25-.91-8.5-1.42-13.23Zm658-3.16c-6.32-1-7.41-.25-8.07,5.73,0,.18,0,.35,0,.52-.72,8.58-1.29,17.18-2.2,25.74-1.25,11.81-2.31,23.67-4.28,35.36-2.82,16.79-5.3,33.68-10.28,50-4.11,13.5-7,27.39-12.38,40.49-.37.9-.56,1.88-.92,3.11a23.13,23.13,0,0,0,2.86.31q16.54-.42,33.09-.91a17.36,17.36,0,0,0,2.33-.4C1323,1487.15,1322.85,1336.87,1321.9,1332.55Zm50.94,164.33a31.07,31.07,0,0,0,.41-3.12q.07-76.08.11-152.16c0-1.54-.12-3.09-.2-4.64a1,1,0,0,0-.18-.46,6.56,6.56,0,0,0-.49-.55c-1,.06-2.24.19-3.42.19-4.37,0-6.26-.06-6.67,6.86-.17,2.92-.17,5.86-.49,8.77-.81,7.36-1.85,14.69-2.62,22a323.28,323.28,0,0,1-6,38.75c-1.83,8-3.53,16.06-3.49,24.47.1,16.72-.49,33.45-.77,50.18,0,3.21,0,6.43,0,9.66ZM1096.09,850.65c-8.06-.42-15.28-1.1-22.51-1.1-44.69,0-89.39-1-134.07,1-4.26.18-8.49.82-12.86,1.26a34.33,34.33,0,0,0,.15,13.47c2.05,0,3.91,0,5.77,0,12.76-.34,25.52-.77,38.28-1,8.8-.16,17.6-.06,26.41-.09,1.72,0,3.44-.1,5.17-.13,9-.15,17.93-.42,26.9-.4,7.93,0,15.86.45,23.79.55,9.15.11,18.29.07,27.44.09a17.47,17.47,0,0,0,3.62-.07,5.93,5.93,0,0,0,3.15-1.4A77,77,0,0,0,1096.09,850.65Zm-257.26-65.3c6.51-3.91,12.1-7,17.36-10.52a15.86,15.86,0,0,0,6.72-10c1.77-7.9,4-15.7,6-23.53a12.1,12.1,0,0,1,1.37-3.88c4.83-6.86,8.8-14.35,16.07-19.32,4.17-2.85,8.17-5.59,13.16-6.81,5.49-1.34,11.3-2.24,16.23-4.79,5.12-2.64,9.16-7.28,14-10.56,6.5-4.4,10.24-11.1,15.06-16.9a2.64,2.64,0,0,0,.7-1.34c.29-3.9,1.08-7.82-.26-12.07a163.28,163.28,0,0,0-59.17,31.65c.64,1.11,1.12,1.83,1.49,2.6,1.76,3.6,1.66,4.39-1.09,7.32-2.24,2.39-4.5,4.77-6.82,7.08a168.92,168.92,0,0,0-22.8,28,148.64,148.64,0,0,0-17.36,38.51A42.17,42.17,0,0,0,838.83,785.35Zm-37.66,543.28v159.82c.74.41,1.31,1,1.92,1,7.2.49,14.41.91,21.62,1.32,1.34.08,2.67,0,4.32,0-.25-1.32-.38-2.15-.57-3-2.28-9.88-4.68-19.73-6.83-29.64-2-9.25-4.22-18.49-5.49-27.84-2.54-18.75-5.62-37.43-6.62-56.37-.74-13.92-2-27.81-3-41.71-.07-.83-.21-1.65-.3-2.37a7.33,7.33,0,0,0-1.59-.84C803.65,1328.87,802.63,1328.8,801.17,1328.63Zm429.58.56c-2.13,27.34-3.54,54.33-7.21,81.12a788.13,788.13,0,0,1-15.67,80.44c2.19,0,3.88.07,5.56,0,5-.26,10-.69,15-.85,7.24-.22,7.26-.14,7.26-7.18q0-73.28,0-146.55c0-1.9-.08-3.79-.21-5.68a5.07,5.07,0,0,0-.74-1.48ZM1346.53,1493v-47.34q0-53.85,0-107.69c0-2.19-.21-4.38-.34-6.76-4.14-.13-7.78-1-11.44-.51-.9,9.3-.54,157.73.43,162,1.41.1,2.92.27,4.44.31C1341.63,1493,1343.67,1493,1346.53,1493Zm-656-161.84c-.84,8.62-.54,157.53.3,161.64,3.65.34,7.34.6,11.44-.59v-5.74q0-13.45,0-26.91,0-60.79,0-121.61c0-2.18-.21-4.36-.35-7-2.32,0-4.19,0-6,0C694.15,1331,692.46,1331.06,690.5,1331.15ZM835.85,801.23a7.58,7.58,0,0,0,1.84-.31q15.22-9.28,30.41-18.62a10.91,10.91,0,0,0,2.7-2.37c3.38-4.17,6.34-8.51,7.1-14.07.56-4.09,1.68-8.09,2.38-12.16a38.62,38.62,0,0,1,6.47-16.13c4.5-6.36,9.9-11.32,17.68-13.28,3.82-1,7.57-2.26,11.42-3.14A40.59,40.59,0,0,0,931,713.81c8.16-6,16.26-12.13,25.59-16.46,7.95-3.68,15.55-8.15,23.27-12.33a14.48,14.48,0,0,0,2.34-2.2,19.22,19.22,0,0,0-2.77-.19,28.61,28.61,0,0,0-3,.56c-11.47,2.44-22.48,6.38-33.39,10.6a26.25,26.25,0,0,0-5.43,2.9c-5.4,3.7-10.73,7.52-16.06,11.32a21.84,21.84,0,0,1-8.39,3.76c-5,1.06-10,2.49-15,3.89a14.24,14.24,0,0,0-4.69,2c-5.68,4.2-11.48,8.31-14.85,14.85-.71,1.37-1.82,2.53-2.55,3.89a26.11,26.11,0,0,0-2.55,5.57c-1.92,7.5-3.65,15-5.4,22.59a20.42,20.42,0,0,1-10,13.75q-8.71,5.05-17.26,10.41c-1.38.87-3,2.12-3.46,3.54C836.54,795,836.38,797.94,835.85,801.23Zm-5.07,77.94-.56.41c.84,1.3,1.61,2.66,2.55,3.88,12,15.59,25.88,29,43.12,38.85a159.86,159.86,0,0,0,42.93,17.14A170.65,170.65,0,0,0,953.53,944a136.55,136.55,0,0,0,23.74-.93c4.25-.62,8.69-.33,12.82-1.35,12.16-3,24.45-5.42,36.21-10.11,16.91-6.75,32.83-15.05,47.42-26s27.73-23.25,38.41-38.09c3.22-4.48,6.91-8.71,9.54-13.52,5.94-10.86,11.76-21.76,15.83-33.59a143.38,143.38,0,0,0,7.7-35.75c.89-11.64,1.32-23.44-.92-35.08-1.46-7.6-2.23-15.34-5.25-22.59-1.66-4-3-8.1-4.46-12.13-.45-1.18-1.1-2.29-1.78-3.68-.22.55-.37.74-.33.86.85,2.43,1.59,4.9,2.6,7.27,5.1,11.87,6.94,24.54,8.35,37.16,1.82,16.26-.48,32.46-4.41,48.18a129.92,129.92,0,0,1-10.83,29.54c-5.18,9.74-10.4,19.38-17.07,28.28A256.09,256.09,0,0,1,1092.46,884a98.4,98.4,0,0,1-14.63,13.1c-6.46,4.6-12.76,9.43-19.38,13.78-12.29,8.09-25.78,13.79-39.5,18.94a63.8,63.8,0,0,1-7.36,2.39c-11.85,2.9-23.62,6.26-35.88,7-6.87.44-13.74.94-20.62,1.06a107.1,107.1,0,0,1-12.37-.85q-6.66-.64-13.31-1.58c-2.72-.38-5.39-1.11-8.11-1.52-12.38-1.88-24-6.35-35.16-11.64-11.48-5.46-22.44-12.07-32-20.7-5.15-4.62-10.29-9.17-14.62-14.59C836.68,885.89,833.69,882.57,830.78,879.17Zm18.86,27.24-.47.6c1.86,1.77,3.65,3.64,5.6,5.31,3.41,2.92,7,5.66,10.37,8.57,8.47,7.23,18.24,12.51,28.22,17,10.76,4.87,21.92,9,33.71,11.07,10.7,1.92,21.36,3.7,32.28,3.41,4.13-.11,8.29.19,12.42-.08,6.34-.41,12.69-.92,19-1.83,5.76-.83,11.45-2.2,17.16-3.38,13.4-2.79,26.08-7.81,38.29-13.67a178.31,178.31,0,0,0,39.47-25.38c3.52-3,7.11-6,10.46-9.22a120.74,120.74,0,0,0,10.71-11.23c6.45-8.06,13.28-16,18.59-24.77,7.1-11.76,13.58-24,17-37.51,1-4,2.81-7.81,3.6-11.84,2.34-12,4.19-24.1,3.37-36.43-.1-1.54,0-3.1,0-4.65-.24-4.44-.53-8.88-.79-13.31-.3,3-.25,6.07-.31,9.09-.16,7.92.21,15.91-.7,23.76-1.43,12.31-3.87,24.48-8.51,36.09-1.46,3.67-2.35,7.62-4.18,11.09-5.79,11-11.34,22-18.84,32a204.07,204.07,0,0,1-33.58,35c-10,8.29-21,15-32.32,21.3a184.36,184.36,0,0,1-32.36,13.45,189.25,189.25,0,0,1-50.18,8.73,145.19,145.19,0,0,1-27.34-1.19c-14.26-2.11-28.5-4.77-41.82-10.77-3.28-1.48-6.86-2.38-10-4.08-12.61-6.8-24.82-14.23-35.34-24.12C852,908.4,850.8,907.42,849.64,906.41ZM985.33,658.86c-12.56-.05-24.4,2.48-36.31,5.77V676.1c4.86.59,9.43,1.5,14,1.6s9.37,2.52,14.16.54c.19-2.54.37-4.87.57-7.66,4.08,2.3.85,6.77,4.28,9.29,8.69,0,18,.12,27.27-.11a9.51,9.51,0,0,0,5.65-2.24,30.79,30.79,0,0,0,9.49-15.45c-3.48-1.46-15.67-3.42-18.42-3.13a3.54,3.54,0,0,0-3.1,2.33c-.56,1.24-1,2.71-1.94,3.57-4.29,3.92-11.8,2.16-14.28-3.21C986.37,660.85,986,660.1,985.33,658.86Zm134,90.83c0-10.77-8.63-30.21-16.18-39.85-10.31-13.18-14.82-17.48-18.49-18.48-1.11,9.78-.89,47.94.34,52.55,7.47.48,15,1,22.51,1.41C1111.69,745.54,1115.68,746.16,1119.33,749.69Zm-191.57,739.2c0-2.41.15-4,0-5.48-1.07-9.59-2.28-19.16-3.3-28.75q-1.59-14.9-2.9-29.82c-.51-5.67-.82-11.35-1.18-17-.92-14.1-1.94-28.2-2.67-42.31-.63-11.88-.9-23.78-1.36-35.68a12.12,12.12,0,0,0-.48-2.09,12.11,12.11,0,0,0-1,5.66l-.3,127.39c0,7.25,0,14.5,0,21.75,0,1.67-.42,3.48,1.08,5Zm194.73-1.55c0-2.29,0-4.15,0-6-.24-15-.66-30-.71-45-.12-34.16-.06-68.34-.07-102.51v-5.46a17.65,17.65,0,0,0-1.66,7c-.17,2.93,0,5.87-.16,8.8q-1.08,25.32-2.23,50.64c-.26,5.5-.64,11-1.14,16.5-1.2,13.38-2.4,26.76-3.8,40.12-1.17,11.13-2.65,22.22-3.93,33.34a28.71,28.71,0,0,0,.15,4.23Zm204-156.09c-.82,7.79-.58,157.56.2,161.32,3.78,0,3.94,0,4.18-2.79.39-4.29.77-8.6.78-12.89q.07-70.16,0-140.3c0-1.69-.14-3.38-.23-5.34Zm-534.12-4.34v6.39q0,60.06,0,120.12c0,10.87.16,21.75.27,32.62a22.11,22.11,0,0,0,.43,2.79l4.12-.38c.33-7.25.89-14.12.91-21q.17-67.83.12-135.66c0-1.17-.2-2.35-.32-3.7Zm446.42,1.25v6.67q0,69.63,0,139.27c0,4.32.18,8.63.32,12.94a7.68,7.68,0,0,0,.56,1.75l3.92-.31c.12-1.72.28-3.08.3-4.44.24-13.45.59-26.91.63-40.36q.18-56.45.11-112.87a32.9,32.9,0,0,0-.44-3.73ZM709.87,1492.5a4.57,4.57,0,0,0,.44-.92,7.2,7.2,0,0,0,.19-1.53q0-77.08,0-154.17c0-1.2-.16-2.4-.26-3.6a1.2,1.2,0,0,0-.21-.46,7.08,7.08,0,0,0-.56-.72l-4.1.25v153.91c0,1.38,0,2.77,0,4.14C705.65,1492.29,706,1492.5,709.87,1492.5Zm415.61-166.45c-.76,9.41-.49,156.35.31,160.66l3.6-.34c.86-9.53.6-159.47-.39-160.84ZM656,1335.42v5.69q0,64.14,0,128.29c0,8.27.47,16.54.76,24.8a19.23,19.23,0,0,0,.47,2.7l2.89-.16c.75-6.72.56-157.12-.21-161.32ZM976.13,437.29c0,2.23-.13,4.26-.13,6.29q0,58.73,0,117.43c0,14.49-.19,29-.23,43.45,0,1.8-.49,3.74.77,5.61,1.45-.41,2.92-.41,3-2.35,0-1.38.06-2.76.06-4.14q0-80.45,0-160.88v-5.25Zm404.45,1059.55c0-53.31,0-106.1,0-158.9a13.7,13.7,0,0,0-.55-2.64l-2.9.19c-1,6-.8,157.26.15,161.35Zm-469.86-10.31c1-4.18,1.11-155,.17-160.59l-3.35-.84c-.07,2.58-.17,4.77-.17,7q0,71.42,0,142.84c0,2.93,0,5.86.06,8.79a16.16,16.16,0,0,0,.67,3Zm439.38-150.06v76a230.88,230.88,0,0,0,4.69-24.83c1.19-8.53,2.15-17.08,3.1-25.63.93-8.3,2.34-16.59,1.67-25C1356.27,1335.75,1353.42,1336,1350.1,1336.47Zm-313.69-11.64-1.23.36c0,1.85-.13,3.7-.13,5.55q0,75,0,150c0,1.2-.06,2.42,0,3.61a17.53,17.53,0,0,0,.8,2.82c.89-.91,1.61-1.29,1.67-1.76a32.6,32.6,0,0,0,.27-4.63q0-74.76,0-149.52a42.1,42.1,0,0,0-.26-5.15C1037.5,1325.67,1036.81,1325.26,1036.41,1324.83ZM653,1335.6l-1-.4c-.38.45-1,.86-1.08,1.35a31.56,31.56,0,0,0-.16,4.13q0,75.49,0,151a22.59,22.59,0,0,0,.18,4.12c.1.5,1,.83,2.1,1.62Zm346.21,150.88,1.18.24c.34-.52.9-1,1-1.57a39.82,39.82,0,0,0,.2-4.64q0-74.49,0-149a46.77,46.77,0,0,0-.22-5.16c-.05-.54-.64-1-1-1.52-.56.31-1.11.46-1.11.62q-.28,78.6-.47,157.18A31.33,31.33,0,0,0,999.24,1486.48Zm-313.13-75.81c1.1-7.27.78-70.06-.14-74-5.34-1-6-.91-9.35,1.31C678.89,1362.25,680.82,1386.68,686.11,1410.67Zm146-596.86c.43-8.59.74-17.12,2.3-25.66A132.22,132.22,0,0,1,847,750.69a135.74,135.74,0,0,1,8.64-15.25A165.84,165.84,0,0,1,877.89,709a78.28,78.28,0,0,0,6.3-6.83c.42-.5.12-1.59.19-3.22-1.54,1.17-2.38,1.71-3.1,2.38-3.5,3.32-7.13,6.52-10.43,10a161.87,161.87,0,0,0-24.31,33.88,129.42,129.42,0,0,0-10.49,26.31,108.86,108.86,0,0,0-3.81,20.23C831.59,799.05,832.09,806.45,832.09,813.81Zm552.58,683.7c1.55-3,1.19-5.27,1.19-7.43q0-74.57,0-149.13a24.21,24.21,0,0,0-.11-3.62,8.42,8.42,0,0,0-1.26-2.21C1383.46,1340.33,1383.5,1492.3,1384.67,1497.51ZM1032.49,648.9c-1,2.3,0,3.22,1.31,3.81,2.67,1.17,5.39,2.26,8.1,3.33a139.52,139.52,0,0,1,39.76,23.53c11,9.39,20.26,20.08,27.16,32.81.73,1.36,1.58,2.67,2.39,4s1.63,2.58,2.45,3.87C1097.66,684,1069.8,661.26,1032.49,648.9Zm160.7,1033.31c-1.77-4-3.2-7.7-5-11.21s-2.69-7.35-5.29-10.57c-2.86,1.58-5.89,2.35-8.29,4.92l12.89,20.28Zm-343.78,3.4c4.38-7.31,9-13.64,12.85-21l-8.87-4.33c-3.37,7.6-6.55,14.75-9.81,22.09ZM722.15,1544.93c6.54-4.33,13.21-7.67,19.47-12.11-1.78-3-3.27-5.56-5.94-7.69l-17.35,14.3Zm596.11-5c-3.76-4.15-14.06-12.45-17.71-14.28-.92,1.08-2,2.19-2.86,3.38s-1.7,2.43-2.72,3.9l19.79,12ZM897.05,1663.18l-8.39-4.44c-3.49,7.41-6.42,14.41-9.21,21.78l5.39,3Zm110.73,32.75c.51,4.46.65,8.43,1.48,12.25s.09,7.93,2.51,11.8l4.66-1.25c.71-6.58.56-19.74-.27-23.67ZM1157,1680.75c-1.36-5.81-7.11-19-9.61-21.93-2.24,1.63-5.17,2.29-7.15,5.06l11.77,19.67ZM1041.83,1711c1,7.46,4.22,20.13,6,23.82l5-.78c-1-8.25-1.21-16.25-2.94-24.45Zm68.62-8.22c2.13,7.5,4,14.27,6,21,.12.43.66.74,1.25,1.35l4.9-1.74c-1.29-7.78-1.64-15.47-3.46-23.34Zm-196,20.49c2.34,1,3.71,2.3,6,1.11,1.67-7,4.34-14,5.44-21.52-3-1.29-5.39-2.52-8.6-2.29C916.29,1708.14,915.36,1715.59,914.41,1723.25Zm72.23-13.09c-.91,8.16-2.29,15.9-2.34,23.91l5.37.75c1.87-7.79,3.69-15.4,5.56-23.18-2-.59-3.42-1.14-4.91-1.44A21.46,21.46,0,0,0,986.64,1710.16Zm-11.58-.69c-.11,8.25-.32,15.94,1.26,23.5,4.9.35,4.88.32,5.33-4,.58-5.47,1.28-10.92,1.86-16.39a22.82,22.82,0,0,0-.17-3.25c-1.55-.12-2.89-.3-4.23-.29C977.94,1709.05,976.78,1709.28,975.06,1709.47Zm-46.25,17.89c2.08-4.78,3.93-9.19,5.92-13.54a11.89,11.89,0,0,0,.93-8.36c-3.65-1.33-3.65-1.33-6.91-1-1.89,6.9-3.82,13.95-5.88,21.5Zm27.35-29.94c-1.78,8.15-3.66,15.67-4.14,23.71l5,1.63c2.44-7.34,4.8-14.39,7.11-21.33-.7-.67-1-1.15-1.44-1.34C960.85,1699.28,959,1698.54,956.16,1697.42Zm128-.5c0,5.45,3,19.91,4.76,23.66a7.34,7.34,0,0,0,1.93,0,14.63,14.63,0,0,0,2.23-1c.55-4.94-.41-19.94-1.54-23.59Zm-11.65,3.62c2.48,7.81,4.59,15.13,7.62,22.3l5.06-1.86c-1.35-7.89-2.57-15.56-4.54-23.47ZM1025.92,1720c1.18-8.61,2.23-16.2,3.3-24-3.16-.49-5.79-.94-8.69,0v22.72Zm34.85,13c1.18-6.92,1.09-20.07-.13-23.72h-6.9c-.46,8.24,1.09,15.93,2.18,23.72Zm40.46-27.86c-.77,8.74,4.12,14.91,6.78,22.26l5.93-1.65c-2.09-7.56-4-14.64-6.14-22.23Zm-148.36-8.32-7.51-.83c-1.56,5.41-2.15,16.72-1.26,23.72l4.31,1.2A193,193,0,0,0,952.87,1696.88ZM770,1627.59c4.63-5.29,9.24-9.86,13-15.14-1.94-2.7-3.58-5-6.28-6.66-2.14,3.19-4.11,6-6,8.9s-4.29,5.71-5.65,9.2Zm259.29-982.51c-9.87-3.7-18-4.76-25.17-3.32v4.91l24,4.07Zm208.77,975.43-11.37-17.58a19.74,19.74,0,0,0-6.49,7.33l12.61,14.48Zm-511.95-68.15c7.18-3.38,14.08-5.82,20.73-9.54l-3.61-7.67c-6.31,3.88-12.16,7.42-17.91,11.11a3.1,3.1,0,0,0-1,2.6C724.55,1549.94,725.37,1550.92,726.13,1552.36Zm587.07-4.81c-5.84-4.4-16.06-10.37-19.37-11.38-2.41,3.3-2.41,3.3-3.08,7.32,6.53,2.87,13.08,6,20,8.65a24.08,24.08,0,0,0,1.39-2C1312.49,1549.38,1312.77,1548.58,1313.2,1547.55Zm-59.8,64.67c4.58,5.6,8.95,10.53,13.56,15.32,1.08-.84,1.72-1.41,2.42-1.88s1.76-1.07,2.61-1.57c-4-6.83-7.94-12.54-12.22-18.55C1257.5,1607.91,1255.64,1609.86,1253.4,1612.22Zm-443.16-9.55L798.8,1620.5l5.16,4.29,13-14.94Zm351.25-116.51.24-.15V1327.44h-.24ZM1165,1677.9c-1.5-5.4-2.91-10.54-4.37-15.66-1.86-6.54-1.87-6.55-8.39-4.86-.27.07-.47.44-1,.95,2.55,6,5.12,12.18,7.8,18.3C1160.43,1679.84,1160.55,1679.81,1165,1677.9Zm-288.29,1.27c3.1-6.86,6.15-13.87,9-21.33-2.75-.71-4.82-2.08-7.67-1.1-1.8,6.14-3.7,12.36-5.41,18.64C871.83,1678.06,872.53,1678.63,876.66,1679.17Zm-12.2-12.41c-4.18,6.77-8.24,13.34-12.29,19.92-.07.13,0,.34,0,.89l3.7,2.39c2.93-3.59,6-6.69,8.24-10.33,1.72-2.85,2.47-6.33,3.33-9.61C867.82,1668.53,866.47,1667.6,864.46,1666.76ZM1185.09,1687l-12.77-20.13c-2,.64-3,1.66-2.7,3.21.49,2.66.65,5.63,2,7.84a67.86,67.86,0,0,0,9.72,12.08ZM1322,1531.41a6.34,6.34,0,0,0,.56,1.12c2.24,2.68,5.64,4.69,5.13,9,0,.36.45,1,.85,1.19,3.22,1.81,6,4.41,9.73,5.78,1-1.76,1.85-3.21,2.65-4.57-3.77-4.32-14.25-12.87-17.68-14.42Zm-623.11,17.22,10.32-6.46c-.89-5.07,3.39-7.19,5.91-10.45L713,1529c-5.82,5-11.74,9.32-17.17,14.62Zm77.39,85c3.46-3,6.63-5.64,9.61-8.44,2.5-2.35,1.55-5.64,1.73-8.54,0-.61-1.29-1.3-2-1.93-4.94,4.29-11,11.51-12.73,15.11Zm606.67-133.4a2.17,2.17,0,0,0,0-.25c-16.76,0-33.52,0-50.28,0a23,23,0,0,0-4.48,1c.58.6.81,1.06,1,1.06,15.27-.19,30.54-.36,45.81-.68A63.65,63.65,0,0,0,1382.92,1500.19Zm-674.76,1.61c.08-.34.16-.68.25-1a30.49,30.49,0,0,0-4.94-.82c-16.37-.06-32.73,0-49,0,3.07,1.54,6.48,1.46,9.9,1.48,3.62,0,7.23.26,10.85.33q15.76.29,31.54.51A4.64,4.64,0,0,0,708.16,1501.8Zm635.22-6.29c-19.6.51-38.48-.77-57.78,1.28,2.09,1.91,4.25,1.44,6.21,1.45,9,0,17.91,0,26.87-.11,1.55,0,3.1-.1,4.64-.26,6.28-.67,12.47-2.25,18.85-1.77C1342.32,1496.11,1342.48,1496,1343.38,1495.51ZM1251.06,1614c-1.17,1.77-2.56,3.1-2.31,3.61,1.15,2.32-.27,5.29,1.92,7.23,3.16,2.82,6.36,5.6,10.19,9l3.88-4.34Zm-499.9-116.84c-10.69-1.45-45.63-2.15-57.45-1.16,4.93.61,9.17-.72,13,1.23,13.59,1.51,27.23,1,40.85,1C748.52,1498.17,749.42,1497.65,751.16,1497.12Zm460.68-3.8-.26.84a23.77,23.77,0,0,0,4.43.87c8.07,0,16.15.07,24.22-.14a12.19,12.19,0,0,0,6.32-1.65,6.49,6.49,0,0,1,4.75-1.06l12.21,1.07a14.64,14.64,0,0,0-6.93-1.59c-11.33.23-22.65.58-34,.95C1219,1492.73,1215.43,1493.08,1211.84,1493.32Zm-387,1c-5-1.59-39-3.07-46.54-2.63-1.5.09-3,.47-4.47.71a20.92,20.92,0,0,0,6.55.55c1.71-.1,3.39-.58,5.09-.68,1.33-.07,3.07-.3,3.94.4,2.5,2,5.37,2.26,8.24,2.32,7.41.17,14.82.15,22.22.09A35.56,35.56,0,0,0,824.82,1494.29Zm-15.94,136c5-4.64,9.82-8.42,14-13.22l-4-5c-4.64,4.78-8.74,9.49-12.86,14.54Zm309.38-304.85,0-1c-4.1-.78-66.65-1.05-75.34-.33ZM919,1324c0,.4,0,.8,0,1.2,1.85,0,3.7,0,5.56,0l62.08-.93c2.26,0,4.52,0,6.78,0V1324Zm295.29,293c5.29,6.31,12.82,12.89,14.48,12.42l1.88-3c-3.09-3.61-6.07-7.13-9.11-10.61-1-1.13-2.15-2.12-3.57-3.51ZM992.62,627c-2.36.49-2.11,2-2.11,3.32q0,10,0,20.09c0,3.6,0,7.21.13,10.81,0,.69.92,1.33,1.65,2.31C993.53,659,993.69,632.17,992.62,627Zm238.73,699.81c0-.44.07-.89.1-1.33-9.45,0-18.91.12-28.36,0-11.94-.2-23.88-.63-35.82-1a46.65,46.65,0,0,0,11.66,1.68c3.26.13,6.53,0,9.8.1,12,.3,24,.67,36.07.93C1227,1327.27,1229.17,1327,1231.35,1326.82ZM870,1325.52l-.1-.36c-10.84,0-21.69-.11-32.53,0s-21.64.56-32.46.86a16.59,16.59,0,0,0,5.85,1.15c6.36-.17,12.72-.68,19.08-.81,8.44-.18,16.88-.05,25.31-.2C860.13,1326.12,865.07,1325.76,870,1325.52Zm19.21-586.93,1,1.06a21.92,21.92,0,0,1,2.54-3.23c4.27-3.77,8.73-7.11,14.63-8.13,3.69-.63,7.2-2.26,10.88-3,6.52-1.35,11.18-5.44,15.66-9.92a17.92,17.92,0,0,0-4.2,2.55,24.9,24.9,0,0,1-10,4.93c-5,1.23-9.9,2.76-14.87,4C898,728.67,893.34,733.26,889.23,738.59Zm339.69,862.66,11.8,18.25,2.9-1.67c-2.68-7.13-7.06-15.46-9.63-18.28Zm-421.44.6c-1.47-1.93-3.37-1.86-5.36-2.35-3.3,6.15-6.37,12.17-9.25,18.57l3.42,1.21Zm339.93,85.66c2.76-1.62,1.9-3,1.09-4.37-2.89-4.85-5.78-9.69-8.71-14.52-.58-1-1.32-1.84-2.31-3.2l-3.11,4.31Zm50-25c-.34,1.29-.89,2.24-.75,3.08a29.62,29.62,0,0,0,1.44,4.91c1.82,5.14,4.16,10.15,3.88,15.82,0,.24.43.5.86,1a6.42,6.42,0,0,0,4.72-3.38q-4.27-10.17-8.59-20.33C1198.83,1663.32,1198.41,1663.2,1197.38,1662.5ZM888.5,1687.91a22.07,22.07,0,0,0,2.12-2c3.27-4.41,6.53-8.83,9.74-13.29,2.31-3.22,2.25-3.36-1.59-7-3.77,6.41-7.53,12.7-11.13,19.07C887.32,1685.24,888.07,1686.4,888.5,1687.91Zm-54.52-.15c.61-1,1.2-1.51,1.1-1.82-1-3,.26-5.71,1.24-8.45,1.38-3.89,2.68-7.81,4-11.71.58-1.65.13-2.66-2.17-3-3,7.18-6,14.42-9.14,21.86Zm548.81-182.44c-.06-.36-.12-.71-.19-1.07l-46,.92a2.61,2.61,0,0,0,2.17,1.23c12.91,0,25.82.07,38.73,0A28.17,28.17,0,0,0,1382.79,1505.32ZM902.4,1490.6l.12,1.34-6.17,1.07c8.16,0,15.21.06,22.26,0a47,47,0,0,0,6-.8c-13.55-3.39-27.2-2.51-40.81-2.45,3.08.2,6.17.09,9.25.23S899.4,1489.24,902.4,1490.6ZM700,1505.94l-.1-.75-46.71-1a9.25,9.25,0,0,0,6.4,2.21q19.1,0,38.21,0A10.92,10.92,0,0,0,700,1505.94ZM840.3,1682.2c3.93-7.81,7-15,10-22.07-3.49-2.26-4.15-2.31-5,.08-2.32,6.28-4.47,12.62-6.54,19C838.59,1679.74,839.48,1680.65,840.3,1682.2Zm294.08-190.32.1-1.47c3-1,6.27-.38,9.4-.47s6.53,0,9.8,0c-18.81-1-36-.15-41.94,2.33,9.88,1.37,18.66.82,28.25.72Zm61.6,189.48c2.65-.88,2.23-2.27,1.77-3.59-1.91-5.51-3.82-11-5.8-16.5a23,23,0,0,0-1.85-3.24l-3.9,1.78ZM949.8,847.73a278,278,0,0,0-45.27,1.48,19.29,19.29,0,0,0,3.47,1.36c4.09.45,8.19.86,12.3,1.12a6.86,6.86,0,0,0,2.77-.94c1.39-.6,2.71-1.67,4.14-1.84,4.59-.57,9.22-.9,13.85-1.15C944,847.59,946.89,847.73,949.8,847.73Zm81-208.31c-7.9-3.27-16.46-3.35-24.86-4.25-.6-.06-1.28.73-2,1.17,1.18,2.15,2.93,2.15,4.62,2.1a52.33,52.33,0,0,1,13.69,1.95c2,.49,4,.87,6,1.17C1029.57,641.75,1030.74,641.52,1030.81,639.42ZM1168,1681.66c-3.59-1-6.55-.06-9.19,1.27-3.21,1.62-6.9,2.92-8.61,7.09,3.52,1.32,6.4-.08,9.06-1.17C1162.63,1687.47,1166.21,1686,1168,1681.66ZM1319.7,1329c-10-.42-19.4-.81-28.84-1.24-4.8-.21-9.6-.52-14.41-.72-1.53-.06-3.19-.54-5.74,1.08,6.82.45,12.42.91,18,1.17,4.81.22,9.68-.18,14.42.44C1308.67,1330.48,1314,1330.66,1319.7,1329Zm-445.06,84.31H875v-85.88h-.36Zm-171,143c2.92-1.3,5.42-2.39,7.9-3.53a26.06,26.06,0,0,0,2.36-1.4l-3.63-6.63c-2,1.24-3.68,2.17-5.23,3.19s-3,2.12-4.62,3.26C701.52,1553,702.42,1554.45,703.63,1556.36Zm60.82-228,0-1.24-46.85,1.9c4.27,1.65,8.37,1.49,12.48,1.26,5.13-.28,10.25-.59,15.38-.88Zm558.36,223.37,10.41,4.66,3-5a33.19,33.19,0,0,0-9.87-6.26C1325.22,1547.22,1324.17,1549.16,1322.81,1551.7Zm-76.64,69.77c-6-.44-13.44,5-14.89,11C1238.25,1631.89,1243.42,1628.07,1246.17,1621.47ZM806,1632.18c-3.69-7-9.45-11-15.14-10.7C792.91,1627.84,800.17,1633,806,1632.18ZM607,1497h9.85c.59-2.64.83-4.92-.26-7.29H608Zm279,191.46c-4.8-4.53-9.59-7.09-15.5-7.17-.51,0-1,.61-1.71,1C873,1688.32,878.53,1689.74,886,1688.42ZM733.75,1523.55c-2.16-2.24-3.53-2.2-5.08-.7-4.28,4.17-8.65,8.26-13,12.4a7.68,7.68,0,0,0-1,1.5c.58.35,1,.72,1.12.65C721.74,1532.87,727.62,1528.31,733.75,1523.55ZM997.39,627.07c-.38.63-.81,1-.81,1.38q0,16.56.06,33.12c0,.39.42.78.81,1.45.4-.67.83-1,.83-1.43q.06-16.56,0-33.12C998.29,628.09,997.82,627.71,997.39,627.07ZM1303,1523.17c6,4.91,11.32,9.39,16.77,13.78.41.33,1.33,0,3,0a190.63,190.63,0,0,0-16.64-15.59Zm-590.92,16.28c2.19,9,4.94,12.8,10.74,14.76-.61-4.73-3.26-8.23-5.87-11.78C715.82,1540.88,714.67,1539.46,712.09,1539.45Zm297,184.08c2.82,3.25,6.18,2.6,9.25,2.57s6.4.74,9.09-2.57C1021.18,1720.94,1015.44,1721.11,1009.08,1723.53Zm304.34-168.63c7.15-3.52,10.82-9,10.67-15.64-1.13.6-2.42.88-3,1.68C1317.91,1544.94,1314.91,1549.05,1313.42,1554.9ZM993.2,1735.64c2.06-3.11,6.77-17.72,7.44-23.22h-2.32C995.45,1720.23,992.76,1732.51,993.2,1735.64Zm50.71-.44a21.29,21.29,0,0,0-.26-3.5c-1.32-5.67-2.72-11.31-4.11-17a2.64,2.64,0,0,0-.59-1.39,16.16,16.16,0,0,0-2.47-1.25C1036.42,1715.89,1040.74,1730.45,1043.91,1735.2ZM967,1702c-1.35,4-2.74,7.65-3.83,11.4-1,3.57-3.27,6.9-2.46,10.93a6.35,6.35,0,0,0,1.69-2.41c2.13-5.08,4.25-10.15,6.33-15.25C969.36,1705.09,970.18,1703.36,967,1702Zm109.44,22.56c.16-.88.51-1.56.34-2-2.3-6.65-4.66-13.27-7-19.89,0-.11-.28-.15-.43-.22a3.78,3.78,0,0,0-1,.3,11,11,0,0,0-1.06,1C1069.33,1710.73,1074,1721.59,1076.43,1724.56ZM940.76,688.84A34.4,34.4,0,0,0,955.42,685l-8.88-3.88Zm29.94-7.53-20-2.54C956.79,683.68,963.22,685.84,970.7,681.31ZM941.09,1696c-1.35,1.11-2,1.35-2.05,1.73-.67,2.41-.34,19.19.59,22.17A102.08,102.08,0,0,0,941.09,1696Zm123.16,37,1.24.17c.68-6.42,1.41-12.84,2-19.26.16-1.72-.4-3.25-2.52-4.53C1065,1717.73,1063.55,1725.37,1064.25,1733.08Zm-92.69-.79c1.26-5.81.86-19.42-.26-22.86-.58.84-1.35,1.46-1.42,2.14C969.23,1718.55,971,1725.35,971.56,1732.29Zm378.79-400.7c4.86,3.15,13.88,3.41,19.74.74C1363.5,1332.57,1357.05,1330.27,1350.35,1331.59Zm-683.86,1.6a66.43,66.43,0,0,0,8.57,1.21,64.91,64.91,0,0,0,8.63-1c1.2-.15,2.32-.4,2.49-1.94C681.81,1330.76,672.6,1331.34,666.49,1333.19Zm429.08,363.08a20.43,20.43,0,0,0-.38,3.17q.64,9.46,1.43,18.91c0,.42.48.81,1.36,2.19-.32-8.36.48-15.65-.57-22.92C1097.37,1697.29,1096.69,1697.06,1095.57,1696.27Zm-321-92.22c-1.82-1.43-2.74-1-3.45.27-2.86,5-5.72,10.08-8.54,15.14a6.16,6.16,0,0,0-.4,1.68l.85.4C766.79,1615.77,770.6,1610,774.53,1604.05Zm488.46-.86c1.29,4.7,8.94,16.34,12.62,18.58-3.75-6.58-7-12.35-10.36-18C1265,1603.3,1263.9,1603.38,1263,1603.19ZM941.34,1722.71c4.83,4.45,11.22,5.6,16.09,3.29a49.22,49.22,0,0,0-6.47-2.22C948.15,1723.22,945.25,1723.12,941.34,1722.71Zm57.89-876.18v-.16h-43v.16Zm79.71,880c8.17,1.5,13.37.25,16-3.8C1089.58,1723.39,1084.32,1723.43,1078.94,1726.49Zm1.26-879.94v-.18H1038v.18ZM1184,1691.44c.15.21.31.6.44.59,5.47-.52,9.83-3,13.6-7.71C1193.39,1685,1189.79,1686.93,1184,1691.44Zm-330.84.37a44.83,44.83,0,0,0-14.47-8.26C843.12,1689.42,846.43,1691.37,853.16,1691.81ZM985.93,867.25v-.17H951v.17Zm18.89,832.11c-1.32,4.13-1,6.45,2.77,19.82A124.74,124.74,0,0,0,1004.82,1699.36Zm26.83-.12-2.85,20.19C1031.35,1713.56,1033.24,1702.32,1031.65,1699.24Zm-143-7.81c-2,.79-3.52,1.47-5,1.91-2.46.71-2.59.84-2.42,4.29C885.64,1698.18,886.51,1697.49,888.68,1691.43Zm162.93-824.38.08.19H1081v-.19Zm96.81,825.79c1.67,2.36,2,5.47,5.66,5.23a13.82,13.82,0,0,0,2.57-.73l-1.71-3.78Zm-352-60.54c-2.12,3.82-2.12,3.82,3.23,6.66l2-2.41Zm363.49,64.19,5.25-3.51-1.74-3.11-5.38,2.74Zm82.56-60.94-2.22-3.17-5.63,4.42,2.52,2.74ZM988.41,1738.12a29.24,29.24,0,0,0-12.71-1.44C980.76,1738.79,981.16,1738.83,988.41,1738.12ZM879,1692.64l-5.52-2.51c-1.46,4-1.25,4.29,3.91,5.61C877.77,1694.91,878.23,1694,879,1692.64Zm32.58,26.23.54.24c.8-6.38,1.6-12.77,2.46-19.71-.81.71-1.25.91-1.27,1.15C912.65,1706.65,912.1,1712.76,911.53,1718.87Zm352.66-84.46c3.82-1.63,7-4,8.94-7.79C1269.83,1628.86,1266.38,1630.91,1264.19,1634.41ZM731.68,1560c-.68-1-1-1.75-1.21-1.71-3,.49-5.45,1.92-8.41,4.24C726.22,1563.49,728.41,1560.89,731.68,1560Zm292-70.43c-6.23-1.43-7.6-1.36-11.64,0Zm37,246.23c-2,.3-4,.53-6,.94s-4.35-.46-6.53,1.6A18.81,18.81,0,0,0,1060.71,1735.84Zm-44.27-3.6.2-3.25-6.2-.71C1011.17,1732.2,1013.82,1731.79,1016.44,1732.24Zm107.94-16.41c.5-8.24-.23-14-2.18-16.5C1122.93,1704.84,1123.61,1710,1124.38,1715.83ZM763,1626.2c2.7,3.09,5.09,6.55,10.16,8.64A35.2,35.2,0,0,0,763,1626.2Zm400.63,32-1.38.24q2.07,7.29,4.16,14.58l.76-.2Zm142.19-99.39c-.11.4-.21.79-.31,1.19,2.26,1,4.5,2.09,6.81,3,.45.17,1.21-.46,2.64-1C1311.33,1560.75,1309.22,1557.84,1305.86,1558.84ZM987.49,654.15l.19.07V635.75h-.19Zm38.75,1074.22-5.79.67c.1,1.24.16,2,.22,2.74,2.14.72,3.67-.19,5.11-1C1026.14,1730.53,1026,1729.51,1026.24,1728.37ZM874.16,1659.3l-1.32-.18-2.58,11.58.77.17Q872.59,1665.08,874.16,1659.3Zm446.4-104.3,10,4C1327.46,1557,1324.47,1554.88,1320.56,1555ZM925.15,868.13v.16h12v-.16Zm-89.85,794-.94-.4q-1.73,4.57-3.47,9.15a2.18,2.18,0,0,0,1.52-1.33C833.4,1667.11,834.34,1664.63,835.3,1662.15ZM716.11,1555c-4.27.32-5.48.87-8.54,3.54Zm242.5-608.16V947h9.68v-.11Zm381.68,562.39c-2.14,0-4.28-.57-6.93.5C1336.3,1511.39,1338.3,1509.79,1340.29,1509.25Zm-8.88,22.71c-1.33-2.36-3-4.4-5.82-5.17ZM696,1509.37c2.33.11,4.53,2.25,7.77,0Zm506.59,152.73-.91.55c.88,2.5,1.73,5,3.75,7Q1204,1665.86,1202.63,1662.1ZM1086.58,847.25v.25h10.27v-.25Zm231.87,710c-1.61-.76-2.74-.27-3.69,1.16C1317.6,1560.08,1317.6,1560.08,1318.45,1557.2ZM838,1688c-.27.34-.55.67-.83,1,.85,1.7,2.71,2.21,5,2.26Zm362,1.4-.82-1.45a6.38,6.38,0,0,0-3.61,4ZM722.32,1558.59c-1.43-1.82-2.64-2.42-4.25-.9C719.61,1559.61,719.61,1559.61,722.32,1558.59ZM1234,1640.44c-1.43-1.63-1.57-1.75-2-1.21a7,7,0,0,0-.84,2,21.44,21.44,0,0,0,2.27-.14C1233.62,1641.06,1233.8,1640.67,1234,1640.44Zm-427.72,1.38c-2.07-3.2-2.07-3.2-3.6-.88Zm149.89,89,.05-.69a14.75,14.75,0,0,0-1.74-.21c-.61,0-1.23.07-1.85.11l.06.79Zm211.51-44c-.5,1-1,1.51-1,2s.62,1,1,1.44c.38-.47,1-.9,1.08-1.4S1168.25,1687.85,1167.68,1686.84Zm-231.62,32.89-.7-.29-1.82,4.31.66.27Zm147.72,11.06c.09-.36.21-.55.15-.65a.52.52,0,0,0-.41-.22c-1,.1-2,.22-3,.34.54.69,1,.89,1.44.87A12.81,12.81,0,0,0,1083.78,1730.79Zm-215.27-40.64c1.23-1.88,1.23-1.88-.28-3C868.34,1688.34,868.42,1689.25,868.51,1690.15Zm-74.86-59.72-.66-.65-1.79,1.73,1,1Zm147.14-684.6,0,.1h2.89v-.1ZM654.33,942c-.59.31-.8.35-.87.47-.5.83-1,1.67-1.43,2.53,0,0,.21.2.33.31.58-.75,1.17-1.49,1.74-2.24A5.09,5.09,0,0,0,654.33,942Zm447,777.59a9.87,9.87,0,0,0,.23,2.22,4.6,4.6,0,0,0,.88,1.06l.49-.46C1102.56,1721.69,1102.16,1721,1101.35,1719.57ZM1085.05,687l.39-.42-1.62-1.52-.42.45ZM914.78,869.3v-.07h-2.25v.07Zm32.62,860.39.11-.6-2.25-.33-.07.34Zm298.44-98a11.59,11.59,0,0,0-1.54-1.36c-.14-.09-.55.24-.83.37a8.73,8.73,0,0,0,.83,1.61A6.58,6.58,0,0,0,1245.84,1631.71Z"/><path class="cls-2" d="M976.45,623.21c-2-3.2-3.08-5.87-2.56-9.15C976.9,615.79,977.94,619,976.45,623.21Z"/><path class="cls-2" d="M1110.6,1652.34a26.29,26.29,0,0,1,3.67.37c6,1.2,6.16,1.35,6.89,7.54.65,5.47,1.27,11,1.63,16.44.49,7.26-1.54,11-10.21,13.82a25.78,25.78,0,0,1-8.14.94c-3.82,0-6.83-1.53-8.7-5.28-2.46-4.92-5.39-9.6-8-14.43a9.75,9.75,0,0,1,3.23-13.38C1097.4,1654,1102,1652.49,1110.6,1652.34Zm2.8,24.82a170.55,170.55,0,0,0-3.86-21.57c-4.38-.42-4.38-.42-9.39,1.38q3.51,10.11,7,20.19Zm-12.67,5,4-3.38c-2.43-7-4.83-13.91-7.42-21.39l-6.67,4.57Zm13.47-2.11v0h-2.06c-3.66-.08-6.61,1.54-9.33,3.78-1.16,1-1.9,2-1.43,3.56s1.75,1.48,3,1.48c2.06,0,4.13,0,6.17-.17,3.24-.34,5.69-2.33,8-4.42a3.07,3.07,0,0,0,.7-2.73c-.28-.7-1.51-1.15-2.42-1.41A9.1,9.1,0,0,0,1114.2,1680Zm-1.7-25.07c1,5.8,1.89,10.65,2.78,15.49a34.67,34.67,0,0,0,1.29,5.48c.24.65,1.39,1,2.61,1.73,1-7.54-.61-14.22-1.1-21Zm-22.7,11.69-1.14.49a34.07,34.07,0,0,0,6.95,11.14Z"/><path class="cls-2" d="M914.3,1674.66c.38-4.86.84-10.34,1.23-15.83.23-3.16,1.59-5.17,4.93-5.54,2.21-.24,4.4-.93,6.6-.89,7.37.12,14.24,1.84,20.09,6.72,2.65,2.2,4.55,7.55,3,10.6-3.35,6.39-7,12.66-10.62,18.89a5.8,5.8,0,0,1-2.9,1.9c-6.38,2.49-15.42.42-20.09-4.45a7.29,7.29,0,0,1-2.18-5.09C914.27,1679.08,914.3,1677.19,914.3,1674.66Zm8.85,1.89c2.34,1.18,4.31.94,6.64.52l6.84-20.25c-5.21-1.65-5.21-1.65-9.23-1.13C925.31,1662.26,924.76,1669.27,923.15,1676.55Zm16.35-19.23c-2.25,6.63-4.34,12.6-6.32,18.61-1.16,3.53-1,3.76,3.44,5.3,3.16-6.37,6.33-12.79,9.63-19.43ZM936,1688c-.43-4.46-3.63-5.85-6.51-7a16.74,16.74,0,0,0-12.58,0c1.21,4,4,5.73,7,6.87A18.48,18.48,0,0,0,936,1688Zm-17-31.47c-1.34,6.81-1.35,13.62-1.94,20.35,2.08.62,3.19.22,3.53-1.55,1.07-5.75,2.16-11.5,3.16-17.26a10.83,10.83,0,0,0-.32-2.72Zm23.13,20.87c3.64-4.31,4.63-6.33,4.93-10A48.81,48.81,0,0,0,942.07,1677.44Z"/><path class="cls-2" d="M1007,1660.58l-9.23,28.1c-5.73,2.65-11.24,2.32-16.68,1.32-3.75-.69-7.23-5-7.72-8.75-.62-4.79-1.27-9.56-1.82-14.35-.42-3.62-.57-7.17,1.08-10.66a5.84,5.84,0,0,1,4.06-3.53c7-1.81,14-1,21,.1a6.56,6.56,0,0,1,3.18,1.58C1002.87,1656.23,1004.71,1658.27,1007,1660.58Zm-19.56-6.41c.39,7.93-1.55,14.81-.9,21.88l6.17,1c1.74-7.25,3.59-14.15,4.58-21.53Zm-3.87,21.61c.15-3.87.24-7.27.44-10.67s1.48-7,0-11l-7.1,1.56c-.13,7.32-.23,14.26,1.52,21.37Zm1.65,3.25a15.7,15.7,0,0,0-3.07,0c-2,.39-4.28.31-5,2.83-.47,1.6,1.11,3.82,3.52,5.16a4.28,4.28,0,0,0,.91.45c4,1,8.05,1.53,12.08.1,2.52-.9,3.08-3.18,1.37-5.24C992.42,1679.26,988.86,1679,985.2,1679Zm14.77-21.42c-1.5,6.8-2.93,13.11-4.26,19.43-.25,1.19,0,2.42,2.11,2.72,1.81-5.62,3.72-11.25,5.42-17C1004,1660.37,1002.17,1659.17,1000,1657.61Z"/><path class="cls-2" d="M1048.83,1690.79c-1.22-.12-2.93-.29-4.64-.43-3.46-.28-5.51-2-6.53-5.43-2-6.91-4.29-13.76-6.68-20.57-1-2.84-.35-4.76,1.68-6.89a17.07,17.07,0,0,1,10.69-5.26,55.81,55.81,0,0,1,15.82.35,5.7,5.7,0,0,1,5.22,4.17,16.19,16.19,0,0,1,1,8.51c-.84,4.72-1,9.56-1.52,14.33-.76,6.69-4.32,10.19-10.91,10.85Zm.94-14.81a62.2,62.2,0,0,0-1.48-21.69l-8.94,1.36c.84,3.95,1.42,7.49,2.37,10.92s.75,7.45,3.21,10.58Zm8.54,1c1.3-4.45,2.11-17.63,1.4-21.52l-6.34-1.13c-1.36,4.32-.81,19.2.83,21.7Zm-17.8,7c.4,4.5,4.43,4.2,7,4.35,4.73.28,9.72-.12,12.53-5-.11-2.35-1.3-3.75-3.42-3.94a49,49,0,0,0-8.72-.24C1044.76,1679.5,1042,1680.86,1040.51,1684Zm-1.2-4c2.09-1.38,1.54-3,1.43-4.46-.45-5.42-3.14-15.1-4.91-17.54l-2.84,3.39C1035.13,1667.74,1036.78,1673.93,1039.31,1680Z"/><path class="cls-2" d="M949.5,1531.06c-.63-4.56.62-8.82,2-13.1.58-1.81,1.76-2.55,3.35-3.48,7.61-4.38,14.9-2,22.23.58a3.87,3.87,0,0,1,1.89,1.64q2.41,4.24,4.57,8.65a3.92,3.92,0,0,1,.36,2.48c-.93,3.48-1.53,7.17-3.19,10.29a32.71,32.71,0,0,1-7.2,9.33,14.08,14.08,0,0,1-11.59,3.09,25.77,25.77,0,0,1-5.92-1.65,6.85,6.85,0,0,1-3-2.58c-2.23-3.71-4-7.62-3.56-12.14C949.58,1533.14,949.5,1532.1,949.5,1531.06ZM963.4,1548c3.14-.07,6.07-.3,7.71-2.77,3.09-4.63.51-12.34-4.93-13.22-.84-.14-1.66-.42-2.49-.6a9.09,9.09,0,0,0-8.93,2.55c-2.14,2.46-2.06,5.79-.4,9.15C956.43,1547.27,960,1547.56,963.4,1548Zm6.36-17.54c1.83-4.71,4.64-8.45,5.11-13.7-3.17.08-5.55-2.12-8.88-1.42-.58,4.37-2.31,8.49-2.09,13.22Zm-14.46-.89c2.57-.17,4.85-.14,5.47-2.66.92-3.74,1.54-7.56,2.45-12.17l-7.92,2.49Zm19.74,6.63c1.26-1.82,2.45-3.43,3.52-5.11,3-4.66,2.91-5.38-1.26-10.53-1.51,3.43-3.06,6.59-4.29,9.88C972.23,1532.5,973.09,1534.35,975,1536.18Z"/><path class="cls-2" d="M1087.73,1529.76c-.23,6.26-.71,11.57-3.75,16.24a6.44,6.44,0,0,1-1.89,2.34c-6.85,3.63-16.64,3.07-21.42-3.7-3-4.26-5.91-8.37-7.07-13.59-.64-2.83-.76-5.41.69-8a30.54,30.54,0,0,0,1.87-3.7,8.08,8.08,0,0,1,6.48-5.27,5.71,5.71,0,0,0,1.5-.39c6.12-3,12-1.66,17.89.8,1.58.65,2.74,1.41,3.18,3C1086.38,1521.83,1088.27,1526,1087.73,1529.76Zm-15,18.41c1.49-.29,2.86-.45,4.17-.81a8.78,8.78,0,0,0,5.93-12.38,4.34,4.34,0,0,0-1.55-2c-5.59-3.12-14.47-2.55-16.8,5.59a7,7,0,0,0,4.36,8.55C1070.1,1547.59,1071.44,1547.85,1072.7,1548.17Zm-2.26-33.41c-3.32.89-6.2,1.18-8.84,3.42,2.08,4,3.05,8.3,5.85,12.15l5.33-1.81C1073.08,1523.64,1071.69,1519.45,1070.44,1514.76Zm3.23-.06c.72,3.92,1.23,6.8,1.78,9.67.82,4.31.92,4.39,6.31,5.32v-12.4Zm-18.13,11.89c2.1,3.46,3.89,6.7,6.68,9.71l2.36-4.43-5.38-12.15Z"/><path class="cls-2" d="M1232.56,1541.06a80.09,80.09,0,0,1,2-9.21c.74-2.22,2.28-4.17,3.44-6.26,3.31-5.9,8.25-9.51,15.62-10.54a25.92,25.92,0,0,1,9.59,7.37c2.71,3.58,5.57,7,8.47,10.46a7.66,7.66,0,0,1,1.8,7.06,22,22,0,0,1-6.45,11.55,10.09,10.09,0,0,1-10,2.72C1252.94,1553.1,1236.56,1544.26,1232.56,1541.06Zm5.54-11.23c5.46,3.64,10.31,6.88,15.17,10.1.7.46,1.48.79,2.52,1.33q1.83-2.62,3.4-4.86c-4.34-5.28-11.53-11.78-15.44-13.91Zm18.43,18.58c0,3,1.39,4.06,4.27,3.32,4.8-1.24,9.67-7.43,9.92-12.6.14-3-1.54-4.14-4.56-3.57C1261.58,1536.42,1256.12,1544.33,1256.53,1548.41Zm-20.87-8.41c3.4,1.75,6.08,3.26,8.87,4.52s5.47,3.35,8.94,3.89c.57-2.14,1.49-4.12-.44-5.45-5-3.48-9.88-7.26-15.94-10C1236.58,1535.46,1236.15,1537.58,1235.66,1540Zm11.2-19.6c4.76,4.4,9,8.2,13.05,12.1,1.84,1.75,3.49,1.54,5.69-.1L1253.1,1518a32.33,32.33,0,0,0-3.39.79A23.23,23.23,0,0,0,1246.86,1520.4Z"/><path class="cls-2" d="M860.84,1633.34c-8.09.11-16.6-6.22-17.37-11.94a12.25,12.25,0,0,1-.08-4.55c1.46-5.65,3.09-11.25,4.79-16.83.85-2.76,6-6,9.66-5.54,5.51.75,11.33,1.23,14.84,6.7a14.92,14.92,0,0,0,3,3.5c3.06,2.52,3.49,6.23,4.41,9.64.29,1-.51,2.7-1.32,3.64-3.47,4-7.1,7.94-10.73,11.84A11.8,11.8,0,0,1,860.84,1633.34Zm-14.37-13.61a9.82,9.82,0,0,0,0,2c.86,4.24,8.67,10,14.76,8.87a2.79,2.79,0,0,0,1.7-4.75,23.48,23.48,0,0,0-6.84-6.07C853.25,1618.36,849.78,1616.78,846.47,1619.73Zm17.31,2.06c.91-1,1.42-1.44,1.84-2,1.9-2.43,3.8-4.86,5.66-7.32,3.56-4.75,3.56-4.77-.31-9a29.79,29.79,0,0,0-2.53-2.16L860.37,1616a2.49,2.49,0,0,0,.47,3.27C861.67,1620.11,862.61,1620.81,863.78,1621.79Zm-12.17-6.38c5.21,1.26,5.22,1.26,7.12-2.18,1.74-3.14,3.49-6.27,5.18-9.44.7-1.31,1.24-2.71,2.11-4.62l-7.79-2.26c-2,5.41-3.89,10.35-5.71,15.3C852.18,1613.13,852,1614.1,851.61,1615.41Zm14.9,12.24c3.71-4.1,6.87-7.43,9.85-10.92,1.39-1.63.93-3.44-.42-5.68a108.76,108.76,0,0,0-9.62,12.91C865.92,1624.59,866.38,1625.76,866.51,1627.65Zm-20.29-11.26c3.66-2.6,3.8-5.86,4.87-8.55,1.15-2.87,2.64-5.71,3.13-10-1.7,1.51-3,2.1-3.3,3C849.31,1605.62,848,1610.51,846.22,1616.39Z"/><path class="cls-2" d="M1017.26,1631.31a56.73,56.73,0,0,1-6.85-1.68,6,6,0,0,1-2.92-2.7,37.29,37.29,0,0,1-2.83-6.59c-.84-2.6-1.1-5.42-2.1-7.94-2.11-5.32-.64-10,1.73-14.77a5.14,5.14,0,0,1,3.83-3.06,38.49,38.49,0,0,0,5-1.13,18.34,18.34,0,0,1,10.61,0c8,2,8,1.86,11,9.48a8,8,0,0,1,.42,5.47c-1.28,4.45-2.18,9-3.47,13.45C1029.73,1628.59,1025.79,1631.31,1017.26,1631.31Zm-8.74-8.9c.67,3.45,2.76,5.16,6.21,5.9a18.29,18.29,0,0,0,9.61-.68,6,6,0,0,0,3.89-5c.09-1.8-1.62-4.73-3.45-5.34a24.57,24.57,0,0,0-6-1.35C1013.5,1615.61,1010.54,1617.59,1008.52,1622.41Zm8.08-8.76v-17.83c-3.1.19-5.94.24-8.58,2.35,1,5.23,1.24,10.66,3.12,16.15Zm3.7-18.12c0,5.72-.08,10.52,0,15.32.06,2.57.48,2.91,3,3.28a11.72,11.72,0,0,0,2.61-.2c1.15-5.57,2.58-10.83,2.23-16.71Zm11,7.29c-1,4.59-2.67,9.06-1.75,13.81C1031.11,1612.13,1033.8,1607.79,1031.3,1602.82Zm-25.38.11c-3.19,2.37-1.45,4.92-.9,7.16s.54,4.87,2.84,7.72c-.16-2.93-.14-4.82-.4-6.66C1007.07,1608.49,1006.48,1605.87,1005.92,1602.93Z"/><path class="cls-2" d="M777.84,1554.76c-3.48-1-7.06-1.39-9.44-4.72s-4.54-6.43-5.11-10.51c-.33-2.33-.15-4.31,1.51-6.22,3.38-3.9,6.33-8.19,9.85-12,2.19-2.34,5.07-4,7.68-6a1.88,1.88,0,0,1,1.44-.4c3.88,1.6,8.48,1.74,11.3,5.49a46.66,46.66,0,0,0,3.43,4.52c3.73,3.84,4.33,8.85,5.39,13.7a3.71,3.71,0,0,1-1.66,4,36.3,36.3,0,0,1-5.15,3.43c-5.4,2.63-10.88,5.09-16.35,7.59A29.84,29.84,0,0,1,777.84,1554.76Zm14.72-32.94-15.29,14.12,3.85,5.56c6.08-3.94,11.79-7.54,17.47-11.8Zm-12,26.9a22.26,22.26,0,0,0-.92-3.8c-1.9-4.36-4.48-8.13-9.44-9.44-2.85-.76-4.66,1-4.25,3.89.63,4.54,3.28,7.9,6.58,10.72a10.42,10.42,0,0,0,4.7,1.84A3,3,0,0,0,780.59,1548.72Zm18.87-16.25-17.23,11.41c.55,1.73,1,3.11,1.53,4.79,6.12-2.89,11.92-5.62,17.58-8.87Zm-24.54,1.8c5.08-4.55,10.13-8.86,14.82-13.73-5.22-3.16-5.57-3.14-8.89.65q-4.43,5-8.77,10.15a5.64,5.64,0,0,0-.57,1.6Z"/><path class="cls-2" d="M919.38,1616.18c.45-5.71.9-11,1.28-16.33a5.12,5.12,0,0,1,4.21-5.13,4.1,4.1,0,0,0,.5-.14c4.77-1.8,9.54-2.44,14.37-.12a10,10,0,0,0,3.44,1,5.37,5.37,0,0,1,4.19,2.63,24.82,24.82,0,0,0,2.1,2.94c5,5.35,3.6,11,.71,16.6-1.66,3.2-3.78,6.16-5.49,9.34a7.68,7.68,0,0,1-5.13,3.85,25,25,0,0,1-9.2.5c-4.52-.38-7.61-2.92-10-6.49a7.41,7.41,0,0,1-1-3.37C919.27,1619.59,919.38,1617.68,919.38,1616.18Zm3.15,2.19c-1.22,3.82.55,6.05,2.84,8.1,2.76,2.47,6.26,2.59,9.62,2.89a8.11,8.11,0,0,0,3.9-1.19,3.92,3.92,0,0,0,1.48-5.71c-1.7-2.4-3.63-4.44-6.8-5.12C929.73,1616.51,926.11,1616.51,922.53,1618.37Zm11.18-22.07c-1,5.8-3.09,11.39-3.23,17.56l5.95,1.57c2.15-5.75,4.59-11,6.1-16.66C939.76,1597,937.2,1595.91,933.71,1596.3Zm-9,1.44a33.38,33.38,0,0,0-1,17c1.59-.48,3.5-.32,3.95-2.57,1-5.16,2-10.33,3-15.64C928.05,1595.79,926.44,1597.37,924.7,1597.74Zm20.75,2.27c-2.11,5.39-4,9.79-5.53,14.27-.87,2.45-.22,3.29,3,4.93l6.75-12.89Z"/><path class="cls-2" d="M1117.71,1621.69c0,2.18-3.31,7.43-7.39,8.55a34.21,34.21,0,0,1-9.12,1.22c-4.33,0-8-1.53-9.91-6-1.11-2.5-3-4.64-4.23-7.09a28.46,28.46,0,0,1-2.56-6.67,11.87,11.87,0,0,1,2.23-10.15c2.76-3.82,5.61-6.81,10.53-7.18a7.52,7.52,0,0,0,2-.67,13.86,13.86,0,0,1,10,.08c6.43,2.21,6.61,2.05,7.28,8.76C1117,1608.24,1117.22,1613.92,1117.71,1621.69Zm-21.16,5.65c3.44,2.77,7.29,2.12,11.12,1.17,4.9-1.21,7-4.53,6.34-10.08-3.71-2.33-7.67-2-11.7-.72C1097.62,1619.17,1095.73,1622.29,1096.55,1627.34Zm3.89-11.71,6.16-2c-1.29-6.06-1.7-12-3.91-17.64-3.31.53-6.15.8-8.7,2.78C1096.11,1604.29,1098.17,1609.69,1100.44,1615.63Zm6-19.67a109.7,109.7,0,0,0,3.39,17.91L1114,1615c.66-6-.91-11.42-1-17.09Zm-12.12,23.89c3.55-3,3.58-3,2.47-6q-2-5.29-4-10.53a21.8,21.8,0,0,0-1.59-2.75c-1.06,1.51-2.08,2.52-2.54,3.74s-.88,2.82-.41,3.84C1090,1612.08,1092.17,1615.89,1094.27,1619.85Z"/><path class="cls-2" d="M884.8,1531.56c-.15,2.11-.19,3.32-.33,4.52a6.64,6.64,0,0,1-3.35,5.44c-5.19,3-10.32,6.18-15.41,9.39-2.92,1.84-5.77,1.36-8.85.43a12.82,12.82,0,0,1-7.26-5.27c-3.1-4.43-3.22-9.12-1.77-13.8a99.32,99.32,0,0,1,5.64-13.3,9.36,9.36,0,0,1,3.23-3.14,41.08,41.08,0,0,1,3.73-1.75c3.11-1.69,6.09-1.38,9.42-.34,5.16,1.62,9.19,4.11,11.71,9.17C883.1,1526,885.38,1528.7,884.8,1531.56Zm-18.39,15.74c1.3-3.93.25-7.37-2.1-10.62-2.65-3.67-9.12-5.11-12.88-2.69a4.18,4.18,0,0,0-1.61,1.88c-1.16,3.34,1.83,10.46,5.19,12C858.82,1549.56,862.76,1550.72,866.41,1547.3Zm-1.07-14,3.65,5.32c2.38-2,4.39-3.6,6.31-5.3s4-3.67,6.12-5.65c-1.76-2.6-3.27-4.83-5.17-7.62Zm-7.67-3.8c2.39,1.4,4.54,2.9,6.44.85a87.88,87.88,0,0,0,9.75-12.29l-8.19-2.68C862.93,1520.27,860.43,1524.69,857.67,1529.55ZM871,1545.11c2.64-1.73,5.07-3.25,7.44-4.87,3.45-2.35,3.58-2.93,2-7.8l-8.61,7.37C870.37,1541,869.61,1542.42,871,1545.11Zm-9.7-27.34-.84-.83c-1.4.84-3.42,1.36-4.08,2.6-1.78,3.3-3.68,6.67-4.46,10.76,1-.21,1.73-.15,1.91-.44C856.38,1525.86,858.84,1521.81,861.31,1517.77Z"/><path class="cls-2" d="M1193.6,1618.47c-.24,3.8-1.25,7-4.38,9.54-2.87,2.32-5.68,4.2-9.41,5-4.12.84-7.64.06-10.48-2.76-4-4-7.81-8.26-11.55-12.53a4,4,0,0,1-1-3.26c1.18-3.16,1.5-6.72,4.08-9.29a14.84,14.84,0,0,0,2.32-2.76c3-5.07,8.07-6.55,13.29-7.78,4.09-1,7.38,1,10.6,3a3.84,3.84,0,0,1,1.32,2.07q2.5,8.13,4.86,16.32A15.39,15.39,0,0,1,1193.6,1618.47Zm-20.77,10.6c3.36,3.37,7.14,1.59,10.12.26,3.81-1.71,7.29-4.51,7.66-9.45-3.3-3-6.78-1.48-9.71-.18C1177,1621.43,1173.62,1624.23,1172.83,1629.07Zm-10.69-21.13,10.73,14.16c2-1.49,3.75-2.56,4.47-4.62-3.32-5.32-5.48-11.1-9.51-16.37Zm23.48,7.71c-2.54-6.62-4.31-12.82-7.42-18.81l-7.7,2.42,9.11,16.78c1.23.09,2.24.22,3.25.2A17.79,17.79,0,0,0,1185.62,1615.65Zm-15.38,11.87c.38-1.71,1-2.78.67-3.23a132.85,132.85,0,0,0-9.61-12.74c-2.13,3.53-2.21,3.6-.4,5.67C1163.72,1620.46,1166.67,1623.6,1170.24,1627.52Zm19.4-11.88c-.09-2.59-2.81-13.24-3.85-15.14-.71-1.28-1.78-1.73-3.76-2.06,2.41,6,4.55,11.43,6.73,16.8C1188.85,1615.46,1189.34,1615.51,1189.64,1615.64Z"/><path class="cls-2" d="M1152.47,1532.48c-.81-6.59,3.86-10.7,7-15.52,5.62-2.2,10.8-5.89,17.52-2.73,3.88,1.82,6.63,4,8,8.06a29.76,29.76,0,0,0,2.42,5.69c2.08,3.62,2.25,7.5,2.14,11.5a14.61,14.61,0,0,1-1.74,5.81c-2.39,5.2-7.32,5.81-11.89,7.08a4.73,4.73,0,0,1-2.92-.71c-3.07-1.52-6.13-3.08-9.1-4.79-2.53-1.46-4.84-3.32-7.41-4.69a6.83,6.83,0,0,1-4-7.13C1152.52,1534.2,1152.47,1533.33,1152.47,1532.48Zm33.87,2.16c-4.18-3.25-8.47-2.36-11.81,0A11,11,0,0,0,1170,1547c3.87,4,8.49,3.09,12.15.55A10.59,10.59,0,0,0,1186.34,1534.64Zm-18.45,4.08,3.46-5.15c-1.76-2.26-3.34-4.47-5.11-6.51s-3.21-4.74-6-6.59l-4.47,7.09a42.2,42.2,0,0,0,3,3.29C1161.66,1533.43,1164.64,1535.93,1167.89,1538.72Zm11.35-9a140.37,140.37,0,0,0-8.39-14.3c-2.8,1-5.46,1.17-7.32,3.27a7.66,7.66,0,0,0,.73,1.49c2.26,2.82,4.5,5.66,6.84,8.4C1173.88,1531.87,1174,1531.84,1179.24,1529.76Zm-12.12,15.73c-.31-1.69-.25-3-.78-3.87-1.43-2.48-8.3-7.82-11-8.8v5.27C1159,1540.56,1162.43,1543.4,1167.12,1545.49Zm8.92-27.89c4,9.23,5.76,11.64,9.33,12.75-1.61-3.68-3-7.1-4.6-10.44C1180,1518.26,1178.48,1517.49,1176,1517.6Z"/></svg>