<svg id="Layer_1" data-name="Layer 1" xmlns="http://www.w3.org/2000/svg" viewBox="0 0 2000 2000"><defs><style>.cls-1{fill:#fff;}</style></defs><path class="cls-1" d="M1333.83,1468.05l-3.18,7.31c4.13,3.81,7.95,8.05,12.47,11.32,5.52,4,5.84,9,3.75,14.46-2.42,6.31-5.63,12.3-11.46,16.21-2,1.35-4.51,2-6.77,3a19.18,19.18,0,0,0-3.82,1.82,8.69,8.69,0,0,1-9.68.89c-3.26-1.53-6.7-2.68-10.54-4.19-9.5,15.72-23,28.12-34.14,42.74,2.93,5,5.82,10.06,8.75,15.06,3.22,5.5,3.19,9.81-1.11,14.39a71.33,71.33,0,0,1-11.88,10.36c-4.11,2.76-9,4.31-13.71.85-1.82-1.32-3.25-.87-5,.09-2.86,1.57-5.83,2.92-8.77,4.32-3.54,1.7-6.66,1-9.44-1.7a30.21,30.21,0,0,0-2.68-2.1l-25.31,20.1c1.9,5.2,3.76,10.88,6.06,16.38s1.12,9.9-3.15,13.73c-6.5,5.82-14.23,9.36-22.49,11.71-4.89,1.39-6,.73-11.46-3.53-5.68,2-10.88,4-16.19,5.67-5.09,1.56-9.18-.36-12.58-4.3-1.46-1.7-3.37-4.33-5-4.29-3.68.09-7.32,1.57-11,2.53-.31.08-.49.59-.8.72-5.9,2.47-6.9,7.06-5.89,12.79a80.79,80.79,0,0,1,1,10.32c.29,6.06-1.59,9.37-7.21,11.43a108.72,108.72,0,0,1-15.16,4.3,13.29,13.29,0,0,1-10.86-2.14c-4.44,1.35-8.41,2.45-12.3,3.81-1.44.51-2.63,1.72-4,2.45-3.17,1.66-6.24,3.83-9.63,4.71-5.76,1.51-11.66,2.55-17.77,1.35-3.61-.7-5.8-2.19-7-5.82-2.37-7.44-5.13-14.75-7.82-22.38h-5.78c-1.15,6-2.85,11.93-3.34,18-.57,7.09-4.43,10.47-10.79,11.58-6.84,1.2-13.69,1.53-20.35-1.27a8.89,8.89,0,0,1-5.88-7.19c-1.19-7-2.61-13.9-4-21.1H972.2c-2.37,6.59-5.21,13.12-7,19.91-1.51,5.73-4.88,8.44-10.34,8.61-7.29.24-15.05.34-21-4s-13-6-19.52-9.07a15.19,15.19,0,0,1-13.44,2.13c-4.18-1.19-8.44-2.18-12.52-3.65-6.25-2.25-8-4.85-7.7-11.48.29-6.89.91-13.77,1.43-21.37-1.31.82-2.13,1.28-2.89,1.83a14.75,14.75,0,0,1-10.76,2.82,29.58,29.58,0,0,1-13.28-4.48,52.39,52.39,0,0,0-5.53-3.49c-3.48-1.76-6.13-1.36-8.49,1.72-3.71,4.85-8.47,5.2-13.69,3.64-3.63-1.08-7.1-2.59-11-1.36a6.17,6.17,0,0,1-3.19-.46,40.18,40.18,0,0,1-19.9-12.51c-2.22-2.63-2.43-5.41-1.13-8.63,2.24-5.56,4.18-11.24,6.22-16.87a24.91,24.91,0,0,0,.68-2.5c-9.52-7.71-18.63-15.15-27.83-22.51-3-2.42-10.2-2.36-12.88.58-5.28,5.81-10.57,5-17.06,2-6.9-3.19-13.18-6.86-18.07-12.69a41,41,0,0,1-2.92-3.91,8.5,8.5,0,0,1,0-10.13c3.21-5,6-10.33,9.08-15.73-6.62-7.78-13.09-15.39-19.56-23-1.18-1.39-2.39-2.75-3.55-4.15-3.08-3.76-6-7.43-10.83-9.51-3.33-1.44-6-4.34-9.7-7.11-2.82,1-6.63,2.19-10.24,3.82-4.81,2.16-9,1.67-13.45-3.74a76.84,76.84,0,0,1-8.19-12.84c-3-5.67-1.8-10.68,3-15,4.43-4,8.77-8.14,13.41-12.46-1.57-3.59-3.07-7-4.68-10.7-11,0-21.7-.14-32.41,0-6.14.11-11.89-.79-17.22-4a15.39,15.39,0,0,0-4.06-1.53c-6.87-1.77-9.63-5.1-9.64-12.29q-.13-71.52-.19-143,0-9-.31-18c-.05-1.39-.18-3.17-1-4.06-2.39-2.54-2.54-5.51-2.53-8.63,0-7.46.05-14.93,0-22.39,0-4.45,1.35-7.89,6.14-8.92,5.48-1.19,10.94-2.65,16.49-3.3,9.38-1.09,18.83-1.63,28.24-2.42a19.75,19.75,0,0,0,2-.45c.14-1.48.37-3,.42-4.62.81-31.29,1.43-62.58,2.46-93.87,1-31.46,2.51-62.9,3.74-94.36.93-24,1.57-48,2.73-72,.68-14.16,1.92-28.3,3.28-42.42,1.69-17.55,3.87-35.06,5.59-52.61.69-7.06,4-13.16,6.12-19.7,4.3-13.28,11.24-25.25,18.82-36.76,4.06-6.15,9.6-11.38,14.74-16.76,6.66-7,13.54-13.71,20.44-20.44a10.35,10.35,0,0,0,3.18-6c2.08-12,4-24,6.82-35.85,4.21-17.9,10.86-35,18.28-51.82a372.85,372.85,0,0,1,49.26-81.42c15.87-20,33.93-38,55-52.65a149.13,149.13,0,0,1,38.44-19,7.89,7.89,0,0,0,3.87-2.4,22,22,0,0,1,15.42-9.23c.87-.13,1.71-.36,2.85-.59,0-1.26,0-2.33,0-3.4q.32-68.78.69-137.57c0-7.09.34-14.19,1-21.25a51.11,51.11,0,0,1,2.73-11c3.42-10.32,6.91-20.62,10.62-30.84,3-8.35,6.24-16.65,9.72-24.83A39,39,0,0,1,960,279.65c3.71-2.74,8.24-4.56,12.65-6.11,16.73-5.91,33.81-5.66,51.07-2.64a157.8,157.8,0,0,1,23.15,5.92c8.1,2.73,13.63,8.37,17.68,15.33,5.69,9.76,7.32,20.84,8.22,31.9.54,6.7.19,13.46.19,20.2V650.32c2.86.33,5.34.69,7.83.88q9,.66,18,1.16a13.13,13.13,0,0,1,9.13,4.25c6.15,6.46,12.32,12.9,18.64,19.18a14.92,14.92,0,0,1,4.58,11.24c0,15.28,0,30.57,0,45.86q-.06,14.73-.33,29.48c-.09,6-.87,7.46-6.56,9.09-6.06,1.73-12.33,2.7-19.14,4.13,0,.56-.14,1.86-.25,3.32,4.47.7,8.64,1.05,12.64,2.09a32.14,32.14,0,0,1,7.76,3.66c2.72,1.58,3.83,4.07,3.77,7.33-.11,6.91.11,13.83.12,20.74,0,39.31.14,78.62,0,117.93a89.5,89.5,0,0,0,4.84,30.5,17.69,17.69,0,0,0,4.48,7.27,329.37,329.37,0,0,0,33,27.74c24.41,17.84,47,37.94,70,57.42,4.14,3.5,7.63,7.81,11.12,12q16.59,19.92,32.92,40.05a68.49,68.49,0,0,1,5.67,8c8.42,14,17.12,27.9,25,42.25,4.93,9.06,8.51,18.86,12.68,28.33.73,1.66,1.31,3.4,2.14,5,7,13.56,10.52,28.16,13,43.1.77,4.76,1,4.85,5.89,5.26,9.6.79,19.23,1.33,28.79,2.44,6.44.75,13,1.16,19.08,4,3,1.37,4.27,3.18,4.28,6.19,0,9.28.05,18.56,0,27.84,0,1.2-.25,2.88-1,3.52-2.77,2.21-2.31,5.15-2.32,8q-.06,74.81-.09,149.6c0,4.37.05,8.74-.14,13.1a11.18,11.18,0,0,1-8.64,10.54,28,28,0,0,1-5.9.87c-4.18.16-8.37.16-12.55.14a33,33,0,0,0-11.55,2.31c-4.82,1.74-10.25,2-15.45,2.44C1340.91,1468.85,1337.62,1468.27,1333.83,1468.05Zm-573-416.64c2-1.54,3.42-2.57,4.77-3.68,18.54-15.25,36.88-30.75,55.67-45.69,13.66-10.86,27.85-21.07,40.3-33.39,1.29-1.27,3.13-2.48,3.56-4,2.24-8,5.86-15.69,5.86-24.27,0-24.57,0-49.14,0-73.71,0-1.18-.18-2.36-.33-4.16-1.91,1.12-3.28,1.91-4.64,2.72-5,3-9.88,6.11-15,8.88-10.49,5.72-21.88,8.86-33.63,10.36-14.6,1.86-28.7.66-40.74-9.24a12.21,12.21,0,0,0-2.6-1.05c-.92,3.68-2.1,6.92-2.5,10.25-1.47,12.27-2.7,24.58-4,36.88-1.23,11.76-2.9,23.49-3.52,35.28-1.38,26.17-2.25,52.36-3.26,78.54C760.66,1040.18,760.82,1045.28,760.82,1051.41ZM792.2,841.09c5.46,1,10.19-.6,14.76-2.17a104.54,104.54,0,0,0,29-16c17.26-13,31.64-28.93,44.79-46a27.61,27.61,0,0,0,1.71-2.81c-4.59-2.76-11.17-2.1-13.11-8.53C850.85,778.28,795,832.69,792.2,841.09ZM906.15,573.61c-12.81,2.95-39.39,21.39-44,28.61l1.3,1.66c5.45,7.22,5.51,10.58.34,17.86-.13.19,0,.59.08,1.62,7.16-3.8,15.39-4.7,20.76-11.44a72.82,72.82,0,0,1,8-8.21,43.3,43.3,0,0,1,7.65-6c7.38-4.18,15-8,22.72-12.16.11-2,.22-4.1.31-5.61Zm-103,143.16.89.81c8.57-7.58,16.9-15.46,25.79-22.64,6.52-5.26,9.86-11.46,10.87-19.8,1.5-12.4,3.3-24.88,10-35.91.21-.34.07-.88.12-2C831.13,662.05,815.11,688.22,803.1,716.77Z"/><path d="M1341.16,1240.42c6.45.52,12.25.9,18,1.49,10.11,1,20.21,2.22,30.31,3.35a11.81,11.81,0,0,1,2.12.47c5.84,1.77,6.25,2.26,6.29,8.34,0,7.09,0,14.19,0,21.28,0,2-.14,3.83-2,5.33-.91.72-1.32,2.5-1.37,3.83-.26,6.36-.43,12.73-.44,19.09q0,63.57,0,127.15c0,6.91,0,13.82-.2,20.73-.11,4.37-2.51,7.3-6.83,7.7-6.33.58-12.7.71-19,1-3.43.14-6.63.16-9.87,2.17-3.53,2.18-7.94,2.36-12.16,2.34-4.9,0-9.79,0-15.09,0-1.63,3.58-3.26,7.16-5.08,11.14,2.67,2.61,5.2,5.17,7.81,7.63s5,4.78,7.72,6.93a5.86,5.86,0,0,1,2.26,6.22c-1.17,6.51-4.53,11.78-9.27,16.24-2,1.85-3.88,3.58-7.11,3.31-1.47-.12-3.19,1.45-4.61,2.5a5.7,5.7,0,0,1-6.52.75c-4.23-2-8.68-3.56-13.27-5.4-1.06,1.55-2,2.82-2.86,4.21-3.85,6.64-8.74,12.48-13.75,18.26-6.19,7.14-12.28,14.38-18.4,21.58-.69.82-1.32,1.69-2.25,2.87,4,7.06,8.1,14.11,12,20.93a14,14,0,0,1-5.11,9.07c-2.78,2.33-5.37,4.94-8.35,7-3.45,2.34-7.11,3.38-11,.25-2.14-1.73-4.67-1.25-7.08.22-2.62,1.6-5.42,2.9-8.17,4.28a5.46,5.46,0,0,1-6.93-1.14c-1.4-1.39-3-2.57-4.74-4-10,7.62-18.21,17.11-30.11,22.47,1.1,3.08,2.11,5.93,3.15,8.76,1.49,4.09,2.82,8.26,4.57,12.24,1.49,3.38.64,5.94-1.78,8.35a41.21,41.21,0,0,1-12.18,8.12c-2,.91-4,1.68-6,2.54-4,1.69-7.54,2.09-10.84-1.61-2.14-2.39-4.19-2.35-7.27-.4a36.62,36.62,0,0,1-10.86,4.91c-4.72,1.15-8.58.34-11.5-3.82-1.34-1.91-2.91-3.67-4.25-5.34-13.09,1.57-13.09,1.57-24.83,10.21.15,2.86.29,6.08.49,9.31.24,3.81.38,7.63.87,11.42a6.67,6.67,0,0,1-4.67,7.67,93,93,0,0,1-15.2,4.12c-3.38.6-6.94,0-8.44-4.31a26.49,26.49,0,0,0-2.66,1.37,26.68,26.68,0,0,1-12.53,4.86c-2.19.22-4.08.8-5.22,3.25-.58,1.26-2.45,2.17-3.94,2.71a42.7,42.7,0,0,1-18.74,2.5,20.36,20.36,0,0,1-4.23-1.37l-7.61-21.6c-.42-1.2-.83-2.41-1.19-3.63a3,3,0,0,0-3.67-2.42c-2.7.33-5.4.6-8.64,1-.95,4.84-1.94,9.77-2.87,14.71-.51,2.68-1,5.36-1.36,8.06-.4,3-2.12,4.62-5,5.72-6.46,2.49-12.9,1.74-19.3.28-3-.68-4.77-2.67-5.28-6.12-1.12-7.52-2.76-15-4.24-22.7l-11.25-1c-1.68,4.6-3.29,9-4.87,13.39-1.35,3.76-2.84,7.49-3.91,11.32a5.68,5.68,0,0,1-5.5,4.43,41.47,41.47,0,0,1-18.72-2.62,8.6,8.6,0,0,1-4.17-3.26,5,5,0,0,0-3.9-2.46,42.59,42.59,0,0,1-15.81-6.43c-2.21,4.49-6.08,5.12-10.41,4.1-4.05-1-8.1-2-12-3.33-5.52-1.88-6.6-3.54-6.24-9.22s1-11.59,1.47-17.38c.15-1.79.25-3.58.4-5.67l-6.37-2.32c-2.55,4.25-6,6.78-10.84,6a39.6,39.6,0,0,1-9.79-3c-2.74-1.26-5.11-3.3-8.12-5.31l-8.92-1.22c-1.34,1.53-3,3.2-4.39,5a6.21,6.21,0,0,1-6.75,2.43,52.59,52.59,0,0,1-7.68-2.6c-1.38-.56-2.41-1-4-.15a8.77,8.77,0,0,1-8.38-.46,112.44,112.44,0,0,1-11.66-7c-1.83-1.3-3-3.55-4.48-5.4l9.25-25.66c-.45-.56-.61-.94-.9-1.09-11.83-6-20.9-15.65-31.11-23.78-1.6-1.28-2.7-2.31-4.63-1-2.36,1.67-4.5-.89-7.3-.3-2.16,1.8-4.71,3.83-7.16,6a4.42,4.42,0,0,1-5,.88c-8.59-3.21-16.7-7.1-22.55-14.54-.56-.71-1.13-1.42-1.62-2.18-1.36-2.14-1.71-4.19-.2-6.58,2.62-4.14,5-8.45,7.4-12.71,1-1.72,1.88-3.49,2.94-5.47L702,1522.66c-3.85-.77-5.2-.74-14.38-10.45-1.51.48-3.22,1-4.88,1.56-2.73,1-5.41,2.12-8.12,3.15-4.82,1.83-7.22,1.26-10.29-3-2.43-3.37-4.55-7-6.68-10.58a15.37,15.37,0,0,1-1.52-4,6,6,0,0,1,2.18-6.74c4.06-3.36,7.81-7.09,11.71-10.64,1.47-1.34,3-2.61,4.74-4.1l-6.88-15.48H662.3c-9.82,0-19.64,0-29.46.05-5.56,0-10.78-.88-15.57-3.94a14.4,14.4,0,0,0-4.59-1.5c-4.47-1-6.88-3.71-7-8.31-.11-6.36-.11-12.73-.11-19.09q0-69.85-.07-139.7c0-2-.07-4-.08-6,0-1.33-.19-2.58-1.48-3.28a3.66,3.66,0,0,1-1.88-3.63v-28.25c4.76-3.47,10.07-3.91,15.23-4.48,11.19-1.25,22.41-2.2,33.62-3.27,1.06-.1,2.11-.22,3.51-.37.18-2.13.44-4.07.49-6,.67-23.27,1.24-46.54,2-69.81.84-26.18,1.84-52.35,2.8-78.52.36-10,.8-20,1.17-30,.89-24.36,1.69-48.71,2.65-73.07.7-17.8,1.56-35.57,3.82-53.28,2.3-18,3.93-36.14,5.91-54.21a24.52,24.52,0,0,1,1.29-5.82c3-8,6.1-15.94,9.38-23.82a86.83,86.83,0,0,1,4.9-9.1c2-3.48,3.91-7,6.08-10.33a61,61,0,0,1,6.09-8.32c8-8.71,16.12-17.28,24.26-25.85a42.22,42.22,0,0,1,5.66-5.12c3.49-2.54,5-5.9,5.44-10.12a222.62,222.62,0,0,1,7.18-37.43,344.26,344.26,0,0,1,17.12-47.62,370.84,370.84,0,0,1,32.48-58.52A335.28,335.28,0,0,1,818,601.19,290.75,290.75,0,0,1,846.1,573,166.65,166.65,0,0,1,883,548c7.14-3.48,14.82-5.84,22.81-8.92,4.25-7.32,10.6-11.74,20.43-9,.06-1.16.16-2.05.16-2.94q0-56.74,0-113.49c0-9.83,0-19.65.19-29.47.17-7.63.43-15.28,1.2-22.87.33-3.33,2-6.55,3.12-9.78.73-2,1.84-3.93,2.49-6,2.86-9,5.38-18.11,8.49-27,2.45-7,5.39-13.88,8.44-20.66A36,36,0,0,1,962,283.08c3.76-2.67,8.3-4.43,12.71-6,16.63-5.83,33.56-4.86,50.58-1.8a112.52,112.52,0,0,1,21.94,6.2,18.25,18.25,0,0,1,5.47,3.37c4,3.67,8.08,7.36,10.1,12.66a16,16,0,0,1,1,1.95c1.94,8.47,5,16.73,4.87,25.61-.06,6.91.12,13.82.13,20.73l0,296.85c0,3.79.09,7.58.13,11.61,1.9.16,3.3.31,4.7.38,7.44.43,14.89.8,22.33,1.25a13.82,13.82,0,0,1,10.06,4.6c5.48,6.07,11.24,11.9,17.07,17.64a13.35,13.35,0,0,1,4.14,10.23c-.16,17.28-.17,34.56-.31,51.84,0,6.73-.27,13.45-.43,20.18,0,2-.17,4-.26,6-7.82,4.9-16.69,3.68-25.43,5.42-.11,1.69-.29,3.44-.32,5.2s.13,3.24.2,4.72c1.91,1.94,4.2,1.5,6.31,1.75,3.06.35,6.16.54,9.16,1.18a21.14,21.14,0,0,1,5.43,2.34,6.29,6.29,0,0,1,3.48,6.24c-.15,5.82,0,11.64,0,17.46q0,63,0,126.06c0,6.25,1.25,12.15,2.65,18.21,2.11,9.1,6.72,15.9,13.75,22,10.3,9,20.93,17.48,31.87,25.61,16.36,12.17,31.75,25.51,47.33,38.63,3.76,3.16,7.42,6.44,11.28,9.47,8.37,6.56,15.21,14.57,21.85,22.78,7.66,9.48,15.29,19,23.2,28.24a146.16,146.16,0,0,1,15.29,21.85c5.93,10.21,11.88,20.41,18.11,30.44,4.45,7.16,7.25,15,10.63,22.66,3.9,8.8,7.39,17.78,11.4,26.53,3.09,6.73,3.92,14,5.46,21C1339.09,1229.53,1340.07,1234.88,1341.16,1240.42ZM986.78,1670.59v5.19c.64-1.73.93-3.45-.11-5.08-.35-2.92.24-6-2.07-9.59C984.69,1665.11,984.78,1668.06,986.78,1670.59Zm-176-824.76c-1.24.17-2.51.24-3.73.51-6.55,1.4-13,3.2-19.85,2.77a39,39,0,0,1-18.11-5.28,43.13,43.13,0,0,1-17-20.13c-4.53-10.44-6.29-21.64-6.62-32.93a170.82,170.82,0,0,1,3.3-36.85,258,258,0,0,1,13.66-47,339.85,339.85,0,0,1,27.75-55.45c12.58-20.11,26.82-38.9,43.76-55.55,10.38-10.21,21.4-19.63,33.89-27.26a113.81,113.81,0,0,1,24.55-11.58c3.42-1.1,6.95-1.85,10.65-2.82.12-1.77.91-3.5-.75-5.39-1.81.21-3.9.08-5.71.72-5.8,2.06-11.75,3.94-17.2,6.74A180.6,180.6,0,0,0,840,584.23a277.13,277.13,0,0,0-29.61,32,338.76,338.76,0,0,0-27.05,39.57,331.66,331.66,0,0,0-22.65,45.87c-3.85,9.79-7.67,19.64-10.57,29.74-5.31,18.54-9.14,37.37-9.26,56.82-.08,12.28,1,24.27,5.12,35.93,2.93,8.24,7.38,15.37,14.28,20.81a34.4,34.4,0,0,0,6.85,4.3,39.84,39.84,0,0,0,25.43,2.86c6.35-1.34,12.8-2.42,18.24-6.38,3.6-.88,3.6-.88,7-3.52C814.8,843.37,812.39,843.75,810.82,845.83ZM958.38,553l-3.45-2.7c.73,1.59,1.37,3.4,3.58,2.57-.73,1.95.87,3,1.72,4.31a87.11,87.11,0,0,1,10.69,21.32,97.37,97.37,0,0,1,4.73,25.62,209.2,209.2,0,0,1-.81,34.3,263,263,0,0,1-7.67,39.52,339.56,339.56,0,0,1-19.49,53.68,368.06,368.06,0,0,1-25.79,47.3,327,327,0,0,1-25.16,34.24c-16,18.83-33.48,35.81-54.61,48.85a106.72,106.72,0,0,1-21.69,10c-6.82,2.32-14,3.84-21.38,3.37-2-.13-4.08,0-6.12,0,6.19,3,12.67,3.49,19.14,2.72,11.31-1.34,21.87-5.42,31.71-10.89a175.7,175.7,0,0,0,36.11-27,317.57,317.57,0,0,0,42.23-50.51,362.91,362.91,0,0,0,21.06-35A374.73,374.73,0,0,0,960.91,716a327.77,327.77,0,0,0,17.85-62.74c2.28-12.92,2.75-26,2.64-39.11-.12-13.4-2.08-26.39-7.11-38.86C970.76,566.59,965.83,558.89,958.38,553ZM772.69,865.28l-3.86-1.89-.3,1,4.27.77c1.83,2.2,4.52,2.76,7.05,3.31,10.61,2.32,21,.7,31-2.75C823,861.58,834,855,844.21,847.52a218.64,218.64,0,0,0,35.86-33.39,345.89,345.89,0,0,0,36.42-50.26,400.18,400.18,0,0,0,25.74-51,325.65,325.65,0,0,0,19.91-66.68c2.4-13.27,3-26.7,2.9-40.19a111,111,0,0,0-6.85-38.92,52.66,52.66,0,0,0-21.08-26.28c-.46-.3-1.19-.18-2.64-.36,1.22,1.06,1.72,1.58,2.29,2,6.47,4.58,10.39,11.27,13.64,18.09,5.2,10.9,7.7,22.71,8.55,34.72a196,196,0,0,1-2.08,45.14A293.81,293.81,0,0,1,943.56,692a379.94,379.94,0,0,1-28.18,61.3,370.72,370.72,0,0,1-26.1,39.56,280.09,280.09,0,0,1-32.11,35.61c-14.84,13.87-30.91,25.89-50.16,33a62.74,62.74,0,0,1-21.23,4.23C781.42,865.8,777.06,865.45,772.69,865.28Zm349.07,576c-3.07,1.27-6,3.12-9.06,3.64-10.22,1.68-20.53,2.9-30.91,2.27-5.22-.32-10.54-.49-15.36-3.05-3.5-1.85-3.69-2.09-3.34-5.92.76-8.14,1.6-16.27,2.32-24.42,1-10.85,2-21.71,2.69-32.59,1-15.6,1.62-31.21,2.38-46.83.19-4,.26-8,.39-12q.8-24,1.57-48a25.59,25.59,0,0,0-.44-3.83c-26.75-.3-53.2-1.89-80-.77-.08,2.24-.23,4-.21,5.81.33,25.28.62,50.56,1,75.84.47,28,1.06,56,1.57,84,0,2.14-.1,4.29-.15,6.19a20,20,0,0,1-13,4.57c-6.36.14-12.73-.13-19.07.18-6.1.31-11.35-1.75-16.47-4.69a5.42,5.42,0,0,1-3.11-5.2c-.05-7.64-.49-15.28-.5-22.91q-.09-54,0-108c0-9.64,0-19.28-.06-28.92,0-1.94.36-4-1-6.18-24.94,0-50-.24-75.43.29,0,2.32-.07,4.11,0,5.89.62,14.89,1.14,29.79,2,44.67q1,18.23,2.62,36.43,1.68,18.45,4.06,36.84c1.85,14.23,4,28.41,6.18,42.59.76,5.07.57,6-3.87,8.32a12.9,12.9,0,0,1-5.1,1.68c-5.62.32-11.26.54-16.88.37-8.71-.27-17.41-.92-26.11-1.35a21.9,21.9,0,0,1-9.82-2.78,5.73,5.73,0,0,1-3.33-5.64c0-6.73-.26-13.46-.26-20.19q-.06-69.58,0-139.15c0-2.12-.13-4.24-.21-6.73-2.34,0-4.13,0-5.92,0q-25.62.55-51.25,1.15a12.87,12.87,0,0,0-2.44.64c.27,4.46.52,8.78.81,13.11,1.39,21,2.77,42.07,5.95,62.93,1.75,11.49,3.26,23,5.46,34.44,2.36,12.3,5.28,24.5,8.19,36.69,1.57,6.52,3.67,12.92,5.48,19.38,1.22,4.39-.09,6.88-4.4,8.46a11.71,11.71,0,0,1-3.13.88c-4.71.35-9.43.83-14.15.79-8.17-.06-16.35-.42-24.52-.76-5.63-.24-11.25-.56-16.86-1.05-5-.44-7.72-3.62-7.85-8.56-.17-6.37-.49-12.73-.52-19.09q-.3-65.21-.49-130.42c0-3.82,0-7.64,0-11.46a27.76,27.76,0,0,0-.47-3.51c-8.94-.82-29.09.64-34,2.5,0,1.3-.1,2.74,0,4.16.61,7.06,1.18,14.13,1.95,21.17,1.86,17,3.08,34,6.69,50.77,2.9,13.48,4.64,27.21,8.78,40.43,5.16,16.45,8.86,33.37,16,49.19.22.49.31,1,.53,1.54a4,4,0,0,1-1,5,10.68,10.68,0,0,1-4,2.61,34,34,0,0,1-8,1.12c-7.61.14-15.23,0-22.66,0l-2.74,5,8.84,19.88c2.28-1.93,4.14-3.6,6.1-5.15,2.52-2,2.84-1.78,5.72,0,3.11,1.87,5,4.73,6.85,7.63,3.17,5.07,6.34,10.18,9,15.51,2.12,4.2.62,7.14-3.74,9-1.75.75-3.46,1.57-5.61,2.55,4.19,6.3,7.71,12.5,12.11,18,7.82,9.8,16.15,19.19,24.33,28.71a6.66,6.66,0,0,0,3,2.18c3.16.86,5.32,2.9,7.39,5.24s4.17,4.39,6.71,7c1.63-3.14,2.88-5.71,4.27-8.2a47.55,47.55,0,0,1,3.8-5.94,3.2,3.2,0,0,1,2.76-1.07c3.32,1.34,7,2,9.74,4.59,2.22,2.15,4.55,4.19,6.75,6.36a55.24,55.24,0,0,1,8.65,11.42,50.47,50.47,0,0,1-3.55,4.25c-2.74,2.65-5.65,5.13-8.42,7.75a27.49,27.49,0,0,0-2.44,3.12c11.74,10.21,22.4,21.22,36.84,27.58l2.15-3c8.19-.75,14.15,5,21.54,7.4a24.65,24.65,0,0,0,1-3.21c.46-3,2.21-4.66,5-5.85a7,7,0,0,1,3.56-.63,43,43,0,0,1,18.93,6.09c4.44,2.57,7.29,6.3,10.58,10.39l-12.23,16.46a363.62,363.62,0,0,0,52.56,17.51c.59-2.72,1.08-5,1.54-7,2.46-1.92,5.21-1.92,7.93-2.07,9.36-.51,17.92,2.24,26.06,6.54,4.69,2.48,4.66,2.61,3.2,7.6-.2.66-.27,1.35-.4,2,4.84,1.66,26.33,3.79,29.73,3.11,2.42-3.46,2-7,1-10.57-.31-1.13-.37-2.83.27-3.63,2-2.53,4.09-5.51,7.68-5.61,7.25-.21,14.52-.13,21.78.08,3.21.09,4.84,3,6.9,4.93,1.8,1.73.8,3.92.32,5.68a10.64,10.64,0,0,0,2,9.83c4.74-.46,9.7-.46,14.43-1.51,4.91-1.1,10.21.33,14.91-2.36-.68-2.15-1.31-4.19-2-6.36,6.18-5.65,13.84-7.74,21.38-9.16,5.65-1.07,11.88-1.78,17.46,1.45.4,2.4.76,4.52,1.11,6.62,7.26-.61,31.66-8.29,35.92-11.29-.93-1.35-1.85-2.7-2.78-4q-5.64-8-11.28-16.06c-.85-1.21-1.91-2.54-1-4,1.71-2.74,3.21-6,5.68-7.82,5.36-4,11.27-7.25,18.27-7.66a24.36,24.36,0,0,1,9.13.8c2.75.89,4.35,2.19,4.69,5.17a31,31,0,0,0,1.8,7.78c4.84-2.83,9.37-5.43,13.83-8.13,4.66-2.81,9.74-3.7,15.53-3.71l4.1,6.35c4.91-1.62,9.89-2.75,14.39-4.89a69.09,69.09,0,0,0,12.33-7.91c5-3.88,9.73-8.2,14.55-12.35,3.83-3.3,7.64-6.62,11.74-10.18l-3.8-3.62c-1.54,1.73-2.76,3.29-4.19,4.62a22.81,22.81,0,0,1-5.14,4c-2.91,1.39-6.06,3-9.13,3-2.07,0-4.38-2.25-6.24-3.89-4.52-4-8.85-8.11-13.21-12.23-2.72-2.57-2.65-3.05-.86-6.54,2.72-5.3,7.2-9.06,11.13-13.32,3.54-3.83,8.33-4.06,12.82-5.19a4.73,4.73,0,0,1,3,.91,11.32,11.32,0,0,1,5,5.61c1.78,4.37,3.7,8.68,5.65,13a20.39,20.39,0,0,0,1.87,2.86c5.51-5.33,10.74-10.37,15.93-15.44a15.28,15.28,0,0,1,8.51-4.5l4.59,6.69c10.92-12.94,21.66-25.49,32.13-38.26a50.82,50.82,0,0,0,6.77-10.82c-.58-.57-.79-.93-1.09-1.05-3.51-1.48-7-2.93-10.56-4.38-3.19-1.3-6.44-2.46-9.57-3.91-4.19-1.94-6.48-5.54-5.33-9,1.53-4.61,2.6-9.49,6.26-13.15a56.33,56.33,0,0,0,4.13-5.07c2.66-3.41,6.32-5.17,10.35-6.6,6.25,5.44,11.42,11.83,17.84,16.5.57-.26.78-.29.89-.41,4-4.26,5.43-10.8,11.51-13.3.12,0,.15-.32.23-.48,2.29-5.1,4.85-10.08,6.65-15.51-5.75-2-12.75.73-16.21-5.69-2.72,0-5.08,0-7.44,0-11.81.25-23.62.61-35.43.69a28.3,28.3,0,0,1-8.54-1.41c-3.86-1.22-5.06-4.15-3.73-8.09,1.86-5.51,4.08-10.9,5.63-16.49,3.45-12.42,6.91-24.86,9.76-37.42,2.61-11.51,4.55-23.17,6.55-34.8,1.42-8.23,2.58-16.51,3.61-24.79q1.62-13,2.76-26c.7-7.78,1.14-15.59,1.59-23.39a21.45,21.45,0,0,0-.48-4c-14.87-1.52-41.62-2.25-47.47-1.58V1280q0,49.11,0,98.22,0,29.74-.28,59.48c0,5.62-.69,6.52-5.84,8.38a19,19,0,0,1-5.3,1.13c-9.25.5-18.51.88-27.76,1.29-2.72.13-5.45.39-8.17.29-5.61-.19-11.33.32-16.73-1.56-5.83-2-6.74-4.34-5.17-8.86.18-.51.17-1.08.31-1.6,5-18.83,7.79-38.08,11-57.24,1.59-9.48,2.51-19.09,3.48-28.67,1.42-13.91,2.75-27.84,3.87-41.78.85-10.69,1.34-21.41,2-32.11.1-1.57,0-3.15,0-5.26-23.27.2-46-2-69.25-.83v7q0,63.84,0,127.69C1123.05,1417.13,1123.19,1428.78,1121.76,1441.24Zm216-200.83c-1.41-7-3-13.34-3.92-19.79-1.12-7.65-3.76-14.72-6.9-21.71-2.76-6.12-5.11-12.43-7.9-18.54-3.68-8.08-6.47-16.56-11.22-24.18-5.38-8.64-10.32-17.54-15.62-26.22-4.44-7.28-8.32-14.91-13.86-21.52-9.45-11.29-18.9-22.6-28-34.16a164.7,164.7,0,0,0-24.17-24.29c-20.79-17.37-41.26-35.14-63.15-51.16a261.7,261.7,0,0,1-25.12-20.94c-2.12-2-4.3-3.92-6.41-5.93a10.38,10.38,0,0,0-6.81-2.92c-7.23-.47-14.44-1.46-21.67-1.8-12.53-.57-25.07-1.09-37.61-1.15-54.2-.25-108.41-1-162.59,1-9.05.34-18.08,1.43-27.13,1.85a12.74,12.74,0,0,0-8.62,3.92c-9.82,9.2-19.81,18.17-30.71,26.14-10,7.3-19.77,14.86-29.31,22.71-14.18,11.66-28.12,23.62-42,35.59a83.69,83.69,0,0,0-9.54,9.66q-14.73,17.55-29.13,35.36c-4.34,5.35-9,10.49-12.42,16.54-5.5,9.63-11.31,19.07-16.88,28.65-3.55,6.12-7.27,12.19-10.28,18.57-4.25,9-8,18.3-11.8,27.54-3.44,8.37-7.64,16.48-9,25.62-.83,5.56-2.12,11.06-3.13,16.6a33.54,33.54,0,0,0-.3,3.91c.5.38.64.58.78.57,8.69-.56,17.37-1.23,26.06-1.69,9.07-.49,18.15-.81,27.23-1.15,10.71-.39,21.43-.77,32.14-1.08q21-.6,42-1.09,28.35-.61,56.73-1.09c30.18-.5,60.38-.52,90.57-.85,46.91-.51,93.85-.8,140.78.41,33.45.86,66.93.11,100.38,1.3,12.9.46,25.81.62,38.71.95q22.35.57,44.7,1.22,23.43.66,46.87,1.35c.91,0,1.81.17,2.72.23Zm-351-587.29,78.38,1.08c.11-2.72.29-5.21.3-7.69q0-121.39,0-242.78c0-23.64-.09-47.29,0-70.93a98.37,98.37,0,0,0-4.24-30.07c-2.83-9-8.33-15.48-17.26-19-12.13-4.77-24.85-6.49-37.7-7.48a76.65,76.65,0,0,0-29.55,3.49c-5.14,1.66-10.43,3.3-14.43,7.27a38.74,38.74,0,0,0-8.61,11.84c-3.26,7.49-6.49,15-9.22,22.69-2.85,8-5,16.3-7.62,24.42a39.94,39.94,0,0,0-2,12.32c.06,24.18,0,48.37,0,72.56q0,38.19,0,76.38c0,2.1-.44,4.34,1,6.47,2.58,0,5.12.2,7.62-.05,3.2-.32,5.57.91,7.75,3.09a36,36,0,0,1,7.48,11.91c2.77,6.61,4,13.55,4.89,20.61a10.82,10.82,0,0,0,1.39,4.51c2.37,3.65,5.07,7.07,7.55,10.64,7.26,10.47,11.47,22.19,13.86,34.61a135.84,135.84,0,0,1,1.52,41.24C987.42,644.39,987.15,648.54,986.75,653.12Zm140.73,312.35c-1.06-3.68-1.85-6.84-2.89-9.91a49.9,49.9,0,0,1-2.66-16.58c.09-8-.19-16-.2-24q0-58.37,0-116.72v-6.83a31.62,31.62,0,0,0-4.92-1.11c-13-.77-26.09-2-39.15-2.08-45.09-.31-90.18-.23-135.27-.27-3.06,0-6.13.18-9.26.28-1.6,2.23-3.11,4.27-4.53,6.37a275.09,275.09,0,0,1-47.73,54.26c-1.8,1.56-2.81,3.14-2.74,5.55.1,3.26,0,6.54,0,9.81-.17,25.82-.38,51.63-.49,77.44a37,37,0,0,1-1.86,11.76c-1.29,3.88-2.24,7.87-3.41,12.08,2.35,0,4.16.11,5.95,0,8.13-.6,16.26-1.51,24.41-1.85,13.79-.57,27.6-1,41.41-1.12q39.81-.31,79.64-.18c14.35,0,28.7.48,43,.85q20.16.51,40.3,1.29c4.53.17,9,.69,13.56,1C1122.62,965.56,1124.61,965.47,1127.48,965.47ZM671,1191.49l1,.19c1.43-3.25,3-6.47,4.28-9.76,5.1-12.64,10.66-25,18-36.59,4.88-7.65,9.42-15.53,13.93-23.41a136.27,136.27,0,0,1,14.14-20c7.48-8.91,14.58-18.15,22.32-26.82,5.58-6.27,9.37-12.82,8.07-21.49a10.1,10.1,0,0,1,.07-1.64c.65-15.07,1.34-30.14,1.92-45.22.49-12.89.57-25.81,1.33-38.69.69-11.79,2-23.54,3.11-35.29,1.53-15.73,3.17-31.45,4.77-47.18A40.52,40.52,0,0,1,767.14,873c.66-1.46,1.12-3,1.6-4.3-3.45-2.88-6.7-5.49-9.84-8.24a64.38,64.38,0,0,1-16.47-22.83,68.15,68.15,0,0,1-6.16-24.17,76.32,76.32,0,0,0-1.31-8.14c-1.76,1.62-3.12,2.73-4.31,4-6,6.34-11.87,12.8-17.94,19.07a60.65,60.65,0,0,0-7.2,9.53c-7.26,11.19-12.55,23.32-17.23,35.74a26.48,26.48,0,0,0-1.62,5.75c-.56,4.13-.83,8.31-1.25,12.47-.88,8.67-1.75,17.35-2.66,26-1.25,11.93-3,23.82-3.7,35.78-1.11,18-1.6,36-2.28,53.94-.49,13.08-.82,26.16-1.32,39.24-.58,15.08-1.32,30.15-1.89,45.22q-.84,22.35-1.46,44.7-.69,24.54-1.22,49.08C670.83,1187.71,671,1189.6,671,1191.49Zm723,58.59c-2.28-.65-3.8-1.2-5.36-1.52-11.93-2.51-24.11-3-36.19-4.08s-24.27-1.55-36.41-2.19c-8.71-.46-17.42-.79-26.14-1.12q-15-.59-30-1.05c-13.08-.4-26.16-.8-39.24-1.1q-28.1-.63-56.17-1.11c-34-.53-68-.65-102-1-49.82-.45-99.65-.89-149.47.53-32,.9-64-.27-96,1.16-16.16.72-32.34.75-48.52,1.15q-19.07.48-38.14,1.11c-9.62.31-19.24.7-28.86,1.06-10.16.38-20.33.66-30.49,1.2-12.5.67-25,1.38-37.49,2.42-7.75.65-15.46,1.92-23.17,3a25.46,25.46,0,0,0-4.32,1.35c-1.32,6.11-1.32,20.73-.22,24.67,13.23-1.45,26.36-3.11,39.53-4.26,11.93-1,23.91-1.58,35.87-2.24,8.34-.46,16.69-.77,25-1.1,9.8-.39,19.6-.78,29.41-1.09q19.07-.62,38.15-1.09c16.9-.41,33.8-.86,50.7-1.08,36.37-.46,72.73-.77,109.1-1.15,4.73,0,9.46-.12,14.18-.1,58.19.2,116.39-.66,174.57.89,23.45.62,46.9.76,70.35,1.19,14,.26,28,.65,42,1q25.89.66,51.77,1.35c2.73.07,5.46,0,8.19.14,11,.61,22.1,1.3,33.15,1.9,8.89.48,17.78.82,26.66,1.34,4.71.28,9.41.67,14.09,1.25,8.56,1.05,17.09,2.27,26.13,3.49C1394.54,1266.84,1394.31,1258.7,1394.07,1250.08ZM756.64,1059.7c1.33-1,2.5-1.73,3.57-2.62,4.61-3.84,9.16-7.75,13.76-11.59,16-13.38,31.69-27.25,48.4-39.84,12.47-9.4,25.1-18.62,36.47-29.42,9.26-8.79,9.47-8.62,12.93-21.14,1.06-3.83,2.38-7.77,2.42-11.66.25-28,.21-56,.24-84a36.53,36.53,0,0,0-.52-4.14c-1.16.74-1.9,1.16-2.59,1.64-9.55,6.62-19.08,13.21-30.05,17.42-13.57,5.22-27.4,8.21-42,6.49A38.47,38.47,0,0,1,779.89,873a13.42,13.42,0,0,0-7.58-3.22c-1.16,2.75-2.46,5.33-3.35,8.06a35.81,35.81,0,0,0-1.39,6.92c-.6,5.05-1,10.12-1.54,15.18-1.27,12.1-2.62,24.2-3.83,36.31-.93,9.22-2,18.44-2.47,27.68-.72,13.43-1,26.89-1.46,40.33-.49,12.9-1.15,25.79-1.6,38.68C756.48,1048.39,756.64,1053.81,756.64,1059.7ZM986,657a309.44,309.44,0,0,1-13.69,52.6c-6,16.92-13.58,33.17-21.92,49.83h7.26c37.26.12,74.54-.85,111.8.82,12.88.57,25.77.84,38.66,1.33,3.07.12,6.13.63,9.2.85,1.75.12,3.52,0,5.71,0,.11-2.26.26-4.21.29-6.17q.15-11.18.24-22.36c.12-15.45.2-30.91.36-46.37a8,8,0,0,0-2.26-5.93c-6.61-6.75-13.17-13.56-19.92-20.16a9.13,9.13,0,0,0-4.83-2.06,118.83,118.83,0,0,0-11.92-1.06c-10.53-.45-21.06-1-31.59-1.08C1033.2,657,1013,657,992.83,657Zm-65.63-50a89.31,89.31,0,0,0-21.18,17.91c-5.28,6.1-11.12,11.42-19.22,13.61a31.55,31.55,0,0,0-5.5,2.34,11.87,11.87,0,0,0-3.18,2,38.57,38.57,0,0,0-11.21,21.32c-1.28,7.52-1.93,15.14-3.4,22.61-1.19,6.09-3.63,11.76-8.44,16.09-19.85,17.88-39.62,35.83-59.57,53.59a18.42,18.42,0,0,0-6.14,10.51c-3.81,18.13-5,36.35-2,54.67.79,4.88,2.78,9.56,4.33,14.68,3.13-3.42,5.78-6.38,8.5-9.27,6.85-7.28,13.46-14.8,20.66-21.72,9.31-8.93,19.08-17.36,28.66-26l30.08-27.13c0-4,.06-8,0-12-.31-17.63-1-35.25-.18-52.88a13,13,0,0,1,3.82-9.23c5.4-5.4,10.83-10.78,15.86-16.52,3.65-4.17,8.13-5.78,13.36-6.07,7.07-.39,14.14-.74,21.21-1.15a31.91,31.91,0,0,0,3.45-.55,10.5,10.5,0,0,0,.25-1.43c0-8.19,0-16.37-.06-24.55,0-3.79-.28-7.58-.42-11.38-2.91-3-5.81-6-8.73-9A7.14,7.14,0,0,0,920.37,607Zm31.76,660.34c-.73,7.29-.53,164.92.25,169.61,8.94.42,17.86-1.06,27.22-.92.07-2.59.19-4.72.19-6.86q0-54.81,0-109.61c0-15.82,0-31.63,0-47.45,0-1.91.64-4-.78-5.68C967.58,1265.62,956.33,1266,952.13,1267.36Zm162.8,169.08c.07-2.18.2-4.49.2-6.81q0-76.35,0-152.7c0-2,.06-4,0-6a31.63,31.63,0,0,0-.53-3.5c-9-.8-22.46-.54-26.63.56-.08,1.68-.22,3.47-.23,5.26,0,6.36,0,12.72,0,19.09q0,68.72,0,137.43c0,2.29.22,4.59.32,6.76C1094.57,1437.45,1110.43,1437.41,1114.93,1436.44ZM896.13,761.11c1.71-2.83,3.57-5.92,5.42-9a338,338,0,0,0,22.11-43.62,364.38,364.38,0,0,0,13.41-39.07c1-3.54,2.09-7.16,2-10.84a6.91,6.91,0,0,0-1.41-.42,282.49,282.49,0,0,0-34.79,1.19,9.61,9.61,0,0,0-6.2,3c-5.21,5.32-10.45,10.61-15.79,15.79a16,16,0,0,0-5,12.6c.38,22.88.4,45.76.59,68.65a22.12,22.12,0,0,0,.57,3.29Zm-50,506.5c-10.14-.87-16.88-.49-24,1.29-1.2,6.16-.9,161.23.37,169.06,7.88.74,15.73-.19,23.54-1.06C846.81,1432.43,846.92,1273.41,846.1,1267.61Zm388.81,171.68c1.4-7.22,2-162.47.73-169.71-7.09-.2-14.17-1.87-22-.83v6.62q0,61.38,0,122.74c0,11.46-.31,22.91-.43,34.37,0,2.11.2,4.23.32,6.59,1.55.09,2.61.21,3.67.21C1223,1439.3,1228.82,1439.29,1234.91,1439.29ZM908.25,569.36c-15.37,2.73-46.3,24.23-51.72,33.13A21.77,21.77,0,0,1,864,614.6c-9.36,12-18.88,23.94-28,36.13s-16.71,25-23.87,38.33A353.75,353.75,0,0,0,793,731.5a21.7,21.7,0,0,0,2.72-1.54q20.64-18.23,41.23-36.5a20.38,20.38,0,0,0,6.37-12.34c1.19-7.34,2.45-14.68,3.63-22,1.29-8.06,4.79-15.34,9.23-21.9,6.39-9.44,9.49-11.13,20.52-15.08.17-.06.35-.09.52-.14a13.6,13.6,0,0,0,6.41-3.92q6-6.27,12.26-12.4a21,21,0,0,1,4.14-3.47c7.39-4.24,14.71-8.62,22.7-11.71,1.18-.45,2.31-1,3.38-1.49,1.07-9.37,1-10.47-.33-13.92C916.62,575,916.62,575,908.25,569.36Zm423.31,877.19c5.85.83,28.79.53,32.89-.55v-6.35q0-29.16,0-58.32,0-48.51-.08-97c0-2.12.38-4.33-.73-6.52l-7.93.72c-.39,2-.88,3.72-1,5.48-.83,8.67-1.34,17.38-2.41,26-1.62,13.14-2.73,26.34-5.4,39.35-3.87,18.83-7.32,37.76-13.46,56.05a26.08,26.08,0,0,0-1.06,7.49C1332,1424.12,1331.8,1435.34,1331.56,1446.55Zm-627-1.92c-.68-1.89-1.17-3.24-1.65-4.59-2.15-6.16-4.41-12.29-6.45-18.49-8.8-26.8-14.65-54.3-19.25-82.08-1.13-6.8-1.78-13.68-2.51-20.54-1-9.39-1.85-18.79-2.76-28.19-.45-4.65-.89-9.31-1.37-14.3l-8.21-1c-.09,2.47-.23,4.6-.23,6.74q0,69.81-.05,139.61c0,6.18,0,12.36,0,18.54a35.67,35.67,0,0,0,.6,4.34Zm-45.44-210.92.67,0c.24-1,.48-2.06.74-3.08,2.14-8.44,2.58-17.26,5.82-25.44a8.31,8.31,0,0,0,.22-2.7q1.07-32.16,2.12-64.31c.45-13.62.82-27.25,1.34-40.87.58-15.25,1.33-30.5,1.91-45.76.55-14.53.93-29.06,1.48-43.59.53-14.17,1.42-28.32,1.72-42.49.26-12.57,1.86-25,3.11-37.46,1.22-12.11,2.33-24.23,3.68-36.32.86-7.73,1.25-15.48,4.44-22.88,4.68-10.84,9.08-21.78,15.75-31.61.51-.75.89-1.59,1.41-2.33a51.2,51.2,0,0,1,4.14-5.7c8.16-8.79,16.46-17.45,24.62-26.24a14,14,0,0,0,2.77-4.52c.71-1.9.24-6.33-.52-9.66a36.36,36.36,0,0,0-3.41,2.73c-7.47,7.68-14.94,15.36-22.32,23.13-3,3.16-6.31,6.2-8.56,9.86-6.17,10-12.7,19.91-16.58,31.19-1.6,4.63-3.56,9.13-5.29,13.72a24.15,24.15,0,0,0-1.55,5.19c-.85,6.67-1.53,13.35-2.25,20q-2,18.69-4,37.38c-.88,8.31-2,16.61-2.47,24.94-.72,12.52-.93,25.07-1.43,37.6-.58,14.52-1.29,29.05-1.85,43.57-.54,13.81-.91,27.61-1.44,41.42-.55,14.16-1.32,28.32-1.8,42.48-.53,15.63-.82,31.26-1.23,46.88-.18,7.09-.41,14.18-.58,21.27q-.5,21-.92,42A7.72,7.72,0,0,0,659.08,1233.71Zm641.09,208.66c.91-6.95.68-164.28-.26-168.69l-6.53.72c-.38,2.52-.81,4.63-1,6.76-1.6,17.74-2.66,35.54-4.87,53.19-2,15.85-4.56,31.69-8.08,47.26-4.35,19.28-8.91,38.57-15.63,57.24-.52,1.43-1.55,2.89-.21,5Zm-568.32-171.6H714a10.93,10.93,0,0,0-.59,2.37q0,82.89,0,165.78a11.67,11.67,0,0,0,.61,2.43c3-.27,5.8-.57,8.64-.78,3-.22,6.11.24,9.19-.71Zm140.9-513.66c-2.29,1.91-3.83,3.12-5.28,4.42q-16.2,14.57-32.37,29.16c-7.13,6.45-14.47,12.7-21.28,19.47-7.47,7.42-14.46,15.31-21.61,23a54.13,54.13,0,0,0-3.68,4.71c-1.27,1.7-.86,3.33.19,5,1.91,3.13,4.8,2.75,7.73,2.37,9.12-1.19,17.54-4.58,25.49-8.91,11.36-6.18,21.49-14.14,31-22.88,11-10.09,20.56-21.5,29.77-33.19,2.3-2.91,4.94-5.73,6-9.25-3.91-1-7.58-1.92-11.27-2.77-3.1-.71-4.72-2.4-4.46-5.74A47.39,47.39,0,0,0,872.75,757.11ZM745.33,1271.34c-.11,3.35-.27,5.86-.27,8.38q0,77.12-.06,154.23a24.63,24.63,0,0,0,0,2.72c.15,1.21.43,2.4.63,3.48,8.07,1.45,25.86,1.93,32,.86-16.11-54.79-23.19-111-26.09-168Zm-124.82,9.52c-.83,5.15-.79,163.09.13,168.25,2.57,0,5.26.07,7.94,0s5.34.44,7.62-.34c0-3,0-5.5,0-8-.07-30.55-.08-61.1-.29-91.65,0-6.52-.72-13-1.37-19.55-1.28-12.65-2.73-25.28-4.14-37.91-.38-3.41-.84-6.8-1.25-10C625,1280.09,625,1280.09,620.51,1280.86Zm707.21,161.59c.11-1.24.25-2.11.26-3,.17-10.72.45-21.44.47-32.16q.09-60.79,0-121.6c0-3.09,0-6.18-.06-9.27a19.36,19.36,0,0,0-.69-3.42c-7-.82-10-.69-14.09.66v6.89q0,61.89,0,123.78c0,10.72,0,21.45,0,32.17,0,1.93-.38,4,.93,5.94Zm-231-674.21c-10.94-.64-21.23-1.7-31.54-1.77-37.25-.26-74.5-.2-111.75-.24-2.33,0-4.67.15-6.73.22-5.13,7.26-7.18,11.28-7.45,14.71h4.89l117.21.05c2,0,4,0,6,.12,8.35.31,16.69.67,25,.94a34.83,34.83,0,0,0,4.34-.4ZM924.36,544c1.84,1.62,3.12,2.89,4.55,4,6.15,4.63,10,11.13,13.21,17.76,5.09,10.37,7.34,21.65,8.14,33.13a174.27,174.27,0,0,1-1.11,36.45,300.18,300.18,0,0,1-16,62.11,336.93,336.93,0,0,1-19,42.17,332.93,332.93,0,0,1-39.5,58.67c-15.5,18.29-32.71,34.63-53.63,46.61a99.54,99.54,0,0,1-18.87,8.33,64.1,64.1,0,0,1-23.68,2.61,35.61,35.61,0,0,1-17.28-5.94c-5.09-3.32-9.84-7.42-12.72-13.19a13.31,13.31,0,0,0-4.49-5.85,30.83,30.83,0,0,0,.87,4,27,27,0,0,0,1.82,3.94c1.07,1.9,2.21,3.77,3.41,5.58,7,10.6,16.46,17.15,29.51,17.69,1.08,0,2.15.4,3.23.48a24.74,24.74,0,0,0,5.42.22,95,95,0,0,0,32.71-11.22,176.06,176.06,0,0,0,34.43-25.7A298.08,298.08,0,0,0,892,783.48a356.32,356.32,0,0,0,25.89-41.61,351.62,351.62,0,0,0,32-84.25,212.19,212.19,0,0,0,5.86-55.11c-.09-2.91.19-5.86-.23-8.71-1.46-10.06-3.17-20-7.24-29.53-4.2-9.77-10.25-17.81-19.49-23.61ZM775.43,843c-.17-.6-.17-1-.37-1.2a23.88,23.88,0,0,0-2.38-2.23c-5.75-4.55-9.16-10.79-11.82-17.36-3.71-9.17-5.22-18.88-5.62-28.74A162.91,162.91,0,0,1,757,765.22c2.63-19.58,8.29-38.3,15.43-56.61a247.72,247.72,0,0,1,16.16-34.49c6-10.37,11.91-20.84,18.65-30.72a261.66,261.66,0,0,1,41.23-47.78C862.33,583.18,877.19,572.24,895,566c2.73-1,5.5-1.82,8.23-2.78a8.16,8.16,0,0,0,1.54-1.09c-.33-1.29-.68-2.62-1.06-4.12-9,.72-16.86,4.2-24.37,8-18.83,9.57-34.77,23.06-49.13,38.41A309.75,309.75,0,0,0,806,633.91a334,334,0,0,0-30.31,51,304.78,304.78,0,0,0-16.24,41c-7.09,22.36-11.21,45.09-10.07,68.63.63,13.09,3.21,25.61,10.94,36.53C764.15,836.37,768.84,840.74,775.43,843ZM1200,1270.77c-3.18-.43-3.78,1.32-3.9,3.55-.35,6.35-.59,12.71-1.08,19-1.33,17-2.52,34.06-4.25,51-1.45,14.27-3.17,28.54-5.53,42.68-2.72,16.29-5.12,32.66-9.34,48.67a28.21,28.21,0,0,0-.44,4.41c8.53.86,16.56-.18,24.51-1.16C1201,1434.11,1201,1276.07,1200,1270.77ZM785.89,752.94l.83.73c1.11-.89,2.25-1.74,3.31-2.69,17.41-15.69,34.74-31.48,52.27-47,4.19-3.72,7.66-7.84,9.45-13.06a73.27,73.27,0,0,0,2.51-11.64c1.63-9.62,1.86-19.56,6.79-28.4,3.42-6.15,7.54-11.5,14.43-14.12,3-1.16,5.95-2.68,9-3.79a19.06,19.06,0,0,0,7.44-5.26c7.2-7.68,14.27-15.47,23.11-21.43,4.81-3.25,9.18-7.12,13.73-10.74.9-.72,1.68-1.58,2.55-2.39a4.18,4.18,0,0,0-4.85-.53c-13.14,5.44-26,11.34-35.41,22.59-1.4,1.67-3,3.18-4.45,4.79a15.39,15.39,0,0,1-7.16,4.69,85.69,85.69,0,0,0-10.07,4.1,12.17,12.17,0,0,0-3.64,2.26,54.24,54.24,0,0,0-15.09,27.22c-1.67,7.24-2.69,14.64-3.77,22-.93,6.34-3.37,11.8-8.22,16.09-3.67,3.25-7.3,6.56-11,9.8-11.16,9.87-22.38,19.67-33.49,29.6a16.91,16.91,0,0,0-4.31,5.46C788.24,745,787.19,749,785.89,752.94ZM639.77,1275.06c-.08,1.53-.21,2.76-.21,4q0,80.71,0,161.44a39.19,39.19,0,0,0,.39,4h8.86c1.18-6,.8-162.66-.39-169.47-1.51-.09-3.1-.24-4.69-.25C642.52,1274.75,641.3,1274.94,639.77,1275.06Zm219.44-5.68v168.48c6,1.38,11.77,2.07,17.65,1.21a16.49,16.49,0,0,0,0-2c-2-13.64-4.25-27.26-6-40.93-1.5-11.51-2.63-23.08-3.62-34.66-1.42-16.64-2.74-33.29-3.79-50-.77-12.32-1.06-24.67-1.56-37C861.79,1272.69,861.89,1270.85,859.21,1269.38ZM780.3,840.48a20.92,20.92,0,0,0-1.16-2.26c-5-7.42-7.37-15.8-8.59-24.46a136.09,136.09,0,0,1-.37-35.33A230.49,230.49,0,0,1,779.12,737a303.43,303.43,0,0,1,20.78-50.27c8-15.31,16.75-30.19,27.34-43.87,7.11-9.2,14.68-18,22-27.06a8.69,8.69,0,0,0,.78-1.81l-3.59-3.35c-5.91,6.83-11.81,13-17,19.76a343.72,343.72,0,0,0-33.16,51.15c-14.92,28.55-26.29,58.25-30.76,90.29-2.53,18.14-2.78,36.21,3.22,53.9C770.84,831.91,774,837.2,780.3,840.48Zm553.24,436.72c-.63.59-.84.69-.88.83a6.31,6.31,0,0,0-.36,1.59c-.07,1.45-.1,2.91-.1,4.36q.06,54.29.14,108.56a.78.78,0,0,0,.23.48c.07.1.24.11.37.16,7.79-16.19,20.42-103.15,17.49-114.49C1344.77,1278.1,1338.94,1277.38,1333.54,1277.2Zm-593.14,163a9.2,9.2,0,0,0,.61-1.36,7.94,7.94,0,0,0,.18-1.61q0-80.73,0-161.44c0-1.26-.16-2.53-.25-3.79a1.31,1.31,0,0,0-.15-.52,4.27,4.27,0,0,0-.55-.61h-4.63v4.66q0,74.71.07,149.44c0,4.71.52,9.42.84,14.13,0,.3.36.58.69,1.1ZM776.29,822.6l.69-.15q-.3-3.21-.61-6.43c-.24-2.34-.59-4.69-.72-7-1.29-22.81,2.82-44.89,9.46-66.56a304.43,304.43,0,0,1,20.07-49.37C813.79,676.18,823.43,660,835,645c5.88-7.62,12-15,18-22.6,1.15-1.47,2.91-2.68,3.1-4.71-2.33-1.79-3.62-.41-4.84,1-4.62,5.38-9.4,10.63-13.79,16.19a328.31,328.31,0,0,0-42.27,69.7c-11.38,25.55-19.74,51.91-22.08,79.94a121.73,121.73,0,0,0,1.79,34.18A28.85,28.85,0,0,0,776.29,822.6Zm118.38-253c-3,1.2-6,2.18-8.87,3.65a159.57,159.57,0,0,0-31,21.08c-17.81,15.45-32.92,33.35-46.08,52.83a322.78,322.78,0,0,0-29,52.92,306.06,306.06,0,0,0-13.8,39A200.5,200.5,0,0,0,758.78,782c-.42,7.63-.46,15.24,1.59,22.72a27.12,27.12,0,0,0,.29-5.39,163.22,163.22,0,0,1,1.68-29.86c2.92-19.88,8.59-39,16-57.54a332.67,332.67,0,0,1,54-90.21,239.39,239.39,0,0,1,36.84-35.44C877.25,580.05,886.06,575.13,894.67,569.63ZM658.28,1444.44v-7.13q0-77.22,0-154.44c0-1.63.06-3.28-.08-4.9a18.8,18.8,0,0,0-.78-3.08l-3.28.15c-1.13,5-1.17,164.25-.06,169.4Zm547-174.77c-1.12,5.13-1.14,164.3,0,169.32h3.41c1.09-5,1.08-164.3,0-169.32Zm-353.65-1.32c-1.12,5.46-1.09,164.64,0,169.56a12.41,12.41,0,0,0,2,.2,7.43,7.43,0,0,0,1.76-.59v-6q0-78.3,0-156.59c0-1.64,0-3.28-.11-4.91a6,6,0,0,0-.58-1.56Zm457.44,173.91c1.1-4.94,1.11-164.17,0-169.32h-3.37c-1.12,5-1.16,164.19,0,169.32Zm71.54,4.54c.1-2.72.26-5,.26-7.35q0-77.15,0-154.28c0-1.45.07-2.91-.05-4.35a34.73,34.73,0,0,0-.64-3.54h-3.91v6.14q0,78.49,0,157c0,1.63,0,3.27.11,4.9a5.16,5.16,0,0,0,.61,1.48Zm-12-.48c1.66.78,2.79.77,3.21-.94a10.34,10.34,0,0,0,.2-2.16c.22-8,.6-16,.61-24q.09-68.16,0-136.33v-5.54h-3.83c-1,5.69-1.5,140.43-.66,165.45C1368.29,1444.06,1368.55,1445.28,1368.68,1446.32ZM968.79,611.86a62.84,62.84,0,0,1,0,7.52c-1.39,11.71-2.52,23.42-4.86,35a330.5,330.5,0,0,1-22.09,68.22,367.07,367.07,0,0,1-35.73,63.5,322.93,322.93,0,0,1-34.7,41.91c-6.94,7-14.4,13.31-22,19.58-1,.84-1.95,1.8-3.29,3,1-.1,1.34,0,1.59-.19a29.19,29.19,0,0,0,2.74-1.78A240.2,240.2,0,0,0,886.7,815a314.32,314.32,0,0,0,27.9-36.92,400.8,400.8,0,0,0,25.48-45.59,377.7,377.7,0,0,0,14.58-35.75,246.07,246.07,0,0,0,7.57-25c2.73-11.28,5.32-22.62,6.34-34.24C969.31,629,970.69,620.58,968.79,611.86Zm107.17,826c.78-10,.29-19.74.38-29.48s.05-19.62,0-29.43-.2-19.62-.28-29.43-.16-19.62-.19-29.43c0-9.66,0-19.33,0-29a62.78,62.78,0,0,0-.78,11.43c-.13,6.72-.2,13.44-.53,20.15-.83,16.86-1.68,33.72-2.73,50.57-.85,13.77-2,27.52-3,41.28-.51,6.69-1.16,13.38-1.67,20.07-.12,1.54-.55,3.24.94,4.48Zm-459.63,11c0-2.12,0-4.09,0-6-.2-11.28-.57-22.55-.59-33.82q-.12-61.12,0-122.24a33.9,33.9,0,0,0-.34-6c-.12-.64-1.39-1.08-2.88-2.13-.08,2.85-.18,4.8-.18,6.76q.3,79.13.63,158.24c0,1.76.21,3.52.33,5.41ZM939.88,654.14c5.17-15.5,5.87-51.91,1.24-61.5l-4.69.32c-2.32,2.22-2.17,4.61-2.16,7q0,25,0,50.09c0,1.41.22,2.82.36,4.49Zm43.83,612.45c-.15,2.53-.31,4-.31,5.38q0,80.16,0,160.33a13.49,13.49,0,0,0,.27,3.77c.14.49,1.3.68,2.68,1.34v-6c0-9.64,0-19.27,0-28.91q.2-64.62.41-129.24a23.16,23.16,0,0,0-.37-4.86C986.3,1267.87,985.18,1267.54,983.71,1266.59Zm96.66,169.85c1.78.94,3,.86,3.31-.81a38.28,38.28,0,0,0,.27-6q0-73.67,0-147.32c0-4,0-8-.12-12a19.65,19.65,0,0,0-.9-3.58c-1.16.9-2.33,1.34-2.54,2.06a15.5,15.5,0,0,0-.31,4.32q0,79.11,0,158.23C1080.08,1433.14,1080.28,1434.91,1080.37,1436.44ZM929.4,518.2c.18,4,.56,7,.38,10.06a6.65,6.65,0,0,0,3.58,6.73,83.39,83.39,0,0,1,7.45,4.36c4,2.94,8.7,4.25,13.25,5.93.23-.57.5-.9.48-1.22a48.15,48.15,0,0,0-7.86-24,5.64,5.64,0,0,0-5.11-2.6C937.81,517.64,934,517.92,929.4,518.2Zm460,762.57c-2.08,3-1.5,5.43-1.5,7.64q-.08,63.22-.07,126.46c0,3.63-.22,7.26-.28,10.89-.12,7.63-.23,15.26-.26,22.9a8.41,8.41,0,0,0,.86,2.51,5,5,0,0,0,1.37-3.14C1390.56,1429.06,1390.6,1287.43,1389.41,1280.77ZM983.13,651.85c-3.46,13.58-6.28,27.22-10.4,40.59a381.08,381.08,0,0,1-28.36,67c-4.34,8.16-9.07,16.15-14.08,23.92a366.93,366.93,0,0,1-30.67,40.94,12.78,12.78,0,0,0-1.15,2c3.58-2.77,6.28-6.15,9.11-9.41a295.83,295.83,0,0,0,26.23-36.1,370.68,370.68,0,0,0,20.52-37.15,375.5,375.5,0,0,0,16-38.71,309.57,309.57,0,0,0,12.35-47.9C983,655.36,983,653.59,983.13,651.85ZM947,1436.75c1.5-1.77,1.12-3.75,1.1-5.63-.16-21.26-.41-42.51-.58-63.76-.07-9.45,0-18.9,0-28.34q0-32.71,0-65.41c0-1.84.51-3.85-1.25-5.5C946,1324.33,945.3,1380.53,947,1436.75Zm223.63,209.48,5.58-3.36c-3.42-7.82-6.51-15.26-10.35-23-2.8,2.22-5.9,2.83-8.38,5.47C1161.79,1632.18,1166,1638.86,1170.65,1646.23Zm-350.52-25.1c-3.61,8.07-6.9,15.41-10.35,23.1l5.77,2.92c4.48-7.2,9.14-13.75,13.12-21.24Zm22.29,20.51c1.86,1.4,3.19,2.92,5.82,2.79,4.14-6.74,8.54-13.43,12.53-20.66-3-1.76-5.48-3.45-8.83-4.09C848.72,1627.12,845.58,1634.35,842.42,1641.64Zm109.47,33.69c-1,8.85-3.16,16.86-3.44,25.57h5.76c2.34-8.14,4.95-16,7-24.19Zm86.79,1.55c2,8.51,4.42,16.41,7.22,24.55l5-.75c.38-7.78-2-14.78-2.53-22a12.11,12.11,0,0,0-1.19-3.08ZM1280,1485.25l19.83,12.18,3.37-4.82c-3.8-4.47-13-12.16-17.22-14.38Zm-587.73-5.83-18.12,14.76c1.34,1.85,2.45,3.4,3.72,5.17,6.7-4.15,13.34-7.66,19.87-12.2C695.79,1484.46,694.16,1482.15,692.22,1479.42ZM1116.29,1623l12.36,21.21,5-3.34-9.33-22.64ZM1314.06,1489c6.89,4.21,13.26,8.56,20.44,12.39,1.06-1.94,1.88-3.46,2.63-4.84-5.18-5.45-14.62-12.89-18.29-14.43Zm-216.54,176.26a213.21,213.21,0,0,0,6.1,22.65,4.73,4.73,0,0,0,5.49-2.18c-.92-7.23-1.88-14.87-2.92-23.09Zm-207,20.91a5.36,5.36,0,0,0,5.8,1.63c2-7.29,4.26-14.67,6-22.51l-8.42-2.63C892.18,1670.65,891.58,1678.39,890.49,1686.14Zm111.68-27.87v23.07c1.57,1.4,3.23,1.68,5.54.64.84-7.61,2.63-15.34,2.87-23.71Zm91.89,31.77c2.43.54,4.34.69,5.93-1.68-2-7.06-4-14.32-6.1-22l-6.89,1.72c.21,2.51-.07,4.8.64,6.73C1089.58,1680,1091.94,1685.08,1094.06,1690Zm-159.54-4.21c2.91-5.94,7.08-19.08,7.32-23.11l-7.52-2.83c-.88,4.45-1.8,8.49-2.44,12.57s-2.45,7.93-1.55,12.08ZM922.9,1658.2c-1.42,6.5-2.15,18.45-1.49,24.6a8.26,8.26,0,0,0,1.84.8,13.71,13.71,0,0,0,2.47,0c2.19-6.83,4.6-20,4.45-24.31Zm142.6,1.65-8.23,3.22,7.34,22.94,5.08-1.86C1069,1676,1066.92,1668.36,1065.5,1659.85Zm-159.89,30.47c2.43-7.33,7.69-13.62,6.78-21.74-3.38-1.81-3.38-1.84-6.86-1.43-1.7,6.26-3.45,12.69-5.18,19.13a4.77,4.77,0,0,0-.14,1.08c-.11,1.73.65,2.78,2.41,3C903.5,1690.39,904.39,1690.32,905.61,1690.32Zm291.91-45.1c-3.29-7.58-6.43-14.84-9.67-22.33a26.09,26.09,0,0,0-2.8,1.06c-.94.49-1.81,1.13-2.64,1.66,2.95,11.78,5.33,17,10.41,22.48Zm44.16-76,13.93,15.63,4.66-4c-3.21-6.31-9.33-15.13-12.23-17.72Zm-466.14-1.1c-2.44-2.55-4-5-7-6.59L757,1579.15l5.19,4.13Zm216.6,114.37c5.22-.29,5.47-.38,5.53-4,.1-6.15.06-12.31,0-18.46a13.17,13.17,0,0,0-.76-3l-4.07.68-4.07.61Zm77.23-23.15c.61,8.34,2.68,16.15,4.06,24,4.52.12,5-.08,5-3.3-.08-6.17-.39-12.34-.74-18.51a13.47,13.47,0,0,0-1.2-3.48Zm148.07-81.57c-4-6.37-7.32-12.47-11.76-18.36l-6.26,7.21,12.86,15.07ZM699.6,1490.24c-7.06,4.07-13.42,8-20,12.12l2.7,5,21.14-9.28Zm34.16,96.45,13.42-15.44a32.67,32.67,0,0,0-6.13-6.76c-4.09,6-8.08,11.52-11.6,18.34Zm408.32,52.19c-2.06-8-3.91-15.08-5.71-22-4.65-.43-4.65-.43-8.14,1.18,2.55,7,5.43,14,8.37,20.86ZM1298,1500.42c-6.7-4.27-12.77-8.31-19.25-11.69-2.12,4-2.12,4-2.4,7.74,6.36,2.94,12.82,5.93,19.73,8.7C1296.74,1503.41,1297.25,1502.13,1298,1500.42Zm-178.64-230.78H1119v143.68h.32Zm48.5,378.42c-4.69-7.21-8.75-14.17-13.69-21.26l-5,4.35c3.94,6.5,14.12,18.84,15.91,19Zm164.62-143.82c-6-3.41-11.12-7.29-17.4-10.24-.78,3-2.64,5.11-2.23,8.15,2.84,1.28,5.59,2.55,8.37,3.76s5.5,2.28,8.36,3.47ZM944.23,586c-.55-13-11.23-33.74-21.22-37.75-.81,3.62-.84,3.65.61,5.29,1,1.08,2,2.09,3.06,3.08,7.1,6.69,12.55,14.43,15.4,23.88C942.64,582.41,943.5,584.2,944.23,586Zm305,1005,3.68-3.93c-2.38-2.71-4.46-5.2-6.66-7.58s-4.26-5.28-7-7.47c-1.92,1.89-3.94,3.15-4.78,5.9Zm-407.79,26.77c-2.24,7.41-4.4,14.58-6.6,21.84,4.33.51,4.4.54,5.58-2.1q3.54-7.92,6.93-15.9a20.77,20.77,0,0,0,.8-3C846.08,1617.25,844.13,1617.53,841.48,1617.79ZM932.5,570a11.28,11.28,0,0,0-1.46,2.74c-.85,4.92-1.49,9.87-.85,14.79,5.6.86,6.43.83,10.16-.35C939,580.34,936.61,574.63,932.5,570ZM930.69,397.8c-1.22,9-1,111.67,0,116.69ZM778,1570.39l-13.29,15,3,3.76c5-4.45,10-8.51,14.73-13.41Zm85.7,55.68c-1.34,2.06-2.35,3.55-3.29,5.07-2.85,4.6-5.63,9.24-8.5,13.82-1.15,1.83-1.07,3.22,1.24,4.58l14.42-19.06Zm345.44-68c3.47,5.58,6.67,10.82,10,16,1.41,2.19,1.52,2.11,5,.46-3-6.08-5.28-12.5-9.16-18.24Zm-39.69,61c3.29,7.39,6.22,14,9.11,20.51.86,1.93,2.09,2.13,3.92,1-2.52-7.39-4.53-14.82-7.6-22ZM614.73,1452.64c3.91,2.45,7.39,1.81,10.72,1.91s6.9,0,10.36,0h10.36c3.45,0,6.91,0,10.36,0a45.89,45.89,0,0,0,9.64-.64C649.34,1452.46,632.49,1452.73,614.73,1452.64Zm595.16,131.62c-2.19-2.63-4.2-5.19-6.37-7.6s-3.8-5.17-6.68-7.12c-1,1.73-1.88,3.1-2.85,4.72,4.51,4.5,8.7,9.14,14,13.13Zm-387.4,67.83c3.18-3.47,6.08-6.25,5.91-11-.07-2.23,1.17-4.49,1.74-6.75.31-1.23.48-2.49.71-3.73l-.69-.21L818.49,1649Zm405-73c-6.92-.87-13.81,3.93-16.4,11.41a9.18,9.18,0,0,0,7.55-1.69C1222.27,1586.28,1226.23,1583.89,1227.5,1579.05Zm92.4-128.35,0,1.62c16.89,0,33.77.56,50.64-1.62Zm-617.16-2.09H653.53c7,1.35,41.29,2.32,47.45,1.37C701.4,1449.91,701.76,1449.39,702.74,1448.61Zm425,202.19a16.3,16.3,0,0,0,13.25-2.75c1.87-1.27,4.35-2,4.42-4.88C1137.79,1641.85,1131.35,1644.54,1127.71,1650.8Zm-373.62-73.2c3.64-6.14,7.87-11.85,11.66-18.27l-4.6-1.79c-3.32,6.39-6.53,12.56-9.84,18.91ZM1336.29,1456v.77H1340l23.93,0q9.24,0,18.49-.06c1.47,0,3.06.17,4.49-2ZM773.77,1444.9c-5.24,0-10.48.09-15.72,0-7.22-.17-14.44-.51-21.66-.72a6.78,6.78,0,0,0-2,.61,12.94,12.94,0,0,0,5.43,1.24c3.06.22,6.11.56,9.17.64C757.24,1446.89,765.54,1447.73,773.77,1444.9Zm526,63.46c7.28-3.61,10.52-8.91,11.66-15.88-2.53-.77-4,.42-5.06,1.83C1303.38,1498.26,1300,1502.1,1299.8,1508.36Zm-33.1-60.4c13.19,0,26.38,0,39.57,0a11.76,11.76,0,0,0,3.31-1.08C1295.2,1446.32,1281,1445.64,1266.7,1448ZM946.38,1680.59c-1,2.42-2,4.86-3.12,7.24-.68,1.45-1.23,3.21-2.39,4.13-2.41,1.92-2.48,4.14-1.87,7l5.37,1.31C945.78,1693.55,946.86,1687.27,946.38,1680.59Zm115,17.89c-.72-2.27-.83-4.47-2-5.76a20.28,20.28,0,0,1-3.23-5.54c-1.13-2.51-1.75-5.29-3.85-7.82.22,7.2,2.08,17.47,3.71,20.64a10.18,10.18,0,0,0,2-.17A34.68,34.68,0,0,0,1061.38,1698.48ZM917.54,570.38c-7.42-12.54-7.7-24.39-.66-36.51C907.07,541,907.17,561.26,917.54,570.38Zm196.66,1055.7c-2.58,2.22-2.6,3.9-1.19,5.86,3.47,4.88,6.84,9.83,10.29,14.72.27.38.87.54,1.59,1,.08-.92.42-1.75.15-2.25C1121.56,1639.06,1118,1632.8,1114.2,1626.08Zm-365.43-40.35-4.26-6.34-7.82,9.07,3.85,4.36Zm463.13-142.32a153.06,153.06,0,0,0-31.91.86C1189.8,1446.17,1205.7,1446,1211.9,1443.41ZM805.56,1642c2.56-1.61,3.28-4.2,4.37-6.54,1.22-2.62,2.5-5.22,3.53-7.91.92-2.4,2.83-4.56,2.5-7.29-2.45-1-3.3.08-3.92,1.87-2,5.79-4.13,11.56-6.15,17.36A12.14,12.14,0,0,0,805.56,1642Zm502.21-152.78c-4-5.44-11.45-12.9-15.63-15.75l-2.64,2.34c4.92,4.15,9.46,8,14,11.83a20.17,20.17,0,0,0,2.68,1.79C1306.44,1489.54,1306.88,1489.33,1307.77,1489.2Zm-435.34-45.83c-7.71-1.86-15.51-1.74-23.31-1.57-.68,0-1.35.56-2.92,1.26C855.63,1446.22,864.05,1444.26,872.43,1443.37Zm285.5,214.3,5.12-2.82c-2.62-3.16-5-6.12-7.47-9-1.18-1.34-2.5-1.35-3.75.59C1153.72,1649.94,1155.68,1653.55,1157.93,1657.67Zm-324.34-13.36c4.21,4.67,8.88,8.18,16.64,7.78C845,1647,840.41,1643.33,833.59,1644.31ZM1090.31,763.8c0,.25,0,.51-.07.76a38.64,38.64,0,0,1,4.7.29c1.56.29,3.52.46,4.5,1.47,2,2,4.2,1.75,6.49,1.56,3-.24,6.09-.6,9.12-1a12.33,12.33,0,0,0,2.18-.71l-.15-.83Zm-81.28,924c-4.08-3.21-12.41-3.32-17.94-.3,1.19,1.72,3,1.88,4.75,1.83C1000.23,1689.22,1004.8,1690.37,1009,1687.8ZM935.2,1266.71l-.06-.31H879.67v.31Zm219,391.72a49.45,49.45,0,0,0-6.2-10.73l-4.13,3c1.9,2.71,3.48,5.11,5.21,7.39C1150.59,1660.1,1150.67,1660,1154.18,1658.43Zm-404.85-77.87c4.19,5.76,8.2,10.2,15.31,11.17C760.29,1585.12,755.16,1581.21,749.33,1580.56Zm-114-271.79.61-.06c0-8.87,0-17.74,0-26.61a8.24,8.24,0,0,0-.59-1.88c-.84.62-1.88,1-2,1.58a11.59,11.59,0,0,0-.13,3.77C633.85,1293.31,634.59,1301,635.32,1308.77ZM859.75,614.54c0-5.12-3.81-7-6.35-10.28l-3.69,3.86C852.35,611.42,855,614,859.75,614.54ZM1264.65,1579a9.87,9.87,0,0,0-.49-2.33c-2.8-5.07-5.64-10.12-8.48-15.16-.27-.47-.54-1.2-.92-1.29a13.22,13.22,0,0,0-2.85-.06C1254,1565.18,1261.6,1576.47,1264.65,1579ZM1060,1687.68c-.18-6.68-4.64-19.47-7.1-23-.37,1.27-1.1,2.36-.83,3.07C1054.65,1674.41,1057.37,1681,1060,1687.68ZM928.8,536.42c-3.86-2.93-6-2.93-9-.09A13.48,13.48,0,0,0,916.07,547C918.37,541.37,923.62,539,928.8,536.42Zm-221.29,734.9.21-.85c-11.59.49-23.17,1-34.75,1.51a9.48,9.48,0,0,0-2.42.82l.15.76Zm540.69-1.21c2,0,3.89,0,5.84,0,6,.07,12-.36,17.89.38,7.24.91,14.41.53,21.61.41C1278.44,1270.21,1263.37,1268.79,1248.2,1270.11ZM946.23,1665c-3.15,6.31-7.17,19.17-7.06,22.82,2-2.55,2.57-5.45,3.69-8.07,1.64-3.84,3.18-7.72,4.78-11.57C948.19,1666.81,948.28,1665.67,946.23,1665ZM930.55,567.33a7.11,7.11,0,0,0-1.74-.76c-5.59-.43-9.85-2.79-12.15-8.13-.06-.14-.43-.16-.82-.29a19,19,0,0,0,5.39,9.9,5.63,5.63,0,0,0,4.48,1.4C927.39,569.37,929.41,570.06,930.55,567.33Zm156.94,873.35c-5.48,0-11.07-.33-16.71,1.6,6.3,1.84,12.47,1.74,19,1.35Zm246.35-168.21-.11.67a4.3,4.3,0,0,0,1.36.67c6.48.61,13,1.24,19.45,1.68,1.18.08,2.41-.65,3.62-1l-.21-.53Zm-644,204.6c-3.27-2.14-4.18.34-5.49,1.36-1.56,1.22-3,2.61-4.43,4s-3.21,2.91-4.68,4.49c-1.21,1.32-3.15,2.1-3.05,4.57ZM924,603.94c2.27,3.45,2.27,3.45,6.1,5.63.64-5.73.62-6.12-.62-10Zm320.43,989.92-7.06-5.87-3,2.75,6,6.81Zm-61.55,51.19c-3.57-.52-5.85,1.43-8.27,2.78s-5,2.31-6.59,5.5C1174.25,1652.27,1179.06,1650,1182.89,1645.05Zm5.66-377.29v-.39h-38.33v.39Zm-105.06,414.8c0-3.85.16-7.7,0-11.54s.9-7.92-1-12.28C1080.91,1663.23,1081.36,1675.16,1083.49,1682.56ZM678.11,1508.39a33.69,33.69,0,0,0-9.26-14.42C670.51,1500.74,672.75,1505.59,678.11,1508.39Zm-50-50.06v.35h36.15v-.35Zm167.34-189.4c0-.22,0-.43,0-.65-5.79,0-11.59,0-17.38,0s-11.57.14-17.35.21v.43Zm65.46,389.29c1.59-1.94,2.67-3.7,1.93-6.35l-5.23-1.64c-.43,2.12-.76,3.78-1.13,5.61ZM1065.4,1690c5,.59,10.13,1,15.19-3.39C1074.7,1686.8,1069.93,1687.46,1065.4,1690Zm-200.67-30.62c5.28,2,5.28,2,7.49-4l-5-1.55C866.3,1655.8,865.57,1657.44,864.73,1659.36ZM934.64,1690c-4.75-2.53-9.74-3.22-15.79-3.47C924.08,1690.93,929.39,1690.61,934.64,1690ZM636.89,1275.3c-6.08-1-10.75.09-15.43,1.18C626.22,1276.15,631.12,1279.87,636.89,1275.3Zm280.36,406.43c.49-7.11,1-13.58,1.32-20.06,0-.79-.57-1.62-1.14-3.11C916.05,1663.68,916,1676.64,917.25,1681.73Zm-252.17-186.6c-5,3.21-5.14,4.19-1,7.59C667.22,1500.46,667.22,1500.46,665.08,1495.13Zm588.46,96c5.59-.94,9.14-4.12,10.72-8.95Zm-580.83-81.62c-1.43-1.91-2.29-4-4.49-5.14l-2.88,2.3,3.28,4.7a13.26,13.26,0,0,0,2-.53C671.18,1510.51,671.74,1510.09,672.71,1509.48Zm472.66,127c-.3-8.51-2.33-16.73-4.78-19C1141.38,1624.39,1143.53,1630.43,1145.37,1636.5Zm-307.44,16.63c-1.55-1.85-2.81-2.36-4.08-.41-1.05,1.6-2.07,3.22-3,4.71,1.17,1.66,2.33,1.65,3.31.55C835.52,1656.43,836.71,1654.71,837.93,1653.13ZM1008.27,1692l-6,1.32v3.34h5.16C1007.64,1695.32,1007.89,1694,1008.27,1692Zm310.48-175.15.49-1.11c-4-2-8-4-12.1-6-.39-.18-1.19.5-2.63,1.15Zm-328.62-80h.4V1413.2h-.4Zm207.5,199.07c-1.88-8.47-3.33-12-6.84-15.69A100.11,100.11,0,0,0,1197.63,1635.91Zm-205.31,64.6c6.62,2.52,9.92,2.43,14.34,0Zm235.95-104.68c3.59.58,4.2,4.77,8.27,3.31-1.29-2.66-3.18-4.36-5.15-6.27ZM987.46,1440.62c-1.55,0-3.1,0-4.64,0-1.74,0-3.44-.18-4.85,1.54-.7.85-2.43.85-3.69,1.23C978.66,1442.47,983.39,1443.55,987.46,1440.62Zm196.7,212.79,4.69-3.1c-.78-1.41-1.4-2.53-2.34-4.25a57.27,57.27,0,0,0-3.4,4.78C1182.91,1651.2,1183.59,1652.07,1184.16,1653.41Zm-186.81,39.77-5.41-.94c.15,1.79.25,3,.36,4.32h5.05ZM882.74,765.42c.91,2,2.56,1.53,3.78,1.52,2,0,4.27.92,6.51-1.53C889.29,764.72,886.18,765.19,882.74,765.42Zm-127.2,827.06a8.51,8.51,0,0,0-6.09,5.52A9.87,9.87,0,0,0,755.54,1592.48Zm594.89-131.57v-.39H1334v.39ZM817.14,1653c-3.92-3.47-6.66-4.88-9.78-5.31A18.15,18.15,0,0,0,817.14,1653ZM691.69,1510.41c1.33,2.17,1.83,4.43,4.62,4.87-.08-3-.65-4.4-2.47-5.45C693.47,1509.62,692.69,1510.12,691.69,1510.41Zm380.15-243.78.17-.29h-14.58v.29Zm197.72,313.57c-.21,2.62-2.14,4.33-2.08,7.06C1271.93,1584.08,1271.93,1584.08,1269.56,1580.2Zm-257,91.91c1.4-3,2.9-6.23,1.46-9.85C1013.51,1665.55,1013,1668.83,1012.54,1672.11ZM930.17,387.68l.61-.16V376h-.61ZM738.37,1562.2l-1-.74a14.56,14.56,0,0,0-4,8.3Q735.88,1566,738.37,1562.2Zm66.91-294.7v.28h8.26v-.28Zm165.17,172.66v-.26h-8.39v.26Zm-2.13-835.68.84.15c0-1.21.08-2.42,0-3.62s-.34-2.26-.52-3.39l-.3.06ZM1325,1480.15c-.24.29-.48.57-.71.86l4.71,3.74.49-.57Zm-290,198-.71.22c.14.64.24,1.28.43,1.9a8.54,8.54,0,0,0,.61,1.43c.21.43.48.82.73,1.23l.58-.32C1036.07,1681.08,1035.52,1679.6,1035,1678.11Zm142.32-20.48,1.08-.92c-.66-.62-1.3-1.26-2-1.83a2.78,2.78,0,0,0-.68.55C1176.21,1656.18,1176.76,1656.9,1177.3,1657.63Zm-67.19,9.44.53.09c0-.68.11-1.36.09-2a6.75,6.75,0,0,0-.26-1.31l-.36.15ZM983.5,645.58l.6,0-.18-3.17-.42,0ZM888.66,1671.27h.27v-3.07h-.27Zm69.78-1126,.92-.23-.54-3.5-.59.08Zm426.75,732,0,1.16,2.84-.62-.08-.54Zm-482-732.71c-.12-.27-.23-.54-.34-.82l-3.56,1.45a11.65,11.65,0,0,0,2.37.11A7,7,0,0,0,903.21,544.58Zm-3.11,23.23.62.56,2.45-1.31-.27-.51ZM985,632.19h-.27v3.58H985ZM829.15,1653.73c-1.39.28-2.77.57-2.49,3Z"/><path d="M1016.18,1652.78c-.83,0-1,0-1.19-.06-10.48-.86-10.22-1.59-13-10.06-1.86-5.68-3.08-11.58-4.79-17.32a8.23,8.23,0,0,1,1.51-8.06c2.58-3.47,5.67-4.91,9.87-5.7a41.49,41.49,0,0,1,16.69.23c6.31,1.34,9.9,6,9,12.55-.87,6.11-2,12.19-3,18.27a11,11,0,0,1-1.24,3.58c-1.76,3.11-4.13,5.52-7.93,6C1019.88,1652.4,1017.71,1652.62,1016.18,1652.78Zm-.43-16.27c.07-7.49.11-14.8-1.29-22.56l-8.53,1.82c.5,7.78,2.3,14.87,3.87,22.23Zm8.48,1.29c2.1-5.14,3.22-17.5,2.08-22.18-2.19-.22-4.26-1.8-7-.82-.89,7.27-.05,14.46.28,21.75Zm-17.9,8c1.18,1,2.21,2.38,3.56,2.89,4.19,1.57,8.54,1.23,12.74,0a8.22,8.22,0,0,0,3.34-2.59,2.87,2.87,0,0,0-.7-4.26,8.13,8.13,0,0,0-3.54-1.21c-2.71-.19-5.43-.16-8.15-.08C1010.45,1640.63,1008,1641.93,1006.33,1645.84Zm-1.26-6.29a70.94,70.94,0,0,0-2.65-20.32c-2.59,2.41-2.61,2.41-2,4.51,1.27,4.68,2.51,9.37,3.81,14A9.64,9.64,0,0,0,1005.07,1639.55Z"/><path d="M878.31,1614.79a34.83,34.83,0,0,1,16.47-2.39c6.86.65,11.83,4.1,17,7.65a6.8,6.8,0,0,1,1.91,2.49c2,3.91,2.54,7.56-.41,11.56a142.75,142.75,0,0,0-9.2,14.76,9.06,9.06,0,0,1-7.9,4.84c-5.76.41-11.08-.54-15.89-4.16-3.55-2.67-5.35-6-4.94-10.24C876.16,1631.19,877.29,1623.13,878.31,1614.79Zm11.35.28c-1.6,8-3.56,15.11-4.57,22.82l5.6,1.28c2.81-7.73,5.45-15,8.21-22.55Zm19.51,7.68c-2.23-2.06-4.11-3.93-7.22-4.26l-8,21.76,4.48,3Zm-11.06,26.67c-2.87-6.53-11.76-9.62-18.61-6.53.54,3.78,3.9,5.23,6.58,6.24C889.72,1650.51,893.82,1652.48,898.11,1649.42Zm-12.36-32.79c-3.94.36-4.37.54-4.69,3.06-.67,5.18-1.18,10.39-1.68,15.6a8.06,8.06,0,0,0,.47,2.3l1.29.11C883.1,1631,884.19,1624,885.75,1616.63Zm15.84,28,.88.49q4.51-7.41,9-14.82c.66-1.08.85-2.15-.43-3.74Z"/><path d="M1093.34,1613.89c1.52,9.9,1.48,19.5,1.41,29.1,0,2.18-1.12,3.69-2.52,5.21-5.24,5.69-15.3,6.38-21.77,3.91a5.69,5.69,0,0,1-2.61-2.57c-3.33-6.24-6.65-12.48-9.69-18.86-2.23-4.67-.52-9.6,3.34-13,7.23-6.39,15.75-6.55,24.53-5.58A55.18,55.18,0,0,1,1093.34,1613.89Zm-13.4.68-8.55,1.43c1.06,6.41,5,18.52,7.16,22.1l4.45-.5C1083.79,1633.51,1082,1620.08,1079.94,1614.57Zm-8,33.89c3.1,2.64,6.78,1.62,10.24,1.35a12.38,12.38,0,0,0,8.35-4.48c.58-.67.4-2,.56-3C1082.41,1638.87,1074.58,1641.37,1072,1648.46Zm-4.45-31.21-5.49,4.58c2.43,7.17,7.46,17.54,9.66,20.07,2.52-.81,2.65-2.8,2-4.8C1071.83,1630.76,1069.78,1624.48,1067.5,1617.25Zm17.22-1.43c.12,2,.11,3.94.39,5.85.54,3.74,1.24,7.47,1.88,11.2a19.58,19.58,0,0,0,.56,3.18c.54,1.56,1.63,2.31,3.75,1.3-.29-6.78.36-13.77-1.34-20.68-1.2-.4-2.19-.81-3.23-1.05A7.42,7.42,0,0,0,1084.72,1615.82Z"/><path d="M937.05,1613.44c1.91-.51,3.5-.85,5-1.35,6.46-2.11,12.87-1,19.27.29,4.59,1,7.18,4.66,10.12,7.78.56.6.45,2.08.27,3.09a47.22,47.22,0,0,1-1.77,7.38c-2.08,5.79-4.51,11.46-6.54,17.27-.91,2.59-2.73,3.58-5.06,4.34-4.84,1.58-9.64.88-14.37-.33a11.19,11.19,0,0,1-8-9.8c-.46-6.32-.79-12.66-1.09-19A17.56,17.56,0,0,1,937.05,1613.44Zm14.5.73c-1.7,7.91-2.45,17.6-1.85,22.26,2.72,1.17,2.72,1.17,5.72.93.39-1.27.89-2.61,1.23-4,1.43-5.76,2.81-11.54,4.29-17.66Zm8,33.95a15.45,15.45,0,0,0-1.31-3.58A8.36,8.36,0,0,0,953,1641c-3.57-.69-7.15-1.07-10.64.2a12,12,0,0,0-2.74,2C944.48,1650.15,949.36,1651.38,959.57,1648.12Zm-19-10.42c4.44-.8,4.87-1,5.17-4,.59-5.77,1-11.56,1.46-17.34a5.86,5.86,0,0,0-.5-1.75c-1.78.36-3.53.68-5.25,1.1a9,9,0,0,0-1.88,1.19C939.93,1623.64,940.27,1630.64,940.61,1637.7Zm20.67,3.43c2.13-5.67,4.18-10.86,6-16.13,1.26-3.55.8-4.29-3.34-6.55-1.36,5.11-2.7,10.18-4.05,15.26a9.85,9.85,0,0,0-.42,1.57C959.3,1637.18,958.26,1639.26,961.28,1641.13Z"/><path d="M976.88,1590.51a69.42,69.42,0,0,1-8.61-2.32c-3.5-1.41-4.88-4.89-5.72-8.15a105.66,105.66,0,0,1-2.79-15.49c-.44-4.24,1.83-8,3.35-11.86a2.16,2.16,0,0,1,1.26-.94c6.14-2,12-4.33,18.94-2.41,5.86,1.6,9.48,4.22,11.41,10,.85,2.54,1.44,4.69.54,7.24-1.85,5.29-3.69,10.6-5.34,16-1.24,4-3.42,6.62-7.94,6.81A30.29,30.29,0,0,0,976.88,1590.51Zm8-5.49a13.06,13.06,0,0,0,.91-1.76c1.36-3.91-.41-7.15-4.34-8.24-3.53-1-7-1.37-10.57-.09-2.9,1-4.12,2.21-4.2,4.83a6.41,6.41,0,0,0,3.89,5.85A18.15,18.15,0,0,0,984.92,1585Zm2.73-30.14c-4.79-2.27-5.43-2.42-8.94-2.06a90.6,90.6,0,0,0-.75,18.29l5.95.5C985.19,1565.87,986.4,1560.48,987.65,1554.88ZM968.42,1571c5,.33,5.55-.07,5.85-4.09.21-2.89.31-5.79.35-8.69,0-1.93.61-4-.81-6.07l-7.09,2.47A79.34,79.34,0,0,0,968.42,1571Zm21.9-11.87c-3.15,12.09-3.15,12.09-1.89,15.95,1.83-3,2.27-6.28,3.52-9.2C993,1563.39,992.46,1561.44,990.32,1559.15Z"/><path d="M1206.63,1492.36c.65-6.46,2-11.2,5.1-15.84,3.79-5.74,9-8,15.12-9.44a5.27,5.27,0,0,1,3.15.07c3.61,1.67,7.21,3.35,9.55,6.91a74.94,74.94,0,0,0,7.1,9.63c3.95,4.29,3.78,9.12,1.75,13.68-2.12,4.77-5.2,9.08-11,10.55a10.1,10.1,0,0,1-7.82-.72c-6.54-3.53-13.07-7.1-19.73-10.41C1207.32,1495.53,1206.36,1493.84,1206.63,1492.36Zm39.09-2.88a6.06,6.06,0,0,0-5.3-1.08c-5.28,1.31-7.48,5.34-9.2,9.71-.74,1.9-1.31,4.51.63,6.07s4.08.81,6.17.06C1242.89,1502.49,1246.33,1496.05,1245.72,1489.48Zm-27.51-15.43-6.12,8,17,12,3.61-5.33Zm8.14,27.38c1.48-4,1.53-4.13-.73-5.76-3.82-2.75-7.69-5.42-11.59-8.06a20.17,20.17,0,0,0-3.31-1.37c-.2,2.65-.35,4.71-.5,6.78Zm-4.88-29.1c4.35,5.16,9,9.13,13.37,13.25,1.65,1.54,3.22.57,4.73-1-3.87-4.93-7.35-9.93-11.81-14.27Z"/><path d="M835.84,1486.56c.57,5.06-1,8.31-5.44,10.47-5.21,2.52-10,5.93-15.18,8.51-6.65,3.33-13.11,1.27-17.53-4.8-4.2-5.78-4.44-11.64-1.06-17.81q2.88-5.27,5.58-10.6a7.62,7.62,0,0,1,3.83-3.63c8.22-3.83,11.57-4,19.59-.41a4.34,4.34,0,0,1,1.86,1.09C831.25,1474.78,837,1479.28,835.84,1486.56Zm-21.19,15.2c1.5-5.75-1.21-10-5.09-13-3.25-2.47-7.59-3.59-11.36,0-1.62,5.71,1,10.22,5.21,13.17C806.45,1504.15,810.77,1505.28,814.65,1501.76ZM826,1473.05l-12.56,14,3.22,5.09c5.19-3,12.36-8.84,14.63-11.94Zm-11.15-4.24-9.4,14.63,5.19,1.78c3.85-4.73,8.52-8.67,12.2-14.33Zm17.4,16c-4.7,3.66-8.55,6.63-12.36,9.65-1.63,1.3-1.8,2.92-.51,5l12.87-7.73ZM802,1482.4c2-3.12,4.09-6.24,6.1-9.38.13-.2-.09-.63-.15-1C805.18,1473.6,803.63,1476,802,1482.4Z"/><path d="M815.91,1592.61c-8.21.26-16.2-7.39-18-13.53a7.63,7.63,0,0,1,.25-4.17c1.7-5.35,3.55-10.66,5.43-16a10.44,10.44,0,0,1,10.76-7.22c5.61.59,11,1.73,15,6.56,3.23,3.92,6.81,7.44,8.37,12.51.74,2.4.47,4.14-1.31,5.87-4.42,4.31-8.72,8.73-13.14,13A9.21,9.21,0,0,1,815.91,1592.61Zm-1.56-16.28,4.65,4.09c4.17-5.12,8.24-9.86,11.58-15-3-4.38-3-4.38-6.31-6.43Zm-.41-21.32-7.72,18.62,5.06,1.14c3.54-6.17,6.86-12,10.46-18.24Zm-11.77,22.91c-.64,5.46,3.85,7.44,7.24,9.6,2.77,1.76,6.31,3.51,9.83.94C816.85,1580.46,809.77,1576.1,802.17,1577.92Zm30.75-9.35c-4,4.53-7.31,9-10.66,13.43-.54.72-.17,2.14-.26,4.12,5.4-4.08,8.7-8.8,12.83-12.88Zm-26.53-6.86c1.43-1,2.51-2.1,1.41-4.48C807.18,1559.2,806.79,1560.46,806.39,1561.71Z"/><path d="M1149.59,1591.6c-4.44,0-7.75-1.16-10.28-4.1-3.43-4-6.79-8-10.21-12-1.58-1.83-1.55-3.72-1.2-6.06,1-6.54,5.43-10.84,9.36-15.52a1,1,0,0,1,.4-.36c5.27-1.91,10.6-4.07,16.3-2.5,7.31,2,7.28,2.19,9.1,9.62,1,3.87,1.91,7.74,2.7,11.64,1.87,9.29-2.77,16.51-12,18.67C1152.23,1591.34,1150.59,1591.45,1149.59,1591.6Zm13.28-14.19c-4.41-2.63-8.71-1.56-12.44.58-3.3,1.88-6.66,4.43-6.06,9.09,4.05,3,8,1.38,11.42-.3S1162.63,1582.58,1162.87,1577.41Zm-21.26-21.92c3.26,6.45,6.2,12.24,9.29,18.36l5.56-1.32c-2-6.63-3.86-12.79-6.41-18.88Zm-2.94,1.83a44.21,44.21,0,0,0-4.12,5.28,4.09,4.09,0,0,0-.18,3.47,94.72,94.72,0,0,0,9.37,13c3.88-3.6,3.93-3.62,2.07-7.44C1143.61,1567,1141.31,1562.56,1138.67,1557.32Zm23.26,15.67c.28-4.31-1.62-8-2.16-11.8a12.6,12.6,0,0,0-1.26-4.14c-.72-1.33-2-2.1-3.55-1.06C1157.42,1565.57,1159.37,1570.43,1161.93,1573Zm-30-4c-.56,1.64-1.1,2.39-1,2.93.62,2.21,7.58,9.83,10.76,11.66C1139.06,1578.1,1135.61,1574,1131.93,1569Z"/><path d="M1154.79,1491.43c.8,4.85-1.87,8.71-4.93,11.54a13.79,13.79,0,0,1-11.71,3.08,22.91,22.91,0,0,1-8-3.32c-4-2.55-7.59-5.59-11.35-8.45a6.45,6.45,0,0,1-2.8-5,32,32,0,0,0-.69-4.85,9.31,9.31,0,0,1,2-8.13,3.2,3.2,0,0,0,.6-.91c2.63-7.38,9.06-9.3,15.71-10.68a11.53,11.53,0,0,1,5.82.42c9.17,3.12,9.13,3.21,12.29,12.6C1153.25,1482.15,1155.13,1486.53,1154.79,1491.43Zm-4.27-4.22c-1.84-.49-4.11-1.66-6.28-1.52-2.41.17-5.36.91-7,2.51-3.42,3.36-5.93,7.5-3.11,12.68,4.45,2.83,9.23,2.64,13.18-.37S1152.69,1492.89,1150.52,1487.21Zm-13.78-3.14c2.08-.65,4.07-.69,5.62-2.35-2.25-4.66-4.42-9.16-6.6-13.7-3.25.31-6,.66-8.64,2.83C1130.38,1475.34,1133.53,1479.67,1136.74,1484.07Zm-2.88,2.63c-3.63-6.61-7.74-11.75-10.68-13.38-1.27,2.13-2.55,4.25-3.8,6.35a61.08,61.08,0,0,0,11.33,11.17Zm6.46-17.14c2.09,4.25,3.8,7.83,5.6,11.37a2.87,2.87,0,0,0,3.67,1.67c-.78-2.57-1.57-4.77-2.12-7C1146.67,1472.24,1144.84,1470.12,1140.32,1469.56Zm-19.71,17.09-1.21.52a15.12,15.12,0,0,0,.91,3.94c.89,1.68,6.82,5.21,9.67,5.94C1127.68,1492.35,1124,1489.6,1120.61,1486.65Z"/><path d="M734.56,1467.89c3.24,1.24,6.3,2.33,9.27,3.61a7.83,7.83,0,0,1,2.46,2c1.32,1.5,2.37,3.26,3.8,4.64,4.35,4.19,5.12,9.85,6.54,15.27a3.41,3.41,0,0,1-1.4,3.82,38.14,38.14,0,0,1-6.17,4.43c-5.54,2.72-11.21,5.16-16.88,7.57-1.43.61-3.24,1.19-4.63.83-2.39-.61-5.13-1.45-6.76-3.13-3.93-4.06-7.17-8.75-7.58-14.71a5.13,5.13,0,0,1,.78-3.46q8-9,16.23-17.65A31.13,31.13,0,0,1,734.56,1467.89Zm-3.42,27.22c5.5-2.57,15.63-9.31,18.28-12.12-.84-1.12-1.65-2.3-2.57-3.38s-2.12-2.29-3.41-3.65c-5.47,4.89-11,9.18-16.08,14.52Zm20.23-8.42L733,1498.49c.39,1.73.69,3.07,1.12,5l19.09-9.12C752.58,1491.77,752.06,1489.57,751.37,1486.69Zm-20.82,18.6c-.1-5-2.48-8.61-5.36-11.85a13.57,13.57,0,0,0-4.82-3.2c-2.16-.92-3.68.23-3.49,2.47.47,5.58,3.6,9.71,7.92,12.85C726.35,1506.68,728.69,1508,730.55,1505.29Zm4.55-33.57-13.72,15,3.45,1.35c4.83-4.34,9.51-8.53,14.15-12.77.32-.3.33-.94.54-1.62Z"/><path d="M873.55,1575.9c.87-6.65,1.75-13.3,2.59-20,.23-1.81,1.25-2.72,2.81-3.62,7.14-4.1,14.32-2.85,21.53-.48a6.08,6.08,0,0,1,2.61,1.85c2.06,2.52,4.51,4.93,5.81,7.83,2,4.4,2.15,9.22-.47,13.56a107.23,107.23,0,0,1-7.37,10.77c-3.4,4.35-8,5.94-13.46,4.81-3.34-.69-6.6-1.19-9.37-3.78C874.92,1583.79,872.9,1580.56,873.55,1575.9ZM895.62,1586a4.9,4.9,0,0,0-.42-5.16c-3.89-5.69-11.19-7.29-17.68-3.9,0,3.91,1.49,7.51,4.72,8.91C886.55,1587.7,891.14,1589.05,895.62,1586ZM885,1571.37c3.4,1.23,3.4,1.24,6.44.53,2.23-5.54,5.27-10.87,6.9-17.27l-8.54-1.73A121,121,0,0,0,885,1571.37Zm12.74,6.5a126.79,126.79,0,0,0,7.69-13,3.06,3.06,0,0,0-.1-2.56,59.89,59.89,0,0,0-3.75-5.13c-2.26,5.23-4.12,9.72-6.14,14.13C894.17,1574.12,894.76,1576.17,897.75,1577.87Zm-20.24-5.82c2.45.59,3.64-.24,4.12-2.08,1.35-5.18,2.64-10.36,4.17-16.39l-6.2,2.23C878.88,1561.44,878.19,1566.75,877.51,1572.05Z"/><path d="M1013.65,1467.34c1.54-.6,2.85-1.21,4.22-1.64,10.77-3.37,8.94-3.67,21.4.66a5.34,5.34,0,0,1,3.66,3.6c.87,2.57,1.86,5.1,2.68,7.69a6.85,6.85,0,0,1,.42,3.17c-1.32,6.75-2.52,13.56-5.93,19.68-.42.76-.95,1.81-1.65,2-4.41,1.36-8.51,3.55-13.62,2.08a14.77,14.77,0,0,1-9.74-7.67,80.23,80.23,0,0,1-6-14.52,7.52,7.52,0,0,1,.32-5.78C1010.87,1473.53,1012.26,1470.38,1013.65,1467.34Zm13.73,34.29c6.69.13,9.55-1.67,11.54-6.55,1.47-3.64-.69-8.12-4.37-9.57a12.8,12.8,0,0,0-9.45-.08c-4,1.42-6.65,5.55-5.68,9.67.44,1.87.65,4.12,2.8,5A50.64,50.64,0,0,0,1027.38,1501.63Zm-10.12-31.88c1.57,4.63,3,8.85,4.5,13.31L1028,1481c-.54-4.87-1-9.3-1.54-13.88C1023.11,1467.16,1020.56,1468.5,1017.26,1469.75Zm20.29,13c-.11-4.89,1.74-8.82.73-13.09l-7.92-2.7a52.69,52.69,0,0,0,1.67,14.45Zm-20.88,6c2.13-3.21,1.54-5.42.66-7.64s-1.05-4.71-3.14-7l-2.37,5.9C1013.41,1482.82,1014.87,1485.47,1016.67,1488.72Zm24.9-3.87c.77-2.68,1.3-4.7-.19-7.78C1041.4,1480.12,1040.48,1482.12,1041.57,1484.85Z"/><path d="M1082.77,1570.52c0,2.9.14,5.81-.06,8.69a7.93,7.93,0,0,1-1.35,4c-1.48,2-3,4.68-5.11,5.39-3.84,1.32-8,2.56-12.22,1.59-1.41-.31-2.78-.77-4.18-1.12a5.39,5.39,0,0,1-3.66-3c-2-4-4.44-7.91-6.19-12.07a42.24,42.24,0,0,1-2.42-9.41c-.47-2.78,5.08-12,7.72-13,7.84-3.09,15.68-3.71,23.5.24,1.61.81,2.64,1.8,2.83,3.62q.82,7.54,1.69,15.07Zm-22.62,14.75a16.31,16.31,0,0,0,14.51.12c1.86-.83,3.27-3.27,4.24-5.29s-.4-3.87-2.43-4.77c-3.53-1.56-7.09-1-10.6-.14C1061.24,1576.31,1059.17,1580,1060.15,1585.27Zm9.16-14.33a82,82,0,0,0-3.09-18.91l-8.86,2.56c2.11,6.24,4.06,12,6.07,17.92Zm8.71,1.23c0-4.62-.11-8.92,0-13.21.1-2.8-1.09-4.4-3.71-5.11l-4-1c1,6.46,1.92,12.26,2.83,18.1Zm-27.13-8.87c2.57,4.55,3.62,9.4,6.78,13.17,2.71-1.43,2.11-3.45,1.53-5.35-1-3.45-2.18-6.89-3.45-10.27-.3-.81-.11-2.25-1.88-2.35C1053,1560,1052,1561.46,1050.89,1563.3Z"/><path d="M898.61,1490c1.16-6.21,2.39-12.42,3.43-18.66a5.46,5.46,0,0,1,4-4.61c2.56-.91,5-2.09,7.62-2.84a14.67,14.67,0,0,1,4.78-.31,12.83,12.83,0,0,1,3.1.94c2.91,1,6.57,1.16,8.53,3.08,2.73,2.7,4.2,6.68,6.18,10.12a2.84,2.84,0,0,1,.56,1.51c-.62,5-.6,10.21-4.17,14.27-2.15,2.45-4.6,4.63-6.89,7-6.09,6.21-14.25,5.72-21.09,2.53a2.59,2.59,0,0,1-1.26-1C901.48,1498.22,898.06,1495,898.61,1490Zm22.67,9.54c2-4.9,1.22-9.65-2.78-12.41-4.43-3.06-9.79-3.58-14.23,0-3.09,5.08-1.55,9.81,2.08,12.57C910.61,1503,916.08,1503.42,921.28,1499.54Zm5.4-29.84-9.26-2.93L913.25,1481c3.45,1.93,3.45,2,6.62,1.51ZM925,1490.17l8.39-10.63c-1.39-2.42-2.63-4.56-4.13-7.16l-7.07,13Zm-20.39-7.58c3.83.07,5.31-1.8,6-4.77.52-2.28,1.32-4.49,1.9-6.75a25.62,25.62,0,0,0,.31-3.35l-7,2.9C905.39,1474.81,905,1478.68,904.6,1482.59Zm26.25,5.64c-1.2,1.5-2.43,3-3.59,4.51a12.42,12.42,0,0,0-.76,2.35C929.13,1492.8,931.19,1491.42,930.85,1488.23Z"/></svg>