<svg id="Layer_1" data-name="Layer 1" xmlns="http://www.w3.org/2000/svg" viewBox="0 0 2000 2000"><defs><style>.cls-1{fill:#fff;}</style></defs><path class="cls-1" d="M857.08,1480.94V1341.16c7.31,3.26,14.65,5.82,21.27,9.63,12.49,7.19,23.87,15.82,33.5,26.83a70.12,70.12,0,0,1,13.73,24.73c2.6,8,2.07,81.11-3.54,88.09-3.93,4.89-8.88,9-13.48,13.29-2.12,2-4.56,1.43-6.76.06q-6.19-3.87-12.26-8c-5-3.41-10-7-15.06-10.36S864.23,1478.84,857.08,1480.94Z"/><path d="M1287.34,943.68v9.59c0,84.48-.22,169,0,253.44,0,19.16-5.56,23.83-21.87,28.08-22.4,5.84-44.75,11.91-67.14,17.82a51.4,51.4,0,0,1-8.61,1.51,19,19,0,0,1-16.43-6.28c-8-8.56-16.25-16.88-24.29-25.41a40.56,40.56,0,0,1-3.74-5.41l-1.78,1.08a25.47,25.47,0,0,0-.91,4.5c-.18,6.83-.58,13.69-.23,20.5a126.57,126.57,0,0,1-7,47.49c-3.61,10.57-3.7,20.84-1.57,31.62,2.79,14.11,5.21,28.33,7,42.59a252.88,252.88,0,0,1,1.52,28.49c.08,5,2,8.18,6,10.89,7.65,5.24,15,10.94,22.68,16.12,3.23,2.18,4.42,4.73,4.38,8.51-.48,37.82.22,75.71-1.57,113.47-1.73,36.52-5,73-11.12,109.18-.64,3.8-2,6.11-5.49,7.8-20.83,10.14-41.15,21.47-62.47,30.43-23.09,9.71-46.89,17.41-71.88,21.84-25.19,4.46-50.46,5-75.77,5.93-9.44.33-18.94-1.75-28.44-2.26-24.31-1.33-47.68-7.52-70.78-14.39-12.06-3.58-23.58-9.27-34.93-14.86-10-4.93-19.38-11.16-29.16-16.6-13.2-7.36-26.44-14.67-39.85-21.64-3.85-2-5.08-4.42-5.06-8.56.14-34.43-.48-68.87.34-103.28.5-20.95,2.83-41.87,4.9-62.76,1.81-18.2,4.54-36.3,6.59-54.48.59-5.27,2.49-9,7.33-11.63,4.49-2.42,8.55-5.63,12.94-8.59a52,52,0,0,0,.36-5.8c-.79-17.56,2.39-34.54,7.89-51.08a47,47,0,0,0,1.38-23.68c-3.21-18.25-5.84-36.6-8.34-55-.82-6-.66-12.18-.68-18.28-.08-23.44.21-46.88-.14-70.32-.22-14.33,1.43-28.34,6.22-41.75,4.1-11.49,4.1-22.67,1.81-34.48-3-15.54-5-31.28-7.25-47a84.52,84.52,0,0,1-.57-11.7c0-27.1.09-54.2-.12-81.31-.09-10.63,1.81-20.89,4.64-31,7.27-26,6.92-17.16,2-46.56-3.1-18.53-6.9-37-6.72-55.85,0-3.73-1.71-5.79-4.53-7.64-8-5.22-15.77-10.67-23.79-15.81a8.2,8.2,0,0,1-4.25-7.73c.16-35.65-.87-71.34.54-106.93,1.16-29.46,5.08-58.81,8-88.19.9-9.22,2.48-18.38,3.53-27.58.51-4.57,2.51-7.38,6.88-9.26,13.42-5.79,26.68-12,40-18a32,32,0,0,0,4.62-2.18c10.57-7.12,21.77-12.92,33.9-16.13,2-3.76.92-6.42-1.53-8.91-1.88-1.92-3.62-4-5.39-6a32.64,32.64,0,0,1-8.41-18.27,14.12,14.12,0,0,0-3.15-7c-3.1-3.75-6.76-7-10.15-10.55s-6.67-5.6-11.78-6.33A24.94,24.94,0,0,1,783,461.6c-8.46-8.07-16.38-16.75-24.09-25.56-5.67-6.47-6-8.54-6.54-18.59l7.9-3.82c1.67-13.43,9.15-23.41,20.9-30.41,12.09-7.2,24.15-5.94,34.81,3.49.69.62,1.5,1.12,3.29,2.43.61-12.66,2.32-24.24,16.17-29.54-1.94-3.06-3.38-5.5-5-7.84-11.79-17.36-23.66-34.67-35.39-52.07-4.91-7.28-3.44-11.28,4.4-14.76,3.38-1.51,5.69-.82,7.68,1.74,2.84,3.65,5.55,7.41,8.16,11.24q17.16,25.07,34.23,50.2c1.23,1.8,2.6,3.51,4.24,5.71l137.6-37c-1-2.26-1.65-4.22-2.65-6-4.55-8.08-8.94-16.25-13.87-24.09-3.66-5.82-.89-12.42,7.61-13.3,4.25-.44,6.23,2.42,8,5.29,3.43,5.62,6.52,11.45,9.8,17.15,3,5.26,6.1,10.47,9.32,16,7.17-1.89,14-3.71,20.8-5.47,3.3-.86,6.62-1.68,9.95-2.4,9-2,16.9,0,23.41,6.79q35,36.42,70.09,72.81c2.88,3,5.49,6.28,8.62,9,10.1,8.68,15.88,20.11,21.3,31.92,6.5,14.18,13.39,28.19,20.16,42.25.73,1.51,1.72,2.89,2.72,4.55,3.72,0,7.37.11,11,0,19.79-.71,39.66-1.28,59,3.3a322.8,322.8,0,0,1,41.87,12.73c19.46,7.51,37,18.92,52.9,32.25a237.3,237.3,0,0,1,65.4,84.25A250.85,250.85,0,0,1,1435,658.52a260.71,260.71,0,0,1-.58,110.36,250.31,250.31,0,0,1-43,95.23A233.89,233.89,0,0,1,1329.83,922c-11.56,7.53-24.56,12.83-36.92,19.12C1291.2,942,1289.44,942.71,1287.34,943.68ZM1342,739.13v-6l-.79,0,.78,6c.49,2.75,1,5.5,1.68,9.34C1343.9,744.46,1345.16,741.43,1342,739.13ZM774.55,961.8c-.08,1.21-.21,2.17-.21,3.14,0,27.83,0,55.66,0,83.5a77.85,77.85,0,0,0,1,12.38c2.32,14.2,4.72,28.39,7.32,42.55,2.79,15.17,4.75,30.44,3.31,45.84-.84,8.93-1.27,18.63-11.77,23.24,0,20.15.54,40.43-.14,60.67-.84,25.07,2.5,49.61,7.13,74.12,3.31,17.5,6.33,35.1,4.89,53a106,106,0,0,1-2.63,15.79c-1.18,5-3.64,9.4-9.24,10.9,0,4.78,0,9.16,0,13.55,0,4.64.05,9.29-.33,13.91-.32,4,.9,8.4-3,12v-24.85c-5,3.3-8.73,5.94-12.66,8.3a9.46,9.46,0,0,0-4.8,7.62c-1.69,13.56-4,27-5.35,40.63-2.47,25.49-4.41,51-6.54,76.58a33.85,33.85,0,0,0,.24,4.53l9.58,1.68c19.42,3.46,38.89,6.63,58.23,10.51,11.44,2.3,23.19,4.45,33.87,8.9,22.69,9.45,45.49,18.84,66.86,31.22,8.64,5,17.72,9.27,26.3,14.39,4.9,2.93,8.9,2.94,14.15.5,23.63-11,47.09-22.44,71.93-30.61,10.87-3.57,21.4-8.7,32.52-10.93,31.07-6.23,62.38-11.15,94.14-12.45,3.1-.12,6.17-.9,9.64-1.43.57-6,1.17-11.51,1.63-17.07.71-8.52,1.08-17.06,2-25.54q4.35-39.27,9.09-78.5c.42-3.52-.23-6.08-3.26-8.19-7.6-5.3-15.06-10.82-22.62-16.19a9.53,9.53,0,0,0-2.83-.79c-1.2,11.31.2,22.21-1.21,32.92H1140v-42.89c-12.14,2.56-10.09,1.67-14.54-6.76a31.11,31.11,0,0,1-1.69-4.81c-4.36-13.35-3.55-27.06-2-40.6,2.37-20.38,7.4-40.25,13.05-60,2.4-8.38,4.47-17.15,4.7-25.8.64-23.91.24-47.84.21-71.77a46.81,46.81,0,0,0-.57-5.19l-9.91,2c-1.37-5.19-3.28-9.75-3.71-14.45-2.74-30.64-.73-61,7.79-90.61,4.27-14.88,7-29.79,6.58-45.38-.51-18.54-.13-37.1-.17-55.66,0-2.1-.21-4.2-.37-7.27-5.3,3.89-9.3,3.34-13.38-1-3-3.23-3.43-6.78-3.87-10.67-.57-5.08.2-11.23-2.44-14.9-2.8-3.91-8.85-5.56-13.57-8-3.26-1.71-6.68-3.12-10.17-4.73,1.9,7.15,4.52,13.35,5.09,19.74,2,22.91-5.49,43.42-18.72,61.59a88.36,88.36,0,0,1-21.36,20.82c-9.33,6.33-19.8,10.68-31.88,11.38-18,1-33.77-2.25-46.2-16.18-.32-.36-.68-.7-1-1-7.69-7.59-10.87-17.21-11.7-27.58-.75-9.44-.93-19,2.88-27.51-6.63-2.33-12.69-4.68-18.9-6.58-11.34-3.48-18.38-12.51-24-21.49s-9.62-19.77-9.6-31.11c0-12.69.22-25.37.33-38.06,0-2.13,0-4.27,0-7.12-52.14-6.47-100.63-23.56-146.93-47.6,12.4,9,25.3,17.1,35.06,29.14-11.54-7.57-21.17-17.93-35.21-24.32.59,9.83.5,18.62,1.77,27.21,3,20,7.08,39.88,9.74,59.94,1.82,13.74,2.55,27.69-1.79,41.34C782,956.46,779.86,960.46,774.55,961.8Zm383.58,593.05c-2.78,0-5.2-.2-7.57,0-24,2.33-48.14,3.52-71.82,8.53-10.48,2.21-21.29,3.36-31.4,6.66-33.15,10.84-65.29,24.3-96.81,39.25-4.12,2-5.83,4.14-5.8,8.75.17,29.3.07,58.6.11,87.89a52.67,52.67,0,0,0,.71,6.1c4.39,0,8.06.33,11.65,0,26.18-2.78,52.35-5.61,78.5-8.64,8.68-1,17.21-2.56,25.52-5.92,30.07-12.13,60-24.65,89.47-38.14,6.17-2.82,8.16-6.11,8.1-12.58-.24-28.56,0-57.13,0-85.69C1158.78,1559.15,1158.39,1557.25,1158.13,1554.85ZM914.58,464.6a32.11,32.11,0,0,1,17.13-10.87c54.42-14.29,108.78-28.84,163.24-43,16.35-4.25,32.21-11,51.09-10.17-3.08-3.44-5.23-5.95-7.5-8.36-8-8.52-16-17.06-24.16-25.51-17.41-18.12-34.91-36.17-52.3-54.32a19.58,19.58,0,0,0-15.76-6.32,59.52,59.52,0,0,0-12.21,1.94q-60,16-119.95,32.19c-24.44,6.63-48.81,13.55-73.22,20.31-6.26,1.73-11.81,4.39-15.25,10.89,6.68,7,13.33,14,20.38,21.41,5.46-7.49,12.77-10,20.44-11.91,6.85-1.72,13.72-3.4,20.47-5.49,4.68-1.45,8.22-.94,11.77,2.85,13,13.89,26.34,27.49,39.47,41.27,1,1.07,1.47,2.71,2.25,4.22a24.86,24.86,0,0,1-2.62,1.08c-9.64,2.58-19.34,5-28.91,7.77-5.8,1.7-11.72,3.62-14.39,10.67ZM741.16,1542.35v9.07c0,27.83.22,55.66-.18,83.48-.09,6.34,2.21,9.54,7.47,12.43q44.25,24.29,89.84,45.88a34,34,0,0,0,8.26,2.82q40.25,7.44,80.53,14.59c4.46.8,9,1.13,13.82,1.71a34.13,34.13,0,0,0,.8-4.92c0-30.27,0-60.53.07-90.8,0-3.61-1.42-5.74-4.62-7.44-23.23-12.35-45.93-25.73-70.35-35.77-10.13-4.16-19.9-9.57-30.38-12.41-22.07-6-44.23-11.87-67-14.75C760.5,1545.11,751.62,1543.79,741.16,1542.35ZM1231,503.3c-.29.71-.58,1.42-.86,2.14q7.44,5.08,14.87,10.17c6.7,4.59,13.41,9.61,16.2,17.33a35,35,0,0,0,7.57,12.2c3.65,3.94,7.09,8.11,11.07,11.7,5.52,5,7.42,10.94,7.36,18.25-.18,23.19.24,46.39,0,69.58-.07,6.25,1.53,10.17,7.11,13.61,13.5,8.31,26.67,17.19,39.64,26.32,12.41,8.74,23.81,18.56,31.14,32.39,6.62,12.53,9,25.3,5.54,39.3a58.1,58.1,0,0,1-12.42,24.41c-4.8,5.63-9.7,10.87-16.17,14.54-7.83,4.45-15.49,9.23-23.43,13.48-8.81,4.72-17.78,9.15-26.83,13.4-3.4,1.6-4.5,3.73-4.48,7.37.13,23.68.06,47.36.1,71a25.33,25.33,0,0,0,.83,4.26c15.8-6.8,28.63-17,40.63-28a212.43,212.43,0,0,0,45.19-58.9,246.39,246.39,0,0,0,17.42-44.11,192.59,192.59,0,0,0,6.63-33.68,232.93,232.93,0,0,0-10.26-100.33,201.31,201.31,0,0,0-24.39-50.57,212.2,212.2,0,0,0-54.23-55.84c-18.88-13.26-39.63-21.83-61.66-27.68C1242.22,504.26,1236.55,504.06,1231,503.3ZM920.81,863.19c.49-3.23.92-5.13,1-7q1.44-24.1,2.78-48.23c.81-14.61,1.54-29.23,2.32-43.85.2-3.72.38-7.08-4-9.19-15.32-7.47-30.29-15.67-45.77-22.77C864,726,850.47,720.17,836.58,715.8c-26.25-8.25-52.9-15.14-80.4-18.06-4.52-.48-9-1.13-13.93-1.74a40.81,40.81,0,0,0-.85,5.52c0,30,0,60-.06,90,0,4,1.6,6.1,5,7.91,22.4,11.82,44.11,25,67.85,34.14,10.44,4,20.51,9.16,31.15,12.56,14.12,4.52,28.55,8.23,43,11.56C898.76,860.11,909.41,861.31,920.81,863.19Zm222.1,313.06c22-5.93,43.38-11.58,64.69-17.54,6.35-1.77,7.53-4,7.54-11.55q.12-92.62.11-185.26a29.59,29.59,0,0,0-.63-4.54c-12.65-.75-24.85-.94-36.9-2.33s-23.67-3.95-35.84-6.07c0,1.56,0,3,0,4.45q.12,46.13.19,92.26a44.66,44.66,0,0,1-1.12,10.12c-2.47,10.43-5.45,20.75-7.73,31.21a36.23,36.23,0,0,0-.61,12.91c2.25,14.95,5.35,29.77,7.5,44.73C1141.56,1154.74,1142,1165,1142.91,1176.25Zm-81.44-328.08c16.55-5.81,31.93-10.61,46.83-16.61,15.13-6.1,29.69-13.6,44.7-20,4.38-1.87,5.73-4.36,5.71-8.79-.11-29.06,0-58.12-.07-87.18,0-2.35-.41-4.7-.66-7.4-48.47,2.38-95.33,9.31-140.72,27C1022.17,777.05,1035.8,814.65,1061.47,848.17Zm216,371.1c2-10.54,1.72-265.72-.12-271.71-19.19,5.14-38.64,8.94-59,9.88v9.34q0,77.94,0,155.88c0,8.78.42,17.65-.65,26.32-.72,5.84,1.08,9.52,4.86,13.43,17.31,17.87,34.42,35.94,51.61,53.92C1275,1217.16,1275.89,1217.87,1277.48,1219.27Zm-62.18-394.9v-8.54q0-33,0-65.9c0-32.21-.09-64.43.06-96.65,0-4.36-1.2-7.13-5-9.51-9.91-6.24-19.52-12.94-29.3-19.39a48.93,48.93,0,0,0-5.22-2.58c-.13,2.1-.28,3.31-.26,4.51.38,34-.67,67.83-4.33,101.6-2.81,25.93-5.92,51.84-8.82,77.76a8.79,8.79,0,0,1-4.47,7.06c-4.16,2.54-8.12,5.4-12.23,8-2.19,1.4-3.67,3-3.48,5.87.8,12.25-2.3,24-5.57,37Zm18.62-330.83.33-1.64c4,.46,7.91,1,11.88,1.37,16.93,1.52,33.12,6.28,48.63,12.72a200.73,200.73,0,0,1,58.67,37.94,215.68,215.68,0,0,1,51.28,71.44,226.86,226.86,0,0,1,19.38,73.94c3,34-.45,67.15-11.13,99.63a218.58,218.58,0,0,1-22.16,47.65,221.31,221.31,0,0,1-58.5,62.8A194.92,194.92,0,0,1,1267.92,930c-24.63,6.55-49.93,8.51-75.45,4.72-20.89-3.1-41-8.57-59.76-18.38-3.89-2-7.83-4-11.81-5.82-1.84-.85-3.74-1.07-4.66,1.57a8.54,8.54,0,0,0,1.64,1.48c21.77,11.12,44,20.76,68.49,24.47a220.39,220.39,0,0,0,60.48.69c17.82-2.2,34.87-7.43,51.16-14.55a210,210,0,0,0,45-27.07,203.73,203.73,0,0,0,33-32.13,236.16,236.16,0,0,0,40.4-72.42,241.55,241.55,0,0,0,13.26-82.66,294.77,294.77,0,0,0-3.64-39.29,188.57,188.57,0,0,0-15.23-51.78,349.76,349.76,0,0,0-21-39.24c-10.18-16.17-23.17-30.13-37.53-42.82a198,198,0,0,0-56.89-35.4A184.79,184.79,0,0,0,1211.58,488c-1.87.13-3.73.44-5.73.69-.71,3.44-1.33,6.47-2.19,10.63,8.65,0,16.7-.59,24.63.14,11.14,1,22.39,2.18,33.21,4.82,15.38,3.75,30.43,9,44,17.54,10.71,6.74,21.92,13.05,31.43,21.25a206.18,206.18,0,0,1,46.92,57.58,236.41,236.41,0,0,1,21.49,54.2,229.86,229.86,0,0,1,5.67,85.68,227.24,227.24,0,0,1-29.85,88.82,216.59,216.59,0,0,1-40.5,49.78,184.8,184.8,0,0,1-51.81,33.85c-20.7,9-42.37,14.67-65.12,15.15-7.79.16-15.6,0-23.39-.34a150.29,150.29,0,0,1-37.38-6.22c-11.68-3.54-23.24-7.28-34-13.26-1.42-.78-3.22-.88-4.84-1.29a3.34,3.34,0,0,0,1.78,2.83c18.69,9.71,38.12,17.13,59,20.63a201.06,201.06,0,0,0,61.89.84c19.46-2.76,37.87-8.89,55.56-17.39a195.25,195.25,0,0,0,46.6-31.36A216.66,216.66,0,0,0,1395.66,822a229.48,229.48,0,0,0,19.42-50.4,219.76,219.76,0,0,0,7.07-49.16c.38-17.87-.44-35.6-3.69-53.2a233.31,233.31,0,0,0-20.28-60.84,208.72,208.72,0,0,0-53.68-68.72c-26.85-22.45-57.58-37.22-92.41-42.74-4.33-.69-8.71-1.11-13-1.82A38.41,38.41,0,0,1,1233.92,493.54ZM813.4,668.8c-3.62-12-7-23.31-1.79-35.29,4.49-10.26,8.46-20.77,13.17-30.92a71.62,71.62,0,0,1,8.89-14.09,13.72,13.72,0,0,0,3.24-9.28c-.11-11,0-22,0-33,0-5.81,0-11.63,0-18.17-2.82.83-4.87,1.47-6.94,2-12.5,3.39-22.39,11.64-33.39,17.83-8.19,4.61-15,10.66-21.41,17.45a90.71,90.71,0,0,0-20.11,32.51c-4.86,13.52-.68,25.9,1.18,38.74,6,8.91,10.55,19.37,18.26,26.35,11.63,10.52,23.53,21.3,38.49,27.54,11,4.6,21.48,10.85,32.84,14.17,19.82,5.78,39.69,11.88,60.46,13.71,7.41.65,14.83,1.23,22.47,1.86v-9.41c-3.87-.56-7.22-1.34-10.6-1.5-20.43-1-40.07-6.39-59.06-12.94-21.39-7.39-41.63-17.93-58.47-33.76a20.78,20.78,0,0,1-2.22-2.92c.36-.38.72-.75,1.07-1.13Zm227.74-158.08c2.54,1.71,4.74,3.21,7,4.69Q1184.24,606.19,1320.35,697a178.11,178.11,0,0,1,20.1,15.82,43.4,43.4,0,0,1,13.08,20.74c3.59,13,.65,24.36-8.09,34.65-7.14,8.4-16.06,14.38-25.61,19.19q-150.66,75.84-301.56,151.2c-11.78,5.88-24.15,10.23-37.81,9.81-14-.43-24.3-7.26-31.1-18.65a48.34,48.34,0,0,1-6.94-26.6c.66-18.78,1-37.58,1.91-56.34,1.6-32.18,3.6-64.34,5.35-96.52,1.64-30,3.15-60,4.76-90,1.86-34.61,3.58-69.23,5.7-103.83,1.06-17.38,3.33-34.58,15.46-48.94-1.05-1.56-2.05-3.06-3.51-5.25-7.26,7.46-12.05,15.84-14.08,25a233.33,233.33,0,0,0-4.6,35.49c-2.14,33.37-3.75,66.78-5.54,100.18-1.78,33.15-3.49,66.3-5.31,99.45-1.77,32.18-3.67,64.34-5.42,96.52-.66,12.19-1.34,24.38-1.5,36.58-.17,12,1.43,23.78,6.75,34.86a42.89,42.89,0,0,0,15.65,18c11.59,7.23,25,8.47,38.13,5.18a129.51,129.51,0,0,0,25.9-9.86q146-72.72,291.84-145.91c9.34-4.69,18.65-9.86,26.83-16.27,6.37-5,12.75-11.43,16-18.63,9.64-21.37,4.3-36.64-10.08-53-5.71-6.5-13.06-11.81-20.32-16.67q-137.58-92-275.36-183.68c-2-1.33-4.08-2.59-6.47-4.11Zm178.21,139.51c-1.69,9.88-1.3,165.38.31,171.1a18.82,18.82,0,0,0,2.66-.87c17.4-8.79,34.74-17.69,52.2-26.34,3.47-1.72,4.24-4.19,4.23-7.61q-.06-45.74,0-91.46a8.85,8.85,0,0,0-4.59-8.35c-9.45-6-18.7-12.38-28-18.6Zm-94.72-162.79c4.51-2.2,8-3.32,10.76-5.38,3.66-2.71,6.66-6.28,10.15-9.24,5.1-4.33,11-4.7,16.74-1.35,6,3.55,13.38,3.17,20-1a2.46,2.46,0,0,0-.06-.73q-14.07-29.73-28.13-59.45c-1.61-3.41-4.45-5-7.79-6.07-6.32-2.09-12.57-1.13-18.72.52Q1049,425.78,970.33,447a29.28,29.28,0,0,0-4.63,2.19A51.64,51.64,0,0,0,975,469.27c4.34,5.56,9.88,7.39,16.84,5.43,10.55-3,21.19-5.6,31.77-8.44q45.51-12.18,91-24.4c7.66-2,9.16-1,9.48,7s.38,16.09.5,24.14C1124.68,477.3,1124.63,481.61,1124.63,487.44ZM895.35,474c-1.52-1.91-2.34-3-3.24-4.07-6.89-7.91-15.39-14.15-22.79-21.43-14.48-14.26-29.8-27.81-41.2-45.06-4.35-6.6-10.6-12.15-16.71-17.32a22.47,22.47,0,0,0-11.84-4.82c-15.14-1.39-32.37,12.21-35.49,27.12-1.18,5.63-.92,10.58,4,14.51,2.08,1.65,3.7,3.87,5.53,5.83,4.63,5,10,9.4,11.3,16.66.24,1.3,1.41,2.56,2.4,3.6q16.9,17.72,33.94,35.33a15.64,15.64,0,0,0,4.17,2.49c2,1,4.48,1.59,6.12,3,4,3.57,7.6,7.57,11.39,11.36,2.54,2.54,5.12,5,7.91,7.75C861,482.5,870.91,474.56,895.35,474ZM1215.25,1159c-3.86,1.24-7,2.41-10.29,3.29q-26.79,7.26-53.6,14.41c-8.52,2.28-8.56,2.26-8.56,11.37,0,4.63.21,9.27.14,13.9a11.18,11.18,0,0,0,3.49,8.45c9,9.24,18.23,18.37,26.72,28.11,6.72,7.71,14.35,9,23.68,6.43,23.94-6.58,48-12.88,71.92-19.37,2.16-.59,4.15-1.77,7.09-3.06ZM1037.36,517.8c2.23,1.57,4.18,3,6.2,4.35q66.07,44.08,132.17,88.13,71,47.31,141.9,94.67c9.72,6.51,18.91,13.66,25.14,24.09a28.87,28.87,0,0,1-1.89,32.13c-7.38,9.65-17.37,15.67-27.78,20.91q-89.86,45.24-179.95,90c-40.15,20.06-80.24,40.21-120.45,60.13-10.74,5.32-21.84,9.82-34.32,8.34-6.44-.76-12.12-2.77-17-7.5a34.51,34.51,0,0,1-10.31-21.28,164.79,164.79,0,0,1-1.13-27c1.95-39.49,4.37-79,6.54-118.45,1.83-33.14,3.51-66.3,5.32-99.44q2.64-48.27,5.41-96.51c1-18.24.75-36.73,10.79-53.14,1.6-2.63.7-4.44-2.31-5.85-4.08,8.12-9.44,15.16-10.05,24.43-.51,7.76-2.08,15.46-2.55,23.22q-2.94,47.88-5.47,95.78c-2.13,39.24-4.12,78.48-6.24,117.72-2.1,38.76-4.49,77.5-6.33,116.26-.53,11.14,0,22.25,3.76,33.2,5.16,15.11,22.07,26.23,38.43,23.48A111.36,111.36,0,0,0,1019,935.06q103.7-51.85,207.27-104c30.3-15.2,60.7-30.2,90.92-45.56,11.11-5.65,21.67-12.2,29-22.8a34.29,34.29,0,0,0,1.44-35.86c-6.37-11-15.68-18.62-25.8-25.39q-137.58-92-275.33-183.67a53.37,53.37,0,0,0-4.93-3.15C1039.11,513.37,1038.1,514.92,1037.36,517.8Zm9.32-19c.52,2.51.37,4.16,1.12,4.87a42.88,42.88,0,0,0,5.93,4.26q137,91.4,274,182.88a121.62,121.62,0,0,1,21.37,17.69,60.5,60.5,0,0,1,12.45,19.61c7,19-.44,42.56-16.75,54.35a192.05,192.05,0,0,1-26.12,16.12Q1175.51,870.53,1032.06,942c-8.48,4.23-17.25,8-26.09,11.4-14.63,5.68-29.42,6.08-44.1-.09-9.88-4.16-16.64-11.69-21.59-20.86-7.21-13.36-7.94-28.07-7.57-42.74.42-16.59,1.59-33.16,2.51-49.73,2.69-48.26,5.49-96.51,8.13-144.77,2.25-41.19,4.16-82.4,6.6-123.58.8-13.61,2.52-27.19,4.39-40.71a45.69,45.69,0,0,1,4.72-13.64c3.08-6.19,6.86-12,10.62-18.48-1.18.09-2.6-.23-3.18.33a43.94,43.94,0,0,0-6.78,7.48,81.83,81.83,0,0,0-12.43,39.3q-3.13,48.24-5.74,96.49c-2.16,39-4.06,78-6.19,117-2.25,41.2-4.83,82.37-6.88,123.57-.84,16.82-.57,33.51,6.6,49.53a49.92,49.92,0,0,0,19.3,22.33c13.32,8.27,28.65,9.64,43.78,5.76a136.78,136.78,0,0,0,26.56-10.17q145-72.24,289.84-145c10.64-5.34,21.35-11.09,30.61-18.45a69.75,69.75,0,0,0,17.92-21.75c5.17-9.89,6.34-21,3.69-32.64-2.45-10.72-8.19-19.43-14.91-27.24-5.79-6.74-13.29-12.28-20.75-17.28Q1192.66,595.51,1054,503.22C1052,501.9,1049.89,500.75,1046.68,498.81ZM931.74,671.45c.35-6.34.88-12.61,1-18.89.09-5.18-.68-6.28-5.84-6.17a120.64,120.64,0,0,0-21,2c-5.38,1.08-9.48.23-13.31-3.55a55.71,55.71,0,0,0-8.33-7.12c-4.88-3.2-6.12-7.54-6.1-13.08.09-25.14-.09-50.28-.2-75.42,0-2.58-.21-5.16-.35-8.6-16.38,2.92-26.67-6.28-36.72-16.71a31.71,31.71,0,0,0-.65,7.56c0,25.63-.09,51.25.09,76.88,0,5,1.15,10.08,1.69,15.13a29.68,29.68,0,0,1-.42,4.39c-6.16-10.58-3.67-21-5.18-31.4-6.53,10.84-6,21.41-1.61,31.57,5.93,13.84,17.55,22.71,30.1,29.9,16.42,9.41,34.68,14.07,53.05,18,3.28.71,6.78.46,10.17.65-8.41-3.31-17.57-3.18-25.38-8C912.41,667.87,921.39,673.5,931.74,671.45Zm262.39-158.77c-7.9.2-14.66.31-21.41.58a10.2,10.2,0,0,0-4.85,1.08c-4.73,2.94-9.44,2.34-13.92,0a10.94,10.94,0,0,0-10.47-.15c-7.26,3.4-14.57,6.69-21.75,10.26-4.71,2.33-9.21,5.07-14.3,7.9a29.45,29.45,0,0,0,2.73,2.49q11.23,7.57,22.49,15.09,37.14,24.78,74.29,49.55c5.24,3.48,11.89,2.78,16.86-1.45,3.57-3,4.11-7.17,1.75-13.46-.35-.91-.72-1.81-1.11-2.71q-5.55-12.72-11.12-25.46C1206.87,541.69,1200.41,527,1194.13,512.68ZM1062,640.55c9.06-.08,95.79-22.54,102.74-26.71l-85.62-57c-15.16,11.89-41,50.29-42.35,62.58l24.14-5.83C1061.33,623.25,1061.68,631.91,1062,640.55Zm-4.26,261.32a7.08,7.08,0,0,0-1-1.75c-12-11.44-23.43-23.48-32.95-37.15-1.9-2.72-4.1-2.38-7-2-15.65,2.25-31.32,4.5-47,6.07-13.41,1.34-13.07-2-13.53,15a8.57,8.57,0,0,0,.91,2.41c3.59,0,7.22-.13,10.84,0s7.28-.67,10.63.73c0,.6-.06,1.2-.08,1.8l-22.4,1.16c0,5.82-.48,11,.13,16,.7,5.74,1.6,11.68,3.8,17,3.38,8.11,9.61,13.34,19,13.49,6.37.1,12.63-.14,18.57-3,19.72-9.54,39.5-19,59.24-28.46C1057.26,903,1057.43,902.38,1057.77,901.87ZM944.6,524.43c2.49-4.9,4.47-9.08,6.71-13.12,2.35-4.24,5-8.29,7.34-12.54.6-1.11.49-2.69.47-4-.18-11,11.43-18.89,21-14.1a13.49,13.49,0,0,0,10.48,1,28.63,28.63,0,0,1,10.73-1.2c13.4,1.52,26.29,4.94,38,12,1.45.87,3.44,2.3,4.61,1.88,4.9-1.77,7.76,1.65,11.12,3.74,4.55,2.84,9,5.92,13.45,8.84,5.43,3.53,5.16,3,10.76-.18,12.26-7,23.33-16.66,38.7-18.08-.81-7.12-1.72-14.09-2.37-21.09s1.18-14.4-1.65-21.58c-2.6.48-4.52.7-6.37,1.19-19.31,5.07-38.62,10.13-57.9,15.31-18.34,4.93-36.69,9.85-55,15.06-9.74,2.78-17.78,1-24.07-7.19-2.8-3.63-5.58-7.27-8.59-11.21l-17.52,4.55Zm101.07,10.31c-14.52-9.41-27.3-20.07-44.54-21.46-6.16,13.91-7.37,14.65-19.5,12.11-.8,1.37-2,2.73-2.42,4.3-1.53,6.11-3.59,12.23-4,18.45-1.91,27.48-3.34,55-4.88,82.48a44.55,44.55,0,0,0,.6,6.23,51.37,51.37,0,0,1,6.08-1.24c7.9-.59,11.71-5,13.68-12.52,4-15.45,11.84-29.46,20-42.94,8.49-14.12,17.71-28,29.89-39.56C1042.08,539.11,1043.39,537.35,1045.67,534.74ZM1278.2,830a42.59,42.59,0,0,0-4.31,1.51c-17,8.47-33.92,17.1-51,25.38-3.79,1.83-4.56,4.3-4.54,8.06.12,18.28,0,36.56,0,54.84,0,1.66.29,3.32.44,5a13.88,13.88,0,0,0,2.37.5,21.16,21.16,0,0,0,3.65-.16c16.14-2.52,32-6.19,47.14-12.4,6.59-2.7,6.73-2.57,6.74-10.08q0-32.17-.09-64.35C1278.62,835.92,1278.39,833.52,1278.2,830Zm-.15-184.32a28.85,28.85,0,0,0,.48-3.49c0-22.71-.12-45.41-.06-68.11,0-5-2.2-8.16-6.4-10.58-10.76-6.24-21.34-12.78-32.11-19-6.52-3.78-13.39-6.77-21.59-7.63,0,4.88.18,9.51,0,14.12a34.31,34.31,0,0,0,3.86,18.32,132.8,132.8,0,0,1,6.66,15.44c3,8,1.2,12.78-6.07,17.22-1.57,1-3.06,2-4.6,3.1C1221.72,609.69,1269.38,642,1278.05,645.72ZM929.11,724.16a85.51,85.51,0,0,0-9.06-1.58c-16.32-1.06-32.42-3.29-48.19-7.86-14.47-4.18-29.35-6.82-43-13.79s-27.76-12.5-40.09-22.21c-11.87-9.35-22.14-19.47-30-32.43-3.75-6.2-6.92-12.2-7.2-19.54a62.05,62.05,0,0,0-1.15-8c-.38-2.31-.85-4.61-1.28-6.92-3.6,26.87-6.31,53.47-7.63,80.54,2.89.63,5,1.26,7.09,1.52,24.91,3.14,49.61,7.28,73.64,14.81,7.66,2.4,15.64,4,23,7C871,726.15,897,736.11,920.85,750.57c1.72,1,3.82,1.48,6.46,2.47C927.94,742.89,928.51,733.76,929.11,724.16Zm89.52,133.27c-8.9-17.16-19-33.2-25.93-51s-10.22-36.42-15.62-54.5c-13.28,3.44-13.61,3.49-14.37,15.71-1.85,29.94-3.43,59.89-5.09,89.84-.13,2.37,0,4.76,0,7.71C978.33,863.07,998.53,863.14,1018.63,857.43ZM882.13,539.91c-1.58,12.28-1.06,84,.38,88.56,6.44-.16,12.71-.48,19-.43,6.84.06,10.27,6.49,15.78,9.52,1.91-10.47,1.62-119.87-.4-127.75C908.79,524.13,898.08,534.91,882.13,539.91ZM833.79,408.23c11.54,12,22.39,22.92,32.65,34.33,4.42,4.91,8.76,6.39,14.68,3.69,3.25-1.47,7.82-1.86,9.63-4.33,5.81-7.88,13.58-11.42,22.69-13.42,5.59-1.23,11-3.23,16.66-4.92-.53-1.5-.59-2.34-1-2.8-9.6-10.06-19.2-20.12-28.91-30.07a13.18,13.18,0,0,0-11.52-3.64c-8.91,1.3-17.75,3.16-26.55,5.12a6.39,6.39,0,0,0-4.05,3.52c-1.69,5.14-5.82,7-10.25,8.53C843.68,405.64,839.43,406.64,833.79,408.23Zm97,280.39c-13-3-24.81-5.55-36.58-8.41-18.45-4.48-35.37-12.15-50.1-24.37-11.21-9.31-20-19.93-21.08-35.25a16.19,16.19,0,0,0-.9-3.19c-4.2,8-8.25,16-9.63,24.48a37.34,37.34,0,0,0,4.92,26c4.25,6.93,9.68,11.86,17.4,14.79,10,3.81,19.48,9,29.59,12.47,10.34,3.5,21.16,5.63,31.81,8.19s21.54,3.08,33.46,3.8C930.12,700.5,930.48,694.53,930.83,688.62Zm228,15.87c2.57-27.58,5.09-54.5,7.58-81.42a17.63,17.63,0,0,0-.11-2.9.65.65,0,0,0-.34-.5c-.21-.07-.47,0-1,.1-2.71,7.67-5.45,15.46-8.23,23.23-.73,2-1.14,4.48-2.51,6-8.3,9.25-15.68,19.88-25.55,27-14.88,10.78-30.35,21.18-48.42,26.72-14.39,4.42-28,11.15-43.18,13.31-6.92,1-13.75,2.56-21,3.94.46,4,.85,7.24,1.38,11.8,23.16-8.7,46.27-14,69.57-18.91C1110.66,708,1134.82,707.86,1158.83,704.49Zm47-223.51-.57,1.59c.79.69,1.51,1.86,2.38,2a42.22,42.22,0,0,0,7.29.2,191.11,191.11,0,0,1,66.31,8.76,200.36,200.36,0,0,1,71.64,40,223.18,223.18,0,0,1,48.8,59.78,234,234,0,0,1,20.84,49,224.1,224.1,0,0,1,9.22,50.26c1.2,20.3.93,40.46-2.44,60.54a246.69,246.69,0,0,1-22.38,69.31,224.17,224.17,0,0,1-29.52,45.21A220,220,0,0,1,1334.25,907a208,208,0,0,1-39.67,21.65c-24.88,10.1-50.85,15.37-77.74,14.8a235.48,235.48,0,0,1-34.14-3.22,171.74,171.74,0,0,1-47.21-14.87c-7.22-3.54-14.38-7.21-21.52-10.92-2.24-1.17-4-1.28-5.71,2.08,7.46,3.87,14.68,7.8,22.06,11.41a191,191,0,0,0,71.54,19.19c17.46,1.18,35,.81,52.46-2.57a209.9,209.9,0,0,0,47.29-14.77,222.47,222.47,0,0,0,97.78-87.41,240.73,240.73,0,0,0,30.32-76.43,253.45,253.45,0,0,0,5.76-55.93,250.1,250.1,0,0,0-16.1-85.82,243.53,243.53,0,0,0-23.67-46.9,218,218,0,0,0-35.38-41.8c-11.41-10.43-23.51-20-36.8-27.62a203.81,203.81,0,0,0-71.9-25.46C1236.28,480.08,1221.09,480.52,1205.8,481ZM1215,860.66,1135,901.17c-.51,5.53,1.72,8.49,6.19,10.05,2.29.8,4.45,2,6.74,2.78,15.65,5.51,31.62,9.8,48.21,11.18,6.18.51,12.44.08,18.94.08Zm72.86-73.11c13.64-6.7,26.6-11.87,37.55-20.42,8.33-6.51,14.13-14.79,11.46-26.5A32.22,32.22,0,0,0,1324.83,722c-10.38-8-21.21-15.46-31.89-23.09a44.79,44.79,0,0,0-5-2.6Zm-271.45-71.9a21.73,21.73,0,0,0,4.2.19c9.34-1.65,19-2.32,27.93-5.31,22.31-7.51,45.29-13.68,64.77-27.93,5.1-3.73,11.47-6,15.84-10.38,12.52-12.52,25.72-24.81,29.49-43.39.34-1.65,1.15-3.21,1.56-4.86a32.92,32.92,0,0,0,.34-4.36c-7.18,1.9-13.63,3.73-20.15,5.3a23.09,23.09,0,0,0-12.73,8c-8,9.53-16.07,18.94-24,28.52-1.42,1.72-2.17,4-3.54,6.63h6.62c-27.67,21.54-58.28,32.11-90.35,38.6ZM941,464.17c-3.6-.4-6.69-1.11-9.74-1-5.7.2-8.92,3.77-9,10.17q-.37,82-.55,163.92a30.75,30.75,0,0,0,.89,5.1l10.47,1.58c.23-2.19.48-3.85.58-5.52q2.24-39.81,4.48-79.62c.16-2.91.63-5.81,1-8.71.54-3.8,1.63-7.58,1.66-11.38.17-22.2.11-44.4.12-66.6Zm118.2,80.46c-2.28-3-4.17-3.13-6.16-1.24a67.87,67.87,0,0,0-5.66,5.72,258.25,258.25,0,0,0-32.56,49.28,250.61,250.61,0,0,0-24.54,81.5,254.4,254.4,0,0,0,4.29,88,258.14,258.14,0,0,0,22,61,247.5,247.5,0,0,0,39.53,56c3.15,3.39,6.67,6.43,10.08,9.58,2.56,2.37,5.09,2.53,7.85-.82-48.61-46.74-74.46-104.13-77.34-171.36S1014.59,595.61,1059.15,544.63Zm226.18,365.25.92,1.11c2-.89,3.94-1.71,5.85-2.69,13-6.71,25.63-14,37.09-23.24a198.74,198.74,0,0,0,33.71-34.39,251.11,251.11,0,0,0,22.91-36.47,202.45,202.45,0,0,0,16.22-43,231.79,231.79,0,0,0-17.1-162.16,210.43,210.43,0,0,0-31.31-45.72c-18.77-21.1-41.48-36.83-67.29-48.15a16.45,16.45,0,0,0-2.93-.68c6.25,4.11,13,7.12,19,11.11,21.54,14.17,40.45,31.1,56,51.94,22.24,29.81,35.49,63.26,41.35,99.61A226.51,226.51,0,0,1,1394,775a217.64,217.64,0,0,1-33.16,69.57c-18.46,25.51-40.92,46.32-68.56,61.47Zm-306.72,99.94-1.89,1.79c3.07,10.15,10.35,17.57,19.26,22.14a58.77,58.77,0,0,0,38.43,5.25c3.08-.59,6.29-1,9.15-2.17,12-5,23.25-11.47,31.3-22.08a191.07,191.07,0,0,0,13-19.33A77.11,77.11,0,0,0,1098,946.88c-1-8.16-3.07-16.92-12.43-20.84l-6.43,3.66c.48,4,1.22,7.62,1.29,11.23.51,28.4-8.63,53.12-28.79,73.38-8.43,8.48-18.43,14-30.73,15-15.69,1.21-29.45-2.36-39.76-15.1A30.35,30.35,0,0,1,978.61,1009.82Zm55.92-56.73c-12.19,4.57-23.52,8.88-34.9,13-3.36,1.22-4.2,3.54-4.16,6.79.19,14.39.34,28.79.31,43.18,0,3.7,1.44,5.73,4.84,7.15,9.51,4,19.13,3.12,28.71.9,4.6-1.06,5.41-2.65,5.46-8.13q.29-28.9.37-57.81A42.75,42.75,0,0,0,1034.53,953.09Zm29.54-102a29.25,29.25,0,0,0,2.76,4.11c8.53,8.69,17.15,17.28,25.69,26,2.57,2.61,5.07,1.92,7.92.46q14-7.15,28.1-14c3.07-1.48,5.18-3.46,6-6.85,1.7-7.59,3.78-15.11,5.11-22.77.64-3.65-.06-7.53-.19-12.6-6.42,4.25-11.65,7.7-16.87,11.18-5.07,3.37-10,6.89-15.21,10.12s-9.86,7.49-16.17,8.93c7.28-6.63,15.62-11.74,23.69-17.21s16.11-10.8,25.07-16.8ZM1052,538.49c-2.09-.43-2.67-.75-3-.59a14.18,14.18,0,0,0-3,2c-13.76,12.72-24.38,28-33.67,44A245.31,245.31,0,0,0,992.5,627a265.68,265.68,0,0,0-13.3,65c-2.07,25-.16,49.62,4.76,74.17a234.91,234.91,0,0,0,18.68,56c13.55,28.07,31.12,53.51,54.84,74.24,1.1,1,2,2.31,3.27,2.87,1.09.49,2.57.1,5.59.1-51.07-49.73-78.83-108.3-81.67-177.86C981.83,651.72,1005,591.06,1052,538.49ZM873.6,529.82c16.38.82,33.75-15.26,34.89-32.07,1-13.81-8.13-22.54-22.48-20.64-14.93,2-25.37,11.41-29.89,25.65C851,518.85,859.87,530.37,873.6,529.82Zm144.2,172.42c12.27-1.06,22.83-4.56,33.31-8.36,13-4.72,26.28-9,37.34-17.74,2.4-1.9,5.51-4.29,6-6.9,1.81-9,1.3-18-3.92-26-2.12-3.27-4.2-3.53-7.26-.92a78.12,78.12,0,0,0-7.15,7.29c-9.83,10.9-22.25,17.89-35.55,23.49-5.82,2.45-11.91,4.24-17.71,6.73-2,.84-4.68,2.8-4.86,4.48C1017.42,690,1017.8,695.85,1017.8,702.24Zm61.78,189.45,1.63-1.38c-48.32-45.64-74.11-101.7-77.15-167.52-3.06-66.15,17.74-124.46,61.1-175.06-1.94-.1-3.64.06-4.5,1-4.29,4.64-8.54,9.34-12.47,14.29a211.83,211.83,0,0,0-28.69,49.11,246.31,246.31,0,0,0-13.1,38.74A260.07,260.07,0,0,0,999.48,700a253.2,253.2,0,0,0,11,86.64,239.66,239.66,0,0,0,49.29,88c4.81,5.48,10.41,10.28,15.78,15.24C1076.58,890.88,1078.23,891.12,1079.58,891.69Zm204.73,54-2.18.15c-.11,3.09-.32,6.18-.33,9.27q-.18,128.46-.35,256.94c0,10.71-2.3,13.65-12.72,16.5q-35.94,9.81-71.94,19.38c-2.19.59-4.43,1-6.65,1.46.1.53.19,1.06.29,1.59a34.65,34.65,0,0,0,6.15-.52c24.94-6.64,49.87-13.3,74.75-20.14,8.38-2.31,12.49-7.67,13.13-16.37.29-3.89.32-7.8.32-11.71q0-124.8,0-249.62C1284.79,950.3,1284.48,948,1284.31,945.68Zm-208.92-12.57a62.44,62.44,0,0,0-6.16,2c-4.84,2.28-9.64,4.66-14.43,7.06-16.14,8.09-16.14,8.1-15.09,25.8,0,.48-.14,1.09.09,1.44,1,1.48,1.78,3.34,3.18,4.23,7.48,4.77,15.12,9.28,23.28,14.23C1074.06,971.07,1079,953.53,1075.39,933.11Zm-4.76-381.41c-5.69,1.64-9,5.78-12.22,9.86-13.13,16.77-24.63,34.65-32.73,54.37a278.49,278.49,0,0,0-12.27,37.5c-4.36,17.28-7.11,35-6.59,52.87.44,15.34.59,30.86,3.11,45.92a237,237,0,0,0,26.45,76.31c8.34,15.05,18.48,28.71,29.38,41.84,5.12,6.17,11.35,11.41,17.11,17,1.33,1.3,2.79,2.17,4.33-.82-48.16-43.68-73.86-98.67-77-163.37C1007,658.31,1027.16,600.84,1070.63,551.7Zm101.5,895.94c-7.55,38.59-13.72,153.43-9.62,185A1051.55,1051.55,0,0,0,1172.13,1447.64Zm-.21-830.17c-6.59,12.81-13.23,135.76-9.44,168.26C1169.35,730.35,1174.91,674.9,1171.92,617.47ZM1058.07,619c-6,3.87-10.35,7.91-15.47,9.68-11.2,3.86-16.66,11.67-18.69,22.71-.35,1.91-1.12,3.76-1.38,5.67a43.32,43.32,0,0,0,0,5.59l7.33-.78c.14.4.28.8.41,1.19l-8.77,4.74c16.45-2.72,39.49-15.53,42.21-22.89l-9.18,3.64c1.6-3.3,3.34-5.31,3.45-7.4C1058.29,634.13,1058.07,627.12,1058.07,619Zm41,301.76c29.14,18.11,60.3,29.58,94.28,32.52,37.79,3.26,74.15-2.52,108.43-19.37a30,30,0,0,0-7.45,2c-22.67,8.85-46.1,14.07-70.48,14.51-18.34.33-36.61-1-54.42-5.42a223.69,223.69,0,0,1-62.34-26.33C1104,916.73,1101.75,917.06,1099.06,920.72Zm31.23,397.14c-5.51,17.83-7.72,35.92-5.77,54.2.68,6.34,3.33,12.6,5.83,18.57,1.47,3.5,5,3.26,6.32-.35s2.43-7.54,2.16-11.24c-.77-10.64-2.07-21.25-3.56-31.82C1133.88,1337.4,1132,1327.65,1130.29,1317.86Zm-91.57-340.53v42.31c1.7-.56,2.93-.67,3.82-1.29,8.26-5.77,14.54-13.39,19.94-21.79a4.44,4.44,0,0,0-1.28-6.44c-6.51-4.51-13.2-8.78-19.87-13C1040.87,976.78,1040,977.18,1038.72,977.33Zm-49.79,40.14,1.67-.57c.12-15.65.76-31.3.16-47.29l-8.34.66c-4.43.36-7.48,2.66-8.1,7-1.41,10-2.26,20.05,4.51,28.72C982,1010,985.55,1013.67,988.93,1017.47Zm293.54-369,1.6,0a48.71,48.71,0,0,0,.5-4.93c0-23.41-.14-46.83,0-70.24,0-7.22-3.28-11.88-9.22-15.34-10.1-5.9-20-12.11-30.2-17.87-4.64-2.62-9.51-5.35-14.61-6.51-12.66-2.89-20.91-10.86-27.38-21.39-1.07-1.73-2.16-3.44-4.18-6.64-.36,2.9-1,4.18-.55,5,6,11.57,13.92,21.08,27.11,25a74.86,74.86,0,0,1,14.86,5.87c11.08,6.14,21.83,12.87,32.76,19.28,5.74,3.36,8.51,7.85,8.45,14.87-.19,21.71.19,43.42.39,65.13C1282,643.26,1282.31,645.87,1282.47,648.48ZM832.58,596.41l-1.37-.72c-1.55,4.29-3.24,8.53-4.62,12.88-2.66,8.32-1.15,16.65,2.3,24.1,6.36,13.72,17.7,23.28,30.52,30.56,17.92,10.17,37.52,16,57.82,19.33a88.66,88.66,0,0,0,10.15,1.08c1.12.05,2.3-.82,3.45-1.27-.33-.83-.38-1.24-.51-1.26-3.51-.63-7.05-1.11-10.53-1.84-18.13-3.76-36.1-8-52.58-16.94-12.3-6.65-23.39-14.49-31.22-26.6-7.44-11.48-9.3-23.21-4.52-36C831.87,598.64,832.21,597.52,832.58,596.41Zm370.7-92.82c-.25.4-.51.8-.76,1.21,1.25,2.36,2.4,4.78,3.76,7.07,4.87,8.19,11.19,15.15,20.57,17.67s17.66,6.84,25.8,11.79c5.1,3.09,10.3,6,15.46,9l1-1.24c-5.49-5.63-10.37-11.86-17.28-16.07-8.54-5.19-17-10.44-25.59-15.63C1218.57,512.77,1210.92,508.19,1203.28,503.59Zm-72.16,605.1-1.35.18c-.55,6.24-1.54,12.49-1.54,18.73,0,14.06.41,28.12.79,42.17a12.75,12.75,0,0,0,4.48,9.67c1.54-2.34,3.09-4.09,4-6.12,3.16-7.53,1.64-15.48.71-23C1136.46,1136.34,1133.54,1122.55,1131.12,1108.69ZM798.05,288.82c15.36,22.72,30.48,45.07,46,68l6.45-2.46L819.73,309c-4.24-6.24-8.51-12.45-12.73-18.7C804.94,287.19,802.5,285.94,798.05,288.82ZM988.14,523.46c6.74-1.06,10.06-5.77,7.8-12.24a73.89,73.89,0,0,0-7.16-15.11A55.53,55.53,0,0,0,978.46,484c-4.66-4-8.13-2.5-10.61,3.4,4,5.74,8.33,11.06,11.64,17C982.89,510.42,985.3,517.05,988.14,523.46Zm-139.48-9-1.59.27a8.82,8.82,0,0,0-.43,2.58c2.27,15.38,14.14,22.52,28.37,20.9,21.8-2.47,40.87-22.12,41.68-43.33.21-5.36.76-10.73.58-16.07-.44-13.19,4.67-17,15.61-20.15,5.6-1.61,11.21-3.2,16.81-4.85,1.8-.53,3.57-1.19,5.35-1.79a155.22,155.22,0,0,0-25.66,5.34c-9.24,2.84-14.65,9.26-15,19.29-.21,5.85-.93,11.73-.53,17.53,1.19,17.35-15.88,37.71-34.64,40.58-11.73,1.79-21.64-.69-27.39-11.69C850.4,520.37,849.69,517.33,848.66,514.45ZM1159.85,513c5.83-.29,10.18-3.89,10.85-9.73,1.19-10.3-1.24-19.83-8.19-27.78-3.68-4.19-8.15-4.49-13.71-1.45C1159.85,484.73,1163.29,497.61,1159.85,513ZM910.4,485.15c.91-6.3,1.86-11.48,2.27-16.7.1-1.35-1.28-3.05-2.36-4.22-4.6-5-9.32-9.86-14.07-14.7-.87-.88-2.1-1.41-4.52-3,0,4.45.13,7.52,0,10.58a15.48,15.48,0,0,0,4.81,12.37C901.08,474.1,905.17,479.2,910.4,485.15ZM779.87,556.4,778.71,555l-24.46,11.2c-1.08,6.72-2.15,12.69-3,18.69-.79,5.84-1.32,11.71-1.95,17.56a17.86,17.86,0,0,0,4.24-7.71c3-9.88,7.28-18.86,15.2-26C772.88,565.08,776.2,560.54,779.87,556.4ZM1151.55,485c-2.83-1.16-4.1-2.21-5.17-2-15.32,2.54-56.06,24.54-62.53,33.64,1.89,3.12,4,2.65,6.54.66,3.81-3,7.52-6.27,11.73-8.61,14-7.79,27.59-16.33,43.17-20.79C1146.88,487.37,1148.34,486.45,1151.55,485Zm177.2,21.66c-39.25-25.52-86.17-38-122.83-29.56C1274.87,481.77,1256.91,475.39,1328.75,506.62ZM824.62,374.39c-4.08,13.08-1.37,21.69,7.87,28.08,2.61,1.8,7.46,1.64,9.5-.32,1.88-1.8,2.7-6.14,1-8C837.23,387.74,831.24,381.47,824.62,374.39Zm458.12,318.89c-.33,3.32-.71,5.41-.74,7.51-.12,9-.21,18.05-.2,27.07q0,27.06.21,54.12c0,2.11-.49,4.54,1.69,6.76C1285.69,779.49,1285.12,700.16,1282.74,693.28Zm-313-45.2c-.75,9.75-2.39,19.4-1.39,29.87l8.64-.47c1.83-10,3.56-19.37,5.41-29.4Zm184.47-156c-2.86-3.51-4.9-2.49-6.94-1.81A183.71,183.71,0,0,0,1090.33,521c4.11,3.7,6.06.61,8.19-.87,14-9.77,28.78-18.19,44.94-24C1146.81,495,1150.09,493.61,1154.16,492.05Zm53.77,11.15L1258,533.7c.32-.41.64-.81,1-1.21-4.37-5-8.34-10.45-14.23-14.07-6.86-4.2-13.78-8.3-20.52-12.68C1219.71,502.8,1215.07,501.36,1207.93,503.2ZM965.32,724.64c-.6,9.78-1.13,18.58-1.75,28.77,4.68-2.12,8-3.43,11.14-5.15a4.49,4.49,0,0,0,2.1-3.36c-.51-6.72-1.36-13.4-2.12-20.26Zm317.81,182.93c2.54-8,2.17-74.07-.05-79.5C1281.33,833.65,1281.17,897.53,1283.13,907.57Zm-368-265.25C908,631,897.93,626.87,885,632.94,894.17,645.94,902.46,648.51,915.17,642.32Zm76.36-150.07c.62,4.41,2.35,5.73,6.13,4.89a29,29,0,0,1,7.9-.1c10,.67,18.86,4.47,27.44,9.26a20.36,20.36,0,0,0,3.6,1.16l2.13-4.88C1023.86,493.74,1008.91,487.89,991.53,492.25ZM1124.05,942.8c.77,7.45,1.16,13.17,2.08,18.8.27,1.68,1.79,3.37,3.15,4.62,3.24,3,5.92,2.23,7.8-1.86,2.56-5.55,2.05-11.23,1-17.31ZM1019.1,675.74l1,1.19c21.77-6.65,42.51-15.07,58.32-34.87-5,.19-7.19,2.29-9.42,4.51a46.26,46.26,0,0,1-6.42,5.88c-11.31,7.58-22.91,14.67-36.17,18.47A25.06,25.06,0,0,0,1021,673C1020.1,673.51,1019.7,674.81,1019.1,675.74ZM1098.23,527a23,23,0,0,0,4.29-1.55c2.92-1.76,5.56-4,8.52-5.63,13-7.23,25.73-14.86,40.14-19a5.4,5.4,0,0,0,2.6-1.14c.61-.78.67-2,1-3.23C1140.29,498,1105.5,516,1098.23,527Zm-92.69-214.95a11.81,11.81,0,0,0-.81-3.26q-8.24-14.55-16.64-29a11.84,11.84,0,0,0-2.21-2.85c-1.72-1.52-3.43-1.68-5.12,1.19,6.2,10.83,12.52,21.95,18.92,33C1001,313.46,1003,313.73,1005.54,312.06Zm29.2,198.47c-12.35-7.32-24.36-12.75-38.89-10,2,4.26,2,4.4,4.32,4.53,10.09.54,19.54,3,28.07,8.68,1.1.73,2.57.91,4.11,1.43C1033.16,513.6,1033.81,512.34,1034.74,510.53ZM783.2,1126.47c-7.82,15.94-10.52,34.62-6,41.56C785.36,1155.15,783.13,1141.33,783.2,1126.47ZM776.41,957c8.8-12.06,6.74-25.56,6-38.9C778.66,930.78,772.46,943.11,776.41,957Zm326.87-426.77c1,.17,1.34.32,1.49.23,14.78-8.41,29.37-17.19,45.82-22.14a8.27,8.27,0,0,0,3.1-1.77c.58-.53.71-1.56,1.13-2.58C1141.61,505.43,1110.22,521.4,1103.28,530.18ZM775.09,1382.3c7.87-7.15,10.79-27.17,6.65-40.61C778.58,1355.31,773.35,1367.38,775.09,1382.3Zm193-693.2c-2.37,6.2-1.75,12.34-1.2,18.81h7.76c.45-6.41.88-12.36,1.34-18.81Zm20-201.2c5.74,2.4,11.57-1.69,17.51-.1s12.42,2.25,18.44,4c5.85,1.73,10.65,6.31,17.07,6.51C1024.85,488,1007.87,480.81,988.13,487.9Zm209.05,14.87c-8.3-1.1-15.55.67-22.66,3-1.13.37-1.73,2.38-2.72,3.84C1184.15,512.36,1193,510.11,1197.18,502.77Zm1-4.46c5.87-6.17,5.63-17.71-1-24.07-.84,2.85-2.16,5.22-2.12,7.57C1195.14,487.19,1193.3,493,1198.2,498.31Zm-372.58-2.46L824.23,497c3.53,10.23,12.14,16.61,19.57,24.1,0-2.68-.19-5.52-1.66-7.25C836.87,507.67,831.16,501.83,825.62,495.85Zm64.62-116.06-.3-2c-7,1.81-14,3.49-20.85,5.49a96.58,96.58,0,0,0-13.68,4.84,12.91,12.91,0,0,0-7.88,12c4.06-9.91,12.71-12.52,21.86-14.65C876.41,383.9,883.3,381.72,890.24,379.79ZM756.6,424.55c1.49,7.74,11.11,19.68,19.45,24.79C773.68,437.16,763,432.52,756.6,424.55Zm457.07,125.77,1.29-.55V534.15L1203.19,524c-.24.28-.49.55-.74.83ZM757.41,418.71c3.49,6.94,15.91,19.44,20.21,20.32C772.85,431.43,762.4,420.92,757.41,418.71Zm21.75,23.79c-1.27,12,6.32,21.33,18.59,22.47-4.33-3.44-8.55-5.88-11.46-9.39S781.78,447.46,779.16,442.5Zm395.13,58.39,1.44,1.15,18.55-3.68c-1.89-1.94-2.89-3.74-3.68-3.65a115.51,115.51,0,0,0-14.31,2.53C1175.38,497.47,1174.94,499.62,1174.29,500.89ZM845.78,511.38c-4.29-8.21-14.91-18.82-20.07-20.52A112.36,112.36,0,0,0,845.78,511.38Zm324.42-27.73c4.82,5.73,8.91,2.16,12.36,1.77,2.89-.33,7.53.81,9-5.44Zm-139.45,36.1c-8.08-7.72-21.44-12.17-30.42-10.36,5.46,1.34,10.71,2.16,15.6,4S1024.7,518.77,1030.75,519.75Zm138.43-41.06c8,2.12,15.31-.89,22.75-2.89C1183.93,473.7,1176.44,475.33,1169.18,478.69Zm-91.91,34c2,.52,2.64.88,2.9.71q14.52-9.5,29-19.07C1098.71,500,1087.33,504.07,1077.27,512.69Zm95.62-21.51c2.84,2.9,7.27,2.85,15.47.65,2.2-.59,3.57-1.36,2.42-4.35C1184.82,487.93,1178.88,488.67,1172.89,491.18Zm-80.22,432.45c11.42,5.86,22.55,11.78,34.45,16.15-10.75-6.41-21.86-12.11-33-17.76C1094,922,1093.54,922.65,1092.67,923.63ZM969.53,641.49l.52,1.7c10.43,2.57,14.49,1,13.54-6.07Zm63.07-11.07,16.67-9.16C1033.8,623,1033.8,623,1032.6,630.42ZM888.43,447.56l-11.59,3,10.2,8.1C887.58,454.27,887.92,451.57,888.43,447.56Zm77.87,272.9,8.24-.47c-.17-2.93-.3-5.2-.45-8l-7.79.47Zm45.2,990.25,0-1-37.78,3.66a255.65,255.65,0,0,0,27-.84C1004.35,1712.23,1007.91,1711.33,1011.5,1710.71Zm50.26-1143.27,1.23,1.15,12.06-12.78-1.24-1.15ZM885.08,1706.84c-.16.47-.31.94-.46,1.4l20.24,3.09.18-1.18Zm185.33-842.71.37-.33,11.16,12.37c.16-.18.32-.36.49-.53ZM976.6,682.79c-6.52-1.71-6.52-1.71-8.39,1.9C971,684.79,973.7,686.13,976.6,682.79ZM1176,1246.43c5,4.06,5,4.06,9.19,3Zm137.45-319.56c.16.31.31.62.47.92l6.77-3.25-.6-1.15ZM928.65,413.74l-.91.49L932,418l.37-.34Zm-28.12-29.49-.26.17a15.77,15.77,0,0,0,.92,1.47c.07.09.41,0,.63,0Z"/><path class="cls-1" d="M774.55,961.8c5.31-1.34,7.47-5.34,9-10.2,4.34-13.65,3.61-27.6,1.79-41.34-2.66-20.06-6.78-39.91-9.74-59.94-1.27-8.59-1.18-17.38-1.77-27.21,14,6.39,23.67,16.75,35.21,24.32-9.76-12-22.66-20.17-35.06-29.14,46.3,24,94.79,41.13,146.93,47.6,0,2.85,0,5,0,7.12-.11,12.69-.3,25.37-.33,38.06,0,11.34,3.91,22,9.6,31.11s12.67,18,24,21.49c6.21,1.9,12.27,4.25,18.9,6.58-3.81,8.55-3.63,18.07-2.88,27.51.83,10.37,4,20,11.7,27.58.34.34.7.68,1,1,12.43,13.93,28.19,17.23,46.2,16.18,12.08-.7,22.55-5,31.88-11.38a88.36,88.36,0,0,0,21.36-20.82c13.23-18.17,20.73-38.68,18.72-61.59-.57-6.39-3.19-12.59-5.09-19.74,3.49,1.61,6.91,3,10.17,4.73,4.72,2.47,10.77,4.12,13.57,8,2.64,3.67,1.87,9.82,2.44,14.9.44,3.89.87,7.44,3.87,10.67,4.08,4.38,8.08,4.93,13.38,1,.16,3.07.37,5.17.37,7.27,0,18.56-.34,37.12.17,55.66.43,15.59-2.31,30.5-6.58,45.38-8.52,29.65-10.53,60-7.79,90.61.43,4.7,2.34,9.26,3.71,14.45l9.91-2a46.81,46.81,0,0,1,.57,5.19c0,23.93.43,47.86-.21,71.77-.23,8.65-2.3,17.42-4.7,25.8-5.65,19.73-10.68,39.6-13.05,60-1.58,13.54-2.39,27.25,2,40.6a31.11,31.11,0,0,0,1.69,4.81c4.45,8.43,2.4,9.32,14.54,6.76v42.89h1.82c1.41-10.71,0-21.61,1.21-32.92a9.53,9.53,0,0,1,2.83.79c7.56,5.37,15,10.89,22.62,16.19,3,2.11,3.68,4.67,3.26,8.19q-4.69,39.22-9.09,78.5c-1,8.48-1.32,17-2,25.54-.46,5.56-1.06,11.11-1.63,17.07-3.47.53-6.54,1.31-9.64,1.43-31.76,1.3-63.07,6.22-94.14,12.45-11.12,2.23-21.65,7.36-32.52,10.93-24.84,8.17-48.3,19.62-71.93,30.61-5.25,2.44-9.25,2.43-14.15-.5-8.58-5.12-17.66-9.38-26.3-14.39-21.37-12.38-44.17-21.77-66.86-31.22-10.68-4.45-22.43-6.6-33.87-8.9-19.34-3.88-38.81-7.05-58.23-10.51l-9.58-1.68a33.85,33.85,0,0,1-.24-4.53c2.13-25.54,4.07-51.09,6.54-76.58,1.32-13.59,3.66-27.07,5.35-40.63a9.46,9.46,0,0,1,4.8-7.62c3.93-2.36,7.67-5,12.66-8.3v24.85c3.93-3.57,2.71-8,3-12,.38-4.62.28-9.27.33-13.91.05-4.39,0-8.77,0-13.55,5.6-1.5,8.06-5.87,9.24-10.9a106,106,0,0,0,2.63-15.79c1.44-17.94-1.58-35.54-4.89-53-4.63-24.51-8-49-7.13-74.12.68-20.24.14-40.52.14-60.67,10.5-4.61,10.93-14.31,11.77-23.24,1.44-15.4-.52-30.67-3.31-45.84-2.6-14.16-5-28.35-7.32-42.55a77.85,77.85,0,0,1-1-12.38c-.09-27.84-.06-55.67,0-83.5C774.34,964,774.47,963,774.55,961.8Zm155.76,448.82c1.65-5.83-3.33-12.6-6.41-20-5-11.95-14-20.62-23.42-28.55a130.94,130.94,0,0,0-41.9-23.49c-11.79-4.06-23.71-7.52-36.48-4.93-7.34,1.5-12.38,6.33-15.34,12.38-2.61,5.32-3.79,11.67-4.25,17.67-2.43,31.85,6.57,59.92,29.82,82.35,8.92,8.62,19.34,15,32.46,16.79,17.7,2.48,33.09-.88,47.08-12.23C923.84,1440.9,930,1428.79,930.31,1410.62Zm41.31,2.91c0,3-.31,5.77,0,8.4,1.45,10.68,3.94,20.78,11.48,29.34,6.4,7.26,13.94,11.45,23,14.4,11.95,3.87,23.88,3.4,35.3.24,18.33-5.08,31.77-17.76,42.49-32.94a92,92,0,0,0,15.89-38.14c2.12-12.62,2.86-25-2.58-37.22-3.92-8.84-10.84-13.54-19.33-16.14-13.55-4.16-27.14-1.62-40.25,2.11a137,137,0,0,0-42.12,19.8,54.25,54.25,0,0,0-18.31,21.44C973.19,1393.81,970.29,1403.59,971.62,1413.53ZM1101.46,1166a40.08,40.08,0,0,0-4.42-21.25c-4.22-8.53-11.24-13.41-20.13-15.37-15-3.32-29.51-.05-43.85,4.32a148.27,148.27,0,0,0-36.85,17.53,51.74,51.74,0,0,0-18.88,21c-7.45,15.58-9.71,31.92-3.11,48.9,5.65,14.53,14.62,24.44,30,29.17,9.24,2.84,18.23,2.67,27.44,2.26,12.44-.55,23.32-6.07,32.59-13.45a97.89,97.89,0,0,0,26.17-31.16C1097.38,1194.64,1100.69,1180.71,1101.46,1166ZM803.64,948c1.21,7.92,2.18,15.88,3.67,23.74,3.3,17.46,9.2,33.57,22.13,46.71,6.34,6.46,13.94,10.52,21.45,14.93a29.6,29.6,0,0,0,9.45,3.54c11.58,2.17,22.95,2.28,34.52-1.47a52.36,52.36,0,0,0,24.89-17.07c6.25-7.75,10.88-16.88,10.55-28-.26-9-3.09-16.49-6.92-24.16-5.46-11-13.81-19.55-23.06-27a141.29,141.29,0,0,0-40.64-22.67c-10.57-3.82-21.31-6.41-32.79-6-6.23.22-10.83,2.22-14.35,7a35.37,35.37,0,0,0-3.94,6.86A60.78,60.78,0,0,0,803.64,948Zm126.57,252c-.34-3.55.08-7.95-1.26-11.72-5.72-16.1-16.39-28.85-29.66-39.09A144.56,144.56,0,0,0,858.35,1127c-11.57-4-23.44-6.76-35.85-5.06-1.87.25-4,.59-5.43,1.71-5.09,4.15-9.33,8.69-11.35,15.55-3.13,10.6-3.37,21.26-2.25,31.89a111.4,111.4,0,0,0,5.69,25.58A84.11,84.11,0,0,0,829,1227.91c9.8,9.87,20.75,17.35,34.86,19.65,18.24,3,34.81,0,49.23-12.26C923.76,1226.18,930.2,1215.08,930.21,1200.08Zm-14.93,327.07c-10.06-2.51-20.08-4.81-31.9-5.45C890.05,1525.42,909.19,1528.68,915.28,1527.15Zm-136.16-65.92,1.36-.55c-.87-7-3.75-13.57-8.57-17.55Zm82.37-587.8,1-2-6.59-1.82-.51,1.65Z"/><path class="cls-1" d="M1158.13,1554.85c.26,2.4.65,4.3.65,6.19,0,28.56-.23,57.13,0,85.69.06,6.47-1.93,9.76-8.1,12.58-29.5,13.49-59.4,26-89.47,38.14-8.31,3.36-16.84,4.91-25.52,5.92-26.15,3-52.32,5.86-78.5,8.64-3.59.38-7.26,0-11.65,0a52.67,52.67,0,0,1-.71-6.1c0-29.29.06-58.59-.11-87.89,0-4.61,1.68-6.8,5.8-8.75,31.52-15,63.66-28.41,96.81-39.25,10.11-3.3,20.92-4.45,31.4-6.66,23.68-5,47.82-6.2,71.82-8.53C1152.93,1554.65,1155.35,1554.85,1158.13,1554.85Z"/><path class="cls-1" d="M914.58,464.6l-20-21.33c2.67-7,8.59-9,14.39-10.67,9.57-2.8,19.27-5.19,28.91-7.77a24.86,24.86,0,0,0,2.62-1.08c-.78-1.51-1.22-3.15-2.25-4.22-13.13-13.78-26.45-27.38-39.47-41.27-3.55-3.79-7.09-4.3-11.77-2.85-6.75,2.09-13.62,3.77-20.47,5.49-7.67,1.92-15,4.42-20.44,11.91-7.05-7.4-13.7-14.38-20.38-21.41,3.44-6.5,9-9.16,15.25-10.89,24.41-6.76,48.78-13.68,73.22-20.31q59.93-16.26,119.95-32.19a59.52,59.52,0,0,1,12.21-1.94,19.58,19.58,0,0,1,15.76,6.32c17.39,18.15,34.89,36.2,52.3,54.32,8.11,8.45,16.13,17,24.16,25.51,2.27,2.41,4.42,4.92,7.5,8.36-18.88-.87-34.74,5.92-51.09,10.17-54.46,14.14-108.82,28.69-163.24,43A32.11,32.11,0,0,0,914.58,464.6Z"/><path class="cls-1" d="M741.16,1542.35c10.46,1.44,19.34,2.76,28.25,3.89,22.78,2.88,44.94,8.76,67,14.75,10.48,2.84,20.25,8.25,30.38,12.41,24.42,10,47.12,23.42,70.35,35.77,3.2,1.7,4.63,3.83,4.62,7.44-.07,30.27,0,60.53-.07,90.8a34.13,34.13,0,0,1-.8,4.92c-4.82-.58-9.36-.91-13.82-1.71q-40.29-7.17-80.53-14.59a34,34,0,0,1-8.26-2.82q-45.64-21.51-89.84-45.88c-5.26-2.89-7.56-6.09-7.47-12.43.4-27.82.18-55.65.18-83.48Z"/><path class="cls-1" d="M920.81,863.19c-11.4-1.88-22-3.08-32.43-5.46-14.46-3.33-28.89-7-43-11.56-10.64-3.4-20.71-8.53-31.15-12.56-23.74-9.17-45.45-22.32-67.85-34.14-3.43-1.81-5-3.93-5-7.91.1-30,0-60,.06-90a40.81,40.81,0,0,1,.85-5.52c4.9.61,9.41,1.26,13.93,1.74,27.5,2.92,54.15,9.81,80.4,18.06,13.89,4.37,27.39,10.23,40.65,16.31,15.48,7.1,30.45,15.3,45.77,22.77,4.33,2.11,4.15,5.47,4,9.19-.78,14.62-1.51,29.24-2.32,43.85q-1.33,24.12-2.78,48.23C921.73,858.06,921.3,860,920.81,863.19Z"/><path class="cls-1" d="M1142.91,1176.25c-1-11.25-1.35-21.51-2.8-31.61-2.15-15-5.25-29.78-7.5-44.73a36.23,36.23,0,0,1,.61-12.91c2.28-10.46,5.26-20.78,7.73-31.21a44.66,44.66,0,0,0,1.12-10.12q0-46.13-.19-92.26c0-1.45,0-2.89,0-4.45,12.17,2.12,23.93,4.7,35.84,6.07s24.25,1.58,36.9,2.33a29.59,29.59,0,0,1,.63,4.54q0,92.63-.11,185.26c0,7.6-1.19,9.78-7.54,11.55C1186.29,1164.67,1164.9,1170.32,1142.91,1176.25Z"/><path class="cls-1" d="M1061.47,848.17c-25.67-33.52-39.3-71.12-44.21-113,45.39-17.71,92.25-24.64,140.72-27,.25,2.7.66,5.05.66,7.4,0,29.06,0,58.12.07,87.18,0,4.43-1.33,6.92-5.71,8.79-15,6.43-29.57,13.93-44.7,20C1093.4,837.56,1078,842.36,1061.47,848.17Z"/><path class="cls-1" d="M1277.48,1219.27c-1.59-1.4-2.52-2.11-3.32-2.94-17.19-18-34.3-36-51.61-53.92-3.78-3.91-5.58-7.59-4.86-13.43,1.07-8.67.64-17.54.65-26.32q0-77.94,0-155.88v-9.34c20.37-.94,39.82-4.74,59-9.88C1279.2,953.55,1279.43,1208.73,1277.48,1219.27Z"/><path class="cls-1" d="M1233.92,493.54a38.41,38.41,0,0,0,5.13,1.59c4.33.71,8.71,1.13,13,1.82,34.83,5.52,65.56,20.29,92.41,42.74a208.72,208.72,0,0,1,53.68,68.72,233.31,233.31,0,0,1,20.28,60.84c3.25,17.6,4.07,35.33,3.69,53.2a219.76,219.76,0,0,1-7.07,49.16,229.48,229.48,0,0,1-19.42,50.4A216.66,216.66,0,0,1,1349,882.53a195.25,195.25,0,0,1-46.6,31.36c-17.69,8.5-36.1,14.63-55.56,17.39a201.06,201.06,0,0,1-61.89-.84c-20.93-3.5-40.36-10.92-59-20.63a3.34,3.34,0,0,1-1.78-2.83c1.62.41,3.42.51,4.84,1.29,10.73,6,22.29,9.72,34,13.26a150.29,150.29,0,0,0,37.38,6.22c7.79.34,15.6.5,23.39.34,22.75-.48,44.42-6.19,65.12-15.15a184.8,184.8,0,0,0,51.81-33.85,216.59,216.59,0,0,0,40.5-49.78A227.24,227.24,0,0,0,1411,740.49a229.86,229.86,0,0,0-5.67-85.68,236.41,236.41,0,0,0-21.49-54.2A206.18,206.18,0,0,0,1336.89,543c-9.51-8.2-20.72-14.51-31.43-21.25-13.53-8.53-28.58-13.79-44-17.54-10.82-2.64-22.07-3.8-33.21-4.82-7.93-.73-16-.14-24.63-.14.86-4.16,1.48-7.19,2.19-10.63,2-.25,3.86-.56,5.73-.69a184.79,184.79,0,0,1,83.78,13.37,198,198,0,0,1,56.89,35.4c14.36,12.69,27.35,26.65,37.53,42.82a349.76,349.76,0,0,1,21,39.24A188.57,188.57,0,0,1,1426,670.57a294.77,294.77,0,0,1,3.64,39.29,241.55,241.55,0,0,1-13.26,82.66,236.16,236.16,0,0,1-40.4,72.42,203.73,203.73,0,0,1-33,32.13,210,210,0,0,1-45,27.07c-16.29,7.12-33.34,12.35-51.16,14.55a220.39,220.39,0,0,1-60.48-.69c-24.51-3.71-46.72-13.35-68.49-24.47a8.54,8.54,0,0,1-1.64-1.48c.92-2.64,2.82-2.42,4.66-1.57,4,1.84,7.92,3.79,11.81,5.82,18.79,9.81,38.87,15.28,59.76,18.38,25.52,3.79,50.82,1.83,75.45-4.72a194.92,194.92,0,0,0,64.38-30.57,221.31,221.31,0,0,0,58.5-62.8A218.58,218.58,0,0,0,1413,788.94c10.68-32.48,14.09-65.62,11.13-99.63a226.86,226.86,0,0,0-19.38-73.94,215.68,215.68,0,0,0-51.28-71.44A200.73,200.73,0,0,0,1294.76,506c-15.51-6.44-31.7-11.2-48.63-12.72-4-.35-7.92-.91-11.88-1.37Z"/><path class="cls-1" d="M813.4,668.8l-13.88-10.17c-.35.38-.71.75-1.07,1.13a20.78,20.78,0,0,0,2.22,2.92c16.84,15.83,37.08,26.37,58.47,33.76,19,6.55,38.63,12,59.06,12.94,3.38.16,6.73.94,10.6,1.5v9.41c-7.64-.63-15.06-1.21-22.47-1.86-20.77-1.83-40.64-7.93-60.46-13.71C834.51,701.4,824,695.15,813,690.55c-15-6.24-26.86-17-38.49-27.54-7.71-7-12.28-17.44-18.26-26.35-1.86-12.84-6-25.22-1.18-38.74a90.71,90.71,0,0,1,20.11-32.51c6.44-6.79,13.22-12.84,21.41-17.45,11-6.19,20.89-14.44,33.39-17.83,2.07-.56,4.12-1.2,6.94-2,0,6.54,0,12.36,0,18.17,0,11-.15,22,0,33a13.72,13.72,0,0,1-3.24,9.28,71.62,71.62,0,0,0-8.89,14.09c-4.71,10.15-8.68,20.66-13.17,30.92C806.36,645.49,809.78,656.81,813.4,668.8Z"/><path class="cls-1" d="M1041.14,510.72l3.37-5.28c2.39,1.52,4.46,2.78,6.47,4.11q137.71,91.8,275.36,183.68c7.26,4.86,14.61,10.17,20.32,16.67,14.38,16.37,19.72,31.64,10.08,53-3.25,7.2-9.63,13.65-16,18.63-8.18,6.41-17.49,11.58-26.83,16.27Q1168.11,871,1022.07,943.72a129.51,129.51,0,0,1-25.9,9.86c-13.14,3.29-26.54,2-38.13-5.18a42.89,42.89,0,0,1-15.65-18c-5.32-11.08-6.92-22.84-6.75-34.86.16-12.2.84-24.39,1.5-36.58,1.75-32.18,3.65-64.34,5.42-96.52,1.82-33.15,3.53-66.3,5.31-99.45,1.79-33.4,3.4-66.81,5.54-100.18a233.33,233.33,0,0,1,4.6-35.49c2-9.14,6.82-17.52,14.08-25,1.46,2.19,2.46,3.69,3.51,5.25-12.13,14.36-14.4,31.56-15.46,48.94-2.12,34.6-3.84,69.22-5.7,103.83-1.61,30-3.12,60-4.76,90-1.75,32.18-3.75,64.34-5.35,96.52-.93,18.76-1.25,37.56-1.91,56.34a48.34,48.34,0,0,0,6.94,26.6c6.8,11.39,17.07,18.22,31.1,18.65,13.66.42,26-3.93,37.81-9.81q150.9-75.37,301.56-151.2c9.55-4.81,18.47-10.79,25.61-19.19,8.74-10.29,11.68-21.68,8.09-34.65a43.4,43.4,0,0,0-13.08-20.74,178.11,178.11,0,0,0-20.1-15.82q-136-90.94-272.25-181.63C1045.88,513.93,1043.68,512.43,1041.14,510.72Z"/><path class="cls-1" d="M1219.35,650.23l26.82,17.87c9.33,6.22,18.58,12.58,28,18.6a8.85,8.85,0,0,1,4.59,8.35q-.15,45.74,0,91.46c0,3.42-.76,5.89-4.23,7.61-17.46,8.65-34.8,17.55-52.2,26.34a18.82,18.82,0,0,1-2.66.87C1218.05,815.61,1217.66,660.11,1219.35,650.23Z"/><path class="cls-1" d="M1124.63,487.44c0-5.83,0-10.14,0-14.45-.12-8.05-.17-16.1-.5-24.14s-1.82-9-9.48-7q-45.51,12.18-91,24.4c-10.58,2.84-21.22,5.46-31.77,8.44-7,2-12.5.13-16.84-5.43a51.64,51.64,0,0,1-9.32-20.09,29.28,29.28,0,0,1,4.63-2.19q78.61-21.21,157.28-42.29c6.15-1.65,12.4-2.61,18.72-.52,3.34,1.11,6.18,2.66,7.79,6.07q14,29.75,28.13,59.45a2.46,2.46,0,0,1,.06.73c-6.65,4.21-14,4.59-20,1-5.71-3.35-11.64-3-16.74,1.35-3.49,3-6.49,6.53-10.15,9.24C1132.61,484.12,1129.14,485.24,1124.63,487.44Z"/><path class="cls-1" d="M895.35,474c-24.44.55-34.37,8.49-44.47,35-2.79-2.73-5.37-5.21-7.91-7.75-3.79-3.79-7.4-7.79-11.39-11.36-1.64-1.46-4.09-2-6.12-3a15.64,15.64,0,0,1-4.17-2.49Q804.23,466.78,787.35,449c-1-1-2.16-2.3-2.4-3.6-1.34-7.26-6.67-11.7-11.3-16.66-1.83-2-3.45-4.18-5.53-5.83-5-3.93-5.22-8.88-4-14.51,3.12-14.91,20.35-28.51,35.49-27.12a22.47,22.47,0,0,1,11.84,4.82c6.11,5.17,12.36,10.72,16.71,17.32,11.4,17.25,26.72,30.8,41.2,45.06,7.4,7.28,15.9,13.52,22.79,21.43C893,471,893.83,472.1,895.35,474Z"/><path class="cls-1" d="M1215.25,1159l60.59,63.53c-2.94,1.29-4.93,2.47-7.09,3.06-24,6.49-48,12.79-71.92,19.37-9.33,2.56-17,1.28-23.68-6.43-8.49-9.74-17.68-18.87-26.72-28.11a11.18,11.18,0,0,1-3.49-8.45c.07-4.63-.14-9.27-.14-13.9,0-9.11,0-9.09,8.56-11.37q26.81-7.17,53.6-14.41C1208.21,1161.36,1211.39,1160.19,1215.25,1159Z"/><path class="cls-1" d="M1037.36,517.8c.74-2.88,1.75-4.43,4.27-3.13a53.37,53.37,0,0,1,4.93,3.15q137.68,91.8,275.33,183.67c10.12,6.77,19.43,14.41,25.8,25.39a34.29,34.29,0,0,1-1.44,35.86c-7.37,10.6-17.93,17.15-29,22.8-30.22,15.36-60.62,30.36-90.92,45.56q-103.63,52-207.27,104a111.36,111.36,0,0,1-31.74,10.44c-16.36,2.75-33.27-8.37-38.43-23.48-3.73-10.95-4.29-22.06-3.76-33.2,1.84-38.76,4.23-77.5,6.33-116.26,2.12-39.24,4.11-78.48,6.24-117.72q2.6-47.9,5.47-95.78c.47-7.76,2-15.46,2.55-23.22.61-9.27,6-16.31,10.05-24.43,3,1.41,3.91,3.22,2.31,5.85-10,16.41-9.77,34.9-10.79,53.14q-2.7,48.26-5.41,96.51c-1.81,33.14-3.49,66.3-5.32,99.44-2.17,39.49-4.59,79-6.54,118.45a164.79,164.79,0,0,0,1.13,27,34.51,34.51,0,0,0,10.31,21.28c4.84,4.73,10.52,6.74,17,7.5,12.48,1.48,23.58-3,34.32-8.34,40.21-19.92,80.3-40.07,120.45-60.13q90-45,179.95-90c10.41-5.24,20.4-11.26,27.78-20.91a28.87,28.87,0,0,0,1.89-32.13c-6.23-10.43-15.42-17.58-25.14-24.09q-70.83-47.51-141.9-94.67-66.09-44.06-132.17-88.13C1041.54,520.81,1039.59,519.37,1037.36,517.8Z"/><path class="cls-1" d="M1046.68,498.81c3.21,1.94,5.3,3.09,7.28,4.41q138.61,92.4,277.16,184.91c7.46,5,15,10.54,20.75,17.28,6.72,7.81,12.46,16.52,14.91,27.24,2.65,11.59,1.48,22.75-3.69,32.64A69.75,69.75,0,0,1,1345.17,787c-9.26,7.36-20,13.11-30.61,18.45q-144.8,72.74-289.84,145a136.78,136.78,0,0,1-26.56,10.17c-15.13,3.88-30.46,2.51-43.78-5.76a49.92,49.92,0,0,1-19.3-22.33c-7.17-16-7.44-32.71-6.6-49.53,2-41.2,4.63-82.37,6.88-123.57,2.13-39,4-78,6.19-117q2.67-48.25,5.74-96.49a81.83,81.83,0,0,1,12.43-39.3,43.94,43.94,0,0,1,6.78-7.48c.58-.56,2-.24,3.18-.33-3.76,6.46-7.54,12.29-10.62,18.48a45.69,45.69,0,0,0-4.72,13.64c-1.87,13.52-3.59,27.1-4.39,40.71-2.44,41.18-4.35,82.39-6.6,123.58-2.64,48.26-5.44,96.51-8.13,144.77-.92,16.57-2.09,33.14-2.51,49.73-.37,14.67.36,29.38,7.57,42.74,5,9.17,11.71,16.7,21.59,20.86,14.68,6.17,29.47,5.77,44.1.09,8.84-3.44,17.61-7.17,26.09-11.4q143.42-71.57,286.65-143.43a192.05,192.05,0,0,0,26.12-16.12c16.31-11.79,23.79-35.39,16.75-54.35a60.5,60.5,0,0,0-12.45-19.61,121.62,121.62,0,0,0-21.37-17.69q-136.89-91.62-274-182.88a42.88,42.88,0,0,1-5.93-4.26C1047.05,503,1047.2,501.32,1046.68,498.81Z"/><path class="cls-1" d="M931.74,671.45c-10.35,2-19.33-3.58-29-2.75,7.81,4.79,17,4.66,25.38,8-3.39-.19-6.89.06-10.17-.65-18.37-4-36.63-8.64-53.05-18-12.55-7.19-24.17-16.06-30.1-29.9-4.35-10.16-4.92-20.73,1.61-31.57,1.51,10.43-1,20.82,5.18,31.4a29.68,29.68,0,0,0,.42-4.39c-.54-5-1.65-10.08-1.69-15.13-.18-25.63-.09-51.25-.09-76.88a31.71,31.71,0,0,1,.65-7.56c10.05,10.43,20.34,19.63,36.72,16.71.14,3.44.34,6,.35,8.6.11,25.14.29,50.28.2,75.42,0,5.54,1.22,9.88,6.1,13.08a55.71,55.71,0,0,1,8.33,7.12c3.83,3.78,7.93,4.63,13.31,3.55a120.64,120.64,0,0,1,21-2c5.16-.11,5.93,1,5.84,6.17C932.62,658.84,932.09,665.11,931.74,671.45Zm-88.46-41.86c3.63,10.6,11.22,17.27,19.72,23l1.09-1.06Q853.68,640.58,843.28,629.59Zm25,26.29,11.34,6.19C877.34,657.25,875.06,655.88,868.27,655.88Zm24.17,8.65-.6,1.89,6.8,2.22.63-2Z"/><path class="cls-1" d="M1194.13,512.68c6.28,14.31,12.74,29,19.19,43.72q5.58,12.72,11.12,25.46c.39.9.76,1.8,1.11,2.71,2.36,6.29,1.82,10.42-1.75,13.46-5,4.23-11.62,4.93-16.86,1.45q-37.18-24.72-74.29-49.55-11.25-7.53-22.49-15.09a29.45,29.45,0,0,1-2.73-2.49c5.09-2.83,9.59-5.57,14.3-7.9,7.18-3.57,14.49-6.86,21.75-10.26a10.94,10.94,0,0,1,10.47.15c4.48,2.34,9.19,2.94,13.92,0a10.2,10.2,0,0,1,4.85-1.08C1179.47,513,1186.23,512.88,1194.13,512.68Z"/><path class="cls-1" d="M1062,640.55c-.35-8.64-.7-17.3-1.09-27l-24.14,5.83c1.33-12.29,27.19-50.69,42.35-62.58l85.62,57C1157.82,618,1071.09,640.47,1062,640.55Z"/><path class="cls-1" d="M1057.77,901.87c-.34.51-.51,1.09-.87,1.27-19.74,9.5-39.52,18.92-59.24,28.46-5.94,2.88-12.2,3.12-18.57,3-9.42-.15-15.65-5.38-19-13.49-2.2-5.27-3.1-11.21-3.8-17-.61-5-.13-10.17-.13-16l22.4-1.16c0-.6.05-1.2.08-1.8-3.35-1.4-7.09-.57-10.63-.73s-7.25,0-10.84,0a8.57,8.57,0,0,1-.91-2.41c.46-16.95.12-13.64,13.53-15,15.73-1.57,31.4-3.82,47-6.07,2.91-.41,5.11-.75,7,2,9.52,13.67,20.9,25.71,32.95,37.15A7.08,7.08,0,0,1,1057.77,901.87Z"/><path class="cls-1" d="M944.6,524.43V463.64l17.52-4.55c3,3.94,5.79,7.58,8.59,11.21,6.29,8.19,14.33,10,24.07,7.19,18.26-5.21,36.61-10.13,55-15.06,19.28-5.18,38.59-10.24,57.9-15.31,1.85-.49,3.77-.71,6.37-1.19,2.83,7.18,1,14.51,1.65,21.58s1.56,14,2.37,21.09c-15.37,1.42-26.44,11.06-38.7,18.08-5.6,3.21-5.33,3.71-10.76.18-4.49-2.92-8.9-6-13.45-8.84-3.36-2.09-6.22-5.51-11.12-3.74-1.17.42-3.16-1-4.61-1.88-11.71-7-24.6-10.44-38-12a28.63,28.63,0,0,0-10.73,1.2,13.49,13.49,0,0,1-10.48-1c-9.62-4.79-21.23,3.14-21,14.1,0,1.35.13,2.93-.47,4-2.31,4.25-5,8.3-7.34,12.54C949.07,515.35,947.09,519.53,944.6,524.43Z"/><path class="cls-1" d="M1045.67,534.74c-2.28,2.61-3.59,4.37-5.16,5.85-12.18,11.51-21.4,25.44-29.89,39.56-8.11,13.48-15.92,27.49-20,42.94-2,7.56-5.78,11.93-13.68,12.52a51.37,51.37,0,0,0-6.08,1.24,44.55,44.55,0,0,1-.6-6.23c1.54-27.5,3-55,4.88-82.48.43-6.22,2.49-12.34,4-18.45.39-1.57,1.62-2.93,2.42-4.3,12.13,2.54,13.34,1.8,19.5-12.11C1018.37,514.67,1031.15,525.33,1045.67,534.74Z"/><path class="cls-1" d="M1278.2,830c.19,3.48.42,5.88.43,8.28q.09,32.17.09,64.35c0,7.51-.15,7.38-6.74,10.08-15.17,6.21-31,9.88-47.14,12.4a21.16,21.16,0,0,1-3.65.16,13.88,13.88,0,0,1-2.37-.5c-.15-1.66-.44-3.32-.44-5,0-18.28.08-36.56,0-54.84,0-3.76.75-6.23,4.54-8.06,17.09-8.28,34-16.91,51-25.38A42.59,42.59,0,0,1,1278.2,830Z"/><path class="cls-1" d="M1278.05,645.72c-8.67-3.74-56.33-36-59.87-40.62,1.54-1.05,3-2.15,4.6-3.1,7.27-4.44,9.09-9.23,6.07-17.22a132.8,132.8,0,0,0-6.66-15.44,34.31,34.31,0,0,1-3.86-18.32c.22-4.61,0-9.24,0-14.12,8.2.86,15.07,3.85,21.59,7.63,10.77,6.23,21.35,12.77,32.11,19,4.2,2.42,6.41,5.58,6.4,10.58-.06,22.7,0,45.4.06,68.11A28.85,28.85,0,0,1,1278.05,645.72Z"/><path class="cls-1" d="M929.11,724.16c-.6,9.6-1.17,18.73-1.8,28.88-2.64-1-4.74-1.42-6.46-2.47C897,736.11,871,726.15,845.31,715.72c-7.4-3-15.38-4.58-23-7-24-7.53-48.73-11.67-73.64-14.81-2.12-.26-4.2-.89-7.09-1.52,1.32-27.07,4-53.67,7.63-80.54.43,2.31.9,4.61,1.28,6.92a62.05,62.05,0,0,1,1.15,8c.28,7.34,3.45,13.34,7.2,19.54,7.83,13,18.1,23.08,30,32.43,12.33,9.71,26.48,15.27,40.09,22.21s28.53,9.61,43,13.79c15.77,4.57,31.87,6.8,48.19,7.86A85.51,85.51,0,0,1,929.11,724.16Z"/><path class="cls-1" d="M1018.63,857.43c-20.1,5.71-40.3,5.64-61,7.8,0-3-.11-5.34,0-7.71,1.66-29.95,3.24-59.9,5.09-89.84.76-12.22,1.09-12.27,14.37-15.71,5.4,18.08,8.65,36.76,15.62,54.5S1009.73,840.27,1018.63,857.43Z"/><path class="cls-1" d="M882.13,539.91c16-5,26.66-15.78,34.74-30.1,2,7.88,2.31,117.28.4,127.75-5.51-3-8.94-9.46-15.78-9.52-6.27,0-12.54.27-19,.43C881.07,623.88,880.55,552.19,882.13,539.91Z"/><path class="cls-1" d="M833.79,408.23c5.64-1.59,9.89-2.59,14-4,4.43-1.5,8.56-3.39,10.25-8.53a6.39,6.39,0,0,1,4.05-3.52c8.8-2,17.64-3.82,26.55-5.12a13.18,13.18,0,0,1,11.52,3.64c9.71,10,19.31,20,28.91,30.07.44.46.5,1.3,1,2.8-5.65,1.69-11.07,3.69-16.66,4.92-9.11,2-16.88,5.54-22.69,13.42-1.81,2.47-6.38,2.86-9.63,4.33-5.92,2.7-10.26,1.22-14.68-3.69C856.18,431.15,845.33,420.28,833.79,408.23Z"/><path class="cls-1" d="M930.83,688.62c-.35,5.91-.71,11.88-1.11,18.47-11.92-.72-22.8-1.23-33.46-3.8s-21.47-4.69-31.81-8.19c-10.11-3.42-19.59-8.66-29.59-12.47-7.72-2.93-13.15-7.86-17.4-14.79a37.34,37.34,0,0,1-4.92-26c1.38-8.46,5.43-16.49,9.63-24.48a16.19,16.19,0,0,1,.9,3.19c1.08,15.32,9.87,25.94,21.08,35.25,14.73,12.22,31.65,19.89,50.1,24.37C906,683.07,917.86,685.65,930.83,688.62Z"/><path class="cls-1" d="M1158.83,704.49c-24,3.37-48.17,3.48-71.83,8.42-23.3,4.87-46.41,10.21-69.57,18.91-.53-4.56-.92-7.85-1.38-11.8,7.29-1.38,14.12-2.95,21-3.94,15.13-2.16,28.79-8.89,43.18-13.31,18.07-5.54,33.54-15.94,48.42-26.72,9.87-7.16,17.25-17.79,25.55-27,1.37-1.53,1.78-4,2.51-6,2.78-7.77,5.52-15.56,8.23-23.23.51-.06.77-.17,1-.1a.65.65,0,0,1,.34.5,17.63,17.63,0,0,1,.11,2.9C1163.92,650,1161.4,676.91,1158.83,704.49Z"/><path class="cls-1" d="M1205.8,481c15.29-.46,30.48-.9,45.82,1.41a203.81,203.81,0,0,1,71.9,25.46c13.29,7.65,25.39,17.19,36.8,27.62a218,218,0,0,1,35.38,41.8,243.53,243.53,0,0,1,23.67,46.9,250.1,250.1,0,0,1,16.1,85.82,253.45,253.45,0,0,1-5.76,55.93,240.73,240.73,0,0,1-30.32,76.43,222.47,222.47,0,0,1-97.78,87.41,209.9,209.9,0,0,1-47.29,14.77c-17.46,3.38-35,3.75-52.46,2.57a191,191,0,0,1-71.54-19.19c-7.38-3.61-14.6-7.54-22.06-11.41,1.74-3.36,3.47-3.25,5.71-2.08,7.14,3.71,14.3,7.38,21.52,10.92a171.74,171.74,0,0,0,47.21,14.87,235.48,235.48,0,0,0,34.14,3.22c26.89.57,52.86-4.7,77.74-14.8A208,208,0,0,0,1334.25,907a220,220,0,0,0,43.12-39.39,224.17,224.17,0,0,0,29.52-45.21,246.69,246.69,0,0,0,22.38-69.31c3.37-20.08,3.64-40.24,2.44-60.54a224.1,224.1,0,0,0-9.22-50.26,234,234,0,0,0-20.84-49,223.18,223.18,0,0,0-48.8-59.78,200.36,200.36,0,0,0-71.64-40,191.11,191.11,0,0,0-66.31-8.76,42.22,42.22,0,0,1-7.29-.2c-.87-.11-1.59-1.28-2.38-2Z"/><path class="cls-1" d="M1016.45,715.65v-9c32.07-6.49,62.68-17.06,90.35-38.6h-6.62c1.37-2.63,2.12-4.91,3.54-6.63,7.91-9.58,16-19,24-28.52a23.09,23.09,0,0,1,12.73-8c6.52-1.57,13-3.4,20.15-5.3a32.92,32.92,0,0,1-.34,4.36c-.41,1.65-1.22,3.21-1.56,4.86-3.77,18.58-17,30.87-29.49,43.39-4.37,4.37-10.74,6.65-15.84,10.38-19.48,14.25-42.46,20.42-64.77,27.93-8.9,3-18.59,3.66-27.93,5.31A21.73,21.73,0,0,1,1016.45,715.65Z"/><path class="cls-1" d="M941,464.17v7.93c0,22.2,0,44.4-.12,66.6,0,3.8-1.12,7.58-1.66,11.38-.41,2.9-.88,5.8-1,8.71q-2.29,39.81-4.48,79.62c-.1,1.67-.35,3.33-.58,5.52l-10.47-1.58a30.75,30.75,0,0,1-.89-5.1q.21-82,.55-163.92c0-6.4,3.25-10,9-10.17C934.26,463.06,937.35,463.77,941,464.17Z"/><path class="cls-1" d="M1059.15,544.63c-44.56,51-65.36,110.37-62.48,177.6S1025.4,846.85,1074,893.59c-2.76,3.35-5.29,3.19-7.85.82-3.41-3.15-6.93-6.19-10.08-9.58a247.5,247.5,0,0,1-39.53-56,258.14,258.14,0,0,1-22-61,254.4,254.4,0,0,1-4.29-88,250.61,250.61,0,0,1,24.54-81.5,258.25,258.25,0,0,1,32.56-49.28,67.87,67.87,0,0,1,5.66-5.72C1055,541.5,1056.87,541.67,1059.15,544.63Z"/><path class="cls-1" d="M1285.33,909.88l7-3.81c27.64-15.15,50.1-36,68.56-61.47A217.64,217.64,0,0,0,1394,775a226.51,226.51,0,0,0,5.79-97.87c-5.86-36.35-19.11-69.8-41.35-99.61-15.55-20.84-34.46-37.77-56-51.94-6.08-4-12.79-7-19-11.11a16.45,16.45,0,0,1,2.93.68c25.81,11.32,48.52,27.05,67.29,48.15a210.43,210.43,0,0,1,31.31,45.72A231.79,231.79,0,0,1,1402,771.21a202.45,202.45,0,0,1-16.22,43,251.11,251.11,0,0,1-22.91,36.47,198.74,198.74,0,0,1-33.71,34.39c-11.46,9.26-24.08,16.53-37.09,23.24-1.91,1-3.9,1.8-5.85,2.69Z"/><path class="cls-1" d="M978.61,1009.82a30.35,30.35,0,0,0,2.51,4.38c10.31,12.74,24.07,16.31,39.76,15.1,12.3-.94,22.3-6.51,30.73-15,20.16-20.26,29.3-45,28.79-73.38-.07-3.61-.81-7.21-1.29-11.23l6.43-3.66c9.36,3.92,11.47,12.68,12.43,20.84a77.11,77.11,0,0,1-10.15,48.54,191.07,191.07,0,0,1-13,19.33c-8,10.61-19.25,17.06-31.3,22.08-2.86,1.18-6.07,1.58-9.15,2.17a58.77,58.77,0,0,1-38.43-5.25c-8.91-4.57-16.19-12-19.26-22.14Z"/><path class="cls-1" d="M1034.53,953.09a42.75,42.75,0,0,1,.63,5.12q-.12,28.9-.37,57.81c0,5.48-.86,7.07-5.46,8.13-9.58,2.22-19.2,3.1-28.71-.9-3.4-1.42-4.85-3.45-4.84-7.15,0-14.39-.12-28.79-.31-43.18,0-3.25.8-5.57,4.16-6.79C1011,962,1022.34,957.66,1034.53,953.09Z"/><path class="cls-1" d="M1064.07,851.08l75.85-29.49c-9,6-17,11.36-25.07,16.8s-16.41,10.58-23.69,17.21c6.31-1.44,11-5.67,16.17-8.93s10.14-6.75,15.21-10.12c5.22-3.48,10.45-6.93,16.87-11.18.13,5.07.83,9,.19,12.6-1.33,7.66-3.41,15.18-5.11,22.77-.77,3.39-2.88,5.37-6,6.85q-14.14,6.84-28.1,14c-2.85,1.46-5.35,2.15-7.92-.46-8.54-8.68-17.16-17.27-25.69-26A29.25,29.25,0,0,1,1064.07,851.08Z"/><path class="cls-1" d="M1052,538.49c-47,52.57-70.14,113.23-67.3,183,2.84,69.56,30.6,128.13,81.67,177.86-3,0-4.5.39-5.59-.1-1.27-.56-2.17-1.91-3.27-2.87-23.72-20.73-41.29-46.17-54.84-74.24a234.91,234.91,0,0,1-18.68-56c-4.92-24.55-6.83-49.18-4.76-74.17a265.68,265.68,0,0,1,13.3-65,245.31,245.31,0,0,1,19.82-43.13c9.29-16,19.91-31.3,33.67-44a14.18,14.18,0,0,1,3-2C1049.3,537.74,1049.88,538.06,1052,538.49Z"/><path class="cls-1" d="M873.6,529.82c-13.73.55-22.58-11-17.48-27.06,4.52-14.24,15-23.66,29.89-25.65,14.35-1.9,23.43,6.83,22.48,20.64C907.35,514.56,890,530.64,873.6,529.82Z"/><path class="cls-1" d="M1017.8,702.24c0-6.39-.38-12.2.23-17.91.18-1.68,2.89-3.64,4.86-4.48,5.8-2.49,11.89-4.28,17.71-6.73,13.3-5.6,25.72-12.59,35.55-23.49a78.12,78.12,0,0,1,7.15-7.29c3.06-2.61,5.14-2.35,7.26.92,5.22,8,5.73,17,3.92,26-.52,2.61-3.63,5-6,6.9-11.06,8.75-24.32,13-37.34,17.74C1040.63,697.68,1030.07,701.18,1017.8,702.24Z"/><path class="cls-1" d="M1079.58,891.69c-1.35-.57-3-.81-4-1.75-5.37-5-11-9.76-15.78-15.24a239.66,239.66,0,0,1-49.29-88,253.2,253.2,0,0,1-11-86.64,260.07,260.07,0,0,1,6.92-49.16,246.31,246.31,0,0,1,13.1-38.74A211.83,211.83,0,0,1,1048.19,563c3.93-4.95,8.18-9.65,12.47-14.29.86-.94,2.56-1.1,4.5-1-43.36,50.6-64.16,108.91-61.1,175.06,3,65.82,28.83,121.88,77.15,167.52Z"/><path class="cls-1" d="M1284.31,945.68c.17,2.31.48,4.62.48,6.93q0,124.81,0,249.62c0,3.91,0,7.82-.32,11.71-.64,8.7-4.75,14.06-13.13,16.37-24.88,6.84-49.81,13.5-74.75,20.14a34.65,34.65,0,0,1-6.15.52c-.1-.53-.19-1.06-.29-1.59,2.22-.48,4.46-.87,6.65-1.46q36-9.64,71.94-19.38c10.42-2.85,12.7-5.79,12.72-16.5q.22-128.47.35-256.94c0-3.09.22-6.18.33-9.27Z"/><path class="cls-1" d="M1075.39,933.11c3.62,20.42-1.33,38-9.13,54.78-8.16-4.95-15.8-9.46-23.28-14.23-1.4-.89-2.2-2.75-3.18-4.23-.23-.35-.06-1-.09-1.44-1-17.7-1-17.71,15.09-25.8,4.79-2.4,9.59-4.78,14.43-7.06A62.44,62.44,0,0,1,1075.39,933.11Z"/><path class="cls-1" d="M1070.63,551.7c-43.47,49.14-63.61,106.61-60.45,171.51,3.16,64.7,28.86,119.69,77,163.37-1.54,3-3,2.12-4.33.82-5.76-5.62-12-10.86-17.11-17-10.9-13.13-21-26.79-29.38-41.84a237,237,0,0,1-26.45-76.31c-2.52-15.06-2.67-30.58-3.11-45.92-.52-17.9,2.23-35.59,6.59-52.87a278.49,278.49,0,0,1,12.27-37.5c8.1-19.72,19.6-37.6,32.73-54.37C1061.61,557.48,1064.94,553.34,1070.63,551.7Z"/><path class="cls-1" d="M1172.14,1447.64a1052.52,1052.52,0,0,1-9.63,185C1158.41,1601.07,1164.58,1486.23,1172.14,1447.64Z"/><path class="cls-1" d="M1171.92,617.47c3,57.43-2.57,112.88-9.44,168.26C1158.69,753.23,1165.33,630.28,1171.92,617.47Z"/><path class="cls-1" d="M1058.07,619c0,8.16.22,15.17-.14,22.15-.11,2.09-1.85,4.1-3.45,7.4l9.18-3.64c-2.72,7.36-25.76,20.17-42.21,22.89l8.77-4.74c-.13-.39-.27-.79-.41-1.19l-7.33.78a43.32,43.32,0,0,1,0-5.59c.26-1.91,1-3.76,1.38-5.67,2-11,7.49-18.85,18.69-22.71C1047.72,626.87,1052.05,622.83,1058.07,619Zm-24.7,41.51c8.39-1.26,11.14-2.81,14.26-8.12C1042.3,654.48,1037.89,655.73,1033.37,660.47Z"/><path class="cls-1" d="M1099.06,920.72c2.69-3.66,4.94-4,8-2.12a223.69,223.69,0,0,0,62.34,26.33c17.81,4.41,36.08,5.75,54.42,5.42,24.38-.44,47.81-5.66,70.48-14.51a30,30,0,0,1,7.45-2c-34.28,16.85-70.64,22.63-108.43,19.37C1159.36,950.3,1128.2,938.83,1099.06,920.72Z"/><path class="cls-1" d="M1130.29,1317.86c1.68,9.79,3.59,19.54,5,29.36,1.49,10.57,2.79,21.18,3.56,31.82.27,3.7-.84,7.69-2.16,11.24s-4.85,3.85-6.32.35c-2.5-6-5.15-12.23-5.83-18.57C1122.57,1353.78,1124.78,1335.69,1130.29,1317.86Z"/><path class="cls-1" d="M1038.72,977.33c1.24-.15,2.15-.55,2.61-.26,6.67,4.27,13.36,8.54,19.87,13a4.44,4.44,0,0,1,1.28,6.44c-5.4,8.4-11.68,16-19.94,21.79-.89.62-2.12.73-3.82,1.29Z"/><path class="cls-1" d="M988.93,1017.47c-3.38-3.8-7-7.45-10.1-11.45-6.77-8.67-5.92-18.73-4.51-28.72.62-4.37,3.67-6.67,8.1-7l8.34-.66c.6,16,0,31.64-.16,47.29Z"/><path class="cls-1" d="M1282.47,648.48c-.16-2.61-.43-5.22-.46-7.83-.2-21.71-.58-43.42-.39-65.13.06-7-2.71-11.51-8.45-14.87-10.93-6.41-21.68-13.14-32.76-19.28a74.86,74.86,0,0,0-14.86-5.87c-13.19-3.94-21.09-13.45-27.11-25-.4-.77.19-2.05.55-5,2,3.2,3.11,4.91,4.18,6.64,6.47,10.53,14.72,18.5,27.38,21.39,5.1,1.16,10,3.89,14.61,6.51,10.18,5.76,20.1,12,30.2,17.87,5.94,3.46,9.26,8.12,9.22,15.34-.15,23.41,0,46.83,0,70.24a48.71,48.71,0,0,1-.5,4.93Z"/><path class="cls-1" d="M832.58,596.41c-.37,1.11-.71,2.23-1.11,3.32-4.78,12.79-2.92,24.52,4.52,36,7.83,12.11,18.92,19.95,31.22,26.6,16.48,8.92,34.45,13.18,52.58,16.94,3.48.73,7,1.21,10.53,1.84.13,0,.18.43.51,1.26-1.15.45-2.33,1.32-3.45,1.27a88.66,88.66,0,0,1-10.15-1.08c-20.3-3.35-39.9-9.16-57.82-19.33-12.82-7.28-24.16-16.84-30.52-30.56-3.45-7.45-5-15.78-2.3-24.1,1.38-4.35,3.07-8.59,4.62-12.88Z"/><path class="cls-1" d="M1203.28,503.59c7.64,4.6,15.29,9.18,22.91,13.81,8.55,5.19,17,10.44,25.59,15.63,6.91,4.21,11.79,10.44,17.28,16.07l-1,1.24c-5.16-3-10.36-5.92-15.46-9-8.14-5-16.44-9.28-25.8-11.79s-15.7-9.48-20.57-17.67c-1.36-2.29-2.51-4.71-3.76-7.07C1202.77,504.39,1203,504,1203.28,503.59Z"/><path class="cls-1" d="M1131.12,1108.69c2.42,13.86,5.34,27.65,7,41.6.93,7.55,2.45,15.5-.71,23-.86,2-2.41,3.78-4,6.12a12.75,12.75,0,0,1-4.48-9.67c-.38-14-.8-28.11-.79-42.17,0-6.24,1-12.49,1.54-18.73Z"/><path class="cls-1" d="M798.05,288.82c4.45-2.88,6.89-1.63,9,1.43,4.22,6.25,8.49,12.46,12.73,18.7l30.74,45.37L844,356.78C828.53,333.89,813.41,311.54,798.05,288.82Z"/><path class="cls-1" d="M988.14,523.46c-2.84-6.41-5.25-13-8.65-19.12-3.31-5.9-7.64-11.22-11.64-17,2.48-5.9,5.95-7.42,10.61-3.4a55.53,55.53,0,0,1,10.32,12.13,73.89,73.89,0,0,1,7.16,15.11C998.2,517.69,994.88,522.4,988.14,523.46Z"/><path class="cls-1" d="M848.66,514.45c1,2.88,1.74,5.92,3.14,8.61,5.75,11,15.66,13.48,27.39,11.69,18.76-2.87,35.83-23.23,34.64-40.58-.4-5.8.32-11.68.53-17.53.37-10,5.78-16.45,15-19.29A155.22,155.22,0,0,1,955,452c-1.78.6-3.55,1.26-5.35,1.79-5.6,1.65-11.21,3.24-16.81,4.85-10.94,3.14-16,7-15.61,20.15.18,5.34-.37,10.71-.58,16.07-.81,21.21-19.88,40.86-41.68,43.33-14.23,1.62-26.1-5.52-28.37-20.9a8.82,8.82,0,0,1,.43-2.58Z"/><path class="cls-1" d="M1159.85,513c3.44-15.42,0-28.3-11-39,5.56-3,10-2.74,13.71,1.45,7,8,9.38,17.48,8.19,27.78C1170,509.14,1165.68,512.74,1159.85,513Z"/><path class="cls-1" d="M910.4,485.15c-5.23-5.95-9.32-11-13.9-15.66a15.48,15.48,0,0,1-4.81-12.37c.16-3.06,0-6.13,0-10.58,2.42,1.58,3.65,2.11,4.52,3,4.75,4.84,9.47,9.72,14.07,14.7,1.08,1.17,2.46,2.87,2.36,4.22C912.26,473.67,911.31,478.85,910.4,485.15Z"/><path class="cls-1" d="M779.87,556.4c-3.67,4.14-7,8.68-11.09,12.34-7.92,7.09-12.22,16.07-15.2,26a17.86,17.86,0,0,1-4.24,7.71c.63-5.85,1.16-11.72,1.95-17.56.81-6,1.88-12,3-18.69L778.71,555Z"/><path class="cls-1" d="M1151.55,485c-3.21,1.49-4.67,2.41-6.26,2.86-15.58,4.46-29.21,13-43.17,20.79-4.21,2.34-7.92,5.6-11.73,8.61-2.53,2-4.65,2.46-6.54-.66,6.47-9.1,47.21-31.1,62.53-33.64C1147.45,482.75,1148.72,483.8,1151.55,485Z"/><path class="cls-1" d="M1328.75,506.62c-71.84-31.23-53.88-24.85-122.83-29.56C1242.58,468.64,1289.5,481.1,1328.75,506.62Z"/><path class="cls-1" d="M824.62,374.39c6.62,7.08,12.61,13.35,18.42,19.79,1.65,1.83.83,6.17-1,8-2,2-6.89,2.12-9.5.32C823.25,396.08,820.54,387.47,824.62,374.39Z"/><path class="cls-1" d="M1282.74,693.28c2.38,6.88,3,86.21,1,95.46-2.18-2.22-1.67-4.65-1.69-6.76q-.18-27.06-.21-54.12c0-9,.08-18.05.2-27.07C1282,698.69,1282.41,696.6,1282.74,693.28Z"/><path class="cls-1" d="M969.69,648.08h12.66c-1.85,10-3.58,19.45-5.41,29.4l-8.64.47C967.3,667.48,968.94,657.83,969.69,648.08Z"/><path class="cls-1" d="M1154.16,492.05c-4.07,1.56-7.35,2.91-10.7,4.1-16.16,5.76-30.9,14.18-44.94,24-2.13,1.48-4.08,4.57-8.19.87a183.71,183.71,0,0,1,56.89-30.73C1149.26,489.56,1151.3,488.54,1154.16,492.05Z"/><path class="cls-1" d="M1207.93,503.2c7.14-1.84,11.78-.4,16.3,2.54,6.74,4.38,13.66,8.48,20.52,12.68,5.89,3.62,9.86,9,14.23,14.07-.33.4-.65.8-1,1.21Z"/><path class="cls-1" d="M965.32,724.64h9.37c.76,6.86,1.61,13.54,2.12,20.26a4.49,4.49,0,0,1-2.1,3.36c-3.12,1.72-6.46,3-11.14,5.15C964.19,743.22,964.72,734.42,965.32,724.64Z"/><path class="cls-1" d="M1283.13,907.57c-2-10-1.8-73.92-.05-79.5C1285.3,833.5,1285.67,899.58,1283.13,907.57Z"/><path class="cls-1" d="M915.17,642.32c-12.71,6.19-21,3.62-30.17-9.38C897.93,626.87,908,631,915.17,642.32Z"/><path class="cls-1" d="M991.53,492.25c17.38-4.36,32.33,1.49,47.2,10.33l-2.13,4.88a20.36,20.36,0,0,1-3.6-1.16c-8.58-4.79-17.49-8.59-27.44-9.26a29,29,0,0,0-7.9.1C993.88,498,992.15,496.66,991.53,492.25Z"/><path class="cls-1" d="M1124.05,942.8l14.07,4.25c1,6.08,1.52,11.76-1,17.31-1.88,4.09-4.56,4.85-7.8,1.86-1.36-1.25-2.88-2.94-3.15-4.62C1125.21,956,1124.82,950.25,1124.05,942.8Z"/><path class="cls-1" d="M1019.1,675.74c.6-.93,1-2.23,1.85-2.72a25.06,25.06,0,0,1,5.42-2.1c13.26-3.8,24.86-10.89,36.17-18.47a46.26,46.26,0,0,0,6.42-5.88c2.23-2.22,4.46-4.32,9.42-4.51-15.81,19.8-36.55,28.22-58.32,34.87Z"/><path class="cls-1" d="M1098.23,527c7.27-11,42.06-29,56.57-30.59-.35,1.23-.41,2.45-1,3.23a5.4,5.4,0,0,1-2.6,1.14c-14.41,4.18-27.18,11.81-40.14,19-3,1.65-5.6,3.87-8.52,5.63A23,23,0,0,1,1098.23,527Z"/><path class="cls-1" d="M1005.54,312.06c-2.54,1.67-4.53,1.4-5.86-.9-6.4-11.08-12.72-22.2-18.92-33,1.69-2.87,3.4-2.71,5.12-1.19a11.84,11.84,0,0,1,2.21,2.85q8.38,14.47,16.64,29A11.81,11.81,0,0,1,1005.54,312.06Z"/><path class="cls-1" d="M1034.74,510.53c-.93,1.81-1.58,3.07-2.39,4.66-1.54-.52-3-.7-4.11-1.43-8.53-5.65-18-8.14-28.07-8.68-2.29-.13-2.28-.27-4.32-4.53C1010.38,497.78,1022.39,503.21,1034.74,510.53Z"/><path class="cls-1" d="M783.2,1126.47c-.07,14.86,2.16,28.68-6,41.56C772.68,1161.09,775.38,1142.41,783.2,1126.47Z"/><path class="cls-1" d="M776.41,957c-3.95-13.84,2.25-26.17,6-38.9C783.15,931.39,785.21,944.89,776.41,957Z"/><path class="cls-1" d="M1103.28,530.18c6.94-8.78,38.33-24.75,51.54-26.26-.42,1-.55,2.05-1.13,2.58a8.27,8.27,0,0,1-3.1,1.77c-16.45,5-31,13.73-45.82,22.14C1104.62,530.5,1104.32,530.35,1103.28,530.18Z"/><path class="cls-1" d="M775.09,1382.3c-1.74-14.92,3.49-27,6.65-40.61C785.88,1355.13,783,1375.15,775.09,1382.3Z"/><path class="cls-1" d="M968.08,689.1H976c-.46,6.45-.89,12.4-1.34,18.81h-7.76C966.33,701.44,965.71,695.3,968.08,689.1Z"/><path class="cls-1" d="M988.13,487.9c19.74-7.09,36.72.11,53,10.43-6.42-.2-11.22-4.78-17.07-6.51-6-1.77-12.37-2.38-18.44-4S993.87,490.3,988.13,487.9Z"/><path class="cls-1" d="M1197.18,502.77c-4.2,7.34-13,9.59-25.38,6.83,1-1.46,1.59-3.47,2.72-3.84C1181.63,503.44,1188.88,501.67,1197.18,502.77Z"/><path class="cls-1" d="M1198.2,498.31c-4.9-5.27-3.06-11.12-3.14-16.5,0-2.35,1.28-4.72,2.12-7.57C1203.83,480.6,1204.07,492.14,1198.2,498.31Z"/><path class="cls-1" d="M825.62,495.85c5.54,6,11.25,11.82,16.52,18,1.47,1.73,1.63,4.57,1.66,7.25-7.43-7.49-16-13.87-19.57-24.1Z"/><path class="cls-1" d="M890.24,379.79c-6.94,1.93-13.83,4.11-20.85,5.74-9.15,2.13-17.8,4.74-21.86,14.65a12.91,12.91,0,0,1,7.88-12,96.58,96.58,0,0,1,13.68-4.84c6.9-2,13.9-3.68,20.85-5.49Z"/><path class="cls-1" d="M756.6,424.55c6.38,8,17.08,12.61,19.45,24.79C767.71,444.23,758.09,432.29,756.6,424.55Z"/><path class="cls-1" d="M1213.67,550.32l-11.22-25.47c.25-.28.5-.55.74-.83L1215,534.15v15.62Z"/><path class="cls-1" d="M757.41,418.71c5,2.21,15.44,12.72,20.21,20.32C773.32,438.15,760.9,425.65,757.41,418.71Z"/><path class="cls-1" d="M779.16,442.5c2.62,5,4.22,9.56,7.13,13.08s7.13,5.95,11.46,9.39C785.48,463.83,777.89,454.51,779.16,442.5Z"/><path class="cls-1" d="M1174.29,500.89c.65-1.27,1.09-3.42,2-3.65a115.51,115.51,0,0,1,14.31-2.53c.79-.09,1.79,1.71,3.68,3.65L1175.73,502Z"/><path class="cls-1" d="M845.78,511.38a112.36,112.36,0,0,1-20.07-20.52C830.87,492.56,841.49,503.17,845.78,511.38Z"/><path class="cls-1" d="M1170.2,483.65l21.39-3.67c-1.5,6.25-6.14,5.11-9,5.44C1179.11,485.81,1175,489.38,1170.2,483.65Z"/><path class="cls-1" d="M1030.75,519.75c-6-1-10.06-4.64-14.82-6.39s-10.14-2.63-15.6-4C1009.31,507.58,1022.67,512,1030.75,519.75Z"/><path class="cls-1" d="M1169.18,478.69c7.26-3.36,14.75-5,22.75-2.89C1184.49,477.8,1177.18,480.81,1169.18,478.69Z"/><path class="cls-1" d="M1077.27,512.69c10.06-8.62,21.44-12.7,31.87-18.36q-14.46,9.56-29,19.07C1079.91,513.57,1079.3,513.21,1077.27,512.69Z"/><path class="cls-1" d="M1172.89,491.18c6-2.51,11.93-3.25,17.89-3.7,1.15,3-.22,3.76-2.42,4.35C1180.16,494,1175.73,494.08,1172.89,491.18Z"/><path class="cls-1" d="M1092.67,923.63c.87-1,1.35-1.66,1.45-1.61,11.14,5.65,22.25,11.35,33,17.76C1115.22,935.41,1104.09,929.49,1092.67,923.63Z"/><path class="cls-1" d="M969.53,641.49l14.06-4.37c.95,7-3.11,8.64-13.54,6.07Z"/><path class="cls-1" d="M1032.6,630.42c1.2-7.4,1.2-7.4,16.67-9.16Z"/><path class="cls-1" d="M888.43,447.56c-.51,4-.85,6.71-1.39,11.07l-10.2-8.1Z"/><path class="cls-1" d="M966.3,720.46v-8l7.79-.47c.15,2.75.28,5,.45,8Z"/><path class="cls-1" d="M1011.5,1710.71c-3.59.62-7.15,1.52-10.76,1.8a255.65,255.65,0,0,1-27,.84l37.78-3.66Z"/><path class="cls-1" d="M1061.76,567.44l12-12.78,1.24,1.15L1063,568.59Z"/><path class="cls-1" d="M885.08,1706.84l20,3.31-.18,1.18-20.24-3.09C884.77,1707.78,884.92,1707.31,885.08,1706.84Z"/><path class="cls-1" d="M1070.41,864.13l12,11.51c-.17.17-.33.35-.49.53l-11.16-12.37Z"/><path class="cls-1" d="M976.6,682.79c-2.9,3.34-5.64,2-8.39,1.9C970.08,681.08,970.08,681.08,976.6,682.79Z"/><path class="cls-1" d="M1176,1246.43l9.19,3C1181,1250.49,1181,1250.49,1176,1246.43Z"/><path class="cls-1" d="M1313.44,926.87l6.64-3.48.6,1.15-6.77,3.25C1313.75,927.49,1313.6,927.18,1313.44,926.87Z"/><path class="cls-1" d="M928.65,413.74l3.67,3.9L932,418l-4.21-3.75Z"/><path class="cls-1" d="M1342,739.17c3.18,2.26,1.92,5.29,1.68,9.26-.69-3.84-1.19-6.59-1.68-9.34Z"/><path class="cls-1" d="M1342,739.09l-.78-6,.79,0v6.06S1342,739.09,1342,739.09Z"/><path class="cls-1" d="M900.53,384.25l1.29,1.6c-.22,0-.56.13-.63,0a15.77,15.77,0,0,1-.92-1.47Z"/><path d="M930.31,1410.62c-.35,18.17-6.47,30.28-18.44,40-14,11.35-29.38,14.71-47.08,12.23-13.12-1.84-23.54-8.17-32.46-16.79-23.25-22.43-32.25-50.5-29.82-82.35.46-6,1.64-12.35,4.25-17.67,3-6,8-10.88,15.34-12.38,12.77-2.59,24.69.87,36.48,4.93a130.94,130.94,0,0,1,41.9,23.49c9.42,7.93,18.46,16.6,23.42,28.55C927,1398,932,1404.79,930.31,1410.62Zm-73.23,5.91c7.15-2.1,12.32,1.18,17.4,4.53s10,7,15.06,10.35q6.06,4.1,12.26,8c2.2,1.37,4.64,1.94,6.76-.06,4.6-4.33,9.55-8.4,13.48-13.29,5.61-7,6.14-15.72,3.54-23.68a70.12,70.12,0,0,0-13.73-24.73c-9.63-11-21-19.64-33.5-26.83-6.62-3.81-14-6.37-21.27-9.63Zm-29.19-79.64c-5-1.37-8.63.06-12.43,2.93-7.94,6-9.08,14.87-10,23.4a93.37,93.37,0,0,0,4.1,40.45,110.93,110.93,0,0,0,12.19,25.58c7.32,10.94,16.66,20.11,28.82,26.31a53.77,53.77,0,0,0,29,5.46,55.55,55.55,0,0,0,36.62-17.69,17.32,17.32,0,0,0,4.77-9.45,28.11,28.11,0,0,0-6.3,5.19c-6.37,7.15-15.12,10.3-23.87,11.52a46,46,0,0,1-22.17-2.32c-14.13-5.49-23.85-16.77-30.94-29.84-6-11.12-10.68-22.9-12.69-35.62-2.19-13.85-3.2-27.54,1.7-41.06A46.69,46.69,0,0,0,827.89,1336.89Z"/><path d="M971.62,1413.53c-1.33-9.94,1.57-19.72,5.66-28.71a54.25,54.25,0,0,1,18.31-21.44,137,137,0,0,1,42.12-19.8c13.11-3.73,26.7-6.27,40.25-2.11,8.49,2.6,15.41,7.3,19.33,16.14,5.44,12.26,4.7,24.6,2.58,37.22A92,92,0,0,1,1084,1433c-10.72,15.18-24.16,27.86-42.49,32.94-11.42,3.16-23.35,3.63-35.3-.24-9.1-3-16.64-7.14-23-14.4-7.54-8.56-10-18.66-11.48-29.34C971.31,1419.3,971.62,1416.58,971.62,1413.53Zm33.32-52.23a22.39,22.39,0,0,0-.34,2.72q.09,34.71.23,69.42a20.26,20.26,0,0,0,.11,2.92c.41,2.84,2.14,3.83,4.67,2.69a29.15,29.15,0,0,0,5.54-3.49c5-3.86,9.95-7.83,14.9-11.77,7-5.55,14.39-9.2,23.57-5.59.51.2,1.31-.35,2.48-.7v-74.11A121.77,121.77,0,0,0,1004.94,1361.3Zm-26.68,74.44c2,8.24,11.79,21,18.15,23.47,18.91,7.4,37.74,9.34,56.2-1.5.84-.49,1.75-.87,2.62-1.31,10.93-5.63,19-14.57,25.84-24.29a92.51,92.51,0,0,0,15.91-37.38c2.22-12.66,3.09-25.23-3-37.16-3.79-7.45-10.1-11.73-19.31-14.32,1.12,3.4,1.6,5.49,2.48,7.39a41.61,41.61,0,0,1,3.42,19.27,105.21,105.21,0,0,1-11.39,44.9c-8.14,15.8-18.37,29.1-35.12,36.59a43.19,43.19,0,0,1-29.18,2.31c-9.94-2.57-19.39-6.73-24.82-16.5C979.85,1436.82,979.33,1436.59,978.26,1435.74Zm22.66-71c-7.64,3-18.73,15.43-21.54,23-3.61,9.73-5.65,19.74-4.17,30.06a39.45,39.45,0,0,0,4.45,12.85c1.93,3.58,5,6.56,7.76,9.66a9.4,9.4,0,0,0,10.57,2.29c3.28-1.42,2.59-4.38,2.61-6.94q.23-25.95.31-51.9C1000.94,1377.62,1000.92,1371.54,1000.92,1364.69Z"/><path d="M1101.46,1166c-.77,14.7-4.08,28.63-11,41.91a97.89,97.89,0,0,1-26.17,31.16c-9.27,7.38-20.15,12.9-32.59,13.45-9.21.41-18.2.58-27.44-2.26-15.39-4.73-24.36-14.64-30-29.17-6.6-17-4.34-33.32,3.11-48.9a51.74,51.74,0,0,1,18.88-21,148.27,148.27,0,0,1,36.85-17.53c14.34-4.37,28.85-7.64,43.85-4.32,8.89,2,15.91,6.84,20.13,15.37A40.08,40.08,0,0,1,1101.46,1166Zm-66.72-28.36a9.86,9.86,0,0,0-2.75-.2c-12,3.57-22.87,9.57-33.57,15.92-2.49,1.48-3,3.55-3,6.12q.23,33.65.4,67.3c0,3.28,1.11,5.23,4.42,6.6,9,3.72,18.24,2.88,27.35,1.68,6-.79,7.14-3.07,7.19-9.84q.33-40.24.5-80.48C1035.25,1142.38,1034.91,1140,1034.74,1137.65Zm40.38-5.83a63.73,63.73,0,0,0,2.1,6.49c2.67,5.66,3.46,11.65,3.35,17.82a99.44,99.44,0,0,1-13.39,48.07c-8,14.16-18.34,25.59-33.56,32.29-10.14,4.47-20.41,4.19-30.71,1.69-9.7-2.35-18.09-7.09-23.46-16-.28-.48-.94-.72-1.42-1.07,4.15,11.77,10.86,21,23.17,25.1,9.33,3.12,18.65,5.68,28.58,3.31a8,8,0,0,1,2.19-.1,26.27,26.27,0,0,0,15.3-4,66.08,66.08,0,0,1,7.2-3.58c11.11-5,18.94-13.87,25.87-23.21a90.2,90.2,0,0,0,16.84-38.54c2.11-12.19,2.83-24.32-3.49-35.66C1090,1137.68,1083.86,1134.23,1075.12,1131.82Zm-9.76,67.12c.36-.55.93-1.31,1.39-2.14,6-10.59,8-22.38,9.81-34.11a43.88,43.88,0,0,0-3.89-25.62c-1.79-3.8-4.08-6-8.31-5.52-6.25.77-12.5,1.6-18.7,2.7-5.48,1-5.67,1.18-5.75,6.5-.16,12.64,0,25.29-.22,37.94-.06,3.67,1.46,5.51,4.64,7.27C1051.29,1189.81,1057.91,1194.29,1065.36,1198.94ZM990.51,1161c-19.69,19.27-24.07,49.23,0,67.47Zm48.19,69.53c3-1.74,5.67-2.61,7.41-4.36a205.75,205.75,0,0,0,14.24-15.73c3.81-4.74,3.38-8.13-1.57-11.79a161.49,161.49,0,0,0-15.55-9.6c-1.11-.64-2.71-.45-4.53-.7Z"/><path d="M803.64,948a60.78,60.78,0,0,1,5-23.61,35.37,35.37,0,0,1,3.94-6.86c3.52-4.8,8.12-6.8,14.35-7,11.48-.41,22.22,2.18,32.79,6a141.29,141.29,0,0,1,40.64,22.67c9.25,7.44,17.6,16,23.06,27,3.83,7.67,6.66,15.21,6.92,24.16.33,11.17-4.3,20.3-10.55,28a52.36,52.36,0,0,1-24.89,17.07c-11.57,3.75-22.94,3.64-34.52,1.47a29.6,29.6,0,0,1-9.45-3.54c-7.51-4.41-15.11-8.47-21.45-14.93-12.93-13.14-18.83-29.25-22.13-46.71C805.82,963.92,804.85,956,803.64,948Zm117.23,60.77c-2.47,2.19-4.9,4.44-7.43,6.57a42.77,42.77,0,0,1-28.76,10.44c-9.8-.07-18.32-3.15-26.53-8.67a57.83,57.83,0,0,1-20-23.64c-6.53-13.88-10.29-29-12.27-44.23-1.34-10.36-1.72-20.95,3.18-30.86a28.2,28.2,0,0,0,1.37-4.91c-7.92-.85-14.28,1.18-17.38,8.25a65.2,65.2,0,0,0-5.28,18.09c-1.62,13.47.69,26.81,4.14,39.8,2,7.73,4.43,15.74,8.52,22.49,8.51,14,20.82,24.3,35.94,31a10,10,0,0,0,2.09.61c20,3.76,38.65,2,54.79-12.24A23.24,23.24,0,0,0,920.87,1008.81Zm-73.9-8.38c1.52-1.64,2.2-2.3,2.81-3,6.4-7.62,12.26-15.73,21-21.12,1.45-.89,2.34-3.63,2.45-5.57.33-6.07,0-12.18.25-18.26a14.1,14.1,0,0,0-4.73-11.65c-5.81-5.55-11.32-11.33-14.31-19.13-.72-1.89-3.19-3.49-5.22-4.39a50.51,50.51,0,0,0-9.11-2.54c-3.25-.76-6,0-6.86,3.59-1.52,5.85-3.88,11.73-4,17.63-.41,20,5.5,38.89,12.77,57.31C842.94,995.64,845,997.58,847,1000.43Zm31.51,20.47c9.14,1.78,10.54,1.42,16.95-.29,8.51-2.28,15.12-7.22,21.56-13,11.11-10,12.46-24.66,4.76-37a7,7,0,0,0-3.76-3.06c-12.08-2.77-22.26-9.59-33-15.14-1.84-1-3.73-1.83-6.91-3.38C877.87,973.76,878.2,997.21,878.48,1020.9Zm38.38-57.1.9-1.55c-14.9-20.3-34.84-33.64-58.74-41.91,1,3.3,2,6.67,4.09,9,6.86,7.53,13.53,15.33,23,19.91,8.11,3.91,16,8.26,24.05,12.27A50.74,50.74,0,0,0,916.86,963.8Zm-42.52,14.41c-10.8,6.4-17.17,14.92-23.36,23.6-1.71,2.4-.79,4.53,1.1,6.48,5.65,5.85,12.47,9.93,19.86,13.11.52.22,1.32-.21,2.4-.41Z"/><path d="M930.21,1200.08c0,15-6.45,26.1-17.17,35.22-14.42,12.27-31,15.22-49.23,12.26-14.11-2.3-25.06-9.78-34.86-19.65a84.11,84.11,0,0,1-19.79-31.24,111.4,111.4,0,0,1-5.69-25.58c-1.12-10.63-.88-21.29,2.25-31.89,2-6.86,6.26-11.4,11.35-15.55,1.38-1.12,3.56-1.46,5.43-1.71,12.41-1.7,24.28,1,35.85,5.06a144.56,144.56,0,0,1,40.94,22.27c13.27,10.24,23.94,23,29.66,39.09C930.29,1192.13,929.87,1196.53,930.21,1200.08Zm-51.88-60.45c-.24,3.4-.53,5.54-.52,7.68q.2,38.42.48,76.83c.06,7.36,1.66,8.86,9.08,8.68a25.32,25.32,0,0,0,5-.82c10.82-2.5,19.58-8.47,27-16.44s9.37-17.81,5.54-27.79C916.5,1165.76,899.65,1151.46,878.33,1139.63Zm-30.68,72.21c1.25-1.65,1.89-2.65,2.69-3.51,6.59-7.09,11.56-15.74,20.34-20.79,1.47-.84,2.57-3.61,2.6-5.5.19-13.43,0-26.86.07-40.28,0-2.73-1-4.64-3.49-5.85a121.6,121.6,0,0,0-31.12-10.37c-3.76-.67-5.87.71-7.12,4.42-2.36,7-4.45,13.94-4,21.43,1,18.26,5,35.7,14,51.77C843.22,1206.06,845.4,1208.65,847.65,1211.84Zm-18.79-87.3c-12.32.89-16.92,4.63-20.12,15.18-5.47,18-3.56,36.09,2.18,53.25,6.81,20.34,19.42,36.73,39.13,47.12,9.74,5.14,20.07,6.44,30.36,5.75a54.72,54.72,0,0,0,35.14-16c2.84-2.77,5.09-5.86,5.21-10.29-7.18,8-16,12.7-26,15.6a38.82,38.82,0,0,1-26.35-2c-15.63-6.7-25.81-19.21-33.22-34.37-4.44-9.09-7.15-18.54-9.23-28.35-2.88-13.62-3.4-27,1.56-40.3A53.08,53.08,0,0,0,828.86,1124.54Zm45.64,66.52c-8,2.38-20.5,15.88-24,25.47,6,7.57,14.05,12.14,23.86,15.88C875.05,1217.85,875,1204.59,874.5,1191.06Z"/><path d="M915.28,1527.15c-6.09,1.53-25.23-1.73-31.9-5.45C895.2,1522.34,905.22,1524.64,915.28,1527.15Z"/><path d="M779.12,1461.23l-7.21-18.1c4.82,4,7.7,10.55,8.57,17.55Z"/><path d="M861.49,873.43l-6.1-2.17.51-1.65,6.59,1.82Z"/><path d="M843.28,629.59q10.41,11,20.81,22L863,652.63C854.5,646.86,846.91,640.19,843.28,629.59Z"/><path d="M868.27,655.88c6.79,0,9.07,1.37,11.34,6.19Z"/><path d="M892.44,664.53l6.83,2.1-.63,2-6.8-2.22Z"/><path d="M1033.37,660.47c4.52-4.74,8.93-6,14.26-8.12C1044.51,657.66,1041.76,659.21,1033.37,660.47Z"/><path class="cls-1" d="M827.89,1336.89a46.69,46.69,0,0,1-1.19,4.86c-4.9,13.52-3.89,27.21-1.7,41.06,2,12.72,6.66,24.5,12.69,35.62,7.09,13.07,16.81,24.35,30.94,29.84a46,46,0,0,0,22.17,2.32c8.75-1.22,17.5-4.37,23.87-11.52a28.11,28.11,0,0,1,6.3-5.19,17.32,17.32,0,0,1-4.77,9.45A55.55,55.55,0,0,1,879.58,1461a53.77,53.77,0,0,1-29-5.46c-12.16-6.2-21.5-15.37-28.82-26.31a110.93,110.93,0,0,1-12.19-25.58,93.37,93.37,0,0,1-4.1-40.45c.9-8.53,2-17.41,10-23.4C819.26,1337,822.9,1335.52,827.89,1336.89Z"/><path class="cls-1" d="M1004.94,1361.3a121.77,121.77,0,0,1,51.16-17.91v74.11c-1.17.35-2,.9-2.48.7-9.18-3.61-16.59,0-23.57,5.59-5,3.94-9.88,7.91-14.9,11.77a29.15,29.15,0,0,1-5.54,3.49c-2.53,1.14-4.26.15-4.67-2.69a20.26,20.26,0,0,1-.11-2.92q-.14-34.71-.23-69.42A22.39,22.39,0,0,1,1004.94,1361.3Z"/><path class="cls-1" d="M978.26,1435.74c1.07.85,1.59,1.08,1.8,1.47,5.43,9.77,14.88,13.93,24.82,16.5a43.19,43.19,0,0,0,29.18-2.31c16.75-7.49,27-20.79,35.12-36.59a105.21,105.21,0,0,0,11.39-44.9,41.61,41.61,0,0,0-3.42-19.27c-.88-1.9-1.36-4-2.48-7.39,9.21,2.59,15.52,6.87,19.31,14.32,6.09,11.93,5.22,24.5,3,37.16a92.51,92.51,0,0,1-15.91,37.38c-6.85,9.72-14.91,18.66-25.84,24.29-.87.44-1.78.82-2.62,1.31-18.46,10.84-37.29,8.9-56.2,1.5C990.05,1456.73,980.22,1444,978.26,1435.74Z"/><path class="cls-1" d="M1000.92,1364.69c0,6.85,0,12.93,0,19q-.12,26-.31,51.9c0,2.56.67,5.52-2.61,6.94a9.4,9.4,0,0,1-10.57-2.29c-2.73-3.1-5.83-6.08-7.76-9.66a39.45,39.45,0,0,1-4.45-12.85c-1.48-10.32.56-20.33,4.17-30.06C982.19,1380.12,993.28,1367.74,1000.92,1364.69Z"/><path class="cls-1" d="M1034.74,1137.65c.17,2.36.51,4.73.5,7.1q-.2,40.23-.5,80.48c0,6.77-1.2,9-7.19,9.84-9.11,1.2-18.35,2-27.35-1.68-3.31-1.37-4.41-3.32-4.42-6.6q-.15-33.64-.4-67.3c0-2.57.55-4.64,3-6.12,10.7-6.35,21.56-12.35,33.57-15.92A9.86,9.86,0,0,1,1034.74,1137.65Z"/><path class="cls-1" d="M1075.12,1131.82c8.74,2.41,14.83,5.86,18.57,12.57,6.32,11.34,5.6,23.47,3.49,35.66a90.2,90.2,0,0,1-16.84,38.54c-6.93,9.34-14.76,18.24-25.87,23.21a66.08,66.08,0,0,0-7.2,3.58,26.27,26.27,0,0,1-15.3,4,8,8,0,0,0-2.19.1c-9.93,2.37-19.25-.19-28.58-3.31-12.31-4.12-19-13.33-23.17-25.1.48.35,1.14.59,1.42,1.07,5.37,8.94,13.76,13.68,23.46,16,10.3,2.5,20.57,2.78,30.71-1.69,15.22-6.7,25.52-18.13,33.56-32.29a99.44,99.44,0,0,0,13.39-48.07c.11-6.17-.68-12.16-3.35-17.82A63.73,63.73,0,0,1,1075.12,1131.82Z"/><path class="cls-1" d="M1065.36,1198.94c-7.45-4.65-14.07-9.13-21-13-3.18-1.76-4.7-3.6-4.64-7.27.19-12.65.06-25.3.22-37.94.08-5.32.27-5.52,5.75-6.5,6.2-1.1,12.45-1.93,18.7-2.7,4.23-.52,6.52,1.72,8.31,5.52a43.88,43.88,0,0,1,3.89,25.62c-1.76,11.73-3.86,23.52-9.81,34.11C1066.29,1197.63,1065.72,1198.39,1065.36,1198.94Z"/><path class="cls-1" d="M990.51,1161v67.47C966.44,1210.23,970.82,1180.27,990.51,1161Z"/><path class="cls-1" d="M1038.7,1230.53v-42.18c1.82.25,3.42.06,4.53.7a161.49,161.49,0,0,1,15.55,9.6c5,3.66,5.38,7,1.57,11.79a205.75,205.75,0,0,1-14.24,15.73C1044.37,1227.92,1041.74,1228.79,1038.7,1230.53Z"/><path class="cls-1" d="M920.87,1008.81a23.24,23.24,0,0,1-7.67,12.68c-16.14,14.27-34.79,16-54.79,12.24a10,10,0,0,1-2.09-.61c-15.12-6.68-27.43-16.95-35.94-31-4.09-6.75-6.47-14.76-8.52-22.49-3.45-13-5.76-26.33-4.14-39.8A65.2,65.2,0,0,1,813,921.76c3.1-7.07,9.46-9.1,17.38-8.25a28.2,28.2,0,0,1-1.37,4.91c-4.9,9.91-4.52,20.5-3.18,30.86,2,15.26,5.74,30.35,12.27,44.23a57.83,57.83,0,0,0,20,23.64c8.21,5.52,16.73,8.6,26.53,8.67a42.77,42.77,0,0,0,28.76-10.44C916,1013.25,918.4,1011,920.87,1008.81Z"/><path class="cls-1" d="M847,1000.43c-2-2.85-4-4.79-5-7.16C834.74,974.85,828.83,956,829.24,936c.12-5.9,2.48-11.78,4-17.63.91-3.54,3.61-4.35,6.86-3.59a50.51,50.51,0,0,1,9.11,2.54c2,.9,4.5,2.5,5.22,4.39,3,7.8,8.5,13.58,14.31,19.13a14.1,14.1,0,0,1,4.73,11.65c-.29,6.08.08,12.19-.25,18.26-.11,1.94-1,4.68-2.45,5.57-8.73,5.39-14.59,13.5-21,21.12C849.17,998.13,848.49,998.79,847,1000.43Z"/><path class="cls-1" d="M878.48,1020.9c-.28-23.69-.61-47.14-.44-71.84,3.18,1.55,5.07,2.43,6.91,3.38,10.78,5.55,21,12.37,33,15.14a7,7,0,0,1,3.76,3.06c7.7,12.31,6.35,27-4.76,37-6.44,5.78-13,10.72-21.56,13C889,1022.32,887.62,1022.68,878.48,1020.9Z"/><path class="cls-1" d="M916.86,963.8a50.74,50.74,0,0,1-6.66-2.28c-8.05-4-15.94-8.36-24.05-12.27-9.51-4.58-16.18-12.38-23-19.91-2.13-2.33-3.11-5.7-4.09-9,23.9,8.27,43.84,21.61,58.74,41.91Z"/><path class="cls-1" d="M874.34,978.21V1021c-1.08.2-1.88.63-2.4.41-7.39-3.18-14.21-7.26-19.86-13.11-1.89-1.95-2.81-4.08-1.1-6.48C857.17,993.13,863.54,984.61,874.34,978.21Z"/><path class="cls-1" d="M878.33,1139.63c21.32,11.83,38.17,26.13,46.63,48.14,3.83,10,2,19.73-5.54,27.79s-16.23,13.94-27,16.44a25.32,25.32,0,0,1-5,.82c-7.42.18-9-1.32-9.08-8.68q-.3-38.42-.48-76.83C877.8,1145.17,878.09,1143,878.33,1139.63Z"/><path class="cls-1" d="M847.65,1211.84c-2.25-3.19-4.43-5.78-6-8.68-9-16.07-13-33.51-14-51.77-.4-7.49,1.69-14.45,4-21.43,1.25-3.71,3.36-5.09,7.12-4.42a121.6,121.6,0,0,1,31.12,10.37c2.52,1.21,3.49,3.12,3.49,5.85,0,13.42.12,26.85-.07,40.28,0,1.89-1.13,4.66-2.6,5.5-8.78,5-13.75,13.7-20.34,20.79C849.54,1209.19,848.9,1210.19,847.65,1211.84Z"/><path class="cls-1" d="M828.86,1124.54a53.08,53.08,0,0,1-1.39,5.55c-5,13.27-4.44,26.68-1.56,40.3,2.08,9.81,4.79,19.26,9.23,28.35,7.41,15.16,17.59,27.67,33.22,34.37a38.82,38.82,0,0,0,26.35,2c10-2.9,18.87-7.63,26-15.6-.12,4.43-2.37,7.52-5.21,10.29a54.72,54.72,0,0,1-35.14,16c-10.29.69-20.62-.61-30.36-5.75-19.71-10.39-32.32-26.78-39.13-47.12-5.74-17.16-7.65-35.23-2.18-53.25C811.94,1129.17,816.54,1125.43,828.86,1124.54Z"/><path class="cls-1" d="M874.5,1191.06c.51,13.53.55,26.79-.12,41.35-9.81-3.74-17.87-8.31-23.86-15.88C854,1206.94,866.47,1193.44,874.5,1191.06Z"/></svg>