<svg id="Layer_1" data-name="Layer 1" xmlns="http://www.w3.org/2000/svg" viewBox="0 0 2000 2000"><defs><style>.cls-1{fill:#1d1d1b;}</style></defs><path class="cls-1" d="M1276.45,1309.53c2,2.13,3.9,4.24,5.83,6.37,12.32,13.57,22.06,28.7,24.9,47.08,1.21,7.81,4.26,14.48,7.74,21.23,2.49,4.83,4.69,9.83,7.35,14.56,2.48,4.42,3.37,9.14,4,14.07,2,15.56,2.18,31.19,2.07,46.84-.11,16.5,0,33-.15,49.5a51.64,51.64,0,0,1-1.56,11c-1.39,6-3.23,11.79-4.72,17.72a31.06,31.06,0,0,1-4.86,10.56c-4.22,6-8.14,12.16-12.5,18a74.81,74.81,0,0,1-9.08,10.23c-6.85,6.36-13.84,12.6-21.09,18.49a104.94,104.94,0,0,1-12.79,8.31c-8.18,4.84-16.27,9.88-24.74,14.17a239.32,239.32,0,0,1-23.36,10c-13.79,5.24-27.55,10.63-41.61,15-18.91,5.94-37.81,12.08-57.31,15.93-8,1.57-16,2.65-24.1,3.89q-5.79.89-11.61,1.52c-3.72.4-7.62,2.12-10.76-1.91-.64-.81-2.9-.52-4.4-.47-8.32.28-16.65.65-25.35,1-.88,3.79-3.92,4.15-7.3,4-9.5-.49-19-.84-28.51-1.41-5.94-.35-11.89-.76-17.77-1.57-8.73-1.21-17.41-2.79-26.11-4.23a5,5,0,0,1-1.44-.48c-10-5.18-21-6.38-31.92-7.71A46.47,46.47,0,0,1,917,1649c-18.26-5.83-36.61-11.4-54.7-17.68-8.62-3-16.77-7.34-25.12-11.11-4.63-2.1-9.18-4.4-13.86-6.41-9.17-3.92-16.48-10.75-25-15.73-16-9.4-27.58-23.52-39.77-37a23.51,23.51,0,0,1-3.26-5.13c-3.1-6-5.83-12.3-9.22-18.19-2.89-5-3.85-10.4-4.54-16a336.81,336.81,0,0,1-2.12-44.8c.17-16.83,0-33.68.16-50.52a46,46,0,0,1,1.39-10c1.41-6,3.43-11.76,4.67-17.73,1.33-6.42,5-11.51,8.72-16.5a21.33,21.33,0,0,0,4.52-14.62c-.33-6.62.14-13.27,0-19.9-.22-10.68,3.6-20.06,9.59-28.49,5.5-7.74,11.56-15.12,17.74-22.34a27.77,27.77,0,0,0,6-10.46c1.51-5.22,3.32-10.36,4.73-15.6a12.11,12.11,0,0,0,.22-5.94c-2.62-9.66-5.36-19.28-8.37-28.83a13.53,13.53,0,0,1,.09-8.82q4.35-13.05,8.24-26.25a10.49,10.49,0,0,0,.07-5.45c-2.64-9.65-5.36-19.28-8.37-28.82a13.62,13.62,0,0,1,.06-8.85q4.22-12.83,8-25.77a10.65,10.65,0,0,0,.35-5.44c-2.25-8.52-4.41-17.1-7.31-25.41a22.46,22.46,0,0,1,0-16.18c2.73-7.3,4.81-14.86,6.95-22.37a11.67,11.67,0,0,0,.19-5.92c-2.52-9.33-5.14-18.64-8.08-27.85a14.59,14.59,0,0,1-.1-9.8c2.71-7.87,5-15.87,7.6-23.77a15.38,15.38,0,0,0,.12-9.92c-3-9.37-5.65-18.84-8.26-28.33a10.22,10.22,0,0,1,.08-5.35c2.64-9,5.36-17.89,8.34-26.74,2.23-6.63,1.11-12.16-3.77-17.28-6.39-6.73-12.45-13.76-18.89-20.92a34.44,34.44,0,0,0-.41,3.42c-.12,5.44-.27,10.88-.27,16.32q0,86.25-.05,172.49c0,9.17.12,18.44-1.12,27.48-2.1,15.41-7.88,29.6-18.39,41.31q-26.05,29-52.71,57.54c-5.9,6.33-12.48,12-18.8,18a58.33,58.33,0,0,1-4.7,3.57l-6.12-7.82c1.36-1.8,2.54-3.6,4-5.19q14.84-16.5,29.75-32.94c.56-.62,1.08-1.27,1.84-2.18l-3.7-5.24c.66-1.31,1.32-2.84,2.15-4.27,7.22-12.43,11.49-25.73,11.64-40.18.2-19.39.47-38.78.34-58.17-.09-14,.39-27.85,3.57-41.54a39.19,39.19,0,0,0,.86-8.59c.07-22.79,0-45.59.11-68.38a38.26,38.26,0,0,0-2.3-14,36,36,0,0,1-2.1-13q0-75-.06-150,0-68.9.12-137.79a50.3,50.3,0,0,1,3.45-18.92,58,58,0,0,1,10.49-17.36c14.17-15.84,28.59-31.46,42.74-47.32a47.18,47.18,0,0,1,15.46-11.38c2.72-1.28,3.9-2.77,3.9-5.71q.08-27,.33-54.08a5,5,0,0,0-2.15-4.28,106.41,106.41,0,0,1-22.07-23.83,85.58,85.58,0,0,1-11.5-24.82,133.73,133.73,0,0,1-3-17.51c-2.27-17.44,2.66-33.56,11-48.36a79.85,79.85,0,0,1,30-29.9,89.73,89.73,0,0,1,25.34-10.32,142.1,142.1,0,0,1,25.74-2.89,80.67,80.67,0,0,1,29.06,4.35,129.22,129.22,0,0,1,22.34,9.6c7.76,4.42,14.77,10.18,22.72,15.8,2-2.11,4.61-4.71,7-7.49a23.73,23.73,0,0,1,8.43-6.36c7-3.15,13.79-6.58,20.61-10a10.62,10.62,0,0,1,7.86-.78c7.39,1.94,14.85,3.57,22.21,5.58,3.47.94,6.22.71,8.45-2.42a30.52,30.52,0,0,1,3.52-3.68c5.08-5.07,11.74-5.41,17.35-.92a15.33,15.33,0,0,1,6.05,11.86c0,1,0,2,0,3.4,4.8,1.25,9.51,2.54,14.25,3.68q37.82,9.17,75.66,18.25c8.08,1.94,16.18,3.79,24.25,5.77a11.26,11.26,0,0,0,10-1.9,5.67,5.67,0,0,1,4.14-.83c10.74,2.46,21.44,5.07,32.14,7.72,4.21,1.05,5.11,2.26,5.16,6.86.08,6.95,0,13.91,0,21.65,4.07,2,8.63,4.13,13.13,6.38a14.55,14.55,0,0,1,3.3,2.24c2.88,2.63,5.46,5.63,8.53,8,7.36,5.67,13,12.77,18.87,19.91,6.7,8.21,9.16,18.07,12.61,27.59.61,1.68.39,3.69.4,5.56.08,14.79.09,29.59.2,44.39a17.84,17.84,0,0,0,.77,6,38.1,38.1,0,0,1,2.16,14.5c-.13,4.93,0,9.87,0,14.8,0,7.1.78,14.31-3,20.73,7,4.75,13.76,9.27,20.45,13.82,5.48,3.73,11,7.35,16.35,11.32a65.5,65.5,0,0,1,8.2,7.61c6.09,6.41,12.12,12.89,18,19.49a31.93,31.93,0,0,1,4.43,6.78c3.25,6.35,6.12,12.89,9.48,19.18a32.94,32.94,0,0,1,3.54,12.11,330.53,330.53,0,0,1,2.21,41.73c-.23,18.88,0,37.76-.17,56.64a41.08,41.08,0,0,1-1.32,9.54c-1.66,6.58-3.48,13.13-5.55,19.59a32.67,32.67,0,0,1-4,8.64c-8.11,11.62-8.48,11.56-8.31,25.66.16,13.34-5.53,24.35-12.84,34.75-4,5.68-8.62,10.94-13.06,16.31a13,13,0,0,0-3.07,6.65c-.8,5-2.7,9.8-4.19,14.67-1.58,5.2-3.36,10.34-4.73,15.59a13.06,13.06,0,0,0-.15,6.42c2.6,9.66,5.55,19.22,8.23,28.86.52,1.87.3,3.94.55,5.89a20.6,20.6,0,0,0,1,4.85c4.36,11.11,8.08,22.4,9.22,34.34a152.59,152.59,0,0,1,.88,19.34c-.71,21.43-.63,42.84,0,64.27a137.27,137.27,0,0,1-1.2,19.31c-.95,8.45-5.07,14.66-13.72,17.07a5.19,5.19,0,0,0-3.78,3.61,19.68,19.68,0,0,0-.4,13.84c2.89,8.67,5,17.59,7.77,26.32a11,11,0,0,1-.3,6.92c-2.59,8.26-5.09,16.55-7.86,24.75a14.74,14.74,0,0,0-.07,9.44c2.78,9.08,5.26,18.25,8.08,27.31a13.49,13.49,0,0,1-.32,8.41c-2.64,8.43-5.2,16.88-8,25.27a11.79,11.79,0,0,0,0,7.45c2.82,9.43,5.45,18.91,8.3,28.32a10.31,10.31,0,0,1,0,6.91C1278.27,1303.1,1277.46,1306.22,1276.45,1309.53ZM1132.51,1235l12.35-3,11.74-3.42-.42-1.19q-5.6,2.35-11.22,4.69-6.18,1.5-12.38,3l-7.69,1,.22,1.14Zm11.78-72.86-24.86,6a12.48,12.48,0,0,0,2.57.25c6.54-1.45,13.09-2.9,19.61-4.49,1-.23,1.72-1.22,2.6-1.83,4.54.58,8.22-1.88,12.08-3.69ZM1121,367.51c5.7,1.47,11.4,3,17.12,4.39q16.74,4.11,33.51,8.1c4.3,1,7.51-.49,10.13-4.82-10.1-2.46-20.07-4.92-30.06-7.3a3.28,3.28,0,0,0-2.37.35c-4.91,3.56-10.16,2.73-15.56,1.56-4.25-.93-8.58-1.46-12.88-2.17a37.19,37.19,0,0,0-5.31-2.16q-43.2-10.5-86.44-20.87c-21.24-5.13-42.46-10.35-63.72-15.41-1.45-.34-3.68-.28-4.63.6-2.94,2.71-5.44,5.91-8.57,9.43,2.33.66,3.88,1.16,5.46,1.54,31,7.41,62,14.67,92.86,22.33,8.13,2,15.79.66,23.58-1.07a3,3,0,0,0,1.72-.95c2.46-3.41,5.59-3.19,9.08-2,2.07.7,4.25,1.12,6.39,1.62Q1106.13,364.11,1121,367.51ZM763,815.83c-.26,2.52-.51,3.81-.52,5.1,0,7.83-.09,15.66.08,23.48a49.79,49.79,0,0,0,1.14,9.08c3.57,17.13,12.38,31.47,23.93,44.31,12.89,14.32,28.47,25.17,45,34.83,10.85,6.35,21.8,12.46,34,16.07,6,1.78,12.12,3.26,18,5.43,13.77,5.09,23.78,18.06,23.38,33.17A115.47,115.47,0,0,1,906.4,1004c-1.92,11.16-1.82,22.3-.88,33.52.67,8,1.26,15.92,1.39,23.89.21,12.53-7.73,22.12-19.71,25.16a82.26,82.26,0,0,1-16.07,2.38c-8.47.41-17,0-25.45.28-10.08.39-12.91,3.76-14.6,13.49a17.84,17.84,0,0,0-.12,4.07c.7,12,1.85,24.08,2.07,36.13.39,21.42.4,42.84.2,64.26-.09,9.17-1.13,18.32-1.7,27.48-.89,14.43.1,28.4,7.36,41.55a40.32,40.32,0,0,1,5.08,16.91c.71,14.93.76,29.93.14,44.87-.45,10.68-5.8,18.3-17.49,19.87-12.59,1.69-25.23,3.4-37.9,4.06-8.76.46-17.75-.38-24.93-6.79-.12-.11-.58.15-1.32.38V1361c0,20.41.1,40.82,0,61.23-.06,12.24,3.55,23.45,9.15,34.09,9.32,17.68,23.08,31.42,38.94,43.2,21.88,16.25,46.25,27.66,71.88,36.56a413.86,413.86,0,0,0,77.5,18.49,439.37,439.37,0,0,0,53.17,4.86c25,.51,50,.78,74.85-2.21,15-1.81,29.89-4.12,44.68-7,36-6.91,70.54-18.31,102.63-36.37,18.49-10.4,35.39-22.88,49-39.43,11.79-14.36,20.08-30.34,21.26-49.22.5-8,.08-16,.08-24.58a12.49,12.49,0,0,0-.83,1.41c-6.46,18.65-18.13,33.65-32.61,46.7-16.44,14.81-35.08,26.16-55.09,35.4a346.24,346.24,0,0,1-79.21,25.53c-14.8,2.88-29.73,5.14-44.66,7.23-9.72,1.37-19.54,2.28-29.35,2.78s-19.39.18-29.09.24c-9,.06-18,0-27,.26-7.49.23-15,.32-22.28-1.43-10.14-2.41-17.69-8.1-22-17.86-3-6.65-3.21-13.59-2.18-20.51a234.73,234.73,0,0,0,2.1-38.66,124.56,124.56,0,0,1,.61-16.28,39.51,39.51,0,0,1,11.06-23.5c6.55-6.81,14.4-11.84,22.07-17.19,10.31-7.19,20.67-14.36,30.49-22.19,18.6-14.84,36.54-30.5,56.12-44.11,6.13-4.26,12-8.91,17.73-13.72,7.64-6.43,13.79-14.13,17.35-23.55,3.43-9.08,3.85-18.53,3-28.14-1.33-14-2.54-28.09-.8-42.24a198.83,198.83,0,0,0,1.12-22.38,25.57,25.57,0,0,0-7.5-18.37c-4.43-4.67-9.82-7.8-15.46-10.61a398,398,0,0,1-50.37-29.83c-8-5.59-15-12.42-17.91-22.19a59.92,59.92,0,0,1-2.53-14.46c-.36-10.37-.19-20.75,0-31.12.07-4.41.06-9,1.17-13.17a43.76,43.76,0,0,1,5.65-12.86c5.58-8.4,14.3-12.94,23.33-16.55a472.47,472.47,0,0,0,54.93-26.58c34.12-19.07,67.89-38.67,99.53-61.73,23.81-17.34,46.9-35.5,66.88-57.31,8-8.68,15.18-17.88,20.71-28.32a46.82,46.82,0,0,0,5.12-28.73c-4.67,4.46-9.21,8.92-13.86,13.25-11.84,11-24.29,21.13-38.82,28.61-10.54,5.43-20.36,12.21-31.72,16.1-15.21,5.22-29.66,12.61-45.5,16.12-5.46,1.21-10.83,2.78-16.29,4-10.57,2.4-21.12,4.94-31.77,6.91-8.82,1.63-17.78,2.55-26.68,3.75-7.73,1-15.44,2.37-23.2,2.93-9.83.71-19.7,1-29.55,1-14.09,0-28.18.91-42.29-.62-11.8-1.28-23.71-1.57-35.57-2.42a105.47,105.47,0,0,1-10.58-1.46q-15.53-2.71-31-5.61c-7.65-1.45-15.35-2.79-22.88-4.73-8.2-2.12-16.24-4.83-24.32-7.39-8.24-2.61-16.61-4.9-24.61-8.13-9.58-3.88-18.85-8.54-28.2-13a122.36,122.36,0,0,1-14-7.2c-8.44-5.41-16.55-11.33-24.85-17a68.91,68.91,0,0,1-14.15-12.37C771.93,825,767.82,821,763,815.83Zm481.37-241.16c-1.38,3.55-2.72,6.48-3.6,9.55a7.36,7.36,0,0,0,.29,4.44c2.72,6.94,5.41,13.92,8.57,20.67a47.35,47.35,0,0,1,4,13c1.62,10.4,1.24,20.42-2.1,30.6a61.13,61.13,0,0,1-8.38,17.24c-3.1,4.26-5.3,9.45-9.13,12.83-9.9,8.73-19.36,17.94-30.93,24.81a267.36,267.36,0,0,1-62,26.54A361.44,361.44,0,0,1,1074.22,747c-14.18,1.38-28.48,1.87-42.74,2-9.81.1-19.64-1.18-29.46-1.65-10.18-.49-20.33-1.14-30.33-3.22-13.1-2.72-26.49-4-39.28-8.14-10.79-3.52-21.77-6.52-32.37-10.53a179.27,179.27,0,0,1-24.88-11.63c-14.77-8.39-28.91-17.62-40.44-30.55-6.78-7.61-12.49-15.58-16.18-25-1-2.68-3-5.17-3.38-7.91-1.49-11.07-3.81-22.2.63-33.2,1.07-2.66,1.46-5.59,2.33-8.33a45.44,45.44,0,0,1,2-4.64c2.42-5.4,4.87-10.79,7.24-16.21a3.67,3.67,0,0,0,.34-2.44c-1.23-3.3-2.66-6.53-4-9.79A6.38,6.38,0,0,0,822,576c-13.78,7.73-27,16.05-38.82,26.88-9.61,8.83-18.4,18.06-25.21,29.16a24.39,24.39,0,0,1-2.31,3.36,35.91,35.91,0,0,0-7.6,15.92c-2.4,10.49-7.38,20.61-4.43,31.85a9,9,0,0,1,.19,2c.22,11.3,3.94,21.44,9.19,31.38,4.56,8.64,9.37,16.87,16.43,23.71,3.54,3.42,6.68,7.25,10.17,10.74a73.08,73.08,0,0,0,8.68,7.84c8.56,6.15,17.26,12.1,26,18a84.55,84.55,0,0,0,10.18,5.72c6.86,3.34,13.8,6.53,20.76,9.66,6.65,3,13.23,6.21,20.09,8.61,9.58,3.35,19.37,6.14,29.13,9,8,2.31,16,4.53,24,6.39,6.93,1.59,14,2.71,21,3.86,9.85,1.63,19.72,3.21,29.61,4.57,4.87.67,9.81.82,14.71,1.2,11.67.9,23.34,2.41,35,2.54,17.84.2,35.69-.5,53.53-1,4.4-.12,8.81-.62,13.18-1.18,9.08-1.16,18.13-2.5,27.2-3.72,10.4-1.41,20.87-2.32,31-5.13,19.25-5.32,39.07-8.57,57.58-16.52,14.47-6.21,29.81-10.45,43.12-19.27,2.26-1.5,4.74-2.67,7-4.12,7.59-4.8,16-8.26,22.76-14.41,7-6.41,14.33-12.53,21.43-18.87a30.93,30.93,0,0,0,4.73-5.3c4.28-6.13,8.2-12.52,12.64-18.52a40,40,0,0,0,6.57-14.19c1.47-5.75,3.26-11.44,4.55-17.23a32.3,32.3,0,0,0,.67-9c-.39-6.1-1.09-12.19-1.87-18.25a27.46,27.46,0,0,0-1.84-7.88c-3.66-8-7.6-15.94-11.53-23.85a20.61,20.61,0,0,0-3.19-4.57q-10.31-11.31-20.77-22.49a26.29,26.29,0,0,0-4.15-3.74q-15.06-10.5-30.23-20.83A71.48,71.48,0,0,0,1244.39,574.67ZM1325.22,1451l-.89-.18c-.91,3.22-1.63,6.51-2.79,9.64a59.76,59.76,0,0,1-4.43,9.61c-2.43,4.09-5.4,7.84-8,11.85a83.76,83.76,0,0,1-17.6,20.28c-10.75,8.81-20.47,18.86-33.16,25.19-11.21,5.6-21.31,13.29-33.18,17.72-19.68,7.35-38.88,16-59.65,20.21-11.62,2.36-23,5.69-34.65,8.06-7.12,1.45-14.44,2-21.68,2.83-13.3,1.6-26.59,4.31-39.91,4.45-19.17.21-38.33,2.62-57.55.62-11.65-1.21-23.39-1.44-35.06-2.42-7.08-.59-14.12-1.71-21.16-2.73-4.19-.6-8.36-1.39-12.52-2.22-15.77-3.12-31.82-4.89-47.13-10.21-14.24-4.94-29.15-7.91-42.91-14.28-5.09-2.35-10.18-4.67-15.24-7.06-10.58-5-21.5-9.34-30.9-16.57-3.5-2.69-7.17-5.17-10.87-7.58a121.79,121.79,0,0,1-23.3-19.65c-14.88-16.19-15.07-16-24.86-35.66q-2.12-4.23-4.21-8.46a3.33,3.33,0,0,0-1,2.48c-.57,14.49.71,28.87,2.41,43.23a28.8,28.8,0,0,0,3.13,10.13c3.46,6.62,6.7,13.37,10.09,20a19.41,19.41,0,0,0,2.7,4.29c12.52,13.88,24.59,28.26,41.22,37.64,1,.58,1.93,1.38,2.91,2.06,7.51,5.26,15.12,10.28,23.6,14,16.89,7.44,33.2,16.2,51.24,20.88,10.82,2.81,21.29,7.18,32.22,9.29,21.6,4.16,43,9.43,65.16,10.63,13.72.75,27.42,2.54,41.14,2.72,18.85.24,37.72-.58,56.59-1,2.7-.06,5.4-.38,8.09-.71q13.13-1.62,26.23-3.35c8.4-1.1,17-1.44,25.16-3.5,24.44-6.18,49.37-10.65,72.71-20.87,12.71-5.57,26.09-9.61,37.85-17.3,4.83-3.16,9.88-6,15-8.68a89.69,89.69,0,0,0,18.58-13.3c10.66-9.67,22.45-18.23,29.45-31.39,2-3.73,4.83-7,7-10.63a34.45,34.45,0,0,0,3.62-7.76c2.07-6.82,3.83-13.74,5.67-20.63a17.86,17.86,0,0,0,.83-4.48C1325.25,1475.81,1325.22,1463.4,1325.22,1451ZM743.66,728.81l-1.07.21c.12,10.64-.1,21.26.89,31.94,1.06,11.45,3.15,22.27,9,32.51,4.87,8.59,9.25,17.25,16.4,24.35,8.54,8.5,16.23,17.8,26.66,24.31,11.63,7.28,22.26,16.08,35.13,21.47,15.14,6.35,29.51,14.49,45.53,18.8,12,3.21,23.54,8,35.62,10.36,21.24,4.24,42.38,9.3,64.14,10.6,12.53.74,25,2.59,37.56,2.69,22.09.17,44.19-.61,66.29-1a26,26,0,0,0,3-.4L1109,901.1c12.24-1.65,24.57-2.72,36.55-6.08,18.09-5.07,36.8-8,54.21-15.44,14.15-6.08,29.14-10.19,42.37-18.46,13.5-8.43,28.12-15.06,39.73-26.44,8.34-8.17,18.16-14.84,24-25.39a78.11,78.11,0,0,1,7.09-10.58,37.61,37.61,0,0,0,6.8-14.64c1.25-4.94,2.89-9.78,4-14.75a52,52,0,0,0,1.37-10.53c.18-10,.07-20.07,0-30.11,0-1.17-.11-2.35-.17-3.52a15.61,15.61,0,0,0-2.41,5.88c-1.05,6.59-4.37,12-8.14,17.35q-4.43,6.23-8.59,12.66a52.17,52.17,0,0,1-10.71,12.2c-11.54,9.44-21.68,20.58-35.22,27.58-13.24,6.84-25.42,15.67-39.71,20.56-15.38,5.27-30,12.61-46,16.15-14.23,3.14-28.31,7-42.56,10-7.93,1.69-16.09,2.38-24.15,3.45-8.57,1.15-17.13,2.71-25.74,3.2-17.47,1-35,1.76-52.46,1.93-10.67.1-21.35-1.06-32-1.7-16.59-1-33.19-1.86-49.55-5.22-12.44-2.55-25.09-4.21-37.43-7.17-11.52-2.76-22.72-6.8-34.12-10.09a171.14,171.14,0,0,1-29-10.86c-7.59-3.77-15.44-7-23.07-10.75a108.51,108.51,0,0,1-12-6.72c-7.11-4.66-14-9.64-21-14.41a77.1,77.1,0,0,1-14.77-12.45c-5.2-5.84-10.67-11.44-15.83-17.32a41.77,41.77,0,0,1-5.47-7.91C751.12,744.05,747.44,736.4,743.66,728.81Zm493.77-140c-1.87,2.33-3.43,4.31-5,6.26a133.56,133.56,0,0,1-28,25.82c-14.68,10.13-30.66,17.65-47.18,23.68a292,292,0,0,1-45,12.5,404.1,404.1,0,0,1-61.56,7.29c-21.56.76-43.1.33-64.57-2.63-14.11-1.95-28.1-4.23-42-7.33a258.85,258.85,0,0,1-51-17c-13.5-6.13-27-12.82-38.2-23.11-2.12-2-4.6-3.54-6.66-5.55-3.65-3.53-7.21-7.16-10.6-10.94-2.35-2.63-4.35-5.59-7-9.06-1.74,5.47-4.52,9.77-4.4,15.08.15,6.78-1.09,13.87.48,20.28,2.54,10.29,6.56,20.08,13.47,28.76a124.89,124.89,0,0,0,34.41,29.85,219.43,219.43,0,0,0,26.16,13.53,250.25,250.25,0,0,0,32,11.4c14.52,3.94,29.12,7.86,44.18,9.47,8.59.91,17.13,2.51,25.73,3.15,10,.74,20,.94,30.05,1,6.61.07,13.23-.27,19.83-.76,12.17-.91,24.4-1.53,36.46-3.26a325.62,325.62,0,0,0,44.75-9.2c25.27-7.37,49.25-17.25,70.73-32.68a60.09,60.09,0,0,0,4.94-3.56,171,171,0,0,0,20.61-21.83c6-7.55,9.48-16.42,11.34-25.32C1243.84,612.89,1244.29,600.61,1237.43,588.76ZM1220.82,429c1.08,3,2.24,6,3.22,9.05,1.1,3.38,2.86,6.79,2.92,10.21.3,18.7.21,37.41.08,56.11a8.33,8.33,0,0,1-1.94,5c-6.38,7.29-13,14.37-19.46,21.59a12.22,12.22,0,0,1-8,3.89c-12.09,1.69-24.21,3.22-36.18,5.56-9,1.78-17.79,2.06-26.54-1-.64-.22-1.31-.35-2-.51l-129-31.06c-29.32-7.07-58.65-14.09-87.94-21.3a12.11,12.11,0,0,0-10.11,1.46,83.1,83.1,0,0,1-33.32,11.73,96.57,96.57,0,0,1-17.72,1c-7.08-.36-14.1-1.74-21.15-2.67-1-.13-2-.22-3.22-.36a13.15,13.15,0,0,0,.34,2.27c3.51,10.27,10.51,18.41,18,25.63,10.09,9.78,21.27,18.5,34.27,24.48,4.82,2.22,4.69,2.47,8.38-1.62,5-5.54,10.12-11,15.06-16.63a6.45,6.45,0,0,1,7.26-2.12c4.24,1.16,8.55,2.09,12.83,3.12q52.36,12.65,104.71,25.33a29.1,29.1,0,0,1,4.27,1.88l-20,22.71c3.21.29,5.37.6,7.53.68,16.32.55,32.57-.48,48.85-1.67a314.74,314.74,0,0,0,46.64-7.39c17.32-3.91,34.35-9,50.64-16.5,19.44-8.91,37.88-19.13,52.43-35.2,3.42-3.78,6.63-7.75,9.7-11.82a42.27,42.27,0,0,0,4.64-7.83,108.66,108.66,0,0,0,4.6-11.87,50.41,50.41,0,0,0,1.33-25.7C1239,451.35,1231.6,439.14,1220.82,429Zm89.32,952.15-1.05.22c0,1.33,0,2.66,0,4-.09,11.57-.22,23.13-.26,34.7,0,12.48-3.2,24.19-8.6,35.35-7.55,15.61-19,28.1-32,39.26-17.29,14.87-37,25.92-57.81,34.94-40.06,17.35-82.21,26.54-125.46,30.8-15.53,1.53-31.19,1.79-46.81,2.27a386.13,386.13,0,0,1-56-2.32c-16.82-1.94-33.59-4.66-50.22-7.89-34.5-6.7-67.58-17.67-98.47-34.69-19-10.5-36.38-23.25-50.67-39.81-15.31-17.73-24.23-37.94-23.89-61.78.13-9.86-.13-19.73-.24-29.59,0-1.25-.2-2.49-.38-4.6-4.44,6.11-8.64,11.16-9.73,18a57.84,57.84,0,0,1-2.62,9.31c-2.74,8-4.08,16.09-2.29,24.49a4.36,4.36,0,0,1,0,.51,68.29,68.29,0,0,0,8.68,31c4.75,8.44,8.84,17.11,16,24,8.28,8,15.21,17.31,25.23,23.6,12.76,8,24.37,17.91,38.64,23.49,2.37.92,4.6,2.18,6.93,3.19,9.33,4,18.59,8.25,28,12,5.66,2.23,11.61,3.74,17.46,5.44,10.42,3,20.79,6.19,31.31,8.8,7.71,1.92,15.61,3.14,23.46,4.46q14.52,2.46,29.12,4.51c4.53.63,9.13.68,13.7,1.08,15.22,1.3,30.42,3,45.72,2.77,15.47-.27,30.93-.69,46.4-1.07,1.18,0,2.36-.26,3.54-.4,9.75-1.2,19.52-2.34,29.27-3.63,9.57-1.27,19.19-2.33,28.66-4.16,9-1.74,17.78-4.31,26.64-6.62,9.17-2.39,18.44-4.52,27.43-7.47s17.77-6.71,26.59-10.22c5.83-2.31,11.75-4.47,17.33-7.29,6.81-3.44,13.33-7.47,19.93-11.32,8.64-5,17.48-9.75,24.77-16.85,5-4.86,10.49-9.18,15.66-13.85a43.92,43.92,0,0,0,5.93-6.27c3.23-4.37,5.91-9.16,9.28-13.41,6.13-7.77,9.59-16.54,12.08-26.07,2.38-9.13,4.6-18,2.73-27.52-1.11-5.66-.55-11.81-2.49-17.09C1318.63,1397.09,1314.07,1389.25,1310.14,1381.18Zm14.29,123c-.43,1.43-1,2.85-1.27,4.31a46.38,46.38,0,0,1-9.11,19.68c-.52.67-.94,1.42-1.42,2.11-6.22,8.89-11.69,18.29-20.63,25-9.6,7.24-17.49,16.6-28.25,22.47-15.61,8.52-30.38,18.6-47.46,24.35-13.8,4.64-26.9,11.3-41.28,14.31-5.47,1.14-10.84,2.78-16.3,4-10.57,2.39-21.12,4.91-31.77,6.89-8.66,1.61-17.44,2.54-26.18,3.7-8.06,1.06-16.12,2.43-24.23,2.94-11.52.72-23.09.78-34.64,1.13a429.11,429.11,0,0,1-48.36-1.66c-15.9-1.31-31.82-2.1-47.48-5.41-16.07-3.4-32.5-5-48.21-10.22-18.81-6.21-38.16-10.8-56-20-12.81-6.59-26.4-11.63-38-20.59-5.77-4.47-12-8.3-18-12.57a52.48,52.48,0,0,1-6.92-6c-4.39-4.51-8.65-9.14-12.84-13.83-3.5-3.92-7.41-7.64-10.08-12.09-3.93-6.53-6.92-13.62-10.32-20.47-.48-1-1-1.89-1.58-2.83a100.07,100.07,0,0,0,.64,14.37,27.54,27.54,0,0,0,3.36,11.11,119.55,119.55,0,0,1,6.15,12.3c3.37,8.18,8.62,14.93,14.81,21.1,7.56,7.53,14,16.13,23.26,22,13.33,8.41,25.44,18.78,40.39,24.51,2.53,1,4.91,2.32,7.38,3.45,7.4,3.4,14.54,7.69,22.27,10,20.61,6.11,40.72,14,62.1,17.45,11.88,1.91,23.63,4.61,35.52,6.4,8.2,1.24,16.54,1.55,24.82,2.26,6.76.57,13.51,1.22,20.28,1.67,7.28.47,14.57.92,21.86,1,5.08.08,10.17-.46,15.26-.63,12.4-.42,24.8-.77,37.2-1.16,1,0,2-.12,3-.26,8.73-1.21,17.43-2.58,26.18-3.64,12.62-1.54,25.24-2.91,37.55-6.31,16-4.42,32.52-6.87,48-13.18,17.72-7.23,36.19-12.7,52.5-23.18,7.56-4.86,16.24-8.24,23.11-13.88,14.89-12.24,30.7-23.82,40.06-41.5a24.42,24.42,0,0,1,2.37-3.31,40.1,40.1,0,0,0,7.54-16,110.16,110.16,0,0,1,3.45-12.79A32.81,32.81,0,0,0,1324.43,1504.14Zm.09-804.24c-1.13,4-2.18,8.08-3.43,12.07a24.06,24.06,0,0,1-2.44,5.54c-2.15,3.46-4.56,6.76-6.83,10.15-6,9-11.87,18.22-20.89,24.78-2.87,2.09-5.37,4.69-8.09,7-4.26,3.65-8.12,8-12.91,10.74-17.8,10.14-34.8,21.78-54.49,28.42-14,4.71-27.21,11.42-41.77,14.42-4.47.93-8.88,2.2-13.33,3.24-9.89,2.33-19.74,4.89-29.71,6.83-7.81,1.53-15.76,2.31-23.66,3.34-9.07,1.19-18.13,2.62-27.25,3.32-9.82.76-19.69,1-29.54,1.08-13.91.15-27.78,1.71-41.73.07-10.44-1.22-21-1.52-31.48-2.27a117.48,117.48,0,0,1-12.17-1c-17.52-3.08-35.11-5.9-52.48-9.73-11.72-2.58-23.12-6.62-34.62-10.14-7.13-2.19-14.31-4.3-21.23-7-7.08-2.81-13.92-6.26-20.78-9.6-8.53-4.14-17.51-7.4-25.25-13.12-5.6-4.15-11.27-8.22-17.15-11.94a100.65,100.65,0,0,1-19.69-16.81c-15.72-16.78-15.83-16.67-26.1-37.24-.53-1.06-1-2.15-1.62-3.17s-1.16-1.7-2.4-3.48c1.08,11.14.95,21.25,6.84,30.09a46.88,46.88,0,0,1,4.34,8.64c2.81,7.07,7.29,12.9,12.47,18.39,9.56,10.13,18.68,20.63,30.86,27.93,9.44,5.66,17.77,13.07,28,17.57,18,7.92,35.29,17.35,54.52,22.28,10.82,2.78,21.26,7.34,32.19,9.33,22.82,4.16,45.4,9.89,68.77,10.75,12.87.48,25.71,2.55,38.57,2.7,18.85.21,37.72-.65,56.58-1.06a19.92,19.92,0,0,0,2-.2c11.58-1.57,23.15-3.2,34.75-4.7,10.41-1.35,20.87-2.34,31-5.2,18.08-5.09,36.76-8,54.24-15.3,16.24-6.79,33.2-11.92,48.18-21.6,7.55-4.87,16.29-8.19,23.1-13.88,14.26-11.91,29.85-22.74,38.9-39.84a26,26,0,0,1,2.65-3.73,45.11,45.11,0,0,0,8.73-18.73,96.07,96.07,0,0,1,3.4-12.27C1325.59,711.08,1325.29,705.58,1324.52,699.9ZM825.74,498.11c0,4.56.24,8.76,0,12.92-.54,7.65,1.65,14.65,3.87,21.85,3.39,11,10.55,19.61,18.11,27.37a133.86,133.86,0,0,0,27.23,21.26,239.57,239.57,0,0,0,52.58,22.93,271.55,271.55,0,0,0,44.06,10c15.14,2,30.25,4.08,45.52,4.67a407.55,407.55,0,0,0,49.42-1c6.42-.54,12.84-1.1,19.22-1.95,5.54-.75,11-2.17,16.53-2.88,17.93-2.31,35.18-7.51,52-13.56s32.82-13.71,47.56-24A114.1,114.1,0,0,0,1220,560.25c8.16-8.73,15.23-18,19.46-29.51,4.06-11.09,2.59-22.15,2.59-33.34a54.39,54.39,0,0,0-3.41,7.39,21.44,21.44,0,0,1-2,4.13,138.84,138.84,0,0,1-51.79,45c-13.52,6.91-27.44,13.37-42.39,17.09-7.88,2-15.52,5.12-23.48,6.53-17.35,3.07-34.57,6.83-52.31,7.69-15.6.75-31.15,2.47-46.79.91-1.82-.19-3.67,0-6,0-.37,6.51-.73,12.71-1.1,19.27a37.29,37.29,0,0,1-6.14.87c-13.25-.33-26.49-.8-39.73-1.24a9.59,9.59,0,0,1-1.49-.3c-19.06-4-38.35-7.23-55.78-16.71-6.24-3.4-12.63-6.51-18.93-9.81-3.16-1.65-4.48-4.23-4.29-7.89.24-4.91.06-9.84.06-14.67-1.59-.95-2.7-1.73-3.9-2.32a125.44,125.44,0,0,1-29.11-19.5c-3-2.74-6.68-5-9.12-8.11-6.51-8.41-14.27-16.08-17.36-26.73C827,498.79,826.61,498.68,825.74,498.11ZM769.65,602c-2.53,1-4.89,1.82-7.13,2.88-19.44,9.27-29.73,24.59-30.39,46.21-.09,2.89-.06,5.78-.06,8.67q0,109.47-.09,218.94-.15,129.87-.42,259.75a89.55,89.55,0,0,1-6.43,33.83,18.56,18.56,0,0,0-.69,2.9l.93.51c.6-.82,1.13-1.69,1.8-2.44,6.93-7.71,13.8-15.48,20.84-23.09,14.61-15.82,22.16-34.56,22.22-56,.18-70.09.06-140.17.09-210.26a19.41,19.41,0,0,0-2.15-8.73,165.1,165.1,0,0,1-6.33-16.08c-.84-2.35-1.25-4.86-1.94-7.62-2.46,1.2-4,.63-4-1.93.05-3-.38-6.4.79-9,1.76-3.93,2-7.81,1.95-11.89-.06-4.59,0-9.18-.06-13.77a10.62,10.62,0,0,0-.69-4.42c-2.71-5.48-5.62-10.85-8.51-16.24-.5-.93-1.21-1.76-2.21-3.19a27.7,27.7,0,0,1-.86,4.7,65.26,65.26,0,0,1-3.33,7.38,4.26,4.26,0,0,1-4.72,2.31c-2.2-.37-2.23-2.34-2.54-3.94a20.46,20.46,0,0,1-.3-4.06c0-28.41-.07-56.82,0-85.23,0-3.17.26-6.68,1.61-9.44,2.07-4.21,2.15-8.44,2.13-12.84,0-3.91-.08-7.83.15-11.73a75.06,75.06,0,0,1,1.34-12.1c1.51-6.61,3.38-13.15,5.45-19.62a44.92,44.92,0,0,1,4.39-9.62c2.82-4.64,6.06-9,9.16-13.5,2.32-3.36,4.19-7.23,7.15-9.89C770.54,610.17,770.66,606.69,769.65,602ZM913.11,360.24c-2.9-2.66-5.33-5.28-8.15-7.39a102,102,0,0,0-38.4-18,92.05,92.05,0,0,0-43.44.17c-19.54,4.84-35.78,15.21-47.28,32.25a62.62,62.62,0,0,0-10.72,30.9c-1.61,22,5.8,41.05,19.93,57.66,2.38,2.8,5.13,5.27,8.29,8.48.27-2,.51-3.1.55-4.2.17-4.92.48-9.86.36-14.78a11.38,11.38,0,0,1,3.35-8.61c9.46-10.23,18.71-20.64,27.95-31.07,6.21-7,12.51-13.8,20.5-19,9.05-5.86,8.88-6.12,19.54-3.44,9.95,2.51,10,2.52,19.34-1.69,2.63-1.18,5.12-2.76,7.85-3.6C902.11,375.09,906.66,367,913.11,360.24Zm1.37,122.84,231.14,55.86v-8.08l-26.41-6.64V494.08c-1.59-.51-2.52-.88-3.48-1.11q-32.85-8-65.69-15.86c-29.14-7-58.3-14-87.42-21.13a9.08,9.08,0,0,0-6.35.56q-12.25,5.61-24.52,11.18a10.12,10.12,0,0,0-2.69,1.41C924.38,473.52,919.77,478,914.48,483.08Zm331,44.41-1.45-.34c-1.48,3.75-2.86,7.55-4.46,11.26a36.76,36.76,0,0,1-3.91,7.65c-8.94,11.83-18.6,23-31,31.46a36.72,36.72,0,0,0-6.31,5.91c-5.63,6.25-12.44,11-19.31,15.69-13,9-27.36,15.12-42.09,20.19a270.09,270.09,0,0,1-44.29,11.22q-18.63,3-37.38,4.31c-15.63,1-31.26.13-46.89,0a28.4,28.4,0,0,1-3.55-.33c-6.38-.85-12.74-2-19.15-2.52-15.83-1.27-31.12-5.37-46.17-9.86-15.22-4.54-30.1-10.41-43.85-18.78-5.82-3.53-11.63-7-16.77-11.49q-13.38-11.75-26.83-23.44c-11.66-10.18-21.49-21.66-26.12-36.84A47.31,47.31,0,0,0,824,527c-1.7,12.09-1.94,23.74,3.41,34.74,1.33,2.73,2.14,5.8,3.84,8.26,7.27,10.51,15.51,20,25.76,28a184.77,184.77,0,0,0,43.59,24.84c9.7,4,19.54,7.94,29.66,10.55,15.39,3.95,30.72,8.42,46.71,9.75,10.12.84,20.16,3.1,30.28,3.48a543.86,543.86,0,0,0,64.72-.91c4.55-.38,9.11-.89,13.63-1.57,6.52-1,13-2.42,19.53-3.3,17.58-2.37,34.48-7.54,51-13.49,16.88-6.08,33.34-13.51,47.91-24.39,3.94-2.94,8.07-5.67,11.69-9a145.91,145.91,0,0,0,20.33-22.8,21.81,21.81,0,0,0,2.42-4.42c1.63-3.92,3-8,4.7-11.83C1247.24,545.94,1245,536.65,1245.47,527.49ZM822.09,610.06l-.86-.28c-1.44,5.2-3,10.37-4.26,15.6a21.44,21.44,0,0,0-.74,6.51c.72,11,2.56,21.59,8,31.72,6.39,11.86,15.29,21.42,25.36,29.58a183.5,183.5,0,0,0,36.19,22.58c17.87,8.58,36.58,14.56,55.56,19.5,14.53,3.79,29.61,5.79,44.56,7.57,14.13,1.68,28.41,2.52,42.64,2.85,13.07.31,26.16-.56,39.25-.91a17.35,17.35,0,0,0,2-.16c8.72-1.23,17.41-2.74,26.17-3.65,17.63-1.84,34.74-6.33,51.48-11.61,16.91-5.33,33.76-11.45,48.85-21.28,5.82-3.79,12-7.14,17.51-11.28s10.34-8.83,15.39-13.39a30.16,30.16,0,0,0,4.42-4.89c3.44-4.85,6.82-9.75,10-14.79a36.53,36.53,0,0,0,3.66-7.77,102.15,102.15,0,0,0,3.21-11.79,38.56,38.56,0,0,0,1.06-9.54c-.28-5.41-1.12-10.81-1.76-16.21-.34-2.89-1.84-5.2-3.74-7.46.79,9.81-2.26,18.59-6.12,27.18-1.39,3.08-2.39,6.44-4.27,9.18-3.74,5.43-7.54,10.75-11,16.44a101.39,101.39,0,0,1-25.64,28.14c-15.63,11.9-33.11,20.69-51.63,27.17a318.9,318.9,0,0,1-54.62,13.85,344.52,344.52,0,0,1-40.49,4c-9.67.41-19.37,0-29,.22-17.25.46-34.27-1.94-51.15-4.71a268.7,268.7,0,0,1-53-13.93c-20.73-8-40.45-17.6-57.11-32.64-2.52-2.27-5.42-4.29-7.38-7-8.08-11.08-15.87-22.38-23.76-33.59a3.29,3.29,0,0,1-.52-.88c-2.78-9.19-8.1-17.67-7.67-27.77A45.72,45.72,0,0,0,822.09,610.06ZM797.28,482.47c0,2.82,0,4.66,0,6.49-.15,15-.44,29.93-.41,44.9,0,7.76-1,15.24-4.16,22.36-4.47,10.17-10.67,19.08-20.48,24.64-6.91,3.93-14.3,7-21.55,10.32-12.36,5.62-20.83,14.88-26.06,27.3-3,7.2-3.91,14.7-3.91,22.43q0,140.33-.06,280.66a53.07,53.07,0,0,0,3,19,57.8,57.8,0,0,1,3.52,21q-.26,30.62,0,61.23a46.79,46.79,0,0,1-3.79,19.32,35.26,35.26,0,0,0-2.73,14.37c0,23-.41,45.92-.3,68.88a85.7,85.7,0,0,1-7.24,35.66c-1.85,4.16-3.9,8.23-5.89,12.41.36.54.71,1.13,1.13,1.66,4.43,5.68,4.42,8.14-.61,13.08-8.87,8.69-17.83,17.27-26.8,25.85-1.71,1.63-3.65,3-5.75,4.75l3.57,4.2c7.94-7.71,15.36-15.19,23.08-22.35,17.71-16.42,26.27-36.65,26.26-60.74q-.06-232.18,0-464.36c0-7.31.15-14.63.29-21.94.15-8.24,1.49-16.27,5-23.76,4.4-9.36,10.31-17.71,19.37-23,6.42-3.75,13.47-6.4,20.05-9.89,5.06-2.69,10.36-5.32,14.62-9,11.91-10.42,17.45-24,17.57-39.76.14-18.71,0-37.42.11-56.13,0-3.44-.78-5.94-4.11-7.3C800.1,484.24,799.29,483.63,797.28,482.47Zm251.32-85.59,18.91,4.59q33.81,8.22,67.63,16.47a5.56,5.56,0,0,0,6.26-1.92c5.9-6.81,12-13.44,18-20.14l11.39-12.68c-1.65-.57-2.73-1-3.86-1.31-27.35-6.58-54.71-13.09-82-19.77-3.08-.75-5.48-1-7.74,1.68-.77.9-2.39,1.21-3.68,1.5a92.34,92.34,0,0,1-10,1.85,25.09,25.09,0,0,1-8.07-.09c-13-3-26-6.23-39-9.37l-39.21-9.45c-4.63,5.14-9.62,9.84-13.8,15.63,1.45.53,2.37,1,3.35,1.21q36.32,8.76,72.63,17.43a9.45,9.45,0,0,1,6.49,4.41,25.07,25.07,0,0,0,2.61,3.77C1050,392.47,1050.22,394.29,1048.6,396.88ZM967.9,1420.31a52.38,52.38,0,0,0-1.15,6.85c-.26,7.13-.21,14.28-.44,21.41-.25,7.63-.65,15.27-1,22.89-.34,6.44-1.29,12.9-1,19.31.4,9.63,5,17,13.62,21.8,6.77,3.82,14.15,4.81,21.59,4.81,17.35,0,34.69-.41,52-.77,8.32-.18,16.67-.26,24.93-1.08,13.65-1.37,27.27-3.13,40.85-5A365.26,365.26,0,0,0,1178,1496c26.31-8.46,51.37-19.53,74.18-35.32,17-11.74,31.8-25.54,42.26-43.56,8.87-15.3,12.91-31.65,10.6-49.39-1.92-14.72-8.09-27.6-16.61-39.51a112.92,112.92,0,0,0-13-15.08c-1.73,5.32-3.37,9.93-4.65,14.64-.28,1,.52,2.53,1.15,3.61,2.15,3.66,4.67,7.12,6.64,10.87,7.21,13.73,10.41,28.29,8.41,43.82-2.47,19.15-11.76,34.88-24.67,48.73-16.24,17.43-35.9,30.08-57.27,40.14-43.42,20.45-89.65,29.91-137.14,33.34-22.19,1.6-44.53,1-66.81,1.23a41,41,0,0,1-20.51-5,25.16,25.16,0,0,1-11.7-14c-2.75-7.44-2.67-15.14-1.65-22.68C969.36,1452,968.93,1436.24,967.9,1420.31Zm277.66-860.54-.8-.16c-1,2.64-2,5.32-3.18,7.93a20.59,20.59,0,0,1-2.32,4.5c-10.32,13.58-21.24,26.56-36.27,35.32-6.58,3.84-12.94,8.1-19.7,11.62-6.3,3.28-13,5.85-19.52,8.67-13.91,6-28.51,10-43.19,13.22-16,3.5-32.15,6.92-48.68,7.55-10.68.41-21.33,1.8-32,1.87-18.67.12-37.37-.1-55.88-3.16-10.52-1.74-21.15-3-31.55-5.27-11.56-2.55-23-5.65-34.32-9.22A189.28,189.28,0,0,1,890.67,622c-14.87-7.41-29.59-15.28-41.78-26.94-.49-.47-1.08-.83-1.58-1.3-9.56-9-18.06-18.85-22.86-31.37a14.22,14.22,0,0,0-1.73-2.2,27.66,27.66,0,0,0,.58,4.11c3.46,10.1,7.22,19.82,14,28.55a120.84,120.84,0,0,0,29.35,26.51c12.55,8.27,25.84,15.61,40.34,20.32,8.05,2.61,15.86,6,24,8.17,15.71,4.1,31.42,8.36,47.7,9.91,10.29,1,20.53,2.87,30.83,3.19,22.41.7,44.87,1.2,67.18-1.74,14.43-1.89,29-3.49,43.12-6.88,18.41-4.41,36.79-9.41,53.85-18.1,1.66-.85,3.41-1.51,5.1-2.32,15.21-7.3,29.67-15.79,41.48-28.07A199.92,199.92,0,0,0,1235,586.92c5.65-7.39,7.81-16.43,10.55-25.15A7,7,0,0,0,1245.56,559.77ZM853.8,671.53l-.55.55c2,2.46,3.65,5.2,5.91,7.34,14.22,13.48,30.72,23.59,48.6,31.24a284.07,284.07,0,0,0,68.29,19.2c17.65,2.75,35.39,3.83,53.17,4.63,12.76.57,25.42-1,38.13-1.68,16-.85,31.65-3.82,47.15-7.32a238.32,238.32,0,0,0,54.6-19c14.78-7.4,28.89-15.81,40.08-28.32.8-.9,1.52-1.86,2.28-2.78a4.33,4.33,0,0,0-2.56,1c-8.41,5.45-16.38,11.81-25.33,16.14-14,6.78-28.07,13.64-43.37,17.35-8.06,1.95-15.88,5.09-24,6.54-14.66,2.61-29.22,6-44.19,6.8-10.84.55-21.69,2.05-32.52,1.88-16.11-.26-32.28.13-48.31-2.36-9.88-1.54-19.84-2.52-29.68-4.24-7.16-1.26-14.18-3.32-21.26-5.05a232,232,0,0,1-51.85-19.14c-11.62-6-23.08-12.3-32.7-21.39A16.82,16.82,0,0,0,853.8,671.53ZM880.86,588l-.61,1c3.23,2.46,6.3,5.17,9.71,7.34,16.12,10.31,33.61,17.73,51.82,23.29a276.33,276.33,0,0,0,63.36,11.6c15.53,1,31.15,2.33,46.83.59,11.1-1.23,22.35-1.15,33.39-3.28,8.48-1.65,17.11-2.66,25.46-4.77,17.78-4.49,35.27-10,51.55-18.6,8.16-4.31,15.88-9.46,23.8-14.23l-.53-1c-1.22.42-2.47.78-3.65,1.28-9.66,4.13-19.08,9-29,12.27a372.58,372.58,0,0,1-48.13,12.65,393,393,0,0,1-59.13,6.25c-16.59.53-33.29-.45-49.85-1.87a360.24,360.24,0,0,1-41.17-6.18c-14.76-3-29.41-6.61-43.47-12.32C900.87,597.78,890.25,594.27,880.86,588Zm129.17,5L898.75,566c.16-4.37,8.18-21.57,14.15-30.61a59.13,59.13,0,0,1,6.17.83c7.42,1.74,14.8,3.64,22.21,5.43q40.76,9.8,81.52,19.55c1.81.44,3.8.66,3.81,3.24,0,.08.52.15,1.05.3l2.78-3.58c-20.4-4.93-40.26-9.79-60.15-14.51s-39.65-10-59.82-14.22l-20.34,41.08a16.76,16.76,0,0,0,2.58,2.38c3.68,2.06,7.38,4.12,11.17,6,13.53,6.69,27.18,13,42.24,15.67,8.49,1.48,16.63,4.51,25.45,4.6s17.6,1,26.39,1.65a28.85,28.85,0,0,0,12.07-1.49ZM1146.68,483.2,947.22,435.06l-10.37,23.11c8.61-3.89,16.5-7.38,24.32-11a10,10,0,0,1,7.31-.62c8,2.11,16.15,3.81,24.21,5.77q56,13.56,112,27.18c7.53,1.82,15,3.68,22.79,5.58.27,10.54.53,20.63.79,30.69l18.38,4.36ZM1127.13,464c7.29,1.82,13.83,3.49,20.39,5.05a7.19,7.19,0,0,0,2.48-.37c10.22-1.51,20.45-3.05,30.69-4.52a12.19,12.19,0,0,0,7.85-4.16c7.64-8.67,15.46-17.19,23.18-25.79,1.67-1.86,3.2-3.83,5-6-4.77-5.59-9.26-10.9-13.82-16.14a5.43,5.43,0,0,0-2.49-1.62c-3.82-1.06-7.69-1.95-11.91-3-.28,3.49-.71,6.35-.7,9.21a8.84,8.84,0,0,1-2.54,6.37c-9.86,10.79-19.73,21.59-29.32,32.62-2.42,2.77-4.92,3.3-8.1,2.64-3-.63-5.93-1.44-8.94-2a4.63,4.63,0,0,0-3.25.47C1133,458.75,1130.52,461.05,1127.13,464Zm-322.31,8.76c.29-5.4.67-9.79.71-14.19a5.63,5.63,0,0,1,2.72-5.07c4.35-3,8.64-6,12.9-9.12a6.92,6.92,0,0,1,6.24-1.16c3.77,1,7.65,1.63,11.34,2.83,3,1,5.54.46,8.29-.84,9.21-4.32,18.52-8.45,27.78-12.67,5.83-2.67,11.65-5.38,17.86-8.24,0-7.63.24-15.12-.09-22.57-.19-4.29,1.51-6.5,5.3-8a81.9,81.9,0,0,0,12.82-6.2c6-3.77,12.11-4.91,18.81-2.32.22.08.58-.16,1.09-.31-.47-1.27-.85-2.55-1.41-3.76-2.51-5.44-7.45-7.15-12.87-4.53-6.57,3.18-13.09,6.47-19.73,9.48a9.56,9.56,0,0,0-5.68,6.62c-1.59,5.54-3.65,10.95-5.36,16.47a7.43,7.43,0,0,1-4.39,5.09q-21.61,9.61-43.08,19.6a11.79,11.79,0,0,1-7.92.82c-2-.45-3.9-1.16-5.89-1.59-3.62-.79-7.47-2.5-10.87-1.87-3.2.59-5.94,3.7-8.88,5.71-1.54,1-3,2.19-4.62,3.18a5,5,0,0,0-2.59,4.61c.07,7-.07,13.95.13,20.91a6.16,6.16,0,0,0,2,3.74C800.76,470.52,802.5,471.28,804.82,472.71ZM932.09,361.5l-1,1.15c.81,1.38,1.6,2.77,2.46,4.13,1.35,2.15,3.05,4.14,4.05,6.44a6.66,6.66,0,0,0,5.18,4.24c6.94,1.57,13.82,3.37,20.74,5q65.22,15.76,130.45,31.42c4.74,1.12,7.65,3.23,8.29,8.21,9.81,2.43,19.48,4.9,29.2,7.15a4.83,4.83,0,0,0,3.58-1.13c1.34-1.12,2.27-2.73,4-5-32.55-8.24-64.34-15.46-96.57-23.58,2.86-3.81,1.36-6.5-.58-9.51-1.81-2.79-4.34-3.53-7.14-4.2q-42.27-10.14-84.54-20.28C944.22,364.17,938.15,362.87,932.09,361.5Zm16.19,63.24c-.48,2.57-.85,4.53-1.34,7.07l198.76,48.05v-8.2q-97.17-23.49-194.07-46.89A15.88,15.88,0,0,0,948.28,424.74Zm326.16,683.37a9.87,9.87,0,0,0,2.24,0c6.2-2.17,9.13-7.13,9.69-13.13.82-8.76,1.09-17.59,1.19-26.4.19-17-.31-34,.23-50.93.58-18.2-1.14-35.93-7.6-53-.59-1.57-1.35-3.08-2.44-5.55-2.64,8.28-5,15.35-7.07,22.51a10.66,10.66,0,0,0,.23,5.48q3.93,14.21,8.22,28.29a13.19,13.19,0,0,1,0,8.42c-2.77,8.37-5.45,16.77-7.87,25.25a14.67,14.67,0,0,0-.25,7.38c2.46,9.5,5.19,19,8.08,28.33a13.48,13.48,0,0,1-.15,8.89C1277.38,1098.2,1276.05,1102.92,1274.44,1108.11ZM1093.35,445,958.4,412.5c-2,2.17-3.81,4-5.49,5.88a31.24,31.24,0,0,0-2.11,3l148.69,36c-.76-2.48-2.18-3.94-3.18-5.65A69.56,69.56,0,0,1,1093.35,445Zm-70.27,119.41C987,555.8,951.44,547,915.17,538.51v13.33L1017,576.46Zm73-146.92L978.61,389.15l-5.56,6.53c10.39,2.53,20.08,4.86,29.76,7.27,19.52,4.87,39.27,8.75,57.94,16.81,8,3.46,15.12,7.27,20,14.61a7.36,7.36,0,0,0,3.34,3c3.18,1,6.52,1.57,9.94,2.33C1094.73,432.3,1095.38,425.27,1096.09,417.53Zm104.39,56.29c-3.75-2-7.44-3.73-10.93-5.82a10.72,10.72,0,0,0-7.8-1.28c-3.84.67-7.69,1.23-11.54,1.85l-20.38,3.31v7.71c13.87-.88,27-4.57,40.67-5.34a446.31,446.31,0,0,1-.06,50.29l-41,6.55c.13,2.81.24,5.08.38,8l50.68-7.8Zm-49.76,46.24c9.18-.5,29.87-4.13,33.32-5.77V477.81L1150.72,483ZM902.89,564l106.38,25.72c1.48-3.74,2.8-7.1,4.23-10.73-1.38-.38-3-.87-4.57-1.26q-35.8-8.67-71.6-17.33c-6.59-1.59-13.14-3.32-19.74-4.83-2.05-.48-4.24-1.43-6.22.54C909,558.44,906.43,560.68,902.89,564Zm34.57-136.42c-2.5-2.86-5-1.48-7.46-.33q-38.67,17.63-77.35,35.24c-2.23,1-4.39,2.18-6.88,3.42a8.15,8.15,0,0,0,1.72,1.08c16.15,3.88,32.35,7.56,48.44,11.66,5.76,1.47,9.25-1.85,14.23-4.41-12.26-3.79-24-5.39-35.23-9.92a13.39,13.39,0,0,1,4.36-3.26c17.41-8,34.76-16.18,52.35-23.81C936.53,435.08,937.8,432,937.46,427.53Zm-44,54.17c-18.21-5.3-36.73-8.93-55.68-14.37,1.59-2.11,2.51-3.46,3.56-4.7,3.06-3.64,6.2-7.21,9.22-10.89.65-.78.92-1.88,1.88-4-4,1-6.85,2.36-9.71,2.37-3.11,0-6.22-1.19-9.22-1.83-5.9,9.9-7.75,17.27-7.72,30.33,0,5.26.25,5.38,5.46,6.79A111.09,111.09,0,0,0,863,488.85,77.58,77.58,0,0,0,893.51,481.7ZM1204,527.05l1,.4c5.08-5.64,10-11.4,15.31-16.88a11.41,11.41,0,0,0,3.37-8.63c-.11-14.76,0-29.52,0-44.29,0-1.45-.2-2.9-.37-5.19-1.75,1.7-3,2.78-4.07,4-2.86,3.13-5.4,6.62-8.56,9.4-5.4,4.75-7.07,10.32-6.8,17.49C1204.34,497.87,1204,512.47,1204,527.05ZM1127.84,1438l.92.5c11.55-7.14,23.06-14.34,34.68-21.36,2.46-1.49,3.07-3.2,2.64-5.89-1.33-8.22-2.46-16.46-3.69-24.7-.77-5.16-1.58-10.32-2.38-15.48l-1-.17Q1143.45,1404.41,1127.84,1438Zm0-346.56.93.56c11.8-7.33,23.55-14.74,35.44-21.94,2.34-1.42,2.12-3.16,1.83-5.2-1.13-7.89-2.24-15.79-3.42-23.68-.82-5.52-1.75-11-2.63-16.52l-1-.22Q1143.46,1057.91,1127.85,1091.41Zm32.2,210.45-1-.26c-10.39,22.36-21,44.65-30.75,67.35,12.22-7,24-14.39,35.83-21.66,1.88-1.16,2.33-2.68,2-4.74-.8-5.19-1.49-10.4-2.27-15.6Q1162,1314.41,1160.05,1301.86Zm-.19-208.25c-3.55,4.91-30.63,63.59-31.33,67.76,11.13-6.87,21.94-13.91,33.13-20.3,4.27-2.44,4.94-5.24,4.2-9.53-1.54-9-2.75-18.14-4.14-27.21C1161.19,1100.89,1160.53,1097.46,1159.86,1093.61Zm.08,69.3c-11.25,22.28-21.73,44.66-31.63,67.4,12.2-7,24-14.39,35.8-21.62,2.19-1.34,2.27-3.08,2-5.22-1.2-8-2.32-16.1-3.52-24.14C1161.72,1173.85,1160.81,1168.38,1159.94,1162.91Zm-32.11,136.47.81.6c11.67-7.25,23.3-14.58,35-21.69,2.36-1.43,2.76-3.06,2.38-5.48-1.33-8.56-2.55-17.14-3.84-25.7-.74-4.95-1.51-9.89-2.27-14.83l-.87-.07ZM803.06,1358c-4.2-.56-8.15-.71-11.89-1.65-6.9-1.73-12.19-7.91-10.39-16.16a36.6,36.6,0,0,1,2.86-8.67c2.13-4.24,4.79-8.2,7.13-12.33.64-1.12,1.6-2.6,1.32-3.61-1.4-4.94-3.17-9.78-4.88-14.91-6.54,6.06-16.11,18.9-20.09,27a42.66,42.66,0,0,0-3.55,8.42c-3.11,12.68,0,19,13.61,22.23.33.08.68,0,1,.1C786.47,1360,794.71,1359.47,803.06,1358Zm278,30.79-1.39-.48q-17.42,30-34.81,60l.61.74,38-16.11C1082.65,1418.05,1081.84,1403.41,1081,1388.77Zm0-346.7-1.39-.31q-17.19,29.77-34.39,59.55l.8.81,37.46-15.77C1082.63,1071.38,1081.81,1056.73,1081,1042.07ZM816,428c5,1.2,8.94,2,12.82,3.16,3.36,1,5.68.1,8-2.55,8.26-9.45,16.73-18.7,25.11-28,3.59-4,7.15-8,11.16-12.49l-17.35-4.17Zm218,1021.13c-10.87-20.21-22.67-39.59-34.49-59l-1.1.35c-.6,14.38-1.2,28.76-1.81,43.43Zm11-70.28.69.75c11.65-5,23.27-10,35-14.81,2.45-1,2.73-2.66,2.61-4.81-.5-8.64-1-17.27-1.5-25.91-.19-3.08-.53-6.16-.82-9.43a20,20,0,0,0-9.43,9.06c-3.64,6.51-7.56,12.87-11.34,19.29Q1052.57,1365.92,1045,1378.85Zm176.81-38.29c-3.67,7.83-22.51,68.61-22.39,71.79a2.86,2.86,0,0,0,.93-.35c9.84-9.14,19.63-18.32,29.51-27.4,1.53-1.41,1.55-2.88,1.16-4.59ZM878.42,1071.15c-8.28-24.18-16-47.45-24.4-70.94-.69.83-1,1-1.07,1.29-2.74,12.25-5.44,24.5-8.2,36.74a5.27,5.27,0,0,0,2,5.76c9.78,8.4,19.43,17,29.14,25.46C876.36,1069.88,877,1070.17,878.42,1071.15Zm319.77,64.92c1.56-1.08,2.16-1.38,2.63-1.82,9.44-8.79,18.84-17.62,28.32-26.36a5.35,5.35,0,0,0,1.71-5.85c-2.87-11.87-5.53-23.79-8.28-35.68-.19-.83-.5-1.63-.75-2.44l-.77.09ZM1222,1272l-1,.11c-7.5,23.66-15,47.32-22.62,71.33a5.68,5.68,0,0,0,1.27-.24c10.1-9.31,20.24-18.58,30.23-28a5,5,0,0,0,1.17-4.07C1228.13,1298,1225,1285,1222,1272ZM1198.6,1204l.75.61c.52-.4,1.09-.75,1.57-1.19,9-8.28,17.82-16.68,26.92-24.8,3.09-2.76,4.06-5.52,2.54-9.35a33.44,33.44,0,0,1-1.19-4.93l-7.23-31.12-.82-.13Q1209.88,1168.57,1198.6,1204Zm23.39-1.33h-1c-7.5,23.65-15,47.3-22.59,71.21.84-.08,1,0,1.14-.12q15.15-13.93,30.3-27.87c1.47-1.34,1.53-2.9,1.12-4.64Q1226.5,1222,1222,1202.7Zm0-208.15-.88.12c-7.51,23.67-15,47.34-22.78,71.86a19.12,19.12,0,0,0,2.7-1.57c9.56-8.92,19.06-17.91,28.69-26.76,1.7-1.56,1.72-3.1,1.27-5Q1226.43,1013.86,1221.94,994.55Zm.67-66.09-1.37-.25c-3.76,4.9-4.34,11.13-6.33,16.76s-3.63,11.32-5.44,17c-1.86,5.82-3.85,11.61-5.55,17.48-1.64,5.66-4.07,11.12-4.64,17.14,10.5-9.16,20.56-18.54,30.64-27.88,1.47-1.36,1.49-2.93,1.09-4.67-1-4.13-1.91-8.27-2.89-12.41Q1225.39,940,1222.61,928.46Zm-95,94.18a8,8,0,0,0,1.73-.33c11.54-7.14,23-14.36,34.63-21.4,2.21-1.34,2.43-3,2.1-5.15-1-6.71-2-13.43-3-20.14-.35-2.24-.84-4.46-1.35-7.17-3.81,2.23-7.06,4-10.19,6a6.4,6.4,0,0,0-2.29,2.55C1142.08,992,1135,1007.07,1127.64,1022.64ZM1160,1440.47c-9.24,17.86-17.88,35.7-26.07,54.86,4.48-1,8-1.56,11.3-2.57,5.79-1.75,11.83-2.62,17.22-5.85,3.2-1.92,4-4,3.49-7.41-1.29-7.86-2.4-15.75-3.59-23.63Q1161.21,1448.18,1160,1440.47Zm-355.09-873,.84.7c3.5-3.88,6.94-7.82,10.54-11.61a10.51,10.51,0,0,0,2.91-7.28c.46-9.76-.92-19.72,2.73-29.19a2.83,2.83,0,0,0,.11-1c0-7.14,0-14.28-.1-21.41a3.86,3.86,0,0,0-1.44-2.93c-3.55-1.81-7.27-3.31-11.79-5.3,0,3.09,0,5.09,0,7.1-.18,16.14-.42,32.28-.54,48.42C808.12,552.57,807.79,560.16,804.92,567.42Zm266.88,820.41-64.16.86L1040,1413.3Zm-64.11,70.22,32.31,24.6,31.6-25.38ZM1152.06,433l32.42-36-10.73-12.53-32.29,35.92Zm49.7,1039.25c1.47-.39,2.09-.5,2.66-.72,9.9-3.77,17.84-10.31,25.27-17.62,1.6-1.57,1.59-3.14,1.12-5.09-1.8-7.59-3.49-15.22-5.24-22.82-1.13-4.9-2.3-9.79-3.44-14.68l-1-.07C1214.74,1431.36,1208.36,1451.46,1201.76,1472.26Zm-324-470.46c.22-1,.32-1.14.28-1.27-5.47-16.06-10.91-32.12-16.48-48.15a5.53,5.53,0,0,0-2.5-2.92c-2.7-1.35-5.58-2.31-8.73-3.56-.56,1.83-1.08,3.24-1.41,4.68-1.07,4.63-1.66,9.42-3.19,13.88-2,5.85-.88,10.14,4.53,13.23a4.74,4.74,0,0,1,.76.67Zm215.1,36-.09,1.11,35.1,18.16c8.24-10.49,16.12-20.54,24-30.6l-.65-.88A404.83,404.83,0,0,1,1092.81,1037.79Zm.14,69.37-.12,1.06,34.91,18.17,24-30.51-.56-.89C1132.06,1100.27,1112.71,1104.69,1093,1107.16Zm.72,208.13,0,1.29,34,17.72,25-31.71A400.34,400.34,0,0,1,1093.67,1315.29Zm58.68,57.15c-10.57,2.56-20.2,5.11-29.93,7.18s-19.26,3.58-28.89,5.34c0,.29,0,.58,0,.87l34.27,17.76Zm-71.26,86.36-1.13-.48c-9.28,15.56-18.62,31.07-27.89,47.81,11-1.89,21.36.75,31.33-4.2Q1082.25,1480.3,1081.09,1458.8Zm70.59-16.22a547.49,547.49,0,0,1-58,11.44l-.09,1.11,34.21,17.79Zm-125.16,62-26.93-45.19-1.22.34c-.58,14.46-1.16,28.92-1.72,43C1003.9,1506.74,1016.8,1507.48,1026.52,1504.55ZM962.84,452.63c1.27.44,2.37.91,3.51,1.19q39.74,9.56,79.47,19.1,35.29,8.49,70.58,17c4,1,4,.95,6-2.84-1.14-.35-2.26-.78-3.41-1.05q-46.41-11.22-92.82-22.41c-19.1-4.59-38.22-9.09-57.29-13.79C966.15,449.18,964.28,449.35,962.84,452.63Zm-23.12-29.15c2.76.6,5.15-.89,7.17-3.14,5.11-5.67,10.1-11.45,15.28-17a8,8,0,0,0,1.93-7c-.74-5.38-7.38-10.66-12.81-10.33-2.71.17-4.39,1.87-5.52,3.95-1,1.9.23,3.37,1.63,4.85,2.16,2.29,2,4.12-.51,5.94a12.94,12.94,0,0,1-4.64,1.57c-2.94.65-6.25.5-8.8,1.84a9.59,9.59,0,0,0-4.78,11.27C929.89,419.46,935,423.38,939.72,423.48Zm147,662.69,32.82,8.78L1085.34,1043l-1.08.37C1085.06,1057.49,1085.87,1071.6,1086.69,1086.17Zm-1.23,303.59-1.19.42c.81,14.14,1.62,28.27,2.43,42.51l32.81,8.79C1107.69,1423.53,1096.58,1406.64,1085.46,1389.76Zm32-18.12.51-1q-15.48-23.92-31-47.85a5.34,5.34,0,0,0-1.09-1,.69.69,0,0,0-.47-.11,7.69,7.69,0,0,0-1.07.46c.75,13.45,1.52,27.15,2.31,41.23Zm48.64-3.48c-.16.35-.32.71-.49,1.06l27.85,46.36c3-12.24,5.67-23.28,8.41-34.57Zm35.78-195c-12.24-4.34-23.92-8.91-37-13.06,9.8,16.29,18.9,31.44,28.63,47.64C1196.44,1195.54,1199.07,1184.71,1201.89,1173.12Zm-35.76-82.19-.69.86c9.14,15.21,18.27,30.42,28,46.66l8.43-34.66Zm-76.78,227.5-.83,1,32.56,49.48c2.28-9.81,3.63-19.34,5-28.86.36-2.42-.72-3.73-2.8-4.78-10.14-5.14-20.22-10.39-30.35-15.56A31,31,0,0,0,1089.35,1318.43Zm76.71-19.59-.6.85,28,46.61c3-12.15,5.65-23.09,8.46-34.56ZM841.63,427.61l.44.66c1.21-.43,2.46-.78,3.63-1.31,10.17-4.63,20.26-9.45,30.53-13.85,4.07-1.75,6.69-4.1,7.55-8.56a58.26,58.26,0,0,1,2.65-8.22c1.78-5.09,3.17-10.38,7.1-14.43.08-.09-.19-.52-.35-.93-4,1.86-7.91,3.9-12,5.52a18.66,18.66,0,0,0-7.33,5.22c-7.2,8.13-14.51,16.16-21.77,24.24Q846.84,421.77,841.63,427.61Zm360.28,606.91L1166,1021.58l-.59.77,28,46.69C1196.43,1056.88,1199.12,1045.92,1201.91,1034.52ZM1193.47,1277l8.42-34.53-35.72-12.84-.63.83Zm-104.7-236.68-.62.63q8.26,12.74,16.55,25.45c5.48,8.41,10.66,17,17.19,26.12,1.63-11.73,3.08-22.13,4.53-32.6Zm32.19,397.8,1.09-.22q2.19-15.75,4.36-31.49l-37.22-19.31-.71.88Zm5.43-308.55c-8.63-5.47-34.48-18.44-38.08-19.08,11,16.91,21.84,33.58,32.69,50.24l1-.22C1123.43,1150.17,1124.9,1139.89,1126.39,1129.52Zm39.57,307.9c7.48,13.86,15,27.38,23.63,40,4.51-.38,6.52-2.58,7-6.5a39.12,39.12,0,0,1,1.28-4.92c1.3-5.06,2.59-10.11,4-15.65ZM1080,438.6c-5.11-6.55-9.1-12.33-16.61-14.37a53.73,53.73,0,0,1-11.32-4.52c-6.17-3.31-11.72-3.6-16.76,1.88a4.5,4.5,0,0,1-.42.3,5.78,5.78,0,0,1-5.65,1c-9.51-2.45-19.1-4.61-28.65-6.9-7.25-1.74-14.48-3.55-21.74-5.25-2-.46-4.23-1.28-6.32,1.82Zm46.5,1037.13-37.09-19.29a7.39,7.39,0,0,0,1.3,4.25q11.05,16.82,22.18,33.59c3.14,4.74,3.18,4.72,8.92,3.54a7.28,7.28,0,0,0,1.45-.87C1124.23,1490.26,1125.33,1483.11,1126.45,1475.73ZM993.8,1433.65c0-5.07-.08-9.64,0-14.22.11-4.74.47-9.48.6-14.23.12-4.37.79-8.79-.57-13.22-7.2,10.33-13.83,20.76-20.42,31.21a4.9,4.9,0,0,0-.83,2.35c-.08,4.38,0,8.76,0,13.94Zm177.63-470.52,21.37,35.54,1-.26,8-32.84a18.17,18.17,0,0,0-1.82-1c-4.14-1.51-8.29-3-12.43-4.49-8.39-3-8.39-3-15.51,2.07C1171.89,962.24,1171.84,962.44,1171.43,963.13ZM901.24,1021l-41.88-18.84,15,33.78c8.1-3,15.67-5.87,23.21-8.76C901.5,1025.68,901.48,1025.63,901.24,1021Zm-26,17.92c2.67,11.17,5.24,22,7.86,33,.81-.54,1.19-.66,1.35-.91,5.71-9.23,11.44-18.45,17.06-27.74a7,7,0,0,0,1-3.84c-.21-3.29-.73-6.56-1.19-10.34Zm327.52-7.37,13.28-33.81-45.7,22.15ZM1171,1157.75l-.15,1,31.94,11.44c4.54-11.57,8.82-22.51,13.5-34.46-8.19,4.47-15.18,8.61-22.47,12.15C1186.41,1151.46,1178.66,1154.47,1171,1157.75Zm-.53-68.5,32.31,11.63c4.51-11.55,8.83-22.57,13.18-33.7Zm32.29,150.22,13.13-33.47-45.22,22Zm0,69.34c4.54-11.62,8.77-22.44,13.07-33.42l-45.09,21.9Zm0,69.31,13-33.28L1171,1366.63ZM849.71,995.47c-6.38.46-27,5.87-30.41,7.87,3.42,11.49,6.86,23,10.66,35.76Zm366.46,417.84c-8.35,4.58-15.33,8.75-22.61,12.3s-14.88,6.45-23.36,10.08l32.63,11.71C1207.29,1436,1211.53,1425.17,1216.17,1413.31Zm-130.58,45.81-1.33.45c.83,14,1.66,28,2.51,42.51,8.61,1.44,16.4-1.31,25.31-2.37ZM1243,1031.23l1.29-.19c3.21-11.33,7.12-22.47,10.1-34.4l-29.45-6.82Zm-367.69-61.6c2.65,11.43,5.15,22.24,7.93,34.22,1.64-2.49,2.67-4,3.6-5.48,3.52-5.79,7-11.6,10.52-17.4,5.24-8.65,5.2-9.06-2-16.1-.7-.69-1.53-1.26-2.39-2Zm379,96.3-29.32-6.8c2.41,5.53,4.37,10,6.32,14.52,2,4.66,3.93,9.38,6.1,14,2,4.29,3.17,9,6.66,13.43C1247.47,1089,1251.51,1077.87,1254.3,1065.93Zm-28.86,131.88c3.39,10.7,16.16,38.8,18.78,41.4,3.19-11.49,7.24-22.6,10.1-34.63Zm17.63-27.85,1.08-.13c3.42-11.37,7.27-22.61,10.14-34.58-9.92-2.22-19-4.83-29.22-6.49C1231.34,1143.11,1237.2,1156.54,1243.07,1170Zm-208.89-127.51a115.06,115.06,0,0,0-2.43,11.81c-.27,2.58-.38,5.58,2,7.58,2,1.73,4.23,3.2,6.39,4.81l32-25.67-.38-.74Zm208.92,266.22,1-.08c3.27-11.41,7.24-22.61,10.19-34.75-9.89-2-18.92-5-29.15-6.27C1231.4,1281.85,1237.25,1295.26,1243.1,1308.67Zm-206.69,135.88,1.53-.26c.15-8.28.17-16.56.49-24.83.11-2.75-1-4.31-3-5.85-9.78-7.31-19.45-14.75-29.19-22.12a15.91,15.91,0,0,0-2.79-1.13ZM1243,1377.64l1.37-.12c3.15-11.28,7.06-22.35,10-34.23-9.86-2.35-18.95-5.06-29.18-6.38Zm11.37-450.34c-7.55-1.73-14.46-3.18-21.29-5-2.09-.54-3.6-.35-5,1.18s-.37,3.15.29,4.66q7.1,16.27,14.19,32.54a20.83,20.83,0,0,0,1.39,2.1C1247.49,950.51,1251.47,939.3,1254.32,927.3Zm-.22,486c-5.65-2.82-24.63-6.83-28.07-6.08,2.66,8.75,14.68,34.72,17.92,38.33C1247.71,1434.65,1251.45,1424.08,1254.1,1413.27ZM899.44,428.85c-1.81.57-3.3.9-4.68,1.48Q885.87,434.11,877,438c-4.64,2.05-9.87,3.36-13.73,6.41-5.76,4.56-10.54,10.36-16.38,16.29,6.26-1.34,79.71-35,82.58-37.62-1.16-2.25-2.68-1.28-4.28-.55q-10.86,5-21.76,9.82a7.23,7.23,0,0,1-1.69.25Zm289.13,35.36c4.06,2.05,7.53,3.76,11,5.55a3.3,3.3,0,0,0,4.5-.87c6-6.7,12.06-13.33,18-20.09a4.66,4.66,0,0,0,1.08-3.64c-1.34-4.46-3-8.81-4.85-13.88C1208.08,442.55,1198.58,453.11,1188.57,464.21ZM1154,451.73l1,.24c7.6-8.41,14.84-17.18,22.92-25.09,5.77-5.64,7.93-11.84,6.87-19.52-.21-1.53.62-3.35-1.31-4.85-9.61,10.72-19.1,21.29-28.54,31.9a3.7,3.7,0,0,0-.92,2.24C1154,441.68,1154,446.71,1154,451.73ZM995,1460l-1.5-.46q-9.16,15.15-18.33,30.3a4.32,4.32,0,0,0,.69,5.62,92,92,0,0,0,7.72,6.46c2.92,2.26,6.07,2.85,9.66.39Zm79.12-68.64c-.19-.24-.38-.48-.58-.71a11.91,11.91,0,0,0-1.63.94c-9.3,7.4-18.56,14.85-27.89,22.21a6,6,0,0,0-2.41,5.22c0,7.13-.16,14.26-.25,21.39,0,1.44,0,2.87,0,4.3l1.06.27ZM1037,1505.5a23.13,23.13,0,0,0,1-4.2c.2-4.23.11-8.48.35-12.72.14-2.49-.85-4-2.8-5.49-9.65-7.2-19.21-14.53-28.83-21.78a16.1,16.1,0,0,0-2.23-1.24c8.13,14.61,16.83,28.55,25.42,42.57C1031.55,1505.27,1033.89,1505.45,1037,1505.5Zm37.41-461.08c-1.24.12-1.63,0-1.84.19-9.68,7.7-19.32,15.46-29,23.12a5,5,0,0,0-1.87,4.39c0,7.8-.14,15.6-.21,23.4a22.42,22.42,0,0,0,.24,2.3l.89.28C1053.09,1080.42,1063.57,1062.73,1074.43,1044.42Zm-246.86,55.93a9.31,9.31,0,0,0,1.25-2.06c1.19-5.36,4.68-8.78,9.3-11.37a6,6,0,0,0,2.29-2.49c3.09-6.37,6.06-12.79,9.52-20.16-10.91,2.4-20.87,4.72-30.81,7.76C822,1081.79,824.73,1090.85,827.57,1100.35Zm214.17,405.2c5.77.68,5.83.71,8.19-3.26q6.93-11.6,13.73-23.27c3.73-6.38,7.38-12.81,11.13-19.34-.54-.07-.76-.17-.84-.1-10.25,8.12-20.51,16.23-30.69,24.44a4.45,4.45,0,0,0-1.45,3C1041.68,1493.11,1041.74,1499.2,1041.74,1505.55ZM812.51,1102.68a33.84,33.84,0,0,0-1.42,3.23c-2.87,10.11-5.62,20.25-8.61,30.33a5.82,5.82,0,0,0,.93,5.64c3.88,5.36,7.63,10.81,11.44,16.22q4.21,6,8.45,12a61.13,61.13,0,0,0-2.85-13.32c-2.93-9.57-5.73-19.1-5.89-29.29C814.43,1119.58,813.3,1111.72,812.51,1102.68Zm.15,70.49L812,1173a16,16,0,0,0-.92,2.14c-2.85,10.12-5.57,20.28-8.56,30.35a5.82,5.82,0,0,0,.94,5.64c3.27,4.55,6.45,9.16,9.66,13.74l10.15,14.48a4.15,4.15,0,0,0,.24-3c-1.81-6.18-3.56-12.38-5.53-18.51a74.3,74.3,0,0,1-3.22-18.48C814.24,1190.61,813.38,1181.89,812.66,1173.17Zm.06,69.4-.85-.09c-.28.75-.62,1.49-.83,2.26-2.77,9.78-5.39,19.61-8.38,29.32a7.22,7.22,0,0,0,1.15,7c5.35,7.44,10.57,15,15.85,22.44,1.22,1.73,2.5,3.41,3.75,5.11a62.81,62.81,0,0,0-2.69-12.49c-2.39-8.29-5.38-16.41-5.87-25.18C814.32,1261.49,813.44,1252,812.72,1242.57Zm-.15-278c-.6.85-1,1.19-1.13,1.62-3.05,10.74-6,21.51-9.17,32.23a5,5,0,0,0,1,4.68c4.79,6.78,9.52,13.6,14.31,20.38,1.89,2.68,3.86,5.29,5.8,7.94a136.24,136.24,0,0,0-5-20.3,80.05,80.05,0,0,1-3.63-20.43C814.3,982.12,813.34,973.61,812.57,964.55Zm0,69.92-.91,0c-3,10.43-5.77,20.9-9,31.26a8.16,8.16,0,0,0,1.43,8c5.94,8.28,11.72,16.67,17.59,25a14,14,0,0,0,1.82,1.79,158.24,158.24,0,0,0-5.14-19.8,79.7,79.7,0,0,1-3.73-21C814.31,1051.29,813.34,1042.88,812.62,1034.47Zm23.06,241.06-16.53,4.29c3.64,12.11,6.71,23.7,11,36.11,3.54-8,6.67-14.74,9.48-21.62a9.93,9.93,0,0,0,.55-5.86C839,1284.24,837.33,1280.19,835.68,1275.53Zm249.73-163.09-.84.31c0,.76-.13,1.53-.09,2.29.31,5.76,1.17,11.55.83,17.27-.39,6.57,2.35,10.07,8,13,8,4.08,15.76,8.77,20.79,16.69,1,1.65,2.54,1.67,4.65,1.24C1107.47,1146,1096.44,1129.23,1085.41,1112.44ZM893.65,458c0,.31.09.62.14.93,4.92,1.23,9.81,2.55,14.75,3.67,3.91.89,7.88,1.53,11.82,2.28,2.33-3.32,4.86-6.52,6.94-10,2.88-4.79,6-9.53,7.5-15.75Zm297.58,613.41c-9.17-15-17.67-28.94-26.33-43.14-.5.81-.81,1.08-.78,1.3q2.6,18.09,5.25,36.18c.26,1.81,1.5,2.46,3.18,2.71C1178.36,1069.29,1184.16,1070.24,1191.23,1071.36Zm-1.33,277.05.48-1.2q-12.74-20.88-25.48-41.74l-1.08.43c2,12.95,3.9,25.91,5.89,39.17Zm-24.77-250.53-1,.22c.08,1.32.07,2.66.26,4q2,13.61,4,27.19c1.19,7.87,1.17,8.11,8.89,9.23,4.16.61,8.36,2.24,13.22,1Zm-.13,138.39-1,.18c.14,1.67.21,3.35.46,5,1.25,8.55,2.59,17.08,3.83,25.63s1.2,8.44,9.72,10.12c.16,0,.32.11.49.14l12.55,1.75Zm25.15-26.74c-2.59-6.64-23.27-39.88-26.1-42,.16,1.69.24,3.21.46,4.7,1.26,8.55,2.57,17.09,3.82,25.64s1.23,8.73,9.7,10.16C1181.94,1208.66,1185.9,1209,1190.15,1209.53ZM818.57,999.37l26.94-6.64c-10.68-8.4-20.63-16.34-28.67-26.41l-.88.59ZM1165,1375l-1.18.32c1.92,12.85,3.85,25.7,5.85,39l21.54,3.64C1182,1402.87,1173.54,1388.91,1165,1375ZM845.47,1062.1c-10.61-8.57-20.75-16.13-28.92-26.15.49,11,.53,21.81,2.51,32.79ZM904.1,428.7l22.38-10.14c-4.19-8,1-13.26,5.81-19-6.14-1.54-11.51-2.93-16.9-4.21-2.07-.49-3.27.4-3.27,2.63,0,2.89,0,5.78,0,8.66-.1,4.87-.25,9.74-.39,15.09l-7.58-.57ZM829,448.32c-2.42-2.32-4.24-2.23-6.17-.9-3.91,2.71-7.8,5.45-11.79,8a4.46,4.46,0,0,0-2.32,4.16c.08,4.42-.09,8.85.17,13.26a5.1,5.1,0,0,0,2,3.65c3.34,1.83,6.93,3.21,11.26,5.14A65.11,65.11,0,0,1,829,448.32Zm362.3,553.84c-8.07-13.17-15.53-25.33-22.94-37.4-3.76,1.17-3.22,3.61-2.87,6,1,6.7,2,13.39,3,20.08.41,2.62,1,5.22,1.54,7.8Zm-372-68.41c3.42,11.52,6.88,23.13,10.33,34.74l.93.06c4-8.85,7.9-17.7,11.93-26.71-4.74-2.78-9.12-5-13.15-7.8C825.92,931.73,822.86,931.35,819.23,933.75Zm-.65,412.18c7.08-1.79,13.29-3.29,19.46-5,2.73-.73,3.5-3.11,1.83-5.39a15.29,15.29,0,0,0-2.59-2.42c-6.85-5.81-13.89-11.41-19.32-18.7-.32-.44-1-.64-2-1.31C816.83,1324.26,817.67,1334.69,818.58,1345.93Zm214.24-243.68c1.31,7.56,4.67,14,10.36,18.79a195.43,195.43,0,0,0,18.43,13.52,446.77,446.77,0,0,0,44.2,25l3.35,1.67c.19-.28.37-.57.56-.86-3.17-2.49-6.17-5.24-9.54-7.41-12.24-7.91-24.82-15.32-36.87-23.5C1052,1121.8,1040.18,1114.49,1032.82,1102.25Zm95.3,92.93,24.52-31.08-31.86,8c1,2.55,2.16,4.83,2.68,7.25.87,4.12,1.37,8.32,1.9,12.5C1125.56,1193.4,1125.38,1195,1128.12,1195.18Zm126.65-201.56c.46-11.23,1.45-21.64.28-32.21-6.87,10.26-16.54,17.52-25.54,26.33Zm1.18,37.46-1.32-.49c-6.38,10.44-16.13,17.69-25,26.45,8.55,1.83,16.38,4.44,25.27,5.42C1255.28,1051.64,1255.62,1041.36,1256,1031.08Zm0,69.42-1.29-.5c-6.4,10.35-16.06,17.62-24.89,26.34,8.54,2,16.38,4.35,25.17,5.52C1255.29,1121,1255.62,1110.76,1256,1100.5Zm-1.16,170.38c.39-11,1.45-21.37.2-32-6.73,10.23-16.45,17.36-25,26.14Zm1.14-101.09-1.44-.53c-6,10.7-16.07,17.59-24.58,26.47,8.52,1.78,16.31,4.36,25,5.46C1255.29,1190.3,1255.61,1180.05,1255.93,1169.79Zm0,138.34-25.52,26.35,24.45,5.71C1255.26,1329.32,1255.6,1319,1256,1308.13Zm-25.46,95.72,23.86,5.46c1.61-8.7,1.84-27.93.7-30.84Zm19.29-103.2.75.56c.78-1.08,1.6-2.13,2.32-3.25,4.85-7.59,9.56-15.27,14.59-22.73a8.62,8.62,0,0,0,1.07-8.11c-2.59-8.44-5-16.95-7.43-25.42-.4-1.38-.9-2.73-1.35-4.1l-1.1.17c0,6.1.17,12.2,0,18.29-.31,9.31-.13,18.65-3.59,27.62C1252.89,1289.19,1251.51,1295,1249.79,1300.65Zm10.22,6.48-1.37,0c0,6.28.22,12.58-.06,18.85-.39,8.61.07,17.31-3.2,25.64-2,5-3.17,10.39-4.68,15.6-.3,1-.48,2.07-.71,3.11,6.62-9,12.59-18.25,18.39-27.61a6.1,6.1,0,0,0,.57-4.34C1266.08,1328,1263,1317.55,1260,1307.13ZM1250,1231.82l.65.29c5.65-8.84,11.24-17.72,17-26.48a8.27,8.27,0,0,0,1-7.65c-2.68-8.76-5.14-17.58-7.72-26.36-.33-1.12-.86-2.18-1.29-3.27a126.22,126.22,0,0,0-1,18.51c-.05,10.9-.86,21.67-5,32a101,101,0,0,0-2.94,9.73C1250.37,1229.62,1250.19,1230.73,1250,1231.82Zm-.13-208.37.55.48a5.81,5.81,0,0,0,1.09-1c5.41-8.43,10.76-16.91,16.22-25.31a7.94,7.94,0,0,0,1-7.2c-2.77-9.27-5.35-18.59-8-27.88a14.25,14.25,0,0,0-1.09-2.22c-.89,6.65-.72,13.11-.93,19.56-.29,9-.23,18-3.59,26.59C1252.86,1012,1251.52,1017.78,1249.82,1023.45Zm0,69.31.86.67c5.65-8.83,11.21-17.73,17-26.47a8.31,8.31,0,0,0,.93-7.66c-2.63-8.77-5.15-17.57-7.74-26.36-.33-1.1-.84-2.16-1.26-3.24-1,6.65-.8,13.1-1,19.54-.28,9-.31,17.94-3.58,26.57C1252.91,1081.33,1251.51,1087.1,1249.79,1092.76Zm0,69.66.65.28c.78-1.07,1.62-2.09,2.33-3.2,4.87-7.57,9.58-15.24,14.61-22.7a8.71,8.71,0,0,0,1.23-8.1c-2.62-8.6-5.06-17.26-7.59-25.89-.39-1.32-.9-2.61-1.36-3.92a68.23,68.23,0,0,0-.93,14.44c.26,13.7-1.3,27.08-6.27,40C1251.31,1156.24,1250.66,1159.37,1249.78,1162.42Zm-97.24,71.06L1124,1240.8c.51,7.39,1,14.63,1.56,21.87.14,1.66,1.7,2.18,3,1.13a15.31,15.31,0,0,0,2-2.31q6-7.58,12-15.17C1145.65,1242.34,1148.75,1238.34,1152.54,1233.48Zm97.23-277.92c1.35-1.74,2-2.48,2.56-3.31,5.13-8,10.16-16.08,15.41-24a7.83,7.83,0,0,0,.91-7.2c-2.12-7-4.06-14-6.1-21a32.29,32.29,0,0,0-1.24-3.07,4.69,4.69,0,0,0-2.18,3.31c-.29,3.21-.39,6.45-.48,9.67-.25,10-.57,20-4.38,29.55-1.56,3.92-2.51,8.1-3.7,12.17C1250.3,952.53,1250.19,953.47,1249.77,955.56Zm-63.58,524c-7.08-12.28-14.07-24-21.4-35.42l-1,.4q3,19.51,6,39C1176.24,1484.67,1180.75,1481.31,1186.19,1479.54Zm64.56-42.11c1.18-.79,1.69-1,1.92-1.31,5.2-7.94,10.33-15.91,15.57-23.82,1.28-2,1-3.86.46-5.84-1.45-5-3-10.07-4.44-15.11s-2.87-9.94-4.3-14.91a123.68,123.68,0,0,0-1.26,18.2c-.1,11.23-1.07,22.29-5.06,32.93C1252.53,1430.51,1251.85,1433.62,1250.75,1437.43ZM1103.4,1001.66l-16.5,8.5v6.73c10.37,2.65,20.38,5.85,31.77,8.21C1113.19,1016.68,1108.39,1009.33,1103.4,1001.66Zm-329.68-396,1.39.9c13.59-14.53,30-25.17,47.63-34.2-.9-2.7-1.68-4.73-2.24-6.83s-.94-4.37-1.54-7.28c-6.83,7.58-13.11,14.45-19.29,21.4-7.24,8.13-14.71,16-25.41,19.92C774.07,601.74,773.9,603.71,773.72,605.67Zm38.85,705.71-.78.07q-4.75,16.89-9.48,33.78a4.55,4.55,0,0,0-.07,2.45c1.62,5.12,5.3,7.2,10.51,6,1.27-.29,2.5-.74,3.3-1C814.87,1338.69,813.72,1325,812.57,1311.38ZM823.15,962l1-.54q-.82-2.89-1.64-5.79c-2.29-8.16-5.31-16.2-6.62-24.52-1.07-6.84-5.31-9.43-10.6-12.25-1,3.36-1.62,6.36-2.7,9.2a5.82,5.82,0,0,0,1,6.1c4.48,6.19,8.8,12.49,13.19,18.74C818.88,955.92,821,958.93,823.15,962Zm296.11-526.13-.59,1a57.11,57.11,0,0,1,5.58,5.17c3,3.61,3,7.91,1.35,12s-5.48,4.66-9.41,4.53c-5.68-.2-12-5.28-13.51-10.77-1.59-5.67.71-11.16,6.82-12.65a20.45,20.45,0,0,0,2.56-1.12l-14.21-3.31c0,5.84,0,11.1,0,16.35a5,5,0,0,0,.95,2.79c3.45,4.39,6.75,8.95,13.11,9.52a34.29,34.29,0,0,1,8.38,2c2.21.79,3.79.27,5.66-.87,3.33-2,5.39-4.48,4.74-8.64a25.14,25.14,0,0,1,0-4.07c0-9.07,0-9.07-8.58-11.24Zm-9.56,938.09,0-.82a9.26,9.26,0,0,0-1.73-.91c-6.37-1.75-12.7-3.69-19.15-5.07a13.57,13.57,0,0,0-7.37.7c-7.9,3.09-15.64,6.56-23.42,9.92a26.78,26.78,0,0,0-2.59,1.5c.11.28.21.56.32.85Zm-.21,69.4c0-.36.06-.71.1-1.07a10.24,10.24,0,0,0-1.74-.83c-5.89-1.56-11.84-2.93-17.68-4.67a13.48,13.48,0,0,0-9.83.74c-7.43,3.3-14.95,6.39-22.43,9.6a29,29,0,0,0-2.67,1.47c.1.3.19.6.29.91Zm-85.62,6c-.5-.71-.62-1.1-.86-1.2-8.48-3.47-16.92-7-25.47-10.27a10.44,10.44,0,0,0-5.94-.27c-5.75,1.43-11.41,3.21-17.08,5-.78.24-1.37,1.07-2.75,2.21A433.81,433.81,0,0,0,1023.87,1449.3Zm-190.1-176.44c-.93-2.45-2-4.25-2.28-6.16-1.13-7.24-5.09-12.74-10.1-17.72-1.61-1.6-3-3.42-4.47-5.13l-1,.55c1.25,10.64,1.22,21.41,3.08,32.18Zm273.09-273.08c2.05,5.32,12.12,20.08,15.17,22.23,1.35-10.6,3.4-21,4.13-32.78C1118.8,992.69,1112.86,996.36,1106.86,999.78Zm106.31-64.11-.79-.54-29.24,20,19.66,7.08C1206.35,953.15,1209.76,944.41,1213.17,935.67ZM830,1204.53c.2-4.79.53-9.17.46-13.55a6.66,6.66,0,0,0-1.8-3.89c-3.23-3.68-6.65-7.19-10-10.74a30.15,30.15,0,0,0-2.71-2.16c1.15,11.55,1.29,22.29,3.1,33.1Zm279.2-108.08c0-.38,0-.76,0-1.14-6.71-1.77-13.45-3.41-20.09-5.4a10,10,0,0,0-7.36.46c-7.3,3.21-14.65,6.3-22,9.46-1.15.5-2.23,1.12-3.35,1.68l.25.88Zm-.47-69.33-.16-1.26c-6.52-1.75-13.08-3.37-19.54-5.3a10,10,0,0,0-7.34.46c-7.28,3.2-14.61,6.3-21.9,9.47-1.1.47-2.14,1.06-3.2,1.6l.3.94Zm-43,309.52-.77-.77c-5,4-9.67,8.43-15,12-6.38,4.23-9.72,9.4-8.4,17.21.31,1.8-.12,3.71-.15,5.58s0,3.89,0,6c.81-.31,1.25-.33,1.37-.54Q1054.27,1356.37,1065.7,1336.64ZM809.13,1163.55,792.44,1166l9.19,29.25C805.78,1186,810.19,1167.91,809.13,1163.55Zm-16.73,71.73c3.13,9.88,6.12,19.29,9.1,28.7a276.71,276.71,0,0,0,8.31-26.52c.32-1.2,0-2.55,0-4.67Zm17.17-210.43-17.1,2.57c3.17,10,5.83,19.46,9.6,29.71,2.74-9.58,5.2-17.87,7.43-26.23C810,1029.1,809.57,1027.07,809.57,1024.85ZM792.39,958.1c3.19,10,6.17,19.35,9.14,28.69a258.19,258.19,0,0,0,8-25.57c.44-1.66.06-3.54.06-5.69Zm.05,138.56c3.11,9.9,6.07,19.34,9,28.78a275,275,0,0,0,8.34-26.86c.32-1.19,0-2.55,0-4.44ZM810.36,1302l-18,2.7c3.16,9.85,6.13,19.07,9.09,28.29C805,1323,808.76,1313.4,810.36,1302Zm6.75-196.55-1.05.23c.8,10.65,1.29,21.32,2.83,32.4l10.37-2.75c-.47-5.85-.85-11.24-1.39-16.62a5.24,5.24,0,0,0-1.31-2.68C823.46,1112.44,820.27,1109,817.11,1105.43Zm307.33-582.95c5.89,1.42,11.57,3.09,17.36,4.08a49.37,49.37,0,0,0,12.61.58c6.4-.57,12.74-1.82,19.09-2.86,4.27-.69,8.52-1.51,12.89-2.3-1.67-3.62-1.74-3.76-4.9-3.28-9.55,1.43-19.07,3-28.63,4.39a21.64,21.64,0,0,1-7-.15c-5.32-1-10.63-2.18-15.85-3.64C1127.06,518.47,1125.52,519.3,1124.44,522.48Zm25.57-67c0-5.43-.35-9.84.09-14.18.62-6.26-2.95-9.87-6.72-13.16-7.16,7.07-6,15.6-5.28,24.34Zm1.17,786.18-.76-.48c-3.15,4-6.32,7.95-9.44,11.95-3.66,4.68-8.37,8.93-10.62,14.23-2.31,5.45-2.21,11.92-3.14,18-.34,2.19-.6,4.38-.9,6.57l1,.21Zm.15-69.66-.7-.44c-6.67,8.5-13.38,17-20,25.54a9.76,9.76,0,0,0-1.43,4.24c-1,6.2-1.86,12.41-2.74,18.63a18.35,18.35,0,0,0,0,2.57l.86.13Q1139.35,1197.3,1151.33,1172Zm-.07-69.13-.77-.47c-6.59,8.41-13.23,16.79-19.72,25.28a9.61,9.61,0,0,0-1.45,4.2c-1,6.2-1.91,12.42-2.81,18.64a18.92,18.92,0,0,0,0,2.61l.89.16Zm-.39,208.69-.91-.51c-6.39,8.1-12.83,16.17-19.13,24.35a9.67,9.67,0,0,0-1.5,4.23c-1,6-1.8,12.07-2.68,18.11a19.49,19.49,0,0,0-.22,2,13.17,13.17,0,0,0,.13,1.52l.75,0Q1139.09,1336.42,1150.87,1311.53Zm0,69.4-.77-.44c-.65.7-1.35,1.36-1.94,2.11-5.05,6.4-10,12.91-15.17,19.18a17.61,17.61,0,0,0-4.12,9.6c-.73,6.33-1.72,12.62-2.6,18.93l1,.32Zm-24.62-297.28,1.22.14q11.86-25.08,23.75-50.16c-7.29,7.83-13.78,16.06-20.23,24.33a6.23,6.23,0,0,0-1.39,2.65C1128.4,1068.28,1127.33,1076,1126.23,1083.65Zm2,412.38c8.13-15,15.41-30.28,22-45.94-5.77,6.54-11,13.44-16.52,20.06-3,3.53-4.84,7.28-5,11.86S1126.77,1491.18,1128.2,1496ZM903.24,1003c1.71-8.43,2.67-16.3.31-24.72-5.25,6.46-15.27,23.27-16.22,27.35Zm53.32,652.25c9.05,4.42,60.9,10.08,72.8,7.86v-2.58ZM1254.8,924.32V902.05l-21.19,17.28ZM1140,1435.15a288.5,288.5,0,0,0,45-15c-4.63-.86-8.28-1.57-11.94-2.21a10.33,10.33,0,0,0-8.18,1.67c-3.88,2.71-8.05,5-12.08,7.53C1148.56,1429.77,1144.31,1432.47,1140,1435.15Zm43.87-152.73-.06-1.21c-4-.7-7.91-1.62-11.91-2a10,10,0,0,0-5.77,1.08c-8.58,5.14-17,10.54-25.46,15.89-.12.07,0,.45-.1,1.38Zm.86,68.31c-4.67-.85-8.58-1.6-12.51-2.26a8.94,8.94,0,0,0-6.72,1.4c-7.4,4.78-15,9.31-22.44,14a28.92,28.92,0,0,0-2.63,2.08C1155.37,1361.72,1170.09,1357.47,1184.77,1350.73Zm83.17-27.38h1l7.81-25.26c-4.81-.61-8.94-1.31-13.09-1.6-2.13-.14-3,1.34-2.28,4C1263.42,1308.16,1265.72,1315.74,1267.94,1323.35Zm.63-276.32c2.86-9.16,5.42-17.35,8.15-26.07l-14.81-2C1261,1023.67,1263.24,1033.1,1268.57,1047Zm-.83,137.57,1.19.06c2.52-8.18,5-16.36,7.76-25.17l-15.73-2C1261.94,1167.55,1265.89,1175.82,1267.74,1184.6Zm.26,69.62.86-.1c2.54-8.18,5.07-16.36,7.83-25.25l-15.06-2c-.18,1.88-.64,3.11-.35,4.13C1263.44,1238.76,1265.74,1246.48,1268,1254.22Zm.88-277.42c2.56-8.27,5.13-16.55,7.81-25.19-5.54-.55-10.24-2.22-15.76-.86C1262.31,959.86,1265.69,968.21,1268.88,976.8ZM1262,1088.25c-1,4.21,3,20.13,6.44,26.92,2.8-5.78,7.33-21.22,7.24-25Zm-77.42,123.92c-3-.64-4.85-1.06-6.67-1.39-9.07-1.62-9.08-1.62-17,3.33q-10.29,6.44-20.56,12.9A262.54,262.54,0,0,0,1184.61,1212.17Zm-.81-69.52c-2.06-.39-3.81-.7-5.54-1.05-9.11-1.83-9.12-1.86-17,3-6.89,4.27-13.75,8.61-21.41,13.42C1150.75,1156,1177.21,1146.67,1183.8,1142.65Zm-40.5,297.83c-55.92,14.27-112.4,16.63-169.42,10A412.62,412.62,0,0,0,1143.3,1440.48Zm125.61-48.68,7.54-23.44a28.34,28.34,0,0,0-14.53-2C1261,1370.22,1263,1378.42,1268.91,1391.8Zm-278.46,66.74-.73-.79-10.47,5.75c-9.61,5.3-9.64,5.3-9,16.35.12,2.05.49,4.08.75,6.13l1.24.22ZM887,1073.65l.66,1.14c3.78-.65,7.61-1.13,11.32-2.07a5.78,5.78,0,0,0,3.12-2.82c2.45-4.69,1.73-9.88,1.9-14.9a59.31,59.31,0,0,0-.49-6.63l-1.07-.08ZM1140.86,1088a237.83,237.83,0,0,0,43.54-14.59c-5.48-1-9.87-1.87-14.3-2.49a5.64,5.64,0,0,0-3.31,1C1158.12,1077.26,1149.5,1082.65,1140.86,1088Zm135.54,293.21c-1.28,4.08-1.94,7.06-3.14,9.8-2.42,5.52-3.16,11-.6,16.62,1.08,2.37.09,4.2-1.13,6.13-2.6,4.1-5.1,8.26-7.64,12.39,8.19-8,13.44-17.67,16.75-28.45a3.43,3.43,0,0,0,0-2.46c-2-3-2.11-6.3-2.24-9.7C1278.4,1384.51,1277.5,1383.49,1276.4,1381.24ZM1183,1003.87c-4.4-.77-8.8-1.6-13.22-2.28a3.93,3.93,0,0,0-2.34.72q-13.17,8.07-26.28,16.23A180.66,180.66,0,0,0,1183,1003.87ZM829.34,1175.5l1.17-.22a321.16,321.16,0,0,0-1-36.71L819,1141.12C822.62,1153.08,826,1164.29,829.34,1175.5Zm314.48-195.41-1-.63a45,45,0,0,1-3.94,2.22c-6.34,2.82-9.52,7.78-10.22,14.56-.29,2.86-.84,5.69-1.2,8.55-.47,3.73-.86,7.46-1.28,11.2l.92.22Zm-248.11,98.68c-12,1-24,2.12-36.14,3-4,.31-7.66,1.11-11.11,3.82C861.49,1089.34,889.4,1085,895.71,1078.77Zm109.06,305.37c48.31,4.7,109.39-3.32,138.62-13.33C1097.92,1382.8,1051.64,1386.15,1004.77,1384.14Zm77.79-372c-11,4.87-21.8,9.6-32.55,14.5-2.28,1-4.12,2.8-4.26,5.67.48.07.85.25,1.1.15,11.24-4.72,22.44-9.5,33.69-14.16C1083.4,1017.13,1083.76,1015.31,1082.56,1012.16ZM827.41,1238.39l.88-.11c.66-10,1.33-20,2-30.35-4.17.78-7.84,1-11,3.26C822,1220.41,824.72,1229.4,827.41,1238.39ZM1081,1112.51l-1.16-.5c-3.3,5.91-7,11.57-10,17.78,4.19,3,7.64,5.87,12.38,7.91,0-2.09.06-3.58,0-5.06C1081.76,1125.93,1081.35,1119.22,1081,1112.51Zm-43.49-15.1c.28-8.3.61-15.83.77-23.37.11-5.26-.45-5.87-5.73-7.73C1029.82,1076,1032,1091.4,1037.47,1097.41ZM895.9,420.17c3.58-3.07,6.68-5.68,7.43-9.23,1.06-5.06.91-10.37,1.35-16.53l-8.78,3.86Zm-96.37,513.2-1.26.24c-1.87,6.92-3.73,13.83-5.75,21.33l14.71-2.14C804.55,946.05,802,939.71,799.53,933.37Zm246.72,178.15c-.11.34-.21.69-.31,1l11.75,9.23L1072,1110.4l-.35-.84Zm-246.63-39.36-1.31,0c-1.84,6.8-3.68,13.6-5.75,21.23l14.55-1.86C804.45,1084.64,802,1078.4,799.62,1072.16Zm-.14,69.17-1.18.15-5.76,21.28,14.56-2C804.38,1153.86,801.93,1147.59,799.48,1141.33Zm-6.92-117.43,14.64-1.65c-2.68-6.84-5.18-13.19-7.68-19.54l-1.12,0Zm7,186.71-1.28.31-5.69,20.8a56.31,56.31,0,0,0,14.3-1.89Zm-7,90.68c5.29-.52,9.87-.73,14.28-2.27-2.57-6.7-4.93-12.86-7.28-19l-1.22.1C796.46,1286.87,794.61,1293.64,792.53,1301.29Zm480.7,40.46c.35,1.42.62,2.86,1.07,4.25,1.74,5.49,3.44,11,5.35,16.43a9.44,9.44,0,0,1,.07,7.39c-2.48,5.5.55,9.51,4,14.7C1285.09,1368.28,1282,1354.35,1273.23,1341.75Zm-383.56-381c-5-4-15.46-7.58-21.26-7.51,2,4.5,4,8.87,6,13.41Zm-42,50.31-1.08-.45c-4.29,10.06-9.65,19.65-13.76,30.59l8.31-.5C843.42,1030.42,845.56,1020.72,847.7,1011ZM971.12,347c-8.39-1.38-15.28-4.67-23.08-4.7v7.31a37.52,37.52,0,0,1,6.1,1.24C960.21,353.22,965.26,351.13,971.12,347Zm-47,7.2,1.09.42c6.59-4.64,13-9.48,19.82-13.81a28.67,28.67,0,0,0,8.52-8.4c-3.86,1.56-7.43,3.84-11.32,5.13-7.36,2.43-11.94,8-16.69,13.49A12.35,12.35,0,0,0,924.12,354.24Zm-91.37,617h8c3.3-9.47,6-23.77,5-27.78Zm83.67-503.49c-8.93-2.14-17.45-4.22-26-6.19a8.28,8.28,0,0,0-8.08,2.23c9.8,2.46,19.3,4.81,28.78,7.24C913.61,471.7,914.94,470.47,916.42,467.78Zm63.65-66.23-.1.94a25.27,25.27,0,0,0,3.24,1.27q22.44,5.5,44.89,10.91c1.68.41,3.4,1.06,5.78-.12a11,11,0,0,0-2.12-1.26q-24.91-6-49.85-12A5.51,5.51,0,0,0,980.07,401.55Zm-64.23-38.83c-4.54,3.52-14.07,14.43-15.85,18.51,7.46-4.19,15.15-6.41,21.4-12.2Zm352,544.59,1.06.05q3.78-12.2,7.55-24.4l-.94-.56c-3.46,3.39-7,6.72-10.35,10.2a3.34,3.34,0,0,0-.78,2.68C1265.45,899.32,1266.71,903.3,1267.88,907.31Zm-229.56,131c34.46-.24,68.62-3.87,102-13.48C1106.87,1033.25,1072.8,1036.84,1038.32,1038.28Zm3.66,69.49c33.9-.45,66.41-4.51,98.27-13.32a7.52,7.52,0,0,0-3,0c-9.93,2.09-19.8,4.46-29.78,6.26a296.15,296.15,0,0,1-39.28,4.84q-10.15.45-20.29,1.13A56,56,0,0,0,1042,1107.77ZM1270.85,1208l-1.5-.08c-1.85,5.24-3.7,10.47-5.71,16.18l12.82,1.36C1274.43,1219.16,1272.64,1213.6,1270.85,1208Zm5.69-51.72-6.15-18.8c-3.83,5.8-3.85,11.8-7.24,17.18Zm-5.72-156-1.56,0c-1.89,5.24-3.79,10.47-5.72,15.79,2.41.37,4.4.73,6.4,1s4,.31,6.62.52Zm5.7,294.67c-2-6.33-3.88-12-6-18.68-4,5.68-4,11.64-7.24,17.06Zm.07-207.87c-2.2-6.64-3.67-12.28-7.25-17.61-1.86,5.13-3.73,10.26-5.77,15.89Zm-5.73-156.15-1.45-.11-6,16c4.4-.11,8.38,2.12,12.88.65C1274.38,941.78,1272.62,936.35,1270.86,930.93Zm-7.1,431.66,12.61,1.68a135.13,135.13,0,0,0-5.77-17.61l-1.29,0C1267.57,1351.65,1265.83,1356.66,1263.76,1362.59Zm-22.29-257.83-12.3-27.7a3,3,0,0,0-.52,2.46q2.34,10.11,4.76,20.2C1234.73,1105.27,1234.94,1105.39,1241.47,1104.76Zm.09,69.46-12.42-27.86a4.32,4.32,0,0,0-.32,3.21c1.5,6.42,3.06,12.82,4.55,19.24C1234.67,1174.41,1234.8,1174.53,1241.56,1174.22Zm.24,139.22c-4.43-9.92-8.51-19.08-12.59-28.24l-.94.36,6.24,26.74Zm-.35-347.28-12.21-27.42-.93.34c2.08,9,4.17,18,6.27,27.08ZM1099.39,424.57c-1.26,2.9.13,3.44,2,3.89,9.81,2.3,19.6,4.67,29.64,7.07.31-1.1.56-2,.88-3.08Zm130,583.64-1,.32q2.57,11.07,5.15,22.14c1.29,5.52,1.62,5.7,7.78,4.32Zm5.1,234.8,7.33,1.07-12.65-28.32-.89.31C1230.28,1224.91,1232.32,1233.75,1234.45,1243Zm6.88,138.7-12.09-27.15-1,.36c2.09,8.95,4.18,17.9,6.27,26.79Zm-455.5-34a25.23,25.23,0,0,1,6.31-14.77c3.42-3.6,2.61-6.69,1.76-10.67-.74.41-1.35.52-1.52.86-2.66,5.26-5.36,10.5-7.85,15.84A7.65,7.65,0,0,0,785.83,1347.68ZM961,384.82c2.92,3.74,5.62,7,6.55,11.57,1,5.2-2.11,8.4-5.32,12.09,1.35.34,2.13.56,2.92.73s1.8.34,2.94.54a78.34,78.34,0,0,0,.6-7.92c-.1-4.25.79-7.95,4.22-10.8.67-.56.94-1.61,1.56-2.75Zm280,1065.74-11.63-26.72-1,.37,6.45,27.07Zm-114.53-182.77c-1,1.08-1.39,1.29-1.44,1.56-1.34,7.35-3.16,14.52-7.23,21a4,4,0,0,0-.26,3.31,56.31,56.31,0,0,0,3.52,5.9l1.07-.26C1123.43,1289.08,1124.83,1278.92,1126.37,1267.79Zm-42.06,391.56.43,1c13.48-1.75,27.06-2.92,40.77-7.67a38.31,38.31,0,0,0-4.24,0q-7.3.91-14.58,2c-6.36.91-12.73,1.79-19.07,2.86C1086.45,1657.68,1085.41,1658.7,1084.31,1659.35ZM968.61,353.15c-7.87,2.41-14.54,7.54-23.1,7.73A57.69,57.69,0,0,0,956.23,364a4.73,4.73,0,0,0,3.57-1.25C962.86,359.66,965.69,356.36,968.61,353.15Zm-24.27-8.3c-3.93,2.74-7.12,5.12-10.47,7.25-2.22,1.41-2.88,3.11-2,5.59,4.63,2.85,6.86-1.8,10-3.37C945.65,352.45,944.21,348.93,944.34,344.85ZM901.58,543.21l-.8-.52c-2.44,2.72-4.87,5.45-7.33,8.15-4.19,4.6-5,8.34-2.93,15.18ZM841,1317.77v-16.15l-.74-.14-7.9,17.2ZM1030.86,420l.3-1.23-52.22-12.55-.27,1.11Zm-12.21,953.43c5.62,2.38,10.27,4.61,15.18,6.12l.54-.88c-2.34-3.79-4.67-7.57-7.21-11.67Zm18,2.3c1.26-5.82,2.24-11.31,1.16-17.55l-7.92,6.69ZM861.1,1061.84l.58-.74c-6.06-5.31-12.1-10.64-18.19-15.93-2-1.75-4.32-1.09-6.91-.07Zm-.2-69.34.59-.94c-5.46-4.79-11-9.49-16.36-14.4-2.47-2.28-5-3.16-9-1.81Zm124.42,464-.21-1-13.31-1.25c-.17,3.41-.31,6.12-.5,9.81ZM742,776.38l-1.1,0c-.08,4.33-.46,8.69-.17,13s-2.76,8.07-1.24,13.41C745.54,793.63,744.06,785,742,776.38Zm318.59,347.35,5.58,3.85c4.35-5.83,7.25-11.34,7.66-14.65Zm-222.5,220.73-18.28,4.6c.12,2.13.61,3,2.54,2.48,4.1-1,8.24-1.8,12.38-2.59C837,1348.52,837.41,1346.87,838.08,1344.46Zm158-1011,16.34,3.93C1008.27,330.65,1002.74,329.15,996.13,333.45Zm147.17,967.84c-7.21,1.68-14.39,3.47-21.62,5s-14.4,2.79-21.61,4.16C1114.9,1309.32,1129.18,1305.69,1143.3,1301.29Zm94.79-54.23a5.21,5.21,0,0,0-6.5,1.16c-3.06,2.92-6.17,5.77-9.23,8.7-1.23,1.17-2.37,2.45-3.55,3.68l.7.69Zm-.22,69.62-.48-1.14c-1.64.42-3.71.35-4.86,1.34-4.83,4.16-9.38,8.64-14,13l.7.86Zm-265.19,99.78,11.78-18.09C978.77,1402.79,972.6,1406.86,972.68,1416.46Zm246.1-225.55c7-3.27,12.84-8,19.06-13.27-3.89-.51-4-.61-6,1.25C1227.4,1182.84,1223.11,1186.9,1218.78,1190.91ZM1004.54,325.5c7.65,1.71,12.22,5.88,14.8,13.14C1020.47,329.42,1013.7,323.33,1004.54,325.5ZM1237.28,1109c-.17-.44-.33-.88-.5-1.33-1.18.21-2.71,0-3.49.7-5,4.36-9.81,8.9-14.69,13.38l.82,1Zm-19.3-56,.66.93,18.9-14.44c-2.62-.81-4.21-.71-5.75.74C1227.23,1044.55,1222.59,1048.77,1218,1053Zm19.6-83c-2.87-.8-4.6-.49-6.21,1.2-1.87,2-4,3.68-5.95,5.54-2.52,2.37-5,4.77-7.52,7.15.23.26.46.51.68.77Zm-18.17,428.27c4.78-1.49,15-9.2,18.47-13.53-2.15.53-4.12.45-5.21,1.38C1228.11,1390,1223.8,1394.23,1219.41,1398.31Zm-97-880c3.18-2.87,1.88-5.92,2.1-8.56a79.6,79.6,0,0,0,.06-9.14c-.09-2.65.42-5.42-1.34-7.91A216.24,216.24,0,0,0,1122.38,518.3ZM870.6,1077.64v-.94l-9.91-5-.76.83,2.87,6.16Zm-16.35-7.52-1.09.11c-.7,3.16-1.4,6.32-2.26,10.23l6.31-2.22C856.1,1075.2,855.18,1072.66,854.25,1070.12Zm157.94,309.25h12.13c-2.52-1.08-4.19-1.83-5.88-2.52C1015.18,1375.53,1015.18,1375.55,1012.19,1379.37ZM902.71,1006.13l-8.93,1.6c0,.28,0,.55,0,.82l8.29,2.66Zm207.78,294.34,8.67,2.11-4.85-7C1112.86,1297.43,1111.92,1298.64,1110.49,1300.47ZM943.61,385.9l6.95-3.61-9.35-1.91ZM905.55,556.29c3.33-2.11,7-4,4.92-9.66C908.64,550.21,907.1,553.25,905.55,556.29Zm17-167.49c3.62,1.15,6.83,2.29,10.91,2.2C929.59,387.87,925.9,387.13,922.5,388.8Zm-18.38,94.28c-6.52,2.52-7,2.9-6.85,5.68C902.5,487.25,903.82,486.24,904.12,483.08ZM919,391.8,919,393l15,3.44c.07-.32.13-.63.2-.94Zm3.23,78.44c-4.61,1.83-5.73,3-6.44,6.35C918.83,475.16,921.06,473.28,922.24,470.24Zm50.18-71c-.46,2.54-.91,4.71.73,7.83l3.12-7ZM1118,449.65l-6.9-6C1112,449.14,1112.56,449.62,1118,449.65Zm-180.39-6.39q-1.6,4.39-3.19,8.78C938.35,447.8,939.07,446,937.64,443.26ZM837.21,1321.45c-.1.34-.21.67-.31,1l4.24,2.73v-4.28Zm319.65-231.78-.22-.74-10.77,3.37a1.62,1.62,0,0,0,1.56.5C1150.58,1091.79,1153.72,1090.72,1156.86,1089.67Zm22.93-707.29c5.4-1.93,5.4-1.93,4.9-4.45C1183.26,379.24,1181.82,380.54,1179.79,382.38Zm-19.87,1053.34-.26-.8-10.47,3.38.24.75Zm-287.64-462,1-.33q-1.56-4.49-3.13-9l-.91.31ZM1159,1018.83l.27.84,9.7-3.24-.24-.74ZM801.58,1354.06c-1-1.89-1.67-3.14-2.33-4.39l-1.06.32c-.14,1.32-.27,2.65-.42,4.07Zm21.31.65.18.93,8.6-2-.21-.88ZM1146,1022.93c.1.27.19.54.28.82l7.1-2.43-.24-.73Zm10.8,344.38-.57-.71-7.4,2.36.24.79Zm.1-69.45-.22-.76-7.75,2.49.22.76Zm12-212.1-.24-.64-6.27,2.18.28.77Zm-.08,69.56-.24-.75-6.46,2.1.25.8ZM869.9,1033.7l-.81.31c.78,2,1.55,4,2.32,6l.92-.35Zm-24.29,48.49,1.27.45c.52-1.76,1-3.52,1.55-5.27l-.71-.22ZM707.7,1184.25l-.71-.8-3.36,3.81.36.36Zm454.39,111.25.21.65,3.81-1.23-.23-.7Zm0-69.4.18.61,3.9-1.18-.19-.63Zm21.32-77.59.25.54,2.79-1.26c-.09-.19-.17-.37-.25-.56Zm3,138.11-.55-.54-2.37,1.25.29.58Zm0-69.44-.5-.54-2.39,1.3c.11.19.21.38.31.57Zm-61.46-11.45h-.33V1209h.33Zm53.26,222.51.54.57,2.36-1.31c-.1-.19-.21-.38-.31-.58ZM884.05,1009.53l-.49.56,2.78,1.15.2-.47Zm294.19,349.24.57.6,2.57-1.33-.27-.54Z"/><path class="cls-1" d="M755.68,1028.88c-2.53-2.17-2.17-4.81-2.19-7.31-.18-25-.44-50-.46-75,0-19.72.32-39.44.45-59.17,0-3.3.39-6.5,2.47-9.16.64-.83,2.07-1.84,2.79-1.61a4.48,4.48,0,0,1,2.58,2.62,20.08,20.08,0,0,1,.49,5.55q.13,44.38.21,88.77,0,20.91-.26,41.83A51.05,51.05,0,0,1,761,1023,6.89,6.89,0,0,1,755.68,1028.88Zm1.58-6.52c1.06-4.17,1.23-133.46.18-138.86C756.24,888.35,756.08,1017.22,757.26,1022.36Z"/><path class="cls-1" d="M740.53,969.55q0-33.42,0-66.85a19.76,19.76,0,0,1,.81-6.53,12.62,12.62,0,0,1,3.5-4.76c1.21-1.07,2.73-.44,3.17,1.17a17.19,17.19,0,0,1,.48,4.53q0,67.62,0,135.24c0,3.61-.26,7.2-3.42,9.72-2.17,1.72-3.84,1.15-4.32-1.6a26.84,26.84,0,0,1-.22-4.58Q740.53,1002.72,740.53,969.55Zm4.85-72.87c-2.1,4.45-2.71,120.48-1.45,140.89,2-2.21,1.43-4.66,1.43-6.92q0-65,0-129.93Z"/><path class="cls-1" d="M745.42,1067c.67,6,.89,11-1.6,15.82-2,3.78-1.61,8-.66,11.92a15.48,15.48,0,0,1-.54,9.91c-1.48,3.61-2.85,7.27-4.37,10.85a22.79,22.79,0,0,1-2,3.15l-1.12-.15a15.86,15.86,0,0,1-.81-3.52c0-11.54,0-23.08.21-34.62a8.58,8.58,0,0,1,2-4.94C739,1072.52,741.3,1069.36,745.42,1067Zm-7.19,15.63c3,0,3.06-2.29,3.78-4.3C737.45,1078.06,737.45,1078.06,738.23,1082.61Zm.73,3.81-1.05,0c-.43,2.1-.75,4.19,1.05,6.12Zm-1.2,20.19c1.64-2.82,1.64-2.82,0-4.64Zm2.08-7.74.77-1.12-3.33-1.93c.56,1.51.61,2.08.91,2.33A6.65,6.65,0,0,0,739.84,1098.87Z"/><path class="cls-1" d="M766.74,1043.54c2,5.66,1.83,36.34,0,40.92-.31.11-.65.36-.92.3-7.82-1.57-7.81-1.58-7.14-9.49.19-2.19.35-4.39.42-6.59,0-1.84.21-3.73-2.21-4.53-.54-.18-1-1.35-1.06-2.09-.32-4.44-.43-8.82,3.47-12.13,1.67-1.42,3-3.26,4.57-4.75A14.32,14.32,0,0,1,766.74,1043.54Zm-2.65,7.62-1.31-.39c-.78.89-1.59,1.75-2.32,2.67-2.28,2.85-2,5.12.64,7.75a5.44,5.44,0,0,1,1.64,3.39c0,3.54-.42,7.07-.67,10.61-.13,1.81-1.1,3.84,1.87,5.89C764.37,1070.55,764.21,1060.85,764.09,1051.16Z"/><path class="cls-1" d="M734.69,876.37a412.91,412.91,0,0,1,0-41.78l9.13,2.14c-.22,3.11-.41,5.76-.6,8.41s-.42,5-.54,7.54c0,.62.12,1.67.49,1.84,4.37,2,2.2,5.78,2.61,8.84s-1.56,4.71-3.34,6.5C740.38,872,738.87,874.74,734.69,876.37Zm3.18-17.73c-.55,2.41.09,3.5,2.09,3.63.77.05,1.55.13,2.65.21-.14-1.52-.23-2.6-.35-3.84Zm1-10.35-1.14.06c.06,2.08-1,4.32,1.14,6.5Zm-1.08,22.1,3.63-4.61h-3.63Zm.41-31.9-.56,1,2.41.93.39-.85Z"/></svg>