<svg id="Layer_1" data-name="Layer 1" xmlns="http://www.w3.org/2000/svg" viewBox="0 0 2000 2000"><defs><style>.cls-1{fill:#1d1d1b;stroke:#1d1d1b;stroke-miterlimit:10;stroke-width:2px;}</style></defs><path class="cls-1" d="M1280.09,445c3.47,3.38,6,6.38,9,8.62,3.88,2.85,5,6.3,5,11-.15,17.34.09,34.68.17,52,0,2.32,0,4.63,0,7.08a19.3,19.3,0,0,0,3.2.77c9.72.47,19.45.95,29.17,1.28a18.93,18.93,0,0,1,15,7.33c16.14,19.51,32.64,38.73,49.15,57.93a14.12,14.12,0,0,1,3.75,10c-.12,13.06,0,26.11.11,39.16,0,3.58-.25,6.54-4.37,7.72-2,.58-3,2.08-3,4.41.08,11.86,0,23.73,0,35.18,2.67,2.08,5.68,3.41,6.93,5.7s.52,5.33.58,8.05c.19,8.18.48,16.36.48,24.54q0,290.19,0,580.38,0,19.29.44,38.57c.11,4.54-.89,8.46-4.21,11.62-3.87,3.69-5.28,8.17-5.89,13.49-3,26.49-6.45,52.94-9.87,79.38-.39,3.06.28,5.22,2.7,7.11,4.31,3.34,8.35,7,12.77,10.22,3,2.17,4.07,4.67,4,8.35-.11,24.74,0,49.48,0,74.23,0,13.63-.12,27.27.07,40.91,0,3.67-.9,6-4.15,8.09-28,18.06-55.72,36.42-83.75,54.37-3.43,2.2-8,2.68-12.09,3.73a29.77,29.77,0,0,1-7.49,1.07c-5,0-8.18,3.27-11.68,5.94a5.24,5.24,0,0,0-1.68,3.45c-.23,3.27-.08,6.57-.08,9.86l7,3.75a25.53,25.53,0,0,1,.34,3c0,13.45-.06,26.89.09,40.33,0,3.21-1.2,4.68-4.07,6.09-10.89,5.34-22.63,5.46-34.24,5.93-18.88.75-37.77,1.24-56.67,1.37-65.84.48-131.68.94-197.53,1-31.55,0-63.11-.65-94.66-1.31-17.13-.35-34.24-1.33-51.36-2-7.18-.29-13.56-3.33-20-6-1-.43-2-2.42-2-3.7-.14-14.79-.09-29.57-.09-44.43l7-3.84c.14-1.3.36-2.64.41-4,.34-9-3.74-13.9-12.73-15.25-2.88-.43-5.77-.82-8.66-1.23a35.54,35.54,0,0,1-15.07-5.66q-39.43-26.12-79.26-51.64c-3.9-2.51-5.32-5.23-5.29-9.86.2-37,.27-74,0-111-.05-6.13,1.6-10.3,6.69-13.6,3.58-2.31,6.65-5.4,10.06-8a6.76,6.76,0,0,0,2.9-7Q722,1408,717,1366.51a12.73,12.73,0,0,0-3.9-8.24c-5-4.61-6.19-10.28-5.87-16.89.51-10.5.47-21,.47-31.55q0-284.35,0-568.69c0-15,.54-30,.6-45,0-3.2,1-5.22,4-6.21s3.5-3.1,3.47-5.92c-.11-10.13-.14-20.26,0-30.39,0-3.16-.88-5.23-4-6.22-2.89-.92-3.52-3.06-3.49-5.9.15-14,.23-28.06.12-42.08a11.27,11.27,0,0,1,3.23-7.82q7.44-8.64,14.77-17.36c3.08-3.68,3.24-6.36-.15-9.63-2.67-2.58-4-5.58-5.14-8.94-2.54-7.52-5.75-14.89-3.73-23-6.49-1.58-6.52-1.59-9.64,2.8q-31.3,44-62.62,88a13.69,13.69,0,0,0-2.7,8.67c.11,5.84-.07,11.69-.07,17.53q0,234.66,0,469.33c0,6.24.18,12.47.09,18.7a12.55,12.55,0,0,0,2.41,7.6q26.44,38.52,52.81,77.1a16.06,16.06,0,0,1-4,22.43c-3,2.16-5.91,4.48-9.06,6.42a14.08,14.08,0,0,1-5.35,1.72c-6.26.87-10.32-1.75-13.86-7.2-19.2-29.55-38.77-58.86-58.29-88.2a14.79,14.79,0,0,1-2.72-8.68c.07-6.82-.17-13.64-.17-20.46q0-246.93,0-493.87c0-7.21.21-14.42.21-21.63a11.09,11.09,0,0,1,2.36-7q41.37-55.47,82.55-111.11c2.56-3.45,5.33-5.24,9.71-5.09,7.19.25,14.4.07,22,.07a47,47,0,0,0,.55-4.92c0-19.09-.12-38.18,0-57.27,0-3.73-1-6.52-4.22-8.27-6.38-3.48-8.26-8.8-8.11-15.89.27-13-.14-26.1-.47-39.14-.08-3.23,1.4-4.84,3.91-6.44,5.88-3.77,12-6.29,19.16-5.3a30.13,30.13,0,0,0,5.06-.25c.15-2.36.38-4.43.41-6.5.14-9.94.33-19.87.28-29.81a10.34,10.34,0,0,1,3.5-8.19c4.69-4.4,9.22-9,13.64-13.64a9.21,9.21,0,0,1,7.21-3.09c4.09,0,8.18-.17,12.27-.17,81.83,0,163.66.15,245.48-.19,10.9-.05,20,2,28.16,9.54,3.7,3.44,7.43,6.15,6.7,12.16h116.89a33.2,33.2,0,0,0,.69-4.24c.18-5.07.47-10.14.29-15.19a9.21,9.21,0,0,1,3.93-8.47c4.33-3.3,8.51-6.82,12.58-10.45a10.51,10.51,0,0,1,7.42-2.82c1.75,0,3.5-.13,5.25-.13q64.29,0,128.59,0c3.44,0,6.88.37,10.74.6.14,2.57.35,4.47.35,6.37,0,31.75-.06,63.51.09,95.26,0,4.24-1.19,6.81-5.1,8.67-7,3.33-13.77,7.23-20.74,10.67a5.8,5.8,0,0,0-3.69,5.86c0,9.93-.33,19.86-.5,29.8,0,2.31,0,4.63,0,7.09-5.2,2.72-9.79,6-14.89,7.54C1291.75,444.57,1286.39,444.34,1280.09,445Zm-155,1010.37c-1.14-4.6-4.79-4.34-8.35-4.34H986.23c-.77,0-1.55,0-2.33,0-3.08-.07-5.26,1.11-6,4.31a26.23,26.23,0,0,0-2.82,2.86c-7.7,10.51-15.41,21-23,31.66-1.45,2-2.21,4.58-3.74,7.85-5,1.83-11.21-.4-17.35,0s-12.45.07-18.68.06l-18.69-.07c-6.23,0-12.47,0-18.69-.05s-12.46-.18-18.69-.36c-6.42-.18-12.83-.53-19.25-.67-6.23-.13-12.46,0-18.69-.14s-12.45-.46-18.67-.66-12.45-.57-18.67-.44c-6,.11-12-2-18.06,0a4.4,4.4,0,0,0,2.9,1.5c7.77.42,15.53.91,23.31,1.09q31.8.76,63.62,1.28c30.36.48,60.72.79,91.08,1.32,3.51.06,5.76-1,7.64-4,5.48-8.73,11.24-17.29,16.81-26,3.24-5.06,6.33-10.22,9.49-15.34,2-.53,4-1.53,6-1.53q67.65-.14,135.29,0c2,0,4,1,6,1.55a21.76,21.76,0,0,0,1.23,2.63c8.49,13,17.06,26,25.47,39.15,1.72,2.67,3.91,3.36,6.88,3.3,17.71-.32,35.43-.5,53.14-.8q41.46-.69,82.93-1.48c14.2-.29,28.4-.78,42.59-1.27,1,0,1.92-.77,2.88-1.18l-.36-1.28c-62.11,2.91-124.25,3.55-185.92,3.55-.85-2.78-1-5-2.11-6.57-8.12-11.42-16.43-22.71-24.71-34A14.54,14.54,0,0,0,1125.05,1455.36ZM1390.64,696c-7.46.7-13.82,1.58-20.2,1.84-22.17.93-44.35,1.77-66.53,2.39-19.66.56-39.33.89-59,1.14-36.42.48-72.85,1.19-109.27,1.16-66.42,0-132.84-.57-199.26-.89-27.85-.14-55.72,0-83.56-.51-38.35-.76-76.69-2.06-115-3.18-3.49-.1-7-.58-10.46-.79-4.77-.28-9.54-.48-14.53-.73-1.69,217.79-1,435.08-1.28,652.57,4.55.6,7.61,1.76,8.14,6.5,1.79,16,3.9,32,5.86,48.07,2.13,17.37,4.21,34.75,6.35,52.11.64,5.16,1.42,10.29,2.14,15.47,3.1.46,5.58,1,8.09,1.15,9.13.46,18.27.91,27.4,1.13q31.83.75,63.66,1.28,33,.58,66,1c9.69.13,19.39,0,29.06,0,.85-1.76,1.59-3.12,2.18-4.55q22.59-54.73,45.14-109.49c2.5-6.08,2.47-6.14,8.86-6.15h133.84c6.63,0,6.62.06,9,5.9q20.1,48.82,40.21,97.64c2.29,5.56,4.69,11.07,7.12,16.78,2.42,0,4.55,0,6.68,0,14.61-.33,29.21-.75,43.81-1,24.92-.44,49.84-.73,74.76-1.19q29.49-.54,59-1.36c3.4-.1,6.79-.79,10.31-1.22,1.4-11.5,2.69-22.31,4-33.11,2.15-17.37,4.36-34.73,6.52-52.09,1.27-10.23,2.49-20.46,3.73-30.7.4-3.23,1.66-5.56,5.42-5.6a9.5,9.5,0,0,0,2.55-1v-8.06q-.37-259.18-.75-518.37-.08-59,0-118.06ZM712.8,366.51c0,2.09,0,4.23,0,6.36.26,10.31.94,20.64.67,30.93-.15,5.77,1.61,9.75,6.44,12.59.67.39,1.2,1,1.87,1.39,2.9,1.63,3.71,4.12,3.7,7.34-.08,22,0,44-.07,66a48.3,48.3,0,0,1-.75,5.88l-26.15,1.36a5.34,5.34,0,0,0,0,1.8c3.64,8.38,7.33,16.73,11,25.1.93,2.12,2.62,2.56,4.75,2.53,5.65-.07,11.3,0,17,0h24.9a31.61,31.61,0,0,0,1.72-2.87c9.8-21.39,19.92-42.64,29.18-64.26,3.86-9,11.59-13.3,18.51-18.77.8-.64,2.21-.65,3.35-.7,8.56-.35,17.12-.89,25.69-.92,36.62-.13,73.24-.1,109.86-.15,2.27,0,4.54-.21,7.16-.34.13-2.46.32-4.37.33-6.27,0-7.21-.06-14.42.09-21.63.14-7,.54-14,.8-21,.08-2,.22-4.18,2.84-4.3a148,148,0,0,1,19.85.16c.64,6.34,1.22,12.07,1.79,17.75,8,.64,15.51,1.76,23,1.73,18.65-.07,37.29.21,56-.85,20.59-1.16,41.28-.32,61.93-.37,2.07,0,4.14-.18,6.29-.28.64-6.31,1.22-12,1.85-18.2,6.78,0,13,0,19.17,0a2.82,2.82,0,0,1,3,2.93c.13,1.55.19,3.11.2,4.66.08,13.06.12,26.11.2,39.16,0,2.08.18,4.16.3,6.9h8c42.47,0,84.93-.09,127.4.21a36.72,36.72,0,0,0,18.78-4.76c2.94-1.63,4.27-3.38,4.2-6.77-.18-8.77.13-17.54-.15-26.3a26.35,26.35,0,0,0-2.1-9.51c-8.54-19.6-17.31-39.11-26-58.65-2-4.6-4.17-9.17-6.4-14.08h-6q-154.29,0-308.57.09a26.35,26.35,0,0,0-9.57,1.84c-26.15,10.47-52.23,21.13-78.32,31.75-1.14.47-2.2,1.14-3.7,1.92a35.59,35.59,0,0,0,19.29-.18c4.62-1.49,9.79-2.33,14.14,0,3.06,1.64,5.85,2.83,9.23,2.61,2.93-.2,4.56,1.24,5.92,3.75,2.77,5.13,5.78,10.15,8.84,15.12,1.71,2.78,2,5.41.1,8.14s-2.46,6-2.55,9.39c-.07,2.89-.05,6.14-1.32,8.57-5,9.47-18.57,12.3-25.23,5.34-2.13-2.23-4.44-4.28-8-4.22-1,0-2.32-1.34-2.95-2.39-3.53-5.82-7-11.69-10.22-17.69-.71-1.32-1.07-3.66-.37-4.77a23.17,23.17,0,0,0,3.82-13.78c-.06-1.3,1.07-2.67,1.93-4.65-9.29-.37-18-1-26.74-1-40.91-.11-81.82.08-122.73-.18C723.12,359.92,718,362.46,712.8,366.51Zm1.69,228.75c2.87.56,5.26,1.33,7.69,1.46,15.73.86,31.46,1.74,47.2,2.31q23.05.86,46.13,1.13,60.16.78,120.36,1.31,15.48.16,31,.08,138.5-.54,277-1.15c18.69-.1,37.37-.68,56.06-1.08,19.07-.41,38.15-.81,57.21-1.34,8.16-.23,16.32-.73,24.47-1.25a69.16,69.16,0,0,0,7.71-1.47l-54-63.61c-13.3.89-25.89,1.94-38.51,2.53-13.41.63-26.85.93-40.28,1.21-22.79.47-45.57,1-68.36,1.16q-64.58.33-129.15.16c-70.32-.29-140.64-.84-211-1.28-1.56,0-3.12-.11-4.67-.18-23.33-1-46.66-2-70-3.22a9.94,9.94,0,0,0-9,4c-16,18.9-32.09,37.66-48.14,56.48A24.81,24.81,0,0,0,714.49,595.26ZM712.81,643c4.34.61,8,1.41,11.59,1.59,17.87.88,35.74,1.73,53.62,2.33,16.34.56,32.69.9,49,1.14,34.46.51,68.92,1.36,103.38,1.23,92.3-.34,184.61,1.29,276.91-.9,27.25-.65,54.5-.77,81.76-1.22q30.35-.51,60.7-1.28c9.72-.25,19.43-.73,29.14-1.29,3.63-.21,7.23-1,10.69-1.45,1.5-5.95,1.35-38.63-.27-43.6-3.73.42-7.55,1-11.39,1.23-17.69.87-35.37,1.77-53.07,2.37q-25.4.89-50.8,1.19c-42.64.5-85.28.84-127.92,1.25-2.73,0-5.46.06-8.18,0-84.52-.34-169-.5-253.54-1.12-39.71-.3-79.42-1.34-119.12-2.31-15.74-.39-31.46-1.52-47.19-2.28-1.67-.08-3.34,0-5.35,0ZM721,687.65a43.12,43.12,0,0,0,6.54,1.42c14.75.85,29.5,1.71,44.26,2.3q21,.84,42,1.14,55.2.78,110.41,1.31,15.76.16,31.55.08,143.73-.54,287.45-1.16c19.08-.09,38.15-.69,57.22-1.1,18.09-.4,36.19-.8,54.28-1.34,7.18-.21,14.36-.69,21.53-1.23a38.18,38.18,0,0,0,6.14-1.52c-.1-12.4.54-24.2-.39-36.15-1.72,0-2.87-.08-4,0-8.33.67-16.65,1.67-25,2-16.73.65-33.47,1-50.21,1.36-36.4.78-72.8,1.87-109.21,2.15-52,.4-104,.35-156,.19q-76.24-.23-152.48-1.11c-40.88-.5-81.76-1.45-122.63-2.44-12.82-.32-25.63-1.42-38.44-2.13a20.66,20.66,0,0,0-3,.29Zm-27.6-187.73c-1.46,1.87-2.68,3.35-3.82,4.88-25.24,33.88-50.38,67.84-75.8,101.59a25.69,25.69,0,0,0-5.46,16.54q.23,190.8.1,381.6,0,71,0,142c0,3.34.33,6.37,2.33,9.37,19.57,29.3,39,58.72,58.46,88.07,4.09,6.18,9,7,15.24,2.82,2.41-1.65,4.66-3.54,7.11-5.12,2.91-1.86,3.9-4.57,4.4-7.81.57-3.7-1.29-6.32-3.18-9.06-16.6-24-33.1-48.12-49.82-72.06a23.26,23.26,0,0,1-4.37-14.08q.09-111.92-.07-223.82,0-140.83.08-281.67A21.92,21.92,0,0,1,643,619.72c16.14-22.44,32.09-45,48.1-67.55,4.17-5.87,8.21-11.84,12.59-17.56,2.53-3.3,3.07-6.26,1.17-10.12-3.35-6.8-6.22-13.83-9.33-20.74C695,502.55,694.26,501.45,693.39,499.92ZM1138.6,1598.41c.11-2,.24-3.4.24-4.75,0-27.07-.1-54.15.1-81.22,0-4.08-1.74-6.58-4.5-8.89-8.5-7.14-17-14.21-25.5-21.41a9.13,9.13,0,0,0-6.4-2.19q-51.13.06-102.26,0a9.06,9.06,0,0,0-6.36,2.24c-8.57,7.35-17.21,14.63-26,21.75a9.86,9.86,0,0,0-3.89,8.51c.13,27.07.06,54.15.08,81.22,0,1.5.24,3,.39,4.74C1022.62,1600.39,1080.36,1600.4,1138.6,1598.41Zm139,85.87c-12.78.52-25.19,1.28-37.6,1.49-48.86.86-97.72,2.06-146.58,2.16-66,.12-132-.64-198-1.06-5.25,0-10.5-.45-15.75-.63-18-.62-36.07-1.22-54.41-1.84v40.45a33.05,33.05,0,0,0,5,1.14c6.19.47,12.4.89,18.61,1.12,12.25.46,24.51.94,36.76,1.13,33.29.51,66.58,1.24,99.87,1.22,54.32,0,108.64-.52,163-1,32.7-.27,65.4-.78,98.1-1.31,8.74-.14,17.48-.7,26.21-1.2a25.33,25.33,0,0,0,4.8-1.19Zm-121.32-179.61c-1.32,7.39-1,85.49.23,90.26,1.6.1,3.31.32,5,.3,30.77-.35,61.53-.67,92.29-1.13q35.91-.52,71.82-1.38c7.33-.18,14.65-.89,21.85-1.35,1.5-6.52,1.26-85.49-.33-90.34-1.77,0-3.69-.08-5.6,0-7.58.34-15.15.84-22.73,1.09-14.4.48-28.8,1-43.21,1.18-37.77.54-75.55.92-113.33,1.35C1160.41,1504.69,1158.5,1504.67,1156.31,1504.67Zm-209.24-.15c-16.81,0-32.76.14-48.71,0s-31.93-.68-47.89-1-31.93-1.1-47.88-1-31.69-2.33-47.45-1.09c-1.25,8.78-.85,85.46.53,90.3,63.52,2.79,127.25,3.78,191.4,3.55Zm396,92.44-.32-1.43c-6.54.44-13.08,1-19.62,1.27-12.06.49-24.12.9-36.19,1.16-22.58.48-45.16.94-67.74,1.2-19.87.22-39.73.22-59.6.17-3.73,0-6.51.83-9.15,3.8-7.11,8-14.66,15.6-22,23.39q-14.84,15.72-29.61,31.48c-1.92,2-3.84,4-1.51,7.37,2.17,0,4.48,0,6.8,0l128.49-1.23c3.51,0,7,0,10.52-.13,7.45-.27,14.11-1.89,20.36-6.85,16.3-12.94,33.2-25.14,49.84-37.66C1323.29,1612,1333.17,1604.48,1343.08,1597ZM742,354.94h6.7c34.29,0,68.57.05,102.85-.1a28,28,0,0,0,10.12-1.95c24.17-9.66,48.24-19.57,72.37-29.34,7.19-2.91,14.34-6.05,21.76-8.26,13.2-3.92,26.59-7.18,39.89-10.76,6.87-1.85,13.72-3.81,20.57-5.72l-.11-.67h-5.64c-80.06,0-160.12.14-240.18-.21-8,0-13.18,2.7-18.8,7.84-7.15,6.54-10.94,13.4-9.68,23.3.81,6.33.15,12.84.15,19.27ZM758.13,1596.1c2.65,2.46,4.39,4.14,6.2,5.74,16.67,14.64,33.3,29.32,50,43.87,5.72,5,11.62,9.76,17.69,14.28a15.93,15.93,0,0,0,7.44,2.82c6.37.7,12.79,1,19.19,1.16,15.75.49,31.51,1,47.26,1.2,16.93.23,33.87.15,50.8.2h7.39c-5.21-22.54-10.46-44.12-16-66h-7.36c-22.57-.12-45.15,0-67.73-.43-29.37-.49-58.74-1.34-88.11-2.08-3.88-.1-7.75-.6-11.63-.71C768.71,1596,764.11,1596.1,758.13,1596.1ZM1147,1476l.84-.52q-15.26-39.4-30.51-78.81c-2.08-5.35-2.16-5.36-8-5.36q-57.57,0-115.12,0c-6.8,0-6.17-.94-8.84,5.91-8.82,22.64-17.53,45.33-26.29,68L955,1475.8a13,13,0,0,0,4-4.29c4.6-6.76,9.21-13.51,13.77-20.3,1.35-2,2.71-3.53,5.51-3.57,7.78-.13,15.56-.78,23.35-.82q35.64-.16,71.29,0c16.36.09,32.71.7,49.06.69,4.56,0,7,1.8,9.32,5.4C1136.38,1460.74,1141.79,1468.33,1147,1476ZM1336.38,328.39c-.86.94-1.47,1.29-1.54,1.73-1.86,10.63-9.34,15.38-18.8,18.1a7.19,7.19,0,0,0-1.11.36c-3.57,1.8-7.08,1.57-10.68,0s-7.12-3.11-10.79-4.39a8.15,8.15,0,0,1-5.31-5c-1.78-4.51-3.86-8.92-5.47-13.5a9.58,9.58,0,0,1-.19-5.56c4.93-16.5,6.17-17.67,22.12-23.85a12.3,12.3,0,0,1,10.13,0,92.14,92.14,0,0,0,9.18,3.7c4.16,1.37,6.94,3.76,8.26,8.13a22.57,22.57,0,0,0,4.12,8.54c1.11-12.08.71-33.56-.78-38.4H1201.44a23.33,23.33,0,0,0-4.66.08,13,13,0,0,0-5.25,1.92c-4.18,3.18-8.16,6.62-12.1,10.09-1.11,1-2.51,2.36-2.58,3.63a149.72,149.72,0,0,0,0,21.18c6.11.38,11.52,1,16.93,1,24.93.1,49.85.23,74.77-.13,5.44-.08,8,1.84,10,6.51,9.5,21.73,19.26,43.35,29,65a42.16,42.16,0,0,0,2.35,4c7.69-4,14.81-8,22.16-11.46,3.49-1.65,4.79-3.72,4.73-7.6-.22-13.43-.07-26.87-.08-40.3C1336.71,331.1,1336.53,330.05,1336.38,328.39Zm-379,113.78H1144.3V392.29h-14c-.59,6.18-1.15,11.9-1.68,17.43-9,1.38-150.35,1-155.43-.35l-1.65-17.49c-5,.22-9.57-.81-14.11.68Zm10.68,1162a8.46,8.46,0,0,0,.63,1.73q19.3,23.05,38.59,46.13c2.47,3,5.33,3.9,9.13,3.88,23.16-.14,46.33-.19,69.5,0a12.6,12.6,0,0,0,10.92-5.07c11.58-14.15,23.47-28.06,35.22-42.08,1.07-1.27,2-2.69,3.36-4.62Zm92.38-1156.15v82.88h58.49c0-2.38,0-4.28,0-6.19q-.39-36.5-.82-73a48,48,0,0,0-.66-5.12Zm-13.12,84.38c1.28-9,.91-59.93-.39-64.47-24.67-1.15-49.43-1.94-74.18-1.05v64.15ZM833.26,1676.32a11.05,11.05,0,0,0,2.08.6c14.56.77,29.12,1.79,43.69,2.2,22.58.64,45.17,1.26,67.75,1.19,77.13-.22,154.26,1.29,231.38-.85,24.91-.7,49.83-.86,74.74-1.43,5.56-.12,11.12-.91,16.82-1.41v-10.23a17.88,17.88,0,0,0-2.69-.27c-10.28.66-20.55,1.6-30.84,2q-23.34.89-46.72,1.17c-36,.49-72,1.08-108.08,1.15-30.38.06-60.76-.53-91.13-.88q-55.8-.63-111.59-1.37c-12.26-.18-24.51-.78-36.76-1.24-1.35,0-2.69-.45-4-.54s-3,0-4.61,0ZM1139.88,466.79v64.26h64.85c1.25-7,1-60.06-.25-64.26ZM919.39,530c16.76.14,32.52,2.32,48.56.82.84-28.23-1.05-56,1.83-83.93H919.91C919.45,474.51,920,501.83,919.39,530Zm62.79,830.06c2.05,9.37,3.93,18,5.83,26.68h126.31c2.83-7.28,5.79-21.8,5.41-26.68ZM844,528.55c4.66,1.89,39.29,2.49,47.27.8.19-20.92.13-42,.06-63.62l-47.33-1Zm520.25,948-.67-.77c-12.8.6-25.6,1.37-38.4,1.76q-27.42.84-54.86,1.23c-30.74.47-61.48.8-92.22,1.25-1.66,0-3.86.16-4.87,1.17-3.5,3.51-6.57,7.43-10.78,12.32,3.57,0,5.63,0,7.68,0q65.36-1.12,130.71-2.3c14.38-.27,28.76-.8,43.14-1.29,1.69-.06,3.74-.1,5-1C1354.16,1485,1359.15,1480.69,1364.23,1476.55Zm-425.29,17,.46-1.32c-2.77-3.23-5.56-6.44-8.3-9.71-1.64-1.94-3.66-2.52-6.17-2.55-20-.27-40.07-.68-60.1-1l-86.37-1.35c-1,0-1.94-.11-2.91-.15l-37.77-1.69c6,4.87,11,9.07,16.18,13.08a7.21,7.21,0,0,0,3.78,1.05c6.59.45,13.18.86,19.78,1.11,11.85.44,23.71.87,35.56,1.1q37.93.77,75.86,1.28c15,.2,30,.11,44.95.15Zm439.89,100.62c0-30.59,0-60.42,0-90.69-8.82-1.25-16.91-2.44-25.29-2.11v90.25Zm-654.09-91c-1.2,10.06-.8,85.92.47,90.89l24.24-2.47c.27-30.41.86-60.23.21-90.81Zm260.4-44.83c3.16,4.66,6,8.52,8.47,12.62,2.24,3.72,5,5.1,9.53,5,17.49-.28,35-.1,52.49-.1,15.17,0,30.34,0,45.5-.08,1.81,0,4.37-.23,5.3-1.38,3.94-4.91,7.4-10.2,11.55-16.09ZM1201.07,445.93c1.94,4,3.16,7.11,4.84,9.91,2.8,4.69,3.65,9.67,3.62,15.07-.1,17.53.06,35.06.11,52.6,0,2.06,0,4.12,0,7l24.3-1.62c1.19-7.35-.16-79.21-1.4-83Zm-392.44,78.3c1.45-7.84,1.06-58-.55-62.47a269.11,269.11,0,0,0-29,27.11,13.73,13.73,0,0,0-2,3.53c-5.26,11.48-10.62,22.92-15.64,34.5-1.46,3.38-3.43,5-7,4.77a21.07,21.07,0,0,0-2.86.23c-3.93,5.12-4.16,11-4.54,18.12,5.57-6.51,10.56-11.91,15-17.72a15.76,15.76,0,0,1,12.42-6.44c9.52-.48,19-.89,28.55-1.33C804.92,524.44,806.82,524.32,808.63,524.23Zm29.63-78.58c-5.4.22-5.44.16-8.15,2.4-4.5,3.71-8.88,7.57-13.44,11.21a8.16,8.16,0,0,0-3.27,7c.1,19.07,0,38.14.08,57.22a20.43,20.43,0,0,0,.73,3.84h22.63C838.94,500,838.24,473.05,838.26,445.65Zm320.4,1045.93c3.53-4.1,6.19-7.43,9.1-10.51,2.26-2.4,2.71-4.53,1.35-7.78-12.73-30.45-25.24-61-37.83-91.5-2.13-5.16-4.35-10.27-6.53-15.41-2.26,5.46-3.37,10.89-4.7,16.26a19.83,19.83,0,0,0,1,12.51c9.42,24,18.69,48.15,28,72.22C1152.08,1475.12,1155.19,1482.84,1158.66,1491.58Zm-214.72-.37a18.94,18.94,0,0,0,1.54-2.31q18.54-47.78,37-95.57a11.55,11.55,0,0,0,1-4.48c-.39-7.7-2.63-15-4.63-23.65-1.07,2.22-1.62,3.22-2,4.27q-14.82,35.79-29.6,71.59-6.67,16.15-13.35,32.3c-.8,1.93-2,3.8-.14,5.91C937.11,1483,940.3,1486.91,943.94,1491.21Zm317.18-962.5a9.45,9.45,0,0,0,.55-1.8c.06-20.26.15-40.52.06-60.78a7.08,7.08,0,0,0-2.09-4.5c-4.62-4.45-9.43-8.73-14.29-12.92-1.73-1.49-3.77-2.79-6.28-1.48v81.48Zm-168.5,1136.06c-2.15-3-4.44-2.24-6.33-2.25-23.18-.08-46.36-.3-69.54,0a17.27,17.27,0,0,1-14.17-6.09c-14.26-15.46-28.82-30.63-43.28-45.91-1.23-1.29-2.53-2.51-3.8-3.77l-1.12.77c4.68,19.17,9.35,38.34,14.11,57.85,2.92,0,5.23,0,7.55,0q19,.15,38,.32c21.23.19,42.45.49,63.68.52C1082.39,1666.23,1087.09,1665.34,1092.62,1664.77ZM1267.43,464.43c-1.52,6.95-1.2,60,.39,64.61,7.17-.09,14.5.61,21.53-1.77,1.17-7.4.9-59.11-.48-64.27ZM914.28,529.9c2-27.69,1.09-54.64,1.2-83-2.82,1.76-4.72,2.56-6.11,3.89-3.23,3.09-6.06,6.6-9.33,9.65a11.38,11.38,0,0,0-3.77,9.23c.18,18.3.08,36.6.1,54.9,0,1.7.23,3.39.37,5.37Zm58.24-67.75h76.65c1.37-4.91,2.75-9.81,4.27-15.23h-79C973.84,452,973.21,456.84,972.52,462.15Zm155.8-14.61c2.26,3.57,4.69,7,6.7,10.72,1.82,3.32,4.27,4.37,8,4.32,19-.22,38.08-.15,57.11-.23a36.09,36.09,0,0,0,4.16-.54c-2-3.78-3.7-7-5.27-10.3-2.31-4.84-5.8-7.23-11.43-7.18C1168.05,444.5,1148.46,443.59,1128.32,447.54Zm246.45,1150.89a16.22,16.22,0,0,0-3.22-1.27c-5-.5-10.07-.82-15.09-1.37a10.11,10.11,0,0,0-8.41,2.81c-19.65,17.45-39.46,34.74-59.2,52.09a23.43,23.43,0,0,0-2.15,2.65c7.65-.64,14.1-2,20.1-6.49,15.76-11.74,32-22.82,48.06-34.18C1361.32,1608.09,1367.73,1603.46,1374.77,1598.43ZM815.87,1653c-1.35-1.48-2.26-2.68-3.37-3.66q-29.16-25.66-58.31-51.31a8.43,8.43,0,0,0-6.88-2.25c-5.41.53-10.84.91-16.25,1.42a13.83,13.83,0,0,0-2.89,1.23c2.17,1.57,3.83,2.79,5.51,4,20.81,14.73,41.75,29.27,62.34,44.3A31.89,31.89,0,0,0,815.87,1653ZM1134.14,531c.12-2.37.29-4.1.29-5.83q0-27.72,0-55.45c0-6.17-5.51-16-11.11-19.91V531Zm-422.3,943.69v117.83l7.4,1.42V1587c0-24.52-.44-49.06.18-73.57C719.76,1499.93,715.91,1487.47,711.84,1474.73Zm679.23,117.76c1.2-15.79.65-113.69-.82-118.41-2,7.9-3.83,15.22-5.56,22.56a30.94,30.94,0,0,0-.91,6.89q-.09,42.92,0,85.83a42,42,0,0,0,.52,4.66ZM909.78,444.4c-13.88,0-26.56.53-39.17-.15-12.17-.66-17.81,7.05-23.77,15.73,1.43.48,2.34,1,3.25,1,13.81.14,27.63.25,41.44.2a6.37,6.37,0,0,0,4-1.81C900.17,454.76,904.6,449.91,909.78,444.4Zm417.05-121.75c-1.78-4.06-2.63-8.79-5.42-11.55a18.26,18.26,0,0,0-11.46-4.9,17.45,17.45,0,0,0-11.58,4.49,19.07,19.07,0,0,0-5.22,11.93,17.13,17.13,0,0,0,4.73,11.51,19.14,19.14,0,0,0,12,5.06,17.67,17.67,0,0,0,11.48-4.86C1324.13,331.58,1325,326.85,1326.83,322.65ZM1049.47,315c1.31-3.07.65-5-1.57-6.59-3.93-2.87-7.8-5.82-11.56-8.9-1.81-1.49-3.39-1.05-5.38-.51-16.83,4.63-33.69,9.11-50.54,13.66-2,.55-4,1.23-6.06,1.85l.21.49Zm93.92,1192.83v90.65l7.51-2.6c0-28.69,0-56.86,0-85a33.88,33.88,0,0,0-.43-4,.91.91,0,0,0-.29-.5,4.49,4.49,0,0,0-.91-.34Zm-190.94-2.22v90.65l7.22,2.06v-90.5Zm28.27-46.19-27.21,41.66c7.47,3.67,7.45,3.66,12.82-.83,7.31-6.11,14.66-12.19,22-18.31,1.61-1.35,3.1-2.82,5-4.58Zm141.52,0-12.58,17.95c1.93,1.75,3.45,3.21,5,4.55q11.38,9.57,22.83,19.09c4.56,3.8,6.09,3.76,11.66-.38Zm252.44,5c-.62,2.24-1.38,3.56-1.27,4.81.38,4.3-2.11,6.78-5.11,9.13-3.53,2.74-6.87,5.72-10.46,8.38-3.31,2.46-4.31,5.68-4.08,10l26.09,2.61c2-8.39,4-16.42,5.71-24.52.24-1.15-.74-3-1.74-3.89C1381.18,1468.7,1378.21,1466.88,1374.68,1464.43Zm-625.35,32.24c-.06-4.33-1-7.55-4.36-10-3.77-2.72-7.17-6-10.88-8.77-2.79-2.12-4.67-4.46-4.52-8.24.06-1.53-.82-3.11-1.31-4.8-14.22,8.66-11.78,6.79-8.88,19.17.58,2.46,1.07,4.93,1.73,7.37s1.55,5.08,2.41,7.88ZM1286.6,458.37c-5.06-4.47-9.22-8.2-13.46-11.83a5.36,5.36,0,0,0-2.63-1.09,113.59,113.59,0,0,0-23.66-.78c6.09,5.34,11.14,9.8,16.24,14.19a4.42,4.42,0,0,0,2.57,1.19C1272.2,460,1278.82,460.83,1286.6,458.37ZM911.37,378.48c-7.58,4.69-15.31,7.12-22.39,11.51l4.88,11,22.74-10.63Zm-24.56,6.91,22.7-10.65c-1.62-3.17-3-5.84-4.43-8.68l-22.49,10.56Zm71.76,312.79v.16h185.54v-.16ZM1055,455.94c-.79,3.47-2.21,6.92-2.25,10.39-.22,20.59-.13,41.18-.07,61.78a8.25,8.25,0,0,0,1,2.66l1.28-.21ZM976.1,1733.74l.18.29H1127.8v-.29ZM916.21,395.07c-6.63,3.24-13.13,5.41-18.86,9.4,4.12,4.38,8.64,5.21,13.74,2.79C915,405.43,917.18,400.54,916.21,395.07ZM732.47,565.53c1.47-11.2,1.34-22.45,6.17-33-5.31-.32-6.48.49-7.07,5-.7,5.19-.77,10.5-1.86,15.6C728.69,557.83,730.19,561.69,732.47,565.53ZM902.28,362.88c-2.28-1.7-3.61-3.45-5.18-3.71a19.8,19.8,0,0,0-8.64.18c-4.68,1.42-6.94,7-5.4,12.59Zm399.4,1271.42c-15.29,9.1-35.84,25.08-38.11,28.64,4.8-.52,9.28-1.18,12.78-4.86,4-4.19,8.07-8.31,12.3-12.26S1297.33,1638.13,1301.68,1634.3Zm-445,97-.16.68,104.33,1.51V1733Zm286.73,1.65-.13.54,103.19-1.51v-.69ZM745.34,531.53c-7.74,8.49-6.1,18.61-8,28.73,4-2.59,4.9-5.67,5.3-9.24C743.28,545,744.28,538.92,745.34,531.53Zm63-85.14c-7.42,4.38-15.65,8.06-17.48,18.22,3.4-2.93,6.69-5.61,9.8-8.48S807.84,451.45,808.39,446.39Zm34.37,10.92a90.07,90.07,0,0,0,10.65-12.95l-9.37.58C843.62,449.05,843.25,452.59,842.76,457.31ZM725.35,531.46c-5.55,3.69-5.69,11.14-1.49,17.08C724.33,543.14,724.79,537.86,725.35,531.46ZM1144.7,1603.75c-4.53.83-14.11,11.72-16.44,17.44C1134.17,1614.92,1139.43,1609.33,1144.7,1603.75ZM919.25,379.35c-1.82-5.92-5-11.19-8-13.41C911.92,371.22,915.24,377.14,919.25,379.35ZM842.88,697v.18h39.36V697Zm378.65,0v.15h38.32V697ZM959.8,1602.45l-1.47,1.29q7.88,8.35,15.76,16.69l.87-.82C969.89,1613.91,965.53,1607.55,959.8,1602.45ZM1316.2,529l.19-.58c-3.48,0-7,0-10.44,0s-7-.44-10.35.33c0,.54.09,1.08.13,1.62Zm-436-145.18-1.19.65L886.15,397C884.94,392.18,884,387.26,880.23,383.81ZM1295,305.07c4.41.9,9.19-.94,12.52-4.75C1302.65,300.76,1299.07,302.8,1295,305.07Zm-8.11,14.85c4.62-3.35,6.34-8.23,4.84-11.74C1290,312.32,1288.41,316.12,1286.84,319.92Zm30.36,376.16.19-.24h-25.66v.24Zm-506.11,0,.13-.23h-25.6v.23Zm550.81-2.24.15.5,22.61-1.66c.13,0,.3-.2.34-.35s0-.32-.08-.52Zm-38.82-388.69a20,20,0,0,0-11.72-4.78C1315.31,304.2,1319,305.24,1323.08,305.12Zm.22,35.73-.42-1.5c-3.79.68-7.42,1.72-10.3,4.42l.49,1.16Zm-16.74,4.27c.22-.62.43-1.24.64-1.86-3.6-1.27-6.77-3.74-11.26-2.57Zm20.84-37.37c-.66,5.67,1,9.7,5.42,12.94C1330.84,316,1329.37,312.47,1327.4,307.75Zm-.34,28.46c3.37-4.46,4.38-7.4,3.64-10.64C1327.66,330.32,1326.88,332.59,1327.06,336.21Zm-38.23-11c-.27,5.29,1.1,8.36,4.53,10.39Zm45.31,369.38v.27h18.48v-.27Zm-583.8.13v.17h18.83v-.17ZM729,693.27v.63h11.18v-.63H729Zm78.12-163.51,0-.53-7.39-.42,0,1Zm391.24,122.87-.56,0h7.35v0Zm-441.12,844c.12-.63.23-1.26.34-1.89a27.75,27.75,0,0,0-3.15-.2c-.12,0-.22.93-.32,1.43Zm592.67-1.58c-1.55-.45-2.34-.9-3.06-.81-.49.06-.89.87-1.33,1.35a6.84,6.84,0,0,0,2.16,1C1348.13,1496.73,1348.68,1496,1349.9,1495.09ZM906,652.73v-.1h-8.34v.1Zm377.94-1.2h0ZM722.65,692.6l.11-.06a4.25,4.25,0,0,0-.9-.41c-1.1-.18-2.2-.35-3.31-.43-.17,0-.38.47-.7.9Zm96.05-41.14-.18.08h4.63v-.08Zm28,1079.14v-.2H841v.2Zm410-.25v.2h5.1v-.2Z"/><path class="cls-1" d="M756.64,405.87c-2.65-.85-6-.93-7.5-2.63-2.34-2.63-4.73-6.39-4.67-9.64s2.56-7,5-9.57c1.36-1.49,4.65-1.68,7.06-1.63,2.59.05,6,.27,7.54,1.86,2.48,2.52,5.09,6.24,5.11,9.48s-2.55,6.94-5,9.54C762.62,405,759.32,405,756.64,405.87Zm-7.4-10.55c.73,2.42,1.7,4.33,4.4,4,2.4-.29,5.25-.11,7-1.37,2.86-2,2.25-7.15-.52-9.16-2.29-1.66-6.84-.57-8.54,2.12C750.79,392.22,750.14,393.63,749.24,395.32Z"/></svg>