<svg id="Layer_1" data-name="Layer 1" xmlns="http://www.w3.org/2000/svg" viewBox="0 0 2000 2000"><defs><style>.cls-1{fill:#1d1d1b;stroke:#1d1d1b;stroke-miterlimit:10;stroke-width:3px;}</style></defs><path class="cls-1" d="M637.4,1482c-6-4.28-11.75-8.4-17.53-12.45-7.33-5.11-7.36-5.09-7.46-13.87-.06-5.38-.11-10.76-.11-16.14q0-359.28,0-718.57V696.09c7.56-4.9,7.68-4.9,7.8-13.48.14-9.77,0-19.54,0-29.27l-7.2-3.94a43.18,43.18,0,0,1-.43-4.46c0-13.25,0-26.5-.07-39.75a11.23,11.23,0,0,1,2.78-7.86q26.37-30.87,52.56-61.92c2.85-3.38,6.58-3.65,10.34-3.91,8.23-.58,16.48-.89,24.72-1.33,1.71-.09,3.41-.3,5.86-.52.12-2.36.33-4.58.34-6.79.1-17.29.24-34.57.17-51.86,0-3.75,1-6.44,4-8.82,3.85-3,7.25-6.57,11.79-10.77-3.37-.26-5.41-.68-7.41-.5-4.67.42-8.34-1.62-12.38-3.62-6.28-3.11-8.21-7.52-7.68-14.21.53-6.87,0-13.82.15-20.73.06-4,.42-8,.69-12.73-4.78-3-10.07-6.42-15.47-9.65a6.22,6.22,0,0,1-3.37-6c.1-32.08.07-64.16.08-96.23,0-.75.14-1.5.27-2.82,2.22-.27,4.43-.73,6.64-.79,7.49-.18,15-.22,22.47-.33,28-.4,56.08-1.11,84.12-1.11,20.15,0,40.31.94,60.47,1.48,7.1.19,14.2.51,21.31.6,3.63.05,6.69.91,9.22,3.76,3.69,4.16,8.91,7.49,11.12,12.27,2.09,4.52,1.15,10.44,1.54,15.75.11,1.51.25,3,.41,4.91h14c-1.1-5.44,2.1-8.45,5.28-11.6,9.67-9.58,9.62-9.72,23-9.91q53.29-.76,106.59-1.38c30.72-.41,61.45-1.06,92.18-1.24,17.84-.1,35.68.5,53.52.85,11.14.22,22.27.68,33.41.79,4.6,0,8,1.56,10.75,5.34,2.93,4,6.27,7.78,9.57,11.52a10.34,10.34,0,0,1,2.65,7.32c0,9.79.11,19.59.19,29.38,0,2.09,0,4.17,0,7,4.66.05,8.82.38,12.93.07,6.8-.51,10.74,4.37,15.43,7.79.81.58,1,2.44,1,3.71-.21,14-.43,28-.89,42.05a7.25,7.25,0,0,1-2.45,4.83c-5.79,4.63-7.52,10.49-7,17.7a165.36,165.36,0,0,1,.07,20.16c-.19,3.95,1.47,6.36,4.27,8.75,18.24,15.61,36.8,30.87,54.41,47.16,14.49,13.41,28.09,27.83,41.52,42.32,6.09,6.57,11.13,14.18,16,21.71,4.14,6.34,4.47,13.77,3.71,21.14-.14,1.29-1.34,2.68-2.42,3.62-1.87,1.63-4.14,2.8-6,4.43-1.19,1-2.74,2.53-2.77,3.86-.15,6.27-4.39,8.95-9.14,11.32-1.52.75-3.1,1.4-5.1,2.29V631q0,242.6,0,485.2c0,7.87-.15,15.75,0,23.62a15.25,15.25,0,0,1-2.73,9.12c-20,30.07-39.92,60.13-59.59,90.39-2.59,4-6.23,3.8-10.27,4.76v8q0,102.87.09,205.72c0,4.77-1.25,7.71-5.38,10.23-6,3.69-11.61,8.12-17.84,12.57,4.3,6.23,3.49,13.21,3.49,20,0,25.93-.1,51.86,0,77.79,0,3.77-1.21,6-4.42,7.85-31.53,17.84-59.32,41-88.4,62.32-4.89,3.59-7.24,7.57-6.24,13.52.19,1.12.17,2.28.27,3.7l6.69,3.67v46.74c-7.79,3.23-15.23,6.73-23.71,6.91-36.86.8-73.71,1.88-110.58,2.37q-65.38.89-130.79.9c-35.72,0-71.44-.63-107.16-1.28-19.2-.34-38.38-1.34-57.57-2-8.23-.29-15.67-3.15-23.31-6.67v-46.89l6.29-3.4a8.57,8.57,0,0,0,.41-1.27c1.08-7.09.4-13.41-7.27-16.69-21.43-17.62-45.66-31-69-45.81-6.48-4.1-13-8.15-19.59-12.08a6.26,6.26,0,0,1-3.32-6.09c.07-29.58,0-59.16.12-88.74a17.11,17.11,0,0,1,1.54-6C634.69,1487.06,636,1484.74,637.4,1482Zm418.05-60.6-2.31,5.76c-.49.53-1.17,1-1.43,1.6-5.39,13.11-10.8,26.22-16,39.4-.79,2-.77,4.28-1.12,6.43a2.79,2.79,0,0,0,1.85-1.72q7.86-20.7,15.64-41.41a31.57,31.57,0,0,0,1-4.4l2.31-5.75q1.15-2.15,2.29-4.29l-1.11-.4C1056.16,1418.18,1055.8,1419.78,1055.45,1421.37Zm86.81,297.91a28,28,0,0,1-3.93.57q-50.91.7-101.8,1.32c-8.11.09-16.22,0-24.33,0a89.76,89.76,0,0,0,15.52.83q50.31-.6,100.61-1.23c3.45,0,6.91,0,10.35-.17,1.19-.08,2.34-.87,3.55-1.33h0Zm-110.9-251c.85-1.84,1.55-3.19,2.13-4.59q18.36-45,36.7-90c2.82-6.93,5.73-13.82,8.49-20.77,1-2.46,2.49-3.49,5.21-3.53,7.29-.12,14.58-.69,21.87-.76,17.86-.19,35.72-.12,53.59-.3,6.32-.06,12.65-.64,19-.77,6.86-.13,13.72,0,20.85,0L1230.71,1465a431.33,431.33,0,0,0,54.44-2.75c1.21-8.85.79-759.17-.4-763.44-2.42.33-4.86.83-7.32,1-14.17.83-28.33,1.73-42.51,2.3-14.58.59-29.17.89-43.76,1.2-20.35.44-40.7.88-61.05,1.12-40.33.47-80.66,1.09-121,1.12-46.66,0-93.33-.48-140-.84q-60.2-.48-120.4-1.19c-16.7-.19-33.4-.61-50.1-1Q673,701.83,647.39,701c-4.4-.14-8.79-.59-13.18-.86-5.72-.37-11.44-.7-17.51-1.07v763.12l5.89.27c5.28-39.09,10.49-77.6,15.7-116.11a62.28,62.28,0,0,1,6.5-.58q34.26.78,68.5,1.7a28,28,0,0,1,6.83.92,6.82,6.82,0,0,1,3.28,2.56c.76,1,.93,2.49,1.36,3.76q17.44,52.11,34.91,104.19c.91,2.71,2,5.35,3.07,8.06C852.33,1469.16,941.61,1468.11,1031.36,1468.32Zm252.71-867.86a30.5,30.5,0,0,0-2-3.31c-5-5.86-9.88-11.76-15-17.5a35.8,35.8,0,0,0-6-5.28c-15.82-11.2-31.73-22.28-47.54-33.49a10.39,10.39,0,0,0-6.88-2.26c-6.7.39-13.41.74-20.11,1-14,.44-28,.9-42,1.15-26.11.47-52.22,1.15-78.34,1.11q-131.64-.2-263.29-.89c-18.42-.09-36.85-.57-55.27-1-17.08-.38-34.16-.83-51.23-1.46-8.21-.3-16.4-1.08-24.82-1.66-10.11,10.13-51.11,59.29-52.7,63.37,3,.44,6,1.12,9,1.27,16.66.83,33.32,1.68,50,2.25,16.3.55,32.61.87,48.93,1.12,31.48.49,63,1.24,94.46,1.2q143.74-.16,287.49-.9c34-.16,68-.77,101.94-1.31q22.15-.36,44.31-1.28C1264.33,602.15,1273.67,601.22,1284.07,600.46ZM616.61,647c4.8.57,9.48,1.42,14.2,1.65,18.39.88,36.79,1.7,55.19,2.27,17.65.56,35.32.9,53,1.12,40.89.51,81.79,1.26,122.69,1.24,72.21,0,144.41-.49,216.62-.91,33.22-.2,66.43-.68,99.64-1.15,16.31-.23,32.62-.7,48.93-1.14,14.38-.39,28.77-.79,43.15-1.4,5.1-.22,10.18-1.08,15.43-1.67V603.91c-12.33.84-24.34,1.82-36.38,2.44-11.88.61-23.78.93-35.67,1.23-18.24.45-36.47.95-54.71,1.14q-74.31.78-148.63,1.31l-2.3,0q-100.82-.49-201.64-1c-29-.2-58-.73-87-1.21-21.88-.37-43.76-.91-65.64-1.39-1,0-1.91-.13-2.87-.2l-34-2.34ZM821.94,330.66c-1,2.21-1.68,3.57-2.2,5q-12.4,34-24.76,68.09a18,18,0,0,0-1.38,5.55q-.23,15.54,0,31.1a5.42,5.42,0,0,0,1.73,3.9c4.38,3,8.73,5.53,14.68,5.41,36.08-.76,72.18-1.07,108.27-1.55a31.83,31.83,0,0,0,3.41-.47V395.58c2.58-.19,4.46-.45,6.33-.45,11.31,0,22.62.06,33.93.22,4.22.06,8.43.78,12.63.61,4.59-.19,6.41,2.1,7.53,6.1s2.79,7.81,4.43,12.3c6.17-.72,11.79-1.77,17.44-2,16.69-.55,33.39-.77,50.09-1.1,2.07,0,4.14,0,6.46,0,.52-5.5,1-10.17-2.3-14.72-3.08-4.27-3.83-9.54-4-14.78-.16-6.09,2.25-10.94,7.87-13.51a6.93,6.93,0,0,0,4.38-6.13c.29-3.45,2.16-5.58,4.78-7.4a22.16,22.16,0,0,1,16.82-4l11.33,1.89c-1.81-2.41-2.89-3.95-4.09-5.4-4.25-5.2-8.73-10.23-12.76-15.6-2.31-3.08-4.88-4.21-8.71-4.14-29.18.49-58.36.78-87.54,1.15q-46.65.58-93.3,1.21C869.4,330.13,845.8,330.38,821.94,330.66Zm455.46,324c-5,.49-9.3,1.13-13.66,1.33-18.21.86-36.42,1.72-54.64,2.33-16.89.56-33.79.88-50.68,1.16-28.23.46-56.46,1.16-84.69,1.11q-152.13-.27-304.25-1c-9.41,0-18.82,0-28.23-.24-26.3-.65-52.59-1.31-78.88-2.19-10-.34-19.9-1.3-29.85-1.9-2.57-.16-5.17,0-7.73,0v36a78.7,78.7,0,0,0,8.3,1.32c15.51.84,31,1.68,46.55,2.25,14.77.55,29.55.88,44.33,1.11,31.49.5,63,1,94.48,1.27q47.82.36,95.66.2,106.3-.42,212.62-1.16c20.54-.14,41.08-.69,61.61-1.11,18.43-.39,36.85-.8,55.27-1.33,8.43-.24,16.86-.7,25.28-1.25a78,78,0,0,0,8.51-1.48ZM1035.22,1586.1v-89.66h-67q-33.12,0-66.24,0c-22.27,0-44.54-.4-66.81-.08s-44.36-1.88-66.44-.8c-1.4,9-.91,84.9.77,89.78C857.76,1586.75,946.37,1585.7,1035.22,1586.1Zm295-450.68V627.75l-40-1a5.82,5.82,0,0,0-.54,1.48c-.1,4.41-.15,8.83-.25,13.24-.17,7.71-.18,7.71-6.93,11.33-.3.16-.5.51-.83.87v37.22a11.17,11.17,0,0,0,2.15,1.21c4.43,1.25,5.85,4.12,5.64,8.64-.29,6.32.08,12.67.08,19q0,134.21,0,268.42,0,69.4,0,138.82c0,2.21.13,4.43.2,6.81ZM1173.44,1673c-9.31.62-18.64,1.46-28,1.82-14.57.58-29.16.93-43.74,1.2-25.14.46-50.28,1.11-75.42,1.09q-82.93-.06-165.86-.75c-27.63-.2-55.27-.78-82.9-1.29-9.39-.17-18.78-.62-28.17-1-7-.27-14-.59-21.35-.91v40.45a55.4,55.4,0,0,0,6.47,1.23c6.7.47,13.4.87,20.1,1.09,13.81.46,27.62,1,41.43,1.14,39.73.51,79.46,1.16,119.19,1.21,39.54,0,79.09-.5,118.63-.9q42.32-.42,84.62-1.16c15.53-.27,31.06-.8,46.59-1.33a81.67,81.67,0,0,0,8.71-1.17C1175,1706.41,1174.73,1677.41,1173.44,1673Zm-106.24-84.25c9.6,1.65,129-.31,139.58-2.21a5.48,5.48,0,0,0,.46-1.54c0-28.79.08-57.59,0-86.38a8.78,8.78,0,0,0-2.1-5c-5.55-6.86-11.4-13.48-16.93-20.35a8.27,8.27,0,0,0-7.33-3.38q-40.3.75-80.6,1.21a7.92,7.92,0,0,0-5.62,2.27c-9.07,8.27-18.22,16.45-27.42,24.73Zm-70.52,66.41c10.34-15.72,36-61.1,36.79-65.06l-264-.63a2.86,2.86,0,0,0,0,1c7.34,18.53,14.52,37.13,22.19,55.52a13.32,13.32,0,0,0,10.07,7.79,104.89,104.89,0,0,0,16.63,1.08q86.42.21,172.84.25Zm292.86-415.54c3.9.95,6-.54,7.73-3.26q28.43-43.32,57-86.52a22.58,22.58,0,0,0,4.06-13.3q-.15-253.53-.08-507v-5.6l-30.23-9.72a30.47,30.47,0,0,0,2.3,4.41c3.17,4.21,4.05,8.9,3.92,14.07-.16,6.91.16,13.83.16,20.74q0,229.89,0,459.8c0,6.72-.29,13.44-.23,20.16a14.69,14.69,0,0,1-3,9q-19.44,27.51-38.61,55.21c-1.36,2-2.84,4.38-2.9,6.62C1289.39,1215.92,1289.54,1227.63,1289.54,1239.64Zm-653.7,346c32.62.94,64.32,2.71,95.8,2.52a7.58,7.58,0,0,0,.67-1.7c.05-29,.11-58,0-86.94a7.77,7.77,0,0,0-1.79-4.58q-9.67-11.42-19.69-22.53a8,8,0,0,0-4.8-2.52c-7.45-.57-14.93-.77-22.41-1.05q-14.94-.57-29.88-1c-1.88-.06-3.77,0-5.72,0-3.42,7.24-6.52,14.25-10,21a23.07,23.07,0,0,0-2.56,11c.06,26.3,0,52.59,0,78.88C635.48,1580.79,635.69,1582.85,635.84,1585.63ZM683.62,288.88v95.56c15.22,2.21,69.17,3.49,75.31,1.83,1.1-7.56.74-91.06-.42-95.27C752.63,289.4,692.66,287.64,683.62,288.88ZM1041.68,1469l.68.38c1.08-1.46,2.2-2.88,3.21-4.38,4.71-7,9.52-14,14-21.13,2-3.12,4.16-4.35,7.91-4.38,25.34-.21,50.69-.72,76-1.06,12.47-.16,24.94,0,37.4-.34,3.94-.09,5.84,1.4,7.2,5,2,5.32,4.63,10.42,7,15.62l.93-.38c-6.42-25.21-12.85-50.41-19.37-76-2.49,0-4.57,0-6.64,0-12.67.31-25.34.78-38,.94-17.09.21-34.19.14-51.28.28-6.14,0-6.85.63-8.88,6l-20,52.71Q1046.77,1455.64,1041.68,1469ZM1175.09,416.63c2.56-3.61,4.34-6.84,6.79-9.42,4.78-5,6.08-5.08,11.66-1q33.17,24.34,66.27,48.8c1,.74,2.11,1.37,3.56,2.3V363.44c-2.68,0-5,0-7.23,0-31.09.34-62.19.64-93.28,1.08a25,25,0,0,1-11.58-2.7q-26.85-13.12-53.79-26.07c-3.1-1.5-6.3-2.81-9.45-4.2a284.51,284.51,0,0,0,20.2,25.37c4.41,4.88,9.9,8.52,17.19,7.11a17.28,17.28,0,0,0,3.35-.65c7.66-3.27,14.61-2.4,21.67,2.25,6.67,4.38,9.92,9.75,8.55,17.72-.89,5.24-.89,10.71-4.77,15.59Zm49.1-113c-2.27-.12-3.73-.28-5.19-.26q-36.86.5-73.69,1c-29,.42-58,.9-86.93,1.25-15.17.19-30.33.11-45.5.32a10,10,0,0,0-5.73,1.72c-3.45,2.72-6.45,6-9.69,9-2.05,1.9-2.88,4-1.62,6.83a11.11,11.11,0,0,0,2.14.41q33.67-.28,67.36-.62c8.06-.08,15.83.39,23.39,4.17,20,10,40.36,19.46,60.47,29.34,3.56,1.75,6.07,1.8,9.33-.8,21.13-16.88,42.44-33.54,63.68-50.29A26.32,26.32,0,0,0,1224.19,303.59Zm-22.44,1288.55-.42-1.22c-5.71.33-11.42.87-17.13.95q-56.43.78-112.85,1.4c-1.49,0-3,.19-5,.33-2.08,17-4.67,33.72-6.4,50.56a12.55,12.55,0,0,0,2.32.6c18.82,0,37.63,0,56.44-.25a20.8,20.8,0,0,0,11.74-3.94c20.76-14.16,41.67-28.1,62.5-42.14C1195.94,1596.41,1198.82,1594.24,1201.75,1592.14ZM933.88,473.23c-1.36,5.07-1.43,57.72-.16,63.2,6.32,1.27,70.75,1,75-.33V473.23ZM735.27,1666c6,.56,11.5,1.29,17,1.55,11.12.51,22.25.91,33.37,1.11,27.65.5,55.31,1.24,83,1.2q96.51-.12,193-.91c26.88-.19,53.76-.77,80.63-1.31,7.47-.15,14.93-.77,22.39-1.23a7.16,7.16,0,0,0,2-.82v-10.07c-2,0-3.71-.09-5.39,0-11.1.66-22.18,1.63-33.29,2-18.23.61-36.48,1.08-54.72,1.17-42.43.23-84.87.42-127.31.24q-82.68-.36-165.36-1.39c-13.22-.15-26.43-1.29-39.64-1.94-1.83-.09-3.67,0-5.69,0Zm133-1212.46c-1.47,5.42-1.54,77.18-.14,83h55.28c1.39-7.55,1.07-78.59-.36-83Zm342.85,1129.84c4.38,0,8,.17,11.61,0,10.9-.59,21.79-1.33,32.68-2,5.35-.33,5.47-.33,5.48-5.73q0-39.44-.09-78.87a41.35,41.35,0,0,0-.66-5.53l-49,2.23Zm-198-1129.86v83.69l52.61-1.34c.74-27.8-.46-54.93-.21-82.35ZM665.67,1380.71c-2.43,18.77-4.76,36.71-7.12,54.92,13.47.54,26.07,1.11,38.67,1.52q22.41.7,44.83,1.14c3.05.06,5.08.91,6.27,3.86a40.43,40.43,0,0,0,3.06,5.22l.62-.28q-10.89-32.28-21.78-64.58Zm436.21-932.56c-9.47-10.15-18.16-19.58-27.05-28.82a7.72,7.72,0,0,0-5.09-1.8c-26.1.09-52.21.34-78.31.49-2.63,0-5.26-.36-7.85-.55l-6.18-17H960l18,49.15C1019.26,449.19,1060.09,450.21,1101.88,448.15ZM843.73,537c1.67-7.22,1.32-59.66-.35-64.06l-59.29-1.31c-1.74,7.16-1.38,59.95.21,64C804.16,537.37,824,536.93,843.73,537Zm49.41-211.21v-8.56c0-15.22,0-15.15-11.21-25.57a10.66,10.66,0,0,0-8.17-3.13q-26.73.64-53.48,1c-12.85.18-25.71.09-38.56.28-4.33.07-8.65.65-14.47,1.12,9.36,6.87,16.18,15,25.93,18.75,7.15,2.77,10.66,7.5,12.86,14.62,1.8,5.84,3.66,11.2.65,17-.1.21.2.63.45,1.37L813.36,327Zm137.51,1146.48c-29.82,0-59.33,0-88.85,0s-58.76-.34-88.14-.13-58.84-2.13-89-.61l7,12.94c10.72.38,21.24.94,31.77,1.08,15.55.21,31.11.14,46.66.15q87.29.06,174.56.08c2,0,4-.26,6.06-.41Zm-388.53,117.7c1.49,1.18,2.26,1.93,3.15,2.49q38.81,24.13,77.66,48.19a12.78,12.78,0,0,0,5.87,1.85c11.48.54,23,.86,34.47,1.2,1.64,0,3.29-.16,5.14-.26a7.23,7.23,0,0,0-.51-2q-16.15-23.45-32.34-46.86c-1.35-2-3.1-2.53-5.38-2.59-11.12-.27-22.23-.66-33.35-1-10.73-.34-21.45-.77-32.18-1C657.45,1589.8,650.24,1589.93,642.12,1589.93ZM1144,535.43c.12-2.35.3-4.42.3-6.48,0-11.14.14-22.28,0-33.41-.15-11.7,1.47-8-7.47-15.8-2-1.76-4.09-3.5-6-5.4a9.09,9.09,0,0,0-7.21-2.76c-8.07.23-16.14.11-24.2.31a66.93,66.93,0,0,0-7.79,1.09v63.74c1.32.07,2.26.19,3.19.16C1111,536.42,1127.05,535.94,1144,535.43Zm-441.77-132c-1.59,5.31-1.55,31,.34,36.15,28.56.52,57.35,2.45,86.75,1.84,0-9.75.06-18.73,0-27.71-.05-5.41-.6-5.89-6.29-6.7a53.25,53.25,0,0,0-6.26-.78c-19.72-.51-39.46-.9-59.18-1.47C712.67,404.57,707.75,403.87,702.27,403.38Zm373.32,975.74a11.45,11.45,0,0,0,2.27.53q48.35-.53,96.67-1.07c2.28,0,3.47-1.15,4.53-2.85,4.46-7.16,9-14.29,13.4-21.47a16.39,16.39,0,0,0,1.06-3c-2.46,0-4.34,0-6.21,0-16.88.32-33.76.74-50.64,1-15.34.2-30.7.16-46.05.24a17.44,17.44,0,0,0-5.13.31c-1.28.41-2.93,1.54-3.28,2.69C1079.84,1363.24,1077.77,1371.16,1075.59,1379.12Zm135.76,208.16c-.11,3.51-2.59,4.53-4.62,5.9q-34.76,23.52-69.53,47c-6.18,4.19-12.22,8.62-20,9.41-2.34.24-3.68,1.61-4.26,4a9.48,9.48,0,0,0,1.91.37c14.94-.43,29.89-.74,44.81-1.44a20.75,20.75,0,0,0,12.21-4.08c26.17-20,52.57-39.78,78.88-59.64,1.13-.85,2.1-1.93,4-3.72Zm19.22-1283.75-71.92,56.68c10.39,1.28,80.3-.11,85.51-1.64,0-12.16,0-24.42,0-36.68a5.45,5.45,0,0,0-1-3.16C1239.19,313.81,1235.12,309,1230.57,303.53Zm-24.71,1178.54c6.44-4.64,11.87-8.54,17.28-12.46,4.1-3,4.18-3,2.86-7.93q-13.71-51.33-27.51-102.65c-.35-1.33-.87-2.61-1.63-4.84-5.68,9-10.87,17-15.78,25.23-.73,1.21-.49,3.28-.11,4.81q10.18,40.38,20.52,80.74C1202.85,1470.3,1204.22,1475.64,1205.86,1482.07Zm-563.5-130.31c-1.19,2.32-1.58,2.77-1.64,3.26-1.23,8.92-2.41,17.85-3.61,26.77q-3.75,27.92-7.52,55.83c-1,7.59-2.06,15.18-2.89,22.79-.17,1.55,0,3.89,1,4.66,4.12,3.24,8.59,6,12.68,8.8,3.86-6.1,7.46-11.5,10.74-17.1a16.23,16.23,0,0,0,1.7-6c3-22.41,5.87-44.83,8.91-67.23a9,9,0,0,0-1.79-7.45c-5.25-6.6-10.33-13.34-15.41-20.07A30.89,30.89,0,0,1,642.36,1351.76Zm95,146.46c-.24,2-.45,2.92-.45,3.86q0,41.4,0,82.79a11.12,11.12,0,0,0,.38,2.26c0,.16.23.29.36.43s.28.24.66.57l25.6-2.68c.15-30.16.13-59.77,0-89.83ZM1059.23,375c.68,6.28,3.37,10.82,6.32,15.4,8.37,13,18.79,24.28,29.52,35.24,28.24,28.85,58.82,55.08,90.45,80.12,34,26.92,69,52.43,106,75.27,19.41,12,39.06,23.56,60.58,31.45a60.08,60.08,0,0,0,13.92,2.92c4,.44,5.53-1.48,5.53-5.42-1.9-.14-3.78-.27-5.67-.42-11.55-.89-21.79-5.95-31.89-10.85-20.2-9.79-39.36-21.51-58.09-33.86q-40.62-26.77-78.93-56.81c-36.48-28.53-71.63-58.53-103.51-92.19a227.94,227.94,0,0,1-16.55-19.16c-5.4-7.15-11-14.4-12.57-23.64-.08-.45-.69-.8-1.24-1.4Zm324.19,219.7c-6.58-1.25-12.94-1.78-18.83-3.73a130.39,130.39,0,0,1-21.62-9.31c-15.63-8.55-31.25-17.17-46.32-26.66-31.69-19.94-61.94-42-91.36-65.13-26.87-21.15-53-43.16-77.64-66.86-12.73-12.24-25.29-24.68-36.24-38.6-6.39-8.12-12.82-16.31-14.59-27-.07-.43-.75-.76-1.12-1.11-4.5,2.74-4.31,2.71-3.52,7.18.92,5.15,4,9.09,6.82,13.16,11.77,17.2,26.16,32.16,41.21,46.43A1134.37,1134.37,0,0,0,1234.33,518c18.32,13.29,36.87,26.29,55.73,38.8,17.56,11.66,35.66,22.57,54.66,31.73,10.26,5,20.57,10.33,32.39,11.15C1381.48,600,1382.86,599.06,1383.42,594.68ZM972.84,449.73c.2-1.19.42-1.61.31-1.92q-8.11-22.71-16.28-45.4c-.92-2.56-2.81-3.25-5.4-3.23-6.52.05-13-.1-19.56-.16-2,0-4.07,0-6.18,0v49.11Zm89.34,1049.64-21.49-2.58c-1.23,8.48-.87,85.26.41,90l21.08,2.59ZM643.72,1349.14c7.18,9.33,13.6,17.88,20.32,26.18,1,1.22,3.38,1.76,5.15,1.82,18,.57,36,1,54.07,1.4,1.65,0,3.32-.16,5.67-.28-3.18-9.32-6.18-18.13-9.11-26.74ZM756.24,534.43c1.69-9.21,2.2-77.29.65-82.07a14.61,14.61,0,0,0-8.18,3.6c-3.7,3.34-7.42,6.69-11.34,9.76-2.85,2.23-3.87,4.84-3.85,8.41.13,18.25,0,36.5.07,54.75,0,1.82.32,3.65.5,5.55ZM1075,1450l-.83,1.54a9.11,9.11,0,0,1,2.18.87c6.05,4.39,12,9,18.14,13.18a10.62,10.62,0,0,0,5.82,1.68c26.84-.28,53.69-.71,80.53-1.14a14,14,0,0,0,2.76-.76c-1.16-5.84-2.3-11.53-3.45-17.29-3.3,0-5.79,0-8.28,0-14.57.32-29.13.8-43.7,1-15.35.2-30.69.11-46,.23C1079.77,1449.28,1077.39,1449.72,1075,1450Zm298.44-846.3c-.88-.69-1.26-1.26-1.71-1.32-9.49-1.21-17.94-5.59-26.35-9.56-19.78-9.36-38.5-20.73-56.83-32.65q-39.83-25.92-77.43-55c-31-24-61.28-48.84-89.5-76.06-18.79-18.13-37.64-36.28-51.23-59-.15-.24-.49-.36-1.84-1.32,1.73,4.36,2.55,8,4.47,10.93,4.21,6.4,8.75,12.62,13.56,18.58,12.82,15.87,27.51,29.95,42.48,43.78a1151,1151,0,0,0,88.56,73.63c27.58,20.79,55.82,40.7,85.48,58.5,17.11,10.27,34.42,20.12,53.19,27.1C1361.64,603.25,1367.11,604.58,1373.46,603.66Zm-336.57,992-1.22-.26-34.36,59.45c2.56.13,4.06.28,5.56.28,26.86-.07,53.72-.11,80.58-.28,5.94,0,11.86-.6,17.8-.88,1.92-.1,3.34-.62,3.2-2.93a5.53,5.53,0,0,0-1.17-.29q-27.06.17-54.1.34c-3,0-6-.16-9.51-.26-1.2-9.62-2.35-18.71-3.46-27.81S1038,1604.82,1036.89,1595.7ZM763.15,452.11c-1.82,10.33-2.28,78-.55,82.68H779c0-3.1,0-5.36,0-7.62.18-16.13.64-32.26.42-48.38-.1-7,1.4-13.14,5.49-18.82,1.32-1.85,3.14-3.77,2.92-6.54Zm594.66,129.78a31.83,31.83,0,0,0-2.25-3.67c-8.41-9.71-16.38-19.86-25.37-29-34.41-35-72.59-65.53-112.11-94.49-21.65-15.87-43.79-31.15-63.51-49.51a16.42,16.42,0,0,0-2.69-1.68c-3.26,2.63-1.55,4.54.48,6.27,8.61,7.34,17,15,26,21.87,24.41,18.6,49.33,36.54,73.61,55.31,33.77,26.1,65.44,54.54,93.23,87.07A21.68,21.68,0,0,0,1357.81,581.89ZM1187,415.68c1.57,1.14,2.62,1.95,3.71,2.7,40.26,27.88,79,57.69,115.29,90.64,17.2,15.61,34.19,31.44,49,49.44,6.55,8,13.24,15.93,15.92,26.29.06.23.63.34,1.06.56,3-1,4.35-2.82,2.92-6.06-1.23-2.77-2.12-5.74-3.68-8.31-7.81-12.89-17.88-24-28.41-34.61-43.21-43.64-91-81.79-141.12-117.09-3.74-2.64-7.54-5.18-11.56-7.93Zm-127.56-27.11-.69.25c.76,1.91,1.23,4,2.35,5.69,3.72,5.58,7.37,11.26,11.61,16.44,16.24,19.8,34.59,37.55,53.65,54.58,49.91,44.6,102.82,85.24,159.71,120.6,18.41,11.44,37.16,22.23,57.54,29.91a42.71,42.71,0,0,0,16.77,2.84c-4.31-1.41-7.56-2.38-10.76-3.53-14.11-5.09-27.33-12.1-40.31-19.5a812.47,812.47,0,0,1-68.67-44.27c-40.85-29.09-80.24-60-117.3-93.86-16.75-15.29-32.92-31.13-47.74-48.3C1069.91,402.77,1064.85,395.54,1059.48,388.57Zm27.66,148.58c.1-2.45.25-4.48.25-6.52q0-21.57,0-43.13c0-5.55,1.2-11.65-.71-16.48-2-5-7.1-8.88-10.84-13.24a7,7,0,0,0-1.58-1.66c-1.37-.79-2.84-1.4-5-2.45.39,28,.76,54.88,1.14,82Zm-155-68.55c8.95,1.21,72.62.8,77-.55-.33-4.65-.67-9.39-1-14.38l-79.29-1.5ZM785.71,402.14l19.45-53.51c-2,4.71-6.39,6.27-10.47,8.16-1.39.65-2.76,1.34-4.09,2.11-2.32,1.35-4.7,3.19-7.42,1.39-4.94-3.28-11.95-3.4-14.93-9.67-.49-1-.8-2.15-1.2-3.23l-2.34-6.29c-.75,15.16-.78,30.21-.67,45.25a4.52,4.52,0,0,0,1.78,3.22C772,393.66,778.39,397.56,785.71,402.14ZM712,1468.35c8,8.85,15.35,17.13,22.9,25.22.84.89,2.8,1.08,4.21,1,3.44-.15,6.86-.61,10.27-1,4.29-.52,8.56-1.11,13.77-1.8-7.38-14.46-14.39-28.18-21.7-42.52Zm24-19.95c-2-.19-2.72-.3-3.41-.32-17.41-.45-34.83-.86-52.24-1.35-4.39-.13-8.78-.48-13.16-.78-1.95-.13-3.76-.27-5.09,1.68-3.56,5.18-7.22,10.28-11.35,16.14a45.12,45.12,0,0,0,5.58,1c11.09.42,22.19.84,33.28,1.09,6.51.14,13.39,1.28,19.42-.43,5.82-1.66,10.76-6.4,16.06-9.82C728.34,1453.48,731.58,1451.29,736,1448.4Zm331.77,2.07c-9,14.38-17.66,28.07-26.8,42.6,8,1,14.89,2,21.85,2.71,1.23.11,2.79-1.07,3.88-2,5.08-4.38,10.08-8.86,15.06-13.36,3.91-3.54,7.76-7.14,11.94-11ZM1289.89,1195l38.93-55.73c-13.64-.42-26.13-2-38.93-1ZM787.73,1646.2l-22.56-56.4c-9.22-.63-17.7.91-26.39,2a10.54,10.54,0,0,0,.58,1.91q16.65,24.12,33.34,48.22c.63.92,1.44,2.18,2.35,2.37C778.9,1645.08,782.81,1645.5,787.73,1646.2ZM729.14,534.65c.13-2.55.33-4.61.34-6.67q.07-15.26,0-30.52c0-7.68.06-15.35,0-23-.06-3.89-.59-4.59-4.14-4.83-4-.26-7.94-.06-12.26-.06v63.69Zm133.6-79-1.06-.62c-1.12,1.19-2.35,2.29-3.35,3.57-2.23,2.88-4.25,5.92-6.55,8.74a11.74,11.74,0,0,0-2.59,7.93c.1,19,0,38,.07,56.93,0,1.47.28,2.93.46,4.74,2.42,0,4.5,0,6.59,0s4-.15,6.43-.25ZM857,454.22c-.78-.54-1.07-.92-1.36-.91-19.77.06-39.55.12-59.33.33a5.49,5.49,0,0,0-3.92,1.9c-2.63,3.67-4.88,7.6-7.87,12.39l61.5,1.35Zm481.45,120.1,1.45-1.35c-5.93-6.46-11.66-13.13-17.84-19.35-32.43-32.6-68-61.49-105-88.72-18.85-13.87-37.39-28.16-56-42.39-4-3-7.49-6.59-11.23-9.9-1.56-1.38-3.12-3-5.41-.87a5.66,5.66,0,0,0,.71,1.56c1.47,1.51,3,3,4.54,4.41,17.8,16.18,37.68,29.68,56.87,44.05,24.9,18.63,49.93,37.09,73.36,57.58,18.22,15.92,35.89,32.42,52.64,49.9A77.81,77.81,0,0,0,1338.4,574.32Zm-63-45.69c2.75-6,2.86-6.13-1.72-9.78q-25.41-20.22-51-40.27a45.1,45.1,0,0,0-3.91-2.35c2.93,7.85,5.6,14.53,7.9,21.34a17.34,17.34,0,0,0,6.79,8.93c8.27,5.88,16.65,11.65,24.58,18A19.48,19.48,0,0,0,1275.42,528.63ZM1046.81,1647.28l9.12-2c2.17-17.61,4.87-34.59,6.57-52.19-7.75-1-14.68-2.87-22.46-2C1042.31,1609.92,1044.48,1628,1046.81,1647.28ZM778.6,402c-5.5-3.45-9.71-6.32-14.16-8.77a16.38,16.38,0,0,0-6.94-2.13c-12.83-.58-25.67-.86-38.51-1.3-5.17-.18-10.33-.58-15.49-.72-4.48-.13-9,0-13.43,0a114.25,114.25,0,0,0,16.17,11.2,6.91,6.91,0,0,0,3.3.72q32.49.75,65,1.4C775.39,402.34,776.26,402.18,778.6,402Zm223.75-95-.6-1.42c-7.27,0-14.55.2-21.81,0-16.26-.53-32.51-1.3-48.76-1.87a6.6,6.6,0,0,0-4.19,1.18c-2.87,2.45-5.44,5.26-8.94,8.74,3.2.43,5.36.92,7.52,1,8.43.18,16.86.14,25.29.33,12.82.29,25.64.77,38.46,1a8.91,8.91,0,0,0,5.31-1.44A91.86,91.86,0,0,0,1002.35,306.92Zm287,314.52c7,2.24,33.44,2.8,38.64,1-3.23-6.07-6-12.1-12.78-15.61-11-5.72-21.62-12.27-32.42-18.45-1.24-.71-2.59-1.25-3.89-1.86a57.7,57.7,0,0,0,7.57,10.2,10.63,10.63,0,0,1,2.92,7.81C1289.28,610.25,1289.37,616,1289.37,621.44Zm75.3-41.11,1-.74c-3.85-5.62-7.06-11.71-11.72-16.73-11.62-12.5-23-25.25-35.3-37.08-33.35-32.14-69.51-60.94-107-88.15-7.91-5.75-16-11.27-24-16.83-1.39-.95-3-2.9-4.83,0a25.8,25.8,0,0,0,2.18,1.81,1102.81,1102.81,0,0,1,101.7,78.15c23.65,20.48,46.87,41.44,67,65.54C1357.54,570.87,1361,575.66,1364.67,580.33ZM773.08,1489c.41,3,2.49,2.37,4,2.4,17.07.37,34.15.91,51.23,1q78.3.26,156.62.19c14.59,0,29.18-.09,43.77-.18,4.07,0,4.07-.1,5.72-3.72a28.7,28.7,0,0,1-4.78,1c-7.86.39-15.72.91-23.58.88q-87.81-.37-175.61-1c-17.85-.12-35.69-.6-53.53-.89C775.69,1488.66,774.45,1488.88,773.08,1489Zm437.8-6.1c2.14.22,2.84.38,3.54.35,10-.39,19.93-.65,29.87-1.28,5.32-.34,10.93-.44,15.81-2.25,7.1-2.62,12.6-8.15,18.56-12.85-3.66-.14-7.07.37-10.49.52-11.68.53-23.37.89-35.05,1.44a9.57,9.57,0,0,0-4.74,1.46C1222.87,1474.07,1217.52,1478.09,1210.88,1482.9ZM805.27,334.11c-2.26-6.29-2.4-13.28-10.21-15.74-4.15-1.31-11.78,1.17-13.76,5.17-3.42,6.93-3.78,13.82-.09,20.8,1.67,3.14,9.16,6.85,12.21,5.54,2.61-1.12,5.89-2.18,7.27-4.3C802.93,342.14,803.86,337.85,805.27,334.11Zm375.9,199.27c0-4.64-.18-8.65,0-12.64.19-3.27-1.26-5.41-3.66-7.31-5.7-4.52-11.33-9.15-17-13.7-1-.77-2.08-1.36-3.29-2.15v35.8Zm40.06-36.6.77-.57c-2.56-6.7-5.29-13.34-7.63-20.12a15.65,15.65,0,0,0-6-8c-7.63-5.44-15.21-11-22.65-16.65a10.77,10.77,0,0,0-10.72-1.86c4.64,4.06,8.78,7.93,13.19,11.45,3.06,2.44,5.08,5.12,4.63,9.19-.36,3.25,1.35,5.36,3.81,7.18,3.07,2.28,6,4.75,9,7.12Q1213.4,490.65,1221.23,496.78ZM1076.68,453.2c3.7,4.24,6.89,7.5,9.6,11.12a10.45,10.45,0,0,0,10.18,4.59c7.8-.64,15.64-.68,23.46-1a18.05,18.05,0,0,0,3-.81c-5.24-4.74-9.81-9.07-14.63-13.09a9,9,0,0,0-5.17-1.72c-6.88-.19-13.76-.12-20.64,0A44.64,44.64,0,0,0,1076.68,453.2Zm98.29-9c-11.57-9.84-22.77-19.39-34-28.87a4.54,4.54,0,0,0-3.06-1.14c-3.26.39-6.49,1.11-10.93,1.93,7.16,6.81,13.43,13,19.93,18.88,11.41,10.36,11.47,10.29,27,9.48A9.37,9.37,0,0,0,1175,444.23Zm106,80.49c-.8,3.24-2,5.28-1.47,6.41,2.62,5.24,4.5,11.12,9.9,14.46q14,8.61,28,17.12c1.43.88,3,1.53,4.52,2.28l.68-1.11ZM794.51,449.84l.36-1.57a17.4,17.4,0,0,0-9.94-3c-16.68-.43-33.35-.84-50-1.33-6.7-.19-13.4-.57-20.1-.81-2.42-.09-4.83,0-7.81,0,2.34,3.22,5.09,4,8.24,4.05q21.84.58,43.69,1.24c1.92.05,3.84.11,5.75.19ZM915.14,321.28c3.53.45,6.55,1.11,9.58,1.19,19.94.55,39.88,1,59.81,1.44a38.63,38.63,0,0,0,4-.06c2.53-.21,2.63-1.69,1.63-4l-75.05-2.34Zm148.39,1124.78c2.5,0,4.92,0,7.34,0,9-.22,18-.57,27.05-.73,25.34-.43,50.67-.78,76-1.19a23.36,23.36,0,0,0,3.34-.57c-1.6-3.53-4.24-2.25-6.23-2.23q-33.69.43-67.37,1.09c-12.09.24-24.18.62-36.27.94C1065.67,1443.4,1063.83,1443.26,1063.53,1446.06Zm54.25-1042.92c4.33-1.88,9.24-2.56,11.68-5.37,6.28-7.25,11-15.6,11-25.81a4.58,4.58,0,0,0-2.31-4.2c-4.6-3.15-7-2.85-12,1.58,1.72.81,3.58,1.7,5.45,2.56s2.3,2.29,2.24,4.21a23.72,23.72,0,0,1-6.23,15.09c-4.55,5.18-11,4.44-14.77-1.39-1-1.59-1.79-3.21-5.28-3.25,1.38,2.23,2.2,3.71,3.17,5.09,1.5,2.13,3.19,4.12,4.62,6.29A45.23,45.23,0,0,1,1117.78,403.14ZM1268,365.87c-1.18,12.25-.7,49,.64,52.79,3.42-1.82,4.6-4.75,4.66-8.5.18-11.87.28-23.75.87-35.61C1274.43,369.87,1272.55,367.48,1268,365.87ZM782.29,307.49c-6.34-4.79-11.54-9.95-18.2-14.31v33.43a26.07,26.07,0,0,0,3.66-8.14,8.42,8.42,0,0,1,5-5.81C775.82,311.21,778.74,309.44,782.29,307.49Zm344.21,77.38c2.69-2.08,2.72-3.89.62-5.57-5.81-4.66-11.4-9.68-17.63-13.7-3.56-2.31-8.14-3.17-12.37-4.26a17.06,17.06,0,0,0-6.83-.1,3.78,3.78,0,0,0-2.4,2.67c-.09.72,1.46,1.79,2.45,2.44.57.36,1.5.17,2.26.25,9.85,1,18.27,5.22,25.75,11.52C1121,380.33,1123.64,382.5,1126.5,384.87ZM746.31,453.24c-.18-.42-.35-.84-.52-1.25-4.38,0-8.77-.05-13.15,0a5.53,5.53,0,0,0-3.24.72c-4.59,3.81-9.41,7.42-13.38,12.49,4.16.5,7.72,1.15,11.3,1.28a8.54,8.54,0,0,0,5.27-1.37C737.32,461.37,741.76,457.24,746.31,453.24Zm-2.46,990.22a66.32,66.32,0,0,0-18.3-2.24c-6.13,0-12.25,0-18.38-.17-6.3-.18-12.6-.5-18.9-.85-13.48-.74-15.24-.65-19.11,2,10.33,1.49,19.82.6,29.18,1.31C713.46,1444.65,728.66,1444.15,743.85,1443.46Zm-8.86,205c1.74,3.47,5.23,4.16,8.93,4.28q21.51.7,43,1.31c1.82.06,3.64,0,5.74,0-.74-2.66-2.21-3.19-4.05-3.29-5.53-.3-11.06-.73-16.6-1C759.68,1649.27,747.31,1648.86,735,1648.41ZM1153.33,533.25c-.35-13-.63-25.81-1.14-38.57,0-1.33-1.49-2.61-2.28-3.91l-1,.45v42ZM789,403.75l1.54.49a22.69,22.69,0,0,0,1.22-2.41q12.56-34.87,25.05-69.76c0-.12-.13-.38-.27-.49s-.33,0-1.13-.1C806.66,355.46,797.84,379.61,789,403.75ZM888.7,1722.36c0-.26,0-.52,0-.77l-127.16-1.69c0,.35,0,.7,0,1.06ZM1003.92,701.65l0-.32H891.24v.32Zm202.51,785.76,0,1.56c7.58,0,15.16.06,22.74,0,14.53-.14,19.32-.88,23.14-4Zm-68-1082.3c3.31-5.66,6.75-10.24,9.42-15.77l-6.77-2.24-7.49,12.38Zm-44.61-34.8c5.53,3.61,11.33,7.21,16.91,11.11,3,2.07,5.53,4.69,8.31,7,1.33,1.12,2.73,2.28,4.86,0C1115.49,379.36,1106.16,372.1,1093.79,370.31ZM997.17,1722.87l0-.44H902.7v.44Zm268.71-230.56h-.65v86.18h.65ZM1142.63,383.46l6.6,2.57c.67-5.17,1.27-9.73,1.87-14.38l-6.62-1.38C1143.85,374.81,1143.27,378.88,1142.63,383.46Zm-370.8-65.17c-1.55,4.6-3,8.83-4.52,13.38h7.47c1.13-3.56,2.18-6.9,3.28-10.37Zm-.08,31.53,6.37-3.52-3.69-10.23h-7.26C768.68,340.6,770.05,344.7,771.75,349.82ZM1082.83,366c1.86-7.21,5.09-9.6,12.05-8.54,1.87.29,3.73.66,5.59,1-4.55-3.62-9.91-3.92-15.17-4.32-2.8-.21-4.85,1.62-4.55,3.9A62.72,62.72,0,0,0,1082.83,366ZM1373.5,590.14a62.41,62.41,0,0,0,6.36,0c2.35-.26,4.09-1.62,3.62-4.15-.81-4.41-1.78-8.86-6.15-12.33.75,3.34,2.3,6.31,1.72,8.77S1375.8,587.1,1373.5,590.14ZM1121.21,405.93c3.65,5.51,5.89,5.47,13.25.41l-4.24-3.93Zm64.16,59.16c-3.67-5.64-14.73-14.15-19.49-15C1171.58,456.76,1181.68,464.53,1185.37,465.09Zm-2.29,976.28-1.65.41c1.41,2.71,3,5.35,4.18,8.13,4,9.07,7.93,18.2,11.93,27.28a22.21,22.21,0,0,0,1.85,3l.78-.43Q1191.62,1460.56,1183.08,1441.37Zm-85.5-741.27,0,.32h52.78v-.32Zm-344.86,0,.24.35h51.69v-.35Zm351.15-319c-3.32-2.73-6.15-5-11.45-5.51,3.14,4.55,4.76,8.54,8.68,11.36ZM775.38,315.31c5.2,3.73,5.34,3.71,12.55-1.25l-2.67-3.78C781.87,312,778.74,313.61,775.38,315.31Zm0,37.11,10.12,5,2.21-3.9C780.85,349.35,780.85,349.35,775.37,352.42Zm376.68,40.11c-3.86,2.48-8.42,10.12-8.29,13.89C1147.71,403.63,1152.26,396,1152.05,392.53Zm55.82,306.85.22-.39h-34.57v.39ZM693.68,699v.35h33.6V699ZM757,1468.42l-1,.6a249.47,249.47,0,0,0,11.52,22.13l1.24-.67Zm494-771.33a103.13,103.13,0,0,0,29.77-2.44Zm-601.64.55-.13-.68-27.15-2.13-.06,1.24Zm59.31-161.85c0-.52,0-1,0-1.54H688.5l0,.31ZM681.35,698.2l-.09-.44H656.77v.44Zm389.55-41.82.2.22h22.6v-.22Zm150.8,41.4.21.31h22.19l0-.31Zm-36-176.92v12.45C1188.93,530,1189.09,525.24,1185.72,520.86ZM810.62,656.45l-.13.2H830v-.2Zm365.31-1v-.18h-16.35v.18Zm26.45-120.54c-.09-.43-.17-.85-.26-1.28-3.44.91-7.22-1-10.39,2.35Zm60.88,948-6.42,1.64.18.89,8.09,1.29ZM726.18,655.29l.23.19H740.9v-.19ZM915.86,326l0-.45H899.52V326Zm238.65,62.09q.73-5.42,1.46-10.83C1153,380.5,1153.07,384.19,1154.51,388.05Zm31.82,21.61-1.45-1-3.9,6.54,1.27.79ZM743.77,1719v.39h11.77V1719ZM626.91,1469l-.63.88,5.91,4,.61-1Zm650.7-931.85c-1.25-3.44-2.31-5-5.37-3.46ZM661.82,1441c.15.41.31.82.46,1.22l3.2-1.15c-.15-.4-.29-.79-.44-1.18ZM1065.06,407.28c.12,3.51.12,3.51,2.24,3.3C1066.74,409.76,1066.24,409,1065.06,407.28ZM749,1453.58l-.88.32a15.11,15.11,0,0,0,.91,1.85,7.49,7.49,0,0,0,1.16,1.08l.39-.43Zm439.27,14.18.71-.27-1.24-3.24-.69.26C1187.41,1465.59,1187.82,1466.67,1188.22,1467.76Z"/><path class="cls-1" d="M1244.22,387c-.78,6.6-.83,7.28,5.39,10.52-1.58,3.16-3.06,6.42-4.83,9.49a3.94,3.94,0,0,1-2.83,1.48c-3,.19-6,.07-9,.07a25.15,25.15,0,0,0-2-4c-3.46-4.56-2.89-9-.23-13.73,1.33-2.37,2.55-4.08,5.55-3.91C1238.9,387.07,1241.53,387,1244.22,387Zm-9.77,5.44c-3.1,5.56-3.1,5.56,1.23,12.27l5.87-1.71C1242.61,394.27,1241.15,392.11,1234.45,392.39Z"/></svg>