<svg width="102" height="101" viewBox="0 0 102 101" fill="none" xmlns="http://www.w3.org/2000/svg">
<g clip-path="url(#clip0_1_44)">
<mask id="mask0_1_44" style="mask-type:luminance" maskUnits="userSpaceOnUse" x="0" y="0" width="102" height="101">
<path d="M102 0H0V101H102V0Z" fill="white"/>
</mask>
<g mask="url(#mask0_1_44)">
<path d="M51 0L52.0399 29.54C52.274 36.1996 60.3111 39.496 65.2326 34.9511L87.0626 14.7911L66.7029 36.407C62.1129 41.2802 65.4422 49.2385 72.1676 49.4706L102 50.5L72.1676 51.5297C65.4422 51.7615 62.1129 59.7198 66.7029 64.593L87.0626 86.2091L65.2326 66.0489C60.3111 61.5039 52.274 64.8006 52.0399 71.46L51 101L49.9604 71.46C49.726 64.8006 41.6889 61.5039 36.7675 66.0489L14.9375 86.2091L35.2971 64.593C39.8871 59.7198 36.558 51.7615 29.8325 51.5297L0 50.5L29.8325 49.4706C36.558 49.2385 39.8871 41.2802 35.2971 36.407L14.9375 14.7911L36.7675 34.9511C41.6889 39.496 49.726 36.1996 49.9604 29.54L51 0Z" fill="#0A0A0A"/>
</g>
</g>
<defs>
<clipPath id="clip0_1_44">
<rect width="102" height="101" fill="white"/>
</clipPath>
</defs>
</svg>
