<svg width="102" height="102" viewBox="0 0 102 102" fill="none" xmlns="http://www.w3.org/2000/svg">
<path fill-rule="evenodd" clip-rule="evenodd" d="M50.9997 78.4773C71.985 78.4773 90.194 65.0454 99.2598 56.9532C102.912 53.6928 102.912 48.2445 99.2598 44.984C90.194 36.8919 71.985 23.46 50.9997 23.46C30.0143 23.46 11.8054 36.8919 2.73953 44.9841C-0.91318 48.2445 -0.913175 53.6928 2.73954 56.9532C11.8054 65.0454 30.0143 78.4773 50.9997 78.4773ZM50.9997 70.1607C61.5993 70.1607 70.1918 61.5682 70.1918 50.9685C70.1918 40.3691 61.5993 31.7765 50.9997 31.7765C40.4002 31.7765 31.8077 40.3691 31.8077 50.9685C31.8077 61.5682 40.4002 70.1607 50.9997 70.1607Z" fill="#0A0A0A"/>
</svg>
