<svg width="101" height="101" viewBox="0 0 101 101" fill="none" xmlns="http://www.w3.org/2000/svg">
<g clip-path="url(#clip0_1_108)">
<mask id="mask0_1_108" style="mask-type:luminance" maskUnits="userSpaceOnUse" x="0" y="0" width="101" height="101">
<path d="M101 0H0V101H101V0Z" fill="white"/>
</mask>
<g mask="url(#mask0_1_108)">
<path fill-rule="evenodd" clip-rule="evenodd" d="M14.7911 14.7911C9.72923 19.853 7.90113 26.9241 9.30685 33.4372C3.70737 37.0487 0 43.3414 0 50.5C-8.79488e-07 57.6584 3.70737 63.9512 9.30685 67.5629C7.90113 74.0759 9.72923 81.1469 14.7911 86.2091C19.853 91.2707 26.9241 93.0988 33.4372 91.6934C37.0488 97.2928 43.3414 101 50.5 101C57.6584 101 63.9512 97.2928 67.5629 91.6934C74.0759 93.0988 81.1469 91.2707 86.2091 86.2091C91.2707 81.1469 93.0988 74.0759 91.6934 67.5629C97.2928 63.9512 101 57.6584 101 50.5C101 43.3414 97.2928 37.0487 91.6934 33.4372C93.0988 26.9241 91.2707 19.853 86.2091 14.7911C81.1469 9.72923 74.0759 7.90113 67.5629 9.30685C63.9512 3.70737 57.6584 0 50.5 0C43.3414 0 37.0487 3.70736 33.4372 9.3068C26.9241 7.90113 19.853 9.72923 14.7911 14.7911Z" fill="#0A0A0A"/>
</g>
</g>
<defs>
<clipPath id="clip0_1_108">
<rect width="101" height="101" fill="white"/>
</clipPath>
</defs>
</svg>
