<svg width="101" height="102" viewBox="0 0 101 102" fill="none" xmlns="http://www.w3.org/2000/svg">
<g clip-path="url(#clip0_1_132)">
<mask id="mask0_1_132" style="mask-type:luminance" maskUnits="userSpaceOnUse" x="0" y="0" width="101" height="102">
<path d="M101 0H0V102H101V0Z" fill="white"/>
</mask>
<g mask="url(#mask0_1_132)">
<path d="M50.5 0L51.1989 44.4041C51.2272 46.1902 53.3538 47.0798 54.6243 45.8369L86.2091 14.9375L55.6126 46.8351C54.3819 48.1181 55.2627 50.2658 57.0312 50.2942L101 51L57.0312 51.7058C55.2627 51.7344 54.3819 53.882 55.6126 55.1652L86.2091 87.0626L54.6243 56.1632C53.3538 54.9204 51.2272 55.8098 51.1989 57.5958L50.5 102L49.8011 57.5958C49.773 55.8098 47.6464 54.9204 46.3759 56.1632L14.7911 87.0626L45.3875 55.1652C46.6183 53.882 45.7374 51.7344 43.9688 51.7058L0 51L43.9688 50.2942C45.7374 50.2658 46.6183 48.1181 45.3875 46.8351L14.7911 14.9375L46.3759 45.8369C47.6464 47.0798 49.773 46.1902 49.8011 44.4041L50.5 0Z" fill="#0A0A0A"/>
</g>
</g>
<defs>
<clipPath id="clip0_1_132">
<rect width="101" height="102" fill="white"/>
</clipPath>
</defs>
</svg>
