<svg width="101" height="101" viewBox="0 0 101 101" fill="none" xmlns="http://www.w3.org/2000/svg">
<g clip-path="url(#clip0_1_144)">
<mask id="mask0_1_144" style="mask-type:luminance" maskUnits="userSpaceOnUse" x="0" y="0" width="101" height="101">
<path d="M101 0H0V101H101V0Z" fill="white"/>
</mask>
<g mask="url(#mask0_1_144)">
<path fill-rule="evenodd" clip-rule="evenodd" d="M0 0C0 27.8904 22.6096 50.5 50.5 50.5C22.6096 50.5 0 73.1099 0 101H6.06C6.06 76.4565 25.9564 56.56 50.5 56.56C75.0435 56.56 94.94 76.4565 94.94 101H101C101 73.1099 78.3901 50.5 50.5 50.5C78.3901 50.5 101 27.8904 101 0H94.94C94.94 24.5436 75.0435 44.44 50.5 44.44C25.9564 44.44 6.06 24.5436 6.06 0H0ZM12.12 0C12.12 21.1967 29.3033 38.38 50.5 38.38C71.6969 38.38 88.88 21.1967 88.88 0H82.82C82.82 17.8498 68.3497 32.32 50.5 32.32C32.6502 32.32 18.18 17.8498 18.18 0H12.12ZM24.24 0C24.24 14.503 35.997 26.26 50.5 26.26C65.0031 26.26 76.76 14.503 76.76 0H70.7C70.7 11.1562 61.656 20.2 50.5 20.2C39.3438 20.2 30.3 11.1562 30.3 0H24.24ZM50.5 62.62C71.6969 62.62 88.88 79.8031 88.88 101H82.82C82.82 83.1503 68.3497 68.68 50.5 68.68C32.6502 68.68 18.18 83.1503 18.18 101H12.12C12.12 79.8031 29.3033 62.62 50.5 62.62ZM50.5 74.74C65.0031 74.74 76.76 86.4969 76.76 101H70.7C70.7 89.844 61.656 80.8 50.5 80.8C39.3438 80.8 30.3 89.844 30.3 101H24.24C24.24 86.4969 35.997 74.74 50.5 74.74Z" fill="#0A0A0A"/>
</g>
</g>
<defs>
<clipPath id="clip0_1_144">
<rect width="101" height="101" fill="white"/>
</clipPath>
</defs>
</svg>
