<svg width="114" height="107" viewBox="0 0 114 107" fill="none" xmlns="http://www.w3.org/2000/svg">
<path d="M23.8113 33.4041C25.2032 16.2929 39.5307 2.78412 57.0512 2.78412C75.4723 2.78412 90.3729 17.6847 90.3729 36.1058C90.3729 47.8134 84.3963 58.0474 75.3085 64.024" stroke="black" stroke-width="5.5" stroke-linecap="round" stroke-linejoin="round"/>
<path d="M52.057 100.13C36.747 107.989 17.671 102.831 8.50135 87.9306C-1.24136 72.2113 3.67093 51.6616 19.3903 42.0007C29.6242 35.6966 41.9049 35.6147 51.8933 40.6089" stroke="black" stroke-width="5.5" stroke-linecap="round" stroke-linejoin="round"/>
<path d="M61.5541 47.9772C62.946 49.4509 64.174 51.0883 65.2384 52.8895C73.1799 65.8252 71.2969 81.9539 61.636 92.6791" stroke="black" stroke-width="5.5" stroke-linecap="round" stroke-linejoin="round"/>
<path d="M95.6946 42.41C109.94 51.8252 114.934 70.7375 106.747 86.0475C97.987 102.258 77.7647 108.398 61.5541 99.6382C51.2383 94.0709 45.0161 83.837 44.1155 72.948" stroke="black" stroke-width="5.5" stroke-linecap="round" stroke-linejoin="round"/>
<path d="M45.2617 60.913C45.9167 58.7025 46.8172 56.5738 47.8816 54.527C55.0863 41.1001 70.2325 34.6322 84.3963 37.7433" stroke="black" stroke-width="5.5" stroke-linecap="round" stroke-linejoin="round"/>
<path d="M64.174 68.7724C61.8816 69.2636 59.5073 69.5092 57.1331 69.5092C41.9868 69.5092 29.2149 59.439 25.1213 45.5209" stroke="black" stroke-width="5.5" stroke-linecap="round" stroke-linejoin="round"/>
</svg>
