<svg width="99" height="100" viewBox="0 0 99 100" fill="none" xmlns="http://www.w3.org/2000/svg">
<path d="M49.4487 98.7599C76.3506 98.7599 98.1589 76.9516 98.1589 50.0497C98.1589 23.1478 76.3506 1.33954 49.4487 1.33954C22.5468 1.33954 0.738525 23.1478 0.738525 50.0497C0.738525 76.9516 22.5468 98.7599 49.4487 98.7599Z" stroke="#0B0B0B" stroke-miterlimit="10"/>
<path d="M49.4486 98.5699V1.1496" stroke="#0B0B0B" stroke-miterlimit="10"/>
<path d="M0.738525 49.8597H98.1589" stroke="#0B0B0B" stroke-miterlimit="10"/>
<path d="M0.899231 52.719C0.899231 52.719 7.99142 85.1843 49.5412 85.1843C92.8932 85.1843 97.9932 52.1978 97.9932 52.1978" stroke="#0B0B0B" stroke-miterlimit="10"/>
<path d="M97.9932 47.8723C97.9932 47.8723 90.9936 14.4328 49.4487 14.4328C6.09663 14.4328 0.899231 48.3935 0.899231 48.3935" stroke="#0B0B0B" stroke-miterlimit="10"/>
<path d="M83.843 84.5414L14.9716 15.67" stroke="#0B0B0B" stroke-miterlimit="10"/>
<path d="M14.8596 84.3465L83.7455 15.4655" stroke="#0B0B0B" stroke-miterlimit="10"/>
<path d="M49.4487 70.8977C60.9627 70.8977 70.2966 61.5637 70.2966 50.0497C70.2966 38.5357 60.9627 29.2018 49.4487 29.2018C37.9347 29.2018 28.6007 38.5357 28.6007 50.0497C28.6007 61.5637 37.9347 70.8977 49.4487 70.8977Z" stroke="#0B0B0B" stroke-miterlimit="10"/>
<path d="M49.4487 70.8977C76.3506 70.8977 98.1589 61.5637 98.1589 50.0497C98.1589 38.5357 76.3506 29.2018 49.4487 29.2018C22.5468 29.2018 0.738525 38.5357 0.738525 50.0497C0.738525 61.5637 22.5468 70.8977 49.4487 70.8977Z" stroke="#0B0B0B" stroke-miterlimit="10"/>
<path d="M49.9309 98.7599C61.4449 98.7599 70.7788 76.9516 70.7788 50.0497C70.7788 23.1478 61.4449 1.33954 49.9309 1.33954C38.4169 1.33954 29.0829 23.1478 29.0829 50.0497C29.0829 76.9516 38.4169 98.7599 49.9309 98.7599Z" stroke="#0B0B0B" stroke-miterlimit="10"/>
<path d="M49.2538 98.1802C68.7926 98.1802 84.632 76.3719 84.632 49.4701C84.632 22.5682 68.7926 0.759888 49.2538 0.759888C29.715 0.759888 13.8756 22.5682 13.8756 49.4701C13.8756 76.3719 29.715 98.1802 49.2538 98.1802Z" stroke="#0B0B0B" stroke-miterlimit="10"/>
</svg>
