<svg width="89" height="102" viewBox="0 0 89 102" fill="none" xmlns="http://www.w3.org/2000/svg">
<path d="M53.2603 54.9464L44.7564 59.7265V55.3995V50.7914L53.2603 46.0113V54.9464ZM53.0001 45.584L44.5064 50.3583L36.0128 45.584L44.5064 40.8096L53.0001 45.584ZM35.7525 54.9464V46.0113L44.2564 50.7914V55.3995V59.7265L35.7525 54.9464Z" stroke="#121212" stroke-width="0.5"/>
<path d="M26.3571 40.4689L44.3844 29.9353L62.6556 40.4698V60.9659L44.3844 71.3123L26.3571 60.9669V40.4689Z" stroke="#121212" stroke-width="0.5"/>
<path d="M17.9734 35.5483L44.5064 20.6084L71.0394 35.5483V65.042L44.5064 79.8582L17.9734 65.0421L17.9734 35.5483Z" stroke="#121212" stroke-width="0.5"/>
<path d="M26.4986 40.5007L18.2777 35.7778" stroke="#121212" stroke-width="0.5"/>
<path d="M62.477 40.5229L70.9279 35.6679" stroke="#121212" stroke-width="0.5"/>
<path d="M44.5065 71.0304L44.5065 79.5107" stroke="#121212" stroke-width="0.5"/>
<path d="M44.5065 89.8562L44.5065 100.345" stroke="#121212" stroke-width="0.5"/>
<path d="M78.957 31.0551L87.9609 25.8824" stroke="#121212" stroke-width="0.5"/>
<path d="M10.0577 31.0558L1.05384 25.8831" stroke="#121212" stroke-width="0.5"/>
<path d="M9.8378 30.9559L44.5075 11.2862L79.1771 30.9559V70.2878L44.5075 89.9575L9.8378 70.2878V30.9559Z" stroke="#121212" stroke-width="0.5"/>
<path d="M1.02308 25.743L44.5074 0.41164L87.9917 25.743V75.728L44.5074 100.834L1.02307 75.728L1.02308 25.743Z" stroke="#121212" stroke-width="0.5"/>
</svg>
