<svg width="101" height="102" viewBox="0 0 101 102" fill="none" xmlns="http://www.w3.org/2000/svg">
<path d="M44.9637 64.5264V86.9709H35.6119L50.4252 101.784L65.3134 86.9709H55.9615V64.5264H44.9637Z" fill="#0F0F0F"/>
<path d="M55.9615 38.1167V15.6722H65.3134L50.5 0.784119L35.6119 15.6722H44.9637V38.1167H55.9615Z" fill="#0F0F0F"/>
<path d="M55.9615 64.5264L71.8222 80.3871L65.1637 87.0456H86.1867V66.0227L79.5282 72.6812L63.6674 56.8204L55.9615 64.5264Z" fill="#0F0F0F"/>
<path d="M44.9637 38.1167L29.103 22.256L35.7615 15.5974H14.7385V36.6204L21.397 29.9619L37.2578 45.8226L44.9637 38.1167Z" fill="#0F0F0F"/>
<path d="M63.6674 56.8204H86.1119V66.1722L101 51.3589L86.1119 36.4708V45.8226H63.6674V56.8204Z" fill="#0F0F0F"/>
<path d="M37.2578 45.8226H14.8133V36.4708L0 51.2841L14.8133 66.1722V56.8204H37.2578V45.8226Z" fill="#0F0F0F"/>
<path d="M63.6674 45.8226L79.5282 29.9619L86.1867 36.6204V15.5974H65.1637L71.8222 22.256L55.9615 38.1167L63.6674 45.8226Z" fill="#0F0F0F"/>
<path d="M37.2578 56.8204L21.397 72.6812L14.7385 66.0227V87.0456H35.7615L29.103 80.3871L44.9637 64.5264L37.2578 56.8204Z" fill="#0F0F0F"/>
</svg>
