<svg width="186" height="162" viewBox="0 0 186 162" fill="none" xmlns="http://www.w3.org/2000/svg">
<path d="M66.7237 92.1972C66.7105 92.1733 66.7035 92.1464 66.7035 92.119C66.7035 92.0917 66.7105 92.0648 66.7237 92.0408L93.2639 46.0415C93.2777 46.016 93.2982 45.9947 93.3231 45.9799C93.3481 45.965 93.3766 45.9572 93.4056 45.9572C93.4346 45.9572 93.4631 45.965 93.488 45.9799C93.513 45.9947 93.5334 46.016 93.5473 46.0415L102.949 62.3194C102.964 62.3438 102.985 62.3638 103.01 62.3776C103.035 62.3913 103.063 62.3982 103.091 62.3976L128.82 62.4074C128.849 62.4071 128.876 62.3994 128.901 62.3849C128.925 62.3704 128.946 62.3497 128.959 62.3249C128.973 62.3001 128.98 62.2721 128.98 62.2436C128.98 62.2152 128.972 62.1874 128.957 62.163L93.5522 0.82409C93.5388 0.79834 93.5187 0.776686 93.494 0.761413C93.4693 0.74614 93.4409 0.737814 93.4119 0.737313C93.3829 0.736813 93.3543 0.744159 93.3291 0.758572C93.3039 0.772985 93.283 0.793934 93.2687 0.819206L40.6039 92.0262C40.5888 92.0513 40.5808 92.08 40.5808 92.1093C40.5808 92.1385 40.5888 92.1672 40.6039 92.1923L63.1417 131.228C63.1563 131.252 63.1772 131.272 63.2021 131.286C63.2269 131.3 63.255 131.307 63.2834 131.306H89.0124C89.0401 131.305 89.0671 131.298 89.0909 131.283C89.1147 131.269 89.1344 131.249 89.1482 131.225C89.1619 131.201 89.1693 131.174 89.1694 131.146C89.1696 131.118 89.1626 131.091 89.1492 131.067L66.7237 92.1972Z" fill="black"/>
<path d="M119.73 92.0848C119.855 92.0938 119.977 92.136 120.086 92.2075C120.196 92.2791 120.288 92.3779 120.356 92.4953L146.74 138.177C146.759 138.21 146.769 138.247 146.769 138.284C146.769 138.322 146.759 138.359 146.74 138.392C146.721 138.424 146.694 138.452 146.661 138.47C146.629 138.489 146.592 138.499 146.554 138.5L128.043 138.441C127.821 138.441 127.657 138.535 127.549 138.724L114.78 160.876C114.686 161.036 114.731 161.116 114.917 161.116H185.761C185.793 161.116 185.825 161.107 185.854 161.091C185.882 161.075 185.906 161.051 185.922 161.023C185.938 160.995 185.947 160.963 185.947 160.93C185.947 160.897 185.938 160.865 185.922 160.837L133.301 69.6838C133.271 69.6303 133.227 69.5857 133.174 69.5548C133.121 69.5239 133.06 69.5076 132.998 69.5079C118.606 69.4248 103.35 69.8499 89.7158 69.4688C88.543 69.4346 88.0739 69.2635 87.5265 70.2116C83.3434 77.4636 79.1701 84.6878 75.0066 91.8845C74.9879 91.9178 74.9782 91.9555 74.9785 91.9938C74.9788 92.032 74.9891 92.0695 75.0084 92.1026C75.0276 92.1357 75.0552 92.1631 75.0883 92.1823C75.1214 92.2015 75.1589 92.2117 75.1972 92.2119H119.603C119.626 92.2119 119.642 92.2021 119.652 92.1826C119.682 92.1174 119.708 92.0848 119.73 92.0848Z" fill="black"/>
<path d="M93.4396 138.358C93.425 138.382 93.4042 138.402 93.3793 138.416C93.3544 138.43 93.3263 138.437 93.2979 138.436L40.1541 138.485C40.1257 138.485 40.0978 138.477 40.0734 138.462C40.0489 138.448 40.0287 138.427 40.0148 138.402C40.0009 138.378 39.9938 138.35 39.9943 138.321C39.9947 138.293 40.0026 138.265 40.0173 138.241L49.4488 121.928C49.4629 121.904 49.4704 121.876 49.4704 121.848C49.4704 121.819 49.4629 121.792 49.4488 121.767L36.5917 99.4639C36.5778 99.4384 36.5573 99.4171 36.5324 99.4022C36.5074 99.3874 36.479 99.3796 36.4499 99.3796C36.4209 99.3796 36.3924 99.3874 36.3675 99.4022C36.3425 99.4171 36.3221 99.4384 36.3082 99.4639L0.849709 160.871C0.835062 160.896 0.827116 160.923 0.826679 160.952C0.826242 160.98 0.833331 161.008 0.847222 161.033C0.861114 161.058 0.881316 161.079 0.905783 161.093C0.93025 161.108 0.958108 161.115 0.986538 161.116H106.321C106.35 161.116 106.378 161.109 106.403 161.096C106.427 161.082 106.448 161.062 106.463 161.037L129.045 121.928C129.06 121.903 129.068 121.875 129.068 121.845C129.068 121.816 129.06 121.787 129.045 121.762L116.178 99.4785C116.164 99.453 116.144 99.4317 116.119 99.4169C116.094 99.402 116.065 99.3942 116.036 99.3942C116.007 99.3942 115.979 99.402 115.954 99.4169C115.929 99.4317 115.908 99.453 115.894 99.4785L93.4396 138.358Z" fill="black"/>
<path d="M66.7237 92.1972L89.1492 131.067C89.1626 131.091 89.1696 131.118 89.1694 131.146C89.1693 131.174 89.1619 131.201 89.1482 131.225C89.1344 131.249 89.1147 131.269 89.0909 131.283C89.0671 131.298 89.0401 131.305 89.0124 131.306H63.2834C63.255 131.307 63.2269 131.3 63.2021 131.286C63.1772 131.272 63.1563 131.252 63.1417 131.228L40.6039 92.1923C40.5888 92.1672 40.5808 92.1385 40.5808 92.1093C40.5808 92.08 40.5888 92.0513 40.6039 92.0262L93.2687 0.819206C93.283 0.793934 93.3039 0.772985 93.3291 0.758572C93.3543 0.744159 93.3829 0.736813 93.4119 0.737313C93.4409 0.737814 93.4693 0.74614 93.494 0.761413C93.5187 0.776686 93.5388 0.79834 93.5522 0.82409L128.957 62.163C128.972 62.1874 128.98 62.2152 128.98 62.2436C128.98 62.2721 128.973 62.3001 128.959 62.3249C128.946 62.3497 128.925 62.3704 128.901 62.3849C128.876 62.3994 128.849 62.4071 128.82 62.4074L103.091 62.3976C103.063 62.3982 103.035 62.3913 103.01 62.3776C102.985 62.3638 102.964 62.3438 102.949 62.3194L93.5473 46.0415C93.5334 46.016 93.513 45.9947 93.488 45.9799C93.4631 45.965 93.4346 45.9572 93.4056 45.9572C93.3766 45.9572 93.3481 45.965 93.3231 45.9799C93.2982 45.9947 93.2777 46.016 93.2639 46.0415L66.7237 92.0408C66.7105 92.0648 66.7035 92.0917 66.7035 92.119C66.7035 92.1464 66.7105 92.1733 66.7237 92.1972Z" fill="black"/>
<path d="M119.73 92.0848C119.708 92.0848 119.682 92.1174 119.652 92.1826C119.642 92.2021 119.626 92.2119 119.603 92.2119H75.1972C75.1589 92.2117 75.1214 92.2015 75.0883 92.1823C75.0552 92.1632 75.0276 92.1357 75.0084 92.1026C74.9891 92.0696 74.9788 92.032 74.9785 91.9938C74.9782 91.9555 74.9879 91.9178 75.0066 91.8845C79.1701 84.6879 83.3434 77.4636 87.5265 70.2116C88.0739 69.2635 88.543 69.4346 89.7158 69.4688C103.35 69.85 118.606 69.4248 132.998 69.5079C133.06 69.5077 133.121 69.5239 133.174 69.5548C133.227 69.5858 133.271 69.6303 133.301 69.6838L185.922 160.837C185.938 160.865 185.947 160.897 185.947 160.93C185.947 160.963 185.938 160.995 185.922 161.023C185.906 161.051 185.882 161.075 185.854 161.091C185.825 161.107 185.793 161.116 185.761 161.116H114.917C114.731 161.116 114.686 161.036 114.78 160.876L127.549 138.724C127.657 138.535 127.821 138.441 128.043 138.441L146.554 138.5C146.592 138.499 146.629 138.489 146.661 138.471C146.694 138.452 146.721 138.424 146.74 138.392C146.759 138.359 146.769 138.322 146.769 138.284C146.769 138.247 146.759 138.21 146.74 138.177L120.356 92.4953C120.288 92.3779 120.196 92.2791 120.086 92.2075C119.977 92.136 119.855 92.0938 119.73 92.0848Z" fill="black"/>
<path d="M93.4396 138.358L115.894 99.4785C115.908 99.453 115.929 99.4317 115.954 99.4169C115.979 99.402 116.007 99.3942 116.036 99.3942C116.065 99.3942 116.094 99.402 116.119 99.4169C116.144 99.4317 116.164 99.453 116.178 99.4785L129.045 121.762C129.06 121.787 129.068 121.816 129.068 121.845C129.068 121.875 129.06 121.903 129.045 121.928L106.463 161.037C106.448 161.062 106.427 161.082 106.403 161.096C106.378 161.109 106.35 161.116 106.321 161.116H0.986538C0.958108 161.115 0.93025 161.108 0.905783 161.093C0.881316 161.079 0.861114 161.058 0.847222 161.033C0.833331 161.008 0.826242 160.98 0.826679 160.952C0.827116 160.923 0.835062 160.896 0.849709 160.871L36.3082 99.4639C36.3221 99.4384 36.3425 99.4171 36.3675 99.4022C36.3924 99.3874 36.4209 99.3796 36.4499 99.3796C36.479 99.3796 36.5074 99.3874 36.5324 99.4022C36.5573 99.4171 36.5778 99.4384 36.5917 99.4639L49.4488 121.767C49.4629 121.792 49.4704 121.819 49.4704 121.848C49.4704 121.876 49.4629 121.904 49.4488 121.928L40.0173 138.241C40.0026 138.265 39.9947 138.293 39.9943 138.321C39.9938 138.35 40.0009 138.378 40.0148 138.402C40.0287 138.427 40.0489 138.448 40.0734 138.462C40.0978 138.477 40.1257 138.485 40.1541 138.485L93.2979 138.436C93.3263 138.437 93.3544 138.43 93.3793 138.416C93.4042 138.402 93.425 138.382 93.4396 138.358Z" fill="black"/>
</svg>
