<svg width="306" height="306" viewBox="0 0 306 306" fill="none" xmlns="http://www.w3.org/2000/svg">
<path d="M25.7305 152.585C27.445 112.637 73.1841 90.7321 106.156 83.0626C120.838 79.6458 135.723 77.8432 150.81 77.6547C150.971 77.6547 151.053 77.5726 151.056 77.4085L153.29 0.854454C153.293 0.778457 153.275 0.708541 153.235 0.644704C153.123 0.453194 153.15 0.392396 153.317 0.462313C153.34 0.471411 153.36 0.487129 153.374 0.507444C153.388 0.527758 153.395 0.551741 153.395 0.576307L155.643 77.4221C155.646 77.5772 155.725 77.6562 155.88 77.6592C187.251 78.0879 219.776 84.964 246.633 101.744C264.453 112.879 280.198 130.466 280.936 152.581C280.939 152.718 281.008 152.788 281.142 152.791L305.632 153.484C305.705 153.487 305.743 153.51 305.746 153.552C305.746 153.57 305.745 153.587 305.742 153.602C305.735 153.624 305.699 153.636 305.632 153.639L281.137 154.355C280.988 154.361 280.911 154.438 280.904 154.587C280.148 180.701 258.489 199.939 236.907 210.914C212.02 223.572 183.654 229.19 155.871 229.477C155.719 229.477 155.641 229.553 155.638 229.705L153.409 305.703C153.409 305.704 153.408 305.705 153.407 305.706C153.407 305.707 153.405 305.707 153.404 305.707C153.365 305.713 153.327 305.718 153.29 305.721C153.278 305.721 153.272 305.721 153.272 305.721L151.06 229.933C151.051 229.623 150.892 229.466 150.582 229.463C128.079 229.199 105.622 225.41 84.5151 217.476C57.8131 207.435 26.8613 186.433 25.767 154.573C25.7609 154.425 25.6834 154.349 25.5345 154.345L0.811369 153.643C0.738413 153.64 0.718653 153.613 0.752092 153.561C0.761211 153.546 0.773372 153.531 0.788571 153.516C0.795145 153.51 0.811675 153.505 0.836045 153.501C0.860414 153.497 0.891515 153.494 0.925364 153.493L25.5299 152.781C25.6576 152.778 25.7244 152.713 25.7305 152.585ZM97.5469 150.383C126.898 146.717 149.638 122.117 150.609 92.3508C150.755 87.8336 150.886 83.321 151.001 78.8129C151.007 78.6639 150.936 78.591 150.787 78.594C122.872 78.7764 94.2092 84.5536 69.2991 97.4578C48.1828 108.401 27.6912 126.969 26.6562 152.494C26.6501 152.658 26.7306 152.739 26.8978 152.736C47.4138 152.155 67.9297 151.555 88.4456 150.935C92.5464 150.81 95.5801 150.626 97.5469 150.383ZM156.104 92.9938C158 124.867 182.965 149.868 214.783 150.83C236.433 151.483 258.092 152.116 279.76 152.727C279.921 152.73 280.002 152.651 280.002 152.49C279.723 129.549 261.234 111.215 242.785 100.481C216.844 85.3881 185.765 78.7581 155.971 78.5758C155.804 78.5727 155.722 78.6548 155.725 78.822C155.798 85.2665 155.924 89.9904 156.104 92.9938ZM54.7307 200.65C81.8796 220.257 117.797 228.328 150.759 228.528C150.918 228.531 150.995 228.454 150.992 228.296C150.843 221.836 150.714 217.331 150.604 214.781C149.291 184.399 126.894 160.323 96.8858 156.685C94.8612 156.441 91.829 156.262 87.789 156.147C67.5102 155.572 47.2177 154.988 26.9115 154.396C26.7534 154.39 26.6759 154.466 26.679 154.624C27.2444 173.857 39.6971 189.798 54.7307 200.65ZM209.243 156.753C179.65 160.456 157.622 184.517 156.222 214.252C156 218.976 155.812 223.687 155.657 228.387C155.656 228.411 155.66 228.434 155.669 228.456C155.678 228.478 155.691 228.498 155.707 228.514C155.724 228.531 155.744 228.544 155.766 228.553C155.788 228.561 155.811 228.565 155.834 228.565C186.517 228.255 218.636 221.493 245.074 205.292C262.478 194.631 279.874 176.506 279.988 154.633C279.988 154.475 279.907 154.397 279.746 154.4C259.267 154.981 238.798 155.578 218.34 156.192C214.285 156.314 211.252 156.501 209.243 156.753Z" fill="black"/>
</svg>
