<svg width="194" height="194" viewBox="0 0 194 194" fill="none" xmlns="http://www.w3.org/2000/svg">
<path d="M101.788 0.113037H92.1389C92.0261 0.113037 91.9346 0.204525 91.9346 0.317379V44.3819C91.9346 44.4948 92.0261 44.5863 92.1389 44.5863H101.788C101.901 44.5863 101.992 44.4948 101.992 44.3819V0.317379C101.992 0.204525 101.901 0.113037 101.788 0.113037Z" fill="black"/>
<path d="M23.9664 90.0382L17.6168 89.9586C17.6024 89.9583 17.5882 89.9551 17.575 89.9492C17.5619 89.9432 17.5501 89.9346 17.5405 89.9239C17.5308 89.9133 17.5234 89.9007 17.5188 89.887C17.5141 89.8734 17.5124 89.8589 17.5135 89.8446C19.3999 69.3072 29.1782 50.0067 44.977 36.5331C57.7608 25.6291 72.6376 19.3046 89.6072 17.5595C89.6414 17.5559 89.676 17.5595 89.7088 17.57C89.7416 17.5805 89.7718 17.5978 89.7975 17.6207C89.8232 17.6435 89.8438 17.6715 89.8581 17.7028C89.8724 17.7342 89.88 17.7681 89.8804 17.8025L89.96 23.8295C89.9601 23.8322 89.9596 23.8375 89.9584 23.8451C89.9573 23.8526 89.9556 23.862 89.9535 23.8725C89.8589 24.3285 89.4954 24.1823 89.1491 24.221C70.3346 26.2816 52.8796 35.5866 40.7697 50.1744C31.4661 61.3795 25.9474 74.3046 24.2138 88.9498C24.1751 89.2681 24.1371 89.5857 24.0998 89.9026C24.0897 89.9944 24.0453 90.0396 23.9664 90.0382Z" fill="black"/>
<path d="M169.881 89.8682C166.213 55.098 139.129 27.7744 104.208 24.1479C104.156 24.1425 104.109 24.1181 104.075 24.0795C104.04 24.0409 104.022 23.9908 104.023 23.9392L104.102 17.8004C104.104 17.6269 104.191 17.5487 104.365 17.5659C120.442 19.1964 134.722 25.0168 147.203 35.0274C163.86 48.3849 174.482 68.3716 176.435 89.8661C176.439 89.9263 176.411 89.9572 176.351 89.9586L170.07 90.0382C170.023 90.0389 169.978 90.0219 169.943 89.9904C169.908 89.9589 169.886 89.9154 169.881 89.8682Z" fill="black"/>
<path d="M44.2906 92.0149H0.307823C0.187841 92.0149 0.0905762 92.1122 0.0905762 92.2321V101.851C0.0905762 101.971 0.187841 102.068 0.307823 102.068H44.2906C44.4106 102.068 44.5079 101.971 44.5079 101.851V92.2321C44.5079 92.1122 44.4106 92.0149 44.2906 92.0149Z" fill="black"/>
<path d="M193.716 92.017H149.651C149.583 92.017 149.529 92.0719 149.529 92.1396V101.948C149.529 102.016 149.583 102.071 149.651 102.071H193.716C193.783 102.071 193.838 102.016 193.838 101.948V92.1396C193.838 92.0719 193.783 92.017 193.716 92.017Z" fill="black"/>
<path d="M89.622 176.513C51.3479 172.758 21 142.745 17.5154 104.243C17.514 104.229 17.5155 104.214 17.52 104.2C17.5245 104.186 17.5318 104.173 17.5415 104.162C17.5512 104.151 17.5631 104.143 17.5764 104.136C17.5897 104.13 17.6041 104.127 17.6187 104.127L23.9619 104.047C24.0393 104.046 24.0816 104.084 24.0888 104.161C27.4937 138.387 54.1699 165.513 88.1852 169.774C88.6842 169.837 89.1667 169.87 89.6328 169.873C89.6762 169.873 89.7191 169.882 89.7591 169.899C89.799 169.916 89.8352 169.941 89.8656 169.972C89.896 170.003 89.92 170.039 89.9361 170.08C89.9523 170.12 89.9603 170.163 89.9597 170.207L89.8801 176.283C89.8773 176.454 89.7912 176.53 89.622 176.513Z" fill="black"/>
<path d="M170.031 104.047L176.347 104.127C176.417 104.128 176.448 104.163 176.441 104.232C174.572 125.021 164.534 144.496 148.535 157.942C135.871 168.583 121.154 174.782 104.384 176.539C104.349 176.543 104.313 176.539 104.279 176.529C104.246 176.518 104.214 176.5 104.188 176.477C104.161 176.453 104.14 176.424 104.125 176.392C104.111 176.36 104.103 176.325 104.102 176.289L104.023 170.2C104.021 170.131 104.046 170.065 104.092 170.013C104.138 169.962 104.201 169.93 104.27 169.923C138.397 166.44 165.403 139.876 169.689 105.919C169.737 105.544 169.769 104.755 169.877 104.176C169.892 104.089 169.944 104.046 170.031 104.047Z" fill="black"/>
<path d="M101.827 149.499H92.1C92.0097 149.499 91.9365 149.572 91.9365 149.663V193.753C91.9365 193.843 92.0097 193.917 92.1 193.917H101.827C101.917 193.917 101.99 193.843 101.99 193.753V149.663C101.99 149.572 101.917 149.499 101.827 149.499Z" fill="black"/>
</svg>
