<svg width="86" height="254" viewBox="0 0 86 254" fill="none" xmlns="http://www.w3.org/2000/svg">
<path d="M43.3855 31.5022L85.0988 63.8857C85.2738 64.0187 85.3613 63.9749 85.3613 63.7544C85.4488 54.08 85.4558 44.4055 85.3823 34.7311C85.3665 32.925 86.1698 31.9694 84.3375 30.6096C70.7428 20.5116 57.1167 10.4137 43.459 0.315694C43.3015 0.200189 43.1423 0.200189 42.9813 0.315694L1.5463 30.8459C1.34448 30.9942 1.18038 31.1879 1.06728 31.4113C0.954181 31.6348 0.895255 31.8817 0.89527 32.1322L0.86377 63.7124C0.864522 63.7348 0.871276 63.7566 0.883261 63.7755C0.895246 63.7945 0.911994 63.8097 0.931625 63.8195C0.951256 63.8293 0.972991 63.8333 0.994393 63.8311C1.01579 63.8289 1.03601 63.8205 1.05278 63.8069L42.9865 31.5022C43.1195 31.4007 43.2525 31.4007 43.3855 31.5022Z" fill="black"/>
<path d="M43.7008 95.8492L84.7578 127.66C84.826 127.712 84.9075 127.744 84.9929 127.751C85.0783 127.758 85.164 127.741 85.24 127.701C85.316 127.662 85.3791 127.601 85.422 127.527C85.4649 127.453 85.4858 127.368 85.4823 127.282C84.9783 116.955 85.4718 106.407 85.393 96.1327C85.3895 95.6952 85.2128 95.3469 84.8628 95.0879L43.4331 64.3477C43.3493 64.2855 43.2476 64.2519 43.1427 64.2519C43.0378 64.2519 42.9353 64.2855 42.8503 64.3477L1.1003 95.0669C0.991442 95.1468 0.902885 95.2511 0.841779 95.3715C0.780674 95.4919 0.748733 95.625 0.748537 95.76L0.727539 127.529C0.727539 127.806 0.836042 127.86 1.05305 127.692L42.4303 95.8492C42.8538 95.5237 43.2773 95.5237 43.7008 95.8492Z" fill="black"/>
<path d="M42.8186 159.451C42.8575 159.42 42.9055 159.403 42.9551 159.403C43.0046 159.403 43.0527 159.42 43.0916 159.451L84.768 191.771C84.8006 191.797 84.8396 191.813 84.8808 191.817C84.922 191.822 84.9636 191.815 85.0008 191.796C85.0381 191.778 85.0695 191.75 85.0915 191.715C85.1134 191.68 85.1251 191.639 85.1251 191.598L85.3193 159.629C85.3195 159.595 85.3115 159.56 85.296 159.529C85.2805 159.498 85.2579 159.471 85.2301 159.451L43.1493 128.233C43.1114 128.205 43.0653 128.189 43.0181 128.189C42.9708 128.189 42.9248 128.205 42.8868 128.233L0.701074 159.277C0.673208 159.298 0.650601 159.325 0.635093 159.356C0.619585 159.387 0.611614 159.421 0.61182 159.456V191.509C0.611805 191.55 0.623448 191.591 0.645419 191.626C0.667391 191.661 0.698805 191.689 0.736059 191.707C0.773312 191.725 0.814899 191.733 0.856067 191.728C0.897235 191.724 0.936313 191.708 0.968833 191.682L42.8186 159.451Z" fill="black"/>
<path d="M43.081 220.989L84.5265 253.115C84.5768 253.154 84.6371 253.179 84.7006 253.186C84.7641 253.192 84.8282 253.181 84.8856 253.153C84.943 253.125 84.9915 253.082 85.0254 253.028C85.0594 252.974 85.0775 252.911 85.0778 252.847L85.1723 221.414C85.1758 221.085 85.0445 220.821 84.7785 220.621L43.0548 189.682C43.0064 189.645 42.9474 189.625 42.8868 189.625C42.8261 189.625 42.7671 189.645 42.7187 189.682C29.2291 199.671 15.6992 209.641 2.12908 219.592C0.989777 220.432 0.44375 220.768 0.45425 222.343C0.524253 232.483 0.541757 242.653 0.506756 252.853C0.505944 252.901 0.51895 252.948 0.544296 252.989C0.569643 253.031 0.606307 253.064 0.650101 253.085C0.693895 253.106 0.743059 253.115 0.79198 253.11C0.840901 253.105 0.887611 253.087 0.926777 253.057L42.598 220.989C42.759 220.866 42.92 220.866 43.081 220.989Z" fill="black"/>
<path d="M42.9865 31.5022L1.05278 63.8069C1.03601 63.8205 1.01579 63.8289 0.994393 63.8311C0.972991 63.8333 0.951256 63.8293 0.931625 63.8195C0.911994 63.8097 0.895246 63.7945 0.883261 63.7755C0.871276 63.7566 0.864522 63.7348 0.86377 63.7124L0.89527 32.1322C0.895255 31.8817 0.954181 31.6348 1.06728 31.4113C1.18038 31.1879 1.34448 30.9942 1.5463 30.8459L42.9813 0.315694C43.1423 0.200189 43.3015 0.200189 43.459 0.315694C57.1167 10.4137 70.7428 20.5116 84.3375 30.6096C86.1698 31.9694 85.3665 32.925 85.3823 34.7311C85.4558 44.4055 85.4488 54.08 85.3613 63.7544C85.3613 63.9749 85.2738 64.0187 85.0988 63.8857L43.3855 31.5022C43.2525 31.4007 43.1195 31.4007 42.9865 31.5022Z" fill="black"/>
<path d="M43.7008 95.8492C43.2773 95.5237 42.8538 95.5237 42.4303 95.8492L1.05305 127.692C0.836042 127.86 0.727539 127.806 0.727539 127.529L0.748537 95.76C0.748733 95.625 0.780674 95.4919 0.841779 95.3715C0.902885 95.2511 0.991442 95.1468 1.1003 95.0669L42.8503 64.3477C42.9353 64.2855 43.0378 64.2519 43.1427 64.2519C43.2476 64.2519 43.3493 64.2855 43.4331 64.3477L84.8628 95.0879C85.2128 95.3469 85.3895 95.6952 85.393 96.1327C85.4718 106.407 84.9783 116.955 85.4823 127.282C85.4858 127.368 85.4649 127.453 85.422 127.527C85.3791 127.601 85.316 127.662 85.24 127.701C85.164 127.741 85.0783 127.758 84.9929 127.751C84.9075 127.744 84.826 127.712 84.7578 127.66L43.7008 95.8492Z" fill="black"/>
<path d="M42.8186 159.451L0.968833 191.682C0.936313 191.708 0.897235 191.724 0.856067 191.728C0.814899 191.733 0.773312 191.725 0.736059 191.707C0.698805 191.689 0.667391 191.661 0.645419 191.626C0.623448 191.591 0.611805 191.55 0.61182 191.509V159.456C0.611614 159.421 0.619585 159.387 0.635093 159.356C0.650601 159.325 0.673208 159.298 0.701074 159.277L42.8868 128.233C42.9248 128.205 42.9708 128.189 43.0181 128.189C43.0653 128.189 43.1114 128.205 43.1493 128.233L85.2301 159.451C85.2579 159.471 85.2805 159.498 85.296 159.529C85.3115 159.56 85.3195 159.595 85.3193 159.629L85.1251 191.598C85.1251 191.639 85.1134 191.68 85.0915 191.715C85.0695 191.75 85.0381 191.778 85.0008 191.796C84.9636 191.815 84.922 191.822 84.8808 191.817C84.8396 191.813 84.8006 191.797 84.768 191.771L43.0916 159.451C43.0527 159.42 43.0046 159.403 42.9551 159.403C42.9055 159.403 42.8575 159.42 42.8186 159.451Z" fill="black"/>
<path d="M42.598 220.989L0.926777 253.057C0.887611 253.087 0.840901 253.105 0.79198 253.11C0.743059 253.115 0.693895 253.106 0.650101 253.085C0.606307 253.064 0.569643 253.031 0.544296 252.989C0.51895 252.948 0.505944 252.901 0.506756 252.853C0.541757 242.653 0.524253 232.483 0.45425 222.343C0.44375 220.768 0.989777 220.432 2.12908 219.592C15.6992 209.641 29.2291 199.671 42.7187 189.682C42.7671 189.645 42.8261 189.625 42.8868 189.625C42.9474 189.625 43.0064 189.645 43.0548 189.682L84.7785 220.621C85.0445 220.821 85.1758 221.085 85.1723 221.414L85.0778 252.847C85.0775 252.911 85.0594 252.974 85.0254 253.028C84.9915 253.082 84.943 253.125 84.8856 253.153C84.8282 253.181 84.7641 253.192 84.7006 253.186C84.6371 253.179 84.5768 253.154 84.5265 253.115L43.081 220.989C42.92 220.866 42.759 220.866 42.598 220.989Z" fill="black"/>
</svg>
