<svg width="103" height="102" viewBox="0 0 103 102" fill="none" xmlns="http://www.w3.org/2000/svg">
<path d="M65.5272 5.08307C54.2778 9.89259 46.3706 21.142 46.3706 34.1848C46.3706 40.4616 48.164 46.2493 51.2616 51.1404C51.1801 50.4067 51.1801 49.673 51.1801 48.9394C51.1801 31.4132 65.3641 17.3107 82.8088 17.3107C85.4989 17.3107 88.0259 17.6367 90.4715 18.2889C84.8468 10.4632 75.7983 5.32762 65.5272 5.08307Z" fill="#0F0F0F"/>
<path d="M18.4102 15.7618C16.9429 27.9894 22.7306 40.38 34.0615 46.9829C39.4416 50.0806 45.3924 51.4664 51.2616 51.2218C50.6095 50.8958 49.9574 50.5697 49.3052 50.1621C34.143 41.4398 29.0074 22.0387 37.7298 6.87644C39.0341 4.59395 40.6644 2.47447 42.3763 0.681091C32.7572 1.6593 23.7903 6.95793 18.4102 15.7618Z" fill="#0F0F0F"/>
<path d="M4.14461 61.9005C14.0082 69.237 27.6216 70.4598 38.9525 63.9384C44.3327 60.8407 48.4901 56.3573 51.1801 51.2217C50.6095 51.6292 49.9573 52.0369 49.3052 52.3629C34.143 61.0853 14.8234 55.9497 6.01951 40.7875C4.71524 38.505 3.65551 36.0594 3.00338 33.6954C-0.909456 42.4178 -0.746427 52.852 4.14461 61.9005Z" fill="#0F0F0F"/>
<path d="M36.9146 97.279C48.164 92.4694 56.0712 81.22 56.0712 68.1773C56.0712 61.9004 54.2778 56.1127 51.1801 51.2217C51.2616 51.9553 51.2616 52.689 51.2616 53.4227C51.2616 70.9489 37.0776 85.0514 19.6329 85.0514C16.9428 85.0514 14.4158 84.7253 11.9703 84.0732C17.595 91.8988 26.6434 97.0344 36.9146 97.279Z" fill="#0F0F0F"/>
<path d="M84.0316 86.6004C85.499 74.3728 79.7112 61.9821 68.3803 55.3792C63.0002 52.2816 57.0494 50.8958 51.1802 51.1403C51.8323 51.4664 52.4844 51.7925 53.1366 52.2C68.2988 60.9224 73.4344 80.3235 64.712 95.4857C63.4078 97.7682 61.7774 99.8877 60.0656 101.681C69.6846 100.703 78.6515 95.4042 84.0316 86.6004Z" fill="#0F0F0F"/>
<path d="M98.297 40.4617C88.4334 33.1251 74.82 31.9024 63.4891 38.4237C58.109 41.5214 53.9516 46.0049 51.2615 51.1405C51.8322 50.7329 52.4843 50.3253 53.1364 49.9992C68.2987 41.2769 87.6183 46.4125 96.4222 61.5747C97.7264 63.8572 98.7861 66.3027 99.4383 68.6667C103.351 59.9443 103.188 49.5101 98.297 40.4617Z" fill="#0F0F0F"/>
</svg>
