<svg width="143" height="141" viewBox="0 0 143 141" fill="none" xmlns="http://www.w3.org/2000/svg">
<path d="M100.417 97.0086L93.3378 104.088C86.6944 110.92 81.1814 118.481 76.7988 126.77C76.5608 128.902 75.5395 130.037 73.7349 130.176C73.626 130.187 73.5215 130.225 73.4317 130.288C73.3419 130.35 73.2697 130.435 73.2219 130.533C73.1742 130.632 73.1525 130.741 73.159 130.85C73.1655 130.96 73.1999 131.065 73.259 131.158L74.196 132.571C74.4835 132.997 74.5232 133.443 74.315 133.909L71.6081 140.2C71.5651 140.3 71.4922 140.384 71.3994 140.44C71.3067 140.496 71.1988 140.522 71.0907 140.513C70.9826 140.505 70.8798 140.464 70.7966 140.394C70.7133 140.325 70.6538 140.231 70.6264 140.126L68.6036 132.868C63.4575 121.614 56.7497 111.659 48.4802 103.003C39.9727 93.3201 18.9717 73.8956 5.97253 72.7653C5.46684 72.7157 5.04547 72.5025 4.70834 72.1257C3.87544 71.1937 2.78472 70.7426 1.43622 70.7723C0.385177 70.7922 0.360407 70.6483 1.36187 70.3409C2.03116 70.1476 2.81943 70.3856 3.48873 70.222C25.7837 64.481 47.8407 41.2341 60.5573 23.654C60.8448 23.2474 60.9886 22.7962 60.9886 22.3005C60.9786 21.1106 61.643 20.5206 62.9816 20.5305C63.6459 20.5405 63.8641 20.2281 63.636 19.5935L63.2344 18.5078C63.1844 18.3714 63.1643 18.2258 63.1756 18.0809C63.1869 17.936 63.2292 17.7953 63.2998 17.6683C63.3704 17.5413 63.4675 17.4309 63.5846 17.3448C63.7016 17.2586 63.8358 17.1988 63.9781 17.1692C65.9612 16.7726 66.6404 15.6125 66.0157 13.6889C65.946 13.4645 65.9245 13.2279 65.9527 12.9946C65.9809 12.7614 66.0581 12.5367 66.1793 12.3354C68.3904 8.72616 69.972 4.88391 70.9239 0.808648C71.0131 0.421944 71.1272 0.417063 71.266 0.793851C71.5535 1.60692 71.8262 2.42489 72.084 3.24788C80.7551 30.9716 113.61 63.5588 141.958 70.6682C142.02 70.6881 142.073 70.7288 142.109 70.7833C142.144 70.8378 142.16 70.9029 142.153 70.9676C142.146 71.0322 142.117 71.0924 142.07 71.1382C142.024 71.1839 141.964 71.2123 141.899 71.2185C133.56 71.7242 126.46 74.9269 120.6 80.8266C120.124 81.3026 119.554 81.5603 118.89 81.6C116.847 81.709 115.464 82.6758 114.74 84.5003C114.595 84.8678 114.34 85.1798 114.012 85.3926C108.816 88.635 104.285 92.507 100.417 97.0086Z" fill="#030303"/>
</svg>
