<svg width="105" height="171" viewBox="0 0 105 171" fill="none" xmlns="http://www.w3.org/2000/svg">
<path d="M48.39 48.22C47.4834 37.1867 43.3867 27.5667 36.1 19.36C36.0169 19.2653 35.9585 19.1512 35.9304 19.0284C35.9023 18.9055 35.9054 18.7779 35.9392 18.6573C35.9731 18.5366 36.0368 18.4269 36.1243 18.3382C36.2119 18.2496 36.3204 18.1848 36.44 18.15C44.9934 15.6033 49.97 9.89333 51.37 1.02C51.3913 0.855251 51.4722 0.703999 51.5973 0.594783C51.7225 0.485568 51.8833 0.42595 52.0494 0.427181C52.2156 0.428411 52.3755 0.490401 52.499 0.601459C52.6226 0.712517 52.7012 0.864956 52.72 1.03C53.9867 10.03 58.97 15.72 67.67 18.1C67.7775 18.1297 67.8758 18.1858 67.9562 18.2631C68.0365 18.3405 68.0962 18.4366 68.13 18.5429C68.1637 18.6491 68.1705 18.7621 68.1495 18.8716C68.1286 18.9812 68.0806 19.0837 68.01 19.17C60.87 27.86 56.3 36.78 55.7 48.21C55.68 48.5367 55.8334 48.6967 56.16 48.69C68.23 48.22 77.07 43.68 85.48 36.43C85.8467 36.11 86.1 36.1833 86.24 36.65C88.8667 45.47 94.7734 50.5667 103.96 51.94C104.086 51.9631 104.199 52.0292 104.282 52.127C104.364 52.2247 104.41 52.3481 104.411 52.4759C104.412 52.6036 104.369 52.7278 104.288 52.8271C104.208 52.9264 104.095 52.9946 103.97 53.02C94.8834 54.52 88.98 59.65 86.26 68.41C86.2359 68.4869 86.193 68.5567 86.1355 68.613C86.078 68.6694 86.0076 68.7104 85.9309 68.7323C85.8541 68.7543 85.7735 68.7564 85.6965 68.7385C85.6194 68.7206 85.5484 68.6833 85.49 68.63C77.1634 61.15 67.3834 56.9667 56.15 56.08C55.79 56.0533 55.62 56.2167 55.64 56.57C56.3 67.6633 60.34 77.3067 67.76 85.5C67.9262 85.6833 68.0184 85.9215 68.0184 86.1676C68.0184 86.4138 67.9262 86.6501 67.76 86.83C62.66 92.36 60.67 106.85 59.47 114.25C56.49 132.717 54.2767 151.277 52.83 169.93C52.81 170.177 52.7367 170.37 52.61 170.51C52.4367 170.697 52.2534 170.82 52.06 170.88C51.963 170.91 51.8604 170.918 51.7598 170.904C51.6592 170.889 51.5632 170.852 51.4788 170.796C51.3943 170.739 51.3237 170.664 51.272 170.577C51.2203 170.489 51.1889 170.391 51.18 170.29C49.7467 150.583 47.33 130.923 43.93 111.31C42.47 102.91 40.92 91.95 36 86.51C35.7667 86.2633 35.7634 86.0133 35.99 85.76C43.23 77.7733 47.36 68.3667 48.38 57.54C48.4734 56.5333 48.0167 56.0767 47.01 56.17C36.1167 57.19 26.6234 61.3233 18.53 68.57C18.4741 68.6206 18.4068 68.657 18.3339 68.6761C18.2609 68.6952 18.1844 68.6964 18.1109 68.6798C18.0373 68.6631 17.9689 68.629 17.9113 68.5803C17.8537 68.5316 17.8087 68.4698 17.78 68.4C14.34 59.8 10.11 54.81 0.630019 53.16C0.526427 53.1409 0.428597 53.0982 0.344024 53.0354C0.25945 52.9726 0.19038 52.8913 0.142112 52.7976C0.0938444 52.704 0.0676622 52.6005 0.0655663 52.4952C0.0634704 52.3899 0.0855153 52.2855 0.130019 52.19C0.196686 52.0433 0.420025 51.9367 0.800025 51.87C9.64003 50.2233 15.2467 45.1467 17.62 36.64C17.6435 36.5545 17.6888 36.4767 17.7515 36.414C17.8143 36.3512 17.8924 36.3057 17.9786 36.2817C18.0647 36.2576 18.156 36.2559 18.2438 36.2766C18.3315 36.2973 18.4129 36.3398 18.48 36.4C26.7134 43.9867 36.47 48.1467 47.75 48.88C48.2167 48.9067 48.43 48.6867 48.39 48.22Z" fill="black"/>
</svg>
