<svg width="189" height="186" viewBox="0 0 189 186" fill="none" xmlns="http://www.w3.org/2000/svg">
<path d="M81.3439 70.5187C81.7316 70.1239 81.8674 69.4845 81.9547 68.9982C82.0882 68.264 82.3661 66.6682 82.7886 64.2109C83.0103 62.9279 83.1218 61.3345 83.3636 60.176C83.7717 58.2279 84.1135 56.2688 84.3891 54.2987C84.7782 51.5139 85.4204 48.7963 85.7322 46.0243C86.0397 43.2981 86.7148 40.6334 87.061 37.9043C87.4028 35.2067 88.0264 32.5606 88.3998 29.8659C88.8131 26.8793 89.4553 23.9028 89.8916 20.7218C90.2649 18.0113 90.8628 15.3352 91.239 12.6161C91.4893 10.8139 91.8755 8.98449 92.1286 7.36107C92.3279 6.08998 92.6211 4.04223 93.0083 1.21781C93.0302 1.0557 93.1256 0.97036 93.2943 0.961778C94.3199 0.904565 95.1838 0.821605 96.2194 0.980372C96.2775 0.988954 96.3061 1.0228 96.3052 1.08193C96.3042 1.14963 96.289 1.21447 96.2594 1.27645C96.2413 1.31364 96.2327 1.35273 96.2337 1.39374C96.3724 4.70781 97.1591 8.03189 97.6668 11.3102C99.0571 20.2898 100.681 29.2623 102.035 38.2204C102.188 39.2312 102.437 40.6768 102.782 42.5572C103.041 43.9618 103.185 45.6023 103.424 46.8739C103.816 48.9612 104.139 50.8326 104.392 52.4879C104.491 53.1273 104.541 53.8696 104.664 54.5333C105.104 56.8914 105.5 59.2567 105.854 61.6292C106.217 64.055 106.678 66.3321 107.023 68.6893C107.093 69.1737 107.256 69.6013 107.51 69.9723C107.545 70.0226 107.597 70.0581 107.657 70.0721C107.717 70.0861 107.78 70.0776 107.834 70.0481C108.617 69.6176 109.331 68.9553 109.951 68.5563C117.446 63.7141 124.942 58.8715 132.438 54.0284C133.143 53.5721 133.475 53.2517 134.189 53.6165C135.898 54.4933 133.703 56.6817 133.04 57.6657C128.396 64.5742 123.746 71.4789 119.09 78.3798C118.78 78.8417 117.999 79.6599 118.013 80.2764C118.018 80.4442 118.022 80.6139 118.026 80.7856C118.027 80.8084 118.036 80.8301 118.051 80.8469C118.066 80.8637 118.087 80.8744 118.109 80.8771C118.913 80.9729 119.721 81.0259 120.496 81.1846C122.689 81.6323 124.92 81.8469 127.123 82.2517C130.795 82.9253 134.488 83.4774 138.168 84.1039C139.006 84.247 139.948 84.3948 140.993 84.5473C143.618 84.9321 145.766 85.4012 148.062 85.7388C150.876 86.1522 153.588 86.6699 156.36 87.099C159.321 87.5567 162.265 88.1332 165.231 88.5494C167.395 88.8526 169.66 89.316 171.679 89.6364C176.552 90.4074 181.857 91.3786 187.08 92.1238C188.255 92.2926 188.242 93.6242 188.271 94.5081C188.275 94.6138 188.24 94.7173 188.174 94.7995C188.107 94.8818 188.013 94.9373 187.909 94.9558C186.876 95.1418 185.755 95.2219 184.785 95.3978C180.709 96.143 176.967 96.6951 173.622 97.2787C172.69 97.4417 171.749 97.5929 170.798 97.7321C168.202 98.114 165.622 98.6447 163.039 99.0137C160.139 99.427 157.885 99.8948 155.369 100.28C152.012 100.79 148.677 101.408 145.317 101.91C142.831 102.282 140.326 102.805 137.812 103.173C134.86 103.606 131.946 104.191 128.988 104.592C125.608 105.05 122.008 106.032 118.415 106.058C118.393 106.058 118.371 106.063 118.352 106.071C118.332 106.08 118.314 106.093 118.299 106.11C117.743 106.72 118.694 107.84 119.206 108.624C123.313 114.907 127.422 121.189 131.533 127.47C132.239 128.55 132.9 129.612 133.515 130.654C133.566 130.741 133.588 130.841 133.577 130.941C133.565 131.041 133.522 131.135 133.452 131.208C133.019 131.663 132.616 132.099 132.244 132.513C131.839 132.963 130.426 132.04 130.054 131.777C129.194 131.169 128.327 130.571 127.453 129.983C121.2 125.771 114.944 121.563 108.686 117.358C108.311 117.106 107.379 116.033 107.267 117.32C107.07 119.59 106.687 121.387 106.167 124.303C105.85 126.084 105.645 128.237 105.283 130.012C104.967 131.562 104.722 132.968 104.55 134.23C104.385 135.434 104.24 136.377 104.115 137.058C103.594 139.88 103.204 142.717 102.707 145.542C102.27 148.039 101.86 150.54 101.477 153.046C101.128 155.333 100.658 157.706 100.317 160.053C99.9697 162.457 99.5206 164.744 99.1372 167.272C98.7267 169.979 98.1174 173.191 97.6626 176.2C97.2177 179.148 96.5369 182.551 96.2179 185.125C96.1807 185.426 96.0773 185.653 95.9075 185.806C95.8736 185.837 95.8289 185.854 95.7831 185.852L93.23 185.74C93.1396 185.736 93.0536 185.701 92.9867 185.64C92.9199 185.579 92.8764 185.497 92.8638 185.407C92.5191 182.967 92.1772 180.597 91.731 178.057C91.3505 175.89 91.0559 173.592 90.7054 171.549C90.4079 169.816 90.1076 168.162 89.8487 166.351C89.5941 164.56 89.3052 162.774 88.9819 160.994C88.5828 158.794 88.3425 156.693 87.9535 154.553C87.6588 152.938 87.3923 151.317 87.1539 149.692C86.8121 147.359 86.4402 145.235 86.0683 143.009C85.7408 141.057 85.4061 138.708 85.0242 136.567C84.4621 133.419 83.9958 129.957 83.5095 127.294C83.3283 126.306 83.18 125.386 83.0646 124.534C82.7314 122.078 82.3609 120.034 81.9561 117.785C81.9027 117.489 81.8107 117.206 81.6801 116.936C81.6616 116.898 81.6351 116.864 81.6026 116.838C81.57 116.811 81.5321 116.792 81.4914 116.781C81.4506 116.77 81.4081 116.768 81.3666 116.776C81.3251 116.783 81.2857 116.799 81.251 116.823C72.7519 122.644 64.2343 128.474 55.6981 134.313C55.076 134.738 54.1548 134.21 53.75 133.745C53.7348 133.727 53.7243 133.705 53.7195 133.682C53.7148 133.659 53.7159 133.636 53.7229 133.613C53.8878 133.067 54.0547 132.666 54.2235 132.412C59.7264 124.157 65.2322 115.904 70.7409 107.653C70.9269 107.373 71.0541 107.045 71.1943 106.755C71.216 106.709 71.227 106.66 71.2264 106.609C71.2258 106.559 71.2136 106.51 71.1907 106.465C71.1679 106.42 71.135 106.382 71.0947 106.352C71.0544 106.322 71.0077 106.302 70.9583 106.293C69.4365 106.011 67.7472 105.876 66.387 105.645C63.9025 105.22 61.5182 104.811 58.9207 104.427C56.4205 104.058 53.9603 103.531 51.4443 103.192C48.9456 102.854 46.4611 102.319 43.9995 101.966C41.7586 101.644 39.74 101.316 37.9435 100.983C36.7439 100.761 35.7689 100.606 35.0184 100.517C32.7542 100.247 29.4101 99.5486 26.5938 99.131C25.1568 98.9174 23.7231 98.6828 22.2928 98.4272C19.0402 97.8437 15.7648 97.3745 12.5079 96.8224C8.82627 96.1974 5.14031 95.6739 1.47438 94.9544C1.30751 94.922 1.19785 94.9225 1.1454 94.9558C1.11652 94.9744 1.08326 94.9837 1.04879 94.9829C1.01433 94.982 0.979808 94.971 0.948533 94.9509C0.917257 94.9309 0.89027 94.9024 0.870147 94.8682C0.850024 94.834 0.837438 94.7952 0.83359 94.7556C0.772563 94.1434 0.762074 93.5822 0.802123 93.0721C0.814519 92.9233 0.897955 92.8647 1.05243 92.8962C1.10392 92.9066 1.15208 92.8976 1.19689 92.869C1.23408 92.8442 1.25744 92.8127 1.26698 92.7746C1.28033 92.725 1.30894 92.6873 1.3528 92.6616C2.00884 92.2868 2.49134 92.0761 2.80029 92.0294C6.81952 91.4229 10.2409 90.8765 13.0643 90.3902C14.4832 90.1452 15.7514 89.9397 16.869 89.7737C19.4364 89.3933 22.3257 88.7625 24.4798 88.505C25.3685 88.3982 26.1332 88.2853 26.774 88.1661C29.0425 87.7427 31.3139 87.3651 33.6024 87.069C34.392 86.9674 35.233 86.7343 35.9382 86.6256C37.646 86.361 39.3023 86.0678 41.0573 85.806C43.9837 85.3669 46.7414 84.7905 49.8195 84.3771C50.3192 84.3104 50.9857 84.1998 51.8191 84.0453C54.1276 83.6176 56.4476 83.2572 58.7719 82.9282C59.1152 82.8796 59.4985 82.7594 59.8718 82.7051C61.8042 82.4262 63.8424 82.0271 65.6404 81.7625C67.1174 81.5451 68.5935 81.3224 70.0687 81.0945C70.513 81.0259 70.9702 81.0368 71.4403 81.1274C71.4728 81.1335 71.5062 81.1313 71.5376 81.1211C71.569 81.1108 71.5972 81.0928 71.6198 81.0687C71.6423 81.0446 71.6584 81.0151 71.6666 80.9832C71.6747 80.9512 71.6746 80.9176 71.6663 80.8857C71.4732 80.1476 71.1757 79.5169 70.6937 78.8518C66.6816 73.3207 62.8312 67.6623 58.8849 62.084C57.5018 60.1288 56.0243 57.9089 54.4709 55.8907C53.8416 55.0711 54.1777 54.5591 54.5138 53.7581C54.8357 52.99 55.7411 53.2904 56.2131 53.6079C63.3104 58.3652 70.4072 63.122 77.5035 67.8783C78.8051 68.7493 80.0109 69.6233 81.2381 70.5258C81.2541 70.5374 81.2736 70.5431 81.293 70.5418C81.3124 70.5404 81.3305 70.5323 81.3439 70.5187Z" fill="black"/>
</svg>
