<svg width="149" height="150" viewBox="0 0 149 150" fill="none" xmlns="http://www.w3.org/2000/svg">
<path d="M56.9176 75.2148C56.9579 75.1742 56.9805 75.1193 56.9805 75.062C56.9805 75.0048 56.9579 74.9499 56.9176 74.9092C47.4802 65.4674 38.028 56.0167 28.5611 46.5572C25.8442 43.8424 22.598 43.0364 18.7274 43.032C12.6085 43.0217 6.49181 43.0202 0.377352 43.0276C0.346814 43.0276 0.317524 43.0154 0.295931 42.9938C0.274337 42.9723 0.262207 42.943 0.262207 42.9124V0.898069C0.262207 0.868706 0.273873 0.840546 0.294636 0.819783C0.3154 0.79902 0.343559 0.787354 0.372923 0.787354H42.3873C42.4172 0.787354 42.446 0.79925 42.4671 0.820428C42.4883 0.841607 42.5002 0.870331 42.5002 0.900282C42.5002 6.9365 42.5002 12.986 42.5002 19.0488C42.5017 20.9413 42.6087 22.34 42.8213 23.2449C43.5476 26.3228 45.0024 28.061 47.4536 30.5123C56.4452 39.5053 65.442 48.5021 74.4439 57.5025C74.497 57.5572 74.5509 57.5572 74.6055 57.5025C83.7462 48.3648 92.8972 39.2138 102.059 30.0495C105.597 26.5088 106.589 23.938 106.598 18.9004C106.608 12.8996 106.61 6.90033 106.602 0.902499C106.602 0.871961 106.614 0.842671 106.636 0.821077C106.658 0.799483 106.687 0.787354 106.717 0.787354H148.676C148.706 0.787354 148.734 0.79902 148.755 0.819783C148.776 0.840546 148.787 0.868706 148.787 0.898069V42.9124C148.787 42.9424 148.775 42.9711 148.754 42.9923C148.733 43.0135 148.704 43.0254 148.674 43.0254C142.765 43.0254 136.842 43.0254 130.907 43.0254C128.872 43.0254 127.404 43.1265 126.5 43.3287C123.416 44.0196 121.638 45.4611 119.2 47.8968C110.164 56.9298 101.147 65.9464 92.1495 74.9469C92.1322 74.964 92.1185 74.9843 92.1092 75.0068C92.0998 75.0292 92.095 75.0532 92.095 75.0775C92.095 75.1018 92.0998 75.1259 92.1092 75.1483C92.1185 75.1707 92.1322 75.1911 92.1495 75.2082C101.126 84.1865 110.115 93.1751 119.115 102.174C121.584 104.643 123.325 106.082 126.429 106.809C127.319 107.018 128.662 107.123 130.457 107.123C136.53 107.127 142.603 107.13 148.676 107.13C148.75 107.13 148.787 107.167 148.787 107.243V149.257C148.787 149.286 148.776 149.315 148.755 149.335C148.734 149.356 148.706 149.368 148.676 149.368H106.717C106.688 149.368 106.66 149.356 106.639 149.335C106.618 149.315 106.607 149.286 106.607 149.257C106.604 143.457 106.604 137.645 106.607 131.821C106.608 129.718 106.531 128.245 106.374 127.404C105.912 124.922 104.793 122.792 103.017 121.013C93.5741 111.561 84.1234 102.109 74.6653 92.657C74.6505 92.6421 74.6329 92.6303 74.6135 92.6223C74.5941 92.6142 74.5734 92.6101 74.5524 92.6101C74.5314 92.6101 74.5106 92.6142 74.4912 92.6223C74.4719 92.6303 74.4543 92.6421 74.4395 92.657C65.3918 101.7 56.3338 110.759 47.2654 119.833C43.8067 123.294 42.5113 125.774 42.5046 130.677C42.4973 136.872 42.4965 143.064 42.5024 149.253C42.5024 149.283 42.4903 149.312 42.4687 149.334C42.4471 149.356 42.4178 149.368 42.3873 149.368H0.372923C0.343559 149.368 0.3154 149.356 0.294636 149.335C0.273873 149.315 0.262207 149.286 0.262207 149.257V107.243C0.262207 107.213 0.273873 107.184 0.294636 107.163C0.3154 107.142 0.343559 107.13 0.372923 107.13C6.24675 107.128 12.1331 107.129 18.0321 107.132C20.0869 107.132 21.5558 107.037 22.4385 106.848C25.3349 106.231 27.1971 104.929 29.4269 102.69C38.5735 93.508 47.7371 84.3496 56.9176 75.2148Z" fill="black"/>
</svg>
