<svg xmlns="http://www.w3.org/2000/svg" viewBox="0 0 198.7 144.7"><g id="Layer_2" data-name="Layer 2"><g id="Calque_1" data-name="Calque 1"><path d="M82.7,141.2a9.18,9.18,0,0,1-3.35-.64,8.83,8.83,0,0,1-5.67-8.89l2.17-36A6.63,6.63,0,0,0,72,89.2L5.33,59.45A8.72,8.72,0,0,1,.31,49,8.72,8.72,0,0,1,9.8,42.34L71.89,48a6.61,6.61,0,0,0,7.2-6.18l2-33.4a9.09,9.09,0,0,1,1.18-4A9,9,0,0,1,88.72.11,8.74,8.74,0,0,1,96,2.27a9,9,0,0,1,1.6,1.89l19.28,30.2a6.55,6.55,0,0,0,7.22,2.84l34.7-9A9,9,0,0,1,168,42.58L146.29,69a6.61,6.61,0,0,0,.61,9l48.87,45.36A9,9,0,0,1,186,138.11L120,108.61a6.63,6.63,0,0,0-7.8,1.84L89.56,137.91A8.86,8.86,0,0,1,82.7,141.2ZM8.84,44.65A6.61,6.61,0,0,0,6.29,57.29L72.91,87a9,9,0,0,1,5.3,8.73l-2.18,36a6.61,6.61,0,0,0,11.7,4.6L110.33,109a9,9,0,0,1,10.58-2.49L187,136a6.6,6.6,0,0,0,7.19-10.86L145.29,79.73a9,9,0,0,1-.83-12.27l21.71-26.38a6.6,6.6,0,0,0-6.76-10.59l-34.69,9a9,9,0,0,1-9.82-3.85L95.63,5.43A7.06,7.06,0,0,0,94.43,4a6.45,6.45,0,0,0-5.35-1.57,6.68,6.68,0,0,0-4.75,3.18,6.72,6.72,0,0,0-.87,3L81.44,42a9,9,0,0,1-9.76,8.38L9.58,44.69A6.23,6.23,0,0,0,8.84,44.65Z"/><path d="M83.31,5a7.76,7.76,0,0,0-1,3.48l-2,33.4a7.79,7.79,0,0,1-8.49,7.29l-36.5-3.35A71,71,0,0,1,83.31,5Z"/><path d="M171.29,73.82A71,71,0,0,1,167,98.24L146.09,78.86a7.8,7.8,0,0,1-.72-10.65l19.57-23.77A70.84,70.84,0,0,1,171.29,73.82Z"/><path d="M152.52,121.87a70.87,70.87,0,0,1-123-48.05c0-1.6.06-3.19.17-4.78L72.43,88.12A7.79,7.79,0,0,1,77,95.7l-2.17,36a7.78,7.78,0,0,0,13.78,5.42l22.6-27.46a7.79,7.79,0,0,1,9.19-2.17Z"/><path d="M156.21,30.1l-31.79,8.25A7.8,7.8,0,0,1,115.9,35L96.62,4.79a8.09,8.09,0,0,0-1.39-1.65C96.94,3,98.67,3,100.42,3A70.76,70.76,0,0,1,156.21,30.1Z"/></g></g></svg>