<svg xmlns="http://www.w3.org/2000/svg" viewBox="0 0 147 147"><g id="Layer_2" data-name="Layer 2"><g id="Calque_1" data-name="Calque 1"><path d="M38.32,72C63.41,69.44,69.44,63.41,72,38.32a1.47,1.47,0,0,1,2.92,0c2.6,25.09,8.63,31.12,33.72,33.72a1.47,1.47,0,0,1,0,2.92C83.59,77.56,77.56,83.59,75,108.68a1.47,1.47,0,0,1-2.92,0C69.44,83.59,63.41,77.56,38.32,75A1.47,1.47,0,0,1,38.32,72Z"/><path d="M73.5,147a4.82,4.82,0,0,1-4.86-4.38c-2.69-26-7.15-39.57-15.92-48.34S30.4,81.05,4.38,78.36a4.89,4.89,0,0,1,0-9.72C30.4,66,44,61.49,52.72,52.72S66,30.4,68.64,4.38a4.89,4.89,0,0,1,9.72,0c2.69,26,7.15,39.57,15.92,48.34S116.6,66,142.62,68.64a4.89,4.89,0,0,1,0,9.72c-26,2.69-39.57,7.15-48.34,15.92S81.05,116.6,78.36,142.62A4.82,4.82,0,0,1,73.5,147Zm0-143a.81.81,0,0,0-.88.79c-5.16,50-17.84,62.67-67.83,67.83h0a.89.89,0,0,0,0,1.76c50,5.16,62.67,17.84,67.83,67.83a.89.89,0,0,0,1.76,0c5.16-50,17.84-62.67,67.83-67.83a.89.89,0,0,0,0-1.76c-50-5.16-62.67-17.84-67.83-67.83A.81.81,0,0,0,73.5,4Z"/></g></g></svg>