<svg id="Layer_1" data-name="Layer 1" xmlns="http://www.w3.org/2000/svg" viewBox="0 0 1000 1000"><defs><style>.cls-1{fill-rule:evenodd;}</style></defs><path class="cls-1" d="M953.56,592.55q-12.33-23.84-24.68-47.68c-4-6.93-10.09-21.49-15.9-26-11.79-9.22-25-17.71-37.39-27l5.27,4,1,1.35-25.36,5.41-10.82-11.16,23.67-4.39,3.56,2.72c-1.66-1.28-3.3-2.59-4.91-3.91l.33.51-23,4.4q-4.23-7.95-8.45-15.9l20.29,2,5.26,4.25a118.29,118.29,0,0,1-14.4-15.07L823.71,425.5c-9.54-15.14-20.7-28.56-31.83-41.94-9.16-1.63-15.39-5.14-19.91-11.49,6,1.21,15.19,4.05,17.58,9.13l2.19,2.19c-3.69-4.43-7.37-8.86-11-13.35C771.05,358,753,348.68,745.59,336.22c-5.11-8.63-10.89-32.9-19.28-36.52-13.6-5.87-28.82-7.08-43.62-11.5-5.45-1.62-14.18-5.2-21.64-3.72-14,2.8-28.51,5.55-43.29,8.8-4.8,1.05-12,3.14-18.26,2-54.78-9.69-129.82-9.7-184.64,0-6,1.06-12.95-1-17.58-2l-24.69-4.4c-7.62-1.89-14.86-4.47-24-4.4l-10.14,1.7-40.92,11.15c-4.72,1.49-10.07,2-13.53,4.74l-3.72,8.45C275.74,320.9,270.73,333.31,264,342L249.5,352.79a200,200,0,0,0-32.13,31.79c-13.27,16.66-26.69,33.77-38.21,52.08-6.79,10.8-12.78,22.39-20.63,32.13-4.71,5.83-11.22,10.32-17.25,14.88-15.75,11.92-32.73,23-48.35,35.5-5.12,4.08-13.1,20.54-16.91,27.06-9.17,15.66-16.74,32.45-26,48.35l-11.16,21c19.78-3.44,39.76-8.21,60.41-12-3.66.56-6.88,1-8.33,1.16l11.83-26,23-1h3.72l-13.53,22c-.77.75-3.84,1.57-7.61,2.33a326.62,326.62,0,0,1,35.34-4l63.58,8.79,62.22,7.1,25,1,63.24-5.41,41.93-2.36,29.09-1.36,60.87-1.69,51.74.68,25,.68,31.45,1.35,38.55,2.37c22.4,3.56,44.89,2.27,66.28,5.74l15.56-.67a131.29,131.29,0,0,1,14.46-1.33l-27.31,1-5.07-27.05,25.7,3q3.71,11.49,7.43,23c7.93-.35,15.55-.41,23-1.69,31.32-5.37,62.8-6.24,93-11.83,16-3,36.14,1.15,51.06,4.39l32.46,5.75c5.58,1.31,27,7.36,31.45,5.75h.68Zm-3.38-4.39-23-5.07-11.5-24L938,564.15ZM521.39,335.21v5.41l-14.21-.34v-4.73Zm-14.21-.34V324.05h14.21v10.48ZM522.06,343c.11,3.6.23,7.21.34,10.82l-15.56.68V342.65ZM815.93,467.77c-15.25-5.69-18-3.55-27-16.23l19.27,1.69c1.42.85,2.62,2.77,3.68,5-.72-1.79-1.38-3.46-2-4.65,15.7,2.69,19.4,7.48,25.36,19.95l-17.58-5.41c-1.49-1-2.78-3.1-3.92-5.51A50.76,50.76,0,0,0,815.93,467.77Zm70.34,88.94.34.68-29.09,4.73L844,550h-.68l26-5.08h2Zm-13.53-12.17,27.39-5.42c3,1.89,11.43,14.37,12.85,17.93l.68.67-25.7-.67ZM309,325.4l-2.37,5.08-13.53,1.69v-.34Zm-7.78,2,1.69-1C303.07,327,302.94,327,301.24,327.43Zm205.27,8.12v4.73l-14.55.34c.12-1.8.23-3.61.34-5.41Zm-14.21-1c.12-3.49.23-7,.34-10.48h13.87v10.82Zm44-.33q.18,3.89.34,7.77l-13.86-1c-.23-1.92-.45-3.83-.68-5.75Zm-14.2.33V323.71l13.87-.67.33,10.48Zm-211.69-9.47,14.88,2.37.34.34c-.91,2.59-1.81,5.19-2.71,7.78L307,331.15Q308.67,328.11,310.37,325.06Zm-1.35-.33v-.34l.67-.34C309.84,324.76,309.85,324.26,309,324.73Zm214.06,55.12.33,4.73c-3.93-1.51-15.57-3.42-17.24-7.1Zm-16.57-3.05v-1l16.23,1.35c.11.68.22,1.36.34,2Zm33.14,0,.67,7.11-15.89-4.74a4.25,4.25,0,0,1-1-2Zm-16.24-.67v-8.79l15.9-2.37q.16,5.58.34,11.16Zm46.67-25.7,1,1.35c-4.35-.46-13.45-1.63-15.9-4.4ZM554.53,346c4,.58,11.89,1,14.54,3.38Zm-97.73,1.35h.67c-2.43,2.83-11.39,3.64-15.55,4.4C444.61,348.44,452.71,349.3,456.8,347.38Zm-12.86,2c2.86-2.58,9.82-1.76,13.53-3.38h1ZM673.56,437l-21.3,5.07-3.72-5.75,20-5.75,5.07,6.09Zm.68,1L678,452.22l-20.63-3.05-4.06-6.08L672.88,438Zm-25.37-3c-2.41-.66-3.63-3.82-4.73-5.75v-.34l18.94-5.41c2.46.83,4.12,4.41,5.41,6.43ZM545.73,419.41l19.28-3q.51,7.28,1,14.54l-18.93-3C545.75,426.52,545.64,422,545.73,419.41Zm.34,26-20-1.69V426.85l19.27,1.69Q545.74,437,546.07,445.45Zm92.66-24.68-17.59-4.4q-1-5.58-2-11.16L636,411q1.37,4.74,2.71,9.47Zm.68,1q1.51,3,3,6.09v.34l-18.6,1.35-2.37-12.18Zm-23.68-27.39q1,4.73,2,9.47h-.34c-11.93-4.46-15.88-1-18.59-15.56ZM596.8,379.51l16.57,5.75c.67,2.7,1.35,5.41,2,8.11l-16.57-5.74Q597.81,383.57,596.8,379.51Zm3,18.26v.34l-18.26,1.35c-.56-1.91-1.13-3.83-1.69-5.75v-.34l17.58-5.07C599.15,390,599.17,395.27,599.84,397.77Zm-17.92,2.37,18.26-1q.84,5.42,1.69,10.82v.34l-18.26-5.07q-.86-2.37-1.69-4.73Zm18.93-1,17.25,5.75L620.47,416C607.52,411.71,602.86,415.22,600.85,399.12Zm34.84,10.82-16.91-5.74q-1-4.74-2-9.47l15.55,5.75c2.12,1.37,2.62,6.51,3.39,9.13Zm-18.94-15.89c-.9-2.82-1.81-5.64-2.71-8.45l16.23,5.75,2.37,8.11Zm-3-9.47c-.67-2.14-1.35-4.28-2-6.42l14.88,5.41c1.89,1.12,2.61,4.6,3.38,6.76Zm13.19-2-15.55-5.41q-1-2.7-2-5.41l15.55,5.41q1,2.53,2,5.07Zm-18.26-11.83c-.56-1.36-1.13-2.71-1.69-4.06l15.22,4.06c.68,1.8,1.35,3.6,2,5.41Zm-.67-.34L592.06,365l-1.35-3.72C597.24,363.72,605,364.17,608,370.38Zm.67,1.35q.86,2.37,1.69,4.74l-15.89-5.41c-.56-1.7-1.13-3.39-1.69-5.08Zm4.4,12.51-16.57-5.74q-.86-3.22-1.69-6.43C603.42,373.59,610.15,376.42,613,384.24Zm-15.22,3.05-17.25,5.07h-1l-1.35-6.43,17.24-6.42C596.93,381,597.19,385.14,597.81,387.29Zm-17.25,12.17-18.26,5.41L561,399.46l17.25-5.75h1Zm-.67,1h1.35c.56,1.69,1.13,3.38,1.69,5.07L564,410.28h-.33l-1-4.73Zm2.7,5.74q1,6.43,2,12.86l-18.94-3.72q-.84-2.21-1.69-4.4Zm1.36,0,17.92,5.08q1,6.42,2,12.85l-18.6-4.74Zm18.93,5.42,17.59,5.07,2.37,12.51-17.93-4.73Q603.91,418.05,602.88,411.64Zm20.29,18.59q1.37,5.08,2.71,10.15l-19.28-1q-.84-7.11-1.69-14.21Zm.68,0,15.56-1h3.72l3.72,5.75-20.29,5.41Q625.19,435.31,623.85,430.23Zm19.61-2q-1.68-3.22-3.38-6.43L659,416c1.62,1.05,3.1,3.76,3.72,5.75l.68.68Zm-3.72-7.44L637,411,655,408.25,659,415Zm-3-10.49q-1.35-4.72-2.71-9.47l4.74-.33h12.51l3.72,7.1Zm-3-10.48-2.37-8.12,16.91.34,3,7.44Zm-3-9.13q-1.18-3.39-2.36-6.76l5.41-.34h11.49q1.36,3.89,2.71,7.78Zm13.87-8.12-16.57.34-2.37-5.41v-.34l14.2-2.36h2.37l2.37,7.43Zm-19.28-6.08-2.36-5.75v-.34l16.23-5.07,2.7,8.45Zm12.51-21.65h-.33q-1-4.21-2-8.45V346l13.86-2h2c.9,1.92,1.81,3.83,2.71,5.75Zm18.94,3.72c-3.09,2.77-12.45,5.07-16.91,5.75q-1-4.4-2-8.79l15.9-5.07Zm-17.58,5.75L622.5,369.7q-1-4.4-2-8.79l15.89-5.07C637.26,358.66,638.17,361.47,639.07,364.29Zm-17.25,5.41c-6.57-1-14.65-2.82-17.58-7.78l14.54-1C620.87,362,621.09,367.35,621.82,369.7Zm-17.25-5.41.68.68-14.54-4.74-2-2.7,14.88,4.39C603.9,362.71,604.24,363.5,604.57,364.29Zm-13.18.34V365l-16.24,1-1-9.47L590,361.25C590.48,362.38,590.93,363.5,591.39,364.63Zm-.68,1,1.35.34q.86,2.53,1.69,5.08l-16.91,4.73h-.33c-.45-2.93-.91-5.86-1.36-8.79Zm2.7,6.09,2.37,7.1-17.92,5.75-1.35-7.78Zm-14.54,20.63L561,398.45q-.51-2.54-1-5.08v-1.69l16.57-5.75h1Zm-18.6,7.44,1,4.4v1l-17.92,4.4c-.23-2.6-.45-5.19-.68-7.78Zm1,6.09,1.69,4.05v.34l-18.26,4.06-1.35-3.72Zm1,5.41h1l1.35,4.06-19.28,3.38c-.33-1.13-.67-2.26-1-3.38Zm-17.58,8.45c.22,2,.45,4.06.67,6.09v2l-18.93-2c-.7-.72-.76-2.6-1-3.72v-.34Zm-18.6,54.78-21.31.34q.18-6.08.34-12.17l20.29.34Q525.78,468.79,526.12,474.53Zm-.68-12.17-19.61-.68c-2.16-2.38-.79-13.56-.68-17.58l20.29.68Zm-184-32.46,4.4-6.43,19.61,5.41h.68L362.45,435ZM361.43,436,357,442.07l-21-4.73c-.11-.23-.23-.45-.34-.68l5.07-6.09,20,5.41Zm1.69-.67,4.06-6.09,19.28,1q-1.53,5.08-3,10.15l-20.29-4.73ZM390.18,416l2.7-11.16,16.91-5.75q-1,5.42-2,10.82C405.19,413.25,394.43,414.69,390.18,416Zm17.58-4.39q-1,6.25-2,12.51l-18.26,5.07,2.37-12.17,16.91-5.41Zm5.75-24c.68-2.71,1.35-5.42,2-8.12l17.25,6.09c1.08.7-.81,4.82-1,6.76Zm17.92,5.74q-1,3-2,6.09l-18.26-1.35q1-4.91,2-9.81l17.59,5.07Zm-13.52-21.64,17.24,4.74-1.35,8.11-17.92-5.75Q416.89,375.29,417.91,371.73ZM402,376.47h-.34c.68-1.47,1.36-2.93,2-4.4,2.72-3.5,11.26-3.88,15.22-6.09L417.57,370C415.47,373.24,405.79,375.08,402,376.47Zm32.13,9.46,16.91,5.75h.67c-.34,2.26-.67,4.51-1,6.77L432.79,393Zm18.6,6.77c2.13-1.94,13.55-1.07,16.91-1q-.34,4.74-.68,9.47l-17.59-2.36Q452.07,395.75,452.74,392.7Zm-.68-1.69-17.58-5.75c.56-2.71,1.12-5.41,1.69-8.12l16.57,5.41C453.67,383.53,452.26,388.57,452.06,391Zm-16.57-15.22-17.25-4.73c.68-1.81,1.36-3.61,2-5.42L436.84,367ZM420.61,365l1.69-3.72,15.22-4.74c1,1.14.21,7-.68,8.8C434.49,367.38,424.49,365.1,420.61,365Zm-16.23,5.41,2-4.06,14.88-5.07C423.93,364.76,407.13,369.25,404.38,370.38Zm-1,.34-15.21,5.41q1.19-2.72,2.36-5.41l14.21-4.06C405.62,367.23,404,369.5,403.36,370.72Zm-1,1c-.68,1.81-1.35,3.61-2,5.41l-14.88,5.41h-.34l2.37-5.41Zm-1.69,6.43,15.22-6.09h1c-.56,2.14-1.13,4.28-1.69,6.43l-16.57,5.74Zm12.85,1.69h1c-.67,2.36-1.35,4.73-2,7.1l-16.58,6.42,2.37-7.44C401,382.44,409.61,382.13,413.51,379.85Zm-2.37,8.79h1q-1,4.39-2,8.79c-2.19,3.31-12.61,5-16.57,6.43h-.34c.68-3.05,1.35-6.09,2-9.13Zm-.34,10.48,18.27,1c-.68,1.46-1.36,2.93-2,4.39-2.35,3.39-13.77,4.35-17.93,5.75h-.33Q409.79,404.7,410.8,399.12Zm18.94,1.36,18.6,5.07v.34L447,409.94l-19.28-4.39Q428.73,403,429.74,400.48Zm.34-1c.68-1.91,1.35-3.83,2-5.75l17.58,5.75c.75.48-.25,3.6-1,4.74v.67Zm21,1c2.63-2.28,13.6,1,17.58,1.35q-.33,3.72-.68,7.44l-.33.34-17.93-4.4C450.14,403.63,450.6,402.05,451.05,400.48Zm18.6,1.35,17.24-5.07q-.17,6.75-.34,13.52l-17.92-.34Zm0-1q.5-4.4,1-8.79l15.89-6.09c1.63,1.74.46,7.29.34,10.15ZM470,391H452.74l1.35-8.12,16.57,2C470.43,387,470.21,389,470,391Zm-16.57-9.13-17.24-5.75,1.35-9.13,16.91,5.07Zm-15.55-15.56,1.35-9.81,15.89,4.06c-.22,3.5-.45,7-.67,10.49Zm-14.54-6.42c.33-.68.67-1.36,1-2l15.22-4.74C441.14,355.69,426.15,359.3,423.32,359.9Zm-.34-.68c-2.45,3.37-11.87,4.44-15.9,6.09l1.7-3.05,14.87-4.73ZM390.85,369.7q1-4.4,2-8.79l15.56,1C405.55,366.7,397.25,368.76,390.85,369.7Zm-.67,0-16.91-5.07q1.19-4.39,2.36-8.79l16.58,5.07Q391.19,365.3,390.18,369.7Zm-.68.68-2.37,5.41c-.33.85-14-1.73-16.57-2l2.37-8.45Zm-2.71,6.76-2.7,5.75-16.57-.34,2.7-7.77Zm12.52,1c.92,1.28-.86,4.2-1.36,6.42l-16.23,5.75,2.37-6.09Zm-2.37,7.44c.47,1.58-1,5.91-2,7.44-2.39,3.23-11.9,5-15.89,6.42h-.34v-.34C383.64,385.76,387.26,392.06,396.94,385.6Zm-2.71,9.13c-.67,3-1.35,6.08-2,9.13l-16.91,6.08,3-9.46Zm-2.7,10.48q-1,5.58-2,11.16l-17.58,4.4q1.51-4.9,3-9.81Zm-3.72,12.17,1.35.34-2.37,11.5-.33.34-18.6-1.35,3-5.75Zm-.68,12.85,18.26-5.07q-1,7.11-2,14.21l-19.27,1Q385.61,435.31,387.13,430.23Zm19.28-4.73c3.2-3.42,12.57-2.94,16.91-5.07h1.35q-.84,7.26-1.69,14.54L404,439Zm0-1.35c3.81-20.76,5.19-10.59,19.95-17.93L425,419.41Zm21-17.93L446.31,411c-.56,1.46-1.13,2.93-1.69,4.4l-18.94,3.72Q426.54,412.65,427.37,406.22Zm20,5.08L465.59,415l.34.67c-2.12,5.26-14.12.42-20.29-.33C446.2,414,446.76,412.65,447.33,411.3Zm.33-1c.57-1.46,1.13-2.93,1.7-4.39l18.26,4.73-1,3.72Zm19.62,4.06c2-5.18,12-3.61,18.94-3.38q-.18,3-.34,6.09l-18.6-2.37Zm18.94,4.06,17.92,1c.71.7.64.88.67,2.37l-18.93-.68C486,420.2,486.1,419.3,486.22,418.4Zm18.59,0-18.26-1c.23-2.14.45-4.28.68-6.42l17.92-1.35Q505,414,504.81,418.4Zm-17.58-8.12q.16-6.76.34-13.52l17.24-2.71q.18,7.27.34,14.54Zm.34-25.36L471,390.67h-.34c1.77-10.18,9.22-6.57,16.57-10.48C488.18,381.21,487.73,382.9,487.57,384.92ZM471,384.24l-16.91-2.36q.51-4.74,1-9.47l16.24,4.06Q471.16,380.36,471,384.24Zm-15.56-12.51c.23-3.6.45-7.21.68-10.82l15.55,3.72c1.59,1.71.28,8.43,0,11.16Zm0-11.83-15.89-4.06c.34-.9.67-1.81,1-2.71l15.22-3.72C457,350.74,455.75,357.35,455.44,359.9ZM426,356.18c2-3.92,11.17-3.5,15.22-5.41C443.65,351.94,427.71,355.66,426,356.18Zm-16.23,4.73,1.69-5.41,12.85-1H426C424,358,414.4,360.23,409.79,360.91Zm-1,.34-15.56-1c.56-3,1.13-6.08,1.69-9.13l15.89,4.4C410.13,357.42,409.45,359.33,408.78,361.25Zm-14.21-11.16-15.89-4.4q1-4.56,2-9.13l15.55,4.06C395.7,343.78,395.14,346.93,394.57,350.09Zm-.34.68c-.67,3-1.35,6.08-2,9.13l-15.56-4.74H376l2.37-8.79Zm-18.93,4.05-16.57-5.07,3-5.75,15.89,2Q376.49,350.42,375.3,354.82Zm-.34.68v.34l-2.37,7.78v.67l-16.91-5.75,2.71-8.11ZM372.25,365v.34c-.79,2.7-1.58,5.41-2.36,8.11L352.3,368c1-2.7,2-5.41,3-8.11Zm-3,9.81q-1.35,3.54-2.71,7.1c-1.57,1.09-14.36-4.4-17.92-5.08,1.13-2.7,2.26-5.41,3.38-8.11Zm-2.37,8.79,16.57.34v.33q-1.19,3.22-2.36,6.43l-17.25.68C364.81,388.75,365.83,386.16,366.84,383.57Zm7.1,8.11h6.43V392c-.9,2.59-1.8,5.19-2.71,7.78l-17.58-.34,3.38-7.44Zm3.39,9.13-3.39,9.47L356,407.58l3.72-7.1ZM374.28,411q-1.51,4.91-3,9.81l-19.61-5.41,4.05-7.11Zm-3.72,10.82-3.72,6.43-19.95-5.42v-.33L351,416Zm-24.68.68-20.29-5.75c1.57-2.26,3.15-4.51,4.73-6.77l19.95,5.75Zm-.68.67c-1.47,1.92-2.93,3.84-4.4,5.75-1.72,1.44-17-1.3-20.62-1.69q2.35-4.9,4.73-9.81Zm-6.09,7.44h.68c-6.13,8.57-13.49,7.74-24.35,11.16q2.21-6.76,4.4-13.52ZM333.36,438c1.72,2.3-2.55,10.65-3,14.21l-19.61,5.07q2.19-7.28,4.39-14.54Zm-3.72,15.22-3.72,16.23L306,474.53C311.68,451,312.13,461.84,329.64,453.23Zm-4.39,17.25-3.72,17.58-21,2.37,5.07-15.22Zm1.35.33,19.61-5.07c1,1.1-2.69,14.54-3,17.93l-20.63,4.05Q324.58,479.28,326.6,470.81Zm.34-1.35,3.72-16.23,19.95-3q-1.69,7.26-3.38,14.54ZM331,452.22,335.05,438l21.31,4.74v.34C350.28,451.6,343,450.14,331,452.22Zm26.37-9.13,21,4.73-4.06,6.09-22-4.4Zm1.36-.68h-.68l4.4-6.09,20.29,4.74v.33l-3.39,5.41Zm21.3,4.73q1.53-2.53,3-5.07c5.05-2.33,13.39.05,18.94-2h1l-2.37,11.16L380,447.48Zm42.61-11.49-1.35,15.55-20,.68C405.42,432.5,408.2,442.12,422.64,435.65Zm1,0,19.28-3.72-1.35,16.23-19.62,3Q422.81,443.43,423.65,435.65Zm.34-1q.86-7.28,1.69-14.54l18.6-3.72-1.35,14.54ZM445.3,416l19.27,3.38c-.34,2.71-.67,5.41-1,8.12l-19.62,3.38Q444.63,423.47,445.3,416Zm20.29,3.72,18.93,2c-.22,1.35-.45,2.71-.67,4.06l-19.62,2C464.69,425.16,465.14,422.46,465.59,419.75Zm.34-1c.33-1.13.67-2.26,1-3.38l18.6,2.7v.34l-.68,2.7Zm19.61,3.38,18.94.67v2.71l-19.62.34Zm19.27,53.77,21.31-.34c.11,1.8.22,3.61.34,5.41l-22,.34Zm21.31-31.11,20,1.35,1,17.58-20.63-1.35Q526.28,453.57,526.12,444.78Zm20.29-15.9L566,431.59l1,15.21v1l-19.95-2.37Q546.75,437.17,546.41,428.88Zm19.27-12.51L584,420.09c2.12,2.26,1.24,9.87,2,13.19v1.35L567,431.25Q566.37,423.81,565.68,416.37Zm20,4.06,17.24,4.39c2.68,1.56,2.24,10.87,3,14.21L587,435ZM605.93,440q1.19,5.74,2.36,11.5v.34l-19.61-.34q-.84-7.95-1.69-15.89Zm1,0,18.94,1.35,3,5.08.68.67-20,4.4h-.34Zm20.29,1.35,19.28-5.07c2,.69,3.37,3.18,4,5.07l1,1L631,447.14Zm23.33,2h1.7l3.38,5.08c.34.33.67.67,1,1l-22,4.4c-1.13-1.92-2.25-3.84-3.38-5.75Zm6.09,6.77,3.72,14.2-21-3.38-3.72-6.09Zm1.35,0,20,2.7,3.72,16.57-19.62-4.73C659.74,462.57,658.45,453.74,658,450.19Zm21,3,19.61,5.07q2,7.79,4.06,15.56v.34L683,469.8Q681,461.52,679,453.23ZM675.25,438l18.94,4.4q2,7.44,4.06,14.88C682.71,455.05,677.54,454.1,675.25,438Zm18.6,3.38c-9.87-1-19.67-3.57-23.67-10.82l16.91-2.36C692.11,428.3,692.73,437.51,693.85,441.39Zm-3-13.18L709.07,434q2.19,6.6,4.39,13.19l-18.26-5.07Q693,435.14,690.81,428.21Zm-1.36-1-20,2.37-4.39-6.43,19.27-5.75c2.46,1.24,4,6.9,5.07,9.47Zm-24.68-4.73-4.4-6.77,18.94-5.75c2.5.94,3.33,4,5.07,5.75l.34,1ZM660,415l-3.72-6.77,18.6-6.08c1.75,1.12,3.32,4,4.06,6.08l.68.68Zm14.88-13.53-19.27,5.75-3.38-7.1,17.92-5.75c2.32.86,3.71,4.64,4.73,6.76Zm-23-2-3-7.44,17.93-6.09,3.72,7.78ZM648.54,391q-1.37-3.9-2.71-7.78l17.25-5.75,3.72,7.78Zm-3-8.46-2.7-8.11,16.91-5.75q1.68,3.88,3.38,7.78Zm-3-9.13-2.37-8.11L656,359.9c2.1.83,3.4,5.62,3.72,8.11ZM658,359.56l13.53-1h2.37l3.72,4.74v.34l-16.57,4.05C660,365,659,362.26,658,359.56Zm-.33-.68q-1.36-4.23-2.71-8.45c6,1.79,15.09,1,17.59,6.42l1,1Zm-3-9.13-2.7-5.41c6.14,1.11,14,3.81,17.24,8.12ZM649.21,341c5,1.92,12.5,2.84,15.56,6.76C659.67,345.73,652.67,344.67,649.21,341Zm-2.7-2.71c4.4,1.69,11.43,2.33,14.2,5.75C656.5,342.14,649.36,341.57,646.51,338.25Zm1,2,2.71,3.05-14.88,2q-1-4.39-2-8.79ZM636.7,355.16l-16.23,4.74q-.86-3.9-1.69-7.78v-1.35l14.54-4.4h1.35C635.35,349.3,636,352.23,636.7,355.16Zm-16.91,5.07-15.89,1c-.57-1.92-1.13-3.83-1.69-5.75l14.88-4.4C618.91,352.57,619.09,357.79,619.79,360.23Zm-16.57,1c-5-1.92-13.7-2.63-16.57-6.76l14.88,1C602.09,357.42,602.66,359.33,603.22,361.25ZM589,359.56v.34l-14.88-4.06-1.35-2.71C577.72,354.81,586.55,355.3,589,359.56Zm-14.54,6.76-16.91,5.07c-.23-3.49-.45-7-.68-10.48l15.56-4.4C574.25,358.14,573.85,363.66,574.48,366.32Zm-.34.68,1.35,9.13-16.91,5.75q-.5-4.9-1-9.81Zm.68,10.14c2,1.15,1.5,5.2,2.36,7.44L559.6,391l-1-8.46Zm-14.88,20.63v1l-17.25,2.36c-.23-3.15-.45-6.31-.68-9.47l16.91.34Zm-16.57,16.91-18.27,2.7-.33-6.42h17.92C542.92,412.2,543.14,413.44,543.37,414.68Zm-18.27,3.38,17.93-2.7a5.08,5.08,0,0,1,1.35,3.38l-18.94,2.36c-.11-.67-.22-1.35-.34-2Zm.34,25.7-20.29-.67V426.51l20,.34Q525.28,435.31,525.44,443.76Zm-20.29-50.39-17.24,2.37.33-10.48,16.57-5.75h.34Zm-33.48-9.46,1-7.11,15.89.34v.34c-.11.56-.22,1.13-.34,1.69Zm1-7.78q.33-5.58.68-11.16l15.89,2.37c-.11,2.93-.23,5.86-.34,8.79ZM472.35,364l-15.22-3.72c-1.56-1.71-.13-7.78,0-10.82l15.22,3C473.88,354.15,472.58,361.12,472.35,364Zm-44.64-10.48c.45-1.46.9-2.93,1.36-4.4l4.05-.33h10.15C440.47,351.71,431.93,352.18,427.71,353.47Zm-15.55,1.35h-.34l1.35-9.47,15.22,3.39C426.42,356.93,419.84,353.08,412.16,354.82Zm-1-.33-15.89-4.06c.56-3.16,1.13-6.32,1.69-9.47L412.5,345Q411.81,349.75,411.14,354.49ZM396.6,339.94l-15.55-4.05c3.37-4.51,10.93-2.77,16.57-5.08C398.72,331.52,396.74,337.62,396.6,339.94Zm-25-4.05v-.34l12.17-3.72C385.46,332.21,374,335.57,371.58,335.89Zm9.47-2h1v.34c-4.29,2-10,3.33-14.88,5.07C370.29,335.92,376.85,336.13,381.05,333.86Zm-2,2.7c1.1,1.21-.4,6.49-1.36,8.12v.67l-15.21-2C366.17,338.77,373.58,339.49,379,336.56Zm-12.52,2.37L353,343.66c2.85-3.32,9.57-3.2,13.52-5.41Zm-3,2c.9.32-.45.47-.68.67-3.53,3.14-9.88,4.15-14.54,6.09C351.62,343.63,358.66,343.65,363.46,341Zm-3.38,3.38c.81,1.07-1.38,3.54-2,5.41l-14.54,2.71C347.24,347.39,354.43,347.52,360.08,344.34Zm-3,6.09c1.07.43-1.77,6.22-2,8.11l-16.24-.67C343.12,351.81,349.7,353.66,357,350.43Zm-2.37,9.13c-1,2.7-2,5.41-3,8.11L334.72,364c-.12-.22-.23-.45-.34-.67l3.72-4.74Zm-3.38,8.79-3.38,7.44c-1.57,1.1-14.37-4.4-17.93-5.07l3.72-6.09Zm-3.05,9.13,17.93,5.75c-1,2.59-2,5.18-3.05,7.78l-18.26-5.75C346,382.67,347.12,380.07,348.24,377.48ZM362.78,392c-1.12,2.26-2.25,4.51-3.38,6.77-1.46,1-15-4.41-18.6-5.08l3.39-7.78Zm-3.72,8.12-3.72,7.1-19.27-5.75,3.72-7.1Zm-4.39,7.78v.33L351,414.34c-1.53,1.07-16.15-4.43-19.95-5.07l4.39-7.1Zm-24,.33c-4.32,1.83-13.64-.28-19.62-.33q2.2-5.09,4.4-10.15l19.28,4.06Q332.68,405,330.66,408.25Zm-1.35,1.36c-5.07,9.56-12,7.16-23,10.14l4.4-11.16Zm-6.09,7.77c.79,1.19-.3,1.94-1,3.39-4.59,9.32-11.07,8.73-21,12.17q2.19-6.09,4.39-12.17Zm-4.74,10.83-3.72,13.52-18.59,5.41q2.19-6.42,4.39-12.85Zm-4.39,14.54q-2,7.44-4.06,14.88l-18.94,5.07,4.74-14.54ZM309,458.64c1.51,1.85-3.3,11.94-3.72,15.56l-20.63,2.36C290.37,458.44,294.91,465.77,309,458.64Zm-6.77,16.91h2.37v.34l-5.07,14.54-23.34-4.74q3.9-4.21,7.78-8.45Zm-3.38,15.55q-3.56,4.06-7.1,8.12l-24.69-4.4q4.07-4.21,8.12-8.45Zm-6.42,8.46q3.54-4.06,7.1-8.12l21.3-2.7q-2.37,7.61-4.73,15.22l-23.67-4.06Zm29.75-10.82,18.94-4.06h1.69l-3.72,18.6-22,.68Zm21.65-4.4,20.63-4.06c1,1.05-2.37,15.84-2.71,19.28l-21.64,3.72Zm.67-1h-.33q1.68-8.79,3.38-17.59L367.52,462h1q-1.68,8.3-3.38,16.57C363.54,480.83,348.34,482.32,344.52,483.33Zm3.39-18.6,4-14.54,21.31,4.39v.34C368.59,463.45,358.23,461.93,347.91,464.73Zm22-3.72,4.39-6.09L395.92,459q-1.51,2.53-3,5.07c-5.77,2.51-16.12-2.44-23-2.7Zm5.41-6.77v-.33l4.05-5.75,20,4.39H400l-3.38,5.08C395.46,458.67,379,454.61,375.3,454.24Zm25.7-1.69,14.54-.33H421v.33l-2.37,9.13-20.29-3.38h-.67Zm20.63,0,19.95-3.72q-.68,7.95-1.36,15.9l-21-2.71Zm21-3c1.54-1.6,16.11-3,19.62-3l-1,17.24-19.95,1.36h-.34Q441.74,457.29,442.59,449.51Zm0-1.69,1.35-16.23,19.28-2.71q-.51,8.28-1,16.57Zm21.64-18.94,19.62-2q-.35,8.46-.68,16.91l-19.95,1.69Q463.73,437.17,464.23,428.88Zm20,15.9,19.95-.68v17.58l-20.63.68Q483.86,453.57,484.19,444.78Zm0-1,.33-16.91,20-.34q-.18,8.3-.34,16.58Zm20.29,38.55L526.8,482l.33,6.09-22.65.34Zm22.32-7.78c-.12-3.71-.23-7.44-.34-11.15l19.95,1.35c1.35,1.37,1.49,6.16,1.69,8.45Zm21-10.82q-.33-8.62-.67-17.24L567,448.83q.51,8.12,1,16.24ZM567,431.93,586,435.65q.84,7.77,1.69,15.55l-19.62-3Q567.54,440,567,431.93Zm20.63,20.29c.67,2.93,1.35,5.86,2,8.79-1,1.75-17,3.73-20.62,3.72l-1-15.9Zm1,0,19.61.33,3.39,5.75-19.28,3.38h-1.69C590,458.53,589.36,455.37,588.68,452.22Zm21,.33,20-4.39c1.65.94,3.06,3.54,3.72,5.41l.67.67-21,4.06Q611.34,455.43,609.65,452.55ZM634,454.92l4.4,6.09v.34l-21.64,3.38L613,459Zm3.72,7.1h1.36l2.7,17.25c-12.57-3.51-22.22,1.12-24.68-13.53Zm2.37,0,20.63,3.38q1.69,8.81,3.38,17.59v.34l-21-3.72Q641.6,470.82,640.08,462Zm21.64,3.72,20.29,4.4,3.72,16.57v1l-20.62-4.05ZM683,470.48l20,4.73,5.07,15.22-21.3-2.37Zm16.57-11.84,19.27,5.41,5.42,12.51-20.63-2Q701.62,466.6,699.6,458.64Zm18.6,4.06L699.6,458c-1.47-4.95-2.93-9.92-4.4-14.87l18.6,5.07q2.21,7.09,4.4,14.2Zm-8.12-28.41L728,440l4.39,12.51v.34l-17.92-5.07Q712.28,441.06,710.08,434.29Zm-.67-1-4.06-12.18,16.91,5.41,5.07,12.18Zm-.68-.34-17.58-5.75c-2.38-1.52-3.91-7.15-5.08-9.81L704,420.43Q706.36,426.69,708.73,432.94ZM681,409.61l16.23-1c4.47.18,5.63,7.74,6.77,11.16C692.42,417.4,686.53,418.57,681,409.61Zm-.34-.68-4.39-7.1,17.58-4.06h1.69l3.72,10.15Zm14.2-12.17-18.59,4.39a15.89,15.89,0,0,1-4.06-7.44L689.79,388c2.87.89,3.68,6.06,5.07,8.46Zm-23-3.72-3.72-7.11,17.25-6.08h1.35l3.72,7.44Zm-4.4-8.12-3-7.44,16.91-6.09H682q2,3.56,4.06,7.11Zm-3.38-8.45c-1-2.6-2-5.19-3-7.78v-.34l15.55-3.72h1.69l3.72,6.09ZM679.31,365c8.19,1.66,14.56,5.15,18.6,11.16C690.07,373.09,683.49,371.74,679.31,365Zm-4.06-6.09c7.2,2.9,13.72,4.25,17.92,10.15C686,367.1,678.85,364.54,675.25,358.88Zm-3.72-5.07c6.29,2.83,13.15,3.73,16.91,9.13C682.15,360.41,675,359.22,671.53,353.81Zm-3.72-4.06c5.8,1.52,13,3.52,16.23,7.78C678.54,355.88,671,353.91,667.81,349.75ZM664.43,346c5.39,2.11,11.39,3.15,15.22,6.76C674.73,351.51,667.23,349.65,664.43,346Zm-3-2.37c-.45-.56-.91-1.12-1.36-1.69l8.12-.34h6.09c.79,2.48,1.57,5,2.36,7.44Zm-2-2.36-3.05-4.74,14.21-4.06h1c.68,2.71,1.35,5.42,2,8.12ZM658,341c-4.57-1.17-12.39-2.58-15.21-5.75l12.51,1.69Zm-11.83-1.69c-4.82-1.66-12.32-2.07-15.22-5.75C635.62,335.32,642.92,335.92,646.17,339.27Zm-16.91-7.44c3.7.94,10.43,1.91,12.85,4.39Zm-3-2c3.64.14,11.41.46,12.85,3l1,1Zm1.69,2.37c-5.28-1-12.38-.82-14.88-4.74C617.34,329.06,624.69,329.25,627.91,332.17Zm1.69,1,2.37,2.71-14.88,4.05h-.34q-.86-4.56-1.69-9.13Zm-12.85,7.44,14.54-4.06h1q1,4.23,2,8.46l-15.55,5.07h-.34c-.56-3-1.13-6.09-1.69-9.13Zm1,9.81-15.89,4.06L600.52,345,615.4,341C617,342.49,617.34,347.92,617.76,350.43Zm-16.57,4.39-14.54-1.35L585,349.75v-1l13.53-3.39h1.35ZM587,356.18c-4.58-1.06-13.16-2.23-15.89-5.41C575.77,351.82,584.5,352.71,587,356.18Zm-15.22-3.39,1,3-15.9,4.06c-.22-3.5-.45-7-.67-10.49Zm-14.88,18.6-16.57,4.4q-.17-5.58-.34-11.16l15.9-3.72C556.22,364.4,556.55,367.9,556.89,371.39Zm-1,1h1l1,9.47L541,384.24c-.11-2.48-.23-5-.34-7.44Zm-14.54,12.51,16.57-2c.34,2.71.67,5.41,1,8.12H541.68c-.12-1.24-.23-2.48-.34-3.72Zm1,25-17.58.34q-.18-6.76-.34-13.52C533.14,400,542.3,397.51,542.35,409.94Zm-17.58,12.18.33,3.72-19.61-.34v-2.71Zm-36.53-37.54.68-4.73,15.89-2.37h.68C504.36,379.85,491.49,383.43,488.24,384.58Zm.68-5.41c.11-.67.23-1.35.34-2l14.2-1.35h2v.34ZM474,364c-1.55-1.68-.45-8.31-.34-11.49l15.9,2q-.18,6.08-.34,12.17Zm-1-12.51-15.56-2.7.68-.68c2.19-3,11.22-1.91,14.88-3.38C474.18,345.92,473.38,349.45,473,351.44ZM459.84,346l1.69-.68h2Zm.67-1c.23-.45.46-.91.68-1.36L470,343h2.71ZM445,347.72q.51-3.21,1-6.42l14.54,2.36C458.33,346.45,449.11,347.25,445,347.72Zm-.68,0-14.88.34,1-9.81L445,341c.11.22.22.45.34.67Zm-15.55.34-14.88-3.38c.34-3.27.67-6.54,1-9.81l14.88,3C429.4,341.3,429.07,344.68,428.73,348.06Zm-16.23-4.4v.68l-15.22-4.06q.84-4.72,1.69-9.47l15.22,3.72Q413.34,339.11,412.5,343.66Zm-27.06-11.49L400,327.43h.34L399,329.8Zm2-2-13.86,3.72,1.69-2.37,10.48-1.69h1.69Zm-14.2,3.38c-3.17,1.9-10.44,2.19-14.88,2.37q1-4.23,2-8.46L375,331.15Zm-2.71,1.69v.68L355.34,341C359.59,333.78,363,338.1,370.56,335.21ZM355,340.62c-3.25,1.52-11.16.59-15.22,0l2.37-8.12L357,336.56ZM353.32,342c-2.74,3.54-11.5,6.3-16.57,7.1l2.7-7.44ZM348.24,346c2.48,1.36-12,5.85-14.54,6.76C336.85,348.58,343.51,348.68,348.24,346Zm-4.05,3.72h.67c-3.22,4.38-10.58,5.57-15.89,7.78C332.53,352.68,339.11,353.11,344.19,349.75Zm-3.39,4.06-1.35,2c-2.72,3.75-10.91,5.43-15.55,7.1C328,357.35,335,357.72,340.8,353.81Zm-4.05,5.07v.68c-3.36,5.34-11.27,7.18-17.59,9.47C323.49,362.61,330.32,363.17,336.75,358.88ZM332,365c.91.45.44.16,0,1-3.18,6.15-11.39,7.46-17.92,10.15C318.56,369,324.66,369.21,332,365Zm-4.39,6.76a2.67,2.67,0,0,1,.61,1.91l1.08-2.25,18.26,5.75c-1.13,2.59-2.26,5.19-3.38,7.78l-18.6-5.75,1.71-3.58c-3.37,4-14.83,7.24-17.95,8.32C312.69,375.43,320.2,376,327.62,371.73Zm-4.06,8.12a2.07,2.07,0,0,1,.45,1.65l.9-1.65,18.6,5.75L339.79,393l-18.94-5.75L323,383.4c-3.68,4.09-15.82,8.27-18.69,9.3C307.56,383,315.41,384.46,323.56,379.85ZM318.82,388a6.79,6.79,0,0,1-.2,3.5l1.56-3.5,18.93,5.75-3.72,7.1-19.27-3.72,1.95-4.38c-3.17,5.59-14,8-19.2,10.13C303.63,390.29,309.39,394.39,318.82,388Zm-5.41,10.15h1q-2,4.72-4.06,9.47l-16.91,6.08q2.37-4.89,4.73-9.8ZM309,408.93c.82,1-.45,2.31-1,3.72-4.33,10.75-9.36,9.42-19.95,13.19l5.07-11.16Zm-5.08,12.17h1l-4.74,12.18-17.58,5.41q2.37-5.74,4.73-11.5Zm-4.73,13.19c1.34,1.62-3.11,9.89-3.72,12.85l-18.26,5.75Q279.6,446.47,282,440Zm-5.41,14.54h1L290.08,463l-20.63-.68C276.94,452.15,282.53,454.54,293.8,448.83Zm-5.41,15.22,1,.34-5.75,11.84-22.32-4.74-.33-.68,7.44-7.43Zm-6.09,13.19H283l-8.12,8.12-23.33-5.08,8.11-8.11ZM274.18,486l-8.11,8.46-24.69-4.74,9.13-8.79Zm-9.8,9.13.34.34-9.13,9.13-23,1.69q3.89-7.95,7.78-15.89Zm1.35.68,24.69,4.4L282.3,509l-24.69-4.4h-.67Zm25.7,4.73,23.33,4.06.34.34-6.76,8.45-25-4Zm25,4.4,16.23-.68h6.08q-2.7,6.6-5.41,13.19L309,513.76Zm23-.34,20.63-4.06h1.35q-1.51,9.81-3,19.62l-24-2.37Zm23-4.39,22-3.05q-1.35,10.14-2.71,20.29l-22.32,3Q360.93,510.38,362.45,500.24Zm2-1h-1.7q1.53-9.47,3.05-18.94l21.3-3.72h.34l-2.7,19.62Zm2-20h-.33q1.68-8.62,3.38-17.25l22,3.72v.34l-3.72,9.47Zm26-13.19,21.65,3v.34l-3.05,5.75-22.32.34Zm.68-1c1.13-1.92,2.25-3.84,3.38-5.75l21.31,3.38V463q-1.37,2.54-2.71,5.07Zm25.7-2,21,2.7-2.37,5.41-21.64-2.7C416.89,466.64,417.91,464.84,418.92,463Zm22,2.7,20.29-1-1.35,8.45-21.31-2Zm21.31-1,20.29-1.35c-.23,3.71-.46,7.44-.68,11.15l-21.31-1.35C461.08,470.36,461.64,467.55,462.21,464.73Zm2-1h-2q.5-8.79,1-17.58l19.95-1.35q-.17,8.79-.34,17.58Zm19.28-.67,20.63-.34q-.17,6.09-.34,12.17l-21-.34Q483.18,468.79,483.51,463Zm20.63,26,23-.34q.18,10.65.34,21.3l-23.33-.34Zm23-13.53,21.31-1.35c.34,1.69.67,3.38,1,5.07-2.47,1.79-17.8,1.4-22,1.69C527.36,479.16,527.25,477.35,527.13,475.55Zm21-10.82,20.29,1c.56,1.81,1.13,3.61,1.69,5.41l-21,2C548.78,470.36,548.44,467.55,548.1,464.73Zm21.3,1.35,18.94-3h2l2.37,5.41-21.64,2.7Zm21.65-3.38,20-3.38h1.35c1,1.91,2,3.83,3,5.75l-21.65,3.38Zm23.33,3.38h1.69l3,9.47-21.65-.34-3-6.09Zm5.07,10.48,2.37,19.28-22.32-2.71q-1-8.44-2-16.9Zm1,.34v-.34l21.3,3.39q1.53,9.63,3.05,19.27l-22-3Zm22.66,3.38,20.62,4.06q2,9.46,4.06,18.94l-22-3.72ZM667.81,504l5.07,13.52v.34l-23.67,2.71q-1.51-10-3-20Zm-2.7-19.62,20.29,4.4c3,2,4.15,11.28,5.41,14.88V504l-22.32-.68Q666.8,493.82,665.11,484.34Zm22,4.4,21,2.7c2.27,1.23,5.37,5.05,6.43,7.44l1,1L691.82,504Q689.45,496.34,687.09,488.74Zm22.32,2.36,22.65-4.73a11.79,11.79,0,0,1,5.08,5.07l3.38,3.38-23.67,4.74Zm-.34-.67L704,475.55l20.29,1.69,5.41,6.09c.79.79,1.57,1.58,2.36,2.36Zm10.48-26.38,11.84-.67h9.47l4.73,5.74,2,1.69v.34l-21.31,5.08C723.18,475.28,720.83,467,719.55,464.05Zm-.34-1q-2.19-7.11-4.39-14.21l18.6,5.41,5.74,7.11c.12.33.23.67.34,1Zm9.47-23,19.28.34q2,2.37,4.06,4.73l3,3.05-21.64,5.07Zm-.67-1.35q-2.21-5.74-4.4-11.5c8,1.8,18.47,3.36,21.64,10.15l2,2Zm-5.08-12.85q-2-5.25-4.06-10.48c13.43,3.44,15.39,4.78,21.65,15.55Zm-.67,0-16.91-5.75L701,408.93l15.9,5.75C719.46,416.28,721,422.91,722.26,425.84Zm-22-17.92q-2-5.09-4.06-10.15l15.89,6.09c2.35,1.68,3.86,7.09,5.07,9.8Zm-8.46-20c9.42,3.71,17.12,4.72,20.29,14.88C700.17,397.61,697.55,400.36,691.82,388ZM707,392.7c-9.11-2.65-15.54-5-19.61-12.85,10,3.77,14.9,2.95,19.61,12.51Zm-4.74-8.79-15.55-5.08q-1.69-3.54-3.38-7.1c8.57,1.71,15,5.22,18.93,11.84Zm-7.1-13.19c7.94,3.56,14,4.65,18.6,11.49C705.78,379,699.52,377.66,695.2,370.72Zm-4.39-6.09c7.15,3.21,13.85,4.15,17.92,10.48C701.5,371.9,695.07,370.81,690.81,364.63Zm-4.06-5.07c8,1.25,14,3.62,17.58,9.47C697.92,366.12,690.75,364.9,686.75,359.56Zm-4.4-5.07h14.54l3.39,8.11C693.71,360.14,686.25,359.61,682.35,354.49Zm-.67-1-3-2.37-.67-1,15.21-4.4,3.39,8.12Zm-4.06-4.06h-.34l-2.37-8.11,14.54-4.4c2.08,1.07,2.86,5.58,3.72,7.78Zm-3-8.79q-1.17-4.23-2.36-8.45l14.54-4.4c1.8,1.53,2.56,6.08,3.38,8.45Zm-2.7-9.13-2.37-8.12V323L683.37,319c2.18,1,2.93,5.77,3.72,8.11Zm-.68.34-14.88,4.06H656c-.68-2.93-1.36-5.87-2-8.8l13.86-3.72C670,324.48,670.43,329.44,671.19,331.83Zm-15.89,3.72v.34l-13.87-1.36-2.36-3.38,13.86-3.72Zm-16.23-5.07q-1-3.72-2-7.44v-1.36l12.85-3.38h1.35c.68,2.82,1.35,5.64,2,8.46Zm-1.36-1v1l-13.18-1.7-2.37-3.72L635,322h1Q636.88,325.74,637.71,329.46Zm-14.54-1-13.86-3.72,11.83.67C621.82,326.42,622.5,327.43,623.17,328.45ZM612,327.09c.68,1,1.36,2,2,3.05l-14.88,3.72-1.35-9.47Zm2,3.72q.86,4.74,1.69,9.47l-15.21,4.06c-.45-3.27-.91-6.54-1.36-9.81ZM599.84,344v.34L585,348.06h-.34c-.34-3.38-.67-6.76-1-10.15l13.86-3h1Zm-14.54,9.47c-4.32-1.46-12.62-1.67-15.56-4.73l14.21.33Zm-29.08,6.76L540,364l-.33-11.49,14.88-3C556.42,351.15,555.58,357.4,556.22,360.23Zm-15.9,24.69c.23,1.92.45,3.83.68,5.75l-16.91-5.75c-.11-1.58-.23-3.16-.34-4.73Zm.34,6.43,1,7.44v2l-16.58-4.73h-.67c-.11-3.38-.23-6.76-.34-10.15ZM524.43,421.1l-18.94.68c.11-.79.23-1.58.34-2.37l18.26-1C524.2,419.3,524.32,420.2,524.43,421.1Zm-34.83-45q.16-4.39.34-8.79l15.89,1v6.43Zm0-22.32-15.56-2c.23-2.37.45-4.73.68-7.1L489.94,343Q489.76,348.39,489.6,353.81ZM476.07,342l-14.54,1c.22-3.5.45-7,.68-10.49l14.2,1.7C476.3,336.79,476.18,339.38,476.07,342Zm-15.22,1-14.54-2.37c.23-3.38.45-6.76.68-10.14l14.54,2C461.3,336,461.08,339.49,460.85,343Zm-15.55-2.71-14.54-2.7q.5-4.9,1-9.81l14.54,2.37C446,333.52,445.64,336.9,445.3,340.28Zm-15.22-3.38-.34.34-14.54-3,1-9.81,14.87,3C430.76,330.59,430.42,333.74,430.08,336.9Zm-20.29-12.17v-.34l6.09-1.35C416,323.67,412.17,324.65,409.79,324.73Zm5.07-.34c1.31,1.5-.34,6.89-.67,9.47L400,330.14h-.67c.33-.57.67-1.13,1-1.69C404.05,325.91,410.41,326.36,414.86,324.39Zm-10.48.67-13.87,3.39c.46-.79.91-1.58,1.36-2.37,2.75-1.28,7.92-.15,11.16-1.35h1.35Zm-14.2,3.05L376,330.48q.86-4.23,1.69-8.46l14.21,3Zm-14.88,2.37-13.87-3.72h-.67c.67-2.82,1.35-5.64,2-8.46L377,321.68Q376.14,326.08,375.3,330.48Zm-15.22-4.06L345.2,322.7v-.34l2.37-8.12L361.43,318h.68C361.43,320.78,360.76,323.6,360.08,326.42Zm-.34.67c-.68,2.93-1.35,5.87-2,8.8h-.34l-14.88-4.06,2.37-8.46Zm-17.92,4.4-14.54-4.4c-1-1.46,1.35-5.85,2-8.11L344.19,323Zm-.34.68c-1,2.81-2,5.63-3,8.45l-15.22-4.4c1-2.81,2-5.63,3-8.45Zm-2.71,9.13c-1.12,2.7-2.25,5.41-3.38,8.11L320.51,345h-.67c1-2.71,2-5.41,3-8.12Zm-3.72,8.79v.34l-3.38,3-15.21.34c1-2.71,2-5.41,3-8.12Zm-4.73,4.4c-3.65,5.05-11.21,5.83-17.58,8.11,1.12-2.7,2.25-5.41,3.38-8.11Zm-5.41,5.07c.91.56.24.5-.34,1.35-2.86,4.19-10.76,6-15.89,7.78C311.67,361.66,318.46,363.05,324.91,359.56Zm-4.4,5.41c.81.4,0,1.14-.67,2-3.23,4.32-11,5.94-16.23,8.11C307.74,368.59,314.15,369.22,320.51,365Zm-4.73,6.09c4.25,3.29-13.66,9.75-17.59,11.15C303.63,374.16,308.31,376.14,315.78,371.06Zm-4.06,6.76c-.11.45-.22.9-.34,1.35-3.79,6.7-11.29,8.06-18.6,11.16C298.46,381.1,302.78,383,311.72,377.82ZM307,385.6c-.45,1-.9,2-1.36,3-3.39,6.33-11.24,7.93-18.26,10.48C294.13,387.74,296.72,391.77,307,385.6Zm-5.08,8.79c-.33.79-.67,1.58-1,2.37-3.68,7.44-10.37,9.93-18.94,12.17C288.35,395.67,291.65,401.31,301.91,394.39Zm-5.07,9.81-1.35,3c-3.61,7.83-9.91,11-19.28,12.51C283.2,405.15,285.64,411.76,296.84,404.2Zm-5.75,11.16c1.27,1-3,8.33-3.72,10.48l-17.24,5.07C275,418.2,280.67,421.4,291.09,415.36ZM286,427.19c1.21,1.63-3.44,8.87-4.06,11.84l-18.93.34C268.13,430.46,276.55,431.83,286,427.19ZM269.79,440h11.5q-2.54,6.6-5.08,13.19l-21.64-5.07,7.1-7.78Zm5.75,13.87q-2.88,3.54-5.75,7.1c-4.69,3-16.69-3.32-23.34-4.06l-.33-.68,7.44-7.44ZM267.42,463,260,470.81l-23-5.07c-.12-.22-.23-.45-.34-.67l8.45-7.78ZM259,471.49,250.51,480l-24-5.08v-.34l8.8-8.11Zm-9.47,9.13c-7.54,9.89-16,9.46-31.45,11.16l7.44-16.23Zm-11.16,9.81h1L231.91,506l-21.64,5.41q3.55-9.28,7.1-18.59Zm-8.46,17.24h1q-3.37,10.16-6.76,20.3l-22,4.73,7.77-20.29Zm2,0,19.28-2h3.72V506l-7.1,16.91-22.66,4.74Zm24-2L280.27,510H281c-7.8,10.66-16.33,10.95-32.47,12.85Zm26,4.73,25,4.06q-3.9,4.56-7.78,9.13l-26-3.72Zm26,4.4,24.69,3.72q-3.56,4.56-7.1,9.13l-25.37-3.72Zm18.94,12.85q3.38-4.39,6.76-8.8l24,2.71q-2.86,4.4-5.75,8.79c-2,1.64-20.35-2.21-25-2.36ZM353,531q2.86-4.39,5.75-8.79c3.09-2.91,17.46-1.85,22.32-3.72l-3.39,15.21L353,531.35Zm29.42-11.5c1.42-2.39,18.9-2.72,23-3.72q-1.18,10.32-2.36,20.63l-24-2-.34-.34Zm.34-2,2.7-20.63,22.32-2.7q-1,10.31-2,20.63Zm4.73-21.64h-1.69q1.35-9.64,2.71-19.28l22-.33-2.37,16.9Zm24-19.61,22.32,2.36.34.34-2.37,11.84-22.32,2.36h-.34Zm.68-.68,3-6.09,21,2.71h.67q-1.18,2.54-2.36,5.07C432.7,478.6,416.65,475.64,412.16,475.55Zm25.7-3.38,21.64,2c-.56,1.8-1.13,3.6-1.69,5.41l-22.32-1.69Zm22.65,2,20,1.35h1c-.22,1.69-.45,3.38-.68,5.07l-.33.34-21.31-1C458.84,478.13,459.77,476,460.51,474.2Zm22,1.35,21.3.34c-.11,1.8-.23,3.6-.34,5.41l-22-.34Zm21.64,35.17,23.33.34q.16,11.16.34,22.32l-24-.34Q504,521.88,504.14,510.72ZM527.47,482l16.23-1h6.09l1.35,8.12-23-1C527.92,486,527.7,484,527.47,482Zm21.64-7.77,20.29-2c2.21.7,2.63,3.74,3.39,5.75l-22.32,1.69Q549.79,476.9,549.11,474.2Zm22.66-1.69v-.34l20-2.71h1.69l2.71,5.41v.34l-22.32,2.71C573.12,476.11,572.45,474.31,571.77,472.51Zm24.69,3.72q1,8.44,2,16.9l-22.66-2.36q-.84-6.09-1.69-12.18Zm2,17.58q1,10.49,2,21l-23-2-1.35-21Zm1,.34,22.66,2.7,2.37,20.63-22.66-2.37Zm23.67,3,22,3.05q1.53,10.14,3.05,20.29l-22.32-2.71Q624.53,507.5,623.17,497.19Zm25.37,24.35,5.07,9.47v.34l-24.35,2.7-3.72-15.55Zm1,0,21.31-2.71h2.7L679,527l.68.68V528l-25,3Zm19.61-17.25,22,.68,6.42,7.78c.11.34.23.67.34,1l-24,3.72Zm23.34.68,23-4.4c2.68,1.26,6.56,5.78,7.78,8.46H724l-24.69,4.39Zm24.68-4.73,22.66-4.4h1.69l1.69,2,6.77,6.76L725,509Zm26-4.4-.67-.34,23.67-5.07c3.61,2.17,6.34,11.92,8.11,15.89l-22.65-1.69Zm-1.35-1.35L733.75,486,757.09,481c.56.34,1.12.68,1.69,1l7.44,7.78Zm-8.79-9.13L727,478.25c-.34-.33-.68-.67-1-1l21-5.07h1.69l7.44,7.78h.68Zm12.51-18.27-4.06-4,21-5.41c3.84.59,4.46,3.92,7.44,5.41l2,2v.33l-23,5.41ZM740.86,462l-6.77-8.11,21-5.08,8.11,7.44ZM749,440l20.63-5.75h1l7.44,7.78-22,5.75Zm-.34-.67q-3.37-3.9-6.76-7.78l20.29-5.75c2.32,1.08,5.71,4.78,6.76,7.1l.68.68Zm-7.44-8.46-5.07-9.81,18.94-3.72a14.13,14.13,0,0,1,5.07,5.75l2,2Zm-4.39-10.82c-2.91-.86-4.93-7.16-6.09-9.81l17.92-1.35,4.74,6.09c.56.56,1.13,1.12,1.69,1.69Zm-2,0c-11-4.79-17-3.33-21-15.89l15.9,5.74ZM729,408.93l-15.22-5.75c-2-1.43-4-6.22-4.73-8.79l15.55,5.75,4.4,8.45ZM704.33,385.6c10,4,14.7,4.09,19.62,13.52C714,395.31,708.93,395.24,704.33,385.6Zm-4.39-7.78c9.39,3.75,13.89,4.08,18.93,12.51C711.05,386.87,703.13,386.06,699.94,377.82Zm10.82-1.35,11.16-1h5.41l3.72,6.43.34,1-16.24-.34Zm-1-1-3-4.73L706,370l15.56-3.38c2.34,1.06,3.86,5.57,5.07,7.78ZM721.92,366l-15.22,3c-2.79-.5-4.16-3.75-5.41-5.75l15.89-5.08h.68l4.06,7.44Zm-21-3.38c-1.13-2.7-2.25-5.41-3.38-8.11l15.56-5.08c2.47.94,3.73,5.75,4.73,8.12Zm-3.38-8.79-3.38-8.46,15.55-4.73c2,1.42,3.17,5.7,4.06,8.12Zm-3.72-9.13-2.7-7.78L706,331.83c2.1,1.27,3.11,5.78,4.06,8.11Zm-3-8.79c-.9-2.6-1.81-5.19-2.71-7.78l14.2-3.05c1.86,1.08,3.15,4.12,4.06,6.09Zm-3-9.13-2.7-7.78c5.74,1.4,11.57,3.39,16.57,5.07C699.14,326,691.49,326.62,687.76,326.76ZM683,316.61l11.83,4.06C691.17,319.81,685.38,319,683,316.61Zm.68,1.35-14.21,4.4c-.79-2.71-1.58-5.41-2.36-8.12A51.87,51.87,0,0,1,683.71,318Zm-15.22,4.74-14.21,3.72c-.78-2.71-1.57-5.41-2.36-8.12V318l13.52-3.72h1C667.14,317.06,667.81,319.88,668.49,322.7Zm-16.57-5.41h-.34c-.56-2.82-1.13-5.64-1.69-8.46l13.19,1.36,2.7,3.38Zm-2.37-9.13-2-2.37,11.84,3.38Zm1.35,9.46L637,321h-.34c-.56-2.82-1.13-5.64-1.69-8.46v-.34l12.51-3h1.69Q650.06,313.4,650.9,317.62ZM636,321l-14.2,3.38-1.35-8.79,12.85-3.05C635.37,313.64,635.41,318.61,636,321Zm-14.88,3v.34l-13.52-.34c-.57-1.8-1.13-3.61-1.69-5.41l12.17-2.71h1.69Zm-14.2-.34L593.08,321l11.83-2.37Q605.93,321.17,606.94,323.71Zm-3,1c-2.22-.19-5.36-.57-6.77-1.69Zm-5.41,8.79v.34l-14.88,3.38-1-9.81,13.87-3C598.25,326.12,597.53,331,598.49,333.52Zm-15.56,4.73,1,9.81-14.88-.34-1-6.42,13.87-3.05Zm-14.88,2c-.22-3.38-.45-6.76-.67-10.14l14.54-2.37c.22,3.27.45,6.54.67,9.81Zm.34,7.44-15.22-3c-.11-.34-.22-.68-.34-1l13.53-2.36h1Q567.88,344.51,568.39,347.72ZM552.83,343c-.22-3.5-.45-7-.67-10.49l12.17-2h2l1,10.14Zm0,2-12.51-2C544,342.92,551.23,342.8,552.83,345Zm2,2.7c.12.34.23.68.34,1l-15.55,2.7-.68-6.76ZM539.31,364l-15.9,2.37-.33-4.73v-7.1l15.21-2h.34Q539,358.21,539.31,364ZM522.4,385.26c1.8,1.26,1.14,7.5,1,10.48l-17.24-2.37V379.51Zm1.35,11.5v13.52l-17.24-1.69q-.18-7.26-.34-14.54Zm0,14.2c.11,2.14.23,4.28.34,6.42l-18.26,1v-8.79Zm-17.92-43.29-15.89-1,.33-12.17,15.56.67ZM477.09,342h-.34q.17-3.89.34-7.77l14.54,1c-.12,1.8-.23,3.61-.34,5.41Zm-.68-8.79-14.2-1.35c.22-3.38.45-6.77.67-10.15L477.09,323Q476.75,328.11,476.41,333.18Zm-14.88-1.35-13.87-2.37c-1.13-1.12.22-7.18.34-9.81l14.21,1.69C462,324.84,461.75,328.33,461.53,331.83ZM447.66,318c-1.41,1.32-8.1,1.06-10.48,1L448,317C448.28,317.78,448.13,317.24,447.66,318Zm-.33,1.69-1,9.81-13.86-2.7h-.68l1.35-7.11Zm-16.24,7.11-13.18-3.05h-.68c2.9-2.74,9.63-2,13.53-3.72h1.69C432,322.25,431.55,324.5,431.09,326.76Zm-23.67-3.05q.68-2.54,1.36-5.07l12.51,2Zm-1,.34-13.53.34q.86-4.23,1.69-8.46l12.85,2.71h.68Zm-14.2.34L378,321.34q.86-4.39,1.69-8.79l13.19,3.05h.68ZM377.33,321l-14.21-3.39q.86-4.22,1.69-8.45l14.21,3C378.45,315.14,377.89,318.08,377.33,321ZM363.8,308.83l-1.35,8.46-13.53-3.72h-.68l.34-1C352.53,309.56,358.3,310.91,363.8,308.83Zm-7.44,0,9.13-2.7h1C364.72,308.5,360.51,308.93,356.36,308.83Zm-19.61,5.75,11.83-3.72h.68C347.26,314,341.61,314.55,336.75,314.58Zm8.45-.34h1.69l-2.37,7.44v.68l-13.86-4.06L330,318C333.92,316.31,340.35,316.16,345.2,314.24Zm-25.36,6.09,10.48-3.72C330.81,316.83,322,320.1,319.84,320.33ZM328,319c.59.7-1,5.62-2,7.1v.68l-14.2-2C315.38,321,322.92,321.4,328,319ZM322.2,336.9c-1,2.59-2,5.19-3,7.78l-15.89-4.74,3-8.11Zm-3.38,8.45v.34c-1,2.71-2,5.41-3,8.12l-16.57-5.07,3.38-8.12Zm-3.72,9.47-3,7.44-16.91-4.73c1.13-2.71,2.26-5.41,3.38-8.12Zm-3.72,8.46q-1.68,2.54-3.38,5.07c-4.31,1.86-12.57-1.62-17.58-2.37l4.05-7.78Zm-4.73,6.42c-1.47,1.92-2.93,3.84-4.4,5.75l-16.57-1,4.4-7.78Zm-5.07,6.43-4.4,6.42-16.57.34,4.4-7.44Zm-16.91,7.44h11.5v.34q-2.21,3.38-4.4,6.76l-16.57.68,4.06-6.77Zm6.08,7.78-4.39,8.11-17.25.34,5.07-6.76C277.28,390.19,286.48,392.9,290.75,391.35Zm-18.26,9.13h13.19L281,408.59c-2.68,2.39-14.11-.18-18.26-.34q2.7-3.37,5.41-6.76C269,400.67,271.25,400.91,272.49,400.48Zm7.78,9.8-5.07,9.81-19.28-3.38,6.09-7.78Zm-6.09,10.49.34.33-5.41,9.81-21-5.75,6.76-7.78Zm-5.74,10.82-7.11,7.78-21-5.75v-.34l7.1-7.44ZM261,440l-7.11,7.78-22.31-5.75,7.77-7.78Zm-8.12,8.46-7.78,7.77-23-5.41,8.45-8.11ZM244.09,457c-8.19,10.94-16.23,7.31-31.45,5.07l8.45-10.48Zm-9.81,9.13c-6.87,8.8-17.05,9.24-29.42,12.85L212,463Zm-10.82,9.47h1L217,491.78l-20.29,5.41L204.18,480Zm-8.12,17.58h1q-3.56,9.3-7.1,18.6l-21,5.08,7.78-18.6Zm-7.1,19.62c.81,1.16-6,16-6.76,19.61l-22,4.06h-.34l8.45-18.26Zm-7.78,21q-4.22,10-8.45,20l-27-4.4,13.19-11.84Zm1.36,0,21-4.73h1l-7.44,21c-1.77,1.76-19.09,3.57-23,3.72Zm23-5.07,21-4.39h1.35q-3.37,10.65-6.76,21.3c-1.66,1.67-19.37,4.57-23,4.73Zm23.34-4.73,23-3.38-6.09,21.3-23.67,4.06Q244.77,534.9,248.15,523.91Zm24.34-3.38,25.7,4.05v.34l-7.77,12.51-24.35,4.06Zm18.94,16.9,7.78-12.51,24.69,3.72h.67l-6.76,9.13c-4.84,2.2-19.54.07-26.38,0Zm34.49-8.79L351,532l-6.43,9.81-26.37-3Zm26,3.72,25,2.71q-2.72,4.39-5.41,8.79c-1.79,1.52-22.15-1.48-26-2Zm26,2.71,24.69,2.36q-2.2,4.74-4.4,9.47l-25.7-2Zm46,1.69h3.72q-1.68,5.75-3.38,11.5c-1.89,1.59-20.49-.93-25-1C404.08,529.64,410.48,541.74,424,536.76ZM404,536.42l2.37-20.63,23.33-2q-1,11-2,22Zm2.71-21.64q1-10.32,2-20.63l22.65-2.37q-.84,10.49-1.69,21Zm25.7-23,22.65-1.69q-.5,10.49-1,21l-23.33,1.69Q431.6,502.27,432.45,491.78Zm.67-1h-.33q1.17-5.92,2.36-11.84l19.28,1.69h2.7q-.84,4.23-1.69,8.46Zm25-9.81,22.32,1-1,5.75-23,1C457,486.15,457.58,483.55,458.15,481Zm22,7.78,23,.34V509.7l-23.67.34Q479.8,499.39,480.13,488.74Zm.34-.68q.5-3,1-6.09l22,.34q-.16,3-.34,6.09Zm23.33,46,24,.34q.35,8.46.68,16.91h-25Q503.63,542.67,503.8,534.05Zm24.35-45.31,23,1,1,21.31-23.67-1Q528.31,499.39,528.15,488.74Zm22.66-8.12,22.31-1.69q.86,5.42,1.7,10.82v1l-22.66-1.69Zm24,10.82q.84,10.65,1.69,21.31l-23.34-1.69q-.51-10.49-1-21Zm1.69,22.32,1.35,22-23.67-1.35-1-22.32Zm1,0,23,2q1.18,10.32,2.36,20.63l-24-.68Zm24.35,2.37,23,2.37,3.39,15.21v.34l-24.35,2.37Q602.88,526.28,601.87,516.13Zm2.37,21.3,23.67-2.36c2.45,1.7,4.14,6.65,5.41,9.47v.33l-25.36,2-3.72-9.13Zm25.36-2.36,22-2.71h3q2.88,4.74,5.75,9.47l-26,2.71Q632,539.8,629.6,535.07Zm26.71-2-.67-.68L680,528.64q3.38,4.56,6.76,9.13l.68.68v.34l-26,3Zm18.26-14.54,22.66-3.72h1.69l6.77,8.11.33,1-25.36,3.72Zm25.37-4.06,23-4.06h1.69l7.78,8.79.68.68-25.7,3.72Zm26-4.4,23-4.39h2q3.38,8.61,6.76,17.24C741.63,520.78,733.64,521.12,726,510Zm26-4.39,22.65,1.69q3.39,10.14,6.77,20.29l-22.32-4.4Q755.57,514.44,752,505.65Zm24,2,21.3,4.74q3.55,10.14,7.1,20.29l-22-4.73Zm29.08,26q3.89,9.81,7.78,19.62v.34l-23.34-3L782.79,529Zm1,.34,22.32,3.38L841,548.59v.34l-25.36,4.74C813.12,553.12,807,537.37,806.12,534.05Zm-.67-1.35-7.11-20L819,517.82l8.79,18.6Zm-6.77-21c-2.53-1.65-6.42-15.28-7.78-18.93l20.63,5.41,7.44,18.6Zm-2-.34-21-4.73q-3.9-8.12-7.78-16.23l21.3,2.37C791.18,494.07,796.09,508.18,796.65,511.39Zm-38.21-30.77,22.66-5.07h1l7.44,16.23C773.86,489.83,766.23,490.81,758.44,480.62Zm-.68-.67-2-2.37L750,471.83l21.64-5.41c4.71.74,6.34,5.89,10.14,7.78Zm7.11-23,21.64-5.41c3.55.77,7.56,7.54,9.13,10.48L773,465.07Zm-.68-.68-7.44-7.77,21.3-5.75,7.78,6.42,1,1.35Zm16.23-13.52h-.68l21.31-4.4,7.1,13.53v.34C793.85,449.71,787.84,452.66,780.42,442.75Zm-1.35-1-.68-1L771.63,434l21-6.08c2.5,1.28,6,6.15,7.1,8.79l1,1Zm-8.46-8.45q-3.37-3.88-6.76-7.78l20.29-6.09,8.46,7.44Zm-7.44-8.46-6.76-7.77,19.28-5.75h1.69l2,2.7,4.73,4.74Zm-7.1-8.45L751,409.94l-1-1,19.27-6.09c2.32,1.09,5.38,4.78,6.43,7.1l.67.68Zm-6.42-8.12-5.75-7.77,18.94-6.09,5.07,6.42,1.35,1.36Zm-2-.67.68.67-18.27,1-4.39-8.79,17.58.33Zm-22.32-8.12-4.73-8.11,16.9,1c1.36,2.25,2.71,4.51,4.06,6.76l.68.68Zm11.16-8.11-16.23-.68-4.74-7.1,16.24.34,4,6.42.68.68ZM728,375.45l17.24-6.09c2.21,1.45,4.19,5.39,5.41,7.78l-18.6,5.75Zm-.68-1c-1.35-2.6-2.71-5.19-4.06-7.78l16.91-5.75c2.15,1.27,4,5.47,5.07,7.78Zm-4.74-8.8-3.72-7.77,16.24-5.41c2.36.89,4,5.25,5.07,7.44Zm-4.05-8.45-3.72-8.12L730.37,344h1q2,3.72,4.06,7.44Zm-4.06-8.79c-1.13-2.71-2.26-5.41-3.38-8.12l15.55-3.38,3.72,5.41.68.68ZM726,336.22l-15.22,3.39q-1.53-3.9-3-7.78A52,52,0,0,1,726,335.89Zm-6.43-4.39-.07-.06-11.76-1c-1.72-1-2.85-3.62-3.72-5.41,4.87,1.92,11.94,3,15.48,6.37l.75.06Zm-26.71-13.19c5.79.44,11,.94,13.52,4.73Zm-5.08-3-.67-.34,13.19-3.72q1.51,3.88,3,7.78C698.1,318.35,691.06,318.54,687.76,315.6Zm-.33,1L680,314.24C682.56,314.61,685.89,315.12,687.43,316.61Zm-1.7-2c-4.32-.63-11.93-1.41-14.54-4.06l-.67-.33,11.83-3.05c2.27.75,2.69,4.92,3.38,7.1Zm-8.45-.34c-4.18,1.67-11.21-1.19-12.85-3.72Zm-20.63-6.76-2.37-2.71,11.5-2.7h1.36c.67,2.48,1.35,5,2,7.44Zm-1.35-.34-8.45-2.37C650.78,304.63,653.68,305,655.3,307.14Zm-6.76,1-13.19,3.38H635c-.56-2.82-1.13-5.64-1.69-8.46l12.85,2.37ZM634,310.52v1.36l-13.52,3-1.35-7.1v-1.69l13.18-3.05Q633.16,306.8,634,310.52Zm-14.54,4.74L605.93,318l-1-6.76v-2.37l12.85-2.36h.34Zm-14.2,2.7-13.53,2.37q-.5-4.4-1-8.79l11.84-2.37h1.35ZM596.12,323l.34.67-13.87,3.05L581.24,320Zm-14.54,3.72L567,329.46c-.23-3.27-.45-6.54-.68-9.81h14.2ZM566,318.64l-.67-1.69,11.49,1.69Zm-.34,1q.35,4.91.68,9.81l-14.2,2.37c-.23-3.5-.45-7-.68-10.49Zm-13.86,19.62V343l-14.2-1-.68-7.77,14.54-1.7C551.59,334.76,551.71,337,551.82,339.27Zm-14.88-6.09q-.16-5.07-.34-10.14l14.21-1.36c.22,3.38.45,6.77.67,10.15Zm.68,11.5c1.09,1.12,1.1,5,1,7.1l-15.22,2h-.33V343Zm-31.11,30.1v-6.43l15.89-1q.17,4.4.34,8.79Zm-.34-32.13q-.18,5.91-.34,11.84l-15.56-.68q.18-5.42.34-10.82Zm-14.54-8.12-14.21-1q.18-5.25.34-10.48l13.87.67Zm-14.54-12.17-13.53-1.69h-.68c.23-1.58.45-3.16.68-4.74l1-.67,12.85-1Zm-14.88-1.69L448.34,319c.23-.68.45-1.36.68-2l12.51-1.69h1.35C462.66,317.06,462.43,318.87,462.21,320.67Zm-25-2.71,1.35-4,12.52,1.35C448.22,317.49,440.92,317,437.18,318Zm-.67-.67c-2.2,2.29-9.88,2.13-13.19,3q.49-4.4,1-8.79l13.53,2Zm-13.87,3L409.79,318h-.68c.45-2.93.91-5.86,1.36-8.79L423,311.54C424.3,313,422.86,317.73,422.64,320.33ZM408.44,318l-13.53-2.7-.34-.68,1.35-8.11,13.53,2.36C409.11,311.88,408.78,314.92,408.44,318Zm-14.54-3h-.34l-13.53-3c.56-2.93,1.13-5.87,1.69-8.8l12.85,3.05h.68Zm-14.55-3.38-13.86-3.05,2-2.7,13.19-2.71Q380,307.31,379.35,311.54Zm-20-4.4c.57-.67,1.13-1.35,1.69-2l3.05-.34h3.38Zm-13.86,2.37q1-3.72,2-7.44l12.85,2.7C358,308.12,350.86,309.3,345.54,309.51Zm.34.68,1.35.33-3,.68C344.75,310.86,345.31,310.52,345.88,310.19Zm-17.25,4.39,2.37-7.44,13.19,3.38A77.66,77.66,0,0,1,328.63,314.58Zm3.38,0h1l-6.09,2C328.22,315.35,330.2,315.37,332,314.58Zm-20.63,4.74H311q1.36-3.9,2.71-7.78l13.53,3.72C323.55,318.38,317,317.9,311.38,319.32Zm8.8-.68h1l-13.53,4.73,3-3Zm-16.57,13.19h2v.34q-1.51,3.54-3,7.1L287,336.56C290.93,331.9,297.14,334.22,303.61,331.83Zm-1.7,8.45c-1.12,2.71-2.25,5.41-3.38,8.12l-16.91-5.07,4.4-6.43Zm-4.05,9.13-3.72,7.78-17.25-5.41,4.4-8.12Zm-4.06,8.46-4.06,7.77-17.58-5.41,4.39-7.77Zm-4.74,8.45L285,373.76c-1.35.94-14.93-4.26-18.26-5.07l4.73-7.78Zm-4.73,8.79-4.06,7.1c-4.24,1.51-13.95-3.75-18.94-5.07l4.74-7.78Zm-5.07,8.46L274.52,391l-19.27-5.41q2.7-3.9,5.41-7.78ZM273.51,392l-4.4,6.77c-4.22,2.24-14.43-3.73-20-4.74l-.34-.68q2.88-3.54,5.75-7.1Zm-6.09,8.46v.33l-4.73,6.43c-4,2.13-15.6-3.79-21-5.07q3.21-3.9,6.43-7.78ZM261,408.59v.34l-6.09,7.44-20.63-5.75v-.34l6.76-7.44Zm-6.77,8.46-7.1,7.77-21-6.08,7.11-7.44Zm-7.78,8.45L239,433.28l-21-6.09h-.68l7.78-7.78ZM238.34,434l-7.78,7.78-21.3-4.06h-.68l7.78-9.8Zm-8.79,8.46c-7.42,9.07-14.13,8.21-28.75,9.81l7.1-13.87Zm-12.85,9.13h3c-6.48,11.51-14.05,11.61-27.05,16.23l7.44-14.54ZM210.61,463q-3.37,7.93-6.76,15.89l-19.28,5.75q3.88-7.95,7.78-15.89Zm-8.12,17.24c.8,1.13-5.87,14-6.76,17.25l-19.95,5.41,8.11-17.25Zm-7.77,18.26-7.44,18.6-22,2.37L175.1,504Zm-10.49,19.62h2.37v.34q-4.23,8.79-8.45,17.58l-26-4.73-.68-.34,12.85-10.48Zm-7.1,18.94q-6.6,5.56-13.19,11.16c-2.14,1.42-23.34-3.73-28.07-4.4l14.21-11.5Zm14.2,17.58-13.18,12.17-29.09-4.39L163.6,550Zm1.36,0,22-3H216l-9.13,20-27.39-4.06-.34-.68Zm24-3,22-4.4H240v.34q-3.37,11.32-6.76,22.66l-25.37,1.35ZM241,546.9l22.32-4.06h1.36q-3.23,11.5-6.43,23c-2.58,2.5-18.42,3.18-23,4.4h-1Q237.67,558.57,241,546.9Zm24.69-4.39,22.32-3.72h1.69q-2.88,11.49-5.75,23c-1.52,1.82-20.72,4.13-24.68,4.4Zm25-4.06,25.71,1v.34l-6.09,19.28L285,562.46Q287.88,550.46,290.75,538.45Zm27.06,1,26,3.38L336.75,556l-25.37,2.71Q314.59,549.09,317.81,539.46Zm27.05,3.38,25.7,2.71v.34l-6.08,10.48L338.1,556Zm26.72,3,25.7,2-4.4,10.14c-7.76,2-18.84-1.3-27.05-1.69Zm27.05,2.37L424,550l-3.72,10.48-26.71-1.69ZM425,550l25.36,1.35q-1.35,5.24-2.71,10.48l-26.37-1.35Zm.34-1q1.51-5.91,3-11.83l24-1.7q-1,7.11-2,14.21C448.54,551.21,429.43,549.18,425.35,548.93Zm3.38-13.19q1-11,2-22l23.33-1.69-1.35,22.32Zm26.37-23.67,23.34-1q-.35,11.16-.68,22.32l-24,1Zm0-1,1-21,23-1.35q-.33,10.65-.67,21.3Zm24.35,0,23.67-.34L502.79,533l-24,.34Q479.11,522.22,479.45,511.06Zm24,41.59,25-.34c.22,3.38.45,6.77.67,10.15l-18.6.34h-7.44Q503.3,557.71,503.46,552.65Zm25.36-19.27-.33-22.32,23.67,1q.33,11.16.67,22.32Zm24.35,2q.68,7.44,1.36,14.88l-25,1q-.16-8.46-.34-16.91Zm1,0,24,1.36q1.18,6.07,2.36,12.17l-25,1.35Zm25,1.36,24,1,3.72,9.47-25.36,1.69Zm25.36,11.5h2.71q2,5.24,4.06,10.48L585,560.43q-1.51-5.25-3-10.48Zm4.06.33,22.66-2.7h2.37l5.75,10.48-26.72,2Zm26.38-3,25.36-2.71q3.39,6.6,6.77,13.19l-26.72.34Q637.72,551,635,545.55Zm27-2.71,25.7-3.38,6.09,19.62L668.15,556Zm19.62-14.2,24-3.72h1l7.78,12.85-26,.68Zm26.37-4.06,25-4.05c2.74,2.37,5.25,16.67,6.76,21l-24-3.72Zm26.72-4.05,23.33,3.38q3.21,11,6.43,22l-23.67-4.06Zm24.68,3.72,22.32,4.39q3.39,10.65,6.77,21.31v.33l-23-4Zm29.43,27q4.22,10,8.45,20v.34l-24.69-1q-3.37-11.66-6.76-23.33Zm1.35.34,23.33,3,12.85,12.17-27.73,4.74Zm24.68,3L841.29,550c6,1.93,9,9.16,14.54,11.83l.34.68-28.41,4.73Zm27.73-5.75-12.85-11.16-.33-.67,25-4.74h2L870,543.86Zm1.69-28.4-.67-.34,25.7-5.41,13.86,10.48.34.68-27,5.07ZM855.16,531l-26.38,5.41-8.45-18.26L843,520.53ZM820,517.14l-7.44-18.6L831.82,504c4.12,2.37,7.69,11.43,10.15,15.55Zm-8.12-19.61-7.1-17.25,19.61,5.41,7.44,17.25Zm-1-.68v.34l-20-5.07-7.44-16.57,19.62,4.4C806.76,482.33,809,492.7,810.86,496.85Zm-36.19-30.43H774v-.34l20.29-3c4.6.41,7.54,12.16,9.13,15.89C791.21,476.15,781.08,474.87,774.67,466.42Zm35.17-14.2c-3.26-2.35-5.72-9.76-7.44-13.53L820,444.78l7.1,13.18Zm-15.55-24.35,17.92,3.38L819,443.42C806.27,438.55,801.55,438.44,794.29,427.87Zm-8.12-8.46,18.26-.67q3.55,5.75,7.1,11.49C799.91,427.92,792.05,427.23,786.17,419.41Zm-1-1L778.05,411,796,407.58h2l5.74,9.8.68.68ZM797,406.9l-19.61,3q-2.88-3.37-5.75-6.76l-.68-.68,18.94-5.41c2.86,1.2,5.72,6.74,7.1,9.47Zm-26.71-5.07-4.74-6.09-1.35-1.35L783.46,388l5.75,7.44,1,1Zm-6.09-8.46c-2.08-.82-4.24-4-5.07-6.08l-1.36-1.36,18.6-6.08c2,.93,4.2,3.74,5.08,5.75l1.69,1.69Zm-1.69,0-19.28,6.43L738.15,392l17.92-5.75C759.11,387.32,760.37,391.3,762.5,393.37Zm-24.69-2-5.07-7.78,17.58-5.75c2.77,1,3.78,4.83,5.75,6.76.12.34.23.68.34,1ZM746.6,369,763.85,364c2.06.73,4.26,3.81,5.07,5.75l1,1-18.6,6.08Zm-.67-.68-4.4-7.78,15.9-3h1l2.37,2.7,3,3Zm-5.07-8.45-4.06-7.78,12.17-.34h3.38l4.06,3.38,1.35,1.69Zm-4.06-8.46L732.4,344l14.54,2.71,4.4,3.72c.11.22.22.45.34.67ZM728,337.24c5.83,2.63,13.33,3.88,17.24,8.45C736.09,342.94,732.79,344.86,728,337.24Zm-3.39-3c4.6,1.41,10.55,3.2,13.87,6.08C733.87,338.87,728,337.07,724.62,334.2Zm-4-3.05c3.88,1.59,9.12,2.55,12.17,5.07C729,335.1,723.16,333.65,720.57,331.15Zm-4.4-2.7c3.34.88,8.86,2.2,11.16,4.39Zm-6.76-4.06h12.17l3.72,6.42C720.52,328.66,713,327.84,709.41,324.39ZM705.69,321l-1-1,13.19-4.06c1.93,1.19,2.84,5.29,3.72,7.44C716.37,323.9,707.55,325.09,705.69,321ZM704,319.32q-1.37-3.9-2.71-7.78l13.86-4.06,3.05,7.44Zm-3-8.8-2.37-7.44,12.86-3.72c2.34,1.08,2.53,4.91,3.71,7.11C712.6,308.64,704.85,310.31,701,310.52Zm-.67.68-13.87,3.38c-.68-2.59-1.35-5.18-2-7.78l12.18-3.38,1.69.34Q699.25,307.48,700.28,311.2ZM684,306.13q-1-3.72-2-7.44L694.19,295l1.35.34c.68,2.48,1.35,5,2,7.44Zm-.67,0-13.53,3.38c-.68-2.48-1.35-5-2-7.44v-.34l11.84-3h1.69Q682.35,302.41,683.37,306.13Zm-15.56-5.08h-.34c-.56-2.47-1.12-5-1.69-7.43l11.84-3.39c2.45.87,2.29,4.95,3.38,7.1Zm-1-.67c-1.27,2.27-10,3.62-13.19,3.72-.57-2.59-1.13-5.19-1.69-7.78l13.19-3Q665.95,296.82,666.8,300.38Zm-13.87,4.06-12.51-1c-.56-1.35-1.13-2.7-1.69-4.06l12.85-2.7Zm-13.19-1.36-11.16-2.36,8.12-1.36h1.35C638.62,300.6,639.18,301.84,639.74,303.08Zm-8.11-.67-12.85,3c-.45-1.92-.9-3.83-1.36-5.75Zm-13.53,2.7v.34l-13.53,2.71c-.33-2.93-.67-5.87-1-8.8h13.19Zm-14.2,3.38-13.19,2.37-1-7.1v-2l13.19-2ZM590,311.54c.23,2.82.45,5.63.68,8.45-5.77-.06-13.4-.48-13.87-6.42l12.85-2Zm-13.52,1.35c-.23-3-.45-6.09-.68-9.13L589,302.07c.22,2.93.45,5.86.67,8.79Zm-.34,1c.22,1.23.45,2.48.67,3.71l-13.52-1.69C565.57,314.2,572.73,313.9,576.17,313.91Zm-13.53,1c-.22-3.16-.45-6.31-.67-9.47l13.18-1.35c.23,2.93.45,5.86.68,8.79Zm2.37,2.37c.11.56.22,1.12.34,1.69l-13.87,1.69c-.22-1.8-.45-3.61-.67-5.41Zm-3-2.37-13.19-.68q-.18-3.72-.34-7.44l12.85-1q.33,4.05.68,8.12Zm-13.53-8.79c-.11-3.05-.23-6.09-.34-9.13l12.51-1c.23,2.93.45,5.86.68,8.79Zm1.35,8.79,1,5.41v.34L536.6,322q-.17-3.88-.34-7.78Zm-14.54-2c-.11-1.69-.23-3.38-.34-5.07l12.85-.68c.11,2.26.23,4.51.34,6.77Zm12.51-6.76-12.85,1c-.11-3-.22-6.09-.34-9.13l12.52-.68c.22,2.82.45,5.64.67,8.46Zm-12.17,7.78q.17,4.21.34,8.45l-13.87.68q-.16-4.91-.34-9.81ZM522.4,354.49v12.17l-15.89.68.33-12.18Zm-15.89-31.12L492.64,323v-9.81h13.87ZM493,312.21l-12.85.68c.11-1.58.22-3.16.34-4.73l12.85.33C493.2,309.73,493.09,311,493,312.21Zm-1,1-.33,9.81-13.87-.68c.11-2.71.23-5.41.34-8.12Zm-12.51-.34-10.82,1h-2.37c.23-2.26.45-4.51.68-6.77l8.79.68h4.06C479.68,309.51,479.56,311.2,479.45,312.89Zm-13.19-6.76-12.85-1c.23-3,.45-6.08.68-9.13l12.51,1Q466.44,301.56,466.26,306.13Zm0,.67c-.22,2.48-.45,5-.67,7.44l-13.19.68c.22-3,.45-6.09.68-9.13Zm-14.54,8.12-12.85-1.69c-.11-.23-.22-.45-.34-.68l1-8.45,12.85,1.35C452.17,308.61,452,311.76,451.72,314.92Zm-13.86-2-13.19-2q.51-4.39,1-8.79l13.19,1.69C438.53,306.8,438.2,309.85,437.86,312.89Zm-13.87-2-13.52-2.37,1.35-8.79,13.19,2Zm-14.2-2.7-13.19-2.37c-.11-.23-.22-.45-.34-.68q.67-2.7,1.36-5.41c3.66-1.16,8.5-.41,13.18-.34C410.47,302.29,410.13,305.23,409.79,308.16Zm-14.2-2.71-12.85-2.7v-.34l13.52-2.71C397.09,300.8,396,303.43,395.59,305.45Zm-20-2.37h-.33c.56-1.24,1.12-2.48,1.69-3.72l9.13,1Zm-1.35.34-12.17,1h-.34c.56-2.6,1.13-5.19,1.69-7.78L376,299l.34.33Zm-11.5-6.76q-.84,3.88-1.69,7.78l-13.18-3.05q.84-3.88,1.69-7.77l13.18,2.7Zm-15.55,4.39h-.34L334,298c.68-2.59,1.35-5.18,2-7.78l12.51,2.71C349.09,295.56,347.6,298.09,347.23,301.05Zm-1,.68h.68c-.68,2.59-1.35,5.19-2,7.78l-13.53-3q1-3.9,2-7.78Zm-15.55,4.4-13.53-3.38c.68-2.6,1.35-5.19,2-7.78l13.19,3,.34.34Q331.67,302.24,330.66,306.13Zm-1,.67h.68L328,314.58l-13.86-4.06,2.37-7.1Zm-16.23,4.06-13.86-3.72q1.18-3.88,2.36-7.78l13.87,4.06Zm-.34.68-2.7,7.78-14.54-4.06,3-7.78ZM309.69,320v.34l-3.38,3.38-13.86-.34q1.51-3.72,3-7.44Zm-5.07,4.4v.34l-15.89,5.75q1.68-3,3.38-6.09Zm-7.78,4.06s-7.07,3.26-9.13,3.72Zm-4.39,2.7c1.55.48-10.3,4.58-11.5,5.07C283.71,333.48,289.14,333.35,292.45,331.15Zm-4.4,3.05c2.27.72-11.77,5.56-13.19,6.08C278,336.94,284.14,336.79,288.05,334.2Zm-3.38,3-1.35,2.7c-3.07,4.35-9.92,4-15.56,5.75C271.75,340.87,279.35,340.78,284.67,337.24ZM278.92,344h1.35q-2,3.72-4.06,7.44L261,351.1C265.6,345.91,271.89,347.1,278.92,344Zm-3,8.12q-2.2,3.88-4.4,7.78l-16.91-3v-.34l5.41-4.73Zm-5.08,8.45L266.41,368l-18.26-4.73q2.7-2.88,5.41-5.75ZM265.39,369l-4.39,7.1c-4.47,1.61-13.78-4.11-19.28-5.07l5.41-7.11Zm-5.75,8.79-4.73,6.76c-4.29,1.53-14.67-4.16-19.95-5.41q3-3.89,6.08-7.78Zm-6.08,7.78v.33l-5.41,7.44-20-5.74v-.34l6.09-7.44Zm-6.43,8.45-6.09,7.1c-.82,1-17.09-4.2-20.29-4.73l6.77-8.46ZM240,402.5l-6.43,7.44-20.29-3,6.77-9.81Zm-8.12,8.12.34.34-6.76,7.44-19.62-.34,6.77-10.48Zm-7.77,8.79c-5.87,7.22-14.34,9.34-26,10.82q3.54-5.75,7.1-11.49ZM215,427.87q-2,2.7-4.06,5.41c-4.66,5.31-12.67,8.29-20.63,10.14q3.56-6.07,7.1-12.17Zm-8.46,10.82-3,6.09c-4.66,9.05-10.62,10.65-21.31,13.18q3.9-6.75,7.78-13.52Zm-8.45,14.88h1l-7.44,14.54-18.26,5.75,7.78-14.54Zm-7.44,15.55L183.22,485l-18.6,5.41,8.11-15.56ZM182.54,486q-3.89,8.46-7.78,16.91H152.44q5.92-5.74,11.84-11.5ZM174.09,504l-9.81,15.55-26-5.41v-.34l13.19-10.14ZM163.6,520.19v.34L150.42,531,123,525.94l14.21-11.16Zm-14.88,11.49V532l-13.86,11.5-28.74-5.07,15.55-11.84ZM133.17,544.2v.67l-15.89,12.18-25.71.67,13.53-18.6Zm1.35.34,28.07,5.07-14.54,12.51-29.42-4.73Zm41.93,23.33-14.88,13.19L131.48,577l16.57-13.87Zm1.36.34,27.39,4.39h.67l-13.18,13.19-29.76-4.06Zm29.42,4.39,19.61-1h5.75l-10.14,17.92c-.76.93-24.62-3.14-28.75-3.38Zm26.37-1.35,23.34-3.72h1l-6.42,24.69-28.07-2ZM259,567.53l23-3.72h1.69q-2.86,12.51-5.75,25l-25.36,3.38Q255.75,579.88,259,567.53Zm25.7-4.06L310,560.09q-2.7,12.85-5.41,25.7l-25.7,3.05Q281.8,576.15,284.67,563.47Zm26.37-2.7c1.41-1.66,21.46-3.65,25.37-3.72v.34q-2.21,12.68-4.4,25.36l-26,2.7Zm26.38-3.72,26.72.34q-2.2,11.33-4.4,22.65L333,582.75Q335.22,569.9,337.42,557.05Zm27.73.34,23,2h3.72q-2,9.14-4.06,18.27L360.76,580Q363,568.72,365.15,557.39Zm28.07,2.36,26.38,1.69c-3.5,23.61-9.47,11.9-28.75,16.57h-2Q391,568.89,393.22,559.75ZM421,561.44l26.38,1.36q-1.53,5.75-3.05,11.49c-1.7,1.74-23,2.08-27.39,2Q418.92,568.88,421,561.44Zm27.39,1.36,26.38.67q-.86,5.74-1.69,11.5H445.64Zm.34-1,2.7-10.48,25,1c-.56,3.16-1.13,6.32-1.69,9.47C473,563.3,453.21,561.86,448.68,561.78Zm3-11.5q1-7.1,2-14.2c1.63-1.66,20-1.72,24-1.69l-1.35,16.91Zm27.06-15.89,24-.34q-.18,8.79-.34,17.59l-24.69-.34Zm24.34,29.42,26-.34,1,10.49v1l-27.39.34Zm26.38-11.5,24.35-1c2,1.6,2,7.44,2.7,10.14v.34l-21.64.68h-4.39Zm26.38-1L580.56,550,584,560.43l-26,1.35Q556.89,556.54,555.88,551.3Zm26.38,10.14h2q1.53,7.27,3.05,14.54v.34L559.94,575q-1-6.09-2-12.17Zm3,0L612,559.75,615.73,578l-27.39-1.69Q586.83,568.88,585.3,561.44Zm27.73-2,24.68-2h2q2,11.33,4.06,22.65l-27-2Zm28.07-2,26.37-.34q2,12.68,4.06,25.36v.34l-26.38-2.37Zm27.39-.34,25.7,3q2.37,12.67,4.73,25.36l-26.37-2.7Q670.51,569.9,668.49,557.05Zm20.63-17.59,25.36-1q2.87,12,5.75,24l-25.37-3.38Q692,549.27,689.12,539.46Zm27-.67,24,3.72q2.88,11.65,5.75,23.33v.34l-24.69-3.72Zm25,4.05,23.68,4.06,6.42,23.34-24.35-3.72Q744.08,554.68,741.19,542.84Zm30.44,28.41,9.47,18.94-27.73,2.36-6.09-25Zm1.35.34,25,1,9.46,10.15,3.39,3.38-28.41,4.06Zm27,1.35-.67-.34,26.71-4.39c6.06,1,8.81,9,13.87,11.49l1.69,2-28.07,4.06C808.94,584.93,802.55,576.46,800,572.94Zm28.75-5.07,28.07-4.74L871.05,575l1.69,2L843,581.4Zm31.45-3-1.35-1.7,27.73-5.07c2.53,1.08,12.3,15.84,13.52,18.94l.68.68-26.72-1Zm28.4-6.77,25.37.68,11.83,24L902.16,578Zm48.7,5.07-22-5.07-13.53-18.94,23.67,1.7Q931.42,552,937.33,563.13Zm-23.67-42.27q5.75,9.48,11.5,18.94c-13-.11-22.9-1.65-30.46-6.15a38.79,38.79,0,0,1,4.42,4.46h.67l-28.4,5.41L858.2,532.36l-.68-.34,26.38-5.41a21.13,21.13,0,0,1,5.09,2.62,29.88,29.88,0,0,1-2.38-2.62h-.68l26.38-5.75Zm-1.35-1-27.4,5.75-13.52-10.49-.34-.67L896.41,509c6.52,1.19,10.14,8.07,15.9,10.48Zm-30.44-22c5.63,1.06,8.65,6.94,13.53,9.13l1,1.35L870,513.76l-12.52-10.48ZM868,513.09l.67,1-25.36,5.41L833.51,504l17.59-.34h5.07Zm-12.85-10.15H832.84L825.4,486C837.42,490.61,849.82,491.91,855.16,502.94Zm-11.5-12.51L825.4,485a14.38,14.38,0,0,1-3.4-4.73c.64,1.72,1.21,3.28,1.71,4.39l-18.94-5.41L797.33,463l18.26,5.75a10.55,10.55,0,0,1,3.29,4.17c-.53-1.5-1-2.84-1.26-3.84l17.58,5.75C838.82,477,841.87,486.48,843.66,490.43Zm12.51-14.88L836.9,474.2l-7.78-14.54,17.58,5.74ZM845,463.38l.68.67c-15.71-2.7-18-7.41-24.69-18.94C833.56,449.86,840.51,450.19,845,463.38Zm-7.78-13.53-16.57-5.75q-3.54-6.09-7.1-12.17C825.45,434,833.31,439.67,837.23,449.85Zm-8.11-13.53c-14.47-5.52-15.35-4.09-23-16.91C818.62,422.72,823.6,425.89,829.12,436.32ZM821,423.81c-11.89-4.53-16.18-5-22-15.89C809,411.87,817,413.85,821,423.81Zm-7.44-11.5c-10.67-2.76-16.5-6.58-21.64-14.88C803.24,402,807.09,402.77,813.56,412.31Zm-7.44-10.48c-9.42-2.56-16-6.19-21-13.19C795.25,391.24,800.88,394.46,806.12,401.83Zm-7.1-9.47c-9.15-2.38-15.9-5.34-20.63-12.17C788.65,384.12,792.92,384,799,392.36Zm-22.66-13.19-19.27,5.75L752,377.48l17.58-5.75h1Zm8.8-3.38c-8.29-3.67-14.32-4.62-19.28-11.5C773.57,367.78,780.37,369.48,785.16,375.79Zm-7.11-7.44c-6.63-3.14-13.37-4.6-17.58-10.15C767.2,361.26,773.84,362.81,778.05,368.35Zm-6.76-6.76c-6.38-2.61-12-4.48-16.57-8.8C760.8,354.46,767.88,357.1,771.29,361.59Zm-6.76-6.09c-5.4-1.65-11.94-3.88-15.22-7.78C754.57,349.86,761.27,351.3,764.53,355.5Zm-5.75-5.07c-5.21-1.61-11.25-3.79-14.88-7.1C749.18,345,755.15,347.05,758.78,350.43Zm-19.95-11.16c4.62,2.12,10.25,3.3,13.86,6.42C748.21,344.32,741.77,342.39,738.83,339.27Zm10.14,3c-5.54-2.28-12.33-3.8-16.57-7.44l12.85,1.69Zm-4.39-7.1v.34c-5.86-.5-13.44-.72-16.91-3.72H727v-.34l13.53-3.38C742.43,329.25,743.66,333.14,744.58,335.21Zm-3.72-7.78-14.55,3.38-3.72-6.76L736.12,320C738.83,320.66,739.89,325.09,740.86,327.43Zm-3.72-8.11-14.88,4.05-3-7.77,13.87-4.06C735.11,312.77,736.28,317,737.14,319.32Zm-3.72-8.8-14.55,4.4-2.7-7.44,13.19-4.06C731.62,304.29,732.54,308.34,733.42,310.52Zm-4.06-8.11-13.53,4.39-2.7-7.44A50.54,50.54,0,0,1,729.36,302.41Zm-8.12-3.05-8.11-1-2-1.69Zm-9.47-.67-13.52,3.72q-1-3.72-2-7.44a54.82,54.82,0,0,1,13.52,1.35ZM702.3,294h-7.1l-1.35-2Zm-9.13-1.35c.57.56,1.13,1.13,1.69,1.69l-13.18,3.38q-1-3.72-2-7.44C684,290.09,691.49,289.87,693.17,292.6Zm-8.11-3.38c-2.84,1.33-6.43-.33-7.78-1.69Zm-8.79-2,2,2.37-12.85,3q-.84-3.72-1.69-7.44Zm-14.88-2h1.69q.84,3.55,1.69,7.1l-12.51,3.38h-.34q-.85-3.88-1.69-7.77Zm-12.18,2.71c.68,2.48,1.35,5,2,7.44v.33l-12.85,2.71L637,290.57Zm-25.36,5.41,12.51-2.37,1.35,7.44v.34L625.2,300l-1.35-6.42Zm-1.69,0c1.53.85,2,4.26,2,6.42l-11.84-2.37-1.69-2Zm-15.22,2.36h3.38c.23.57.45,1.13.68,1.69l-6.09-1Zm3,2.37-6.42.68L602.21,297Zm-8.45-1.35.68,1.35c.11.34.22.68.34,1l-13.19,2c-.23-1.91-.45-3.83-.68-5.74ZM588,295c.23,2,.45,4.06.68,6.08l-12.85,2q-.51-4.4-1-8.79Zm-26,9.8q-.35-4.39-.68-8.79l12.51-1.69,1,9.13Zm11.83-11.49L561.29,295c-.11-1-.23-2-.34-3.05Zm-13.86-1.69c.22,1.12.45,2.25.67,3.38v.34l-12.85,1c-.11-1.92-.22-3.83-.34-5.75Zm-13.19-1c.11,1.92.22,3.83.34,5.75l-12.52,1-.33-7.43Zm-12.51,22.32-12.85-.68v-3.72l12.85-.33Zm-13.19-23.67,12.17.34c.23,2.59.45,5.18.68,7.77l-12.51.68h-.34Zm0,9.47L533.9,298v9.13l-12.85.68Zm-13.19-9.47h12.51V298H507.86Zm0,9.47h12.51v9.13l-12.17.34h-.34Zm-.34,10.14,12.85-.34c.11,1.24.23,2.48.34,3.72H507.52Zm13.53,4.4q.16,4.9.34,9.81l-14.21.33V313.23Zm-26.38-24h12.51q-.17,4.39-.34,8.79H494.33C494.44,295.08,494.56,292.15,494.67,289.22Zm-.34,9.47h12.51v9.47L494,307.82Q494.17,303.25,494.33,298.69Zm12.51,10.14v3.38H493.66l.33-3.72Zm-25.7-18.93,12.52-.68V298l-12.86-.68C480.92,294.86,481,292.37,481.14,289.9Zm12.52,8.79q-.18,4.56-.34,9.13l-12.85-.68.33-9.13ZM468,290.57l12.52-.67c-.12,2.47-.23,5-.34,7.43l-11.84-1C467.27,295.21,467.8,292.77,468,290.57ZM480.13,298c-.11,3-.23,6.09-.34,9.13l-12.51-.67q.17-4.23.34-8.46C469.6,296.21,476.9,297.86,480.13,298Zm-12.85-7.44c-.11,1.92-.23,3.83-.34,5.75l-12.85-1c.23-1.24.45-2.48.68-3.72Zm-26.38,2.71,10.48-1.36h2.71c-.23,1-.45,2-.68,3.05l-12.51-1.35Zm11.84,2.36v9.13l-12.85-1.35-.34-.34c.34-2.93.67-5.86,1-8.79Zm-13.19-1.35c-.23,2.93-.45,5.86-.68,8.79L426,301.39c.23-2.14.45-4.28.68-6.42Zm-15.22,1H426c-.34,1.91-.67,3.83-1,5.74l-12.85-2c.22-.68.45-1.36.67-2ZM410.8,297l1.36.33c-1.52,2-4.5,1.3-7.44,1Zm-1-1L404,297c.23-.45.45-.91.68-1.36Zm-5.41-.67c-2,2.94-9.21,3.76-13.53,4.05l1-6.08Zm-13.53-2.37.34.34L389.84,299c-.48.64,0,.2-.68.67l-11.83-1,1.35-7.78Zm-25.36-5.07,11.84,2.7H378l-1.35,7.78L363.8,296c.56-2.48,1.13-5,1.69-7.44Zm-1.35,0h.67q-.84,3.88-1.69,7.77l-13.19-3q1-3.72,2-7.44Zm-14.88-2.71h2q-1,3.39-2,6.76v.68l-12.85-3v-.34C340.56,287.19,344.77,287.06,349.26,285.16ZM330,289.22l6.77-1.69h.67c-1.46,1.87-3.95,2.19-7.44,2Zm.34,1h4.73c-.67,2.26-1.35,4.51-2,6.77-1.59,1.41-10.18-2.21-13.19-2.71C322.63,290.48,325.24,292,330.32,290.23ZM312.74,294l7.77-2-1.35,2-6.42.34Zm5.74,1v.34q-1.17,3.54-2.36,7.1l-12.85-3.72h-.68c2.37-3.15,5.28-2.22,9.47-3.72Zm-25,4.06,8.79-2h1v.33a32.5,32.5,0,0,1-9.81,2ZM285,302.41c3.55-1.42,9.46-1.36,13.86-3.05h2.37l-2.71,7.44L285,303.08Zm-1.36,1,14.54,4.06q-1.51,3.72-3,7.44l-14.54-4.06Zm-3.38,8.12,14.54,4.06-3,7.77-14.88-4.05C278,316.72,279.14,314.13,280.27,311.54ZM276.55,320l14.88,4.06-3.38,6.76-14.2-3.38h-.68Zm-4.06,8.12,14.21,3.72a64.87,64.87,0,0,1-17.59,3.72Zm-4.39,8.45,12.51-1.69-.34.68c-3.41,2.78-10.66,5.66-15.55,6.42Zm5.41,3.05c2,.45-10.51,5.16-12.18,5.74C264.25,342.18,269.83,342.05,273.51,339.61Zm-19.28,10.48c3.86-1.76,10.54-4.11,14.21-6.76h.67c-3.5,3.22-9.84,5.63-14.88,7.1Zm8.8-2.37c-.23.34-.46.68-.68,1-3.53,3.42-9.77,5-14.54,7.1C251.42,351.22,258.09,351.06,263,347.72Zm-22,13.53,4.4-3.72,11.84-4.74-1.36,1.7c-3.6,3.11-9.72,5.75-14.88,7.1Zm10.49-3.05c-.45.68-.9,1.36-1.36,2-3.92,4-10.69,5.77-16.23,8.12C238.73,362.94,245.38,362.4,251.53,358.2Zm-5.75,6.09L244.09,367c-3.83,4.93-11.13,6.19-17.25,8.79C231.72,369.19,238.92,369,245.78,364.29ZM239,372.07c.83.34-.65,1.81-1.36,2.71-3.84,4.86-10.9,7.25-17.92,8.79C225.49,375.77,230.78,376.83,239,372.07Zm-6.43,8.12-1.69,2.7c-4.28,4.83-11.35,7.75-18.6,9.47C219.44,382.57,222.8,385.78,232.59,380.19Zm-7.44,8.45c2,4.41-15.06,12-20.29,13.19C212.24,391.38,215,394.72,225.15,388.64Zm-21.3,14.54,14.54-5.75c-.57.9-1.13,1.81-1.69,2.71-4.41,6.67-10.76,10.12-19.62,12.17Zm7.1,4.74c.42.93-.78,1.66-1.69,3-5.65,8.52-9.75,9.18-20,12.85C194.54,411.71,201.38,414.45,211,407.92Zm-7.44,11.49-1.69,3c-6.53,10.34-9,9.5-21,13.86C188.31,422.33,191.13,426.64,203.51,419.41Zm-8.12,12.52c.79,1.09-.86,2.35-1.69,3.72-6.95,11.45-8.91,9-21.3,14.2C178.34,435.08,183.47,438.88,195.39,431.93Zm-23.67,18.93L188,445.11l-3.72,6.77c-4.41,7.54-10.63,10.69-20.63,12.17Q167.67,457.47,171.72,450.86Zm-9.13,14.54,17.25-5.74L172.4,474.2l-19.62,1.69Zm-11.16,11.5,19.95-2q-3.88,8-7.78,15.9l-23.33-4.06-.34-.68Zm-12.85,10.15,24,4.39L151.43,502.6l-25.7-5.41Zm-14.2,10.82,26,5.41-13.19,10.14-26.72-5.07ZM109.16,509l27.05,5.41v.34L121.33,525.6l-27.39-5.41ZM80.75,539.46l12.18-18.6,27.39,5.41c-8.28,9.86-21.15,13.66-39.57,13.53Zm-1,1.36,22.66-1.7h1.35q-6.93,9.48-13.87,18.94l-22,5.07Q73.82,552,79.74,540.82ZM66.89,564.49l21.64-5.41c1,1.5-9.87,20.06-11.16,24l-22.66,4.73Zm-26.38,50L53.7,589.17l22.66-5.07L64.18,609.8Zm49.37-9.81L65.54,609.8q6.08-12.67,12.17-25.36l23-5.41h1Q95.79,591.87,89.88,604.73ZM102.06,578l-23.34,4.74q5.93-12,11.84-24l19.61-.68h6.09Zm1.69-.33,13.86-19.62,28.75,4.74v.33C135.3,575.51,127.22,578,103.75,577.68ZM117.28,600l13.18-22.31,30.1,4.39L144,597Zm28.06-2.7,16.57-14.88,29.42,4.4-14.88,14.54Zm32.13,4.4,14.88-14.55,29.08,3.72v.34l-13.19,14.21Zm31.79,4,13.52-14.54,27.06,2.37h.67L239,609.13Zm31.11,3.72,11.5-15.89,24-3.38h1.35l-7.44,22C261.54,614.2,249,610.26,240.37,609.46Zm30.43,3.39q3.9-11.51,7.78-23l25-3c1.54,2.17-4.2,22.3-4.74,27.05Zm29.09,1q2.7-13.35,5.41-26.72l23.33-3h3v.34q-2.35,12.84-4.73,25.7C325.89,611.91,304,613.71,299.89,613.86ZM328,611.15l4.74-27.39,26.71-2.36q-2,13.7-4.06,27.39Zm28.75-2.36,3.72-27.39L387.47,579q-1.7,13.86-3.38,27.73Zm28.74-2Q387,592.9,388.49,579l26.71-1.69q-1,13.86-2,27.73Zm28.75-1.69,2.7-27.73,27.39-1q-1,13.88-2,27.73Zm57.48-1.69-28.06.67q.84-14,1.69-28.07h27.39ZM501.1,603l-28.07.34q.51-13.7,1-27.4l27.39.34Zm.33-27.73L474,575q.85-5.75,1.69-11.5l26.38.34Zm-25.36-12.85,1.35-10.15,25,.34q-.18,5.07-.34,10.15ZM502.45,603q.17-13.37.34-26.72l27.39-.34q.33,13.69.67,27.4Zm28.07-39.57,26.37-.67q1,6.08,2,12.17H531.19Q530.86,569.22,530.52,563.47Zm1.35,39.91q-.17-13.7-.34-27.4h27.39l1.35,28.07Zm29.42.67-1-27.73,27.06,1q1,13.86,2,27.73Zm29.42,1.36q-1-12.85-2-25.71v-2.36L615.73,579q1.37,13.86,2.71,27.73Zm29.08,1.35L617.09,579l26.37,2q2,13.86,4.06,27.73Zm28.75,2-3.39-27.39,26.38,2.36q2.21,13.69,4.4,27.39ZM704,613.86l-27.06-2.71q-2-13.51-4.06-27l26.38,2.71Zm-4.06-28.07-4.74-25.7,25,3.38q2.87,12.69,5.75,25.37Zm21.64-22,24.69,3.38q3,12.69,6.08,25.36L727,589.17Q724.29,576.5,721.58,563.81Zm12.85,48.7q-3.55-11.16-7.1-22.32L752,593.57c3.62,1.35,9.33,11.29,10.82,14.88l.67.68Zm30.44-3.38L754,593.57l25.7-2.37h2.37l10.49,12.51,2,2Zm30.77-3.72-12.51-14.55,26.71-3.72h2l7.44,7.78,6.76,6.77Zm32.12-4.06-14.54-14.54,28.75-4.4,13.19,11.5,3,3.38ZM886.27,600l-26.72-3L844,582.41l29.08-4.73,13.19,22Zm26.37,4.74L888,600.33l-13.19-22.65,26.72,1q5.57,12.85,11.15,25.7Zm1.36.34-11.16-26,23.33,4.73,12.18,26Zm26,5.07-12.18-25.7,23,4.73,12.85,25.37Z"/></svg>