<svg id="Layer_1" data-name="Layer 1" xmlns="http://www.w3.org/2000/svg" viewBox="0 0 1000 1000"><defs><style>.cls-1{fill-rule:evenodd;}</style></defs><path class="cls-1" d="M936,579.31c-10.32-12.95-18.75-29.89-32.47-39.29l-34.41-18.18L854.53,478c-17.56-1.58-23.6-7.17-27.92-21.75q-1.47-6.17-2.92-12.34c-5.21-9.36-19.08-16-26-25-14.62-19-25.2-46.41-44.48-60.38l-19.15-7.79c-3.14-12.67-4.91-20.36-9.88-25.83l1.76,3.75.65.65L713,331.27l-2.93-8.12h12.34c-.39-.34-.8-.67-1.22-1l-13.71-.31,6.82-1a18.09,18.09,0,0,1,6.48,1c-3.62-2.64-8.54-4.75-15.58-6.83q-2.74-7.3-5.51-14.61c-2.31-3.18-11.79-3.25-16.24-4.22-10.17-2.2-36.79-2.09-47.07,1-2.56.76-7.36,2.81-12.32,4.63.65,2.24,1.29,4.49,1.93,6.73v.33c-5.46-.55-8.45-2.21-13-2.93v-.32l5.24-1.85c-3.44,1-6.54,1.62-8.49,1.2-4.46-1-8.47-.86-13-2.27L575,295.23,526.3,304,512,306.27l-33.44-6.5L463,294.58c-12.26,1.91-19.36,13.15-36,9.42-3.23-.73-6.43-1.53-9.65-2.36l9,2.68c-.11.32-.21.65-.32,1-2.71,1.46-9-1.51-13-1.62l1.25-2.81c-12.42-3.19-25.39-6.41-41.83-6.28l-27.92,1.62-23.05,2.6-18.18,3.9c-1,2.05-1.95,4.11-2.93,6.17a43,43,0,0,0-10.38-1c-2.49,9.2-6.73,17.69-9.42,25.65-5.38,1.67-13.52,2.16-17.53,5.52-8.61,7.19-12.43,24.91-18.51,37l13.64-1.9h1.3l-4.22,9.74H240l1.26-2.33a22.4,22.4,0,0,1-1.91,2.33c-1.09,1.15-3.12,2-5.57,2.82,2.76-.45,10-1.37,12.06-2.17h8.44L249,390l-15.26-2.92-.54-.27c-6.63,2.06-16.05,3.56-19.26,7.74q-3.09,6.65-6.17,13.31a208.47,208.47,0,0,1-14.29,20.77c-12,15.45-27.88,27.56-38.63,44.48l-13,23.38-4.54,10.06c-6.19,8.78-28.48,18.94-38.64,25l-11,6.17q-2.91,7.95-5.84,15.91L67.23,590.34,48.72,606.58l-1.29,1.62h.64c1.88,1.69,34.18,1.64,39.61,2.6a86.86,86.86,0,0,0,20.19,1.14Q113,599,118.2,586.12l21.43-4.87h1q-4.86,13-9.74,26l-22,4.65c18.53-1.25,35.13-7.78,52.38-12.3-1.61.3-3.26.58-5,.83q4.69-12.66,9.41-25.32l28.25,5.19h.65c-6.61,8.93-13.87,14.05-24.47,17.22,3.24-.67,6.52-1.23,9.86-1.64l27.27,5.2c34.3,8.07,77.22,15.36,118.5,8.76l24-1.29,50.65-2.93,41.56-4.87,25.32-4.54c29.25,2.16,56,12.12,83.76,15.91l17.21-1.63c17.18-2.76,32.4-3.34,48.7-6.16,25.35-4.39,52.67-2.28,78.89-6.5l25.65-1.62,14.93.65c10.49,1.66,20.73.67,29.87,2.27L813.3,605l43.5,7.47L874,610.47c15.25-2.51,28.08-3.06,42.2-6.16l36.36-6.82C950.18,590.72,940.71,585.19,936,579.31Zm-3.25-2.93.33,1-29.55,4.22-11.69-21.1,25.33-3.25h1.95ZM705.51,345.88l-9.42,2.27-1.62-3.25C697.8,346.08,701.3,346.11,705.51,345.88Zm-5.2-1.95,2.6.65v.32l-1.95.65h-.32Zm28.9,6.82v.32l-13.64,3.57c-.65-2.16-1.29-4.33-1.94-6.49C718.3,349.35,723.17,350.77,729.21,350.75Zm-10.39-3.25,4.22,1.3-2.92.32ZM200,473.79l8.77-8.44h20.45l-6.16,14.29a15.43,15.43,0,0,1-5.67-.27l4.69,1.24v.65L213,488.4c-2.9,1.56-19.5-5.84-24.67-6.49v-.65l10.39-6.82,14.22,3.75C208.32,476.74,203.55,474.68,200,473.79ZM459.42,315v4.22l-12.34,3.25h-.32q.32-4,.65-8.12A107.8,107.8,0,0,1,459.42,315Zm-11.69-1.29c.11-.55.22-1.09.32-1.63l5.2,1.3Zm67.2,55.19.33,8.11-14.94-1.94v-4.87Zm-14.61.65v-6.82l14.61-3.9v9.42ZM611.68,323.8c.33,3.57.65,7.14,1,10.71l-10.07,1h-3.24c-.33-3.57-.65-7.15-1-10.72Zm-4.87-1v-.65l1.3.32Zm1.63,0,.65-.33,1.29.33Zm33.11-8.45-7.14,2.93h-.33l-.65-3.9Zm-8.44-1.94c-.11-.65-.22-1.3-.32-1.95l6.16,2.92Zm60.71,10.06-12.66,2.27-1.95-3.24Zm-9.74-3.57,10.72,1.3c-2.51,1.14-6.4.5-9.42.32Zm2.6,23.38-.33-1,3.25.33Zm4.87-1c1.06.65,1.26,1.28,1.62,2.6l-4.54-1v-.64Zm2,3.25,1.94,3.89L680.84,353h-1l-2-11v-.32l3.57-.33ZM821.41,522.17H799.34l-5.52-21.76h21.42q3.09,10.72,6.17,21.43Zm1,1L834.72,529H812.65L801,523.14Zm-22.08,15.91H801L775.31,542l-8.44-15.58c3.18.09,6.15.29,8.92.62-7.86-1.45-16.71-5.1-19.31-7.12l19.8,2.28L786,527a17,17,0,0,1-6.91.45C788.42,529.06,795.31,532.46,800.31,539.05ZM500,337.11l-.65,2.92-13.64,5.2.33-9.74Zm-14-2.6c.11-1.4.22-2.81.32-4.22L500,336.46ZM597.4,325.1c.32,3.46.65,6.92,1,10.39l-13-.33c-.33-3.46-.65-6.92-1-10.39Zm-.33-2.92,7.15,1.3-5.85.64Zm37.66,7.14-6.81,1.95c-.33-1.3-.65-2.6-1-3.9Zm-8.44-2.92v-1l7.14,2.92Zm30.52-6.82c-.22-1-.43-1.95-.65-2.92l3.57,1.3Zm4.55-1v.32h-2.28l.65-.32Zm-4.55,1.94-6.49,2.28c-.33-1.74-.65-3.47-1-5.2Zm7.14-1.3,1.95,8.45c-.81,2.76-8.93,5.09-12,5.51l-1.62-1c-1.51-1.46-1.59-6.36-1.95-8.76C654.63,322.13,659.37,321.13,664,319.25Zm14.61,2.28,2,2.92-13.64,4.22-1.62-9.09C669.55,320.59,673,321.64,678.56,321.53Zm-11.69-2.6c2.29-.05,3.51.16,4.55,1.3Zm5.2.65,3.57.65C673.68,320.44,673.3,320.57,672.07,319.58Zm-3.9,17.21,4.22,1.29-3.22,1.47a42,42,0,0,0,5.5-.17l1.94,1.3V341L662,346.2l-1.29-9.09a20.73,20.73,0,0,0,8.07,2.42C668.58,338.62,668.38,337.7,668.17,336.79ZM787.32,478q2.59,10.71,5.2,21.43l-22.4,1q-2.28-10.71-4.55-21.42l10.41-.47c-7.45.2-15.62-2-18.85-4.4,9.48.38,18.92,2.34,27,2.92a22.1,22.1,0,0,1-6.73,1.42Zm-287.64-126v10.06l-14.61-.33c.1-1.62.21-3.24.32-4.87Zm-14.29,3.89c.11-3.35.22-6.71.32-10.06l13.32-5.2c1.43,1.55.76,7.93.65,10.72Zm169.8-21.1v.32l-10.72,3.9c-.32-2.27-.65-4.55-1-6.82C647.89,333.21,650,335,655.19,334.84Zm-12-3.57c-.1-.76-.21-1.52-.32-2.28l8.12,3.58c.1.54.21,1.08.32,1.62Zm8.77,2.92v-1l1.3.33Zm7.79,2.27c.54,3.36,1.08,6.71,1.63,10.07l-14.29,4.87c-1.83-1.84-2.09-8.53-2.27-11.69l11.36-4.55Zm-2.27-1.95,1-.32,1.3.65v1l-2-.65Zm-292.52-.32h4.22c-.76,2.27-1.51,4.54-2.27,6.82l-12,2.59h-1.3l1.95-8.76Zm-8.44-.33,1.95-1.94,10.39,1.29ZM658.76,455.29l-4.22-8.44,18.18-2.28c2.47,1.9,3.46,8.9,4.54,12Zm24,6.17c-8.59-1-18.53.24-22.72-5.2C668.6,456.39,678.55,456.85,682.78,461.46ZM673,443.92l-19.15,1.95-3.57-9.74,17.2-2.27c3.07.61,4.44,7.14,5.52,9.74Zm-27.59-18.18c-14.94-.65-16.92-.33-19.48-14l16.88,2.92q1.3,5.37,2.6,10.72Zm.32,1,3.57,8.76H631.49q-1.47-5.67-2.92-11.36Zm-111-23.38,16.56-2.92c1,.87,1.22,2.85,1.62,4.22v1L536,408.54h-.33C535.39,406.8,535.06,405.07,534.74,403.34Zm1,11L518.18,418h-.32l-.33-5.19,16.88-3.25C535.3,410.39,535.5,412.93,535.71,414.38ZM588,394.58q.81,5.19,1.63,10.38c-7.81-.95-16.36-.7-18.83-7.46Zm-17.53,1.94-1.62-5.84,15.58-2.92h1.3l1.95,5.84Zm18.18-1.94,16.56,2.92,1.95,9.09v1.3L590.26,405Q589.44,399.77,588.63,394.58Zm-.32-1c-.54-2-1.08-3.89-1.63-5.84h16.24q1.13,4.38,2.27,8.76Zm-1.95-6.82-2-5.84,16.23-2.27,2.28,8.44Zm-1-.32-16.89,3.25q-.64-2.93-1.3-5.85l16.56-2.6Q584.57,383.87,585.39,386.46Zm-15.91,10.06-16.89,2.93-1.29-5.85,16.23-2.92C568.75,391.7,569.27,394.6,569.48,396.52Zm-1.3,1h1.62c.54,1.51,1.08,3,1.63,4.54l-17.54,3.25c-.43-1.62-.86-3.25-1.3-4.87Zm-15.26,8.76h.32c.44,1.73.87,3.47,1.3,5.2l-18.18,2.6c-.21-1.41-.43-2.82-.65-4.23Zm1.3.33v-.33L571.1,403c1.73,1.79,1.68,8.81,1.95,11.68l-17.86-3.24C554.87,409.83,554.54,408.21,554.22,406.59ZM572.4,403l16.88,2.59,2,12-16.88-2.93Zm18.18,2.92,16.88,2.92,1.95,10.71v1L593.18,418C591.1,416.78,590.64,408.91,590.58,405.94Zm17.86,2.92,16.88,2.92q1.14,5.52,2.27,11v.33l-17.21-2.28Q609.41,414.87,608.44,408.86Zm17.2,2.27q-1.12-5.19-2.27-10.39l16.23,2.6q1.47,5.19,2.93,10.39Zm-.65-.32-16.88-2.6-2-10.71,16.56,2.92Q623.86,405.61,625,410.81Zm-19.15-14-2-8.77,15.91,2.6q1.29,4.54,2.6,9.09ZM601.62,379l15.91,2.6c.75,2.81,1.51,5.63,2.27,8.44C607.6,387.66,605.33,390.76,601.62,379Zm-.33-1c-.65-1.73-1.29-3.47-1.94-5.2l15.9-.65,2,8.45Zm-.65,0-16.55,2.27c-.54-1.73-1.09-3.46-1.63-5.19l14-2.28h2.28C599.35,374.55,600,376.29,600.64,378Zm-17.2,2.27-16.24,2.92-1.29-5.84,14.93-2.27C582.45,375.91,582.87,378.54,583.44,380.29ZM567.85,390l-16.55,2.6c-.33-1.95-.65-3.9-1-5.85l14.94-2.59h1.3Zm-17.2,3.9,1,4.87v1l-16.88,2.6c-.22-1.95-.43-3.9-.65-5.85L549,393.93Zm-15.91,14v1l-17.21,2.92c-.11-1.73-.21-3.46-.32-5.19l16.88-2.92C534.31,405.07,534.52,406.48,534.74,407.89Zm-16.88,27.92L499,440.68V430.61l17.85-4.22C518.08,427.4,517.21,433.3,517.86,435.81Zm-1.3,1h1.3v13l-19.16,5.52.33-13.64Zm-51-50.65H449.68c.32-2.59.65-5.19,1-7.79h15.59Q465.91,382.24,465.59,386.13Zm.65,1,15.58,1v8.44l-15.91-1.3Zm-47.08-16.88-15.26-.33,1.62-8.44,15.26.65Zm2.27-8.12h14.94q-.66,3.57-1.3,7.14c-1.95,1.78-12.15,1.05-15.26,1Zm-1.62,8.77,15.26-.33c-.43,2.6-.87,5.2-1.3,7.79l-15.58.65Zm14.28,8.76,14.61-1.3H450q-.64,3.57-1.3,7.14c-2.21,2.06-12.1,1.42-15.9,1.3Zm8.12,7.47h6.49l-1.29,6.82c-2.37,2.17-12.05,1.09-16.24,1,.44-2.27.87-4.55,1.3-6.82Zm7.14,0h15.91c-.21,2.6-.43,5.19-.65,7.79l-16.23-.32C448.7,392.09,449,389.6,449.35,387.11Zm.65-9.42-15.58.65q.65-3.88,1.3-7.79l15.26-.32C450.65,372.71,450.33,375.2,450,377.69Zm-14-8.11c.33-2.28.65-4.55,1-6.82h15.26c-.33,2.16-.65,4.33-1,6.49Zm.65-8.12H421.76q.64-3.73,1.3-7.47L438,355C437.56,357.13,437.12,359.3,436.69,361.46Zm-14.28-7.14-1.63,6.49c-1.58,1.58-11.46.06-14.93,0l1.62-7.79,14.94,1Zm-15.59-1-1.62,7.47-15.26-1.62,1.95-7.47,14.93,1.3Zm-1.95,8.12v.32l-1.62,8.12-15.58-1.62,1.95-8.44Zm-1.29,9.09,15.58.33L417.54,379l-15.91-.32Zm14.28,10.39c1.43-2.43,6.92-.66,9.74-1.62h5.84l-1.29,7.46-15.91.33Zm14,6.82q-.65,3.57-1.3,7.14L414,394.58q1-2.93,1.94-5.85v-.65Zm-1.62,8.11q-.81,3.74-1.63,7.47l-16.88-1,1.95-6.82Zm.65,0,2.27-.32h14.29q-.66,4.05-1.3,8.12l-16.89-.33Q430,399.61,430.85,395.87Zm17.2-.32,16.56.32c-.32,2.82-.65,5.63-1,8.45l-16.56-.65Q447.58,399.6,448.05,395.55Zm17.21.32,16.56,1.3c-.22,2.92-.43,5.85-.65,8.77l-16.56-1.3Q464.94,400.26,465.26,395.87Zm16.88,11,16.56,2.6v5.84L481.49,417C481.71,413.62,481.93,410.27,482.14,406.91Zm16.56,1.63-16.56-2.28.33-8.76,16.23,2.27Zm-32.46-22.41q.48-3.88,1-7.79L482.14,380c1,1,.44,5,.33,7.46Zm.32-8.44H451c.32-2.27.65-4.54,1-6.81,2.29-2.08,11.5-.43,15.26-.33C467,372.93,466.78,375.31,466.56,377.69ZM452,369.25c.33-2.16.65-4.33,1-6.49l14.94,1.3c-.22,1.95-.43,3.89-.65,5.84Zm.65-7.79H437.34c.43-2.06.87-4.11,1.3-6.17l14.61,1.3C453,358.21,452.82,359.84,452.6,361.46ZM438.31,354l-14.93-.65L425,347.5l14.29,1.95C439,351,438.64,352.48,438.31,354ZM424,347.82c-.43,1.84-.87,3.68-1.3,5.52l-14.93-1,1.62-6.17L424,347.5Zm-16.88,4.55-14.94-1.62,2-5.85,14.29,1,.32.32Zm-14.61-5.19c-1.67,4.95-9.21,4.83-15.59,4.54l2.28-4.87,13.63-2C393.56,345.66,393,346,392.54,347.18Zm-5.2,4.54h3.9l-1.95,7.47L374,356.91q1.14-2.1,2.27-4.22Zm1.63,8.12L387,368,371.43,365c-.1-.22-.21-.43-.32-.65q1.14-3.4,2.27-6.82Zm-1.63,9.09,15.59,1.62v.33L401,378.67l-15.91-1.95Q386.21,372.82,387.34,368.93Zm14,10.71,15.91.33-1.62,7.14-16.23-.65C400,384.19,400.65,381.91,401.3,379.64Zm14,8.44-1.94,6.5-16.56-1.3c.76-2.06,1.51-4.12,2.27-6.17Zm-2.92,7.47H413L411,402l-17.2-2c.75-2,1.51-4.11,2.27-6.16ZM410.39,403l-1.94,7.46-17.21-2.59-.33-.65c.87-2.17,1.74-4.33,2.6-6.5Zm-2.59,8.11.32.33v.32c-.76,2.27-1.51,4.55-2.27,6.82l-18.18-2.92q1.29-3.57,2.6-7.14Zm1,.33,17.53,1.62-1.62,8.12-18.18-2.28C407.26,416.44,408,414,408.77,411.46Zm1-.65-.32-.33,1.95-7.46,16.88,1-1.62,8.44Zm19.48-6.17V404l16.56.65c-.32,2.92-.65,5.84-1,8.77l-17.53-1C427.93,409.83,428.57,407.24,429.22,404.64Zm17.54,0,16.88.65c-.33,3.14-.65,6.28-1,9.41l-17.2-1.29Q446.11,409,446.76,404.64Zm17.53.65,16.88,1.62c-.11,3.36-.22,6.71-.32,10.07l-17.21-2C463.85,411.78,464.07,408.54,464.29,405.29Zm17.2,12.34L498.7,416q-.17,2.92-.32,5.85l-17.53,3.24C481.06,422.6,481.28,420.12,481.49,417.63Zm17.21,38.63,19.16-5.52q.15,8.11.32,16.23l-19.48-2.59Zm19.16-37.34,16.88-3.57c1,.42.39,0,1,.65.33,1.63.65,3.25,1,4.87v.33l-18.51,4.22C518.07,423.25,518,421.09,517.86,418.92Zm17.85,3.25h1c.32,2.71.65,5.41,1,8.12v.32l-19.15,4.87-.33-9.09Zm1.63-1q-.33-3.09-.65-6.17l17.85-2.6q.66,5.69,1.3,11.36Zm18.18-8.77,17.53,2.92,1.62,12-18.18-3.25Q556,418.27,555.52,412.43Zm18.5,3.25,17.53,2.92q.83,6,1.63,12l-17.86-2.92Q574.67,421.69,574,415.68Zm18.18,2.92,17.21,2.6q1.3,6,2.6,12l-17.21-2.6C592.7,428.61,593,421.69,592.2,418.6Zm18.18,2.92,17.54,2.6q1.29,5.52,2.59,11l-17.85-2Zm20.46,14.61q1.45,4.71,2.92,9.42v.32l-18.18-1.62L613,434.18Zm.65,0h18.18l3.57,9.74H634.73Zm37-3.24-18.18,2.59L646.75,427l15.25-1.3h2.6l3.9,6.82Zm-4.55-7.8-17.53,1q-1.45-5.69-2.92-11.37l16.88,2.93,3.57,7.14Zm-4.22-8.44-16.56-2.59q-1.29-5.21-2.59-10.39l16.23,2.92q1.46,4.86,2.92,9.74Zm-19.48-14c-.86-2.92-1.73-5.84-2.59-8.76l15.9,2.92,2.93,8.76Zm-.65,0c-12-1.53-16.14,0-18.83-11.69L636,393.93C638,395.28,638.69,400.37,639.6,402.69ZM636.36,393,620.45,390c-.76-2.71-1.52-5.41-2.27-8.12l15.58,2.6,2.6,8.12ZM615.9,372.17l15.26,2.6c.76,2.92,1.52,5.85,2.27,8.77C621.92,383,618,382.83,615.9,372.17Zm0-.65-2.59-6.16,7.46-.33h8.12l2,8.77Zm-1.3-.64v.32l-15.9.32c-.54-1.29-1.09-2.59-1.63-3.89l14.61-2.27C613.4,366.21,614,369,614.6,370.88Zm-16.55.64v.33l-15.91,2.27c-.43-1.73-.87-3.46-1.3-5.19l13.31-1.63h2.27C597,368.71,597.51,370.12,598.05,371.52Zm-16.56,2.6v.33l-15.91,2.27c-.43-2.06-.86-4.11-1.3-6.17l14-1.62h1.63Zm-15.26,9.09-15.91,2.92H550c-.22-2.05-.44-4.11-.65-6.16l15.26-2.28h.32C565.36,379.53,565.8,381.37,566.23,383.21Zm-16.56,3.9c.22,1.51.44,3,.65,4.54V393l-16.23,2.92c-.22-2.05-.43-4.11-.65-6.16Zm-15.58,15.58-16.56,2.92h-.32l-.33-6.16,16.56-2.6C533.66,398.8,533.87,400.74,534.09,402.69Zm-16.88,17.86v5.19L499,429.64v-.33q.15-3.4.32-6.81l17.21-3.58C516.77,419.47,517,420,517.21,420.55ZM499,399.12l-15.59-2.6c-1.4-1.48-.46-5.7-.32-8.11l15.58,2.27.33.65ZM482.79,379l-15.58-1.3c.22-2.38.43-4.76.65-7.14l15.58,1.95Zm-14.61-9.09c.22-1.95.44-3.89.65-5.84l14.94,2.59-.33,4.87Zm0-6.82-14.93-1,1-5.2,14,2.28h.65C468.62,360.49,468.4,361.78,468.18,363.08Zm-14.61-7.14L439,354.32q.66-2.44,1.3-4.87l14.29,2.6v.32C454.22,353.56,453.9,354.75,453.57,355.94Zm-14-7.79c-.92,1.45-11.82-1.15-14.61-1.3l1.63-3.9,14,2.28C440.26,346.2,439.94,347.18,439.61,348.15Zm-15.26-1.95c-1.54,1.53-10.54-.59-14-.65l-.32-.65,1.62-3.89,14,1.62C425.22,343.82,424.79,345,424.35,346.2Zm-13.63-4.87-1.3,3.57-14.93-.65c.65-1.51,1.29-3,1.94-4.54l14.29,1.3Zm-16.88,2.92-14,1.63c.65-2.06,1.29-4.12,1.94-6.17h14C395.14,341.22,394.49,342.74,393.84,344.25ZM378.9,346.2l-13.63,2.6c1.72-10.84,6.05-5.89,14.28-9.09h1.62C380.42,341.87,379.66,344,378.9,346.2Zm-.65.65-1.95,5.2-14,3.24,2.28-5.52ZM374.36,353h1v.32c-3.08,5.1-10.07,5.56-16.23,7.47l2.27-4.22Zm-2.6,4.87h1c-.75,2.16-1.51,4.33-2.27,6.49l-14.93,2.27C358.91,359.77,365.18,361.46,371.76,357.89Zm14.61,10.71-1.95,7.79-16.56-3.57q1.31-3.57,2.6-7.14Zm-1.62,8.77,15.9,1.95v.32c-.65,2.17-1.29,4.33-1.94,6.49l-16.56-2.27C383,381.7,383.88,379.53,384.75,377.37Zm13.63,9.74-2.27,5.52L378.9,390q1.47-2.76,2.92-5.52Zm-3.24,6.49.32.33q-1.14,2.76-2.27,5.52c-5.27,1-12.22-2.63-17.86-3.25l3.25-5.52Zm-3.25,7.14c.92.37-1.19,5.11-1.95,6.17s-15-3.25-18.18-3.57c1.08-2.16,2.16-4.33,3.25-6.49Zm-2.27,7.47c-1,2.17-1.95,4.33-2.93,6.49-.8,1-15.27-2.71-18.5-2.92l3.24-7.79ZM386.37,416c-1.08,2.17-2.17,4.33-3.25,6.5l-18.5.65,3.24-10.72Zm-11,7.47h7.14q-1.29,4.71-2.59,9.42l-18.51,3.89q1.45-6.33,2.92-12.66Zm4.22,10.39q-1.14,8.28-2.27,16.56L358.45,453q1.46-7.31,2.92-14.61C363.68,435.19,375.39,435,379.55,433.86Zm.65,0,18.83-1.3q-1.14,7.47-2.27,14.93l-18.83,2.6Q379.07,442,380.2,433.86Zm.33-1q1.46-4.71,2.92-9.42l18.5,3.25.33.32L399,431.59Zm3.57-10.07c1-2.16,1.94-4.33,2.92-6.49l18.5,3.24c-.86,2.17-1.73,4.33-2.59,6.5Zm22.07-2.92,18.18,2.27c-.64,2.27-1.29,4.55-1.94,6.82l-18.83-2.6ZM425,422.17l17.86,1.95c-.43,2.6-.87,5.19-1.3,7.79l-18.5-2.6C423.71,426.93,424.35,424.55,425,422.17Zm.33-.65,1.95-8.44,17.2,1.3q-.64,4.38-1.3,8.77Zm20.13-7.14,17.2,1.3c-.32,3.24-.65,6.49-1,9.74l-17.53-1.95Q444.8,418.92,445.46,414.38Zm17.85,1.3,17.21,1.95q-.16,3.89-.32,7.79H462.66Q463,420.55,463.31,415.68Zm17.54,10.39,16.23-3.25h1.3V430l-18.18,3.9Q480.52,430,480.85,426.07Zm17.85,39.28,19.16,2.27c.32,2.28.65,4.55,1,6.82l-20.45-7.14Zm19.81-28.89,18.5-4.87c1.68,1.78,1.4,9.17,1.3,12.33l-19.16,5.52h-.32Q518.67,442.95,518.51,436.46Zm19.15-14.29,18.18,2.6c.43,3.46.87,6.93,1.3,10.39L539,430.61C537.76,429.35,537.7,424.32,537.66,422.17Zm19.16,2.92,17.85,3.25,1.62,10.39-18.18-3.25Zm18.83,3.57,17.85,2.6,2,10.72-18.18-2.93Zm18.83,2.93L612,433.86q1.29,4.88,2.59,9.74v.32L596.42,442Q595.44,436.78,594.48,431.59Zm20.45,13.31q1.62,3.89,3.25,7.79L599,451.07c-.76-2.71-1.51-5.42-2.27-8.12Zm1,.32,18.51,1.63L638,454l-19.15-1.3Zm19.16,1.63h18.18q2.12,3.88,4.22,7.79V455l-18.83-1Zm23.05,9.09,4.21,3.88h0l-18.5-.31c-1.4-1.52-2.81-3-4.22-4.55Zm6.17,5.19,4.54,3.25.33.65-19.81.32-4.54-4.87Zm1.62,0,18.83,1.3,5.2,1.95-19.48.65Zm26.3,4.55q1.45,10.38,2.92,20.77l-21.1.65q-1.31-10.55-2.6-21.1Zm1,0L713,468q2.43,8.12,4.87,16.23l-21.76,1.95Q694.64,475.9,693.17,465.68Zm-4.22-2.6c6,.4,15.62.76,19.81,3.57C702.54,465.42,693.74,465.93,689,463.08Zm-9.09-5.2h-.65l15.59-1.29h2.92c1.62,2.05,3.24,4.11,4.87,6.16l1,1C695.22,463.57,684.11,462.47,679.86,457.88Zm-1.62-1-3.9-12v-.33L691.87,442h1.63q1.95,6.81,3.89,13.63Zm14.93-15.58c-12.82.81-20.76,6.8-23-7.8l17.53-2.59H689q2.12,5,4.22,10.06Zm-23.7-8.44-3.89-6.82,17.2-3.25c2.59,1.11,3.34,4.61,5.2,6.49l.32,1Zm-4.22-8.12L661,417.63l14-1.3h3.9l3.24,4.87,1,1Zm-4.54-8.12q-1.63-5-3.25-10.06c7.57,2.14,16.63.81,19.48,7.79l1,1Zm-3.57-11-2.93-8.76,15.26,2.92,3.9,8.77Zm-3.25-9.41c-1-2.81-1.95-5.63-2.92-8.44l15.26,2.59,3.24,8.45Zm-1-.65v.32l-15.58-2.59q-1.29-4.23-2.6-8.44L650,387.43C651,390.14,651.94,392.84,652.91,395.55Zm-18.5-11.69q-1.14-4.38-2.27-8.76l14.61,2.27q1.46,4.54,2.92,9.09Zm-2.6-9.74c-.76-3-1.51-6.06-2.27-9.09l14.93,2.6,2.28,9.09Zm-2.27-9.74-2.6-5.84,14.61.32c.87,2.6,1.73,5.2,2.6,7.79Zm-1.3-.65v.33l-15.26.65-2-4.22,12.34-1.95C627.14,358.54,627.27,361.18,628.24,363.73Zm-15.91,1-15.58,1.62-2-5.19,11.69-1C611,360,611,362,612.33,364.71ZM595.77,366c-2.6,1.95-11.44,1.93-15.25,1.94q-.82-3.07-1.63-6.17l9.42-.64h5.84Zm-16.23,1.29v1l-15.26,1.3c-.32-2.38-.65-4.77-1-7.15l14.93-.65Q578.9,364.54,579.54,367.3Zm-14.61,9.42-15.58,2.6H549c-.32-2.28-.65-4.55-1-6.82L563,370.55C564.21,371.69,564.43,375,564.93,376.72Zm-15.58,9.09v.32l-15.91,2.93h-.32l-.33-6.17,14.29-2.6h1.29C548.7,382.13,549,384,549.35,385.81Zm-16.23,10.06-15.91,2.93h-.33c-.11-2.06-.21-4.12-.32-6.17l15.91-2.6Q532.78,393,533.12,395.87Zm-16.24,22.41-17.53,3.24V416l17.21-3.24C516.67,414.6,516.77,416.44,516.88,418.28ZM499,390l-15.59-2.27V380l15.91,2.59Q499.19,386.3,499,390Zm-15.26-10.71c.11-2.28.21-4.55.32-6.82l15.26,2.92v6.49Zm-14.94-15.91c.22-1.41.44-2.82.65-4.22l14.94,3.57-.33,2.6C479.6,366.38,473.61,363.9,468.83,363.41Zm.33-5.2-14.94-2.27c.33-1.19.65-2.38,1-3.57l14.61,3.25C469.59,356.48,469.37,357.35,469.16,358.21Zm-14.29-7.46c-2.11,1.59-11.14-1.54-14.61-1.95.44-1.08.87-2.17,1.3-3.25l14,3.25.33.32ZM427,342.31l1.3-2.28,14,2.6V343l-.65,1.3Zm-.65-.33L412,340.36l1.62-2.28,14,1.63Zm-14.61-2-14.61-1,1.95-2.27,14,1C412.56,338.52,412.13,339.28,411.69,340Zm-22.4-4.87,10.71.33C397.91,336.41,391.34,336.05,389.29,335.16Zm8.77,1.63-1.3,1.29c-2,1.81-10.88.76-14.29.65l1.95-2.92Zm-16.89,1.94-13.31,1.95,1.95-6.49,14,1.3ZM365.27,342l1.3.33-2.28,6.81-13.63,3.25c.86-2.6,1.73-5.2,2.59-7.79Zm-1.63,7.79q-1.12,2.93-2.27,5.85l-13.64,3.89q1.31-3.08,2.6-6.17Zm-3.57,6.82c.95.64.11.37-.32,1.3-2.39,5.11-10,6-15.26,8.12C347,358.59,353.57,359.82,360.07,356.59Zm-2.92,5.52c-.32.76-.65,1.51-1,2.27-2.66,4.14-10.4,6-15.26,7.79C343.48,364.62,351.15,366.06,357.15,362.11Zm10.71,3.57h1.95c-.86,2.27-1.73,4.55-2.6,6.82l-15.58,1,2.92-5.84Zm-.32,7.79L383.77,377l-2.27,6.5-16.88-3.9C365.59,377.59,366.57,375.53,367.54,373.47Zm13.31,11.37-2.6,4.87-16.55-3.58h-.65q1.45-2.91,2.92-5.84C368.67,380.83,377.53,382.22,380.85,384.84Zm-3.25,5.51v.33l-3.24,5.19-16.56.65q1.45-4.86,2.92-9.74Zm-7.14,6.5H374v.32L371.11,403l-16.88,3.89c1-3,1.95-6.06,2.92-9.09Zm-.32,7.14q-1.31,3.74-2.6,7.47L350.66,417l3.24-9.09Zm-3.57,8.44q-1.31,5.35-2.6,10.72l-17.21,5.19L350.33,418Zm-3.25,11.69q-1.31,6.5-2.6,13L342.86,441q1.63-5.69,3.25-11.36Zm-3.25,13.64q-1.14,7.62-2.27,15.25l-18.51,3.25C342.41,435,345.67,444.77,360.07,437.76Zm-32.79,31.16v-.32l5.2-3.25,19.8,1.62v.33l-4.55,2.27Zm19.48,1.63-4.87,10.38h-21.1L326,469.57Zm-13-6.17,4.23-6.5c4.92-2.93,13.28-1.57,18.83-3.89,1.28,1.55-2.55,9-2.93,12Zm4.55-8.12-19.16-1c5.95-12.09,10.62-7.4,21.76-13C342.62,444.49,338.9,453,338.32,456.26Zm-.32.65c-1.63,2.16-3.25,4.33-4.87,6.49-1.89,1.62-16.65-1.39-20.46-1.62l5.85-5.84ZM331.5,465v.32l-5.19,3.25-21.11-1.3,6.5-4.87ZM325,469.57v.33l-4.87,10.71L299,482.23,304.23,468Zm-26.95,12.66-18.5,2.28h-1.95q2.11-9.42,4.22-18.83L302.61,468h.65Zm-.32,1L293.84,504l-20.45,2.27h-.33q2.12-10.39,4.22-20.78Zm.65.32,21.1-1.62q-1.62,10.54-3.25,21.1l-21.42,1Zm22.07-1.62h21.11q-1.47,10.54-2.93,21.1H317.22Zm22.08,0,21.43-.33q-1.31,10.73-2.6,21.43H339.62Q341.07,492.47,342.54,481.91Zm.32-1q2.44-5.19,4.87-10.38l19.81,1h.65l-3.9,9.09Zm6.82-11.36v-.32L353.9,467l19.16,1.63v.32C367,470.62,357.82,469.86,349.68,469.57Zm4.87-3.24L358.12,454,377,451.07q-1.12,8.43-2.27,16.88Zm23.38-15.26,18.5-2.93h.33l-1.62,19.48-19.81.33Q376.64,459.51,377.93,451.07Zm19.8-2.28c1.87-2.57,14.73-2.68,18.51-4.22q-.5,9.9-1,19.81l-19.48,3.24Zm0-1.62q1.14-7.31,2.27-14.61l19.16,3.25q-1.14,3.88-2.27,7.79Zm2.6-15.26v-.32l2.92-4.55L421.76,430v.33l-2.28,4.22C417.9,435.69,404.07,432.22,400.33,431.91Zm22.4-1.62,18.51,2.6c-.54,1.94-1.09,3.89-1.63,5.84l-18.83-3.25Zm19.16,2.92,18.18,2.6.32.32c-.32,2.06-.65,4.11-1,6.17l-.33.33-18.83-3.58Q441.07,436.14,441.89,433.21Zm.32-1,1.62-8.12L461,426.39c1,1-.24,6.2-.32,8.77Zm20.13-5.85,17.53-.32c-.11,2.7-.22,5.41-.32,8.11l-18.18,1C461.69,432.24,462,429.31,462.34,426.39Zm17.86,8.44,17.2-3.89h1L498.05,441l-18.5,4.87Q479.87,440.35,480.2,434.83Zm18.18,33.44c4.49,2,18.88,5.15,20.77,8.77v1.3l-21.1,5.19ZM518.83,452v-2L538,444.57l1.29,16.24L519.15,467Q519,459.52,518.83,452Zm19.8-20.45,18.51,4.22,1.62,8.11-19.48-.32Q539,437.6,538.63,431.59Zm19.48,4.54,18.51,3.9,2,7.79-18.51-3.9C558.76,442.67,558.33,438.25,558.11,436.13Zm19.16,3.9,18.5,2.92,2.28,7.79-18.83-2.6Zm21.43,11.69q1.45,2.76,2.92,5.51l-19.81-2.92-1.94-5.19Zm1,.32,18.83,1.62,2.92,4.55.65.65-19.8-1.63Zm19.8,1.62c6.12.68,18.84-.82,21.11,3.9l1.95,1.95-19.48-.65Zm19.16,6.82c1.86-.11,4.29-.24,5.19.65l4.22,4.22-20.12.33-4.22-5.85Zm10.06,5.85L651,487.1H630.19q-1.14-10.22-2.27-20.45Zm1,0,20.78-.33q1.29,10.54,2.59,21.1h-21.1Q650.8,476.72,649.67,466.33Zm23.7,21.75,3.57,16.55v1l-21.43.32-3.24-17.85Zm1,0,13.64-.65h7.46l3.9,19.15-21.43-1Zm22.08-.65v-.33l21.1-2.27c2.38,2.16,3.38,17.27,4.55,21.43l-21.76.32Q698.38,497,696.42,487.43Zm22.72-2.6,21.43-3.25c2.14,1.29,4.18,18.07,5.2,21.76L723,506.26Zm21.76-3.9-22.08,2.93q-2.43-7.8-4.87-15.59c11.82.69,22,2.58,26,11.37l1,1ZM710.7,466c5.11.55,12.5,1.12,16.56,3.25C722.24,468.74,714.54,468.24,710.7,466ZM699,456.26l19.15-2.92c2.86,2.21,4.09,10.15,5.52,13.63C711.59,466.51,703.66,464.68,699,456.26Zm-.65-.65L694.47,442,713,438.73c2.91,1.4,4.41,10.44,5.52,13.63ZM694.15,441q-2.28-5-4.55-10.06l18.83-3.25,5.2,10.07Zm-9.42-18.18L701,419.9h1.95l4.55,6.49c.21.22.43.43.65.65C696,428.65,690,433.4,684.73,422.82Zm-1-1-3.9-4.87c-.11-.33-.22-.65-.32-1l17.2-2.92a8.55,8.55,0,0,1,3.57,3.9l2,1.94Zm-4.55-6.5-4.54-5.84,15.26-2.6h1.94l2.6,3.25,2.27,2.27ZM674,408.54q-1.62-4.4-3.25-8.77H687c1.41,2.06,2.82,4.11,4.22,6.17Zm12.33-9.42h-15.9c-1.09-2.81-2.17-5.63-3.25-8.44,7.67,1,15.85,1.24,18.51,7.47l.64.65Zm-19.8-9.41c-.87-2.93-1.73-5.85-2.6-8.77l14.61,2.6,3.57,8.76Zm-.65,0-15.26-2.93q-1.29-4.54-2.6-9.09L663,380.62C664,383.64,664.93,386.68,665.9,389.71ZM647.72,377c-.87-3-1.73-6.06-2.6-9.09l14.94,2.93c.86,2.92,1.73,5.84,2.59,8.76ZM644.8,367q-1.14-3.9-2.27-7.79l13.63,3.24c1.65,1.06,2.9,5.26,3.25,7.47Zm-2.6-8.77q-1.29-2.76-2.6-5.52l14,3.58q1.31,2.6,2.6,5.19Zm-4.87-8.76c4.41,1.72,11.32,2.51,14.61,5.52C647.27,354.18,639.62,352.86,637.33,349.45Zm3.9,8.44v.32l-14.94-.65q-1.12-2.76-2.27-5.51l14.28.32Zm-15.59-.33-15.26,1.63c-.65-1.95-1.29-3.9-1.94-5.85l12.33-1.29h2.6Q624.51,354.79,625.64,357.56Zm-15.91,1.63-12,1h-3.24q-.66-3.41-1.3-6.82h14.61Q608.77,356.27,609.73,359.19Zm-15.9.65v.32l-14.94.65c-.43-2.6-.86-5.19-1.3-7.79l14.61.32C592.74,355.51,593.29,357.67,593.83,359.84Zm-15.91,1-14.94.65c-.32-2.92-.65-5.84-1-8.77h14.61C577.05,355.4,577.49,358.11,577.92,360.81Zm-14.61,9.09-14.94,2h-.32l-.65-6.49v-1.63l14.93-1.3C562.66,364.92,563,367.41,563.31,369.9Zm-14.94,9.42-15.9,2.59-.33-6.81,13.64-2.28h1.62C547.72,375,548.05,377.15,548.37,379.32Zm-15.9,9.74L516.56,392l-.33-5.85v-.32l15.26-2.92C531.82,384.94,532.14,387,532.47,389.06Zm-15.91,23.05L499.35,415l.33-5.52,16.23-2.92Q516.23,409.35,516.56,412.11Zm-17.21-37.34-15.26-2.92.33-4.87,14.93,3.25Zm-14.93-13-14.61-3.24c.21-.65.43-1.3.65-2,2.1-1.86,10.9.13,14.28.32C484.63,358.54,484.52,360.16,484.42,361.78Zm-14.61-7.46V355l-14-3.25c.21-.87.43-1.73.65-2.6l13.63,1.95.33.33C470.24,352.37,470,353.34,469.81,354.32Zm-13.64-6.17-14.28-3.25,1-1.95,14,3.25c-.11.43-.22.87-.32,1.3Zm-26.95-8.77v-.32c.22-.33.44-.65.65-1l14,2.6-1,1.3Zm-1-.32-13.64-1.62,1-1,13.63,1.3Zm-27.6-2.92v-.33l1-.32,13,.65C412.37,338.29,404.48,336.33,400.65,336.14Zm-8.76-1.95c-1.14-1.19-.18-6.51.65-8.12,1.78-1.63,9.53-.76,12.66-.65q-.49,4.54-1,9.09Zm-1.62,0-12.67-.65c-.1-.22-.21-.43-.32-.65l1.62-7.14,12.66-.33Zm-13.64-1-13.31-1.62,1.62-3.25c2.75-1.52,7.52-1,10.72-2.27h2.59ZM363,331.27l-8.76-1-.33-.65,10.39-1.94C363.86,328.89,363.43,330.08,363,331.27Zm-5.19.32c-2.64,3.25-10.75,4.79-15.91,5.2q1.14-3.9,2.27-7.8Zm-3.57,3.25c1.14.74-1.16,6.54-1.3,8.76l-13.31,3.58,1.95-9.42Zm-2.6,10.06h.65q-1.14,3.9-2.27,7.79l-13.31,3.9,2.59-8.44Zm-2.92,8.77c.93,1.32-1.08,4.07-1.62,6.17l-13.32,3.57h-.32l2.6-5.85Zm-2.6,7.14q-1.29,2.76-2.6,5.52l-14,3.25,2.93-5.2Zm-3.89,6.49c.76.45-1.76,3.66-2.28,5.2l-14.61,3.89q1.64-2.91,3.25-5.84Zm11,.65c.91.61-.17.94-.65,1.95-2.65,5.63-10.27,7.26-15.9,9.74C341.25,370.36,345.66,373.12,353.25,368Zm-1.94,6.17,12.66-.65h2.92L364,379.32l-15.26,2.59h-.33C349.36,379.32,350.33,376.72,351.31,374.12ZM362,380.29h1.3C359.88,387,352.73,390,344.81,392q1.47-4.55,2.92-9.09Zm-2.6,6.82q-1.29,4.86-2.59,9.74L341.57,403q1.46-5,2.92-10.07Zm-3.57,10.71.65.33c-4.46,12.06-7.33,10.84-18.83,15.26q1.62-4.71,3.25-9.42Zm-3.25,10.39L350,417l-16.56,6.49,3.9-9.09Zm-4.22,10.39h1l-3.57,10.06-16.56,5.2C335.19,419,337.58,426,348.38,418.6Zm-3.57,11c1.1,1.55-1.95,9.27-2.92,11.69L325,445.87h-.33l3.9-10.06C331.09,432.2,340.87,431.83,344.81,429.64Zm-21.1,15.91c-1.09,1-15.84-3-19.48-3.25q2.43-4.38,4.87-8.77l18.83,1.63Q325.81,440.35,323.71,445.55ZM303.26,442l-19.81-5.52h-.65l5.52-9.42,20.13,6.17Zm.32,1,19.16,3.9h.65q-2.28,3.72-4.55,7.46c-5,2-14.39-2.79-20.45-3.24C298.52,448.53,302,445.34,303.58,443Zm14,12.66-5.84,5.85-21.11-3.25,6.17-6.49Zm-7.79,6.49.32.65L303.91,467,282.8,464.7l6.82-5.84ZM262,468.27l5.52-13.63,21.11,3.89C283.51,465.13,272.39,467.05,262,468.27Zm17.86-2.59h1l-4.23,19.15-19.48,3.25h-.32q2.28-9.42,4.55-18.83ZM275,485.8l1.3.33q-2.12,10.06-4.22,20.13l-21.75-.33q3.07-8.43,6.17-16.88Zm-3.89,21.43L263,515.35l-23.38-2.92v-.33l10.07-5.52Zm11.36-1.3,8.76-1h1.95v.32q-3.07,6.18-6.17,12.34l-23-2C268.7,509.29,272.59,507.6,282.48,505.93Zm12-1.3L310.4,504h5.52l-5.52,14.93-22.73-1Q291.09,511.29,294.49,504.63Zm22.4-.64h21.43c-2.95,17.47-7.37,15.25-26.95,14.93Zm22.4,0h21.76l-3.9,14.28-22.4.33Q337,511.3,339.29,504ZM362,504l21.43-1q-1.47,8.28-2.92,16.56l-22.41-1Zm5.19-1h-4.87q1.31-10.38,2.6-20.78c2-1.81,16.9-1.55,20.78-1.94l-2,21.75Zm-1.94-22.4q1.94-4.55,3.89-9.09l20.78,1.62-3.57,6.17Zm6.16-10.06v-.33c2.41-.53,8.36-.47,11.37-1.62h11.69C389.12,473.87,380.88,471.28,371.43,470.55Zm42.54-5.2h1l-2.6,9.74-19.8-2.6-.33-.65C398.92,466.65,405.7,468.82,414,465.35Zm1.94-.32,18.83-4.22c1.06,1.07-.6,15.64-.65,19.15l-20.77-4.54Q414.61,470.22,415.91,465Zm0-.65q.81-9.9,1.63-19.81l19.15-.65q-.65,8-1.3,15.91Zm1.63-20.78q1.13-3.74,2.27-7.47l18.83,3.25.32.32L437,443Zm22.4-3.9,19.15,3.9c-.43,1.41-.86,2.81-1.3,4.22L438,443.27Zm19.8,4.22,18.51,2.6-.33,6.82-18.83-5.2h-.65C458.88,446.74,459.31,445.33,459.74,443.92Zm.33-1c.43-2.06.86-4.11,1.3-6.17,2.36-2.35,13.61-1.74,17.85-1.62-.11,3.57-.21,7.14-.32,10.71Zm19.48,3.9,18.5-4.87v13.63l-19.15-1.95Q479.22,450.26,479.55,446.85Zm18.5,37.66,20.46-5.2h1q.16,9.58.32,19.16l-21.75,7.46Zm21.43-9.74-.33-7.15L539,461.46q.48,9.41,1,18.83Zm19.8-30.2,19.48.33c.54,3.35,1.09,6.71,1.63,10.06l-20.13,5.52h-.33Q539.62,452.53,539.28,444.57Zm20.13,11.37h1q.48,9.24,1,18.5l-20.45,5.85h-.33q-.17-9.59-.32-19.16Zm1.63-1.3q-.66-4.87-1.3-9.74l19.15,3.89q1.14,2.93,2.27,5.85Zm20.45.65,1.62,14.61-20.78,4.22q-.48-9.25-1-18.51Zm1,.32,19.48,2.6q1.47,4.38,2.92,8.76l-20.77,2.6Q583.28,462.6,582.46,455.61Zm20.46,2.6,20.13,1.62c1,1.73,1.94,3.47,2.92,5.2l.65.65L605.84,467Zm24,8.44,1.95,20.78-21.1,1Q607,478,606.16,467.62Zm1.63,21.43c2.89,2.8,2.46,13.33,3.57,17.53v.32l-21.43-1q-1.31-7.95-2.6-15.91Zm1.62,0h21.1q1.62,8.93,3.25,17.85H633.11Q631.66,497,630.19,488.08Zm25,18.83,3.24,2.59,2.28,2.6c-12,.19-21.72,2-27-5.19Zm1.3-.33c11.47,2.62,20.21-3.7,27.27,5.2h.65l-22.08.32Zm22.72,0c11,1.91,21.45-.93,27.26,5.84h0l-20.76-.32Zm23,1.3h-.65l13.64-.65h6.82l3.89,3.25,4.22,4.54C719.56,514.7,707.63,513.66,702.26,507.88Zm21.43-.65L745.44,504q3.9,7.29,7.79,14.61C739.14,515.8,731.12,517.08,723.69,507.23Zm18.83-25.65L763.3,479h1.3q2.26,10.38,4.54,20.78v1L746.74,503Q744.63,492.3,742.52,481.58Zm-.32-1-7.15-9.09,19.16,2.27L763.3,478Zm-14.29-12.34,16.56.65,6.82,3.25C747.4,473.46,730.75,469.93,727.91,468.27Zm-3.25-1q-2.43-6.82-4.87-13.64v-.32l20.13-2.6,3.9,17.21Zm14.61-17.53-19.8,2.59q-2.28-6.64-4.55-13.31l18.83-3.24c2.69,1.72,4.65,10.3,5.52,13.63Zm-24.35-12L709.73,428v-.33l18.18-2.92c2.33,1,4.79,6.84,5.52,9.41l.65.65Zm-6.16-11q-2.44-3.57-4.87-7.15l17.85-2.92c2.06,1,4.32,4.06,5.2,6.17l1.3,1.3Zm-5.52-7.8-4.87-5.84,16.55-2.92h1.3l5.52,5.84Zm-5.52-6.81-4.87-5.52,16.88-2.92a4.51,4.51,0,0,1,2.6,2.59l3.24,3.25Zm-5.52-6.17-3.57-5.52-.65-.65,16.23-2.92a10.06,10.06,0,0,1,4.22,4.87l1.3,1.3ZM689,398.8c-2.7-.17-4.16-2.84-4.87-4.87l-.65-.65,15.26-2.93h1q2.1,2.44,4.22,4.87c.1.33.21.65.32,1Zm-6.17-6.5-3.24-8.44,14.93.65,2.6,2.92,2.27,2.28Zm-3.57-9.41L676,374.45l14.6,3.24,2.93,5.2.65,1Zm-1,0-14-2.92c-2-1.13-2.8-6.48-3.57-8.77L675,374.12Zm-17.86-12.66q-1.29-3.74-2.6-7.47l13.32,3.57c1.84,1.17,3,5.1,3.89,7.14Zm-3.24-8.45q-1.3-2.59-2.6-5.19c6.9,2.55,12.91,2.94,16.56,8.77ZM652.27,354c3.84,1.17,10.25,2.62,13,5.2C661.33,357.67,654.81,357,652.27,354Zm-3.58-1.94-.32-.65,12.34-4.22c1.91,1.69,2.14,7.41,2.92,10.06Zm-3.24-2.28v1l-13.64-3.9-1.95-2.27L643.5,340C645.14,341.74,644.83,347.25,645.45,349.77Zm-14.29-2.92-7.46-1.3,1.62-.65h3.57Zm6.82,4.87-14.28-.65-2.28-4.87C627.36,347.41,635,347.45,638,351.72Zm-14.93-.32-13.32,1h-1.62l-1.62-7.14,14.61,1.3Zm-15.59.65v.32H592.85l-1.62-6.17v-.32l13.63-.65C606.49,346.33,606.87,350,607.46,352.05Zm-15.58.32-14.61-.32c-.43-1.63-.87-3.25-1.3-4.87l13.31-1.3h1.3C591,348,591.45,350.21,591.88,352.37Zm-15.26-.32L562,351.72c-.32-1.19-.65-2.38-1-3.57l11.68-1h2.6C575.75,348.8,576.19,350.42,576.62,352.05Zm-15.26.64q.5,4.55,1,9.09l-14.93,1c-.22-3.14-.43-6.28-.65-9.42Zm-14,19.16-15.26,2.27c-.22-2.6-.43-5.19-.65-7.79,2.82-2.16,11.33-2.17,15.26-2.6C547,366.44,547.18,369.14,547.4,371.85ZM531.49,365c-.11-3.24-.21-6.49-.32-9.74l14.61-2q.32,4.88.65,9.74Zm-.32-10.71-.33-2.6v-4.87l14.29,1.62c.21,1.41.43,2.82.65,4.22Zm0,16.56v3.57L515.91,377v-8.11L530.84,366Zm0,4.22q.32,3.57.65,7.14l-15.59,2.6c-.11-2.28-.21-4.55-.32-6.82Zm-14.94,30.51-16.55,2.93v-8.45l3.89-.32C510.65,399.43,516.62,397.65,516.23,405.61Zm-16.88-36-14-3.57c-.86-.92-.49-1.58-.32-3.25h14.61Zm-14.28-24-13.64,4.87q.17-4.71.32-9.41l13.32-5.52Zm-.33.65v10.07L471.43,355h-.65l.33-3.57Zm-14,4.22-14-1.95c1.82-4.11,10-5.57,14.29-7.14Zm-13.64-4.87-13.63-3.24c.22-.22.43-.44.65-.65,2-2.93,10-2.94,13.31-4.55Zm-13-5.52-13.64-2.59c.44-.76.87-1.52,1.3-2.28,2.36-2.34,9.14-1.54,12.34-2.92C445.41,333.61,444.32,337.59,444.16,340Zm-14-2.92-12.34-1.3,9.42-1h3.89C430.85,335.6,430.52,336.35,430.2,337.11Zm-25.33-2.6c.33-2.92.65-5.84,1-8.76h13c-.33,3-.65,6.06-1,9.09Zm.65-9.74-13-.32q.65-4.54,1.3-9.09l12.66.32C406.17,318.71,405.85,321.74,405.52,324.77Zm-13.63-.32-12.66.65q.64-4.71,1.3-9.42l12.66-.32Q392.53,319.9,391.89,324.45Zm-13.31.32-12.66,2,1.62-8.76c2.14-2.22,8.59-1.1,11.69-2.28C380.39,317.14,378.76,322,378.58,324.77Zm-13.31,2.28-12.34,2.27,1.62-9.42,12.34-2.59Zm-13,2.27L339,327.05c3.39-5.55,8.25-4.23,14.28-7.15C354.41,320.65,352.37,327,352.28,329.32ZM340.59,328l-9.41,1v-.32l2.59-1.95Zm1.3,1h1.62v.33c-.75,2.6-1.51,5.19-2.27,7.79l-12.66,3.25h-.32q1-5.21,1.94-10.39Zm-2.27,9.09h1.3l-2.28,9.42L326,351.07h-.32C328.48,337.53,329.39,343,339.62,338.08Zm-1.95,10.39c1.06,1.48-1.23,5.59-1.62,8.12l-13.64-1.95-.65-.32C326.18,352.41,332.79,350.9,337.67,348.47Zm-2.27,8.77v.32q-1.47,2.93-2.92,5.85l-15.59-4.55,3.9-3.57Zm-3.57,6.82v.32c-.87,1.52-1.74,3-2.6,4.55-3.92,1.4-12.47-3.53-16.88-4.87l3.57-4.55Zm-3.9,6.17c-1.08,2-2.16,4.11-3.25,6.16l-16.55-5.84-.33-.65,3.9-5.19ZM338,373.8h1c-1,1.95-2,3.89-2.92,5.84l-14.94,3.57,3.57-5.84Zm11.68,1c.92,1.1-1.66,5.4-2.27,7.47l-14.28,6.17q1.46-3.9,2.92-7.79Zm-3.24,8.44h.65c-4.65,12.5-6.54,10.7-17.86,15.91q1.62-4.87,3.25-9.74Zm-3.25,10.39-2.6,9.74L325,406.91C330.08,397.12,335,399.27,343.19,393.6Zm-3.57,10.72c1,1.25-2.08,6.69-2.6,9.09l-16.88,1v-.32C326.05,405.16,330,408.64,339.62,404.32ZM329.23,414.7h7.14l-3.57,9.09-17.86-.64q2.12-3.9,4.22-7.8Zm2.27,10.07c1.09,1.32-2.51,7.19-3.24,9.41l-18.51-1.62q2.26-4.38,4.54-8.77Zm-22.72,7.79L289,426.39l4.87-9.41,19.81,6.49Q311.21,428,308.78,432.56Zm-20.46-6.82-19.48-2.92v-.32l5.85-7.8,18.5,2.28Q290.76,421.36,288.32,425.74Zm-1,1V427q-2.6,4.54-5.2,9.09l-19.8-4.22h-.65l6.17-8.44ZM302,442.63h.65l-5.52,7.79L277,445.87h-.65l5.84-8.44Zm-6.17,8.44.32.32L290,457.88,268.52,454v-.33l6.82-7.14Zm-47.4,5.52q2.93-6.33,5.84-12.67l19.48,2.6h.65C268.9,454,260,455.25,248.39,456.59Zm17.53-1.95h1q-2.91,7-5.84,14l-18.83,4.54,5.52-15.58Zm-6.17,14.93h1q-2.44,9.42-4.87,18.83l-19.16,3.9q2.6-9.09,5.2-18.18Zm-4.54,19.48-5.52,16.23-23.38-3.57v-.32l10.07-8.12Zm-6.82,17.21v.32L238,512.1l-24-3.89v-.33l11.36-5.52Zm12.66,10.06v.33l-10.39,5.52H227.94L238,513.08Zm-8.44,5.52,9.74-5.19,23,2c-7.38,7.84-19.86,4.92-32.79,3.57Zm25.32,2.6,9.09-5.52,22.08.65c-6.47,7.78-17.54,5.39-31.17,5.19Zm24.68,1,7.79-5.52,21.75-.32c.42.2-5.74,5.28-6.49,6.17H302.61Zm31.49-5.84h22.08L350,525.74H327Zm23,0,22.73,1-5.2,6.17-23.37-1Q354.22,522.65,357.15,519.57Zm23.38,1.3,23.05,2c-1.19,2-2.38,4.11-3.58,6.16-5.43,2.16-16.69-1.82-23.7-1.94-.1-.22-.21-.44-.32-.65Zm1-1q1.46-8.43,2.92-16.88l21.43-2.6-2,21.43ZM384.75,502q1-10.87,1.94-21.75l21.11-1.63-1.95,20.78Zm2.59-22.73,3.57-6.17L411,476.06C406.37,479.16,394.15,479.15,387.34,479.31ZM412,476.39l21.42,4.22v.32l-1.94,1L409.74,478Zm42.53.65q-.49,5.83-1,11.69l-21.42-5.85C436.3,478,448.18,479.68,454.55,477ZM435.07,480q.48-9.57,1-19.15l19.48-5.52q-.31,10.54-.65,21.1Zm1.3-20.45q.64-7.8,1.3-15.59l19.15,4.87h.65l-1.62,5.52ZM456.5,455l20.12,3.25c-.21,3.68-.43,7.36-.64,11l-20.13,6.81Q456.17,465.52,456.5,455Zm.32-.65c.43-1.73.87-3.46,1.3-5.19l19.48,5.19-.65,2.28v.64Zm20.78,4.22,19.8,6.17v2.6L477,468.92Zm.32-1c1-5.27,14.33-1.55,19.81-1.3v7.79Zm20.13,49.35,21.1-7.47c2.12,2.39,0,17.26,1,21.43l-22.4-5.2C497.84,512.75,497.94,509.83,498.05,506.91Zm21.75-30.85,19.48,5.2c1.09.85,1.44,2.87,2,4.22l-20.45-7.14A3.73,3.73,0,0,1,519.8,476.06Zm21.11,4.87,19.8-5.51c2.22,2.14,1.95,12.75,1.95,16.55l-20.78-6.17C541.56,484.18,541.23,482.56,540.91,480.93Zm21.42-5.84,21.11-4.22q.64,9.9,1.3,19.8L564,492.3h-.33Q563,483.69,562.33,475.09Zm22.08-.65v-3.89l20.78-2.6,1.62,20.45-21.1,2.6Q585.06,482.72,584.41,474.44Zm22.73,14.94q1.29,7.62,2.59,15.25L588.31,502,585.71,492Zm7.14,21.75-22.4-2.92L589,503C600.06,506.08,608.1,502.45,614.28,511.13Zm-2.92-5.2c7-.14,21.4-1,23.7,3.9l2.27,2.27C626.46,512.11,615.8,513,611.36,505.93ZM638,513.08l5.52,9.41-23.7,1-3.9-11.37Zm1.3,0h22.4l5.52,8.44,1,1h-23.7Zm23.7,0h22.73l6.16,8.76.65.65h-23Zm23.7,0,22.4,1,7.47,6.49c.21.33.43.65.65,1l-23.7,1Zm23.7,1c11.58,1.08,24.08,1.53,30.52,7.79l-22.4-.32Zm24,2.6c10.85,2.24,21.44,2.48,28.57,8.11C752.07,522.51,741.55,522.3,734.4,516.65ZM747.07,504l20.12-2.28h2.28q2.91,9.75,5.84,19.48l-21.43-2.59Zm-.65-34.74L762,467.62h3.57l7.47,6.17h.65C765.43,476.74,751.53,470.43,746.42,469.25Zm2.27-1.3h-3.9q-2.1-8.61-4.22-17.21l18.83-1.95h1.3q2.12,8.94,4.22,17.86Zm-8.44-18.18q-2.44-7-4.87-14l19.15-2.28,5.85,14.61Zm14.28-16.88-19.15,1.94-5.85-10.06,18.18-2.6c2.62.95,5.39,7,6.17,9.74l.65.65Zm-25.65-9.1L725,418.28l-1.62-1.63,18.18-2.92,6.16,6.82.33,1Zm-6.16-8.11-5.52-5.85,16.23-2.59h1.62l2.93,2.27,3.24,3.57Zm-6.17-6.49-1.95-2.28-3.25-3.24,16.24-2.93h1l5.84,5.2Zm-5.85-6.5-3.57-4.54c-.43-.44-.86-.87-1.3-1.3l15.91-2.92c2.21.41,3.79,2.42,4.55,4.22l2,1.94Zm-4.22-6.82c-2.8-.48-4.55-3.82-5.84-5.84l15.26-2.6h1.62l3.25,4.22,1.62,1.63Zm-6.17-6.49-4.54-4.87,14.93-2.92h1.63c.21.43.43.86.65,1.3l3.57,3.57Zm-4.87-5.52-4.22-6.17,14.29-1.94h1.62l3.25,4.22,1,1ZM691.22,377q-1.94-3.41-3.89-6.81l12.34-1.3h2.59l3.9,5.19c.11.33.22.65.32,1Zm-1.29-.32-14-2.92-3.25-7.15,14,3.58C687.76,372.39,688.84,374.56,689.93,376.72Zm-17.86-11-2.92-4.54c7.22,1.61,13.14,2.6,16.56,8.11Zm-6.49-7.47h-.65v-.32l14.28-3.9q1.47,4.88,2.92,9.74C676.83,361.9,669.5,361.5,665.58,358.21Zm-1-1h-.32L662,346.85l14.94-5.19q1.14,5.83,2.27,11.68Zm11-18.18,3.9,1.3-2.28.32Zm-14.93-2.6-.33-2.27,7.14,2.27.65,2.92Zm-5.52-2.6v-.32l10.39-3.9c1.12,1,1.53,3.9,1.62,5.85C663.09,333.8,660.3,333.46,655.19,333.86ZM651,331.92c-4.71-2.42-7.45-4.08-13.64-2.93l12-5.19C649.88,326.5,650.43,329.21,651,331.92Zm-8.44-1-2.93-1v-.33l2.28-1C642.09,329.43,642.31,330.18,642.53,330.94Zm0,.65,1.29,7.79-14.28,4.55c-.43-3.46-.87-6.93-1.3-10.39v-1.62L636,330Zm-14,12.66H614.93c-.43-3-.87-6.06-1.3-9.09l14-2.92Q628.08,338.24,628.57,344.25Zm-14.29-.32-13.64-.33-1.29-7.14,13.63-1C613.41,338.3,613.85,341.12,614.28,343.93Zm-14.28,0-13.64.65c-.33-2.92-.65-5.85-1-8.77l13.31.65Q599.35,340.2,600,343.93Zm-14.29,1-13.64.33c-.21-3.57-.43-7.15-.64-10.72l12.66,1.3C585.45,337.23,585.5,342.61,585.71,344.9Zm-13.64,1v.32l-13.31,1c-.21-.87-.43-1.74-.65-2.6Zm-12.33,2.27c.43,1.19.86,2.38,1.3,3.57l-14.61.65-.65-3.9Zm-15.26-1c-.22-.87-.43-1.74-.65-2.6h13.63c.22.86.44,1.73.65,2.6Zm-1-3.58c-.1-3.35-.21-6.71-.32-10.06l13.31-.33c.22,3.47.43,6.93.65,10.39Zm0,2.93v.32l-9.74-1,9.42-1.3C543.29,345.23,543.4,345.88,543.5,346.53Zm-14.28-1-.33-10.06,13.64-1.95.33,10.06Zm.32,1,.65,3.24v4.87l-14.61,2.92V346.85Zm-14-.33c-.1-1-.21-1.95-.32-2.92l9.41,2.27Zm14,9.09c1.51.7,1,7.33,1.3,10.07l-14.93,2.92-.33-9.74ZM515.91,398.8l-7.14.32h-9.09c.1-.54.21-1.08.32-1.62V391l15.58,1.63ZM500,390.35v-7.46l15.26,2.59c.11,2.17.22,4.33.32,6.5Zm-14.61-55.51-13.64,5.52c.22-2.92.44-5.85.65-8.77l13.31-1.3C485.61,331.81,485.5,333.32,485.39,334.84Zm-13.64-3.9-13.31,5.2c.22-2.71.44-5.41.65-8.12l12.66-4.87Zm-1,1h1c-.21,2.92-.43,5.84-.64,8.76l-13.32,4.87q.33-4.38.65-8.76Zm-13,4.54-13,3.57c.32-2.7.65-5.41,1-8.11l12.34-3.58Zm-12.66-4.87-12.66,2.27h-.32c.32-2.92.65-5.84,1-8.76l12.66-1.62C445.57,326.18,445.35,328.89,445.13,331.59Zm-13.63,2.27-11.37,1h-1.62q.5-4.54,1-9.09l13-.33C432.15,328.24,431.82,331.05,431.5,333.86Zm-12.34-8.76-13-.33c.33-2.92.65-5.84,1-8.76l13,.32C419.81,319.25,419.48,322.18,419.16,325.1ZM406.82,315l-12.66-.32c.43-1.73.87-3.46,1.3-5.2l11.36-.64h1.3C407.69,310.92,407.26,313,406.82,315Zm-13.31-.65-12.66.65,1.62-6.49,12.34.65C394.38,310.92,393.94,312.65,393.51,314.38Zm-11.69-5.51L380.2,315l-12.66,1.63,1.95-6.82c2.07-1.94,7.75-.24,10.71-1.3h1.62Zm-14.93,7.79-12,2.27,1.62-7.47,11.36-2.27h1Zm-12.66,2.27-11,2.92h-1c.64-2.6,1.29-5.19,1.94-7.79l11-2.6C356.28,312.83,354.58,316.57,354.23,318.93Zm-12.66,2.92-12.34,1,2.27-4.55,11.36-3.9C343.82,315,341.77,319.79,341.57,321.85Zm-5.85,1.3h4.87v.33c-3,4.88-7.2,1.77-12.66.32v-.32Zm-2.59,3.25c-3.42,3.84-10.63,4.93-15.91,6.81q1.13-5.19,2.27-10.38Zm-3.9,3.57-1.62,10.39-12.34,3.89h-.33l1.95-10.39ZM327,341.33,325,351.07l-14.29-2.6C314.34,343.85,321.57,344.26,327,341.33Zm-2.6,10.39v.33L321.11,354c-2.46,1.58-11.6-2.9-15.26-3.57v-.32l3.58-1.3ZM319.81,355l-2.59,2.27c-2.51,2.7-12.65-2.76-16.89-3.57v-.33l4.23-2.59Zm-4.54,3.89v.33l-3.9,4.54-16.23-5.52,4.22-3.89Zm-4.22,5.52c-6.43,9.43-11,1.56-21.1-.65l4.22-4.87ZM324,377l-3.57,5.52c-1.51,1.05-13.8-5.1-17.2-5.84l-.33-.65,4.22-5.19Zm10.39,3.9h1c-1.08,2.6-2.17,5.19-3.25,7.79l-15.58.65C320.49,382.35,326.81,384.33,334.42,380.94Zm-10.06,8.77h7.14q-1.46,4.69-2.92,9.41l-17.53-4.22,4.54-4.87Zm3.57,10.38-3.9,7.15-18.5-6.82,4.54-4.87Zm-23.05,0L287,395.22h-.65q2.28-3.72,4.55-7.46l18.83,7.14Zm18.18,7.47.33.65-4.23,6.17L300,407.56l4.87-6.49ZM318.52,415l-4.23,7.79-19.8-6.49,4.87-8.12Zm-24.68.32c-1.66,1.43-15.07-1-18.5-1.29l5.19-8.12,18.18,1.95Zm-15.58-7.46a36.46,36.46,0,0,1-17.86,14.28l5.2-7.47,13.31-8.11C278.69,407,278.47,407.45,278.26,407.89ZM272.41,416l-1.62,2.6c-4.19,5.41-10.85,8.49-16.88,12C258.76,423.53,265.78,421.25,272.41,416Zm-6.49,8.44q-1.62,2.61-3.25,5.2c-3.27,4.56-11.29,7.22-16.23,10.06C251.59,432.19,258.87,430,265.92,424.44Zm-6.82,9.09a2.92,2.92,0,0,1,.3,2.06l1.65-2.7,20.13,3.89v.33L276,444.9c-3.57,1.57-16.47-.24-20.46-1.95h-.65c.81-1.32,1.62-2.65,2.44-4-4.73,4.91-15.81,10-19,11.76l6.17-9.09Zm-6.17,10.72q-2.76,6.33-5.51,12.66l-16.56,6.82L237.35,452Zm-6.81,14c.91,1.31-1,4.11-1.63,5.84q-1.45,4.54-2.92,9.09L223.72,480q3.24-7.47,6.49-14.93ZM224,480.61l16.56-6.17q-2.44,9.09-4.87,18.18l-22.08-3.24Zm11,12.66-9.42,8.12-24.35-5.52v-.33l11-5.51Zm-11,9.09-11.69,5.52H189.63L200,496.52Zm-12.34,6.5-8.11,17.85-20.78,5.2q3.08-11.53,6.17-23Zm1,0,24,3.89c-6.27,8.45-18.37,12.89-32.14,13.64Q208.63,517.62,212.68,508.86ZM250,523.14q-2.92,11-5.84,22.08l-22.4,3.57q2.43-12.82,4.87-25.65Zm1.3,0,24.35,2.27-7.47,16.89-23.05,2.59Q248.23,534,251.31,523.14Zm25.32,2.6,23.7,1-7.14,14-23.7,1.3Zm24.68,1h23.37V527q-3.24,6.65-6.49,13.31l-24,.32Zm24.67,0h23.38L343.51,540l-24,.33Q322.73,533.52,326,526.71Zm24.35,0,23.7,1-5.19,11-24,1.3Zm24.68,1,23.05,2.92h.65l-4.55,7.14-24,1C371.76,535.05,373.38,531.36,375,527.69Zm24.67,2.92,24,4.87L420.46,542l-25.32-4.22ZM401,530l-.33-.65,3.9-6.49,21.1-4.55h1l-2.28,15.58-.32.33Zm3.89-8.12,1.95-21.75,20.46-4.55h1l-1.62,21.76Zm1.95-22.72,1.95-20.46,21.75,4.55q-1.12,5.67-2.27,11.36Zm24.68-15.59,21.42,6.5-1.62,2.59c-2.63,2.39-17.48.85-22.08,1.95Zm22.4,6.5L475,492.3l.33.32c-.33,2.71-.65,5.41-1,8.12l-22.07-7.14Zm.65-1q.65-6.17,1.3-12.34L476,470.22q-.33,10.71-.65,21.43Zm21.75,3.25,19.8-7.14c1.62,1,1.08,17.43,1,21.1l-21.43-4.87C475.87,498.36,476.08,495.33,476.3,492.3Zm20.78-8.12-20.78,7.14q.33-10.71.65-21.42l20.45-1.63Q497.24,476.24,497.08,484.18Zm.65,32.47,21.75,5.19c1.31,1.41.83,6,1.3,8.12l-23.38-7.79Zm22.72-37.34,21.11,7.47c.43,1.19.86,2.38,1.3,3.57l-22.08,7.79Zm22.08,12.34q.65,10.88,1.3,21.75l-22.73,7.47q-.17-10.87-.32-21.75Zm0-4.55L563,493l1.95,3.89-20.45-6.17C543.31,490,542.89,488.56,542.53,487.1ZM564,493.27l18.5-1.3h2.28q1.29,4.71,2.59,9.42v.32l-20.77-4.54ZM588,503l2.28,4.22.64.65v.33l-22.07-1.63c-.76-2.7-1.52-5.41-2.27-8.11Zm3.57,6.17,2.28,17.53-23.38,4.55h-.32q-.66-11.68-1.3-23.38Zm1,0L614,512.1c2.55,1.31,3.86,8.57,4.87,11.37v.32l-23.7,2.6Q593.83,517.78,592.53,509.18Zm26.62,15.58,1.62,26.3-24,2.6-1.62-26.3Zm1-.32,23.7-1,2.28,26.29-24,1Zm24.68-.65v-.32h23.7q1.46,13,2.92,26l-24,.32Q646.1,536.79,644.8,523.79Zm24.67-.32h23.7q1.62,12.66,3.25,25.32v.32l-24,.33Q670.94,536.45,669.47,523.47Zm24.68,0,23.7-1q1.93,12.82,3.89,25.65l-24.35,1Zm24.67-1,23.7.33,5.19,21.75v1L723,548.14Q720.93,535.32,718.82,522.49Zm24.67.33,22.41,3.24q4.22,8,8.44,15.91v.33L749,545.54Zm27-21.43,21.75-1q3.09,10.88,6.17,21.76l-22.08-1Q773.37,511.29,770.44,501.39Zm23-1.95L788.3,478h21.42l5.52,21.43Zm-13.31-24.35c7.49,1,17.15,1.33,23.7,1.62C798.24,479,783.8,477.19,780.18,475.09Zm-5.19-1-8.12-6.82,10.71-.33h8.77l8.12,7.15Zm-5.52-7.47H765.9q-2.28-8.92-4.55-17.86l19.48-1.3L786,466Zm11.36-19.8-19.8,1q-2.61-7.14-5.2-14.29l16.88-1.62h2.93l5.19,14.61Zm-6.17-15.91-19.15,1.95-5.85-10.72,17.86.65,5.84,6.82,1.3,1ZM749,421.2l-6.16-7.47,15.25-1H761l6.16,9.41Zm-6.81-8.44-5.85-5.85,15.91-2.59h2.27l5.85,7.79Zm-6.5-6.5c-2-1.94-3.89-3.89-5.84-5.84l15.58-2.6h1.95l6.17,5.2Zm-6.49-6.49-5.52-6.17,15.58-2.6h1.63l5.84,5.52Zm11-9.74L723.37,393l-5.2-5.84,16.56-2.92,2.6,2.92,2.92,2.6Zm-6.17-6.49-16.23,2.92q-2.45-2.59-4.87-5.2l14.93-2.92h1.62l3.25,3.9,1.3,1ZM712,380.62q-2.1-2.61-4.22-5.2l15.91-3.57,2.92,3.57,1.95,1.95Zm11.37-9.42-15.91,3.57q-2.12-3.07-4.22-6.17l14.93-3.89h1.3l3.9,6.17ZM703.24,368l-3.9-8.11L714,355.62h1l3.9,8.11Zm-1.3-.32V368l-15.26,1.63-3.57-5.2,14.61-4.22C699.94,361.06,701,365.47,701.94,367.63Zm-3.57-8.12-15.26,4.22q-1.47-4.86-2.92-9.74l14.28-4.54h1.3q1.31,4.86,2.6,9.74Zm-14-18.18c1.17.23,1,.13,1.62.65Zm.65-.65c-3.67-.07-4.91-1.08-7.8-1.62l-.32-.65,4.54-1h1.95c.33.75.65,1.51,1,2.27l.65.65Zm-16.24-4.87c-1.38-1.1-1.45-4.26-2-6.17l13.64-4.22q1.14,5.52,2.27,11C678.06,338.17,672.86,338.37,668.82,335.81Zm9.74-15.26,5.2.33A7.74,7.74,0,0,1,678.56,320.55Zm-5.84-1.94,10.39.32,1,1.3Zm9.41-.65h-12l-2-9.42,12,.65c.65,2.6,1.29,5.19,1.94,7.79Zm-12.66,0A65.41,65.41,0,0,1,656.16,316c-.32-1.95-.65-3.9-1-5.85l11.36-1.62C668.77,309.64,668.81,315.41,669.47,318Zm-14-1.63.65,2.92L650,317c-1.09-.7-1.22-1.56-1.3-3.24Zm-.32-1c-5.09-1.73-7.1-2.58-12.66-1l11-3.89c1.28.7,1.25,2.09,1.63,3.57Zm-8.12-1.62c1,.64.91,1.07,1.3,2.27v.32l-2.6-1-.65-.33ZM644.15,315c.11-.21.22-.43.32-.65h.65Zm4.54,2.28c.33,1.94.65,3.89,1,5.84L637,328.34h-1.3q-.66-5.19-1.3-10.38l8.12-2.93Zm-14,8.76v1.63c-4.75-1.15-7.58-3.82-13.63-3.9l-.33-.65,12.34-4.87C634.46,319.68,634.24,324,634.73,326.07Zm-9.74-1h.33c.11.32.21.65.32,1l-1.94-.65Zm-2.59.32-.65-1,2,.32v.33Zm-1-.32-1.62-.65C621,324.68,620.78,324.58,621.42,325.1Zm4.55,1.95c.43,1.4.86,2.81,1.3,4.22L614,334.51h-.33c-.43-3.57-.87-7.14-1.3-10.71Zm-29.22-6.17,9.09,1,.32,1.3C603.56,322.41,598.52,322.59,596.75,320.88Zm.32,2.92v.32h-13c-.33-1.08-.65-2.16-1-3.24l13.31,1.3C596.64,322.72,596.86,323.26,597.07,323.8Zm-12.66,11-12.34-1-.64-1c-.33-2.92-.65-5.84-1-8.77l13,.65C583.76,328.13,584.09,331.48,584.41,334.84Zm-13,9.09v1l-13.32-1c-.32-3.57-.65-7.14-1-10.72l13.31,1C570.78,337.44,571.1,340.68,571.43,343.93Zm-14.29-11.36c-.22-2.93-.43-5.85-.65-8.77v-.32l13.31.64c.22,3.14.43,6.28.65,9.42Zm-.65-9.74c-.32-.87-.65-1.74-1-2.6l13,.32,1,2.6Zm-.65.65c.22,3,.43,6.06.65,9.09H543.18c-.22-2.82-.43-5.63-.65-8.45Zm-13.31-.33-.65-3.9,13,1c.21.86.43,1.73.65,2.6Zm-1.3-5.19,10.39,1C549.74,319.76,542.68,319.09,541.23,318Zm.65,5.52-13.31,2.27c-.11-1.41-.22-2.82-.32-4.22v-2.92l13,.64C541.45,320.66,541.66,322.07,541.88,323.48Zm-.32.64h.32l.33,8.77-13.32,1.95q-.15-4.23-.32-8.44Zm-13,21.43-13-3.57h-.65v-2.27l12.67-3.9C528.83,337.13,528.59,343.36,528.57,345.55ZM515.26,378q.16,3.41.32,6.82L500,381.91v-6.16Zm-28.57-48.38v-1.3c3.21,1,12.06,3.83,13.31,6.82Zm-.33-2.27-13.31-4.87.33-2.27,13,5.19.33.65Zm-.65.33.33.64v1l-13.64,1.3.33-7.47Zm-13.31-5.52-13,4.87c.21-2.38.43-4.77.65-7.15h12.66Zm-13.63-8.12c1.18.31.66,0,1.3.65Zm-.65,6.17h1q-.31,3.74-.65,7.47l-12.33,3.57q.15-3.9.32-7.79Zm-12.34,2.6-12.66,1.62c.32-2.81.65-5.63,1-8.44l12.34-1.63C446.21,317.2,446,320,445.78,322.83Zm-13.31,1.62-12.66.65c.32-2.92.65-5.85,1-8.77l12.66-.32C433.12,318.82,432.8,321.64,432.47,324.45Zm-12.34-9.74c-2,1.85-9.4.43-12.66.32.44-2,.87-4.11,1.3-6.16h12.66Q420.79,311.78,420.13,314.71Zm-24-6.17,1.3-2,12.33.33C407.48,309.46,399.94,307.65,396.11,308.54Zm-.33-1c-2.06,1.89-9.48.43-12.66.32l1.63-2.27,12.33.65Zm-12-1.63-.32.65c-2.82,1.91-8.88,1.76-13.64,1.63l1.95-3.9,11.69,1,.32.33Zm-13-1.3-1.63,3.58-12.33,2.27c3.4-7.94,1.72-3.45,9.41-6.17h4.55Zm-14.61,5.52-11.69,3.25,1.95-5.52c1.71-2.35,8.17-1.77,11-2.92C358.23,305.93,357.12,308.87,356.18,310.16Zm-24,7.15,2-6.82,11.36-3.25C347.13,314.16,337.06,315.62,332.15,317.31Zm-12.66,0V317l3.57-2.92,9.42-3.25,1,.33C330.55,319.22,329.94,317.63,319.49,317.31Zm11.36,1q-1.12,2-2.27,3.9c-1.54,1.08-9.95-2.58-12-3.9Zm-5.84,3.9c-2.62.74-10.76-2.63-13-4.22Zm-4.22-.33a133.25,133.25,0,0,1-14,4.87q1.29-4.38,2.6-8.76Zm-2.92,1.3c1.42,1.78-.94,7.57-1.3,10.39l-12.34,4.22q1.14-5,2.27-10.06Zm-1.95,11L314,343.93v.65l-13.64-1.3C304.07,337.37,309.88,337.78,315.92,334.19Zm-2.6,11v.32l-2.92,2.27-14.29-3.24v-.33l2.28-.32Zm-4.87,3.24c-5.06,3.26-11.94-1.31-18.18-1.94l3.25-1.63Zm-4.87,1.95c-3,3.28-12.84,3.47-18.5,1h-.65c1.29-1.52,2.59-3,3.89-4.55ZM298.71,354c-4.11,4.1-11.22,5.61-18.83,6.17l3.9-8.11Zm-6.49,4.87h1c-3.86,5.34-10.95,7.52-17.53,10.07l3.57-7.47Zm14.28,11.69-4.22,5.52-16.23-3.9h-.65l3.9-7.79Zm13.31,13.31-3.89,5.2-18.18-6.82c1.51-1.73,3-3.46,4.54-5.2Zm-4.87,5.85-4.22,4.54-18.83-7.14,4.87-4.55Zm-38.63,2.59,3.9-9.74h15.58C291.36,387.58,283.16,389.79,276.31,392.3ZM290,387.76c-.44.86-.87,1.73-1.3,2.59-3.93,6-10.58,9.83-17.21,13l4.22-9.74Zm-5.52,8.76a1.88,1.88,0,0,1,.39,1.23l.9-1.88,18.19,4.87v.33l-3.58,4.87c-3.94,2.47-13.05-.48-19.15-.65l2.1-4.35c-4,4.95-14.6,11.32-17,12.47q2.26-4.4,4.54-8.77Zm-14.61,8.77-4.55,8.77-18.18-2.28v-.32l6.17-5.52,12-1h4.55ZM263.65,415h.65l-4.55,7.14c-4.35,2.47-13.85-1.18-19.48-1.62q3.09-4.07,6.17-8.12Zm-6.17,9.09h.65l-6.49,7.79-18.19-1,6.17-9.74ZM251,432.56c-5.85,8.62-10.75,9.55-24.68,9.74l6.17-10.39Zm-8.12,9.09c.71,1-4.25,7.74-5.84,9.09-1.6,1.6-14.83,2.71-18.18,2.92l6.16-9.74C229.72,441.64,237.63,443.63,242.87,441.65Zm-7.79,10.71,1,.33-6.49,11.69H210.08l7.14-9.09Zm-24,37.34c-10.05,7.87-19.52,4.37-34.41,3.25v-.33c3.64-1.73,8-7.2,10.39-10.39Zm-12,6.49c-8.46,11.47-15.4,12.84-29.87,18.18q3.41-10.22,6.82-20.45Zm-12,13h1q-3.08,11.52-6.17,23.05l-20.12,5.2,7.14-22.08Zm-25,28.89,18.83-4.87c0,3.51-6.62,13.79-9.42,16.56-1.68,1.22-21.79-4.06-26.29-4.54v-.33Zm20.13-4.87,20.78-5.51-5.2,25.64-25.32-2.92Q177.3,541.81,182.16,533.2Zm22.08-5.84,20.12-3.89h1.3q-2.43,12.66-4.87,25.32l-22.07,4.54Zm16.88,22.4,22.72-3.57-5.19,25.65L212,568.59Zm23.7-3.57,21.43-2.92h1.62q-2.43,12.66-4.87,25.32l-23.38,3.57Q242.21,559.18,244.82,546.19Zm24-2.92,22.4-1.62h1.3Q290.27,554,288,566.32l-23.7,2.27H264Q266.42,555.93,268.84,543.27Zm25-1c2-1.76,9.23-.33,12-1h12q-2.12,12-4.22,24l-24.68,1Q291.4,554.3,293.84,542.3Zm25-1,24.35-.32-3.9,23c-1.56,1.4-21,1.34-24.67,1.3Q316.73,553.34,318.84,541.32Zm25.65.33c1.9-1.75,19.66-1.73,24-1.63l-3.24,23.38-24.68,1.3Zm25-1.95,24.35-1q-1.47,11.21-2.93,22.41l-24.67,2.27Zm25.32-1,24.67,4.22.33.65q-1.62,6.82-3.25,13.64l-24.67,3.57Q393.35,549.76,394.81,538.72Zm26,4.87,25,5.85c-.86,2.81-1.73,5.63-2.6,8.44l-25.64-1Zm1-1,2.92-7.14,16.56.32h6.81q-1,6.33-1.94,12.66Zm3.57-8.12c.59-21.83,7.47-17.53,23.7-22.72h.32q-.48,11.52-1,23.05Zm2.6-17.53h-.33l1.62-21.75,18.83-1H451q-.81,8.26-1.63,16.55Zm24-22.4L474,501.71c-.33,1.52-.65,3-1,4.55-.94,1.62-19.18,4.1-22.72,4.22ZM475,502l21.75,4.87v8.44L474,507.56C474.35,505.72,474.68,503.88,475,502Zm22.08,44.15,23.37-7.47c1.52,1,1.4,22.71,1.3,26.95l-25,6.17Zm24.35-8.44-24,7.47h-.32q.17-11,.32-22.08l23.38,7.79q.32,2.76.65,5.52Zm-.33-15.91,22.4-7.47q.5,9.92,1,19.81v3.25l-22.73-7.15Q521.43,526.07,521.1,521.84Zm22.73-30.19,21.75,6.49c.76,2.92,1.52,5.85,2.27,8.77l-22.72,6.17h-.33Q544.32,502.36,543.83,491.65Zm22.73,16.23h1.29q.66,11.85,1.3,23.7l-23.7,5.85q-.32-11.7-.65-23.38Zm1.62,24.68h1l2,17.85-23.7-6.17-1.62-5.84Zm2,0v-.33l24-4.54q.65,10.88,1.3,21.75v4.22l-23.05-2.92Q571.26,541.65,570.13,532.56Zm25.64,22.07,4.23,7.14-24.35-4.54-2.93-5.52Zm1.3.33L618.5,552h2.92q2.28,6.48,4.55,13l-24.35-2.92Zm25.33-3.25,18.5-1h5.52q2.6,7.95,5.2,15.9L626.94,565Q624.67,558.36,622.4,551.71Zm25.32-1,2.6-.33c24.5-.5,20.51-1.34,26.94,16.56v.32l-24.67-.65Q650.16,558.69,647.72,550.74Zm25,0v-.33l16.88-.32h7.14q3.09,8.92,6.17,17.85l-24.67-.65Zm25-.65,21.1-1h3.25q3.24,10.07,6.49,20.13l-24.35-1.3Zm25.65-1,24.34-2.59,5.52,24.35v1l-23.7-2.6Q726.46,559.17,723.37,549.11Zm26-1.62v-1L775,543.27l5.19,26.3-25.65,2.27ZM776,542.94l23.7-2.59h2q2.92,12.66,5.84,25.32v1l-26,2.93Zm26.62-2.59,25-2,7.47,25.65-26.3,2.27Q805.68,553.33,802.58,540.35Zm26.62-2,23.7-.33c3,2,7.61,19.31,9.42,23.7l-26.3,2Q832.62,551.06,829.2,538.4Zm25.65,0,23.38.65q5.84,10.23,11.69,20.45l-26.63,2.27Q859.08,550.09,854.85,538.4Zm14.61-.65c-8.49-.1-15.32-.85-21.1-2.91a21.43,21.43,0,0,1,3.25,2.59h-11c-7.53,0-13.26-.68-18-2.62a20.31,20.31,0,0,1,3.34,2.62h.65l-24.35,1.94L790.89,529c3.58,0,7.06.13,10.39.35-9-.71-19.27-4.48-22.72-7.16l20.45,1,11.36,5.52a23.65,23.65,0,0,1-8.1.75c6.24.47,11.92,1.46,16.63,3.46a23.72,23.72,0,0,1-3.66-2.91c11.32,2,20.11.13,27.8,2.41a30.3,30.3,0,0,1-3.12-2.09l22.08.33,14.28,7.14Zm-18.83-8.44c-12.39,0-19-1.46-26.3-6.17h21.43l13,5.84Zm-28.24-7.14-5.85-21.76,21.75.33q3.26,10.71,6.5,21.43Zm-6.17-22.73L810.7,478h21.43Q835,488.89,838,499.77Zm-14-24c7.52.28,16.22,1.15,23,1.29C820,478.87,805.92,477.32,802.26,475.42Zm-5.85-1-8.76-7.79,10.71-.32h8.77l8.76,8.11ZM786.67,466q-2.26-9.09-4.54-18.18v-.33l19.8-1q2.45,9.42,4.87,18.83Zm-4.87-19.15-5.52-14.94,18.84,1q3.24,6.33,6.49,12.66ZM776,430.94l-6.82-7.79,17.53,2.27,6.5,5.52.65,1Zm-7.79-8.77q-3.09-4.71-6.17-9.41l16.88,2.59,5.2,7.47,1.3,1.3Zm-13-18.18,16.88.65,5.52,9.09.65.65C765.67,413.63,760.68,412.09,755.18,404Zm-.32-.65L749,397.82l-.65-.32,16.89-2.92c2.37.87,5.07,6,5.84,8.44l.65.65Zm-7.15-6.49L742.52,391h-.65l16.88-3.24,6.17,5.84h.65ZM741.55,390,736,384.19l15.91-2.93h1l5.52,5.85Zm-6.17-6.49-5.2-5.52,16.24-3.25,5.84,5.85Zm10.71-9.42-16.23,3.25-3.9-4.55-1-1,14.61-3.57h1.62l3.25,4.22,1.62,1.3Zm-21.75-2.92-4.22-6.82,15.58-4.22c1.7,1.16,3.55,4.4,4.22,6.49l.65.65Zm-4.87-7.47-3.57-8.44,14.61-3.89c2.86,1.38,4,5.16,5.19,8.11Zm-6.82-18.18c2.56.61,4.94,1.24,6.17,3.25C716.42,348,713.56,347.93,712.65,345.55Zm-3.57-1,4.87-1.3c2.16.25,2.51,1.38,3.25,2.92A14.62,14.62,0,0,0,709.08,344.58Zm3.25,2.27-2.6-.65-.32-.65,1.62-.32A3.43,3.43,0,0,1,712.33,346.85Zm0,.65,2.59,6.82-15.58,4.87H699q-1.31-5.2-2.6-10.39l10.71-2.6Zm-18.18-3.25c-.44-1-.87-1.94-1.3-2.92l6.82,2.27c.1.65.21,1.3.32,1.95ZM686,340.68c-.76-1.19-1.52-2.38-2.27-3.57l13-2.92c2,.94,2.38,5.95,2.6,8.44C695,341.41,691.71,340.2,686,340.68Zm-2.27-4.22-2.28-11,12.67-2.27c2.49.9,2.88,7.74,3.57,10.39Zm-.65-18.18-2-8.77,11.36,2.28,2.28,7.79Zm-2.27-9.74-2-7.14L689.6,304c1.36,1.21,2.31,5,2.6,7.14Zm-.65,0-12-.65c-.65-2.6-1.3-5.19-1.94-7.79l11.68,1Zm-12.67-.65-12.66,1.62-1.62-8.11,12.34-1.3C666.23,302.7,666.87,305.29,667.52,307.89Zm-13.31,1.95-12.66,3.9-1.62-9.1,12-3.24C653.43,302.68,654.07,307.42,654.21,309.84Zm-13.31,3.57c-3.81-2-8-5.16-13.31-3.57l-.65-.65L639,305Zm-13-2.92,1.62-.33h1.3v.33c-.76.43-1.52.86-2.27,1.3v-.65Zm1.62,1.3,2-1.3,1,1.95-2.92-.33Zm-1.95-.65-1.62-.65C627.14,310.72,627,310.62,627.59,311.14Zm4.87,1.95c.33,1.51.65,3,1,4.54l-13,4.87q-.65-5.69-1.3-11.36l3.25-.33Zm-13,9.41c-4.28.61-9.05.2-12.33-1.3-1.14-1.1-1.2-4.11-1.63-5.84l12.34-3.9C619.43,313.09,619.41,319.73,619.47,322.5Zm-13.63-1.3-12.66-1.3-1-1.94,12.34-2.6C605,317.31,605.41,319.25,605.84,321.2Zm-13.31-1.3-9.74-.32,7.14-1.3h2Zm-1-2.27-12.33,1.62h-.33q-.32-4.69-.65-9.41l12-2.6,1.29,10.07Zm-8.11,6.49-13.31-1-1-2.6,2.92-.32C577.59,320.15,581.91,319.79,583.44,324.12Zm-17.53-4.87q-.33-3.72-.65-7.46l12.33-2q.33,4.71.65,9.41Zm-.65-8.11c-.33-2.38-.65-4.76-1-7.14l12-2.93c.33,2.71.65,5.41,1,8.12Zm-.65,1c.21,2.06.43,4.11.65,6.17v1l-12-1c-.32-1.41-.65-2.81-1-4.22l11-1.95Zm-12.34,1-.65-6.5,12-2.59q.33,3.72.65,7.46Zm0,4.87L539.61,316l11-1.95C552,314.75,552.14,316.14,552.27,318Zm-.65-4.55L539.28,315c-.1-2-.21-4.11-.32-6.16l11.36-2.28c1.15,1.2.89,4.64,1.3,6.5Zm-10.71,5.2L528.25,318l-.33-2.93C531.43,315.39,538.93,316.37,540.91,318.61Zm-14-6.17c-.22-.33-.44-.65-.65-1l12-2.27q.16,2.93.32,5.84Zm1,13.63-13.31,4.22v-7.14l12-4.22h1Q527.75,322.5,527.92,326.07Zm-1-12.33-12.34,1h-.32v-5.2Zm0,1c.1.32.21.65.32,1v2.6l-12.66,4.22q-.17-3.57-.32-7.14Zm-12.34,16.23,12.66-4.22c1.11,1.18,1,6.46,1,8.44l-13.64,3.9Zm.32,26.95-14.61,4.22V351.72L514,347.18C515.38,347.93,515,354.7,514.93,357.89ZM500,333.21l-13-5.51.33-1.95,13,3.24C500.22,330.4,500.11,331.81,500,333.21Zm-13-10.06L477,318.93h-.65l11-1.3ZM475.33,318c-.37-8.88,6.35-8.68,12.33-10.72-.11,3.14-.21,6.28-.32,9.42ZM487,323.8v1l-13.31-5.19.33-.65ZM474.35,318,465.59,315l8.11-2.92C475.36,313.08,474.61,316,474.35,318Zm-1,.65v.32l-.65.32H460.07c.11-1.19.21-2.38.32-3.57A41.94,41.94,0,0,1,473.38,318.61Zm-11-4.55-12-2.92c1.87-3.71,8.43-3.86,12-5.85ZM450,310.49a14.89,14.89,0,0,1-7.46-1h7.79Zm-2.92,1.3.33.65c-2,2.77-9.58,2-13.32,2.92q.66-2.92,1.3-5.85Zm-13.64,3.57H420.78q.66-3.25,1.3-6.49l9.09.64h3.25C434.09,311.46,433.77,313.41,433.44,315.36Zm-23.7-7.14c.22-.33.44-.65.65-1l11.69.65Zm-11.36-2.6,1.62-3.25L412,304l-1.3,1.62C408.89,307.3,401.24,305.89,398.38,305.62Zm.65-2.92-1.3,2.92L385.4,305l1.62-3.9,12,1.3Zm-14.28,1.94-12.67-1L374,300.1l12.34,1Zm-11.37-4.54-1.3,2.6c-2.81,1.41-8.61,1.39-12.66,1.3l1.95-3.9,9.42-.33h2.59ZM358.77,304l-11.36,2.27h-.32q1-2.44,1.94-4.87l10.07-1.3h1.62Zm-12.66,2.59-11.36,2.92,1.95-5.84,10.06-1.95h1.62Q347.26,304.17,346.11,306.59Zm-12.34,3.25-11,3.57c.65-2.27,1.29-4.54,1.94-6.82l11-2.92Zm-11.68,3.9-12-1.3c3-3.88,9.12-3.41,13.64-5.85Zm-12.66-1.63-8.12-2.6,10.39.33Zm12,2.27-2.6,2.93-12-4.55Zm-4.87,3.25c-5.53-1.08-11-2.32-15.26-4.87A29.63,29.63,0,0,1,316.57,317.63Zm-5.52-.32c-4.69-.43-9.83,2.85-14,4.54q1.29-4.38,2.6-8.76Zm-3.25,1c.91,1.13-.65,6.48-1.62,8.12-1.65,2.69-8.91,4.37-12,5.52q1.45-4.71,2.92-9.42ZM305.53,328l-1.95,9.74-13,.65C294.07,331.37,299.38,332.2,305.53,328Zm-7.79,10.71h5.19l-2.6,3.58c-3.71,1.51-9.41-1.88-14-2.28C289.23,338.66,294.4,340,297.74,338.73Zm-.33,4.55c-5.07,2.24-11.9-1.51-17.2-1.95l3.89-1.3Zm-5.19,1c-3.48,3.06-12.3.9-17.86.65l3.9-3.24Zm-4.55,2.28c-3.54,5.1-10.29,6.85-18.18,7.46l3.9-8.44Zm-5.84,5.84h1l-3.57,8.12-14,2.92,3.57-8.12Zm-4.55,9.09h1.3L275,368.93l-14.28,4.22q1.93-4.38,3.89-8.77Zm11,2.92c-.21.54-.43,1.08-.65,1.63-3.41,7.2-9.38,9.06-16.55,12.33C274.68,367,280.32,370.11,288.32,364.38Zm-5.19,9.09a2.47,2.47,0,0,1,.48,1.92l1.14-2.57,16.88,3.9c-4.21,5.72-10.28,5.07-20.77,4.87.57-1.3,1.15-2.6,1.73-3.91-3.28,4.68-13.31,10.12-16.34,11.05q1.94-4.38,3.89-8.76Zm-4.55,9.74c.66.84-.15,1.33-.65,2.6-3.29,8.31-8.75,10.46-16.55,14C267.3,386.53,268.65,390.72,278.58,383.21Zm-4.22,10.72-3.57,9.74L254.88,405v-.32Zm-20.45,10.39c-2.4,1.23-15.27-5.37-19.48-6.17l6.49-3.57,18.83,5.84Zm-1.3,1-6.49,6.17-19.48-7.79-.65-.33,7.14-4.87Zm-7.14,7.14q-3.25,3.9-6.5,7.79l-20.45-8.44-.32-.65,6.81-6.81C229.51,405,242.47,409.85,245.47,412.43Zm-6.82,8.44q-3.09,4.88-6.17,9.74l-21.75-9.09c.17-3,4.81-6.49,6.49-9.41Zm-6.82,10.39L225.66,442l-23.37-9.74,7.46-10.39Zm-7.14,12L217.87,453c-1.46,1-19.77-8-23.7-9.09l7.47-11Zm-7.47,11-8.11,9.74L184.76,455l8.76-10.71Zm-9.09,10.39V465q-4.71,4.22-9.41,8.44l-24-8.77-.65-.32,10.07-9.09Zm-10.39,9.09v.65l-10.39,6.82-21.75-.33q3.9-7.79,7.79-15.58Zm-11.69,8.44c-8,7.94-15.73,14.21-28.57,17.54L165,481.91Zm-11.36,11.69q-3.24,10.4-6.49,20.78l-18.83,6.17,7.47-19.81Zm-7.14,21.75-6.82,21.76-25.32-5.2-.33-.65,14.29-9.74Zm-8.12,22.4-15.26,6.5L117.55,540l-.65-.32,15.91-6.82Zm-17.53,7.47c-8.39,9.05-21.91,14-38,15.26q5.67-10.06,11.36-20.13Zm-14,11,15.26-10.71c5.4.59,22.8,2.9,26.3,5.52l-15.91,6.49-25.65-1Zm27.27,1.3,16.23-6.49L196.77,554c-12.54,13.45-22.65,7-41.56,4.22Zm44.16-3.9,19.8-3.89h1l-9.09,18.18-26.94-4.55Zm12,15.26L238,572.81,225.66,584.5l-28.57-4.87v-.32ZM240,572.81l20.13-2.92h2.27l-7.79,18.83c-4,.81-22.87-2.16-26.95-3.89H227Zm23.37-2.27c2.14-2.86,17.07-1.33,21.43-2.92h2.92q-2.91,11.68-5.84,23.37l-26.3-1.62Q259.43,580,263.32,570.54Zm25.33-2.92,23.37-1.3h1.3v.32l-5.52,22.41-25,1.94Zm25.64-1.3,20.13-.65h4.87q-2.43,10.88-4.87,21.75l-25.64,1.63Q311.54,577.68,314.29,566.32Zm26-.65,24-1.3c1.28,1.79-3,18.24-3.57,22.08l-23.7,1.3H335.4Q337.83,576.71,340.27,565.67Zm25.65-1.3,24.67-2.27q-1.62,11.21-3.25,22.4l-25,2H362Zm25.64-2.27,24.68-3.9q-1.14,11.53-2.27,23l-25.65,2.93Zm26-4.22,25.32,1q-1.14,8.92-2.27,17.86l-24,4.22h-1.62Q416.23,569.41,417.54,557.88Zm26.29,1.3,25.33,6.17q-.66,5.83-1.3,11.68l-26.3-.32Q442.7,568,443.83,559.18Zm.33-1q1.29-4.22,2.6-8.44L471.11,554q-.66,5.35-1.3,10.72Zm2.92-9.41,1.95-13,23.05-7.46q-.33,12.33-.65,24.67Zm2.6-14.29h-.33q.5-11.52,1-23.05l21.42-3.24c1.59,1,.43,15.47.33,19.15ZM473.05,528l21.76-4.87h1.29v22.4L472.73,553h-.33Q472.73,540.51,473.05,528Zm.33-1h-.33q.33-9.42.65-18.83L496.43,516v5.84Zm23.37,45.77,24.68-6.17q.48,11.7,1,23.38l-26-6.17Q496.6,578.33,496.75,572.81Zm25-41.55c8.8,3.35,21.25,3.65,24.68,12.66l-23.7-6.17C522.4,535.59,522.08,533.42,521.75,531.26Zm25,13.63,1.62,13.31v.33l-25.64,6.82-.33-26.63Zm1,.33,23.71,6.17q1.46,2.76,2.92,5.52v.32l-24.68,1.3Zm27.28,13q1,11.53,1.94,23l-26.62,5.52q-.48-13.63-1-27.27Zm1,0,24.67,4.87q2.11,6.82,4.22,13.64l-26.94,4.22Zm25.65,4.87,25,2.93,5.19,7.79.65.65-26.3,2.27Q603.9,569.89,601.62,563.07Zm26,2.93c13.82,3.45,25-3.06,30.84,9.41l.65.65-25-1.62Q630.84,570.21,627.59,566Zm25.65,1.62,18.18.65c10.24-.14,9.09,5.33,14.93,8.76L661,576.38Zm26,.65,24.35.65q3.26,3.41,6.49,6.82l2.93,2.92C694.36,577.63,688.07,580.23,679.21,568.27Zm26,.65,23.7,1.3,6.17,5.52,4.22,4.54-24.67-1.62Zm25.33,1.3,23.37,2.59,11,9.74.33.65C747.74,581.65,738.83,581.27,730.51,570.22Zm25,3.24-.33-.65,23.7-2.27h1.63l10.06,15.58.65.65-24-3.24Zm26.29-2.92,24-2.92h2.27q4.23,11.36,8.44,22.72l-23.7-3.24Zm27.28-2.92v-.33l25-2.27h1.3q4.23,12.18,8.44,24.35v.33l-26.29.64Q813.29,579,809.08,567.62Zm27.27-2.6,26-2.27,10.39,23.37-26.3,3.25h-1.62Q840.56,577.2,836.35,565Zm27.59-1.95,24-2.59h2.27l12.34,21.42L874,585.8Q869,574.45,863.94,563.07Zm48-13.31q3.09,3.25,6.17,6.5l-27.27,2.92-11-19.81L902.58,541Zm-47.72-19.15c16.3.25,27.2,2.4,36.36,9.41C884.76,537.94,874.34,538.25,864.27,530.61Zm18.5,0-19.8-1L848,523.14h-.64l15.58-.65A29.12,29.12,0,0,1,882.77,530.61Zm-14.61-9.09-22.4.65q-3.24-10.72-6.49-21.43l19.8-1h2.28ZM861,498.79l-22.08,1Q836,488.88,833.1,478l20.78,1Zm-34.09-22.73,17.21,1.3C840.77,478.65,829.91,477.44,826.93,476.06Zm9.74-1,.65.65-19.48-1L808.43,466l15.26-1h4.54Zm-8.76-11-20.13,1.3q-2.44-9.25-4.87-18.5v-.33l16.23-1.62H823Q825.47,454.47,827.91,464.05Zm-16.24-30.52h.65a12.59,12.59,0,0,1-3.1.57c3.46.71,6.34,1.9,7.32,4l5.85,5.84-19.48,1.63q-3.57-6.33-7.15-12.66c1.66.08,3.72.15,5.89.29-6-1.66-11.64-5.14-13.68-7.76C798,427.35,806.29,427.21,811.67,433.53Zm-8.44-6.81-16.88-2.28-6.17-8.76C791.77,417.15,798.52,418.5,803.23,426.72Zm-7.47-9.42-16.55-2.6L773.36,405l16.24,2.6ZM788,405.61l.65,1L772.71,404l-5.52-9.41,15.91,2.59Zm-6.49-10.39.65,1c-9.87-1.35-16.74-2.41-21.75-8.44h16.55Q779.21,391.5,781.48,395.22Zm-5.84-9.41c.1.32.21.65.32,1l-16.23.33-5.85-6.17L768.17,379h2.27Q773,382.4,775.64,385.81Zm-7.15-9.09c.44.43.87.86,1.3,1.3l-16.56,2.27-5.52-5.52,15.59-3.25C765.5,372.08,767.67,374.81,768.49,376.72Zm-5.19-6.82c.11.33.22.65.32,1l-16.55,3.24-4.55-5.19c-.11-.33-.22-.65-.32-1l15.9-3.89Zm-6.49-7.47,1,1.3-16.56,3.57q-2.1-3.57-4.22-7.14l10.71-1C753.28,359.12,753.54,360.85,756.81,362.43Zm-6.17-3.89-14.29.65-3.24-6.82C738.2,353.73,747.14,355.19,750.64,358.54Zm-34.42-15.26V343l13.31-2.59c2,1.09,3.27,7.42,3.58,10.06C726.35,349.78,719.08,348,716.22,343.28Zm10.07-13c2.13,1.39,3,6.87,3.89,9.42l-14.61,2.6q-1.12-5.21-2.27-10.39Zm-11.37,11.37c-2.06,3.71-11.64,2.6-14.61,1.29q-1-4.54-1.94-9.09l13.31-1.94C713.73,333.32,714.17,339.08,714.92,341.66Zm-5.51-18.51c1,2.71,1.94,5.41,2.92,8.12l-14,1.94-2.28-10.06Zm7.46-3.25c-3.39,1.43-10.7,1.18-14.28.65l10.71-1.94Zm-18.18,0,9.09-2.27,3.9.33Zm9.09-3.24-11.36,2.92h-1q-1-3.74-1.94-7.47Zm-3.57-2.28-11-2.92c-.76-2.38-1.51-4.76-2.27-7.14l11,2.92C702.7,309.62,703.45,312,704.21,314.38Zm-5.52-14.28c1,2.16,1.95,4.33,2.92,6.49l-10.39-3.24c-1.66-1-2.47-4-3.24-5.85Zm-12-2.6c1.49.95,2.22,3.53,2.92,5.2V303l-11.36-2.6Q677.1,298,676,295.55Zm-14.29-1.95H675l2.6,4.87c-5.57-1.39-11.07.12-14-3.89Zm-9.74,1,2.28,2.6v.32l-12,1q-1-2.43-1.94-4.87Zm-12.66-1,2.28,4.87v.33l-12,3.25-2-6.5Zm-24.67,5.85,11.36-3.57c1.66.92,2,4.62,2.6,6.49l-12.34,4.22h-.32Q626,305,625.32,301.4Zm1.3,8.11a3.22,3.22,0,0,1-3.25,0Zm-4.22.33-1.63.65-2.27-.33-.32-1Zm-4.22,1-12.67,3.57q-.32-4.22-.65-8.44c3.7,1.75,7.26,3.38,12.67,3.25v.65Zm-1.63-2.92.33.65-1.63-.32.65-.33Zm-1-.65-2,1c-.22-.55-.43-1.09-.65-1.63Zm-4.22-1a2.77,2.77,0,0,1,1.62,2L604.54,305Zm-7.47-.65q.5,4.54,1,9.09l-12.66,2.6c-.32-3.25-.65-6.5-1-9.74l9.09-2.93ZM599,304l-7.47,2.27h-.32l-1.3-5.2Zm-8.44,2.59-12.34,2.6c-.32-2.71-.65-5.41-1-8.12h12C589.71,302.91,590.15,304.75,590.58,306.59Zm-3.25-6.82-10.06.65c-.33-1.4-.65-2.81-1-4.22Zm-23.7-1.94,9.74-1.63h2c.33,1.3.65,2.6,1,3.9v.32l-12,2.93c-.21-1.74-.43-3.47-.65-5.2ZM551,300.42l11.36-2.59c.95,1,1.08,4,1.3,5.52l-12,2.27c-.22-1.3-.43-2.6-.65-3.9Zm-2,.33h1.3c.22,1.73.44,3.46.65,5.19l-12,2.28c-.22-1.74-.43-3.47-.65-5.2ZM526,305l11-2c1.09,1,.93,3.49,1.3,5.2l-12,2.59-.33-4.22Zm-4.87,5.52c1.83.24,3.8.61,4.87,1.62ZM525,305c.22,1.95.43,3.9.65,5.84-3-1-10.74-1.13-12-3.89Zm-12,1.95c-.71,1.16-3.75.36-5.2-.65Zm-12-1.3,11.37,2.92L501,311.14Zm0,6.49,11.37-2.6h1.3c.3,8.05-7.49,8.52-12.67,10.72Zm0,8.77,12-5.2c1.07,1.13.76,5,.65,7.15L501,328.34Zm12.67,2.6c.1.86.21,1.73.32,2.59v4.55l-12.66,2.92L501,329Zm-.65,7.79c1.55.94,1.13,5.32,1,7.79l-13-3.25-.32-.65C503.38,332.55,509.39,333,513,331.27Zm1,8.44.33,2.27-13.64-5.52Zm-13.31-2.27,8.77,3.24-8.77-1Zm13.64,5.19c.1.22.21.43.32.65v3.25l-14.29,4.54.33-10.71Zm-26-39.61,8.12,2-8.12,1.3Zm0,3.9L499,305c1.68,1.07,1.48,3.67,1.29,6.49L488,316.66C488.1,313.41,488.2,310.16,488.31,306.92ZM488,317.31l11.36-4.87h1v8.11L488,323.15Zm11.36,3.89h1v7.14L488,325.1h-.65C489.48,322.32,496.05,322.77,499.35,321.2ZM476,300.75l11.68,1.95v3.89L476,310.81Zm-12-5.2,11.69,3.9c-2.21,2.39-8.95,4-12.34,4.87Q463.64,299.94,464,295.55Zm10.39,5.52c1.37,1.47.76,7.39.65,10.07-3.93,1.12-8,3.6-12,3.24q.17-4.69.32-9.41Zm-11.69-5.52c1,1,.09,6.73,0,9.09L451,308.54q.31-4.38.65-8.77ZM451,300.42c-.22,2.82-.44,5.63-.65,8.45l-11.69.32c.32-1.41.65-2.81,1-4.22Zm-24,4.22,12,.65c-.32,1-.65,1.95-1,2.93v.65l-12-2.93C426.3,305.51,426.63,305.08,427,304.64Zm4.22,3.25-6.82-.32v-.33l1-.65Zm-6.49-1.62c-2.15,1.93-9.9.53-13.31,0l1-1.95Zm-11-5.52-1.3,2.6-12-1.63c.43-1.3.87-2.59,1.3-3.89Zm-13.31-2.92H401l-1.3,3.57-12.34-1c.54-1.4,1.09-2.81,1.63-4.22Zm-12-1.95v.32c-.54,1.19-1.08,2.38-1.63,3.57-.85,1.34-9.77-.33-12-.64l1.62-3.9ZM375,295.23c.72,1-.37,2.28-1,3.9H362l2-3.25Zm-12,.65-1.62,3.25L350,300.75h-.33l1.95-4.22Zm-12.33.65-2,4.22-11.36,1.95c.65-1.73,1.29-3.47,1.94-5.2Zm-13,1h1c-.64,1.52-1.29,3-1.94,4.55-1.49,2.24-8.71,3-11.69,3.57.76-2.27,1.51-4.55,2.27-6.82ZM326,298.8c1,.68-1.18,5.47-1.62,7.14l-11,2.93C315.71,297.42,317,302.48,326,298.8Zm-22.72,4.87,10.06-2.6,1.3.33-1.95,7.79L301,308.87Zm2.59,8.12c-2.71.8-10.4-1.87-13-3.25C298.39,308.71,301.18,311,305.85,311.79Zm-15.58-2.92,11.36,2.92L288.32,317H288C288.75,314.28,289.51,311.57,290.27,308.87Zm-2.6,9.09,10.39-4.55c1.2,1.63-1.11,6.29-1.62,8.77l-11.69,4.54Zm7.79,5.19c.9.35-1.16,7.16-1.94,8.44-1.78,1.7-9.41,1.86-12.34,2C284.64,326.47,289,327,295.46,323.15Zm-18.83,12,15.26-2.27h1.3l-2.92,4.87c-3.19,1.2-9.37-1.8-13.64-2.27Zm-2.59.65,13.31,2.6v.32c-5.45,1.07-10.76-1.2-16.56-1.62ZM265,339.06l4.22-1.62,13,2.59c-5.71.69-11.25-.35-17.2-.65Zm-1.63,1,13.31,1.63.65.32-4.22,2.92-14,1Zm-4.87,6.5,13.31-1c1.22,1-2.34,6.78-2.92,8.77l-14.61.65Q256.34,350.74,258.45,346.53Zm-4.54,9.09,12-.65h2.6q-2.11,4.38-4.22,8.76l-14.61.65Q251.79,360,253.91,355.62Zm-8.77,19.15,4.22-9.41,12.34-1H264C259.19,374.88,258.5,373.32,245.14,374.77Zm14.94-.65,12.66-3.57H274q-2.12,4.21-4.22,8.44l-13.64,4.22Zm8.76,5.85c.64.81-.35,1.93-1,3.24C264,391.51,261.23,390,250,390,254.71,383.66,261.7,384,268.84,380ZM264,390h1q-2.28,5-4.55,10.06l-17.53-5.84C247,388.64,256.59,392.68,264,390Zm-39.61-.32,6.17-1.95,16.89,2.59v.33c-7,4.6-14.15.37-23.06-.65Zm-8.76,4.54,7.14-3.9L240,393.93c-5.89,5.87-15.6,1.64-24.35.65Zm-1,1,17.54,2.93c-4.59,5-14.5,7.7-23,8.44Q211.86,400.91,214.62,395.22Zm-6.49,13,15.26-3.89c.45,3.58-15.68,11.78-20.78,13.31ZM202,418.92l13.31-6.16c1,.38-1,1.85-1.62,2.59-5.07,6-10.82,8.9-18.5,12.34Zm-8.11,10.39,14.28-7.14-3.57,5.2c-4.18,6.13-11,7.3-18.18,10.39Zm6.49,3.9-3.9,5.52c-5.26,6.76-10.6,6.27-19.48,9.09C184,438.33,190.25,439.08,200.34,433.21Zm-25,15.91,16.23-4.55c.34.93-1.42,2.29-2.59,3.57-6.65,7.28-10.29,8.45-21.76,10.72Zm-9.41,11,16.23-4.55c-2.32,6.5-17.71,12.89-25,16.23Q161.54,466,165.93,460.16Zm-10.07,13.31,16.23-7.79-3.57,7.14c-5.32,10.25-9.86,10.73-20.78,14.93Q151.8,480.61,155.86,473.47Zm-9.09,15.58,16.88-6.82q-3.74,9.09-7.46,18.18l-17.86,5.85Q142.54,497.65,146.77,489.05ZM138,507.23l17.54-5.84-7.15,19.15c-1.67,1.26-19.65-2.18-23.7-2.59ZM107.81,527l15.26-8.12,24.35,2.92v.33l-13.64,9.41-26-4.22ZM90,537.43,106.19,528l25.65,4.22v.33l-16.56,7.14-25.32-2Zm-1.63,1.29L114,540.67q-5.69,10.23-11.36,20.46l-23.7,2.27ZM78.27,565.35c2.2-2.94,18.48-1.57,23-3.25,1.12,1.61-7.31,21.83-8.12,26.3L68.2,590Q73.24,577.69,78.27,565.35Zm-28.9,42.53L67.55,591l22.73-1.29h2L76.32,608.85Zm57.47,3.89-29.22-2.92,16.56-19.48L115,586.45h2Zm10.71-26.62L94.18,588.4l8.76-26.3,22.4-4.22Zm1-.32q4.05-13.49,8.11-27l25.65,1v.33l-11,20.78Zm36.68,15.58-23.05,6.49,9.42-25.65,22.72-6.16Zm9.74-26.3-22.4,5.52,11-20.78,27.59,5.2v.32Zm2,.33v-.65l15.58-9.42,27.6,4.55-14,10.39Zm14.61,20.77,14.28-14.6,28.9,4.87L212,601.06Zm31.82,6.17,12.33-15.58L253.58,590q-5.19,8.28-10.39,16.56Zm30.84,5.52,10.39-16.56L281.18,592v.32l-8.44,18.18C272.2,611.14,247.9,607.41,244.17,606.9ZM274,611.12q4.05-9.4,8.11-18.83L306.83,590c1,1.45-5.48,16.67-6.17,20.45Zm27.59-.32q3.42-10.39,6.82-20.78l23.7-1.3h1.62q-3.07,10.06-6.16,20.13Zm28.9-1.95H328.9q3.09-10.07,6.17-20.13l23.38-1.3h1.95q-2.59,10.07-5.2,20.13Zm30.52-1.62H356.5q2.6-9.9,5.2-19.81l23.7-1.94H387q-2.11,10.21-4.22,20.45Zm26.62-1.63H384.1q2.1-10.07,4.22-20.12l25-3.25q-1.47,10.71-2.93,21.43Zm26-2.27h-1.95q1.47-10.55,2.92-21.1l25.33-4.55q-.81,11.21-1.63,22.4Zm52.6-7.79-26.95,4.54q1.14-11.19,2.27-22.4l26.3.33Zm28.57,3.9-27.28-3.9q.66-8.76,1.3-17.53l26,6.49h.64Q495.14,592,494.81,599.44Zm.64-15.91L469.81,577c-1.39-1.63.4-8.51,1-11l24.35,6.81h.65ZM470.78,565l1.62-11,22.41-7.14h1.29q-.15,12.49-.32,25Zm52.27,40.26-26.95-5.52.33-14.93,26,6.16q.33,5.68.65,11.37Zm25.32-45.78q.5,13.63,1,27.27l-26,3.25-.33-23.7Zm2.28,51.3-26.3-5.2q-.5-7.3-1-14.61l26-2.92q.64,9.73,1.3,19.48Zm28.24-1.95L552,611.12q-.83-11.68-1.63-23.37l26.3-5.52q1.14,12.82,2.27,25.65Zm28.57-4.22-27.59,3.9q-.81-13.15-1.63-26.3l26.3-4.55h.32q1.3,12.51,2.6,25Zm1.3-.32q-1.29-13.32-2.6-26.63l27-2.27q1.62,13,3.25,26Zm56.49-5.52-24.35,2.27h-3.24q-1.78-12.82-3.58-25.65l26,2,5.19,21.1Zm1.3,0L661,577.36l26.3,1.3,7.14,18.5Zm28.89-1.95-7.14-18.18,26,1L723,594.57l.65.64Zm29.22-1.63L715.57,580l25,1.62,10.07,13.63,1,1Zm28.9,1c-4-1.51-9.14-10.68-11.36-14.29l24.67,2.6,10.71,14,.65.65Zm26.3,3.25-11.69-14.61,23.7,2.92,12.34,14c.1.32.21.65.32,1Zm13.63-11.37,23.7,3.25,12.34,14.28,1,1C807.89,603.6,804.48,603.09,793.49,588.07Zm62.66,23c-21.8-3-27.18-5.21-37.66-19.8l17.86-.65h8.11q5.85,10.07,11.69,20.13ZM886,608.53l-28.25,2.59-12.33-20.78,26-3.24h2.27L886,608.2Zm1.3-.33-12.66-21.43,27.27-3.89h1l15.26,19.8Zm32.46-5.84-15.25-19.81,27.27-4.22h1.94l12.34,13,5.2,4.87v.32Z"/></svg>