<?xml version="1.0" encoding="UTF-8"?>
<svg id="Layer_2" data-name="Layer 2" xmlns="http://www.w3.org/2000/svg" viewBox="0 0 155.59 84">
  <g id="Layer_1-2" data-name="Layer 1">
    <g>
      <path d="M113.59,0c-5.68,0-11.2,1.14-16.36,3.33-5.21-2.19-10.68-3.33-16.28-3.33-6.74,0-13.45,1.67-19.46,4.83C55.47,1.67,48.76,0,42,0,18.84,0,0,18.84,0,42s18.84,42,42,42c6.76,0,13.49-1.67,19.5-4.83,5.99,3.16,12.71,4.83,19.44,4.83,5.6,0,11.05-1.12,16.26-3.33,5.19,2.21,10.7,3.33,16.38,3.33,23.16,0,42-18.84,42-42S136.75,0,113.59,0Zm-16.78,5.41l.41,.17,.41-.17c-.14,.06-.29,.12-.41,.19-.41-.19-.81-.35-1.2-.5,.27,.08,.52,.19,.79,.31Zm-35.8,1.49l.48,.27,.5-.27c.33-.17,.66-.31,.97-.48-.5,.25-.97,.5-1.47,.76-.25-.14-.5-.27-.74-.41,.08,.04,.19,.08,.27,.12Zm52.58,72.97c-5.56,0-10.93-1.18-15.93-3.53l-.43-.19-.45,.19c-5.04,2.33-10.37,3.53-15.83,3.53-6.61,0-13.16-1.78-18.92-5.12l-.52-.31-.52,.31c-5.78,3.35-12.35,5.12-18.99,5.12-20.89,0-37.87-16.98-37.87-37.87S21.11,4.13,42,4.13c6.63,0,13.2,1.78,18.97,5.12l.52,.31,.54-.31c5.76-3.35,12.31-5.12,18.92-5.12,5.47,0,10.81,1.2,15.85,3.53l.43,.21,.43-.21c5.02-2.33,10.37-3.53,15.93-3.53,20.87,0,37.87,16.98,37.87,37.87s-17,37.87-37.87,37.87Z"/>
      <path d="M90.78,9.75c-3.2-.99-6.51-1.49-9.83-1.49-8.28,0-15.91,3.02-21.78,8-7.31,6.2-11.96,15.43-11.96,25.74,0,9.48,4.11,18.59,11.14,24.94,.81,.76,1.67,1.47,2.56,2.13l.6,.45,.62-.45c.89-.66,1.76-1.36,2.56-2.13,7.04-6.34,11.03-15.29,11.03-24.94s3.62-18.82,10.08-25.74c1.59-1.71,3.37-3.26,5.29-4.69l1.65-1.22-1.96-.6Zm-7.75,6.51c-6.05,7.11-9.38,16.11-9.38,25.74s-4.42,18.9-12.15,24.94c-7.79-6.05-12.23-15.1-12.23-24.94,0-10.6,5.25-20,13.26-25.74,5.19-3.74,11.55-5.93,18.41-5.93,2.44,0,4.88,.29,7.25,.85-1.9,1.55-3.64,3.24-5.16,5.08Z"/>
      <path d="M52.52,66.94c-6.07-6.88-9.44-15.7-9.44-24.94s3.66-18.76,10.16-25.74c1.01-1.1,2.09-2.13,3.24-3.1l1.22-1.05-1.47-.68c-4.48-2.09-9.28-3.16-14.23-3.16-18.61,0-33.74,15.14-33.74,33.74s15.12,33.74,33.74,33.74c4.96,0,9.75-1.07,14.26-3.16l1.45-.68-1.22-1.03c-1.43-1.22-2.77-2.52-3.97-3.93Zm-10.52,6.74c-7.35,0-14.11-2.52-19.48-6.74-7.42-5.78-12.19-14.81-12.19-24.94s5.23-20,13.24-25.74c5.19-3.74,11.55-5.93,18.43-5.93,4.11,0,8.12,.79,11.9,2.33-1.22,1.14-2.38,2.33-3.41,3.59-6.09,7.15-9.48,16.24-9.48,25.74s3.14,17.91,8.82,24.94c1.24,1.57,2.6,3.04,4.09,4.4-3.8,1.55-7.81,2.33-11.92,2.33Z"/>
      <path d="M102.64,16.26c-1.51-1.28-3.14-2.44-4.88-3.45l-.52-.31-.52,.31c-1.76,1.01-3.39,2.17-4.9,3.45-7.5,6.32-11.98,15.76-11.98,25.74,0,9.26-3.35,18.1-9.38,24.94-1.2,1.38-2.52,2.69-3.95,3.9l-1.22,1.05,1.45,.66c4.52,2.11,9.3,3.18,14.19,3.18,8.72,0,16.69-3.33,22.68-8.8,6.78-6.18,11.03-15.06,11.03-24.94s-4.48-19.4-12.02-25.74Zm-2.23,50.68c-5.37,4.24-12.15,6.74-19.46,6.74-4.07,0-8.06-.79-11.86-2.33,1.49-1.36,2.85-2.83,4.09-4.4,5.62-7.02,8.74-15.78,8.74-24.94,0-10.41,4.9-19.81,13.26-25.74,.66-.48,1.34-.93,2.07-1.36,.7,.43,1.38,.89,2.05,1.36,8.28,5.93,13.31,15.54,13.31,25.74s-4.77,19.15-12.19,24.94Z"/>
      <path d="M113.59,8.26c-3.26,0-6.57,.52-9.85,1.53l-1.96,.6,1.65,1.22c1.9,1.4,3.64,2.95,5.21,4.65,6.53,6.94,10.16,16.03,10.16,25.74s-3.37,18.1-9.44,24.94c-1.76,2-3.74,3.82-5.95,5.45l-1.63,1.22,1.96,.6c3.26,1.01,6.59,1.53,9.85,1.53,8.72,0,16.69-3.33,22.68-8.8,6.8-6.18,11.05-15.06,11.05-24.94,0-18.59-15.14-33.74-33.74-33.74Zm19.46,58.67c-5.37,4.24-12.15,6.74-19.46,6.74-2.42,0-4.88-.31-7.31-.89,2.13-1.76,4.05-3.72,5.74-5.85,5.66-7.02,8.84-15.83,8.84-24.94s-3.45-18.59-9.5-25.74c-1.53-1.82-3.22-3.49-5.08-5.02,2.46-.6,4.9-.91,7.31-.91,6.86,0,13.22,2.19,18.41,5.93,8.02,5.74,13.26,15.14,13.26,25.74s-4.77,19.15-12.21,24.94Z"/>
    </g>
  </g>
</svg>