<?xml version="1.0" encoding="UTF-8"?>
<svg id="Layer_2" data-name="Layer 2" xmlns="http://www.w3.org/2000/svg" viewBox="0 0 77.89 77.89">
  <g id="Layer_1-2" data-name="Layer 1">
    <path d="M76.94,30.65h-.87c-.52,0-.95,.43-.95,.95v5c0,.52-.43,.95-.95,.95h-6.93c-.52,0-.95,.43-.95,.95v.09h-21.1c-.08-1.47-.66-2.8-1.58-3.82l15.58-15.58c.2,.12,.43,.2,.68,.2,.76,0,1.37-.62,1.37-1.37s-.62-1.37-1.37-1.37-1.37,.62-1.37,1.37c0,.25,.09,.48,.21,.68l-15.58,15.58c-1.03-.92-2.35-1.5-3.82-1.58V11.6h.09c.52,0,.95-.43,.95-.95V3.72c0-.52,.43-.95,.95-.95h5c.52,0,.95-.43,.95-.95V.95c0-.52-.43-.95-.95-.95h-14.68c-.52,0-.95,.43-.95,.95v.87c0,.52,.43,.95,.95,.95h5c.52,0,.95,.43,.95,.95v6.93c0,.52,.43,.95,.95,.95h.09v21.1c-1.47,.08-2.8,.66-3.82,1.58l-15.58-15.58c.12-.2,.21-.43,.21-.68,0-.76-.62-1.37-1.37-1.37s-1.37,.62-1.37,1.37,.62,1.37,1.37,1.37c.25,0,.48-.09,.68-.2l15.58,15.58c-.92,1.03-1.5,2.35-1.58,3.82H11.6v-.09c0-.52-.43-.95-.95-.95H3.72c-.52,0-.95-.43-.95-.95v-5c0-.52-.43-.95-.95-.95H.95c-.52,0-.95,.43-.95,.95v14.68c0,.52,.43,.95,.95,.95h.87c.52,0,.95-.43,.95-.95v-5c0-.52,.43-.95,.95-.95h6.93c.52,0,.95-.43,.95-.95v-.09h21.1c.08,1.47,.66,2.79,1.58,3.82l-15.58,15.58c-.2-.12-.43-.21-.68-.21-.76,0-1.37,.62-1.37,1.37s.62,1.37,1.37,1.37,1.37-.62,1.37-1.37c0-.25-.09-.48-.2-.68l15.58-15.58c1.03,.92,2.35,1.5,3.82,1.58v21.1h-.09c-.52,0-.95,.43-.95,.95v6.93c0,.52-.43,.95-.95,.95h-5c-.52,0-.95,.43-.95,.95v.87c0,.52,.43,.95,.95,.95h14.68c.52,0,.95-.43,.95-.95v-.87c0-.52-.43-.95-.95-.95h-5c-.52,0-.95-.43-.95-.95v-6.93c0-.52-.43-.95-.95-.95h-.09v-21.1c1.47-.08,2.79-.66,3.82-1.58l15.58,15.58c-.12,.2-.2,.43-.2,.68,0,.76,.62,1.37,1.37,1.37s1.37-.62,1.37-1.37-.62-1.37-1.37-1.37c-.25,0-.48,.09-.68,.21l-15.58-15.58c.92-1.03,1.5-2.35,1.58-3.82h21.1v.09c0,.52,.43,.95,.95,.95h6.93c.52,0,.95,.43,.95,.95v5c0,.52,.43,.95,.95,.95h.87c.52,0,.95-.43,.95-.95v-14.68c0-.52-.43-.95-.95-.95Z"/>
  </g>
</svg>