<?xml version="1.0" encoding="UTF-8"?>
<svg id="Layer_2" data-name="Layer 2" xmlns="http://www.w3.org/2000/svg" viewBox="0 0 95.85 95.94">
  <g id="Layer_1-2" data-name="Layer 1">
    <g>
      <g id="_Radial_Repeat_" data-name="&amp;lt;Radial Repeat&amp;gt;">
        <g>
          <line x1="95.72" y1="52.23" x2="43.19" y2="47.55"/>
          <polygon points="95.59 53.68 43.19 47.55 95.85 50.78 95.59 53.68 95.59 53.68"/>
        </g>
      </g>
      <g id="_Radial_Repeat_-2" data-name="&amp;lt;Radial Repeat&amp;gt;">
        <g>
          <line x1="94.19" y1="60.69" x2="43.34" y2="46.7"/>
          <polygon points="93.8 62.1 43.34 46.7 94.57 59.29 93.8 62.1 93.8 62.1"/>
        </g>
      </g>
      <g id="_Radial_Repeat_-3" data-name="&amp;lt;Radial Repeat&amp;gt;">
        <g>
          <line x1="91.17" y1="68.74" x2="43.64" y2="45.9"/>
          <polygon points="90.54 70.06 43.64 45.9 91.8 67.43 90.54 70.06 90.54 70.06"/>
        </g>
      </g>
      <g id="_Radial_Repeat_-4" data-name="&amp;lt;Radial Repeat&amp;gt;">
        <g>
          <line x1="86.77" y1="76.13" x2="44.08" y2="45.16"/>
          <polygon points="85.92 77.31 44.08 45.16 87.62 74.95 85.92 77.31 85.92 77.31"/>
        </g>
      </g>
      <g id="_Radial_Repeat_-5" data-name="&amp;lt;Radial Repeat&amp;gt;">
        <g>
          <line x1="81.12" y1="82.61" x2="44.64" y2="44.52"/>
          <polygon points="80.07 83.61 44.64 44.52 82.17 81.6 80.07 83.61 80.07 83.61"/>
        </g>
      </g>
      <g id="_Radial_Repeat_-6" data-name="&amp;lt;Radial Repeat&amp;gt;">
        <g>
          <line x1="74.4" y1="87.97" x2="45.31" y2="43.98"/>
          <polygon points="73.19 88.77 45.31 43.98 75.61 87.17 73.19 88.77 73.19 88.77"/>
        </g>
      </g>
      <g id="_Radial_Repeat_-7" data-name="&amp;lt;Radial Repeat&amp;gt;">
        <g>
          <line x1="66.83" y1="92.05" x2="46.07" y2="43.57"/>
          <polygon points="65.5 92.62 46.07 43.57 68.17 91.48 65.5 92.62 65.5 92.62"/>
        </g>
      </g>
      <g id="_Radial_Repeat_-8" data-name="&amp;lt;Radial Repeat&amp;gt;">
        <g>
          <line x1="58.66" y1="94.71" x2="46.88" y2="43.31"/>
          <polygon points="57.24 95.04 46.88 43.31 60.08 94.39 57.24 95.04 57.24 95.04"/>
        </g>
      </g>
      <g id="_Radial_Repeat_-9" data-name="&amp;lt;Radial Repeat&amp;gt;">
        <g>
          <line x1="50.14" y1="95.87" x2="47.73" y2="43.19"/>
          <polygon points="48.69 95.94 47.73 43.19 51.59 95.81 48.69 95.94 48.69 95.94"/>
        </g>
      </g>
      <g id="_Radial_Repeat_-10" data-name="&amp;lt;Radial Repeat&amp;gt;">
        <g>
          <line x1="41.55" y1="95.49" x2="48.59" y2="43.23"/>
          <polygon points="40.11 95.3 48.59 43.23 42.99 95.69 40.11 95.3 40.11 95.3"/>
        </g>
      </g>
      <g id="_Radial_Repeat_-11" data-name="&amp;lt;Radial Repeat&amp;gt;">
        <g>
          <line x1="33.17" y1="93.59" x2="49.43" y2="43.42"/>
          <polygon points="31.79 93.14 49.43 43.42 34.55 94.04 31.79 93.14 31.79 93.14"/>
        </g>
      </g>
      <g id="_Radial_Repeat_-12" data-name="&amp;lt;Radial Repeat&amp;gt;">
        <g>
          <line x1="25.26" y1="90.21" x2="50.22" y2="43.75"/>
          <polygon points="23.98 89.53 50.22 43.75 26.54 90.9 23.98 89.53 23.98 89.53"/>
        </g>
      </g>
      <g id="_Radial_Repeat_-13" data-name="&amp;lt;Radial Repeat&amp;gt;">
        <g>
          <line x1="18.08" y1="85.48" x2="50.93" y2="44.22"/>
          <polygon points="16.95 84.58 50.93 44.22 19.22 86.39 16.95 84.58 16.95 84.58"/>
        </g>
      </g>
      <g id="_Radial_Repeat_-14" data-name="&amp;lt;Radial Repeat&amp;gt;">
        <g>
          <line x1="11.87" y1="79.55" x2="51.55" y2="44.82"/>
          <polygon points="10.91 78.45 51.55 44.82 12.82 80.64 10.91 78.45 10.91 78.45"/>
        </g>
      </g>
      <g id="_Radial_Repeat_-15" data-name="&amp;lt;Radial Repeat&amp;gt;">
        <g>
          <line x1="6.81" y1="72.6" x2="52.06" y2="45.51"/>
          <polygon points="6.06 71.35 52.06 45.51 7.55 73.84 6.06 71.35 6.06 71.35"/>
        </g>
      </g>
      <g id="_Radial_Repeat_-16" data-name="&amp;lt;Radial Repeat&amp;gt;">
        <g>
          <line x1="3.07" y1="64.85" x2="52.43" y2="46.28"/>
          <polygon points="2.56 63.49 52.43 46.28 3.58 66.21 2.56 63.49 2.56 63.49"/>
        </g>
      </g>
      <g id="_Radial_Repeat_-17" data-name="&amp;lt;Radial Repeat&amp;gt;">
        <g>
          <line x1=".78" y1="56.57" x2="52.66" y2="47.11"/>
          <polygon points=".52 55.14 52.66 47.11 1.04 58 .52 55.14 .52 55.14"/>
        </g>
      </g>
      <g id="_Radial_Repeat_-18" data-name="&amp;lt;Radial Repeat&amp;gt;">
        <g>
          <line x1="0" y1="48.01" x2="52.74" y2="47.96"/>
          <polygon points="0 46.55 52.74 47.96 0 49.46 0 46.55 0 46.55"/>
        </g>
      </g>
      <g id="_Radial_Repeat_-19" data-name="&amp;lt;Radial Repeat&amp;gt;">
        <g>
          <line x1=".77" y1="39.44" x2="52.66" y2="48.82"/>
          <polygon points="1.02 38.01 52.66 48.82 .51 40.87 1.02 38.01 1.02 38.01"/>
        </g>
      </g>
      <g id="_Radial_Repeat_-20" data-name="&amp;lt;Radial Repeat&amp;gt;">
        <g>
          <line x1="3.05" y1="31.15" x2="52.44" y2="49.65"/>
          <polygon points="3.56 29.79 52.44 49.65 2.54 32.52 3.56 29.79 3.56 29.79"/>
        </g>
      </g>
      <g id="_Radial_Repeat_-21" data-name="&amp;lt;Radial Repeat&amp;gt;">
        <g>
          <line x1="6.77" y1="23.41" x2="52.07" y2="50.42"/>
          <polygon points="7.52 22.16 52.07 50.42 6.03 24.65 7.52 22.16 7.52 22.16"/>
        </g>
      </g>
      <g id="_Radial_Repeat_-22" data-name="&amp;lt;Radial Repeat&amp;gt;">
        <g>
          <line x1="11.82" y1="16.45" x2="51.56" y2="51.11"/>
          <polygon points="12.78 15.35 51.56 51.11 10.86 17.54 12.78 15.35 12.78 15.35"/>
        </g>
      </g>
      <g id="_Radial_Repeat_-23" data-name="&amp;lt;Radial Repeat&amp;gt;">
        <g>
          <line x1="18.03" y1="10.5" x2="50.94" y2="51.71"/>
          <polygon points="19.16 9.59 50.94 51.71 16.89 11.41 19.16 9.59 19.16 9.59"/>
        </g>
      </g>
      <g id="_Radial_Repeat_-24" data-name="&amp;lt;Radial Repeat&amp;gt;">
        <g>
          <line x1="25.2" y1="5.76" x2="50.23" y2="52.18"/>
          <polygon points="26.48 5.07 50.23 52.18 23.92 6.45 26.48 5.07 26.48 5.07"/>
        </g>
      </g>
      <g id="_Radial_Repeat_-25" data-name="&amp;lt;Radial Repeat&amp;gt;">
        <g>
          <line x1="33.1" y1="2.38" x2="49.44" y2="52.52"/>
          <polygon points="34.49 1.92 49.44 52.52 31.72 2.83 34.49 1.92 34.49 1.92"/>
        </g>
      </g>
      <g id="_Radial_Repeat_-26" data-name="&amp;lt;Radial Repeat&amp;gt;">
        <g>
          <line x1="41.48" y1=".46" x2="48.6" y2="52.71"/>
          <polygon points="42.92 .26 48.6 52.71 40.04 .65 42.92 .26 42.92 .26"/>
        </g>
      </g>
      <g id="_Radial_Repeat_-27" data-name="&amp;lt;Radial Repeat&amp;gt;">
        <g>
          <line x1="50.07" y1=".06" x2="47.75" y2="52.75"/>
          <polygon points="51.52 .13 47.75 52.75 48.62 0 51.52 .13 51.52 .13"/>
        </g>
      </g>
      <g id="_Radial_Repeat_-28" data-name="&amp;lt;Radial Repeat&amp;gt;">
        <g>
          <line x1="58.59" y1="1.21" x2="46.9" y2="52.64"/>
          <polygon points="60.01 1.53 46.9 52.64 57.17 .89 60.01 1.53 60.01 1.53"/>
        </g>
      </g>
      <g id="_Radial_Repeat_-29" data-name="&amp;lt;Radial Repeat&amp;gt;">
        <g>
          <line x1="66.77" y1="3.86" x2="46.08" y2="52.37"/>
          <polygon points="68.11 4.43 46.08 52.37 65.43 3.29 68.11 4.43 68.11 4.43"/>
        </g>
      </g>
      <g id="_Radial_Repeat_-30" data-name="&amp;lt;Radial Repeat&amp;gt;">
        <g>
          <line x1="74.34" y1="7.93" x2="45.32" y2="51.97"/>
          <polygon points="75.56 8.73 45.32 51.97 73.13 7.13 75.56 8.73 75.56 8.73"/>
        </g>
      </g>
      <g id="_Radial_Repeat_-31" data-name="&amp;lt;Radial Repeat&amp;gt;">
        <g>
          <line x1="81.07" y1="13.29" x2="44.65" y2="51.43"/>
          <polygon points="82.12 14.29 44.65 51.43 80.02 12.28 82.12 14.29 82.12 14.29"/>
        </g>
      </g>
      <g id="_Radial_Repeat_-32" data-name="&amp;lt;Radial Repeat&amp;gt;">
        <g>
          <line x1="86.73" y1="19.76" x2="44.09" y2="50.79"/>
          <polygon points="87.58 20.93 44.09 50.79 85.87 18.58 87.58 20.93 87.58 20.93"/>
        </g>
      </g>
      <g id="_Radial_Repeat_-33" data-name="&amp;lt;Radial Repeat&amp;gt;">
        <g>
          <line x1="91.14" y1="27.13" x2="43.64" y2="50.05"/>
          <polygon points="91.78 28.44 43.64 50.05 90.51 25.82 91.78 28.44 91.78 28.44"/>
        </g>
      </g>
      <g id="_Radial_Repeat_-34" data-name="&amp;lt;Radial Repeat&amp;gt;">
        <g>
          <line x1="94.17" y1="35.18" x2="43.34" y2="49.25"/>
          <polygon points="94.56 36.58 43.34 49.25 93.78 33.78 94.56 36.58 94.56 36.58"/>
        </g>
      </g>
      <g id="_Radial_Repeat_-35" data-name="&amp;lt;Radial Repeat&amp;gt;">
        <g>
          <line x1="95.71" y1="43.64" x2="43.19" y2="48.41"/>
          <polygon points="95.84 45.09 43.19 48.41 95.58 42.19 95.84 45.09 95.84 45.09"/>
        </g>
      </g>
    </g>
  </g>
</svg>