<?xml version="1.0" encoding="UTF-8"?>
<svg id="Layer_2" data-name="Layer 2" xmlns="http://www.w3.org/2000/svg" viewBox="0 0 95.32 79.26">
  <g id="Layer_1-2" data-name="Layer 1">
    <g>
      <circle cx="47.66" cy="19.61" r="19.61" transform="translate(-2.53 7.89) rotate(-9.22)"/>
      <path d="M75.71,40.04c-5.41,0-10.32,2.19-13.87,5.74-10.03,10.03-18.34,10.03-28.37,0-3.55-3.55-8.45-5.74-13.87-5.74C8.78,40.04,0,48.82,0,59.65s8.78,19.61,19.61,19.61c5.41,0,10.32-2.19,13.87-5.74,10.03-10.03,18.34-10.03,28.37,0,3.55,3.55,8.45,5.74,13.87,5.74,10.83,0,19.61-8.78,19.61-19.61s-8.78-19.61-19.61-19.61Z"/>
    </g>
  </g>
</svg>