<?xml version="1.0" encoding="UTF-8"?>
<svg id="Layer_2" data-name="Layer 2" xmlns="http://www.w3.org/2000/svg" viewBox="0 0 115.97 93.06">
  <g id="Layer_1-2" data-name="Layer 1">
    <path d="M49.16,56.05c.7,1.84,1.05,3.94,1.05,6.23v28.95c0,.86,.59,1.67,1.44,1.81,1.09,.18,2.03-.66,2.03-1.71v-29.05c0-2.29,.35-4.38,1.05-6.22,0-.02,.01-.03,.02-.05,.82-2.15,3.95-2.15,4.77,0,0,.02,.01,.03,.02,.05,.7,1.84,1.05,3.94,1.05,6.23v28.95c0,.86,.59,1.67,1.44,1.81,1.09,.18,2.03-.66,2.03-1.71v-29.05c0-2.29,.35-4.38,1.05-6.22,1.28-3.38,3.36-5.46,6.73-6.73,1.84-.7,3.93-1.05,6.22-1.05h5.69s11.95,0,11.95,0h18.43c.86,0,1.67-.59,1.81-1.44,.18-1.09-.66-2.03-1.71-2.03h-18.53s-11.95,0-11.95,0h-5.69c-2.29,0-4.38-.35-6.22-1.05-3.38-1.28-5.45-3.36-6.73-6.73-.7-1.84-1.05-3.94-1.05-6.22V1.83c0-.86-.59-1.67-1.44-1.81-1.09-.18-2.03,.66-2.03,1.71V30.79c0,2.29-.35,4.38-1.05,6.22,0,.02-.01,.03-.02,.05-.82,2.15-3.95,2.15-4.77,0,0-.02-.01-.03-.02-.05-.7-1.84-1.05-3.94-1.05-6.22V1.83c0-.86-.59-1.67-1.44-1.81-1.09-.18-2.03,.66-2.03,1.71V30.79c0,2.29-.35,4.38-1.05,6.22-.28,.73-.59,1.4-.95,2.02-1,1.71-3.47,1.71-4.47,0-.36-.61-.68-1.29-.95-2.02-.7-1.84-1.05-3.93-1.05-6.22V1.83c0-.86-.59-1.67-1.44-1.81-1.09-.18-2.03,.66-2.03,1.71V30.79c0,2.29-.35,4.38-1.05,6.22-1.28,3.38-3.36,5.45-6.73,6.73-1.84,.7-3.94,1.05-6.22,1.05h-3.17s.43,0,.43,0H1.83c-.86,0-1.67,.59-1.81,1.44-.18,1.09,.66,2.03,1.71,2.03H21.5s-.43,0-.43,0h3.17c2.29,0,4.38,.35,6.22,1.05,3.38,1.28,5.45,3.35,6.73,6.73,.7,1.84,1.05,3.94,1.05,6.23v28.95c0,.86,.59,1.67,1.44,1.81,1.09,.18,2.03-.66,2.03-1.71v-29.05c0-2.29,.35-4.38,1.05-6.22,.28-.73,.59-1.4,.95-2.02,1-1.71,3.47-1.71,4.47,0,.36,.61,.68,1.28,.95,2.02Z"/>
  </g>
</svg>