<?xml version="1.0" encoding="UTF-8"?>
<svg id="Layer_2" data-name="Layer 2" xmlns="http://www.w3.org/2000/svg" viewBox="0 0 125.37 125.37">
  <g id="Layer_1-2" data-name="Layer 1">
    <g>
      <g id="_Radial_Repeat_" data-name="&amp;lt;Radial Repeat&amp;gt;">
        <polygon points="63.31 83.93 71.68 95.24 61.47 125.37 54.47 82.65 61.5 65.41 63.31 83.93"/>
      </g>
      <g id="_Radial_Repeat_-2" data-name="&amp;lt;Radial Repeat&amp;gt;">
        <polygon points="52.61 81.4 54.19 95.38 30.29 116.36 45.59 75.87 60.29 64.45 52.61 81.4"/>
      </g>
      <g id="_Radial_Repeat_-3" data-name="&amp;lt;Radial Repeat&amp;gt;">
        <polygon points="44.6 73.85 38.99 86.75 7.79 92.97 41.29 65.56 59.73 63.02 44.6 73.85"/>
      </g>
      <g id="_Radial_Repeat_-4" data-name="&amp;lt;Radial Repeat&amp;gt;">
        <polygon points="41.44 63.31 30.13 71.68 0 61.47 42.72 54.47 59.96 61.5 41.44 63.31"/>
      </g>
      <g id="_Radial_Repeat_-5" data-name="&amp;lt;Radial Repeat&amp;gt;">
        <polygon points="43.97 52.61 30 54.19 9.01 30.29 49.5 45.59 60.92 60.29 43.97 52.61"/>
      </g>
      <g id="_Radial_Repeat_-6" data-name="&amp;lt;Radial Repeat&amp;gt;">
        <polygon points="51.52 44.6 38.62 38.99 32.4 7.79 59.81 41.29 62.35 59.73 51.52 44.6"/>
      </g>
      <g id="_Radial_Repeat_-7" data-name="&amp;lt;Radial Repeat&amp;gt;">
        <polygon points="62.06 41.44 53.7 30.13 63.91 0 70.9 42.72 63.88 59.96 62.06 41.44"/>
      </g>
      <g id="_Radial_Repeat_-8" data-name="&amp;lt;Radial Repeat&amp;gt;">
        <polygon points="72.77 43.97 71.18 30 95.09 9.01 79.78 49.5 65.08 60.92 72.77 43.97"/>
      </g>
      <g id="_Radial_Repeat_-9" data-name="&amp;lt;Radial Repeat&amp;gt;">
        <polygon points="80.77 51.52 86.39 38.62 117.58 32.4 84.09 59.81 65.65 62.35 80.77 51.52"/>
      </g>
      <g id="_Radial_Repeat_-10" data-name="&amp;lt;Radial Repeat&amp;gt;">
        <polygon points="83.93 62.06 95.24 53.7 125.37 63.91 82.65 70.9 65.41 63.88 83.93 62.06"/>
      </g>
      <g id="_Radial_Repeat_-11" data-name="&amp;lt;Radial Repeat&amp;gt;">
        <polygon points="81.4 72.77 95.38 71.18 116.36 95.09 75.87 79.78 64.45 65.08 81.4 72.77"/>
      </g>
      <g id="_Radial_Repeat_-12" data-name="&amp;lt;Radial Repeat&amp;gt;">
        <polygon points="73.85 80.77 86.75 86.39 92.97 117.58 65.56 84.09 63.02 65.64 73.85 80.77"/>
      </g>
    </g>
  </g>
</svg>