<?xml version="1.0" encoding="UTF-8"?>
<svg id="Layer_2" data-name="Layer 2" xmlns="http://www.w3.org/2000/svg" viewBox="0 0 71.98 71.98">
  <g id="Layer_1-2" data-name="Layer 1">
    <g>
      <path d="M61.85,34.27h-19.67c-.35,0-.66-.19-.79-.52-.13-.33-.06-.68,.18-.93l9.15-9.16c.65-.64,.67-1.75,0-2.42-.32-.31-.76-.49-1.21-.49s-.89,.18-1.21,.49l-9.15,9.15c-.24,.26-.6,.32-.92,.19-.33-.13-.52-.42-.52-.79V10.13c0-.94-.77-1.71-1.73-1.71s-1.71,.77-1.71,1.71V29.81c0,.35-.19,.65-.52,.78-.32,.13-.68,.07-.92-.19l-9.15-9.15c-.32-.31-.76-.49-1.21-.49s-.88,.18-1.21,.51c-.65,.65-.65,1.77,0,2.4l9.15,9.16c.24,.25,.31,.6,.18,.93-.14,.32-.43,.52-.79,.52H10.13c-.95,0-1.71,.78-1.71,1.73s.76,1.71,1.71,1.71H29.8c.35,0,.65,.19,.79,.52,.13,.33,.06,.67-.18,.93l-9.15,9.15c-.65,.64-.66,1.75,0,2.42,.33,.32,.76,.49,1.21,.49s.89-.17,1.21-.49l9.15-9.15c.24-.25,.6-.32,.92-.18,.33,.13,.52,.42,.52,.79v19.66c0,.95,.77,1.71,1.73,1.71s1.71-.76,1.71-1.71v-19.66c0-.36,.19-.66,.52-.79,.32-.14,.68-.07,.92,.18l9.15,9.15c.32,.32,.76,.49,1.21,.49s.89-.17,1.21-.51c.65-.64,.65-1.77,0-2.4l-9.15-9.15c-.24-.26-.31-.61-.18-.93,.13-.33,.43-.52,.79-.52h19.67c.95,0,1.71-.77,1.71-1.73s-.76-1.71-1.71-1.71Z"/>
      <path d="M35.99,0C16.14,0,0,16.14,0,35.99s16.14,35.99,35.99,35.99,35.99-16.14,35.99-35.99S55.83,0,35.99,0Zm0,68.98c-18.19,0-32.99-14.8-32.99-32.99S17.8,3,35.99,3s32.99,14.8,32.99,32.99-14.8,32.99-32.99,32.99Z"/>
    </g>
  </g>
</svg>