<?xml version="1.0" encoding="UTF-8"?>
<svg id="Layer_2" data-name="Layer 2" xmlns="http://www.w3.org/2000/svg" viewBox="0 0 117.51 183.59">
  <g id="Layer_1-2" data-name="Layer 1">
    <g>
      <circle cx="26.21" cy="91.79" r="26.21"/>
      <circle cx="26.21" cy="157.38" r="26.21"/>
      <circle cx="91.29" cy="26.21" r="26.21"/>
      <path d="M91.39,65.59h0c-21.61-.09-39.05-17.67-38.97-39.27h0s0-.07,0-.1C52.42,11.74,40.69,0,26.21,0S0,11.74,0,26.21s11.68,26.16,26.11,26.21h0c21.61,.09,39.05,17.67,38.97,39.27h0s0,.07,0,.1c0,6.48,2.36,12.42,6.26,16.99h0c10.24,12.03,10.24,19.57,0,31.6h0c-3.9,4.58-6.26,10.51-6.26,16.99,0,14.48,11.74,26.21,26.21,26.21s26.21-11.74,26.21-26.21c0-6.49-2.36-12.42-6.26-16.99h0c-10.24-12.03-10.24-19.57,0-31.6h0c3.9-4.58,6.26-10.51,6.26-16.99,0-14.44-11.68-26.16-26.11-26.21Z"/>
    </g>
  </g>
</svg>