<?xml version="1.0" encoding="UTF-8"?>
<svg id="Layer_2" data-name="Layer 2" xmlns="http://www.w3.org/2000/svg" viewBox="0 0 109.13 109.13">
  <g id="Layer_1-2" data-name="Layer 1">
    <g>
      <g id="_Radial_Repeat_" data-name="&amp;lt;Radial Repeat&amp;gt;">
        <path d="M54.57,54.56l15.29,54.18s-8.16-16.35-19.61-16.41c12.63,.92,4.32-37.76,4.32-37.76Z"/>
      </g>
      <g id="_Radial_Repeat_-2" data-name="&amp;lt;Radial Repeat&amp;gt;">
        <path d="M54.56,54.56l-13.84,54.56s1.1-18.24-8.78-24.02c10.47,7.11,22.62-30.55,22.62-30.55Z"/>
      </g>
      <g id="_Radial_Repeat_-3" data-name="&amp;lt;Radial Repeat&amp;gt;">
        <path d="M54.56,54.57L15.29,94.9s10.08-15.24,4.41-25.19c5.51,11.4,34.86-15.14,34.86-15.14Z"/>
      </g>
      <g id="_Radial_Repeat_-4" data-name="&amp;lt;Radial Repeat&amp;gt;">
        <path d="M54.56,54.57L.39,69.86s16.35-8.16,16.41-19.61c-.92,12.63,37.76,4.32,37.76,4.32Z"/>
      </g>
      <g id="_Radial_Repeat_-5" data-name="&amp;lt;Radial Repeat&amp;gt;">
        <path d="M54.56,54.57L0,40.72s18.24,1.1,24.02-8.78c-7.11,10.47,30.55,22.62,30.55,22.62Z"/>
      </g>
      <g id="_Radial_Repeat_-6" data-name="&amp;lt;Radial Repeat&amp;gt;">
        <path d="M54.56,54.56L14.23,15.29s15.24,10.08,25.19,4.41c-11.4,5.51,15.14,34.86,15.14,34.86Z"/>
      </g>
      <g id="_Radial_Repeat_-7" data-name="&amp;lt;Radial Repeat&amp;gt;">
        <path d="M54.56,54.56L39.27,.39s8.16,16.35,19.61,16.41c-12.63-.92-4.32,37.76-4.32,37.76Z"/>
      </g>
      <g id="_Radial_Repeat_-8" data-name="&amp;lt;Radial Repeat&amp;gt;">
        <path d="M54.56,54.56L68.41,0s-1.1,18.24,8.78,24.02c-10.47-7.11-22.62,30.55-22.62,30.55Z"/>
      </g>
      <g id="_Radial_Repeat_-9" data-name="&amp;lt;Radial Repeat&amp;gt;">
        <path d="M54.56,54.56L93.84,14.23s-10.08,15.24-4.41,25.19c-5.51-11.4-34.86,15.14-34.86,15.14Z"/>
      </g>
      <g id="_Radial_Repeat_-10" data-name="&amp;lt;Radial Repeat&amp;gt;">
        <path d="M54.56,54.56l54.18-15.29s-16.35,8.16-16.41,19.61c.92-12.63-37.76-4.32-37.76-4.32Z"/>
      </g>
      <g id="_Radial_Repeat_-11" data-name="&amp;lt;Radial Repeat&amp;gt;">
        <path d="M54.56,54.56l54.56,13.84s-18.24-1.1-24.02,8.78c7.11-10.47-30.55-22.62-30.55-22.62Z"/>
      </g>
      <g id="_Radial_Repeat_-12" data-name="&amp;lt;Radial Repeat&amp;gt;">
        <path d="M54.56,54.56l40.33,39.27s-15.24-10.08-25.19-4.41c11.4-5.51-15.14-34.86-15.14-34.86Z"/>
      </g>
    </g>
  </g>
</svg>