<?xml version="1.0" encoding="UTF-8"?>
<svg id="Layer_2" data-name="Layer 2" xmlns="http://www.w3.org/2000/svg" viewBox="0 0 86.05 81.1">
  <defs>
    <style>
      .cls-1 {
        fill-rule: evenodd;
      }
    </style>
  </defs>
  <g id="Layer_1-2" data-name="Layer 1">
    <g>
      <path class="cls-1" d="M86.04,31.58c0-.34,0-.67,0-1.01-.15-.89-.47-1.52-.76-2.26-.2-.51-.3-1.06-.57-1.5-.23-.38-.56-.66-.82-1.01-.32-.44-.55-.93-.98-1.26-.46-.34-1.04-.59-1.59-.83-.27-.14-.53-.27-.8-.41-.34-.13-.69-.25-1.03-.38-.67-.27-1.34-.54-2.08-.77-.35-.11-.75-.13-1.13-.22-.34-.1-.68-.19-1.02-.29-.35-.05-.7-.09-1.05-.14-.4-.1-.75-.24-1.19-.32-.53-.09-1.18-.03-1.76-.03h-7.81c-1.08,0-2.68.17-3.38-.24-.67-.39-.96-.95-1.29-1.69-.14-.3-.29-.6-.43-.9-.39-.88-.89-1.7-1.25-2.61-.26-.66-.39-1.36-.6-2.05-.17-.5-.35-1.01-.52-1.51-.12-.37-.23-.73-.35-1.1-.23-.58-.48-1.14-.79-1.63-.23-.36-.54-.65-.74-1.04-.36-.69-.61-1.44-1-2.1-.26-.44-.6-.79-.86-1.23-.27-.45-.42-.97-.73-1.36-.45-.57-1.07-1.07-1.72-1.45-.41-.24-.89-.37-1.32-.59-.43-.22-.75-.57-1.21-.77-.82-.36-1.74-.65-2.71-.83-.36-.07-.79-.04-1.2-.04h-2.01c-.24.02-.48.05-.72.07-.3.08-.61.17-.91.25-.3.06-.59.13-.89.19-.5.14-1.01.29-1.51.43-.6.23-1.19.54-1.73.86-.38.2-.77.4-1.15.6-.52.33-1.23.99-1.58,1.49-.25.36-.43.78-.64,1.18-.23.46-.46.93-.69,1.39-.66,1.49-1.55,2.86-2.18,4.37-.12.29-.17.62-.27.95-.09.29-.17.57-.26.86-.16.64.02,1.51-.12,2.17-.35,1.71-1.09,2.9-1.7,4.32-.14.33-.31.66-.41,1.02-.04.17,0,.39.11.46.22.14.47-.07.6-.17.45-.35.7-.9.98-1.43.34-.67.72-1.33,1.01-2.05.17-.52.34-1.04.5-1.56.17-.43.34-.86.45-1.31.15-.6,0-1.48.15-2.08.16-.56.33-1.11.49-1.67.4-1.02.96-1.97,1.45-2.93.3-.6.59-1.19.89-1.79.28-.64.58-1.29,1-1.81.49-.61,1.34-.94,2.07-1.31,1.07-.54,2.24-1.09,3.58-1.36.3-.06.8-.07,1.13-.02h3.04c.43,0,.88-.02,1.24.07.73.18,1.5.43,2.17.7.31.12.64.2.92.37.29.17.52.41.78.6.32.23.65.43.95.67.65.53.92,1.58,1.36,2.33.24.41.56.74.81,1.14.29.47.55,1.14.78,1.66.16.37.36.76.59,1.08.29.42.61.76.81,1.29.22.55.4,1.29.53,1.89.08.36.08.73.18,1.05.11.32.23.64.34.96.32,1,.64,2.02,1.14,2.86.36.53.72,1.06,1.07,1.59.23.26.46.52.7.78.25.35.5.7.74,1.05.16.22.3.47.51.64.69.55,1.81.44,3.04.44h6.5c1.58,0,3.15,0,4.73,0,.44.08.78.21,1.18.31.4.05.81.11,1.21.16.56.17,1.12.34,1.68.51.39.17.77.34,1.16.5.71.28,1.42.49,2.04.86.51.3.96.7,1.32,1.15.15.15.3.3.44.45.65.81.83,2.01,1.18,3.13.15.47.39,1.05.27,1.71-.31,1.73-.92,3.28-1.81,4.46-.29.39-.64.71-.9,1.14-.3.5-.48,1.12-.92,1.47-.27.19-.54.38-.81.57-.32.3-.64.6-.96.9-.54.43-1.12.85-1.68,1.25-.47.33-1.08.51-1.55.84-.35.25-.61.58-.94.84-.33.25-.66.5-.99.75-.36.29-.62.77-.91,1.13-.25.26-.5.53-.74.79-.23.33-.45.66-.68,1-.24.31-.53.57-.73.92-.55.91-.91,2.04-1.21,3.2-.23.92.17,1.69.31,2.47.03.24.06.48.09.72.1.35.19.7.29,1.05.09.43.08.87.19,1.24.21.67.57,1.26.83,1.87.16.45.32.9.47,1.34.29.66.81,1.08,1.08,1.77.12.3.16.64.26.97.13.42.23.82.32,1.3.02.36.04.72.06,1.07.05.3.03.75-.02,1.02-.07.36-.18.65-.28.97-.07.28-.14.57-.21.85-.14.4-.28.8-.42,1.2-.26.82-.5,1.64-.82,2.41-.26.62-.57,1.23-.87,1.82-.26.51-.47,1.06-.79,1.52-.24.29-.48.58-.72.87-.58.8-.97,1.47-1.85,1.99-.38.22-.78.34-1.3.43-.35.06-.73,0-1.04.08-.75.17-1.36.51-2.13.65-.61.11-1.24-.19-1.71-.32-1.24-.34-2.17-.75-3.08-1.4-.23-.16-.4-.4-.62-.57-.28-.22-.56-.45-.87-.65-.28-.18-.58-.35-.9-.48-.49-.21-1-.34-1.42-.61-.39-.24-.68-.59-1.04-.85-.95-.68-1.93-1.3-2.92-1.92-.89-.56-1.83-1.17-2.88-1.58-.46-.18-1.12-.14-1.61-.3-.53-.17-1.12-.68-1.82-.52-2.4.53-3.54,2.05-5.32,3.16-.6.37-1.36.57-1.95.95-.69.44-1.16,1.1-1.86,1.54-.62.39-1.38.63-1.97,1.05-.68.48-1.14,1.22-1.86,1.66-.43.26-.97.38-1.47.58-.4.16-.79.36-1.16.55-.39.2-.77.4-1.24.51-.42.1-.96.07-1.46.07-.34,0-.69.03-1-.03-.69-.13-1.15-.4-1.72-.63-.28-.1-.56-.19-.84-.29-.76-.3-1.8-.81-2.27-1.4-.32-.4-.54-.86-.76-1.36-.19-.43-.43-.85-.61-1.3-.29-.72-.45-1.48-.7-2.26-.07-.23-.15-.47-.2-.72-.07-.31-.07-.63-.15-.91-.25-.81-.71-1.54-.97-2.36-.11-.33-.08-.75-.16-1.13-.09-.41-.21-.76-.29-1.19-.09-.48-.03-1.08-.03-1.6,0-.51-.05-1.09.04-1.55.4-2.05,1.25-3.58,1.82-5.43.09-.29.09-.63.16-.95.15-.66.39-1.26.34-2.13,0-.23-.02-.46-.03-.7-.12-.59-.28-1.13-.45-1.69-.19-.59-.57-1.38-.9-1.85-.47-.67-1.32-.9-1.99-1.37-.62-.44-1.06-1.07-1.68-1.51-.71-.5-1.63-.77-2.33-1.29-.47-.34-.84-.81-1.25-1.22-.43-.43-.86-.86-1.3-1.3-.54-.54-1.09-1.09-1.63-1.63-.3-.38-.57-.8-.87-1.19-.32-.35-.63-.7-.95-1.04-.44-.59-.83-1.23-1.23-1.86-.42-.67-1.05-1.28-1.36-2.02-.11-.26-.15-.55-.23-.84-.09-.31-.18-.62-.24-.96-.03-.25-.06-.51-.09-.76-.12-.55-.43-1.14-.25-1.83.13-.51.3-1.09.57-1.48.27-.38.66-.68.99-1.01.32-.33.63-.7,1.03-.95.38-.24.83-.4,1.25-.61.76-.38,1.53-.76,2.29-1.14.57-.24,1.25-.42,1.87-.59.36-.1.79-.07,1.17-.15.45-.1.81-.25,1.3-.33.65-.11,1.37.08,2-.03.44-.08.79-.22,1.19-.32.16-.02.32-.04.48-.06h.44c.54,0,1.15.08,1.66,0,.67-.11,1.12-.27,1.81-.39.34,0,.67,0,1.01,0,.77,0,1.54-.01,2.31-.02.61-.1,1.14.09,1.59.17.32.06.73-.18.66-.5-.11-.51-.97-.35-1.45-.48-.3-.08-.59-.19-.91-.26-.42-.09-.96-.06-1.45-.06-.35,0-.7.02-1.04.03-.48.09-.86.24-1.32.33-.34.07-.79.03-1.18.03-.55,0-1.17-.05-1.63.06-.42.1-.76.25-1.2.33-.74.13-1.67-.08-2.36.08-.33.1-.66.19-.99.29-.33.04-.66.08-.99.13-.34.09-.68.19-1.02.28-.26.04-.52.08-.77.13-.43.13-.87.26-1.3.39-.84.33-1.57.79-2.36,1.14-.44.19-.84.42-1.26.63-.35.17-.7.34-1.05.51-.54.32-1.05.78-1.42,1.27-.25.32-.45.69-.61,1.1-.1.3-.2.61-.3.91-.26.64-.54,1.34-.7,2.07-.14.66.12,1.22.29,1.66.14.44.28.89.42,1.33.13.41.2.85.37,1.23.24.54.63.96.93,1.45.3.51.52,1.04.87,1.49l3.17,3.17.45.55c.23.33.42.74.73,1,.42.34.89.64,1.31.98l.5.5.69.69c.33.32.65.64.98.96.37.3.66.7,1.05.99.89.64,1.85,1.17,2.87,1.69.77.39,1.62.72,2.05,1.45.46.78.08,1.75-.11,2.49-.02.19-.05.38-.07.57v.61c0,.7.08,1.51-.07,2.1-.16.62-.36,1.37-.61,1.93-.36.74-.72,1.48-1.08,2.21-.13.31-.18.64-.28.98-.08.27-.16.54-.24.81-.12.49-.08,1.16-.08,1.75,0,.29,0,.59,0,.88.08.49.2.86.33,1.28.08.3.15.6.23.9.23.72.5,1.42.76,2.1.22.55.21,1.31.43,1.89.27.7.61,1.33.89,2,.25.62.4,1.28.67,1.88.16.36.4.67.6,1.01.23.38.38.81.63,1.17.26.36.59.7.94.98.26.21.47.48.73.69.61.46,1.43.59,2.21.9.65.25,1.29.43,2,.64.29.09.68.24,1.09.17.95-.16,1.76-.48,2.59-.74.5-.16,1-.32,1.5-.48.55-.22,1.05-.5,1.56-.75.41-.2.82-.4,1.23-.6.59-.39,1.17-.77,1.76-1.16.51-.38.92-.9,1.37-1.34.38-.38.77-.75,1.15-1.13.22-.28.5-.57.78-.79.63-.5,1.5-.81,2.24-1.19.32-.16.65-.32.93-.52.24-.18.49-.36.73-.54.49-.23.98-.46,1.47-.7.72-.37,1.7-.76,2.83-.47.82.21,1.57.57,2.27.88.24.1.47.21.69.34.37.23.64.57.98.82.36.24.72.48,1.07.72.42.3.93.47,1.39.74.35.21.65.47,1,.69.36.19.72.37,1.07.56.5.32.83.82,1.3,1.17.94.71,1.96,1.24,3.06,1.8,1.18.6,2.34,1.24,3.8,1.57.28.06.6.05.93.05.67,0,1.27,0,1.76-.16,1.09-.34,1.97-.75,2.9-1.23.55-.28,1.13-.53,1.59-.9.51-.41.67-1.14,1.02-1.7.19-.24.38-.48.57-.72.24-.38.48-.76.72-1.14.17-.29.26-.63.4-.95.16-.35.32-.71.47-1.06.14-.38.28-.75.43-1.13.55-1.26,1.26-2.46,1.62-3.89.11-.45.07-1.08.07-1.62v-1.23c0-.23-.01-.46-.02-.69-.08-.43-.2-.78-.31-1.15-.05-.22-.11-.44-.16-.66-.15-.47-.38-.87-.59-1.29-.2-.39-.36-.79-.59-1.14-.33-.52-.72-.85-.97-1.49-.21-.55-.37-1.13-.47-1.75-.01-.5-.03-1.01-.04-1.51-.08-.47-.22-.84-.32-1.27-.03-.36-.06-.73-.1-1.09-.07-.32-.16-.61-.31-.86-.22-.37-.61-.91-.42-1.54.13-.43.44-.86.75-1.11.17-.15.34-.3.5-.44.18-.24.37-.49.55-.73.31-.45.63-.91.94-1.36.2-.2.39-.41.59-.61.35-.35.7-.7,1.05-1.05.36-.36.69-.78,1.09-1.09.55-.42,1.29-.68,1.92-1.01.85-.44,1.64-.9,2.4-1.44.35-.25.78-.63,1.04-.96.14-.15.28-.3.43-.44.19-.18.37-.37.56-.55.3-.3.62-.6.87-.96.28-.4.42-.92.69-1.33.19-.26.38-.52.57-.78.39-.62.67-1.31.96-2.03.15-.37.31-.7.41-1.13.08-.36.04-.8.04-1.21Z"/>
      <path class="cls-1" d="M76.07,27.37c-.67-.26-1.18-.69-1.86-.96-.22-.09-.44-.1-.71-.15-.41-.07-.98-.04-1.4,0-.88,0-1.77,0-2.65,0h-1.12c-.27-.04-.54-.01-.78-.07-.33-.09-.66-.17-1-.26-.33-.07-.72-.06-1.11-.06h-3.09c-.56,0-1.18.06-1.68-.04-.6-.11-1.09-.31-1.58-.52-.51-.22-.93-.55-1.37-.83-.59-.37-1.17-.72-1.54-1.3-.28-.45-.48-1-.68-1.52-.12-.31-.19-.63-.35-.9-.3-.5-.79-.84-1.12-1.31-.41-.58-.59-1.35-.9-2.04-.24-.55-.69-.91-.92-1.49-.25-.64-.29-1.43-.51-2.12-.1-.31-.27-.6-.4-.89-.19-.43-.35-.9-.49-1.36-.15-.49-.18-1.09-.38-1.54-.23-.53-.59-.94-.9-1.4-.33-.5-.61-1.03-.98-1.49-.46-.57-1.47-.69-2.07-1.11-.35-.25-.65-.6-1.06-.78-.31-.13-.69-.14-1.06-.22-.36-.1-.72-.19-1.08-.29-.45-.13-.89-.33-1.43-.32-.15.06-.32.06-.45.12-.23.13-.46.26-.7.39-.33.15-.66.3-.99.44-.67.26-1.47.43-2.05.79-.28.17-.47.42-.72.62-.76.61-1.59,1.72-2.01,2.67-.17.39-.28.82-.44,1.23-.2.51-.46.97-.6,1.55-.04.4-.07.79-.11,1.19-.17.52-.34,1.04-.5,1.57-.17.39-.34.79-.51,1.18-.09.29-.19.59-.28.88-.39,1.01-.69,2.09-1.11,3.05-.15.34-.33.68-.53.98-.17.24-.37.48-.49.77-.18.41-.3.86-.52,1.24-.23.35-.45.7-.68,1.05-.15.31-.3.61-.45.92-.33.56-.79.93-1.35,1.26-.62.36-1.32.61-2.15.75-.38,0-.76.01-1.14.02h-3.13c-.2.02-.41.03-.61.05-.38.1-.77.19-1.15.29-.21.02-.41.04-.62.06h-2.57c-.32,0-.63.01-.95.02-1,.17-1.93.49-2.87.7-.51.11-1.19,0-1.7.13-.59.15-.96.47-1.41.75-.2.12-.89.51-.61.87.11.14.4.14.6.09.48-.15.96-.3,1.44-.45.54-.17,1.28-.16,2.02-.16h3.37c.21-.03.43-.06.64-.09.6-.15,1.14-.31,1.93-.31h6.66c.3,0,.6.02.87-.03.47-.09.89-.2,1.31-.33.37-.11.72-.18,1.02-.36.28-.16.59-.34.78-.59.5-.62.78-1.44,1.2-2.15.27-.45.64-.79.95-1.2.37-.5.74-1.05,1-1.65.14-.32.25-.66.34-1.04.04-.26.08-.53.12-.79.14-.56.3-1.15.52-1.65.39-.9,1.16-1.29,1.54-2.26l.23-.74c.12-.31.24-.62.32-.98.03-.36.06-.72.1-1.07.09-.42.24-.78.32-1.22.02-.5.03-1,.05-1.5.09-.53.19-1,.37-1.45.26-.65.76-1.03,1.22-1.49.35-.35.69-.74,1.08-1.04.62-.48,1.42-.86,2.28-1.09.22-.06.45-.06.7-.1.3,0,.59,0,.89,0,.47,0,.98-.03,1.39.05.36.07.67.18.99.29.25.09.49.15.7.27.33.19.55.49.85.71.58.43,1.22.78,1.66,1.33.47.59.8,1.34,1.1,2.11.2.5.34,1.07.45,1.61.03.27.06.53.09.8.07.35.16.66.28.95.29.68.64,1.33.93,1.99.28.64.52,1.29.87,1.85.39.58.79,1.16,1.18,1.74.26.36.56.68.75,1.11.91,2.06,1.36,4.25,3.12,5.49.44.31.96.41,1.55.59.3.09.62.18.95.25.26.03.52.06.78.1.39.1.77.2,1.16.3l.61.05h11.54c.42,0,.83,0,1.25,0,.23-.04.56-.03.78,0,.29.05.52.15.77.22.21.06.63.11.75-.07.22-.32-.56-.52-.75-.6Z"/>
      <path class="cls-1" d="M60.18,43.38c.47-.33,1.06-.54,1.53-.88.55-.4.96-.96,1.5-1.37.32-.22.64-.44.97-.67.32-.29.64-.59.96-.88.26-.2.53-.39.79-.59.25-.2.42-.5.61-.76.32-.45.69-.9.87-1.49.4-1.29-.99-2.38-1.51-3.04-.7-.89-.83-1.71-1.99-2.2-.56-.24-1.16-.36-1.77-.54-.32-.09-.64-.19-.96-.28-.37-.05-.74-.1-1.11-.14-.38-.1-.72-.23-1.14-.31-.59-.02-1.18-.04-1.77-.06-.39-.07-.71-.18-1.05-.28-.72-.2-1.49-.3-2.07-.65-.19-.11-.36-.26-.53-.4-.47-.38-.75-.97-1.1-1.47-.26-.37-.51-.76-.77-1.13-.15-.21-.34-.42-.44-.67-.2-.62-.4-1.24-.6-1.87-.35-.99-.67-2.02-1.04-2.98-.12-.35-.24-.71-.36-1.06-.24-.48-.48-.96-.72-1.44-.3-.58-.56-1.17-.95-1.65-.24-.3-.64-.46-.99-.67-.58-.34-1.14-.5-1.87-.72-.57-.17-1.13-.29-1.9-.28-.22.03-.43.05-.65.08-.52.14-1.04.28-1.57.43-.81.31-1.31.81-1.87,1.36-.3.3-.62.61-.85.98-.39.62-.76,1.38-1.03,2.08-.12.35-.23.71-.35,1.06-.29.72-.59,1.45-.87,2.16-.11.33-.23.65-.34.98-.34.72-.67,1.44-1.01,2.17-.26.44-.61.8-.87,1.25-.57.96-.84,2.32-1.73,2.96-.56.4-1.29.66-2.02.88-.21.04-.43.08-.64.13-.33.1-.65.19-.98.29-.19.02-.37.05-.56.07h-.67c-.41,0-.85.03-1.2-.05-.42-.09-.77-.24-1.23-.32-.42-.07-.8.09-1.09.18-.43.13-.89.2-1.28.37-.85.36-1.56.8-2.01,1.57-.28.47-.4,1.1-.65,1.59-.28.54-.68.96-.94,1.54-.08.18-.23.45-.18.72.09.57.34.9.58,1.3.61,1.03,1.27,1.67,2.27,2.3.73.46,1.42.99,2.17,1.43.61.36,1.33.58,1.88.98.54.39.97.95,1.44,1.42.66.66,1.24,1.07,1.56,2.1.11.34.26.79.17,1.26-.06.34-.17.64-.25.96-.05.34-.11.68-.16,1.02-.2.59-.4,1.18-.6,1.77-.12.39-.06.91-.15,1.34-.09.34-.19.68-.28,1.01-.04.3-.07.61-.11.91-.09.33-.17.66-.26.99-.03.27-.06.53-.1.8-.03.16-.06.33-.1.49-.12.4-.37.91-.27,1.49.22,1.31.94,2.11,1.37,3.21.17.43.15,1.04.33,1.49.38.97,1.12,1.74,2.17,2.05.54.16,1.04-.06,1.47-.19.73-.23,1.45-.53,2.02-.94.25-.18.46-.41.71-.6.44-.35.96-.55,1.46-.85.47-.31.93-.61,1.4-.92.6-.43,1.01-1.05,1.59-1.49.65-.49,1.73-.88,2.67-1.07.3-.06.65-.04,1-.04h3.9c.4,0,.83-.04,1.19.03.44.08.81.2,1.21.32.82.24,1.6.41,2.33.73.45.2.81.51,1.19.78.64.45,1.26.86,1.98,1.23.64.31,1.28.63,1.91.94.79.47,1.72,1.47,3.06.88.64-.28,1.12-.8,1.38-1.46.19-.47.22-1.06.41-1.5.43-.98,1.01-1.86,1.26-3.01.11-.54.04-1.19.04-1.79,0-.49.05-1.06-.03-1.5-.16-.86-.46-1.68-.72-2.45-.17-.56-.35-1.12-.52-1.68-.3-.76-.66-1.47-.92-2.3-.11-.49-.22-.99-.33-1.48-.13-.4-.59-1.25-.51-1.73.16-.97.53-1.75,1.19-2.22ZM57.75,47.31c.1.47.24.89.38,1.31.17.54.39.98.59,1.46.21.51.42,1.02.63,1.54.2.47.47.89.62,1.42.1.37.09.83.09,1.29v1.72c0,.63.05,1.34-.08,1.87-.2.79-.37,1.72-.74,2.35-.33.56-.8,1.06-1.48,1.27-.43.13-.98.02-1.34-.09-.72-.22-1.45-.44-2.17-.66-.81-.28-1.51-.68-2.23-1.04-.41-.19-.81-.39-1.22-.58-.45-.26-.95-.53-1.49-.7-.3-.06-.59-.12-.89-.17-.44-.11-.83-.23-1.33-.32-.72,0-1.44-.01-2.17-.02-.22-.03-.44-.06-.66-.09-.3-.07-.66-.22-1.04-.15-.35.07-.7.14-1.04.21-.33.06-.65.04-.95.12-.31.08-.62.17-.93.25-.53.12-1.03.1-1.42.33-.34.2-.62.49-.94.72-.63.45-1.27.88-1.89,1.32-.86.61-1.69,1.26-2.75,1.68-.63.25-1.18.36-2.1.36-.32,0-.64,0-.89-.08-1.06-.33-1.27-1.73-1.6-2.78-.24-.76-.56-1.49-.73-2.34-.27-1.43.35-2.54.67-3.54.14-.46.18-.99.32-1.43.18-.57.37-1.17.5-1.78.04-.41.08-.81.13-1.22.09-.33.17-.66.26-1,.12-.56,0-1.25-.16-1.66-.14-.32-.28-.64-.43-.97-.17-.4-.32-.79-.55-1.12-.32-.46-.75-.84-1.14-1.23-.5-.5-.99-1.03-1.58-1.44-.48-.29-.97-.59-1.45-.88-.26-.22-.52-.43-.77-.65-.36-.27-.81-.46-1.2-.71-.69-.43-1.59-1.15-1.9-1.94-.1-.26-.1-.55-.15-.88v-.4c0-.63.11-1.09.26-1.55.16-.46.3-.89.55-1.25.57-.81,1.8-1.16,3-1.35.51-.08,1.13.04,1.48.15.31.1.71.27,1.14.19.45-.08.8-.22,1.22-.31.35-.05.7-.09,1.05-.14,1.04-.26,1.98-.58,2.75-1.11.75-.53,1.19-1.44,1.72-2.19.48-.68.97-1.36,1.4-2.1.57-.98.93-2.13,1.41-3.21.44-.88.88-1.77,1.32-2.65.42-.95.64-2.14,1.24-2.91.59-.77,1.42-1.48,2.4-1.87.28-.08.55-.16.83-.24.17-.02.34-.04.51-.06.91,0,1.53.15,2.17.4,1.47.57,2.06,1.24,2.67,2.67.23.54.3,1.25.52,1.8.15.36.31.73.46,1.09.32.81.54,1.68.88,2.46.33.75.84,1.31,1.24,1.99.24.49.48.98.72,1.47.25.42.71.95,1.08,1.25.35.28.66.59,1.06.83.76.44,1.71.63,2.63.91.4.12.78.26,1.2.36.68.15,1.62-.06,2.34.08.46.09.83.25,1.27.36.25.05.5.1.75.15,1.46.44,2.6,1.01,3.17,2.33.11.25.17.52.22.82.05.26.05.67,0,.95-.06.4-.07.69-.2.99-.35.8-1.09,1.13-1.73,1.63-.36.28-.62.72-.91,1.07-.74.74-1.48,1.48-2.21,2.22-.89.71-1.92,1.25-2.3,2.47-.11.36-.11.82-.11,1.3,0,.54-.06,1.13.04,1.62Z"/>
      <path class="cls-1" d="M31.95,37.9c1.04-.29,1.88-.76,2.75-1.21.55-.28,1.27-.56,1.64-1.02.24-.31.39-.66.6-1.01.39-.76.79-1.51,1.18-2.27.71-1.21,1.55-2.31,2.28-3.5.46-.76.8-1.63,1.3-2.34.24-.34.53-.7,1-.8.4-.09.69.14.85.34.56.7.92,1.6,1.47,2.31.2.23.4.46.6.7.16.25.33.5.49.74.24.28.47.57.71.85.21.3.41.61.62.91.28.31.56.61.84.92.19.28.37.55.56.83.31.44.74.89,1.16,1.22.6.47,1.36.78,2.07,1.14.32.16.64.32.97.47.53.31,1.07.57,1.78.7.66.12,1.55,0,1.83-.35.32-.41.03-.81-.29-1-.39-.23-.93-.31-1.4-.46-.86-.27-1.77-.6-2.43-1.09-.36-.31-.72-.62-1.08-.93-.57-.41-1.2-.79-1.63-1.33-.16-.19-.32-.39-.48-.58-.38-.58-.75-1.15-1.13-1.73-.28-.39-.62-.73-.88-1.15-.68-1.09-1.18-2.34-2.16-3.13-.32-.26-.58-.57-1.01-.73-.34-.14-.8-.14-1.29-.14-.18.07-.41.04-.58.1-.35.11-.67.31-.95.5-.51.36-1.03.77-1.39,1.28-.76,1.06-1.2,2.39-1.88,3.55-.2.33-.44.61-.67.91-.4.56-.81,1.12-1.21,1.68-.14.22-.29.44-.43.66-.22.26-.43.52-.65.77-.23.32-.43.68-.74.92-.45.35-1.04.51-1.61.75-.73.31-1.44.63-2.01,1.09-.31.25-.66,1-.2,1.35.33.25.96.22,1.41.1Z"/>
      <path class="cls-1" d="M74.9,30.97c.95-.16,1.99.62,2.49,1,.18.14.71.77.98.58.07-.3-.47-.83-.62-1.05-.58-.87-1.39-1.34-2.43-1.74-.4-.16-.82-.33-1.37-.32-.07,0-.15.02-.22.03-.15.05-.31.1-.46.14-.79.34-1.37.97-1.66,1.81-.12.33-.05.77.06,1.05.31.8.93,2.49,1.79,2.66.45.09.71-.34.62-.76-.22-1.02-.94-2.58.18-3.24.19-.11.39-.11.65-.15Z"/>
      <path class="cls-1" d="M11.92,36.78c-.09.38-.04,1.3.41,1.21.44-.09.75-.53.97-.86.5-.74.94-1.55,1.21-2.52.12-.42.12-1.08-.03-1.47-.36-.9-1.47-1.4-2.78-1.38-.1,0-.19.02-.29.03-.17.04-.34.08-.51.12-.4.13-.88.22-1.29.38-.42.16-.83.38-1.2.6-.25.15-.85.48-.68.93.15.38.66.29.95.11.21-.15.43-.29.64-.43.2-.12.44-.17.68-.25.69-.24,1.44-.41,2.08.04.48.34.69,1.09.48,1.88-.15.6-.48,1.02-.63,1.63Z"/>
      <path class="cls-1" d="M66.04,47.68c.11-.36.21-.73.32-1.09.13-.5.21-1,.4-1.44.22-.5.64-.8.94-1.21.23-.32.43-.67.68-.98.37-.38.75-.75,1.12-1.13.23-.28.49-.57.78-.78.47-.35,1.07-.55,1.56-.89.4-.28.7-.65,1.07-.95.35-.27.77-.49,1.08-.8.23-.23.5-.75-.16-.73-.14.04-.27.08-.41.13-.31.13-.61.3-.87.48-.51.37-.87.9-1.42,1.25l-.99.49c-.5.33-1.01.65-1.51.98-.51.39-.8,1.02-1.2,1.52-.35.44-.83.77-1.17,1.22-.27.36-.43.78-.67,1.19-.35.6-.57,1.24-.83,1.96-.15.41-.28.78-.37,1.28,0,.48,0,.97,0,1.45,0,.61-.08,1.39.03,1.94.07.38.2.68.3,1.02.05.3.11.59.16.89.09.27.18.54.27.81.09.28.11.6.11.97,0,.2,0,.39,0,.59.07.37.16.71.26,1.04.08.28.12.56.22.81.25.64.71,1.04,1.03,1.59.21.36.34.78.5,1.18.38.93.75,1.98.98,3.05.12.58-.1,1.08-.22,1.51-.08.25-.09.55-.14.83-.09.53-.2.92-.32,1.38-.1.42-.11.86-.25,1.22-.27.68-.61,1.32-.93,1.95-.15.31-.31.63-.46.94-.34.54-.98,1.01-1.7,1.16-.53.11-1.53.06-1.94-.1-.34-.16-.68-.33-1.02-.49-.46-.2-.94-.39-1.36-.65-.24-.16-.47-.32-.71-.48-.32-.19-.71-.27-1.07-.43-.62-.26-1.25-.58-1.82-.92-.56-.37-1.11-.74-1.67-1.11-.36-.26-.65-.59-1.04-.83-.62-.38-1.45-.6-2.03-1.01-.67-.48-1.1-1.22-1.81-1.66-.55-.34-1.49-.65-2.18-.82-.27-.04-.55-.08-.82-.13-.43-.11-.99-.43-1.56-.33-.45.08-.8.22-1.21.32-.28.05-.55.09-.83.14-1,.26-2.03.63-2.82,1.12-.69.43-1.13,1.08-1.84,1.5-.4.23-.91.32-1.35.5-.46.19-.9.41-1.31.65-.32.16-.64.32-.96.47-.56.33-1.17.72-1.68,1.11-.39.3-.69.72-1.09,1.01-.5.36-1.14.56-1.62.94-.49.38-.84.92-1.32,1.3-.48.38-1.06.56-1.71.79-.57.2-1.36.46-2.15.26-.55-.14-.97-.44-1.35-.74-.37-.3-.58-.88-.78-1.34-.38-.86-.92-1.56-1.1-2.6-.15-.81.1-1.76-.04-2.58-.09-.5-.23-.89-.33-1.35-.09-.44-.02-.99-.13-1.4-.12-.47-.39-.98-.25-1.59.08-.37.23-.7.35-1.03.23-.66.43-1.33.7-1.94.22-.45.44-.91.66-1.36.25-.62.36-1.33.54-2,.12-.43.29-.82.39-1.27.07-.32.05-.7.05-1.07,0-.24-.01-.48-.02-.72-.09-.53-.24-.94-.34-1.45-.02-.42-.04-.84-.06-1.27-.07-.35-.17-.63-.3-.91-.24-.55-.56-1.1-.92-1.55-.24-.25-.49-.51-.73-.76-.31-.39-.56-.85-.87-1.24-.32-.4-.79-.66-1.24-.94-.41-.26-.82-.55-1.22-.83-.5-.35-.88-.82-1.38-1.17-.37-.26-.82-.41-1.21-.65-.27-.16-.47-.37-.71-.56-.23-.18-.43-.38-.69-.53-.36-.21-.75-.35-1.09-.58-.32-.26-.64-.52-.97-.78-.27-.16-.61.04-.54.41.12.6.73.79,1.15,1.09.36.27.65.62,1.02.88.45.29.9.59,1.35.88.27.13.54.26.81.4.74.43,1.17,1.12,1.82,1.62.34.23.68.46,1.01.7.31.24.58.55.86.83.31.31.65.6.9.96.16.26.32.52.48.77.24.35.51.7.69,1.11.26.58.37,1.5.24,2.33,0,.18-.01.37-.02.55-.08.47.07.96,0,1.42-.15.91-.47,1.67-.69,2.51-.11.45-.08,1.02-.21,1.45-.17.44-.34.89-.51,1.33-.13.42-.2.86-.36,1.26-.18.45-.38.88-.51,1.39-.07.29-.07.63-.07.99,0,.43-.04.91.04,1.29.11.52.25.93.35,1.5.11.67-.08,1.46.06,2.08.17.77.43,1.55.69,2.25.15.42.23.88.44,1.25.32.56.7,1.1,1.08,1.6.16.18.32.37.48.55.3.37.53.86.9,1.16.53.42,1.28.73,2.07.86.56.1,1.15-.21,1.56-.34.8-.25,1.25-.56,1.85-.98.29-.19.57-.37.86-.56.31-.23.58-.5.91-.72.43-.29.8-.62,1.25-.88.45-.26.94-.4,1.33-.7.65-.49,1.08-1.19,1.8-1.62,1.14-.68,2.63-1,3.74-1.69.56-.35.92-.89,1.45-1.27.31-.22.68-.38,1.04-.54.85-.38,1.79-.71,2.84-.89h1.95c.47.08.82.2,1.22.32.63.2,1.22.35,1.72.67.43.27.72.67,1.1.98.28.22.6.39.9.6.2.15.41.3.61.45.62.44,1.28.81,1.9,1.25.61.43,1.23.87,1.88,1.26,1.2.6,2.41,1.2,3.62,1.8.69.35,1.37.75,2.1,1.05.32.11.64.21.96.32.41.16.95.42,1.56.29.57-.12,1.35-.44,1.76-.73.36-.25.55-.61.8-.97.21-.3.43-.61.62-.94.17-.29.26-.62.44-.89.25-.34.51-.67.76-1.01.2-.32.36-.69.52-1.04.36-.82.78-1.67,1-2.65.07-.32.1-.84.04-1.21-.07-.45.03-.93-.07-1.33-.24-.96-.72-1.75-1.01-2.69-.14-.46-.12-1.04-.29-1.46-.15-.34-.31-.67-.46-1.01-.32-.74-.64-1.56-.85-2.39-.04-.33-.08-.66-.13-.99-.09-.45-.23-.82-.32-1.29-.09-.49.03-1.08-.08-1.53-.08-.29-.16-.58-.24-.87-.08-.35-.15-.7-.23-1.04-.1-.33-.32-.85-.24-1.31.04-.22.03-.43.09-.63Z"/>
      <path class="cls-1" d="M57.84,38.58c-.17.07-.34.07-.49.14-.47.2-.91.46-1.36.69-.86.43-1.68.78-2.24,1.49-.54.69-.87,1.51-1.17,2.46-.09.29-.19.59-.28.88-.12.46-.15,1.55-.05,2.08.17.87.5,1.63.69,2.49.1.45.09.94.21,1.33.27.87.77,1.58,1.1,2.43.23.57.4,1.43,1.05,1.56.24.05.42-.11.52-.21.53-.53.21-1.28.06-1.95-.03-.19-.06-.39-.1-.58-.17-.68-.52-1.15-.72-1.79-.2-.73-.4-1.46-.6-2.19-.15-.38-.35-.72-.47-1.12-.16-.49-.2-1.8-.08-2.4.28-1.41,1.14-2.56,2.14-3.27.56-.39,1.24-.66,1.78-1.07.28-.21.76-.86.02-.95Z"/>
      <path class="cls-1" d="M34.61,52.49c.08-.44.03-.98.03-1.46v-2.73c0-.7.08-1.65-.04-2.26-.22-1.14-.65-2.05-1.1-2.94-.2-.39-.4-.79-.6-1.18-.27-.43-.65-.78-1.03-1.09-.44-.35-1.43-1.19-2.15-1.18-.08.02-.15.03-.23.05-.33.13-.34.51-.14.77.18.23.47.37.71.54.22.18.44.35.67.53.6.48,1.33,1.34,1.65,2.09.13.29.21.59.32.9.11.31.22.62.29.99,0,.14.01.29.02.43.07.44.02,1.37-.07,1.73-.1.41-.25.77-.33,1.24,0,.63-.02,1.26-.03,1.89-.03.37-.05.75-.08,1.12-.07.37-.17.7-.24,1.06-.14.66.45,1.77,1.07,1.64.53-.11.77-.59.96-1.04.14-.34.24-.7.32-1.11Z"/>
      <path class="cls-1" d="M53.76,56.21c-.49-.37-1.28-.71-1.87-.97-.72-.32-1.27-.85-2-1.17-.3-.13-.63-.23-.99-.31-.31-.05-.62-.1-.93-.15-.31-.09-.61-.21-.95-.28-.32-.04-.64-.08-.96-.12-.34-.1-.68-.2-1.02-.3-.47-.1-1.11-.06-1.65-.05-.19.03-.39.05-.58.08-.36.09-.68.22-1.06.3-.38.07-.8.03-1.15.12-.77.25-1.54.5-2.31.75-.75.26-1.51.47-2.08.9-.35.26-.55.66-.8,1.02-.32.45-.81.76-1.1,1.24-.1.16-.2.45-.06.64.17.22.55.04.7-.07.46-.34.68-1.05,1.17-1.43,1.02-.81,2.13-1.11,3.54-1.54.96-.29,1.96-.6,3.03-.77h1.24c.6,0,1.32-.07,1.84.05.33.1.66.19,1,.29.36.05.72.09,1.07.14.31.1.62.21.93.31,1.19.37,2.17.71,3.11,1.3.46.29.88.69,1.44.86.31.1.67.04.76-.22.1-.28-.16-.52-.31-.63Z"/>
    </g>
  </g>
</svg>