<?xml version="1.0" encoding="UTF-8"?>
<svg id="Layer_2" data-name="Layer 2" xmlns="http://www.w3.org/2000/svg" viewBox="0 0 271.74 289.7">
  <defs>
    <style>
      .cls-1 {
        fill-rule: evenodd;
      }
    </style>
  </defs>
  <g id="Layer_1-2" data-name="Layer 1">
    <g>
      <path class="cls-1" d="M.87,67.71v10.68c.22.45.45.9.67,1.35.22,1.04-.52,1.71-.67,2.31-.24.92.54,1.47.67,2.12.45,2.13-1.1,5.32,1.44,5.48.06-.03.13-.06.19-.1.17-.82-.14-1.71.1-2.69.25-1.07.94-2.12.48-3.56-.35-.64-.71-1.28-1.06-1.92-.33-1.29.38-2.08.58-2.69v-2.4c0-2.39-.18-4.98.1-6.73.35-2.29-2.13-3.81-.58-6.25.55-.51,1.09-1.03,1.64-1.54.99-1.38,1.55-3.21,2.98-4.14.81-.52,2.28.14,3.08-.29,1.56-.84,3.49-2.8,5.39-3.17,1.3-.26,3.09.28,4.23-.19,1.82-.75,2.35-2.72,4.04-3.46,1.59-.7,3.48-1.26,5.1-1.73h1.64c1.18-.37,1.95-1.95,3.37-2.4.97-.31,1.82-.04,2.69-.48,1.59-.79,3.19-2.44,5-3.08,1.73-.48,3.46-.96,5.19-1.44,1.41-.63,2.91-2.32,4.42-2.98.96.03,1.92.06,2.89.1.46-.15,1.03-.51,1.73-.77,1.84-.69,3.07-2.81,4.91-3.65.86-.4,2.43-.32,3.27-.77.69-.37,1.18-1.37,2.02-1.64,1.79-.57,3.36-.35,4.91-.96,1.35-.9,2.69-1.8,4.04-2.69.61-.25,1.28-.55,1.73-.67.61.06,1.22.13,1.83.19,1.42-.37,2.52-1.09,4.14-1.64,1.57-.53,2.43-2.39,3.94-3.08,1.14-.52,2.64.04,3.85-.38,1.09-.93,2.18-1.86,3.27-2.79,1.98-.78,4.46-2.25,6.35-2.69.87.03,1.73.06,2.6.1,1.71-.5,4.6-3.3,6.35-4.04,1.37-.57,3.81-.1,5.19-.58,1.52-.52,2.15-2.53,3.65-2.98,1.19-.36,1.94-.02,2.79-.58.77-.61,1.54-1.22,2.31-1.83h3.17c.48-.14,1.37-.41,2.02-.67.58-.45,1.15-.9,1.73-1.35.8-.32,1.6-.64,2.4-.96,1.03-.71,2.05-1.41,3.08-2.12,1.68.06,5.67,1.98,6.44,2.98.6.77,1.44,2.06,2.31,2.5.83.42,1.77.23,2.79.58,1.25.42,2.64,1.5,4.14,1.92,1.06.03,2.12.06,3.17.1.83.55,1.67,1.09,2.5,1.64.58.1,1.15.19,1.73.29.89.37,2.21,1.13,3.08,1.44.61.06,1.22.13,1.83.19,1.25.45,2.43,1.29,3.85,1.83,1.31.5,2.56,2.15,3.75,2.89.97.6,2.17.57,3.37.96.35.22.71.45,1.06.67h2.21c.74.26,1.47.51,2.21.77,1.88.79,4.2,3.93,7.41,2.6.3-.19.21-.05.29-.48-1.11-1.52-2.07-1.4-3.85-2.12-.93-.54-1.86-1.09-2.79-1.64-.71-.06-1.41-.13-2.12-.19-1.35-.58-2.91-2.03-4.23-2.5-1.47-.52-2.14-.51-3.37-1.06-.51-.38-1.03-.77-1.54-1.15-2.05-.79-3.44-.91-5.58-1.64-.77-.58-1.54-1.15-2.31-1.73-1.52-.58-2.84-.52-4.14-1.15-1.08-.53-3.41-2.29-4.14-2.5h-3.27c-.9-.64-1.8-1.28-2.69-1.92h-1.64c-.35-.1-1.2-.61-1.64-.87-.95-.56-1.86-1.96-2.98-2.4-1.21-.48-3.95-.74-4.23-1.92h-.96v.48c-2.07.04-3.21,1.26-4.91,1.64-1.06-.03-2.12-.06-3.17-.1-.35.32-.71.64-1.06.96-1.64,1.03-3.68,2.32-5.48,2.98-2.6.95-5.54,1.43-7.89,2.69-.73.39-1.71,1.69-2.89,2.02-4.95,1.4-9.32,3.54-14.24,5.39l-.87.87c-.51.13-1.03.26-1.54.38-1.11.7-2.55,1.79-3.85,2.31-.9.36-1.78-.06-2.69.29-.74.51-1.47,1.03-2.21,1.54-1.02.37-1.74.85-2.69,1.06-.71.1-1.41.19-2.12.29-3.16,1.28-6.5,3.57-9.52,4.91-1.22.54-2.12.42-3.46.87-1.54.51-3.17,2-4.71,2.6-.77.13-1.54.26-2.31.38-1.24.53-2.11,1.98-3.56,2.5-2.06.73-3.4,1.05-5.29,1.83-1.44.59-3.15,2.02-4.71,2.6-2.34.87-3.95,1.22-6.06,2.12-1.03.44-2.2,2.13-2.98,2.5-.87.41-1.75.58-2.4.87-2.27,1-4.74,1.95-6.83,2.79-.74.1-1.47.19-2.21.29-3.87,1.7-6.96,4.27-10.96,5.77-.77.1-1.54.19-2.31.29-1.41.74-2.82,1.47-4.23,2.21h-1.54c-1.49.34-6.03,3.98-6.73,5.19-.1,1.6-.19,3.21-.29,4.81-.22.06-.45.13-.67.19,0,1.84.57,1.25.87,2.21Z"/>
      <path class="cls-1" d="M181.88,26.93c-1.35-.7-2.98-1.76-4.33-2.4-1.22-.22-2.44-.45-3.65-.67-1.12-1.03-2.24-2.05-3.37-3.08-1.79-1.08-4.27-1.11-6.44-1.83-1.58-.52-3.2-2.12-4.71-2.69-1.15-.1-2.31-.19-3.46-.29-1.79-.8-3.42-2.21-5-3.17-1.54-.94-3.24-1.25-4.81-2.21-.88-.54-1.64-1.48-2.98-1.54-1.84,1.41-4.69,1.43-5.48,3.85-.03,4.49-.06,8.98-.1,13.47.26.61.51,1.22.77,1.83.32,1.6.24,3.44,0,4.52-.46,2.06.35,4.19.48,5.67v3.27c.63,3.92-2.39,11.87,1.44,13.27,1.37.5,3.12-.8,4.23-1.06h1.64c.93-.51,1.86-1.03,2.79-1.54h3.37c1.21-.39,1.76-1.99,2.79-2.6,1.19-.16,2.37-.32,3.56-.48,2.14-.8,3.16-2.54,4.81-3.27,1.28-.06,2.57-.13,3.85-.19.69-.26,3.59-1.53,4.14-2.02,1.03-.93,1.25-2.63,2.79-3.08.72.22,1.35-.09,1.92-.19,1.26-.23,2.47.41,4.04-.19.9-.34,1.98-1.51,2.89-1.83,1.36-.48,2.36-.28,3.65-.58.58-.38,1.15-.77,1.73-1.15.03-.16.06-.32.1-.48-3.45-3.82-5.78.27-9.04,1.25-1.04.31-2.02.02-3.17.48-3.45,1.37-7.08,3.84-10.58,5.19-1.56.6-2.63.77-4.23,1.35-1.28.71-2.56,1.41-3.85,2.12-1.96.76-3.88,1.06-5.67,1.92-1.65.79-6.67,4.05-8.95,3.37-1.8-.54-3.33-2.44-2.89-5.29.54-3.46.38-8.47.38-12.98v-4.62c-.51-1.92.14-5.03-.38-7.41-.14-.66-.57-1.19-.48-1.92.31-2.65-.79-5.88,1.15-6.83,1.6-.6,2.82,1.05,3.75,1.44,1.38.59,2.79.51,4.14,1.06.88.36,1.88,1.46,3.08,1.64,2.33.35,3.42,1.92,5.48,2.69,1.94.73,3.56,1,5.48,1.83,1.37.59,2.83,1.78,4.14,2.4,1.73.51,3.46,1.03,5.19,1.54,2.75,1.1,5.79,2.78,8.37,4.14,2.05.64,4.1,1.28,6.16,1.92,1.32.68,2.05,2.3,3.56,2.98.76.25,1.73-.58,2.21-.96,1.4-5.52-7.14-4.89-10.48-6.64Z"/>
      <path class="cls-1" d="M73.77,73.29v2.4c.27,1,1.35,1.86.87,3.65-.17.65-.72.75-.87,1.54-.48,1.67,2.8,4.88,5.1,3.75.93-.93,1.86-1.86,2.79-2.79,1.1-.42,1.62.46,2.4.67,1.91.39,2.5-2.26,3.94-2.69h3.27c1.22-.26,1.98-1.33,2.89-1.92,1.44-.67,2.89-1.35,4.33-2.02.32-.42.64-.83.96-1.25.81-.43,1.6-.09,2.69-.38.88-.24,1.19-1.01,1.83-1.44,1.73-1.19,4.16.15,4.91-2.21.98-.56,2.5-.18,3.56-.67,1.09-.51,1.76-1.66,2.98-2.12.64-.03,1.28-.06,1.92-.1,1.54-.74,3.08-1.47,4.62-2.21.03-.1.06-.19.1-.29-.43-.71-1.53-1.28-2.69-1.25-.64.61-1.28,1.22-1.92,1.83-1.1.19-1.91-.75-2.98-.38-2.11.72-4.26,2.5-6.25,3.46-3.48,1.67-7.02,2.8-10.48,4.33-1.22.54-1.69,2.04-2.98,2.5-1.58.56-3.43.14-5.1.77-.87.33-2.01,1.45-2.98,1.83-1.64.64-3.5.95-5,1.64-.86.39-2.05,1.69-3.46,1.35-1.01-.25-2.31-2.54-2.6-3.46v-2.98c-.22-.64-.45-1.28-.67-1.92.06-.64.13-1.28.19-1.92-.03-2.47-.06-4.94-.1-7.41.19-.45.38-.9.58-1.35.31-1.5-.44-2.5-.58-3.46-.38-2.7.41-6.26,1.25-7.98.23-.69-1.75-5.45-1.25-7.98.2-1.01,1.08-1.37,1.64-2.02,1.04.11,2.19.86,3.08,1.15,1.41.45,2.82.9,4.23,1.35,1.72,1.11,3.83,2.56,5.87,3.37,1.23.49,1.9.58,3.17,1.06l.87.87c.27.16,2.71,1.1,2.89,1.15,1.3.4,2.19.22,3.56.67.64.45,1.28.9,1.92,1.35,1.47.77,2.53.88,4.33,1.44,2,.63,3.62,2.35,5.48,3.17,4.14,1.83,9.09,2.82,11.73,6.16-.14.94-1.02,1.65-.29,2.21,1.22.47,2.84-1.26,3.56-1.83.97-.77.38-2.26,1.06-3.37.97-1.58,2.53-2.53,3.56-3.94.26-.67.51-1.35.77-2.02.62-.97,1.65-1.42,1.73-2.98-.38-.89-1.08-1.6-1.92-2.02-.22.03-.45.06-.67.1-.22.45-.15,1.25-.38,1.83-.59,1.45-2.24,2.81-3.65,3.46-1.58-.23-2.22-1.68-3.94-1.73l-.19.19v.29c.56.72,1.25,1.63,1.35,2.79-.35.26-.71.51-1.06.77-.26.03-.51.06-.77.1-1.23-1.17-3.06-3.17-3.37-5.19-.82-.44-1.97.18-2.98-.1-.32-.26-.64-.51-.96-.77-2.95-.99-3.35,2.95-6.35,2.6-.03-.26-.06-.51-.1-.77.69-.75,1.34-1.22,1.92-2.12-.19-.42-.38-.83-.58-1.25-.74-.32-1.47-.64-2.21-.96-.91-.19-1.94.29-2.69-.19-1.6-1.41-3.21-2.82-4.81-4.23-1.38-.51-1.61,1-3.17.77-1.31-.2-1.88-1.03-2.89-1.25-.93-.21-1.38.38-2.31.29-.44-.87.37-2.76.1-4.23-2.08-1.28-5.19-2.06-7.41-.67-.45.42-.9.83-1.35,1.25h-.67c-1.3-.74-2.84-4.6-.96-6.06,1.22-.54,2.44-1.09,3.65-1.64.42-.32.83-.64,1.25-.96,2.89-1.19,5.77-2.37,8.66-3.56.32-.29.64-.58.96-.87.32-.03.64-.06.96-.1,1.47-.77,2.95-1.54,4.42-2.31h.87c.71-.45,1.41-.9,2.12-1.35,1.88-.87,3.63-1.03,5.48-1.92,3.02-1.46,6.38-2.99,9.52-4.42,1.46-.66,8.74-4.15,9.91-3.94.64.35,1.28.71,1.92,1.06.41,1.71-.28,2.57-.58,3.94v3.08c-.26.32-.51.64-.77.96-.5,1.78.51,3.08.77,3.94.48,1.58-.37,3.23-.58,4.14-.43,1.9.47,3.76.67,5.29.46.29.6.33,1.25.29,2.65-3.7-.19-3.42.29-6.64.7-4.64,1.7-5.33-.58-9.14.19-2.06,2.3-3.52,1.54-6.16-.26-.29-.51-.58-.77-.87-.47-1.23-.22-1.54-1.25-2.12-.27-.21-.73-.22-1.25-.19-2.08,1.22-4.55,1.76-6.93,2.69-1.45.57-2.92,1.81-4.52,2.31-.35.03-.71.06-1.06.1-1.01.48-2.13,1.56-3.17,2.02-1.35.6-2.87.92-4.14,1.73-.19.22-.38.45-.58.67-1.47.64-3.06.62-4.52,1.15-1.56.57-3.26,1.96-4.71,2.6-2.37,1.03-4.7,1.6-7.02,2.79l-.87.87c-.93.22-1.86.45-2.79.67-1.22.67-2.44,1.35-3.65,2.02-2.13.98-4.46,1.74-6.25,3.08-1.03,1.35-2.05,2.69-3.08,4.04-.58.35-1.15.71-1.73,1.06-.91.7-2.07,2.88-2.4,4.04-.57,1.99,1.21,3.26.58,5.48-.14.49-.84.83-.58,1.73.21.71.89,1.68.58,3.08-.75,3.3-.48,8.74-.48,13.08-.03,2.37-.06,4.75-.1,7.12.19.32.38.64.58.96ZM104.84,49.53c.19.03.38.06.58.1.19.16.38.32.58.48-.03.22-.06.45-.1.67l-.19.19c-.8-.03-1.16-.3-1.25-1.06l.38-.38ZM98.59,45.69l.29-.38h.67c.43.39.69.69,1.06,1.15-.05.95-.36,1.07-.96,1.44-1.11-.07-1.81-1.26-1.06-2.21Z"/>
      <path class="cls-1" d="M203.81,29.82c1.93.79,3.4,2.71,5.39,3.46,1.33.5,2.46,1.27,3.56,1.64.87.13,1.73.26,2.6.38,2.04.68,4.44,2.47,6.54,3.17.55.1,1.09.19,1.64.29,1.28.67,2.48,2,3.85,2.5.8.16,1.6.32,2.4.48,2.75,1.1,5.03,3.31,8.18,4.14,2.44.64,3.6,1.69,5.67,2.4,1.01.35,2.05.05,2.79.58.58.64,1.15,1.28,1.73,1.92.48.22.96.45,1.44.67.29.42.58.83.87,1.25,1.79,1.28,5.94-1.78,4.52,3.56-.55.1-1.09.19-1.64.29-.71-.74-1.41-1.47-2.12-2.21-.8-.16-1.6-.32-2.4-.48-1.31-.41-3.45-1.25-4.81-1.64-1.03-.1-2.05-.19-3.08-.29-.48-.35-.96-.71-1.44-1.06-2.14-1.02-4.23-1.38-6.06-2.6-.64-.51-1.28-1.03-1.92-1.54-1.83-.77-4.17-.67-6.25-1.54-1.14-.47-1.5-1.74-2.69-2.12-1.68-.53-3.07-.21-4.52-1.06-1.2-.71-3.05-1.69-4.42-2.12-1.09-.34-1.71-.09-2.69-.38-1.39-.41-2.96-2.55-5.39-1.54-1.1.46-3.78,3.81-3.17,5.77.32,1.05,1.55,2.22,1.83,3.37.38,1.57-.66,2.26-.48,3.56.03,4.26.06,8.53.1,12.79-.19.51-.38,1.03-.58,1.54-.52,2.19.26,5.04.58,6.44.26,1.14-.42,1.86-.58,2.6.03,2.69.06,5.39.1,8.08,1.9,4.96,5.65,1.32,8.37.58h2.02c.4-.09,2.1-.86,2.6-1.15,1.86-1.09,2.96-3.02,5.19-3.85,1.38-.51,2.18.99,3.56.29.64-.71,1.28-1.41,1.92-2.12.98-.69,3.69-2.39,4.71-2.69.93.16,1.86.32,2.79.48,1.45-.43,2.91-1.91,4.14-2.69,1.15-.61,2.31-1.22,3.46-1.83.51-.45,1.03-.9,1.54-1.35,1.12-.03,2.24-.06,3.37-.1.59-.2.9-.88,1.25-1.35,1.37-1.81,3.28-2.56,5.96-2.02,1.97-1.24,4.07-3.57,4.81-5.96.23-.74.08-1.68.29-2.4,2.02-.55,6.83.62,8.27,1.44.1-.06.19-.13.29-.19-.28-3.01-4.05-2.52-6.44-3.27-.71-.35-1.41-.71-2.12-1.06h-3.56c-.51-.29-1.05-1.45-1.25-2.02-1.1-.73-2.58-.95-3.85-1.44-.67-.55-1.35-1.09-2.02-1.64-.58-.1-1.15-.19-1.73-.29-2.85-1.07-6.12-2.26-8.75-3.46-1.47-.83-2.95-1.67-4.42-2.5l-3.46-1.15c-3.58-1.68-7.58-3.72-11.16-5.48-3.4-1.68-7.29-2.45-10.48-4.42-.71-.54-1.41-1.09-2.12-1.64-1.18-.61-2.42.21-3.75-.29-1.12-.99-2.24-1.99-3.37-2.98-.79-.48-1.77.17-2.89-.1-2.41-.57-3.93-2.44-7.12-2.4-.22.16-.45.32-.67.48.03.1.06.19.1.29,1.48,2.43,11.62,4.59,15,5.96ZM252.48,61.08c-.58,1.19-3.25,1.37-4.52,2.02-1.76.91-3.48,2.71-5.48,3.37-.64.21-.97-.16-1.54.1-1.74.8-3.92,2.06-5.58,3.08-1.12.48-2.24.96-3.37,1.44-.45.38-.9.77-1.35,1.15-1.47.55-2.64.26-4.14.67-1.73.47-2.83,1.87-4.33,2.5-1.54.42-3.08.83-4.62,1.25-3.3,1.31-5.71,4.72-10.29,4.71-.63-.54-1.48-.93-1.73-1.83.03-.58.06-1.15.1-1.73-.17-.77-.86-1.57-.58-2.89.15-.72.72-1.26.58-2.31-.8-5.96-.12-11.74-.1-17.7,0-1.33.6-1.9.48-2.89v-3.08c-.29-.45-.58-.9-.87-1.35-.03-.87-.06-1.73-.1-2.6-.28-1.34-.74-2.58.19-3.75.48-.69,1.43-.28,2.31-.58,2.02.12,3.89,1.85,5.48,2.5,1.26.51,2.4.14,3.37.77,1.09.71,2.15,1.88,3.56,2.31,2.71.83,5.32,1.39,7.69,2.31.71.58,1.41,1.15,2.12,1.73.51.06,1.03.13,1.54.19.93.58,1.86,1.15,2.79,1.73,1.25.57,2.64.31,3.85.96l.67.67h1.35c1.09.33,2.25,1.7,3.27,2.21,1.47.51,2.95,1.03,4.42,1.54.38.26.77.51,1.15.77,1.49.45,4.78.49,3.65,2.69Z"/>
      <path class="cls-1" d="M132.16,36.93c-.16-.03-.32-.06-.48-.1-.1.16-.19.32-.29.48-.54,1.23.52,4.43.77,5.48-.63.73-1.17,1.47-1.73,2.31.04.85.44,1.37,1.06,1.64.26.03.51.06.77.1.19-.22.38-.45.58-.67.74-.88-.35-2.19-.67-3.08,1.98-1.07,2.27-5.1,0-6.16Z"/>
      <path class="cls-1" d="M198.71,42.9c0-3.25-.3-4.78-3.27-5.19-1.31.1-2.63.19-3.94.29-.95.32-1.44,1.39-2.21,1.73-1.69.74-3.65,1.09-5.19,2.02-.67.55-1.35,1.09-2.02,1.64-8.7,3-16.39,7.42-24.24,11.25-3.54,1.73-10.7,3.43-12.79,6.25-.31,1.51.51,2.68,1.25,3.46-.14,1.28-2.03,2.78-3.56,2.5-.42-.07-.85-.45-1.54-.29-1.06.25-1.9,1.3-2.4,2.12-.72,1.16-.48,3.5-.48,5.29v5.96c.78,3.88,4.42,5.66,6.25,8.56-.17,3.76-7.39,2.5-6.06,8.08.1.1.19.19.29.29h.19c.91-.77.77-2.09,2.21-2.4,2.36-.52,3.68,1.33,5.1,1.92.58.1,1.15.19,1.73.29,2.09.75,4.43,2.29,6.44,3.17,1.85.81,3.79,1.09,5.1,2.4-.15,1.9-1.29,1.67-2.6,2.4-1.33.75-3.39,1.35-4.71,2.21-1.53.99-3.11,2.28-5.1,2.89-1.09.33-4.65.41-5,.19-2.17-1.32-1.86-8.4-2.69-11.06-1.68-.9-1.15,3.06-1.15,4.71,0,3.95-.21,8.52,2.69,9.52,4.3,1.49,10.08-1.64,12.79-3.46.51-.55,1.03-1.09,1.54-1.64.54-.32,1.09-.64,1.64-.96.47-.09.95.25,1.35-.1.22-.38.45-.77.67-1.15,1.47-1.14,3.25.55,4.62-.77.58-.64,1.15-1.28,1.73-1.92.93-1.41.5-4.36,2.31-4.91,2.62-.78,4.46,1.26,7.31.58.61-.32,1.22-.64,1.83-.96,1.12-.22,2.24-.45,3.37-.67.76-.28,2.03-1.34,3.08-1.64,1.37-.38,2.28.22,3.37-.48.38-.61.77-1.22,1.15-1.83,1.07-.76,2.4-.1,3.46-.77,1.02-.65,4.39-3.63,4.81-4.71.03-.96.06-1.92.1-2.89.62-1.6,1.99-3.55,2.6-5.19.76-2.04-.59-3.54-.77-4.71,2.96-3.05.41-6.41.77-10.1.09-.91-.69-1.25-.87-2.21.03-1.96.06-3.91.1-5.87.29-.48.58-.96.87-1.44.32-1.37-.76-1.83-.96-2.69-.45-1.86.72-2.56.96-3.56.27-1.11-.37-2.04-.1-3.27v-2.89ZM187.94,90.41c-.76,1.58-3.1,1.9-4.91,2.5-1.93.65-3.39,2.32-5.39,2.89-1.39.39-2.99.03-4.52.48-.46.14-.77.73-1.44.67-2.7-.25-7.62-3.25-9.52-1.92-.1.8-.19,1.6-.29,2.4-1.55.83-2.78-.84-3.94-1.15-.8-.21-1.47-.04-2.02-.29-.1-.32-.19-.64-.29-.96.03-.1.06-.19.1-.29.97-.56,2.82-.05,4.04-.29.1-.13.19-.26.29-.38-.11-.94-1.31-2.04-2.02-2.31-.73-.28-1.26.24-1.92-.1-1.2-.6-2.21-2.33-4.23-1.73-.19.16-.38.32-.58.48.17.88,1.92,1.09,2.5,1.64.36,1.64-.35,2.99-2.12,2.21-1.02-.45-1.24-1.88-2.12-2.4-.52-.31-.8-.21-1.15-.67-.25-1.27.24-1.82.48-2.69-.58-1.05-1.01-.72-2.02-1.35-1.38-1.28-2.76-2.57-4.14-3.85-.77-1.31-1.54-2.63-2.31-3.94.03-1.38.06-2.76.1-4.14-.72-2.77-.49-3.82,1.06-5.48,3.01,0,4.41,1,6.25,2.02.42.1.83.19,1.25.29.26.26.51.51.77.77.45.03.9.06,1.35.1.95.35,2.28,1.2,3.17,1.64,1.15.57,2.21.55,3.46,1.06,2.86,1.16,6.15,2.96,9.04,4.23,1.56.68,2.83.63,4.33,1.25.93.58,1.86,1.15,2.79,1.73h1.25c.84.29,2.1,1.19,2.89,1.64,1.56.88,8.99,2.71,9.62,3.56.4.54.36,1.74.19,2.4ZM162.17,74.73c.34-.34.63-.5,1.06-.77,1.64.07,3.8.28,4.04,1.83.1.27.05.42-.1.67-.92,1.24-3.86-.58-4.71-.87-.19-.3-.26-.33-.29-.87ZM189.48,86.76c-.49-.14-.49-.25-.67-.67.13-.19.26-.38.38-.58.57.13.65.18.67.87-.13.13-.26.26-.38.38ZM196.98,77.72c-.37,1.16-2.55,3.45-3.65,3.94-.71.23-.79-.24-1.25-.38-1.91-.59-4.33.71-5.29,1.35-.21,1.44.16,2.13-1.15,2.79-1.32-.12-1.91-.93-2.89-1.35-1.09-.26-2.18-.51-3.27-.77-1.15-.67-2.31-1.35-3.46-2.02-1.16-.33-1.98,0-2.79-.58-.66-.48-.59-1.58-.38-2.4.56-.39,1.04-.68,2.02-.67.91.72,1.31,1.86,2.69,2.12.03-.03.06-.06.1-.1.3-.17.32-.27.48-.58-.17-1.57-1.22-1.31-2.21-2.02-.35-.45-.71-.9-1.06-1.35-.92-.29-2.46.27-3.37-.1-.87-.35-1.21-1.21-1.92-1.64-.93-.55-1.87-.19-2.79-.58-.32-.35-.64-.71-.96-1.06-.58-.16-1.15-.32-1.73-.48-1.78-1-2.98-3.02-4.62-4.23-1.11.15-1.03.97-1.83,1.25h-3.46c-.28.47-.41,1.1-.48,1.83-.68.44-1.9.29-3.08.29-.42-.38-.83-.77-1.25-1.15v-.87c.62-1.43,1.77-.83,2.98-1.64.32-.32.64-.64.96-.96v-.58c-.16-.1-.32-.19-.48-.29-.81-.26-1.38.3-2.12.38-1.57.18-2.68-2.09-3.17-3.08.05-3.62,8.82-6.02,11.83-7.31,2.18-.99,4.36-1.99,6.54-2.98.26-.38.51-.77.77-1.15,1.59-.93,3.86-1.06,5.58-1.64,1.05-.35,2.49-1.55,3.56-2.02,5.47-2.42,10.55-4.56,15.68-7.31,2.84-.1,5.16-.06,5.39,2.4-.48.58-.96,1.15-1.44,1.73-.56,1.42.39,3.29.29,4.52-.19,1.19-.38,2.37-.58,3.56.16.71.9,3.8.87,4.33-.22.58-.45,1.15-.67,1.73.26.61.51,1.22.77,1.83v6.54c.21.61.77.99.87,1.73v8.95Z"/>
      <path class="cls-1" d="M70.12,70.6c-.25-1.42-.88-2.84-1.15-4.04-.13-.56.22-.77.29-1.06v-4.04c.19-.64.38-1.28.58-1.92.08-.89-.44-1.64-.58-2.31v-8.56c-.14-.61-.63-1.15-.58-2.02.22-.96.45-1.92.67-2.89-.26-1.67-2-4.73-3.85-4.91-2.73,1.81-5.89,2.36-9.14,3.75-1.92.99-3.85,1.99-5.77,2.98-.55.1-1.09.19-1.64.29-2.3.92-4.74,2.8-7.02,3.56-6.05,2.02-11.38,4.54-17.22,7.12-.29.29-.58.58-.87.87-.51.06-1.03.13-1.54.19-2.37.95-5.56,2.21-7.5,3.75-1.41,1.12-1.81,3.23-2.89,4.71-.93,1.29-3.22,2.2-3.75,3.85-.45,1.41-.34,3.95.1,5.19.13.36.69.53.48,1.25-.16.19-.32.38-.48.58-.47,1.23-.94,10.68-.48,12.5.2.81.48,1.58.48,2.89-.03,2.72-.06,5.45-.1,8.18.51.83,1.03,1.67,1.54,2.5.29.89-.21,1.94-.29,2.5.16.93.32,1.86.48,2.79.39,2.2-1.03,3.35-1.64,4.62-.47,1.25.45,1.8.67,2.5v3.85c.22.32.45.64.67.96.03,1.51.06,3.01.1,4.52-.16.43-.65.65-.77,1.25-.69,3.44,1.87,4.98.1,8.18.07.88.46.75.67,1.25.03.61.06,1.22.1,1.83.47,1.19,3.36,2.06,5.29,1.25.92-.39,1.48-1.34,2.21-1.83.83-.26,1.67-.51,2.5-.77.95-.4,1.82-1.32,2.69-1.73,1.21-.57,2.2.16,3.37-.1.1-.02,2.32-.98,2.6-1.15.55-.51,1.09-1.03,1.64-1.54.99-.38,1.99-.77,2.98-1.15.75-.76.66-1.61,1.73-2.12,1.08-.35,1.48.92,2.79.38,2.31-.94,4.22-3.32,6.64-4.33,1.07-.45,1.83-.32,2.98-.67.96-.48,1.92-.96,2.89-1.44.87-.16,1.73-.32,2.6-.48.71-.61,1.41-1.22,2.12-1.83.7-.4,1.42.2,2.31-.1.67-.58,1.35-1.15,2.02-1.73.91-.6,2.16.14,3.27-.29,1.38-1.15,2.76-2.31,4.14-3.46.52-.76-.02-1.82.29-2.79.27-.84.99-1.48,1.35-2.21.48-1.27-.77-2.21-.77-4.04-.06-2.31-.13-4.62-.19-6.93.13-.96.26-1.92.38-2.89-.22-1.32-.04-3.02-.38-4.62-.17-.8-.74-1.76-.48-3.08.26-1.31,1.26-1.69,1.83-2.6.38-1.12.77-2.24,1.15-3.37-.03-.87-.06-1.73-.1-2.6.16-.87.32-1.73.48-2.6-.1-.5-.57-1-.38-1.83.21-.93.64-2.59.38-4.04ZM14.04,68.39c.19-.22.38-.45.58-.67.19.03.38.06.58.1.49.19.72.43.96.87-.03.32-.06.64-.1.96-.36.21-.6.3-1.25.29-.26-.32-.51-.64-.77-.96v-.58ZM65.69,102.15c.47,1.74-.79,8.13-1.35,9.04-2.84,4.69-9.72,6.6-15.39,8.56-.29.26-.58.51-.87.77-1.97.89-3.58,1.77-5.29,2.69-.32.03-.64.06-.96.1-1.47.83-2.95,1.67-4.42,2.5-.64.13-1.28.26-1.92.38-.83.34-1.46,1.14-2.21,1.44-1.03.26-2.05.51-3.08.77-.95.39-1.26,1.52-2.02,1.83-3.58,1.44-6.93,2.45-10.68,3.65-1.93.62-2.41,2.41-5,1.64-1.61-2.41-1.34-9.91-.77-13.56v-.19c-.19-1.07-.73-1.72-.96-2.4v-3.56c-.18-.72-.97-.87-.77-2.02.21-1.18,1.21-2.68,1.54-3.65.8-2.4-.77-3.86-.77-5.77v-6.93c-.26-.55-.51-1.09-.77-1.64.03-2.92.06-5.84.1-8.75-.22-3.23-.21-7.27,0-10.58.11-1.66-.71-3.62,0-4.91.23-.48.53-.51.96-.77,2.53.01,3.53.45,5.39,1.15.35.29.71.58,1.06.87,3.53,1.22,6.56,2.49,9.43,4.23,1.97,1.2,4.8,1.12,6.73,2.02,2.03.95,4.2,2.93,6.35,3.65,3.48,1.18,6.34,2.31,9.81,3.65.64.48,1.28.96,1.92,1.44.54-.03,1.09-.06,1.64-.1,1.14.28,1.85,1.22,2.79,1.73,1.86,1.01,3.74,1.38,5.58,2.4.51.42,1.03.83,1.54,1.25.98.61,2.08.48,2.4,1.73.58,2.25-.88,3.26-.87,5.19,0,1.14.67,1.37.87,2.12ZM58.29,87.43c.16-.06.32-.13.48-.19.79.13,1.1.49,1.44,1.06v.48c-.19.13-.38.26-.58.38-1.14-.02-1.84-.69-1.35-1.73ZM67.23,80.6c-1.08,1.72-3.63,2.16-5.58,2.79-.54.42-1.09.83-1.64,1.25-.44.17-4.18-1.19-4.71-1.54-.5-2.57-.76-4.13-3.65-4.23-3.62,2.73-3.73.3-6.16-1.64-2.42.15-1.44,1.77-2.79,2.69-1.54,1.06-4.24.25-4.81-.96v-1.06c.84-.44,1.84-.07,2.6-.58.13-.48.26-1.08.1-1.64-.16-.16-.32-.32-.48-.48-.83-.16-1.63,1-2.79.48-.58-.64-1.15-1.28-1.73-1.92-.64-.42-1.24-.71-1.83-1.06-.86.78-.12,2.04-1.35,2.69-2.34.01-2.43-1.55-3.46-2.79.19-.45.38-.9.58-1.35-.16-.26-.32-.51-.48-.77-1.04-.29-1.65-.14-2.31.38-.97-.14-1.38-.79-2.21-1.15-1.01.11-1.38.76-2.02,1.25-.75-.08-.87-.43-1.35-.58-.87-.06-1.73-.13-2.6-.19l-.29-.38c.06-.1.13-.19.19-.29.85-1.15,3-1.52,3.65-2.79.03-.22.06-.45.1-.67-.13-.06-.26-.13-.38-.19-1.04-.33-1.68.74-2.5.96-1.18.33-2.33-.23-2.98-.48-2.68-4.52,6.27-6.39,8.56-7.98,1.85-1.29,4.32-1.87,6.54-2.79,1.62-.67,3.52-1.8,5.1-2.4.58-.1,1.15-.19,1.73-.29,5.44-2.54,11.2-5.54,16.83-7.98,2.91-1.26,6.01-1.79,8.37-3.56,4.11-.03,2.99,2.03,2.98,4.62.13.77.26,1.54.38,2.31-.19.89-.92,1.55-1.06,2.6,1.23,1.64-.02,2.27.38,3.85.31,1.2,1.58,4.38,1.15,5.96-.35.61-.71,1.22-1.06,1.83-.07.27.03,8.21.19,8.85.35.67.71,1.35,1.06,2.02.23.83.16,6.5-.29,7.21Z"/>
      <path class="cls-1" d="M271.62,208.81v-32.03h-.48c-.11-1.68-.21-1.26.48-2.31v-10.48h-.48v-5.67h.48v-15.77c-.03-1.23-.6-1.32-.48-2.69h.48c-.01-1.66-.62-1.83-.48-3.37h.48v-24.72h-.48v-1.25h.48v-28.28c-.68-1.04-.69-1.22-.48-2.89h.48v-13.08h-.48v-1.64c.19-.3.05-.21.48-.29v-2.5h-.48c-.23-1.72-.84-2.18-1.44-3.37-.19-.03-.38-.06-.58-.1-1.27,1.22.95,3.22.58,5-.16.74-.76,1.55-.58,2.69.18,1.09.58,1.72.58,3.17,0,5.22.03,9.94-.58,13.47.19.74.38,1.47.58,2.21.11.57.1,4.98,0,5.39-.13.53-.72,1.03-.48,1.92.14.53.67,1,.48,1.92-.19.55-.38,1.09-.58,1.64-.22,1.33.38,2.17.58,3.17v11.35c-.19,1.13-.85,2.08-.58,3.37.52,2.5.78,5.64.19,8.37-.33,1.54.9,2.9.58,4.81-.23,1.34.24,3.27-.19,4.91-.13.5-.67.88-.48,1.73.16.71.7,1.48.48,2.69-.16.55-.32,1.09-.48,1.64.17.89.84,2.37.48,3.85-.55,2.28-.5,4.21,0,6.35.03,2.53.06,5.07.1,7.6.18,1.24-.37,2.32-.58,3.08-.03,1.31-.06,2.63-.1,3.94-.19,1.47.97,2.39.58,4.23-.16.51-.32,1.03-.48,1.54.09.64.7,1.15.48,2.12-.12.56-.68,1.04-.48,1.92.16.35.32.71.48,1.06.2,1.02-.44,1.7-.58,2.4-.25,1.35.37,2.4.58,3.46.67,3.48-.13,10.02-.58,12.7-.41,2.48,1.28,4.25.77,7.31-.22,1.28-.45,2.57-.67,3.85.19.8.7,1.98.67,3.08-.04,1.45-.44,2.95-.19,4.52.16,1.02-.34,1.5-.48,2.12-.2.87.36,1.26.48,1.83.26,1.18-.31,2.01-.48,2.69-.27,1.06.44,4.72.87,5.39.16-.03.32-.06.48-.1,1.68-2.87,1.06-9.26,1.06-13.95Z"/>
      <path class="cls-1" d="M204.97,107.34c.2,1.14-.5,1.9-.1,2.98,1,2.65,4.81,4.76,6.44,6.93.03.35.06.71.1,1.06-.55.54-1.42,1.29-2.31,1.44h-1.15c-.93,1.03-1.86,2.05-2.79,3.08-.03,2.15-.06,4.3-.1,6.44.13.58.26,1.15.38,1.73-.3,1.24-.92,4.54-.38,6.35.22.35.45.71.67,1.06.12.75-.86,2.47-1.06,3.27-.41,1.68.11,4.72.38,5.96.23,1.06-.19,2.32-.29,2.98-.07.45.18,4.87.29,5.58.98,6.59-2.23,10.05,5.1,10.87,1.35-.97,3.85-3.68,5.19-4.14h2.5c.71-.51,1.41-1.03,2.12-1.54,1.03-.28,1.88.08,2.79-.38,1.56-.8,2.65-2.61,4.14-3.37,1.06-.06,2.12-.13,3.17-.19,1.29-.59,2.2-2.04,3.65-2.6.86-.33,1.92.04,2.98-.29.71-.71,1.41-1.41,2.12-2.12,1.26-.47,2.32,0,3.56-.38.89-.27,1.9-1.39,2.89-1.73,4.2-1.45,10.76-3.47,12.89-6.83.64-1.01.02-2.59.67-3.46.83-.61,1.67-1.22,2.5-1.83.18-.16,2.91-3.61,2.98-3.75.76-1.6-.65-2.78-1.35-3.56-.45-2.23.55-2.43,1.25-3.75.69-1.72-1.15-1.93-.67-3.56.26-.32.51-.64.77-.96v-5.19c-.48-.58-.96-1.15-1.44-1.73-.55-3.05,2.26-2.96,1.64-6.16-.25-1.28-1.45-2.02-.96-3.94.21-.85,1.14-1.49.96-2.79-.23-1.75-1.72-3.45-.96-5.96.32-1.04,1.3-1.99.96-3.94-.28-1.62-1.4-2.63-1.54-4.33.45-.58.9-1.15,1.35-1.73.04-.09.27-10.97.19-11.35-.19-.38-.38-.77-.58-1.15-1.98-1.4-2.56,3.34-2.12,5.29.26.64.51,1.28.77,1.92.37,1.82-.41,5.48-.87,7.02-.26.35-.51.71-.77,1.06.03.54.06,1.09.1,1.64-.03.93-.06,1.86-.1,2.79.26,1.51,1.48,4.16.87,6.25-.29.32-.58.64-.87.96-.43,1.25.66,1.96.87,2.69.5,1.78-.35,2.95-.87,3.94.05,1.22.68,1.39.87,2.31.26,1.32-.22,3.16-.48,4.14.32,1.09.64,2.18.96,3.27.08.4-.44,4.16-.58,4.52-.16.26-.32.51-.48.77.16.22.32.45.48.67.52,1.68.12,8.82-.1,10-.74.38-1.47.77-2.21,1.15-1.22.35-1.77-.85-2.5-1.06-.35.03-.71.06-1.06.1-1.94-.56-3.99-1.04-6.06-1.64-1.19-.34-1.79-1.55-2.79-1.92-.96-.03-1.92-.06-2.89-.1-1.22-1.09-2.44-2.18-3.65-3.27-1.73-.98-4.65-.31-6.54-1.35-1.25-.69-1.32-2.65-2.6-3.17-1.31-.54-3.67-.21-5.29-.67-1.2-.35-1.67-1.23-2.5-1.83-1.21-.88-3.31-.97-4.52-1.73-1.04.19-1.95.95-3.27.58-1.16-.53-1.29-1.94-2.12-2.79-2.05-2.11-5.73-3.04-6.54-6.35-.06-2.53-.13-5.07-.19-7.6-.26-.38-.51-.77-.77-1.15v-5.19c.22-.29.45-.58.67-.87.32-.87.02-1.84.48-2.5.98-1.41,10.11-5.18,12.41-5.96,1.03-.54,2.05-1.09,3.08-1.64,3.81-1.39,7.27-3.24,10.96-4.81.8-.51,1.6-1.03,2.4-1.54,1.32-.56,2.21-.56,3.65-1.06,1.22-.42,2.55-1.72,3.65-2.31,1.23-.66,2.52-.45,3.56-1.15.93-.63,1.94-1.46,3.17-1.83.58-.06,1.15-.13,1.73-.19,1.52-.54,2.87-1.73,4.52-2.31.89-.31,2.44-1.21,3.56-.96,2.35.52,1.47,3.15,3.08,4.23,2.8-1.66.52-6.96-2.5-6.93-1.18.93-2.95,1.23-4.42,1.83-1.14.46-2.45,1.79-3.75,2.31-.93.13-1.86.26-2.79.38-1.08.47-1.88,1.6-2.79,2.12-1.31.74-2.74.79-4.14,1.35-2.72,1.09-5.44,2.48-8.37,3.65-2.12,1.15-4.23,2.31-6.35,3.46-2.08.7-4.29.98-6.16,2.02-.64.48-1.28.96-1.92,1.44-1.59.66-2.94.57-4.42,1.35-.9.67-1.8,1.35-2.69,2.02-2.51,1.31-6.33,2.12-7.79,4.42-.71,1.11.19,2.87-.19,4.42-.73,2.98-.42,7.19.19,10.77ZM241.23,131.87c.19-.13.38-.26.58-.38,1.73.08,3.98.94,5.29,1.73.32.29.64.58.96.87h3.75c.68.15,4.12,2.67,4.42,3.27-.5,1.18-1.21,1.43-2.98,1.35-.73-.57-1.21-1.65-2.21-1.92-1.12.16-2.24.32-3.37.48-1.11-.33-1.38-1.73-2.4-2.21-1.42-.48-2.53.9-3.94.58-.51-.89-.4-2.62-.1-3.75ZM232.67,128.12c.19-.16.38-.32.58-.48,1.66,0,4.71,1.44,5.39,2.4v.1c-.19.22-.38.45-.58.67-1.02-.01-5.07-1.55-5.39-2.21v-.48ZM225.26,123.6c2.44.61,2.05,1.52,5.48,1.35.19.22.38.45.58.67.03.54.06,1.09.1,1.64-.16.46-.34.68-.77.87-1.16.48-5.73-2.48-6.06-3.17-.25-.63.29-1.04.67-1.35ZM216.7,120.71c.22-.22.45-.45.67-.67,1.43.01,2.4.29,2.89,1.25-.06.22-.13.45-.19.67-.28.49-.78.58-1.25.87-.9-.08-1.31-.43-1.92-.77-.16-.44-.34-.81-.19-1.35ZM219.97,128.02c2.94,1.26,6.22,3.15,9.04,4.14.91.32,1.71.02,2.6.29,1.03.31,2.59,1.7,3.56,2.31.61.13,1.22.26,1.83.38,1.74.69,3.5,1.67,5.48,2.4.35.29.71.58,1.06.87.51.06,1.03.13,1.54.19.32.29.64.58.96.87,1.26.64,4.84,2.08,6.16,2.31.49.79.51,1.53.19,2.5-1.91,1.04-3.95,1.57-6.06,2.5-1.86,1.12-3.72,2.24-5.58,3.37-.81.39-1.87.2-2.89.58-3.21,1.2-6.54,3.33-9.52,4.81-2.4,1.19-4.8,1.72-7.31,2.79-.74.48-1.47.96-2.21,1.44-1.09.29-2.18.58-3.27.87-1.53.75-3.52,3.18-6.35,2.4-2.88-.78-2.12-5.71-2.12-9.33,0-5.16,0-9.75,0-14.72,0-2.26-.36-4.48,0-6.54.6-3.45-1.35-7.18,1.15-8.95,3.43.08,8.83,3.27,11.73,4.52Z"/>
      <path class="cls-1" d="M134.18,71.66c0-3.3-.52-4.9-4.04-4.81-.72.55-1.75.34-2.69.77-1.68.76-3.44,2.19-5.29,2.69-1.68.46-2.41.31-3.85.96-1.18.54-2.28,2.05-3.65,2.5-1.28.42-2.41.29-3.56.87-.32.26-.64.51-.96.77-.58.1-1.15.19-1.73.29-2.52,1.22-4.78,2.91-7.31,4.04-1.55.69-3.45.69-5,1.25-.89.32-2.02,1.52-2.89,1.83-1.47.51-2.37.36-3.56,1.06-1.06.62-2.32,2.02-3.56,2.4-.93.13-1.86.26-2.79.38-1.22.93-2.44,1.86-3.65,2.79-1.27,1.29-1.36,4.33-2.02,6.25-.43,1.24-1.96,1.1-2.6,2.02-.8,1.16-.23,9.05.38,9.91.55.78,2.83,2.76,4.42,2.02.61-.55,1.22-1.09,1.83-1.64.77-.26,1.54-.51,2.31-.77.95-.62,1.53-1.81,2.6-2.4.93-.16,1.86-.32,2.79-.48,1.22-.87,2.44-1.73,3.65-2.6.78-.63,1.02-2.23,2.02-2.6.63-.23,4.57-.48,5.29-.48.61.03,1.22.06,1.83.1,1.15-.71,2.31-1.41,3.46-2.12,1.44-.03,2.89-.06,4.33-.1,1.25-.96,2.5-1.92,3.75-2.89,1.75-.54,5.07-1.15,6.35-2.02,1.1-.74,1.34-2.43,2.79-2.89.77-.03,1.54-.06,2.31-.1.77-.32,1.54-.64,2.31-.96h1.64c.32-.29.64-.58.96-.87,3.86-1.82,5.75-6.07,3.08-10.1.06-1.22.49-1.04.77-1.73.44-1.09.29-2.05.29-3.37ZM82.33,105.22c-.35.32-.71.64-1.06.96-2.81,1.08-3.57-1.44-4.23-3.08-.32-.79-1.15-1.92-.48-3.08.28-.58.73-.65,1.25-.96,2.09.07,6.76,2.51,7.6,3.94-.62,1.38-1.79,1.5-3.08,2.21ZM132.06,73.58c-.48.83-.96,1.67-1.44,2.5,2.69,3.52,1.38,5.54-1.64,7.69-.64.55-1.28,1.09-1.92,1.64-1.27.43-2.34.49-3.46,1.15-.61.48-1.22.96-1.83,1.44-1.12.58-2.4.33-3.56.87-.42.38-.83.77-1.25,1.15-1.07.47-1.95.35-3.08.77-.35.32-.71.64-1.06.96-1.05.5-1.77,1.14-2.6,1.54-.64.13-1.28.26-1.92.38-.75.49-1.64,1.21-2.6,1.54-.87.03-1.73.06-2.6.1-1.26.3-3.25,1.13-4.52,1.54-2.38.77-5.67-.5-7.6-.58-.9.88-1.84,1.78-3.08,2.31-2.49-.17-1.6-2.6-2.98-3.75h-1.83c-1.41-.42-3.34-2.54-1.92-4.33,1.6-2.03,4.96-2.55,7.41-3.75.58-.45,1.15-.9,1.73-1.35.97-.54,2.25-.41,3.37-.96,1.31-.74,2.63-1.47,3.94-2.21,2.56-.85,4.64-1.22,7.02-2.31.67-.51,1.35-1.03,2.02-1.54,2.57-1.16,5.43-1.41,7.69-2.89.73-.48,3.26-2.09,3.94-2.31.29.03.58.06.87.1,2.24-.56,4.18-2,6.06-2.98.99-.35,1.99-.71,2.98-1.06,2.74-.07,4.99,1.38,3.85,4.33Z"/>
      <path class="cls-1" d="M181.11,78.97c-.13.16-.26.32-.38.48.02,1.5,2.62,3.63,4.33,3.27.65-1.17-2.76-3.63-3.94-3.75Z"/>
      <path class="cls-1" d="M.58,93.87c.13,1.34,1.25,2.45,1.92,3.37h.77c1-.62.51-4.78.29-5.96-.25-.12-.34-.17-.77-.19-.74.97-1.52,1.71-2.21,2.79Z"/>
      <path class="cls-1" d="M115.42,100.7c2.5-1.11,5.26-2.88,7.69-4.04.96-.26,1.92-.51,2.89-.77,1.03-.43,2.46-2.03,3.94-1.73,1.82.37,1.91,2.06,4.23,2.79.6-.45,1.44-1.3,1.64-2.12-1.46-1.56-2.55-3.14-5.67-3.08-3.47,1.99-6.85,3.37-10.87,4.91-1.29.49-2.48,1.73-3.65,2.31-2.23,1.1-4.61,1.63-6.64,2.89-1.09.67-1.32,2.01-2.02,3.08-.77,1.18-2.41,2.1-3.85,2.6-1.28.45-4.27-.91-6.44-.29-.71.38-1.41.77-2.12,1.15-2.12.91-4.19,1.48-6.16,2.4-.83.48-1.67.96-2.5,1.44-4.16,1.35-8.77,3.35-10.96,6.54-.93,1.35.2,3.57.29,4.81-.13.55-.26,1.09-.38,1.64-.51,2.41-.19,6.06.1,8.18.26,1.93-.71,4.84-.29,7.41.29,1.78,1.14,4.57.58,7.02-.13.42-.26.83-.38,1.25-.12,1.95.26,3.82,0,5.1-.38,1.85,1.17,2.7.87,4.23-.26.83-.51,1.67-.77,2.5-.12.65.2,1,.29,1.35.23.91-.16,1.99-.29,2.5-.3,1.24.56,2.24.77,2.98-.03.96-.06,1.92-.1,2.89.61,2.5,6.56,4.76,7.02,6.25.49,1.58-2.94,1.95-3.75,2.4-1.08.6-3.13,1.54-3.65,2.69-.31.69.18,1.29.29,1.83.36,1.86-.86,3.57.38,5.48,2.59,3.97,10.47-.4,12.79-2.12,1.45-1.07,1.65-5.5,3.27-6.25.83-.39,3.55.04,4.42.19,1.28.22,3.01-.44,3.85-.67.96.03,1.92.06,2.89.1,1.09-.71,2.18-1.41,3.27-2.12,1.08-.58,2.01-.6,2.98-1.25.64-.54,1.28-1.09,1.92-1.64,1.44-.59,2.05.8,3.27.48,1.1-.29,3.37-1.74,4.04-2.6.46-.59.88-1.67,1.64-1.92,1.15.03,2.31.06,3.46.1,1.2-.34,1.78-1.51,2.69-2.12,3.61-2.4,8.25-2.74,8.27-8.75v-2.69c-.48-.58-.96-1.15-1.44-1.73-.28-.95.88-1.63,1.06-2.69-.1-1.09-.19-2.18-.29-3.27.26-.8.51-1.6.77-2.4-.06-1.38-.13-2.76-.19-4.14.06-.67.13-1.35.19-2.02-.32-.67-.64-1.35-.96-2.02-.33-1.44.88-2.22.29-3.37l-.58-.58c-.26-.03-.51-.06-.77-.1-1.31,1.33-.19,2.97-.58,5.19-.43,2.5.35,4.96.29,8.08-.16,1.7-.32,3.4-.48,5.1.24,1.48.63,6.02.19,7.41-1.62,5.06-6.53,5.65-11.06,7.79-.67.42-1.35.83-2.02,1.25-.87.16-1.73.32-2.6.48-.58.51-1.15,1.03-1.73,1.54-1.21.6-2.66.09-3.65.77-.26.38-.51.77-.77,1.15-.51.1-1.03.19-1.54.29-1.26.52-2.7,1.08-4.14,1.73-1.44.83-2.89,1.67-4.33,2.5-4.36,1-7.49-2.03-11.64-.87-1.14.56-.93,2.22-1.92,2.89-2.52-.14-1.97-1.62-2.5-3.75-.58-.96-1.15-1.92-1.73-2.89-1.56-1.76-3.15-1.9-4.23-4.42-.03-.67-.06-1.35-.1-2.02-.17-.53-.72-.86-.87-1.54v-13.66c-.28-1.58-.29-3.9,0-5.48-.1-4.26-.19-8.53-.29-12.79v-6.64c.19-.96.48-2.5.29-3.85-.2-1.45-.67-4.22,0-5.67.86-1.88,7.09-3.75,9.23-4.81,2.99-1.47,6.61-3.21,10.2-4.33,3.02-.94,5.7.79,7.6,1.44.9.03,1.8.06,2.69.1.68.25.82,1.14,1.35,1.54,1.4,1.08,3.36,1.4,5.1,2.12,1.63.8,3.27,1.6,4.91,2.4,4.52,1.46,11.49,3.75,13.56,7.5-.22.61-.45,1.22-.67,1.83v3.37c-.18.59-.71.8-.87,1.54.58.61,1,1.36,1.64,1.92,2.83-.29,2-2.85,1.73-4.91-.22-1.74.55-3.56.29-4.91-.43-2.21-2.65-3.9-3.56-5.77-.62-1.7,3.01-3.85,3.56-5.19.8-1.94-1.27-2.62-1.06-4.33.08-.67.63-.81.87-1.25.61-1.13,1.3-5.53.87-6.93-.29-.29-.58-.58-.87-.87-2.31.31-1.06,2.46-1.44,4.62-.19,1.09-.78,1.78-1.06,2.6-.03.93-.06,1.86-.1,2.79-.45.8-.9,1.6-1.35,2.4-.22.8-.45,1.6-.67,2.4-1.94.51-4.01-.58-5.58-1.44-.58-.64-1.15-1.28-1.73-1.92h-3.08c-1.45-.71-1.13-2.39-3.56-2.98-1.8-.44-2.54,1.17-4.33.48-.55-.31-.94-.99-1.15-1.64-1.07-3.24,3.49-4.46,5.58-5.39ZM84.35,185.54c-.15,3.51-9.13,3.51-7.21-2.31.22-.26.45-.51.67-.77,2.57-.04,5.82,1.38,6.54,3.08ZM123.6,115.42c.48-.19.96-.38,1.44-.58.8.19,1.6.38,2.4.58.51.81.93,1.73.58,2.89-.19.13-.38.26-.58.38-1.84-.13-3.19-1.35-3.85-2.69v-.58ZM118.11,113.11c.45.03.9.06,1.35.1.19.3.26.33.29.87-.13.16-.26.32-.38.48-.38.06-.77.13-1.15.19-.16-.19-.32-.38-.48-.58-.23-.54.08-.78.38-1.06ZM110.23,108.01c.3.45.51,1.16.19,1.73-.4.9-1.28,1.07-2.5.87-.13-.42-.26-.83-.38-1.25.25-.55.41-1.08.96-1.35.19-.06.38-.13.58-.19.38.06.77.13,1.15.19Z"/>
      <path class="cls-1" d="M136.48,182.75c5.58.08,1.1,10.34,4.04,12.98,2.56,2.3,5.95-1.23,8.18-1.83.35.03.71.06,1.06.1,1.19-.71,2.37-1.41,3.56-2.12.45.06.9.13,1.35.19,1.03-.16,2.05-.32,3.08-.48,1.28-1.03,2.56-2.05,3.85-3.08,1.09-.45,2.11-.15,3.37-.58.61-.64,1.22-1.28,1.83-1.92.35-.16.71-.32,1.06-.48.46-.62.16-1.68.48-2.5.8-1.57,7.33-1.98,9.14-2.5.82-.24,1.76-1.29,2.69-1.54.8-.03,1.6-.06,2.4-.1.77-.54,1.54-1.09,2.31-1.64,1.06-.38,1.73.48,2.79.19,1.07-.29,2.01-1.33,2.89-1.83,1.06-.35,2.12-.71,3.17-1.06,2.05-.74,3.86-3.6,4.91-5.39.83-1.42-.43-6.14-.1-7.89.18-.93.52-3.08.19-4.04-.24-.72-1.06-.84-.87-2.12.15-.97.81-1.19.96-1.92-.03-3.78-.06-7.57-.1-11.35-.22-.29-.45-.58-.67-.87-.48-1.47,1.09-4.75,1.35-5.77.21-.84-.54-1.31-.67-1.92.06-1.41.13-2.82.19-4.23v-.1c-.13-.77-.9-1.4-.77-2.12.29-1.65,1.29-6.01.58-8.18-.43-1.3-3.28-4.65-3.46-6.06-.22-1.62,2.06-5.23,2.6-6.64.64-1.66-.87-3.6-.58-4.71.29-1.08,1.35-2.09,1.44-3.27-.8-.87-1.6-1.73-2.4-2.6-.51-.03-1.03-.06-1.54-.1-2.65,1.73-5.79,2.53-8.95,3.85-.58.51-1.15,1.03-1.73,1.54-.49.29-1.03.13-1.35.58-.81,1.15.28,2.87-.29,4.33-1.6,3.17-8.99.36-12.7,1.44-2.3.67-4.43,2.5-6.64,3.17-4.06,1.24-7.17,3.11-10.77,4.52-.74.19-1.47.38-2.21.58-1.22.77-2.44,1.54-3.65,2.31-.64.13-1.28.26-1.92.38-2.07,1.16-5.07,3.3-5.87,5.67-.63,1.86.97,3.31,1.15,4.91-.16.54-.32,1.09-.48,1.64v4.23c-1.25,4.62-.67,12.06-.67,17.79v7.69c.67,1.67,1.35,3.33,2.02,5,.75,1.21,2.08,2.2,2.4,3.85-.94,1.71-4.59,4.92-3.56,7.12,1.05-.17,2.12-1.58,3.85-1.06,1.22.77,2.44,1.54,3.65,2.31.58.13,1.15.26,1.73.38,1.19.64,2.37,1.28,3.56,1.92.35-.03.71-.06,1.06-.1,1.27.36,2.48,1.67,3.56,2.21.93.1,1.86.19,2.79.29,1.17.43,3.48,2.04,3.08,3.75-.8,1.61-4.11,1.82-5.96,2.4-.95.3-1.93,1.43-2.98,1.83-.54.03-1.09.06-1.64.1-2.14.62-7.75,4.97-9.91,2.12-.13-.58-.26-1.15-.38-1.73-.26-.29-.51-.58-.77-.87v-3.65c-.28-.94-1.31-1.97-1.54-3.08-.29-1.36,1.23-2.76-.87-3.08-.54.45-1.09.9-1.64,1.35-.73-.02-1.11-.16-1.35-.67-.39-1.05.21-1.98.38-2.6.3-1.07-2-4.07-2.6-4.42-2.41-1.43-5.18.66-7.12,1.25-2.35.71-4.61,2.21-6.64,3.27-.51.06-1.03.13-1.54.19-.83.27-2.03,1.31-2.79,1.73-.61.1-1.22.19-1.83.29-1.39.46-2.9,1.68-4.04,2.4-.45.13-.9.26-1.35.38-.74.67-1.47,1.35-2.21,2.02v1.83c-.24.79-1.45,1.93-2.21,2.21-1.14.42-2.92.94-4.23.77-.77-.1-1.6-1.1-3.08-.67-1.05.31-2.51,1.15-3.37,1.54-.8.06-1.6.13-2.4.19-.74.42-1.47.83-2.21,1.25-1.81.5-3.87,1.32-5.48,2.4-.61.64-1.22,1.28-1.83,1.92-.58.42-1.15.83-1.73,1.25-.19.87-.38,1.73-.58,2.6-.92,1.74-3.56,1.84-4.14,4.14-.06,1.31-.13,2.63-.19,3.94-.24,1.1-1.53,2.57-.87,4.52.29.32.58.64.87.96v6.83c.75,4.65,0,9.74,0,14.81,0,3.72-.82,12.89,1.25,14.33,2.2,1.54,4.54-.29,6.16-.87,1.74-.62,3.17.03,4.62-.67,1.08-.53,1.94-1.66,2.89-2.31.8-.42,1.6-.83,2.4-1.25.67-.8,1.35-1.6,2.02-2.4,1.1-.38,2.94.42,4.14-.1,1.23-.53,2.76-2.75,3.85-3.37h2.79c.94-.25,1.71-.83,2.69-1.25,2.82-1.2,5.32-4.18,8.37-5.48,1.17-.5,2.14.77,3.37.19,1.06-.5,1.59-1.97,2.69-2.6.76-.43,1.74.08,2.6-.19.38-.45.77-.9,1.15-1.35,1.09-.51,2.18-1.03,3.27-1.54,1.09-1.96,2.18-3.91,3.27-5.87.1-.51.19-1.03.29-1.54.51-.88,1.69-1.19,2.12-2.31.83-2.14-.12-4.37-.19-6.25-.04-.97.53-1.94.38-3.08-.3-2.3-1.58-2.48-2.4-3.85-.59-.97-1.56-3.5-1.83-4.52.8-.79,1.87-1.46,2.5-2.4.96-1.43.34-2.03.77-3.85.29-.58.58-1.15.87-1.73.32-1.18.13-2.83.29-3.75.23-1.33-.15-2.76.1-3.75.48-.29.96-.58,1.44-.87ZM184.86,103.01c2.36-3.63,5.18-2.94,8.95-4.91,1,0,1.74.43,2.12,1.06.72,1-.65,4.05-1.06,4.91-.54,1.13-1.32,1.57-1.92,2.5-.41.63-.39,1.38-.96,1.83-1.49,1.16-5.04.17-6.25-.58-1.42-.87-1.75-3.45-.87-4.81ZM191.69,112.05c-.31.52-.69.62-1.15.96-.67-.09-1.03-.44-1.25-.96v-.48c.16-.16.32-.32.48-.48.42.03.83.06,1.25.1.19.19.38.38.58.58.03.1.06.19.1.29ZM158.13,179.29c-.37.25-.48.38-1.15.38-.38-.42-.77-.83-1.15-1.25-.03-.29-.06-.58-.1-.87.32-.19.64-.38.96-.58.8.02,1.28.2,1.54.77.21.48.02,1.12-.1,1.54ZM160.63,176.78c-.58-.16-1.15-.32-1.73-.48-.5-.3-.64-1.09-1.15-1.44-.69.34-1.13.64-1.54,1.25h-.29c-.32-.35-.64-.71-.96-1.06-.03-.38-.06-.77-.1-1.15-1.95.21-2.18,2.37-4.14,2.69-2-.91-.83-2.35-1.64-4.23-.43-.78-1.68-.9-2.21-1.64-.22-.83-.45-1.67-.67-2.5-1.44-2.19-4.39-4.4-4.91-7.31.3-.41.6-.72.67-1.35-.46-.61-1.18-1.78-1.44-2.5-.64-1.73.47-3.75.67-5v-14.91c-.22-.29-.45-.58-.67-.87-.73-2.19,1.21-3.95,1.54-5.29.79-3.26-2.49-4.13-1.54-7.41,1-3.43,8.39-5.25,11.64-6.83.74-.48,1.47-.96,2.21-1.44,1.25-.42,2.5-.83,3.75-1.25,1.28-.81,2.35-1.13,4.04-1.73,3.2-1.14,7.36-5.01,12.89-3.65,1.25.31,2.6,1.55,3.75,1.92.67.1,1.35.19,2.02.29,3.17,1.24,6.55,2.92,9.52,4.42,2.45,1.24,4.26,1.62,5.67,3.85,2.07,3.26-.47,6.39,0,10.68.11.96.86,1.66,1.06,2.89-.06,1.51-.13,3.01-.19,4.52-.19.45-.79.54-.87,1.15-.21,1.59.88,2.22,1.06,3.65.2,1.62-.82,2.35-1.06,3.27-.38,1.47,1.13,1.77.96,3.37-.19,1.78-1,3.5-1.64,5.1.26.64,1.05,1.29.77,2.31-.21.77-1.27,1.87-.96,3.17.61,1.06,1.22,2.12,1.83,3.17-.09,1-.59.94-.87,1.54v2.12c-.11.42-.42,1.17-.67,1.73-2.06,4.5-13.08,9.24-18.76,10.2-.61.19-1.22.38-1.83.58h-2.5c-1.51.46-1.97,1.24-3.75.67-.56-.94-1.03-1.86-1.64-2.69h-.77c-.52.53-.58,1.87-1.15,2.31-1.92,1.65-3.46-1.49-4.42-2.12ZM108.11,189.29c.54-.5.94-.74,1.64-1.15h.29c.61.9,1.22,1.8,1.83,2.69,1.43.85,4.02.25,5.67.96.63,1.56.53,3.56-.87,4.23-1.7-.11-3.91-3.13-5.39-3.94-.94-.52-2.16-.28-3.08-.87-.15-.62-.18-1.21-.1-1.92ZM122.54,227.38c-.83.19-1.67.38-2.5.58-2.11.72-4.38,2.15-6.25,3.27-.93.61-1.86,1.22-2.79,1.83-.8.29-1.6.58-2.4.87l-.96.96c-2.72.96-5.45,1.92-8.18,2.89-1.41.78-2.59,1.49-4.42,2.12-.61.48-1.22.96-1.83,1.44-.83.26-1.67.51-2.5.77-1.44.74-2.76,1.92-4.42,2.21-2.88.5-4.73,3.2-8.56,2.4-.74-1.2-1.87-5.71-1.25-7.79.28-.95.96-2.08.58-3.85-.13-.59-.77-1-.58-1.83.16-.69.99-1.79.58-3.17-.24-.82-1.05-1.89-.58-3.17.19-.32.38-.64.58-.96.18-1.35-.52-1.64-.67-2.5-.22-1.19.59-1.91.77-2.6.29-1.08-.61-1.81-.77-2.69.03-1.44.06-2.89.1-4.33v-.1c-.29-.42-.58-.83-.87-1.25-.92-3.32.9-6.94,2.31-8.18,3.17.04,4.82,2.41,7.31,3.27,3.75,1.29,7.15,2.62,10.58,4.42.32.29.64.58.96.87,1.98.73,3.63,1.52,5.39,2.21.61.1,1.22.19,1.83.29,2.43,1.02,4.61,3.06,7.31,3.94,1.66.54,2.62.56,4.14,1.25.85.39,2.04,1.55,2.89,1.83,1.22.4,2.58.16,3.65.77.66.37,1.21,1.39,1.35,2.31.12.82-.32,1.65-.77,1.92ZM101.95,211.31c.35.06.71.13,1.06.19.53.24.77.58.87,1.25-.26.19-.51.38-.77.58-1.42.02-2.09-1.15-1.15-2.02ZM131.19,205.54c.38.74.77,1.47,1.15,2.21-.1,2.6-.19,5.19-.29,7.79-.43,1.13-2.65,3.32-3.85,3.65-1.82.37-2.84-2.35-4.14-2.98-.77.05-1.04.38-1.25.96-.25.56-.03,1.44.1,1.92.64.35,1.28.71,1.92,1.06.1.54.19,1.09.29,1.64-.38.41-.57.73-1.25.87-1.43.42-1.47-1.69-1.64-2.98-.35-.17-.85-.21-1.44-.19-.64.5-.96,1.14-1.73,1.54-.29-.03-.58-.06-.87-.1-.52-.56-1.08-.8-1.25-1.73.03-.1.06-.19.1-.29.78-.35,2.14-.14,2.89-.38.03-.16.06-.32.1-.48v-.1c-.49-.83-1.52-1.08-2.02-1.83-.46-.7-.18-1.63-.96-2.02h-.58c-.35.2-.46.44-.58.87-.19.06-.38.13-.58.19-.72-1.25-1.9-2.69-3.94-2.02-1.05.55-.79,1.9-2.12,2.31-.47.18-.89-.24-1.06-.67-.71-2.11,3.07-3.1-1.15-5.96-.77.12-.94.51-1.44.67-1.42.46-2.84-.38-3.56-.58-.87-.1-1.73-.19-2.6-.29-1.46-.59-1.96-2.51-2.5-4.14-.16-.03-.32-.06-.48-.1-1.62,1.66-1.97,1.75-4.33,1.06-.69-.2-1.15.02-1.64-.29-.38-.35-.77-.71-1.15-1.06-1.18-.43-2.75.37-3.65-.29-.13-.29-.26-.58-.38-.87-.58-.92-1.98-1.17-3.17-1.35h-.1c-.13.55-.26,1.09-.38,1.64h-.67c-.26-.26-.51-.51-.77-.77v-.67c.31-.45.84-.39,1.54-.38.21-1.25-.26-2.9.38-3.85.84-1.24,3.15-2.61,4.62-3.17.61-.13,1.22-.26,1.83-.38,1.12-.64,2.3-1.74,3.75-2.12,1.54-.4,4.06-.11,5.29-.87,2.52.21,4.38,1.51,6.35,2.31,2.61,1.05,4.83,2.42,7.21,3.46.55.06,1.09.13,1.64.19.35.32.71.64,1.06.96,1.89.74,3.55,1.16,5.48,1.92.48.32.96.64,1.44.96h1.73c1.28.4,2.69,1.66,3.85,2.31,1.64.92,3.74.94,4.81,2.4ZM119.27,197.18c.19-.16.38-.32.58-.48.58.13,1.15.26,1.73.38l.29.38c-.06.57-.16.62-.38.96-.9.27-1.76.13-2.12-.67-.03-.19-.06-.38-.1-.58ZM123.6,199.58c.03-.19.06-.38.1-.58.48-.29.96-.58,1.44-.87.97.05,1.51.35,2.31.58.43.66.55,1.29.29,2.21-.13.06-.26.13-.38.19-.86.26-3.2-.97-3.75-1.54ZM133.12,180.25v2.02c-.16.49-.72.68-.87,1.35-.6,2.85.53,5.69-.19,8.27-.93,1.98-3.37,1.83-5.39,2.6-1.12.42-1.31,1.58-2.89,1.73-.13-.03-.26-.06-.38-.1-.7-1.15-.43-2.92-1.15-3.94-1-1.42-9.64-5.42-11.83-4.42-.45-.38-.9-.77-1.35-1.15-.57-3,2.35-2.86,4.04-3.94,2.02-1.29,4.4-1.74,6.73-2.89,1.18-.58,2.56-2.02,3.75-2.4,2.01-.64,3.53-1.09,5.19-1.92,2.86-.06,3.98.52,5.1,2.12.23,1.39-.49,1.85-.77,2.69Z"/>
      <path class="cls-1" d="M1.54,115.52c1.18-.91.39-2.4.77-3.94.15-.59.58-1.37.38-2.31-.13-.45-.26-.9-.38-1.35.15-.87.88-1.65,1.06-2.31-.03-.58-.06-1.15-.1-1.73.31-1.92-.22-2.98-.67-4.71-.19-.06-.38-.13-.58-.19-.13.1-.26.19-.38.29-.46,2.08.81,5.43-1.64,5.96v6.25h.48c.54,1.04.23,3.04.67,4.04h.38Z"/>
      <path class="cls-1" d="M5.19,225.26c.62-2.06.8-6.01-.1-7.98-.34-.75-1.7-2.55-1.35-3.65.22-.69.96-1.46,1.15-2.4-.06-1.31-.13-2.63-.19-3.94.18-.88.88-1.77.58-3.17-.12-.55-.71-.89-.58-1.64.12-.69.85-1.23.58-2.4-.16-.67-.6-1.46-.67-2.4-.15-1.86,1.12-3.01.67-4.81-.54-.93-1.09-1.86-1.64-2.79.05-1.5.89-2.05,1.15-3.37-.13-.77-.26-1.54-.38-2.31.03-2.69.06-5.39.1-8.08-.14-.67-.57-.94-.87-1.44.09-1.06.67-1.06.87-1.83-.06-.9-.13-1.8-.19-2.69.13-2.69.26-5.39.38-8.08.18-.78.84-1.54.58-2.79-.39-1.83-1.89-2.8-2.6-4.23-.03-.1-.06-.19-.1-.29-.12-1.41.93-1.93,1.15-3.08-.03-1.57-.06-3.14-.1-4.71.16-.6,1.11-.92.77-2.02-.19-.22-.38-.45-.58-.67-.32-.99.85-2.13.67-3.37-.13-.86-1.16-1.52-.87-2.89.26-.42.51-.83.77-1.25v-4.52c-.2-.73-.95-1.72-1.15-2.6-.52-2.26.93-3.35.48-5.58-.24-1.21-1.53-1.73-1.15-3.46.26-.55.51-1.09.77-1.64-.42-.32-.83-.64-1.25-.96-.35.32-.71.64-1.06.96-.31,1.38.2,1.88.48,2.79.39,1.27,0,4.51.29,5.96.03,2.47.06,4.94.1,7.41-.13.61-.71,1.11-.48,2.02.19.76.78,1.94.96,2.6.4,1.49-1.26,2.44-1.54,3.37-.24.8.28,1.36.38,1.73.26.95-.77,2.41-.38,3.85.22.32.45.64.67.96-.03,1.22-.06,2.44-.1,3.65.13.32.26.64.38.96-.13,1.06-.26,2.12-.38,3.17.51,2.31.24,6.52.67,8.95-.06.54-.13,1.09-.19,1.64.15.65.84,1.46.67,2.4-.22,1.25-1.54,2.19-1.15,4.04.32.96.64,1.92.96,2.89-.03,1.44-.06,2.89-.1,4.33-.04,1.54.77,3.81.38,5.87-.29,1.44-.58,2.89-.87,4.33-.22,1.41.51,1.99.77,2.79.34,1.04-.13,2.07-.29,2.79.1,1.96.19,3.91.29,5.87-.12.69-.74,4.5-.67,4.81.21.91.76,1.35.77,2.69.02,2.49-.65,4.01,0,6.54.26.48.51.96.77,1.44.6,2.58-.8,5.03,1.44,6.35.1-.03.19-.06.29-.1Z"/>
      <path class="cls-1" d="M10.29,219.01c.48.42.96.83,1.44,1.25.99.22,1.99.45,2.98.67.74-.35,1.47-.71,2.21-1.06h1.44c1.06-.51,2.12-1.03,3.17-1.54.45-.55.9-1.09,1.35-1.64,1.25-.89,3.86-.22,5.29-.96,1.67-.87,3.8-1.81,5.29-2.98.42-.55.83-1.09,1.25-1.64.55-.26,1.09-.51,1.64-.77.64.03,1.28.06,1.92.1.97-.27,2.17-1.05,2.98-1.44.71-.1,1.41-.19,2.12-.29,1.94-.77,3.63-2.8,5.58-3.46.89-.3,1.67-.05,2.6-.38,2.16-.77,4.51-2.57,6.73-3.37,2.62-.93,3.66-1.39,5.58-2.89.71-.77,1.41-1.54,2.12-2.31,1.27-.75,2.54-.99,2.89-2.6.33-1.55-.53-3.36-.67-4.42-.29-2.1,1-3.54.58-5.58-.17-.83-.83-2.03-.48-3.37.14-.55.81-1.63.58-2.6-.44-1.85-3.08-5-4.14-6.54.23-2,1.57-2.03,2.31-3.37.13-.96.26-1.92.38-2.89.48-.87.96-1.73,1.44-2.6-.03-2.92-.06-5.84-.1-8.75-.36-1.26-1.3-1.99-1.54-3.56-.28-1.82,1.02-2.19,1.06-3.85-1.01-1.31-.45-1.98-1.15-3.27-.33-.42-.65-.24-1.15-.1-.41.74-.73,7.4-.29,8.66.26.32.51.64.77.96v2.89c.16.55.32,1.09.48,1.64.2,1.2-.13,4.03-.58,4.81-.51.58-1.03,1.15-1.54,1.73-.59,1.64-.79,3.12-2.21,3.85h-.58c-1.33-.41-2.09-1.41-3.27-1.73-1.37-.37-2.79.37-3.65-.58-.03-.03-.06-.06-.1-.1-.97-1.25-1.03-2.89-2.4-3.75-1.04-.66-2.51-1.47-4.23-1.06-.78.19-1.82.77-2.98.38-2.4-.8-3.31-2.6-5.1-3.94-.94.11-1.37.85-2.5.58-1.12-.27-1.27-1.55-2.6-1.73-2.28-.3-3.59,2.39-5.19-1.25.35-.83.71-1.67,1.06-2.5-1.99-2.64-9.09-3.52-12.02-5.58-.12-.44-.32-1.14-.1-1.64.71-1.92,7.87-4.02,10.1-5.1,2-.96,4.22-2.35,6.16-3.17,1.38-.59,2.58-.69,3.85-1.25.9-.58,1.8-1.15,2.69-1.73,4.44-1.6,8.47-3.09,12.31-5.19,1.37-.75,8.9-4.49,10.2-3.85,1.09.52,2.83,3.81,2.4,5.39-.24.88-1.52,1.5-1.06,2.98.29.35.58.71.87,1.06-.16,1.3-1.17,1.64-1.54,2.6-.59,1.52.5,3.12.96,3.94.16.03.32.06.48.1,1.18-.99.44-1.18,1.15-2.4l.77-.77v-8.85c-.29-.35-.58-.71-.87-1.06-.52-2,.88-2.47.87-4.42-.74-.79-1.41-1.47-2.98-1.44-1.45.78-3.04.89-4.52,1.54-.58.45-1.15.9-1.73,1.35-3.65,1.4-6.87,2.81-10.48,4.42-.96.43-2.17,1.58-3.17,1.92-1.49.51-2.28.55-3.56,1.15-1.22.71-2.44,1.41-3.65,2.12-.83.13-1.67.26-2.5.38-1.86.99-3.72,1.99-5.58,2.98-5.4,2.51-10.88,4.01-14.81,7.98.19.95,1.18,1.54.58,2.69-1.02,1.99-4.98,1.78-5.96,3.85-.06.99-.13,1.99-.19,2.98-.22,1.11-1.39,2.97-.77,5,.26.29.51.58.77.87.06,1.19.13,2.37.19,3.56-.3,1.74.34,3.6,0,5.58-.36,2.07-.31,6.82-.1,9.33.06,1.19.13,2.37.19,3.56v9.04c.45,4.53-.4,9.97.67,13.66.27.92-.46,1.48-.58,2.12-.28,1.48-.08,11.13.19,11.64ZM61.17,170.73c.22-.13.45-.26.67-.38.29.06.58.13.87.19.25.4.45.77.29,1.35l-.67.67c-.88-.04-1.31-.47-1.44-1.25.1-.19.19-.38.29-.58ZM51.46,165.24c.47.09.39.03.58.38.03.19.06.38.1.58-.03.06-.06.13-.1.19-.16.06-.32.13-.48.19h-.1c-.2-.32-.28-.39-.29-.96.1-.13.19-.26.29-.38ZM37.7,159.38c.35-.19.71-.38,1.06-.58.16.03.32.06.48.1.4.21.61.73.48,1.15-.1.29-.19.58-.29.87-.32.03-.64.06-.96.1-.29-.32-.58-.64-.87-.96.03-.22.06-.45.1-.67ZM19.81,149.57c.28-.56.73-.57,1.25-.87,2.55.06,4.24,2.09,2.6,4.14-.43.12-.79.23-1.25.1-.34-.17-2.31-2.31-2.6-2.69v-.67ZM12.6,153.22c3.74.22,6.89,3,9.81,4.14.45.03.9.06,1.35.1.38.32.77.64,1.15.96,9.89,3.42,19.05,8.43,28.28,12.5,3.73,1.65,10.98,3.82,13.27,6.93v.1c.16.26.32.51.48.77-.06,1.67-.13,3.33-.19,5,.18.8.8,1.79.58,2.98-.29.58-.58,1.15-.87,1.73-.5,2.04,1.1,2.49-.29,4.42-1.62,2.27-2.84,2.09-5.29,3.37-1.41,1.06-2.82,2.12-4.23,3.17-2.18.77-4.36,1.54-6.54,2.31-.67.51-1.35,1.03-2.02,1.54-1.34.81-2.9.69-4.33,1.35-1.25.57-2.64,1.79-3.94,2.31-2.5.93-5,1.86-7.5,2.79-.58.48-1.15.96-1.73,1.44-1.01.46-2.02.03-3.17.38-.35.26-.71.51-1.06.77-1.57.73-2.98,1.11-4.42,2.02-1.27.8-2.66,2.14-4.23,2.6-1.97.58-4.38-.22-5-1.15-1.35-2.04.48-11.47-.29-14.72-.62-2.6-.43-5.81,0-8.46.2-1.24-.44-1.81-.48-2.69v-6.83c.16-.64.32-1.28.48-1.92.09-3.21-.37-5.76-.87-7.79-.49-2,.58-3.08.48-5.1-.16-.48-.32-.96-.48-1.44-.28-1.18.33-2,.48-2.69.21-.96-.34-1.6-.48-2.21v-3.46c-.22-.32-.45-.64-.67-.96-1.04-2.25.7-3.56,1.73-4.23Z"/>
      <path class="cls-1" d="M264.41,175.82c.85-2.42-.68-5-1.44-6.35.15-1.36,1.1-1.67,1.44-2.6-.03-3.05-.06-6.09-.1-9.14.06-.64.13-1.28.19-1.92-.32-.77-.64-1.54-.96-2.31-.24-1.41,1.68-2.2.48-3.65-.56-1-2-1.22-3.46-1.35-7.65,3.98-16.02,7.42-24.24,10.68-2.42.96-5.05,2.45-7.31,3.75-1.28.77-2.56,1.54-3.85,2.31-4.58,1.58-7.77,3.16-11.54,5.29-3.15,1.77-6.4,2.38-8.27,5.39-.52.84-.29,2.75-.29,4.04.03,4.04.06,8.08.1,12.12.65,1.49,2.43,2.55,2.98,4.62.34,1.27-.81,3.84-1.35,4.62-.64.92-2.02,1-2.5,2.21-.63,1.61.79,3.03.77,5-.13.74-.26,1.47-.38,2.21v15.77c-.18,1.31.43,2.23.38,3.75-.08,2.63-.57,7.01,0,9.62,1.18,5.4-2.27,5.33,2.4,8.46.8-.1,1.08-.52,1.64-.67h3.37c1.84-.49,3.24-1.92,4.81-2.4h.96c1.12-1.03,2.24-2.05,3.37-3.08.73-.26,1.18.18,1.83-.19.64-.58,1.28-1.15,1.92-1.73.83-.06,1.67-.13,2.5-.19.67-.45,1.35-.9,2.02-1.35.48-.06.96-.13,1.44-.19.96-.74,1.92-1.47,2.89-2.21,2.18-.63,2.99.56,4.14-1.54-.03-.26-.06-.51-.1-.77-2.35-1.34-4.91.86-6.83,1.64-.58.1-1.15.19-1.73.29-.58.51-1.15,1.03-1.73,1.54-2.3.82-4.04.87-5.87,2.02-1.12.83-2.24,1.67-3.37,2.5-1.09.29-2.18.58-3.27.87-1.36.57-4.13,2.57-6.35,2.02-2.9-.71-2.21-6.72-2.21-10.29,0-4.61.24-9.12,0-13.66-.11-1.96.39-4.11,0-5.96.06-1.89.13-3.78.19-5.67-.29-1.56-.99-1.66-.96-3.65.33-.48.7-1.09,1.25-1.35,1.19-.47,2.55.35,3.56.67,1.12.61,2.24,1.22,3.37,1.83.42.03.83.06,1.25.1,1.39.42,2.73,1.03,3.75,1.73,1.33.91,2.87,1.14,4.52,1.83,1.12.61,2.24,1.22,3.37,1.83,1.43.5,2.28.59,3.75,1.15.91.35,1.49,1.14,2.21,1.64.99.68,2.71,1.3,3.75,1.73,5.44,2.23,11.25,3.84,15.68,7.02.2.81.14,1.41-.1,2.12-1.26.73-3.56.88-4.71,1.83-.32.38-.64.77-.96,1.15-3.24,1.7-5.04.79-7.31,3.85.03.19.06.38.1.58.28.57.82.65,1.35.96,4.17-.41,5.05-3.25,7.69-4.71.83-.46,2.11.05,2.98-.29.77-.51,1.54-1.03,2.31-1.54.61-.16,1.22-.32,1.83-.48,2.34-1.41,3.29-3.26,4.91-5.39.91-1.2,2.38-2.89,2.89-4.42v-1.06c.25-.81,1.28-1.68.96-3.17-.7-3.28-3.33-1.7-.19-5.87.24-1.51-1.28-2.11-.77-3.65l.77-.77v-5.19c-.28-.93-1.44-1.82-1.92-3.46h-.38c-.49,1.93.6,3.53.1,5.77-.19.83-1.14,3.44-.87,4.42.24.85.91,2.34.58,3.75-.29.48-.58.96-.87,1.44-.27,1.22.59,1.54.87,2.21.4.97.04,2.12-.19,2.98-.61.35-1.22.71-1.83,1.06-.51.03-1.03.06-1.54.1-.77.58-1.54,1.15-2.31,1.73-.72.35-2.05.24-2.5-.19-.75-.43-1.12-1.88-1.73-2.5-.51-.03-1.03-.06-1.54-.1-.42,1.1-1,2.13-2.02,2.6-.9.4-1.15-.83-.77-1.44.49-1.08,1.28-.95,2.31-1.25.19-.17.07,0,.19-.29l-1.15-1.15c-.98.13-1.67.82-2.69.58-.88-.44-1.06-1.59-1.92-2.12-1.16.08-1.74.9-3.27.58-3.23-.68-5.84-2.26-8.66-3.46-.96-.13-1.92-.26-2.89-.38-.73-.32-.97-1.09-.96-2.12-.83-.43-2.79.1-4.04-.19-.88-1.67,1.1-3.47-.87-4.33-2.25-.73-3.64,4.46-5.1,1.64-.39-.9.13-1.89.38-2.5-.76-.99-1.33-.03-2.5-.67-.79-.44-1.41-1.89-2.21-2.5-1.2.15-2.03,1.13-2.98,1.64-1.52-.89-.86-2.9-1.54-4.62-.64-1.62-1.91-3.42-2.4-5.39.19-.96.38-1.92.58-2.89-.47-2.56-1.36-8.45,0-10.96,1.01-1.86,8.1-4.99,10.58-5.77.83-.54,1.67-1.09,2.5-1.64,1.39-.7,2.9-.83,4.42-1.35,1.68-.57,3.27-2.25,5-2.98,1.52-.64,2.49-.79,4.14-1.44,1.28-.8,2.57-1.6,3.85-2.4,1.09-.32,2.18-.64,3.27-.96,2.01-.9,4.5-2.99,6.83-3.08.97-.04,1.6-.89,2.31-1.25,1.23-.62,8.18-4.01,9.52-3.65.45.22.9.45,1.35.67.98,1.49.57,5.01.58,7.41,0,1.83,1,3.16.48,5.19-.26.87-.51,1.73-.77,2.6v4.33c-.17.41-.6.45-.77,1.06.59.61.99,1.68,1.15,2.69-.13.83-.26,1.67-.38,2.5.03,2.08.06,4.17.1,6.25-.29.54-.58,1.09-.87,1.64-.26,1.24.65,1.36.87,2.12.06,1.89.13,3.78.19,5.67.06.1.13.19.19.29,2.36-.52,2.08-2.31,2.12-4.71,0-.63-.59-.86-.77-1.44-.52-1.72.79-2.68.96-4.14.16-1.33-.73-2.01-.96-2.79v-3.65c.29-.35.58-.71.87-1.06ZM251.52,219.3c1.16.12,1.34.72,1.06,1.73-.13.06-.26.13-.38.19-.69.33-1.34-.27-1.54-.77-.03-.22-.06-.45-.1-.67.32-.16.64-.32.96-.48ZM239.98,214.87c.26-.22.51-.45.77-.67,1.11,0,1.81.36,2.12,1.15.03.35.06.71.1,1.06-.16.16-.32.32-.48.48-.55-.03-1.09-.06-1.64-.1-.68-.3-.91-.9-.87-1.92ZM212.95,201.89h.67c.51.61,1.03,1.22,1.54,1.83.03.22.06.45.1.67-.1.06-.19.13-.29.19-.16.03-.32.06-.48.1-.58-.67-1.15-1.35-1.73-2.02.02-.45.05-.53.19-.77Z"/>
      <path class="cls-1" d="M195.93,178.42c-3.56,1.76-7.49,3.07-10.58,5.29-1.94,1.4-2.64,4.5-5.19,5.29-2.28.03-4.55.06-6.83.1-4.66,1.58-8.53,4.3-12.79,5.96-2.17.85-3.95,1.09-5.96,2.12-1.22.62-2.62,1.73-3.85,2.31-2.79,1.31-5.63,1.96-7.98,3.65-.96.69-2.64,2.39-3.17,3.46-.35.69.38,9.82.77,10.77.35.87,1.5,1.77,2.21,2.31,4.56.84,5.63-2.3,8.46-2.31,2.16,0,3.43-3.12,5.39-3.94,1.09-.46,2.97-.02,4.14-.48,1.75-.7,2.22-2.37,3.65-3.27,1.22-.77,3.35-.4,4.62-.87,1.03-.8,2.05-1.6,3.08-2.4h3.08c1.71-.39,1.86-2.08,2.69-3.37,2.2-.46,2.8,1.11,4.04.96,2.74-.32,5.36-4.19,7.5-5.58.79.15,1.32.63,2.21.38,1.05-.44,2.38-2.42,2.79-3.46.06-.67.13-1.35.19-2.02.46-.95,2.06-1.06,2.6-2.02.41-.75,2-4.55,1.83-5.48-.32-.64-.64-1.28-.96-1.92v-4.52c-.32-.69-1.06-.83-1.92-.96ZM187.94,196.98c-.83.58-1.67,1.15-2.5,1.73-.55.1-1.09.19-1.64.29-.79.41-1.83,1.35-2.69,1.64-.8.13-1.6.26-2.4.38-.66.22-.94.92-1.44,1.25-.48.13-.96.26-1.44.38-.69.4-1.42,1.1-2.21,1.44-2.43,1.07-5.12,2.16-7.6,2.89h-1.64c-.82.28-2.84,2.63-4.04,3.08-4.24,1.57-10,3.12-12.41,6.44-2.62.58-5.05-.18-5.67-2.6-.06-.99-.13-1.99-.19-2.98-.26-.29-.51-.58-.77-.87-1.04-2.34,1.04-4.95,2.12-5.67,3.22-2.17,6.99-2.96,10.58-4.81,5.79-2.98,11.94-6.34,18.27-8.56,1.57-.06,3.14-.13,4.71-.19,2.77.08,4.69,1.58,6.54,2.5,1.15.57,2.39.4,3.37,1.06.73.5,1.14,1.54,1.06,2.6ZM196.12,185.73c-.37.37-3.76,3.15-4.04,3.27-1.19.03-2.37.06-3.56.1-.62.22-1.17,1-2.02.48-.48-.37-.24-.92-.48-1.54-1.54-4.05,4.89-5.23,7.31-6.54,2.55-.05,2.9,1.81,2.79,4.23Z"/>
      <path class="cls-1" d="M200.54,209.29c.25-.95,1.36-2.75.67-4.42-.3-.73-1.47-1.36-1.92-2.12-.56-.93-.99-1.77-2.21-2.02-.93.19-1.86.38-2.79.58-.8.55-1.6,1.09-2.4,1.64-.58.03-1.15.06-1.73.1-1.63.9-3.27,1.8-4.91,2.69-.67.1-1.35.19-2.02.29-.99.8-1.99,1.6-2.98,2.4-5.16,2.01-9.86,4.42-15.1,6.44-.67.51-1.35,1.03-2.02,1.54-.94.39-1.53.13-2.6.48-2.41.79-4.64,3.24-7.21,4.04-2.43.76-4.23,1.32-6.16,2.6-2.1,1.4-.93,3.66-2.02,5.1-1.59,2.1-4.52,2.74-5.58,5.48-1.11,2.87.42,10.41.87,13.08.31,1.83-.69,4-.77,5.39-.06.98.42,1.87.58,2.5.52,2.11-.07,5.57-.38,7.12.29,1.15.58,2.31.87,3.46-.08,1.24-1.07,2.16-.96,3.27.4,4.14-.78,7.97,1.83,9.81.33.23,1.12.64,1.73.48.42-.35.83-.71,1.25-1.06,1.35-.03,2.69-.06,4.04-.1.67-.45,1.35-.9,2.02-1.35.94-.25,2-.11,2.98-.67,1.14-.66,1.87-2.37,3.27-2.79,1.53-.46,2.49-.03,3.65-.67,1.15-1.22,2.31-2.44,3.46-3.65,1.26-.75,3.1-1.39,4.52-1.73.51-.03,1.03-.06,1.54-.1.71-.58,1.41-1.15,2.12-1.73,1.68-1.04,3.47-1.42,5.48-2.12,1.06-.67,2.12-1.35,3.17-2.02.64-.06,1.28-.13,1.92-.19.93-.61,1.86-1.22,2.79-1.83h2.12c.64-.51,1.28-1.03,1.92-1.54,1.06-.42,2.12-.83,3.17-1.25,1.69-1.03,5.43-5.8,6.54-7.6.18-.29,1.37-4.31,1.35-4.42-.29-.38-.58-.77-.87-1.15-.49-1.44.69-1.93.87-2.69-.03-1.51-.06-3.01-.1-4.52.26-.54.51-1.09.77-1.64.42-2-1.1-3.8-1.54-5.29-.03-1.51-.06-3.01-.1-4.52.23-.9,1.24-1.12.96-2.79-.16-.95-1.01-1.49-.96-2.31.32-.77.64-1.54.96-2.31.17-.92-.52-1.43-.48-2.12.13-.38.26-.77.38-1.15v-4.62ZM188.71,254.31c-1.49,2.18-4.32,3.32-6.83,4.42-.83.19-1.67.38-2.5.58-1.33.71-2.9,1.84-4.23,2.5-2.78,1.38-5.53,2.12-8.18,3.65-.93.61-1.86,1.22-2.79,1.83-.8.36-1.65.31-2.6.67-1.11.42-2.34,1.68-3.46,2.12-1.73.68-3.11.9-4.62,1.73-.61.54-1.22,1.09-1.83,1.64-.54.36-1.18.03-1.92.29-1.75.62-5.46,3.83-7.5,1.06-.86-4.68.03-10.34.29-14.72-.13-.61-.26-1.22-.38-1.83v-6.35c0-2.27.3-4.3,0-5.96-.3-1.71.35-4.75-.1-6.25-.26-.32-.51-.64-.77-.96-.84-2.19.43-3.94,1.15-4.91,1.9,0,2.5.62,3.65.96,2.04.61,3.94.56,5.48,1.64,1.61,1.12,3.26,2.61,5.29,3.37,7.78,2.91,15.57,6.27,22.7,9.91,2.19,1.12,4.7,1.48,7.02,2.4.97.39,1.35,1.35,2.12,1.92v.29ZM150.82,231.22v-.67c.1-.1.19-.19.29-.29h.48c.37.51.62,1.33-.38,1.44-.13-.16-.26-.32-.38-.48ZM152.07,234.49c.03-.38.06-.77.1-1.15.16-.1.32-.19.48-.29.54.03.87.12,1.15.38.77.45.56,1.81-.29,2.02-.58.13-1.04-.6-1.44-.96ZM157.26,236.51l.77-.77c1.37-.06,4.17,1.51,2.6,2.6-1.11.56-2.5.13-3.37-.48-.14-.49-.26-.9,0-1.35ZM191.6,252.77h-.19c-.1-.19-.19-.38-.29-.58.38-.75.8-.86,1.54-1.25.19.03.38.06.58.1.7,1.02-.06,2.34-1.64,1.73ZM199.39,206.41c-.4,1.13-1.95,2.17-2.02,3.56.19.42.38.83.58,1.25.14.58-.62,3.53-.58,4.81.03.87.58,1.82.58,3.27-.03,1.51-.06,3.01-.1,4.52-.16.77-.32,1.54-.48,2.31.19,1.27,1.73,4.46,1.44,5.58-.29.45-.58.9-.87,1.35v4.81c.29.32.58.64.87.96v.19c.39,2.22-1.06,2.32-1.44,3.56-.16,1.15-.32,2.31-.48,3.46-.43.77-1.5.92-2.21,1.44-1.32.95-4.23,2.51-6.25,1.06-.45-.67-.9-1.35-1.35-2.02-.48-.03-.96-.06-1.44-.1-.97-.3-1.12-.94-2.69-.96-.54.79-.67,1.72-1.54,2.21-.38-.1-.77-.19-1.15-.29-.59-.84-.16-1.34.29-2.12-.27-2.41-2.37-1.4-4.33-1.92-.96-.48-1.92-.96-2.89-1.44-1.74-1.26-1.2-4.22-2.98-5.29-2.19,1-.97,4.14-.48,5.87-.2.21-.13.19-.48.29-.69.19-3.53-1.14-3.85-1.83-.33-.42-.24-1.11-.19-1.92.62-.59,1.2-.82,1.54-1.73-.49-.91-1-.39-1.92-.87-.91-.47-1.18-1.81-2.12-2.21-.16-.06-.32-.13-.48-.19-.95-.02-1.49.89-2.79.58-.79-.36-1-1.1-1.64-1.54-1.2-.82-2.71-1.06-3.56-2.21-.49-.67-.6-1.43-1.25-1.92-1.64-1.24-3.22-1.09-4.42-2.89.08-.71.4-1.69.87-2.02,1.57-.58,3.14-1.15,4.71-1.73,2.12-.9,3.87-2,6.25-2.89,1.57-.58,3.19-2.14,4.71-2.69,1.68-.61,3.22-.93,4.62-1.83.45-.51.9-1.03,1.35-1.54,1.3-.75,3.32-.5,4.62-1.06,2.38-1.02,4.84-2.38,7.12-3.65.29-.26.58-.51.87-.77.51-.06,1.03-.13,1.54-.19,1.48-.64,2.82-1.93,4.42-2.6,2.1-.88,3.93-1.15,5.77-2.21,1.55,0,4.59,1.47,3.85,3.56Z"/>
      <path class="cls-1" d="M268.45,225.84c-1.59.94-3.2,2.34-4.81,3.37-.55.35-1.74,1.01-2.21,1.15h-1.25c-.64.48-1.28.96-1.92,1.44-1.57.96-3.41,1.2-5.1,2.02l-.87.87c-4.52,2.09-8.83,3.71-13.47,5.58-1.47.87-2.95,1.73-4.42,2.6-2.27.84-4.22,1.67-6.25,2.79-.32.26-.64.51-.96.77-.54.13-1.09.26-1.64.38-.71.48-1.41.96-2.12,1.44-1.25.48-2.38.5-3.65,1.06-1.26.55-2.35,1.65-3.46,2.31-.48.1-.96.19-1.44.29-1.19.45-2.51,1.25-3.85,1.83-1.35.83-2.69,1.67-4.04,2.5-8.43,3.78-17.07,7.46-25.01,11.64-1.82.96-4.24,1.12-6.06,2.12-1.21.66-2.7,1.69-4.04,2.21-.61.19-1.22.38-1.83.58-1.19.74-2.37,1.47-3.56,2.21-.77.19-1.54.38-2.31.58-1.05.67-2.31,1.77-3.56,2.21-.77.27-1.78.12-2.6.48-1.25.77-2.5,1.54-3.75,2.31-1.74.85-3.06,1.12-5,1.83-1.31.8-2.63,1.6-3.94,2.4-1.09.42-2.18.83-3.27,1.25-.85.46-2,1.46-2.98,1.73-1.95.54-6.14-.68-6.64-1.44-.19-.8-.38-1.6-.58-2.4-.33-.8-.85-1.26-.48-2.5.64-.71,1.28-1.41,1.92-2.12.8-1.41,1.6-2.82,2.4-4.23,1.14-2.69-.54-5.45-1.06-8.18.06-2.18.13-4.36.19-6.54-.22-.51-.58-.9-1.15-1.06-.22.03-.45.06-.67.1-1.89,2.71-.87,7.33.77,9.23-.16,1.31-1.07,1.76-1.44,2.69-1,2.52,1.1,3.07-1.35,4.91-3.48.57-8.4-2.46-11.06-3.65-1.89-.64-3.78-1.28-5.67-1.92-.74-.61-1.47-1.22-2.21-1.83-.96-.38-1.92-.77-2.89-1.15-1.51-.83-2.9-2.28-4.52-3.08-.85-.42-1.65.03-2.6-.19-.74-.18-1.63-.6-2.6-.96-.26-.26-.51-.51-.77-.77-1.33-.83-2.87-1.22-4.33-1.83-.38-.32-.77-.64-1.15-.96-3.08-1.73-6.74-1.78-8.66-4.62.3-2.48,7.48-4.05,9.62-5.29,4.94-2.85,10.17-5.05,15.97-7.12,4.06-1.45,7.49-4.36,11.64-5.96,2.29-.88,7.78-3.82,9.91-2.5.5.31,1.91,3.23,1.44,4.62-.26.29-.51.58-.77.87-.59,1.51.13,5.69.38,7.02-.19,1.7-.38,3.4-.58,5.1-.4,2.36-.13,5.07,2.02,4.52,1.67-2.32-.53-3.96-1.25-5.77.58-.7,1.23-1.12,1.64-2.02.62-1.38.38-3.84.1-5.29-.54-2.79.45-5.45,0-7.98.03-.64.06-1.28.1-1.92-.19-1.12-1.48-2.98-3.08-2.6-2.02.49-3.48,2.28-5.39,2.89-2.86.91-5.18,1.58-8.08,2.6-.82.29-1.87,1.44-2.6,1.92-1.48,1-3.91,1.92-5.48,2.6-.51.06-1.03.13-1.54.19-.38.29-.77.58-1.15.87h-1.35c-.86.4-2.94,1.44-3.85,2.02-.48.45-.96.9-1.44,1.35-1.16.57-2.64.5-3.65,1.15-.71.54-1.41,1.09-2.12,1.64-2.1.89-4.44,2.04-6.44,2.69-1.15.1-2.31.19-3.46.29-.54.26-3.5,3.01-3.65,3.75-.66,3.19,4.37,3.58,6.16,4.62,1.15.74,2.31,1.47,3.46,2.21.64.06,1.28.13,1.92.19,2.34,1.09,4.77,3.03,7.31,3.85,3.02.97,5.96,1.47,7.69,3.65.95,3.9-2.16,3.3-5.1,2.98-2.25-.25-3.39-3.28-5.39-4.14-2.16-.92-3.75-.7-6.16-1.54-1.85-.65-3.83-2.19-5.48-3.08-1-.53-2.55.06-3.46-.48-.83-.74-1.67-1.47-2.5-2.21-1.38-.03-2.76-.06-4.14-.1-.51-.32-1.03-.64-1.54-.96-1.76-.56-3.21-.32-4.52-1.25l-4.04-4.04c-1.44-.93-3.35-1.1-5-1.83-.29-.29-.58-.58-.87-.87-1.26-.6-2.37-.57-3.56-1.25-.64-.51-1.28-1.03-1.92-1.54-1.01-.44-2.6-.33-3.56-.96-.95-.62-1.94-1.71-3.08-2.21-1.68-.73-3.89.08-5.67-.67-.95-.5-.7-2.07-1.54-2.69-1.25-.45-2.5-.9-3.75-1.35-1.06.08-1.41.63-2.6.67-.52-.61-.58-1.28-1.06-2.02-.94-1.46-6.39-3.94-8.37-4.23-.26-.51-.44-1.41-.1-2.02.19-.22.38-.45.58-.67,3.36-.64,2.64,1.89,4.23,2.69,1.33.51,2.68-.9,4.23-.19.67.61,1.35,1.22,2.02,1.83.96.41,1.85.16,2.79.48,2.08,1.12,4.17,2.24,6.25,3.37.83.06,1.67.13,2.5.19,2.14.81,4.1,2.82,6.16,3.46h1.15c.61.45,1.22.9,1.83,1.35,2.17.93,4.24,1.33,6.44,2.21,1.57.63,1.78,1.88,4.14,1.83,1.88-1.44,2.75-3.31,3.85-5.58-.42-1.09-.83-2.18-1.25-3.27-.22-1.05.42-1.67.58-2.31.36-1.5-.34-2.9-.48-3.85.03-1.47.06-2.95.1-4.42-.25-.97-1.23-2.21-1.06-3.46.16-1.15.77-2.7,1.06-3.75.6-2.23-.13-4.52-.48-6.16-.31-1.44.28-2.8.48-3.65.25-1.06-.37-3.61-.58-4.81-.4-.24-.66-.38-1.35-.38v.1c-.92.64-.48,4.09-.48,5.77-.03,1.28-.06,2.57-.1,3.85-.26.51-.51,1.03-.77,1.54-.63,2.52.5,3.65-.87,5.48.23,1.5,1.39,3.26,1.73,4.71.06,2.08.13,4.17.19,6.25-.03.54-.06,1.09-.1,1.64.29.35.58.71.87,1.06.46,1.34-.49,2.22-.67,2.89-.91,3.38.57,3.72-2.21,5.48-2.09.05-5.59-1.72-7.41-2.6-.85-.41-1.68-1.51-2.69-1.83-1.19-.29-2.37-.58-3.56-.87-1.84-.79-3.83-2.42-5.58-3.37-.74-.1-1.47-.19-2.21-.29-1.67-.8-3.33-1.6-5-2.4-.71-.13-1.41-.26-2.12-.38-1.69-.86-3.15-2.71-5-3.27-.87.03-1.73.06-2.6.1-1.34-.31-2.9-1.84-4.42-1.54-.9.38-1.8.77-2.69,1.15-1.49.37-4.5-.91-4.14-2.12.3-.49,1.21-.55,1.73-.77.21-1.27-.61-1.84-.38-2.89.88-2.18,9.27-4.45,11.64-5.96,1.89-1.2,4.07-1.58,6.16-2.69,1.31-.8,2.63-1.6,3.94-2.4,1.62-.62,2.84-.59,4.33-1.35,1.84-.94,3.97-2.43,5.87-3.27,2-.89,3.74-1.13,5.77-2.02,2.02-.89,4.04-3.05,6.16-3.56,2.36-.57,4.2.5,5.77.1.1-.26.19-.51.29-.77v-.67c-.77-.58-1.54-1.15-2.31-1.73-2.65-.73-8.14,5.24-11.35,5.1-2.43-.11-4.36,2.6-6.25,3.37-1.49.6-2.63.64-3.75,1.35-1.25.78-3.32.97-4.71,1.64-1.33.64-2.63,1.77-4.04,2.4-1.63.58-3.27,1.15-4.91,1.73-1.41.55-2.79,2.27-4.23,2.89-.64.06-1.28.13-1.92.19-.74.31-1.36,1.19-2.02,1.44-2.71,1.05-6.77,1.8-7.5,4.71.06,1.09.13,2.18.19,3.27-.86.52-6.39.93-8.08.38-1.02-.33-2.66-1.75-3.27-2.6l-.29.1c-.1.06-.19.13-.29.19-.74,3.95,4.36,3.84,7.02,4.91,1.06.77,2.12,1.54,3.17,2.31,1.49.78,2.76.91,4.33,1.54.89.35,2.1,1.25,2.98,1.54.55.1,1.09.19,1.64.29,1.12.71,2.24,1.41,3.37,2.12,2.08.81,3.67,1.33,5.58,2.21.64.45,1.28.9,1.92,1.35,1.23.42,2.59.24,3.75.96,4.75,2.94,10.38,5.74,16.25,7.5,1.48.44,3.33,2.25,5,2.89,1.09.42,1.8.24,2.89.67.64.51,1.28,1.03,1.92,1.54,1.55.98,3.2,1.4,5,2.12.38.29.77.58,1.15.87,1.31.45,2.35.28,3.46.77.64.48,1.28.96,1.92,1.44,1.5.9,2.84.83,4.62,1.54,1.22.49,2.59,1.91,3.94,2.5,1.43.62,2.66.51,4.23,1.06.83.29,1.88,1.38,2.6,1.83,1.06.67,2.11.63,3.46,1.06,1.68.53,3.2,2.13,4.81,2.69,2.69.94,4.99,2.17,7.31,3.17.99.43,2.37,1.05,3.27,1.25h1.15c1.38.62,2.44,1.77,3.75,2.4,1.84.89,3.77,1.32,5.77,2.02,2.15.75,3.99,2.17,6.35,3.08,2.93,1.13,5.61,3.21,9.33,3.46.03.19.06.38.1.58h2.31c.03-.19.06-.38.1-.58,3.7-1.03,7.56-3.4,10.68-5.19.61-.19,1.22-.38,1.83-.58,2.17-1.08,4.52-2.45,6.73-3.37,1.18-.49,2.17-.51,3.27-1.06.78-.39,1.78-1.44,2.6-1.73,1.36-.48,2.33-.47,3.46-1.15.71-.51,1.41-1.03,2.12-1.54,18.45-7.43,35.57-16.26,53.48-24.43.94-.43,1.98-1.37,2.98-1.83,1.47-.67,2.89-.92,4.23-1.73.45-.35.9-.71,1.35-1.06,1.41-.51,2.82-1.03,4.23-1.54.45-.35.9-.71,1.35-1.06,1.01-.45,1.92-.5,3.08-.96,2.73-1.08,5.65-2.91,8.27-4.14,1.24-.58,2.25-.6,3.37-1.25.42-.42.83-.83,1.25-1.25,1.28-.77,2.54-.81,3.94-1.44.77-.51,1.54-1.03,2.31-1.54,3.12-1.43,8.58-2.41,9.52-5.77.08-.26.01-.3-.1-.58-.16-.03-.32-.06-.48-.1ZM124.75,279.22c-1.6.28-3.6-.33-4.91-.29-.58.1-1.15.19-1.73.29-1.22-.41-3-2.73-4.33-3.56-1.63-1.02-3.67-.45-2.89-3.08.55-.22,1.09-.45,1.64-.67,1.84.09,5.2,1.78,6.44,2.69.66.48,1.09,1.21,2.02,1.44.48.1.91-.28,1.35-.38.94-.23,2.01.47,2.6.77.3,1.09.3,1.92-.19,2.79ZM128.12,282.11c-.19.19-.38.38-.58.58h-.87c-.13-.22-.26-.45-.38-.67.26-.45.51-.9.77-1.35h.67c.29.42.41.64.38,1.44Z"/>
    </g>
  </g>
</svg>