<?xml version="1.0" encoding="UTF-8"?>
<svg id="Layer_2" data-name="Layer 2" xmlns="http://www.w3.org/2000/svg" viewBox="0 0 107.19 102.06">
  <defs>
    <style>
      .cls-1 {
        fill-rule: evenodd;
      }
    </style>
  </defs>
  <g id="Layer_1-2" data-name="Layer 1">
    <g>
      <path class="cls-1" d="M8.93,97.64v-7.17c-.02-.63-.04-1.26-.05-1.89-.11-.47-.46-.71-.62-1.11-.08-.24-.16-.49-.24-.73-.26-.42-.63-.54-1.11-.76-.24-.14-.49-.29-.73-.43-.7-.2-1.77-.05-2.57-.05-1.05,0-2.6.27-2.79-.62-.23-1.07,1.42-2.65,1.76-3.41.25-.56.64-.86.95-1.33.11-.23.22-.45.32-.68.25-.32.5-.65.76-.97.08-.23.16-.47.24-.7.27-.32.54-.65.81-.97.15-.31.31-.61.46-.92.24-.25.49-.5.73-.76.1-.27.2-.54.3-.81.27-.31.54-.61.81-.92.22-.35.15-.93.32-1.35.12-.3.36-.47.43-.84.35-1.72-.25-3.8.03-5.57.41-2.62.19-5.97.19-8.9V17.22c0-1.13-.52-3.38-.03-4.19.56-.94,1.74-.89,3.27-.89h33.32c1.91-.31,2.88-2.11,3.73-3.52.48-.79,1.18-1.55,1.65-2.33.11-.28.22-.56.32-.84.26-.29.52-.58.78-.87.11-.27.22-.54.32-.81.23-.24.47-.49.7-.73.19-.26.21-.63.38-.92.29-.48.91-1.19,1.54-1.33,1.29-.27,2.27,2.08,2.76,2.81.21.25.41.5.62.76.1.28.2.56.3.84.76,1.24,1.7,2.4,2.49,3.62.12.31.23.61.35.92.49.74,1.92,2.14,2.89,2.35,8.42,0,16.84.02,25.26.03h6.38c.88,0,2.21-.16,2.79.19,1.08.65.94,1.97.7,3.46,0,.58-.02,1.15-.03,1.73,0,1.85.02,3.7.03,5.54-.02,3.66-.04,7.32-.05,10.98,0,8.2.02,16.41.03,24.61v4c0,1.72.16,3.11.16,4.89,0,1.12-.19,2.55.05,3.57.14.27.29.54.43.81.05.27.11.54.16.81.12.15.23.31.35.46.11.29.22.58.32.87.46.71,1.06,1.4,1.49,2.11.14.28.29.56.43.84.19.23.38.45.57.68.1.27.2.54.3.81.22.28.43.56.65.84.25.4.53.81.76,1.19.11.26.22.52.32.78.21.23.41.47.62.7.31.43.3,1.1.73,1.41.47-.05.43-.99.32-1.43-.16-.67-.65-.98-1-1.46-.2-.27-.26-.54-.43-.87-.31-.37-.61-.74-.92-1.11-.08-.23-.16-.45-.24-.68-.15-.21-.31-.41-.46-.62-.07-.21-.14-.41-.22-.62-.17-.2-.34-.4-.51-.59-.18-.33-.36-.67-.54-1-.25-.28-.5-.56-.76-.84-.18-.25-.21-.61-.38-.89-.7-1.14-.97-1.69-.97-3.57V14.89c-.02-.56-.04-1.12-.05-1.68-.23-.78-1.49-1.88-2.27-2.11-.62-.18-1.58-.05-2.3-.05h-4.79c-9,0-17.99-.02-26.99-.03-.28-.07-.45-.24-.65-.38-.47-.32-.9-.51-1.19-1-.09-.22-.18-.43-.27-.65-.12-.15-.23-.31-.35-.46-.06-.2-.13-.4-.19-.59-.26-.32-.52-.65-.78-.97-.11-.23-.22-.47-.32-.7-.45-.7-1.04-1.4-1.49-2.14-.09-.26-.18-.52-.27-.78-.27-.32-.54-.65-.81-.97-.11-.23-.22-.47-.32-.7-.25-.28-.5-.56-.76-.84-.16-.22-.23-.54-.46-.68-.37-.23-1.19-.13-1.76-.14-.27.11-.58.08-.81.22-.58.35-.73.9-1.08,1.49-.17.19-.34.38-.51.57-.22.41-.43.81-.65,1.22-.27.29-.54.58-.81.87-.19.25-.2.64-.38.92-.26.32-.52.65-.78.97-.42.66-.79,1.28-1.19,1.92-.64,1.01-1.23,2.53-2.54,2.84-9.46,0-18.93.02-28.4.03h-5.11c-.76,0-1.78-.14-2.43.05-.69.2-2.01,1.41-2.22,2.08-.02.48-.04.96-.05,1.43v56.6c-.08.47-.32.66-.46,1-.47,1.11-.92,1.77-1.54,2.65-.13.3-.25.59-.38.89-.27.28-.54.56-.81.84-.1.27-.2.54-.3.81-.28.31-.56.61-.84.92l-.19.54c-.16.39-.44.77-.68,1.14-.93,1.46-2.14,2.52-2.46,4.6-.45,2.9,3.57,1.59,5.73,1.95.72.12,1.44.66,1.76,1.19.38.64.16,2.26.16,3.19v7.92c0,.61.02,1.23.03,1.84.17.74.87,1.68,1.84,1.24,0-.02.02-.04.03-.05-.08-.62-.72-.69-.84-1.38-.18-.98.06-2.05.19-2.87Z"/>
      <path class="cls-1" d="M88.79,78.34c.15.34.03.83.14,1.24.16.34.32.69.49,1.03.02.54.04,1.08.05,1.62.08.42.33.65.46.97.16.39.12.79.35,1.08.26.33.58.46,1,.65.29.13.48.38.84.46,1.37.31,3.05-1.15,3.38-2,.18-.45.17-3.24.05-3.84-.07-.39-.3-.6-.43-.92-.13-.31-.12-.66-.27-.92-.12-.16-.23-.32-.35-.49-.05-.33-.09-.67-.14-1-.17-.4-.54-.67-.78-1-.14-.25-.27-.5-.41-.76-.6-.59-1.21-1.19-1.81-1.78-.69-.54-2.21-1.33-2.49-2.19-.29-.89.24-1.43.57-1.87.46-.6,1.03-1.07,1.49-1.65.28-.39.56-.78.84-1.16.28-.3.56-.59.84-.89.28-.45.31-2.83.16-3.57-.12-.64-.64-.88-.95-1.33-.12-.28-.23-.56-.35-.84-.29-.48-2.03-2.29-2.57-2.43-2.06-.55-.78,4.13-1.22,5.27-.13.2-.25.4-.38.59-.06.32-.13.65-.19.97-.34.82-1.55,2.69-2.22,3.16-.41.22-.81.43-1.22.65-.23.05-.47.09-.7.14-.26.12-.44.35-.78.43-.84,0-1.68.02-2.52.03-.78,0-1.57-.02-2.35-.03-.36-.09-.56-.34-.87-.46-.33-.07-.67-.14-1-.22-1.22-.54-2.77-1.73-3.43-2.81-.07-.23-.14-.45-.22-.68-.12-.3-.37-.52-.46-.89-.02-.24-.04-.49-.05-.73-.16-.32-.32-.63-.49-.95-.13-.49-.11-1.6.03-1.97.15-.26.31-.52.46-.78.05-.32.09-.63.14-.95.61-1.59,1.74-2.72,3.11-3.54.32-.19,1.15-.59,1.49-.68.29-.03.58-.05.87-.08.27-.14.54-.29.81-.43.54-.17,3.14-.18,3.73-.03.35.09.57.33.87.43.31.04.61.07.92.11.37.09.56.34.87.46.27.05.54.11.81.16.34.14.52.4.95.49,1.2.23,1.54-.75,1.24-1.76-.07-.26-.28-.42-.41-.62-.07-.24-.14-.49-.22-.73-.11-.16-.22-.32-.32-.49-.29-.68-.2-1.24-.73-1.65-.54-.3-1.08-.59-1.62-.89-.31-.02-.61-.04-.92-.05-.32-.15-.63-.31-.95-.46-.77-.2-1.89-.05-2.76-.05-.57,0-1.14.02-1.7.03-.35.16-.7.32-1.05.49-.59.02-1.19.04-1.78.05-.36.07-.54.31-.84.43-.31.06-.61.13-.92.19-.17.12-.34.23-.51.35-.42.18-1.41.23-1.78-.03-.2-.14-.78-1.25-.87-1.51-.05-.29-.09-.58-.14-.87-.11-.27-.34-.43-.43-.73-.11-.36-.05-.78-.22-1.05-.24-.28-.49-.56-.73-.84-.13-.28-.25-.56-.38-.84-.59-.58-1.19-1.15-1.78-1.73-.8-.62-1.77-.99-2-2.16-.29-1.48,1-2.67,1.57-3.38.57-.71.9-1.51,1.38-2.33.29-.49.77-1.04.95-1.62.13-.44.07-1.18,0-1.65v-2.3c0-.83.02-1.66.03-2.49-.08-.36-.32-.57-.46-.87-.07-.21-.14-.41-.22-.62-.14-.18-.27-.36-.41-.54-.07-.23-.14-.45-.22-.68-.21-.23-.41-.47-.62-.7-.14-.27-.29-.54-.43-.81-.51-.59-1.03-1.17-1.54-1.76-.81-.63-1.67-1.02-2.68-1.46-.21-.14-.41-.27-.62-.41-.36-.07-.72-.14-1.08-.22-.24-.1-.41-.3-.7-.38-.84-.05-1.68-.09-2.52-.14-.56-.13-.93-.35-1.6-.46-1.37-.22-2.22.34-3.16.51-.71.03-1.42.05-2.14.08-.27.14-.54.29-.81.43-.33.06-.67.13-1,.19-.16.12-.32.23-.49.35-.18.05-.36.09-.54.14-.22.14-.43.29-.65.43-1.12.68-2.38,1.22-3.16,2.22-.19.25-.22.59-.38.89-.27.35-.54.7-.81,1.05-.38.59-.53,1.19-.81,1.87-.14.22-.29.43-.43.65-.05.48-.11.96-.16,1.43-.2.78-.79,1.87-.41,3.03.11.32.32.63.41,1,.05.38.11.76.16,1.14.15.25.31.5.46.76.09.32.02.68.14.95.31.73,1,1.35,1.41,2,.12.31.23.61.35.92.52.74,1.93,1.17,1.49,2.76-.23.81-.99,1.02-1.43,1.6l-.43.87c-.29.24-.58.49-.87.73-.54.62-1.08,1.24-1.62,1.87-.09.27-.18.54-.27.81-.12.16-.23.32-.35.49-.43,1.08-.55,2.4-1.65,2.81-.68.25-1.13-.22-1.57-.35-.67-.03-1.33-.05-2-.08-.53-.12-.8-.41-1.41-.51h-1.41c-.85,0-1.98-.16-2.73.05-.32.15-.63.31-.95.46-.61.03-1.23.05-1.84.08-.64.18-.74.52-1.76.51-.41-.7.64-1.76.89-2.19,1.18-2.04,2.52-4.01,3.89-5.87.12-.27.23-.54.35-.81.27-.36.54-.72.81-1.08.14-.25.27-.5.41-.76.26-.29.52-.58.78-.87l.16-.54c.15-.22.31-.43.46-.65.08-.21.16-.41.24-.62.27-.32.54-.65.81-.97.25-.43.5-.87.76-1.3.31-.32.61-.65.92-.97.36-.57.5-1.3.87-1.87.2-.22.4-.43.59-.65.2-.34.4-.69.59-1.03.25-.3.5-.59.76-.89.11-.3.22-.59.32-.89.23-.29.47-.58.7-.87.13-.26.25-.52.38-.78.27-.29.54-.58.81-.87.4-.57.61-1.45,1-2,.24-.27.49-.54.73-.81l.27-.7c.32-.38.63-.76.95-1.14.37-.69.74-1.37,1.11-2.06.05-.23.11-.45.16-.68.12-.3,1.02-1.78.95-2.11-.11-.51-.79-1.3-1.24-1.49-.61-.25-1.45-.01-2.22-.14-1.45,0-2.9-.02-4.35-.03H12.58c-.24.02-.49.04-.73.05-.81.13-1.34.26-1.73.78-.16.21-.19.47-.3.73-.17.4-.48.68-.59,1.16-.2.84-.05,2.01-.05,2.95v42.78c0,.89-.15,2.05.05,2.84.11.43.41.72.59,1.08.2.4.3.73.65.97.99.69,2.18-.45,2.6-1.11.11-.25.22-.5.32-.76.29-.47.67-.81.95-1.33.25-.46.63-.77.92-1.16.14-.29.29-.58.43-.87.14-.2.29-.4.43-.59.21-.52-.18-1.15-.03-1.78.17-.34.34-.69.51-1.03,0-.45.02-.9.03-1.35.16-.26.32-.52.49-.78.16-.39.33-.68.49-1,.1-.29.2-.58.3-.87.26-.28.52-.56.78-.84.12-.24.23-.49.35-.73.25-.36.68-.65,1.03-.92.64-.5,1.24-1.04,1.92-1.51.21-.14.53-.5.92-.35.03,0,.05.02.08.03.12.72-1.23,2.21-1.57,2.76-.21.34-.11.93-.3,1.33-.29.32-.58.65-.87.97-.09.25-.18.5-.27.76-.27.3-.54.59-.81.89-.08.22-.16.43-.24.65-.14.19-.29.38-.43.57-.08.19-.16.38-.24.57-.28.35-.56.7-.84,1.05-.09.25-.18.5-.27.76-.17.28-.46.47-.54.84.06.53.13,1.06.19,1.6.14.21.27.41.41.62.06.4.13.79.19,1.19.46,1.07,1.49,2.5,2.35,3.19.84.67,1.46,1.11,1.46,2.65,0,.39.01.76-.11,1.03-.15.34-1.78,1.56-2.16,1.87-.87.7-2.26,2.17-2.7,3.25-.05.19-.09.38-.14.57-.14.21-.29.41-.43.62-.05.27-.11.54-.16.81-.22.67-.48.65-.49,1.76,0,1.76-.38,3.93.7,4.73.24.17.55.2.84.32.18.12.36.23.54.35.85.36,1.5-.15,2.03-.38.25-.11.57-.1.73-.3.3-.36.64-.97.73-1.49.11-.59-.18-1.24,0-1.78.17-.3.34-.59.51-.89.05-.32.09-.65.14-.97.14-.31.27-.61.41-.92.05-.24.09-.49.14-.73.11-.14.22-.29.32-.43.19-.31.22-.7.43-.97.48-.63,2.32-1.85,3.11-2.19.27-.06.54-.13.81-.19.23-.14.47-.27.7-.41.6-.05,1.21-.11,1.81-.16.41-.12.78-.34,1.3-.43,1.04-.18,1.73.34,2.52.49.61.04,1.23.07,1.84.11.27.08.43.28.65.38,1.92.87,3.52,1.96,4.52,3.73.09.23.18.45.27.68.27.48.54.96.81,1.43.04.39.07.78.11,1.16.15.35.31.7.46,1.05.04.57.07,1.14.11,1.7.21.72,1.72,1.88,2.84,1.57.3-.08.47-.32.73-.43.15-.05.31-.09.46-.14.3-.17.73-.51.87-.84.33-.78-.07-1.76.08-2.7,0-.7.02-1.41.03-2.11-.05-.33-.03-.71-.14-.97-.13-.2-.25-.4-.38-.59-.05-.26-.11-.52-.16-.78-.14-.21-.29-.41-.43-.62-.12-.27-.14-.54-.3-.76l-.87-.89c-.47-.63-.76-1.41-1.38-1.89-.84-.65-2.9-1.35-2.57-3.06.15-.76,1.65-2.05,2.22-2.52.88-.72.89-2.43,1.95-2.95.79-.39,1.48.14,1.95.35.35.08.7.16,1.05.24.21.13.41.25.62.38.41.03.83.05,1.24.08.44.1.66.42,1.14.51.89,0,1.78.02,2.68.03.66.11,1.53.1,2.19,0,.86,0,1.71-.02,2.57-.03.54-.09.77-.4,1.24-.51.39-.02.78-.04,1.16-.05.37-.08.57-.33.89-.46.29-.08.58-.16.87-.24.44-.28,1.92-1.13,2.73-.95.58.14,1.28.95,1.49,1.46.06.2.13.4.19.59.29.32.58.63.87.95.05.17.11.34.16.51.37.87,2.79,2.07,2.41,3.35-.28.93-1,1.26-1.68,1.78-.75.58-1.45,1.33-2.06,2.06-.25.23-.5.45-.76.68-.18.24-.19.59-.35.87-.3.5-.85.93-1,1.57-.07.86-.14,1.71-.22,2.57-.2.72-.59,1.81-.35,2.92.14.31.29.61.43.92.1.34.04.8.27,1,.22.08.43.16.65.24.29.12.5.37.84.46.83.22,2.23-.46,2.54-.84.28-.35.69-.87.78-1.35.15-.74-.2-1.88.08-2.54.14-.21.29-.41.43-.62.32-.77.42-1.45.81-2.14.82-1.45,1.99-2.33,3.41-3.19.53-.32,1.4-.87,2.03-1.05.61-.04,1.23-.07,1.84-.11.5-.11.91-.36,1.46-.46,1.04-.18,1.73.26,2.41.43.59.05,1.17.09,1.76.14,1.87.56,3.39,2.11,4.46,3.49.31.4.85.71,1.05,1.19ZM22.08,48.78c-.22.1-.43.2-.65.3-.25.26-.5.52-.76.78-.81.61-1.56,1.24-2.19,2.03-.33.34-.67.69-1,1.03-.1.25-.2.5-.3.76-.29.5-.77,1-.97,1.6-.05.38-.09.76-.14,1.14-.13.28-.4.46-.49.81,0,.58-.02,1.15-.03,1.73-.16.32-.32.63-.49.95-.05.35-.09.7-.14,1.05-.15.37-.49.61-.7.92-.16.32-.32.63-.49.95-.23.24-.47.49-.7.73-.41.51-.96,2.35-1.97,2.11-.87-.21-.62-1.9-.62-2.97V17.84c0-.88-.16-2.21.19-2.79.46-.76,1.27-.56,2.14-.92,7.83,0,15.67.02,23.5.03,1.78,0,3.55-.02,5.33-.03.78-.05,1.89.12,2.08.65.24.66-.81,1.63-.97,2.16-.05.36-.09.72-.14,1.08-.2.49-.7.79-.97,1.22-.26.41-.4.82-.68,1.19-.27.35-.65.65-.89,1.03-.36.56-.51,1.23-.87,1.78-.31.36-.61.72-.92,1.08-.11.22-.22.43-.32.65-.26.32-.52.65-.78.97-.08.23-.16.45-.24.68-.16.21-.32.41-.49.62-.22.38-.34.76-.59,1.11l-.81.81c-.17.36-.34.72-.51,1.08-.24.27-.49.54-.73.81-.33.57-.46,1.12-.78,1.68-.27.31-.54.61-.81.92-.17.35-.34.7-.51,1.05-.23.25-.45.5-.68.76-.09.26-.18.52-.27.78-.24.26-.49.52-.73.78-.16.32-.32.65-.49.97-.27.31-.54.61-.81.92-.09.23-.18.45-.27.68-.53.87-1.22,1.74-1.81,2.54-.13.28-.25.56-.38.84-.43.69-1.02,1.4-1.46,2.08-.13.28-.25.56-.38.84-.27.33-.54.67-.81,1-.12.26-.23.52-.35.78-.27.37-.71.87-1.14,1.08ZM85,73.31c-.29-.19-.7-.16-1.05-.3-.28-.15-.56-.31-.84-.46-.38-.03-.76-.05-1.14-.08-.57-.14-.91-.4-1.6-.51-.61-.1-1.65-.08-2.14.08-.35.12-.65.38-1.08.46-.42.03-.85.05-1.27.08-.24.14-.49.29-.73.43-.22.05-.43.11-.65.16-.49.21-1,.66-1.43.95-.82.54-1.77.93-2.38,1.68-.28.34-.38.83-.65,1.19-.22.23-.43.45-.65.68-.17.23-.18.49-.3.78-.14.22-.27.43-.41.65-.13.32-.03.76-.14,1.14-.17.34-.34.69-.51,1.03-.14.67.12,1.61-.11,2.19-.39.98-2.26,1.35-3,.41-.45-.57-.52-3.03-.3-4.06.13-.31.25-.61.38-.92.16-.41.01-.99.14-1.46.24-.92,1.23-2.19,1.78-2.89l.54-.43c.3-.31.59-.61.89-.92.6-.46,1.2-.81,1.68-1.41.2-.25.52-.42.65-.73.12-.28.06-.63.05-.97,0-.39.06-.75-.05-1.08-.32-.92-2.07-1.88-2.62-2.79-.11-.29-.22-.58-.32-.87-.27-.29-.54-.58-.81-.87-.1-.25-.2-.5-.3-.76-.37-.61-1.07-1.21-1.92-1.35-.76-.12-2.03.7-2.51.97-.28.16-.65.11-.97.24-.3.12-.5.37-.87.46-.38.03-.76.05-1.14.08-.44.13-.68.42-1.24.51-2.56,0-5.12-.02-7.68-.03-.41-.09-.64-.38-1-.49-.39-.04-.78-.07-1.16-.11-.23-.14-.47-.27-.7-.41-.26-.05-.52-.09-.78-.14-.62-.19-1.26-.78-2.16-.41-.53.22-1.4.77-1.7,1.24-.19.3-.07.87-.22,1.22-.16.39-.63.79-.92,1.08-.54.51-1.08,1.03-1.62,1.54-.11.29-.22.58-.32.87-.17.27-.39.44-.46.84-.11.6.37.84.51,1.19.07.22.14.43.22.65.29.23.58.45.87.68.44.28.88.56,1.33.84.31.38.61.76.92,1.14l.59.59c.13.3.25.59.38.89.44.63,1.07,1.37,1.33,2.16.23.71-.04,1.72.11,2.52.08.45.34.76.43,1.16.16.69-.81,2.31-1.19,2.54-.23.14-.57.14-.95.14-.7,0-1.1-.5-1.22-1.08,0-.36-.02-.72-.03-1.08-.16-.32-.32-.65-.49-.97-.03-.3-.05-.59-.08-.89-.08-.34-.32-.53-.43-.81-.06-.33-.13-.67-.19-1-.17-.43-.59-.67-.84-1.03-.21-.3-.27-.72-.49-1-.91-1.18-2.18-2.1-3.49-2.89-.19-.14-.38-.27-.57-.41-.24-.05-.49-.11-.73-.16-.24-.14-.49-.29-.73-.43-.47-.04-.94-.07-1.41-.11-.35-.15-.7-.31-1.05-.46-.58-.17-1.78-.14-2.41-.03-.48.09-.74.33-1.16.46-.41.05-.81.09-1.22.14-.23.14-.45.27-.68.41-.31.06-.61.13-.92.19-1.34.55-3.38,2.17-4.19,3.27-.25.34-.17.74-.32,1.22-.13.19-.25.38-.38.57-.06.21-.13.41-.19.62-.14.22-.27.43-.41.65-.32.76.15,1.92-.14,2.7-.14.22-.27.43-.41.65-.39.9-.58,1.51-1.87,1.51-.36,0-.69-.02-.92-.16-.25-.15-.58-.45-.7-.73-.18-.43-.17-4.26-.03-4.81.14-.24.27-.49.41-.73.05-.23.11-.45.16-.68.13-.17.25-.34.38-.51.1-.25.2-.5.3-.76.38-.62,1.02-1.04,1.46-1.6.38-.48.79-.95,1.27-1.33,1.01-.8,2.72-1.83,2.14-4-.24-.89-1.24-1.44-1.76-2.08-.75-.93-1.57-1.85-2.06-3.03-.05-.22-.11-.43-.16-.65-.12-.3-.41-.48-.49-.84v-1.92c.15-.72,1.16-1.81,1.54-2.41.09-.21.18-.41.27-.62.25-.32.5-.63.76-.95.11-.26.22-.52.32-.78.28-.31.56-.61.84-.92.09-.25.18-.5.27-.76.26-.52.7-1.16.95-1.7.32-.72.63-1.7,1.22-2.16.32-.25.61-.23,1.08-.38.4-.13.63-.43,1.14-.51.5,0,.99-.02,1.49-.03.46-.1.71-.42,1.22-.51h1.3c.89,0,2.08-.16,2.87.05.32.15.65.31.97.46.52,0,1.05.02,1.57.03.72.13,1.24.81,2.06.46,1.33-.57,2.04-1.87,2.6-3.22.15-.35.08-.82.27-1.11.22-.27.43-.54.65-.81.13-.24.25-.49.38-.73.55-.74,1.37-1.31,1.95-2.06.59-.59,1.19-1.17,1.78-1.76.24-.39.29-1.8.05-2.27-.44-.44-.88-.88-1.33-1.33-.46-.57-.89-1.29-1.27-1.92-.11-.27-.22-.54-.32-.81-.26-.44-.73-.8-.89-1.33-.04-.54-.07-1.08-.11-1.62-.14-.41-.29-.81-.43-1.22-.24-1.28.3-1.9.46-2.7.03-.49.05-.97.08-1.46.11-.36.67-1.26.89-1.6.11-.28.22-.56.32-.84.26-.34.52-.69.78-1.03.14-.24.27-.49.41-.73.69-.77,2.17-1.45,3.19-1.89.19-.13.38-.25.57-.38.34-.05.69-.11,1.03-.16.32-.16.65-.32.97-.49.59,0,1.17-.02,1.76-.03.47-.08.72-.24,1.05-.38.23-.05.45-.09.68-.14.81,0,1.62.02,2.43.03.36.15.72.31,1.08.46.77.03,1.53.05,2.3.08.28.08.46.3.7.41.41.06.81.13,1.22.19.15.11.31.22.46.32.58.33,1.15.5,1.7.84.31.19.76.5.95.81.12.23.23.47.35.7.27.27.54.54.81.81.22.39.43.78.65,1.16.16.22.32.43.49.65.05.24.11.49.16.73.12.26.33.48.41.81.03.35.05.7.08,1.05.1.32.36.51.49.78.16.33.16,2.28.03,2.7-.15.24-.31.49-.46.73-.05.32-.09.63-.14.95-.15.27-.31.54-.46.81-.25.63-.51,1.39-.89,1.89-.36.48-.94.84-1.27,1.33-.13.3-.25.59-.38.89-.53.73-1.21,1.05-.92,2.65.12.68.62.93.97,1.38.99,1.25,2.47,1.99,3.38,3.3.4.57.54,1.23.84,1.92.13.18.25.36.38.54.06.27.13.54.19.81.12.19.23.38.35.57.2.49.17.96.46,1.33.47.6,1.33,1.31,2.54.97.23-.14.47-.27.7-.41.33-.05.67-.11,1-.16.29-.15.58-.31.87-.46.6-.03,1.21-.05,1.81-.08.44-.09.68-.39,1.14-.49h4.25c.38.09.6.36.95.46.47.13,1.07,0,1.43.22.52.31.71.78,1,1.33.15.28.21.57.35.92.18.43.56.63.35,1.27-.63.37-1.8-.48-2.33-.7-.45-.06-.9-.13-1.35-.19-.26-.14-.52-.27-.78-.41-.66-.2-2.54-.18-3.3-.05-.51.09-.74.36-1.16.49-.4.12-.96,0-1.3.16-1.17.57-3.32,1.91-4.03,2.89-.12.25-.23.5-.35.76-.31.38-.61.76-.92,1.14-.21.51.02,1.23-.11,1.87-.09.42-.51.77-.43,1.27.14.39.27.78.41,1.16.15.7-.08,1.58.16,2.16.19.46.63.77.89,1.16l.35.78c.68.97,2.69,2.38,3.84,2.89.32.06.65.13.97.19.36.14.55.4,1,.49h1.46c.97,0,2.55.19,3.38-.05.23-.14.45-.27.68-.41.27-.06.54-.13.81-.19.16-.12.32-.23.49-.35.26-.1.52-.2.78-.3.73-.46.8-.88,1.3-1.54.37-.4.74-.79,1.11-1.19.22-.3.17-.81.32-1.19.12-.28.35-.47.43-.81.03-.34.05-.69.08-1.03.16-.38.42-.57.51-1.11.12-.73-.28-2.24.22-2.6.54-.39,1.09.76,1.27,1,.77,1.06,1.41,1.75,1.41,3.65v1.03c-.31,1.7-1.9,2.81-2.89,3.89-.53.58-1.36,1.2-1,2.49.08.3.32.48.49.7.3.39.59.78.89,1.16.62.5,1.28.92,1.89,1.41,1.02.8,1.63,1.89,2.33,3.03.17.26.34.52.51.78.05.35.09.7.14,1.05.09.21.28.39.35.65.17.62.21,3.76-.03,4.25-.15.31-.65.7-.97.84-1.25.53-2.63-.56-2.87-1.38,0-.68-.02-1.35-.03-2.03-.1-.61-.37-.86-.51-1.35-.06-.36-.13-.72-.19-1.08-.23-.28-.45-.56-.68-.84-.17-.32-.34-.65-.51-.97-.32-.31-.65-.61-.97-.92-.72-.89-1.67-1.75-2.65-2.38Z"/>
      <path class="cls-1" d="M99.12,49.18c0-.32.02-.63.03-.95.02-1.18.14-2.45-.03-3.57,0-2.06.02-4.13.03-6.19v-1.35c0-1.1.02-2.2.03-3.3-.03-2.72-.05-5.44-.08-8.17,0-2.15.02-4.31.03-6.46.06-1,.16-2.41-.05-3.38-.11-.49-.46-.71-.62-1.11-.12-.28-.13-.54-.3-.76-.17-.22-.58-.51-.87-.59-.57-.17-1.88-.2-2.51-.11-1.45,0-2.9-.02-4.35-.03h-21.88c-.32,0-.63.02-.95.03-1.1.01-1.89.14-2.3.84-.16.27-.14,1.94-.03,2.22.13.16.25.32.38.49.06.19.13.38.19.57.29.37.58.74.87,1.11.14.29.29.58.43.87.21.27.41.54.62.81.11.23.22.47.32.7.16.22.32.43.49.65.07.21.14.41.22.62.23.26.47.52.7.78.44.61.71,1.32,1.11,1.95.21.34.5.65.7.97.12.3.23.59.35.89.26.35.63.59.87.97.54.89,1.01,1.78,1.57,2.6.11.27.22.54.32.81.29.32.58.63.87.95.08.25.16.5.24.76.28.34.56.69.84,1.03.34.58.49,1.14.84,1.73.27.3.54.59.81.89.11.28.22.56.32.84.41.68.97,1.35,1.41,2.03.09.24.18.49.27.73.29.32.58.65.87.97.09.26.18.52.27.78.28.33.56.67.84,1,.36.58.49,1.17.84,1.78.24.28.49.56.73.84.13.28.25.56.38.84.26.28.52.56.78.84.32.41.52.89.84,1.33.37.5,1.66.72,2.24,1.08,1.41.86,2.8,1.96,3.76,3.27.27.46.54.92.81,1.38.13.15.25.31.38.46.05.29.11.58.16.87.13.23.25.45.38.68.07.3.14.59.22.89.15.29.31.58.46.87,0,1.5.02,2.99.03,4.49.15.74.83,1.29,1.08,1.92.06.21.13.41.19.62.31.51,1.76,1.88,2.84,1.19.25-.16.23-.43.35-.73.14-.35.47-.57.59-.97.17-.54-.02-1.27.08-1.92,0-2.09.02-4.18.03-6.27,0-.54-.02-1.08-.03-1.62v-1.68c.16-1.08.16-2.68,0-3.76ZM97.42,65.14c-.74.18-1.61-.93-1.78-1.35-.07-.24-.14-.49-.22-.73-.12-.23-.31-.4-.38-.7-.02-.99-.04-1.98-.05-2.97-.09-.42-.38-.68-.49-1.05-.02-.61-.04-1.23-.05-1.84l-.41-.81c-.1-.33-.2-.67-.3-1-.12-.15-.23-.31-.35-.46-.26-.62-.47-1.33-.84-1.84-.3-.28-.59-.56-.89-.84-.92-.92-1.87-1.9-3-2.6-1.02-.62-2.22-.9-2.95-1.81-.81-1.03-1.38-2.18-2.08-3.35-.37-.61-.86-1.09-1.22-1.62-.45-.68-.66-1.4-1.08-2.11-.28-.33-.56-.67-.84-1-.09-.23-.18-.47-.27-.7-.43-.7-1.06-1.41-1.46-2.11-.12-.29-.23-.58-.35-.87-.25-.28-.5-.56-.76-.84-.33-.55-.51-1.38-.87-1.89-.27-.28-.54-.56-.81-.84-.14-.32-.27-.65-.41-.97-.24-.25-.49-.5-.73-.76-.39-.6-.48-1.32-.87-1.92-.27-.29-.54-.58-.81-.87-.1-.26-.2-.52-.3-.78-.26-.28-.52-.56-.78-.84-.14-.2-.14-.43-.24-.68-.16-.4-.4-.74-.59-1.19-.16-.38-.57-.6-.81-.92-.14-.31-.29-.61-.43-.92-.25-.28-.5-.56-.76-.84-.12-.3-.23-.59-.35-.89-.23-.29-.47-.58-.7-.87-.4-.61-.64-1.24-1.03-1.84-.25-.32-.5-.65-.76-.97-.08-.26-.16-.52-.24-.78-.13-.26-.44-.43-.32-.87.21-.51.71-.46,1.3-.59,1.56-.36,4.05-.14,5.87-.14h13.66c.52.08,1.07.08,1.6,0,2.22,0,4.44-.02,6.65-.03,1.19,0,2.41.16,2.87.89.3.48.14,1.7.14,2.41v44.78c0,.93.28,2.73-.49,2.92Z"/>
      <path class="cls-1" d="M93.41,22.01c-.38-1.05,1.66-2.21.97-3.84-.19-.46-1.01-.55-1.6-.38-.91.27-1.52,1.48-2.87,1.14-.99-.25-.82-2.34-2.27-2.7-.59.3-1.07.65-1.41,1.19-.33.52-.25,1.26-.92,1.43-.84.21-1.78-.88-2.46-1.03-.69-.14-1.63-.03-1.81.43-.64,1.63,1.72,2.15.97,3.92-.31.73-2.33,1.07-2.08,2.08.31,1.31,2.4,1.19,2.68,2.35.33,1.37-1.21,2.06-1.54,2.84-.24.58-.04,1.43.32,1.68.95.65,2.22-.2,2.76-.59.23-.17.74-.44,1.11-.16.28.21.2.74.35,1.08.12.27.36.46.43.78.44,1.92-.57,5.03.38,6.6.31.52.49,1.24,1.49,1.05,1.48-.28.68-1.66.89-3,.12-.76.45-1.04.57-1.76,0-.36-.02-.72-.03-1.08-.16-1.36.06-2.7.59-3.46.7-1.01,2.19.54,2.92.7.51.11,1.25.02,1.46-.27.12-.17.11-.44.11-.73,0-.85-.43-1.76-.87-2.33-.23-.3-.89-.73-.73-1.35.28-1.1,2.23-.86,2.65-1.84.7-1.64-1.74-1.84-2.08-2.76ZM94.17,24.33c-.3.77-1.67.79-1.89,1.87-.27,1.27.39,2.14.87,2.87.11.17.39.76.11.97-.44.34-.97-.21-1.24-.32-1.03-.43-1.39-.89-2.43-.19-.22.15-.48.24-.59.49-.25.55,0,1.51-.11,2.16-.19,1.14-.7,2.25-.51,3.65.14,1.05.04,2.3-.59,2.62-.13-.02-.25-.04-.38-.05-.44-.64-.09-1.81-.24-2.79-.13-.84-.48-1.17-.62-1.97-.18-1.06.31-2.32-.05-3.19-.28-.67-.78-1.71-1.87-1.24-.19.13-.38.25-.57.38-.24.11-1.33.79-1.62.41-.24-.32.13-.93.24-1.14.41-.77,1.33-1.08,1.08-2.46-.17-.94-1.04-1.27-1.73-1.68-.23-.14-.47-.14-.59-.38-.25-.66,1.58-1.25,1.76-2.06.32-1.47-.76-1.78-.76-3.06.79-.83,2.05.99,3.06.76.54-.13,1.26-.89,1.51-1.33.24-.4.2-.71.54-1,1.17,0,1.01,2.12,1.97,2.33,1.29.28,1.98-.31,2.62-.76.23-.16.8-.47,1.16-.22.07.05.07.05.11.14.29.76-1.2,1.85-1.08,2.65.07.45.54,1.26.87,1.49.34.23,1.27.34,1,1.05Z"/>
      <path class="cls-1" d="M23.4,34.77c.11-.66.45-.93.57-1.68.14-.89-.17-1.89.24-2.46.86-1.2,2.27.45,3.03.65.54.14,1.47.01,1.68-.3.11-.17.07-.37.11-.62.18-1.13-.62-1.42-1-2.06-.09-.23-.18-.45-.27-.68-.16-.24-.45-.51-.35-1,.23-1.12,1.87-.92,2.16-1.97.51-1.78-1.42-1.66-1.65-2.92-.17-.92.81-2.04,1.05-2.65.17-.42.04-1.04-.3-1.19-1.97-.85-3.08,1.52-4.46.97-1.11-.44-.72-2.18-2.3-2.22-.15.05-.31.09-.46.14-.46.68-.36,1.75-1.16,2.08-1.83.77-2.69-2.27-4.49-.95-.3.22-.36,1.01-.24,1.49.17.7,1.27,1.53,1.08,2.43-.23,1.11-1.92,1-2.14,2.16-.24,1.28,2.24,1.62,2.46,2.46.16.63-.37,1.26-.59,1.57-.45.61-.71,1.29-.81,2.24-.02.22.04.62.16.78.22.29,1.16.31,1.57.16.91-.32,2.18-1.86,3.08-.38.66,1.09.02,3.2.27,4.71.12.71.57.93.62,1.65.07,1.11-.51,3.32.89,3.11.5-.07.52-.34.68-.76.13-.34.45-.5.54-.92,0-1.29.02-2.58.03-3.87ZM22.89,33.96c0,.75.11,1.59-.14,2.16-.13.31-.41.54-.51.89-.05.37-.11.74-.16,1.11-.02.03-.04.05-.05.08h-.14c-.39-.63-.16-1.85-.16-2.81,0-1.16.19-2.84-.05-3.87-.14-.29-.29-.58-.43-.87-.12-.3-.15-.58-.32-.81-.17-.13-.34-.25-.51-.38-.98-.73-1.53-.14-2.43.24-.37.16-.91.68-1.41.24-.14-.82.88-1.51,1.14-2.16.15-.37.15-1.25.05-1.76-.19-1.03-1.7-.99-1.89-1.73-.21-.79,1.7-1.18,1.89-2.08.39-1.78-1.21-1.76-1.22-3.25.06-.05.13-.11.19-.16,1.08-.4,1.83,1.66,3.76,1.14.78-.21.94-1.38,1.49-1.87,1.13,0,.86,1.66,2.3,1.92,1.46.26,2.13-1.55,3.35-.97.35,1.06-1.13,1.71-.73,3.27.25.96,1.69.95,1.7,2.03-.72.72-2.08.88-2.3,2.08-.22,1.2.75,1.76,1.11,2.46.11.21.48.79.24,1.11-.15.2-.66.1-.84,0-.41-.24-1.32-1-1.95-.89-.68.11-1.32.73-1.68,1.19-.52.68-.3,2.54-.3,3.68Z"/>
      <path class="cls-1" d="M46.01,33.93c.1.24.1.46.24.65.73.99,2.53,2.31,3.73,2.81.36.08.72.16,1.08.24.22.13.43.25.65.38.55.02,1.1.04,1.65.05.67.11,1.6.1,2.27,0,.49-.02.97-.04,1.46-.05.24-.14.49-.29.73-.43l.7-.16c.17-.13.34-.25.51-.38.2-.08.4-.16.59-.24.76-.45,2.04-1.57,2.52-2.3.07-.22.14-.43.22-.65.12-.15.23-.31.35-.46.07-.23.14-.45.22-.68.12-.27.37-.44.46-.76.04-.39.07-.78.11-1.16.11-.55.55-1.03.46-1.68-.05-.37-.28-.63-.38-.95-.06-.48-.13-.96-.19-1.43-.16-.27-.32-.54-.49-.81-.22-.56-.47-1.26-.78-1.73-.75-1.12-2.2-1.9-3.49-2.52-.25-.12-.43-.35-.73-.43-.39-.04-.78-.07-1.16-.11-.34-.15-.69-.31-1.03-.46-.93,0-1.86-.02-2.79-.03-.2.04-.4.07-.59.11-.26.11-.48.33-.81.41-.39.09-.79.02-1.11.16-1.32.59-3.35,1.74-4.16,2.81-.37.49-.61,1.24-.87,1.84-.13.3-.37.52-.46.87-.08.32-.02.8.03,1.08.1.66-.1,1.33,0,1.95.12.72-.18,1.42,0,2.08.15.27.31.54.46.81.06.2.13.4.19.59.14.19.27.38.41.57ZM45.39,30.39c-.12-.33-.07-1.8.03-2.11.15-.23.31-.47.46-.7.05-.29.09-.58.14-.87.09-.28.3-.46.41-.7.09-.28.18-.56.27-.84.76-1.24,2.32-2.17,3.7-2.76.38-.16.91-.06,1.35-.19.22-.13.43-.25.65-.38.2-.05.4-.09.59-.14.83,0,1.86-.12,2.6.05.33.15.67.31,1,.46.46.04.92.07,1.38.11.23.14.47.29.7.43.23.08.47.16.7.24.92.56,1.77,1.37,2.33,2.3.06.19.13.38.19.57.13.29.41.47.49.84.09.43,0,.85.11,1.22.15.46.47.97.32,1.73-.14.37-.27.74-.41,1.11-.09.48.06,1.12-.11,1.51-.88,2.06-2.13,3.32-4.22,4.19-.27.15-.54.31-.81.46-.74.23-1.94.05-2.79.05-.95,0-1.89-.02-2.84-.03-.34-.08-.51-.32-.78-.43-.29-.07-.58-.14-.87-.22-1.34-.57-2.66-1.64-3.35-2.87-.08-.27-.16-.54-.24-.81-.12-.22-.3-.38-.38-.65-.05-.29-.09-.58-.14-.87-.16-.24-.32-.49-.49-.73Z"/>
      <path class="cls-1" d="M64.7,47.89c-.06-.31-.13-.61-.19-.92-.17-.42-.56-.71-.81-1.05-.16-.29-.32-.58-.49-.87-.89-1.16-2.23-1.79-3.52-2.57-.15-.11-.31-.22-.46-.32-.27-.06-.54-.13-.81-.19-.22-.14-.43-.27-.65-.41-.46-.03-.92-.05-1.38-.08-.39-.09-.65-.35-.97-.46-.48-.16-1.22-.09-1.81-.08-.2.03-.4.05-.59.08-.32.12-.58.37-.97.46-.41.03-.83.05-1.24.08-.23.14-.45.27-.68.41-.28.06-.56.13-.84.19-.23.14-.45.29-.68.43-1.89.89-2.65,1.61-3.84,3.19-.27.32-.54.63-.81.95-.17.28-.12.59-.22.97-.14.24-.29.49-.43.73-.05.25-.11.5-.16.76-.15.3-.31.59-.46.89-.13.54-.12,2.84.03,3.33.15.3.31.59.46.89.04.29.07.58.11.87.14.22.29.43.43.65,1.03,2.32,2.52,3.78,4.76,4.89.21.14.41.27.62.41.32.07.63.14.95.22.22.1.39.31.65.38.47.05.94.09,1.41.14.29.14.58.27.87.41.7.02,1.41.04,2.11.05.57-.09.84-.32,1.3-.46.56-.05,1.12-.11,1.68-.16.2-.13.4-.25.59-.38.23-.05.47-.11.7-.16.5-.2,1.01-.65,1.43-.95,1.46-1.02,2.22-1.64,3.19-3.16.16-.25.42-.43.54-.73.05-.25.09-.5.14-.76.15-.46.39-.7.49-1.3,0-1.85-.02-3.7-.03-5.54-.07-.33-.29-.54-.41-.81ZM63.91,55.38c-.63,1.52-2.14,3.29-3.49,4.08-.55.32-1.04.46-1.65.73-.25.14-.5.29-.76.43-.53.03-1.06.05-1.6.08-.64.12-1.07.36-1.84.49-1.14.18-1.87-.32-2.65-.49-.48-.03-.96-.05-1.43-.08-.23-.14-.45-.27-.68-.41-.75-.31-1.4-.43-2.06-.84-1.19-.74-1.97-1.88-2.73-3.06-.23-.32-.45-.65-.68-.97-.05-.38-.11-.76-.16-1.14-.13-.23-.25-.47-.38-.7-.22-.7-.21-2.62-.05-3.41.09-.44.35-.7.46-1.08.04-.33.07-.67.11-1,.19-.28.38-.56.57-.84.19-.35.38-.7.57-1.05.86-1.19,2.39-2.27,3.81-2.89.24-.06.49-.13.73-.19.23-.14.47-.27.7-.41.48-.03.96-.05,1.43-.08.53-.09.99-.26,1.49-.46.5,0,1.13-.07,1.54.05.3.13.59.25.89.38.62.04,1.24.07,1.87.11.25.14.5.29.76.43,2.21.94,3.79,2.11,4.81,4.22.15.28.31.56.46.84.28.94.08,2.29.08,3.35,0,1.12.23,3.02-.14,3.89Z"/>
      <path class="cls-1" d="M34.73,52.32c-.36-.16-.93-.05-1.35-.16-.32-.15-.63-.31-.95-.46-.85-.02-1.69-.04-2.54-.05-.3.02-.59.04-.89.05-.32.15-.63.31-.95.46-.35.1-.8.03-1.11.16-.17.12-.34.23-.51.35-.28.09-.56.18-.84.27-1.11.72-2.05,1.52-2.84,2.57-.26.35-.72.61-.89,1.03-.06.36-.13.72-.19,1.08-.11.35-.35.58-.43,1-.12.6-.12,2.84.03,3.38.14.29.29.58.43.87.1.35.05.69.19.97.96,1.91,2.75,3.79,4.79,4.6.32.06.63.13.95.19.28.11.46.35.78.43h5.06c.36-.08.55-.34.87-.46.23-.05.45-.11.68-.16,1.68-.69,3.97-3.01,4.68-4.68.08-.33.16-.67.24-1,.12-.23.23-.47.35-.7.17-.66.18-3.35-.05-3.89-1.17-2.65-2.84-4.68-5.49-5.84ZM39.19,62.08c-.14.26-.27.52-.41.78-.06.33-.13.67-.19,1-.14.18-.27.36-.41.54-1.04,1.74-1.88,2.3-3.84,3.11-.24.14-.49.29-.73.43-.74.23-2.6.05-3.52.05h-1.51c-.49-.09-.7-.39-1.11-.51-1.64-.49-2.97-1.17-3.87-2.38-.13-.29-.25-.58-.38-.87-.11-.14-.22-.29-.32-.43-.06-.28-.13-.56-.19-.84-.14-.24-.27-.49-.41-.73v-4c.15-.28.31-.56.46-.84.07-.28.14-.56.22-.84,1.02-2.34,3.78-2.87,6.19-3.84,1.08,0,2.16.02,3.25.03.32.16.65.32.97.49.37.04.74.07,1.11.11,1.84.56,3.08,1.93,4.03,3.41.08.28.16.56.24.84.15.36.37.61.46,1.11.1.6.09,2.91-.05,3.38Z"/>
      <path class="cls-1" d="M99.12,94.67c.12-.8,0-1.66,0-2.49,0-1.15.2-2.55-.05-3.62-.11-.47-.46-.73-.62-1.14-.26-.64-.52-1.13-1.19-1.33-.7-.2-1.2.37-1.51.68-.6.59-.91,1.46-1.27,2.3-.32.74-.85,1.48-1.33,2.08-1.46,1.85-3.47,3.47-5.81,4.41-.3.05-.59.11-.89.16-.2.13-.4.25-.59.38-.32.07-.65.14-.97.22-.25.11-.44.32-.73.41-1.62.04-3.25.07-4.87.11-1.23-.19-2.83.19-4.08-.08-.41-.09-.63-.38-1-.49-.34-.04-.69-.07-1.03-.11-.3-.09-.48-.3-.73-.41l-.97-.19c-.49-.2-1.06-.61-1.49-.89-.54-.35-1.12-.5-1.65-.84-.49-.39-.97-.78-1.46-1.16-1.06-.84-1.66-2.26-2.19-3.62-.06-.32-.13-.63-.19-.95-.19-.47-.91-1.46-1.3-1.76-.21-.16-1.5-.75-1.76-.81-2.97,0-5.95-.02-8.92-.03-1.21,0-2.42.02-3.62.03-.38.08-.58.33-.89.46-1.73.71-1.87,2.04-2.6,3.7-.19.43-.62.68-.87,1.05-.13.28-.25.56-.38.84-.69.74-1.39,1.48-2.08,2.22-.5.36-1.06.52-1.6.87-.43.28-.92.7-1.41.89-.32.06-.63.13-.95.19-.25.11-.43.32-.73.41-.34.04-.69.07-1.03.11-.47.14-.74.42-1.35.51h-3.33c-.81.13-1.71,0-2.57,0-.91,0-2.05.14-2.87-.05-.32-.08-.5-.29-.76-.41-.35-.05-.7-.11-1.05-.16-.25-.14-.5-.29-.76-.43-.32-.05-.65-.11-.97-.16-.47-.19-.84-.63-1.24-.89-.24-.1-.49-.2-.73-.3-.86-.52-2.2-1.64-2.81-2.41-.26-.37-.52-.74-.78-1.11-.3-.34-.59-.69-.89-1.03-.18-.32-.1-.79-.24-1.16-.13-.17-.25-.34-.38-.51-.44-.71-.7-1.47-1.38-1.92-.26-.1-.52-.2-.78-.3-.36-.17-.55-.41-1.11-.43-1.7.69-2.3,1-3,2.7-.36.88-.16,2.53-.16,3.68v4.14c.02.65.04,1.3.05,1.95.11.45.43.72.59,1.11.29.71.48,1.2,1.16,1.49.34.14.77.07,1.19.14,1.5.24,3.35.05,4.95.05h75.02c1.27,0,4.53.2,5.27-.24.3-.18.78-.48.92-.81.07-.26.14-.52.22-.78.19-.33.45-.58.54-1.03.21-1.03-.14-2.17.03-3.22ZM97.9,89.94v8.65c-.3,1.45-3.07,1-4.79,1H16.29c-1.01,0-4.55.2-5.11-.14-.95-.56-.73-2.23-.73-3.73v-5.41c0-.77-.14-1.87.11-2.46.21-.49.92-1.07,1.46-1.22.71-.19,1.13.22,1.51.43.62.34,1.22.99,1.43,1.7.05.28.09.56.14.84.27.38.54.76.81,1.14.18.27.27.56.46.81.35.33.7.67,1.05,1,1.63,2.1,4.13,3.57,6.79,4.62.41.05.81.09,1.22.14.31.15.61.31.92.46,1,.03,2,.05,3,.08.5.08,1.01.16,1.51.24.66-.09,1.32-.18,1.97-.27.81,0,1.62-.02,2.43-.03.32-.15.63-.31.95-.46.41-.05.81-.09,1.22-.14.19-.12.38-.23.57-.35.32-.07.63-.14.95-.22.91-.36,1.79-1.06,2.62-1.54.61-.35,1.28-.6,1.7-1.14.8-1.02,1.6-2.04,2.41-3.06.1-.23.2-.45.3-.68.14-.23.38-.4.49-.68.04-.25.07-.5.11-.76.13-.43.59-1.13.92-1.41.39-.24.78-.49,1.16-.73.2-.04.4-.07.59-.11h8.63c1.1,0,3.05-.2,3.87.14.56.23,1.41.69,1.65,1.24.07.33.14.67.22,1,.12.24.23.49.35.73.06.35.13.7.19,1.05.16.4.59.63.84.95.25.39.5.78.76,1.16.42.54,1.08.85,1.62,1.27,1.07.82,2.15,1.56,3.52,2.11.21.14.41.27.62.41.27.06.54.13.81.19.24.14.49.27.73.41.43.05.87.09,1.3.14.31.15.61.31.92.46.85,0,1.69.02,2.54.03.63.09,1.26.18,1.89.27.44-.08.88-.16,1.33-.24.96-.02,1.91-.04,2.87-.05.32-.15.63-.31.95-.46.3-.04.59-.07.89-.11.26-.14.52-.29.78-.43.26-.06.52-.13.78-.19.19-.13.38-.25.57-.38.23-.05.47-.11.7-.16.19-.14.38-.27.57-.41,1.43-.85,2.56-1.74,3.7-2.84.25-.23.5-.47.76-.7.22-.38.43-.76.65-1.14.41-.54.93-1.14,1.22-1.81.05-.32.11-.63.16-.95.12-.44.73-1.18,1.43-1.03,1,.22.84,1.51.84,2.73Z"/>
      <path class="cls-1" d="M37.03,85.56c-.68-.19-1.71-.05-2.49-.05h-9.76c-.43.19-1.56.54-1.78.87-.16.23-.16.62-.16,1,0,1.67,1.02,2.15,1.97,2.84.28.2.66.25.97.43.19.13.38.25.57.38.23.03.45.05.68.08.32.16.63.32.95.49.51.02,1.03.04,1.54.05.75.11,1.58.11,2.35,0,.59,0,1.17-.02,1.76-.03.35-.07.53-.32.81-.43.34-.06.69-.13,1.03-.19.65-.26,1.27-.8,1.78-1.22.44-.35,1.2-.83,1.35-1.43.12-.48.12-1.75-.11-2.06-.15-.2-.45-.2-.7-.3-.25-.14-.5-.29-.76-.43ZM37.9,87.67c-.12.5-.69.98-1.05,1.27-.39.31-.84.74-1.33.95-.31.06-.61.13-.92.19-.31.12-.5.37-.87.46-.81,0-1.62.02-2.43.03h-3.19c-.43-.08-.62-.32-.95-.46-.24-.05-.49-.09-.73-.14-.43-.22-.87-.43-1.3-.65-.36-.22-1.83-1.29-1.51-1.97.23-.5.76-.57,1.3-.78h10.06c1.07,0,3.21-.08,2.92,1.11Z"/>
      <path class="cls-1" d="M85.44,85.53c-.79,0-1.59-.02-2.38-.03h-9.38c-.79.31-1.71.55-2.11,1.22-.75,1.25.87,2.7,1.54,3.14.59.37,1.19.74,1.78,1.11.42.08.85.16,1.27.24.26.11.41.34.76.41.52,0,1.05.02,1.57.03.74.11,1.57.11,2.33,0,.55,0,1.1-.02,1.65-.03.32-.08.49-.32.76-.43.32-.07.63-.14.95-.22.84-.36,1.55-.97,2.08-1.65.29-.37.74-.55.87-1.08.12-.51.12-1.58-.14-1.92-.17-.22-.51-.23-.78-.35-.26-.11-.44-.35-.76-.43ZM86.19,87.67c-.17.85-1.27,1.89-2,2.22-.27.06-.54.13-.81.19-.3.12-.5.37-.87.46-.98,0-1.97.02-2.95.03-.93,0-1.86-.02-2.79-.03-.34-.08-.55-.32-.84-.43-.26-.05-.52-.09-.78-.14-.43-.13-.8-.41-1.22-.62-.76-.39-2.21-1.7-.89-2.57.2-.13.43-.12.68-.22h9.63c1.14,0,3.12-.26,2.84,1.11Z"/>
      <path class="cls-1" d="M105.37,85.5h-2.95c-.79.36-1.71.67-2.14,1.38-.09.25-.18.5-.27.76-.15.24-.31.49-.46.73-.26.8-.11,2.08-.11,3.06v6.25c.13.84.35,2.03.16,3.03-.11.57-.64.64-.68,1.22.82.47,1.53-.3,1.7-.97.02-.66.04-1.32.05-1.97v-8.03c0-.97-.22-2.61.19-3.25.78-1.22,1.92-1.14,3.89-1.14.84,0,2.2.23,2.33-.51.07-.19-.1-.37-.19-.49-.41-.1-1.04-.05-1.54-.05Z"/>
    </g>
  </g>
</svg>