<?xml version="1.0" encoding="UTF-8"?>
<svg id="Layer_2" data-name="Layer 2" xmlns="http://www.w3.org/2000/svg" viewBox="0 0 117.4 185.88">
  <defs>
    <style>
      .cls-1 {
        fill-rule: evenodd;
      }
    </style>
  </defs>
  <g id="Layer_1-2" data-name="Layer 1">
    <g>
      <path class="cls-1" d="M56.69,11.43c.29.27.33.17.73.27.3-.18.61-.37.91-.55.15-.63.12-1.03.09-1.83.55-.03,1.1-.06,1.65-.09.55.58,1.1,1.16,1.65,1.74,2.22-.25,1.71-2.62,2.74-4.02.97-1.32,2.81-.15,3.84-3.29-1.21-1.77-3.14-.45-4.02.82h-1.46c-.65-1.41.48-2.04.55-3.38l-1.1-1.1h-1.01c-1.09,1.2-3.28.91-4.57,1.92-1.72,1.35-.14,3.87-.18,5.76-.03,1.14-.73,1.48-.73,2.83.3.3.61.61.91.91Z"/>
      <path class="cls-1" d="M54.22,4.75v-1.46c-.21-.9-.62-1.69-1.01-2.38-.31-.15-.73-.2-1.28-.18-2.96,2.71-.28,4.38,1.19,6.95,2.55-.4,1.63-1.26,1.1-2.93Z"/>
      <path class="cls-1" d="M87.96,97.74c-.36-.94-.9-1.86-1.1-3.02-.58-3.37.22-6.04-.73-8.78-.5-1.43.69-2.56.73-3.84-.06-1.55-.12-3.11-.18-4.66-.17-.63-.83-1.25-.55-2.29.27-.99.86-2.25,1.01-3.47.13-1.05-.95-1.7-1.19-2.47-.57-1.82,1.49-2.26,1.19-3.75-.27-.91-.55-1.83-.82-2.74-.34-1.37.71-7.48,1.1-8.41.46-.38,1.21-.04,1.74-.37,1.44-.87,1.04-4.49.73-6.4-.6-.46-1.21-.52-1.65.37-.06.03-.12.06-.18.09v2.38c-.3.7-.61,1.4-.91,2.1-.09.03-.18.06-.27.09-.56-.4.09-3.26.09-4.75,0-1.58.34-2.59-.27-3.75-.24-.27-.49-.55-.73-.82.06-1.46.12-2.93.18-4.39-.64-.76-1.28-1.52-1.92-2.29-.34-.91.08-1.92-.37-2.65-.55-.9-2.01-1.06-2.56-1.92-.21-.98-.43-1.95-.64-2.93-.6-.83-2.54-.99-3.2-1.46-.61-.43-.5-1.56-.91-2.19-1.47-2.28-4.61.5-4.57-4.11.93-1.22,2.71-1.33,3.38-2.83.98-.15,1.95-.3,2.93-.46.86-.43.91-1.5,1.37-2.38.61-1.17,1.97-1.34,2.74-2.93-.15-1.33-.91-1.99-2.01-2.38-1.54.12-1.81,1.61-3.02,2.19-.4.19-.74,0-1.1.37-.63.02-.93-.02-1.19-.37-.31-.48-.21-1.7-.18-2.47.63-.81,1.26-1.35,1.74-2.38-.35-2.78-1.94-5.9-5.3-5.85-.4.21-.79.43-1.19.64-1.3,1.97,2.97,3.53,3.75,4.94-.05,2.23-2.07,2-3.02,3.29-.18.52-.37,1.04-.55,1.55.21,1.46,1.23,2.5,2.29,3.11,1.26-.04,2.34-.43,3.47-.73.2.41.21,1.16.18,1.83-.27.38-.54.8-1.01,1.01-.83.32-2.33-.81-2.65-1.37-4.6.24-2.02,3.32-3.57,4.48-1.5,1.13-3.39-.67-4.21-.91-1.31-.39-2.54,1.22-4.21.55-.46-.46-.91-.91-1.37-1.37-.61-.34-1.22-.67-1.83-1.01-.79.77-2.08.92-3.11,1.46-1.32.7-1.76,2.33-3.29,2.74-.4.11-3.47-.99-5.3-1.01-.76-2.36-2.33-3.21-4.57-4.02-.52-.12-1.04-.24-1.55-.37-.55-.85-1.1-1.71-1.65-2.56-.66-.8-1.7-.96-2.29-1.92.06-.37.12-.73.18-1.1,1.98-.83,2.08-1.3,3.38-2.65-.34-1.94-3.56-1.19-4.3-.18-.5.68-.92,1.89-1.19,2.74-.23.75.26,1.32.37,1.74.28,1.13,0,1.95.46,2.83.67,1.31,8.38,5.67,10.33,5.67l.18.27c-.56,3.74-6.88,6.05-8.87,8.96-.48.7-1.18,1.78-1.46,2.47-.18.64-.37,1.28-.55,1.92-1.04.3-2.07.61-3.11.91-.33.43-.58.72-.82,1.28.08,1.88,1.61,1.72,2.19,3.02.59,1.44-.99,3.77-1.55,4.57.27,1.29,1.13,1.84,1.46,2.93.3.96-.29,1.68-.55,2.1-.82,1.33-1.62,2.63-3.2,3.2-2.07.75-3.58-.18-4.75,1.19-1.28,1.22-.1,2.87.55,3.66,2.31-.35,4.54-2.71,7.41-1.55.91,2.36-1.09,2.84-.73,4.66.37.88.73,1.77,1.1,2.65.54,1.78-.72,4.22-1.19,5.39-.91.23-1.13-.14-2.1-.37-.43.27-.85.55-1.28.82-.86.29-3.52-1.2-4.48-1.46-.35.56-1.08,1.3-1.55,1.83.84,3.13,3.53,1.72,5.12,1.19,1.05-.35,1.37.56,1.92.73,1.44.46,2.86-.99,3.57,1.01.68,1.93-1.02,3.24-1.28,4.57-.28,1.43,1.18,2.06,1.46,3.11.61,2.29-1.85,2.79-1.19,5.21.36,1.3,1.88,3,1.19,5.03-.34.99-2.02,2.04-1.46,3.75.3.55.61,1.1.91,1.65.5,1.37-.36,2.74-.64,3.38.52,1.1.57,4.23,1.01,5.67.65,2.17-1.2,3.69-.73,5.21.28.91.73,1.38.73,2.74-.37.03-.73.06-1.1.09-.52-.61-1.04-1.22-1.55-1.83-.53-.45-4.25-2.1-4.75-2.1-.37.43-.73.85-1.1,1.28.06.3.12.61.18.91,1.55.52,2.09,2.4,3.02,3.57.96,1.2,2.84,1.18,3.75,2.1.55.56.33,1.32.55,2.01.34.7.67,1.4,1.01,2.1.52,1.72-1.31,4.61-1.92,5.49.24,1.17,1.06,1.66,1.37,2.65.47,1.5-.77,2.32-.55,3.38.2.95,1.53,4.69,1.1,6.22-.34,1.16-.67,2.32-1.01,3.47.03,1.12.71,1.67,1.01,2.65.49,1.64-1.28,4.66-1.01,6.58.16,1.16,1.54,2.16,1.01,3.93-.32,1.06-1.75,2.51-1.28,4.02.32,1.05,2.16,1.75,1.46,3.75-.27.77-.88.83-.91,2.01.4.43.79.85,1.19,1.28,1.2,0,1.47-.4,2.19-.64,2.16-.73,3.48,1.16,5.12.64,1.76-.56,6.55-1.12,8.5-.09.67-.12,1.34-.24,2.01-.37,1.5-.08,4.07-.54,5.12.37.8.49,1.39,3.72.91,5.3-.36,1.21-1.11,2.08-.73,3.57.27,1.06.91,1.67.91,3.11,0,2.97-2.8,7.28,2.1,7.5,1.96-1.48.38-2.74,1.1-5.21.21-.52.43-1.04.64-1.55-.21-.67-.43-1.34-.64-2.01-.22-.93.01-2.55.18-3.2.67-2.56-.46-5.39.09-7.68,1.3-1.21,3.4.46,4.48.27.82-.27,1.65-.55,2.47-.82,2.45-.71,4.71.67,6.49.82.61-.21,1.22-.43,1.83-.64,1.61-.47,3.14.39,4.02.64,1.13.32,2.03-.45,2.65-.46,1.86-.02,4.04-.17,4.66-1.46.47-.98-.38-6.44-.64-7.22-.53-1.61,1.62-2.75,1.01-4.66-.4-.61-.79-1.22-1.19-1.83-.64-1.83,1.69-3.65.91-6.22-.26-.86-1.37-2.47-.91-3.66.49-1.26,1.73-2.91.91-4.66-.3-.4-.61-.79-.91-1.19-.82-1.99,1.4-2.5,1.19-3.93-.51-3.51-.95-6.66-.18-9.78.53-2.17-1.74-2.62-1.01-4.75.46-1.34,1.48-3.05,1.01-5.21-.24-1.07-1.5-2.1-1.01-3.66.46-1.01.91-2.01,1.37-3.02.37-1.39-1.31-2.49-.64-4.3.25-.69,1.77-1.44,1.28-2.74ZM50.93,36.12c.03.58.06,1.16.09,1.74-.43.52-.85,1.04-1.28,1.55h-1.01c-.18-1.48.3-2.27.91-3.29h1.28ZM47,25.97c.58.03,1.16.06,1.74.09.19.84.87,6.97.64,7.22v.37h-2.01c-.73-.8-1.01-1.8-1.65-2.74-.29-.43-.9-.5-1.19-1.01-1.73-1.84,1.91-3.48,2.47-3.93ZM63.18,148.85c-.28.71-.06,1.46-.55,1.92v.18h-1.28c-1.08-1.82.78-4.45,1.37-5.67h2.01c.34,2.26-1.03,2.22-1.55,3.57ZM64.1,137.7c-.59,1-.92,1.87-1.65,2.83-.34.03-.67.06-1.01.09-.64-1.41.16-3.36.18-4.94.88-.03,1.77-.06,2.65-.09.72-.94,2.07-2.28,1.19-3.75-.3-.5-.98-.83-1.19-1.46-.7-2.16.74-3.81,1.01-5.21.2-1.02-1.18-2.42-1.19-4.57,1.02-.57,2.33-2.43,1.74-4.48-.2-.69-1.02-1.26-.73-2.38.37-.7.73-1.4,1.1-2.1v-.09c-.45-.35-.51-.56-1.37-.55-1.07,1.46-.14,1.92-.55,3.57-.4,1.63-1.68,3.48-.64,5.49-.65.82-1.89-.14-2.74.37-1.03.61-.53,2.32-1.28,3.2-.42.41-1.19.03-1.55-.18-.98,1-1.15,3.4-3.47,2.74-1.55,1.97-1.97,3.21-.27,5.49h.37c.46-.58.91-1.16,1.37-1.74.67-.32,1.09-.07,1.46-.64,1.02-1.55,1.47-3.67,3.29-4.39h.09c.44.94-.35,2.51-.64,3.57-.38,1.36.65,4.18.64,6.22-1.9,1.06-5.11,4.33-1.92,6.67-.03,2.35-1.11,3-1.1,5.39-.15.15-.3.3-.46.46-.94.17-1.18-.18-2.01-.27-.98,1.51-1.13,4.21.73,5.12.88.43,2.1.45,2.74,1.37.46.66,1.51,3.21,1.19,4.3-.17.58-.45.87-.46,1.83.27.3.55.61.82.91.12.03.24.06.37.09.9-.86.78-1.97,1.46-2.74.03-.09.06-.18.09-.27h1.55c.13,1.14-.03,2.84-.18,3.84-.67.49-5.92,1.92-8.05,1.28-.91-.28-1.79-.63-3.29-.55-1.47.08-3.94.9-5.85.37-.93-.26-1.91-.73-2.93-.64-.58.27-1.16.55-1.74.82-2.13.58-5.32-.36-6.58-1.01,0-2.64-.18-5.23.18-7.22.11-.6-.12-1.2-.18-1.55-.28-1.6.14-3.44.37-4.57.29-1.45-.94-1.94-.64-3.66.18-.67.37-1.34.55-2.01-.18-.76-.37-1.52-.55-2.29-.36-1.76.17-3.83.46-5.12.28-1.26-.07-2.99.18-4.02-.06-.43-.12-.85-.18-1.28v-3.29c-.23-1.02-.51-2.46-.27-3.75.45-.22,1.3-.21,2.01-.18.57.78.61,1.65,1.1,2.65.31.63,4.38,6.21,4.85,6.49,2.68-3.53,1.17-3.04,1.37-8.05.04-.96.73-1.95.37-3.2-.21-.73-.96-1.25-1.19-1.83-.46-1.15,0-3.47-.46-4.94-.37-.15-.73-.3-1.1-.46-.12.06-.24.12-.37.18-1.55,3.71,1.1,4.56.27,8.5-3.06.87-1.82-2.5-2.83-4.11-.62-.99-1.84-.65-2.56-1.19-.9-.58-1.85-3.58-1.37-5.39,1.05-3.97.72-9.6-.18-13.44-.41-1.73.69-3.01.37-4.48-.16-.73-.49-2.66-.18-3.66.12-.4.5-.64.55-1.19-.18-.79-.37-1.58-.55-2.38-.07-1.7.37-2.89.55-4.02-.24-.58-.49-1.16-.73-1.74-.31-1.08.19-2.37.37-3.02-.15-.82-.3-1.65-.46-2.47-.48-2.48,1.61-3.21,1.01-5.3-.47-1.62-1.45-4.54-.91-6.67.17-.67.45-1.41.37-2.38-.09-1.02-.87-2.42-.46-3.84.34-.94.67-1.89,1.01-2.83.28-.98-.39-1.52-.55-2.1v-2.74c-.23-.73-.69-1.82-.46-3.11.15-1.16.3-2.32.46-3.47.43-.98.85-1.95,1.28-2.93.1-.85-.47-2.56,0-3.47.58-.49,1.16-.98,1.74-1.46.67-.94,1.34-1.89,2.01-2.83.9,0,1.82.04,2.47.18.46.6.68.93.64,2.1-1.11-.03-1.62-.3-2.56-.09-.23.37-.56,1.03-.27,1.65.14.37,5.87,4.37,6.31,4.48.58,1,1.14,3.69,1.1,5.3-.27.03-.55.06-.82.09-.77-.72-1.77-1.42-2.29-2.38-1.06-1.99-1.51-3.89-4.48-3.93-1.63,1.19-3.63,5.33-3.02,7.95.51.39.92.68,1.37.73.98.14,1.69-4.47,4.85-4.48.65,1.12.67,2.91,1.74,3.75,1.03.81,2.82.89,3.57,2.1.77,1.25.71,2.23,1.92,3.02,1.1-.06,1.6-.77,2.19-1.01.7-.18,1.4-.37,2.1-.55,1.12-.85,1.59-6.21,2.01-7.68v-2.56c.34-1.08,2.14-1.45,2.74-2.38.34-.76.67-1.52,1.01-2.29.52-.66,1.6-1.17,2.01-1.92.15-.82.3-1.65.46-2.47.76-.67,1.52-1.34,2.29-2.01.59-.85.95-1.58,1.55-2.38-.07-.63-.25-.98-.64-1.28-2.92-.57-6.88,6.69-6.86,9.6-.67.48-1.86.85-2.29,1.55-.18.73-.37,1.46-.55,2.19-.34-.06-.67-.12-1.01-.18-1.21-2.31.93-5.06-1.92-5.85-.95.57-1.56.51-2.65.18-.36-1.42.66-1.72.91-2.65.15-.55-.28-.89-.37-1.19-.27-.95-.28-4.71-.27-5.67,1.06-.33,2.62.24,3.11.82.66.66.43,1.88,1.19,2.47.3-.09.61-.18.91-.27.46-.94-.42-1.71.09-2.93,1.45-1.73,8.39-.67,9.97.37.48.31,1,.84,1.55,1.1.47-.28,2.74.46,3.11.73.49.7.98,1.4,1.46,2.1.91.37,1.83.73,2.74,1.1.24.7.49,1.4.73,2.1.54.9,2.2,1.13,2.65,2.01.46.9.05,1.76.55,2.56,1.05,1.7,2.66,2.74,2.01,6.03-.94.45-2.41-.12-3.2.09-.98.7-1.95,1.4-2.93,2.1-1.93.8-3.81-.67-4.21-1.83-.12-.58-.24-1.16-.37-1.74-.68-.91-2.17-1.18-2.74-2.19-1.43-1.44.4-4.48.46-5.85-.58-.59-.83-1.01-1.65-1.19-.76.63-.97,1.2-1.55,2.01l-2.65,2.65c-.27.98-.55,1.95-.82,2.93-.46.37-.91.73-1.37,1.1-.93,1.3-1.95,3.72-2.38,5.3-.3,1.13.39,2.02.55,2.74-.06.61-.12,1.22-.18,1.83.37.7.73,1.4,1.1,2.1.39,1.2-.14,3.14.18,3.93.55,1.36,1.01,2.3,1.01,4.21-1.16.94-2.32,1.89-3.47,2.83h-.73c-.54-.7-1.07-1.64-1.92-2.01-.37-.06-.73-.12-1.1-.18-1.22-.86-.82-3.28-2.29-4.02-.6-.31-1.29-.13-1.74-.55-.61-.79-1.22-1.58-1.83-2.38-1.47-1.11-3.41-1.27-5.03-2.38-1.14-.78-1.35-2.54-2.47-3.38-1.09,1.47-1.97,3.07-3.38,4.21v.91c2.12,2.84,8.91,2.75,11.25,4.48.56.41.55,1.23,1.01,1.74,1.07.64,2.13,1.28,3.2,1.92,1.51,1.63-.05,2.89,3.66,2.83,1.53,2.64-1.42,3.85-1.55,5.67.73,1.02,1.41,1.22,2.47,1.92,2.03,1.33.92,4.75.46,7.22-.49.37-.72.35-1.37.18-.74-1.12-.45-3.36-1.01-4.75-.4-1-1.01-2.83-1.65-3.84-.6-.95-1.68-1.51-2.01-2.74.06-.67.12-1.34.18-2.01-1.05-.75-1.09.2-1.74.82h-1.37c-.3.06-.28-.02-.55-.18-.03-1.97.46-2.47,1.19-3.57-.12-1.91-1.74-2.45-3.11-3.11-2.35,1.31-2.29,5.35-.27,6.77.02,2.92-1.62,2.4-2.29,4.21.29.54.49,1.06,1.01,1.37.2.17,3.35-.34,4.57-.37.57.79.62,1.81,1.19,2.74.64.67,1.28,1.34,1.92,2.01.15,1.07.3,2.13.46,3.2.53,1.46,2.04,2.79,2.74,4.75,1.26,3.52.47,6.02,3.29,8.23.09.03.18.06.27.09,1.92-.06,3.56-3.3,4.02-4.85.09-.58.18-1.16.27-1.74.43-.46.85-.91,1.28-1.37.61-.98.26-2.82.82-3.75.64-.49,1.28-.98,1.92-1.46.34-.85.67-1.71,1.01-2.56.58-.99,1.91-1.31,2.56-2.19.27-.73.55-1.46.82-2.19.62-.98,2.31-.97,2.93-1.92.87-1.35-1.09-3.92-1.1-6.13.83-.49,2.24.06,3.38-.27,1.68-.49,3.42-2.08,5.58-1.1.41,1.11.29,3.5,0,4.66-.16.63-.85,1.07-.64,2.01.59,2.69,2.23,4.7.64,7.31.14.66.64,1.58.37,2.65-.14.53-.57,2.21-.37,2.83.38,1.16,1.02,1.43,1.01,3.29-.61.94-1.22,1.89-1.83,2.83.46.91.91,1.83,1.37,2.74.22.64.17,1.79.27,2.19.44,1.71-.77,3.39-.46,4.57.84,3.17,1.55,5.02-2.65,4.66-.3.3-.61.61-.91.91.21.36.29.64.27,1.28.43.3.85.61,1.28.91.29-.23.42-.29,1.01-.27.88.81,1.69,1.34,1.65,3.11-.34.27-.67.55-1.01.82-.03.82-.06,1.65-.09,2.47-.3.76-.61,1.52-.91,2.29-3.61.22-2.45,2.81-4.02,3.93-.93.67-1.94.79-2.65,1.65-.57.69-.44,1.37-.91,2.1-.32.5-3.02,3.43-3.47,3.75-.88.62-2.52.38-3.2,1.46-1.45,2.31,1.27,4.51.18,7.22-.63,1.56-2.72,1.9-3.38,3.02ZM52.39,42.33c.15-.15.3-.3.46-.46.3-.28,1.24-.22,1.83-.18-.06,1.07-.12,2.13-.18,3.2-.58.37-1.3.16-1.74.09-.36-.63-.4-1.56-.37-2.65ZM61.26,76.9c.3-.89,1.5-1.24,1.83-2.29-.19-.18-.1-.03-.18-.37-.47-.31-.64-.42-1.37-.46-.03-.34-.06-.67-.09-1.01.67-.34,1.34-.67,2.01-1.01,1.27,0,2.76-.03,3.75.18.81,2.83-1.96,3.68-2.83,5.21-.61,1.07-.1,1.73-.55,3.2-.49.61-.98,1.22-1.46,1.83-1.2,1.84-.51,4.21-3.47,4.3-.08-.29.06-3.88.27-4.39.64-.49,1.28-.98,1.92-1.46.58-.96-.27-2.42.18-3.75ZM68.85,66.93c.27-.15.55-.3.82-.46.3.06.61.12.91.18.03.4.06.79.09,1.19v.09c-.41.29-.67.4-1.46.37-.37-.31-.41-.64-.37-1.37ZM66.93,151.14v-1.92h1.55c.03.49.06.98.09,1.46-.09.09-.18.18-.27.27-.25.24-.86.22-1.37.18ZM83.75,134.68c-.23.72-.95,1.27-1.19,2.1-.28.96.34,2.73.55,3.47.41,1.49-.81,1.37-.37,2.93.77,2.69-1.09,5.14.82,6.58.01,1.47-1.29,3.24-1.01,4.02.33.91.76,2.04,1.01,2.83.32,1.02-.45,1.36-.64,1.83-.8,1.98.7,2.37-.91,4.21-2.22,0-5.01-1.12-6.58-.73-.84.21-2.39,1.32-4.02.73-1.04-.37-1.93-.65-3.29-.64-.99-1.55.37-4.07,1.1-4.85,1.54-1.66,1.59-2.17,2.74-4.21.4-.55.79-1.1,1.19-1.65.13-.8-.77-2.38-.18-3.47.37-.27.73-.55,1.1-.82.15-.61.3-1.22.46-1.83.56-1.07,1.78-1.83,2.29-3.11.33-.85-.62-2.02.09-3.02.46-.3.91-.61,1.37-.91.63-1.1-.62-2.58,0-4.11.16-.41.77-.6,1.01-.91.18-.52.37-1.04.55-1.55-.55-.61-.71-1.21-1.46-1.65-2.53,1.72-1.08,1.68-2.47,4.21-.41.74-1.38,1.03-1.74,2.01-.12.67-.24,1.34-.37,2.01-.52.73-1.04,1.46-1.55,2.19-.86,2.78.31,5.55-3.84,4.11-1.05-3.41.96-5.01,2.19-7.04.34-.91.67-1.83,1.01-2.74.46-.43.91-.85,1.37-1.28.34-1.07.67-2.13,1.01-3.2.47-.8,1.54-1.22,1.92-2.1.55-1.26.27-3.92.73-5.12,1.01-2.62,3.47-3.84,4.85-6.13.83,0,1.61.05,2.19.18.4,2.09-1.63,2.65-1.1,4.48.22.77,1.09,2.5.82,3.38-.21.27-.43.55-.64.82v5.85c.22.96,1.48,1.62,1.01,3.11ZM82.56,55.23c-.44,1.55.73,3,.37,4.66-2.19,1.46-5.16,1.66-8.69,1.65-.55.55-1.1,1.1-1.65,1.65-.79.12-1.58.24-2.38.37-.64.19-1.46.98-2.1,1.37-.7.43-.74,1.31-1.19,2.01-.86,1.35-3.48,1.59-5.39,1.37-.94-2.11.76-3.52,1.19-5.12.28-.52-.94-2.01-.46-3.38.73-2.05,2.71-3.88,0-5.85v-.91c.8-.39,2.23-.16,2.83.18,1.41-.05,3.26-2.61,3.93-3.75-.02-1.11-.62-1.9-1.55-2.1-.55.4-1.1.79-1.65,1.19-.88.44-4.3.15-5.39-.09-.53-2.39,2.36-7.03,3.38-8.5h1.83c1.45,1.06,1.81,2.73,3.66,3.2,1.44,1.96.47,3.77,2.83,5.12,2.36-.22,2.88-2.22,4.39-2.83,1.04-.06,2.07-.12,3.11-.18.4-.27.79-.55,1.19-.82.49-.03.98-.06,1.46-.09.09.03.18.06.27.09,1.38,1.88-.19,3.79,0,5.49.11.97.93,1.29,1.19,1.92.64,1.59-.93,2.47-1.19,3.38Z"/>
      <path class="cls-1" d="M40.96,13.9c.76-.34,1.52-.67,2.29-1.01,1.34.03,2.68.06,4.02.09.55-.43,1.1-.85,1.65-1.28.73-.39,2.01-.72,2.65-.91.29-.42.46-.61.46-1.37-.4-.37-.79-.73-1.19-1.1-1.13-.35-2.76.21-3.84-.09-1.48-.42-2.75-1.49-4.57-1.46-1.54,1.15-3.76,3.99-3.02,6.4.52.24,1.04.49,1.55.73Z"/>
      <path class="cls-1" d="M66.2,11.15c-.58.49-1.16.98-1.74,1.46-1.13-.06-2.26-.12-3.38-.18-2.76.89-1.72,4.28-.18,5.67,2.65.57,2.91-1.82,3.93-3.38,1.8-.05,2.28-.35,3.2-1.46-.2-.99-.78-1.95-1.83-2.1Z"/>
      <path class="cls-1" d="M48.83,13.26c-.34.32-.93.52-1.37.73-.46,1.35.45,4.57,1.65,5.12,1.05.75,3.36-.53,4.3-.73.15-.34.3-.67.46-1.01-1.48-1.74-2.68-3.49-5.03-4.11Z"/>
      <path class="cls-1" d="M56.87,59.43c.49.34.98.67,1.46,1.01l.73-.37c.67-2.02-.63-2.57-1.1-4.21.06-.55.12-1.1.18-1.65.05-1.62-1.14-2.63-2.1-3.29-.33.71-.72,1.59-1.1,2.38.08,1.63,1.43,2.02,1.92,3.2v2.93Z"/>
      <path class="cls-1" d="M68.21,56.23h-.46c-.9,1.06-1.81,1.46-1.37,3.2.99.56,3.84-.19,3.02-2.01-.4-.4-.79-.79-1.19-1.19Z"/>
      <path class="cls-1" d="M78.18,56.23c-.46.4-.91.79-1.37,1.19v.82c.64.88,1.79,1.27,2.65,1.65.67-.45,1.71-.61,1.74-2.01-.66-1-1.27-1.7-3.02-1.65Z"/>
      <path class="cls-1" d="M90.15,58.61v-.37c-.27-.63-.42-.69-.91-.91-.18.21-.37.43-.55.64-.05.78-.05,1.11.55,1.28v.18c.42-.25.58-.52.91-.82Z"/>
      <path class="cls-1" d="M7.86,67.57c-.88.72-1.87,1.01-2.56,1.92-1.81.02-2.56-.85-3.57-1.65-.93.6-1.23.68-1.74,1.74.58.98,1.41,1.99,2.47,2.19.58-.12,1.16-.24,1.74-.37.86-.2,1.78.22,2.38.37,1.15.27,3.25-.94,3.57-1.65.03-.24.06-.49.09-.73-.59-.81-1.36-1.43-2.38-1.83Z"/>
      <path class="cls-1" d="M91.71,70.13c.39-1.15-1.23-2.08-2.1-2.38-.64.52-1.3,1.09-1.92,1.55v.91c.55.75,1.2.95,2.1,1.37.79-.39,1.55-.66,1.92-1.46Z"/>
      <path class="cls-1" d="M42.88,69.95c-.14-1.59-1.49-1.82-2.74-2.1-.83.8-1.85.75-2.01,2.29-.18.32.07.65.18,1.19,2.09.99,3.06-.09,4.57-1.28v-.09Z"/>
      <path class="cls-1" d="M97.56,70.68c1.01.68,1.7,1.74,3.2,1.65.5-.62,1.34-1.4,1.1-2.47-1.18-2.43-2.93-.3-4.94-1.01-.66-.23-.65-.74-1.83-.73-.64.9-1.99,1.33-2.47,2.38v.73c.56.44.84.98,1.74,1.1,1.08-.78,1.7-1.61,3.2-1.65Z"/>
      <path class="cls-1" d="M104.69,68.12c-.62.56-1.04.88-1.55,1.55.36,2.94,4.19,2.46,5.03.18-.7-1.12-1.58-1.79-3.47-1.74Z"/>
      <path class="cls-1" d="M115.85,68.12h-.55c-1.98,1.25-4.84-.42-5.85,1.74.06.49.12.98.18,1.46.37.27.73.55,1.1.82.97-.07,1.34-.52,2.01-.73,1.22.06,2.44.12,3.66.18.34-.3.67-.61,1.01-.91-.02-1.55-.88-1.73-1.55-2.56Z"/>
      <path class="cls-1" d="M20.48,70.95c-.05-1.35-1.82-2.66-3.2-2.65-.91.71-2.17-.11-3.2.18-1.14.33-2.16,1-3.11,1.74-.03,1.35.53,1.83,1.37,2.29,1.46-.02,2.23-1.32,3.11-1.83.96.07,2.51.93,3.11,1.65,1.12-.02,1.57-.61,1.92-1.37Z"/>
      <path class="cls-1" d="M80.46,70.4c.18-.56-.27-1.06-.46-1.55-.43-.25-.71-.38-1.46-.37-1.09.85-1.97.77-1.92,2.83l1.19,1.19c1.32-.06,2.45-.95,2.65-2.1Z"/>
      <path class="cls-1" d="M67.94,124.81c1.22-.93,2.38-2.63,1.65-4.94-.17-.52-.75-1.17-.55-2.01.37-.98.73-1.95,1.1-2.93-.3-.98-.61-1.95-.91-2.93-.2-.76.14-1.68.18-2.19.24-2.63-1.1-5.07-3.29-5.3-.79-2.09-.95-4.04-3.66-4.02-.09-.15-.18-.3-.27-.46-1.22-3.08,3.4-4.37,4.66-5.49.46-.4,1.76-2.3,2.1-2.83.06-.03.12-.06.18-.09-3.09-3.97-7.2,4.92-10.61,4.94-.2-.76.07-1.92-.18-2.47-.97-1.5-2.88-.22-3.93-1.1h-.37c-.01-.94.05-1.65.27-2.29-.36-.75-.93-1.26-2.01-1.28-.22-.35-.3-.63-.27-1.28.36-.47.66-.75.82-1.46.23-.42-.76-2.99-1.01-3.84-.53-.37-.8-.59-1.46-.64-.4.24-.79.49-1.19.73-.78,3.27.53,6.2-.09,9.05.03.73.06,1.46.09,2.19.29.49.81,1.03,1.01,1.65.12.98.24,1.95.37,2.93.42,1.11,1.59,1.47,1.92,2.74.42,1.62-1.13,2.39-.73,3.84.3,1.07.98,1.62,1.37,2.38.71,1.37-.48,3.44-.64,4.02-.43,1.55.46,3.22.82,4.11.95,2.34-2.3,7.17.91,8.78.38.19,2.57-1.64,2.93-2.19.21-.61.43-1.22.64-1.83.99-1.63,2.97-2.71,3.84-4.57.21-1.16.43-2.32.64-3.47v-2.1c.3-.79,1.19-.83,1.65-1.55.46-.73.49-1.52,1.28-1.92,1.74-.67,2.37,2.17,1.92,3.57-.55,1.7.12,4.31.64,6.13.26.89-.28,1.78-.46,2.29-.83,2.31-.81,4.12.46,5.85h.18ZM57.05,120.33c-.37.03-.73.06-1.1.09-.76-.52-.95-1.05-1.37-1.92.06-.58.22-.74.46-1.1h1.74c.3.7.3,1.85.27,2.93ZM59.8,106.52c-.12.96.46,1.61.46,2.83-.46.03-.91.06-1.37.09-.97-1.36-1.17-2.55-3.29-2.83.03-.49.06-.98.09-1.46.5-.27,1.35-.39,1.65-.73.49-.43.7-1.83.82-2.56.3-.15.61-.3.91-.46.46.12.91.24,1.37.37.36,1.91-.44,3.17-.64,4.75Z"/>
      <path class="cls-1" d="M74.52,94.09c.61-.67,1.22-1.34,1.83-2.01,1.27-.92,3.01-.68,3.47-2.56.23-.43-.79-2.24-.91-3.2.4-.4.79-.79,1.19-1.19.02-1.22-.33-1.38-.82-2.01h-1.1c-.15.2-1.65,2.47-1.65,2.47-.67.4-1.34.79-2.01,1.19-.81,1.21-.48,2.9-1.74,3.66-.99.6-1.98.85-2.83,1.46.42,2.02,2.58,3.56,4.57,2.19Z"/>
      <path class="cls-1" d="M30.54,109.63c-.51-2.81-2.45-4.17-3.66-6.22-.63-1.06-.07-3.03-.55-4.3-.29-.76-1.1-1.44-1.37-2.1-.51-1.26.63-2.69.82-3.57.3-1.35-.72-1.93-1.01-2.65-.61-1.54.68-2.56.37-3.84-.32-.83-1.04-1.54-2.19-1.55-1.14,1.03-4.84,2.2-2.01,4.21.54.39,1.34.48,1.83.82-.02,1.42-.79,2.73-.64,3.84.18,1.36,1.98,2.5,1.19,4.66-.31.84-1.35,3-1.01,4.21.15.52,7.22,6.76,7.95,6.95.09-.15.18-.3.27-.46Z"/>
      <path class="cls-1" d="M29.08,92.26c2.2-1.2.98-4.45-1.65-4.39-.37.34-.73.67-1.1,1.01-.42,1.28,1.83,2.96,2.74,3.38Z"/>
      <path class="cls-1" d="M77.44,97.93c.65,1.24,1.12,1.95,2.74,1.74.98-1.21,2.46-2.95.37-4.02-1.41,1.11-2.1.48-3.11,2.29Z"/>
      <path class="cls-1" d="M100.76,103.23c-1.01-.61-3.69-1.35-4.48-2.29-1.12.07-1.85.6-2.56,1.1-1.53-.13-2.1-1.33-3.47-1.46-1,.77-1.97,1.04-1.55,2.74,2.35,1.75,3.41-1.12,4.85-.55.09.03.18.06.27.09-.01,3.58-7.08,3.85-4.94,8.5.27.59,2.81,1.85,4.3,1.28.49-.34.98-.67,1.46-1.01.03.03,3.39.42,3.57.46h.37c.9-.24,1.65-1.07,2.56-1.46,2.1-.9,2.49-.38,3.93-2.01-.11-.83-3.72-5.05-4.3-5.39ZM94.73,110.36h-1.28c-.06-.03-.12-.06-.18-.09-.82-2.52,2.48-3.17,3.75-4.02,2.4-.09,4.17.54,4.11,2.93-2.45.96-4.31-1.6-6.4,1.19Z"/>
      <path class="cls-1" d="M51.39,155.16c.63-.6,1.2-.93,1.65-1.74-.06-1.39-.85-1.48-1.19-2.47-.27-1.07-.55-2.13-.82-3.2-.4-.46-.79-.91-1.19-1.37-.56-1.62.81-2.67.64-3.75-.25-1.6-1.93-2.35-2.29-3.75-.4-1.57.36-3,.55-3.93-.12-.88-.24-1.77-.37-2.65-.41-1.82.42-3.32.73-4.39.22-.78-.19-1.6-.27-2.01-.15-.74.18-1.35.27-1.74.55-2.4-.47-4.74,0-6.86.26-1.2-.96-1.8-1.37-2.38-.58-.81-.29-1.79-.64-2.93-.46-1.48-3.87-2.98-1.19-5.49-.21-.81-.75-1.08-1.19-1.65h-.73c-.83.67-3.59,3.05-3.2,4.66.36,1.5,1.97,1.24,2.65,2.29.59.91,1.22,2.21,1.65,3.11.74,1.57,1.41,3.72,1.92,5.21.5,1.47-.31,3.26-.55,4.11-.57,2.04.96,3.59.37,5.39-.34,1.02-.74,2.42-1.1,3.75-.18.15-.37.3-.55.46-.82-.11-1.07-.66-1.83-.91-.06-.06-.12-.12-.18-.18-.18.21-.37.43-.55.64-.03.21-.06.43-.09.64l.91.91c.27,1.19.55,2.38.82,3.57.52.82,1.04,1.65,1.55,2.47-.03.49-.06.98-.09,1.46-.41.4-1.28.1-1.74,0-1.78-3.35-4.34-5.03-4.75-9.87-.44-.35-.47-.61-1.28-.64-.89,1.19-.33,1.2-.82,2.83-.37,1.25.02,2.53.37,3.47.85,2.31,1.2,3.97,2.83,5.39.66.57,1.5.84,2.01,1.55.3.58.61,1.16.91,1.74.73.73,1.46,1.46,2.19,2.19.21.85.43,1.71.64,2.56.58.76,1.16,1.52,1.74,2.29.06.88.12,1.77.18,2.65.61,1.1,1.22,2.19,1.83,3.29,2,2.25,2.94.52,4.21-.82-.21-.52-.43-1.04-.64-1.55-.52-.12-1.04-.24-1.55-.37-.51-.35-.51-1.1-.46-2.01Z"/>
      <path class="cls-1" d="M55.13,144.56c.15.41.11.35.64.37,2.95-2.03,1.14-3.85-.37-5.67-.83-1.19,1.16-2.83,1.46-3.75.06-.61.12-1.22.18-1.83.2-.24,1.1-.18,1.65-.27.85-1.1.46-1.86-.55-2.65-.53.67-1.07,1.08-1.1,2.29-.98.24-1.37-.4-2.1-.64-.63.74-.83,1.79-1.1,2.93-.29,1.25.3,2.3.46,3.11.43,2.2-.9,5.1.82,6.13Z"/>
      <path class="cls-1" d="M57.51,160.56c.21-.24.43-.49.64-.73.42-2.42-.76-3.98-1.19-5.58-.24-.12-.49-.24-.73-.37-1.21,1.64-.73,4.07-.18,6.22.44.31.84.35,1.46.46Z"/>
    </g>
  </g>
</svg>