<?xml version="1.0" encoding="UTF-8"?>
<svg id="Layer_2" data-name="Layer 2" xmlns="http://www.w3.org/2000/svg" viewBox="0 0 92.18 143.43">
  <defs>
    <style>
      .cls-1 {
        fill-rule: evenodd;
      }
    </style>
  </defs>
  <g id="Layer_1-2" data-name="Layer 1">
    <g>
      <path class="cls-1" d="M88.32,47c-.08-.11-.15-.23-.23-.34v-.06c1.03-.36,2.77-.11,3.35-.91,1.07-1.48-.09-2.74-1.82-2.72v-.11c1.37-.37,1.89-1.14,2.55-2.38-.13-2.48-3.65-.43-4.2-1.7.69-.13,3.39-1.26,3.74-1.7.13-.32.26-.64.4-.96-.2-1.87-4.54-1.29-6.47-1.36-.02-.02-.04-.04-.06-.06.58-1.75,2.75-.56,3.57-2.95-.21-.34-.42-.68-.62-1.02-.75-.8-2.13-.94-3.57-.91v-.06c1.17-1.37,2.76-1.63,3.4-3.63-.97-1.9-2.93-.64-4.77-.57.13-1.26,1.85-1.1,2.27-2.95-.79-1.41-2.5-1.47-4.71-1.42-.02-.08-.04-.15-.06-.23.66-.84,1.87-1.69,1.87-3.12-.38-.35-.66-.64-1.13-.91-1.87.19-3.1,1.38-5.16,1.42-.09-.19-.23-1.8-.23-2.21.38-.48,3.63-2.92,1.7-3.91-1.08-.82-4.33.45-5.22.79-.04.04-.08.08-.11.11-.55-.62.77-2.31.91-3.01-.04-.3-.08-.61-.11-.91-1.94-1.51-2.38-.12-3.91.91-.36.24-1.21.65-1.36,1.08h-.34c-.62-1.03-.48-3.05-.23-4.31-.95-1.33-3.64-.9-4.48.23-.37.49-.44,1.21-.51,1.99-.06.04-.11.08-.17.11-.08-.14,0-.74.06-1.08-.02-.38-.04-.76-.06-1.13.42-2,.88-3.08-.85-4.03-2.25.06-2.27,3.09-3.8,3.69-.13-.19-.26-.38-.4-.57.09-1.21,1.79-2.6.79-3.63-.33-.34-.8-.4-1.19-.68-.87.15-2.78,1.42-3.52,1.87h-.34c-.19-.95-.17-2.52-.85-3.01-.25-.18-1.33-.61-1.7-.51-.16.04-.33.31-.62.23-.56-.15-1.66-.35-2.33-.28-.61.06-1.21.11-1.82.17-.94-.27-6.36-.31-6.87-.17-.76.02-1.51.04-2.27.06-1.89.92-1.82,4.86-1.02,6.41v.17c-1.1-.12-3.46-4.27-4.99-2.04-.75.96.31,2.06.34,3.23-.55.27-1.31.18-1.99.11-.47-.74-.95-1.48-1.42-2.21-1.86-.43-1.95-.02-2.44,1.48-.04.13-.22.56-.11.85.43.91.87,1.82,1.3,2.72-1.17-.41-2.77-3.66-4.71-2.78-.52.24-.57.94-.96,1.3.21,1.35,1.19,2.06,1.59,3.29-1.3,1.65-2.31-2.95-4.6-2.38-1.04.26-1.3.34-1.76,1.13.07,1.17,1.06,1.49,1.42,2.27.39.84.43,1.62.79,2.33v.28c-1.38-.46-2.19-1.66-3.8-1.99-.67-.13-.93.23-1.48.28-.23.34-.37.66-.57,1.08.34.35.38.9.68,1.3.6.81,1.36,1.44,1.87,2.38l-.17.23c-1.91,0-2.44-.87-3.74-1.48-.47-.22-1.39.02-1.82-.17-.35.44-.87.58-1.19,1.08,0,1.3.67,1.6,1.36,2.04.51.32.87,1.13,1.19,1.65v.17c-1.79-.04-3.49-1.42-4.48.45.11,1.5,2.43,3.05,3.63,3.46.16.21.24.21.28.57-.64.04-1.63.33-2.21.11-1.35-.49-2.8-2.79-4.26-.23,0,1.15,2.08,3.71,2.84,4.14.45.15.91.3,1.36.45.06.02.11.04.17.06-.32.18-.88.1-1.19,0,0,0-.48.16-.68.11-1.17-.25-1.96.47-2.5,1.53.19,1.55,1.61,1.54,2.67,2.21v.17c-1.61,1.07-5.13-1.24-5.96,1.42-.43,1.38,2.97,2.89,3.86,3.06.89.18,1.43-.25,2.1-.34-.89.86-2.56.66-3.57,1.25-.54.32-.74.83-1.19,1.19-.04,2.27,2.56,1.99,4.77,1.93-.53.66-1.5,0-2.27.17-.31.07-1.37-.03-1.76.17-.59.3-2.55,1.89-2.21,2.89.97,2.91,3.45-.47,5.5,1.65-.63.74-4.41,1.75-3.74,3.52.8,2.13,2.4,1.15,3.8.62.47-.18,1.42-.09,1.93-.34h.4c-.31,2.06-2.04,1.45-3.29,2.16-.56.32-.98,1.03-1.3,1.59,0,1.21.6,1.43,1.25,1.93.55-.09.72-.34,1.13-.45.9-.26,1.69.27,2.27.34-.14.57-.82.78-1.13,1.19-.64.83-2.45,2.79-2.67,3.74-.13.57.39,1.16.57,1.53.36.13.72.26,1.08.4.12-.15,2.42-1.03,2.61-.96-.36.36-3.06,2.33-3.06,2.33-.2.43.19,1.29.34,1.48.19.23.48.22.79.34,2.45.93,3.06-.97,4.77-1.02-.05.65-.42.7-.51,1.19-.11.6.41,1.14.62,1.48,1.41,2.17,3.95-.63,5.5-1.02.06.06.11.11.17.17-.17,1.13-1.37,1.72-1.87,2.67.21,1.55,1.93,2.14,3.63,2.1.15.51-.3.84-.11,1.48.96,3.35,2.56.45,3.8.28-.09,1.48-1.72,3.14-2.16,4.82-.29,1.11.69,2.59,1.82,2.21,1.13-.38,1.17-1.78,2.44-1.93-.3,1.02-.61,2.04-.91,3.06.25.47.49.95.74,1.42.39.21,1.22.36,1.7.11.58-.3.77-1.06,1.13-1.59.66-.95,1.65-1.96,2.55-2.67.44.47-.33,1.09-.45,1.65-.18.29.45,1.28.68,1.59,2.35.59,2.08-.72,3.4-1.76.19-.02.38-.04.57-.06h.06c.12.6-.84,1.62-.51,2.61.19.36.38.72.57,1.08-.49.69.02,1.8.06,2.44-.04.34-.08.68-.11,1.02.23.68.64,1.43.85,2.04.48,1.39-.83,2.81-.45,4.03.38,1.21.7,2.01,1.02,3.4-.13.72-.26,1.44-.4,2.16-.22.67-.03,3.17.11,3.74.2.79,1.19,3.37,1.7,3.74,1.39,1.02,2.95-.71,2.95-2.1.66-.38,1.36-.29,1.99-.74.02,1.92.31,3.44-.28,5.33.13,1.12.26,2.23.4,3.35-.29.73.03,2.11-.28,3.06-.34,1.01-.68,2.31-1.02,3.23-.28.76-.13,1.87-.34,2.55-.39,1.29.32,2.65.57,3.4.02.43.04.87.06,1.3.37,1.21.51,2.65.62,3.63.09.62.19,1.25.28,1.87-.24.72-.94,1.21-1.36,1.76-.78-.14-1.44-.84-2.44-.4-1.45.63-2.18,5.16-1.3,6.47.66,1,2.44.76,3.63,1.13.53.17,1.24.55,1.87.28,1.24-.52,1.3-1.5,1.99-2.55,1.19-1.84,2.52-2.59,3.4-4.94.36-.95-.26-2.19-.11-3.01.03-.19-.17-.68-.06-1.19.19-.86.35-2.14.62-3.12v-1.36c.4-.83.79-1.66,1.19-2.5.06-.51.11-1.02.17-1.53.38-.73,1.02-1.37,1.3-2.33.06-.95.11-1.89.17-2.84.17-.34.34-.68.51-1.02v-1.53c.34-.68,1.68-1.85,1.19-2.89.06-.02.11-.04.17-.06h.06c.34,1.16-.79,2.85-.51,3.46.3.59.61,1.17.91,1.76.28,1.08-.74,1.8-.45,2.61.26.72,1.08,1.27,1.3,1.87-.09.72-.19,1.44-.28,2.16.41,1.7.98,3.48,1.36,5.22-.06,1.4-.11,2.8-.17,4.2-.2.46-1.07,2.41-.85,3.06.56,1.69,1.47,2.38,3.29,2.89.61.08,1.21.15,1.82.23.96.39,2.23.83,3.06,1.48.59.46.54,1.18,1.36,1.48.37.13,4.39-1.43,4.54-1.53.23-.38.45-.76.68-1.13-.08-1.7-1.05-.98-2.1-1.53-.32-.34-.64-.68-.96-1.02-1.22-.87-2.83-1.52-3.69-2.72-.35-.5-1.18-3.09-.85-4.09.53-1.25,1.06-2.5,1.59-3.74-.09-.38-.19-.76-.28-1.13v-2.72c-.49-1.58-.43-3.75.45-4.77-.22-.98-.72-1.78-1.02-2.84-.23-.82.14-1.75.28-2.27.33-1.21.22-3.79,0-4.65-.42-1.62,1.11-3.17.57-4.65-.66-1.82-.78-5.4-.96-7.66h.06c1.82,1.48,2.37,5.83,5.73,4.82.52-.16,1.04.11,1.42.17,1.24.2,1.95-.85,2.21-1.65.43-1.31-2.26-4.71-2.89-5.16-.45-.26-.91-.53-1.36-.79-.92-.96-.95-2.34-1.42-3.74-.43-1.3-1.57-2.24-2.1-3.4-.3-.65.06-1.62-.23-2.38-.11-.29-.28-.45-.28-.96,2.32-.97,1.63-2.13,1.93-4.54.06-.04.11-.08.17-.11,1.18.87,1.58,2.52,3.52,2.16,1.22-1.78.52-2.41,3.12-1.02,3.04-.67.33-3.67.28-5.33.11-.02.23-.04.34-.06.86.68,1.71,1.73,2.84,2.1,1.03.34,2.24-1.48,2.1-2.33-.15-.34-.3-.68-.45-1.02l.11-.11c.95.18,1.42.74,2.27,1.02,1.81-.89,1.53-3.21-.17-3.97-.06-.15-.11-.3-.17-.45,1.97.04,3.34,1.32,4.37-.62.12-.22.29-.71.11-1.08-.2-.43-.69-.65-.96-1.02.02-.04.04-.08.06-.11,1.84.4,2.69.44,3.52-1.08.08-.15.35-.31.23-.68-.1-.3-.44-.38-.57-.79-1.32,0-2.26-1.32-2.38-2.44.83.09,1.78.57,2.61,0,1.13-.76.69-2.65-.57-3.06-.08-.09-.15-.19-.23-.28,1.03-.25,2.86.23,3.69-.51.34-.2.45-.72.62-1.08,0-1.21-.9-1.46-1.59-1.99v-.06c.95-.35,1-.85,1.42-1.7-.49-.91-.79-1.66-1.82-2.04-.08-.09-.15-.19-.23-.28,1.72-.61,4.12.55,4.65-1.87.74-1.08-2.84-1.84-3.57-1.93ZM85.94,49.67c-.11.06-.23.11-.34.17.05.17,2.69,2.74,3.01,3.01-.04.34-.08.68-.11,1.02-.44.93-2.77.23-3.23.23-.09.08-.19.15-.28.23v.11c.59.7,1.11.14,2.1.51.7.26,1.43.99,1.82,1.59-.04.3-.08.61-.11.91-1.87,1.32-4.43-.15-5.67-.34-.1.16-.13.14-.17.4l1.36.68c.4.32.45.77,1.02.96.61.76,1.11,1.69.11,2.38-.98.19-2.04-.16-2.61-.23-.08.09-.15.19-.23.28.07.48.42.55.57.91.6,1.48.29,2.1,2.16,2.33.13.15.26.3.4.45-.03,1.58-2.63,1.48-3.57.91-.69-.41-1.11-1.13-1.82-1.59-.24.01-.27.01-.4.11-.08.08-.15.15-.23.23.69,1.34,2.55,1.72,3.18,3.18v1.08c-1.18.84-3.66-.46-4.2,0-.24.07-.27.11-.4.28.23,1.18,1.44,1.41,1.76,2.38-.04.43-.08.87-.11,1.3-.13.09-.26.19-.4.28-.88.32-1.76-1.08-3.12-.79-.27,1.57.94,1.47-.45,3.29-1.83,0-2.47-1.44-3.74-2.1-.11.1-.22.13-.4.17-1.09,2.04,1.62,2.81.79,4.71-.13.17-.26.34-.4.51-1.39,0-1.6-.9-2.95-.57-.32.46-.54,1.27-.79,1.76h-.85c-.62-.68-1.42-1.8-2.21-2.27-.3,0-.38.01-.51.17-.8.51-.69,2.37-.62,3.57-.37.63-.93.8-1.59,1.13-.18.64-.04,1.15.11,1.82.14.58-.18,1.03.06,1.65.44,1.15,1.47,1.94,1.93,3.06.66,1.63.88,3.4,1.87,4.65.45.28.91.57,1.36.85.74.54,2.43,2.81,2.72,3.74.19.61-.05,1.08-.11,1.53-.69.52-1.36.5-2.38.34-.55-.08-.96.5-1.7.28-1.31-.37-2.39-1.95-3.01-3.01-.47-.82-1.03-2.57-2.1-2.38-.04.2-.08,4.25.06,4.65.23.68.99,4.64.68,5.62-.44,1.4-.93,5.65-.45,7.6-.56,1.45-.38,3.78.68,4.65,0,1.33-1.16,1.94-.74,3.35.37,1.23-.15,2.86.23,4.54.14.62.4,1.11.28,1.76-.26,1.41-2.29,3.67-1.42,5.79.96,2.33,2.61,3.26,4.6,4.54.94.61.99,1.3,2.61,1.42.25.31.41.35.4.96-.5.74-3.43,1.91-4.77,1.87-.4-.31-.48-.89-.85-1.19-.96-.49-1.93-.98-2.89-1.48-1.76-.72-4.32-.19-4.88-2.27-.39-1.48.43-2.87.79-4.09.15-.49-.04-1.38-.11-1.7-.12-.51.41-.75.23-1.36-.48-1.62-.77-3.5-1.3-5.16-.65-2.01,1.07-2.57-1.02-4.14-.01-.92.61-2.24.4-2.89-.25-.76-.76-1.27-.91-2.27-.12-.82.38-1.09.51-1.65.27-1.19-.44-2.77-1.02-3.18-.11-.09-.08-.08-.28-.11h-.06c-.57.98.24,2.03-.17,3.01-.4.61-.79,1.21-1.19,1.82-.24.62.24.91.11,1.42-.19.36-.38.72-.57,1.08-.11,1.15-.23,2.31-.34,3.46-.34.49-.68.98-1.02,1.48-.09.62-.19,1.25-.28,1.87-.43.93-.87,1.85-1.3,2.78-.02.57-.04,1.13-.06,1.7-.19.68-.79,3.01-.57,3.74.26.85.46,2.97-.06,3.91-.5.92-1.5,1.34-2.04,2.16-.73,1.09-1.26,3.14-2.55,3.63-.7.26-1.58-.24-1.99-.4-1.17-.44-2.51,0-3.18-1.02-.2-.31.33-4.17.51-4.54.28-.3.57-.61.85-.91h1.02c.26.25.53.49.79.74.79-.75,2.07-1.38,2.38-2.61.04-.18-.17-.72-.23-.85.26-.4-.11-2.05-.23-2.5-.25-.97-1.44-5.49-1.13-6.52.13-.45.28-1.18.4-1.59.15-.53-.19-.91,0-1.53.8-2.64,1.76-5.51.91-8.68-.17-.63.32-1.5.45-1.93.31-.99-.16-3.89-.4-4.65-.18-.11-.19-.15-.51-.17-.41.42-1,.79-1.76.68-.94.63-.63,1.81-1.99,2.61-1.93,0-2.21-3.75-2.21-6.01v-1.76c.82-1.86-.53-3.47-.74-5.45-.11-1.03.75-1.83.45-3.12-.21-.53-.42-1.06-.62-1.59-.02-.62-.04-1.25-.06-1.87-.09-.26-.4-.88-.4-1.19v-.11c.07-.17.34-.88.28-1.08-.12-.43-.43-.9-.57-1.42.15-.85.3-1.7.45-2.55-.2-.23-.23-.39-.62-.45-.74-.26-1.63.81-1.76,1.42-.51.4-.76.66-1.76.62-.13-.15-.26-.3-.4-.45-.57-.72.18-1.65.45-2.1-.03-.37-.11-.49-.23-.74-.08-.04-.15-.08-.23-.11-1.93.08-3,3.33-4.26,4.31h-.91c-1.01-.49-.19-3.38.34-4.37-.13-.13-.26-.26-.4-.4-1.95.11-1.41,1.93-3.52,1.93-1.53-1.77,1.62-4.52,1.7-6.75-.11-.09-.23-.19-.34-.28-1.36.11-1.4,1.55-3.01,1.25-.59-.95-.03-1.88-.28-2.61-.77-1.25-3.59.59-3.57-2.16.43-.53,2.36-1.56,1.59-2.78-.08-.09-.15-.19-.23-.28-1.94.06-3.02,2.26-4.88,1.76-.46-.21-1.25-1.12-.96-1.99.13-.38.51-.48.62-.96-1.56-1.35-1.9.4-3.12.68-.87-.04-1.74-.08-2.61-.11l-.45-.45v-.57c.43-.3,1.1-.41,1.53-.74.45-.62.91-1.25,1.36-1.87.51-.36,1.51-.52,1.82-1.13.04-.06.08-.11.11-.17-.06-.09-.11-.19-.17-.28-1.25-.18-3.29,2.27-5.33,1.82-.25-.35-.36-.66-.34-1.3,1.19-1.67,2.9-3.16,3.91-4.94-.17-.3-2.18-1.02-2.72-.85-.45.14-.8.44-1.59.45h-.06c-.28-.36-.47-.62-.45-1.3,1.55-2.25,3.87-.38,4.65-3.91-.02-.06-.04-.11-.06-.17-1.78-1.01-3.5,1.31-5.56.74-.19-.15-.38-.3-.57-.45v-.91c.76-.67,3.56-2.37,3.8-2.89.04-.06.08-.11.11-.17-.13-.16-2.52-1.41-3.01-1.25-.69.23-1.18.83-2.16.57h-.11c-.26-.35-.42-.65-.4-1.3.67-.98,1.38-1.6,2.67-1.99,1.59-.48,3.14,1,3.63-.74h.11c-.27-.89-3.24-.65-4.37-.62-.19-.19-.38-.38-.57-.57v-.74c.15-.32,3.58-1.81,4.03-1.87.35-.05,1.6-.5,1.42-.96-.34-.86-2.43.53-3.23.28-.65-.2-3.26-1.4-3.4-1.76v-.79c.93-1.06,2.1-.88,3.52-.57.22.05.48.37.91.23.57-.34,1.13-.68,1.7-1.02v-.34c-.89-.65-2.3-.78-2.84-1.82.04-.25.08-.49.11-.74,1.03-.69,3.95-.12,4.54-1.3.29-.62-1.57-.54-1.99-.74-1.16-.55-1.66-2.24-2.67-3.01v-.91c.53-.39,1.01-.19,1.87-.4,1.35,1.72,3.05,1.61,4.88.68-.59-1.98-4.12-1.66-4.2-4.2.08-.06.15-.11.23-.17,1.07-.73,3.16.99,4.14.4.09-.08.19-.15.28-.23-.2-1.72-1.88-2.27-2.67-3.29-.02-.32-.04-.64-.06-.96,2.89-1.62,4.2,2.78,7.09.85-.3-1.49-2.93-3.11-2.55-4.54.02-.06.04-.11.06-.17,2.57-.81,4.81,2.13,6.75,2.55.08-.09.15-.19.23-.28.04-.04.08-.08.11-.11-.38-.54-1.16-.69-1.59-1.3-.48-.69-.47-1.59-.79-2.33-.43-.62-.87-1.25-1.3-1.87,0-.27,0-.38.11-.51.37-.69,1.85-.27,2.55-.17.53.74,1.82,3.67,3.23,2.44,1.59-.89-1.87-3.22-.85-4.65.25-.39,1.19-.37,1.59-.11.85.55,1.53,1.5,2.33,2.1.53.4,1.25.61,1.65,1.13.41-.03.48-.14.74-.28-.25-.97-1.35-1.35-1.76-2.21-.4-.86-.1-2.03-.28-2.89l.4-.4c1.76-.35,1.33,1.32,2.21,2.1.52.46,2.18.52,2.89.57.85-1.09-.3-2.57-.28-3.91.31-.19.87-.19,1.42-.17,1.34.93,2.32,2.77,3.97,3.29.09-.08.19-.15.28-.23-.26-1.06-.76-1.8-1.02-2.95-.17-.74.44-2.47.45-3.69.24-.13.56-.32.74-.45,3.04.04,6.09.08,9.13.11,2.01,0,4.1-.22,5.96.17.47.69.57,4.02.68,5.05.09.08.19.15.28.23.31-.44.3-1.08.28-1.82.59-.46,1.35-.59,2.04-1.02.76-.47.79-1.05,2.16-1.02.15.13.3.26.45.4-.02,1.34-1.25,2.44-1.08,3.35.21.49.42.98.62,1.48.09.08.19.15.28.23.86-.59,2.52-3.29,3.23-4.26h1.02c.08.09.15.19.23.28.3,1.82-1.4,5.6.17,6.52.95-.53,1.11-1.44,1.08-2.84.71-.55,2.39-1.43,3.52-.85.14.73-.04.92-.23,1.59-.27.98.22,1.95.4,2.55.11.36-.04.58.17.79.52,1.33,3.52-2.29,4.2-2.55h1.19c.82,1.18-1.02,4.18-1.3,5.39.09.15.19.3.28.45.79-.24.84-1.25,1.48-1.65.79-.48,3.34-.75,4.65-.74,1.09,1.92-3.59,2.82-1.76,6.41,1.93.42,3.61-1.38,6.07-1.36.61,1.03-1.39,2.77-1.87,3.52v.28c1.08.48,3.61.56,4.71.74.04.08.08.15.11.23.53,1.49-3.8,2.64-1.76,3.86,1.32-.43,2.39-.65,4.09-.62.21.28.3.41.28.96-.59.55-1.1,1.22-1.76,1.7-.67.49-1.56.86-1.99,1.59.66.9,3.61-.03,4.43,1.65.12.3-.02.51-.06.85-.61.45-1.68.44-2.44.91-.38.43-.76.87-1.13,1.3v.17c1.23,1.08,4.64.48,6.52.85.08.09.15.19.23.28-.05,1.67-3.18,1.59-4.09,2.61-.24.07-.27.11-.4.28.84,1.26,2.68.77,4.37,1.02.79,1.62-1.8,2.63-2.89,2.72v.34c.81.32,1.63.64,2.44.96.28.37.27.61.23,1.25-.87.67-2.62.75-3.69,1.08-.06.08-.11.15-.17.23.25,1.43,2.36,1.57,3.69,1.82.2.29.17.73.28,1.02-1.52,1.17-3.57,1.07-5.45.34Z"/>
      <path class="cls-1" d="M38.22,2.63c.04-.17.08-.34.11-.51-.3-.28-.43-.5-1.02-.51-.13.13-.26.26-.4.4.09.23.19.45.28.68.38.12.63.04,1.02-.06Z"/>
      <path class="cls-1" d="M45.43,8.93l.11.11c.22-.29.57-.49.74-.85.42-.92-.3-2.81,0-3.69.11-.04.23-.08.34-.11-.09,1.04,1.15,3.81,1.93,4.2.11.02.23.04.34.06.68-.66,2.23-4.66,2.21-5.9l-.17-.23h-.51c-.85.4-1.62,1.82-2.04,2.67h-.17c-.63-1.37.23-3.41-1.76-3.46-.9.7-1.03,1.93-2.5,2.1-.71,1.01.26,4.82,1.48,5.11ZM48.44,5.75c.68-.78,1.32-1.73,1.93-2.55h.17c-.16,1.55-1.45,2.56-1.53,4.26-.09.04-.19.08-.28.11-.85-.55-1.17-1.62-1.48-2.72v-.06c.53-.17.47.83,1.19.96ZM44.18,4.28c1.24-.3,1.66-1.15,2.38-2.1.37.05.55.17.68.45.36.35.02,1.1,0,1.7-.23-.11-.45-.23-.68-.34-1.69.2-.74,2.42-1.13,3.86-.04.02-.08.04-.11.06-.75-.62-.74-2.09-1.13-2.95v-.68Z"/>
      <path class="cls-1" d="M40.44,7.51c.35.68.13,1.45.91,1.7,1.16.71,1.43-4.23,1.08-5.67-.83-.5-1.57,1.11-1.93,1.65h-.23c-.4-.51-.76-1.89-1.48-2.04-1.45,2.21.98,3.08,1.65,4.37ZM38.9,3.99c.83.44.36,1.61,1.7,1.65.42-.37.86-.8,1.08-1.36.06-.04.11-.08.17-.11.28.42-.16,3.02-.17,3.86-.02.02-.04.04-.06.06-.09-.02-.19-.04-.28-.06-.37-.22-2.61-3.37-2.44-4.03Z"/>
      <path class="cls-1" d="M41.23,138.41c-.06-.13-.11-.26-.17-.4,1-1.23,2.38-2.31,2.95-3.97.34-1-.27-1.59-.51-2.33-.51-1.55-.49-3.13-.91-4.65-.02-.66-.04-1.32-.06-1.99-.12-.38-.28-1.55-.11-2.1.11-.35-.16-.73,0-1.19.43-1.24,1.07-3.1,1.36-4.54-.06-.55-.11-1.1-.17-1.65.19-.45.38-.91.57-1.36-.1-.59-.37-1.43-.57-2.16-.35-1.28.79-2.76.4-4.2-.21-.75-.03-1.89-.28-2.78-.13-.42-.26-.83-.4-1.25.05-.48.46-1.06.28-1.7-.38-1.39-.48-3.69-.28-5.11.32-2.23.34-4.33,1.02-6.13.36-.95,1.15-1.53,1.48-2.67.58-2.01-1.29-5.15-3.12-5.11-2.11,2.2-.07,2.63-.62,4.99-.26,1.13-.96,1.74-1.42,2.55-.21.64-.42,1.29-.62,1.93-.25.3-.49.61-.74.91v1.7c-.15.3-.3.61-.45.91-.27.8.42,1.37.57,1.82-.04.49-.08.98-.11,1.48-.34.2-.39.08-.85,0h-.06s-.04.08-.06.11c.11.32.35.37.51.68v.28c-.36-.13-.35-.35-.74-.45-.02.04-.04.08-.06.11.06.49.29.81.62,1.02.12-.13.35-.1.45-.45h.06c.32.42.64.83.96,1.25-.02.89-.27.92-.28,1.82h-.28c-.26-.36-.36-.87-.34-1.53-.32-.23-.69-.41-.96-.57-.5.23-.86.57-.96,1.19-.59-.24.35-2.54.17-3.57-.42-2.4-1.38-2.73-.62-5.22v-1.3c.11-.44-.54-2.44-.74-3.18-.32-1.2.49-3.78.34-5.39.21-.44.51-.91.68-1.42-.04-.4-.08-.79-.11-1.19.19-.58.2-1.27.4-1.93.26-.86.88-1.43,1.08-2.38.14-.68.19-1.55.34-2.44v-.96c.16-.51.63-.85.91-1.25.69-.98,1.31-2.09,1.59-3.46-.53-.94-1.71-1.27-2.55-1.87v-.23c1.3.07,2.54.9,3.97.91-.22,2.07.32,1.38,1.53,2.33,1.14-.23,1.64-.95,1.53-2.27-1.3-.93-3.58-3.09-5.22-3.23.09-.15.19-.3.28-.45-.42-.26-1.01-.18-1.19-.74.3.04.61.08.91.11.06-.04.11-.08.17-.11v-.23c-.19-.15-.38-.3-.57-.45-.18.13-.56.17-.68.57-.49-.3-.98-.61-1.48-.91-.76.04-1.51.08-2.27.11-.04-.06-.08-.11-.11-.17.43-.42.88-1.27,1.42-1.53.13-.02.26-.04.4-.06.31.24.52.52,1.02.57.17.23,1.09-.35,1.25-.57,1-1.38.52-1.93.4-3.52.51-.22,1.03,0,1.65,0,2.25.02,5.21.09,5.9-1.48.37-.15.89-.19,1.48-.17-.05.56.04,1,.62,1.08.17-.23.34-.45.51-.68-.01-.39-.08-.45-.23-.68.06-2.39,4.09-1.22,5.67-1.19.47.77.32,1.43.62,2.33.52,1.51,1.88,3.59,3.29,4.03,1.05.33,2.39.43,2.55-.91-.32-.74-.98-.81-1.59-1.08h-.34c-.02.08-.04.15-.06.23.23.29.76.43,1.19.51.1.16.13.14.17.4-.02.04-.04.08-.06.11-3.25,1.51-4.38-3.87-5.28-5.9-.72-.25-1.38-.19-2.33-.4-2.16-.48-3.15-.23-4.43,1.36-.27.27-2.71.15-3.4-.06-1.21-.36-1.75-1.28-3.06-1.53-.49.06-.98.11-1.48.17-.43-.04-.87-.08-1.3-.11-1.02.35-.93,1.48-1.42,2.38-.92,1.71-2.53,3.03-4.99,3.01l-.11-.11v-.23c2.82-.6,4.57-2.37,5.5-4.94.45-1.24-.78-2.04-1.02-2.67-.16-.42.18-.63.28-.79.53-.86.84-.92,2.27-.91.02.08.04.15.06.23-.64.26-1.06.71-1.53,1.13-.13,3.08,3.46,2.76,4.77,1.08.34.04.68.08,1.02.11.35.44.79.63.79,1.42.06.02.11.04.17.06.29-.02.33-.05.45-.23.24-.38-1.51-2.38-2.55-1.82-.43.34-.87.68-1.3,1.02-.68.27-1.23.08-1.93.28-.4-.41-.77-.61-1.02-1.19.04-.46,1.45-1.89,1.93-1.82.43.26.87.53,1.3.79.23-.03.22-.02.34-.11.2-.12.19-.11.23-.4.51-.12.84.09,1.02-.4.14-.18.01-.28-.11-.51.91-1.18.06-.8.23-1.76.09-.53.28-.43.06-1.02,1.38-1.82-.01-3.94-.17-6.24.25-.32.49-.64.74-.96.14-.41-.21-.74-.28-.96-.15-.47.12-.88.11-1.13,0-.75-.83-1.58-1.3-1.93.09-.36.58-.73.4-1.25-1.01-2.82-4.9-6.04-8.34-6.13-1.01-.03-2.36-.31-3.12-.06-1.85.63-3.92,1.3-5.45,2.21-.59.35-1.02,1.22-1.7,1.36-.08.09-.15.19-.23.28.08.08.15.15.23.23.77-.07,2.02-1.63,2.89-2.04.32-.06.64-.11.96-.17,1.01-.4,2.13-1.03,3.23-1.36,2.28-.68,6.86.99,7.83,1.7,1.15.85,2.59,2.41,3.12,3.86-.09.4-.19.79-.28,1.19.26.59.87,1.01,1.08,1.53-.02.45-.04.91-.06,1.36.09.26.19.53.28.79.13.58-.56.99-.68,1.36-.22.65.41,2.39.57,2.84.45,1.33-.11,2.59-.4,3.57-.4,1.34.46,2.58-.68,3.12-.64.47-1.37-.29-1.76-.17-.23-.27.15-1.66.28-2.21.14-.58-.28-1.53,0-2.33.2-.59,1.77-4.89,1.65-5.16-.17-.11-.34-.23-.51-.34-.47.09-.95.19-1.42.28-.39-.3-.82-.68-1.19-1.02-.8.18-1.84.79-2.1,1.48-.16.41.16.86-.17,1.08-.51.06-1.02.11-1.53.17-.97.46-2.08,1.44-3.23,1.87-.43.16-1.32-.12-1.65-.23-1.5-.47-2.5-1.38-3.01-2.78-.08-.42-.15-.83-.23-1.25-.46-.97-1.73-.8-2.61-1.36-1.34-.85-.69-1.53-1.25-2.72-.19-.34-.38-.68-.57-1.02-.24-.72.35-1.51.23-2.04-.26-1.1-1.16-1.37-.45-2.72-.23-.3-.45-.61-.68-.91.14-.65.59-.76.91-1.19.3-.59.61-1.17.91-1.76.42-.43.83-.87,1.25-1.3h.23c-.21.62-.84.92-1.08,1.59v.06c.06.04.11.08.17.11.41-.85,1.4-1.46,1.93-2.27-.15-.08-.3-.15-.45-.23-.56-.29-1.95.99-2.16,1.53-.06.04-.11.08-.17.11h-.06c.09-.82,1.99-2.75,2.61-3.18.46-.32.93-.33,1.19-.85.12-.16.08-.11.06-.34-.19-.09-.38-.19-.57-.28-.97.23-1.48.92-2.27,1.08-.08.09-.15.19-.23.28.06.08.11.15.17.23.75-.08,1.32-.77,1.82-1.02h.4v.06c-.79.59-1.59,1.17-2.38,1.76-.62.66-.83,1.82-1.53,2.38-.15.02-.3.04-.45.06.03-.61.37-.91.45-1.25-.09-.42-.19-.83-.28-1.25v-.17c.24-.66.59-.95.45-1.87.82-1.14,3.28-3.94,4.94-3.91-.09.5-.38.35-.57.68-.23.41-.04.74,0,1.25-.8.57-1.47.83-1.99,1.7l.11.11c.87-.27,2.1-1.07,2.55-1.82-.04-.41-.2-.56-.45-.74.02-.06.04-.11.06-.17.24-.29.74-.6,1.02-.85-.15-1.13-1.58-.66-2.27-.28-1.15.63-3.4,2.92-4.03,4.09.09.19.19.38.28.57-.05.72-.49.81-.68,1.3v.11c-.12.54.52.87.28,1.53-.14.38-.45.59-.51,1.19.23.28.42.49.68.74.17-.08.34-.15.51-.23h.06c-.06,1.03-1.04,1.58-1.48,2.38.08.52.35.86.74,1.08-.03.55-.24.91-.45,1.3.02.56.3.93.74,1.08.16.37-.08,1.61-.28,2.1.49.46.9,1.59.62,2.33.13.32.26.64.4.96.62.96,2.02,1.76,3.35,1.82.26.38.03.97.28,1.48.62,1.24,1.6,2.66,2.89,3.23,1.61.72,3.44.18,4.48-.57.19-.21.38-.42.57-.62.77-.39,2.88-.08,3.12-1.13-.11-.28-.23-.57-.34-.85.21-.17.42-.34.62-.51.63-.21.43-.52,1.3-.51.15.47.32.71.51,1.08.77.14,1.05-.45,2.1-.45-.13.43-.49.6-.62.96-.15.64-.3,1.29-.45,1.93-.19.25-.38.49-.57.74.06.26.11.53.17.79-.17.25-.34.49-.51.74-.11.36.14.69.17.85.05.29-.23.54-.28.74-.12.42.17.6.17.91,0,.58-.43.66-.06,1.25l-.06.17c-1.94.1-2.81-.07-3.63,1.76-.34,1.03,1.37,1.57,1.02,2.89-.31,1.16-1.98,3.72-2.84,4.14-.98.48-2.05.35-2.84,1.02v.17c1.56,2.41,5.49-1.05,6.24-2.33.35-.6.35-1.64.85-2.1.37-.26,1.03-.02,1.36.06.6.13,1.36-.38,2.16-.17.78.2,1.07,1.12,1.76,1.42.18.11,1.41.03,1.82.11.02.08.04.15.06.23-.38.26-.76.53-1.13.79-.5-.35-1.43.15-1.76.23-1.67.37-3.98-.76-4.77.45.02.49.2.78.28,1.13-.06.61-.11,1.21-.17,1.82-.39.37-.52.73-1.3.74-.34-.23-.68-.45-1.02-.68-.71.13-1.97,1.6-2.33,2.16.19,1.62,1.91.32,3.23.79.36.47.72.95,1.08,1.42.87.38,1.74.76,2.61,1.13.69.44,1.25,1.23,1.99,1.65.5.28,1.04.34,1.3.85.02.26.04.53.06.79-.28.4-.52.59-1.25.57-.4-.26-1.03-.51-1.19-1.02.31-.18.57-.53.62-.96v-.06c-.65-.42-4.66-1.15-5.16-1.08-.08.09-.15.19-.23.28.45,1.51,1.7,1.29,2.67,2.21-.13,2.19-1.71,3.07-2.38,4.71-.57,1.38-.18,3.01-.62,4.37-.25.43-.49.87-.74,1.3-.19.68-.38,1.36-.57,2.04v1.82c-.12.41-.53.86-.62,1.36.06.26.11.53.17.79-.22.99-.85,3.57-.51,5.05.14.63.61,1.21.74,1.93.13.74-.61,3.05-.51,3.46.27,1.13.78,2.39,1.13,3.63-.04.19-.08.38-.11.57-.18,1.11-.61,3.48-.34,4.65.21.36.42.72.62,1.08.16.48.22,1.37.28,1.76.28.22.29.3.74.34.47-.4.87-.79.74-1.65-.34-.25-.68-.49-1.02-.74.02-.96.13-1.94.11-3.01l.34-.34h.45c-.08.79-.15,1.51.17,2.1.3.02.61.04.91.06.18.28.31.59.62.74.08.04.15.08.23.11.15-.2.25-.17.34-.45.27-.27-.32-.91-.62-1.02.06-.56.38-.76.45-1.19.14-.8-.76-1.62-1.19-1.93.04-.59.34-.66.45-1.08.28-1.05-.31-1.66-.51-2.16-.39-.98.43-1.94.51-2.5-.09-.36-.19-.72-.28-1.08.28-.47.82-.67,1.02-1.19.23-.6.13-1.29.45-1.76.46-.67,1.32-1.29,1.48-2.27,0,0,.19-1.76.17-1.82-.24-.88-1.16-1.99-.23-2.89.49-.44,1.27.15,1.48.4.44.53,1.51,3.46.96,4.82-.23.58-.96.99-1.19,1.65-.97,2.71-1.98,8.03-.91,11.18-.09.76-.19,1.51-.28,2.27.11.19.23.38.34.57.29,1.08-.05,1.89.28,2.89-.04.32-.08.64-.11.96-.03,1.97-.66,4.38.4,5.56-.21.61-.42,1.21-.62,1.82-.07.48.38.91.17,1.53-.19.59-.38,1.17-.57,1.76-.02.43-.04.87-.06,1.3l-.68,1.36c-.31,1-.26,3.44-.06,4.37.25,1.17.6,2.77.91,3.91.13.5-.15.67.06,1.25.33.9,1.04,1.44.57,2.84-.61,1.81-2.41,2.81-3.46,4.2h-.68c-.21-.25-.42-.49-.62-.74-.96.17-.74,2.02-.91,2.84.47.86,1.57,1.15,2.55,1.13.09-.11.19-.23.28-.34.27-.44-.48-.77-.68-1.13-.13-.39.18-.72.23-1.19.4-.25.79-.49,1.19-.74ZM24.44,24.82h.17c-.04.11-.08.23-.11.34h-.17c.04-.11.08-.23.11-.34ZM38.34,106.69v.06s-.04.08-.06.11c-.06.04-.11.08-.17.11h-.34c-.08-.29-.2-.41-.11-.74.22.11.45.22.68.45ZM39.58,141.24c-.3-.13-.61-.26-.91-.4-.3-.41-.43-1.58-.23-2.27.36.28.62.54,1.25.57v.06c-.15.23-.3.45-.45.68.17.43.34.87.51,1.3-.06.02-.11.04-.17.06Z"/>
      <path class="cls-1" d="M21.6,19.77c-.21-.26-.55-.41-.96-.45-.59.44-1.27.34-1.48,1.19.15.13.3.26.45.4.8-.11,1.74-.47,1.99-1.13ZM20.35,19.88h.4v.06c-.22.27-.45.26-.74.34-.02-.04-.04-.08-.06-.11.13-.09.26-.19.4-.28Z"/>
      <path class="cls-1" d="M20.86,21.75v-.17c-.23-.16-.43-.3-.79-.34-.43.13-.87.26-1.3.4-1.27.61-2.15,1.69-2.84,2.89.11.09.23.19.34.28,1.77-.27,3.22-2.12,4.6-3.06ZM19.78,21.86c.04.31-2.11,1.74-2.55,1.93h-.17c.27-1.14,1.68-1.52,2.72-1.93Z"/>
      <path class="cls-1" d="M20.18,24.19c-.28-.14-.43-.26-.85-.28-.7.32-1.35.47-1.53,1.3.04.06.08.11.11.17,1.09.24,1.62-.38,2.33-.96v-.11s-.04-.08-.06-.11ZM19.39,24.53c-.11.09-.23.19-.34.28-.13.04-.26.08-.4.11-.02-.04-.04-.08-.06-.11.15-.11.3-.23.45-.34h.34v.06Z"/>
      <path class="cls-1" d="M28.29,24.82c-.13-.23-.33-.28-.57-.4-.57.56-1.56.78-2.21,1.25-.44.31-.5.99-.96,1.3v.17c.04.06.08.11.11.17h.23c.93-.76,1.18-1.65,2.5-2.21h.06c.13.47-1.28,1.27-1.53,1.93v.06c.06.04.11.08.17.11.91-.55,1.55-1.47,2.27-2.21-.02-.06-.04-.11-.06-.17Z"/>
      <path class="cls-1" d="M17.51,25.72c-.15-.18-.25-.25-.57-.28-.61.6-1.25.43-1.53,1.42l.34.34c.88-.06,1.36-.92,1.76-1.48ZM16.49,26.29c-.16.06-.03.09-.17,0h.17Z"/>
      <path class="cls-1" d="M22.96,64.53c-.21.26-.42.53-.62.79-.46-.11-.45-.48-.51-.96-.15-.08-.3-.15-.45-.23-.3.36-.72.57-1.02.91.06.11.11.23.17.34.65-.05.52-.36,1.08-.45.02.57.23.74.45,1.08.56-.05.49-.31.91-.45-.09.95.22,1.43.28,2.27-.06.06-.11.11-.17.17-.6-.07-1.55-.5-1.76-.96-.18-.39-.02-.85-.28-1.13-.25-.27-.73-.33-.91-.68-.37-.76-.15-1.13-.79-1.59.03-.31.06-.34.28-.45-.06-.21-.04-.17-.17-.28-.28.06-.31.09-.4.34-1.05-.12-1.25-.83-2.21-.91-.23-.33-.45-.9-.51-1.25.04-.17.08-.34.11-.51-.32-1.17-1.97-1.89-2.5-2.89-.26-.49-.56-1.33-.74-1.93-.02-.34-.04-.68-.06-1.02-.19-.34-.38-.68-.57-1.02-.04-.78-.08-1.55-.11-2.33-.25-.32-.49-.64-.74-.96-.31-.9.84-1.41.51-2.33-.19-.23-.38-.45-.57-.68-.18-.5.07-.94,0-1.3-.08-.43-.35-1.26-.45-1.59-.38-1.2.85-1.63.51-2.72-.51-1.64,0-1.78.4-3.18.15-.51-.37-1.04-.45-1.36-.18-.68.58-1.51.74-2.04.22-.76-.38-1.14-.11-1.87.4-1.12,1.67-1.23.74-2.89.01-.51.14-.57.28-.91.22-.16.26-.23.68-.23h.06c.15.21.23.22.17.51.16.17.54.39.74.34.62-.14,4.51-2.65,4.71-3.06.14-.21.05-.17,0-.45-2.39-.55-3.39,1.58-4.88,2.84-.35-.09-.39-.49-.74-.74-1.03.02-1.55.99-1.65,1.93.22.24.55.6.62.96-.45.59-1.17,1.22-1.36,2.04-.18.77.33,1.4,0,2.27-.19.5-.58.86-.57,1.76,1.39,1.26-1.41,3.12.11,4.31-.02.9-.62,1.44-.68,2.27-.07.9.8,1.94.28,3.01.22.35.37.75.74.79.38.4-.21,1.79-.45,2.27.1.66.46,1,.91,1.3,0,.67-.42,1.34-.17,2.1.11.33.57.67.74,1.02-.04.38-.08.76-.11,1.13.14.45.59.79.74,1.13.24.55.05.95.34,1.36.26.36.98.4,1.19.74.38.6.54,1.11,1.13,1.48-.06.72-.15,1.5.34,2.21.11.18,2.17.97,2.72.96.29.41.25,1.25.57,1.7.26.36.83.36,1.08.74.25.38-.18.62,0,1.02.02.02.04.04.06.06.02.02.04.04.06.06.02.02.04.04.06.06.39.5.8.38,1.42.68.42.21.55.91.96,1.19h.28c.76-1.13.11-2.89,0-4.6-.15-.06-.3-.11-.45-.17ZM18.42,27.03h.62c-.16.21-2.78,1.96-3.06,2.1l-.11-.11c.75-.91,1.45-1.38,2.55-1.99Z"/>
      <path class="cls-1" d="M24.61,30.21c.04.06.08.11.11.17.17-.06.34-.11.51-.17.16.14.14.21.4.28.38-.7.92-.99,1.42-1.53.28-.47.57-.95.85-1.42v-.06c-.19-.19-.31-.32-.62-.4-.4.3-1.04.36-1.36.57v.17c.41.18.7-.03,1.25-.06-.36,1.07-1.93,1.5-2.55,2.44Z"/>
      <path class="cls-1" d="M69.32,29.3c-3.88-1.73-7.88-1.41-11.46.62-.94.54-2.39,1.22-2.38,2.67-.4.23-.79.45-1.19.68-.88.98-1.14,3.88.91,3.8.09.51.19,1.02.28,1.53.46,1.13,1.63,1.68,2.21,2.67,1.18,1.97,1.29,2.53,3.12,3.91.65.49,2.31,1.29,3.06.51.26-.27-.05-.47.11-.79.23-.46.8-.33.91-1.08-.38-.34-1.03-.92-1.59-1.02l-.23.17c.06.28.09.23.23.4v.06c-.26.04-.53.08-.79.11-.06.08-.11.15-.17.23.11.11.23.23.34.34.5-.04.62-.23.91-.45.19.02.38.04.57.06.04.09.08.19.11.28-.36.4-.72.79-1.08,1.19-1.47.7-4.09-2.3-4.6-3.18-.29-.5-.33-1-.62-1.48-.43-.69-1.35-1.13-1.76-1.93-.49-.95-.2-2.02-1.48-2.21-.53-.75-.73-2.46.11-3.01.29-.19.76-.14.91-.45.04-.25.08-.49.11-.74,1.95-3.31,9.21-4.56,13.39-2.44.91.46,2.14.69,2.61,1.59.02.13.04.26.06.4-1.14-.01-1.47-.96-2.21-1.36-.59-.32-1.54-.54-2.21-.85-.19.11-2.69-.63-3.4-.45-2.32.57-4.11.75-5.79,1.87-.71.47-2.82,1.87-2.21,3.29.09.09.19.19.28.28.37-.55,0-.7.23-1.25.44-1.03,2.05-2.08,3.01-2.61.66-.37,1.69-.29,2.38-.51,4.1-1.29,7.6.57,9.7,2.55.27-.06.43-.15.57-.34.09-.17.19-.34.28-.51-.07-1.62-2.04-2.02-3.23-2.55Z"/>
      <path class="cls-1" d="M39.93,37.35c.54.21,2.04-.05,2.33-.51.76-1.21-.35-2.3-.85-3.12-.56-.91-1.5-1.14-2.1-1.93-.15-.38-.3-.76-.45-1.13-1.03-1.55-2.7-2.13-5.16-2.1-.14.1-3.71.91-3.97.96-1.1.23-1.96,2.28-2.44,3.18.13.14.09.13.34.17.6-.63,1.39-1.06,1.42-2.27,1.22-.91,6.11-2.1,8.17-.85.91.55.96,1.6,1.59,2.44.66.49,1.32.98,1.99,1.48.54.75.76,1.61,1.36,2.27-.07.47-.33.56-.57.85-.53.02-1.06.04-1.59.06-.64-.62-.83-1.91-1.53-2.44-1.26-.94-3.29-1.09-5.05-.85-.34-.06-.68-.11-1.02-.17-.85.32-1.11.96-2.33,1.02-.34-.4-.68-.79-1.02-1.19-.47-.39-1.16,0-1.59.17.15.43.85.26,1.42.23.22.36.53.93.91,1.13.72.63,2.15-.38,2.44-.79,1.87.02,4.37-.22,5.84.74.89.58.82,2.25,1.87,2.67Z"/>
      <path class="cls-1" d="M13.83,34.4c.49-.61.98-1.21,1.48-1.82.79-.56,1.63-.98,2.1-1.87-.02-.08-.04-.15-.06-.23-.15-.28-.43-.39-.79-.45-.61.3-1.21.61-1.82.91v.06c.04.08.08.15.11.23.81,0,1.2-.49,1.87-.68.02.08.04.15.06.23-.25.31-4.34,3.08-2.95,3.63Z"/>
      <path class="cls-1" d="M13.2,35.48c.04.09.08.19.11.28,1.76-.54,2.28-3.36,4.82-3.35-.22.64-1.13.77-1.65,1.13-.83.58-1.66,1.81-2.21,2.67.06.04.11.08.17.11.9-.26,1.29-1.54,1.93-2.1.72-.63,1.8-.7,2.27-1.59v-.06s.04-.04.06-.06v-.23c-.16-.3-.48-.43-.91-.45-1.38.66-2.41,1.21-3.4,2.21-.44.44-.69,1.04-1.19,1.42Z"/>
      <path class="cls-1" d="M26.48,32.36l-.23.23v.17c.15.07.2.1.45.11.08-.09.15-.19.23-.28-.15-.18-.14-.2-.45-.23Z"/>
      <path class="cls-1" d="M70.17,36.11c-.57-.32-1.32-.16-1.82-.51-.32-.22-.36-.63-.74-.85-.56.01-.89.54-1.48.28-.17-.11-.34-.23-.51-.34-.38.06-.76.11-1.13.17-.91-.42-.35-.31-1.53-.28-.26-.65-.49-1.66-1.3-1.76-.65.59-1.39.75-1.36,2.04-.15.06-.3.11-.45.17-.17-.15-.34-.3-.51-.45-.24.07-.27.11-.4.28.27.24.65.48.91.74.17-.06.34-.11.51-.17.31-.25.25-.89.51-1.3.25-.25.49-.49.74-.74h.34c.23.53.45,1.06.68,1.59.51.3.76-.24,1.36,0,.11.04.51.35.62.45.19-.08.38-.15.57-.23.17.12,1.1.42,1.25.4.5-.07.65-.33,1.25-.34.23.82,1.29,1.27,2.21,1.25.39.5.67.91.91,1.59-.07.35-.29.52-.57.62-1-.43-2.42.48-3.06.79-.06-.09-.11-.19-.17-.28-.52.1-.47.46-.96.62l-.17.23c.68.65,2.42-.49,2.95-.62.83-.22,1.5.07,2.1-.28.19-.25.38-.49.57-.74-.15-.61-.79-2.04-1.3-2.33Z"/>
      <path class="cls-1" d="M59.05,34.35c.18-.14.23-.16.28-.45-.19-.17-.28-.3-.57-.4-.63.38-1.31.35-1.93.62.04.09.08.19.11.28.79-.12,1.61-.36,2.1-.06Z"/>
      <path class="cls-1" d="M11.56,44.5c.18.53.74.82.91,1.3.46.33,1.07.1,1.19-.62.06-.04.11-.08.17-.11.25.39-.26.97-.34,1.48.06.04.11.08.17.11.74-.52,1.49-2.74,2.1-3.57.87-1.2,2.77-1.69,3.46-3.01-.02-.11-.04-.23-.06-.34-.19-.11-.38-.23-.57-.34-2.06.02-4.2,2.67-4.94,4.14-.28.55-.16,1.52-.74,1.93-.27-.23-.43-.47-.79-.62,0-.88.25-1.04.45-1.7.77-2.56,2.45-5.46,4.31-6.92.49-.39.99-.63,1.42-1.08-.02-.09-.04-.19-.06-.28-.26-.13-.53-.26-.79-.4-.43.19-.87.38-1.3.57-.72.74-1.44,1.48-2.16,2.21.04.06.08.11.11.17,1.28-.18,2.02-1.8,3.12-2.38h.34c-.08.31-1.92,1.73-2.27,2.1-1.83,1.9-2.6,3.57-3.46,6.3-.08.25-.43.64-.28,1.08ZM18.02,39.91h.51c.02.06.04.11.06.17-.87.64-1.74,1.29-2.61,1.93-.62.89-1.25,1.78-1.87,2.67v.11c-.94-1.66,2.87-4.27,3.91-4.88Z"/>
      <path class="cls-1" d="M56.21,34.91c.11.15.08.15.28.23.11.06.23.11.34.17.18-.14.2-.08.28-.34-.23-.15-.37-.25-.74-.28-.06.08-.11.15-.17.23Z"/>
      <path class="cls-1" d="M35.44,35.99c.08-.08.15-.15.23-.23v-.17c-.6-.36-1.66.01-2.5-.23-.06.08-.11.15-.17.23.55.69,1.5.17,2.44.4Z"/>
      <path class="cls-1" d="M65.57,36.67c1.02.32,1.42.6,2.27,1.02.02-.17.04-.34.06-.51-.71-.91-2.28-1.34-4.03-1.3-.23.08-.45.15-.68.23-.04.06-.08.11-.11.17.48.63,1.63.12,2.5.4Z"/>
      <path class="cls-1" d="M62.22,36.79c-.66.34-1.21.33-1.82.74v.17c.5.22,2.36-.6,3.52-.4,1.22.21,2.26.67,3.23,1.13.27.01.44.02.57-.11.21-.06.17-.04.28-.17-.34-.38-.61-.09-1.19-.28-1.44-.48-2.41-1.13-4.6-1.08Z"/>
      <path class="cls-1" d="M32.44,37.58c.43.61.72,1.48,1.42,1.82.04.04.08.08.11.11l.23-.23c-.07-.97-1.48-2.41-2.61-2.44-.73.65-1.01,0-1.7,1.25.06,1.09,1.12,1.8,1.99,2.1.32-.13,1.36-.13,1.59.06.44,0,.6-.06.85-.17-.31-.95-1.96-.12-2.72-.45-.43-.42-.87-.83-1.3-1.25v-.23c.58-.42,1.07-.6,2.16-.57Z"/>
      <path class="cls-1" d="M14.11,41.5c.06.04.11.08.17.11.21-.03,3.95-3.05,4.14-3.35v-.28c-.23-.16-.33-.26-.74-.28-1.42.81-3.54,1.68-3.57,3.8ZM15.13,40.42c.23-1.22,1.51-1.57,2.38-2.16.35.26-1.91,1.81-2.38,2.16Z"/>
      <path class="cls-1" d="M60.01,38.83c.45-.04.91-.08,1.36-.11.19.29.36.63.4,1.08.16.1.14.13.4.17.06-.09.11-.19.17-.28-.13-1.09-.57-1.58-1.76-1.53-.19.17-.38.34-.57.51v.17Z"/>
      <path class="cls-1" d="M65.68,39.34c.04.06.08.11.11.17h.28c.11-.25.23-.49.34-.74-.08-.04-.15-.08-.23-.11-.22.22-.42.31-.51.68Z"/>
      <path class="cls-1" d="M61.71,40.7c.09-.11.19-.23.28-.34h-.06c-.14-.3-.27-.07-.57-.23-.36-.4-.72-.79-1.08-1.19h-.06c-.08.09-.15.19-.23.28.4.72.96,1.25,1.7,1.48Z"/>
      <path class="cls-1" d="M36.07,40.13c-.13-.09-.1-.1-.28-.17-.04.08-.08.15-.11.23v.06c.06.04.11.08.17.11l.23-.23Z"/>
      <path class="cls-1" d="M67.44,40.59c-.14.14-.44.13-.74.11-.06.08-.11.15-.17.23.31.38.52.26,1.13.23-.07.17,0,.07-.11.17-.31.26-.96.12-1.48.17-.33.03-1.12.51-1.65.23-.74-.4-1.68-.54-2.44-.51-.08.09-.15.19-.23.28,1.64,1.18,5.74,1.4,6.75-.57-.04-.08-.08-.15-.11-.23-.25-.08-.57-.12-.96-.11Z"/>
      <path class="cls-1" d="M61.37,41.67c-.08.09-.15.19-.23.28.45.38.91.76,1.36,1.13v.11c.67-.54-.61-1.27-1.13-1.53Z"/>
      <path class="cls-1" d="M14.56,47.79c.09.08.19.15.28.23,0,0,1.9-3.02,1.99-3.18-.16-.31-.32-.4-.68-.51-.4.23-.79.45-1.19.68-.04.03-1.43,2.45-1.48,2.55v.06c.11.04.23.08.34.11.72-.79,1.24-1.91,1.93-2.72h.34s.04.08.06.11c-.52.88-1.44,1.35-1.59,2.61v.06Z"/>
      <path class="cls-1" d="M14.85,55.68l.11.11c.46-.47.69-2.42.62-3.18.94-1.26,1.74-2.74,2.72-3.97.4-.49,1.06-.52,1.19-1.3v-.06c-1.07-.79-2.72,1.23-3.35,2.16h-.28c.32-.56.63-.71.62-1.53.94-.67,2.5-1.44,3.01-2.5.09-.11.08-.08.11-.28-.13-.11-.26-.23-.4-.34-.51-.23-2.54,1.31-2.78,1.65-.3.42-.44,1.01-.85,1.3-.72.52-1.05.31-1.65.74-.34.24-.56,1.02-.57,1.53.17.13.16.18.45.23.17-.45.34-.91.51-1.36.11-.09.23-.19.34-.28h.06c-.02.4-.04.79-.06,1.19-.3.41-.73.67-.91,1.19.04.06.08.11.11.17.66-.14,1.26-.87,1.53-1.42h.23s.04.08.06.11c-.62.83-.73,1.5-.51,2.61-.19.28-.42.45-.74.45-.08.09-.15.19-.23.28.04.08.08.15.11.23.4.06.32-.06.79-.11-.08.79-.54,1.12-.62,1.99.1.19.15.29.34.4ZM18.65,45.3h.28c-.19.6-1.45,1.48-2.04,1.7l-.11.11s-.08-.08-.11-.11c.52-.76,1.42-1.01,1.99-1.7ZM18.25,47.96c.11-.13.23-.26.34-.4h.17c-.09.15-.19.3-.28.45h-.23v-.06ZM15.3,48.99c-.06-.06-.11-.11-.17-.17v-.11c.25-.23.49-.45.74-.68.3.19.06.46,0,.85-.19.04-.38.08-.57.11ZM17.74,48.48s.08-.08.11-.11l.11.11c-.59.76-1.37,1.41-1.76,2.38-.23.17-.24.3-.62.34.03-.77,1.58-2.49,2.16-2.72Z"/>
      <path class="cls-1" d="M19.61,62.6c.11.49.44,1.02.51,1.82.09.08.19.15.28.23.08-.09.15-.19.23-.28.13-.75-.27-1.08-.4-1.59-.23-.93.56-1.44.11-2.44-.28.06-.57.11-.85.17-.15-.3-.3-.61-.45-.91-.07-.31-.27-.33-.45-.34-.28.17-.57.34-.85.51h-.06c-.35-.47-.23-.9-.17-1.59-.13-.08-.26-.15-.4-.23-.17.25-.34.49-.51.74h-.23c-.74-1.84.3-3.38.85-4.82.13-.42.26-.83.4-1.25.73-.95,2.24-1.62,2.78-2.72.04-.08.08-.15.11-.23-.11-.09-.23-.19-.34-.28-3.31,0-3.53,4.6-4.88,6.58h-.34c.02.17.04.34.06.51.19.04.38.08.57.11-.09,1.18.12,1.46.45,2.44.38.25.58.1,1.02.17.08.3.15.61.23.91.09.08.19.15.28.23.6-.03.68-.3,1.02-.57.23.4.45.79.68,1.19.31.1.41.08.74,0,.11.59-.56.92-.4,1.65ZM17.68,51.37c.44-.67,1.1-.98,1.82-1.36.04.04.08.08.11.11-.49.56-1.17.89-1.59,1.53h-.34v-.28Z"/>
      <path class="cls-1" d="M45.71,53.47c-.09.09-.19.19-.28.28.7.63,2.38.98,3.46.4.32-.28.64-.57.96-.85.6-.27,1.32-.24,1.82-.57h1.02c.55.17,1.1.34,1.65.51.41.12.75-.08.91-.23.75-.46.38-1.41.17-2.04-.39-.28-.69-.38-1.3-.34-.04-.06-.08-.11-.11-.17.16-.21.98-.62,1.65-.34.92.39.47,1.12.91,2.21.34.86,1.07,1.63,1.76,2.16-.09.46-.36.71-.45,1.08-.09.33.21.51.28.68.51,1.26.67,2.16,2.38,2.16.02-.09.04-.19.06-.28-.39-.24-.64-.12-1.08-.34-.74-.37-.95-1.58-1.3-2.33.31-.25.63-.38.74-.85-.61-.68-1.21-1.36-1.82-2.04-.02-.42-.04-.83-.06-1.25-.33-1.05-.96-1.76-2.38-1.76-.55.44-1.37.42-1.59,1.19.45.34.81.43,1.7.4.27.37.42.6.4,1.3v.06c-1.04.72-2.02-.55-3.29-.28-.62.13-1.17.23-1.87.51-1.23.5-2.25,2.01-4.31.74Z"/>
      <path class="cls-1" d="M14.79,51.2h-.11c-.36.36-.63.56-.68,1.25.08.08.15.15.23.23h.17c.29-.35.53-.88.4-1.48Z"/>
      <path class="cls-1" d="M18.87,52.5c-1.03,1.36-1.37,2.74-1.93,4.65.12.1.16.19.23.34.08.04.15.08.23.11.59-.89,1.17-1.78,1.76-2.67.21-.42.09-.93.34-1.36.34-.6,1.1-1.03,1.3-1.76v-.06c-.23-.16-.3-.23-.74-.23-.4.32-.79.64-1.19.96ZM18.08,55.4c-.35-.49.99-2.34,1.3-2.67.04.08.08.15.11.23-.51.7-.75,1.89-1.42,2.44ZM19.78,52.56s-.04-.04-.06-.06c.02-.04.04-.08.06-.11.04.04.08.08.11.11-.04.02-.08.04-.11.06Z"/>
      <path class="cls-1" d="M20.69,54.77h-.34c-.22.19-.36.37-.51.62.08.09.15.19.23.28h.17c.21-.23.42-.45.62-.68-.06-.08-.11-.15-.17-.23Z"/>
      <path class="cls-1" d="M11.1,57.5c.19.31.93-.52,1.02-.79.04-.08.08-.15.11-.23-.31-.26-.54-.46-1.13-.45-.23.23-.6.23-.79.51-.25.38.37.89.79.96ZM11.05,56.59h.4l.06.06v.06c-.06.06-.11.11-.17.17h-.28c-.04-.08-.08-.15-.11-.23.04-.02.08-.04.11-.06Z"/>
      <path class="cls-1" d="M21.43,57.44v.06c.06.04.11.08.17.11.35-.03.48-.1.57-.4.04-.02.08-.04.11-.06-.15-.18-.14-.2-.45-.23-.09.11-.19.23-.28.34-.04.06-.08.11-.11.17Z"/>
      <path class="cls-1" d="M52.97,61.47l.23-.23v-.06c-.14-.7-.75-.68-1.13-1.02-.41-.36-.33-1.13-.79-1.48-.47-.35-1.05-.04-1.7-.28-.75-.29-1.82-.84-2.5-1.19-.06.08-.11.15-.17.23.41.89.86.63,1.87.96.32.19.64.38.96.57h1.08c.63.24.46.81.79,1.36.2.33.99.88,1.3,1.13h.06Z"/>
      <path class="cls-1" d="M11.84,63c.13.02.26.04.4.06.74-.64,1.87-1.57,1.87-2.89-.23-.19-.45-.38-.68-.57-1.8-.03-2.53,1.25-3.69,1.82-.68.33-1.29.4-1.82.85-.32.28-2.17.81-1.42,1.36.17.09,1.99-.64,2.38-.91.34-.3.68-.61,1.02-.91.64-.04,1.29-.08,1.93-.11-.06.6-.14.76,0,1.3ZM10.82,61.35h-.06v-.23c.7-.36,1.4-.72,2.1-1.08h.51l.17.23c-.07.67-.46.71-.62,1.25-.15.09-.3.19-.45.28-.38-.33-.86-.85-1.65-.45Z"/>
      <path class="cls-1" d="M21.83,63.17c.18-.12,1.41-2.85,1.42-3.29-.19-.12-.27-.17-.62-.17-.58.5-1.71,2.65-.79,3.46Z"/>
      <path class="cls-1" d="M56.04,61.58v-.06c-.98-.71-1.47.46-2.21.91-.42.26-.86.24-1.42.4.46-.8,1.54-.78,1.82-1.87.63-.48,3.16-.18,3.97.28.48.28.7,1.31.68,2.1.11.04.23.08.34.11.09-.11.19-.23.28-.34.12-.2-.56-1.9-.85-2.16-.19-.16-3.64-1.01-3.91-.91-1.26.45-1.23,2.13-2.89,2.27v-.28c-.14-.06-.19-.07-.28-.17-1.01.16-1.69,1.03-2.67,1.3-.06.15-.11.3-.17.45.75.29,2.21-.84,2.84-1.19h.23c-.06.17-.11.34-.17.51.25.23.38.41.74.57.44-.23,1.31-.2,1.7-.51.69-.53.83-1.03,1.87-1.19.04-.08.08-.15.11-.23Z"/>
      <path class="cls-1" d="M75.22,60.33c-.17.16-.38.21-.57.51.37.57.81,1.25,1.42,1.59.26-.2.36-.48.51-.79-.16-.8-.69-1.18-1.36-1.3ZM75.95,61.35c-.09.02-.19.04-.28.06-.18-.15-.24-.21-.28-.51.17.09.34.19.51.28.02.04.04.08.06.11v.06Z"/>
      <path class="cls-1" d="M24.15,61.07c-.37.41-.52,1.13-.91,1.53.04.19.08.38.11.57l.23.17c.62-.42.9-1.31,1.13-2.04-.16-.19-.2-.22-.57-.23Z"/>
      <path class="cls-1" d="M17.57,61.52c.06.06.11.11.17.17.04-.04.08-.08.11-.11-.08-.22,0-.12-.17-.23-.04.06-.08.11-.11.17Z"/>
      <path class="cls-1" d="M26.82,61.58c-.33.33-.7.3-.85.85.09.09.19.19.28.28.47-.04.86-.27,1.02-.62.15-.28-.15-.38-.45-.51Z"/>
      <path class="cls-1" d="M51.9,61.98c.08.04.15.08.23.11h.06c.06-.09.11-.19.17-.28v-.06c-.11-.02-.23-.04-.34-.06-.04.08-.08.15-.11.23v.06Z"/>
      <path class="cls-1" d="M73.57,61.98c-.15.16-.29.1-.4.45.66.53.65,1.87,1.3,2.38.16.13.06.04.34,0,.33-1.44-.33-2.43-1.25-2.84Z"/>
      <path class="cls-1" d="M58.76,65.1c.56.02,1.06-.15,1.19-.57h.11c-.16-.65-1.05-.93-1.76-.91-.04.06-.08.11-.11.17.22.29.55.41,1.02.45.04.06.08.11.11.17-.04.04-.08.08-.11.11-1.42-.34-1.76-1.34-3.69-1.3-.02-.02-.04-.04-.06-.06.14-.37.45-.35.62-.68.15-.22.11-.3-.23-.34-.29.33-.65.47-1.13.57-.06.15-.11.3-.17.45,1.31.77,3.24.8,4.2,1.93Z"/>
      <path class="cls-1" d="M62.17,84.73c-.18-.55-.65-.98-.85-1.53-.29-.79.34-1.24-.06-1.87-.22-.35-.88-.4-1.19-.62v-.17c.26-.09.27-.02.62.06.31-.27.72-.56.57-1.13-.08-.17-.08-.18-.23-.28-.14-.11-.33-.12-.62-.11-.27.3-.38.38-.45.79h-.06c-.66-.61-.34-1.7-.74-2.61-.23-.28-.45-.57-.68-.85-.91-1.49-1.84-4.85-3.35-5.56-.56-.26-.95.16-1.59.17-.31-.5.24-.79,0-1.48-.32-.43-.64-.87-.96-1.3-.38-.33-1.12-.38-1.76-.28-1.69-.67-2.15-.74-2.1-2.67.94-.47,2.49-.5,2.67-1.65-.19-.13-.38-.26-.57-.4-.89.21-1.06.92-2.16.91-.08.09-.15.19-.23.28.15.11.3.23.45.34-.23.27-.57.33-.74.68-.22.45.11.72.23.96.75,1.63,1.27,2.12,3.69,2.04.32.38.64.76.96,1.13-.13,2.26.09,1.78,1.99,1.7.34.38.68.76,1.02,1.13.69,1.36,1.35,2.73,1.99,3.97.25.38.49.76.74,1.13-.04.23-.08.45-.11.68.42.98.83,1.97,1.25,2.95.15.34.44.36.85.34.22.5-.21.76-.06,1.36.3.53.61,1.06.91,1.59.24.73-.22,1.23,0,1.82.63,1.69,1.54,2.98,2.38,4.48.46.83.37,1.85.79,2.72,1.08,2.23,3.69,3.27,4.6,5.33.02.17.04.34.06.51-1,.44-2.07-1.51-2.89-1.93h-1.42c-.41-.69-.06-1.58-.4-2.33-.34-.75-1.36-.84-1.99-1.3-1.48-1.09-.86-1.99-3.52-1.93-.15.21-.3.42-.45.62-.06.1.62,2.64.79,3.18.24.73.49,1.42.68,1.99v2.72c.09.17.19.34.28.51.02.59.04,1.17.06,1.76.15.52.61,1.57.4,2.33-.35,1.24-.45,2.39-.45,3.91v2.27c-.3,1.05-.82,4.21-.57,5.11.17.59.54,1.56.62,2.1.08.52-.48.72-.28,1.42.58,2.04.04,4.66.4,6.64.26,1.43-.78,3.03-1.13,4.03-.18.52.19,1.3.06,1.82-.07.26-.26,1.1-.11,1.53.45,1.3,1.41,2.99,2.5,3.8.52.39.97.36,1.3.96-.05.21,0,.12-.11.23-.21.17-.83.44-1.3.28-.76-.25-1.76-.79-2.5-1.02-.91-.29-1.92-.07-2.61-.57-.31-.22-.46-.64-.45-1.19.38-.49.87-.86,1.08-1.53-.09-.61-.19-1.21-.28-1.82-.04-1.04.27-3.13-.06-4.26-.26-.9-1.1-2.92-1.13-3.91h.34s.08-.08.11-.11c-.06-.2-.26-.29-.28-.4.08-.23.15-.45.23-.68-.13-.21-.26-.42-.4-.62-.02-.53-.04-1.06-.06-1.59-.3-.42-.61-.83-.91-1.25-.3-.98.98-1.49.68-2.78-.19-.83-.78-1.04-1.08-1.65-.02-.03.63-2.36.4-3.06-.46-1.4-1.05-3.02-1.42-4.88-.7-.24-.93-.61-1.87-.45-.38.7-.84,1.3-1.13,2.1-.09.23.09.43.11.51.23.84.06,2.57-.17,3.18-.39,1.01-1.06,1.69-1.42,2.67-.02.34-.04.68-.06,1.02-.19.42-.38.83-.57,1.25-.02.28-.04.57-.06.85-.32.57-.64,1.13-.96,1.7.04.26.08.53.11.79.03.62-.22,1-.28,1.48-.05.32.29,1.06.17,1.65-.16.77-.76,1.36-1.08,1.99-.17.34-.13,1.01-.17,1.19v.96c-.35,1.22-.83,3.33-.57,4.71.11.55.24,1.88,0,2.72-.41,1.43-2.21,1.86-2.61,3.18-.17.08-.32.12-.62.11-.21-.43-.36-.83-.57-1.19h-.4c-.06.64.52,2.21.96,2.44.38.18,1.75-1.97,2.21-2.33.88-.67,1.53-1.43,1.87-2.5-.04-1.53-.08-3.06-.11-4.6.45-1.47.16-3.38.74-4.77.34-.59.68-1.17,1.02-1.76.32-.71-.67-2.29.17-2.72-.03-.49-.46-.78-.28-1.3.38-.55.76-1.1,1.13-1.65v-1.08c.17-.3.34-.61.51-.91.06-.51.11-1.02.17-1.53l.68-.68c.29-.44.56-1.3.74-1.76.44-1.11-.21-2.6,0-3.69.21-.43.42-.87.62-1.3,1.34-.99,1.08.87,1.42,1.82.12.34.11.89.28,1.36.25.32.49.64.74.96-.06.47-.11.95-.17,1.42.05.17.4.66.28,1.08-.19.38-.38.76-.57,1.13,1.4,1.02,1.3,2.79.45,4.37.34.49.68.98,1.02,1.48.1.32-.08.44-.11.74-.08.84.41,1.25.74,1.7-.27.23-.49.29-.57.74.19.7.38,1.4.57,2.1-.04.23-.08.45-.11.68.25.34.49.68.74,1.02-.18,1.45-.37,4.69.4,6.07-.15.72-.94,1.19-1.3,1.82,0,.56.34,1.24.68,1.48.84.57,2.36.45,3.23.79.97.39,2.08,1.15,3.12,1.19.17-.23.34-.45.51-.68.17-.08.32-.12.62-.11.15.09.3.19.45.28.02.04.04.08.06.11-.24.26-.53.38-.74.68.22.4.38.87.74,1.13.6-.04,1.59-.47,1.82-.91.04-.08.08-.15.11-.23-.31-.27-.9-.97-1.42-.79-.11-.19-.23-.38-.34-.57-.26-.15-.53-.3-.79-.45-.13-.25-.26-.49-.4-.74-.3-.13-.61-.26-.91-.4-.57-.62-1.13-1.25-1.7-1.87-.43-.73-.77-4.03-.45-5.05.33-1.05,1.33-2.28,1.08-3.8-.35-2.16.24-4.99-.45-6.87-.21-.57.48-.77.28-1.36-.68-2.11-.69-5.22.11-7.32.23-.6,0-3.2-.11-3.69-.14-.56.33-1.3.45-1.7.29-.96-.22-2.01-.34-2.72-.15-1.7-.3-3.4-.45-5.11-.37-.93-1.63-4.37-1.48-5.39.85,0,.99.12,1.76.11.32.85.98,1.68,1.7,2.1.32.08.64.15.96.23.23.28.45.57.68.85-.09.25-.21.32-.4.45.13.95.5,1.59,1.08,2.21.57-.09.87-.33,1.59-.23.53.88,1.59,2.21,2.84,2.04.15-.21.3-.42.45-.62.53-.88-2.55-3.55-3.12-4.09-.76-.71-1.62-1.7-1.99-2.78-.25-.73-.2-1.42-.45-1.93-.65-1.28-1.66-2.5-2.1-3.86-.06-.72-.11-1.44-.17-2.16ZM60.58,79.57s.08.08.11.11h-.17s.04-.08.06-.11ZM50.54,63.79h.11v.17c-.06-.02-.11-.04-.17-.06.02-.04.04-.08.06-.11ZM64.66,139.88c.46.01.58.11.85.28v.23c-.34.06-.68.11-1.02.17-.04-.02-.08-.04-.11-.06-.07-.16-.11-.16-.06-.34.11-.09.23-.19.34-.28Z"/>
      <path class="cls-1" d="M24.89,64.08c-.19.21-.36.54-.57.74.03.47.16.57.28.91.73-.03,1.47-1.71.28-1.65Z"/>
      <path class="cls-1" d="M15.19,64.36c-.6.31-.99.32-1.36.91.4.3.79.61,1.19.91.68-.06,1-.51,1.3-1.08-.05-.57-.52-.76-1.13-.74ZM15.3,65.44c-.23-.04-.45-.08-.68-.11v-.23c.11-.06.23-.11.34-.17h.74s.04.08.06.11c-.15.13-.3.26-.45.4Z"/>
      <path class="cls-1" d="M29.2,64.82c-1.28.67-1.45.84-1.19,2.38.08.49-.12,1.29,0,1.82.06.06.11.11.17.17h.17c.56-.84.02-1.18.28-1.82.4-.68.79-1.36,1.19-2.04-.09-.11-.19-.23-.28-.34-.09-.1-.19-.12-.34-.17ZM28.58,66.23c-.1-.12-.1-.15-.11-.4.17-.17.34-.34.51-.51.06.02.11.04.17.06.03.4-.24.64-.57.85Z"/>
      <path class="cls-1" d="M26.08,65.89c0,.59.19.79.45,1.19h.23c.51-.42.61-1.17.96-1.76-.09-.11-.19-.23-.28-.34-.12-.12-.15-.11-.4-.11-.43.39-.67.47-.96,1.02ZM26.99,65.84s-.08.04-.11.06h-.17v-.17c.08-.09.15-.19.23-.28.19.21.12.11.06.4Z"/>
      <path class="cls-1" d="M70.9,65.33c-.19-.02-.38-.04-.57-.06l-.17.17c.11.45.42.94.91,1.02.06-.08.11-.15.17-.23.22-.29-.09-.73-.34-.91Z"/>
      <path class="cls-1" d="M11.73,65.44c-.3.15-.61.3-.91.45-.02.08-.04.15-.06.23.69.87,2.48.65,2.84-.4v-.06c-.44-.24-1.14-.25-1.87-.23ZM11.73,66.18c-.02-.06-.04-.11-.06-.17h.79c-.17.18-.36.19-.74.17Z"/>
      <path class="cls-1" d="M53.26,66.35c-.02.06-.04.11-.06.17.09.08.19.15.28.23.3.13.65-.08.79-.28.12-.11.06-.02.11-.23v-.06c-.25-.17-.36-.28-.79-.28-.11.15-.23.3-.34.45Z"/>
      <path class="cls-1" d="M44.63,66.23c.14.3.22.42.51.57h.28c.04-.06.08-.11.11-.17-.19-.26-.41-.51-.74-.62l-.17.23Z"/>
      <path class="cls-1" d="M8.72,66.63c-.11.11-.23.23-.34.34-.04.04-.08.08-.11.11.06.06.11.11.17.17.42-.02.58-.12.74-.4-.15-.18-.14-.2-.45-.23Z"/>
      <path class="cls-1" d="M22.51,67.03v-.06c-.15-.08-.3-.15-.45-.23l-.17.23c.15.11.3.23.45.34h.06c.04-.09.08-.19.11-.28Z"/>
      <path class="cls-1" d="M31.13,69.87c.05-.2.1-.75.23-1.08.15-.4.6-.55.74-1.02v-.06c-.08-.06-.15-.11-.23-.17-.88.08-1.34,1.61-1.3,2.55-.34.21-1.15.27-1.36.4-.66-.5-.67-.46-1.65-.4-.36-.55-.43-2.09-1.13-2.27-.11.34-.23.68-.34,1.02-.8.12-.88-1.37-1.19-1.93h-.34c-.21.2-.34.26-.4.62-.15.26.28.4.11.91-.07.21-.2.41-.23.74.25.26.49.53.74.79v.17c-.26.23-.53.45-.79.68.13.49.47.89.85,1.13.99-.57,1.35-.07,2.1.17.55.18.74-.58,1.42-.28.45.2.56.28,1.36.28.63,1.07,1.18.89,1.76,1.65.08.02.15.04.23.06,1.75-.99-.84-2.95-.57-3.97ZM31.58,72.59c-.04.06-.08.11-.11.17h-.45c-1.03-1.68-3.88-1.54-6.3-1.65.16-.84.67-1.11,0-1.99v-.57c.45.14.85.7,1.13,1.02h.23c.09-.15.19-.3.28-.45.06-.04.11-.08.17-.11.5.53.41,1.25,1.08,1.65,1.32-.13.61.09,1.48.34.57-.11,1.13-.23,1.7-.34.41.64.58,1.02.79,1.93Z"/>
      <path class="cls-1" d="M76.86,66.97c-.08.08-.15.15-.23.23.06.46.27.84.74.91.15-.17.3-.34.45-.51-.06-.09-.11-.19-.17-.28-.16-.25-.38-.34-.79-.34Z"/>
      <path class="cls-1" d="M68.92,67.26c-.08.08-.15.15-.23.23.15.96.07,2.37.74,3.06.08-.02.15-.04.23-.06.96-.54.28-2.24,0-3.01-.23-.16-.3-.23-.74-.23Z"/>
      <path class="cls-1" d="M29.54,68.28h.17c.09-.11.19-.23.28-.34-.15-.16-.16-.19-.45-.23-.06.11-.11.23-.17.34.06.08.11.15.17.23Z"/>
      <path class="cls-1" d="M65.4,69.24c-.08.09-.15.19-.23.28.18.35.34.83.68,1.02.08.04.15.08.23.11.34-.52.16-.77-.17-1.3-.17-.04-.34-.08-.51-.11Z"/>
      <path class="cls-1" d="M35.05,71.28c-.09-.15-.19-.3-.28-.45h-.23c-.46.29-.53.58-.68,1.19h-.17c-.37-.88.55-2.52-.57-2.55-.8.87-.44,1.8-.17,2.89.24.96-.6,1.89.4,2.38.49.36,2.49-.31,2.72-.62-.55-.86-1.77-1.47-1.02-2.84ZM33.74,74.01c-.25-.33-.31-.65-.28-1.3.39-.11.55-.1.74-.4.29.2.92,1.37,1.02,1.7h-1.48Z"/>
      <path class="cls-1" d="M25.63,70.21c-.06.08-.11.15-.17.23.15.19.29.28.57.34.08-.09.15-.19.23-.28.04-.02.08-.04.11-.06-.18-.21-.31-.24-.74-.23Z"/>
      <path class="cls-1" d="M63.87,70.55v.11c-.74.25,0,1.08.11,1.48.19.72-.35,1,.28,1.42.95-.69.57-2.65-.4-3.01Z"/>
      <path class="cls-1" d="M67.9,71.68c.09-.11.08-.08.11-.28-.15-.13-.3-.26-.45-.4-.08.15-.15.3-.23.45v.23l.17.17.11.11c.09-.09.19-.19.28-.28Z"/>
      <path class="cls-1" d="M37.37,73.1s.08-.08.11-.11c-.09-.08-.19-.15-.28-.23-.06.08-.11.15-.17.23l-.11.11c.25.17.25.28.45,0Z"/>
      <path class="cls-1" d="M67.27,73.38c-.25.23-.39.3-.57.62.11.48.38,1,.79,1.19.08.04.15.08.23.11.25-.32.52-.52.74-.91-.11-.28-.23-.57-.34-.85-.29-.09-.43-.17-.85-.17ZM67.67,74.4h-.23v-.11c-.15-.15-.15-.12-.11-.34h.45c.04.09.08.19.11.28-.08.06-.15.11-.23.17Z"/>
      <path class="cls-1" d="M60.41,75.03l.11.11c.18-.24.36-.38.45-.74-.04-.09-.08-.19-.11-.28-.17-.04-.34-.08-.51-.11-.13.17-.26.34-.4.51v.17c.18.16.18.26.45.34Z"/>
      <path class="cls-1" d="M27.33,76.05c-.45.19-3.37,1.57-1.99,2.44.04.04.08.08.11.11.38-.36.76-.72,1.13-1.08h1.02c.38-.14.88-.85.57-1.19-.21-.23-.39-.29-.85-.28ZM26.08,77.41s-.08-.08-.11-.11c.48-.51.88-.45,1.65-.74.04.02.08.04.11.06-.3.37-1.21.59-1.65.79Z"/>
      <path class="cls-1" d="M63.53,77.53c.13.14.09.13.34.17.04-.06.08-.11.11-.17-.09-.08-.19-.15-.28-.23-.06.08-.11.15-.17.23Z"/>
      <path class="cls-1" d="M31.47,77.58c-.42.35-.81.54-1.19.91v.17c.19.17.38.34.57.51.7-.02,1.06-.43,1.36-.85-.04-.51-.34-.6-.74-.74ZM31.36,78.49h-.34c.06-.11.11-.23.17-.34h.34s.04.04.06.06c-.08.09-.15.19-.23.28Z"/>
      <path class="cls-1" d="M26.88,78.49v.62c.25.19.4.28.57-.11.15-.17.18-.39.17-.74v-.06c-.15-.06-.3-.11-.45-.17-.09.15-.19.3-.28.45Z"/>
      <path class="cls-1" d="M36.24,79.68c-.03-.68-.45-.96-1.02-1.08-.24.14-.47.17-.62.4-.32.37-.19,1.28-.4,1.76.28.26.57.53.85.79.17-.08.34-.15.51-.23.23-.55.45-1.1.68-1.65ZM35.05,80.31c-.04-.08-.08-.15-.11-.23.02-.3.04-.61.06-.91h.51c.06.08.11.15.17.23-.04.44-.19.49-.28.85-.11.02-.23.04-.34.06Z"/>
      <path class="cls-1" d="M41.34,79.68c.06.04.11.08.17.11.37-.02.54-.14.62-.45.04-.02.08-.04.11-.06-.09-.08-.19-.15-.28-.23-.23.23-.5.27-.62.62Z"/>
      <path class="cls-1" d="M22.51,79.96c-.14.17-.21.19-.28.45.04.04.08.08.11.11.23-.04.17,0,.28-.11.23-.07.22-.08.34-.23-.15-.18-.14-.2-.45-.23Z"/>
      <path class="cls-1" d="M44.35,87.06c-.13-.25-.22-.21-.4-.28l-.23.23c-.17.55-.34,1.1-.51,1.65.13.21.26.42.4.62.23-.03.22-.02.34-.11.53-.28.89-1.56.4-2.1Z"/>
      <path class="cls-1" d="M58.48,90.58c.09-.06.19-.11.28-.17v-.06c-.16-.23-.34-.4-.62-.51-.06.08-.11.15-.17.23.1.21.11.3.34.4.1.11,0,.04.17.11Z"/>
      <path class="cls-1" d="M43.16,90.97v-.06c-.15-.06-.3-.11-.45-.17-1.2.81-.83,1.17-.74,2.72.09.04.19.08.28.11.41-.63.83-1.69.91-2.61Z"/>
      <path class="cls-1" d="M42.02,94.38h-.34c-.46.57-1.11.95-1.36,1.76-.13.41.72,4.65.96,4.82l.11.11c.32-.46,1.25-5.87.85-6.41-.08-.09-.15-.19-.23-.28ZM41.4,97.16s-.08.04-.11.06c-.63-.74-.2-1.58.23-2.1h.23c.16.69-.32,1.22-.34,2.04Z"/>
      <path class="cls-1" d="M41.51,141.64v.06c.06.04.11.08.17.11.08-.08.15-.15.23-.23v-.06c-.09-.04-.19-.08-.28-.11-.04.08-.08.15-.11.23Z"/>
    </g>
  </g>
</svg>