<svg id="Layer_1" data-name="Layer 1" xmlns="http://www.w3.org/2000/svg" viewBox="0 0 1000 1000"><defs><style>.cls-1{fill-rule:evenodd;}</style></defs><path class="cls-1" d="M976.68,153.05l-9.6-2.32q-.23-4.08-.47-8.16A76.52,76.52,0,0,0,963.3,124l-.21-.12-14.5,10.47c0-9.76,3.49-17.77,7.24-25.64l-.05-.16c-11.32-2.89-19.64-9.82-29.1-16.25L913.6,84.75c-5.13-3.35-12.25-7-18.69-7.5l0-.16q5.86-9.23,11.74-18.43l-.21-.66c-2.95-.2-6.68-.7-9.84.3l-5.4,2.28-7.46,8.2C878.63,74.54,873.49,80.05,869,86l-15.1,17L838,123.64c-7.3,9-15,17-21.86,26.22-7.51,10.09-13.83,21.28-20.83,31.66L766,224.41l-16.54,25.94-14,18.08-16,23.61-6.92,8.2L702.28,320l-13.57,16.12L675.2,351.32,662,368.43,644.56,386.7c-1.73,1.92-3.51,3.75-5.3,5.5l.85-.81.33-.11-8,8.19-.32-.44,4.24-4c-1.62,1.52-3.24,3-4.84,4.43l.48.38-4.66,4.58c-.69.16-.29.25-.92-.06l4.87-4.68c-2.6,2.35-5.13,4.64-7.52,7a16.3,16.3,0,0,0,2-1.93l.53.55L622,409.16a2.78,2.78,0,0,1,.75-1.55c-10.2,10.24-17.26,21.51-13.55,41.82-5.13,3.68-10,9.41-13.88,14.06-2.15,2.59-5,4.25-6.8,6.89-1.37,1.95-1.28,6.52,1.5,8.55q-5.71,12-11.42,23.92c-2.27,3.27-5.08,5.85-7.74,9s-4.84,6.76-7.27,9.93a24.51,24.51,0,0,1-3.13,3.36l.39-.12.7.49L559.47,528l-.44.32-.91-.61,2-2.22c-4,3.55-7.11,5.37-4.2,13.78,2.06,1.46,5.78,3.65,8.34,4,5.92.22,16.15-8.62,18.79-11.14,7.83-7.44,15.11-14.74,21.3-23,3.89-5.18,7.18-11.66,11.94-16.14.81,6.41,6,10.39,9.28,13.07,4.33,3.5,9.52,5.3,14.06,8.28,8.3,5.44,15.83,10.77,27.52,9.7,6-.54,10.6-2.29,16.28-2.73,8.6-.66,20.18.62,16.25-12.3l.17-.05c6.88,8.5,22.57,4.34,26.57-5.53,1-2.44-1.07-6.19-.95-9.08l3.6-13.45L739,458.59a423.29,423.29,0,0,0,15.68-51.5,277.58,277.58,0,0,0,5.42-34.62c.52-5.24.2-10.57,1.29-15.34a8.84,8.84,0,0,1-.57,1.37l.11.33-.16.05c0-2.51,1-4.34,1.47-6.61.26.27.15,1.23-.1,2.33a14.4,14.4,0,0,1,.58-1.41c2.49-5.25,6.94-9.57,10.78-14.14,8.86-10.55,18.11-20.77,28.16-30.78,21.41-21.32,45.58-41.6,69.69-61.55,14.88-12.31,30.35-23.29,44.78-35.79l45.59-41.12,20.66-18.24.17-.59Zm-9.17-1.56,8.68,1.71,0,.17-11.51,11.31,1.56-4.12C967,157.57,966.28,154.18,967.51,151.49ZM690.44,511.85l-.05-.17c0-2.15-.07-4.31-.11-6.47l7.1,2.41-1.56,4.11Zm5,.53c.23,1.25.45,2.51.67,3.76l-5.28,1-.32.11-.12-4.84-.11-.33ZM584.61,525.3q-3.35,2.79-6.68,5.59l-3.83-4,6.35-4.95.06-.38-.22-.11-6.18,4.89-1.69-5.77,4.6-4.2c1.31.94,2.05,3.18,3.56,3.73-1-1.43-2-2.85-3-4.27l3.73-3.55,4.58,4.11-4.16,3.88,0,.16,4.27-3.54,3.61,3.89-4.44,4.14-3.77-3.84-.71,0Zm-17.17-1.14c0,1-.05,2.07-.08,3.1l-.65.21C567,526.37,567.2,525.27,567.44,524.16Zm-1.67-1.81c.32.62.64,1.24,1,1.86l-.17,0Zm.72-1.13c.51.27,1,1.47,1.23,2.13l-.55.54A4.85,4.85,0,0,1,566.49,521.22Zm-.43,5.92.1.33c-.51-.53.14-1.83.35-2.83Zm.31,1,.49-.16-2.69,3.95C564.9,530.64,565.64,529.38,566.37,528.12Zm-2.85,3.45,2-3.73C565.94,528.43,564.2,531,563.52,531.57Zm2.34-7.26-.16.06a1.16,1.16,0,0,1-.8-1.37l.16,0,.43.22Zm0,.71-.45,2-.16,0-.49-.38-.43-.22c.31-.52.62-1,.94-1.57Zm-1.8.58-.22.43-1.35-.82,1.37-1.35c.56.15.49.26.92.61Zm.75,1.75.1.32-1.65,2.71-.22.43-1-.77,1.6-2.87Zm-2.16,3.95L560.19,533l-.17,0-.21-.65,1.71-2Zm.16.49c0,.69-1.53,1.39-2.62,1.93Zm-1.92,1.88c.16.26.1.27-.66.76Zm3.22-1.22a6,6,0,0,1,2.87,1.6l-4.33,3.39-1.82-2.3ZM567,534.6c1.26.09,1.93,1.72,2.81,2.52l0,.16-4.21,2.63-2.48-2.09ZM564.93,532c.86-1.42,1.72-2.85,2.59-4.27l4.51-.56,1,.23-5.6,6.15Zm2.81-4.7c.14-1.25.28-2.5.41-3.75q1.85-1.3,3.67-2.63c.54,1.87,1.09,3.74,1.63,5.61Zm.58-4.34-.16,0c-1.57-3.33-.1-3.44,1.41-5.7l2,3Zm1.69-6,3.4-4c1.15.11,2.75,2,3.34,3.07l-4.49,4Zm25.3-45.21,2.22.73.27.27c-1.16,1.46-2.31,2.92-3.47,4.37l-2-.61Zm-3.68,4.26c-.22.44-.45.87-.67,1.3-.36-.36-.71-.73-1.07-1.1l2.62-1.93.33-.1Zm12.43-16.84,2.87,1.06L602,466.92l-2.23-.73-.26-.27C601.05,463.68,602.56,461.45,604.06,459.22Zm-2.14,2.32c.09-.28.19-.55.28-.82l.33-.1Zm119.23,20.15c-.45,2.13-.91,4.26-1.36,6.4l-5.75-1c.24-1.47.49-2.93.74-4.4l-.16.06c-.38,1.26-.75,2.53-1.12,3.79-.12.51-4.6-.92-5.59-1.08.32-2,.65-3.95,1-5.92l3.2.41a6,6,0,0,0-3.15-.79c.42-1.7.83-3.4,1.25-5.1l6,1.31c-.33,1.61-.65,3.22-1,4.83l0,.16.17-.05,1.29-4.94,6.25.33-1.41,5.15c-1.35,1-5.09-.07-7-.28C715.92,481.56,719.38,481.75,721.15,481.69Zm-24,.54,3.84,1.83c-.53,2.46-1.05,4.92-1.58,7.38C694.3,489.73,696.33,486.69,697.12,482.23Zm-1.79,6.18-.28.27c-.65-2.94,1.05-5.2,1.05-7.93C697.6,482.7,695.41,486.4,695.33,488.41Zm-35.25-33.58c-.6-.95-1.21-1.89-1.82-2.84l5.58-4a4.09,4.09,0,0,1,2.32,1.59l.06.17Zm5.42-3.92-4.06,4.2-.44.33-.48-.39,4.65-4Zm-68,34.28-.33.11,2.16-3.95,4.05,3,0,.16-2.25,2.53ZM602,492l-.28.27L595,491c-.37-1.41,1.3-3.94,1.84-5.47l3.35,1.44C601.42,488,601.42,489.89,602,492Zm-3.36-19.33,3.3-4.86,4.25,4.77-3.51,3.66Zm6.72,7.94-1.49,2.65-.22.44-3.4-2.7-.43-.22,2.64-3.56Zm-3.28-4-2.91,3.83-4.22-3,3-4.22C599.36,473.44,601.14,475.64,602.11,476.65Zm-.53,10.64c.7-.82,1.39-1.65,2.09-2.48l3.5,3,.06.17-4.66,4Zm2.64-3,1.66-3.25h4.51q-1.5,3.18-3,6.38Zm5.85-3.7c-4.56-.18-4.19-.13-7-3.71l3.18-3.56c1.51.77,3.18,5.44,4,7.21Zm-3.14-8,5.55-6.85,5.54,6.51-7.25,8.31Zm6.15-7.23,5.94-7.88,6.64,6-7.2,8.47Zm16.25-48.06.49.38L626,422.51Zm-1,.7c.17-.42.34-.83.5-1.25l.33-.11C628.85,417.07,628.57,417.52,628.29,418Zm4.4-4.86.7,0,.27.27-3.29,3.78-.65-.34Zm-3,3c.46-2.36,3.13-4,4.19-6.05v.54Zm73,61.47a11.74,11.74,0,0,1,5.42,1.68l.33-.1c-.31,1.84-.61,3.69-.92,5.53l-.38.49-5.32-1.35Zm-1-1.31c-4.15-1.37-2.4-2.8-2.71-6.71a11.6,11.6,0,0,1,4.32,2.21l-.75,4.94A1.86,1.86,0,0,1,701.69,476.24Zm1.78,1.05c-1.17-1.17.32-3.44.27-5.33l5.85,1.91c-.31,1.66-.61,3.32-.92,5Zm1.08-5.59c-1-1-.15-4.07.11-5.81l6.07,2c-.29,1.72-.57,3.43-.86,5.15l-.28.27Zm-65.87,18.59-9.16,2.42q-.24-5.79-.49-11.58l9.19-.62.22.11Zm.43.22q2.16-2,4.33-3.92c1.19,2.32-1.19,6-2.84,7.42l-.33.64C639.88,493.27,639.49,491.89,639.11,490.51Zm-.22.44c.29,1.47.59,2.94.88,4.41L634,498.29l-4.36-5.09,9-2.36Zm-9.53-10.47-.33.11,7.59-9,1.82,8.44Zm3.58-5.13q-.83-2.27-1.64-4.53l5.15-5.28.67,4.85Q635,472.87,632.94,475.35Zm-8.46-50.19a6.21,6.21,0,0,1,2.7,1.66l-2.71,5-1.21,2.38-2.76-1.82ZM621.17,430c.36-1.32.72-2.64,1.07-4C623,427.11,621.82,429.2,621.17,430ZM889.94,176.94l-22.45,30-.22.43-6-7.28,20.33-30.42,8.26,7.09Zm.27.27.16-.05,10,5.25-28.17,32.41L867.65,208Zm-29.29,23.38,6,7.45Q854,224.23,841.1,240.42l-.22.43-4.77-7.49Zm-25.24,32.55L829,225.2l23.28-33c1.49.18,7,6.5,8.36,8Q848.14,216.65,835.68,233.14Zm25.25-33.64-8-7.89,18.91-30.32,9,7.74.43.22Q871.13,184.39,860.93,199.5Zm-8.51-8.44-7.86-8.66,17.11-28.65,9.88,7.1Q862,176,852.42,191.06Zm-7.85-9.75q.2-6.1.38-12.22l10.19-20.46,5.77,4.46.44.22Q853,167.3,844.57,181.31Zm-.16-12.23L835.27,176l12.65-28.47,6.57.76.27.28Zm-.33.65s.33,11.34-.06,12.66L821.3,212.68q6.71-17.79,13.42-35.59Zm0,13.37c1.4.46,7,6.85,8,8.44l-23.61,33.11-7.9-9.91Zm-16,42.2L806,257l-.44.33-8.1-6.6q11.34-17.74,22.66-35.5C821.92,216.26,827,223.14,828.09,225.3Zm-22.74,32.46L790.2,280.18l-.17.05-7.39-6.1-.43-.22,14.88-22.69,7.82,6.32Zm-8.14-7.85-.33.65-10.44-6,19.77-33.84c1.95.2,12.55,3.26,13.54,4.47Zm-.61.92-14.71,22.64-.33.11-10.83-3.91c-.24-.5,3.5-5.75,4-6.54L786.06,245Zm-15.42,23.23-10.65,17.35-.33.11-5.68-2.5-.7-.49q3.23-9.27,6.47-18.53Zm-77.3,170.4c.16,2,.32,4,.49,6l-4-.15c-.09-1.59-.18-3.19-.28-4.78Zm-7.24-5.61,6.16-2.17,1.08,7.24-4,1.11Q698.28,441.94,696.64,438.85Zm7.5,12,.39,5.11.11.33-3.58-1c-.94-.57-.7-3.26-.94-4.58Zm1.09,6.15,6.29,1.58c0,1.34-.1,2.68-.14,4l-5.8-1.74C705,460.43,705.08,458,705.23,457Zm.44-.32c-1-1.19-.69-4-.77-5.71l6.85.49c.87.57-.18,5.14,0,6.69Zm-.55-6.15c-1-1.53-.54-4.17-.7-6.09l7.89-.75c.85.57-.2,5.78-.18,7.29Zm-.37-6.74-.33.11q-.55-3.71-1.13-7.41l9.64-1.49.05.17c-.08,2.55-.15,5.11-.23,7.66Zm-1.29-7.89-.32.1c-.41-3.3-.81-6.6-1.22-9.9.65-1.08,7.73-2,9.64-2.58q.65,5.31,1.27,10.61l.1.33ZM624.33,442c.32-1.49,2-2.47,2.75-3.78,1.27.51,3.26,3.14,4,4.49l-6.2,6Q624.61,445.36,624.33,442Zm-.43-.77-2.76-1.82,2.22-4.32,3.61,2.8ZM652,424.76l6.11-7.94c1.1.55,4.27,9,5,10.86l-6.42,5.87Zm4.33,8.89-5.11,6-4.62-6.45,4.8-8.06Zm-4.48-9.93-.22.43-5.86-7.49,7.69-9.17,4.71,8.41Q655,419.82,651.83,423.72Zm-.49.7-5.13,8.16-5.06-6.13,4.32-9Q648.41,421,651.34,424.42Zm-10.67,1.65-3.94-3.25,2.21-4.32,6-1.42Zm-.22.43L636,433.91l-3.67-3.52q2-3.54,4-7.08Zm-4.86,7.89-4.2,7.68-3.93-4.33q2.16-3.4,4.3-6.81Zm-4.42,8.66c2.32.76,5,5.36,6.67,7.23-1.88,2-3.77,4-5.65,6l-7-7Zm.54-.54L636,435c1.81,1.88,3.62,3.77,5.44,5.65q-1.65,4.41-3.29,8.83l-.06.38Q634.9,446.17,631.71,442.51Zm4.81-8.06,4.14-7.3c1.65.58,4.13,4.38,5.16,5.92l-3.64,6.06-.44.86Zm9.68-.78,4.45,6.51-3.58,5.67-4.58-4.66C641.68,439,645.37,435.71,646.2,433.67Zm4.66,7.16c1.46.63,2.73,3.89,3.7,5.31l-3.45,3.28-3.29-2.91-.32-.43Zm.36,8.92,3.56-3,2.77,5.25-5.62,2.72C651.69,453.09,651.45,451.42,651.22,449.75Zm.24-9.29,5-6.32c1.31,2.59,2.63,5.17,3.95,7.76L654.89,446Zm5.65-6c-.18-2,4.68-5.06,6.09-6.31l4,10.64L661,441.52Zm1.8-18.47,8-10.36,5.19,15.48-8.7,6.07Zm-.21-.65-.16.05q-2.25-4.14-4.49-8.3l8.36-11,4.48,8.84Zm4.2-20q5.22-6.48,10.45-12.95l5.47,8-11.65,14.24Zm19.9-30.64.65-.21,2.92,2.31,0,.16-13,14.67-2.84-4.32Zm-12.45,12.33-1.72-2.51q5.76-6.21,11.53-12.4l2.59,1.87Zm77.15-75.34,1.35.83q-3.35,6.14-6.68,12.28l-.33.1-1-.23-3.3-1.82,7.29-12.11Zm-2.11-1.49q4.86-7.06,9.7-14.15c3.09,3.72-3.78,13.58-5.85,15.44l-.33.65Zm-3.88,15.35-4.7,8.38-1.44,2.82-3.3-1.28-.92-.61,6.08-11.36ZM723,357.73l5.21,1.57-5.64,22.23c-.34.35-6.62.26-7,.1Zm-8.2,23.78c-.64,1-8,1.48-9.86,1.93l0-.17q5.67-13.47,11.33-27l6,1.14C722.37,359,716,379.48,714.77,381.51ZM717,355.88l-.49-.38,7.82-17.16,4.82,1.51q-3.2,8.52-6.4,17.06ZM724.89,338l-.27-.27,6.2-12.12,4.28,1.5-4.94,11C728.68,340.13,727.34,338.28,724.89,338Zm5.83-13.26-5.26-1.19-.27-.27q3.16-5.82,6.35-11.63l4.77,1.34C737,314.1,731.56,322.58,730.72,324.7Zm-.77.43.27.27-6,12.07-6-1.31-.27-.27q3.39-6,6.79-11.95Zm-6.53,12.76.33.44q-3.84,8.55-7.66,17.11l-8.28-3.28-.33.1,10-15.89Zm-8.15,17.81.49.39q-5.67,13.47-11.33,27l-.28.27-9.79-10.74q6.35-10,12.68-20Zm-21.56,16.55L687.13,367l-.06-.16,10.26-16.32,9.06,1.76.27.28Zm-.29-16.53-6.78,10.87-3-2.48,11.85-12C695.84,352.18,693.71,355.25,693.42,355.72ZM673.73,382l12.85-14.45c1.86.38,5.24,3.43,6.48,4.95l.43.22L679,390Zm19.92-8.79c2.24.73,8.38,8.43,10.28,10.58q-9.34,9.9-18.71,19.78l-5.86-13.09Zm-8.16,31.18,18.22-19.62L701,409.82l-12,6.57Q687.25,410.38,685.49,404.35Zm3.85,12.48,11.31-6.36c1.58,2.5,0,11.29.68,14.95l-8.4,3.62Q691.13,422.94,689.34,416.83Zm12.48,8.43L701.58,410l9.49-3.61c.84.64.21,13.84.61,16.42Zm-.35-15.6,3.06-25.74,10-1.43Q713,394,711.35,405.56Zm11.33-8.54,2.45-18.68,7.12-.31q-1.43,10.94-2.86,21.87l-7.24,1.62C711.84,404.33,712.6,402.52,712.8,401.12Zm7.2,3.27,6.75-1.46-1.86,13.79-4.27,3-.16,0Q720.22,412.09,720,404.39Zm.17-.6,2.64-21.44,8.59-.79-4.53,20.61C726.67,402.92,721.47,403.5,720.17,403.79Zm3-22.09q2.82-11.11,5.63-22.23l7.71,1.48.27.27-5.07,19.52C731.29,381.4,724.79,381.36,723.14,381.7Zm.38-24.51c-.55-.59,1-3.36,1.46-4.44q2.35-6.37,4.73-12.73l5,2.16-6.12,16.25C727.52,358.73,724.68,357.84,723.52,357.19Zm6.63-17.5-.11-.32,5.6-11.75L740,330l-5,11.21C734.86,341.75,731,339.9,730.15,339.69Zm8-11.61L736,327l6-11c1.54.2,3.4,1.58,4.6,2.49l-5.19,9.09-1,1.94Zm4.46-12.46-.1-.33,6.58-12.6.16-.05,4.82,2.59-6.35,11.09-.89,1.73Zm6.92-13.25q3.6-5.87,7.22-11.73l5.23-1.15.82-.27-7.9,14.12-.67,1.3Zm7.17-11.9-.93-5.11,13.55-14.5-6,17.66Zm-1.42-5.5-5.52-2-.27-.27,11.73-17.34a17.09,17.09,0,0,1,7,3.7l1.51.78Zm-1.09,0,.92.61-10,14.26a10.22,10.22,0,0,1-5.15-1.41l-.33.11,9.54-15.19Zm-10,15.51.32-.11-7.23,12.28-4.93-1.3-.49-.38,7.29-12.11ZM731.33,311l-7.49-1.37,7.34-11.94,7.54,1Zm-.44.33.27.27q-3.2,5.73-6.41,11.46l-7.1-1.85-.27-.28,6.08-10.81Zm-7.12,12.05.49.39-6.91,12.16-7.15-2-.27-.27,6.9-12.17Zm-6.69,12.82-9.92,15.67-8.95-2-.38-.06,11.44-15.44C712,334.05,714.4,336,717.08,336.15Zm-19.8,13.63-5.47-2.39-.38-.06,11.33-14.13,6.19.7Zm-6.11-2.72-2.11-2,8.51-9.43,2.95-1.5,1.15-.37Zm4.38,2.38,1.35.82-13.55,13.42-2.64-2L690.94,348C692.76,347.94,693.88,349.21,695.55,349.44Zm-14.94,11.33-.22.43-1.51-1.31,9.43-9.38Zm-.72,1.14-11.47,12-.38-.06-.85-1.52q5.56-6,11.14-11.92A2.61,2.61,0,0,1,679.89,361.91Zm-9.76,15.62q-5.42,5.89-10.81,11.8l-1.88-3L668,375Zm-.06.38c1.12.47,2.51,3,3.17,4.21q-5.12,6.25-10.22,12.52l-.44.32q-1.53-2.49-3.05-5Zm-7.82,17.7-8.47,10.68-.16.06-3.81-5.64,9.28-10.4Zm-9,11.38-7.81,9.39-3.75-6,7.69-9.17Zm-8.24,9.71-5.89,1.36-1.82-2.84,3.84-4.31Zm-6.38,1.52-1.76,2.92-.67,1.3-2.8-2.53,3.35-4.15ZM636.08,423l-4.25,7L628,426.55l4.84-6.26Zm-4.64,7.46-3.8,6.1-.45.87-3.45-2.86,3.82-7.19C628.87,427.7,630.49,429.53,631.44,430.5ZM623,434.66c-.57,1.9-2.07,5.51-4,3.28l-1.08-.56,2.16-4.49Zm.65,7,.75,6.8-6.11-3.81,2.44-4.76Zm8.07,14.91-5.66,6.52-6.52-6.2,5.07-7.24Zm.16.49,4.55,7.92-5.38,5.17q-2.26-3.42-4.55-6.84Zm5.36,8.2c.52-1,2.53-1.44,3.44-2.2.72.27,0,3.94,0,5.06l-3,1.87-.17.05C637.46,468.47,637.37,466.87,637.27,465.28Zm-.37-.6-4.44-8.14,5.43-5.55,3.21,11.61Zm1.7-13.74,6.7,3.43c1,.62.31,6.13.53,7.78l-4.24.29Q640.09,456.7,638.6,450.94Zm.11-.76q1.51-4.55,3-9.1l5,4.88q-.56,3.89-1.1,7.76A22.74,22.74,0,0,1,638.71,450.18Zm8.62-3.51c3.36,2.2,3.12,3.8,4.06,8.08l-5-.53C645.85,452,647.33,449.17,647.33,446.67Zm4.7,9c.69-1.42,3.85-2,5.14-3.11l.65-.21,1.66,2.9-6.73,4.88Zm3.24-9,5.25-4.4,3.38,5.41-6,3.91Zm6-4.45-.05-.17,5.78-2.77c1.51.45,3,4.18,4,5.58l-6.66,2.33C663.27,445.49,662.25,443.84,661.23,442.18Zm6.55-3.2,6.48-1.2c1,1.9,2.07,3.79,3.1,5.68l0,.17-6,1Zm.06-.38-4.2-10.75,8.48-6.17q.95,7.63,1.88,15.29C673.28,438.17,669.45,438.18,667.84,438.6Zm5.1-16.64,7.81,6.86c-.15,3.24-.31,6.48-.46,9.72l-5.38-1C673.27,434.59,673.35,425.78,672.94,422Zm8.29,7.79,6.79,6.47c-.21,1.76-.43,3.51-.64,5.27l-.27.27-6.17-2.88Q681.09,434.3,681.23,429.75Zm.28-.81,7.17-11.35,3.92,11.55-4.41,6.49Zm-.2-1.2-.33.65-8-7.52q6-8.07,11.94-16.14l3.81,11.77Zm-8.69-7.31-5.13-15.32Q673.15,398,678.81,391c1.71,1.42,5,10.2,6,12.88Q678.71,412.15,672.62,420.43Zm28.7,5.53c.41,3.3.81,6.6,1.22,9.9-.65,1.26-4.5,2.07-6.22,2.56q-1.62-4.46-3.23-8.89Zm-4.48,14.64c2.78,2.88,2.46,6,2.86,9.37l-.93-.06C697.42,448.84,696.87,442.79,696.84,440.6Zm.68,9.35.11.33-3-6.61c.46-1.17.93-2.34,1.39-3.52C696.65,441,697.8,448.88,697.52,450Zm.81.28.76.12c1,1.14.83,3.27,1,4.9l-1.52-.23C698.52,453.42,698.43,451.82,698.33,450.23Zm2.4,5.73,4,1.07c0,1.19,0,2.39.07,3.58l-3.46-1.77Zm10.21,7c.56,1.18-.08,2.8-.09,4.19l-.28.27-5.47-1.85c-.6-1.2.06-2.56,0-4Zm.17,5,6.35,1.2.37.6c-.45,1.59-.9,3.19-1.34,4.78l-5.7-.87C709.85,472.51,711.1,469.68,711.11,468Zm.44-.32c-.51-1.21.25-2.89.2-4.4l7.33.88,0,.17-1,4.28C716.3,469.12,713.68,467.68,711.55,467.63Zm.75-4.94c-.68-.5-.2-2.77-.18-3.91l8.09.45c-.28,1.54-.57,3.08-.86,4.61Zm.2-4.4c-.79-1.75,0-4.8,0-6.85l8.86.57c-.29,2.26-.59,4.53-.88,6.79Zm.23-7.12-.22-.11c.22-2.48.45-5,.67-7.44l9.51-.18c-.4,2.66-.81,5.32-1.21,8Zm10.56-7.56,8.86,0-1.38,7.49-8.7.46C722.48,448.93,722.88,446.27,723.29,443.61Zm-9.94-.58.12-8,10.73-2c-.39,3.25-.79,6.51-1.18,9.77Zm.13-8.53c-.48-3.7-1-7.41-1.43-11.1l7.8-2.71,4.35,11.78Zm6.38-14.35-6.77,2.55-1,.32q-.11-8.46-.23-16.91l7.58-1.73Q719.66,412.27,719.86,420.15Zm5-3,4.54,2.32-4.56,12.13-.28.27-4.08-11.5Zm.44-.33q1-6.91,2-13.84l7-1.35.06.17q-2.31,8.5-4.61,17l-.17.05Zm2.9-14.48-.71,0q2.35-10.33,4.7-20.67l7.83-.36-5.28,19.41C734.33,401.7,729.38,401.8,728.17,402.29Zm4.16-21.21q2.48-9.93,5-19.85l7.86,2-4.83,17.46Zm4.37-20.56L729.16,359l0-.16q3-8.2,6.07-16.42l6.44,2.62q-2.21,7.39-4.43,14.79Zm-.06-18c-1.86-1.43,2.91-9.36,3.86-12.09l5.36,3.15.1.33-3.9,10.83-.16.06Zm5.06-12.29c-1.3-.68,4.28-9.38,5.38-11.31l4.64,3.19-2.33,5.09-3.26,6.11Zm5.54-11.91,7.08-12.76c1.38.27,3.7,2.1,4.64,3.19.52.37-5.17,11-6.69,12.28l-.33.65Zm7.62-13.3,8.63-15.79,6.71,2.88-10.42,16.38Zm15.5-12.42,7.23,5.61c.25,1.18-8.79,14.69-10.37,16.54l-7-5.88Zm.44-.86,10.86-17.24c1.69.36,6.79,5,8.21,6.38L778.3,298.11Zm19.34-10.59q3.17,3.4,6.35,6.8l-12,17.61-5.86-7Zm.38-.49,15.15-22.41,6.4,7-15.36,22.3Zm15.53-22.9,22.36-32,7,7.67-22.84,31-.22.44Zm29.57-23.65,4.72,6.78c.07,2.46-4.26,6.14-5.73,8L816.47,272l-3.8-6.72Zm5,7.76,3.09,6.23-25,29.94c-.65-1.84-1.31-3.67-2-5.51Zm.49-.7,25.79-32.54c1.49.27,4.13,5.17,4.88,6.73l-27.68,32.25C843.14,245.42,842.15,243.27,841.15,241.12Zm3.15,6.93L872,215.8c1.1,2.11,2.21,4.22,3.31,6.34q-14.67,15.48-29.36,31Zm28.17-33q13.88-16,27.74-32.09c.87.53,2.18,9.18,2.51,11.11l-27.15,27.75Zm28.4-32.84,27.92-22.58.49-.16q0,4.89-.08,9.78l-25.93,24.28-.17,0Q902,187.95,900.87,182.26Zm.61-.92-.06-.17q8.73-14.91,17.45-29.84L932,145.47l1.31-.43-3.87,13.72Zm-.33-.44L900.6,182l-9.9-4.93c.2-2.41,3-5.38,4.3-7.35l12.92-21.51,10.24,3.19Zm-10.93-4.77.1.32-8.14-7.3q7.91-13.85,15.8-27.68l9.23,6.22.44.22Zm-8.13-8.39-.56,1.08-9.27-8,15.45-26.49c2.1.36,8,5.23,9.78,6.77Zm-9.49-8.68-.78,1.52-9.33-7.1c-.88-.94,2.36-4.92,3-6.22L877,127.31c2.18.33,8.56,5,10.43,6.56Zm-11.09-6.35-6-4.56q6.48-12.39,12.94-24.78l7.8,3.44.33-.1Q869,139.7,861.51,152.71Zm-.52-31.8-.27-.27,11.67-22.56,8.36,1.27q-6.29,11.6-12.55,23.2Zm6.66,2.18.33-.1-10,18.93c-2.47,7.29-3.14,5.24-9.72,5.13q6-12.88,12.08-25.76ZM849,144.29l-1.33,2.59-8.36-1.27-.05-.16q6.27-12.42,12.56-24.84l8.09.46Q854.49,132.68,849,144.29Zm-1.77,2.91q-6,13.86-12,27.72c-2,2.78-6.8.32-10.38.29l-.27-.27,14.28-29Zm-13.15,29.73-13.65,36.56c-.83,1-11.78-2.11-13.72-3.33l-.32.1,18-34.73Zm-26,28.62c-2.54,7.37-5.56,2.65-11.59,2.13L815,174.25l8.85,1.12Q816,190.46,808.15,205.55Zm-2.59,4.82q-9.78,17-19.55,33.95l-9.26-3.51L796.12,208ZM785.41,244.7l.33-.11q-7.75,12.07-15.49,24.16c-.72.65-4.81-1.5-5.69-2.5l-3-1.55,14.83-23.4Zm-24.26,19.94-7.71-.94-.27-.27,14.4-23.08,8.36.73Zm-.27.27-11.79,17.72-7.17-.93-.27-.28,11.19-17.34Zm-12.23,18,.05.16q-4.71,7.49-9.43,15l-7.49-.83-.27-.27,9.81-14.92Zm-8-.84-9.48,14.81h-5.6l-.27-.27q4.69-7.29,9.37-14.59l5.93-.11Zm-10,15.35L723.47,309c-.72.83-3.83-.14-5.27-.1l6.57-11.52Zm-7.77,12.26.27.28L717,320.66l-6.47-.44-.05-.16,7.16-10.81Zm-6.25,11.42q-3.52,6.11-7.06,12.22l-6.19-.71q3.36-6.06,6.74-12.12Zm-13.8,11.5-4.85,2.3c1-6.05,7.3-8.44,10.71-13.22Q705.7,327.19,702.76,332.65Zm-14.51,12.1-1.13-.72q5.26-5.76,10.54-11.53C699.05,333.75,690.17,344.38,688.25,344.75Zm.43.77,2.1,2-12.17,12.06-1.19-1.42Zm-10.51,14.41.05.17q-5.65,6-11.3,12l-1.08-1.1,10.87-12.18C677.48,358.88,677.7,359.32,678.17,359.93Zm-10.3,14.53-10.59,11.37-.38-.05-.85-1.53,10.48-11.16Zm-9,15.19-9.18,10.74-2.25-3.07,9.33-10.24C657.64,387.39,658.31,388.86,658.88,389.65Zm-9.61,11.06-7.47,8.74-.23.43-2.52-2.8,7.74-9C647.77,398.34,648.63,399.86,649.27,400.71Zm-10.33,6.05-1.85-.13-.27-.27L645.4,396l1.39,1.53Q642.88,402.15,638.94,406.76Zm2.09,3.66-3.68,4.26-.44.32-2.32-2.14,4-5.07C639.49,408.15,640.37,409.55,641,410.42Zm-4.34,5-3.74,4.1-2.26-2,3.52-4.2Zm-4.39,4.31.43.22-5.16,6.37-2.6-1.87c1.73-2.12,3.45-4.25,5.17-6.37ZM625.59,423l0-.38.17-.06ZM623,426c0-3.25,1.81-4.58,2.94-6.95.11-.27.22-.53.34-.8-.11.28-.22.55-.34.8Zm-3.16,6.44L619,434l-2.92-2.31,4.39-9.91,1.77,2.14C621.71,426.21,621.35,430.68,619.79,432.46Zm-1.1,2.16c-.9,2.63-2.81,7-4.87,9q1.09-5.6,2.17-11.18ZM617.62,438l2.6,1.33.11.33,0,.16-2.49,4.6-2.59-1.87Zm6.7,11.21-5,6.85-.22.44L614,452.4l-.43-.22,4.3-6.81C619.77,445.41,622.85,448.08,624.32,449.24Zm1.55,14.85c1.65.62,3.33,4.47,4.46,6,0,1.52-5.72,7.16-7,8.58-1.6-2.13-3.19-4.27-4.78-6.4Q622.21,468.17,625.87,464.09Zm4.66,7.16c1,.51,1.61,3.06,2,4.58l-6.7,7.23-.16.05L623.45,479Zm-2.37,10,.33-.11q.24,5.79.49,11.59l-7.64-2.95-.64-.88Zm0,11.58.7.49c-1.17,1.4-2.34,2.81-3.52,4.21l-4.12-1q-.15-3.28-.32-6.58Zm.86,1c1.52.2,3.55,3.49,4.58,4.66l.05.17-5,3.05-2.69-3.83Zm4.63,5.37c1.68.19,4.1,3.67,5.22,5-4.19.8-6.87.39-9.82-1.88Zm1-.32,5.3-3.16,4.15,3.9-4.55,4.36Zm6.06-3-.32-.44,3.41-5.08a11.28,11.28,0,0,1,4.55,2.33l-3.81,6.1-.22.44Zm7.74-2.87c2,.42,5.62,4.09,6.91,5.72l.43.22-2.21,3.79-1.11,2.16-7-5-.65-.33Q646.56,496.23,648.38,492.93Zm7.66,6.38c1.81,1.88,3.63,3.76,5.44,5.65-.56,1.44-1.11,2.88-1.67,4.33l-.83,1.35-5.93-5.49Zm5.87,5.87,3,1-.87,5.7-4.23-.8Zm.53-4,2.44.84.18,3.37-.27.27-2.22-.72C661.81,504.08,662.44,502.58,662.44,501.21Zm3,5,4.14-.62.54,6.15-5.66.38Q665,509.15,665.49,506.19Zm.06-.38,0-.17c.08-3.23-.28-3.39,3.46-4.37l.72,3.92Zm2.6-4.82c0-.78,0-1.55,0-2.33a3.91,3.91,0,0,1,2.16,1.65l.44.22Zm-.55,0c-4.77,2.09-6.52-2.66-9.52-4.87,0-.6,0-1.2,0-1.79l9.48,3.61Zm-10-5.8-.16.05-1.24-1,1.41-.1Zm-.82.27,5.17,5.37-.24,3.15-.28.27-5.11-5.75C656.47,497.48,656.63,496.47,656.78,495.46Zm-1,2.49-.06.38q-3.5-3-7-6c0-.84-.05-1.67-.08-2.51l7.51,4.8A6.54,6.54,0,0,1,655.78,498Zm-7.5-5.89-4.22-2.43,0-2.88c1.53.23,2.92,1.69,4.22,2.43Zm-3.38-5.41c-.66-2.06-.17-2.69.1-4.18l.72,4.46ZM639.11,490c0-3.12-.09-6.23-.13-9.35l5.89-2.45.82-.26C644.48,482.91,643.81,486.68,639.11,490Zm-.18-10.06q-.82-4.52-1.66-9a22,22,0,0,1,5.69-3.1l2.73,9.59ZM641.21,468c.11-1.72.22-3.44.32-5.16l4.19.09c-.18,1.14-.35,2.28-.52,3.42Zm2.24-.36.92-.48c.64,2.9,1.11,6,1.5,8.54l-.16.06C645,473,644.2,470.32,643.45,467.62Zm1.41-.1,2.94-.41-1.79,5.1C645.63,470.64,645.24,469.08,644.86,467.52Zm.71-.59-.05-.16,2.46-1.34c.2.26.1.51-.07.92C647.75,467,646.44,466.75,645.57,466.93Zm.44-.87-.16.06.36-3.37,5.61-1.63.49-.16c.12.56.24,1.12.37,1.69Zm.37-3.91q-.14-3.75-.26-7.5l5.26.65c.3,1.65.59,3.3.88,4.95Zm6.37-1.52,6.73-4.88,1-.15,0,.16-7.17,6.29-.17.06Zm12.07-12.93,4.91-2.13,2.07-.31,1.14.72-6.34,3.31Zm7.26-2.71,7-.8C677.4,445.54,673.32,445.64,672.08,445Zm6.42-1.35c-1.4-.42-2.88-4.19-3.64-5.69l5.2,1,2.73,5.08Zm2.65-4.11a14.07,14.07,0,0,1,8.26,6l.05.16-5.69-1.41C682.89,442.7,682,441.11,681.15,439.53Zm7.25-2.71c2.32,1.85,6.51,6.42,5.94,10l.11.33-6.05-4.73C687.2,441.8,688.42,438.34,688.4,436.82Zm.17-.59,4-6c.37.21,3.39,7.6,3.35,8.67-.5,1.25-1,2.49-1.51,3.74l-.27.27Zm6.22,9.73c1.08.6,2.11,4.14,2.55,5.67A11,11,0,0,1,694.79,446Zm4.8,9.82h.54l.63,3-1.27,1.67-.16.06-.66-4.85Zm1.33,3.55,3.62,1.72c-.08,1.23-.17,2.46-.25,3.69l-.16.05-4.54-3.41C700,460.7,700.47,460,700.92,459.33Zm2.88,6.11c.75.68-.25,3.93-.27,5.33l-.27.27c-5.53-3.82-3.75-1.67-3.84-9.06Zm-5-4.17-.44.32-.16.05c0-1.27,0-2.53,0-3.8C698.45,459,698.64,460.12,698.83,461.27Zm0,.7c-.13,2-.25,4.06-.38,6.09l.11.33c-1.75-.92-.68-4.5-.38-6.2Zm-.5,6.85c-.1,1.72-.21,3.44-.31,5.16l-.17,0-.16.05c-.87-1.75-.46-3.72-.22-5.7Zm0,6.52,3.57,1.55c1,1.35-.7,4.66-.77,6.57C696,481.77,698.25,479.94,698.33,475.34Zm-1.46,5,.1.32-.38,0c-.52-2.53.45-4.43.34-6.79l1,1.31Zm4.53,3.95,5.26,1.19c1.1,1.48-.92,5.55-.94,7.71-1.59.44-3.79-1.11-5.64-1.25C699.28,490,701.22,486.5,701.4,484.28Zm10.06,11c1,2.13-.82,5.66-.83,8-1.74.49-4.08-1.05-6.13-1.09-.28-2.78,1.09-5.5,1.54-8.08Zm-5-1.46c-.87-1.81.79-6,1.22-8l5.74,1.57q-.67,3.75-1.37,7.49Zm7.51-6.4,5.59,1.08c-.5,2.57-1,5.14-1.49,7.71l-5.37-1C713.13,492.65,713.56,490,714,487.44Zm3-12.53c.49-1.84,1-3.69,1.46-5.53l6.53.06c-.53,1.73-1.05,3.47-1.57,5.2C722,475.71,719,474.67,717,474.91Zm1.69-6,1-4.67,6.63-.16c-.38,1.45-.75,2.9-1.13,4.34C724.41,469.56,720.28,468.76,718.66,469Zm1.07-5.05c.31-1.48.61-3,.91-4.45l7.51-.26c-.61,1.47-1.23,2.93-1.84,4.39Zm1.25-5.1q.46-3.3.92-6.62l8.54-.41c-.65,2.26-1.31,4.52-2,6.78Zm10-7,5.06-1.09c-.66,2.44-1.31,4.88-2,7.32-.88.89-3.41.36-5,.71Zm.16-.59q.78-3.78,1.54-7.54l4.29-.13c-.25,2.19-.51,4.38-.76,6.57ZM723.46,443q.63-5,1.28-10l10-.34q-1.12,5.15-2.26,10.3Zm1.67-10.47-.06-.17q2.46-6.39,4.9-12.78l9-1.66-4,13.93Zm5.5-13.71-.33.11,4.62-17.57,9.14-.79q-2.37,8.35-4.72,16.7Zm4.73-17.78-.27-.27q2.74-9.66,5.5-19.3l8.15.07q-2.24,9.3-4.46,18.6Zm5.56-20.22q2.39-8.82,4.78-17.62l7.15,2q-1.9,7.75-3.83,15.51C746.86,381.86,743.39,380.56,740.92,380.83Zm-3.41-20q2.29-7.69,4.6-15.39l7.3,3.6q-2,6.69-4,13.39Zm9.63-13.22-4.81-2.6,4.06-10.89,6.75,5.22c.63.76-3.07,7.37-3.34,9.21Zm.07-13.76c-.64-.66,4.23-9.34,4.89-11.15l7,5c-.84,1.89-1.67,3.79-2.5,5.68l-3,5.68ZM752.59,322l7.29-12.65c2,1,5.94,3.9,7.17,6l-7.49,11.45-.22.43Zm14.57-6.34c.87.19,5.61,5.74,6.19,6.85l-8.15,11.67-5.43-6.73Zm.55-.53q5.26-8,10.52-16l6,6.9L773.57,322Zm16.71-8.66,2.82,5.95L776.4,328l-2.51-5.51Zm3.42,6.12,12.28-17.34c.44,1.55.88,3.09,1.31,4.63l-12.92,17C788.29,315.42,788.06,314,787.84,312.55Zm-.21-.65L784.8,306l11.74-17.35c1.27.64,3,4.53,3.58,6.07Q793.88,303.28,787.63,311.9Zm9.45-23.83,15.15-22.42,4.07,7L800.45,294C799.33,292,798.21,290.05,797.08,288.07Zm3.59,6.6,15.63-21.49c.76.54,1.52,3.41,2,5.13l-16.33,21-.16.05C801.44,297.8,801.05,296.24,800.67,294.67Zm18.24-16.19,24.84-29.89,1.69,5.24-25.81,29.11ZM846,253.83l29.2-30.93c.47,2.19.94,4.39,1.4,6.58l-30.16,29.63C846.28,257.35,846.13,255.59,846,253.83Zm29.74-31.47,26.83-27.64c.54,2.95,1.07,5.91,1.61,8.87l-26.81,25.47-.16.05Zm27.54-28.23,25.38-23.74s.2,10.31-.32,11.3L904.7,203.05Zm26.36-24.06c.7-2.5,15.47-12,18.24-15.11l.49-.16-.81,10.92-18.67,15.43Zm0-1.09c.1-3.22.21-6.45.31-9.67.68-2.39,15.29-11.15,18-14.13.15,2.9.31,5.8.46,8.7Zm.59-11-.05-.16q2-6.69,4-13.39l13.72-9c0,2.93.09,5.87.14,8.8C947.67,145.21,932.2,156.93,930.22,158Zm3.5-13.77-14.36,6.45,11.25-23.33,8.47.51Q936.4,136,933.72,144.18Zm-15.23,6.55-9.59-2.86-.49-.39,13.43-24.39,8.33,4Q924.34,138.9,918.49,150.73Zm-10.67-3.41-8.81-6-.65-.33L912.11,117l9.3,5.84Zm-9.06-8.46-.88,1.74-9.62-6.83,0-.16q6.67-11.75,13.36-23.47l10.06,6.5Zm-10.7-6.29-.45.87-10.15-6.83L891,103.79c1.65.23,8.43,4.45,9.63,5.74l.65.33Q894.68,121.22,888.06,132.57Zm-11-6.73c-1.09,1-5.6-2.24-7.32-2.51l-.91-.61,12.38-23.15,9.53,3.78Zm-4-28.13c.26-1.9,2-3.75,3-5.3l9.17-15.79,8.52.67.27.28L881.19,98.49C880,99.75,874.88,97.74,873,97.71Zm-.76-.12-7.07-.06-.32.1L878,77.86l6.64-1.25Zm-.44.32.05.17-11.61,22.17c-1.17,1.18-5.89-.17-7.93,0l12.15-22.17ZM851.7,120.12l-6.53,1q6.72-10.49,13.45-21l3.54-1.32,1.47-.48Q857.68,109.26,851.7,120.12Zm-.55.54.05.17-12.45,24.61-7.61-.07q6.75-11.84,13.48-23.68Zm-13,25.16c.23,2.05-2.76,6.2-3.82,8.28l-10.08,20.78-8.85-1.11,15.36-27.91ZM815,173.17c-1.18,1.35-6.42.14-8.53.41l-.06-.17,16.44-26.81,7.13-.86.27.28Zm-.44.86-17.4,31.1c-1.06,3.17-6.38,2.61-9.74,1.7l-.33.11q9.39-16.5,18.77-33Zm-18.89,33.75-18.82,31.73c-1,2.53-6.09.26-8.7.47l-.27-.28,18.82-32.28ZM767.3,239.53c-1.43,1-4.35.39-6.26.76l-.26-.27,18.43-31.25,7-1.35Zm-.49.71.05.16-14.07,23-6.25.22q6.9-11.35,13.79-22.71Zm-14.57,23.67.11.33-10.91,16.53c-.7,1.52-4.31.54-6.26.76l0-.16L746,264.13Zm-17.65,17.45-4.79.83-.27-.28,10.69-16.64,5.23-1.15Zm-.55.54-9.27,14.92-4.68.61-.27-.28q4.56-7.15,9.1-14.32ZM723.9,297.46l.32-.1q-3.36,5.5-6.73,11c-.49.66-3.61.83-4.68.61l-.32.11,6.73-11Zm-7.18,11.89.38.06q-3.54,5.22-7.1,10.43l-4.84.12-.27-.28,7.05-10Zm-7.43,11.08q-5.52,5.29-11,10.61l-1.2-.34c-.38-.13-.1,0-.43-.22l7.76-10.1ZM697.45,331.3l.48.39-11.41,12.18c-.21-.3-.43-.59-.64-.88l10.27-11.81ZM688,345.18l.33-.1L677.1,357.75l-.48-.38-.54-.55,10.38-12A1.79,1.79,0,0,1,688,345.18ZM675.64,356.6l-.32-.44,5.54-5.77Zm1,1.85-11.15,11.91-.7-.49-.32-.44,11-11.86C676.09,357.7,676.19,357.78,676.61,358.45ZM666.37,372.6l-10.81,11.26c-1.31-2.57,7.64-9.83,9.51-12.47C665.75,371.55,666,371.86,666.37,372.6Zm-9.64,13.77L647,397.1l-1-1.48,9.5-10.83Zm-11.22,8.87c-1.49-2.94,7.12-9.21,8.7-12.21l1.13,1.26Zm-1.23-1.59L643.2,392l9.94-10.62,1,1.32Zm1,2-8.63,10.2-.63-1.42,8.13-10Zm-7.5,11.46.49.38c-1.45,1.58-2.77,4.68-5,5.23l-.06-.16,3.21-5.74Zm-1.67-.72-6.77,8.68-.59-.16-.27-.28,6.82-9.61C635.78,405.28,635.89,405.63,636.12,406.41ZM629,415.58l-3.37,5.79q1.27-3,2.56-6.07Zm-6.49,7.88c-.51-.86-1-1.71-1.55-2.57l5.51-8.65,1.13,1.81C627.91,415.85,623.63,422,622.48,423.46Zm-2-2.79-2.17-1.11q2.92-4.1,5.84-8.21l1.79.51.32-.11Zm-.17.59-4.16,9.48-.5.7-2.43-1.92,4.71-9.47.16-.06Zm-4.93,10.45c.18,2.1-1.43,11.65-2.46,13.08-.64-2.75-1.29-5.49-1.93-8.23.63-2.13,1.27-4.26,1.9-6.39Zm-.65,11.41a7.21,7.21,0,0,1,2.92,1.76L613,451.8l-2.87-1.06,0-.16Zm4,13.89-6.15,7.77-5-4.88,5.45-7.18Zm-6.49,8.42-5.6,6.69-4.09-4.82,4.85-6.8Zm-14.36,1.94,0-3.26,3.33-2.53.38.6Zm1.31-1,1.41.45,1.13.72-3.68,4.8-1.95-1-.33.11ZM599,480.91l-1.77,2.92-.55,1.08-2.44-1.38c-3.52-1.14-.52-2.9.22-5.48C595.9,478.11,597.89,480,599,480.91Zm-2.54,4.44-1.73,4.71-.5.7-4.82-2.05-.27-.28,2.61-5.35ZM594,491.19l-4.36,7.19-4.43-2.54,3.54-6.92Zm-4.42,7.57-4.13,6.76-.22.43-3.3-2.36-.65-.34,3.54-6.92a1.3,1.3,0,0,1,.65.33ZM585,506.39l-3.46,4.91-3.62-2.8,3-4.6Zm5.13,4.12.43.22c-1.48,1.74-3,3.49-4.45,5.23l-4.25-4.22,3.3-4.86C586.62,507,589.2,509.35,590.12,510.51Zm-9.41,1.05.43.23-3.84,3.77-3.18-3.13,3.19-3.56Zm5.83,4.62,4.12-5.12c1.24,1.58,2.47,3.17,3.71,4.76l-4.06,4.2-.22.43Q588.3,518.32,586.54,516.18Zm-.84-9.84,4.09-7.47,6,3.32.16.49q-2.46,3.58-4.9,7.18l-.34.65Zm6.26-6.9-1.78-1.05,4.41-7,6.94,1.37.27.27q-2.64,4.38-5.3,8.76l-.32.11Zm10.44-6.27,5,3.63.43.23-5.89,8c-.15.29-.3.58-.44.87l-4.37-3.47-.44-.22Zm1-.15-.43-.22,4.5-4.53q2,1.61,4.1,3.19l.16.49-3.36,4.16-.22.43Zm4.61-5.29,2.67-6.28,5.22,5.54-3.68,4.26Zm3-6.93,7.14-8.08c1.63.74,3.82,4.69,4.78,6.4l-6.7,7.22Zm11.75-1.09.17,0,2.19,3.44c0,1-5.23,6-6.52,6.63l-2-2.79Zm-3.13,9.87.76.11.21,6.26.11.32-3.68-1.88-.42-1.85Zm8.31,12.3-3.75.67-2.84-5.4C624.59,497.56,626.28,498.49,628,501.88Zm0,.54c1.4.05,3,1.65,4,2.49l-2,1.72L624.54,503Zm4.54,2.87,6.31-.59-2.27,4.7L630.7,507Zm4.69,4.45c.74-1.63,1.47-3.25,2.21-4.87l8.49,5.56.16.49q-1.9,2-3.79,3.94l-7-4.8Zm2.71-5.58,4.44-4.14,7.18,4.9.87.44-4,5.08Zm12.6,1.53,6.47,5.49-2.22,5.42-.06.38-7.18-6-.43-.22Zm6.9,5.71,4.29,1c-.17,2.1-.33,4.2-.5,6.3l-5.69-1.41-.27-.28Zm5.1,1.25,5.71-.22c.07,1.9.14,3.8.22,5.7l.1.33-6.79.21C664,516.66,664.26,514.65,664.51,512.65Zm6.2-.38,9.51-.19q.22,3.18.43,6.36l-9.73.08Zm0-.55q-.18-3.09-.38-6.2l9.2-1.16.53,7.23Zm8.55-7.64-8.87,1.06c-.2-1.19-.41-2.39-.62-3.59l-.1-.33,8.87-1.06,1,3.65Zm-7.68-3.65-4.49-3.25-8.88-3.45-2.66.14-9.29-6.39c-.91-3.89-.32-6.85.08-9.78l-.06-4.68c.65-2.61,2.34-5,2.51-7.86l4.65-2.4,7.34-6.35,7.35-7.43,4.91-2.67c6.48-2.09,13.64-1.83,18.74.79a10,10,0,0,1-3.06-3.7l6.1,4.9.16.49c-.45-.16-.91-.35-1.36-.56a11.68,11.68,0,0,1,3.5,3.84c1.79,3.18.66,7.73.45,10.33-.65,8.21-1.16,16.69-2.94,24.43-.86,3.76-6.22,10.74-2.25,14.82a47.6,47.6,0,0,0-13.46-2ZM695,489.6l-1.73,4.72c-.12-2.19.88-3.69,1.25-5.64Zm-2.7,3.95.28-.82c0,.21.18.08-.06.38Zm-.15,4.56-.38.49c.08-1.23.16-2.47.25-3.7a3.8,3.8,0,0,1,.55-1.08C693.41,494.8,692.28,497.06,692.14,498.11Zm-12.85,2.17,9.46.74c.31,1.16.63,2.32.94,3.48l-9.34-.41C680,502.82,679.65,501.55,679.29,500.28Zm11,4.39c-.32-1.16-.63-2.32-.95-3.49,3.54.68,5.73,2.87,8,5.89Zm6-.32-.27.26-4.26-4.22,1.29-3.85,4,2.87C696.83,501.05,696.57,502.7,696.32,504.35Zm-2.91-8.46c.63-1.95,1.27-3.9,1.9-5.85l3.73,2c-.56,2.17-1.12,4.33-1.69,6.5l-.27.27Zm6.23-3.64,5.42,1.68c1,.83-1.09,5.95-1.16,7.6l-.27.27-4.6-1.94C697,498.37,698.94,494.82,699.64,492.25Zm4.42,10.32,6.4,1.36c-.27,2.13-.55,4.27-.82,6.41-1.49.62-4.32-.51-6-.77Zm6,8.53,5.61-1.09c0,.29.06.58.1.87l-5.5.87Zm.38-.49-.27-.27c.29-2.08.59-4.16.88-6.24l5.32.26c-.18,1.69-.36,3.37-.53,5.05Zm.66-6.89,1.38-8,5.43,1.13c-.46,2.32-.92,4.63-1.37,6.95C716.09,504.4,712.41,503.7,711.11,503.72Zm7.35-6.89,4.24.25c-.33,1.79-.65,3.58-1,5.37l-4.58,1.49Zm5.45,4,.64,1.42-2.42,3.68C722,503.39,722.66,502.62,723.91,500.84Zm-1.36.81a8.72,8.72,0,0,1,1.29-4.94l.71,0C724.27,498.81,724.07,500.12,722.55,501.65Zm.37-5-4.24-.26,1.32-7.65,4.56.7C724,491.84,723.46,494.25,722.92,496.65Zm-2.7-8.34c.45-2.13.91-4.27,1.36-6.4l4.78.26L725,488.41C723.86,489.33,721.77,488.33,720.22,488.31Zm1.75-6.89,1.57-5.74,5.45-1,0,.16-2.4,6.56Zm2.12-6.28-.27-.28,1.68-5.42,6.54-2.11c-.85,2.2-1.71,4.4-2.56,6.61Zm1.74-6.35-.05-.16,1-4.28a8.18,8.18,0,0,1,4.25-.84l.33-.1,1,3.27Zm1.35-5.31c.56-1.44,1.12-2.89,1.67-4.33l4.63-.23-2,3.89Zm4.63-.23,2.37-4.38,2.5-.09-3.92,7.41Zm2.76-4.87,2.13-7.91,2.79-2c.65.24-2.11,8.21-2.42,9.82Zm2.25-8.67q.38-3.29.77-6.57L742,435c.67.27-1.77,10.42-1.75,12.49Zm.33-6.79-4.24.28,2.49-10.74,7.11.78ZM735.62,432q1.93-7.12,3.88-14.26l7.4-1.13.33-.1q-2.19,8-4.39,16Zm4.1-14.69q2.44-8.37,4.88-16.75l7.45-1q-2.24,8.13-4.49,16.27Zm5.1-17.18q2.14-9.29,4.3-18.55l6.51,1.14Q754,391,752.28,399.19Zm4.52-19,3.95-15.72,5.08,2.33Q757.2,375,756,382.27Zm-3.2-18.29-.27-.27L750,349.55l6.49,3.32q-1.62,5.85-3.25,11.71Zm4.2-13.82-.11-.33q1.8-4.46,3.61-8.93l5.61,5.05-2.89,7.26.1.32Zm3.89-9.75,5.1-11c1.8.62,4.62,4.7,5.7,6.47l-5.19,9.08-.22.43Zm11-3.92,2.46,4.81q-2.33,4-4.64,8l-3.12-3.51Q762.6,340,765.24,335.39Zm.55-.54q3.86-5.94,7.72-11.89l2.5,5.52q-4,5.61-7.93,11.23Q766.94,337.28,765.79,334.85Zm21.39-21.55c.66.46.72,2.9,1,4.2q-5.74,7.63-11.5,15.28C777.14,323.7,784.29,320.65,787.18,313.3Zm14.19-12.53c1.53,1.6-.84,4.69-1.74,5.8l-11.48,14.19C789.23,312.71,798,307.7,801.37,300.77Zm16.88-21.54c.57.15.84,2.84.84,3.71-.11,2.12-3.39,4.46-4.73,6L802,303.82C802.46,294.28,814.25,287.32,818.25,279.23Zm1.43,4.42,25.48-29c.92.59.64,3.57.88,4.95l-26.67,28.13C819.47,286.37,819.58,285,819.68,283.65Zm34.52-31.21,22.32-22c-.2,2.53-.41,5.07-.61,7.6l-3.12,2.64L846.1,264.81l-.16.05C845.84,258.67,850.19,256.45,854.2,252.44Zm23-22.62,26.65-25.42-.69,9.62-26.73,23.45Q876.85,233.65,877.23,229.82ZM904.7,203.6l23.18-21q-.76,4.32-1.55,8.63l-.63,3.64-22,18.66Zm24.17-21.91,18.51-15.38-1,7.39-.58,3.8L926.53,194Zm19.22-16,18.11-13.8a42.22,42.22,0,0,1-.4,8.26l-19.39,16.56Zm18.5-14.83-18.33,14.24c.21-3.62.42-7.25.64-10.87l16.68-11.53.49-.16C966.24,145.34,966.42,148.12,966.59,150.89Zm-.52-8.87-17,11.65-.17.05c-.12-3-.23-5.95-.35-8.92l15.86-10.73C965.72,134.47,965.84,140.35,966.07,142Zm-3.43-17.31c1.47.88,1.72,6.55,2.21,8.5l-16.3,11c0-3.06,0-6.13-.08-9.19ZM948,134.85l-13.72,9L939.51,128c2.56-2.42,6.33-1.75,9.17-4l.49-.16Q948.6,129.34,948,134.85ZM955,108.77l.33-.11q-3,7.36-5.9,14.74L940.07,127q4.57-9.87,9.14-19.75ZM948.78,107q-4.63,10-9.26,20l-8.37-.19,0-.16q5.53-11.37,11.08-22.73C944.28,104.14,947.1,105.78,948.78,107Zm-7.36-3.77.43.22q-5.58,11.47-11.18,22.95c-2.3,0-6.64-2.49-8.45-3.77l12.67-24Q938.15,100.94,941.42,103.21Zm-6.86-5L924.39,117l-2.76,5.41-8.7-5.68c-.89-.94,2.14-4.54,2.82-5.79L926.3,92.75Zm-8.75-5.84-14,23.84-9.73-6.61,13.69-23C917.89,86.72,924,91,925.81,92.37Zm-10.32-6.24-9.44,15.51c-1.46,2.23-2.46,6-4.74,7.68l-8.43-5.4-1.3-.67,13.3-22.54C907.34,81,913.39,84.64,915.49,86.13Zm-11.31-5.92.27.28-13.08,21.57c-.56,1.18-8.29-1.91-9.81-3l12.75-21.47Zm1.61-21.83.05.16L894.26,76.92l-8.9-.74,12.33-17.71Zm-9.73.62.81-.27L885.14,76.07l-6.64,1.25,12.81-16.25ZM874.9,79l12.46-14c-.18,1.75-9.62,12.75-12.41,14.13Zm-1.6,1.77,3.28-2.14c.34.81-2.49,4-3.36,5.24q-4.46,6.87-8.93,13.73l-5,1.8ZM863.19,93.11l.17-.06-.22.44Zm-7.25,8.3,6.87-7.82c.42,0-.31.69-.44.87-1.89,2.44-3.35,5.32-6.37,7.11Zm-12.26,15.71L854,103.68l2.9-2.21.32-.1L844.46,121.2l-5.51,2Zm-1,5.2,1.3-.42-13.25,23.25-7.07,1-.27-.28L838.13,124Zm-6.94,4.24-4.14,6.21q-4.49,6.78-9,13.56L817.69,149Zm-19.13,23.52,5-2.89c.47.78-2.65,4.76-3.48,6l-12.25,20.22-6.33,2.23Q808.08,162.86,816.59,150.08Zm-17.68,26.31,3.21-1.22,3.11-1q-9.08,15.76-18.17,31.53c-.66,1.84-4.95,2.19-7.46,2.59l-.06-.16Zm-23.74,35q7.49-10.9,15-21.82l.1.33c-1.16,1.81-2.31,3.63-3.47,5.45-3.59,5.37-5.51,12.18-11.56,16.21ZM755,242.25q3.21-4.92,6.4-9.84,6.29-9.61,12.56-19.23l3.84-3.23c-.1.27-.19.54-.28.81L772.6,219q-6.3,10.69-12.59,21.41l-5,2Zm-.44.86,3.66-1.54,1.31-.42-13.41,22.22-5.34,1.36ZM745,256.67c.51.06-.41.86-.56,1.08-2.18,3.31-3.48,6.4-7,9.13Q741.26,261.77,745,256.67Zm-19.6,27.11,10.47-15.13,3-2.41-3.09,5c-2.73,4.33-4.57,10.11-10.33,12.73Zm-.44.86,3-1.49-8.77,14.21-3.6,1.17ZM714.1,299l1.43-1.72c.41.06-.94,1.61-1.38,1.89Zm-.39,1-5.08,8.87A30.22,30.22,0,0,1,713.71,300Zm1.2-.75,3.6-1.16-6.57,11-3.43,1.11ZM708,310.74l3.16-.84-6.88,10-1.36-.28Zm-5.57,9.57,1.25,0,.05.16-7.85,8.14Zm-1.4,3.52c.42,0-.3.69-.44.87-1.93,2.51-3.46,5.59-6.64,7.38C695.21,328.8,699,326.76,701,323.83Zm-6.76,8.69-8.46,9.6-.16.05c.12-2,6.65-7.72,8.29-9.54Zm-1.47-.07c.5.06-.27.67-.44.87l-7.3,8.14-.27-.27Zm-7.69,9.72c-.38,2.36-4.22,5.53-6,7.17l5.82-7.12Zm-.7-.5c.45.47.17.18-.28.82l-9.56,11.21Zm-6,8.43.33-.65C679.24,349.45,678.54,350,678.42,350.1Zm6.85-6.73,1,.93L675,355.72l-.27-.27ZM664.12,369c-.7-1.92,8.84-10,10.49-12.24l.6.17Zm8.27-13,.16,0-.22.43Zm-.39.49.17-.05-.22.43Zm-8.74,10.95,10.87-11.64.16-.05.27.27-11.24,11.59Zm1.5,3,.32.44-10.59,11.37-.81-1.36L663.73,370C664.39,370.07,664.27,370.15,664.76,370.41Zm-2-2.41c.63,0-3.52,4.16-4.22,4.8Zm-6,6.47c.48,0-.22.51-.33.65ZM654,377.33l.16-.06-.22.44Zm9.1-8.73c1.09,1.15-8,10.34-9.67,12l-.7-1Zm-10.92,11.48c.47.21.56.39.86,1l-10.1,10.67C641.55,389,650.25,382.71,652.17,380.08ZM644,393.92l-8.35,9.93-.92-.61-1.08-.55,8.89-9.92C643.31,392.87,643.53,393.31,644,393.92Zm-11.3,5.82,8.72-8.78.33-.1c1.17,2.31-6.28,9.2-8.26,11.34l-.16.05Zm.56,3.43,2,1.16-6.61,9.18-.33.65-1.13-1.8C627,410.35,632.09,405.07,633.26,403.17Zm-1.11-2.89.79,2.46-5,3.43-.16.05-.32-.44C627.19,403.73,631.05,401.76,632.15,400.28Zm-.41,3.75c.27.64-3.77,6-5,7l-.22.43-1.79-.5,0-.17C626.2,407.77,629.12,406.6,631.74,404Zm-5.13,1.47.7,1-3.19,4.11-1.67-1.27Zm-5.3,3.71c.29.53-5.24,7-6.27,8Zm.59.71a3,3,0,0,1,1.89,1.37l-6,8.1c-.89-.49-1.77-1-2.65-1.49Zm-7.2,8.47,2.82,1.44-4.71,9.46-1.36-.28-1.13-.72Zm-4.55,10.5,2.49,1c-.58,1.93-1.16,3.87-1.73,5.8a3.1,3.1,0,0,1-1.91.8Zm-1.32,8.2,1.69-.37c.71,3,1.43,5.92,2.14,8.88l-.38.48-3.2-.4Q608.94,441.38,608.83,437.09Zm.24,9.13,2.93.13.06.17-2.15,3.4-.17.05C609.52,448.72,609.3,447.47,609.07,446.22Zm2.29,5.4,1.35.83q-2.72,3.58-5.44,7.18l-2.28-.89-.33.1,5.07-7.78Zm-3.26-.57.83-.81.32-.11a1.55,1.55,0,0,1-.72,1.68l-.33.65C608.17,452,608.14,451.52,608.1,451.05Zm-3.34,3.61c.36-1.12,1.83-1.86,2.52-2.81.53.29.4.32.48.93L605,457.11C604.92,456.29,604.84,455.47,604.76,454.66Zm-.66.21c.16,1,.31,2.07.46,3.1l-2.63,2.48-.16.05,0-2.72C602.06,456.58,603.39,455.84,604.1,454.87Zm-3.29,3.23.33-.1c.5,3-.82,3.67-3,5.3C598.51,460.7,599.39,460.1,600.81,458.1Zm-2.9,2.75-.24,2.6-1.59,1.24A9.69,9.69,0,0,1,597.91,460.85Zm-1,3.74c.78.2.7,3.22,0,4s-1.3.24-2.29.19l-.27-.27c.34-.83.67-1.66,1-2.49Zm-3.05.62.33-.1-.88,1.19A2.88,2.88,0,0,1,593.9,465.21Zm-.56,2.17c.23-.38.47-.75.71-1.13-.16.41-.33.83-.5,1.24l-.16.06Zm-.7-1c.43.87-.92,2.15-1.6,2.87C590.85,467.73,592,467.33,592.64,466.34Zm0,1.63.33-.1c0,1.09-.86,1.9-1.49,2.65C591.28,469.16,592.11,468.92,592.62,468Zm1.46,1.16,2.28.35a13.64,13.64,0,0,1-3.41,4l-.8-.83C592.09,471.14,593.53,470.33,594.08,469.13Zm-4.9,1.58.93-1.56c.44.21.2,0,.54.55l-1.26,1.13-.16.05Zm1.19-.2.49-.16.21.65-1.69.91C589.59,471.22,589.94,471.07,590.37,470.51Zm1,2,.91,1.15-.06.38-2.35,1.66-.16,0-.53-1.63Zm-2.76-1.28.16-.05c0,.29.07.58.1.87h-.54C588.44,471.8,588.53,471.52,588.63,471.25Zm-.3,2.45.49-.16-.54.54Zm0,.7c.68.33.85,1.46.69,2.13l.1.33-.27.27C588.36,476.13,588,475.24,588.38,474.4Zm1,3.49.22-1,.76.66.43.22-.49.71Zm2.4-1,2.22.73.33-.11c-.67,1.12-1.33,2.24-2,3.36l-.77,1.51-1.63-.56-.7-.49Q590.45,479.15,591.73,476.93Zm-2.82,5.25,2.11.4.27.27-2.76,5.41-1.68-.72-.33.11C587.32,485.83,588.11,484,588.91,482.18Zm-2.77,5.95,1.73.35c.69,1-2.13,5.83-3.1,7.14C581.74,494.71,585.27,490.45,586.14,488.13Zm-3.38,7.42,1.84.67q-1.89,3.4-3.76,6.81l-1.51-.77ZM579,502.91h.55l.92.61c-1.07,1.55-2.13,3.1-3.2,4.64l-.81-.28-.7-.49Zm-3.63,5,.16-.06,1.36.83L573.64,512l-.6-.16c-.3-.21-.61-.41-.92-.61Zm-3.78,3.93,1.67.72-3.34,3.61-.23.43-1.29-.66Zm-3.74,4.64,1.46.61c-1,1.05-1.73,2.69-3.18,3l-.7-.5Zm-2.92,3.83.49-.16.92.61-.49.7-1-.22-.27-.28Zm-1.21,1.84,1.14.17-.22.44c-.69.16-.29.24-.92-.07l-.38-.06Zm-2.63,2.48,1.53-1.4.76.11.33-.1L562.11,525l-.65-.34Zm.91,1.14,1.57.94-2.09,3-.76-.66-1.08-.55Zm-2,3.74,1.3.66-2.09,1.94-1.68-.18,1.6-2.87A1.3,1.3,0,0,1,560,529.48Zm-3.13,3.72.22-1,2.34.51.15.49Zm3,1.55-2.78.9.22-1Zm-2.28-6.49,1,.23.27.27-2,2.81h-.54l-.7-.49Zm-2.32,3.46,1.25.5c-.15.29-.3.57-.44.86l-1.09-.55Zm0,2.33,1.46.62-.12.76a2.09,2.09,0,0,1-1.62-.56Zm-.23,1.52,1.08.56c.91.48,1.49,2.67,2.08,3.66C556.32,539.58,555.75,538.14,555.06,535.57Zm2,.62,3.49-1,1.88,2.47-3.72,2.46Zm2.08,4.2,3.28-2.14c1.14,0,2.23,1.16,3,1.93l-1.33,2.6Zm5.63,2.34c.83-2.53,2.89-3.31,5.43-5l1.06,2.73Zm3.18-8.62,5.6-6.68c1.19.37,3.17,2.78,3.83,4L570.32,537Zm11.9.49-8.15,5.53-1.06-2.73,6.73-5.43c1,.16,1.79,1.6,2.43,2.47Zm.55-.54-2.1-2.57,6.63-5.76,1.89,1.38.65.33Zm7.45-7.1L586,525.58l-.43-.22,4.28-4.09,1.55,2Zm7.79-7.76-4,3.66-1.23-2.13,4-4.37C595,516.82,595.25,517.87,595.64,519.2Zm-4.54-8.47,5.18-8,4.53,3.41.44.22q-3.29,4.39-6.55,8.8Zm5.26,7.34-.22.43c-.38-1-.75-1.93-1.12-2.89q3.19-4.38,6.38-8.75c.86.28,1.71,1.45,2.32,2.14Q600,513.53,596.36,518.07Zm7.58-9.5-2-2.25,6.17-8.86,2.42,2.47Zm6.83-9.07-2.1-2.58,3.36-4.69,2.15,2.19Zm3.68-5.35c-.6-.77-1.21-1.53-1.82-2.3l3.3-4.32c1,.17,1.84,1.77,2.47,2.63Zm2.88,1.06c2.92,1,4.75,3.25,6.13,7.23l-2.55-.62C619.71,499.62,618.52,497.41,617.33,495.21Zm4.33,7.27c2.84.51,5.32,2.52,7.52,4.25C625.81,506.58,624,504.54,621.66,502.48Zm6.05,4.73a13.53,13.53,0,0,1,7.86,2.51l.32-.1-2,1Zm7.13,4.19-.32-.44.93-.48,1.14-.37,6.54,4.57.65.33C640.17,515.91,637.63,512.42,634.84,511.4Zm7.74,4.36,1.85-.41,7.13,5.28.64.33C650.31,521.32,644.16,516.93,642.58,515.76Zm2.12-.68,3.79-3.94,7.93,6.11-3.51,3.66Zm9,5.95q1.59-1.78,3.19-3.56l6.07,1.47c-.47,1.53-.93,3.07-1.4,4.6Zm8.73,2.41-.33.11c.49-1.48,1-3,1.46-4.44l6.79-.22c-.33,1.2-.67,2.39-1,3.58C667.89,523.28,664.05,523.68,662.4,523.44Zm7.34-.75c.38-1.26.75-2.53,1.13-3.79l9.23.08C678.13,522.35,673.67,522.1,669.74,522.69Zm8.22-.85-.27-.27,3.17-2.47,3.47,1.23.27.27Zm4.21-2.62-.27-.28,8.11-1.17.74,1.74C686.9,520.6,684.92,519.57,682.17,519.22Zm7.84-2-8.6,1.34-.21-.11-.27-6.42,7.77,0,.06-.38-7.94,0-.69-7.18,9.5.35c.86,2.74.84,9.46.28,12Zm1.29,2.3-.59-1.8,5-.88.33-.11-.29,1.9Zm7.85-2.54a6.52,6.52,0,0,1-2.95,1.5c.5-2.23,1.79-2.48,3.35-4.16C700.06,514.72,699.26,516,699.15,517Zm-2.5-1c-.84-3.75.18-5,.94-7.71l2.57,5.13Zm3-5.3-.17.05L698,507.4C698.8,507.91,699.29,509.4,699.64,510.68Zm-2.83-5.41q.35-2.82.7-5.64l6.06,2.55-.6,7.06Zm7.49,6.43a6.22,6.22,0,0,1-3-1.93l2.92,1.77Zm-.48-.93a1.33,1.33,0,0,1,.87.44Zm5.75,1.58a7,7,0,0,1-4.34-1.13l4.29,1Zm-6-2.23c1.56,0,5.11.29,6.07,1.47Zm10.09,1.61-.11.76-3.37.19-.16-.49,3.59-.62Zm2.89,0-2.29.74.06-.92,2.07-.31Zm.65-.21-.38-.6,1.31-.42.27.27ZM719,510.2l.82-.26C719.66,510.64,719.71,510.39,719,510.2Zm1.41-.09.06-.38.33-.11Zm-4.13.61c.36-1.77,3.58-2.24,5-3.43.5.2.48.23.81.82Zm.07-1.47c.21-1.57.42-3.14.64-4.72l4-1.48.71-.05c-.05,1.16-.09,2.32-.14,3.48A15.24,15.24,0,0,1,716.34,509.25Zm6.15-1.63-.37-.6,2.81-4.16.81-.26Zm3.59-5.67-1,.32c-.88-2.8-.06-4-.06-6.31l.17,0Zm-1.42-6.05-1.25.59c.56-2.35,1.13-4.7,1.69-7.05l1-.15C725.65,491.49,725.15,493.7,724.66,495.9Zm1.87-7.64c-.48.46-.4.35-1.26.58l1.47-6.61,1.59-1.24Zm.77-7.12c.36-3.18,2-5.61,4.31-7.89l.49-.16C731.18,475.83,729.94,479.29,727.3,481.14Zm7.57-14c-1.11,2.72-1.88,4.65-4.73,6.58L733,467l2-1C735,466.38,734.93,466.76,734.87,467.14Zm3.5-8.72c-.79,2.45-1.58,6.63-4.91,7.73l4-7.63.82-.27Zm-.21-.66-.49.16q1.43-5.07,2.86-10.14l1.81-1.12C742.58,446.9,739.38,456.76,738.16,457.76Zm2.7-10.63q1.1-6.94,2.2-13.89l4.3-1.75.5-.16C747,435.5,744.4,444.52,740.86,447.13Zm7.33-16.45-4.8,1.91q2.25-8.13,4.49-16.26l4.3-.67Zm4.16-15.62-4.25.83,4.5-16.26,3-.08Q754,407.31,752.35,415.06ZM755.81,399l-2.93-.13q1.64-7.77,3.29-15.52l1.94,1.54Q757,391.89,755.81,399Zm2.36-15,.11.32-.16.06-1.4-1.54c-1.07-2.05,2-10.78,2-13.84C760.37,370.88,758.72,381.86,758.17,383.92Zm1.5-14.94.1.33c-1.49-1.8-.13-4.5,0-6.14C759.74,365.11,759.7,367.05,759.67,369Zm-1-1.85-.28.27-4.81-2.6,3.15-11.5,3.33,3.62C759.64,360.32,759.17,363.73,758.71,367.13Zm1.72-10.86,0,.38-3.45-3.94,2.73-7.21c1.14.4,2.26,2.38,3.07,3.35C762,351.32,761.2,353.8,760.43,356.27Zm2.71-4.48-.17,0c0-4.43,3.2-6.71,4.61-10.34C769.17,342.6,764,350.65,763.14,351.79Zm12.7-22.17c3.13,1.79-6.27,12.61-7.68,14.22C767.85,337.62,773.72,334.58,775.84,329.62Zm-5.05,11.74.05-.38.17-.05Zm.38-.48,3.63-5C775.31,336.63,772,340.13,771.17,340.88Zm15-17.86L776,335.16c2.16-6.29,9.14-10.55,11.78-16.63C788.92,319.31,786.74,322.33,786.17,323Zm1.8-1.12.06-.38.17,0Zm.39-.49,12.48-15.59.16-.05C800.14,310.19,791.8,318,788.36,321.41Zm12.79-14.07c1.44-7.3,14-15.93,17.71-22.88,1.93,1.39-1.42,5.21-2.45,6.39Q808.78,299.1,801.15,307.34Zm14.63-13.4L803.5,305.68l14.55-15.9C818.81,290,816.26,293.47,815.78,293.94Zm10.28-12.35,19.59-21c1.66,3.79-2.61,6.83-5,9.2q-11.25,10.76-22.48,21.53C819.48,287.31,823.18,284.82,826.06,281.59Zm.63,2.5L844,267.29l.11.33a13.24,13.24,0,0,1-3.46,4.37ZM870,247.52l-26.23,21.67c1.39-3.52,4.7-5.77,7.74-8.46l23.73-21.58-.33,1.19A15.76,15.76,0,0,1,870,247.52Zm29.74-24.24-4.22,3.17L873.79,244.3c1.2-9.64,22.27-20.83,28.69-29.15A45.36,45.36,0,0,1,899.69,223.28Zm.82-.81q1.61-4.22,3.23-8.45l21.36-18.28.16-.06C922.81,207.45,909.66,214.19,900.51,222.47Zm25.74-27.65,18.9-16.41c1.44,6.81-17,20.66-22.57,25.73Q924.41,199.48,926.25,194.82ZM943.07,186c1.07-2.82,2.15-5.63,3.23-8.45l19-16.24q-1.1,3.33-2.18,6.66Zm37.81-33.9q-8.48,7.33-16.93,14.69c1.33-3.83,11.24-11.21,15.24-14.32l1.63-.53Z"/><path class="cls-1" d="M547,549.06l.21.63c0,.23,0,.47,0,.71l-.27.27-2.33-1.06c-.52-.13-.18-.51-.2-1.2l2.5.61a8.81,8.81,0,0,0-5.22-1.17c-7.31,8.53-12.88,17.89-19.53,26.72-5.68,7.54-12.52,13.95-18.78,21.25l-11.76,13.92c-2.26,1.76-6.29,2.57-9.49,3.61-7.49,2.42-16.47,4.74-22.31,8.65l-18,13c-2.25,1.57-4.6,3.07-7,4.51,2.12-1.13,4.47-2.14,5.9-3.43.44.21.2,0,.54.54l-10.49,6.11a6.83,6.83,0,0,1,2.09-2c-4.9,2.87-10,5.58-15,8.4L391,661.6l-11.51,4.63c-7.18,3.69-15.16,6.18-22.92,10.12l-14.13,5.47L299.85,701l-21.77,9.21-46.42,19-27,10.2c-3.28,1.67-6.62,3.24-10,4.75l9-3.89.37,1.14-25.41,9.66,9-3.87c-17.34,7.25-35.37,13.33-51.54,22l-16.53,7.51c-7.63,4.25-16.39,7.41-24.35,11.85C84.51,794.44,73.11,800,62.86,806c-7.64,4.47-14.62,7.36-20,11.47,3.54-2.18,8.69-3.29,12-6l.81-.27c-1.52,4.58-9.93,7.52-16.06,9.53a6.28,6.28,0,0,1,.72-1.12,23.8,23.8,0,0,0-6,8.95c-3.07,8.07-8.16,17.51-2,29.72,1.44,2.82,2.89,5.47,4.35,8-1.09-2.12-2.18-4.25-3.28-6.37L58,852.37c1.37,2.38,2.74,4.77,4.12,7.15L38,868.39l.27.46,21.85-8.15,2.45-.79q2.61,3.3,5.21,6.62L43.88,877.88l.28.45,23.59-11.42,5.43,5.65.16.49L50.07,886.54l-5.9-8.2c3.72,5.84,7.45,11.58,11.08,18.08,2.84,5.08,4.69,10,7,14l-2.7-6.3,19-13.74.65-.22c-.77,2.84-1.53,5.68-2.3,8.52l-14.3,12.2-.09,0c.07.13.15.26.23.39L77.19,898.9l7.34-.21L66.87,915.6,63.21,912a16.33,16.33,0,0,0,9.39,7.39c9.49,2.83,21-2.8,30.29-8,20.06-11.2,38.21-22.66,56.62-34.93,41.73-27.79,79.88-56.34,120-84.84l61.07-40.16c12-7.93,24.6-13.92,37.75-21.24a24.14,24.14,0,0,1,3.43-1.58c-2.3.55-4.44.74-6.08.09a32.76,32.76,0,0,1,9.8-1.54l.27.27-.89.29c8.45-1.74,15.62,2.14,22.55,2.46L436,730c10-.85,21.95-5.32,31.4-10.15L477.56,716c4.9-2.51,11.93-5.25,17.39-6,5.91-.79,6.87,1.22,11.39,2.28,6.19,1.45,14.87,1.12,20.95-2.8,2.26-1.46,4.64-3.87,5.06-6.15-.15-1.22-.31-2.44-.46-3.65-.33-7.73-6.38-9.62-12.18-11.42-5.59-1.73-10-5.81-16-7.1-4.09-.88-9,1.47-13.77,2.11-6.47.85-12.32.54-18.28,1.57-.47-10.5,8.7-13.83,17.46-19.73,6.57-4.43,10.81-10,14.76-15.79,1.5-2.19,1.95-6.29,2.88-9.58a8.15,8.15,0,0,1-1.67,2.68L506.9,638c.17.13.19.4.13.76a7.43,7.43,0,0,1,1.8-3.19c.67-1.09,4.86-.17,6.63-.16,6.62,0,12.57,2.52,19.88.62l.06.16c-.54,1.07-1.16,2.18-1.8,3.35l.56,1.2q-1.54,3.59-3.11,7.15c-.62-3,2.08-5.54,2.5-8.27-2.88,5.25-6,11.46-2.15,18.27,1.22,2.16,2.35,3.67,4.36,4,3.87.65,6-2.95,7.55-5.15,1.4-2,2.34-4.29,3.54-6.38l2.24-2c3.63-4.38,8.79-9.89,10.2-15.4l-.35-3.86a16.61,16.61,0,0,0-.89-4.95l-2.12,1.22-5.85-8,2.14-1.77.49-.16,5.23,8.47c-1.1-2.88-2.94-4.92-4.85-8.41l-2.22-8L547,605.18,545,602.06c-2.41-3.46-6.32-8.57-10.36-8.57,4-11.29,13.06-20,15.88-31.87C551.7,556.46,550.57,551.34,547,549.06Zm-3.75-.44.65-.21v1.09l-.65.21Zm-.23,1.52.49-.16-.18,1.68-.27.27C543,551.34,543,550.74,543,550.14Zm1.25,0,2.49,1L547,551l-1.55,2.49-.44.86-1.67-1.26ZM539.62,656l-1.18-1.43,4.45-5.77C544.48,651.06,541.58,654.94,539.62,656Zm1.19.88-.11-.33L543,654C543.33,654.37,541.51,656.47,540.81,656.87Zm-2.69-2.75-.17.06c-1-.81-2.08-1.62-3.13-2.42l3.6-6.76,4.59,3,0,.16Zm-.44.33.05.16-2.47,3L535,658l-1.94-2.08,1.34-3.69Zm-2.17-25.13-1.52-.23c.11-1.36.21-2.72.31-4.08l1.14.18A5.55,5.55,0,0,0,535.51,629.32Zm-6.42,67.28c0,1.45,0,2.9,0,4.35l-2.66-.41-.39-4Zm-3-.46-.95-2.95,1.68.18,2.1,2.58,0,.16Zm3.65,5.68,1.13.72-1.49,2.65C528.92,703.61,529.38,703,529.7,701.82Zm-3.63-1.71L522,699.8l-.24-3.54,3.53.31C525.86,696.89,525.78,698.93,526.07,700.11ZM69.33,829.37l-16.91,6.91c-.15-2.54-.31-5.07-.47-7.61l20.73-9q.7,3.82,1.4,7.67C73.4,828.45,70.81,828.63,69.33,829.37Zm5-1.42c.76,2.52,1.52,5,2.27,7.57l-21.93,8.72c-.75-2.53-1.51-5-2.26-7.58L74.13,828Zm76.53-48.77c1,2.45,2,4.91,2.93,7.36l.05.16-22.3,8.12-4.25,1.37q-1.44-3.6-2.87-7.2Zm-26.55,9.49-1.8-5.56,26.18-9.55c.62,1.72,1.23,3.45,1.85,5.18ZM385.32,667.59l1-.16,5.34-1.91.18,3.92-13.4,3.79c.06-1.1.13-2.21.19-3.31Zm-5.5,1.41-.05-.16,2-1.72L391,663.4l.7,1.58Zm62.64-27.48c.34.86.68,1.71,1,2.57L433,649.64l-1.23-2.13ZM431.6,647l-.37-1.14,10.71-6,.37,1.14Zm3.53,6.45.05.16-13,5.65c-.42-.77-.85-1.53-1.28-2.3l-.21-.65,11.47-5.88C433.42,650.54,434.38,652.45,435.13,653.47ZM543,553.56l1.14.72.86.44-2.15,3.41-.33.65-1.34-1.92Zm-.76-.11v-.54C542.5,553.26,542.34,553,542.23,553.45Zm-1.54,2.49-.17,0,1.17-3.09C541.36,553.91,541,554.92,540.69,555.94Zm-.59-.72-.06.38-.59-.71,1.32-2h.54Zm.31,1L537.89,559l2-2.65Zm-2.9,2.21-.43-.77-.05-.16,1.87-2.05.59.17.33.44Zm3.11-1,1.5,1.86-4.18,6C537.62,560.52,538.56,560.72,540.62,557.4Zm-5.25,3.87-.06-.17,1.81-1.12.32-.11C537.16,560.56,536.34,561,535.37,561.27Zm.43.22,1.47-.48.05.17c0,1.56,0,3.11.07,4.67l-4.51,0,1.83-3.85Zm1.42,5-.27.27-3.43,6.71-3.73-2,2.7-5Zm-3.92,7.41-2.49,4-.44.87-3.29-2.37-.44-.22,2.6-4.27Zm-3.15,5.35-2.53,3.89-.56,1.08-3.73-2.58-.32-.44,3.09-4.43Zm-3.74,5.19.43.22-4.57,6.53-.22.43-3.93-3.78,4.51-6.16Zm10.72,40.42q-2.49-3.8-5-7.6l3.73-3.55.33-.11,4.26,9.28-3.17,1.93Zm2,2.25-1.9.25v-1.09Zm-2.53-2.25a3,3,0,0,1-1.29-1.76Zm-23.24,3,3.92-6.86,4.05-2.58q1.77,2.14,3.55,4.27l-10.07,6.87Zm1,1.86L511,632.19l2-3.89Zm7.35-25.32.16.49-2.92,4.38-.33.11-4.75-3,2.17-5.58Zm-8.55-10.24,4.46-5.77,4,3.4.16.49-5.83,7.67Zm6.66,21.69-4.13-1,2.87-4.54c1.49-.17,2.3.52,3.64.63l.48.39Zm1.28,2.3L518,620l1.83-3.29ZM515.22,614l-.23.44-6.7-3.43q2.4-2.06,4.82-4.09c1.6.11,3.84,1.93,5.08,2.87Zm-2.05-8-2-1.33-1.52-.77,1.38-2.43,4.25-.84C515.24,602.23,514,604.78,513.17,606Zm-1.25,0,.86.44-5,4.14c-.3-1.29-.59-2.58-.89-3.86l2.25-2.54Zm2.69,8.88-5.56,7.4-5.57-2.17-1.36-.83q2.79-4,5.56-7.94Zm.43.22,4.5,1.08L515,623.48l-5-.91-.27-.28Zm20.84-2-4,3.28c0-1.25-.09-2.5-.13-3.75-.46-.19-.68.68-1.21,1.3-.06-.77-.13-1.53-.19-2.29l1.91-1.34,1.36-.26Zm-2.56-6.22c1.45.44,4.1,3.1,4.91,4.56l-1.8,1.13-.38-.06C534.62,610.45,533.7,609.69,533.32,606.9Zm.23,17.45c-3.09-.12-5.92,1-7.15-3.1C529.69,621.67,531.23,622,533.55,624.35Zm-6.71-3.43.06-.38a4.31,4.31,0,0,1,2.55.62Zm.66-.75a5.72,5.72,0,0,1,.56-1.63c2.24.05,2.4,1.77,5,.92.3.56.6,1.13.91,1.69l.21.65Zm5.23-1.15h-.55l.06-.38.33-.1Zm-1.92-4.8c.64,0,1,4.06.94,4.57l-.55.54-2-1.16-.65-.33Zm-5.12,7.07-.44.87L521.92,618l7.39-5.64C531.92,613,526.64,620.5,525.69,621.29Zm1.07,2.73L524,624c.62-.69,1.41-1,1.76-1.84C526.31,622.43,526.54,623.17,526.76,624Zm-5,1.26.13,3.21-4.08.23C517.93,627.23,520.74,626.33,521.75,625.28Zm1-.7,3.43,0,.6.17c-.13,1.3-.25,2.6-.37,3.91l-4.13.07A8.71,8.71,0,0,1,522.78,624.58Zm4.52,0,6.24.33.33-.11-.37,4.45-6.57-.22Zm4.37-2.68,2.55.62a2.33,2.33,0,0,1,1,1.31l-.43.33C533.53,624.22,532.32,622.84,531.67,621.89Zm3.89,2.54c-.32.15-.27.12-.71,0Zm1-11.35,2.14-1.23q2.78,4.42,5.57,8.85l-3.55,1.87Q538.66,617.83,536.58,613.08Zm1.93-2.43-.16.05-5-4.88,1.68-4.88,3.93,3.79-.54,5.59Zm-5.39-5.49-.38.49-4.07-.85-.49-.39q1.44-2.26,2.87-4.54a6.59,6.59,0,0,1,3.31.74l.33-.11C534.17,602.06,533.64,603.61,533.12,605.16Zm-.44.87c.08,1,.16,2,.25,3-.3.85-1.74,1.7-2.74,2.15l-2.72-5.62.38-.49Zm-2.93,5.46-8.1,6.23-1.24-1.58c1.33-3.76,4.82-6.36,6.56-9.89C528.23,606.91,528.93,610.13,529.75,611.49Zm-7-.82-3.52-.85-.27-.27,3.19-4.65,4.61.86C525.48,607.4,524.14,609,522.8,610.67Zm-.7-6.64-5.73-3.75,5.62-7.77a9.76,9.76,0,0,1,4.43,2.54c2.49,1-3.12,6.71-4,8.88Zm-4.52-16.78-1.88-3,4.29-5.17c1,.15,1.77,1.51,2.37,2.3Zm-.22.43-4.57,6c-.53-1.1-1.07-2.19-1.6-3.28l4.13-5.67Zm-2.12,11.89.16.49-4.25.83-1.93-3.17,3.18-3C513.63,595.25,514.45,598.29,515.24,599.57Zm-4.36,1.59-1.77,2.37-2.48-2.08-.32-.44c.79-.92,1.58-1.83,2.36-2.75C509.41,599.22,510.14,600.19,510.88,601.16ZM508.73,604l-2,2.1-3-1.55c.7-1,1.4-2,2.09-3C506.83,601.84,508,603.19,508.73,604Zm-2.2,2.7c.3,1.29.59,2.58.89,3.86l-.16.06L501,609.06l-.06-.16,2.21-3.79Zm.51,4.35.27.27-5.73,8-6-3.48,4.67-6.21C502.72,609.37,504.71,610.9,507,611.07Zm-5.68,8.7q-2.67,4-5.35,8.05l-.33.65-5-4.34q2.26-3.89,4.52-7.79Zm14.79,83.73c-.82.34-1.69,0-2.72,0,.29-1.54.57-3.07.86-4.61l2.28.35Zm.85-4.07,1.47.06c0,1.27,0,2.54,0,3.81l-1.85.42Zm-8.35-1.82,5,.92.27.27c-.3,1.48-.61,3-.91,4.45l-5.54-.92C507.86,700.76,508.25,699.18,508.65,697.61ZM507,702l-8.1.09c-.29-1.66-.59-3.31-.88-5l10.05.36.27.28C507.87,699.13,507.43,700.54,507,702Zm1.89-4.77c-.08-1.72-.15-3.44-.23-5.17l4.72,1.19c.77.57.38,3.31.61,4.68Zm-.7-.5c-.43.55-8.57,0-10.17-.14l-.82-5.34,10.7.7C508.4,692.2,508.43,695.72,508.17,696.68Zm-10.71-.15-7.89.75-.6-5.23,7.83-.9Zm-8.43.74-6.42.81-.66-4.84,6.31-1.14.27.28C488.7,694,488.86,695.64,489,697.27Zm-.06.38,1.64,5.07-6.09.71c-.91-.51-1.55-3.46-1.92-4.8Zm-6.9.43-4.63.77-.33.11c-.16-1.63-.33-3.27-.5-4.9l4.79-.82ZM373.05,709l-1.89-8.07,7.61.07q.41,3.76.8,7.51l.11.33Zm6.41.27c.57,2.52,1.15,5,1.72,7.57l-5.65.38q-1.17-3.85-2.32-7.73Zm104.35-84.5c-.17-.73-.35-1.45-.52-2.18l3-4.59C487.5,618.73,484.58,623.72,483.81,624.72Zm6.15-.54-3.2,5.19-.44.86c-.75-1.56-1.5-3.13-2.24-4.69l2.6-5.36Zm-8.47-1.06-.16.06-1.88-3-.05-.16,2.07-.85,4.42-1.43A13,13,0,0,1,481.49,623.12Zm.87-.1.49-.16.63,2.51-3.17,1.93c-.08-.82-.16-1.63-.25-2.45Zm.63,3.05.65-.21c.75,1.57,1.49,3.13,2.24,4.69l-4.67-.47-.74-2.29Zm2.67,4.92-5.16,5.28-2.57-3.5,2.79-2ZM465,642.54l4.08,5.36-8.33,2.16L457,643.88Zm-7.83.91,2.32-4.55,4-.94c.49,1.35,1,2.69,1.49,4Zm18.47-17.17.29,3.15-6.16,2.18c-.11-1.11-.23-2.22-.35-3.32C470.05,627.35,474.08,626.72,475.65,626.28Zm-5.94,1.19.06-.38,2.34-.57Zm1.4,8.22,6.21-2.55,2.69,3.29.05.16-6.92,2.6Zm5.56,9.4.06.17-7.15,2.49-3.75-5.47,1.25-.59,5.89-1.9Zm-.29-15.44,3.11-1.54H480l.69,2.13-2.9,2.2-.16,0C477.23,631.55,476.8,630.6,476.38,629.65Zm.05-.38-.24-3,1-.69,2.13-.69.51,2.72Zm-.33.65c.37,1,.75,1.93,1.12,2.89L471,635.37c-.41-1.08-.81-2.15-1.22-3.22Zm-3.45,9.43-.11.22-7,2.27L464.07,638l6.43-1.9c.38-.27.07-.05.55,0C471.58,637.17,472.11,638.26,472.65,639.35Zm-8.74-1.87-1.11-2.89,6.43-2.45c.38,1,.75,1.93,1.12,2.89l.32.44Zm2.18,18.44.43.22-7.21,3.42-7-5.5,7.47-3.14.38.06C461.4,650.52,465.2,654.58,466.09,655.92Zm-4.68-5.53c8.95-.65,6.13-4.19,12.47,2.83l.05.16L467,656Zm8.71-2.1,6.44-2.44.49-.16c1.21,1.72,2.43,3.43,3.65,5.15l-6.11,2.33Zm3.34-8.66,6.06-2.5.38.06c1.07-.52,5.07,4.48,6,5.65l-8.66,2.26Zm-.68-15,6.36-.44C477.36,625.85,474,625.4,472.78,624.68Zm.38.6-.33.1h0l-7.49,1.9,5.4-2.29.82-.26,1.27.65Zm-5.4,1.74-5.67,2,.28-.82Zm.86.44c.15.34-4.89,2.38-6.49,2.83C463.24,628.74,467,628.76,468.62,627.46Zm.11.87.29,3.16c-.65,1.16-4.74,2.14-6.38,2.61-.23-1.08-.45-2.15-.68-3.22ZM458,632.53c.54-1.07,2.42-1.51,3.39-2.36C461.31,631,459.19,631.93,458,632.53Zm2.89-1.11.66-.21c.2,1,.41,2,.62,3l-2.51,1.18L458,636c-.13-.8-.27-1.6-.41-2.4C458.07,632.63,460,632.14,460.87,631.42Zm1.44,3.32.9,2.78-3.82,1.06-1.17-2-.06-.16Zm-3.24,3.94q-1.33,2.33-2.65,4.65L453.57,639l3.5-2,.87-.1Zm1.2,11.54-8.41,3.62-4.62-5.37,8.57-4.22C457.3,644.29,459.57,648.69,460.27,650.22Zm-1.72,9.22.33.44-9,4.54-8.76-5.84,9.88-4.1C453.62,654.17,456.34,658.45,458.55,659.44ZM390.09,694l12.49,1.2q-1,3.66-2,7.32l-11.19-1.08Q389.75,697.76,390.09,694Zm-1.27,7.28-9.12-.85c-.89-.52-.48-4.84-.81-6.42,2.13-.47,9-.53,10.7.15Q389.22,697.76,388.82,701.32Zm48.76-6.2-7.05-1.69,5.66-7.61,6.35,1.74Zm5.55-7.39,4.67,1,.33-.11c-1.18,2-2.36,3.89-3.53,5.84-.7,1.5-4.32.53-6.26.76Zm.85,8.21-1.59,7.92-7.94.58c1.11-2.88,2.23-5.77,3.34-8.66Zm.66-.21,5.76-.06c-.38,2.36-.77,4.71-1.15,7.06-.69,1-4.77.8-6.48,1.19C443.39,701.19,444,698.46,444.64,695.73Zm.22-.43-.05-.17,3.91-6.32,4.29.42-1.95,5.15C449.93,695.92,447.06,695,444.86,695.3Zm8.8-5.74,4.19.09.27.28-1.41,5.15-5.54.17Zm-4.12-1-.27-.28,3-2.42,4,0,.05.17-2.52,2.8Zm-1-.23-4.5-1.07-.32.1-.06-.16,5.91-4.08.82-.26,1.77,2.68Zm-5.64-1.25-5.8-1.73-.38-.06,7.71-5.2,4.17,1.72,1.14.72Zm-15.56-4L427,683l10.55-7c1.56-.15,4.56,2,5.52,3.1l1.08.55C438.74,685.34,433.45,685.52,427.36,683.07Zm8,2.3.27.28q-2.7,3.68-5.39,7.34l-9.71-2.1-.27-.27q3-3.51,6-7C429.51,683.15,432.27,685.26,435.33,685.37Zm-6.11,7.94.27.27q-1.75,2.92-3.53,5.84l-9.54-2.15c1.08-2,2.17-4.07,3.26-6.11Zm-13.29,3.58L403.39,695q1.42-3.16,2.83-6.33l13,2.29Zm-24.65-9.19.75-4.94,18.78-2.28q-2.43,3.67-4.85,7.35C403.74,689.08,394.53,687.5,391.28,687.7Zm14.18.83.05.16L403,694.76l-12.49-1.2c.2-1.81.39-3.62.59-5.43Zm-2.29,6.88,12.21,2-2.06,5.37L401,702.62C401.71,700.22,402.44,697.81,403.17,695.41Zm12.7,2.4c2.57-.17,7.43,1.16,9.6,2.31l-3,3.13-8.36-.18-.27-.28Q414.86,700.3,415.87,697.81ZM426,700.13l6.11,3.8,1.3.67-9.16,3c-.52-1.22-1-2.44-1.54-3.66Zm1.3.12-1.08-.55,3.81-6.11,6.77,2,.33-.1c0,2.3-2,6.62-3.23,8.45l.11.32Zm22,3.19c.1,2.55.21,5.11.31,7.66l-6,.87-.33.11-.69-7.73-.05-.16-.17,0c.11,2.56.21,5.11.31,7.67-.83,1.21-5.61,1.18-7.57,1.72l-.84-8.75Zm-5.9,9.13,5.82-1c.77,1.26.75,3.22,1,4.74l-5.65.38C444.17,715.33,443.79,714,443.4,712.57Zm6.58-.87,6.38-1.51,1.26,4.46-6.86,1.68Zm.12-.76-.42-7.45,5.93-.65c.7,1.33.92,4.92.65,6.47C455.63,710.35,451.56,710.72,450.1,710.94Zm-.36-7.83q.51-3.69,1-7.38c1.68-.23,4.43-.47,5.81.11-.25,2.19-.51,4.38-.76,6.57Zm7.35-7.43,4,0c0,2,0,4-.05,6l-4.46.72C456.72,700.13,456.9,697.91,457.09,695.68Zm4.56.15,4.19-.45c.13,1.88.25,3.77.38,5.65l-4.35.51-.33.1Zm-.43-.76-3.91.18c.43-1.83.86-3.65,1.3-5.48l3.31.19C461.69,691.66,461.45,693.36,461.22,695.07Zm-6.68-6.15-.33.1,0-.16,2.74-2.69,3.26,0,.27.27-1.81,2.21C458.13,689.56,455.7,689.27,454.54,688.92Zm3.45-3.29-.05-.16,1-.7c1.59-.43,2.29-.08,3.59-.07C461.7,686.32,459.34,685.56,458,685.63Zm-5.05-.53c-.78-.27-1.52-1.44-2-2.25l8,1.38C457.54,685.76,454.56,685.66,452.94,685.1Zm-7.51-5.34,9.64-1.49,3.39,3.78C453.2,682.39,449.15,682.36,445.43,679.76Zm9.32-1.93c-8.06,1.51-10.7,2-15.91-2.26l13.24-3.2,2.4,4.64Zm-2.83-6L438.47,675c-1.89-.08-5.27-3.42-6.59-4.74l13.3-4.12,4.63-1.31C450.51,667.16,451.22,669.52,451.92,671.88Zm-3-7.53.44.23L431.45,670l-5.39-5.48,12.27-5C441.31,658.46,447.36,662.57,448.94,664.35Zm-11.4,11.1L426.6,683l-13.89-2.74-.33.11,17.92-9.4,1.14-.37ZM426,683.17l.05.16-6.21,7.07-12.75-2-.49-.38q2.43-3.68,4.85-7.35Zm-15.09-3.07-18.66,2.06-.05-.16v-6.15l16.34-4.2Zm-19.2,2-12.51,1.52-.33.11-.18-4.46,13-3.31Zm-.5.71.33-.11-.75,4.94-11.91.6c0-1.32,0-2.65,0-4Zm-.64,5.26c-.23,1.7-.47,3.41-.7,5.11l-10.76.23c-.08-1.55-.16-3.09-.23-4.63Zm-12,5.33-8.81.68c-.18-1.32-.37-2.65-.56-4l8.65-1.17.33-.11Zm-.05.38c.1,2.19.21,4.39.32,6.58l-7.78,0-1.14-5.77Zm.91,7.29,9.34,1-.18,7.28-8.31-.57C379.94,706.24,379.65,703.68,379.37,701.12Zm9.83.8L400.39,703q-.58,3.25-1.15,6.51l-10-.2-.33.1C389,706.92,389.1,704.42,389.2,701.92ZM401,703.16l12,.28q-.62,2.82-1.25,5.64l-11.74.54-.33.11Q400.33,706.45,401,703.16Zm12.55.28,8.43.35,1.59,3.82L412.61,709l-.26-.28Zm10.72,4.66,9.49-3.06.05.16c.19,2.83.39,5.66.58,8.48l-9.91,1.76-.22-.11Q424.26,711.71,424.25,708.1Zm10.28,6.07,3.09,6.77-11.81,2-1.74-7Zm.54,0,7.35-1.29c.79.43,1.32,2.78,1.65,4l-6.18,3.8Zm3.75,6.55,5.35-3.53,6.09-.17,0,2.88-11.42,1Zm11.93-3.86,7-1.73,1.72,2.52.05.16-8.55,2C450.92,718.87,450.83,717.87,450.75,716.87Zm7.9-1.28-.22-.66,2.95-1.49c2.07-.48,3.06.61,4.78.8l.27.28L460,717.66Zm-.54-1.1c-.37-1.5-.73-3-1.1-4.52l4.31-1.21c.22,1.25.44,2.51.67,3.76Zm-1.2-4.84-.54-6.69,4.46-.72q.33,3,.65,5.93Zm4.63-7.46c6.52-.19,4-.78,5.33,5.32l-4.84.66C461.86,706.18,461.7,704.18,461.54,702.19Zm5.22-.61,4.9-1,.82,5.33-5.12,1.48Zm5.45-1,4.57-.93.93,5.12L473,705.88Zm5-.71c.57-.75,3.39-.84,4.85-1.21.46,1.6.91,3.2,1.37,4.8l.11.32-5.12.94C478,703.06,477.61,701.44,477.21,699.83Zm-.92-5.66c.07,1.54.15,3.08.23,4.62-.18.68-3.19.89-4.31,1.21-.07-1.72-.15-3.44-.22-5.16l4.24-.84Zm-4.73,5.5c-.56,1-3.44,1.05-4.79,1.37l-.33-5.49,5-.72ZM466,694.78l-4.19.45c.29-1.71.57-3.43.86-5.15l3.7-.29Zm-3.71-5.3-3.26,0-.1-.33,1.87-2.59,1.85.12Zm-.4-3.49-.33.11,2-1.18,2.06.24.27.27C464.26,686,463,686.44,461.9,686Zm-8.83-3.28a15.4,15.4,0,0,1,9.88,1.5C459.59,683.8,456.12,683.77,453.07,682.71Zm2.76-4.33,7.16.94,2.31,3.77C460.81,682.47,458.91,681.86,455.83,678.38Zm-.54-.54-2.67-5.46,10,1.83.55,4.51Zm-2.5-6.06c-1.18-.67-2.07-5.08-2.55-6.76l13.33,4.36.27.27-.9,3.91C461.8,673.89,454.14,672.46,452.79,671.78Zm-1.68-6.86-.48-.39,8.4-4.16c2,0,6.55,3.25,7.84,4.69l.65.33-3.67,3.72Zm9.72-4.59-.65-.33,6.22-3.1c2.11-.25,4.61,3.11,6.22,4.14l.32.43-5,3.6Zm6.88-3.85,5.24-2.24,1.63-.52,4.26,4.22-5.41,3.37Zm7.42-2.76,6.11-2.34c.56,1.2,1.13,2.41,1.7,3.61l-3.88,2.52Zm8.14,1.7,5.15.87-4.23,4.8L479.76,658Zm.38-.48-1.92-3.71,7.34-.75.05.16-.48,5.21Zm-2.25-4.15q-1.81-2.58-3.65-5.14l8.23-2.48,3,6.6.06.16Zm-.63-14.25,5.21-5.11c1.77.56,4,3.74,5.28,5.15l-4.94,5.94Zm5.92-5.71c1.22-2,2.43-4,3.65-6.05l5.07,4L492.59,634l-1.11,2.16Zm4.43-8.65-.78,1.51-3.27-4q2.12-3.23,4.24-6.43l3.13,2.42C494.74,617,492.3,621.16,491.12,622.18Zm-12-2.61-1.46-1.7-.05-.16,2.73-1.06c2.54-.74,3.94.09,6.14,0l.27.27Zm1.65,3.44.16.49c-2.13.88-6.52,1.06-8.81.68-.85-.19-1.41-1.07-1.89-1.92l8.72-2.09ZM471,624.33l.06.17-8.84,3.4c-.35-.73-.71-1.46-1.07-2.19l8-3.3C470,622.63,470.51,623.61,471,624.33Zm-10.27.07-.06.93-6.61,3.58c1.4-2,3.74-2.65,5.8-4.4l.82-.27Zm0,1.63c.33.68.67,1.35,1,2l-9.33,4.11C452.62,629.28,457.58,627.19,460.76,626Zm-.3,3,1-.32.05.17c-1.35,2.07-6.36,3.33-8.57,4.76l-.48-.93Zm-5,4,2-.64.06.17-4.87,2.83.12-.76C453.25,634,454.6,633.64,455.42,633Zm1.46.61.69,2.67-4.32,2.3c-.33-.86-.67-1.71-1-2.57ZM456,643.82l-9.22,4.43L444.18,644l8.74-4.81ZM451.37,654l-10.74,4.19-4.47-4.33,9-4.54,1.63-.53Zm-11.45,4.24.05.16-14.4,5.74-3-4.26-.05-.17,11.78-5.43,1.15-.37ZM422.08,660l3,4.26L409,671c-.47-1.65-.95-3.3-1.42-5Zm3.49,4.65,5.38,5.48-19.43,9.72-2.43-8.07C410.55,670.25,422.56,665.63,425.57,664.69Zm-19,0,.32,1-12.31,3.26,11.19-5.61.49-.16Zm.48,1.47,1.47,5.12-16.34,4.2c.05-1.88.11-3.76.16-5.65ZM391.88,670l-.1,5.27-13,3.47c-.18-1.68-.37-3.37-.55-5.06Zm-13.72,9-10,2.51c-.38-1.56-.77-3.12-1.15-4.68l10.79-2.95Zm-.06.38c.07,1.54.15,3.08.23,4.62l-9.53,1.81-.33.11c-.18-1.32-.37-2.65-.56-4Zm.17,5c0,1.32,0,2.64,0,4L369,689.67l-.51-3.27ZM368,686.72c.15,1,.31,2.07.46,3.11l-9.37,2.3-.95-2.94c2.58-1.65,6.81-1.83,9.81-2.63Zm.4,3.49c.23,1.25.45,2.5.68,3.75-.89,1.49-6.62,2-8.72,2.64l-1.27-3.92Zm-.2,4.94,1.14-.37c.36,1.87.73,3.74,1.09,5.61l-8.54,1c-.59-.38-1.06-2.79-1.38-4.25Zm1.9,5.89.33-.11,2,8-8.43.74q-1.15-3.87-2.32-7.74Zm-55.74,27.6c1.13,2.76,2.27,5.52,3.4,8.29l-24.87,9.67L288.87,738Zm-25.63,9L286,729l25.25-9.07c1,2.74,2,5.49,3,8.23Zm60.51-31.84.16-.06q1.35,3.9,2.71,7.8l-16.91,6.37c-.94-2.53-1.88-5-2.81-7.58Zm-16.85,6-1.26-5,16.63-6.1,1.48,4.58Zm9.08,23.61.16.49-19.75,8.19-3.36-7,19.91-7.7ZM339.06,729l16.74-6.32,3.37,6.5-16.69,6.48-.16,0C341.23,733.44,340.15,731.2,339.06,729Zm-147.3,67.86,33.54-13q1.95,4.08,3.89,8.14l-36.68,17.28Zm-3.5-10.25L220.65,775c2.1,1.81,3.07,5.58,4.33,8.36l-33.27,12.74Zm37.79-2.11-.26-.81,35.4-14.52,1.15-.37q1.79,3,3.59,6.06l-36.3,16.8Zm37.15-15.26-.21-.65,31.92-13,2.12-.69,3.11,5.14-33.72,14.69Zm33.51-14.81-32.89,13.35-1.31.42L258,760.79l-.05-.16,33.22-12.91.38.06,1.25-.59,3.75,6.56Zm-34.53,13.88-36.71,14.94q-2-4.23-4-8.46l36.16-13.86Q259.9,764.59,262.18,768.28Zm-41,6-4.48-8.85,35.62-13.86,4.43,8.14.59.71Zm-.49.16L188.1,786.09,184.27,777l31.79-11.18Zm-33,11.77-30,9.89L154.45,787l29.17-9.79Zm-29.93,10.22,30.09-9.73L191,796l.1.32L160.2,806.49Zm15.87,6.06,17.66-5.71.54,12.29.11.33L159.77,818c.19-3.68.39-7.35.59-11Zm-24.68,30.38-.05-.16,10.62-14.09,31.27-8.31,0,.17L162,833.74Zm12.66,1.15L143,850.52l-8.13-3.33,13.23-13.85Zm-2.47-16-25.28,6.73-.62-9.2,26.71-8.45Zm-.49.7-10.35,13.82-17.14,2.29q1.28-4.74,2.53-9.49Zm-11.33,14.68q-6.56,6.81-13.12,13.63l-10-1.45-.27-.27,6.89-10Zm-13.55,14-15.35,14L111.7,857l11.62-11Zm.48.38,8,2.84.48.39-17.31,15.71-6.48-5Zm8.72,3.5a16.87,16.87,0,0,1,7,3.71l1.08.55-18.51,15.92q-3.36-2.25-6.7-4.52Zm.66-.21,18.57-16.84,4.23,1.88q2.51,1.36,5,2.71l-20,16.4C150,853.74,145.56,851.33,143.55,851.07Zm21.39-16-2.22-1.27,29.19-23.7c1.87.53,6.74,6.09,8.3,7.79L172,838.45Zm27.73-25.4,36.46-17.39c1.29,2.47,2.57,4.95,3.85,7.42l-32.28,18Q196.68,813.75,192.67,809.72Zm37.17-17.44,35.75-16.8.66-.21c.87,1.58,1.74,3.17,2.62,4.75l.21.66-35.66,18.75Zm36.9-17.17,33.34-14.75c1.05.44,1.88,2.47,2.58,3.5l.16.49L269.68,780.3Zm30.78-20.43,0-.16,23.4-9.74.66-.21,2.78,4.7-23.73,10.38Zm23.9-10.44-24.22,10-4-7.21,22.91-9,1.8-.58,3.42,6.66Zm-3.14-7.47-3.4-8.29L335,720.72l3.35,8.13ZM314.72,728l-3.08-8.4,20.29-7.1.21.11,2.6,7.47Zm-22.29,18.76L257.79,760.3l-5.19-8.8,35.94-13.42Zm-40.1,4.48-7-8.38,40.18-13.71q1.48,4.3,3,8.61Zm-.32.11L216.34,765l-5.7-7,34-15Zm-36.38,13.74.05.17-31.79,11.18q-1.8-3.93-3.62-7.86L210.1,758Q212.86,761.56,215.63,765.08ZM183.3,776.26l.16.49-29.17,9.79-3-7.69,28.52-10.12Zm-26.21,19.49v.55l-26.66,9.16q-1.5-4.38-3-8.78L154,787.19C155,790.05,156.05,792.9,157.09,795.75Zm-26.46,10.36c2.05-1.37,7-2.12,10.53-3.76l16.08-5.56,2.37,9,0,.71L133,815.1Zm1.88,9.15-28,9.42-2.65-8.17L130,806Zm0,.55c.27,3,.53,6.09.79,9.13L106.64,833l-2-7.84Zm-31.31.37L74.63,827.3l-1.29-7.9L98.55,808Zm.22.65,2.59,8L77.22,835.31l-2.44-7.52Zm31.66,8.55c-.82,3-1.65,6.07-2.47,9.11-2.28,2-17.24,5-23.06,6.91l-.74-7.89Zm-3.19,10.24-6.61,9.72L106.93,849c.19-2.41.37-4.81.56-7.22Zm-7.6,10.59.06.16-11.08,10.44-6.89-1.2,2.5-6.23Zm-5.19,15.22.87.44L98.84,878.71l-3.18-9.81,15.16-11.22.49-.16Zm1.14.72L125,867l-17.55,17.24L99.11,879Zm7,5.33c2.31.11,5,3.14,7,4.25l-18.57,16.85-5.67-4.13Zm7.13,4.74c1.68.11,5.1,2.35,6.22,3.59l.87.44L119.2,892.54,114.07,889Zm.77-.43,18.29-16,5.91,2.61,2.65,1.49-20.15,15.91Zm19.17-16.13-.27-.27,19.65-16.29c1.62,0,4.72,1.71,5.79,2.82l3.47,1.77-20.2,15.74Zm22.53-15.78-2.38-1.21,27.84-20,.33-.11,5.92,6.57-25.33,18.31Zm26.39-21.72,31.31-17.7.65-.22,4,6.29-30,18.37Q204.16,821.54,201.18,818.16Zm32.72-17.8-.16-.49,35-18.54.65-.22,3,4.65-34.59,20.4-.16.05ZM270,780.74l32-15.58,1.31-.43,2.31,3.23-32,17.21C272.19,785.31,270.55,782.18,270,780.74Zm30.9-20.65,22.43-10,1.3-.42,1.83,2.84.15.49L304.56,763.6l-1.31.43Zm24.22-10.54-.05-.16L344.39,741l2,2.79.06.17-19.21,8.74Zm-.32-.44-2.78-4.7,18.66-7.66,1.3-.42q1.23,2.13,2.47,4.26Zm17.67-12.94,14.24-5.69,2.78-.89,2.58,3.5.05.16-17,7.13-.16,0Zm13.82-13.68,10.8-3.49,3.42,6.12-10.74,3.65Zm3.55-25.35,1.32,4.09c-1.84,2-8.92,3.11-11.39,3.86l-1.49-4.57ZM348.13,700l-1.11-4,11.72-3.43,1.05,3.81Zm13.13,2.08c.76,2.52,1.51,5,2.27,7.57l-10.9,3.71-2.71-7.8Zm2.43,8.07,3.24,8.34-10.47,3.38-.27.27c-1.14-2.76-2.27-5.52-3.41-8.29Zm9-.74q1.17,3.87,2.32,7.74l-7.56,1.18L364.18,710Zm-25.8-13.87-1.17-2.51,11.56-3.92.16-.06c.41,1.08.81,2.15,1.22,3.22Zm8.84,26.76-17,6.21-3.25-7.8,16.8-6.7C353.43,716.79,354.56,719.56,355.7,722.32Zm-8.06-22.14-16,5.73c.87-1.61,1.74-3.21,2.6-4.82l12.33-4.88Zm-13.93,1.07-2.53,3.89c-.65,1.68-16.11,4.23-19.4,4.83l16.39-9.09,5.49.21Zm-3.31,5.41c.46,1.78.91,3.56,1.37,5.34l-15.71,5.62L311.65,719l-1.23-8.27ZM311,719.26l-25.19,9.23-3.09-7.31,24.6-9.4,2.45-.8Zm-25.68,9.39-40.13,13.87-1.44-8.38,38.48-12.81Zm-40.67,13.87-37.47,8.14-.21-.11c-.3-1.65-.59-3.3-.88-4.95l37.17-11.3Q243.94,738.41,244.64,742.52Zm-38.23,8-30.29,8.54c-.45-1.19-.89-2.37-1.33-3.55l30.74-9.94C205.83,747.24,206.12,748.89,206.41,750.54Zm-30.14,9,29-8.11a9.48,9.48,0,0,1-2.23,2.43,14,14,0,0,0,3.59-2.69l35.51-7.51-32.36,13.9L199,757.27a4,4,0,0,1,1.38-1.65c-6.42,3.56-16.86,5.84-23.72,8Zm21.76-2,10.93.26-29,10.28-3.12-4ZM179.4,768.13l.06.16-27.49,10-.81.27q-1-2.56-2-5.13l27.2-9.16Zm-49.47,37.49L101.69,816l-2.6-8c1.06-1.34,4-1.28,6.06-2.5L124.57,798l2.23-.9C127.85,799.91,128.89,802.77,129.93,805.62Zm-6-16.31,2.7,7.26L99.05,807.3c-.8-2.27-1.59-4.55-2.39-6.82ZM96.5,800c-.33-1.76-.65-3.52-1-5.28l26.3-11.39,2,5.5L98.3,799.41Zm25.32-17.22-26.3,11.4L95.39,791l25-11.52.65-.21Zm-27,11.45c-.77,1.47-4.14,2.22-5.85,3.15l-15.83,8c.24-1.28.49-2.57.74-3.85l20.36-10.2.66-.21Zm.1.87,1.15,5.22-23.2,10.94L73,806Zm.32,6,.82-.26.32,1,2,5.67-25,11.35c-.19-2.28-.39-4.57-.59-6.85ZM72.31,812.33l.27,7L52,828.12l.72-6.73,18.61-8.91,1-.31ZM104,825.39l2.16,7.79-25.85,10c-1-2.45-2-4.91-2.93-7.36Zm2.16,8.33c.26,2.5.53,5,.8,7.51l-23,9.25-3.53-7ZM84.09,851l21.6-8.61,1.31-.42,0,.16-.45,7-19,7.76-3.48-5.74Zm22-1.32.16-.06c-1.29,6.24-7.82,9.75-15,12.8l-3.27-5.08Zm-2.62,6.44,7.22,1.1L95.29,868.3c-1.25-1.82-2.5-3.65-3.76-5.47Zm3.5,28.68-15.81,17-5.68-3.59q6.64-9.36,13.27-18.74C100.79,879.87,105.69,883,106.94,884.77Zm.26.27c1.85.28,4.38,2.71,5.79,3.91L96.7,905.05l-5.14-3Zm6.11,4.35,5,3.25.44.22-17.59,14.9-4.05-2.48Zm5.45,4,.49-.15,3.19,2,1.08.55-18.92,13L102,908l-.27-.28Zm.88-.64,20-16.4,3.79,2.21,2.16,1.11-21.66,15.67Zm20.64-16.61,20-15.85.49-.16,6.44,2.61,1.57.94L146,879.36ZM161.62,860l-.49-.39L181,844c3.07,0,5.41,3,8.34,3.44l.7.5-20.73,15.19Zm20.31-16.5,24.62-17.72c2,.22,5.36,3.94,6.8,5.39l-22.7,16.37Zm25.6-18,29.3-18.32c1.95-.21,3.7,3.4,5.07,4.5l-28,19.15Zm30.61-18.74,34.2-20.46c1.15.31,2.37,2.53,3.12,3.51l.06.16-33,21.5Zm35-20.88,32.61-17.59,1.77,2.13L276,789.65Zm30.63-21.47,22.05-10.56,1.31-.42,1.61,2.18.05.17-22.71,11.86Zm23.85-11.14,18.94-9,1.18,1.43-18.51,9.78Zm19.27-9.67L345,740.76l16.1-6.65,1.47-.47,1.72,2Zm13.23-14.39,6-2.12L371,725.5l3.12,3,.05.16-11.56,4.46Zm7.49-10.37,7.51-1.34,2.73,5.08.21.65L371,725Zm8.05-1.34,5.66-.38,3.15,5.84-5.71.22Zm6.26-.21,7.11.22c.94,2.17,1.89,4.33,2.83,6.5l-6.41-.82Zm7.17-.16-7.28-.17-1.56-7.62,8.09.45Zm9.89.42-9.34-.41-.54-7.24,10,.2Zm2.81,7.58-9.34-1q-1.32-3.28-2.66-6.55l9.18.46Zm-2.27-7.58q0-3.69,0-7.39l12.07-.65-.18,7.82Zm11.8.16q1,3.57,1.94,7.14l-10.92.28c-.89-2.36-1.77-4.72-2.66-7.09l11.31-.22Zm.54,0,11.43-1.53c.8.49,1.87,5.23,1.73,6.49l.11.32-11.38,1.69Zm.06-.38.18-7.83,11.64-1.41-.12,7.44Zm14.07,6.1,11.82-2,2.89,5-11.06,2.13-3.59-5Zm12.31-2.17,11.85-.76c.85.3,1.63,1.6,2.21,2.36l-11,3.54C440.34,724.7,439.3,723,438.27,721.27Zm12.89-.91,8.87-2.15,1.35,1.37.43.22.06.16-9,2.91Zm9.37-2.31,6-3.21c1,.16,1.67,1.64,2.26,2.52l.06.17-6.28,2.39Zm2.11-5.2-.78-4.08,4.79-.83c.33,1.72.53,4.59,0,6Zm4.72-5,5.17-1.31,1,5.28-6,2.12Zm5.66-1.47,4.85-1.2,2.19,4.53-5.89,1.9C473.79,709.91,473.41,708.16,473,706.42Zm5.34-1.36,5.17-.77c1.05.48,2.32,3,2.84,4.32l-5.82,1Zm6-1,6.42-.81,2,3.5.22.65-6.16,1.09C486,707,485.19,705.5,484.35,704Zm5.38-6.25,7.73-.69c.29,1.65.58,3.3.88,4.95l-6.64.7C490.37,702.13,490.18,699.22,489.73,697.77Zm9.14,4.81h7.78l-2.16,4.5-5.49-.22C499,705.44,498.92,704,498.87,702.58Zm8.21.24,5.53.92c-.74,1.62-1.47,3.24-2.21,4.87l-5.27-1.19-.26-.28Zm6.13,1.08,2.61.24c-.33,1.61-.65,3.22-1,4.83l-3.64-.08C511.88,707.23,512.54,705.56,513.21,703.9Zm3,.85a3.66,3.66,0,0,1,2.08-.86l.72,4.47-3.76.67Zm2.62-.85c1.19.76,1.14,3.19.56,4C519.18,706.55,519,705.22,518.81,703.9Zm.22-.43-.22-.11c.09-1.23.17-2.47.25-3.7C519.65,700.12,519.48,702.62,519,703.47Zm1.08.55.28-.27h1.08c.11.69.21,1.38.31,2.07l-1.14.37C520.46,705.47,520.29,704.75,520.11,704Zm0-.54c0-1.16.09-2.32.14-3.48l1.14.17C521.81,701.82,521.76,703.11,520.12,703.48Zm-1-4.36c0-1.2-.05-2.39-.08-3.59.15,1.22.31,2.43.46,3.65Zm2.84,4.86,3.91.36-.13,2.39-3.2-1C522,705.48,522.07,704.89,521.91,704Zm0-.54.08-3.1,3.7.25c.54,1,.2,2.07.35,3.32Zm-.74-7.89-.17.05c-1.2-.37-1-1.57-1.33-3h1.09C520.89,693.59,521,694.57,521.17,695.55Zm0,.71.36,3.32-.71,0-.38,0-.29-3.7Zm-2.15-1.65.1.32L519,695c-.17-1.09-.35-2.18-.52-3.27A4.31,4.31,0,0,1,519.06,694.61Zm-.6-.17-.16,0c-1.86-.62-1.83-2.29-2.41-4.64l2.06,1.32Zm-.12.76.35,3.86h-1.63c-.08-1.54-.15-3.08-.23-4.63Zm-2.16-1.65-1.19-.34c-1.17-.91-1.59-3-2.23-5.24l2.65,1.5C515.67,690.83,515.92,692.19,516.18,693.55Zm-.16.6c.65.17.43,3.6.61,4.68l-1.74-.35c-.88-1.11-.41-3.27-.72-5Zm-2.49-1.55-4.88-1.13-2.89-5.57,6,1.68C513,688.26,513.33,691.79,513.53,692.6Zm-5.85-1.9.16.49-10.44-.42-.76-5.17,8.47,0Zm-10.93-.26-.11.22-7.29.91-.27-.28.15-4.56,7-1.19C496.42,687.18,496.59,688.81,496.75,690.44Zm-8.37.9c-.22.82-5,1-6.27,1.3l.26-4.78,6.16-1.08.27.27Zm-6.81,1.3-4.79.83.15-4.57,5.06-1.09Zm-5.13-3.58c-.07,1.47-.14,2.93-.2,4.4l-4.25.83.26-4.78,4.14-.61Zm-5,5.23-4.68.61.15-5.11,4.57-.39.27.27Zm-4.85-4.94-3.7.3c.12-.95.24-1.89.35-2.83l3.44-1.11.05.17C466.69,687,466.65,688.19,466.6,689.35Zm-5.54-6.52c2.29.33,4.6.59,6.4,1.91A17.35,17.35,0,0,1,461.06,682.83Zm3.07-2.79a13.69,13.69,0,0,1,5.67,3.58l.37,1.14C467.5,685.1,465.25,682.79,464.13,680Zm5.09,2.32-5.52-3.09-.39-4.57,6.27,3.75c-.1,1.18-.2,2.36-.31,3.53Zm-5.85-8.58c.26-1.23.53-2.46.79-3.69l6.65,4.35c-.37,1.09-.74,2.17-1.12,3.25l.11.33Zm1.07-4.5,3.24-3.4c1.55.06,5.09,3,5.94,4.4l-2.53,3.35-.22.43Zm3.95-4,4.54-3.27c1.5-.11,3.83,2.22,4.7,3.35l.43.23-4.27,4.09Zm5.9-3.53-.43-.22,4.76-3.17c1.79,0,3.49,2.08,4.92,2.93l-5.2,4Zm9.46.19a3.5,3.5,0,0,1,2.6,1.33l.86.44-6.07,4.13-2.21-2.36Zm.93-.48,4.17-5,4.94.75.27.27-6.41,5.87Zm4.77-5.34c-.6-1.43.24-3.76.22-5.49l7.94-.58-3,6.93Zm.22-6c-1-2.27-1.95-4.55-2.93-6.82l11,1,.12,5.38Zm-2.7-7.25,4.61-5.83,7.16,2,.49.39c-.38,1.26-.75,2.53-1.13,3.79C496.3,645.07,489.88,642.57,487,642.85Zm5.21-6.21-.26-.27,3.81-7.19,7.47,3c-.93,1.57-1.87,3.13-2.81,4.7l-1,2Zm4.1-8,5.35-8.6c1.94,0,5.31,1.61,6.82,2.67l.33-.1-5,8.49-.45.86Zm13-5.65,5.31.81.27.28L511,630.73c-1.12,3.36-3.89,1.42-7,1.35Zm7,6,.87-.11c-.3,1.31-.61,2.61-.91,3.91-.49.66-3.69.22-4.73-.1l-.38-.06Zm1.3.12,4.08-.24c-.28,1.18-.57,2.35-.85,3.53-.95.81-2.19.51-3.7.83C516.83,632.13,517.49,630.56,517.58,629.16Zm4.51,0,4,.15c-.35,1.32-.71,2.64-1.07,4l-.27.27-3.58-.46Zm4.45.37,6.58.22c-.27,1.41-.53,2.82-.8,4.23l-6.84-.49C525.83,632.15,526.19,630.83,526.54,629.51Zm7.34.34,1.58-.15,1.27,3.92-3.81.51Zm1.7-2,.71-.05c.87.51,1.48,3.83,1.91,5.35l-.83.8C536.78,631.92,536.18,629.88,535.58,627.85Zm0-.54.29-1.9L537,626C536.55,626.93,536.78,627,535.59,627.31Zm1.57.39,3-.24c.88.57,2,.66,2.1,2l.16.49a12.35,12.35,0,0,0-4,2.73Zm5.36,2.6.75.66-2.68,2.32-.81-1.37Zm3.68,1.89.38,0c-1.08,1.32-2.17,2.63-3.25,3.94l-2.42-2.47,2.52-2.26A5,5,0,0,1,546.2,632.19Zm-3-1.93-.15-1c.35.27.45.09.38.6l-.06.38Zm3.36,1.44-2.6-.78.07-1.47,3.1-.46.05.16-.35,2.28Zm4.22,2.43-2.26,3.62-.78,1.52-4-2.87,2.91-3.83.49-.16Zm-8,2,.32.43q-2.4,3.76-4.79,7.52l-3.45-3.4,5.49-6.48Zm-3.88,8.11,4.47-7.4,4,2.86-4.1,8Zm9-4.15c1.22-.08,3.44.25,4.18,1.17l-3.47,4.92-4.63,1.32Zm.6-.38-.26-.27,3.19-5.19,4.62.31c-.25,1.81-2.45,4.57-3.69,5.89Zm2.51-6.23L547.39,632l.3-3,3.37-.18c0,1.55.05,3.11.07,4.67Zm-3.11-5.13a8.39,8.39,0,0,1-2.74-1.64,14.57,14.57,0,0,1,1.22,1.4l.49.39c-3.37.78-6.71-1-8.56-3l-.65-.33,2.68-1.77a5.65,5.65,0,0,1,2.68,1.38c-.65-.63-1.24-1.24-1.7-1.7l-.06-.16,3-1.88c1.35.47,5.7,5.76,6.67,7.23Zm-8.65-16.71-.06-.17,4.53-1.64,1.36-.26,4.39,7.43-4.87,3.38Zm.11-.76-.16.05c.05-2.07.11-4.13.16-6.2l2-2.1c1.27.57,2.77,4.69,3.32,6.34Zm-.16-6.64-3.82-4c.16-1,.31-2,.46-3,1.61.5,4.67,3.51,5.61,5Zm-4.25-4.22-3.42-.52,0-.16,1.6-2.87,2.39.13Zm-8.2,5.36-3.91-.9L528,596l4.34.58C532.21,597.42,527.34,605.34,526.71,605.43ZM522.53,592l4.74-7.13,5.21,1.57-3.71,7-1,2Zm5.78-7.29-.49-.38q1.33-2.32,2.65-4.65c1.57-.1,3.65,1,4.88,1.67L533.86,584l-1.11,2.17Zm2.82-5.79,2.6-4.81,4.54,2.32-2.37,4.39-.33.1Zm3-5.3,3.55-6.92,4.76,2.43q-2,3.43-3.92,6.87Zm3.93-7.41c1.49-2.1,3-4.21,4.46-6.32,1.33.08,2.16.87,3.3,1.28l.11.33L543,568.19l-.38.48Zm7-5.86-2-1.16c.76-1.39,1.52-2.77,2.27-4.16l1.62,1.64c.58.67-.37,2.38-.47,3.59l-.39.48Zm-3.6-11.66c.25.51.18.54-.39,1Zm.1,1.41,0,2.34H541c0-.73,0-1.45,0-2.18Zm-1.19-.33.16-.06a4.67,4.67,0,0,1-1.92,2.43Zm0,1.25.31,1.52c-.51.65-1,1.3-1.54,1.94l-.58-1.25Zm-2.51,1.71.16-.05-.33.65Zm-.61.92.16,0-.22.43Zm-.61.92.17,0-.22.43Zm1.37-.8c.4.2.63.72.91,1.15l-2.14,2.31-.53-1.09Zm-.75,4.94-1,.69-.49.16.83-1.35.32-.11Zm-1.34-1.92.42.77-.71,1.13-.17.05-.48-.38C535.27,557.81,535.58,557.28,535.9,556.76ZM534.63,559c.59.15.28-.06.7.49l-.87.11Zm-1.37.8c0,.35.25.14-.17.6Zm.43.77,1.19.33-.06.38-.43.33-.87-.45-.38,0Zm-1.47.47c.33.32-1.13,2-1.55,2.49Zm.26.82h1.63l0,.17-1.88,3.68-1.78-1.05Zm-3.4,3.45.16-.06-.33.65Zm-.5.7c.38.06-.88,1.7-1.15,2Zm1.37-.8,2.11.94-2.59,4.27-.33.65-1.57-1.48-.43-.22ZM526.49,569l.17,0-.34.65Zm-.49.71c.33,0-1,1.88-1.27,2.21Zm.7-.05,2,1.87-2.26,3.62-.33.65-1.94-2.09Q525.46,571.69,526.7,569.67Zm-3.18,3.56c.24,0-2,3.27-2.59,3.72Zm.15,1a4.82,4.82,0,0,1,2.1,2q-1.37,2.16-2.75,4.32l-.44.33-1.88-2.47Zm-3.61,3.34.1.33-4.23,5.34C516.46,581,519,579.63,520.06,577.6Zm-4.84,5.72.16-.06c-.43,2-2.62,4.37-4.07,5.84C511.4,586.74,514.22,585.25,515.22,583.32Zm-4.56,5.44.16,0c-.29,2-2,3.55-3.46,4.92C507.67,591.33,509.41,590.53,510.66,588.76Zm0,1.8,1.71,3.6L509,597.45l-1.71-3.06ZM506.6,593c.36.21.32.39.15,1-.22,1.07-1.67,2.49-2.58,3.18C504.35,595.08,505.71,594.62,506.6,593Zm.26,1.9,1.71,3.06-2.69,2.86-1.77-2.68Zm-3.44,1.66.26,1.36c-.92,1.08-1.84,2.15-2.75,3.23C500.82,598.85,502.5,598.21,503.42,596.53Zm.14,2.12c.81.28,1.66,1.65,2.1,2.57l-2.64,3-1.88-1.92-.33-.44C501.73,600.8,502.65,599.73,503.56,598.65Zm-3.39,1.81.05,1.25-3.08,3.89C497.3,603.24,499,602.25,500.17,600.46Zm.15,2.13a3.71,3.71,0,0,1,2.26,2l.44.22-2.37,3.3-.33.65-2.43-1.93-.65-.33Zm-3.94,2.35.26,1.36-4.88,5.56C492.11,608.72,494.81,607.41,496.38,604.94Zm.31,2.07,3.14,1.88.16.49-4.9,6.09-2.8-2.52-.43-.22ZM491,611.2c1,1.66-2.81,6.12-3.92,7.41C487.45,615.39,489.84,613.93,491,611.2Zm-1.52.31,1-.32-1.87,2.59-.45.87-.79-1.91Zm-7.59,3.36c0-.91,2.89-1.34,5-2l.69,2.67-.66.75-5.05-.53Zm-.6-.17c-.18,1.89-2.07,1.68-3.82,2.68l-.75-1.2Zm-11.55,3.92,6.49-2.28.53,1.09.05.16-7.08,2.11Zm7.34-.75,1.51,1.86-8.72,2.09-.15-1.57Zm-15.86,4.58,6.61-3,1.31-.42.05.16c-.36,1.75-5.67,3.34-7.7,4.12Zm7.85-2,.2,1.19c-.81,1.47-6.06,2.93-8.07,3.52l.12-1.3Zm-8.77,2.47h.54c-.39,1.21-2.48,1.87-3.67,2.63l-.16,0-.32-.44Zm-4.38,2.68a1.3,1.3,0,0,1,.65.33l-4.22,3.71-.16.06-.92-.61Zm-5.74,4,.49-.16.16-.06.92.61-9.45,6-.49.16C442,634.47,448.72,631.18,450.18,629.64Zm-8.22,7,9.79-6.06c.52.14.11.94.2,1.74l-9.83,5.35Zm.32,1.52,9.5-5.24.65.88-10,5.4Zm.36,1.69c1-1.87,7.51-3.75,9.45-5.4l.11.32c-.41,2.38-7.22,4.66-9.4,6.11Zm9-3.45.16,0,.7,1.58.31,1-8.74,4.81-.16,0c-.34-.85-.67-1.7-1-2.56Zm-5.32,12-10.7,4.9L433.09,650l10.16-5.45C444.39,644.67,445.77,647.2,446.32,648.41Zm-15.56-5.09,10.44-6.27.48.93L431,644Zm.21,1.2,10.21-5.83.5-.16.26.81-10.71,6Zm-1.24-1.59.49-.16c-1,1.78-9.36,5.42-11.74,6.69ZM418.47,650l11.36-6.2.49-.16c-.46,1.85-8.87,5.21-11,6.64l-.66.21Zm.16,1,11.9-6.2.1.87-11.74,6.14Zm.26,1.36,11.25-6,.65-.21.37,1.15-11.9,6.19Zm11.78-4.35.65-.21c.34.67.68,1.34,1,2l-11.95,6c-.32-.62-.64-1.24-1-1.86Zm-13.06,1.51c.16.36-2.9,1.89-4.32,2.3ZM405,656.35l12.83-6.14.16-.05,0,.71-11.74,5.6-1.14.37Zm.15,1,12.89-6,.26.82-12.83,6.13Zm.48,1.48,12.83-6.14.37,1.15-12.88,6Zm.31,1.52,13.05-6,.91,1.69.05.16-13.32,6.3Zm13.62-3.68.49-.16,1.72,3.06-14.35,5.9-.64-2,0-.71Zm-27.77,5.73,11.3-5.28,1.47-.48c-.55,1.25-10.44,5.22-12.71,5.92Zm-.11.76,13-5.48.26.81-12.77,6.3Zm13.67-3-8.29,2.86,7.75-4Zm-12.88,5.43-.11-.33,13.09-4.77.69,2.12-13.59,6.57C392.51,668,392.49,666.84,392.46,665.64ZM389.6,663l1.48-.48.05.17c-1,1.4-8.87,3.85-10.86,4.41Zm-11.45,4.79,2.72-.52.05.16c-2.75,2-6.39,3.22-10.8,4.58Zm0,2.34c-.15,1-.31,2-.46,3-.11.42-9.29,2.85-10.74,3.11l.09-3.1ZM355,677.75l11.45-4.25.06.17-.08,2.55-10.79,3.49Zm.8,2.45L366.32,677c.32,1.53.63,3,.94,4.57l-10.13,2.74Zm1.26,4.47,10.35-2.62c.19,1.32.37,2.64.56,4l-9.86,2.46Zm-14.88-1.87,12.33-4.89.64,2-12.38,4.72Zm.74,2.29,11.24-4.36,1.14-.37c.32,1.34.63,2.69.95,4l-12.11,4.46Zm13.49-.21,1.05,3.81-11.89,4c-.49-1.17-1-2.33-1.49-3.49Zm-10.05,10.83-12.6,5.16-4.13-.47-.05-.16,15.66-6.87Zm-17.54,4.41c-.62-1.18-1.25-2.36-1.87-3.55l16.7-7c.42,1.13.84,2.25,1.27,3.38Zm-4-9.55,16.75-7.4.75,1.75-16.81,7.24-.16.05Zm.63,2,16.86-7.08,1.28,3.38-16.92,7.46Zm2.92,7.9-18.29,9.89-3.76-4.92,20.18-8.52Zm-23.54.93L325,692.7l1.22,3.76-20,8.46C305.74,703.74,305.29,702.56,304.85,701.37Zm-.74-1.74,20.24-8.9.53,1.64-20.19,8.51-.27-.27Zm5.5,10.86-27.05,10.19L280,715.55,304.54,706l1.31-.42Zm-31.15.32c.82-1.49,4.46-2,6.28-2.93l18.55-8,.16,0,.64,1.42-25.58,10.26Zm25.74-9.22,1.32,3.54-24,9.4-1.64.53c-.4-1.07-.81-2.14-1.22-3.22Zm-26.66,9.16.16-.06.32,1-29.18,10.88Zm-36.18,15.49c1.08-1.94,6.45-2.36,8.78-3.56l28-10.68,1.06,3.27-37.24,13.31-.17,0C241.64,727.83,241.5,727,241.36,726.24Zm38.14-10.53,2.4,5.19-38.32,12.75c-.57-1.56-1.13-3.13-1.7-4.69ZM204.28,740l36.32-13.92.63,2.51-36.74,12.6Zm36.95-10.87,1.86,4.64-37.23,11.13c-.4-1.07-.81-2.14-1.22-3.22ZM204,741.93l1.38,3.17-30.69,10.1-.79-1.91Zm-30.71,11.74.75,1.75-26.78,9.92-.42-.77ZM147.2,765.72l27.15-9.87c.43,1.13.85,2.26,1.28,3.38l-27.7,9.32Zm28.42-5.94c.19,1.32.38,2.65.56,4L149,772.91l-.89-3.87Zm-29.45,5,.43.77-16.09,6.65Zm-25.22,12L146.76,766c.23.89.45,1.78.68,2.67l-25.9,9.82Zm26.65-7.53.89,3.87-26.18,9.54-.78-3.54ZM95.62,790c.09-.45.18-.9.28-1.35l23.47-11.21,1.15-.37.36,1.69L95.67,790.15Zm-.65-.87.15,1c-1.44,1.43-3.94,2.07-6,3.21l-14.58,7.42C76,797.3,91.21,792.45,95,789.11Zm-36.7,20,15.24-8.72.65-.21c-1,2.16-12.68,7.79-15.84,9.1ZM53,811.88,56.19,810l.66-.22,0,.17ZM73.11,802l-.57,3.79-17.64,8.6C57.11,807.72,67.39,806.87,73.11,802Zm-1.56,4.66.82-.27-.1,5.27L53,820.74q.64-2.73,1.3-5.48ZM46.61,818.29l5.73-2.39,1.47-.48c-.53,1.74-1.05,3.47-1.57,5.21-.76,1.3-14,5.47-16.58,6.26C38.19,821.57,40.12,821.59,46.61,818.29Zm-14.22,15.8c.92-2.17,1.85-4.33,2.77-6.5l14.4-5.19,2.62-.85-.72,6.73-19,6Zm-.28.81,19.29-6.24q.2,3.65.37,7.29l.11.33-21.42,6.38Zm-1.82,8.9c.36-1,3.73-2,5.24-2.24L52,836.77l2.1,7.63L30.44,851Zm27.1,8.4-24,7.23q-1.39-3.79-2.81-7.58c1.19-1.61,5-1.56,7-2.28L53.43,845l.87-.1C55.14,846.68,57.81,850.67,57.39,852.2Zm-2.6-7.47L76.88,836q1.53,3.57,3,7.15l-21.77,8.66Zm3.74,7.64,21.55-8.77,3.19,7.09-20.56,8.46Q60.61,855.76,58.53,852.37Zm4.61,7.54,19.64-8.52.82-.26,3.58,6.06-19.05,9.24C66.47,864.25,64.8,862.08,63.14,859.91Zm5.48,6.9-.06-.16,18.73-9.13,3.32,5.25L73.83,872.89C72.1,870.86,70.36,868.84,68.62,866.81Zm-9.36,37-4.06-8.08L77,881.07l.33-.1,0-.17L54.83,895.11,50.39,887l23.28-13.48,3.69,6.59a29.74,29.74,0,0,0-3.2-6.75l-.06-.17,16.67-9.9c1.45.84,3.3,3.85,4.13,5.53l-15.42,10.4.06.16,15.69-10.13L98.56,879l-18.51,9.78c-.85-2.69-1.58-5.35-2.42-7.88.61,2.76,1.21,5.51,1.82,8.26Zm18.64-5.48q1-4.39,2-8.79l17.48-9.62.66-.22.05.17L84.91,898.21ZM67.14,915.88,85.07,898.7l4.76,3c2,.87-1.94,3.1-3.3,4.32L72.6,918.81Zm6.28,3.2-.27-.27L91,902.56c1.63.21,4.11,1.88,5.3,3L79.06,919.79Zm6.51.61-.05-.17,16.54-13.65c1.37,0,3.39,1.33,4.33,2.21l-15.1,10.84Zm7.19-1.24-.05-.17,14-9.93,3,.85C98.33,912.2,94,916.35,87.12,918.45ZM99,912.79l0-.16,5.13-3.11,1.36-.26C104.56,910.61,100.8,912.14,99,912.79Zm26.82-15.35c-3.37,2.58-16.9,11-20.48,11.5l18.27-12.77A2,2,0,0,1,125,897l.81.28Zm.49-.16L124.82,896l-.43-.22L145.68,880c1.2.19,2.59,1.46,3.45,2.31Zm23.41-15.34-3.3-2.36,22.26-15.51c2.26-.37,3.62,1.35,5.59,1.63Zm25.2-16.45L170,863.65c1.05-3.06,17.16-11.59,20.47-15.47l4.38,1.83c1.47,1.37-2.68,3-4.38,4.31Zm21.22-14.27-1.37.8.82-.81.49-.15Zm-4.6-3-.48-.39,22.43-16.1c1.71.26,3,2,4.48,2.7l-21.61,15.84Zm5.58,2.17,7.12-5.37.49-.16Zm12.64-9-3.56,2.41,3-2.42.49-.16Zm4.54-3.28-2.24,1.45,1.7-1.45.49-.16Zm4.54-3.27-.93.48-.05-.17.44-.32.49-.16Zm-.38-.6q-2-1.61-4.1-3.19l27.56-18.67c1.31.05,2.76,1.6,3.68,2.42Zm35.67-25.45c-4.64,3.47-7,6.87-11.28,3.11l32.75-21.61,2.1,2Zm54.63-37.17-30.67,20.22-1.89-1.92L307.32,771l.49-.16.92.61Zm.44-.32-.59-.71,20.55-12.43.7,0Zm-1-1.31-.38-.06-1.5-1.86,22.66-12,1.08,1.1Zm40-23.78-17.7,10.61-.86-1,17.53-9.46,1-.32Zm.49-.15-.1-.33,5.52-3,.81-.26Zm-.53-.55-1-1.32-.05-.16,16.92-8,.49-.16.48.39Zm17.36-9.41-.32-.44,8-3.68,1.48-.47Zm11.48-6.42.32-.11-12.44,5.65-1.83-1.75,9.27-3.72C374.53,729,375.72,728.93,377.05,729.69Zm-2.38-1.22-3.18-3.12,6.7-1.63a7.85,7.85,0,0,1,3.51,2.48l.43.22Zm4.55-4.9c4.62-.3,7,.43,10.14,2.86C384.84,726.21,382.31,726.54,379.22,723.57Zm6.66,3.26,4.18.1A8.83,8.83,0,0,1,385.88,726.83Zm.24-3.15c4.58.61,6.9,1.36,10.35,4.06A18,18,0,0,1,386.12,723.68Zm7,1c5.61-.08,9.43,1,13.11,4.79C400.82,728.72,397.26,727.89,393.12,724.67Zm14.09,5-4.42-4.17,10.55-.34,3.76,4.38Zm6.84-4.56,11.42-1.53,3.6,5-11.37,1.15Zm10.45,4.39c2.67-.55,5.69-.73,7.77,0Zm6.42-.81,10.23-1.87,4.4.75C442.88,729.52,433,729.47,430.92,728.71Zm11.59-2.13,10.3-3.33,3.59.47C452.53,727.09,445.55,727.75,442.51,726.58Zm11.45-3.7c3.38-.63,7.75-2.2,10.57-2.51C462.8,722.81,455.5,723.61,454,722.88Zm9.92-2.84,5.07-2.19h.55l.32.44A16.55,16.55,0,0,1,463.88,720Zm11.29-4.2v.55l-4.69,1.69-.7-.49,3.22-1.22,2.12-.69Zm-.22-.65-5.67,2-1.71-2.51-.06-.16,1.59-.7,4.58-1.48.9,1.7Zm5.43-5,2,2.25.05.16-7,2.44-1.11-2.89Zm-4.57,6-.21-.66,2.57-1,4.9-1.58Zm7.1-3.74-2-2.41c3.24-.47,6.15-1.69,8.09.45l.44.22Zm12.42-2.94-5.06,1.1-2.54-1.71,5.77-1.14,1.78,1.59Zm3.81-.51-3.1.47-1.35-1.38-.43-.22-.05-.16,4.35-.5Zm-.69-2.12-4.56.39-2.63-4.21,7-.64c.11,1.47.22,2.94.34,4.41Zm1.35,1.91-.7-1.58,4.95.21.05.16c-.79.78-.74,1.54-1.81,2.21C501.42,709.43,500.51,709.48,499.8,708.78Zm2.27,1.44a3.76,3.76,0,0,1,2.27.89A4.44,4.44,0,0,1,502.07,710.22Zm1.68.17-.7-.49c.47-.76.95-1.51,1.43-2.27l5.1,1.24c.29.81-1.73,2-2.85,2.91Zm4.06,1.4-.38-.06,3.18-2.47,3.64.09,0,.16C512.82,712.16,510.83,713,507.81,711.79Zm5.11.7-.27-.28,2.36-2.75,3.75-.67-1.71,3.63Zm4.83-.12,1.56-3.57,5.59,1.08C523.44,712,520.6,711.73,517.75,712.37Zm7.2-2.87-5-1.08.34-1.19,4.93,1.84Zm-2.31-2.14-1.35-.83.43-.32,3.58,1,.33-.11-.56,1.09Zm3,2.09c.26-.61.71-.66,1.26-1.13l1.85-.42Zm3.67-2.63-3.55,1.33.56-1.08,2.78-.9Zm-.37-1.14-2.78.89.12-1.84a2.27,2.27,0,0,1,1.91-.26l.32-.1Zm-2.22-1.82-.32.11.08-3.1,2.5.46.26.27-.72,2.22Zm3,2.1.1.32-.16.06c0-1.46,1-2.49,1.5-3.74C531.6,703.24,530.32,705.27,529.77,706Zm1.94-4.06-.28.27-.09-2Zm-.65-.34-.28.27-.53-.54c-.86-.72-.56-3.35-.61-4.68l.92.06.33-.11C530.94,698.23,531,699.9,531.06,701.56Zm-.5-5.44-.87.11L527.55,693C528.62,693.3,529.91,695,530.56,696.12Zm-3.49-4.1,0,.16-.22,1-2.17-.57L524,691Zm-1.61,4-3.7-.25c-.13-1-.27-2-.41-2.94l2.77.19A7.91,7.91,0,0,1,525.46,696Zm-1.28-3.38-2.93-.14-.15-1.57,2.28-.2Zm-3.51-2.48a3.58,3.58,0,0,1,2.23.18Zm2-.63-3.31-.2-.43-.76Zm-2.94.95c1,.21.9.64,1.13,1.8l-.17.06-.76-.12C519.83,691.59,519.76,691,519.69,690.43Zm-.82.81-.17,0c-.06-.76-.13-1.52-.19-2.29C518.94,689.62,518.78,690.37,518.87,691.24Zm-.79-3c0,.72,0,1.45,0,2.17l-.16.06c-1.92-.85-2.48-2.44-3.82-4.55Zm-3.15.3c-2-.73-3.45-2.44-4.75-4.61C512.37,684.63,513.79,685.7,514.93,688.54Zm-3.25-1.66-6.08-1.47-2.08-3.66C507.31,682,509.24,683.76,511.68,686.88Zm-9.09-5.19c1,.39,1.36,2.22,2.1,3.11l.05.17-7.88.2.13-2.94Zm-12.19,1.95,6.05-1.41c-.06.92-.13,1.85-.19,2.77l-6.81,1.3C489.77,685.41,490.09,684.53,490.4,683.64Zm-.54,0-.51,1.79c-1.19,1.5-4.25,1.48-6.59,2l1.11-2.71Zm-7,1.18.32-.1-.94,2.65-4.63.78-.33.1c.36-1,.71-1.91,1.06-2.87Zm-5.06.56c-.32.88-.63,1.77-.95,2.65-.81.67-2.53.6-4,.94-.28-1,.6-2.08.74-3.31Zm-4.79.28-1.11,3.25-4.9.5.36-3.91Zm-2-1.16-.06.38c-1.06-2.19-.77-3.3-1-5.44A4.57,4.57,0,0,1,471,684.5Zm.63-3.64.11.33L470.28,679c-.3-1.72.56-2.52.69-4l1.56,2A6.77,6.77,0,0,1,471.62,680.86Zm1.4-4.06-1.67-2.35q1.18-1.92,2.38-3.84c.89.21,1.52,1.27,2.1,2Zm1.36-6.94,3.84-3.77c.91.2,1.65,1.26,2.27,2l-4.28,4.1Zm6.69-.54-4.37,3.22,4-3.82.16-.06Zm7.44-4.39-6.4,3.69-.65.21c.16-1.78,4.44-3.32,5.75-4.57.79,0,.73,0,1.24.51Zm.54-.54-1-.77,6.41-5.87,2.45.3Zm8.6-6.93c-.86.26-1.39-.06-2.39-.13l-.27-.28c1.05-2.33,2.11-4.65,3.16-7l4.19-.45Zm.72-7.82c-.07-1.73-.15-3.45-.22-5.17L504,644l-1.35,4.77C502.12,649.52,499.67,649.4,498.37,649.64Zm7.13-7c.21,1-1.15,5.21-2.17,6.13A17.25,17.25,0,0,1,505.5,642.63Zm-1.36.81-5.82.43,1.45-4.44,5.87-.27Zm1.72-4.72-5.71.22,3.49-6.54,6,.76.06.16Zm8.95-3.61-5.38-.43.83-1.35,5.54.38Zm.92.06-.27-.27,1-1.24,3.7-.3-.89,1.19C518.66,635.28,517,635,515.73,635.17Zm4.3-.12-.38-.06,1.15-1.46,3.75.42-1.43,1.72Zm4.23.8-.27-.28,1.15-1.45,6.8.33c-.39.48-.77,1-1.16,1.46C530,636.81,525.88,635.79,524.26,635.85Zm7.17.39c.31-.53.63-1,.94-1.57l4.51-.56.06.17-.88,1.18Zm7.81-3.79,1,1.31-5.65,6.53C533.58,637.19,537.83,634.47,539.24,632.45Zm-4.76,8.76L538,644.4l-3.7,7-2.54-2.25C530.81,648.09,534.08,642.9,534.48,641.21Zm-.36,10.6-1.34,3.68h-1.63c-1-1.21,0-4.25.05-6Zm-3.67-3c.68,1.22-.21,3.55-.16,5.11l-.16,0C530.23,652.28,530.34,650.56,530.45,648.84Zm.26,7c2,.27,2.3,1.22,3.84,2.37l.05.16-1.91,1.34Zm2.46,4.26,1.59-1.24a3.77,3.77,0,0,1,2,1l-1.1,1.62Zm4.07.85-.38.49-.38-.06.55-1.08C537.62,660.38,537.13,660.28,537.24,660.91Zm-.15-1.58-1.57-.93,2.37-3.3a3.36,3.36,0,0,1,1.56,1.48C538.67,657.5,537.88,658.42,537.09,659.33Zm2.11,1.49-.17,0-.1-.87.49-.16C539.47,660.6,539.52,660.32,539.2,660.82Zm1-3.58.33-.1-1.27,2.21ZM540,660c0-1.14.63-1.57,1-2.49l.87.44C541.27,658.65,540.64,659.33,540,660Zm2.53-3.34-.44.86-.7-.49,2.19-2.7.22.11.33-.11Zm1-3-.06-.16.28-.27C543.76,653.28,543.92,653.31,543.56,653.63Zm.65.33.71-1.13C545,653.17,544.92,653.55,544.21,654Zm-.64-2c0-1.27,0-2.54,0-3.8l4.3-1.22C547.17,649.12,545.54,650.47,543.57,652Zm6.47-5.7-2.42,2.58a5.91,5.91,0,0,1,1.71-2.53l.65-.22Zm-.82-.28-.05-.17q1.61-2.31,3.19-4.64l2.3-1.28.49-.16A15.09,15.09,0,0,1,549.22,646Zm8.59-11.45c-1.15,2.77-1.43,3.65-4.51,5.61.94-2.54,3-4.55,4.9-6.64Zm-1.56-8.71,1.81-1.12.74,7.89-1.75,1.28-.16.06C556.68,631.27,556.46,628.56,556.25,625.86Zm.09,8.1-4.56-.15-.06-5.22,3.61-2.25.49-.16C556,628.78,556.17,631.37,556.34,634Zm-.85-8.21-4.09,2.41-6.52-7.29,4.6-3.11.16-.06Zm-3.15-12-.16,0-2.2-4,.39-1C551.3,609.31,552,612.39,552.34,613.76ZM550,607.65l.44.22-.83,1.36-1.71-3.06Zm2,6.76.21.65-2.3,1.83-.16.05q-2.21-3.71-4.39-7.43l2.2-2.69Zm-4.71-7.87-2,2.1L542,602.31l.79-2.6Zm-4.88-7.27-.51,1.79-.38.48-5.61-5,.45-2ZM535.67,594c0,.67,0,1.35-.07,2l-.28.26-2-.07,1.06-2.33Zm-2.79,2-4.51-.53,4.59-8.71,4.24-.29Zm4.71-10-3.92.18,0-.16,2.33-4.55,3.2.41C539.28,583.08,538.07,584.7,537.59,586Zm-1.21-4.85q1.2-2.19,2.38-4.38l3.14,1.33C540.7,581.29,539.47,581.28,536.38,581.17Zm6.07-3.59-.17.06-2.7-1.12-.49-.38,3.76-6.81,3.9.9.27.27Zm5-8.1L547,570l-3.36-.9-.49-.38,3.27-7.2,3.1.08.27.27C549,564.38,548.21,566.93,547.41,569.48Zm2.42-8.73c-.47.63-1.9.17-3,.24l-.06-.16a8.36,8.36,0,0,1,2.66-5.2C550.21,555.86,550.14,559.62,549.83,560.75Zm-2.14-4.37-2-1.7c.51-1,1-2,1.55-3l2.52,3.33ZM550,554a5.67,5.67,0,0,1-2.36-3.94c.89.36,1.93,2,2.42,3l-.17.6Z"/></svg>