<svg id="Layer_1" data-name="Layer 1" xmlns="http://www.w3.org/2000/svg" viewBox="0 0 1000 1000"><defs><style>.cls-1{fill-rule:evenodd;}</style></defs><path class="cls-1" d="M641.45,294.34l-1.53-22.8V239.71c.3-3.65.59-7.3.89-11-1.63-8.31-4.25-16.17-6.62-23.69q-1.4-4.65-2.8-9.29l-8-12.74-.25-.13,7.13,12.23-4.71-2.55-4.08-12.1h.13c.38.73.77,1.45,1.15,2.17l.38.25-2.29-5.85c-1.77-4.33-3.46-8.63-5.22-12.74-1-2.33-2-4.67-2.93-7-1.5-1.54-8.77-3.87-11.34-4.33l-14.13,8.78-3.06,4.72-3.56,4.33c-3.75,8.83-4.48,23-2.68,33.87l.64,7.26q3.69,9.48,7.39,19l4.2,6.24q-.57,14.21-1.15,28.4l-9.68,4.84c-.46-1.4-.93-2.8-1.4-4.2l-4.2-13.76c-3.71-11.89-7.18-23.06-12.48-33.36-3.89-7.56-10.47-12.52-14.64-19.74q-8.6-21.9-17.2-43.81-2.53-6.42-5.09-12.86l-5.47-9.29q-1.73-11.34-3.44-22.67c-1.19-5.55-3.65-11-4.71-16.94-1-5.52,1.1-10.29.25-15.79-1-6.35-1.37-12.74-2.67-18.34-1.9-8.14-1.73-19.19-8-22.92l.13-1.78h-.13L500,36.47c-2.75-1.26-8-4.93-11.46-4.84l-5.22,1.14c-7.89,1.79-9,3.08-11,10.7l-.25.13-.51-6.5c-.91,2.32.41,8.5-.25,11.34L468.77,57c-1.47,6.12-1.33,11.71-2.42,18.47l-.51,7.25c.3,2.72.59,5.44.89,8.15.55,2.76,1.11,5.52,1.66,8.28A49.55,49.55,0,0,0,459,100l-6-.51-12.61,2.55c-3.22,1.57-5.91,5.18-8.66,7.39l-3.82,3.18c-1.23,1.81-3.72,11.75-3.05,15.41s1.52,7.38,2.29,11.08l.63,7.26c-2.7,0-4.52,1-6.62,1.65l-6.62,1.91-2.8,3.18-3.69,3.7a29.62,29.62,0,0,0-4.21,9.8c-.08,1.53-.17,3.06-.25,4.59-.62,3.86-.82,7.85-1.53,12.1q-.89,8.65-1.78,17.31l-6.5-.38-5.47,2.42-7.13,2.8c-6.94,5.11-11.79,18.63-14.27,28.4q-.94,7.83-1.91,15.66c-1.48,8-2.83,17.08-1.52,25.22l-.64,5.73,3.18,8.91,7.26,14L380,320.83l13.24,20.5,12,23.69a373.64,373.64,0,0,1,19,37.43c5.45,12.33,13.61,23.19,16.94,37.44-.09,1.7-.17,3.4-.26,5.1-.08,3-.17,6-.25,9-.56,2.72-1.11,5.43-1.66,8.15q.19,4.4.38,8.79c.87,5.5.07,10.89.89,16l2,34,3.18,53.1,1.28,21.14c.08,2.63.17,5.27.25,7.9s.17,5.35.26,8q.12,5.93.25,11.84c.09,2.64.17,5.27.26,7.9a50.64,50.64,0,0,1,.12,14.39v75.13l.39,33.88-1,15.79c-1.65-1.38.56-14.86.63-18.21-1,1.4-1.09,10.19-1.52,12.73q-1.73,18.4-3.44,36.8l-7.26,73.35-3.57,35q-.76,7.58-1.52,15.16a52.42,52.42,0,0,0-1,10.06l9.93,5.22c10.55,4.25,24,6,36.17,8.28l9.93.63c8.23,1.36,17.24,1.15,26.61,1.15H527l18.08.25,12.86.26c6.24,1,13-.07,18.46-1l18.6-1.91,8.53-2,14.77-3.31,8.41-5.35c.4-2.33-1.5-6.17-2.17-8.4q-2.93-10.57-5.86-21.14-9.61-35.91-19.23-71.82l1.4-2,.26-.13,2,9.68c.55-1.54-.58-4.58-.89-6.11-1.14-5.49-2.08-10.38-3.44-15.41-4.88-18-8.28-35.8-12.61-54.25-3.15-13.44-5.08-28.42-6.75-42.91,0-2.51-.08-5-.13-7.52q-1.45-21.71-2.93-43.42V659.31q-.95-21.13-1.91-42.28-1.26-21-2.54-42l-1-15.41-.51-10.7,3.06-27.12q2-7.39,4.07-14.78l3.69-19.61,6.12-18.21q.95-7.12,1.91-14.26c1.46-7.59,2.6-14.88,4.33-21.65q.88-3.94,1.78-7.89l9-13.37c8-12,16.86-24,22.54-38.08l5.48-20.12c2.46-7.86,4.26-16,6.75-24.32a179.23,179.23,0,0,0,5.09-19.11Q642.86,302.37,641.45,294.34Zm-.77-1.66,2.55,14.9h-.13l-2.67-5.22C640.51,299.14,640.6,295.91,640.68,292.68Zm-.38-5.34-1.65-5.73C640,282.8,640.37,284.75,640.3,287.34ZM569.63,552.47v.12l-1.41,1.28q-1.77-22.54-3.56-45.08l3.69-2.17c.71.82.51,10.79.51,12.74Q569.25,535.91,569.63,552.47ZM413.25,211.57q4.14,4.89,8.27,9.8l.39.38-5.22-.12q-4-4.84-8-9.68l3.44-.38Zm-.39-2.3,3.32.64v3.82C415.07,212.25,414,210.76,412.86,209.27ZM415.28,187l-11.07-8.41,3.94-4.58,3.19,2.55-2.68-2.81,3.19.51,6.62,9.81,4.46,4.84.89.89-7.39-2c-.13-2.33-.25-4.67-.38-7l-.89-.64Zm159.06,77.68c1.45,1.63,1.48,5.43,3.31,6.62l-8.53,4.84-1.91-1.27c-.05-.27-.06-.05.25-.39l-1.53-.63c-.63-.64-1.16-7.17-1.14-8.66,1.47,1,8.52,5.95,8.78,7.38l.89-.25ZM593.44,183c.86.72.63,3,.89,4.33q.88,5.67,1.78,11.33l-12.73,6.75q-.71-8-1.4-16ZM582,188.26q.38-6.42.76-12.86l9.81-5.86c.65.57,1.05,10.78,1,12.61Zm21.52-21.39h.76l3.19,11.71-13,3.19q-.39-6.37-.77-12.74Zm-9.81,1.4q.59-3.57,1.15-7.13l7.64-1.28h.38c.38,2,.77,4.08,1.15,6.12Zm-140.58,545v-1l15.15,3.31q2.81,31.33,5.6,62.66l-16.68-1.4Q455.14,745.08,453.11,713.3Zm3.18,63.29L449.16,774q-.26-32-.51-64l3.56,1.91ZM378.35,224.68l4.08,2c.08,2.08.17,4.16.25,6.24h-.12Q380.46,228.82,378.35,224.68Zm3.57,8.15-.51-.25-.13-1.28Zm-.51.89,1.15.26c.6,1.84,9.4,11.22,11.2,12.73v3.19L380.52,248Q381,240.85,381.41,233.72Zm121-139.82-14.26,3.44-.9-4.33v-.13l15.29-3.44C502.47,90.93,502.43,92.41,502.39,93.9Zm.38,6.75L489,103.71l-.64-4.59v-.89L502,94.79C503,95.39,502.64,99.79,502.77,100.65Zm-14.14,4.58,3.57,7.9-10.06-2.8q-2.24-4.59-4.46-9.17ZM602.86,228.76l13.25-1.91q-.39,7.26-.77,14.51l-14,1Zm-.76-.64-10.19,7.26c.26-1.66.51-3.31.76-5l9.56-5.73C602.18,225.83,602.14,227,602.1,228.12Zm.89-.25c.13-1.23.25-2.47.38-3.7l12.74-2.29v4.2l-12.48,1.79Zm10.57,14.39H615l-8.66,15.66-8.15.38q1.47-7.44,2.93-14.9Zm-6.88,16.42,6,1.15-1.79,4.71-8.53-1.65v-.13Zm21.65-30.3,8.15,4.45q-.45,7.65-.89,15.28l-8-4.84C626.63,241.15,628.31,231.66,628.33,228.38Zm-.76-1.15-10.45-1.15c0-1.44.09-2.88.13-4.33h11ZM627.31,244l8.28,5q.12,7.69.25,15.4L629,260.08Q628.15,252.07,627.31,244Zm1.91,27.5v.51l-9.29-3.69V258.17l8.27,2.42Zm-1.14-12.6v.76l-8.15-2.29q-1.73-7.58-3.44-15.15l9.8,1.27Q627.19,251.23,628.08,258.94Zm-14.39,1,5.22-1.79L619,268l-7.25-3.06C612.41,263.27,613.05,261.61,613.69,260Zm-2.3,5.6,7.39,3.06-4.33,9.67-9.93-4.83-.13-.26Zm2.55,13.37-6.75,11.72-14.52-7.26h-.25L603.5,274Zm-7.38,12.23.12.25q-4.06,5.61-8.15,11.21c-1.09.55-3.12-1-4.33-1.66l-11.71-5.73q4.65-5.67,9.29-11.33Zm-8.79,12.48L590.38,319l-17.83-9.8,9.3-13.5ZM477.05,494.4q-.65-12-1.28-23.94l13.76,1.14,5.85,35L477.68,504C476.54,501.44,477.5,497.41,477.05,494.4ZM399.24,258.68l-10.06,6.37c2.08-4.75,8.95-5.42,12.48-8.79C401.86,256.35,399.66,258.43,399.24,258.68Zm.38.51c-.13,1-.25,2-.38,3.06l-12.86,8.15,1.65-3.82Zm52.72-131.54c3,2.74,4.11,7.29,5.1,12.09C454.64,137.15,453.75,131.54,452.34,127.65ZM456,139.11l-3.18-1.91,1.91.12Zm-1.52-2.68-3.19-.25q-1.53-5.53-3.05-11.08l2.67.76Zm3.56,5.86.26.26-10.95-5.23h-.26l3.44-.38C453.11,137.4,457.16,140,458.07,142.29Zm-1.53-9,5.61,7.13,1.14,7.64C459.06,144.1,458.52,139.47,456.54,133.25Zm47.38,12.86-.13-.38h.64l.12.25Zm1.27,1.53.25.25.13.39-1.4,1C504.56,148.65,505,148.55,505.19,147.64Zm-1.53-2.8c-.81-.53-1.15-2.5-1.53-3.44A4.5,4.5,0,0,1,504.3,145Zm9.81,463L531.68,611q5.34,27.26,10.69,54.51l-19-2Zm21.26,112.95-23.17-.89q-5.35-29.42-10.7-58.83l21.78,3.31ZM435.4,288.74V289c-1.08-2.41.1-4.6,1-6A6.28,6.28,0,0,1,435.4,288.74Zm.15,1.64,0,0v.24h-.13l.13-.24v0h0c.33-.64.67-1.27,1-1.9C436.64,288.88,436,290,435.55,290.38Zm-8-15.14h-.13c-.31-2.83,4.09-3.12,5.86-4.33.29.18-.22,1.12-.51,1.53Zm4.71-1.4a22,22,0,0,1-3.69,1.91Zm-11.84,18q-1-2.16-1.91-4.33c2.72.1,3.26,2.26,3.44,4.71Zm1.91,1.53-.13.13-.51-.38ZM402,261.61l.76,3.06-2.92,1.65c.08-1.14.17-2.29.25-3.43Zm-1.65-.13.5-3.18,1-.64c.41.47.1,2.22,0,3.06-.46.26-.93.51-1.4.76Zm2.16-6.36-2-1.91c.13-1.11.26-2.21.38-3.31q1.35,2.28,2.68,4.58l-.77.64Zm39-19.23h.38l1.53,5.86-6.5,3.43c-.47-2.7-.47-4.29-1.65-6Zm-7,2.42-3.69-4.84,9.68-4.2c.86.52,1.05,4.28,1,5.6Zm.77-45.59,5.09-8.15,5.22,8.15-7.13,7.38Zm2,11.33v.26L435.66,196C437.09,197.84,438.65,201.4,437.31,204.05ZM503,146.24h-3.69c-.13-.38-.25-.77-.38-1.15l3.57.51c.35.2.3.19.5.51Zm.39,1.65c-.21.41-1.76.33-2.42,0Zm-3.19,3.31-11.46,2.17c.13-.85.26-1.7.38-2.55l9.68-2,.64.12C499.71,149.68,500,150.44,500.22,151.2Zm-1.65-7q-1.15-2.1-2.29-4.2l4.83.89,1.28,3.82Zm-2.8-5.09-3.06-5.35,4.84,1q1.53,2.61,3.05,5.22ZM483,150.31v-.25l-.51-.51,4.46-2,.64,1.28Zm4.46.26-3.44,1.65h-.13c.49-.94,2.39-1.14,3.31-1.65Zm14.9,290.09q-2.43-11.6-4.84-23.18l16-5.73q2.61,13.11,5.23,26.23ZM518.94,439h.13q4.08,16.62,8.15,33.24l-18.59.38q-3-15.4-6-30.82Zm-17.57-60.87,13.75-8.53c1,.57,2.73,7.08,3.31,8.66q4.53,12.74,9,25.47l-13.24,6.49Q507.79,394.18,501.37,378.13ZM434.79,270.55l0,0c-.12.44.07.69.27,1.09l-1.14.38a3.88,3.88,0,0,1,.87-1.47l0-.05,0,0a8.35,8.35,0,0,1,1.38-.92c.31.19-.43,1-.64,1.53C435.23,271.07,435.14,270.87,434.79,270.55Zm1.38,3.29v.63a2.28,2.28,0,0,1-.64-1.65Zm-1.53-4.46c0-1.7.09-3.4.13-5.09l2.42-1.79c.71.81-.07,4.73-.26,6Zm-8.91,8.53c.7.4.57,2.24.63,3.19l-4.45.12C423.05,278.1,423.18,279.33,425.73,277.91Zm-.26-.76V277l.26-.13C425.78,277.16,425.79,277,425.47,277.15Zm-3.05.63-1.66-.63V277l5.35-2.8c.28.28.28.66.25,1.27Zm-7.64-17.7,8.15-3.18h.5l1.91,10.19c-.22,1-6.33,3.21-7.64,3.69h-.12Q416.17,265.44,414.78,260.08Zm1.91,11.08-6.63,5q-1.9-6.81-3.82-13.63l7.39-2C414.66,261.37,416.27,269.31,416.69,271.16Zm8.65-2.54.77,4.71-6.37,3.18L418,271.8Zm-4.2,9.42.13.13a11.19,11.19,0,0,1-4.08,3.18l2.42-3.57Zm-.63,3.06-.64-.26v-.13l1.53-1.4-.51,1.79Zm.25,5.85-2.55-.51c.39-1.65.77-3.31,1.15-5l1.15.38C420.59,283.56,420.68,285.26,420.76,287Zm5.48-19.86q-1-5.35-1.91-10.7l7.89-3.18c.74.63,1.48,8.8,1.66,10.44Zm7.13-14.26,2.8-1.15c.67.38,1.3,8.12,1.27,9.68l-2.8,1.78C434.22,259.7,433.79,256.26,433.37,252.83Zm3.56-6.5,6.62-3.56q1.72,5.08,3.44,10.18L438.08,257C437.7,253.46,437.31,249.9,436.93,246.33ZM486.34,222l.64-.38c.83.9.51,6.06.89,7.64V230C487.16,229.7,486.34,223.41,486.34,222Zm1.28,9.17-.26.38-.13.25h-.12l.12-.89Zm-5.73,3.18h-.13c-.09-.55-.17-1.1-.26-1.66l2.3-.76h.63l.26,1Zm2.29,1c-.13.38-.26.76-.38,1.15l-.51-.13-.13-.26Zm34.25,71.31-.38.38-6.24-4.71h-.25l8.27-7,3.7,7.38Zm5.48-3.05,4.71,5.6.26.25-8.41,3.7c-.59-1.83-1.19-3.65-1.78-5.48Zm-6.11,4.07q.76,2.81,1.52,5.6v.13l-13.24-.25,5-10.32Zm-12.48,4.84-.26.13-12-21.4,9.68-6q3.75,8.28,7.51,16.55Q507.81,307.21,505.32,312.55Zm-.64.89-8.53,2.8-12.61-19.86-.13-.39,8.79-4.45ZM482.9,295.23l-10.31-18,11.59-6q3.81,9.68,7.64,19.36Zm-10.31-18.85-.38.13L465,262l11.59-7.76c1.31,1,6.14,13.71,7.26,16.17Zm-8-15.4q-2.24-7.85-4.46-15.67l1-.76.63,2.93v.25c.35-.85-.11-2.61-.38-3.44l1.66-1.4c3.46.52,7.9.8,10.82-.89l2.55,11.21Zm-.26-19.49,1.28-1.65,5.09.63v.13L470,242Zm2.55,1.15a3.47,3.47,0,0,1-2.29-.26Zm-5.86-.89-.13-.64,1,.38Zm.89.89-.63.51-.13-.51Zm-1.14-2.55c-.09-.64-.17-1.27-.26-1.91l1-.38,3.18,1.53L463.42,241C462.72,241.22,461.63,240.48,460.75,240.09Zm-1.53-10.31,2.29-.51H462l2.55,5.47v.13l-2,.13Zm3.31,7.64-.26-.26C462.52,237.34,462.35,237.17,462.53,237.42Zm-.89-.89c-1.09-1.26-4.2-5.56-2.93-6.5,0,0,3.17,5.79,3.18,5.86C462,236.3,461.93,236.23,461.64,236.53ZM460.87,221l5-2c.81,2.59,1.61,5.18,2.42,7.77L462.53,228C462,225.66,461.43,223.32,460.87,221Zm2.68,14.9H465l.51.76Zm.13,2c-.31-.25-.22-.08-.39-.51Zm-.77-8.92,5.22-1.27c.73.26,2.14,5.35,2.29,6.49l-4.83.51Q464.24,231.88,462.91,229ZM467,218.82l7.76-1.91h.64l2.55,7.64-8.79,1.92Zm7.51-7.38c2.7.79,4,1.41,4.84,3.95l.25.25v.13H475.9Zm1.78,5.35,3.7-.13,2.67,7.26-3.82.51Zm1.79-5.48,2.92,3.95-.38.25A9.25,9.25,0,0,1,478.07,211.31Zm-.26-1.91c-1.27.25-2.86-.65-4.07-1l.63-3.95,5.35,1.91v.13Zm-.51,1v.64l-.25.12-2.68-.76c-.43-.27-.51-.58-.63-1.15ZM475,215.9l-8.41,1.78c-.29-1.49-.59-3-.89-4.46l7.64-1.78Q474.19,213.66,475,215.9Zm-9.68-3.7-.25-.76.12-.26,7.13-1.78h.51l.26.77c-.46.79-6,1.65-7.26,2Zm7.51-3.95-7.51,1.92-.64-3.57,8.54-2.29Zm-7.13,9.81L460.87,220V216l3.7-2.29Zm-5.47-3.31,3.82-2.8.38.63L460.87,215C460.35,215,460.61,215.11,460.24,214.75Zm-.39-1-2.16-1.53-.13-.25,6.12-4.84c.25,1.1.5,2.21.76,3.31A12.39,12.39,0,0,1,459.85,213.73Zm-2.8-2.8-.25.25L453.23,206l-.25-.25,7.89-5.73,2.55,6Zm0,2.29V213l2,1.4c.22,1.57-1.22,3.93-1.65,5.6l-1.79-.13Q456.36,216.54,457.05,213.22Zm2.8,2.68v4.33l-1.4-.13C458.92,218.7,459.39,217.3,459.85,215.9ZM457.31,221l1.53,6.24.25.13h.13c-.31-1.77-.21-4-.77-5.73v-.51l1.53.12c.55,2.34,1.11,4.67,1.66,7a16.18,16.18,0,0,0-4.08,1.27q-1-4.32-2-8.66Zm2.42,16v.51l-2.17.77-5.47-7.64h5C458,232.86,459,234.26,459.73,237Zm-.13,1.53c.55.25.57.58.64,1.28l-1.4-.64-.13-.26Zm.51-2.54.64.89-.13.25-.38.13Zm9.81,3.43.25-.12h.89C470.82,239.77,470.45,239.75,469.92,239.45ZM466.86,237l-.64-1.14,3.82-.77h.77l.38,1.66v.13Zm2.67-9.42v-.13l8.41-1.91.51.13q.94,3.12,1.91,6.24l-8.92,2ZM480.1,233h.51l.26,1.27v.51l-8.66,2L471.7,235Zm-.89-7.64,3.82-.38,1,5.85-2.8.9Zm1.78-8.66v-.13l.39-.25c1,.88,2.24,5.94,2.8,7.51h-.64Zm.77-1.78-3.44-4.71,2-2.93q1.45,2.61,2.93,5.22l-1.4,2.42Zm-7.52-11.59-1.78-6.75,6.75,1.53c.26,2.46.51,4.92.77,7.38Zm-.89-.13v.13l-9,2.29-2.42-6.11,9.3-2.8C472,197.11,473,202,473.35,203.16Zm-11.84-4.71-4.46-11.21v-.38l10.19-3.06,3.95,11.85Zm-.89.38-8.15,5.86q-2.75-5.79-5.48-11.59l8.92-5.73Zm-4.46,13.25c-.47,2.46-.93,4.92-1.4,7.38l-.25.13L447,216l5.22-9.55Zm-1.53,8.53q1,4.32,1.91,8.66v.38h-5.22q-2.16-6.24-4.33-12.48Zm1.79,17.7.38.38-1.4.38-6.11-8,1.27-.38C451.58,231,455.9,237.1,456.42,238.31Zm2.29,6.75v.12l-10.95,7.14-3.19-9.94,7-5.22Zm-2.93-4.84,3.06,1.27.12,2.29Zm1-.38h-.26l.64-.39,3.31,1.41v.63Zm3.95,2.54.12,1.15-.89.64-.13-2.17Zm10.31-.38.77-1.4,10.31-2.8h.38v.13C480.81,240.37,474.36,241.32,471.06,242Zm1-2.42c1.25-1.61,7.91-1.77,10.06-2.93l.51.13Zm11.72-14.77h.63c.3,1.57.6,3.14.89,4.71v.13l-.51.38C484.47,228.29,484.14,226.55,483.8,224.81Zm1.65,6.11-.13,1h-.12A2,2,0,0,1,485.45,230.92Zm.13-7.38c.3,2,.59,3.9.89,5.85h-.13C486,227.49,484.79,225.44,485.58,223.54Zm.51-2.55c-.91-4-1.87-7.28-1.79-12.23q1.35,5.81,2.68,11.59Zm-.13-8.66-2-8.66,4.33-1.15c1.5.45,3.78,5.64,5,7l.13.51-7.26,2.29ZM484.69,223v.25h-.13c-1-3.71-2.77-6.05-1-9.29C484.43,215.47,485.65,221.8,484.69,223Zm-1.15-12.1h-.13q-1.2-2.35-2.42-4.71c-.25-2.29-.51-4.59-.76-6.88C482.64,202.35,483.66,205.25,483.54,210.93Zm-6.88-25.47c3.19,2.34,5.43,11.9,6.12,16.81C480,198.82,477.47,190.66,476.66,185.46Zm-1.52-4.58,2.8,4.58C476.37,184.31,475.87,182.91,475.14,180.88Zm.25,3.56L479,197.05l-6.88-1.53q-1.9-5.85-3.82-11.72ZM468,182.79l-4.32-9.17,8.27.51,3.06,9.29Zm-1,.12L456.42,186,452,177.18l10.7-3.44Q464.82,178.33,467,182.91Zm-11.34,3.57-8.91,5.35-.26.25c-1.17-1-5-6.82-5.34-8.4l9.8-6.11Zm-3.95,19-5.47,9.43-.13.25L439,201l7-7.26Zm-1.27,24.2-1.65.38q-2.36-5.42-4.72-10.82l1.79-2C446.88,218.06,449.7,227.63,450.43,229.65Zm.64,6.62-6.37,4.59-.38.38c-.55-2-1.1-4-1.66-6l5-5.22C449.17,231.28,450.54,234.07,451.07,236.27ZM438,266.58c.09,1.06.17,2.12.26,3.18h-.13A7.82,7.82,0,0,1,438,266.58Zm.13-8.53,9-4.21,3.06,14v.64l-10.95,3.31Q438.65,264.93,438.08,258.05Zm10.06-4.72,10.95-7.25,4.59,15.4L451.32,268h-.12Zm15.66,9c1.22.56,1.68,3,2.29,4.2l5.23,10.31-12,4.21-7.52-11.85-.25-.25Zm7.77,15.28L482,295.49l-11.33,3.31q-5.35-8.48-10.7-16.94Zm10.82,18.59,13,20,.13.38-10.7,2.68-13.62-19.61Zm13.25,21.14c1.91.67,3.45,4.63,4.58,6.24l11.59,16.68v.13l-9.93,3.18-16.43-23.56Zm9.55,34q4.9,8.6,9.8,17.19l-14.13,8.53-15-24.7,15.54-7.51C503.08,345.93,504.15,349.64,505.19,351.39Zm-2.67-7,9.8-3.32q6.81,10.32,13.63,20.63l.12.51q-5.15,2.94-10.31,5.86Q509.13,356.24,502.52,344.39ZM496.91,317l7.9-2.8c1.77.67,3.29,4.43,4.33,6l11.08,16.17-7.64,3.57Zm9.17-3.06,13.63.26,9.42,13.11L521,335.6Zm14.9.38-.38-.38,8.78-3.95,12.36,5.22v.13l-10.06,9.42-1.91,1.91Zm4.07-11.08-.25-.25,11.33-8.79,5.61,5.73-12.1,9Zm-.5-1.27-.26.25q-1.78-3.75-3.56-7.51L533,288.1c1.26.58,2.23,4.18,2.8,5.48Zm-4.21-8.15q-2.22-7.26-4.45-14.52l13.88-4.84L533,287.08Zm-.76.38-8.66,7.26q-3.69-8.21-7.39-16.43l11.59-5.47ZM503.28,284q-2.8-9.42-5.6-18.84l13.37-4.59c1,.59.85,3.31,1.14,4.59q1.34,6.75,2.68,13.5Zm-5.09-13.75,4.2,14.26-9.81,5.73-7.51-19.35,11.46-5.48C497.63,266,497.78,269,498.19,270.27ZM484.56,270q-3.44-8.22-6.88-16.43L491.31,247c1.09.86,1.21,3.75,1.65,5.22l3.57,12.1ZM477.3,252.7l-2.42-10.95c4.73-.58,9-2.57,11.21-5.73l1.14-2.17c.56,1.49,1.11,3,1.66,4.46l.25.13c-.49-2.4-1.8-4.33-1-6.63L491.31,246Zm8.92-39.48,7.38-2.42c1.19.39,8.4,9.27,9,10.7l.26.25-14.52,5.48C488.28,221.8,486.68,217.77,486.22,213.22Zm7.51-4.07-4.33-7,4.46-1.4h.63l1.91,3.19q-1.2,2.61-2.42,5.22ZM489,201.38,486.09,196l4.45.51,1.91,1.78L494,200Zm-.77.25v.13l-4.33,1.15c-.59-2.08-1.19-4.16-1.78-6.24v-.39l.51-.12h2.42Zm-3.56-6.49v.13l-2.8.12-1-3.94,2.29.38Zm-1.28-8.79,1.53,6.75C483.6,191.82,483.38,189,483.41,186.35Zm-2.8,4.08c-1.12-4.56-4-6.93-5.35-10.7-.25-3.61-.51-7.22-.76-10.82l6.37-3.32c1,1.06.37,4.29.63,6q.71,8.85,1.4,17.7C483.05,191.36,482.06,190.69,480.61,190.43ZM477.43,162c2.91,0,3.82.58,6.49,1C482.42,163.73,478.75,162.73,477.43,162Zm-3.57-21.14,1.28-.76c1.13.58,1.91,3.75,2.42,5l-2.81,2.17c-.76-2.29-1.52-4.59-2.29-6.88,1.23.84,1.52,3.29,2.29,4.58l.13.26H475Zm17.32-7.9-9.29,1.66-1.28-2.8,8.41-1.66C490.14,130.41,490.71,132.13,491.18,133Zm-1.4-4.2,4.46,1.4c-.84.55-3.11-.6-4.2-.89Zm-13.37,19.74c-.26-.25-.51-.51-.76-.76l-.13.25c.84,1.92,2.58,2.27,3.31,4.2v.13l-.51.38-3.06-4.33-.25-.25,2.93-2.29c.85,1,1.7,2,2.54,3l.51.51C478.42,150.74,478.58,149.66,476.41,148.53Zm3.31,4.84-.64-.13.26-.38Zm-3.44-13.88,4.84-3.57,2.8,5.48-5.47,3.18C477.73,142.89,477,141.19,476.28,139.49Zm4.59-4.33-4.72,3.31c-.08-1.1-.16-2.21-.25-3.31l3.69-2.93Zm-5.22-.64h-.51c.51-1.53,2.81-2.28,3.82-3.44h.25l.13.26Zm-.51,4.71-1.28.51c.3-1.35.6-2.71.89-4.07C475.27,136.21,475.18,138.22,475.14,139.23Zm2.54,14v.51l-.38.26L476,151.33l-.26.26c.38,1,.77,2,1.15,3l-1.15,1.4-.38.26-6-4.84-.13-.26,4.84-2.67Zm0,3.82-1.27-.25v-.13l.76-1Zm-1.78.38,2,.39c.42,1.1.85,2.2,1.27,3.31l-4.07.12C475.39,160,475.65,158.72,475.9,157.44Zm2.67.64,1.66.38h.25l-.76,2.42v.26h-.13Zm2.17-.51-2.55-.38-.51-2,.77-1,3.05.26v.13l-.76,2.8Zm-.51-4.2-.13-.64a3.19,3.19,0,0,0,1.79.64ZM480,151l1.52-.89.51.51Zm2.67,1.27c.24.18.08,0,.25.26h-1Zm-.64-3.31c-.93-1.1-1.87-2.2-2.8-3.31l-.25-.25,5.22-3.06c1.07.64,2,3.29,2.54,4.46Zm.13-13.37,8.91-1.78c1.33.25,3.07,3.85,3.44,5.09l.26.26-9.68,2C484.09,139.28,483.12,137.41,482.14,135.54Zm9.93-2.67-1.53-2.68c2.82,1.08,4.61,1.53,6.24,3.7Zm2.17-3.57v.26l-4.84-1.79-.64-2.42,5.61,2.55Zm-5.35-.13.25.26L480.36,131l-.26-.13-.12-.38,8.4-1.79C488.85,128.88,488.68,128.71,488.89,129.17Zm-8.66.26c-.38-.81-.76-1.61-1.15-2.42l8.28-1.91h.13c.3.89.59,1.78.89,2.67Zm-1,0,.13.38L475.39,133l-.64.64a3.33,3.33,0,0,0-1.65-1.14l-.13-.26,5-4.84C478.59,127.81,478.77,128.81,479.21,129.43Zm-5,4.71L473,139.62l-.64-.26.39-6Zm-.5,13.63-5.1,2.67-5.22-9.55,7.26-.76h.89Q472.65,143.94,473.74,147.77Zm1.27,9.29-.77,3.95-5.09-4.33c-.13-1.57-.25-3.14-.38-4.71Zm6,6.88c-.17.86-5.63,3.73-6.75,3.95-.29-2.17-.59-4.33-.89-6.5C475.15,162.43,479.47,162.47,481,163.94Zm-6.87,12.86H474a8.42,8.42,0,0,0-5.48-6l-.12-.26,5-1.27C473.94,169.91,474.15,175.41,474.12,176.8Zm-3.44-4,.13.26-7.64-.38-6-5.48,7,1.53Zm-8.79-.25.26.38-10.7,3.31-5.35-5.73,9.43-3.18C458.19,167.88,459.6,171.48,461.89,172.6Zm-11.46,4.2-9.93,6.37-3.82-5.1,8.4-7Zm-11.84,25.47,7,13.75-2,2.17-5.73-11.59Zm5.6,19.74c.79,1-.58,2.1-1,3.05l-.25.13Zm.64,1.53,2.55,5.47c-1.66,1.66-3.32,3.31-5,5-.26-1.78-.51-3.57-.77-5.35Zm-9,18.08.63,9-3.18,1.15c-.42-3.23-.85-6.46-1.27-9.68Zm-3.44,10.57-8.28,3.31-1.78-9.68,8.66-3.44Q431.64,247.29,432.35,252.19Zm-9.17,3.69-8.66,3.31-2.67-8.27q4.63-2.37,9.29-4.72C421.77,246.66,423.07,254.48,423.18,255.88Zm-9.68,3.31c-.45.79-6.12,2-7.38,2.42l-1.41-6.75,6.12-3.44Zm-9.29-5.35-2.93-5.47,5.22-5.73,4.07,7.77Zm-1.15,2.42c.22-.4.45-.48.76-.76.43,1.95.85,3.9,1.28,5.86l-2.3-1C402.89,259,403,257.62,403.06,256.26Zm2.16,6.12q1.86,6.67,3.7,13.37c-3.92-2.24-5.49-8.95-6-14.39Zm6.12,23.94c-3.18-2.33-4.81-7.53-5.48-12.23C409.9,277.05,410.21,280.58,411.34,286.32Zm2.29,4.71c-1.58-1-2.59-3.22-3.57-4.84C411.61,287.34,412.64,289.33,413.63,291Zm-3.18-12.86,5.22,4.2.12,5.86-3.31-1Zm.63-.51-.51-.64,6.37-4.71c.89.72,1.79,3.63,1.91,5l-2.67,4.2-.26.13Zm7.13,3.95c.51,1.19-.31,4.32-.63,5.47l-.77.64-.12-5.35Zm-.63,6.49a5.93,5.93,0,0,1,1.4,3.57v.12l-.51.38-1.53-3.31Zm1.78,6h.25a2.52,2.52,0,0,1-1.78-.12l-.25-.64A2.7,2.7,0,0,1,419.36,294.08Zm-.26-1,.39-.64.76,1.15Zm2.68-5.86c0-1.7-.09-3.4-.13-5.1l4.71-.12.39,5.09v.51Zm4.71-19.1,7-3.31c.45.28.73,4.07.26,5l-6.5,2.93h-.12Zm1.66,7.64c0,.19-.35.46-1,.63Zm5.09-2.42,1.53-.64c-.14.38-.77.64-1.4.89h-.13Zm1.4.63a2.63,2.63,0,0,1,1,1.91l-1.53,1.66-.13.25-.51-3Zm1.15,3.06c1.6,1.69.1,5.75-.89,6.62v.26l-.77-5Zm.89-3.95-.64-.89c-.36-.62.68-1.52,1-2.29,1.54,1.2.49,1.93-.13,3.06Zm1.14-.25c.09,1.82.17,3.65.26,5.47l-.51.39-.64-4.72ZM439,278l5,8v.13l-6,2.67C437.44,284.77,438.89,281.77,439,278Zm.26-1.4c-.05-1.27-.09-2.55-.13-3.82l11.46-3.57L458.2,281l.38.38-13.88,4.33ZM459,282.11l10.7,16.94-14.26,5.48q-5-9-10.06-18.09Zm11,17.83c1.7.61,3.2,4.14,4.2,5.61l9.93,14L468.77,324l-13-18.72Zm14.38,20.38c1.8.78,3.22,4.4,4.33,6L501,344l-15.54,7.52q-8-13.38-16-26.75ZM500,377.5l-17.07,9.55q-7.63-12.93-15.28-25.85l17.19-8.28Q492.4,365.21,500,377.5Zm.25,1.14c1.2.75,3,7.07,3.7,8.79q4.63,11.58,9.29,23.17v.13l-16,5.73q-6.94-14.25-13.88-28.52Zm1.15,62.27-16.94,3.19-.25-.13q-3.69-9.3-7.39-18.59l19.74-7.52Q498.95,429.4,501.37,440.91Zm0,1c1,.81,1.41,6.56,1.78,8.28q2.24,11.21,4.46,22.41l-17.07-1.91q-3-12.73-6-25.47Zm6.37,31.71L513,508.91l-16.56-2.16-5.73-34.89Zm5.47,36.29L520.47,554l-17.83-2.67q-3-21.71-6-43.42ZM502.9,552.34,520.6,555q5.34,27.45,10.69,54.89l-17.95-3.06L502.9,552.47Zm18.84,2.8,17.7.51q4.47,27.32,8.92,54.63l-15.92-.13Q527.1,582.66,521.74,555.14Zm17.45-.51-17.7-.51-7.26-44.06,18,.76q3.49,21.72,7,43.43ZM514,509l-5.1-35.27,18.59-.51,4.59,36.55Zm6.11-70.29,15.53-3.7c1.06.59,1.84,7.09,2.3,8.79l6.36,27.64-16,.63Q524.16,455.43,520.09,438.75Zm-.26-1-5.34-26.49,13.24-6.49q4,14.58,8,29.16Zm-3.56-68.64L526.46,363l16.3,36.55v.12l-14.39,3.7Q522.31,386.22,516.27,369.09Zm10.7-7.51-13.76-20.89,7.52-3.69q7.63,8.65,15.28,17.32l.76.76-9.55,6.24Zm-4.72-24.45-.63-.64,8-8.4,19.61,13.37.13.25-10.57,11.34c-.47.42-.94.84-1.4,1.27Zm8.41-9.43-.26-.38,12.1-11.46,18.72,7.77-11,16.94-.38.25ZM557.15,321l-13.63-5.73h-.25L555,304.91l16,4.46v.12q-4.53,6.69-9,13.37C560.61,323,558.48,321.51,557.15,321Zm-14.52-6.24c-2-.24-10.45-4.09-12-5.22l-.26-.12,12-8.92,11.72,4.08Zm-5.73-21.13,15.53-9.81c1.2.25,2.67,1.8,3.31,2.67l-11.07,10.7-2.17,2.17Zm0-.9-.26.26-2.54-5.48,16.17-8.78,2,4.45ZM534,286.57l-3.18-12.22,17.19-6,2.16,9.42Zm-3.18-13.37q-1.21-8.28-2.42-16.55l17.31-4.46c.91.92,2.2,13.1,2.3,15.28Zm-1.15.38-14,4.71q-1.71-9-3.44-18L527,257h.5Q528.57,265.31,529.64,273.58Zm-17.7-14.26q-1.9-9.3-3.82-18.59v-.13l16.68-3.82h.13q1.2,9.61,2.42,19.23Zm-3.69-13.75q1.46,6.93,2.92,13.88L497.29,264q-2.42-8.53-4.84-17.06c.39-1.17,2.57-1.34,3.7-1.79l11-4.32C508,241.64,507.91,244.2,508.25,245.57Zm-16.18,0q-1.79-8.28-3.56-16.56c.23-1.48,2.83-1.67,4.07-2.16L503,222.77h.39l3.69,16.94Zm11.08-24.71-8.66-10.57,1.15-2.29c2.37-4.68,2.14-2.77,7.51-2.42q.06,7.63.13,15.28Zm-6-17.06-2-3.44,5.6-1.91c1.22,1,1.74,4.79,2.29,6.37Zm-2.42-4.08-3.19-2.93-.38-.51,5.22-2.8c1.15.39,3.6,3.16,4,4.33Zm-3.95-4.2c-.79.53-3.33,0-4.58-.13l-1.92-8.78q2.11-5.73,4.21-11.46,2,9.42,3.94,18.84Zm-6.75-10.44-.13.25c-1.1-6.28-1.59-14.35-2.16-21.39a5.12,5.12,0,0,0,2.54-.13h.9l3.05,9.68Zm-3.18-23.82c.25-.89.51-1.78.76-2.67l5.48.64c-.56,1.06-1.11,2.12-1.66,3.18C484.82,162.86,481.8,161.65,480.87,161.26Zm.89-3.43c.25-1.11.51-2.21.76-3.31h5.1c-.09,1.27-.17,2.54-.26,3.82Zm2-4.33v-.13l3.94-1.91a2,2,0,0,1,0,1.78C487.17,153.78,484.85,153.54,483.8,153.5Zm1.52-11.59,9.3-1.91h.64l2.42,4.2v.13l-9.55,2C486.87,146,485.93,143,485.32,141.91Zm12.1,3.31h.64l.38,1.27-9.81,1.91-.38-.76-.12-.38Zm-8.79,9.17,11.85-2.17c-.09,1.32-.17,2.64-.26,3.95l-11.84,2.17C488.46,157,488.55,155.7,488.63,154.39Zm11.72-5.6,2.93.38.25.63-2.42,1.4ZM499,135.41c1.6.84,2.91,3.84,3.69,5.48C501,139.77,499.86,137.21,499,135.41Zm.51-1-2.8-2.55c-1-1.19-1.71-1.19-1.28-2.93,1.28,1.14,3.78,3.71,4.21,5.48Zm-4.71-7.26-6.5-2.93c-.46-1.28-.93-2.55-1.4-3.82l8.53,3C495.6,124.56,494.94,125.9,494.75,127.14Zm-7.39-2.93v.13l-8.91,1.78-3.06-3.44,9.81-2.29H486C486.43,121.66,486.89,122.93,487.36,124.21Zm-9.8,2.29L473,131c-1.06,1.4-4.15-.56-5.47-1.66h-.26l7.13-6.11C475.43,124.29,476.49,125.4,477.56,126.5Zm-5.86,6.24c-.09,2.12-.17,4.24-.26,6.37l-8.15.76,3.31-9.8ZM468,151.2c.09,1.45.17,2.89.26,4.33-3.16-3.05-4.45-7.36-5.09-13Zm-5.09-2.29,5.22,8,4.2,3.43q.59,4,1.15,7.9l-6.37,1.65-2.67-1.65-6.75-8.15L455,158l-1-7.38Zm.13,19-6.62-1.4-7.9-7.26,8.28,1.27Zm-8.53-2,.76.89-9.81,3.18-7.76-7.25,9.29-3.32C450.09,160.19,451.7,164.48,454.51,165.85Zm-10.7,3.82.76.89-8,6.5c-1,1-6.83-5.31-8.53-6.12v-.12l8.66-7.64Zm-8.41,8.53L431,187l-7.39-5.1c-.22-.3,3.28-8.84,3.82-10.18Zm.51.77,3.57,4.45c.6.76-4,6.89-4.58,8.53h-.13l-3.31-4.32Zm-.51,19.35c-2.42-1.89-2.77-5.64-3.82-8.91C434.11,191.66,434.31,194.49,435.4,198.32Zm1.41,7.52-5.23,2h-.12l.12-12.09C435,196.94,436.46,201.61,436.81,205.84Zm.12.89c1.32,1,6.39,12.46,6.24,15l-11.33,4.84h-.13q-.12-8.85-.25-17.7Zm-5.35,20.88,11.08-4.84c.34.44-1.22,4.48-1.78,5.22-1,1.32-8.24,3.73-10.19,4.46C431,230.84,431.29,229.22,431.58,227.61Zm-1.65,4.59-2-3.06,2.8-1.27Zm5.35,8.53-3.82.51-6-8.54,3.95.26C430.91,235,434.59,238.41,435.28,240.73Zm-5,.38c.31.51-6.77,3.45-8.4,3.69l-5.1-8.53,7.39-3.44C425.4,233.46,429.7,239.67,430.31,241.11Zm-9.3,4.07-9.42,4.72-4.2-7.9,8.4-5.35Zm-14.13-4.07-7-9.55,8-5.22c1.26.66,6.39,7.85,7.38,9.42Zm-.76.64-5.1,5.6-.38.25-7.26-9.29,5.6-6.11Zm-5.86,6.75c-.13,1.27-.26,2.54-.38,3.82h-.13l-6.88-7.64c0-1.74.09-3.49.13-5.23Zm-4.33.76-1.15.51V248Zm.38.64c2.2.75,3,3.93,5.09,5l.39.51-10.32,6,3.18-10.44Zm6.62,15.79,2,8.15-2.93,1.4c-.76-2.59-1.53-5.18-2.29-7.77Zm2.17,9q1.53,5,3,9.93l-2.54,1-3.19-9.42Zm3.56,10.57c3.1,3.63,3.59,6.54,8.28,8.91-.08,2-.17,4.08-.25,6.11l-3.7,2.17-6.87-16.05Zm6.62,6.87c-.76-1.31-1.52-2.63-2.29-3.94l2.93.76,1.27,2.55-.12.89Zm2.17,2.42,5.73,1.79.25.12-6.24,3.57C417.28,298.24,417.36,296.42,417.45,294.59Zm5.73-2c-.42-1.45-.85-2.89-1.27-4.33v-.13l5,.38c.09,1.49.17,3,.26,4.46Zm.25.89,3.82.38v1c-1.44,0-3.34-.17-3.82-1.27Zm3.7-16.05,5.35-2.42c.55.57.62,2.56.76,3.44l-5.86,2.29h-.13Zm6,1.91c.77.78.82,4.21.89,5.48l-6.11,2.55h-.13l-.51-5.61Zm.77,6.37c.62.67.54,3.27.63,4.33l-6.36,2.8-.39-4.46Zm-5.73,8,6.11-2.67c.27.27.26.44.25,1l-6.24,2.67h-.12Zm7.25-.63c.73-.88,1-2,1.79-2.81.44.11.17-.15.38.26,2-1.09,4.88-2.29,6.75-3.69l10.06,17.82V305L439.1,313.7q-4.28-9.24-8.53-18.47Zm19.36,12.73c1.56.89,2.54,3.5,3.57,5l9.55,13.62-16.94,9.55q-5.67-9.68-11.33-19.35Zm13.5,19.48,16.17,26.62V352L467,360.3l-15.54-25.47Zm2.29,43.17,11.34,19.23L461.51,400l-12.73-26.11,17.7-12.23C468.3,362.93,469.4,366.54,470.55,368.45Zm11.72,20.12c1.48,1.08,3.56,6.94,4.45,8.92l9.56,19.35V417l-19.87,7.52-14.26-23.18-.13-.38Zm-4.59,42,5.48,13.62-13.75,2.17q-4-7-7.9-14l14.14-6.49C476.74,426.73,477.12,429.24,477.68,430.6ZM483,445.24h.51l5.86,25.34-13.88-1.14-5.73-22.16Zm12.48,62.4q3.06,21.71,6.11,43.43l-18.21-3.44L477.68,505Zm6.37,44.44q5.16,27.12,10.31,54.25v.13l-20.24-5q-4.21-26.41-8.41-52.84Zm10.57,55.53,9.93,55.65-21.78-3.32q-4.26-28.65-8.53-57.3Zm-2,111.8v.39L486.72,717q-4.07-30.24-8.15-60.48l21.27,4.33Q505.12,690.12,510.41,719.41Zm-14.77,59.47-20.89-.51q-2.79-31.26-5.6-62.52l16.81,2Q490.81,748.39,495.64,778.88ZM486.85,718l23.56,2.93c1.2.89,2.73,12.95,3.31,15.41q4.51,22.1,9,44.19v.13L496.66,779Zm28.27,19.49c-.65-2.84-3.71-14.43-3.18-16.56l23.05.89,12.48,58.07V780l-23.56.76Zm8.53-73,19,2,13,54.88v.13l-19.87-.64Q529.71,692.74,523.65,664.53Zm8.92-53.36,16,.13q4.71,27.44,9.43,54.88l-14.65-.51Q538,638.43,532.57,611.17Zm7.77-55.52,11.84.64q3.24,26.3,6.49,52.59l-9.42,1.4Zm-.13-.89q-3.51-21.84-7-43.68V511l14.89.13q1.92,22.09,3.82,44.19Zm7.77-44.7-14.65-.13c-1.3-1.89-1-7.8-1.53-10.57q-1.65-13-3.31-26v-.13l16-.77q1.71,18.72,3.44,37.44Zm-11-75.13,17.44,1.14,4.71,35.41h-14Q541.1,453.2,537,434.93Zm-.26-1q-4-14.71-8-29.42L543,400.67c1.21,1.05,2.32,7,2.93,8.92l8,25.46ZM543.65,399q-8.16-18.21-16.3-36.42l9.93-6.75,20.88,25.72q-7.12,8.65-14.26,17.32Zm-5.48-43.81,12-12.86,21,14.64L559.06,380.3l-.39.25ZM551,341.71l-.12-.25,11.2-17.19,19.61,13.11c.36.69-1.9,3.74-2.42,4.71l-7.51,14-.25.13Zm12.1-17.83c-.5-1,1.19-2.64,1.91-3.69l6.88-10.31L590,319.81q-3.82,8.4-7.64,16.81Zm8.79-15.53c-1.75.92-13.11-3.56-16.18-4.08q5.55-6.36,11.08-12.73L581,295.36Zm-16.68-4.71c-1.3.67-9.75-3.17-12-3.82L556.38,287l9.43,4.21.12.25Zm-1.66-20.51,12.35-7.89,2.42,1.27v.13l-12,9.17Zm-.38-.63c-.64-1.4-1.28-2.81-1.91-4.21l13.37-3.69h.64l.12.26Zm-2-5-2-9.3,14.39-3.43c.65.41,1.26,7.63,1.4,9Zm-2.29-10.44-2-15,14.9.77q1,5.53,1.91,11.07Zm-2.17-15.92-2.54-15.28,14,1.78q1.73,7.14,3.44,14.26Zm-.89.13-17.44,4.45h-.13q-1.22-9.54-2.42-19.1l15.79-.76h1.53Zm-20.12-15.67-3.18-16,18.34-1L543,235Zm-.89.13-16.55,3.82h-.39l-3.69-17.06,16.56-2.8h.89ZM504.17,221.5q-.06-7.83-.13-15.66l13.76-1.41q1.77,7.08,3.56,14.14Zm13.37-17.7-13.62,1.14q-1.1-3.37-2.17-6.75v-.12l11.33-3.82c1.1.56,3.79,7.84,4.46,9.42Zm-16.17-6.37c-1.16-.87-3.37-3.13-3.82-4.58l10.06-4.72q2,2.12,3.95,4.21l1.27,1.27Zm-7.13-4.07,10.31-9.05a8.23,8.23,0,0,1,2.29,3.06l.26.26A127.65,127.65,0,0,1,494.24,193.36Zm-1-.13q-2-9.42-4-18.85c.6-2,9-5.79,11-7.64,1,.59,1,3.44,1.28,4.71l2.67,12.48ZM489,173,486,163.56c3.67-.38,10.51-.79,12.73-2.93l1.53,5Zm8.78-12.73-11.2,2.42,1.53-3.19c1.49-1.47,8.84-1.26,11.2-2.29h.51Zm5.35-4.84c.65,1.07-2.65,3.17-3.44,3.56A15.12,15.12,0,0,1,503.15,155.41Zm-2,.38c.09-1.23.17-2.46.26-3.69l2.16-1.4.51,3.05Zm5.73-3.31-1.14,3.18-1.91.64A11.8,11.8,0,0,1,506.84,152.48Zm-2.16.63c-.08-.93-.17-1.86-.25-2.8l1.4-1.27a3.48,3.48,0,0,1,1.27,1.66l.25.25Zm.64-10.06,1.91,1c.08,1.62.17,3.23.25,4.84h-.13C506.7,147,505.65,145.42,505.32,143.05Zm-4.59-8.65,2.68-1.66h.12q1.67,5.1,3.31,10.19C504,141.81,502,137.11,500.73,134.4Zm-.63-.77-4.46-5.73.76-3.69,6.24,7.38.26.26ZM494,115.55a36.76,36.76,0,0,1,8.28,14.26C498.16,126.6,495.42,121.42,494,115.55Zm1.4,7.13-8.91-3.18-3.82-8.28,9.93,2.93C493.52,117,494.45,119.84,495.38,122.68Zm-9.8-3.06L474.75,122l-4.83-7.89-.26-.26,11.59-2.67C482.26,111.62,485,118.24,485.58,119.62Zm-11.72,2.81-6.75,5.73-.63.63q-2.75-3.81-5.48-7.64l7.64-6.87Zm-8,7q-1.72,5.08-3.44,10.19l-5.86-7.77q1.92-5,3.82-9.93ZM456,130.7l-.25.13L452,125.74l2.16-12.36,5.73,7.77ZM451.2,125l-3.06-.89q1.39-6.1,2.8-12.22l2.55.76Q452.34,118.8,451.2,125Zm-1-13.11-2.68,12-6.75.12q1.67-6,3.31-12.09l1.15-.13h5ZM447.38,125q1.65,5.61,3.31,11.21l-4.72.25L440.88,125Zm8.91,17.45c-3.14,1.22-13.74-4-15.79-5.35C448.15,137.16,450.76,140.68,456.29,142.42Zm2.55.89,3.18,4.46.25.25-7.76,1.53h-.77q-.94-3.31-1.91-6.62A35.71,35.71,0,0,0,458.84,143.31ZM454,156.94l-5.86-5.1-4.46-2.93,9.43,1.66Q453.54,153.75,454,156.94Zm1.78,2.67-8.4-1.27-8.15-6.5,8.15.51Zm-9.68-1.4c.29.71-7.42,3.66-9.29,3.82l-8.41-6.62-.25-.13,9.67-3.44ZM436,162.41l.13.26-8.79,7.51-8.91-8,8.53-6.37Zm-9.29,8.66q-2,5-3.95,10.06c-2.34-.14-7-5.82-9.68-7-.56-1.45,3.91-8.9,4.58-11.08Zm-4.33,11.21q1.51,4.07,3.05,8.15c-4.78-3.59-8.77-9.75-12-14.9Zm1,.76c5.5,2.93,7.84,5,9.05,12.23l-5.73-3.57Zm3.95,45.34c-2.58-2.91-4.48-6.68-6.87-9.68l-3.44-3.82c.08-1.53.17-3.06.25-4.59.84-.76,11.17-1.12,13.12-1.14q.12,8.85.25,17.7Zm1.28,3.56v.13l-4-.26-7.39-9.29h5.22Zm-4.84,0-7.64,3.44L409,225.83l7.14-3.19Zm-15.41-6.88-7.77-9.42-.25-.25,7.13-3.19,8,9.68Zm-.89.39-8.28,5.34L392,220.1l7.26-4.2C400.44,216.39,406.48,224,407.52,225.45Zm-9,5.85-3.57,3.95-2.29,2.17L383.7,227l-.12-.38,7.38-5.86C392.87,221.75,396.68,229.2,398.48,231.3Zm-6.24,7c-.05,1.78-.09,3.56-.13,5.35l-8.53-9.3c-.09-2.16-.17-4.33-.26-6.49Zm1.4,12.48q-1.67,5.47-3.32,11l-12.22,1.15q1.14-6.88,2.29-13.76C381.21,248.52,391.48,250.64,393.64,250.79Zm-4.21,11.84h.39v.13c-2.8,4.42-8.46,5.13-13.76,7,.6-2,1.19-4,1.79-6Zm-2.93,4.46c.26.21-1.05,3.68-1.52,4.33l-11.85,5.09H373c.93-2,1.86-4,2.8-6ZM399,263.52c-.08,1.15-.17,2.29-.25,3.44L386,276.38c-.09-1.4-.17-2.8-.26-4.2Zm-.25,4.71c.81,2.42,1.61,4.84,2.42,7.26-.3,1.07-10.17,10-11.59,10.95l-3.44-8.91Zm2.67,8.66c.76.65,3.17,8,3.31,9.43L394.4,297.78q-2.16-5.1-4.33-10.19Zm3.7,10.32,7,15.92-10.82,12.73-.39.26q-3-8.6-6.11-17.2Zm7.26,16.93q1.14,2.75,2.29,5.48,3.3,8.14,6.62,16.3l-9.81,13.24-.12.26-10.19-22.29Zm1-.89,3.19-1.78V302h.13c1.64-2.2,5.52-4.09,8-5.35,1,.72,3.89-.38,4.71-.89,1.23.59,1.83,3.44,2.42,4.71q3.24,6.89,6.49,13.76L422.16,325Zm25.35,11.85q5.65,9.67,11.33,19.35l-15.92,12L422.67,326.3l-.13-.38Zm11.71,20.37c1.44.85,3.34,5.27,4.33,6.88l8.28,13.5q1.53,2.53,3,5.09l-17.82,12q-6.81-12.8-13.63-25.6Zm10.32,65.2L448.9,411.62,435.15,387.3l12.61-12.73Zm.25,1c1.68.76,2.84,4.42,3.82,6q3.76,6.17,7.51,12.35l2.93,5-14.39,6.5q-5.65-9.5-11.33-19Zm7.39,44.7L453,447.66l-3.06-8.79,10.57-6C461.4,433.28,467.56,444.67,468.39,446.39Zm-15.16,2.29,15-1.27h.64l5.73,21.9-17.45-1.15c-.95-.92-.82-3.73-1.15-5.22q-1.39-7.06-2.8-14.13Zm21.52,21.65q.9,16.68,1.79,33.36l-16.94-2.54q-1.22-15.91-2.42-31.84Zm1.91,34.38,5.73,42.66-17.7-4c-1.06-1.1-1-8.53-1.4-10.69q-1.79-15.29-3.56-30.57Zm5.86,43.81,8.28,52.21v.38l-18.21-4.46c-1.19-1-1.82-11.67-2.29-14.13l-5.61-37.95Zm8.53,53.74q4.27,28.51,8.54,57v.38l-21.14-4.2q-3-28.85-6-57.69Zm-5.34,114.1v.51l-16.3-2.17c-.93-.56-.55-2.8-.77-4.07l-1.27-11.72-5.1-45.84,15.29,3.18Q481.63,686.3,485.71,716.36ZM474,779.27q2.55,30.5,5.09,61l-19.73-2.42-2-59.85Zm.89.12,20.76.51c1.74,3.64,1.67,12.13,2.55,16.68q3.24,22.15,6.49,44.32v.38l-24.7-.89Zm21.9.77V780L523,781.69q5.79,29.4,11.59,58.83v.38l-28.91.51Q501.25,810.78,496.78,780.16ZM524,781.94v-.13l22.15-.76h1.53q6.69,29,13.37,57.94l-25.47,1.78Zm24.57-.89,18.72-.64h1.28l14.77,56.8-20.5,1.65H562Q555.3,810,548.61,781.05Zm-.25-1Q542.18,751,536,722l19.86.64,12.48,56.79Zm-4.71-113.34,14.51.51q5.87,27.57,11.72,55.14l-13.37-.76Q550.08,694.15,543.65,666.69Zm5.86-55.39,8.78-1.4h.64l7.89,55.77-7.89.51Zm10.18-1.53,6.12-1.27h.5q2.43,27.82,4.84,55.65l-3.43,1.27Q563.7,637.6,559.69,609.77Zm0-1.15h-.12l-6.63-52.21,8.15.13q2.49,25.47,5,50.94Zm-6.87-53.23q-2-22.08-4-44.18v-.13l9.42-.51Q559.63,533,561,555.39ZM549,510.06h-.13q-1.73-18.78-3.44-37.57h13.88l-1,37.06Zm11.2-37.57,7.77-.76h1.4q-2.67,18.21-5.35,36.42l-4.84,1.27Zm.51-1h-.64l-4.83-35.28,15,3.18q-.43,15.67-.89,31.33ZM555,435.31q-5.28-17.07-10.57-34.13l28.65,16.17q-1.39,10.51-2.8,21Zm10.44-23.43-20.75-11.72-.26-.38q7.32-8.79,14.65-17.57l24.83,13.24-10.44,20.89C571.81,416.33,567.1,412.87,565.42,411.88Zm-5.85-30.44q6.23-11.9,12.47-23.81l24.2,13q-5.93,12-11.84,24.07Zm13-24.57L582.74,338l21.65,11.59-7.89,20.12Zm10.7-19.62q3.82-8.4,7.64-16.8l19.23,11.71c.47.67-.92,3.29-1.27,4.2l-4.2,12.48Zm8.15-17.44c-.07-.91.77-1.83,1.15-2.68q3-6.42,6-12.86l16.68,13.5v.13l-4.71,13.5Q601,325.59,591.4,319.81Zm8-15.79c-.64-1.31,7.08-9.78,8-12.1l14.26,12.61q-3.06,6.24-6.11,12.48Zm8.66-12.86,6.75-11.47,12.1,8-4.71,16-.26.13Zm7.39-12.1c-.18-2.3,3.6-7.24,4.33-9.93l9.42,3.69-2,14.13h-.12Zm14.52-5.6,7,5.85q-.88,7.71-1.78,15.41l-6.5-6.24C627.11,286.25,629.87,277.24,630,273.46Zm.38-.9c-.78-.84-1.15-9.63-1.27-11.46l6.49,3.95c1.15,2.28,1.38,10.17,1.4,13.24ZM639,254.1h-.13l-2.55-5.35.9-14.26C640,239,639.15,247.06,639,254.1Zm.25,15.79c-3.5-3.52-2.91-12.22-2.8-19.23C639.51,255.25,639.38,262.21,639.28,269.89Zm-2.67-37.95-8-4.33.51-5.6,8.53,2.8Zm-8.28-11.08-11.21-.13-.12-5.85,11.84-.89Zm-11.21,6L627.44,228l.13.13q-.59,7.32-1.15,14.65l-10.06-1.41Q616.75,234.12,617.12,226.85Zm1.79,30.56-5.48,1.91-6.24-1.27,8.41-15.16Q617.25,250.15,618.91,257.41Zm-15.16-34.13c-1.13-.26-1.35-3.13-1.65-4.2.33-1.31,11.4-3,13.37-4H616c0,1.91.08,3.82.13,5.73Zm-2-5.73-4.59-18.34,14.65-3.94c1.19.47,1.09,3.83,1.4,5.22l2.67,13.62ZM597,198.32q-1.2-7.77-2.42-15.53v-.13l12.61-3.18h.51q2.16,7.32,4.33,14.64Zm-.76,1.28q2.29,8.91,4.58,17.82c-.32,1.13-9.34,5.57-11,6.37l-6.36-17.45ZM600.82,219c.95.53,1.21,3.47,1.53,4.59l-9.42,5.6-.26.25-2.41-4.58Zm.9,10.32c.75.93-.41,5.49-.64,6.87l-.64,6.37-9.8,8.28,1.14-14.39Zm-1.66,14.51c-.42,2.08-.85,4.16-1.27,6.24-.55,2.81-1.11,5.61-1.66,8.41a24.14,24.14,0,0,1-6.49,6.49q-.07-6.36-.13-12.73Zm-2.67,15.54c1.8-.82,4.88.11,6.87-.64h1.28c-3.43,3.4-5.88,4.83-12.23,5.35Zm13,5.86q-2.94,3.3-5.86,6.62c-2.74,2.05-8.25-.61-12.35-.89l9.16-7.39Zm-7.9,8.28.13.25-11,9.17-12.1-3.95,11.59-7.39Zm-11.72,10.18-9.16,10.83c-.7.49-11.75-3.11-13.88-3.44l-.13-.26,11.08-11.08C580.5,279.93,589.71,282.77,590.76,283.64Zm-24.06,6.88-9.3-4.08-.13-.25,12-9.17,8.28,2.29h.26Zm6.87-19.36-9-7.13q-.88-5.28-1.78-10.57l10.82,9.3Zm-11.08-19-3.18-13.75,9.93,9.67q2,6.69,4,13.37Zm-3.69-15.28q-1.9-8.34-3.82-16.68l7.39,7,6.24,19.23Zm-.89-.26L544,235q-1.08-8.22-2.17-16.43l12.1.89Q555.94,228.06,557.91,236.65Zm-4.2-18.08-12.1-.89q-1.73-6.81-3.44-13.63l10.7,2.17q2.42,6.1,4.84,12.22Zm-13.12-1.27v.38l-18.34.89q-1.71-7-3.43-14l15.4-.51h3.06Q538.93,210.68,540.59,217.3Zm-22.16-13.63-4.07-9.42v-.13L531,192.46h.64l5.22,10.7Zm12.86-12-17.44,1.66-5.1-5.23,20.38-1Zm-.76-3.95,14.26,10.95C540.21,196.41,532.15,192.78,530.53,187.75Zm-22.41-.38-2.17-2.8-.25-.26,20.88-2.42c1.08.55,1.81,3.33,2.3,4.46ZM526.46,181l-21.27,2.42-3.82-17.19,18.72-3.31q3.18,8.85,6.37,17.7Zm-25.35-15.66-1.4-5.35c3.79-1.88,8.1-4,8.79-8.91l-.51-7.39,4.33-.89H513L520,162Zm6.5-22.54-2-6.37,3.44-.89,3.44,6,.13.38Zm1.14-8.15-3.56.89-1.27-3.82v-.13l3.69-1,1.14,3.94Zm-5.34-4-4.08-9.55c-.53-.84-1.46-1.32-1.78-2.42l7.51-1.91h.51q1,6.24,1.91,12.48C507,130.11,504.4,130.5,503.41,130.7Zm1.91-14.9L496.66,118c-1.15-1.49-2.3-3-3.44-4.46l-4-8.79,13.12-3h.38l2.55,13.5Zm-2.17-21.26,6.24-6.12.64,7.52-6.5,4.33Q503.35,97.41,503.15,94.54Zm6.62-11.08c-.08,1.27-.17,2.54-.25,3.82l-6.24,5.86c0-6.92,4.56-7.79,6.62-12.36Zm-7.13,5.09L487.11,92V81.17l16.55-4Zm-15.53-8.4q-.45-5.93-.89-11.85l15.28-4.07q1,6,2,12.1Zm-1-12.86c0-3.87-.09-7.73-.13-11.59l12.86-3.06,2.55,10.57Zm-.26-12.61-1.65-9.43v-.12L494.62,43h.64q1.65,4.34,3.31,8.66ZM484.69,54v.51l-8.41-1.78H476L478.19,47l4.71-1.66C483.89,46.33,484.2,52.3,484.69,54Zm-6.5-8-1.53-3.44L481,38.51c.64,2,1.28,4,1.91,6Zm-1.78-4.46-.64-1.4,3.57-3.44,1.14.64.13.25Zm-.51,1.78c2.11,3.23.46,5.2-.51,8.54l-.25.12c-.77-1.35-1.53-2.71-2.3-4.07C472.4,47.08,475.3,44.35,475.9,43.34Zm-.25,10.32,9,2c.59.66.54,9.92.51,11.59l-10.57-3.44ZM485.2,68.3l1,11.85-12.36-4.08.64-11.33Zm1,12.74V92L473,88.17c.26-3.74.51-7.47.77-11.21Zm0,11.84c.33,1.53.67,3.06,1,4.59l-13.49-1.91-.64-6.63Zm.89,5.48c.85.85.57,3.8.89,5.09v.38c-5.22-.4-8.19-3.9-13.76-4.07-.17-1.15-.33-2.29-.5-3.44Zm-10.32,2.8q2.23,4.65,4.46,9.29l-12,2.68L463.55,104v-.13l12.6-2.67Zm-8.53,12.35-7.13,6.24-.64.64q-2.92-4.08-5.86-8.15l7.9-7.9Zm-6.5-9.68-7.76,7.9-2.55-.77v-.12l6.49-8.15,3.82,1Zm-11.2,6.75c-.79.72-4.37.3-5.73.26l7.26-8.15h5Zm-6.75.26-5.86-.13-.13-.26,8-7,4.45-.64h.64Zm-3.31.89h2.8l-3.18,12.1-7.9-.51H432q2.53-5.92,5.09-11.85Zm-.38,13.11q2.53,5.81,5.09,11.59l-6.37-.38L432,124.34Zm-2.3,11c-3.55-1.93-6.55-5.52-9.93-7l-.25-.38,3.56-3.69Q434.52,130.26,437.82,135.8Zm12.87,6.49,2.16,7.13v.13l-14.77-2.67q-1.21-5.81-2.42-11.59C440.16,137.74,445.51,140.8,450.69,142.29Zm-4.59,9.3c-6.93-.87-9.26-.32-13.11-4.46C438.83,147.27,443.17,148.56,446.1,151.59Zm-17.57-5.35-.51-5.86,7.89,6,.13.25Zm8.28,4.71.25.38-9.81,3.31-5.85-4.33h-.26l9.94-3.18C433.38,147.61,434.76,150,436.81,151Zm-10.57,4,.25.38-8.79,6.24-4.84-4.08-.38-.5L420,150.7Zm-9.05,7.38-4.71,10.45-.25.12q-1.67-4.2-3.31-8.4c-.18-1,2.32-5.38,2.93-6.62Zm-5.73,11v.12l-3.18-.51L406.12,166l1.78-1C409,165.84,410.77,171.59,411.46,173.24Zm13.5,17.7,1.53,1.65,4.08,2.42q-.07,6.56-.13,13.12l-13.25.89q-.44-10.19-.89-20.38ZM408,211.18q-3.7-3.81-7.39-7.64l3.06-.12h2.67l5.35,6.62.76.76Zm-1,.26-7.26,3.18q-3.57-4.06-7.13-8.15l7-2.8Zm-8.28,3.82-7.26,4-5.73-7.39v-.25l6-4.59C393.23,208.33,398.16,213.47,398.73,215.26Zm-8.41,4.33.26.25-6.88,5.35-.51.51-1.65-8.15c1.14-1.7,2.29-3.39,3.44-5.09ZM381,216.91l-2.93-.12,2.55-6.5,3.69,1.4Zm-.26,1.15c.47,2.55.94,5.09,1.4,7.64l-4.07-2c-.08-1.95-.17-3.9-.25-5.85Zm-.38,13.88-6.49-6.24,3.56-1.15C379.23,225.78,380.45,228.89,380.39,231.94Zm-6.87-7.13c.63-2.38,1.27-4.75,1.91-7.13h1.65c.09,1.95.17,3.9.26,5.86Zm6.74,8.15c.72,1.31-.73,12-.76,14.64l-8.79-5.47,2.55-15.79Q376.77,229.64,380.26,233Zm-.89,15.54-2.16,14-.26.13-9.8-5.22,3.31-14.52Zm-2.67,15c.35.41-1.32,4.94-1.53,6.11l-9.93.64,1.65-12.1Zm-2.55,7.26.51.13q-1.53,3.12-3.05,6.24l-7.77,2.42,1.27-8.28Zm10.44,1.78.51,4.59-11.71,7.51c-.38-2.25-.77-4.5-1.15-6.75Zm.51,5.61c1.16.86,3.07,7.3,3.7,9l-9.17,8.4-1.4,1.4-4.59-11.33Zm4.08,10.06q2.22,5.28,4.46,10.57L385,309.24l-6.24-10.95C379,296.9,387.56,290.07,389.18,288.23ZM394,299.82q3.06,8.52,6.11,17.06c.16.93-4.93,10.62-5.86,11.84V329l-8.91-18.72Zm6.62,18.33q5.1,11.09,10.19,22.16l-6.12,12.61h-.12q-5-11.46-9.94-22.92Q397.65,324.08,400.64,318.15Zm10.57,23.18,11.72,22-6.75,12.1-.26.13Q410.51,365,405.1,354.32,408.15,347.83,411.21,341.33Zm.64-1,9.8-13.5,11.72,20.38-9.81,15c-.18.25,0,.08-.25.26Zm22,7.9,13.62,25.46q-6.42,6.31-12.86,12.61l-10.7-22.67Zm14.39,63.92L440.12,419l-.64.64L428,400.29l6.49-12.23Zm.51,1,11.46,18.72-10.95,5.86-9.17-17.32Zm3.31,34.77-10.57,5q.18-6.24.38-12.48l6.49-1.27H449Zm0,1h.38l3.69,19.35-12.22,2.93q-1.21-8.54-2.42-17.06Zm4.2,20.37,2.55,31.58V501l-11.08-.38-3.57-28.53ZM458.84,502l4.71,40.75v.38l-13.37-2.93Q449,521,447.88,501.66Zm4.84,42.28q3.87,26,7.76,52.08v.13L459,594.11c-1.16-1-1.81-10.8-2.29-13.12q-3.18-19.86-6.37-39.73Zm7.89,53.23q2.93,28.83,5.86,57.68l-15.28-3.18q-1.66-28.39-3.31-56.8Zm-3.44,117-15-3.31q-1.92-31.12-3.82-62.27l12.09,3.82Zm-16-3.82-3.57-1.91V652.18Zm-2.93,64.31,7.13,2.55q1.14,30,2.29,60.11l-10.44-1.79c-.39-.45-.28-13.48,0-15.28Zm9.29,63.68c.88.94,1.5,11.57,1.91,13.88l5.1,38.84v.63l-18.21-2.67.63-52.47Zm1.15.12,19.61,2.42L489,895v.51l-22.67-3.31Zm20.63,2.55,24.7.89,12.36,54.25c-1.27.82-4.89-.37-6.62-.13L490,895.66Zm25.72,1,29-.51q6.42,27.18,12.86,54.37l-29.42.51Zm29.93-.64L560.33,840h1q7.51,27.38,15,54.76v.12l-27.5,1.4Zm26.49-1.91,20.88-1.53h.51q8.34,27.57,16.68,55.14l-23.05,1.4Q569.89,867.4,562.37,839.88Zm7.13-59.47,13-.63h.76q7.57,27.69,15.16,55.39v.13l-14.14,1.91Zm-.26-1-12.48-56.67,13.37.64L583,778.76ZM559.06,667.2l7.25-.51H567q4.77,27.76,9.55,55.53l-4.33.12h-1.4Q564.92,694.77,559.06,667.2Zm8.66-.76,3.43-1.27q3.57,27.75,7.13,55.52l-1,1Q572.49,694.08,567.72,666.44Zm-.64-58.07,2.93-.76h.38q2.29,27.3,4.58,54.63l-3.05,1.52Q569.49,636.07,567.08,608.37Zm3.18-1.78-2.93.63H567q-2.48-24.94-5-49.92v-.89l5.1-.76c.38.16.15,0,.38.25q1.39,24.84,2.8,49.67Zm-8.4-51.2q-1.33-22.47-2.68-44.95l4.71-1.27,3.57,45.46Zm6.87-49.91-3.94,2.29,5.34-36.17,8.92-2h.38Q575.74,481.79,572,494,570.39,499.74,568.73,505.48Zm1.4-34.9.9-30.81,13.62,3.69q-2.55,12.54-5.09,25.09Zm1.15-31.83c-.39-1.67.33-4.33.64-6q.89-7.44,1.78-14.9l14.26,6.5q-1.53,9-3.05,18.08h-.13ZM574.21,417l10.44-20.88,14,9.42-10.19,17.83Zm11.21-21.52c-.48-1.46,2-5,2.8-6.49q4.32-8.85,8.66-17.7L611.39,383,599.3,404.49Zm12.22-24.83c-.47-1.37,1.21-4.08,1.78-5.48l5.61-14.9,14.64,13-7.77,18.59-.25.13Zm8.79-20.25-1-1,5.73-16.43,12.1,13.25q-1.66,7.89-3.31,15.79v.25Zm5.09-18.21q2.16-6.75,4.33-13.5c1.68.81,3.18,3.16,4.33,4.59l7.9,8.53q-2.24,6.75-4.46,13.5h-.13Zm4.84-14.26,6.11-12.35,9.43,13.11-3.57,12.23Zm6.75-13c-.45-.77.55-3.1.89-4.2l3.82-12.1,7.26,7q-1.47,11-2.93,22Zm12.61-8.15c6.51,5.49,1.88,11.25,1.27,19.48L632.92,318Q634.32,307.4,635.72,296.76Zm.25-1.15q.82-7.19,1.66-14.39c3,4.51,2.13,12.69,2,19.74h-.12Zm.89-28.52c2.61,3.28,3,9.1,3.06,14.9C637.16,279.42,637,272.07,636.86,267.09Zm2.55-28.91h-.13c-.63-1.87-1.27-3.73-1.91-5.6q.45-3.32.89-6.62C640.94,228.64,639.55,233.62,639.41,238.18Zm.13-11.71c-1.14-1.42-1.44-4.23-1.53-6.63Zm-1.91-3.32v.77L629.22,221l.51-7.13,7,1.91Q637.17,219.46,637.63,223.15Zm-6.88-26.74q2.93,9.24,5.86,18.47L630,213c-1-.73-1-3.72-1.28-5.1q-1.46-7.12-2.93-14.26ZM628.84,213l-12,.89-3.69-18.72V195L624,193.48h.89Q626.87,203.23,628.84,213ZM621,181.77q1.77,5.28,3.56,10.57v.12l-11.46,1.66q-2.16-7.45-4.33-14.9l10.7-.89C620.51,178.71,620.54,180.68,621,181.77ZM619,174.13c-.8-1.83-1.61-3.65-2.41-5.48C617.74,169.7,618.59,172.52,619,174.13Zm.39,3.44-9.68.76h-1.4l-3.06-11.72,8.28-1.27h.64Zm-4.08-12.36-5.47-8.4C613,157.75,614.46,162.19,615.34,165.21Zm-1.78-1,.13.39L605,165.72l-1.28-6,4.72-3.19Zm-5.48-8.27-4.71,2.8-1.27-2.55,2.42-1.14Zm-9.42-.26,2.8-1.78,2.17.76a8.18,8.18,0,0,1-5,1.15Zm1.91.77c1.11.19,1.53,1.65,1.91,2.54v.13l-7.13,1,1.78-3.18Zm-4.84,1-1.53,2.93-8.4,5C587.55,161,592.65,160.44,595.73,157.44Zm-11,9.43,9-5.48c-.3,2.34-.59,4.67-.89,7l-10.06,6C583.51,171.88,584.14,169.37,584.78,166.87Zm-3.44,4.07,2.17-2.67c-.6,2.33-1.19,4.67-1.79,7-.76.94-1.53,1.87-2.29,2.8l-.25.13Zm-3.56,22.16v0l.75-12.71,3.06-3.82-.51,12.35-3.3,4.18v0Zm-.26,1.78,3.57-4.71q.76,8,1.52,15.92l-3.05,4.33-.38.25Q578.34,202.78,577.52,194.88Zm8.66,34.51-6.75-17.57,3.44-4.71,6.24,17.57-2.8,4.46Zm.51.9,2.8-4.72c.63.46.78,1.32,1.15,2,1.78,3.5.51,4.58-.26,8.53C589.93,235.72,586.61,230.74,586.69,230.29Zm-4.2,39.22,9.68-4.59,7.64-1.4h.25l-8.91,7.13-8.66-1Zm-1.4.76,8.91,1v.13l-11.21,7c-1,.59-6.75-1.69-8.53-1.91Zm-2.55.64-.26.13h-.12a85,85,0,0,1-6.5-17.58C573.59,256.08,578.15,267.14,578.54,270.91Zm-4.2-13.5c-.77-1.7-1.53-3.4-2.3-5.09a134.45,134.45,0,0,1-7.76-21.78c4.15,4.05,5.3,11.49,7.26,17.7C572.47,251.3,573.4,254.35,574.34,257.41Zm-8.53-26c-2.68-3-5.75-10.5-7-14.77C560.71,218.52,564.89,228.38,565.81,231.43Zm-4.21-6-6.87-6.5L550,207l6.12,5.22Q558.86,218.83,561.6,225.45Zm-10.69-18.72a7.63,7.63,0,0,1-2.42-2.93Zm-2.68-1.66v.13l-10.19-2Q535.51,198,533,192.85l12.35,7Q546.77,202.46,548.23,205.07Zm-3.05-7-15.41-11.72c-.6-1.36-1.19-2.72-1.79-4.07l14.39,8.66C543.31,193.31,544.24,195.69,545.18,198.07Zm-3.44-8.66v.13l-14.27-8.41-6.24-18.08,11.85,4.2Q537.4,178.33,541.74,189.41Zm-9-23-12-4.33q-3.45-9.67-6.88-19.36l9.93.89Q528.24,155,532.7,166.36Zm-9.43-23.69-9.68-.89L510,135.41l8-1.27C519.14,134.64,522.59,141.25,523.27,142.67Zm-13.5-8.15-1.27-4.07,8.28-4.2,1.27,7Zm7-9.29-8.41,4.07q-1-6.36-2-12.73l8-5.48Q515.56,118.16,516.78,125.23Zm-2.55-15-8,5.22-2.55-14,6.5-4.58Q512.18,103.52,514.23,110.2Zm-4-30.94-6.62,8.27c.3-3.56.6-7.13.89-10.69l4.59-7.9ZM509,67.79q-2.29,3.83-4.58,7.65v.25l-2-12,4.45-6.62C507.2,57.55,509.25,67,509,67.79ZM506,50.48h-.12L504,43.73A13.57,13.57,0,0,1,506,50.48Zm.77,5.47-4.46,6.5-.13.25q-1.2-5.22-2.42-10.44l4.21-5.35Zm-4.59-16.68c.43,1.87.85,3.74,1.28,5.6-2.38-1.34-4-3-4.08-6.75Zm.64,6.11.64.77-4,5c-1.1-2.71-2.21-5.43-3.31-8.15v-.12l2.54-.39h.64Zm-3.95-3.82-3.18.38c-1-2-1.95-4.07-2.93-6.11l5.73,1.78C498.57,38.93,498.69,40.25,498.82,41.56ZM497,36.34,492,34.56C493.54,34.81,496.08,35.34,497,36.34Zm-2.29,5.73-10.83,2Q483,41,482,37.87l9-2.17C492,35.88,494.51,41,494.75,42.07Zm-5.61-8a2.8,2.8,0,0,1,1.66.89l-9.3,2.16-.63-.38-.39-.51Zm-1.27-.89.64.12-9.43,1.66ZM477.81,36h.13l-.38.38Zm-.76,1,.25-.38h.13Zm.05-1.16L475.26,38A7.2,7.2,0,0,1,477.1,35.82Zm-2.47,2.94h.25l-.38.38Zm.38,2.29.51,1.4c-.89,1.11-1.78,2.21-2.68,3.31V46h-.12C473,43.5,474.08,42.75,475,41.05Zm-2.93,7.64c4.18,3.65,2.05,8,1.78,14.27L470,57C469.52,56,471.79,50.44,472.08,48.69Zm-2.55,9.17C474,63,473.86,66.49,473,75.31l-5.35-5.73Q468.58,63.72,469.53,57.86Zm-2,12.74L473,76.45c-.25,3.65-.51,7.31-.76,11l-5.48-5.48Q467.12,76.26,467.5,70.6Zm4.71,18,.63,6.5-5-4.21c-1-1.62-1.05-5.54-1.15-7.76Zm-4.59,2.93,5.22,4.46.51,3.69-4.2-.51Zm2.17,8.41,5.09.63c-2.48,1.25-13,3-15.15,1.66h-.26Zm-5.86-.26,3.18.13c-2.46,1.23-8.4,2.11-11.84,2v-.13Zm-11.21.51,3.06.38c-3.06,1.51-9.27,2.09-12.86,1.78Zm-12.22,2.8,4.33.38v.13l-8.15,7-3.06-.89-.13-.25Zm-7.77,7.39a7.66,7.66,0,0,1,3.44,1.14l-4.71,11.08-2.3-4.45Zm-4.2,2.8,2.8-2c.43.51-3.8,7.24-4.2,8.15l-.64.51Zm-1.66,21.14c-1.15-2.35-1.48-6.45-1.14-9.55C426.9,126.93,426.93,131.08,426.87,134.27ZM426,121.92l2.55-3.19,2.29,5.1-3.18,3.43-.39.26Q426.62,124.72,426,121.92Zm1.53,7.13,7.13,5.6q1.22,5.79,2.42,11.59l-9-6.88ZM418,149.55l9.42-2.55h1.28v.13c-3.67.72-6.38,2.63-10.7,2.55Zm-3.18,1.15,1.52-.13h2.55c-1.53,1.86-6.47,6.29-9.68,6.24Zm-6.24,7.13,1.91-.26.5.13c-1.16,2.41-2.12,5.84-4.58,7h-.13Zm-2.17,3.43c.21.71-.85,3.6-1.4,4.21C405.44,164.07,405.9,162.67,406.37,161.26Zm-1.91,6.24.89-1.14,2,6.88-3.57,4.07ZM404,179.35l10.95,8.4c1.23,1.86,1.36,17.62,1.4,21.27l-4.45-.89-1.79-2.55a12.11,12.11,0,0,0-6.24-4.07Q403.9,190.43,404,179.35Zm-1.15,2.16q.07,9.81.13,19.61l-1.91-.38Q401.92,191.13,402.8,181.51Zm1.53,20.89c-2.48,1.38-6.79-.22-8.15-1.28A32.78,32.78,0,0,1,404.33,202.4Zm-10.57-1.28L398.6,203v.13l-7,2.68-4.2-1.79C388.57,202.47,392.11,202.24,393.76,201.12Zm-2.8,5.22v.26c-1.36.63-5,4.42-6.24,4.33l-3.31-1.4,4.84-5.1Zm-9.29-.25,2.67-1.15c-.35,1.28-4.45,4.72-6.24,5.23Zm-4.84,5.6,2.8-1.27s-2.09,5.78-2.55,6.24h-1.27Zm-1.4,2.17c-.77,3.18-1.53,6.37-2.3,9.55C371.27,219,374.24,216.77,375.43,213.86Zm-3.57,6.75c2.1,5.1-1.19,14.74-1.91,20h-.13l-2.16-6.49Zm-4.46,15c4,6.66,0,12.91-.89,20.38h-.13c-.34-1.23-.67-2.46-1-3.69Q366.38,244,367.4,235.63ZM365,254.23c2.39,2.3-.3,11.48-.51,15.28C362.35,267.49,364.88,258,365,254.23Zm-1,18.84c-.17-1.14-.33-2.29-.5-3.44C364.39,270.53,364.1,271.51,364,273.07Zm-.25,7.52,7.39-2.3h.38l1,7.14-5.73,3.18Zm3.31,9,5.6-3.31c1,.71,4.54,9.8,4.84,11.46l-4.07,4.45Zm13.24,29.8q-3.11-8.16-6.24-16.3l4-4.46,6.5,11.46-4,9.17Zm13,20.5h-.12l-12-19.1c-.59-1,3.28-7.71,3.69-9.55l8.79,18.59Zm.77,1.65c.13-3.22.25-6.45.38-9.67q4.85,11,9.68,22c.3,2.93.59,5.85.89,8.78ZM416.18,384c-3.17-9.62-11.09-14.66-11.08-27.76l4.2,8.28c3.35,5.73,6.64,10.78,7,19.48ZM427,406.53h-.13c-3-9.34-10.21-15.69-10.31-27.76L427,400Zm.51-7.51-10.95-22.16,6.75-12.35L434,386.92l-6.49,11.84Zm9.17,26.48c-2.81-8.53-9.12-12-8.92-23.94L439,420.41l-2,5Zm.63.9,2-5c1.35,1,1.94,3.5,2.8,5q3.19,5.85,6.37,11.71l-6.88,1.4Q439.48,433,437.31,426.4Zm2.81,49-.39-13.37c.39-2,.77-4.07,1.15-6.11q1.14,7.89,2.29,15.79Zm3.31-2.54q1.71,13.88,3.44,27.76l-4.84.51q-.9-12.16-1.79-24.33ZM441.9,502.8v-.64l5-.5q1.2,19.09,2.42,38.2l-5.23-2ZM444.19,539l5.22,1.91,8.41,53-10.57-2.93Zm3.19,53,10.44,2.93q1.79,28.46,3.56,56.92l-12-3.82Q448.39,620,447.38,591.94Zm.76,173.57c.08,2.21.17,4.42.25,6.62h-.12A32.5,32.5,0,0,1,448.14,765.51Zm-.38,7.52c.78,1.12.8,13.58.38,16.3l-1,46.09-3.06-2.16c-.42-.5.35-12.92.64-14.77Zm-.64,63.54q-.31,26.23-.64,52.47l-6.62-2.68q2-26,3.95-52.08Zm-.76-66.09.76.64q-2,30.55-3.95,61.12L441,829.57Q443.68,800,446.36,770.48Zm-7.26,168.6-8.66-4.45q2.47-25.53,5-51.07l3.7,3.31Zm.13-53.48-.26.13-3.44-3.19q2.67-25.9,5.35-51.83c2.93,2.47,2.23,9.44,1.4,14.52Q440.75,865.41,439.23,885.6Zm11.71,57.3L440,939.59q-.06-26-.13-52.08c1.66.36,5.68,1.68,6.62,2.93q2.24,26,4.46,52.08Zm24.32,4.71-23.56-4.33-4.32-52.84,18.21,2.67q4.83,27.18,9.67,54.38Zm1,.26q-4.83-27.25-9.68-54.5l22.67,3.18q4.85,26.49,9.68,53Zm23.82,1.78-9.81-53,27.38,1.14,14.64,51.83Zm33.36,0L518.69,898v-.13l22.79-.38h6.62q8.34,26.49,16.69,53Zm61.25-2.42-29,3.06q-8.22-26.49-16.43-53l26.87-1.4h.64q9,25.61,18,51.2ZM617.25,942l-21.65,5.1q-9-25.61-18-51.2l23.05-1.27q8.28,23.63,16.55,47.24Zm8.79-5.35-8,5.1q-8.16-23.57-16.3-47.12l11.08-4.2h.38Q619.6,913.54,626,936.66Zm-13.12-47.24-11.46,4.07q-8.46-27.56-16.94-55.14l14.14-2.16ZM600.7,832.5l-1.28,1.91-.25.12L584,779.65l3.69-.77Zm-13.12-54.64-3.82.77Q577.4,751,571,723.36l3.31-.13h2.42Q582.16,750.55,587.58,777.86Zm-6.88-38.71q-1.65-8.14-3.31-16.3l.89-.89Q579.5,730.56,580.7,739.15Zm-2.29-23.43q-3.18-25.4-6.37-50.81l2.93-1.65Q576.69,689.48,578.41,715.72Zm-4.58-94.62q.95,19.68,1.91,39.35h-.13q-2.22-26.55-4.46-53.1l1.79-.76C574.16,607.82,573.41,618.4,573.83,621.1Zm-.77-15.53-2,.64q-1.41-25.47-2.81-50.94l1.41-1.53Q571.34,579.65,573.06,605.57Zm-2.8-61.51q-.43-18.84-.89-37.69l5.09-.13Zm4-27.12,1-10.45,1.4.77Q575.42,512.09,574.21,516.94Zm2.8-10.83-.25.13-1.28-.76,3.82-12.1Q578.16,499.74,577,506.11Zm-2.29-.89-5.22.13q5.34-17.89,10.69-35.79h6.12Q580.52,487.4,574.72,505.22Zm12-36.67h-6.24q2.55-12.48,5.09-25l4.59.76Q588.41,456.46,586.69,468.55Zm3.57-25.47c-.74.61-3.25-.29-4.46-.38q1.46-9,2.93-18l5.85.89Zm4.83-18.47-5.85-.89q5-8.85,10.06-17.7l5.35,4ZM605.54,409c-1.44.42-4.07-3.11-5.61-3.82l12-21.52,5.35,7.38Zm12.35-18.85-.13.26-5.22-7.52,7.64-18.72q2.93,4.78,5.86,9.55Q622,381.89,617.89,390.1Zm8.53-17.7v.26l-5.73-9.43,3.18-15.79,6.63,10.32Zm4.46-15.79h-.26l-6.36-10.31q2.16-6.69,4.33-13.38l5.09,10.19Q632.29,349.86,630.88,356.61Zm4.75-16.12c-.44,1.72-.87,3.45-1.31,5.17h-.13a26.54,26.54,0,0,1,1.44-5.17l.34-1.33A13.61,13.61,0,0,1,635.63,340.49Zm-1.44,1.6h-.13q-2.55-5.14-5.09-10.31,1.78-5.92,3.56-11.84l5.73,10.31Q636.23,336.17,634.19,342.09Zm4.2-13.24L633,319.17l3.7-1.78C639.15,319,638.63,325.43,638.39,328.85Zm.89-6.88-1.65-5.09,2.54-13.37c1.11,2.16,2.21,4.33,3.31,6.49q-2,6-4.07,12Zm.38,3.82c-.83-2.36,1.88-6.83,2.3-9C642.43,318.49,640,323.58,639.66,325.79Z"/></svg>