<?xml version="1.0" encoding="UTF-8"?>
<svg id="Layer_2" data-name="Layer 2" xmlns="http://www.w3.org/2000/svg" viewBox="0 0 36.03 36.15">
  <g id="Layer_1-2" data-name="Layer 1">
    <g>
      <path d="M25.37,27.84c-.5-.49.91-1.52,1.01-1.75.15-.35.03-.65.15-.97.23-.62.78-.95.94-1.3.15-.31.08-.67.21-.99.25-.6.76-.94.9-1.27.2-.46.14-.91.49-1.53.38-.67.92-.56.67-1.69s-1.43-1.5-2.11-2.08c-.57-.48-.73-1.03-1.13-1.42-.43-.42-1.33-.7-1.8-1.27-.28-.33-.36-.81-.59-1.05-.35-.35-1.58-.64-1.91-1.16s.08-.73-.18-1.09c-.18-.25-2.73-.76-2.43-1.51.25-.64,2.84.46,3.02.85.11.25-.08.48.19.71.16.13,2.08.44,2.59.63,1.05.39,1.62,1.1,2.49,1.55,1.07.56,2.21.73,3.38,1.41.23.13.43.47.49.5.63.32.57-.33.84-.64.3-.34,1.28-.97,1.27-1.27-.01-.33-.38-.56-.51-.92-.4-1.11-.78-2.43-1.2-3.51-.16-.42-1.34-1.68-.37-1.8l4.23,9.32c-.02.73-.88,1.02-1.17,1.49-.08.13-.9,2.05-.9,2.16,0,.34.35.79.35,1.19s-.29.75-.29,1.12c0,.32.27.63.3.98.05.59-.26.87-.26,1.27,0,.36.33.72.34,1.13,0,.39-.24.73-.23,1.12,0,.24.71,1.93-.1,1.82-.58-.08-.51-1.51-.61-1.86s-.49-.65-.6-1.12c-.08-.35.02-.71-.07-1.05s-.59-.67-.69-1.18c-.09-.47.24-1.37-.43-1.37-.57,0-.87,1.21-1.31,1.69-.35.37-.86.54-1.12.9-.32.42-.36.98-.86,1.46-.3.29-.77.39-1.01.71-.19.25-1.13,2.66-2,1.81Z"/>
      <path d="M17.82,5.82c-.28.33.53.9-.64,1.64-.35.22-1.29.38-1.44.58-.3.37.33.46-.03,1.09-.44.78-1.84.88-2.02,1.12-.31.4.56.75-.6,1.64-.28.22-.75.3-1.01.56-.32.33-.3.72-.56,1.09-.42.58-1.15.86-1.53,1.31-.2.23-1.19,2.25-1.72,1.81-.46-.39.72-1.5.88-1.83.22-.46.19-.93.5-1.45.18-.3.67-.6.77-.88.16-.46-.03-.74.28-1.29.27-.49.98-.63,1.08-.87.11-.25-.17-.47-.18-.76-.04-1.03,1.23-1.12,1.34-1.52.12-.43-.43-.4-.2-1.1s1.24-.83,1.33-1.07c.13-.34-.34-.56-.27-1.01.07-.51.94-.93.85-1.26-.03-.13-2.1-1.22-2.39-1.19-1.09.56-2.39.63-3.51,1.06-1.23.48-1.96,1.27-3.46,1.63-1.84.44-.34-.52.34-.79.72-.29,1.46-.34,2.17-.67s1.14-.84,1.87-1.2c1.08-.53,2.33-.62,3.34-1.07S14.79-.35,16,.09c.64.23.79.9,1.28,1.26,1.37.98,7.81.08,9.91.34,2.22.27-1.42,1.23-1.88,1.34-.54.12-3.56.45-3.65.61-.29.48.59,1.14.62,1.48.03.27-.31.45-.03.77.12.13,1.55.44,2.05.79,1.17.82.29,1,.6,1.42.06.08,1.44.46,1.8.67.61.37,1.01,1.07,1.54,1.52.24.21,1.61.81,1.31,1.17-.33.4-2.12-1.08-2.6-1.3s-2.96-.89-3.08-1.34c-.09-.32.34-.6-.09-.8-.52-.24-4.29-.59-4.41-1.43-.04-.28.36-.5.04-.77-.21-.18-1.37-.24-1.58.02Z"/>
      <path d="M3.82,28.16c-.52.33-1.22-2.13-1.28-2.27-.4-.91-1.35-2.43-1.65-3.29-.14-.39-.08-.78-.19-1.08s-.64-.5-.69-.96c-.08-.77.67-.81.93-1.23.18-.28.14-.68.31-.96.19-.33.81-.92.85-1.17.07-.44-.28-.73-.3-1.19-.03-.52.24-.78.24-1.2,0-.39-.32-.73-.31-1.19.01-.37.31-.75.3-1.05s-.37-.74-.38-1.12.29-.76.3-1.05c0-.2-.79-2.06.03-2.04.66.01.6,1.67.68,2.01.1.38.56.59.68,1.12.09.39-.07.81.05,1.14.11.3.61.59.7,1.1.07.39-.27,1.25.36,1.19.43-.04.41-.83.68-1.26.31-.49.94-.7,1.26-1.06.37-.43.43-1.01.9-1.49.33-.33.9-.49,1.12-.82.27-.4.2-.85.67-1.34s1.73-1.16,1.39.12c-.16.61-.95.95-1.07,1.25-.12.32,0,.65-.11,1.01-.18.6-.79.89-.93,1.24-.11.28-.07.67-.22,1.06-.22.57-.72.83-.9,1.26-.2.48-.09.87-.47,1.47-.26.41-.85.52-.67,1.13.11.38,2.05,2.42,2.62,2.54.63.33.81,1.12,1.24,1.52.49.45,1.49.7,1.9,1.39.2.33.14.74.34.93.3.3,2.27.7,2.28,1.5,0,.25-.33.46-.12.75s2.61.52,2.31,1.33c-.25.65-2.51-.39-2.59-.75-.05-.21.22-.51.02-.69-.11-.1-2.33-.47-2.85-.67-1.05-.4-1.46-1.04-2.26-1.47-.65-.35-1.55-.47-2.27-.79-.57-.25-2.5-1.65-2.77-1.63-.54.04-.49.69-.73.99s-.99.88-1.01,1.22.47.72.61,1.07c.17.45.18.97.32,1.33.13.33,1.23,1.77.69,2.11Z"/>
      <path d="M27.89,19.26c.34.33-1.07,2-1.18,2.22-.22.45-.19,1-.53,1.57-.16.27-.57.52-.67.75-.16.37-.06.71-.26,1.17-.24.57-1.08.9-1.15,1.1-.1.33.44.54-.02,1.32-.29.49-1.08.64-1.18.85-.22.49.63.47.13,1.32-.31.52-1.15.68-1.25.92-.16.39.32.53.33.92.02.6-.91,1.13-.42,1.49.09.07,1.6.54,1.76.55.56.05,2.76-.55,2.98-.06.15.34-1.83.92-2.15,1-.34.09-3.77.5-3.58.87.02.03.52.16.64.3.42.47-.96.79-1.41.44-.69-.53.61-.68.55-.89-.04-.16-2.87-.78-3.19-.81-2.41-.27-5.51.39-7.92.14-1-.1-1.74-.5-.37-.97.85-.29,4.49-.54,4.74-.72.44-.32-.19-.5-.14-.73.03-.11.85-.84.74-1.35-.08-.38-1.86-.63-2.43-1.17-.86-.81.05-.8-.2-1.26-.05-.1-1.63-.45-2.07-.73-.69-.44-.84-1.06-1.39-1.53-.18-.15-2.2-1.08-1.68-1.46.57-.42,2.54,1.46,3.09,1.7.49.21,3.16.77,3.26,1.31.05.26-.48.48-.05.79.15.1,2.02.34,2.46.45.76.2,1.64.85,2.38.69.39-.08.58-.46.89-.61.29-.14,1.29-.41,1.39-.55.36-.47-.4-.45-.04-1.09.44-.78,1.83-.88,2.02-1.12.24-.31-.09-.57-.08-.82.04-.58,1.44-1.1,1.76-1.46.27-.31.31-.74.59-1.13.41-.55,1.08-.78,1.5-1.27.15-.18,1.69-2.6,2.13-2.17Z"/>
      <path d="M30.5,31.1c1.4-.02-.6.83-.94.93-.3.09-1.75.52-1.89.12s2.51-1.05,2.82-1.06Z"/>
      <path d="M3.82,28.46c.28-.19,1.28,1.21.82,1.46-.61.33-1.09-1.28-.82-1.46Z"/>
      <path d="M10.98,6.79c.74-.13.35.78-.13.92-.84.24-.33-.83.13-.92Z"/>
      <path d="M30.74,4.39c.33-.19.93.73.52.93-.35.17-.71-.82-.52-.93Z"/>
      <path d="M24.96,28.85c.44-.12.39.41.04.42-.25,0-.34-.34-.04-.42Z"/>
    </g>
  </g>
</svg>