<?xml version="1.0" encoding="UTF-8"?>
<svg id="Layer_2" data-name="Layer 2" xmlns="http://www.w3.org/2000/svg" viewBox="0 0 44.17 43.42">
  <g id="Layer_1-2" data-name="Layer 1">
    <g>
      <path d="M44.1,21.07c-.08-.28-.77-1.82-.91-2.06-.24-.42-.59-.72-.96-.81-.26-.06-.52-.02-.76.13-.37.24-.38.73-.38,1.21,0,.63-.04,1.05-.46,1.17-.14.01-.25-.03-.34-.12-.27-.29-.32-1.1-.14-2.18.03-.17.09-.34.15-.52.12-.35.25-.72.13-1.1-.1-.33-.38-.6-.62-.84-.15-.14-.28-.28-.37-.41-.13-.2-.26-.44-.38-.68-.49-.93-1.05-1.99-2.48-1.53l-.05.02-.02.05c-.3.66-.04,1.28.22,1.89.13.3.26.62.32.93.05.25.09.56.13.89-.4-.42-.79-.85-1.2-1.26.02-.33.03-.64.02-.91-.01-.24-.11-.49-.2-.72-.1-.26-.2-.5-.18-.73,0-.13.06-.24.12-.35.12-.23.25-.49.04-.96-.11-.26-.47-.36-.82-.45-.17-.04-.32-.09-.42-.14-.37-.2-.59-.66-.8-1.11-.15-.33-.31-.67-.54-.91-.49-.53-1.59-1.62-2.17-2.17-.21-.2-.48-.36-.74-.51-.23-.13-.44-.25-.62-.4-.21-.18-.38-.39-.54-.6-.32-.4-.64-.82-1.28-.96-.36-.08-.86-.12-1.19.1-.17.11-.27.28-.31.5-.14.84.6,1.32,1.26,1.75.31.2.6.39.78.6.15.17.26.39.38.61.12.22.25.43.4.63-2.61-2.57-5.23-5.14-7.91-7.61-.34-.32-1.41-1.33-1.77-1.46-.91-.3-.31.68-.09.99.92,1.32,2.14,2.58,3.33,3.83-.02,0-.05,0-.07,0-.21,0-.38.01-.52,0-.27-.01-.55-.04-.82-.07-.59-.06-1.2-.12-1.86-.03-.51.07-2.01.43-2.37.94-.32.44-.39.82-.22,1.11.22.38.81.51,1.38.51.16,0,.32-.01.47-.03.27-.03.55-.14.82-.24.28-.11.55-.21.78-.22.21,0,.48.06.74.11.24.05.49.11.7.12h.24c.67.04,1.79.09,2.56-.17.17.2.33.4.49.6.11.14.36.44.11.56-.18.09-1.22-.16-1.51-.19-2.03-.23-4.17-.13-6.09.57-.2.07-.37.15-.53.23-.06-.13-.1-.28-.14-.43-.07-.29-.15-.6-.44-.81-.5-.22-1.05-.41-1.58-.59-.58-.2-1.18-.4-1.69-.64-.29-.14-.57-.35-.87-.57-.66-.5-1.35-1-2.26-.74-.2.06-.53.38-.54.64-.02.65.85,1.01,1.61,1.34.3.13.59.25.75.37.09.07.19.15.28.23-1.18-.58-2.37-1.14-3.52-1.44-.27-.07-.8-.2-.4.23,1.26,1.34,3.97,2.29,5.43,3.46.21.17.37.31.28.61-.05.16-1.08.9-1.29,1.09-2.86,2.5-4.38,5.73-4.75,9.51-.06.61.19,1.48-.76,1.44l-4.47-.95c-.4.08-.54.24-.54.44-.03,0-.05-.02-.07-.03-.7-.22-1.3-.17-1.67.11-.29.23-.42.58-.39,1.05.04.59.58,1.3,1.06,1.92.2.26.39.51.53.72.1.16.16.32.22.49.06.17.13.35.23.51.23.38.57.63.9.87.27.2.54.4.75.67.8,1.04.93,1.15,1.58,1.68.16.13.34.28.57.48,1.68,1.42,3.16,2.92,4.87,4.74l.31.33c.66.7.67.72,1.71,1.47.27.2.49.48.7.75.21.27.43.56.71.76.26.19.54.3.81.41.21.08.42.16.59.28.18.12.36.32.55.53.37.41.8.88,1.39.88h.02c.26,0,.48-.14.63-.39.23-.38.27-.99.09-1.37-.1-.21-.45-.39-.81-.58-.21-.11-.43-.22-.53-.31-.12-.11-.24-.31-.35-.5-.12-.2-.24-.41-.39-.55-.3-.3-.66-.52-1.04-.75-.41-.25-.83-.5-1.18-.88-.89-.97-1.54-1.92-2.22-2.93.27.26.54.52.8.78,1.94,1.89,3.88,3.79,5.84,5.68,0,.01,0,.02.01.04l.02.04.04.02s.02,0,.03.01c.82.79,1.63,1.58,2.46,2.35.5.47,1.87,1.84,2.4,2.08.35.15.73.12.64-.35-.1-.5-1.58-2.12-1.99-2.6-.12-.15-.26-.29-.38-.43.3.05.6.09.9.09.24,0,.49-.02.74-.06.25-.04.52-.17.78-.29.29-.13.59-.27.84-.29.2-.01.41.02.63.06.48.09,1.03.19,1.52-.35.25-.27.36-.52.33-.76-.03-.25-.21-.48-.54-.7-.87-.58-2.09-.35-3.17-.15-.53.1-1.03.19-1.46.19h0c-.39,0-.79-.1-1.18-.19-.54-.13-1.09-.26-1.62-.15-.02,0-.05.02-.07.03-.18-.21-.37-.43-.54-.64-.1-.13-.44-.53-.23-.68.19-.13,1.86.18,2.24.2,1.58.09,3.35-.03,4.87-.52.08.02.14.04.23.06.19.05.37.06.54.06.24,0,.46.02.7.13.35.17.54.5.74.86.16.29.33.59.61.81.87.68,3.13.98,3.66.32.21-.26.24-.73-.76-1.55-.12-.1-.24-.17-.36-.24.9.43,1.8.87,2.71,1.23.24.09,1.42.56,1.58.43.15-.13-.89-.85-.98-.92-.48-.34-.98-.65-1.48-.95.12-.04.24-.08.36-.14.33-.17,1.69-1.29,2-1.58.29-.27,1.99-3.01,2.16-3.39.23-.51,1.08-2.65,1.17-3.14.07-.38.06-.78.04-1.16-.01-.38-.03-.74.04-1.07.04-.22.16-.4.29-.59.19-.29.4-.63.43-1.16.03-.61-.24-1.16-.66-1.36-.2-.09-.61-.19-1.1.26-.5.45-.95,2.45-1.02,3.06-.04.33-.03.68-.02,1.03.01.46.02.93-.07,1.3-.06.21-1.62,3.1-1.82,3.36-.2.26-.55.61-.95,1.01-.98.97-2.08,2.07-2.05,2.87-.56-.33-1.13-.66-1.66-1.02-.77-.56.48-1.16.9-1.52,2.75-2.41,4.58-5.75,4.81-9.45.04-.69-.3-1.78.7-1.82,1.3.17,2.7.68,3.99.81.41.04.6-.02.69-.13.13.1.26.19.39.25.42.2.94.32,1.41.32.4,0,.76-.09,1.01-.29.22-.18.44-.54.26-1.22ZM18.73,9.26c.51-.09,1.03-.18,1.5-.05.33.09,2.36,1.17,2.68,1.41.49.37.77.62,1,.83.5.45.71.64,2.2,1.15.99.33,1.09.34,1.75.4.16.02.36.03.62.06,1.06.11,1.8.89,2.52,1.64.12.12.24.25.36.37l.04.04h.05s0,0,.01,0c.13,0,.29.03.45.08.32.34.65.68.94,1.02.08.1.53.64.42.74h-.24c-.17-.46-.45-.88-.82-1.16l-.04-.03h-.05c-.28.06-.46.16-.56.32-.03.05-.05.11-.06.17-1.11-.51-2.22-1.03-3.33-1.55-.39-.59-1.01-1.51-1.15-1.57l-.03-.02h-.04c-.59.06-.91.21-1,.47,0,.03,0,.05-.01.08-1.51-.7-3.03-1.4-4.55-2.08l.02-.04-.12-.05c-.14-.07-.28-.11-.42-.14-.17-.08-.35-.16-.52-.24-.76-.34-1.6-.64-2.34-1-.64-.31-.76-.51-.07-.74.25,0,.52-.06.79-.1ZM26.19,13.78s-.02-.08-.01-.11c.04-.1.2-.24.74-.3.12.13.49.65.81,1.13-.51-.24-1.03-.48-1.54-.71ZM31.72,16.34c0-.05.02-.1.04-.14.06-.09.17-.15.34-.19.25.2.44.48.59.78-.32-.15-.64-.3-.97-.45ZM37.3,16.18c-.07-.34-.2-.67-.34-.98-.24-.57-.46-1.1-.24-1.64,1.19-.35,1.65.51,2.13,1.42.13.24.26.49.4.7.1.15.25.3.4.45.23.23.47.47.56.74.09.3-.01.61-.13.94-.06.18-.13.37-.16.56-.08.47-.15,1.17-.06,1.73-.78-.92-1.58-1.82-2.4-2.69-.03-.46-.09-.9-.16-1.24ZM28.59,7.73c-.2-.23-.51-.43-.83-.65-.62-.4-1.27-.82-1.15-1.5.03-.15.09-.26.2-.34.2-.13.55-.15,1-.06.54.12.83.48,1.13.87.17.22.35.44.58.64.2.16.43.3.65.43.26.15.5.29.7.47.58.55,1.68,1.63,2.16,2.16.2.22.34.52.5.85.23.48.46.98.91,1.22.12.07.29.11.47.16.26.07.59.16.65.31.16.37.07.54-.04.75-.06.12-.13.27-.15.45-.02.29.09.57.2.84.09.23.17.44.18.64,0,.2,0,.42,0,.66-1.07-1.09-2.15-2.16-3.24-3.22-.05-.07-.11-.15-.16-.22-.6-.81-1.22-1.64-1.81-2.26-.15-.16-.35-.29-.55-.42-.19-.12-.36-.24-.49-.37-.2-.21-.35-.48-.49-.74-.12-.23-.25-.46-.42-.66ZM29.85,9.71c.18.12.37.24.51.38.31.32.62.71.94,1.12-.57-.56-1.14-1.11-1.7-1.67.08.06.17.12.26.17ZM22.03,6.84h-.25c-.19-.02-.43-.07-.66-.12-.28-.06-.58-.13-.81-.12-.28,0-.58.12-.87.24-.25.1-.51.2-.76.23-.62.08-1.39,0-1.6-.36-.12-.2-.05-.48.21-.83.27-.38,1.58-.74,2.2-.83.62-.09,1.19-.03,1.8.03.27.03.55.06.83.07.13,0,.32,0,.54,0,.09,0,.19,0,.3,0,.5.53.98,1.05,1.44,1.58-.72.21-1.8.16-2.37.13ZM26.9,9.87c.92.47,2.87,3,3.69,3.9.33.37.69.73,1.04,1.1-.04,0-.09-.02-.13-.02-.11-.11-.21-.22-.32-.33-.72-.75-1.53-1.6-2.68-1.72-.26-.03-.46-.05-.63-.06-.65-.06-.73-.07-1.69-.39-1.45-.49-1.64-.67-2.11-1.1-.23-.21-.51-.47-1.02-.84-.35-.26-2.4-1.35-2.76-1.45-.06-.02-.13-.02-.2-.03,2.3-.25,5,.02,6.8.94ZM12.03,7.05c-.18-.13-.48-.26-.8-.39-.65-.28-1.47-.62-1.46-1.1,0-.13.23-.37.36-.4.79-.24,1.4.22,2.04.7.29.22.59.44.91.59.53.25,1.13.46,1.72.65.53.18,1.08.36,1.54.57.19.14.26.39.32.65.04.16.08.32.16.48-.51.25-.87.39-1.71.06-.72-.28-1.46-.64-2.22-1.01-.29-.3-.56-.58-.87-.8ZM24.01,34.96c-.31-.07-.65-.13-1.1-.2-.74-.12-2.95-1.65-3.54-2.21-.14-.13-.27-.32-.39-.51-.14-.22-.28-.43-.43-.52-.24-.15-.59-.22-.96-.3-.33-.07-.68-.14-.93-.26-.23-.12-.41-.3-.61-.5-.35-.35-.72-.71-1.33-.69-.18,0-.33.06-.48.12-.15.06-.3.12-.46.1-.34-.02-.82-.25-1.28-.47-.04-.02-.08-.04-.12-.06-.48-.5-.96-.99-1.41-1.49.61.4,1.27.74,1.94.95l.13.04.03-.13c.06-.26-.04-.39-.14-.52-.02-.02-.04-.05-.06-.07-.1-.14-.25-.33-.42-.53,2,.92,4.03,2,6.02,2.91,1.08.5,2.21.96,3.33,1.43,0,0,0,0,0,0-.23.07-.45.14-.52.33-.04.13,0,.28.11.46l.02.04h.04c.42.15.88.27,1.33.2.26-.04.46-.2.63-.34,0,0,0,0,0,0,.79.34,1.57.68,2.32,1.04.41.2.98.48.23.76-.53.2-1.21.35-1.95.44ZM6.33,26.9c.44.87.81,1.67.74,1.91-.02.08-.11.11-.18.11-.67,0-2.31-2.72-2.69-3.59-.13-.3-.23-.63-.33-.98-.02-.05-.03-.11-.05-.16.79.9,1.64,1.8,2.38,2.59.04.04.08.09.12.13ZM10.31,27.15c-.08-.13-.13-.25-.08-.29.09-.09.8.21.94.27.24.1.48.22.73.33.32.36.59.69.76.92.02.03.04.06.06.08.05.07.09.11.1.17-.91-.31-1.78-.84-2.51-1.47ZM22.73,32.81c-.38.06-.79-.04-1.17-.16-.05-.09-.08-.16-.06-.2.03-.07.2-.13.36-.18.09-.03.18-.06.27-.1.34.14.67.29,1.01.43-.13.1-.25.19-.41.21ZM11.49,32.35c.7,1.03,1.35,2,2.27,2.99.37.4.81.67,1.23.92.36.22.71.43.99.71.12.12.24.32.35.5.13.22.25.42.4.56.12.11.35.23.58.35.27.14.64.33.7.46.13.26.13.79-.08,1.13-.11.17-.25.26-.42.27h-.02c-.48,0-.85-.4-1.21-.8-.2-.22-.39-.43-.6-.57-.2-.13-.42-.22-.64-.3-.25-.1-.52-.2-.75-.37-.25-.19-.45-.44-.66-.71-.22-.29-.45-.59-.75-.8q-1.03-.74-1.68-1.43l-.31-.33c-1.72-1.82-3.21-3.33-4.89-4.76-.23-.2-.42-.35-.58-.48-.62-.52-.75-.62-1.54-1.64-.23-.3-.52-.51-.8-.72-.32-.24-.62-.46-.83-.8-.09-.15-.15-.3-.21-.47-.07-.18-.14-.36-.25-.54-.14-.22-.33-.48-.54-.75-.46-.6-.98-1.27-1.01-1.78-.02-.39.08-.67.3-.84.17-.13.41-.2.7-.2.23,0,.48.04.75.12.08.03.15.06.22.1.07.14.17.29.28.44.28.36.59.73.92,1.11.08.23.15.46.22.7.1.34.21.7.34,1.01.23.54,1.98,3.74,2.92,3.74h0c.2,0,.36-.12.41-.29.06-.23-.11-.72-.42-1.38,1.27,1.32,2.59,2.6,3.91,3.87.24.34.46.67.68.99ZM20.9,37.63c.41.1.83.2,1.24.2h0c.46,0,.97-.1,1.51-.2,1.08-.2,2.2-.41,2.99.11.27.18.41.35.43.53.02.17-.07.35-.26.56-.4.44-.81.36-1.29.27-.22-.04-.46-.08-.69-.07-.29.02-.62.17-.93.31-.26.12-.5.23-.71.27-.64.11-1.27.05-1.88-.09-.62-.68-1.26-1.36-1.87-2.05.46-.08.94.03,1.45.16ZM15.86,33.36c-1-.99-1.98-2.28-2.94-3.34-.02-.02-.05-.05-.07-.07.32.15.64.26.91.28.02,0,.03,0,.05,0,.19,0,.36-.06.51-.12.13-.05.26-.1.4-.1.51-.02.82.29,1.15.62.2.2.41.41.67.54.28.14.65.22,1,.29s.68.14.88.26c.1.07.23.26.36.45.13.2.27.41.43.56.6.56,2.87,2.15,3.68,2.28.09.01.17.03.25.04-2.64.18-5.84-.27-7.26-1.68ZM31.88,37.71c-.41.51-2.48.29-3.31-.36-.23-.18-.38-.45-.54-.73-.21-.37-.43-.76-.85-.96-.28-.13-.54-.14-.79-.15-.12,0-.24-.02-.36-.04.61-.27,1.41-.7,1.84-.68.11,0,.23.04.35.08.15.29.32.57.57.74.31.2.62.26.95.31.44.08.88.15,1.42.59.66.54.91.96.72,1.2ZM31.85,35.17c-.07-.69,1.12-1.86,1.98-2.72.41-.41.76-.76.97-1.03.17-.22,1.8-3.18,1.86-3.45.1-.41.09-.9.08-1.37,0-.34-.02-.69.02-1,.08-.68.54-2.54.94-2.91.28-.26.58-.33.83-.21.33.15.54.6.52,1.12-.02.47-.21.75-.39,1.04-.13.2-.27.42-.32.68-.07.36-.06.75-.05,1.13.01.37.03.75-.04,1.11-.08.44-.9,2.51-1.15,3.08-.17.39-1.87,3.09-2.11,3.31-.3.28-1.64,1.39-1.94,1.54-.17.09-.37.15-.56.18-.2-.12-.4-.24-.59-.35-.01-.05-.03-.08-.04-.14ZM30.45,35.83c-.24-.08-.47-.12-.68-.16-.32-.05-.59-.1-.85-.28-.14-.09-.24-.23-.34-.39.63.24,1.25.53,1.87.82ZM35.26,22.52c-.18,3.74-2.18,7.64-5.13,9.93-.54.42-1.22,1.06-1.93.63-3.37-2.09-6.7-4.24-10.11-6.25-1.74-1.02-3.69-2.24-5.47-3.13-1.21-.6-2.44-.51-3.6-.93-.61-.22-.66-.77-.65-1.33.07-3.11,1.61-6.49,3.73-8.72.46-.49,2.1-1.97,2.71-2.05.23-.03.47.04.68.15,3.72,2.33,7.44,4.67,11.25,6.87,1.28.74,2.7,1.63,4,2.28,1.28.65,2.58.54,3.83.99.78.28.74.84.71,1.56ZM43.68,22.1c-.46.38-1.47.26-2.15-.07-.14-.07-.3-.19-.45-.31-.07-.24-.29-.53-.48-.77.04,0,.07.01.11.01.64-.19.65-.84.66-1.41,0-.43,0-.84.27-1.01.18-.12.37-.15.56-.1.29.07.6.34.8.69.14.25.82,1.77.88,2,.12.44.06.77-.18.96Z"/>
      <path d="M5.45,21.62c.12.07.24.1.37.1.11,0,.23-.03.34-.08.57-.26.77-1.62.94-2.82.07-.45.12-.85.19-1.08.09-.3.25-.63.4-.95.12-.25.24-.5.33-.74.08-.23.15-.5.22-.79.11-.46.23-.94.42-1.21.17-.24.49-.4.83-.56.3-.15.61-.3.85-.53.2-.19.34-.44.48-.68.12-.21.24-.41.37-.55.12-.12.29-.23.47-.34.33-.21.67-.42.81-.77.21-.52.18-1-.08-1.3-.26-.3-.69-.4-1.23-.27-.55.13-2,1.74-2.28,2.1-.27.36-.43.73-.57,1.09-.11.28-.22.54-.38.78-.15.23-.35.38-.56.54-.2.15-.4.3-.56.52-.54.73-1.85,3.29-2.01,4.16-.09.47-.2,1.37-.16,1.83.04.47.32,1.26.81,1.54ZM5.04,18.29c.15-.83,1.45-3.36,1.97-4.06.14-.19.32-.33.51-.47.22-.17.45-.34.62-.6.17-.26.28-.53.4-.82.14-.34.29-.7.54-1.04.4-.52,1.73-1.92,2.14-2.01.13-.03.26-.05.37-.05.27,0,.48.08.61.24.2.23.21.61.03,1.04-.11.27-.41.46-.71.65-.19.12-.38.24-.52.38-.16.16-.29.38-.41.6-.13.23-.27.46-.44.62-.21.2-.5.34-.79.48-.35.17-.72.35-.92.65-.21.3-.34.81-.46,1.29-.07.28-.14.55-.22.77-.09.23-.21.48-.33.72-.16.33-.32.67-.42.99-.07.25-.13.65-.2,1.11-.14.96-.35,2.42-.8,2.63-.17.08-.33.07-.48-.01-.4-.23-.64-.94-.68-1.34-.04-.44.07-1.31.15-1.76Z"/>
      <path d="M18.51,41.28l-.04.04c-.21.38-.2.8,0,1.19.26.49.81.85,1.36.91.01,0,.04,0,.09,0,.2,0,.68-.03.79-.2h0c.3-.48-.04-1.13-.51-1.57-.48-.45-1.19-.74-1.69-.38ZM20.5,43.09c-.08.05-.47.1-.65.08-.47-.05-.94-.36-1.16-.78-.12-.22-.21-.55-.02-.93.38-.25.95,0,1.35.37.39.36.68.91.47,1.25Z"/>
      <path d="M24.22,2.32s.06,0,.09,0c.17,0,.3-.06.39-.19.21-.43-.14-1-.6-1.32-.39-.26-.76-.27-.98-.02-.15.17-.18.38-.1.61.17.45.78.85,1.2.91ZM23.31.98h0c.06-.07.14-.1.23-.1.17,0,.36.11.43.16.36.24.66.71.53.98-.05.07-.16.07-.24.06-.34-.04-.86-.39-1-.75-.05-.14-.04-.25.05-.35Z"/>
    </g>
  </g>
</svg>