<?xml version="1.0" encoding="UTF-8"?>
<svg id="Layer_2" data-name="Layer 2" xmlns="http://www.w3.org/2000/svg" viewBox="0 0 54.57 31.33">
  <g id="Layer_1-2" data-name="Layer 1">
    <g>
      <path d="M45.2,16.53l.74-1.75,1.64-3.83,1.95-8.18-6.49,5.5C39.58,3.27,33.81,0,27.29,0s-12.29,3.27-15.75,8.27L5.05,2.77l1.95,8.18,1.64,3.83.74,1.75-1.07-.02L0,16.35h0l2.5,7.27,8.29,7.7,14.4-.03-.17-6.66h0l-5.95-10-2.82-2.39c2.31-3.68,6.4-6.14,11.05-6.14s8.76,2.45,11.06,6.14l-2.82,2.39-5.96,10-.18,6.66,14.4.03,8.29-7.7,2.5-7.27-8.3.16-1.07.02ZM18.79,14.87l5.61,9.42-15.17.03L.93,16.72l7.33.14,1.27.03,1.48.03h.54s-.22-.49-.22-.49l-1.86-4.3L5.96,4l5.37,4.55,4.72,4,2.74,2.32ZM53.66,16.72l-8.3,7.6-15.17-.03,5.61-9.42,2.74-2.32,4.72-4,5.37-4.55-3.5,8.12-1.86,4.3-.22.5h.46s.08,0,.08,0l1.48-.03,1.27-.03,7.33-.14Z"/>
      <path d="M26.69,16.04v-.64s1.03,0,1.03,0c.1,0,.17.02.2.05.04.04.05.11.05.21v.38s.74,0,.74,0v-.5c0-.14-.05-.25-.13-.33-.08-.08-.2-.13-.35-.14.16-.05.27-.12.35-.22.08-.1.12-.23.12-.39,0-.23-.08-.4-.24-.52-.16-.12-.39-.17-.7-.17h-1.84s.01,2.27.01,2.27h.74ZM27.6,14.36c.11,0,.2.01.25.04.06.03.08.09.08.17,0,.09-.03.14-.08.18-.06.03-.14.05-.25.05h-.93s0-.43,0-.43h.93Z"/>
      <path d="M29.98,12.6h-5.4v4.79h5.4v-4.79ZM29.51,16.92h-4.45v-3.85h4.45v3.85Z"/>
    </g>
  </g>
</svg>