<?xml version="1.0" encoding="UTF-8"?>
<svg id="Layer_2" data-name="Layer 2" xmlns="http://www.w3.org/2000/svg" viewBox="0 0 62.92 41.61">
  <g id="Layer_1-2" data-name="Layer 1">
    <g>
      <path d="M61.75,19.69c-2.56-2.23-9.68-3.38-13.07-3.84-1-.13-2.35-.13-3.28-.36-.31-.08-.47-.28-.18-.52,1.04-.76,2.32-1.31,3.37-2.03,1.65-1.13.55-3.04-1.19-2.31-4.48,2.26-8.74,5.49-13.87,6.04-6.32.68-10.33-1.81-15.57-4.69-.9-.5-2.25-1.56-3.28-1.48-1.23.09-1.46,1.55-.58,2.29.95.8,2.5,1.35,3.52,2.11.48.55-.11.57-.54.64-4.6.69-9.69,1.02-13.98,2.99-3.07,1.41-4.62,4.09-1.06,6.19,2.52,1.49,6.25,2.22,9.13,2.73,5.05.9,10.24,1.34,15.36,1.61,1.09.06,2.13-.25,2.88.82.31.44.36,1.68.39,2.25.11,2.35.08,4.71.23,7.05.04.68.02,1.53.55,2.06.68.68,1.67.35,2.04-.47.3-.66.24-1.21.28-1.89.15-2.59.04-5.3.35-7.87.06-.46-.06-.66.25-1.11.79-1.16,1.94-.8,3.13-.86,4.85-.22,10-.73,14.79-1.54,2.97-.5,8.91-1.62,10.87-3.98,1.09-1.32.63-2.81-.56-3.85ZM27.36,26.4c-.74.13-1.86-.02-2.63-.05-4.61-.14-9.36-.48-13.9-1.31-1.98-.36-6.38-1.27-7.88-2.51-.51-.42-.66-.72-.09-1.2,1.52-1.29,6.02-2.23,8.03-2.59,3.12-.57,6.94-1.14,10.1-1.23.21,0,.42-.04.63-.02.38.04,1.42.84,1.76,1.12,1.54,1.25,3.09,3.09,4.03,4.83.17.31.77,1.52.8,1.79.05.46-.38,1.09-.85,1.17ZM32.53,23.71c-.26.49-.27,1.07-.93,1.12-.96.07-.94-.66-1.31-1.33-.61-1.11-1.4-2.35-2.18-3.34-.21-.26-.93-.91-.94-1.18-.02-.37.33-.28.61-.26,1.6.13,2.91.42,4.59.35.96-.04,2.05-.34,2.93-.36.1,0,.29,0,.37.08.1.1,0,.31-.06.42-1.16,1.4-2.22,2.89-3.08,4.5ZM59.53,22.82c-1.38.8-3.29,1.3-4.84,1.67-6.22,1.48-12.77,1.79-19.15,1.91-.48-.18-.88-.72-.8-1.25.05-.3.61-1.35.79-1.68,1.11-2.04,2.66-3.83,4.5-5.25.33-.25,1.04-.76,1.44-.78.22-.01.53.08.75.1,3.03.16,6.09.55,9.08,1.08,2.46.43,6.17,1.13,8.29,2.4,1.24.75,1.13,1.11-.06,1.8Z"/>
      <path d="M24.9,9.16c1.07.17.75.48,1.01,1.34,1.72,5.71,9.61,5.56,11.13-.02.25-.9-.08-1.18,1.02-1.33,3.07-.4,8.97-.62,11.39-2.59,1.06-.87,1.25-2.16.35-3.22-1.44-1.71-6.95-2.47-9.16-2.76C36.51.06,32.24-.1,28.09.06c-3.68.15-8.7.6-12.19,1.73-1.84.59-4.59,2.14-2.83,4.39,1.86,2.39,8.97,2.53,11.82,2.97ZM34.73,2.64c.5-.02,1.12.09,1.62.11,2.8.11,5.63.34,8.36.98.55.13,1.48.33,1.96.56.64.3.44.78-.12,1.03-1.85.81-6.31,1.43-8.38,1.54-.53.03-1.09.12-1.44-.32-.51-.65-.74-1.37-1.44-1.97-.35-.3-1.53-.85-1.67-1.09-.33-.56.71-.82,1.1-.83ZM32.45,12.29c-4.68,1.36-6.3-6.03-1.42-6.65,4.16-.52,5.46,5.48,1.42,6.65ZM16.99,4.11c2.69-.95,7.16-1.32,10.04-1.41.54-.02,1.88-.17,2.19.36.31.54-.52.75-.84.98-.54.38-1.2.99-1.59,1.52-.24.33-.57,1.19-.96,1.27-.52.12-1.28-.06-1.81-.1-2-.18-4.05-.48-6-.99-.47-.12-1.53-.32-1.6-.86-.06-.45.19-.64.57-.77Z"/>
    </g>
  </g>
</svg>