<?xml version="1.0" encoding="UTF-8"?>
<svg id="Layer_2" data-name="Layer 2" xmlns="http://www.w3.org/2000/svg" viewBox="0 0 42.57 42.51">
  <defs>
    <style>
      .cls-1 {
        fill-rule: evenodd;
      }
    </style>
  </defs>
  <g id="Layer_1-2" data-name="Layer 1">
    <g>
      <path class="cls-1" d="M26.23,20.66l-.22-.61c-.12-.32-.47-.49-.79-.38l-2.14.74c-.4.14-.82-.16-.82-.59v-2.12c0-.34-.28-.62-.62-.62h-.64c-.34,0-.62.28-.62.62v2.14c0,.43-.43.73-.83.58l-2.09-.75c-.32-.12-.68.05-.79.37l-.22.61c-.12.33.06.69.39.8l2.14.69c.4.13.56.61.31.96l-1.35,1.85c-.2.28-.14.68.15.87l.62.43c.28.2.68.12.87-.16l1.28-1.89c.25-.37.79-.36,1.03,0l1.25,1.87c.19.29.59.37.88.16l.58-.41c.28-.2.34-.59.14-.87l-1.33-1.86c-.24-.34-.09-.82.31-.95l2.12-.69c.33-.11.51-.47.39-.8"/>
      <path class="cls-1" d="M41.18,13.47C38.29,6.16,31.11-.16,20.77,0c-.78.06-1.57.12-2.35.18-1.59.29-3.08.56-4.44,1.09C7.89,3.62,3.65,7.87,1.3,13.95c-.47,1.23-.75,2.57-1.03,3.99-.64,3.27-.05,7.12.75,9.69,1.9,6.1,6.09,10.6,11.68,13.01,1.53.66,3.17,1.17,5.01,1.57.76.08,1.53.16,2.29.24.63.02,1.27.04,1.9.06,1.93-.29,3.64-.3,5.25-.78,6.53-1.97,11.3-6.29,13.83-12.26,2.01-4.75,2.12-11.09.18-16ZM35.44,7.1c.75.26,1.31,1.27,1.75,1.87,1.35,1.84,2.39,3.75,3.23,6.16.4,1.15.61,2.44.85,3.77.09.49.12,1.2-.15,1.48-.43.44-1.92.24-2.75.24-.98,0-2.73.24-3.38-.18-.74-.47-.67-3.13-.88-4.2-.07-.34-.17-.84-.06-1.18.17-.54,1.66-.59,1.27-1.36-.27-.54-1.32-.26-1.69-.69-.33-.39-.39-1.04-.57-1.57-.37-.94-.74-1.87-1.12-2.81-.17-.34-.67-.97-.57-1.39.07-.13.13-.14.24-.21.94,0,3.1-.19,3.83.06ZM32.51,4.53c.48.32,1.1.63,1.42,1.12v.15c-.3.18-.94.12-1.42.12h-1.81c-.61-.16-1.46-1.72-1.93-2.2-.26-.27-1.32-1.17-1.27-1.51,1.5,0,4,1.65,5.01,2.32ZM22.1,1.24c.07-.02.14-.04.21-.06,2.34.32,3.92,1.56,5.25,2.9.42.42,1.14.97,1.27,1.63-.03.06-.06.12-.09.18-.46.11-1.16.06-1.72.06h-3.35c-.55,0-1.45.12-1.69-.21-.23-.31-.09-2.04-.09-2.6,0-.69-.08-1.51.21-1.9ZM21.89,9.82c0-.56-.13-2.3.12-2.57.07-.12.16-.14.27-.21h5.4c.61,0,1.71-.15,2.11.12.66.45,1.26,2.4,1.6,3.26.17.43.91,2.2.63,2.63-.3.45-2.98.27-3.83.27-1.5.01-3,.02-4.5.03-.6,0-1.43.1-1.69-.24-.29-.38-.12-2.58-.12-3.29ZM20.56,13.2c-.41.31-1.63.15-2.29.15-1.78-.01-3.56-.02-5.34-.03-.59,0-1.73.17-2.14-.09-.48-.29-.09-1.23.06-1.66.33-.95,1.42-3.97,2.08-4.38.47-.28,1.4.07,1.96-.15h3.74c.65,0,1.46-.06,1.96.09.43.64.18,3.54.18,4.62,0,.52.09,1.22-.21,1.45ZM18.32,1.75c.55-.24,1.2-.28,1.78-.54.34,0,.43.05.6.18.17.7.17,3.71-.03,4.35-.55.37-3.96.18-5.01.18-.46,0-1.25.11-1.6-.06-.13-.06-.16-.1-.18-.27.57-1.34,3.05-3.23,4.44-3.83ZM9.99,4.68c1.01-.71,2.13-1.38,3.32-1.9.5-.18,1.01-.36,1.51-.54h.3s.02.04.03.06c-.46.89-1.48,1.52-2.08,2.32-.28.37-.55,1.01-1,1.21-.58.25-2.37.06-3.14.06-.05-.04-.1-.08-.15-.12.05-.54.84-.83,1.21-1.09ZM1.9,16.31c.78-2.85,1.89-5.06,3.41-7.13.47-.64.99-1.5,1.66-1.93.57-.36,2.04-.17,2.87-.18.28-.01.56-.02.85-.03.21.04.37.08.51.15.12.51-.29,1.01-.48,1.45-.37.83-.74,1.73-1.06,2.63-.2.57-.27,1.37-.63,1.78-.42.47-1.66.04-1.78.82-.12.77,1.14.55,1.36,1.12.13.34,0,.9-.06,1.24-.17.88-.17,3.29-.54,3.89-.5.82-3.49.51-4.86.51-.73,0-1.45.07-1.72-.39-.39-.68.31-3.29.48-3.92ZM6.91,35.27c-.38-.45-.76-.91-1.15-1.36-1.73-2.25-3.07-4.69-3.92-7.85-.17-.63-.77-3.18-.42-3.8.14-.24.37-.27.63-.39,1.2-.02,5.11-.2,5.71.24.64.48.56,3.1.75,4.11.06.33.19.9.06,1.24-.16.41-1,.52-1.33.75-.06.24-.04.39.03.6.39.26,1.24.19,1.63.48.43.32.52,1.19.69,1.75.33,1.05.78,2.08,1.24,3.02.15.3.67.98.51,1.36-.16.27-.75.18-1.18.18-1.12,0-2.62.17-3.26-.33ZM15.18,40.25c-.66.16-1.38-.34-1.84-.54-1.61-.69-3.3-1.53-4.44-2.72.02-.07.04-.14.06-.21.06-.02.12-.04.18-.06,1,.01,1.99.02,2.99.03.39.14.59.6.82.91.33.4.66.81,1,1.21.36.45,1.04.77,1.24,1.36v.03ZM20.53,41.18c-1.72.42-4.56-1.9-5.4-2.75-.34-.34-1.5-1.25-.97-1.72,1.46.01,2.92.02,4.38.03.57,0,1.49-.15,1.87.06.5.24.47,3.9.12,4.38ZM20.74,32.7c0,.59.14,2.28-.09,2.63-.26.39-3.43.27-4.23.27-1.1-.01-2.19-.02-3.29-.03-.83-.3-1.91-3.54-2.26-4.56-.13-.37-.5-1.18-.3-1.57.12-.26.31-.25.57-.36h6.64c.8,0,2.12-.17,2.63.18.6.41.33,2.47.33,3.44ZM21.22,26.72c-.6.13-.8.92-1.42,1.12-.61.19-1.53.03-2.2.03-1.6-.01-3.2-.02-4.8-.03-.73,0-2,.17-2.48-.15-.48-.33-1.14-3.97-.88-4.98.07-.28.29-.56.51-.69.52-.32,1.33-.13,2.08-.24.74-.11,1.46-.16,2.02-.36l.06-.27c-1-.66-3.18-.06-4.17-.66-1.02-.63-.34-5.51.54-5.86.53-.21,1.53-.06,2.17-.06h4.89c.66-.01,1.33-.02,1.99-.03,1.58.04.79,1.53,1.66,1.93.07.01.14.02.21.03.49-.45.45-1.56,1.06-1.87.49-.25,1.67-.06,2.29-.06,1.77-.01,3.54-.02,5.31-.03.75,0,1.79-.11,2.23.21.48.34,1.19,4.17.85,5.13-.09.25-.33.51-.54.63-.37.22-.85.1-1.39.18-.98.15-1.98.06-2.69.42-.01.06-.02.12-.03.18.6.84,2.83.22,3.89.6.35.13.69.47.78.85.23.86-.34,4.28-.66,4.71-.4.54-1.48.42-2.42.42-2.09.01-4.19.02-6.28.03-.64,0-1.09-.03-1.45-.3-.29-.22-.61-1-1.18-.88ZM21.92,33.52c0-.95-.21-3.57.18-4.11.15-.2.42-.22.66-.33h6.55c.75,0,2.08-.18,2.57.15.46.31.09,1.22-.06,1.66-.51,1.45-1.01,3.14-1.87,4.29-.52.69-4.69.39-6.04.39-.62,0-1.64.14-1.9-.24-.23-.34-.09-1.3-.09-1.81ZM23.85,40.85c-.36.14-1.21.56-1.66.33-.12-.06-.23-.17-.27-.3v-3.68c.09-.13.18-.26.27-.39.13-.03.26-.06.39-.09,1.97.02,3.95.04,5.92.06.35.52-.6,1.23-.91,1.54-1.07,1.07-2.18,1.94-3.74,2.54ZM27.53,40.28s-.04-.04-.06-.06c.65-.71,1.31-1.43,1.96-2.14.31-.4.59-1.07,1.09-1.27.63-.26,1.72.16,2.39-.09.23.02.46.04.69.06.02.04.04.08.06.12.01.03.02.06.03.09-.82,1.11-4.47,2.98-6.16,3.29ZM40.76,26.18c-.84,3.05-2.07,5.34-3.71,7.52-.39.51-.79,1.14-1.3,1.54-.63.5-2.09.33-3.2.33-.45,0-1.02.09-1.18-.21-.14-.4.36-1.07.51-1.39.41-.86.78-1.8,1.12-2.75.21-.59.28-1.38.66-1.81.39-.44,1.93-.14,1.66-1.12-.22-.48-.99-.39-1.21-.88-.22-.49.04-1.32.12-1.78.18-1-.05-2.92.6-3.47.2-.17.43-.18.69-.3,1.2,0,5.27-.25,5.68.36.43.63-.28,3.32-.45,3.96Z"/>
    </g>
  </g>
</svg>