<?xml version="1.0" encoding="UTF-8"?>
<svg id="Layer_2" data-name="Layer 2" xmlns="http://www.w3.org/2000/svg" viewBox="0 0 61.52 39.91">
  <g id="Layer_1-2" data-name="Layer 1">
    <g>
      <path d="M17.02,33.85c-.09.1-.22.69-.31.88-.35.78-1.86,2.14-2.72,2.26-2.11.3-3.22-.62-4.7-1.91-.62-.54-1.34-1.44-2.07-1.76-.12-.06-.29-.06-.42-.12-.55-.25-.71-1.1-1.07-1.61-.47-.66-1.2-1.22-1.65-1.93-.33-.52-.44-1.05-.69-1.56-.28-.58-.78-.35-1.29-.41-1.13-.13-2.38-1.72-1.87-2.83.07-.14.22-.22.31-.42.12-.28.42-1.12.48-1.4.02-.09.02-.17.01-.26-.38-.07-.15.51-.51.49-.18-.02-.54-.52-.51-.69.01-.09.31-.48.39-.52.21-.12.46,0,.64-.17.22-.35-.37-.9-.23-1.5.03-.14.9-1.17,1.05-1.2.11-.01.09,0,.09.09,0,.19-.18.58-.31.73-.29.34-.75.37-.33,1,.63.94,1.76,1.2,2.84,1.15.18,0,.58-.15.52-.38-.07-.29-.53-.11-.69-.12-.58-.03-1.65-.5-1.78-1.13-.1-.46.5-.98.58-1.34.13-.53.07-1.26.14-1.81,0-.06.09-.52.18-.46.33.7.62-.05.92-.27.49-.37,1.12-.43,1.54-.95.13-.16.24-.46.36-.58s.34-.15.5-.26c.36-.26.41-.73.86-.96.22-.12.49-.15.71-.26.34-.17,1.88-1.27,2.08-.54.03.11-.02.16-.06.25-.07.14-.66.93-.79,1.09-.29.35-1.33.85-.91,1.33.31.36.53-.06.68-.11s.32.01.47-.02c.57-.11.85-.18,1.46-.18.29,0,.71.09.95.04.5-.11.23-.47.33-.77.01-.03.35-.52.4-.57.28-.32.79-.23.94-.64.07-.18,0-.45.27-.53.2-.05.41.28.55.37.13.08.3.09.44.16.17.09.47.52.71.21.26-.33-.25-.8-.25-1.16,0-.85.32-1.1,1.16-.88.05.41-.57.21-.7.48-.21.45.34.41.64.34s.34-.45.66-.49c.24-.03.3.38.69.26.12-.04.6-.65.63-.78.07-.3-.45-.46-.03-.76.57-.4.38.38.81.33.12-.01.94-.5,1.04-.61.51-.57-.51-1.03-.89-1.37-.09-.08-.69-.64-.71-.68-.05-.11-.05-.3-.11-.44-.27-.64-.92-1.79-.82-2.46.05-.31.33-.39.52-.58.31-.31.38-.35.73-.61.19-.14.79-.89.76-.09-.02.47-.48.89-.14,1.41.29.44.57-.03.91-.09.69-.13.91.55,1.52.76.41.14,2.04.36,2.13-.21.01-.07-.2-.78-.24-.89-.24-.57-.88-.58-1.37-.82-.44-.21.02-.5.04-.78.01-.13-.06-.24-.06-.36,0-.17.36-.73-.2-.56-.23.07-.13.33-.18.49-.04.13-.27.21-.29.44-.02.21.31.72-.09.76-.3.02-1.05-1.02-1.13-1.3s-.01-.49-.05-.74-.3-.42-.21-.7c.08-.26.8-.8,1.07-.88.4-.12,1.25.05,1.55.34.15.14.17.44.43.49.52.1.35-.39.74-.47.54-.12,1.02.54.41.54-.23,0-.45-.12-.71,0-.35.16.19,1.84,1.05,1.67.16-.03.35-.19.46-.2.15-.02.33.15.48.17.92.11,1.22-.97,2.35-.54.27.1.77.51.92.54.39.07.65-.36,1.27-.24.14.03.23.17.37.18.25.01.48-.47.72-.12.16.23.05.73.37.97.06.24-.62.07-.73.08-.31.03-.79.36-1.35.38-1.53.06-3.06-.21-4.6-.03-.26.03-.53.09-.58.39-.06.41-.02,1.94.53,2.02.29.04,1.31-.43,1.75-.47,1.03-.1,2.52.29,3.47-.05.32-.12.58-.37.96-.38.5-.01,1.03.38,1.58.43,1.19.11,2.73,0,3.95,0,.27,0,.42.11.72-.07.51-.3-.11-.98.2-1.08.94.06.8,1.16,1.91.63.54-.26,1.38-.9,1.98-.92.32-.01.98.32,1.2-.09s0-.3.43-.67c.1-.09.09-.24.31-.24.53,0,.93,1.48.94,1.92,0,.26-.46,1.51-.61,1.76-.3.5-1.06,1-1.37,1.49-.17.27-.05.6-.46.7.31.29.59-.05.82-.09.59-.09.41.36.58.69.24.46,1.2,1.42,1.6,1.8.22.2.56.2.43.61-.05.15-.46.41-.22.58.13.1.36-.13.52-.15.86-.13,1.44,1.1,2.3.48.13.11.08.29.16.45.03.06.37.41.42.43.27.12.42-.08.67-.09-.23,1.46,1.12.4,1.76.18-.1.33.2.64.24.88.03.2-.13.58.04.63.31.01.63-.15.57-.51-.03-.17-.36-.43-.1-.65s.42.22.55.37c.12.14.34.19.34.48l.22-.17c.36.03.22.35.33.59.35.14.35-.27.57-.3.26.09.67.07.9.14.15.04.82.75.98.78.26.04-.11-.4-.14-.47-.19-.49-.05-.89-.44-1.38-.59-.75-1.18-.91-1.9-1.38-.4-.27-.76-.54-.16-.88l-.19-.39c.22-.05.27.21.46.24.26.04.45-.17.7-.1.05.01.69.51.76.58.08.07.62.78.63.83.03.3-.54.13-.63.26-.21.31.45.3.58.33.41.11.69.35,1.03-.18.24-.37.05-.58.73-.55.13.11.13.29.24.43.12.16.35.23.49.36.25.25.48,1.14.66,1.53.12.27.33.52.44.78.09.24.11.57.22.76.15.25.59.27.71.57.27.66-.42.49-.38.92s.73.12.88.46c.18.39-.49.35-.28.68.27.43,1.41-.07,1.28.83-1.1-.52-.87.19-1.36.65-.23.21-.91.33-.95.6-.03.11.09.12.17.14.62.12,1.3-.17,1.72-.62.18-.2.29-.45.48-.64.22.51-.15.8-.12,1.37.02.44.04.89.07,1.33.03.61.4.73-.1,1.43-.58.82-1.23.89-2.17.71-.33-.06-1.03-.42-1.3-.23-.24.17-.12.74-.15,1.01-.19,1.71-2.44,4.04-3.49,5.44-.8,1.09-1.35,2.13-2.37,3.09-1.69,1.59-3.92,1.86-5.77.36-.48-.39-.43-.59-.71-.99-.44-.63-1.55-.19-2.15.02-.65.23-1.23.62-1.84.84-.34.12-.77.14-1.07.33-.39.24-.47.81-.7,1.19-.73,1.22-2.58,1.91-3.94,2.02-.23.02-.49,0-.66-.18-.03-.03-.42-.74-.43-.79-.07-.26.2-.35.15-.51-.18-.22-.65-.28-.66-.61,0-.12.19-.93.25-1.08.12-.33.43-.52.51-.83.06-.23.06-.55.1-.81s.42-.86-.16-.83c-.3.01-1.51.67-1.67.2s.85-.61,1.17-.76c.39-.19.75-.55,1.16-.66.33-.09.78,0,1-.09.37-.16-.05-.65.37-.91.54-.11,1.08-.26,1.62-.38.13-.03.28,0,.4-.03.08-.02.17-.15.28-.2.2-.09.55-.16.7-.27.29-.21.18-.63.65-.75.44-.12.49.03.81.08.34.05,2.39-.38,2.83-.51s.51-.7.74-1.09.72-1.22,1.03-1.52c.19-.19.59-.39.71-.62.18-.32.21-.86.43-1.27.25-.46.7-.89.99-1.32.74-1.11,1.14-2.14,2.17-3.05.68-.6,1.44-.7.98-1.77s-1.47-1.49-2.38-2.12c-.73-.52-1.58-1.26-2.32-1.69-.66-.38-1.28-.38-1.82-.98-.16-.18-.31-.48-.49-.67-.56-.57-1.57-1.16-2.24-1.65-.73-.53-1.52-1.45-2.47-1.42-1.77.06-3.57.2-5.34.31-.68.04-1.38-.08-2.04.21-.34.15-.7.57-1.07.58s-.94-.5-1.46-.55c-1.17-.12-2.61.08-3.83.06-.99-.01-2.01-.14-3.01-.1-1.5.81-3.1,1.85-4.45,2.9-.55.43-1.26,1.44-1.91,1.5-.14.01-.24-.05-.34-.04-.29.02-2.03.98-2.39,1.2-.63.39-.42.44-.61,1.03-.18.55-.77,1.03-1.1,1.57-.56.92-1.29,2.28-1.72,3.26-.12.27-.24.52-.14.84.02.05.55.8.61.85.34.3.58.34,1,.76.54.53,1.17,1.11,1.67,1.67.18.2.34.54.51.7.19.18.51.23.75.4.33.24.84.88,1,1.25.26.61-.02,1.37.96,1.36.13,0,.25-.06.37-.07.85-.01,1.65.17,2.49.24,1.43.12,2.65.07,4.1.39.29.06.69.27.94.28.34,0,.64-.31.94-.46,1.06-.53,2.5-1.24,3.73-.99.28.06.45.36.7.45.47.18,1.05-.07,1.36.46.43.73.7,2.19.78,3.04.02.25.28.74-.26.63-.46-.09-1.09-.5-1.62-.63-.34-.08-.62-.05-.93-.11-.33-.06-.74-.28-1.05-.29-.09,0-1.23.2-1.29.22-.46.19.29.64.41.78.24.27.34.61.3.97-.04.29-.28.55-.13.87.03.07.85.56.97.61.31.12,1.55.11,1.92.07.49-.06,1.31-.68,1.43.22.13.9-1.07.5-.97,1.09.13.28.47.23.7.46.13.13.62.69.69.83.15.32,0,.55-.34.61-1.21.23-3.19.28-4.4.06-1.86-.34-3.62-1.54-4.35-3.31-.14-.35-.13-.81-.48-1.04-1.14-.4-2.31-.7-3.45-1.1-.39-.13-1.37-.63-1.7-.61-.06,0-.29.09-.32.13ZM29.89,37.97c-.07.34.29.45.3.09l-.3-.09ZM26.13,36.34c-.2.19.08.55.27.64.31.15.7.01,1.02.14l.2-.1c.06-.19-.33-.7-.5-.77-.2-.08-.86-.05-1,.09ZM36.64,36.75c.1.07.43,0,.36-.21-.19-.28-.54.09-.36.21ZM24.19,36.25c.51-.01.21-.51-.2-.32-.17.12.02.32.2.32ZM13.81,34.13c.53-.17-.69-.68-.75-.39-.04.17.57.44.75.39ZM48.37,34.01c.09-.03.16-.11.17-.2,0-.35-.7-.2-.85,0,.17.16.45.27.68.2ZM53.44,23.89c-.46-.35-.61-.94-1.23-.33-.37.37-1.19,1.81-1.5,2.33-.22.37-.38.88-.61,1.22-.28.41-.84.81-1.11,1.2-.23.33-.36.82-.57,1.19-.16.28-.61.64-.45.98.06.12.47.4.61.6.16.23.47.87.5,1.14.04.37-.06.87,0,1.21.02.1.07.17.16.21.86-.02.91-1.07,1.33-1.5.16-.17.4-.22.57-.34.85-.64.48-1.24.88-2.03.55-1.1,2.29-2.71,2.21-3.97-.03-.5-.48-1.51-.81-1.9ZM30.21,32.79c.16.16.56.14.77.14.03-.41-.42-.62-.78-.54-.07.12-.09.29,0,.4ZM12,32.6c.43-.42.08-1.04.32-1.41.17-.26.67-.45.43-.85-.33-.56-1.33-.78-1.55-1.3-.07-.16-.07-.36-.14-.53-.22-.49-1.12-1.06-1.53-1.45-.53-.5-1.11-1.34-1.7-1.7-.4-.24-.91-.11-1.24.21-.26.25-.13,1.12-.06,1.46.23,1.12,1.38,2.06,2.1,2.88.2.24.36.57.58.82.35.42,1.48,1.59,1.88,1.88.3.22.63.26.92-.02ZM51.7,32.74c.2,0,.35.06.34-.18l-.24-.12-.09.3ZM23.22,32.19c.42-.08.38-.61-.28-.46-.52.12-.16.55.28.46ZM8.07,31.96l-.2-.07-.09.15c.14.15.38.16.3-.08ZM39.12,31.47c.02-.1-.02-.22-.12-.27-.33-.17-.38.52.12.27ZM13.92,30.17c.33-.03,1.36-.1,1.11-.59-.07-.14-.8-.32-.99-.26-.04.02-.71.44-.74.47-.49.45.34.4.62.37ZM47.18,29.48c-.56-.56-1.98.53-.37.59.4.02.68-.28.37-.59ZM13.12,28.36l.2.07c.28-.31-.37-.34-.2-.07ZM56.06,25.99c.07-.14.07-.27-.05-.39l-.34.03.06.31.33.05ZM57.49,24.72c.15-.05.1-.31.08-.44-.04-.34-.39-1.56-.51-1.92-.24-.68-.76-.65-1.42-.53-.51.09-.45.29-.7.45-.14.09-.35.04-.45.22.24.35.41.02.59-.02.24-.05.64.29.85.4.23.11.76.13.75.47,0,.19-.23.29-.1.58.02.04.62.71.66.73.08.05.14.09.24.05ZM53.42,23.32c.17-.05.14-.41-.11-.35s-.21.45.11.35ZM5.48,22.28c1.32.45.93-1.06-.05-.23l.05.23ZM57.5,21.81c.09-.06.09-.12.1-.21.02-.3-.45-1.31-.57-1.68-.08-.26-.08-1.01-.49-.89-.25.07-.13.78-.08.97.04.14.24.35.31.54.16.46.13,1.09.73,1.28ZM5.9,21.43c.15-.03.28-.2.41-.26.26-.11.55-.13.76-.34.25-.25.31-.64.46-.93.18-.34.49-.62.68-.96.13-.23.65-1.63.62-1.82-.04-.23-.86-.87-1.08-.93-.28-.08-.44.09-.58.31-.35.51-1.72,3.4-1.77,3.94-.04.4-.09,1.12.5.99ZM53.05,20.58c.28.28.84-.44,1.05-.65.12-.13.21-.33.34-.45.11-.1.4-.21.45-.34.09-.21-.39-.79-.64-.64-.19.24-.24.46-.49.67-.27.24-1,.45-.96.83,0,.07.2.53.25.58ZM53.22,13.12c-.05.13.16.39.27.36.25-.21-.05-.38-.27-.36ZM30.6,9.24c-.15-.15-.84-.05-.93.1-.37.61,1.36.31.93-.1ZM27.56,9.58c.27-.23-.23-.48-.32-.59-.26-.3-.16-.56-.72-.48-.1.01-.69.16-.7.21.05.49,1.47,1.09,1.75.86ZM30.81,8.27c-.18.19.01.32.06.48.06.19,0,.43.26.48.34.06.38-.21.61-.35.6-.39.75.06,1.33,0s.36-.5-.05-.68c-.53-.24-.48.05-.86.08-.35.02-1.04-.32-1.35.01ZM21.38,7.53c-.26.18.45,1.23.7,1.26.15.02.38-.16.54-.16.15,0,.34.07.54.06.36-.01,1.63-.26,1.38-.78-.3-.64-1.72.35-2.23.29-.42-.05-.66-.86-.94-.66ZM25.51,8.44c-.02.15.1.21.24.18l-.07-.17h-.17ZM37.19,8.09s.86-.23.9-.23c.24.03.48.41.73.48.21.06.4-.09.6-.06.22.04.41.29.69.27.15,0,.92-.33.88-.51-.06-.29-1.4-.31-1.65-.35-.2-.03-.47-.22-.63-.23-.22-.01-.47.21-.71.17-.32-.06-.54-.58-.8-.54l-.15.82c-.09.12-.59.05-.62.31-.02.26.26.31.46.27.22-.04.19-.31.29-.41Z"/>
      <path d="M33.67,4.47c-.06-.06-.12-.23-.14-.32-.08-.56.12-1,.71-1.1.15-.03.76-.09.88-.06.27.06.34.49.8.48.11,0,.45-.12.54-.18.17-.13.18-.51.53-.43-.08.29.27,1.01.61.76.15-.11-.06-1.05-.14-1.21-.16-.31-.62-.14-.72-.5l.03-.15s.73-.34.81-.35c.22-.02.97.24.93-.16-.01-.14-.24-.33-.24-.55,0-.31.59-.81.9-.67.17.08.85,1.18.84,1.34-.2.34-.48,0-.77.03-.12.12.39.8.45.98.21.72.12,1.32.1,2.03,0,.26.19.63-.1.88-.05.03-.1.05-.17.05-.11,0-1.01-.21-1.13-.26-.24-.09-.56-.49-.71-.5-.09,0-.35.15-.54.17-.63.07-2.34.08-2.95-.03-.15-.03-.43-.13-.52-.23Z"/>
      <path d="M48.49,12.01c.11.11.58.19.78.29.34.17.56.56,1.03.46l-.07.48c-.17.12-.85-.5-1.15-.36l.06.42c-.39.17-.93-.57-1.12-.58-.38-.02-.52.78-1.21.27-.15-.11-.29-.21-.2-.42.07-.1.56.02.82-.4.53-.89-.7-.57-.51-1.36.21-.86,1.06.24,1.24.53.1.16.25.58.33.67Z"/>
      <path d="M43.36,3.5c-.17.14-.78.11-.98,0-.56-.28-.58-.71-.89-1.05-.15-.16-1.19-.87-1.15-1.03.69-.4,1.38.28,1.92.63.22.14.53.24.75.41.27.21.72.74.35,1.04Z"/>
      <path d="M30.69,1.04c-.06.06-.07.2-.08.29-.4.06-1.47-.71-.73-.94.5-.16.76.23,1.19.33,1.05.26,2.48.15,3.58.25.08,0,.37.03.34.15-.91.72-1.74.39-2.77.27-.36-.04-.61.09-.96-.13-.16-.1-.35-.45-.57-.22Z"/>
      <path d="M4.85,13.66c-.01-.1.06-.2.12-.27.66-.74,2.44-2.06,3.4-2.25.2-.04.39,0,.57-.04.07-.02.54-.4.59-.14s-.5.19-.63.22c-.05.01-.79.38-.85.42-.22.13-.33.46-.56.59-.26.14-.65.19-.97.36-.23.12-.47.32-.68.47-.16.12-.81.79-.98.63Z"/>
      <path d="M25.27,1.63c.15-.49.81-.32,1.18-.36.25-.03.48-.18.76-.12.07.24-.2.44-.41.47-.18.03-.3-.05-.41-.04-.38.04-.74.2-1.12.05Z"/>
      <path d="M14.69,10.82c.16.25-.3.52-.41.7-.09.14-.16.67-.43.54-.25-.12-.1-.68.03-.88.11-.18.67-.58.81-.36Z"/>
      <path d="M3.52,15.79c-.16-.18.59-1.41.79-1.55.17-.13.33-.12.31.12-.01.15-.37.52-.48.68-.17.26-.25.71-.62.75Z"/>
      <path d="M18.58,3.03s-.06.56-.12.64c-.09.12-.53.34-.54.07,0-.29.33-.74.66-.71Z"/>
      <path d="M59.31,16.56c-.17-.17-.27-.88-.26-1.14.24.07.74,1.14.45,1.21-.04,0-.16-.04-.19-.08Z"/>
      <path d="M16.84,10.46c.07-.07.54-.18.59-.14.07.47-1,.53-.59.14Z"/>
      <path d="M17.98,9.17c-.12-.24-.01-.46.27-.49.25.14-.11.6-.27.49Z"/>
      <path d="M36.1,2.84c-.31.06-.36-.24-.08-.33.38-.12.42.26.08.33Z"/>
      <path d="M32.55,3.1c.18.26-.35.43-.42.21s.34-.32.42-.21Z"/>
      <path d="M51.09,14.7l.03-.42c.18.09.21.44-.03.42Z"/>
      <path d="M32.98,4.25s-.27-.02-.24-.15c.05-.22.36.03.24.15Z"/>
      <path d="M49.52,13.9l-.07-.17c.15-.02.26.03.24.18h-.17Z"/>
      <path d="M17.86,10.02v-.18s.18,0,.18,0c.02.11-.07.2-.18.18Z"/>
    </g>
  </g>
</svg>