<?xml version="1.0" encoding="UTF-8"?>
<svg id="Layer_2" data-name="Layer 2" xmlns="http://www.w3.org/2000/svg" viewBox="0 0 40.75 40.51">
  <g id="Layer_1-2" data-name="Layer 1">
    <path d="M40.75,20.39c0-2.44-.99-4.66-2.59-6.26,1.88-3.37,1.38-7.7-1.48-10.55-2.89-2.89-7.28-3.37-10.67-1.42-1.62-1.35-3.7-2.16-5.97-2.16-2.67,0-5.08,1.12-6.78,2.92-3.34-1.77-7.58-1.25-10.39,1.57C-.08,7.44-.52,11.95,1.57,15.36c-.99,1.43-1.57,3.17-1.57,5.03,0,1.96.64,3.77,1.72,5.24-.03.05-.05.12-.07.17t-.01.02s-.02.03-.02.04c-2.14,3.42-1.72,7.97,1.25,10.94,2.97,2.98,7.55,3.39,10.97,1.23h.01s0-.01.02-.01h.01c1.59,1.54,3.76,2.49,6.16,2.49,2.2,0,4.21-.8,5.75-2.13,3.41,2.1,7.93,1.67,10.89-1.29,2.84-2.83,3.35-7.12,1.52-10.48,1.58-1.6,2.55-3.8,2.55-6.22ZM34.74,35.15c-1.63,1.63-3.77,2.44-5.91,2.44-.67,0-1.34-.08-2-.25,1.19-1.41,1.94-3.2,2.05-5.16h.01v-.04s.01-.01,0-.02c.27-.75.43-1.55.49-2.38,1.01-.02,1.98-.19,2.88-.51,1.77-.07,3.41-.66,4.76-1.62.52,2.65-.24,5.49-2.28,7.54ZM23.3,36.79c-1,.43-2.1.67-3.26.67-1.35,0-2.63-.33-3.77-.9-.15-.08-.29-.16-.44-.24,0,0-.01,0-.02,0h-.01c-.15-.1-.3-.19-.44-.3-2.05-1.39-3.45-3.67-3.65-6.28-.01-.16-.02-.33-.02-.5v-.13c0-.11,0-.22.01-.33h0s.07-.02.1-.04h-.1v-.03c.05-1.01.28-1.98.66-2.87.15.23.32.45.5.66.33.4.71.78,1.11,1.12.2.18.41.34.63.5.16.12.33.23.51.33.17.11.34.21.51.3.72.39,1.5.69,2.32.88.23.05.46.1.69.13.17.03.33.05.5.06.12.02.24.03.36.03.05.01.09.01.14.01.12.01.24.01.36.01h.05c.15,0,.3,0,.45-.01.39-.02.78-.06,1.15-.13,1.11-.19,2.16-.58,3.1-1.13.16-.09.33-.2.49-.3.16-.11.32-.22.47-.34.25-.19.49-.39.72-.61.29-.26.56-.55.81-.85.18-.21.35-.43.5-.66.36.84.58,1.74.65,2.69-.02-.02-.05-.03-.07-.03.03.07.06.14.08.21.01.13.01.27.01.4v.1c0,.17-.01.34-.02.5-.2,2.8-1.78,5.21-4.06,6.58-.16.09-.32.18-.49.27-.04.02-.08.04-.12.05-.13.08-.27.14-.41.19ZM4.57,6.2c1.58-1.58,3.68-2.45,5.91-2.45.65,0,1.3.08,1.92.22-1.08,1.52-1.71,3.38-1.71,5.38,0,.37.02.74.07,1.1-.03.2-.05.4-.06.61-.8.06-1.57.22-2.3.48-.01-.01-.01,0-.02,0h-.04c-2.32.14-4.41,1.17-5.91,2.76-.76-2.8-.05-5.91,2.14-8.1ZM37.09,13.21c-1.37-.99-3.03-1.6-4.83-1.67-.9-.32-1.87-.49-2.87-.51-.01-.19-.03-.39-.06-.58.05-.36.07-.73.07-1.1,0-2.23-.78-4.28-2.1-5.89.52-.1,1.04-.15,1.58-.15,2.23,0,4.33.87,5.9,2.45,1.58,1.58,2.45,3.68,2.45,5.91,0,.52-.05,1.04-.14,1.54ZM36.54,24.44c-.04.07-.08.14-.13.22-.09.16-.2.32-.31.47-1.48,2.14-3.93,3.56-6.71,3.61-.05-1.41-.42-2.74-1.04-3.93.44-.85.76-1.77.92-2.75.06-.34.1-.69.12-1.05v-.09c.01-.14.01-.27.01-.41v-.1c0-.14-.01-.29-.01-.43-.01-.02-.01-.05-.01-.07-.01-.13-.04-.26-.05-.39-.01-.09-.02-.18-.03-.27-.03-.22-.06-.43-.1-.64-.06-.3-.13-.59-.22-.88-.05-.15-.1-.3-.15-.45-.17-.44-.36-.86-.58-1.26.01-.01.01-.02.02-.03.65-1.19,1.04-2.54,1.12-3.96,2.82.05,5.3,1.51,6.78,3.7.11.16.21.33.3.5.01.01.02.02.03.04.09.15.17.3.24.46.55,1.11.85,2.35.85,3.66s-.33,2.63-.91,3.77c-.04.09-.09.18-.14.28ZM12.23,14.48c-.25-.66-.42-1.36-.5-2.09,0,0,0,0,0-.01,0,0,0,0,0,0-.01-.11-.02-.23-.03-.35v-.03c-.01-.16-.01-.31-.01-.47,0-.17,0-.34.02-.5.01-.2.03-.4.06-.59.21-1.65.91-3.15,1.94-4.36.34-.4.73-.77,1.14-1.1.14-.11.29-.21.44-.32.05-.04.11-.08.17-.11.09-.07.19-.13.28-.19,1.26-.75,2.73-1.19,4.3-1.19,1.26,0,2.46.28,3.53.79.06.02.11.04.16.08.12.05.24.11.35.18.17.09.33.19.49.29,2.01,1.3,3.43,3.44,3.76,5.93.03.2.05.41.06.62.01.15.01.31.01.47v.03c0,.17-.01.33-.02.5,0,.07-.01.13-.01.2-.01.04-.01.08-.01.12-.08.73-.25,1.43-.5,2.09-.06.17-.13.34-.21.51,0,0-.01.03-.02.05-.03-.04-.06-.08-.08-.11-.11-.14-.21-.27-.32-.4-.11-.13-.23-.26-.35-.39-.18-.21-.39-.4-.6-.59-.25-.23-.51-.44-.79-.63-.16-.12-.32-.23-.48-.32-.16-.11-.32-.2-.48-.29-.87-.48-1.83-.82-2.84-1-.37-.07-.75-.12-1.14-.14-.17-.01-.33-.01-.5-.01h0c-.08,0-.17,0-.25.01h-.25c-.09.01-.17.01-.26.02-.17.01-.33.03-.49.06-.28.03-.56.08-.83.15-.73.16-1.44.42-2.1.75-.18.09-.35.18-.52.29-.18.1-.35.2-.52.32-.24.16-.47.33-.69.52-.33.26-.64.55-.93.86-.12.13-.23.25-.34.38-.11.13-.22.27-.32.41-.03.03-.05.07-.08.11-.02-.04-.03-.07-.04-.1-.07-.15-.14-.31-.19-.46ZM28.2,18.71c.09.39.15.78.18,1.19v.09c.01.14.02.27.02.41v.12c0,.13,0,.26-.01.39v.1c-.03.43-.09.84-.18,1.25-.11.53-.27,1.03-.48,1.52-.02-.03-.03-.05-.05-.07-.07.17-.16.34-.25.51-.08.17-.17.33-.27.5.01.03.03.06.05.09-.19.31-.4.61-.63.89-.28.35-.58.68-.91.98-.3.27-.61.52-.94.74-.15.1-.31.2-.47.29-.15.1-.31.19-.48.27-.61.3-1.26.54-1.94.68-.44.1-.89.16-1.36.19-.15.01-.29.01-.44.01h-.06c-.12,0-.23,0-.35-.01-.05,0-.1-.01-.15-.01-.12-.01-.24-.02-.36-.03-.17-.02-.34-.04-.51-.08-.29-.04-.56-.11-.84-.18h-.01c-.38-.11-.75-.25-1.11-.41h-.01c-.17-.08-.34-.16-.51-.25h-.01c-.17-.09-.33-.19-.49-.29-.3-.19-.59-.4-.87-.63-.46-.37-.88-.8-1.26-1.27-.22-.28-.43-.58-.62-.89l-.51-1.04s-.01,0-.01.01c-.11-.26-.21-.52-.29-.79-.09-.26-.15-.53-.21-.8,0-.03,0-.05,0-.08-.05-.25-.09-.5-.12-.75,0-.06-.01-.13-.01-.2-.01-.1-.02-.19-.02-.29-.01-.08-.01-.15-.01-.23v-.29c0-.07.01-.14.01-.21.01-.32.04-.64.1-.95.12-.76.34-1.5.67-2.18.07-.17.15-.33.24-.5.09-.16.19-.32.29-.48.07-.1.13-.21.2-.3.1-.14.2-.28.31-.41.1-.13.21-.26.32-.38.32-.37.68-.7,1.07-1,.3-.24.61-.46.94-.64.17-.1.33-.19.5-.28.17-.08.35-.16.52-.24.32-.12.64-.23.97-.32.32-.09.66-.16,1-.21.16-.03.33-.05.5-.06.07,0,.14,0,.21-.02.1,0,.19-.01.29-.01h.21c.18,0,.35.01.52.02.47.02.93.09,1.38.2.57.13,1.12.32,1.64.56.16.08.32.16.48.25.17.09.33.18.48.29.35.22.69.47,1,.75.26.22.5.46.72.71.11.12.21.24.32.37.1.13.2.27.3.41.07.1.14.2.21.31.1.16.2.32.29.48.09.17.17.33.24.5.21.44.38.9.51,1.38.02.1.05.21.07.32ZM3.37,18.17c.05-.19.11-.36.18-.54.01,0,.02.01.03.02-.01-.01-.02-.03-.03-.04.06-.19.14-.37.22-.55,1.19-2.75,3.82-4.73,6.93-5,.08,1.39.47,2.7,1.09,3.87,0,.03.03.06.05.09-.57,1.05-.95,2.21-1.09,3.44-.02.19-.04.39-.05.58,0,.13-.01.27-.01.4v.1c0,.13,0,.27.01.4,0,.04,0,.07.01.11,0,.13.01.26.03.39.01.13.03.27.05.4h0c.02.2.05.37.09.55.05.27.12.52.2.78.16.57.39,1.12.66,1.64-.62,1.18-.98,2.5-1.04,3.9-3-.26-5.55-2.11-6.8-4.7h0c-.08-.16-.15-.31-.21-.46-.01-.02-.01-.04-.01-.05-.08-.18-.14-.35-.2-.53-.27-.81-.41-1.68-.41-2.58,0-.77.1-1.51.3-2.22ZM8.34,29.22h.01s.03.01.03.01c.01,0,.01.01.02,0,.73.26,1.51.42,2.31.48.05.84.22,1.65.49,2.41-.01,0,0,.02,0,.02v.03h.01c.1,1.92.82,3.66,1.95,5.05-.9.34-1.87.51-2.87.51-2.24,0-4.33-.86-5.91-2.44-2.37-2.37-3.02-5.83-1.93-8.79,1.5,1.57,3.57,2.59,5.89,2.72Z"/>
  </g>
</svg>