<?xml version="1.0" encoding="UTF-8"?>
<svg id="Layer_2" data-name="Layer 2" xmlns="http://www.w3.org/2000/svg" viewBox="0 0 38.56 38.56">
  <g id="Layer_1-2" data-name="Layer 1">
    <g>
      <polygon points="21.6 14.19 21.6 5.79 16.96 5.79 16.96 14.19 16.96 18.83 16.96 19.71 6.43 19.71 6.43 24.35 16.96 24.35 16.96 32.76 21.6 32.76 21.6 24.35 21.6 19.71 21.6 18.83 32.22 18.83 32.22 14.19 21.6 14.19"/>
      <path d="M19.28,0C8.65,0,0,8.65,0,19.28s8.65,19.28,19.28,19.28,19.28-8.65,19.28-19.28S29.91,0,19.28,0ZM19.28,36.56c-9.53,0-17.28-7.75-17.28-17.28S9.75,2,19.28,2s17.28,7.75,17.28,17.28-7.75,17.28-17.28,17.28Z"/>
    </g>
  </g>
</svg>