<?xml version="1.0" encoding="UTF-8"?>
<svg id="Layer_2" data-name="Layer 2" xmlns="http://www.w3.org/2000/svg" viewBox="0 0 39.3 37.44">
  <g id="Layer_1-2" data-name="Layer 1">
    <g>
      <g id="_Radial_Repeat_" data-name="&amp;lt;Radial Repeat&amp;gt;">
        <path d="M21.8,34.86c0-.14,0-.28.02-.42.11-.66.56-1.62.75-2.33.23-.85.75-2.37-.28-2.87-.86-.42-2.02-.13-2.3.85-.17.61-.08,1.57-.08,2.22,0,1.71.04,3.43-.19,5.13-.11-.06-.11-.31-.13-.44-.2-1.46-.16-3.03-.15-4.5.01-1.31.43-3.26-1.45-3.42-3.22-.28-.81,4.01-.6,5.43.02.12.07.28-.05.37-.22.04-.8-.75-.96-.92-.59-.63-1.25-1.37-1.87-1.95-.54-.5-1.19-.86-1.7-1.39.23-.05.49.13.69.23.38.19,1.05.76,1.38.83.88.18.96-.46.92-1.15-.04-.73-.18-1.41-.14-2.16.03-.61.54-2.29-.41-2.39-.64-.07-1.72,1-2.47,1.17-.07.02-.12.04-.11-.06.6-.52,1.29-.94,1.89-1.47.81-.72,1.43-1.58,2.16-2.35.37-.39.84-.81.61.11-.28,1.11-1.32,3.35-.95,4.43.28.82,1.42.98,2.14.71s.92-.87.97-1.56c.11-1.58-.12-3.31-.05-4.92.02-.46.08-1.05.15-1.51.02-.14.02-.33.11-.44.04.06.06.18.07.25.18,1.88.12,3.78.14,5.66,0,.78-.16,1.86.58,2.36s2.2.36,2.39-.68c.12-.66-.27-1.95-.46-2.62-.08-.29-.73-2.1-.62-2.21.07,0,.13,0,.2.01.31.09,1.12,1.21,1.39,1.51.92,1.01,2,1.84,3.06,2.69.06.16-.4-.04-.44-.06-.62-.26-1.53-1.13-2.18-.95-.74.2-.31,1.85-.27,2.39.05.84-.19,1.57-.19,2.35,0,.94.59,1.14,1.35.71.55-.31,1.07-.8,1.72-.95.07-.02.12-.04.11.06-.57.53-1.32.95-1.89,1.47-.48.44-1.04,1.06-1.5,1.54-.23.25-.93,1.18-1.17,1.27-.06.02-.12.03-.19.02Z"/>
      </g>
      <g id="_Radial_Repeat_-2" data-name="&amp;lt;Radial Repeat&amp;gt;">
        <path d="M3.09,24.45c.13-.05.26-.09.4-.11.66-.1,1.71.03,2.45,0,.88-.05,2.48-.02,2.64-1.15.13-.94-.5-1.96-1.52-1.92-.64.02-1.51.41-2.13.61-1.63.53-3.25,1.1-4.94,1.41.03-.13.26-.2.38-.26,1.32-.64,2.83-1.09,4.24-1.53,1.25-.4,3.23-.6,2.81-2.44-.73-3.15-4.06.47-5.34,1.11-.11.06-.25.15-.37.07-.11-.2.46-.99.58-1.2.41-.76.92-1.61,1.28-2.38.31-.66.45-1.4.79-2.04.12.2.03.51,0,.73-.07.42-.4,1.23-.37,1.57.1.89.74.77,1.38.52.68-.26,1.29-.61,2.01-.8.59-.16,2.34-.19,2.15-1.13-.13-.63-1.48-1.32-1.88-1.99-.04-.06-.07-.11.02-.12.68.41,1.3.94,1.98,1.34.93.55,1.94.87,2.9,1.33.48.23,1.03.55.09.62-1.14.08-3.6-.22-4.5.46-.7.52-.49,1.65-.02,2.25s1.11.6,1.79.44c1.54-.38,3.11-1.14,4.67-1.57.45-.12,1.02-.25,1.48-.33.14-.02.33-.08.45-.03-.05.06-.15.11-.22.14-1.73.75-3.56,1.28-5.34,1.88-.73.25-1.82.42-2.07,1.28s.34,2.2,1.38,2.06c.66-.09,1.77-.86,2.35-1.25.25-.17,1.77-1.35,1.91-1.27.02.06.05.12.05.19,0,.33-.8,1.44-1,1.79-.67,1.19-1.13,2.47-1.61,3.74-.13.11-.08-.4-.08-.44.05-.67.6-1.8.23-2.37-.42-.65-1.85.28-2.36.48-.79.31-1.56.31-2.29.55-.89.29-.9.92-.25,1.5.47.42,1.09.77,1.43,1.34.04.06.07.11-.02.12-.68-.38-1.31-.96-1.98-1.34-.57-.32-1.33-.66-1.93-.95-.31-.15-1.41-.52-1.57-.72-.04-.05-.06-.11-.08-.17Z"/>
      </g>
      <g id="_Radial_Repeat_-3" data-name="&amp;lt;Radial Repeat&amp;gt;">
        <path d="M7.22,3.44c.09.11.16.22.23.35.3.6.5,1.63.77,2.33.32.82.79,2.36,1.91,2.16.94-.16,1.71-1.08,1.36-2.04-.22-.6-.86-1.31-1.24-1.84-1-1.39-2.05-2.75-2.87-4.26.13-.02.27.18.37.28,1.02,1.06,1.91,2.36,2.77,3.56.76,1.07,1.57,2.89,3.18,1.92,2.77-1.67-1.7-3.72-2.71-4.74-.09-.09-.22-.19-.18-.33.15-.17,1.09.13,1.32.18.85.16,1.82.38,2.66.48.73.09,1.47,0,2.19.12-.15.17-.47.19-.69.22-.42.07-1.29,0-1.6.14-.81.37-.5.94-.07,1.48.46.57.98,1.03,1.39,1.67.33.52.91,2.17,1.74,1.7.56-.32.8-1.82,1.31-2.4.05-.05.08-.1.12-.01-.18.78-.49,1.52-.66,2.3-.23,1.06-.23,2.12-.37,3.17-.07.53-.2,1.15-.56.27-.43-1.06-.91-3.49-1.83-4.14-.71-.5-1.72.04-2.15.68s-.23,1.24.14,1.83c.84,1.34,2.04,2.61,2.93,3.96.26.39.55.9.77,1.31.07.12.18.28.17.42-.07-.03-.15-.11-.2-.16-1.25-1.42-2.32-2.99-3.44-4.49-.46-.62-.96-1.6-1.86-1.57s-1.99,1-1.53,1.95c.29.6,1.37,1.42,1.92,1.85.23.18,1.83,1.27,1.8,1.42-.05.04-.1.08-.16.11-.31.11-1.61-.32-2.01-.4-1.34-.27-2.7-.32-4.06-.38-.15-.09.35-.2.4-.21.65-.15,1.9.02,2.32-.51.48-.6-.84-1.67-1.19-2.1-.53-.65-.77-1.38-1.23-2.01-.55-.76-1.15-.57-1.51.22-.26.57-.39,1.28-.83,1.78-.05.05-.08.1-.12.01.15-.77.51-1.54.66-2.3.13-.64.22-1.47.3-2.13.04-.34.05-1.5.2-1.71.04-.05.08-.09.14-.13Z"/>
      </g>
      <g id="_Radial_Repeat_-4" data-name="&amp;lt;Radial Repeat&amp;gt;">
        <path d="M28.47.87c-.08.12-.16.23-.26.33-.48.47-1.4.98-1.98,1.45-.68.55-2,1.48-1.46,2.49.45.84,1.56,1.29,2.36.66.5-.39.98-1.22,1.37-1.75,1.01-1.38,1.98-2.8,3.17-4.04.06.12-.09.32-.15.44-.69,1.3-1.65,2.54-2.53,3.73-.78,1.05-2.26,2.39-.84,3.62,2.44,2.12,3.01-2.77,3.67-4.04.06-.11.11-.27.26-.27.21.1.21,1.07.24,1.31.11.86.2,1.84.37,2.68.14.72.46,1.39.56,2.12-.21-.09-.32-.39-.42-.59-.19-.38-.4-1.23-.62-1.48-.6-.66-1.05-.19-1.43.39-.4.61-.68,1.25-1.16,1.83-.39.48-1.78,1.53-1.07,2.18.48.44,1.98.2,2.69.51.06.03.12.04.05.11-.79.07-1.6,0-2.39.08-1.08.11-2.09.44-3.13.63-.53.1-1.16.16-.43-.45.88-.74,3.04-1.94,3.37-3.02.26-.83-.57-1.62-1.31-1.83s-1.25.16-1.7.7c-1.02,1.21-1.85,2.75-2.86,4.01-.29.36-.68.8-1.01,1.14-.1.1-.22.26-.35.29,0-.08.05-.18.09-.25.96-1.63,2.13-3.13,3.21-4.66.45-.63,1.22-1.41.92-2.25s-1.57-1.58-2.33-.85c-.49.46-.93,1.74-1.17,2.4-.1.28-.64,2.13-.8,2.15-.05-.04-.11-.07-.15-.12-.2-.26-.19-1.63-.24-2.04-.15-1.36-.53-2.66-.89-3.98.04-.17.3.27.32.31.35.57.57,1.81,1.2,2.05.72.27,1.33-1.32,1.63-1.78.46-.71,1.08-1.16,1.53-1.79.55-.76.19-1.27-.68-1.37-.63-.07-1.34.02-1.95-.24-.06-.03-.12-.04-.05-.11.78-.1,1.62,0,2.39-.08.64-.08,1.47-.24,2.12-.37.34-.06,1.44-.41,1.69-.34.06.02.11.05.16.09Z"/>
      </g>
      <g id="_Radial_Repeat_-5" data-name="&amp;lt;Radial Repeat&amp;gt;">
        <path d="M37.49,20.29c-.14-.04-.26-.08-.39-.15-.6-.31-1.36-1.03-1.99-1.43-.74-.48-2.02-1.44-2.82-.62-.66.68-.75,1.88.1,2.45.53.36,1.47.56,2.09.76,1.63.53,3.27,1.02,4.82,1.76-.1.09-.33.01-.46-.01-1.45-.26-2.93-.79-4.33-1.25-1.24-.41-2.97-1.42-3.7.32-1.26,2.98,3.56,2.01,4.98,2.24.12.02.29.02.34.16-.03.23-.96.53-1.17.63-.78.37-1.69.76-2.43,1.17-.64.35-1.18.87-1.84,1.19.02-.23.27-.43.43-.59.3-.3,1.05-.76,1.22-1.05.44-.78-.14-1.05-.81-1.24-.7-.19-1.4-.26-2.1-.53-.57-.22-2.01-1.22-2.4-.35-.27.59.42,1.94.35,2.71,0,.07,0,.13-.09.08-.31-.73-.5-1.52-.82-2.25-.43-.99-1.06-1.85-1.57-2.78-.26-.47-.51-1.05.29-.55.97.61,2.78,2.29,3.91,2.28.87-.01,1.37-1.05,1.34-1.81s-.54-1.14-1.19-1.4c-1.47-.59-3.19-.91-4.7-1.48-.43-.16-.97-.4-1.39-.61-.13-.06-.31-.13-.39-.24.07-.02.19,0,.26.01,1.85.41,3.63,1.05,5.42,1.61.74.23,1.72.73,2.43.18s1.02-1.98.09-2.48c-.59-.32-1.94-.35-2.64-.37-.3-.01-2.22.05-2.29-.09.02-.06.03-.13.07-.18.18-.27,1.5-.69,1.86-.86,1.24-.57,2.37-1.33,3.51-2.08.17-.01-.17.37-.2.4-.44.51-1.55,1.1-1.58,1.78-.04.77,1.66.86,2.19,1,.82.22,1.44.66,2.17.9.89.29,1.27-.21,1.09-1.07-.13-.62-.43-1.26-.37-1.93,0-.07,0-.13.09-.08.33.71.49,1.55.82,2.25.27.59.69,1.32,1,1.9.16.3.84,1.25.84,1.5,0,.06-.01.12-.04.18Z"/>
      </g>
    </g>
  </g>
</svg>