<?xml version="1.0" encoding="UTF-8"?>
<svg id="Layer_2" data-name="Layer 2" xmlns="http://www.w3.org/2000/svg" viewBox="0 0 42.68 41.28">
  <g id="Layer_1-2" data-name="Layer 1">
    <g>
      <path d="M42.58,40.55c-.21.04-.31-.12-.43-.25-.95-.99-1.87-2.5-2.75-3.61-2.62-3.28-5.37-5.63-8.35-8.5-.15-.15-.73-.68-.76-.83-.04-.25.45-.02.56.02,1.03.4,2.58,1.47,3.49,2.15.61.46,1.87,1.75,2.42,1.99,1.61.73.6-2.4.49-3.1-.12-.83-.23-1.69-.3-2.52-.1-1.2,0-2.59-.16-3.74-.03-.25-.17-.64-.34-.81-.16-.16-.8-.39-.8-.58.54-.23,1.04-.54,1.14-1.17.14-.89.03-1.84.09-2.73.08-1.22.2-2.47.38-3.67.1-.68.56-2.31.39-2.87-.36-1.16-1.99.7-2.39,1.01-.94.75-3.09,2.33-4.17,2.69-.11.04-.45.16-.41-.05.03-.15.67-.75.83-.9,2.59-2.52,5.11-4.72,7.41-7.55,1.07-1.32,2.07-2.96,3.18-4.19.73-.81.7-.44.43.36-.8,2.43-2.05,4.76-2.84,7.28-2.56,8.14-2.66,14.47-.31,22.68.82,2.85,2.18,5.37,3.05,8.08.09.27.21.51.16.81Z"/>
      <path d="M12.43,14.31c-.29.04-.55-.12-.81-.24-1.2-.54-2.74-1.62-3.78-2.44-.52-.41-1.36-1.33-1.88-1.59-.64-.33-1.01.11-.98.76.04.72.38,1.76.5,2.54.19,1.27.3,2.6.37,3.89.06.96-.28,2.52.62,3.14.13.09.56.19.53.34-.08.25-.44.29-.65.44-.74.54-.46,2-.51,2.82-.09,1.57-.22,3.19-.46,4.75-.09.61-.52,1.92-.38,2.44.19.73.88.39,1.3.07,1.24-.94,4.03-3.49,5.5-3.75.54-.1-.06.48-.22.65-2.44,2.48-5.09,4.65-7.34,7.34-1.24,1.48-2.35,3.31-3.62,4.7-.09.1-.52.6-.65.47.58-2.05,1.58-3.96,2.31-5.96,1.01-2.74,1.8-5.75,2.29-8.63,1.27-7.45-.36-14.23-3.05-21.12C1.36,4.42-.11,1.15.07.94c.24.06.49.36.65.54,1.88,2.16,3.37,4.55,5.39,6.69,1.87,1.97,4.02,3.65,5.93,5.56.07.07.48.51.4.58Z"/>
      <path d="M41.28,0c.13.13-.38.56-.47.65-1.25,1.14-2.92,2.16-4.26,3.26-2.95,2.4-5.15,5.08-7.77,7.77-.12.12-.73.76-.83.76-.24-.01.15-.77.2-.88.54-1.16,1.5-2.54,2.3-3.56.38-.49,1.52-1.61,1.71-2.04.17-.38.14-.76-.29-.9-.53-.18-1.87.26-2.5.36-1.46.22-2.98.38-4.46.46-.79.04-2.12-.17-2.78.25-.3.19-.38.53-.63.75-.35-.14-.36-.53-.68-.75-.59-.41-1.65-.22-2.35-.26-1.63-.09-3.29-.2-4.9-.45-.63-.1-2.11-.55-2.62-.35-.37.14-.4.53-.28.87.1.3,1.25,1.47,1.55,1.85.78.99,1.8,2.46,2.33,3.6.05.1.33.69.1.7-.11,0-.84-.76-.98-.9-2.53-2.59-4.71-5.1-7.55-7.41C4.86,2.75,2.71,1.46,1.69.36c-.51-.55.31-.26.6-.17,1.86.6,3.74,1.59,5.62,2.26,3.31,1.18,7.42,2.21,10.92,2.53,5.05.45,10.91-.72,15.69-2.38,2.28-.8,4.44-1.92,6.76-2.6Z"/>
      <path d="M15.04,28.92c-.64,1.78-1.85,3.48-3.04,4.95-.34.43-2.09,1.93-1.06,2.37.54.23,2.13-.26,2.79-.36.87-.13,1.78-.24,2.65-.31,1.25-.09,2.62.02,3.82-.15.81-.11.71-.58,1.09-.87.32-.25.42.37.65.58.57.51,2.47.31,3.26.36,1.28.08,2.62.19,3.89.38.7.1,2.29.58,2.87.39.34-.11.34-.6.23-.89-.13-.35-1.09-1.27-1.39-1.65-.67-.85-2.45-3.32-2.66-4.28-.02-.11-.06-.19.1-.17.2.07.36.22.51.36,2.52,2.46,4.72,5.17,7.45,7.45,1.47,1.23,3.33,2.36,4.7,3.62.09.08.52.45.4.58-.39-.01-.75-.18-1.1-.31-1.85-.68-3.64-1.57-5.51-2.22-3.09-1.08-6.87-2.03-10.13-2.38-5.43-.58-11.58.68-16.69,2.52-2.08.75-4.05,1.78-6.18,2.39-.12-.13.4-.6.5-.69,2.13-1.92,4.64-3.44,6.8-5.49,1.94-1.85,3.61-4.02,5.49-5.86.08-.08.48-.42.58-.32Z"/>
    </g>
  </g>
</svg>