<?xml version="1.0" encoding="UTF-8"?>
<svg id="Layer_2" data-name="Layer 2" xmlns="http://www.w3.org/2000/svg" viewBox="0 0 47.27 51.39">
  <g id="Layer_1-2" data-name="Layer 1">
    <path d="M47.03,11.43c.25-.21.31-.54.15-.82-.16-.29-.48-.4-.79-.29l-15.17,5.79c-.6.23-1.2.43-1.82.6-2.24-4.56-3.83-9.45-4.69-14.55l-.24-1.45c-.16-.95-1.53-.95-1.69,0l-.24,1.45c-.85,5.09-2.44,9.98-4.69,14.55-.61-.17-1.22-.37-1.82-.6L.88,10.32c-.31-.11-.63,0-.79.29-.16.28-.1.62.15.82l12.59,10.24c.5.4.98.84,1.44,1.28-2.84,4.22-6.29,8.05-10.26,11.33l-1.13.93c-.75.62-.06,1.8.84,1.46l1.38-.52c4.84-1.8,9.87-2.87,14.93-3.21.16.62.29,1.25.4,1.89l2.57,16.02c.05.32.31.55.64.55s.58-.22.64-.55l2.57-16.02c.11-.64.23-1.27.4-1.89,5.07.34,10.1,1.41,14.94,3.21l1.38.52c.9.33,1.58-.84.84-1.46l-1.14-.93c-3.98-3.29-7.43-7.11-10.26-11.33.46-.44.93-.87,1.44-1.28l12.6-10.24ZM32.62,22.37c-2.97,2.87-5.07,6.51-6.07,10.52-.15.59-.28,1.2-.38,1.82l-2.51,16.02h0s-.33.05-.33.05l.33-.05-2.57-16.02c-.1-.62-.22-1.23-.38-1.82-1-4.01-3.1-7.65-6.07-10.52-.44-.42-.91-.84-1.39-1.23L.64,10.95l15.17,5.79c.57.22,1.16.41,1.75.58,3.97,1.14,8.18,1.14,12.16,0,.59-.17,1.18-.36,1.76-.58l15.13-5.84-12.59,10.24c-.48.4-.95.81-1.39,1.23Z"/>
  </g>
</svg>