<?xml version="1.0" encoding="UTF-8"?>
<svg id="Layer_2" data-name="Layer 2" xmlns="http://www.w3.org/2000/svg" viewBox="0 0 35.3 36.71">
  <g id="Layer_1-2" data-name="Layer 1">
    <g>
      <path d="M6.07,18.78c.02-.18.04-.31.03-.4,0-.06-.32-.99-.35-1.05-.17-.3-.42-.27-.56-.26-.13.02-.14.01-.15-.06-.08-.33-.01-.61.06-.91.1-.41.2-.84-.1-1.37l-.02-.03c-.09-.17-.18-.34-.51-.28-.12.02-.2.07-.26.13.01-.11.02-.23.02-.34,0-.17,0-.34.05-.52.03-.11.1-.21.16-.32.07-.12.15-.25.2-.39.05-.17.07-.34.08-.48.01-.13.02-.25.05-.35.01-.04.06-.1.1-.15.05-.07.11-.14.12-.22.03-.18-.1-.38-.23-.5-.14-.12-.29-.17-.42-.13-.15.04-.2.22-.26.4-.02.07-.05.15-.07.19-.06.1-.13.22-.21.34-.31.49-.7,1.11-.81,1.6-.04.2-.04.39-.03.58,0,.14,0,.27,0,.4,0,.06-.04.16-.07.27-.1.33-.22.74-.08,1.01.06.11.15.18.27.21.07.02.13.03.19.03.09,0,.18-.02.26-.07.31-.18.42-.67.5-1.02.01-.06.03-.11.04-.16,0-.01.02-.03.02-.04,0,.12,0,.24,0,.34.01.11.02.21.01.28-.02.13-.08.27-.15.41-.08.15-.15.31-.18.5-.03.25.02.47.06.66.03.14.06.26.06.4,0,.07-.02.18-.04.3-.06.36-.14.8.08,1.06.1.12.24.17.44.17.4,0,.47-.33.51-.52.01-.05.03-.14.05-.16,0,0,0,0,.03,0,.02,0,.04.01.05.03.03.06-.07.25-.11.33-.03.06-.06.11-.07.14-.13.45.02.77.16,1.08.09.19.17.37.19.57,0,.08,0,.18-.02.29-.02.16-.05.31,0,.42.05.1.12.17.21.19.17.04.33-.09.47-.2.05-.04.13-.11.16-.11.04,0,.06,0,.07.01.09.06.13.29.16.46.02.11.04.21.07.28.04.1.11.19.17.27.06.08.12.15.15.23.03.09.05.2.06.31.03.21.06.46.23.62.1.1.21.15.29.14.14,0,.23-.11.31-.2.05-.05.09-.11.14-.12.06-.02.11-.02.14,0,.1.07.1.35.1.54,0,.15,0,.26.04.34.06.12.18.15.31.18.18.04.3.08.36.23.02.04.02.1.03.15.02.13.04.3.22.39.15.07.27,0,.37-.07.14-.09.26-.16.52.04.09.07.15.17.22.27.1.15.21.32.42.43.15.07.29.09.43.11.11.01.21.03.3.07.09.04.18.11.28.2.11.09.23.2.37.26.13.06.28.09.42.12.1.02.19.04.25.06.01.05.03.14.13.17.08.03.19,0,.3-.04.06-.02.14-.04.18-.04h0c.25,0,.51.13.75.25.29.14.55.28.82.21.08-.02.15-.06.22-.1.07-.04.14-.08.21-.1.33-.07.57.05.79.16.15.08.29.15.44.15.03,0,.06,0,.09,0,.09-.02.16-.08.25-.15.11-.09.23-.19.39-.21.11-.02.38,0,.6.01.32.02.4.02.46,0,.11-.04.14-.16.16-.26.03-.13.05-.19.13-.21.11-.03.21,0,.33.02.19.03.41.07.67-.06.15-.07.23-.19.3-.29.05-.07.1-.13.16-.18.09-.07.2-.11.32-.15.15-.05.31-.1.43-.22.09-.09.15-.21.21-.32.04-.09.09-.18.13-.22.06-.05.15-.09.25-.13.12-.05.25-.1.35-.19.11-.11.17-.26.22-.39.04-.09.07-.18.12-.24.06-.08.15-.13.25-.18.11-.06.23-.13.33-.25.09-.11.13-.24.18-.36.04-.09.07-.18.12-.26.06-.09.16-.18.26-.27.1-.09.2-.18.27-.28.18-.26.22-.54.12-.74-.07-.14-.2-.22-.35-.22,0,0,0,0-.01,0-.22,0-.44.16-.61.45-.98,1.69-1.98,2.63-3.67,3.46-.09.05-.18.12-.25.18-.07.06-.14.12-.19.14-.14.06-.28.03-.44,0-.14-.03-.3-.06-.47-.04-.16.02-.32.1-.47.18-.16.08-.33.17-.5.19-.18.01-.35-.04-.53-.09-.17-.05-.34-.1-.53-.1h-.01c-.15,0-.31.05-.46.09-.15.04-.3.08-.4.08-.11-.02-1.31-.51-1.43-.57-.06-.03-.12-.1-.18-.16-.07-.07-.12-.13-.19-.15-.09-.02-.18,0-.3.04-.14.04-.29.09-.47.05-.2-.04-.32-.2-.45-.36-.1-.13-.21-.26-.35-.33-.13-.06-.25-.07-.36-.08-.11-.01-.2-.02-.28-.07-.05-.03-.15-.19-.23-.3-.08-.12-.16-.24-.23-.32-.21-.21-.48-.36-.73-.49-.21-.11-.41-.22-.52-.34-.12-.13-.19-.32-.26-.51-.08-.21-.16-.43-.32-.57-.18-.16-.31-.15-.41-.16-.05,0-.1,0-.17-.02-.13-.03-.16-.12-.2-.3-.02-.08-.04-.17-.08-.25-.04-.08-.1-.17-.15-.27-.07-.11-.14-.23-.18-.32-.03-.07-.05-.19-.07-.3-.05-.22-.08-.36-.14-.44-.13-.16-.31-.12-.44-.08-.12.03-.18.04-.23,0-.1-.08-.03-.55,0-.78Z"/>
      <path d="M13.93,30.45c.06.02.14.07.22.12.13.08.27.16.4.17.32.03.47-.21.58-.39.08-.13.15-.24.26-.27.44-.13.74-.07,1.06,0,.18.03.36.07.57.07.5.02.64-.25.73-.44.06-.11.1-.18.17-.22.16-.08.42-.08.67-.07.22,0,.42,0,.57-.04.13-.04.21-.16.29-.28.04-.06.09-.12.12-.15.09-.07.69-.44.79-.49.1-.06.23-.09.37-.12.26-.06.56-.14.73-.4.04-.07.07-.16.1-.24.03-.09.06-.19.1-.24.05-.05.17-.11.29-.16.12-.05.25-.11.35-.18.21-.17.46-.51.7-.83.16-.22.32-.44.45-.58.06-.06.14-.13.23-.19.22-.17.47-.35.49-.65,0-.1-.01-.19-.03-.28-.04-.15-.05-.25.02-.34.04-.05.15-.06.25-.07.17-.02.39-.04.45-.28.04-.14-.03-.27-.1-.4-.08-.15-.16-.31-.1-.49.03-.09.12-.18.22-.28.16-.16.35-.36.4-.65.04-.25-.02-.5-.15-.66-.11-.13-.26-.2-.45-.2h-.01c-.57,0-.58.4-.58.68,0,.14,0,.28-.05.4-.04.11-.12.2-.21.3-.13.14-.27.3-.3.53-.02.14.02.27.06.41.08.29.08.37-.11.43-.09.03-.14.02-.21,0-.05,0-.11-.02-.18,0-.09.02-.16.06-.2.13-.07.13-.02.29.03.43.02.06.05.13.05.17,0,.24-.12.3-.31.41-.08.05-.17.1-.25.17-.15.13-.23.26-.3.38-.04.07-.08.15-.14.21-.06.07-.89.8-.97.86-.23.11-.44.04-.61-.02-.12-.04-.22-.07-.31-.02-.26.14-.13.42-.06.58.04.09.09.19.08.25,0,.04-.03.06-.04.07-.09.05-.29,0-.45-.03-.1-.02-.19-.05-.27-.04-.37,0-.66.23-.98.46-.31.23-.64.48-1.05.5-.13,0-.31-.06-.46-.11-.16-.06-.31-.11-.43-.09-.25.04-.32.24-.37.38-.02.06-.04.11-.06.14-.16.19-.68.01-1.06-.11-.26-.09-.49-.17-.64-.15-.27.02-.35.21-.4.35-.06.14-.09.2-.22.2h-.02c-.28,0-.49-.14-.7-.27-.18-.12-.37-.24-.59-.25-.51-.01-.63.13-.75.33-.04.07-.08.13-.15.19-.15.12-.25.04-.49-.23-.1-.11-.19-.21-.29-.26-.12-.06-.24-.08-.36-.1-.15-.03-.29-.05-.4-.14-.05-.04-.09-.11-.13-.19-.06-.12-.13-.26-.29-.29-.15-.03-.51.04-.64.15-.13.11-.15.26-.17.38,0,.04-.02.12-.03.13,0,0-.06.02-.27-.09-.21-.1-.25-.23-.29-.38-.03-.1-.06-.22-.16-.31-.08-.08-.2-.11-.31-.15-.15-.05-.3-.09-.4-.26-.05-.08-.07-.17-.09-.26-.05-.22-.12-.52-.65-.4-.16.03-.28.13-.37.27-.11.18-.13.42-.07.63.05.15.2.26.34.35.07.05.14.1.17.14.07.09.12.19.16.29.07.15.14.32.31.48.07.06.15.11.24.16.08.04.16.09.21.14.07.07.14.15.2.24.08.11.17.23.28.31.12.08.25.12.38.16.12.04.23.07.32.14.07.05.1.12.13.18.08.17.18.31.52.23.19-.04.42-.2.5-.41.04-.11.03-.22-.02-.32.1.05.23.08.37.11.12.03.25.05.34.09.11.05.19.13.27.21.08.08.17.17.29.23.15.08.32.11.48.14.13.02.25.05.35.09.06.03.12.07.19.12.1.08.24.18.39.18.07,0,.14-.02.22-.07.09-.06.15-.13.16-.22.03-.17-.11-.33-.25-.49-.08-.09-.22-.25-.19-.3.02-.03.03-.04.04-.04.1,0,.3.17.41.27.09.08.17.15.23.18.17.09.35.14.54.19.11.03.22.06.32.1ZM9.02,28.87s.01,0,.03,0c.05,0,.16.03.3.14.09.07.14.19.18.29.02.05.05.11.08.16-.04-.02-.09-.04-.13-.06-.13-.05-.27-.1-.36-.25-.11-.19-.1-.27-.09-.28Z"/>
      <path d="M27.88,23.45c.12-.2.19-.36.24-.52.08-.2.15-.39.34-.65.26-.36.04-.58-.12-.75-.12-.12-.23-.23-.25-.4-.04-.31.04-.53.11-.73.06-.16.12-.31.1-.48-.04-.37-.24-.64-.41-.88-.17-.23-.31-.42-.32-.66,0-.11.04-.25.09-.39.07-.2.13-.41.07-.59-.07-.22-.27-.23-.41-.23-.1,0-.16,0-.2-.05-.03-.04-.03-.2-.03-.3,0-.12,0-.24-.03-.34-.1-.37-.28-.49-.44-.59-.08-.05-.16-.1-.24-.19-.05-.06-.09-.15-.14-.25-.04-.1-.09-.21-.16-.3-.21-.28-.54-.57-.86-.86-.22-.2-.43-.38-.58-.55-.04-.05-.08-.11-.12-.18-.06-.11-.12-.23-.24-.32-.1-.07-.21-.11-.32-.14-.1-.03-.19-.06-.26-.11-.08-.05-.14-.14-.21-.24-.09-.12-.18-.26-.34-.35-.16-.09-.33-.11-.48-.13-.11-.02-.22-.03-.29-.07-.06-.03-.1-.11-.15-.19-.09-.16-.23-.42-.58-.35-.13.02-.22.1-.3.16-.1.08-.17.15-.35.13-.12-.01-.22-.13-.33-.26-.12-.14-.25-.29-.44-.33-.29-.06-.78.14-.91.44-.04.09-.09.33.25.54.21.13.42.12.61.11.13,0,.26-.01.37.03.08.03.13.12.17.21.05.1.1.2.21.23.2.07.36-.03.51-.12.18-.1.32-.19.54-.07.08.04.14.13.2.23.07.11.15.22.26.3.09.06.19.09.29.12.1.03.19.06.26.11.09.06.15.16.22.27.06.09.12.19.2.26.13.12.27.18.4.23.1.04.2.08.27.14.07.07.12.18.18.3.05.11.1.23.18.32.1.12.23.19.34.25.09.05.17.09.23.16.08.08.13.2.18.32.05.11.1.23.19.34.09.12.19.23.28.34.24.28.47.54.57.95.05.19.01.33-.03.48-.03.13-.07.27-.04.43.04.19.17.3.28.38.06.04.11.08.14.13.11.17.13.54.08.78-.02.09-.09.18-.16.26-.11.14-.23.29-.16.46.11.25.39.21.55.19.03,0,.08-.01.11-.01-.04.23-.22.93-.25,1.03-.03.07-.11.16-.18.25-.15.17-.32.37-.21.56.08.12.22.13.35.15.09,0,.19.02.21.06.02.04.05.19-.21.69-.04.08-.13.19-.21.29-.14.18-.29.37-.31.54-.05.37.18.45.32.5.06.02.12.04.14.07.1.16-.08.34-.35.57-.1.08-.19.17-.25.24-.09.12-.15.25-.21.37-.04.08-.08.17-.13.25-.02.04-.07.08-.12.13-.09.08-.17.16-.2.26-.06.21.06.33.14.41.09.09.16.15.03.4-.11.23-.29.26-.5.3-.14.03-.28.05-.39.15-.13.11-.32.58-.27.82.02.13.11.18.15.19.03.01.07.01.17,0,.2,0,.34,0,.39.03-.01.02-.05.07-.14.15-.22.18-.59.37-.94.56s-.7.36-.94.55c-.39.31-.53.56-.41.76.09.15.32.21.59.21.28,0,.59-.07.81-.17.54-.26.92-.57,1.32-.89.09-.07.19-.15.28-.23.07-.06.17-.11.28-.16.26-.12.61-.29.51-.76-.05-.21-.22-.3-.35-.36-.17-.08-.18-.1-.14-.2.02-.05.22-.14.33-.18.15-.06.29-.13.39-.21.09-.08.15-.19.21-.29.04-.08.09-.15.13-.2.05-.06.14-.12.23-.18.24-.17.56-.39.38-.77-.06-.13-.18-.21-.27-.27-.14-.09-.18-.13-.16-.23.02-.1.19-.28.32-.41.11-.11.22-.22.28-.32.07-.12.12-.25.17-.39.04-.12.08-.23.14-.31.01-.02.06-.06.1-.09.15-.13.33-.29.3-.48-.01-.07-.05-.16-.2-.22-.21-.09-.42.05-.59.16-.07.04-.16.11-.18.11-.03-.06.06-.15.17-.26.06-.06.13-.13.17-.2Z"/>
      <path d="M7.59,14.85c0,.28.14.43.25.56.07.08.13.15.14.23.02.15-.04.28-.1.42-.05.11-.1.22-.11.34-.06.4.08.64.21.88.07.14.15.28.2.46.04.18.06.4.08.64.02.32.05.65.15.91.06.17.19.29.31.41.09.09.18.17.23.26.06.11.08.22.11.34.05.21.1.44.35.62.06.04.13.07.19.09.05.02.09.03.12.05.22.16.2.38.18.58-.01.16-.03.32.1.41.12.08.25.07.39.06.2-.02.32-.01.41.15.03.05.04.16.06.25.02.17.05.33.16.4.08.05.19.06.3.07.12,0,.26.02.37.09.07.05.13.14.19.23.07.11.15.24.28.33.1.07.22.11.32.15.08.03.15.05.21.09.09.05.16.13.24.21.07.07.14.15.24.21.15.1.32.16.49.21.11.04.22.07.32.12.05.02.11.08.17.13.1.09.2.17.29.19.15.03.3-.02.46-.08.17-.06.34-.12.52-.1.16.01.34.1.51.19.19.09.36.18.53.18,0,0,.01,0,.02,0,.15,0,.29-.1.43-.19.09-.06.19-.13.27-.15.31-.08.49.02.66.11.12.07.26.14.41.11.17-.03.26-.18.34-.3.05-.07.09-.15.14-.17.07-.03.16-.04.26-.05.14-.02.3-.03.44-.12.13-.08.2-.22.27-.35.06-.11.12-.22.19-.26.04-.02.12-.04.19-.05.2-.04.52-.1.46-.52-.03-.21-.11-.33-.23-.37-.23-.07-.49.18-.69.39-.05.05-.11.11-.13.12-.07.04-.17.07-.27.09-.12.03-.27.07-.39.15-.1.07-.17.18-.25.29-.06.08-.14.21-.19.22-.19.05-.39-.02-.6-.1-.15-.06-.31-.11-.47-.12-.23,0-.38.08-.51.16-.17.1-.31.19-.64.12-.07-.02-.15-.06-.22-.11-.11-.07-.23-.15-.39-.16-.19-.02-.37.05-.55.1-.13.04-.26.08-.36.08h0c-.2,0-.34-.13-.5-.28-.09-.09-.18-.17-.29-.24-.17-.1-.35-.21-.55-.31-.4-.22-.81-.45-1.12-.72-.04-.03-.07-.09-.1-.15-.04-.07-.08-.15-.15-.22-.09-.09-.21-.15-.33-.21-.11-.06-.22-.11-.27-.17-.05-.06-.07-.13-.09-.21-.02-.07-.04-.15-.09-.22-.07-.11-.19-.21-.3-.31-.1-.09-.2-.18-.26-.26-.06-.09-.1-.2-.13-.31-.03-.1-.06-.2-.12-.29-.1-.18-.22-.29-.33-.38-.17-.16-.3-.27-.33-.69,0-.03.01-.1.02-.16.03-.16.06-.29-.01-.38-.08-.09-.19-.1-.29-.11-.13-.01-.17-.02-.19-.08-.05-.11,0-.24.04-.4.08-.26.18-.59-.06-.98-.05-.08-.11-.14-.17-.19-.1-.09-.16-.15-.17-.29,0-.12.07-.28.15-.44.09-.19.19-.39.18-.6-.01-.2-.11-.32-.2-.43-.1-.11-.17-.21-.16-.39,0-.13.12-.31.23-.48.19-.31.43-.69.18-1.03-.07-.09-.15-.14-.22-.18-.11-.06-.14-.08-.11-.21.02-.04.14-.17.22-.24.09-.09.18-.18.23-.25.1-.15.2-.3.28-.46.14-.24.29-.49.48-.7l.02-.02v-.03c.09-.32-.1-.44-.23-.51-.11-.07-.17-.1-.14-.24.03-.15.2-.27.38-.4.13-.09.27-.19.37-.31.03-.04.46-.73.48-.8.05-.16.02-.26,0-.35-.02-.09-.04-.15.04-.3.07-.13.4-.35.7-.56.37-.25.76-.51.96-.77.15-.18.2-.38.12-.52-.04-.07-.14-.19-.41-.16-.09,0-1.15.37-1.19.4-.13.06-.22.17-.3.27-.08.1-.17.2-.29.26-.1.06-.28.1-.43.13-.2.05-.29.07-.34.12-.07.07-.09.18-.11.29-.01.06-.02.13-.04.17-.12.26-.3.29-.47.31-.1.02-.2.03-.26.11-.23.29.08.54.23.67.04.03.09.07.1.09.13.2-.06.38-.34.62-.09.08-.17.15-.23.22-.12.14-.19.28-.26.42-.06.11-.11.22-.18.3-.02.02-.07.06-.11.09-.13.1-.29.23-.3.39,0,.05.01.14.09.21.21.2.48.04.68-.07.06-.04.23-.13.25-.13h0c0,.07-.21.25-.3.32-.09.08-.17.15-.21.21-.04.06-.75,1.27-.76,1.4-.05.34.14.49.28.59.1.08.16.12.16.21,0,.1-.09.25-.18.4-.14.22-.29.47-.29.75ZM8.05,11.08h0s0,0,0,0Z"/>
      <path d="M30.6,15.91c-.05-.12-.1-.24-.11-.38-.02-.12,0-.23,0-.35.02-.16.03-.33-.02-.55-.04-.14-.5-1.03-.62-1.15-.14-.14-.35-.34-.67-.09-.05.04-.08.09-.12.14-.02.04-.08.12-.1.12,0,0-.02,0-.06-.04-.03-.04-.07-.24-.09-.37-.04-.21-.08-.43-.15-.57-.04-.07-.67-.9-.77-.97-.33-.22-.52-.02-.63.09-.1.11-.14.14-.26.09-.24-.1-.28-.4-.32-.64-.03-.17-.04-.29-.12-.35-.16-.13-.45-.07-.73,0-.14.03-.32.07-.38.05-.05-.02-.13-.12-.18-.19-.05-.07-.11-.14-.16-.19-.01,0-1.08-.86-1.22-.9-.29-.09-.43.09-.54.21-.09.1-.13.17-.24.16-.15,0-.26-.12-.4-.25-.22-.21-.49-.48-1-.36-.11.03-.2.09-.29.15-.11.08-.21.14-.32.13-.06,0-.14-.07-.21-.14-.09-.08-.19-.16-.31-.2-.48-.16-.77.02-1,.17-.18.11-.32.2-.53.16-.03,0-.1-.04-.16-.08-.09-.05-.19-.11-.29-.12-.42-.07-.66.12-.87.29-.2.16-.38.3-.73.26-.05,0-.12-.04-.19-.07-.15-.06-.31-.13-.44-.06-.22.11-.19.35-.18.51,0,.05.02.17,0,.18-.04.02-.2,0-.29-.01-.1-.01-.2-.03-.28-.02-.37.03-.52.22-.65.4-.07.09-.13.17-.22.24-.07.05-.17.09-.27.14-.16.07-.32.14-.44.27-.07.08-.11.17-.15.26-.04.08-.07.15-.12.21-.08.09-.18.14-.29.2-.13.07-.27.14-.37.28-.08.11-.11.22-.14.33-.03.11-.06.21-.13.3-.07.08-.15.14-.23.2-.19.13-.4.28-.4.71,0,.18.03.33.09.44-.09.02-.18.05-.24.08-.22.12-.25.21-.25.23-.04.14,0,.29.04.44.03.13.07.26.05.38-.02.13-.12.23-.22.34-.12.13-.25.27-.26.46,0,.16.15.55.28.66.05.04.17.15.31.15.03,0,.07,0,.1-.02.22-.09.23-.45.25-.76,0-.09,0-.19.02-.22.04-.12.11-.2.19-.28.15-.15.33-.33.23-.76,0,0-.13-.38-.26-.59.1-.02.2-.08.29-.15.26-.2.34-.42.4-.61.04-.1.07-.2.13-.3.04-.07.18-.17.3-.26.1-.08.21-.16.29-.24.09-.09.19-.21.31-.33.33-.36.74-.8,1.02-1,.09-.06.19-.1.31-.13.12-.04.24-.08.34-.15.1-.07.18-.2.26-.32.05-.07.12-.18.15-.2.06-.02.17.04.26.09.08.04.15.08.22.1.31.07.48-.06.62-.16.07-.05.14-.11.24-.14.15-.06.31-.08.49-.11.16-.02.33-.05.49-.1.09-.03.17-.09.25-.14.06-.04.12-.09.17-.1.12-.03.23.02.37.09.15.07.32.13.54.13.16,0,.32-.08.48-.15.14-.06.29-.13.39-.12.06,0,.09.05.15.13.07.09.16.21.34.24.14.02.31-.01.48-.04.12-.02.25-.05.35-.04.18,0,.3.11.44.23.2.17.42.36.81.26.11-.03.18-.1.24-.16.09-.09.13-.13.25-.08.03.02.14.16.21.24.09.11.17.22.24.27.08.07.16.12.24.18.07.04.13.09.19.14.05.04.12.13.2.21.17.2.28.32.38.35.2.08.36,0,.47-.05.12-.06.17-.07.25,0,.06.05.12.23.17.37.05.15.1.31.18.42.02.03.63.65.82.65,0,0,0,0,0,0,.26-.02.24-.33.23-.58,0-.09-.02-.37.04-.39.07.03.11.37.12.48.01.11.02.2.04.26.04.11.11.2.18.28.05.07.11.13.13.2.03.08.05.2.07.33.07.39.17.93.66,1.02.1.02.19,0,.26-.05.14-.1.17-.29.2-.46.02-.1.06-.26.11-.24.08.09.04.42.02.65-.02.18-.03.33-.01.43.02.12.34,1.28.38,1.38.1.21.26.32.45.32.03,0,.06,0,.09,0,.26-.05.48-.29.5-.57.03-.38-.06-.6-.14-.8Z"/>
      <path d="M19.79,5.63c-.4.07-.41.35-.41.53,0,.07,0,.14-.02.19-.04.11-.61-.01-.81-.05-.24-.05-.38-.08-.47-.06-.06,0-.91.32-.97.37-.15.1-.21.23-.27.35-.06.12-.1.22-.23.28-.13.06-.46.09-.71.12-.35.03-.46.05-.53.1-.23.19-.13.39-.08.51.02.05.04.09.04.13,0,.1-.09.14-.41.16-.1,0-.19.01-.26.03-.08.03-.15.1-.22.18-.06.07-.13.14-.19.17-.06.02-.17.04-.28.06-.33.05-.78.13-.79.49,0,.09.04.18.08.27.06.13.1.23.06.29-.03.02-.17.02-.26.01-.22-.01-.48-.02-.65.15-.33.33-.17.64-.08.82.02.05.06.12.06.14-.02.04-.13.04-.21.04-.11,0-.22,0-.29.08-.04.05-.05.11-.09.33-.03.17-.07.44-.13.53-.04.07-.12.11-.2.16-.09.05-.19.1-.26.2-.08.11-.11.24-.14.37-.02.1-.05.19-.09.28-.05.09-.13.18-.21.28-.17.19-.36.41-.34.69.01.19.23.7.47.8.12.05.23.07.32.07s.16-.02.22-.07c.18-.14.16-.42.13-.7-.01-.14-.03-.3,0-.37.03-.08.14-.18.24-.28.12-.11.25-.23.32-.37.07-.12.1-.25.13-.36.03-.11.05-.21.1-.29.05-.07.6-.68.7-.77.04-.04.12-.08.2-.13.16-.09.31-.18.36-.31.04-.11.03-.23.02-.35-.02-.18-.02-.3.07-.36.05-.04.21-.06.34-.08.32-.04.81-.11.79-.54,0-.08-.03-.15-.06-.21-.05-.11-.04-.12-.02-.13.04-.03.21-.04.33-.05.18-.01.38-.03.54-.09.28-.11.47-.31.66-.5.28-.29.54-.56,1.07-.59.1,0,.25.02.4.05.25.04.46.08.59,0,.08-.05.14-.12.15-.2.03-.16-.09-.31-.19-.44-.04-.06-.12-.16-.13-.18,0,0,0,0,.04-.02.07-.02.28.05.43.11.18.07.37.14.54.14h0c.15,0,.89-.15,1.01-.32.06-.09.05-.2.04-.29,0-.06-.01-.12,0-.14.01-.01.08-.06.41-.02.12.02.17.05.23.1.05.04.1.08.18.1.14.05.32.06.5.08.17.02.34.03.48.07.05.01.13.06.22.1.27.13.6.29.82.17.07-.04.15-.12.16-.3.02-.21-.09-.35-.2-.47-.04-.05-.96-.71-1.06-.73-.16-.04-.33-.04-.49-.03-.11,0-.22,0-.32,0-.18-.02-.33-.08-.49-.15-.26-.1-.53-.21-.89-.14Z"/>
      <path d="M19.23,35.3c-.12-.02-.28,0-.44.02-.15.01-.3.03-.42.02-.38-.03-.77-.06-1.15-.09-.81-.07-1.66-.15-2.48-.13-.09,0-.2,0-.31-.01-.4-.02-.78-.04-.87.18-.07.16.04.35.36.64.38.34.69.35,1.02.35.13,0,.27,0,.42.03.14.02.28.08.42.14.19.09.4.17.65.18.15,0,.31-.02.46-.04.16-.02.31-.05.47-.04.12,0,.24.04.36.07.16.04.33.08.52.08.02,0,.05,0,.07,0,.22-.01.43-.09.63-.17.17-.07.34-.13.5-.15.05,0,.14,0,.21,0,.17.01.34.03.44-.05.09-.07.14-.17.15-.28.01-.12-.03-.25-.1-.34-.09-.1-.82-.4-.91-.41Z"/>
      <path d="M2.84,26.58c-.05-.09-.08-.25-.11-.4-.03-.15-.06-.3-.12-.43-.12-.28-.31-.61-.5-.92-.18-.3-.37-.61-.48-.87-.07-.17-.08-.31-.1-.45-.01-.13-.03-.26-.08-.4-.04-.12-.11-.2-.18-.28-.04-.05-.09-.1-.12-.16-.03-.06-.06-.14-.08-.21-.09-.26-.23-.66-.73-.54-.15.03-.25.1-.3.21-.1.2,0,.45.09.68.04.09.07.18.08.24.01.1.01.21,0,.32,0,.11,0,.22,0,.33.07.56.39,1.1.67,1.59.14.25.28.48.37.7.05.11.07.26.09.39.02.14.04.26.08.34.04.08.13.13.23.2.07.05.16.1.2.15.04.04.09.16.14.27.15.32.32.69.59.69h0c.23,0,.36-.27.45-.48.2-.5.11-.63-.06-.79-.05-.05-.11-.1-.16-.19Z"/>
      <path d="M2,8.74c.07.04.13.05.2.05.09,0,.17-.03.24-.09.05-.05.08-.11.12-.17.03-.06.06-.12.1-.15.07-.06.19-.1.29-.13.12-.04.22-.07.28-.14.04-.06.07-.14.1-.3.03-.14.08-.31.13-.42.06-.1.14-.17.22-.24.07-.06.13-.12.19-.19.33-.45.68-.84,1.01-1.21.24-.27.48-.55.73-.85.06-.07.66-1.02.46-1.35-.03-.06-.12-.14-.3-.1-.97.2-2.57,2.13-2.94,2.63-.47.63-.7,1.09-.93,1.81-.01.04-.05.09-.08.14-.04.07-.09.13-.1.19-.04.21.11.43.28.52Z"/>
      <path d="M35.16,24.68c-.07-.07-.21-.14-.43-.09-.12.03-.22.13-.34.26l-.04.05c-.47.47-1.16,1.65-1.3,1.88-.06.11-.1.23-.13.35-.03.12-.07.23-.12.32-.05.07-.13.14-.21.2-.08.06-.16.12-.21.2-.06.1-.1.22-.14.34-.03.1-.06.21-.1.29-.07.13-.17.22-.28.33-.21.2-.45.43-.38.9.04.26.16.35.26.39.04.01.09.02.13.02.29,0,.62-.29.7-.35.91-.83,1.79-2.37,2.28-3.42.03-.06.44-1.07.45-1.16.03-.22-.01-.4-.13-.5Z"/>
      <path d="M32.45,8.37c.27.36.57.78.62.95.02.09.03.18.03.28,0,.1,0,.2.04.29.03.11.13.19.21.26.06.05.12.1.16.16.06.1.11.24.15.38.05.16.11.35.22.52.08.13.64.82.86.88.05.01.1.02.14.02.11,0,.18-.04.23-.09.18-.19.08-.59-.05-.99-.02-.06-.04-.11-.04-.14-.02-.09-.03-.22-.04-.34-.01-.15-.02-.29-.05-.4-.04-.13-.13-.21-.2-.26-.05-.04-.09-.07-.12-.12-.06-.11-.1-.25-.15-.41-.05-.17-.1-.37-.2-.55-.31-.57-.95-1.37-1.43-1.88-.16-.17-.34-.35-.65-.32-.22.02-.33.13-.38.21-.11.2-.04.45.04.63.1.22.35.57.62.93Z"/>
      <path d="M15.31,1.56s.09.03.13.03c.11,0,.22-.05.32-.09.07-.03.13-.06.18-.06.25-.04.53,0,.79.03.19.02.37.04.54.04.23,0,.5-.03.75-.06.25-.03.51-.05.74-.06.07,0,.19,0,.34.02.74.06,1.43.08,1.65-.27.1-.15.09-.35-.04-.58-.23-.43-.78-.41-1.22-.39-.13,0-.25.01-.35,0-.14-.01-.27-.05-.4-.08-.2-.05-.4-.1-.65-.09h0c-.15,0-.3.05-.44.09-.12.03-.23.07-.33.08-.15.01-.3,0-.46-.02-.15-.02-.31-.03-.47-.02-.32.02-.97.34-1.22.73-.13.2-.11.37-.07.47.04.11.11.18.19.22Z"/>
      <path d="M2.14,12.92c.05.05.13.11.27.11.03,0,.05,0,.08,0,.24-.03.82-.98.84-1.03.08-.18.12-.35.15-.51.03-.15.06-.3.13-.44.18-.39.47-.82.75-1.25.34-.52.7-1.06.88-1.54.07-.2.06-.4-.04-.53-.08-.11-.21-.16-.36-.14-.16.01-1.08.85-1.09.86-.18.19-.81,1.16-.93,1.39-.04.09-.59,1.26-.61,1.39,0,.09,0,.18.01.28.01.1.02.21.01.31,0,.04-.03.12-.06.21-.1.32-.21.71-.04.91Z"/>
      <path d="M22.68,33.11h-.02c-.08,0-.16.04-.25.07-.06.03-.13.06-.18.06-.19.02-.39,0-.59-.02-.2-.02-.41-.03-.6-.02-.15.01-.3.06-.45.11-.13.04-.26.09-.39.1-.13.02-.37.03-.64.04-1.01.04-1.79.1-2,.35-.1.12-.14.27-.12.43.03.18.15.35.32.44.18.1.35.14.51.14s.33-.04.48-.07c.15-.03.29-.07.43-.07h0c.1,0,.23.03.36.06.14.03.29.07.42.06.25,0,.47-.09.68-.18.16-.06.31-.13.47-.15.11-.02.23-.01.35,0,.14,0,.28,0,.42-.01.35-.06,1.25-.71,1.21-1.09-.01-.12-.09-.25-.42-.25Z"/>
      <path d="M6.31,28.64l-.12-.23c-.19-.38-.23-.45-.59-.92-.09-.12-.16-.27-.23-.42-.08-.17-.15-.34-.27-.51-.06-.09-.15-.22-.25-.37-.46-.69-.9-1.33-1.15-1.52-.28-.21-.47-.13-.56-.07-.18.12-.24.4-.16.69.04.12.44,1.03.51,1.16.07.12.15.22.23.31.08.1.16.19.22.31.04.07.06.16.08.25.03.12.06.24.13.34.06.1.17.18.26.25.06.04.12.09.14.12.07.09.13.19.19.29.1.16.19.33.35.47.11.1.23.16.34.21.09.05.18.09.24.14.04.04.08.11.11.18.07.13.17.32.38.32.04,0,.08,0,.12-.02.12-.04.26-.24.29-.33.08-.29-.05-.42-.15-.52-.04-.04-.08-.08-.11-.14Z"/>
      <path d="M31.95,26.31c.06.03.13.05.2.05.19,0,.39-.1.55-.3.47-.55.66-1.04.89-1.65l.07-.18s.06-.09.1-.14c.06-.07.12-.15.16-.24.04-.12.06-.27.08-.43.02-.15.04-.3.08-.42.04-.13.1-.24.15-.34.12-.23.24-.46.2-.82-.03-.21-.13-.39-.3-.51-.15-.1-.33-.14-.5-.09-.24.06-.32.39-.39.69-.02.11-.05.21-.08.27-.05.11-.11.21-.18.32-.08.13-.16.26-.22.41-.05.13-.07.27-.1.41-.03.15-.05.28-.1.39-.02.05-.06.09-.11.13-.06.06-.14.14-.18.27-.04.12-.05.24-.07.36-.02.15-.03.29-.09.43-.03.08-.1.17-.16.26-.1.15-.21.3-.25.48-.08.36.07.57.23.65Z"/>
      <path d="M29,7.1c.1.08.19.15.25.24.06.09.11.18.15.28.05.1.09.21.17.31.09.11.19.19.29.25.14.1.25.18.34.38.02.05.03.1.04.17.01.09.03.2.09.29.07.11.19.16.3.21.11.05.21.09.28.19.05.06.07.17.1.26.05.17.1.36.27.43.03.01.06.02.1.02.06,0,.14-.02.23-.09.2-.15.39-.5.37-.69-.01-.15-.11-.25-.19-.34-.05-.05-.09-.1-.12-.15-.05-.1-.07-.21-.1-.32-.04-.16-.08-.35-.2-.53-.3-.45-1.26-1.5-1.68-1.88-.07-.06-.9-.59-.98-.62-.07-.03-.16-.05-.27-.01-.09.03-.15.09-.18.18-.12.37.43,1.13.44,1.14.09.12.2.2.3.29Z"/>
      <path d="M24.84,30.85c-.38-.17-.61-.03-.81.1-.1.06-.2.12-.31.15-.12.02-.24.03-.36.04-.17,0-.35.02-.55.08-.28.08-.63.25-.96.4-.34.16-.7.33-.96.4-.11.03-.25.03-.38.03-.16,0-.29,0-.39.04-.1.04-.17.13-.2.26-.04.15,0,.33.09.43.12.14.29.18.47.18.14,0,.29-.03.43-.05.1-.02.19-.03.26-.03.09,0,.19,0,.29.02.16.02.33.04.5.01.25-.03.44-.15.61-.25.12-.07.22-.13.34-.17.14-.04.27-.05.43-.04.14,0,.26,0,.39-.04.09-.03.18-.12.27-.21.06-.06.12-.12.16-.15.02-.01.07-.04.14-.07.45-.21.89-.44.89-.74,0-.15-.11-.28-.33-.37Z"/>
      <path d="M31.85,20.16c-.04.21-.04.41-.04.59,0,.14,0,.27-.02.41,0,.07-.05.2-.1.34-.14.44-.32.99-.09,1.24.07.08.17.12.3.12.06,0,.12,0,.19-.02.49-.12.64-.71.74-1.15.02-.08.04-.15.05-.21.11-.4.12-.47.16-.75l.03-.23c.02-.15.07-.32.11-.49.05-.19.1-.37.11-.53.03-.27-.15-1.16-.47-1.46-.12-.11-.24-.12-.31-.1-.47.09-.41.69-.37,1.05,0,.09.02.17.02.23,0,.17-.08.34-.16.52-.06.15-.13.29-.16.45Z"/>
      <path d="M13.04,3.88c.1.03.2.04.29.04.27,0,.49-.11.68-.21.14-.07.28-.14.43-.17.14-.02.29-.02.44-.01.14,0,.29.01.43,0,.21-.03,1.29-.3,1.46-.37.53-.21.51-.53.48-.65-.09-.35-.59-.58-1.1-.52-.14.02-.28.07-.41.13-.12.05-.24.1-.36.11-.13.02-.28.01-.42,0-.14,0-.29-.01-.43,0-.18.02-1.4.55-1.53.64-.2.14-.37.42-.32.66.02.1.09.27.36.34Z"/>
      <path d="M10.78,6.52c.11,0,.21-.02.31-.05.1-.04.18-.1.26-.16.06-.05.12-.09.19-.12.08-.04.17-.06.25-.08.11-.03.23-.06.34-.12.1-.05.2-.13.29-.2.1-.08.21-.16.3-.2.23-.08.43-.13.62-.18.41-.1.79-.19,1.29-.53.25-.17.35-.4.27-.6-.09-.23-.4-.35-.73-.3-.12.02-.24.08-.36.14-.12.06-.24.12-.37.14-.1.02-.2.01-.31.01-.17,0-.35,0-.54.06-.12.04-.98.51-1.05.54-.1.05-1.09.83-1.16.94-.17.27-.1.44-.03.52.1.12.26.17.43.17Z"/>
      <path d="M24.72,5.65l.03.02c.15.09.27.24.39.39.09.11.18.23.29.32.13.12.29.2.44.28.13.07.26.14.37.23.05.04.09.1.15.17.07.09.15.19.26.27.1.07.2.11.29.15.14.06.25.1.37.26.07.09.1.16.13.23.11.23.21.31.63.31.04,0,.08,0,.12,0,.14,0,.29-.02.39-.12.1-.11.1-.27.09-.48-.02-.46-.18-.56-.42-.65-.08-.04-.17-.07-.27-.15-.11-.09-.18-.22-.25-.35-.06-.11-.11-.22-.2-.29-.09-.07-.23-.1-.37-.14-.11-.03-.23-.06-.3-.1-.2-.1-.31-.18-.41-.26-.17-.12-.32-.23-.8-.39-.04-.01-.1-.04-.16-.07-.22-.11-.53-.27-.72-.07-.1.1-.11.32-.05.43l.02.03Z"/>
      <path d="M31.94,18.99c.11-1.39.04-2.48-.22-3.23-.12-.36-.39-.46-.58-.42-.2.03-.41.22-.42.55,0,.14.06.25.12.35.05.09.1.17.1.25,0,.11-.05.2-.11.31-.07.13-.15.27-.16.47,0,.2.05.4.1.6.04.16.09.32.09.45,0,.12-.03.27-.07.43-.08.36-.18.77.08,1.04.14.14.27.19.38.19.05,0,.1-.01.14-.02.33-.12.52-.64.55-.96Z"/>
      <path d="M22.45,6.13c.1.03.22.07.28.11.13.07.32.2.53.35.81.55,1.51,1,1.91,1h.02c.28,0,.38-.16.41-.26.1-.25-.05-.61-.24-.8-.11-.11-1.23-.81-1.4-.9-.01,0-1.06-.53-1.45-.46-.21.04-.41.23-.46.44-.04.15,0,.29.12.39.04.04.12.07.27.12Z"/>
      <path d="M11.04,18.51c-.08-.03-.2-.04-.34.07-.22.16-.23.62-.19.79.04.21.17.34.29.46.06.06.12.12.16.19.05.08.08.19.1.28.03.11.06.22.12.32.11.18.27.24.42.3.11.04.2.08.25.16.05.07.07.17.09.27.04.22.11.52.5.58.06.01.12.02.18.02.1,0,.17-.02.23-.05-.02.03-.04.05-.04.1-.1.54.3.66.59.74.11.03.22.07.3.12.03.02.08.08.13.14.14.16.3.36.52.36h0c.11,0,.22-.06.31-.18h0c.06-.07.08-.14.06-.24-.03-.15-.9-1.01-.95-1.05-.16-.12-.49-.28-.73-.19.09-.24-.08-.57-.3-.77-.07-.06-.15-.1-.22-.14-.08-.04-.17-.09-.21-.14-.04-.06-.08-.16-.13-.27-.05-.12-.1-.25-.17-.36-.06-.09-.13-.16-.2-.22-.09-.08-.17-.16-.23-.28-.02-.04-.05-.13-.07-.22-.09-.31-.2-.69-.45-.78Z"/>
      <path d="M10.71,14.7c-.15,0-.27.07-.36.17-.25.29-.21.86-.18,1.28,0,.11.02.21.01.28,0,.09-.01.2-.02.32-.05.5-.11,1.19.33,1.48.1.07.19.09.26.09.1,0,.17-.04.21-.08.29-.24.26-.99.13-1.26-.04-.09-.11-.17-.19-.25-.09-.1-.18-.21-.17-.28,0-.05.08-.12.15-.2.17-.17.39-.4.38-.83,0-.16-.09-.46-.27-.62-.09-.08-.18-.11-.29-.11Z"/>
      <path d="M24.19,15.71c-.27-.44-1.63-1.78-2.07-2.11-.38-.28-.64-.21-.76-.15-.16.09-.25.26-.23.45.02.22.16.39.39.47.12.04.23.04.32.04.06,0,.12,0,.17,0,.09.02.15.16.21.3.05.11.1.23.18.32.11.12.24.19.36.25.11.06.21.11.26.19.05.07.07.18.09.29.04.16.07.32.18.43.13.13.39.23.62.23.07,0,.13-.03.19-.05-.21.21-.49.86-.49,1,0,.2.15.32.27.41.07.06.15.11.17.18.04.1.05.21.06.34,0,.15.02.32.1.49.05.11.18.23.3.35.06.06.15.15.18.19-.02.04-.09.12-.13.17-.12.14-.26.31-.29.48-.1.48.11.87.36,1.05.1.07.2.1.3.1.07,0,.14-.02.2-.06.16-.1.33-.34.26-.99-.01-.12-.09-.32-.16-.48-.04-.09-.09-.22-.09-.24,0,0,.04-.02.06-.03.04-.02.09-.04.13-.09.25-.37-.09-.92-.4-1.41-.13-.21-.26-.42-.27-.52,0-.05,0-.16.02-.26.03-.26.07-.55-.1-.69-.08-.07-.2-.08-.34-.05.1-.1.15-.28-.05-.61Z"/>
      <path d="M23.77,19.74c.12-.14.25-.29.2-.51-.02-.11-.11-.2-.21-.29-.07-.07-.15-.14-.17-.22-.01-.03-.03-.13-.04-.21-.04-.28-.08-.6-.3-.67-.19-.06-.38.13-.44.19h0c-.31.33-.08.61.07.81.06.08.11.15.14.21.15.43-.02.65-.19.87-.11.14-.22.28-.2.45.02.21.26.51.49.66.11.08.22.12.31.12.03,0,.06,0,.09-.01.13-.04.12-.19.09-.62-.01-.17-.03-.38-.01-.45.02-.12.1-.22.19-.32Z"/>
      <path d="M15.62,12.28c-.35.05-.5.29-.64.5-.07.11-.14.21-.23.28-.05.04-.12.06-.2.09-.13.04-.27.09-.37.22-.12.16-.15.36-.07.51.06.12.19.18.34.18,0,0,.02,0,.03,0,.28-.01.43-.22.54-.39.06-.09.12-.17.18-.21.07-.05.17-.09.28-.12.22-.08.49-.17.6-.48.04-.1.08-.23.05-.35.06.02.16.04.3.08.09.02.18.04.22.06.04.01.09.05.14.08.08.06.17.11.27.13.04,0,.08.01.11.01.2,0,.32-.11.41-.2.06-.06.12-.11.2-.15.08-.03.22-.04.37-.05.29-.02.62-.04.78-.24.08-.09.11-.2.1-.33-.01-.14-.09-.26-.22-.34-.28-.17-.77-.11-1.01-.01-.16.07-.26.16-.34.25-.14.14-.23.22-.48.15-.06-.02-.12-.06-.19-.11-.11-.08-.24-.17-.39-.15-.21.01-.39.19-.46.37-.04.1-.03.19,0,.27-.11-.04-.23-.05-.34-.04Z"/>
      <path d="M11.84,18.89s.09.02.13.02c.14,0,.27-.08.35-.22.16-.28.15-.84-.02-1-.12-.11-.26-.13-.38-.07-.25.12-.39.54-.36.85.02.22.12.38.29.43Z"/>
      <path d="M20.71,13.81c.19-.13.27-.34.19-.53-.08-.22-.33-.34-.58-.29-.24.04-.41.19-.45.39-.04.19.03.38.19.49.05.03.14.08.27.08.1,0,.23-.03.38-.13Z"/>
    </g>
  </g>
</svg>