<?xml version="1.0" encoding="UTF-8"?>
<svg id="Layer_2" data-name="Layer 2" xmlns="http://www.w3.org/2000/svg" viewBox="0 0 45.84 45.73">
  <g id="Layer_1-2" data-name="Layer 1">
    <g>
      <path d="M15.21,12.05c.23.39.45.78.58.97.49.78,1.1,1.49,1.82,2.11.26.19.49.39.78.55.62.42,1.33.78,2.11,1.04.26.07.49.13.75.16,1.2.29,2.4.29,3.57.03.26-.07.55-.13.81-.23.71-.23,1.4-.55,2.01-.94v-.03c.29-.16.58-.39.84-.58.75-.65,1.4-1.43,1.88-2.31.1-.16.26-.45.42-.75.42-.65.91-1.46.91-1.46,2.11-3.64,4.25-7.18,6.4-10.58-3.47,2.21-7.05,4.38-10.71,6.53-.45.29-.88.55-1.3.78l-.03.03c-.42.75-.91,1.49-1.36,2.27-.23.45-.65.75-1.04.84-.42.16-.81.16-1.23.03-.39-.13-.81-.42-1.04-.84-.49-.78-.91-1.56-1.36-2.31-.45-.26-.91-.55-1.46-.91C14.88,4.32,11.34,2.18,7.9,0c2.21,3.44,4.38,7.05,6.56,10.75,0,0,.39.65.75,1.3Z"/>
      <path d="M38.51,25.95l-.03-.03c-.75-.42-1.49-.91-2.27-1.36-.45-.23-.75-.65-.84-1.04-.16-.42-.16-.81-.03-1.23.13-.39.42-.81.84-1.04.78-.49,1.56-.91,2.31-1.36.26-.45.55-.91.91-1.46,2.14-3.67,4.29-7.21,6.46-10.65-3.44,2.21-7.05,4.38-10.75,6.56,0,0-.65.39-1.3.75-.39.23-.78.45-.97.58-.78.49-1.49,1.1-2.11,1.82-.19.26-.39.49-.55.78-.42.62-.78,1.33-1.04,2.11-.07.26-.13.49-.16.75-.29,1.2-.29,2.4-.03,3.57.07.26.13.55.23.81.23.71.55,1.4.94,2.01h.03c.16.29.39.58.58.84.65.75,1.43,1.4,2.31,1.88.16.1.45.26.75.42.65.42,1.46.91,1.46.91,3.64,2.11,7.18,4.25,10.58,6.4-2.21-3.47-4.38-7.05-6.53-10.71-.29-.45-.55-.88-.78-1.3Z"/>
      <path d="M9.68,24.49c-.78.49-1.56.91-2.31,1.36-.26.45-.55.91-.91,1.46-2.14,3.67-4.29,7.21-6.46,10.65,3.44-2.21,7.05-4.38,10.75-6.56,0,0,.65-.39,1.3-.75.39-.23.78-.45.97-.58.78-.49,1.49-1.1,2.11-1.82.19-.26.39-.49.55-.78.42-.62.78-1.33,1.04-2.11.07-.26.13-.49.16-.75.29-1.2.29-2.4.03-3.57-.07-.26-.13-.55-.23-.81-.23-.71-.55-1.4-.94-2.01h-.03c-.16-.29-.39-.58-.58-.84-.65-.75-1.43-1.4-2.31-1.88-.16-.1-.45-.26-.75-.42-.65-.42-1.46-.91-1.46-.91C6.98,12.06,3.44,9.91.03,7.77c2.21,3.47,4.38,7.05,6.53,10.71.29.45.55.88.78,1.3l.03.03c.75.42,1.49.91,2.27,1.36.45.23.75.65.84,1.04.16.42.16.81.03,1.23-.13.39-.42.81-.84,1.04Z"/>
      <path d="M31.44,33.69c-.23-.39-.45-.78-.58-.97-.49-.78-1.1-1.49-1.82-2.11-.26-.19-.49-.39-.78-.55-.62-.42-1.33-.78-2.11-1.04-.26-.06-.49-.13-.75-.16-1.2-.29-2.4-.29-3.57-.03-.26.07-.55.13-.81.23-.71.23-1.4.55-2.01.94v.03c-.29.16-.58.39-.84.58-.75.65-1.4,1.43-1.88,2.31-.1.16-.26.45-.42.75-.42.65-.91,1.46-.91,1.46-2.11,3.64-4.25,7.18-6.4,10.58,3.47-2.21,7.05-4.38,10.71-6.53.45-.29.88-.55,1.3-.78l.03-.03c.42-.75.91-1.49,1.36-2.27.23-.45.65-.75,1.04-.84.42-.16.81-.16,1.23-.03.39.13.81.42,1.04.84.49.78.91,1.56,1.36,2.31.45.26.91.55,1.46.91,3.67,2.14,7.21,4.29,10.65,6.46-2.21-3.44-4.38-7.05-6.56-10.75,0,0-.39-.65-.75-1.3Z"/>
    </g>
  </g>
</svg>