<?xml version="1.0" encoding="UTF-8"?>
<svg id="Layer_2" data-name="Layer 2" xmlns="http://www.w3.org/2000/svg" viewBox="0 0 45.38 45.39">
  <g id="Layer_1-2" data-name="Layer 1">
    <path d="M45.38,22.66c0,.24,0,.47-.01.71-.34,11.82-9.89,21.5-21.71,22-10.51.44-19.56-6.33-22.58-15.76-.29-.9-.52-1.82-.7-2.76-.11-.61-.2-1.23-.26-1.86h7.52c1.4,0,2.74-.56,3.73-1.55l13.49-13.48c1.68-1.69,4.5-1.41,5.85.98.58,1.02.5,2.3-.13,3.3l-7.22,11.51s0,.02,0,.01l9.78-9.78c1.47-1.47,3.26-2.49,5.2-3.01.01,0,.01-.01.01-.01-3.26-5.23-9.06-8.71-15.67-8.71C12.52,4.25,4.24,12.52,4.24,22.7c0,.36.01.71.03,1.07H.03c-.02-.35-.03-.71-.03-1.07C0,10.19,10.18,0,22.69,0c8.88,0,16.58,5.13,20.31,12.57.44.88.82,1.79,1.14,2.73.05.14.1.28.15.43.1.28.18.58.26.87.08.3-.14.59-.45.59h-2.72c-.35,0-.71.03-1.05.09-.29.05-.88.17-1.15.27-1.03.33-1.97.91-2.76,1.7l-16.2,16.2c-.68.69-1.59,1.06-2.55,1.06-1.31,0-2.52-.71-3.16-1.86-.63-1.15-.59-2.56.1-3.67l7.11-11.33s0-.01-.01-.01l-6.94,6.94c-1.94,1.94-4.57,3.03-7.32,3.03h-1.15c-.33,0-.57.35-.43.65,3.02,6.71,9.95,11.29,17.86,10.86,9.77-.54,17.5-8.8,17.42-18.59-.02-1.41-.19-2.79-.51-4.11h.01s4.33-.01,4.33-.01c.27,1.38.4,2.8.4,4.25Z"/>
  </g>
</svg>