<?xml version="1.0" encoding="UTF-8"?>
<svg id="Layer_2" data-name="Layer 2" xmlns="http://www.w3.org/2000/svg" viewBox="0 0 36.81 99.9">
  <g id="Layer_1-2" data-name="Layer 1">
    <path d="M36.74,41.98c.06-.59.11-1.2.04-1.81,0-.15-.06-.35-.17-.45-.08-.07-.17-.1-.25-.12-.07-.22-.27-.36-.46-.47-.79-.43-3.1-1.4-4.28-1.79l3.74-.47c.25-.03.44-.24.44-.5V12.17c0-.13-.05-.24-.14-.33.05-.14.04-.3-.04-.43L28.51.23c-.1-.16-.28-.26-.48-.23L2.06,2.96c-.17.02-.32.12-.39.28-.07.14-.06.3,0,.44-.21.07-.35.25-.35.47v4.78c-.01,6.24-.02,12.69.1,19.03,0,.09.03.17.07.24l5.36,9.1-5.16,2.48c-.16.08-.25.24-.27.41-.07.02-.14.04-.22.1-.14.11-.21.27-.2.48-.06.53,0,1.05.04,1.56.03.27.05.53.06.78.06,2.98.04,6.02.01,8.96-.03,3.31-.06,6.73.04,10.1,0,.19.12.37.3.44l3.56,1.54s-.01.01-.02.02l-4.72,7.93c-.06.1-.07.22-.05.34-.12.08-.2.2-.22.35-.06.48,0,.96.04,1.41.03.23.05.46.06.68.08,3.22.05,6.5.02,9.67-.04,3.83-.08,7.79.09,11.69.01.24.2.44.44.47l25.44,3.17s.04,0,.06,0c.12,0,.24-.04.33-.13.11-.09.17-.23.17-.37v-.1c.18,0,.34-.09.43-.25l6.41-11.36c.04-.07.06-.16.06-.24.03-3.84.03-7.69.03-11.53,0-2.62,0-5.24,0-7.83l.09-3.53c0-.22-.13-.41-.33-.48.04-.14.03-.28-.05-.41-.01-.02-.04-.03-.05-.04l3.11-1.52c.17-.08.28-.25.28-.44.06-3.16.03-6.37,0-9.47-.03-3.04-.05-6.19,0-9.28,0-.31.04-.62.07-.93ZM34.78,35.94l-25.24,3.19c-.01-2.26,0-4.52,0-6.78,0-2.52.02-5.04,0-7.56,0-.16-.03-.31-.06-.47-.02-.1-.04-.2-.04-.31-.01-1.48,0-2.96,0-4.44,0-1.29.01-2.58,0-3.88l25.33-2.95v23.21ZM27.84,1.03l6.5,10.23-25.16,2.93L2.95,3.86,27.84,1.03ZM6.96,38.37l1.07,1.91c.04.07.09.13.16.17l.24.16c.1.07.22.1.34.08l21.58-2.58c.2-.02.37.02.62.09.7.18,2.74,1.01,3.88,1.54l-15.36,7.34-16.34-6.87,3.82-1.84ZM5.65,65.07l13.75,5.74c.13.06.29.05.41-.01l12-5.95-5.87,10.14-24.39-3.02,4.1-6.9ZM32.61,68.07c0,2.6,0,5.22,0,7.84,0,3.8,0,7.61-.02,11.4l-5.41,9.59v-20.98l5.48-9.43-.04,1.58ZM35.74,41.89c-.03.34-.06.68-.07,1.01-.06,3.1-.03,6.26,0,9.31.03,3,.05,6.09,0,9.14l-15.43,7.55v-20.42l15.57-7.66c0,.35-.03.71-.07,1.08Z"/>
  </g>
</svg>