<?xml version="1.0" encoding="UTF-8"?>
<svg id="Layer_2" data-name="Layer 2" xmlns="http://www.w3.org/2000/svg" viewBox="0 0 45.33 40.19">
  <g id="Layer_1-2" data-name="Layer 1">
    <path d="M44.85,24.37L31.8,1.77c-.64-1.11-1.78-1.77-3.06-1.77s-2.42.66-3.06,1.77l-3.02,5.23-3.02-5.23c-.64-1.11-1.78-1.77-3.06-1.77s-2.42.66-3.06,1.77L.48,24.37c-.64,1.11-.64,2.43,0,3.53s1.78,1.77,3.06,1.77h6.04l-3.02,5.23c-.64,1.11-.64,2.43,0,3.53.64,1.11,1.78,1.77,3.06,1.77h26.09c1.28,0,2.42-.66,3.06-1.77s.64-2.43,0-3.53l-3.02-5.23h6.04c1.28,0,2.42-.66,3.06-1.77.64-1.11.64-2.43,0-3.53ZM3.54,27.67c-.55,0-1.05-.29-1.33-.77-.28-.48-.28-1.05,0-1.53L15.26,2.77c.28-.48.77-.77,1.33-.77s1.05.29,1.33.77l6.08,10.53h0s5.67,9.83,5.67,9.83h-2.93l-1.41-2.44h0s-.02-.04-.02-.04l-.08-.14h0s-6.07-10.51-6.07-10.51c-.54-.93-1.49-1.48-2.56-1.48s-2.03.55-2.56,1.48l-6.17,10.69c-.54.93-.54,2.03,0,2.96.54.93,1.49,1.48,2.56,1.48h1.78l-1.47,2.54H3.54ZM26.44,13.53l1.47-2.54c.25-.43.67-.48.83-.48s.58.05.83.48l6.17,10.69c.25.44.08.82,0,.96-.08.14-.33.48-.83.48h-2.94l-5.54-9.59ZM21.83,21.52l.83-1.44.92,1.6h0s0,0,0,0h0s.83,1.44.83,1.44h-3.52l.82-1.42h0s.11-.18.11-.18h0ZM18.89,13.54l-5.53,9.59h-2.94c-.5,0-.75-.34-.83-.48s-.25-.53,0-.96l6.17-10.69c.25-.43.66-.48.83-.48s.58.05.83.48l1.47,2.54ZM37.04,35.89c.28.48.28,1.05,0,1.53s-.77.77-1.33.77H9.62c-.55,0-1.05-.29-1.33-.77-.28-.48-.28-1.05,0-1.53l6.51-11.27h0s5.25-9.09,5.25-9.09l1.47,2.54-1.51,2.62.87.5-.87-.5-6.07,10.51c-.54.93-.54,2.04,0,2.96s1.49,1.48,2.56,1.48h12.34c1.07,0,2.03-.55,2.56-1.48.54-.93.54-2.04,0-2.96l-.89-1.54h2.94l3.6,6.23ZM17.13,29.67h11.07l1.47,2.54c.25.44.08.82,0,.96-.08.14-.33.48-.83.48h-12.34c-.5,0-.75-.34-.83-.48-.08-.15-.25-.53,0-.96l1.47-2.54ZM43.12,26.9c-.28.48-.77.77-1.33.77h-23.51l1.47-2.54h15.16c1.07,0,2.03-.55,2.56-1.48.54-.93.54-2.03,0-2.96l-6.17-10.69c-.54-.93-1.49-1.48-2.56-1.48s-2.03.55-2.57,1.48l-.89,1.54-1.47-2.54,3.6-6.23c.28-.48.77-.77,1.33-.77s1.05.29,1.33.77l13.05,22.6c.28.48.28,1.05,0,1.53Z"/>
  </g>
</svg>