<?xml version="1.0" encoding="UTF-8"?>
<svg id="Layer_2" data-name="Layer 2" xmlns="http://www.w3.org/2000/svg" viewBox="0 0 43.91 43.39">
  <g id="Layer_1-2" data-name="Layer 1">
    <path d="M20.74,3.11v8.12c0,1.25-.73,2.43-1.91,2.86-2.98,1.07-5.27,3.64-5.85,6.91-.27,1.53-1.58,2.65-3.09,2.65h-1c-2.18,0-3.64,2.18-2.89,4.23,1.82,4.99,5.92,8.89,11.04,10.43,1.95.59,3.9-.96,3.9-3v-3.28c0-1.21-.69-2.33-1.8-2.8-3.02-1.28-5-4.55-4.22-8.18.57-2.65,2.69-4.82,5.33-5.42,4.71-1.07,8.88,2.48,8.88,7,0,2.98-1.82,5.51-4.41,6.6-1.1.46-1.78,1.6-1.78,2.8v3.28c0,2.04,1.95,3.59,3.9,3,5.12-1.55,9.22-5.44,11.04-10.43.75-2.05-.71-4.23-2.89-4.23h-1c-1.51,0-2.82-1.12-3.09-2.65-.58-3.27-2.87-5.83-5.85-6.91-1.18-.42-1.91-1.61-1.91-2.86V3.11c0-2,1.86-3.48,3.81-3.03,9.6,2.25,16.79,10.81,16.93,21.04.16,11.76-9.38,21.83-21.14,22.25C10.29,43.83,0,33.82,0,21.43,0,11.08,7.21,2.39,16.88.1c1.97-.47,3.87.99,3.87,3.01Z"/>
  </g>
</svg>