<?xml version="1.0" encoding="UTF-8"?>
<svg id="Layer_2" data-name="Layer 2" xmlns="http://www.w3.org/2000/svg" viewBox="0 0 29.62 38.84">
  <g id="Layer_1-2" data-name="Layer 1">
    <g>
      <path d="M12.48,12.94c.61,0,1.13-.45,1.21-1.06l.82-6.33h.03l.82,6.33c.08.61.59,1.06,1.21,1.06h1.05c.59,0,1.1-.43,1.2-1.01l1.46-8.56c.13-.74-.45-1.42-1.2-1.42h-.23c-.62,0-1.15.47-1.21,1.09l-.66,6.51h-.03l-.97-6.57c-.09-.6-.6-1.04-1.2-1.04h-.47c-.61,0-1.12.45-1.21,1.05l-.89,6.55h-.03l-.74-6.53c-.07-.61-.59-1.08-1.21-1.08h-.24c-.75,0-1.33.68-1.2,1.42l1.46,8.56c.1.58.61,1.01,1.2,1.01h1.05Z"/>
      <path d="M7.88,24.77c.42-.16.76-.38,1.02-.67.26-.29.45-.63.58-1.03.12-.4.18-.84.18-1.31,0-.29-.04-.57-.12-.85-.08-.28-.2-.54-.36-.78-.16-.24-.38-.43-.63-.59s-.56-.25-.92-.28v-.03c.31-.06.57-.17.79-.32.22-.15.39-.34.53-.56.14-.22.24-.47.31-.74.07-.27.1-.55.1-.84,0-.83-.24-1.5-.73-1.99-.49-.5-1.24-.75-2.27-.75h-3.11c-.67,0-1.22.54-1.22,1.22v8.56c0,.67.54,1.22,1.22,1.22h3.11c.59,0,1.1-.08,1.52-.24ZM4.89,16.08h.69c.3,0,.52.11.68.34.15.23.23.49.23.8s-.08.56-.23.78c-.15.22-.38.33-.68.33h-.69v-2.25ZM4.89,22.95v-2.68h.8c.27,0,.5.11.71.34.21.23.31.55.31.99,0,.46-.1.8-.31,1.02-.21.22-.44.33-.71.33h-.8Z"/>
      <path d="M19.74,23.8c0,.67.54,1.22,1.22,1.22h3.11c.6,0,1.1-.08,1.52-.24.42-.16.76-.38,1.02-.67.26-.29.45-.63.58-1.03.12-.4.18-.84.18-1.31,0-.29-.04-.57-.12-.85-.08-.28-.2-.54-.36-.78-.16-.24-.37-.43-.63-.59-.26-.16-.56-.25-.92-.28v-.03c.31-.06.57-.17.79-.32.22-.15.39-.34.53-.56.14-.22.24-.47.31-.74.07-.27.1-.55.1-.84,0-.83-.24-1.5-.73-1.99-.49-.5-1.25-.75-2.27-.75h-3.11c-.67,0-1.22.54-1.22,1.22v8.56ZM22.6,16.08h.69c.3,0,.52.11.68.34.15.23.23.49.23.8s-.08.56-.23.78c-.15.22-.38.33-.68.33h-.69v-2.25ZM22.6,20.27h.8c.27,0,.5.11.71.34.21.23.31.55.31.99,0,.46-.1.8-.31,1.02-.21.22-.44.33-.71.33h-.8v-2.68Z"/>
      <path d="M0,1.22v36.41c0,.67.54,1.22,1.22,1.22h27.18c.67,0,1.22-.54,1.22-1.22V1.22c0-.67-.54-1.22-1.22-1.22H1.22C.54,0,0,.54,0,1.22ZM27.91,38.35h-10.75c-.67,0-1.22-.54-1.22-1.22v-19.47c-.01-.67.53-1.22,1.2-1.22h.58c.67,0,1.22-.54,1.22-1.22h0c0-.67-.54-1.22-1.22-1.22h-6.6c-.67,0-1.22.54-1.22,1.22h0c0,.67.54,1.22,1.22,1.22h.73c.67,0,1.22.54,1.22,1.22v19.47c.01.67-.53,1.22-1.2,1.22H1.7c-.67,0-1.22-.54-1.22-1.22V1.7C.49,1.03,1.03.49,1.7.49h26.21c.67,0,1.22.54,1.22,1.22v35.44c0,.67-.54,1.22-1.22,1.22Z"/>
    </g>
  </g>
</svg>