<?xml version="1.0" encoding="UTF-8"?>
<svg id="Layer_2" data-name="Layer 2" xmlns="http://www.w3.org/2000/svg" viewBox="0 0 43.3 61.44">
  <g id="Layer_1-2" data-name="Layer 1">
    <path d="M43.3,24.44l-.09-.14-.08-.14-11.2,6.1-5.39-3.3,13.1-14.33-14.65,13.39-.54-.33c-1.34-.81-2.16-2.26-2.2-3.83l-.47-21.85h-.33l-.55,21.85c-.04,1.57-.87,3-2.22,3.83l-.38.24L3.75,12.61l13.01,14.23-5.4,3.28L.35,24.09l-.08.13-.09.14,10.28,6.29L0,37l.16.29,11.2-6.1,5.26,3.23-12.86,14.08,14.4-13.15.68.42c1.35.81,2.18,2.26,2.2,3.83l.49,21.85h.33l.55-21.85c.04-1.57.87-3,2.22-3.83l.66-.39,14.37,13.13-12.84-14.06,5.14-3.12,11,6.03.08-.13.08-.14-10.28-6.29,10.48-6.35ZM32.26,30.45l4.92-2.67-4.67,2.83-.25-.16ZM21.92,21.86c.04,1.69.92,3.23,2.36,4.1l.45.28,1.59.96,5.28,3.24.16.09.17.1.26.16.16.1.16.09,4.48,2.74-4.72-2.6-.17-.09-.17-.09-.29-.16-.18-.09-.17-.1-5.38-2.95-1.7-.93-.26-.14c-.75-.41-1.56-.62-2.39-.62s-1.61.21-2.36.6l-.12.07-1.69.92-5.39,2.94-.17.09-.17.09-.29.16-.16.09-.18.09-4.9,2.67,4.65-2.82.17-.1.16-.09.26-.16.16-.1.16-.09,5.3-3.21,1.57-.96.3-.18c1.44-.88,2.33-2.41,2.37-4.09l.37-14.88.33,14.88ZM24.62,29.04c.28.49.43,1.05.43,1.64,0,.52-.12,1.02-.34,1.47-.29.62-.76,1.14-1.35,1.48-.51.3-1.1.47-1.73.47s-1.17-.16-1.65-.42c-.59-.34-1.08-.84-1.39-1.44-.25-.46-.38-1-.38-1.56,0-.63.17-1.22.47-1.72.34-.59.85-1.06,1.47-1.36.45-.22.94-.34,1.48-.34.56,0,1.1.13,1.56.38.62.31,1.11.8,1.43,1.4ZM23.44,27.4c-.54-.3-1.15-.47-1.81-.47s-1.22.16-1.73.43l-.56-.51h.01c1.39-.76,3.04-.76,4.43,0l.17.09-.51.46ZM18.45,28.7c-.35.58-.56,1.26-.56,1.98,0,.66.17,1.28.47,1.82l-.88.97-5.14-2.82,5.27-2.87.84.92ZM19.73,33.91c.55.34,1.21.52,1.9.52s1.4-.21,1.98-.58l.63.58-.31.17c-1.38.75-3.03.75-4.42-.01l-.33-.18.55-.5ZM24.95,32.43c.28-.52.43-1.11.43-1.74,0-.69-.18-1.34-.52-1.9l.81-.89,5.27,2.9-5,2.71-1-1.08ZM10.79,30.46l-4.48-2.74,4.72,2.6-.24.14ZM21.36,39.59c-.03-1.68-.92-3.23-2.36-4.1l-.59-.37-1.56-.96-5.15-3.15.3-.17,5.24,2.88,1.68.92.43.24c1.48.81,3.25.81,4.73.01l.41-.22,1.68-.92,5.13-2.78.31.17-5.04,3.06-1.56.94-.58.35c-1.44.88-2.33,2.41-2.37,4.09l-.38,14.88-.33-14.88Z"/>
  </g>
</svg>