<?xml version="1.0" encoding="UTF-8"?>
<svg id="Layer_2" data-name="Layer 2" xmlns="http://www.w3.org/2000/svg" viewBox="0 0 64.34 16.81">
  <g id="Layer_1-2" data-name="Layer 1">
    <g>
      <path d="M52.12,3.25c-.4-.31-.94-.51-1.48-.51H13.67c-.54,0-1.08.2-1.48.51l-7.65,6.11c-1.74,1.4-.74,4.22,1.48,4.22h13.1c.54,0,1.06-.17,1.48-.51l10.05-8.02c.89-.69,2.11-.69,2.97,0l10.08,8.02c.43.34.94.51,1.48.51h13.1c2.23,0,3.23-2.83,1.48-4.22l-7.65-6.11Z"/>
      <path d="M30.2,8.45c-2.34,1.86-1.03,5.62,1.97,5.62,1.91,0,3.17-1.57,3.17-3.2,0-.86-.4-1.74-1.2-2.4-1.14-.94-2.8-.94-3.94-.03Z"/>
      <path d="M60.34,0H3.97C1.78,0,0,1.79,0,4v8.82c0,2.2,1.78,4,3.97,4h56.37c2.2,0,3.99-1.79,3.99-4V4c0-2.2-1.79-4-3.99-4ZM63.77,12.82c0,1.88-1.54,3.43-3.42,3.43H3.97c-1.88,0-3.4-1.54-3.4-3.43V4C.57,2.11,2.08.57,3.97.57h56.37c1.88,0,3.42,1.54,3.42,3.43v8.82Z"/>
    </g>
  </g>
</svg>