<?xml version="1.0" encoding="UTF-8"?>
<svg id="Layer_2" data-name="Layer 2" xmlns="http://www.w3.org/2000/svg" viewBox="0 0 44.62 37.95">
  <g id="Layer_1-2" data-name="Layer 1">
    <g>
      <polygon points="0 34.9 13.93 34.9 13.93 30.68 4.12 30.68 4.12 7.34 13.93 7.34 13.93 3.12 0 3.12 0 34.9"/>
      <polygon points="31.36 3.12 31.36 7.34 40.5 7.34 40.5 30.68 31.36 30.68 31.36 34.9 44.62 34.9 44.62 3.12 31.36 3.12"/>
      <path d="M28.16,18.47c.46-.58.84-1.22,1.11-1.92.3-.78.46-1.6.46-2.44v-.87c0-1.2-.29-2.32-.86-3.34-.58-1.02-1.36-1.83-2.34-2.42-.61-.37-1.29-.6-2.14-.74V0h-4.22v6.74c-.85.14-1.54.38-2.15.74-.98.58-1.77,1.4-2.36,2.42-.59,1.02-.88,2.14-.88,3.34v.87c0,.83.16,1.65.46,2.44.27.69.65,1.34,1.14,1.92-.57.57-1.03,1.24-1.37,2-.38.83-.56,1.74-.56,2.71v1.56c0,1.2.29,2.32.88,3.34.58,1.01,1.37,1.83,2.36,2.44.72.44,1.56.71,2.49.81v6.62h4.22v-6.62c.94-.11,1.75-.38,2.48-.81.98-.61,1.77-1.43,2.34-2.44.57-1.03.86-2.15.86-3.34v-1.56c0-.96-.18-1.87-.55-2.71-.33-.77-.79-1.44-1.36-2.01ZM19.25,26.52c-.47-.49-.7-1.07-.7-1.77v-1.56c0-.67.23-1.25.68-1.71.45-.46,1-.69,1.68-.69h2.71c.65,0,1.2.23,1.65.69.45.46.67,1.02.67,1.71v1.56c0,.7-.22,1.28-.67,1.76-.45.47-1,.7-1.65.7h-2.72c-.66.02-1.19-.2-1.65-.69ZM24.93,11.5c.45.46.67,1.03.67,1.74v.87c0,.68-.22,1.25-.67,1.72-.46.47-.99.7-1.64.7h-2.16c-.63-.02-1.14-.25-1.58-.71-.43-.46-.64-1.04-.64-1.71v-.87c0-.68.22-1.24.68-1.72.45-.47,1-.7,1.68-.7h2.03c.66,0,1.19.23,1.65.69Z"/>
    </g>
  </g>
</svg>