<?xml version="1.0" encoding="UTF-8"?>
<svg id="Layer_2" data-name="Layer 2" xmlns="http://www.w3.org/2000/svg" viewBox="0 0 34.01 37.93">
  <g id="Layer_1-2" data-name="Layer 1">
    <path d="M33.96,22.74l-2.13-6.87c-.26-.86-.48-1.8-.67-2.91C29.79,5.16,22.75-.42,14.81.02,6.74.48.23,7.16,0,15.24c-.13,4.28,1.43,8.33,4.4,11.38,1.13,1.18,2.41,2.15,3.79,2.91l-4,8.19,22.85.21-3.26-6.5h4.48c1.72,0,3.11-1.4,3.11-3.11v-3.57c0-.47.38-.84.86-.84h.88c.29,0,.55-.14.73-.36.16-.24.21-.54.13-.8ZM24.07,23.88s0,.01-.01.01c-5.27-2.94-6.84-2.23-8.56,3.58-1.09-3.63-2.11-5.27-4.01-5.27-1.13,0-2.59.59-4.58,1.71,2.98-5.24,2.29-6.82-3.53-8.6,3.63-1.06,5.27-2.06,5.27-3.96,0-1.13-.58-2.57-1.66-4.51-.01-.03.01-.05.04-.04,5.17,2.97,6.73,2.24,8.48-3.58,1.71,5.82,3.28,6.55,8.48,3.6.03-.01.05.01.04.03-2.93,5.23-2.2,6.79,3.6,8.48-5.82,1.79-6.53,3.36-3.53,8.56Z"/>
  </g>
</svg>