<?xml version="1.0" encoding="UTF-8"?>
<svg id="Layer_2" data-name="Layer 2" xmlns="http://www.w3.org/2000/svg" viewBox="0 0 33.88 28.71">
  <defs>
    <style>
      .cls-1 {
        fill: #231f20;
        fill-rule: evenodd;
      }
    </style>
  </defs>
  <g id="Layer_1-2" data-name="Layer 1">
    <path class="cls-1" d="M33.17,10.88c-.62-.25-1.24-.5-1.86-.74-1.87-.75-3.74-1.5-5.61-2.24,1.08-1.25,2.16-2.5,3.23-3.74,0-.03,0-.07.01-.1-.03-.02-.06-.05-.09-.07-.2-.07-1.62.23-1.91.29-1.61.26-3.22.51-4.84.77.25-.87.5-1.75.74-2.62.13-.42.39-.93.38-1.41-.03-.02-.06-.05-.09-.07-.02,0-.05,0-.07-.01-.37.36-.66.82-.98,1.24-.54.68-1.08,1.37-1.62,2.05-.29.37-.57.74-.86,1.11,0,0,0,.02-.01.03-.64-1.33-1.28-2.66-1.92-3.99-.14-.27-.47-1.23-.68-1.34-.03,0-.06,0-.09-.01-.02.03-.05.06-.07.09-.07.2.11,1.01.16,1.25.15,1.09.3,2.18.45,3.26-1.85-.74-3.71-1.48-5.56-2.21-.58-.23-1.17-.47-1.75-.7-.22-.09-.45-.26-.73-.26-.05.05-.07.05-.09.15,1.15,1.66,2.3,3.31,3.45,4.97,0,0,.02.02.03.03-4.24.69-8.48,1.38-12.72,2.07-.07.03-.09.06-.09.16.19.2.59.25.87.35.62.21,1.24.43,1.86.64,2.51.87,5.01,1.74,7.52,2.61.67.22,1.33.45,2,.67.43.15.72.34,1.21.2-2.88,3.72-5.77,7.45-8.65,11.17-.79,1.02-1.58,2.04-2.37,3.06-.17.23-.81.86-.83,1.14.03.02.06.05.09.07.16.06,1.04-.72,1.21-.84,1.2-.92,2.4-1.85,3.6-2.77,3.13-2.41,6.26-4.82,9.39-7.22,1.12-2.08,2.23-4.17,3.35-6.25,0,0,0-.02.01-.03.71,2.13,1.42,4.26,2.13,6.39,1.67,1.8,3.35,3.59,5.03,5.39.81.87,1.61,1.74,2.42,2.61.17.22.73.9.95,1.01.03,0,.06,0,.09.01.18-.2-.14-.66-.25-.87-.39-.82-.79-1.64-1.18-2.46-1.65-3.41-3.29-6.83-4.94-10.24.18.09.91.52,1.09.48,2.23-.62,4.46-1.23,6.69-1.85.6-.17,1.2-.33,1.81-.5.27-.08.58-.11.79-.25,0-.04,0-.08.01-.12-.17-.17-.48-.22-.71-.32ZM28.42,4.28h.06c-1.02,1.17-2.04,2.33-3.06,3.5-1.77-.7-3.54-1.41-5.32-2.11,0,0,0-.02-.01-.03,2.78-.45,5.55-.9,8.33-1.35ZM22.78,1.68c-.32,1.14-.63,2.27-.95,3.41-.65.11-1.29.21-1.94.32.96-1.24,1.92-2.49,2.88-3.73ZM17.2.95c.7,1.47,1.41,2.93,2.11,4.4-.53-.21-1.06-.42-1.59-.63-.17-1.26-.35-2.52-.52-3.77ZM9.82,1.84c3.08,1.23,6.17,2.46,9.25,3.69-.11.1-1.35.22-1.62.28-1.45.24-2.9.48-4.36.71-1.09-1.56-2.18-3.12-3.28-4.68ZM13.2,13.08c-.19.05-.75-.22-.95-.29-.82-.28-1.63-.56-2.45-.84-3.05-1.04-6.1-2.09-9.15-3.13,6.18-1.01,12.36-2.02,18.54-3.03h.07c-1.38,1.77-2.76,3.54-4.14,5.32-.46.6-.91,1.19-1.37,1.79-.19.06-.38.13-.57.19ZM19.15,11.23c-.45.83-.9,1.66-1.35,2.49-.71,1.34-1.42,2.67-2.13,4.01-4.4,3.38-8.81,6.77-13.21,10.15,5.65-7.29,11.3-14.58,16.95-21.86-.03.68-.07,1.36-.1,2.04-.05,1.06-.11,2.12-.16,3.18ZM29.34,26.16c-1.1-1.18-2.19-2.37-3.29-3.55-1.48-1.59-2.96-3.18-4.44-4.76-.73-2.19-1.46-4.38-2.18-6.57.09-1.71.17-3.43.26-5.14.18.13.6,1.24.74,1.51.66,1.37,1.32,2.75,1.98,4.12,2.31,4.8,4.62,9.59,6.93,14.39ZM31.11,11.83c-1.68.46-3.36.92-5.04,1.38-.52.14-1.05.28-1.57.42-.23-.12-.47-.23-.7-.35-.16-.07-.32-.15-.48-.22-1.16-2.41-2.31-4.82-3.47-7.22,4.5,1.79,8.99,3.58,13.49,5.37-.74.2-1.49.41-2.23.61Z"/>
  </g>
</svg>