<?xml version="1.0" encoding="UTF-8"?>
<svg id="Layer_2" data-name="Layer 2" xmlns="http://www.w3.org/2000/svg" viewBox="0 0 59.62 45">
  <g id="Layer_1-2" data-name="Layer 1">
    <path d="M33.93,44.78c-.73.37-1.22.27-1.81-.27-.34-.3-2.23-2.54-2.41-2.88-.79-1.52.43-1.73,1.2-2.62,1.35-1.57,1.75-3.31,2.88-4.86.98-1.34,2.42-2.13,3.12-3.81.32-.77,1.44-4.91,1.48-5.65.04-.63-.31-1.34-.35-1.99-.19-2.82,2.16-6.26,2.42-9.39.04-.45.16-1-.29-1.3-2.52,1.11-4.92,2.35-7.02,4.17-1.1,1.58-2.4,2.73-4.42,1.78-.57-.27-.65-.89-1.4-1.25-1.82-.87-4.28-.62-5.89-2.07-2.85,1.2-2.44,4.59-3.25,7.16.56,1.07,1.5,2.18,2.05,3.22.5.95,1.99,4.05,2.19,4.94.71,3.18.43,7.21,1.94,10.28,1.01,2.07,3.06,1.09,3.71,3.01-.49,1.34-1.43.72-2.34.71-.78,0-2.72.23-3.18-.28-.65-.73-.14-1.37-.18-2.04-.15-2.1-2.03-4.44-2.53-6.66-.74-3.27.17-2.98-2.05-5.89-.53-.69-1.36-2.81-2.46-1.82-.2.18-2,3.16-2.38,3.73s-.39,1.36-1.08,1.77l-7.97,4.35c-1.55,1.54-1.09,3.49-1.51,5.41-1.14.15-1.3-.4-1.62-1.3-.25-.71-.94-3.85-.7-4.38.34-.74,1.79-.85,2.53-1.34,1.19-.8,2.38-2.61,3.58-3.55,1.03-.81,2.81-1.22,3.44-2.05.27-.35,2-4.9,2.1-5.43.37-1.98-.34-2.7.9-4.8s1.92-2.14,2.18-4.95c.08-.88.39-3.19-.67-3.13-.42.02-4.77,3.14-5.32,3.66-1.69,1.59-1.48,4.77-4.28,3.67-.87-2.54.94-3.07,2.35-4.38,2.7-2.51,4.7-4.73,7.96-6.71.55-.33,2.22-.92,2.44-1.22.65-.91-.26-2.07-.38-2.92-.45-3.09,3.86-4.47,5.15-1.47.56,1.32.85,2.85.07,4.14-.7,1.17-2.22.69-1.71,2.58,1.14,4.15,7.19,5.95,11.01,5.5,1.3-.16,2.97-2.2,4.07-3.06,1.43-1.11,3.31-2.59,4.8-3.55,1.1-.7,3.03-.92,3.05-2.66,0-1.24-.96-1.48-.37-3.22.94-2.74,4.01-2.53,5.08-.09.57,1.29.83,2.95.05,4.2-.67,1.06-3.47,1.38-1.01,3.48,1.99,1.7,5.05,1.69,7.52,1.4,1.67-.2,2.54-1.53,4.27-.15.63.51.91.97.65,1.81-.46,1.47-2.52.55-3.67.6-1.59.07-3.76,1.05-5.31,1.04-.92,0-2.68-1.21-3.37-.74-.28.19-2.58,5.58-2.74,6.22-.69,2.77.52,2.63,1.9,4.62,1.05,1.52,2.78,4.47,2.68,6.27-.16,2.92-1.36,6.23-.72,9.28.48,2.29,3.08,2.18,3.48,2.84.57.93-.53,1.67-1.41,1.62-1-.54-3.88-.22-4.49-1.01-.33-.43.18-3.36.09-4.36-.12-1.29-.83-3.01-.83-4.28s.7-2.6.38-4.03c-.11-.49-2.52-3-2.91-3-.27,0-.47.2-.6.43l-2.06,4.46c-1.71,1.95-3.92,3.66-5.6,5.6-1.21,1.4-2.22,2.79-1.26,4.73.32.64,1.17.9.83,1.86Z"/>
  </g>
</svg>