<?xml version="1.0" encoding="UTF-8"?>
<svg id="Layer_2" data-name="Layer 2" xmlns="http://www.w3.org/2000/svg" viewBox="0 0 42.86 42.86">
  <g id="Layer_1-2" data-name="Layer 1">
    <g>
      <path d="M21.48,0l-8.82,8.82,3.49,3.5,2.82-2.82v8.36h.3c.52-.01,2.87,0,4.46.01h.18v-8.46l2.9,2.91,3.49-3.5L21.48,0ZM26.81,11.82l-3.26-3.26v8.96c-.6-.01-1.13-.01-1.58-.02V4.73l5.96,5.96-1.12,1.13ZM21.48,2.74l-7.2,7.2-1.12-1.12L21.48.5l8.32,8.32-1.12,1.13-7.2-7.21Z"/>
      <path d="M26.72,30.55l-2.82,2.82v-8.37h-.3c-.53.02-2.87.01-4.46-.01h-.18v8.47l-2.9-2.91-3.49,3.49,8.82,8.82,8.82-8.82-3.49-3.49ZM16.06,31.05l3.25,3.26v-8.96c.61,0,1.14.01,1.59.01v12.78l-5.97-5.97,1.13-1.12ZM13.06,34.04l1.13-1.12,7.2,7.2,7.2-7.2,1.12,1.12-8.32,8.32-8.33-8.32Z"/>
      <path d="M17.88,18.96h-8.47l2.91-2.9-3.49-3.5L0,21.38l8.83,8.83,3.49-3.5-2.82-2.81h8.37v-.31c-.02-.52-.01-2.87,0-4.45v-.18ZM8.83,29.71L.5,21.38l8.33-8.32,1.12,1.13-7.2,7.19,7.2,7.21-1.12,1.12ZM8.65,23.55l3.17,3.16-1.12,1.13-5.88-5.88h12.68c-.01.86,0,1.33.02,1.59h-8.87Z"/>
      <path d="M34.04,12.66l-3.49,3.49,2.82,2.82h-8.37v.3c.02.52.01,2.87,0,4.46v.17s8.46,0,8.46,0l-2.91,2.91,3.49,3.49,8.82-8.82-8.82-8.82ZM25.37,20.9c0-.86,0-1.32-.02-1.58h8.87l-3.17-3.17,1.12-1.12,5.88,5.87h-12.68ZM32.92,28.68l7.2-7.2-7.2-7.2,1.12-1.12,8.33,8.32-8.33,8.32-1.12-1.12Z"/>
    </g>
  </g>
</svg>