<?xml version="1.0" encoding="UTF-8"?>
<svg id="Layer_2" data-name="Layer 2" xmlns="http://www.w3.org/2000/svg" viewBox="0 0 35.77 50.55">
  <g id="Layer_1-2" data-name="Layer 1">
    <g>
      <path d="M0,35.12v15.03l33.28.4S7.67,46.22,7.67,24.02c0-4.44.66-9.56,5.26-11.7,5.54-2.51,8.53-.48,11.48,1.24,6.19,3.6,10.76,15.7,10.76,36.58,0,0,.6-43.91.6-50.14C18.47,0,0-.48,0,35.12Z"/>
      <path d="M32.45,37.05c0-4.29-3.13-12.69-8.48-14.94-7.08-2.98-12.28,1.71-11.98,7.22.51,9.28,20.21,19.14,23.13,21.22-13.88-13.88-5.39-13.49-2.68-13.49Z"/>
    </g>
  </g>
</svg>