<?xml version="1.0" encoding="UTF-8"?>
<svg id="Layer_2" data-name="Layer 2" xmlns="http://www.w3.org/2000/svg" viewBox="0 0 60.54 37.38">
  <g id="Layer_1-2" data-name="Layer 1">
    <g>
      <path d="M41.34,16.29c-1.97,4.2-6.23,6.9-10.86,6.9s-8.9-2.71-10.87-6.9C16.12,8.89,8.48,4.11.13,4.11h-.13v5.27h1.35c5.1,0,10.87,3.6,13.49,9.16,2.84,6.03,8.97,9.93,15.64,9.93s12.8-3.9,15.63-9.93c2.58-5.48,8.22-9.06,14.43-9.15v-5.27c-8.24.1-15.76,4.86-19.21,12.18Z"/>
      <path d="M49.41,20.09c-3.43,7.3-10.86,12.03-18.93,12.03s-15.5-4.72-18.94-12.03c-2.02-4.29-6.49-7.06-10.19-7.06H0v5.27h.13c2.88,0,5.48,1.58,6.63,4.03,4.3,9.14,13.6,15.05,23.71,15.05s19.41-5.91,23.7-15.05c1.11-2.37,3.59-3.93,6.36-4.03v-5.27c-4.8.1-9.15,2.85-11.13,7.06Z"/>
      <circle cx="30.27" cy="9.86" r="9.86" transform="translate(-1.19 4.98) rotate(-9.22)"/>
    </g>
  </g>
</svg>