<?xml version="1.0" encoding="UTF-8"?>
<svg id="Layer_2" data-name="Layer 2" xmlns="http://www.w3.org/2000/svg" viewBox="0 0 56.05 26.86">
  <defs>
    <style>
      .cls-1 {
        fill-rule: evenodd;
      }
    </style>
  </defs>
  <g id="Layer_1-2" data-name="Layer 1">
    <g>
      <path class="cls-1" d="M26.96,7.92l-2.9-.02c-7.4.03-14.79.03-22.19.06,4.02,2.93,8.02,5.88,12.03,8.83,4.37-2.96,8.71-5.93,13.06-8.88Z"/>
      <path class="cls-1" d="M26.94,7.38s-.03-.03-.03-.06c-3.67-2.44-7.32-4.89-10.97-7.32,1.1,2.46,2.22,4.92,3.32,7.4,2.55,0,5.12-.02,7.69-.02Z"/>
      <path class="cls-1" d="M38.19,3.01c.34-.72.66-1.42.98-2.14.09-.2.34-.69.28-.76-3.58,2.41-7.14,4.83-10.7,7.24v.03c2.52,0,5.03-.02,7.55-.02.63-1.45,1.25-2.9,1.89-4.35Z"/>
      <path class="cls-1" d="M41.72,16.58c3.87-2.89,7.73-5.79,11.6-8.68l-3.18-.02c-7.11.03-14.23.05-21.33.06,4.31,2.87,8.62,5.75,12.91,8.63Z"/>
      <path class="cls-1" d="M28.12,8.14c.05,3.62.06,7.26.09,10.86,2.69,2.61,5.39,5.26,8.08,7.85h19.76c-9.31-6.25-18.63-12.47-27.93-18.72Z"/>
      <path class="cls-1" d="M0,26.86h19.47l8.07-8.04c.02-2.61.03-5.23.05-7.85,0-.46.12-2.6-.06-2.8C18.35,14.41,9.17,20.64,0,26.86Z"/>
    </g>
  </g>
</svg>