<?xml version="1.0" encoding="UTF-8"?>
<svg id="Layer_2" data-name="Layer 2" xmlns="http://www.w3.org/2000/svg" viewBox="0 0 40.91 40.91">
  <g id="Layer_1-2" data-name="Layer 1">
    <g>
      <path d="M28.18,28.01c-10.7,9.52-19.89,10.29-23.09,7.1-1.39-1.39-4.88-4.71-.67-13.9-.38.59-9.04,14.26-1.05,18.78,8.39,4.77,23.97-11.11,24.81-11.98Z"/>
      <path d="M12.9,28.19C3.38,17.49,2.61,8.29,5.81,5.1c1.39-1.39,4.7-4.88,13.89-.67-.59-.38-14.25-9.04-18.78-1.06C-3.85,11.77,12.03,27.35,12.9,28.19Z"/>
      <path d="M12.72,12.91C23.42,3.38,32.62,2.62,35.81,5.81c1.39,1.39,4.89,4.71.68,13.9.38-.59,9.03-14.26,1.05-18.78C29.14-3.84,13.56,12.04,12.72,12.91Z"/>
      <path d="M28,12.73c9.53,10.7,10.29,19.9,7.1,23.09-1.39,1.39-4.7,4.88-13.89.67.59.38,14.25,9.04,18.78,1.06,4.77-8.4-11.12-23.98-11.99-24.82Z"/>
    </g>
  </g>
</svg>