<svg id="Layer_1" data-name="Layer 1" xmlns="http://www.w3.org/2000/svg" viewBox="0 0 2000 2000"><defs><style>.cls-1{fill:#1d1d1b;}</style></defs><path class="cls-1" d="M1202.14,1505.12c-5.62-3.57-7.84-8.38-7.78-15.31.31-39,.15-78-.13-117-.67,14-1.92,28-6.9,41.2-3.65,9.69-9.19,17.8-20.48,20-8.72,1.74-16.45-1.17-23.81-5-15.56-8-23.61-22-29.49-37.77a86.21,86.21,0,0,1-5.39-36.76c.77-10.72,4.31-20.67,8.52-30.25,5.41-12.34,13.72-22.61,26-29,7.45-3.9,15.29-6.59,23.87-5.31,11.77,1.75,17.09,10.47,20.84,20.37,4.84,12.75,6,26.18,6.7,39.68V1122.78c-.47,12.45-2.09,24.74-6.51,36.43-3.68,9.71-9.22,18-20.49,20-9.07,1.6-17.25-1.36-25.13-5.47-15.5-8.1-22.6-22-27.73-38-6.74-20.9-4.55-41.31,2.61-61.23s22.12-31.86,43.16-35.41a20.7,20.7,0,0,1,17.13,4.94c4.87,4.32,9.27,9.51,10.7,16.35,2.45,11.69,4.89,23.38,6.33,30.26V879.19c-1.28,6.41-2.93,17-5.65,27.37-1.32,5-4.37,9.72-7.09,14.3-5.23,8.78-13.74,10.6-23,9.35-14.26-2-25-10.11-34.73-20.24-8.84-9.2-12.54-20.17-13.18-32.49q-.81-15.42-1.28-30.87a13.33,13.33,0,0,1,1-5.69q7.29-16.42,14.93-32.69a12.21,12.21,0,0,1,3.44-4.64c9.52-7.05,19.56-13.54,31.69-14.32,7.52-.49,14.68,1.29,20.15,8,6.82,8.4,9.28,18.27,11.34,28.32,1.33,6.44,1.57,13.1,2,17.1V762.24c-4.45.81-8.42,1.51-12.38,2.25a261.56,261.56,0,0,1-62.11,4.36,315,315,0,0,1-46.56-6.12c-17.13-3.51-33.42-9.41-49.36-16.45-7.35-3.25-14.76-6.4-22.13-9.61a10.25,10.25,0,0,1-2.53-1.36c-3.35-2.78-6.37-6-10-8.38-13.69-8.86-25.6-19.8-37-31.29-3.53-3.56-7.3-5.67-12.33-5.31a2.28,2.28,0,0,1-.74,0c-13.68-4-25.88,1.23-38.38,5.7-13.81,4.94-27.92,9.09-41.87,13.65-11.48,3.76-23.31,3.06-35,2.25-4.69-.32-9.21-3-14.66-4.93a34.76,34.76,0,0,0,2.13,4.35c3.48,5.05,6.75,10.28,10.66,15,4.49,5.39,6.25,11.27,6.16,18.23-.23,18.87-.08,37.75,1.19,57a26.1,26.1,0,0,0,2-3.17c3.45-7.76,9.63-10.58,17.74-8.24,11.12,3.21,19.05,10.62,26,19.41A81.78,81.78,0,0,1,890.42,844c2,9.66,2.69,20.38.59,29.88-4.57,20.7-14,39.34-32.47,51.52-4.29,2.83-9.91,4.35-15.08,4.92-5,.55-9.51-1.95-11.79-7.07a9.1,9.1,0,0,0-3.5-4.37v134.6a34.44,34.44,0,0,0,2.37-4c4.14-9.47,9.75-11.76,19.71-8.87,8.45,2.46,14.69,8,20.24,14.12a85.4,85.4,0,0,1,15.75,25.43,75.25,75.25,0,0,1,5.13,39.6,86.2,86.2,0,0,1-8.07,25.74c-5.08,10.28-11.55,20.06-21.59,26.52a53.7,53.7,0,0,1-11.52,6c-10.5,3.55-15.26,1.18-19.94-9.08a25.11,25.11,0,0,0-2-2.5v138.24c.88-1.84,1.86-3.65,2.65-5.53,3.37-8,9.27-10.86,17.54-8.53a39.51,39.51,0,0,1,14.71,7.89c15.74,13,24.44,30.43,27.9,49.64a79.23,79.23,0,0,1-10.7,56.51c-5.17,8.44-10.52,16.57-18.84,22.19a51.34,51.34,0,0,1-10.79,6c-10.67,3.92-16,1.29-20.45-9.34-.53-1.29-1.22-2.52-1.92-3.92-.51.59-1,.9-1,1.21q.38,35.31.82,70.64c0,2.91-.41,6,4.46,6.44-6.73,1.83-10.46,6.67-14.7,10.83q-18.64,18.3-37.21,36.68a16.81,16.81,0,0,0-4.16,5.89,32.1,32.1,0,0,0,5.3-1.92c10.41-6,22.08-7.89,33.56-10.33a24.22,24.22,0,0,1,8.65.16,135.29,135.29,0,0,1,41.53,14.16,16,16,0,0,0,11.24,1.42c20.67-4,41.33-8.24,62.15-11.38,16.22-2.44,32.63-3.91,49-4.87,9-.52,18.08.9,27.12,1.49,31.15,2,61.65,8.29,92.13,14.52a24.67,24.67,0,0,0,14.3-1.09,252.17,252.17,0,0,1,57.55-14.54c2.66-.35,5.44-.85,8-.43,17.87,2.93,35.93,5.15,52.77,12.49,2.16.94,4.55,1.37,8,2.37l-3.88-6.37c6.82,3.34,12.17,7.73,12.16,16.25q-.06,55.2,0,110.39c0,4.59-1.3,7.67-5.37,10.28-9.28,6-18.28,12.36-27.24,18.8a16.84,16.84,0,0,1-10.89,3.33c-7.35-.2-14.72,0-22.08,0q-187.29,0-374.6.08c-8.77,0-16.05-1.85-23-7.36-8.24-6.53-17.25-12.09-26.33-18.36v-5.67c0-36.31.23-72.62,0-108.92,0-6.92,2.12-11.9,7.07-16.71,16-15.55,31.53-31.61,47.42-47.29a13.08,13.08,0,0,0,4.26-10.31c-.46-38.26-1-76.53-1-114.79-.05-26.49.77-53,.82-79.47.09-54-.12-107.93-.11-161.9,0-31.88.26-63.75.27-95.63q.06-147.56.15-295.12c0-5.85-1.56-10.09-5.73-14.2-16.26-16-32.14-32.38-48.35-48.43a14.31,14.31,0,0,1-4.61-11c.09-36.79.14-73.59-.07-110.38,0-5.57,1.91-9,6.54-11.93,8.88-5.67,17.29-12.07,26.13-17.8a18.51,18.51,0,0,1,8.76-2.79c7.8-.38,15.63-.12,23.48-.12,6.47-14.46,12.58-28.07,18.66-41.69,12.77-28.64,25.42-57.34,38.39-85.89,2.22-4.89,2.51-9.77,3.06-14.89,1.38-12.84-1.19-24.2-10.32-33.75-2-2.1-3.53-4.68-5.63-7.52-15.41,1.54-29.9-1.26-40.76-13.4a40.29,40.29,0,0,1-10.55-28.59l8.7-1.95c.57-2.27,1.11-4.6,1.74-6.91a32.21,32.21,0,0,1,30.62-24,115.56,115.56,0,0,1,11.77-.07c7.73.58,15.43,1.51,24.33,2.41-.13.2.67-.91,1.41-2.06,4-6.21,9.59-9.53,17.07-9.58,8.83-.06,17.66-.32,26.49-.32q106,.08,211.95.18c8.76,0,17.06,1,24.47,6.26a23.8,23.8,0,0,1,9.06,11.15c6,15.53,12.45,30.9,18.61,46.38,1.15,2.88,2.46,4.92,5.83,5.82,33.06,8.79,63.35,23.23,90.26,44.54,5.61,4.44,11.17,8.79,14.67,15.18l-3.53-2.5-.76,1.07,9.32,9.21,1.17-1.17-2.73-3.14c3.38,2.78,7.5,5,10,8.44,9,12.2,17.89,24.51,26,37.31,9.39,14.83,15.14,31.46,18.78,48.44,4.1,19.11,7.1,38.47,6.89,58.24a195.49,195.49,0,0,1-6.78,48.65c-4.94,18.52-12.06,36.27-22.67,52.37A31,31,0,0,0,1352,664q.13,221.53,0,443.09,0,89.07-.12,178.12a124.19,124.19,0,0,1-.39,12.51c-.91,8.68-5.42,13.09-14.15,13.93-3.9.38-7.84.41-11.77.41q-47.1,0-94.21-.13c-2.64,0-5.28-.31-8.32-.5v-7a22.11,22.11,0,0,1,3.65-.64c16.2-.15,32.39-.24,48.58-.36,15.21-.13,30.42-.18,45.63-.46,8.18-.14,9.76-1.75,10.19-10,.3-5.63.29-11.28.29-16.93q0-284.47,0-569V684.5l-1.62-1c-36.5,39-80.73,64.67-133.3,77.88v9.09l0,397.46c0,30.18-.48,60.37.14,90.53.53,26.23,2.63,52.42,3.38,78.64.5,17.38.51,34.83-.43,52.19-1.85,34-3.9,68.08-3,102.21.1,3.58.67,6.69,3.49,9.27C1201.16,1501.8,1201.47,1503.65,1202.14,1505.12Zm143.09-911.8-3.48,5,1.44.69c.62-1.95,1.25-3.91,1.86-5.88l2.42-7.95c4.64-4.54,5.1-10.77,6.67-16.54a167.76,167.76,0,0,0,3.08-75.73,170.28,170.28,0,0,0-29.8-68.9c-24.29-33.7-56.39-56.73-95.1-71-6.06-2.24-12.1-4.54-18.15-6.82,1.23-1.21,2.19-1.45,3-1.18,9.49,3.28,19.31,5.86,28.35,10.1,24.55,11.52,47,26.05,66,45.9,20.51,21.5,35.56,45.89,44,74.51,7.82,26.41,8.81,53,4.18,80a173,173,0,0,1-16.69,50,216.34,216.34,0,0,1-47.25,61.42,237.87,237.87,0,0,1-68.56,43.53,254.81,254.81,0,0,1-106.12,19.79,235,235,0,0,1-58-8.44c-27-7.62-52.41-19.23-74.71-36.76-5-3.93-9.79-8.14-14.78-12.09-.87-.69-2.23-.75-3.74-1.21.27,1.26.22,1.83.48,2.14a52.76,52.76,0,0,0,4,4.33c17.62,16.42,38.09,28.6,60.24,37.42a239.5,239.5,0,0,0,83,17.39c30.42.78,60.13-2.69,89.16-11.94a284.22,284.22,0,0,0,45.19-19.28,220.85,220.85,0,0,0,40.66-27.6c27.18-23,48.21-50.57,61.38-84a179,179,0,0,0,11.65-88.65,174.62,174.62,0,0,0-31.13-80.66,199.86,199.86,0,0,0-58.57-55.05,231.29,231.29,0,0,0-85.51-31.83c-1.85-.3-3.75-.32-6.41-.53-.75,5.89-1.45,11.35-2.19,17.11,3.23.86,5.54,1.5,7.87,2.09,11.84,3,23.84,5.51,35.51,9.1a182.88,182.88,0,0,1,58.48,30.12c8.7,6.72,16.61,14.47,25,21.64,9.83,8.44,16.86,19.18,23.4,30,9.14,15.14,16.4,31.39,19.87,48.81a234.43,234.43,0,0,1,4.19,36.43c.78,19.26-3.52,38-8.38,56.51Q1346.45,589.35,1345.23,593.32Zm-489.79,480c1.43-3.75,3.09-7.42,4.24-11.25,2.67-8.91,2.57-8.94.16-11.52-3.7,7.3-2.94,15.28-4.41,22.81q0,6.93,0,13.87ZM817.07,705.67,808,702.24c2.83,1.91,5.32,5,9.28,3.25.79,4.42,4.44,3.72,7.4,4,15.69,1.46,30.77-1.58,45.46-6.71q68.65-24,137.22-48.25,84.18-29.61,168.37-59.29c16.36-5.81,32.59-11.81,46.41-23.09,13.38-10.93,22-24.06,23.22-41.54a14,14,0,0,0-.73-3.65,17.35,17.35,0,0,0-2.34,7.19c-1,11.77-7.87,20.6-15.46,28.47-11.4,11.81-25.86,19.4-41.2,24.86-54.21,19.29-108.53,38.25-162.8,57.35-52,18.28-103.89,36.67-155.91,54.8C850.85,705.22,834.33,708.54,817.07,705.67Zm414.06-203.6c.81-2.92.39-5.47-2.57-7.27l2.7,7.15a45.31,45.31,0,0,1-3.45,23.73c-6.61,14.84-18.41,25.37-32.42,32.92-9.87,5.32-20.46,9.45-31,13.23-46.34,16.56-92.8,32.81-139.22,49.15-46,16.18-91.88,32.5-137.93,48.41-17.57,6.07-35.28,11.93-53.28,16.47-12.09,3-24.78,3.49-36.44-3.2-1-.6-2.42-.59-3.65-.86a33.7,33.7,0,0,0,19.25,9.56c15.76,2.22,30.8-1.42,45.44-6.41,28.29-9.62,56.34-19.92,84.52-29.83,77.16-27.15,154.38-54.1,231.47-81.43,22-7.81,42.17-18.52,54.38-40,4.7-8.26,5.61-17.09,5.14-26.2C1233.94,505.63,1232.13,503.88,1231.13,502.07ZM872.75,1678.39c35.83,8,71.07,14.06,106.59,18.46,6,.76,12.34,1.94,18.25,1.07,30.29-4.47,60.51-9.46,90.72-14.45,8.14-1.35,16.18-3.32,24-5,1.63-9.78,1.2-115-.37-120.21-30.44-8-83.65-17-113.87-17-21.48.05-43,2.47-64.39,5.25-18.42,2.41-36.57,6.83-54.84,10.38-2.08.41-4.13.94-6.08,1.38ZM1253.25,1558c-18.57-6.4-36.38-13.39-55.57-15.35-6.06-.61-12.27-2-18.2-1.21-17.23,2.15-34.3,5.38-50.5,12.1-4.22,1.75-8.57,3.17-12.71,4.69v120.36c2,.82,3.51,1.6,5.12,2.09,15.45,4.67,30.95,9.15,46.34,14a56.7,56.7,0,0,0,32.3.63c18-4.69,35.62-10.29,53.22-16.8ZM1069.62,526.06c2.62.16,4.06.32,5.49.33l119.21.53a8.31,8.31,0,0,0,2.92-.12c1.7-.7,3.69-1.35,4.82-2.66,4.15-4.83,3.68-8.8-1.24-13.09q-65.71-57.33-131.36-114.71c-3-2.61-5.66-2.79-8.6-1.4-10,4.71-20.18,9.05-29.62,14.66-24.65,14.66-46.53,32.71-63.7,55.92-5.74,7.77-10.61,16.19-16.82,25.78,40.66.58,79.47-.25,118.9.64ZM869,1678.68V1558.16a137.62,137.62,0,0,0-45.33-16.75,24.94,24.94,0,0,0-8-.13c-16.37,2.59-31.56,8.51-46,16.52v121.08a231.71,231.71,0,0,0,45.92,18.54,11.09,11.09,0,0,0,5.67.36A223.87,223.87,0,0,0,869,1678.68Zm375-1126.62a35.79,35.79,0,0,0-3.36,4.44,61.33,61.33,0,0,1-22,23.2c-6.57,4.17-13.4,8.25-20.64,11-22.18,8.44-44.62,16.21-67,24.25-5,1.8-10,3.67-15.29,5.64,0,17.5,0,34.39,0,51.29,0,3,1.34,4.33,4.08,5.17,6.32,2,12.51,4.28,18.81,6.27,20,6.31,40.27,9.39,61.45,6.76,18.46-2.3,35.63-8.2,53-14.87V555.38a24.37,24.37,0,0,0-2.84-1.43C1248.44,553.32,1246.56,552.81,1244.07,552.06Zm-13,149.76c37.7-15.34,67.54-40.11,91-72.52,4.31-6,9.2-12,9.14-20.38-.17-24.28-.11-48.56,0-72.84a21.06,21.06,0,0,0-7.41-16.82c-20.43-18.35-40.71-36.87-61.08-55.3-1.74-1.58-3.67-2.95-5.52-4.43a19.16,19.16,0,0,0,1.45,8c5.32,14.48,11,28.85,15.94,43.46,3.95,11.67-.58,18.66-12.62,18.56-4.59,0-9.19,0-14,0-1,6.14-1.91,11.17-2.78,16.28a20.12,20.12,0,0,0,3.1,2.39c6.34,3.09,8,8.2,8,15q-.37,52.23,0,104.48c0,6.4-1.9,11.12-6.56,15.41C1243.25,689.1,1237.28,695.57,1231.1,701.82ZM947,624.66l165.61-58.23V555.56c-59.27-14.83-118.6-20-178.81-11.52C928.15,572.3,933.34,598.54,947,624.66ZM959.11,262c-3.41,16.4,7.46,30.26,23.18,30.32,37.76.14,75.51.07,113.27.12,8.33,0,16.67.07,25,.28,6.94.17,7.9,1.23,8.15,8.33.16,4.4.25,8.82.28,13.23,0,6.32,0,12.63,0,18.72,9.15,1.7,11.94,1.29,14.54-1.75,7.81-9.1,12.49-8.7,19.07,1.64.24.37.77.54,1.68,1.15l15.27,1.1,9.26-14.45c-5.06-12.69-11-26.67-16.21-40.88-3.43-9.31-10.45-13.9-19.24-16.4a43.53,43.53,0,0,0-11.63-1.31q-88.24-.13-176.51-.1Zm53.67,431.16c26.21,17.2,54.87,26.7,85.22,30.42,40,4.89,79.14.8,116.94-13.79,2.72-1,6-1.56,8-3.41,8.59-7.93,16.8-16.27,25.15-24.46l-.84-1.23c-2.23.69-4.44,1.44-6.69,2.07-10.11,2.8-20.12,6.06-30.36,8.2-8.83,1.84-18.08,4-26.86,3.17-16.47-1.59-33.44-2.3-48.75-9.51-14.13-6.66-28-5.93-42.75-2.61-17.13,3.86-34.65,6.08-52.06,8.61C1030.84,691.89,1021.78,692.31,1012.78,693.13ZM950.26,310.57l-.87-1.31c-1.46.42-3.38.4-4.32,1.34-6,6.07-12.57,11.8-17.49,18.68-11.19,15.66-17.41,34-25.23,51.36q-46.82,104.25-93.11,208.74c-6.84,15.43-13.16,31.11-19.22,46.86a33.23,33.23,0,0,0-.42,23.06c3.88,10.74,12.78,15.21,24.07,16,13.27.87,25.87-1.91,38.18-6.17,39.34-13.6,78.6-27.44,117.88-41.25q76.9-27,153.79-54.21c17.77-6.29,35.62-12.41,53.16-19.31,15-5.89,27.9-14.46,37.47-28.28,6.89-9.95,7.51-30.7-2-40.45-8.87-9.12-18-18.06-27.54-26.45q-90.2-79-180.67-157.8c-.88-.77-1.88-1.38-3-2.2l-3.88,4.34c3.24,3.07,6.13,6,9.23,8.72q94.21,82.29,188.42,164.59A75.56,75.56,0,0,1,1208,491.41c4,6,6.46,12.77,5.24,20.73-1.53,9.92-6.76,17-13.92,23.34-10,8.78-21.94,13.79-34.19,18.13q-71.33,25.21-142.75,50.15c-57.51,20.23-115,40.59-172.53,60.68-11.34,4-23,6.52-35.31,5.21S793.16,659.07,794,648c.42-5.33.6-10.92,2.41-15.83,4.58-12.38,9.78-24.55,15.15-36.62Q867,471,922.6,346.57c5-11.13,10.89-22,21.07-29.63C946.1,315.12,948.07,312.71,950.26,310.57ZM1247.9,526.21c6.62-.86,8.67-2.6,8.43-7.92a31.31,31.31,0,0,0-2-9.26c-11.35-30.81-23.09-61.47-34.07-92.42-2.75-7.74-6.63-11.36-14.77-13.53-15.81-4.21-31-10.52-46.63-15.65-9.67-3.18-17.67-8.63-23.55-16.76-3-4.11-6.07-5.06-11-3.42v10.9l-12.71,3.59c2.85,2.62,4.78,4.46,6.78,6.22q47.91,41.93,95.79,83.88c8.65,7.61,16.83,15.74,20.37,27.28a9.5,9.5,0,0,0,2.3,3.72c5,5,7.51,11.34,9.26,18.05C1246.52,522.73,1247.29,524.5,1247.9,526.21Zm105.28-96.11-1.1.77c3.11,6.3,7,12.35,9.17,18.95,4.81,14.34,9.62,28.78,12.89,43.52a129.31,129.31,0,0,1,1.71,46.82c-2.14,14.48-4.69,29.05-8.86,43.05-4.39,14.74-11.25,28.59-19.33,41.92-15.09,24.9-34.61,45.63-57.32,63.48a228.76,228.76,0,0,1-53.08,31.23c-13.07,5.47-26.42,10.61-40.1,14.14a290.55,290.55,0,0,1-50.65,8.38,261.11,261.11,0,0,1-85.23-7.55c-27.43-7-53.33-18.13-76.17-35.34-8.21-6.19-16.18-12.72-23.92-19.49-3.49-3.06-6.44-4.11-10.29-.79,14.41,17,31.9,30.5,50.92,41.65a239.94,239.94,0,0,0,71.74,27.43c31.84,6.82,63.9,7.37,95.83,2.91a259.64,259.64,0,0,0,95.28-32.87,289.64,289.64,0,0,0,35.62-24.67,225.85,225.85,0,0,0,36.86-37.86,220.28,220.28,0,0,0,37-71.37,187.1,187.1,0,0,0,5.1-88.68c-4.19-23.15-13.33-44.46-24.91-64.8C1354.14,430.55,1353.58,430.37,1353.18,430.1ZM979.71,668.22c7.27,9.29,16.23,14.91,24.94,20.76a9.32,9.32,0,0,0,5.56,1.27c15.63-1.14,31.36-1.72,46.85-3.94,16.94-2.43,33.66-6.4,50.46-9.78a37.27,37.27,0,0,0,5.11-1.76c1.6-16.65.89-47.08-1.4-52.79Zm372.85-125.49c3.9-31.79-4.58-60.53-21.77-87a186,186,0,0,0-40.88-44.91c-13.34-10.54-28.06-18.77-43.16-26.38-3.79-1.91-8-3-13.63-5.11,3.36,8.4,6.07,15.12,8.75,21.86,5.75,14.47,13.07,28,24.23,39.06,9.92,9.84,20,19.49,30.22,29.05,14.49,13.58,29.14,27,43.7,40.48,7.48,6.93,12.61,14.94,12,25.69A55.25,55.25,0,0,0,1352.56,542.73ZM784,645.75v9.5c0,12.51,5,21.82,17.21,26.2a55,55,0,0,0,12.63,3c14,1.46,27.36-1.69,40.38-6.19,37-12.8,74-25.88,110.92-38.89q76.58-26.94,153.11-54c22.59-8,45.13-16.27,67.45-25,15.9-6.23,28.94-16.49,37.46-31.61a39.5,39.5,0,0,0,4.21-29.62c-2.66-11.2-9.62-19.34-17.68-26.42q-91.24-80.12-182.87-159.78c-5.36-4.68-10.66-9.42-16.17-13.92-1.28-1-3.28-1.2-5-1.76-.19.48-.39,1-.58,1.45,1.76,1.64,3.48,3.33,5.29,4.91q94,82,187.88,164.12a175.55,175.55,0,0,1,16.81,17.46,31.8,31.8,0,0,1,7.37,21.08c-.08,13.72-6.92,24.61-17,33.69s-22.3,15.13-35,19.66c-52.34,18.69-104.8,37.06-157.22,55.53S908.41,652.09,856,670.51c-14.91,5.24-30.15,9-46.08,6.7-8.06-1.15-15.14-4-20-11.74C785.85,659.2,785.92,652.55,784,645.75Zm2.4,1044.57-.33.69c2.77,2,5.73,3.77,8.28,6,5.87,5.13,12.51,6.56,20.26,6.54,75.05-.22,150.1-.13,225.15-.14q85.73,0,171.44-.05c2.88,0,6.31.22,8.55-1.17,7.83-4.87,15.25-10.4,22.82-15.69a11.71,11.71,0,0,0-6,.49c-15.09,4.18-30.1,8.68-45.3,12.39a34.17,34.17,0,0,1-14.41-.16,375.93,375.93,0,0,1-55.7-16,22.49,22.49,0,0,0-11.38-1.31c-31.74,6.07-63.42,12.46-95.53,16.39-10.69,1.31-21.28,3.1-32.19,1.64-34.71-4.65-69.24-10.33-103.49-17.64-5.4-1.15-9.9-.36-14.84,1.71-12.62,5.29-25.46,10-38.18,15.1a16.58,16.58,0,0,1-12.16.15C804.48,1696.14,795.44,1693.29,786.44,1690.32ZM1383,561.8l-.92-.11c-.56,2.32-1.22,4.62-1.66,7-3.75,20.18-11.19,39-20.81,57.06A229.6,229.6,0,0,1,1329.37,669a260.19,260.19,0,0,1-41.75,38,219.93,219.93,0,0,1-44.43,25.72c-14,5.9-28.12,11.75-42.74,15.52-29,7.48-58.57,11.11-88.8,8.68-22.62-1.82-44.6-5.78-66.09-13a218,218,0,0,1-47.18-22c-15.32-9.65-30-20.37-42.56-33.74a68.34,68.34,0,0,0-7.67-6.85c-.9-.7-2.4-.63-3.73-.94,0,1.14-.27,1.74-.06,2a45.31,45.31,0,0,0,3.83,5.36c15.43,17.34,32.83,32.55,52.93,44.05,24.33,13.91,50.21,24.18,77.95,29.62a273.51,273.51,0,0,0,90.69,2.43,262,262,0,0,0,57.53-14.66,270.6,270.6,0,0,0,47.44-23.19c16.25-10.16,31.76-21.54,44.72-35.7a429,429,0,0,0,31.07-38.06,161.64,161.64,0,0,0,23-46.61c3.85-12.34,6.39-25.11,9.35-37.72C1383.39,566.08,1383,563.9,1383,561.8ZM942.4,360.68c2.54,1.89,4.35,3.12,6,4.51,6.21,5.11,6.78,7.82,3.44,15.14-3.56,7.79-7.08,15.6-10.62,23.39-2.88,6.34-3.56,22.47-1,30.26,23.65-31.15,53.29-54.65,88.55-72.5-10.7-9.33-19.92-18.77-31.09-26-5.66-3.68-11.48-6.17-18.72-6.11-.62,4.76-2.17,8.82-6.85,10.63-4.86,1.89-8.92-.29-12.4-3.09C951.06,343.06,947.17,351.77,942.4,360.68ZM937.56,526h128.36V495H949.08C945.24,505.16,940.06,514.62,937.56,526ZM1125.21,333.3a10,10,0,0,0,.46-2.3c0-7.35.14-14.7,0-22.05-.23-12.59-.3-12.73-12.76-12.76q-45.21-.12-90.41,0c-2.09,0-4.18.32-6.44.5.37,1.13.38,1.75.69,2,16.87,14.93,33.72,29.89,50.76,44.63,1.31,1.14,4.08,1.35,6,1C1090.41,340.86,1107.32,337.15,1125.21,333.3ZM962.6,673.83,961.21,676c2.56,2.52,5,5.16,7.7,7.53a219.7,219.7,0,0,0,48.81,32.4,234.38,234.38,0,0,0,74.93,22.45,269.45,269.45,0,0,0,181.67-41.51,227.89,227.89,0,0,0,62.46-59.52c17-24,28.91-50.46,34.38-79.68a178.85,178.85,0,0,0-.65-71.6c-7.18-32.88-22.46-61.94-45.31-87-21.19-23.22-46.48-40.6-75-53.2-19.29-8.53-39.66-14.05-60.51-17.57-1.1-.18-2.35.49-3.53.76a16,16,0,0,0,7.63,3.1,219.22,219.22,0,0,1,55.41,16.7c16.53,7.36,32.33,16.37,46.49,28a241.58,241.58,0,0,1,36.21,36.41c9.1,11.39,15.87,24.09,22.12,37.16a152.23,152.23,0,0,1,12.62,39.8,185.93,185.93,0,0,1-2,74.42,195,195,0,0,1-31.82,69.72A229,229,0,0,1,1274.59,691a256.16,256.16,0,0,1-82.71,36.94,259.18,259.18,0,0,1-111.49,3.6,240.46,240.46,0,0,1-56.54-17.84,207.89,207.89,0,0,1-55.39-37C966.94,675.25,964.57,674.76,962.6,673.83ZM790.09,685.55l1.33-1.16c-1.91-3.06-4-6-5.65-9.22a34.23,34.23,0,0,1-3.36-8.8c-2.93-15,.42-29.24,6.44-42.92,11.07-25.11,22.33-50.14,33.49-75.21,1.06-2.39,2-4.85,3.47-8.62-6.31.41-11.36.71-16.41,1.06-12,.84-22.58,5.84-33.35,10.6-5,2.21-6.88,4.87-6.85,10.37.22,36.06.1,72.13.1,108.2,0,1.94.18,3.88.3,6.25Zm67.12,611.05c-3.08-1.18-5.74-2.34-8.49-3.23-7.76-2.52-13-.33-15.68,7.38a80.82,80.82,0,0,0-4.42,17.72c-3,26.63-2.29,53.35-.84,80,.5,9.24,1.69,18.57,6.15,27,2.07,3.94,6.7,7.22,10.52,6.35,4.4-1,8.61-2.84,12.74-4.26C848.92,1386.93,848.93,1331.71,857.21,1296.6Zm-59.1-607.47c5.76,10.53,14.48,13.36,23.74,14.39,16.95,1.88,33.1-2.29,48.93-7.84Q918.62,678.93,966.4,662q105-36.93,209.93-73.91c15.22-5.39,30.15-11.42,42.84-22,11.94-10,20.19-21.68,21.67-37.65.46-5-.39-9.36-2.85-15-.85,5.3-1.21,9.23-2.16,13-1.23,4.94-2.23,10.14-4.57,14.58a67.34,67.34,0,0,1-19.63,22.52c-9.37,7-19.83,11.85-30.6,15.72-48.86,17.54-97.89,34.6-146.86,51.83-42.74,15-85.43,30.17-128.23,45-19.42,6.73-38.92,13.27-58.61,19.16-14.47,4.33-29,4.17-42.72-3.49A68.49,68.49,0,0,0,798.11,689.13Zm58,106.6c-1.19-.53-2.91-1.44-4.72-2.1a34.59,34.59,0,0,0-5.64-1.62c-4.85-.91-9.71,1.12-11.59,5.63a52.7,52.7,0,0,0-3.65,13.27c-.66,5.06-.41,10.26-.41,15.41,0,27.18-.11,54.37.27,81.55.07,4.7,2,9.48,3.69,14,1.37,3.76,7.07,7.12,10.59,6.26a115.36,115.36,0,0,0,11.57-4c-.74-9.19-1.86-16.93-1.91-24.68q-.27-37.85.17-75.68C854.57,814.81,855.49,805.84,856.1,795.73Zm298.54,498.88c2.66,6.55,5.75,12.92,7.86,19.6,4.88,15.4,4.71,31.43,4.72,47.34,0,16.65.3,33.42-5,49.5-2.11,6.41-5.24,12.48-7.91,18.7,10.58,4.39,18.43,2,25.27-7,6.51-8.57,8.9-18.6,10-28.75a283.34,283.34,0,0,0,0-63.84c-1.26-11-4-21.62-11.35-30.56A18.9,18.9,0,0,0,1154.64,1294.61ZM857.2,1045.94c-3.73-1.32-7.07-2.87-10.57-3.64-6.35-1.38-11,1.08-13.38,7.18a58.45,58.45,0,0,0-3.46,12.62c-3.62,25.32-3.62,50.79-2.31,76.24.56,10.94,1.24,22,6.15,32.22,2.22,4.65,6,7,10.41,6.52,4.59-.47,9.62-1.51,13.06-5.28C849.09,1142.74,849,1080.26,857.2,1045.94Zm480.25-370.41c-4.85,4.18-3.65,8.12-3.65,11.56q-.15,168.15-.15,336.29-.09,134.3-.33,268.58c0,10.85-2.69,13.49-13.49,13.56-26.73.16-53.47.19-80.2.27a36,36,0,0,0-5.88.13c-1,.18-2,1.25-4.25,2.81a55.79,55.79,0,0,0,6.33.94c5.4.1,10.79,0,16.19,0,23.3,0,46.6,0,69.9-.08,10.52-.05,15-5.22,15.48-15.39.09-1.72,0-3.44,0-5.15V675.53ZM1153.64,925.45c10.67,4.45,19.13,2.19,25.33-5.63,7.18-9,9.65-19.72,10.81-30.71a275.65,275.65,0,0,0,0-58.71c-1.18-10.93-3.59-21.67-10.86-30.69-6.19-7.68-15.32-10-25-5.53a25.63,25.63,0,0,0,1.59,3.19c6.9,10,9.66,21.43,10.32,33.22.86,15.64,1.37,31.34,1,47C1166.4,894.29,1164.29,910.84,1153.64,925.45Zm1,118.41c2.76,6.66,5.72,12.81,7.88,19.23,4.77,14.16,4.63,29,4.68,43.65,0,16.64.5,33.42-4.8,49.51-2.11,6.41-5.24,12.48-7.91,18.72,9.48,4.26,18.07,1.94,24.61-6.22,6.91-8.62,9.37-18.84,10.56-29.28a267.34,267.34,0,0,0,0-60.18c-1.17-10.45-3.73-20.66-10.61-29.28C1172.73,1042.1,1164.31,1039.81,1154.64,1043.86Zm-220.07-504c3.33,0,6,.15,8.6,0,13.46-.87,26.93-2.77,40.36-2.53,22,.38,44.15,1.23,66,3.58,18.21,2,36.22,6.07,54.19,9.81,7,1.45,13.21,1.39,20-1a236.14,236.14,0,0,1,31.62-9.45c10-2.08,20.41-2.5,30.67-3.39,4.22-.37,6.93-2.26,9.38-6.45H936.66C936,533.47,935.37,536.26,934.57,539.86Zm-68.63-207.2c17.44.21,30.94-12.87,31.24-30.24.28-16.43-13-29.94-29.29-30.66-17.29-.77-31.65,11.78-32,30.15C835.54,319.08,850.14,333.23,865.94,332.66Zm6.86,318.11,41-14.5a269.79,269.79,0,0,1-15.53-86l-25.44,5Zm68.81-24.13,1.86-.89a20.88,20.88,0,0,0-1-3.9,155.76,155.76,0,0,1-14-47.67c-3.07-23.44-1.42-46.54,6-69a185.36,185.36,0,0,1,42-70c18-19,38.43-34.83,62.15-46.21,4.36-2.09,8.58-4.46,13.18-6.86-1.41-1.61-2.3-2.77-3.34-3.79-5.64-5.55-5.52-5.24-12.58-2.21-13.87,5.95-26.36,14.33-38,23.54-28.66,22.67-51.36,50.14-65,84.64-9.81,24.84-14,50.36-11.77,76.89,1.8,21.44,7.3,41.91,17.52,61C939.52,623.76,940.63,625.16,941.61,626.64Zm407.16,36.81c-5.13,2.53-3.76,6.5-3.76,10q-.12,304.22-.07,608.43c0,2.31.21,4.62.35,7.38,4.07-2.38,3.4-5.77,3.42-8.8q.11-29.79.09-59.59,0-273.67,0-547.37ZM950.19,314.69c-12.49,8.76-19.88,20.85-25.71,33.87q-61.1,136.5-121.8,273.18c-3.76,8.45-7,17.27-6.38,26.93.37,6,2.48,11.58,7.43,14.46,9,5.24,19,5.64,29,2.88a108.08,108.08,0,0,0-11.67-.37c-13.27.12-19.13-8.06-17.56-19.71a91.8,91.8,0,0,1,6.8-24.62q55.8-126,112.2-251.72c7.48-16.71,13.68-34.25,27.77-47.1C952.73,320.27,952.52,317.86,950.19,314.69Zm205.33,990.12c-12.58,13.56-20.29,29.42-22.49,47.32-3.14,25.63,5.1,47.93,22.57,67.13C1167.64,1406,1168.16,1319.87,1155.52,1304.81Zm-289.11-.52c-12,18.78-11.87,98.25-.06,115.31,14.28-16.06,22.81-34,23.35-55.5C890.27,1341.22,881.66,1322,866.41,1304.29Zm289.85-388.8c12.18-18,11.07-101.5-.53-111.07C1123.92,836.05,1125.4,886.29,1156.26,915.49ZM865.69,804.15c-11.67,20.19-10.73,96.36.08,111C896.49,888.18,898.85,835,865.69,804.15Zm290.09,249.25c-17.88,19.85-26.32,42.3-22.58,68.12,2.15,14.84,9.48,28.16,18.78,40.08,1,1.34,2.91,2,4.41,3C1168,1146,1167.53,1071.06,1155.78,1053.4ZM866.47,1165.34c17-18.93,25.79-40,22.85-64.7-2.15-18-10.1-33.67-23-47.09C854.53,1070.09,854.39,1148.3,866.47,1165.34ZM868.92,652V565.43a14.49,14.49,0,0,0-1.79,2.17q-19.38,42.85-38.67,85.74c-1.33,3-1.93,6.27-3.12,10.29C841.5,662.92,855,657.16,868.92,652Zm74.26-286c-.6,1.1-1.22,2.1-1.7,3.16Q883.25,498,825.08,626.85c-3.62,8-6.75,16.26-9.82,24.51-1.37,3.66-1.84,7.56,1.81,12,1.11-3,1.89-5.16,2.7-7.31,2.15-5.71,4-11.55,6.52-17.12q19.79-44.25,39.81-88.39Q897.51,481,928.91,411.36c5.74-12.72,11.42-25.47,17.23-38.15C947.7,369.8,948.08,367.16,943.18,366ZM809.08,657.47c1.19-6.69,1.41-13.65,3.73-19.83,5.25-14,11.36-27.61,17.43-41.25q52.41-117.85,105-235.63c4.7-10.57,9.73-20.92,18.33-29,3.11-2.91,2.34-5.28-.44-7.74-9.82,7.18-15,17.32-19.63,27.54-17,37.49-33.56,75.15-50.33,112.73Q847.49,544.16,811.84,624c-3.69,8.3-6.52,16.91-5.71,26.28C806.38,653.21,806.26,656.15,809.08,657.47Zm344.93,765c-14.2-18.06-24.08-37.28-24.16-60.48-.07-23.47,10-42.78,24.33-60.18-4.36-7.9-5.57-8.24-12.14-2.91a51.84,51.84,0,0,0-13.09,15.62c-5.43,10-10,20.38-11.83,31.42-1.64,9.75-2.55,20.18-.82,29.78a105.09,105.09,0,0,0,15.5,38.6c4.4,6.77,10.12,12.2,18.4,15.14Zm0-254.08c-4.71-6.85-9.47-13.09-13.48-19.77a75.54,75.54,0,0,1-10.28-31.12c-2.56-24.11,6-44.71,21.13-62.92,2.35-2.83,2.66-4.88.46-7.66s-4.66-2.17-7.09-.54a47.44,47.44,0,0,0-14.71,15.12c-5.84,9.79-9.63,20.32-12.88,31.12a60.58,60.58,0,0,0-.71,30.53,104.72,104.72,0,0,0,14.71,35.85c4.62,6.91,10.32,12.77,18.76,15.65C1151.7,1172,1153,1170,1154,1168.43Zm54-648.33c4.27-10.6,3.88-20.67-3.7-29.49a151.85,151.85,0,0,0-14.91-15.21Q1095.22,393,1000.9,310.85c-1.73-1.52-3.66-2.8-5.47-4.17-4.59,5.08-.4,7.05,2.19,9.32q77,67.28,154.09,134.54,22.71,19.86,45,40.16C1205.24,498.5,1210.42,507.9,1208,520.1Zm12.52-120.52c-3.51-8.79-6.74-17.2-10.28-25.47a5.94,5.94,0,0,0-3.92-2.83c-14.41-2.47-28.85-4.72-42.68-6.94-8.37,11.64-12.1,12-20.36,2.62-2.27-2.57-4.32-2-7-.51a38.22,38.22,0,0,0,20.89,17.15c13.36,4.73,26.77,9.36,40.3,13.59C1204.6,399.41,1212,401.44,1220.49,399.58ZM1161.86,362c72.22,5.33,131.48,33.49,173.11,94.08-4.66-13-12.7-23.57-21.4-33.42-30.76-34.81-69.52-55.91-114.85-65.31-5.74-1.19-12.2-1.41-17-4.33-6.64-4.08-12.93-2.45-19.91-2.9Zm-223.79,265a54.15,54.15,0,0,0-2.6-5.84c-4.9-8.31-7.67-17.41-10.58-26.52-7.47-23.37-8.74-47.3-5.34-71.26A177.4,177.4,0,0,1,953.21,442c21.17-28.56,47.58-51.36,79.55-67.38,2.09-1,4.09-2.25,6.45-3.55-3.63-2.1-3.68-2.21-6.73-.85-17.14,7.68-32.39,18.33-46.69,30.32C959,423,938.71,450.11,925.59,482.72A177.29,177.29,0,0,0,913,552.41c.32,20.14,5.07,39.81,12.47,58.66,2,5,4.79,9.66,7.15,14.51C933.78,628,935.21,629.14,938.07,627.07Zm117.3-242.62a172.86,172.86,0,0,0-44.66,24.64,269.3,269.3,0,0,0-31.58,27.39c-18.43,19-32.43,41.18-40.81,66.46-3.37,10.18-5.31,20.83-7.78,31.3-.32,1.39.12,3,.2,4.44C947.92,465.74,995.5,420.28,1062.6,391ZM1153.74,801c-1.35-2.86-1.79-6.89-6.67-5.83a14.51,14.51,0,0,0-11,13.77,69.55,69.55,0,0,1-5.22,26.44c-4.59,11.33-8.53,22.93-12.44,34.52a16.39,16.39,0,0,0-.55,8.44,102.6,102.6,0,0,0,13.43,31.59,37.39,37.39,0,0,0,18.41,15.69c1.58-2.49,3-4.63,4.18-6.56C1122.83,880.26,1120.85,841.93,1153.74,801ZM1032.86,366.33l-.7-1.34c-5.35,2.61-11,4.73-16,7.91-14.67,9.35-29.1,19-42,30.84-19.42,17.76-35.49,38.11-47.35,61.41a185.6,185.6,0,0,0-19.62,67.32c-2.64,28.21,2,55.19,11.72,81.48,1.86,5,4.65,9.72,7.12,14.51,1.12,2.17,2.57,3.84,5.27.75-2.89-6-6.38-11.9-8.71-18.25-12.14-33.18-15.55-67-7.71-101.83a188.85,188.85,0,0,1,33.64-72.81,227.43,227.43,0,0,1,81-67.8A32.36,32.36,0,0,0,1032.86,366.33Zm311.7,213.57c3.24-4.28,4.13-8.93,4.14-13.79,0-10.55-.19-21.1.08-31.64.25-9.52-3.36-16.82-10.38-23.22-25.19-23-50.15-46.19-75.13-69.4-10-9.27-18.27-19.82-23.28-32.67-3.56-9.11-7.15-18.21-10.66-27.34-2-5.32-2.52-5.67-9.3-5.42,5.49,11.9,11.1,23.59,16.32,35.45a92.13,92.13,0,0,0,21.82,30.19c24.34,22.82,48.66,45.64,73.43,68,8.6,7.76,13.54,16.17,13.09,28C1344.16,552,1344.56,566,1344.56,579.9Zm-10.51,26.21,2.11.1c.41-2.93,1.18-5.86,1.19-8.79.11-20.6-.11-41.21.14-61.8.1-7.91-2.29-14.21-8.23-19.54-24.07-21.62-47.81-43.63-72.06-65.06-14-12.35-26.12-25.82-33.13-43.39-.53-1.32-1.77-2.36-2.68-3.53l-1.52.73a49.48,49.48,0,0,0,1.37,5c6.36,16.36,16.85,29.56,30,41.13,24.85,21.87,49.19,44.31,73.86,66.37,5.89,5.26,8.58,11.25,8.45,19.33-.33,20.6.06,41.2.2,61.8C1333.75,601,1333.94,603.55,1334.05,606.11Zm8.09,65.73-1.68-.07v14.62q0,290.7-.06,581.4c0,12.41.52,24.9-2.55,37.66h8.94c1-2.76,1.84-5.36,2.69-7.81l-7.34,1.3ZM1161,262.63c14.12,11.77,9.91,7.09,17.06,24.28,4.5,10.82,8.74,21.76,13.26,32.57.79,1.9,2.07,4.42,3.72,5,4.39,1.57,9.11,2.23,14.88,3.52-6.89-17.15-13.17-32.75-19.43-48.35C1185.74,267.84,1174,261.06,1161,262.63ZM900.12,372.32a31.61,31.61,0,0,0,1.91-2.91c5.05-10.57,10.15-21.11,15-31.76a15.35,15.35,0,0,0,1.17-6.39c-.07-7.34-.34-14.67-.68-22-.06-1.14-.91-2.25-1.4-3.38-4.92,18.57-15.31,31.67-33.83,38C887.34,354.09,898.3,359.79,900.12,372.32Zm74.08-55.63c1.46,4.5,1.42,4.74,4.91,5.3A42.79,42.79,0,0,1,999,331c3.85,3,7.74,6,11.43,9.24q90.12,78.6,180.18,157.27c2.71,2.37,5.45,4.7,8.18,7.05a26.81,26.81,0,0,0-6.77-9.14q-96.13-84-192.38-167.92a67.08,67.08,0,0,0-8.74-6.7C985.84,317.71,980.39,315.88,974.2,316.69ZM951.32,374l-1.65-.82c-1.09,2.1-2.27,4.16-3.24,6.31q-26.88,59.6-53.7,119.2C870.84,547.07,848.8,595.4,827,643.85c-2.66,5.91-4.34,12.27-6.47,18.42l1,.31Q886.39,518.28,951.32,374ZM829.84,303.43l-2.49.16c0,2-.34,4,0,5.89,4.81,23.28,25.22,37.23,50.5,30.81,15.67-4,25-15.17,27.6-31,1.55-9.62,1.48-19.52,1.83-29.31.14-3.85.4-7.88,3.6-9.95a23.14,23.14,0,0,1,10.75-3.64c9.78-.58,19.61-.34,29.42-.54,1.43,0,2.85-.73,5.51-1.46-1.94-1.3-2.66-2.21-3.39-2.21-11.52-.05-23.06-.24-34.57.21-3.2.13-6.67,1.74-9.42,3.56-4.65,3.1-5.76,8.14-5.94,13.55-.31,9.55-.27,19.17-1.51,28.62-2.17,16.64-17.4,29.59-33.85,30.33-17.15.77-33.51-12.61-36.35-28.23C831.16,307.91,830.43,305.69,829.84,303.43ZM1084.6,358c6,7.37,12,11.26,21.86,8.47,8.83-2.5,18.39-2.41,27.61-3.55,2.55-.32,5.07-.95,7.87-1.48l-.61-10.62C1128.63,348.73,1098.29,352.59,1084.6,358ZM1199.31,498.4l.59-.26a24.76,24.76,0,0,0-2.24-2.74c-7.69-7.2-15.24-14.57-23.16-21.5q-87.52-76.57-175.17-153c-1.61-1.4-3.35-2.65-5-4l-1.08,1.49Zm-86.57,374.75c.85-.61,1.42-.79,1.55-1.14,5.71-15.57,11.47-31.13,17-46.76,2.23-6.29,1.46-12.77,0-19.5-5.59,6.55-9.13,14.11-13,21.57C1110.65,841.93,1112.48,857.38,1112.74,873.15ZM923.23,277c-2.46,9.3-2.18,44.45.11,49.28,9.52-6.3,14.06-14.9,12.24-26.59-.56-3.59-.08-7.33-.08-11V277Zm53.22,19.24c-10.81-5.34-11.38-5.93-18-16.07-.86-1.3-2.29-3-3.55-3.12-5.23-.35-10.5-.15-15.75-.15v33.34l9-5.16c.41-2.6.43-4.86,1.15-6.88,2.58-7.22,11.71-10.14,16.44-4.68C968.85,297.12,971.77,296.81,976.45,296.26Zm-2,37.1-12.4-38.62c-8.07-1.38-10.69.88-10.1,8.92a9.25,9.25,0,0,0,.27,2.19c3,8.8,5.52,17.78,9.09,26.34C964.47,339.77,969.75,339.81,974.45,333.36Zm141.85,232c22.22-8.69,44.11-14.45,64.38-24.59-22.72-.3-43.89,5.78-64.38,14.64Zm41.44-236.11c-8.74-2.29-10.89-1.15-11.72,6.45a141.7,141.7,0,0,0-.64,16.87,87.82,87.82,0,0,0,1.08,13.16c.59,3.62,3.53,5.33,7,4.84s4.27-2.84,4.27-5.8C1157.74,353,1157.74,341.29,1157.74,329.24ZM904.19,526.52c-6,37.32-1.57,73.14,15.56,107.66l4.79-2.37c-8.95-16.41-14.48-33.58-17.92-51.41S903.43,544.52,904.19,526.52Zm-20.14,3.82-9.47,21.41L898.73,547c.42-5.94.79-11.11,1.18-16.67Zm382.86-74.64,1.06-1c-2.53-2.4-5-4.86-7.6-7.18-11.07-9.89-20.19-21.21-26.31-34.85q-7.5-16.7-15.32-33.26c-1.09-2.31-1.43-5.59-5.39-6.22a16.1,16.1,0,0,0,.5,2.65c5.88,13.95,11.14,28.21,17.85,41.75C1239.65,433.6,1253.21,444.84,1266.91,455.7Zm-345.76,5.65C934.23,447,937.84,435,934.24,419.08c-4.08,9.07-8.37,17.3-11.45,26C921.18,449.6,921.71,454.9,921.15,461.35Zm157.51-109.89c1.2,4.92,4.08,3.29,6.51,2.88,13.26-2.28,26.5-4.72,39.79-6.76,5.4-.82,10.93-.78,16.84-1.17-2.31-3.68-2.33-3.94-5-3.68-11,1.08-21.92,2-32.8,3.61C1095.56,347.57,1087.26,349.69,1078.66,351.46ZM788.75,541.34c11-1.3,23-2.87,35-4.06,4.66-.46,5.32-3.09,5.36-6.74C813.44,528.48,798.72,528.77,788.75,541.34ZM776.2,682.53c8,10.82,30.4,32.42,35.89,34.55-4.8-6.81-9.8-12.88-13.66-19.6C793.64,689.12,786,685.74,776.2,682.53ZM900.8,526.16c1.32-5.68,2.29-11,3.8-16.11,1.72-5.8-1.2-9-5.45-12.05-6.82,8.87-4.36,18.52-4.52,28.16Zm16.2-69-15,33.55c5.52,1.8,8.2.25,9.67-4.41a92.72,92.72,0,0,1,4.66-11.49C918.89,469.32,919.2,463.64,917,457.17Zm342.82,61.88h14.51L1270.78,509c-2.74,0-4.68-.08-6.62,0s-3.75.35-5.79.56c.09,1.94,0,3.4.26,4.82S1259.34,517.19,1259.82,519.05ZM1141.06,338.29c-23.49-.53-44.86,4.14-66,10.51Zm55.8,997.09v53.17A185.36,185.36,0,0,0,1196.86,1335.38ZM955.62,273.76c1.16-3.71-.51-4.95-3.48-5-5.35,0-10.73-.22-16,.27-2.14.2-4.12,2-6.18,3.11.2.53.41,1.05.61,1.58ZM971.9,307l-.82,2.38c2.27,6.39,9.14,3.81,13.6,5.93,1.34.64,3.12.36,5.18.54l-.61-6.9Zm149.66,69.13c-.56-2.43-1-4.38-1.51-6.57l-17.85,3.61C1108.18,382.27,1114.74,377,1121.56,376.09ZM1341.23,591a7.15,7.15,0,0,0,.62-2c0-19.31.15-38.62-.07-57.93,0-3.19-1.53-6.37-2.35-9.56C1341.57,544.51,1339.93,567.42,1341.23,591ZM862,1301.75l-2.16-.28c-5.14,12.5-5.08,25.72-5.33,38.45C857,1327.45,859.5,1314.6,862,1301.75Zm-.84-133c.48-1.1,1.5-2.3,1.31-3.27-.47-2.35-1.76-4.54-2.26-6.89-2-9.14-3.78-18.33-5.5-26.77C854.71,1143.66,855.2,1156.23,861.18,1168.72ZM993.36,303.81c-8.3-3.31-15.76-5.29-23.48-1.06a150.44,150.44,0,0,0,20.17,4.07C990.85,306.94,991.9,305.19,993.36,303.81ZM860,1423c1.14-.76,1.91-1.1,1.87-1.28-2.44-12.58-4.94-25.16-7.35-37.3C854.68,1397,855.17,1410.12,860,1423ZM1161.13,345.8c11.86,2.65,15.53,2.52,18-.66-5.15-2.95-10.7-2.23-16.13-2.06C1162.49,343.09,1162,344.42,1161.13,345.8Zm-39.27,555-6.55-18.14C1116.34,888.93,1114.58,896.29,1121.86,900.81ZM944.09,688.13c-4.1-6.42-6.57-6.53-13.38-1.32ZM861.4,918.83c.64-5.15-1.45-9.69-3.45-15.89C857.43,913.86,857.45,914,861.4,918.83Zm34.94-550.21-1.19-.07v14.24h1.19ZM859.09,813.85q1.57-6.08,3.14-12.16l-1.71-.41C856.7,804.64,858.5,809.38,859.09,813.85Zm404.36-320.42-2.35.66,4.5,10.39,1.82-.72Zm-84.78-152.26c-.05-.75-.11-1.49-.16-2.23l-15.22-.83-.12,1.62Zm92.42,183.31,0-1.6c-4.17,0-8.49-1.49-13.44,1.6Zm-379.41,2.21c-.34-3.87.66-7-1.35-11.32l-4.56,10.92Zm25.86-248.11-1.79-.14v7.2l1.36.07Q917.34,282.14,917.54,278.58Zm-25.71-5.31-.27-1.2h-9.7l5.41,4.12Zm65.32,61.16-1.21-1.08-8,8.61,1.19,1.12Q953.14,338.76,957.15,334.43Zm-55.64,160.5,5,6c.41-2.85.62-4.3.86-6Zm8-189.19.62.14V293.55l-.62,0ZM899.7,276.8l-5.4.4,5.4,5.85Zm371.67,180.9-1.12,1.14,7.62,6.5.7-.86ZM899.46,294.36l.9-.36-2.88-7.47-1.08.42Zm24.13-23.44-1.29-2-4.44,2.79L919,273.6Zm304.72,1037-2-1.84c-.44.49-1.31,1.1-1.21,1.45a6.93,6.93,0,0,0,1.39,2Zm-116.9,57.36h.13v-5.59h-.13ZM996.07,298c.07-.35.15-.7.22-1l-5.84-.85-.05.34ZM985.76,680l.9-.58-3.58-3.25-.66.72ZM911.39,276.17l-.61.2c.06.86.11,1.72.17,2.57l.44,0Zm427.37,133.37-.94,1c1,1,1.89,2,2.84,3l.65-.59Z"/><path class="cls-1" d="M1072.91,1360.41c.66,19.58-5.67,34.7-18,48-13.47,14.47-29.71,22.28-49.05,25.42a76.9,76.9,0,0,1-36.92-3.43c-19.77-6.58-33.79-19.75-38.78-41.25-4.71-20.34-5-40.54,2-60.15,4.07-11.41,10.42-21.52,21.95-28.19a80.87,80.87,0,0,1,37.6-11,82.39,82.39,0,0,1,37.79,7.28,78.06,78.06,0,0,1,32.78,27.5C1069.66,1335.43,1074.61,1348,1072.91,1360.41ZM1000.05,1432v-90.59H942.83c-.84,3.93-2.2,7.67-2.37,11.47-.54,12-.1,23.77,3.91,35.5,5.24,15.34,12.51,28.44,27.23,36.72C980.29,1430,989.58,1430.54,1000.05,1432Zm4.4-2c14.55.38,25.22-7.31,34.51-16.25,8.8-8.47,15.09-19,19.22-30.89,3.94-11.36,3.25-22.65,2.3-34.09-.21-2.54-1.81-5-2.94-7.91-15.47,0-30.65,0-45.82,0-2.18,0-4.36.2-6.39.3C1003.17,1347.46,1002.51,1416.7,1004.45,1430.08Zm.56-98.51-1.58.32c-1.75-12.89,0-26.09-2.11-38.8-29.06-2.63-52.57,18.2-54.78,41.08,13.29,1.67,101.93.95,107.38-.86-2.22-15-31.72-41.67-47.62-38.53C1005.88,1306.88,1005.44,1319.23,1005,1331.57Zm-36.19-34.74c-11.3,5.4-23.18,9.88-29.29,22.53-2.55,5.29-5.1,10.38-6.85,16-3.27,10.56-2.92,21.3-2.8,32.06a76.94,76.94,0,0,0,11,39.66c5.91,9.91,14.9,13.9,24.22,18.3-3.1-3.06-7.27-5.19-9.71-8.57a96,96,0,0,1-18.12-48.16c-1.07-11.91.87-23.36,4.67-34.68C947.08,1318.81,953.63,1304.89,968.82,1296.83Zm72,10.09c13.57,15.73,23.26,32.81,23.51,54.51s-9.61,39-22.67,55.25c22.52-16.72,32.66-39.09,28.27-66.49C1067,1331.85,1056.17,1317.58,1040.85,1306.92Z"/><path class="cls-1" d="M1073.5,860.35c1.52,12.54-3.63,23.59-9.55,33.48a70.09,70.09,0,0,1-24.22,24.09,86.39,86.39,0,0,1-39.43,12.47c-19.56,1.29-37.73-3.5-53.09-15.34-6.69-5.15-12.14-13.18-15.54-21a83.54,83.54,0,0,1-7-35.74,81.07,81.07,0,0,1,19.47-51c2.23-2.68,6-4.08,8.91-6.22,11.77-8.59,25.57-11.45,39.49-11.85,11.83-.34,24,.82,34.93,6.59,8.4,4.43,17,8.19,24,15.19,9.32,9.24,16.29,19.58,19.76,32.06C1072.84,848.57,1072.81,854.56,1073.5,860.35Zm-75.34-68c-16.06-.45-29.34,4.95-39.66,15.7C948,819,942,833.26,939.28,848c-3,15.94.57,31.66,7.24,46.51,1.29,2.88,3.21,4.55,6.76,4.52,14.71-.14,29.43,0,44.14,0a24.47,24.47,0,0,0,3.9-.69C1000.27,863,999.23,828.08,998.16,792.35Zm7.33,106.59c13,0,25-.27,37,.12,5.63.18,8.57-2.31,10.66-7,5.33-12,9.1-24,8.16-37.56-.79-11.19-4.87-21.13-10.4-30.21a69.16,69.16,0,0,0-27.34-26c-6.74-3.5-13.47-4.89-21.27-5A1006.54,1006.54,0,0,0,1005.49,898.94Zm-37.64,23.7c-10.59-4.18-16.14-13.24-21.24-22.31-5.76-10.23-9.9-21.18-10.86-33.14a74.71,74.71,0,0,1,5.93-36.53c5.58-12.83,11.23-25.6,24.71-32.43a13.83,13.83,0,0,0,2.2-1.73,163.67,163.67,0,0,0-19.86,9.82,9.76,9.76,0,0,0-2.66,2.43c-12,15.25-19,32.22-18.79,52,.08,8.23,1.85,15.93,4,23.75C936.51,903.86,948.74,916.44,967.85,922.64ZM952.79,903c7.77,16.28,34.77,28.9,48.84,23.27V903Zm53.64,22.31c14.46.41,33.4-11.18,36.59-22.16h-36.59Zm35.73-117.79c13.19,15.27,22.24,31.86,22.2,52.77s-9.83,37.42-22.76,52.76C1080.78,885.85,1080,833.2,1042.16,807.53Z"/><path class="cls-1" d="M927,1108.86a71.81,71.81,0,0,1,5.68-33.12c4.42-10,10-19.47,20.91-25.43a89.13,89.13,0,0,1,38.38-11.13,82.47,82.47,0,0,1,34.46,5.86,79,79,0,0,1,34.67,26.31,57.93,57.93,0,0,1,11.67,28.83c.24,2.18,0,4.43.24,6.61,1.71,13.3-2.22,25.64-9,36.4a71.36,71.36,0,0,1-23.65,23.64c-13.32,8-27.76,12-43,13.2-3.58.29-7.26-.81-10.9-1-14.48-.56-26.8-7-38.85-14.18a17.11,17.11,0,0,1-4.12-4C931.11,1146,926.65,1128.5,927,1108.86Zm74.58-66.13a48.1,48.1,0,0,0-26.91,4c-5.93,2.68-12.22,6.15-16.31,11a72.06,72.06,0,0,0-16.85,38.55c-2.45,21.18.64,41.38,12.86,59.75,6.12,9.19,15.1,13.83,24.49,17.76,5.27,2.21,11.46,2.31,17.27,3.13,3.81.54,6.16-1.07,6.08-5.27,0-1,.06-2,.06-2.95q0-59.22,0-118.46C1002.21,1047.82,1001.79,1045.45,1001.53,1042.73Zm5.82.76c-2.34,8.78-2.23,124.29,0,131.76,3.51-.6,7.39-.53,10.64-1.93a71.88,71.88,0,0,0,42.75-54.11,63.46,63.46,0,0,0-5.16-36.56c-7.76-16.85-20.17-28.7-36.46-36.71C1015.59,1044.22,1011.23,1044.25,1007.35,1043.49Zm-42.08,127c-11.55-5.32-16.45-16.26-20.74-26.63-8.24-20-9.32-40.76-2.48-61.65,4.58-14,10.78-26.73,24.39-34.25.12-.07-.06-.67-.11-1.13-3.14,1.58-6.13,3.22-9.22,4.63-12.82,5.82-19,17-23.57,29.36s-4.38,25.08-3.52,37.74C931.64,1142.49,940.53,1162,965.27,1170.51Zm76.61-8.62c36.51-24.1,40.6-77.51-.52-105.36Q1087.84,1108.9,1041.88,1161.89Z"/><path class="cls-1" d="M995.45,1497.18h182.7c.07.38.13.76.2,1.14a20.51,20.51,0,0,1-4.27,1c-8.09.19-16.19.31-24.28.3q-72.48,0-144.95-.13h-9.3C995.52,1498.72,995.48,1498,995.45,1497.18Z"/><path class="cls-1" d="M934.11,1497.29h28.48c0,.5,0,1,0,1.49-9.43,1.41-18.91.68-28.37.49C934.2,1498.61,934.15,1498,934.11,1497.29Z"/><path class="cls-1" d="M904.26,1499H879.35C885.08,1496.33,894,1496.08,904.26,1499Z"/><path class="cls-1" d="M845.08,1497.21H859C854.32,1500.32,849.69,1499.16,845.08,1497.21Z"/><path class="cls-1" d="M848.29,735.84l-4.86.55c0-.55-.11-1.1-.17-1.65l4.89-.3Z"/></svg>