<svg id="Layer_1" data-name="Layer 1" xmlns="http://www.w3.org/2000/svg" viewBox="0 0 2000 2000"><defs><style>.cls-1{fill:#fff;}.cls-2{stroke:#1d1d1b;stroke-miterlimit:10;}</style></defs><path class="cls-1" d="M1142.08,396.85a182.63,182.63,0,0,1,57,59.51,160.21,160.21,0,0,1,20.73,55.55,7.66,7.66,0,0,0,3,5.34c7.5,5.82,14.9,11.78,22.24,17.79,8.51,7,7.47,3.57,7.49,16q.3,205,.54,410,.07,56.37,0,112.75c0,4.94-.07,9.89-.09,14.83a8.55,8.55,0,0,1-3.22,6.82c-11.78,10.43-23.39,21.05-35.12,31.53-6.47,5.79-13.14,11.35-19.59,17.16-3,2.66-5.79,2.83-9.37,1.17a29.65,29.65,0,0,1-9.92-7.75c-6.9-7.88-4.83-9,1.17-14.22q22.77-19.89,45.7-39.58c2.38-2.05,3.89-4.19,3.69-7.55s.15-6.59.15-9.89q0-253.43,0-506.86c0-3.79-.19-7.58-.28-11.37-.07-2.5-1.37-3.75-3.83-4.19-2.77,51-25.78,89.78-67.75,117.3v40.78c1.81.5,3.5,1,5.22,1.44,6.24,1.6,6.57,2,6.58,8.3q0,17.31,0,34.61c0,1.32-.07,2.64-.13,3.95-.16,3.18-1.57,5.2-4.86,5.84-2.32.46-4.58,1.28-6.84,1.93a33.47,33.47,0,0,0-.16,3.9c.29,3.84-1.34,6.66-4.37,8.81q-1.8,1.27-3.58,2.59L1133.21,783a16.61,16.61,0,0,0,2.1,1.83c3.58,2,4.73,5.21,4.34,9.16a84.26,84.26,0,0,0-.78,8.81c0,6.58.49,13.16.49,19.74q.06,162.45,0,324.9c0,5.27-.09,10.55-.13,15.82a14.79,14.79,0,0,1-3.71,9.88c-9.12,10.76-18,21.75-27.18,32.45-2.87,3.34-4.35,6.82-4,11.17.06.82,0,1.65,0,2.47q0,85.55,0,171.1c0,1.65.1,3.3.07,4.94,0,2.39,1,3.86,3.08,5.07,9.36,5.33,18.6,10.87,27.92,16.28,5.06,2.93,5.56,4,4.67,9.95s-1.7,12.07-2.5,18.1q-3.25,24.74-6.48,49.47c-1,7.8-1.91,15.61-2.86,23.4,7.47,4.2,14.4,8.57,21.74,12.06,6,2.87,10.22,7.41,14.14,12.53a9.86,9.86,0,0,1,2.21,6.32c0,19.61,0,39.23-.11,58.84a14.27,14.27,0,0,1-1.81,6,71.76,71.76,0,0,1-4,6.19,13.75,13.75,0,0,1-8,6.08c-7.64,2.31-15.21,4.87-22.79,7.37-5.51,1.82-11,3.7-16.61,5.6,0,5.06.11,9.66,0,14.27s-1.68,6.65-6.16,7.54a113,113,0,0,1-14.49,2.14c-16.9,1.13-33.82,2.35-50.75,2.87-22,.68-44,.9-66.08,1-37.69.18-75.38.19-113-1.59-14.49-.68-29-1.36-43.46-2.27a99.42,99.42,0,0,1-14-2.11c-5.82-1.24-6.26-2-6.4-8-.11-4.72-.27-9.44-.41-14.14-13.06-4.26-25.53-8.52-38.14-12.35a17.39,17.39,0,0,1-10.83-8.43c-.88-1.57-2.14-3-2.86-4.58-1-2.19-2.2-4.53-2.23-6.82-.18-18.95-.12-37.91-.07-56.87,0-1.45,0-3.27.75-4.28,3.67-4.75,6.46-10.33,12.15-13.23,4.21-2.15,8.31-4.53,12.45-6.83,4.54-2.52,9.07-5.06,13.68-7.64-.36-2.81-.67-5.24-1-7.67l-7.53-56.81c-1.16-8.81-2.31-17.63-3.51-26.43-.61-4.44.95-7.49,4.92-9.73,9.11-5.12,18-10.64,27.1-15.75,2.66-1.49,3.54-3.23,3.53-6.21q-.1-90.26,0-180.5a9.74,9.74,0,0,0-2.32-6.71c-9.61-11.42-19-23-28.68-34.39a12.85,12.85,0,0,1-3.39-8.85q.12-178,0-356.05c0-3.1-.27-6.2-.39-9.3-.23-5.79-.91-11.75,5.54-15,.21-.11.23-.58.4-1.05-4.71-3.45-9.28-7.22-14.26-10.31-4.81-3-7.33-6.74-6.59-12.5a9.25,9.25,0,0,0-.31-2.11c-2.08-.57-4.11-1.1-6.12-1.69-4.71-1.38-5.48-2.31-5.49-7.3q0-17.8.08-35.61a38.7,38.7,0,0,1,.35-4.42,5.61,5.61,0,0,1,4.54-5.16l7-1.78v-7q0-81.6,0-163.19c0-5.94.13-11.87.13-17.8a9.37,9.37,0,0,1,2.85-7.06c8.88-9,17.57-18.12,26.47-27.05C797.93,468.32,809.54,457,821,445.55c2.16-2.15,4.16-4.46,6.53-7-4.44-1-5.6-3.61-5.51-7.41.16-6.59,0-13.18.07-19.77.07-5.95,1-7.1,6.54-8.76,3.07-.93,6.1-2,9.28-3.05,0-3.48-.26-6.63.06-9.72.55-5.58-.7-10.36-4.74-14.35-2.11-2.07-2.66-4.74-2.61-7.69.11-5.93,0-11.87,0-17.8,0-5.28,0-10.55.09-15.83.1-4,1.4-5.25,5.27-5.56,1.14-.09,2.29,0,3.43,0,10.44-.06,20.9.2,31.33-.26,9.15-.4,17.83.61,25.89,5.27,1,.57,2.18.74,3.16,1.31,5.37,3.12,12,4.42,15,11h3.53q46.26-.31,92.51-.65c1.27,0,2.86,0,3.73-.68,2-1.65,4.28-1.38,6.53-1.37,16.15,0,32.31.26,48.46.13a28.9,28.9,0,0,1,14.9,3.67c4.53,2.51,7,5.3,6.58,10.77-.4,4.87-.08,9.8-.08,14.54,4.39,1.15,7.42.14,10.32-2.67,5.65-5.47,11.75-10.46,17.41-15.93a11.64,11.64,0,0,1,8.7-3.6c15.34.07,30.68,0,46,.06a9.27,9.27,0,0,1,4.23.81c4.29,2.3,8.61,4.54,11.5,8.84a93.93,93.93,0,0,0,6.25,7.59c5.58,6.67,11.19,13.31,16.72,20,2.82,3.42,2.57,6-.69,8.87-1.84,1.63-3.76,3.18-5.59,4.81a6.21,6.21,0,0,1-7.29,1.05c-3.92-2-7.77-4.12-10.55-7.81-2.67-3.53-5.74-6.74-8.43-10.26a74.13,74.13,0,0,1-4-6.59c-1.55-2.57-3.1-4.76-6.77-4.59-9.77.45-19.57.5-29.35.8a6.3,6.3,0,0,0-3.64,1c-4.12,3.44-8.06,7.09-12.37,10.93C1130.09,389.6,1136.25,393,1142.08,396.85Zm-58.11,42c1.67,1.7,3.22,3.32,4.8,4.9q21,21,42.11,42c6.38,6.37,12.71,12.79,19.26,19,3.11,2.93,4.26,6.16,4.25,10.45-.11,35.91,0,71.83,0,107.75v6.73a30.21,30.21,0,0,0,3.43-2.28c30.4-27.55,42.72-62,38.68-102.83-.23-2.3-1.44-3.49-3-4.74q-14.58-11.62-29.13-23.31-32.77-26.23-65.54-52.47c-3.31-2.64-6.66-5.23-10-7.89Zm95.85,34.42c-14.59-25.91-35-46-60.43-60.92-3-1.73-4.78,0-7.35.66,0,4.73.06,9.3,0,13.87,0,2.27,1.69,3.05,3,4.13q15.09,12.15,30.23,24.2,18.75,15,37.5,30a23.79,23.79,0,0,0,2.41,1.51l.88-.84C1184,481.7,1182.12,477.37,1179.82,473.28Z"/><path class="cls-2" d="M1133.75,784.52c4,1.91,5.16,5.05,4.61,9.17a12.46,12.46,0,0,1-.15,2.31c-.49,1.42-1.67,2.75-1.68,4.12,0,1.57,1.27,3.12,1.37,4.71.25,3.72.14,7.47.14,11.2q0,167.65,0,335.3c0,3.89-.14,7.78,0,11.67a11.92,11.92,0,0,1-3.13,8.48c-9.8,11.49-19.39,23.15-29.19,34.63a12.06,12.06,0,0,0-3.11,8.42c.08,23.81,0,47.63,0,71.45,0,37.2.1,74.41,0,111.61,0,3.37,1.05,5.34,4,7,9.76,5.47,19.29,11.34,29.09,16.72,3,1.67,3.77,3.6,3.28,6.71-1,6.15-1.79,12.31-2.62,18.48q-4.14,31-8.22,62c-.61,4.58-1,9.17-1.54,13.52,8.6,4.75,16.51,9.42,24.69,13.53a33.43,33.43,0,0,1,11.83,10.24,10.63,10.63,0,0,1,2.34,6.82c-.05,17.12-.22,34.25.15,51.36a24.55,24.55,0,0,1-5.45,16.75,13.05,13.05,0,0,1-6.63,4.76c-8,2.43-16,5-24,7.62-5.89,1.92-11.73,4-17.8,6-.11,1.53-.28,2.9-.32,4.27-.11,4.2-.26,8.4-.24,12.6,0,2.63-1,4-3.67,4.44-2.31.33-4.57,1.08-6.87,1.26-13,1-26.05,2.23-39.09,2.71-24.11.9-48.23,1.61-72.35,1.88-46.54.52-93.08,0-139.59-1.81-13.35-.52-26.69-1.72-40-2.81-3.49-.28-6.93-1.34-10.61-2.09-.29-7.2-.56-14-.83-20.58-12.74-4.18-24.83-8.78-37.27-12-7.71-2-12.37-6.45-15.84-12.94a9.86,9.86,0,0,1-1.31-4.33q-.13-29.17,0-58.37a7,7,0,0,1,1.18-3.86c3.65-4.81,7.08-9.89,13.24-12a27.19,27.19,0,0,0,4.07-2.26c6.92-3.81,13.85-7.6,20.95-11.5-.2-1.89-.35-3.57-.56-5.25q-1.14-8.79-2.32-17.57-3.06-22.89-6.14-45.77c-1.11-8.32-2.13-16.66-3.28-25-.44-3.18.5-5.39,3.52-6.8,2.24-1,4.33-2.43,6.48-3.68L807,1402.29v-19.53q0-77.05,0-154.11c0-5-.3-10-.22-14.94a10.72,10.72,0,0,0-2.82-7.57c-8.88-10.42-17.41-21.15-26.53-31.36-4.13-4.62-5.63-9.35-5.62-15.49q.27-103.66.1-207.34,0-71.69.09-143.37a55.29,55.29,0,0,1,1.06-7.72c.06-.39.32-1,.16-1.13-2.7-2.76-1.32-6.16-1.53-9.3a4.79,4.79,0,0,1,2.59-4.59c2-1.33,4-2.79,6.19-4.33-.76-.7-1.17-1.16-1.65-1.51-6.41-4.69-12.77-9.43-19.27-14-2-1.39-3-2.88-2.92-5.35.07-2.73-.25-5.48-.38-7.89l-11.61-2.9c0-14.4,0-28.24,0-42.08,0-2,1-3.08,3-3.48,2.87-.56,5.7-1.34,9-2.12,0-5.47,0-10.75,0-16,0-56,.18-112.08-.13-168.12,0-7.83,2.34-13.28,7.9-18.65,20.39-19.67,40.34-39.78,60.45-59.74,2.07-2.05,4-4.21,6.28-6.55a52.11,52.11,0,0,0-5.77-2.07c-2.29-.51-2.94-1.83-2.91-4q.11-10.05,0-20.08c0-2.7.91-4.39,3.67-5.11,3.3-.85,6.51-2.05,9.81-2.9,2-.51,2.84-1.54,2.82-3.59a73.23,73.23,0,0,1,.2-10.27c.75-6-.74-11-5-15.26-2-2-2.56-4.42-2.53-7.23.11-10,0-19.92,0-29.88,0-1.53.13-3.06.2-4.76a38.82,38.82,0,0,1,4-.51q22.18-.22,44.36-.36a7.88,7.88,0,0,1,3.18.52c7.09,3.15,14.15,6.38,21.21,9.61,3.07,1.4,5.76,3.13,5.06,7.31,1.55.08,2.78.21,4,.2q50-.35,99.92-.72a3.6,3.6,0,0,0,.93,0c1-.28,2-.63,3-.92a14.31,14.31,0,0,1,3.82-1c17.75.06,35.49.29,53.24.31,5,0,8.77,2.81,12.85,5a3.19,3.19,0,0,1,1.46,2.22,141.34,141.34,0,0,1-.08,19.08l-7.29.76a43.77,43.77,0,0,0,15.65,2.45,9.24,9.24,0,0,0,6.28-2.47c5.85-5.37,12-10.42,17.66-16a15,15,0,0,1,11.25-4.47c13.07,0,26.15.08,39.22-.12a21.24,21.24,0,0,1,18.06,8.68c1.72,2.21,3.61,4.28,5.42,6.42q8.46,10,16.9,19.95c3.09,3.69,3,3.72-.76,6.93a35.17,35.17,0,0,1-4.34,3.52,4,4,0,0,1-3.32.42c-3-1.67-6.07-3.32-8.41-5.69-4-4.08-7.58-8.66-11.23-13.11-.73-.9-.9-2.23-1.53-3.24-1.88-3-2.83-7.24-7.44-7.26-11.21,0-22.42.12-33.62.15a8.21,8.21,0,0,0-5.86,2.37c-4.12,3.79-8.38,7.44-12.54,11.2-1.1,1-2.05,2.14-3.23,3.39l5.85,3a182.48,182.48,0,0,1,43.27,30.6c26.76,25.55,44.49,56.14,51.33,92.68a12.42,12.42,0,0,0,5.12,8.31c8.42,6.4,16.59,13.14,25,19.6a7.06,7.06,0,0,1,3,6.35c-.13,5.29,0,10.59,0,15.88q0,181.18,0,362.38c0,6.23.12,12.46.13,18.68q.08,73.32.12,146.64a13.08,13.08,0,0,0,0,1.4c.23,2.21-.72,3.71-2.4,5.18-10.87,9.55-21.61,19.26-32.46,28.84-7.47,6.59-15,13.06-22.58,19.58-1.29,1.11-2.39,2.07-4.51,1.23-6.23-2.48-10.3-7.07-13.89-12.66,1.43-1.36,2.61-2.59,3.89-3.69q13.08-11.3,26.19-22.54c7.55-6.5,15.07-13,22.67-19.48a8.21,8.21,0,0,0,3.2-7.26c-.22-4,0-8.09,0-12.13q0-253.81,0-507.63c0-4.51,0-9-.14-13.54,0-1.16-.24-2.68-1-3.4-2.94-2.87-6.12-5.48-10-8.84,0,2,0,2.92,0,3.81a130.6,130.6,0,0,1-6.1,41.84c-10.33,32.75-30.2,58.26-59.15,76.66-2.54,1.61-3.63,3.24-3.59,6.29.16,12.61,0,25.22.08,37.83,0,1.36.2,2.72.31,4.17l11.69,3c0,15.05.24,29.77-.25,44.66l-11.63,2.74c-.1,2.28-.37,4.61-.26,6.91a7.15,7.15,0,0,1-3.49,6.63c-4.33,3-8.59,6.19-12.86,9.31-2.47,1.81-4.92,3.66-7.66,5.7C1131,782.54,1132.26,783.81,1133.75,784.52Zm-358.7,382c3,.62,6.12,1.48,9.27,1.85,6.47.77,13,1.45,19.46,1.85,8.84.54,17.71.68,26.55,1.19,34,2,68.1,1.86,102.17,1.91,12.6,0,25.2.72,37.8.65,23.34-.12,46.68-.53,70-.93,10.26-.17,20.52-.51,30.77-1,11.33-.5,22.66-1,34-1.86,8.34-.61,16.65-1.69,25-2.64a32.23,32.23,0,0,0,4.25-1.07V806.11c-4.42.5-8.67,1-12.92,1.45-5.09.55-10.17,1.29-15.28,1.52-18,.83-36,1.48-54,2.17-7.61.29-15.23.66-22.84.73-37.82.34-75.63.72-113.45.81-17.12,0-34.23-.52-51.35-.9-8.86-.2-17.72-.46-26.57-.93-15.52-.84-31-1.75-46.52-2.86-5.37-.39-10.7-1.44-16.25-2.22Zm303.87,47.28c-9.92.67-19.84,1.32-29.77,1.71-40,1.58-79.94,2.09-119.93,1.77q-26.37-.21-52.74-1-20.26-.58-40.52-1.88c-8.34-.51-16.64-1.6-25.29-2.47v190.94c1.86.32,3.9.78,6,1,7.69.91,15.38,2,23.1,2.54,8.68.63,17.39.77,26.08,1.08,48.85,1.74,97.71,1,146.57.88,13.05,0,26.12-.51,39.17-1,10.24-.39,20.47-1,30.69-1.81,5.68-.43,11.31-1.39,17.12-2.14V1212C1092.18,1212.63,1085.56,1213.31,1078.92,1213.76ZM760.05,706.9c3.12.64,6.41,1.37,9.72,2,2.29.4,4.6.69,6.91.88,4.92.4,9.86.64,14.77,1.06,3.71.32,7.4.82,11.09,1.24a19.1,19.1,0,0,0,2.71.25c2.93-.11,5.88-.59,8.78-.41,5.25.33,10.48,1,15.72,1.58.92.09,1.86,0,2.79.06,14,.05,28-.27,42,.23,47.45,1.71,94.9.5,142.35.66,16,.05,32-.52,48.05-1,10.09-.31,20.17-1.07,30.26-1.52,2.14-.09,4.3.45,6.45.41,2.44-.06,4.87-.49,7.31-.69,3.87-.31,7.74-.52,11.61-.87,4.91-.45,9.81-1.09,14.73-1.49a52.12,52.12,0,0,1,8.83-.16c1.34.13,2.74,1.17,3.81-.15a20.76,20.76,0,0,0,2.41-4.3,4.72,4.72,0,0,0,.08-1.85q0-20.07,0-40.15a36.84,36.84,0,0,0-.42-3.93,17.17,17.17,0,0,0-2.39.84,152,152,0,0,1-52.95,16.78,180.92,180.92,0,0,1-94.64-14c-37.58-16.68-66.81-42.8-87-78.68A152.74,152.74,0,0,1,894,525c-.07-.62-.16-1.23-.27-1.84-.24-1.22-.49-2.44-.82-4.06-1.29-.1-2.63-.25-4-.28-18.2-.38-36.4-.6-54.59-1.15-12.89-.38-25.79-.95-38.65-1.91-11-.82-21.89-2.32-32.84-3.5a23.29,23.29,0,0,0-2.64,0C759.31,516.18,759.08,700.68,760.05,706.9Zm369.57,722.28c-7.26.73-14.52,1.6-21.79,2-16.14.85-32.29,1.47-48.44,2.14-7,.3-14,.66-21,.71-45.27.34-90.55.69-135.83.82-15.24,0-30.49-.44-45.73-.92-14.75-.45-29.52-.93-44.25-1.91-11.9-.79-23.76-2.34-35.64-3.55-.89-.09-1.77-.15-3.22-.28,4.16,31.16,8.26,61.91,12.44,93.29,4.11.64,8.19,1.28,12.27,1.89,1.23.19,2.48.21,3.7.42a3.17,3.17,0,0,1,2.94,3.07c.12,1.39.34,2.78.36,4.17.12,6.38.17,12.76.27,19.14,0,1.51.13,3,.22,4.89l16.15,1.28a39.28,39.28,0,0,0,.75-6,9.08,9.08,0,0,1,3.58-7.64c5.4-4.69,10.7-9.51,16-14.32a7.21,7.21,0,0,1,5.43-2.1c18.18.65,36.36,1.21,54.54,1.82a12.36,12.36,0,0,1,2.14.51c1.79,9.79.63,19.76,1.34,29.89,1.3.13,2.49.34,3.68.35,12.14.07,24.28.08,36.42.18,4.5,0,9,.48,13.52.44,13.51-.12,27-.38,41.12-.6.33-10.17.66-20,1-30.29,1.53-.19,2.86-.47,4.2-.51q19.81-.52,39.65-1c4.65-.1,9.31,0,14-.17a8.16,8.16,0,0,1,6.2,2.59c5.12,4.77,10.24,9.55,15.45,14.22a5.93,5.93,0,0,1,2.31,4.79c0,2.31.3,4.63.46,6.86,4.56,1.24,11.58.94,18.26-.76.81-9.79-.42-19.77,1.3-30.06l20-3c4.16-31.13,8.27-61.91,12.49-93.52C1133.5,1428.49,1131.57,1429,1129.62,1429.18Zm1.2-915c-5.7.63-11.42,1.29-17.14,1.6-9.78.53-19.58.9-29.37,1.17-25.19.69-50.38,1.5-75.57,1.88-30.19.46-60.39.51-90.58.74H912c.55,3.87.89,7.21,1.52,10.51,8.1,42.22,31,74.72,65.73,99.27a162.18,162.18,0,0,0,63,26.77c6.52,1.28,13.25,1.45,19.83,2.5,7.78,1.23,15.52.36,23.25-.13a129.32,129.32,0,0,0,47-12.11c5.19-2.43,10.08-5.48,15.21-8.06a4.74,4.74,0,0,0,3-5.19c-.08-.93,0-1.87,0-2.81V511.75C1143.42,512.63,1137.13,513.48,1130.82,514.19Zm31.48,196.13c-1.35.12-2.38.15-3.39.3-5.06.74-10.09,1.79-15.18,2.2-11,.88-22,1.63-33,2.09-19.42.83-38.84,1.41-58.27,2.07-6.83.24-13.67.56-20.51.63-36,.34-71.89.77-107.84.84-20.07,0-40.14-.52-60.21-.9q-16.56-.3-33.12-.93c-13.51-.52-27-1-40.52-1.91-12.38-.87-24.72-2.34-37.07-3.59-1.67-.17-3.33-.57-5.41-.93-.15,1.52-.39,2.87-.4,4.21q0,14.48,0,29c0,4.31.12,4.16,4.29,4.92,17.32,3.16,34.8,4.25,52.36,4.7,18.33.46,36.66,1.24,55,1.82,60.06,1.91,120.13.73,180.19.68,12.29,0,24.58-.49,36.86-.93,14-.5,28-.94,41.91-1.88,12.84-.87,25.64-2.34,38.45-3.62a53.43,53.43,0,0,0,5.89-1.29ZM954.49,439.44h-22.6C916.43,462.54,910,488,912.2,516.13c1.5.12,2.85.31,4.19.31,28.16,0,56.33.09,84.49-.07,17.27-.1,34.53-.45,51.79-.93,16.62-.45,33.25-.93,49.84-1.92,13.62-.81,27.19-2.35,40.78-3.65a61.66,61.66,0,0,0,6.38-1.29,16.17,16.17,0,0,0-1.71-2.66q-20-19.92-40.09-39.77c-9.62-9.53-19.33-19-28.81-28.63-2.49-2.53-5-3.13-8.32-2.55a109.24,109.24,0,0,1-13.86,1.55q-34.71,1.44-69.44,2.63c-5,.18-10,.19-14.93.14a8.83,8.83,0,0,0-5.63,1.75c-2.86,2.11-5.84,4-9,6.19C954.7,445.18,953,443.05,954.49,439.44Zm117-55.67a163.42,163.42,0,0,1,68.42,29c22.38,16.08,40.07,36.28,52.19,61.13a138.9,138.9,0,0,1,14.41,66.3c-.94,29.64-11,55.63-30.64,77.71-19.47,21.87-44,35-72.59,41a154.22,154.22,0,0,1-44.52,2.49,161.44,161.44,0,0,1-55-14.67A169.21,169.21,0,0,1,940.62,597c-17.21-22.06-28.15-46.85-31.29-74.75-6.1-54.11,20.75-102.85,68.91-126.62a147.69,147.69,0,0,1,44.34-13.41c4.14-.61,8.36-.68,12.52-1.14a10.31,10.31,0,0,0,4.38-1.19c4.65-3.07,9.15-6.38,14.62-10.25-2.56-.53-4.23-1.14-5.91-1.18-43-1.13-80.93,11.52-112,41.84-22.24,21.69-35.2,48.32-39.07,79.2-3.64,29.16,1.27,56.95,13.89,83.46,16.61,34.88,42.3,61.07,76,79.67a182.77,182.77,0,0,0,55.47,19.65A169.7,169.7,0,0,0,1088,674.1c26.91-2.34,51.83-11,74-26.82,26.13-18.67,43.91-43.45,52.34-74.42,9.77-35.86,5.61-70.66-10.56-103.92-20.45-42.07-53.36-70.83-96.39-88.38a175.73,175.73,0,0,0-36.24-10.06,6.87,6.87,0,0,0-4.45.63c-4.56,2.88-8.93,6.07-14.17,9.7C1059.59,381.92,1065.57,382.75,1071.53,383.77Zm47.73,787.94c-5.71.55-11.42,1.28-17.14,1.61-9.47.53-19,.72-28.43,1.2-30.3,1.52-60.63,1.77-91,2-13.06.07-26.13.66-39.2.59-21.78-.12-43.56-.53-65.34-.91q-16.09-.29-32.19-.93c-12.89-.52-25.78-1.08-38.65-1.93-8.51-.57-17-1.7-25.47-2.55-.91-.09-1.85,0-3.26,0a23.4,23.4,0,0,0,1.69,2.84c8.87,10.63,17.84,21.17,26.6,31.89a10.88,10.88,0,0,0,7.55,4c5.85.72,11.71,1.4,17.59,1.81,7.28.52,14.58.86,21.87,1.07,14.46.42,28.92.88,43.38,1,33.76.34,67.52.63,101.28.7,13.84,0,27.68-.45,41.52-.94,12.58-.44,25.15-1.1,37.71-1.85,5.72-.35,11.41-1.26,17.13-1.72,3.94-.31,6.48-2.63,8.81-5.42l25.75-30.8c.56-.67,1-1.46,1.85-2.75ZM771.19,510.77c7.4.78,14.82,1.48,22.25,1.92,9.14.54,18.3.85,27.45,1.13q33.08,1,66.15,1.85c1.83.05,3.67,0,6.15,0-1.39-27.18,4.11-52.49,17.13-76.48a29.86,29.86,0,0,0-3.55-.67c-2.17-.1-4.35,0-6.53-.08-12.11-.35-24.24-.48-36.34-1.14-8.66-.47-17.28-1.59-25.91-2.55-2.48-.28-4.54-.07-6.29,1.95-1.42,1.64-3.16,3-4.7,4.53q-30.36,30.33-60.7,60.69c-2,2-3.81,4.06-6.46,6.9C764.25,509.6,767.7,510.41,771.19,510.77Zm316.46-102.45c-.05,5-.06,10-.09,14.95,0,1.24,0,2.49-.06,3.73a3.86,3.86,0,0,1-3.06,4.1c-1.73.5-3.38,1.25-5.57,2.08,2.13,2.21,3.9,4.13,5.76,6q24.9,24.63,49.82,49.23c5.43,5.36,10.79,10.78,16.32,16a7.76,7.76,0,0,1,2.51,6.16c0,13.08.08,26.15.09,39.22q.06,39,.07,78c0,1.79.14,3.59.25,6.36,2.94-2.29,5.19-3.89,7.28-5.67,22.17-18.85,36-42.54,41.06-71.22,2.11-11.88,2-23.84,1.11-35.83-.28-3.54-1.94-5.86-4.67-8q-52-41-104-82.2c-2.8-2.21-4.36-4.42-4.09-8.14.31-4.33,0-8.71,0-13.07,0-1.37-.15-2.73-.22-4C1087.53,405.3,1087.67,406.92,1087.65,408.32Zm35.23,1008.93c-5.76-3.37-11.58-6.66-17.29-10.13a8.78,8.78,0,0,0-6.14-1.14c-8.76,1.12-17.53,2.35-26.33,2.85-20,1.11-40,1.92-60.08,2.64-9,.33-18,.21-27.07.21-29.1,0-58.2.13-87.29-.21-18.18-.21-36.37-1-54.54-1.88-9.91-.49-19.91-1.08-29.62-2.92-5.79-1.09-10,.12-14.67,3-7.24,4.54-14.72,8.69-22.08,13-.9.52-1.73,1.15-3,2,4.44,2.1,8.83,2,13,2.32,18.28,1.21,36.58,2.15,54.88,3,10.71.5,21.44.83,32.16.92,44.33.34,88.66.68,133,.76,17.57,0,35.15-.49,52.71-1q20-.59,40-1.83c10.06-.63,20.08-1.77,30.11-2.75a39.77,39.77,0,0,0,5.16-1.34C1130.85,1421.93,1126.87,1419.58,1122.88,1417.25Zm-227.27,211.5c37.92,1.47,75.86,1.62,114.06,0v-46.41c-2.65-.89-103.85-1.44-114.06-.55Zm-93.77,28.75c5.1.75,9.95,1.57,14.83,2.13,4.32.48,8.67.78,13,1,10.72.44,21.44.66,32.16,1.14,40.43,1.8,80.88,1.88,121.33,1.67,19.14-.1,38.28-.51,57.41-1q20-.55,40.05-1.84c8.34-.54,16.65-1.74,25-2.66a13.85,13.85,0,0,0,2.06-.63v-16.74c-3.88.38-7.55.77-11.23,1.1-6.18.57-12.35,1.35-18.54,1.6-24.86,1-49.73,2-74.6,2.57-20.38.45-40.77.44-61.16.31q-36.4-.24-72.82-1.07c-13.67-.31-27.34-1-41-1.91-8-.51-16-1.72-24.05-2.6-.61-.07-1.23,0-2.43,0ZM784.27,780.1c2.5,1.57,5.85,2.07,8.89,2.45,6.77.86,13.58,1.51,20.39,1.91,9.31.54,18.63.86,28,1.13,22.38.66,44.76,1.61,67.15,1.76,38.44.25,76.89.07,115.33-.1,12.59,0,25.19-.5,37.78-1,11.64-.45,23.28-1,34.9-1.84,8-.58,16-1.64,24-2.69a13.37,13.37,0,0,0,5.58-2.08c5.65-3.85,11.14-7.94,16.68-12,.33-.24.49-.71.92-1.37-3.05.3-5.77.66-8.5.83-15.81,1-31.61,2.07-47.43,2.94-8.68.49-17.39.62-26.09,1-38.56,1.52-77.15,1.93-115.73,1.72q-44.82-.24-89.63-1.1-24.71-.47-49.39-1.91c-13.32-.78-26.59-2.29-39.88-3.46a14.1,14.1,0,0,0-2,.3C772.1,771.57,778,776.15,784.27,780.1ZM759.8,762c3.2.66,6.17,1.51,9.2,1.85,6.94.79,13.89,1.49,20.86,1.93,8.68.55,17.38.86,26.08,1.15,20.66.67,41.32,1.6,62,1.81q69.32.72,138.63.76c14.93,0,29.87-.49,44.79-1,15.07-.47,30.14-.93,45.18-1.88,12.69-.8,25.34-2.28,38-3.53a48.09,48.09,0,0,0,5.6-1.24v-8.6c-1.85,0-3.65-.11-5.43,0-7.58.56-15.15,1.38-22.74,1.77-15.52.79-31,1.37-46.57,2-6.84.28-13.67.54-20.51.74-58,1.75-116.08.88-174.12.81-13.38,0-26.76-.49-40.13-.93-14.91-.5-29.83-1.06-44.73-1.89-10.22-.57-20.41-1.67-30.62-2.49-1.67-.14-3.36,0-5.47,0Zm124-358.55c2.29-4.56,4.69-9.09,6.84-13.73,1.07-2.31,2.54-3,5.06-3.08,21.15-.19,42.3-.56,63.45-.77a16.9,16.9,0,0,0,7.95-2c5.23-2.71,10.67-5,16-7.48l3.23-1.53c-.85-9.29-.64-9.84,7.62-20-14.07,0-28.36,0-42.65,0-13.68.06-27.37.23-41.06.32-7.31.05-14.63.09-21.94,0a7.15,7.15,0,0,0-5.78,2.3c-8.26,8.68-16.61,17.26-24.87,25.94a5.51,5.51,0,0,0-1.65,3.17c-.16,5.73-.08,11.46-.08,18.22Zm-57.21,1154v59.07c18.76,1,37.29,1.67,56.1,1.14v-58.58Zm197.37,1.66c-1.14,3.86-1.44,52.08-.49,58,4.74,1.35,47.58.77,56.28-.81v-58.67ZM1244.34,545.18v6.72q0,119.52,0,239.06,0,138.43,0,276.88c0,4.51,0,9,0,13.54s.22,4.65,5.44,5.89V542.69ZM1110.19,405.76c0,6.25-.21,12.58.15,18.87.09,1.45,1.93,3,3.3,4.14,8.83,7.12,17.75,14.14,26.64,21.19l53,41.93a12.5,12.5,0,0,0,3.29,1.95A142.83,142.83,0,0,0,1165.82,440a163.27,163.27,0,0,0-50-38.36C1116.09,405.93,1112.93,405.14,1110.19,405.76ZM1084,1627c15.81.57,31.2-1.24,47.26-2,.17-15.85,0-31.61.09-47.89l-47.35,2.64Zm33.19,1.66c-2.17.14-4.33.43-6.49.5q-32.16,1.13-64.31,2.17c-9,.29-18,.58-27,.68-28.15.34-56.31.68-84.46.82-10.42.05-20.83-.47-31.25-.72-1.52,0-3,0-5.25,0,3,4.64,6.93,7.39,10.46,10.48.65.57,2.1.29,3.18.29,33.76,0,67.52,0,101.28-.12,11.82,0,23.63-.44,35.44-.89s23.88-1.35,35.83-1.76c17.62-.61,34.11-5.86,50.44-11.85.25-.09.41-.41.77-.79C1129.48,1627.87,1123.33,1628.25,1117.19,1628.66Zm-294.9-48.94c-15.15-1.32-30.14-1.44-45.48-3-.16,2-.39,3.51-.39,5q-.06,19.14,0,38.28c0,4.75.25,4.88,5,5.13,11.62.62,23.25,1.3,34.88,1.91,1.83.1,3.66,0,6,0ZM785.37,790.93c4.63.52,9.27.88,13.92,1.15q22.55,1.33,45.11,2.53c3.72.19,7.46.11,11.19.22,55.22,1.69,110.44,1,165.66.85,14.3,0,28.61-.52,42.91-1,12.57-.43,25.14-1,37.7-1.83,9.43-.63,18.83-1.76,28.24-2.72a24,24,0,0,0,3.62-1c-3.6-5-6.12-5.86-11.6-4.8a130.78,130.78,0,0,1-16.1,2.28c-13.79.91-27.61,1.5-41.42,2.16-57.21,2.75-114.46,1.81-171.7,1.59-17.87-.07-35.74-1-53.61-1.75-11.94-.48-23.89-1.11-35.82-2a158.12,158.12,0,0,1-17-2.61c-2.46-.46-4.53-.44-6.46,1.35-1.22,1.13-2.64,2-4,3l.19,1C779.3,789.91,782.31,790.59,785.37,790.93Zm339.91,2.57c-6.17.62-12.34,1.34-18.53,1.72q-24.18,1.44-48.39,2.6c-4.81.24-9.64,0-14.46.18-50.24,1.59-100.49,1-150.73.8-13.53,0-27.06-.48-40.58-.94s-27.33-.94-41-1.89c-11.44-.8-22.83-2.31-34.24-3.48a20,20,0,0,0-2.19,0c-.77,4-.63,4.52,2.57,5.07,4.58.78,9.19,1.46,13.82,1.86,6.18.54,12.39.86,18.6,1.12q23.51,1,47,1.9c9.63.36,19.26.74,28.89.86,27.69.36,55.37.82,83.06.8,25.35,0,50.7-.56,76.05-1,9.32-.15,18.64-.5,28-.92,11.47-.52,23-1.05,34.41-1.9,8-.59,16-1.64,24-2.68,3.73-.48,3.86-.92,3.2-5.24C1131.64,792.75,1128.46,793.18,1125.28,793.5ZM896.37,1578.27H1009.2c-2.69-5.66-5.19-10.9-7.69-16.15H904.73C902.05,1567.31,899.36,1572.49,896.37,1578.27ZM1013,1547c2.13,3.3,5.49,5.87,8.56,8.46.87.74,2.65.59,4,.57q22.83-.42,45.67-1c2.75-.07,5.5-.56,8.58-.89.11-2,.2-3.81.34-6.29-5.93.35-11.31.87-16.7.94-5.23.07-10.55.56-15.74-.25l0-1.75a33,33,0,0,1,4.67-.86c3.88-.16,7.77-.06,11.65-.2,4.32-.16,8.63-.47,14-.77-4.18-3.93-7.63-7.18-11.1-10.42-1.14-1.06-2.42-2-3.46-3.12a6.54,6.54,0,0,0-5.41-2.06c-14.91.39-29.82.67-44.73,1.08-2.46.07-4.92.6-8,1C1008,1537,1010,1542.33,1013,1547Zm-186.67,7c3.51.37,7,.84,10.49,1.06,3.11.19,6.23.06,9.34.14,10.41.28,20.84.36,31.23,1,5.05.29,8.74-1.14,11.58-6-4.76-.34-9.28-.79-13.81-1-5.13-.21-10.27-.14-15.4-.28-1.25,0-2.93.54-3.45-1.88,5.94-1.83,11.92-.54,17.86-.44s12.12,0,18.73,0c2.48-4.74,5.06-9.64,8-15.18a64.52,64.52,0,0,0-6.57-1c-3.58-.17-7.16-.05-10.74-.14-11.34-.27-22.69-.54-34-.9a8.75,8.75,0,0,0-6.74,2.43c-5.34,5-10.84,9.8-16.46,14.85ZM844,335.4c-.16,2.09-.39,3.72-.4,5.36,0,8.54.1,17.09,0,25.63a10.85,10.85,0,0,0,2.65,7.66c1.91,2.23,3.61,4.64,5.61,7.24,1.41-1.36,2.66-2.49,3.82-3.69,7.33-7.61,14.62-15.26,22-22.82a8.9,8.9,0,0,0,2.78-7.07c-.18-4.13-.05-8.28-.05-13.12ZM778.47,1629.61c6.92,2.27,13.78,4.74,20.78,6.66a99.42,99.42,0,0,0,15,2.78c5.84.68,11.75,1,17.64,1.17,18.6.7,37.22,1.27,55.83,2,5.11.19,10.21.62,15.8,1-.7-2.71-2.79-3.68-4.07-5.23-3.68-4.47-8.23-6.08-14.19-6-16,.12-32-.39-48-.9-14.11-.45-28.22-1.14-42.32-1.89-5.87-.31-11.72-1.06-17.59-1.57-1-.09-2,0-3,0l-.1.46C775.67,1628.51,777,1629.13,778.47,1629.61Zm350.16-828.54c-10.2.88-20.39,2-30.6,2.64-32.91,2.14-65.86,2.82-98.84,2.93-25,.08-50.08.67-75.12.51-23-.15-46-.89-69-1.58q-24.94-.74-49.86-2.07c-7.89-.44-15.73-1.67-23.6-2.41a23.24,23.24,0,0,0-4.72.5l-.12,1.2a27.14,27.14,0,0,0,4.59,1.24c7.72.76,15.44,1.59,23.18,2,15.19.8,30.4,1.36,45.61,2,9,.36,18,.79,27,.87,41.37.35,82.74.71,124.11.8,17.26,0,34.52-.58,51.78-1,8.08-.18,16.16-.43,24.22-.89q21.62-1.23,43.21-2.8c4.21-.31,8.38-1.24,12.93-1.94C1132,800.5,1130.26,800.92,1128.63,801.07Zm33.95,750.68-16.28,2.14c-1.23,3.35-1.69,51-.48,59,5.31.2,10.54-.85,16.68-2C1162.69,1591,1162.56,1571.54,1162.58,1551.75Zm36.69-1049.94a8.54,8.54,0,0,0-2.73-3.61q-30.86-24.56-61.79-49c-8.17-6.47-16.3-13-24.57-19.32a7.05,7.05,0,0,1-3-6.36c.12-5.73,0-11.46,0-17.52h-6.34c0,7.75-.14,15.35.13,22.93,0,1.33,1.58,2.88,2.8,3.87,8.93,7.27,18,14.41,27,21.6q33.15,26.5,66.32,53c1.17.94,2.41,1.8,4.3,3.21A90.05,90.05,0,0,0,1199.27,501.81ZM762.09,1613.15v-59.24c-2.32-.39-4.71-.82-7.12-1.18s-4.88-.66-7.3-1c-1,3.33-1.3,52.49-.29,59.13Zm344.17-84.73a14.78,14.78,0,0,0-.67,2.94c0,7.29,0,14.58,0,21.87,0,1.59.14,2.92,1.75,3.94,7.72,4.85,15.37,9.83,23.47,15,1-5,.4-9.6.52-14.14s0-9,0-13.64Zm-308.15,2.09c-6.05,3.8-12,7.73-18.15,11.42-2.53,1.52-3.71,3.27-3.63,6.36.22,7.61.08,15.22.08,23.84,9.4-5.33,17.6-11,26-16.17v-27.69C800.49,1529.25,799.25,1529.8,798.11,1530.51ZM1076,387.55c-3.7-.72-7.43-1.55-11.2-2.16-3-.49-6.15-.65-9.21-1.08-5.17-.71-9.75.24-13.74,3.89a92,92,0,0,1-7.62,5.66c1.27,2.92,2.43,5.58,3.82,8.8l38,1.24Zm62.4-25.2h5.08c11.18,0,22.36.19,33.54,0a7.85,7.85,0,0,1,7,3.51c5.78,7.49,11.77,14.82,17.7,22.19,1,1.18,2,2.25,3.32,3.64l5.57-4.44c-2.37-2.87-4.58-5.59-6.84-8.27-5.7-6.77-11.44-13.5-17.12-20.28-1.35-1.61-2.7-2.67-5-2.65-14.44.12-28.88.07-43.33.08a18.74,18.74,0,0,0-2,.3C1137,358.52,1137.66,360.23,1138.43,362.35ZM1084,1576.5c14.35-.13,28.54-1.28,43.25-2.06-.69-1-.85-1.52-1.19-1.73-6.9-4.46-13.77-9-20.77-13.25a9.08,9.08,0,0,0-4.84-1c-5.38.21-10.76.69-16.45,1.09Zm-261.82.14v-17.3c-5.4-.38-10.61-.85-15.82-1.06a7.38,7.38,0,0,0-3.89,1.15c-7,4.31-13.9,8.74-20.82,13.15-.22.15-.31.51-1,1.76Zm300.94-40.84c6,4.14,11.94,8.37,17.77,12.75a8.91,8.91,0,0,0,5.93,2.07,58.69,58.69,0,0,0,14.53-2c-1.92-2.61-2.89-5.7-5.87-6.17-2.43-.38-5,.41-7.62.68-.15-3.08,2.14-2.59,3.88-3.42a19.57,19.57,0,0,0-2.44-2c-7.2-4-14.4-8-21.67-11.81a9.28,9.28,0,0,0-4.79-1.27c-4.25.39-8.45,1.23-13.71,2C1114.36,1530.1,1118.82,1532.84,1123.12,1535.8Zm119.52-448-54.23,46.64,4.75,5.52,55.8-49.08Zm-108,534.08c4.45-3.87,7.59-7.25,7.43-13.42q-.64-24.7,0-49.44c.14-5.78-2.39-8.83-7.43-11.38Zm-54.86,5.47v-7.27c-6.47,0-12.64-.1-18.8,0-10.38.19-20.77.52-31.15.78a32.54,32.54,0,0,1-4.19,0,6,6,0,0,0-6.24,3,52.37,52.37,0,0,1-3.47,4.41C1021.72,1629.49,1071.41,1628.72,1079.82,1627.39ZM912.3,435.09c3.88-3.66,4.92-8.12,4.62-13.17-.26-4.29-.06-8.61-.06-13-6.17-2.2-12.06-.9-18.46-1.34-.43,4.6-.17,9-.21,13.45s0,9,0,14ZM772.58,1548.53c-5.12,1.55-7,4-7,9.12,0,17,.25,33.93-.14,50.88-.14,5.87,2.91,9,6.84,12.32C773.24,1616.87,773.46,1554.35,772.58,1548.53ZM889,1627.36c-5-6.36-5-6.29-13.08-6.46-14.75-.3-29.51-.69-44.26-1-1.66,0-3.33,0-5.19,0v7a30.53,30.53,0,0,0,5.19,1c18.64.44,37.28.78,55.91,1.14a18.16,18.16,0,0,0,2.17-.27A15.3,15.3,0,0,0,889,1627.36Zm-126.35-76.93c3.41,0,5.41-3,7.72-5.83-4.09-.77-8-.21-12.09-2.85a23.09,23.09,0,0,1,11.55-.13,9.62,9.62,0,0,0,7.85-1.51c6.69-4.44,13.54-8.64,21.23-13.51-5.22-.94-9.38-1.79-13.58-2.35-.91-.12-2,.71-2.94,1.22-8.86,4.79-17.73,9.54-26.54,14.43-3.33,1.85-5.42,5-8.33,9.12C753.17,1549.59,757.91,1550.45,762.64,1550.43Zm278-1196.23c1.67,1.84,3.51,3.52,5.09,5.43a4.62,4.62,0,0,0,5,1.64c6.83-1.35,13.68-2.58,20.52-3.9,5-1,5.23-.92,7.84,4.88-.54.36-1.33.83-2.07,1.37s-1.4,1.12-2.69,2.17h10.94V350.65c-9.06-.09-18-.1-27-.3s-17.7-.56-26.55-.85A12.91,12.91,0,0,1,1040.66,354.2ZM892,1552.21c-3.76,3-6.15,5.68-6.06,10.59.3,17.24.34,34.5,0,51.74-.11,5.11,2.65,7.75,6.08,11.62ZM909.5,350.68c1.88,1.22,95.17.74,110.9-.55-1.91-1.94-3.55-3.34-6.26-3.27-10.56.26-21.12.39-31.69.58-4,.07-8.07.2-12.11.2q-27.74,0-55.48,0H909.5ZM1014,1625.07c3.55-2.76,5.44-5.32,5.39-9.57q-.32-26.77,0-53.55c0-4.18-1.81-6.49-5.4-8.79ZM959.2,410.75c-4.34,3.76-8.57,7.64-12.89,11.42a7.42,7.42,0,0,0-2.71,6.56c.16,2.27,0,4.57,0,7.39,4.26,0,8,.13,11.62-.08a4.42,4.42,0,0,0,2.9-1.79c1.67-2.42,3.05-5,4.53-7.59a3.36,3.36,0,0,0,.52-1.28,123.1,123.1,0,0,0,.14-17.25A35.79,35.79,0,0,0,959.2,410.75Zm31.26,25.5,18.22-1.12V411.71l-19.15,13.37C989.83,428.76,990.12,432.26,990.46,436.25ZM884.18,335a72.08,72.08,0,0,0-.1,15h21.84v-8.59C898.86,339.31,892.85,333.68,884.18,335Zm151.13,71.79V434.1c2,.12,3.48.28,5,.28s3.06-.13,5.09-.22c.79-9,.3-17.91.31-27.33Zm-15.54-39.95,24.22-4.47c-2.85-2.84-4.92-5.14-7.25-7.11a5.85,5.85,0,0,0-3.48-.82c-7.61-.07-15.23,0-22.54,0ZM898.15,404.21h18.06c.93-4.54-.43-8.85-.9-13.53-5.88-1.45-11.72-.54-18.47-.76C897.31,395,897.72,399.46,898.15,404.21Zm-26.52,30v-26.4h-8.34c-1.19,3.7-1.4,20.94-.27,26.4Zm160.72-2.91V411.92H1021.4v20.49ZM875.21,411.62v19.62h10.55c.63-6.26.25-12.67.13-19.62ZM836.88,405l-8.06,2.57c0,6.68-.06,13.15.09,19.62a3.3,3.3,0,0,0,1.8,2.3,52,52,0,0,0,6.17,1.83Zm235.3,26.41,7.84-2.27c.08-2.58.21-5.17.24-7.75,0-3.42,0-6.84,0-10.26-.1-3.77-.57-4.2-4.41-4.34-1.07,0-2.14.11-3.63.19Zm176.4,108.3c-8.89-7.69-17.84-14.36-27.28-21.84.38,3.06.52,5.31,1,7.5a4.91,4.91,0,0,0,1.64,2.6c6.13,4.95,12.32,9.8,18.59,14.76ZM957.92,442.24l.42.73a12.22,12.22,0,0,0,1.9-.89q57.18-40.15,114.34-80.35c-.25-.32-.51-.63-.77-1ZM840.39,368.16V359c0-6.67,0-13.33,0-20,0-5.11,0-5.11-6-7.1-.36,11.09-.14,22-.07,32.95Zm208.93,39c-.25,9.06-.27,17.45,0,26.41l7.37-2.44V409.68ZM858.6,433.34v-25.9l-7.14,2V431Zm258.17-53c5.59-5,11.5-10.14,17.27-15.47a4.24,4.24,0,0,0,.77-3.27c-.19-1.3-1-2.52-1.83-4.41l-20.17,18Zm-264.39,7.87a4.83,4.83,0,0,0-1.88-3.35c-2.54-1.64-5.36-2.86-8.55-4.5v17.14l10.51,5.19C852.46,397.19,852.59,392.7,852.38,388.23Zm66.28,1.22c.14,1.9.23,3.18.33,4.65a28.18,28.18,0,0,0,3,.3c8.09-.07,16.17-.14,24.26-.27,5.13-.08,5.82-.44,10.22-4.68ZM895.28,1553.71c.41,5.87.09,11.8.09,17.83,2.82-2.51,6.41-9.07,6.46-12.32.12-7,0-14,0-21l-1-.29C898.34,1543,894.83,1547.44,895.28,1553.71ZM1079.74,388.28v14.86c3.31.92,6.57.13,10.16-.82V391.14ZM972.31,412.51V427c5-3.44,9.47-6.57,14.06-9.77v-4.73Zm37.58,1137.05c0-4.25-3.06-7.23-5.27-10.83-.11,1.13-.32,2.25-.33,3.38,0,4.35.29,8.73-.07,13-.51,6,2.49,10.63,5.69,15.37C1009.91,1563.53,1010,1556.55,1009.89,1549.56Zm50.72-1139v20l6.08-.67V409.34ZM841.43,409.4v20.11l6,1.26c.67-6.91.22-13.44.25-20.37Zm48.36,5.17c0,5.87,0,11.74,0,18l5,2V409.36C889.84,410.48,889.81,410.48,889.79,414.57Zm255.55,1201.66a3.62,3.62,0,0,0-1.93,1.07,49.4,49.4,0,0,0-5.42,6.5c6-.09,12-.08,17.42-2.58,2.18-1,3.4-4.08,5.66-7C1155.06,1615,1150.19,1615.55,1145.34,1616.23ZM1110.26,398.89c-5.09-2.12-10.2-4.19-15.88-6.52v9.81h18C1112.92,400,1111.54,399.42,1110.26,398.89Zm-29.81-51.69c-1.22-.65-1.87-1.28-2.55-1.32-5.74-.34-11.48-.75-17.22-.82-10-.13-19.92,0-29.88,0h-4.56C1029.73,347,1068.35,348,1080.45,347.2ZM756.34,1615.13a42.2,42.2,0,0,1-6.87-.79c1.44,6.36,6.16,8.11,11.59,8.84,2.88.38,5.78.57,9.42.91C766.69,1618.77,762.94,1614.82,756.34,1615.13Zm441.81-499.46-16.13,14c3.72,3.1,3.87,3.13,6.78.64,4.33-3.71,8.63-7.46,13.3-11.5ZM1013,433.82c4.54-.64,4.61-.64,4.65-4.61q.09-7.44,0-14.9c-.06-3.2-.15-3.19-4.61-4.94ZM839.58,330.53c1.42.56,2.19,1.14,3,1.14,13.31.05,26.63,0,40,0C879.64,329.83,849.93,329.31,839.58,330.53Zm157.16,29c-5.89,2.82-8.1,8.13-5.74,13.73,1-.21,2-.38,3-.68s1.71-.69,2.78-1.14ZM1011.11,390c.13,2.92.25,5.57.41,9.2a134.58,134.58,0,0,0,13.26-9.2Zm-5.58-24c0-2.17-.25-4.33-.32-6.5-.05-1.72-1.15-2.4-2.57-2.83s-2.47.14-2.37,1.73c.23,3.69.6,7.37,1,11.44C1005.44,369.49,1005.51,369.49,1005.53,366Zm-84.64,46.52v10.36l8.62-10.36Zm.23-15.07c7.62,1.3,15.28,1.07,22.93,1.16l.12-1.16Zm107.38,6.67v-5.61c-3.42,1-5.63,3.15-8.63,5.61Zm-38.93,10.7,9.29-6.36-.36-.86-8,1C990.18,410.69,989.94,412.32,989.57,414.85Zm-68.2-10.7,0,.91h15.38l0-1.2A75,75,0,0,0,921.37,404.15Zm85.65-2.26a13.81,13.81,0,0,0-.61-12.09C1005,394.43,1005.71,398,1007,401.89Zm7-34.23c.34-3.66-1.57-5.54-4.75-7.58.25,2.89.43,5.1.67,7.93Zm-27.78,64.71v-4.89l-5.83,4.07.21.82Zm-18.57-11.63h.74V411.6l-.74-.05ZM838.72,371.66l6.08,7.48,1-1C843.64,375.82,842.64,372.4,838.72,371.66ZM756.13,705.79l-6.47,1c2.39,1.7,4.51,1.74,7.27,2.13Zm397.08,3,6.1-1C1154,705.63,1154,705.63,1153.21,708.76Zm-165.52-305v.41h13.61l.08-.41Zm44.1-19.44-10.13,1C1025,385.58,1028.52,386.42,1031.79,384.32ZM985.11,409v-.3H971.39v.3Zm-9.92-4c-2.2-1.92-4.36-1.62-7.59,0Zm9.57,31v-.21h-9V436Zm34.66-28.28,0,.29h9.8v-.29Zm-141.28,0v.4h9.94l-.08-.4Zm43.94.91V409h9.81v-.34Zm73.23-16.12c-.52.06-1.32-.09-1.52.2-.81,1.12-.72,2.2,1.85,3.49C995.49,394.5,995.4,393.5,995.31,392.5ZM850.43,406.93l0-.95h-3.77l0,1.16ZM939.8,430l-1-.06-.3,3.76,1.34.11ZM1054,365.63l.07.53,5.28-.75-.12-.77ZM880.07,434.86v.2h4v-.2Zm148.73.19v-.18h-3.87v.18Zm32.75-28,0-.2-2-.18-.15.38Z"/></svg>