<svg id="Layer_1" data-name="Layer 1" xmlns="http://www.w3.org/2000/svg" viewBox="0 0 2000 2000"><defs><style>.cls-1{fill:#1d1d1b;}</style></defs><path class="cls-1" d="M946.23,1106.39a23.16,23.16,0,0,0,15.51,5.19,21.24,21.24,0,0,0,7.4-1.36c4.51-1.77,9-3.73,13.42-5.65.24-.1.35-.52.8-1.25l-13,4.07c-.42-.69-.68-1.13-1.06-1.77,1.23-.56,2.32-1.17,3.48-1.57,4.25-1.48,8.51-3,12.8-4.29a9.14,9.14,0,0,0,5.1-3.67c5.08-7.22,10.29-14.36,15.54-21.46a9.79,9.79,0,0,0,1.92-6.57c-.13-2.88-.06-5.77-.1-8.65a12.23,12.23,0,0,1,1.87-6.68,9.23,9.23,0,0,0,1.09-1.86c1.57-5.08,5.51-7,10.23-8.45,9.13-2.75,18.17-5.82,27.24-8.77,1.31-.43,2.6-.92,4-1.42l-2.61-3.11c2.47-1.71,3.76,1.07,5.47,1,.31-.42.7-.7.7-1-.21-5.94-.46-11.87-.71-17.93l-2.59-1.71c-.43.36-.89.58-.9.8-.07,2.7,0,5.4-.16,8.09,0,.52-.63,1-1.37,2.14-1.7-5.26-1.37-9.82-.87-14.7a215.1,215.1,0,0,1,20.46-6.81c.4-.1.94.34,1.7.64-2.08,2.94-5.45,2.73-8.1,3.87s-5.71,2-8.55,2.94a2,2,0,0,0,2.21,2.09,9.66,9.66,0,0,0,3.15-.5q16.92-5.6,33.81-11.28a4.31,4.31,0,0,0,.93-.59c-.18-1.62-1.53-1.71-2.93-2.11l-16.16,5.26-7.79-3.44c-8.4,2.73-17,5.48-25.48,8.3-7.86,2.61-15.73,5.2-23.52,8a13.8,13.8,0,0,1-9.46.11c-5.46-1.82-11.06-3.27-16.44-5.3a15,15,0,0,0-12,.31l-3,1.36c-.45,2.94-1,5.77-1.29,8.61q-1.77,15.3-3.43,30.62c-.51,4.6-.49,4.6-4.09,7.61-.37,1.93-.85,3.86-1.06,5.82-.19,1.77-.55,3.73,0,5.33.76,2.26.21,4.21-.11,6.53l-10.52,6.53c-3.77-2.42-6.32-5.68-9.43-8.79.08-1.32-.33-3.06.35-4.07,1.94-2.93,1.74-6.17,2.11-9.35.15-1.25.28-2.51.42-3.77-.79-1.21-1.86-2.3-2.23-3.58a11.55,11.55,0,0,1,0-4.27c1-9.86,2.17-19.7,3.23-29.55a33.17,33.17,0,0,0,0-3.48l-1.93-2.35c3.84-2.25,3.31-5.92,3.35-9.64-6.4-2-11.63-5.87-17.16-9.19q-36.6-22-73.1-44.17c-1.68-1-3.3-2.12-5-3.21a7.17,7.17,0,0,0-1.33.89c-4.28,4.3-4,7.06,1.21,10.2q31.46,19,62.93,38,10.88,6.55,21.74,13.15c1,.6,2.45,1,2.09,2.67-1.12,1-2,.12-2.87-.4q-11.59-6.95-23.15-14L861.06,960c-2.14-1.29-4.32-2.54-6.35-3.73-1.32.52-1.19,1.51-1.17,2.36.1,4.14.28,8.29.37,12.43.23,10.82.41,21.64.64,32.46.27,13.15.58,26.31.85,39.47,0,1.53.35,3.17-1,4.74-.46-.53-1-.85-1-1.22-.19-1.79-.33-3.59-.36-5.39q-.69-33-1.34-66c-.15-7-.37-14.06-.43-21.09a21.9,21.9,0,0,1,.7-5.33,7.8,7.8,0,0,1,1.65-3.33,81.52,81.52,0,0,1,7.32-7.2,13.4,13.4,0,0,1,4.78-2.33c5.35-1.6,10.75-3,16.41-4.58,8.46,2,16.81,5.41,25.33,7.45,1.12-1.27.34-2,0-2.73-2.44-4.83-4.89-9.64-7.42-14.42a13.44,13.44,0,0,1-1.75-5.62c-.19-3.6-.48-7.19-.64-10.79-.09-2,0-4,0-6-3-4.13-5.91-8.22-8.87-12.28a4.64,4.64,0,0,0-1.49-1.47c-6.05-3-10.83-7.75-16.11-11.8a12.65,12.65,0,0,0-1.22-.68c-3.14.17-6.58.38-9.46-1.44-2.56.21-4.25,1.57-5.87,3-7.25,6.5-14.47,13-21.75,19.49-2.25,2-4.24,4.36-7.47,6.11,0-1.11-.25-1.88,0-2.28,2.19-3.08,4.51-6.07,6.73-9.13q7-9.61,13.93-19.28a21.81,21.81,0,0,0,1.62-3.33c.28-.18,1.21-.07.32-.74l-.21.83c-1.73-.29-2.53,1.14-3.56,2-6.56,5.66-13,11.41-19.59,17.06-7.46,6.41-6.12,5.87-14.7,2.63-1.85-.69-3.72-1.34-5.81-2.09-1.12.83-2.31,1.61-3.37,2.53q-22.49,19.5-45,39a36.68,36.68,0,0,1-4.31,3.23c-.47.29-1.27,0-1.89,0-.06-.45-.16-.72-.09-.79,17.15-15.07,34.32-30.12,51.74-45.4-1.34-3.12-4-5.11-6-7.58s-4.18-4.92-6.09-7.15a8.17,8.17,0,0,0-1,0,.92.92,0,0,0-.5.14q-23.1,20-46.18,40c-1.08.93-2,2-3,3-.31,6.82.62,8.32,9.62,15.66-.52,2.11-2.49,2.94-3.9,4.26-2.17,2-4.89,3.38-6,6.64-.7,2-3.21,2.83-5.57,2.29-3-.68-5.92-1.5-9.1-2.33a35.86,35.86,0,0,1-1.47-11.81c1.18-2,2.58-3.69,5.13-4.29a7.5,7.5,0,0,0,2.63-1.77c1.79-1.51,3.53-3.09,4.83-4.23.3-2.06.48-3.29.72-4.88C752,896.84,769.74,882.38,786.81,867c.62-5.13-2.79-9.75-1.76-15.55,1.79-1.71,3.92-3.89,6.2-5.9,6.5-5.72,13.07-11.35,19.6-17,1.76-1.53,3.45-3.14,5-4.61.17-6.39-3.9-12-2.06-18.06l-6.77-11.07-22.46,7.36c-2.55-.65-5-1.47-7.43-1.85a9.05,9.05,0,0,1-6.84-4.73,16.56,16.56,0,0,0-1.13-1.53c-1.72-1-3-.08-4.35.36-16.77,5.51-33.56,11-50.29,16.58-3.92,1.32-7.68,1.91-11.37.17-3.29.87-6.36,1.37-8.92,3.85-2.25,2.16-5.85,1.6-8.45-.42a13.9,13.9,0,0,1-1.63-1.43c-1.44-1.54-4-2.38-3.92-4.87.14-3.38.3-6.83,2.82-9.62,1.67-1.84,3.46-3.18,6.07-2.86a12,12,0,0,0,5.78-1,5.54,5.54,0,0,0,3.57-2.91c1.05-2.21,3.45-3,5.69-3.77q13.6-4.51,27.2-9l26.69-8.8c.84-.28,1.63-.7,2.64-1.15.37-3.53.73-7.08,1.09-10.5,4.52-3.59,8.92-6.63,14.25-8.12,3.47-1,6.89-2.12,10.31-3.23,1.86-.6,3.7-1.29,5.69-2,.41-3.8-.7-7.29-1-10.83-.35-4.13-1.25-8.2-1.61-12.33a31,31,0,0,1,.24-7.51c.55-3.6.9-7.09-.18-10.69a15,15,0,0,1-.3-5.36c.52-7.19,1.25-14.37,1.73-21.56.43-6.52,2-12.82,3.34-19.15.92-4.22,2.09-8.4,3-12.63a130.29,130.29,0,0,1,8.45-25.61c2.22-5.1,4.29-10.26,6.51-15.61-1-.75-1.76-1.45-2.64-2-6.62-4-13.19-8.15-19.91-12-3.24-1.87-6-3.95-6.78-8a12.22,12.22,0,0,1-8.85-4.69,6,6,0,0,1-1.22-4c-.11-4.43,3.2-10,6.85-11.41,4-1.59,8.14,0,12.11,4.75,2.76,1.24,6-.63,8.85,1.27,2.34,1.59,4.91,2.85,7.52,4.33l3.7-5.1c-.93-2-2.57-3.21-4-4.55-8.45-8.13-17-16.18-25.43-24.3-2.07-2-4-4.12-5.94-6.14a30.5,30.5,0,0,1,4.93-11.39c-.86-1-1.72-2-2.72-3Q754.61,494.85,730.45,472c-.79-.74-1.52-1.56-2.35-2.24-2.32-1.92-4.15-4.06-3.44-7.18-3.88-3.75-6.81-7.91-11.57-10.16a4.88,4.88,0,0,1-2.67-5c.24-3.21.55-6.43.83-9.8,4.13-1.76,8.28-1.61,12.37-1.52a4,4,0,0,1,3.81,3.3,5.58,5.58,0,0,0,2,3.06l7.89,6.85,3.87-.68c19.11,17.63,37.83,35.86,57.06,53.95l13.3-5.7c1.44,1.18,3,2.34,4.44,3.67q13.57,12.81,27.1,25.69a12.37,12.37,0,0,1,1.15,1.14c1.87,2.31,4,2.57,6.71,1.35a97.8,97.8,0,0,1,9.68-3.34,13.66,13.66,0,0,1,2.54-.27l9.64,8.23c6.79-4.41,13.52-8.58,20-13.06a103,103,0,0,1,19-10.26c3.8-1.58,7.53-3.32,11.4-5-.58-11.61-4.31-22.43-5.81-34.15,1.07.27,1.91.23,2.18.61a13.81,13.81,0,0,1,1.43,2.88q5.15,12.19,10.26,24.42c.49,1.14,1,2.26,1.67,3.63,1.12-.25,2.32-.2,3.09-.74,2.16-1.51,4.62-2,7.07-2.55,8.26-1.87,16.53-3.65,24.8-5.48.69-.15,1.36-.4,2.28-.67a17.5,17.5,0,0,0,.54-3.07c0-3.06-.15-6.13-.22-9.19-.14-6.13-.29-12.26-.38-18.39a22,22,0,0,1,.32-3c.68,0,1.13-.2,1.35-.05,2.65,1.83,5.27,3.7,7.89,5.58.09.06,0,.33,0,.5a6.49,6.49,0,0,1-.17.69c-2.32.76-3.65-2-6.17-1.79-.13,14.7-.06,29.42.93,44.28l9.78,5.9,3.15-1.26c.36.15.81.2,1,.44a3,3,0,0,0,2.67,1.5c4.69,0,9.38,0,14.07-.06a6.5,6.5,0,0,0,2.6-.6c4.06-1.91,8.07-3.91,12.24-5.94.57-7.65-.11-15-.16-22.37s.08-14.75-.65-22.51a16.37,16.37,0,0,0-2.64.76c-2.58,1.27-5.11,2.65-7.7,3.93-.93.46-1.73.28-1.95-.92,3.18-3.17,10.22-7.19,14.52-8.18a9,9,0,0,1,.72,2.34c.14,3.24.14,6.49.23,9.73,0,1.79-.13,3.64,1.32,5.47,4.37.42,9,1,13.62,1.27s8.66,3.42,13.29,4.13c1.49-6.47,5-38.38,4.81-43.69-3-2.21-6.73-3.09-10.11-4.7a27.72,27.72,0,0,0-14.16-2.62c-2.67.19-5.37,0-8.33,0-.36,1.85-.7,3.38-1,4.94s-.43,3.21-.61,4.83c-.42,3.76-.81,7.52-1.25,11.28-.13,1.07-.31,2.2-2,2.27-.91-3.72,0-7.39.35-11.09s1.24-7.4.7-11.35c-3.24.13-5.61,1.84-8.06,2.84-1.79,4.22-1.92,5.38-1.42,12.51l3.39,1.79c.66,2,1.46,4.19,2.09,6.42a2.81,2.81,0,0,1-1.52,3.64c-4.28,2.22-8.35,5-13.61,4.55a76.4,76.4,0,0,0-9.69-.06,13,13,0,0,1-8.12-2.44c-1.61-1.11-3.56-1.76-4.57-3.21-1.05-2.43.76-4,1.39-6.57l-3.7,3.77c-1.15-.22-1.52-.94-1-1.92,1.18-2.33,2.52-4.34,5.78-3.58.82.19,1.87-.62,2.94-1,.12-1.38.34-2.62.32-3.85-.23-14.43-.52-28.86-.76-43.29-.09-5.59-.06-11.18-.17-16.77-.06-3.34.31-6.49,2.89-8.81,0-3.78.61-7.27-.74-10.87-1.24-3.32,0-6.32,3.13-8.36,2.09-1.37,4.14-2.81,6.28-4.28a39.3,39.3,0,0,1,8.38,5.22c2.82,2.09,2.89,4.66.65,8.7.32,3.07.66,6.29,1,9.64,2.81,1.65,3.18,4.38,3.24,7.38.26,14.25.61,28.49.94,42.74a21.76,21.76,0,0,0,.67,6.61l13.25-5c3-24.4,5.54-49.1,8.37-73.57l3.5-2.61c.47-4.27,2.63-8.44.86-13.08-.52-1.35,0-3.11.09-4.7l10.9-6.8c3.53,2.57,6,5.91,9,8.89.11,2.32.49,4.67-1.48,6.53-.3,4.34-2.32,8.8,1,12.91a3.73,3.73,0,0,1,.54,2,20.74,20.74,0,0,1-.15,3.24q-1.74,15.85-3.52,31.71c-1,8.6-2,17.19-2.92,25.79-.48,4.28-.88,8.57-1.32,12.86,3.64,2.89,8.43,3.13,11.69,6.74-1.29,15.18-3.4,30.49-4.89,45.89,4.4,2.3,9,3.76,12.45,7.68v6.85l2.19,1c.46-.48.81-.69.93-1,1.55-3.85,3-7.71,4.59-11.55.46-1.15,1.08-2.23,1.59-3.26,1.43.11,1.73.91,1.56,1.86-.72,4.26-1.51,8.52-2.26,12.78-.15.86-.23,1.74-.37,2.85,1.69.83,3.25,1.69,4.87,2.39,3.81,1.62,7.64,3.21,11.49,4.74a106.53,106.53,0,0,1,16.37,8.29c3.08,1.88,6.26,3.58,9.3,5.51,5.31,3.38,10.55,6.87,16.78,10.94,1.94.44,5.5-1.07,7.84,1.64,2.85-.06,4.64-1.54,6.53-3,8.82-6.61,16.84-14.15,25.07-21.46,1.45-1.29,2.8-2.76,4.66-3.35,1.1,1,.58,1.79,0,2.49-3,3.82-6.14,7.56-9.08,11.45-5,6.61-9.88,13.31-14.79,20a19.85,19.85,0,0,0-1.23,2.2c1.44,1.16,2.22.14,2.95-.49,4.93-4.22,9.82-8.5,14.72-12.75,4-3.43,7.89-6.88,11.87-10.28,1.21-1,2.55-1.91,4-3l13,4.77c2.55-.72,4-2.39,5.62-3.79q18.6-16.13,37.15-32.31c3.27-2.84,6.55-5.64,9.89-8.52H1256c2.46-2.12,5.36-3.69,7.18-6.49.39-.6.65-1.29,1-1.92a4.82,4.82,0,0,1,5.42-2.64c3.34.66,6.63,1.52,9.87,2.28,1.64,4.35,1.31,8.47,1.18,12.88-1,.87-1.86,2.26-3.09,2.67-4,1.34-6.53,4.36-9.48,7.28-.19,1.29-.39,2.69-.63,4.4-1.42,1.35-2.92,2.89-4.54,4.31q-20,17.42-40,34.81c-2.84,2.47-5.54,5.1-8.46,7.81.55,1.76.63,3.62,1.59,4.72,2,2.24,2.08,4.87,2.54,7.36-.45,2.29-2.13,3.46-3.61,4.75-6.65,5.82-13.35,11.58-20,17.4-2.7,2.37-5.3,4.84-8,7.36.65,3.22,1.19,6.21,1.87,9.18.56,2.46,1.34,4.85.85,7.45a4.16,4.16,0,0,0,.5,2.59c1.65,3,3.34,5.93,5.32,9l19.78-6.18,1.29,1.64c-6,3.18-12.85,3.82-18.91,7-.44,4.42,2.2,8.16,3.16,12.29s2.41,7.88,3.73,12.06c1.26-.27,2.29-.41,3.27-.72q12.62-4,25.19-8.11c1.71-.56,3.35-1.43,5.37-.07-.52.54-.88,1.23-1.45,1.47-1.48.63-3.05,1.07-4.59,1.57-7.7,2.53-15.4,5-23.1,7.59-1,.33-2,.83-3.18,1.37.4,5.7,2.47,10.86,3.82,16.54a22.63,22.63,0,0,0,3.77-.56c17.74-6,13.78-3.86,21.94-9.9,1.22-1.61-.29-4.48,2.48-5.52,1.1,2.23.36,4.34.3,6.67-3.81,3.06-7.77,5.79-12.46,7.34-4.11,1.36-8.2,2.74-12.3,4.13-.83.28-1.64.61-2.66,1,.09,1,.15,1.9.25,2.75.77,6.44,1.61,12.87,2.32,19.32A32.78,32.78,0,0,1,1213,694a19.12,19.12,0,0,0,0,8.58,12.59,12.59,0,0,1,.37,3.76c-.71,9-.49,18-2.24,26.93s-3.81,17.62-5.6,26.44a101.84,101.84,0,0,1-6,19.61c-3.22,7.61-5.41,15.66-10,23a22.68,22.68,0,0,0,2.51,2.12c6.61,4.06,13.18,8.17,19.9,12,3.71,2.14,6.9,4.57,8.41,8.74.11.32.45.55,1,1.13,4.77.64,9.27,2.33,9.69,8.43a12.28,12.28,0,0,1-7.35,11.61c-4,1.6-7.8.08-12.22-5.1-4,1-7.5-.65-10.91-2.85-2.09-1.35-4.32-2.5-6.8-3.93-1.4,2.14-2.64,4.06-4,6.15,11.52,12,24.1,22.57,35.47,34.48-.65,4.36-2.85,7.87-4.93,11.57,4.32,5,9.4,9.1,14,13.63,4.76,4.68,9.65,9.21,14.49,13.81l14.13,13.41,14.3,13.62c0,1.05.11,2.29.2,4,1.93,2.1,4.08,4.51,6.34,6.82a11.88,11.88,0,0,0,2.6,1.79,21.75,21.75,0,0,1,2.37,1.17,21.16,21.16,0,0,1,2.3,2.4c.82,4.14-.51,8.17-.55,12.48a23.33,23.33,0,0,1-3.67,1.09,63.49,63.49,0,0,1-7.54.6c-2.46,0-4.57-.64-5.24-3.61a6.73,6.73,0,0,0-2.09-3c-2.35-2.24-4.82-4.34-7.46-6.67-3.56,1-5.94-1.07-8.34-3.35q-17.82-17-35.71-33.91-7.65-7.26-15.38-14.44c-.65-.6-1.39-1.09-2.18-1.7l-12.61,5.76a40.65,40.65,0,0,1-3.32-2.57q-14.36-13.57-28.66-27.19c-1.29-1.22-2.65-2.37-4-3.6-5.18,2.1-9.92,4.9-15.91,5l-10.1-8.83-16,10.94-7.59,37.49c1.8,1.17,3.41,2.29,5.09,3.3,5.09,3.08,10.18,6.17,15.32,9.15,4.42,2.55,8.11,6,11.82,9.41a10,10,0,0,1,3.36,7.67c0,3.95.26,7.89.42,12l39.25,23.81a19.88,19.88,0,0,1-.75,10.4c-2.73,7.82-5.29,15.7-7.88,23.44l-6,3.69c.4,4.6.76,9.24,1.22,13.87.9,9.15,1.87,18.3,2.81,27.44,1,9.51,2,19,2.87,28.52.57,6.09.94,12.21,1.39,18.31a5.93,5.93,0,0,0,.14,1.59c1.81,4.69,3.67,9.37,5.46,13.92l12.79,8c-.3,5.86-1.91,11.38-2.81,17.27a29.54,29.54,0,0,1-3.88,1.75c-3.77,1.13-5.76,3.52-5.74,7.5,1.66,2.4,5.08,2.69,6.57,5.24-.48,1.9-2,2-3.33,2.55s-2.28,1-3.7,1.67c.12,1,.23,1.91.39,3.19l4.19-1.79c.32.36.72.61.71.84-.18,3.22-.42,6.44-.66,10a42.52,42.52,0,0,1-4.31,1.88c-3.42,1.07-5.06,3.22-4.6,6.88,1.69,2.61,5.44,2.75,7,5.64-1.89,2.67-5.42,2.2-7.69,4.52.26.63.56,1.39.9,2.22l4.54-.66c1,3.11.65,6.1,1.29,9.19l-6.84,3c-.54,1.43-1.21,3.23-1.83,4.86,1.37,1.48,2.44,2.65,4,4.29h-4.19V1229l7.09-1.69c1.85,4.92,1.15,9.71,1.3,14.72l-7.55,3.24a6.36,6.36,0,0,0-.64,1.45,16.62,16.62,0,0,0,0,2.39l8.47,5.31a52.56,52.56,0,0,1,.49,15l-7.1,3.17c-.12,1.33-.24,2.71-.38,4.27l9,5.73c1.11,3,.4,5.6-.27,8.29-3.46,2.37-6.9,2.86-10.61.26a48.76,48.76,0,0,1-1.43-15c.27-4,1.93-7.26,6-8.84a6.36,6.36,0,0,0,2.26-1.35c.35-.38.2-1.22.33-2.27-3.51.94-6.72,1.94-9.44-1.25a43.09,43.09,0,0,1-.94-12.68c.37-4.37,2-8,6.51-9.66.51-.18.48-.25,1.1-2.34-2.69-.49-6,.73-7.56-2.14,0-4.46-.21-8.58,0-12.69a11.5,11.5,0,0,1,7.08-10.61,2.87,2.87,0,0,0,2-3.36c-1.12-1.28-2.33.35-4.15-.37l-2.64-1.93a9.79,9.79,0,0,1-.4-1.35c-.53-4.74.37-9.43,1.44-13.92.9-3.77,3.07-7.32,7.2-8.87a21,21,0,0,0,2-1c.13-.86.26-1.72.35-2.34-.46-.49-.7-1-.93-1-2.54,0-4.61-.73-5.79-3.62.4-2.15.86-4.61,1.33-7.07a19.69,19.69,0,0,0,.64-3.18c.13-6.7,3.43-11.15,9.71-13.57l.63-3.35-7.15-2.15-6.18,2.73c-.58,2.74-1.22,5.35-1.67,8-2.18,12.79-4.45,25.57-6.42,38.39a309.8,309.8,0,0,0-3.43,62.56c.66,13,1.82,25.92,3.47,38.78a202.66,202.66,0,0,0,7.46,33.2c4.08,13.44,8.32,26.83,12.5,40.25.2.63.52,1.23.79,1.87,4.88-2.8,4.88-2.8,8.14-9.83l3.42-1.84c.76-1.38.64-1.9-1.2-6-2.68-.33-5.69.75-8.86-1.4-2.21-4.68-3.54-10.3-5.59-15.92l2.2-7.25,5.63-3.11c-.14-1.15-.26-2.17-.38-3.19-.63-.27-1.12-.69-1.59-.65-1.77.14-3.54.42-5.87.72l-4-1.56a61.6,61.6,0,0,1-3.59-13.64c-.48-3,1-5.6,2.42-8.4l5.45-2.19,3.1,1.66c-.27.63-.32,1.12-.55,1.23-2.24,1.09-4.51,2.12-6.55,3.06-.66,1.69-.31,2.76,1,3.53,1.85,1.11,3.71,2.23,5.55,3.36,1.38.84,2.74,1.71,4.34,2.7l4.59,15.73c-2.29,2.58-5.61,2.32-8.11,4.35l.95,3.87,12.48,7.75c1.46,5.42,3,11.14,4.6,17.06A16.26,16.26,0,0,1,1201,1363c-1.66.68-3.4,1.14-5,1.65-1.91,3.48-3.84,6.72-5.47,10.11a14.83,14.83,0,0,0-1.32,5.16,90.88,90.88,0,0,0-.22,9.19c.34,16.59.74,33.18,1.1,49.78q.56,25.43,1.09,50.85c.29,12.81.46,25.61,1,38.41a46.57,46.57,0,0,1-5.35,24.39c-1.18,2.22-2,4.62-3.23,6.84a19.43,19.43,0,0,0-2.75,10.37l-2.54,2.17c-.19,1.67-.4,3.44-.63,5.46-3.25,1-4.37,3.78-5.62,6.65-2.6,5.94-5.36,11.82-8.23,17.63a17.5,17.5,0,0,0-1.78,7.81q-.1,10.56-.29,21.11c0,1.77-.17,3.54-.28,5.58-5.1-.21-8.41,3.13-12.38,5.29-3.76-.89-6.66-3.42-9.91-5.26s-6.61-3.72-9.73-5.86-6.86-3.21-9-6.73c-1.94.56-3.67,1-5.36,1.55q-32.05,10.62-64.12,21.26c-15.39,5.09-30.81,10.09-46.19,15.22-11.6,3.87-23.49,5.14-35.68,4.8a87.79,87.79,0,0,1-22.29-3.7,73.73,73.73,0,0,1-19.64-8.72c-12.73-8.19-25.54-16.27-38.33-24.38-1.36-.86-2.79-1.61-4.4-2.54l-7.81,2.61c-.33,3.68-.64,7.2-1,10.83-.62-.31-1.12-.4-1.19-.62-1.19-3.86-1-7.78-.64-12,5.23-2.8,11.09-4,16.63-6s10.91-3.59,16.49-5.41c1.2-3,.27-6-.09-9.21-1.65.48-3,.84-4.37,1.28-7.53,2.48-15,5-22.57,7.46-1.84.59-3.64,1.7-5.72,1.08-1.29-4.33-2-22-1.07-27.91,1.18-1.49,3.08-1.68,4.74-2.24,8.35-2.85,16.73-5.62,25.09-8.43,1-.34,2-.78,3.07-1.21a14,14,0,0,0,.63-2.66c.1-1.95,0-3.91,0-6.32a30.71,30.71,0,0,0-3.79.67c-9.24,3-18.47,6.08-27.7,9.11-1.68.55-3.4,1-4.85,1.38-1.28-.93-1.14-1.82-.66-2.62,2.48-4.19,5-8.34,7.5-12.53a345.36,345.36,0,0,1,24.16-35.85,15.82,15.82,0,0,0,3.3-10,27,27,0,0,0-2.46-12.59c-2.36-4.85-4.39-9.88-6.54-14.83a50.83,50.83,0,0,0-2.6-5.94,43,43,0,0,0-4-4.94l2.87-1.1c-.52-.89-.8-2.07-1.52-2.5-6.67-3.91-13.41-7.69-20.35-11.64l-35.44,11.2c1.14.9,1.74,1.48,2.44,1.91,3.83,2.38,7.69,4.69,11.51,7.08a12.26,12.26,0,0,1,1.83,1.72c-1.5,1.28-2.61.66-3.71,0-3.08-1.88-6.14-3.78-9.23-5.64-1.7-1-3.4-2-5.16-3-.36-.19-1,.09-1.41.14,0,.34-.13.56-.07.69a2,2,0,0,0,.6.82c5.19,3.25,10.39,6.47,15.73,9.78a16.88,16.88,0,0,1-.89,6.32c-2.52,9.4-5,18.82-7.59,28.19a37.22,37.22,0,0,0-1.45,13.87c.2,2,.26,3.93.38,5.82.52.17.91.45,1.16.36a10.15,10.15,0,0,0,1.63-.85,4.58,4.58,0,0,0,.28-1.34c-1-6.77.32-13.24,2.18-19.72,2.1-7.27,3.93-14.62,5.88-21.93a36.29,36.29,0,0,1,1.34-4.67c1.15-2.73,2.91-5,5.86-6,4.27-1.4,8.59-2.69,12.91-4a10.39,10.39,0,0,1,2.45-.15c.13,2.13-1.37,2.32-2.46,2.7a79.59,79.59,0,0,1-9.78,3.06c-4.35.91-6.36,3.65-7.37,7.64-1.56,6.11-3.22,12.2-4.83,18.29-.83,3.14-1.53,6.31-2.5,9.4a28.13,28.13,0,0,0-1,13.35c.25,1.41.3,2.86.47,4.65,2.6,1.62,5.32,3.35,8.06,5s5.27,3.13,7.86,4.76c1.34.84,2.58,1.85,4,2.9a22.56,22.56,0,0,1-1.29,3.16c-4.1,6.79-8.17,13.6-12.46,20.27a12.83,12.83,0,0,0-2.11,7.62q.54,19.75.92,39.49c.08,3.61,0,7.22,0,10.82,0,.83,0,1.87-1.17,2.07a7.13,7.13,0,0,1-.78-.56.84.84,0,0,1-.17-.5c-.55-18-1.1-36-1.65-53.89-.37-.41-.56-.84-.84-.9-4.84-1.14-8.46-4.52-12.65-6.84-2.35-1.3-4.61-2.76-6.71-4-1.48.46-1.41,1.41-1.39,2.29.33,15.69.64,31.38,1.05,47.06.14,5.4.55,10.8.86,16.53l14,8.48c1.48-.43,1.46-1.38,1.43-2.26,0-1.62-.3-3.25-.21-4.86,0-.74.68-1.46,1.32-2.75,2.4,5,1.09,9.78,1.74,14.54l3.44,1.74,25.53-8.23c.91.87.49,1.67-.27,2.22a9,9,0,0,1-2.4,1.15q-10.76,3.66-21.52,7.23a17.22,17.22,0,0,1-2.46.39c-5.37-3.21-11-6.37-16.44-9.95-2.5-1.66-4.46-4.12-6.6-6.15-.3-5.18-.71-10-.83-14.89-.25-10.1-.3-20.2-.5-30.3-.11-5.41-.37-10.81-.53-16.22-.07-2.35-.05-4.69-.08-7A12.12,12.12,0,0,1,823,1566c3.06-4.67,5.91-9.48,8.82-14.25.92-1.52,1.74-3.09,2.71-4.82-5.61-4.34-11.85-7.23-17.28-11-1.59-6.76-1.5-17,.15-23.2,2.53-9.58,5.08-19.16,7.58-28.75a16.28,16.28,0,0,1,3.64-7.13,8.75,8.75,0,0,1,4-2.65c12.37-3.88,24.72-7.81,36.84-11.64a20.36,20.36,0,0,1,7.77,3c4.29,2.66,8.58,5.33,12.95,7.85a8.87,8.87,0,0,1,4.18,4.7c1,2.68,2.35,5.23,3.63,8a22.41,22.41,0,0,0,7.87-2.64V1478c0-10.11.22-20.21,0-30.31-.36-14.78-1-29.56-1.6-44.33-.31-7.57-.92-15.13-1.1-22.7-.12-4.68.49-9.37.47-14.06,0-10.47.67-20.91,1.65-31.32.86-9.15,2.33-18.23,3.56-27.34,1.52-11.26,3.34-22.48,4.51-33.77.82-7.88.85-15.85,1.08-23.78.66-22.55-.28-45.09-1.17-67.62-.46-11.52-1.66-23-2.88-34.49a222.44,222.44,0,0,0-3.52-23c-1.78-8.28-1.3-16.46-.37-24.72.52-4.64,1-9.3,1.47-14.16-1-.72-2-1.48-3.06-2.12-13.26-8-26.51-16.07-39.82-24-4-2.38-6.7-5.94-9.54-9.42-.23-.28,0-.94.06-1.83a15.41,15.41,0,0,1,2.61.94q22,13.23,44,26.51,21.3,12.86,42.58,25.72a21.43,21.43,0,0,0,9.19,2.88q3.76.38,7.51.9a8.76,8.76,0,0,1,1.82.64c-.48,1.66-1.69,1.6-2.69,1.49-3.93-.44-7.84-1-11.76-1.51-.9-.11-1.8-.1-2.7-.15Zm206.7-571.49-1.17,1-.81,2.27-1.25,1c-.72.26-1.25.57-.23,1.45,0-.65.08-1.11.12-1.56l1.22-1.05.84-2.22,1.26-1,.21-.23Zm-15.06,2-.26-.1.38.12.94,1.18.13.21-.25-.1ZM994.94,552.27l-.31.28.22-.39L995,552Zm-13,2-.13-.22.23.25.08.2Zm232.68,267.5-.2-.24.24.19.16.18Zm-9.83,16.19.11.24-.21-.25-.09-.22Zm75.81,128.63,1.1-1.07c.35-.38.7-.75,1-1.13l.28-.09-.2.2-1,1.12-1.08,1.08c-.39.42-.78.83-1.16,1.25l-1.51.22c.81.81,1.11.25,1.41-.33Zm6.38-7.68.4-.24-.36.37,0,.23Zm-214.2-222.65-.93,1.21c-.72.18-1.85-.23-1.72,1.26l1.57-1.4,1-1.2,1.1-1.23,2.36-.87,3.28-.11c.67,1.37,2,1,3.1,1.16.38.46.7,1.17,1.54.3l-1.65-.17c-.64-1.46-2-1-3.1-1.16-1.72-1.35-1.76-1.35-3.07.09l-2.33.9Zm-345.35,198,1.11,1.22c.89.67,1.42,1.84,3.22,2.31-.74-.83-1-1.32-1.41-1.54a10.4,10.4,0,0,0-1.93-.64c-.38-.41-.76-.81-1.13-1.22Zm460.12-196.86-1.06,1.09c-2.54.48-3.71,2.76-5.54,4.17l-25.41,14.95,1.53,2.06c5.2-3.11,10.33-6,15.29-9.22a63.37,63.37,0,0,0,7.1-5.71,8.3,8.3,0,0,0,1.36-2.21c2.74-.19,4.07-2.28,5.55-4.16l1.08-1.07.19-.11Zm-116.91,11.83-1.14-1.12c-.1-1.37-.19-2.74-.29-4.11-.37,1.39-1.35,2.87.41,4l1.15,1.1,1.12,1.09,1.07,1.13,1.12,1.06c2.09,1.44,3.32,1.43,6.13,0,.81-.12,1.87.26,2.07-1.06l.39-.07-.26,0-2.09,1.21H1074l-1.13-1-1.08-1.12ZM937.46,1100.93l.11.25-.19-.25-.11-.2Zm-5.41-3.24.11.25-.2-.25-.1-.22Zm-5.41-3.25.1.25-.19-.25-.11-.21Zm-5.43-3.25.24.16-.33-.14-.1-.22Zm-5.42-3.17.15.22-.26-.27-.06-.25Zm-5.41-3.25.15.22-.26-.27-.06-.25Zm-5.42-3.25.16.22-.26-.27-.06-.25Zm-5.43-3.22.16.19-.27-.25-.09-.28Zm-8.61-5.52.1.26-.18-.25-.12-.22Zm-5.42-3.23.11.24-.19-.25-.11-.21Zm197.08-232.68-1.15-1.16c-.81-2.84-2.85-4.79-4.85-7.12l-1.43,2.09,6.4,4.92,1.17,1.14.06.23ZM880.09,1066.3l.11.25-.2-.25-.1-.22Zm-5.43-3.25.24.15-.33-.13-.1-.23Zm-5.41-3.25.24.15-.33-.13-.1-.23ZM1088,808.68l-.18-.17.27.12,1.08,1.06,1,1.11,1,1.12a23,23,0,0,0,3.43,3.21,20.64,20.64,0,0,0,11.73,3c1.71,0,3.58.49,5.35-1.19-.14-.64-.33-1.42-.57-2.47-1.62,0-3-.08-4.42,0-4.69.31-9.26,0-13.56-2.18a6.62,6.62,0,0,0-2.08-.29l-1-1.11-1.05-1.12C1088.74,809.43,1088.39,809.06,1088,808.68Zm61.54-275-1,1.05-1.13,1.17-2.43,1.08c1.57.79,2.25.22,2.32-1.19l1.11-1.19,1-1,.3,0ZM849.79,540c1.1-.33.92-1.3,1.07-2.1,2.79-4.87,3.26-6.19,2.27-7.35l-2.45,1.24c.12,2.42.21,4.32.31,6.22l-1.17,2.09-.12.22ZM782.66,524a7.9,7.9,0,0,0-.65.78c-.07.12,0,.33,0,.5.23-.13.62-.23.64-.39a3.1,3.1,0,0,0-.16-1Zm289.23,464.14,1,2.44.29,3,.68-.17c-.37-.89-.73-1.78-1.1-2.68l-1-2.43-1.13-2.13c-.35-.73-.69-1.47-1-2.2a2.8,2.8,0,0,0-.25-.41,3.44,3.44,0,0,0-.35-.3l.7.6,1.06,2.19Zm11.68-154.51.25.14-.35-.15-.81-2.32c-.49-1.47-1-2.95-1.5-4.4-.07-.2-.55-.24-.84-.36-1.06,2.13-.88,2.47,2.45,4.65Zm80.22-16.13-2.34.85c-5.71,1.77-9.42-2.32-13.91-4.47a41.71,41.71,0,0,1-.49-15.72,5.27,5.27,0,0,1,1-2.45c2.61-3.21,5.3-6.37,8-9.51a6.53,6.53,0,0,1,4.72-2.34c3.4-.21,6.81-.7,10.42,0,3.4,3,4.61,7.51,7.11,11.14l2.54-1.33c.21,1.6.36,2.82.52,4a15.11,15.11,0,0,0,5.7,3.33,31.51,31.51,0,0,0,4.69-8.57c1.82-4.7,3.42-9.5,5.48-14.1,3-6.63,4.66-13.61,6.2-20.66.65-3,1.38-6,2-9q2-10.08,3.77-20.18c.12-.7.65-1.73-.88-2.25-2.18,3.49-4.37,7-6.54,10.48a23.18,23.18,0,0,1-4.9,5.7c-4.42,3.7-8.68,7.6-13.09,11.32a42.09,42.09,0,0,1-5.69,4.07c-5.12,3-10.32,5.91-15.49,8.85-.94.53-2,1-1.56,2.81,2,1.26,4.38,2.6,6.61,4.1s5.23,2.34,6.68,5.66a7.76,7.76,0,0,1-2.38,0,21.25,21.25,0,0,1-2.78-1.66c-8.34-5-16.72-10-25-15.13a13.17,13.17,0,0,0-8.71-2.12c-2.51.26-5,.69-7.52.79a7.22,7.22,0,0,0-5.62,2.75c-3.22,3.89-6.45,7.78-9.55,11.76a7.74,7.74,0,0,0-.79,2.74c9.39,6.4,24,15,28.16,16.65,1.09-1.37,2.19-2.79,3.33-4.17,3-3.6,6-7.2,9-10.76.65-.76,1.48-.94,2.39.14-4.17,6.21-9.81,11.35-13.58,17.9-2.54,0-4.23-1.46-6-2.53-7-4.13-13.88-8.39-20.84-12.56a20.35,20.35,0,0,0-3-1.21,43.5,43.5,0,0,0,.88,15.1c8.8,5.37,17.56,11,26.49,16,1.94-1.41,0-4.32,2.91-5.22.48,2.77.92,5.35,1.32,7.71,4.2,2.92,9,4.19,13,8.13-1.27.21-2,.57-2.49.36-2-.86-3.9-1.85-5.79-2.89-5-2.79-10-5.64-15.24-8.57l-6.22,3.29c-.85,4.54-1.7,8.95-2.49,13.37-1.37,7.62-2.43,15.29-5.63,22.47-2.2,4.93-4,10.06-6,15.05a27.7,27.7,0,0,1-2.85,5.17Q1105,878,1100.44,884c-1.84,2.41-3.93,4.64-5.9,7a1.9,1.9,0,0,0-.42.15c-.06,0-.06.18-.08.27l.37-.55a10.26,10.26,0,0,0,2.1-.39,58,58,0,0,0,11.84-6.42c7.44-5.39,15.3-10.21,22.56-15.83a201.8,201.8,0,0,0,42-43.3c.39-.56.65-1.2,1.17-2.17a30.36,30.36,0,0,0-6.72-3.83c-2.4.8-3.91,2.69-6.16,2.43-.22-.28-.43-.44-.41-.55.15-.85.34-1.69.52-2.54l2.42-.83.15-.18ZM1154,814c.48,1.13,1.53.85,2.42,1,2.13,1.72,2.49,1.73,3.46.11h-3.59l-2.42-1-2.18-1c-.27-.25-.53-.5-.26-.24-.36-.11,0,0,.38.1Zm2.09-2.06.23.19-.3-.18L1154,811l.12-.13Zm.14-46.64c.08.4.17.81.06.31.35.37.08.08-.18-.21-.33-.76-.65-1.52-1-2.28l-1.09-2.17c-.65-1.35-1.23-2.75-2-4-.29-.48-1-.7-1.52-1,.07-1,.1-1.89-.94-2.4l-1.05-2.17c-.17-2.11-1.43-3.61-2.63-5a9,9,0,0,0-1.77-.28c-7.19.44-14.38.85-21.56,1.4a8.17,8.17,0,0,0-6,3.29c-5.39,6.77-10.89,13.44-16.39,20.12a10.65,10.65,0,0,0-2.53,7.45c.24,7.75.28,15.5.46,23.25a23.74,23.74,0,0,0,.64,3.44l20.82,11.18,2.7-1.44c-5.52-3-10.68-5.93-16-8.57-2.57-1.28-3.91-3-4-5.83-.15-7-.34-14.05-.53-21.08a10.06,10.06,0,0,1,2.5-6.94c4.37-5.26,8.67-10.6,13-15.88a16.37,16.37,0,0,1,3-3.12,10,10,0,0,1,4.3-2c5.9-.62,11.84-.94,17.76-1.37a12.68,12.68,0,0,1,6.26,1.3c-.08.93,0,1.78,1,2.17.32.79.63,1.59,1,2.39.64,1.37,1.21,2.78,2,4.08.28.47,1,.67,1.54,1-.08.94-.16,1.89,1.08,2.18C1155.15,763.93,1155.09,764.86,1156.27,765.26Zm-49.94-26,2.23-1c7-.41,14-.72,20.91-1.26,4-.32,7.84,0,11.25,2.48a10,10,0,0,0,2.49.93l.15.27-.27-.15c-3.4-5.45-8.63-7.4-14.7-7.48a67.94,67.94,0,0,0-7.5.72c-.69.06-1.39.07-2.07.11-.43-.54-.93-.91-1-1.38-.65-2.43-1.31-4.86-1.76-7.33-2.85-15.78-5.57-31.57-10.46-46.9-2.35-7.37-4.33-14.88-6.9-22.18-2.45-7-5.46-13.72-8.2-20.58-3.68-9.21-7.44-18.37-12.71-26.84-2.65-4.27-4.86-8.82-7.42-13.15-3.2-5.41-6.44-10.81-9.89-16.06a127.28,127.28,0,0,0-8.9-12.2c-4.42-5.22-9.23-10.1-13.86-15.14-1-1.06-1.8-2.24-2.78-3.3-2.57-2.77-5.15-5.53-7.8-8.23a3.27,3.27,0,0,0-4.26-.65,3.84,3.84,0,0,0,.35,1.23c.67.85,1.38,1.66,2.13,2.44,7.13,7.4,14.14,14.86,19.86,23.5,7,10.5,14.85,20.36,20.67,31.64,5.94,11.52,12.91,22.5,17.6,34.66,1.36,3.52,3,6.95,4.42,10.45,2.58,6.33,5.36,12.61,7.58,19.07,3,8.85,5.67,17.85,8.39,26.8,1.1,3.61,2.13,7.26,2.93,10.94,2,9.51,4,19,5.94,28.56.44,2.13.79,4.24,0,6.38l-4,2.78-2.23,1-1.07,1.29a15.18,15.18,0,0,0-8.47,6.73c2.47.46,2.54.52,3.11-.19,1.78-2.2,3.5-4.44,5.24-6.67ZM940.8,1103.16l-.2-.24.26.19,2,1.05.24.19-.31-.18ZM894.25,1075l-.18-.22.26.16,2,1,.23.2-.31-.18ZM1035,1041.44l3.25-1.09,3.22-1.11c1.1-.28,2.48.25,3.18-1.14,1.15-.09,2.54.44,3.11-1.18,1.26.13,2.55.35,3.41-1,1.14-.11,2.53.42,3.09-1.19a3,3,0,0,0,.93.06c.15,0,.22-.36.33-.55-.16,0-.36-.07-.46,0a5.86,5.86,0,0,0-.7.62c-1.13.15-2.43-.16-3.1,1.18-1.25,0-2.49-.12-3.41,1-1.12.17-2.42-.14-3.1,1.18-1.18,0-2.5-.29-3.17,1.14-1.18.06-2.55-.42-3.23,1.11-1.19,0-2.56-.46-3.24,1.08-1.25,0-2.57-.31-3.46,1a45.17,45.17,0,0,0-16,5.67c4.35-1.45,7.53-2.48,10.68-3.57,1.8-.62,3.83-.71,5.25-2.23Zm-10.85,489.25,3.27-1.06,3.22-1.11,3.28-1.06,3.24-1.09,3.21-1.14,3.25-1.08c1.09-.31,2.51.33,3.21-1.11,1.16-.11,2.51.32,3.25-1.08,1.16-.12,2.51.31,3.24-1.08,1.17-.13,2.51.31,3.25-1.09l2.72-.25c-1.37-.8-2-.33-2.61.38-1.17.09-2.42,0-3.25,1.08-1.17.09-2.42,0-3.25,1.09-1.17.09-2.42,0-3.25,1.08-1.16.08-2.4-.05-3.19,1.11-1.16.14-2.45-.13-3.25,1.09-1.13.2-2.5-.27-3.22,1.12-1.18.09-2.58-.5-3.25,1.09-1.21,0-2.56-.44-3.27,1.06-1.19,0-2.55-.43-3.23,1.1-1.2,0-2.55-.44-3.26,1.07-1.26-.06-2.56-.29-3.47.94-1.78.23-3.57.48-5.35.69-7.69.91-15.33,2.07-23.14,1.83-13-.4-25.91-1.15-38.84-2.15-12.42-.95-24.07-4.15-34.44-11.33-1.66-1.14-3.31-2.22-4.24-4-1.87-3.69-3.8-7.34-4.6-11.49-1-5-2.18-9.85-3.35-14.76-.31-1.33-.36-2.87-2.08-3.84-1.44,1.13-3.8.54-5.1,2.68.4,2.79,2,5.24,3.13,7.86,4.56,10.72,4.48,10.71,4.67,22.41a13.75,13.75,0,0,1-3,9c-4.12,5.48-8.06,11.08-12.06,16.65-.72,1-1.36,2.09-2,3.15a10,10,0,0,0,1.33,1.17c9.36,5.75,18.73,11.51,28.14,17.19a20.54,20.54,0,0,0,4.46,1.84c5.84,1.83,11.71,3.55,17.55,5.39a18.61,18.61,0,0,1,3,1.71c-3.4,1.59-5.82-.2-8.33-.75s-4.83-1.4-7.24-2.12a80.67,80.67,0,0,1-7.74-2.39,60,60,0,0,1-6.61-3.64c-2.28-1.32-4.53-2.69-7.26-4.31,2.21,5.79,1.75,11.09,1.09,16.62-6.38,4.4-14.17,5.16-20.89,8.32,5.29,3.3,10.59,6.68,16,9.92a12.68,12.68,0,0,1,4.25,4c.44.68.51,1.85,1.88,1.63.18-3,.35-6,.53-9.19,2.67-.94,5-1.75,7.38-2.63a9.67,9.67,0,0,1,6.83-.17c4.77,1.61,9.62,3,14.48,4.35a62.54,62.54,0,0,0,25.14,1.69c1.6-.22,3.24-.26,4.84-.52,5.32-.85,10.77-.83,16-2.57q18.18-6.07,36.41-12,19.5-6.4,39-12.77c1.52-.5,3-1.34,4.93,0-.69.61-1.21,1.38-1.9,1.62-4.09,1.38-8.24,2.6-12.35,4q-32.06,10.58-64.1,21.18a42.29,42.29,0,0,1-10,2.21c-3.76.3-7.52.78-11.27,1.29a65.06,65.06,0,0,1-28.32-1.93c-5.32-1.65-10.68-3.17-16.18-4.8-1.5,1-3.71.62-5.12,2.69,5.16,1.92,10.08,3.66,14.92,5.57,5.22,2.07,10.49,3.79,16.21,3.57,1.06,0,2.13.37,3.21.43a34.71,34.71,0,0,0,5.39.09c5.92-.61,11.82-1.3,17.71-2.11a40.9,40.9,0,0,0,6.83-1.54c7.9-2.5,15.77-5.09,23.64-7.67q43.89-14.4,87.75-28.84a13,13,0,0,0,2-1.11l-2.67-2.5a8.93,8.93,0,0,1-.31-1.25c-1.11-17.83-1.1-35.69-1-53.54a14.47,14.47,0,0,1,.7-4.23c1.22-3.76,2.59-7.47,4-11.36l10.51-3.5c2.6,1,4.9,2,6,4.08,2.11,4,4.33,8,4.74,12.55.43,4.83.36,9.71.5,14.33l-3.68,4.74c-.2,7.07-.22,14.25,0,21.39l4,3.34c.3,2.62.59,5.28.9,8.09a26,26,0,0,0,2.8-.6c14.71-4.84,29.38-9.79,44.13-14.51,3.19-1,4.88-2.71,5-6.38-4.06-1.95-7.56-5.09-12.55-6.6,0,4.85-.27,9.28-3.79,12.84-.5-.65-1-1-1.09-1.47-.86-7.17-.61-14.38-.75-21.31,1-1,1.69-1.76,2.32-2.43,0-2.39.07-4.56,0-6.72a3.85,3.85,0,0,0-.72-2.5c-2.17-2-2.08-4.48-2.12-7-.16-8.65-.23-17.31-.45-26-.14-5.2-.51-10.4-.77-15.56-2.59-1.83-5-3.4-7.28-5.17a7.23,7.23,0,0,0-7.55-1.09c-7,2.48-14,4.69-21,7-6.5,2.13-13,4.34-19.53,6.31a10.53,10.53,0,0,0-6.26,4.72,101.73,101.73,0,0,1-6,8.36c-2,2.52-3.17,5.2-2.67,8.47a14.54,14.54,0,0,1,0,1.62c.24,9.19.42,18.39.78,27.58a10.3,10.3,0,0,1-3,8.32,41.46,41.46,0,0,0-4.65,5.27c-2.46,3.4-5.8,5.08-9.73,6.28-19.28,5.9-38.48,12-57.75,18-6.87,2.11-13.63,4.66-20.93,5.13-3.58.23-7.13,1.13-10.71,1.33-9.19.5-18.37.73-27.29-2.33-3.91-1.35-7.88-2.58-11.89-3.6a29,29,0,0,1-7.89-3.41c-6.49-3.9-13-7.74-19.49-11.64-1-.62-2-1.4-3.42-2.45,1-.55,1.67-1.22,2-1.08a25.71,25.71,0,0,1,4.35,2.12c4.92,3,9.81,6.06,14.7,9.11a42.07,42.07,0,0,0,12.73,5.75c3.5.81,6.92,2,10.35,3.08a55.94,55.94,0,0,0,14.37,2.25c7.07.34,14-.65,21-1.57a72.3,72.3,0,0,0,11.66-2.11c22.55-6.91,45-14,67.54-21.09,1.33-.42,2.59-1.06,4-1.65-.83-3.55-1.27-6.9-3-10-.94.23-1.63.37-2.3.59-21,6.89-42.11,13.71-63.11,20.72-7.62,2.54-15.47,3.27-23.38,3.75a13,13,0,0,1-2.77-.49c2.94-1.85,3-1.78,5.69-2.12,4.82-.59,9.77-.75,14.4-2,9.18-2.57,18.18-5.78,27.24-8.76a8.23,8.23,0,0,0,1.71-1.09C1022,1531.64,1023.24,1531.78,1024.18,1530.69ZM955.84,972.13l.27.14-.39,0-1.35-2.09C954,972.06,955.15,971.84,955.84,972.13Zm238.27-448.26.3.29L1194,524l-1.81-.91-.2.66ZM982,453.68c-1.33.36-1.79,1.24-1.2,2.67l1.09-2.76c.83-.16,1.06-.53.3-1.37C982.09,452.81,982,453.24,982,453.68Zm98.42,442.67a3.49,3.49,0,0,0-3.09,2.25l-.9.49.79-.61c1.49-.12,2.77-.52,3.1-2.24a3.36,3.36,0,0,0,3.36-2.1,2.66,2.66,0,0,0,1-.19c5.23-3.46,10.88-6.44,14.11-12.23a18.47,18.47,0,0,1,2-2.58,70.81,70.81,0,0,0,12.83-22.89c2.15-6.46,5.32-12.56,6.33-19.43.85-5.87,2.1-11.68,3.11-17.53.07-.41-.37-.9-.7-1.63L1119.8,819c-.44,2.11-1,4.2-1.31,6.33a106.5,106.5,0,0,1-8.29,28.93c-1,2.12-1.77,4.33-2.59,6.52a28.91,28.91,0,0,1-4.1,7.54c-3.28,4.29-6.35,8.74-9.62,13a43.15,43.15,0,0,1-3.69,3.85c-2.6,2.7-5.27,5.35-6.45,9.06A3.9,3.9,0,0,0,1080.39,896.35ZM767.56,764.3c-1.9,1-1.9,1-2.07,2.73a3.55,3.55,0,0,0,2-2.85c1.13,0,2.23,0,2.41-2ZM1063,518.59a7.7,7.7,0,0,0-2.76,3.35c.83,0,1.57.12,1.62,0,.43-1.1.72-2.26,1-3.39l.24-.11Zm107.22,268.49-.39-.29.51.17c.44,2.15,1,4.2,3.24,5.27l.06.42-.18-.3C1172.55,790.51,1172.41,788.17,1170.25,787.08ZM927.69,509c-.09-.69-.17-1.38-.26-2.08l-.55.19.93,1.79a19.27,19.27,0,0,0-.08,6.54l2.25-.94Zm230.65,280.1,8.74-.23c-2.94-.29-5.9-1-8.74.3l-.27.1ZM859.53,858.51c0-.51.05-1.07-.68-.44l.79.34c2.14,3.59,2.14,3.59,5.55,5.22C863.42,861.1,862.25,859,859.53,858.51Zm219.75-113.73c.59.63,1.2,1.12,2.26.29l-2.36-.17c-1.17-1.81-3.33-1.87-5-2.81-.19-.11-.6.18-1.12.35l.14,2.13ZM846.59,1550.17c-1.09-1.73-2.82-2.32-4.66-2.73,1.35,1.31,2.61,2.8,4.75,2.63,2.55,3.09,6.08,4.59,9.67,6C853.33,1553.73,850.4,1551.22,846.59,1550.17Zm261.9-377.69-.17-.38.29.26c.68,4.18,2.36,7.53,7.37,9-1.54-2.63-2.76-4.76-4-6.86A3.5,3.5,0,0,0,1108.49,1172.48Zm-49.71-264.11a10.4,10.4,0,0,0-7,2c-1.59,1.25-2.18,2.73-1,4.81a25.65,25.65,0,0,0,7.94-6.89l.18-.12ZM1087,763.19c3-3.71,6.34-7.12,9.43-12-1.92.59-3.25.58-3.74,1.22-2.51,3.26-5.16,6.51-5.6,10.85l-.29.12Zm-3.19,240.51c-4.2-.05-7.75,2-11.51,3.35l6.17,3.5,5.23-7,.15-.27Zm66.85-240.39.23,0-.36,0c-.9-4.36-2.13-6.69-5.39-10.14l-2.85,4.85ZM1036,913.69c-5.76.21-11.17,2.21-16.77,3.25a3.57,3.57,0,0,0-1.77,1c-.27.27-.13.93-.24,2.26a94.11,94.11,0,0,0,18.68-6.67l2-.25-.18-.59ZM852.25,865.25c-3.41,3.59-5.93,7.78-8.5,12,.47.24.71.41.76.37q6.22-5.45,12.41-10.92a1.05,1.05,0,0,0,.27-.44,4.89,4.89,0,0,0,.16-.75l-1.47-1.13-3.67,3.41c0-1.41-.05-2-.07-2.67,0-.81,1.34-1.5.11-2.76Zm233.47-65.08c-.09-.39-.19-.77-.12-.49-.16-.26,0,.06.24.37,1.62,4.49,5.06,7.36,9,9.61,3.77,2.17,5.59,2.28,9.62,1.45Zm-172,149.16.25.26-.37-.14c-.66-3.28-1.9-6.32-5.24-7.55-4.32-1.6-8.77-2.82-13.17-4.2a18.38,18.38,0,0,0,5,3.93C904.66,944.22,909.18,946.76,913.69,949.33Zm224.08-217.47c-.62-.33-1.24-.66-1.87-1l-.23.59,2.21.27a3.08,3.08,0,0,0,.61.82c6.16,4.07,11.08,9.06,12.84,16.57a15.39,15.39,0,0,0,1.89,3.84c.23.38.82.55,1.24.81.27-.4.6-.67.61-1a10.35,10.35,0,0,0-.07-2.67,25.09,25.09,0,0,0-12.12-17A7.52,7.52,0,0,0,1137.77,731.86ZM879.06,1567.43c5.53-1,18.09-5.17,21.86-7.43-4.45-2.48-8.52-5.35-13.28-7.61-2.86,4.7-5.57,9.13-8.23,13.59a4.39,4.39,0,0,0-.24,1.57l-.33.27Zm221.84-547.9a18.08,18.08,0,0,1,6.77,1.67c4.12,1.79,8.27,3.53,12.43,5.25a22.42,22.42,0,0,0,2.64.67c-.16-.58-.15-.81-.26-.88-2.67-1.8-5.36-3.59-8.16-5.46a52.55,52.55,0,0,1-2.62-5.79,35.5,35.5,0,0,1-1.48-6.84,58.08,58.08,0,0,1,0-6.49c-3.22.86-6.27,1.19-9,3.22,0,1.73-.07,3.53,0,5.32s-.4,3.81.37,5.48c3,.23,5.2-2.52,8.47-.66a12.2,12.2,0,0,1-2.15,1.71c-2.27,1-4.61,1.95-6.92,2.91l-.11.22ZM720,446l-3.2,3.28-.22.14.15-.22,2.07.31-.26,2.86c3.4,3.56,6.39,7.56,11,10a28,28,0,0,0,8.51-9.18c-2.65-2.34-5.2-4.56-7.71-6.81-1.73-1.55-3.34-3.25-6-2.71-.32.06-.79-.65-1.2-1l.37-.25-.25.37-3.26,3.27Zm96.24,364.94-.13-.34.25.23c.19,1.6.26,3.23.6,4.8.8,3.69,1.91,7.33,2.56,11a16.28,16.28,0,0,0,4,8.08c4.87,5.57,9.66,11.19,14.55,16.73a72.19,72.19,0,0,0,5.7,5.77c.68.62,1.81.74,3.18,1.26.22-2.23.38-4,.55-5.67-2.34-2.35-4.52-4.5-6.64-6.7a29,29,0,0,1-3.57-4c-6.06-9.17-12-18.41-18-27.6C818.43,813.19,817.93,811.53,816.23,810.93Zm85.57,88.68a1.62,1.62,0,0,0-.18-.4c0-.05-.19,0-.29,0l.57.3a10.25,10.25,0,0,0,5,6.55c3.35,2.09,6.53,4.63,10.14,6.05,7.29,2.87,14.81,5.21,22.74,5.68l-.11.12L933,913l3.78-1.05a2.29,2.29,0,0,0-1.47-3.19c-3-1.29-6-2.46-8.95-3.71-8.45-3.56-16.89-7.11-24.61-12.15a13.88,13.88,0,0,0-2.87-1.47,5.6,5.6,0,0,0-1.87,0c-.59,1.68.45,2.19,1.36,2.73,4.65,2.73,9.31,5.43,13.95,8.16.85.51,2.12.8,1.49,2.56-2.43.27-4.21-1.47-6.25-2.37S903.71,900.55,901.8,899.61Zm254.37,76.81.21.15c.5.08.1,0-.3,0a9.81,9.81,0,0,0-1.76-1.87c-3.36-2.1-6.77-4.11-10.19-6.11a29.47,29.47,0,0,0-2.89-1.33c-.43,1.93-.78,3.47-1.2,5.32-2.65,1.37-5.33,2.8-8,4.15a31.58,31.58,0,0,0-13,11.1c-1.93,3-3.91,6-6.17,9.37,0,2.07.19,4.6,0,7.1-.44,4.84.39,9.29,3.38,13.22l.23,1.41c.41-.6.42-1.08-.36-1.3a57.65,57.65,0,0,1-.68-8.05c.63-13.17,6.58-23.34,17.75-30.39.45-.28,1.19-.11,1.88-.15-.21,2.07-1.56,2.81-2.71,3.6a33.39,33.39,0,0,0-12.29,16,26.7,26.7,0,0,0-1.36,16.38c.77,3.16,2,6.17,5,8a6.16,6.16,0,0,0,5.37,2.73c-1.64-1.27-3.2-2.72-5.47-2.62.41-1.78-.74-3.12-1.47-4.5a16.51,16.51,0,0,1-1.84-8.34c.24-10,4.24-18,12.44-23.9,4.86-3.5,10.14-5.33,16.16-4.71,2.5.25,5,.56,7.5.8,2.27.21,4.55.73,6.94,0-.43-1.92-1.78-2.33-3.22-2.49-4.11-.46-8.23-.86-12.34-1.28-1.61-.16-3.23-.21-4.83-.47-.89-.15-1.69-.64-1-2.24Zm-5.46-402.59a23,23,0,0,0-1.17-3.48c-1.31-2.54-2.77-5-4.2-7.49a9.66,9.66,0,0,1-.63-8.25,21.58,21.58,0,0,1,5.58-8.71l-6-2.13c-2,2.3-2.32,5.05-3.46,7.42a7.26,7.26,0,0,0,.48,7.16c2.63,4.69,5.22,9.39,7.89,14,.32.56,1,.9,1.57,1.34.42,1.15.59,2.52,1.33,3.4a32.86,32.86,0,0,0,4.69,4.44c3.66,2.93,7.38,5.78,11.14,8.59,5.7,4.25,4.77,5.16,13.2,3,1.53-.39,3.31-.2,4.19-1.95-.12-2.77-.13-2.77-1.4-5.13a18.94,18.94,0,0,1-2.65,1.71c-3.49,1.48-7.09,2.64-11,2.05-.84-.13-1.68-.68-1-2.14a15.31,15.31,0,0,0,2.46-.19c3.46-.78,7.1-.77,10-3.39,9-8,18.21-15.86,27.31-23.8a18.81,18.81,0,0,0,1.92-2.46,10.35,10.35,0,0,1-8.5-2.79c-2.61-2.21-5.43-4.18-8.09-6.33a42.8,42.8,0,0,1-4-3.67c-.6-.61-1.1-1.44.07-2.35.69.47,1.44.94,2.14,1.48,3.71,2.87,7.52,5.61,11.07,8.67,3.91,3.37,7.73,3,12,.54-.29-1.14-.54-2.12-.83-3.23a28.19,28.19,0,0,0-2.9.52c-3.41,1-6.2,0-9.07-2a43.27,43.27,0,0,1-14.68-17.63,8,8,0,0,1-.53-6.25c.46-1.34,1-2.67,1.5-4.25-1-.45-1.77-.86-2.58-1.15-.26-.09-.64.13-1.18.27-.86,2-1.72,4.19-2.72,6.29-.24.49-1,.75-1.86,1.39-.22-1.66-.36-2.72-.55-4.1l-28,24.46a15.06,15.06,0,0,0-1.91,1.92c-3.69,4.75-5.31,9.27-1.67,14.21,2.22,3,3.76,6.55,5.53,9.89.41.78.55,1.76-.77,2.19ZM931,1653.06c-.27-.26-.53-.52-.25-.24l.37.12a21.44,21.44,0,0,0,9.27,5.18c4.81,1.51,9.64,3,14.51,4.27a39.14,39.14,0,0,0,6.9,1.15,103.58,103.58,0,0,0,26.88-1.74,61.65,61.65,0,0,0,7.93-1.51c9.44-3,18.83-6.11,28.23-9.23,12.13-4,24.24-8.11,36.38-12.11q35.65-11.71,71.34-23.36c2.49-.81,4.52-2,5.75-4.47,1-2.09,2.48-4,3.68-6,.41-.68,1.32-1.38.35-2.4-1,.27-2,.5-3,.83q-22.07,7.25-44.12,14.49-13.35,4.38-26.72,8.66a14.69,14.69,0,0,1-3.3.23c.37-.91.43-1.63.76-1.79a35.29,35.29,0,0,1,4-1.54q39.48-13.06,79-26.13a40.29,40.29,0,0,0,3.9-1.78c-.26-2.91.4-5.61-.54-8.59-2.8.15-5.24,1.36-7.73,2.23-21.77,7.56-43.48,15.27-65.27,22.76-14,4.79-28,9.28-42,13.91L989,1641.92c-5.46,1.79-10.88,3.58-16.72,4.14-7.88.77-15.7,2-23.66,1.62a42.78,42.78,0,0,1-13.2-2.47c-5.89-2.24-11.84-4.32-17.74-6.52-2.17-.8-4.28-1.76-6.45-2.67-1.2-5.84-.3-11.63-1.26-17.33-6.32,2.15-12.43,4.22-18.53,6.33a20.32,20.32,0,0,0-2.52,1.32c1.08.77,1.78,1.33,2.53,1.79,6.3,3.87,12.71,7.55,18.88,11.62a95.79,95.79,0,0,0,27.49,12.16,85.39,85.39,0,0,0,21.85,2.9,64.78,64.78,0,0,0,10.73-1c6-.93,12.14-1.23,18-3.22,23.19-7.83,46.46-15.46,69.7-23.15a29.48,29.48,0,0,1,4.14-1.19c.5-.08,1.11.55,1.71.88-1.22,2.08-3.14,2.17-4.78,2.72q-35.62,11.84-71.28,23.57a58.17,58.17,0,0,1-9.47,2c-3.91.59-7.89.77-11.8,1.36a63.93,63.93,0,0,1-28.3-2C936,1654,933.46,1653.59,931,1653.06Zm138.48-685.32q-7.71,2.44-15.43,4.86a11.65,11.65,0,0,1-3.12.65c-.44,0-.91-.7-1.84-1.49,2-.84,3.46-1.52,4.94-2,8.36-2.82,16.76-5.51,25.08-8.42a20.76,20.76,0,0,0,12.41-11.23c2.2-4.73,4.43-9.46,6.48-14.25a48.1,48.1,0,0,0,2.6-7.64c1.14-4.72,2.05-9.5,3-14.26,1.13-5.61,2.22-11.23,3.46-17.5a20.73,20.73,0,0,0-2.16,1.45c-3.2,2.91-6.46,5.75-9.51,8.81a19.92,19.92,0,0,1-8.27,4.84q-30,9.81-60,19.8a53.59,53.59,0,0,1-17.43,3.22,31.14,31.14,0,0,0-9.61,1.48c-2.09,12.55-2.45,25.17-4.69,37.07-2.49,2.24-5.86,1.87-7.85,4.68,2.65,1.07,5,1.85,7.26,3,4.06,2.06,8.27,2.23,12.64,1.64a58.24,58.24,0,0,1,6.44-.63,26.25,26.25,0,0,0,7.91-1.49c5.47-1.82,10.94-3.59,16.38-5.47a9.48,9.48,0,0,1,5.14-.75c.6,2-.81,2.29-2,2.68q-10.23,3.42-20.49,6.79a11.41,11.41,0,0,1-2.6.66c-5,.38-10.06.68-15.09,1a16.76,16.76,0,0,1-7.87-1.49c-4-1.71-8-3.22-12.05-4.75-.42-.16-1,.11-1.49.18a4.67,4.67,0,0,0-.36,4.71,20.48,20.48,0,0,0,11.72,3.43c3.24-.08,6.5.18,9.73,0,6.64-.41,13.28-.9,19.68-3L1054.37,974c4.28-1.4,8.53-2.86,12.8-4.28,1-.35,2-.79,2.21-2l1-.4Zm31.53-108c-2.5-2.32-5-4.59-7.49-7-4.25-4.15-8.43-8.36-12.53-12.45-2.35,0-4.33.06-6.3,0-7.59-.28-8-.66-10-7.87-.54-1.95-1.28-3.95.06-5.69,2.48-3.22,3.92-7.39,8.07-9.14a3.18,3.18,0,0,1,.53-.14l9.47-2.08a25.91,25.91,0,0,1,8.36,7.2c.62,2.58-.52,4.57-1.25,6.55a11.64,11.64,0,0,0,1.1,10.82c3.14,5,6,10.23,9.09,15.34.42.7.7,1.7,2.15,1.47a45.59,45.59,0,0,0,4.56-11.31c3.16-12.54,4.57-20.88,4.3-24.24-.14-.11-.28-.31-.43-.32-1.43-.08-2.87-.2-4.31-.18-12.13.24-21.24-7.78-24.61-17.61-.81-2.36-1.53-4.75-2.38-7.41-1.93.12-3.72.1-5.47.36-2.85.44-5.64,1.17-8.49,1.58-8.37,1.21-16.58,3.4-25.07,3.9-4.13.24-8.26.6-12.38,1-9.67,1.06-19.35,1.75-29.09,1.9-20.92.33-41.8,0-62.62-2.36-4.28-.49-8.59-.88-12.84-1.59-6.93-1.15-13.83-2.47-20.71-3.84-6-1.2-12-2.25-17.91-3.95-10-2.92-19.9-6.31-29.85-9.47a21.8,21.8,0,0,0-2.68-.5,28.84,28.84,0,0,0-1.11,2.68c-.78,2.59-1.57,5.18-2.23,7.8a6.17,6.17,0,0,1-4.5,4.89,24,24,0,0,0-3.06,1,11.62,11.62,0,0,1-8.41.34c-3.61-1.11-7.33-1.85-11-2.72a9.7,9.7,0,0,1-5.14-2.77,16.46,16.46,0,0,0-2.25-1.72l-4.92,1.84c1.13,2,2,3.77,3.05,5.41,8.06,12.61,16.21,25.15,24.21,37.79,3.23,5.1,7.65,9,12.15,13.2,1.68-.86,3.44-1.44,5.11-.33,3,2,6.28,3.51,8.71,6.31,1.42,1.62,3.26,2.87,4.61,4.54,2.3,2.85,5.6,5.35,4.24,9.77,6.11,5.36,12.15,10.41,19.44,13.84,8,3.75,15.75,8,23.71,11.74,5.85,2.79,11.86,5.24,17.82,7.8,1.47.63,3,1.34,4.78.15,1.4-5.76,2-11.9,4.55-17.33,3-2.27,6.32-2.16,9.49-2.39,5.93-.44,11.83-1.08,17.69-2.07a11,11,0,0,1,3.76,0c9.54,1.82,19.07,3.75,28.61,5.59a12.81,12.81,0,0,1,6.64,3.4c2.58,2.51,5.09,5.11,7.77,7.53a6.62,6.62,0,0,1,2.31,6.74c-.47,2.42-.92,4.92-.15,7.56a14.65,14.65,0,0,0,5.47-.23c11.76-2.67,23.5-5.4,35.28-8a21.8,21.8,0,0,0,8.34-3.62c1.17-.85,2.42-1.58,3.62-2.38,10.19-6.78,10.19-6.78,17.49-16.54,1-1.3,1.86-2.67,2.93-3.89,4.87-5.55,7.38-12.29,9.69-19.13l.12-.2Zm12,459.82-.23-.08.34,0c.06,6.1,2.7,11.41,4.45,16.14a20.32,20.32,0,0,0,12.53,5.18c5.56.51,11.12,1,16.68,1.45a22.62,22.62,0,0,0,3.69-.33c-.28-1.24-.56-2.09-.66-3-.12-1.05.29-1.73,1.83-1.42a8.47,8.47,0,0,1,1.13,2.14,9.35,9.35,0,0,0,4.62,6.35,4.64,4.64,0,0,1,1.6,1.41,7.78,7.78,0,0,1,.47,2.39c-1.37-.57-2.32-.71-2.9-1.25-2.53-2.37-5.67-3.06-8.9-3.43-5.37-.61-10.75-1.08-16.13-1.56-1.23-.11-2.47,0-4.19,0,.62,1.25.92,2.08,1.39,2.8,2.83,4.39,5.62,8.82,8.59,13.12a15.88,15.88,0,0,1,3,8.51c.6,10.26,1.41,20.5,2.19,30.75.93,12,2.21,24.06,2.74,36.12.24,5.5,1.59,9.75,6.46,12.63,2.75,1.63,3.59,4.27,3.65,7.38.15,7.57.53,15.13.69,22.7.22,10.64.27,21.29.52,31.93.11,4.65.52,9.3.8,14,5.27,3.18,10.34,6.27,15.45,9.29a12.24,12.24,0,0,0,2.62.81c0-1.71,0-3,0-4.22-.17-5-.46-10.08-.55-15.13-.37-19.48-.65-39-1-58.43-.41-21.46-.89-42.92-1.32-64.38,0-2.31-.25-4.67.68-6.64a5.78,5.78,0,0,1,1.13-.79c1.37-.43,2.75-.8,4.06-1.17,2.67-3.83,2.67-3.83,2.92-6.44-1.72.2-1.8,3.3-4.14,2.48-.1-.44-.34-.86-.22-1.09,1.42-2.79,1-5.54.11-8.37s-1.62-5.54-2.28-8.34c-.22-.94,0-2,.09-3.95,1.14,1.37,1.9,1.92,2.12,2.63,1.22,4,2.27,8,3.45,11.94a6,6,0,0,0,1.19,1.59c1.8-.81,1.63-2.08,1.27-3.31-1.52-5.18-3-10.36-4.63-15.53-3.31-10.86-6.81-21.66-9.94-32.57a181.13,181.13,0,0,1-6-30.18c-.86-7.89-1.5-15.79-2.26-23.69a293.18,293.18,0,0,1-.53-43.25c.8-15.48,3.11-30.83,5.81-46.11,1.5-8.52,3-17,4.47-25.56a27.24,27.24,0,0,0,0-4.35l-2.65.18c-.74,4-1.47,7.85-2.18,11.72-1,5.68-2,11.36-3.07,17-.15.82-.26,1.84-1.53,1.8-1.43-1-.75-2.27-.56-3.41,1.44-8.53,2.9-17.06,4.46-25.57a9.79,9.79,0,0,0-.71-6.28c-2.23-4.72-4.25-9.54-6.41-14.3a26.55,26.55,0,0,1-2.3-8.83c-.85-10.24-1.9-20.47-2.86-30.7q-1.23-13.19-2.44-26.39c-.85-9.33-1.66-18.67-2.53-28a36.16,36.16,0,0,0-.78-3.74c-.9-.67-1.79-1.27-2.62-2a6.06,6.06,0,0,0-6.53-1.19c-2.27.91-4.63.54-6.94.12-2-.36-3.88-.72-5.83.13a5.8,5.8,0,0,1-4.72-.19c-1-.42-2-.72-3.35-1.19a24.45,24.45,0,0,0-.18,3.37c.88,10.42,1.77,20.83,2.73,31.24.88,9.52,1.86,19,2.79,28.52.28,2.87.42,5.76.85,8.61.53,3.4-.35,5.9-3.43,7.76-2.77,1.66-5.29,3.73-8,5.72-.37,1.55-.84,3.1-1.11,4.68-1.25,7.1-2.43,14.21-3.65,21.31-2.89,16.7-5.39,33.44-6.64,50.37a299.78,299.78,0,0,0,.82,49.69c.89,9.86,2.58,19.65,3.85,29.48a21.56,21.56,0,0,1-.13,3.59c-1.87.06-1.93-1.11-2.14-2.16a326,326,0,0,1-5.13-43.47,313,313,0,0,1,3.44-67.41c1.6-10.33,3.35-20.64,5.12-30.94,1.1-6.38,2.35-12.73,3.52-19l10.17-7.88c.47-6.12-5.23-68.6-6.86-75.52l-9-3.86-14.15,4.6a20,20,0,0,0-.83,2.65c-.8,5.16-1.82,10.31-2.26,15.51-1.22,14.19-2.23,28.4-3.19,42.6a19.4,19.4,0,0,0,.77,5.83c2.3,9.27,4.63,18.53,7.08,27.76a17.61,17.61,0,0,1,.07,9.06c-1.55,6.11-3,12.26-4.38,18.4a102,102,0,0,0-2.36,11.1c-1.27,10.74-2.34,21.51-3.33,32.28a52.13,52.13,0,0,0,.29,8.08c.12,1.79.42,3.58.66,5.36,1.05,7.68,1.93,15.38,3.22,23,1,5.86,2.41,11.64,3.78,17.43a15.08,15.08,0,0,1-.12,8c-1.85,6.22-3.52,12.49-5.19,18.76a95.91,95.91,0,0,0-2.47,10.51q-1.45,9.9-2.31,19.87a57.29,57.29,0,0,0,0,11.34,199.15,199.15,0,0,0,5.81,31.32c2.73,9.72,2.53,9.78.66,20.15-.32,1.77-.61,3.55-1,5.31-2.43,10.92-1.48,21.84-.32,32.85,19.45,12.19,39.26,23.43,58.92,36,0-2.2.1-3.78,0-5.35-.83-11.33-1.71-22.65-2.55-34q-1.21-16.46-2.35-32.92a12.52,12.52,0,0,0-2.21-6.54c-3.28-4.75-6.52-9.53-9.59-14.41a18,18,0,0,0-7.24-7.05,9.12,9.12,0,0,1-4.88-6.13q-2-7.29-4.44-14.46a11.47,11.47,0,0,1-.33-6.9,25.18,25.18,0,0,0-.9-16.9,3.52,3.52,0,0,1-.19-.51c-1.23-4.52-2.51-9-3.63-13.58-.31-1.26-1.1-2.76.54-4,1.08.46,1.36,1.43,1.71,2.48,1.06,3.18,1.18,6.68,3.23,9.53l.21,3,.58-.1-.9-2.79c-.89-6.78-2-13.54-2.62-20.34-1-10.57-2.09-21.15-2.62-31.75a257,257,0,0,1,2.72-49.57c.73-5.09.77-10-1.81-14.71-1.64-3-1.63-6.23-1.08-9.48.62-3.73,1.36-7.44,1.92-11.18a13.1,13.1,0,0,1,3.43-7.17c3.66-4,7.11-8.15,10.82-12.07a13,13,0,0,0,4-8.52,9.8,9.8,0,0,1,.92-2.67c.78,0,1.2-.08,1.47.08q10.88,6.53,21.71,13.13a8.38,8.38,0,0,1,1.63,2c-2.78,3.14-6.3,4.58-9.69,6.21-4.21,2-8.43,4-12.72,5.9-4.1,1.77-7.91,4.26-12.36,5.26-1.06-.5-2-1-3-1.41s-1.9-.72-3.28-1.24l-2.65,15.33,3.85,2.28,3.71-1.14c-.43,4.16,1.51,7,3.28,9.92a31.79,31.79,0,0,1,4,8.61c-.21.22-.34.46-.47.46-3.85,0-6.06-3.56-9.55-4.35-1.92,4.58-3.33,16.06-3.93,35.71a327.1,327.1,0,0,0,6.71,77.13c3.56,3.71,8.59,4.29,11.3,8.9-4.67.34-7-3.49-10.54-4.21-2.2,3.6-3.36,10.38-2.56,15.23,1.49,1,3.18,2,4.73,3.23.65.5,1.34,1.32.39,2.26C1115.59,1321.57,1114.44,1320.11,1113,1319.53Zm-53.73,196.33c0-4.1,0-7.69,0-11.27-.09-7.39-.1-14.79-.36-22.17a13.83,13.83,0,0,1,3.29-10,34,34,0,0,0,5.73-10.36c.87-2.37,1.84-4.7,2.69-7.07a11.63,11.63,0,0,1,3.84-5.72,9.66,9.66,0,0,0,2.69-3.9c1.92-4.47,3.58-9,5.45-13.53a15.66,15.66,0,0,0,1.11-8.45c-1-7.14-2.06-14.28-2.74-21.45-1-10.23-1.63-20.49.55-30.69.64-3,1.16-6,1.75-9a27.19,27.19,0,0,0-.43-12.83,213.28,213.28,0,0,1-6.73-34.44,40.24,40.24,0,0,1-.28-10.23c.58-3.92.87-7.88,1.29-11.82a127,127,0,0,1,4.81-24.89c1.52-4.81,2.59-9.75,4-14.58a14.36,14.36,0,0,0,.15-7.42c-1.94-9.16-3.8-18.34-5.39-27.57-1-5.67-1.27-11.46-2.12-17.17a49.11,49.11,0,0,1-.13-12.93c.64-5.55,1.3-11.1,1.73-16.67a138.19,138.19,0,0,1,3.78-24c1.47-5.75,2.67-11.58,4.17-17.33a17,17,0,0,0,0-9c-2.37-8.87-4.45-17.83-6.86-26.7a30.88,30.88,0,0,1-.85-10.69c.32-4.13.58-8.27.91-12.4.74-9.35,1.41-18.69,2.29-28,.35-3.76,1.2-7.47,1.73-11.22.19-1.34.82-2.79-.46-4.2l-70.56,23.31a11.77,11.77,0,0,0-3.48,9.49c.11,2-.15,4,.09,5.94.48,3.85-.8,7-3.06,10-5.17,6.94-10.11,14-15.26,21-3.8,5.13-8.23,9.51-14.56,11.54-2.57.82-5,2.11-7.51,3-7.71,2.81-15.24,2.31-22.31-1.89-11.45-6.82-22.8-13.83-34.21-20.73-1-.61-2.09-1.06-3.33-1.68a13.36,13.36,0,0,0-.81,2.38q-1.15,11-2.21,22a15.91,15.91,0,0,0,.2,3.77c1,6.77,1.93,13.56,3.17,20.29a299.18,299.18,0,0,1,3.82,35.44c.56,9,.87,18,1.25,27,.76,18.2,1.35,36.41.52,54.62-.42,9.18-.26,18.39-1.73,27.51-.83,5.16-1.46,10.34-2.16,15.52q-1.83,13.4-3.64,26.78a301,301,0,0,0-2.9,34.45c-.08,3.61-.17,7.22-.25,10.82-.1,5-.45,10.1-.26,15.13.36,9.18,1.17,18.35,1.55,27.53.88,20.91,1.42,41.82,1.09,62.75-.12,7.6.22,15.09,2.38,22.46,1.72,5.86,2.43,12,5.71,17.38.84,1.36,1.69,2.94,3,3.77,5.11,3.35,10.16,6.85,16.23,8.41,6.8,1.75,13.56,3.43,20.69,3.61,8.45.22,16.88,1.26,25.33,1.6,9.17.37,18.34.76,27.52-.73,5.16-.84,10.29-1.53,15.24-3.33,3.72-1.34,7.56-2.36,11.32-3.61C1043.41,1521.23,1051.06,1518.62,1059.26,1515.86Zm34.8-770.07c4.64-5.22,10.42-9.17,16.62-12.8-.46-2.32-.86-4.43-1.31-6.53-3-13.91-5.22-28-9.83-41.52-3-8.87-5.15-18.08-8.72-26.71-7.16-17.3-13.84-34.83-23.44-51-6-10.07-11.24-20.54-18.35-29.93-7.29-9.62-13.78-19.85-22.46-28.38-3.47-3.41-6.73-7-10.14-10.51-1.51-1.53-3.17-2.91-4.75-4.34-7,.19-13.82-.73-20.87,1.24.37,1.73.7,3.25,1,4.69,4.79,1.77,6.34,6.43,9.67,9.16,0,4.54-2.31,7.79-4.87,10.82a6.4,6.4,0,0,1-3.26,1.72,54,54,0,0,1-6.91,1.22,7.64,7.64,0,0,1-3.73-.26c-3.27-1.41-6.71-2.6-9.63-5.32.29-4-1.77-8,.12-12.22l8.4-5.15c.63-1.89,1.7-3.32.53-5.12-1.13-.27-2.38-.48-3.56-.88a12.86,12.86,0,0,1-3.91-1.7,68.52,68.52,0,0,0-16.58-10c-.31-.13-.52-.48-1.07-1-.27-2.58-.56-5.43-.81-7.78.74-3.3,3.44-5.18,3.69-8.49-4.47-.57-8.75-1.09-13-1.65a19.74,19.74,0,0,0-12.16,2.44c.53,2,1.95,2.81,3.89,3.13,2.11.34,4.2.82,6.08,1.2,1.59,3.82,1.59,3.82-.35,8.81a25.33,25.33,0,0,1-22.18,7.31c-3.14-2.47-5.67-5-4-9.26,1.42-1.11,2.91-2.14,4.23-3.36a4.25,4.25,0,0,0,1-5.47c-18.1,5.58-33,16.57-48.36,26.9.7,1.94,2.71,3.13,1.86,5.11-2,4.62-4.06,9.19-6.12,13.77a4.91,4.91,0,0,1-.67.85c-5.67,7.24-11.38,14.45-17,21.74a24.49,24.49,0,0,1-7.07,6.59c-4.62,2.61-8.4,6.17-12.14,9.82-.9.88-1.91,1.65-2.86,2.48a7.19,7.19,0,0,1-5.38,2l-4.52-2.92c-2.42,4-4.76,7.64-6.84,11.42a75.34,75.34,0,0,0-3.29,7.4c-4.38,10.46-9.13,20.79-11.34,32-.8,4.06-1.91,8.06-2.83,12.1-1.43,6.33-3,12.62-3.46,19.13-.37,5.21-.74,10.43-1.34,15.62-.69,5.8-.79,11.48,1.43,17,.79,2,1.21,4.15,1.85,6.22,1.33,4.26,5.94,10.69,10,13.86,1.91-1.24,3.94-2.43,5.8-3.83,3.24-2.44,7-3.67,10.76-4.9,2.59-.84,4.39-.21,6.31,1.62,4.68,4.49,9.4,9,14.41,13.08a14.59,14.59,0,0,1,5.37,9c.91,4.77,2.19,9.48,3.13,14.25a5.51,5.51,0,0,0,3.5,4.42c.83.34,1.64.77,2.49,1,14.45,4.44,28.53,10.09,43.5,12.78,9.22,1.65,18.38,3.58,27.6,5.26,3.18.57,6.44.73,9.66,1.1,7.51.86,15,2,22.55,2.53,9.16.65,18.36.93,27.56,1.08,9.54.16,19.09.36,28.64-.56,8.79-.84,17.63-1,26.45-1.52,1.08-.06,2.15-.21,3.22-.37,8.9-1.33,17.81-2.64,26.71-4,2.26-.35,4.5-.89,7-1.4.37-10.47,4.56-19.37,10.09-28.16l-2.52-.21-3.45,4.91c-4.67,1.21-9.2,2.35-14,1.21-2.62-3-5.71-5.54-7.33-9.15a40.21,40.21,0,0,1,2.66-12.39c2.43-1.74,4.93-3.5,7.41-5.3a4.79,4.79,0,0,1,4.59-.8c3.22,1.08,6.44,2.19,9.53,3.25.51,1.34.94,2.33,1.26,3.34.76,2.41,1.52,4.82,2.19,7.25C1090.79,744.31,1091.61,745.33,1094.06,745.79Zm65,6.54c10-6.3,20.36-11.4,28.8-19.55,10-9.7,10.13-9.57,17.3-21.17a31.1,31.1,0,0,0,4.76-13c.54-4.82,1.88-9.58,1.29-14.5-.55-4.65-1-9.31-1.67-14-.35-2.67-.8-5.34-1.4-8-3-13.37-7.42-26.35-11.16-39.51a69,69,0,0,0-8.51-18,10.26,10.26,0,0,0-1.25-1.44c-.44,0-.67,0-.79.1a15,15,0,0,0-2.54,1.95c-4.94,5.57-11.3,8.09-18.52,8.88a1.84,1.84,0,0,0-.53.09c-3.44,1.5-6.28.23-9-1.87-5.7-4.41-11.47-8.75-17.15-13.19a28.57,28.57,0,0,1-9.72-12.73,67.14,67.14,0,0,0-7.39-14.37c-4.22-6.26-3.86-6.22-1.36-13.37,2.27-6.53,5.78-11.88,11.5-15.8a8.94,8.94,0,0,0,3.76-4.08c-5.34-4.13-10-8.89-15.85-12.2-4.55-2.57-9-5.31-13.52-7.93-3.27-1.9-6.47-4-9.9-5.54-6.38-2.91-12.91-5.53-19.39-8.22a30,30,0,0,0-3.41-.92l-1.17,12.83c6,6.1,7.09,9.14,5.63,14.48-3.88,3.64-8.17,5.87-13.66,3.79a2,2,0,0,0-.54-.06,13.79,13.79,0,0,1-10.35-5.06c-1.07-1.21-2.19-2.36-3.44-3.7a27.28,27.28,0,0,1,2.47-9.38c2.92-2.71,6.82-1,9.74-3.48,1.44-3.62,3.94-7.18,5-11.37-14.88-5.34-33.8-9.78-42.77-7.54,2.16,2.2,5.51,2,7.77,4.75,1.34,3.48,3,7.47,4.44,11.54a18,18,0,0,1,.25,11.23c-2.15,2.27-5.38,2.06-7.17,4.61,2.91,3.15,5.69,6.23,8.54,9.23,7.3,7.73,14.76,15.29,20.61,24.29,7,10.71,15.18,20.62,20.75,32.24.93,2,1.94,3.87,3,5.75a273.09,273.09,0,0,1,16.06,33.6c5.19,13.07,10.44,26.09,14,39.72,1.91,7.32,4.34,14.51,6.07,21.86,1.69,7.18,2.73,14.52,4.14,21.77.85,4.37,1.22,8.86,2.81,13.14,3.09,0,6-.09,8.83,0a22,22,0,0,1,13.8,5.47,28.4,28.4,0,0,1,9.28,14.3C1157.88,749.37,1158.42,750.65,1159,752.33Zm10,789.69c-11.53,3.75-22.67,7.33-33.78,11q-46.41,15.29-92.82,30.61L983,1603.23a42.61,42.61,0,0,1-11.6,2.38c-1.26.05-2.5.36-3.75.47-5.37.49-10.74,1.19-16.12,1.33a79.6,79.6,0,0,1-11.29-.94,19.06,19.06,0,0,1-4.14-1.16c-7.12-2.55-14.22-5.15-21.33-7.69-.24-.09-.61.19-1.17.38l.82,3.57c6.71,2.53,13.27,5,19.84,7.47a25.73,25.73,0,0,0,3.08,1,22.32,22.32,0,0,0,3.71.64c5.21.34,10.42.6,15.63.94a6.51,6.51,0,0,1,1.71.63,3.18,3.18,0,0,1-3.42,1.78c-3.24-.08-6.47-.26-9.71-.47-1.56-.1-3.15-.67-4.58.23-.84,5.7-.13,25.83,1.07,30.29,2.8.39,5.6.69,8.44-.28a16.84,16.84,0,0,1,3.71-.51c6.09-.61,12.19-1.14,18.26-1.85,3.21-.37,6.45-1.68,9.55-1.36a16.57,16.57,0,0,0,7.22-1c9.23-3,18.48-6,27.72-9q23.36-7.65,46.69-15.35c1.85-.61,4-1.18,5.24-2.52,2.33-2.62,5.12-3.14,8.19-2.84a8.32,8.32,0,0,0,4.18-.59c1.67-.67,3.39-1.21,5.09-1.81q28.8-10.07,57.6-20.13c6.1-2.15,12.16-4.44,18.27-6.57,3.39-1.19,6.87-2.16,10.28-3.31a30.52,30.52,0,0,0,3.27-1.55c0-5,.16-9.67,0-14.35s.27-9.21-.78-14.1c-3,.85-5.54,1.52-8.08,2.35q-23.61,7.73-47.2,15.51l-44.6,14.72-60.52,20q-16.43,5.4-32.85,10.75c-1.31.43-2.62,1.36-4.32,0,.66-.6,1.15-1.4,1.85-1.65,3.39-1.19,6.85-2.21,10.26-3.34l90.3-29.73q45.39-14.94,90.79-29.91a22.13,22.13,0,0,0,2.67-1.32ZM992.31,972c-5.42-6.08-5.42-6.09-12.13-7.35-4.6-.87-9.22-1.66-13.8-2.6-1-.21-2.47-.06-3-1.87a18.25,18.25,0,0,1,7.11.06c4.6.87,9.16,2,13.77,2.79a11.45,11.45,0,0,1,6.61,3.34,16.69,16.69,0,0,0,2.69,1.82c.91-8.25,1.78-16,2.6-23.65s2.19-15.31,2.13-22.53c-2.44-4.3-7.06-5.84-8.74-10l-5.23-1c-.38.6-.75,1.17-1.18,1.83a28.48,28.48,0,0,1-9.88-1.67,5.7,5.7,0,0,1-.43-1.19,7.73,7.73,0,0,1,.07-1.3H964.3c2.53.91,4.82-.38,6.56,1-.23,1.49-1.17,1.65-2,1.77-3.38.48-6.78.94-10.17,1.34a7.69,7.69,0,0,0-4.76,1.71,47.86,47.86,0,0,0-1.14,5c-1.11,8.94-2.14,17.89-3.17,26.85-.45,3.94-.63,7.91-1.27,11.82-.34,2,1,3.29,1.58,4.92l-2.46,5.58,3.18,1.15,1.66-3a8.1,8.1,0,0,1,2-.9c6-.89,12-1.93,18.22-.52,6,1.38,12,2.51,16.36,7.39.1.12.32.12.81.29ZM828.36,785.3c1.08-2.93,2-5.46,2.94-8a16.23,16.23,0,0,0,.33-11.08c-1.71-5.49-3.2-11-4.87-16.86l1.94-4.21c-4.81-4.68-9.23-9.61-14.73-13.54-3.43,2.2-6.63,4.19-9.76,6.28-1.07.71-2,1.67-.85,3.34a10.28,10.28,0,0,0,1.94-.27c2.4-.76,4.75-1.69,7.17-2.37a11.4,11.4,0,0,1,3.69-.32c.42,0,.8.78,1.28,1.29-7.35,2.43-14.35,4.65-21.29,7.06s-14.07,4-21.06,7.14c1.3,1.4,2.29,2.43,3.23,3.5s2.23,1.74,2,3.79c-3.87-1.14-5.46-5.05-9-6.12l-6.63,4.29v3.14l5.26-2.71c6.08,2.76,10.77,8,12.39,13.6A54.84,54.84,0,0,0,784,779c2.3,5.58.26,10.58-1.9,15.58a3,3,0,0,1-3.51,1.82c-1.3-.22-2.58-1-4.44.1,5.12,2.26,9.79,3.44,14.9,1.69,8.68-3,17.39-5.85,26.1-8.72C819.39,788.06,823.68,786.76,828.36,785.3Zm359.25,58.19a78,78,0,0,1-13.72,17.1c-5.4,5.23-10.9,10.36-16.34,15.52,4.94,5.81,28.4,28,32.82,31a18.05,18.05,0,0,0,9.83-4.85c7.81-7.2,15.36-14.65,20.81-23.91.44-.74.78-1.53,1.1-2.18C1218,871.08,1192.17,846.49,1187.61,843.49ZM792.46,524.84c.74-1.07,1.23-1.94,1.87-2.69,3.75-4.38,7.57-8.7,11.31-13.09,2.48-2.92,2.9-4.07,3.4-8.07-1.68,0-2.52,1.07-3.17,2.45-1.29,2.76-2.35,5.64-4.47,7.95-2.56,2.79-4.94,5.75-7.63,8.42-4,4-8.21,8-13.85,9.45-.72,1.36-.76,2.53.3,3.58,1.27,1.28,2.51,2.59,3.82,3.83q16.07,15.29,32.15,30.54c.75.71,1.62,1.3,2.34,1.87,10.19-6.36,18.2-14.48,25.19-24.18-5.8-6.15-11.36-12.28-17.2-18.14s-11-12.21-17.7-17.56c-2.7,3.12-5.15,6-7.64,8.81C795.47,524.49,795.46,524.48,792.46,524.84Zm23.94,302-29,25.22c-.58,3.85,1,6.85,1.45,10a13.89,13.89,0,0,0,3.46,7.19c3.23,3.62,6.54,7.17,9.74,10.81,4.18,4.76,10,6,15.31,7.63,5.14-3.69,26.91-22.85,29.35-25.77-.1-.14-.17-.35-.31-.43a11,11,0,0,0-1.42-.7,23.47,23.47,0,0,1-10.3-7.54c-2.46-3.1-5.16-6-7.73-9C820.1,836.31,820.11,836.31,816.4,826.89Zm45,116c1.46,2.05,3.91,2.91,6,4.19q32.77,19.93,65.59,39.79c4.93,3,9.85,6,14.81,8.91,1.81,1.06,3.61,2.4,5.9,1.65,1.72-6.78,2.32-14.82,1.46-19.41-1.13-.75-2.3-1.59-3.53-2.33-11.74-7.05-23.49-14.05-35.22-21.11-10.33-6.23-20.66-12.46-30.91-18.82a8.28,8.28,0,0,0-7.17-1c-2.59.76-5.22,1.4-7.81,2.14-2.08.59-4.14,1.24-6.19,1.91C862.51,939.42,861.29,940.58,861.43,942.93Zm.24-166.68c5,1.62,9.47,3,13.9,4.49,7.86,2.58,15.71,5.23,23.87,6.78,3.53.67,7,1.47,10.58,2.11,8.31,1.51,16.51,3.68,25,4,4,.15,7.89.7,11.82,1.16a200.87,200.87,0,0,0,25.83,1.78c10.28-.13,20.55.11,30.82-.1,7.19-.15,14.38-.73,21.56-1.25,4.85-.34,9.71-.69,14.51-1.4,9.25-1.36,18.46-3,27.69-4.49l13.76-2.24c2.7,2.32,1.3,6,3.46,8.35V770.89c-2.34,3.36-.56,7.63-3.72,10.6-3.71.53-7.63,1.06-11.53,1.63-11.38,1.67-22.65,4.23-34.24,4.26-.36,0-.72,0-1.08.08-7.89.56-15.78,1.34-23.68,1.65-16.76.66-33.5-.34-50.24-1-.54,0-1.09,0-1.62-.1-6.26-.7-12.52-1.39-18.77-2.12-4.28-.5-8.58-.92-12.83-1.64-6.39-1.08-12.74-2.33-19.09-3.61-11.28-2.29-22.6-4.42-33.41-8.56-2.69-1-5.51-1.69-8.26-2.54-1-.31-1.95-1-3.35.1C862.41,771.41,862.09,773.5,861.67,776.25Zm-61.11-268c-19.73-18.75-38.92-37.15-58.24-55.23l-13.43,14c.58.6,1.15,1.24,1.77,1.83Q749.83,487,769,505.28q7.43,7.07,15,14.05c1,1,2.22,1.72,3.51,2.71C792.79,518.4,796.24,513.36,800.56,508.21Zm448.26-26.46c-1.43,1.15-2.44,1.89-3.38,2.71q-19.37,16.85-38.7,33.69c-3.67,3.2-7.3,6.43-11.06,9.5a20.69,20.69,0,0,1-4,2.06,17.08,17.08,0,0,1,1.94,3.1c1.6,4.21,4.54,7.27,8,9.94,3,2.29,4.73,2.32,7.65-.17,3.83-3.27,7.59-6.64,11.39-9.94q19-16.47,37.93-32.94c1.14-1,2.54-1.83,3.13-3.63C1255.67,492.92,1252.45,487.43,1248.82,481.75Zm-262.2-23.6c5.62,4.63,11.87,2.13,17.91,2.6,1.82-4.23.85-8.41,1-12.46.17-4.32,0-8.65,0-13,0-4.15,0-8.29-.16-12.44-.1-4.33-.32-8.65-.45-13-.12-4.15-.07-8.3-.32-12.44s.35-8.55-.66-13c-6.35,1.89-12.55,1.61-18.73.72C984.33,390,985.42,446.5,986.62,458.15Zm56.79-28.86c.23-.39.68-.81.73-1.28,2.55-23.62,5.48-47.19,7.9-70.67-6.32-3.3-13.07-4-18.9-2a34.29,34.29,0,0,0-1.05,4.4c-.83,7-1.55,14-2.33,21-1,8.77-2,17.55-2.92,26.33-.59,5.37-1.17,10.75-1.69,16.13-.16,1.58-.52,3.23.74,4.92Zm-72.64,619.12c.78-6.61,1.54-12.66,2.22-18.73q2-17.69,4-35.4c.67-6.08,1.33-12.16,1.91-18.25.19-1.95.46-4-.66-5.78A24.11,24.11,0,0,0,966.94,967c-1.58-.12-3.26-.39-4.56.87-.21.35-.52.64-.56,1q-4.27,38.07-8.51,76.13a.87.87,0,0,0,.16.5,4.64,4.64,0,0,0,.54.64C959.5,1044.87,964.79,1046.74,970.77,1048.41ZM945.56,960c.69-6.17,1.45-12,2-17.92.56-6,1.89-12,1.65-18.26-1.44-.49-2.58-1-3.77-1.28-8.17-2.13-16.35-4.21-24.51-6.37-1.72-.45-3.38-1.16-5-1.77-.93-.34-1.83-.72-2.89-1.14,0,5.75-.09,11.14.06,16.51a12.24,12.24,0,0,0,1.18,4.65c2.94,6.35,6,12.64,8.93,18.71C932.83,957.1,941.13,959.7,945.56,960Zm188,477-48.81-29.38a31.47,31.47,0,0,0,0,3.18c.49,4.1.86,8.23,1.61,12.29a14.71,14.71,0,0,1-.79,8.44c-2,5-3.93,10-6,15a41.72,41.72,0,0,1-2.74,4.56c-.16.26-.09.66-.15,1.23l3.91,2.25ZM815.87,583.43,827,594.25c1.87-1.32,3.52-2.38,5.06-3.58,3.41-2.65,6.65-5.55,10.2-8a50.29,50.29,0,0,0,8-7.2c6.46-6.82,11.86-14.49,17.63-21.87a11.43,11.43,0,0,0,1.73-2.71c1.6-4,3.09-8,4.86-12.63-1.6-1.4-3.32-3-5.13-4.47s-3-3.46-5.59-4.44c-1,2.46-2,4.55-2.73,6.75a25.31,25.31,0,0,1-5.4,9.25c-3.46,3.91-7,7.79-10.23,11.86a113.72,113.72,0,0,1-22.94,21.2C820.4,579.88,818.46,581.45,815.87,583.43ZM1015.71,902c-2.83-2.66-5.52-5.05-8.06-7.6a12.27,12.27,0,0,0-6.6-3.36c-7.24-1.41-14.49-2.83-21.68-4.46a39.62,39.62,0,0,0-12.88-.84c-4.3.44-8.6.85-12.89,1.34-3,.35-6,.81-9,1.22-2.32,3.12-2.42,6.85-3.44,10.26a5.86,5.86,0,0,0,.34,4.85c7.28-.84,14.58-1.7,21.89-2.52a35.19,35.19,0,0,1,11.31.17c7.05,1.46,14.07,3.13,21.18,4.24,5.95.94,11,3.06,14.86,7.83.81,1,1.66,2.34,3.51,2.18C1015.54,911.07,1015.45,906.75,1015.71,902Zm193.87-83.57c-1.66-1.15-2.75-2-3.93-2.71q-18-11-36.05-21.86a25.47,25.47,0,0,0-3.31-1.83c-5.65-2.33-12.66,1.92-13.18,8a58.54,58.54,0,0,0,.05,6.11c3.76,3.35,25.52,16.85,43.9,27.32.73.42,1.54.69,2.69,1.19.39-3.58,0-6.92,2.3-9.6C1204.14,822.65,1206,820,1209.58,818.4Zm-48.5-205.92c3.66-.78,7.17-1.5,10.67-2.27,4.58-1,7.62-4.1,11-7.94l-9.46,1.77a33.6,33.6,0,0,1-3.94-2.3c-6.59-5-13.17-10-19.64-15.2a21.65,21.65,0,0,1-5.71-6.39c-3.8-6.94-7.66-13.84-11.67-20.66a9.65,9.65,0,0,1-.62-9.72c.58-1.21,1.69-2.55,1.07-4.55-2.69,2.47-5.69,4.08-7.07,7.13-1.92,4.23-3.56,8.59-5.29,12.8a40.46,40.46,0,0,0,1.94,3.59,83.19,83.19,0,0,1,9,17.12,23.8,23.8,0,0,0,8.07,10.59c6.16,4.68,12.27,9.42,18.43,14.1A35.83,35.83,0,0,0,1161.08,612.48Zm45,290.66c1,1.19,1.86,2.34,2.88,3.31q25.41,24.16,50.87,48.29a8.09,8.09,0,0,0,1.73,1,19.36,19.36,0,0,0,8.59-7.91c-5.91-6.67-52.18-50.25-56.3-53-2.11,2.11-4.28,4.25-6.41,6.42A20.28,20.28,0,0,0,1206.06,903.14ZM819.14,1533.69c4.58,3.81,11.89,8,15.37,8.82,0-2.19.07-4.34,0-6.49a34,34,0,0,1,1.2-10.66c2-7.27,4-14.57,5.92-21.86,1.09-4.12,2.12-8.26,3.21-12.53-5.51-2.9-10.16-6.59-15.87-9.15-.58,1.59-1.16,2.86-1.51,4.19-2.36,8.86-4.33,17.84-7.12,26.56C818.05,1519.7,818.71,1526.73,819.14,1533.69Zm-109-724.2c23.15-7.5,46.16-14.47,68.5-22.36l3.15-6.07c-.08-2.72-2.22-3.92-3.38-5.72-22.59,7.15-44.67,14.61-67,22C712.92,801.81,712.7,805.73,710.09,809.49Zm268.69,195.8a30.94,30.94,0,0,0,3.24-.88,14.15,14.15,0,0,1,11,0c3,1.14,6.16,2,9.26,2.93,4.13,1.23,8.27,2.4,12.13,3.52,5.65-1.87,10.94-3.65,16.24-5.38,11.13-3.62,22.27-7.19,33.38-10.86,1.43-.48,3.22-.53,4.18-2.28a52.21,52.21,0,0,0-4.14-8.12c-2,.62-3.69,1.13-5.38,1.68-14.87,4.91-29.76,9.77-44.59,14.8a15,15,0,0,1-10.53,0c-3.21-1.18-6.5-2.11-9.78-3.09-4.1-1.23-8.22-2.39-12.27-3.57C977.79,997.2,979.1,1001.12,978.78,1005.29Zm47-473c2.65,2.81,5.35,5.7,8.06,8.57,7.8,8.24,15.79,16.3,21.92,26,5.58,8.82,12.53,16.74,17.24,26.15,1.13,2.25,2.39,4.44,3.57,6.67,5.31,10,11,19.83,15.08,30.49,4.93,13,10.85,25.52,14.37,39,3,11.32,7,22.33,9,33.93,1.42,8.53,3,17,4.62,25.52a13.18,13.18,0,0,0,1.07,2.33c.81-1.16,1.59-1.78,1.67-2.48a13.55,13.55,0,0,0-.3-3.74c-1-5.51-2-11-2.93-16.5-1.6-9.05-3.28-18.08-6.27-26.8-.53-1.54-.86-3.13-1.31-4.69-3.5-12.11-6.82-24.27-11.91-35.86-2.53-5.77-4.71-11.7-7.22-17.48-2-4.62-4.19-9.18-6.45-13.68s-4.67-8.94-7.13-13.34c-3.6-6.44-6.71-13.17-11.13-19.14-2.57-3.47-5-7.08-7.46-10.61-4.59-6.47-9-13-14.55-18.79-4.37-4.55-8.5-9.33-12.79-14-1.59-1.72-3.32-3.3-5-4.9-.17-.17-.63,0-1.2,0C1026.42,529.91,1026.14,530.93,1025.78,532.29Zm159.31,849.81c-3.49,1.55-4.57,3.79-4.31,6.81.06.71,0,1.44.07,2.16q1.05,42.18,2.11,84.37c.48,19.65,1,39.29,1.39,59,.12,6.11.31,12.3-2.91,17.92a4.63,4.63,0,0,0-.51,2.08c0,.75-.5,1.74,1,2.3,1.44-3.09,2.78-6.21,4.33-9.23a20.13,20.13,0,0,0,2.24-9.88c-.29-10.46-.44-20.91-.64-31.37q-.54-28.93-1.07-57.88c-.23-13.7-.36-27.41-.6-41.11-.12-6.85-.36-13.7-.59-20.54C1185.56,1385.25,1185.29,1383.83,1185.09,1382.1Zm-99.2-420.27c-4.64,1.71-8.15,4.55-11.78,7.15a34.09,34.09,0,0,1-9.58,4.82c-11.64,3.72-23.3,7.4-34.81,11.49-7.91,2.81-16,3.85-24.28,4.48-3.18.24-6.34.63-10.49,1.05,4.24,2.67,7.74,4.78,11.14,7a6.46,6.46,0,0,0,6.13.58c15.16-5.06,30.36-10,45.54-15a26.11,26.11,0,0,0,2.83-1.32l-3.17-3.63c2-2.22,3.4.33,5,.16,0-.79.09-1.58.12-2.26.72-.19,1.15-.45,1.39-.33,2.08,1,4.13,2.08,6.17,3.13,15.74-4.4,25.7-7.85,28.84-10.1Zm76.67,64.81a47.29,47.29,0,0,1-4.55,2.46c-3.25,1.31-4,3.73-3.62,7,1,9,2,17.91,2.89,26.86q2.9,28.5,5.74,57a16.3,16.3,0,0,0,.85,2.77l6.18-4.21c0-2.17.15-4.15,0-6.11C1167.58,1084,1165.1,1055.67,1162.56,1026.64Zm1.75-40.11a14,14,0,0,0-2.56-1c-3.38-.45-6.76-1-10.17-1.17-3-.18-6.21-.51-9.11.17-12.94,3-20.67,16.18-19.67,27.48.58,6.68,4.73,11.77,12.08,12a20.29,20.29,0,0,0,7.95-1,12.93,12.93,0,0,1,5.23-.88c2.85.2,5.66.93,8.51,1.34a24.29,24.29,0,0,0,3.21,0C1161.29,1011.13,1162.78,999,1164.31,986.53Zm-310-206.31c1.44.59,2.39,1.06,3.39,1.38,7.71,2.5,15.41,5,23.15,7.42,3.77,1.17,7.57,2.35,11.43,3.19,6.68,1.46,13.42,2.7,20.14,4,5,.92,9.91,1.91,14.91,2.54,6.61.84,13.25,1.4,19.89,2,5.56.5,11.13,1.16,16.7,1.22,14.07.18,28.14.06,42.21.05,1.45,0,2.9,0,4.33-.1q12.66-1.05,25.31-2.16c3.59-.32,7.2-.57,10.74-1.17,10.12-1.7,20.21-3.57,30.31-5.39a4.76,4.76,0,0,0,1.54-.47c.76-.44,1.58-.94.67-2.31a39,39,0,0,0-4.62.26c-6.74,1.14-13.48,2.35-20.2,3.59a149.79,149.79,0,0,1-21.42,2.77c-2,.07-3.94.39-5.91.53-8.09.58-16.17,1.32-24.26,1.63-7,.26-14.07-.12-21.11,0-14.63.28-29.15-1.21-43.68-2.58-5-.47-10-1.16-15-1.93-3.73-.57-7.41-1.49-11.13-2.17a249.07,249.07,0,0,1-40.74-10.55c-4.36-1.6-8.87-2.8-13.39-4.21ZM1103,1497.48c-4,9.2-4.14,9.2-4,18.71.16,13,.45,25.89.76,38.83a19.59,19.59,0,0,0,.79,6.35c4.54-1.36,8.92-2.29,13.1-4.31v-5.31l-3.7-2.09c-1.11-9-.38-18.16-.4-27.4,4-3.08,4.34-7.24,3.73-11.73a14.83,14.83,0,0,1-.18-4.3c.74-4.64-2.23-7.58-4.36-11-1.68.51-3.07.88-4.41,1.35A6.39,6.39,0,0,0,1103,1497.48Zm37.26-754.18c-4.64-3.9-4.64-4-9.34-3.73-5,.27-10,.93-15.06,1a13.87,13.87,0,0,0-11.55,5.76c-4.48,5.86-9.17,11.57-14,17.14a11.11,11.11,0,0,0-2.94,7.84c.06,6.48,0,13,0,19.44a24.48,24.48,0,0,0,1.22,7.9c1.17.74,2.2,1.47,3.29,2.08s2.1,1,3.6,1.7c0-2.32,0-4.1,0-5.89,0-6.3,0-12.6-.11-18.9a11.61,11.61,0,0,1,2.75-7.95c5.75-6.92,11.45-13.88,17-21a10,10,0,0,1,6.82-3.87c1.6-.23,3.23-.19,4.85-.33C1131.19,744.17,1135.58,743.74,1140.24,743.3ZM915.17,1634.24c4.24,2.15,18.72,6.69,23,7.15-.08-9.51-.77-18.94-.83-28.47-7.58-3-14.9-5.75-22.39-8.26a6.09,6.09,0,0,0-.67,1.77C914.53,1615.74,914.86,1625.05,915.17,1634.24Zm248.55-792.38c-10.79,9.88-20.51,20.31-31.75,29.06a1,1,0,0,0-.25.45,5.46,5.46,0,0,0-.15.73c2.28,2.58,4.44,5.43,7.38,7.72,4.11-1.83,8.08-3.52,12-5.38a14.3,14.3,0,0,0,3.47-2.53c4.62-4.31,9.22-8.62,13.73-13a56.09,56.09,0,0,0,6.42-6.93A114.68,114.68,0,0,0,1163.72,841.86Zm-26.3,129.08V955.27a59.24,59.24,0,0,1-6.63,2.77,11.22,11.22,0,0,0-6,4.23c-4.29,5.56-8.76,11-13,16.6a14,14,0,0,1-7.33,5.14c-8.07,2.52-16.09,5.19-24.12,7.82-1.17.39-2.29.93-3.4,1.38v2.57a19.66,19.66,0,0,0,3.29-.43c3.26-1,6.52-2.05,9.73-3.22a6.23,6.23,0,0,1,5.68.57c2.14,1.29,4.23,2.67,6.35,4l10.71-3.58c2.94-5,6-9.63,10.24-13.42S1132.48,974.06,1137.42,970.94ZM823.75,1570.59c7.5,4.06,13.8,9.45,22,12,4.78-7.52,9.41-14.75,13.55-22.28.1-.2-.19-.61-.39-1.17-3.47.16-6.44-1.48-9.35-3.31s-5.78-3.61-8.72-5.33a29.9,29.9,0,0,0-3.6-1.51ZM786.39,584.81c8.9,5.79,18,11.11,27.52,16.7,1.63-3.28,3.78-5.87,5-9.08l-12-12.23c.1-2,.19-3.55.28-5.25-2.59-1.58-5-3.21-7.49-4.53-2.72-1.43-5.86-1.51-8.17.37-3.19,2.61-6,5.8-5.32,10.55C786.32,582.22,786.3,583.13,786.39,584.81Zm314.69,352c-2,2.86-3,5.91-4.26,8.81-2,4.58-3.76,9.33-7.55,12.88-.22.21-.22.65-.36,1.13,4.25,2.85,8.36,6,13.19,8.22,2.57-1.71,4-4.24,5.78-6.42,1.94-2.35,3.85-4.73,5.67-7.18,1.67-2.24,3.91-4.12,4.93-7.23C1112.71,943.41,1107.13,940,1101.08,936.81Zm34,502.31c-16.89,5.62-33.42,11.12-49.94,16.65a5.59,5.59,0,0,0-1.26.85c2.71,3.91,3.27,4.44,6.92,6.53,15.58-4.82,31-10.08,46.63-15.4C1136.94,1444.81,1136.78,1442.14,1135.12,1439.12Zm42.55-52.86c-2.19-.09-2.54,1-2.52,2.06,0,2.71.28,5.4.33,8.11.22,12.26.35,24.52.61,36.78.48,22.17,1.06,44.34,1.54,66.51.21,9.55.26,19.11.46,28.67a41.77,41.77,0,0,0,.66,7c.51,2.65,1.39,5.24,2.42,9,.06-4.53.21-7.94.14-11.34-.32-14.42-.76-28.84-1.06-43.26-.57-26.5-1-53-1.62-79.51C1178.45,1402.32,1178,1394.41,1177.67,1386.26Zm-400-614-4.4-4.48-16.07,5.32q-23,7.59-46,15.19c-1.42.48-3.17.55-4.24,2.25l3.55,4a12.08,12.08,0,0,0,2.3-.26q31.49-10.32,63-20.69A11.42,11.42,0,0,0,777.67,772.28Zm364-19.44a6.64,6.64,0,0,0-1.61-.34c-5,.37-10,.78-15.07,1.18a6.37,6.37,0,0,0-4.53,2.64l-14.33,17.62a7.28,7.28,0,0,0-1.79,5c.21,7.38.4,14.77.62,22.15,0,.33.28.65.56,1.27a22.57,22.57,0,0,0,2.39,1.67q6.18,3.35,12.41,6.59c3.18,1.67,3.49,1.59,7.07-1.5l-8.77-5.44-8.63-5.36a56.53,56.53,0,0,1-.7-20.66,7.31,7.31,0,0,1,1.57-3.37c3.22-4.12,6.55-8.15,9.86-12.2a9.15,9.15,0,0,1,7-3.52c3.94-.22,7.86-.82,11.79-1.26.61-1,1.21-1.91,1.71-2.86A7.77,7.77,0,0,0,1141.65,752.84Zm-64.1,765.44c-.3-11.38-.59-22.51-.92-33.65a7.59,7.59,0,0,0-.73-2.07,37,37,0,0,0-10.49-.21c-.14,11.82-.05,23.29.55,34.9A28.93,28.93,0,0,0,1077.55,1518.28Zm-12.26-611.14a25.22,25.22,0,0,0-2.4,1.57c-3.59,3-7.1,6.13-10.73,9.1a13.84,13.84,0,0,1-4.08,2.51c-6.47,2.22-13,4.3-19.51,6.34-.92.29-2,0-4.16,0,1.67-1.28,2.36-2.12,3.24-2.43,4.25-1.49,8.55-2.82,12.82-4.24,2.36-.79,4.7-1.63,7.2-2.5-.19-1.35-.34-2.35-.53-3.7a25.59,25.59,0,0,0-3.87.66c-4.43,1.51-8.83,3.1-13.23,4.71a65,65,0,0,1-16.17,4.13c-3.81.36-6.93,2.24-10.13,4.15,4.75.06,9.41-.26,14.08-.48,1,0,2.25-.14,2.36,1.8-6,2.46-12.83.17-18.83,2.93,7.49.35,14.94.43,22.21-2,10.41-3.47,20.87-6.83,31.3-10.28q16.92-5.61,33.81-11.3a10,10,0,0,0,1.89-1.14c-7.86,1.35-15,4.69-22.45,6.35C1065.81,911.88,1066.61,909.49,1065.29,907.14ZM850,763.24c-.58-2.21-1.08-3.93-1.48-5.68-1.09-4.72-2.1-9.47-3.23-14.19a17.23,17.23,0,0,0-1.51-3.09l-5.35,2.85c.36,1.58.58,2.8.92,4,2,7.26,4,14.55,6.18,21.77,1.47,4.82,1.69,9.47-.34,14.19-1.13,2.63-2,5.39-2.9,8.11-.55,1.64-1.46,3.21-1.16,5.41l4.5-1.61c.4-1,.77-1.85,1-2.7.89-2.92,1.89-5.82,2.59-8.78a9.5,9.5,0,0,1,5.12-6.55c1.56-.84,3-1.87,4.43-2.75.69-3.81.69-3.81-.37-6.85Zm296.39,374c-3.54-2.93-14.41-9.47-19.14-11.61,0,3.36-1.65,5.76-3.84,8-3.23,3.36-6.28,6.9-9.34,10.42-1.15,1.31-2.12,2.76-3.22,4.21a13.85,13.85,0,0,0,1.43,1.23c1.08.64,2.19,1.22,3.53,2C1125.82,1146.87,1136.06,1142.64,1146.4,1137.21Zm-22.8,486c2.25,2.44,4.89,3.59,7.27,5.09,2.58,1.63,5.17,3.26,7.85,4.71,2.43,1.32,4.57,3.31,7.65,4a16.43,16.43,0,0,0,.29-2.41c-.23-6.1-.29-12.23-.84-18.3a23.6,23.6,0,0,1,1.63-11c.56-1.43,1.19-2.84,1.79-4.26a4.76,4.76,0,0,0-2.55,2c-2,3.17-4.08,6.35-6,9.59a13.25,13.25,0,0,1-7.2,6.15c-2.54.88-5,2-7.47,3.06A20.38,20.38,0,0,0,1123.6,1623.18Zm94.87-734.26c-.76,1.67-1.17,2.59-1.53,3.39,4.79,5.7,51.17,49.86,55.75,53.1l1.65-2.73a13.56,13.56,0,0,0-1.36-1.88C1255,923.68,1237,906.58,1218.47,888.92ZM1023.71,490.41c2.64.32,4.93.66,7.23.87,6.78.63,13.56,1.12,20.12,3.21,3.74,1.18,7.56,2.1,11.32,3.14a5.22,5.22,0,0,0,.16-5.65c-5.2-2.14-10.69-4.29-16.09-6.67a35.79,35.79,0,0,0-11.38-3c-3.87-.36-7.79-.82-11.7-.07C1022.32,485,1022.87,487.38,1023.71,490.41Zm145.43,529c2.69-8.2,5.41-16.17,7.9-24.21.61-2,.49-4.2.71-6.34-3.25-1.88-6.18-3.6-9.14-5.27-.26-.15-.68,0-1-.07-3.38,23.15-4.68,35.08-4.17,38.9Zm-67-47a8.47,8.47,0,0,0-2.62,0c-9.13,3.15-18.54,5.48-27.8,9.36,1.55,3.15,2.35,6.27,4.75,8.41,9.41-2.61,26.62-8.49,29.43-10.07-.92-2.11-1.83-4.25-2.79-6.36A9.75,9.75,0,0,0,1102.19,972.41Zm84.39-377.56c-3.47.71-6.26,1.37-9.09,1.84-2.53.43-4.92.3-7.14-1.47-5.63-4.48-11.44-8.74-17.07-13.23a16.49,16.49,0,0,1-3.9-4.39c-3.65-6.2-7.05-12.55-10.66-18.78-1.57-2.7-1.94-5.29-.52-8.17a44.52,44.52,0,0,0,2.08-5.55,22.66,22.66,0,0,0,.53-2.72l-2.73-1a78.06,78.06,0,0,0-5.15,13.28c.54,1.2,1,2.38,1.6,3.47,3.41,6.13,7,12.17,10.27,18.37a29.9,29.9,0,0,0,8,9.37c5.65,4.47,11.48,8.7,17.13,13.16a7.14,7.14,0,0,0,6,1.7c3.52-.67,7-1.54,10.5-2.37.27-.07.46-.49.91-1C1187.18,596.84,1186.93,596,1186.58,594.85Zm-9.78,229.88c-4.51,4.2-6.91,9.74-10.67,14.14a42.13,42.13,0,0,0,11,10.81,75.23,75.23,0,0,0,6.08-8.74c1.93-2.92,4.55-5.49,5.43-9.34C1184.64,829.24,1181.17,826.4,1176.8,824.73ZM810.52,506.44c11.5,11.11,22.71,21.77,34,32.31a17.46,17.46,0,0,0,2,1.35c.75-1.69,1.38-3.11,2-4.41-4.43-5.5-31-30.71-35.93-34.08C811.94,503.09,811.33,504.51,810.52,506.44ZM1210,709.38a18.93,18.93,0,0,0-4.32,6.61c-2.08,5.24-5.43,9.72-8.11,14.59a39.78,39.78,0,0,1-8.23,9.9c-8.31,7.75-17,14.9-27.38,19.84a9.86,9.86,0,0,0-1.85,1.11,17.58,17.58,0,0,0-1.53,1.56l1.33,1.75a116,116,0,0,0,27.33-17.39,76.43,76.43,0,0,0,17-19.29A41.18,41.18,0,0,0,1210,709.38Zm-43.29,435.5c4.73,1.28,8.5,0,12-2.44a6.31,6.31,0,0,0-.13-1.7q-3.27-8.87-6.64-17.69c-.21-.57-.84-1-1.19-1.37l-11.68,6.16ZM876.06,1608c9.07-2.44,17.52-5.12,26.35-8.43l-15.3-9.08c-3.83,1.32-7.71,2-11.05,4ZM990.66,531.21c6.66.14,13,.35,19.24.36a8,8,0,0,1,5.85,2.22c1.28,1.2,2.71,2.24,4.14,3.4l3.39-1.83a18.89,18.89,0,0,1,2.31-10.52l8.92-4.05v-4.16c-1.47.66-2.62,1.13-3.72,1.68-4.36,2.15-8.72,4.26-13,6.5a20.39,20.39,0,0,1-10.35,2.48c-4.67-.16-9.35-.14-14-.14a23.16,23.16,0,0,0-3.08.39,8.53,8.53,0,0,0-.27,1.84A9.25,9.25,0,0,0,990.66,531.21Zm169.69,592.07a47.76,47.76,0,0,0,0-5q-4.47-42.13-9-84.24c0-.17-.54-.28-.92-.47a4.49,4.49,0,0,0-.42,1.47q3.75,43,7.57,86a15.37,15.37,0,0,0,.56,2.16ZM1010.27,921.06l2.85-1.59c-2.07-3.27-5.18-5.2-7.63-7.75a11.94,11.94,0,0,0-6.63-3.32c-7.06-1.38-14.12-2.77-21.13-4.37a41.07,41.07,0,0,0-12.87-.87c-6.62.58-13.22,1.49-19.82,2.3-.24,0-.43.46-.66.72a2,2,0,0,0,2.07,2,28.08,28.08,0,0,0,4.3-.19c4.47-.53,8.92-1.28,13.4-1.62a41.21,41.21,0,0,1,9.68.13c7.28,1.18,14.49,2.8,21.73,4.2a14,14,0,0,1,7.49,4C1005.34,916.91,1007.86,918.94,1010.27,921.06Zm98,57.16c3.41-3.07,13.92-16.26,16.35-20.48-.55-1.16-1.14-2.45-1.75-3.74s-.83-3-2.59-4.1c-5.46,6.85-10.93,13.46-15.9,20.43Zm18.84-39a8.68,8.68,0,0,0-1.29-1.51c-3.14-2.32-18.71-11.15-21.63-12.28-.34,1.4-.7,2.75-1,4.12s-.52,2.74-.83,4.36c6.39,3.66,12.09,8,18.43,11.07C1125,943.26,1125,943.26,1127.07,939.26Zm-49.4,540.46,10.22-14.36c-1.26-1.34-2.3-2.56-3.46-3.67s-2.3-2.71-4-3.32c-4.42,5.33-11.81,16.71-13.4,20.66C1070.42,1480,1073.78,1479.66,1077.67,1479.72ZM909.89,910.81c-2-1.28-3.62-2.43-5.34-3.37s-2.13-3.19-4.43-3.56a53.94,53.94,0,0,0,.06,6.77c.39,3,.19,6.1,1.65,8.93,5,9.72,10,19.48,15,29.21.26.49.83.82,1.25,1.23a4,4,0,0,0-.46-2.73c-1.59-3.21-3.25-6.4-4.81-9.63a24.89,24.89,0,0,1-2.59-11.44C910.35,921.2,910,916.18,909.89,910.81Zm198.9-23.32c-2.9,1.68-4.6,3.14-6.56,3.7-4.2,1.2-7.89,3.41-11.74,5l-.67,3.18c-3.6,1.17-7,2.2-10.42,3.4s-7.35,1.56-10.64,3.83c.12,1.17.22,2.18.32,3.23a6.17,6.17,0,0,0,1.86.08q12.27-4.08,24.53-8.24a5.91,5.91,0,0,0,2-.83c3.38-3,6.79-5.9,10-9C1108.18,891.11,1108.16,889.63,1108.79,887.49ZM837.28,798c2.17-6.15,4-11.61,6-17a15.23,15.23,0,0,0,.27-10c-2.07-7.09-3.94-14.23-5.93-21.34-.43-1.53-1-3-1.64-4.78l-3.16.72a16.23,16.23,0,0,0,.29,1.85q3.21,11.45,6.44,22.88a16.08,16.08,0,0,1-.46,10.58c-1.51,3.86-2.88,7.77-4.17,11.71-.73,2.24-2,3.66-4.43,3.78ZM816.61,579.89c4.32-3.33,8.77-6.62,13.07-10.1a64.17,64.17,0,0,0,7.55-6.9q8.65-9.61,16.93-19.58a31.91,31.91,0,0,0,3.82-6.43,49.4,49.4,0,0,0,2.27-6,7.08,7.08,0,0,0,.18-1.84c-1.47-.84-2.44-.44-2.93.68-1.15,2.63-2.09,5.35-3.27,8a21.58,21.58,0,0,1-2.86,5.13c-5.23,6.17-10.52,12.3-16,18.26a79.42,79.42,0,0,1-8,7.19c-2.77,2.29-5.7,4.38-8.52,6.61a18.48,18.48,0,0,0-2.75,2.55C815.51,578.08,815.44,579,816.61,579.89Zm447-106.37c-2.94,2.36-5.61,4.43-8.21,6.6-1.34,1.12-2,2.71-1.23,4.32a15.76,15.76,0,0,0,5,6.24c1.45,1,3.1,1.25,4.5.09,2.85-2.37,5.89-4.58,8.12-7.69l-3.54-3.93,2-1.56-1.58-1.46-1.83,1.41ZM1000.13,368.81a67.62,67.62,0,0,0-12.25-.09c-.13,4.64-.5,8.9.31,13.21,2.14,1.6,4.57,1.25,6.84,1.33,1.93.07,4,.18,5.74-1.47C1001.74,377.58,1000.89,373.35,1000.13,368.81Zm86.84,651c3.7.48,6.21-1.61,7.87-4.87,1.46-2.89.57-7.06-1.75-9.46a4.38,4.38,0,0,0-5.34-1.11,10.46,10.46,0,0,0-6.74,9.5C1080.78,1017.57,1082.52,1020.17,1087,1019.82Zm-13.23-9.14c-4-.43-4.12-.43-5.26.14-3.22,1.61-6.3,7.43-5.66,10.91a4.57,4.57,0,0,0,2.66,3.8,8.46,8.46,0,0,0,9.76-2.43C1078.37,1019.12,1077.9,1015.21,1073.74,1010.68Zm81.49,586.75c-3.37,2.86-4.27,7.26-6.2,11.09a7.68,7.68,0,0,0-.5,3.68c.43,8.1,1,16.19,1.48,24.28,0,.25.39.47.75.86l1.67-1c0-4.24.07-8.37,0-12.5-.08-3.42-.42-6.83-.54-10.25a19.22,19.22,0,0,1,2.15-9.37c3.11-6.3,6-12.68,9-19,.29-.61.79-1.29-.14-2-4.47.77-3.7,5-5.05,7.91-.72.43-1.47.89-2.36,1.41C1155.4,1594,1155.32,1595.58,1155.23,1597.43ZM1048.83,352.77a28.23,28.23,0,0,0,.75-13.12,15.56,15.56,0,0,0-10.71-1.19,25.91,25.91,0,0,0-1.57,12.12C1041,352.27,1044.86,351.22,1048.83,352.77Zm-20,148.51c.51,1.3,1,2.59,1.53,3.9,1.74,4.69,1.45,5.47-2.81,7.7s-8.32,4.31-12.45,6.5a13.73,13.73,0,0,1-6.18,1.68c-5.77.16-11.53.45-17.28.73-.89,0-1.84.19-1.67,1.83a23.54,23.54,0,0,0,3.44.51c4.87,0,9.74-.14,14.6,0a19.48,19.48,0,0,0,10.84-2.59c2.64-1.54,5.46-2.78,8.17-4.19a37.3,37.3,0,0,0,7-4.24A26.23,26.23,0,0,0,1028.81,501.28ZM1274,948.06c-1.47,1.7-2.63,3.05-3.78,4.4s-2.77,2.22-3.41,4.35l9.83,9a19.37,19.37,0,0,0,7.34-7.5A70.73,70.73,0,0,0,1274,948.06Zm-103.94,633.32-.87-.76c-.71.68-1.7,1.24-2.09,2.07-3.65,7.63-7.25,15.28-10.72,23a14.37,14.37,0,0,0-1.47,5.68c0,6.83.4,13.67.72,20.5a6.87,6.87,0,0,0,1,2.2c1.89-.79,1.52-2.2,1.54-3.39.13-6.12.25-12.24.29-18.36a23,23,0,0,1,2.41-10.4c2.9-5.79,5.54-11.7,8.25-17.58A27.5,27.5,0,0,0,1170.08,1581.38Zm-338-788.08c1.66-4.7,3.07-9.14,4.8-13.45a13.11,13.11,0,0,0,.57-8.45c-2-7.29-4.1-14.52-6.22-21.77-.11-.39-.62-.66-1.48-1.51a13.46,13.46,0,0,0,0,3.06c1.4,5,2.87,10,4.34,15a17.32,17.32,0,0,1-.19,11.11c-.81,2.19-1.65,4.38-2.31,6.62a6.2,6.2,0,0,1-4.41,4.3c-2,.66-4,1.39-6.82,2.38C824.54,792,827.84,793.08,832.09,793.3ZM1094,1559.91l1.12-.11c0-1.78,0-3.57,0-5.35-.24-13.52-.42-27-.79-40.55a27.12,27.12,0,0,1,2.15-12.08,19,19,0,0,0,2-6.8l-2.05-.89c-2.35,5.39-4.18,10.51-4,16.31.53,15.85.8,31.71,1.2,47.56A9.35,9.35,0,0,0,1094,1559.91ZM735.74,919.27c-2.61,2.87-4.88,5.36-7,7.65-.12,5.2,3.13,7.28,6.79,9.33,1.54-1.13,3-2.14,4.4-3.24s2.92-2.44,4.52-3.78c-1.62-1.69-3-3.06-4.31-4.53S737.49,921.41,735.74,919.27Zm490.56-88.51c-3-.92-5.4-.09-7.57,2.34a9.24,9.24,0,0,0-2.4,8.37,3.36,3.36,0,0,0,2.85,2.82,6.37,6.37,0,0,0,4.62-.77c2.54-1.44,3.63-3.82,4.43-6.43S1228.06,832.57,1226.3,830.76Zm-96,110.49L1123,948c1.41,2.75,2.32,5.84,4.32,8.5,1.89-.68,3.59-1.23,5.23-1.91a9.67,9.67,0,0,0,2.28-1.39c2.42-1.9,2.75-4.75.67-7C1134,944.48,1132.17,943,1130.27,941.25ZM802.87,735.43a13.34,13.34,0,0,0,2.14-.85c2-1.27,3.87-2.66,5.85-3.9,2.9-1.81,4.18-1.71,6.77.54,1.49,1.3,2.81,2.8,4.28,4.13,3.05,2.76,5.85,5.82,9.32,8.17.81-.39,1.48-.65,2.08-1,.25-.15.38-.5.57-.76-4.44-5.42-13.92-14.08-17.8-16.24C808.09,729.63,804.58,732.2,802.87,735.43Zm401.84,98.91a13.74,13.74,0,0,0,7.19,3.47,16,16,0,0,1,5.29-9.13l2.69-.21c-4-2.53-6.86-6-11.68-4.11C1205.12,826.71,1203.66,829.73,1204.71,834.34ZM957.64,1063.8c2.81.06,5,1.12,7.57.67.58-4.86,2.28-9.46,1.44-14.28-2.4-1.44-4.63-1.37-7.06-1C957.86,1053.89,958.46,1058.63,957.64,1063.8ZM704.08,793.9c-2.47.94-5.08,2-7.77,2.91a10.09,10.09,0,0,0-4.69,3.36c-.16.19,0,.62,0,1.33l3.31.39,1.89,3c3.57-1,6.85-1.92,10.09-2.92a9.24,9.24,0,0,0,2.06-1.28C707.67,796.78,707.67,796.78,704.08,793.9ZM819.63,724c5.66,5.69,10.68,11,16.34,15.49,2.13,0,4-.13,5.65-1.81-3.09-2.58-6-4.92-8.82-7.41s-5.68-5.35-8.47-8Zm170.1-206.11v.59c.85.08,1.7.22,2.55.23,3.79,0,7.57-.1,11.35,0a22.44,22.44,0,0,0,13.35-3.28c2.73-1.73,5.77-2.94,8.65-4.43.94-.48,1.81-1.09,2.87-1.74-.92-3.8-1.88-7.39-4-10.56-.12-.18-.64-.09-1.17-.15-1.12,3.87,1,8.31-1.83,11.94-3.22,1.65-6.49,3.17-9.59,5a15.15,15.15,0,0,1-8.21,2.11C999,517.5,994.38,517.73,989.73,517.84Zm-30.79-5.1c.9.67,1.3,1,1.75,1.3,4.89,3,9.76,6,14.7,8.93,3,1.74,6.1,1.48,9.38.47,0-.83-.08-1.48-.14-2.46-4.62.42-8.1-1.76-11.59-4-2.42-1.54-4.95-2.9-7.37-4.43-1.45-.91-2.79-2-4.41-3.19ZM873.77,1574.93c1.66.72,2.78-.06,3.91-.41,4.28-1.31,8.54-2.7,12.8-4.1q6.64-2.18,13.25-4.46c.46-.16.79-.68,1.38-1.2-.48-.71-.93-1.38-1.47-2.2-8.73,2.91-17.22,5.73-25.7,8.57a4.92,4.92,0,0,0-1.91,1A27.1,27.1,0,0,0,873.77,1574.93ZM983.7,531.18v-3.71a18.89,18.89,0,0,0-3.77-.8c-3,0-5.45-1.35-7.91-2.92-3.76-2.41-7.67-4.58-11.53-6.82-.19-.1-.6.16-1,.29v2.71a16.55,16.55,0,0,0,2.76,1.57c4.49,1.55,8.12,4.46,11.82,7.27l1.71,1.3C978.05,531.86,980.58,532.06,983.7,531.18ZM876.29,1614a27.92,27.92,0,0,0,3.35-.64q11.52-3.81,23-7.7a13.59,13.59,0,0,0,2.9-1.32c.27-.17.16-.94.21-1.38-1.47-1.11-2.84-.59-4.21-.14-7,2.3-14,4.57-21,6.89-1.5.49-3,1.11-4.28,1.61-.09.73-.15,1.09-.17,1.44A9.81,9.81,0,0,0,876.29,1614ZM686.53,799.11c-3,2.59-3,2.59-3.86,8.82a17.59,17.59,0,0,0,5.79,5.42c.61.4,1.61.19,2.55.26C692.89,807.64,691,803.16,686.53,799.11ZM964.52,509c4.81,2.9,9.08,5.52,13.39,8.08a7.67,7.67,0,0,0,6.9.87c-4.31-3.21-9.3-5-12.73-8.17-1.59-3-.74-6-1.88-9.44Zm-164.83,231c.67-5.62.21-10.51-2.11-15.1-.72-1.43-1.94-2.6-2.74-4s-1.49-3.07-2.26-4.71c-1.44,1.22-1.06,2.5-.75,3.64,1.36,5,2.75,10.06,4.22,15.07A10.63,10.63,0,0,0,799.69,739.91Zm478.15-269.46c-4.53-2.35-6.54-2.73-9.71-1.92,1,5.75,4.5,9.41,10,10.29.07-1.26.22-2.5.17-3.73C1278.22,473.49,1278,471.9,1277.84,470.45Zm-276.2-109.29c-2.2-3.05-5.2-4.1-7.88-5.74-2.45,2.22-6.25,2.63-6.54,6.47,1.63,2.32,4,1.79,6,2A11.62,11.62,0,0,0,1001.64,361.16ZM783.33,579.44c.23-5.11,4-7.42,5.59-10.76-2.63-3.08-5.26-1.94-7.82-.78a7.6,7.6,0,0,0-2.1,8.25ZM1074.45,1454c-.66.7-1,.91-1.12,1.22-2.56,7.3-5.6,14.36-10.3,20.6a3.46,3.46,0,0,0-.58,1.45c0,.26.29.58.61,1.17a9.52,9.52,0,0,0,1.47-1.42q6.57-9.85,13.06-19.76c.15-.24,0-.66,0-1.23Zm-15.37-422.84,6.66-2.11-4.43-3.51a22.2,22.2,0,0,1-1.06-4.21,11.27,11.27,0,0,1,.59-4.23,21,21,0,0,1,2.19-4.23,34.14,34.14,0,0,1,2.42-3.11c-2.52.78-5.32.21-7.19,2.45C1057.8,1018.34,1058.83,1024.52,1059.08,1031.11ZM1140.47,1448c3.29,2.17,6.43,4.24,9.58,6.3.1.06.32,0,.84-.11.29-.78.63-1.72,1.13-3.06-4.14-3.35-8-6.9-13.16-10.06ZM957.34,1076.61c4.81-2.14,5.72-2.77,7.74-5.33-3.71-2.11-8.35-2.46-13.44-.88A27.38,27.38,0,0,0,957.34,1076.61Zm229.44,237.07c-2.31-1-4.25-2.89-7.24-3.6.27,1.8.43,3.19.69,4.56.28,1.53-.47,3.25.79,4.61a6.76,6.76,0,0,0,5.72-.65,9.69,9.69,0,0,0,1.23-1.1C1187.59,1316.27,1187.22,1315.09,1186.78,1313.68ZM713.31,448.47c3.77-3,7-5.42,8.64-9.68-3-.31-5.57-.49-8.13.9C713.37,442.34,712.38,444.88,713.31,448.47ZM993.77,912.86a51.37,51.37,0,0,0,4.92,5c2.11,1.67,2.47,4.19,3.4,6.29,2,0,3.29-.84,4.77-2C1003,918.07,999.84,913.59,993.77,912.86ZM1062,1483.23c-1,10.79.41,21.46.54,32.16A241.23,241.23,0,0,0,1062,1483.23ZM996,995.54c-4.64-3.31-9.08-7.1-14.71-8.29-1.29,1.07-1.31,2.21-.38,3a12,12,0,0,0,3.77,2C988.38,993.41,992.18,994.44,996,995.54ZM964.62,498.82c-5.8-1.58-10.37.2-15,1.88,4.29.27,8.43,2.16,13.05,1.2Zm102.09,1022.3c1,5.45,1,5.45,2.67,7.67,2.06-2.36,4.35-4.48,6.08-7.6-2.09-.11-3.66-.24-5.24-.27C1069.18,1520.9,1068.14,1521,1066.71,1521.12Zm108.06-240a23.86,23.86,0,0,0,.07,8.66c2.45.33,2.45.33,4.74-.52a5,5,0,0,0,.24-5.4ZM951.48,913.39l-4.67-1.5c-1.73,1.88-1.79,4-2.1,6,1.65,1.12,3.11,2,5.19,1.72C950.41,917.61,950.92,915.62,951.48,913.39ZM709.62,804c-5.65.78-10.1,2.7-15.67,4.55,1.7.59,2.47,1.08,3.23,1.07a25,25,0,0,0,10.27-2.54C708.23,806.71,708.61,805.48,709.62,804ZM954,1063.35c2.38-4.36,1.81-9.16,2.42-13.7-.63-.28-.95-.54-1.25-.51s-.78.29-.83.53C953.3,1054.16,952.65,1058.67,954,1063.35Zm136.77-62.61c1.57,1.08,2.91,1.89,4.11,2.86s1.55,2.68,3.48,3.47c0-2.16.08-3.92,0-5.66a18.49,18.49,0,0,0-.73-3Zm21.66-164.14c1.56-6,3.35-12,4.13-18.24,0-.11-.52-.28-1.06-.54C1114.14,824.07,1112.75,830.24,1112.41,836.6ZM934.68,961.84a30,30,0,0,0,10,5.25c.09-1.19.15-2,.22-3A17,17,0,0,0,934.68,961.84Zm-121-393.29-2.86,4.69,2.78,2.5c1-1.44,1.94-2.7,2.94-4.1C815.66,570.66,815,569.9,813.71,568.55Zm358.6,967.18c-.38,2.09-.58,3.22-.81,4.47l4,2.35c.54-1.34,1-2.4,1.51-3.72Zm-230-620.32,1.55-4.85-2.74-2.45a45.11,45.11,0,0,0-1.26,5.73C939.79,915,940.62,915.82,942.35,915.41Zm247.9,434.6c1.76,1.4,3.32,1,4.77.42a2.52,2.52,0,0,0,1.2-1.56c.14-.55-.21-1.23-.4-2.15C1193.77,1347.72,1191.35,1347.22,1190.25,1350Zm-7.06-210.57c1.11-2.28,3.29-1.15,3.52-3.51-1.34-.72-2.72-1.49-4.13-2.18-.2-.1-.59.21-1.14.44Zm-5.32,118.3c-2.93.78-5.33.62-5.4,3.64a3.22,3.22,0,0,0,4.53-.4C1177.5,1260.5,1177.44,1259.44,1177.87,1257.74Zm7.16-114c3.48-1,3.48-1,2.76-4C1184,1140.85,1184,1140.85,1185,1143.7Zm-8.13,86.46-4.69,2.48,1,2.51a9.67,9.67,0,0,0,2.83-1.3C1176.52,1233.38,1176.44,1232.32,1176.9,1230.16ZM797.72,743.22c-.27-2.36-1.7-3.69-3.69-5.5.06,2.57.24,4.36,1.48,6.06Zm490.42,220c-2,2.09-3.09,3.2-4.14,4.36-.14.16,0,.55,0,1.06l3.76-.57C1287.86,966.71,1288,965.55,1288.14,963.24ZM987.75,542.39a27.11,27.11,0,0,0-.86,8.29h2.27C988.68,547.85,988.25,545.28,987.75,542.39Zm92.17,477.94-2.19,4.66c2-.74,3.41-1.24,4.81-1.82.19-.07.22-.53.37-1Zm113.33,324.45c-1.6-2.65-2.85-3.53-4.13-2.9-.37,1.5.15,2.63,1.71,3.53ZM812.44,581.68c.89-2.55.35-4.11-2.13-5C809.38,578.88,810.14,580.34,812.44,581.68Zm251.92-57.29c2.86-2,2.86-2,2.36-6.8C1066,519.62,1065.39,521.44,1064.36,524.39Zm-133-2.12c-4.59-.2-4.59-.2-7,1.39A10.06,10.06,0,0,0,931.35,522.27Zm219,506.45c-1.46-1.41-3-1.15-5.63-1l4.31,2.44Zm-50.78,463.62c3.84.15,3.84.15,6.58-2.26C1103.45,1490.58,1101.4,1490.77,1099.53,1492.34Zm-109.11-933c1.48.32,2.84.36,3.72-1.18C992.55,556.25,992.41,556.29,990.42,559.32Zm-58.58-50c.28,4.42.28,4.42,2.51,4Zm240.89,747,3.33-1.23a8,8,0,0,0-1.58-1.24c-.58-.24-1.17-1-2.13,0C1172.45,1254.42,1172.58,1255.25,1172.73,1256.27ZM984.65,544.56l-2.52,5,1.4,1.11C984.63,548.79,984.77,546.94,984.65,544.56ZM856,856.12c-.5-2.11-2-2.41-3.13-3-.51-.29-1.3-.85-1.59.58C852.69,854.41,853.94,855.57,856,856.12Zm191.52-523.81c-2.39-2.08-2.39-2.08-4.23-.22ZM773.39,792c1.7,1.57,3.39,1.61,6.26,1.09C777,792.34,775.56,791.21,773.39,792Zm305-50.73.48-.76c-.41-.55-.71-1.28-1.25-1.62-1-.63-1.55,0-1.85,1.13ZM939.07,519.14c-1.5.46-3.16.56-4.77,2.85C936.57,521.14,938.22,521,939.07,519.14Zm70.38-66.74,2.24,3.93C1012.13,454.22,1011.11,453.07,1009.45,452.4ZM959.74,910.12l.15-.63-4.79.27,0,.36Zm127.51-84.85c-.56-2.4-.56-2.4-3.51-3.26Zm100.18,549.93-.8-.57a8.62,8.62,0,0,0-1.1,1.72c-.18.51-1.17,1-.14,1.84ZM1173.65,1200l3-1.4C1174.55,1197.15,1174.55,1197.16,1173.65,1200ZM977.19,547.13l-.46,0c.06,1.21.11,2.42.17,3.63l.54,0Zm203.91,621.38a7.89,7.89,0,0,0-1-1.47c-.16-.14-.84,0-.84,0,0,.47-.15,1.1.1,1.37S1180.23,1168.51,1181.1,1168.51ZM958.41,1066.68v.2h2.64v-.2Zm26.5-92.92c-1.55.07-1.55.07-1.86,1.28Zm80-441.42,0-.35-2-.1,0,.36ZM868.29,869.1c1-1.57.3-2.06-1.31-2.71C867.53,867.54,867.86,868.22,868.29,869.1Zm283.78,156.34,0,.34,2,.13,0-.31ZM1076.8,748.28c-.22-.44-.31-.87-.49-.91a1,1,0,0,0-.88.25c-.13.14,0,.56.09.85ZM826.5,794.9l-.48.1a2,2,0,0,0,.49.35c.14,0,.32-.05.48-.08Zm-3.74-.68,0-.2-1.24-.13,0,.2Zm288.74,46.61c-.18-.53-.09-.27,0,0ZM1097.36,1017l-1.19,1.12C1097.42,1018.58,1097.9,1018.38,1097.36,1017Zm115.42-469.74.21-.76c-.13,0-.35.08-.36.13A2.23,2.23,0,0,0,1212.78,547.21ZM996.71,549c0-.17-.07-.33-.1-.5-.1.05-.28.1-.29.15a2.81,2.81,0,0,0,.09.49Zm-10.13,11.1a2.11,2.11,0,0,0-.48-.12c-.06,0-.12.18-.18.28a1.71,1.71,0,0,0,.49.1C986.47,560.4,986.52,560.23,986.58,560.14Zm98.58,178.16.24,0-.07-.46ZM780,789.74l-.45-.2,0,.31Zm371.46,19.35c0-.16.07-.32.11-.48l-.45.31Zm-81.4,23,0,.79c.09-.11.22-.21.25-.33a.68.68,0,0,0,0-.42S1070.13,832.13,1070,832.12Zm1.33,3.9,0-.41-.43.1.11.41Zm37.16,161.7.42-.11c-.12-.07-.23-.19-.36-.21a1.12,1.12,0,0,0-.42.1Zm-3.38,1,.42-.1-.42-.1Zm42.21,26,.46-.13-.47-.12ZM801.88,504a1.83,1.83,0,0,0,.39.09c.05,0,.1-.15.15-.22a1.44,1.44,0,0,0-.4-.09S801.93,504,801.88,504Zm128.8,2.91-.11-.46-.17.6ZM880.29,1589.73l-.3-.18-.08.2Zm-3.63.85,0,.29.51-.12ZM1056.11,518.46l-.2.36.24.07ZM1068.38,533l0,.2.4-.06Zm5.36,304.18,0,.25.51-.09Z"/><path class="cls-1" d="M922.08,1062.64c-1.47-.14-1.47-1.14-1.52-2-.18-3.42-.34-6.84-.43-10.26-.09-3.06-.15-6.13-.12-9.19.06-5.68-.8-11.13-4.22-16.67l-50.65-30.61a6.2,6.2,0,0,0-2.91,5.7c0,3.07.11,6.13.16,9.19.11,7.21.24,14.42.32,21.63,0,1,.11,2.25-1.77,2.49a12.76,12.76,0,0,1-.52-2.36c-.28-8.82-.61-17.65-.68-26.48,0-3.21.65-6.42.91-9.64a48.31,48.31,0,0,0,.12-5.38,11.68,11.68,0,0,1,2.57-8c1.82-2.21,3.45-4.58,4.95-6.6,2.27-.64,3.5.65,4.84,1.45q15.52,9.29,31,18.66c7.55,4.56,15.06,9.21,22.68,13.65a11.91,11.91,0,0,1,5.45,6.35c1.66,4.38,3.59,8.65,5.24,13a16.22,16.22,0,0,1,1.17,5.2c.44,12.79.64,25.59,1.15,38.38a10.69,10.69,0,0,1-3.65,9.09c-1.59,1.43-3,3.08-4.19,4.34-2.07.59-3.17-.53-4.37-1.25q-22.92-13.81-45.8-27.66c-2.16-1.3-4.28-2.66-6.48-3.9-3-1.7-5.76-3.53-7.31-6.91-.69-1.49-2.35-2.53-3.52-3.73a1.52,1.52,0,0,1,2.39-.63c2.68,1.49,5.35,3,8,4.56q20.36,12.29,40.68,24.62c2.29,1.4,4.56,2.83,7,4.35l2.21-2-3.95-3.22,5-.8a16.87,16.87,0,0,0,.43-3c-.13-6.67-.34-13.33-.52-20a56.84,56.84,0,0,1-.13-7c.56-5.71-2.15-10.37-4.07-15.18-1.83,0-2.27,1-2.2,2.12a7.26,7.26,0,0,0,.8,2.53,23.59,23.59,0,0,1,2.25,10c.13,7.75.11,15.5.11,23.25A9.86,9.86,0,0,1,922.08,1062.64ZM875.75,1049l.12.22-.23-.25-.07-.21Zm58.82-21c-.43-1.56-.66-2.79-1.11-3.93-1.14-2.83-2.51-5.58-3.54-8.45a10.17,10.17,0,0,0-4.79-5.53c-9.76-5.75-19.44-11.64-29.13-17.48q-6-3.63-12-7.3a6.37,6.37,0,0,0-5.12-1.11,35.68,35.68,0,0,0-8.19,2.92c1.26,1.73,3,2.37,4.44,3.27,14.45,8.77,28.87,17.56,43.39,26.21a13.11,13.11,0,0,1,6.11,7.16c.81,2.3,1.48,4.76,3.29,6.67A15.8,15.8,0,0,0,934.57,1028Zm2,38.58a14.39,14.39,0,0,0,.43-2.53q-.37-15.94-.85-31.88c0-.3-.32-.6-.66-1.18-2.24.82-4.78,1-7,2.83-.86,11.55.46,23.15.67,35.16ZM866,991.08a21.69,21.69,0,0,0,2.1,1.72q23,14,46.09,27.88a7,7,0,0,0,2.42,1.07c1.1.14,2.19-.14,2-2.1q-25.11-15.43-51-30.84Zm57,86.54,7.68,4.55a15.37,15.37,0,0,0,4.54-5.24,3.38,3.38,0,0,0-3.76-1.9A32.56,32.56,0,0,0,923,1077.62Zm-56.59-96a11.76,11.76,0,0,0,7.1-2.36l-4-2.35C868.47,978.57,867.59,979.88,866.41,981.64Zm-2.39,6c.48-.35.86-.49.94-.72a4,4,0,0,0,0-1.19c-.27.15-.68.25-.78.48A5.42,5.42,0,0,0,864,987.61Zm68.4,83.48a1.5,1.5,0,0,0-.46-.09c-.06,0-.11.16-.17.25a2,2,0,0,0,.47.09C932.32,1071.34,932.37,1071.18,932.42,1071.09Zm-3,1.21c-.14-.09-.27-.23-.41-.25a1.38,1.38,0,0,0-.49.13c.14.09.27.24.41.25A1.28,1.28,0,0,0,929.42,1072.3Zm-57.7-88.69,0-.23-.43.09Zm-3.25.85-.41.11.4.11ZM935.7,1070l-.46-.11.3.39Z"/><path class="cls-1" d="M915,1032.19c0,9,1.6,17.6.05,26.62a11.89,11.89,0,0,1-3-.73c-3.91-2.21-7.77-4.52-11.61-6.84q-15-9.09-29.95-18.23c-.76-.46-1.49-1-2.55-1.69-1.19-8.71-.87-17.6-.85-26.38,1-.16,1.41-.39,1.64-.25C884,1013.75,899.29,1022.84,915,1032.19Zm-2,23c.6-7.52-.46-14.45-.8-21.58l-16.58-10.06c-.15,1.58-.22,2.61-.37,3.64-.17,1.19-.41,2.38-.65,3.75-6.72,1.22-13.36.29-20.06,1.26C878.8,1035.61,908.43,1053.37,913.05,1055.14Zm-20.54-33.41c-3.78-2.36-7.37-4.76-11.11-6.9s-7.37-4.91-11.67-6.51c-.48,7.23-.09,17.37.77,20.67,7.7.73,17.39.15,22-1.38Z"/><path class="cls-1" d="M1225.42,608.48c3.53.54,4,3.54,6.11,5.31a93.55,93.55,0,0,0,12.18-3.57c12.15-4,24.24-8.09,36.37-12.11,3.76-1.24,7.56-2.35,11.41-3.54l5.77,1.43c1.37-.31,2.8-.54,4.16-1a9.25,9.25,0,0,0,3.69-2c3.09-2.85,6-2.83,9.16-.25,1.93,1.59,3.65,3.42,5.17,4.86.79,3.65-.22,6.6-1,9.52-.57,2-2.16,3.69-4.28,3.6-4.14-.19-7.74,1.34-11.46,2.68-.8.29-1.78.53-2.27-1.14a11.24,11.24,0,0,1,1.93-1.31c2.14-.93,4.3-1.84,6.51-2.59a6.58,6.58,0,0,0,4.17-4.2c-.82-3.15-1.22-6.68-5.62-8.16l-10.86,3c-3.88-2.5-8-1.06-12.16.32q-17.91,6-35.83,11.94c-3.93,1.3-7.89,2.51-11.81,3.82-1.16.39-2.25,1-3.41,1.49.83,3.71,3.93,6.25,4.28,9.82-1,1-1.86.76-2.38-.06-1.26-2-2.34-4-3.53-6.06-1.92-3.25-3.88-6.48-5.78-9.74A8.65,8.65,0,0,1,1225.42,608.48Z"/><path class="cls-1" d="M853.2,1542.47c-1.72-3.57.92-6,1.15-9,10.12-3.34,20.06-6.15,30.3-10.12-1.4-1-2.22-1.6-3.1-2.12-3.1-1.83-6.27-3.53-9.32-5.45a5.9,5.9,0,0,0-5.61-.68c-1.49.55-3.06.88-4.65,1.33l-.81-1.89,5.67-2.51c1.18-3.23-3.07-5-1.94-8a2,2,0,0,1,2.62,1.55c1.72,5.24,6,7.83,10.38,10.38,5.6,3.24,10.92,7,17,9.35a10.73,10.73,0,0,1,2.06,1.38c-.17,1.91-1.61,2.11-2.73,2.48-4.26,1.43-8.57,2.7-12.84,4.11-7.84,2.6-15.66,5.27-23.51,7.88C856.38,1541.71,854.83,1542,853.2,1542.47Zm2.08-3.11,36.24-12a4.27,4.27,0,0,0-4.44-1.74,10.19,10.19,0,0,0-2.05.6q-13.26,4.35-26.5,8.74a14.87,14.87,0,0,0-1.84.88C856.32,1536.78,856,1537.58,855.28,1539.36Z"/><path class="cls-1" d="M1236.11,637.84c1.36-1.33,1.83-2.12,2.5-2.37,2.51-1,5.09-1.73,7.65-2.57q24.52-8.05,49.06-16.12c1.47-.48,2.9-1.1,5-1.9-.28,1.22-.22,2.09-.58,2.32a16.82,16.82,0,0,1-3.81,1.92q-23,7.67-46,15.22c-3.06,1-6.11,2.1-9.2,3A30,30,0,0,1,1236.11,637.84Z"/><path class="cls-1" d="M982.06,467.25c5.87-.91,15-.44,20.2,1-2.7,1.38-5.5,1-8.08,1.07a88.7,88.7,0,0,1-11.24-.84C982.73,468.5,982.57,468,982.06,467.25Z"/><path class="cls-1" d="M875.8,1499.77c-3.22,1.51-6.76-.43-8.91,2.42-1.26-.78-1.14-1.61-.55-2.39.75-1,1.6-1.94,2.13-2.56C873.34,1497.12,873.34,1497.12,875.8,1499.77Z"/><path class="cls-1" d="M848.09,1651.86c-2.07-1.65-1.6-3.81-1.48-5.79,0-.49.69-.94,1.2-1.57C849.28,1648,849.28,1648,848.09,1651.86Z"/><path class="cls-1" d="M1299.44,602.42c.15,0,.36-.11.43,0a5.08,5.08,0,0,1,1.31,1.35c.14.28-.21.9-.49,1.25a1,1,0,0,1-.89,0,17.23,17.23,0,0,1-.68-2.22C1299.1,602.71,1299.33,602.55,1299.44,602.42Z"/><path class="cls-1" d="M1302.47,607.42l-1.6,1.54c-.28-.38-.78-.78-.76-1.15a1.6,1.6,0,0,1,.81-1.17C1301.17,606.53,1301.69,607,1302.47,607.42Z"/><path class="cls-1" d="M877.22,1496.43c.38-.28.52-.46.67-.48.88-.09,1.84-.3,2.16.87a1,1,0,0,1-.33.92c-.93.66-1.65.07-2.31-.56C877.3,1497.08,877.32,1496.84,877.22,1496.43Z"/><path class="cls-1" d="M985.16,649.49c1.54-4.42,3-8.89,4.64-13.26,1.45-3.73,1.67-7.26-.18-10.94-1.19-2.37-1.92-5-3.46-7.94a53.82,53.82,0,0,0-2.8,6.79c-.75,1.83-1.33,3.73-1.92,5.62a8.11,8.11,0,0,1-5,5.31c-4.68,1.86-9.41,3.61-14.11,5.44a8.85,8.85,0,0,1-6.23-.18c.58-.55.95-1.23,1.4-1.29,6.52-.92,12.2-4.26,18.31-6.35a5.52,5.52,0,0,0,3.38-4c1.57-5.54,4.35-10.7,5.11-16.49.08-.6.69-1.13,1.31-2.09a28.42,28.42,0,0,1,2.1,3.48c1.82,4.31,3.52,8.68,5.29,13a10.5,10.5,0,0,1,.09,8.39c-1.45,3.49-2.64,7.09-3.91,10.65-.29.83-.48,1.7-.64,2.3.25.63.3,1.06.54,1.27.93.82,1.92,1.56,2.93,2.37.54-.5,1.11-.78,1.27-1.22q3.25-8.88,6.4-17.79a7.25,7.25,0,0,0-1.07-7.12c-3.37-4.68-6.59-9.47-9.83-14.24-1.76-2.61-3.63-5-7.15-5.11-.41,0-.8-.59-1.16-1-.1-.1,0-.35-.05-.53,3.73-1.29,6.19-.77,8.43,2.16s4.17,5.88,6.22,8.84c1.84,2.67,3.51,5.48,5.52,8,2.54,3.21,2.55,6.55,1.25,10.16-2.08,5.76-4.09,11.55-6.18,17.3-.73,2-1.12,3.82,1.38,5.35a11.64,11.64,0,0,0,1-1.74c2.63-7.28,5.16-14.6,7.87-21.86a6.6,6.6,0,0,0-.7-6.62c-4.43-6.36-8.79-12.77-13.23-19.12a45.39,45.39,0,0,0-3.18-3.67l-11.11-1.73c.07-.73.1-1.08.16-1.63,3.92-1.06,7.82-.16,11.58.85,1.38.38,2.67,1.86,3.57,3.14q7.8,11,15.35,22.26a31,31,0,0,1,2,4.4,11.51,11.51,0,0,1,.34,8.94c-2.63,7.47-5.31,14.93-7.91,22.41a12.37,12.37,0,0,1-8,8.14c-7.8,2.78-15.53,5.75-23.21,8.85a10.76,10.76,0,0,1-9.83-.61c-7.56-4.18-15.17-8.28-22.72-12.5a6.48,6.48,0,0,1-2.67-2.51c-1.31-2.74-2.83-5.54-3.31-8.48-1.38-8.53-2.2-17.15-3.41-25.71-.53-3.72.3-6.73,3.19-9.21A35.32,35.32,0,0,0,936,616.8c.21-2.86-.16-5.56.71-7.76s3-4,4.69-6a15.84,15.84,0,0,0-.84-3.06c-2.51-4.92-3.22-10.28-4-15.63a11,11,0,0,1,6.31-12,10.06,10.06,0,0,1,11.74,2.73c3.72,4.87,7.41,9.75,9.31,15.74a70.09,70.09,0,0,0,3.19,7.14c3.82.85,6.44,3.4,8.29,6.88a11,11,0,0,0,1.49,2.25c2.86,3.18,3.07,6.77,1.73,10.61-.77,2.21-1.56,4.42-2.41,6.6a10.09,10.09,0,0,1-6,5.89c-2.51,1-5,2.09-7.56,2.9a10.25,10.25,0,0,1-8.38-.62c-2.35-1.33-4.72-2.63-7.14-3.82a7.13,7.13,0,0,1-4-5.46c-.56-3.19-.9-6.42-1.35-9.63-.24-1.73.66-3.12,1.32-4.59a1.66,1.66,0,0,0-.89-2.47l-3.4,3.06c-.23,2.78-.46,5.44-.71,8.42l-5.83,6.38a64.24,64.24,0,0,0,0,6.79c.73,6.81,1.69,13.59,2.45,20.4a8.78,8.78,0,0,0,5.11,7.59c6.75,3.41,13.32,7.17,19.93,10.85a10,10,0,0,0,8.85.72c8.74-3.35,17.43-6.8,26.14-10.23.15-.06.25-.25.42-.42.28-1.59-1.36-1.76-1.87-3L977,663.33c-2.69,1-5.37,2.08-8.07,3.07s-5.58,1.27-8.35-.23c-6.64-3.63-13.3-7.2-20-10.81a6.05,6.05,0,0,1-3.27-4.69c-1-7.5-2-15-2.77-22.53-.3-2.78.29-5.43,3-7,.23-.13.64,0,1.34.12-.16.67-.13,1.44-.49,1.87-1.69,2-1.79,4.25-1.5,6.64q1,8.31,2,16.63c.13,1.07.43,2.12.58,3.19a5.32,5.32,0,0,0,3,4.21c6,3.24,12,6.51,18,9.84a8.3,8.3,0,0,0,7.28.68c7.06-2.7,14.1-5.47,21.14-8.24a10.19,10.19,0,0,0,1.58-1.07,18.3,18.3,0,0,0-5.6-5.65Zm-43.33-55,.12-.12.12.24Zm32.53,14-1.27-1.13-.87-2.16-1.28-1.09c-.18-.77-.07-1.81-1.74-1.45l1.86,1.34,1.29,1.09.87,2.15,1.26,1.14.08.24Zm-8.59,18.34,2.06-1.19c3.36-.32,3.9-2.82,4.24-5.48l1.23-2.88-2.06-1c-2.14-6.81-8-20.87-10.19-24.42-.79,1.15-1.53,2.24-2.28,3.32-.63.45-1.59-1.08-1.79.05,3.86,8.63,6.91,17.42,11.26,26.93.91-1.75,1.47-2.83,2.19-4.2l1.77,2.34-4.25,5.5-2.06,1.15-1.3.32Zm-11-.05,2.41,1c1.73.94,1.73.94,4,.11h-4.17l-2.42-1c-.31-1.22-1.3-1-2.18-1l-3.09-3.32-.11-.34c-.31-.32,0,0,.23.23-.07,2.14,1.42,2.81,3.1,3.29Zm21.73-15.09-.31-.22.44.09.35,1Zm-30.25,11.76c0,.32,0,.64,0,.95a1.72,1.72,0,0,0,.2.44c.11-.22.37-.52.3-.65s-.43-.43-.67-.64a31,31,0,0,0-1.57-10.33c.15,3.19.54,6.34,1,9.49C945.62,623,946,623.19,946.28,623.44Zm-3.44-24.28c2.92,7.2,5.66,14,8.43,20.79,1.2,2.94,3.92,4.23,6.54,5.25s5.26.26,7.92-1.87c-3.25-8.19-6.3-16.52-10.22-24.73a36.6,36.6,0,0,1-6,1.32C947.61,600,945.67,599.52,942.84,599.16Zm55.66,66.35c-.58-1.31-.9-2.06-1.33-3-2.12.75-4,1.37-5.8,2.07-6.88,2.61-13.74,5.26-20.62,7.87a16.13,16.13,0,0,1-3.58,1.12,12.73,12.73,0,0,1-8.33-1.37c-6.08-3.48-12.25-6.79-18.41-10.12-.67-.36-1.37-1.17-2.33-.48.57,1.78,2.14,2.35,3.55,3.12,6.77,3.71,13.57,7.37,20.27,11.2a10.05,10.05,0,0,0,9.25.78c7.68-3,15.4-5.93,23.09-8.94A45.58,45.58,0,0,0,998.5,665.51Zm-52.9-76.76c5,.14,8.4-2.84,8.69-7.57.25-4-3.14-7.12-7.73-7.12-4.09,0-7.77,3.43-7.83,7.33A6.82,6.82,0,0,0,945.6,588.75Zm53.86,72c.75-.37,1-.41,1-.53,2.71-7.4,5.43-14.8,8-22.25.36-1,.05-2.26.05-3.4-3.41,7.79-6.23,15.71-9,23.64A10.67,10.67,0,0,0,999.46,660.79Zm-44-72.53-5,3.68a5.22,5.22,0,0,0,.11,1.3,3.58,3.58,0,0,0,.62.84C955.18,593.1,955.61,592.55,955.49,588.26Zm-11.4,4.84,3.84,1.9c-.18-2-.91-2.94-2.5-3.18Z"/><path class="cls-1" d="M849.83,625.78l9.68-1.25L867,634.84a37.65,37.65,0,0,1-2.6,10.43,8.24,8.24,0,0,1-2.57,3.33c-2.08,1.71-4.36,3.18-6.54,4.74-4.28-.9-8.27-2.21-11.81-5.17-.41-3-.84-6.16-1.26-9.18-7.37-5.39-15.52-8.78-24-13.61,1.66-.57,2.26-1,2.81-.92a30.05,30.05,0,0,1,4.21.8c5.41,1.37,10.8,2.83,16.21,4.16a45,45,0,0,0,4.72.66Zm6.51,18.46-.24.1.27-.17.27-.11ZM852,647.52l-2.25-.1c-.4-1.13-1.33-1.07-2.26-1-.12-.75-.4-1.21-1.3-.58l1.42.45,2.25,1c.62,1.65,1.43.22,2.16.13l.25-.11Zm6.42-15.33.2.2-.29-.15c-.33-.75-.66-1.49-1-2.23-.4-1.94-1.56-2.2-3.34-1.49l3.46,1.36C857.8,630.65,858.12,631.42,858.44,632.19Zm-9.71,7.67a1.88,1.88,0,0,0-.14-.42c-.05-.06-.2-.06-.3-.08l.55.38a3.55,3.55,0,0,0,2.79,2.86l.69-1.65Zm-1-4.43a6.84,6.84,0,0,0-.75-.58c-.12-.08-.31,0-.47-.05.13.18.23.47.38.51a3.37,3.37,0,0,0,1,0c1.59,2.57,4.45,2.84,7.07,4.26V637A19.27,19.27,0,0,0,847.75,635.43Zm5.76-2.43c0-.11,0-.28-.11-.32a1.33,1.33,0,0,0-.45-.08l.12.54Zm10,5.71-.17,0,0,.38Zm-1.28,4.17.1.41.09-.41Z"/><path class="cls-1" d="M938.77,627.86l7.62,5.88L943.14,635a50.32,50.32,0,0,0,4.67,11.16c.71,1.31,2.29,2.24,3.63,3.09,2,1.25,4.11,2.2,6.1,3.4a49.71,49.71,0,0,1,4,3.05c-1.55.15-2.33.48-2.81.23-3.49-1.83-7-3.66-10.32-5.75a8.65,8.65,0,0,1-3.16-3.57c-2.38-5.4-4.53-10.92-6.71-16.42C938.34,629.8,938.6,629.21,938.77,627.86Z"/><path class="cls-1" d="M985,649.35v2.29a22.21,22.21,0,0,1-2.37,1.22c-4.19,1.62-8.39,3.23-12.61,4.78-3.07,1.11-3.09,1.06-6.68.18.15-.3.23-.8.46-.88,7.11-2.51,14.23-5,21.35-7.45Z"/><path class="cls-1" d="M1154.85,1224.4a5,5,0,0,1,.77,1.38,10.28,10.28,0,0,1,.26,2.65,322.28,322.28,0,0,0,1.41,46.91c1.2,12.37,2.58,24.7,5.55,36.78,2,8.2,4.45,16.3,6.73,24.44.56,2,1.49,4,1.06,6.08-1.89.61-2.17-.74-2.45-1.62-1.54-4.79-3.17-9.57-4.38-14.45-2.11-8.55-4.16-17.13-5.81-25.78-1.32-6.87-2.19-13.86-2.93-20.83a335.6,335.6,0,0,1-2.09-35c0-5.22.11-10.44.23-15.66C1153.23,1227.7,1153.16,1226,1154.85,1224.4Z"/><path class="cls-1" d="M1144.22,1143.11a26.91,26.91,0,0,1,0,3.5c-1.93,11.53-4,23-5.81,34.58-1.09,7.1-1.8,14.28-2.51,21.43-.59,5.9-1,11.83-1.39,17.75-.45,6.1-.87,12.2-.21,18.33.18,1.68.55,3.6-1.73,5a32.9,32.9,0,0,1-.9-4.33,95.39,95.39,0,0,1-.25-9.71c.48-11.14,1.29-22.24,2.53-33.35,1.76-15.75,4.68-31.29,7.13-46.92a32,32,0,0,1,1.19-4.7C1142.37,1144.29,1143,1144.05,1144.22,1143.11Z"/><path class="cls-1" d="M1134.06,1248.05c.31,1.65.57,2.67.68,3.7,1.14,10.73,2,21.5,3.43,32.2a207.85,207.85,0,0,0,5.7,26.9c.46,1.74,1,3.46,1.37,5.22a23.13,23.13,0,0,1,0,3.71c-1-.76-1.68-1-1.9-1.56a23.5,23.5,0,0,1-1.35-4.08c-1.83-7.89-3.93-15.72-5.32-23.68-1.49-8.5-2.32-17.11-3.37-25.68-.4-3.21-.69-6.44-.92-9.67a37.15,37.15,0,0,1,0-5.38C1132.45,1249.28,1133.21,1248.89,1134.06,1248.05Z"/><path class="cls-1" d="M1116.64,1230.92c.55.76,1.2,1.26,1.26,1.82a136.7,136.7,0,0,1,.51,19.33c-2.17.3-2.37-1.07-2.4-2.21-.13-5.73-.16-11.46-.18-17.2C1115.83,1232.21,1116.24,1231.75,1116.64,1230.92Z"/><path class="cls-1" d="M1121.23,1289.27c-.58-.38-.83-.44-.87-.57a45,45,0,0,1-2.07-15.29c0-.42.81-.81,1.59-1.52,1.68,5.51,1.95,10.68,2.29,15.82C1122.2,1288.12,1121.67,1288.56,1121.23,1289.27Z"/><path class="cls-1" d="M1157.67,1194.17c.59.3,1.11.41,1.15.61.57,2.68-.86,12.36-2.37,16.25-.44-.28-1.07-.45-1.2-.82a4.49,4.49,0,0,1-.22-2.09c.47-3.72,1-7.44,1.55-11.15A13.62,13.62,0,0,1,1157.67,1194.17Z"/><path class="cls-1" d="M1117.9,1216.21c1.14,5.18.78,8.58-1.37,11.48a13.6,13.6,0,0,1-.69-3c.05-2.61-.54-5.3.8-7.77C1116.77,1216.64,1117.21,1216.57,1117.9,1216.21Z"/><path class="cls-1" d="M1165.38,722.64c-.82,1.71-1.42,3-2.21,4.63l-9.54,4.58c-3.88-.69-6-4.1-9.3-6.37-.31-3.27-.68-6.65-.92-10a7.53,7.53,0,0,1,1.42-5.08c1.58-2.17,3.12-4.38,4.67-6.57,4.06-.9,7.93-.53,11.89,0l5.29,9.75c4.17,2,8.8,2.74,13.28,3.92,2.08.54,4.22.86,6.29,1.43a9.15,9.15,0,0,1,2.13,1.25c-.73,1.77-2.1,1.69-3.31,1.73-5.2.2-10.41.32-15.62.49C1168.21,722.42,1167,722.53,1165.38,722.64Zm-14.61,1.7-.17-.29.19.22,1,1.14,2.42.8c1,1.34,1.25,1.34,2.74,0l2.53-.92.33-.16c.22-.28,0,0-.2.28l-2.55.88h-3l-2.41-.8C1151.4,725.14,1151.09,724.74,1150.77,724.34Zm2.61-4.81,7.93-1.09-.32-.37-7.83-1.1C1153.25,718,1153.31,718.65,1153.38,719.53Zm5.7-4,.24-.66-4-2.35-1.28,1.63Zm.12-7.61,0-.64a33.6,33.6,0,0,0-3.47-1c-.88-.17-1.75,0-1.72,1.44ZM1157.43,722c-.07-.24-.15-.48-.22-.71-.47.2-.94.41-1.4.64,0,0,.06.28.1.43Z"/><path class="cls-1" d="M787.27,797.64c-.42-1.45-.75-2-.66-2.37a39.23,39.23,0,0,1,1.2-4.14,15.41,15.41,0,0,0,.17-10.06c-1.18-3.77-2.2-7.6-3.19-11.43-.29-1.13-1-2.42.28-3.47,1-.2,1.24.69,1.41,1.28q2.38,8.29,4.64,16.63a8.4,8.4,0,0,1-.22,5.31c-.71,1.84-1.29,3.74-2,5.59A22.33,22.33,0,0,1,787.27,797.64Z"/><path class="cls-1" d="M1127.83,1007c-.37-6.72,3.33-11.56,8.58-15.08,6.5-4.36,15-.66,17,7a36,36,0,0,1,.8,4.24c1.09,8.18-6.15,15.69-14,15.84C1131.77,1019.14,1127.33,1015.36,1127.83,1007Zm23.88-3.13a35.36,35.36,0,0,0-1.18-5.29c-.9-2.39-2.39-4.57-5-5.36a9.88,9.88,0,0,0-10.08,2.23,16.1,16.1,0,0,0-5.11,14.7c.3,2,1.1,4,3,4.9,4.13,2.09,8.37,2.19,12.35-.4A12.45,12.45,0,0,0,1151.71,1003.85Z"/><path class="cls-1" d="M719.9,446.08c.8-.06,1.8-.57,2.14.62.08.27-.47,1-.77,1.05-1.27.12-1.26-.87-1.28-1.76Z"/></svg>