<svg id="Layer_1" data-name="Layer 1" xmlns="http://www.w3.org/2000/svg" viewBox="0 0 2000 2000"><defs><style>.cls-1{fill:#1d1d1b;}</style></defs><path class="cls-1" d="M865,486.11c5.38-15.52,10.38-30.27,15.67-44.92a24.63,24.63,0,0,1,4.87-7.5c3.06-3.49,6.56-6.59,9.78-10,2.49-2.6,4.73-4.68,9-3.29,2.95,1,8.33-3.39,8.24-6.86-.16-6.65,2.63-11.56,7.57-15.65-5.6-11.11-2-19.93,5.85-27.9,4.72-4.81,9.08-10,13.88-14.73,3-3,4.86-6.31,4.59-10.48-.3-4.59,1.61-8,4.7-11.09q4.94-5,9.63-10.11c3.66-4,8.18-4.93,13.25-3.92,2.05.41,4,1.23,6.07,1.59,5.63,1,10.28,3.18,11.36,9.49,4.86,1.3,9.38,2.36,13.8,3.76s8.36,2.28,12.52-.93c1.32-1,4.09-.85,6-.36,13,3.37,26.06,6.85,39,10.63a9.71,9.71,0,0,1,5.62,4.51c1.47,3.18,3.71,4.44,6.72,5.2,3.16.8,6.29,1.69,9.43,2.54,4,1.09,8,2.75,11.67-1.08a4.78,4.78,0,0,1,3.9-.93c5.65,1.31,11.47,2.38,16.74,4.67,2.24,1,3.84,4.56,4.75,7.28,6.55,19.63,12.85,39.34,19.23,59l8.58,26.5c4.38-.26,8.27-.79,12.13-.67,13.93.44,25.3,7.11,35.87,15.41a137.57,137.57,0,0,1,26.35,27.75,268.71,268.71,0,0,1,48.16,116.19,163.58,163.58,0,0,1,0,54.21c-.82,4.76-2.49,9.37-3.92,14.59q10,6.79,20.08,13.61c3.57,2.42,7.27,4.32,8.54,9.36.69,2.77,3.93,5.09,6.38,7.2,13.21,11.35,20.53,26.88,29.26,41.37,2.21,3.66,2.75,8.34,3.94,12.58.76,2.68,1.35,5.41,1.94,8.14,1.75,8.06,4,15.72,12.35,19.71,3.06,1.46,3.74,4.43,3.72,7.69,0,6.75.2,13.5.2,20.25q0,290.13,0,580.26c0,11.63-.73,23.26-.94,34.89-.06,3.08-1,5.31-3.6,7-6.75,4.49-13.31,9.27-20.16,13.58a276.14,276.14,0,0,0-59,49.91c-14,15.6-27.16,31.87-40.77,47.77-3,3.47-5.28,7.23-5.28,11.83,0,7.64-4.24,12.21-10.75,14.6-7.11,2.61-11.78,7.9-17,12.86-7.93,7.48-16,15-25,21.1a222.92,222.92,0,0,1-43.59,23.22,316,316,0,0,1-68.59,18.11,382.68,382.68,0,0,1-112,.5c-31.22-4.48-61.32-12.68-89.81-26.75-12.86-6.35-24.12-14.87-35.95-22.63-17.69-11.6-35.07-23.68-52.69-35.39-8.91-5.92-17.64-12.33-27.2-17-10.15-4.93-18.73-12-28.22-17.77-2.8-1.7-5.18-3.65-5.92-7.33-.37-1.81-2.15-3.54-3.66-4.89-12.13-10.86-21.19-24-28.85-38.22a114.48,114.48,0,0,1-6.41-15.31,56.84,56.84,0,0,1-2.82-10.78c-1.35-8.93-4.77-16.37-13.17-20.81-2.53-1.33-3.21-3.69-3.21-6.47,0-7.22-.23-14.43-.23-21.65q0-288.39.06-576.77c0-12.32,1-24.62,1.36-36.94a9.62,9.62,0,0,1,4.27-8.26c3-2.13,5.81-4.75,9-6.52,32.58-17.88,58.55-43.35,82.14-71.53,9.41-11.23,18.49-22.74,28-33.9,3.66-4.31,5.8-9,5.86-14.51a7.54,7.54,0,0,1,4.36-7.25c1.43-.77,2.63-2.13,4.12-2.58,7.29-2.18,12-7.55,16.88-12.88,12.12-13.15,26.76-23,42.38-31.49,6.93-3.75,14-7.17,21.15-10.58,2.67-1.29,4.28-2.72,4.85-6,1.52-8.74,2.28-17.34-.09-26.06a30.07,30.07,0,0,1-.71-7.6c-.14-18.61-.32-37.24-.22-55.85C871.06,495.16,871,489.75,865,486.11Zm1.56,230.83c.87,2,2.47,3,4.91,2.44l-5-2.3a5.72,5.72,0,0,0-5.65-4.14,36.06,36.06,0,0,0-2.64-3.79c-7.27-8.18-14.26-16.5-17.6-27.23-4.62-14.86-2.57-29,5.55-42a72,72,0,0,1,17.48-19.7,16,16,0,0,0,2.28-2.68c-14.54,9.42-25.38,21.63-30,38.57-2.17,8.06-1.48,16.07.62,24,3,11.13,10.19,19.67,17.73,27.91,1.81,2,4.43,3.2,6.68,4.76Zm370.17,129.8,6.57,6.7.87-1.08-7.57-5.48c-2.83-3.78-6.81-5.14-11.32-5.3-6-.2-7.26.79-9.58,7.57,4.29-5.14,9.42-5.75,15.12-4C1232.79,845.69,1234.78,846.2,1236.75,846.74Zm-97.72-134c10.53-5.67,16.34-15.46,21.81-25.43,1.12-2,2.79-4.82.18-8.16a25.84,25.84,0,0,0-2,4.18,36.1,36.1,0,0,1-7.76,14.62c-4.09,4.94-8.09,9.95-12.14,14.92l-11.58,7.65.92,1.24C1132.47,719.36,1136.25,716.7,1139,712.75ZM704.87,1294.68V1349c3.28,2.35,6.31,5,9.75,6.86,5.19,2.83,8.3,7.2,10.92,12.24,6.65,12.79,13.5,25.48,20.08,38.3a13.11,13.11,0,0,0,6.7,6.66c4.49,1.92,8.73,4.43,13.28,6.15,5.24,2,8.1,5.63,10,10.72,3.2,8.48,6.8,16.81,10.36,25.15,2.46,5.77,5.12,11.46,7.7,17.18.91,2,2,3.82,5.32,2.66,1.27-3.71,2.68-7.81,4-11.72,8,0,15.64-.42,23.22.12,7.1.51,14.37.17,21.09,3.76a169.82,169.82,0,0,0,20.87,9.64c8.93,3.31,15.45,8.14,15.94,18.49a3.34,3.34,0,0,0,.71,2c1.38,1.51,2.9,2.89,4.62,4.57,9-12,17.51-23.08,25.64-34.41,2.68-3.73,5.63-5,10-4.35,6.66,1,13.4,1.47,20.07,2.47a13.43,13.43,0,0,0,10.94-3c10.67-8.27,21.62-16.18,32.29-24.44a16.61,16.61,0,0,1,11.59-3.59c6.91.31,13.84.08,21.15.08v-53.33a2.7,2.7,0,0,0-.53-.45c-6.73-3.15-13.21-7.15-20.25-9.23-10.17-3-14.38-8.9-12.82-19.24,1.14-7.53-1.46-13.63-7.3-18.44-3.54-2.91-4.43-6.78-4.41-11.2.08-14,.2-27.93-.18-41.88-.2-7.26,1.56-13.24,7.43-17.76,3.67-2.81,4.65-6.65,4.48-11.14-.16-4.17.38-8.38.24-12.56-.12-3.59,1.43-5.47,4.67-6.77,8-3.2,15.82-6.75,23.79-10,3.61-1.47,5.42-3.44,5.34-7.74-.27-14.43-.06-28.86-.11-43.3a29.51,29.51,0,0,0-.71-4.59c-7.64-.38-14.83-.92-22-1a15.53,15.53,0,0,1-10.18-3.6c-11.37-9.26-23-18.24-34.33-27.5a17.77,17.77,0,0,0-10.06-4.2c-6.71-.59-13.38-1.63-20.1-2.19-4.09-.34-6.7-2.19-8.82-5.7-7.82-12.94-15.89-25.72-23.88-38.55-1.21-1.95-2.19-4.31-6-3.29-.89,2.38-2,5.12-3,7.92-2.17,6.48-2.14,6.53-8.53,6.76-8.38.3-16.75.6-25.12.78-6.36.14-12.32-.83-17.78-4.76a108.85,108.85,0,0,0-16.75-10c-8.44-4-13.76-9.89-14.64-19.43-.26-2.88-1.36-5.41-5-6.56-1.15,1.48-2.47,3-3.63,4.67-5.52,7.78-10.93,15.63-16.51,23.37-3,4.17-3.36,4.2-8,2-4.85-2.24-9.85-4.25-14.43-7-3.81-2.27-6.73-1.63-10.18.56-5.69,3.61-11.67,6.76-17.43,10.25-3.17,1.92-5.82,1.84-9-.34s-6.17-5.33-10.83-6.19c0,9.61-.06,18.68,0,27.74.07,7.91-1.44,16.36.89,23.56,2.41,7.43,8.23,13.93,13.25,20.29,4.12,5.23,6.18,10.62,5.75,17.24-.63,9.66.85,19,5.4,27.68a13.74,13.74,0,0,1,1.32,6q.15,26.53,0,53.06c0,1.93-.62,4.49-1.94,5.64-4.42,3.86-4.63,8.72-4.7,14-.06,5,.86,10.14-1.11,15.31ZM666.1,784.46c-1,8-2.19,16.89.94,25.85,2,5.69,3,11.71,4.67,17.51a36.7,36.7,0,0,0,3.06,7c9.32,17.36,21,32.88,35.83,46,4,3.53,7.49,7.68,11.58,11.1,4.7,3.93,9.52,7.88,15.3,9.68.89-.92,1.36-1.2,1.5-1.59,5.85-16.26,13.34-31.67,23.5-45.74,13.37-18.5,29.43-34.06,49.19-45.67a41.61,41.61,0,0,0,6.83-5.39c3.38-3.11,8.69-6.08,13-5.78,5.2.37,9.52-1.1,14.12-2.27,19-4.81,38-4,56.5,1.46a122.89,122.89,0,0,1,54.22,32.89c21.39,22,34,48,36.76,78.54a125.18,125.18,0,0,1-5.17,47.56c-1.19,3.94-2.37,7.88-3.82,12.7,77.56,1.93,152.3-8.66,224.63-37.93-1.69-2.19-2.84-3.61-3.92-5.09-5.77-7.87-12.19-15.36-17.13-23.73-7.32-12.41-13.31-25.53-16.66-39.72-3.45-14.59-5.24-29.26-3.63-44.24a14.91,14.91,0,0,0,0-4.81c-1.47-6.27-1.74-12.22,2.64-17.67.93-1.16,1-3.05,1.42-4.61,4-15.49,10.72-29.69,21.13-41.91,7.55-8.86,16.69-15.94,28.41-17.69,12-1.81,24.26-1,35.54,4.29a184.06,184.06,0,0,1,20.72,11.45c19.93,12.81,36.76,29.19,52.71,46.54,1.18,1.29,2.52,2.44,4.06,3.91a38.1,38.1,0,0,0,.16-19.93c-1.74-6.51-3.33-13.06-5.22-19.53a40.27,40.27,0,0,0-3.42-8.35c-8.65-15.48-18.35-30.19-32-41.94-2.63-2.27-4.68-5.24-7.39-7.4-7-5.62-14.31-11-21.19-16.18l-16.4,18.91c6.86,6.16,16.72,10.43,15.08,23.73-3.37-1-6.18-1.22-8.38-2.5-7.23-4.22-10.78-11.1-12.39-19.86-9.36,5.37-18.79,8.29-29.25,7.37-2,4.46-3.38,9-5.85,12.82a125.27,125.27,0,0,1-37.23,37.23c-20,13-41.64,22.4-64.56,29.12a366.85,366.85,0,0,1-93.44,14.39,424.42,424.42,0,0,1-57.12-2.3,334.72,334.72,0,0,1-83.85-19.81,213.87,213.87,0,0,1-31.45-14.92,154.79,154.79,0,0,1-35.41-28.07,87.79,87.79,0,0,1-15.93-23.57c-4-8.79-6.75-18.33-5.85-28.39.73-8.1,1.24-16.23,5.28-23.59a11.87,11.87,0,0,0,.74-2.69,3.33,3.33,0,0,0-2.63,1.68c-12.95,16.15-25.79,32.38-38.9,48.4-13.87,17-28.79,33-45.94,46.65C690.21,767.29,678.34,775.46,666.1,784.46ZM1329.37,1373c.92,2.06,1.72,3.89,2.53,5.71,2.52-12.71,3.75-25.19,5.41-37.61,1-7.1,1.62-14.48,4.17-21.06,3.85-10,6-20,5.6-30.59-.09-2.55.08-5.11.1-7.67.32-36.3.76-72.59.91-108.89.11-26.29-.3-52.58-.24-78.87.08-35.83.4-71.67.56-107.51a62.69,62.69,0,0,0-.87-7.25c-3.78,3.44-3.12,8.56-7.76,10.41-3.37-7.35-2.91-15.52-7.25-23.57a40.66,40.66,0,0,0-.72,4.72c-.08,9.83-3.3,18.65-8.53,26.84a40.75,40.75,0,0,0-2,3.7c-7.08,13.9-7.06,13.94-21.28,19.82-3.33,1.39-6.8,2.46-10.71,3.86l-3.11-11.62a13.78,13.78,0,0,0-1.59,2.33c-4,11.41-8.52,22.67-11.6,34.32-3.52,13.28-10.55,22.85-23.48,27.87a10.79,10.79,0,0,0-2.94,1.85,18.68,18.68,0,0,0-3.43,3.33c-9.83,13.84-19.48,27.8-29.46,41.52a20.15,20.15,0,0,1-7.43,5.85c-5.83,2.82-12,5-18.1,7.56v53.59l26.74,4.54c0,5.26.29,10.13-.07,14.95-.42,5.49.89,10,5.22,13.61,2.69,2.21,3.74,5.07,3.72,8.6-.12,17,0,34-.19,51a13.67,13.67,0,0,1-1.95,7.22,39.49,39.49,0,0,0-6.91,26.38c.09,1.15-.19,2.33-.09,3.48.37,4-1,7.05-4.05,9.8-6.69,6.12-13,12.64-19.73,18.74a7.89,7.89,0,0,0-3,6.54c.12,15.36.09,30.72.13,46.08a27.49,27.49,0,0,0,.52,3.18c5.72-2.26,11-4,15.94-6.42,3.81-1.83,7-1.43,10.46.62,7.81,4.61,15.83,8.85,23.59,13.52,3.21,1.94,5.74,1.95,8.93-.1,5.41-3.49,11.14-6.49,17.18-10,7.86,9,12.51,19.73,20.67,29.34.73-4,1.44-6.7,1.67-9.43a30.84,30.84,0,0,1,8.14-18.74,125.16,125.16,0,0,0,11.23-14.25c5-7.47,12.68-11.45,19.61-16.45C1326.78,1373.21,1328.1,1373.26,1329.37,1373Zm-182.84-50.67c-1.94-.7-3.66-1.35-5.4-1.93-7.7-2.54-11.52-7.26-11.58-15.23-.14-17,.09-34-.12-51-.07-5.4,1.59-9.41,6.21-12.26,1.57-1,2.75-2.57,4.34-3.51,5.69-3.36,7.21-8.26,6.91-14.68-.47-9.75-.07-19.54-.06-29.32q0-17.1,0-34.2c0-2.27.44-4.71-2.42-5.94-4.51-1.94-8.87-3.52-14.08-2.53-15.75,3-31.57,5.6-47.38,8.23-6.88,1.14-13.52,2.28-19.34,6.89-3.47,2.75-5.15,5.27-5.11,9.74.19,19.78-.09,39.56.07,59.34.12,14.62-2.5,11.51,11.23,16.78,6.9,2.65,9.34,6.83,9.34,13.47,0,19.32-.06,38.63.1,58,0,3.81-1.48,6-4.77,7.6-4,2-7.64,4.42-11.54,6.48-3,1.57-4.67,3.62-4.35,7.15.19,2.08,0,4.19,0,6.28q0,106.13,0,212.24c0,2.09,0,4.2.15,6.28.1,1.09.39,2.76,1.11,3.11,5.27,2.55,9.63,7.29,16.46,6,17.38-3.15,34.77-6.27,52.24-8.88,7.56-1.13,11.24-7,16.26-11.25,3.32-2.82,2-7,2-10.58q.13-110,.09-219.91C1146.8,1326.63,1146.63,1324.56,1146.53,1322.29Zm-132-349.14c.3,10.72.66,21.12.86,31.52.07,3.15,1.91,4.38,4.46,5.43,8.81,3.63,17.42,7.83,26.4,10.95,7,2.44,9.93,6.72,9.91,13.92q-.12,45,0,90.06a9.81,9.81,0,0,1-3.63,7.88c-4,3.53-7.85,7.28-11.76,10.93-2.53,2.35-4.3,4.88-1.88,9.27a498.08,498.08,0,0,0,127.19-21.9c1.85-7.81,1.14-14-6.63-17.31a13.11,13.11,0,0,1-2.74-2.14,16.17,16.17,0,0,1-6.46-13.79c.3-27.7.21-55.39.08-83.09,0-5,1.43-8.64,5.61-11.85,8.49-6.5,16.44-13.71,24.75-20.45,3.51-2.85,5.42-6,5.16-10.73-.3-5.33,0-10.7,0-16.05,0-3.62-.28-7.24-.48-11.94-28.62,8-56.22,15.81-84.65,20.59S1043.47,970.18,1014.51,973.15Zm167.9-198.43c6.92,2.76,13,4.71,19.54,4.64,11.61-.13,22.67,2.06,32.77,7.89,6.62,3.82,12.9,8.22,19.44,12.19,31,18.8,46.84,47,49.92,82.44,1,11.72-.54,23.67-1.09,35.51-1,20.57-8.3,37.89-25.55,50.28a17.41,17.41,0,0,0-5.39,6.89c-4,9-7.56,18.26-14.45,27,4.7,0,8.44.39,12.06-.08,8.51-1.11,16.7-2.77,23.58-8.91,14.23-12.72,22.71-29,27.77-46.72,6.53-22.79,9.83-46.44,11.5-70.06,1.55-22,.92-44.16,1.35-66.25a14.78,14.78,0,0,0-4.08-10.7c-16.58-18.68-34.47-35.91-55.54-49.51-8.56-5.53-17.49-10.55-27.45-13.35-9.11-2.57-18.43-3.31-27.48-.7C1199.83,740.84,1190,755.86,1182.41,774.72ZM742.47,1549.35c23.79,15.44,46.78,30.81,70.25,45.42,23.26,14.49,47.16,27.75,73.21,37,25,8.81,50.3,12.76,76.65,9.43a54.07,54.07,0,0,0,22.15-7.84c5.33-3.33,5.91-8.45.6-11.62-6.86-4.09-9.37-9.64-9.21-17.13a18.85,18.85,0,0,0-.86-5.5c-1.56-5.48-2.79-11.12-6.24-16.2-5.8,2.12-11.25,4.06-16.66,6.1-5.6,2.11-11.4,3.63-15.82,8.35-1.67,1.78-5.06,2.68-7.67,2.69-7.62,0-15.36.17-22.84-1.08-22.87-3.81-44.25-12.25-64.77-22.84C829.47,1570,818,1563.32,809,1553.24a34.22,34.22,0,0,1-5.49-8.7c-2.16-4.82-3.54-10-5.66-14.84-2.87-6.6-6.19-13-9.2-19.54a16,16,0,0,1-.13-14.13c2-4.34,3.39-9,4.93-13.11-.77-.74-.91-1-1.1-1a12.53,12.53,0,0,0-2-.48c-15.35-1.87-26,6.15-34.07,17.61C745.81,1513.9,741.93,1531,742.47,1549.35Zm183-736.06.39-1.82a69.18,69.18,0,0,0-7.63-4.59c-17.38-7.8-35.35-11.94-54.7-10.6a112.45,112.45,0,0,0-35.1,8.19c-24.66,10.14-44.17,27.23-60.25,48.28-9.79,12.82-17.18,27.07-23.24,42-2.18,5.38-3.77,10.89-2.8,17,1.39,8.71,2.17,17.51,3.43,26.25a157.22,157.22,0,0,0,11.14,39.49c10.26,23.94,24.07,45.74,44.27,62.69,7.06,5.93,15.07,10.85,23,15.55,4.05,2.39,9,3.27,13.54,4.83-7.66-8-16.22-14.61-23.17-22.65-10.37-12-19.06-25.36-24.2-40.47-3.27-9.61-5.34-19.7-7.26-29.7-3-15.64-3.57-31.38.38-47q2.49-9.81,5.56-19.46c4.87-15.21,11.56-29.43,23-41,3.09-3.13,6-6.45,9-9.63,7.41-7.76,15.53-14.71,25-19.82a159.61,159.61,0,0,1,19.62-9c7.37-2.75,14.92-5.62,22.63-6.73,10.08-1.45,20.39-1.24,30.61-1.69C921,813.21,923.24,813.29,925.49,813.29Zm47,117.86c0-3.72.17-7.45-.06-11.16a83.3,83.3,0,0,0-1.33-8.25c-5.59-34.23-33.6-65.37-69.52-70.91-23.1-3.56-44.56.9-63.81,13.8-24.07,16.12-39,38.73-44.49,67.33-5.4,28.16,0,54.08,16.86,77.33a76.62,76.62,0,0,0,29.1,24.48c29.66,14.09,59,11.9,86.29-5.79C956.54,997.82,971.74,968.14,972.46,931.15Zm48.8-429-1.82-.58c-.31-13.56-.61-27.11-1-42.39-6.21,6.67-12.23,11.2-14.68,18.91-2.81,8.86-6.1,17.56-9.12,26.36-1.56,4.57-3,9.19-4.53,13.92,4.59,3,5.35,7,5.32,11.72-.12,18.38.08,36.77.19,55.16a22.47,22.47,0,0,0,.46,6.21,53.66,53.66,0,0,1-.34,32.7,90.12,90.12,0,0,0-4.38,30.52c.31,14.69.13,14.7,12,23.39a1.21,1.21,0,0,0,.42.17c4.23-4.08,8.27-8.23,12.59-12.06,3-2.66,3.41-5.63,2.93-9.4-4.11-32.06-8.06-64.14-12.09-96.21-.67-5.3-.52-11-2.55-15.77-3.69-8.66-1.17-17.47-2.17-26.13a5.71,5.71,0,0,1,4.14-6.5c3.07-1,5.46,0,7.6,2,2.35,2.26,4.46,4.8,7,6.82a24.34,24.34,0,0,0,7.57,4.51c5.16,1.57,7.87,4.71,8.2,10,.27,4.16,2.67,6.53,6.19,8.41l7.46-8.76c-2.53-4.76-1.17-8.46,2.43-11.92,4.36-4.18,8.39-8.71,12.67-13a25.93,25.93,0,0,1,4-2.71l2.19,5.85c6.51-5.25,13.12-8.84,21.25-9.68,1.66,2.21,3.28,4.36,5.73,7.64,1-6,1.27-10.63-.35-15.39-2.7-7.91-6.68-15.78-7.42-23.91-1.66-18.4-3.86-37.23,6.61-54.32a15.34,15.34,0,0,0,1.73-3.8,7.65,7.65,0,0,0,.35-4c-1.38-4.31-3.08-8.51-4.64-12.7-1.22.41-1.78.43-2.06.72-4.85,5-9.44,10.3-14.56,15a19.81,19.81,0,0,0-6.84,15.82c0,15.17-.49,15.51-11.12,26.3-1.88,1.91-3.85,5.2-6.81,3.28-1.57-1-2.07-4.36-2.28-6.71-.56-6.41-.7-12.86-1-19.25-7.87,0-12.81,4.49-12.93,11.6-.22,12.33-.22,24.67-.46,37,0,2.24-.11,5-1.35,6.61A70.07,70.07,0,0,1,1021.26,502.17Zm-349.64,527.9c-.74.44-1.1.54-1.11.67-.14,2.08-.36,4.17-.31,6.25.71,28.33-.94,56.64,2,85,2,20,.46,40.44.44,60.68a23.54,23.54,0,0,1-.77,4.74c-.51,2.43-1.59,4.84-1.59,7.25q-.11,115.88,0,231.75c0,11.09,2,21.61,9,30.84,3.78,5,6.75,10.63,10.62,16.83-1.38-5.79-3.38-10.4-3.42-15-.3-28.62-.09-57.24-.25-85.86,0-4.36,1-7.75,4.76-10.06,3.11-1.93,3.91-4.65,3.89-8.23-.12-30.25,0-60.5-.14-90.75a19.94,19.94,0,0,0-1.75-8c-4.07-8.87-8.36-17.65-12.8-26.35a36.61,36.61,0,0,1-4.48-17.3c.16-16.75,0-33.5.08-50.25,0-2.51.33-5,.54-7.87l18-4.91a12,12,0,0,0,.39-1.76c0-24.89.13-49.79-.06-74.69a18.76,18.76,0,0,0-2.65-8.44c-5.29-9.55-10.87-18.94-16.39-28.37C674.34,1034.11,672.93,1032.09,671.62,1030.07Zm298-383.36v-65.3c-5.25-3.63-5.22-3.63-4.73-10.19.29-3.89.47-7.8.69-11.48-10.82-4.46-74.35-21-79.14-20.66-.19,3.9-.54,7.83-.53,11.76,0,3.62-1,6.26-4.89,6.44v65.45ZM1052,1514.06c-8.23.6-15.62,1.59-23,1.59-22.56,0-45.12-.38-67.68-.58-2.28,0-5.46-.62-6.66.59-3.13,3.15-5.14,3.14-7.84-.28-.86-1.08-2.85-1.52-4.39-1.77a116.16,116.16,0,0,0-12.46-1.42,6.15,6.15,0,0,0-4.14,1.75c-1.55,1.58-2.6,3.67-4.25,6.12,16.2,10.61,27.38,25.46,39.11,39.89,11.94,14.67,18,31.86,23.69,49.64.41-4,.82-8,1.25-12.26,8.24-.81,15.73-1,22.76.69,1.7,3.91.33,7.69,2.51,10.72a41.32,41.32,0,0,0,.43-11.18c-1.35-9.52,1.91-16,11.29-19.07a29.11,29.11,0,0,0,4.88-2.68l24.51-14.07ZM947.58,1079.82c5.35,1.43,9,3.28,12.65,3.25,29.3-.23,58.61-.81,87.91-1.33a20.18,20.18,0,0,0,3.94-.9v-46.45c-1.82-.86-3.46-1.7-5.15-2.42-9.84-4.17-19.62-8.49-29.57-12.38-4.33-1.7-6.13-4.14-5.82-8.86.34-5.09,0-10.23-.22-15.34a30.8,30.8,0,0,0-.63-4l-.74.19c-.41,3.81-.81,7.63-1.21,11.3H985.53c-.47-4.57-.89-8.59-1.3-12.61-5.56,17-10.61,33.78-22.71,47.1-11.67,12.85-23.39,25.74-40,33.37l5.76,9.1Zm-29,437.24c4.59-6.1,8.89-11.56,12.89-17.23,2.69-3.83,5.83-5.37,10.64-4.74,25.45,3.3,51.08,2.23,76.64,2.78,3.32.07,6.65-.35,10.67-.59l-6.29-3.24c.15-.51.31-1,.46-1.52,9.33-1.07,18.46,2.75,28.59,1.93,0-8.43.12-16.74-.12-25,0-1.28-1.52-2.73-2.67-3.71a90.78,90.78,0,0,0-9.88-7.75c-4.13-2.63-6.1-5.93-5.74-10.89.22-2.93-.24-5.92-.43-9.3H1028c-9.06.06-18.13.35-27.18.08a16,16,0,0,0-10.84,3.69c-10.5,8.09-21.28,15.82-31.72,24-4.34,3.4-8.6,4.82-14.14,3.62s-11.1-1.11-16.58-2.06c-5-.85-8.24.58-11.12,4.82-5,7.3-10.52,14.19-15.78,21.29-2.45,3.31-4.81,6.7-7.73,10.79ZM894,1079.42a42.7,42.7,0,0,0,2.35,5.6c7.48,12,15.06,24,22.57,36.07,1.49,2.38,3.51,3.33,6.32,3.59,7.4.69,14.85,1.33,22.15,2.68,6.19,1.14,12.21,2.77,17.16,7.55,8.52,8.25,17.68,15.83,26.46,23.81a12.51,12.51,0,0,0,9.4,3.59c7.67-.27,15.36,0,23-.16,3.2-.06,6.39-.68,9.23-1,.49-1,.92-1.46.86-1.83-2.07-11.74,4.27-19.24,12.82-25.68a31.11,31.11,0,0,0,4-3.82c.75-.82,1.72-1.88,1.73-2.85.14-8.52.08-17,.08-26.35-8.54.61-16.14,1.46-23.75,1.65-29.08.73-58.14.78-87.14-2.2-4.45-.46-7.11-2-9.35-5.78-4.19-7.19-8.95-14-13.56-21.16Zm324.13,486.24,1.79-6.82c2.43-9.2,3.54-19,7.53-27.49,10.59-22.43,18.89-46,33-66.75,2.84-4.17,2.53-4.38-1.87-8.59-4.47,3.2-10.9,3.92-12.82,10.53a3.29,3.29,0,0,1-2.87,1.5c-5.64-2-9.86,1.77-14.39,3.55-19,7.47-37.48,16.33-57.53,20.93-3.37.77-6.63,2-10.18,3.09v47.83c10,2.81,19.8,5.62,29.64,8.32,5.58,1.53,5.66,1.46,5.76,7.4.09,5.34,0,10.69,0,16,1-2.32.88-4.68,1.33-6.93.28-1.42,1-3.33,2.15-3.91a86,86,0,0,1,17-6.8C1217.14,1560.42,1217.5,1562.42,1218.09,1565.66ZM1151,1541.11c-.24,5.45-.63,9.56-.53,13.66.08,3.55-.83,6.27-3.86,8.35a22.38,22.38,0,0,0-4.55,4.31c-4,4.81-9.22,6.53-15.17,7.45-14,2.17-28,4.39-41.9,7.23-9.34,1.92-17.74,1.46-25.94-4-3.26-2.19-5.26-4.21-5.29-8.08a25.59,25.59,0,0,0-.46-3.36c-.68,0-1.23-.17-1.58,0-11.36,6.33-22.73,12.66-34,19.12a4.7,4.7,0,0,0-2.27,3.13c-.2,8.08-.11,16.16-.11,24.83,58.78-1.52,115.31-10.39,170.56-29.36,0-8.26,0-16.15,0-24,0-5.78-.15-5.67-5.87-7.58C1170.47,1549.6,1159.91,1549.28,1151,1541.11Zm111-529.33c-12.28-4.2-20.25-13.77-28.45-23.33-8.54-9.94-10.74-22.51-15.38-34.12a53.05,53.05,0,0,0-.9,5.73c-.24,1.27-.7,3.05-1.63,3.55a69.49,69.49,0,0,1-17.65,6.82c-.45-2.81-.78-4.84-1.36-8.44-.3,6.48-.94,11.38-.65,16.23.37,6-2.33,10-6.72,13.62-8.28,6.75-16.36,13.75-24.65,20.49a10.45,10.45,0,0,0-4.22,9c.16,12.31,0,24.63,0,37a25.65,25.65,0,0,0,.91,4.69c19.56-7,38.54-13.88,57.53-20.7,5.67-2,11.37-4,17.06-6,3.26-6.43,10-6.55,15.64-8.68C1258.54,1025,1261.09,1019.22,1262.06,1011.78Zm-8.29,428.75,11.49,16.31c4.36-4.92,8.16-9,11.73-13.26,5.32-6.37,5.34-7.19,1-14-2.72-4.33-5.54-8.6-8.36-12.87-1.87-2.84-3.81-5.64-5.87-8.67-5.9,3.46-11.24,6.29-16.23,9.63-3.43,2.28-6.16,2-9.56,0-8-4.78-16.28-9-24.18-13.87-3.21-2-5.83-2-9.08-.56-5.54,2.38-11.2,4.5-16.87,6.58-3.42,1.25-7,2.21-10.7,3.39,0,2.12-.14,3.74,0,5.33.79,7.67-2.15,13.63-7.09,19.51-12,14.3-9.27,7.86-9.66,26.77-.08,3.81.24,7.62.38,11.92C1193.83,1468.75,1223.74,1455.75,1253.77,1440.53ZM947.2,1646.24l-.13.62c2.25.42,4.48,1,6.75,1.24,23.16,2.43,46.32,3.62,69.64,2.06,24.89-1.66,49.44-5,73.55-11.59,22.77-6.19,44.66-14.4,64.77-26.92,1.72-1.07,4.17-2.25,4.65-3.85,1.83-6.19,7.07-9,11.42-12.72,1.83-1.57,3.82-3,5.74-4.43-.16-.48-.33-1-.49-1.43-62.88,21.26-127.85,28.49-194,29.34,6,9.59,4.65,13.88-4.93,19.36a53.14,53.14,0,0,1-21.74,6.84Q954.84,1645.48,947.2,1646.24Zm319.07-632.66c-3.1,8.34-6.26,16.33-9,24.45-1.59,4.69-4.2,8.15-8.69,10.29-5,2.4-9.82,5.29-14.94,7.45-22.24,9.41-44.28,19.43-68,24.75a33.72,33.72,0,0,0-5.07,2c0,8.09.09,15.76,0,23.42a7.16,7.16,0,0,0,3.89,6.82c3.18,1.92,6.16,4.18,9.32,6.15a6.16,6.16,0,0,1,3.24,5.69c0,3.64.35,7.27.58,11.36a32.83,32.83,0,0,0,5.39-.84c7-2.48,13.92-5.18,20.94-7.62a14.88,14.88,0,0,0,7.5-5.83c6.84-9.69,14.44-18.91,20.62-29,6.62-10.82,14.77-19.42,26.51-24.39,3.49-1.47,5.18-4.27,6.41-7.73,4.06-11.39,8.41-22.67,12.48-34,1.45-4.07,2.43-8.31,3.75-12.93Zm-190.83,285c-2.87,0-4.72-.11-6.55,0-19.23,1.23-38.44,2.66-57.69,3.65-7.87.4-15.79-.19-23.69-.24-2.44,0-4.89.25-7.63.41,0,8-.21,15.2.13,22.36a9,9,0,0,0,2.84,5.94c7.44,6,9.31,13.94,8.63,22.93-.12,1.62.15,3.27,0,4.88-.26,3.24,1.13,5.2,4.1,6.46,4,1.72,8,3.69,12,5.56,8.13,3.82,16.34,7.36,26.15,9.56v-29.43c2.93-1.74,5.1-3.07,7.31-4.33,10.07-5.76,20.14-11.54,30.25-17.24,2.1-1.18,4.13-2.25,4.14-5C1075.45,1315.72,1075.44,1307.4,1075.44,1298.57Zm-41.83-79.82-42.43,18.64c0,5.59-.24,10.94.07,16.26.27,4.58-1.11,8.29-4.67,11-6,4.58-7.44,10.7-6.84,17.85.42,5,.25,10,.33,14.77,31,2.66,60.9-.37,90.81-2.41,3.51-.24,4.84-1.95,4.74-5.4-.16-6-.28-12.1,0-18.14.17-4.1-1.25-6.36-5.19-7.84-8.25-3.11-16.34-6.67-24.47-10.1-4-1.69-8-3.47-12.32-5.37ZM1237.72,795l.26-1.69c-5.75-2.35-11.35-5.23-17.29-7-15-4.36-29-2.67-41,8.23-4.64,4.19-8,9-8,15.59,0,10-.72,20-.24,29.92.76,15.72,5.34,30.54,11.93,44.83a151.64,151.64,0,0,0,28.94,42.39,7.61,7.61,0,0,1,2.05,2.76c2.56,8.38,8.74,15.43,8.92,24.74a7.19,7.19,0,0,0,2.89,5.18c12.17,7.32,25.25,10.54,39.36,7.11,12.13-3,20.36-11,25.92-21.68,3.42-6.57,6.39-13.58,6.34-22.6-2,2.88-3.32,4.79-4.71,6.59-5.59,7.22-12.4,12.57-21.75,13.87a45.41,45.41,0,0,1-25.8-4c-12.61-5.82-22.43-15.07-30.72-25.77-17.08-22-26-46.92-24.59-75.19.41-8.27,1.92-16.13,5.62-23.52,5.85-11.67,16.83-21.67,33.55-20.25C1232.18,794.83,1235,794.88,1237.72,795ZM970.55,518.67c6.13-16.67,11.88-32.91,17.12-49.84l-89.4-24.27c-5.76,16.74-11.37,33.05-17.15,49.87Zm156.38-50.55c-2.16,2.74-4.47,5-6,7.75-5,8.61-7.17,18.14-8.13,27.92-1.92,19.41.4,38.5,4.76,57.42a265.79,265.79,0,0,0,25.76,67.54c11.06,20.35,24.13,39.19,41.58,54.72,9.48,8.43,19.59,16.11,32.18,18.74,16.8,3.5,28,.51,38.11-12.12,5.89-7.34,9.19-16.1,10.93-25.37,4.72-25.19,2.11-50-3.95-74.63-8.28-33.54-22.17-64.58-42.44-92.62-10-13.85-21.6-26.23-36.39-35.15-9.1-5.5-18.8-9-30-7.57.7,2.72,1.32,5.09,2,7.58,11.29-.18,20.64,4.07,29.26,10.47,12.08,9,22,20,30.66,32.21,19,26.67,31.65,56.26,39.46,87.91,5.15,20.89,7.51,42.13,4.69,63.67-1.27,9.77-3.9,19.11-9.51,27.4-3.5,5.17-8.06,9.39-14.17,10.55a39.07,39.07,0,0,1-25.76-3.39c-14.64-7.48-25.9-18.86-36.2-31.22-16.53-19.85-28.54-42.41-37.7-66.42-9.24-24.23-15.72-49.17-15.74-75.37,0-14.78,1.22-29.3,10-42C1132.41,473,1131.53,470.44,1126.93,468.12ZM663.62,819.52c1.12,13.22,2.07,25.23,3.17,37.22.61,6.71,2.06,13.39,2.12,20.09.27,30.91.2,61.83.18,92.74a22.29,22.29,0,0,1-.89,6.87c-2.24,6.86-1.68,13.85-.8,20.7,2.45,19.1,13.33,34.26,24.13,49.47-.65-3.6-2-7-3-10.44s-2.17-7.19-2.19-10.8c-.19-28.82-.13-57.65-.11-86.48,0-2.06.26-4.11.44-6.72L706,927.23c0-3.52.11-7,0-10.45-.33-8.43,1.15-16.15,7.87-22.07.8-.71,1.2-1.87,2.06-3.29-6.78-6.91-13.47-13.65-20.06-20.49-3.38-3.5-7.24-6.76-9.74-10.84-7.71-12.59-17.26-24.3-20.3-39.32C665.76,820.63,665.43,820.55,663.62,819.52Zm305.87,758.55c-10.49-13.22-19.87-25.32-29.61-37.14a35.08,35.08,0,0,0-9.47-8,328.9,328.9,0,0,0-77.06-31.8c-15.26-4.17-30.78-7.3-46.76-6.22a34.78,34.78,0,0,0-10.11,2.11c-4.94,1.91-6.41,5.21-4.43,10,2.71,6.59,6,13,9.17,19.87a17.18,17.18,0,0,1,13.76-5.79,164.78,164.78,0,0,1,18.07.89c16.45,2.11,32.16,7.2,47.48,13.31,16.64,6.64,32.82,14.34,47.43,24.84,9,6.49,18,13.32,21.08,25.66Zm62.26-822c-6.35.46-11.88,1-17.43,1.25a301.32,301.32,0,0,1-79.67-6.87c-28.19-6.34-54.71-16.35-77.45-34.85-11.86-9.65-21-21.43-24.76-36.2-1.87-7.39-1.5-15.79-.23-23.4,1.15-6.83,4.94-13.21,8.13-21.23-4,5.17-7.23,9.22-10.29,13.43-14.89,20.5-13.08,45.06.93,64.23,10.64,14.57,24.8,24.78,40.52,33.43,25.08,13.79,52.28,20.63,80.08,25.13,23,3.71,46.36,3.59,69.64,2.9,4.07-.12,8.11-1.06,12.55-1.67C1033.07,766.62,1032.48,761.83,1031.75,756Zm188.11,504.58c-26.29,13.34-53.73,18.65-80.13,26.82v28.46l37.39,10.56v28.27c2.26-1.27,3.54-1.72,4.5-2.56,7.34-6.41,14.44-13.13,22-19.29,5.48-4.47,8.28-9.53,7.53-16.76a35.59,35.59,0,0,1,6.42-25,12.62,12.62,0,0,0,2.2-6.44C1220,1277.24,1219.86,1269.81,1219.86,1260.61Zm-42.94-66.74c0,8.62-.27,16,.09,23.42.24,4.94-1.63,8.22-5.37,11.22-9.44,7.55-18.69,15.34-27.89,23.18-1.67,1.42-3.8,3.5-3.89,5.36-.43,8.29-.19,16.61-.19,26,27.66-7.38,54.69-13.67,80.23-26.64,0-6.43-.2-13.17.08-19.88.18-4.48-.79-8.21-4.33-11.1s-4.53-6.66-4.42-11.12c.12-5-.33-10-.53-15.2ZM953.71,339.14c9.87,2.71,18.54,5.08,27.2,7.49A115.56,115.56,0,0,1,992.25,350c3.32,1.29,3.91,3.68,2,6.73a24,24,0,0,1-3.11,3.74c-6.38,6.78-12.81,13.5-19.17,20.29-3.9,4.16-7.71,8.4-12.09,13.18l41.75,11.37c1.19-1.05,2.12-1.75,2.91-2.58,10.26-10.78,20.69-21.41,30.66-32.46,4.5-5,9.46-6.28,15.61-4.66q3,.79,6.06,1.63c8.51,2.33,17,4.82,25.56,6.89,2.27.55,5.72.75,7.14-.53,4.71-4.25,9.52-8.59,13-14.32-4.34-2.43-7.71-1.42-10.29,1.73-3,3.64-6.32,3.87-10.53,2.63-8.9-2.64-17.92-4.89-26.87-7.41a49.42,49.42,0,0,1-5.73-2.44c2.19-3,3.84-5.28,5.49-7.54l-1-1.21a37.23,37.23,0,0,0-5.63,3c-4.88,3.72-4.81,3.8-11.15.08l3.44-5.7c-7.22-2.74-7.22-2.74-12.65,1.33-3.72,2.8-4.3,2.75-9.86-.94l3.37-5.87c-3.93-1.41-5.79,1-7.56,2.92-2.91,3.12-6.1,3.63-10.09,2.48-9.36-2.72-18.81-5.16-28.2-7.8a28.46,28.46,0,0,1-4.47-2.2l4.89-7.22c-5.19-2.18-5.87-2.47-8.38-.11C962.85,329.25,958.73,333.89,953.71,339.14ZM690.3,1418.54c-.18,2.17-.45,4-.47,5.77-.07,7.21.34,14.45-.17,21.64-.8,11.49,1.2,22.11,7.54,31.89,2.14,3.29,3.59,7,5.33,10.59,4.2,8.51,9.17,16.79,7.86,26.92-.06.41.24.87.38,1.3,11.25,5.94,13.75,8,17.21,14.63,4-25.44,18.15-42.45,40.64-52.52-4.33-13.17-3.53-10.39-14.48-15.79-2.5-1.24-7.67.16-8.42-1.29-1.77-3.44-4.46-5.18-7.28-7.12-16.05-11.09-33.14-20.82-46.47-35.47C691.84,1418.94,691.55,1418.94,690.3,1418.54Zm78.79-388.49c-22.47-29.53-36.9-62.06-41.44-98.53-7.49.78-10.74-6.63-16.91-7.34a6.93,6.93,0,0,0-.33,1c-.88,9.89-.49,9.31-10.2,9.85-3.37.18-7-.82-10.32,2.21,0,14.35,0,29,.08,43.61a6.76,6.76,0,0,0,1.9,4.27c6.48,6.32,12.69,13,19.82,18.55,9,6.95,18.79,12.87,28.23,19.25,1.91,1.3,3.5,2.78,6.26,1.34.84-.45,3.88,1.12,4.19,2.24.75,2.79,2.84,3.49,4.86,4.51,2.69,1.37,5.4,2.71,8.15,4a7.93,7.93,0,0,0,2.4.14c.3-.41.75-1,1.12-1.53C767.53,1032.66,768.11,1031.67,769.09,1030.05ZM691,1005c-2.43,8.63-1.74,23.3,1.89,32.33,3.85,9.59,6.68,19.28,6.25,29.76a7.73,7.73,0,0,0,1.56,5,60.33,60.33,0,0,0,19.77,15c6.87-3.9,13.66-7.48,20.15-11.54,4.12-2.58,7.69-3.35,12.22-.77,5.39,3.08,11.22,5.36,17.41,8.24,7.15-10.19,14.14-20.18,21.2-30.24l-19.87-19.12c-3.22,4.63-6,8.83-9,12.92-3.39,4.66-4.15,4.94-9.18,2.38-21.2-10.8-41-23.7-58.17-40.28C694,1007.43,692.52,1006.3,691,1005Zm7.9,344.38c.74,8.07-.72,14-7.11,18-1.2.75-1.83,3.19-1.88,4.88-.21,7-.2,14,0,20.93,0,1.72.54,4,1.69,5,7,6.7,13.77,14,21.69,19.48,13.15,9.14,27.1,17.13,40.78,25.49a18.69,18.69,0,0,1,8.38,9.75c3,8,6.59,15.78,9.84,23.41h18.77c-3.09-7.13-5.88-13.47-8.59-19.83-2.82-6.63-6-13.13-8.24-20-2.59-8.09-6.87-13.95-15.38-16.2-1.76-.47-3.27-1.85-5-2.4-7.22-2.29-11.14-7.72-14.36-14.14-6.26-12.46-12.76-24.79-19.26-37.13a14.67,14.67,0,0,0-3.72-4.88C711.19,1357.83,705.63,1354.1,698.93,1349.38Zm336.25-560c.58-3.37.33-5.34-2.66-5.4-1.85,0-3.71.12-5.57.23-37.13,2.24-73.93,0-110.07-9.18a245.21,245.21,0,0,1-48.75-18.5c-16.21-8.07-30.62-18.24-42.25-32.32-10-12.07-15.62-25.32-16-41.25-.26-11,3.1-20.8,8.31-29.72,5.7-9.8,12.79-18.89,22.52-25.39,6.55-4.39,12.72-9.42,19.59-13.23,5.68-3.14,7.51-7,5.5-13.72a86.79,86.79,0,0,0-8.12,3.62c-12.09,6.93-24.23,13.69-34.69,23.2-10.83,9.85-19.74,20.78-25,34.65-6.6,17.52-4.75,34.16,4.18,50.27,8.18,14.78,20.16,25.87,33.81,35.54a143.2,143.2,0,0,0,31.08,17.09c14.71,5.67,29.56,11.17,44.74,15.33,14.75,4,29.94,6.36,45.23,8.13,19,2.2,38,2.37,57.1,2.16C1021.1,790.82,1028,789.93,1035.18,789.39ZM887.37,436.85c4,2.21,7.47,3.83,10.35.69,3.81-4.16,7.86-5.39,13-3.14a4,4,0,0,0,2.06,0c7.67-1.23,14.55.17,20.41,5.62a7.88,7.88,0,0,0,3.84,1.51c14,2.59,26.85,9.54,41.7,8.79,8.1-.42,14.7,5.06,21.42,9.79-1.47,2.28-2.78,4.3-4.12,6.39,7.28,2.87,7.29,2.88,11.85-1.82q3.65-3.75,7.2-7.59a8.59,8.59,0,0,0,1-1.72l-5-3.57c4.81-4.83,9.26-9.19,13.57-13.68,2.09-2.17,4.13-3.53,7.33-2.33,2,.75,4,.59,4.77-2.7-1.75-.33-3.26-.64-4.78-.9-5.94-1-12-1.58-17.82-3.07q-24.27-6.24-48.37-13.15c-13.78-4-28.23-6-40.7-13.86-2.8-1.76-4.21.29-5.53,2.32l4.35,4c-4.33,4.51-8.36,8.63-12.28,12.85-2.35,2.51-4.64,4.46-8.46,2.8a4.3,4.3,0,0,0-3.8.65C895.32,428.57,891.54,432.59,887.37,436.85Zm215.44,210.61-64.25-69.07-1.11.73c4.54,36.46,9.08,72.92,13.68,109.89C1074.07,681.39,1093.89,671.74,1102.81,647.46Zm141-37.89c-.4-3.13-.48-4.72-.82-6.26a263.12,263.12,0,0,0-26.36-70.21c-8-14.72-17.28-28.66-29.19-40.63-7.57-7.6-15.24-15.07-25.36-19.28-2.39-1-5-1.53-8.58-2.62,4.64,14.48,8.87,27.48,13,40.52,1.33,4.26,2.87,8.27,6,11.64a9.68,9.68,0,0,1,2.06,4.9,17.44,17.44,0,0,0,9.46,12.86,28.37,28.37,0,0,1,9,7.28q22.71,27.83,45.4,55.68C1239.8,605.18,1241.35,606.79,1243.84,609.57ZM1053.7,1245.34c0-3.31,0-6.09,0-8.86.13-20.48.23-41,.49-61.42,0-2.43.2-5.83,1.71-7.12,5.43-4.61,10.89-9.49,18.39-10.73,17.88-3,35.88-5.36,53.56-9.21,8.69-1.88,15.28,1,22.78,4.69v18.86q0,9.42,0,18.84c0,6.28-.06,12.56,0,18.84.09,6.11-.33,12.28.63,19.51,4.29-3.51,7.34-6.36,10.75-8.72,3.61-2.49,4.85-5.52,4.81-9.94-.21-22.79-.08-45.59-.1-68.39,0-1.83-.21-3.66-.38-6.37-42.1,12.61-84.78,19.46-128.49,22.06-.13,2.92-.33,5.2-.33,7.49q0,30.7,0,61.42C1037.64,1241.12,1037.69,1241.12,1053.7,1245.34ZM1209,711.47c-4.23-2.68-5.15-.33-6.7,1.94-5,7.27-9.49,15.11-15.65,21.28-13.71,13.74-29.89,24.35-47.57,32.41-23.35,10.66-47.79,17.73-73.08,22.3a362.37,362.37,0,0,1-65.8,5.62,393.69,393.69,0,0,1-51.44-3.57c-29.86-4-58.72-11.26-86.21-24-19.45-9-36.82-20.52-51.59-36.16a78.57,78.57,0,0,1-15.33-23.12c-3.67-8.65-6.56-18-5-27.8a46.77,46.77,0,0,0,.37-5.56c.06-1.56,0-3.11,0-4.66-4.91,8-5.07,16.87-4.15,25.11,1.72,15.29,8.77,28.61,19,40.28,18.17,20.64,41.39,33.74,66.42,43.53,34,13.3,69.6,20,106.08,21.59,39.91,1.69,79.44-.81,118.19-11.47,32.6-9,63.21-21.7,89-44.44,7.8-6.89,13.5-15.31,19.39-23.63C1206.86,718.42,1207.61,714.86,1209,711.47ZM945.67,856.74q48.58,51,23.48,114c-16.64,41.68-48.67,63.6-93.69,66.94a35.09,35.09,0,0,0,8.72,3.11,95,95,0,0,0,29,1.57c14-1.55,26.52-6.65,38.23-13.87a37.63,37.63,0,0,0,10.85-10.56c8.28-12.07,12.43-25.79,14.33-40.23.4-3,.35-6.29,1.66-8.85,4.12-8,5.81-16.66,7.74-25.24a110.38,110.38,0,0,0,.86-44.93c-1.37-7.41-5-13.41-9.7-18.93a69.86,69.86,0,0,0-7.75-8C962.62,866,955.59,860.42,945.67,856.74Zm80.87-141.14c-6.68.44-12.66.91-18.66,1.21A207.8,207.8,0,0,1,945,710.14c-18.07-4.68-35.35-11.33-50.13-23.42-12.86-10.51-21.66-22.89-21.31-40.23.06-3.17-1-5.38-4.33-6-8.82,14.31-7.23,30.35,1.37,43.29,7.2,10.82,17.16,18.93,28.47,25.26,19.51,10.92,40.66,17,62.6,20.54,18.93,3.08,38,2.66,57.1,2.29,3.16-.06,6.3-.93,9.77-1.47C1027.86,725.35,1027.27,721,1026.54,715.6Zm274.27,730.15c-.19-.3.14.31.55.88,3.36,4.73,3.38,4.73-.06,8.81-.75.89-1.56,1.72-2.37,2.55-18.61,18.87-36.9,38.06-56,56.47-9.07,8.76-12.87,19.38-15.33,31.14a22.2,22.2,0,0,0,4.43-4.09c11.05-12.86,21.84-26,33.19-38.57,18.77-20.82,39.8-39.08,64-53.39,3.38-2,4.58-4,4.54-7.58-.13-10.69,0-21.39-.26-32.07-.18-7-1-13.9-4.22-20.26-2.8-1.86-5.41-1.44-8.51-.35-7.2,2.54-12.23,7.49-16.4,13.47a10.8,10.8,0,0,0-1.6,5.71c-.17,8.6.1,17.21-.16,25.8C1302.56,1437.84,1301.55,1441.37,1300.81,1445.75ZM1023.89,701.11l-.12-2c-11-.53-22.22,2.36-33.16-1.42,10.66-3.59,22.3.12,33.29-4.07-1.1-8.45-2.16-16.56-3.44-26.36-4.28,4.45-7.71,7.32-10.26,10.82-3.63,5-7.65,5.18-13.25,3.6-29.26-8.24-58.63-16.08-88-24-2.26-.61-4.57-1.07-8.23-1.92,1.55,2.64,2.16,3.85,2.91,5,5.49,8.1,13,13.92,21.52,18.38,6.13,3.22,12.74,5.54,19.13,8.27,2,.84,4.56,1,4.42,4.65-1.37-.07-2.6.18-3.55-.23-8.52-3.63-17.38-6.71-25.39-11.27-8.91-5.07-16.88-11.82-21.45-21.35-2.48-5.18-6.14-6.77-11.46-6.73,3.15,9.34,8.44,16.24,16.74,22.91,14.09,11.34,30.57,17.42,47.79,21.73,19.74,4.93,39.88,6.35,60.17,5.58C1015.69,702.44,1019.78,701.62,1023.89,701.11Zm5.2,34.85a11.2,11.2,0,0,0-2.29-.63c-5.12.18-10.23.39-15.34.6-32.63,1.33-64.57-2.28-95.12-14.34-10.79-4.26-21.23-9.35-30.52-16.61a109.33,109.33,0,0,1-22.27-23.7c-.13,4.45.17,8.77.46,13.08.72,10.81,4.8,19.52,14.55,25.3a203,203,0,0,0,52,21.45c30.23,8,61.1,8.78,92.1,7.58,2.39-.1,4.75-1,7.43-1.52C1029.72,743,1029.41,739.56,1029.09,736ZM679.56,1158.29c0,9.36-.18,17.71.14,26a10.07,10.07,0,0,0,2.87,5.92c7.59,7.85,15.13,15.78,23.24,23.06,6.27,5.62,13.59,9.94,21.86,15.22-.25-12.31,2-23.19-3.43-33.51a28.51,28.51,0,0,1-3.2-14.79c.17-3.7-.35-7.44-.19-11.14a14.83,14.83,0,0,0-3.18-9.66c-5.26-7.35-10.31-14.87-15.48-22.3-.67-1-1.53-1.77-2.72-3.13-.49,8-.92,15.15-1.35,22.37Zm1.35,35.86-1.37.54c0,6.39.09,12.78,0,19.17a21.63,21.63,0,0,0,2.43,10.67c4.55,8.89,8.61,18,13.23,26.87a28.91,28.91,0,0,1,3.48,14c-.07,7.87,0,15.75,0,23.21,7,2.67,11.37,2.69,21.94.36.19-5.35.2-10.88.68-16.37.2-2.4.67-5.45,2.23-6.94,4-3.84,4.58-8.31,4.36-13.35a126.92,126.92,0,0,1,0-13.23c.27-4.21-1.25-6.94-4.88-9.08-13.5-8-25.2-18.17-35.81-29.67C685.17,1198.17,683,1196.2,680.91,1194.15Zm325.79-678c0,3.76-.3,7,.06,10.18,1.35,12,2.87,24,4.4,36q7.33,57.74,14.72,115.47c4.39,34.81,8.66,69.64,13.06,104.45a55.31,55.31,0,0,0,1.92,7.21c6.34-3.5,6.44-3.63,5.8-8.69q-2.39-19-4.82-38-6-47.38-11.93-94.76-5.22-41.52-10.37-83c-1.75-14.28-3.29-28.6-4.89-42.9C1014.24,518.45,1012.87,517.28,1006.7,516.18Zm265.11,406.43c5.2.36,9.68-1.56,13.49-5.63,9.29-9.9,11.26-22.12,10.62-35a90.91,90.91,0,0,0-16.35-47.51c-8.5-12.4-18.78-23-33.6-28.11-7.3-2.5-15.48-2.07-20,1.29,6.61,2.27,6.56,2.3,12,9.23a15.79,15.79,0,0,0,3.75,3.06c20.27,13.77,32.29,33,37.1,56.79.54,2.68,1,4.88,3.78,6s3.25,3.92,3,6.47c-.55,6.23-1.41,12.42-2.13,18.63a8.16,8.16,0,0,1-5.09,6.93C1274.93,916.36,1273.12,919.19,1271.81,922.61ZM1059.68,781.74c-.86-4.32-1.78-7.86-2.26-11.47q-3.33-24.88-6.43-49.8-9.39-76.12-18.7-152.27c-.85-6.92-1.69-13.84-2.66-20.75-.81-5.86-2.06-7.25-8.09-8.71,0,2.44-.16,4.64,0,6.81.43,4.63,1,9.24,1.6,13.86q5.18,41.87,10.37,83.74,5.31,42.55,10.68,85.11,3.32,26.29,6.76,52.57c.25,1.85,1.11,3.61,2,6.42ZM917,1593.64c2.09,0,4.18,0,6.27,0a7.64,7.64,0,0,0,2-.49c2.84-.89,5.26-2.13,4.66-5.78a6.6,6.6,0,0,0-6-5.61c-2.55-.08-5.11.08-7.67.2a20.36,20.36,0,0,1-14.71-5.07,27.24,27.24,0,0,0-9.82-4.78,207.19,207.19,0,0,1-47.76-20.76,52.4,52.4,0,0,0-11.48-4.54c-3.13-1-6.07-1.61-8.36-4.42a6.6,6.6,0,0,0-9.72-1.08c-2.21,1.91-1.84,5.11,1,8.62a3.79,3.79,0,0,0,.47.51c4.35,3.83,8.39,8.11,13.12,11.4,17.5,12.18,37,20.26,57.29,26.42C896.26,1591.27,906.44,1593.61,917,1593.64Zm249.43-909.27c-3.52,10.11-9.26,17.51-15.71,24.15-12.79,13.19-28.25,22.7-45.28,29.32-7,2.73-12.76,6.21-16.82,12.59-2.11,3.33-4.81,6.28-7.15,9.46a35.32,35.32,0,0,0-2.12,3.76l.79,1.19c7.64-2.55,15.31-5,22.92-7.68,19.93-6.95,38.42-16.54,54-31,9.2-8.57,17.35-18.06,20.81-31.19Zm-30.87-101.91c2.45,6.14,4.18,10.92,6.28,15.54a9.87,9.87,0,0,0,3.59,4c11.16,7.07,22.35,14.1,33.69,20.89a55.21,55.21,0,0,0,11.89,5.48c7.74,2.42,15.66,4.26,23.51,6.34l9.15,2.39.9-1.18c-1.22-1.8-2.34-3.7-3.7-5.39-5.83-7.24-12.13-14.14-17.48-21.71s-11.81-12.73-21.26-13.87c-3.19-.38-6.28-1.61-9.42-2.43-3.62-.94-7-2.12-9.54-5.21-2.18-2.64-5.57-4.24-8.63-2.56s-5.76,1.09-8.66.38S1140.11,583.63,1135.54,582.46Zm16.14,740.77c-1.7,8.76-1.32,110.87.44,116.46,3.57-4.34,6.76-8.59,10.35-12.47a16.22,16.22,0,0,0,4.4-11.93c-.17-27.17-.06-54.34-.07-81.52,0-2-.23-4.06-.36-6.32Zm-143-904.69c14,4.38,27.38,6.76,41.44,3.69,4.06-.88,7.37-2.26,10.19-5.33,7.23-7.86,14.65-15.56,21.93-23.37a40.9,40.9,0,0,0,3-4.15c-2-.73-3.45-1.38-5-1.81-8.27-2.29-16.6-4.38-24.82-6.83-6.18-1.84-11.17-.53-15.58,4.18-9.54,10.17-19.23,20.18-28.83,30.29A30.44,30.44,0,0,0,1008.64,418.54Zm44.75,1038.62c.11-2.51.28-4.54.28-6.58q-.11-52.62-.26-105.24c0-.16-.22-.36-.39-.47a5.2,5.2,0,0,0-.92-.39,87,87,0,0,1-7.72,4.23c-5.1,2.18-7,5.61-6.89,11.33.31,23.24.07,46.48.1,69.71,0,17.23.06,17.23,14.18,27A10.8,10.8,0,0,0,1053.39,1457.16ZM1101,608.24l1.5-.55c-.09-25.49,1.71-51.08-4.25-76.7-7.26,14.63-10.43,17.49-37.17,33.62Zm115.35,98.14c-.75-.29-1.49-.64-2.26-.86-13.55-3.91-24.73-12-34.63-21.46-20.06-19.17-35-42.19-46.69-67.21-11.09-23.68-19-48.41-22.8-74.37-2.7-18.57-3.21-37.07,2-55.34,1.17-4.12,2.81-8.11,4.24-12.16-7.77,7.08-10.17,16.55-11.89,26.1-2.83,15.73-2,31.54.61,47.21a263.4,263.4,0,0,0,51.7,119c10.28,13.35,22.27,25,37.22,33.2C1200.78,704.24,1208,707.4,1216.38,706.38ZM921,385.45c2.55,4.12,3.93,8.22,8.27,9.89,6,2.32,12.07,4.68,18.2,6.78,1.81.61,3.91.38,6.73.6-1.69-8.1,3.47-12.12,7.72-16.67,2.81-3,5.52-6.11,8.65-9.6-1.58-.85-2.53-1.4-3.52-1.88-2.35-1.16-5.21-2.61-4.27-5.47a8.74,8.74,0,0,1,5.13-4.89c2.67-.79,5.81-.18,8.71.14,1.23.14,2.37,1.08,3.9,1.83l3.21-4.7-32.15-8.76ZM1188.06,701.9c-2.87,5.32-5.2,10.36-8.19,15a79.71,79.71,0,0,1-10.21,13.21c-14,13.9-30.49,24.32-48.56,32-15.59,6.64-31.59,12.24-48.39,15.19-4.49.79-8.3,2.54-9.72,8.16,2.73-.27,5-.31,7.26-.75,30.46-6.08,59.72-15.34,86.52-31.59,16-9.67,29.4-21.81,39.79-37.29,1.52-2.26,2.47-4.9,3.78-7.56Zm-30.39-235.24c23.77,10.13,39.38,28.87,53.18,49.58a233.2,233.2,0,0,1,22.39,43.28c11.83,29.67,19.54,60.23,17.46,92.46-.56,8.7-3.27,17.27-5.07,25.88-.39,1.85-1.11,3.63-2,6.52,7.57-6.72,11.61-21,12.37-33.06a183.08,183.08,0,0,0-4.65-55.45c-7.9-32.13-20.61-62.22-39.9-89.26-9.08-12.73-19.49-24.32-32.69-33.09C1172.36,469.27,1165.5,466.59,1157.67,466.66Zm-66.6,41.48c-9.54,1.54-16,7.19-22.07,13.37-5.69,5.8-11.17,11.83-16.66,17.84-2.3,2.53-4.38,5.25-6.85,8.23,3.61,3.92,7,7.46,10.17,11.1a4.21,4.21,0,0,0,5.62,1c11-5.57,22-11.3,28.87-22.24C1096,528.11,1097.24,518.52,1091.07,508.14Zm-202.66,6.71c-.37,3.47-.68,6.16-.93,8.86-.65,7-.47,7.4,6.16,9.22q33.86,9.3,67.75,18.44a30.52,30.52,0,0,0,4.92.46V536Zm43.2,992.61a38.24,38.24,0,0,0,5.06,1c8,.51,16.41-2.62,24.05,2.58,1.3.89,3.63.27,5.49.3,10.91.21,21.87-.15,32.73.72,16.1,1.29,32-.39,48-1.74a49.47,49.47,0,0,0,5.06-.94v-9.9c-2.4.13-4.42.2-6.43.34-10.18.69-20.38,2.14-30.55,2q-35.15-.63-70.25-2.69C938.11,1498.75,934,1500.44,931.61,1507.46Zm296.21-879.7c-1.14-1.58-2.08-3-3.17-4.39q-13.83-17.05-27.71-34.09c-6.16-7.57-12.17-15.27-18.49-22.7-5.25-6.18-11.27-11.72-16.15-18.16a68.41,68.41,0,0,1-10-17.31c-5.11-13.94-9.23-28.24-13.79-42.38-.49-1.53-.88-3.48-2-4.32a7.11,7.11,0,0,0-5-1.05c-.59.09-1.48,3-1,4.12,2.76,6.95,2.63,15.22,9.5,20.36,1.27,1,1.43,3.33,2.23,5,1.75,3.63.51,7.15.2,10.84s1.32,7.34,2.12,11c.09.44.29.86,0,0,4.41,3.67,8.41,6.18,11.36,9.6,8.5,9.85,16.59,20.06,24.77,30.18a36.23,36.23,0,0,1,2.72,4.55c-3.4,3.15-6.7,2.88-10.22,1.89q-12.72-3.57-25.5-7c-4.62-1.23-9.27-2.32-15.45-3.86,1.57,3.52,2,6.66,3.65,7.64,2.65,1.54,6.69,3,9.19,2.06,8.27-3.18,14.86.46,21.07,4.44,3.15,2,6.08,4,9.69,5,5.38,1.43,10.7,3.1,16.14,4.29a14.23,14.23,0,0,1,8.44,5.6c6.64,8.38,13.48,16.6,20.22,24.89C1222.36,626.17,1224,628.51,1227.82,627.76ZM1052,1086l-6.34.37c-12.3.68-24.58,1.81-36.88,1.91-16,.13-32.09-.62-48.13-.88-2.65,0-5.42-.7-7.76,1.88-.75.82-3.66.48-5.09-.27-5.07-2.65-10.45-3.14-16.17-3.56,2.26,7.3,6.31,11.42,14.13,10.72,2.51-.22,5.09.33,7.65.43,17.66.68,35.36.87,53,2.16,12.18.9,24.12-.74,36.16-1.41,3.18-.18,6.34-.71,9.45-1.07Zm286.09-156.12c.62-1,1.22-1.5,1.31-2.11,2.4-17,5.74-33.92,6.86-51,1.27-19.43.27-39,.87-58.49.2-6.78-3.75-9.43-9-13.79-.24,21.79.24,42-.87,62.07-1.12,20.28-3.81,40.48-5.85,61.1ZM1145.73,662.68,1035.88,542.94c-3.18,3.84-2.6,6.83-.59,9.66a55.46,55.46,0,0,0,4.58,5.26q47,51,94,102.16C1136.91,663.38,1139.94,664.72,1145.73,662.68ZM896.05,1510.24c-3.35-2-6.63-4.22-10.08-6.08-2.34-1.26-4.55-2.52-5-5.36-.5-3.52-2.92-5.12-5.81-6.29a112.42,112.42,0,0,0-11-4.21c-11.6-3.3-23.17-6.87-34.95-9.34-7.17-1.5-14.74-1.57-22.1-1.42-2.56,0-5.79,2.15-7.41,4.3a19.24,19.24,0,0,0-3.8,9.9C831.63,1487.06,863.46,1499.77,896.05,1510.24ZM880,648l-1.73.51a22.34,22.34,0,0,0,1.16,12,49.92,49.92,0,0,0,11.42,17.29c15.2,15.55,34.61,23.2,54.93,28.69,23.77,6.42,48.15,7.41,72.64,6a28.81,28.81,0,0,0,4.14-.56c3.46-.72,3.91-2.7,2-6h-6c-10.69.06-21.39.62-32,.1-25.82-1.25-50.67-6.72-73.35-19.61-13.35-7.59-24.78-17.3-30.22-32.45A56.5,56.5,0,0,0,880,648Zm325.83,36.76a56.25,56.25,0,0,0-6.39-29.26c-11.07-21.21-29.4-34.85-49.24-46.86-.86-.52-2-.61-4.06-1.23,4.11,7.4,5.83,14.64,12.26,19.43,13.48,10,24,22.55,29.19,38.81C1190.43,674.6,1197.88,678.64,1205.78,684.72ZM946.7,1037.45c-1.91.79-3.83,1.56-5.74,2.38-22.94,9.82-46.18,11.3-69.61,2-13.21-5.24-26.21-11-40.37-16.93a90.4,90.4,0,0,0,30.91,23.71c15.67,7.35,32.26,9.63,49.45,8.63C926.34,1056.39,938.41,1050.3,946.7,1037.45Zm196.36-587.26c-9.14-28.46-17.82-55.67-26.71-82.81-.69-2.1-2.95-3.68-4.79-5.89-4.42,4.49-7.84,8.65-11.94,12-5.58,4.52-5.76,10.31-5.7,17.6,5.29-5.24,9.79-9.71,15.16-15,1.2,3,2,4.77,2.65,6.63,4.81,14.81,9.39,29.69,14.46,44.4,2.22,6.45,3.57,12.48-.82,18.48-.17.24.15.84.16.92Zm91.55,175.56c3.47-2.31,2.63-4.87,1.51-7.58-2.12-5.13-4.64-10.18-6-15.52a21.11,21.11,0,0,0-4.09-8.57q-17.19-21-34.29-42.18c-1-1.23-1.72-2.67-3.41-5.33l-6,15Q1208.59,593.79,1234.61,625.75ZM706,1519.43c0-2.26.11-4.52,0-6.77-.23-3.67.16-7.63-1.1-10.92-2.32-6-5.58-11.74-8.62-17.49-.69-1.31-2-3-3.18-3.21-3.69-.68-5.54-3.23-7.25-6-5-8.1-10-16.2-14.86-24.43a20.1,20.1,0,0,1-2.54-7.14c-.79-5.51-1.22-11.08-1.59-16.64-.35-5.15-.43-10.31-.63-15.47C660.36,1454.08,672.87,1490.36,706,1519.43Zm103.8-467c.69,7.5,1.75,14,9.55,17.76s15.15,8.94,22.79,13.32a14,14,0,0,0,6.41,2.24c10.16.1,20.32-.18,30.1-.32l7.38-13.05C849.69,1072.09,844.11,1071.08,809.76,1052.4Zm435.77-14.13c-5.81,1.69-10.46,2.72-14.86,4.37-17.82,6.7-34.81,15.57-53.44,20.13-4.28,1-8.48,2.45-12.76,3.49-2.68.65-4.08,2.09-4,4.85.1,2,.29,3.92.46,6.32,2.33-.44,3.91-.64,5.44-1,14-3.61,27.74-7.75,40.94-13.66,12.5-5.59,24.94-11.33,37.58-16.6,7-2.93,8.91-8.66,10.55-16.14C1250.62,1032.41,1246.11,1033.63,1245.53,1038.27ZM1036.12,559.5c-1.33,7.39,1.06,11.73,5,15.9,17.38,18.47,34.54,37.14,51.82,55.72,10,10.73,20,21.41,30,32.12,2.49,2.65,5,4.84,9.69,1.35Zm181.44,131.12a100.07,100.07,0,0,0,10.68.85c1.92,0,4.39-.59,5.63-1.86a34.52,34.52,0,0,0,9.9-19.32c-5.76-3.79-11.13-8.73-17.45-11.07-5.9-2.17-10.58-5.5-15.27-9.19-3.54-2.79-7-5.71-10.46-8.57l-1.14,1C1209.89,656.44,1217.51,671.5,1217.56,690.62Zm35.2,754.29c-4.92,2.74-9,5.52-13.42,7.38-23.74,9.9-47.11,20.82-72.3,26.85-7.36,1.77-8.07,3.68-5.08,11.47,1-.35,2.13-.67,3.19-1,22.71-8.11,45.45-16.15,68.1-24.43,2.42-.89,4.31-3.18,6.49-4.76,1.6-1.16,3.53-3.42,4.87-3.13,5.54,1.2,8.15-2.86,12.16-5.23C1255.4,1449.6,1254.29,1447.62,1252.76,1444.91ZM886.55,510.38l77,20.9c.61-2.62,1.12-4.77,1.57-6.71l4-1.1c-29.05-9.17-58.24-17.22-88-23.63l4.81,2.92C886.13,505.36,886.3,507.43,886.55,510.38ZM735.36,910c-2.9,5-6.17,8.19-5.17,13.18,2.6,13,4.7,26,7.81,38.86,3.92,16.15,12.08,30.62,19.92,45.08,3.78,7,9.05,13.15,13.75,19.84,4.4-4.76,4.5-4.83.81-9.82-17.06-23-27.13-49-32.07-77C738.74,930.56,737.21,921,735.36,910Zm320.5-184.4c3-.47,5.13-.52,7.06-1.14,6.84-2.19,13.59-4.67,20.43-6.84a17.19,17.19,0,0,0,8.7-6.52c9.11-12,18.38-23.94,27.55-35.93,1.18-1.54,2.13-3.27,3.18-4.9l-1.32-1.23a83.16,83.16,0,0,1-29.2,26.75c-12,6.76-24.91,11-38.44,15.16C1054.48,715.65,1055.11,720.16,1055.86,725.56Zm92.06-58.28c-5.58-.13-8.69,1.15-11.38,4.74-9.87,13.2-20.06,26.16-30.13,39.21q-21,27.32-42.11,54.6c-2.63,3.38-4.18,6.66-1,11.33ZM939.13,1585c1.18-4.67-.72-7.43-3-9.65-4.49-4.36-8.93-8.94-14.06-12.43A222.1,222.1,0,0,0,841.68,1529c-8.08-1.68-16.6-1.41-24.93-1.77-3.57-.15-6.21,1.31-5.91,5.69C841.63,1528,914.58,1554.78,939.13,1585ZM1138.51,537.85c-1.1,3.91-1.45,6.24-2.42,8.28a28.19,28.19,0,0,1-3.89,5.68c-4.89,5.88-3.16,12,4.18,14.07,10.92,3.06,21.88,6,32.84,9,1.39.37,2.87.41,5.85.81-9-11-16.9-21-25.34-30.5C1147.14,542.21,1143,540.67,1138.51,537.85ZM880.6,635.77l88.91,24.1v-8.63l-88.51-24C880.85,630.31,880.75,632.56,880.6,635.77Zm152.7,143.45c0-.73-.1-1.46-.16-2.2-6.41.29-12.83.64-19.24.85-24.69.8-49.25-.38-73.58-5-23.83-4.48-46.93-11.15-68.56-22.4-17.1-8.9-32.44-20-43.92-35.74-2.29-3.15-4.45-6.39-6.66-9.59a15.58,15.58,0,0,0,2.47,8.64,99.69,99.69,0,0,0,20,22.16c9.86,7.93,20.68,14,32,19.6,24.05,11.93,49.7,18.19,75.92,22.19,22.78,3.47,45.86,3.65,68.89,2.89C1024.75,780.52,1029,779.72,1033.3,779.22ZM763,1038.93c-5.42-1.63-8.61-6.29-14.35-3.84-1,.42-3.2-1.41-4.55-2.55-3.51-2.94-6.6-6.45-10.33-9-14.43-10.08-29.76-19-41.59-32.39-.33-.38-1.18-.31-2-.5-.61,3.48-1.1,6.68,1.63,9.3,6,5.77,11.6,12.12,18.19,17.15,9.94,7.58,20.47,14.44,31,21.21,5.18,3.33,10.92,5.76,16.68,8.74ZM878.21,641.41a20.7,20.7,0,0,0,11.59,7.16q48.42,13,96.81,26.28c2.18.6,4.42,1,7.4,1.63-2.83-4.22-6.32-5.67-10.16-6.76-3.32-.94-6.59-2.13-9.81-3.39-2.78-1.08-5.36-2.8-8.2-3.58-25.07-6.9-50.16-13.74-75.3-20.36C887,641.45,883.12,641.76,878.21,641.41Zm374.07,844,2.07,1.78a39.18,39.18,0,0,1,3.62-5.14c11-11.39,21.82-22.92,33.19-33.91,5.74-5.56,9.15-11.37,8-19.58-.58-4.17-.35-8.46-.51-13.34-5.61,3.56-8.14,7.63-8.62,13.15a12.39,12.39,0,0,1-2.08,5.76c-4,5.7-7.9,11.53-12.54,16.69C1266,1461.3,1259.59,1473.63,1252.28,1485.41Zm-561.64-82c-1.63,4.8-.45,7.94,2.41,11.27,13.42,15.62,31.29,25.37,47.83,36.87,1,.71,2.79,1.29,3.76.88,3-1.25,4.89.42,7,1.79,2.65,1.73,5.26,3.52,9.18,6.15-1.91-5.72-2.52-10-7.4-12.48-22.12-11.47-43-24.79-60.49-42.83A19.72,19.72,0,0,0,690.64,1403.45ZM991.42,593.17c.14-1.9.32-3.27.32-4.64q0-28.62,0-57.23c0-6.57-.1-6.57-8.29-7.17-.12,2-.35,4-.35,6q0,27.23,0,54.44C983.13,591.73,983.16,591.73,991.42,593.17ZM905.55,835.41l0,.55c12.62,4.61,25.34,9,37.83,13.93a121.91,121.91,0,0,1,18.56,9.39c5.76,3.53,11,8,16.9,12.31-3.34-8.77-6.4-16.91-14.61-21.9-10.05-6.1-20.67-10.64-32.35-12.11C923.12,836.48,914.32,836.11,905.55,835.41Zm94.59-426.57L958.6,397.63c-.64,3.37-1.1,5.81-1.61,8.48l-7.23,1.6,58.41,15.86C1001,421.21,1001,414.92,1000.14,408.84Zm102.93,81.25c-.45-2.52-.4-5.28-1.44-7.54-5.21-11.41-3.88-22.14,2.64-32.54,1.11-1.77,1.88-3.76,3-5.48,2.29-3.39,2.42-6.72.93-10.55-2.5-6.49-5.06-13.07-2.58-20.27.24-.7-.38-1.69-.65-2.71-5.17,12.73-12.4,24.33-10.84,39.08C1095.63,463.78,1094.14,477.86,1103.07,490.09Zm11.86,171.2a24.57,24.57,0,0,0-2.1,2.28A69.56,69.56,0,0,1,1084,687.93c-9,4.15-18.37,7.55-27.62,11.15-4,1.55-4,1.47-1.89,6.94a65.1,65.1,0,0,0,7.23-1.6c10.54-3.55,20.91-7.45,30.53-13.22s18.06-12.83,24.47-22.23C1118.84,665.79,1118.94,663.59,1114.93,661.29Zm223.57,782.4c3.85-3.39,8.37-4.49,8.36-9.31,0-12.29.1-24.61-.65-36.86-.28-4.51-1.4-9.65-6.3-12.65-1.6,1.14-3.06,2.18-4.45,3.19C1339.45,1406.17,1336.66,1424.34,1338.5,1443.69ZM1127.18,548.6l2.17,1.58a20.54,20.54,0,0,0,2.29-4.17c2.57-9.15,5.15-18.32,7.31-27.58.38-1.61-1.14-5.25-2-5.3-4.1-.26-3.9-3.56-4.84-5.91-1.65-4.13-3-8.37-4.47-12.57C1122.66,512.9,1123.72,530.77,1127.18,548.6ZM654,1218.77v47.88h8.27V1215.8ZM859.79,706l1.38-.59c-3.55-16.35-1.29-33-2.35-50.68-5.17,5.84-9.49,10.8-12.26,17-2.23,5-2.63,9.87.41,14.62C851.18,693,855.51,699.49,859.79,706ZM662.14,1049.5V999.09c-1.87,0-3.25-.08-4.61,0-1.11.09-2.2.41-3.58.67v48ZM992.38,461.27c-2.11-.72-4.21-1.56-6.37-2.15-16.6-4.49-33.21-8.91-49.8-13.38-9.2-2.48-18.37-5-27.55-7.56-2.87-.78-5.54-1.07-6.84,3,1.79.63,3.45,1.34,5.18,1.82q19.82,5.46,39.66,10.85c13,3.52,26.05,6.94,39,10.51C988.61,465.15,991.22,466,992.38,461.27Zm-114.47,1027c-.74-1.37-1-3-1.93-3.4-20.64-10-40.81-21.73-65.86-17.68l-1.39,5.23C832.94,1473.36,854.78,1482.06,877.91,1488.25Zm387.33-553,0-1.66a54.48,54.48,0,0,1-28.75-13.24c-25-22-37.75-49.53-37.5-83,0-1.62,0-3.24,0-4.86a10.3,10.3,0,0,0-1.73,5.46,62.57,62.57,0,0,0-.35,7q1.47,46.74,36.42,77.84a50.36,50.36,0,0,0,25.37,12.39A40.25,40.25,0,0,0,1265.24,935.27ZM665,926.36v-46.1l-7.73.34c-1.77,8.71-1.28,41.64.7,46.75ZM992.28,470.17c-5.07,14.78-10,29.11-15.11,44l9.46,1.88c5.07-14.74,10.42-28.66,14.7-43.5Zm-98.41-26.66-9.41-2.44-15.1,43.76,9.56,1.83Zm343.3,389.93c18.66,10,27.73,26.2,30.75,46.19l5.91-.86c0-17.18-17.29-47.09-35-53.62C1238.3,827.79,1237.78,830.41,1237.17,833.44Zm-580.43,526.2v46l8.28-.45v-45.54Zm404.55-596.07,71.31-92.83c-5-.27-6.71,2.74-8.62,5.21q-16.85,21.74-33.62,43.54-13.6,17.65-27.19,35.31C1061.47,757,1059,759.19,1061.29,763.57Zm103.46-245.34c-4.36-14.49-9-29.15-14.33-44.54-2.08,2.68-3.61,4.19-4.55,6-.76,1.49-1.51,3.56-1.07,5,4.15,13.45,8.55,26.81,13.08,40.79Zm-138.38,647.86v50.52c7-1.81,7.17-1.81,7.22-7.52.11-13,.09-26,.06-39a30.66,30.66,0,0,0-.57-4.16c-1.37-.13-2.51-.33-3.65-.32A22.23,22.23,0,0,0,1026.37,1166.09Zm216,341.17,1.7,1.11c18.67-18.88,38-37.11,56.55-58.14-2.57-.49-4-1.12-5.19-.87-1,.19-1.74,1.44-2.55,2.27-14.59,14.91-29.29,29.72-43.68,44.83C1246.27,1499.48,1244.56,1503.63,1242.32,1507.26Zm-209.08-74.1c.19-2,.42-3.32.43-4.68,0-12.73,0-25.46-.07-38.2,0-6.32-.17-6.32-7.36-7.24v50.5Zm146.22-726.39-.82-.36c-2.78,3.69-5.64,7.32-8.32,11.09-7.81,11-18.34,19.06-29.58,26-11.42,7.11-23.36,13.39-36.34,17.35-8.64,2.63-17.25,5.35-25.9,7.93-2,.61-4.29.67-5.49,3.83a40.47,40.47,0,0,0,4.72-.72c8.89-2.59,17.85-5,26.63-7.93,21.57-7.24,41.47-17.65,58.09-33.39,5.67-5.37,10.16-12,15-18.25C1178.57,710.87,1178.8,708.66,1179.46,706.77Zm51,196.36a88.57,88.57,0,0,0,16.46,14.48c5.19,3.64,9.89,3.06,14.86.31a19.44,19.44,0,0,0,10-13l-6.73-6.45C1253.85,911.18,1248.77,911.83,1230.41,903.13Zm-387.09-236c2.19-2.85,3.7-4.89,5.29-6.88,3-3.79,5.68-8,9.26-11.22,7.43-6.64,9.39-14.62,8-24.3C852,633.22,840.87,653.69,843.32,667.08Zm262.7-16c-7.42,16.24-18.91,26.93-33.85,34-5.64,2.65-11.6,4.61-17.36,7-1,.42-1.68,1.59-3,2.94,18.08-1.33,52.5-19,59.6-37.85ZM668.57,1120.49c-1.76-12.79-3.46-25.07-5.15-37.26h-9.21c1.74,13.08,3.4,25.61,5.1,38.39,1.94,0,3.33.1,4.69,0A41.53,41.53,0,0,0,668.57,1120.49Zm646.88-148.56c-8.84,14-19.21,26-34.34,32.66l11.72,7.26c1.53-.83,5.29-1.57,6.52-3.75,5.56-9.84,10.49-20,15.42-30.23C1315.59,976.18,1315.25,973.93,1315.45,971.93ZM651.13,838.67c1.75,13,3.37,25,5.06,37.62l9.33-.62c-1.79-12.77-3.49-24.84-5.19-37Zm323.2-209.62,1.31.31c.71-2.17,2-4.32,2-6.49.08-6.47-1.22-13-.38-19.38,2-14.77,1.91-29.57,1.93-44.39q0-10.1,0-20.2c0-4.42-.06-8.83-.1-13.24,0-2.93-.63-5.45-4.26-6.36-.69,3.25-1.18,5.93,1.29,8.62a9.26,9.26,0,0,1,2.11,5.64,185.84,185.84,0,0,1-.32,20.85c-.8,8.72-3.11,17.35-3.42,26.06C973.92,596.65,974.33,612.85,974.33,629.05Zm259.5,29.78,1.83-.9c-1.94-6.62,2.53-14.69-4.93-20.56-3.73,4.71-3.74,4.74-8.84,3.43-7.35-1.89-14.69-3.84-22-5.76l-.42.83Zm-56.06,481.94v49.11l5.53.33v-50.78Zm5.58,215.68c-4.31,1.7-6.1,3.94-6.07,7.71.11,14.13.1,28.26.17,42.4,0,.36.47.73,1,1.53l4.88-1.34ZM978.93,633.61v31.06l8.59,1.91c0-9.93.1-19.1-.12-28.26,0-1.17-1.53-2.71-2.73-3.34C983.11,634.17,981.16,634.1,978.93,633.61Zm362,346.07c9-9.89,8.11-21.28,7.24-32.91l-4.62,4.16c-1.08-2.61-1.91-4.59-3.07-7.39-1.76,5.64-3.32,10.43-4.69,15.28a6.62,6.62,0,0,0,.25,3.34C1337.58,967.92,1339.22,973.65,1340.92,979.68ZM1108.45,725.55c20-6.75,30.25-20.14,26.76-35.1ZM1005.7,995.68c0-3.86-.07-7.51,0-11.15.08-3.32-1.71-4.6-4.7-4.64-3.87,0-7.73,0-11.95,0v14.6C994.3,997,999.55,995.94,1005.7,995.68ZM1139.77,703.8c5.76-5.84,11.68-11.58,14.45-19.77,1.77-5.2.83-9.32-2.45-13.87-5.58,5.94-10.86,11.21-10.48,19.94C1141.49,694.63,1140.32,699.23,1139.77,703.8Zm-479.91,130c1.57-8.56,1.19-25.72-.57-30.24-5.84,4.1-7.42,5.46-7.5,8.36-.2,7.33-.07,14.67-.07,22.47Zm.43,605.73v-29.28h-8.66c0,5.19.4,10.27-.1,15.26C650.84,1432.22,653.45,1436.57,660.29,1439.51ZM875.4,495.65v64.21a148.46,148.46,0,0,0,3.49-21c.22-1.83.48-3.67.56-5.51q.52-12.81.95-25.62a4.68,4.68,0,0,0-.39-2C878.5,502.28,876.92,498.93,875.4,495.65ZM668.77,1157.42h-8.26V1185l8.26-.68ZM1058.57,744c4.42-1.7,8.38-2.1,10.53-4.28,4.8-4.85,8.7-10.6,14-17.32l-26.57,8.21C1057.17,734.65,1057.77,738.65,1058.57,744Zm-14.09-369.72c14.08,2.84,27.4,8,41.29,10.34,2.14-5.05-.8-5.93-3.87-6.76-9.8-2.64-19.58-5.39-29.42-7.89-2.54-.64-5.27-.51-8-.73ZM668.73,1124.82l-8.64,1.62c-.08,9.1-.29,17.58.12,26.54l8.52-.56ZM1105.53,386c-3.82,2-2.77,4.28-2.08,6.48,1.46,4.65,2.92,9.31,4.46,13.93,1.4,4.21,2.17,8.22,1.24,12.88-1.43,7.14,2.8,11.87,11.27,13.11ZM665,1339.82v-26.08l-8.18,1.31V1341Zm-8.18-393.56v26.15l8.16-1.45V945.09Zm-3.31,105.61c.27,9.59-.56,18,.59,26.88l8.23-.68V1054Zm664.16-69.14c-4.22,8-8.11,15.41-12,22.8a35.29,35.29,0,0,0-1.36,3.54l7.36,2.37,13.82-26.32ZM952.36,348.9c10.84,3,20.85,5.76,30.87,8.51,3.36.92,6.38,1.09,7.53-4.1l-38.4-10.53Zm219.43,874.46c-1.79-3.56-3.35-3.86-5.79-1.77-9.19,7.83-18.52,15.5-27.76,23.27a28.76,28.76,0,0,0-2.7,3c1.59,3.28,3.42,2.91,5.6,1.08C1151.28,1240.42,1161.45,1232,1171.79,1223.36Zm-517.88-8.56,8.31-3.55V1189.6h-8.31Zm533.75-233.06-32.43,27,2.82,4.21c9.28-7.72,17.66-14.67,26-21.65,1.79-1.49,3.56-3,5.22-4.62C1191.38,984.68,1190.8,983.1,1187.66,981.74ZM735.77,1546c1.52-15.75,4.21-30.62,10.26-44.81a6.41,6.41,0,0,0-2.85,1.88c-8.31,10.66-10.67,23.43-12.82,36.27C729.76,1542.92,731.58,1545,735.77,1546Zm612.67-231.34c-4.65,7.56-5.93,11.82-6.75,19.09-1.71,15-3.61,29.89-5.38,44.84a34,34,0,0,0,.24,4.44c3-4.32,2.84-8,3.34-11.54,1.31-9.15,1.57-18.63,4.31-27.33C1347.19,1334.67,1347.34,1325.24,1348.44,1314.63Zm-10.1-380.29-8.63-2.76c-1.93,8.21-3.69,15.72-5.55,23.61l8.39,2.35C1334.55,949.54,1336.36,942.28,1338.34,934.34ZM665.55,1309.91c-.82-7.6-1.56-14.53-2.35-21.87l-9.05.56c.72,7.44,1.38,14.22,2.06,21.31Zm473.89-856.16c-3.27-.91-6.11-2-9-2.4-1.59-.21-4,.25-4.9,1.35-3.28,4.12-5.59,8.76-4.61,13.37l13.15-.63C1135.62,462,1137.35,458.3,1139.44,453.75Zm95.45,528.14,18.45-8.27-25.93-7C1228.12,972.3,1229.94,977.28,1234.89,981.89Zm-27.3-128.49,1.35.31c1.26-8.34,4.75-15.36,11.84-20.09l-5-10.25c-6.15,2.22-7.94,6.76-8.15,12.08C1207.42,841.42,1207.59,847.41,1207.59,853.4ZM989,1601.4v8.9a28.12,28.12,0,0,0,16.2,1.4v-10.3Zm50.75-1228.66c-.94.3-1.51.3-1.79.59-10.59,11.08-21.2,22.14-31.67,33.35-1,1-.94,2.93-1.38,4.42l1.33.56c11-11.63,22-23.24,32.85-35C1039.84,375.92,1039.57,374.24,1039.79,372.74ZM842.48,1088.36c-9.83-5.87-19.32-11.56-28.83-17.21-2.22-1.31-3.78-.66-5.2,2.16,9.76,5.86,19.23,11.58,28.74,17.24C839.05,1091.65,840.74,1091.37,842.48,1088.36ZM985.84,616.68l7.36,2v-20.3l-7.36-1.68ZM876,635.4V605.61l-5-.91c0,9.4,0,18.2,0,27C870.9,635,872.18,636.51,876,635.4Zm154.78-196.56c-1.62,16-1,39.15,1.82,44.48,1.91-14.61.9-27.88.87-41.1C1033.43,441.44,1032.24,440.66,1030.74,438.84Zm-237.38,610.5c3.13-1.88,4.35-3.37,2.16-5.52-5.72-5.62-11.48-11.21-17.7-17.26l-4,3.68Zm416.25-106.65-11.14,4.18,3.46,13.78c7.6-2.72,7.6-2.72,7.67-9.77C1209.63,948.6,1209.61,946.31,1209.61,942.69ZM651.51,1144v6.79c0,9.5,0,19,0,28.5,0,2.43-.34,5.28,4.28,4.85C654.94,1170.63,658,1157,651.51,1144Zm456.64-681.8,12.54-24.63-5.4-.95c-2.59,5.3-4.87,10.05-7.21,14.77-1.13,2.27-2.5,4.44-3.48,6.77C1103.48,460.84,1104.86,462,1108.15,462.22Zm58.71,85.4c1.08,1.47,2,2.82,3,4s2.35,2.52,3.65,3.88c7.52-13.77,6.17-14.66-1.25-20.56Zm66,269.23c-4.41-2-8.06-2.43-11.94.42.85,3.7,1.69,7.4,2.62,11.47l10.2-1.88c0-1.73.11-3.09,0-4.43C1233.55,820.62,1233.18,818.83,1232.87,816.85Zm40.17,67c-4.06,9.08-5.29,9.16,7.13,17.43.46-5.15.89-9.8,1.31-14.41Zm-101.45,302.44,1.37.08c.63-5.1.3-10.29.38-15.43s.18-10.2,0-15.29.84-10.33-1.72-15.19ZM1023.41,483.92c3-6.35,2.84-35.23,1.49-38.58l-8.39,5.66c5.6.84,6.06,3.64,6.13,6.9C1022.82,466.57,1023.15,475.25,1023.41,483.92Zm149.43,875.93c-2.28,8.49-1.95,38.91,0,44Zm-17.68-343.41c-1.57,9.19-1.11,38.41.67,42.39C1157.35,1049.67,1156.9,1021.26,1155.16,1016.44ZM662.21,1271.65H654v12.41l8.25-.56Zm492.67,267.55c2.25-7.52,2.19-38,0-44.94ZM662,994.65V982.7h-8v11.95Zm658.12-30.22c-.37,5.53-.66,10-1,14.54l7.5,1.89c.51-4.79,1-9,1.48-13.75Zm28.07,397.87c-4.38,3.64-4.76,8.42-5.15,13.17-.55,6.73-.51,6.73,5.15,11.59ZM1010,983.39l.84-.14c-.25-2.84-.5-5.68-.81-9.15l-25.53-1.24c-.34,4.09-.59,7.22-.85,10.36l.76.11,1.33-6.45h22.89C1009.16,979.53,1009.57,981.46,1010,983.39Zm159.41,441.28c-4.87,6-9,11-13,16-1.94,2.43-.64,3.74,2,4.67a24.13,24.13,0,0,0,2.42-2.26c3.81-4.66,7.56-9.37,11.85-14.7ZM1059.45,438.29c2.69,1,5,2.89,7.66.81V425.16C1059.92,428.18,1059.92,428.18,1059.45,438.29ZM655.31,1137.54c.91-13.07-.6-28.48-3.77-38.63C652,1112.08,649.78,1124.41,655.31,1137.54Zm1.49-206.35v10H665v-10Zm544.94,646.25c8.51-1.72,9.35-3.25,6.73-12.2C1200.4,1567.2,1200,1567.89,1201.74,1577.44ZM656.92,1344.53v10.13h7.93v-10.13Zm600.13-417.37c20.38,7.86,37.49-4.28,40.31-22.22C1289.5,922.62,1279.82,930.65,1257.05,927.16Zm-15.47-293.74c1.6-4.74,6.59-8.39,3.9-14.07a30.12,30.12,0,0,0-9.36-11.27C1240.84,616,1242,624.48,1241.58,633.42ZM1039,1244.21c5.47,5.09,30.14,15.14,36,15.08Zm206.77-442.56c-14-5.79-31.38-1.06-36,13.86C1218.5,802.44,1230.71,798.5,1245.75,801.65ZM1122.09,621.14c-1-9.21-7.66-10.85-14.48-13.27C1109.52,612.79,1112,615,1122.09,621.14Zm-401.73,283c-2.27,8.9-1.81,12.45,1.61,15,1.54-3.5,3.07-7,4.78-10.91Zm296.74,109a4.87,4.87,0,0,0-.49,1.16c0,.14.23.42.42.5q16.2,6.93,32.44,13.79c.17.07.58-.43,1.48-1.13Zm174.44,543.09c-2.56,7.31-2.29,21.29,0,24.8Zm21.6-867.56c.64-7.73-2.8-21.26-6.42-26,1.06,4.77,1.77,9.07,3,13.2C1210.9,679.76,1208.46,684.53,1213.14,688.66Zm42.26,190.11c.19,9.76-1.67,18.51-12,23.43C1253.34,903.12,1257.18,895.27,1255.4,878.77Zm-379,212.37c-7.5-2.15-25.31-1.42-30.14,1.07,5.84,0,10.85.14,15.84,0C866.9,1092,871.66,1091.5,876.43,1091.14ZM1134,1254.08v24.1C1136.19,1272.15,1136.08,1260.22,1134,1254.08Zm57.82-310,1.24,1,20-8.43c-4.35-1.5-10.41.08-18.59,4.5C1193.3,941.72,1192.64,943.08,1191.78,944.07ZM1165.14,540c6.2-11,6.39-12.37,3-15.62l-6.2,11.86Zm25.14,436.34c2.34-10,2-18.05,0-22.64Zm-56.44,333.59,1.64-.09c.11-7.61.54-15.22-1.64-22.76Zm-433.79-14.25h-.66v46.26h.66Zm454.81,178.11c2.42-7.57,2.21-19.06,0-23.67Zm16.85-280.85v22.32C1173.94,1208.76,1173.78,1198.13,1171.71,1192.94ZM652.38,1360.12l-.34-.24v42.61h.34Zm566.69-491.31c.36,7.27,2.92,12.05,7.22,16.83C1226.41,878.18,1225.22,875.34,1219.07,868.81Zm-519,210.56-.67.3v42.76h.67ZM733.23,908c-2.54-6.72-11.77-12.51-16.16-10.85Zm423.08,174.24-1.44-.15v21.58h1.36A166.56,166.56,0,0,0,1156.31,1082.19ZM1055.8,454.53l8.64-9.48C1055.72,441.88,1055,442.59,1055.8,454.53Zm117.14,875.55h-1.78v6.84c0,2.06,0,4.13,0,6.2s.28,4.11.43,6.16C1173.6,1342.79,1173.58,1336.43,1172.94,1330.08ZM1143.7,474.89c3.26-3.88,5.14-8,3-14.25C1143.92,465.87,1141.58,469.87,1143.7,474.89Zm147.83,543.9,1.25,1.25,13-5.78c-5.94-2.51-9.43.3-13.09,1.94C1292.06,1016.49,1291.91,1017.9,1291.53,1018.79ZM1144.87,456.72c-6.57,4.49-9.6,15.56-5.88,21.53C1138,470.05,1139.54,462.9,1144.87,456.72ZM652,907.79l.31-.22V877.91H652Zm152.41,147.63c-2.37,4.6-.3,8.53,2.11,13.6C809.11,1063.18,806.6,1059.33,804.44,1055.42Zm433.08-69.29,4.07,4.27c2.12-2.92,3.82-5.27,5.53-7.61l-.8-1Zm110.17-84.66q-1.65,10.38-3.32,20.76C1347.66,915.58,1348.15,908.58,1347.69,901.47ZM1246.45,637.88l-1.6.14q.4,7.15.8,14.29C1247.55,647.44,1248,642.63,1246.45,637.88ZM652.32,946.73l-.32-.28V972h.32ZM917,1069.21c-7.49-.42-14.31,1.7-19.1,5.43Zm323.66-407.75,1.61-.13-1.66-18.87-1.15.09ZM984.76,332.85c1-3.42-.22-5.67-2.67-5.82-1.57-.09-3.28,2-6.11,3.94Zm79,21.14c.18-3.09-.15-5.18-2.64-5.59s-4,1.19-5,4.27ZM722.56,1537.86c-.36-4.31,1.54-7.78-2.66-11C719.21,1531,717.76,1534.15,722.56,1537.86Zm385.1-946.36c-1.21,5.27,1.84,6,5.31,6.76C1111.67,593.36,1111.67,593.36,1107.66,591.5Zm-2.1-110.83c3-5.16,2-8.19-2.94-8.84C1103.61,474.81,1104.5,477.47,1105.56,480.67ZM980.34,629.06c6.63,2.61,6.63,2.61,9.13.59C984.37,626.81,984.28,626.8,980.34,629.06ZM1327,1377.89l-6.76,4.69,7.31,1.91C1327.31,1382.15,1327.18,1380.49,1327,1377.89ZM973.85,533.44l-.6.11v16.18h.6ZM1023.28,495c3.36-2.54,6-4.46,7.82-9.05C1026.42,488.07,1023.65,489.89,1023.28,495ZM1171.63,1133c2.21-6.19,2.21-6.19,0-9.42Zm-.14,287.84c1.88-2.92,2.47-5.77,0-9.61ZM970.94,569.58l.72,0v-5.7l-.72,0Zm-318.63,740h-.21v11.57h.21Zm502.51-235.37,1.72-.14c-.14-2.23-.29-4.47-.43-6.7l-1.29.08Zm1.34,406.7c-1.7,4.28-1.7,4.28.44,7.12C1156.42,1485.11,1156.29,1483,1156.16,1480.87Zm-441-570.25-1.27-.07v5.05l.81,0C714.86,914,715,912.29,715.16,910.62Zm539.77-196.31c.22-.29.45-.58.68-.86l-6-4.85-.7.89Zm-587.14,300-.83.36a22.76,22.76,0,0,0,.1,4.75c.15.74,1.33,1.28,2,1.91l.74-.71C669.16,1018.48,668.47,1016.38,667.79,1014.27Zm264.41,580c4-1.35,4-1.35,2.29-5.43C933.72,1590.62,933,1592.45,932.2,1594.24ZM663.49,977.56l-.21-2-6.72.77.18,1.59ZM807,1544l1.76.3.92-5.54-1.32-.28Q807.67,1541.2,807,1544Zm38.44.94-1,1.52,6.46,4.29.76-1.12ZM1044.9,427l.64,1.5c2.26-1.65,5.54.56,8-3.19Zm302.74,371-1.42.22c-.3,2-1.33,4.2,2.25,6.41C1348.13,801.82,1347.88,799.9,1347.64,798Zm-633.77,732.2.72,0v-3.86l-.72,0ZM1329,962.79c.15-.63.3-1.26.46-1.89l-6.22-1.33c-.1.46-.2.91-.31,1.37Zm-308.8-436.67c-.95,2.7-1.92,5.7,3.05,4.21ZM912.39,1577.74l.69-2-5.84-1.5c-.16.58-.33,1.16-.5,1.74Zm-109.84-527.6-1.49-1.34-2.72,3.15,1.22,1.13Zm539-257.57-1-.06-.33,6.28.89.05Zm-317.3-365.63-.06.51,6,.27,0-.78Zm101.86,206.83-.75.75,3.94,4.17.75-.74ZM659.33,790.93h-.2v4h.2Zm215-193.75c-.69,1.25-1.08,1.94-1.47,2.64a7.18,7.18,0,0,0,2.13.88c.33,0,1.12-.94,1-1.24A9.51,9.51,0,0,0,874.37,597.18Zm224.91-203.83-.84.78,1.86,4,.75-.34ZM654.9,795.6l-1.54-.31c-.07,1-.15,2.07-.15,3.11a3.12,3.12,0,0,0,.87.23C654.39,797.63,654.64,796.61,654.9,795.6Zm604.16-77.48-.83.26c0,.43-.23,1.08,0,1.24a8.3,8.3,0,0,0,1.8.86ZM831.79,1542.38l.66-1.15L829,1540l-.35,1ZM785.07,658.6l-1.06-1-1.63,2.31c.36.21,1,.66,1,.58A20.06,20.06,0,0,0,785.07,658.6Zm395.27,940.91-1-.94-2.5,2.65.55.55Z"/><path class="cls-1" d="M769.33,1330.93c5.49,4.39,9.82,7.87,9.64,15-.36,14.12-.09,28.26-.13,42.39,0,2-.26,4.08-.4,6.18-3.54,1.34-6.18-.52-8.71-1.78a5.11,5.11,0,0,1-2.06-3.9c0-18.07.22-36.13.42-54.2C768.1,1333.78,768.64,1332.93,769.33,1330.93Zm4.1,59.38c.74-1.15,1.72-2,1.72-2.78.07-14.65.07-29.31-.1-44,0-1.23-1.4-2.44-2.59-4.4C770.78,1351.41,771.38,1385,773.43,1390.31Z"/><path class="cls-1" d="M910.78,1156.3l11.69,1.55c.74,20.49.69,40.12,0,60.15-5.51-.35-8.64-3.55-12.46-6.06C910,1193.67,909.4,1175.4,910.78,1156.3Zm6.08,56.25,1.72-.78a34.12,34.12,0,0,0,.49-4q.09-20.54.09-41.08a25.82,25.82,0,0,0-.09-2.78c-.32-3-2.16-3-4.88-2.05,0,15.27-.08,30.56.12,45.85C914.33,1209.33,916,1210.93,916.86,1212.55Z"/><path class="cls-1" d="M922.36,1373.39v60.11L911,1432.05c-.28-2.77-.73-5.22-.74-7.67-.08-13.44-.19-26.88,0-40.32C910.4,1374.42,911.73,1373.37,922.36,1373.39Zm-3.59,4.75c-5-.26-4.59,2.63-4.59,5.1q0,16.65,0,33.31c0,3.23,0,6.48.12,9.71.16,3,1.92,3.17,4.48,2Z"/><path class="cls-1" d="M767.62,1115.8c4,1.55,6.49,2.18,8.58,3.43a5.37,5.37,0,0,1,2.45,3.69c.16,17.56.1,35.11.1,53.33l-10.57.61C767,1156.58,767.4,1137,767.62,1115.8Zm4.35,56.94,1.85.48c.49-1.5,1.35-3,1.41-4.51.19-4.88.09-9.76.09-14.64,0-9.06,0-18.13-.05-27.19,0-2,.24-4.42-3.3-4.2Z"/><path class="cls-1" d="M1003.64,1405.34l7.41.64c.31,5,.6,9.76.92,15.09h-8.33Z"/><path class="cls-1" d="M1003.73,1179.49h7.38v15.24h-7.38Z"/><path class="cls-1" d="M802.57,1096.11c6.92.09,7.49.39,7.76,5.5a63.88,63.88,0,0,1-.64,8.58c-7.29-.94-7.49-1.07-7.59-6.83C802.06,1100.93,802.4,1098.5,802.57,1096.11Z"/><path class="cls-1" d="M873.7,1115.63c7.16-.13,7.62.22,8,5.44a17.39,17.39,0,0,1,0,3.46c-.16,1.36-.51,2.69-.93,4.72l-7-.59Z"/><path class="cls-1" d="M873.32,1447.64c7.48,0,8.28.59,8.42,6.54a55.88,55.88,0,0,1-.56,6.67c-6.89.91-7.47.54-7.83-5.18C873.19,1453.19,873.32,1450.69,873.32,1447.64Z"/><path class="cls-1" d="M713.77,1115.84c-3.7-.54-5.55-2.48-5.4-6.39.13-3.62,0-7.25,0-11.07C716,1100,717.6,1106.06,713.77,1115.84Z"/><path class="cls-1" d="M713.83,1342.22c-5.8-2.34-6.75-5.86-4.68-17.32C715.93,1326.11,717.66,1332.52,713.83,1342.22Z"/><path class="cls-1" d="M802.45,1428c8.36,1,9.55,3.68,6.92,13.51-6.4.58-7.08.12-7.26-5.56C802,1433.48,802.31,1431,802.45,1428Z"/><path class="cls-1" d="M1027.77,856.56c-.49,9-5.59,14.15-13.75,13.84-8.45-.32-14.38-6.74-13.84-15a13.87,13.87,0,0,1,14.57-12.78C1022.68,842.94,1028.19,848.83,1027.77,856.56Zm-8.41,9.07c-4.41-3.37-4.41-3.37-6.1.57Zm-13.86-3.14c2.34-4.1,2.34-4.1-.92-7.15C1004.92,858,1005.14,859.68,1005.5,862.49Zm17.75-3.31-2.52-5.45C1018.18,857.31,1020.29,857.88,1023.25,859.18Z"/><path class="cls-1" d="M1138.6,848.79a14.47,14.47,0,0,1-14.69-14.38c-.15-7.35,4.78-12.67,11.77-12.7,7.94,0,14.73,7.08,14.71,15.39C1150.37,844.12,1145.75,848.7,1138.6,848.79Zm1.34-4.07c-2.19-2.39-2.19-2.39-4.66,0Zm-10.86-8.62-1,.66,1.87,2.47a8.65,8.65,0,0,0,.91-.81C1130.31,837.61,1129.69,836.86,1129.08,836.1Z"/><path class="cls-1" d="M797.84,792.23c-.16,6.48-5.36,13.2-11.57,15-6.48,1.85-11.67-1.87-12-8.57-.26-6,5.46-14.25,11.21-16.21C792.77,779.93,798,784.13,797.84,792.23Zm-19.25,5.68,9.27-12.38C782.34,788.27,778.91,791.93,778.59,797.91Z"/><path class="cls-1" d="M736.57,740.34c0-2.77-.62-5.43.12-7.64,2.08-6.19,6.64-10.65,12.15-13.79,5-2.87,8.06-.54,7.6,5.26C755.75,732.8,745.83,741.36,736.57,740.34ZM744.63,727,745.7,728l2.3-2.1-1.08-1.08ZM742,732.54l-.85-.25-1.26,3.81,1,.31C741.26,735.12,741.63,733.83,742,732.54Z"/><path class="cls-1" d="M1272,1095.57c0,5.69,0,10.77,0,15.84,0,11.15-.34,22.31,0,33.45.16,6.58-3.15,10.72-8.31,15.12-.55-2.11-1.22-3.53-1.25-5-.27-17.19-.5-34.38-.59-51.57C1261.79,1098.59,1263.17,1097.59,1272,1095.57Zm-5.52,54.64c2.44-6.4,2.49-42.18,0-48.6Z"/><path class="cls-1" d="M1263.82,1374.34c-2.19-5.65-3.2-43-1.51-59.42h9.1c.16,2.36.45,4.6.46,6.85,0,14,.05,27.9,0,41.86C1271.81,1371.12,1271.45,1371.49,1263.82,1374.34Zm2.53-7,1.31,0a24.32,24.32,0,0,0,.56-3.85q-.17-22.18-.45-44.36c0-.09-.34-.22-.54-.27a5.62,5.62,0,0,0-.88,0Z"/><path class="cls-1" d="M1337.81,1299.33c-.29-2.77-.64-4.53-.65-6.3,0-15.28-.1-30.57.07-45.85a49.82,49.82,0,0,1,1.65-10.23c.24-1.06,1.45-1.9,3.09-3.92a48.73,48.73,0,0,1,1,6.35c.06,16.9,0,33.81,0,50.72C1343,1293.6,1342.73,1297,1337.81,1299.33Z"/><path class="cls-1" d="M1337.72,1079.48a39.89,39.89,0,0,1-.54-4.72q-.06-23,0-45.89c0-3.76.61-7.28,4.13-10.42.69,1.54,1.62,2.66,1.62,3.78q.15,26.41,0,52.84C1342.93,1078.87,1342.68,1078.87,1337.72,1079.48Z"/><path class="cls-1" d="M1202.83,1145.71c0,4.26.22,7.92,0,11.54-.34,4.36-.52,4.35-6.13,5.16C1193,1152.51,1194.58,1147.16,1202.83,1145.71Z"/><path class="cls-1" d="M1195.14,1388.8c0-3.77-.18-7,0-10.15.39-5.45.53-5.47,7.29-6.26,1.29,4.46.78,9,0,13.45C1201.86,1389.16,1199.21,1389.15,1195.14,1388.8Z"/><path class="cls-1" d="M1327.05,1353.49c-3.38-6.27-2.78-11.19,1.81-14.88C1331.89,1344.68,1331.25,1349.91,1327.05,1353.49Z"/><path class="cls-1" d="M1289.13,1391.19c-2.09-10-1.57-11.9,3.83-14.75C1295.78,1384.84,1295,1388.42,1289.13,1391.19Z"/><path class="cls-1" d="M1330.15,1006.42c0,5.27,2.39,10.8-2.83,15.24C1323.54,1015.22,1324.8,1008.35,1330.15,1006.42Z"/><path class="cls-1" d="M1293,1043.41c2.69,10.22,1.93,13-3.68,15.08C1287.21,1051.32,1287.63,1049.39,1293,1043.41Z"/><path class="cls-1" d="M877.41,854.64c28.08-.81,52.68,15.84,63.45,41,14,32.66,8.37,63-14.91,89.5-18.77,21.34-42.88,29.84-71,24-22.52-4.65-38.54-18.63-47.56-39.32-12.73-29.18-9.13-57.64,9.46-83.19C831.51,866.57,851.7,854.87,877.41,854.64Zm32.33,132.92c5.39-2,11-7.35,13.36-11.95-3.46,3.18-8.33,7.66-13.18,12.14l-9.3,6C904.63,992.93,908.07,991.38,909.74,987.56Zm12.81-20.68a23.17,23.17,0,0,0,3.16-3.52c11.22-19.39,13.57-39.89,6.49-61.08-6.18-18.5-18.81-31.84-37.19-38-23.79-8-45.33-2.22-64,14.39-23.77,21.18-31.35,58.9-16.45,86.74,7.93,14.82,19.52,25.62,35.71,30.2,23.06,6.53,43.72.75,61.49-15,4.4-3.89,9.27-7.83,11-14Zm-31.91,31.28.77.91,3.06-1.84-.47-.81Zm-18.54,8.47v.22H875v-.22Z"/><path class="cls-1" d="M1012.42,646.81c3.36,5.44,3.05,11.05-.8,14.72a4.34,4.34,0,0,1-3.54,1.09,4.6,4.6,0,0,1-2.21-3C1004.69,654.55,1006.83,650.36,1012.42,646.81Z"/><path class="cls-1" d="M1068.67,1626.72c1.68-1.63,3-3.68,4.81-4.53,9.38-4.32,19.24-6.74,29.65-6,1.33.1,2.58,1.4,3.88,2.15-.83,1.25-1.37,3.06-2.54,3.67-10.46,5.51-21.52,8.36-33.44,6.56C1070.45,1628.51,1070,1627.78,1068.67,1626.72Zm30.53-6.23c-7.35.5-14.74.63-21.15,4.79a139.4,139.4,0,0,0,16.12-3A46.48,46.48,0,0,0,1099.2,1620.49Z"/><path class="cls-1" d="M985.25,697.93c-8.72,1.5-10.58,1.2-15.34-2.27C975.19,694,979.69,693.8,985.25,697.93Z"/><path class="cls-1" d="M964.62,694.93c-5.27,1.82-9.37.08-13.81-2.22C955,690,959.94,690.79,964.62,694.93Z"/><path class="cls-1" d="M1049.14,396.21c-5.66-.07-9.38-2.5-9.37-5.8,0-2.91,4.33-6,8.93-6.11a9,9,0,0,1,4.66.73c2.25,1.34,5.56,2.32,5.23,5.74-.35,3.62-3.47,4.54-6.5,5.15A23.1,23.1,0,0,1,1049.14,396.21Z"/><path class="cls-1" d="M922.8,966.64c-2.7,2.8-5.43,5.58-8.1,8.42-17.34,18.39-38.52,24.43-62.83,18.53-16-3.89-27.62-14.34-35.23-28.62-16.26-30.54-6.74-69.32,21.41-89.6,15.41-11.11,32.39-15,50.84-10.49,21.67,5.34,35.78,19.4,42.22,40.45,6,19.53,3.73,38.6-6.46,56.54a43.58,43.58,0,0,0-2.11,5Zm-28.93-7.32c-4.9,3.87-10.75,4.76-16.51,3.79s-11-3.21-16.56-4.9c0,.54-.18,1.14,0,1.34,7.72,7.21,23.06,8.47,31.71,2.52.72-.5.82-1.9,1.26-2.82,5.35.58,6.4-4.33,9.19-7Zm16.71-33.83-.47,5.92.48,0v-5.92c-.49-1.79-.9-3.6-1.48-5.36-7.13-21.37-27.85-24.5-42.74-15.24a35.85,35.85,0,0,0-13.56,44.7,46,46,0,0,0,3.81,6l1.34-.69a14.25,14.25,0,0,0-.57-3c-3-7.05-8-13.89-2-21.8.22-.29-.45-1.16-.56-1.79-.22-1.29-.74-2.69-.46-3.88,2.32-9.67,14.16-19.71,24.14-20.62,13.48-1.23,23.12,4,28.43,15.45C908,921.4,909.36,923.39,910.58,925.49Zm-9.21,7.58c.16-6.59-2.33-12.62-6.56-16.25-2.35-2-4.56-2.57-7.58-1-9.87,5-17.83,11.22-16.69,23.9a15.67,15.67,0,0,1-.31,2.77c-.7,7.51,3.24,11.88,10.84,12C892,954.69,901.09,945.06,901.37,933.07Zm-22.48-65c-28.82-3.65-57.38,18.53-64.56,49.65-5.86,25.39,4,52.35,19.8,60.69-8.26-10.65-12.32-22.36-13.71-35.09-.42-3.82.4-8-3.28-10.93-.62-.49-.48-2.18-.37-3.28a64.61,64.61,0,0,1,6-22.1c.57-1.18,1.54-3,2.4-3.06,4.35-.23,5.61-3.8,7.57-6.5,11-15.1,25.11-25.29,43.77-28.59A16.79,16.79,0,0,0,878.89,868.08ZM912,910.68c8.28,23,3.71,41.64-15.59,56.21,1.8,3.41,3.39,6.39,5,9.39C928,961.22,934,922.62,920.48,904.79Zm-9.37-24.56c-21.33-13.45-55-2.75-66,22.75l9.05,4.48c5.88-9,12.79-15.72,22.45-19s19.14-2.27,28.72,1.25Zm-72,47.91c-5.48,27.57,24.91,55.12,45.21,48.73v-10c-23.17-2.62-33.93-17-36.18-39.39Zm80.24-29.15,10.45-7.65c-4.5-4.66-8.4-8.71-12.67-13.15l-6.85,11Zm-18,66.25-13.24,4.25c.43,4.08.83,7.89,1.24,11.7,9-1.07,10.95-1.77,16.81-6C896.12,978,894.56,974.74,892.82,971.13ZM839.25,914.8l-9.43-4.9c-3.49,5.72-5.63,11.36-4.74,18.54l10.28.62C836.64,924.35,837.79,920.17,839.25,914.8Zm36,74.24L857,985.84C862.68,988.93,868.56,991.22,875.29,989Zm5.06-113.89.27.71,3.79-.39Z"/></svg>