<svg id="Layer_1" data-name="Layer 1" xmlns="http://www.w3.org/2000/svg" viewBox="0 0 2000 2000"><defs><style>.cls-1{fill:#1d1d1b;}</style></defs><path class="cls-1" d="M678.27,557.42c.9-3.18,1.66-5.85,2.7-9.49,4.77-6.91,10.09-14.67,15.44-22.4l30.8-44.4q17.63-25.41,35.24-50.83,13.51-19.49,27-39a11.44,11.44,0,0,0,2.26-6.69c0-1.77.19-3.54.29-5.36l3-1c.21-.33.58-.66.58-1,0-7.39,0-14.79,0-22.44l-3.23-1.7c-1-1.76-.41-3.81-.61-5.77-.22-2.19-.48-4.38-.56-6.58-.07-2,.08-4,.14-6.15,13.25-14,26.52-27.85,40.71-41.36,2-.08,4.16-.24,6.34-.25q32.16-.12,64.3-.21c2.59,0,5.17-.18,7.88-.27a58.24,58.24,0,0,0,1.37-9.72c.24-2.92-1.1-5.92.38-9.07a32.46,32.46,0,0,1,3.4-.68c1.39-.13,2.8-.08,4.2-.1,21.24-.18,42.47-.33,63.7-.57,14.42-.16,28.84-.49,43.26-.69,4-.05,8,.09,12,.11a25.17,25.17,0,0,1,23,15.65q4.72,10.38,9.41,20.77,19.55,43.51,39.09,87c4.18,9.3,8.33,18.62,12.35,27.61,6.43,5.33,12.61,10.42,18.75,15.55a45,45,0,0,1,3.43,3.34c.83.87,1.52,1.87,2.36,2.72A120,120,0,0,1,1166.21,470c1.76,3.13,3.36,6.36,4.92,9.6a109.51,109.51,0,0,1,9,29.76,105.79,105.79,0,0,1,.42,27.54c-.13,1.39-.27,2.77-.43,4.46,2.37,3.06,4.74,6.28,7.28,9.36q26.94,32.67,53.95,65.32t53.75,65.48c17.93,21.82,35.79,43.7,53.87,65.4A45.25,45.25,0,0,1,1359.26,772c1.1,10.55,2.52,21.07,3.83,31.59a9,9,0,0,0,.74,1.9H1375l4.41,5.23c.74,1.9.3,4.29.21,6.92l-4,4.19-10,1.53c-.31,5.23-.31,5.23,1.43,9.81h9.28l5.06,4.19v7.89l-3.61,3.83c-3,1.39-6.11.09-8.67,2.05-.93,2.83-.15,5.75-.13,8.77,3.33,1.47,6.66.26,10.74,1.5l3.41,3.91.79,5.76c-.75,2.22-2.34,3.72-4.35,5.5l-8.76,1.34c-1.32,3.1.19,6.1.37,9.19,3.32,1.38,6.66.29,10.59,1.59l3.52,3.41c.2,2.68.37,4.85.53,7.09l-4,4.68-9.09,1.23c-.75,3.24-.29,6.32.39,9.69h8c8.41,5.35,8.86,10.14,1.8,16.49-1.39.11-3,.17-4.56.38-1.34.18-2.66.54-4.23.86.27,3.24.51,6.18.76,9.29,3.13,1.25,6.46.06,10.17,1.27l4,3.6v7.45l-3,4-9.47,1.55a15.69,15.69,0,0,0,.54,9.24c3,1.2,6.08.35,9.74,1.28l4.3,3.84c.19,2.4.37,4.57.55,7-1.51,1.59-3,3.16-4.45,4.65l-8,1.17c-1.21,3.31.31,6.26.54,9.53l8.16.45,4.7,3.75c.37,2.19.74,4.34,1.06,6.24-.67,2.81-2.67,4.24-4.35,6.17l-8.06.61a13.4,13.4,0,0,0-.47,2.69c.06,2.38.27,4.75.44,7.34,2.85,1,5.74.16,8.94,1.1l3.73,3.21v7.91l-4,4.17-7.09,1.36c-1.12,2.93-.7,6-.27,9.41l7.85,1.15,3.44,4.22v7.32q-1.71,1.85-3.65,3.9l-7.35,1.21c-1.17,3-.6,6.18-.46,9.27,2.17,1.78,4.77.8,7.77,1.8l3.71,2.85v8.68l-4.67,3.57-5.94.75c-1.52,3.18-1.05,6.34-.88,9.61,2.26,1.48,4.88.22,7.43.82l4.09,4.41v8.37l-4.8,3.68-6.34.63c-1,3.34-.61,6.62-.28,10.16l7.13.68,4.24,4v7.35l-3.65,3.89-7,1.15c-1.2,3.46-1.2,3.46-.64,9.47,2,1.64,4.61.64,7.53,1.69l3.82,3.65v7.68l-3.78,4.08-7.93,1.18a30.12,30.12,0,0,0-.12,9.19l8.23,1.68c1,1,2.18,2.35,3.56,3.86v7.85l-3.8,3.54-7.56.55c-1.31,3.25-.57,6.55-.48,10.18l7.62.78c1.2,1.12,2.64,2.47,4.2,4v8.58l-4.17,3.65-7.3.49a21.84,21.84,0,0,0-.17,9.66l8,1.34,3.51,4c.62,2.42.12,4.76-.28,7.27-1.2,1.25-2.43,2.55-3.76,4l-7.4,1.23c-.18,1.44-.37,3-.55,4.52s-.33,3.14-.48,4.61c1.92,2,4.4.74,6.9,1.82l3.36,3.66v7.37l-4.06,4.28-7.14,1.47a26.07,26.07,0,0,0-.62,9.13l5.92.9,4.23,4.43v7.26l-4.54,4.24-6.67.76a22.22,22.22,0,0,0-1.07,8.64c1.68,2.28,4.29,1.27,7.29,3l2.71,2.74a15.57,15.57,0,0,1-.11,8.43l-3.68,3.31-6.29,1.17a20.64,20.64,0,0,0-1,9.69l6.1,1.38,3.86,4.74c-.34,2.45-.64,4.61-1,6.89l-3.89,3.69-5.83,1.22c-1.45,1.35-1,3-1.13,4.58s0,2.79,0,4.47c3.61.94,7.52,1.64,9.27,7v5.25c-1.06,2.2-2.78,3.54-4.89,4.9l-6,.64c-.18,1.64-.4,3.18-.48,4.73s0,3.13,0,4.92l5.83,1.42,3.5,3.86v7.75l-3.9,4-6.4.83a31.6,31.6,0,0,0-1.07,9.45l6.18,1.39,2.8,3.8v6.57c-2.32,4.38-6.1,5.57-10.25,6.27-.48,2.93-.93,5.67-1.43,8.75l5.14,1.59,3.91,5c-.2,1.5-.34,2.68-.52,3.85-.15,1-.36,2-.57,3.05-1.51,1.29-3,2.57-4.32,3.66l-5.84.87c-.32,3.15-.62,6.08-.94,9.22l4.62,1.55c4.76,4.87,4.77,4.9,2.76,12.22-2.36,2.76-5.63,3.6-9.06,4-1.88,2.85-1.14,5.92-1.67,8.82a30.85,30.85,0,0,1,4.92,2.53,33.84,33.84,0,0,1,3.84,4.08c-.16,2.15-.33,4.31-.51,6.56l-4.87,4.6-6,.7c-.83,2.81-1.6,5.45-2.44,8.29a13.16,13.16,0,0,1-3.61.48c-7.26-1.09-14.68-1.18-21.83-3.07-1.16-4.07-.55-7.87-.14-11.6,1.87-17.11,3.87-34.2,5.88-51.29.87-7.36,1.88-14.69,2.82-22,.12-1,.23-2,.3-3,1-14.38,1.84-28.77,2.87-43.15,1-13.38,2-26.75,3-40.12q.7-9.29,1.32-18.58c1-14.18,1.84-28.37,2.85-42.55,1-13.38,2.09-26.74,3.07-40.12.27-3.59.38-7.2.39-10.81q.09-40.26.11-80.53c0-41.06.09-82.13-.16-123.19-.07-10.79-1.21-21.58-1.91-32.37-.42-6.39-1-12.77-1.42-19.16-.57-8.39-1-16.79-1.63-25.18-1-14-2.08-28-3.11-41.93q-.67-9-1.29-18c-.56-8.39-1-16.79-1.64-25.18-1.14-15.17-2.18-30.35-3.65-45.49-1.1-11.35-2.86-22.63-4.25-34s-2.69-22.66-4.06-34c-.33-2.78-.79-5.55-1.28-8.92-26.26-32-52.8-64.3-79.4-96.61-26.45-32.13-52.87-64.29-79.44-96.94-3.67,5.93-6,11.9-10.14,16.83-4,4.75-7.64,9.81-12.34,13.91s-9.73,8.31-14.89,12.71a14.59,14.59,0,0,0,1.36,2c2.29,2.52,4.65,5,7,7.47a18.87,18.87,0,0,1,2.41,2.66,21.16,21.16,0,0,1,1.41,3.5l23.77.33c7,5.07,12.75,10.9,16.51,18.35,2.25,4.46,4.16,9.11,6.91,13.27,5.63,8.51,10.23,17.64,16.1,26,4.83,6.9,9.86,13.61,15.17,20.14,14.19,17.46,30.14,33.2,46.73,48.34a16.81,16.81,0,0,0,1.38,1.15,53.19,53.19,0,0,1,5.73,4.3c3.14,3.07,6,6.41,9.07,9.68a34.22,34.22,0,0,1,.5,3.56c.47,12.42,2.4,24.69,3.87,37a51.23,51.23,0,0,0,1.49,7c3.38,12.78,5.65,25.79,8.09,38.77a167.77,167.77,0,0,0,5.11,19.11c1,3.21,2.86,6.15,4.49,9.55,1.19,6.15,1,12.77,1.16,19.38a56.65,56.65,0,0,0,1,10.12,64.24,64.24,0,0,1,1.13,10.73c.2,6.4.17,12.82.17,19.23q0,196.51,0,393c0,6.21,0,12.42-.17,18.63a73.86,73.86,0,0,1-1.15,11.32,64.15,64.15,0,0,0-1,10.14c-.18,5.2-.5,10.4-.67,15.6a16.26,16.26,0,0,1-2.69,8.47,31.17,31.17,0,0,0-3.38,8.29,254,254,0,0,0-6.61,29.85c-1.43,8.07-3.47,16-5.33,24a131.14,131.14,0,0,0-2.93,17.75c-.94,10-2.07,19.89-3.19,30.41a95.27,95.27,0,0,1-13,13.34c-20.77,18-40.18,37.37-57.16,59C1210,1596,1204,1604,1199.42,1613a70.71,70.71,0,0,1-4,6c-3.46,5.38-7,10.71-9.41,16.7a19.68,19.68,0,0,1-7.61,9.33c-.43,1.34-.9,2.85-1.43,4.52l-7.75,7.83-24,.28a33.71,33.71,0,0,1-2.1,4.16,23.07,23.07,0,0,1-2.89,3c-3.52,3.55-7.06,7.09-10.82,10.86l-28.26.88c-.35,2.11-.66,4-1,6.45a302.47,302.47,0,0,1-21.55,21.6c-7.62.16-15.41.48-23.21.48q-75.12.08-150.24,0c-14.22,0-28.45,0-42.67,0-7.2,0-14.4-.32-21.68-.5a300.33,300.33,0,0,1-22.22-22.06c-.22-1.78-.44-3.54-.69-5.59-2.95-1.09-6-.48-8.89-.63-3.2-.16-6.4-.24-9.6-.34l-9.13-.28c-6.14-5.4-12.12-10.94-17.28-18.06l-22.81-.32c-3.32-3.35-7.21-5.93-9.29-10.24a17.83,17.83,0,0,0-2.27-2.78,56.76,56.76,0,0,1-6.28-10.18c-2.41-5-5.43-9.77-8.29-14.58-1.63-2.75-3.57-5.31-5.16-8.08a187.32,187.32,0,0,0-15.15-22.34,347.63,347.63,0,0,0-22.67-26.44A433.1,433.1,0,0,0,649,1531.93a147.16,147.16,0,0,1-16.42-16.34c-.16-1.88-.3-4.06-.53-6.24-1.22-11.34-2.17-22.72-3.79-34-1-6.71-3.08-13.24-4.47-19.9-1.71-8.22-3-16.53-4.83-24.73-1.5-6.83-3.41-13.58-5.25-20.33a14.91,14.91,0,0,0-2-4.33,21.48,21.48,0,0,1-3.37-11.36c-.16-3-.28-6-.33-9a96.92,96.92,0,0,0-1.49-17.34,33,33,0,0,1-.47-6q-.15-9.92-.16-19.83,0-197.73,0-395.44c0-5.41.09-10.82.07-16.23a97.21,97.21,0,0,1,1.16-14.35c.54-3.75.63-7.57.84-11.36.17-3.2.22-6.41.35-9.61a23.92,23.92,0,0,1,3.11-11.46c1.84-3.13,2.8-6.61,3.87-10.06,3.15-10.16,4.65-20.67,6.75-31.06,1.7-8.42,3.74-16.78,5.49-25.2.85-4.11,1.55-8.27,2-12.43,1-9.75,1.91-19.53,2.85-29.29.06-.59.22-1.18.42-2.25,4-4.73,8.12-9.86,13.83-13.43a23.45,23.45,0,0,0,3.25-2.66c15.68-14.34,30.7-29.31,44.32-45.66,7.33-8.78,14-18,20.38-27.48a14.19,14.19,0,0,0,1.32-2c3.68-8,9.48-14.83,13.42-22.71,1.06-2.14,1.87-4.42,3.05-6.48a94.31,94.31,0,0,1,5.76-9.1c3.22-4.35,7.28-7.94,11.29-11.79l24.07-.35a19.27,19.27,0,0,1,1.45-3.37,22.89,22.89,0,0,1,2.81-3.11c4.08-4.11,8.19-8.2,12.44-12.45L817.1,613c1.84-1.76.67-4,2.22-7,6-7.06,14.12-13.9,22-21.48l10.21-.44c1.34-3.3.57-6.62.52-10.14-3.14-1.17-6.35-1.23-9.48-1.49-12.57-1-25.16-1.86-37.73-2.87-12.38-1-24.74-2.12-37.11-3.12-7.18-.59-14.38-1-21.57-1.57-7.38-.59-14.75-1.29-22.13-1.92q-8.68-.74-17.36-1.4c-6.79-.51-13.59-.93-20.37-1.5a34.71,34.71,0,0,1-5.87-1.11C679.72,558.73,679.15,558.05,678.27,557.42Zm469.58-17.64-.16-.18a7.62,7.62,0,0,0,.84,2.2q5.28,6.53,10.69,12.94c.18.21.73.1,1.11.14,2.2-4.89,4.05-13.28,3.73-18a14.08,14.08,0,0,0-1.28-4.54c-1.75-4-3.68-8-5.49-12-9.82-21.86-19.64-43.73-29.2-65.05-6.69-8.28-15.65-12.66-23.57-18.37-.83-.6-1.91-1.4-3.31-.78a7.38,7.38,0,0,0,.33,1.67q11.3,25.15,22.63,50.29,10.92,24.33,21.79,48.69A23,23,0,0,0,1147.85,539.78ZM996,896.12c-2.56,6.47-3,13-5.84,18.57a11.94,11.94,0,0,1-1.87.91q-18,4.81-35.91,9.59a19.93,19.93,0,0,1-10.67-.09c-11.17-3.07-22.38-6-33.56-9.08a36.74,36.74,0,0,1-4.2-1.67c-1-3.42-1.77-6.52-2.74-9.57s-.85-6.39-3.31-8.95h-4.37c-.56.84-.93,1.32-1.22,1.83q-13,22.65-26,45.29a33.82,33.82,0,0,1-2.21,3l-30.93.41L795,984.57c-2.8.14-5.59.27-8.38.42s-5.59.31-8.39.51-5.55-.51-8.14.52c-.72,5-.87,56.55-.2,64.11,1.5.95,3.14,2,4.84,3.06,7.06,4.19,14.14,8.33,21.18,12.53,1.17.69,2.2,1.6,3.44,2.51,0,1.93,0,3.72,0,5.52.08,6,.23,12,.24,18a10.92,10.92,0,0,0,2.13,6.7c2.7,3.73,5.2,7.59,7.79,11.4.09,2.09.24,4.08.25,6.08q.12,23.13.19,46.25c0,3.81-.26,7.62-.16,11.42a15.55,15.55,0,0,1-3.27,10.63c-1.38,1.71-2.44,3.67-3.82,5.38a13.78,13.78,0,0,0-3.16,9.41c.13,5.81-.1,11.62-.21,17.42,0,1.78-.18,3.56-.28,5.44-1.82,1.11-3.5,2.17-5.21,3.18-6.72,4-13.46,7.89-20.17,11.87-1.35.8-2.58,1.79-3.64,2.53-.79,7-.7,59.09.12,64.22,8,.73,16.24-.16,24.21.88,13.8,12.5,25.73,26.61,39.4,39.07,5.33,0,10.53-.1,15.73,0s10.36-.49,15.51.54c9.77,16.69,19,33.5,28.59,49.74,2.43.52,4,0,5.39-1.53,2.42-5.63,2.6-12,5.56-17.8,14.2-4.2,28.53-7.72,42.58-11.63l43,11.49c2.76,6,3.13,12.62,6,18.74l4.6,1.2c1.4-2.23,2.7-4.22,3.9-6.27q11.94-20.49,23.85-41c.69-1.18,1.57-2.25,2.49-3.54h31.21c13.93-13,26.83-26.73,40.67-39.24,8.39-.61,16.57-.14,25.07-.67.07-1.71.17-3.06.18-4.42q0-8.11,0-16.22c0-12.62,0-25.24-.07-37.85,0-2.16.45-4.44-1.24-6.68L1098,1222.05c-1-9.45-.61-18.66-.82-27.37a12.48,12.48,0,0,0-.7-1.55c-1.84-2.62-3.7-5.23-5.54-7.84-4.09-5.8-4.17-5.8-4.23-12.66q-.2-21.33-.22-42.65c0-5.21.24-10.41.24-15.62a13.09,13.09,0,0,1,2.86-8.32c2.68-3.48,5.11-7.14,7.51-10.53.41-9.5-.12-18.69.52-27.76,10.21-6.19,20.56-11.43,30.19-17.46a17.25,17.25,0,0,0,.32-2.15q0-29.75,0-59.48a16.7,16.7,0,0,0-.59-3c-4.41-.07-8.61,0-12.79-.23-4.38-.21-8.75-.64-13.11-1-2.25-2.17-4.42-4.24-6.55-6.35-9-8.87-17.9-17.77-26.91-26.6-2-1.94-4.22-3.62-6.24-5.34-5.54,0-10.75.14-16,0s-10.37.4-15.44-.67c-.88-1.33-1.72-2.46-2.42-3.66q-7-11.92-13.86-23.88c-3.91-6.74-7.81-13.5-11.76-20.23a17.9,17.9,0,0,0-1.91-2.28ZM877,663.32c3,.58,5.68-.61,8.38-2,3-1.52,6.16-2.87,9.24-4.31,2-.92,3.92-2,6-2.77a156.38,156.38,0,0,1,42.11-8.91c2.19-.15,4.36-.58,6.54-.72a42,42,0,0,1,5.38.06c2,.13,4,.44,6,.65,5.17.56,10.38.89,15.51,1.69,18.87,2.93,36.16,10.38,52.36,20,10.8,6.44,21,14.07,29,24a38.82,38.82,0,0,0,3.33,3.46c7.17,6.91,11.48,15.85,17,23.92a7.52,7.52,0,0,1,.65,1.68c1.9,5.05,3.83,10.09,5.68,15.16a17.47,17.47,0,0,1,1,4.07c.62,6.17,1.78,12.29,1.42,18.54a16,16,0,0,0,.52,3.15h160c2.6,0,5.21,0,7.81-.06.86,0,2,.39,2.65-1.1-2.87-2.65-5.83-5.31-8.7-8-13.93-13.3-27.1-27.26-38.63-42.73-7.55-10.13-14.72-20.45-19.73-32.13a7.75,7.75,0,0,0-1.12-2.11c-3.38-3.87-4.89-8.66-6.69-13.3A103.71,103.71,0,0,1,1178.3,646l-3.28-3q-215.62,0-432,0c-2.71,3.84-5.93,7.17-7.74,11.44a102.65,102.65,0,0,1-10.55,18.8,29.65,29.65,0,0,0-2.56,4.05c-4.6,9.41-10.82,17.78-17.14,26a388.59,388.59,0,0,1-47.22,51.11c-2.05,1.86-4,3.87-6.25,6.13,2.64.86,4.82.58,7,.58h146c1,0,2,.07,3,0s2.22-.4,2.89-.53c1-6,2-11.49,2.83-17,.61-4.2,2.13-8,3.6-12,3.67-9.89,9.28-18.57,15.52-26.93a56.52,56.52,0,0,1,4.76-6.17c7.86-8,15.32-16.42,24.72-22.73,1-.66,1.88-1.48,2.68-2.11.56-1.27,1-2.36,1.56-3.57Zm209.41,866c0,2.49.16,4.68,0,6.84-.85,9.78-2.15,19.48-6.5,28.47-.61,1.26-1,2.62-1.56,3.9a31.56,31.56,0,0,1-2.08,4.3c-3,4.73-6.1,9.4-9.19,14.08a22.43,22.43,0,0,1-2.51,3.36c-8.09,8.3-15.52,17.27-25.24,23.9-5.95,4-11.65,8.46-18.28,11.42-3.1,1.39-6.06,3.1-9.15,4.52-3.62,1.67-7.24,3.42-11,4.73a135.73,135.73,0,0,1-32.61,7.53c-8.79.79-17.51,1.44-26.31.73-2.79-.23-5.54-.84-8.33-1-7.87-.38-15.39-2.38-22.87-4.62a115,115,0,0,1-13-4.44c-6.78-3-13.36-6.37-20-9.6a25.73,25.73,0,0,1-2.65-1.4c-18-11.23-33.76-25-46-42.47-1.37-2-2.8-3.9-4.09-5.93-4.32-6.78-7-14.35-10.17-21.68a19.35,19.35,0,0,1-1.13-5.27c-.68-5.89-2.46-11.61-2.26-18h-6.88l-137,0c-4.41,0-8.82,0-13.22,0-.84,0-2-.4-2.57,1.15.8.77,1.62,1.6,2.47,2.4,4.11,3.81,8.3,7.54,12.33,11.43A410.91,410.91,0,0,1,702,1582.1a219.1,219.1,0,0,1,20.47,29.58c1.18,2.08,2.74,3.94,4,6,3,5.15,6.32,10.21,8.9,15.6,2.2,4.62,4.81,8.71,9.15,12H914.91q126.76,0,253.55,0c2.17,0,4.4.44,7-.73,1.46-3.07,3.56-6.35,4.61-9.93a85.48,85.48,0,0,1,7.69-18.16c1.49-2.6,2.83-5.29,4.21-8,.92-1.78,1.66-3.66,2.72-5.34a274.26,274.26,0,0,1,15.46-22.86,352.23,352.23,0,0,1,29.5-33.2c5.39-5.37,11.08-10.43,16.6-15.66a20.28,20.28,0,0,0,1.81-2.31C1251.73,1528.55,1092,1528.63,1086.44,1529.33Zm90.27-346L1154,1199.27v140.39l3.61,5.22c.29,37.84.37,75.87,0,114.5l-3.53,2.31v17.41c3.33,4,7.45,6.76,11,9.68,8.9.53,43.36.41,48.87-.19l7.58-9c.64-8.36.52-279.29-.14-285.17l-10.88-11.06c-1-11.1-.85-70.71.31-77.8l10.6-10.33c.66-6,.7-86.43,0-93.15l-7.58-9c-16.44-.07-32.83-.12-49,0-2.15,1.76-4,3.24-5.84,4.83s-3.45,3.27-4.87,4.63c-.65,10.68-.45,82.44.25,87.89,7,5.55,15.15,10,22.34,16.09C1177.16,1132.06,1177.12,1157.47,1176.71,1183.33ZM684,1480.54l6.55,8.4h44.88a74.94,74.94,0,0,0,10.7-9.75c0-5.49.38-11.06-.15-16.58l-4.08-3.51c-.79-19-.46-38.22-.46-57.41s-.34-38.42.44-57.25c1.56-2.18,2.85-4,4-5.58.54-7.43.45-134-.11-139.13-7.28-5.65-15.2-10.7-22.46-16.6-.42-25.68-.45-51.08,0-76.56,7.34-6.23,15.41-11.1,22.53-16.9a16.16,16.16,0,0,0,.29-2.06q0-39.94.06-79.9c0-1.6-.09-3.2-.15-4.8a1.65,1.65,0,0,0-.14-.57,7.07,7.07,0,0,0-.36-.76l-9.52-8.24c-11.93-.71-41.22-.48-46.22.39l-5.72,7.66c-.66,11.57-.44,89.52.25,94.75l8.84,10c.93,10.47.82,70.25-.13,77.34L684,1193.79ZM979.71,296.13c-.06,2.55-.14,4.53-.16,6.51-.1,9-.17,18-.29,27a42.16,42.16,0,0,1-.33,5.39c-.76,5.29-3,7.41-8.32,7.49-7.41.12-14.82,0-22.23,0a9.2,9.2,0,0,1-5.69-1.48c-2.31-2.24-3.05-5-3.05-8.17,0-10.61-.14-21.22-.27-31.84a35.33,35.33,0,0,0-.56-4.07c-11.7-.2-23-1.83-34.74-.81-.09,2.16-.24,4.11-.26,6.06-.1,14.22-.15,28.44-.28,42.66,0,2,.35,4-1,6a209.11,209.11,0,0,1-33,.77,6.11,6.11,0,0,1-1.59-4.87c0-7.61.14-15.21.2-22.82q.12-13.2.19-26.42a5.12,5.12,0,0,0-.56-1.38c-2.55-.69-5.34-.23-8.09-.31s-5.61,0-8.41,0c-3,0-6,0-9,0-2.78,0-5.56.06-7.89.09-9.5,8.55-31,30.23-34.8,35.16l11.59,12.25c.23,4.48.43,8.47.69,12.46,0,.24.53.45,1,.78l2.85-3.22,2.93-.87c1.82-2.59,3.35-4.94,5.07-7.15s2.7-5.47,6.16-6.34c3.72,2.19,4.73,6.3,6.8,9.63,2.22,3.54,4.26,7.19,6.23,10.54,1.37.47,2.32.78,3.25,1.13,5.84,2.13,8.76,7,7.87,13.13-.19,1.38-.39,2.75-.59,4.17l10.22,17.73Q875,415.22,886.34,435c1,1.68,1.57,3.73,3.87,4.65,2.46-1,5-2,7.65-3,4.5-1.65,8.92-3.74,13.58-4.72a179.28,179.28,0,0,1,30.28-4c3.6-.13,7.21-.18,10.81-.29,1.08,0,1.91-.5,2.33-2.07-6.8-.1-13.54-.2-20.43-1.42,0-1.13-.06-2.09,0-3s-.4-2,.75-2.81a11.19,11.19,0,0,1,1.65-.26c9.61-.28,19.21-.63,28.82-.75a18.25,18.25,0,0,0,9.16-2.29,33,33,0,0,1,6.49-3.09c8.77-2.67,17.26-6.41,26.55-7.21,2.59-.22,5.15-.69,7.72-1.1,3.1-.5,6.2-1.07,9.49-1.64,0-2.53,0-4.72,0-6.91.09-10.62.17-21.23.3-31.85,0-1.76.29-3.53.43-5.2,1.26-.88,2.2-1.61,3.21-2.24,5.26-3.29,10.54-6.53,15.78-9.85a25.06,25.06,0,0,0,2.8-2.44c-7.95-16-15.7-31.72-23.77-47.34Zm268.37,468.55h-85.27q-20.41,0-40.83,0c-1.26,0-2.7-.45-3.93.74a20.38,20.38,0,0,0,1.1,2.24,22.06,22.06,0,0,1,3.22,12.59c-.06,7.4.13,14.81.25,22.21,0,1.36.24,2.73.35,4,9.94,6.86,19.66,13.55,29.34,20.29,1.78,1.24,3.41,2.69,4.82,3.82,1,11,.87,108.5-.16,115.22l-15.15,18.15c0,4.6,0,9.39,0,14.18a20.12,20.12,0,0,0,.41,2.62c2.11.11,4.06.28,6,.28q19.51,0,39,0c14.21,0,28.42,0,42.63,0,1.72,0,3.6.52,5.41-1.08.22-5.18.12-10.55,0-16-2.69-4.46-5.2-9-8.11-13.32a21.13,21.13,0,0,1-3.58-12.41c0-24.21-.14-48.43-.17-72.65,0-10,.15-20,.27-30,0-1.58.23-3.16.35-4.63,7.37-8.47,16.37-15,23.42-23.84a13.64,13.64,0,0,0,.54-2.72c.13-11.4.2-22.81.27-34.21C1248.3,768.55,1248.18,767,1248.08,764.68ZM660.2,807.78c6.15,7.85,14.21,14.58,20.79,23.06.08,2.19.24,4.59.24,7,0,32.64-.12,65.29,0,97.94,0,6.41-1,12.17-4.51,17.62-2.25,3.5-4.45,7.31-5.39,11.29S671,973,671,977.24a21.25,21.25,0,0,0,.56,3.46c1.27.12,2.25.3,3.23.3q39.06,0,78.12,0c1.16,0,2.43.22,3.67-1.37a143,143,0,0,0-.21-15.91c-3.62-4.59-7.19-9.42-11.1-14-2.5-2.91-3.91-6-3.59-9.81.06-.8,0-1.61,0-2.41q-.07-51.37-.11-102.75c0-1.39.18-2.77.3-4.42,10.79-8.18,22-15.92,33.21-24.16,0-1.73,0-3.51,0-5.3.09-7.41.27-14.82.25-22.23,0-3.52.55-6.73,2.7-9.62a20.9,20.9,0,0,0,1.79-3.57c-.46-.31-.6-.49-.76-.5-1.19-.11-2.38-.26-3.57-.26l-114.17.08a1.25,1.25,0,0,0-.56.16,2.74,2.74,0,0,0-.45.39C659.67,770,659.57,799.62,660.2,807.78Zm417.72-18.46c1.82-2.08,2-4.41,2.23-6.76.88-8.14,1.51-16.32,3-24.39a26.83,26.83,0,0,0,.16-5.95c0-1.39-.53-2.77-.52-4.16,0-10.57-4.76-19.7-8.53-29.14-4.91-7.3-9.14-15.08-15.2-21.56-2.74-2.92-5.54-5.78-8.28-8.7a105.78,105.78,0,0,0-25.12-19.37c-10.94-6.16-22.21-11.93-34.48-15.21-5.21-1.38-10.45-2.71-15.76-3.61-5.9-1-11.88-1.53-17.83-2.18a45.08,45.08,0,0,0-13.17.29,36.21,36.21,0,0,1-4.15.53,123.94,123.94,0,0,0-24.8,4c-7.93,2.15-15.71,4.66-23,8.61-2.8,1.52-5.78,2.74-8.66,4.13a60.3,60.3,0,0,0-7,3.49c-9,5.92-18,11.89-25.81,19.54-7.14,7-13.92,14.27-19.61,22.63a103.8,103.8,0,0,0-10.67,19.36c-1.51,3.7-3.39,7.24-4,11.26s-1.27,7.9-2.07,11.81a15.27,15.27,0,0,0,0,5.31c.61,4.35,1.15,8.74,1.34,13.13.47,10.69,3.1,20.88,6.76,31.43.63-1,1.33-1.6,1.37-2.24.37-5.3,2.45-10.13,4.34-14.92s5.62-8.7,7.34-13.65c5.4-6.65,10.77-13.33,16.22-19.94a22.52,22.52,0,0,1,3.13-2.78c1.37-1.15,2.77-2.27,4.18-3.38,1.72-1.35,3.31-3,5.23-3.94a31.56,31.56,0,0,0,8.94-6.88c3.89-4.12,8.57-7.17,13.27-10.24a109.86,109.86,0,0,1,33.93-14.61c8.16-2,16.32-3.92,24.81-3.69a8.3,8.3,0,0,0,2.39-.23,17.54,17.54,0,0,1,8.9,0,17.15,17.15,0,0,0,4.18.3c6.25-.09,12.29,1.17,18.37,2.45a122,122,0,0,1,27.62,9.69,70.82,70.82,0,0,1,7.28,4.16c3.71,2.36,7.34,4.86,11.34,7.52,2.32-1,4.37.32,6.15,2,5,4.65,11.08,7.86,15.61,13,1,1.17,2.85,1.74,3.64,3,2,3.12,4.76,5.41,7.27,8,4.49,4.58,8.87,9.21,10.75,15.59a12.29,12.29,0,0,0,1.1,2.13q3.32,6.38,6.64,12.74A14.09,14.09,0,0,0,1077.92,789.32ZM823,1486.93c-1.17,3.92-2.16,7.07-3,10.24-1,3.85-2.57,7.55-2.79,11.63-.23,4.59-.64,9.19-1.3,13.73A54.61,54.61,0,0,0,816,1541c1.22,6.33,2.55,12.52,5.51,18.28a19.48,19.48,0,0,1,1,2.17c3.59,9.76,9.87,17.93,16.44,25.66a152.17,152.17,0,0,0,30.25,27.25c9.85,6.71,20.84,11,31.31,16.44a13.16,13.16,0,0,0,2.26.8c10.31,3.15,20.6,6.44,31.43,7.38,5.38.46,10.74,1.11,16.13,1.43,6.62.4,13.13-1.09,19.71-1.59a71.1,71.1,0,0,0,10.06-1.46,139.2,139.2,0,0,0,30.58-10.35c8.11-3.93,16.31-7.64,23.49-13.17,4.76-3.65,9.59-7.24,14.06-11.23,3.87-3.45,7.3-7.42,10.9-11.18a29.65,29.65,0,0,0,3.61-4c5.72-8.66,12-17,15.32-27,1.78-5.31,3.92-10.47,4.23-16.14.22-4,.77-8,.57-12-.25-5-1.13-9.92-1.73-14.88-.36-3-.7-6-1-8.94s-.45-3.35-2.7-5.79c-.72,1-1.71,1.84-2,2.89a31.19,31.19,0,0,1-4.12,7.94c-2.48,3.84-4.54,7.9-7.59,11.46-2.46,2.87-5.24,5.5-7.49,8.54a61.6,61.6,0,0,1-16.84,16c-1.33.84-2.37,2.14-3.64,3.09-2.56,1.9-5,4.11-7.82,5.46a108.13,108.13,0,0,0-11.45,6.46,107.6,107.6,0,0,1-31.15,13.68c-7.56,1.93-15.19,3.56-23,3.83-9.6.34-19.21.61-28.76-1a121,121,0,0,1-20.38-4.78,118.4,118.4,0,0,1-27.94-13.64,103.44,103.44,0,0,1-21.32-19.3l-7.11-1.71c-3.69-3.77-7.33-7.23-10.65-11s-6.68-7.57-8.66-12.14a99.26,99.26,0,0,0-7.32-14.39,17,17,0,0,1-1.58-3.23c-1.42-3.74-2.76-7.5-4.16-11.24C824.12,1488.94,823.69,1488.32,823,1486.93Zm466.68-540.48c-6.83,14.85-16.64,34.11-19.73,38.66-2.88.42-6.07.27-9.25.42a21,21,0,0,0-3.3.68v63.84c5,6.54,11.12,11.81,15.5,18.59.11,6.86.38,13.67.28,20.47a32.08,32.08,0,0,0,2.4,13.46,40.13,40.13,0,0,1,3.11,16.37q-.17,23.73.09,47.46c.09,7.91-.74,15.55-3.94,22.85a22.9,22.9,0,0,0-1.63,9.39c0,6.21-.14,12.42-.26,18.62,0,1.58-.21,3.16-.32,4.68l-15.16,17.21a8.8,8.8,0,0,0-.17,1.21q0,30.35,0,60.68a13,13,0,0,0,.52,2.65c4.46.76,8.76-.31,13.21,1.37,6,12.61,13,25,18.63,38.26,1.51.11,3.08.21,4.65.34s3.23-.35,4.87,1.17q2.67,14.85,5.5,30.63c.75-.43,1.41-.77,2-1.18s1.25-.92,1.38-1c1.82-5,1.91-9.59,1.86-14.21,0-3,0-6,0-9q0-123.16,0-246.32c0-57.88-.11-115.75,0-173.63,0-6-2.32-10.72-5.28-16.16-1,5.72-1.89,10.78-2.88,15.81-1,5.24-1.34,10.65-3.48,15.93ZM961.41,444.91c-11.36,9.59-21.73,19.95-27.46,34.17-1.8,4.46-3.9,8.73-4.1,13.66a45.65,45.65,0,0,1-1.05,7.72c-1,4.57.05,8.55,2.39,12.57,10.39,17.78,20.59,35.67,30.86,53.52,1.19,2.08,2.46,4.14,2.32,6.75L963,575.74c-.08,3.72,2.11,6,4.8,7.86,8,.72,89.15.51,94.14-.25,1.66-7.2,1.64-31.08-.11-38.28-1.46-.07-3-.2-4.59-.22-6-.06-12,0-18-.15a19.49,19.49,0,0,1-3.61-.81v-6.82c0-18.62-.12-37.23,0-55.85,0-8-1.15-15.94-2.29-23.86a7.26,7.26,0,0,0-.92-2.83c-2.35-3.67-4.39-7.59-7.4-10.4ZM621.13,1343.37c2.86-6.72,5.51-13.17,8.34-19.54s5.09-13,8.3-18.84c4-1.59,8-.4,11.5-1.44.69-5.91.65-59,.06-63.87l-13.67-18.11c-.12-7.53-.31-14.93-.32-22.33a33.78,33.78,0,0,0-1.78-11.79,44.64,44.64,0,0,1-2.49-15.91q.13-26.73,0-53.47a46,46,0,0,1,2.61-16.5,29.53,29.53,0,0,0,1.65-10.6c0-7.6.19-15.2.31-23l13.8-18.22a6.52,6.52,0,0,0,.18-1.09q.06-30.35.07-60.69a8.88,8.88,0,0,0-.63-2.26c-2-.14-3.79-.18-5.56-.41-2-.25-3.9-.67-6-1.05-5.51-12.66-11.28-25.12-16.09-38-1.22-.09-2.22-.1-3.2-.26-1.15-.19-2.27-.52-3.66-.84-.55-3.08-1.13-6-1.6-8.93-.44-2.76-.75-5.54-1.14-8.32s.09-6-2.07-9.22c-.77,6.94-.4,13.12-.43,19.3a4.29,4.29,0,0,0,.33,1.75c2.16,4.63.74,9.45.79,14.19-1.68,3.18-1.15,6.63-1.15,10q0,181.15,0,362.3c0,1.2-.09,2.41,0,3.61A33.49,33.49,0,0,0,610,1334a35.42,35.42,0,0,1,.06,14.82,15.25,15.25,0,0,0-.69,2.88c0,6.19,0,12.39.08,19.44a6.91,6.91,0,0,0,1.88-3.91c.5-4.18.93-8.36,1.58-12.51.56-3.5.67-7.11,1.86-10.62Zm257-888.77c-.84-1.74-1.59-3.59-2.57-5.3-7-12.14-13.85-24.33-21-36.33-2.78-4.63-4.53-9.29-3.9-14.72a5.07,5.07,0,0,0-.23-1.33L842.7,383.8c-1.65-.58-3-.95-4.27-1.52-4.32-1.94-8.44-5.74-7.23-13,.23-1.38.38-2.77.6-4.34l-3-5.42c-1.16,1.35-2.14,2.32-2.93,3.42-3.47,4.9-6.73,9.95-10.37,14.72A18.94,18.94,0,0,0,811.63,390c.1,11.41,0,22.82,0,34.23a29.5,29.5,0,0,0,.35,3.31l3.77,2.06c.88,8.2.77,28.18-.22,33.87L812,464.75l-1.21,3.75L803,471.23v39c8,9.35,24.9,26.09,30.85,30.52,12.85.8,36.92.53,41.55-.55.08-1.86.23-3.82.23-5.79.07-18.41.2-36.82.13-55.24A141.47,141.47,0,0,1,878.13,454.6Zm108.3,261.74c3.29,1.89,5.49,3.12,7.65,4.42a46.76,46.76,0,0,1,6,3.87c4.28,3.61,8.48,7.32,12.53,11.18a53.47,53.47,0,0,1,13.66,21.57c3.5,10,3.41,20.12.78,30.13a52.62,52.62,0,0,1-10.49,20.06,80.33,80.33,0,0,1-39.51,26,96.71,96.71,0,0,1-51,1.76c-14.07-3.3-26.72-9.31-37.25-19.49s-17.12-21.88-18-36.75a51.6,51.6,0,0,1,6.66-28.76,53.44,53.44,0,0,1,13.13-16.23c3.13-2.48,5.75-5.6,8.91-8s6.86-4.52,10.31-6.75a42.74,42.74,0,0,0-12.69,4.8,104.64,104.64,0,0,0-25.7,19.52,43.34,43.34,0,0,0-3.13,3.63c-4.67,6.26-8.84,12.72-11.72,20.13a62,62,0,0,0-4.27,25.81,61.36,61.36,0,0,0,4.51,20.38,70.75,70.75,0,0,0,13.06,20.67,94.54,94.54,0,0,0,18.34,15.37A91,91,0,0,0,911,860.29c8.91,2.87,18,5.31,27.59,5.27,1.39,0,2.78.39,4.17.46,3,.13,6,.33,9,.21,3.79-.17,7.57-.6,11.35-1,1.79-.17,3.57-.39,5.33-.73,10-1.91,19.83-4.49,29.19-8.77a101.35,101.35,0,0,0,24.71-15.65,81.65,81.65,0,0,0,17.35-20.57,60.78,60.78,0,0,0,7.25-18.3,75.58,75.58,0,0,0,1.11-22.07,58.22,58.22,0,0,0-7.28-22.66,72.13,72.13,0,0,0-11.47-15.32,90.7,90.7,0,0,0-21.73-16.88c-5.57-3.08-11.69-5.16-17.59-7.62C989.3,716.4,988.46,716.52,986.43,716.34Zm.57,856.54a6.26,6.26,0,0,0,1.3.33,13,13,0,0,0,2.31-.56c9.08-3.68,18-7.59,26.11-13.31,13-9.15,22.52-20.76,28.23-35.62,2.7-7,3.08-14.43,4-21.76a6.79,6.79,0,0,0,0-1.8c-.56-3.75-1-7.54-1.76-11.25a59.16,59.16,0,0,0-2.44-8A75.74,75.74,0,0,0,1035,1463a81.18,81.18,0,0,0-18.25-18.1,104,104,0,0,0-21.33-12.13c-14.21-6.06-29-8.68-44.3-9.43-5.62-.28-11.18.47-16.76.89a63.37,63.37,0,0,0-11.24,1.75c-2.32.6-4.61,1.36-7,1.84-8.73,1.81-16.59,5.8-24.35,9.91-8,4.25-14.83,10.11-21,16.76-9.69,10.39-15.94,22.27-17.86,36.51a59.13,59.13,0,0,0,4,31.71c1.25,2.94,2.14,6.12,3.85,8.77,7.69,11.9,17,22.26,29.37,29.53a23.09,23.09,0,0,1,2.51,1.65c3.2,2.5,6.94,3.94,10.63,5.47a10.52,10.52,0,0,0,2.45.36c-.36-.66-.45-1.1-.71-1.26-6.61-4-11.83-9.51-17.34-14.76a56.61,56.61,0,0,1-14.92-24.3,43.4,43.4,0,0,1-2.22-14.16c.19-5.92.77-11.88,3-17.64a63.93,63.93,0,0,1,13-20.68c4.43-4.77,9.67-8.36,15.06-11.83a72.09,72.09,0,0,1,18-8.08,98.42,98.42,0,0,1,36.81-3.84A90.72,90.72,0,0,1,992,1462c11.09,5.84,20.63,13.63,27.71,24.28a52.32,52.32,0,0,1,9.17,27.51c.56,15.84-5.11,29.32-16.56,40.32-2.45,2.36-5,4.6-7.54,6.88a52.05,52.05,0,0,1-12.21,8.64C990.78,1570.48,989.12,1571.62,987,1572.88Zm167-662.77h-6.29c-13.41,0-26.82,0-40.23,0q-27-.06-54-.19c-2.16,0-4.41.41-6.67-.76-5.82-8.85-10.58-18.53-16.65-27.68-8,3.52-15.61,6.88-23.23,10.33a16.31,16.31,0,0,0-2.81,2.12c9.57,16.32,18.67,32.51,28.27,48.37l32.17,1.12c6.42,6.38,12.78,12.74,19.18,19.06s12.79,13.23,20.21,19.38c2.72,0,5.71,0,8.71,0s6,0,9,.15,6-.38,9,.73c.83,3.65.41,7.25.54,10.8s.12,7.21.14,10.81,0,7.2,0,10.81,0,7.2,0,10.8,0,7.21,0,10.81-.15,7.11.24,10.73c3.9-1.16,3.91-1.14,6.52-3.92,0-13.08,0-26.48,0-39.88,0-13.59-.19-27.19.52-40.89,2.61-3.13,5.16-6.2,7.7-9.28l7.76-9.35C1154.77,937.34,1154.72,915.76,1154,910.11Zm.14-21a13.25,13.25,0,0,0,.41-2.11q0-26.13-.06-52.26a19.1,19.1,0,0,0-.47-3c-5.86-4-11.67-7.94-17.35-12s-11.75-7.56-16.7-11.78c-.29-.72-.37-.9-.43-1.09a2.87,2.87,0,0,1-.17-.57,9.73,9.73,0,0,1-.11-1.2q-.2-12.9-.38-25.82a6.85,6.85,0,0,0-.08-1.2,4.63,4.63,0,0,0-.38-1.12c0-.08-.33,0-1.16-.09-.57,2.35-.17,4.89-.4,7.34s.26,5.18-.8,7.68a54,54,0,0,1-21.08-.16c-.15-2.75-.34-5.31-.43-7.88-.19-5.66-.17-5.66-1.46-7.11-.82,3.73-1.54,7.42-2.45,11.06-1.81,7.17-3.63,14.34-5.63,21.46a42.75,42.75,0,0,1-3.37,8.94c-5.31,9.6-10,19.59-17.3,28-3.81,4.36-7,9.28-10.62,13.79a63.39,63.39,0,0,1-7.07,7.31c-3.43,3.06-7.12,5.83-10.64,8.8a30,30,0,0,0-2.79,3.09c2,3.67,3.38,7.46,6.17,10.17,9.49.6,17.61.46,18.88-.39l1.61-3.12h4.39l1.7,3.34C1071.85,889.91,1149,889.84,1154.11,889.16Zm-121.45,521.5c3.68,3,6.92,5.66,10.18,8.28a68.67,68.67,0,0,1,13.69,14.23c1.7,2.47,3.66,4.76,5.5,7.14,2.93,3.79,6.21,7.36,8.7,11.42,4.18,6.81,7.89,13.92,11.72,20.94a21.73,21.73,0,0,1,1.68,4.48c1.44,5.2,2.81,10.42,4.19,15.63,1.69,6.38,3.65,12.69,4.37,19.29,0,.24.49.44,1.32,1.14.7-2.8.28-5.34.52-7.78s-.34-5.18,1-7.72c7-.72,13.88-1.12,20.9.29.13,1.68.28,3.06.33,4.43.12,3,.16,6,.28,9,0,.84.36,1.51,1.7,1,0-1.87.14-3.85.17-5.83.11-6.81.19-13.61.31-20.42,0-1.78-.13-3.62,1-5.27,11.27-7.83,22.84-15.35,33.71-23.37.86-5.68.9-51.28.07-56.91a12.43,12.43,0,0,0-2.14-.47c-8.55-.46-81.77-.1-85.93.41-.49,1-1,2-1.6,3.27l-4-.2-2.61-3.52c-3.3,0-6.5-.07-9.7,0s-6.37-.39-9.5.53ZM701.49,542.82a7.56,7.56,0,0,0,1.58.48q15.84,1.31,31.7,2.55c6,.48,12,.94,18,1.43,12.55,1.05,25.11,2.15,37.67,3.17,7,.57,14,1,21,1.56q8.37.66,16.74,1.39c6.78.58,13.55,1.21,20.33,1.76A28.1,28.1,0,0,0,852,555c.08-3.65.83-7-.53-10.27l-19-.38c-11.35-10-35.63-34.91-41.28-42.31-.06-2.23-.18-4.82-.19-7.41q-.08-28.83-.11-57.65,0-9.6-.14-19.21c0-.84.4-2-.74-2.49-.4.23-.86.33-1.05.62q-43.63,62.83-87.22,125.7A4.31,4.31,0,0,0,701.49,542.82ZM862.16,879.37c-3.37-4.24-7.48-6.83-11-10.07-2.64-2.45-5.6-4.65-7.79-7.45-6.55-8.33-13.14-16.65-18.49-25.83-2-3.46-3.79-7.07-5.94-10.43-4.13-6.47-7.35-13.26-8.68-20.88-.17-1-.5-1.93-.75-2.9-1.76-7-3.94-13.84-4.9-21a31.59,31.59,0,0,0-1.42-4.55c-.84,5.86.3,11-1.68,15.78-6.85,1.05-13.51,1.34-19.95-.14-.93-1.91,1-2.2,1.34-3.8-.57-3.05-1.23-6.58-1.92-10.11-.17-.92-.74-1.32-2.08-.87-.23,4.82,0,9.8-.14,14.78-.12,5.19-.3,10.37-.47,15.8-10.79,8.37-22.18,15.78-32.75,24a14.93,14.93,0,0,0-.32,2q0,26.73,0,53.45a9.87,9.87,0,0,0,.66,2.33h83.7l2-3.66h4c.87,1.41,1.56,2.55,2.34,3.83,3.15,0,6.15.08,9.14,0,3.16-.09,6.39.48,9.76-.62C858.49,886,860.22,882.87,862.16,879.37Zm-84,602.15c.13,1.68.35,3.45.39,5.24.13,6.6.2,13.21.3,19.82,0,1.8,0,3.6.19,5.4,0,.3.74.56,1.4,1,.89-5.27-.17-10.32.88-15.26,7-2,13.64-.32,20.73-.1,1.11,5,.58,10,1.3,14.92a6.14,6.14,0,0,0,1.13-2.7c.68-7,3.25-13.61,4.58-20.47a74.42,74.42,0,0,1,11.21-27.59,3.81,3.81,0,0,0,.29-.52,150.47,150.47,0,0,1,16.4-25.08,31.83,31.83,0,0,0,2.11-2.92c3.61-5.64,8.4-10.14,13.58-14.3,3.27-2.62,6.4-5.39,9.58-8.09-.37-2.3-1.69-3.84-2.68-5.54s-2-3.35-2.92-4.78c-8.48-.74-17.12-.66-18.35.12l-2.09,3.06h-4.85l-1.66-3.39c-1.9-.07-3.87-.19-5.85-.19q-16.21,0-32.44,0-20.73,0-41.46,0c-1.52,0-3.23-.49-4.56,1.1v56.55Zm285.82-135.21c-5.59.33-10.78.65-16,.94-5.36.3-10.77-.41-16.18.52-9,15.76-18,31.36-26.94,47-.17.29,0,.77,0,1.13,4,2.93,20.32,10.38,25.76,11.68l16.4-27.82c8.22-.29,16.21-.79,24.19-.82,25.45-.11,50.89,0,76.33-.08,2.15,0,4.38.48,6.4-.54.85-4.56,1-25.14.17-32.88l-15.5-18.78c-.14-3-.27-6-.43-8.94-.17-3.16.2-6.35-.37-9.78-4-.58-7.79-.24-11.54-.3s-7.62,0-11.42,0-7.57.11-11.23.16ZM745.7,910.07c-.69,5.47-.77,27.43-.18,34.59,2.15,2.73,4.47,5.72,6.83,8.7s5,6.22,7.19,9c.14,3.55.24,6.55.36,9.55s-.22,6.33.29,9.37c5.37.78,27.83.76,33.82-.06l37.61-37.68c5.38-.32,10.57-.64,15.75-.92s10.36.38,15.72-.53q13.29-23.15,26.53-46.27a18.36,18.36,0,0,0,.94-2.39,37.15,37.15,0,0,0-3.67-2.16q-10.11-4.54-20.27-8.94a6.74,6.74,0,0,0-2.17,0c-2.59,4.48-5.22,9.16-8,13.77s-4.9,9.57-8.51,14Zm.17,468.4c2,.71,4.26.39,6.41.39,22.63,0,45.26,0,67.88.06,8.8,0,17.6.46,26.41.73a15.48,15.48,0,0,1,2.16.44c2.59,4.43,5.3,9.08,8,13.72,2.81,4.79,5.12,9.88,8.45,14.25,3.71-1.69,7.13-3.25,10.57-4.8,4-1.82,8-3.58,12-5.46a20.42,20.42,0,0,0,3-2.16c-9.43-16.15-18.36-32.19-27.75-48.24-5.37-.05-10.56,0-15.73-.19s-10.35-.65-15.77-1c-6.29-6.38-12.64-12.76-18.93-19.21s-12.34-13.11-19-18.91c-7.36-.81-28.82-.65-33.44.32-.36,6.21,0,12.6-.71,19l-13.9,17.56C744.73,1355.63,744.94,1373.94,745.87,1378.47Zm339-962c.74,1.72,2.5,1.93,3.93,2.51a146.15,146.15,0,0,1,24,12.28,127.52,127.52,0,0,1,28.71,24.34c3.91,4.57,7.94,9,11,14.26,1.4,2.42,2.82,4.84,4.32,7.21,4.23,6.65,6.83,14.05,9.07,21.48a93.11,93.11,0,0,1,3.23,35.08,72.31,72.31,0,0,1-4.42,20.47c-3.22,8.18-7,16.06-12.44,23.17a105.09,105.09,0,0,1-19.49,19.42,103.91,103.91,0,0,1-23.86,13.68,132.48,132.48,0,0,1-27,7.7c-4.5.83-9.19.66-13.7,1.47a53.29,53.29,0,0,1-11.95.56c-4.8-.22-9.58-.67-14.36-1a17.51,17.51,0,0,1-1.79-.15c-11-2.16-22-4.24-32.45-8.37-12.35-4.85-24.11-10.67-34.62-18.85-2.84-2.21-6-4.09-8.58-6.55-7.54-7.16-15-14.38-20.8-23.18a116,116,0,0,1-8.63-15.06c-.59-1.27-1.08-2.59-1.72-3.84-3.69-7.21-5.37-15.06-6.78-22.91a84.5,84.5,0,0,1-.13-26.89,79.55,79.55,0,0,1,7.41-23.95A78.44,78.44,0,0,1,948,448.68c8.48-8.66,17.62-16.27,28.69-21.4,3.63-1.68,7.07-3.92,10.86-5.07,9.34-2.85,18.62-5.88,28.52-6.73,11.81-1,23.54-1.38,35.3.12a5.06,5.06,0,0,0,1.65-.34c.14-2.65.27-5.16.39-7.45-2.52-1.59-5-1.54-7.36-1.52-11.38.12-22.74-.48-34.15,1a128.83,128.83,0,0,0-30,8,102,102,0,0,0-25.59,14.27c-11.23,8.7-20.86,18.63-27.58,31.24-1.5,2.82-3.43,5.47-4.54,8.42-2.95,7.86-6,15.73-6.57,24.23-.41,5.75-1.84,11.47-.63,17.3a11.87,11.87,0,0,1,.11,2.39,61.26,61.26,0,0,0,2.85,17.72c.8,2.68,1.43,5.41,2.26,8.08a49.07,49.07,0,0,0,2.24,6.19C929,555,933.86,564.58,941,572.87c.26.3.47.65.71,1A112.26,112.26,0,0,0,961.32,594a151.54,151.54,0,0,0,35.79,21.76,140.56,140.56,0,0,0,25,8.35,202.93,202.93,0,0,0,21.85,3.7,143.65,143.65,0,0,0,40.63-1.46,117.47,117.47,0,0,0,33.55-10.76c2.49-1.27,5.21-2.16,7.53-3.67,7.22-4.67,14.57-9.2,20.63-15.42,3.9-4,8.31-7.53,11.57-12.16,5.65-8,11.05-16.19,14.1-25.66.36-1.14,1-2.17,1.44-3.3a42.63,42.63,0,0,0,1.61-5.15c2-9.21,3.41-18.48,2.79-28-.15-2.19,0-4.4-.07-6.61a21.5,21.5,0,0,0-.21-3.59c-2-10.61-4.2-21.18-9.09-31-1.16-2.32-1.92-4.87-3.27-7.06-5.36-8.68-10.73-17.3-17.72-24.89a141.07,141.07,0,0,0-30.24-25.34c-5.79-3.53-11.46-7.33-17.83-9.85-3.53-1.39-7-2.94-10.53-4.34a15.52,15.52,0,0,0-2.82-.54c-.5,2.31-.94,4.25-1.32,6.2A4,4,0,0,0,1084.83,416.45ZM853.68,815.58c0,3.93-.22,7.28,0,10.59.56,7,1.28,13.93,2.09,20.87a47.24,47.24,0,0,0,6.65,18.46c3.43,5.81,8.64,9.86,14.68,12.88,6.26,3.13,12.45,6.4,18.68,9.59a18.13,18.13,0,0,0,2.72,1.17q9.11,3,18.25,5.88a24.35,24.35,0,0,0,4.6,1.26c4.77.51,9.56.83,14.33,1.24,3.78.32,7.56.93,11.34.94s7.56-.59,11.35-.9c5.17-.42,10.36-.79,15.53-1.25a15,15,0,0,0,2.88-.77c6.66-2.09,13.33-4.17,20-6.32a28.17,28.17,0,0,0,4.37-1.9c3-1.57,5.9-3.35,9-4.83,6.28-3,12.85-5.47,18.1-10.39,4.51-4.24,9.31-8.17,14-12.25a17,17,0,0,0,4.29-6.42,50.58,50.58,0,0,0,3.72-18.68c.25-7.8-.1-15.61-.24-23.42,0-.93.2-2.05-1.25-2.78a72.54,72.54,0,0,0-3,6.89,62.65,62.65,0,0,1-3.53,6.93c-5.4,8.79-12.6,16-20.27,22.8a22.24,22.24,0,0,1-2.79,2.26c-7.94,5-15.71,10.36-24.74,13.37-.75.25-1.48.59-2.21.91-7.58,3.3-15.67,4.75-23.7,6.22-5.28,1-10.74,1-16.12,1.41a104.11,104.11,0,0,1-25.67-1.63,117.32,117.32,0,0,1-30.2-9.49,97.49,97.49,0,0,1-20.17-12.9A79.49,79.49,0,0,1,853.68,815.58Zm-.43,657.23c.6-.28.86-.32.94-.46.41-.69.75-1.4,1.13-2.11a87.4,87.4,0,0,1,29.17-32,107.69,107.69,0,0,1,19.16-9.84,105.82,105.82,0,0,1,33.7-7.79c7-.46,14-.34,21-.13,10.12.3,19.83,2.73,29.32,5.74a100.73,100.73,0,0,1,28.43,14,55.76,55.76,0,0,1,5.36,3.82c4.14,3.78,8.46,7.45,12.07,11.7,5.16,6.07,10.25,12.3,12.87,20.08.53,1.59.85,3.46,2.67,4.57.3-.56.79-1,.81-1.55.37-11.59,1.3-23.2-1.21-34.68-1.64-7.47-5-13.82-11.42-18.39-3.58-2.54-6.87-5.5-10.24-8.33a37,37,0,0,0-8-5.25c-6.13-2.91-12.08-6.2-18.12-9.31a22.86,22.86,0,0,0-3.32-1.35c-6.63-2.2-13.26-4.42-19.93-6.53a38.51,38.51,0,0,0-10.64-1.61c-5.79-.15-11.58-.62-17.37-.89a42.56,42.56,0,0,0-4.79.11c-2.2.13-4.38.5-6.57.5-9.66,0-19.21.59-28.21,4.61a2.7,2.7,0,0,1-.57.18,72.51,72.51,0,0,0-19.94,8c-4.48,2.61-9.37,4.5-13.92,7-6.29,3.44-11.5,8.32-14.5,14.76-3.63,7.77-6.3,16-6.47,24.76-.06,2.8-.36,5.59-.56,8.39C853.84,1464.66,853.56,1468.62,853.25,1472.81Zm310.8,19.93c-4.58-3.61-9.22-7.07-13.18-11.54-.17-1.34-.38-2.71-.51-4.1-.11-1.19-.14-2.4-.18-3.6,0-1.4,0-2.81-.1-4.2s.42-2.73-1-4c-9,5.67-17.46,12-26.51,18,0,2,0,4,0,6-.08,7-.26,14-.24,21,0,3.91-.59,7.52-2.88,10.82-.68,1-1.88,2.16-.8,4h62.89q30.64,0,61.3,0c1.71,0,3.6.61,5.17-.8a12.61,12.61,0,0,0,.26-1.77c0-11.41,0-22.83-.06-34.25a52.15,52.15,0,0,0-.55-5.43c-4.76-6.16-18.52-19.24-22.44-21.42q-.24,10-.47,19.8c-3.4,4.13-6.4,8.38-10.75,11.55C1197.37,1493.12,1180.77,1493.17,1164.05,1492.74ZM1138,1049.15c-4.28,1.44-30.6,16.25-36.9,20.73,0,1.78-.09,3.76-.13,5.74-.1,5.4-.28,10.8-.27,16.2a12.74,12.74,0,0,1-2.77,8.31c-2.71,3.45-5.11,7.14-7.45,10.45-.8,11.23-.56,27.77.47,32.1a22.48,22.48,0,0,0,2.26.22q39.58,0,79.18-.13a1.32,1.32,0,0,0,.58-.15,6.33,6.33,0,0,0,.74-.79c.29-3.38.1-7.16.13-10.92,0-4,.08-8,0-12-.1-3.76.46-7.57-.6-11.21-11.41-8.3-23.27-15.71-34.44-24.09C1137.87,1072,1138.29,1060.6,1138,1049.15Zm-36.85,171c11.77,6.68,23.22,13.2,34.69,19.68a7.21,7.21,0,0,0,2.06.34c.09-1.88.22-3.64.24-5.41.05-8,.05-16,.11-24,0-1.58.18-3.16.28-4.77,11.6-8.42,23.54-16.09,34.94-24.37.12-1.3.3-2.28.3-3.26q0-15,0-30c0-.36-.29-.71-.56-1.33-1.72-.78-3.74-.45-5.69-.46q-17.4,0-34.82,0c-12.61,0-25.22,0-37.83,0-1.51,0-3.24-.53-4.49,1.11v31c2.63,3.7,5.12,7.33,7.76,10.85a11.7,11.7,0,0,1,2.59,7.79c0,1,0,2,.06,3C1100.82,1206.78,1101,1213.17,1101.1,1220.18ZM759.58,1083.75c-10.77,8.38-22.14,15.85-33.11,24.34-.06,3.74-.15,7.52-.18,11.3,0,4-.11,8,0,12,.1,3.73-.49,7.53.5,11.29,1.27.08,2.25.21,3.24.21q36.35,0,72.7,0a23.4,23.4,0,0,0,3.47-.5v-31.52l-9.78-14.74c0-4.32,0-8.73,0-13.13s-.09-8.76-.14-12.85c-3.59-2.68-27.82-17.3-33.73-20.36a9.18,9.18,0,0,0-2-.39c-1.12,2.78-.48,5.58-.61,8.29s-.05,5.6-.08,8.4c0,3-.09,6-.15,9C759.69,1077.89,759.64,1080.68,759.58,1083.75Zm46.66,95c0-10.48,0-20.47,0-30.46a2.45,2.45,0,0,0-.48-1,4.32,4.32,0,0,0-.65-.63c-25.35,0-50.94,0-76.52,0a8.74,8.74,0,0,0-2,.58c-.57,5.7-.29,11.47-.25,17.21s-.44,11.55.5,17.41c5.56,4,11.07,8,16.54,12s11.14,7.7,16.25,12.1c.11,5.86.14,11.46.32,17s-.48,11.44.62,17.9c6.44-3.49,12.16-7,17.92-10.47,5.95-3.56,12.23-6.65,17.76-10.85.17-9.08.34-17.86.51-26.68ZM660,1524.84c1.37.14,2.14.28,2.92.28q58.2,0,116.4-.07a1,1,0,0,0,.55-.2c.12-.09.16-.27.35-.62a24,24,0,0,0-1.39-2.46c-2.7-3.72-3.58-7.85-3.52-12.41.1-7.4-.13-14.8-.25-22.2,0-1.37-.23-2.73-.33-3.83-11.61-9.15-20.15-15-24.1-16.56-.24,4.64-.48,9.17-.73,13.77a90.67,90.67,0,0,1-13.36,12.2c-15.78.41-31.55.43-47.56-.06-3.05-3.75-6-7.5-8.84-11.53-.13-5.74-.27-11.53-.41-17.32,0-.79-.08-1.6-1.46-1.81-6,6.66-12.59,13-18.27,20.15ZM1066.21,544.9c0,7-.08,13.39,0,19.78s-.46,12.71.45,19.27l10.93.52a24.17,24.17,0,0,1,2,1.55q8.13,8,16.21,16.07a37.45,37.45,0,0,1,3.3,3.49,45.63,45.63,0,0,1,2.5,3.92,8.1,8.1,0,0,0,1.89-.34c8.22-3.64,16.68-6.81,23.83-12.49.63-.5,1.34-.89,2-1.35a93.16,93.16,0,0,0,17.2-15.79,121.82,121.82,0,0,0,9.27-13.29,51.41,51.41,0,0,0,3-6.67c-2.77-3.4-5.31-6.73-8.08-9.87a44.77,44.77,0,0,1-8.77-14.2c-.9-2.43-2.09-4.76-3.23-7.09-.41-.83-.69-1.95-2.34-1.89a25.31,25.31,0,0,0-1.71,2.05c-2.89,4.08-5.71,8.21-8.63,12.27-.91,1.27-2.06,2.37-3.23,3.69H1104.1c-6.2,0-12.41,0-18.62,0S1073.13,544.27,1066.21,544.9Zm-9.78-105.31c-5.35-4.16-6.11-10.18-9.29-14.83-2.48-.1-4.8-.85-7.54.21,8,17.86,16.36,35.29,24.46,52.66l5.78,2.13c7.42,14.85,14.77,29.52,22.06,44.22a13.49,13.49,0,0,1,.75,3.15L1090,533l3.44,7.42c5.28,1,19.24.94,24.37-.07,5.23-7.32,10.53-14.81,15.54-22.42a62.32,62.32,0,0,0-5.17-12.19l-7.3-2.21c-.6-1.09-1-1.76-1.37-2.48C1114,489,1108.59,477,1103.11,465q-7-15.29-14.07-30.51a25.2,25.2,0,0,0-2-3l-15.43,7.38C1066.55,441.27,1061.42,442.42,1056.43,439.59Zm82,1222.21c-.3-.15-.61-.42-.92-.42q-177.82,0-355.65,0c-.3,0-.6.28-1.14.55a77.15,77.15,0,0,0,10.82,10.86h336.84c3.22-3.3,6.45-6.58,9.64-9.9A3,3,0,0,0,1138.43,1661.8Zm134.62-869.38-10.28.36c-.88,5.4-.13,10.64-1,15.49-7.53,8.67-16.27,15.74-23.46,23.66a17.72,17.72,0,0,0-.25,1.76q0,26.4,0,52.8a19.15,19.15,0,0,0,.57,3.15c3,0,5.77.05,8.55.05q18.3,0,36.6-.07a6.84,6.84,0,0,0,1.63-.41L1287,886l2.09-.29,2.59,3.78c.69-.07,1.28-.1,1.86-.21.15,0,.27-.28.47-.51,2.09-5.77,2.27-11.44-.5-17.3a57.49,57.49,0,0,1-3.85-12c-2.39-10.72-4.94-21.39-8-32-2-7.09-4.09-14.18-4.63-21.64-.36-5.15-1.46-10.25-2.26-15.59Zm1.76,706.95c.52-3.55,1-6.87,1.47-10.21,1-8.14,2.13-16.24,4.6-24.12,1.79-5.72,3.31-11.53,4.71-17.37,2.74-11.46,4.92-23.08,9.44-34.05a9.08,9.08,0,0,0,.56-5.3c-.47-2.35-.91-4.7-1.43-7-.07-.31-.54-.54-.88-.85h-1.64l-2.38,3.29c-2.31-.67-2.31-.67-4.34-3.53-14.53,0-29.33,0-44.13,0a20.93,20.93,0,0,0-2.83.45c0,19.1-.1,38,.06,56.82,7.89,8.4,16.62,15.5,23.92,24,.21,5,.41,9.71.62,14.7l10.64,1.47ZM1109.24,414a41,41,0,0,0-2.55-6.55c-4.94-10.94-9.92-21.86-14.83-32.81q-19.15-42.69-38.26-85.42c-1.49-3.32-3.47-6.55-6.31-8.65a25.53,25.53,0,0,0-14.41-5.33c-9.41-.24-18.82-.08-28.24,0a28.34,28.34,0,0,0-4.15.64c-.07,4.67,1.82,9.7-3.84,12.66-4.9.28-10.08.68-15.28.85s-10.41.13-15.62.18c-5.4.05-10.82-.07-16.22.19-5.12.24-10.31-.4-15.59.65.15,1,.25,1.7.4,2.71,2.08,0,3.86,0,5.63,0,11.41-.25,22.82-.62,34.23-.74,19.23-.21,38.45-.28,57.68-.37,1.36,0,2.73.23,4.08.35.48.89.91,1.56,1.23,2.28q13.18,29.26,26.34,58.55,6,13.4,12,26.81c1,2.15,2.26,4.23,1.9,6.54-.48.52-.7.93-1,1.09q-11.9,5.72-23.81,11.39c-1.61.76-3.41,1.23-4.33,3.26,2.17,2,4.74,1.46,7.75,1.39a20.93,20.93,0,0,1,2.15-2.6c7-6.32,16.32-6.2,23.2.39a20.67,20.67,0,0,0,6.47,4.22c6.63,2.78,13.21,5.69,19.83,8.52C1108,414.35,1108.42,414.15,1109.24,414Zm186.44,528.13a5.85,5.85,0,0,0,.74-1.29c2-11.6,4.12-23.2,6-34.82a82.1,82.1,0,0,0,1-10.74,11.39,11.39,0,0,0-4.85-10.31c-2.15,8.24-2.44,16.49-4.81,24-2.28,1.33-4.33.92-6.28.93-14.8.11-29.59.14-44.39.21-1.55,0-3.09.16-4.56.25-.73,5-.87,25-.27,34.15,2.92,4.88,5.92,10.07,9.09,15.15a14.91,14.91,0,0,1,2.36,7.92c0,3.6.13,7.19.29,10.79a25.9,25.9,0,0,0,.62,3.48c3.31,0,6.31.08,9.3,0s5.95.48,8.94-.56c6-12.68,13-24.76,18.23-38ZM666.1,831.76c-6.33-8.35-14.77-15-20.82-23.59-.13-4.24-.2-8.24-.41-12.23a19.41,19.41,0,0,0-.75-3.36,72,72,0,0,0-10,.1c-.28,2-.53,3.75-.76,5.51-.85,6.53-1.17,13.18-2.65,19.57-3.25,14-6.18,28.06-8.88,42.18-1.24,6.46-3.11,12.79-4.77,19.5,1.33,3-.24,6.92,2.21,9.88,2.52,0,1.05-4.36,4.52-3.23l1.87,3.27a11,11,0,0,0,1.79.31q18,0,36,0a13.07,13.07,0,0,0,2.62-.52C666.77,883.24,666.75,837.5,666.1,831.76ZM617,1410.36c.63,2.28,1.22,4.39,1.81,6.51a181.9,181.9,0,0,1,4.15,18.07c1.53,8.84,3.61,17.58,5.48,26.36.87,4.1,2,8.15,2.66,12.28,1,6.31,1.6,12.67,2.41,19,.2,1.54-.09,3.24,1.54,4.72,1.31-.08,2.89-.12,4.45-.32s3.41-.57,5.28-.9c.2-5.1.39-9.87.58-14.94,6.2-8.39,14.57-15.09,21.19-23.86,0-18.13,0-36.5,0-54.88a6.06,6.06,0,0,0-.52-1.69,6.86,6.86,0,0,0-1.74-.47q-18.88,0-37.77,0a3.13,3.13,0,0,0-1.05.4c-1,1-1,3.3-3.31,2.81l-2.45-3.55C616.81,1403.33,618.45,1407.29,617,1410.36ZM1293.85,1380c2,8.45,2.7,16.57,4.9,25,3-3.11,4.82-6.15,4.67-9.91a121.59,121.59,0,0,0-1.27-13.74c-1.31-8.5-2.89-16.95-4.4-25.42-.48-2.73-1.1-5.43-1.65-8.12l-9.15-1.65c-3.12-6.42-6.06-12.77-9.25-19-3.26-6.38-5.54-13.26-9.76-19.51-5,0-10,0-15,0a14.5,14.5,0,0,0-2.85.62c-.09,3.5-.36,6.7-.21,9.88a24.52,24.52,0,0,1-4.53,15.21c-2.67,4-5,8.2-7.39,12.27,0,10.39,0,20.6,0,30.81a9.38,9.38,0,0,0,.74,2.36C1257.08,1379.08,1275.28,1378.38,1293.85,1380ZM737.39,989.41c4.29,4.23,9.06,7.28,12.72,12,0,1.86,0,3.85,0,5.85q.1,33,.22,66.07c0,3.2,0,6.4.08,9.61,0,1,0,2,1.7,2.4l4.31-3.36c.09-1.74.23-3.13.23-4.52q0-45.65-.08-91.29a1.23,1.23,0,0,0-.15-.56,5.15,5.15,0,0,0-.57-.68,15.44,15.44,0,0,0-2.09-.26q-39.94,0-79.89,0a11,11,0,0,0-2.56.59,6.61,6.61,0,0,0-.19,1q-.2,24-.37,48c0,.6,0,1.2-.07,1.8a4.22,4.22,0,0,1-.32,1.14c-.06.18-.26.3-.4.45l-1.14.28c-1.29-1.56-.8-3.44-.82-5.17-.12-13.62-.15-27.23-.26-40.85,0-1.95.48-4-.59-5.82a36.56,36.56,0,0,0-13.92.13c-.09,1.67-.27,3.42-.27,5.18q0,24.33,0,48.65c0,1.8.06,3.6.17,5.4,0,.28.45.53.78.9l4.11-2.25c4.25,1.32,8.49,2.38,12.07,4.68.86,5,1.16,21.65.6,32.61a15.44,15.44,0,0,1-.57,2.43l-7.59.94a230.92,230.92,0,0,0,19.54,20.69h5.82c-2.9-4.62-7.73-7.35-9.53-11.57a34.5,34.5,0,0,0,1.27-4.57,38.18,38.18,0,0,0,.1-4.79q.13-38.74.26-77.48c0-2.19.12-4.38.18-6.37,3-4.11,5.52-8.2,9.41-11.29C705.44,989,721.23,989,737.39,989.41Zm487,153.21a19.59,19.59,0,0,0,2.11.27q22.83,0,45.65,0a17.48,17.48,0,0,0,3-.58c0-8.48-.09-16.68,0-24.88a28,28,0,0,0-2-11.72,40.2,40.2,0,0,1-3.12-17.52c.2-6.18-.17-12.38-.29-18.55-6-7.19-11.39-14.62-19.61-20-.07,2.45-.15,4.43-.18,6.4-.1,7.21-.15,14.42-.31,21.62-.05,2.17-.38,4.33-.53,6-4.63,4.48-8.84,8.47-13,12.56s-8.69,7.67-12,12.19C1223.64,1117,1223.74,1137.27,1224.38,1142.62Zm50.74,4.14c-6.26-.36-11.83-.16-17.39-.2s-11.2-.1-16.8,0-11.08-.49-16.49.43c-.82,6-.75,30,.06,35.1l24.84,24.2c.79,11,.45,21.77.76,33a22.4,22.4,0,0,0,3-1.45c6.83-4.78,11.25-11.79,16.72-17.75.13-7.85.35-15.44.35-23,0-3.25.23-6.46,1.62-9.36,3.13-6.52,3.69-13.38,3.38-20.45-.15-3.39,0-6.8,0-10.2ZM1035.7,424.86c-3.44-2.09-6.47-1.43-9.43-1.23-2.39.17-4.77.48-7.15.74-3.57.4-7.18.57-10.69,1.27-5.44,1.1-10.94,2-17,4.32,7.78.93,14.59,2.37,21.07,5.14,3.86,1.65,7.83,3,11.69,4.67a8.51,8.51,0,0,1,3.43,2.26c2.78,3.65,5.36,7.45,7.94,11.25a5.61,5.61,0,0,1,.68,2.28c1,6.51,2.33,13,2.33,19.61q0,29.71.23,59.42c0,1.95-.47,4,.72,6.09a25.09,25.09,0,0,0,2.77.37c15.47.5,41.46.2,46.83-.54a6.54,6.54,0,0,0-.32-1.63Q1062.27,481.84,1035.7,424.86ZM1322,742c-5.73-10-11.3-19.71-16.77-29.26-.29-2.78-.56-5.35-.84-8.05q-47.68-57.92-95.37-115.8c-.22-.27-.68-.34-1.38-.66-4.11,3.1-8.44,6.2-12.23,10.44,1,1.43,1.85,2.75,2.84,4q23.82,29,47.68,57.91,36.21,44,72.41,88.09c.54.66.84,1.8,2.36,1.35C1321.17,747.25,1321.62,744.52,1322,742ZM881.32,459.23a18,18,0,0,0-1.07,3.09c-.58,5-1.41,9.89-1.32,14.92.13,6.8,0,13.6,0,20.41,0,13.8,0,27.61-.1,41.41,0,1.73.48,3.61-1.05,5.39-1.2.08-2.57.24-3.93.25-4.81,0-9.61,0-14.41.08a30.21,30.21,0,0,0-3.45.45,33.3,33.3,0,0,0,.09,9.64c4.29,1.51,59,5.42,66.35,5.69.81-1.73-.48-3-1-4.41-2.38-5.92-5.34-11.61-6.49-18-1.27-7.07-3.55-14-3.13-21.28.21-3.78-1-7-2.9-10.19-6.56-11.2-13-22.47-19.54-33.72C886.84,468.67,884.32,464.37,881.32,459.23ZM614.66,885.53a10.52,10.52,0,0,0-2.94,8.18c.27,5.19.45,10.39,1,15.55.78,7.56,1.82,15.09,2.81,22.62.45,3.35,1.05,6.68,1.61,10.2l6.67,1.67c2.68,6.53,5.09,12.87,7.86,19,2.83,6.33,5.15,12.92,8.59,19.06,4.27,0,8.26,0,12.26,0a25.38,25.38,0,0,0,3.44-.52c.15-4.91.4-9.5.41-14.09a17.26,17.26,0,0,1,2.34-8.58c1.87-3.3,3.71-6.62,5.59-9.93a16.39,16.39,0,0,0,2.29-8.56c-.13-8.8,0-17.61,0-26.42a24.45,24.45,0,0,0-.55-3.58c-15.86-.18-31.45.17-46.68-.46-.58-.7-1-1-1.07-1.31C617.05,900.91,615.89,893.41,614.66,885.53Zm41.26,422.28c-5.84-.16-11-.62-16.36.29-4.91,12.72-11.25,24.74-15.53,37.81l-6.78,1.92a12.15,12.15,0,0,0-.56,1.81q-1.74,12.46-3.45,24.92a130.5,130.5,0,0,0-1.49,20.89,24.81,24.81,0,0,0,1,5.84c.21.76,1.14,1.33,2,2.22,1.64-8.07,1.89-15.88,3.73-23.62,5.48-.26,10.64-.59,15.81-.75,5.39-.16,10.79-.12,16.19-.26,5.15-.13,10.34.42,15.41-.39.94-4.43,1.13-24.52.34-33.89-2.15-4-4.26-8.3-6.75-12.38a20.62,20.62,0,0,1-3.15-11.34C656.34,1316.72,656.07,1312.55,655.92,1307.81Zm178.8,386.62h250.14c2.63-2.61,5.35-5.26,8-8,.59-.61,1.71-1.12.86-2.66h-5.82l-261.84.12a1,1,0,0,0-.55.22c-.12.09-.18.27-.36.58C827.85,1688.38,831.34,1691.33,834.72,1694.43Zm-178.7-645c-7.81,5.78-12.26,13.15-17.32,20-.14,7.6-.37,15-.36,22.37a32.55,32.55,0,0,1-1.88,11.74,34.08,34.08,0,0,0-1.94,12.93c.16,7.59,0,15.19.06,22.78,0,1.15-.33,2.43.76,3.33a4.75,4.75,0,0,0,1.14.31q20.1,0,40.18,0a9,9,0,0,0,2.28-.68c0-11.79,0-23.36,0-34.41-7.23-8.84-15.37-16-22.18-24.37C656,1072.29,656.23,1061.3,656,1049.45Zm701.22-5.2c-.52,2.14-.29,4.53-.29,6.88q0,100,0,200c0,1.6,0,3.2,0,4.8,0,.95.27,1.9.45,3.16H1362c.18-1.94.42-3.7.5-5.46.42-9.2.84-18.39,1.18-27.59.57-15.59,1.07-31.19,1.64-46.79.1-2.78-.06-5.6.86-8.49l7.53-7.69v-6.64q0-18.6,0-37.22,0-34.53,0-69.06c0-2.14.44-4.37-.52-6.42a9.13,9.13,0,0,0-1.9-.4q-6.3.14-12.59.37A5.16,5.16,0,0,0,1357.24,1044.25ZM656.61,1206.09c7.38-8.39,15.41-15.93,22.33-24.39,0-10.83,0-21.43,0-32a15.05,15.05,0,0,0-.55-2.85c-1.26-.1-2.25-.24-3.23-.24l-39,.15a1.29,1.29,0,0,0-.58.13,6.06,6.06,0,0,0-.78.68c0,1.08-.18,2.44-.19,3.8,0,7.2.1,14.41,0,21.62a33.87,33.87,0,0,0,2,12.94,31.71,31.71,0,0,1,1.85,11.77c-.06,6,.12,12,.23,18,0,1.59.18,3.18.28,4.76,3.31,4.4,6.49,8.76,9.82,13a20.36,20.36,0,0,0,7.13,5.94c.52-4.05.24-7.62.31-11.16.08-3.8.09-7.61.17-11.41C656.36,1213.22,656.5,1209.63,656.61,1206.09Zm703.26,244.68c1.39-20.54,2.86-40.25,4.25-60,1.42-19.91,2.84-39.82,4.27-59.51l-8-7c-1.2-3.27-.95-6.07-.81-8.87q.46-8.68.83-17.38c.16-3.8.21-7.6.37-11.4.27-6.59.61-13.18.86-19.78a23.08,23.08,0,0,0-.32-3.33c-1.69-.82-3.08-1.72-5.08-.48-.22,3.34-.42,6.91-.7,10.48-.64,8.37-1.37,16.74-2,25.11-.56,8-1,16-1.51,24-.41,6.18-.89,12.36-1.34,18.55q-1.08,14.65-2.13,29.31c-.5,7-.94,14-1.46,21-.62,8.18-1.33,16.34-1.95,24.52q-1.14,15.26-2.16,30.51a5.53,5.53,0,0,0,.52,1.73C1348.5,1450.16,1353.85,1449,1359.87,1450.77Zm-124.56-369.56c0-31.32,0-63.14,0-95,0-.34-.3-.69-.64-1.39-.76-.06-1.72-.19-2.68-.19q-43.54,0-87.08,0a15.6,15.6,0,0,0-2.72.45c-.59,6.41-.49,92.18.12,97.21l7.62,5.24c.08-2.6.18-4.56.18-6.52,0-12.81,0-25.62,0-38.44q.08-18.61.28-37.23c0-1.77.24-3.54.36-5.23,4.53-3.74,8.49-7.7,13-10.56,11.48-.85,45.12-.69,51.66.29,3.2,3.37,6.74,6.88,9.44,11.32,0,1.94,0,3.94,0,5.94q.09,32.13.2,64.26,0,8.4.1,16.81c0,1-.09,2,1.29,2.41ZM691.24,544.72l-.36-1.28c2.94-1.07,4.3-3.54,5.88-5.8,2.54-3.6,5-7.25,7.49-10.88q15.18-22,30.36-44,17.76-25.69,35.58-51.34,15.75-22.69,31.47-45.41c4.32-6.25,8.6-12.54,13-19-.31-1.76.81-3.65-.39-6.17Q750.11,453.57,687,544.73c-.5,2.42-.85,4.09-1.25,6a10.44,10.44,0,0,0,2.16.69c5,.46,10,.9,15,1.26,7.78.57,15.57,1.06,23.35,1.62q8.09.59,16.15,1.3c7,.6,13.94,1.33,20.91,1.89,7.78.61,15.57,1.06,23.36,1.63,5.19.37,10.37.82,15.55,1.25q13.16,1.08,26.31,2.18c7.57.65,15.13,1.37,22.71,2,6.58.54,13.16,1,19.75,1.46,7.38.53,14.77,1,22.15,1.58,8.57.68,17.14,1.42,25.71,2.16,2.58.23,5.16.55,7.75.79.72.06,1.61.33,2-1.09l-2.88-4.36a27.9,27.9,0,0,0-4-1c-5.38-.5-10.76-.91-16.15-1.29-7.58-.55-15.16-1-22.74-1.58-5.19-.38-10.37-.82-15.55-1.29-7-.62-13.92-1.37-20.89-1.92-7.58-.61-15.17-1-22.75-1.58q-8.07-.58-16.14-1.3c-7-.62-13.93-1.37-20.9-1.93-7.58-.6-15.17-1-22.75-1.59q-7.77-.55-15.54-1.24c-12-1.05-23.89-2.14-35.84-3.18-6.38-.55-12.76-1-19.13-1.59A7.12,7.12,0,0,1,691.24,544.72Zm89.91,82.37c2.46.86,4.62.58,6.72.58q64.26,0,128.53,0,38.15,0,76.28,0a25,25,0,0,0,3-.05c1-.13,2.24.47,3-.57l-21.13-10.2c-7.49-.52-182-.41-186.74.18C787.65,620.06,784.06,622.91,781.15,627.09Zm578,346.2c-1.36-10.26-1.92-20.23-2.69-30.18-.75-9.77-1.61-19.52-2.42-29.28-.83-10-1.54-19.93-2.54-29.87s-1.46-19.86-2.7-30a22.92,22.92,0,0,0-3.76.05,6.89,6.89,0,0,0-2,1.25c.27,3.51.55,6.88.77,10.25.56,8.37,1.07,16.75,1.63,25.13.38,5.59.76,11.17,1.2,16.75.6,7.57,1.33,15.13,1.87,22.7.61,8.37,1,16.76,1.59,25.14q.68,10.17,1.45,20.33c.59,7.77,1.28,15.54,1.82,23.31.6,8.58,1.06,17.16,1.63,25.74.25,3.79.57,7.57.92,11.35.11,1.16.44,2.3.64,3.35,6.31,1.11,12.62.83,16.65-.7-.67-9.94-1.15-19.92-2.07-29.86s-.78-20-2.63-29.69Zm-291.7-585.08c-1.1-5.43-4-9.81-5.92-14.57s-4.67-9.28-6-14.55l4.24-5.47c-4.13-11-23.32-53.25-26.25-57.63-1,0-2.22,0-3.41,0a13.64,13.64,0,0,0-2,.4c1.25,2.66,2.38,5.2,3.62,7.68q9,18,18,36c.79,1.58,2,3.07,1.13,5.68-6.56,5-14.5,8.88-21.56,14a10.66,10.66,0,0,0-.33,1.85q0,19.23.05,38.46a9.23,9.23,0,0,0,.56,2.23h12.83c3.44-3.59,7.65-5.81,12.07-7.77S1062.94,390.41,1067.44,388.21ZM681.33,1184.47c-5.53,5.67-11.32,11.46-16.63,17.71-.47.55-1.2,1.09-.53,2,2.1,1,4.86-.28,7,2.14-.12,38.69-.23,77.68-.37,116.66,0,1.17-.2,2.34-.29,3.43-2.85,1.74-6,1.12-9,2.33a134.49,134.49,0,0,0,8.23,14.72h5.77l4.28-4.08v-6.93q0-37.5,0-75,0-29.1.18-58.21c0-2.18.16-4.35.23-6,2.42-3.19,5.09-5.37,7-8.76Zm665.25-364.29,7.92-9.77c-.15-2.9-.12-5.71-.46-8.47-1.39-11.12-3-22.2-4.31-33.33a34.11,34.11,0,0,0-7.55-18q-15.77-19.3-31.65-38.53c-.45-.55-.8-1.41-2.26-1,5.47,10.46,12,20.24,17.18,30.51-.71,4.46-1.37,8.59-2.06,12.9,1.9,2.35,3.71,4.74,5.67,7a16.71,16.71,0,0,1,4,9.81c.76,8,1.85,15.89,2.83,23.83,1,8.54,2.12,17.07,3.17,25.61.94,7.54,1.83,15.09,2.81,22.63.31,2.35.84,4.67,1.27,7a7.53,7.53,0,0,0,2,.15,31.28,31.28,0,0,0,3.21-1C1348.75,839.93,1346.59,830.47,1346.58,820.18Zm-114.73,383.3c.21-.57.4-1.08.64-1.71,3.22.41,5.54,4.61,9.52,1.93-6.46-6.87-13.39-13.16-20.39-19.47-1.51.08-2.88.15-4.25.24,0,0,0,.32,0,.71l7.58,8.45c0,3.19,0,6.39,0,9.58,0,3.41.09,6.81.11,10.21,0,3.2,0,6.4,0,9.61v97.85c0,3.4,0,6.81,0,10.21,0,3.11-.1,6.23.16,9.36.57-.08.87,0,.93-.15,3.09-4.88,6.16-9.78,9.07-14.44v-118ZM987.64,1377.26,950,1367.05a10.87,10.87,0,0,0-5.9.28c-6.14,1.71-12.31,3.33-18.48,5l-17.61,4.75c-2.28,4.36-4.73,13.49-4.87,18.08,2.47.18,4.61-1,6.83-1.68,4.38-1.36,8.67-3,13.28-3.47,2.79-.27,5.57-.49,8.36-.63,5.39-.28,10.77-.71,16.16-.67,6.38,0,12.77.53,19.15.79a48.09,48.09,0,0,1,13.51,2.36c3.22,1.08,6.46,2.08,9.7,3.07.71.22,1.53.62,2.35-.63C991,1388.86,989.86,1383,987.64,1377.26Zm77.93,19.06c.75.07,1.53.19,2.31.19q42.58,0,85.18-.12a1.19,1.19,0,0,0,.58-.15,5.62,5.62,0,0,0,.75-.78c0-1.76.2-3.93.15-6.09s.37-4.36-.35-6.24a4.33,4.33,0,0,0-.82-.44,21,21,0,0,0-2.37-.2q-50.4.06-100.79.15a1.68,1.68,0,0,0-.58.13c-.18.08-.34.2-.87.52a103.35,103.35,0,0,0-7.24,12.63c5.11.85,15.46.9,16.71.12l1.79-3h3.67C1064.34,1394.17,1064.91,1395.18,1065.57,1396.32ZM872.27,348.22c9.09,0,17.86,0,26.64,0,.3,0,.6-.46.91-.7a6.9,6.9,0,0,0,.19-1.18q0-24,0-47.94a11.37,11.37,0,0,0-.6-2.43c-9,.06-17.74-.25-26.5.22-.31,0-.6.45-.9.69C871.5,303.5,871.62,342.76,872.27,348.22ZM750.72,1653.81c1.18.15,1.77.3,2.36.3q205.13,0,410.25,0c1.39,0,2.79-.09,4.19-.14a2.38,2.38,0,0,0,.59-.12c.19-.06.36-.16.94-.41l2.54-2.74c-2.2-.1-3.73-.22-5.25-.23-88.8-.64-411.92-.29-418.2.5Zm241.74-759c-4.33,1.33-8.08,2.55-11.87,3.62a59.17,59.17,0,0,1-8.13,1.91c-4.16.54-8.37.64-12.54,1.09-12.64,1.37-25.18-.45-37.75-1.11L907.22,896c-.77-.22-1.55-.42-2.33-.6s-1.43-.86-2.1.44q2.15,7.8,4.41,16.11c6.68,2.61,13.57,3.89,20.25,5.87S941,921.29,947.71,923c11.7-3.13,23.27-6.22,34.85-9.34,1.9-.51,4-.72,5.65-2.54C989.62,906.09,991.21,900.79,992.46,894.77Zm-145.9,487.9c-1.33-.07-2.51-.18-3.69-.19-4.19,0-8.39,0-12.59,0q-39.57,0-79.15,0c-1.92,0-4-.6-6,1,0,2.08-.09,4.28,0,6.46s-.57,4.36.83,6.6h54q14.38,0,28.78-.1a3.6,3.6,0,0,0,1.11-.41l1.6-3.35,4.41.44,1.92,3.42c2.76,0,5.35,0,7.94,0s5.41.26,8.52-.41ZM746.91,639.32h8l120.14,0h272.71c7.21,0,14.41-.13,21.62-.24.24,0,.48-.42,1-.86l-2-2.08c-1.31-.08-2.5-.23-3.69-.23q-39.94,0-79.89-.06a18.43,18.43,0,0,0-4.77.39c-3.34.93-6.73.88-10.12,1.08s-6.77.6-10.16.74a69.11,69.11,0,0,1-9-.07c-10-1-19.85-2.22-29.88-2.22q-132.15.06-264.31,0h-5.9ZM1153.76,906c1.06-4,1.1-7.2.16-12.22-4.54-.67-81.76-.79-88.14-.12l-1.94,3h-4.1c-.61-1.13-1.15-2.14-1.75-3.28h-16.41a34.22,34.22,0,0,0,3.36,6.56c1.19,2,2.45,4.07,3.55,5.9C1054.18,906.7,1148.45,906.76,1153.76,906Zm-408.45.13c1.88.15,3.24.32,4.61.34,36.77.6,90.73.32,97-.52a76.19,76.19,0,0,0,6.92-12.51H838.47c-.59,1.1-1.15,2.11-1.78,3.28h-4.23L830,893.53a17.16,17.16,0,0,0-1.92-.22q-40,0-79.92,0a16.22,16.22,0,0,0-2.86.53Zm79.8-301.29c.4.37.51.56.64.57a11.8,11.8,0,0,0,1.78.18q66,0,132-.1a1.27,1.27,0,0,0,.58-.13c.11-.06.16-.24.39-.64l-11.73-9.39c-23.09-.65-108.49-.41-114.49.31C831.17,598.61,828,601.63,825.11,604.87Zm517.67,847.67c-.87,6.65-1.69,12.78-2.45,18.9q-1.65,13.07-3.22,26.12-1,8.32-1.78,16.66c-.11,1.11-.58,2.38.94,3.62,3.74.46,7.87,1,12,1.44a14.67,14.67,0,0,0,3.48-.5c1.25-10,2.47-19.67,3.67-29.35q1.69-13.65,3.35-27.31c.33-2.73.74-5.47,0-8.57C1353.52,1453.66,1348.55,1451.84,1342.78,1452.54Zm25.8-478a11.25,11.25,0,0,0,.41-1.91c-.39-6-.82-12-1.21-18q-1.41-21.24-2.81-42.48c-.1-1.6-.24-3.19-.36-4.79-.6-7.77-1.23-15.54-1.77-23.31-.59-8.58-.83-17.19-1.7-25.73-1.39-13.71-3.16-27.38-4.81-41.07,0-.29-.48-.53-.94-1a11.09,11.09,0,0,0-4.94,6c.45,5.43,1,11.21,1.42,17,.53,6.58,1,13.15,1.53,19.73.54,7,1,14,1.62,20.93.66,8,1.38,15.92,2,23.89.58,6.77,1.1,13.55,1.69,20.32s1.25,13.53,1.81,20.3,1,13.56,1.59,20.33c.21,2.36.76,4.69,1.14,6.93ZM1149.74,1335c.74-10.83.53-127.31-.21-132.41a14.94,14.94,0,0,0-2.16,1.05c-1.79,1.26-3.53,2.59-5.11,3.76-.58,5.69-.68,111-.1,118.51C1144.32,1328.49,1146.73,1331.4,1149.74,1335ZM985.23,595.7c.21.33.33.8.62,1,4.59,2.44,9.21,4.83,13.81,7.24a14.31,14.31,0,0,0,6.9,1.71q42.35-.09,84.69-.11c.65,0,1.64.37,2-1.17-1.33-1.42-2.76-3-4.28-4.57s-3.18-3-4.5-4.23C1072.23,594.9,990.75,595.06,985.23,595.7ZM794.44,408.2v18.58q0,27,0,54c0,1.52-.53,3.22.86,4.47,1.2.19,2.39.48,3.63-.77.07-2.3,0-4.88.23-7.45.2-2.74-.26-5.59,1-8.55l8.3-2.92c-2-1.83-1.42-3.94-1.1-6a12.8,12.8,0,0,0,.06-2.4q-.39-9.57-.79-19.15c-.13-3.37-.79-6.77,1.13-9.95a5.77,5.77,0,0,0,.51-2.89q0-16.2-.09-32.38a10.61,10.61,0,0,0-1-2.68C802.58,396.06,799.11,402.12,794.44,408.2Zm575.33,763.59c-.18,1.36-.34,2.15-.37,2.94q-.83,21.58-1.63,43.16-.12,3.3-.28,6.6c-.57,12.18-1.24,24.36-1.72,36.54-.64,16.19-1.11,32.38-1.7,48.57-.1,2.79-.47,5.58-.59,8.37-.07,1.57.11,3.15.17,4.42,1.62,1.69,2.9,3.1,4.93,3.8a16.83,16.83,0,0,0,.79-2.64c.26-2.38.41-4.78.6-7.17.65-8.16,1.33-16.33,1.93-24.5.62-8.37,1.58-16.75,1.63-25.13.21-31.2.1-62.41.09-93.62,0-1.32-.15-2.64-.27-4.68ZM821.91,1680.16h268.74c1.8,0,3.61,0,5.4-.14.31,0,.6-.46,1-.82-.09-.63-.2-1.36-.34-2.32-1.4-.08-2.58-.2-3.75-.2q-135.15.06-270.3.17c-.34,0-.67.36-1,.55a3.47,3.47,0,0,0-.35,1.09A7.81,7.81,0,0,0,821.91,1680.16ZM975.45,296.35c-11.14-.87-25.52-.2-31.68,1.46-.07,1.49-.2,3.06-.2,4.63q0,12.58,0,25.17c0,2.2,0,4.4.1,6.59a5,5,0,0,0,2.33,4.43c4.37.12,9.14.36,13.92.36s9.54.63,13.88-.53c2-2.07,1.92-4.3,1.92-6.5q0-16.18,0-32.37C975.71,298.63,975.56,297.66,975.45,296.35Zm-219,912.08c-3-3.35-3-3.35-6-4.29-.05,2.48-.13,4.85-.13,7.23q0,56.67,0,113.33c0,1.6,0,3.2.07,4.8,0,.75-.07,1.64,1.17,2,3.42-2.66,5.47-6,5.09-10.65,0-.6,0-1.2,0-1.8q0-52.47,0-104.94C756.67,1212.1,756.55,1210.11,756.5,1208.43ZM951.18,1577.2c5.54-.64,11.11-1.1,16.61-2a70.84,70.84,0,0,0,18.76-6,69.47,69.47,0,0,0,15.57-10,53,53,0,0,0,11.44-13.77,43.74,43.74,0,0,0,5-12.76,45.76,45.76,0,0,0,.72-15.44,46.24,46.24,0,0,0-5.78-16.88c-6.91-12.3-17.68-20.49-30.27-26.3-12-5.55-24.91-6.93-38-7.38a11.92,11.92,0,0,0-2.39.06c-7.47,1.26-15,2-22.23,4.58-10,3.5-19,8.51-26.41,16s-12.58,16.49-14.09,27.17a44.71,44.71,0,0,0,6.3,29.91c6.81,11.34,16.83,19.29,28.65,24.71A90.32,90.32,0,0,0,951.18,1577.2ZM841.93,1701.66h235l2.33-2.89c-2.75-.83-5.16-.52-7.53-.52q-112.58,0-225.16,0c-2,0-4,0-6,.13-.29,0-.56.38-1.09.76ZM948.31,822.59c4.59-.3,9.2-.37,13.75-1a77.22,77.22,0,0,0,18.43-5.12A78.38,78.38,0,0,0,1000.07,805a53,53,0,0,0,12.89-14.9,49.2,49.2,0,0,0,5.6-13.79,44.36,44.36,0,0,0,.75-15.46,43.41,43.41,0,0,0-6.17-17.35c-6.85-11.3-16.86-19.27-28.95-24.31A76.37,76.37,0,0,0,952.05,713c-3.6.12-7.27-.31-10.79.23a98.84,98.84,0,0,0-21.45,5.37c-13,5.12-23.87,12.82-31.8,24.47a45.19,45.19,0,0,0-8.22,25.26c-.17,12.43,4.47,23,12.78,32a61.69,61.69,0,0,0,17,13.12A88.4,88.4,0,0,0,931,821C936.69,822.31,942.48,822.41,948.31,822.59Zm-14-377.46a9.08,9.08,0,0,0-1.7-.4q-19.2-.42-38.41-.78c-.68,0-1.66-.32-1.9.81a6.09,6.09,0,0,0,.35,1.14q10.46,18.21,20.94,36.4a10.12,10.12,0,0,0,1.59,1.66c2.73-7,4.93-13.88,8.09-20.29S930.54,451.34,934.29,445.13ZM1291,1382.89a21.09,21.09,0,0,0-2.61-.35q-24,0-47.93,0a11.91,11.91,0,0,0-2.48.59c0,2.36-.07,4.55,0,6.72s-.45,4.34.49,6.3c7.22.7,45.68.66,46.87,0l2-3c2.18-.39,3,.56,3.45,2.08.25.91.82,1.26,2,1C1293.43,1391.59,1291.89,1387.31,1291,1382.89ZM914,489.9q-31.77-55.29-63.66-110.71a6,6,0,0,0-1.26-1.19c-1.53.78-2.9,1.59-3.13,3.83.5,2.25,2,4.38,3.32,6.61q20.51,35.64,41,71.26,10.18,17.67,20.42,35.33c.46.78.69,1.89,2.11,1.57C913.22,494.67,913.56,492.7,914,489.9Zm323.9,404c0,2.29-.06,4.29,0,6.27s-.42,4,.55,5.78c4.75.77,37,1.1,49.74.51a26.32,26.32,0,0,0,3.1-.52c.59-3.48,1.18-6.79,1.69-10.11a3.55,3.55,0,0,0-.25-1.73c-.1-.26-.59-.36-1.08-.63-.9,1.17-1.83,2.36-2.7,3.47l-2.17-.29-1.55-3C1278.82,893.06,1243.52,893.15,1237.94,893.87ZM996,275.73c-1.41-.09-2.37-.2-3.34-.21-3.6,0-7.2-.06-10.8,0q-31.8.44-63.59.93a20.85,20.85,0,0,0-3.38.63c0,2.7-.23,5.06.7,7.53,26.52.69,52.86-1.62,79.23-1.08a1,1,0,0,0,.54-.2,4.78,4.78,0,0,0,.64-.65ZM666.4,1382.79c-8.81-.62-40.58-.46-45.13.19-1.53,3.66-1.16,7.74-1.92,11.6-.09.44.32,1,.5,1.49,1.82-.43.79-3.47,3.64-3l2.45,3.42c12.64,0,25.2,0,37.77,0a13.4,13.4,0,0,0,2.71-.62A112.07,112.07,0,0,0,666.4,1382.79ZM1193,595.29c4.91-3.11,8.59-6.7,12.53-10a7.75,7.75,0,0,0-.75-1.9q-12.13-14.85-24.35-29.64c-.55-.67-1-1.71-2.56-1.24l-5.9,17.72C1178.82,578.36,1185.25,587,1193,595.29ZM1016.44,792.64l-.67-.32c-1.17,1.56-2.33,3.13-3.52,4.68a67.1,67.1,0,0,1-15.64,14.77,85.95,85.95,0,0,1-40.35,13.92,104.27,104.27,0,0,1-21.53-.76c-12.35-1.68-23.44-6.31-33.92-12.77a13.48,13.48,0,0,1-1.89-1.47c-5-4.37-9.92-8.74-13.68-14.27-.31-.46-.57-1.55-1.73-.89a7.75,7.75,0,0,0,.48,1.69c6.11,11.31,15.31,19.44,26.69,25.06,11.07,5.47,22.8,8.55,35.27,8.28,3-.07,6-.1,9-.09A52.24,52.24,0,0,0,966.83,829c15.36-3.46,29-10,40-21.58a67.09,67.09,0,0,0,9.07-12.64A7.42,7.42,0,0,0,1016.44,792.64Zm-.37,704.71c.82-1.48,0-2.48-.59-3.47A61.69,61.69,0,0,0,997.59,1474a76.57,76.57,0,0,0-27.6-12.59c-5.29-1.25-10.62-1.65-16-2.4-6.88-1-13.64-.09-20.27.89a72.49,72.49,0,0,0-33,13.46A58.82,58.82,0,0,0,883,1494.06a14,14,0,0,0-.51,2.44c1.47-1.89,2.45-3.07,3.34-4.32a64.8,64.8,0,0,1,20-17.75,78,78,0,0,1,35.82-10.61,92.67,92.67,0,0,1,24.46,1.46,90.12,90.12,0,0,1,25.16,9.21,77.51,77.51,0,0,1,14.86,11.07,51.71,51.71,0,0,1,5.19,5.76C1012.92,1493.28,1014.08,1495.6,1016.07,1497.35ZM666.3,905.91c.24-4.24.81-8.31-.35-12.46H625.64c-.52.95-.95,1.82-1.48,2.63-.19.3-.62.45-.94.66l-1.21-.11c-.58-.91-1.18-1.86-1.8-2.79,0-.06-.34.06-.57.09-.85,2,.06,3.91.39,5.83.35,2.11-.18,4.42,1.24,6.24,4.28.58,34.59.93,42.55.48A18,18,0,0,0,666.3,905.91Zm17.1-349.58c3.82.42,7.38.91,11,1.19,7.58.59,15.17,1,22.75,1.61,9.36.72,18.72,1.52,28.09,2.29,1,.08,2,.12,3,.21,7,.63,13.93,1.33,20.9,1.89,7.58.6,15.16,1,22.74,1.59,5.39.39,10.77.8,16.15,1.28,6.77.6,13.52,1.35,20.29,1.89,7.78.62,15.57,1.07,23.35,1.6.6,0,1.19.11,1.79.16,7.17.63,14.33,1.32,21.5,1.88,7.58.6,15.17,1,22.74,1.6,9.37.71,18.73,1.5,28.1,2.26l6.88.58c-3-2.37-3.18-2.43-6.23-2.69l-14.34-1.19-29.88-2.4-29.88-2.41c-10.16-.82-20.32-1.66-30.48-2.42-7.78-.58-15.56-1-23.34-1.57-.6,0-1.2-.07-1.8-.13-6.56-.64-13.12-1.37-19.69-1.9-7.77-.62-15.56-1-23.34-1.58-5.38-.38-10.76-.83-16.14-1.27L710,556.52c-1.59-.13-3.18-.37-4.77-.51-6.37-.54-12.74-1.09-19.12-1.58C685.16,554.35,684.1,554.46,683.4,556.33ZM856,583.81c9.43.36,18.4.13,27.37.17q13.81.06,27.64,0c8.88-.05,17.77.25,27.36-.3a20.91,20.91,0,0,0-2.51-2.64,9.7,9.7,0,0,0-5.13-1.43c-7.18-.44-14.36-1-21.54-1.48q-8.37-.61-16.74-1.32-12.24-1-24.48-2.13c-3-.26-6-.63-8.95-.89-1-.08-2-.43-3.05.71A42,42,0,0,0,856,583.81Zm75.21-18.62A42.79,42.79,0,0,0,939,578.87c10.88,13.24,23.3,24.78,38.25,33.36,4.34,2.49,8.54,5.28,13.08,7.34a167.12,167.12,0,0,0,42.83,13.17c3.35.54,6.82.36,10.14,1,7.77,1.46,15.58.92,23.36.56a127.42,127.42,0,0,0,14.28-1.65,124.27,124.27,0,0,0,31-9.06,20.18,20.18,0,0,1,2.23-.87,23.18,23.18,0,0,0,7.84-4.31c-1.11-.75-2-.11-2.85.28-4.77,2.08-9.38,4.69-14.35,6.06-8.83,2.43-17.62,5.39-26.85,6-6.58.43-13.09,1.9-19.72,1.44-3.59-.25-7.17-.68-10.77-.82a70.41,70.41,0,0,1-13.1-1.35c-5.64-1.29-11.5-1.85-17-3.59-10.26-3.26-20.65-6.31-30.07-11.82-3.79-2.22-7.94-3.87-11.58-6.3-9.83-6.54-19.33-13.5-27.53-22.15A149.61,149.61,0,0,1,934.69,570C933.54,568.39,932.35,566.8,931.17,565.19Zm-109.61,47.5H970.5l-4.26-3.21q-71.68,0-143.42,0c-.35,0-.7.33-1.26.61Zm476.83,801.54c-1.87,5.72-4,11.52-5.65,17.48-2.3,8.48-4.2,17.07-6.25,25.62-.32,1.35-.49,2.74-.75,4.16l3.08,4c-2.14,4.16-5.08,7.73-7.59,12-.79,6.21-1.41,12.79-2.51,19.29-1.27,7.5-1,15.19-3,22.58-.17.64-.28,1.68,1.18,1.87a28.52,28.52,0,0,0,6.21-7c.45-4.17.83-7.75,1.22-11.32.49-4.38,1.06-8.74,1.44-13.12a165.14,165.14,0,0,1,4.37-26.59c1.74-6.76,2.93-13.67,4.35-20.52,1.78-8.6,2.7-17.39,5.51-25.77a12.26,12.26,0,0,0,.25-2.89Zm-22.87-646.89A11.5,11.5,0,0,0,1276,773a27.81,27.81,0,0,1,1.47,6.4c.6,5,.91,10,1.52,14.91.77,6.34,1.72,12.66,2.5,18.32,2.76,4.06,5.52,7.25,7.12,11.14-1,1.47-1.9,2.78-2.9,4.25.43,1.91.85,3.85,1.32,5.79,1.37,5.63,2.85,11.24,4.12,16.89a147.91,147.91,0,0,0,6.45,21.84c.44,1.14.42,2.9,2.71,3.05-.21-1.42-.31-2.78-.62-4.08-1.13-4.86-2.66-9.61-3.34-14.61-.83-6.13-2.08-12.21-3.36-18.27s-2.82-12.07-4.21-18.11a71.84,71.84,0,0,1-1.56-7.64c-1-8.34-1.82-16.7-2.72-25-.46-4.37-1-8.73-1.43-13.11C1280.51,772.4,1278.62,769.53,1275.52,767.34ZM660.26,1245.07a14.26,14.26,0,0,0-.37,1.88q0,27.3,0,54.61a8.21,8.21,0,0,0,.52,2.09c4.46.33,4.46.33,7.24-.72q0-29,0-58.12a7.1,7.1,0,0,0-.62-1.9C664.46,1242.84,662.49,1244.23,660.26,1245.07Zm10.08,211.73c2.56-.63,5,.51,7.35-1q0-26.68,0-53.3a6.57,6.57,0,0,0-.42-1.61c-3.73-.79-3.73-.81-6.92.11C669.63,1405.83,669.55,1449.91,670.34,1456.8Zm-.22-623.15a20.34,20.34,0,0,0-.3,2.45q0,25.17,0,50.32a15.7,15.7,0,0,0,.52,2.86c2.57.43,4.87.8,7-.33a14,14,0,0,0,.31-2q0-25.46,0-50.92a11.42,11.42,0,0,0-.65-2.7C674.57,833.29,672.4,832.88,670.12,833.65Zm467.63,411.17a28.17,28.17,0,0,0-2.75-1.7c-1-.48-2.09-.78-3.23-1.19-.72,6.71-.59,56.82.15,61.67a10.78,10.78,0,0,0,5.58.1C1138.22,1298.83,1138.41,1252.87,1137.75,1244.82ZM766,1047.66c.12-1.1.28-1.87.28-2.64q0-28.14,0-56.29a15.44,15.44,0,0,0-.46-2.72c-2-.61-3.75-.86-5.37.18-.74,5.12-.76,52.14,0,58.23,1,.7,2.08,1.54,3.25,2.27A15.35,15.35,0,0,0,766,1047.66ZM760.45,1245c-.76,5.76-.71,53.42.06,58.6a7.4,7.4,0,0,0,5.51-.21,15.68,15.68,0,0,0,.29-2q0-28.52,0-57c0-.73.19-1.65-1.22-2.09Zm479.24-2.31c-.78,7-.69,56,.09,61.09,2,0,4.09.65,6.14-.39a16.79,16.79,0,0,0,.3-2q0-26.71,0-53.43a22.68,22.68,0,0,0-.43-3Zm0-257a17.08,17.08,0,0,0-.46,2.33q0,28.23,0,56.46c0,.72-.12,1.62,1.3,2.09l5.39-2.43a18.15,18.15,0,0,0,.29-2.16q0-26.73,0-53.46a13.79,13.79,0,0,0-.6-2.83ZM848.05,1488.55c.43-4.19,1-8,1.15-11.72.32-9.18.41-18.36,1.28-27.54a55.09,55.09,0,0,1,2.78-14c.46-1.25.74-2.57,1.48-5.18a28.57,28.57,0,0,0-3,2.75c-3.13,4.14-6.07,8.43-9.33,12.47a13.18,13.18,0,0,0-3.21,9.38c.22,3.57.62,7.14,1.07,10.7.58,4.55,1.28,9.06,3.32,13.28,1.21,2.51,2,5.22,3,7.81A12.93,12.93,0,0,0,848.05,1488.55Zm0-687.31c-.92,2-1.65,3.45-2.22,4.92-1.44,3.71-3.2,7.35-4.1,11.19-1.17,5-1.68,10.2-2.39,15.32a13,13,0,0,0,.11,3.57c.31,2.16.76,4.29,1.13,6.36.76,1.08,1.43,2.07,2.13,3s1.45,1.9,2.17,2.86,1.44,1.91,2.15,2.87c.83,1.12,1.63,2.26,2.48,3.37.72,1,1.46,1.9,2.24,2.8s.94,2.05,2.7,2c-.54-1.63-.91-2.95-1.41-4.22-2.72-7-3.37-14.38-3.51-21.71C849.35,823.05,849.36,812.5,848.08,801.24Zm385.79,655.2a25.72,25.72,0,0,0,.34-2.71q0-25.2,0-50.39a16.91,16.91,0,0,0-.5-2.91c-2.21-.15-4.15-.61-6.23.39a18.07,18.07,0,0,0-.3,2.34q0,25.5,0,51a10.64,10.64,0,0,0,.52,2.29Zm-.07-567.34c.73-6.93.58-50.85-.2-55.66-2-.25-4.1-.56-6.44.46,0,17.68,0,35.26,0,52.84a17.11,17.11,0,0,0,.36,2.47A10.17,10.17,0,0,0,1233.8,889.1ZM1192.88,1616a12.76,12.76,0,0,0,4-5.28,100.5,100.5,0,0,1,6.6-10.7,310.77,310.77,0,0,1,34.27-41.64c11-11.36,22.33-22.34,34.5-32.74-.37-1.08.51-2.39-1.17-3.28l-9.89,9.24c-7,6.55-14.24,12.9-21,19.7s-13.33,13.84-19.51,21.18a224.91,224.91,0,0,0-22.08,30.62A50.77,50.77,0,0,0,1192.88,1616Zm-250-1027.92c-8.86-.67-96-.55-101.19.14-.09,1.12-2.36,1.06-1.62,3.38,34.14,0,68.36.11,102.57-.18a7.16,7.16,0,0,0,1.9-.63Zm134.44-.28h-5.2L979,587.73c-1.2,0-2.41,0-3.6.11-.29,0-.55.34-1.09.7l4.14,3h5.25l90.72-.07c1.4,0,2.8-.05,4.2-.16.26,0,.5-.4.81-.68Zm-24.44,911c2.92-3.75,4.91-6.61,6.14-10,1.3-3.56,2.65-7.1,3.9-10.68,2.61-7.46,3-14.79-1.45-21.81-.74-1.18-1.15-2.58-1.94-3.72-1.73-2.49-3.18-5.27-6.2-7.36.64,3.88,1.28,7.19,1.7,10.52a30.19,30.19,0,0,1,.06,5.38c-.18,3.18-.56,6.35-.7,9.53-.23,5.59-.28,11.19-.54,16.78C1053.66,1490.81,1053.25,1494.17,1052.84,1498.77Zm1.3-654.61c5.28-4.28,7.55-10,10.17-15.51a4.5,4.5,0,0,0,.31-1.76,39.93,39.93,0,0,0-1.71-14.22c-1.29-4-2.87-7.88-4.35-11.8-1.35-3.6-1.92-4.42-5.27-7.84,0,2.49-.1,4.87,0,7.25.24,4.79.64,9.56.9,14.35.22,4.19.27,8.36.91,12.55a28.41,28.41,0,0,1-.43,11.92A31.33,31.33,0,0,0,1054.14,844.16Zm216.58-77.92.71-.44a8.44,8.44,0,0,0-1.18-2.47c-2.11-2.14-4.38-4.11-6.55-6.17-6.52-6.2-13.25-12.21-19.49-18.68a378,378,0,0,1-29.59-33.87c-6.52-8.6-13-17.25-17.88-26.94-.7-1.38-1.65-2.63-2.58-4.08-.93,1.56-.15,2.6.31,3.66A125.51,125.51,0,0,0,1207.09,699a300.53,300.53,0,0,0,37.34,43.73c4.17,4,8.26,8.16,12.58,12S1266.14,762.43,1270.72,766.24ZM947.2,431.45c-2.16,0-4.34,0-6.51,0-9.61.08-19,1.78-28.37,3.72-4.05.85-7.91,2.63-11.84,4a20.77,20.77,0,0,0-2.66,1.57h40.8ZM1098,789.2c3.55.54,6.74.26,9.91.29a24.08,24.08,0,0,0,2.77-.27c.87-5.79.84-14.74-.09-19.49a64.68,64.68,0,0,0-14.23.18C1098.22,776.21,1097.26,782.46,1098,789.2Zm12.59,711.26c-2.1-.06-4.07-.2-6-.15-2.12.06-4.33-.4-6.5.57-.79,6.46.08,12.82-1.72,19.29,2.83.06,5.2.17,7.57.14s4.71.3,7.28-.47c.21-5.81.13-11.36,0-16.91A11.55,11.55,0,0,0,1110.56,1500.46ZM959.84,573a29.33,29.33,0,0,0-3.76-10c-7.9-13.65-15.71-27.35-23.58-41-.82-1.42-1.83-2.74-3.17-4.73,0,4.12,1.43,7.06,2,10.17A36.51,36.51,0,0,0,936,539c4.27,7.22,8.39,14.52,12.6,21.78a9.64,9.64,0,0,0,1.09,1.34l4.74,2.07c.13.68.21,1.05.3,1.5l-3.05,1.76C953.93,570.09,955.63,572.79,959.84,573ZM648.51,775.06c-.66,9.39-.52,25.13.27,29.91a11.12,11.12,0,0,0,6.68.14c.82-5.28,1-21.35.55-36.19a10.21,10.21,0,0,0-.59-1.92A39.27,39.27,0,0,0,648.51,775.06Zm7.58,748.44v-13.86c0-4.18.08-8.37,0-12.56s.51-8.29-.51-12.44c-2.59-.27-4.9-.76-7,.38-.58,6.32-.5,24.39.14,29.89,1,1.31,2.27,2.88,3.55,4.4C653.12,1520.36,654.09,1521.33,656.09,1523.5ZM1251.9,766.57c-.79,13-.57,33.88.35,38.46a9.26,9.26,0,0,0,6.21,0c.86-4.8.91-23.94.06-30.36Zm.32,755.77c1.24-1.35,2.21-2.54,3.31-3.6,2.78-2.68,3.69-5.92,3.59-9.74-.17-7,0-14,0-20.93a21.89,21.89,0,0,0-.53-3.41c-2.42-.34-4.54-.63-6.5.24C1251.28,1491.23,1251.38,1516.94,1252.22,1522.34ZM683,1109.83c-.12,1.1-.28,1.87-.28,2.64q0,13.76,0,27.5a13.57,13.57,0,0,0,.52,2.67h7.07c.57-3.76.24-7.33.3-10.86.06-3.79.09-7.58,0-11.36-.09-3.53.48-7.12-.48-10.74A14.82,14.82,0,0,0,683,1109.83ZM778.5,631.48v.34h233.38v-.34Zm-87.94,548.38c0-3.87,0-7.43,0-11,0-3.78.1-7.57,0-11.34-.12-3.51.63-7.1-.59-10.62-2.5-.36-4.8-.75-6.94.32-.87,9.26-.6,28.88.43,32.92A12.28,12.28,0,0,0,690.56,1179.86Zm523.1-37.53c3.79.74,3.79.74,6.67-.33.65-7.83.48-27.66-.31-32.23a9,9,0,0,0-6.55.22C1212.78,1117.37,1212.92,1137.75,1213.66,1142.33Zm-536.09-232c-2.91-.19-5.22-.6-7.39.3-.78,8.41-.57,27.23.36,31.54,1.11.11,2.28.32,3.44.32,1.37,0,2.75-.19,4.15-.3C677.94,931.6,677.76,921.27,677.57,910.35Zm338.81-469.86c-6.58-2.8-12.5-5.58-19.12-6.32a28.85,28.85,0,0,1-4.15-.62c-5-1.33-9.86-1.24-14.47,1.44-.68.39-1.52.51-2.24.85a32.22,32.22,0,0,0-7.23,4.5C974.48,441.11,1008.66,441.23,1016.38,440.49Zm0,169.48a36.51,36.51,0,0,0,13.64,2.76q27.89,0,55.77-.05a17.86,17.86,0,0,0,3.59-.11c2.42-.52,5-.54,8-2.62-1.58-.23-2.27-.4-3-.43C1075.09,608.91,1022.39,609.19,1016.41,610ZM660.24,1208.48a19.76,19.76,0,0,0-.38,2.47c-.05,10-.06,19.94,0,30.22a20.93,20.93,0,0,0,7.75-3.11c.29-4.9.23-9.87.13-14.83s.6-9.89-.55-14.75Zm559.91-28.18c.54-4.89.74-26.61.34-32.26,0-.34-.38-.66-.75-1.27l-4,.2c-.18,2.24-.34,4.19-.48,6l-1.85,2.35c-.6,8.31-.48,19.85.25,24.54a5.06,5.06,0,0,0,1.55.56C1216.76,1180.47,1218.33,1180.36,1220.15,1180.3ZM670.54,1378.43a11.31,11.31,0,0,0,6.94-.2,87.73,87.73,0,0,0,.24-10.31c0-3.38.08-6.76,0-10.14s.37-6.69-.35-9.88c-4.06-.73-4.06-.74-7.1.26C669.44,1354.76,669.6,1374.24,670.54,1378.43Zm-3.3-298.15c.69-5.83.69-23.86,0-29.16a17.52,17.52,0,0,0-7.31-2.64c-.23,5.49-.22,10.65-.13,15.81.09,5.31-.51,10.67.41,16A13.23,13.23,0,0,0,667.24,1080.28Zm405.92-675.89c-8.09-.93-12.57,1.95-12.94,7.75a9.12,9.12,0,0,0,9.21,9.56c6-.25,8.81-4.38,8.16-12.42ZM800.94,1520.14c-2.49-6.56-1.13-13.2-2.33-19.67a59.85,59.85,0,0,0-11,.08,20.34,20.34,0,0,0-.36,2.6c0,4.77-.07,9.53,0,14.29a14,14,0,0,0,.58,2.73A114.35,114.35,0,0,0,800.94,1520.14Zm-2.3-730.81c.76-1.89.4-4.07.49-6.17.11-2.38.09-4.77.33-7.14.21-2.08.69-4.13,1.1-6.49-4.54.18-8.85-.66-13.33.62.18,6.47-.43,12.75.47,19.18Zm281.28-363.21c-.81.42-1.67.92-2.56,1.33a17.88,17.88,0,0,1-13.93.63c-3.51-1.26-6-3.72-8.24-6.61-.16-.21-.68-.15-1.3-.27-.71,1.5-1.44,3.07-2.08,4.44,1.65,4.62,3.22,8.94,7.71,11.56a12,12,0,0,0,8.52-.77q8.06-3.85,16.09-7.78c.22-.11.23-.66.43-1.28Zm147.44,484.3c-.38,3.79-.18,7.36-.22,10.91,0,3.39-.09,6.79,0,10.18s-.52,7.12.51,10.76c2.16.17,4.09.7,6.28-.49.51-2.4.24-5,.28-7.54s0-5.19,0-7.79c0-2.79,0-5.59,0-8.39-.06-2.52.38-5.12-.47-7.64Zm18.41,330.89a10.93,10.93,0,0,0,.44-2q0-14.35,0-28.71a8,8,0,0,0-.58-2.13c-2.21-.2-4.16-.6-6,.28-.73,6.18-.62,25.28.2,30.24Zm-6-161a9.31,9.31,0,0,0,6-.13c.88-7.47.68-27.58-.35-31.92l-5.76,2.3C1238.92,1056.82,1239,1075.39,1239.79,1080.34Zm-12.57,267.47c0,5.32-.16,10.28,0,15.23.11,5.12-.57,10.29.5,15.49,2.17.25,4.09.7,6.06-.29a7,7,0,0,0,.44-1.7q0-13.45,0-26.92a9.21,9.21,0,0,0-.46-1.88A11.5,11.5,0,0,0,1227.22,1347.81Zm22.89-103.28c0,19.54,0,38.91,0,58.29,0,.31.44.62.77,1.07l2.27-.27a23.57,23.57,0,0,0,.28-2.54q0-28.78-.07-57.56c0-.33-.3-.65-.6-1.26ZM1082.76,423.11c1.9.7,3.2,1.12,4.45,1.66,1.47.63,2.9,1.35,4.33,2.06,1.25.62,2.47,1.32,3.73,1.92,1.44.68,2.93,1.27,4.37,1.94,1.27.59,2.53,1.21,3.76,1.86,1.42.74,2.82,1.5,4.19,2.33,1.19.73,2.32,1.55,3.47,2.35s2.28,1.62,3.44,2.41c1.32.9,2.66,1.78,4,2.68,1.16.78,2.35,1.53,3.45,2.39s2.42,2.08,3.63,3.13c1.06.91,2.14,1.8,3.18,2.74s2,1.91,3,2.88q1.71,1.68,3.4,3.38c1,1,2,2,3,3,1.1,1.16,2.19,2.33,3.23,3.55.9,1.07,1.72,2.2,2.57,3.31,1,1.27,1.91,2.57,2.92,3.81a8.92,8.92,0,0,0,3.06,2.93c-2.88-6.84-11.74-17.59-20.41-25.36a135.36,135.36,0,0,0-45.42-27.19Zm170.66,624.82c0-20.86,0-40.62,0-60.38a5.79,5.79,0,0,0-.55-1.68h-2.47a18.11,18.11,0,0,0-.39,2.45c0,19-.07,37.92,0,56.67Zm-597.6,255.71a23.4,23.4,0,0,0,.28-2.49q0-26.42,0-52.83a9.15,9.15,0,0,0-.25-3c-.36-1-.81-2.38-2.87-1.6,0,19,0,38.24,0,57.44a18.69,18.69,0,0,0,.33,2.45ZM804.38,368.45c3.13-3.46,3.41-3.58,3.61-5.7a66.17,66.17,0,0,0-.37-18.48c-3.35-3.34-6.59-6.58-9.87-9.78-.24-.23-.74-.19-1.37-.32l-1.68,1.41c-.08,1-.23,2-.22,3,0,1.17.18,2.35.27,3.4l8.37,7.59C804.46,356,803.66,362.12,804.38,368.45Zm166.13,65.87.29.51,3.1-1.35c7.9-3.34,15.53-7.35,24.06-9,4.11-.8,8.15-2.05,12.29-2.63a151.93,151.93,0,0,1,31.11-1.14c2.38.16,4.79.05,7.18,0,.92,0,1.42-.55,1.14-1.7-1.8-.86-3.81-.7-5.79-.71-5.6,0-11.2,0-16.8,0a93.47,93.47,0,0,0-27.76,3.86c-5.34,1.65-10.81,2.89-15.86,5.37q-5.65,2.77-11.27,5.61A13.14,13.14,0,0,0,970.51,434.32ZM839.09,360.84a81.35,81.35,0,0,0-8.83-16.15c-.19-.25-.7-.26-1.07-.38-.33.18-.78.28-1,.55-2.22,3.08-4.27,6.29-6.62,9.26a14.17,14.17,0,0,0-2.83,11.82c.41-.13.93-.13,1.11-.37a107.57,107.57,0,0,0,6.78-9.85c1.12-2,1.29-4.52,2-7.19l2.73.58c-1,5.32-.17,9.82,3.84,13.66Zm259.06,17.46c-.79-4.36-22.39-53.47-27.84-64.26-.41-.81-.57-2-1.79-2.16-.41,1.58-.41,1.58,2.4,7.92,1.3,2.93,2.64,5.83,3.94,8.76,1.21,2.74,2.38,5.5,3.61,8.24s2.5,5.45,3.75,8.18c1.33,2.91,2.66,5.82,4,8.74,1.23,2.74,2.42,5.49,3.64,8.23,1.31,2.92,2.66,5.82,3.94,8.75C1094.94,373.39,1096,376.14,1098.15,378.3Zm-272.69,450c-1.13-2.3-2.22-4.63-3.39-6.9a52.93,52.93,0,0,1-4.52-11.72c-1.63-6.59-3.5-13.12-5.1-19.72-.76-3.09-1.2-6.27-1.67-9.42s-.81-6.24-1.22-9.4c-1.58.54-1.73,1.8-1.79,3a34.24,34.24,0,0,0,.77,10.72c1.7,6.37,3.62,12.7,4.84,19.17C815.14,813.35,820,821.1,825.46,828.34ZM674,1460.57h-5.59c-6,6.69-12.56,12.49-18,19.87h6.43c5.66-6.12,11.23-12.13,16.77-18.17C673.79,1462,673.76,1461.53,674,1460.57ZM650.25,809.4c6.5,7.16,12.32,13.94,19,19.82h6.11L657,809.4Zm173.47,652.9c-2.38,4.12-4.8,8.22-7.1,12.39a16.15,16.15,0,0,0-1.44,3.92c-2.27,8.88-4.61,17.75-6.64,26.69a51.59,51.59,0,0,0-.78,9.49,3.69,3.69,0,0,0,1.76,3.67,9,9,0,0,0,.38-1.6,83,83,0,0,1,3-18.84c1.7-6.15,3.34-12.31,4.79-18.52a41.81,41.81,0,0,1,3.56-9.48C822.43,1467.73,823.94,1465.56,823.72,1462.3ZM660.53,1308a45,45,0,0,0,0,16.21,17.31,17.31,0,0,0,7.08-.28c.15-5.32.21-10.41,0-15.58A12.38,12.38,0,0,0,660.53,1308Zm7-326.57a84.8,84.8,0,0,0,.22-10.17c0-1.75-.13-3.5-.21-5.38a17.9,17.9,0,0,0-7.5-.1c-.34,3.6-.19,7-.19,10.3,0,1.74.14,3.49.22,5.51A18.56,18.56,0,0,0,667.52,981.4Zm588.63,499.08c-3.14-4.26-15.71-16.37-20.6-19.91h-4.45c2.9,4.15,6.51,7,9.74,10.22s6.52,6.44,9.81,9.69Zm-18.08-395.89a23.21,23.21,0,0,0-2.57,1.85q-9.2,8.89-18.33,17.88c-.19.19-.09.68-.14,1.16.79,0,1.58.15,2.36.13s1.56-.13,2.16-.19c14.39-12.7,17.65-16,20.58-20.83Zm112.29,440.75c-4.61-.64-8.92-1.22-13.23-1.85-1-.14-2-.38-2.81.84a19.77,19.77,0,0,0-.18,2.72c.06,1.12.3,2.24.44,3.21,7.92,1.89,11.19,2.19,15.66,1.43C1351.07,1529.88,1350.94,1528,1350.36,1525.34Zm-99.8-716c-1.75,1.64-3.51,3.24-5.21,4.91q-7,6.9-14,13.87c-.15.15.07.66.16,1.29l4.63-.22c6.3-6.78,13.72-12.22,19.76-19.85Zm-113.2-182.31a23.93,23.93,0,0,0-1.44-1.94c-2.13-2.34-4.29-4.64-6.27-6.78l-16.59,8.75C1117.85,627.76,1131.22,627.77,1137.36,627.07ZM677.73,1396.25c0-3.86,0-7,0-10.21a24,24,0,0,0-.54-3.42c-2.63,0-5-.69-7.36.74,0,3.27,0,6.44,0,9.61a23.38,23.38,0,0,0,.54,3.28Zm568.43-414.67c-.09-5.69.64-10.8-.43-15.89a13.78,13.78,0,0,0-6,.07,50.3,50.3,0,0,0,.13,15.82Zm-.09,326.51a11.59,11.59,0,0,0-6.72.11c-.17,5.39-.59,10.65.31,16,1.3.07,2.28.17,3.25.16s1.89-.14,3.19-.25C1246.32,1318.68,1246.35,1313.59,1246.07,1308.09ZM669.22,946.39c-2.65,4.82-5,9.15-7.39,13.49a5.21,5.21,0,0,0-.27,1.37,11,11,0,0,0,7.19-.1c2.29-4.79,5.39-9.35,7.62-14.76Zm.66-52.85c0,3-.09,5.56-.08,8.11,0,1.35.14,2.7.21,4.13a11.19,11.19,0,0,0,7,.34,27.28,27.28,0,0,0,0-12.58Zm567.7,434.78c-3,5.2-6.25,9.76-8.74,15.09,1.24.07,2.23.19,3.21.18s2-.13,2.79-.19c5.19-6.78,7.87-11.54,8.45-15.08Zm6.34-367.4a143.12,143.12,0,0,0-8.49-14.54H1229a135.69,135.69,0,0,0,8.77,14.87C1240,961.88,1241.83,962.16,1243.92,960.92Zm-16.77,421.83c0,3.86-.05,7,0,10.24a25.58,25.58,0,0,0,.56,3.46c2.25-.17,4.24.56,6.36-.67.05-2.13.17-4.29.13-6.46s.32-4.34-.45-6.57Zm.17-476.68c2.64.46,4.57.73,6.76-.28,0-4.14.7-8.21-.42-12.25a13.46,13.46,0,0,0-6.29.22A79,79,0,0,0,1227.32,906.07ZM1076,820.23a20,20,0,0,0,5.27-9.6c2.26-8.29,4.37-16.62,6.64-24.91a32.64,32.64,0,0,0,.27-14c-.67,3.34-.94,6.72-1.52,10s-1.45,6.62-2.27,9.91c-.77,3.1-1.65,6.18-2.46,9.27-.86,3.29-1.59,6.61-2.59,9.86S1077.11,817.1,1076,820.23Zm295.08-8.34c-3.12-.52-5.66-1-8.21-1.32a15.88,15.88,0,0,0-3.32.32c-.11,2.76-.25,5.13,1.28,7.58,2.83.52,5.75,0,8.84-.31l2.5-3.16Zm-293,660.63c.22,1.6.24,2.37.43,3.1,1.21,4.64,2.4,9.29,3.7,13.91,2.28,8.07,4.66,16.12,5.29,24.56a29.89,29.89,0,0,0,.82,3.8,29.62,29.62,0,0,0-.21-13.18c-2.2-8.51-4.41-17-6.76-25.49C1080.74,1477.15,1080.52,1474.84,1078,1472.52Zm75.58-971.33a7.71,7.71,0,0,0-.31-2.28q-8-17.69-16.19-35.33c-.1-.21-.59-.23-1.88-.69C1141.2,476.2,1146.63,488.93,1153.62,501.19Zm231.25,699.22c2.15-3,2.06-5.43-.1-7.77-2.18-.55-4.15-1.72-6.93-.65.19,2.66-.76,5.51.57,8.42Zm-8.14-272.68c3-2.05,3.51-4,1.9-6.91-3.08.6-5.88-1.92-9.34-.64a27.26,27.26,0,0,0,.27,7,10.39,10.39,0,0,0,1.94.52C1373.28,927.76,1375.06,927.73,1376.73,927.73Zm-530-555.67c-.36-2.58-1.12-4.23-3-4.75a8,8,0,0,0-4,0c-1.93.53-3.26,3.38-2.56,5.32a6.42,6.42,0,0,0,1.95,2.82c1.73,1.38,3.68.93,5.79,0ZM1363.22,838.4c-.33,2.83-.36,5.16.7,7.45a21.75,21.75,0,0,0,7,0c2.59-1.55,3.25-3.53,1.94-6.64C1369.79,839.69,1367,837.48,1363.22,838.4Zm12.1,28.7c-3.16-1.21-6.15-2-9.67-1.34-.37,2.72-.54,5.19.63,7.59,3,.62,5.62-.34,7.93-1C1375.79,870.77,1375.86,869.25,1375.32,867.1Zm9.23,135.93c-2.32-.54-4.43-1.08-6.57-1.5-.94-.18-2-.4-2.82.86a14.91,14.91,0,0,0,.69,6.8,19,19,0,0,0,7.47-.06C1385.39,1007.37,1385.63,1005.57,1384.55,1003Zm-12.66-47.83a22,22,0,0,0,8.94-1.56c.29-1.43.58-2.9.89-4.42-3.39-1.57-6.49-2.44-10-1.72A18.57,18.57,0,0,0,1371.89,955.2Zm10,26.13c1.37-2.6,1.37-2.6.52-5.69a51.67,51.67,0,0,0-9.15-1.55,12.08,12.08,0,0,0,1,7.79A13.47,13.47,0,0,0,1381.88,981.33Zm3.55,163.61c1.69-3,1.55-5.41-1.33-7.41-1.95-.22-3.89-.87-6.1.18-.29,2.49-.67,5,.4,7.64A12.61,12.61,0,0,0,1385.43,1144.94Zm-2.13,74-5.34.38c-.16,2.83-.79,5.29.58,7.77,2.44.27,4.75.69,7-.6C1387.39,1223.55,1386.34,1221.33,1383.3,1219Zm-8-318.93c2.28-2.88,2.28-2.88,1-6.21a43.9,43.9,0,0,0-4.48-.77c-1.49-.12-2.92-1.5-4.7-.19-.24,2.52.44,4.91,1.37,7.63Zm2.66,272.61c2.77.33,4.94.63,7-.36,2.23-4.07,2.18-4.33-1.71-7.68l-5.08.32A21.5,21.5,0,0,0,1378,1172.66ZM798.45,505.57a49.53,49.53,0,0,0,.12-15.56,3,3,0,0,0-3.93.36v11.25Zm579.47,613.21c2,0,3.43,0,4.79,0a5.9,5.9,0,0,0,1.5-.4c2-1.63,2.84-3.44,1.7-6.1-2.47-.29-4.81-2.2-8-1.06-.07,1-.2,2-.21,3C1377.75,1115.49,1377.84,1116.84,1377.92,1118.78Zm0,128.2c-.07,1.27-.21,2.43-.17,3.59.06,1.34.27,2.67.43,4.16,2.81.33,5.37.93,7.18-1.92v-4.35C1383.12,1246.13,1380.79,1246,1377.93,1247Zm8-161.83a16.42,16.42,0,0,0-7.87-1.72,24.35,24.35,0,0,0,0,7.38,11.37,11.37,0,0,0,6.88-.17C1386.3,1089,1386.9,1087.38,1385.89,1085.15Zm-8.86,188.1a25.06,25.06,0,0,0-.59,7.82c0,.33.38.64.66,1.08a22.43,22.43,0,0,0,2.24.14,20.94,20.94,0,0,0,2.12-.24,6.49,6.49,0,0,0,1.1-.89c2.45-3.26,1.73-6-2-7.29A21.15,21.15,0,0,0,1377,1273.25Zm.63-217.78c.32,3.15-.37,5.49.57,7.88a8.41,8.41,0,0,0,6.39-.07c1.58-1.56,2.48-3.18,1.34-5.29a4.49,4.49,0,0,0-1-.69C1382.82,1056.74,1380.71,1056.23,1377.66,1055.47Zm-1.52,308.4c2.7-3,2.21-5.37.18-7.87-1.34-.29-2.67-.58-4-.84-.13,0-.31.17-.64.36-1.22,2.21-1.24,4.75-1,7.3,0,.34.41.64.7,1Zm9.95-333.09c-2.74-1.67-5.73-2.09-9.28-1.83.45,2.65.09,5,1.46,7.23,2.24-.06,4.42.62,6.75-.66C1386.06,1034.28,1387,1032.82,1386.09,1030.78Zm-12,278.1,4.53,1c3.28-1.62,3.86-3.87,2.95-6.86-1.48-2.06-3.5-2.74-6.3-1.77C1375,1303.5,1374.61,1305.8,1374.13,1308.88Zm-1.72,109.37a23.6,23.6,0,0,0,1.57-2.36,7,7,0,0,0,.42-1.62c-2.44-4.55-2.9-4.78-7.41-3.46-.07,2-.17,4.16-.19,6.3,0,.32.41.64.76,1.14Zm3.33-28.65v-4.67c-2-2.48-4-2.85-6.58-1.9-.15,2.62-.64,5-.16,7.12,1.41,1.56,2.93,1.63,5.29,1Zm3.5-54.11a24.91,24.91,0,0,0,.57-2.48,14.42,14.42,0,0,0,0-2c-1.7-2.76-3.74-3.38-6.28-2.51-1,3.79-1,3.79-.3,7.72A6.17,6.17,0,0,0,1379.24,1335.49ZM1091.6,770.63l.58.08.34-3.72c7.23-2.38,14.21.29,21.13-.61-.15-.5-.26-.85-.46-1.53-2.45-.05-5-.13-7.57-.16s-5.18-.1-7.76,0-5.08-.55-7.74.71C1090.65,767.28,1091.12,769,1091.6,770.63Zm280.69,670.76c-2.07-3.54-2.07-3.54-5.49-4.22-1.81,3.73-2.51,7.18-1.46,8.38h4.57Zm-13.9,57.87c2,1,3.54,1.09,5,.14a3.25,3.25,0,0,0,1.67-3,7.69,7.69,0,0,0-.72-3.37c-1-1.68-2.86-1.67-4.75-1.89-.38,1.82-.75,3.36-1,4.91A31.77,31.77,0,0,0,1358.39,1499.26Zm-87.65-710a48.88,48.88,0,0,0-.07-13.51,1.9,1.9,0,0,0-2.23-1.85c0,5-.29,10.08.22,15.21ZM637.48,1501c0,4.29-.07,8.08,0,11.87,0,1.63.6,2,2.77,2.92,0-4.81,0-9.6,0-14.39,0-.28-.46-.56-.79-.93Zm3-727.66c-2.51,1.58-2.77,1.79-2.9,3.65a92.55,92.55,0,0,0,0,12.13l2.67.16c.09-1.24.23-2.21.24-3.17C640.45,781.93,640.44,777.75,640.44,773.35Zm473.86,749.83c-8.34.07-16,1.53-23.75-1.15-.12,1-.2,1.72-.28,2.44,3.66.7,18.83,1,22.62.38C1113.16,1524.81,1113.36,1524.33,1114.3,1523.18Zm155.2-7.89c2.27-4.64,1.57-9.58,1.35-14.66l-2.15.24c-.11,1.45-.3,2.82-.29,4.18C1268.44,1508.42,1268.15,1511.8,1269.5,1515.29Zm86.7,3.45c-.36,1.88-.84,3.76-1.06,5.66a8.68,8.68,0,0,0,.44,2.56c2.75,1.07,4.47.18,5.86-2.2v-3.68C1360.07,1519.38,1358.75,1518,1356.2,1518.74Zm-548.59,6.32L806,1521l-1.53,2c-3.46.29-6.83.85-10.18.79s-6.65-.9-10-.35a1.91,1.91,0,0,0,2.2,1.62ZM1362,1472.14c2.34.53,4,.6,5.82-.77,1.19-2.42.56-4.66-1.43-6.91l-3.2-.25C1361.71,1466.83,1361.79,1469.29,1362,1472.14Zm-259.8-840.66.09.28h36.88v-.28Zm57.44-128.1a28.79,28.79,0,0,0-3.27-10.53c-2-3.9-4.07-7.72-6.14-11.56a12.5,12.5,0,0,0-1.26-1.48C1150.66,485.68,1156.79,499.15,1159.66,503.38ZM807.22,765.31c-5.64-.91-17.25-.85-22.53.29,7.93.32,14.78.6,21.74,1.77C806.67,766.73,806.94,766,807.22,765.31Zm549.88,29.24A224.89,224.89,0,0,0,1354,763.7c-.26.68-.54,1-.5,1.35Q1355.26,779.8,1357.1,794.55Zm-193.73-273.2c-2.53-5.72-4.49-11-8.06-15.92.67,4,3.84,11.78,6.33,15.74C1161.76,521.35,1162.32,521.25,1163.37,521.35ZM927.16,290.16a26.24,26.24,0,0,0-8.61.14c.06.69.1,1.24.16,1.9a12.09,12.09,0,0,0,8.45.43ZM800,350.81c-1,5.75-.92,19.7.08,24.3C800.26,367.43,800.55,359.74,800,350.81Zm533.77,1183.78a9.79,9.79,0,0,0,2.41,1.1c3.75.55,7.52,1,11.28,1.4.76.08,1.77.44,2.49-.8C1344.59,1534.57,1339.19,1534.94,1333.75,1534.59Zm45.08-411.29-1.3.12c-.23,3.17-.56,6.37.28,9.82C1379.67,1131.1,1379.81,1129.38,1378.83,1123.3Zm-9.06,254.8c1.83-5.12,1.84-6.59-.09-11.08C1369.23,1371.61,1368.45,1374.81,1369.77,1378.1Zm-13.28,136.63a19.79,19.79,0,0,0,2.35-9.22c0-.88-.39-1.45-1.68-.89C1357,1507.53,1355.6,1510.46,1356.49,1514.73ZM1377.71,1069a21.4,21.4,0,0,0,.09,9.11c1.63-1.85,1.84-3.1,1.5-7.66C1379.23,1069.52,1378.89,1069,1377.71,1069Zm-.27,26.4a54.42,54.42,0,0,0,.1,9.26c0,.31.76.53,1.25.85C1379.75,1099.27,1379.69,1098.77,1377.44,1095.35Zm-.88-71.72,1-.28c-.3-7.35-.3-7.35-1.68-9.11C1375,1018.9,1375,1019.1,1376.56,1023.63Zm-13.14,436.64c2-4,2.15-5.19,1.27-10C1362.87,1452.61,1362.74,1453.47,1363.42,1460.27ZM874.82,781.35c-.23-6.48,1.37-11.66.81-17C875.16,769.61,872.76,774.73,874.82,781.35Zm503.12,368.46c-.87,6.22-.87,6.22.27,9.69C1379.77,1156.71,1379.81,1154.15,1377.94,1149.81ZM876,1525c-.11-1.77-.16-3.54-.33-5.3s-.41-3.55-.71-5.31c-.26-1.52.61-3.21-.63-4.7C872.88,1515.08,875.09,1520,876,1525Zm483.33-37.33c1.33-1.56,1.89-1.92,2-2.37.41-2.15.71-4.31,1-6.48.14-1-.42-1.39-1.62-1.24a22.3,22.3,0,0,0-.92,3.31C1359.55,1482.66,1359.54,1484.44,1359.34,1487.7Zm12.41-147c-.45,3.64-.8,6.14-1.06,8.65-.1,1,.46,1.34,1.41,1.06C1373.69,1344.67,1373.69,1344.67,1371.75,1340.72Zm-3.28,64.36c.48-3.09,1.17-5.87.82-8.77,0-.19-.62-.31-1-.46C1366.37,1401.73,1366.36,1402.65,1368.47,1405.08Zm9.26-354.87,1.16-.33c.72-5.61.72-5.61-1.46-8.85C1377.42,1044.58,1377,1047.37,1377.73,1050.21ZM1023.11,787.48c2.3-4.27,1.72-9.05,2.57-13.57C1023.71,778.24,1024.08,783,1023.11,787.48Zm350.13,199.81c.24,2.67.46,5.35.74,8,0,.24.46.44.72.67C1376.24,992.55,1376.14,991,1373.24,987.29Zm2.8,299.64a22.18,22.18,0,0,0-.7,10.36C1376.54,1293.18,1377.54,1290.16,1376,1286.93Zm-2.69-317.2c.22-7.08.22-7.08-1.53-10.09C1371.68,963.19,1371.34,966.18,1373.35,969.73Zm1.39,343.73c-2.31,5.07-2.37,7-.54,9.47A32.19,32.19,0,0,0,1374.74,1313.46Zm-6.13-399.38a8.56,8.56,0,0,0-.54-8.36,45.66,45.66,0,0,0,0,6.92A5.7,5.7,0,0,0,1368.61,914.08Zm-2.12-35.8c-1,3.14-.19,6.11.78,9.08A18,18,0,0,0,1366.49,878.28Z"/><path class="cls-1" d="M1033.33,982.52c1.67,2.13,1.21,4.42,1.22,6.56q.12,26.4.1,52.79c0,2.39,0,4.8-.2,7.19a22.2,22.2,0,0,1-.73,3.35c-4.19-.47-6.59-1.63-11.18-5.28-1.18-5.8-1.67-50.74-.63-61.65a14.28,14.28,0,0,1,.86-2.83A21.14,21.14,0,0,1,1033.33,982.52Zm-8.06,3.32c0,5.48-.06,10.44-.08,15.41,0,4.8,0,9.6,0,14.39,0,5-.07,10,0,15s-.39,9.94.34,14.89c1.19.65,2.22,1.27,3.29,1.78a9.4,9.4,0,0,0,1.7.43c.82-5.27.8-56.58-.06-61.89Z"/><path class="cls-1" d="M1034.42,1306.5c-3.83,1.65-7.54,1.11-11.58.56a25.83,25.83,0,0,1-.93-4c-.2-2.59-.23-5.2-.23-7.79q0-23.08.09-46.16c0-2.18.2-4.36.31-6.52,3.18-2.92,6.83-4.37,10.86-5.85a9.58,9.58,0,0,1,1.38,2.6,28.16,28.16,0,0,1,.26,4.78q.09,28.77.14,57.55C1034.72,1303.28,1034.53,1304.85,1034.42,1306.5Zm-3.8-2.67c.55-4.76.82-53.73.36-60.93,0-.31-.41-.59-.82-1.15l-4.72,2.31c-.08,2-.21,3.78-.22,5.56q0,24.54,0,49.09a33,33,0,0,0,.12,3.59,5.55,5.55,0,0,0,.71,1.53Z"/><path class="cls-1" d="M862.13,1237c4,.62,7,3,10.36,5,.67,5.36.29,10.75.38,16.11s0,10.8,0,16.2.06,10.79,0,16.19.29,10.76-.37,16c-4.55,1.42-6.35,1.43-11.49,0a23.18,23.18,0,0,1-.45-3.28q0-30.29.16-60.57C860.73,1240.93,860.46,1239.06,862.13,1237Zm2.41,4.57a25.86,25.86,0,0,0-.38,2.6q0,28.44,0,56.89a13.76,13.76,0,0,0,.52,2.72c1.85.11,3.46.76,5-1v-3.3q0-25.45,0-50.9c0-1.19-.07-2.39-.17-3.58a5.88,5.88,0,0,0-.63-1.41Z"/><path class="cls-1" d="M872.2,1047.76c-3.38,1.93-6.23,4.17-10.16,5.12a11.61,11.61,0,0,1-1.17-3.18c-.23-4-.33-8-.33-12q0-24.24.15-48.5c0-2.16-.22-4.39.92-6.58,3.33-1.09,6.64-.64,10.23-.4a12.57,12.57,0,0,1,.77,2.92q0,30.24,0,60.48A14.25,14.25,0,0,1,872.2,1047.76Zm-7.86-62c-.09,2-.2,3.32-.2,4.7q0,26.06,0,52.1c0,1.4,0,2.8.15,4.19,0,.31.39.6.77,1.16,1.46-.86,3.36-1,4.33-3a11.71,11.71,0,0,0,.2-1.63q0-27.55.06-55.1a4.26,4.26,0,0,0-.12-1.19,8,8,0,0,0-.69-1.25Z"/><path class="cls-1" d="M1112,1270.6c2.66-.7,2.66-.7,6.55.09,1.14,5.17.58,10.47.48,15.76-2.23,1.88-4.46,1.38-6.66.77A45,45,0,0,1,1112,1270.6Z"/><path class="cls-1" d="M785.56,1270.67a43.77,43.77,0,0,1-.18,16.41,7.69,7.69,0,0,1-6,.11,46.29,46.29,0,0,1-.4-16.57C781.62,1269.9,781.62,1269.9,785.56,1270.67Z"/><path class="cls-1" d="M779,1002.57c2.3-1.59,4.45-.27,6.57,0a43.43,43.43,0,0,1-.06,16.2c-3,1.1-3,1.1-6.11.24A45.85,45.85,0,0,1,779,1002.57Z"/><path class="cls-1" d="M1111.78,1019a110.7,110.7,0,0,1-.24-16.13c2.48-2,4.68-.61,7.13-.27a77.4,77.4,0,0,1,.22,15.93C1115.79,1019.81,1115.79,1019.85,1111.78,1019Z"/><path class="cls-1" d="M991.33,1334.46c.16,2.18.38,4,.39,5.71,0,2.58-.1,5.16-.16,7.69-2.4,1.82-4.75,1-7.23,1-1.89-4.64-1-9.19-1.15-13.65C985.7,1333.2,988.18,1333.73,991.33,1334.46Z"/><path class="cls-1" d="M991.36,941.21a52.82,52.82,0,0,1,0,13.42c-2.21,1.45-4.51,1.16-7.05.71A24.46,24.46,0,0,1,984,941.5C986.33,940.44,988.47,940.8,991.36,941.21Z"/><path class="cls-1" d="M903.42,941.46a10.13,10.13,0,0,1,6.92-.16,26.92,26.92,0,0,1,0,13.89c-1,.15-2.13.4-3.27.46a27.1,27.1,0,0,1-3.11-.16A23.78,23.78,0,0,1,903.42,941.46Z"/><path class="cls-1" d="M911,1334.58c.64,4.65.17,9,0,13.28-2.32,1.73-4.61,1.16-7.13.76-1.87-4.67-1.46-9.25-.42-13.8C906.81,1333.82,906.81,1333.82,911,1334.58Z"/><path class="cls-1" d="M1092.34,678.06c.45,2.15.8,3.51,1,4.88.38,2.72-.93,4.63-3.22,5.85a8.37,8.37,0,0,1-3.38,1.07c-6.46.4-12.21-1.34-16.71-6.22-2.58-2.8-4.08-6.11-2.28-9.79s5.18-4.65,9-4.58a16.85,16.85,0,0,1,9.91,3.63A73.1,73.1,0,0,1,1092.34,678.06Zm-2.71,6a5.58,5.58,0,0,0-1.12-5.07,14.93,14.93,0,0,0-6.66-4.9,53.9,53.9,0,0,0-6.19-1.9c-1.41.78-2.61,1.44-3.79,2.13-.11.07-.08.38-.11.57C1081.65,675.51,1083.07,676.23,1089.63,684Z"/><path class="cls-1" d="M812,688.47c-2.62-4.69-1.62-8.25,1.2-11.59a21.33,21.33,0,0,1,10.24-6.9,14.3,14.3,0,0,1,5.27-.63c3.07.29,5.81,1.59,7.25,4.52s.44,5.52-1.26,7.83c-4.18,5.7-10,8.32-17,8.21C815.76,689.88,813.87,689,812,688.47Zm2.35-3.85c6.83-9.15,10.34-9.21,17.69-9.77-.72-1.76-2.43-1.82-3.84-2.4-1.14.25-2.32.42-3.45.76a17.74,17.74,0,0,0-10,7A4,4,0,0,0,814.3,684.62Z"/><path class="cls-1" d="M1163.84,672.58a4.21,4.21,0,0,1,3.89-3,8.34,8.34,0,0,1,5.18,1.21c5.72,3.45,10.8,7.57,13.44,14a14.91,14.91,0,0,1,.57,2.28c-1.16,3-3.65,3.08-6,2.75a17.14,17.14,0,0,1-5-1.84,28,28,0,0,1-7.61-5.75C1165.62,679.51,1163.78,676.56,1163.84,672.58Zm2.78.57c1.37,1.17,1.82,1.86,2.41,2,5.14,1.2,8.66,4.48,11.55,8.65.44.63.92,1.22,1.42,1.87.84-1.13.25-2-.34-2.76-3-3.74-6.27-7.13-10.58-9.29C1170.14,673.15,1168.86,673.36,1166.62,673.15Z"/><path class="cls-1" d="M725.82,689.91a17.8,17.8,0,0,1-1.69-1.4,5.47,5.47,0,0,1-.61-1.24,10.47,10.47,0,0,1,2.39-5.81,46.4,46.4,0,0,1,10.42-9.8c2.58-1.67,5.31-2.76,8.43-1.6,2.29,2.48.61,4.91.06,7.33C739.91,683.54,734.83,689.41,725.82,689.91Zm2.07-4.34c1.79-.25,2-2,3.06-3.05s2.2-2.33,3.41-3.35a35.12,35.12,0,0,1,3.88-2.73c1.3-.81,2.67-1.5,4.2-2.35-.69-.41-1-.74-1.29-.75-2-.06-3.28,1.36-4.69,2.39C732.91,678.32,729.78,681.35,727.89,685.57Z"/><path class="cls-1" d="M1143.67,1586.4l-3.29-3.25c-.88-5.78,1-10,4.84-13.82,4.49-4.42,9.34-8,15.56-9.6,3.83-1,7.47-1.09,11.23.87,2.76,2.25,2.88,5.37,1.84,8.57a16,16,0,0,1-2.75,5.28c-4.28,5.11-9.3,9.3-15.75,11.5C1152.31,1587,1149.46,1587.16,1143.67,1586.4Zm26-23.2a17.21,17.21,0,0,0-12,1.21c-4.11,1.79-7.35,4.69-10.51,7.77a9.58,9.58,0,0,0-2.83,10.14c3.7,1.75,4,1.86,6.42,1.3a28.29,28.29,0,0,0,14.11-7.41c2-2,4.13-3.78,5.17-6.5C1170.85,1567.61,1171.34,1565.53,1169.64,1563.2Z"/><path class="cls-1" d="M729.53,1563.28c2.43-4.06,5.8-4.79,9.62-4.11a26,26,0,0,1,12.06,5,72,72,0,0,1,8.37,7.71,13.19,13.19,0,0,1,3.52,11c-1.42,3-3.86,3.94-6.89,4a22.65,22.65,0,0,1-14.53-4.83,72.47,72.47,0,0,1-8.36-7.71A13.22,13.22,0,0,1,729.53,1563.28Zm29.72,19a8.1,8.1,0,0,0-1.9-7.7c-3.92-4.57-8.39-8.5-14.07-10.83a13,13,0,0,0-9.73-.35c-.38,4.16-.31,5.21,1.33,7.54a31.21,31.21,0,0,0,18.19,12.73C755.26,1584.18,757.42,1584.11,759.25,1582.23Z"/><path class="cls-1" d="M1297.35,1052.68l-1.61-.81c.89-5.17.62-10.36.63-15.53q0-21.63,0-43.26c0-3.18-.2-6.35-.32-9.77.93-1.4,2.38-1.51,4.39-.76a10.68,10.68,0,0,1,.87,2.49,48.38,48.38,0,0,1,.2,5.39q0,26.15-.09,52.27a28.84,28.84,0,0,1-.69,5.93A4.94,4.94,0,0,1,1297.35,1052.68Z"/><path class="cls-1" d="M1296.89,1306.84c-.13-2.76-.29-4.73-.3-6.69q-.13-24.9-.23-49.78c0-4.19-.18-8.38-.28-13l2.3-.4a11.85,11.85,0,0,1,3,8c.07,3.8.23,7.59.22,11.39q0,21.9-.16,43.78c0,2-.22,3.94-.35,6.21Z"/><path class="cls-1" d="M1262.93,1269.93c.63,1.47,1.29,2.34,1.32,3.22.16,4.53,2.18,8.92,1.17,13.35-1.29,1.47-2.6,1.13-4.28.52-1.09-5.16-.67-10.45-.37-15.79Z"/><path class="cls-1" d="M1262.87,1002.84l2-.32c.23.25.67.48.71.78.69,5.11.17,10.21,0,15.16-1.66,1.42-3,1.4-4.51.21a5.54,5.54,0,0,1-.32-1.67C1261.41,1012.32,1262.14,1007.65,1262.87,1002.84Z"/><path class="cls-1" d="M1308.28,955c-.33.19-.66.53-1,.53a7.17,7.17,0,0,1-1.57-.32,29,29,0,0,1-.1-13.62c.33-.19.66-.53,1-.54a7.27,7.27,0,0,1,1.57.29A33.73,33.73,0,0,1,1308.28,955Z"/><path class="cls-1" d="M1308.22,1348.39l-2.23.32c-1.41-4.41-1.48-8.31-.28-14.29l2.21-.31C1309.29,1339,1309,1343.55,1308.22,1348.39Z"/><path class="cls-1" d="M617,1052.19l-2,.45c-1.91-1.67-2.13-3.82-2.16-6.05,0-5-.2-10-.19-15q0-22.23.18-44.45c0-1.37.19-2.74.27-3.84,1.24-1.24,2.28-1.42,3.41-.49a3.91,3.91,0,0,1,.35.48,1.48,1.48,0,0,1,.19.57Z"/><path class="cls-1" d="M616.21,1306.43l-2.45.59c-.37-.39-.82-.64-.86-.94a28.43,28.43,0,0,1-.25-3.57q.06-29.09.15-58.16c0-2-.16-4,.93-5.84.67-1.12,1.55-1.83,2.95-1.31C617.14,1241.78,616.78,1300.15,616.21,1306.43Z"/><path class="cls-1" d="M641.86,1270.86a13.84,13.84,0,0,1,2.11-.57,8.8,8.8,0,0,1,1.71.23c1.41,4,1.54,9.89.38,16.22-1.17,1-2.42,1.06-4.17,0A76.74,76.74,0,0,1,641.86,1270.86Z"/><path class="cls-1" d="M646,1019.28H642.4c-1.1-4.77-1.2-8.84-.42-16.41l3.57-.64C647.07,1006.23,647.23,1012.19,646,1019.28Z"/><path class="cls-1" d="M842.62,512.17c5.64-.54,5.64-.54,9.37,1.3,3.45,3.86,3.42,7.86.44,12.18-3.68,2.71-7.58,2.78-11.59.35-2.72-2.69-3.27-5.84-1.71-10.14Zm-.14,6c-.63,2.5.45,4.23,2.69,5.63h3.22a4.81,4.81,0,0,0-.35-8.46C844.6,515.81,844.61,515.86,842.48,518.13Z"/><path class="cls-1" d="M1071.71,529.76l-2.07,3.44c-5.09,4.42-10.63,4.35-15.33.08-2.13-1.93-2.77-4.73-2.83-7.67-.09-3.9,2.34-6.18,4.84-8.32,4-1.91,7.79-2.37,11.42.38S1073.06,524.08,1071.71,529.76Zm-15.29-.09c1.46,3,4.17,2.89,6.16,3.73,2.81-1.37,2.81-1.37,3.69-2.94C1061.8,532.1,1061.8,532.1,1056.42,529.67Z"/><path class="cls-1" d="M1147.85,539.78a43.28,43.28,0,0,1-.22-5.32,5.84,5.84,0,0,1,4.54-5.57c2.81-.59,5.59-.65,7.53,2,.81,1.11,1.42,2.37,2.15,3.62q-.49,2.65-1,5.2c-2.42,2.33-4.8,4.36-8.7,3.24l-4.48-3.36Zm10.11-2.29c.66-2.32,0-3.83-1.69-4.88a12.19,12.19,0,0,0-2.49-.88l-1.33,1.32c.23,5.33.23,5.33,1.27,6.11C1155.44,539.67,1156.74,539,1158,537.49Z"/><path class="cls-1" d="M1332.72,758.9l5-3,4.32,1.62c1.69,2.72,2,5.15.41,7.63-2.52,1.67-2.53,1.66-5.78,1.93l-3.62-3C1332.93,762.58,1332.84,761,1332.72,758.9Z"/><path class="cls-1" d="M961.24,311A11.72,11.72,0,0,1,972.16,323a12,12,0,0,1-12.54,11.81c-6.85-.15-12.2-7.3-11.68-12.82C948.55,315.53,954.23,310.65,961.24,311Zm-1.65,3.15c-1.05.57-2.3,1.17-3.48,1.88-3.66,2.2-4.82,4.89-3.92,9a8.69,8.69,0,0,0,8.88,6.41,8.41,8.41,0,0,0,7.17-6.25c.76-3.55,0-6.75-2.94-9.08A8.47,8.47,0,0,0,959.59,314.14Z"/><path class="cls-1" d="M949,1468.61a70,70,0,0,1,19.72,2.28c13.32,3.3,25,9.56,34.5,19.55,7.83,8.22,12.75,17.91,13.53,29.36,1,14.06-4.21,25.82-14,35.67-7.19,7.21-15.79,12.08-25.38,15.49a78.55,78.55,0,0,1-27.12,4.32c-16.13-.12-31.32-4.35-44.57-13.82-9.25-6.6-16.69-14.9-20.53-26a44.74,44.74,0,0,1-2.32-18.83c1-12.05,6.6-21.64,15.2-29.71a64.35,64.35,0,0,1,36.22-17.24c2.37-.32,4.72-.89,7.11-1.06C943.94,1468.46,946.55,1468.61,949,1468.61Zm64.65,54.63c-.84.53-1.27.65-1.45.94a65.63,65.63,0,0,1-12.09,14.83,11.54,11.54,0,0,0-3.9,6.59,29,29,0,0,1-1.43,4.15c-7.82,5-15.71,8.74-24.35,10.44-2.57-.13-3.82-2.16-5.46-3.5-2.08,0-4.07,0-6.07,0-6.79.1-13.55.21-20.34-.94a81.37,81.37,0,0,1-22.14-7.21,66.06,66.06,0,0,1-11.87-8.07,64.74,64.74,0,0,1-13.31-14.54,22.51,22.51,0,0,0-2.65-3.25,17.46,17.46,0,0,0-2.76-1.79,47.29,47.29,0,0,0,.33,5.35,53.36,53.36,0,0,0,1.64,7c3.48,11,10.8,19.17,19.92,25.63a70.64,70.64,0,0,0,28,11.66,79.35,79.35,0,0,0,22.69,1.18,80.47,80.47,0,0,0,19.8-4.6,59.49,59.49,0,0,0,23-14.83,46.41,46.41,0,0,0,9-13.36C1012.4,1534,1013.13,1529,1013.68,1523.24Zm-33.22-34.43c4.29,4.72,7.65,9.16,9.12,14.68A27.65,27.65,0,0,1,989,1520c-1.86,5.44-5.87,9.31-9.73,13.62a48.54,48.54,0,0,0,7.85,6.7c5-3.1,5.92-3.91,9.58-8.93,7.22-9.92,8.73-20.66,4.62-32.26-1.78-5-4.87-9.14-8.25-13.08a9.14,9.14,0,0,0-5.57-3.37Zm-80.28,33.67a19,19,0,0,0,1.38,4,52,52,0,0,0,5.61,7.74c7.94,8.31,17.77,13.41,28.87,16.08,6.25,1.51,12.67,1.5,19.05,1.52,2.73,0,5.58,0,8.22-1.56-.77-3-1.5-5.77-2.23-8.55-6.92.5-13.62,1-20.36-.41-13.52-3-23.64-10.09-29.42-22.91-.12-.27-.6-.37-.92-.54l-.79,2.66Zm10.46-20.5a29.87,29.87,0,0,1,1.75-3.78c1.86-2.83,3.45-6,5.83-8.3a41.35,41.35,0,0,1,25.69-11.65,66.92,66.92,0,0,1,17.09.69c1.11-2,2.25-3.66,1.11-6-4.93-.51-9.81-1.52-14.81-1.44a80.13,80.13,0,0,0-30.25,6.49c-8.49,3.59-14.28,10-17.52,18.71a7.46,7.46,0,0,0-.12,1.94C902.79,1500.52,907,1499.7,910.64,1502Zm22-5.22c5,5,11,6.45,16.13,9.29a38.32,38.32,0,0,0,20.11-7c.39-.27.46-1,.65-1.47-5.15-6.68-10-9.22-17.84-9.29-2,0-4,0-6,0a18.18,18.18,0,0,0-11.72,5.35C933.19,1494.34,933,1495.68,932.6,1496.76Zm48.6,10.85c-4.48,14.24-13.67,21.33-27.34,21.55a2,2,0,0,1-.56-.21c-.78-.6-1.54-1.22-2-1.62l-12.6-2.36-2.89,1.54c-2.16-1.21-4.25-2-5.68-3.86.19-1,.37-2,.58-3l-4.54-5.27-2.55,1.33a14.83,14.83,0,0,1-3-11.67h3c.08-.69.14-1.26.2-1.78l-3-1.83c.75-2.34.8-4.63,2.94-6l2.57,1.07c1.42-1.52,2.73-3,4.16-4.42s2.89-2.56,4.47-3.94l-1.69-2c-5.26,1.87-9.16,5.32-12.41,9.41-4.74,6-6,12.6-2.43,19.63a29.94,29.94,0,0,0,4,5.94c5.75,6.64,13.21,9.92,21.78,11.52a39.69,39.69,0,0,0,27.19-4.69,25.16,25.16,0,0,0,12.4-14.84,19.21,19.21,0,0,0,.28-4.23Zm-1.37,32-13.61,6.51c.43,3.53,2,6.25,3.49,9.23,6.23-1.4,11.91-3.43,17.1-7.45-1.07-1.47-1.91-2.78-2.92-4C982.62,1542.43,981.22,1541.05,979.83,1539.58Zm-73.33-33c-4.68-.38-8.54-2.61-12.79-1.22a18.29,18.29,0,0,0,.24,13.83,31.63,31.63,0,0,0,12.55-1.76Zm77.42-25.16a2.12,2.12,0,0,0-1.61-2.37c-4.61-1.76-9.26-3.44-14-5.21a29,29,0,0,0-1.55,2.91c-.42,1.08-.68,2.23-1.09,3.63,4.61,1.2,8.25,4.17,12.54,5.37a11.31,11.31,0,0,0,1.78-.94C981.33,1483.65,982.67,1482.46,983.92,1481.39Zm22.07,18.95c.41,3.83,1,7.14,1,10.45s-.56,6.64-1,10.93c2.22-5.19,3.42-11.09,3.25-14.79A7.74,7.74,0,0,0,1006,1500.34Zm-29.62-7.75c1.71,3.68,3.43,7.37,5.17,11.13l2-.48A16.45,16.45,0,0,0,976.37,1492.59Zm-87.27,24.34V1506.5C886.14,1510.34,887.42,1513.74,889.1,1516.93Z"/><path class="cls-1" d="M952.32,714.37c4.66.51,10.48.8,16.15,1.84A67.25,67.25,0,0,1,999,730.58a49.71,49.71,0,0,1,11.33,13.08,42.94,42.94,0,0,1,6.17,28.71c-1.5,10.67-6.4,19.54-13.84,27.27a66.67,66.67,0,0,1-19.93,14.15,79.3,79.3,0,0,1-20,6.15,86.2,86.2,0,0,1-21.5.93A72.5,72.5,0,0,1,904.42,808a54.8,54.8,0,0,1-15.57-16.46,41.5,41.5,0,0,1-5.77-15.63,52.54,52.54,0,0,1,.22-15.49A42.16,42.16,0,0,1,889.47,745c6.5-10.53,15.9-18,26.87-23.18,8.66-4.1,17.91-6.81,27.7-6.91C946.43,714.85,948.82,714.59,952.32,714.37Zm16.14,15.38a9.36,9.36,0,0,1,3-.15,96.51,96.51,0,0,1,12,3.82,67.52,67.52,0,0,1,11.89,6.77c.59,2.29,1.13,4.4,1.53,6,1.76,2.12,3.13,3.84,4.58,5.5,1.31,1.5,2.77,2.89,4.06,4.42s2.66,3.5,4.08,5.18,1.81,3.84,4.15,5.45c-.36-3.41-.64-6.16-1-8.91a8.85,8.85,0,0,0-.43-1.74,49.4,49.4,0,0,0-20.81-27,67,67,0,0,0-20.22-8.92,85,85,0,0,0-37.45-.74,66.19,66.19,0,0,0-16.94,5.87,65.08,65.08,0,0,0-16.26,11.19,48.59,48.59,0,0,0-13.55,22.22c-.84,3-1.63,6.2-1,9.59,2.56-.43,3.66-2.38,4.89-4.13a74.35,74.35,0,0,1,6.93-9,72.6,72.6,0,0,1,17-13.17,69.37,69.37,0,0,1,30.21-9c6-.34,12-.88,18,.12A7.57,7.57,0,0,0,965,733Zm10.42,26.51c6.87,5.93,11.42,12.65,11.69,21.73s-4,16-9.64,22.29c3.3,4.05,3.4,4.13,7.39,6.18,6.93-2.06,14.33-16,15-23.86,1.27-14.35-4.89-25-15.91-33.73A62.38,62.38,0,0,0,978.88,756.26Zm-68.41,16.09c1.43-2.63,2.47-5,3.91-7.13,5.88-8.67,14.14-13.89,24.19-16.54,5.9-1.55,11.87-1.54,17.88-1.23,1.53.08,3.17.76,4.78-.66-.05-2.58,2-4.87,1.95-8.07-2-.25-3.74-.6-5.49-.67-3.2-.12-6.41-.08-9.61-.09-12.2,0-23.19,3.88-33.14,10.67a45.38,45.38,0,0,0-14,15.48,10.71,10.71,0,0,0-.64,2.93c3.19,1.41,6.79.47,9.29,2.74Zm52.38,43.72c-.49-2.45-.61-4.28-2.27-5.51a12.8,12.8,0,0,0-1.76.1,48.88,48.88,0,0,1-21.43-.47c-11.85-3-21-9.65-26-21.13-.3-.69-.62-1.36-1-2.09-3,3.32-7.79,1.78-11.09,4.11a8.46,8.46,0,0,0,.26,1.91c3.45,8.25,8.89,14.75,17.21,18.33a86.1,86.1,0,0,0,13.62,4.56c9.44,2.29,19.08,1.87,28.69,1.3A19.55,19.55,0,0,0,962.85,816.07ZM959.13,785c-15.93-.51-20.93,1.16-27,8.73,5.14,7.58,15.15,8.61,22.49,7.57A21.63,21.63,0,0,0,966,796.37c1.87-1.64,4-3.2,4.63-6.08Zm-28.44-19c5.13-3.55,10.87-6.37,17.83-5.12.21,1.89,1.09,2.3,2.31,1.87l2.84-3c13.62,1.8,23.58,7.9,27.61,21.58l2.48-.26a8.27,8.27,0,0,0,.35-1.93,9.34,9.34,0,0,0-.5-2.32,25.58,25.58,0,0,0-12.23-14.21c-12.84-7-26-6.81-39.12-.8a28.62,28.62,0,0,0-13.35,12.5c-3.71,6.78-3.39,13.44,1.06,19.74a25.37,25.37,0,0,0,8.74,8.05c.25.14.66,0,1.06,0,.26-1.14.52-2.25.8-3.47l-1.76-.92-2.07,1c-4.43-2-4.07-6.49-5.92-9.64a4.72,4.72,0,0,1,.28-5.05c1.22-.51,1.93,0,2.54,1.29v-3.11L921,779.59c.75-4.29,2.93-7.28,5.77-10.06l3,1.33C931.66,769.62,929.59,768.2,930.69,766Zm35.13-22.56,12.78,5.62c2.71-2.57,5.65-4.55,8.22-7.57-5.51-3.58-10.76-6.54-17.18-7A37.39,37.39,0,0,0,965.82,743.45Zm-59.32,39.1V772.27c-4.09-2.07-8.5-1.54-12.89-2.52-1,5.19-1.59,10,.16,14.92C898.34,785,902.41,783.79,906.5,782.55Zm71.74,20.84-12.6,6.19a24.61,24.61,0,0,0,1,3,19.13,19.13,0,0,0,1.49,2.31,7.15,7.15,0,0,0,2.06,0c4.11-1.46,8.21-3,12.27-4.54.62-.24,1-1,1.74-1.76Zm27.74-14a7.44,7.44,0,0,0,3.21-6.07,29.38,29.38,0,0,0-2.76-14.41c.05,3.33.63,6.63.61,9.93S1006.4,785.5,1006,789.4ZM973.3,800c6.39-4.38,9.44-8.83,10-14.53l-1.88-.29c-1,2.61-1.66,5.33-3,7.71A66.69,66.69,0,0,1,973.3,800ZM889,783V772.48C887.36,775.79,886.32,779.1,889,783Z"/></svg>