<svg id="Layer_1" data-name="Layer 1" xmlns="http://www.w3.org/2000/svg" viewBox="0 0 2000 2000"><defs><style>.cls-1{fill:#1d1d1b;stroke:#1d1d1b;stroke-miterlimit:10;stroke-width:2px;}</style></defs><path class="cls-1" d="M923.16,575.49c0-2.78,0-5.57,0-8.35,0-2.6.46-5.31-3.16-6.19-.66-.16-1.24-1.62-1.41-2.56a36.3,36.3,0,0,1-.54-5.7c-.45-16.87-.77-33.74-1.34-50.61-.12-3.41-1.22-6.77-1.77-10.17-.71-4.43-2-8.81,0-13.31a13.51,13.51,0,0,0,.78-5.61c-.22-10.78-.41-21.57-1-32.34-.2-3.81,1.23-5.88,4.28-8,14.36-10,30-17.47,45.93-24.41a18.38,18.38,0,0,1,8-1.2c5.65.26,8.44-1.93,8.56-7.45.09-3.66.28-7.32.11-11-.13-3,.91-4.84,3.77-6,4.82-2,9.46-4.36,14.25-6.41,2-.85,2.91-1.85,2.91-4.19,0-22.79,6.64-43.88,17.14-63.78,9.11-17.27,21.4-31.54,39.87-39.67,9.2-4.06,18.39-5.06,27.73-1.53,3.3,1.25,6.25,3.77,9,6.14,11.13,9.64,19.53,21.23,23.75,35.46,1.17,3.94,1.33,8.21,1.75,12.35.61,6,.53,6,6.53,7.25,3.22.69,6.43,1.45,9.67,2.05,2.1.4,2.9,1.54,2.86,3.62-.13,5.74-.23,11.48-.2,17.22,0,2.15-1.2,3-2.89,3.83-4.08,1.91-8.09,4-12.22,5.83a4.6,4.6,0,0,0-3,4.81c0,3.31-.26,6.61-.41,9.91-.2,4.66-.22,4.72,4.36,5.75,12.86,2.91,25.72,5.76,38.59,8.63,5.24,1.17,10.54,2.13,15.72,3.55a33.46,33.46,0,0,1,8,3.53c5.39,3.17,10.58,6.68,15.93,9.92a6.07,6.07,0,0,1,3.16,6c-.65,18.95-1.18,37.91-1.78,56.86q-.86,26.87-1.78,53.73c0,1.56-.11,3.12-.16,4.69-.1,2.86-1.61,4.31-4.4,4.88-10.2,2.08-20.32,4.54-30.57,6.34-7.13,1.25-12.8,5.27-18.73,8.76-3.49,2.06-2.18,9.42,1.69,11,7.54,3.12,15.17,6,22.65,9.28a30.81,30.81,0,0,1,8,4.78q31.05,27.09,61.91,54.41a10.71,10.71,0,0,1,2.47,2.66c5.58,10.39,14.74,17.46,23.21,25.17,3.73,3.39,7.42,6.84,11.24,10.13a9,9,0,0,1,3.31,6.19c1.17,10,3,20,3.76,30,.58,7.77.06,15.63-.32,23.44-.15,3.08.26,5,3.7,5.48a9.56,9.56,0,0,1,6.73,4.45,31.41,31.41,0,0,0,3,3.57c5.49,5.73,7.43,12.3,6.87,20.39-2.07,29.84-3.56,59.72-5.27,89.59-.69,12-.89,24-2.26,35.92-1,8.58-3.39,17-5.47,25.45-.9,3.66-1.24,7.12,0,10.7.34,1,.4,2.06.73,3,2.81,8.29,3.39,16.5,0,24.88a11.44,11.44,0,0,0-.21,7,26.1,26.1,0,0,1-.56,16.86c-1.46,4-2.11,8-.54,12.2s1.07,8.22-.32,12.25a26.79,26.79,0,0,0-.92,15.86,20.35,20.35,0,0,1-.32,9.23c-1.57,6.94-3.91,13.71-5.39,20.67a24.82,24.82,0,0,1-6.88,13.15c-4.66,4.54-6.07,9.89-6.23,16.38-.4,15.82-1.37,31.63-2.6,47.41-1.26,16.09,1.32,31.93,2.2,47.88.41,7.45.36,14.94.13,22.4a13.5,13.5,0,0,1-2.24,6.74,14.44,14.44,0,0,0-2.14,10.94c2.16,13.39,0,26.74-.5,40.09a7,7,0,0,1-2.39,4.36c-3,2.63-3.94,5.78-4.12,9.64-1.17,24-2.25,48-3.9,71.9a255.44,255.44,0,0,0,1,41.12c.29,3.15,1.38,5.16,4,6.66,2.42,1.37,4.74,2.91,7,4.46,1.14.77,2.88,1.56,3.11,2.61.81,3.7,3.76,4.06,6.51,5,13.69,4.48,27.52,8.56,41,13.65,6.38,2.42,12.1,6.68,17.94,10.39,1.05.67,1.55,2.67,1.74,4.13.87,6.72,1.77,13.46,2.18,20.22a21.78,21.78,0,0,1-1.45,8.56c-2.57,7-5.41,13.93-8.43,20.76a13,13,0,0,1-4.07,5.1c-4.21,3-8.86,5.52-13,8.6-2.91,2.15-5.62,2-8.78,1-16.21-5.12-32.45-10.14-48.68-15.19-1.66-.52-3.38-.88-5-1.55a8.24,8.24,0,0,0-9.2,1.41c-3,2.53-6.27,4.19-10.48,2.38-2.29-1-3.75.42-4.81,2.62-6.43,13.3-13,26.54-19.49,39.79-4.07,8.27-8.08,16.56-12.35,24.72a12.1,12.1,0,0,1-4.29,4.3c-12.87,7.94-25.75,15.86-38.79,23.51-3.29,1.94-4.92,4-4.17,7.87.48,2.43-.31,4.13-2.74,5.47-6.26,3.45-6,3.58-5.18,11q4.62,39.88,9.05,79.8c.59,5.27.41,5.29-4.51,7.76a36.89,36.89,0,0,0-3.7,1.91c-11.42,7.49-24.44,10.18-37.6,10.74-9.93.43-20.26,1-29.91-2.65a50,50,0,0,1-10.87-6.06c-1.13-.77-1.58-3-1.76-4.6-1.35-12.61-2.57-25.25-3.81-37.88q-2.19-22.32-4.32-44.64c-.33-3.42-2.17-5.09-5.49-6q-39.26-10.32-78.42-21a19.41,19.41,0,0,1-7.22-3.85c-16.31-13.86-32.65-27.69-48.55-42-3.3-3-5.05-7.77-7.14-11.92-3.07-6.09-3.1-6.42-8.46-2.7-4,2.76-7.42,3.31-11.12-.09-2.59-2.38-4.86-1.22-7.4.39-21.13,13.42-42.37,26.66-63.44,40.15-3.37,2.16-5.79,2.16-9.38.28-15.57-8.15-25.38-21.23-32.41-36.76-2.43-5.36-4.36-11-6.34-16.51-1.89-5.28.24-10.34,1.65-15.26.51-1.76,3.1-3.09,5-4.28q27.69-17.65,55.47-35.21a17.84,17.84,0,0,1,1.76-1.1c5.09-2.43,8.28-5.95,7.84-12.09-.22-3,1.65-5.06,4.43-6.42a105.07,105.07,0,0,0,10-5.59c.94-.6,2-2.17,1.87-3.11-2-12.67,1.38-24.94,2.84-37.3a170.9,170.9,0,0,0,1.14-30.16c-1-18.23-1.83-36.48-2.72-54.72-1.39-28.49-2.66-57-4.35-85.47-.21-3.56-2.13-7.38-4.23-10.41-5.29-7.62-5.37-16.32-4.56-24.6,1.47-15,4.35-29.92,6.72-44.85.24-1.49.58-3.38,1.6-4.25,4.41-3.76,5-8.82,5.58-14q1.34-11.38,3.16-22.72c.48-3,.11-5.42-2.4-7.39-12.55-9.87-20-23.11-26.09-37.62-3.3-7.9-5.55-15.46-4.77-24.07.4-4.37-.73-8.88-1.06-13.34-.2-2.59-.28-5.2-.28-7.8,0-6.71,1.37-13.38-1.31-20.07-1.13-2.84-.29-6.54-.09-9.83.33-5.68,1.66-11.4-1.39-16.84a6.15,6.15,0,0,1-.25-3.08c.27-5.56.74-11.11.87-16.67.35-15.26-.16-10.6,8.05-25.22,3.92-7,8.07-13.81,12.35-20.55,1.43-2.25,1.59-3.86,0-6-3.05-4.23-5.49-8.94-8.8-12.93-5.59-6.75-5.51-14.43-4.37-22.27,1.05-7.21,2.46-14.39,4.11-21.5a73.93,73.93,0,0,0,1.5-20.71q-2.21-45.34-4.26-90.7c-.74-16.67-1.07-33.36-1.9-50-.37-7.51,3.84-13.18,6.75-19.39.57-1.21,2.38-1.94,3.74-2.67,13.6-7.33,27.19-14.7,40.91-21.83a12.35,12.35,0,0,1,6.89-1,6.53,6.53,0,0,0,5.63-1.76c7.49-6.49,15-13,22.62-19.32,2.66-2.21,3.84-4.64,3.48-8.12a87.2,87.2,0,0,1-.06-8.86Zm105.49,517.28c14.8,2.74,29.65,1.28,44.49,1.35,0-.43,0-.85,0-1.28h-44.57c-2-.62-3.91-1.37-5.92-1.85-19.19-4.58-38.41-9-57.58-13.72-5.88-1.43-11.62-3.45-17.47-5-.85-.22-2,.56-3,.88.43,1,.62,2.33,1.35,3.09s1.87.83,2.86,1.13c6.15,1.82,12.27,3.71,18.45,5.39,6.85,1.87,13.66,4.11,20.64,5.15C1001.45,1089.9,1015.07,1091.19,1028.65,1092.77Zm229.79-347.71c-18.09,8.07-36.14,16.21-54.27,24.18-4.74,2.08-9.57,4.28-14.59,5.28-18.36,3.66-36.83,6.82-55.25,10.2-15.52,2.84-30.95,5.49-46.95,4.78-19.11-.86-38.27-.16-57.41-.36-8-.08-16.08-.1-23.93-1.33-12.66-2-25.17-5-37.75-7.54-9.65-1.94-19.33-3.81-29-5.71,12.16,5.48,12.16,5.48,20.38,17.16a15,15,0,0,0,1.19,1.72c3.59,3.79,4.39,8.37,4.49,13.44.55,29.87,1.3,59.74,2,89.61a30.69,30.69,0,0,0,.62,4.11c.77,5,1.77,9.94,2.22,14.94.3,3.29,1.44,4.92,4.81,5.63,8.83,1.84,17.56,4.12,26.35,6.1,3.88.88,7.81,2,11.74,2.1,29.39.51,58.78.81,88.18,1.11a33.5,33.5,0,0,0,6.69-.72q30.38-5.88,60.72-11.88c6.45-1.28,13.26-1.82,19.23-4.32,10.38-4.36,20.26-9.91,30.25-15.15a5.67,5.67,0,0,0,2.51-3.61,80,80,0,0,0,1-10.37c.55-11.62.85-23.26,1.53-34.87.81-13.86,2-27.7,2.85-41.56.57-9.93,1.47-19.82,4.51-29.3,3.5-11,9-20.67,19-27.18,3.05-2,5.85-4.35,8.76-6.54a17,17,0,0,0,1.87-.9q12-7.73,23.92-15.5c.4-.25.92-.72.93-1.1.13-4.51.86-9.05-.32-14.86ZM859.91,1212.11l-1.18.41c.34,4.49.78,9,1,13.47q1.63,33.3,3.18,66.62c.68,14.22,1.42,28.45,2.05,42.67q1.24,28.13,2.37,56.24a33.77,33.77,0,0,0,3.61,14.49c6.24,12,12,24.29,18.34,36.28a25.69,25.69,0,0,0,6.91,8.24c14.64,11.2,29.47,22.14,44.33,33a25.77,25.77,0,0,0,7.34,3.76c20.66,6.51,41.37,12.84,62,19.28a54.43,54.43,0,0,0,15.87,2.27c19,.14,37.9.66,56.85.87,6.73.08,13.43.51,20.16-1.41,20-5.71,40.15-10.9,60.19-16.45,4-1.1,8.15-2.29,11.51-4.53,16.5-11,32.77-22.28,49.06-33.57a13,13,0,0,0,3.78-4.16q12-20.79,23.63-41.73a17.17,17.17,0,0,0,1.88-6.88c.81-11.25,1.44-22.52,2.05-33.79,1.1-20.29,2.13-40.58,3.2-60.87.65-12.31,1.37-24.62,2-36.93.15-3,0-6.07,0-9.11l-1.54-1c-1.33,1.8-2.58,3.68-4,5.4-3.42,4.09-8,6.45-12.71,8.77-5.48,2.69-9.84.18-14.25-2.06-3.65-1.85-1.41-5.62-1.92-8.51a10.14,10.14,0,0,1,0-1.56c-.14-5.71-1.65-6.62-6.58-3.64-10.12,6.1-20.12,12.41-30.27,18.45a32.67,32.67,0,0,1-8.53,3.61c-19.49,4.94-39.12,9.39-58.53,14.62a127.6,127.6,0,0,1-37,4.38q-31.8-.84-63.63-1a72.45,72.45,0,0,1-20-3c-13-3.79-26.06-7.25-39.13-10.7-4.65-1.23-4.78-1-4.9,3.6-.08,3.13.09,6.27-.09,9.39-.25,4.3-6.83,10.4-10.61,9.65a63.76,63.76,0,0,1-12-3.37c-8.8-3.7-17.38-7.91-26.15-11.71-2.77-1.2-4-2.86-4.09-5.87-.24-8.34-.84-16.67-.95-25a7.4,7.4,0,0,0-3.68-6.84c-7.14-4.64-14-9.67-21.26-14.17a23.41,23.41,0,0,1-8.44-9.55C866.64,1224.15,863.23,1218.15,859.91,1212.11Zm63.33-617-1.19-.51c-5.4,4.59-10.68,9.32-16.23,13.73C891.3,619.88,877.76,632.27,869,649a36.51,36.51,0,0,0-3.58,8.53c-1.8,8-3,16-4.82,24a8.28,8.28,0,0,0,1.83,7.65c6.2,8,12.41,15.91,18.37,24a22.28,22.28,0,0,0,8.68,7.18c12.7,6.06,25.29,12.32,38,18.33,4.83,2.29,9.72,4.83,14.87,6,14.85,3.44,29.84,6.26,44.79,9.27,9,1.82,18,4.08,27,5.12s18.4,1,27.61,1.1c19.31.17,38.63.12,57.94.13a32.94,32.94,0,0,0,5.7-.43c19.11-3.32,38.23-6.64,57.32-10.11,6.63-1.2,13.55-1.92,19.69-4.44,17.17-7.08,34-14.93,50.94-22.61a18,18,0,0,0,5.83-4.17c7.76-8.7,15.26-17.62,23-26.33a8,8,0,0,0,2.12-6.64c-.71-6.21-1.58-12.4-2.07-18.63-.57-7.28-2.66-13.85-7.38-19.58-2.2-2.67-3.78-5.84-5.87-8.62-2.91-3.86-5.59-8.06-9.14-11.25-18.38-16.51-37.19-32.52-55.47-49.14-9.54-8.68-21.86-11-33-16-.58-.26-2.26.57-2.61,1.29q-5.71,11.94-11.12,24a8.79,8.79,0,0,1-6.5,5.3c-15.65,3.91-31.22,8.15-46.9,11.94a41,41,0,0,1-11.82.74c-9-.52-18-1.47-27-2.22-9.52-.78-19.07-1.29-28.55-2.42-3.32-.39-6.63-1.95-9.63-3.56-4.12-2.2-7.94-5-11.92-7.48-3.6-2.25-3.47-2-5.76,1.68-4.87,7.92-4.71,16.6-4,25.27.37,4.44-.33,8.28-3.07,11.72a14.93,14.93,0,0,0-3.39,12.16c1,6.11-2,10.65-5.21,15.29-1.64,2.41-3.58,2.93-6.27,2.12q-18.69-5.65-37.42-11.14a5,5,0,0,1-4.07-5.22c-.25-6.6-.7-13.19-1.12-19.77C924.47,613.13,923.85,604.14,923.24,595.14Zm311.75,555c-2,1.37-3.29,2.3-4.62,3.08-17.26,10-34.51,20.13-51.86,30a29.64,29.64,0,0,1-7.84,2.61c-16,3.81-32.11,7.32-48.07,11.34-15.09,3.79-30.22,6-45.86,5.21-15.44-.76-30.94-.77-46.41-.76a104.67,104.67,0,0,1-28.25-3.85c-16.54-4.59-33.22-8.69-49.86-12.9-4.27-1.07-4.44-.87-4.5,3.51-.28,20.53-.13,41,5.71,61,.94,3.21,2.2,5,5.54,5.86,14.24,3.76,28.48,7.54,42.57,11.81a92.08,92.08,0,0,0,27.16,3.8c18.25,0,36.5.65,54.75.81,6.74.06,13.7.44,20.2-1,22.33-4.9,44.52-10.48,66.72-15.93,4-1,8.2-2,11.71-4,11.14-6.42,21.84-13.59,33-20,6.47-3.67,11.48-7.68,10.52-16a4.13,4.13,0,0,1,.18-1c1.24-8.93,2.51-17.86,3.71-26.79.37-2.75.28-5.59.93-8.27.87-3.66,2.76-7.12,3.29-10.81C1234.54,1162.37,1234.57,1156.63,1235,1150.14ZM945.47,946.32l-.6-.17c-.28-3.82-.68-7.63-.79-11.44q-.6-20.87-1-41.72c-.47-23.12-1.16-46.25-1.16-69.38,0-9.71-2.35-18.08-9-25.11a10.85,10.85,0,0,0-4.09-3q-24.18-8.13-48.45-15.94a4.46,4.46,0,0,0-3.36.1c-3.81,2.46-7.12,5-6.78,10.59,1,16.83,1.54,33.68,2.16,50.52.84,22.58,1.36,45.18,2.47,67.75.43,8.58.6,17.16,3.77,25.6,8.43,22.43,16.11,45.14,24,67.77a33.3,33.3,0,0,1,2.12,9.08c.84,18.41,1.46,36.82,2.13,55.23.69,18.93,1.4,37.86,2,56.8.83,25.71,1.56,51.43,2.37,77.15.11,3.64.48,7.28.61,10.92.3,8.67,1.09,17.38-1.35,25.91-4.27,14.94-4,30.24-3.36,45.53.09,2.31,0,5,2.77,6.26l22.77,10.32c2.11,1,3,.11,2.82-2-.6-9.87-.62-19.82-2-29.58-1.45-10.28-5-20.28-6.18-30.58-1.46-12.74-1.5-25.65-2-38.49-.44-10.59-.71-21.19-1-31.79q-1.1-37.26-2.14-74.54c-.5-18.25-.87-36.5-1.33-54.75,0-1.56-.44-3.11-.46-4.66-.1-8.27-1.34-16.47,2.09-24.65,7.19-17.13,13.8-34.52,20.49-51.86C944.12,953.06,944.64,949.63,945.47,946.32Zm119.66,252.85v-.36c10.79,0,21.57,0,32.36,0a31.32,31.32,0,0,0,6.68-.77q28.63-6.49,57.24-13.16c5.21-1.22,10.87-1.86,15.41-4.39,17.44-9.75,34.55-20.09,51.69-30.36a13.17,13.17,0,0,0,6.71-11.09c.54-9.88,1.27-19.75,1.87-29.63.14-2.26,0-4.53.07-6.79,0-2.11-.56-3.12-2.72-1.67-1.88,1.26-3.87,2.36-5.67,3.72a81.27,81.27,0,0,1-25,12.59c-4,1.25-7.81,2.92-11.75,4.28-10.31,3.59-20.49,7.73-31,10.49-10.37,2.73-21.11,4.06-31.69,6-8,1.43-16,3.55-24.09,4-19.09,1.12-38.22,1.47-57.34,2a60.82,60.82,0,0,1-8.84-.45c-12.92-1.49-25.85-3-38.75-4.67-11.86-1.54-23.79-2.7-35.15-7-4.7-1.76-9.62-2.94-14.46-4.34s-4.91-1.19-5,3.89c0,3,0,5.92,0,8.87.31,11.47.69,22.94,1,34.41.13,5,.11,5,5,6.31,15.23,4.09,30.45,8.25,45.7,12.27,6.2,1.63,12.42,3.84,18.72,4.22C1032.45,1198.57,1048.8,1198.7,1065.13,1199.17Zm132.26-253.68a22.36,22.36,0,0,0-2.65,1.64,129.72,129.72,0,0,1-30.34,19.07c-10.66,4.9-20.35,12.06-32.4,13.73-3.43.48-6.84,1.21-10.2,2a236.54,236.54,0,0,1-62.88,6.93c-16.72-.48-33.27-.84-49.49-5.46-15.26-4.34-31.53-5.42-45.15-14.9-4.17-2.91-4.63-2.47-6.61,2.43-4.3,10.62-8.46,21.3-12.86,31.88a32.51,32.51,0,0,0-2.34,12.66c0,3.41,1.16,5,4.43,5.84,9.4,2.46,18.68,5.33,28.07,7.78a122.83,122.83,0,0,0,13.74,2.62c9.95,1.42,19.91,2.69,29.89,3.91,7.05.87,14.12,2.21,21.18,2.21,21.2,0,42.4-.59,63.59-1a24.41,24.41,0,0,0,3.61-.46c13.32-2.27,26.59-4.88,40-6.73,15.8-2.18,30.46-8,45.33-13.18,2-.71,3.21-1.7,3.3-4,.19-5.55.62-11.1.86-16.65.36-8.16.76-16.31.91-24.47C1197.51,963,1197.39,954.69,1197.39,945.49Zm53,317.71,1.16.38c4.31-4.26,8.71-8.45,12.89-12.84a8.59,8.59,0,0,0,2.16-4.49c.55-4.12.74-8.29,1-12.44.31-5.72,1.06-11.47.69-17.15-.79-12.26-3.23-24.35-2-36.79,1.23-12.26,1.51-24.61,2.14-36.92,1.11-21.51,2.12-43,3.26-64.52.93-17.51,2-35,3-52.53.54-10.23.81-20.48,1.38-30.71.43-7.79.3-15.75,1.9-23.32,3.92-18.67,8.7-37.16,13.11-55.74,2.28-9.62,5.43-19.15,6.52-28.91,1.81-16.2,2.35-32.55,3.27-48.84.9-16,1.54-31.92,2.41-47.88.43-7.79,1.26-15.57,1.69-23.37a154,154,0,0,0,.22-15.64c-.24-5.22-3.2-6.5-7.36-3.52-8.2,5.87-16.33,11.84-24.6,17.6-7.16,5-10.35,12.68-11,20.41-1.81,20.58-2.36,41.26-3.33,61.91-.52,10.93-.79,21.88-1.33,32.81-.46,9.36-1.38,18.71-1.67,28.07-.24,7.61-1,15.25.94,22.83,2.78,10.93,5,22,7.87,32.91s4.43,22.06,3.5,33.47c-.86,10.56-1.4,21.14-1.92,31.71-1.16,23.08-2.16,46.15-3.32,69.22-.91,17.86-2,35.72-2.92,53.58-.56,10.93-.71,21.88-1.41,32.8-.55,8.47-1.32,17-2.63,25.34-2.53,16.3-5.54,32.52-5.56,49.09Zm-331.53-795c6-7.37,9.25-8.86,18-6.35,5,1.45,9.37,1.23,13.82-1.58,2.62-1.65,5.78-2.44,8.44-4,3.88-2.34,7.79-2.46,12-1.37,7.89,2,15.8,4,23.75,5.79,3.41.77,6.12,2.12,7.74,5.4a8.26,8.26,0,0,0,5.78,4.85c4.92,1,5.76.58,5.8,7.86.13,22.44.17,44.89.38,67.33,0,4.23-.15,8-4.9,9.67-.73.26-1.23,1.18-1.82,1.81-5,5.27-8.32,11.51-11.1,18.13-.94,2.24-.84,3.66,1.9,4.09a23,23,0,0,1,2.48.79q34.81,9.72,69.65,19.4c4.49,1.25,4.56,1.18,4.57-3.69q.12-56.37.2-112.74c0-6.07,0-6.05-6-7.54Q1007.18,460.5,944.82,445c-7.75-1.93-15.52-3.73-23.25-5.72-2.35-.6-3.27.08-3.22,2.43Q918.62,454.93,918.87,468.21Zm344.66,185.23c.83,6.25,1.75,11.37,2.16,16.53.67,8.47,1,17,1.48,25.45A11.72,11.72,0,0,1,1264,704c-7.65,8.78-15.11,17.73-22.85,26.43a22.5,22.5,0,0,1-7,5.23q-20.28,9.52-40.75,18.59c-5.84,2.58-11.77,5.31-17.94,6.69-12.51,2.79-25.22,4.72-37.85,7-18.76,3.35-37.38,7.16-56.74,5.94-15.77-1-31.64-.08-47.47-.37a144.24,144.24,0,0,1-22.28-1.85c-16.39-2.88-32.71-6.26-49-9.69-8.11-1.71-16.55-3-24.08-6.2-17.38-7.46-34.33-15.92-51.37-24.17a19.05,19.05,0,0,1-6.3-5.17c-6-7.47-11.55-15.25-17.49-22.74-3.43-4.32-6.3-8.78-6.09-14.51a72.05,72.05,0,0,1,1-10.26c1.61-8.79,3.45-17.55,5.45-27.6-6,5-11.15,9.14-16,13.49a7.85,7.85,0,0,0-1.93,4.09c-2.18,9.83-4.12,19.7-6.4,29.51a7.2,7.2,0,0,0,1.32,6.68c7.55,10,14.84,20.16,22.42,30.13a17.57,17.57,0,0,0,5.89,4.87c18.15,9.13,36.38,18.09,54.61,27.05a21,21,0,0,0,4.89,1.62q29.76,6.21,59.54,12.31c7.64,1.56,15.26,3.67,23,4.18,13.87.92,27.8,1,41.71,1.1,17,.19,34.09.12,51.13.11a39.87,39.87,0,0,0,6.72-.59c22.34-4,44.68-7.92,67-12,6.28-1.15,12.87-1.86,18.65-4.34,19-8.14,37.66-17,56.41-25.64a17.56,17.56,0,0,0,5.85-4.15q13.27-15.4,26.16-31.16a7.68,7.68,0,0,0,1.37-5.15q-1.52-14.76-3.58-29.46a11.07,11.07,0,0,0-2.66-6C1274.53,663.16,1269.38,658.76,1263.53,653.44ZM1163,453.77h.27c0-5.22.07-10.44,0-15.65-.06-3.54-.42-3.72-3.57-2.37-.8.34-1.55.78-2.32,1.18l-62.94,32.55c-3.39,1.75-6.77,3.56-10.16,5.32-4.43,2.31-4.43,2.3-2.14,7l.69,1.41q12,24.32,24,48.62c4.32,8.72,8.75,17.39,13,26.13,1,2.12,2.14,2.95,4.39,1.65q16.92-9.76,33.9-19.45a5.31,5.31,0,0,0,2.91-5c.17-7.82.69-15.63.87-23.45C1162.35,492.36,1162.65,473.07,1163,453.77Zm56.63,470.11-.41-.58c-7.11,3.54-14.18,7.15-21.33,10.59a32.73,32.73,0,0,1-7.28,2.59c-14.92,3.16-29.86,6.19-44.79,9.22-11.89,2.41-23.71,5.21-35.69,7-7.14,1.05-14.52.53-21.79.53-19.65,0-39.3-.08-58.94-.12-11.67,0-23.22-.61-34.56-3.84-7.49-2.14-15.2-3.52-22.82-5.17-1.64-.36-3.53-1-4.42,1.31-1.92,5-3.9,10-5.65,15.11-.29.86.12,2.69.77,3,7.15,3.84,13.72,8.88,21.85,10.73,13,3,26,6.07,39,8.89a73.87,73.87,0,0,0,12.83,1.57q19,.69,38,.91a86.84,86.84,0,0,0,16.06-.84c13.12-2.32,26.17-5.13,39.21-7.89a76.68,76.68,0,0,0,13.46-3.68c5.76-2.4,11.22-5.51,16.74-8.44,7.36-3.9,15-7.46,21.88-12,7.54-4.94,14.46-10.84,21.62-16.34C1208.86,932.28,1214.24,928.07,1219.64,923.88ZM893.3,1471.77l-1,.81c2.69,6.18,5.05,12.52,8.13,18.49,4.21,8.16,8.83,16.13,13.55,24a39.61,39.61,0,0,0,7.22,9.34q22,19.53,44.55,38.55a20.77,20.77,0,0,0,7.64,4.11c18.53,5.11,37.12,10,55.7,14.93l15.4,4.14c-.53-7.13-1-13.67-1.52-20.2a9.49,9.49,0,0,1,2.59-7.6c3.58-4,6.91-8.26,10.43-12.33,1.79-2.07,1.4-3.32-1.11-4.13-1-.31-1.95-.73-2.94-1q-20.82-6.49-41.65-13c-17.37-5.41-34.62-11.28-52.17-16a94,94,0,0,1-37-19C912.22,1485.3,902.58,1478.74,893.3,1471.77Zm31.55-958.93c.21,3.36.7,7.69.72,12,.23,36.84,1.06,73.66,3.42,110.43.11,1.72.54,3.43.65,5.16.16,2.41,1.28,3.58,3.72,4.21,5.53,1.43,10.95,3.28,16.44,4.92,5.14,1.53,10.36,2.85,15.45,4.55,3,1,3.86.05,3.69-2.78-.07-1.21,0-2.43-.06-3.65-.62-10.22-1.62-20.43-1.83-30.66-.57-28.33-.82-56.66-1.18-85-.06-4.52-.25-9,0-13.56.15-3.2-1-4.6-4.14-5.38-9.59-2.36-19.05-5.25-28.65-7.55C923.91,503.38,924.75,501.89,924.85,512.84Zm333.34,281.71V790.9a26.13,26.13,0,0,0,0-3.65c-.33-2.39-2.94-3.76-6.55-3.72-2.92,0-2.11,2.27-2.2,3.79-.42,7.11-.73,14.22-1.07,21.34-1,20.48-2,41-2.94,61.43-.56,12.68-.89,25.36-1.34,38-.08,2.08-.43,4.16-.37,6.23.14,5.52-.22,11.16.82,16.52,2,10.56,4.91,21,7.42,31.42,2.75,11.47,6,22.83,4.71,34.9-.7,6.38-.76,12.83-1.06,19.25-.42,8.68-.74,17.36-1.18,26-.92,18-2,36.07-2.84,54.11-.53,10.94-.8,21.89-1.32,32.83q-1.43,29.93-3,59.85c-.26,4.86-.3,9.78-1.16,14.54-3.35,18.46-6.35,37-6.89,55.75-.08,3-.18,5.92,0,8.86a2.49,2.49,0,0,0,1.77,1.68c3.47-.2,5.6-2.47,5.81-6,.37-6.25.59-12.5,1.08-18.73.37-4.84.86-9.69,1.63-14.48,2.61-16.1,5.95-32.09,5.82-48.55-.07-7.63.65-15.27,1.08-22.9.92-16.65,1.93-33.29,2.8-49.94.55-10.59.82-21.19,1.37-31.78.88-17,1.88-34,2.83-51,.66-11.79,1.45-23.58,1.89-35.38a54.8,54.8,0,0,0-.91-13.43c-3.07-14.25-6.58-28.41-9.9-42.61-1.46-6.25-2.84-12.47-2.35-19,.84-11.26,1.34-22.54,1.88-33.82.51-10.76.79-21.53,1.32-32.29C1256.16,831.67,1257.2,813.12,1258.19,794.55ZM956.37,941c-.64-22.58-1.31-43.78-1.81-65-.49-20.86-.8-41.72-1.26-62.57a34.31,34.31,0,0,0-.95-5.35c-2.24.83-4.87,1.19-6.57,2.64-1.1.92-1.17,3.47-1.12,5.27.54,20,1.31,40,1.77,59.93q.86,36,1.24,72A28,28,0,0,1,945.78,958c-6.66,17.35-13.66,34.57-20.33,51.91a26.7,26.7,0,0,0-1.81,9.58c.06,10.07.59,20.14.89,30.22q1.1,36.21,2.15,72.43c.3,10.08.68,20.15,1,30.22.73,24.14,1.55,48.29,2.07,72.44a103.86,103.86,0,0,0,2.89,23.16c3.41,13.64,6.8,27.31,5.87,41.6-.21,3.26.55,6.57.74,9.87s2.85,3.31,4.89,3.49c2.25.21,2-2,2-3.48,0-5.21-.25-10.43-.13-15.65a102.21,102.21,0,0,0-3.55-28.33,165,165,0,0,1-5.66-37q-1.05-38.57-2.12-77.14c-.33-11.81-.7-23.62-1-35.44-.75-28.84-1.57-57.68-2.11-86.53a30.21,30.21,0,0,1,2.1-11.09q9-23.6,18.68-47C955.22,954.31,957.46,947.33,956.37,941ZM1165,516.55h-.3c0,5.56-.08,11.12,0,16.68.07,3.46.82,4,4.1,3.34,9.31-2,18.59-4.05,27.91-6,3.07-.64,4.1-2.28,4.2-5.43.44-14.39,1.21-28.77,1.73-43.16.77-21.68,1.42-43.36,2.11-65.05.13-4.18-.17-4.42-3.89-2.53-10.2,5.2-20.32,10.55-30.53,15.71-2.5,1.27-3.41,2.95-3.45,5.73-.13,7.81-.68,15.61-.85,23.42C1165.63,478.36,1165.33,497.46,1165,516.55ZM869,876.13l.87-.18c0-1.84.06-3.67,0-5.5-.71-18.74-1.49-37.48-2.17-56.22-.39-10.75-.68-21.51-1-32.27-.08-3.2.34-6.32,3.1-8.47,5.2-4,10.5-8,15.64-12.07,2.81-2.26,5.55-2.06,8.73-.93,6.09,2.17,12.29,4,18.45,6a7.36,7.36,0,0,0-3-2.27c-14.12-7.05-28.3-14-42.34-21.21a22,22,0,0,1-7.16-5.8c-6.5-8.36-12.64-17-19-25.52-.75-1-1.66-1.94-3.09-3.59.63,11.21,1.25,21.41,1.77,31.61Q841,761.29,842,782.88c.81,17.69,1.62,35.37,2.27,53.07a13.88,13.88,0,0,0,2.46,7.73c6.67,9.74,13.22,19.58,19.84,29.36C867.3,874.13,868.2,875.1,869,876.13Zm188.78,418.68v1c13,0,26.07.1,39.11-.06a48.92,48.92,0,0,0,10.79-1.31c19.38-4.64,38.73-9.45,58.07-14.24,8.71-2.16,17.54-3.58,25.3-8.92,9.87-6.79,20.25-12.84,30.52-19,3-1.78,4.81-3.83,4.48-7.43-.06-.68.28-1.38.26-2.07,0-1.48-.2-3-.31-4.44a31.67,31.67,0,0,0-3.67,1.62c-10.69,6.5-21.29,13.15-32,19.54a38.3,38.3,0,0,1-9.93,4.28q-34.82,8.74-69.75,17a66.15,66.15,0,0,1-14.42,1.83c-9.73.12-19.46-.42-29.2-.52-13.39-.13-26.79-.15-40.18-.13a92.19,92.19,0,0,1-27.73-3.88c-11.43-3.53-23-6.48-34.6-9.6-9-2.42-8.82-2.38-7.73,6.74.36,3.07,1.43,4.42,4.51,5.24,14.92,3.94,29.71,8.34,44.64,12.25a62.25,62.25,0,0,0,14.31,2C1032.75,1295,1045.28,1294.81,1057.8,1294.81ZM979.05,627.06c4.63-4.68,3.56-9.42,3.18-13.78-.66-7.6.08-14.77,3.57-21.69,3.27-6.51,6.35-13.14,9.05-19.91a53.64,53.64,0,0,1,13.73-19.35,6.83,6.83,0,0,0,2.12-4.32c.14-16.6.09-33.2.09-50.89-.76,2.72-1.14,4.4-1.74,6-.19.5-1,.78-1.5,1.16-.36-.5-1-1-1-1.5a29,29,0,0,1,.42-5.18c1.11-5.78,2.37-11.54,3.49-17.33.31-1.65.94-3.54-2.23-3.28-1.16.1-2.7-1.12-3.64-2.13a50.12,50.12,0,0,1-3.64-5.07c-2.84-3.95-2.88-4-7.47-1.92-3.78,1.72-7.39,3.88-11.24,5.41-4.11,1.63-5.63,4.11-5.46,8.65.58,16,.8,32,1,47.95q.69,45.35,1.26,90.7C979.07,622.43,979.05,624.28,979.05,627.06Zm-114.9,482.71-1,.23q-1.08,9.8-2.16,19.6c-1.18,11-2.18,22.12-3.63,33.13a13.48,13.48,0,0,0,1.46,9q10.13,17.94,20,36a22.16,22.16,0,0,0,8.07,8.57c5.18,3.19,10.13,6.75,15.25,10a41.05,41.05,0,0,0,5,2.37c.45-2,1.32-3.91,1.28-5.85-.32-17-.79-34.07-1.28-51.11-.08-2.94-.63-5.88-.7-8.83a5.13,5.13,0,0,0-2.78-4.61c-4.43-2.74-8.71-5.75-13.2-8.39a20.86,20.86,0,0,1-7.78-8.14C876.65,1131,870.36,1120.42,864.15,1109.77Zm363.09,364.69c-1.64,1-2.35,1.32-3,1.77-13.13,9.11-26.29,18.17-39.34,27.37-4.72,3.32-9.49,6.25-15.23,7.56a19.6,19.6,0,0,0-6.83,3.49c-7,5.15-13.77,10.58-20.74,15.77-6,4.5-5.76,3.88-1.55,9.4,4.87,6.4,9.64,12.75,8.9,21.51-.14,1.62.7,3.32,1.18,5.34a32.3,32.3,0,0,0,3.39-1.53c12.63-7.61,25.31-15.17,37.81-23a14.79,14.79,0,0,0,4.84-5.78c9.63-19,19.09-38.19,28.59-57.31C1225.84,1477.89,1226.3,1476.66,1227.24,1474.46Zm-365.5-780.6-1,.66c.93,1.5,1.74,3.08,2.8,4.48,6.07,8,12.29,16,18.26,24.12a21.18,21.18,0,0,0,8.44,6.69c12.74,5.94,25.38,12.1,38.16,17.94,6.91,3.16,13.45,7.09,21.17,8.49,14.83,2.69,29.57,5.89,44.35,8.85,7.81,1.57,15.58,3.67,23.47,4.45,9.84,1,19.79,1,29.69,1.1,17.74.18,35.48.12,53.22.12a32.92,32.92,0,0,0,5.7-.41c18.94-3.33,37.89-6.6,56.79-10.14,7.45-1.4,15-2.16,22.09-5.54,15.81-7.55,31.91-14.52,47.83-21.86a18,18,0,0,0,5.83-4.17c7.73-8.71,15.31-17.57,22.82-26.46,1.09-1.29,1.56-3.09,2.31-4.65l-1.23-.86-3.31,3.8c-5.46,6.31-10.79,12.74-16.43,18.89a25.15,25.15,0,0,1-7.62,6.08c-16.72,7.69-33.56,15.11-50.41,22.5a38.68,38.68,0,0,1-8.42,2.58c-13,2.39-25.94,4.61-38.91,6.9-19.28,3.4-38.4,7.33-58.29,6-16.11-1.08-32.34-.16-48.51-.37-6.77-.09-13.63-.19-20.26-1.38-19.11-3.42-38.14-7.34-57.17-11.2-5.93-1.21-12.14-2-17.58-4.47-15.36-6.88-30.36-14.57-45.56-21.82-5.12-2.43-9.44-5.48-12.68-10.32-3.87-5.76-8.37-11.11-12.62-16.61C863.75,696.07,862.72,695,861.74,693.86Zm248.15,968.36c-.05-.61-.11-2-.26-3.37q-2.45-22.23-4.92-44.44c-1.36-12.41-2.67-24.82-4.1-37.21-.45-3.93-1.12-4.38-5-3.78-6.16,1-12.29,2.1-18.45,3-3.07.47-4.67,1.82-4.28,5.18.75,6.54,1.38,13.1,2,19.65q2.76,28.47,5.48,57c.35,3.62.66,7.25,1.13,10.86.31,2.33,1.19,3.63,4.16,3,6.44-1.29,13-2,19.47-3.14C1110.09,1668.11,1110.06,1668,1109.89,1662.22ZM863.41,1384c-.4,2.24-.7,4.3-1.12,6.33a32,32,0,0,0,3.62,23.43c6.5,11.46,11.8,23.61,17.78,35.38a16.49,16.49,0,0,0,4.57,5.49q23.88,18.13,48,36a25.31,25.31,0,0,0,7.39,3.63q33.23,10.49,66.54,20.7a22,22,0,0,0,6.09,1.15q40.43.63,80.86,1.06a20.57,20.57,0,0,0,5.64-.64q34.39-9.33,68.71-18.84a27.55,27.55,0,0,0,7.94-3.71q24.8-16.85,49.39-34a16.92,16.92,0,0,0,5-5.2q12-21,23.72-42.29a11.17,11.17,0,0,0,1.71-5.34c-.23-8.32-.79-16.64-1.23-25l-1.38,0c0,4.83,0,9.66,0,14.49a30.8,30.8,0,0,1-4.32,15.83c-7.28,12.45-14.15,25.14-21.43,37.59a22.1,22.1,0,0,1-6.2,6.75q-23.52,16.42-47.31,32.44a31.26,31.26,0,0,1-8.78,4.29c-20.37,5.71-40.8,11.19-61.21,16.76a57.65,57.65,0,0,1-16.39,2.43c-24.17-.51-48.34-.76-72.51-1.2a24.6,24.6,0,0,1-6.61-1.2q-33.32-10.23-66.58-20.64a20.69,20.69,0,0,1-5.92-3.1c-15.39-11.36-30.79-22.71-46-34.31a24.3,24.3,0,0,1-6.57-7.82c-6-11.38-11.46-23-17.39-34.45-3-5.79-5.55-11.51-5-18.28C864.53,1389.32,863.76,1386.75,863.41,1384Zm58.16-949.12.29,1.08,153.19,38.16c-1.8-5.21-3.56-9.21-4.53-13.39-1.11-4.8-4-6.63-8.55-7.67-17.06-3.91-34-8.11-51.06-12.24-22.57-5.48-45.13-11-67.72-16.43-1.73-.41-4-.55-5.44.26C932.22,427.87,926.94,431.47,921.57,434.92Zm195.07,1138.47c-2.78-.18-5.2-.31-7.63-.51-4.78-.39-5.09-.3-4.71,4.69.62,8.12,1.51,16.22,2.36,24.32q1.9,18.09,3.93,36.18c1,8.79,2,17.56,3,26.35.22,2.09,1,3.15,3.18,3.26,4.67.24,9.33.75,14,.85,9.63.19,9.42.13,8.18-9.71-1.85-14.79-3.37-29.62-5-44.42-1.4-12.4-2.82-24.8-4.18-37.2-.28-2.5-1.48-3.8-4-3.81Zm43.69-1141.71c-3-.78-4.69-1.24-6.37-1.63l-84.56-19.81c-9.79-2.3-19.56-4.66-29.37-6.89-4.86-1.11-6.79.5-6.88,5.46-.06,2.78.13,5.57,0,8.35-.19,3.17,1.08,4.57,4.27,5.26,9.81,2.13,19.52,4.72,29.32,6.95,18.4,4.2,37.13,7.48,52.37,20,.13.11.32.15.45.27,2,1.77,3.94,1.37,6.16.2,8.44-4.47,17-8.77,25.44-13.17C1153.86,435.23,1156.54,433.72,1160.33,431.68Zm-95.11,518.67c7.81,0,22.76,0,37.71,0a35.86,35.86,0,0,0,6.71-.6q30.08-5.94,60.12-12c7.8-1.59,16-2.32,23.24-5.29,11-4.53,21.44-10.61,32-16.22a4.51,4.51,0,0,0,2-3.56c-.24-3-2.09-3.72-5.31-2.17-7.83,3.77-15.54,7.78-23.39,11.49a40.42,40.42,0,0,1-8.81,3c-21.72,4.47-43.45,8.91-65.22,13.15-8.48,1.65-16.85,3.83-25.68,3.66-29-.56-58.06-.78-87.08-1.18a25.58,25.58,0,0,1-5.13-.73c-11-2.4-22-4.91-33-7.26-4.61-1-6.91,1.07-5.45,5.07.5,1.38,2.6,2.66,4.21,3.07,7.89,2,15.85,3.73,23.79,5.5,4.9,1.08,9.79,2.75,14.74,3C1026.44,949.82,1042.26,949.91,1065.22,950.35ZM883.87,1455.57c.41,4.48,2.74,7.29,5.91,9.66,15.6,11.66,31.11,23.45,46.74,35.07a23.62,23.62,0,0,0,6.93,3.43c17.51,5.58,35.17,10.74,52.58,16.6a121.14,121.14,0,0,0,38.29,6.27c20.35.14,40.69.62,61,.87a20.6,20.6,0,0,0,5.61-.84c23.42-6.38,46.84-12.76,70.22-19.31a29,29,0,0,0,8.36-4c16-10.87,31.76-21.94,47.69-32.84a23.73,23.73,0,0,0,7.54-8.42c7-12.8,14.19-25.52,21.3-38.27,1-1.85,2-3.73,3-5.6a3.76,3.76,0,0,0-2.1,1.78c-6.54,11.67-12.91,23.44-19.67,35a26.33,26.33,0,0,1-7.19,8q-24.07,17-48.52,33.48a32.74,32.74,0,0,1-9.31,4.41c-20.2,5.69-40.43,11.28-60.73,16.6a90.45,90.45,0,0,1-18.91,3.2c-9,.39-18.07-.4-27.11-.5-11.65-.14-23.31.07-35-.21-6.58-.15-13.45.1-19.66-1.68-23.34-6.68-46.48-14.09-69.66-21.33a22.1,22.1,0,0,1-6.4-3.34c-15.22-11.3-30.36-22.71-45.54-34.07C887.5,1458.16,885.68,1456.88,883.87,1455.57Zm195.38-857.11c1.61-1.14,2.48-1.63,3.21-2.28,11-10.06,22-20.21,33.14-30.18,2.59-2.31,2.57-4.26,1.1-7.18-11.67-23.28-23.19-46.64-34.77-70-.64-1.29-1.41-2.52-2.68-4.78Zm122,372.38h-1.37c0,6.42.2,12.84,0,19.26-.38,10.55-.4,10.43,7.56,17.67,2.52,2.29,4.62,2.46,7.34.77,8.54-5.31,17.14-10.51,25.64-15.88a4.8,4.8,0,0,0,2.15-3.15c.21-4,.51-8-.19-11.92-1.2-6.64-3-13.17-4.82-19.69a8.29,8.29,0,0,0-2.53-4.27c-7.48-5.58-14.57-11.75-23.57-15-5.11-1.86-10.1,1.19-10.15,6.74C1201.16,953.84,1201.22,962.34,1201.22,970.84ZM799.69,1541.17l1.23-1c.89-.52,1.79-1,2.66-1.57q8.83-5.53,17.66-11.09,23.58-14.88,47.14-29.79c3.94-2.5,3.94-2.59,1.22-6.3q-5.08-6.95-10.28-13.8c-3-3.91-3-3.93-7.05-1.39-8.23,5.18-16.43,10.41-24.66,15.61-13.37,8.44-26.72,16.9-40.14,25.26-2.5,1.56-2.86,3-1,5.37,4,5.07,7.8,10.23,11.61,15.41A20,20,0,0,1,799.69,1541.17ZM1012.47,400.25v6.25c0,.18,0,.35,0,.52.19,3.44.47,3.67,3.69,2.16,9.9-4.63,19.77-9.34,29.65-14q41.63-19.73,83.27-39.44c9.83-4.65,8-2.84,8.07-12.6.11-8.93.78-8.61-7.38-4.84-36.4,16.79-72.69,33.8-109.16,50.41C1014.72,391.38,1010.43,394,1012.47,400.25Zm38.79,652.63c21.93-.54,38.28-.94,54.62-1.37a25.87,25.87,0,0,0,3.6-.46c11.27-1.91,22.56-3.74,33.81-5.8,13.28-2.42,26.75-4,39.38-9.25a155.49,155.49,0,0,1,16.18-5.74c17.2-5,32.8-13.16,47.49-23.23,3.34-2.29,4.4-4.19,2.69-6.13-2.42-2.72-4,.39-5.64,1.36-12.16,7.38-23.9,15.54-37.93,19.25-3,.79-5.89,2.09-8.85,3.07-10.86,3.59-21.58,7.79-32.65,10.55-10.74,2.68-21.84,3.88-32.78,5.73-8,1.37-16,3.39-24.11,4-12.83.91-25.72.87-38.58,1.21-5.92.15-11.83.38-17.74.33-6.24-.06-12.5-.12-18.7-.72-10.69-1-21.37-2.37-32-3.83-11.14-1.52-22.42-2.1-33.26-5.69-8.22-2.72-16.69-4.7-25-7.19-2.09-.63-3.24-.42-4,1.72-.86,2.42.06,3.61,2.33,4.22,3,.81,6,1.73,9,2.53,10.72,2.84,21.35,6.08,32.2,8.33,7.94,1.65,16.17,1.85,24.24,2.92C1022.59,1050.92,1039.56,1053.76,1051.26,1052.88ZM1034,359.65a7.38,7.38,0,0,0,1.84,0c18.5-8.35,37-16.68,55.46-25.18a4.59,4.59,0,0,0,2.1-3.54c-.35-9.79-1.82-19.33-6.64-28.12-4.23-7.72-17.12-9.8-21.17-5.07-3.85,4.48-8.21,8.56-11.68,13.3-8.81,12.08-14.11,25.87-18.35,40.09A80.32,80.32,0,0,0,1034,359.65Zm24.56,721.2v.17q23.71-.64,47.43-1.31a30.09,30.09,0,0,0,4.1-.63c12.8-2.21,25.6-4.45,38.4-6.63,11.28-1.92,22.47-4,33.21-8.25,12.27-4.81,24.76-9,37.14-13.56a25.33,25.33,0,0,0,4.68-2.21c7.08-4.4,14.11-8.89,21.15-13.36.88-.56,1.71-1.19,2.58-1.78,2-1.33,1.38-3,.48-4.56-1.13-2-2.37-.59-3.44,0-2.84,1.68-5.66,3.41-8.4,5.24-9.12,6.09-18.5,11.64-29.12,14.8-4.65,1.39-9.15,3.26-13.75,4.8-11.49,3.85-22.55,9-34.7,10.83-8.06,1.2-16.07,2.71-24.07,4.21-18.12,3.4-36.28,6-54.8,5.64-9.2-.17-18.42.66-27.63.62-7.28,0-14.58-.46-21.83-1.18-10-1-20-2.42-29.93-3.68-11.68-1.48-23.44-2.38-34.73-6.25-7.54-2.58-15.32-4.42-22.95-6.73-1.85-.56-3.08-.34-3.74,1.5s-.31,3.47,1.74,4.25c1.13.43,2.32.71,3.49,1.05,10,2.89,19.95,5.87,30,8.62a76.07,76.07,0,0,0,10.7,2c9.8,1.24,19.62,2.22,29.42,3.47,11.52,1.48,23,3.41,34.67,2.92C1051.9,1080.74,1055.21,1080.85,1058.52,1080.85ZM854.25,1470.49c-.46-1.13-.7-1.77-1-2.39-2.43-5.37-5-10.7-7.26-16.12-1.25-3-2.74-2.91-5.13-1.29-4,2.73-8.2,5.2-12.3,7.8-17.43,11-34.82,22.18-52.33,33.11-2.68,1.68-3,3.27-1.84,5.92,2.16,4.73,4.15,9.53,6.2,14.31s2,4.71,6.54,1.84q19.79-12.51,39.58-25,12.09-7.65,24.15-15.36A34.17,34.17,0,0,0,854.25,1470.49ZM1052.12,1109c18.66-.41,35.18-.76,51.69-1.16a27.23,27.23,0,0,0,4.11-.55c10.93-1.88,21.9-3.56,32.76-5.74,13-2.62,26.46-3.73,38.86-9.2,4.75-2.09,9.82-3.47,14.63-5.44,11.36-4.66,23.59-7.2,33.87-14.45,5.11-3.61,10.51-6.79,15.77-10.18.73-.47,1.86-.92,2-1.56a29.21,29.21,0,0,0,.38-4.88,18.51,18.51,0,0,0-3.69.68,15.92,15.92,0,0,0-3.06,2c-11.79,8-23.88,15.44-37.76,19.5-6,1.76-11.73,4.3-17.64,6.32-6.88,2.36-13.69,5.15-20.77,6.68-13,2.82-26.23,4.91-39.38,7.22-6.48,1.14-13,2.73-19.51,3-16.84.76-33.72.91-50.58,1.29-4.68.1-9.39.54-14,.12-10.19-.91-20.35-2.18-30.5-3.45-9.81-1.23-19.65-2.29-29.36-4.07-7.13-1.31-14.08-3.62-21.09-5.58-5-1.4-10-2.92-15-4.42-1.76-.53-3.58-1-4.36,1.26-.87,2.51.43,3.95,2.82,4.58.67.17,1.37.27,2,.47,9.64,2.85,19.26,5.76,28.92,8.57a50.52,50.52,0,0,0,7.58,1.67c11.86,1.53,23.75,2.78,35.59,4.45C1029,1107.9,1041.53,1109.84,1052.12,1109Zm-8.6,28.12c0-.32,0-.64,0-1,5.9,0,11.8.1,17.7,0,14.77-.3,29.54-.69,44.31-1.08a23.24,23.24,0,0,0,3.6-.49c12.62-2.26,25.25-4.43,37.84-6.86,8.31-1.62,16.73-3.06,24.78-5.61,11.24-3.55,22.19-8,33.22-12.18,5.19-2,10.59-3.59,15.37-6.31,7.68-4.38,14.93-9.54,22.35-14.38.72-.47,1.78-.93,2-1.61a22.08,22.08,0,0,0,.44-4.33c-1.2.08-2.61-.22-3.55.32-3.16,1.82-6.18,3.87-9.19,5.94-8.76,6-17.86,11.31-28.11,14.49-4.63,1.43-9.1,3.4-13.69,5-11.14,3.8-21.82,8.94-33.61,10.84s-23.56,4.17-35.31,6.41a186.61,186.61,0,0,1-38.33,3.38c-7.64-.14-15.29.63-22.93.73-7.82.11-15.68.42-23.44-.29-12.76-1.18-25.46-3.06-38.18-4.74-10.47-1.38-21-2.27-31.1-5.83-7.52-2.65-15.3-4.54-22.93-6.85-2.12-.64-3.87-1.45-4.84,1.68-1,3.37,1.5,3.41,3.29,4,5.28,1.7,10.64,3.17,15.92,4.85,11.41,3.63,22.92,6.63,34.91,7.78,10,1,19.93,2.5,29.9,3.76C1030.46,1135.56,1037,1136.34,1043.52,1137.14Zm49.42-697.21-.1-1.06q-28.26-6.75-56.52-13.53c-2-.5-3.19.16-3.11,2.16.16,4.15-2.52,5.75-5.78,7a28.13,28.13,0,0,1-17.91.68c-3.75-1-6.7-3.64-6.74-8.22,0-1.9-.36-3.81-.33-5.71,0-2.83-.87-4.32-4-5-8.13-1.73-16.17-3.91-24.25-5.91a13.14,13.14,0,0,0-9.54,1.14c-5.4,2.76-11,5.21-16.44,7.83-1,.46-1.87,1.08-3.61,2.12l18,4.4q51.21,12.56,102.46,25.05c2.08.5,4.72.68,6.55-.17C1078.88,447.4,1085.87,443.58,1092.94,439.93Zm185.32,986.82c-.76.88-2,1.8-2.52,3-2.46,5.74-4.73,11.56-7,17.36-1.69,4.25-1.71,4.36,2.59,5.73,18.49,5.86,37,11.55,55.45,17.56,3.46,1.13,4.6,0,5.68-2.9,2-5.36,4.29-10.61,6.4-15.93,1.93-4.85,1.92-4.94-2.86-6.48q-27.23-8.73-54.46-17.38C1280.67,1427.47,1279.84,1427.23,1278.26,1426.75ZM1043.42,399.9l.19.91c1.8.47,3.58,1,5.39,1.4L1133,422q12.65,3,25.3,5.89c3.56.82,4,.27,2.82-3.27-.95-2.79-2.3-5.48-3-8.33-1-4.31-3.75-6.08-7.88-7-26.73-6-53.42-12.13-80.15-18.16-2.15-.49-4.76-1.22-6.6-.47C1056.67,393.4,1050.09,396.76,1043.42,399.9ZM1253,999.79c-.28-8.66.76-16.18-1.15-23.7-3.16-12.45-6-25-9.08-37.44-1.81-7.44-3-14.88-2.52-22.65.75-12.13.9-24.3,1.37-36.45.31-8.16.71-16.31,1.08-24.47q1.51-33.57,3-67.14a15.12,15.12,0,0,0-.15-4.15c-.73-3.06-3.59-3.11-5.85-3.31-2.47-.22-1.71,2.14-1.77,3.48q-1.18,27.85-2.25,55.72c-.37,9.37-.77,18.74-1.13,28.12-.68,17.18-1.4,34.36-1.94,51.55a33.56,33.56,0,0,0,1.07,8.73c3.27,13.84,6.86,27.62,10,41.49a120.29,120.29,0,0,1,2.39,17.44c.27,3.7-.16,7.26,4.19,9C1251.16,996.39,1251.62,997.83,1253,999.79ZM906.62,1147l-.61,0c-.29-10.4-.56-20.8-.87-31.19,0-1-.3-2.06-.37-3.09-.18-2.91-1.81-4.57-4.33-5.9-11.15-5.91-22.83-11-31.24-21.07-1.69-2-2.51-1.53-3,1.3-.64,3.93-1.58,7.84-1.78,11.79a14.46,14.46,0,0,0,1.5,7.35c5.18,9.42,11.07,18.45,16,28a37.77,37.77,0,0,0,16.71,17.11c2.28,1.17,4.51,2.44,6.76,3.67C905.81,1152.27,906.22,1149.64,906.62,1147Zm331.54-73.44-.52-.73c-1.26.74-2.53,1.46-3.79,2.21-6.41,3.8-12.5,8.37-19.3,11.25-12,5.07-24.36,9.17-36.62,13.56a110.55,110.55,0,0,1-14.85,4.66c-12.57,2.57-25.22,4.74-37.86,7-7.16,1.27-14.33,3-21.56,3.38-17.18.8-34.4.89-51.6,1.25-4,.09-8,.52-12,.12-12.94-1.33-25.84-3-38.77-4.45-14.86-1.65-29.53-4.14-43.67-9.21a87.17,87.17,0,0,0-9.49-2.75c-.95-.22-2.1.39-3.15.62.46,1,.65,2.42,1.44,3a12,12,0,0,0,3.86,1.46c7,2.09,14,4,20.93,6.26a119.22,119.22,0,0,0,25.92,5.24c9.65,1,19.23,2.57,28.85,3.82,6.18.8,12.38,2,18.58,2.06,12.15.08,24.32-.37,36.47-.92,9.87-.44,19.74-1.11,29.57-2.1,5.84-.59,11.61-2,17.4-3,17.18-3.23,34.64-5.33,50.83-12.61,4.42-2,9.12-3.37,13.65-5.12,6.47-2.5,13.24-4.46,19.27-7.77,8.52-4.66,16.47-10.33,24.65-15.6A14.11,14.11,0,0,0,1238.16,1073.56ZM1057.59,1279.4v-.2c14.1,0,28.19,0,42.28,0a34.45,34.45,0,0,0,7.7-1c22.42-5.34,44.82-10.81,67.24-16.13a50.84,50.84,0,0,0,16.24-6.68c7.72-5,15.68-9.67,23.52-14.51a116.15,116.15,0,0,0,10.48-6.82c1-.77.87-2.93,1.25-4.46a31.56,31.56,0,0,0-3.78.54,9.63,9.63,0,0,0-2.26,1.28c-11,6.7-21.9,13.5-33,20a46.18,46.18,0,0,1-11.77,5.28q-27.21,7-54.61,13.25c-8.41,1.92-16.6,4.94-25.48,4.77-26.61-.5-53.22-.76-79.83-1.15a16.65,16.65,0,0,1-4.08-.67c-11.4-3-22.79-6.14-34.18-9.19-6.37-1.7-12.77-3.31-19.13-5-2.6-.71-3.07.87-2,2.34a9.67,9.67,0,0,0,4.82,3.25c12.84,3.68,25.72,7.18,38.61,10.67,4.34,1.17,8.71,2.83,13.12,3C1027.68,1278.77,1042.64,1279,1057.59,1279.4Zm130.05-237.92c-1.42.46-2.38.73-3.32,1.08-9.91,3.73-20,6.9-30.53,8.31-6.18.83-12.32,2-18.46,3.14-18.27,3.43-36.58,6.34-55.28,5.72-6.24-.21-12.51.4-18.76.42-8.33,0-16.7.34-25-.34-13.13-1.09-26.2-2.8-39.28-4.41-11.69-1.44-23.41-2.75-34.61-6.86-5-1.84-10.29-3.08-15.49-4.42-.95-.24-2.11.39-3.17.62.54,1.29.82,2.83,1.72,3.78.73.78,2.21.87,3.37,1.21,10,2.91,20,5.89,30,8.68a62.92,62.92,0,0,0,8.68,1.47q14.68,1.92,29.38,3.73c7.22.89,14.44,2.41,21.67,2.42,21.71,0,43.43-.56,65.15-.94a23.14,23.14,0,0,0,3.59-.5l27.65-4.72c15.38-2.62,30.76-5.16,45.3-11.21A12.2,12.2,0,0,0,1187.64,1041.48ZM1091.91,274.2c-5.18-7.38-20.28-8.18-28.9-3.58a65.58,65.58,0,0,0-23,20.77c-14.69,21.09-24.56,44.2-27.42,70-.59,5.33-.91,10.71-1.06,16.08,0,1.23.9,3.24,1.89,3.63,4.56,1.8,7.43-.05,8.16-4.92.28-1.88.35-3.8.6-5.69,1-7.37,1.22-15,3.25-22.06a247.36,247.36,0,0,1,10.87-29.75A96.88,96.88,0,0,1,1060.78,284c5.3-4.71,11-9.18,18.53-9.77C1083.54,273.92,1087.81,274.2,1091.91,274.2Zm248.68,1164.1c-.55-4.33-1.38-9.46-1.8-14.63-.22-2.77-1.67-4-4-4.71-5.12-1.62-10.25-3.18-15.35-4.85-12.83-4.21-25.64-8.5-38.48-12.7-4.21-1.38-4.65-1-4.16,3.19.62,5.16,1.25,10.32,1.65,15.49.18,2.45,1.12,3.67,3.51,4.38,5.81,1.71,11.53,3.71,17.3,5.58,12.34,4,24.67,8,37,12C1340.38,1443.29,1340.62,1443,1340.59,1438.3ZM1057.76,937.75v-.27c11.3.4,22.59.92,33.89,1.17,5.19.11,10.51.33,15.57-.59,20.45-3.72,40.84-7.83,61.24-11.88,8.15-1.61,16.66-2.43,24.3-5.42,10.48-4.1,20.29-9.91,30.34-15.07.76-.39,1.17-1.46,1.74-2.22-1.09-.71-2.14-1.93-3.27-2s-2.59.83-3.83,1.44c-8.13,4-16.2,8-24.37,11.88a37.72,37.72,0,0,1-8.3,2.85c-16.64,3.45-33.35,6.57-50,10.14-17.85,3.84-35.68,6.55-54.12,5.76-21-.9-42.09-.39-63.14-.63a57.59,57.59,0,0,1-10.86-1.19c-11-2.28-22-4.79-33.06-7.2a8.69,8.69,0,0,0-3.06-.46,11.94,11.94,0,0,0-3,1.38,13.29,13.29,0,0,0,2.4,2.78,10.56,10.56,0,0,0,3.47,1c7.1,1.62,14.26,3,21.29,4.87a105.76,105.76,0,0,0,30.88,3.68C1036.53,937.47,1047.15,937.75,1057.76,937.75Zm190.58,152.91c-2.07,1.78-3.72,2.85-4.89,4.32s-2.29,3.11-2.39,4.76q-1.69,28.08-3,56.2c-.56,11.8-.79,23.62-1.35,35.43-.19,4-.88,7.93-1.45,11.88-1.59,11-3.56,21.93-4.77,33-1,9.48-1.27,19-1.84,28.59-.05.69-.3,1.73,0,2,1.61,1.36,3.38,2.5,5.1,3.73a13.24,13.24,0,0,0,1.56-3.42c.43-3.09.54-6.22.82-9.33.95-10.54,1.35-21.17,3-31.59,2.59-16.13,4.71-32.27,5.3-48.6.42-11.63.75-23.28,1.3-34.91.44-9.19,1.25-18.36,1.72-27.55C1247.91,1107.2,1248.06,1099.26,1248.34,1090.66ZM1119.39,330.18l.22,0c-.42-3.62-1-7.23-1.23-10.85-.64-12.3-5.45-22.94-13.24-32.17-9.43-11.19-21-13.1-32.17-7.69-9.1,4.43-16,11.76-21.78,19.85a143.67,143.67,0,0,0-22.62,50c-2.16,8.86-2.48,18.18-3.5,27.31-.1.92.77,1.95,1.2,2.94,1-.95,2.47-1.72,3-2.9s.1-2.75.27-4.12c.85-7.06,1.11-14.26,2.78-21.12A124.57,124.57,0,0,1,1052,308.05c5.27-7.38,11.47-14.22,19.81-18.14s16.89-3.88,24.66,1.77c11.23,8.16,16.8,19.55,18.23,33.16.37,3.45.66,6.91,1.18,10.33.13.83,1,1.54,1.57,2.3.63-.86,1.63-1.65,1.83-2.61A23.53,23.53,0,0,0,1119.39,330.18Zm-40.18,1341-.66-.59c-.08-.87-.14-1.73-.23-2.59-1.28-12.23-2.61-24.45-3.84-36.68-1.19-11.89-2.25-23.8-3.44-35.69-.43-4.3-1.18-8.57-1.55-12.88-.3-3.33-1.79-3.22-4-1.79a15.88,15.88,0,0,1-2.7,1.56c-3.89,1.48-5,4.29-4.5,8.25.63,5.33.9,10.7,1.42,16,1.28,13.1,2.62,26.19,3.92,39.29.83,8.27,1.34,16.59,2.58,24.8.39,2.63-1.2,6.91,1.93,7.67,2.21.54,5.34-2,7.8-3.53C1077.27,1674.23,1078.12,1672.54,1079.21,1671.22Zm99.55-1274.61a16.26,16.26,0,0,0-2.11-1l-32.46-7.35c-5.91-1.34-11.81-2.78-17.74-4-2.13-.45-4.61-1.21-4.6,2.68,0,1-1.43,2.23-2.49,2.9-6.4,4.07-13.36,3.29-20.14,1.57-4.66-1.19-5.85-3.48-6-8.47,0-1-.07-2.08-.06-3.13,0-2.4-.88-3.19-3.2-2.07-6.51,3.16-13,6.26-20,9.62a29.39,29.39,0,0,0,3,1.13c23.3,5.32,46.76,10,69.83,16.19,10.4,2.78,19.21,2.17,27.94-3.73C1173,399.37,1175.69,398.24,1178.76,396.61Zm-78.32,1166.11c-.37-3.8-.67-7.25-1-10.69-.6-5.34-1.36-10.65-1.84-16-.21-2.31-1.06-3.1-3.28-2.4l-27.78,8.7c-2.06.65-3.23,1.88-3,4.19.71,7.76,1.43,15.52,2.07,23.28.2,2.34,1.56,3,3.55,2.64,9.2-1.58,18.37-3.36,27.59-4.76C1100.2,1567.15,1101,1565.42,1100.44,1562.72Zm35.52.24c-.86-7.55-1.79-15.46-2.64-23.38-.27-2.61-1.4-4-4.18-4.23-8.09-.81-16.17-1.81-24.25-2.75-3.11-.36-4,1.22-3.71,4,.85,8.45,1.52,16.91,2.54,25.34.53,4.37,1.42,5,5.6,5.26q10.9.65,21.82,1C1135.86,1568.46,1136.12,1568.11,1136,1563ZM1032.62,379.75l78.66-36.41c-6.3-.63-12.12-.81-17.11-4.94-.82-.68-3-.38-4.2.16q-26.62,11.88-53.12,24.07a6.52,6.52,0,0,0-3.35,4.05C1032.84,370.73,1032.89,374.88,1032.62,379.75Zm-59.95,271c3.36-2.48,2.67-5.45,2.65-8.12q-.55-62.85-1.23-125.69c-.14-12.34-.53-24.67-.9-37a11,11,0,0,0-1.09-3.12c-1,.64-2.3,1.06-2.86,2-1.64,2.65-2.93,5.52-4.45,8.25-4.1,7.37-4.1,14.41,1.25,21.28a11.86,11.86,0,0,1,2.51,5.53,129.23,129.23,0,0,1,.87,14.05c.41,28.16.67,56.32,1.14,84.48.19,11.28.8,22.56,1.28,33.84A36.87,36.87,0,0,0,972.67,650.73ZM935.4,1025.38c3.85-1.66,4.52-4.62,4-8.51a28.88,28.88,0,0,1,2.1-14.74q10.37-25.3,20.22-50.81a27.86,27.86,0,0,0,2-10.05c-.12-17.9-.6-35.8-.91-53.7q-.65-37.8-1.24-75.61c0-2.08,0-4.17-.06-6.26,0-.62-.4-1.76-.6-1.75-.78,0-2,.18-2.24.66-.78,1.81-1.71,3.77-1.69,5.67.2,14.94.65,29.88.94,44.83.44,22.94.81,45.88,1.24,68.82.12,6.78.68,13.56.41,20.32a42.18,42.18,0,0,1-2.4,13.16q-8.73,23.16-18.31,46C935.92,1010.47,934.09,1017.5,935.4,1025.38ZM813.33,1548.72c1.66-.86,3.25-1.54,4.69-2.45q21.81-13.73,43.58-27.52c6-3.8,12-7.63,18.07-11.35,2.25-1.38,2.69-2.55.18-4a9.6,9.6,0,0,1-2.06-1.57c-3.86-4-3.2-4.21-8.65-.79q-30.64,19.23-61.19,38.62a16.07,16.07,0,0,0-3,2.07c-.4.4-.51,1.85-.25,2C807.5,1545.45,810.38,1547,813.33,1548.72Zm441.25-83.12a5.15,5.15,0,0,0,1,.57c18.31,5.75,36.62,11.52,55,17.17a5.35,5.35,0,0,0,3.88-.48c4.27-2.58,8.38-5.42,13.41-8.72-4.45-1.43-8-2.58-11.55-3.7q-23.26-7.35-46.54-14.63c-1.36-.42-3.46-.8-4.32-.1C1261.68,1458.71,1258.31,1462.12,1254.58,1465.6Zm-173.28-864c.44.29.58.47.68.44q23.93-6,47.84-12c2.2-.55,3-1.93,3-4.18,0-7.82.15-15.64.11-23.45,0-3.54-.33-3.63-3.53-2.06a10.12,10.12,0,0,0-1.84,1c-4.54,3.45-9.28,6.68-13.54,10.46C1103,581.56,1092.24,591.58,1081.3,601.57ZM950.09,1301.16c3.25-1.47,3.36-3.71,3.33-6-.08-6.43.18-12.89-.27-19.29a160.64,160.64,0,0,0-2.68-22.15c-3.05-14.27-6.18-28.48-6.43-43.16-.29-17-.7-34-1.13-51.08-.26-10.42-.65-20.84-1-31.25,0-1.76,0-3.86-2.43-3.71-.51,0-1,2.44-1.28,3.79a10.26,10.26,0,0,0,0,2.6c.33,11.46.71,22.92,1,34.39.43,17,1,34,1.1,51.08a139,139,0,0,0,3.91,31.93c2.5,10.44,5.2,20.85,4.9,31.8C948.88,1287,949.7,1293.85,950.09,1301.16ZM945,1107.51l-.27,1.37c.93.38,1.84.83,2.8,1.13,7.63,2.33,15.19,5,22.94,6.85,8,2,16.27,3.32,24.46,4.6,9.42,1.47,18.89,2.62,28.35,3.79,7.4.91,14.81,2.21,22.23,2.3,12.51.14,25-.25,37.54-1,11.23-.65,22.53-.37,33.68-2.81,10.32-2.26,20.86-3.49,31.21-5.6a237.16,237.16,0,0,0,25.16-6.28c10.57-3.38,20.77-7.93,31.34-11.32,12.85-4.13,23.31-12.23,34.37-19.38.56-.36.77-1.24,1.15-1.88-.79-.23-1.79-.89-2.32-.62-2.31,1.19-4.52,2.59-6.71,4-10.35,6.68-20.38,13.91-32.49,17.37-4.5,1.28-8.79,3.26-13.23,4.76-10.34,3.5-20.23,8.35-31.15,10.14s-21.84,4-32.8,5.82c-8.56,1.39-17.15,2.91-25.78,3.45-12.67.81-25.38.94-38.07,1.07a204.07,204.07,0,0,1-21.85-.71c-12.26-1.18-24.48-2.84-36.7-4.43-9.11-1.18-18.24-2.15-27-5.16-7.22-2.46-14.62-4.43-22-6.56C948.31,1108,946.65,1107.82,945,1107.51ZM943,1024.05l-.45,1.61c3.75,1.1,7.48,2.23,11.25,3.27,11.85,3.27,23.43,7.44,35.89,8.37,10,.75,19.93,2.53,29.9,3.75,6.71.82,13.44,2.08,20.15,2.06,21.74-.06,43.47-.62,65.2-1a24.76,24.76,0,0,0,3.6-.51c13.32-2.26,26.66-4.46,40-6.8,7.16-1.26,14.47-2.16,21.37-4.31,12.41-3.86,24.62-8.42,36.82-12.93a155.15,155.15,0,0,0,17.64-7.55,173.77,173.77,0,0,0,16-9.87c1.32-.87,4.45-1.27,3.26-3.41-1.31-2.34-3.29,0-4.87.84a16.23,16.23,0,0,0-1.76,1.11c-12.44,8-25,15.78-39.45,19.67-3,.81-5.89,2.07-8.86,3-12,4-23.65,9.05-36.36,10.74-8.25,1.09-16.44,2.65-24.62,4.18a246.26,246.26,0,0,1-47.62,4.6c-9.56-.08-19.12.65-28.68.63-6.59,0-13.19-.43-19.75-1.09-10.7-1.08-21.38-2.33-32-3.83-8.91-1.26-17.84-2.63-26.62-4.59-8.62-1.94-17.06-4.7-25.59-7.06C945.87,1024.57,944.4,1024.35,943,1024.05Zm1.38,55.92-.29,1.19a25.07,25.07,0,0,0,3.49,1.63c9.64,2.87,19.27,5.82,29,8.44a96.8,96.8,0,0,0,12.28,2q14.69,2,29.41,3.72c7.57.92,15.15,2.43,22.72,2.44,20.7,0,41.39-.6,62.08-1a24.41,24.41,0,0,0,3.61-.46q19.73-3.4,39.44-6.85c11.46-2,22.84-4.14,33.67-8.65a179.35,179.35,0,0,1,21-7.69c14.55-4,26.63-12.52,39-20.46a7.19,7.19,0,0,0,1.47-1.85c-.9-.26-2-1-2.67-.7a25.33,25.33,0,0,0-4.54,2.53c-11.17,7-21.84,14.86-34.82,18.55-5.83,1.66-11.46,4-17.17,6.12-10.6,3.86-21.11,7.91-32.42,9.43-8.59,1.16-17.08,3-25.63,4.56-6.32,1.11-12.63,2.78-19,3.09-19.8,1-39.62,1.42-59.44,2a36.31,36.31,0,0,1-5.19-.42c-13.27-1.55-26.55-3.08-39.81-4.71-11.19-1.38-22.36-2.83-33.12-6.56-6.06-2.11-12.29-3.73-18.46-5.51C947.48,1080.46,945.89,1080.27,944.33,1080Zm-.57-27.57-.35,1.67c12,3.34,23.8,7.24,35.92,9.86,10.13,2.19,20.57,2.94,30.88,4.23,9.11,1.14,18.23,3,27.36,3,22.59.14,45.19-.55,67.78-.94a24.54,24.54,0,0,0,3.59-.55c10.93-1.89,21.88-3.61,32.77-5.72,10.52-2,21.07-4.11,31.42-6.85,7.35-2,14.39-5.07,21.59-7.61,13.25-4.67,26.69-8.89,38.14-17.51,2.63-2,5.57-3.54,8.29-5.41.57-.4.79-1.3,1.18-2-.81-.17-1.81-.72-2.39-.43a52.68,52.68,0,0,0-6.77,3.88c-11.67,8-23.92,14.7-37.61,18.68-6.15,1.79-12.1,4.3-18.13,6.49-8.33,3-16.7,5.81-25.53,7-6,.84-12,2.15-18,3.06-13.89,2.09-27.55,5.64-41.74,5.71-13,.07-26.07.65-39.11.8a140.15,140.15,0,0,1-16.13-.64c-13.11-1.34-26.18-3.06-39.29-4.45a174.11,174.11,0,0,1-34.54-7.32c-5.12-1.63-10.33-3-15.51-4.46A35.43,35.43,0,0,0,943.76,1052.4Zm175.38-599.2c-6.55-4.11-12.2-7.78-18-11.18a5.31,5.31,0,0,0-4.32-.27c-7.65,3.69-15.16,7.65-22.72,11.5-1.66.85-2.11,1.95-1.43,3.8,1.68,4.55,3.15,9.18,4.73,13.77.79,2.32,2.14,2.8,4.39,1.63C1093.91,466.14,1106.09,459.91,1119.14,453.2ZM894.78,1487.84c-.2-.7-.27-1-.39-1.36-3.49-9-6.06-18.4-12.94-25.71a2.43,2.43,0,0,0-3.56-.51c-5.55,3.22-11.1,6.44-16.7,9.59-1.8,1-2,2.13-.79,3.74q8.39,11.29,16.69,22.64c1.13,1.56,2.43,1.91,4,1,4-2.36,8.07-4.75,12-7.25A7.61,7.61,0,0,0,894.78,1487.84ZM865.47,1428l-1.08,1a8.65,8.65,0,0,0-1.45.54c-5.59,3.13-11.16,6.29-16.75,9.42-1.52.85-1.66,1.91-1,3.44q5.34,11.56,10.52,23.18c.93,2.09,2.22,2.43,4.08,1.35,5.54-3.21,11.06-6.46,16.64-9.6,1.65-.92,2.32-1.94,1.43-3.73q-5.62-11.41-11.23-22.84C866.23,1429.86,865.87,1428.91,865.47,1428Zm34.7-419.38c-.53-4-3.34-4.87-5.76-5.91a72.81,72.81,0,0,1-22.15-15.29c-5.48-5.33-11.36-10.24-16.94-15.47a19.35,19.35,0,0,1-4.06-5.3c-3.88-7.76-7.64-15.59-11.2-23.5a16.73,16.73,0,0,1-1.49-7c.15-7.81.51-15.62,1.14-23.41a18,18,0,0,1,2.38-6.78c3-5.5,6.28-10.82,9.3-16.29a7,7,0,0,0,1-4.25c-.27-1.41-1.67-2.48-2.88-.44q-7.17,12.1-14.19,24.29a6,6,0,0,0-.49,2.53c-.65,8.65-1.3,17.3-1.86,26a7.32,7.32,0,0,0,.61,3.53c7.16,14.73,12.23,30.87,26.93,40.6a12.27,12.27,0,0,1,1.91,1.77,96.08,96.08,0,0,0,31.84,22.15C896.27,1006.62,898.2,1007.65,900.17,1008.59Zm303-598.93c-6.33-4-11.68-7.53-17.18-10.79a4.68,4.68,0,0,0-3.81-.09c-6.91,3.29-13.7,6.8-20.55,10.21-1.71.86-2.09,1.95-1.36,3.8,1.66,4.2,3.15,8.47,4.62,12.73.8,2.33,2,2.89,4.29,1.7C1180.13,421.52,1191.09,415.91,1203.21,409.66ZM858.29,1123.77l-1.29-.12c-.38,1.48-.9,2.94-1.13,4.45-2,13.19-4.14,26.37-5.9,39.6a13,13,0,0,0,1.39,7.38c7,13.18,14.27,26.24,21.57,39.27a16.66,16.66,0,0,0,4.56,5.51c8.27,5.76,16.71,11.26,25.14,16.78a11.59,11.59,0,0,0,3.21.89c.09-1.35.54-2.81.16-4-.32-1-1.51-1.85-2.49-2.51-6.77-4.56-13.67-8.94-20.34-13.64a19.42,19.42,0,0,1-5.65-5.81q-11.06-19.18-21.6-38.65a14.29,14.29,0,0,1-1.79-7.39c.61-9.16,1.68-18.3,2.61-27.44C857.22,1133.31,857.77,1128.54,858.29,1123.77Zm99.09-633.44c.92-.73,2.33-1.4,3.07-2.52a57.81,57.81,0,0,0,3.69-6.85c1.74-3.61,1.63-3.86-2.27-4.86-9-2.33-18.06-4.74-27.14-6.86-12.37-2.89-8.36-4.19-14.91,7-2,3.38-1.71,3.77,2.31,4.85,7.5,2,15.06,3.83,22.59,5.78C948.73,487.94,952.72,489.07,957.38,490.33Zm281.74,556.72-.91-1.51c-2.27,1.44-4.48,3-6.81,4.29-5.71,3.26-11.32,6.77-17.27,9.55-5.16,2.41-10.71,4-16.12,5.9-11.14,3.89-22.12,8.36-33.49,11.41-13.69,3.68-27.72,6.12-41.6,9.13-10.64,2.31-21.27,4.68-32.71,7.2,10.62,1.18,20-1.09,29.51-2.82,20.94-3.83,42.22-6.14,62-14.73,12.85-5.57,26.93-8.18,38.66-16.47C1226.47,1054.74,1232.88,1051,1239.12,1047.05ZM830.21,925h-.1c-.46,6.15-1.08,12.3-1.28,18.46a15.17,15.17,0,0,0,1.45,6.45c3.6,8.08,7.37,16.09,11.23,24a17.91,17.91,0,0,0,3.7,5q9.59,9.19,19.41,18.14c3.59,3.27,7.06,6.84,11.17,9.3,6.83,4.09,14.11,7.44,21.25,11,1.17.58,3,2.55,3.82.26.53-1.41-.29-3.59-1.07-5.14-.45-.9-2-1.31-3.08-1.8a134.83,134.83,0,0,1-38.1-25.79c-8.89-8.46-17.66-16.61-21.58-28.64a2.94,2.94,0,0,0-.25-.46c-5.11-8.91-8.41-18.23-6.59-28.73A11.69,11.69,0,0,0,830.21,925Zm20.16,255.19-1.49.53c1.21,3.72,1.94,7.7,3.73,11.12,6.77,12.91,13.8,25.69,21,38.39a21.22,21.22,0,0,0,5.88,6.36c5.87,4.32,12,8.29,18,12.38a22.77,22.77,0,0,0,3.54,2.18c.6.27,2.06.07,2.14-.21a28.57,28.57,0,0,0,1.62-7.54c0-1.11-1.62-2.51-2.81-3.33-7.89-5.38-15.8-10.75-23.84-15.91a25.64,25.64,0,0,1-9-9.84C863,1202.92,856.65,1191.6,850.37,1180.23ZM831.22,961.42c-2.16,9.28.7,17.36,4.78,25.48,4.82,9.6,9.16,19.08,17.44,26.7,20.66,19,24.36,22.23,44.61,31.68,1.16.55,2.68.33,4,.46-.41-1.74-.55-3.61-1.34-5.16-.47-.92-1.94-1.38-3-1.93-2.93-1.51-5.92-2.89-8.81-4.46-4.56-2.48-9.6-4.44-13.47-7.75-9.62-8.24-18.72-17.08-27.94-25.77a16.4,16.4,0,0,1-3.34-4.58c-2.84-5.75-5.61-11.54-8.22-17.4C833.52,973.2,830,968,831.22,961.42Zm.73,31.44c-1.13,5.75.82,11.53,3.74,17.23s5.23,11.72,8.06,17.47a25.94,25.94,0,0,0,4.69,6.77c5.89,5.89,12.41,11.19,18,17.36,9.27,10.26,21.83,15.16,33.43,21.65.8.45,2.33.79,2.77.37a3.22,3.22,0,0,0,.53-2.85,6.67,6.67,0,0,0-2.25-3.14c-1.82-1.3-3.93-2.19-5.87-3.32-6.73-3.92-14-7.17-20-12-8.26-6.57-15.53-14.38-23.34-21.54a29.42,29.42,0,0,1-7.49-10.45c-2.57-6.07-5.61-11.94-8.32-18C834.31,999.08,833,995.54,832,992.86Zm2.26,23.63c-3.34,7.67,0,14.74,3.61,21.77a30.86,30.86,0,0,1,1.42,3.35c4.21,11.21,10.4,20.89,19.62,28.86,10.08,8.69,18.69,19.12,31.37,24.52,4.64,2,9,4.58,13.62,7,1.16-4.39-.26-6.56-3.63-8.13-4.39-2-8.48-4.75-12.85-6.84a55.42,55.42,0,0,1-15.53-11.19c-5.26-5.3-10.65-10.48-16.23-15.43a39.91,39.91,0,0,1-11.42-15.82c-2-5.34-4.71-10.43-7.14-15.62C835.14,1024.82,833.31,1020.69,834.21,1016.49ZM1260,1455c.63-.48,2.19-1,2.64-2.09q5.58-13.2,10.72-26.56c.32-.85-.48-3-1.15-3.19-3.31-1-6.93-2.38-10-1.74-1.89.38-3.12,4.19-4.58,6.49-.93,1.47-1.77,3-2.62,4.51q-4.45,8-8.88,15.92c-.85,1.52-2.08,3.34.78,4C1250.88,1453.31,1255,1454,1260,1455ZM1133.3,1577.13c.18,3.24.19,5.84.47,8.41,1.59,14.12,3.27,28.24,4.87,42.37,1.46,12.93,2.8,25.87,4.39,38.78.18,1.49,1.51,2.94,2.55,4.21.45.55,1.51.6,2.3.87a7.58,7.58,0,0,0,.73-2.25,49.77,49.77,0,0,0-.36-5.72c-1.61-14-3.29-27.9-4.88-41.85-1.47-12.93-2.87-25.86-4.32-38.79C1138.71,1580.12,1137.08,1578.14,1133.3,1577.13Zm-57.84-1285c2.52.88,5.11,1.31,7.18,2.57,10.54,6.46,16.46,16.1,18.56,28.16.8,4.61,1.34,9.26,2,13.88.56,3.61,3.42,2.7,5.73,2.81,2.68.13,3.08-1.59,3.1-3.73.15-13.19-2.52-25.43-11.17-35.93C1095.42,293.18,1085.67,287.69,1075.46,292.09ZM937,786.37a13.09,13.09,0,0,0-2.3-1.29c-4.59-1.58-9.22-3.08-13.84-4.6-11.37-3.74-22.73-7.51-34.13-11.16-1.34-.43-3.69-.8-4.21-.14a10.73,10.73,0,0,0-2.08,5.7c0,.71,2.2,1.84,3.56,2.3,14.45,4.9,28.92,9.71,43.39,14.54a16.08,16.08,0,0,0,2.46.81C932.06,792.88,937.17,788.77,937,786.37ZM773.51,1489.42c1.49-.83,2.55-1.36,3.55-2q19.4-12.26,38.76-24.53c8.07-5.12,16.15-10.23,24.13-15.49,1.07-.7,2.31-2.33,2.21-3.43-.3-3.29-1.86-3.58-5.55-1.23-19.06,12.11-38,24.36-57.23,36.27C775.57,1481.39,773.51,1484.11,773.51,1489.42Zm295.68,193c1.4.91,2.15,1.35,2.84,1.87,2.55,1.89,4.74,2.34,7.71.13a26.53,26.53,0,0,1,10.24-4.94c13.45-2.58,27-5.11,40.79-2.73a16.17,16.17,0,0,1,4.41,1.25c5.49,2.67,6.65,2.51,11.65-2.17-3.34-3.16-7.26-4.25-11.85-4.43a220.85,220.85,0,0,0-46.14,3.13C1081.85,1675.75,1075.69,1678.49,1069.19,1682.44ZM1008.77,402h0c0-1.74-.09-3.48,0-5.2.16-2.62-.66-4.16-3.51-4.72-5.59-1.11-11.12-2.51-16.66-3.86-2.45-.59-3.58.13-3.5,2.78.12,3.63.11,7.28,0,10.92-.06,2.63.85,4.08,3.66,4.66,5.24,1.08,10.38,2.63,15.59,3.84,4,.93,4.28.63,4.38-3.74C1008.8,405.15,1008.77,403.59,1008.77,402ZM871.17,888.1c-.64-2.36-.67-4.36-1.61-5.74-6.62-9.76-13.18-19.58-20.23-29-6.15-8.23-10.3-16.85-8.83-27.53a125.84,125.84,0,0,0-3.4,16.08,8.57,8.57,0,0,0,1.4,5.32c7.78,11.93,15.72,23.75,23.64,35.58C864.07,885.67,866.9,887.12,871.17,888.1Zm395.91-122.33c1.3-.78,2.21-1.26,3.05-1.84,2.42-1.69,4.81-3.41,7.21-5.13,6.61-4.76,13.21-9.55,19.85-14.26,2.9-2.06,1.1-3.87-.18-5.67s-2.17-3.74-4.86-1.79c-10,7.22-20,14.33-30,21.54a4.4,4.4,0,0,0-1.25,1.87C1262.88,762.32,1265,764,1267.08,765.77ZM1060,1548.35l-1.37-.56c-4,4.89-8.1,9.75-12.07,14.69a3.69,3.69,0,0,0-.64,2.42c.34,4.64.73,9.29,1.26,13.92.27,2.34,1.4,3.45,3.84,1.92,2.63-1.66,5.29-3.28,8-4.74a5.1,5.1,0,0,0,2.91-5.51C1061.29,1563.12,1060.67,1555.73,1060,1548.35ZM950.1,464.08l0,1.08q13,3.34,26,6.67a2.67,2.67,0,0,0,1.51.12c5.17-2.46,10.31-5,16.47-8-9.5-2.42-17.67-4.58-25.88-6.54a7.69,7.69,0,0,0-4.56.26C959.05,459.66,954.6,461.93,950.1,464.08Zm85.19,1065.2-.21,1.22c7.87,3.06,15.73,6.16,23.65,9.13a6.89,6.89,0,0,0,4,.39c9.53-2.84,19-5.84,28.5-8.8l-.15-.64Zm120.6-13.35-.38-1L1105,1528.87c8.88,1.57,17.6,2.57,26.35,3.38a6.8,6.8,0,0,0,4.27-1C1142.43,1526.23,1149.14,1521.05,1155.89,1515.93Zm107.18-107.83h-.16c0,1.39,0,2.77,0,4.16,0,5.58,0,5.63,5.49,6.74.5.1,1,.08,1.54.18,4.88,1,5.27.62,4.77-4.43-.61-6-1.4-12-1.88-18.07s-.4-6.17-6.32-7.49c-4.37-1-4.72-.79-4.53,3.89C1262.19,1398.1,1262.69,1403.1,1263.07,1408.1ZM841.12,980.42c3.31,9.57,7.65,18.43,15.89,24.89a74,74,0,0,1,9.6,8.78c8.92,10,20.58,15.67,32.25,21.43a9.73,9.73,0,0,0,2.81.45,9.82,9.82,0,0,0-1.72-2.75,17.53,17.53,0,0,0-4.49-2.6c-9.49-3.62-16.76-10.29-23.93-17.14-3.89-3.71-7.95-7.25-11.85-11-2.14-2-5-3.87-6-6.4C851,989.52,845,985.91,841.12,980.42ZM897,1000l.78-1q-3.56-10.27-7.11-20.55c-2.11-6-4.22-12.09-6.4-18.11a7.8,7.8,0,0,0-1.51-1.89c-.44.81-1.26,1.63-1.26,2.43,0,3.12.31,6.23.46,9.34.33,6.4.47,12.8,1.06,19.17a6.92,6.92,0,0,0,2.66,4.66C889.21,996.27,893.16,998,897,1000Zm-53.33,8.35c2.36,9,5.85,17.16,13.25,23a62.35,62.35,0,0,1,7.27,6.7,103.43,103.43,0,0,0,35.43,25c1,.44,2.06.79,3.47,1.32-.26-3.41-2.7-3.94-4.53-5-5.49-3.28-11.48-5.94-16.37-10-8-6.58-15.37-14-23-21.13a34.32,34.32,0,0,1-3.92-4.17C851.33,1018.82,847.5,1013.54,843.63,1008.3Zm2,28.19-.87.54c.33.94.64,1.88,1,2.81,3,8,8,14.36,14.26,20.15,11.45,10.61,21.88,22.43,36.94,28.29,2.3.9,4.63,1.73,6.94,2.59-.15-3.67-3.64-3.73-5.77-5.13-4.76-3.13-10.25-5.35-14.52-9-8.42-7.23-16.23-15.19-24.27-22.88a31.3,31.3,0,0,1-3.16-3.45C852.58,1045.78,849.1,1041.13,845.59,1036.49Zm322.94,7.28c-65.55,15.6-131.24,15.65-197.14,3.71C1037.39,1060.73,1103.16,1060.46,1168.53,1043.77Zm122.25-309.56c-4.23-2.92-7.56-2.75-11,.16-2.36,2-5.06,3.66-7.61,5.47l-22.49,16c3.48,1.4,6,3.35,9.23,1.07C1269.39,749.4,1279.86,742,1290.78,734.21Zm-123.42,337.72c-63.56,15.53-127.49,15.81-191.7,4.38C1039.85,1088.92,1103.75,1088.35,1167.36,1071.93Zm-209-575.29c.67-2.45-1.23-3.19-3.14-3.69-11.56-3-23.16-5.91-34.69-9-3.1-.84-3.15.71-3.12,2.92s1.4,2.82,3.27,3.29c7.54,1.94,15,4,22.57,6,4,1.06,8,2.11,12.06,3.12C957.34,499.79,958.87,499.55,958.38,496.64Zm78.72-207.37c-19.78,20.37-35.51,66.18-29.69,88.7,1.8-15.58,3-31.19,8.41-46.17A196.51,196.51,0,0,1,1037.1,289.27Zm-59,815.23-.36.73c4.08.57,8.16,1.17,12.25,1.7,9.8,1.25,19.59,2.53,29.39,3.7,7.91.94,15.83,2.43,23.76,2.45,19.81,0,39.63-.62,59.45-1a20.12,20.12,0,0,0,3.1-.33q22.52-4,45-8c4.85-.88,9.67-1.88,14.51-2.82-12.92,1.68-25.71,4-38.5,6.25-7.17,1.26-14.32,3.15-21.54,3.48-17.89.83-35.82.59-53.71,1.46-8.94.43-17.68-.5-26.45-1.53C1009.34,1108.69,993.72,1106.53,978.07,1104.5Zm84.49-502.79-.06-.57c-5.34-1.5-10.66-3-16-4.51-9.17-2.57-18.34-5.16-27.54-7.63-1.22-.33-3.09-.6-3.82,0-2.2,2,0,8,3,8.42,4.46.6,8.95,1,13.43,1.39Q1047,600.32,1062.56,601.71ZM886.37,764.11l.09,1.67q26.13,8.65,52.28,17.26a4.46,4.46,0,0,0,5.46-2c-.47-.4-.79-.88-1.23-1-16.8-5.51-33.59-11.07-50.45-16.38C890.7,763,888.43,763.91,886.37,764.11Zm34.12-270.6c2.71,5.68,3.59,6.59,7.68,7.67,9.54,2.54,19.08,5.07,28.66,7.47a26.61,26.61,0,0,0,5.23.3,49.48,49.48,0,0,0-4.19-5.6c-.73-.76-2.24-.81-3.41-1.12-6.37-1.68-12.74-3.37-19.12-5C930.54,496,925.72,494.81,920.49,493.51Zm240.84,635.39-.07-1.13c-59.78,14.86-119.89,15.48-180.27,4.63a39.39,39.39,0,0,0,8,1.68c9.44,1.24,18.87,2.59,28.32,3.68,8.77,1,17.56,2.38,26.36,2.47,15.45.15,30.92-.64,46.38-.86,8.34-.12,16.65,0,24.84-2,4-1,8.17-1.46,12.26-2.21Q1144.25,1132,1161.33,1128.9ZM837.9,852.32l-1.4.26c.77,2,1.22,4.18,2.35,5.93q11,17,22.33,33.86a18.88,18.88,0,0,0,4.54,4.92c1.32,1,3.27,1,4.94,1.48a40.17,40.17,0,0,0-1.27-6.78c-.3-.87-1.92-1.36-3-1.86a19.47,19.47,0,0,1-8.33-7.53C851.45,872.43,844.63,862.4,837.9,852.32Zm43.75,648.29c4,2.61,7.2,4.62,10.32,6.73,1.93,1.3,3.72,1.42,5.63-.06a24.74,24.74,0,0,1,3.54-2.12c2.17-1.19,3.05-2.58,1.33-4.9a69.45,69.45,0,0,1-4.25-6.48c-1.07-1.83-2.26-1.72-3.83-.76C890.43,1495.42,886.44,1497.76,881.65,1500.61ZM1022,425.22c-.17-1.74-.4-4.66-.75-7.57-.26-2.11-.66-4.21-1-6.31a71,71,0,0,0-7.46,3.27c-.79.44-1.33,2.05-1.3,3.1.14,4.13.44,8.26,1,12.35a3.49,3.49,0,0,0,2.2,2.28C1020.42,433.86,1022.21,432.34,1022,425.22ZM1147.8,1574.47c-.81-6.65-1.92-12.11-2-17.6-.14-6.93-5.21-10.57-8.53-15.42.49,7.76,1.68,15.29,2.14,22.87C1139.7,1569.53,1142.82,1571.78,1147.8,1574.47Zm109.71-115.74c-.16-.35-.32-.71-.49-1.06-3.53-.77-7-1.78-10.6-2.19-1.64-.19-4.17.24-5,1.35-2.32,3.19-4,6.86-5.87,10.36-1,1.93-.41,3,1.74,3,1.34,0,3,.1,4-.56C1246.78,1466.15,1252.12,1462.4,1257.51,1458.73ZM850.78,655.49l1.09,1c8.51-7.87,18.81-14,24-25.19-5.7,2.63-11.18,5.53-16.6,8.53a5.31,5.31,0,0,0-2.13,2.15C854.93,646.42,852.88,651,850.78,655.49Zm285.94-75.21.79.24a84.85,84.85,0,0,1,4.4-8.54c3.57-5.4,3.82-11.33,3.4-17.43,0-.83-.58-2.14-1.16-2.32-1.62-.49-7.36,3.76-7.38,5.51C1136.66,565.25,1136.72,572.76,1136.72,580.28Zm-115-195.77a31.53,31.53,0,0,0-3.51-.27c-5.66.36-11-.21-15.38-4.44a2.67,2.67,0,0,0-2.24-.69c-3.81,1.64-7.54,3.47-12.38,5.75,6,1.47,10.82,2.26,15.33,3.83C1010.26,391,1015.42,388,1021.77,384.51Zm223.73,394.2c.75-.68,2.08-1.39,2.62-2.49,1.92-3.87,3.57-7.88,5.32-11.84.74-1.67,1.48-3.56-1.07-4.1-2.21-.46-4.93-3.15-6.71.67-2,4.39-3.93,8.85-5.91,13.28-.75,1.66-.25,2.59,1.49,3C1242.4,777.58,1243.52,778,1245.5,778.71ZM851.63,635.64c3,2.53,5.59,1.39,8,.06q12.11-6.51,24.15-13.14a23.59,23.59,0,0,0,4.59-3.35c.72-.68,1-1.87,1.42-2.83a9.28,9.28,0,0,0-2.84.44c-6.9,3.59-13.75,7.26-20.62,10.92Zm244.13,452.24c-24.35-1.25-49.22,3.21-74-1.34C1032.31,1091.05,1086.81,1091.72,1095.76,1087.88ZM951.53,803.71a3.09,3.09,0,0,0-.28-1c-3.08-4.36-6.15-8.74-9.35-13a2.25,2.25,0,0,0-2.14-.24c-4.22,2.41-4.91,6-2.06,10.08,1.1,1.55,2.15,3.13,3.29,4.64,2.31,3.07,7.69,3.27,10.08.41A5,5,0,0,0,951.53,803.71ZM844.39,1433.38c0,1.24.1,2.89,2.54,1.52,5-2.78,9.9-5.6,14.85-8.4,2.94-1.65.87-3.49.18-5.24-.84-2.13-2.13-3-4.39-1.62a43,43,0,0,1-7.7,4.18C845.37,1425.41,845,1429.09,844.39,1433.38Zm2.45-495.48,1.2.44c.7-1.11,1.42-2.22,2.12-3.34,5.83-9.34,9.51-20.22,19.17-26.82.14-.1.33-.24.35-.38.19-1.1.35-2.2.52-3.3-1.08,0-2.57-.41-3.17.14-2.92,2.67-6.07,5.27-8.26,8.5a146.52,146.52,0,0,0-9.33,16.24C848.11,932,847.68,935,846.84,937.9Zm411.35-156.47a9.08,9.08,0,0,0,2.1-2.07,50.41,50.41,0,0,0,2.59-5.63c2.41-5.58,2.12-6.33-2.92-9.52-1.6-1-2.5-.76-3.22.87-1.6,3.63-3.27,7.23-4.81,10.88s-1.33,4.22,2.71,5.08C1255.48,781.22,1256.35,781.23,1258.19,781.43Zm-141,898.45v-.06a45.6,45.6,0,0,0-6.19,0c-3,.43-3.74,2-3.45,5.77.23,3,1.85,3.23,4.26,2.83,3.72-.61,7.49-1,11.22-1.61,1.73-.3,3.4-.91,2.87-3.38-.43-2-1-3.67-3.54-3.61C1120.62,1679.92,1118.9,1679.88,1117.18,1679.88ZM842.81,939.41l.9,0c0-4.25,0-8.5,0-12.75,0-6.33,1.07-12.33,4.8-17.75,2.55-3.7,4.57-7.77,6.8-11.69a10,10,0,0,0,1.49-3.28c.11-.83-.66-1.77-1-2.66-.65.45-1.56.77-1.91,1.39-4.78,8.69-11.75,16.43-11.13,27.4C843.11,926.52,842.81,933,842.81,939.41Zm9.42,17.85,1.15.1a14.13,14.13,0,0,0,1.18-1.64c4.42-8.48,9-16.85,17.14-22.45.28-.19.67-.47.69-.74.14-1.39.18-2.8.25-4.2a12.24,12.24,0,0,0-3,1.08c-8.5,5.86-12.7,14.91-17.28,23.63C851.72,954.16,852.23,955.84,852.23,957.26Zm339.07,87.13c2.69-.89,4.75-1.6,6.82-2.25,8.62-2.7,17-5.93,24.38-11.32A9,9,0,0,0,1224,1029c-.74-.09-1.58-.46-2.21-.23-8.29,3-16.55,6.13-24.82,9.21C1194.26,1039,1192.34,1040.74,1191.3,1044.39Zm101.87-56.75-1.4-.18c-1.94,7-4,14-5.77,21-1.16,4.61-2.62,8.94-6.07,12.44-2.31,2.34-2.85,5.25-1.78,8.86,3.49-4,6.91-7.37,8.09-12.4,1.45-6.25,3.39-12.38,4.9-18.62C1292,995.11,1292.51,991.35,1293.17,987.64Zm-13.23,13.64,1.31.51c2-3.35,4.72-6.48,5.91-10.11,2.7-8.22,4.72-16.66,6.86-25.06.46-1.82.23-3.81.32-5.72l-1.13-.09c-2.09,7.5-4,15.06-6.36,22.46a34.26,34.26,0,0,1-4.94,9.5C1279.91,995.52,1279,998.09,1279.94,1001.28Zm16-67.37-1.28-.12c-2.08,7.31-4,14.69-6.31,21.92a40.94,40.94,0,0,1-4.52,9.17,15.1,15.1,0,0,0-2.74,10.35c3.73-4.08,6.9-7.32,8.11-12.13,1.85-7.4,4.13-14.7,6-22.09A45.08,45.08,0,0,0,1296,933.91ZM944.08,786.2a4.3,4.3,0,0,0,.29.94c3.44,4.77,6.81,9.6,10.45,14.22.38.48,2.58,0,3.56-.6.72-.45,1.45-2.29,1.11-2.8-3.16-4.75-6.49-9.41-10-13.93-.39-.5-2.19-.3-3.11.09A9.33,9.33,0,0,0,944.08,786.2ZM1291.52,1015l-1.36-.11c-2.07,7.32-4.28,14.61-6.14,22-1,4-2.41,7.55-5.31,10.49-2.36,2.4-2.79,5.18-1.59,8.68,3.67-3.9,6.59-7.6,7.75-12.58,1.8-7.76,4-15.42,5.93-23.15A46.75,46.75,0,0,0,1291.52,1015Zm-189.19-634.9h0c0,1,0,2.08,0,3.12,0,5,1.16,6.07,6,6.15,1.84,0,2.6-.68,2.19-2.51-1-4.4-1.79-8.84-3-13.18-.28-1-1.66-1.75-2.53-2.62-.9,1.1-2.29,2.09-2.6,3.33C1102,376.2,1102.33,378.2,1102.33,380.11ZM860.22,971.79c.92-.81,1.43-1.19,1.86-1.64,3.89-3.94,7.74-7.92,11.65-11.83,2-2,4.24-3.65,6-5.79.62-.74.08-2.44.06-3.7-.9.28-2,.32-2.66.88-4.58,4-9.21,8-13.51,12.26-1.79,1.79-2.94,4.27-4.1,6.58C859.18,969.18,859.86,970.33,860.22,971.79Zm17.59-9.51c-3.82,2-5.71,4.4-5.18,8.44a63.7,63.7,0,0,1,.77,9.33c-.08,4,1.89,6.22,5.45,8C878.5,979.3,878.16,971.05,877.81,962.28Zm-24.22-321A20,20,0,0,0,851,639.4c-1.75-.86-3.44-.73-4.39,1.21q-2.73,5.55-5.24,11.21c-.56,1.26-1,2.62,1,3.29,1.65.55,3.5,1.63,4.58-.37C849.27,650.52,851.24,646.13,853.59,641.28Zm243.2,1048.25,0-.19a29.06,29.06,0,0,0,4.67-.07,3.14,3.14,0,0,0,2.21-1.52c.82-2.68-.91-5.68-3.67-5.71a44.25,44.25,0,0,0-10.22,1.31c-.88.2-1.86,2-1.93,3.1,0,.75,1.31,2.07,2.24,2.3A49.31,49.31,0,0,0,1096.79,1689.53ZM850.2,948.84A53.67,53.67,0,0,0,853,944,45.18,45.18,0,0,1,867,926.88a23.61,23.61,0,0,0,3.86-3.46c.51-.6.35-1.77.5-2.68a6.7,6.7,0,0,0-2.24.81c-4.33,3.72-8.94,7.21-12.78,11.39S849.12,942.24,850.2,948.84Zm179.16-529.58h.07c0-2.94.12-5.89-.07-8.82-.06-1-.9-1.89-1.39-2.84-1,.83-2.73,1.63-2.75,2.49-.19,6-.1,12.1.12,18.14,0,.85,1.27,1.67,2,2.5.69-.88,1.89-1.72,2-2.66C1029.53,425.15,1029.36,422.19,1029.36,419.26ZM1011,590.87c.11-2.89-1-4.59-3.91-5.25-3.35-.75-6.6-1.93-10-2.69-1-.21-2.09.42-3.15.66.53.8.89,1.86,1.63,2.36q5.57,3.75,11.3,7.24a14.49,14.49,0,0,0,3.26,1.07C1010.44,593.13,1010.72,592,1011,590.87Zm266.71,804.54c-.15.52-.29,1-.44,1.57l48.41,15.83c.13-.4.27-.81.4-1.22C1310.09,1405.78,1293.79,1400.92,1277.7,1395.41Zm-62.7-463,19,13.21c-.51-4.33-1.86-6.86-4.78-8.65-2.66-1.63-5.1-3.6-7.61-5.46S1216.92,929.75,1215,932.41Zm-367.24-7.73c5.28-8.56,8.51-17.22,16.29-22.46a1.82,1.82,0,0,0,.26-1.29c-.58-.25-1.48-.66-1.82-.41-2.62,2-5.52,3.73-7.62,6.16C850.81,911.38,847,916.38,847.76,924.68Zm73.73-368c.06-18.42,1.45-36.88-.58-55.24l-1,0Q920.69,529,921.49,556.64Zm328.89,480.3c-2.66,3.26-6.89,3.73-7.21,8.39-.36,5.13,5,4.69,7.21,7.65ZM876.65,945.79a11.35,11.35,0,0,0-.7-1.67c-1,.16-2.14.11-2.79.67q-7.85,6.81-15.5,13.85a10.11,10.11,0,0,0-2.1,3.51c-.2.49.26,1.26.42,1.91a6.09,6.09,0,0,0,2-.92c2.13-2.23,4-4.69,6.24-6.82,3.25-3.12,6.69-6,10.09-9A18.64,18.64,0,0,1,876.65,945.79Zm374.94,80.12v-16.17c-1.88,1.42-3.49,2.46-4.88,3.73-3.28,3-2.91,6.67.72,9.11C1248.84,1023.53,1250.1,1024.71,1251.59,1025.91Zm-3.27,55.18c0-5.49,2.53-10.8.48-17.37-2.61,3.2-5.26,5.36-6.46,8.15C1240,1077.21,1247.73,1077,1248.32,1081.09ZM968.51,474.59c0-.51.11-1,.17-1.51l-38.26-9.66c-.11.45-.23.91-.34,1.37ZM885,1045.2c-.2.34-.39.68-.58,1,.25.43.38,1,.76,1.27,5.36,3.13,10.74,6.23,16.16,9.24.34.19,1.1-.36,1.66-.56-.39-.69-.61-1.7-1.21-2C896.18,1051.09,890.55,1048.16,885,1045.2Zm-.73,26.26c4.71,6.88,12.32,9.18,19.95,13.66-.68-1.8-.73-2.72-1.16-3C896.78,1078.54,890.49,1075,884.22,1071.46Zm52.06,3h.07c0,1.56-.09,3.13,0,4.69.05.59.51,1.51.94,1.61s1.26-.41,1.73-.85c1.87-1.77,2.41-8,.74-9.68-.64-.65-1.8-.78-2.72-1.15a11.13,11.13,0,0,0-.76,2.26A23.17,23.17,0,0,0,936.28,1074.49ZM1096,315.65l-.86.35c.59,6.17,1.16,12.35,1.82,18.51.08.73.75,1.4,1.14,2.1.4-.78,1.2-1.59,1.15-2.34a79.68,79.68,0,0,0-1-9.26C1097.71,321.86,1096.8,318.77,1096,315.65ZM937.3,1109.09c3.54-2.07,5.22-4.57,4.13-8.35-.61-2.1-1.09-4.22-4.13-4.12Zm-1.06-55.5c5.46-5.16,4.8-10.86-1.15-12.93C935.47,1044.85,935.82,1048.91,936.24,1053.59ZM1133,1571.35c3.19,3,6,5.83,9,8.35.57.49,2.09.09,3-.26a2.42,2.42,0,0,0,.2-2.06C1141.65,1574.54,1138.66,1570.47,1133,1571.35ZM840,674.09c1.66-4.29,3.08-7.88,4.44-11.5.33-.87.87-2.42.58-2.63a7.26,7.26,0,0,0-3.67-1.41c-.4,0-1.26,1.77-1.29,2.75C840,665.36,840,669.42,840,674.09ZM1133,333.3l-.21-1.12c-2.51-.48-5-1.05-7.55-1.37-.61-.08-1.87.6-1.89,1a39.08,39.08,0,0,0,.26,5.06,9.07,9.07,0,0,0,2.42-.33C1128.34,335.52,1130.63,334.39,1133,333.3ZM885,1018.35l-.67,1c2.42,4.07,7,4.91,10.84,6.84.36.18,1.12-.43,1.69-.68-.34-.51-.56-1.24-1-1.5C892.19,1022,888.56,1020.21,885,1018.35Zm169.32,570.86c.25-8.7,8.07-8.32,11.18-12.88-4.09,2-8,4.23-12,6.57a29.23,29.23,0,0,0-3.1,2.5Zm61.88-1221.52h-.5c0,2.59,0,5.17,0,7.76,0,3.11,0,6.22.08,9.32,0,.71.65,1.41,1,2.11a10.54,10.54,0,0,0,1.4-2.32,6.75,6.75,0,0,0,0-2.57C1117.47,377.22,1116.8,372.46,1116.15,367.69Zm89.22,644.3-5.59-6.47-.74.27,1.14,7.38Zm36,6.25c-.3-.41-.6-.82-.91-1.22-4.19,2.62-8.41,5.22-12.56,7.91-.44.28-.51,1.13-.74,1.71.42.15,1,.56,1.24.41C1233,1024.45,1237.73,1022.08,1241.39,1018.24Zm29.14,143.19-.87,18.9C1272.93,1174.1,1271.64,1167.76,1270.53,1161.43Zm9.6-171.73c3.62-4,3.46-8.41,4.65-12.28C1281,980.3,1279.52,984.05,1280.13,989.7Zm-1.23,25.85,1.22.35q1.55-5.11,3.1-10.22C1278.82,1007.9,1278.16,1011.47,1278.9,1015.55Zm3.08,16.59c-3.72,2.33-5.45,5.51-3.22,10Q1280.36,1037.13,1282,1032.14ZM1000.73,413.63c.07-.27.13-.54.2-.82l-19.15-4.64-.21.87ZM877.54,773.37l-1.28-1.29c-1.88,1.72-3.81,3.39-5.58,5.21-.31.32,0,1.28.08,1.94.61-.08,1.45,0,1.79-.3C874.29,777.15,875.89,775.24,877.54,773.37Zm345,153.14c-.2.3-.39.61-.59.92l8.23,5.6.83-1.26A14.08,14.08,0,0,0,1222.57,926.51Zm49.13,259.69-1.66-.2-1,8.33,1.29.2C1272.4,1192.07,1271.69,1189.06,1271.7,1186.2Zm-173.6-811h-.79v10.06h.79Zm-91.59,41.42-.63.14q.3,6.06.59,12.12l1.33-.13Zm127.91,1266.68.29-1.57c-1.4-1-2.64-2.8-4.7-1-.41.35-.19,2.26-.07,2.28A39.2,39.2,0,0,0,1134.42,1683.32ZM1289,938.91l.67.16,2.46-9.26-.93-.22Q1290.13,934.24,1289,938.91Z"/></svg>