<svg id="Layer_1" data-name="Layer 1" xmlns="http://www.w3.org/2000/svg" viewBox="0 0 2000 2000"><defs><style>.cls-1{fill:#1d1d1b;}</style></defs><path class="cls-1" d="M1308.76,1352.48l1.48,5.41c-2.94,1.37-4.69,5.24-9,2.26-1.76-1.22-7.71,2.44-8.73,4.85-.53,1.22-.88,2.51-1.49,4.29-5.23-3.09-8.9.91-13.14,2.11-.25,4.73-.26,4.66-5.47,5.26a3.49,3.49,0,0,0-2.39,1.78c-1.3,3.08-3,.55-5,.43-2,8.57-11.52,8.18-16.68,13.63l-4.88-3.45c-1,2.1-1.79,3.78-2.94,6.2-3.65-4.27-6.93-2.27-10.31-.13l-1.22,5.63-6.21-2.06-2.77,3.74a19.36,19.36,0,0,1-2.58-.93c-2.11-1.14-3.48-1-5.09,1.25-3.26,4.53-6.79,5.09-12.23,2.35a19.71,19.71,0,0,0-.82,2.33,12.44,12.44,0,0,0-.19,2l-7.61,3.53-4.07-3c-1.45,2.22-2.65,4.07-3.83,5.86-2-.73-3.92-2.18-5.32-1.77-1.64.48-2.79,2.59-3.93,3.77-8.68-.19-17.1-.09-24.63,4.86-.67.44-1.87,1.18-2.15,1-4.37-3.62-5.46.61-7.56,3.59l-2.29-3a67.49,67.49,0,0,0-8.53,1.47c-2.62.79-5,2.24-8.41,3.81a9,9,0,0,0-10.45,2.1,2.61,2.61,0,0,1-2.11.62c-3.65-1-3.64-1-5.84,2.35-2.37-1.64-4.51-3.77-7.29-.22-1.47,1.87-3.66,2-6.18.75-1.53-.78-4.43-.82-5.68.15-4.94,3.83-10,2.33-15.22,1.38-1.68-.31-3.81-.39-5.2.38-5.29,3-7.37,3.09-13.26,1.65-4.9-1.19-9.5.63-14.77,2.73l-1.23-.94c-4.36.58-7.88.86-11.3,1.58-2,.43-3.88,1.55-6.23,2.54-5.81-4.76-11.5-2-17.29,2.11l-4.81-3.63-4,5.18-6.36-4.87-5.85,3c-3.05-1.41-6.56-6.74-9.68-.62-3.89-1.15-7.94-3.78-11-2.9-4.89,1.4-9.18-.06-13.81-.27l-1.61,2.88c-7.41-1.91-14.77-7.49-22.3.14-3.62-2.84-6.79-5.22-11.55-1.83-1.74,1.24-5.72-.48-8.62-1.11-3.48-.76-6.85-2.27-10.35-2.59-4.37-.38-8.8.39-13-1.77-1-.5-2.58.17-3.88.4-.64.12-1.47.85-1.83.64-6.52-3.78-14-1.35-20.81-3.18a6.86,6.86,0,0,0-4.48.49c-1.83.9-2.85.76-4-.91-.34-.48-1.77-.26-2.7-.24-1.23,0-2.75.68-3.64.17-5.92-3.36-5.87-3.43-12-1.76-.51-1.07-1.06-2.19-1.59-3.29-8,1.16-8,1.16-9.64-3.5l-5.73,3.57c-4-1.91-8.2-4.12-12.58-5.88-1.22-.49-3,.18-4.46.61a52.7,52.7,0,0,0-5.24,2.17c-.5-2.47-.83-4.07-1.21-6-4,.42-7.61,2.43-11.37.64-.34-.16-1.16.34-1.29.18-3.54-4.72-7.59-4.27-12.42-.15-.22-2.71-.35-4.34-.54-6.65-7.58.06-13.84-7.68-22.49-3.28-3.6-5.83-8.32-7.89-15-6-2.63.74-6.17.63-6.53-3.89,0-.64-1.44-1.34-2.33-1.72-2.94-1.22-5.94-2.31-9.27-3.59L696,1401l-11.69-8.36c-.38-.27-.71-.79-1.1-.83-7.25-.75-10.82-2.4-17-7.53-1-.8-2.53-.9-3.82-1.31-2.38-.77-4.74-1.59-7.14-2.29-3.16-.92-3.64-3-1.62-6.45-4.06,2.73-6.69,1.66-9.4-.32-2.46-1.79-6.34-2.1-5.55-7.19-9.54,3.47-14.31-3.69-20.23-7.83-4.72-3.29-7.8-8.45-14.11-10.14-3.53-1-6.49-4.73-9.26-7.66a26.71,26.71,0,0,0-13.81-8.15c.88-2.33,1.57-4.16,2.5-6.65l-8.44-.53,2.85-5.33c5.93,3.14,12.79,4.35,15.17,11.85,6.72.28,14.83,6.81,16.85,14.14,4.72-.57,8.18,1.58,10.7,5.58a4.56,4.56,0,0,0,2.06,1.67c8,3.12,14.85,8.44,22.67,12,8.57,3.91,16.65,8.84,25,13.13,6.47,3.3,13,6.61,19.68,9.36,5.63,2.3,11.64,3.65,17.38,5.71,6.8,2.43,13.49,5.17,20.22,7.79.63.25,1.24,1,1.81.93,5.88-.48,10.26,3.91,15.79,4.75,3.54.54,6.88,2.31,10.36,3.35,4.56,1.36,9.12,2.77,13.77,3.79,11.62,2.53,23.26,5,34.95,7.23,16.05,3.07,32.1,6.18,48.24,8.72,7.58,1.2,15.38,1,23.06,1.66,2.9.24,5.73,1.21,8.63,1.56,8.44,1,16.87,2.42,25.33,2.62,7.8.18,15.5,1.29,23.27,1.48a3.78,3.78,0,0,0,1.34-.18c4.13-1.51,8.11-1.24,12.49-.38,5,1,10.35.67,15.48.23,8.1-.69,16.14-.11,24.2.29a53.41,53.41,0,0,0,5.51-.13c5.88-.27,11.77-.38,17.63-.88q15.63-1.34,31.22-3.07c10.81-1.2,21.59-2.82,32.41-3.88a366.89,366.89,0,0,0,40.58-6c7.92-1.69,15.79-3.62,23.7-5.37,15.84-3.52,31.46-8,47.08-12.48,5.7-1.62,11.07-4.37,16.68-6.36,10-3.53,20.26-6.28,29.91-10.51,5.47-2.39,12.25-1.94,16.45-7.18,15.14-5.4,27.77-15.72,42.64-21.7,4.78-1.92,9.15-4.83,13.83-7,1.31-.62,3.06-.32,4.61-.45Z"/><path class="cls-1" d="M1191.06,600.46c.48-1.42.54-3.37,1.52-4.17a102.17,102.17,0,0,1,10-6.81c.5-.3,1.56.32,3.14.69l-4.2,5.34a16.17,16.17,0,0,0,2.18,1.11c2.53-3.52,6.43-4.62,10.15-6.25,5.84-2.57,6.67-5,4.61-10.81-.46-1.3-1.06-2.54-1.66-4a15.71,15.71,0,0,1-12.36,6.64c1.73-4.88,1.2-9.57,5.16-13.13,2.76-2.49,5-5.43,8-7.87,3.9-3.21,7.52-2.88,11.5-1.82,5,1.33,9.92,3.06,15.3,4.75v4.45c2.75-1.17,5.25-3.63,8,.44l-6.18,3.54,2.53,4.36c4.5-4.07,9.65-4.5,15-4.44a27.33,27.33,0,0,0,6.68-1c2.8-.68,5.62-2.7,8,.7.13.17.41.42.53.38,7-2.42,5.94,3,7.41,6.9,4.24,11.29,9.3,22.28,13.8,33.47,1.4,3.49,4,6.82,2.59,11l.16-.13c-3.18-1.06-4.69-3.53-5.31-6.58-1.59-7.76-5.82-14.47-8.56-21.77-2.6-6.92-6.29-13.43-9.57-20.27-6.93,1.27-13.32,2.94-19.8,3.5-7.21.62-12.14,4.78-17.68,8.61-5.14,3.56-11.24,5.74-16.92,8.53-.21.1-.49.32-.63.25-8-4-12.94,2.39-18.12,6.1-4.25,3-9.94,5.09-11.59,11l.12-.17-1.88,3.86c-2.82-1-5.07.45-7.36,2.78-4.41,4.47-9.52,8.16-12.44,14.08-1.33,2.71-4.32,4.54-6.1,7.09-5.15,7.44-10.47,14.76-14.18,23.12-2.08,4.69-5.33,8.86-7.34,13.57-3.26,7.67-6.14,15.51-8.8,23.41s-4.91,16.07-7.28,24.13a38,38,0,0,0-.67,4.68c11.64-2.71,20.73-10.33,32.14-13.34.66,3.85-2.1,4.63-4.09,5.57-4.91,2.34-10,4.41-15,6.55-3.75,1.6-7.69,2.85-11.25,4.8-1.8,1-3.79,3-4.21,4.85-.81,3.64-.45,7.53-.81,11.3a91.91,91.91,0,0,1-1.6,10.73c-.23,1.05-1.67,1.83-2.56,2.73a36,36,0,0,1-2.61-3.33,2.52,2.52,0,0,1-.13-2c3.53-7.7,1.31-16.28,4.08-24.24l-5.61-4.18a31.07,31.07,0,0,0,3-1c1-.47,2.72-.88,2.91-1.63,1.72-6.5,3.16-13.08,4.68-19.65l-5.1-1c1.39-3.93,2.69-7.63,4.26-12.06l4.07,3,3.81-8.78-3.9-4.59c8-4.39,11.09-12,13.73-19.8.38-1.14-.56-2.85-1.16-4.17-1.61-3.51.71-8.14,4.34-7.6,4.85.73,6.36-2.55,8.14-5.58s3.19-6.38,4.9-9.86c-.56-1.33-2.43-3.57-2-5,1.78-5.31,7-2.53,10.09-4.44,2.87-2.38,5.84-4.64,8.56-7.17,4.06-3.76,8.79-7,10-13,.18-.27.35-.54.5-.82,5-.11,7.9-4.23,12.09-6l-1.94-3.37c-3.35.29-3.31,5.92-7.4,3.59Zm28.94-29c5.49,5.46,7,11.42,6.66,18,3.27-1.15,6-2,8.68-3.08,4.66-1.93,7.72-6.31,5.39-11.49-1.37-3-3.07-5.9-4.31-8.25C1229.47,564.47,1225.53,568.79,1220,571.42Z"/><path class="cls-1" d="M881,613.56a60.12,60.12,0,0,1-.8,7.38c-1.95,8.49.35,17.06-.77,26.2l-5,1.3c-.46-1.13-.82-1.56-.77-1.93.31-2.39,1.05-4.78,1-7.16-.06-3-1-5.94,1.43-8.45.29-.29.65-1,.56-1.11-3.6-3.33-.17-7.78-2-11.9-5.27.31-9.47-3.23-14.41-4.69-.44-.13-1.13-.17-1.27-.46-2.88-6.18-10.16-5.74-14.64-9.74-3.59-3.2-8.36-5.07-12.82-7.65,3.7-3.62,3.45-3.27,6.29-1.25,5,3.6,10.44,6.72,15.69,10l.88-1.11a71.71,71.71,0,0,0-6.66-5.95c-2.63-1.84-5.59-3.2-6.12-6.85l-.12.16c4.07-1.68,6.38,1.25,8.8,3.53,2.66,2.5,5.28,3.26,9.5.31-7.72-4.84-14.75-9.27-21.81-13.65-3-1.89-6.19-3.61-9.2-5.55-1.31-.84-1.21-1-.19-5.41l31.63,19.61c5.47-1.74,3.88-6.4,4.45-9.87a13.27,13.27,0,0,1,3-7.13c5.21-6.34,10.26-12.63,19.08-16.18-5.55-3.93-10.22-7.45-15.1-10.65-7.1-4.66-14.33-9.12-21.54-13.61a40.4,40.4,0,0,0-4.28-2.1c-1.66-.79-4-1.1-4.89-2.41-3.35-4.84-9.13-5.91-13.42-9.27a130.8,130.8,0,0,0-13.79-9c-5.55-3.3-11.41-6.1-16.87-9.55-5.21-3.29-10.08-7.13-15.11-10.73.24-.55.47-1.1.7-1.65,1.52.31,3.23.27,4.53,1,4.94,2.72,9.89,5.47,14.56,8.61,4.93,3.32,9.87,5.6,17.08,2-1.7,3.16-2.61,4.85-3.66,6.82.8.91,1.55,2.6,2.57,2.78,5.58,1,9.47,4.75,13.9,7.74,5,3.37,10.38,6.24,15.58,9.35,3.72,2.23,7.3,4.75,11.18,6.66,3.44,1.68,7.55,2.13,9.66,5.95.08.15.42.17.64.23,1.83.45,3.29-3.45,5.13-.66.93,1.42.68,3.59,1.53,5.1a9.19,9.19,0,0,0,3.46,3.16c5.87,3.33,11.94,6.33,17.69,9.84a18.77,18.77,0,0,1,6.32,6.11c1.21,2.06,1,5,1.43,7.77-4.88.72-3.85-4.58-6.39-5.94-2.78-1.49-5.61-2.86-8.38-4.26-7.36,2.34-12.33,8.13-15.93,13.67-3.18,4.89-6.13,11.13-5.73,17.9.3,4.94,6.9,11.6,11.46,10,3.27-1.13,7.09-1.29,9.81-4.8,3.65-4.72,9-8.08,9.34-15,.16-2.82,2.37-3,6.48-.5,1.77-4.38,3.61-8.67,5.24-13s2.57-8.81,4.56-12.87c1.46-2.95,4-5.4,6.29-7.91,10.62-11.77,24.39-18.42,38.94-23.81,5.23-1.94,10.34-4.23,15.53-6.29a28.13,28.13,0,0,1,3.71-.88c1.57,6,3.07,11.71,4.58,17.49-4.12.38-4.12.38-8-3.26L954,539.07c-.42.18-1.07.33-1.19.65-2,5.6-7.52,4.93-11.69,6.7-2.5,1.07-4.73,2.73-7.13,4.05-2,1.13-4.16,2.16-7.47,3.86,1.63-6.28,5.53-8.18,9.08-10.34,9.83-6,20.36-10.39,31.18-14.21,3.2-1.14,6.25-2.74,9.38-4.13-.91-4.41-4-4.54-6.15-2.78-3.81,3.11-8.9,1.66-12.77,4.77-3.49,2.8-8.24,4-12.12,6.38-9.81,6.09-20.54,11.59-25.83,22.43-3.08,6.3-8.46,11.85-8.16,19.67a11.94,11.94,0,0,1-1.22,4.61c-1.34,3.35-3.46,5.54-8.26,3.5l3.73,6.26-8,9.36c-.37-2.81-.56-4.33-.8-6.13.24.08-.23-.26-.48-.14-1.81.89-3.22,1.77-4,4.16-1.78,5.74-7.7,8.54-13.63,8.72-6.43.2-10.87-2.36-14.47-7.25a13.71,13.71,0,0,0-1.92-1.81c-3.84,3.2-4.1,5.7-1,8.57a70.73,70.73,0,0,0,7.43,6.56c1.3.9,3.38.73,5.12.86,2.44.18,4.89.2,7.34.29Z"/><path class="cls-1" d="M1199.39,762.05c-3.09-3.6-6.56-6.95-9.19-10.86-5.2-7.74-9.9-15.8-14.88-23.69a34.1,34.1,0,0,0-3.06-3.66,10.69,10.69,0,0,1-3-7.92c.12-3.18,1.21-4.33,3.8-5.37,10.87-4.35,21.87-8.43,32.39-13.52a87,87,0,0,1,11-4.68c3.18-1.05,5.6.15,7.46,2,7,7.1,13.61,14.64,20.71,21.66s14.13,14,22.58,19.46c2.19,1.41,3.61,1.1,4.49-.52-3.18-2.49-7-4.22-8.65-7.16-1.35-2.34-.16-6.15-.08-9.93l-4.86,3c-4.1-6.94-8-13.47-11.83-20l5-3c-7.17,1.08-8.41.17-11-5.17a111.5,111.5,0,0,0-6.92-11.39c-4.64-7-9.57-13.85-14.06-21-5.67-9-10.93-18.25-16.59-27.25a25.32,25.32,0,0,0-5.9-6.4c-2.88-2.19-2.87-5-1.35-7.23,1.74-2.59.41-4.29-.42-6.33l-.13.18c3.7-.66,5.88.47,7.91,4.09s4,7.09,6.24,11.17l-4,2.7c.58,1.11,1.18,2.29,1.84,3.56l5.86-1.74-.09-.09c4.56,6.94,7.87,14.74,14,20.61.44.42.49,1.25.73,1.89,3,8.13,9.35,14,14,21.09,5,7.72,9.57,15.76,14.56,23.51,4.41,6.85,9.15,13.49,13.75,20.21,2.14,3.12,4.46,6.13,6.42,9.35,1.82,3,1.68,5.77-2.57,7.19,1.2,2,2,3.27,3.07,5l4.52-2.89c4,1.69,3,5,2.49,8.11-.25.44-.5.89-.76,1.33-2.21,1.61-4.07,2.3-6.41-.3-1.75-1.94-4.41-3.09-6.73-4.48-5-3-9.18-7.26-14.74-9.2-4.44-1.54-5.56-5.72-7.89-9.1-4-.24-8.77,1.08-10.92-3.62-.61-1.33.58-3.47,1.17-6.26-4.62-4.6-10-10-15.34-15.3-3.1-3.06-6.34-4.44-10-.66-.49.52-1.62.42-3,.73,2.74,2.63,7.14,3.14,7.46,7.42,3.94-2,5.77,2,8.61,3.17.89.35,1.26,2,1.87,3.07l.12-.14c-2.3,1.48-4.13,1.17-6-1s-4.24-2.3-6.73.43c1.92,2,4.06,3.66,5.44,5.81a23.12,23.12,0,0,1,3.06,7.53c.47,2.23,3.23,5.15-1.3,7.12-2.52-4.71-6.08-8.89-5.73-14.82l-3.36-1.62c-1.1-3.07-1.78-4.93-2.43-6.8s-1.26-3.72-1.83-5.4c-6.63-4.67-11,2.06-16.5,3.42-2.17.53-4.22,2.19-6.33,2.2-5.44,0-9,2.79-12.13,6.8l3.94,8.24c2.32-.62,4.67-2.05,6-1.4s1.86,3.36,2.9,5.51l-3.5,2.56c.82,5.39,6,1.59,8.81,4.27l-4.22,3.54c1.37,2.26,2.34,5.09,4.29,6.83,4.68,4.16,6.26,9.67,7.92,15.27Z"/><path class="cls-1" d="M841.62,590.24c-3.89,3.5-5.61-1.74-8.55-2.19-.66-.1-1.17-1.26-1.74-1.93-2.91.14-3,5.34-6.72,3.41-.77,2-2.22,4-2.2,6,.06,6,.58,12,.5,17.88s-.3,12,0,18c.27,5.53-.51,11.1-.53,16.66,0,11.44.13,22.89.18,34.33,0,5.83-.12,11.67-.06,17.5,0,4.37.37,8.75.42,13.12.07,6.69,0,13.38,0,21-8.53-2.6-10.57-11.7-17.38-14.87,2-6.4,3.52-8.6,8.09-11.36,0,3.13-.17,5.68.05,8.2.23,2.73.84,5.42,1.39,8.82,2.37,1,3.89-1.34,3.31-3.55-1.6-6.08,1.59-12-.57-18.28-1.32-3.82,0-8.55.09-12.87A58.4,58.4,0,0,0,818,682c-.3-2.6-2.13-5.19.84-7.41.25-.19.23-.88.19-1.31-.63-6.44-1.33-12.86-1.88-19.3a13.68,13.68,0,0,1,.47-4c.31-1.32,1.45-2.72,1.19-3.85-1.16-5.09-.12-10.15-.29-15.21-.27-8.3-2.23-16.55-.07-24.94.68-2.65-.15-5.7-.33-8.57-.39-6.17,1.25-12.63-2.8-18.52l-4.11.56a21.87,21.87,0,0,1-.7-3.26c-.3-4.37-1.93-7.16-6.26-9.47-3.48-1.86-9-3-9.12-9.09,0-.84-2.51-2.47-3.69-2.32-3.12.39-6.34-.45-9.42,1-4.15,1.89-7.82.91-12-1.24-4.65-2.43-7.15-6.46-10.39-10l.15.16c-2.31-5.66-6.44-8.57-12.61-8.44l.16.14c-.33-3.74-3-5.24-6-6.69-3.68-1.81-7.3-3.77-10.81-5.89-2.27-1.37-2.16-1.55-2.13-6.4,2.43,1.34,4.6,2.34,6.57,3.65,6.52,4.32,12.85,9,19.53,13,1.91,1.15,4.79.71,7.71,1.06-1.7-2.63-9.66-9.11-12-9.7s-4.35-1.44-4.14-4.41l-.13.13c1.94-1.58,3.66-2.25,6.07-.33s5.12,2.87,7.72,4.27c1,.54,2.49.86,2.87,1.69,2.81,6.11,9.46,8.21,13.47,13.09,1.3,1.58,3.71,2.23,5.51,3.45,1.54,1.05,3,2.3,4.76,3.75-8.54,3.69-15.64,1-20.58-9.89a6.22,6.22,0,0,0,1,8.05c4.64,3.54,9.54,7.31,16.11,6.37.9-.13,2.1.13,2.66-.36,2.94-2.58,5.55-3.46,8.81-.24,2.29,2.27,6.39,2.72,6,7.46-.1,1.32,2,2.81,3.4,4.63l3.14-4.46a5.7,5.7,0,0,1,1.55.46c2.69,1.91-2.4,5.21,1.37,7.18,2,1,3.52,2.85,5.69,4.68l2.15-4c1.48,0,3.06.11,4.61,0,2.19-.2,3.92.57,3.77,2.79-.07,1-1.91,1.88-3,2.74a9.61,9.61,0,0,1-1.68.87v7.63l1.31.31c.41-.8.83-1.59,1.56-3,7.13,1.84,12.54,6.27,17.32,11.71Z"/><path class="cls-1" d="M1152.29,904.48c-4.91.5-4.23-2.84-4.13-6.19h3.64c-.5-6.39-1-7-5.67-8.42-1.46-3.94-2.38-7.77-4.22-11.11-3.89-7.08-7.56-14.18-9.44-22.13-.34-1.48-1.7-2.8-3.65-1-.46.42-2.41.14-2.56-.25-.35-.91-.38-2.82.08-3,3.87-1.86,2.7-4.18,1.63-7.36-2.15-6.39-3.51-13-5.18-19.54l-4.08,1c-.2-1.2-.4-2.41-.61-3.62-.31-1.73-.64-3.47-1-5.72l5.51-.25c-.7-3.62-1.69-7.07-2-10.57s-.82-7.64.56-10.66c1.65-3.59-4.69-6.57.77-9.69.6.83,1.77,1.86,2.18,3.13a25.72,25.72,0,0,1,.69,5.44c.47,5.31-.1,10.5,2.43,15.86,2.32,4.9,1.74,11.08,3,16.55,1.77,7.47,4,14.81,6.22,22.17,1.09,3.72,2.4,7.37,3.67,11a49.72,49.72,0,0,0,2.25,5.73c4.72,9.53,9.89,18.8,15.32,28,3.7,6.24,8.52,11.34,13.25,16.74,7.48,8.56,15.22,16.66,24.29,23.4a156.8,156.8,0,0,0,19.63,12.68,77.87,77.87,0,0,0,22.39,8.31c3.78.69,9.08,1.89,10.73,7.1l-.75.9-6.87-1.41-5,7.88-8-1.86,2.09-6.52,6.17,1c.07-.31.14-.63.22-.94l-14.83-5.41-3.23,6.82-1.18,0c-.29-1.3-.91-2.61-.83-3.88.21-3.33-1.73-5-4.28-6.41s-4.85-2.79-7.73-4.47c-1.24.76-2.89,1.75-4.51,2.79-2.59,1.66-5.91.94-6.82-.94-1.88-3.85-5.68-4.81-8.45-7.2-2.21-1.9-3.56-3.43-2.08-6.31,1.24-2.41.38-4.18-1.51-6-4.53-4.47-8.83-9.18-13.16-13.84-1.34-1.43-2.39-3.14-3.78-4.51-3-2.95-6.08-5.77-9.24-8.53-.15-.13-1.31.88-2,1.35Zm34.44,30.39c-.94,5.5,4.32,10.62,12.21,12.56C1196.57,941.55,1191.43,939,1186.73,934.87Z"/><path class="cls-1" d="M1410.5,895c-1.22,1.26-3.18,2.35-3.53,3.82-1,4.26-4.13,6.88-6.57,10.08-2.71,3.55-4.48,8-7.69,10.94-3.76,3.43-5.84,8.4-10.73,10.83-2.76,1.36-5.13,3.72-7.32,6a110.37,110.37,0,0,1-23.26,17.76c-5,3-9.87,6.28-14.93,9.19-3.47,2-7.19,3.54-10.88,5.33,0,.63-.17,1.47.15,1.94,4.22,6,8.55,12,12.76,18,4,5.75,7.81,11.65,11.9,17.34,1.89,2.63.62,4.17-1.84,6.44l-26.67-41.58-36.88,7.6c.2-6.28.28-5.77,5.08-6.54a138.48,138.48,0,0,0,20.43-4.72,184.74,184.74,0,0,0,22.82-9c5.21-2.47,9.79-6.23,14.74-9.28,2.31-1.42,4.81-2.55,7.26-3.75.77-.38,2-.29,2.43-.86,5.75-7.07,14.36-11,19.85-18.49,4.72-6.46,10.61-12.06,15.88-18.13,3-3.43,3-6,.61-10,3.18-5,6.3-10,9.53-15,2.37-3.63,3.31-3.8,6.71-1.5-1.5,3.09-6.72,3.8-5.67,8.68,8.24-1.92,7.3-11.63,13.47-15.37-.62-1.37-1.17-2.58-1.71-3.79l4.32-9.54c.72-.51,1.8-.86,2.09-1.55,3.76-9,8.47-17.66,9-27.72.19-3.8,3.06-4.42,6.4-5,.14,1.42.63,2.66.29,3.6-3.51,9.69-6.79,19.5-10.86,29s-7.78,19-13.74,27.5c-1.62,2.31-2.37,5.22-3.52,7.86Z"/><path class="cls-1" d="M1344.58,1326.15l-5.17-3.8c9.45-2.8,12.64-11.36,19.1-16.45.81-.64,1.12-2,1.55-3,2.44-5.93,7.41-9.9,11.16-14.81a90.4,90.4,0,0,0,10.47-17.42c3.64-8.08,6.42-16.56,9.24-25a139.64,139.64,0,0,0,4.8-17.8c.66-3.46,0-7.17-.07-10.77-.07-7.33.06-14.67-.2-22-.25-7-1.08-14-1.26-20.95-.07-2.37,1-4.76,1.81-7.92-1.18-1.85-6.65-3.63-1.5-8l5.72,2.53c.52,5.82.52,5.82,6.15,7.93-6.86,2-5.27,7.28-5.17,11.69.12,5.18.44,10.26.09,15.52-.32,4.74.47,9.85.38,14.89-.23,11.66.2,23.33.13,35,0,3-.29,5.92.48,9,.47,1.91-1.27,4.38-2.07,6.74-7.31-2.29-3-7.61-5-11.32a25.29,25.29,0,0,1-.85,3.92c-4.48,11.59-6.84,23.79-15.42,33.93s-16.17,21.07-24.4,31.51c-1.11,1.41-1.78,3.18-3,4.51-1.88,2.13-4.13,3.59-7.12,1.91Z"/><path class="cls-1" d="M1417.15,1345.11c-.49,8.76-1,16.94-1.38,25.12-.18,3.59-.3,7.18-.26,10.78.08,5.87.48,11.74.42,17.61a88.76,88.76,0,0,1-1.09,12.17c-.14.89-1.67,1.57-2.58,2.37-.71-.75-1.31-1.12-1.27-1.4,1-7.37-.42-14.94,1.79-22.21a6.25,6.25,0,0,0,.47-2.65c-1.93-11.36-1.31-22.74-.47-34.13.34-4.69-1.44-6.87-7.63-9.45v69.21l4,2c-3.24,3.41-6.57,3.77-9.73,2-7.92-4.5-15.64-9.34-23.4-14.1-.49-.3-.68-1.08-1-1.71,2.55-3,3.56-.26,5.31.91,2,1.34,4.62,1.68,6.78,2.81,2,1,3.69,2.62,5.6,3.84s3.9,2.27,6.53,3.79c.4-4.45,1-8.11.73-12.25-.75-11.62-1.29-23.38-.29-34.94.63-7.24-.17-14.28.09-21.39.13-3.59-1-6.18-4.83-8.09l6-6.91c7.45,12.87,10.75,14.08,22.39,8,0-9.58,0-19.62,0-29.67,0-9.61,0-19.21.91-28.81,4.34,3.24,2.37,7.42,2.53,11.13.34,7.42.38,14.85.37,22.27,0,5.83-.34,11.66-.47,17.49-.06,2.67,0,5.35,0,8.88Z"/><path class="cls-1" d="M905.58,602.44l-10.74,7.74c-1.94-2.2-1.42-4,.32-5,10.15-5.93,13.22-17,18.64-26.2,1.74-3,1.28-7.41,3.86-10.41,2.6.11,3.55,1.51,2.88,3.68-1.57,5.1-3,10.16-6,14.83A22.16,22.16,0,0,0,911,599.21c.2,5.11-1.48,10.44.86,15.48.32.67-.35,1.74-.38,2.63-.25,7.63-1.37,15.37-.44,22.85.9,7.15-2.32,14.46,1.21,21.36a1.26,1.26,0,0,1,0,.67c-2.12,13.14.2,26.34-.53,39.5-.51,8.92-.69,17.88-.53,26.81.06,3,1.6,6.08,2.61,9.66a31.47,31.47,0,0,0-4.18.76c-1.27.41-2.87.85-3.56,1.82-2.34,3.31-5,6.64-6.34,10.38-2.16,5.9-5.52,11.41-5.94,18-.16,2.57-1.5,5.07-2.59,8.49-4.36-5.09-2.3-9.69-1.12-13.62,3.15-10.51,8.67-19.91,14.51-29.2,2.25-3.56,4.37-8,2-13-.81-1.73.46-4.34.46-6.55,0-5.65-.47-11.24-.09-17a91.54,91.54,0,0,0-.5-14.4c-.9-9.15.43-18.15.19-27.22-.36-13.86.29-27.75.26-41.62C906.93,610.91,906.08,606.82,905.58,602.44Z"/><path class="cls-1" d="M1200.32,477.59c-5.9,7.33-7.83,16.64-15.8,22-3.47-2.23-2.18-5.15-.2-6.26,4.94-2.78,4.71-8.65,8.13-12.29.69-.74-.63-3.37-1-5.12l-1.71-.28c-1.37,2.18-2.78,4.33-4.11,6.54-3,5-7.16,9.17-9.9,14.51-5.86,11.42-12.24,22.55-16.31,34.81-.4,1.21-1.89,2.06-3.26,3.48-2.85-5.69.59-9.44,2.72-14.59l-15.09,1.1-7.64-12.54c-11.27,1.33-22.44,5.35-34.07,3.75l-.48-1.64c1.64-.68,3.23-1.71,4.94-2,7.86-1.23,15.76-2.25,23.65-3.33,4.45-.6,9.11-.57,13.32-1.93a39.45,39.45,0,0,0,11-6.17,62.63,62.63,0,0,0,18.71-23c2.42-4.91,5.52-6.7,10.89-5.75C1190,469.94,1195.21,472.63,1200.32,477.59ZM1184,473.86l-2.21-1.5c-7.82,6.18-10.71,15.72-15.34,24.44-1.23-.17-2.86-.94-3.75-.43a77.56,77.56,0,0,0-8.28,5.82c-3.31,2.57-6.26,5.83-11.93,4.25l4.15,9.24c1.49.1,2.69.46,3.75.22,5.41-1.22,11.81-1.21,13.94-7.77,2.65-8.18,9.21-13.94,12.59-21.65C1178.85,482.08,1181.62,478.06,1184,473.86Z"/><path class="cls-1" d="M533,1263c.3,4.56.62,9.11.81,13.66,0,.33-1,.7-2.11,1.37-.8-1.43-2-2.66-2.14-4-1-10.62-1.68-21.26-2.49-31.9-1.62-21.21-1.3-42.43-.21-63.64A55.47,55.47,0,0,1,530,1163l1.41,0c.46,1.11,1.43,2.29,1.29,3.32-1.24,9.22-3,18.37-3.92,27.61-.5,4.91.46,10,.58,14.94.09,3.8-.12,7.6-.15,11.41a64.34,64.34,0,0,0,5.27,25.76c3.37,8.13,7.29,16.07,9.85,24.59,1.88,6.24,5.41,11.83,9.5,17,6.42,8.13,14.63,14.83,19.53,24.21a3.82,3.82,0,0,0,2,1.63c2,.68,3.31,2,2.58,4-.4,1.15-1.75,2.83-2.61,2.8a7.06,7.06,0,0,1-4.63-2c-3.56-4.13-6.71-8.61-10.13-12.85-1.38-1.71-3.16-3.07-4.59-4.74a67.21,67.21,0,0,1-4.54-6c-.88-1.3-1.09-3.44-2.24-4.12-4.67-2.77-5.58-7.89-7.85-12-2.38-4.38-3.87-9.26-5.73-13.92-.4-1-.7-2-1.06-3.08C534,1262.1,533.48,1262.56,533,1263Z"/><path class="cls-1" d="M945.91,775.81c3.72,1.27,4.52,3.88,4.54,6.91,0,5.2,0,10.39-.05,15.59,0,2.05,0,4.09,0,6.69l6.34-.63c1.13-6.67,2.13-13.37,3.47-20a33.65,33.65,0,0,1,3-9.57c2.37-4.28,1.7-10.06,6.47-13.1.86-8,7.37-12.71,11.18-19,1-1.65,2.8-2.82,4.75-4.7,2.11,4.89-.92,7.51-2.83,10.18-2.5,3.5-5.48,6.65-8.24,10a3,3,0,0,0-.68,1.19c-2.28,10.39-9.9,19-9.85,30.19,0,3.94,0,7.89,0,12.61l5.24,2.1c.45,2.67-.84,3.57-3,3.62-2.75.07-5.51,0-8.26,0-2.15,0-4.12.38-4.9,3.34,8,.85,16.35-1.3,23.74,3-22.32,3.59-44.29,0-66.35-2.7-.59-3,1.42-2.51,3.31-2.6,9.41-.4,18.77-.2,28,1.79.6.13,1.32-.33,3-.79C945.18,799.06,945.53,787.84,945.91,775.81Z"/><path class="cls-1" d="M1090.43,783.45c-4.17,1.45-6.6,2.23-9,3.16-1,.38-2.31.84-2.76,1.65-2.07,3.81-5.89,5.09-9.43,6.43-7.74,2.93-14.87,7.4-23.15,9-5.93,1.16-11.76,2.82-17.67,4.14-7.6,1.7-15.46,1.9-22.73,5.58-2.28,1.15-6.34-1-9.51-1.93a52.47,52.47,0,0,1-6.2-2.74c-1.15,2.84-2,4.88-3,7.56l-7.1-2.19,4.66-3.28c.77-4.56-7.57.5-5.64-5.74,4.25,0,8.47-.12,12.68,0,3.14.13,6.26.73,9.4.92,2.35.15,4.92,1.64,7-.9a2.38,2.38,0,0,1,1.88-.75c9.89,1.77,18.47-4,27.95-4.92,6-.61,11.84-3.82,17.75-5.87a69.88,69.88,0,0,0,7-2.46c8.26-3.85,15.73-8.71,21.67-15.86,2.27-2.73,5.52-4.36,7.21-8,1.91-4.15,4.53-7.79,3.66-12.77-.16-.94,1.57-2.21,2.42-3.33.81,1.16,2.43,2.41,2.31,3.46-.93,8.12-3.11,15.68-10.17,21C1087.37,777.34,1085.76,779.77,1090.43,783.45Z"/><path class="cls-1" d="M1385.94,1098.85l5.23-1.17c.35,3.08,1.2,5.79.84,8.34-.93,6.72.26,13.14,1.77,19.59a7.13,7.13,0,0,1,.14,4c-2.22,5.41,1.42,10,.79,15.13h1.65l.73-3.86c4-.61,5.38,1.94,4.35,4.79-.92,2.58-1.22,4.47-.17,7,1.13,2.77-.4,4.17-3.43,3.68-2-.33-4-.79-5.59-1.11-1.31-10.15-2.5-20.35-4-30.5-.62-4.2-2.19-8.27-2.81-12.48-.32-2.19.5-4.55.88-7.4-3.76-.28-5-3.46-6.35-7.27-4.29-12.16-9.92-23.89-13.43-36.24-2.62-9.18-5.93-18-9.3-26.88-1.78-4.69-4.25-9.12-6-13.8-.61-1.62-.1-3.66-.1-6.09,6.06,2.35,5.85,7.63,7.25,11.56,1.06,3,1.68,5.95,3.93,8.36a8.11,8.11,0,0,1,1.26,3c.77,2.34,1.44,4.72,2.21,7.06s1.58,4.7,2.45,7c1,2.68,2.25,5.27,3.13,8s1.48,5.58,2.17,8.39c.16.66,0,1.51.31,2,5.72,8.65,7.08,19,11.44,28.24C1385.34,1098.36,1385.57,1098.49,1385.94,1098.85Z"/><path class="cls-1" d="M805.4,728.79c.72,1.48,1.77,2.89,2.08,4.45.72,3.59,1.09,7.24,1.56,10.87a3.71,3.71,0,0,1-.09,2c-.77,1.53-2.55,3-2.51,4.44.25,7.87-.05,16,1.76,23.51,1.49,6.2,5.47,11.87,8.76,17.53,1.19,2.06,1.91,3.36,1.44,6.06-.73,4.19.28,8.66.34,13,.06,4.82-.18,9.64-.21,14.46,0,4.14.19,8.29.11,12.43a36.93,36.93,0,0,1-.82,8.22c-.25,1-2.19,1.55-3.59,2.45-.39-13.73-.77-26.61-1.15-39.67-3.43-1-5.93-.34-8.85,1-7.87,3.51-14.8,8.71-23.33,11.19-6.77,2-12.86,6.29-19.23,9.58-1.92,1-3.37,3.4-6.08,1.92,2.07-4.28,4.11-5.33,18.07-11.25,6.84-2.91,13.3-6.74,20.07-9.84s13.77-5.87,21.6-9.17c-1.34-4.06-2.1-8.64-4.24-12.45-6.8-12.12-8.82-25.11-8.4-38.71.21-6.53.37-13.07.61-19.6a6.89,6.89,0,0,1,.63-1.89Z"/><path class="cls-1" d="M1163.19,615.44c.66-1.4,1-3.09,2-4.14,3.25-3.35,6.68-6.54,10.16-9.65,3.71-3.29,3.86-4.15,1.24-7.74-3.64-5-7.8-9.74-10.53-15.19-2.33-4.65-5.21-8.8-7.78-13.18-3.93-6.7-6.4-14.45-5.22-22.66.1-.69.06-1.61.48-2a5,5,0,0,1,2.71-1.28c.42,0,1,1.21,1.37,2a1.71,1.71,0,0,1,0,1.35c-2.22,4.5-.56,8.42,1.95,12.44.61-2.6.86-5.2,1.85-7.47s1.54-5.7,6.1-3.39c-3,4-1.81,7.8-.85,12.07,1.75,7.78,5.9,14.18,10.36,21.15l-5.47.85c-.13.2-.36.44-.32.51,3.24,4.82,6.5,9.63,9.89,14.65.76-2.87-1.08-4.61-2.48-6.6a17.09,17.09,0,0,1-2.64-5.19c-.16-.58,1.47-1.66,2.72-3l5.64,11.71,9.38-1.25-.15-.15c.21,2.43-.28,4.34-2.79,5.59a27.55,27.55,0,0,0-6.6,4.35c-5.58,5.18-10.88,10.68-16.46,15.86-.87.8-2.68.59-4,.84Z"/><path class="cls-1" d="M764.42,477.94c-6.57.66-13.92.15-18.56,5.49-3.91,4.5-10.37,8.07-8.49,15.82l-4.61,1.08c-.27-.81-.84-1.61-.63-2a144.44,144.44,0,0,1,7.15-13.12c4.26-6.48,11.27-9.34,18.27-11.12,3.06-.78,7,1.36,10.37,2.56,1.86.66,3.44,2.12,5.57,3.5,1.2-2,2.66-3.57,3.18-5.41,2.73-9.65,10.32-15.35,17.47-21.2,4.18-3.43,9.21-5.88,14.05-8.41,6.83-3.56,13.83-6.79,21.11-10.33-.16-1.63-.31-3.13-.46-4.64-.51-5.11,1.61-8.46,6.14-10.17,5.08-1.91,10.1-4,15.15-6,2.33-.93,4.68-2,7,1.44-5.31.91-8.65,5.34-14.29,5.6-5.16.24-8.55,3.87-10.83,9.17l2.52,4.74c-.28.61-.39,1.5-.87,1.79-2.3,1.37-4.66,2.69-7.09,3.84-6.37,3-13,5.55-19.13,9-9.14,5.23-18.58,10.3-24,20.11-2.67,4.85-6.44,9.33-4,15.89C771.76,487.58,769.7,480.31,764.42,477.94Z"/><path class="cls-1" d="M1326.87,681.66c1.34,1.7,3.12,3.22,4,5.15,3.61,8.3,6.94,16.73,10.39,25.1,1.21,2.93,2.45,5.85,3.68,8.78q9.45,22.45,18.92,44.93c3.61,8.62,7.08,17.31,10.73,25.92,4.81,11.35,9.79,22.63,14.55,34a58.9,58.9,0,0,1,2.12,7.77l-1.15.88c-.93-.87-2.27-1.56-2.74-2.63q-5-11.5-9.72-23.15c-3-7.55-5.66-15.27-8.88-22.74-3.31-7.66-7.17-15.08-10.7-22.64a29.74,29.74,0,0,1-2.32-6.4c-2-9.66-7.58-17.85-10.93-27-2.16-5.92-5-11.56-7.53-17.37-3.15-7.42-6.3-14.84-9.25-22.34a56.34,56.34,0,0,1-1.89-7.71Z"/><path class="cls-1" d="M1229.27,809.67c-2.81-6.21-5.43-12.55-9.91-17.78l-1.38.65,4,8.88c-.28.3-.57.59-.85.88-.89-.88-2.08-1.61-2.63-2.67-2.88-5.58-5.39-11.35-8.44-16.83s-6.75-10.75-9.93-16.24c-.72-1.22-.5-3-.71-4.51l-.14.14c1.34.54,3.18.72,3.9,1.72a71.64,71.64,0,0,1,4.5,8.09l4.6-1.83c.84,1.63,1.7,3.3,2.69,5.24l-5,1.91c1.74,3.15,3.13,6.43,5.21,9.19,2.53,3.36,4.46-1.94,7.35-.84,2.85,6,5.59,12.4,8.83,18.51,3.38,6.35,7.24,12.45,10.9,18.66.24.39.7.69.81,1.1,1.21,4.66,2.81,9.27,3.42,14a75.91,75.91,0,0,1,.37,15.37c-.26,3.55,1.17,5.28,4.69,6.11l1,2-5.64,2.68c2.25,4.51,2.72,8.7-.85,12.74-.83-.65-1.81-1.1-1.77-1.44.87-8.12-2.57-16-1.08-24.24.37-2-.86-4.34-1.19-6.55-1.27-8.38-.46-17.25-5.93-24.64-2.25-3-4.37-6.17-6.55-9.26A2.07,2.07,0,0,0,1229.27,809.67Z"/><path class="cls-1" d="M1271.09,906c.89-.21,2.2-.9,2.6-.55,4.32,3.74,9.32,7.09,12.45,11.69,2.55,3.74,4.09,7.41,10.32,6.33l-2,3.44c4.2,5.72,8.15,11.66,12.73,17.06,2.43,2.87,6,4.81,9.28,7.39,11.56-8.57,26.29-11.56,36.52-22.42l1.28,1.06c-.43,1.26-.48,3-1.35,3.7-6,4.64-11,10.36-18.69,12.82-6.19,2-11.88,5.52-17.78,8.39a23.38,23.38,0,0,0-2.17,1.36c1.2,1.85,2,3.06,3.19,5-3.93,1.41-7.26,2.83-10.72,3.79s-3.92-1.19-3.56-4.32l8.36-2.82c-1.29-2.6-1.9-5-3.39-6.59-7.92-8.42-14.52-17.83-21.16-27.22-4.52-1.43-5.83-6.43-10-8.7-2.81-1.53-3.89-6.22-5.74-9.49Z"/><path class="cls-1" d="M1271.35,547.61c-4.75-1.08-5-5.69-6.4-9-1.63-4-2.64-8-4.93-11.85-2.48-4.15-3.57-9.12-5.44-13.66-1.72-4.16-3.7-8.21-5.49-12.33-1.61-3.69-3.18-7.39-4.67-11.13-4.37-11-8.09-22.26-13.26-32.84-3.1-6.34-4.77-13.5-9.59-19a28.81,28.81,0,0,0-3.26-3c-3-2.53-7.29-2.79-9.61-7.31-1.69-3.27-6.88-4.77-10.55-7-2.83-1.7-5.76-3.22-8.57-4.94-.26-.17.05-1.27.1-1.94l-.12.13c1.71.13,3.78-.31,5.09.49,7.62,4.62,14.87,9.89,22.64,14.22,5.38,3,8.2,8,10.6,12.78,5.63,11.35,10.37,23.14,15.27,34.84,3.66,8.74,6.89,17.66,10.53,26.4,5.49,13.19,11,26.39,16.94,39.38a9.46,9.46,0,0,1,.59,5.79Z"/><path class="cls-1" d="M588.22,991.51c.41,7-4.42,11.9-8.06,16.73a37.44,37.44,0,0,0-7.14,14.92,96.23,96.23,0,0,1-6.18,18.48c-1.76,3.91-3.53,7.61-4.38,11.9-.64,3.24-2.69,6.2-4.09,9.29-.45,1-.89,2-1.24,3-3,8.86-5.87,17.75-8.91,26.59-4,11.72-9.76,22.88-11.55,35.35A8,8,0,0,1,534,1132a28.84,28.84,0,0,1,1.36-15.17c3.2-9.36,6.41-18.72,9.79-28,2.65-7.31,5.65-14.49,8.31-21.8,3.62-10,6.55-20.21,10.74-29.91,3-7,4.15-14.57,8.2-21.33,2.49-4.14,4.34-8.84,7.15-13,2.42-3.53,4.5-7.29,6.85-10.87.25-.37,1.31-.2,2-.28Z"/><path class="cls-1" d="M992.6,558.8c.51-6.12-2.1-8.38-6.07-10.11-2.11-.91-3.76-3.18-5.28-5.11-2.06-2.63-2.51-5.36,1.37-7.88l5.67,9.38c2.5.43,4.5-4.21,6.94.41,1.09,2,4.88,1.16,7.52-.41a81.89,81.89,0,0,1,20.52-8.42c5.38-1.46,10.37-4.35,15.6-6.43,5.5-2.19,11.08-4.18,16.63-6.24,6.11-2.28,12.28-4.42,18.33-6.86,1.92-.78,3.6-1.5,4.6.75s-.57,3.32-2.54,3.93c-7.3,2.28-14.67,4.37-21.88,6.9-6.32,2.21-12.45,4.94-18.69,7.4-4.2,1.65-8.45,3.18-12.63,4.88-1.89.77-3.65,1.86-5.49,2.75a71.2,71.2,0,0,1-6.82,3.16C1000,550.59,1000,550.54,992.6,558.8Z"/><path class="cls-1" d="M1271.23,905.84,1259.59,903c-.56-1.69-.63-4.2-1.92-5.43-8.82-8.35-17.72-16.63-27-24.51-3.6-3.07-7.67-5.44-10.41-9.55-1-1.51-3.34-2.19-5.17-3.06s-3.85-1.7-3.35-4.4l-.13.13c4.08-1.44,6.2,1.7,8.73,3.79,3.35,2.77,6.54,5.74,10,8.42,1.33,1,3.1,1.5,5.54,2.63-.44-6.74-.81-12.59-1.2-18.45s-.56-11.88-1.31-17.76c-.71-5.54-2-11-2.44-16.63,5.08,5.55,5.68,12.39,6,19.28.13,2.52-.29,5.11.18,7.54a105.33,105.33,0,0,1,1.47,24.24c-.24,6.18,2.21,8.53,9.26,9.36,2.88,7.38,8,12.63,15.37,16.27a13.75,13.75,0,0,1,7.81,11.11Z"/><path class="cls-1" d="M948.93,1646.58c.21-2.72,1.61-3.11,4.08-2.93,11,.84,22-.49,33,0,8.05.37,16.21-1.42,24.32-2.32,8.79-1,17.65-1.63,26.36-3.11,9.86-1.68,19.59-4.13,29.37-6.24,3.08-.66,6.13-1.51,9.24-2,6.53-1,12.29-4,18.3-6.42,2.09-.82,3.42-.62,5,2.15-8.59,2.82-16.88,5.73-25.3,8.21-5,1.48-10.15,2.35-15.26,3.36-12.42,2.46-24.54,6.05-37.39,6.86-7.07.44-14.45-.4-21.52,2.23-3.18,1.18-7.09.39-10.67.57-6.36.32-12.73,1-19.08,1C962.67,1647.87,955.93,1647.08,948.93,1646.58Z"/><path class="cls-1" d="M1061.39,700.74c5.94-1,11.19-.22,16.2,3.83,3.85,3.12,8.74,5,11.29,9.6,1.31,2.37,3.08,4.71,3.55,7.26.7,3.88,1.86,7.07,5.79,8.42a40.09,40.09,0,0,0-.29,5.86c.25,2.38,1.36,4.75,4,4.85,2.8.12,4.41-1.81,5-4.67,1.2-6.25,2.63-12.46,3.81-18.71.55-2.91,1.95-3.84,5-3-1.21,5-2.64,9.72-3.4,14.51s.29,9.58-2.44,14.45c-2.06,3.65,1.05,9.25-2.17,14-4.17-4-1.43-8.61-3.39-13.18l-8.93,4.46c-.93-5.42-1.49-10.55-2.75-15.49-.94-3.67-2.69-7.13-4.24-10.62-1.19-2.67-2.25-5.54-4-7.77-4.52-5.63-10.63-8.62-17.76-9.71-2.38-.37-5.34-.48-5.14-4.2Z"/><path class="cls-1" d="M947.94,577.09c.86,1.74,2.34,3.43,2.49,5.23.62,7.27,2.24,14.84.87,21.79-2,10.26,1,20.33-.7,30.45-.42,2.55,1.15,5.43,1.83,8.27-.51,1.42-1.67,3.21-1.73,5-.2,5.48,0,11,.11,16.9l-4.93-.73c-.91-14.44-.44-28.43.2-42.41s-1.49-27.72-.13-41.07c-2-1.46-5,1.3-4.9-3.11l6.24-.81Z"/><path class="cls-1" d="M1039.82,501.49c2.22-3.38,4.09-5.1,7.18-6.23,5.5-2,10.47-6.06,16.07-7.14,9.6-1.86,17.12-8,26.2-10.86,7.44-2.33,14.46-6.05,21.61-9.29,4.92-2.23,9.69-4.78,14.64-6.92.84-.37,2.25.58,4.23,1.18-3.3,3-5.89,5.38-8.52,7.72-.65.58-1.4,1.48-2.12,1.49-10.1.17-18,6-26.76,9.89-10.37,4.6-21.1,8.4-31.63,12.64a39,39,0,0,0-7.28,3.64A20.51,20.51,0,0,1,1039.82,501.49Z"/><path class="cls-1" d="M1441,746.21l-3.33-1.37c4.58-5.26,5.79-12.55,2.94-18.05l4.58-2.34c.56,11.07,3.11,21.22,1.75,31.73-.44,3.39.8,7,.74,10.43a132,132,0,0,1-1.09,16.77c-1.28,8.7-.47,17.73-4,26.09-.32.78-.7,1.53-1.42,3.07-2.71-4.4-1.89-8.49-1.34-12.27,1-6.89,3.68-13.51,1.75-20.77a14,14,0,0,1,.83-8.54c1.7-3.92-.09-7.94,1.23-11.77.32-.93-.36-2.2-.59-3.31Z"/><path class="cls-1" d="M1056.87,330.28a28.58,28.58,0,0,1,4.79,1.89q48.94,30.22,97.83,60.56l-.58,1.64c-1.31-.17-2.86.07-3.89-.55-7.94-4.78-15.75-9.78-23.66-14.6s-16-9.41-23.85-14.3c-5.56-3.45-10.8-7.4-16.38-10.79-7.52-4.58-15.35-8.65-22.83-13.3-4.3-2.68-8.16-6.09-12.22-9.17C1056.35,331.2,1056.61,330.74,1056.87,330.28Z"/><path class="cls-1" d="M1222.4,736c4-.19,5.32,1.66,6.21,4.21,1.68,4.8,2.11,10.1,6.88,13.58,1.28.94,1.09,4.15,1.24,6.34.32,4.9,3.73,8.48,5.25,12.86s3.64,8.36,4.72,12.72c1.75,7.09,5.88,13.22,7.6,20.26.79,3.23,2,6.57-.72,10.74-1.35-1.84-3.5-3.5-3.28-4.72,1.11-6-3.76-9.81-4.79-15-.64-3.22-1.2-7.37-5-7.59,0-2.81.62-5.27-.12-7.19-2-5-4.51-9.81-6.84-14.68a11,11,0,0,1-.7-1.12C1229.48,756.5,1226.08,746.63,1222.4,736Z"/><path class="cls-1" d="M787.73,1607.63c7.21,2.73,14.36,5.62,21.65,8.13,6.48,2.23,13.1,4,19.66,6,.44.13,1,.06,1.33.31,9.27,7,20.83,7,31.3,10.35,5.35,1.68,11.13,2,16.71,2.94.87.15,2,0,2.54.46,2.58,2.55,5.8,2.24,9,2.53,3,.27,6.47.13,8.09,5.47-3-.55-5.13-.84-7.17-1.33-3.52-.83-7-2.08-10.53-2.65a270.52,270.52,0,0,1-44.93-11c-15-5.15-29.8-11-44.74-16.33-2.69-1-4-2.15-2.81-5Z"/><path class="cls-1" d="M1426.41,1198.45c-4.08-4.63-4.52-9.43-3.43-12.94,1-3.33.56-5.9.24-9a74.18,74.18,0,0,1-.3-14.13c1.09-11.72.49-23.4.19-35.11-.27-10.44,0-20.88.06-31.32,0-2.49-.1-5,.13-7.46.09-1,1-1.82,1.86-3.31,3.27,7.94,1.66,15.51,1.82,22.9.13,6.51-.19,13-.55,19.54-.33,5.84,1.65,11.58-.17,17.56-1,3.26-.65,7.21.08,10.64,1.65,7.72,0,15.33.06,23C1426.45,1184.88,1426.41,1190.91,1426.41,1198.45Z"/><path class="cls-1" d="M643.94,914.65c9.55-8.92,18.89-18.07,28.7-26.7s20.1-17,30.4-25.23,19.86-17.29,33.52-22.16c-.61,2-.69,4-1.34,4.2-12.42,4-21,13.54-30.87,21.21-6.42,5-12.82,10-19,15.4-8.93,7.78-17.64,15.82-26.38,23.81-3.67,3.36-7.13,7-10.84,10.26-.77.7-2.22.64-3.36.92Z"/><path class="cls-1" d="M1295.62,765c6.11,3.23,7.31,6.48,3.88,11.56,2.5,1.06,4.91-3.85,7-.3,1.33,2.29,2.15,4.87,3.4,7.21.79,1.52,2,2.82,2.91,4.26a117.09,117.09,0,0,1,6.37,10.15c.52,1-.59,2.82-1,4.27l-1.49-.05c-.75-1.14-1.49-2.29-1.91-2.92-2.48-.27-4.87.13-6.4-.84-2.93-1.84-1.69-4.83-.69-7.86-4.18-.44-7.67-1.73-7.79-6.8a6.26,6.26,0,0,0-1.49-3c-3.81-5.39-7.68-10.76-12.09-16.92l5.16-2.14Z"/><path class="cls-1" d="M818.58,500.3c3-4.14,5.27-5.54,9.44-4.14a83.51,83.51,0,0,1,24.15,12.21c5.24,3.93,11.52,6.57,15.9,11.68,2.89,3.36,5.43,7,8.72,11.32l-7.21,4.18c-.81-10.45-7.5-15.4-15.1-19.76-6.43-3.69-12.47-8.11-19-11.49-3.56-1.83-7.87-2.21-11.86-3.19C822.33,500.81,821,500.69,818.58,500.3Z"/><path class="cls-1" d="M1389.63,1052.46c-4.37-5-3.75-9.27-3.28-12.63-.4-3.8-5.89.26-4.85-4.82l4.44.45c0-3.21.23-6.36-.06-9.46-.47-5.2.27-10.28.6-15.42.62-9.6-.42-19.32-1.09-29-.36-5.1-.31-5.8,3.95-7.53.21,3.75.44,7.43.63,11.12.12,2.43.13,4.86.28,7.29a39.84,39.84,0,0,0,.71,7.44c1.25,4.72-2.72,8.69-1.26,13.65,1.31,4.47,1,9.41,1.45,14.14.52,5.6-1.92,11.16.22,16.89C1392,1046.34,1390.5,1048.87,1389.63,1052.46Z"/><path class="cls-1" d="M1131.81,462.64c-.33-2.37-.54-3.87-.6-4.33,4-1.79,7.34-3.42,10.78-4.73,5.92-2.26,12.31-3.62,17.8-6.65,5.94-3.28,13.68-3.53,17.79-10.1.36-.58,1.61-.62,2.46-.86,3.42-.93,6.84-1.83,10.81-2.9l-2.63-4.61c.56-.51,1.09-1.12,1.21-1,4.16,2.51,9,2.39,13.4,2.72.87,2.85-.07,4.1-2.23,4.59-15,3.36-27.89,11.94-42.38,16.62-6.89,2.23-13.24,6.09-19.88,9.1C1136.39,461.32,1134.27,461.82,1131.81,462.64Z"/><path class="cls-1" d="M1424.94,713.59c-6.34-15.72-9.21-32.67-16.88-48-7.74-15.47-17.19-29.69-28.16-43.84,3.17-.55,4.6.14,6.18,2.26,8.54,11.45,16.8,23.08,23.08,35.94a200.3,200.3,0,0,1,8.31,19.3c2.8,7.74,5.12,15.66,7.38,23.58,1,3.33,1.21,6.86,1.79,10.3Z"/><path class="cls-1" d="M1380.65,1332.27c2.1,3,3.37,4.64,1.11,8.17-3,4.6-4.32,10.22-6.41,15.38-.83,2-1.95,4-2.63,6.09-1.25,3.84-2.16,7.8-3.44,11.64a83.13,83.13,0,0,1-4.39,11.48c-2,4-2.16,4.57,1.21,7.3,2.16,1.76,5.73,2.19,5.88,6.76l-10.19-5.24-4.3,9.65c-2.51,0-3.92-1.06-2.65-3.72,7.8-16.46,11.43-34.43,18.69-51.08-1-5.42,3.71-8.68,5-13.25C1378.81,1334.5,1379.67,1333.71,1380.65,1332.27Z"/><path class="cls-1" d="M1373.58,893.76c1.2,2.64,2.4,5.29,4,8.84,1.05-1.65,1.4-3,2.12-3.2,7.54-2.68,10.3-9.91,13.58-15.84,2.23-4,5-7.59,7.44-11.62,2.26.68,3,2.17,1.88,4.09-2.89,5.1-5,10.7-9.31,14.92-.87.85-1,2.45-1.77,3.44q-8.46,10.62-17.1,21.08c-.49.6-1.57.71-2.56,1.12-3.2-5.1,2.48-6.77,3.37-10.12-3.81-6.26-8.27-12.27-10.21-19.63,4.62-1.39,4.53,3.3,7.11,4C1372.61,891.79,1373.1,892.77,1373.58,893.76Z"/><path class="cls-1" d="M1190.9,1583.08c.72,2.27-.58,3.52-2.36,4.36-12.69,6-25.35,12.17-38.13,18-8,3.68-16.13,7.07-24.28,10.4-6.82,2.78-13.75,5.32-20.67,7.86-.83.3-1.93-.13-2.9-.22.6-1,1-2.58,1.84-3,7.49-3.27,15-6.64,22.66-9.34,6.42-2.25,12.34-6.43,18.8-7.42,7-1.06,12-5.74,18.41-7.54,4.19-1.17,7.91-4.21,11.69-6.66s9.16-2.43,12.4-6.36c.36-.44,1.74,0,2.64,0Z"/><path class="cls-1" d="M858,786.76c5.7,1.27,12.44,5.49,14,8.51,2.24-.45,4.41-1.4,6.44-1.17,2.61.31,3.44,2.49,3.38,5.14-.07,2.92-2.1,3.61-4.11,3.52-2.2-.1-4.35-1.06-6.52-1.68-2.93-.83-5.3-2.8-9-1.93-1.81.42-4.59-3.19-6.87-5-.48-.38-.75-1.55-1.06-1.52-6.07.44-9.18-4.18-13.16-7.42a11,11,0,0,0-4.3-1.75c-2.86-.71-2.42-2.58-2.3-5.27L847.75,784c1.4,1.16,2.77,2.38,4.21,3.48C854.17,789.19,856.19,788.73,858,786.76Z"/><path class="cls-1" d="M949.51,730.17c-4.67-1-4.7-5.26-4.31-7.19,1.11-5.55-.26-11.11,1.31-16.78,1.24-4.49-.69-9.85-1.14-14.83a22.15,22.15,0,0,1-.09-5.33c.6-4,1.47-7.86-.32-12-1.57-3.68.07-5.59,4.48-7.2C952.58,672.48,949.92,722.52,949.51,730.17Z"/><path class="cls-1" d="M958.75,366.62c4.71-2.12,9.41-4.29,14.16-6.34,6.42-2.76,12.89-5.41,19.33-8.12,2.9-1.22,5.8-2.41,8.65-3.72,6.75-3.1,13.42-6.35,20.19-9.38q9.33-4.17,18.84-7.93a9,9,0,0,1,5.44.13c-5.72,5.92-13.86,6.76-20.74,10.09-7.26,3.51-14.81,6.42-22.22,9.61-7.24,3.11-14.3,6.75-21.74,9.23-7.22,2.41-13.5,7.46-21.14,8.65Z"/><path class="cls-1" d="M638,1505c-8.26-2.35-44.38-55.57-51.18-67.7,2.08-1.57,3.55-.2,4.56,1.26,7.1,10.29,13.91,20.8,21.18,31,5.81,8.12,12.11,15.89,18.23,23.79,2.35,3,4.86,6,7.15,9.06C638.39,1503,638,1504.08,638,1505Z"/><path class="cls-1" d="M982.72,518.68c.57-.07,1.46-.46,1.8-.17,5.65,4.72,10.06.62,15-1.66,3.5-1.63,6.53-4.31,10.87-4.51,2.38-.11,4.6-2.42,7-3.52,3.25-1.49,6.6-2.76,9.72-4.05,2.51,2.06,2.82,4.52.29,5.11-11.49,2.67-21.18,9.35-31.92,13.62-1.25.5-2.54.9-4.11,1.46.38,5.33.75,10.47,1.12,15.57-1.73,1.26-3.66,1.11-3.58-1,.29-7.41-2.9-13.44-6.62-19.39C982.14,519.87,982.52,519.29,982.72,518.68Z"/><path class="cls-1" d="M1396.35,1002.36c-.65-1.35-2.11-2.94-1.8-4,1.4-4.66-2.23-9.56.84-14.07.31-.46.12-1.32,0-2-1.29-9.13-2.7-18.24-3.84-27.39-.32-2.6.18-5.3.35-8.92,1-.26,2.93-1.46,4.11-.93,2.1.94.27,3,.35,4.55.41,7.86,1.57,15.69,2.28,23.54.47,5.19.71,10.4.92,15.61a58.69,58.69,0,0,1-.2,7.38c-.17,2.06-.64,4.1-1,6.16Z"/><path class="cls-1" d="M1378.79,606c-.07-1.7,1.88-3.39-1-5.08-2.13-1.25-1.88-4,.86-6.13l21.95,22.08c-4.95,1.38-2.73,8-7.94,9.85-4.71-5-9.53-10-14.19-15.21-1.65-1.83-2.54-4,.45-5.66,4.51,6.65,9.33,10.44,14.77,10.61L1384.53,606Z"/><path class="cls-1" d="M1316.71,802.06l1.49.05c1.47.37,3.57.25,4.3,1.19,3.32,4.27,6.3,8.81,9.3,13.31,1.84,2.76,3.49,5.63,5.16,8.35l-4,6.18c-1.47-1-3.76-1.82-4-3-.48-2.55-1.39-4.18-3.82-5.06-.59-.21-1.42-.85-1.46-1.35-.6-7.62-8.37-11.42-10-19Z"/><path class="cls-1" d="M1416,837.61c6.38-21.4,11.42-42.6,12.26-64.71,2.81-.06,3.38,1.71,3.28,4-.23,5.18,0,10.44-.87,15.52-1.28,7.58-3.37,15-5,22.53-1.42,6.47-2.68,13-4,19.47C1421.1,836.58,1420.1,838.23,1416,837.61Z"/><path class="cls-1" d="M1108.46,793.27c.53,4.76.85,7.74,1.26,11.49-5.26-1.66-8.32.18-12.08,3.08-5.45,4.19-10.14,9.75-17.25,11.81-2.46.71-4.26,3.46-6.64,4.76-4.64,2.55-9.48,4.74-14.27,7.09-2.87-4-.75-6.73,1.92-6.68,5,.09,7.79-3.5,11.62-5.22a76.41,76.41,0,0,0,13.62-7.58c5.31-3.87,10.08-8.48,15.07-12.78C1103.53,797.67,1105.31,796.06,1108.46,793.27Z"/><path class="cls-1" d="M1424.81,975.66c-3.85-5.16-1.66-10.13-2.21-14.67-1.15-9.63-2.25-19.35-2.15-29,.09-7.71-.86-14.89-4-21.87a11.1,11.1,0,0,1-.67-4,8.21,8.21,0,0,1,.61-2.41c.72,0,1.46-.13,1.52,0,2.76,6.82,6.9,13,6,21.2-.78,7.14.8,14.52,1.21,21.81q.69,12,1.07,24C1426.27,972,1425.47,973.42,1424.81,975.66Z"/><path class="cls-1" d="M1347.39,848.26a14.83,14.83,0,0,0,2.5,2.09c2.73,1.41,7.32,1.16,5.45,6.45,2.56,3,5.32,5.89,7.62,9.09s6,5.56,6.1,10.76l-5.27-1.16-2.38-4c-.42-1-.84-2-1.45-3.41l-2.56,3.34c-.59-.3-1.16-.38-1.37-.71-5.19-7.85-10.37-15.7-15.42-23.65-.44-.7.09-2,.16-3.05l3.11.76Z"/><path class="cls-1" d="M1427.24,1013.27c-1.67,23.55.49,47.17-1.14,70.73l-1.86.27c-.49-1.78-1.5-3.59-1.4-5.34.41-7.18-1.25-14.51,1.44-21.53a2.11,2.11,0,0,0,0-1.36c-3.38-9.41.07-19.16-1.42-28.72-.49-3.12.5-6.56-.18-10-.27-1.39,1.51-3.19,2.36-4.8Z"/><path class="cls-1" d="M1425.47,1201a18.5,18.5,0,0,1,1.23,11.2c-.91,5.72-.19,11.7-.14,17.57,0,2,.18,4,.15,6-.08,6-.29,12-.33,18,0,3.32.26,6.64.32,10s0,6.59,0,10.39c-3.6-.67-4.3-3.29-4.09-5.53,1.59-16.64-.41-33.32.78-49.92a51,51,0,0,0-.56-11.23C1422.42,1204.63,1423.17,1202.58,1425.47,1201Z"/><path class="cls-1" d="M1271.22,547.74c1.72,2.59,3.44,5.18,5.74,8.62,6.46.79,13.89,1.68,21.32,2.68.31,0,.49,1.13,1,2.27H1293c-.76,1.47,0,4.86-3.75,3.29-2.69-1.13-1.34-2.26.06-4l-20.66.91c-.25,3.61-.45,6.47-.69,9.82-1.44-.3-2.87-.15-3.39-.77-2.88-3.39-3.8-8.36-9.08-10.22,5.69-2.22,11-2.93,17-3.42-.38-3.2-.74-6.27-1.1-9.35Z"/><path class="cls-1" d="M1394.69,1325.85c-2.27-1.36-3.33-1.72-4-2.46s-1-2.81-1.58-2.85c-5.81-.42-3.89-2.67-2.83-6.68,1.71-6.47,4-13,3.24-20.13-.47-4.27,1.23-8.88,2.45-13.2.47-1.68,2.29-3,4.07-4.18C1395.2,1292.62,1391.89,1308.49,1394.69,1325.85Z"/><path class="cls-1" d="M1282.09,968c.39.8,1.27,2.18,1.1,2.32-2.94,2.53-1.81,7.55-6,9.38-2.72,1.2-7.41.29-10.9-2.8l-10.51,5.36c-2.14-4.8,3.35-4.11,4-6.43,1.19-4.12,4.88-2.71,7.35-3.41s5.41.1,8.15.25c.05-.19.23-.52.14-.61-1.64-1.72-4.82-3.55-4.69-5.1.33-3.85-3.54-3.09-4.54-5.61,3.56-2.48,7.41-2,11.52-1.41-1.13,2.66-2.13,5-3.49,8.18h7.94Z"/><path class="cls-1" d="M986.19,736.56c6.36-6.27,10.84-13,17.72-17.7,7.64-5.24,15.3-10.33,23.7-14.32,3.52-1.68,4.74-.18,5.8,2.32-10.71,5.38-21.26,9.74-29.36,18.44-4.27,4.58-9.59,8.19-14.53,12.12C989.15,737.72,988,737.07,986.19,736.56Z"/><path class="cls-1" d="M875.18,717.75c.06-16.2-.75-32,.46-47.73l1.81-.44c.73,1.41,2.09,2.81,2.11,4.23.13,9.56,2.49,19.09-.25,28.73-.84,3,.77,6.52.65,9.78C879.87,714.56,881.16,718.43,875.18,717.75Z"/><path class="cls-1" d="M749.25,1591.65c-5.67-.49-10.29-3.72-15.19-6.3-14.18-7.5-26.24-18-38.94-27.58-1.08-.81-2.4-1.29-3.52-2.06a3,3,0,0,1-1.09-1.58,6.21,6.21,0,0,1,.14-2c3.76-1.52,5.65,1.69,7.48,3.39,6.85,6.36,15.15,10.81,22,17,7.89,7.21,17.66,10.64,27,15.09,1.12.53,1.93,1.73,2.89,2.63Z"/><path class="cls-1" d="M1302.87,624c2.15-.48,2.64,1,3.24,2.58,3.41,9.07,6.79,18.16,10.42,27.14,3,7.47,6.5,14.77,9.56,22.24.7,1.72.54,3.79.78,5.71l-.76.58a66.4,66.4,0,0,1-3.76-6.31c-3.75-8.14-8-16.14-10.8-24.61a135.88,135.88,0,0,0-9.07-21c-.84-1.61.31-4.27.55-6.45Z"/><path class="cls-1" d="M1309.05,1480.3c-12.45,19-27.33,35.75-46.84,48.47a6.45,6.45,0,0,1,1-2q8.11-7.74,16.34-15.36a105.38,105.38,0,0,0,16.6-19.52,101.09,101.09,0,0,1,7.92-10.31c1-1.16,2.78-1.64,4.21-2.44Z"/><path class="cls-1" d="M1353.64,582.92l-2.76,1.6a11.4,11.4,0,0,1-.9-1.6c-.33-.92-.26-2.29-.88-2.75-2-1.44-4-3.14-6.28-3.66-5.93-1.36-9.06-6.2-13.16-10.32,2.1.47,4.41.54,6.28,1.48,11.1,5.61,22.2,11.26,32.26,18.66.88.65,1.07,2.22,1.58,3.37-1.39.34-3.18,1.41-4.09.9C1361.59,588.32,1357.75,585.6,1353.64,582.92Z"/><path class="cls-1" d="M1404.17,863.4c6.38-7.53,7.52-16.61,12.12-24.51,1.17,1.35,2.08,2.05,2,2.32-3.67,8.7-7.28,17.43-11.25,26-1.89,4.1-3.65,4.06-5.64-.07-1.75-3.6-2.81-7.52-4.28-11.26-2.15-5.5-4.45-10.94-6.54-16.46a6.16,6.16,0,0,1,.26-4.19C1396.65,843.84,1400.55,853.24,1404.17,863.4Z"/><path class="cls-1" d="M1395.27,1015.63c3.58-1,5.41-.56,5.37,2.31q-.21,17.19-.65,34.37c0,1.73-.76,3.44-1.53,6.72-1.67-2.47-3.59-4.11-3.29-5.08,1.19-3.89-1.78-7.6.16-11.64,1-2.12,0-5.2,0-7.85C1395.25,1028.24,1395.27,1022,1395.27,1015.63Z"/><path class="cls-1" d="M1399.19,1323.57a17.09,17.09,0,0,1-1.31-4c-.21-2.91-.13-5.85-.07-8.77.07-3.57.35-7.14.34-10.71q0-8.05-.35-16.1c-.18-4.23.26-5,4.57-5.94.1,4.81.17,9.5.29,14.18.2,8,.58,15.92.53,23.87,0,2.52-1.13,5-1.74,7.54Z"/><path class="cls-1" d="M1395.7,1070.89c3.09-.12,4.83.9,4.36,3.09-.81,3.78.19,7.18,1,10.75.45,2.18-.08,4.55-.1,6.84,0,4.75.18,9.51-.05,14.25-.17,3.76-.84,7.49-1.32,11.55-3-.58-3.14-2.21-3.24-4.12-.24-4.54-.92-9.08-1-13.62C1395.3,1090.05,1395.56,1080.46,1395.7,1070.89Z"/><path class="cls-1" d="M1426.65,664.76c-7.1-4-7.27-11.29-11.27-15.66-7.9,1.7-9.08.8-12.59-9.58,5.39-.84,5.48,5.87,9.42,6.84,2.61-5.25-7-5.76-3.75-11C1415.73,636.08,1422.42,646.48,1426.65,664.76Z"/><path class="cls-1" d="M858,786.76c-1.79,2-3.81,2.43-6,.73-1.44-1.1-2.81-2.32-4.21-3.48-4.43-3.06-8.67-6.5-13.4-9-2-1-5.3-3.19-6.75,1.17-3-2.14-5.06-3.93-4.24-7.23l-.09.12,5.84-2.88c8.43,5.1,16.85,10,25,15.32C855.86,782.58,856.73,785,858,786.76Z"/><path class="cls-1" d="M1209.77,1573.18c.69-2,.79-3.85,1.56-4.2,4.26-1.91,6.06-6.64,10.78-8.36,3.6-1.3,6.37-4.94,9.43-7.64,4.48-4,8.75-8.17,13.36-12,4.45-3.67,9.21-7,14.65-11-.81,5-4.09,6.93-6.87,9.18-6.79,5.5-14.29,10.29-20.27,16.54s-13.2,11.08-20.12,16.19A21.72,21.72,0,0,1,1209.77,1573.18Z"/><path class="cls-1" d="M1428.14,771.51c1.51-19.55-1.21-37.47-2.54-56.12,1,.88,2.58,1.63,2.78,2.65.82,4.35,1.33,8.77,1.76,13.19,1,10.49,2.1,21,2.7,31.52C1433,765.46,1433.11,769,1428.14,771.51Z"/><path class="cls-1" d="M1114.43,703.13c3.09-9.18,5.84-17.89,9-26.47a110.91,110.91,0,0,1,6-12.69c.31-.59,1.88-.53,3.88-1-1.78,4.53-1.07,8.59-4,12-1.63,1.93-2.16,4.84-3,7.36q-3,8.7-5.83,17.47C1119.64,702.21,1118.47,703.91,1114.43,703.13Z"/><path class="cls-1" d="M897.62,838.55c-3.56,0-7.2.45-10.66-.15a23.88,23.88,0,0,1-8.65-3.5c-3.79-2.44-7.44-3.16-11.76-.56-.61-2-1-3.36-1.56-5-2.65-1.51-8.54,1.27-8-6.22,1.6.1,3.4-.23,4.81.36,7.64,3.2,15.1,6.87,22.81,9.87,3.3,1.29,7.08,1.41,10.66,1.93,2.19.32,2.49,1.63,2.19,3.43Z"/><path class="cls-1" d="M812.48,656.06c1.73,2.8,2.18,5.5,1.83,9.21-.69,7.32.28,14.78.22,22.18,0,6.06-.53,12.13-1,18.18,0,.59-1.65,1-3.72,2.27.43-9.56,1-18,1.15-26.51s0-16.75,0-25.13Z"/><path class="cls-1" d="M608.7,960.74c1.32-7.64,7.34-12.31,11.51-18.14,5-7,10-13.84,15.3-20.55,1.72-2.19,3.22-5.3,7.67-4.57-6.46,7.5-10.32,16.39-17,23.35-4.58,4.77-8.88,9.73-11.53,16-.79,1.88-2,4.75-5.19,4.6Z"/><path class="cls-1" d="M982.06,843.1c0,2.62-.69,4.36-3.78,4.43-10.49.22-21,.59-31.45.71-1.13,0-2.27-1.26-3.43-2,1.31-2.84,2.49-4.58,5.84-3,1.85.89,4.57,1.47,6.33.77,6-2.39,11.83-1.77,17.91-.47C976.07,844.17,979,843.33,982.06,843.1Z"/><path class="cls-1" d="M876,762.36c0-4.44.24-8.06-.11-11.63-.14-1.4-1.6-2.67-2.58-4.2,2-6.26,2.24-13,1.15-20.39l5.46.34c0,10.69-.12,20.91.08,31.13C880,760.25,879.86,762,876,762.36Z"/><path class="cls-1" d="M1308.93,1352.59l-3-4.3c5.91-3.08,11.62-5.52,15.41-11,1.13-1.65,4.32-1.88,6.57-2.75l1.44,1.3c-.84,1.63-2.76,2.08-2.95,4.72-.47,6.64-1.35,6.89-6.82,4.89l-4.46,9-6.35-1.94Z"/><path class="cls-1" d="M746,521.5c-6.29.7-9.42-4.61-13.84-7.39-4.06-2.56-5.25-2.63-9.28.9,1.05,2,2.49,4-.59,5.92-3.27-.56-3.73-3.53-4-6.06-.32-2.84,2.18-3.68,4.43-4.33,2.59-.75,5.19-1.44,8.09-2.23l2.48-5.27a7,7,0,0,1,1.11.43c-.63,6.64,3.93,9.91,8.39,13.43,1.4,1.11,2.08,3.13,3.1,4.73Z"/><path class="cls-1" d="M1266.31,841.45c-1.06,3.57-2,6.87-3.38,11.41-1.5-1.43-3.22-2.33-3.18-3.14.31-5.17-2.38-10.05-1.23-15.32a7.13,7.13,0,0,0-2.36-7.4c-2.24-1.91-2-4.34-.61-7.15,6.48,2.33,5.75,9.83,10.5,13.16-1.75,2.58-3.24,4.76-5.09,7.47Z"/><path class="cls-1" d="M823.36,768.93l-2.91,2c-1.91-3.51-3.69-6.81-5.48-10.1l-.11.1,3.42-1.28V736.37c4-.45,4.29-.17,4.15,3.64-.21,5.9-.52,11.8-.41,17.7.07,3.78.81,7.56,1.25,11.34Z"/><path class="cls-1" d="M1132.75,884.38c-1.39-.07-3,.32-3.55-.27a19.76,19.76,0,0,1-4.3-6.09c-3.11-8.4-5.86-16.93-8.69-25.28,2.84-1.75,4.35-.74,5.06,1.1C1125.1,863.77,1128.78,873.77,1132.75,884.38Z"/><path class="cls-1" d="M580.2,1424.15c-2.94.31-4.13-2.11-5-4-2-4-3.34-8.28-5-12.43-2-5-4.13-10-6.1-15-1.19-3-2.2-6.16-3.41-9.59a4.6,4.6,0,0,1,5.18,3.2c2.51,6.53,4.52,13.25,7.06,19.78,1.62,4.18,4,8.08,5.73,12.21a35.39,35.39,0,0,1,1.44,6Z"/><path class="cls-1" d="M900.13,1639.86c1.69.08,3.37.11,5,.26a81.12,81.12,0,0,1,8.11.92c8.23,1.62,16.47,2.59,24.88,1.85,1-.09,2.13,1.12,3.94,2.17-5.15,3.52-9.84,1.06-14.24,1a78.23,78.23,0,0,1-14.87-1.68c-4.34-.95-9.58,1.64-13.14-2.63Z"/><path class="cls-1" d="M1347.39,848.26l-3.51-3.48c-.44-1-1.07-2.79-1.27-2.75-6.63,1.53-7.19-4.82-10.71-7.58,1.8-1.72,3-3.49,4.77-4.41a3.84,3.84,0,0,1,5.63,1.66c2.69,5,5.44,9.93,8.42,15.35Z"/><path class="cls-1" d="M897.51,838.67c1.43-.6,3-1.91,4.27-1.7,6.81,1.1,13.56,2.61,20.34,3.89,1.74.33,3.54.28,5.3.53s4.5.27,4.75,1.06c.5,1.53-.44,3.53-.71,4.92-6.58-1.4-12.54-2.12-18.1-4-5.2-1.76-11.25-.83-15.73-4.83Z"/><path class="cls-1" d="M759.67,545c0,1.36.28,3.27-1.77,2.75a27.21,27.21,0,0,1-6-2.91c-5-2.74-10-5.32-14.82-8.35-5.31-3.38-10.78-6.73-14.76-13.66,2.42.66,4,.69,5,1.44,4.09,2.89,7.9,6.21,12.07,9,2.4,1.59,5.29,2.43,8,3.61l-.16-.14c2.33,5.61,8.08,6.11,12.61,8.44Z"/><path class="cls-1" d="M1170.13,528c-2.49-3.25-2.53-5.11-.85-7.73,3.66-5.68,6.75-11.74,10.4-18.24l4.75,1.29c-3.43,6.71-6.47,12.89-9.75,18.94C1173.65,524.15,1172,525.71,1170.13,528Z"/><path class="cls-1" d="M1425.84,976.7c2.74,11.28-.4,22.78,1.41,34.38-3.49,0-4.9-1-4.77-3.61.23-4.72.59-9.44.7-14.16.08-3.6-.2-7.22-.18-10.83,0-1.92.32-3.84.5-5.76Z"/><path class="cls-1" d="M941.47,803.36c-1.34,2.91-3.28,2.2-4.93,1.57-1.21-.47-2.14-1.59-3.3-2.24-5.3-3-10.55-6.18-17.63-4,.36-1.91.25-3.21.71-3.47,3.68-2,7.61-3.62,11.09-7.25,1.61,4.16,1.54,8.06,5.44,9.86C935.82,799.22,938.42,801.38,941.47,803.36Z"/><path class="cls-1" d="M588.38,991.66c-.53-5,3.42-7.89,5.76-11.29,3.94-5.71,8-11.31,11.29-17.45.55-1,2.15-1.47,3.27-2.18l.76.7c.14.65.62,1.49.38,1.91-5.37,9.15-11.82,17.58-17.55,26.49-.65,1-2.68,1.13-4.07,1.67Z"/><path class="cls-1" d="M1445.48,720.47c-2.52.8-4.32.58-4.58-1.78-.54-4.92-6-8.74-3-14.68.52-1-2.4-3.78-3.93-6,.65-2.4,1.38-5.06,2.5-9.19C1442.42,699.53,1441.44,710.59,1445.48,720.47Z"/><path class="cls-1" d="M1295.62,765l-4.12-3.34c-1.54-2.32-3.23-3.93-5.77-.64l-4.72-5.37c.67-2.77,1.22-5,1.77-7.24l.76-1.34c1.3.17,3.31-.13,3.8.6,3.11,4.59,6,9.36,8.7,14.2C1296.45,762.56,1295.78,763.9,1295.62,765Z"/><path class="cls-1" d="M869.37,407.64c10.43-8.27,22.75-11.75,34.83-16.81-1.86,4.38-2.41,4.76-6.32,6.4-6.78,2.85-13.44,6-20.28,8.69C875,406.93,872.12,407.09,869.37,407.64Z"/><path class="cls-1" d="M1329.35,1447.05l20.8-33.09c2.75,2.12,2.65,4.45,1.27,5.89-7,7.29-10.71,16.83-17,24.6-1.1,1.36-2.3,2.63-3.46,3.94Z"/><path class="cls-1" d="M1091.16,777.26c2.25-2.07,4.21-4.71,6.83-6,3.68-1.87,5.41-4.42,5.55-8.37.1-2.74,1.14-4.7,4.09-5.13,3.76,7.69,2.74,10.65-4.45,14.8-2.73,1.57-5.18,3.64-7.83,5.36a12.62,12.62,0,0,1-2.91,1Z"/><path class="cls-1" d="M1165.32,932.71c2-.39,2.89-.85,3.2-.59,7.45,6.41,14.83,12.9,22.38,19.52-.56.4-1.27,1.18-1.56,1.05a112.2,112.2,0,0,1-10.24-5.1c-3.63-2.16-5.22-6.74-10-7.92C1167.51,939.29,1166.78,935.58,1165.32,932.71Z"/><path class="cls-1" d="M561.05,1381.22c-4-10.9-10.88-20.53-11.77-32.18,4.13,2.34,3.89,6.86,5.48,10.42a110.26,110.26,0,0,1,4.52,11.4C560.36,1374.23,563.86,1377.37,561.05,1381.22Z"/><path class="cls-1" d="M787.83,1607.51c-2.43,2.49-5.45,1.33-7.68.36-9.69-4.24-19.17-8.94-29.74-13.94,3.61-2.22,6.07-1.67,8.12-.37a90.51,90.51,0,0,0,26.67,11.89c1,.24,1.68,1.44,2.52,2.19Z"/><path class="cls-1" d="M924.36,767.51c-1.43-1.25-3.53-2.23-4.15-3.8-2-5-3.51-10.25-5.06-15.44-.74-2.46-1.15-5-1.84-8.11,1.74.39,3.2.36,3.36.81,3.09,8.36,8.33,16,8.2,25.44,0,.4-.42.8-.64,1.2Z"/><path class="cls-1" d="M533.91,1279.13c.74,4.43,3.38,8.49,1.2,13.16a3.57,3.57,0,0,0-.11,2c1.1,5.68,2.25,11.35,3.36,17,.39,2,.36,3.75-3.07,3.85-.39-2.27-.86-4.63-1.17-7-1.08-8.29-2-16.61-3.19-24.89C530.6,1281,530.46,1279.2,533.91,1279.13Z"/><path class="cls-1" d="M947.29,576.64c-2.49-4.82-3.23-9.7-.71-14.79a5.72,5.72,0,0,0,.61-2.89c-.18-2.18-.66-4.32-.91-6.49-.2-1.77-.77-4.1,1.81-4.36,2.8-.28,2.39,2.39,2.43,4,.16,6.87.11,13.74.1,20.62a3.73,3.73,0,0,1-.38,2,20.62,20.62,0,0,1-2.3,2.38Z"/><path class="cls-1" d="M830.21,807.76l2.15-2.88c3.55,3.4,6.79,7,10.56,9.93,3.58,2.79,8.7,3.25,12.9,7.56-2.38.39-3.74,1.06-4.78.73-8.09-2.58-14.73-7.46-20.52-13.55-.35-.37-.15-1.26-.2-1.91Z"/><path class="cls-1" d="M1109.26,813.44c5.18,6.06,3.73,13.68,4.77,20.69.09.57-1.42,1.88-2.27,2s-2.67-.82-2.73-1.43c-.36-3.47-3.54-6.4-1.69-10.31,1.64-3.44-1-7.8,2.08-11Z"/><path class="cls-1" d="M1163.75,615.94a11.36,11.36,0,0,1-3.54,7.68c-4.13,4.09-7.19,9.28-10.55,14.11-1.26,1.81-2.38,3.3-5.44,2.33,1.3-3.43,2.39-6.43,5-9.13,3.92-4.08,7.1-8.87,10.72-13.26a14.43,14.43,0,0,1,3.26-2.23Z"/><path class="cls-1" d="M1350.17,593.85c4.62,1.6,8.33,3.16,11,7.15,1.57,2.32,5,3.58,7.82,4.8,4.11,1.77,5.41,4,4.79,9.57-7.94-6.28-15.89-12.54-23.78-18.89C1349.75,596.24,1350.08,595.22,1350.17,593.85Z"/><path class="cls-1" d="M1146.7,908.77c5.54,1.64,7,7.43,10.89,10.84,2.92,2.58,4.66,6.5,7.67,10.91-4.16-.56-6.54-.72-8.25-3.94-1.6-3-4.16-5.6-6.54-8.15-2.63-2.82-4.11-5.91-3.63-9.8Z"/><path class="cls-1" d="M811,614.25V581.68c3.06,0,3.52,1.61,3.47,3.6-.06,2.69-.27,5.39-.28,8.08,0,6,.16,12,0,18,0,1.22-1.08,2.41-1.65,3.62Z"/><path class="cls-1" d="M1329.33,1335.79l-1.44-1.3a14.31,14.31,0,0,1,12.58-8.34c1.36-.09,2.74,0,4.11,0l-.15-.14C1342.6,1334.1,1338.09,1337,1329.33,1335.79Z"/><path class="cls-1" d="M1361.41,871.5l2.38,4c.35,1.49.24,3,2.67,3.13,5.56.23,7.37,2.75,7.11,9.14l-.21.18c-3-2.18-5.67-5.23-10.16-2.19-.89-2.45-1.26-4.52-2.33-6.12s-2.81-2.69-5-4.68Z"/><path class="cls-1" d="M1309.6,1477.39c.52-2,.61-4.26,1.64-6,8.14-13.36,12.86-18.93,17.21-20.4.28,6.56-6.19,8.74-8.42,13.55s-5.86,9-8.88,13.45Z"/><path class="cls-1" d="M1055.27,826.66c1.79,2.6,1,4.59-1.92,5.7-6.07,2.33-12.2,4.51-18.31,6.74-2.1.77-4,.88-5.53-1.77a23.1,23.1,0,0,1,8.85-4C1044,831.79,1049.29,829.08,1055.27,826.66Z"/><path class="cls-1" d="M1252.93,976.86c-7.16,4.18-14.27-3-21.7-.15-.23-1.36-.51-3.05-.89-5.36,2.42-.24,4.48-.92,6.32-.53,5.22,1.08,10.34,2.57,15.47,4C1252.5,974.94,1252.6,976,1252.93,976.86Z"/><path class="cls-1" d="M1146.84,908.63c-5.88-2.82-9.12-8.18-12.44-13.34-1.51-2.34-2.3-5.13-3.56-8.06,3.4-1.12,4.7.52,6,2.52,3.81,6.08,7.78,12.06,9.9,19Z"/><path class="cls-1" d="M1265.7,892.8l-7.32-3.45c2.91-3.81,4.46-7.38,1.62-11.79-1.55-2.41.39-5.44,4.59-7.6C1265,877.37,1265.29,884.32,1265.7,892.8Z"/><path class="cls-1" d="M1327.72,566.61c-1.25.68-3,2-3.27,1.72-2.37-2.19-5.72-1.54-8.1-2.89-3.8-2.16-7.78-2.19-11.81-2.64-1.74-.19-1.74-.26-3.55-2.86C1308.53,558.11,1320.86,561.07,1327.72,566.61Z"/><path class="cls-1" d="M1348,594.15l-27.13-11.5,2-2.64c2.31,3.38,6.29,1.6,9.2,3,4.49,2.1,8.81,4.52,13.23,6.76C1347.31,590.72,1348.8,591.85,1348,594.15Z"/><path class="cls-1" d="M548.48,1346.44c-1.24-1.54-2.56-2.55-3-3.86-2.85-8-5.5-16-8.21-24l1.5-.8c1,1.27,2.4,2.38,3.07,3.81C545.82,1330,549.17,1342.26,548.48,1346.44Z"/><path class="cls-1" d="M1282.21,968.09c-.13-.88-.54-2.47-.36-2.54,3.31-1.29,2.59-4.8,4.13-8.51,1.42,2.83,2.28,4.54,3.34,6.67,3-2.38,4.43-6.85,9.4-6-.15,2.21-4.64,2.78-1.86,5.49-.92.88-1.71,2.27-2.78,2.53-3.95.95-8,1.53-12,2.24Z"/><path class="cls-1" d="M1189.68,413.71c-1.76-.31-3.83-.14-5.24-1-6.55-4.05-12.94-8.38-19.35-12.66-.63-.42-1-1.18-.94-3a37.93,37.93,0,0,1,6,2.25c5.92,3.37,11.79,6.85,17.51,10.55,1.06.69,1.3,2.63,1.92,4Z"/><path class="cls-1" d="M1389.44,1076.34c-4.56-6-3-12.12-2.71-18.1.12-2.69,1.76-3.27,3.78-3.6.46.39,1.14.74,1.1,1-1.1,5.85-.13,11.7-.18,17.55C1391.42,1074,1390.36,1074.91,1389.44,1076.34Z"/><path class="cls-1" d="M1108,838.3c4.7,1.68,4.56,5.31,4.5,9-.07,3.81,0,7.63,0,12.41-1.94-1.77-4.91-3.29-4.85-4.65C1107.88,849.52,1105.17,843.86,1108,838.3Z"/><path class="cls-1" d="M933.46,378.44c.52-.65.9-1.61,1.57-1.89,7.3-3,14.64-6,22.33-9.06.5,3.57-1.68,4.67-3.39,5.12-6.81,1.79-12.33,7.37-19.71,7.37C934,379.46,933.73,379,933.46,378.44Z"/><path class="cls-1" d="M943.67,737.08a15.77,15.77,0,0,1,2-.9c1.57-.53,3.19-.93,4.8-1.39,0,1.64.08,3.28,0,4.91-.06,2.95,0,5.91-.38,8.83a3.09,3.09,0,0,1-1.95,2.22c-.75.06-1.79-1-2.35-1.85a7.07,7.07,0,0,1-.53-2.56C944.81,743.43,944.29,740.52,943.67,737.08Z"/><path class="cls-1" d="M946.34,752.84c3.31-.44,4.48.87,4,3.06a29.36,29.36,0,0,0,.76,13.44c.55,2.12-.46,4-2.52,3.84-1.26-.13-3.53-2.88-3.28-3.33,1.77-3.24-2.54-7.12,1.41-10.28C947.7,758.8,946.55,755.4,946.34,752.84Z"/><path class="cls-1" d="M668.44,1533.48c.91,0,2.25-.49,2.67-.06,5.73,5.9,13.74,9.38,17.91,16.89.06.1-.18.37-.49,1-2.83,0-4.67-2.28-6.63-3.79-5.15-4-10.14-8.25-13.32-14.14Z"/><path class="cls-1" d="M1143.13,642.58c.46,2,1.36,3.6.9,4.38-2.91,5-4.44,10.91-9.91,14.9-.67-1.21-1.76-2.3-1.54-2.91A40.27,40.27,0,0,1,1143.13,642.58Z"/><path class="cls-1" d="M879.44,776.05c2.72,6,.33,11-1,16.27-5.23-.12-4.19-4.56-3.75-6.42C875.45,782.59,872.59,777.13,879.44,776.05Z"/><path class="cls-1" d="M1123.66,767.91c-.84,5.43,2.88,11-1.68,16.75-1.43-1.14-3.13-2.07-4.25-3.47-1.61-2-.78-3.64,1.34-5,.42-.26.06-1.83,0-2.79C1118.69,769.6,1119.37,768.7,1123.66,767.91Z"/><path class="cls-1" d="M1430.32,682.86c-.38-6.55-6.9-10.44-4.18-17.43C1433.55,670.19,1435.45,676.66,1430.32,682.86Z"/><path class="cls-1" d="M1420.76,861.48l-4.32,9.54-5.56-1.63L1420,853.3l1.21.25C1421.07,856.19,1420.92,858.84,1420.76,861.48Z"/><path class="cls-1" d="M1145.66,820.54c1.51-.85,2.27-1.6,2.63-1.44,6,2.7,12,5.38,17.77,8.4,1.5.78,3.93,2.37,1.47,4.49-5.42-2.41-10.71-4.62-15.87-7.13C1149.68,823.9,1148,822.28,1145.66,820.54Z"/><path class="cls-1" d="M1400.44,635.51c-2.16-1.66-6.64-1.59-4.55-6.71l5.46,1.32v-6.77c4.3-.74,5.06,2.85,7.16,4.34Z"/><path class="cls-1" d="M811.36,641.79a7.8,7.8,0,0,1-.66-2c0-7,0-14,0-21.78,4.3,2.46,4,6.47,3.87,9.53-.11,3.34-.68,6.54.45,9.87C816,640.36,814.16,641.48,811.36,641.79Z"/><path class="cls-1" d="M1291.67,575.27c.7-.82.86-1.14,1-1.12,8.13,1.26,16.27,2.48,24.36,3.93,1,.17,1.75,1.59,2.17,3.37-3-.5-5.91-1-8.86-1.5-4-.68-8-1.22-11.87-2.12A54.6,54.6,0,0,1,1291.67,575.27Z"/><path class="cls-1" d="M1198.72,848.2c-3.66-1.93-7.29-4-11-5.76-1.56-.76-3.45-.85-5-1.68a3,3,0,0,1-1.15-2.69c.18-.64,2-1.55,2.5-1.28,5,2.57,10,5.35,14.85,8.15.43.25.52,1.12.76,1.7C1199.39,847.16,1199.06,847.68,1198.72,848.2Z"/><path class="cls-1" d="M1388.28,1077.71c6.63,1.69,1.31,5.94,2.38,8.83s.65,6.49.86,9.59c-4,1.41-5.56-1.7-4.89-3.22,1.77-4-.38-7.84.5-11.63C1387.41,1080.06,1387.89,1078.9,1388.28,1077.71Z"/><path class="cls-1" d="M1369.38,919c-3.16,3.49-6.13,7-9.45,10.24-.7.66-2.67,0-4,0,.16-1.22-.12-2.83.56-3.57,2-2.26,4.53-4.14,6.75-6.26C1364.94,917.66,1366.62,916.27,1369.38,919Z"/><path class="cls-1" d="M996.82,850.28c-6.62,3.53-7.76-3.9-12.74-4.54,3.25-4,6.7-3.6,10.38-3.43C995.24,844.93,996,847.44,996.82,850.28Z"/><path class="cls-1" d="M1383.6,937.73c3.64-.16,4.16,1.62,3.76,3.53-.9,4.25,3.43,8.29.46,12.41-.51.7-2.42.39-4.22.62Z"/><path class="cls-1" d="M1027.57,834.24c-.78,7.77-.9,7.88-7.87,8.22-1.58.08-3.18.1-4.75.29s-2.89.54-4.86.92c1-5.82,5.59-3.13,8.12-4.48C1021.16,837.61,1024.12,836.06,1027.57,834.24Z"/><path class="cls-1" d="M1061.45,700.62c-4.25,4-11.26,4.33-16.79.92a13.75,13.75,0,0,1,16.72-.79Z"/><path class="cls-1" d="M1162.54,922.14c2.47-.5,3.73-1.18,4.41-.81,3.61,2,12.19,13,12.42,15.71C1172,934.76,1170,926.59,1162.54,922.14Z"/><path class="cls-1" d="M1152.28,904.48c6,3.22,9.71,8.48,13.12,14.13-3,2-4.69.42-5.74-1.28-2.58-4.2-7.56-7.06-7.37-12.85Z"/><path class="cls-1" d="M1191,1583.21c.64-.92,1.07-2.2,2-2.7,4.62-2.66,9.35-5.12,14.57-7.93a17.79,17.79,0,0,1,1.13,2.46c-5.55,3.47-10,9.44-17.75,8Z"/><path class="cls-1" d="M907,389.7l15.85-7.56c-.2,2,.08,3.4-.47,4-4.05,4.17-9.57,4.25-14.67,5.51Z"/><path class="cls-1" d="M924.23,767.61c5,5.13,2,11.36,2.93,17.12-1,0-1.78.12-1.83,0-2.09-5.62-5.44-11.2-1-17.19Z"/><path class="cls-1" d="M881,613.68c3.72-3.38,3.72-3.38,11.79-4-.42,1.94-.27,4.5-1.25,5.06a14.43,14.43,0,0,1-7.05,1.62c-1.19,0-2.36-1.77-3.55-2.75Z"/><path class="cls-1" d="M1192.06,952.35l8.32,4.77c1.26-2.1.28-5.87,4.62-3.36-1.82,2.25-.36,7.09-4.84,6.62-2.83-.29-5.46-2.89-8.05-4.64C1191.73,955.48,1192.06,954.17,1192.06,952.35Z"/><path class="cls-1" d="M885.54,797.91c0-2.61-.16-4.59,0-6.53.23-2.2,1.94-3.41,3.8-2.52a5.3,5.3,0,0,1,2.33,4C891.75,795.32,890.2,796.37,885.54,797.91Z"/><path class="cls-1" d="M652.17,1520.8c-3.44-2.57-7-5-10.26-7.81-.72-.61-.51-2.32-.73-3.53,1.17.12,2.61-.15,3.44.44a49.69,49.69,0,0,1,7,5.9c1,1,1.19,2.71,1.75,4.1Z"/><path class="cls-1" d="M534.22,1134.85c2.75,4.67.41,8.93-.28,13.28-.08.48-1.41.76-3.23,1.65C531.52,1144.08,530.63,1139.07,534.22,1134.85Z"/><path class="cls-1" d="M877.25,668.47c-1.11-4.28-1.93-7.46-2.88-11.15l5.15-2.36C879.86,659.73,882.1,664,877.25,668.47Z"/><path class="cls-1" d="M1357,590.38c4.41,2.53,7.82,4.44,11.15,6.46a1.93,1.93,0,0,1,.62,1.76c-.35.73-1.42,1.88-1.74,1.75-2.5-1-4.87-2.25-7.3-3.41S1357.07,593.7,1357,590.38Z"/><path class="cls-1" d="M1372.18,921.36c.62,2.22,1.43,3.51,1.08,4.09a43.34,43.34,0,0,1-5.3,7.16c-.64.68-2.41.3-3.67.4.11-1.22-.23-2.8.41-3.61C1366.65,926.93,1369,924.75,1372.18,921.36Z"/><path class="cls-1" d="M1205.34,959.94c3.45,1.42,6.61,2.6,9.66,4a15.07,15.07,0,0,1,3.75,2.73c.29.27.14,1.37-.18,1.83s-1.49.92-1.62.78c-3.31-3.7-9.63-2.89-12-8C1204.93,961.15,1205.09,960.89,1205.34,959.94Z"/><path class="cls-1" d="M738.81,839.49c4.35-2.56,7.9-6.53,14.88-7.2a44.67,44.67,0,0,1-1.86,4.27c-3.61-1.1-5.22,1.81-7.58,3.37-1.29.85-3.15.86-4.75,1.25Z"/><path class="cls-1" d="M1385.12,956c5,.84,5.13,1.23,2.6,10.42C1383.49,965.37,1383.49,965.37,1385.12,956Z"/><path class="cls-1" d="M1339,950.18c.38-1.43.31-3.63,1.22-4.16,3.44-2,7.19-3.43,11.29-5.29.53,4.73-3,4.87-5.37,6s-4.82,2.19-7.24,3.28Z"/><path class="cls-1" d="M1161.55,537.23c2-3.42,3.62-6.18,5.45-9.29,3,2.27,3.66,4.58,1.92,7.2C1167.32,537.53,1165.4,539.77,1161.55,537.23Z"/><path class="cls-1" d="M668.58,1533.34c-1.12-.11-2.57.18-3.31-.41-3.17-2.52-6.16-5.27-9.12-8-.33-.3-.11-1.21-.14-1.88,4.84.59,10.61,5.52,12.43,10.47Z"/><path class="cls-1" d="M1188.17,606.06c-.15.28-.32.55-.5.82-3-.59-3.74,5.12-8.06,2.12,3.93-3,4.46-9.65,11.45-8.54l-.14-.15C1190,602.23,1189.09,604.15,1188.17,606.06Z"/><path class="cls-1" d="M997.43,841c4.26.18,8.58-2.6,11.05,2.83C1000.84,846.45,999.17,846.13,997.43,841Z"/><path class="cls-1" d="M1193.8,589.45c1.42-7.56,3.44-9,9.48-6.29-2,4.05-5.47,5.61-9.63,6.14Z"/><path class="cls-1" d="M1388,1324.7l-5,7.21c-2.57-3.58-2.57-6.69-.24-8.86S1386.3,1322.39,1388,1324.7Z"/><path class="cls-1" d="M880.67,765.18c-.66,3.68-1.16,6.44-1.72,9.57-6-2.06-3.38-6.1-3.81-9.57Z"/><path class="cls-1" d="M1127.55,1004.31l-1.08-4.17c6.48-3.33,6.48-3.33,10.54-.89Z"/><path class="cls-1" d="M894.08,805.14c5.24.14,9.26-2,12.47,2.06C901.64,811.37,901.41,811.34,894.08,805.14Z"/><path class="cls-1" d="M1398.08,1137.78c-3-6.42-2.74-8,1.66-10.64C1400.83,1134.28,1400.83,1134.28,1398.08,1137.78Z"/><path class="cls-1" d="M580.05,1424.26a10.71,10.71,0,0,1,5.49,11.84c-2.5-3.37-4.67-6.06-6.5-9-.33-.54.74-2,1.16-3Z"/><path class="cls-1" d="M1394.08,942.86c-4.48-1.55-3.42-4.64-2.47-8.93,1.91,1.08,3.94,1.52,4.48,2.67C1397.22,939,1396.94,941.51,1394.08,942.86Z"/><path class="cls-1" d="M893,804.41c-2.81,2.7-8.52,3.5-9.66,1.57-.61-1,.29-2.94.59-4.93Z"/><path class="cls-1" d="M1286.39,568.45h-9.66c.44-4,.71-4.11,6-3.94C1286.12,564.62,1287.09,566.05,1286.39,568.45Z"/><path class="cls-1" d="M1229.27,809.67a2.07,2.07,0,0,1,.2,1.06c-.09,1.77,2.64,3.66-.9,5.81l-6.16-10.5,1.34-1.24Z"/><path class="cls-1" d="M1104.77,786.31c-1.36-7.65-1.36-7.65,2.3-9.66l1.88,8a9.33,9.33,0,0,1-1.89,1.32A9.2,9.2,0,0,1,1104.77,786.31Z"/><path class="cls-1" d="M1116.93,749.71c-3.13-5.88-3.13-5.88,1.18-10.77C1120.54,742.79,1120.49,746.08,1116.93,749.71Z"/><path class="cls-1" d="M1373.58,893.76c-.48-1-1-2-1.45-3l1.23-2.86.21-.18c4.75,3.16,5.44,4.48,5,9.55C1375.44,898.2,1375,895.24,1373.58,893.76Z"/><path class="cls-1" d="M985.36,1260.49a59.84,59.84,0,0,1-7.58,1.91c-.73.08-2.27-1.15-2.26-1.77,0-1.09.67-2.79,1.52-3.14C979.7,1256.36,982.14,1257.11,985.36,1260.49Z"/><path class="cls-1" d="M840.52,879.83c-5.73.77-9.19-.64-12-4.65C831.69,874.67,835.57,876.15,840.52,879.83Z"/><path class="cls-1" d="M1338.85,950a17.24,17.24,0,0,1-11.69,5.39c4.31-6.11,5.72-6.68,11.79-5.25Z"/><path class="cls-1" d="M922.86,1062.57c1.51-1.06,2.92-2.43,4.59-3a3.69,3.69,0,0,1,3.37,1,4.41,4.41,0,0,1,.27,3.73c-.61,1.39-1.73,1.54-3.24.27-.82-.71-2.73-.13-4.15-.13Z"/><path class="cls-1" d="M1343.07,882.93v7.27c-3.44-1.31-5.86-3.08-5.15-6.41C1338.47,881.17,1340.77,881.46,1343.07,882.93Z"/><path class="cls-1" d="M932,1216.32l-7.59-.85c1.36-3.67,3.68-4.36,6.18-3.74,1,.25,1.7,1.94,2.53,3Z"/><path class="cls-1" d="M1034.21,704.44c1.14-1.12,2.1-2.62,3.46-3.25a7,7,0,0,1,4.21,0c.5.11,1.19,2,1,2.14a10.69,10.69,0,0,1-3.65,2.37c-1.2.38-2.61.08-3.93.08Z"/><path class="cls-1" d="M624.52,1234.45l-2.4-2.88c5.76-4.74,5.76-4.74,9.26-3.49-1.35,1.16-2.45,2.06-3.49,3S626,1233,624.52,1234.45Z"/><path class="cls-1" d="M1009.49,368.23c1.94-1.16,2.89-2.21,3.73-2.13a15.37,15.37,0,0,1,4.89,1.53,4,4,0,0,1-.28,2.31,19.69,19.69,0,0,1-5,.2C1012.08,370.07,1011.36,369.33,1009.49,368.23Z"/><path class="cls-1" d="M1211.79,856c-1.11-.1-2.75.23-3.24-.38-2.08-2.57-3.83-5.42-5-7.13,3-.29,6.35,2.2,8.11,7.64Z"/><path class="cls-1" d="M1006,850.74c.7,6.52-.35,7.33-7.13,6.07C999.63,852.69,1003.53,852.93,1006,850.74Z"/><path class="cls-1" d="M931,1469c4,.27,5.91,2.32,6.67,4.73.52,1.67.07,4.19-3.59,4.18a20.74,20.74,0,0,0-.48-4.22C933.14,1472.38,932.22,1471.21,931,1469Z"/><path class="cls-1" d="M895.85,481.57V491l-7.24-.71Z"/><path class="cls-1" d="M1248,962c2.28-1.75,3.91-6.08,7.94-1.71-1.15,3.27-4.63,3.18-7.07,4.49-.16.08-1.06-1.22-1.62-1.88Z"/><path class="cls-1" d="M1420.68,670.08a53.17,53.17,0,0,1-5.43-6.35c-.53-.83.42-2.59.69-3.93.94.68,2.3,1.16,2.74,2.08,1.2,2.49,2,5.17,3,7.77Z"/><path class="cls-1" d="M924.74,557.71c1.17,6.19,1.08,6.31-4.91,6.27C919.88,560.58,920.28,557.69,924.74,557.71Z"/><path class="cls-1" d="M942.13,842.59c.45,4-1.53,5.46-4.59,5.13-.84-.09-2.33-2.51-2-3.32C936.83,840.73,939.64,842.36,942.13,842.59Z"/><path class="cls-1" d="M1157.8,1112.77c-.54-2.94-1.09-5.88-1.75-9.43C1160.57,1105.91,1161.53,1109.34,1157.8,1112.77Z"/><path class="cls-1" d="M1224.92,1468.8v8.67c-4.2.26-4.31-2-3.8-4.69C1221.53,1470.65,1220.57,1467,1224.92,1468.8Z"/><path class="cls-1" d="M604.66,1239.91l-9-5.11C600.4,1232.44,602.84,1233.71,604.66,1239.91Z"/><path class="cls-1" d="M1125.93,1505.14a30,30,0,0,1-5.49-1.22,2.92,2.92,0,0,1-.93-2.73,2.88,2.88,0,0,1,2.54-1.25,31.64,31.64,0,0,1,4.69,3.28Z"/><path class="cls-1" d="M1287.24,1413.32l-5.12-8.36c2.52-2,4.55.13,7,.34Z"/><path class="cls-1" d="M1311.17,1005.48l5.66-5.15c2.43,1.95,1.74,3.38.51,5C1315.77,1007.4,1314.14,1007.56,1311.17,1005.48Z"/><path class="cls-1" d="M830.32,807.64c-4.19,1.48-5.12-2.89-8.07-4,1.47-3.58,3.81-2.92,5.43-1.28,1.32,1.33,1.72,3.57,2.53,5.41Z"/><path class="cls-1" d="M1256.61,966.86l3,6.37-5.93.44C1252.59,970.69,1252.59,968.45,1256.61,966.86Z"/><path class="cls-1" d="M733.93,1464.75c-.38,4.06-.63,6.71-.9,9.56C727.58,1471.32,727.59,1470.71,733.93,1464.75Z"/><path class="cls-1" d="M1384.76,910.56c2.72-2.14,2.22-7.64,7.49-7.36C1391.17,907.92,1389.58,909.64,1384.76,910.56Z"/><path class="cls-1" d="M960.45,1536.1c2.23,5.24-2.48,4.47-4.7,6.05C954.42,1537.92,954.42,1537.92,960.45,1536.1Z"/><path class="cls-1" d="M641,966.21c-.91-6,5.16-3.07,6.62-6.65C648.44,964.63,648.44,964.63,641,966.21Z"/><path class="cls-1" d="M1023.93,473.36l1.92,6.82-6.23-.3c.92-2.59,1.6-4.53,2.28-6.46Z"/><path class="cls-1" d="M829.64,1525.86c.39-3,.13-4.71.87-5.66s2.47-1.53,3.87-1.87c.42-.1,1.76,1.3,1.64,1.64a8.8,8.8,0,0,1-2,3.12C833.26,1523.85,832.18,1524.28,829.64,1525.86Z"/><path class="cls-1" d="M670.74,1294.53c-2.74,1-4.64,2.28-5.6,1.79-2-1-2.93-3.15-.92-6.16Z"/><path class="cls-1" d="M1299,679.17v5c-2.56-1.2-5.55,1.59-7.72-2.93Z"/><path class="cls-1" d="M1205.85,902.72c-2.43-.37-4.89-.63-7.27-1.2-.45-.11-.6-1.44-.92-2.3C1203,898.52,1203,898.52,1205.85,902.72Z"/><path class="cls-1" d="M1194.53,1344.45c1.22-2.83,1.22-2.83,8.55-3.14.08,1.24.16,2.48.25,3.83Z"/><path class="cls-1" d="M853.42,1387.71l-6.38,3.13c-1.52-3.61.33-5,2.47-5.7,1.09-.37,2.53.3,3.81.51C853.35,1386.33,853.39,1387,853.42,1387.71Z"/><path class="cls-1" d="M929.7,1414c-.91,1.53-1.4,3.28-2.12,3.39-2.87.42-4.28-1.64-5.93-4.13C924.72,1412,926.78,1413.32,929.7,1414Z"/><path class="cls-1" d="M755.42,1534.76c.1-2,.16-3.13.24-4.74l8.23,1.4C761.27,1534.31,758.8,1534.63,755.42,1534.76Z"/><path class="cls-1" d="M956,995.13c4,1.19,4.61,3.87,3.43,8C956,1001.07,956.2,998.05,956,995.13Z"/><path class="cls-1" d="M815,760.82c-2.47-2.17-7-3.23-4.65-8.49,4.64,1.51,5.46,4.58,4.54,8.59Z"/><path class="cls-1" d="M919.51,714.92c1.71,3.94,1.53,6.6-2.78,8.52C916.06,719.92,915.23,717,919.51,714.92Z"/><path class="cls-1" d="M1180.94,835.16c-4.45,2.8-7.86,1.44-9.41-3C1175,831.48,1177.12,834,1180.94,835.16Z"/><path class="cls-1" d="M653.42,1218.87l4.41,3.57-.23,1.42c-1.75.16-3.71.85-5.16.27-.77-.31-.67-2.81-1-4.32Z"/><path class="cls-1" d="M1115.84,620.05l2.6,7-1.32,1.13-5.76-3.24Z"/><path class="cls-1" d="M1226.85,713.83c3.17-1.73,4.61,1.17,6.87,2.28-4.61,4.18-4.84,4.09-6.75-2.42Z"/><path class="cls-1" d="M789.75,1138.84c-2.09,4.63-5.16.45-8.63,2.49l2.61-5.7Z"/><path class="cls-1" d="M766.78,1264.51l-4-.64c.28-1.9.53-3.59.81-5.52,5.44-1.12,2.66,3.52,4.31,4.89C767.51,1263.66,767.14,1264.08,766.78,1264.51Z"/><path class="cls-1" d="M809.66,1132c-2.28-4.79,1.9-6.18,2.07-8.87l3.07.3Z"/><path class="cls-1" d="M1029.46,1262.42c-.19-5.11,3.19-4.32,5.47-4.85.29-.07,1.19.93,1.17,1.41,0,.79-.4,2-.95,2.25A40.55,40.55,0,0,1,1029.46,1262.42Z"/><path class="cls-1" d="M1438.11,763.2c-.51-.75-.72-.92-.75-1.12-.3-2.11-1.61-4.52,1.42-5.73a1.9,1.9,0,0,1,1.75.52C1441.87,759.53,1440.91,761.46,1438.11,763.2Z"/><path class="cls-1" d="M1259.73,1287.17c-5.74,3.34-7.67,2.81-8.94-2.27Z"/><path class="cls-1" d="M660.59,1435.2c2.47-2.94-.14-6.53,3.95-7.45C667,1433.2,666.76,1433.93,660.59,1435.2Z"/><path class="cls-1" d="M1197.57,567.47l-7.85-2.74,4-5.57Z"/><path class="cls-1" d="M915,1431l7.9-4.08,1,1.06-5,6.37Z"/><path class="cls-1" d="M1212.67,633a19,19,0,0,0,3.2-1.24c3.9-2.35,3.88-2.39,8-.33l-8.48,3.24-2.76-1.75Z"/><path class="cls-1" d="M1135.75,560.39c1.5,4,.78,4.92-4.75,6.48C1131.24,563.53,1131.24,563.53,1135.75,560.39Z"/><path class="cls-1" d="M1304.79,869.51l-7.51,3.33c0-1.84-.47-3.42.09-4C1299.1,867,1300.42,867.13,1304.79,869.51Z"/><path class="cls-1" d="M976.55,696.11l-9-2.31c.62-.86,1-1.87,1.51-2C971.42,691.36,974.61,692.77,976.55,696.11Z"/><path class="cls-1" d="M1122.66,841.94c-2.54-2.85-3.78-6-1.78-11.17l3.73,10.62Z"/><path class="cls-1" d="M840.6,1350.82a53.07,53.07,0,0,1-3.06,6.13c-.3.47-2.42.5-2.75,0-.51-.7-.65-2.45-.15-3a38.91,38.91,0,0,1,5-3.78Z"/><path class="cls-1" d="M699.74,1311.89c5.46,1.1,1.43,5,3.88,7C698.66,1318.81,698.66,1318.81,699.74,1311.89Z"/><path class="cls-1" d="M745.49,1344.37c5,.71,3.57,3.54,2.81,6.55C743.65,1350,746.33,1346.47,745.49,1344.37Z"/><path class="cls-1" d="M1031.92,505.27c1.4-2.51,1.78-5.69,5.35-4a3.07,3.07,0,0,1,.91,2.74C1037.22,507.49,1034.74,505.88,1031.92,505.27Z"/><path class="cls-1" d="M1084.62,1179.25c-1.57-5.63-1.06-6.15,4.45-5.54Z"/><path class="cls-1" d="M1024.82,1352.37c-1.68,2.51-3.07,4.14-5.66,2.53a1.88,1.88,0,0,1-.42-1.76C1020,1350.23,1022,1350.94,1024.82,1352.37Z"/><path class="cls-1" d="M1126.11,1353.22c3.14-4.57,5.12-.1,8.2-.44C1130.92,1356.27,1130.92,1356.27,1126.11,1353.22Z"/><path class="cls-1" d="M751.51,1195.65c.75-2.27,1.14-3.46,1.65-5l6,3.67C757.27,1197.19,754.89,1195.59,751.51,1195.65Z"/><path class="cls-1" d="M917.14,1356.93l-5.66,4.71c-.62-1.31-1.62-2.5-1.35-3C911.4,1356.3,913.2,1354.68,917.14,1356.93Z"/><path class="cls-1" d="M1098,1193.92l-6.76,7.66C1090.72,1195.38,1092.12,1193.69,1098,1193.92Z"/><path class="cls-1" d="M865.75,758.62c-5.42.92-5.42.92-6.79-5.46C863.67,752.39,861.52,759.3,865.75,758.62Z"/><path class="cls-1" d="M1267.27,1385.71c5.82-1.15,5.82-1.15,6.58,5.35Z"/><path class="cls-1" d="M1317.33,1406.66c-3.28,1.73-4.2.22-5.15-1.87s-.62-3.39,2.59-4.14Z"/><path class="cls-1" d="M1115.7,762.51c-1.16-1.54-4.1-2.42-2-5.2.4-.52,1.54-.47,2.34-.69.46,1.86.91,3.71,1.37,5.57Z"/><path class="cls-1" d="M1356.43,1406.14c-2.8,6.41-2.8,6.41-6.56,6.27C1351.51,1409.83,1351.47,1406.24,1356.43,1406.14Z"/><path class="cls-1" d="M967.57,1218.34c-2.69,3.16-2.69,3.16-8.46.63C960.73,1216.77,960.73,1216.77,967.57,1218.34Z"/><path class="cls-1" d="M888,786.22c-.82-4.87-.82-4.87,3.06-6.25C891.49,784,891.49,784,888,786.22Z"/><path class="cls-1" d="M896.37,790.6l4.82,5.68c-1.63.49-3.66,1.29-3.76,1.1a57.16,57.16,0,0,1-2.48-6.12Z"/><path class="cls-1" d="M1109.42,813.3c-4.18-.73-3.87-3.57-3-7.17l4.46,2.08-1.61,5.23Z"/><path class="cls-1" d="M840,1233.47c7.48-3.29,7.48-3.29,8.08,2.32Z"/><path class="cls-1" d="M1299.1,1432.09c-4,2.35-4.71,2-7.25-3C1295.7,1427.55,1296.42,1431.81,1299.1,1432.09Z"/><path class="cls-1" d="M1138,814.23c-4.32,2.48-4.32,2.48-7.85-2.34C1133.26,810.31,1135,812.71,1138,814.23Z"/><path class="cls-1" d="M1241.1,1253.93c-1.34,3.34-3.16,4.18-5.56,2.87a3,3,0,0,1-.55-2.85C1236.7,1251.24,1238.66,1252.67,1241.1,1253.93Z"/><path class="cls-1" d="M879.77,825.5c-1.37-1.76-2.86-3-2.63-3.52a6,6,0,0,1,3-2.68c.39-.16,2.25,1.55,2.17,2.27C882.16,822.71,881,823.74,879.77,825.5Z"/><path class="cls-1" d="M1154.58,960.86c1.93-3.56,3.42-5.83,7.56-4.29C1160.85,959.82,1159.13,961.59,1154.58,960.86Z"/><path class="cls-1" d="M1118.85,848.38c-4.28.53-4.28.53-5-4.53C1117.67,844.19,1117.67,844.19,1118.85,848.38Z"/><path class="cls-1" d="M1228.12,1265.47c.88-.16,1.4-.43,1.75-.28,1.53.61,3,1.34,4.51,2-.67.78-1.24,2.08-2,2.25C1229.69,1270,1227.87,1269.06,1228.12,1265.47Z"/><path class="cls-1" d="M768.87,1489.46l7.48-6.34c-.78,3.43-1.19,5.25-1.63,7.22Z"/><path class="cls-1" d="M1264.51,862.84c-2.73.6-5.17.86-5.65-2.59-.1-.72,1.7-2.44,2.58-2.41C1264.32,857.93,1264.93,860,1264.51,862.84Z"/><path class="cls-1" d="M666,1078.07c-3.79,2.69-5.9,1.81-8.24-.33C660.58,1074.24,662.75,1076.28,666,1078.07Z"/><path class="cls-1" d="M722.44,880.32l-3.92-7.12C723.7,872.93,723.7,872.93,722.44,880.32Z"/><path class="cls-1" d="M1116.38,1363.26l-5.53,1.27c.66-2.91,1.15-5.08,1.65-7.25l1.68-.15C1114.85,1359,1115.52,1360.85,1116.38,1363.26Z"/><path class="cls-1" d="M1166.31,886l6.73,2.67-3.38,4.06-4.21-5.47Z"/><path class="cls-1" d="M1127,1116.66c-.68-3.06-1.17-5.31-1.83-8.29C1131.24,1113.38,1131.24,1113.38,1127,1116.66Z"/><path class="cls-1" d="M1311.06,1116.84c-1.46,1.6-2.55,3.15-2.8,3a15.53,15.53,0,0,1-3.92-2.92c-.13-.13,1.2-2.32,1.56-2.24A31.41,31.41,0,0,1,1311.06,1116.84Z"/><path class="cls-1" d="M1165.52,1320.26l3.3-4.4c1.58,2.31,2.78,4.09,4,5.86l-1.07,1.36Z"/><path class="cls-1" d="M1146.19,394l6.33,3.17c-3.61,2.32-5.92,1.55-7.44-1.21Z"/><path class="cls-1" d="M1055.7,403.63c-2.46.36-4.63,3.32-6.94-.26C1052.84,399.26,1052.84,399.26,1055.7,403.63Z"/><path class="cls-1" d="M859.42,411.93c1.25-4.13,4.59-3.71,8.29-4.33C866,412.45,862.08,410.86,859.42,411.93Z"/><path class="cls-1" d="M616.77,1338.51c.31-2.75-.62-5.36,3-5.36.68,0,1.91.84,1.93,1.33C621.77,1337.1,620.46,1338.53,616.77,1338.51Z"/><path class="cls-1" d="M868.2,455c.92,3.18,5.32,4.77,1.18,8.32C866.16,461.16,865.7,458.82,868.2,455Z"/><path class="cls-1" d="M1363.23,981.75c-.22-2.56-.45-5.13-.7-8l4.21-1.11c-.62,3.34-1.16,6.22-1.69,9.1Z"/><path class="cls-1" d="M843.41,973.35l8.79.74C847.1,979,847.1,979,843.41,973.35Z"/><path class="cls-1" d="M1399.17,1058.86c1.53,2.93,2.25,5.07-.8,6.13a3.05,3.05,0,0,1-2.64-1.25C1394.05,1060.42,1397.16,1060.35,1399.17,1058.86Z"/><path class="cls-1" d="M1034,609.55c.84,1.15,2.07,2.39,1.89,2.64a20.45,20.45,0,0,1-3,3c-.7-1-2-2.14-1.91-3.1S1032.73,610.56,1034,609.55Z"/><path class="cls-1" d="M1278.75,1247.82c-1.73,1.42-2.77,2.63-4.08,3.22a3.35,3.35,0,0,1-2.78-.79,2.52,2.52,0,0,1-.27-2.37,2.65,2.65,0,0,1,2.09-1.15A33.64,33.64,0,0,1,1278.75,1247.82Z"/><path class="cls-1" d="M959.29,882.69c-4.34,3.46-6.19.64-8-2.21Z"/><path class="cls-1" d="M1032.5,1364.22c-.81,6.93-.82,6.93-6.07,3.65Z"/><path class="cls-1" d="M864,1378.52c4.43-.56,4.43-.56,7,2.36C867.75,1384.13,866.61,1380.9,864,1378.52Z"/><path class="cls-1" d="M1293.29,1250.78c2.45-1.44,4.72-2.28,6.94.38C1296.53,1254.24,1296.53,1254.24,1293.29,1250.78Z"/><path class="cls-1" d="M1283.9,598.79c.07,3.33-.27,5.65-3.06,4.48-.76-.31-1.07-1.69-1.59-2.59Z"/><path class="cls-1" d="M1098.19,949.19c4.27-2.43,4.67,1.53,7.3,3.51C1101.25,953.82,1100.2,950.59,1098.19,949.19Z"/><path class="cls-1" d="M918.08,917c-1.46-2.88-1.1-4.62,1.06-5.32s3.32.71,3.81,3.26Z"/><path class="cls-1" d="M1181.42,560.72c.77,2.06,1.7,3.3,1.48,4.28s-1.59,1.68-2.46,2.5c-.63-1.06-1.78-2.15-1.75-3.19S1180,562.44,1181.42,560.72Z"/><path class="cls-1" d="M987.4,1406c.31-.36.56-.92.85-.93,1.68-.11,3.83-1.16,4.43,1.51a2.52,2.52,0,0,1-1,2.2C989.27,1409.55,987.85,1408.41,987.4,1406Z"/><path class="cls-1" d="M704.57,1260.16c3.8-.52,5.54.28,5.31,3.31a2.36,2.36,0,0,1-1.5,1.7C705,1265.43,705.63,1262.64,704.57,1260.16Z"/><path class="cls-1" d="M777.73,504.32l-5-7C778.8,498.36,779.47,499.19,777.73,504.32Z"/><path class="cls-1" d="M1361,1280.43c.25-4.9,5-2.59,6-5.22C1367.81,1280.14,1363.91,1279,1361,1280.43Z"/><path class="cls-1" d="M1192.18,991.22c-.94,3-1.64,5.28-4.38,3.56-.64-.41-.32-2.33-.45-3.56Z"/><path class="cls-1" d="M838.8,427.43c1.13,2.18,1.87,4.08-.55,5.28-.67.33-2.6-.26-2.75-.77C834.88,429.76,835.75,428.11,838.8,427.43Z"/><path class="cls-1" d="M1072.46,742.61c1.88-.43,3.53-.9,5.22-1.11.45,0,1.24.63,1.44,1.15a2.47,2.47,0,0,1-.24,1.79C1076.72,744.68,1074.06,746.75,1072.46,742.61Z"/><path class="cls-1" d="M1411.37,871.33c2.16,3,2.52,5.23,0,6.68-.72.41-2.22-.54-4-1Z"/><path class="cls-1" d="M1201.43,720.76l3.89,5.4c-2.87-.43-4.81-.17-5.39-.94s-.16-2.69-.16-4.09Z"/><path class="cls-1" d="M1399.74,1007.35c-1.41,3.69-3.4,3.62-5.87,1.94C1395.63,1006.12,1395.63,1006.12,1399.74,1007.35Z"/><path class="cls-1" d="M857.93,1464c-4.62-.1-2.59-5-5.14-6.58C857.77,1459.59,858.17,1460.13,857.93,1464Z"/><path class="cls-1" d="M674.85,1298.77c2,5.16-3,3.41-4.6,5.19C669.28,1299.92,669.28,1299.92,674.85,1298.77Z"/><path class="cls-1" d="M1104.47,1311.08l6.35-5.11C1110.24,1312.65,1109.92,1312.9,1104.47,1311.08Z"/><path class="cls-1" d="M1382.77,1010.16l-5.47,2C1378.17,1007.36,1378.17,1007.36,1382.77,1010.16Z"/><path class="cls-1" d="M598.78,1320.15c-1.15-1.91-2.29-3.83-3.74-6.26C600.94,1314.69,601,1314.69,598.78,1320.15Z"/><path class="cls-1" d="M811.73,894.86c2.91-1.53,4.85-2.57,5.87.18.3.81-.89,2.18-1.4,3.29Z"/><path class="cls-1" d="M1317.79,1015.56l-4.09,3.83c-1.61-4.33-.09-5.28,2.61-5.34C1316.8,1014.56,1317.3,1015.06,1317.79,1015.56Z"/><path class="cls-1" d="M930.92,1316.9c1.19,3.69,2.12,6.32-2.7,7.81C928.33,1321.93,927.3,1319.46,930.92,1316.9Z"/><path class="cls-1" d="M1242.44,1325.4c-.57.35-1,.86-1.28.77-1.78-.56-3.52-1.25-5.27-1.89.4-.73.65-1.94,1.22-2.11C1240,1321.27,1241.73,1322.57,1242.44,1325.4Z"/><path class="cls-1" d="M1358.63,1178l-1.83-4.32,3.66-.76c.23,1.52.47,3,.7,4.55Z"/><path class="cls-1" d="M1187.74,1179.43c1.12,2.17,3.53,4.32-1.32,7.64l-.87-7.41Z"/><path class="cls-1" d="M1395.81,1328.8c-1.39.9-2.75,2.11-3,1.9a15.57,15.57,0,0,1-2.57-3.14c.86-.55,1.93-1.71,2.53-1.5C1393.79,1326.41,1394.56,1327.61,1395.81,1328.8Z"/><path class="cls-1" d="M1410.37,895.13l4.41-1.4c-.44,2.68,4,4.73.6,8.26-1.88-2.7-3.37-4.85-4.88-7Z"/><path class="cls-1" d="M1273.12,1024.56c0-5.71,0-5.71,5.1-3.53Z"/><path class="cls-1" d="M991.39,1552.46c-2.21-2-3.79-2.9-4.65-4.3-.37-.62.73-2.14,1.16-3.25.9.45,2.34.7,2.59,1.39C991.05,1547.83,991,1549.58,991.39,1552.46Z"/><path class="cls-1" d="M1166,1546.5c.19,4.32,1.67,7.76-3.77,7.8C1160.5,1550.89,1163.25,1549.55,1166,1546.5Z"/><path class="cls-1" d="M617.65,1025.85l7.81-3.82C623.56,1028.73,622.73,1029.13,617.65,1025.85Z"/><path class="cls-1" d="M669.68,1024.78c6-2.22,5.14,2,6.43,6.06Z"/><path class="cls-1" d="M905.46,1584.23c.7-3.92,2.89-3.71,6.13-2.76C910,1584.28,908.43,1585.35,905.46,1584.23Z"/><path class="cls-1" d="M1057.53,1036.62l-3.41,6.83C1051.14,1041,1051.57,1039.88,1057.53,1036.62Z"/><path class="cls-1" d="M1019,1038.12l7,4.33C1018.78,1042.89,1018.78,1042.89,1019,1038.12Z"/><path class="cls-1" d="M580.08,1352.94l6.65-3.78C587.11,1353.79,587.1,1353.8,580.08,1352.94Z"/><path class="cls-1" d="M994.64,669.6c-2.82,5.22-3,5.24-7.08,1.12C989.56,668.87,991.74,668.9,994.64,669.6Z"/><path class="cls-1" d="M1193.09,635.7a25.54,25.54,0,0,1-5.06-.77c-.65-.23-.89-1.64-1.32-2.51.77-.32,1.78-1.13,2.28-.89a42,42,0,0,1,4.71,3.05Z"/><path class="cls-1" d="M763.77,1226.9c.78-2.28,1-4.71,4-3.46.78.33,1.79,2,1.55,2.56C768.26,1228.34,766.37,1228.5,763.77,1226.9Z"/></svg>