<svg id="Layer_1" data-name="Layer 1" xmlns="http://www.w3.org/2000/svg" viewBox="0 0 2000 2000"><defs><style>.cls-1{fill:#1d1d1b;}</style></defs><path class="cls-1" d="M1343.71,1247.51c6.49.54,12.33.91,18.15,1.51,10.19,1,20.36,2.23,30.54,3.38a12.19,12.19,0,0,1,2.14.46c5.87,1.79,6.28,2.29,6.32,8.41.05,7.15,0,14.29,0,21.44,0,2-.14,3.86-2,5.36-.93.74-1.34,2.53-1.39,3.87-.26,6.4-.43,12.82-.44,19.23q0,64,0,128.09c0,7,0,13.93-.21,20.89-.1,4.41-2.53,7.36-6.87,7.76-6.38.58-12.8.71-19.2,1-3.45.13-6.67.16-9.94,2.18-3.55,2.2-8,2.38-12.25,2.36-4.93,0-9.86,0-15.2,0-1.64,3.61-3.29,7.22-5.12,11.22,2.69,2.63,5.24,5.21,7.87,7.7s5,4.81,7.77,7a5.92,5.92,0,0,1,2.29,6.27c-1.19,6.55-4.57,11.87-9.35,16.36-2,1.86-3.9,3.6-7.16,3.33-1.48-.12-3.21,1.46-4.65,2.52-2.1,1.55-4,2-6.56.76-4.27-2-8.74-3.59-13.37-5.44-1.07,1.56-2.07,2.84-2.88,4.24-3.88,6.69-8.81,12.58-13.85,18.39-6.24,7.2-12.37,14.49-18.54,21.75-.7.82-1.34,1.7-2.27,2.89,4.08,7.11,8.16,14.21,12.12,21.09a14.1,14.1,0,0,1-5.15,9.13c-2.8,2.35-5.4,5-8.41,7-3.47,2.36-7.16,3.41-11.08.25-2.14-1.73-4.7-1.25-7.13.23-2.64,1.6-5.46,2.92-8.23,4.31a5.49,5.49,0,0,1-7-1.15c-1.41-1.4-3-2.58-4.77-4-10,7.68-18.35,17.24-30.34,22.64,1.11,3.1,2.13,6,3.17,8.83,1.51,4.12,2.84,8.32,4.61,12.33,1.5,3.4.64,6-1.79,8.41a41.81,41.81,0,0,1-12.27,8.18c-2,.91-4,1.69-6,2.56-4,1.7-7.59,2.1-10.92-1.63-2.15-2.41-4.22-2.36-7.33-.4a37.11,37.11,0,0,1-10.93,4.95c-4.76,1.16-8.65.34-11.59-3.85-1.35-1.93-2.93-3.69-4.29-5.38-13.18,1.58-13.18,1.58-25,10.28.15,2.89.29,6.14.5,9.38.24,3.84.38,7.7.87,11.51a6.72,6.72,0,0,1-4.7,7.73,94.66,94.66,0,0,1-15.31,4.15c-3.41.61-7,0-8.51-4.34a24.67,24.67,0,0,0-2.67,1.38,26.92,26.92,0,0,1-12.64,4.89c-2.2.23-4.1.81-5.25,3.28-.58,1.26-2.47,2.18-4,2.73a43.16,43.16,0,0,1-18.88,2.52,20.65,20.65,0,0,1-4.26-1.38l-7.67-21.77c-.42-1.21-.84-2.42-1.2-3.65a3.07,3.07,0,0,0-3.7-2.44c-2.71.33-5.44.61-8.7,1-1,4.88-1.95,9.84-2.89,14.82-.51,2.69-1,5.4-1.37,8.11-.41,3.08-2.13,4.66-5,5.77-6.51,2.51-13,1.75-19.45.28-3-.69-4.8-2.68-5.31-6.16-1.13-7.58-2.78-15.08-4.27-22.87l-11.34-1c-1.69,4.64-3.32,9.06-4.9,13.49-1.36,3.79-2.86,7.54-3.94,11.41a5.73,5.73,0,0,1-5.55,4.46,41.83,41.83,0,0,1-18.86-2.65,8.57,8.57,0,0,1-4.19-3.27A5.06,5.06,0,0,0,928,1709a42.69,42.69,0,0,1-15.92-6.48c-2.23,4.53-6.13,5.17-10.49,4.14-4.08-1-8.16-2-12.13-3.35-5.56-1.9-6.65-3.57-6.29-9.29s1-11.68,1.49-17.52c.15-1.8.25-3.6.4-5.71l-6.42-2.33c-2.57,4.28-6.08,6.82-10.92,6a40,40,0,0,1-9.87-3.08c-2.75-1.26-5.14-3.32-8.17-5.34l-9-1.24c-1.35,1.55-3,3.23-4.43,5.08a6.26,6.26,0,0,1-6.8,2.45,53.65,53.65,0,0,1-7.73-2.61c-1.39-.57-2.43-1-4-.15a8.83,8.83,0,0,1-8.44-.47,113.09,113.09,0,0,1-11.75-7c-1.84-1.31-3-3.57-4.52-5.44l9.33-25.86c-.45-.55-.62-.94-.91-1.09-11.92-6.06-21-15.77-31.34-24-1.61-1.29-2.73-2.33-4.66-1-2.38,1.69-4.54-.89-7.36-.3-2.18,1.81-4.75,3.86-7.22,6a4.45,4.45,0,0,1-5,.88c-8.65-3.23-16.82-7.15-22.71-14.65-.56-.71-1.14-1.43-1.63-2.19-1.37-2.16-1.72-4.23-.2-6.63,2.64-4.17,5-8.51,7.45-12.81,1-1.73,1.89-3.51,3-5.51l-31.92-37.7c-3.87-.77-5.23-.75-14.48-10.52-1.52.48-3.24,1-4.92,1.57-2.74,1-5.44,2.14-8.18,3.17-4.85,1.85-7.27,1.27-10.36-3-2.46-3.4-4.59-7-6.73-10.66a15.61,15.61,0,0,1-1.54-4.07,6.05,6.05,0,0,1,2.2-6.79c4.09-3.38,7.86-7.14,11.79-10.72,1.49-1.35,3-2.63,4.78-4.13-2.39-5.4-4.59-10.34-6.93-15.6h-5.62c-9.9,0-19.8,0-29.69.05-5.6,0-10.86-.89-15.68-4a14.41,14.41,0,0,0-4.63-1.52c-4.5-1-6.93-3.74-7-8.37-.11-6.41-.11-12.82-.11-19.24q0-70.36-.07-140.73c0-2-.07-4-.08-6,0-1.34-.19-2.59-1.5-3.3a3.71,3.71,0,0,1-1.89-3.66c0-9.51,0-19,0-28.46,4.8-3.49,10.14-3.94,15.34-4.52,11.28-1.25,22.58-2.21,33.88-3.29,1.06-.1,2.12-.22,3.53-.37.18-2.14.44-4.11.5-6.08.68-23.44,1.24-46.89,2-70.33.85-26.37,1.86-52.73,2.82-79.1.36-10.07.81-20.14,1.18-30.21.9-24.53,1.71-49.07,2.67-73.61.71-17.93,1.57-35.84,3.85-53.68,2.32-18.16,4-36.41,6-54.61a23.82,23.82,0,0,1,1.31-5.86c3.05-8,6.14-16.07,9.45-24a87.1,87.1,0,0,1,4.93-9.17c2-3.51,3.94-7,6.12-10.41a62,62,0,0,1,6.14-8.38c8-8.77,16.24-17.41,24.44-26a42.17,42.17,0,0,1,5.7-5.16c3.52-2.57,5.09-5.94,5.49-10.2a225.81,225.81,0,0,1,7.22-37.7,347.74,347.74,0,0,1,17.26-48,373.48,373.48,0,0,1,32.71-59,340.43,340.43,0,0,1,25.06-32.67A291.6,291.6,0,0,1,845,575.12a167.68,167.68,0,0,1,37.17-25.2c7.19-3.5,14.92-5.88,23-9,4.29-7.37,10.68-11.82,20.59-9,.06-1.17.16-2.06.16-3q0-57.16,0-114.34c0-9.9,0-19.8.19-29.69.17-7.68.43-15.39,1.2-23,.34-3.36,2-6.61,3.15-9.86.73-2.05,1.84-4,2.5-6,2.88-9.06,5.43-18.24,8.55-27.21,2.47-7.07,5.44-14,8.51-20.81A36.27,36.27,0,0,1,961.74,283c3.79-2.69,8.36-4.45,12.8-6,16.76-5.87,33.82-4.89,51-1.81a113.37,113.37,0,0,1,22.11,6.25,18.18,18.18,0,0,1,5.51,3.39c4,3.7,8.15,7.42,10.18,12.75a16.24,16.24,0,0,1,1,2c2,8.53,5,16.86,4.92,25.8-.06,7,.12,13.92.12,20.89q0,149.53,0,299.06c0,3.82.08,7.63.13,11.69,1.91.16,3.32.31,4.73.39,7.5.43,15,.81,22.49,1.26a13.91,13.91,0,0,1,10.14,4.63c5.52,6.12,11.32,12,17.2,17.78a13.39,13.39,0,0,1,4.16,10.3c-.15,17.41-.17,34.82-.3,52.23-.05,6.77-.27,13.55-.44,20.33,0,2-.17,4-.26,6-7.87,4.93-16.82,3.7-25.62,5.45-.11,1.71-.29,3.47-.32,5.24s.13,3.27.2,4.76c1.92,2,4.23,1.51,6.36,1.75,3.08.36,6.21.55,9.23,1.2a21.26,21.26,0,0,1,5.47,2.36A6.32,6.32,0,0,1,1126,797c-.15,5.86,0,11.73,0,17.59q0,63.51,0,127c0,6.3,1.26,12.25,2.67,18.35,2.13,9.17,6.77,16,13.85,22.19,10.38,9,21.09,17.6,32.11,25.8,16.48,12.26,32,25.69,47.69,38.91,3.78,3.18,7.47,6.49,11.36,9.54,8.44,6.62,15.32,14.68,22,23,7.72,9.55,15.41,19.12,23.38,28.46a148.2,148.2,0,0,1,15.4,22c6,10.29,12,20.57,18.25,30.68,4.48,7.21,7.3,15.14,10.71,22.83,3.93,8.86,7.44,17.91,11.48,26.72,3.11,6.78,4,14.06,5.5,21.19C1341.62,1236.55,1342.6,1241.94,1343.71,1247.51Zm-357,433.39v5.22c.64-1.74.92-3.47-.11-5.11-.36-2.94.24-6.08-2.09-9.66C984.58,1675.37,984.67,1678.35,986.69,1680.9ZM809.41,850c-1.25.16-2.53.24-3.76.5-6.6,1.41-13.1,3.23-20,2.8A39.28,39.28,0,0,1,767.41,848a43.45,43.45,0,0,1-17.11-20.28c-4.57-10.52-6.33-21.81-6.67-33.18A172,172,0,0,1,747,757.39,259.23,259.23,0,0,1,760.72,710a342.18,342.18,0,0,1,28-55.87c12.67-20.25,27-39.18,44.08-56,10.46-10.28,21.56-19.78,34.14-27.47a115.06,115.06,0,0,1,24.74-11.66c3.44-1.11,7-1.86,10.72-2.84.13-1.79.92-3.53-.75-5.43-1.82.21-3.92.08-5.75.73-5.85,2.07-11.84,4-17.33,6.79a181.44,181.44,0,0,0-39.77,28.13,279.56,279.56,0,0,0-29.84,32.2,339.63,339.63,0,0,0-27.24,39.87,332.65,332.65,0,0,0-22.82,46.21c-3.88,9.86-7.74,19.79-10.65,30-5.35,18.68-9.21,37.65-9.33,57.25-.08,12.37,1,24.45,5.16,36.19,3,8.3,7.43,15.49,14.39,21a34.33,34.33,0,0,0,6.9,4.33,40.12,40.12,0,0,0,25.61,2.88c6.4-1.35,12.9-2.44,18.38-6.43,3.62-.88,3.62-.88,7.09-3.54C813.42,847.5,811,847.89,809.41,850ZM958.07,554.92l-3.47-2.72c.73,1.6,1.38,3.42,3.6,2.59-.73,2,.87,3.06,1.74,4.34a87.5,87.5,0,0,1,10.76,21.48,97.93,97.93,0,0,1,4.77,25.81,211.26,211.26,0,0,1-.82,34.56,265.6,265.6,0,0,1-7.72,39.81,343.28,343.28,0,0,1-19.64,54.08,370.56,370.56,0,0,1-26,47.66A330.31,330.31,0,0,1,896,817c-16.07,19-33.73,36.08-55,49.21a107,107,0,0,1-21.85,10.09c-6.87,2.34-14.1,3.87-21.54,3.39-2-.13-4.11,0-6.16,0,6.23,3,12.76,3.53,19.28,2.75,11.39-1.36,22-5.47,31.94-11A177.06,177.06,0,0,0,879,844.22a320.42,320.42,0,0,0,42.54-50.9,365.9,365.9,0,0,0,21.22-35.25,380.2,380.2,0,0,0,17.86-38.85,330.7,330.7,0,0,0,18-63.21c2.29-13,2.77-26.18,2.66-39.4-.12-13.5-2.1-26.59-7.17-39.15C970.55,568.66,965.57,560.9,958.07,554.92ZM771,869.58l-3.9-1.9c-.1.33-.19.67-.29,1l4.3.77c1.84,2.22,4.55,2.77,7.1,3.33,10.68,2.34,21.11.7,31.27-2.76,12.22-4.18,23.23-10.77,33.57-18.34a221,221,0,0,0,36.13-33.64,349.24,349.24,0,0,0,36.69-50.64A404.16,404.16,0,0,0,941.8,716a327.62,327.62,0,0,0,20.05-67.18c2.43-13.37,3-26.89,2.93-40.49a112.17,112.17,0,0,0-6.9-39.21,53.13,53.13,0,0,0-21.24-26.47c-.46-.31-1.2-.19-2.66-.37,1.23,1.07,1.73,1.6,2.31,2,6.52,4.61,10.46,11.35,13.74,18.22,5.24,11,7.76,22.88,8.61,35a197.17,197.17,0,0,1-2.1,45.47,294.71,294.71,0,0,1-13.4,52,380.49,380.49,0,0,1-28.4,61.75,372.12,372.12,0,0,1-26.28,39.86,282.17,282.17,0,0,1-32.36,35.87c-15,14-31.14,26.09-50.53,33.29a63.45,63.45,0,0,1-21.39,4.27C779.79,870.1,775.39,869.75,771,869.58Zm351.67,580.25c-3.1,1.29-6,3.15-9.13,3.67-10.29,1.69-20.68,2.92-31.14,2.29-5.25-.32-10.62-.5-15.48-3.07-3.52-1.87-3.71-2.1-3.36-6,.76-8.21,1.61-16.4,2.34-24.61,1-10.93,2-21.87,2.71-32.83,1-15.71,1.63-31.45,2.4-47.18.19-4,.26-8.06.39-12.08q.8-24.16,1.58-48.33a27.07,27.07,0,0,0-.44-3.85c-27-.31-53.6-1.91-80.64-.78-.08,2.25-.23,4.05-.21,5.85.33,25.47.63,50.94,1,76.4.47,28.21,1.06,56.42,1.58,84.63,0,2.16-.1,4.32-.15,6.23a20.08,20.08,0,0,1-13.09,4.61c-6.4.14-12.82-.13-19.21.19-6.15.3-11.43-1.77-16.6-4.73a5.44,5.44,0,0,1-3.12-5.24c-.06-7.7-.5-15.39-.51-23.08q-.09-54.43,0-108.85c0-9.72,0-19.43-.06-29.14,0-2,.35-4-1-6.23-25.13,0-50.32-.24-76,.3,0,2.33-.06,4.13,0,5.93.63,15,1.15,30,2,45q1,18.38,2.64,36.7,1.7,18.6,4.09,37.12c1.87,14.33,4.06,28.62,6.22,42.91.78,5.1.58,6-3.89,8.38a13,13,0,0,1-5.14,1.69c-5.66.32-11.34.55-17,.37-8.78-.27-17.54-.92-26.31-1.36a22.12,22.12,0,0,1-9.9-2.8,5.8,5.8,0,0,1-3.35-5.68c0-6.78-.26-13.56-.26-20.34q-.06-70.1,0-140.19c0-2.14-.13-4.27-.21-6.78-2.36,0-4.16,0-6,0q-25.83.55-51.64,1.16a13,13,0,0,0-2.46.64c.28,4.49.53,8.85.82,13.21,1.4,21.19,2.79,42.39,6,63.4,1.76,11.58,3.28,23.21,5.49,34.7,2.39,12.39,5.32,24.68,8.26,37,1.57,6.57,3.7,13,5.51,19.53,1.24,4.42-.09,6.92-4.42,8.52a12,12,0,0,1-3.16.88c-4.75.35-9.5.84-14.25.81-8.24-.07-16.48-.43-24.71-.78-5.67-.24-11.34-.55-17-1-5-.44-7.77-3.65-7.9-8.63-.18-6.41-.5-12.82-.52-19.23q-.3-65.68-.5-131.39c0-3.85,0-7.7,0-11.54a30.69,30.69,0,0,0-.47-3.55c-9-.82-29.31.65-34.27,2.53,0,1.3-.11,2.75,0,4.19.62,7.11,1.19,14.23,2,21.33,1.87,17.09,3.1,34.27,6.74,51.14,2.92,13.58,4.67,27.42,8.84,40.74,5.2,16.57,8.93,33.61,16.07,49.55.22.5.31,1.06.53,1.56a4,4,0,0,1-1,5,10.72,10.72,0,0,1-4.06,2.63,34.54,34.54,0,0,1-8.09,1.13c-7.67.14-15.35,0-22.84,0l-2.75,5,8.9,20c2.3-2,4.17-3.63,6.15-5.19,2.54-2,2.86-1.8,5.76,0,3.14,1.88,5.07,4.76,6.9,7.68,3.2,5.11,6.39,10.25,9.1,15.63,2.14,4.23.63,7.19-3.77,9.09-1.76.76-3.49,1.59-5.65,2.57,4.22,6.36,7.77,12.6,12.2,18.14,7.88,9.87,16.28,19.33,24.51,28.92a6.74,6.74,0,0,0,3,2.2c3.19.86,5.36,2.92,7.45,5.28s4.2,4.42,6.76,7.08c1.64-3.16,2.9-5.76,4.31-8.26a47.14,47.14,0,0,1,3.82-6,3.22,3.22,0,0,1,2.79-1.07c3.34,1.35,7.06,2,9.8,4.62,2.24,2.17,4.59,4.22,6.8,6.41a55.5,55.5,0,0,1,8.72,11.51,52.89,52.89,0,0,1-3.58,4.28c-2.76,2.67-5.69,5.16-8.48,7.8a29.24,29.24,0,0,0-2.46,3.15c11.83,10.28,22.57,21.37,37.11,27.78l2.18-3c8.24-.76,14.25,5,21.69,7.46a25.51,25.51,0,0,0,1-3.23c.46-3,2.22-4.71,5-5.9a7.24,7.24,0,0,1,3.58-.64,43.35,43.35,0,0,1,19.07,6.14c4.48,2.59,7.35,6.35,10.67,10.46L858.49,1657a365.75,365.75,0,0,0,53,17.64l1.55-7.1c2.48-1.93,5.25-1.94,8-2.09,9.44-.51,18.06,2.26,26.26,6.59,4.72,2.5,4.7,2.63,3.22,7.66-.19.66-.27,1.36-.4,2,4.88,1.66,26.53,3.81,30,3.13,2.44-3.49,2-7,1-10.65-.31-1.14-.37-2.86.27-3.66,2-2.55,4.12-5.56,7.73-5.66,7.31-.2,14.64-.12,22,.09,3.24.09,4.88,3,7,5,1.82,1.74.81,3.94.32,5.72a10.73,10.73,0,0,0,2,9.9c4.77-.46,9.78-.46,14.54-1.52,5-1.11,10.28.33,15-2.38-.68-2.16-1.32-4.22-2-6.4,6.23-5.7,14-7.8,21.55-9.24,5.69-1.07,12-1.79,17.58,1.47.41,2.41.77,4.55,1.13,6.66,7.31-.61,31.88-8.34,36.18-11.37-.93-1.36-1.86-2.72-2.8-4.06q-5.68-8.1-11.36-16.19c-.86-1.22-1.93-2.56-1-4,1.73-2.77,3.24-6,5.73-7.89,5.4-4,11.35-7.3,18.41-7.71a24.46,24.46,0,0,1,9.19.8c2.78.9,4.39,2.21,4.73,5.22a30.61,30.61,0,0,0,1.82,7.83c4.87-2.86,9.43-5.47,13.93-8.19,4.69-2.83,9.81-3.72,15.64-3.74,1.38,2.14,2.83,4.39,4.13,6.39,4.95-1.62,10-2.76,14.5-4.91a70.68,70.68,0,0,0,12.42-8c5.07-3.91,9.8-8.27,14.66-12.45,3.86-3.32,7.7-6.67,11.83-10.26l-3.83-3.64c-1.56,1.74-2.78,3.31-4.22,4.65a22.65,22.65,0,0,1-5.18,4c-2.93,1.4-6.11,3-9.2,3.06-2.09,0-4.41-2.27-6.29-3.91-4.54-4-8.91-8.17-13.31-12.32-2.74-2.6-2.66-3.08-.86-6.59,2.74-5.34,7.25-9.13,11.22-13.43,3.56-3.85,8.39-4.08,12.91-5.22a4.83,4.83,0,0,1,3,.91,11.4,11.4,0,0,1,5,5.65c1.8,4.41,3.74,8.75,5.7,13.08a20.76,20.76,0,0,0,1.88,2.89c5.55-5.38,10.82-10.45,16-15.56a15.43,15.43,0,0,1,8.57-4.53c1.51,2.19,2.92,4.24,4.63,6.74,11-13,21.83-25.68,32.37-38.55a51.17,51.17,0,0,0,6.82-10.9c-.59-.58-.79-.94-1.09-1.06-3.54-1.49-7.09-3-10.64-4.41-3.22-1.31-6.49-2.48-9.64-3.94-4.23-1.95-6.53-5.58-5.38-9.08,1.54-4.64,2.62-9.55,6.31-13.24a57.34,57.34,0,0,0,4.16-5.12c2.68-3.43,6.36-5.2,10.43-6.64,6.3,5.48,11.5,11.91,18,16.62.58-.26.79-.29.9-.41,4.06-4.3,5.47-10.89,11.6-13.4.12,0,.15-.32.22-.49,2.31-5.13,4.89-10.15,6.71-15.62-5.8-2-12.85.74-16.34-5.74-2.74,0-5.12,0-7.49,0-11.9.24-23.8.61-35.7.69a28.38,28.38,0,0,1-8.6-1.42c-3.89-1.23-5.1-4.18-3.76-8.15,1.87-5.54,4.11-11,5.68-16.61,3.47-12.51,6.95-25,9.83-37.7,2.62-11.59,4.58-23.34,6.6-35.06,1.43-8.29,2.59-16.63,3.64-25q1.62-13.08,2.78-26.21c.69-7.84,1.14-15.71,1.6-23.57a21.77,21.77,0,0,0-.49-4c-15-1.52-41.92-2.26-47.83-1.58v6.46q0,49.48,0,99,0,30-.29,59.92c0,5.66-.69,6.57-5.88,8.44a18.87,18.87,0,0,1-5.34,1.14c-9.32.51-18.64.89-28,1.3-2.75.13-5.5.39-8.24.29-5.64-.19-11.41.33-16.85-1.57-5.87-2-6.79-4.38-5.21-8.93.18-.51.18-1.08.32-1.61,5-19,7.84-38.36,11.08-57.66,1.61-9.56,2.53-19.24,3.52-28.89,1.43-14,2.76-28,3.89-42.09.86-10.77,1.35-21.57,2-32.35.09-1.58,0-3.18,0-5.3-23.44.2-46.37-2-69.76-.84v7q0,64.32,0,128.64C1124,1425.55,1124.11,1437.28,1122.67,1449.83Zm217.65-202.33c-1.42-7-3-13.43-4-19.93-1.13-7.71-3.78-14.83-6.95-21.87-2.78-6.17-5.15-12.52-8-18.68-3.71-8.14-6.52-16.69-11.3-24.36-5.42-8.7-10.4-17.67-15.74-26.42-4.48-7.33-8.39-15-14-21.68-9.53-11.37-19-22.77-28.24-34.41a166.72,166.72,0,0,0-24.35-24.48c-20.95-17.49-41.57-35.39-63.62-51.53a264.44,264.44,0,0,1-25.31-21.1c-2.13-2-4.33-3.95-6.46-6a10.44,10.44,0,0,0-6.86-3c-7.29-.47-14.54-1.47-21.84-1.81-12.62-.58-25.25-1.1-37.88-1.16-54.61-.25-109.22-1-163.8,1.06-9.12.35-18.22,1.44-27.34,1.86a12.92,12.92,0,0,0-8.68,3.95c-9.89,9.27-20,18.31-30.94,26.34q-15.07,11-29.53,22.88c-14.28,11.75-28.33,23.79-42.36,35.85a84.1,84.1,0,0,0-9.61,9.73q-14.83,17.68-29.35,35.63c-4.38,5.39-9,10.56-12.52,16.66-5.54,9.7-11.39,19.21-17,28.87-3.58,6.16-7.32,12.27-10.36,18.71-4.28,9.09-8.06,18.43-11.88,27.74-3.47,8.43-7.7,16.6-9.07,25.81-.84,5.6-2.14,11.14-3.15,16.72a36.73,36.73,0,0,0-.31,4c.5.37.65.58.79.57,8.75-.57,17.5-1.24,26.26-1.71,9.13-.49,18.28-.81,27.43-1.15q16.18-.6,32.38-1.09,21.15-.62,42.29-1.1,28.58-.62,57.16-1.1c30.41-.5,60.83-.52,91.25-.86,47.26-.51,94.54-.8,141.82.42,33.7.87,67.44.11,101.14,1.31,13,.46,26,.62,39,1q22.51.57,45,1.22l47.22,1.36c.91,0,1.82.18,2.74.23ZM986.65,655.83l79,1.09c.11-2.73.3-5.24.3-7.75q0-122.29,0-244.59c0-23.81-.09-47.63,0-71.45a99.25,99.25,0,0,0-4.27-30.3c-2.85-9-8.4-15.59-17.4-19.13-12.22-4.81-25-6.54-38-7.55a77.16,77.16,0,0,0-29.76,3.53C971.32,281.34,966,283,962,287a39.23,39.23,0,0,0-8.67,11.94C950,306.47,946.75,314,944,321.78c-2.87,8.1-5.07,16.42-7.68,24.61a40.17,40.17,0,0,0-2,12.41c0,24.36,0,48.73,0,73.1q0,38.48,0,77c0,2.12-.44,4.37,1,6.52,2.59,0,5.15.2,7.66,0,3.24-.32,5.62.91,7.82,3.11a36.56,36.56,0,0,1,7.54,12c2.78,6.65,4,13.65,4.92,20.76a10.87,10.87,0,0,0,1.4,4.55c2.38,3.67,5.1,7.12,7.6,10.72,7.31,10.55,11.56,22.35,14,34.86a136.61,136.61,0,0,1,1.54,41.55C987.33,647,987.05,651.23,986.65,655.83Zm141.78,314.68c-1.07-3.7-1.87-6.88-2.91-10a50.21,50.21,0,0,1-2.68-16.71c.09-8.06-.19-16.12-.2-24.18q0-58.78,0-117.59v-6.88a33.36,33.36,0,0,0-5-1.12c-13.14-.78-26.29-2-39.44-2.09-45.42-.31-90.85-.23-136.28-.28-3.09,0-6.18.18-9.33.28-1.61,2.26-3.13,4.3-4.56,6.42A277.41,277.41,0,0,1,880,853.06c-1.81,1.57-2.83,3.16-2.75,5.58.09,3.3,0,6.6,0,9.89-.17,26-.38,52-.49,78a37.73,37.73,0,0,1-1.87,11.84c-1.3,3.91-2.26,7.94-3.44,12.18,2.36,0,4.18.11,6,0,8.2-.61,16.38-1.53,24.59-1.87,13.9-.57,27.81-1,41.72-1.12q40.13-.33,80.23-.18c14.46,0,28.92.48,43.38.85q20.31.53,40.6,1.3c4.56.17,9.11.69,13.66,1C1123.54,970.61,1125.54,970.51,1128.43,970.51ZM668.59,1198.22l1,.2c1.45-3.28,3-6.52,4.31-9.84,5.15-12.73,10.75-25.22,18.17-36.86,4.92-7.71,9.49-15.65,14-23.59A137.49,137.49,0,0,1,720.36,1108c7.53-9,14.69-18.29,22.48-27,5.63-6.31,9.44-12.91,8.14-21.65a8.26,8.26,0,0,1,.07-1.64c.65-15.19,1.35-30.37,1.93-45.56.5-13,.58-26,1.34-39,.69-11.87,2-23.71,3.13-35.55,1.54-15.85,3.19-31.68,4.81-47.53a40.68,40.68,0,0,1,3.15-12.72c.66-1.47,1.13-3,1.61-4.33-3.48-2.9-6.76-5.53-9.92-8.29a65,65,0,0,1-16.59-23,69,69,0,0,1-6.21-24.36,77.32,77.32,0,0,0-1.32-8.19c-1.77,1.63-3.14,2.75-4.34,4-6,6.39-12,12.9-18.07,19.21a61.59,61.59,0,0,0-7.26,9.6c-7.31,11.28-12.64,23.5-17.36,36a27.43,27.43,0,0,0-1.63,5.79c-.56,4.17-.83,8.38-1.26,12.56q-1.32,13.13-2.67,26.23c-1.26,12-3,24-3.74,36-1.12,18.09-1.6,36.22-2.29,54.34-.5,13.18-.82,26.36-1.33,39.54-.58,15.18-1.33,30.37-1.9,45.55q-.86,22.51-1.47,45c-.47,16.48-.85,33-1.24,49.44C668.38,1194.42,668.53,1196.32,668.59,1198.22Zm728.42,59c-2.3-.66-3.83-1.2-5.4-1.54-12-2.52-24.29-3-36.46-4.1s-24.45-1.56-36.69-2.21c-8.77-.46-17.55-.79-26.32-1.13q-15.09-.58-30.18-1.06c-13.18-.4-26.36-.8-39.54-1.1q-28.29-.64-56.59-1.12c-34.25-.54-68.51-.66-102.76-1-50.19-.45-100.39-.89-150.59.53-32.22.92-64.48-.26-96.71,1.17-16.28.73-32.59.76-48.88,1.16q-19.21.48-38.43,1.12c-9.69.31-19.38.7-29.07,1.07-10.24.39-20.49.66-30.72,1.21-12.6.67-25.2,1.38-37.77,2.44-7.81.66-15.58,1.93-23.35,3a26,26,0,0,0-4.34,1.36c-1.34,6.16-1.34,20.88-.23,24.85,13.33-1.46,26.56-3.13,39.83-4.29,12-1,24.08-1.59,36.13-2.25,8.4-.46,16.81-.78,25.22-1.11,9.88-.4,19.75-.79,29.63-1.1q19.22-.62,38.43-1.1c17-.41,34.06-.87,51.09-1.08,36.63-.47,73.27-.79,109.9-1.16,4.77-.05,9.53-.13,14.3-.11,58.62.21,117.25-.66,175.87.9,23.61.63,47.25.76,70.87,1.2,14.09.26,28.19.65,42.28,1q26.09.66,52.16,1.36c2.75.07,5.5,0,8.24.14,11.14.61,22.27,1.3,33.41,1.91,9,.49,17.91.83,26.85,1.35,4.74.28,9.49.68,14.2,1.26,8.62,1.06,17.21,2.29,26.32,3.52C1397.48,1274.13,1397.25,1265.93,1397,1257.25Zm-642.18-191.8c1.33-1,2.52-1.74,3.59-2.64,4.64-3.87,9.23-7.8,13.87-11.67,16.16-13.49,31.92-27.46,48.76-40.14,12.56-9.48,25.28-18.76,36.74-29.64,9.33-8.86,9.53-8.69,13-21.3,1.07-3.86,2.4-7.83,2.44-11.75.26-28.2.22-56.41.24-84.61a36.94,36.94,0,0,0-.52-4.17c-1.17.74-1.91,1.17-2.61,1.65-9.62,6.67-19.22,13.31-30.27,17.55-13.68,5.25-27.61,8.27-42.34,6.53a38.74,38.74,0,0,1-19.5-7.87,13.61,13.61,0,0,0-7.64-3.25c-1.17,2.77-2.48,5.38-3.37,8.12a35.73,35.73,0,0,0-1.4,7c-.61,5.09-1,10.2-1.56,15.3-1.28,12.19-2.63,24.38-3.86,36.58-.93,9.29-2,18.57-2.48,27.89-.73,13.53-1,27.09-1.47,40.63-.5,13-1.16,26-1.61,39C754.67,1054.05,754.83,1059.52,754.83,1065.45ZM985.89,659.71a311.76,311.76,0,0,1-13.78,53c-6,17-13.69,33.42-22.09,50.2h7.31c37.55.12,75.1-.85,112.63.82,13,.58,26,.85,39,1.35,3.09.11,6.17.63,9.26.85,1.77.12,3.56,0,5.76,0,.11-2.27.26-4.24.29-6.21q.15-11.26.24-22.53c.12-15.57.21-31.14.36-46.71a8,8,0,0,0-2.27-6c-6.66-6.8-13.27-13.66-20.07-20.31a9.08,9.08,0,0,0-4.87-2.07,117.47,117.47,0,0,0-12-1.07c-10.6-.45-21.21-1-31.83-1.09-20.33-.23-40.67-.2-61-.27Zm-66.11-50.32a89.61,89.61,0,0,0-21.34,18.05c-5.33,6.15-11.21,11.5-19.36,13.71a32.08,32.08,0,0,0-5.55,2.35,12.21,12.21,0,0,0-3.2,2.07A38.87,38.87,0,0,0,859,667.05c-1.29,7.57-1.95,15.26-3.43,22.78-1.2,6.13-3.65,11.85-8.5,16.21-20,18-39.92,36.1-60,54a18.59,18.59,0,0,0-6.18,10.59c-3.84,18.26-5,36.62-2,55.08.8,4.91,2.81,9.62,4.36,14.78,3.16-3.45,5.83-6.43,8.57-9.34,6.9-7.33,13.56-14.91,20.82-21.87,9.37-9,19.22-17.5,28.87-26.21l30.31-27.33c0-4,.06-8.05,0-12.07-.31-17.75-1-35.5-.18-53.27a13,13,0,0,1,3.85-9.29c5.44-5.44,10.91-10.87,16-16.64,3.69-4.21,8.19-5.83,13.47-6.12,7.12-.4,14.24-.75,21.36-1.16a34.75,34.75,0,0,0,3.48-.55,10.64,10.64,0,0,0,.25-1.45c0-8.24,0-16.49-.06-24.73,0-3.82-.28-7.64-.43-11.46q-4.38-4.53-8.78-9A7.07,7.07,0,0,0,919.78,609.39Zm32,665.27c-.73,7.34-.53,166.15.25,170.87,9,.42,18-1.06,27.42-.92.08-2.61.2-4.76.2-6.92q0-55.21,0-110.43c0-15.93,0-31.86,0-47.79,0-1.93.64-4-.78-5.73C967.34,1272.91,956,1273.27,951.77,1274.66Zm164,170.34c.07-2.19.2-4.53.2-6.86q0-76.92,0-153.84c0-2,.06-4,0-6a32,32,0,0,0-.54-3.52c-9.11-.81-22.62-.55-26.83.56-.07,1.7-.22,3.5-.22,5.3,0,6.41,0,12.82,0,19.23q0,69.23,0,138.46c0,2.31.21,4.62.32,6.81C1095.28,1446,1111.25,1446,1115.79,1445ZM895.36,764.63l5.46-9.07a340.55,340.55,0,0,0,22.27-43.95,366.83,366.83,0,0,0,13.51-39.36c1-3.57,2.1-7.22,2-10.93a7.47,7.47,0,0,0-1.42-.42,284.81,284.81,0,0,0-35.05,1.2,9.69,9.69,0,0,0-6.24,3.06c-5.25,5.36-10.53,10.69-15.91,15.91a16.06,16.06,0,0,0-5.08,12.69c.37,23,.4,46.1.59,69.16a22.35,22.35,0,0,0,.57,3.31ZM845,1274.91c-10.22-.87-17-.49-24.19,1.3-1.2,6.2-.91,162.43.38,170.32,7.93.75,15.84-.19,23.71-1.07C845.67,1441,845.78,1280.75,845,1274.91Zm391.72,173c1.4-7.27,2-163.68.72-171-7.13-.2-14.27-1.88-22.1-.84v6.68q0,61.83,0,123.66c0,11.54-.31,23.08-.43,34.62,0,2.13.2,4.26.32,6.64,1.57.09,2.63.21,3.7.21C1224.69,1447.88,1230.53,1447.87,1236.67,1447.87ZM907.57,571.45c-15.49,2.75-46.65,24.41-52.11,33.38A21.93,21.93,0,0,1,863,617c-9.42,12.13-19,24.12-28.22,36.4s-16.84,25.23-24,38.62a358.24,358.24,0,0,0-19.26,42.75,21.32,21.32,0,0,0,2.74-1.55q20.79-18.36,41.54-36.77a20.41,20.41,0,0,0,6.42-12.43c1.2-7.4,2.47-14.79,3.65-22.19,1.3-8.12,4.83-15.45,9.3-22.06,6.44-9.51,9.56-11.21,20.68-15.19a3.18,3.18,0,0,1,.53-.14,13.73,13.73,0,0,0,6.45-4q6.11-6.33,12.35-12.5a21.3,21.3,0,0,1,4.18-3.49c7.44-4.27,14.82-8.69,22.87-11.8,1.18-.45,2.32-1,3.39-1.5,1.09-9.44,1.06-10.55-.32-14C916,577.15,916,577.15,907.57,571.45ZM1334,1455.19c5.9.83,29,.53,33.14-.56v-6.39q0-29.38,0-58.76,0-48.87-.08-97.74c0-2.14.38-4.37-.74-6.58l-8,.73c-.39,2-.89,3.75-1.06,5.52-.83,8.74-1.35,17.51-2.42,26.22-1.64,13.23-2.75,26.54-5.44,39.64-3.9,19-7.38,38-13.56,56.47a26.1,26.1,0,0,0-1.07,7.55C1334.47,1432.59,1334.28,1443.89,1334,1455.19Zm-631.71-1.94c-.68-1.91-1.18-3.26-1.66-4.63-2.18-6.2-4.45-12.38-6.5-18.63-8.87-27-14.76-54.7-19.4-82.68-1.14-6.85-1.79-13.79-2.52-20.7-1-9.46-1.87-18.93-2.78-28.4-.46-4.68-.9-9.37-1.39-14.4l-8.27-1c-.09,2.49-.23,4.64-.23,6.79q0,70.32-.06,140.65c0,6.23,0,12.46,0,18.68a36.24,36.24,0,0,0,.61,4.37Zm-45.78-212.49.67,0c.25-1,.48-2.08.75-3.11,2.16-8.49,2.6-17.38,5.87-25.63a8.41,8.41,0,0,0,.21-2.72q1.08-32.38,2.14-64.78c.45-13.73.83-27.45,1.35-41.18.58-15.37,1.34-30.73,1.92-46.1.56-14.63.94-29.28,1.49-43.92.54-14.27,1.43-28.53,1.73-42.8.27-12.67,1.88-25.18,3.14-37.75,1.23-12.19,2.35-24.4,3.7-36.59.87-7.78,1.26-15.59,4.48-23.05,4.71-10.92,9.14-21.93,15.87-31.84.51-.75.9-1.6,1.42-2.35a51.93,51.93,0,0,1,4.17-5.74c8.22-8.86,16.58-17.58,24.8-26.43a13.94,13.94,0,0,0,2.8-4.56c.71-1.91.24-6.37-.53-9.73a35.41,35.41,0,0,0-3.44,2.75c-7.53,7.74-15.05,15.48-22.48,23.3-3,3.18-6.36,6.25-8.63,9.93-6.21,10.11-12.79,20.06-16.7,31.43-1.61,4.66-3.59,9.2-5.33,13.82a24,24,0,0,0-1.56,5.23c-.85,6.71-1.54,13.45-2.27,20.19q-2,18.83-4.05,37.66c-.88,8.37-2,16.73-2.49,25.13-.72,12.61-.93,25.25-1.43,37.87-.59,14.64-1.31,29.27-1.87,43.9-.54,13.91-.91,27.82-1.45,41.73-.56,14.27-1.34,28.53-1.82,42.8-.53,15.74-.82,31.48-1.23,47.23-.19,7.14-.42,14.28-.59,21.42q-.49,21.15-.93,42.29A8,8,0,0,0,656.54,1240.76ZM1302.41,1451c.91-7,.68-165.52-.27-170l-6.57.73c-.38,2.54-.81,4.67-1,6.81-1.61,17.87-2.68,35.8-4.9,53.59-2,16-4.6,31.92-8.14,47.61-4.39,19.42-9,38.86-15.75,57.67-.52,1.44-1.56,2.91-.21,5ZM729.85,1278.09h-18a11.84,11.84,0,0,0-.59,2.39q0,83.51,0,167a12.11,12.11,0,0,0,.61,2.45c3-.28,5.85-.58,8.71-.79,3-.22,6.15.25,9.26-.71ZM871.8,760.61c-2.31,1.92-3.86,3.13-5.32,4.45q-16.32,14.67-32.61,29.38c-7.19,6.49-14.57,12.79-21.44,19.61-7.52,7.47-14.57,15.42-21.77,23.2A54.9,54.9,0,0,0,787,842c-1.27,1.72-.86,3.36.19,5.08,1.93,3.15,4.84,2.78,7.79,2.39,9.19-1.19,17.68-4.61,25.68-9,11.44-6.23,21.65-14.25,31.26-23,11.1-10.17,20.71-21.67,30-33.45,2.31-2.93,5-5.77,6-9.31-3.94-1-7.63-1.94-11.35-2.79-3.13-.71-4.75-2.42-4.49-5.78A51,51,0,0,0,871.8,760.61ZM743.43,1278.66c-.11,3.38-.27,5.92-.27,8.45q0,77.69-.06,155.38a22.92,22.92,0,0,0,0,2.75c.15,1.21.43,2.41.64,3.5,8.12,1.46,26,2,32.18.87-16.23-55.21-23.36-111.83-26.28-169.23Zm-125.75,9.6c-.83,5.19-.8,164.3.13,169.5,2.59,0,5.3.07,8,0s5.38.44,7.67-.35c0-3,0-5.54,0-8.1-.08-30.78-.08-61.56-.3-92.33,0-6.57-.72-13.15-1.38-19.7-1.28-12.74-2.75-25.46-4.16-38.19-.39-3.43-.85-6.85-1.26-10.12C622.17,1287.49,622.17,1287.49,617.68,1288.26Zm712.48,162.79c.12-1.24.25-2.12.27-3,.17-10.8.45-21.61.47-32.41q.09-61.25,0-122.5c0-3.12,0-6.23-.06-9.34a20.14,20.14,0,0,0-.69-3.44c-7-.84-10.12-.71-14.2.66V1288q0,62.34,0,124.7c0,10.8,0,21.61,0,32.41,0,1.94-.38,4,.94,6ZM1097.44,771.81c-11-.64-21.4-1.7-31.78-1.78-37.53-.26-75.06-.2-112.59-.24-2.35,0-4.7.15-6.77.22-5.18,7.32-7.24,11.36-7.52,14.82h4.93l118.08.06q3,0,6,.11c8.41.32,16.82.68,25.23,1a35.61,35.61,0,0,0,4.38-.4ZM923.8,546c1.85,1.62,3.14,2.91,4.58,4,6.2,4.65,10,11.21,13.31,17.89,5.12,10.45,7.39,21.8,8.19,33.37a174.92,174.92,0,0,1-1.11,36.73,302.72,302.72,0,0,1-16.13,62.57A348.89,348.89,0,0,1,873.7,802.09c-15.62,18.42-33,34.89-54,46.95a99.5,99.5,0,0,1-19,8.4,64.6,64.6,0,0,1-23.85,2.63,36,36,0,0,1-17.41-6c-5.13-3.34-9.91-7.48-12.81-13.29-.94-1.88-1.88-4-4.53-5.89a35.15,35.15,0,0,0,.87,4.06,26.05,26.05,0,0,0,1.85,4c1.07,1.92,2.22,3.8,3.43,5.63,7.06,10.68,16.58,17.27,29.73,17.82,1.09,0,2.16.4,3.25.48a25.1,25.1,0,0,0,5.46.22,95.79,95.79,0,0,0,33-11.3,177.82,177.82,0,0,0,34.68-25.89,300.86,300.86,0,0,0,36.94-42.73,359.42,359.42,0,0,0,26.08-41.92,344.85,344.85,0,0,0,19.44-43,349,349,0,0,0,12.82-41.93,213.55,213.55,0,0,0,5.9-55.52c-.09-2.93.19-5.9-.23-8.78-1.48-10.13-3.2-20.19-7.3-29.74-4.22-9.85-10.32-18-19.63-23.79C927,543.55,925.67,544.53,923.8,546Zm-150,301.18c-.18-.61-.17-1-.37-1.22a26.64,26.64,0,0,0-2.4-2.24c-5.8-4.59-9.24-10.87-11.91-17.49-3.74-9.24-5.27-19-5.66-28.95a163.41,163.41,0,0,1,1.77-28.46c2.65-19.72,8.35-38.59,15.54-57A248.62,248.62,0,0,1,787,677c6.06-10.44,12-21,18.8-31a263.65,263.65,0,0,1,41.53-48.14c14-12.52,28.93-23.55,46.86-29.89,2.75-1,5.54-1.83,8.29-2.79a7.85,7.85,0,0,0,1.55-1.11c-.34-1.29-.68-2.63-1.07-4.15-9.08.73-17,4.24-24.55,8.08-19,9.65-35,23.23-49.5,38.7a312.45,312.45,0,0,0-24.32,29.74,336.51,336.51,0,0,0-30.55,51.35,307.34,307.34,0,0,0-16.35,41.28c-7.15,22.53-11.3,45.43-10.15,69.14.63,13.19,3.23,25.8,11,36.8C762.4,840.45,767.12,844.85,773.76,847.13Zm427.7,431c-3.2-.43-3.81,1.33-3.93,3.58-.35,6.4-.59,12.81-1.09,19.19-1.34,17.15-2.53,34.32-4.28,51.43-1.46,14.37-3.19,28.75-5.57,43-2.74,16.41-5.15,32.9-9.41,49a30.11,30.11,0,0,0-.45,4.45c8.61.86,16.69-.18,24.7-1.17C1202.51,1442.65,1202.53,1283.43,1201.46,1278.09ZM784.29,756.4l.84.74c1.11-.9,2.27-1.76,3.33-2.71,17.54-15.81,35-31.72,52.66-47.39,4.23-3.75,7.72-7.9,9.53-13.16a74.39,74.39,0,0,0,2.52-11.73c1.65-9.69,1.88-19.7,6.84-28.61,3.45-6.19,7.6-11.58,14.54-14.22,3.07-1.17,6-2.7,9.08-3.82a19.11,19.11,0,0,0,7.5-5.3c7.25-7.74,14.38-15.58,23.29-21.6,4.84-3.26,9.25-7.17,13.83-10.82.9-.72,1.7-1.58,2.57-2.4a4.22,4.22,0,0,0-4.88-.54c-13.25,5.48-26.17,11.43-35.68,22.76-1.41,1.68-3,3.21-4.48,4.83a15.47,15.47,0,0,1-7.22,4.72,88.68,88.68,0,0,0-10.14,4.13,12.41,12.41,0,0,0-3.67,2.29A54.69,54.69,0,0,0,849.54,661c-1.67,7.29-2.7,14.74-3.79,22.16-.94,6.39-3.39,11.89-8.28,16.21-3.7,3.28-7.36,6.61-11.06,9.88-11.25,9.93-22.55,19.81-33.74,29.82a16.9,16.9,0,0,0-4.35,5.49C786.66,748.36,785.6,752.44,784.29,756.4Zm-147.2,526c-.09,1.54-.22,2.78-.22,4q0,81.33,0,162.65a37,37,0,0,0,.4,4h8.92c1.19-6,.8-163.87-.39-170.73-1.52-.09-3.12-.25-4.73-.26C639.85,1282.11,638.62,1282.29,637.09,1282.42Zm221.07-5.73v169.74c6,1.39,11.85,2.09,17.78,1.22a16.83,16.83,0,0,0,0-2.06c-2-13.74-4.28-27.45-6.07-41.23-1.5-11.6-2.64-23.26-3.64-34.92-1.43-16.76-2.76-33.54-3.82-50.33-.78-12.41-1.06-24.86-1.57-37.29C860.76,1280,860.86,1278.17,858.16,1276.69ZM778.66,844.6a18.12,18.12,0,0,0-1.17-2.28c-5-7.48-7.42-15.92-8.65-24.65a136.76,136.76,0,0,1-.37-35.59,232.38,232.38,0,0,1,9-41.79,305,305,0,0,1,20.94-50.64c8.08-15.42,16.87-30.42,27.54-44.2,7.17-9.27,14.79-18.18,22.19-27.26a9,9,0,0,0,.78-1.83L845.3,613c-5.95,6.87-11.89,13.12-17.14,19.9a346.22,346.22,0,0,0-33.41,51.53c-15,28.76-26.48,58.69-31,91-2.55,18.27-2.8,36.47,3.25,54.3C769.13,836,772.29,841.29,778.66,844.6Zm557.37,440c-.64.58-.85.68-.89.83a6.49,6.49,0,0,0-.36,1.6c-.08,1.46-.1,2.93-.1,4.39q.06,54.69.14,109.37a.8.8,0,0,0,.23.49c.08.09.25.11.38.16,7.85-16.32,20.56-103.92,17.61-115.35C1347.34,1285.48,1341.47,1284.75,1336,1284.58ZM738.46,1448.81a8.59,8.59,0,0,0,.61-1.37,7.41,7.41,0,0,0,.19-1.63q0-81.32,0-162.64c0-1.27-.16-2.55-.25-3.82a1.32,1.32,0,0,0-.16-.52,4.07,4.07,0,0,0-.55-.62h-4.66v4.7q0,75.27.07,150.55c0,4.75.53,9.49.85,14.23,0,.31.36.6.69,1.12Zm36.17-622.23.69-.15c-.2-2.16-.4-4.32-.62-6.47-.24-2.37-.59-4.73-.73-7.1-1.29-23,2.85-45.23,9.53-67.05a306.6,306.6,0,0,1,20.23-49.75c8.67-17,18.38-33.33,30-48.45,5.93-7.68,12.13-15.14,18.12-22.77,1.16-1.48,2.94-2.7,3.12-4.75-2.34-1.8-3.64-.41-4.87,1-4.65,5.42-9.47,10.71-13.89,16.31a330.41,330.41,0,0,0-42.59,70.22c-11.46,25.74-19.89,52.3-22.24,80.54a122.47,122.47,0,0,0,1.8,34.44A29.22,29.22,0,0,0,774.63,826.58ZM893.88,571.73c-3,1.21-6.09,2.19-8.93,3.67a160.9,160.9,0,0,0-31.25,21.24c-17.94,15.56-33.17,33.59-46.43,53.22a325.7,325.7,0,0,0-29.22,53.32,307,307,0,0,0-13.91,39.25A202.13,202.13,0,0,0,757,785.64c-.42,7.69-.47,15.36,1.6,22.89a26.78,26.78,0,0,0,.29-5.43,163.86,163.86,0,0,1,1.7-30.08c2.94-20,8.66-39.25,16.1-58a334.47,334.47,0,0,1,54.42-90.89,241,241,0,0,1,37.11-35.7C876.33,582.22,885.21,577.26,893.88,571.73ZM655.73,1453.06v-7.19q0-77.79,0-155.58c0-1.65.06-3.31-.08-5a19.34,19.34,0,0,0-.79-3.1l-3.3.15c-1.14,5.06-1.18,165.48-.06,170.67ZM1206.85,1277c-1.14,5.17-1.15,165.53,0,170.59h3.44c1.1-5.06,1.08-165.53,0-170.59Zm-356.3-1.32c-1.12,5.49-1.1,165.87,0,170.82a12.66,12.66,0,0,0,2,.2,7.34,7.34,0,0,0,1.77-.59v-6q0-78.87,0-157.76c0-1.65,0-3.3-.11-4.94a6.27,6.27,0,0,0-.58-1.58Zm460.86,175.21c1.1-5,1.12-165.4,0-170.59H1308c-1.13,5.06-1.17,165.42,0,170.59Zm72.06,4.56c.11-2.73.27-5.06.27-7.4q0-77.71,0-155.42c0-1.47.07-2.94,0-4.4a33,33,0,0,0-.65-3.56h-3.93V1449c0,1.64,0,3.29.12,4.93a5.1,5.1,0,0,0,.61,1.49Zm-12-.48c1.67.79,2.81.78,3.23-.94a9.89,9.89,0,0,0,.21-2.18c.22-8,.6-16.1.61-24.15q.09-68.67,0-137.34v-5.58h-3.86c-1,5.72-1.51,141.47-.66,166.68C1371,1452.67,1371.3,1453.9,1371.43,1455ZM968.55,614.27a63.85,63.85,0,0,1,0,7.58c-1.4,11.79-2.54,23.59-4.9,35.29a333.5,333.5,0,0,1-22.25,68.74,370.17,370.17,0,0,1-36,64,325.43,325.43,0,0,1-35,42.22c-7,7-14.5,13.41-22.11,19.72-1,.86-2,1.82-3.32,3.08,1-.1,1.36,0,1.61-.19.94-.56,1.87-1.14,2.75-1.79a243.36,243.36,0,0,0,36.53-34A319.09,319.09,0,0,0,914,781.73a405.17,405.17,0,0,0,25.66-45.93,377,377,0,0,0,14.69-36A245.75,245.75,0,0,0,962,674.6c2.75-11.36,5.36-22.78,6.38-34.48C969.08,631.57,970.47,623.06,968.55,614.27Zm108,832.11c.79-10.05.29-19.88.38-29.7s0-19.77,0-29.65-.21-19.77-.29-29.65-.15-19.76-.18-29.65c0-9.73,0-19.47,0-29.21a62.88,62.88,0,0,0-.79,11.52c-.13,6.77-.2,13.54-.53,20.3-.84,17-1.69,34-2.75,51-.86,13.87-2,27.73-3.08,41.58-.51,6.75-1.16,13.48-1.68,20.23-.12,1.55-.56,3.26,1,4.51Zm-463.06,11.07c0-2.14,0-4.12,0-6.1-.19-11.35-.56-22.71-.59-34.07q-.11-61.58,0-123.15a33.41,33.41,0,0,0-.34-6c-.12-.65-1.4-1.08-2.9-2.15-.08,2.87-.19,4.84-.18,6.81q.3,79.71.63,159.42c0,1.78.22,3.55.34,5.45Zm326-800.58c5.21-15.62,5.92-52.31,1.25-62l-4.73.32c-2.33,2.24-2.18,4.64-2.17,7q0,25.23,0,50.47c0,1.42.22,2.83.36,4.52Zm44.16,617c-.15,2.55-.31,4-.31,5.42q0,80.76,0,161.53a13.73,13.73,0,0,0,.28,3.8c.14.49,1.31.69,2.7,1.35,0-2.43,0-4.23,0-6,0-9.71,0-19.41,0-29.12q.19-65.1.41-130.2a22.83,22.83,0,0,0-.37-4.9C986.19,1275.17,985.07,1274.84,983.59,1273.88ZM1081,1445c1.79.94,3.06.87,3.33-.81a38.92,38.92,0,0,0,.28-6q0-74.2,0-148.42c0-4,0-8.06-.11-12.09a19.76,19.76,0,0,0-.91-3.6c-1.17.9-2.34,1.35-2.56,2.07a16.1,16.1,0,0,0-.32,4.35q0,79.71,0,159.41C1080.67,1441.68,1080.88,1443.46,1081,1445ZM928.87,519.92c.18,4,.57,7.08.39,10.13a6.68,6.68,0,0,0,3.6,6.78,84.6,84.6,0,0,1,7.51,4.38c4.07,3,8.77,4.29,13.34,6,.24-.58.51-.92.49-1.24a48.4,48.4,0,0,0-7.92-24.15,5.63,5.63,0,0,0-5.14-2.62C937.34,519.34,933.55,519.63,928.87,519.92Zm463.44,768.25c-2.09,3.07-1.51,5.47-1.51,7.69q-.06,63.71-.06,127.41c0,3.66-.23,7.32-.28,11-.13,7.69-.24,15.38-.27,23.07a8.25,8.25,0,0,0,.86,2.53,5,5,0,0,0,1.39-3.17C1393.47,1437.57,1393.52,1294.88,1392.31,1288.17ZM983,654.56c-3.48,13.68-6.32,27.42-10.47,40.89A384.93,384.93,0,0,1,944,763c-4.38,8.23-9.14,16.27-14.19,24.1a371.24,371.24,0,0,1-30.9,41.25,12.44,12.44,0,0,0-1.15,2c3.6-2.8,6.32-6.2,9.17-9.48a296.62,296.62,0,0,0,26.43-36.37,374.45,374.45,0,0,0,36.75-76.43,310.72,310.72,0,0,0,12.45-48.25C982.83,658.09,982.85,656.31,983,654.56Zm-36.38,790.75c1.51-1.78,1.13-3.78,1.11-5.67-.16-21.41-.41-42.82-.58-64.24-.07-9.51,0-19,0-28.55q0-32.94,0-65.89c0-1.86.51-3.88-1.26-5.55C945.61,1332.05,944.89,1388.67,946.62,1445.31Zm225.3,211,5.63-3.39c-3.45-7.88-6.57-15.38-10.43-23.15-2.82,2.24-5.95,2.85-8.45,5.51Zm-353.13-25.29c-3.64,8.13-7,15.52-10.42,23.27l5.81,2.94c4.51-7.25,9.21-13.85,13.21-21.4Zm22.45,20.66c1.88,1.41,3.22,2.94,5.87,2.81,4.17-6.79,8.6-13.53,12.62-20.81-3-1.78-5.52-3.47-8.89-4.12C847.59,1637.1,844.43,1644.39,841.24,1651.73Zm110.29,33.94c-1,8.92-3.18,17-3.46,25.77h5.8c2.36-8.21,5-16.07,7.07-24.38Zm87.44,1.56a257.2,257.2,0,0,0,7.27,24.74l5.07-.76c.39-7.84-2-14.89-2.55-22.14a12.33,12.33,0,0,0-1.2-3.11Zm243.06-193,20,12.27c1.31-1.89,2.39-3.44,3.39-4.86-3.82-4.5-13.12-12.25-17.35-14.49Zm-592.1-5.88-18.26,14.87c1.35,1.87,2.47,3.42,3.75,5.21,6.75-4.18,13.44-7.72,20-12.29ZM1117.16,1633l12.45,21.36,5.06-3.37-9.4-22.8Zm199.24-135.07c6.94,4.25,13.37,8.62,20.59,12.48l2.66-4.87c-5.22-5.49-14.73-13-18.43-14.54ZM1098.25,1675.5a214,214,0,0,0,6.15,22.82,4.75,4.75,0,0,0,5.52-2.2c-.92-7.28-1.89-15-2.94-23.27Zm-208.57,21.06a5.4,5.4,0,0,0,5.84,1.65c2.05-7.35,4.29-14.79,6-22.68l-8.49-2.65C891.37,1681,890.77,1688.75,889.68,1696.56Zm112.51-28.08v23.25c1.57,1.41,3.25,1.69,5.58.65.84-7.68,2.65-15.47,2.89-23.9Zm92.57,32c2.45.54,4.37.7,6-1.69-2-7.12-4-14.43-6.15-22.19l-6.94,1.74c.21,2.53-.07,4.83.65,6.77C1090.25,1690.39,1092.63,1695.5,1094.76,1700.49ZM934,1696.25c2.93-6,7.13-19.23,7.38-23.28l-7.58-2.85c-.88,4.48-1.82,8.55-2.46,12.66s-2.47,8-1.56,12.17Zm-11.7-27.83c-1.44,6.55-2.17,18.58-1.5,24.77a7.2,7.2,0,0,0,1.85.81,13.92,13.92,0,0,0,2.49,0c2.21-6.88,4.63-20.11,4.48-24.49Zm143.66,1.65-8.3,3.25,7.4,23.11,5.12-1.87C1069.54,1686.34,1067.42,1678.65,1066,1670.07ZM904.9,1700.78c2.45-7.39,7.75-13.73,6.83-21.91-3.4-1.82-3.4-1.85-6.9-1.44-1.71,6.31-3.48,12.79-5.23,19.27a5.6,5.6,0,0,0-.13,1.09,2.46,2.46,0,0,0,2.43,3C902.78,1700.85,903.67,1700.78,904.9,1700.78ZM1199,1655.34c-3.31-7.64-6.47-15-9.74-22.5a25.6,25.6,0,0,0-2.82,1.07c-1,.49-1.82,1.13-2.66,1.67,3,11.87,5.37,17.12,10.48,22.64Zm44.49-76.53,14,15.75,4.69-4c-3.24-6.36-9.39-15.25-12.32-17.85Zm-469.62-1.1c-2.46-2.58-4-5.09-7.05-6.64l-11.6,17.71,5.22,4.16Zm218.22,115.21c5.27-.29,5.51-.38,5.57-4,.11-6.2.06-12.4,0-18.61a13.34,13.34,0,0,0-.78-3l-4.09.68c-1.22.2-2.44.37-4.1.61C989.82,1676.81,990.92,1684.68,992.08,1692.92Zm77.8-23.31c.62,8.39,2.71,16.26,4.09,24.16,4.56.12,5.07-.08,5-3.32-.08-6.22-.39-12.44-.74-18.65a13.15,13.15,0,0,0-1.21-3.5Zm149.19-82.19c-4.07-6.41-7.38-12.56-11.85-18.49l-6.31,7.26,12.95,15.18ZM697.36,1499.2c-7.11,4.1-13.52,8-20.11,12.21l2.72,5,21.3-9.35Zm34.41,97.18,13.52-15.57a32.32,32.32,0,0,0-6.18-6.8c-4.11,6-8.13,11.6-11.68,18.47ZM1143.14,1649l-5.76-22.2c-4.68-.43-4.68-.43-8.19,1.18,2.56,7.08,5.46,14.07,8.42,21Zm157-139.49c-6.75-4.31-12.86-8.38-19.39-11.78-2.13,4.06-2.13,4.06-2.42,7.8,6.41,3,12.91,6,19.87,8.77Zm-180-232.5h-.33v144.76h.33Zm48.86,381.24c-4.72-7.27-8.82-14.28-13.79-21.42l-5,4.38c4,6.55,14.22,19,16,19.17Zm165.85-144.9c-6.07-3.43-11.2-7.34-17.53-10.32-.78,3-2.66,5.16-2.25,8.22,2.86,1.29,5.63,2.57,8.44,3.78s5.53,2.31,8.42,3.5C1333.05,1516.61,1333.84,1515.21,1334.91,1513.3Zm-391.1-925c-.55-13.12-11.31-34-21.37-38-.82,3.64-.85,3.67.61,5.32,1,1.09,2,2.11,3.08,3.11,7.15,6.74,12.65,14.54,15.51,24.05C942.22,584.6,943.08,586.4,943.81,588.25Zm307.32,1012.48,3.71-4c-2.4-2.74-4.5-5.24-6.71-7.64s-4.29-5.32-7.07-7.53c-1.93,1.9-4,3.17-4.81,6Zm-410.84,27c-2.25,7.47-4.43,14.69-6.64,22,4.36.51,4.43.54,5.62-2.12q3.57-8,7-16a21.19,21.19,0,0,0,.81-3C844.93,1627.16,843,1627.44,840.29,1627.7ZM932,572.09a10.93,10.93,0,0,0-1.47,2.76c-.86,5-1.51,9.94-.86,14.9,5.64.87,6.47.83,10.23-.36C938.58,582.51,936.14,576.76,932,572.09Zm-1.83-173.47c-1.22,9-1,112.5,0,117.56ZM776.39,1579.94,763,1595.11l3,3.79c5.08-4.49,10.11-8.58,14.84-13.51Zm86.33,56.11c-1.35,2.07-2.37,3.57-3.31,5.1-2.87,4.64-5.68,9.31-8.57,13.92-1.16,1.85-1.07,3.25,1.26,4.62l14.52-19.2Zm348-68.52c3.49,5.62,6.72,10.9,10.06,16.11,1.41,2.2,1.53,2.12,5,.46-3-6.13-5.33-12.6-9.23-18.38Zm-40,61.44c3.31,7.45,6.26,14,9.18,20.67.86,1.94,2.1,2.15,3.94,1-2.54-7.44-4.56-14.93-7.66-22.17ZM611.85,1461.32c3.95,2.46,7.45,1.83,10.8,1.92s7,0,10.44,0H654a45.94,45.94,0,0,0,9.71-.65C646.72,1461.14,629.75,1461.41,611.85,1461.32Zm599.6,132.6c-2.21-2.65-4.23-5.22-6.41-7.65s-3.83-5.21-6.74-7.18c-1,1.74-1.88,3.13-2.86,4.75,4.54,4.54,8.76,9.22,14.09,13.24Zm-390.28,68.34c3.2-3.49,6.12-6.29,6-11.07-.07-2.25,1.17-4.53,1.75-6.81.32-1.23.49-2.5.72-3.76l-.7-.21c-3.89,6.23-7.79,12.45-11.76,18.78Zm408-73.59c-7-.87-13.92,4-16.52,11.5a9.23,9.23,0,0,0,7.6-1.71C1223.93,1596,1227.92,1593.55,1229.2,1588.67Zm93.09-129.31,0,1.64c17,0,34,.56,51-1.64Zm-621.77-2.1H650.94c7,1.36,41.61,2.34,47.81,1.38C699.18,1458.57,699.53,1458.05,700.52,1457.26ZM1128.66,1661a16.41,16.41,0,0,0,13.35-2.77c1.89-1.28,4.39-2,4.46-4.92C1138.82,1651.94,1132.33,1654.65,1128.66,1661Zm-376.41-73.75c3.67-6.18,7.93-11.93,11.76-18.41l-4.64-1.8-9.91,19.06Zm586.55-122.53v.77h3.68q12.06,0,24.11,0,9.32,0,18.64-.06c1.47,0,3.07.17,4.52-2Zm-566.72-11.16c-5.28,0-10.56.1-15.84,0-7.27-.17-14.54-.51-21.81-.72a6.64,6.64,0,0,0-2,.62,13.11,13.11,0,0,0,5.47,1.24c3.08.22,6.15.56,9.24.65C755.43,1455.52,763.79,1456.37,772.08,1453.52Zm530,63.94c7.33-3.64,10.6-9,11.74-16-2.54-.78-4,.43-5.09,1.84C1305.64,1507.28,1302.22,1511.15,1302,1517.46Zm-33.35-60.85c13.29,0,26.58,0,39.87,0a11.7,11.7,0,0,0,3.33-1.09C1297.4,1455,1283,1454.27,1268.69,1456.61ZM946,1691c-1,2.43-2,4.89-3.15,7.29-.67,1.46-1.23,3.23-2.4,4.16-2.43,1.93-2.49,4.17-1.89,7.1l5.41,1.32C945.37,1704,946.47,1697.71,946,1691Zm115.86,18c-.73-2.29-.84-4.51-2-5.81a21,21,0,0,1-3.25-5.58c-1.14-2.52-1.76-5.33-3.88-7.88.23,7.26,2.1,17.6,3.73,20.79a10.29,10.29,0,0,0,2-.16A35.16,35.16,0,0,0,1061.84,1709ZM916.93,572.48c-7.48-12.63-7.76-24.58-.67-36.78C906.38,542.88,906.48,563.29,916.93,572.48Zm198.12,1063.58c-2.6,2.24-2.61,3.92-1.2,5.9,3.5,4.91,6.89,9.9,10.37,14.83.27.38.87.54,1.6,1,.08-.93.42-1.77.15-2.27C1122.46,1649.14,1118.87,1642.82,1115.05,1636.06ZM746.9,1595.4l-4.29-6.38c-2.73,3.15-5.21,6-7.88,9.13l3.87,4.4ZM1213.48,1452a153.32,153.32,0,0,0-32.15.86C1191.22,1454.8,1207.23,1454.58,1213.48,1452Zm-409.37,200c2.58-1.62,3.3-4.22,4.4-6.59,1.23-2.63,2.52-5.25,3.56-8,.93-2.41,2.85-4.58,2.52-7.34-2.47-1-3.33.09-4,1.88-2,5.84-4.16,11.65-6.19,17.49A12.43,12.43,0,0,0,804.11,1652.07Zm505.95-153.92c-4.07-5.47-11.53-13-15.74-15.86l-2.66,2.35c4.95,4.19,9.53,8.07,14.13,11.92a18.92,18.92,0,0,0,2.7,1.8C1308.73,1498.5,1309.17,1498.29,1310.06,1498.15ZM871.48,1452c-7.77-1.88-15.63-1.76-23.49-1.58-.68,0-1.35.57-2.94,1.27C854.55,1454.85,863,1452.88,871.48,1452Zm287.63,215.9,5.15-2.84c-2.63-3.18-5-6.17-7.52-9-1.19-1.36-2.52-1.37-3.78.59C1154.87,1660.09,1156.84,1663.73,1159.11,1667.88Zm-326.77-13.46c4.25,4.71,8.95,8.24,16.77,7.83C843.86,1657.14,839.22,1653.44,832.34,1654.42ZM1091,767.34l-.06.77a38.84,38.84,0,0,1,4.72.29c1.58.29,3.56.46,4.55,1.48,2,2,4.23,1.76,6.53,1.58,3.07-.25,6.13-.61,9.19-1a11.27,11.27,0,0,0,2.2-.71l-.15-.84Zm-81.88,930.9c-4.11-3.24-12.5-3.35-18.08-.3,1.2,1.73,3,1.88,4.79,1.84C1000.23,1699.66,1004.83,1700.82,1009.1,1698.24ZM934.72,1274l-.06-.32H878.77v.32Zm220.61,394.64a49.51,49.51,0,0,0-6.24-10.81l-4.17,3c1.91,2.72,3.5,5.14,5.26,7.44C1151.72,1670.33,1151.8,1670.27,1155.33,1668.65ZM747.46,1590.2c4.23,5.8,8.26,10.27,15.42,11.24C758.51,1594.79,753.34,1590.85,747.46,1590.2ZM632.6,1316.38l.61-.07q0-13.39,0-26.8a9,9,0,0,0-.6-1.89c-.85.62-1.89,1-2,1.59a11.44,11.44,0,0,0-.14,3.79C631.11,1300.8,631.87,1308.59,632.6,1316.38ZM858.71,617c0-5.15-3.84-7.05-6.4-10.35l-3.72,3.88C851.24,613.82,853.94,616.47,858.71,617Zm407.92,971.64a9.76,9.76,0,0,0-.5-2.35c-2.82-5.11-5.69-10.19-8.55-15.28-.26-.47-.53-1.21-.92-1.3a13.39,13.39,0,0,0-2.87-.06C1255.92,1574.7,1263.56,1586.08,1266.63,1588.61Zm-206.15,109.51c-.17-6.74-4.67-19.62-7.14-23.21-.38,1.27-1.11,2.37-.84,3.09C1055.06,1684.74,1057.8,1691.42,1060.48,1698.12ZM928.27,538.27c-3.89-3-6-3-9-.1a13.55,13.55,0,0,0-3.8,10.75C917.76,543.26,923.05,540.82,928.27,538.27ZM705.33,1278.64l.21-.85c-11.67.5-23.34,1-35,1.53a9.75,9.75,0,0,0-2.44.82l.16.76Zm544.72-1.21c2,0,3.93,0,5.89,0,6,.07,12.09-.36,18,.38,7.29.92,14.51.54,21.77.42C1280.52,1277.53,1265.33,1276.1,1250.05,1277.43Zm-304.22,397.8c-3.18,6.36-7.23,19.32-7.11,23,2-2.57,2.58-5.49,3.71-8.13,1.66-3.86,3.21-7.77,4.82-11.65C947.81,1677.09,947.89,1675.94,945.83,1675.23ZM930,569.41a7.1,7.1,0,0,0-1.76-.76c-5.63-.44-9.93-2.82-12.24-8.2-.06-.14-.43-.16-.82-.29a19.16,19.16,0,0,0,5.42,10,5.71,5.71,0,0,0,4.52,1.4C926.85,571.47,928.88,572.16,930,569.41Zm158.1,879.86c-5.52,0-11.15-.33-16.83,1.61,6.34,1.86,12.56,1.75,19.09,1.37Zm248.19-169.46-.11.67a4.61,4.61,0,0,0,1.37.68c6.53.61,13.05,1.24,19.59,1.69,1.19.08,2.43-.66,3.65-1l-.21-.53ZM687.48,1485.93c-3.3-2.15-4.22.35-5.53,1.38-1.57,1.22-3,2.63-4.47,4s-3.24,2.92-4.71,4.52c-1.23,1.32-3.18,2.11-3.07,4.6Zm236-879.64c2.28,3.47,2.28,3.47,6.14,5.67.65-5.77.63-6.17-.63-10.09Zm322.81,997.31-7.11-5.92-3,2.77,6,6.87C1243.64,1606,1244.8,1604.92,1246.26,1603.6Zm-62,51.56c-3.59-.52-5.89,1.45-8.32,2.81s-5,2.32-6.65,5.53C1175.55,1662.44,1180.4,1660.17,1184.25,1655.16Zm5.71-380.1v-.39h-38.62v.39ZM1084.11,1693c0-3.88.16-7.77,0-11.63s.91-8-1-12.37C1081.51,1673.48,1082,1685.5,1084.11,1693Zm-408.4-175.47a33.86,33.86,0,0,0-9.33-14.53C668.05,1509.78,670.31,1514.66,675.71,1517.49Zm-50.39-50.44v.36h36.41v-.36Zm168.59-190.81,0-.65c-5.83,0-11.67,0-17.5,0s-11.66.15-17.49.22v.43Zm65.94,392.2c1.61-2,2.69-3.74,1.95-6.41l-5.27-1.65-1.14,5.66Zm206,32c5.06.6,10.21,1,15.3-3.41C1075.25,1697.22,1070.45,1697.89,1065.89,1700.43Zm-202.17-30.84c5.32,2,5.32,2,7.55-4l-5.08-1.56C865.3,1666,864.57,1667.65,863.72,1669.59Zm70.43,30.87c-4.78-2.54-9.81-3.24-15.91-3.5C923.52,1701.39,928.86,1701.06,934.15,1700.46Zm-300-417.8c-6.12-1.05-10.83.09-15.55,1.19C623.43,1283.51,628.37,1287.27,634.18,1282.66Zm282.46,409.46c.49-7.16,1-13.68,1.33-20.21,0-.8-.58-1.63-1.16-3.13C915.42,1673.93,915.36,1687,916.64,1692.12Zm-254.06-188c-5,3.24-5.17,4.22-1,7.64C664.74,1509.49,664.74,1509.49,662.58,1504.13Zm592.85,96.68c5.64-.94,9.21-4.15,10.8-9Zm-585.17-82.23c-1.43-1.92-2.3-4-4.52-5.17l-2.9,2.31c1.23,1.76,2.29,3.29,3.31,4.74a13.11,13.11,0,0,0,2-.53A24.84,24.84,0,0,0,670.26,1518.58Zm476.2,128c-.31-8.57-2.36-16.86-4.82-19.15C1142.43,1634.35,1144.6,1640.44,1146.46,1646.55ZM836.73,1663.3c-1.57-1.86-2.83-2.37-4.12-.4-1.06,1.61-2.08,3.23-3,4.74,1.17,1.67,2.34,1.66,3.34.55C834.29,1666.63,835.49,1664.9,836.73,1663.3Zm171.61,39.15-6.09,1.32v3.37h5.2C1007.7,1705.81,1007.94,1704.51,1008.34,1702.45ZM1321.12,1526c.17-.37.34-.74.5-1.11-4-2-8.09-4.08-12.19-6-.4-.19-1.2.5-2.65,1.16Zm-331.06-80.58h.4v-23.82h-.4Zm209,200.55c-1.9-8.54-3.36-12-6.89-15.81A100.3,100.3,0,0,0,1199.11,1646ZM992.26,1711c6.68,2.54,10,2.45,14.45,0ZM1230,1605.58c3.62.59,4.23,4.8,8.34,3.34-1.31-2.69-3.21-4.4-5.19-6.32Zm-242.6-156.36c-1.56,0-3.12,0-4.68,0-1.75,0-3.46-.18-4.89,1.55-.7.86-2.44.86-3.71,1.24C978.5,1451.08,983.27,1452.16,987.37,1449.22Zm198.16,214.37,4.72-3.12-2.35-4.29a57.22,57.22,0,0,0-3.42,4.82C1184.27,1661.36,1185,1662.23,1185.53,1663.59Zm-188.2,40.06-5.45-.94c.15,1.81.25,3,.37,4.35h5.08ZM881.86,769c.92,2,2.58,1.53,3.82,1.53,2,0,4.29.92,6.56-1.54C888.46,768.27,885.33,768.75,881.86,769ZM753.72,1602.2a8.56,8.56,0,0,0-6.13,5.57A10,10,0,0,0,753.72,1602.2ZM1353,1469.65v-.39h-16.57v.39ZM815.77,1663.22c-3.94-3.5-6.7-4.92-9.85-5.36A18.32,18.32,0,0,0,815.77,1663.22Zm-126.38-143.7c1.34,2.19,1.85,4.46,4.65,4.9-.07-3-.65-4.42-2.48-5.48C691.19,1518.73,690.4,1519.23,689.39,1519.52Zm383-245.6.17-.29h-14.69v.29Zm199.19,315.92c-.22,2.63-2.15,4.35-2.09,7.11C1274,1593.74,1274,1593.74,1271.57,1589.84Zm-258.93,92.59c1.41-3,2.92-6.28,1.47-9.92Zm-83-1294,.61-.16V376.68h-.61ZM736.42,1571.7l-1-.75a14.7,14.7,0,0,0-4,8.36Zm67.4-296.9v.29h8.32v-.29Zm166.41,174v-.26h-8.45v.26Zm-2.14-841.91.84.15c0-1.22.08-2.44,0-3.65s-.34-2.28-.53-3.42l-.29.06ZM1327.38,1489c-.24.28-.48.57-.71.86q2.37,1.89,4.75,3.77l.48-.58Zm-292.14,199.43-.72.23c.14.64.25,1.28.44,1.91a8.3,8.3,0,0,0,.61,1.44c.21.43.49.82.74,1.23l.58-.32Zm143.38-20.63,1.09-.93c-.66-.62-1.31-1.26-2-1.84a2.73,2.73,0,0,0-.67.55C1177.53,1666.38,1178.08,1667.11,1178.62,1667.84Zm-67.69,9.51.53.09c0-.68.12-1.37.1-2a8.8,8.8,0,0,0-.26-1.32l-.37.14ZM983.38,648.24l.6,0-.18-3.19-.42,0ZM887.82,1681.58h.28v-3.09h-.28ZM958.13,547.17l.92-.23-.54-3.52-.6.07C958,544.72,958.06,545.94,958.13,547.17Zm429.93,737.49,0,1.17,2.86-.62-.07-.55ZM902.48,546.49c-.11-.27-.22-.55-.34-.82l-3.58,1.45a11.09,11.09,0,0,0,2.39.11A7,7,0,0,0,902.48,546.49Zm-3.13,23.4.63.56,2.46-1.32-.26-.5Zm85.55,64.86h-.27v3.6h.27Zm-157,1029.16c-1.41.28-2.8.58-2.51,3.06Z"/><path class="cls-1" d="M1016.3,1663l-1.2-.07c-10.56-.87-10.29-1.6-13.07-10.13-1.87-5.73-3.11-11.66-4.83-17.45a8.34,8.34,0,0,1,1.52-8.13c2.6-3.49,5.71-4.94,9.95-5.74a41.9,41.9,0,0,1,16.81.24c6.35,1.35,10,6.07,9,12.64-.88,6.15-2,12.28-3,18.41a11.67,11.67,0,0,1-1.25,3.6c-1.78,3.14-4.17,5.57-8,6Zm-.44-16.4c.08-7.54.11-14.91-1.29-22.73l-8.6,1.84c.51,7.83,2.33,15,3.9,22.39Zm8.55,1.3c2.12-5.17,3.25-17.63,2.1-22.34-2.21-.23-4.3-1.82-7-.83-.89,7.32-.05,14.57.29,21.91Zm-18,8.1c1.19,1,2.22,2.4,3.58,2.91,4.23,1.58,8.61,1.24,12.84,0a8.28,8.28,0,0,0,3.37-2.61,2.89,2.89,0,0,0-.71-4.29,8.4,8.4,0,0,0-3.57-1.22c-2.72-.19-5.47-.16-8.21-.08C1010.53,1650.71,1008.07,1652,1006.38,1656Zm-1.28-6.33a71.34,71.34,0,0,0-2.66-20.48c-2.62,2.43-2.63,2.43-2.06,4.55,1.28,4.71,2.53,9.44,3.84,14.15A9.81,9.81,0,0,0,1005.1,1649.63Z"/><path class="cls-1" d="M877.4,1624.68a35.2,35.2,0,0,1,16.59-2.41c6.92.66,11.92,4.13,17.17,7.71a6.79,6.79,0,0,1,1.91,2.51c2.07,3.93,2.56,7.61-.41,11.65A143,143,0,0,0,903.4,1659a9.13,9.13,0,0,1-8,4.88c-5.8.42-11.17-.54-16-4.19-3.57-2.69-5.38-6.06-5-10.32C875.23,1641.21,876.38,1633.08,877.4,1624.68Zm11.43.28c-1.61,8.06-3.58,15.22-4.6,23l5.65,1.28,8.26-22.71Zm19.67,7.74c-2.25-2.08-4.15-4-7.29-4.29-2.69,7.32-5.32,14.5-8.05,21.92l4.51,3Zm-11.15,26.87c-2.89-6.59-11.85-9.69-18.75-6.58.54,3.81,3.93,5.27,6.63,6.29C888.9,1660.67,893,1662.65,897.35,1659.57Zm-12.46-33c-4,.36-4.39.54-4.72,3.07-.67,5.23-1.19,10.48-1.69,15.72a8.18,8.18,0,0,0,.47,2.32l1.3.11C882.23,1641,883.32,1634,884.89,1626.54Zm16,28.23.88.5q4.54-7.47,9.08-14.93c.67-1.1.86-2.17-.43-3.77C907,1643,903.94,1648.89,900.86,1654.77Z"/><path class="cls-1" d="M1094,1623.78c1.52,10,1.48,19.64,1.41,29.31,0,2.2-1.12,3.71-2.54,5.25-5.28,5.73-15.4,6.43-21.93,3.94a5.78,5.78,0,0,1-2.63-2.59c-3.34-6.28-6.69-12.58-9.76-19-2.24-4.71-.52-9.67,3.37-13.1,7.28-6.43,15.86-6.59,24.71-5.62A56.12,56.12,0,0,1,1094,1623.78Zm-13.5.68-8.62,1.43c1.07,6.46,5,18.67,7.21,22.27l4.49-.5C1084.42,1643.54,1082.63,1630,1080.54,1624.46Zm-8.06,34.14c3.13,2.66,6.84,1.63,10.33,1.36a12.4,12.4,0,0,0,8.4-4.52c.59-.67.41-2,.57-3C1083,1648.94,1075.14,1651.46,1072.48,1658.6Zm-4.47-31.45-5.54,4.62c2.46,7.23,7.52,17.67,9.74,20.22,2.54-.81,2.66-2.82,2.06-4.83C1072.37,1640.77,1070.3,1634.44,1068,1627.15Zm17.34-1.43c.12,2,.12,4,.4,5.89.54,3.77,1.25,7.52,1.89,11.28a19.75,19.75,0,0,0,.56,3.21c.55,1.57,1.64,2.33,3.78,1.31-.3-6.83.36-13.87-1.35-20.83-1.2-.41-2.21-.82-3.25-1.07A7.71,7.71,0,0,0,1085.35,1625.72Z"/><path class="cls-1" d="M936.58,1623.32c1.92-.51,3.52-.86,5.08-1.36,6.51-2.12,13-1.06,19.41.3,4.63,1,7.23,4.69,10.2,7.83.56.6.45,2.1.26,3.11a45.8,45.8,0,0,1-1.78,7.44c-2.09,5.84-4.54,11.55-6.59,17.4-.91,2.61-2.75,3.6-5.09,4.36-4.88,1.6-9.71.9-14.47-.32a11.29,11.29,0,0,1-8-9.87c-.46-6.37-.8-12.76-1.1-19.14A17.75,17.75,0,0,1,936.58,1623.32Zm14.61.73c-1.72,8-2.47,17.74-1.86,22.43,2.74,1.18,2.74,1.18,5.75.94.4-1.28.9-2.63,1.25-4,1.43-5.81,2.83-11.63,4.32-17.79Zm8.07,34.21a14.85,14.85,0,0,0-1.31-3.61,8.37,8.37,0,0,0-5.27-3.57c-3.6-.7-7.2-1.08-10.72.2a11.87,11.87,0,0,0-2.76,2C944.07,1660.3,949,1661.54,959.26,1658.26Zm-19.09-10.49c4.47-.82,4.9-1,5.21-4,.59-5.81,1-11.64,1.46-17.47a5.91,5.91,0,0,0-.5-1.76c-1.79.37-3.55.68-5.29,1.11a8.51,8.51,0,0,0-1.89,1.2C939.48,1633.59,939.82,1640.64,940.17,1647.77Zm20.82,3.45c2.15-5.72,4.22-11,6.09-16.25,1.27-3.58.8-4.32-3.37-6.6q-2.06,7.71-4.08,15.37a11.59,11.59,0,0,0-.43,1.58C959,1647.24,958,1649.33,961,1651.22Z"/><path class="cls-1" d="M976.71,1600.22a68.82,68.82,0,0,1-8.68-2.34c-3.52-1.42-4.91-4.92-5.76-8.21a107.29,107.29,0,0,1-2.81-15.61c-.44-4.26,1.84-8.07,3.38-11.94a2.17,2.17,0,0,1,1.27-.95c6.18-2.07,12.06-4.36,19.08-2.43,5.89,1.62,9.55,4.26,11.49,10.07.86,2.56,1.45,4.73.55,7.3-1.87,5.33-3.72,10.68-5.38,16.08-1.25,4.06-3.45,6.67-8,6.86A30.68,30.68,0,0,0,976.71,1600.22Zm8.1-5.53a13.37,13.37,0,0,0,.91-1.78c1.37-3.93-.41-7.2-4.37-8.3-3.56-1-7-1.38-10.65-.09-2.92,1-4.14,2.23-4.23,4.87a6.45,6.45,0,0,0,3.92,5.89A18.29,18.29,0,0,0,984.81,1594.69Zm2.75-30.37c-4.83-2.29-5.48-2.43-9-2.07a91.16,91.16,0,0,0-.75,18.42l6,.51C985.08,1575.4,986.3,1570,987.56,1564.32Zm-19.38,16.26c5,.34,5.6-.06,5.9-4.11.21-2.92.31-5.84.35-8.76,0-1.94.61-4-.81-6.12l-7.15,2.49A80.51,80.51,0,0,0,968.18,1580.58Zm22.07-12c-3.17,12.19-3.17,12.19-1.91,16.07,1.84-3,2.29-6.33,3.55-9.27C993,1572.9,992.4,1570.93,990.25,1568.62Z"/><path class="cls-1" d="M1208.17,1501.34c.66-6.51,2-11.28,5.14-16,3.82-5.79,9.11-8.06,15.23-9.51a5.29,5.29,0,0,1,3.18.07c3.63,1.68,7.26,3.38,9.62,7a76.84,76.84,0,0,0,7.15,9.71c4,4.31,3.81,9.18,1.76,13.78-2.14,4.8-5.24,9.14-11,10.62a10.18,10.18,0,0,1-7.89-.72c-6.59-3.56-13.17-7.15-19.87-10.49C1208.87,1504.53,1207.9,1502.83,1208.17,1501.34Zm39.38-2.91a6.14,6.14,0,0,0-5.34-1.08c-5.32,1.32-7.53,5.37-9.26,9.78-.75,1.91-1.33,4.54.63,6.12,1.8,1.46,4.11.81,6.22,0C1244.7,1511.54,1248.17,1505.05,1247.55,1498.43Zm-27.71-15.54c-2.31,3-4.12,5.39-6.16,8.08l17.13,12,3.63-5.37Zm8.2,27.59c1.49-4.09,1.54-4.17-.74-5.81-3.84-2.77-7.75-5.46-11.67-8.12a21.52,21.52,0,0,0-3.34-1.38c-.2,2.67-.35,4.75-.5,6.84Zm-4.92-29.33c4.39,5.21,9,9.21,13.47,13.36,1.67,1.55,3.25.57,4.76-1-3.89-5-7.39-10-11.89-14.38Z"/><path class="cls-1" d="M834.62,1495.49c.57,5.1-1,8.38-5.49,10.55-5.25,2.54-10.07,6-15.29,8.58-6.7,3.35-13.21,1.28-17.66-4.84-4.23-5.82-4.47-11.72-1.07-18,1.94-3.52,3.81-7.09,5.63-10.68a7.62,7.62,0,0,1,3.85-3.65c8.28-3.86,11.66-4,19.74-.42a4.43,4.43,0,0,1,1.87,1.1C830,1483.63,835.76,1488.16,834.62,1495.49Zm-21.35,15.31c1.51-5.79-1.22-10.09-5.13-13.06-3.27-2.49-7.65-3.61-11.44,0-1.64,5.75,1,10.29,5.24,13.27C805,1513.21,809.36,1514.35,813.27,1510.8Zm11.47-28.91L812.09,1496c1.21,1.92,2.23,3.53,3.25,5.12,5.23-3,12.45-8.9,14.74-12Zm-11.23-4.28L804,1492.35l5.23,1.79c3.88-4.76,8.58-8.73,12.29-14.44ZM831,1493.77c-4.73,3.68-8.62,6.67-12.45,9.72-1.65,1.31-1.82,2.93-.52,5.06l13-7.79Zm-30.48-2.47c2.06-3.14,4.13-6.28,6.15-9.44.13-.21-.09-.64-.15-1C803.73,1482.44,802.17,1484.81,800.56,1491.3Z"/><path class="cls-1" d="M814.53,1602.34c-8.27.25-16.32-7.45-18.09-13.64a7.84,7.84,0,0,1,.25-4.2c1.72-5.39,3.58-10.73,5.47-16.07a10.53,10.53,0,0,1,10.85-7.27c5.64.6,11,1.74,15.06,6.61,3.25,4,6.86,7.5,8.43,12.6.74,2.42.47,4.17-1.32,5.92-4.45,4.33-8.78,8.8-13.23,13.13A9.3,9.3,0,0,1,814.53,1602.34Zm-1.57-16.4,4.69,4.12c4.2-5.16,8.31-9.94,11.66-15.08-3-4.42-3-4.42-6.36-6.48C819.71,1574.17,816.46,1579.83,813,1585.94Zm-.41-21.48-7.77,18.76,5.09,1.15L820.41,1566Zm-11.85,23.08c-.65,5.49,3.87,7.5,7.29,9.67,2.78,1.77,6.35,3.53,9.9.94C815.49,1590.09,808.35,1585.7,800.7,1587.54Zm31-9.43c-4.07,4.56-7.37,9.09-10.74,13.53-.55.73-.18,2.16-.27,4.16,5.45-4.11,8.77-8.87,12.92-13Zm-26.73-6.9c1.44-1,2.53-2.12,1.42-4.52C805.74,1568.68,805.35,1569.94,805,1571.21Z"/><path class="cls-1" d="M1150.7,1601.32c-4.46,0-7.8-1.17-10.35-4.14-3.46-4-6.84-8.09-10.29-12.1-1.59-1.84-1.56-3.75-1.2-6.1,1-6.6,5.47-10.93,9.42-15.65a1.35,1.35,0,0,1,.4-.36c5.31-1.92,10.69-4.1,16.42-2.51,7.37,2,7.34,2.2,9.18,9.68,1,3.9,1.92,7.8,2.71,11.73,1.89,9.36-2.79,16.64-12,18.81C1153.36,1601.05,1151.71,1601.17,1150.7,1601.32Zm13.38-14.3c-4.44-2.65-8.77-1.57-12.53.58-3.32,1.9-6.71,4.47-6.1,9.16,4.07,3,8.09,1.4,11.5-.3S1163.84,1592.23,1164.08,1587Zm-21.41-22.08c3.28,6.49,6.24,12.33,9.36,18.49l5.59-1.32c-2-6.68-3.88-12.89-6.45-19Zm-3,1.84a44.84,44.84,0,0,0-4.16,5.32,4.1,4.1,0,0,0-.18,3.49,95.55,95.55,0,0,0,9.44,13.05c3.91-3.62,4-3.65,2.09-7.5C1144.68,1576.58,1142.36,1572.06,1139.71,1566.78Zm23.43,15.79c.28-4.35-1.64-8-2.18-11.89a12.55,12.55,0,0,0-1.27-4.17c-.72-1.34-2-2.12-3.58-1.07C1158.59,1575.09,1160.56,1580,1163.14,1582.57Zm-30.23-4.06c-.56,1.66-1.11,2.4-1,3,.62,2.23,7.64,9.9,10.84,11.74C1140.1,1587.71,1136.62,1583.59,1132.91,1578.51Z"/><path class="cls-1" d="M1155.94,1500.4c.81,4.89-1.88,8.78-5,11.62a13.86,13.86,0,0,1-11.8,3.11,23.22,23.22,0,0,1-8-3.34c-4-2.57-7.66-5.64-11.45-8.52a6.52,6.52,0,0,1-2.82-5.08,32.34,32.34,0,0,0-.69-4.89,9.35,9.35,0,0,1,2-8.19,3.39,3.39,0,0,0,.6-.92c2.65-7.44,9.13-9.37,15.82-10.76a11.72,11.72,0,0,1,5.87.42c9.24,3.15,9.2,3.23,12.38,12.7C1154.39,1491.05,1156.28,1495.46,1155.94,1500.4Zm-4.3-4.25c-1.85-.49-4.13-1.68-6.33-1.53-2.43.16-5.39.92-7,2.53-3.44,3.38-6,7.55-3.13,12.77,4.48,2.85,9.3,2.66,13.28-.37S1153.83,1501.88,1151.64,1496.15Zm-13.88-3.16c2.09-.66,4.1-.7,5.66-2.37-2.26-4.7-4.45-9.23-6.65-13.81-3.28.32-6,.67-8.7,2.86Zm-2.9,2.64c-3.66-6.66-7.8-11.83-10.76-13.47l-3.83,6.39a61.64,61.64,0,0,0,11.41,11.25Zm6.5-17.26c2.11,4.28,3.84,7.89,5.65,11.45a2.88,2.88,0,0,0,3.69,1.68c-.78-2.58-1.58-4.8-2.13-7.08C1147.77,1481.06,1145.92,1478.93,1141.36,1478.37Zm-19.85,17.21-1.22.53a15.35,15.35,0,0,0,.92,4c.9,1.69,6.87,5.25,9.74,6C1128.63,1501.32,1125,1498.55,1121.51,1495.58Z"/><path class="cls-1" d="M732.58,1476.68c3.26,1.26,6.34,2.35,9.34,3.64a7.59,7.59,0,0,1,2.47,2.06c1.34,1.51,2.4,3.28,3.84,4.67,4.38,4.23,5.16,9.92,6.59,15.38a3.46,3.46,0,0,1-1.41,3.86,38.72,38.72,0,0,1-6.22,4.46c-5.58,2.73-11.29,5.2-17,7.62-1.44.61-3.26,1.2-4.66.84-2.41-.62-5.17-1.46-6.81-3.16-4-4.08-7.23-8.81-7.64-14.81a5.2,5.2,0,0,1,.78-3.49q8-9,16.36-17.78A31.6,31.6,0,0,1,732.58,1476.68Zm-3.44,27.43c5.54-2.59,15.74-9.38,18.41-12.22-.84-1.12-1.66-2.31-2.59-3.4s-2.13-2.3-3.43-3.68c-5.52,4.93-11.06,9.26-16.2,14.63Zm20.37-8.48L731,1507.51l1.13,5.06,19.23-9.19C750.74,1500.75,750.21,1498.53,749.51,1495.63Zm-21,18.73c-.1-5-2.49-8.67-5.4-11.93a13.76,13.76,0,0,0-4.85-3.23c-2.18-.93-3.71.23-3.52,2.49.47,5.62,3.63,9.78,8,12.94C724.31,1515.77,726.67,1517,728.54,1514.36Zm4.59-33.82-13.83,15.11,3.47,1.35c4.87-4.37,9.59-8.59,14.26-12.86.33-.3.33-.94.55-1.64Z"/><path class="cls-1" d="M872.61,1585.5c.87-6.7,1.76-13.39,2.61-20.1.23-1.82,1.25-2.74,2.83-3.64,7.19-4.14,14.42-2.88,21.68-.49a6,6,0,0,1,2.63,1.86c2.08,2.55,4.56,5,5.86,7.89,2,4.43,2.17,9.29-.47,13.67a111.24,111.24,0,0,1-7.43,10.85c-3.42,4.38-8.06,6-13.56,4.84-3.36-.69-6.64-1.2-9.43-3.81C874,1593.45,872,1590.2,872.61,1585.5Zm22.23,10.15a5,5,0,0,0-.42-5.21c-3.92-5.72-11.27-7.34-17.81-3.93-.05,3.94,1.49,7.57,4.75,9C885.71,1597.38,890.32,1598.74,894.84,1595.65Zm-10.68-14.71c3.42,1.24,3.42,1.25,6.48.53,2.24-5.58,5.31-11,7-17.4l-8.61-1.74A121.33,121.33,0,0,0,884.16,1580.94Zm12.82,6.55a126.94,126.94,0,0,0,7.75-13.1,3.1,3.1,0,0,0-.09-2.58c-1-1.62-2.21-3.07-3.78-5.17-2.28,5.27-4.15,9.79-6.19,14.23C893.38,1583.71,894,1585.77,897,1587.49Zm-20.39-5.87c2.47.59,3.67-.24,4.16-2.1,1.35-5.21,2.66-10.44,4.2-16.51l-6.24,2.25C878,1570.93,877.28,1576.28,876.59,1581.62Z"/><path class="cls-1" d="M1013.75,1476.13c1.55-.61,2.87-1.22,4.26-1.65,10.85-3.4,9-3.7,21.56.66a5.39,5.39,0,0,1,3.68,3.63c.88,2.59,1.87,5.14,2.7,7.75a6.79,6.79,0,0,1,.42,3.19c-1.32,6.8-2.54,13.66-6,19.83-.42.77-1,1.82-1.66,2-4.44,1.36-8.57,3.57-13.73,2.09a14.9,14.9,0,0,1-9.81-7.73,81.67,81.67,0,0,1-6.06-14.62,7.6,7.6,0,0,1,.33-5.83C1011,1482.36,1012.35,1479.2,1013.75,1476.13Zm13.84,34.55c6.74.12,9.62-1.69,11.62-6.61,1.48-3.66-.7-8.18-4.4-9.63a12.91,12.91,0,0,0-9.53-.08c-4,1.43-6.69,5.59-5.72,9.74.45,1.89.66,4.15,2.83,5A51.32,51.32,0,0,0,1027.59,1510.68Zm-10.2-32.13c1.58,4.67,3,8.93,4.53,13.42l6.27-2.09c-.55-4.9-1-9.37-1.56-14C1023.28,1476,1020.71,1477.3,1017.39,1478.55Zm20.44,13.08c-.11-4.92,1.76-8.88.74-13.18l-8-2.72a53,53,0,0,0,1.68,14.55Zm-21,6c2.16-3.23,1.56-5.46.66-7.69s-1.05-4.75-3.15-7.08l-2.39,5.94Zm25.09-3.9c.78-2.7,1.31-4.73-.19-7.84C1041.71,1489,1040.78,1491,1041.88,1493.77Z"/><path class="cls-1" d="M1083.39,1580.08c0,2.92.14,5.85-.07,8.76a7.94,7.94,0,0,1-1.35,4c-1.5,2-3,4.71-5.15,5.43-3.87,1.33-8,2.57-12.31,1.6-1.42-.32-2.81-.78-4.22-1.13a5.45,5.45,0,0,1-3.68-3c-2.06-4.06-4.47-8-6.24-12.16a43,43,0,0,1-2.44-9.48c-.47-2.8,5.12-12.09,7.78-13.14,7.9-3.11,15.8-3.74,23.68.24a4.43,4.43,0,0,1,2.85,3.65c.55,5.06,1.13,10.12,1.7,15.18ZM1060.6,1595a16.43,16.43,0,0,0,14.61.11c1.88-.83,3.3-3.3,4.28-5.33s-.41-3.9-2.45-4.8c-3.56-1.58-7.14-1-10.68-.15C1061.69,1585.92,1059.61,1589.58,1060.6,1595Zm9.22-14.45a82.52,82.52,0,0,0-3.1-19l-8.94,2.57c2.14,6.29,4.1,12.09,6.13,18.06Zm8.78,1.24c0-4.66-.11-9,0-13.3.09-2.83-1.11-4.44-3.75-5.15l-4-1c1,6.5,1.93,12.35,2.85,18.23Zm-27.33-8.93c2.59,4.58,3.65,9.47,6.83,13.26,2.73-1.44,2.13-3.48,1.55-5.38-1.07-3.48-2.2-7-3.48-10.35-.31-.82-.12-2.27-1.9-2.37Z"/><path class="cls-1" d="M897.85,1499c1.17-6.26,2.41-12.51,3.46-18.8a5.49,5.49,0,0,1,4-4.64c2.58-.92,5.06-2.11,7.67-2.86a14.66,14.66,0,0,1,4.82-.32,12.64,12.64,0,0,1,3.13,1c2.92,1,6.62,1.16,8.59,3.11,2.75,2.71,4.23,6.72,6.23,10.19a2.85,2.85,0,0,1,.56,1.52c-.63,5-.61,10.28-4.2,14.38-2.17,2.46-4.64,4.66-6.94,7-6.14,6.25-14.36,5.76-21.25,2.55a2.69,2.69,0,0,1-1.27-1C900.74,1507.24,897.3,1503.94,897.85,1499Zm22.84,9.61c2-4.94,1.23-9.72-2.79-12.5-4.47-3.08-9.87-3.61-14.35,0-3.11,5.12-1.56,9.88,2.1,12.66C909.94,1512,915.45,1512.48,920.69,1508.57Zm5.44-30.06-9.33-3-4.2,14.35c3.48,1.94,3.47,2,6.67,1.53Zm-1.7,20.63c3-3.8,5.65-7.17,8.46-10.72l-4.16-7.21c-2.54,4.67-4.78,8.81-7.13,13.14Zm-20.54-7.65c3.85.07,5.35-1.81,6-4.8.51-2.3,1.32-4.52,1.9-6.8a22.87,22.87,0,0,0,.31-3.38l-7,2.92C904.68,1483.65,904.29,1487.55,903.89,1491.49Zm26.44,5.69c-1.21,1.51-2.44,3-3.61,4.54a12,12,0,0,0-.77,2.37C928.6,1501.78,930.68,1500.39,930.33,1497.18Z"/></svg>