<svg id="Layer_1" data-name="Layer 1" xmlns="http://www.w3.org/2000/svg" viewBox="0 0 2000 2000"><defs><style>.cls-1{fill:#1d1d1b;}</style></defs><path class="cls-1" d="M1061.21,331.94a43,43,0,0,1,5,3.93c20.51,21.45,40.85,43.07,61.5,64.39,6.49,6.71,9.25,15.31,13.23,23.27,7.7,15.41,14.91,31.07,22.59,47.18,3.28,0,6.39,0,9.49,0,9-.1,18-.38,27-.3,30.66.3,59.42,8,87,21.39,15.49,7.52,29,17.75,42.66,27.83,3.54,2.62,5.88,6.87,8.78,10.36l-1.51-.85,11.53,12.08-.09.07-10.49-11.89c2.42,1.56,5.16,2.77,7.21,4.71,17.1,16.2,30.43,35.17,41.81,55.75,13.94,25.21,22.58,52.21,27.16,80.37a240.55,240.55,0,0,1,2.76,54.55,286.29,286.29,0,0,1-7,47.57,250.14,250.14,0,0,1-45.86,95.1A240,240,0,0,1,1329.56,903c-15.57,13.06-32.93,23.26-51,32.34-4.3,2.17-8.92,3.68-14.14,5.8,0,3,0,6.12,0,9.23q-.08,127.78-.16,255.57a43.54,43.54,0,0,1-.49,8.71c-1.69,8.22-7.24,12.92-15,15.09-11.47,3.2-23,6.23-34.49,9.31-13.14,3.51-26.32,6.92-39.44,10.54-10,2.74-18.52,1.45-25.77-6.79s-15.06-15.9-22.66-23.79c-1.49-1.54-3.1-3-5.31-5.07a39.78,39.78,0,0,0-1,5.37c-.17,5.11-.48,10.24-.2,15.33,1.12,20-2.26,39.24-8.54,58.08a38.24,38.24,0,0,0-1,19.38c3,16.51,5.83,33.06,8.07,49.67a201.92,201.92,0,0,1,1.4,27c0,5.46,1.91,9.13,6.39,12.12,7.08,4.73,13.71,10.12,20.86,14.74,4.42,2.85,5.85,6.31,5.82,11.45-.16,24.82.69,49.67-.1,74.47-.85,26.24-2.68,52.47-5,78.63-1.92,22-5.23,43.93-7.57,65.92-.51,4.8-2.64,7.24-6.77,9.24-19.91,9.62-39.33,20.38-59.66,29-23.43,10-47.59,17.87-73,22.39-25.1,4.47-50.29,5.11-75.53,5.9-9.42.29-18.88-1.75-28.35-2.24-23.51-1.19-46.12-7.15-68.46-13.71-12.73-3.73-24.92-9.61-36.91-15.43-10.23-5-19.76-11.36-29.71-16.91-12.73-7.1-25.5-14.16-38.44-20.86-3.94-2-5.68-4.32-5.65-8.89.18-34.32-.44-68.65.36-102.95.49-20.64,2.79-41.26,4.84-61.83,1.8-18.14,4.48-36.19,6.57-54.3.62-5.4,2.23-9.58,7.47-12.27,4.51-2.32,8.52-5.59,12.83-8.49.12-2,.4-4,.32-5.9-.71-17.49,2.39-34.42,7.91-50.9,2.62-7.85,2.76-15.45,1.33-23.6-3.23-18.42-5.84-37-8.34-55.5-.81-6-.65-12.14-.66-18.22-.07-23.37.18-46.74-.12-70.1-.17-13.79,1.39-27.29,6-40.19,4.26-11.91,4.27-23.52,1.85-35.78-3.06-15.48-4.91-31.19-7.12-46.83a78,78,0,0,1-.52-10.93c-.06-27,.07-54-.12-81-.08-10.35,1-20.61,4.59-30.15,5.82-15.68,5.73-31.14,2.2-47.2-4-18.29-7-36.81-6.9-55.63,0-3.72-1.69-5.77-4.51-7.62C737.8,809.94,730,804.51,722,799.4a8.16,8.16,0,0,1-4.25-7.69c.15-35.29-.89-70.62.5-105.86,1.16-29.37,5-58.63,7.9-87.92.92-9.43,2.53-18.79,3.59-28.21.51-4.58,2.61-7.31,6.92-9.17,13.38-5.78,26.6-11.94,39.88-17.94a26.91,26.91,0,0,0,4-1.83c10.76-7.18,22.09-13.18,34.41-16.39,1.89-3.78.94-6.47-1.53-9-1.88-1.9-3.6-4-5.37-6a32.6,32.6,0,0,1-8.41-18.2,14.83,14.83,0,0,0-3.11-7,105.41,105.41,0,0,0-9-9.52c-3.79-3.7-7.34-7.1-13.52-7.54-4.18-.3-8.84-3.23-12-6.29-8.4-8.1-16.08-16.93-24.09-25.42-4.79-5.07-6.27-11.28-6.75-18.44l8.17-3.85c1.57-13.43,9.07-23.36,20.77-30.34,12.05-7.19,24-5.91,34.66,3.55.7.63,1.5,1.14,2.7,2,1.3-6.18,1.46-12.47,4-17.55,2.46-4.88,7.4-8.5,11.82-13.3-1.09-1.7-2.59-4.14-4.2-6.5-11.75-17.31-23.58-34.56-35.27-51.91-4.65-6.91-3.2-10.79,4.29-14.23,3.26-1.5,5.64-1.12,7.67,1.52q4.23,5.47,8.15,11.2,17.1,25,34.12,50c1.35,2,2.9,3.84,4.42,5.84l137.32-37c-1.08-2.41-1.79-4.4-2.81-6.21-4.53-8-8.91-16.19-13.82-24-3.44-5.48-.79-11.53,6.44-12.86,4.11-.76,6.54,1.22,8.43,4.26,2.56,4.12,4.87,8.41,7.29,12.62l12.27,21.3c8.12-2.12,16.07-4.11,24-6.28,6.63-1.82,13.26-3.56,20-1.07,2.68,1,5.59,2.14,7.59,4.06,7.38,7.06,14.44,14.46,21.57,21.78.45.46.51,1.3.75,2a46.29,46.29,0,0,1-5.63-4.09c-5.56-5.45-11-11-16.4-16.63a17.55,17.55,0,0,0-13-5.63,52,52,0,0,0-12.93,1.54q-57.4,15.19-114.74,30.73c-26.49,7.19-52.91,14.64-79.37,21.93-6.28,1.73-11.76,4.47-15.23,11l19.87,21c10.46-8.32,10.46-8.31,24.93-12.21,5.63-1.52,11.32-2.86,16.86-4.67,4.43-1.46,7.74-.82,11.07,2.71,13,13.81,26.28,27.39,39.38,41.12,1,1.07,1.46,2.69,2.37,4.44-3.51,1-6.3,1.8-9.1,2.55-7.5,2-15.07,3.82-22.51,6.05-5.79,1.74-11.58,3.79-14.24,10.75l20.49,21.69c5.6-8.54,14-10.37,22.22-12.52,32.69-8.51,65.27-17.43,98-25.61,36.34-9.08,71.8-21.74,109.57-27.18-2.42-2.66-4.79-5.35-7.27-7.95q-25.66-27-51.34-53.94C1063.08,335.7,1062.28,333.69,1061.21,331.94Zm252.52,179.78,4.17,3.85.88-1.31-5.21-2.37-5.55-4.71c-2.49-1.89-4.76-4.2-7.5-5.62-15.27-7.93-30.6-15.55-47.21-20.67-20.7-6.39-41.54-8.72-63-6.12-2.57.31-5.17.45-7.75.68,0,.5,0,1,0,1.51,4.68,0,9.37.15,14.05,0a181.07,181.07,0,0,1,59.53,8.23c11.13,3.39,22.2,6.81,32.39,12.79,6.18,3.62,13.06,6.06,19.62,9.05C1310,508.58,1311.88,510.16,1313.73,511.72Zm-14.56,408.95L1283,929.36a28.55,28.55,0,0,0-2.77.83c-20.12,8.14-40.75,14.93-62.4,16.77-26.75,2.27-53.32.91-79.41-6.89a243.13,243.13,0,0,1-53.1-23.54c-3.7-2.16-6.08-1.63-9,1.64,2.73,1.88,5,3.8,7.51,5.13,22.89,12,46.48,21.94,72.31,26a234,234,0,0,0,58.2,1.6c20.9-2,40.82-8.53,60.31-16.18,3-1.16,5.46-3.6,8.18-5.45a33.11,33.11,0,0,0,16.12-8.7l8.84-3.43-.81-1.6Zm-260-352.14c6.88-5.1,11.8-10.65,13.59-16.19-5.06,6.09-11.3,9.44-13.44,16.34l-4.23,4,1.39,1.05C1037.37,572,1038.26,570.26,1039.16,568.53ZM729,606.33c-.74,2.13-1.94,4.22-2.15,6.4q-2.88,29.74-5.45,59.51c-.54,6.21-.8,12.44-1.21,19l7.8,1.39c17.21,3,34.54,5.39,51.59,9.1,14.44,3.15,29,6.7,42.72,12,26,10.09,52,20.27,76,34.82a77.14,77.14,0,0,0,7.55,3.46c.62-10.53,1.17-19.92,1.73-29.4-1.8-.5-2.93-.88-4.08-1.13a23.25,23.25,0,0,0-3.6-.57c-18.25-1-36-4.37-53.75-8.94-29.64-7.65-57.57-18.46-81.93-37.64-9.28-7.31-17.3-15.24-23.68-25.28-5.3-8.35-10.07-16.44-10.43-26.64-.16-4.57-1.44-9.1-2.05-13.67-.11-.78.58-1.66.91-2.5a13.28,13.28,0,0,1,.26-2.84c4.45-14.4,9.16-28.65,21.34-38.83a45.61,45.61,0,0,0,5-5.32c1.6-1.84,3.09-3.77,4.63-5.67l-.83-.72L732.8,565.08c-1.13,8.13-2.46,16-3.25,23.95C729,594.76,729.13,600.56,729,606.33ZM963.5,1025.66c-3-3.41-6.94-6.39-9-10.33a53.58,53.58,0,0,1-6.29-29.53c.46-5.58.34-11.17,2.83-16.39a2.77,2.77,0,0,0,0-1.71c-6.79-2.4-12.87-4.73-19.07-6.7-11.25-3.58-18.14-12.65-23.7-21.66-5.36-8.67-9.17-18.86-9.18-29.65,0-12.65.13-25.29.25-37.94,0-2.37.24-4.74.42-8-26.45-2.54-51.6-9.16-76.26-17.14s-48.11-18.85-71.36-30.42c12.38,9.09,25.49,17.15,35.33,29.22-11.35-7.83-21.06-18-34.56-24.13,0,2.93.06,4.87,0,6.8-.68,18.2,4,35.71,6.89,53.44,3,18,6.54,36,4.88,54.33a74,74,0,0,1-3.58,16.27c-1.16,3.54-3.4,6.95-8,6.77,0,30.81,0,61,.05,91.15a63.16,63.16,0,0,0,1.18,10.13c3.25,19.67,7.13,39.26,9.67,59,1.7,13.19,2.42,26.64-1.87,39.76-1.58,4.84-3.81,8.64-9.25,9.71,0,23,.37,45.68-.12,68.3-.43,19.59,1.93,38.79,5.45,58,3.81,20.79,8.24,41.59,6.46,62.94a82.23,82.23,0,0,1-3.16,16.37c-1.22,4.11-3.47,8-8.54,8.62-.26,13.5.29,26.52-1.3,39.42l-1.72,0v-24.7c-5.06,3.31-8.76,6-12.69,8.24a10,10,0,0,0-5.23,8.13c-1.62,13-3.81,26-5.17,39-2.09,20.07-3.72,40.2-5.44,60.31-.61,7.19-.92,14.4-1.38,21.85,3.55.64,6.39,1.19,9.24,1.66,15.59,2.54,31.28,4.59,46.75,7.71,14.75,3,29.8,5.7,43.79,11,19.73,7.45,38.78,16.81,57.8,26,13.11,6.35,25.8,13.6,38.42,20.9,4.39,2.55,7.81,2.1,12.1.14,23.85-10.92,47.41-22.55,72.41-30.8,11.07-3.65,21.82-8.74,33.15-11,31.22-6.33,62.72-11.07,94.64-12.42a65.76,65.76,0,0,0,8.29-1.38c.5-4.4,1-8,1.32-11.63,2.79-36.38,5.38-72.78,11.42-108.81.69-4.13-.52-6.86-4-9.22-7-4.77-13.84-9.92-20.78-14.86a44.4,44.4,0,0,0-4.79-2.4v33.62h-2v-43.55c-9.59,3.62-10.37,3.33-14.18-4.91a49.28,49.28,0,0,1-2-5.45c-4.26-13.06-3.68-26.5-2.15-39.76,2.35-20.31,7.16-40.17,13-59.8a117.22,117.22,0,0,0,5.25-35.91c-.45-20.69-.14-41.38-.16-62.07v-6l-10.59,2.51c-1.38-5.6-3.28-10.43-3.66-15.37-2.32-30.53-.54-60.75,8.18-90.31,4.15-14.06,6.68-28.26,6.24-43.08-.56-19-.14-38-.17-57,0-2.09-.19-4.19-.25-5.48-3.68.14-7.51,1.41-9.94.1-3.94-2.11-7.17-5.62-7.22-11a97.1,97.1,0,0,0-1.42-13.78c-.28-1.77-.93-4.28-2.21-5-7.36-4-15-7.6-24.08-12.11,1.84,4.78,3.07,7.82,4.17,10.92.81,2.27,1.91,4.57,2.1,6.93a93.15,93.15,0,0,1-10.6,51.34c-6.1,11.7-14.68,21.09-24.19,29.85a55.92,55.92,0,0,1-27,13.76c-11.69,2.28-23.81,3.52-35.88-1.58-6.89-2.91-13.38-5.43-17.9-11.57,1.54.56,3.35.78,4.58,1.74,9.58,7.49,20.61,10.09,32.5,10.37,11.72.27,22.29-2.84,32.64-8.43,10.85-5.87,19.13-14.35,26-24a94.29,94.29,0,0,0,15.92-36.42c2.5-12.77,2.89-25-3-37-3.93-8.08-7.77-9.24-15.2-3.64.26,1.51.58,3.16.81,4.81a45.69,45.69,0,0,1,.56,5.07c.76,26.1-7,49.18-24.16,69.06-10.26,11.92-22.56,19.77-38.77,19.85-13.57.07-25.88-3.21-35-14.27a62.48,62.48,0,0,0-4.55-4.51l-1.47,1.18c2.25,3.6,4.57,7.17,6.73,10.83C961.86,1021.84,962.61,1023.79,963.5,1025.66Zm172.62,524.89c-3.18,0-5.61-.2-8,0-24.19,2.22-48.48,3.64-72.34,8.59-10.21,2.13-20.74,3.3-30.59,6.53-33,10.84-65.06,24.27-96.51,39.1-4.54,2.14-5.86,4.61-5.83,9.38.21,28.71.1,57.43.12,86.14,0,2.37.2,4.74.34,7.76,4.77-.24,8.89-.24,13-.68q38.79-4.19,77.55-8.53a106.92,106.92,0,0,0,28.14-7.06q44.38-17.68,87.79-37.59c5-2.31,6.87-4.86,6.84-10.26-.2-29,0-57.92-.06-86.88C1136.52,1555.18,1136.29,1553.27,1136.12,1550.55ZM920.33,1708.13v-9q0-34.68,0-69.37c0-6.08-.14-12.17-.07-18.25,0-3-1.15-4.8-3.89-6.28-24.37-13.15-48.35-27.06-74.1-37.48-9.66-3.92-19.11-8.59-29.06-11.51-27.78-8.14-56.19-13.49-84.9-17.22-2.54-.33-5.13-.28-8.09-.43v100c1.1.72,2.07,1.44,3.11,2,30.65,17.42,62.08,33.34,94,48.36a34.83,34.83,0,0,0,8.28,2.67c22.44,4.29,44.87,8.58,67.35,12.63C901.55,1705.79,910.23,1706.72,920.33,1708.13ZM1264.42,903c2.15-.74,3.09-1,3.93-1.36,13.72-6.59,25.71-15.85,36.81-26a212.71,212.71,0,0,0,45.68-59.1,246.2,246.2,0,0,0,17.45-43.92,193.17,193.17,0,0,0,6.72-33.53,241,241,0,0,0,.51-50.24,230,230,0,0,0-11-51.15,212.18,212.18,0,0,0-45.71-77.15A202.17,202.17,0,0,0,1278,526.62a175.85,175.85,0,0,0-53.71-22c-5.39-1.27-11-1.54-17.61-2.41,4.75,6.49,10.44,9.31,15.73,12.74,6.78,4.39,13.28,9.56,16.13,17.27a33,33,0,0,0,7.07,11.6c3.83,4.08,7.42,8.42,11.53,12.19,5.25,4.8,7.25,10.46,7.21,17.51-.16,24.32.13,48.65,0,73,0,4.1,1.22,6.63,4.73,8.9,13.09,8.42,26.2,16.85,38.83,25.93,8.45,6.08,16.92,12.52,23.89,20.16,5.92,6.49,11.19,14.41,14.06,22.63,3.88,11.16,5.63,23.2.22,34.84a16,16,0,0,0-.54,2.12c-3.37,11.7-11.14,20.68-20.28,27.7-9.75,7.48-21,13.09-31.76,19.15a242.4,242.4,0,0,1-22.2,11c-5.13,2.21-7.17,5-7,10.94.44,19.21.15,38.44.15,57.66C1264.41,892.38,1264.42,897.21,1264.42,903ZM899.54,861.46c.38-3.86.68-6.24.83-8.63q1.14-18.57,2.21-37.14c1-18.22,2-36.43,3.1-54.64.2-3.41-.45-6-3.95-7.75-14.56-7.24-28.82-15.13-43.58-21.95-13.21-6.11-26.61-12.17-40.49-16.41-23.19-7.09-46.44-14.3-70.74-17-8.63-1-17.22-2.38-26.09-3.62a27.32,27.32,0,0,0-.77,4.08c0,30.66,0,61.32-.12,92,0,3.77,1.72,5.6,4.81,7.24,22.53,11.91,44.39,25.17,68.3,34.38,11.32,4.36,22.38,9.47,33.9,13.2,12.92,4.19,26.13,7.59,39.39,10.61C876.93,858.18,887.78,859.49,899.54,861.46ZM1192.42,955c-12.51-.72-24.65-.89-36.64-2.27s-23.87-4-36-6.09c-.08,1.19-.3,2.85-.29,4.5.1,25.8-.1,51.61.46,77.4.36,16.51-1.7,32.55-7.19,48-3.56,10-3.11,19.79-1.21,30.06,3.89,21,8.59,42,8.38,63.56a16.71,16.71,0,0,0,.68,3.14c13.69-3.65,27-7.17,40.38-10.75,8-2.14,16-4.19,23.88-6.6,6.36-1.94,7.59-3.9,7.84-10.55,0-1.21,0-2.43,0-3.65q.06-90.18.09-180.36C1192.8,959.27,1192.55,957.15,1192.42,955ZM1039.23,846.47c16.69-5.89,32.43-10.85,47.71-17,14.84-6,29.11-13.35,43.82-19.67,4.24-1.83,5.86-4,5.83-8.61-.18-29.65-.08-59.31-.12-89a50,50,0,0,0-.66-5.75c-48.2,2.42-95,9.23-140.62,26.95C999.72,775,1013.63,812.53,1039.23,846.47Zm215.82,98.31a258.69,258.69,0,0,1-59.42,10.28v9.24q0,77.69,0,155.38c0,9.24.12,18.52-.79,27.69a12.43,12.43,0,0,0,3.86,10.9q26.77,27.88,53.41,55.9a28.08,28.08,0,0,0,2.85,2.19,56.47,56.47,0,0,0,1.13-6C1257.48,1189.09,1256.62,950.82,1255.05,944.78ZM1153,619.26c0,4.39,0,7,0,9.61-.44,20.65-.52,41.32-1.49,62-.76,16.25-2.38,32.47-4.09,48.66-2.27,21.49-5,42.94-7.48,64.41a8.7,8.7,0,0,1-4.5,7c-3.94,2.39-7.6,5.28-11.6,7.57-3.17,1.82-4.21,4.24-4.06,7.76A73,73,0,0,1,1117,850c-1,3.5-1.56,7.15-2.54,11.79l78.36-39.22V652a11.76,11.76,0,0,0-.11-3.62c-.51-1.49-1.18-3.29-2.36-4.1C1178.53,636.23,1166.59,628.33,1153,619.26Zm58.74-126c0-.58,0-1.15,0-1.72a29.83,29.83,0,0,1,4.23,0c14.67,2.09,29.15,4.68,43.39,9.28,23.55,7.61,44.46,19.75,63.22,35.4a209.36,209.36,0,0,1,50.57,61.7,226.46,226.46,0,0,1,20.76,52c3.4,13.4,6.17,27,7.07,40.9,1.3,20,1,39.84-2.34,59.63-6,35.83-19.16,68.64-40.67,98.06a214.24,214.24,0,0,1-67.9,60.82A182.79,182.79,0,0,1,1245,927.67c-24.15,6.13-48.81,8.41-73.79,4.79-21.08-3.06-41.38-8.37-60.34-18.27-3.88-2-7.82-4-11.77-5.83-2.09-1-4.16-1.41-5.62,1.86a18.31,18.31,0,0,0,1.75,1.16c21.49,10.94,43.42,20.37,67.53,24.43A203,203,0,0,0,1218,937.5a193.39,193.39,0,0,0,68.6-20.92,210,210,0,0,0,43.79-30,214.51,214.51,0,0,0,33.26-37.64,238,238,0,0,0,37-84.16,243,243,0,0,0,.61-104.2A233.52,233.52,0,0,0,1369.37,582a208.42,208.42,0,0,0-66.89-66.22c-12.53-7.7-25.68-14.51-40-19a229.9,229.9,0,0,0-41.88-9.28c-12.32-1.44-24.68-.84-37.26-.13-.82,3.77-1.52,7-2.45,11.27,8.7,0,16.77-.62,24.7.14,11.33,1.09,22.75,2.42,33.81,5,15.39,3.63,30.29,9.09,43.77,17.59,10.47,6.6,21.44,12.76,30.71,20.81a206.62,206.62,0,0,1,46.76,57.4,237.73,237.73,0,0,1,21.58,54.75,226.53,226.53,0,0,1,6,78.88,229.69,229.69,0,0,1-22.84,80.17A213.31,213.31,0,0,1,1314.06,880a196.12,196.12,0,0,1-27.13,19.64,188.51,188.51,0,0,1-34.2,16.09c-27.17,9.79-55,12-83.36,9.13a168.48,168.48,0,0,1-61.76-18.44c-2-1-4.29-1.34-8-2.44,1.52,2,1.81,2.78,2.35,3.08,25.12,13.6,51.83,22.21,80.4,23.87,26.18,1.53,51.78-1.55,76.76-10.47a202,202,0,0,0,66.12-39.1c18.5-16.31,33.42-35.75,45.38-57.56,19.9-36.28,29.19-75.07,28.67-116.2a230.91,230.91,0,0,0-37.63-123.87c-9.29-14.28-19.92-27.71-33.12-38.66-10.46-8.68-20.87-17.74-32.48-24.64-21.85-13-45.34-22.19-71-24.94C1220.63,495,1216.2,494,1211.75,493.21ZM815.56,527.55a11.22,11.22,0,0,0-2.14,0c-19.65,5.34-35.47,17.61-51.93,28.72a8.65,8.65,0,0,0-1.52,1.56c-5.54,6.15-11.1,12.26-16.56,18.46a19.79,19.79,0,0,0-3.67,5.34c-5.69,14-11.67,27.89-6.81,43.52.5,1.61.44,3.41,1,5,1.06,3.16,1.92,6.51,3.62,9.32,8.21,13.56,18,25.36,30.9,35.27,17,13,36,21.43,55.52,28.31,19.35,6.81,39.5,12,60.17,13.91,7.63.71,15.28,1.28,23.32,1.95v-9.64c-3.45-.54-6.53-1.19-9.64-1.48-27.79-2.57-54.47-9.24-79.65-21.44-5.89-2.85-12-5.33-17.46-8.91-7.09-4.67-13.58-10.23-20.28-15.48a29.59,29.59,0,0,1-3.12-3.3l.91-1.16c5.07,2.84,9.16,7.25,14.26,10.32-1.14-4-2.23-7.58-3.2-11.21-2.67-10-1.47-19.63,2.83-29.07,6.51-14.29,10.63-29.78,21.55-41.83a8.49,8.49,0,0,0,1.84-5.23C815.62,563,815.56,545.52,815.56,527.55Zm134.87-26.49a82.24,82.24,0,0,0-5.72,6.74c-7.53,11.18-11,23.79-12,37-1.54,21.34-2.76,42.72-4,64.09-1.29,23.08-2.31,46.17-3.58,69.25q-3.26,59-6.67,118.06c-.93,16.51-1.92,33-2.75,49.55-.79,15.8-1.61,31.6-2,47.4-.32,12.26,1.44,24.2,6.89,35.44a42.56,42.56,0,0,0,15.74,17.78c11.62,7.15,25,8.27,38.05,5a131.68,131.68,0,0,0,26.45-10.23q148.2-73.79,296.19-148.05a116.5,116.5,0,0,0,22.66-14.52c5.66-4.74,11.27-10.72,14.17-17.34,9.44-21.56,4.24-36.63-10.08-52.87-6.17-7-14.2-12.61-22-17.87q-85.15-57.15-170.62-113.88-52.53-35-105.1-70c-1.14-.76-2.42-1.32-4-2.15l-3.08,5.39c2.33,1.63,4.29,3,6.29,4.38q20.94,14,41.9,27.94,116,77.34,232,154.72c11.13,7.45,21.81,15.55,28.23,27.92,4.19,8.07,5.61,16.39,3.49,25.3-2.7,11.3-10,19.22-18.91,25.92-12.75,9.56-27.4,15.7-41.51,22.79q-135.57,68.07-271.24,136c-12.87,6.43-26.11,11.81-41,11.22-13.9-.55-24.08-7.46-30.74-19a50.21,50.21,0,0,1-6.71-27.32c1.07-26.49,1.93-53,3.25-79.48,1.48-29.88,3.44-59.75,5.08-89.63,1.28-23.32,2.34-46.66,3.59-70,1.85-34.74,3.63-69.49,5.75-104.22,1.08-17.78,3.24-35.4,15.54-49.76ZM1196,648.76V820.55l59.9-30.25c.16-1.67.33-2.63.33-3.59,0-31.11,0-62.22.11-93.33,0-4-1.61-6.13-4.73-8.18-16.86-11.07-33.59-22.33-50.39-33.5C1199.86,650.8,1198.37,650.09,1196,648.76Zm-35.75-177.5a14.32,14.32,0,0,0-.45-2.61c-9.35-19.77-18.59-39.59-28.25-59.21-1.22-2.48-4.36-4.5-7.07-5.65-6.35-2.67-12.94-1.44-19.33.27q-78.84,21.09-157.63,42.31a19.9,19.9,0,0,0-3.85,2c2.06,7.92,5,15,10.13,21.1,4,4.77,9.06,6.28,15.05,4.93,1.9-.43,3.77-1,5.64-1.48l116.84-31.35c8.74-2.35,10-1.56,10.31,7.25.34,9.48.42,19,.59,28.46,0,2.8,0,5.59,0,9.65,4.55-2.18,8.06-3.3,10.88-5.36,3.46-2.52,6.19-6,9.52-8.77,6.49-5.36,11.12-5.46,18.39-1.11,1.58.94,3.56,1.92,5.26,1.78C1150.8,473.09,1155.28,472.09,1160.24,471.26Zm-286.1,2.1c-1.57-1.91-2.42-3-3.33-4.07-6.85-7.93-15.36-14.12-22.72-21.4C833.67,433.66,818.34,420.2,807,403c-4.34-6.59-10.82-11.82-16.57-17.42a18.31,18.31,0,0,0-12.58-5C761,379.94,743.8,394.9,742,411.74c-.35,3.32.24,6.12,2.76,8.63,4.64,4.64,9.13,9.46,13.44,14.41,1.7,2,2.78,4.45,4.12,6.71,1.71,2.89,2.95,6.2,5.16,8.62,9.18,10.07,18.62,19.9,28.05,29.74,2.18,2.26,4.68,5.84,7.13,5.92,6.17.21,8.68,4.83,12.18,8.14,4.91,4.64,9.31,9.81,14.64,15.51C835.79,486,849,473.07,874.14,473.36Zm379.38,746.22-60.6-63.52c-7.59,2.14-14.32,4.1-21.08,6-15.45,4.22-30.88,8.54-46.4,12.49-4.12,1-5.56,3-5.34,7.06.31,5.82-.18,11.7.32,17.5a13.85,13.85,0,0,0,3.18,7.68c9.89,10.73,20.12,21.13,30.17,31.7a14.69,14.69,0,0,0,12.52,4.67,59.92,59.92,0,0,0,10-1.82q34.47-9.18,68.9-18.57C1247.66,1222.05,1250,1220.93,1253.52,1219.58Zm-239-702.79,82.11,54.71q98.68,65.79,197.35,131.63c10.1,6.76,19.8,14.07,26,25.1a27.89,27.89,0,0,1-1.49,30.15c-7.28,10.33-17.77,16.5-28.61,22q-74.58,37.59-149.38,74.77-75,37.5-150.11,74.91c-10.46,5.19-21.3,9.58-33.5,8.23-6.73-.74-12.58-2.82-17.52-7.82-6.14-6.22-8.86-13.77-10.2-22.06-2.82-17.52-.14-35,.66-52.46,1.83-39.62,4.39-79.19,6.58-118.79,1.27-23.08,2.32-46.17,3.59-69.25q2.69-49.2,5.56-98.39c1.06-18.15.62-36.64,10.73-53,1.6-2.58.61-4.41-1.8-6.26-.87,1.05-1.52,1.72-2,2.48-7.45,10.78-9.94,23.2-10.83,35.84-1.71,24.27-2.85,48.58-4.15,72.87-1.2,22.36-2.23,44.72-3.46,67.07-1.72,31.34-3.56,62.67-5.34,94-1.39,24.53-2.81,49.06-4.11,73.6-.66,12.63-1.37,25.28-1.52,37.92-.13,10.24,1.21,20.29,5.57,29.84,5.2,11.36,18.65,20.3,31.42,19.9,13.24-.41,25.25-4.87,36.8-10.65q105-52.5,209.89-105.28c29.35-14.72,58.81-29.22,88-44.15,10.83-5.52,21.15-11.93,28.42-22.26,7.13-10.11,8.13-24.68,1.88-35.74s-15.44-18.74-25.54-25.49q-138.08-92.3-276.35-184.29c-1.76-1.18-3.64-2.18-5.73-3.43ZM948.46,498.2c-4.32-1.58-6.71,1.4-8,3.64-4.27,7.31-9.13,14.67-11.35,22.69-2.83,10.21-4,21-4.66,31.66-2,31.32-3.32,62.68-5.05,94-2.15,39.1-4.44,78.2-6.64,117.3-1.44,25.5-2.89,51-4.2,76.51-.85,16.51-1.7,33-2.06,49.57A86.72,86.72,0,0,0,913,929.85a49,49,0,0,0,19.58,22.89c13.28,8.19,28.59,9.54,43.65,5.72A137.37,137.37,0,0,0,1003.38,948Q1147.32,876.38,1291,804.22c10.82-5.44,21.7-11.3,31.16-18.73a66.56,66.56,0,0,0,17.91-21.61,46.72,46.72,0,0,0,4.47-29.65c-2.1-11.92-8-21.53-15.27-30.13-5.85-6.94-13.6-12.57-21.24-17.69q-138-92.32-276.25-184.28c-2-1.31-4-2.44-7.08-4.28.16,2.39-.23,4.08.41,4.71a39.79,39.79,0,0,0,5.88,4.27q136.3,90.88,272.56,181.83a127.63,127.63,0,0,1,22,18c5.39,5.71,10.64,12.7,12.84,20.06,7.1,23.75-.19,40.28-19.26,55.7-12.75,10.3-27.89,16.74-42.46,24Q1138,875.7,999.36,944.91c-11.29,5.62-23.1,9.82-36.12,10.32-20.73.81-38.84-10.15-46.85-30-4.72-11.71-5.27-23.77-5.2-35.82.09-17.25,1.55-34.5,2.51-51.74,1.71-30.85,3.54-61.68,5.23-92.53,1.24-22.58,2.26-45.19,3.51-67.77,2.31-42,4.51-84.05,7.19-126,.88-13.78,2.34-27.67,10.19-39.79ZM910.08,671.62c.55-8.19,1-14.7,1.42-21.22.24-3.59-1.25-5.54-5-5.48-4.61.08-9.71-1.15-13.75.4-12.1,4.63-20.62.28-29.19-8.06-4.63-4.51-6.77-8.72-6.74-15,.13-24.82-.1-49.65-.22-74.48,0-2.55-.25-5.1-.41-8.33-16.63,3.15-26.68-6.48-36.27-17.06l-1.18.84v7q0,36.15,0,72.29c0,7-.6,14.11,1.88,20.93.14.38-.43,1-1,2.21-5.24-10.19-3-20.76-4.53-32.28-1.45,3.88-2.27,6.37-3.3,8.77-3.54,8.25-2,16.62,1.24,24.12,6.29,14.72,18.61,24,32.25,31.45,15.28,8.36,31.94,12.9,48.85,16.48,4.48.95,9.16.92,13.75,1.34-8.77-3.47-18.27-3.57-26.39-8.91Zm173.57-139.81c2.08,1.14,3.19,1.64,4.19,2.31q48.57,32.39,97.14,64.78c4.63,3.08,11.45,2.16,16.24-1.76,3.48-2.85,4.26-7,2.34-12.66-.39-1.15-.89-2.26-1.38-3.37q-12.12-27.72-24.26-55.44c-2.22-5-4.54-10-6.41-14.17-7.53.27-14,.47-20.53.75-1.67.07-3.65-.1-4.93.71-5.16,3.31-10,2.27-15.27.21a13.9,13.9,0,0,0-8.31-.47C1109,516.57,1097.63,524.64,1083.65,531.81ZM1040,640.47c35.11-7.22,68.67-17.83,104.35-26.73l-87.69-58.39a193.66,193.66,0,0,0-43.45,63.4l23.94-5.85c.74.86,1.3,1.2,1.32,1.57C1038.94,622.68,1039.4,630.88,1040,640.47ZM935.07,886c-2,10.75-.92,22.94,2.27,31.77,2.68,7.43,11.22,15.09,21.13,15,10.87,0,20.48-3.8,29.88-8.25,14.7-6.95,29.15-14.46,43.68-21.77,1.44-.72,2.74-1.72,4.18-2.63a12.17,12.17,0,0,0-1.39-2.21c-12-11.39-23.35-23.37-32.84-37-1.84-2.66-4-2.75-6.92-2.13-7.36,1.53-14.77,2.88-22.23,3.75-10.36,1.2-20.78,1.93-31.18,2.82-6.46.55-6.72.72-7,7.45-.15,3,0,6.12,0,9.9h21.93l.06,1.47C949.62,886.71,942,884.38,935.07,886Zm161.19-396.43c-1.48-15.5.73-29.82-2.54-44.72-2.84.48-5.18.68-7.42,1.27q-35.22,9.27-70.41,18.64c-15.72,4.16-31.42,8.37-47.17,12.43a16.21,16.21,0,0,1-17.17-5.22c-3.83-4.33-7.4-8.9-11.39-13.73l-17.32,4.57V523c4.75-8.26,9.59-16.58,14.27-25a8.41,8.41,0,0,0,.53-4c-.21-11.11,11-18.58,20.84-13.68a12.69,12.69,0,0,0,9.77.92,29.91,29.91,0,0,1,10.69-1.39c13.4,1.33,26.23,4.78,37.95,11.72,1.65,1,3.94,2.63,5.24,2.13,4.69-1.78,7.33,1.48,10.45,3.45,6.51,4.12,12.88,8.46,18.58,12.22,10-5.79,19.16-10.87,28.09-16.25C1084.14,490.18,1089,487.82,1096.26,489.54ZM947.9,636.36c5.28-1.4,9.15-2.69,13.13-3.4a6.85,6.85,0,0,0,6-5.54c3.95-14.94,11.12-28.5,18.34-42a211.28,211.28,0,0,1,28.4-40.42c3.17-3.57,6.41-7.07,10.24-11.27-14.61-9.5-27.54-20.2-45-21.6-6,14-7.43,14.88-19.14,12-5,5.92-5.87,13.35-6.41,20.5-1.81,24-3.09,48-4.55,72C948.54,622.7,948.29,628.72,947.9,636.36Zm248,286.89a41.38,41.38,0,0,0,4.93,0,210.68,210.68,0,0,0,51.29-13.48c3.78-1.51,4.15-4.11,4.14-7.49-.09-22.87-.06-45.75-.14-68.62a50.19,50.19,0,0,0-.85-6.23l-59.37,29.68Zm59.22-277.57a20.64,20.64,0,0,0,.93-3.76c0-23.1-.11-46.19-.11-69.29,0-5-2.6-8-6.7-10.36-10.51-6.1-20.87-12.45-31.35-18.57-6.73-3.93-13.82-7-22.26-8,0,5,.2,9.79-.05,14.6a34.07,34.07,0,0,0,3.91,18.23,136.94,136.94,0,0,1,6.39,14.69c3.26,8.41,1.56,13.07-6.14,17.67-1.4.84-2.76,1.72-4.49,2.79.81,1.37,1.16,2.7,2,3.27C1216.34,619.78,1235.47,632.54,1255.14,645.68ZM860.31,538.88c-1.44,14-.91,83.81.46,88.65,6.39-.23,12.66-.7,18.91-.59,7,.12,10.74,6.44,16.14,10.18,2-10,1.55-123-.52-128.87C887.39,523,876.48,533.81,860.31,538.88ZM997.57,855.45c-21.69-32.56-34.89-67.77-41.74-106.24-3.72,1.58-6.26,3-9,3.75-4.26,1.14-5.68,3.94-5.87,8-.37,8-.9,16-1.35,24q-2,35.31-3.9,70.61c-.13,2.52.16,5.07.26,7.84C956.65,861.25,976.66,861.22,997.57,855.45ZM908.65,423.21l.6-2.1c-10.69-10.91-21.25-21.95-32.2-32.6-1.82-1.78-5.27-2.36-8-2.61-10.19-.92-19.68,2.59-29.23,5.37a5.57,5.57,0,0,0-3.34,3.32c-1.47,6-6.19,7.73-11.14,9.26-4,1.24-8.09,2.32-13.17,3.76,10.65,11.15,20.24,21.46,30.12,31.48,10.73,10.88,6.87,9.39,20.41,5.63,2.44-.68,5.53-1.58,6.81-3.43,5.42-7.77,13.07-11.19,21.9-13.16C897.21,426.83,902.9,424.87,908.65,423.21ZM1181.56,480c1.67,2.09,2.29,3.67,3.23,3.87a24,24,0,0,0,6.51.29,193.71,193.71,0,0,1,66.18,8.37,185.59,185.59,0,0,1,45.71,20.63,217.48,217.48,0,0,1,75.11,79,233.47,233.47,0,0,1,21.58,51.65,229.27,229.27,0,0,1,8.38,47.3c1.25,20,.92,39.85-2.31,59.62a243,243,0,0,1-22.42,69.82,225.12,225.12,0,0,1-29.47,45.05c-12.75,15.08-27,28.84-43.69,39.53-11,7-22.26,14-34.18,19.31a201,201,0,0,1-66.2,16.28,196.54,196.54,0,0,1-62.2-5.44A193,193,0,0,1,1099.15,916c-2.54-1.43-5.21-2.64-7.72-4.11-2.31-1.33-4-.86-5.66,1.6a37.35,37.35,0,0,0,4,3c20.41,11.6,41.92,20.69,65,25.07a208.71,208.71,0,0,0,76.84.73,204.79,204.79,0,0,0,48.51-15.25c17.26-7.86,33.63-17.67,47.78-30.5,10.08-9.12,20.32-18.29,29-28.69a226,226,0,0,0,35.18-57.75c5.76-13.86,10.93-28,13.86-42.93a319.13,319.13,0,0,0,6.15-46.93,246.14,246.14,0,0,0-3.22-50.84c-3.07-19-8-37.63-16.17-55.12-6.15-13.18-12.47-26.44-20.34-38.61a209.69,209.69,0,0,0-33.16-39.65,285.27,285.27,0,0,0-30.29-24c-11.78-8.3-24.77-14.4-38.16-19.57a186.73,186.73,0,0,0-52.29-12.39C1206.69,479.24,1194.79,480,1181.56,480ZM801,615.89l-1.38-.11c-2.6,7-5.51,13.94-7.73,21.08-3.1,10-1.07,19.6,3.6,28.68,3.91,7.62,10.27,12.15,18,16.05,21.72,10.95,44.84,17.06,68.43,21.72,8.42,1.66,17.15,1.84,26.49,2.77V686.82c-12.28-2.79-24.34-5.31-36.29-8.3-17.59-4.39-33.84-11.61-48.06-23.18-11.86-9.64-21.36-20.5-22.26-36.71A12.07,12.07,0,0,0,801,615.89Zm343.23,2.3-1.61-.2c-.37,1.08-.76,2.16-1.12,3.25-9.14,27.15-9.11,27.18-28.87,47.8a50.22,50.22,0,0,1-8.23,7.12c-17.42,11.62-35.24,22.46-55.59,28.35-3.26,1-6.37,2.43-9.63,3.36-7.22,2-14.45,4.11-21.76,5.8-7.52,1.75-15.15,3.07-23.47,4.72.51,4,1,7.68,1.49,11.7,2.86-.86,4.75-1.3,6.55-2,26.48-10.19,54.26-15.17,82-19.73,14.6-2.4,29.52-2.77,44.29-4.13,2.8-.26,5.56-.86,8.47-1.32C1139.3,674.21,1141.75,646.2,1144.21,618.19Zm48.22,240.44-80,40.38c-.38,5.37,1.55,8.37,6.07,10.1,15.43,5.91,31,11,47.55,13,8.66,1,17.25,1.89,26.34,1.1ZM911.31,642.9a22.56,22.56,0,0,0,.67-3.12c1.5-26.23,2.94-52.46,4.47-78.69.24-4.13.72-8.24,1.24-12.34.43-3.31,1.52-6.59,1.55-9.89.15-22.88.11-45.76.1-68.63,0-2.15-.2-4.29-.3-6.25a13.57,13.57,0,0,0-2.36-1.15,25.65,25.65,0,0,0-3.61-.47c-9-.71-12.48,2.37-12.85,11.42-.06,1.7-.13,3.41-.14,5.11q-.23,78.12-.41,156.24c0,1.91.29,3.82.47,6ZM994.37,715c12.06-1.54,23.5-2.78,34.21-6.32,22.77-7.54,45.67-14.87,65.71-29a184.16,184.16,0,0,0,22.34-18.42c10.73-10.4,16.91-22.86,20.78-36.86.49-1.76.8-3.57,1.42-6.41-8.17,2.23-15.34,4.27-22.55,6.13-4.93,1.26-8.63,4-11.94,7.85-4.91,5.69-10.3,11-15.38,16.53-4.86,5.33-9.69,10.74-10.81,18.46H1084c-27.2,21.06-57.56,31.67-89.67,38Zm57.89,176.63c-48.65-46.49-74.42-103.76-77.33-170.77-2.92-67.22,17.9-126.67,62.42-177.2-3.24-4.45-5.51-2.68-8-.08-12.1,12.49-21.87,26.74-30.44,41.72a217.64,217.64,0,0,0-22.5,54.45c-3.41,13.39-6.71,26.95-8.33,40.64a253.1,253.1,0,0,0,7.82,99.75,248.34,248.34,0,0,0,59.79,104.7c2.51,2.64,5.34,5,8,7.47S1049.17,895,1052.26,891.59ZM1266,786.2c12.35-6.85,24.21-12.94,35.52-19.92a27.93,27.93,0,0,0,12-15.14c3.21-9.85-.14-18.32-6.48-25.57-11.47-13.13-26.82-21.11-41.17-31C1263.9,703.07,1263.89,776.7,1266,786.2Zm-7.8-274.64c-.29.4-.58.81-.86,1.22,7.66,4.17,15.66,7.86,22.94,12.62,22,14.36,41,31.78,56.46,53.23a219.26,219.26,0,0,1,35.11,75.54,232.32,232.32,0,0,1,3.52,97.64A218.76,218.76,0,0,1,1360.58,802a213.93,213.93,0,0,1-24.13,42.36c-18,24.12-39.47,44.15-65.9,58.72-2.86,1.58-5.68,3.22-8.52,4.83l.63,1.29c2.34-1,4.75-1.94,7-3.09,13.48-6.82,26.4-14.49,38.12-24.12a197.14,197.14,0,0,0,31.07-31.73A238.65,238.65,0,0,0,1363,812.13a224.35,224.35,0,0,0,16.42-44.31,213.07,213.07,0,0,0,6.55-41,240.65,240.65,0,0,0-3.85-61,217.32,217.32,0,0,0-30.64-76.75c-16.16-25.29-37-46.39-62.78-62.14C1279,521.05,1268.41,516.65,1258.23,511.56ZM973.73,965.71q0,25,0,50.15c0,2.7,1.71,3.77,3.77,4.75,9,4.26,18.41,3.92,27.84,1.94,6.85-1.44,7.8-2.73,7.87-9.89q.31-28.47.47-56.93a42.75,42.75,0,0,0-.73-5.61Zm69.5-69.66C993.5,847.94,965.77,789.33,963,719.84s20.33-130,66.81-181.84c-3.91-1.27-3.93-1.29-5.85.5-13.67,12.73-24.3,27.94-33.59,43.86a256.74,256.74,0,0,0-20.6,45,246.11,246.11,0,0,0-11.84,53.24c-3.76,32.89-1.87,65.64,7.4,97.53a316.6,316.6,0,0,0,16.38,44.33,215.77,215.77,0,0,0,34.24,52.27c6.91,7.82,14.67,14.87,22.05,22.26C1039.71,898.71,1041.33,898.7,1043.23,896.05Zm74.26-73-13.22,8.76q-5.76,3.84-11.51,7.69c-4,2.7-8,5.58-12.14,8.07-3.67,2.19-6.7,5.8-11.92,5.14l49.24-33c-13,4.53-25.36,10.1-37.9,15.2s-25.59,8.37-38.45,13.77c1.1,1.83,1.53,3,2.32,3.82,8.82,9,17.71,18,26.54,27,2.63,2.68,5.14,1.65,7.9.24,9.31-4.72,18.63-9.42,28-14,3.06-1.48,5.14-3.46,5.91-6.85,1.67-7.32,3.76-14.57,5.08-22C1118.06,833,1117.49,828.83,1117.49,823ZM995.61,701.13a127.17,127.17,0,0,0,30-7.25c14-5.34,28.37-9.74,40.78-18.72,10.66-7.72,12.53-25.52,3.21-34.7-2.54-2.51-5.05-2.87-7.63-.49-2.85,2.62-5.58,5.39-8.18,8.27-9.82,10.85-22.17,17.87-35.46,23.38-7.35,3-14.88,5.66-22.75,8.64ZM833.39,509.94a17.14,17.14,0,0,0,15,19c18.39,2,37-13.33,38.64-31.8.78-8.58-3.46-18.31-15.75-20.9C855.49,472.89,832.12,491.84,833.39,509.94Zm226.08,378.13c-32-28.79-54-64.16-66.59-104.94a244.93,244.93,0,0,1-5.54-124.65c8.87-42,28-78.74,56.26-110.78-2-2.8-3.68-1.89-5-.29q-8,9.44-15.76,19c-11.43,14.12-19.34,30.36-26.52,46.81a215,215,0,0,0-12,36.64,268.46,268.46,0,0,0-6.81,47.54,243.79,243.79,0,0,0,3,53.78,248.48,248.48,0,0,0,29.74,83.27c8,13.8,17.63,26.2,27.6,38.42,4.58,5.61,10.39,10.21,15.65,15.26C1054.88,889.6,1056.44,890.67,1059.47,888.07Zm107.82,358.16c.14.65.27,1.3.41,2,2.79-.47,5.65-.7,8.37-1.43,22-5.86,44-12.37,66.15-17.57,17.07-4,20-11.37,20-26q-.27-126.23-.07-252.45a27.64,27.64,0,0,0-.08-4.37,16.93,16.93,0,0,0-1.27-3.38l-1.54.15c-.12,2.78-.36,5.56-.36,8.33q0,116-.05,232c0,9.49-.29,19-.3,28.45,0,5.82-2.79,9.63-8,11.83a42.59,42.59,0,0,1-5.53,1.82q-34.82,9.33-69.65,18.6C1172.69,1244.89,1170,1245.55,1167.29,1246.23ZM1043.57,985.8c9.63-13.72,14.73-44.68,8.44-55.76-10.52,5.26-21.12,10.48-31.6,15.91a5.54,5.54,0,0,0-2.69,3.83c-.27,7-.12,13.92-.12,19.6Zm6.09-434.75-1.3-1.13c-1.33.61-3,.89-3.94,1.88a160.31,160.31,0,0,0-12,13.66c-10.31,13.88-20.06,28.22-26.49,44.34-5.4,13.52-10.87,27.17-14.35,41.25a242.69,242.69,0,0,0-6.3,78.9,246.65,246.65,0,0,0,10.17,52.87,234.65,234.65,0,0,0,47.27,84.74c5.56,6.41,12,12.12,18.11,18,.83.79,2.56.62,3.87.89.36-.47.71-1,1.07-1.43-48.55-44-74.32-99-77.36-163.69S1005.45,599.4,1049.66,551.05Zm90.21,1078.76a1004,1004,0,0,0,9.62-186.2C1141.24,1505.39,1136.9,1567.4,1139.87,1629.81Zm-.07-844c7.43-54.59,12-109.36,10.35-164.55a22.31,22.31,0,0,0-1.07-4.43l-1.59.12A970.26,970.26,0,0,0,1139.8,785.83ZM1032.52,647.15c6.19-10.08,2.69-19.47,3.61-29.52-6.69,4.15-11.86,8.43-17.79,10.76-8.75,3.44-13.64,9.14-15.48,18.18-1,4.89-3.48,9.51-2.63,14.93l7.37-.79a8.57,8.57,0,0,1-4,3.27c-1.56.79-3.09,1.63-4.64,2.44,16.93-3.08,31.41-10.67,44.05-21.69l-.75-1.56ZM1108,1313.26c-5,17-7.79,34.22-6.45,51.83.59,7.79,2,15.43,6.32,22.15,2.09,3.23,5.25,3.22,6.54-.28,1.38-3.77,2.58-8,2.3-11.9-.8-10.86-2.21-21.68-3.75-32.47C1111.53,1332.78,1109.64,1323,1108,1313.26Zm68.38-808.33c-.32,2.31-1.06,3.88-.58,4.8,6,11.5,13.88,21,27,24.95a78.51,78.51,0,0,1,15.47,6.17c10.83,6,21.32,12.62,32,18.87,5.73,3.36,8.49,7.83,8.42,14.83-.23,21.88.1,43.76.27,65.65,0,2.76.43,5.51.65,8.27h1.79a59.4,59.4,0,0,0,.64-6.08c0-23.1-.11-46.2.08-69.3.06-7.37-2.93-12.48-9.14-16.12-10.26-6-20.31-12.44-30.74-18.16a103.92,103.92,0,0,0-17.42-7.17c-6.42-2.11-12.09-5.26-16.38-10.39C1184.44,516.46,1181,511.21,1176.35,504.93ZM1041.71,990.55c-6.74-8.06-14.85-13.33-25.5-16.59-.12,15.1-.15,29,0,43.12C1024.94,1014.5,1037.61,1001.15,1041.71,990.55Zm-72.24-23.82c-4,.48-6.4.9-8.79,1-4.79.24-7.29,2.86-8.56,7.3-4.3,15,2.26,31.39,16.83,40.25C969.42,999.07,969.58,983.28,969.47,966.73ZM909.6,681.88c-1.61-3.17-1.6-3.18-3.72-3.42C885.7,676.09,866.3,671,848,662c-14.15-7-26.59-15.9-34.77-29.92-5.7-9.77-7.2-19.87-3.86-30.69.68-2.22,1.31-4.45,2-6.67l-1.63-.43c-1.45,4.07-2.8,8.19-4.38,12.21-3.37,8.56-1.58,17.16,1.9,24.71,6.76,14.63,19,24.49,32.86,32.07,15.68,8.57,32.68,13.73,50.13,17.24C896.51,681.74,902.9,683.42,909.6,681.88Zm271.17-179.36-1.14,1c.88,1.65,1.81,3.29,2.64,5,5.61,11.29,14.23,18.68,26.65,21.91,5.09,1.32,9.92,3.91,14.6,6.41,6.21,3.32,12.15,7.14,18.24,10.69a43.91,43.91,0,0,0,4.19,1.89c-4.63-6.58-9.37-12.77-16-16.89C1213.58,522.4,1197.15,512.49,1180.77,502.52ZM1108,1105.2a12.62,12.62,0,0,0-1,3.23c-.58,17-1.42,33.94-1.43,50.91,0,5.57.33,11.69,5.14,17.17,1.52-1.68,3.5-3,4.07-4.7a34,34,0,0,0,2-10.55C1116.72,1142.24,1111.72,1123.93,1108,1105.2Zm-278.58-751-31.3-46.1c-4.09-6-8-12.12-12.3-18-3.09-4.3-3.71-4.25-8.89-1.13,14.52,22.64,30.59,44.26,45.24,67.64ZM945.06,486.58a86.83,86.83,0,0,1,20.61,36.33c7.08-1.27,10.63-5.69,8.78-11.67-3.17-10.28-8-19.82-16.21-27.11C952.77,479.3,949.78,479.87,945.06,486.58Zm-9.81-35.45c-2-.41-2.47-.68-2.88-.58-7.33,1.69-14.69,3.26-22,5.19-12.82,3.4-17.75,9.77-18.09,22.87-.15,5.83-.19,11.67-.43,17.5-.75,18.23-19,36.88-37.24,38-11.65.71-23.1-3.2-26.24-18.49-.18-.88-1.23-1.58-2.67-3.32-.36,2.4-.81,3.52-.65,4.55,2.34,15.2,15,22.56,29.31,20.45,22.05-3.24,41.36-23,41.09-46.86-.06-4.62.22-9.23.35-13.85.32-11.07,2.73-14.38,13.52-17.78C917.44,456.26,925.6,454,935.25,451.13Zm190,22.21c7.08,4.53,9.84,10.94,11.88,17.67,2.12,7,2.45,14.1-.13,21.26,6.35-.1,10.81-3.93,11.48-10.06,1.09-10-1.28-19.29-7.86-27.12C1136.82,470.61,1132.52,470.11,1125.22,473.34ZM888.88,484.86c1.76-10.81,4.83-20.71-6-28-3-2-5.11-5.18-7.72-7.73-1.09-1.06-2.41-1.88-5.07-3.9,0,5.59-.16,9.64.06,13.66.12,2.11.28,4.69,1.5,6.19C877,471.62,882.68,477.82,888.88,484.86Zm372.07,207-1.48,0c-.18,2.27-.49,4.54-.51,6.81-.08,10-.09,19.92-.09,29.87,0,17.25,0,34.5.12,51.74,0,2.34-.93,5.16,1.79,7.21,1.73-5.84,2.54-69.95,1.22-91A29.17,29.17,0,0,0,1261,691.89ZM1127.87,485.35c-1.19-4.9-3.85-3.45-6.41-2.64a194.38,194.38,0,0,0-40.24,18.23c-7.06,4.19-14.34,8-20.55,14.43l4.53,3.26A204.85,204.85,0,0,1,1127.87,485.35ZM803.61,374.18c-5.26,10.62-1.47,23.8,8.2,28.44,2.31,1.1,6.41.42,8.72-1s3.6-5.2,1.41-7.74C816.14,387.18,809.89,380.86,803.61,374.18ZM960.8,646.08l-13.46.59c-.55,10.12-1.07,19.66-1.64,30l9.61-.46C957.13,666.23,958.85,656.78,960.8,646.08Zm299.54,260c2.46-6.44,2.44-74.92.09-81.38-.62,1.41-1.34,2.38-1.46,3.41C1257.89,837.76,1258.85,900.3,1260.34,906.05ZM1131.19,491.66c-.07-.76-.13-1.52-.2-2.27-1.46-.24-3.1-1-4.36-.64a182.33,182.33,0,0,0-58.6,31.16c3.56,4.62,5.65,1.42,7.8-.11a186.91,186.91,0,0,1,45.42-24.36C1124.59,494.24,1127.88,492.92,1131.19,491.66Zm55.22,11.51,49.07,29.89a32.85,32.85,0,0,0-12.82-15.25c-7.32-4.73-14.94-9-22.23-13.74C1196.07,501.23,1191.63,500.74,1186.41,503.17ZM943.3,723.24c-.61,9.59-1.18,18.63-1.84,29l14.19-6.76c-.94-8.08-1.79-15.41-2.66-23-2.73,0-4.41-.06-6.08,0A28.68,28.68,0,0,0,943.3,723.24Zm-49.17-81.78c-7.18-10.73-15.7-16.68-31-9.79C872.63,645,878,646.73,894.13,641.46Zm123.08-139.63c-15.33-9-30.33-15.13-48.08-10.25,1.17,4.12,2.77,5.87,6.53,4.92a18.13,18.13,0,0,1,6.44-.41c9,1.06,17.67,3,25.5,7.84a56,56,0,0,0,6.71,3.06C1015.31,505.21,1016.12,503.79,1017.21,501.83ZM997,675.15c18.56-2.2,55.37-22.09,57.76-34.4-3.85-.14-6.09,2.47-8.55,4.81a56.59,56.59,0,0,1-7.07,6.18c-11.27,7.63-23,14.42-36.27,18a13.51,13.51,0,0,0-4.54,2.17C997.63,672.52,997.52,673.9,997,675.15Zm104.53,265.21c.57,6.72.74,11.81,1.55,16.8a13.18,13.18,0,0,0,3.14,6.28c3.5,3.91,6.59,3.12,8.76-1.61,2.58-5.63,1.88-11.31.88-17.29Zm-26.32-415.43.65,1.51a33.28,33.28,0,0,0,4.81-2c3.12-1.85,6-4.05,9.18-5.87,12.6-7.32,25.27-14.53,39.41-18.58,2.93-.84,4.19-2.21,2.36-5.13C1111.39,500.26,1082.11,515.88,1075.25,524.93ZM973.89,500.45c.42,3.81,2.74,3.81,5.34,4,9,.74,17.75,2.48,25.43,7.75,1.53,1,3.43,1.55,5.56,2.48.9-2,1.63-3.56,2.34-5.08C997,499.76,983.21,496.49,973.89,500.45ZM761.44,1124.24c-6.62,12.36-9.87,33.47-6.27,40.66C762,1158.12,764.8,1140,761.44,1124.24ZM958.37,277.35c6.48,11.39,12.68,22.37,19,33.29,1.61,2.78,3.85,3.24,7,.81-2.41-4.41-4.65-8.65-7-12.82-3.72-6.55-7.43-13.11-11.32-19.56C964.54,276.58,962.63,274.12,958.37,277.35ZM761.3,914.19c-7.34,16.75-9.84,33.21-6.21,40.92C762,948.93,765.08,928.34,761.3,914.19Zm-7.72,464.38c8.15-5.69,11.5-26.84,7.46-42.17C757.33,1350.52,752.12,1363.22,753.58,1378.57Zm326.94-850.64c.36.66.73,1.31,1.1,2a12.91,12.91,0,0,0,2.4-.86c13.19-7.75,26.25-15.76,41-20.29a19.05,19.05,0,0,0,5.38-2.18c1-.73,1.41-2.4,2.79-5C1113,507.73,1096.22,516.83,1080.52,527.93Zm-61.41-29.13.57-1.88c-1-.62-1.91-1.27-2.9-1.85a86,86,0,0,0-34-11.38c-6.31-.7-11.55.76-17,3.49a5.56,5.56,0,0,0,4,1.41c4.3-.38,8.66-1.76,12.85-1.34,10.59,1.06,21,3.18,30.24,9.06C1014.67,497.51,1017,498,1019.11,498.8Zm-66,207.9c.35-6.58.69-12.87,1.05-19.68l-9.18.41V706.7Zm222.17-206.07c-8,1.16-14.58,2-21.14,3.16-2.69.48-4.85,2-4.56,5.3C1162.57,511.55,1171,509.28,1175.32,500.63Zm.26-26.94c-5.08,6.79-4.57,18.61.66,23.77C1181.74,490.88,1181.62,480.8,1175.58,473.69ZM825.86,399.75c6.43-9.72,7.78-10.67,20-13.93,7-1.86,14-3.8,21-5.76a18.74,18.74,0,0,0,2.92-1.35,5.24,5.24,0,0,0-4.14-.91c-7.95,2.05-15.9,4.13-23.78,6.42a38.48,38.48,0,0,0-8.66,3.61C828.7,390.46,825.83,394.37,825.86,399.75Zm-90.28,23.36c.67,8.06,11.68,21.89,19.71,25.86-1-3.07-1.26-6.05-2.83-7.86C747.09,434.89,741.24,429.07,735.58,423.11Zm86.52,97.36c.14-7.19-10.06-20-19.6-25.27C806,506.49,814.92,512.77,822.1,520.47Zm358.57,2.28c2.81,9.38,6.22,18.41,11.34,26.74a77.3,77.3,0,0,0,.56-13.86,5.93,5.93,0,0,0-1.64-3.72C1187.64,528.73,1184.11,525.78,1180.67,522.75Zm-110,398.18c12.51,6.64,24.36,14.51,38.22,18.08a140.56,140.56,0,0,0-12.62-6.92c-4.32-2.18-8.49-4.74-13-6.44C1079,924.06,1076.32,918.83,1070.66,920.93Zm-312.26-479c-2.17,4.35-1.32,8.9,2.65,14.08,4.59,6,9.92,8.78,15.43,7.81-4-3.06-8.33-5.43-11.25-9S760.61,446.27,758.4,441.93Zm331.15,50.56c-7.77,1.47-30.49,14.9-33.34,19.76.43.17,1,.63,1.27.48C1068.22,506,1078.92,499.22,1089.55,492.49ZM736.13,417.78c2.16,5.94,15.84,20,20.35,20.92C753.37,432.45,741.51,420.25,736.13,417.78Zm68.67,71.06c3,7.83,15.61,20.41,21.42,21.67A134.51,134.51,0,0,0,804.8,488.84Zm347.85,12.47,18.19-3.26c-.15-3.07-.74-5.09-4.24-4.38-4,.82-8,1.48-12,2.25C1151.64,496.49,1151.56,498.34,1152.65,501.31ZM978,508.61c5.28,1.28,10.71,2.14,15.79,4,4.87,1.75,8.94,5.64,14.52,5.54C999.33,511.57,989.75,506.78,978,508.61Zm31.91,120.23c6-2.9,12.79-4.37,17-10.13C1021,621.82,1011.39,618.18,1009.91,628.84Zm138.16-145.67c4,3.75,4,3.77,16,.95,2.08-.48,5.33.18,4.44-4.38C1161.8,479.35,1155.43,481.18,1148.07,483.17Zm21,3c-5.72,1-11.08,1.7-16.32,2.91-2.45.57-2.63,2.49-.92,4.37C1167.61,491.43,1167.61,491.43,1169.05,486.15Zm.82-10.83c-8.36-2.62-19.22-.94-24.27,3.71C1154.67,480.2,1162.17,477.06,1169.87,475.32ZM948,642.21c10.53,2.31,14.06,1,14.58-5.46C954.86,636.68,949.82,638.57,948,642.21Zm4.61,68.55h-8.39v8.38l8.39-.38Zm-1.11,997.92c18.1,1.09,33.94-.65,46.54-4.91Zm-96.59-1259L866,459c.35-5,.58-8.16.88-12.28Zm193.1,412-1,1.11c7,7,13.69,14.29,22.44,19.35Zm100.93,376.78c3.83,3.45,6.28,9.89,14.39,9ZM884.72,1706.88c.06-.46.13-.93.19-1.39l-21.77-3.36c-.07.55-.15,1.11-.23,1.67Zm69.49-1023.5c-.18-4.4-2.79-3.39-4.65-3.35s-4.08,0-3.32,3.35ZM920.65,458.86,921,460l13-3.82-.27-.9Zm-10.49-42.43c-2.4-2-5.72-4.83-9-7.63l.22-.21ZM1318,731.17q1.23,7.47,2.45,14.93A19.74,19.74,0,0,0,1318,731.17ZM991.63,698.39l.25-.2V686.1h-.25ZM883.3,389.67l-4.19-6.06-.68.71Zm145.23,195.22-1.16-1-5,7.85,1.09.7ZM936.3,796.05v0Zm191.94,420.75-1,.88-2.26-4.74ZM942.07,682.41v0Zm-2.86,58.3h0v-6.93h0Zm-4.39,73.53h0v6.84h0Zm-3,59h.1v-5.42h-.1Zm1.51-24.23h0v-5.3h0Zm4.42-81.63c0,.52,0,.28,0,0,0-1,0-1.94,0-2.91a1.3,1.3,0,0,0-.13-.36c0,1.22,0,2.43,0,3.64A4.11,4.11,0,1,0,937.75,767.43ZM1304,714l-.6.79,4.1,3.26.55-.71Zm-312.1,11.64-.16,0v4.92h.16Zm1.53,14.17h-.25v5h.25Zm50.19,118.38.93-.76-2.49-2.74-.67.53ZM1033.35,845l1-.72-2.51-2.76-.68.55ZM1311,761.71c1.44-.57,2.06-.62,2.22-.91a11.57,11.57,0,0,0,.66-2.14Zm-12-50.5.53-1.08-2.76-1.71-.47.73Zm-358.31-2.16v2.3h.12C940.7,710.44,940.66,709.53,940.63,709.05Zm387.54-186.18.84-.9-3.6-2.52-.53.81ZM895.11,1707.4V1707h-4.18v.44Z"/><path class="cls-1" d="M950,1410.1c-1.36-10.13,1.56-19.85,5.63-28.82a53.58,53.58,0,0,1,18.22-21.36,134.73,134.73,0,0,1,42-19.71c12.82-3.56,26.07-6.29,39.43-2.28,8.84,2.64,15.78,7.41,19.8,16.44,5.33,12,4.65,24,2.58,36.36a92,92,0,0,1-15.7,38c-10.66,15.13-24,27.79-42.19,33-11.12,3.17-23,4.28-34.43,0a16.23,16.23,0,0,0-2.79-.83c-11.79-2-19.51-10.09-25.23-19.35-3.93-6.36-5.23-14.44-7.17-21.88C949.3,1416.73,950,1413.4,950,1410.1Zm32.76-51.89c-.07,1.12-.22,2.33-.21,3.54q.15,39.06.35,78.13a14.46,14.46,0,0,0,.34,4.33c.33,1,1.38,2.53,2.19,2.58,5.65.35,11.42,2.14,16.46-2.78a33.66,33.66,0,0,1,18.69-9.17,15.83,15.83,0,0,0,13.73-16q.29-36.14.42-72.28c0-2.1-.28-4.2-.43-6.24C1020.41,1340,995.84,1348.59,982.71,1358.21ZM956,1430.69c2.51,11.3,12.79,22.64,21.49,26,10.2,3.9,20.56,4.92,31.44,4.36,12.61-.64,23-6.39,32.28-13.67a88.5,88.5,0,0,0,23.92-29c8.22-15.73,12.49-32.12,11.26-49.73-.83-11.86-6.49-21.22-17.26-26.94-1.72-.91-3.84-1.07-6.7-1.82a56.83,56.83,0,0,0,1.83,6c5.44,11.88,4.54,24.1,2.33,36.48-2.17,12.08-6.63,23.22-12.39,34-4.91,9.22-11.72,16.87-19.28,23.58a43.08,43.08,0,0,1-17.89,9.41c-10.09,2.41-20.45,3-30.65-1.83-6.77-3.18-13-6.43-17-12.92A43,43,0,0,0,956,1430.69Zm22.72-70.85c-3.43,2.41-6.14,3.68-8,5.72-7.76,8.44-14.73,17.36-16.68,29.21-1.6,9.66-3.15,19.53,1.48,28.51,3,5.92,7.79,11.08,12.34,16.07,2.53,2.78,6.36,4.08,10.87,3.77Zm59.7,57.7c8.85-12.37,12.86-24.77,14.51-38.79a59.34,59.34,0,0,0-7.68-2.17c-5.11-.72-6.64.59-6.76,5.76-.16,7-.06,14.06-.07,21.1C1038.4,1407.69,1038.41,1412,1038.41,1417.54Z"/><path class="cls-1" d="M908.48,1407.48c-.34,17.48-6.43,29.55-18.39,39.19-13.72,11.07-28.78,14.58-46.19,12.22-13.88-1.88-24.76-8.66-34-18-22.33-22.35-31-49.93-28.4-81.11a58.36,58.36,0,0,1,3.94-17A20,20,0,0,1,798.46,1331a43.05,43.05,0,0,1,17.32-1.28,122.53,122.53,0,0,1,46.7,17.63c8.8,5.53,17.39,11.29,24.77,19a88.75,88.75,0,0,1,18.8,29.13C907.78,1399.89,908,1404.87,908.48,1407.48Zm-73.08-69.77a22.69,22.69,0,0,0-.41,2.86q.16,41.23.42,82.48a25.56,25.56,0,0,0,.87,5.74c1.75,7.21,4.81,9.27,12.4,9.29,2.52,0,5.67.39,7.43,1.89,4.93,4.22,10.28,3.8,15.83,2.59,10.12-2.22,18-8,25-15.48,5.16-5.57,8.21-11.77,8.35-19.56.18-10.88-4.7-20.06-10.67-28.12C879.75,1359.33,859.57,1346.18,835.4,1337.71ZM900.34,1430l-1.35-.76a61.51,61.51,0,0,0-5.2,5c-6.1,7.44-14.81,10.74-23.48,12.12a46.51,46.51,0,0,1-22.86-2c-14.14-5.34-23.85-16.63-30.93-29.66-5.9-10.86-10.53-22.37-12.59-34.78-2.38-14.28-3.41-28.42,1.78-42.35a34.72,34.72,0,0,0,1-4.14c-9.2-1.41-16.69,3.54-19.7,12.13-4.14,11.81-3.88,24-2.77,36.05a95.62,95.62,0,0,0,28.16,58.55c6.84,6.75,15,12,24,14.59,11.15,3.18,22.9,4.55,34.24-.47a11.51,11.51,0,0,1,2.1-.61c10.32-2.29,17-9.89,24.08-16.79C898.58,1435.2,899.21,1432.36,900.34,1430Zm-69.62-58.71c-3.53,2.27-5.43,3.67-7.48,4.77a58.85,58.85,0,0,1-9.1,4.36c-5.14,1.69-5.66,1.87-4.46,7a90,90,0,0,0,14.05,31.71c1.94,2.75,3.61,6,7,7.83Zm-21.91-18.85c8.84-2.74,14.82-9.18,21.7-14.82a62.14,62.14,0,0,0-11.79-3.91c-6.53-1.56-7.54-1.08-9.43,5.19C808,1343.14,805.56,1347.41,808.81,1352.48Z"/><path class="cls-1" d="M1000.62,1249.71c-8.87,1.64-19.1-2-28.13-6.72a41.26,41.26,0,0,1-16.55-16.9c-7.42-14.57-9.72-30.21-4.31-46.59,5.09-15.36,14.7-26.19,28.4-34.43a137.37,137.37,0,0,1,57.45-19.5c10.1-1,20.17,0,29.09,6.67,7.71,5.76,10.86,13.62,12.16,22.32,2.14,14.32-1.07,28.33-6.33,41.36a86.34,86.34,0,0,1-16.9,27c-9.1,9.68-18.91,17.85-31.5,22.89C1016.94,1248.68,1009.88,1249,1000.62,1249.71Zm12.36-115.2a8.24,8.24,0,0,0-2.18-.22c-12.61,3.24-23.71,9.76-34.82,16.25-2.48,1.45-2.82,3.73-2.81,6.25.14,22.36.33,44.72.38,67.09,0,3.75,1.63,5.47,5.07,6.83,9,3.56,18.22,2.5,27.31,1.44,5.71-.67,7.05-3,7.11-9.08q.4-40.47.61-81C1013.66,1139.54,1013.2,1137,1013,1134.51Zm40-5.14c.7,2.48.92,4.16,1.63,5.59,3.41,6.77,4,14,3.51,21.35-1.69,24.59-10.34,46.19-27.76,64.06-12.42,12.74-27.48,18.52-44.84,15.55-9.59-1.65-19.53-4.56-25.37-14-1-1.69-2.71-3-5-5.45,2.28,11.75,10.33,17.55,17.26,24.16a7.08,7.08,0,0,0,2.63,1.17c10.62,3.4,21.13,7.55,32.66,4.68a9.27,9.27,0,0,1,2.18-.14c12.38,0,22.43-6.42,31.58-13.34,10-7.6,17.93-17.52,24-29,7.89-15,12.1-30.74,10.93-47.6-.8-11.6-6.38-20.7-17.25-25.85C1057.56,1129.8,1055.59,1129.84,1053,1129.37Zm-35.14,2.09v48.83l25.42,16c.27-.4.94-1.34,1.56-2.31,5.37-8.38,6.82-18.1,8.83-27.51,2.4-11.3,2.18-22.56-3.19-33.31-1.63-3.26-3.66-5-7.28-4.63C1035.08,1129.42,1027,1130.4,1017.87,1131.46Zm-49.6,26.72c-20.43,19.38-23.24,50.8,0,67C970,1216.3,970.08,1165.16,968.27,1158.18Zm48.5,26.62c-1.44,13.56-1,37.11.93,42.49,2.5-1.66,5.21-2.91,7.18-4.88a188.9,188.9,0,0,0,12.72-14c4.81-5.88,4.24-9.45-2-13.77-4.17-2.9-8.54-5.53-13-8.05C1021.11,1185.73,1019.16,1185.51,1016.77,1184.8Z"/><path class="cls-1" d="M908.31,988c-.31,14.45-6.69,25.52-17.61,35-9,7.78-19.47,11.4-30.41,12.7-10.7,1.27-21.92.51-31.75-5.36-7.47-4.46-14.88-8.73-21.15-15.25-12.4-12.92-18-28.59-21.19-45.5a215,215,0,0,1-2.87-22.35,48.7,48.7,0,0,1,4.1-24.89,40.78,40.78,0,0,1,3.93-6.85c3.51-4.85,8.2-6.66,14.36-7a72.54,72.54,0,0,1,27.21,4.25c24.77,8.48,46.77,21.37,63.32,42.31C903.2,963.86,908.23,977.36,908.31,988Zm-8.15,17.21c-2.82,2.54-5.55,5.19-8.47,7.61a43.69,43.69,0,0,1-29.4,10.44c-9.95-.12-18.32-3.71-26.28-9.26a57.33,57.33,0,0,1-19.61-23.88,155.49,155.49,0,0,1-11.33-40.63c-1.67-11.38-2.22-22.77,2.95-33.63a26.64,26.64,0,0,0,1.23-4.58c-11.27-.69-15.23,1.83-19.71,12.69-2.74,6.63-4.55,13.45-3.74,20.59,1.25,11.09,2.28,22.27,4.72,33.12,1.79,8,4.61,16.13,8.89,23,8.33,13.45,20.28,23.4,34.9,29.85a13.14,13.14,0,0,0,2.76.84c20,3.84,38.52,1.94,54.64-12.24C896.11,1015.24,898.45,1010.67,900.16,1005.17Zm-73.88-5.77a29,29,0,0,1,1.53-2.79c6.2-8.43,12.68-16.55,21.63-22.4,1.45-1,2.46-3.54,2.56-5.44.34-6.31,0-12.65.28-19,.24-4.8-1.55-8.3-4.88-11.58-5.71-5.61-11.43-11.25-14.15-19.18a6.93,6.93,0,0,0-3.87-3.81c-5-1.62-10.2-2.71-15.61-4.07-3.32,7.14-6.22,13.55-6.36,21.16C807,953,813,972.14,820.29,991,821.36,993.76,823.79,996,826.28,999.4Zm31.07-52.66c-2,6.77-1.57,65.85.36,72.41a34.93,34.93,0,0,0,16.88-.77c8.69-2.71,15.45-7.73,21.78-13.85,11.18-10.82,11.25-24.55,3.58-37a5.9,5.9,0,0,0-3.41-2.4c-12.06-2.66-22.16-9.56-32.93-15C861.55,949,859.52,947.89,857.35,946.74ZM836.2,916.81c4.95,13,13.66,20.83,23.3,27.17,9.26,6.08,19.56,10.59,29.5,15.6,2.11,1.06,4.65,1.28,7,1.89C881.48,939.66,861.45,926.17,836.2,916.81Zm-8.59,85.45c6.94,8.81,15.09,13.78,25.45,17.69.54-15.15.55-29.06,0-44.27C841.31,982.58,834.38,991.89,827.61,1002.26Z"/><path class="cls-1" d="M908.49,1197.24c.1,14.45-6.35,25.52-17,34.63-14.32,12.22-30.75,15.38-49,12.36-14.08-2.32-25-9.74-34.77-19.53A83.46,83.46,0,0,1,788,1193.58a112.09,112.09,0,0,1-5.67-25.49c-1.14-10.59-.85-21.21,2.27-31.76,1.94-6.57,6-10.93,10.76-15a8.11,8.11,0,0,1,4.58-1.89c5.82-.26,11.81-1.05,17.45-.05A137.83,137.83,0,0,1,892,1160.27c6.77,7.4,11.1,15.93,14.91,24.81C908.47,1188.69,908,1193.16,908.49,1197.24Zm-51.56-60.37a9.46,9.46,0,0,0-.95,2.5c.12,28.17.31,56.33.4,84.5,0,4.08,2.16,5.37,5.78,5.91,6.91,1,12.83-2,18.87-4.35,8.42-3.23,14.43-9.72,19.82-16.59,3-3.8,4.07-8.55,4.38-13.61.63-10.27-4.43-18.63-9.79-26.08A99.18,99.18,0,0,0,856.93,1136.87Zm-44.8-15.28c-2.68,6.63-5.48,13-6,20.12-1.1,13.81,1.59,27.17,5.66,40.17,2.15,6.9,5.75,13.37,9,19.85,1.33,2.62,3.56,4.77,5.54,7.35,1.19-1.43,1.63-2,2.11-2.54,6.68-7.6,11.91-16.58,21.18-21.75a6.31,6.31,0,0,0,2.49-4.73q.23-21.15-.15-42.31a6.23,6.23,0,0,0-2.8-4.53A111,111,0,0,0,812.13,1121.59Zm-3.73,0c-11,.34-17.47,4.47-20.12,11.73-7,19.26-4.92,38.67,1.37,57.22,6.87,20.27,19.61,36.52,39.32,46.71,10,5.15,20.52,6.33,31,5.34A53.56,53.56,0,0,0,891.54,1229a31.74,31.74,0,0,0,9.24-14.07,12.69,12.69,0,0,0-4,3c-6.24,7.34-14.46,11.33-23.48,13.8-9.69,2.65-19.18,1.39-28.23-2.72-10.71-4.86-18.59-13-25-22.64a94.42,94.42,0,0,1-13.15-29C802.15,1158.88,799.77,1140.48,808.4,1121.63Zm44.52,66.74-1.93-1.12a78.54,78.54,0,0,0-22.53,25.59c6.58,8.29,14.73,12.77,24.46,16.54Z"/><path class="cls-1" d="M863.89,1517.41l29.38,5-.31,1.9c-10.05-.53-19.74-3.25-29.64-4.73Z"/><path class="cls-1" d="M753,1440.19c2.88,5.16,5.45,10.44,6.23,16.39l-1.37.52q-3.18-8.16-6.38-16.33Z"/><path class="cls-1" d="M840.06,870.94a14.89,14.89,0,0,1-2.69-.35,28.07,28.07,0,0,1-3.09-1.35l.42-1.38,6.13,1.6Z"/><path class="cls-1" d="M821.88,628.62q10.15,10.71,20.29,21.43C832.91,645.24,825.45,638.74,821.88,628.62Z"/><path class="cls-1" d="M857.81,660.59l-10.75-6c5.2-1.41,8.17,2,11.7,4.1Z"/><path class="cls-1" d="M870.94,663.28l7.44,2.2C874.12,667.43,872.27,666.29,870.94,663.28Z"/><path class="cls-1" d="M1012.78,657.26l12.81-6.4c-3.41,5.31-5.25,6.36-12,7.8Z"/></svg>