<svg id="Layer_1" data-name="Layer 1" xmlns="http://www.w3.org/2000/svg" viewBox="0 0 2000 2000"><defs><style>.cls-1{fill:#fff;}.cls-1,.cls-2{stroke:#000;stroke-miterlimit:10;stroke-width:2px;}</style></defs><path class="cls-1" d="M680.65,1215c3.34-4.38,6.63-8.65,10-12.84,2.59-3.19,5-6.52,7.52-9.8,2.61-3.45,5.73-6.46,8-10.17a8.54,8.54,0,0,0,.43-1.27c-.8-.76-1.64-1.68-2.59-2.44-4.46-3.58-9-7.09-13.41-10.69-2.65-2.15-5.2-4.44-7.82-6.62-1-.79-2.1-1.36-3-2.2-1.59-1.46-3.06-3.06-4.64-4.66,0-2.25,0-4.44,0-6.63,0-7.66,0-15.33.1-23,0-1.79-.22-3.55.73-5.32.54-1,.23-2.49.24-3.76.07-9.13.07-18.25.2-27.37,0-2.5-.39-5,.74-7.5.55-1.22.16-2.88.17-4.34,0-6.21-.06-12.41.13-18.61.16-5-.71-10.17.89-15.13v-11c1.57-3.75,4.73-5.05,7.41-6.68,2-1.19,4-2.37,5.87-3.64s4-2.4,6-3.57c4-2.31,7.86-4.85,11.75-7.34a82.28,82.28,0,0,1,8.19-5,16.85,16.85,0,0,0,2.29-1.33,16.15,16.15,0,0,0,1.64-1.5c-.3-1.38-1.5-1.94-2.29-2.82a14.44,14.44,0,0,0-2.73-2.63c-3.52-2.29-6.12-5.59-9.18-8.37-3.85-3.52-7.64-7.12-11.53-10.6-2.68-2.4-4.86-5.29-7.88-7.38A4.87,4.87,0,0,1,686.3,965c1-2.48,1.12-5.23,2.63-7.55.65-1,.6-2.37,1.21-3.53s.38-2.41.76-3.66c1.48-4.76,3.2-9.42,4.89-14.1,1.21-3.34,1.86-6.85,3.14-10.18,1.21-3.15,2-6.44,3.21-9.6,1.25-3.32,2.18-6.76,3.27-10.15,2-6.09,3.9-12.19,5.93-18.26.84-2.52.95-5.32,2.74-7.48a11.07,11.07,0,0,1,1.62-2.09c2.58-1.91,5.24-3.69,7.68-5.8,2.16-1.88,4.48-3.57,6.76-5.36,2-.5,4.24.34,6.24-1,.64-.43,1.75-.16,2.65-.17,3.6,0,7.2,0,10.8-.12,2.46-.08,4.91.25,7.37-.83,1.36-.6,3.18-.11,4.11-.11l8.45-5.75c4.34-8.75,8.88-17.89,13.4-27,2.3-4.65,4.56-9.33,6.88-14,.56-1.12,1.31-2.13,1.89-3.24.74-1.42,1.38-2.88,2.09-4.32,1.41-2.88,2.71-5.83,4.31-8.6a37.28,37.28,0,0,0,2.29-4.82,90.54,90.54,0,0,1,4-8.16c.66-1.28,1.83-2.39,2.12-3.72a24,24,0,0,1,3-6.85c2-3.4,3.5-7,5.14-10.56,1-2.09,1.76-4.32,3.37-6.1a5.54,5.54,0,0,0,1.49-2.83c.26-2.45,1.58-4.45,2.72-6.39,2.19-3.7,3.85-7.63,5.68-11.49a23.07,23.07,0,0,1,3.12-5.64,7.23,7.23,0,0,0,1.5-2.83,35.8,35.8,0,0,1,4.85-10.1,14.37,14.37,0,0,0,1.67-3.35,41.25,41.25,0,0,1,4.68-9.6,10.66,10.66,0,0,0,1.74-3.31c.33-1.85,1.42-3.28,2-4.94,1.37-3.7,3.94-6.72,5.31-10.49,1.26-3.48,3.62-6.55,5.28-9.94,4.41-9,9-17.93,13.32-27,.91-1.9,2.21-3.69,2.42-6a5.65,5.65,0,0,1,1.08-2.43,34.49,34.49,0,0,0,4.28-9.72,13.88,13.88,0,0,1,1.71-3.34,12.44,12.44,0,0,1,1.81-1.88l3.31-.27a1.62,1.62,0,0,0,.6-2c-.58-1.5-1.35-2.91-2-4.34V601.79a8.39,8.39,0,0,1,5.2-3.92c2.39-.2,4.88,0,7.6-.29,0-1.36,0-2.42,0-3.48q0-69.54,0-139.07c0-2.15.13-4.29-.78-6.39-.4-.92-.06-2.16-.06-3.39-1.53-2.35-3.12-4.73-4.63-7.17a36.34,36.34,0,0,1-5.4-16.12c-.66-.81-1.61-.55-2.47-.55-12.42-.06-24.84-.08-37.26-.16-2.11,0-4.26.39-6.31-.78-.69-.39-1.77-.07-2.67-.09-2.7,0-5.41-.26-8.09-.08-3.1.21-5.88-1.42-9-1.24-.46,0-1-.45-1.42-.69-2.22-1.12-4.38-2.39-6.66-3.35a19.94,19.94,0,0,1-9.43-8.4c-1.12-1.83-3-3.14-3.69-5.29a24.61,24.61,0,0,0-2.41-5.94c.41-2.11-1.07-3.78-1.26-5.76-.12-1.23-.78-2.4-.85-3.62-.15-2.37-.06-4.75-.07-7.12a47.51,47.51,0,0,0,0-5.47c-.24-2.08,1-3.82,1-5.81,0-1.83,1.49-3.31,1.19-5.21,1.42-2.47,1.64-5.46,3.47-7.77,1.1-1.39,1.93-3,2.9-4.5a20.54,20.54,0,0,1,8.23-7.54,19.3,19.3,0,0,0,4.66-2.57,5,5,0,0,1,1.92-.81c3.37-1,6.69-2.28,10.3-2.19.72,0,1.62.21,2.13-.14,2.15-1.46,4.53-.91,6.81-.92q36.72-.06,73.44,0c4.68,0,9.36,0,14,0a8.9,8.9,0,0,0,4.19-.63c1-.51,2.44-.32,3.68-.32,13.14-.06,26.28-.07,39.42-.15,1.93,0,3.89.38,5.77-.78.8-.49,2.1-.17,3.17-.18,8.11,0,16.21,0,24.31-.12,2.45,0,4.93.45,7.37-.84,1.14-.61,2.83-.09,4.26-.22,2.11-.19,4.26.37,6.31-.87.81-.49,2.11-.11,3.18-.19,2.64-.2,5.36.39,7.89-1,.57-.31,1.42-.05,2.14-.1,2.1-.18,4.25.28,6.29-.93.82-.49,2.11-.13,3.19-.2,1.76-.11,3.55.3,5.24-.79.65-.43,1.73-.21,2.62-.23l7.56-.1a6.85,6.85,0,0,0,3.64-.65,5.53,5.53,0,0,1,2.6-.34q7.56-.06,15.12-.05l101.53,0c1.62,0,3.48-.47,4.8.18,1.56.75,3.19.49,4.62,1.11,2.12.91,4.45,1.25,6.48,2.19s4.29.46,6,1.89c1.55-.14,2.68.94,3.9,1.58,2.82,1.46,5.52,3.18,8.24,4.85,3.12,1.9,4.93,5.09,7.26,7.76a41.91,41.91,0,0,1,6.05,10.11c1.06,2.26,2.3,4.45,3.32,6.73,3,6.66,6.07,13.31,8.83,20.08.86,2.1,1.35,4.39,2.15,6.57s1.55,4.38,2.15,6.59c2,7.38,5,14.45,7,21.82a77.59,77.59,0,0,0,2.92,9.68c.07.16,0,.4.08.54,1.71,2.58,2.19,5.66,3,8.53s2.32,5.6,2.59,8.52a2.93,2.93,0,0,0,2.69.53c2.77-.47,5.18,1.28,7.87,1.14,2.53-.12,4.91.86,7.19,1.58s5,.08,7.22,1.6c.67.45,1.75.22,2.58.5q5.22,1.8,10.4,3.73c4.13,1.54,8.34,2.88,12.32,4.74,5.11,2.39,10.54,4.08,15.24,7.43,3.46,2.47,7.3,4.39,10.91,6.68,3.9,2.47,7.74,5,11.58,7.63a58.94,58.94,0,0,1,8.06,6.2c1.82,1.73,3.87,3.21,5.78,4.84s3.3,3.25,5.26,4.62c2.33,1.64,4.23,3.93,6.29,6q4.23,4.21,8.4,8.51a42.57,42.57,0,0,1,5.2,6.21c1.37,2.09,3.44,3.61,4.83,5.8,1.63,2.57,3.83,4.77,5.67,7.21,3.23,4.31,6.53,8.56,9.49,13.05s5.57,9.21,8.26,13.86c3.67,6.35,6.77,13,10,19.57,2.88,5.75,4.85,11.87,7.38,17.76,2.67,6.22,4.19,12.87,6.93,19.06.79,1.79.57,3.89,1.55,5.65-.41,2.42,1,4.52,1.24,6.85a30,30,0,0,0,1.64,6.18c.74,2.22.09,4.73,1.45,6.8-.43,3.31,1.37,6.32,1.26,9.62-.05,1.56.74,3.12.92,4.7s-.39,3.5.22,4.88c1.35,3,.84,6.07.87,9.1.1,9.86.13,19.71,0,29.57,0,2.84.67,5.82-1,8.5a1.86,1.86,0,0,0,0,1.08c.46,3.67-1.56,7.06-1.16,10.73-1.23,2.15-.53,4.68-1.21,6.84s-.59,4.27-1,6.35c-.39,1.9-1.57,3.63-1.93,5.53-.78,4.22-3,8-3.51,12.32-.16,1.52-1.44,2.88-1.89,4.41-1,3.42-2.79,6.52-3.57,10.07-.44,2-2,3.79-3,5.66-.35.62-.77,1.21-1.09,1.84a254.1,254.1,0,0,1-16.86,27.44,23.81,23.81,0,0,1-2.56,3.42c-3.81,3.88-7.58,7.79-11.36,11.71a27.14,27.14,0,0,0-3.08,3.73c-.86,1.28-2.56,1.93-3.64,3.09-4.1,4.38-9.12,7.46-14.09,10.64s-10.39,6.16-15.59,9.25a31.6,31.6,0,0,1-9.28,3.71c-3.92.86-7.13,3-10.5,4.86a34.32,34.32,0,0,1-4.66,2.43c-.47.17-.83.67-1.25,1a16,16,0,0,0,.22,2.24,18.59,18.59,0,0,1,.71,2c.22,2.34,0,4.81.59,7,.7,2.37.41,4.67.62,7,.22,2.5-.32,5,.91,7.47.37.73.12,1.8.13,2.71.05,3.65.07,7.3.14,11a6.3,6.3,0,0,0,.36,2.63,7.87,7.87,0,0,1,.57,3.72c0,2.55,0,5.11.1,7.66s-.21,5,.79,7.49c.56,1.43.18,3.25.2,4.89,0,3.1-.3,6.28.23,9.29a66,66,0,0,1,.86,10.76c0,3.46,0,6.93.08,10.4.08,2-.33,4,.75,5.87.47.83.15,2.14.16,3.23q0,9,0,18.07.06,37.5.1,75c0,5.11-.06,10.22-.13,15.33,0,1.43.15,2.86-.64,4.24a6.11,6.11,0,0,0-.26,2.67c0,2.55,0,5.11-.1,7.66-.23,4.14.43,8.31-.86,12.41-.48,1.5-.16,3.26-.18,4.9,0,2.92,0,5.84-.06,8.76a35.47,35.47,0,0,1-.78,8c-.67,2.57-.23,5.44-.26,8.18s.11,5.48-.07,8.21c-.16,2.3-1.18,4.47-1,6.9a70.3,70.3,0,0,1-.05,7.11c0,2.37,0,4.75,0,7.12,0,1.62.11,3.22-.8,4.76-.41.69-.17,1.78-.18,2.69,0,4,0,8-.14,12-.07,2.5.35,5-.82,7.48-.43.9-.08,2.16-.16,3.26-.26,3.76.48,7.6-1,11.3-.38,1-.08,2.17-.15,3.26-.19,2.86.32,5.78-.92,8.57-.41.93-.1,2.17-.17,3.26-.17,2.5.5,5.11-.94,7.46-.08.13,0,.36,0,.54a51.24,51.24,0,0,1-.22,7.65,46.66,46.66,0,0,0-1,6.89c0,2.31.2,4.62-.84,6.93-.61,1.38-.09,3.25-.24,4.88-.22,2.31.39,4.67-.84,7-.54,1-.12,2.51-.21,3.78-.2,2.86.39,5.8-.94,8.57a6.36,6.36,0,0,0-.12,2.16c-.2,3.41.28,6.86-.93,10.22-.47,1.3-.12,2.89-.2,4.35a22.86,22.86,0,0,1-.73,5.87c-.69,2.17-.27,4.69-.36,7.06a15.2,15.2,0,0,1-.66,4.78c-.59,1.63-.29,3.58-.42,5.39-.13,2,.14,3.88-.81,5.84-.65,1.35-.28,3.23-.27,4.86,0,1.83-1.23,3.34-1.09,5.26.14,1.77.28,3.65-.91,5.26-.18.24-.06.71-.08,1.07-.17,2.33-.06,4.62-1,6.93-.75,1.94.15,4.32-1.1,6.34a4,4,0,0,0-.12,2.15c.25,3.48-1.66,6.68-1.21,10.18-1.45,2.1-.4,4.74-1.26,6.81s-.55,4.28-.9,6.39c-.26,1.58-.73,3.12-1,4.7-.22,1.42.21,2.93-.72,4.23a2.19,2.19,0,0,0-.28,1c-.17,2,.08,4.11-.56,5.92-.71,2-.38,4-.69,5.9-.25,1.58-.73,3.12-1,4.7s.06,3.27-1,4.73a2.72,2.72,0,0,0-.15,1.6c.15,2-.59,3.88-1,5.8s.25,4-1,5.81c-.18.25,0,.71-.08,1.07-.19,2.33-.09,4.63-1,6.94-.73,1.94.24,4.35-1.14,6.31-.17.25-.07.72,0,1.08.32,4-1.62,7.78-1.24,11.8-1.12,2-.58,4.32-1.26,6.27a16.94,16.94,0,0,0-.84,5.84c0,2-1.29,3.72-1.12,5.8a10,10,0,0,1-.84,5.3c-.51,1-.22,2.51-.22,3.78,0,1.83-1.21,3.34-1.08,5.25s.24,3.64-.92,5.27c-.27.37-.09,1.06-.13,1.61-.35,5-2.78,13.47-5.27,17.83-1.15,2-2.59,3.86-3.89,5.78a14,14,0,0,1-2.15,3.06,33.63,33.63,0,0,1-4.5,2.86c-1.07.65-2.17,1.24-3.47,2-11.49,0-23.18,0-34.88,0-1.47,0-2.74-.67-4.09-1a7.24,7.24,0,0,1-3.63-2.1c-.14-.12-.26-.26-.4-.37-1.69-1.3-3.69-2.21-4.72-4.29a36,36,0,0,1-3.31-9c-.46-2.27-1.33-4.46-.94-7.15-3.25.84-5.34,3.11-8,4.33s-5,3.49-7.67,4.88-5.14,3.19-7.71,4.77-5.29,2.94-7.75,4.68-5.53,2.62-7.48,5.43a6.26,6.26,0,0,1,.63,2.28c-.31,2.62,1.15,4.86,1.33,7.41a33.17,33.17,0,0,0,1.52,6.75,62.84,62.84,0,0,1,1.43,7.33c.27,1.62,1.34,2.92,1.25,4.65-.15,2.91,0,5.83,0,8.52-3.25,5-6.42,9.74-9.51,14.57-3.67,5.73-7.79,11.13-11.43,16.89-5.15,8.18-10.55,16.2-16,24.14-6.22,9-12.11,18.22-18.26,27.26-2.62,3.85-4.8,8-7.93,11.49-1.73,4.2-5.22,7.25-7.2,11.3a12.76,12.76,0,0,1-2.29,2.65c-2.91.53-5.63-.28-8.22,1-1,.51-2.48.11-3.74.11q-115.29,0-230.59,0a17.32,17.32,0,0,1-5.25-.66c-2.16-.67-4.63-.3-7.18-.39-2.71-4.08-5.4-8.28-8.23-12.38s-5.17-8.18-7.95-12.1-5.49-8-8.2-12c-3.32-4.9-6.47-9.92-9.86-14.76-3.07-4.4-5.57-9.19-8.75-13.49-4.25-5.77-7.9-11.94-12-17.8-2.77-4-5.27-8.11-8.19-12-1.39-1.85-2.42-4-3.72-5.9-2-3-4.09-5.88-6-8.63-.9-3.91,1.21-7.25,1.16-10.87,1.5-2.18.17-5.09,1.82-7.23-.07-4.2,2.12-8,2.34-12.11.05-.85.77-1.65.86-2.5a43.9,43.9,0,0,0,0-4.46,5.51,5.51,0,0,0-1.11-1c-5.16-2.8-10-6.19-14.94-9.27-5.3-3.28-10.63-6.5-15.93-9.77-3.77-2.32-7.51-4.74-11.4-6.89a12.58,12.58,0,0,1-5.71-6.3c-2.58-6.47-6-12.55-8.32-19.15a17.31,17.31,0,0,0-1.14-2.43,148.36,148.36,0,0,1-6.33-14.18c-2.16-5.29-4.91-10.28-6.93-15.65-1.94-5.17-4.76-10-6.83-15.13-1.95-4.82-4.15-9.5-6.48-14.38,0-.13-.06-.49-.11-.84-.6-3.94.6-7.53,2.38-10.87,3.89-7.26,6.51-15.11,10.45-22.33a3.22,3.22,0,0,0,.11-1.18c0-1-.85-1.46-1.46-2.08-3.57-3.61-7-7.42-10.8-10.72-5.62-4.84-10.76-10.15-16.09-15.28-1.79-1.74-4-3-5.71-4.9a10.19,10.19,0,0,1-2.8-5.68c-.33-2.29-.72-4.6-1.15-6.87a38.91,38.91,0,0,1-1-6.36c0-.36.08-.84-.11-1.07-1.53-1.84-.37-4.31-1.45-6.26a3.68,3.68,0,0,1-.46-1.52,27.2,27.2,0,0,0-1-6.36c-.58-2,.06-4.34-1.14-6.31.38-3.48-1.39-6.68-1.29-10.16,0-1.38-.67-2.76-.91-4.16-.27-1.58.09-3.22-.83-4.75-.73-1.22,0-2.91-.94-4.17a1.51,1.51,0,0,1-.33-1c.39-3.49-1.55-6.69-1.25-10.16a16.86,16.86,0,0,1-1.07-6.89c0-2.18-1.55-4.07-1.08-6.33-1-2-.79-4.21-1.16-6.33a49.24,49.24,0,0,1-1.1-6.33c0-1-.73-2-.87-3A29.24,29.24,0,0,1,680.65,1215Zm606.21-699.85a48.24,48.24,0,0,0-.2,6.29c.23,2.09-.84,3.85-1,5.79-.25,2.86-.18,5.7-1.06,8.55a16.58,16.58,0,0,0-.18,6.52c.28,2.44-1,4.54-1,6.92.07,6.75,0,13.5-.06,20.26a5.93,5.93,0,0,0,.34,2.65c1.44,2.71,1.77,5.78,2.63,8.65.92,3.05,1.91,6.1,2.63,9.24a79.57,79.57,0,0,0,2.65,9.22c1.07,3,2.52,5.94,2.58,9.23,1.3,1.82,1.12,4.1,1.79,6.13,1.12,3.37,2.64,6.67,3.32,10.11,1,5.08,2.56,10,3.58,15.07.39,1.9.91,3.8,1.42,5.68.42,1.53,1.49,2.82,1.72,4.49s.79,3.47,1.09,5.22c.26,1.6,1,3,1.26,4.66a23.09,23.09,0,0,0,1.22,5.16c1.56,3.82,2.08,7.91,3.51,11.75a17.14,17.14,0,0,1,1.42,5.67c0,2.76,1.71,5.18,1.32,8,1.39,5.35,3.16,10.61,3.4,16.21,0,.16.18.31.26.47.93,1.77.81,3.81,1.42,5.69a24.39,24.39,0,0,1,1.12,5.75c.13,2.21.91,4.2,1.31,6.3.48,2.44.88,4.93,1.54,7.32.35,1.25.39,2.47.63,3.7.26,1.39.93,2.75,1,4.13.07,2.73,1.61,5.2,1.24,8,1.38,1.71.41,4,1.27,5.71,1.08,2.13.56,4.28.83,6.4.05.36-.1.83.07,1.08,1.53,2.13.75,4.59,1,6.89.1.9-.27,2,.12,2.7,1.33,2.4.81,5,1,7.46a25.72,25.72,0,0,0,.9,4.72c.4,1.74-.26,3.81.35,5.41.9,2.32.69,4.62.88,6.94a31.06,31.06,0,0,0,.46,3.74,34.68,34.68,0,0,0,1,3.36c5.24-3.22,10.1-6.52,14.2-10.86,3.12-3.3,6.37-6.45,9.52-9.71a31.77,31.77,0,0,0,3.05-3.75,145.66,145.66,0,0,0,9.46-15.61,28,28,0,0,0,3.12-6.74,34.19,34.19,0,0,1,1.67-4.51c.91-2.31,2.23-4.55,2.63-6.95a41.92,41.92,0,0,1,1.44-5.15c.52-1.72.8-3.47,1.28-5.18a39.47,39.47,0,0,0,1.44-5.12c.38-2.84,1.71-5.5,1.48-8.45a4.91,4.91,0,0,1,.26-2.67c1-1.71.67-3.53.78-5.32.09-1.45-.3-3.08.23-4.33a10.19,10.19,0,0,0,.74-4.21q0-10.95,0-21.9c0-.73.24-1.59-.06-2.16-1.24-2.41-.93-5-.81-7.48.19-3.86-1.65-7.42-1.29-11.26-1.76-1.92-.54-4.55-1.6-6.75a17.94,17.94,0,0,1-1.39-5.66c-.24-2.16-1.66-4.05-1.24-6.31-1.07-3.38-1.41-7-3.06-10.2a25.65,25.65,0,0,1-1.26-3.51c-2.67-7.55-5-15.23-8.7-22.37-2.77-5.41-5.15-11-8.51-16.14-2.16-3.28-4-6.75-6.08-10.09-1.32-2.13-2.72-4.22-4.15-6.27-1.76-2.51-4-4.71-5.65-7.22a91.54,91.54,0,0,0-11.1-13.23c-3.44-3.48-7-6.89-10.29-10.47a119.63,119.63,0,0,0-12.53-11.11c-6-4.83-12-9.61-18.16-14.21A36.12,36.12,0,0,0,1286.86,515.17ZM1251.7,810.24c-.31-1.56-.59-2.58-.69-3.63-.13-1.45.29-3.1-.26-4.33a11.64,11.64,0,0,1-.83-5.84c.14-2.07-1.07-3.87-1-5.8.13-4-1.69-7.79-1.27-11.81-1.16-2.54-1-5.28-1.12-8,0-.18,0-.41,0-.53-1.23-1.59-1-3.49-.89-5.26.14-2.07-1.22-3.75-1.12-5.79.08-1.62.13-3.3-1-4.68.44-2.09-1.13-3.79-1.11-5.78,0-2.56-.89-5-1.57-7.3-1-3.41-1.23-7-2.71-10.29.1-2-.87-3.89-1-5.79-.13-2.22-1-4.18-1.36-6.29a40.17,40.17,0,0,0-1.51-7.31c-1.32-3.54-1.53-7.31-2.7-10.86.36-1.56-.89-2.7-1-4.13a81.74,81.74,0,0,0-4-16c-.5-1.51-1.34-3-1.37-4.56,0-2.08-1.51-3.69-1.4-5.73-1.54-1.53-.2-4-1.8-5.56-.5-2.45-1.66-4.71-2.18-7.11s-1.51-4.78-2-7.17-1.22-4.47-1.73-6.73-1.18-4.47-1.88-6.66a48.77,48.77,0,0,1-2.21-7.14c-.09-.6-.85-1.1-1.33-1.69h-77.23a1.32,1.32,0,0,0-.53,0,3.77,3.77,0,0,0-.65.56c-.18,4.67,0,9.56.07,14.45,0,.18,0,.41,0,.54,1.26,1.78.91,3.85.89,5.81s1.26,3.72,1.11,5.8c-.27,3.5,1,6.68,2.53,9.75a61.7,61.7,0,0,1,3.28,6.75c.91,2.57,2.63,4.66,3.63,7.11,1.15,2.8,3.15,5.23,3.6,8.34a63.06,63.06,0,0,1,4.65,8.45c.91,1.76,1.27,3.79,2.3,5.38a106.53,106.53,0,0,1,5.22,10c.56,1.1.72,2.44,1.41,3.42,2.19,3.11,3.48,6.67,5.24,10,.57,1.09.87,2.32,1.41,3.43.79,1.6,1.73,3.13,2.53,4.72q7.82,15.6,15.57,31.22a13.71,13.71,0,0,0,2.3,3.6,25,25,0,0,1,4.15,4.94,8.62,8.62,0,0,0,3.08,3,15.65,15.65,0,0,1,3.68,3.12c4.65,5.09,10.26,8.93,15.83,12.85,3.79,2.67,7.79,5,11.64,7.52,1.32.89,2.36,2.17,4,2.63a10.59,10.59,0,0,1,5.13,2.67c2,.12,3.61,1.39,5.36,2.25,2.54,1.24,5.34,1.81,7.84,3.2C1249.43,810.38,1250.46,810.16,1251.7,810.24Zm-23.32,40.25c.88,1.94,1.55,3.32,2.14,4.73a12.46,12.46,0,0,0,6.38,6.94,34.08,34.08,0,0,1,4,2.53c1.56.66,3.26-.26,4.76.74,1.3.87,2.8.38,4.2.46a46.35,46.35,0,0,0,4.86.05c1.56-.07,3.21.52,4.8-.52a18.32,18.32,0,0,1-.9-3.59c-.07-1.37-.22-2.53-1.72-3.3s-3.82.38-5.46-1.16c-2,.22-3.78-.83-5.67-1.23-2.06-.43-4.14-.78-6.16-1.35-1.86-.53-3.66-1.28-5.46-2S1230.63,851.41,1228.38,850.49Z"/><path class="cls-2" d="M1241.38,1476.19l-46,28a43.84,43.84,0,0,0,.44,4.8c1.94,9.34,3.85,18.7,6,28a9.86,9.86,0,0,1-1.69,8.39q-24.84,36.51-49.55,73.12c-6.68,9.88-13.35,19.78-20.23,30-3.44.3-7,.74-10.54.88-4.77.19-9.55.18-14.33.18q-102.42,0-204.85,0c-8.33,0-16.67-.37-24.78-.56-2.79-4-5.22-7.34-7.56-10.78q-31.62-46.7-63.28-93.38c-1.8-2.63-1.83-5-1.21-7.86,2.09-9.52,4.1-19.05,6.11-28.58.25-1.14.29-2.33.48-3.92-3.3-2.1-6.58-4.26-9.94-6.31-11.54-7-23-14.16-34.69-21a18.07,18.07,0,0,1-7.74-8.69q-16.71-37.59-33.65-75.08a10.57,10.57,0,0,1,.17-9.67c4.37-9.11,8.53-18.32,13-27.87-2.43-2.43-4.75-4.86-7.19-7.17-8.83-8.33-17.6-16.72-26.61-24.86a17.21,17.21,0,0,1-5.68-10.66c-4.84-28.62-10-57.2-15-85.8-.51-2.94-.93-5.89-1.51-9.54l28.32-35.88-34.29-27.92c1.26-40.55,2.49-80.51,3.74-120.87l46.26-28.25c-12.42-13-26-23.78-38.42-36.36.65-2.41,1.19-4.91,2-7.32q12.13-36.81,24.38-73.59c.55-1.64,1.23-3.53,2.46-4.6,4.06-3.51,8.34-6.78,12.67-10a7.79,7.79,0,0,1,3.89-1.08c6.55-.47,13.12-1.28,19.65-1.09,7.16.21,12.61-3.07,17.85-7.09,1.31-1,2.1-2.83,2.89-4.4Q805.45,794.58,838,729.79c12.06-24,24.21-47.92,36.21-71.94,3.54-7.1,6.69-14.39,10.21-22l5.7-.88c.27-3.43,1.52-6.89-1.17-10.09a3.7,3.7,0,0,1-.61-2.25q0-8.64.2-17.29c0-.52.53-1,1-1.92l11.3-.56c.15-1.76.4-3.29.4-4.82q0-73.15,0-146.32c0-4.17-.82-7.77-3.44-11.06-4.84-6.07-7.08-13.18-7.5-21.08-1.28-.15-2.24-.34-3.2-.36-15.72-.36-31.44-.62-47.16-1.08-5.55-.16-11.21-.2-16.6-1.33-10.31-2.15-18.35-7.92-22.1-18a52.76,52.76,0,0,1,.1-38,27.49,27.49,0,0,1,12.15-14.17c8-4.69,16.6-5.16,25.28-5.75,6.34-.43,12.73-.29,19.1-.31,27.67-.1,55.35,0,83-.29q32.83-.33,65.67-1.48c8.92-.31,17.8-1.68,26.7-2.56,10.48-1,20.94-2.42,31.45-3,40.17-2.36,80.39-.61,120.58-.81a63,63,0,0,1,35.89,11.18c4.86,3.26,7.95,8.24,10.71,13.36,9.31,17.21,16,35.47,21.84,54.09,3.52,11.19,7.24,22.31,10.9,33.45.74,2.24,1.59,4.44,2.34,6.49,11.19,1.62,22.1,2.7,32.45,6.41,9,3.21,17.93,6.48,26.63,10.34,6,2.65,11.52,6.23,17.14,9.61,24,14.45,44,33.27,61.19,55.31A256.16,256.16,0,0,1,1445,609.18a235.58,235.58,0,0,1,11.86,89.92,181.84,181.84,0,0,1-12.34,56.28,163.07,163.07,0,0,1-45.22,64.25,114.56,114.56,0,0,1-36.23,21.44c-3.53,1.28-6.91,3-10.3,4.61-3,1.45-6,3.06-9.63,5,.49,4.74,1.09,9.82,1.53,14.91.75,8.52,1.48,17.05,2.07,25.58,2.89,41.92,4.4,83.87,3.79,125.9-.24,15.92.32,31.86-.17,47.76-.61,19.69-1.94,39.36-2.94,59-.52,10.14-1.13,20.27-1.47,30.41-.71,20.9-2.54,41.7-4.64,62.5-1.93,19-3.51,38-5.24,57.06-2.18,23.77-4.92,47.46-8.83,71-4.5,27.07-8.43,54.24-12.63,81.36-2.74,17.69-5.42,35.38-8.33,53a38.17,38.17,0,0,1-9.64,19.52,13.39,13.39,0,0,1-10,4.76c-9.16,0-18.32.1-27.47,0-9.6-.14-14.62-6.28-16.35-15.13C1242.14,1484.64,1241.93,1480.85,1241.38,1476.19ZM943.28,657.51Q923.84,764.1,904.46,870.45c1.75.08,3.33.22,4.91.22q56.13-.12,112.25-.28c.17,0,.35-.16.5-.27s.29-.27,1.14-1.1c0-3.85,0-8.39,0-12.94q-.57-47.46-1.16-94.93c-.22-19.71-.33-39.42-.51-59.12,0-3.78-.25-7.56-.31-11.34-.15-10.35-.29-20.7-.34-31.05a10.91,10.91,0,0,1,1-3.15c3.5.49,3.14,3.12,3.39,5.07,1,7.88,1.86,15.79,2.73,23.7,1.36,12.25,2.67,24.5,4,36.75q2.79,24.9,5.65,49.78c.83,7.23,1.73,14.45,2.6,21.67a16.49,16.49,0,0,0,.62-5.92c-.29-6.56-.68-13.11-1-19.67q-1.35-30.71-2.65-61.41c-.23-5.36-.51-10.72-.76-16.09-.46-9.93-.94-19.86-1.34-29.8-.06-1.5-.41-3.3,1.87-4.07,2.35.55,2.4,2.75,2.78,4.6q7.21,36,14.38,71.91,12.69,63.74,25.37,127.47c.8,4,2.35,7.56,6,10h91.89c1,0,2-.09,3-.16a.81.81,0,0,0,.47-.25c.13-.14.18-.35,0,.13-2.09-4.76-4.22-9-5.84-13.38-8.29-22.57-16.39-45.2-24.72-67.76a34.08,34.08,0,0,0-4.88-8.76,251.07,251.07,0,0,1-36.91-67.15,259.39,259.39,0,0,1-14.13-59.59c-.55-4.66-1.16-9.31-1.75-14.07H886.9c-2.35,5.22-4.62,10.26-6.85,15.23l3.25,3c-15.62,34.13-30.9,68.22-46.77,102-17.39,37.07-45,98.12-45.69,102.23,1.39.1,2.76.26,4.14.29q24.76.56,49.54,1.08a21.14,21.14,0,0,1,4.15.26c.72.16,1.27,1,2.89,2.45-11.69.73-22.12,1.58-32.64,1.09s-21-.83-31.17-1.21l-5.25,4.54h5.89l55,.14a13.57,13.57,0,0,0,13.43-9.61c6.24-18,12.4-36.08,18.61-54.11q22.13-64.26,44.26-128.51c2.14-6.2,4.31-12.38,6.42-18.59.61-1.76,1.13-3.5,4.47-2.86-1.4,14.3-4.5,28.42-6.66,42.65s-4.71,28.63-7.1,42.94q-3.56,21.15-7.12,42.31c5.66-21.17,10.47-42.48,15.3-63.79,4.86-21.47,9.73-42.94,14.68-64.76ZM1183.91,464c.95-10.23,1.66-19.55,2.72-28.83,1.69-14.81,3.74-29.58,5.42-44.39.89-7.89,1.41-15.83,1.92-23.76.14-2.1-.4-4.24-.67-6.71a49.16,49.16,0,0,0-6.57-1.61,50.71,50.71,0,0,0-18.86,1.87,129.69,129.69,0,0,0-33.72,14.77,134.61,134.61,0,0,1-44.09,17.29,249.44,249.44,0,0,1-26.48,4c-12.52,1.18-25.1.37-37.5-1.29-16.55-2.21-32.89-5.8-48.06-13.13-10.19-4.92-20.37-9.95-30.09-15.71-5.54-3.28-10.16-8.12-15.69-12.67-4.85,0-10.46-.45-16,.1-10.51,1.06-15.77,4.93-17.87,14.49a44.36,44.36,0,0,0-.17,15.38,15.92,15.92,0,0,0,10.67,13.3,29.28,29.28,0,0,0,9.29,1.63c12.73.18,25.48,0,38.21.13,17.71.18,35.42.52,53.13.83,1.71,0,3.42.35,5.26.54.36,5.79,1.11,11.15.92,16.46-.3,8.73,1.77,16.5,7.25,23.37a14.49,14.49,0,0,1,3,9.42c0,14.92.51,29.85.56,44.77.1,33.64,0,67.29.08,100.93,0,2.49.31,5,.46,7.33,8.09,1,27,.64,32.08-.67,0-4.56,0-9.31,0-14.06q.31-30.15.68-60.3c0-2.1.29-4.2.44-6.13,7.51-1.28,47.68-1.15,52.55.13.15,1.86.23,3.83.5,5.78s.71,3.66,1.35,6.88C1131.82,503.61,1153.28,479.12,1183.91,464Zm-162.14,138.7c.13-2.59.32-4.73.33-6.87,0-8,0-15.92,0-23.89q0-60,0-120c0-3.62-.09-7.08-2.59-10.12-5.68-6.92-7.88-14.93-7.63-23.87.14-4.86-.63-9.76-1-14.82H904.77c4.48,2.25,7.68,3.8,11.57,4,3.69.16,7.36.93,11.6,1.52-.16,3.43-.29,6.28-.45,9.65-5.85.4-11.16.87-16.48,1.08s-10.65.18-16.37.25c-.76,9.62,4.22,16.28,9.52,23.56a82.16,82.16,0,0,0,8.37.82c22.3.12,44.59.12,66.89.17a29,29,0,0,1,4.76.14c.93.16,1.75,1,3.48,2a26,26,0,0,1-3.8.88c-8,.34-15.91.82-23.86.89-16.13.13-32.25,0-48.37.07-2.1,0-4.39-.71-6.22.9-.88,11.56-.5,148.56.49,153.71Zm17.89,549.37c.09-2.2.3-4.14.23-6.06-.3-8.15-.72-16.29-1-24.44q-1.44-38.76-2.86-77.52c-.08-2.12-.39-4.22-.59-6.17-6.09-1.09-166.81-1-172.17.12-.62,12.52-1.28,25.19-1.87,37.86s-1.22,25.43-1.65,38.14-2,25.22-1.18,38.07Zm246.09-644.6a44.92,44.92,0,0,0,1.37,4.88,19.88,19.88,0,0,1,1,11.7c-1.87,10.2-2.22,20.53-2.86,30.85-.7,11.25,0,22.19,4.21,32.76a69.28,69.28,0,0,1,2,6.86c10.14,35.32,20.82,70.48,28.65,106.41,3.94,18,8.07,36.08,11.16,54.29,2.72,16,4.11,32.33,6.11,48.5.21,1.69-.27,3.67,2.15,5a38.62,38.62,0,0,0,4.53-2,99,99,0,0,0,29.85-27.91c9.94-13.91,15.82-29.73,19.72-46.3,4-17,4.26-34.26,3.59-51.61-.63-16-3.94-31.53-8.63-46.73a212.23,212.23,0,0,0-17.49-41,219.1,219.1,0,0,0-31.12-42.8c-12-12.88-26-23.37-40-33.89C1295.77,513.35,1291.07,510.84,1285.75,507.5Zm40.6,525.51c.48,10.7,1,21,1.39,31.31.45,12.32.81,24.64,1.16,37,.45,15.5.67,31,1.4,46.51.22,4.81-1.55,7.83-5.1,10.6-8.62,6.74-17.08,13.68-25.6,20.55-1.06.86-2.06,1.79-3.51,3.06l28.18,35.77c-.68,4-1.24,7.33-1.81,10.65q-4.45,25.85-8.9,51.67-3,17.63-6.14,35.23a11.87,11.87,0,0,1-3.91,7.06c-10,9.1-19.81,18.42-29.65,27.71-2,1.87-3.78,3.93-5.5,5.72,4.23,9.26,8,18,12.24,26.56,2.26,4.54,2.06,8.36,0,12.95-10.62,23.1-20.85,46.38-31.35,69.54a37.21,37.21,0,0,0-2.3,23.85c1.48,6.82,5.63,10,12.56,10,6.17,0,12.35-.22,18.5.08,5.13.25,8.72-2,11.73-5.75,4.63-5.76,6.82-12.48,7.89-19.66q1.5-10,3-20,4.47-28.86,9-57.71c2.66-17.07,5.38-34.13,8-51.21,1.89-12.37,3.79-24.75,5.37-37.16,1.13-8.86,1.71-17.8,2.56-26.7,1.06-11.07,2.16-22.14,3.21-33.22q1.41-14.84,2.75-29.68c1.43-15.63,3.17-31.24,4.16-46.89,1.23-19.44,1.8-38.93,2.74-58.39.65-13.49,1.72-27,2.11-40.49.44-15.51.68-31,.4-46.55-.63-35.39.82-70.82-2.27-106.17-1.39-15.83-1.68-31.76-2.92-47.61-.45-5.83-.57-11.84-2.81-17.91-20,6.37-40.27,6.34-61.08,4.36,0,5-.29,9.31,1.12,12,5.45,4.05,9.66,7.34,14,10.38a14.59,14.59,0,0,1,5.83,7.93c8.25,25.51,16.67,51,25,76.45.36,1.11.53,2.28.86,3.72-1.66,1.7-3.24,3.47-5,5.06-9.5,8.77-19.06,17.48-28.56,26.26-1.55,1.42-3.7,2.5-3.6,5.73ZM1106,1152.1h149.74c0-2.24.09-4.19,0-6.12-.58-10.71-1.32-21.42-1.81-32.13-1-22.44-1.94-44.88-2.88-67.32-.13-3.15-.26-6.27-1.45-9.13H1108.69C1106.9,1045,1104.6,1142.21,1106,1152.1ZM1035.37,1317c1.94-31.87,3.64-63.51,5.41-95.52H859.62c2.91,30.31,6.76,60.19,9.73,90.15.17,1.75.62,3.47,1,5.37Zm98.39-694.78h6.45q39.7,0,79.42,0,28.95,0,57.92-.19c6.85,0,9.31-2.49,9.26-9.36a27.5,27.5,0,0,0-.93-6.43q-9.72-38.12-19.58-76.19c-.83-3.24-1.94-6.41-3-10-9.09-.85-18-1.55-26.82-2.56a144.07,144.07,0,0,1-18.19-2.88,28.85,28.85,0,0,1-15.26-8.78c-1.68-1.9-3.65-3.55-5.31-5.14-14,6-27.06,17.48-37.31,30.74-12.84,16.6-20.19,35.87-24.8,56.27A105.63,105.63,0,0,0,1133.76,622.19Zm-1.89,4.17a17.63,17.63,0,0,0-.47,3c.47,9.52.78,19,2.4,28.49a48.79,48.79,0,0,0,4.63,14c14,27.65,28.38,55.13,41.64,83.13a91.54,91.54,0,0,0,26.78,33.62c4.06,3.19,8.3,6.15,12.53,9.12a142.05,142.05,0,0,0,32.7,16.91c2.83,1.05,5.57,1.81,8.87.5-.47-3.67-.86-7.19-1.38-10.7-3.24-21.8-5.36-43.76-10.73-65.23-4.62-18.49-8.4-37.2-13.23-55.63-4.52-17.28-9.92-34.33-15-51.47-.6-2-1.41-4-2.06-5.79Zm118.94,595.41c-4-1-143.15-.92-148.19,0-1.4,6.12-3.15,89.77-2,95,8.22,1,131.37.68,135.71-.38C1239.77,1301.87,1251.24,1226.84,1250.81,1221.77ZM936.68,345.36a44.86,44.86,0,0,0,16.16,16.55c16.18,9.73,32.67,18.84,51.07,23.94,13,3.61,26.23,6.27,39.75,6.82,10.32.43,20.68.73,30.93-1.14,11.09-2,22.27-3.38,32.87-7.8,8.44-3.52,16.85-6.87,24.74-11.61,10-6,20.53-11.23,31.89-14.51,10.47-3,21-4,31.73-1.71,2.73.58,4.83,2.14,5.47,4.89a32,32,0,0,1,1,8.24c-.19,5-.77,9.91-1.35,14.84-2.55,21.31-5.22,42.61-7.68,63.93-.42,3.69-.06,7.48-.06,11.53,1.61-.38,2.94-.63,4.23-1,6.27-1.86,12.48-4,18.81-5.56,4.17-1.05,7.56-2.63,10.49-6.05,4.27-5,10.06-6.23,16.66-5.4a19.46,19.46,0,0,1,11.86,6.17c1.71,1.72,3.36,3.49,6.44,1.88-.3-1.26-.54-2.57-.94-3.83-4.17-12.84-8.68-25.59-12.47-38.54A265.77,265.77,0,0,0,1228,358.05a33.05,33.05,0,0,0-12.88-13.69c-8.64-5-17.8-7.77-27.79-7.33q-11.91.53-23.79,1.47c-4.54.37-9,1.24-13.57,1.76-8.27.95-16.54,2.18-24.85,2.64-12.9.7-25.84,1-38.77,1.21q-48.95.75-97.9,1.22c-15.12.14-30.25,0-45.38,0Zm287.3,281a14.1,14.1,0,0,0,0,2.57c.57,2.31,1.13,4.63,1.84,6.89,12.51,39.41,22.24,79.54,30.5,120,3.25,15.93,4.81,32.19,7.17,48.3.53,3.68,1.18,7.34,1.81,11.24,3.29,0,6,.14,8.8,0,10.69-.67,21.38-1.42,32.07-2.17,5.74-.41,11.48-.79,17.2-1.37a26,26,0,0,0,5-1.46c-.73-6.37-1.4-12.28-2.1-18.19-1.3-11-2-22.19-4.07-33.1-4-21.65-8.31-43.29-13.46-64.71-5.61-23.34-12.32-46.42-18.59-69.6a16,16,0,0,0-1.39-2.72c-4.38,4.43-9.73,4.06-14.84,4.13-14.52.19-29,.16-43.56.22ZM888.32,888.05q-9.45,37.62-18.83,75.11a14.64,14.64,0,0,0,0,3.44c5.73,1,158.22.89,162.76-.09.32-5.21-9.83-73-11.83-78.46Zm-87.73,264.23V1037.74c-6.22-1.09-93.44-1-98.13,0-1.51,6.61-5.58,106.79-4.53,113.28C732,1152.69,766.08,1152.59,800.59,1152.28ZM905,1470.92c10.22,1,109.75.61,114.89-.51,5-25.82,10-51.87,15.07-77.92-6-1.06-150.58-1-155.78.09Zm-50.74-468.75c.88-2.71,1.57-4.56,2.07-6.46C863.7,967.46,871,939.17,878.46,911c3-11.48,4.53-23.46,10.53-34.05a15.13,15.13,0,0,0,1.38-4.55c2-10.13,4.08-20.25,5.81-30.43,4.25-25.07,8.29-50.19,12.47-75.27q6.81-40.83,13.71-81.65a9,9,0,0,0-2,3.46q-6.37,18.28-12.69,36.6-20.5,59.76-41,119.53c-2,5.82-3.72,11.76-6.08,17.44-2.87,6.88-7.54,12.11-15.52,13-4.14.48-8.32.61-12.48.89-6.43.44-13.85,7-14.82,13.29-.88,5.7-1.55,11.42-2.23,17.14q-2.25,19-4.4,37.92c-.91,7.86-1.76,15.74-2.66,23.79ZM1027,1645.49c1.28-5.47-4.93-96.93-6.31-101.16-.35-.17-.69-.48-1-.5-1.59-.11-3.18-.19-4.76-.19q-47.16.09-94.3.2c-.17,0-.34.2-.49.32s-.28.27-1,1c5.76,33.08,11.54,66.65,17.61,100.32Zm80-678.22c45.25-.12,89.94.59,135.37-1.51-8.93-26.15-17-52.24-26-78.1h-42.4c-19.51,0-39,0-58.52.07-2.69,0-5.53-.54-8.45,1Zm-293.08,350c-.82-16.43-2.4-32.18-3.67-47.94-1.29-16-2.11-32-4.18-48.07-34.57-.4-68.51-.34-103.21-.31,2,16.48,5.33,32,7.94,47.55,2.65,15.81,5.63,31.58,8.45,47.32,16,2.43,31.53,1.23,47,1.41C781.87,1317.39,797.54,1317.26,813.88,1317.26Zm276.32,74.84c-1,26.46-1.49,52.58-.92,78.94h94.23c11.62-26.26,23.32-52.27,34.86-78.94Zm-57.38,253.6c24.36,0,47.63,0,70.89,0a5.9,5.9,0,0,0,6-4q2.79-6.59,5.7-13.11,17.34-39.24,34.7-78.47c.85-1.93,1.56-3.92,2.49-6.28h-84Zm69-677c.11-1.94.26-3.32.26-4.71q0-37.29,0-74.59a22.36,22.36,0,0,0-.17-3.57c-1.12-6.83-4.29-9.7-11-10.05-7.26-.38-11.87-3.75-14.13-10.5a41.63,41.63,0,0,1-1.21-5.22c-.95-4.87-1.82-9.76-2.79-14.63q-14.25-71.28-28.54-142.54c-.76-3.84-1.68-7.64-2.53-11.45a16.48,16.48,0,0,0-.68,6.07q1.08,23.52,2.2,47.05,1.24,27.09,2.42,54.2,1.33,30.39,2.65,60.77c.15,3.37.2,6.76.57,10.11,1.37,12.64,2.88,25.26,4.28,37.9,1.36,12.24,2.6,24.49,4,36.73q2.8,25.16,5.71,50.32c.22,1.9.68,3.77,1.2,6.64C1077.29,990.31,1089.38,979.49,1101.84,968.73ZM737.92,888c-9,25.87-18.06,51.67-27.11,77.58,6.71,1.1,88.93.9,94-.25,3-25.52,6-51.24,9-77.33Zm120.83,328.79h183.08c8-11.06,18.09-28.15,19.1-32.33H849.71C852.25,1195.67,855.63,1206.14,858.75,1216.75Zm-14.17-38.1c.54-7,1.1-12.77,1.38-18.52,1-19.66,1.81-39.32,2.75-59q1-22,2.22-44.06c.68-12.7,1.49-25.39,2.14-38.09.15-3,.7-6.13-.52-9.45l-48,26.5c.39,39.37.78,78.32,1.16,117.31ZM844.14,1471c-1.24-13.65-4.17-26.6-6.26-39.66s-4.4-26.15-6.62-39.28L743,1390.58c1.09,6.23,34.5,76.67,37.9,80.42Zm212.3-116.73c-7.21-11.74-13.73-22.33-20.27-33H873.3a17.35,17.35,0,0,0-2.36.25,1.16,1.16,0,0,0-.51.25c-.16.12-.29.28-.84.83-1.64,8.89-3.37,18.24-5.06,27.61a10.8,10.8,0,0,0,.22,2.56C928.29,1354.82,991.7,1354.22,1056.44,1354.27Zm-198-351.38h199l-22.66-31.25H867.33C864.4,982,861.55,992.05,858.48,1002.89Zm47.46-658.6c-3.07,0-5.36,0-7.64,0-22.47.34-44.94.51-67.4,1.13-11.73.32-21.43,5.1-25.94,16.54a48.17,48.17,0,0,0,0,35.54A25.57,25.57,0,0,0,812.4,408c3.58,2.86,7.93,5.21,13,5.33,4.35.1,8.68.92,13,1,15.9.38,31.81.62,47.71.86,5.63.08,11.26,0,17.24,0-.59-.72-.77-1.15-1.07-1.27-8.57-3.5-13-10.36-16.08-18.74-2.17-6-2.33-12.06-2-18.2.81-13.92,5.57-25.47,19.68-31C904.41,345.78,904.78,345.27,905.94,344.29ZM932,1646l-54.38-101.85c-9.92-1.14-52.13-1-57.28.26L880.45,1645ZM1157.18,795c8.24,23,15.81,44.7,23.89,66.24,2.41,6.43,7.29,10.8,15,10.54a42.09,42.09,0,0,1,6.54.32,15.92,15.92,0,0,1,9.83,4.85c5.34,5.34,9.29,11.27,10.95,18.69.56,2.51,1.42,5,2.23,7.41,6.6,20,13.18,40,19.88,59.9a16.2,16.2,0,0,1,.26,11c-2.46,7.12-4.5,14.39-6.66,21.62a29.9,29.9,0,0,0-.5,3.88l42.32-31.51c-.25-1.34-.38-2.31-.61-3.25-3.1-12.73-6.24-25.46-9.34-38.19-2.82-11.57-5.68-23.14-8.38-34.74-1.88-8.07-8.85-11.23-14.61-15.58-.52-.4-1.55-.16-2.34-.2-6.54-.4-13.08-1-19.62-1.11-4.15-.06-7.83-.8-11-3.64a14.21,14.21,0,0,0-3-2c-3.16-1.67-5-4.31-6.39-7.53-4.29-9.61-9-19-13.22-28.67a43.47,43.47,0,0,0-12.93-17.33C1172,809.64,1165.25,802.53,1157.18,795ZM1100,1216.62c11.58,1.07,146.87.48,151.38-.69-1.22-10.53-3.12-21-5.29-31.27-8.2-1.08-170.23-.75-175.3.42ZM877.38,1387.48h159c6.34-9.36,12.83-18.53,19-28.85H864.83Zm226.17-351.57c-13.4-8.68-25.87-17.41-39.44-26.37,0,2.47,0,3.8,0,5.13.22,5.56.57,11.12.7,16.69q.66,27.73,1.18,55.49.66,33.72,1.25,67.44c.14,7.7.31,15.39.49,24.18l33-25C1101.69,1114.33,1102.62,1075.36,1103.55,1035.91ZM858,1350.58a26.37,26.37,0,0,0,.36-3.65Q852.21,1271.46,846,1196c-.2-2.37-.69-4.72-1.05-7.07a.89.89,0,0,0-.26-.53c-.13-.11-.37-.1-1.27-.31l-33.13,31.57c2.59,32.66,5.19,65.32,7.82,98.52Zm384.23-379H1105c-9.83,6.81-33.27,27.9-34.85,31.37,14,1,157.33.53,162.56-.58Zm-7.11,350H1098c-10.93,10.87-22.24,21-33.43,32.71,3.23,0,5.39,0,7.55,0,12.72-.33,25.44-.92,38.16-1,35.41-.13,70.83,0,106.24,0,2.32,0,4.65-.14,7.12-.21ZM1057.5,1008.33h-8.09q-60.9,0-121.8,0c-4.57,0-9.15-.23-13.73-.3q-25.65-.37-51.32-.68a30.89,30.89,0,0,0-4.44.69l4.78,24.83h174.19Zm-207.8,171c7.18,1.05,205.55.85,210.76-.21l-18.91-22.42H857.23C854.74,1164.22,852.31,1171.51,849.7,1179.37Zm402.8-4,.9.7,35.83-23.26c0-2.43,0-4.6,0-6.77-.24-13.33-.57-26.66-.72-40-.22-18.91-.26-37.82-.51-56.73-.06-4.73-.64-9.45-1-13.93-13.32-7-26.13-13.77-39-20.49-1.92-1-3.94-1.83-5.93-2.71-.13-.06-.37.07-.51.17a4.17,4.17,0,0,0-.55.76c3.39,5.41,6.82,11,10.37,16.49a15.4,15.4,0,0,1,2.79,7.71c.49,9.53,1.22,19,1.69,28.57.95,19.47,1.79,38.94,2.66,58.41.22,4.77.18,9.56.64,14.3.86,9,.94,17.82-3.06,26.28C1254.59,1168.23,1253.7,1171.89,1252.5,1175.39Zm-164.07,212c1.07.13,1.66.28,2.24.28,36.6,0,73.21,0,109.81-.18,6.31,0,12.62-.79,19.4-1.24,1.25-9.52,2.06-18.89,2.45-29h-7.56l-142,1c-1.59,0-3.18,0-4.77,0a28.4,28.4,0,0,0-3.08.48C1072.8,1368.84,1080.56,1378,1088.43,1387.42Zm7.32-68.85c0-2.9,0-5.29,0-7.68.15-10.34.28-20.69.47-31,.35-18.49.7-37,1.16-55.48a11.12,11.12,0,0,0-3.39-8.49c-7.69-8.06-15.16-16.33-22.74-24.5-.88-1-1.89-1.79-3.65-3.45-.51,14.32-1,27.56-1.44,40.81s-.88,26.64-1.32,40c-.44,13.51-.54,27-1.41,40.54-1.19,18.5-1.49,34.58.18,40.23ZM860.42,1359.9c-8.56,10.07-16,18.8-23.39,27.65a7.48,7.48,0,0,0-1.4,4.36,33.37,33.37,0,0,0,.68,6.5q4.55,27.31,9.17,54.61c1.09,6.44,2.36,12.84,3.46,18.79,11.92,7.93,44.32,26,48.29,26.93C885.05,1452.82,872.92,1407.05,860.42,1359.9Zm57.17,179.46h104.59c6-10.58,12.07-21.16,17.81-32.65H904C908.57,1517.76,913,1528.33,917.59,1539.36Zm152.8-530.73c1.77,1.37,2.63,2.11,3.56,2.74,9.22,6.25,18.53,12.36,27.63,18.77A15.32,15.32,0,0,0,1111,1033q66.57-.09,133.13,0c1.26,0,2.52-.19,4.49-.34-2.95-4.73-5.45-8.75-8-12.76-2.63-4.17-5.3-8.33-8-12.6C1178.73,1007.72,1125.22,1006.33,1070.39,1008.63Zm184.49,147.8H1184.4c-25.08,0-50.17.1-75.25-.07a16.12,16.12,0,0,0-10.87,3.69c-7.15,5.71-14.54,11.11-21.82,16.67-1,.77-1.91,1.69-3.35,3h173.46Zm-228.45-450.6-.73-.06c0,1.58,0,3.16,0,4.74q.45,40.57.91,81.14c.23,21.09.66,42.18.52,63.26-.05,7.2,1.58,14.73-2.33,21.62-.52.92-.33,2.36-.2,3.53.69,6.31,1.32,12.63,2.23,18.91q4.8,33,9.85,66a16,16,0,0,0,2.81,6.43c5.26,7.48,10.73,14.81,16.16,22.17.73,1,1.7,1.83,3.56,3.8C1048.18,899.22,1037.3,802.53,1026.43,705.83ZM840.64,1185.45l-.61-1.25H720l-16.83,32.54H808ZM1230,1347.35l1.12.75c12.17-9.57,24.38-19.1,36.46-28.8a8,8,0,0,0,2.42-4.55c1-5.67,1.71-11.39,2.51-17.1q4.07-29.24,8.11-58.46c.9-6.48,1.76-13,2.67-19.73l-31.77-31.32c.17,3,.12,4.51.37,6,1.21,7.26,2.55,14.49,3.74,21.74a18.63,18.63,0,0,1,.2,5.32c-.68,5.12-1.57,10.21-2.39,15.31-3.42,21.39-7,42.76-10.21,64.18-1.78,11.83-4,23.47-8.8,34.52C1232.69,1339.14,1231.44,1343.29,1230,1347.35Zm95.36-196.22c.11-2.84.34-5.18.28-7.52-.35-14.12-.78-28.24-1.17-42.36q-.66-23.87-1.32-47.73c-.16-5.71-.4-11.41-.63-17.79l-29.87,1.5c-1.33,7.58.11,107.49,1.59,113.9Zm-263.88,210.7c-.43,2.48-.82,4.15-1,5.83-.59,5.54-1,11.08-1.65,16.61-1.8,16.59-3.67,33.18-5.48,49.77-2,18.17-3.94,36.34-5.79,54.52-.32,3.19-1.08,6.49.08,10.56l37.76-26.95q0-39.48,0-78.83a10.41,10.41,0,0,0-2.87-6.95c-5.87-7-11.68-14.08-17.55-21.1C1064.15,1364.26,1063.09,1363.41,1061.46,1361.83Zm-41,114c-19.38-1.24-109.77-.83-115,.62q-1.25,12.6-2.54,25.65h136.95C1033.14,1492.66,1026.9,1484.05,1020.44,1475.81ZM1263.33,477c3.9.63,7,1.32,10.14,1.61,17.65,1.62,34.11,7.4,49.77,15.26,21.75,10.92,40.32,26.13,56.42,44.34A218.48,218.48,0,0,1,1419.28,603a207.46,207.46,0,0,1,14.55,63.64c1.4,22.18-.53,44.05-7.53,65.36-6,18.19-14.63,34.75-27.77,48.79-3.25,3.48-6.67,6.82-10.18,10.05-8.27,7.63-17.9,13.27-28.12,17.71-11.91,5.17-24.66,7.5-37.54,8.54-15,1.2-30.14,1.83-45.21,2.65-2.87.16-5.73.15-8.41,1.83,2,3.64,5.07,2.24,7.6,2.07q21.09-1.44,42.15-3.21c8.29-.69,16.63-1.23,24.82-2.6a91,91,0,0,0,26.53-8.47,119.33,119.33,0,0,0,33.73-25.18A127.85,127.85,0,0,0,1426.47,750a155.34,155.34,0,0,0,11.67-37.45,190,190,0,0,0,1.33-58.81A225.52,225.52,0,0,0,1414.1,576a221.64,221.64,0,0,0-42.87-56.18c-24.66-23.25-53-39.64-86.64-46-6.74-1.27-13.6-1.92-20.77-2.91C1263.63,473.22,1263.5,474.94,1263.33,477ZM736.16,1002.93c33,1.24,106.78.74,111.49-.84-13.21-9.87-26.22-19.65-39.33-29.28a9.08,9.08,0,0,0-5-1.44q-43.54-.64-87.07-1.08c-1.13,0-2.25.1-4.51.22C720.21,981.84,728.1,992.43,736.16,1002.93Zm537.12-168.67c6.45-.32,12.58-.49,18.68-1,12.86-1,25.69-2.29,38.55-3.23,17.84-1.31,34.71-5.64,50.47-14.4a118.45,118.45,0,0,0,37.81-33.21,152.55,152.55,0,0,0,27.76-65.21c.91-5.08,1.41-10.23,2.06-15.36,2.16-16.89,1.48-33.81-.81-50.56a226.53,226.53,0,0,0-11.62-46.77,245.55,245.55,0,0,0-28.12-55.07,234.35,234.35,0,0,0-37.45-42.4,194,194,0,0,0-41.76-28.5c-15.24-7.69-31.36-13.5-48.46-15.83-5.29-.72-10.65-1-16-1.4-.48,0-1,.41-1.73.74.39,1.59.75,3.06,1.17,4.74l6.65,1.13c8.59,1.44,17.34,2.25,25.74,4.44,22.78,5.93,43.39,16.63,61.91,31a218.48,218.48,0,0,1,55,63,232.14,232.14,0,0,1,25.39,62.08,215.47,215.47,0,0,1,6.29,44.78,189.64,189.64,0,0,1-2.14,35.07c-4.62,29.76-15.67,56.56-36.43,78.85-17.81,19.12-39.46,31.29-65.42,34.89-13.15,1.82-26.46,2.48-39.71,3.53-7.73.61-15.48.89-23.2,1.46a44.77,44.77,0,0,0-6.17,1.34Zm-112.75,672.63c-2.09-.2-3.45-.43-4.81-.43q-51.66,0-103.31,0a30.63,30.63,0,0,0-4.3.69l19.89,32.11h86.46ZM816,1321.51H723.44c2.11,4.92,19.95,28.07,24.2,31.53,16.27,1,100.8.51,106.34-.79Zm419-863.15c-4-2.67-4-2.77-5.54-2.46-2.91.58-5.81,1.24-8.69,2a134.2,134.2,0,0,0-59.33,31.5,146.13,146.13,0,0,0-36.78,52.22c-3.87,9.34-7.7,18.83-10.09,28.6a216,216,0,0,0-5.9,38.84,238,238,0,0,0,10.49,84.72A257.43,257.43,0,0,0,1152,761.62c15.68,22.86,34.5,42.59,57.5,58.23,11.21,7.63,22.92,14.25,35.65,19,1.23.46,2.52.74,4.33,1.26-.47-2.65-.84-4.73-1-5.93-10.09-5.51-19.6-10.42-28.83-15.83-17.7-10.37-32.5-24.32-45.94-39.57a231,231,0,0,1-39.51-63.54,239.61,239.61,0,0,1-18.74-78.47c-1.7-27.22,1.2-54,10.23-79.9,7.7-22.06,18.85-42,35.53-58.6,4.92-4.9,9.76-10,15.33-14.11,15-11,31.44-19.27,49.78-23.32C1228.9,460.23,1231.5,459.35,1235,458.36Zm-493.75,928,89.83,1.4c6.59-6.2,22.12-25,24.17-29.44-35.95-2-71.69-.55-107.84-1.12C745.35,1367.13,743.36,1376.56,741.29,1386.36ZM1171.6,1495.9c.78.21,1.25.5,1.49.37q21.56-11.43,43.1-22.91a8.62,8.62,0,0,0,4.27-5.38q12.38-36.68,25-73.26c1.32-3.81.93-6.77-1.52-9.94-5.09-6.61-9.9-13.44-14.86-20.16a31.93,31.93,0,0,0-2.7-2.68c-.46,4.44-.85,7.92-1.17,11.4-.76,8.48-1.21,16.87-5,24.9-7.07,14.87-13.43,30.09-20.08,45.16-7.61,17.26-14.56,34.87-27,49.53A15.68,15.68,0,0,0,1171.6,1495.9Zm131.42-180c6.08-28,16.25-89.46,15.64-94.72h-31a25.4,25.4,0,0,0-1.3,4c-1.71,12-3.34,24-5,36-2.24,16.12-4.52,32.23-6.74,48.35-.28,2.06-.25,4.15-.37,6.4Zm-243.35-303.55c-1.38,1.35-2.24,2.06-3,2.89-4.47,5.33-8.75,10.84-13.43,16-2.78,3-3.62,6.25-3.43,10.27.94,20.46,1.69,40.93,2.46,61.39q.77,20.56,1.42,41.13c.2,6.29,1.29,12,6.21,16.73,3.72,3.55,6.69,7.86,10,11.81.83,1,1.79,1.85,3.52,3.62,0-2.69,0-4.22,0-5.75-.24-7.55-.59-15.09-.75-22.64q-.67-31-1.24-62-.64-33.4-1.28-66.81C1060.19,1017.05,1059.91,1015.13,1059.67,1012.37Zm120.81,463.52a19.85,19.85,0,0,0-2.68-.5c-29,0-58.07,0-87.11-.06a10.6,10.6,0,0,0-6.53,2.35c-10,7.2-20,14.35-30,21.54-1,.74-2,1.62-3.95,3.25,38.23-.51,75.17,1,112.56-1.4C1168.38,1493.07,1174.19,1484.82,1180.48,1475.89ZM846.64,1008.37c-.06-.34-.13-.69-.19-1H735.62c-5,4.15-10,8.11-14.85,12.24s-10,7.43-14.67,13c2,.19,2.93.35,3.84.35q44.74,0,89.48-.07a12.41,12.41,0,0,0,5.56-1.56c9.27-5,18.45-10.1,27.66-15.18ZM719.93,1179.72H838.2a28.25,28.25,0,0,0-2.29-2c-10.13-6.66-20.22-13.38-30.47-19.85a12.26,12.26,0,0,0-6.19-1.37c-12.13-.13-24.27,0-36.41-.11-15.71-.18-31.41-.56-47.12-.8-5.09-.08-10.18,0-16.43,0C706.4,1164.4,713.28,1172,719.93,1179.72Zm346-572.69c-57.36,0-114,0-170.63,0a6.53,6.53,0,0,0-2,.69c-1,7.25-.84,10.13.72,14.11,9.65.95,167,.52,171.93-.55Zm183.56,222.06c.23-2.13.39-3.62.57-5.27-1.29-.64-2.34-1.18-3.4-1.69-7.52-3.59-15-7.14-22.2-11.45-17.64-10.56-32.59-24.28-45.89-39.61A220.1,220.1,0,0,1,1138.08,702c-7-19-11.75-38.47-13.35-58.51-1.29-16.22-1.66-32.64,1.3-48.79a281.28,281.28,0,0,1,7-30.12c4.71-15.71,12.31-30.09,21.89-43.45a130.4,130.4,0,0,1,26.89-27.75c13.32-10.17,28.14-17.81,44.66-21.69,3.8-.89,7.53-2.05,11.76-3.22-.68-2.22-1.22-4-1.74-5.71a14.54,14.54,0,0,0-3,0c-14.21,3.7-28.22,7.79-41.08,15.33a132.68,132.68,0,0,0-37.63,32.6,156.64,156.64,0,0,0-22.09,38A189,189,0,0,0,1120,601.21a211.81,211.81,0,0,0-.31,38.11,231,231,0,0,0,7.9,45.11,242.36,242.36,0,0,0,32,69.52c18.42,27.28,41.38,49.77,70.08,66.16A115,115,0,0,0,1249.45,829.09Zm-192.82,518,1.41-.14q2.65-77.62,5.32-155.43c-.68.32-1.16.38-1.32.64-5.25,8.44-10.51,16.88-15.65,25.38a10.63,10.63,0,0,0-1.45,4.44c-.52,6.33-.88,12.69-1.23,19-.62,11.11-1.18,22.23-1.78,33.35-.73,13.7-1.52,27.39-2.15,41.09a11,11,0,0,0,1,5.74C1045.93,1329.87,1051.32,1338.43,1056.63,1347.05ZM819,1539.16h58.07c6.62-8.92,17.89-28.81,18.44-32.73-2.42,0-4.8,0-7.17,0-13.93-.14-27.86-.25-41.79-.45-7.76-.11-15.52-.41-23.28-.55a29.45,29.45,0,0,0-4.27.59Zm273.81-917.25c.19-2,.35-3.35.45-4.7.41-5.34.56-10.7,1.24-16,2-15.77,4.82-31.4,11-46.12a44.54,44.54,0,0,0,3.69-20.25c-.12-2,.08-4,0-6a29,29,0,0,0-.69-3.79c-8.13-1-25.64-.77-29.79.4-1,9.62-.59,92,.57,96.42Zm195.14,265a74.88,74.88,0,0,0-22.33,1.54c6.57,26.09,12.44,52,19.15,77.33,10,1.1,24.14.76,28.84-.77C1305.12,939,1296.58,913,1288,886.87Zm-231.4,479.78-1.37-.24c-4.73,7.1-9.53,14.15-14.12,21.34a18.58,18.58,0,0,0-2.3,6c-1.5,7-2.81,14-4.17,21-3.75,19.3-7.49,38.6-11.19,57.69,7.17,11.61,15.4,22.14,19.28,24.41Q1049.67,1431.57,1056.59,1366.65ZM1163.93,481l-.22-.46c-3.08,2.73-6.14,5.48-9.24,8.19-14.92,13-26.19,28.91-34.87,46.47A178.87,178.87,0,0,0,1105,576.71a223.55,223.55,0,0,0-3.83,72.34,252.79,252.79,0,0,0,9.29,46.08,256.5,256.5,0,0,0,28.17,62.25A228.63,228.63,0,0,0,1178,805.14c16.3,14.88,34,27.41,54.19,36.37,6.26,2.79,12.76,5,19.6,7.72-.28-2.67-1.11-4-3-4.6-1.68-.58-3.27-1.44-5-2-18.33-6.68-34.75-16.88-49.64-29.15-22.89-18.87-42.08-41.11-56.43-67.25-3.44-6.27-6.59-12.71-9.8-19.1-7.54-15-12.54-30.93-16.58-47.12a244.84,244.84,0,0,1-6.42-40.57,208.85,208.85,0,0,1,.7-41.69c2-16.36,5.22-32.51,11.32-48,4.52-11.52,9.65-22.67,16.49-33,5.17-7.78,10.41-15.5,17.29-22C1155.37,490.38,1159.56,485.59,1163.93,481Zm224.21,296,.92.38c1.36-1.68,2.78-3.32,4.06-5.06,10.55-14.31,17.13-30.49,21.38-47.55,5-19.88,5.25-40.27,3.39-60.51-2.19-23.73-9.29-46.37-19.52-67.84-12-25.16-27.64-47.78-48.63-66.5-14.67-13.07-30.59-24.08-48.75-31.7a25.59,25.59,0,0,0-3-.89,8.6,8.6,0,0,0,3.47,3.37c10,5.47,18.79,12.63,27.64,19.71,9.8,7.83,19.46,15.82,27.78,25.27a233.48,233.48,0,0,1,31.21,45,215.24,215.24,0,0,1,23.36,72.8,179.26,179.26,0,0,1-1.11,57c-3.46,18.52-9.35,36.1-19.6,52.06C1389.8,774,1389,775.52,1388.14,777Zm-145.89,693.07c5.38-9.28,34.11-74.65,34.71-79.11h-25.33c-3,5-26.78,75.62-27,80.31Zm-350.42,32.61c.08-.4.16-.81.23-1.21-.81-.53-1.61-1.09-2.45-1.57-13.07-7.54-26.19-15-39.22-22.64a14.92,14.92,0,0,0-7.95-1.92c-17.11,0-34.22,0-51.33,0-1.51,0-3,.15-5.24.27a17.87,17.87,0,0,0,1.89,2.28c9,7.21,18.07,14.34,27,21.61,2.05,1.67,4.24,1.89,6.66,1.91,11.14.06,22.28.11,33.42.31C867.19,1502,879.51,1502.36,891.83,1502.68Zm35.66,126.58c-8.47-39.6-17.7-79.07-27.65-119.86l-19.11,32.23Zm453.64-838.43.72.75c1.36-1.13,2.78-2.2,4.07-3.41,8.59-8,16.41-16.69,22.68-26.77A139.25,139.25,0,0,0,1426.25,718a175.18,175.18,0,0,0,3.27-54.56,211.76,211.76,0,0,0-9.71-47.15A216.2,216.2,0,0,0,1385,550.75a200.47,200.47,0,0,0-38.59-38c-15.74-11.71-33-20.81-51.93-26-8.75-2.42-17.87-3.48-26.85-5-1.57-.27-3.26.17-4.89.28a2.66,2.66,0,0,0,2,1.58c7.78,1.51,15.69,2.52,23.31,4.6,23.56,6.42,44.36,18.16,63,33.84a203,203,0,0,1,37.54,41.5A216.2,216.2,0,0,1,1410.7,605a208.64,208.64,0,0,1,14.83,64.19c1.74,27-1.75,53.23-12.81,78.1-5.11,11.47-11.4,22.32-20,31.59C1388.9,782.94,1385,786.85,1381.13,790.83Zm-289-163.23H894.75v7.58c1.73,0,3.09,0,4.45,0q96.43-.12,192.86-.27c.16,0,.35-.19.49-.32a9.5,9.5,0,0,0,.72-1C1093,632,1092.54,629.9,1092.09,627.6Zm89.15,916.14c-10,12.9-64.83,95.75-66.68,101h13.22c7.83-9.67,65.82-96,67.85-101Zm23.47-1047c4.83,7.19,10.69,12,18.72,14.3,9.47,2.68,19.23,2.46,28.87,3.46,4.14.43,8.3.81,12.46.92,6.13.15,12.26,0,19.17,0-2.71-8.75-5.44-17.13-8.55-25.55-5.41-1.26-10.5-2.94-16-2-1.82,1.67-3.52,3.34-5.33,4.88a17.64,17.64,0,0,1-13.28,3.83,20.1,20.1,0,0,1-12-4.82,6.25,6.25,0,0,0-4.79-1.46A115,115,0,0,0,1204.71,496.74Zm157.5,301.39a83.8,83.8,0,0,0,19.74-19.4c16.34-22.72,24.69-48.4,26.51-76.07a189.43,189.43,0,0,0-2.12-45.77,224,224,0,0,0-20.52-61.95c-9.38-18.61-21-35.75-35.57-50.55a255.77,255.77,0,0,0-53.36-41.85,39.76,39.76,0,0,0-3.75-1.68c-.75,1-1.3,1.76-1.6,2.18,9.88,7.19,19.65,14,29.1,21.25,11.21,8.59,21.91,17.78,31.13,28.6a230,230,0,0,1,28.52,41.76,212.12,212.12,0,0,1,22.82,71.71,180.83,180.83,0,0,1,.32,45.2c-2.49,21-8.35,40.8-19.2,59-4,6.64-8.07,13.23-13.72,18.7C1367.6,792.06,1365,795.16,1362.21,798.13Zm-328.15,829.23.94.21c10-28.59,20-57.18,29.89-85.27-5.94-11.27-16-27-19.67-30.44C1041.47,1550.64,1037.76,1589,1034.06,1627.36ZM686.7,1035.43c-.59,24.13-1.16,47.4-1.74,70.67-.06,2.19-.16,4.37-.22,6.56-.32,12.13-.71,24.27-.89,36.4,0,1.62.55,3.83,1.68,4.79,5.22,4.41,10.59,8.67,16.9,11.7l-9.09-11c0-4.32-.14-8.11,0-11.88.67-15.7,1.46-31.39,2.14-47.09.82-18.88,1.69-37.76,2.28-56.65.12-4,1.3-6.75,4.54-9a31.88,31.88,0,0,0,7.19-6.31l-.74-.92Zm32.74-46.56.85-.52c-3.55-4.75-6.89-9.67-10.7-14.2-3.18-3.78-3.69-7.36-1.93-12,4.35-11.51,8.23-23.21,12.3-34.84,4.38-12.56,8.8-25.11,13.13-37.69a16.84,16.84,0,0,1,6.41-9,56.93,56.93,0,0,0,5-4.46c-6.2-.56-11.17-1-15.28,3.21a22.21,22.21,0,0,1-4.25,3.26c-3.39,2.11-5.21,5.12-6.39,8.93-6,19.55-12.28,39-18.43,58.54-1.84,5.83-3.6,11.69-5.4,17.56Zm598.31,226.89-25.07-31.61c-15.44-1-33.9-.47-38.8,1.19l32.5,31.63C1296.8,1216.42,1306.89,1218,1317.75,1215.76Zm-16.53,261.31,1.15.21a35.53,35.53,0,0,0,1-3.87q4.32-27.69,8.56-55.38c3.75-24.35,7.1-48.78,11.34-73,4.9-28,7.33-56.35,10.11-84.63,1.48-15,2.76-30.09,4.07-45.15,1.46-16.83,3.16-33.64,4.2-50.5,1.24-19.85,1.86-39.73,2.81-59.6.64-13.5,2-27,2-40.51.16-53.91,1.09-107.85-3.07-161.69-1.23-15.85-1.49-31.78-3.91-47.53a14.15,14.15,0,0,0-1-2.66,3.08,3.08,0,0,0-.79,2.49c1,10.68,2.27,21.34,3.08,32,.78,10.31.89,20.67,1.72,31q2.09,25.9,2.2,51.86c0,12.73.3,25.47.42,38.21.12,11.74.56,23.49.18,35.22-.71,22.26-1.92,44.51-2.93,66.76q-1.32,29.21-2.66,58.41c-.14,3-.23,6-.48,8.94q-1.43,16.64-3,33.26-1.39,15.44-2.87,30.88c-1.39,14.45-2.7,28.9-4.27,43.32-1.63,15-3.25,30-5.4,45-3.11,21.63-6.7,43.19-10.07,64.79q-5.25,33.57-10.44,67.16C1302.5,1467,1301.9,1472.05,1301.22,1477.07ZM1122.8,1621.66l.7.65c3.81-5.54,7.67-11,11.4-16.64,13.49-20.17,26.89-40.4,40.44-60.53,1.89-2.81,2.15-5.2.67-8.27-3.54-7.33-6.75-14.82-10.15-22.22a18.43,18.43,0,0,0-2.2-2.72c-1.12,5.85-2,10.69-3,15.51-1.51,7.37-2.63,14.75-5.82,21.78C1143.94,1573.26,1133.45,1597.5,1122.8,1621.66ZM728,1336.77l.75-.6c-3.26-4.26-6.43-8.59-9.82-12.74a19.21,19.21,0,0,1-4-9.15c-5.3-30.33-10.57-60.66-16-91a13.08,13.08,0,0,1,1.29-9.12c2.59-4.78,4.88-9.72,7.29-14.59l-.78-.47-16.87,19.4c.24,2.17.37,4.35.72,6.48,1.83,11,3.73,21.93,5.58,32.9,3.19,18.8,6.31,37.61,9.61,56.4a9.53,9.53,0,0,0,2.63,5.07C714.76,1325.32,721.4,1331,728,1336.77Zm513.73-334.92.31,1.12h33.56c14.26-11.75,31.85-28.32,34.49-32.69-7.2,0-14.08.12-21,0a13.14,13.14,0,0,0-8.8,2.79c-8.67,6.64-17.46,13.13-26.21,19.66C1250,995.76,1245.81,998.8,1241.68,1001.85ZM1300,1320.47c-2.4-.12-3.51-.26-4.6-.21-7.34.32-14.68.57-22,1.12a9.48,9.48,0,0,0-4.72,2.06c-11.61,9-23.14,18.13-34.67,27.23a25.28,25.28,0,0,0-2.24,2.43h33.45Zm-22.12,66c-4.54-10.19-8.62-19.91-13.45-29h-34a.79.79,0,0,0-.49.24,6.75,6.75,0,0,0-.46,1l20.44,27.7Zm-6-542.45c3.55,0,6.69.2,9.8,0,7.12-.55,14.22-1.33,21.33-2,13.23-1.21,26.49-2.11,39.67-3.71a94.83,94.83,0,0,0,30.11-8.88c12.12-5.94,23.52-13,33.38-22.66a145.81,145.81,0,0,0,34.08-51.16,27.17,27.17,0,0,0,.8-3.72,17.9,17.9,0,0,0-1.3,1.87c-5.91,13.55-13.17,26.32-23.15,37.29-5.75,6.31-11.61,12.71-18.33,17.89a116,116,0,0,1-50.53,22.81c-15.67,2.88-31.57,3.15-47.37,4.59-7.51.69-15.07.93-22.59,1.48A29,29,0,0,0,1273,839C1272.63,840.66,1272.28,842.14,1271.84,844ZM890.33,883.43h129.86c.12-1.28.28-2.24.27-3.2s-.2-1.87-.33-3H893.24Zm431.14,273.06c-.15-.35-.29-.69-.44-1-8.14,0-16.3-.22-24.43.11a18,18,0,0,0-8.37,2.54c-10,6.18-19.7,12.69-29.5,19.13a20.39,20.39,0,0,0-2.53,2.56h36.14ZM740.06,1373l-1.18-.56c-2.07,3.78-3.93,7.69-6.27,11.29-2.18,3.36-2.29,6.36-.68,10,9.48,21.63,19.09,43.21,27.93,65.1,3.62,8.94,8.46,15.8,17.57,19.48,3.18,1.29,6,3.45,9,5.21l.81-1.12c-1.88-1.56-3.69-3.21-5.66-4.65a24.43,24.43,0,0,1-7.63-9.69q-17.15-36.67-34.6-73.21a16.59,16.59,0,0,1-1.47-11.47C738.69,1380,739.34,1376.48,740.06,1373Zm574.83-341.1c.17-.31.34-.62.5-.93-2.12-1.37-4.21-2.79-6.37-4.1-7.3-4.42-14.91-8.41-21.87-13.32-7.15-5-14.57-7.36-23.34-6.51-6.57.64-13.24.27-20.11.35.35.71.38,1,.52,1,14.89,7.89,29.76,15.82,44.71,23.59a10.82,10.82,0,0,0,5.16.89C1301,1032.68,1308,1032.25,1314.89,1031.9ZM1212.21,883.54c-3.54-5.92-8-7.82-13.93-7.68-21.28.5-42.57.76-63.85,1-8.35.11-16.71,0-25.07,0h-6.77l3.41,6.62ZM1064,602.22l6.19,2.14c.25,5.28.41,10,.74,14.78.06.91.79,1.77,1.81,3.89a50.23,50.23,0,0,0,.74-5.45q.06-44.15,0-88.29a27.43,27.43,0,0,0-.64-4.29H1064ZM771.29,870.16c6.84-.14,11.8-3.67,14.85-9.55s5.59-12.28,8.41-18.41q28.41-62,56.85-124c.71-1.55,1.28-3.15,1.92-4.73a17.19,17.19,0,0,0-3.75,5.4q-35,70.1-70.05,140.2C777.47,863.21,775.55,867.35,771.29,870.16Zm427,669.07c-2.41-11.68-4.44-22.7-7.42-33.81-8.2.47-16.06-1.17-24.29,1.35l14.9,32.46Zm-157.52-23-.76-.28c-1,1.61-2.17,3.17-3.1,4.84-3,5.38-5.76,10.87-8.85,16.18a17.14,17.14,0,0,0-2.45,10.17c1.41,21,2.6,42,3.93,63,.16,2.53.67,5,1,7.56l.46,0Zm196.4-1024.1c2.95.3,4.89.83,6.74.61,7.54-.89,12.21-5.55,14.26-12.5,1.09-3.71,1.16-7.81,1.18-11.74,0-7.89-2.6-14.68-8.8-20-4.62-4-9.58-4.83-15.49-2.11C1247.11,454.94,1249.67,480.58,1237.16,492.15ZM1196.3,828.62l-.83,1c4.8,10.45,9.53,20.93,14.46,31.32a17.49,17.49,0,0,0,3.74,4.54c6.72,6.68,14.91,5.16,23.94,4.54-3.28-2.86-6-3.87-9.42-3.79-1.89,0-4.38.87-5.84-2.22l7.19-2.46c-3.17-6.12-6.18-12.14-9.43-18a9.28,9.28,0,0,0-3.45-3c-3.91-2.34-7.93-4.51-11.87-6.8C1201.93,832.09,1199.13,830.33,1196.3,828.62Zm28.83,15.73c2.76,5.64,5,9.93,7,14.37,2.94,6.64,8.84,9.47,15.06,11.43,3.29,1,7.08.54,10.64.62s7,0,10.81,0c-.93-4.82-.34-9.64-2.56-14.14C1252.22,854.73,1239.11,850.62,1225.13,844.35ZM861.85,1338.28l.91-.22c1.13-5.83,2.28-11.67,3.37-17.51a10.15,10.15,0,0,0,.13-3c-.88-7.9-1.86-15.78-2.74-23.67q-2.16-19.25-4.23-38.5c-1.25-11.45-2.29-22.93-3.81-34.35-.59-4.39-2.28-8.62-3.47-12.93l-1.16.24Q856.36,1273.33,861.85,1338.28ZM751.17,876.09c-2.4,1.8-5.23,3.24-6.81,6.23,5,1.74,48.29,2.34,71,1l5.43-6c-1.28-.6-2-1.2-2.67-1.2Q784.7,876.06,751.17,876.09ZM1238.24,472.9c-25.14,5-46,15.46-64.14,32.17-18.75,17.23-35.41,49.36-36.57,61,17.82-46.68,49.55-77.42,99.27-87.51C1237.24,476.86,1237.57,475.56,1238.24,472.9ZM1174,1500.24c.08.39.16.78.25,1.17,4.76,0,9.53-.11,14.28,0a13.47,13.47,0,0,0,7.83-2.2c11.48-7.1,23.05-14,34.58-21.07,1.07-.66,2-1.48,3.93-2.85-3.93,0-6.71.15-9.47,0-3.74-.26-6.9.92-10.11,2.75-7.07,4-14.33,7.7-21.5,11.54Q1183.86,1494.89,1174,1500.24ZM849.65,1162.66c4.2-5.29,4.43-11.3,4.72-17.19,1-19.85,1.71-39.72,2.57-59.57.21-4.77.59-9.53.8-14.29q.81-17.58,1.53-35.15a16.75,16.75,0,0,0-2.78-9.86ZM899.17,1491l.69-.39a65.49,65.49,0,0,0,1-7.06c.21-4.91,1-9.73-.63-14.73-8.53-25.38-16.76-50.86-25.15-76.3-.72-2.19-1.77-4.28-2.68-6.42l-.93.4Q885.32,1438.75,899.17,1491ZM1024.28,340.63c.07.37.15.75.22,1.13,11.31-.46,22.61-1,33.92-1.34,18.08-.51,36.16-1.14,54.24-1.16,12.48,0,24.75-1.55,37.07-3.18q-31.92-.24-63.83-.11c-6.54,0-13.08.43-19.61.95C1052.28,338.05,1038.29,339.38,1024.28,340.63Zm267.51,269-1.16.31c.78,3.23,1.48,6.48,2.35,9.68,6.22,23,12.83,45.88,18.6,69,4,16.16,7,32.6,10.38,48.92,1.59,7.57,3.54,15.1,4.59,22.75,2,14.36,3.4,28.79,5.1,43.19a47.27,47.27,0,0,0,1.1,4.93,60.11,60.11,0,0,0-.47-14.28c-1.41-11.82-2.24-23.76-4.42-35.45-4.33-23.21-8.93-46.39-14.35-69.37-4.92-20.85-11-41.41-16.68-62.08C1295.23,621.36,1293.47,615.52,1291.79,609.66Zm-28.31,211.39c-5.64-.13-7.83,1-9.06,5.14-2.57,8.61-2.13,16.73,4.82,24,1.29-.17,3.17.13,4.21-.67a11.1,11.1,0,0,0,4-5C1269.89,836.27,1269.8,828.22,1263.48,821.05ZM898.75,871.66c1.12-3.16,2.75-6.39,3.39-9.8,5.26-28.06,10.34-56.15,15.43-84.24a35.08,35.08,0,0,0,0-5.08c-4.9,16.9-22.74,97.91-21.83,99.12Zm276-116.76,1.09-.52-34.6-68.28A192.8,192.8,0,0,0,1174.7,754.9ZM923.51,414.15c-1.44-1.67-1.83-2.56-2.37-2.67-1.55-.31-3.17-.2-4.74-.43-8.9-1.26-17.15-4-22-12.23a43.43,43.43,0,0,1-4.23-11c-2.3-8.88-.65-17.43,3.74-25.28,4.27-7.63,11.59-11.14,19.88-12.7,2.67-.5,5.34-.72,8.44-2.6-1.41-.72-2.16-1.44-2.85-1.4a26.18,26.18,0,0,0-6.45.95c-6.36,2.06-12.86,3.77-17.38,9.48-8.09,10.22-8.69,21.83-6.67,33.91a26.53,26.53,0,0,0,3.35,9.48C899,410.68,909.49,414.59,923.51,414.15ZM814.24,1525.07l-1-.11c-1.23,4.31-2.53,8.62-3.67,13a7.05,7.05,0,0,0,1.28,6.13c8.17,11.71,16.21,23.5,24.32,35.25a16.69,16.69,0,0,0,2,2.06c-6.34-11.92-13.06-23.36-20-34.68a17.59,17.59,0,0,1-2.95-10.64C814.42,1532.4,814.24,1528.73,814.24,1525.07Zm466.87-642.64c.16-.49.31-1,.46-1.48-2.79-1.71-5.43-4.49-8.4-4.89-5.51-.75-11.2-.12-16.82-.06-.13.37-.26.74-.38,1.11l8.21,6.72Zm-19.77-426.88c9.79,2.18,19.86,3.08,29.59,5.48,10,2.46,19.71,5.85,30.88,9.23C1301.85,460.69,1282.18,455.68,1261.34,455.55Zm8.45,394.62c12.63-1.06,24.73-2.14,36.84-3.07s24.09-1.41,35.86-4.29c-23.88,1.8-47.74,3.82-71.59,5.86C1270.67,848.69,1270.48,849.22,1269.79,850.17Zm6.1,3c7.12,3.25,37,2.42,47.16-1.48C1306.79,854.17,1291.56,853,1275.89,853.18ZM918.41,1570.06l1.26-.49c-3.39-12.07-2.65-25.15-10-36.23Zm362.12-1003c.43-7.66.71-15.32,1.31-23,.59-7.47,1.51-14.91,2.28-22.36l-1.82-.13C1279.91,536.66,1280.19,551.86,1280.53,567.08Zm4.86-74.59c-.12,3.36-3.25,6.1,1,9l6.88-6.25Zm-9.62,40.3c1.32-3.59,2.31-7.26.11-11.56C1272.47,525.44,1275.11,529.12,1275.77,532.79Zm18.57,961.5a13.6,13.6,0,0,0,5.55-11.47Z"/><path class="cls-2" d="M1175.81,865.08c-8.44,3.07-80,3.16-90.45-.23a19.05,19.05,0,0,1,3.11-1.13,31.86,31.86,0,0,1,4.14-.27q39-.18,78-.31C1172.3,863.13,1174.12,862.88,1175.81,865.08Z"/><path class="cls-2" d="M991.06,865.93a275.51,275.51,0,0,1-56.19,0c1.9-1.3,2.64-2.18,3.49-2.31a35.45,35.45,0,0,1,5.36-.17c13.73,0,27.45,0,41.17,0C986.71,863.48,988.87,862.83,991.06,865.93Z"/></svg>