<svg id="Layer_1" data-name="Layer 1" xmlns="http://www.w3.org/2000/svg" viewBox="0 0 2000 2000"><defs><style>.cls-1{fill:#fff;}</style></defs><path class="cls-1" d="M728.21,1442.82c-1.36-11.35-2.6-21.91-3.88-32.46-1.86-15.2-3.86-30.38-5.56-45.6-.5-4.54-1.48-8.62-4.86-11.9-4.65-4.5-5.55-10.23-5.48-16.42q.47-43.64.7-87.26c0-2.24-.17-4.49-.3-7.56a37.09,37.09,0,0,0-3.83,2.06c-3.37,2.39-6.71,4.84-10,7.32a13.14,13.14,0,0,1-8.71,2.58c-11-.39-11.35-.42-17.58-9.84q-28.74-43.46-57.36-87a15.66,15.66,0,0,1-2.88-9.46c.09-3.12,0-6.24,0-9.35q0-254.4,0-508.8c0-14.58,0-14.61,8.58-26.25q36.76-49.68,73.58-99.31c7-9.44,7-9.42,18.54-9.46,4.12,0,8.24,0,12.68,0a25.56,25.56,0,0,0,1-4.71c0-16.11-.11-32.21,0-48.31,0-3.69-1-6.52-4.23-8.49a35.81,35.81,0,0,1-3.67-2.86,10.06,10.06,0,0,1-3.83-8.13c-.13-15.06-.36-30.12-.53-45.18,0-1,.12-2.07.15-3.11a7.35,7.35,0,0,1,3.76-6.41c3.76-2.26,7.53-4.53,11.46-6.46,1.55-.76,3.52-.66,5.31-.87,2-.24,4-.38,6.53-.61.18-2.57.43-4.84.47-7.11.14-7.79.33-15.58.25-23.37a14,14,0,0,1,4.61-11c5.09-4.78,10-9.82,14.81-14.85a10,10,0,0,1,8.28-3.37c1.8.12,3.62,0,5.43,0q127.08,0,254.16,0c12.27,0,8.7-1.12,19,6.45,2.29,1.69,4.43,3.6,6.77,5.2,3.28,2.24,6.07,4.81,7,9.29,8.71.48,17.19.21,25.65.26,8.79,0,17.57,0,26.35,0,8.52,0,17,0,25.57,0s17,.27,25.68-.3c.28-2,.6-3.48.67-5,.15-3.37.25-6.75.24-10.12a12.31,12.31,0,0,1,5.27-10.62c4.57-3.39,8.88-7.13,13.13-10.92a12.36,12.36,0,0,1,9.15-3.39c1.55.07,3.1,0,4.65,0h129.41a62.09,62.09,0,0,1,7,.19c3.83.42,6,2.57,6.65,6.44a35.29,35.29,0,0,1,.28,5.44q0,46,0,91.94c0,1,0,2.08,0,3.12,0,4.84-1.95,8.26-6.57,10.42-6.07,2.85-11.89,6.24-17.81,9.41-1.34.72-2.64,1.52-4.22,2.43-.11,2.64-.29,5.2-.32,7.77-.09,7.79-.33,15.58-.11,23.37.16,5.82-1.67,9.94-7.22,12.41-5.1,2.27-10,5.09-15.28,7.85,4.89,3.65,5.46,8.87,5.41,14.53-.14,14.28,0,28.57,0,42.85v8.94c2.09.37,3.78.83,5.48,1,8,.57,16,1.13,24,1.53a18.62,18.62,0,0,1,14,7q25.21,30.09,50.64,60a15.24,15.24,0,0,1,3.87,10.63c-.17,13.5-.23,27,.06,40.51.1,5-1.12,8.61-5.78,10.72-.43.2-.71.73-1.37,1.42-.72,9-.33,18.3-.26,27.62a4.86,4.86,0,0,0,3.31,4.73c2.94,1.3,4,3.73,4,6.9.25,14,.93,28,.93,42q.11,277.77.07,555.54c0,13.51.08,27,.46,40.52.17,6.09-1.3,11.28-5.7,15.48-3.2,3.06-4.25,7-4.75,11.16q-2.49,20.88-5,41.74c-1.47,12.1-3,24.2-4.49,36.7,3.53,4,8.09,7,12.2,10.47,7.06,6,7.2,5.88,7.21,15q.06,55.32.05,110.64c0,1,0,2.08,0,3.11.06,3.69-1.45,6.19-4.67,8.26-16.52,10.64-32.89,21.52-49.33,32.3-10.37,6.81-20.89,13.41-31.1,20.46a35.08,35.08,0,0,1-17.2,6.29,78,78,0,0,0-8.41,1.38,13.31,13.31,0,0,0-3.58,1.32c-3.29,1.76-5.17,4.26-3.77,8.26,6.85,4.94,7,5.11,7,14.06,0,11.17,0,22.34,0,33.51,0,1.55-.06,3.11-.12,4.67-.15,4.1-2.28,6.64-6,8.21-8.4,3.53-17,5.94-26.2,6.21-17,.52-34.07,1.47-51.11,1.65q-146.46,1.53-292.9,0c-17-.18-34.08-1.08-51.11-1.65a73.32,73.32,0,0,1-25.51-5.82c-5-2-7.31-5.1-7.24-10.56.18-12.47,0-24.94.06-37.4,0-8,.09-8,6.9-12.56.71-2,1.1-4.15-.3-5.87a10.45,10.45,0,0,0-6.43-4c-3.06-.49-6.11-1.12-9.18-1.42a36.68,36.68,0,0,1-17.15-6.45c-25.62-17-51.41-33.81-77.15-50.67-7.67-5-7.25-4.16-7.26-13.77q0-52.21,0-104.41c0-3.38.22-6.75.17-10.13a10,10,0,0,1,4.23-8.66C718.46,1451.11,723.14,1447,728.21,1442.82ZM716.52,550.63c-1.84,2.43-3.6,4.63-5.22,6.93q-9.88,14-19.71,28c-10.31,14.61-20.51,29.3-31,43.77A21.3,21.3,0,0,0,656,643.68c.26,4.66-.14,9.35-.15,14q0,228.31,0,456.62c0,6.23.27,12.46.23,18.7a13.79,13.79,0,0,0,2.73,8.68c3.37,4.59,6.48,9.37,9.68,14.09q18.3,27,36.63,54.07c.75,1.11,1.11,3.14,3.8,2.36.06-2.87.18-5.91.18-9q0-217,0-434c0-22.33.42-44.67.33-67,0-5.28,1.37-9.06,6.27-11.26.41-.18.6-.81,1.11-1.56.26-9.76.38-19.83,0-29.72a33.57,33.57,0,0,0-3-2.06c-3.09-1.65-4.28-4.23-4.26-7.67q.1-22.22,0-44.42a11.42,11.42,0,0,1,3.05-7.75q4.8-5.61,9.49-11.31c2.44-3,5.36-5.58,7.17-9.3-4.12-3.66-6-8.42-7.47-13.47-1.07-3.73-2.4-7.38-3.7-11C717.94,552,717.26,551.53,716.52,550.63Zm91-67.56c-2.69,2.28-4.65,3.89-6.56,5.57-8.22,7.19-15.44,15.07-18.9,25.86-1.17,3.66-3.19,7-4.7,10.6a37.38,37.38,0,0,0-1.27,4.71L792,528.46c5.27-.45,10.69.65,15.71-1.25C808.7,519.29,808.65,491.05,807.54,483.07Z"/><path d="M1277.4,450.36c3.44,3.35,5.89,6.32,8.9,8.54,3.83,2.82,4.94,6.23,4.9,10.87-.15,17.17.08,34.34.17,51.51,0,2.3,0,4.59,0,7a19.15,19.15,0,0,0,3.18.77c9.63.46,19.26.94,28.89,1.27a18.68,18.68,0,0,1,14.88,7.26c16,19.32,32.33,38.35,48.68,57.37a14.05,14.05,0,0,1,3.72,9.89c-.13,12.92-.06,25.85.1,38.78,0,3.54-.25,6.48-4.33,7.65-2,.57-3,2.06-3,4.36.07,11.75,0,23.5,0,34.84,2.65,2.07,5.63,3.38,6.86,5.65s.52,5.27.58,8c.19,8.1.47,16.2.48,24.31q0,287.4,0,574.81,0,19.1.44,38.19c.1,4.51-.89,8.38-4.18,11.51-3.83,3.65-5.22,8.09-5.83,13.36-3,26.24-6.39,52.43-9.77,78.63-.39,3,.27,5.17,2.67,7,4.26,3.31,8.27,7,12.64,10.13,3,2.15,4,4.62,4,8.27-.12,24.5,0,49,0,73.51,0,13.51-.12,27,.06,40.52,0,3.64-.89,5.94-4.1,8-27.69,17.88-55.19,36.06-83,53.84-3.39,2.18-7.92,2.66-12,3.69a29.36,29.36,0,0,1-7.42,1.07c-4.95,0-8.1,3.24-11.57,5.88a5.23,5.23,0,0,0-1.67,3.42c-.22,3.24-.07,6.5-.07,9.76l6.94,3.72a24.72,24.72,0,0,1,.33,2.94c0,13.31,0,26.63.1,39.94,0,3.18-1.2,4.63-4,6-10.78,5.29-22.41,5.41-33.91,5.87q-28,1.13-56.12,1.37c-65.21.46-130.42.92-195.63,1-31.25,0-62.51-.65-93.76-1.29-17-.36-33.91-1.33-50.87-2-7.11-.28-13.42-3.3-19.8-6-1-.43-2-2.4-2-3.66-.14-14.65-.09-29.29-.09-44l6.94-3.8c.14-1.29.35-2.61.4-3.94.34-8.94-3.7-13.77-12.6-15.1-2.86-.43-5.72-.82-8.58-1.22a35.2,35.2,0,0,1-14.93-5.61q-39.06-25.87-78.5-51.15c-3.86-2.48-5.26-5.18-5.23-9.76.19-36.66.27-73.32,0-110,0-6.07,1.59-10.21,6.64-13.47,3.54-2.29,6.57-5.35,10-7.91a6.72,6.72,0,0,0,2.88-6.94q-5.24-41-10.16-82.07a12.61,12.61,0,0,0-3.87-8.16c-5-4.57-6.13-10.19-5.81-16.73.5-10.4.46-20.83.46-31.25q0-281.62,0-563.23c0-14.86.53-29.71.59-44.57,0-3.17,1-5.17,4-6.15s3.46-3.07,3.43-5.86c-.1-10-.14-20.07,0-30.1.05-3.13-.87-5.18-3.93-6.16-2.85-.91-3.48-3-3.45-5.85.15-13.89.23-27.78.12-41.67a11.18,11.18,0,0,1,3.2-7.75q7.37-8.55,14.62-17.19c3.06-3.64,3.21-6.3-.14-9.54-2.64-2.55-4-5.53-5.1-8.85-2.51-7.45-5.69-14.74-3.69-22.78-6.43-1.56-6.45-1.58-9.54,2.77q-31,43.6-62,87.2a13.59,13.59,0,0,0-2.67,8.58c.11,5.79-.07,11.58-.07,17.37q0,232.41,0,464.82c0,6.18.18,12.35.09,18.53a12.39,12.39,0,0,0,2.39,7.52q26.19,38.15,52.3,76.36a15.89,15.89,0,0,1-4,22.21c-3,2.15-5.85,4.44-9,6.36a13.88,13.88,0,0,1-5.3,1.71c-6.2.86-10.22-1.73-13.73-7.13-19-29.27-38.4-58.3-57.73-87.36a14.52,14.52,0,0,1-2.69-8.6c.07-6.75-.17-13.5-.17-20.26q0-244.56,0-489.13c0-7.14.21-14.28.21-21.42a10.94,10.94,0,0,1,2.33-6.9q41-54.95,81.76-110.05c2.53-3.42,5.28-5.18,9.62-5,7.12.25,14.26.07,21.8.07a45.88,45.88,0,0,0,.55-4.87c0-18.91-.12-37.82,0-56.73,0-3.68-1-6.45-4.18-8.19-6.32-3.44-8.18-8.71-8-15.73.27-12.91-.14-25.85-.47-38.77-.08-3.19,1.39-4.79,3.87-6.38,5.83-3.73,11.87-6.22,19-5.25a28.36,28.36,0,0,0,5-.24c.15-2.33.38-4.39.41-6.44.14-9.84.33-19.68.28-29.52a10.25,10.25,0,0,1,3.47-8.12c4.64-4.35,9.12-8.88,13.5-13.5a9.13,9.13,0,0,1,7.15-3.06c4,0,8.1-.17,12.15-.17,81,0,162.08.14,243.12-.19,10.79,0,19.82,2,27.89,9.45,3.66,3.4,7.35,6.09,6.63,12h115.77a31.08,31.08,0,0,0,.68-4.21c.19-5,.48-10,.29-15a9.16,9.16,0,0,1,3.89-8.39c4.3-3.27,8.44-6.76,12.46-10.35a10.47,10.47,0,0,1,7.35-2.8c1.74,0,3.47-.12,5.21-.12q63.67,0,127.35,0c3.41,0,6.82.38,10.63.6.15,2.54.35,4.43.35,6.31,0,31.45-.06,62.9.09,94.35,0,4.19-1.17,6.74-5,8.58-7,3.3-13.64,7.16-20.54,10.57a5.74,5.74,0,0,0-3.66,5.8c0,9.84-.32,19.68-.49,29.52,0,2.29,0,4.59,0,7-5.15,2.69-9.69,5.9-14.75,7.47C1289,450,1283.64,449.72,1277.4,450.36ZM1123.85,1451c-1.13-4.57-4.75-4.3-8.27-4.3H986.36c-.77,0-1.53,0-2.3,0-3.06-.06-5.21,1.1-5.94,4.27a26.6,26.6,0,0,0-2.79,2.83c-7.63,10.42-15.26,20.83-22.74,31.36-1.44,2-2.19,4.53-3.7,7.77-4.95,1.82-11.11-.39-17.19,0s-12.33.08-18.5.06l-18.51-.06c-6.17,0-12.34,0-18.51-.06s-12.34-.17-18.51-.35c-6.36-.17-12.71-.52-19.07-.66-6.16-.13-12.34,0-18.51-.14s-12.32-.46-18.49-.65-12.33-.57-18.49-.44c-5.94.11-11.9-2-17.88,0a4.39,4.39,0,0,0,2.87,1.49c7.69.41,15.38.89,23.08,1.08q31.5.75,63,1.26c30.07.48,60.14.78,90.21,1.31,3.47.06,5.7-1,7.56-3.91,5.43-8.65,11.13-17.12,16.65-25.72,3.22-5,6.28-10.12,9.41-15.19,2-.53,4-1.52,6-1.52q67-.14,134,0c2,0,4,1,6,1.53a20,20,0,0,0,1.22,2.61c8.41,12.92,16.89,25.8,25.23,38.77,1.7,2.65,3.86,3.33,6.8,3.28,17.55-.33,35.09-.51,52.64-.8q41.06-.68,82.13-1.46c14.06-.29,28.12-.78,42.18-1.26,1,0,1.91-.77,2.86-1.17l-.36-1.27c-61.51,2.88-123.05,3.51-184.13,3.51-.85-2.75-1-5-2.09-6.5-8-11.31-16.28-22.49-24.48-33.69A13.71,13.71,0,0,0,1123.85,1451Zm263-752.08c-7.39.69-13.69,1.56-20,1.82-22,.91-43.92,1.74-65.89,2.36-19.47.56-39,.88-58.43,1.13-36.07.48-72.15,1.18-108.22,1.15-65.78,0-131.56-.56-197.35-.89-27.58-.13-55.18.05-82.76-.49-38-.76-76-2-113.92-3.16-3.45-.1-6.9-.57-10.35-.77-4.72-.29-9.45-.49-14.39-.73-1.68,215.7-1,430.91-1.27,646.3,4.51.6,7.53,1.74,8.06,6.44,1.77,15.89,3.86,31.74,5.8,47.61,2.11,17.2,4.17,34.41,6.3,51.61.63,5.11,1.4,10.2,2.11,15.33,3.07.44,5.53,1,8,1.13,9,.46,18.09.91,27.15,1.12q31.51.75,63,1.27,32.7.57,65.38,1c9.61.12,19.21,0,28.78,0,.85-1.74,1.59-3.09,2.17-4.5q22.36-54.21,44.7-108.44c2.48-6,2.45-6.08,8.78-6.09h132.55c6.57,0,6.56.06,8.94,5.84q19.9,48.36,39.82,96.71c2.27,5.5,4.65,11,7,16.61,2.4,0,4.52.05,6.62,0,14.47-.33,28.93-.75,43.39-1,24.68-.43,49.36-.72,74-1.17q29.21-.54,58.4-1.35c3.38-.09,6.73-.78,10.22-1.21,1.38-11.39,2.66-22.09,4-32.79,2.14-17.2,4.33-34.39,6.46-51.59,1.26-10.13,2.47-20.27,3.7-30.4.39-3.2,1.65-5.51,5.37-5.55a9,9,0,0,0,2.52-1c0-2.65,0-5.31,0-8q-.37-256.69-.74-513.39-.08-58.46,0-116.92ZM715.55,372.63c0,2.07,0,4.19,0,6.3.26,10.22.94,20.44.67,30.64-.14,5.71,1.59,9.65,6.38,12.46.66.39,1.18,1,1.85,1.39,2.87,1.6,3.68,4.07,3.67,7.26-.08,21.8,0,43.6-.07,65.4a47.43,47.43,0,0,1-.75,5.82l-25.9,1.35a5,5,0,0,0,0,1.78c3.6,8.3,7.26,16.57,10.89,24.86.92,2.1,2.59,2.53,4.7,2.51,5.6-.07,11.19,0,16.79,0h24.66a29.56,29.56,0,0,0,1.7-2.85c9.71-21.18,19.73-42.23,28.91-63.64,3.82-8.93,11.47-13.17,18.33-18.59.79-.63,2.19-.64,3.32-.69,8.47-.35,17-.88,25.43-.91,36.28-.13,72.55-.1,108.82-.16,2.24,0,4.49-.2,7.08-.33.14-2.44.32-4.33.33-6.21.05-7.14-.06-14.28.09-21.42.14-6.94.54-13.87.79-20.81.08-2,.22-4.14,2.81-4.26a147,147,0,0,1,19.67.16c.63,6.28,1.2,11.95,1.77,17.58,7.93.63,15.36,1.74,22.79,1.71,18.47-.07,36.92.21,55.42-.84,20.39-1.15,40.89-.31,61.34-.37,2.05,0,4.1-.18,6.23-.28.63-6.24,1.21-11.9,1.83-18,6.71,0,12.85,0,19,0a2.78,2.78,0,0,1,3,2.9q.2,2.31.21,4.62c.07,12.93.11,25.85.19,38.78,0,2.06.18,4.12.3,6.84h7.87c42.06,0,84.12-.09,126.18.21a36.33,36.33,0,0,0,18.6-4.72c2.91-1.61,4.23-3.35,4.16-6.71-.18-8.68.13-17.37-.15-26a26.27,26.27,0,0,0-2.08-9.42c-8.46-19.42-17.14-38.74-25.76-58.08-2-4.56-4.13-9.09-6.34-13.95h-5.91q-152.8,0-305.61.08a26.28,26.28,0,0,0-9.48,1.83c-25.9,10.37-51.73,20.92-77.57,31.45-1.13.46-2.17,1.12-3.66,1.9a35.29,35.29,0,0,0,19.1-.18c4.57-1.48,9.7-2.31,14,0,3,1.63,5.8,2.8,9.15,2.58,2.9-.19,4.52,1.23,5.86,3.72,2.75,5.08,5.73,10,8.76,15,1.69,2.75,2,5.36.1,8.07s-2.44,5.93-2.53,9.3c-.07,2.85,0,6.08-1.31,8.48-4.94,9.38-18.39,12.19-25,5.29-2.11-2.21-4.4-4.24-7.93-4.18-1,0-2.29-1.32-2.92-2.36-3.49-5.78-6.93-11.59-10.12-17.53-.71-1.31-1.06-3.62-.37-4.72A23.05,23.05,0,0,0,878.62,372c-.06-1.29,1.06-2.64,1.91-4.6-9.21-.37-17.85-1-26.49-1-40.51-.1-81,.09-121.54-.18C725.77,366.11,720.68,368.62,715.55,372.63Zm1.68,226.56a58.43,58.43,0,0,0,7.62,1.44c15.58.86,31.15,1.72,46.74,2.3q22.83.84,45.69,1.12,59.6.76,119.2,1.29,15.35.15,30.68.08,137.16-.54,274.33-1.14c18.51-.09,37-.68,55.52-1.08,18.89-.4,37.78-.79,56.67-1.32,8.08-.23,16.16-.72,24.22-1.24a67.37,67.37,0,0,0,7.65-1.45q-27.4-32.27-53.49-63c-13.17.89-25.64,1.93-38.13,2.51-13.29.63-26.6.92-39.91,1.2-22.56.47-45.12,1-67.69,1.15q-64,.33-127.92.16c-69.64-.28-139.28-.83-208.92-1.27-1.55,0-3.09-.1-4.63-.17-23.1-1-46.21-2-69.3-3.2a9.88,9.88,0,0,0-8.92,3.92c-15.81,18.71-31.78,37.29-47.67,55.93A25.35,25.35,0,0,0,717.23,599.19Zm-1.66,47.31c4.29.6,7.87,1.39,11.48,1.57,17.69.88,35.39,1.72,53.1,2.32,16.18.55,32.37.88,48.57,1.12,34.13.5,68.26,1.35,102.39,1.22,91.41-.34,182.84,1.28,274.25-.89,27-.64,54-.76,81-1.21q30.06-.51,60.12-1.27c9.63-.25,19.25-.72,28.86-1.27,3.6-.21,7.16-1,10.59-1.44,1.49-5.9,1.34-38.26-.27-43.18-3.69.41-7.47,1-11.28,1.22-17.52.86-35,1.75-52.56,2.35q-25.14.86-50.31,1.17-63.35.74-126.7,1.24c-2.7,0-5.4.06-8.1,0-83.7-.34-167.4-.5-251.1-1.11-39.33-.29-78.66-1.33-118-2.29-15.59-.38-31.16-1.5-46.74-2.26-1.65-.08-3.3,0-5.29,0Zm8.1,44.19a43.48,43.48,0,0,0,6.47,1.41c14.61.84,29.22,1.69,43.84,2.27q20.81.84,41.62,1.14,54.67.76,109.34,1.29,15.63.16,31.25.08,142.35-.52,284.7-1.14c18.89-.1,37.78-.69,56.66-1.1,17.92-.39,35.84-.79,53.76-1.32,7.12-.21,14.23-.69,21.33-1.22a38.47,38.47,0,0,0,6.08-1.5c-.1-12.29.53-24-.39-35.81-1.7,0-2.84-.08-4,0-8.25.66-16.49,1.66-24.75,2-16.57.64-33.15,1-49.72,1.34-36.06.78-72.11,1.86-108.17,2.14-51.5.4-103,.35-154.51.19q-75.51-.23-151-1.1c-40.49-.5-81-1.44-121.45-2.42-12.7-.31-25.38-1.41-38.07-2.11a21.43,21.43,0,0,0-3,.28ZM696.33,504.76c-1.45,1.85-2.65,3.32-3.78,4.83-25,33.57-49.89,67.2-75.07,100.62a25.49,25.49,0,0,0-5.41,16.38q.23,189,.1,377.94,0,70.32,0,140.65c0,3.3.32,6.31,2.31,9.28,19.38,29,38.59,58.15,57.89,87.23,4.06,6.11,9,7,15.1,2.78,2.39-1.63,4.61-3.5,7-5.06,2.88-1.85,3.86-4.53,4.36-7.74.57-3.67-1.28-6.26-3.15-9C679.3,1198.9,663,1175,646.4,1151.33a23,23,0,0,1-4.33-13.95q.09-110.84-.07-221.67,0-139.49.08-279a21.62,21.62,0,0,1,4.38-13.32c16-22.23,31.77-44.59,47.64-66.91,4.13-5.81,8.13-11.73,12.46-17.38,2.51-3.27,3-6.21,1.16-10-3.32-6.73-6.16-13.7-9.24-20.54C697.94,507.37,697.2,506.27,696.33,504.76Zm440.94,1088c.11-2,.23-3.36.23-4.7,0-26.82-.09-53.63.11-80.45,0-4-1.73-6.51-4.46-8.8-8.42-7.07-16.89-14.07-25.25-21.21a9.13,9.13,0,0,0-6.34-2.16q-50.64.06-101.28,0a9,9,0,0,0-6.3,2.21q-12.72,10.94-25.72,21.55a9.77,9.77,0,0,0-3.86,8.42c.14,26.82.07,53.63.09,80.45,0,1.48.23,3,.38,4.69C1022.4,1594.68,1079.59,1594.68,1137.27,1592.71Zm137.7,85c-12.66.52-25,1.27-37.25,1.49-48.38.84-96.77,2-145.16,2.13-65.38.12-130.75-.63-196.12-1-5.2,0-10.4-.44-15.6-.62-17.86-.62-35.72-1.21-53.88-1.82v40a32.35,32.35,0,0,0,5,1.14c6.14.46,12.29.87,18.44,1.1,12.14.46,24.27.93,36.41,1.12,33,.51,65.94,1.23,98.91,1.21,53.8,0,107.6-.52,161.39-1,32.39-.27,64.78-.77,97.16-1.29,8.66-.14,17.31-.7,26-1.19a24.94,24.94,0,0,0,4.76-1.19Zm-120.16-177.88c-1.31,7.32-1,84.67.23,89.39,1.58.1,3.28.32,5,.3,30.47-.35,60.94-.67,91.41-1.12q35.57-.53,71.12-1.36c7.27-.18,14.52-.89,21.65-1.34,1.48-6.45,1.24-84.67-.33-89.48-1.75,0-3.65-.07-5.55,0-7.51.34-15,.83-22.52,1.08-14.26.47-28.52,1-42.78,1.17-37.42.53-74.83.9-112.24,1.33C1158.87,1499.89,1157,1499.87,1154.81,1499.87Zm-207.23-.15c-16.65,0-32.45.14-48.25,0s-31.62-.67-47.43-1-31.61-1.09-47.42-1-31.38-2.31-47-1.07c-1.24,8.69-.84,84.63.52,89.43,62.92,2.76,126,3.74,189.57,3.51Zm392.2,91.56-.31-1.42c-6.48.43-13,1-19.44,1.26-11.94.48-23.88.89-35.83,1.15-22.37.47-44.73.93-67.1,1.18-19.67.22-39.35.22-59,.17-3.7,0-6.45.82-9.06,3.76-7,7.92-14.52,15.46-21.8,23.17q-14.67,15.57-29.32,31.18c-1.9,2-3.8,3.94-1.49,7.3,2.14,0,4.43,0,6.73,0l127.26-1.21c3.47,0,6.95,0,10.41-.13,7.38-.27,14-1.87,20.17-6.78,16.15-12.82,32.89-24.9,49.37-37.3C1320.18,1606.19,1330,1598.72,1339.78,1591.28ZM744.5,361.18h6.64c34,0,67.91,0,101.86-.1a28.15,28.15,0,0,0,10-1.93c23.94-9.57,47.77-19.39,71.67-29.06,7.13-2.88,14.21-6,21.56-8.18,13.07-3.88,26.33-7.11,39.5-10.66,6.81-1.84,13.59-3.78,20.38-5.67l-.12-.66h-5.58c-79.29,0-158.59.13-237.88-.21-7.9,0-13,2.67-18.61,7.76-7.09,6.48-10.84,13.28-9.59,23.09.8,6.26.15,12.71.15,19.08Zm16,1229.25c2.63,2.43,4.35,4.09,6.15,5.67,16.5,14.51,33,29.05,49.56,43.46,5.67,4.92,11.51,9.66,17.53,14.14a15.7,15.7,0,0,0,7.36,2.79c6.31.69,12.67,1,19,1.15,15.6.48,31.2,1,46.8,1.19,16.77.23,33.55.15,50.32.2h7.31c-5.16-22.32-10.35-43.69-15.87-65.39h-7.28c-22.36-.12-44.72,0-67.08-.42-29.09-.49-58.18-1.33-87.27-2.07-3.84-.09-7.67-.59-11.52-.69C770.93,1590.33,766.37,1590.43,760.45,1590.43Zm385.18-118.94.83-.52q-15.11-39-30.21-78c-2.06-5.3-2.15-5.31-8-5.32q-57,0-114,0c-6.73,0-6.1-.93-8.75,5.85q-13.11,33.64-26,67.35-2,5.24-4,10.47a13.12,13.12,0,0,0,4-4.25c4.55-6.7,9.12-13.38,13.63-20.11,1.34-2,2.69-3.49,5.46-3.53,7.71-.13,15.41-.77,23.12-.81q35.31-.18,70.61,0c16.2.1,32.39.7,48.59.68,4.51,0,7,1.8,9.23,5.35C1135.07,1456.36,1140.43,1463.87,1145.63,1471.49ZM1333.16,334.88c-.86.93-1.46,1.27-1.54,1.71-1.83,10.53-9.25,15.24-18.61,17.93a6.74,6.74,0,0,0-1.1.36,11.74,11.74,0,0,1-10.58,0c-3.51-1.57-7.06-3.08-10.68-4.35a8.07,8.07,0,0,1-5.26-4.92c-1.77-4.47-3.83-8.84-5.42-13.38a9.38,9.38,0,0,1-.19-5.5c4.88-16.34,6.11-17.5,21.91-23.62a12.18,12.18,0,0,1,10,0,90.31,90.31,0,0,0,9.09,3.66c4.12,1.36,6.87,3.73,8.18,8.05a22.59,22.59,0,0,0,4.08,8.46c1.1-12,.7-33.23-.77-38H1199.51a22.93,22.93,0,0,0-4.62.08,13.06,13.06,0,0,0-5.2,1.9c-4.13,3.15-8.08,6.56-12,10-1.1,1-2.48,2.33-2.56,3.59a148.39,148.39,0,0,0,0,21c6,.37,11.41,1,16.77,1,24.69.1,49.37.24,74-.12,5.39-.08,7.9,1.82,9.92,6.45,9.42,21.52,19.09,42.93,28.7,64.36a40.18,40.18,0,0,0,2.33,3.93c7.61-4,14.66-7.89,21.94-11.34,3.46-1.64,4.75-3.69,4.69-7.53-.22-13.3-.07-26.61-.08-39.92C1333.47,337.57,1333.3,336.52,1333.16,334.88ZM957.79,447.57h185.13V398.16H1129c-.59,6.13-1.14,11.79-1.67,17.27-8.9,1.37-148.9,1-153.93-.34-.52-5.57-1.06-11.23-1.64-17.33-5,.22-9.47-.81-14,.67Zm10.58,1150.88a8.5,8.5,0,0,0,.62,1.72c12.74,15.23,25.54,30.41,38.22,45.68,2.44,2.94,5.28,3.87,9,3.85,22.94-.14,45.89-.19,68.83,0a12.44,12.44,0,0,0,10.82-5c11.47-14,23.24-27.79,34.88-41.67,1.06-1.26,1.94-2.66,3.33-4.58Zm91.49-1145v82.07h57.92c0-2.35,0-4.24,0-6.12q-.39-36.15-.81-72.29a46.65,46.65,0,0,0-.66-5.07Zm-13,83.56c1.26-8.92.9-59.36-.39-63.85-24.44-1.14-49-1.92-73.47-1v63.53Zm-212,1132.91a11.33,11.33,0,0,0,2.06.59c14.42.76,28.84,1.77,43.27,2.18,22.36.63,44.74,1.24,67.1,1.18,76.39-.22,152.78,1.27,229.16-.85,24.67-.69,49.35-.85,74-1.41,5.51-.13,11-.9,16.67-1.4V1660a18.94,18.94,0,0,0-2.67-.26c-10.18.66-20.35,1.59-30.55,2-15.41.59-30.84,1-46.27,1.16-35.68.49-71.36,1.07-107,1.14-30.09.06-60.17-.53-90.26-.87-36.84-.42-73.68-.81-110.51-1.36-12.14-.18-24.28-.78-36.41-1.22-1.34,0-2.66-.46-4-.55s-2.93,0-4.57,0ZM1138.53,472v63.64h64.24c1.23-7,1-59.48-.26-63.64ZM920.17,534.58c16.59.14,32.2,2.3,48.08.81.84-27.95-1-55.41,1.82-83.12H920.68C920.22,479.59,920.8,506.65,920.17,534.58Zm62.18,822.09c2,9.29,3.89,17.81,5.78,26.43h125.09c2.8-7.21,5.74-21.59,5.36-26.43ZM845.48,533.12c4.61,1.87,38.91,2.47,46.81.79.19-20.71.14-41.58.06-63L845.48,470ZM1360.73,1472l-.66-.76c-12.68.59-25.35,1.36-38,1.74q-27.16.84-54.33,1.22c-30.45.47-60.89.79-91.34,1.24-1.64,0-3.82.15-4.82,1.15-3.46,3.48-6.51,7.36-10.68,12.21,3.53,0,5.57,0,7.61,0q64.73-1.12,129.45-2.28c14.25-.27,28.49-.8,42.73-1.28,1.67-.06,3.7-.1,4.92-1C1350.76,1480.35,1355.7,1476.12,1360.73,1472Zm-421.2,16.81.45-1.31c-2.74-3.2-5.51-6.38-8.22-9.61-1.62-1.93-3.62-2.5-6.11-2.54-19.85-.26-39.68-.66-59.53-1q-42.76-.69-85.53-1.34c-1,0-1.92-.11-2.89-.15l-37.4-1.67c5.92,4.82,10.9,9,16,13a7.2,7.2,0,0,0,3.75,1c6.52.43,13,.84,19.59,1.09,11.73.44,23.47.86,35.22,1.09q37.56.75,75.12,1.27c14.84.19,29.68.11,44.52.15Zm435.66,99.65c0-30.3,0-59.84,0-89.82-8.75-1.24-16.75-2.41-25-2.08V1586Zm-647.81-90.12c-1.19,10-.79,85.1.47,90l24-2.44c.28-30.13.86-59.65.22-89.94ZM985.28,1454c3.13,4.62,6,8.44,8.39,12.49,2.22,3.69,5,5.06,9.44,5,17.32-.27,34.66-.09,52-.09,15,0,30,0,45.06-.09,1.8,0,4.33-.22,5.25-1.36,3.9-4.86,7.33-10.1,11.44-15.93ZM1199.14,451.29c1.92,4,3.13,7,4.79,9.82,2.78,4.64,3.62,9.57,3.59,14.92-.1,17.36,0,34.73.11,52.09,0,2,0,4.09,0,7l24.07-1.61c1.18-7.27-.17-78.44-1.39-82.2ZM810.47,528.84c1.44-7.76,1-57.45-.55-61.87a265.88,265.88,0,0,0-28.73,26.85,13.49,13.49,0,0,0-2,3.5C774,508.69,768.69,520,763.72,531.49c-1.45,3.35-3.4,4.91-7,4.72a20.64,20.64,0,0,0-2.83.23c-3.89,5.07-4.11,10.86-4.49,17.95,5.51-6.45,10.46-11.8,14.88-17.56a15.59,15.59,0,0,1,12.3-6.37c9.43-.48,18.86-.89,28.28-1.33C806.8,529.05,808.68,528.93,810.47,528.84ZM839.81,451c-5.35.22-5.39.17-8.07,2.38-4.46,3.67-8.8,7.5-13.31,11.11a8,8,0,0,0-3.23,6.94c.09,18.89,0,37.78.07,56.66a20.91,20.91,0,0,0,.72,3.81H838.4C840.48,504.86,839.8,478.15,839.81,451ZM1157.14,1486.9c3.49-4.06,6.12-7.35,9-10.41,2.24-2.37,2.68-4.48,1.34-7.7-12.61-30.16-25-60.41-37.47-90.62-2.11-5.11-4.31-10.17-6.46-15.26-2.25,5.4-3.34,10.78-4.66,16.11a19.61,19.61,0,0,0,1,12.39c9.33,23.81,18.51,47.68,27.77,71.51C1150.62,1470.61,1153.7,1478.25,1157.14,1486.9Zm-212.66-.36a16.81,16.81,0,0,0,1.52-2.29q18.38-47.31,36.68-94.65a11.19,11.19,0,0,0,1-4.44c-.38-7.62-2.59-14.87-4.58-23.42-1.06,2.2-1.6,3.19-2,4.23q-14.67,35.44-29.32,70.91-6.6,16-13.22,32c-.79,1.91-2,3.76-.14,5.86C937.72,1478.44,940.87,1482.28,944.48,1486.54Zm314.13-953.26a9.22,9.22,0,0,0,.55-1.79c.06-20.06.15-40.12.06-60.19a7,7,0,0,0-2.07-4.46c-4.58-4.41-9.34-8.64-14.16-12.8-1.7-1.47-3.72-2.76-6.22-1.46v80.7ZM1091.73,1658.43c-2.13-3-4.39-2.21-6.27-2.22-23-.09-45.92-.3-68.87,0a17.11,17.11,0,0,1-14-6c-14.12-15.31-28.54-30.34-42.86-45.46-1.21-1.28-2.51-2.49-3.76-3.74l-1.11.76,14,57.29c2.89,0,5.19,0,7.48,0l37.61.31c21,.2,42,.49,63.06.52C1081.6,1659.88,1086.25,1659,1091.73,1658.43ZM1264.87,469.62c-1.51,6.88-1.19,59.38.38,64,7.1-.09,14.36.59,21.32-1.76,1.16-7.33.89-58.54-.47-63.65ZM915.1,534.46c2-27.43,1.09-54.12,1.2-82.24-2.8,1.74-4.69,2.53-6.06,3.84-3.2,3.07-6,6.54-9.24,9.56a11.3,11.3,0,0,0-3.73,9.14c.17,18.13.07,36.26.1,54.38,0,1.68.22,3.36.37,5.32Zm57.69-67.1h75.9c1.37-4.86,2.73-9.72,4.24-15.09H974.74C974.09,457.25,973.47,462.1,972.79,467.36Zm154.3-14.47c2.24,3.54,4.64,7,6.64,10.61,1.79,3.3,4.22,4.33,7.94,4.28,18.85-.21,37.71-.15,56.56-.22a37.56,37.56,0,0,0,4.12-.54c-1.93-3.74-3.67-6.93-5.22-10.2-2.29-4.8-5.75-7.17-11.32-7.12C1166.44,449.88,1147,449,1127.09,452.89Zm244.08,1139.84a15.69,15.69,0,0,0-3.18-1.26c-5-.5-10-.81-15-1.35a10,10,0,0,0-8.33,2.78c-19.47,17.29-39.08,34.4-58.63,51.59a22.69,22.69,0,0,0-2.13,2.62c7.57-.63,14-2,19.91-6.43,15.61-11.62,31.71-22.6,47.59-33.85C1357.85,1602.3,1364.2,1597.71,1371.17,1592.73Zm-553.53,54c-1.34-1.47-2.24-2.66-3.34-3.63q-28.87-25.41-57.75-50.82a8.34,8.34,0,0,0-6.81-2.22c-5.36.52-10.74.9-16.1,1.4a13.93,13.93,0,0,0-2.86,1.22c2.14,1.55,3.79,2.76,5.46,4,20.6,14.58,41.34,29,61.73,43.87A31.61,31.61,0,0,0,817.64,1646.77ZM1132.85,535.59c.12-2.35.29-4.06.29-5.78q0-27.45,0-54.92c0-6.11-5.46-15.85-11-19.72v80.42ZM714.6,1470.21v116.7l7.33,1.41v-6.87c0-24.29-.43-48.59.18-72.86C722.45,1495.18,718.63,1482.83,714.6,1470.21Zm672.71,116.64c1.2-15.64.65-112.6-.81-117.27-1.94,7.82-3.79,15.06-5.5,22.34a30.31,30.31,0,0,0-.9,6.82q-.11,42.51,0,85a43.9,43.9,0,0,0,.51,4.62ZM910.65,449.78c-13.76,0-26.31.52-38.79-.15-12.06-.66-17.65,7-23.55,15.58a13.07,13.07,0,0,0,3.22,1c13.68.13,27.36.25,41,.19a6.24,6.24,0,0,0,4-1.79C901.13,460,905.52,455.23,910.65,449.78Zm413-120.58c-1.76-4-2.6-8.71-5.36-11.44A18.09,18.09,0,0,0,1307,312.9a17.33,17.33,0,0,0-11.48,4.45,19,19,0,0,0-5.16,11.81,17,17,0,0,0,4.68,11.4,19,19,0,0,0,11.87,5,17.54,17.54,0,0,0,11.36-4.81C1321,338,1321.86,333.35,1323.69,329.2ZM1049,321.6c1.29-3,.64-4.91-1.56-6.53-3.89-2.84-7.73-5.76-11.45-8.81-1.79-1.47-3.36-1.05-5.33-.51-16.66,4.58-33.37,9-50.05,13.53-2,.54-4,1.22-6,1.83l.21.49ZM1142,1503v89.78l7.44-2.57c0-28.42,0-56.32,0-84.22a31.84,31.84,0,0,0-.43-4,.79.79,0,0,0-.28-.48,3.79,3.79,0,0,0-.9-.35Zm-189.11-2.2v89.78l7.16,2V1503Zm28-45.75L954,1496.29c7.39,3.64,7.38,3.63,12.7-.82,7.24-6,14.51-12.07,21.74-18.13,1.59-1.34,3.07-2.8,5-4.54C989.23,1466.9,985.32,1461.33,980.91,1455Zm140.16,0-12.46,17.78c1.91,1.73,3.41,3.17,5,4.5q11.28,9.48,22.61,18.9c4.52,3.77,6,3.73,11.55-.37Zm250,5c-.61,2.21-1.36,3.52-1.25,4.76.37,4.26-2.09,6.72-5.07,9-3.49,2.72-6.8,5.67-10.35,8.3-3.29,2.44-4.27,5.63-4.05,9.86l25.85,2.59c2-8.3,4-16.26,5.65-24.28.24-1.15-.73-3-1.73-3.86C1377.52,1464.24,1374.58,1462.45,1371.08,1460ZM751.74,1492c-.06-4.29-1-7.48-4.32-9.9-3.74-2.69-7.11-5.89-10.78-8.68-2.76-2.1-4.63-4.42-4.47-8.16.06-1.52-.81-3.08-1.3-4.76-14.09,8.58-11.67,6.73-8.8,19,.57,2.43,1.07,4.88,1.72,7.29s1.53,5,2.39,7.81ZM1283.85,463.61c-5-4.42-9.13-8.11-13.33-11.71a5.28,5.28,0,0,0-2.61-1.08,112.75,112.75,0,0,0-23.43-.78c6,5.29,11,9.71,16.09,14.06a4.37,4.37,0,0,0,2.54,1.17C1269.59,465.21,1276.15,466.05,1283.85,463.61ZM912.22,384.48c-7.51,4.65-15.17,7.06-22.18,11.41l4.84,10.9,22.52-10.52C915.66,392.32,914.15,388.88,912.22,384.48Zm-24.33,6.86,22.49-10.55-4.39-8.6-22.27,10.45C885.18,385.68,886.39,388.2,887.89,391.34ZM959,701.12v.16h183.76v-.16ZM1054.5,461.2c-.78,3.45-2.19,6.86-2.23,10.29-.21,20.4-.12,40.79-.07,61.19a7.9,7.9,0,0,0,1,2.63l1.27-.2ZM976.33,1726.74l.17.29h150.07v-.29ZM917,400.92c-6.56,3.2-13,5.36-18.67,9.31,4.08,4.34,8.56,5.16,13.61,2.77C915.76,411.19,918,406.34,917,400.92ZM735,569.75c1.46-11.09,1.33-22.24,6.1-32.7-5.25-.32-6.41.49-7,4.9-.68,5.14-.76,10.4-1.84,15.45C731.3,562.12,732.78,565.94,735,569.75ZM903.21,369c-2.25-1.68-3.56-3.41-5.12-3.66a19.59,19.59,0,0,0-8.56.17c-4.64,1.41-6.88,6.91-5.35,12.47C890.25,375.15,896.24,372.33,903.21,369Zm395.58,1259.23c-15.15,9-35.51,24.83-37.75,28.36,4.75-.52,9.19-1.17,12.66-4.81,4-4.15,8-8.23,12.18-12.14S1294.48,1632.05,1298.79,1628.26ZM858.1,1724.35l-.17.68,103.33,1.49c0-.18,0-.35,0-.52Zm284,1.64-.13.53,102.21-1.5c0-.22,0-.45,0-.67ZM747.78,536.07c-7.66,8.4-6,18.43-7.94,28.45,4-2.56,4.84-5.61,5.24-9.15C745.74,549.36,746.74,543.39,747.78,536.07Zm62.45-84.32c-7.35,4.33-15.5,8-17.32,18,3.37-2.9,6.63-5.56,9.72-8.4S809.69,456.76,810.23,451.75Zm34,10.81a89,89,0,0,0,10.55-12.82l-9.28.57C845.12,454.38,844.75,457.89,844.27,462.56ZM728,536c-5.5,3.65-5.64,11-1.47,16.91C727,547.57,727.44,542.34,728,536Zm415.32,1062c-4.48.82-14,11.6-16.29,17.27ZM920,385.35c-1.81-5.86-5-11.08-7.89-13.28C912.76,377.3,916.05,383.16,920,385.35ZM844.39,699.94v.18h39v-.18Zm375,0v.16h37.94V700ZM960.18,1596.71l-1.45,1.28,15.61,16.53.86-.82C970.18,1608.06,965.87,1601.76,960.18,1596.71Zm353-1063.15.19-.58c-3.44,0-6.89,0-10.33,0s-6.91-.43-10.26.32c0,.54.09,1.08.13,1.62ZM881.38,389.77l-1.18.64,7,12.4C886,398.06,885.08,393.19,881.38,389.77Zm410.74-78c4.36.89,9.1-.94,12.4-4.71C1299.75,307.52,1296.2,309.53,1292.12,311.79Zm-8,14.7c4.57-3.31,6.28-8.15,4.79-11.62ZM1314.16,699l.18-.24h-25.41V699ZM812.9,699l.13-.24H787.68V699Zm545.52-2.23c0,.17.1.33.16.5q11.19-.82,22.39-1.65c.13,0,.29-.2.34-.34s0-.32-.09-.52Zm-38.44-385a19.83,19.83,0,0,0-11.61-4.73C1312.28,310.93,1315.93,312,1320,311.83Zm.21,35.39c-.13-.5-.27-1-.41-1.48-3.75.67-7.35,1.7-10.2,4.38l.49,1.14Zm-16.57,4.23.63-1.84c-3.56-1.26-6.7-3.71-11.15-2.55Zm20.63-37c-.64,5.62,1,9.61,5.37,12.82Zm-.33,28.19c3.34-4.41,4.34-7.32,3.61-10.53C1324.51,336.79,1323.74,339,1323.92,342.62Zm-37.87-10.92c-.26,5.24,1.1,8.28,4.5,10.29Zm44.88,365.83v.28h18.3v-.28Zm-578.19.13v.17h18.65v-.17Zm-21.14-1.4v.62h11.08v-.62H731.6ZM809,534.32v-.53l-7.32-.42,0,1ZM1196.44,656l-.55,0h7.28v0ZM759.56,1491.94c.11-.62.23-1.24.34-1.86a27.4,27.4,0,0,0-3.13-.2c-.11,0-.21.92-.31,1.41Zm587-1.56c-1.53-.44-2.31-.89-3-.8-.48.06-.88.86-1.31,1.34a6.89,6.89,0,0,0,2.13,1C1344.79,1492,1345.33,1491.28,1346.54,1490.38ZM906.93,656.11V656h-8.25v.1Zm374.32-1.19h0ZM725.31,695.6l.11-.06a3.74,3.74,0,0,0-.89-.41,33,33,0,0,0-3.28-.42c-.17,0-.37.46-.69.89Zm95.13-40.75-.18.08h4.58v-.08Zm27.73,1068.78v-.2h-5.62v.2Zm406-.25v.2h5.06v-.2Z"/></svg>