<?xml version="1.0" encoding="UTF-8"?>
<svg id="Layer_2" data-name="Layer 2" xmlns="http://www.w3.org/2000/svg" viewBox="0 0 44.77 43.25">
  <g id="Layer_1-2" data-name="Layer 1">
    <g>
      <path d="M6.11,19.4h1.61c.16,0,.29-.13.29-.29v-1.27c0-1.12.44-2.19,1.23-2.97l6.47-6.47c.74-.74,1.72-1.15,2.77-1.15h1.02l-1.21,1.21c-.11.11-.11.3,0,.41l.83.83c.11.11.3.11.41,0l3.34-3.34c.11-.11.11-.3,0-.41l-3.34-3.34c-.11-.11-.3-.11-.41,0l-.83.83c-.11.11-.11.3,0,.41l.72.72c.18.18.05.5-.21.5h-.38c-1.58,0-3.09.63-4.21,1.74l-6.65,6.65c-1.12,1.12-1.74,2.63-1.74,4.21v1.45c0,.16.13.29.29.29Z"/>
      <path d="M25.09,7.25h1.2c1.04,0,2.03.41,2.77,1.15l6.47,6.47c.79.79,1.23,1.86,1.23,2.98h0c0,.26-.32.39-.5.21l-.71-.71c-.11-.11-.3-.11-.41,0l-.83.83c-.11.11-.11.3,0,.41l3.34,3.34c.11.11.3.11.41,0l3.34-3.34c.11-.11.11-.3,0-.41l-.83-.83c-.11-.11-.3-.11-.41,0l-.71.71c-.18.18-.5.05-.5-.21v-.19c0-1.58-.63-3.09-1.74-4.21l-6.73-6.74c-1.07-1.07-2.49-1.66-4.01-1.66h-1.38c-.16,0-.29.13-.29.29v1.61c0,.16.13.29.29.29Z"/>
      <path d="M4.19,25.9c.11.11.3.11.41,0l.72-.72c.18-.18.5-.05.5.21v.2c0,1.58.63,3.1,1.75,4.22l6.73,6.73c1.07,1.07,2.5,1.66,4,1.66h1.76c.16,0,.29-.13.29-.29v-1.61c0-.16-.13-.29-.29-.29h-1.57c-1.03,0-2.04-.42-2.77-1.15l-6.48-6.48c-.79-.79-1.23-1.86-1.23-2.97,0-.26.32-.39.5-.21l.7.7c.11.11.3.11.41,0l.83-.83c.11-.11.11-.3,0-.41l-3.34-3.34c-.11-.11-.3-.11-.41,0l-3.34,3.34c-.11.11-.11.3,0,.41l.83.83Z"/>
      <path d="M38.66,23.84h-1.61c-.16,0-.29.13-.29.29v1.26c0,1.12-.44,2.19-1.23,2.98l-6.47,6.48c-.74.74-1.73,1.15-2.77,1.15h-.64l1.21-1.21c.11-.11.11-.3,0-.41l-.83-.83c-.11-.11-.3-.11-.41,0l-3.34,3.34c-.11.11-.11.3,0,.41l3.34,3.34c.11.11.3.11.41,0l.83-.83c.11-.11.11-.3,0-.41l-1.21-1.21h.83c1.49,0,2.95-.6,4.01-1.66l6.81-6.82c1.07-1.07,1.66-2.49,1.66-4.01v-1.57c0-.16-.13-.29-.29-.29Z"/>
      <path d="M0,0v43.25h44.77V0H0ZM43.77,42.25H1V1h42.77v41.25Z"/>
    </g>
  </g>
</svg>