<?xml version="1.0" encoding="UTF-8"?>
<svg id="Layer_2" data-name="Layer 2" xmlns="http://www.w3.org/2000/svg" viewBox="0 0 44.52 44.53">
  <g id="Layer_1-2" data-name="Layer 1">
    <g>
      <polygon points="15.42 17.3 18.99 13.74 18.99 24.89 25.49 24.89 25.49 13.75 29.16 17.42 34.4 12.17 27.49 5.25 22.24 0 16.99 5.25 16.99 5.25 10.17 12.06 15.42 17.3"/>
      <polygon points="35.65 37.11 44.52 28.24 39.93 23.64 31.06 32.51 31.06 27.33 23.64 27.33 23.63 37.11 23.63 44.53 31.06 44.53 40.7 44.53 40.69 37.12 35.65 37.11"/>
      <polygon points="13.43 32.42 4.59 23.59 0 28.18 8.83 37.01 3.65 37.01 3.65 44.43 13.43 44.44 20.85 44.44 20.85 37.01 20.85 27.38 13.44 27.38 13.43 32.42"/>
    </g>
  </g>
</svg>