<?xml version="1.0" encoding="UTF-8"?>
<svg id="Layer_2" data-name="Layer 2" xmlns="http://www.w3.org/2000/svg" viewBox="0 0 52.31 29.15">
  <g id="Layer_1-2" data-name="Layer 1">
    <g>
      <polygon points="42.59 3.93 28.11 3.93 41.11 25.72 44.9 25.72 40.52 12.51 48.51 13.05 48.51 9.36 40.46 5.6 42.59 3.93"/>
      <polygon points="11.86 5.6 3.81 9.36 3.81 13.05 11.8 12.51 7.41 25.72 11.21 25.72 24.21 3.93 9.72 3.93 11.86 5.6"/>
      <polygon points="48.51 1.9 48.56 1.87 48.51 1.87 48.51 1.9"/>
      <polygon points="3.81 1.87 3.76 1.87 3.81 1.9 3.81 1.87"/>
      <path d="M48.51,0H0v29.15h52.31V0h-3.8ZM50.94,10.5v17.28H1.37V1.37h49.57v9.13Z"/>
    </g>
  </g>
</svg>