<?xml version="1.0" encoding="UTF-8"?>
<svg id="Layer_2" data-name="Layer 2" xmlns="http://www.w3.org/2000/svg" viewBox="0 0 42.09 59.65">
  <g id="Layer_1-2" data-name="Layer 1">
    <g>
      <polygon points="35.89 31.13 36.72 28.33 34.38 31.18 42.09 17.66 25.57 40.51 32.43 33.83 33.93 33.21 22.53 59.65 35.43 32.38 41.16 30.22 35.89 31.13"/>
      <polygon points="39.04 19.14 32.18 25.82 30.68 26.44 42.08 0 29.19 27.27 23.45 29.43 28.73 28.52 27.89 31.32 30.24 28.48 22.53 42 39.04 19.14"/>
      <polygon points="8.16 33.21 9.65 33.83 16.52 40.51 0 17.66 7.71 31.18 5.36 28.33 6.2 31.13 .92 30.22 6.66 32.38 19.56 59.65 8.16 33.21"/>
      <polygon points="14.2 31.32 13.36 28.52 18.64 29.43 12.9 27.27 0 0 11.4 26.44 9.9 25.82 3.04 19.14 19.56 42 11.85 28.48 14.2 31.32"/>
    </g>
  </g>
</svg>