<?xml version="1.0" encoding="UTF-8"?>
<svg id="Layer_2" data-name="Layer 2" xmlns="http://www.w3.org/2000/svg" viewBox="0 0 40.17 48.97">
  <g id="Layer_1-2" data-name="Layer 1">
    <g>
      <path d="M8.5,29.34c-.03.13.07.16.14.24.31.38.66.75.98,1.12,5.19,5.92,10.48,11.76,15.65,17.7.11.15.09.33,0,.48-.1.07-.2.09-.32.06-.09-.03-1.03-.91-1.19-1.06-6.38-5.98-12.52-12.21-18.92-18.17L.11,24.38c-.23-.32-.1-.68.33-.6l10.28,2.16,25.87,15.57c.16.54-.32.56-.69.35l-27.4-12.51Z"/>
      <path d="M40.07,25.12c-.06.06-.18.08-.27.07l-10.34-2.16L3.57,7.47c-.11-.27-.04-.51.27-.54l27.89,12.69L14.85.47c-.15-.68.45-.53.78-.17,8.04,8.06,16.79,15.44,24.25,24.05.15.2.44.51.19.76Z"/>
      <path d="M34.7,24.88c.2.18.11.89.08,1.17-.26,2.89-1.65,6.02-3.56,8.19-.39.44-1.34,1.43-1.8,1.73-.1.06-.18.11-.3.11-.27,0-1.66-.82-1.57-1.16.05-.19.98-.85,1.2-1.05,2.04-1.9,3.52-4.57,3.93-7.35.09-.59.08-1.2.18-1.79.08-.1.19-.18.33-.18s1.47.28,1.53.34Z"/>
      <path d="M12.82,14.38c-2.81,1.98-4.63,5.09-5.13,8.49-.05.35,0,1.42-.28,1.56-.05.03-.11.03-.17.04-.15,0-1.39-.27-1.5-.34-.23-.15-.18-.46-.17-.72.16-3.43,2.18-7.35,4.72-9.61.31-.28.83-.83,1.24-.69.12.04,1.15.65,1.24.73.16.15.19.38.05.55Z"/>
      <path d="M16.56,36.69c.23-.04.81.19,1.09.24,1.16.2,2.4.3,3.58.22.53-.03,1.55-.34,1.96-.32.44.03,1.47.76,1.97.87.44.42.11.6-.31.76-1.67.6-3.89.84-5.66.73-.28-.02-.95-.08-1.19-.17-.2-.08-1.23-1.25-1.42-1.5-.16-.21-.38-.42-.24-.71.03-.05.16-.11.22-.12Z"/>
      <path d="M23.97,12.41c-.17.17-1.23-.18-1.53-.24-1.04-.17-2.32-.23-3.38-.15-.42.03-1.45.31-1.75.26-.14-.02-1.77-.78-1.91-.88-.45-.33-.19-.56.21-.72,1.57-.62,4.01-.8,5.69-.7.31.02.95.07,1.19.24.21.15,1.15,1.24,1.35,1.5.14.18.34.48.12.69Z"/>
    </g>
  </g>
</svg>