<?xml version="1.0" encoding="UTF-8"?>
<svg id="Layer_2" data-name="Layer 2" xmlns="http://www.w3.org/2000/svg" viewBox="0 0 39.56 37.45">
  <g id="Layer_1-2" data-name="Layer 1">
    <path d="M12.83,0c.12,0,.28.08.36.17,1.49,2.14,2.96,4.32,4.62,6.34.4.48,1.27,1.62,1.72,1.95s.66.13,1.03-.19c.59-.52,1.33-1.42,1.86-2.03,1.59-1.85,3.03-3.84,4.48-5.81.17-.19.44-.22.66-.1l8.32,5.81c.19.17.41.31.34.6-1.24,2.04-2.71,3.95-3.99,5.97-.16.22.02.34.24.35l5.51-.45c.27-.01.42.15.49.4l1.09,9.97c.02.42.04.73-.43.85-3.46.55-7.22.75-10.58,1.77-1.51.46-2.05.7-2.42,2.31-.66,2.9-.47,6.13-.7,9.09-.06.38-.49.4-.8.42-1.52.1-3.1-.06-4.62-.06-1.67,0-3.4.17-5.07.06-.28-.02-.72-.05-.79-.38-.03-.15-.06-.54-.07-.71-.15-2.6-.06-5.24-.52-7.83-.34-1.94-.65-2.34-2.54-2.91-3.36-1.01-7.12-1.22-10.58-1.77-.47-.12-.45-.43-.43-.85.07-1.55.39-3.28.56-4.84s.24-3.01.45-4.5c.09-.64.02-1.06.81-1.03,1.77.07,3.61.38,5.39.45.16,0,.6.05.63-.15.02-.13-1.14-1.92-1.3-2.18-.9-1.43-1.84-2.83-2.75-4.26-.25-.37-.02-.57.26-.8,2.57-1.62,5.04-3.4,7.61-5.02C11.92.48,12.58,0,12.83,0ZM19.49,11.11c-.09.11-.2.55-.33.76-.84,1.34-2.31.82-3.38.11-1.64-1.09-2.78-2.74-4.15-4.11,0,.19.13.37.21.54.76,1.43,1.74,2.77,2.49,4.24.7,1.39,1.97,3.95.56,5.23s-5.45.88-7.34.83c-.32,0-.81-.04-1.12,0-.08,0-.16.03-.08.11,3.99.83,9.52,1.09,11.71,5.12,1.01,1.86,1.28,4.33,1.47,6.43.08.86.02,1.75.25,2.59.15,0,.23-2.35.25-2.59.52-5.65,1.39-8.69,7.23-10.35,1.89-.54,3.84-.67,5.69-1.15.07-.02.23-.01.2-.13-2.11-.05-4.25.26-6.36-.04-2.89-.41-3.16-1.94-2.1-4.42.94-2.21,2.49-4.1,3.63-6.19-.1-.02-.13.06-.19.11-.75.63-1.43,1.58-2.17,2.28-1.29,1.23-4.35,3.74-5.66,1.2-.13-.25-.13-.72-.52-.71-.08,0-.24.07-.29.13Z"/>
  </g>
</svg>