<?xml version="1.0" encoding="UTF-8"?>
<svg id="Layer_2" data-name="Layer 2" xmlns="http://www.w3.org/2000/svg" viewBox="0 0 41.35 42.9">
  <g id="Layer_1-2" data-name="Layer 1">
    <g>
      <path d="M41.35,20.6h-13.65c-.39,0-.77.02-1.14.08.17-.9.6-1.73,1.26-2.39l9.81-9.81-3.2-3.2-9.8,9.81c-2.07,2.07-2.96,4.88-2.65,7.56-1.96,1.61-3.21,4.03-3.21,6.74v13.51h4.17v-13.51c0-.91.26-1.76.72-2.48.27.35.55.68.87,1l9.7,9.7,3.24-3.25-9.65-9.65h13.53v-4.11ZM34.23,37.02l-9.41-9.41c-.33-.33-.64-.69-.89-1.07-.91-1.25-1.43-2.71-1.55-4.2-.22-2.48.63-5.05,2.54-6.96l9.51-9.5,2.61,2.6-9.51,9.51c-.76.76-1.25,1.72-1.4,2.75-.05.24-.07.49-.07.74-.01,1.22.41,2.35,1.21,3.25.07.08.14.16.21.23l9.4,9.4-2.65,2.66Z"/>
      <path d="M19.37,20.25c1.96-1.61,3.21-4.04,3.21-6.74V0h-4.17v13.51c0,.91-.26,1.76-.72,2.48-.26-.35-.54-.68-.86-1L7.13,5.28l-3.25,3.25,9.66,9.66H0v4.1h13.66c.38,0,.76-.02,1.13-.07-.17.87-.59,1.71-1.26,2.38l-9.8,9.81,3.19,3.2,9.81-9.81c2.07-2.07,2.95-4.87,2.64-7.55ZM6.92,37.02l-2.6-2.61,9.51-9.51c.77-.77,1.24-1.74,1.4-2.75.22-1.4-.16-2.87-1.13-3.98-.07-.08-.14-.16-.22-.24L4.47,8.53l2.66-2.65,9.4,9.4c.34.34.64.7.9,1.08.9,1.26,1.42,2.71,1.54,4.19.22,2.48-.63,5.05-2.54,6.96l-9.51,9.51Z"/>
    </g>
  </g>
</svg>