<?xml version="1.0" encoding="UTF-8"?>
<svg id="Layer_2" data-name="Layer 2" xmlns="http://www.w3.org/2000/svg" viewBox="0 0 42.4 42.1">
  <g id="Layer_1-2" data-name="Layer 1">
    <path d="M12.44,29.34l-1.86,11.25,1.17.15c.38.05.76.07,1.14.07,4.26,0,8-2.98,8.94-7.17l7.63,8.46.84-.83c3.4-3.32,3.66-8.67.73-12.3l11.38-.69-.1-.99c-.22-2.18-1.13-4.25-2.69-5.78-1.77-1.74-4.07-2.66-6.48-2.64l6.56-9.32-.99-.64c-4-2.58-9.26-1.64-12.15,2.02L23.34,0l-.94.32c-2.07.7-3.88,2.04-5.03,3.9-1.31,2.11-1.7,4.58-1.15,6.93L5.68,6.82l-.34.93c-.74,2.05-.83,4.31-.09,6.36.84,2.34,2.52,4.18,4.7,5.21L0,24.88l.62,1.01c1.73,2.82,4.74,4.37,7.83,4.37,1.35,0,2.72-.3,4-.93ZM13.22,38.52l1.77-10.69,5.75-3.52-1.02,8.18c-.42,3.37-3.22,5.88-6.5,6.04ZM29.49,38.75l-7.26-8.05.83-6.69,5.76,5.89c2.38,2.43,2.59,6.18.67,8.85ZM37.53,22.7c1.12.91,1.9,2.12,2.28,3.48l-10.82.65-4.71-4.82,8.2-.83c1.83-.19,3.63.35,5.05,1.52ZM27.93,12.88c1.84-2.86,5.45-3.9,8.48-2.62l-6.24,8.87-6.71.68,4.46-6.93ZM18.7,6.6c.61-1.57,1.72-2.83,3.15-3.6l3.04,10.4-3.65,5.67-2.58-7.65c-.53-1.57-.56-3.28.04-4.82ZM8.25,15.03c-1.08-1.56-1.47-3.4-1.15-5.17l10.03,4.11,2.15,6.39-7.61-2.76c-1.37-.5-2.6-1.36-3.43-2.56ZM3.26,25.66l9.46-5.28,6.34,2.3-7.03,4.3c-2.9,1.77-6.6,1.15-8.77-1.32Z"/>
  </g>
</svg>