<?xml version="1.0" encoding="UTF-8"?>
<svg id="Layer_2" data-name="Layer 2" xmlns="http://www.w3.org/2000/svg" viewBox="0 0 43.92 42.55">
  <g id="Layer_1-2" data-name="Layer 1">
    <g>
      <path d="M27.65,33.2c.43.4.58,1.22,1.08,1.54.68.45,1.41.12,2.38.91,2.55,2.08-1.48,2.03-2.74,1.04-.57-.45-.67-1.34-1.37-1.68-.44-.21-.84-.09-1.26-.2-1.24-.33-1.63-.48-2.97-.69-.76-.12-3-1.68-3.61-2.24-.31-.29-.56-.87-.8-1.03-.42-.27-1.34-.28-1.88-.56-.66-.34-.97-1.2-1.88-1.17-.34.01-.6.24-.95.22-.64-.03-1.61-.71-2.28-.89-.59-.16-1.34-.19-1.96-.3-.14,1,.8,1.54,1.27,2.2,1.04,1.46,1.81,2.79,3.06,4.14.67.73,1.59,1,2.21,1.63.28.28.48.82.75,1.06s1.17.56,1.31.85c.23.48.08,1.56-.61,1.57-.84.02-1.32-1.01-1.9-1.38-.41-.27-.95-.34-1.4-.68-.54-.4-.85-1.11-1.41-1.52-1.18-.85-1.02-.74-2-1.78-1.58-1.68-3.13-3.26-4.88-4.75-1.18-1-1.15-.86-2.13-2.14-.48-.62-1.23-.87-1.64-1.53-.19-.32-.26-.68-.46-1.01-.45-.72-1.52-1.8-1.57-2.59-.07-1.19.96-1.33,1.9-1.04,1.49.46,1.55,2.21,2.07,3.42.31.73,2.01,3.68,2.81,3.66.13,0,.25-.07.29-.2.18-.64-2.06-4.3-2.43-5.12.22-1.56,1.39-1.24,2.43-.59.38.24.94.88,1.22.97.67.21,1.65-.06,2.36.08,2.02.41,4.35,2.79,6.15,3.85.6.36,1.36.52,1.93.87.49.3.79.81,1.27,1.05.68.34,2.5.46,2.33,1.69-.09.68-1.48.35-.98,1.1.4.13.84.25,1.27.18.5-.08.73-.65,1.2-.58,1.02.67,2.99.82,3.83,1.61ZM12.81,28.04c.05-.25-.06-.33-.18-.49-.5-.68-1.87-2.16-2.5-2.74-1.12-1.03-2.32-1.1-1.08.59.88,1.21,2.34,2.2,3.76,2.64Z"/>
      <path d="M30.82,6.74c.55.52,1.67,1.63,2.17,2.16.52.56.68,1.67,1.37,2.05.31.17,1.04.21,1.18.53.28.65-.14.81-.17,1.25-.03.48.36.99.38,1.47.06,1.23-.34,3.37.03,4.48.27.8.84.77,1.21.06.39-.75.23-2.44.06-3.28-.19-.97-.97-1.83-.55-2.75,1.68-.54,2.06,1.15,2.72,2.16.25.37.83.74.98,1.22.16.52-.19,1.04-.28,1.56-.09.57-.36,2.53.61,2.45,1.01-.3.2-1.96.89-2.41.6-.39,1.23.09,1.54.63.15.26.83,1.78.89,2.03.44,1.61-1.47,1.54-2.51,1.04-.39-.19-.84-.69-1.18-.77-.86-.21-1.94-.06-2.74-.17-.47-.06-.96-.35-1.41-.43-.92-.17-2.68-.1-3.26-1.01-.48-.76.07-.92.17-1.53.14-.85-.24-1.83-.92-2.35-1.02.17-.3,1.11-.28,1.75.03.91-.28,1.2-1.17,1.17-2.06-.09-1.62-2.18-2.31-3.55-.12-.25-1.29-1.96-1.41-2.01-2.59.26,1.14,2.25.85,3.16-1.17.76-1.96-.39-2.76-.88-1.1-.68-2.74-1.51-3.64-2.45-.53-.56-.52-.79-.18-1.47-1.58-.74-2.73.72-4.15-.67-.26-.25-.44-.7-.7-.92-.66-.57-1.5-.54-2.22-.92-.88-.48-1.47-1.41-2.21-1.94-.56-.4-2.33-.79-2.31-1.6,0-.19.28-.47.45-.52,1.24-.37,2.06.83,3.04,1.3s2.25.77,3.28,1.23c.5.36.24,1.23.88,1.56.71.37,1.95-.31,2.97-.04.34.09,2.38,1.17,2.72,1.43,1.58,1.18,1.02,1.23,3.16,1.96,1.22.41,1.05.32,2.35.46s2.12,1.21,2.95,2.05c.86-.01,2.34,1.01,3.03.99.19,0,.36-.1.49-.23.27-.44-.92-1.24-1.23-1.58-1.06-1.21-2.22-3.03-3.29-4.15-.28-.3-.76-.5-1.04-.79-.4-.41-.57-1.01-.91-1.41-.57-.67-2.21-1.12-2.02-2.25.11-.65.85-.61,1.35-.5.9.19,1.13,1,1.76,1.53.4.34.98.54,1.36.9Z"/>
      <path d="M37.49,21.86c.81-.74,1.6,0,1.56,1-.04.85-.59,1.15-.71,1.73-.14.68.05,1.49-.08,2.23-.08.46-.93,2.59-1.16,3.11-.18.41-1.88,3.11-2.14,3.35-.31.29-1.65,1.4-1.97,1.56-.55.28-1.3.38-1.38-.42-.1-1.07,2.3-2.96,2.98-3.84.2-.26,1.79-3.17,1.84-3.4.17-.68,0-1.6.09-2.35.07-.64.54-2.58.98-2.98Z"/>
      <path d="M11.07,8.43c1.04-.24,1.56.43,1.16,1.41-.2.5-.91.72-1.25,1.07-.31.32-.5.89-.85,1.22-.48.47-1.35.62-1.69,1.11-.32.46-.44,1.44-.66,2.03-.2.55-.58,1.15-.74,1.7-.24.81-.34,3.48-1.06,3.82-.79.36-1.28-.84-1.34-1.46-.04-.45.07-1.34.15-1.8.16-.85,1.46-3.4,1.99-4.11.32-.43.83-.6,1.13-1.06.37-.56.47-1.24.95-1.86.34-.45,1.73-1.95,2.21-2.06Z"/>
      <path d="M19.24,36.6c.88-.18,1.84.34,2.78.35,1.35,0,3.33-.89,4.57-.06.56.37.67.76.19,1.28-.65.71-1.37.2-2.06.24-.5.03-1.13.49-1.63.58-1.67.28-3.21-.51-4.73-1.07-.36-.59.34-1.2.88-1.32Z"/>
      <path d="M19.37,4.16c.93-.13,1.77.06,2.65.1.79.04,3.31-.33,3.1,1.13-.16,1.07-2.65.85-3.46.82-.43-.02-1.04-.24-1.45-.23-.49.02-1.07.4-1.61.46-1.02.12-2.4-.15-1.51-1.39.32-.44,1.72-.8,2.29-.89Z"/>
      <path d="M20.48,42.41c-.07.11-.59.15-.76.13-.89-.09-1.75-1.04-1.27-1.92.86-.63,2.52.98,2.03,1.78Z"/>
      <path d="M23.09.14c.47-.53,1.69.57,1.38,1.19-.33.47-1.92-.57-1.38-1.19Z"/>
    </g>
  </g>
</svg>