<?xml version="1.0" encoding="UTF-8"?>
<svg id="Layer_2" data-name="Layer 2" xmlns="http://www.w3.org/2000/svg" viewBox="0 0 44.52 42.3">
  <g id="Layer_1-2" data-name="Layer 1">
    <g>
      <path d="M29.43,6.05c.71.69,2.53-.27,2.97-.01.22.32.14.84.21,1.22.09.49.3,1.59.82,1.77.7.23,2.14,0,2.57-.68.36-.57.67-2.17.96-2.92.67-1.72,1.34-1.72,1.68.16.1.53.37,2.51-.09,2.8-.26.17-.91-.03-1.32.04-1.19.19-1.08,1.07-1.55,1.92-.13.23-.36.57-.53.76-.75.85-1.82.88-1.35,2.32.2.6.8,1.05-.09,1.48-.65.32-2.68.72-3.38.63-.36-.05-.51-.26-.43-.63.11-.5,1.61-1.54,2.08-1.87.38-.28,1.37-.75,1.52-1.13.23-.56.02-1.75-.24-2.29-.61-1.24-2.81.04-3.28-.33-.36-.9-.02-2.73-1.36-2.87-.73-.07-1.9.12-2.2.87-.41,1.03-.63,2.64-1.25,3.58-.74,1.12-1.12.09-1.26-.69-.13-.67-.38-2.41-.19-3.01.17-.55,1.03-.07,1.43-.07,1.31-.02,1.2-.97,1.64-1.83.21-.41.61-.86.96-1.15.64-.54,1.24-.49,1.1-1.52-.11-.82-1.07-1.47-.03-1.97.59-.29,3.01-.76,3.59-.57.37.12.29.54.12.81-.28.44-1.53,1.34-2.01,1.67-.35.24-1.4.75-1.55,1.04-.25.48.07,2.11.46,2.49Z"/>
      <path d="M38.41,31.93c-.11-.11-.25-.91-.36-1.17-.52-1.12-1.4-.76-2.39-.95-.26-.05-.64-.17-.89-.27-.82-.35-1.17-1.18-2.12-.79-.53.22-1.07,1.08-1.54.91s-1.55-2.07-1.76-2.59c-.17-.41-.51-1.3.23-1.31.55,0,1.83.94,2.3,1.3.36.27,1.31,1.19,1.65,1.22.6.05,2.07-.72,2.38-1.24.18-.3-.11-1.06-.24-1.38-.17-.41-.74-1.11-.67-1.5.04-.28,1.01-.59,1.3-.75.4-.23,1.1-.67,1.06-1.2-.03-.45-.52-1.49-.85-1.8-.67-.64-1.87-.08-2.69-.23-.46-.13-2.3.05-2.41-.51-.09-.47.16-.59.48-.81.51-.36,2.32-1.21,2.92-1.3.96-.14.59.7.86,1.4.44,1.14,1.24.79,2.17.89.42.05,1.07.32,1.42.55.86.55.83,1.16,1.97.45.76-.47.97-1.41,1.85-.32.35.43,1.38,2.27,1.45,2.77.06.38-.02.71-.48.68-.67-.04-2.47-1.45-3.05-1.92-.25-.21-.54-.67-.87-.7-.45-.04-1.9.76-2.16,1.15-.37.55.14,1.37.4,1.9.16.32.72.85.31,1.19-.26.21-1.01.45-1.38.66-.2.12-.83.53-.92.71-.33.64.61,2.45,1.33,2.6,1.16.24,3.17-.28,4.26.17.32.13.41.34.31.68-.09.29-1.15.84-1.46.99-.45.22-1.99.93-2.39.54Z"/>
      <path d="M25.41,42.21c-.4-.4.47-2.85.68-3.41.11-.3.55-1.06.53-1.3-.05-.49-1.41-1.72-1.89-1.8-.35-.06-.82.32-1.07.53-.3.25-1.01,1.21-1.3,1.23s-.8-.76-1.01-.96c-.24-.23-1.04-.88-1.33-.92-.56-.08-2.13,1.42-1.98,2.11.29,1.11.86,2.23,1.07,3.36.47,2.53-1.59.5-2.26-.26-.35-.39-1.05-1.15-.81-1.7.2-.47,1.6-.64,1.44-1.86-.11-.87-.41-1.31-.33-2.34s.88-1.59-.13-2.45c-.21-.18-1-.54-1.06-.65-.16-.29.06-.7.21-.95.26-.43,1.75-2.11,2.16-2.27,1.38-.55.63,1.64.46,2.23-.19.65-.67,1.57-.79,2.14-.16.77.9,1.74,1.51,2.1.33.19.45.24.79.07.79-.39,1.1-1.04,1.68-1.52s.97.38,1.36.75c.24.23.88.75,1.2.78.64.06,2.02-1.28,1.98-1.93-.02-.31-.55-1.47-.68-1.9-.22-.71-.57-1.73-.45-2.46.02-.11.06-.26.18-.3.15-.04.29-.02.43.02.45.12,2.39,2.19,2.6,2.65.42.91-.69.81-1.24,1.37-.73.74-.23,1.15-.08,1.93.11.57.11,1.16-.01,1.72-.07.32-.43.96-.45,1.19-.02.41.64.94.96,1.15.42.27.93.24.8.88-.11.51-2.16,2.72-2.62,2.83-.14.03-.45.03-.55-.07Z"/>
      <path d="M12.23.03c.62-.14,2.6.24,3.22.5,1.24.52.24,1.15.24,2.11,0,.79.45.85.92,1.29s.89.86,1.17,1.42c.4.82.24,1.62,1.39,1.74.87.1,1.55-.55,1.66.72.05.58-.17,2.75-.45,3.23-.16.27-.46.38-.75.21-.44-.25-.97-2-1.14-2.54-.14-.43-.27-1.38-.49-1.68-.39-.52-2.25-.81-2.78-.47-.33.21-.57,1.2-.65,1.6-.1.56.13,1.39-.65,1.31s-2.05-.7-2.63.11c-.4.56-.64,2.03-.1,2.55.39.38,1.41.92,1.93,1.34.32.25,1.33,1.03,1.42,1.37.23.86-.75.69-1.3.62s-2.68-.43-2.97-.77.41-1.13.47-1.64c.13-1.1-.52-1.1-1.15-1.69-.31-.29-.68-.8-.85-1.19-.4-.92-.16-1.71-1.5-1.77-.51-.02-1.33.44-1.5-.2-.18-.7.03-2.4.21-3.14.11-.46.32-1.2.95-.81.4.25.99,2.2,1.15,2.73.13.43.19,1.18.4,1.5.36.56,1.96.72,2.52.5s.72-1.37.8-1.92c.04-.26-.07-.8.22-.94.24-.12,1.55.28,1.99.29.71.02,1.06-.04,1.33-.72s.48-1.78-.1-2.35c-.8-.77-2.49-1.45-3.17-2.42-.24-.33-.3-.8.19-.91Z"/>
      <path d="M9.51,17.59c.55-.06,2.26.7,2.78,1,.4.22,1.07.61.81,1.17-.09.2-.74.32-.95.34-1.14.1-2.43-.06-3.58-.04-.66.14-1.45,1.72-1.48,2.34-.02.48.92,1.04,1.3,1.25.26.14,1.17.41,1.21.71.08.58-1.34,1.89-.88,2.78.25.48,1.59,1.17,2.13,1.14.42-.03.78-.52,1.09-.75.54-.41,2.04-1.52,2.62-1.67,1.4-.37.53,1.24.24,1.81-.22.44-1.02,1.96-1.42,2.13-.47.2-.64-.33-.9-.56-.49-.44-1.08-.75-1.69-.4-.8.47-1.14.91-2.19,1.01-1.11.1-1.67-.41-2.16.91-.36.99.13,1.61-1.33,1.22-.49-.13-2.65-1.11-2.87-1.49-.18-.31-.12-.6.2-.74.59-.27,2.64-.2,3.37-.17.51.02.96.31,1.4-.1.34-.31.99-1.66.95-2.11-.05-.54-1.03-1.03-1.47-1.26-.54-.27-1.18-.2-.83-.99.26-.58,1.15-1.75.91-2.42-.17-.47-1.67-1.25-2.17-1.23s-1.93,1.26-2.47,1.62c-.47.31-2.37,1.65-2.1.15.1-.58,1.28-2.79,1.78-3.05.63-.33,1.01.44,1.55.68.99.45,1.39-.3,2.21-.67.57-.26,1.13-.38,1.75-.43.56-.05.88.21,1.33-.37.42-.55.29-1.19.51-1.6.05-.1.25-.18.36-.19Z"/>
    </g>
  </g>
</svg>