<?xml version="1.0" encoding="UTF-8"?>
<svg id="Layer_2" data-name="Layer 2" xmlns="http://www.w3.org/2000/svg" viewBox="0 0 61.21 58.38">
  <defs>
    <style>
      .cls-1 {
        fill-rule: evenodd;
      }
    </style>
  </defs>
  <g id="Layer_1-2" data-name="Layer 1">
    <path class="cls-1" d="M59.59,47.4c-.23-.16-.32-.52-.49-.74-.44-.56-1.56-1.21-2.46-.87-.03,0-.05-.02-.08-.03.06-.53.5-.67.72-1.03.82-1.31,2.84-4.08,2.31-6.21-.23-.92-.97-1.63-1.8-1.95-.3-.12-.85-.05-1.1-.23-.48-.34-.61-.94-.9-1.49-.24-.47-.75-.87-.92-1.33-.03-.21-.05-.41-.08-.62-.15-.62-.29-1.25-.44-1.87-.09-.15-.19-.31-.28-.46v-.44c-.1-.25-.3-.35-.31-.72.48-.5.81-1.53.59-2.49-.03-.02-.07-.03-.1-.05-.06.2-.11.44-.33.49-.12-.19-.23-.41-.26-.69.02-.05.03-.1.05-.15.27-.16.4.05.64.13v-.05c.39-.6-.18-1.77-.08-2.33.16-.34.48-.58.64-.97.26-.66.21-1.46.38-2.23.21-.89.59-2.02.38-3.18-.1-.56-.49-.86-.56-1.36-.12-.85.34-2.06.46-2.82.1-.62-.12-1.16-.26-1.56-.56-1.6-1.06-1.73-2.87-1.41-.29-.12-1.35-1.28-1.36-1.64,1.03-1.1,2.24-1.52,2.74-3.21.3-1.02.09-2.06-.8-2.33-1.46-.44-2.53.64-3.49,1.05-.87.37-1.72.68-2.46,1.18-.65.44-1.3,1.27-2.46.92-.68-.2-1.22-.56-1.82-.82-2.14-.93-3.92-2.05-5.82-3.23-.15-.13-.31-.26-.46-.38-.67-.42-1.38-.66-2.21-.95-.24-.08-.6-.27-.95-.21-.21.09-.43.19-.64.28-.23-.24-.26-.69-.46-.95C31.88-.07,30.9,0,29.97,0c-.21.04-.43.09-.64.13-.49.2-.6.68-.77,1.21-.06.02-.12.03-.18.05-.91-.61-2.79.29-3.56.74-2.03,1.19-3.79,2.59-6.05,3.59-.81.36-1.54.85-2.54,1.05-.9.18-1.53-.58-2.05-.92-.78-.52-1.64-.84-2.56-1.23-.6-.25-1.07-.69-1.74-.92-.55-.19-1.31-.33-1.9-.08-.72.3-.85,1.25-.62,2.15.27,1.04,1,1.98,1.82,2.49.23.14,1.04.6.92,1-.03.11-1.25,1.46-1.33,1.49-.32-.08-.63-.15-.95-.23-.64-.12-1.3.31-1.54.64-.3.42-.87,1.89-.69,2.64.12.5.64,2.13.51,2.69-.1.45-.46.72-.56,1.21-.26,1.19.16,2.4.36,3.36.15.72.09,1.5.33,2.13.17.43.5.7.67,1.08.12.3-.08.82-.13,1.13,0,.38.02.75.03,1.13.02.02.03.03.05.05.15-.04.29-.09.44-.13.22.13.15.36.08.59-.05.03-.1.05-.15.08-.12-.07-.2-.16-.36-.13-.29,1.17.32,1.88.59,2.62-.14.26-.27.53-.41.8-.24.6-.35,1.36-.51,1.95-.08.42-.15.84-.23,1.26-.18.39-.61.69-.82,1.1-.16.38-.32.75-.49,1.13-.49.66-.86.45-1.64.77-.84.35-2.03,1.51-1.85,2.85.17,1.21.65,2.44,1.21,3.33.21.26.41.51.62.77.27.42.42.91.72,1.33.16.23.39.33.54.62,0,.05-.02.1-.03.15-.92.09-1.77.32-2.33.9-.21.22-.33.8-.62.92-.53.23-2.02.6-1.46,1.49.29.46,1.25.42,1.82.23.32-.15.63-.29.95-.44.7-.22,1.37-.18,1.9-.54.39-.26.5-.74.82-1.08h.08c.17.19.34.38.51.56.38.37.75.74,1.13,1.1.26.38.51.75.77,1.13.68.89,1.58,1.53,2.46,2.23.44.41.87.82,1.31,1.23.75.5,2.26.89,3.26.28.38-.32.75-.65,1.13-.97h.77c.9,0,1.66.03,2.44.15.44-.03.89-.05,1.33-.08.48.12.6.4.92.64.41.24.82.48,1.23.72.32.29.63.58.95.87.31.22.63.43,1.05.54.3.06.6.12.9.18.55.35.95.99,1.51,1.33.36.22,1.09.16,1.36.33.29.19.35.65.67.85.24.15.64.13,1.03.13,1.45,0,1.52-.12,2.1-.97.43-.1.89-.09,1.23-.26.29-.15,1.01-.76,1.23-1,.1-.13.21-.26.31-.38.35-.07.7-.14,1.05-.21.44-.14.84-.43,1.18-.69.29-.26.58-.53.87-.8.37-.22.74-.44,1.1-.67.26-.19.48-.57.82-.67.26-.08,1,.21,1.54.13.79-.12,1.63-.14,2.51-.13h.69c.29.28.58.56.87.85.78.55,2.26.54,3.08.05.61-.36,1.02-.93,1.56-1.36.94-.74,1.95-1.48,2.64-2.46.54-.77,1.07-1.35,1.72-2,.19-.19.39-.61.69-.67.27.24.33.7.62.92.55.43,1.16.44,1.97.67.5.14.87.44,1.44.56.56.12,1.2.02,1.44-.33.6-.9-1.1-1.3-1.49-1.56ZM1.92,48.35c-.18.12-.34.19-.67.18-.04-.03-.09-.07-.13-.1,0-.04.02-.09.03-.13.15-.07.31-.14.46-.21.08,0,.15.02.23.03.09.05.08.04.1.15,0,.03-.02.05-.03.08ZM2.94,47.09h-.03c-.02-.05-.03-.1-.05-.15.14-.06.27-.12.41-.18.03.03.05.05.08.08-.1.13-.23.21-.41.26ZM3.76,47.73c-.08.02-.15.03-.23.05,0-.02-.02-.03-.03-.05.05-.04.1-.09.15-.13h.13s-.02.09-.03.13ZM54.36,35.3c.24.02.88,1.22.8,1.54-.08.12-.15.24-.23.36-.04,0-.09.02-.13.03-.41-.28-1.04-.8-1.08-1.41.21-.17.43-.34.64-.51ZM54.08,21.11c-.03.45.12,1.15-.26,1.26-.35-.25-.84-.15-1.21-.36-.06-.04-.04-.03-.08-.1-.09-.34.39-1.57.49-2.08.05-.26.01-.66.21-.77.39-.23.78.08,1.18-.33h.13c.17.53-.42,1.7-.46,2.39ZM54.59,16.58s-.07-.02-.1-.03c-.15-.07-.17-.17-.26-.31.04-.26.21-.39.33-.56.56.03.21.74.03.9ZM52.39,13.42s.09-.05.13-.08c.14-.03.31.09.46.13.48.11.9-.08,1.15-.28h.1c.28.46-.14,1.26-.23,1.74v.97c-.27.15-.54-.07-.92,0-.26.08-.53.15-.8.23-.13-.38.06-2.14.1-2.72ZM49.16,5.14s.07.02.1.03l.03.08c-.29.71-1.07,1.3-2.03,1.31,0,0-.02-.02-.03-.03.11-.48,1.49-1.11,1.92-1.38ZM46.95,7.91c.18-.19.38-.28.59-.44.14-.17.27-.34.41-.51.73-.3,1.45-.6,2.18-.9.4-.18.68-.48,1.03-.69.26-.1.51-.21.77-.31.09.02.19.03.28.05.47.67-.38,1.68-.9,2-.4.25-.94.31-1.31.56-.4-.07-.55-.39-.97-.46-.72-.12-1.22.7-1.1,1.44.08.22.15.44.23.67-.27.4-.78.94-1.33,1.03h-.03s-.02-.03-.03-.05c.06-.48.43-.75.51-1.28.07-.49-.29-.72-.33-1.1ZM42.13,7.42l.08-.1c.79.05,1.47.48,2.23.67.04.07.1.11.08.26-.07.21-.14.43-.21.64-.06.33.03.85-.13,1.1l-.1.1c-.56-.07-2.01-.56-2.23-.95-.08-.26.25-.53.31-.8.07-.31-.01-.63-.03-.92ZM39.18,5.5c.26.17.51.34.77.51.03.07.05.14.08.21-.27.35-.5.77-.77,1.15-1.1.26-1.88-.56-2.54-.95-.3-.15-.6-.29-.9-.44-.02-.02-.41-.79-.44-.85.17-.28.6-.16.87-.33.15-.18.31-.36.46-.54.36.03.58.33.85.49.5.3,1.09.43,1.62.74ZM37.31,3.32s-.05.07-.08.1c-.12-.01-2.09-1.27-2.13-1.38.79.22,1.85.6,2.21,1.28ZM29.97.7h1.26s.02.07.03.1c-.2.26-.89.21-1.23.1l-.08-.08s.02-.09.03-.13ZM25.95,2.06h.13c-.1.42-1.11.61-1.54.72.31-.39,1.01-.42,1.41-.72ZM23.82,3.32h.05c-.03.1-.03.1-.1.15h-.03c.03-.05.05-.1.08-.15ZM21.18,6.11c.26-.19.53-.38.8-.56.82-.5,1.73-.67,2.41-1.28.32.06.34.45.59.59.25.04.5.09.74.13l.08.08s-.43.9-.49.95c-.25.12-.5.24-.74.36-.52.32-1.04.65-1.56.97-.32.03-.65.05-.97.08-.18-.17-.2-.37-.33-.59-.18-.2-.36-.39-.54-.59,0-.04.02-.09.03-.13ZM18.79,7.37c.06,0,.12.02.18.03,0,0,.02.02.03.03.02.03.03.05.05.08,0,.28.02.56.03.85.07.32.31.47.33.82-.54.38-1.5.89-2.33.9-.02-.03-.36-1.97-.36-1.97.16-.26,1.7-.53,2.08-.72ZM11.95,5.16c.37.06,1.86,1.03,2.03,1.33-.17.15-.41-.04-.59-.1-.91-.34-.95-.39-1.49-1.08.02-.05.03-.1.05-.15ZM9.07,5.09c.82.01,1.15.53,1.67.85.84.35,1.68.7,2.51,1.05.12.15.24.31.36.46.21.16.43.25.62.44.04.39-.37.63-.28,1.15.08.5.38.79.49,1.21-.02.03-.03.05-.05.08-.47-.04-1.12-.57-1.28-.92-.1-.34.28-.61.21-1.08-.19-1.15-1.19-1.32-2-.64-.98-.12-3-1.57-2.23-2.59ZM6.97,13.19c.27.1.55.21.82.31.3-.04.6-.09.9-.13.02,0,.03.02.05.03.18.65.18,2,.21,2.69-.03.02-.05.03-.08.05h-.13c-.21-.08-.43-.15-.64-.23-.26.03-.51.05-.77.08-.04-.03-.09-.05-.13-.08v-.95c-.09-.53-.33-1.02-.33-1.64.03-.04.07-.09.1-.13ZM8.2,28.32s-.03-.05-.05-.08c0-.4-.02-.8-.03-1.21-.25-1.99.37-1.92,1.46-2.82.86.23.35,2.3.87,2.59.2.05.78-.23.67.13-.13.2-.5.17-.64.36-.19.25-.14.73-.26,1.05-.31.03-.46-.26-.82-.28-.49-.03-.81.22-1.21.26ZM8.64,33.4c-.12.02-1.05-.22-1.08-.31.15-.65.31-1.3.46-1.95.1-.14.21-.27.31-.41.32.06.63.12.95.18.02.02.03.03.05.05.09.25-.53,2.31-.69,2.44ZM6.28,16.11c.01-.22.09-.28.18-.41h.13c.11.15.22.29.33.44,0,.26-.1.31-.23.44-.05,0-.1-.02-.15-.03-.09-.15-.17-.29-.26-.44ZM7.36,22.35s-.05-.02-.08-.03c-.2-.34-.04-.88-.13-1.38-.09-.53-.57-1.56-.46-2.05l.08-.1c.15.07.29.14.44.21.26.03.53.05.8.08.13.2.66,2.86.64,2.9-.01.02-1.23.38-1.28.38ZM6.69,35.27h.18c.18.19.47.32.59.56.09.27-.59,1.11-.8,1.21-1.21.51-.12-1.58.03-1.77ZM8.46,43.86c-.14.22-.88.27-1.13.38-.29.14-.52.42-.87.49-.65-.34-.97-1.31-1.36-1.92-.38-.58-.77-1.16-1.15-1.74-.17-.28-.59-.97-.49-1.33.32.1.65.21.97.31.57.1,1.02-.09,1.51-.1.68.59.47.85.9,1.59.29.51.73.89,1.08,1.33.16.21.65.65.54,1ZM8.48,42.22c.7-.03,1.09.41,1.13.97-.02,0-.03.02-.05.03-.18-.1-1.09-.87-1.08-1ZM14.33,49.74c-.14.21-.54.2-.69.41-.55.76.32,1.41.46,1.92v.03c-.44.2-1.05-.33-1.31-.54-.86-.67-1.56-1.48-2.33-2.23-.28-.27-.77-.54-.95-.9v-.13c.22-.21.44-.41.67-.62.25-.32.37-.75.59-1.1h.15c.37.36.74.72,1.1,1.08.15.11.34.06.54.15.59.61,1.18,1.21,1.77,1.82v.1ZM20.54,51.12c-.33.14-3.16-.3-3.56-.41-.05-.08-.07-.09-.08-.23.32-.17.87-.1,1.18-.26.21.03.41.05.62.08.65,0,1.3.02,1.95.03.11.18.14.69-.1.8ZM25.38,53.35c-.12.18-.11.57-.28.69-.03,0-.05.02-.08.03-.17.04-2.11-1.34-2.21-1.56.16-.48.43-.9.74-1.23.28.02,2.35,1.24,2.44,1.41,0,.03.02.05.03.08-.21.2-.43.39-.64.59ZM30.41,56.92c-.08-.05-.06-.03-.08-.15.02,0,.03-.02.05-.03.15,0,.31.02.46.03l.08.08c-.09.14-.36.22-.51.08ZM38.1,52.92c-.33.18-.67.36-1,.54-.19.17-.38.34-.56.51-.1.06-.26.12-.38.08-.2-.12-.23-.5-.36-.69-.16-.23-.41-.35-.64-.51.02-.06.03-.12.05-.18.76-.46,1.55-.82,2.23-1.36.06,0,.12.02.18.03.26.15.65.79.77,1.08-.02.23-.14.41-.28.51ZM44.36,50.66c-.25.16-3.21.55-3.64.44-.05-.03-.1-.07-.15-.1-.04-.15-.09-.42,0-.56.18-.28,1.9-.04,2.31-.21.55,0,.92.14,1.44.23.03.04.05.09.08.13,0,.03-.02.05-.03.08ZM45.08,48.68c-.38,0-.77-.02-1.15-.03-1.03.03-2.05.05-3.08.08-1.62.25-3.15.54-4.31,1.23-.38.24-.75.48-1.13.72-.1.15-.21.29-.31.44-.3.11-.6.22-.9.33-1.12.77-1.04,2.36-.13,3.26,0,.04-.02.09-.03.13-.15.3-.66.27-.97.41-.48.21-.78.58-1.13.92-.25.03-.49-.09-.74-.13-.66-.11-1.33.07-1.82.15-.5-.27-.81-.79-1.38-1.03-.28-.12-.68-.1-.82-.36,0-.03-.02-.07-.03-.1.21-.31.49-.53.64-.92.35-.91-.19-1.96-.74-2.31-.32-.12-.65-.24-.97-.36-.07-.13-.14-.26-.21-.38l-.92-.62c-.41-.23-.82-.46-1.23-.69-.43-.18-.91-.12-1.41-.23-.52-.12-1.07-.33-1.72-.44-1.45-.03-2.91-.05-4.36-.08-.17-.16-.34-.32-.51-.49-.28-.24-.56-.48-.85-.72-.22-.24-.44-.48-.67-.72-.9-.63-1.6-1.42-2.46-2.08-.21-.16-1.02-.58-1.13-.74-.1-.35-.21-.7-.31-1.05-.52-.94-1.42-1.71-1.97-2.62-.39-.63-.5-1.38-.9-1.95.08-.61,1.47-1.91,1.77-2.62.07-.3.14-.6.21-.9.26-.81.69-1.76.95-2.62.06-.35.12-.7.18-1.05.15-.42.29-.84.44-1.26.18-.34.36-.68.54-1.03.05-.38.1-.75.15-1.13.18-1.05-.44-3.41-.8-3.98-.29-.35-.58-.7-.87-1.05-.03-.36-.07-.72-.1-1.08-.15-.46-.31-.92-.46-1.38-.02-.37-.03-.74-.05-1.1-.05-.3-.1-.6-.15-.9.45-.47.76-1.03.9-1.82.22-1.26-.48-2.18-.18-3.46.12-.51,1.68-1.89,2.15-2.13.38.01.6.21.85.36.62.36,1.67.89,2.74.69,1.66-.3,3.42-.72,4.64-1.49.4-.25.82-.97,1.13-1.13.46-.15.92-.31,1.38-.46,1.7-.73,4.44-1.92,4.74-3.95.07-.5-.19-1.01-.26-1.44.35-.39,1.13-.44,1.59-.95.31.07.62.14.92.21.89.14,1.68-.16,2.39-.18.14.12.27.24.41.36.29.19,1.04.24,1.21.54.04.15-.07.33-.1.49-.16.71-.1,1.34.21,1.87.85,1.48,2.66,2.35,4.31,3.03.48.15.96.29,1.44.44.36.15.46.61.74.85.31.2.62.39.92.59.95.55,4.02,1.47,5.46,1.13.85-.2,1.46-.66,2.21-.97.43.04.75.52,1,.77.36.36,1.09.85,1.23,1.38.33,1.26-.41,2.14-.21,3.33.11.41.22.82.33,1.23.21.24.41.48.62.72-.06.43-.12.85-.18,1.28-.02.27-.03.55-.05.82-.15.4-.29.8-.44,1.21-.03.37-.07.74-.1,1.1-.1.4-.6.68-.82,1-.42.59-.77,2.12-.54,3.1,0,.02.02.03.03.05.26-.03.58.04.82-.03.45-.23.2-2.12.74-2.51.04,0,.09-.02.13-.03.18.16.36.32.54.49.23.13.64.11.8.31.28.35.33,2.71.08,3.26-.34.05-.56-.22-.95-.23-.43,0-.75.26-1.08.23-.08-.14-.12-.42-.15-.59-.37-.21-.53-.47-.85-.72h-.1v.05c-.36.53.09,2.44.18,2.92.08.48,0,.87.1,1.28.21.9.76,2.42,1.21,3.15.13.14.26.27.38.41.1.33.21.67.31,1,.22.37.48.83.74,1.18.29.39.88.75.97,1.31-.31.59-.56,1.4-.9,1.97-.47.81-1.34,1.6-1.85,2.44-.15.41-.31.82-.46,1.23-.38.27-.77.55-1.15.82-.84.64-1.56,1.39-2.41,2.03-.42.32-1.52,1.77-1.92,1.9ZM53.62,33.12c-.35.1-.7.21-1.05.31-.46-.45-.52-1.7-.74-2.36,0-.03.02-.05.03-.08.28-.09.56-.19.85-.28h.21c.26.32.8,1.91.72,2.41ZM50.88,49.22c-.8.8-1.53,1.65-2.44,2.33-.24.18-.82.72-1.23.56-.08-.05-.04,0-.08-.1.43-.73,1.21-1.89-.23-2.26,0-.03-.02-.07-.03-.1.56-.58,1.11-1.16,1.67-1.74.2-.07.39-.14.59-.21.47-.33.81-.82,1.28-1.15.03,0,.07.02.1.03.43.94.51,1.05,1.18,1.72-.05.42-.57.67-.82.92ZM51.62,43.25c-.05-.06-.05-.03-.08-.13.19-.35.36-.67.72-.87.13.02.15.03.21.13l.03.08c-.29.26-.58.53-.87.8ZM54.77,44.73h-.03c-.3-.18-.6-.36-.9-.54-.34-.14-.84-.16-1.08-.41h-.03c.1-.7,1.38-1.67,1.72-2.49.23-.54.24-1.13.77-1.36.22-.08.46.07.67.1.7.12,1.4-.11,1.77-.36h.05s.03.02.05.03c0,.63-.43,1.19-.69,1.62-.7,1.13-1.38,2.49-2.31,3.41ZM58.44,47.02c-.09.08-.19.12-.36.13-.2-.16-.39-.32-.59-.49.34.04.74.15.95.33v.03ZM59.9,48.5c-.24-.03-.41-.12-.56-.23v-.05s.05-.05.08-.08c.27.02.45.09.59.23-.03.04-.07.09-.1.13Z"/>
  </g>
</svg>