<?xml version="1.0" encoding="UTF-8"?>
<svg id="Layer_2" data-name="Layer 2" xmlns="http://www.w3.org/2000/svg" viewBox="0 0 48.73 49.56">
  <g id="Layer_1-2" data-name="Layer 1">
    <path d="M0,15.54c-.06-.06.6-.94.67-1.03C10.03,2,30.59.42,37.8,15.87c.55,1.17,1.03,3.08,1.68,4.06,1.38,2.07,2.34-2.49,2.42-3.33.59-6.26-2.81-12.25-7.08-16.53-.06-.28.79.34,1.02.47.14.08.34.26.51.37,1.34.9,4.5,5.03,5.34,6.53,6.26,11.22,2.38,26.44-11.05,29.44-.84.19-4.56.56-4.9,1.06-.66.99,1.81,2.25,2.49,2.55,5.42,2.35,12.19.51,16.94-2.54.47-.3,3.21-2.45,3.41-2.42.39.06-.15.56-.28.72-1.56,1.83-4.44,3.83-6.58,4.94-10.93,5.66-24.5,2.21-29.07-9.72-.42-1.1-.77-2.92-1.3-3.84-1.15-2.01-2.32,1.8-2.49,2.62-1.35,6.4,2,13.02,6.28,17.54.26.27,1.66,1.53,1.73,1.68.14.3-.68-.38-.75-.42-3.32-1.91-6.32-5.89-7.96-9.34-4.91-10.3-1.85-22.96,8.94-27.81.82-.37,4.84-1.62,5.09-2.12.51-1.05-1.99-1.8-2.68-1.96-5.62-1.34-11.84,1.36-16.1,4.88-.77.64-2.16,2.25-2.83,2.65-.1.06-.53.22-.58.17ZM39.53,30.78c-.1-.11-2.19,1.61-2.44,1.77-3.14,1.98-8.31,3.01-11.51.64-.07-.05-.61-.42-.24-.4.13,0,.97.47,1.21.56,7.54,2.87,14.64-3.16,16.68-10.16,1.69-5.81.29-13.65-3.63-18.33-.08-.1-.64-.81-.46-.28.24.7,1.31,2.17,1.72,2.99,3.21,6.52,3.46,14.78-1.28,20.65-2.42,3-6.65,5.4-10.62,4.67-.06-.01-1.01-.19-.77-.33.13-.07,1.24.09,1.49.09,5.45-.01,10.17-4.09,11.85-9.13.06-.17.56-1.55.24-1.58-.29-.03-.94,1.7-1.82,1.77-.96.07-.8-1.65-1.33-1.33-.13.08-1.08,2.42-1.31,2.83-2.2,3.85-6.99,6.52-11.2,3.93-.94-.58-2.05-1.73-1.66-2.94.29-.9,1.48-1.66.22-2.4s-4.01.78-4.64,2.03c-2.03,4.03,1.97,10.37,6.33,10.73,3.76.31,8.08-1.19,11.02-3.48.27-.21,2.41-2.02,2.16-2.3ZM35.13,22.19c-.08-.09.29-1.91.3-2.26.21-5.15-3.07-9.74-7.44-12.16-6.56-3.63-14.81-2.63-20.95,1.37-.14.09-2.47,1.75-2.18,1.79,6.36-4.44,14.62-6.39,21.87-2.8,4.32,2.14,9.15,7.97,7.56,13.11-.35,1.12-.15-.88-.15-.97.03-5.7-3.99-10.49-9.25-12.29-.22-.08-1.69-.62-1.72-.27-.02.26,2.39,1.15,2.2,2.33-.1.63-1.26.53-.9,1.04.08.12,2.17,1.11,2.54,1.34,3.58,2.24,5.93,6.7,4.13,10.85-.82,1.9-2.02,2.65-4.09,2.32-.74-.12-1.72-.81-1.54.72s1.78,3.23,3.3,3.43c4.55.59,8.82-3.66,9.5-7.93.54-3.43-2.01-8.12-4.28-10.58-.73-.79-3.5-3.27-4.47-3.43-.19-.03-.24-.04-.11.15.19.28,1.71,1.38,2.12,1.77,2.94,2.83,4.9,7.13,4.06,11.26-.02.08-.29,1.44-.5,1.21ZM8.55,26.8c.08.06.18-.03.23-.09.23-.21.7-1.36,1.06-1.79.28-.33.9-.95,1.39-.88s.55.87.98.57c.12-.08,1-1.82,1.19-2.13,1.94-3.06,5.28-5.32,9.05-4.87,2.32.28,6.09,2.71,5,5.46-.29.74-1.68,1.94-.07,1.96,1.75.02,3.86-2.78,3.99-4.42.33-4.07-3.11-7.95-6.83-9.1-4.46-1.38-11.16,2.52-13.86,6.01-.07.09-1.04,1.33-.74,1.33.12,0,1.48-1.46,1.71-1.66,3.2-2.85,7.75-4.49,11.98-3.04.15.05,1.24.45,1.19.63-.04.11-2.08-.53-2.32-.57-10.17-1.64-16.45,8.98-15.8,18,.26,3.68,1.66,7.79,3.93,10.68-.35-1.03-.97-1.97-1.4-2.98-2.8-6.52-2.72-14.46,1.92-20.13,2.45-2.98,6.62-5.33,10.59-4.81.06,0,1.06.16.73.3-.15.06-1.26-.06-1.55-.04-5.61.23-10.17,4.44-11.94,9.59-.09.27-.63,1.82-.42,1.97ZM43.54,39.58c-1.65.66-3.21,1.45-4.92,1.96-6.26,1.87-13.41,1.02-18.32-3.52-3.28-3.03-5.34-8-3.63-12.4.04-.1.53-1.31.63-.96.03.1-.52,1.66-.59,2-.97,5.12,2.39,11.02,7.09,13.12.13.06.88.44.87.12,0-.11-1.16-1.09-1.35-1.33-.39-.49-1-1.45-.2-1.87.25-.14.91-.09.79-.48-.04-.15-1.97-1.71-2.3-2.06-1.98-2.15-3.09-5.25-2.08-8.13.83-2.38,2.91-4.67,5.44-2.75.56.43,1.2,1.58,1.54.06.47-2.09-1.06-4.58-3.11-5.18-4.57-1.33-9.52,2.3-10.82,6.61-1.2,3.98,2.3,11.17,5.49,13.65.17.14.88.71.57.16-.42-.75-1.36-1.62-1.88-2.43-2.03-3.15-2.85-7.15-1.47-10.74.05-.13.97-2.1,1.14-1.9.09.1-.86,2.12-.97,2.5-1.37,4.97.98,10.1,4.83,13.25,6.46,5.27,16.55,4.98,23.24.3Z"/>
  </g>
</svg>