<?xml version="1.0" encoding="UTF-8"?>
<svg id="Layer_2" data-name="Layer 2" xmlns="http://www.w3.org/2000/svg" viewBox="0 0 48.75 47.38">
  <g id="Layer_1-2" data-name="Layer 1">
    <path d="M1.51,0c1.44-.14,6.07,2.28,7.74,2.91,9.98,3.78,19.07,4.08,29.18.5,1.83-.65,7.57-3.53,9.01-3.34.57.07,1.26.54,1.32,1.16.09.91-2.51,6.27-3.01,7.59-3.68,9.83-3.95,18.58-.5,28.54.51,1.48,3.64,8.21,3.49,9.07-.1.57-.78.91-1.3.94-1.45.08-6.56-2.53-8.31-3.17-9.72-3.58-18.65-3.76-28.46-.34-2.1.73-7.78,3.69-9.56,3.42-.51-.07-1.01-.36-1.09-.91-.14-.98,2.57-6.58,3.09-8,3.65-9.95,3.74-18.7.18-28.7C2.63,7.84.17,3.16.01,1.69-.09.69.55.1,1.51,0ZM4.69,4.31c-.19.08-.22.32-.21.49.06,1.45,5.04,6.44,6.26,7.63.61.6,4.21,3.65,4.26,4.13.15,1.51-3.43-.91-3.81-1.15-.8-.49-3.68-3.2-4.06-1.33-.1.49.6,7.38.8,7.86.7,1.75,5.52,1.1,7.1.83,1.18-.2,5.24-1.65,6.01-2.45.28-.29,1.82-4.01,2.01-4.61.45-1.41,1.01-5.41.56-6.74-.28-.81-.85-1-1.64-1.16-.89-.17-6.58-.77-7.22-.64-1.89.38,1.06,3.66,1.57,4.54.21.36,2.07,3.16.59,2.93-.42-.07-2.53-2.57-3.01-3.06-1.5-1.52-3-3.08-4.63-4.47-.75-.64-3.66-3.2-4.57-2.82ZM43.63,4.31c-1.5.13-6.26,4.85-7.48,6.08-.63.64-4.05,4.6-4.53,4.63-1.39.07.87-3.25,1.15-3.7.61-.98,3.76-4.2.88-4.24-1.2-.02-5.45.49-6.69.74-2.24.45-1.79,2.55-1.65,4.33.13,1.61,1.72,7.25,2.87,8.22,1.51,1.28,5.8,2.58,7.78,2.75,1.87.16,4.58.66,5.04-1.66.16-.82.76-6.91.64-7.46s-.4-.64-.9-.62c-.64.04-3.07,1.97-3.88,2.43-.4.23-2.86,1.81-2.69.5.12-.9,9.99-8.94,10.11-11.45.02-.49-.21-.59-.64-.56ZM9.48,24.42c-.91.13-1.45.5-1.69,1.43-.32,1.25-.65,5.25-.69,6.65-.1,3.52,2.8.48,4.23-.39.4-.24,3.49-2.33,3.17-.74-.14.67-8.11,7.65-9.33,10.06-.26.51-.85,1.55.2,1.49,1.55-.09,6.68-5.28,7.95-6.58.59-.6,3.46-4.01,3.96-4.03,1.39-.07-.8,3.16-1.05,3.58-.51.83-3.18,3.65-1.65,4.21.41.15,6.7-.47,7.46-.64,1.21-.27,1.57-.81,1.66-2.01.14-1.82-.31-4.47-.92-6.18-.48-1.34-1.37-3.77-2.56-4.46-3.02-1.77-7.22-2.86-10.74-2.38ZM38.45,24.5c-2.69-.13-8.76.71-10.64,2.85-1.32,1.51-2.52,6.49-2.59,8.5-.06,1.67-.33,3.19,1.64,3.62,1.2.26,5.49.74,6.7.73.58,0,1.3-.12,1.32-.84.02-.67-1.75-2.87-2.19-3.64-.23-.4-2.03-3.11-.65-2.94.41.05,4.77,4.81,5.51,5.51.89.84,4.25,3.93,5.27,4.06,1.97.26-1-3.15-1.36-3.59-1-1.21-7.54-7.1-7.6-7.64-.17-1.36,2.7.47,3.12.72,1.09.63,4.63,4.06,4.68,1.15.02-.92-.56-6.51-.82-7.25-.39-1.13-1.37-1.19-2.39-1.23Z"/>
  </g>
</svg>