<?xml version="1.0" encoding="UTF-8"?>
<svg id="Layer_2" data-name="Layer 2" xmlns="http://www.w3.org/2000/svg" viewBox="0 0 38.19 38.19">
  <g id="Layer_1-2" data-name="Layer 1">
    <g>
      <path d="M12.35,32.96c.16,0,.31,0,.46.02.73.12,1.78.61,2.57.83.94.25,2.61.82,3.17-.31.46-.94.14-2.23-.93-2.53-.68-.19-1.73-.08-2.45-.09-1.89,0-3.78.04-5.66-.21.07-.13.34-.12.49-.15,1.61-.23,3.34-.17,4.97-.16,1.45.01,3.6.47,3.78-1.6.31-3.55-4.42-.89-5.98-.66-.14.02-.31.08-.41-.05-.05-.25.82-.88,1.02-1.06.69-.66,1.51-1.38,2.15-2.06.55-.59.95-1.31,1.53-1.87.05.25-.14.54-.25.76-.21.42-.84,1.15-.92,1.52-.2.97.51,1.06,1.27,1.02.8-.04,1.56-.2,2.38-.16.68.04,2.52.59,2.64-.45.08-.71-1.1-1.89-1.29-2.72-.02-.08-.04-.14.07-.12.58.66,1.04,1.42,1.62,2.08.79.89,1.74,1.58,2.59,2.38.43.41.89.93-.12.68-1.22-.3-3.7-1.45-4.88-1.05-.91.31-1.08,1.56-.79,2.36s.96,1.01,1.72,1.07c1.74.12,3.65-.13,5.43-.05.51.02,1.16.09,1.67.16.15.02.37.03.49.12-.07.04-.19.07-.28.08-2.07.2-4.17.13-6.24.15-.85,0-2.05-.18-2.61.64s-.4,2.42.75,2.63c.73.13,2.15-.3,2.89-.51.31-.09,2.31-.81,2.44-.68,0,.07,0,.14-.01.22-.1.34-1.33,1.23-1.66,1.53-1.11,1.02-2.03,2.2-2.97,3.37-.18.07.05-.44.07-.49.29-.68,1.25-1.69,1.05-2.4-.22-.82-2.04-.34-2.64-.3-.93.05-1.74-.21-2.59-.21-1.03,0-1.26.65-.78,1.49.34.6.88,1.18,1.05,1.9.02.08.04.14-.07.12-.59-.63-1.05-1.45-1.62-2.08-.48-.53-1.17-1.15-1.7-1.65-.28-.26-1.3-1.02-1.4-1.29-.02-.07-.03-.13-.02-.21Z"/>
      <path d="M5.23,12.35c0,.16,0,.31-.02.46-.12.73-.61,1.78-.83,2.57-.25.94-.82,2.61.31,3.17.94.46,2.23.14,2.53-.93.19-.68.08-1.73.09-2.45,0-1.89-.04-3.78.21-5.66.13.07.12.34.15.49.23,1.61.17,3.34.16,4.97-.01,1.45-.47,3.6,1.6,3.78,3.55.31.89-4.42.66-5.98-.02-.14-.08-.31.05-.41.25-.05.88.82,1.06,1.02.66.69,1.38,1.51,2.06,2.15.59.55,1.31.95,1.87,1.53-.25.05-.54-.14-.76-.25-.42-.21-1.15-.84-1.52-.92-.97-.2-1.06.51-1.02,1.27.04.8.2,1.56.16,2.38-.04.68-.59,2.52.45,2.64.71.08,1.89-1.1,2.72-1.29.08-.02.14-.04.12.07-.66.58-1.42,1.04-2.08,1.62-.89.79-1.58,1.74-2.38,2.59-.41.43-.93.89-.68-.12.3-1.22,1.45-3.7,1.05-4.88-.31-.91-1.56-1.08-2.36-.79s-1.01.96-1.07,1.72c-.12,1.74.13,3.65.05,5.43-.02.51-.09,1.16-.16,1.67-.02.15-.03.37-.12.49-.04-.07-.07-.19-.08-.28-.2-2.07-.13-4.17-.15-6.24,0-.85.18-2.05-.64-2.61s-2.42-.4-2.63.75c-.13.73.3,2.15.51,2.89.09.31.81,2.31.68,2.44-.07,0-.14,0-.22-.01-.34-.1-1.23-1.33-1.53-1.66-1.02-1.11-2.2-2.03-3.37-2.97-.07-.18.44.05.49.07.68.29,1.69,1.25,2.4,1.05.82-.22.34-2.04.3-2.64-.05-.93.21-1.74.21-2.59,0-1.03-.65-1.26-1.49-.78-.6.34-1.18.88-1.9,1.05-.08.02-.14.04-.12-.07.63-.59,1.45-1.05,2.08-1.62.53-.48,1.15-1.17,1.65-1.7.26-.28,1.02-1.3,1.29-1.4.07-.02.13-.03.21-.02Z"/>
      <path d="M25.84,5.23c-.16,0-.31,0-.46-.02-.73-.12-1.78-.61-2.57-.83-.94-.25-2.61-.82-3.17.31-.46.94-.14,2.23.93,2.53.68.19,1.73.08,2.45.09,1.89,0,3.78-.04,5.66.21-.07.13-.34.12-.49.15-1.61.23-3.34.17-4.97.16-1.45-.01-3.6-.47-3.78,1.6-.31,3.55,4.42.89,5.98.66.14-.02.31-.08.41.05.05.25-.82.88-1.02,1.06-.69.66-1.51,1.38-2.15,2.06-.55.59-.95,1.31-1.53,1.87-.05-.25.14-.54.25-.76.21-.42.84-1.15.92-1.52.2-.97-.51-1.06-1.27-1.02-.8.04-1.56.2-2.38.16-.68-.04-2.52-.59-2.64.45-.08.71,1.1,1.89,1.29,2.72.02.08.04.14-.07.12-.58-.66-1.04-1.42-1.62-2.08-.79-.89-1.74-1.58-2.59-2.38-.43-.41-.89-.93.12-.68,1.22.3,3.7,1.45,4.88,1.05.91-.31,1.08-1.56.79-2.36s-.96-1.01-1.72-1.07c-1.74-.12-3.65.13-5.43.05-.51-.02-1.16-.09-1.67-.16-.15-.02-.37-.03-.49-.12.07-.04.19-.07.28-.08,2.07-.2,4.17-.13,6.24-.15.85,0,2.05.18,2.61-.64s.4-2.42-.75-2.63c-.73-.13-2.15.3-2.89.51-.31.09-2.31.81-2.44.68,0-.07,0-.14.01-.22.1-.34,1.33-1.23,1.66-1.53,1.11-1.02,2.03-2.2,2.97-3.37.18-.07-.05.44-.07.49-.29.68-1.25,1.69-1.05,2.4.22.82,2.04.34,2.64.3.93-.05,1.74.21,2.59.21,1.03,0,1.26-.65.78-1.49-.34-.6-.88-1.18-1.05-1.9-.02-.08-.04-.14.07-.12.59.63,1.05,1.45,1.62,2.08.48.53,1.17,1.15,1.7,1.65.28.26,1.3,1.02,1.4,1.29.02.07.03.13.02.21Z"/>
      <path d="M32.96,25.84c0-.16,0-.31.02-.46.12-.73.61-1.78.83-2.57.25-.94.82-2.61-.31-3.17-.94-.46-2.23-.14-2.53.93-.19.68-.08,1.73-.09,2.45,0,1.89.04,3.78-.21,5.66-.13-.07-.12-.34-.15-.49-.23-1.61-.17-3.34-.16-4.97.01-1.45.47-3.6-1.6-3.78-3.55-.31-.89,4.42-.66,5.98.02.14.08.31-.05.41-.25.05-.88-.82-1.06-1.02-.66-.69-1.38-1.51-2.06-2.15-.59-.55-1.31-.95-1.87-1.53.25-.05.54.14.76.25.42.21,1.15.84,1.52.92.97.2,1.06-.51,1.02-1.27-.04-.8-.2-1.56-.16-2.38.04-.68.59-2.52-.45-2.64-.71-.08-1.89,1.1-2.72,1.29-.08.02-.14.04-.12-.07.66-.58,1.42-1.04,2.08-1.62.89-.79,1.58-1.74,2.38-2.59.41-.43.93-.89.68.12-.3,1.22-1.45,3.7-1.05,4.88.31.91,1.56,1.08,2.36.79s1.01-.96,1.07-1.72c.12-1.74-.13-3.65-.05-5.43.02-.51.09-1.16.16-1.67.02-.15.03-.37.12-.49.04.07.07.19.08.28.2,2.07.13,4.17.15,6.24,0,.85-.18,2.05.64,2.61s2.42.4,2.63-.75c.13-.73-.3-2.15-.51-2.89-.09-.31-.81-2.31-.68-2.44.07,0,.14,0,.22.01.34.1,1.23,1.33,1.53,1.66,1.02,1.11,2.2,2.03,3.37,2.97.07.18-.44-.05-.49-.07-.68-.29-1.69-1.25-2.4-1.05-.82.22-.34,2.04-.3,2.64.05.93-.21,1.74-.21,2.59,0,1.03.65,1.26,1.49.78.6-.34,1.18-.88,1.9-1.05.08-.02.14-.04.12.07-.63.59-1.45,1.05-2.08,1.62-.53.48-1.15,1.17-1.65,1.7-.26.28-1.02,1.3-1.29,1.4-.07.02-.13.03-.21.02Z"/>
    </g>
  </g>
</svg>