<?xml version="1.0" encoding="UTF-8"?>
<svg id="Layer_2" data-name="Layer 2" xmlns="http://www.w3.org/2000/svg" viewBox="0 0 48.54 46.89">
  <g id="Layer_1-2" data-name="Layer 1">
    <g>
      <path d="M.2,2.06l10.36,11.4-.2.2c-1.63-.41-3.29-2.97-4.95-2.67-.77.14-.69,1.26-.66,1.86.06,1.22.4,2.52.44,3.81,0,.27.07,2.56-.13,2.56-.86-3.1-1.5-6.26-2.45-9.34C1.94,7.75.85,5.52.28,3.45c-.05-.2-.41-1.36-.09-1.38Z"/>
      <path d="M14.46,36.39c.03,1.39-3.68,4.21-2.47,5.47.72.75,3.55-.02,4.6-.09.78-.05,2.57-.11,3.3,0,.12.02.28.06.13.17-3.98.87-7.92,1.88-11.77,3.19-1.33.45-2.7,1.16-4.03,1.52-.22.06-1.22.38-1.28.11l11.53-10.36Z"/>
      <path d="M43.59,28.07c.7,2.95,1.35,5.92,2.23,8.82.42,1.38,2.77,7.15,2.71,7.96,0,.13,0,.22-.14.3l-10.44-11.49c.02-.36,1.3.43,1.41.49,1.02.61,2.86,2.69,4.05,1.94.89-.56.06-3.61,0-4.6-.06-.8-.12-2.53,0-3.3.02-.11.06-.28.17-.13Z"/>
      <path d="M45.22.09c.13-.01.6-.09.63.11.05.4-4.78,4.16-5.46,4.77-1.75,1.54-3.35,3.4-5.07,4.9-1.08.94-1.28.86-.55-.46.79-1.42,4.53-4.87.28-4.66-1.22.06-2.52.4-3.81.44-.27,0-2.48.07-2.47-.13,3.19-.89,6.44-1.54,9.6-2.53,1.79-.56,5.28-2.25,6.85-2.43Z"/>
      <path d="M29.37,41.86c.79-.11,1.6-.12,2.39-.09,1.23.04,3.26.59,4.31.42,2.52-.41-.5-3.44-.99-4.34-.07-.13-.63-1.07-.29-1.1l11.23,10.01c-.1.15-.23.13-.39.14-.94.05-5.06-1.79-6.31-2.2-3.13-1.03-6.58-1.57-9.6-2.62-.13-.05-.31-.05-.35-.22Z"/>
      <path d="M19.4,4.92c.13.13-.01.15-.13.17-.66.11-2.4.05-3.13,0-1.39-.09-4.92-1.33-4.33,1.21.13.58,2.66,3.43,2.3,3.81-.01.01-.15,0-.2-.02L2.84.11c.09-.29,1.16.08,1.4.15,2.02.6,4.08,1.6,6.16,2.25,2.96.93,6.01,1.57,9,2.41Z"/>
      <path d="M5.09,28.59c.08.14.02,2.87,0,3.25-.06.97-.74,3.43-.05,4.13,1,1,2.93-1.07,3.81-1.58.21-.12,1.29-.8,1.26-.39L.11,45.15c-.27-.06.03-1,.08-1.21.47-1.79,1.46-3.75,2.06-5.57,1-3.04,1.51-6.42,2.54-9.34.02-.06.17-.66.3-.43Z"/>
      <path d="M43.51,18.62c-.11-.78-.12-1.6-.09-2.39.04-1.09.79-4.25.13-4.98-.98-1.08-3.21,1.25-4.14,1.74-.15.08-1.08.66-1.01.21l10.01-11.14c.12.08.12.17.14.3.08.77-2.15,6.17-2.54,7.43-.81,2.57-1.32,5.22-2.08,7.8-.1.32-.15.8-.41,1.02Z"/>
      <path d="M24.06,4.94c.28-.03,2,.08,2.01.37,0,.18-1.36,1.2-1.75,1.16-.24-.03-1.32-.86-1.36-.99-.11-.37.86-.51,1.1-.53Z"/>
      <path d="M24.39,40.42c.32,0,1.29.78,1.43,1.04.16.31-.86.46-1.08.48-.31.03-2.24.03-1.91-.52.13-.22,1.27-1,1.56-1Z"/>
      <path d="M5.31,22c.24-.05,1.15,1.22,1.16,1.52,0,.32-.84,1.5-1.15,1.43-.5-.12-.47-2.85,0-2.94Z"/>
      <path d="M43.33,25.21c-.24.16-1.2-1.13-1.22-1.52-.01-.33.78-1.39,1.02-1.42.62-.09.53,2.73.2,2.94Z"/>
    </g>
  </g>
</svg>