<?xml version="1.0" encoding="UTF-8"?>
<svg id="Layer_2" data-name="Layer 2" xmlns="http://www.w3.org/2000/svg" viewBox="0 0 41.6 41.6">
  <g id="Layer_1-2" data-name="Layer 1">
    <g>
      <path d="M33.97,16.72l-4.78-1.46c-1.36-.42-2.42-1.48-2.83-2.83l-1.46-4.78c-1.23-4.03-6.94-4.03-8.17,0l-1.46,4.78c-.42,1.36-1.48,2.42-2.83,2.83l-4.78,1.46c-4.03,1.23-4.03,6.94,0,8.17l4.78,1.46c1.36.42,2.42,1.48,2.83,2.83l1.46,4.78c1.23,4.03,6.94,4.03,8.17,0l1.46-4.78c.42-1.36,1.48-2.42,2.83-2.83l4.78-1.46c4.03-1.23,4.03-6.94,0-8.17Z"/>
      <path d="M20.8,0C9.33,0,0,9.33,0,20.8s9.33,20.8,20.8,20.8,20.8-9.33,20.8-20.8S32.27,0,20.8,0ZM20.8,40.85C9.75,40.85.75,31.86.75,20.8S9.75.75,20.8.75s20.05,8.99,20.05,20.05-8.99,20.05-20.05,20.05Z"/>
    </g>
  </g>
</svg>