<?xml version="1.0" encoding="UTF-8"?>
<svg id="Layer_2" data-name="Layer 2" xmlns="http://www.w3.org/2000/svg" viewBox="0 0 31.99 31.92">
  <g id="Layer_1-2" data-name="Layer 1">
    <g>
      <path d="M9.19,17.11c0,.62.67,1,1.2.69l2.16-1.25c.54-.31.54-1.08,0-1.39l-2.16-1.25c-.53-.31-1.2.08-1.2.69v.26h-4.79c-1.29,0-2.35-1.04-2.35-2.31v-6.67H0v6.67c0,2.39,1.98,4.33,4.4,4.33h4.79v.21Z"/>
      <path d="M15.26,12.55c.31.53,1.08.53,1.39,0l1.25-2.16c.31-.53-.08-1.2-.69-1.2h-.26v-4.79c0-1.29,1.04-2.35,2.31-2.35h6.67V0h-6.67c-2.39,0-4.33,1.98-4.33,4.4v4.79h-.21c-.62,0-1,.67-.69,1.2l1.25,2.16Z"/>
      <path d="M27.58,14.82h-4.79v-.21c0-.62-.67-1-1.2-.69l-2.16,1.25c-.53.31-.53,1.08,0,1.39l2.16,1.25c.53.31,1.2-.08,1.2-.69v-.26h4.79c1.29,0,2.35,1.04,2.35,2.31v6.67h2.06v-6.67c0-2.39-1.98-4.33-4.4-4.33Z"/>
      <path d="M16.64,19.36c-.31-.53-1.08-.53-1.39,0l-1.25,2.16c-.31.53.08,1.2.69,1.2h.26v4.79c0,1.29-1.04,2.34-2.31,2.34h-6.67v2.06h6.67c2.39,0,4.33-1.98,4.33-4.4v-4.79h.21c.62,0,1-.67.69-1.2l-1.25-2.16Z"/>
      <path d="M16.05,13.5c-1.31,0-2.37,1.06-2.37,2.37s1.06,2.37,2.37,2.37,2.37-1.06,2.37-2.37-1.06-2.37-2.37-2.37Z"/>
    </g>
  </g>
</svg>