<?xml version="1.0" encoding="UTF-8"?>
<svg id="Layer_2" data-name="Layer 2" xmlns="http://www.w3.org/2000/svg" viewBox="0 0 50.01 32.53">
  <g id="Layer_1-2" data-name="Layer 1">
    <g>
      <path d="M16.54,21.74l-4.8-1.47c-1.94-.59-3.2-2.29-3.2-4.32s1.26-3.73,3.2-4.33l4.8-1.46c1.28-.39,2.27-1.39,2.66-2.67l1.2-3.9-.13-.41c-1.23-4.03-6.94-4.03-8.17,0l-1.46,4.78c-.42,1.36-1.48,2.42-2.84,2.84l-4.78,1.46c-4.03,1.23-4.03,6.93,0,8.17l4.78,1.46c1.36.42,2.42,1.48,2.84,2.84l1.46,4.78c1.23,4.03,6.94,4.03,8.17,0l.25-.81-1.32-4.29c-.39-1.28-1.38-2.28-2.66-2.67Z"/>
      <path d="M25.61,21.74l-.27-.08-4.53-1.39c-1.94-.59-3.19-2.29-3.19-4.32s1.25-3.73,3.19-4.33l3.29-1,1.51-.46c1.28-.39,2.27-1.39,2.67-2.67l.99-3.24-.43-1.4c-.53-1.73-2.04-2.85-3.85-2.85-.9,0-1.74.28-2.4.78-.67.49-1.18,1.21-1.44,2.07l-.49,1.6-.98,3.18c-.44,1.44-1.56,2.56-3,3.01l-4.79,1.46c-1.73.53-2.85,2.04-2.85,3.85s1.12,3.31,2.85,3.84l4.79,1.47c1.44.44,2.56,1.56,3,3l1.1,3.58.37,1.21c.52,1.73,2.03,2.85,3.84,2.85s3.32-1.12,3.85-2.85l.43-1.4-.99-3.24c-.4-1.28-1.39-2.28-2.67-2.67Z"/>
      <path d="M47.17,12.1l-4.8-1.46c-1.44-.45-2.56-1.57-3-3.01l-1.46-4.78c-.53-1.73-2.04-2.85-3.85-2.85s-3.31,1.12-3.84,2.85l-.43,1.41-.13.41-.13.43-.78,2.53c-.44,1.44-1.56,2.56-3,3.01l-.85.26-3.94,1.2c-1.73.53-2.84,2.04-2.84,3.85s1.11,3.31,2.84,3.84l4.79,1.47c.13.04.26.09.39.15,1.25.5,2.21,1.54,2.61,2.85l.78,2.53.13.43.13.42.43,1.41c.53,1.73,2.04,2.85,3.84,2.85.91,0,1.73-.28,2.41-.78.66-.49,1.18-1.21,1.44-2.07l1.46-4.79c.44-1.44,1.56-2.56,3-3l4.8-1.47c1.73-.53,2.84-2.04,2.84-3.84s-1.11-3.32-2.84-3.85Z"/>
    </g>
  </g>
</svg>