<?xml version="1.0" encoding="UTF-8"?>
<svg id="Layer_2" data-name="Layer 2" xmlns="http://www.w3.org/2000/svg" viewBox="0 0 79.01 40.92">
  <g id="Layer_1-2" data-name="Layer 1">
    <path d="M59.09,0c-9.81,0-17.91,7.17-19.59,16.78C37.83,7.17,29.73,0,19.92,0,8.94,0,0,9.18,0,20.46s8.94,20.46,19.92,20.46c9.8,0,17.9-7.18,19.58-16.79,1.68,9.62,9.78,16.79,19.59,16.79,10.99,0,19.92-9.18,19.92-20.46S70.08,0,59.09,0ZM36.12,28.3c-.31.4-.63.77-.98,1.14-.08.08-.17.16-.25.24-.28.27-.57.54-.87.79-.13.11-.27.22-.4.32-.28.22-.57.42-.86.62-.14.09-.28.19-.43.28-.36.22-.74.43-1.12.63-.08.04-.16.09-.24.13-.47.23-.95.43-1.45.61-.14.05-.28.09-.42.14-.37.12-.74.23-1.13.33-.18.04-.36.08-.54.12-.37.08-.75.14-1.14.2-.17.02-.34.05-.51.07-.55.06-1.11.09-1.68.09-8.14,0-14.75-6.08-14.75-13.55s6.62-13.54,14.75-13.54c.56,0,1.12.04,1.67.09.17.02.34.05.51.07.38.05.76.11,1.13.19.18.04.36.08.53.12.38.09.75.2,1.12.32.14.05.28.09.41.13,1.01.36,1.97.83,2.86,1.38.09.05.17.11.25.17.37.24.73.5,1.08.77.07.06.14.11.21.17.83.68,1.58,1.43,2.22,2.27-.06-.05-.12-.09-.18-.14-.17-.14-.34-.28-.52-.41-.14-.11-.28-.21-.43-.31-.18-.13-.37-.24-.56-.36-.15-.1-.3-.19-.46-.28-.19-.11-.4-.21-.6-.31-.16-.08-.32-.17-.49-.24-.21-.1-.42-.18-.64-.27-.17-.07-.34-.14-.51-.2-.23-.08-.46-.15-.69-.22-.17-.05-.34-.11-.52-.16-.25-.06-.5-.11-.75-.17-.17-.04-.34-.08-.51-.11-.28-.05-.57-.08-.86-.11-.15-.02-.29-.04-.44-.06-.44-.04-.89-.06-1.34-.06-7.31,0-13.25,5.05-13.25,11.26s5.94,11.26,13.25,11.26c.46,0,.91-.02,1.35-.06.15-.01.29-.04.44-.05.29-.03.59-.07.88-.12.17-.03.33-.07.5-.1.26-.05.52-.11.77-.17.17-.04.33-.1.5-.15.24-.07.48-.15.72-.23.16-.06.32-.13.48-.19.23-.09.46-.18.68-.29.15-.07.3-.15.45-.22.22-.11.44-.22.65-.35.14-.08.28-.16.41-.25.21-.13.42-.27.62-.41.12-.09.25-.18.37-.27.2-.15.4-.31.59-.47.05-.04.1-.08.15-.12-.01.01-.02.03-.03.04ZM18.44,20.46c0-3.81,4.58-6.91,10.21-6.91.34,0,.67.01,1.01.03,4.97.34,9.01,3.18,9.19,6.64,0,.08,0,.16,0,.24s0,.16,0,.25c-.2,3.73-4.68,6.65-10.2,6.65s-10.21-3.1-10.21-6.91ZM40.17,20.69c0-.08,0-.16,0-.24s0-.16,0-.25c.2-3.67,4.77-6.66,10.2-6.66s10.21,3.1,10.21,6.91-4.58,6.91-10.21,6.91c-.34,0-.67-.01-1.01-.03-4.97-.34-9.01-3.18-9.19-6.64ZM42.85,28.26c.06.05.13.1.19.15.17.14.33.28.51.41.14.11.29.22.43.32.18.13.37.25.56.37.15.1.31.19.47.28.2.11.4.22.6.32.16.08.32.17.49.24.21.1.43.19.65.27.17.07.34.14.51.2.23.08.46.15.7.22.17.05.34.11.52.15.25.07.51.12.76.17.17.04.33.08.51.11.29.05.58.08.88.12.15.02.29.04.44.05.44.04.9.06,1.35.06,7.3,0,13.24-5.05,13.24-11.26s-5.94-11.26-13.24-11.26c-.46,0-.91.02-1.35.06-.15.01-.29.04-.44.05-.29.03-.59.07-.88.12-.17.03-.33.07-.5.1-.26.05-.52.11-.77.17-.17.04-.34.1-.5.15-.24.07-.48.14-.72.23-.16.06-.32.13-.48.19-.23.09-.46.18-.68.28-.15.07-.3.15-.45.22-.22.11-.44.22-.65.34-.14.08-.28.17-.41.25-.21.13-.41.26-.61.4-.13.09-.25.18-.37.27-.2.15-.39.3-.58.46-.05.04-.1.08-.15.12,0-.01.02-.03.03-.04.31-.39.63-.77.98-1.13.09-.09.18-.17.27-.26.27-.27.55-.52.85-.77.13-.11.27-.22.41-.33.28-.21.56-.42.86-.62.14-.09.28-.19.43-.28.37-.23.75-.44,1.14-.63.08-.04.15-.08.22-.12.47-.23.95-.42,1.45-.6.14-.05.29-.09.43-.14.37-.12.74-.23,1.11-.32.18-.04.36-.08.54-.12.37-.08.75-.14,1.13-.19.17-.02.34-.05.51-.07.55-.06,1.11-.09,1.67-.09,8.13,0,14.75,6.07,14.75,13.54s-6.62,13.55-14.75,13.55c-.57,0-1.13-.04-1.68-.1-.17-.02-.34-.05-.51-.07-.38-.05-.77-.12-1.14-.2-.18-.04-.36-.08-.54-.12-.38-.1-.76-.21-1.13-.33-.14-.05-.28-.09-.42-.14-.5-.18-.98-.38-1.45-.61-.08-.04-.16-.09-.24-.13-.39-.2-.76-.4-1.13-.63-.14-.09-.28-.18-.42-.28-.3-.2-.59-.41-.87-.62-.14-.1-.27-.21-.4-.32-.3-.25-.59-.52-.87-.8-.08-.08-.17-.16-.25-.24-.35-.36-.68-.74-.98-1.13-.01-.02-.02-.03-.03-.05Z"/>
  </g>
</svg>