<?xml version="1.0" encoding="UTF-8"?>
<svg id="Layer_2" data-name="Layer 2" xmlns="http://www.w3.org/2000/svg" viewBox="0 0 37.44 37.69">
  <g id="Layer_1-2" data-name="Layer 1">
    <g>
      <path d="M22.19,16.15c1.79,1.57,4.02,2.36,6.23,2.36,2.33,0,4.64-.87,6.39-2.62,3.56-3.56,3.49-9.44-.17-13.1-3.66-3.66-9.53-3.73-13.09-.17s-3.49,9.44.17,13.1c.15.15.31.29.47.43ZM27.82,9.61c-1.11-1.11-3.25-.77-4.78.76-.09.09-.17.2-.26.3.18-.23.37-.46.59-.68.84-.84,1.86-1.41,2.85-1.59.22-.04.44-.06.64-.06.66,0,1.22.21,1.62.6.52.52.72,1.33.55,2.26-.18,1-.75,2.01-1.59,2.85-.21.21-.44.41-.67.58.1-.08.19-.16.29-.25.72-.72,1.2-1.6,1.36-2.47.17-.93-.05-1.75-.61-2.31ZM23.66,10.98c.75-.75,1.68-1.16,2.45-1.16.43,0,.82.13,1.09.4.35.35.48.89.36,1.53-.13.7-.52,1.41-1.12,2.01-.59.59-1.31.99-2.01,1.12-.64.12-1.18-.01-1.53-.36-.75-.75-.41-2.38.76-3.54ZM28.07,14.67c.97-.97,1.62-2.15,1.83-3.32.22-1.23-.06-2.31-.79-3.04-.73-.73-1.81-1.01-3.04-.79-1.17.21-2.35.86-3.32,1.83-.67.67-1.15,1.43-1.47,2.2.17-1.15.72-2.33,1.68-3.29,1.15-1.15,2.62-1.75,3.99-1.75,1.07,0,2.08.37,2.84,1.12,1.71,1.71,1.42,4.77-.63,6.82-.92.92-2.06,1.49-3.24,1.67.77-.33,1.51-.82,2.16-1.46ZM29.78,15.09c2.4-2.4,2.68-6.01.63-8.06-2.05-2.05-5.67-1.77-8.07.63-.65.65-1.14,1.39-1.47,2.16.26-1.25.9-2.42,1.85-3.38,1.21-1.21,2.78-1.92,4.43-1.98.09,0,.17,0,.26,0,1.53,0,2.93.57,3.97,1.61,2.28,2.28,2.11,6.16-.38,8.66-.95.95-2.11,1.58-3.36,1.84.78-.34,1.51-.84,2.15-1.47ZM22.16,3.24c1.58-1.58,3.67-2.37,5.77-2.37s4.39.85,6.08,2.54c3.31,3.32,3.39,8.63.17,11.85-1.9,1.9-4.53,2.65-7.05,2.26,1.67-.19,3.24-.96,4.47-2.19,2.83-2.83,3.01-7.27.38-9.9-1.28-1.28-3.01-1.93-4.89-1.86-1.86.08-3.64.87-5.01,2.24-1.24,1.24-2,2.81-2.19,4.47-.38-2.52.36-5.15,2.26-7.05Z"/>
      <path d="M9.02,18.51c2.41,0,4.84-.93,6.7-2.79,3.66-3.66,3.73-9.53.17-13.1C12.32-.94,6.45-.86,2.79,2.79c-3.66,3.66-3.73,9.53-.17,13.1,1.75,1.75,4.06,2.62,6.39,2.62ZM14.52,14.52c-.75.75-2.37.41-3.54-.76-1.16-1.16-1.51-2.79-.76-3.54.27-.27.65-.4,1.09-.4.77,0,1.71.41,2.45,1.16,1.17,1.16,1.51,2.79.76,3.54ZM14.39,10.36c-1.53-1.53-3.67-1.87-4.78-.76-1.11,1.11-.77,3.25.76,4.78.11.11.22.18.33.28-.24-.18-.48-.38-.71-.61-1.7-1.7-2.17-3.99-1.04-5.12.41-.41.99-.61,1.63-.61,1.1,0,2.41.58,3.49,1.66.22.22.41.45.59.68-.09-.1-.16-.2-.26-.3ZM14.67,9.36c-2.04-2.04-4.89-2.51-6.36-1.04-1.47,1.46-1,4.32,1.04,6.36.65.65,1.39,1.14,2.14,1.46-1.13-.18-2.28-.73-3.22-1.67-1.01-1.01-1.62-2.28-1.73-3.58-.11-1.27.28-2.43,1.1-3.24.75-.75,1.76-1.12,2.83-1.12,1.37,0,2.84.6,3.99,1.75.96.96,1.51,2.13,1.68,3.28-.32-.77-.8-1.53-1.47-2.2ZM15.09,7.65c-2.4-2.4-6.01-2.68-8.06-.63-1,1-1.48,2.4-1.35,3.94.13,1.51.83,2.97,1.98,4.13.64.64,1.38,1.13,2.14,1.47-1.21-.26-2.39-.87-3.35-1.84-2.49-2.49-2.66-6.37-.38-8.66,1.07-1.07,2.5-1.6,3.98-1.6,1.65,0,3.36.67,4.68,1.99.97.97,1.58,2.15,1.84,3.36-.33-.77-.82-1.5-1.47-2.15ZM3.41,3.41c1.69-1.69,3.9-2.54,6.08-2.54s4.19.79,5.77,2.37c1.9,1.9,2.65,4.54,2.26,7.06-.19-1.61-.92-3.21-2.19-4.48-2.83-2.83-7.27-3.01-9.9-.38-2.62,2.62-2.45,7.06.38,9.9,1.27,1.27,2.87,2,4.48,2.19-2.52.39-5.16-.36-7.06-2.26C.02,12.05.1,6.73,3.41,3.41Z"/>
      <path d="M2.62,21.8c-3.56,3.56-3.49,9.44.17,13.09,1.77,1.77,4.11,2.76,6.58,2.8.04,0,.09,0,.13,0,2.43,0,4.69-.93,6.39-2.63,3.56-3.56,3.49-9.44-.17-13.09-3.66-3.66-9.53-3.73-13.1-.17ZM9.61,28.08c.43.43,1.03.66,1.71.66.19,0,.4-.02.61-.06.87-.16,1.75-.64,2.47-1.36.1-.1.17-.2.26-.3-.18.23-.37.46-.59.68-1.7,1.7-3.99,2.17-5.12,1.04-.52-.52-.71-1.33-.54-2.26.18-1,.75-2.01,1.59-2.85.2-.2.4-.37.61-.53-.08.07-.16.13-.23.2-1.53,1.53-1.87,3.67-.76,4.78ZM13.77,26.7c-.59.59-1.31.99-2.01,1.12-.64.12-1.18-.01-1.53-.36-.75-.75-.41-2.38.76-3.54.75-.75,1.68-1.16,2.45-1.16.43,0,.82.13,1.09.4.75.75.41,2.38-.76,3.54ZM9.36,23.01c-.97.97-1.62,2.15-1.83,3.32-.22,1.23.06,2.31.79,3.04.58.58,1.37.85,2.24.85,1.34,0,2.88-.66,4.12-1.9.67-.67,1.15-1.43,1.47-2.2-.17,1.15-.72,2.33-1.68,3.28-2.06,2.06-5.12,2.34-6.82.63s-1.42-4.77.63-6.82c.97-.97,2.16-1.54,3.33-1.7-.78.32-1.56.81-2.24,1.49ZM7.65,22.6c-2.4,2.4-2.68,6.02-.63,8.06.92.92,2.16,1.37,3.45,1.37,1.6,0,3.29-.68,4.61-2,.65-.65,1.13-1.38,1.47-2.15-.26,1.21-.87,2.39-1.84,3.36-2.49,2.49-6.37,2.66-8.66.38-2.28-2.28-2.11-6.16.38-8.66.97-.97,2.16-1.59,3.37-1.85-.77.33-1.51.82-2.16,1.47ZM15.27,34.44c-1.56,1.56-3.64,2.43-5.89,2.37-2.24-.03-4.36-.93-5.97-2.54C.1,30.96.02,25.64,3.24,22.42c1.58-1.58,3.67-2.37,5.77-2.37.43,0,.86.04,1.29.11-1.61.19-3.21.92-4.48,2.19-2.83,2.83-3.01,7.27-.38,9.9,1.24,1.24,2.9,1.86,4.6,1.86,1.88,0,3.81-.75,5.3-2.24,1.27-1.27,2-2.87,2.19-4.48.39,2.52-.36,5.16-2.26,7.06Z"/>
      <path d="M34.81,21.8c-1.7-1.7-3.96-2.63-6.39-2.63-.04,0-.09,0-.13,0-2.47.03-4.81,1.03-6.58,2.8-1.77,1.77-2.76,4.11-2.8,6.58-.03,2.48.9,4.79,2.63,6.52,1.7,1.7,3.96,2.63,6.39,2.63.04,0,.09,0,.13,0,2.47-.03,4.81-1.03,6.58-2.8,1.77-1.77,2.76-4.11,2.8-6.58.03-2.48-.9-4.79-2.63-6.52ZM22.91,23.16c.27-.27.65-.4,1.09-.4.77,0,1.71.41,2.45,1.16.59.59.99,1.31,1.12,2.01.12.64-.01,1.18-.36,1.53s-.89.48-1.53.36c-.7-.13-1.41-.52-2.01-1.12-1.16-1.16-1.51-2.79-.76-3.54ZM23.04,27.32c.72.72,1.6,1.2,2.47,1.36.21.04.41.06.61.06.68,0,1.27-.23,1.71-.66.56-.56.77-1.38.61-2.31-.16-.87-.64-1.75-1.36-2.47-.1-.1-.2-.17-.3-.26.24.18.46.37.68.59.84.84,1.41,1.86,1.59,2.85.17.94-.02,1.74-.55,2.26s-1.33.72-2.26.54c-1-.18-2.01-.75-2.85-1.59-.22-.22-.41-.44-.59-.68.09.1.16.2.26.3ZM22.76,28.32c.97.97,2.15,1.62,3.32,1.83.28.05.55.08.8.08.89,0,1.67-.3,2.24-.86.73-.73,1.01-1.81.79-3.04-.21-1.17-.86-2.35-1.83-3.32-.65-.65-1.39-1.13-2.16-1.46,1.18.18,2.33.75,3.24,1.67,2.05,2.05,2.34,5.12.63,6.82-1.71,1.71-4.77,1.42-6.82-.63-.92-.92-1.49-2.06-1.67-3.24.33.77.82,1.51,1.46,2.16ZM22.34,30.03c1.32,1.32,3.01,2,4.61,2,1.3,0,2.53-.45,3.45-1.37,2.05-2.05,1.77-5.67-.63-8.06-.64-.64-1.37-1.13-2.15-1.47,1.25.27,2.41.9,3.36,1.84,2.49,2.49,2.66,6.37.38,8.66-1.1,1.1-2.6,1.68-4.23,1.6-1.64-.07-3.21-.77-4.43-1.98-.95-.95-1.58-2.11-1.84-3.36.34.78.83,1.51,1.47,2.15ZM34.02,34.27c-1.61,1.61-3.73,2.51-5.97,2.54-.04,0-.08,0-.12,0-2.19,0-4.24-.84-5.77-2.37-1.56-1.56-2.4-3.65-2.37-5.89,0-.4.05-.79.11-1.18.19,1.67.96,3.25,2.19,4.49,1.37,1.37,3.15,2.16,5.01,2.24.1,0,.2,0,.3,0,1.76,0,3.38-.66,4.59-1.86,2.62-2.62,2.45-7.06-.38-9.9-1.24-1.24-2.82-2-4.49-2.19.39-.06.78-.1,1.18-.11.04,0,.08,0,.12,0,2.19,0,4.24.84,5.77,2.37,1.56,1.56,2.4,3.65,2.37,5.89-.03,2.24-.93,4.36-2.54,5.97Z"/>
    </g>
  </g>
</svg>