<?xml version="1.0" encoding="UTF-8"?>
<svg id="Layer_2" data-name="Layer 2" xmlns="http://www.w3.org/2000/svg" viewBox="0 0 44.45 37.24">
  <g id="Layer_1-2" data-name="Layer 1">
    <g>
      <path d="M14.48,5.96c0,2.63-2.15,4.78-4.78,4.78H0v3.71h9.7c4.68,0,8.49-3.81,8.49-8.49V0h-3.71v5.96Z"/>
      <path d="M9.7,22.8H0v3.71h9.7c2.63,0,4.78,2.15,4.78,4.79v5.94h3.71v-5.94c0-4.7-3.81-8.5-8.49-8.5Z"/>
      <path d="M26.24,31.3v5.94h3.71v-5.94c0-2.64,2.15-4.79,4.79-4.79h9.7v-3.71h-9.7c-4.68,0-8.5,3.81-8.5,8.5Z"/>
      <path d="M20.33,8.64v.02c-1.06,4.14-4.47,7.34-8.71,8.08h-.01c-.62.11-1.26.17-1.9.17H0v3.41h9.7c.64,0,1.29.06,1.9.17.01-.01.01,0,.02,0,4.24.75,7.65,3.95,8.7,8.09h0c.22.88.33,1.78.33,2.71v5.94h3.11v-5.94c0-.93.11-1.84.33-2.71,1.06-4.14,4.49-7.35,8.74-8.09.62-.11,1.25-.17,1.9-.17h9.7v-3.41h-9.7c-.65,0-1.29-.06-1.9-.17h-.04c-4.23-.75-7.64-3.95-8.7-8.08-.21-.86-.33-1.77-.33-2.71V0h-3.11v5.96c0,.93-.11,1.83-.33,2.68ZM27.34,18.62c-2.09,1.24-3.86,2.97-5.13,5.03-1.26-2.06-3.03-3.81-5.13-5.03,2.1-1.22,3.87-2.95,5.13-5.03,1.27,2.08,3.04,3.81,5.13,5.03Z"/>
      <path d="M34.75,14.44h9.7v-3.71h-9.7c-2.64,0-4.79-2.15-4.79-4.78V0h-3.71v5.96c0,4.68,3.82,8.49,8.5,8.49Z"/>
    </g>
  </g>
</svg>