<?xml version="1.0" encoding="UTF-8"?>
<svg id="Layer_2" data-name="Layer 2" xmlns="http://www.w3.org/2000/svg" viewBox="0 0 34.25 34.25">
  <g id="Layer_1-2" data-name="Layer 1">
    <g>
      <path d="M26.52,28.26c-5.18-5.19-13.61-5.19-18.79,0l-3.87,3.87c-.78.78-.23,2.11.87,2.11h5.62s.05-.01.06-.02l1.63-1.63c2.8-2.8,7.36-2.8,10.16,0l1.63,1.63s.04.02.06.02h5.62c1.1,0,1.65-1.33.87-2.11l-3.87-3.87ZM25.12,32.43h0c-.3-.13-.57-.24-.87-.36l-.76-.76c-1.7-1.7-3.96-2.63-6.37-2.63s-4.67.93-6.36,2.63l-.76.76c-.3.13-.57.24-.87.36h0c-1.1,0-1.65-1.33-.88-2.11l.76-.76c2.17-2.17,5.04-3.35,8.11-3.35s5.95,1.19,8.11,3.35l.76.76c.78.78.23,2.11-.87,2.11Z"/>
      <path d="M7.72,5.98c5.19,5.18,13.61,5.18,18.8,0l3.87-3.87c.78-.78.23-2.11-.87-2.11h-5.63s-.05.01-.06.02l-1.63,1.63c-2.8,2.81-7.36,2.8-10.16,0L10.42.02s-.04-.02-.06-.02h-5.63c-1.1,0-1.65,1.33-.87,2.11l3.87,3.87ZM9.12,1.82h.01c.33,0,.64.13.87.36l.75.75c1.7,1.7,3.96,2.64,6.36,2.64s4.67-.94,6.36-2.64l.76-.76c.23-.23.54-.36.87-.36h.01c1.1,0,1.65,1.33.87,2.11l-.76.76c-2.17,2.16-5.05,3.35-8.12,3.35s-5.95-1.2-8.11-3.35l-.76-.76c-.78-.78-.23-2.11.87-2.11Z"/>
      <path d="M34.22,10.41s.02-.04.02-.06v-5.62c0-1.1-1.33-1.65-2.11-.87l-3.87,3.87c-5.19,5.18-5.19,13.61,0,18.79l2.22,2.22,1.65,1.65c.78.78,2.11.23,2.11-.88v-5.62s-.01-.05-.02-.06l-1.63-1.63c-2.81-2.8-2.8-7.36,0-10.16l1.63-1.63ZM32.06,10l-.76.76c-1.7,1.7-2.64,3.96-2.64,6.37s.94,4.67,2.64,6.36l.76.76c.13.3.24.57.36.87h0c0,1.1-1.33,1.66-2.11.88l-.76-.76c-2.17-2.17-3.35-5.04-3.35-8.11s1.19-5.95,3.35-8.11l.76-.76c.78-.78,2.11-.23,2.11.88-.13.3-.24.57-.36.87Z"/>
      <path d="M5.98,7.72l-3.86-3.86c-.78-.78-2.11-.23-2.11.88v5.62s.01.05.02.06l1.63,1.63c2.8,2.8,2.81,7.36,0,10.16L.02,23.82s-.02.04-.02.06v5.62c0,1.1,1.33,1.65,2.11.87l3.86-3.86c5.19-5.18,5.19-13.61,0-18.79ZM3.93,25.99c-.78.78-2.11.23-2.11-.88h0c.12-.3.24-.57.36-.87l.76-.76c1.75-1.74,2.69-4.08,2.63-6.56-.05-2.41-1.15-4.68-2.85-6.39l-.54-.54c-.13-.3-.24-.57-.36-.87,0-1.1,1.33-1.65,2.11-.88l.76.76c2.17,2.17,3.35,5.04,3.35,8.11s-1.19,5.95-3.35,8.11l-.76.76Z"/>
    </g>
  </g>
</svg>