<?xml version="1.0" encoding="UTF-8"?>
<svg id="Layer_2" data-name="Layer 2" xmlns="http://www.w3.org/2000/svg" viewBox="0 0 57.76 34.4">
  <g id="Layer_1-2" data-name="Layer 1">
    <g>
      <path d="M40.58,4c7.02,0,12.77,5.5,13.17,12.41h4.01c-.41-9.12-7.97-16.41-17.18-16.41-3.97,0-7.64,1.36-10.55,3.63.97.91,1.84,1.93,2.59,3.04,2.21-1.67,4.97-2.67,7.96-2.67Z"/>
      <path d="M40.58,30.4c-3.53,0-6.73-1.39-9.1-3.65-1.05-.99-1.93-2.16-2.6-3.45,0,0,0,0,0,0h0c-.24-.46-.45-.93-.64-1.41-.56-1.46-.86-3.03-.86-4.68,0-2.61-.98-4.99-2.6-6.8-1.87-2.08-4.59-3.4-7.6-3.4-5.36,0-9.76,4.16-10.17,9.41h4.03c.38-3.05,2.99-5.41,6.14-5.41,3.42,0,6.2,2.78,6.2,6.2s-2.78,6.2-6.2,6.2c-3.15,0-5.76-2.37-6.15-5.42h-4.02c.4,5.27,4.8,9.42,10.17,9.42,3.01,0,5.73-1.31,7.6-3.4.41.96.92,1.88,1.5,2.75.13.2.27.4.42.59.61.84,1.31,1.63,2.07,2.36l.11.1c3.07,2.85,7.19,4.6,11.7,4.6,9.22,0,16.77-7.29,17.18-16.42h-4.01c-.4,6.92-6.15,12.42-13.17,12.42Z"/>
      <path d="M17.18,30.4c-7.02,0-12.77-5.5-13.17-12.42H0c.41,9.13,7.95,16.42,17.18,16.42,3.97,0,7.64-1.36,10.55-3.62-.97-.93-1.84-1.95-2.6-3.05-2.21,1.67-4.96,2.67-7.95,2.67Z"/>
      <path d="M17.18,4c3.53,0,6.73,1.39,9.1,3.65,1.05.99,1.93,2.16,2.6,3.45.96,1.83,1.5,3.9,1.5,6.1,0,2.61.98,5,2.6,6.8,1.87,2.09,4.58,3.4,7.6,3.4,5.36,0,9.77-4.15,10.17-9.42h-4.02c-.39,3.05-3,5.42-6.15,5.42-3.42,0-6.2-2.78-6.2-6.2s2.78-6.2,6.2-6.2c3.15,0,5.76,2.36,6.14,5.41h4.03c-.41-5.25-4.82-9.41-10.17-9.41-3.02,0-5.73,1.32-7.6,3.4-.21-.49-.45-.96-.7-1.43-.25-.45-.51-.89-.8-1.32-.75-1.11-1.62-2.13-2.6-3.04-.37-.34-.75-.67-1.15-.98-2.91-2.27-6.58-3.63-10.55-3.63C7.96,0,.41,7.29,0,16.41h4.01c.4-6.91,6.15-12.41,13.17-12.41Z"/>
    </g>
  </g>
</svg>