<?xml version="1.0" encoding="UTF-8"?>
<svg id="Layer_2" data-name="Layer 2" xmlns="http://www.w3.org/2000/svg" viewBox="0 0 47.29 47.47">
  <g id="Layer_1-2" data-name="Layer 1">
    <g>
      <path d="M5.97,27.23h-1.29c1.44,7.83,7.66,14.01,15.51,15.41v-1.3c-7.15-1.36-12.81-6.99-14.23-14.11Z"/>
      <path d="M20.17,6.07v-1.3c-7.86,1.41-14.07,7.64-15.5,15.49h1.3c1.39-7.15,7.04-12.8,14.2-14.19Z"/>
      <path d="M41.22,20.24h1.3c-1.43-7.8-7.58-13.98-15.37-15.45v1.3c7.1,1.43,12.68,7.05,14.07,14.15Z"/>
      <path d="M27.17,41.3v1.3c7.76-1.45,13.91-7.61,15.33-15.39h-1.29c-1.4,7.06-6.97,12.66-14.05,14.09Z"/>
      <polygon points="30.38 21.52 30.38 23.11 24.31 23.11 24.31 23.09 24.31 23.09 24.31 16.91 25.87 16.91 25.87 0 21.45 0 21.45 16.91 23.04 16.91 23.04 23.09 16.91 23.09 16.91 21.53 0 21.53 0 25.95 16.91 25.95 16.91 24.36 23.03 24.36 23.03 24.38 23.04 24.38 23.04 30.56 21.48 30.56 21.48 47.47 25.9 47.47 25.9 30.56 24.31 30.56 24.31 24.38 30.38 24.38 30.38 25.94 47.29 25.94 47.29 21.52 30.38 21.52"/>
    </g>
  </g>
</svg>