<?xml version="1.0" encoding="UTF-8"?>
<svg id="Layer_2" data-name="Layer 2" xmlns="http://www.w3.org/2000/svg" viewBox="0 0 39.53 39.53">
  <g id="Layer_1-2" data-name="Layer 1">
    <path d="M34.15,0H5.41C2.43,0,0,2.43,0,5.41v28.74c0,2.98,2.43,5.38,5.41,5.38h28.74c2.95,0,5.38-2.4,5.38-5.38V5.41c0-2.98-2.43-5.41-5.38-5.41ZM38.21,26.1c0,1.44-.55,2.83-1.57,3.84l-6.73,6.7c-1.01,1.01-2.37,1.6-3.81,1.6h-12.66c-1.44,0-2.8-.58-3.81-1.6l-6.73-6.7c-1.01-1.01-1.57-2.4-1.57-3.81v-12.7c0-1.41.55-2.8,1.57-3.81l6.73-6.73c1.01-1.01,2.37-1.57,3.81-1.57h12.66c1.45,0,2.8.55,3.81,1.57l6.73,6.73c1.01,1.01,1.57,2.4,1.57,3.81v12.66Z"/>
  </g>
</svg>