<?xml version="1.0" encoding="UTF-8"?>
<svg id="Layer_2" data-name="Layer 2" xmlns="http://www.w3.org/2000/svg" viewBox="0 0 34.3 36.53">
  <g id="Layer_1-2" data-name="Layer 1">
    <path d="M34.11,9.2c-.11-.22-1.32-1.21-1.56-1.29-.27-.09-.48-.02-.72-.25-.06-.06-.51-.75-.56-.86-.05-.11-.12-.26-.05-.37.33-.47.86-.9,1.16-1.39.15-.23.25-.42.06-.69-.08-.11-.81-.85-.93-.93-.19-.12-.4-.18-.61-.07-.19.1-.61.6-.8.79-.21.21-.53.76-.87.64-.2-.08-.63-.47-.88-.6-.28-.15-.75-.25-.94-.47-.27-.29-.23-1.34-.43-1.77-.09-.2-1.33-1.55-1.53-1.68-.26-.15-1.41-.27-1.74-.25-2.74.72-5.5,1.44-8.23,2.22-.33.09-1.66.43-1.83.59-.21.2-.35.9-.27,1.17.09.29.66.42.93.51.95.32,1.92.56,2.88.84.42.28-.42.38-.64.46-5.28,1.79-10.54,3.65-15.8,5.47C.46,11.47,0,12.44,0,12.79c0,.31.42,1.16.84,1.07l13.23-1.68c.23-.04.38.08.42.3.07.34,0,.87.04,1.26.12,1.29.76,2.87,1.44,3.97.15.25.98,1.2,1,1.3.01.07-.01.15-.03.22l-13.24,15.17c-.19.22-.16.44.04.63.1.1,1.2.9,1.3.93.18.06.35.02.49-.1l13.73-14.95c.29-.12.77.28,1.08.41.73.31,2.76.7,3.55.69.47,0,1.42-.11,1.88-.22.22-.06.69-.36.82-.08l-.62,14.23c.19.52.97.72,1.44.46.83-.45.91-.87,1.18-1.72,1.35-4.22,2.5-8.53,3.81-12.77.07-.33.42-.44.58-.66.21-.29.2-1.32.26-1.74.1-.66.6-1.96.53-2.48-.03-.22-.15-.44-.14-.69.08-1.66.51-3.49.66-5.17.04-.45.04-1.6-.16-1.99ZM32.91,8.86c.07.03.64.55.69.63.11.17.21.65-.09.54-.05-.02-.68-.53-.72-.59-.14-.2-.26-.75.13-.58ZM23.03,4.54c.34.04.97.22,1.32.32.12.03.38.11.47.17.26.17.15,1-.28.9-.4-.24-1.4-.24-1.74-.46-.3-.19-.25-.99.23-.92ZM23.27,12.97c.3-.38.92-1.05,1.27-1.39.08-.07.23-.24.33-.25.08,0,.12.02.18.07.11.06.84.8.87.89.02.04.03.09.02.13l-1.47,1.77c-.09.07-.2.12-.31.09-.12-.03-.98-.84-1.02-.95-.06-.19.02-.22.12-.36ZM31.16,3.96c.11-.08.83.51.63.71-.13.13-.65-.42-.66-.5-.01-.07.02-.13.03-.21ZM24.76.57c.1,0,.28.12.37.18.12.08.64.6.72.71.06.08.14.2.05.29-.16.12-.34.02-.49-.08-.08-.05-.81-.77-.84-.83-.08-.15.03-.28.19-.27ZM1.09,11.75l20.81-7.15c.41-.04.33.45.18.69-.16.26-.9.38-1.2.47-6.05,1.99-12.11,3.95-18.17,5.89-.45.14-1.15.46-1.57.54-.45.09-.32-.27-.05-.45ZM5.31,35.24c-.26.14-1.24-.44-.88-.83,4.61-5.21,9.2-10.45,13.81-15.67,1.36-1.54,2.69-3.23,4.09-4.71.29-.31.34-.33.67-.07.12.1.72.63.77.72.04.06.07.14.06.21L5.31,35.24ZM32.99,18.11c-.2.9-.59,1.85-.85,2.74-1.32,4.42-2.54,8.89-3.91,13.31-.07.25-.34,1.24-.52,1.35-.06.04-.08.04-.15.03l-.09-.11,4.88-17.39c.07-.12.36-.31.49-.31.22,0,.18.24.14.38ZM32.23,17.06l-.56-2.15c-.05-.35.58-.52.77-.29l.66,2.3c-.02.37-.76.57-.87.14Z"/>
  </g>
</svg>