<?xml version="1.0" encoding="UTF-8"?>
<svg id="Layer_2" data-name="Layer 2" xmlns="http://www.w3.org/2000/svg" viewBox="0 0 64.56 31.05">
  <g id="Layer_1-2" data-name="Layer 1">
    <path d="M64.36,29.99l-4.74-3.39-17.65-11.12,17.51-11.04,4.73-3.38c.17-.12.25-.34.18-.55-.06-.2-.25-.34-.46-.35l-8.72-.16-23,8.04L9.38.03l-.1-.03L.48.16c-.21.01-.4.15-.46.35-.06.2.01.43.18.55l4.75,3.39,17.64,11.12L5.07,26.61.35,29.99c-.17.12-.24.34-.18.54.06.21.25.35.46.35l8.72.17,23.01-8.04,22.83,8.01.1.03,8.79-.17c.21,0,.4-.14.46-.35.06-.2-.01-.42-.18-.54ZM32.56,22.04c-.07-.02-.14-.02-.2,0-.07-.02-.14-.02-.21,0l-23.67,5.44,15.3-11.49c.21-.17.26-.46.1-.68-.04-.06-.09-.11-.15-.14-.03-.04-.06-.08-.1-.11L8.33,3.56l23.67,5.45c.07,0,.14,0,.21,0,.06,0,.13,0,.2,0l23.67-5.45-15.3,11.5c-.21.16-.26.45-.1.67.03.06.09.09.14.13.03.04.07.09.11.13l15.3,11.49-23.67-5.44Z"/>
  </g>
</svg>