<?xml version="1.0" encoding="UTF-8"?>
<svg id="Layer_2" data-name="Layer 2" xmlns="http://www.w3.org/2000/svg" viewBox="0 0 30.45 30.45">
  <g id="Layer_1-2" data-name="Layer 1">
    <g>
      <path d="M25.99,4.47h0s0-.01-.01-.01C23.23,1.7,19.43,0,15.22,0S7.22,1.7,4.47,4.46h-.01C1.71,7.22,0,11.02,0,15.23s1.71,8.01,4.46,10.76h0s0,.01.01.01c2.75,2.75,6.55,4.45,10.75,4.45s8.01-1.7,10.76-4.45h.01c2.75-2.77,4.46-6.57,4.46-10.77s-1.7-8.01-4.46-10.76ZM24.86,22.01c-1.34.48-2.37,1.51-2.85,2.85-1,2.78-3.66,4.77-6.79,4.77s-5.79-1.99-6.78-4.77c-.48-1.34-1.51-2.37-2.85-2.85-2.78-1-4.78-3.66-4.78-6.79s1.99-5.79,4.78-6.79c1.34-.48,2.37-1.51,2.85-2.85.99-2.78,3.66-4.77,6.78-4.77s5.79,1.99,6.79,4.77c.48,1.34,1.51,2.37,2.85,2.85,2.78,1,4.77,3.66,4.77,6.79s-1.99,5.79-4.77,6.79Z"/>
      <circle cx="15.22" cy="15.22" r="10.08" transform="translate(-3.09 3.9) rotate(-13.28)"/>
    </g>
  </g>
</svg>