<?xml version="1.0" encoding="UTF-8"?>
<svg id="Layer_2" data-name="Layer 2" xmlns="http://www.w3.org/2000/svg" viewBox="0 0 47.15 36.31">
  <g id="Layer_1-2" data-name="Layer 1">
    <g>
      <circle cx="23.62" cy="23.08" r="10.83"/>
      <path d="M45.69,20.19l-.97-.68c-1.7-1.19-3.16-2.73-4.09-4.58-1.95-3.86-5.17-6.97-9.11-8.77-1.89-.86-3.47-2.29-4.67-3.99l-.51-.72c-1.38-1.94-4.26-1.94-5.63,0l-.57.81c-1.18,1.67-2.72,3.09-4.57,3.96-3.89,1.82-7.06,4.92-8.98,8.75-.92,1.83-2.36,3.35-4.03,4.53l-1.1.78c-1.94,1.38-1.94,4.26,0,5.63l.67.47c1.77,1.25,3.22,2.93,4.12,4.91.5,1.11,1.11,2.17,1.8,3.15.84,1.19,2.24,1.85,3.7,1.85h0s4.63,0,4.63,0c-5.16-2.92-8.39-8.86-7.28-15.4,1.01-5.96,5.76-10.78,11.7-11.89,9.35-1.74,17.54,5.42,17.54,14.47,0,5.49-3.02,10.29-7.49,12.82h4.62c1.46,0,2.86-.67,3.7-1.86.73-1.03,1.36-2.14,1.87-3.31.88-2,2.34-3.69,4.12-4.96l.52-.37c1.94-1.38,1.94-4.26,0-5.63Z"/>
    </g>
  </g>
</svg>