<?xml version="1.0" encoding="UTF-8"?>
<svg id="Layer_2" data-name="Layer 2" xmlns="http://www.w3.org/2000/svg" viewBox="0 0 42.65 40.22">
  <g id="Layer_1-2" data-name="Layer 1">
    <g>
      <path d="M31.21,17.49c.31.31,1.71.39,2.21.48,8.08,1.42,11.94,10.9,7.1,17.59-3.89,5.38-11.62,6.27-16.54,1.73-.7-.64-1.76-1.7-.84-2.65.74-.77,1.43.48,1.88.93,5.35,5.33,14.04,2.32,15.53-4.92,1.15-5.6-3.66-11.18-9.34-10.97-2.88.1-4.86,1.89-7.57,2.54-4.37,1.04-9.18-1.04-11.6-4.76-3.5-5.39-1.9-12.63,3.63-15.9,7.8-4.6,17.4,1.59,16.7,10.53-.07.91-.21,1.85-.51,2.71-.17.5-.87,1.85-.84,2.27,0,.12.1.35.19.43ZM20.67,2.02c-7.24.5-11.04,8.88-6.74,14.74,3.19,4.34,9.42,5.01,13.46,1.41,2.21-1.97,3.5-5.24,3.02-8.19-.77-4.8-4.8-8.3-9.74-7.96Z"/>
      <path d="M8.7,18.07c.63-.07,1.18-.02,1.57.53.36.51.17.91-.37,1.12-.65.26-1.44.38-2.12.64-3.74,1.44-6.3,5.57-5.82,9.58.8,6.69,8.16,10.55,14,6.89,3.03-1.9,4.88-5.7,4.24-9.27-.12-.66-.53-1.66-.56-2.26-.05-.97,1.11-.69,1.69-.69.26,0,.53-.07.82-.05.63.05.87.28.78.92-.1.71-.45,1.56-.57,2.33-.24,1.54-.13,3.07-.64,4.57-2.82,8.28-13.07,10.58-18.97,3.97-3.74-4.19-3.62-10.74.11-14.89,1.33-1.47,3.83-3.2,5.84-3.41Z"/>
      <path d="M30.83,24.01c2.47-.22,4.53,1.05,5.39,3.37,1.4,3.73-2.49,7.76-6.26,6.39-3.05-1.11-4.43-4.48-2.75-7.35.7-1.19,2.21-2.3,3.61-2.42Z"/>
      <path d="M14.68,32.5c-4.11,4.16-10.74-.95-7.85-6.01,1.31-2.3,4.22-3.23,6.58-1.96,2.96,1.6,3.68,5.53,1.27,7.97Z"/>
      <path d="M20.94,6.24c3.42-.3,6.24,3.19,5.14,6.46-1.57,4.7-7.94,4.73-9.53.03-1.04-3.06,1.23-6.21,4.39-6.49Z"/>
    </g>
  </g>
</svg>