<?xml version="1.0" encoding="UTF-8"?>
<svg id="Layer_2" data-name="Layer 2" xmlns="http://www.w3.org/2000/svg" viewBox="0 0 50.93 39.58">
  <defs>
    <style>
      .cls-1 {
        fill-rule: evenodd;
      }
    </style>
  </defs>
  <g id="Layer_1-2" data-name="Layer 1">
    <g>
      <path class="cls-1" d="M41.37,19.66c-1.42,1.47-2.2,3.4-2.2,5.43,0,7.5-6.1,13.6-13.6,13.6s-13.6-6.1-13.6-13.6h-.88c0,7.99,6.5,14.49,14.49,14.49s14.49-6.5,14.49-14.49c0-1.81.69-3.52,1.95-4.82,1.32-1.38,3.1-2.14,5.01-2.14h3.92v-.88h-3.92c-2.15,0-4.16.86-5.64,2.41Z"/>
      <path class="cls-1" d="M47.02.88h3.92V0h-3.92C40.08,0,33.4,2.92,28.65,8.01c-.04,0-.09-.01-.11-.01-.06-.02-.11-.03-.17-.04h-.01s-.04,0-.04,0c0,0,0,0,0,0h0c-.05,0-.1-.02-.15-.02-.16-.03-.3-.05-.4-.05-.08-.02-.16-.03-.29-.04,0,0,0,0,0,0-.25-.04-.52-.06-.74-.06,0,0,0,0,0,0,0,0,0,0,0,0,0,0,0,0,0,0-.29-.03-.59-.04-.85-.04-.2-.02-.42-.02-.54,0-.3,0-.61,0-.87.04,0,0,0,0,0,0,0,0,0,0,0,0-.27.02-.54.04-.83.07-.05,0-.11.01-.17.03-.02,0-.05,0-.08,0-.2.02-.41.05-.53.08l-.15.02s0,0,0,0h0c-.07.01-.14.02-.2.04C17.71,2.92,11.03,0,4.09,0H0v.88h4.09c6.52,0,12.79,2.67,17.35,7.35-.1.03-.2.05-.29.08-.05,0-.13.02-.21.05h-.04c-.15.05-.31.1-.46.15l-.19.06s-.06.02-.1.03l-.08.03c-.18.05-.34.11-.51.18h-.03c-.1.04-.18.08-.25.11C15.15,5.02,9.77,2.88,4.09,2.88H0v.88h4.09c5.32,0,10.35,1.97,14.29,5.53-.1.04-.19.09-.26.13-.06.02-.11.05-.15.07-.06.02-.12.05-.14.07-.23.11-.46.23-.66.35h0s0,0,0,0c-.18.1-.37.21-.54.32-.04.02-.07.04-.11.06-3.48-2.93-7.87-4.54-12.41-4.54H0v.88h4.09c4.43,0,8.72,1.61,12.09,4.52.7.6,1.38,1.28,2.03,2.05.56.66,1.1,1.39,1.59,2.19l.09.17.1.15c.24.41.45.81.65,1.21-.58.37-1.11.81-1.58,1.3-.23-.51-.49-1.01-.78-1.49-.51-.87-1.1-1.68-1.74-2.41-.64-.75-1.35-1.44-2.13-2.06-2.91-2.34-6.57-3.63-10.32-3.63H0v.88h4.08c3.55,0,7.01,1.22,9.77,3.44.73.59,1.41,1.24,2.01,1.95.61.7,1.17,1.46,1.65,2.29.34.57.63,1.17.89,1.78-.54.69-.97,1.45-1.3,2.27-.21-.7-.45-1.39-.77-2.05l-.04-.07h0c-.46-.94-1.03-1.83-1.71-2.64-.63-.77-1.35-1.48-2.14-2.09-2.41-1.89-5.3-2.88-8.36-2.88H0v.88h4.09c2.86,0,5.57.93,7.82,2.7.74.57,1.41,1.23,2,1.95.65.78,1.2,1.64,1.63,2.53l.04.07c.52,1.08.85,2.22,1.04,3.39-.08.5-.14,1.01-.14,1.53,0,2.32.88,4.44,2.31,6.04,1.6,1.97,4.04,3.23,6.77,3.23,2.55,0,4.83-1.1,6.43-2.84.05-.05.09-.1.13-.15.06-.07.12-.13.17-.19,1.46-1.61,2.35-3.74,2.35-6.09,0-.56-.06-1.1-.15-1.63.19-1.13.52-2.23,1.02-3.28l.04-.08c.43-.9.98-1.75,1.63-2.54.59-.72,1.27-1.38,2-1.95,2.25-1.76,4.95-2.69,7.81-2.69h3.92v-.88h-3.92c-3.06,0-5.95,1-8.36,2.88-.79.61-1.51,1.31-2.14,2.09-.68.82-1.26,1.71-1.71,2.65l-.04.07c-.31.65-.55,1.32-.76,2-.33-.82-.77-1.57-1.3-2.25.26-.6.54-1.2.88-1.76.48-.82,1.03-1.59,1.65-2.29.6-.71,1.28-1.36,2.01-1.95,2.75-2.22,6.22-3.44,9.76-3.44h3.91v-.88h-3.91c-3.75,0-7.41,1.29-10.32,3.63-.78.62-1.49,1.32-2.13,2.06-.65.74-1.24,1.55-1.74,2.42-.28.47-.54.96-.77,1.46-.48-.49-1.01-.92-1.59-1.29.2-.4.41-.8.65-1.2l.06-.11.13-.21c.5-.79,1.03-1.53,1.59-2.18.64-.76,1.32-1.45,2.03-2.05,3.36-2.92,7.65-4.52,12.08-4.52h3.92v-.88h-3.92c-4.54,0-8.92,1.61-12.4,4.53-.02-.01-.03-.02-.05-.03l-.03-.02s0,0,0,0l-.1-.06c-.1-.07-.21-.13-.32-.19l-.07-.04s-.04-.02-.06-.03l-.39-.21c-.07-.04-.13-.07-.2-.1h0s0,0,0,0h0s-.22-.11-.22-.11c-.14-.07-.29-.13-.43-.2,3.93-3.56,8.97-5.53,14.28-5.53h3.92v-.88h-3.92c-5.67,0-11.05,2.14-15.19,6.03-.09-.04-.19-.07-.24-.09-.18-.08-.37-.14-.5-.17-.06-.03-.13-.05-.26-.09-.21-.07-.42-.13-.56-.16-.08-.04-.18-.06-.22-.06-.12-.03-.24-.06-.37-.09C34.22,3.56,40.5.88,47.02.88ZM25.57,15.47c-1.5,0-2.92.37-4.16,1.02-.17-.34-.36-.68-.55-1.02.27-.14.56-.26.85-.38.16-.07.33-.13.51-.18.03,0,.05-.02.08-.03.19-.07.38-.12.58-.17.4-.11.82-.19,1.25-.25.1-.01.2-.03.36-.04.04,0,.09-.01.18-.02.11-.01.23-.02.35-.03.36-.01.75-.01,1.09,0,.12,0,.24.01.4.03.04,0,.09,0,.19.02.1,0,.19.02.31.03.42.05.83.14,1.25.25.24.06.47.14.7.21.12.04.23.07.35.12l.13.05c.28.11.55.23.82.37-.19.34-.38.68-.55,1.02-1.24-.64-2.65-1-4.14-1ZM30.72,14.69s0,0,0,0c-.22-.11-.45-.22-.68-.31l-.28-.12s-.07-.02-.11-.03h-.02c-.2-.08-.4-.15-.59-.21-.14-.05-.27-.08-.41-.12l-.14-.04c-.2-.05-.4-.11-.59-.14-.02,0-.03,0-.05,0-.24-.05-.48-.09-.74-.12-.12-.01-.23-.03-.29-.03h0c-.1-.02-.2-.03-.25-.03-.13-.02-.27-.02-.41-.03-.38-.02-.78-.02-1.18,0-.14,0-.28.02-.36.03-.1,0-.2,0-.24.02-.13,0-.25.02-.37.04-.47.06-.92.15-1.35.27,0,0-.02,0-.03,0-.28.07-.53.15-.78.23-.16.05-.32.1-.48.16l-.28.12h0c-.22.1-.44.2-.66.31,0,0-.01,0-.02,0,0,0-.02,0-.03.01-.37-.58-.77-1.12-1.18-1.63.07-.04.14-.08.21-.11.12-.06.26-.12.38-.18.12-.06.24-.12.37-.17.03-.01.07-.03.1-.04.21-.09.43-.18.65-.26.16-.06.32-.12.56-.19.06-.02.11-.04.2-.06.16-.05.32-.09.49-.14.21-.06.43-.11.64-.15l.07-.02c.2-.04.4-.07.6-.1.25-.04.51-.07.77-.1.2-.02.4-.03.61-.04.46-.03.92-.03,1.4,0,.19,0,.37.02.55.04.03,0,.06,0,.09,0,.25.03.49.05.74.09.18.03.36.06.53.09l.14.03c.22.04.44.1.66.15.16.04.32.08.5.14.07.02.15.05.25.08.16.05.32.1.48.16.09.03.17.07.26.1.01,0,.01,0,.03.01.16.05.31.12.48.19.21.09.42.18.62.29l.11.05c.07.03.13.07.19.1-.41.51-.81,1.05-1.18,1.63ZM29.98,9.22c.19.05.38.11.65.19l.12.05c.17.05.33.11.53.19.08.02.16.05.25.1l.23.09c.12.05.25.1.38.16.21.09.42.19.63.29l.22.11c.08.04.15.07.25.13l.38.2c.09.05.18.1.27.16l.03.02c-.5.45-.98.94-1.44,1.47-.12-.07-.24-.14-.37-.2,0,0-.01,0-.01,0-.03-.02-.05-.03-.07-.03-.26-.13-.52-.25-.8-.37-.12-.06-.24-.1-.34-.14-.05-.02-.09-.04-.14-.06-.03-.01-.07-.03-.11-.04-.04-.02-.09-.04-.13-.05-.01,0-.03,0-.04-.01h0c-.17-.06-.34-.13-.48-.16-.09-.03-.19-.06-.25-.08-.18-.06-.36-.11-.54-.15-.19-.05-.4-.1-.6-.14l-.18-.04c-.2-.04-.41-.07-.62-.11,0,0,0,0-.01,0,0,0,0,0-.01,0-.1-.02-.19-.03-.26-.03-.16-.02-.32-.04-.54-.07-.22-.02-.44-.04-.65-.04-.49-.03-1.01-.03-1.48,0-.22,0-.44.02-.66.05-.28.03-.56.06-.82.1-.22.04-.44.07-.57.11h-.14s-.04.03-.04.03c-.22.04-.44.09-.64.15-.18.05-.36.09-.51.14-.08.02-.16.05-.27.08-.15.04-.31.1-.48.16-.02,0-.04.01-.06.02-.01,0-.03.01-.04.02,0,0,0,0,0,0-.03.01-.05.02-.08.03-.52.19-1.01.41-1.47.65-.13.07-.26.14-.38.21-.46-.53-.95-1.02-1.44-1.47.13-.08.25-.15.39-.23.2-.12.4-.23.62-.33l.19-.09-.22-.38.31.34c.17-.09.34-.16.52-.24.12-.05.25-.11.37-.16l.24-.09c.07-.03.15-.06.22-.08l.12-.04h.01c.11-.05.21-.09.32-.12l.41-.13c.12-.04.25-.08.37-.11l.24-.06c.22-.06.45-.12.66-.17h.1l.09-.03c.2-.05.41-.09.62-.12l.09-.02c.18-.03.37-.06.5-.08.03,0,.06,0,.09,0h.09s.09-.03.14-.03c.25-.03.5-.05.77-.06.26-.02.54-.03.86-.04.07,0,.14,0,.21,0,.06,0,.13,0,.21,0,.01,0,.02,0,.04,0,.27,0,.54,0,.84.04.24.01.47.03.75.06.04,0,.09,0,.19.03.15.02.32.04.49.07l.25.04c.13.02.26.04.44.08.08.02.17.03.34.07l.08.02c.21.04.42.1.62.15l.17.05Z"/>
      <path class="cls-1" d="M40.22,16.81c-.84.69-1.56,1.5-2.17,2.4-1.15,1.74-1.76,3.77-1.76,5.88,0,5.92-4.81,10.73-10.73,10.73s-10.73-4.81-10.73-10.73h-.88c0,6.4,5.21,11.61,11.61,11.61s11.61-5.21,11.61-11.61c0-1.93.56-3.8,1.62-5.39.55-.84,1.22-1.58,1.99-2.21,1.76-1.44,3.97-2.23,6.23-2.23h3.92v-.88h-3.92c-2.47,0-4.88.86-6.79,2.43Z"/>
      <path class="cls-1" d="M9.74,19.66c-1.49-1.55-3.49-2.41-5.65-2.41H0v.88h4.09c1.91,0,3.69.76,5.01,2.14,1.26,1.3,1.95,3.01,1.95,4.82h.88c0-2.04-.78-3.96-2.2-5.43Z"/>
      <path class="cls-1" d="M10.32,17.49c.77.63,1.44,1.37,1.99,2.21,1.06,1.6,1.62,3.46,1.62,5.39h.88c0-2.1-.61-4.14-1.76-5.88-.6-.91-1.33-1.72-2.17-2.41-1.92-1.57-4.33-2.43-6.79-2.43H0v.88h4.09c2.26,0,4.47.79,6.23,2.23Z"/>
    </g>
  </g>
</svg>