<?xml version="1.0" encoding="UTF-8"?>
<svg id="Layer_2" data-name="Layer 2" xmlns="http://www.w3.org/2000/svg" viewBox="0 0 59.52 46.3">
  <defs>
    <style>
      .cls-1 {
        fill-rule: evenodd;
      }
    </style>
  </defs>
  <g id="Layer_1-2" data-name="Layer 1">
    <path class="cls-1" d="M19.08.88v7.21c0,.48-.4.88-.89.88h-7.21c-.48,0-.88.4-.88.88v6.53c0,.48-.4.88-.88.88H.88c-.48,0-.88.4-.88.88v10.02c0,.48.4.88.88.88h8.37c.48,0,.88.4.88.88v7.19c0,.48.4.88.88.88h7.18c.49,0,.89.4.89.88v6.55c0,.49.38.88.88.88h19.61c.49,0,.88-.38.88-.88v-7.21c0-.48.4-.88.89-.88h7.21c.48,0,.88-.4.88-.88v-6.53c0-.48.4-.88.88-.88h8.33c.48,0,.88-.4.88-.88v-10.02c0-.48-.4-.88-.88-.88h-8.37c-.48,0-.88-.4-.88-.88v-7.18c0-.49-.4-.89-.88-.89h-7.18c-.49,0-.89-.38-.89-.88V.88c0-.48-.38-.88-.88-.88h-19.61c-.49,0-.88.4-.88.88ZM36.76,29.04c.49,0,.88.4.88.88v3.73c0,.48-.38.88-.88.88h-13.97c-.48,0-.88-.4-.88-.88v-3.73c0-.48.4-.88.88-.88h13.97ZM18.18,26.2h-5.52c-.48,0-.88-.4-.88-.88v-3.68c0-.48.4-.88.88-.88h5.52c.49,0,.89.4.89.88v3.68c0,.48-.4.88-.89.88ZM46.86,20.1c.48,0,.88.4.88.88v3.68c0,.48-.4.88-.88.88h-5.52c-.49,0-.89-.4-.89-.88v-3.68c0-.48.4-.88.89-.88h5.52ZM36.73,11.77c.48,0,.88.4.88.88v3.73c0,.48-.4.88-.88.88h-13.97c-.49,0-.88-.4-.88-.88v-3.73c0-.48.38-.88.88-.88h13.97Z"/>
  </g>
</svg>