<?xml version="1.0" encoding="UTF-8"?>
<svg id="Layer_2" data-name="Layer 2" xmlns="http://www.w3.org/2000/svg" viewBox="0 0 53.17 41.71">
  <g id="Layer_1-2" data-name="Layer 1">
    <g>
      <path d="M52.51,8.3c-.89-.89-2.34-.89-3.23,0l-1.28,1.28v-3.55c0-3.32-2.7-6.02-6.02-6.02h-22C11.82,0,5.19,6.63,5.19,14.78v4.39c0,1.26,1.02,2.29,2.29,2.29s2.29-1.02,2.29-2.29v-4.39c0-5.63,4.58-10.21,10.21-10.21h22c.8,0,1.45.65,1.45,1.45v3.55l-1.28-1.28c-.89-.89-2.34-.89-3.23,0s-.89,2.34,0,3.23l5.19,5.19c.45.45,1.03.67,1.62.67s1.17-.22,1.62-.67l5.19-5.19c.89-.89.89-2.34,0-3.23Z"/>
      <path d="M45.64,19.31c-1.26,0-2.29,1.02-2.29,2.29v4.72c0,5.97-4.86,10.82-10.82,10.82H9.76s-.06-.03-.06-.06v-6.47l1.34,1.34c.45.45,1.03.67,1.62.67s1.17-.22,1.62-.67c.89-.89.89-2.34,0-3.23l-5.19-5.19c-.89-.89-2.34-.89-3.23,0L.67,28.71c-.89.89-.89,2.34,0,3.23.89.89,2.34.89,3.23,0l1.22-1.22v6.35c0,2.56,2.08,4.64,4.64,4.64h22.77c8.49,0,15.4-6.91,15.4-15.4v-4.72c0-1.26-1.02-2.29-2.29-2.29Z"/>
      <path d="M18.6,24.8l-2.89,1.58,2.53,2.11c.19.16.49.49.65.69l1.2,1.5,1.67-.96c2.67-1.53,5.02-3.8,6.23-5.06,1.72,1.53,3.52,3.31,4.6,4.56l1.4,1.62,4.78-3.73-1.62-1.79c-1.52-1.69-3.84-3.81-5.52-5.26.92-1.43,1.76-2.97,2.41-4.46.09-.09.16-.19.24-.3l1.22-1.83-3.83-2.67-.97.37h-11.71v5.76h7.73c-2.11,3.32-5.07,6.18-8.13,7.86Z"/>
    </g>
  </g>
</svg>