<?xml version="1.0" encoding="UTF-8"?>
<svg id="Layer_2" data-name="Layer 2" xmlns="http://www.w3.org/2000/svg" viewBox="0 0 50.33 46.75">
  <g id="Layer_1-2" data-name="Layer 1">
    <g>
      <path d="M33.09,7.89c-3.52-6.1-12.33-6.1-15.85,0L4.64,29.7c-3.52,6.1.88,13.73,7.93,13.73h10.46c.28,0,.42-.34.22-.53l-.28-.28c-.41-.41-.97-.64-1.55-.64h-2.03l-6.38-.06c-2.81,0-5.32-1.45-6.73-3.89-1.4-2.43-1.4-5.34,0-7.77l12.05-20.86c1.41-2.44,3.97-4.05,6.79-4.07,2.83-.02,5.36,1.44,6.77,3.88l12.15,21.05c1.41,2.43,1.41,5.34,0,7.77-1.4,2.43-3.92,3.89-6.73,3.89h-3.72c-4.31,0-8.04-2.92-9.08-7.11-.13-.51-.21-1.03-.25-1.53-.02-.24-.03-.48-.03-.72v-3.36c0-1.18-.46-2.3-1.31-3.14-.83-.84-1.95-1.3-3.13-1.3h-.91v-1.86h.91c1.68,0,3.26.66,4.45,1.85h0v-8.47h1.86v8.48c1.19-1.17,2.75-1.86,4.42-1.86h.91v1.86h-.91c-1.19,0-2.31.46-3.14,1.3-.84.84-1.3,1.95-1.3,3.14v3.36c0,.23,0,.45.03.68.34,3.82,3.63,6.82,7.47,6.82h3.71c2.14,0,4.05-1.11,5.12-2.96,1.06-1.85,1.06-4.06,0-5.91l-12.15-21.05c-1.07-1.85-2.98-2.95-5.12-2.95s-4.05,1.1-5.12,2.95L7.89,31.2c-1.06,1.85-1.06,4.06,0,5.91,1.07,1.85,2.98,2.96,5.11,2.96l6.38.06h2.03c1.08,0,2.1.42,2.86,1.19l.84.84c.82.83,1.94,1.29,3.11,1.29h9.53c7.05,0,11.45-7.63,7.93-13.73l-12.59-21.81Z"/>
      <path d="M48.71,28.84l-13.21-22.87c-2.16-3.74-6.02-5.97-10.34-5.97s-8.18,2.23-10.34,5.97L1.62,28.84c-2.16,3.74-2.16,8.2,0,11.94,2.16,3.74,6.02,5.97,10.34,5.97h26.41c4.32,0,8.18-2.23,10.34-5.97,2.16-3.74,2.16-8.2,0-11.94ZM47.19,39.91c-1.84,3.19-5.14,5.09-8.82,5.09H11.96c-3.68,0-6.98-1.9-8.82-5.09-1.84-3.19-1.84-7,0-10.19L16.34,6.84c1.84-3.19,5.14-5.09,8.82-5.09s6.98,1.9,8.82,5.09l13.21,22.87c1.84,3.19,1.84,7,0,10.19Z"/>
    </g>
  </g>
</svg>