<?xml version="1.0" encoding="UTF-8"?>
<svg id="Layer_2" data-name="Layer 2" xmlns="http://www.w3.org/2000/svg" viewBox="0 0 32.37 35.71">
  <g id="Layer_1-2" data-name="Layer 1">
    <g>
      <path d="M17.7,6.58c.81-.8.81-2.11,0-2.91-.8-.81-2.11-.81-2.91,0-.81.8-.81,2.11,0,2.91s2.11.81,2.91,0Z"/>
      <path d="M18.51,13.17l13.86-8.41-.5-.87-14.24,7.75c-.18.1-.38.17-.58.23v-.02c.03-1.04.57-1.98,1.46-2.52L32.37.92l-.5-.87-14.24,7.75c-.91.5-2,.5-2.92,0L.51,0,.01.87l13.83,8.45c.89.54,1.43,1.49,1.45,2.53v.02c-.2-.06-.39-.13-.58-.23L.51,3.84,0,4.71l13.83,8.45c.89.54,1.43,1.49,1.45,2.52-.2-.06-.39-.13-.58-.23L.5,7.66l-.5.87,13.83,8.45c.89.54,1.43,1.49,1.45,2.53l.35,16.2h1s.41-16.2.41-16.2c.03-1.04.57-1.98,1.46-2.52l13.86-8.41-.5-.87-14.24,7.75c-.18.1-.38.17-.58.23.03-1.04.57-1.98,1.46-2.52Z"/>
    </g>
  </g>
</svg>