<?xml version="1.0" encoding="UTF-8"?>
<svg id="Layer_2" data-name="Layer 2" xmlns="http://www.w3.org/2000/svg" viewBox="0 0 50.42 45.86">
  <g id="Layer_1-2" data-name="Layer 1">
    <g>
      <path d="M35.94,22.44c-.38,0-.69.31-.69.69s.31.69.69.69c.06,0,.11,0,.17-.02l14.16,16.06.17-.15-14.11-16.01c.16-.1.26-.27.3-.46h5.73l.1.21.1-.05-.08-.16h6.56v.34c0,.09.08.17.17.17s.17-.08.17-.17v-.91c0-.09-.08-.17-.17-.17s-.17.08-.17.17v.34h-6.56l.08-.16-.1-.05-.1.21h-5.73c-.03-.19-.14-.36-.3-.46l14.11-16.01-.17-.15-14.16,16.06c-.05-.01-.11-.02-.17-.02Z"/>
      <path d="M14.49,23.82c.38,0,.69-.31.69-.69s-.31-.69-.69-.69c-.06,0-.11,0-.17.02L.17,6.4l-.17.15.04.04.14.29.08-.04,13.85,15.71c-.16.1-.26.27-.3.46h-5.6l-.1-.21-.1.05.08.16H1.57v-.34c0-.09-.08-.17-.17-.17s-.17.08-.17.17v.91c0,.09.08.17.17.17s.17-.08.17-.17v-.34h6.52s-.08.16-.08.16l.1.05.1-.21h5.6c.03.19.14.36.3.46L.26,39.42l-.08-.04-.14.29-.04.04.17.15,14.16-16.06c.05.01.11.02.17.02Z"/>
      <path d="M24.96,14.92c-.2,0-.41.01-.61.03v.11c.21-.02.41-.03.61-.03v6.21s-1.62,0-1.62,0l-7.76-7.76-.16.16,7.74,7.74v1.64h-6.33v.22h6.33v1.78h1.8v6.21c-.06,0-.13,0-.19,0v.11c.06,0,.13,0,.19,0v14.52s.22,0,.22,0v-14.52c.08,0,.17,0,.25,0v-.11c-.09,0-.17,0-.25,0v-6.21h1.62l7.84,7.84.16-.16-3.85-3.85c.11-.12.23-.24.33-.36l-.08-.07c-.11.12-.22.24-.33.36l-3.94-3.94v-1.6h6.65v-.22h-6.65v-1.78h-1.76v-6.21c.18,0,.37,0,.55.02v-.11c-.18-.01-.36-.02-.55-.02V0h-.22v14.92ZM24.96,21.35v1.18h-.33l-1.18-1.18h1.51ZM23.28,21.49l1.2,1.2v.33h-1.2v-1.53ZM23.28,24.91v-1.66h1.2v.49h.49v1.18h-1.69ZM25.18,24.91v-1.18h.33l1.18,1.18h-1.51ZM26.83,24.73l-1.16-1.16v-.33h1.16v1.49ZM26.83,21.35v1.67h-1.16v-.49s-.49,0-.49,0v-1.18h1.65Z"/>
      <rect x="15.43" y="7.36" width=".25" height="1.2"/>
      <rect x="14.97" y="7.36" width=".25" height=".57"/>
      <rect x="14.97" y="38.22" width=".25" height=".57"/>
      <rect x="6.28" y="38.22" width=".25" height=".57"/>
      <rect x="6.28" y="7.36" width=".25" height=".57"/>
      <rect x="15.43" y="37.59" width=".25" height="1.2"/>
      <rect x="32.75" y="37.59" width=".25" height="1.2"/>
      <rect x="33.21" y="38.22" width=".25" height=".57"/>
      <rect x="33.21" y="7.36" width=".25" height=".57"/>
      <rect x="41.89" y="7.36" width=".25" height=".57"/>
      <rect x="41.89" y="38.22" width=".25" height=".57"/>
      <rect x="32.75" y="7.36" width=".25" height="1.2"/>
      <polygon points="22.67 7.79 22.09 7.79 22.09 7.21 21.98 7.21 21.98 7.79 21.4 7.79 21.4 7.9 21.98 7.9 21.98 8.47 22.09 8.47 22.09 7.9 22.67 7.9 22.67 7.79"/>
      <rect x="5.55" y="27.81" width=".66" height=".11" transform="translate(-21.73 20.89) rotate(-63.89)"/>
      <rect x="4.97" y="29" width=".66" height=".11" transform="translate(-23.12 21.03) rotate(-63.89)"/>
      <rect x="6.13" y="26.63" width=".66" height=".11" transform="translate(-20.34 20.74) rotate(-63.89)"/>
      <rect x="6.71" y="25.45" width=".66" height=".11" transform="translate(-18.96 20.61) rotate(-63.91)"/>
      <rect x="7.29" y="24.26" width=".66" height=".11" transform="translate(-17.57 20.46) rotate(-63.89)"/>
      <rect x="3.81" y="31.36" width=".66" height=".11" transform="translate(-25.89 21.31) rotate(-63.89)"/>
      <rect x=".33" y="38.46" width=".66" height=".11" transform="translate(-34.21 22.16) rotate(-63.89)"/>
      <rect x="3.23" y="32.55" width=".66" height=".11" transform="translate(-27.28 21.45) rotate(-63.89)"/>
      <rect x=".91" y="37.28" width=".66" height=".11" transform="translate(-32.83 22.02) rotate(-63.89)"/>
      <rect x="1.49" y="36.09" width=".66" height=".11" transform="translate(-31.44 21.88) rotate(-63.89)"/>
      <rect x="2.65" y="33.73" width=".66" height=".11" transform="translate(-28.67 21.6) rotate(-63.91)"/>
      <rect x="2.07" y="34.91" width=".66" height=".11" transform="translate(-30.05 21.74) rotate(-63.89)"/>
      <rect x="4.39" y="30.18" width=".66" height=".11" transform="translate(-24.5 21.17) rotate(-63.89)"/>
      <rect x="5.25" y="16.88" width=".11" height=".66" transform="translate(-7.02 4.08) rotate(-26.06)"/>
      <rect x="4.67" y="15.7" width=".11" height=".66" transform="translate(-6.56 3.71) rotate(-26.06)"/>
      <rect x="5.83" y="18.07" width=".11" height=".66" transform="translate(-7.48 4.46) rotate(-26.06)"/>
      <rect x="6.41" y="19.25" width=".11" height=".66" transform="translate(-7.95 4.83) rotate(-26.06)"/>
      <rect x="7.57" y="21.62" width=".11" height=".66" transform="translate(-8.87 5.58) rotate(-26.06)"/>
      <rect x="6.99" y="20.43" width=".11" height=".66" transform="translate(-8.41 5.21) rotate(-26.06)"/>
      <rect x="4.09" y="14.52" width=".11" height=".66" transform="translate(-6.1 3.33) rotate(-26.06)"/>
      <rect x=".61" y="7.42" width=".11" height=".66" transform="translate(-3.34 1.08) rotate(-26.06)"/>
      <rect x="1.19" y="8.6" width=".11" height=".66" transform="translate(-3.8 1.45) rotate(-26.06)"/>
      <rect x="2.93" y="12.15" width=".11" height=".66" transform="translate(-5.18 2.58) rotate(-26.06)"/>
      <rect x="2.35" y="10.97" width=".11" height=".66" transform="translate(-4.72 2.21) rotate(-26.06)"/>
      <rect x="1.77" y="9.78" width=".11" height=".66" transform="translate(-4.26 1.83) rotate(-26.06)"/>
      <rect x="3.51" y="13.33" width=".11" height=".66" transform="translate(-5.64 2.96) rotate(-26.06)"/>
      <rect x="50.1" y="6.91" width=".33" height=".11" transform="translate(21.89 49.04) rotate(-63.89)"/>
      <rect x="47.73" y="11.43" width=".65" height=".11" transform="translate(16.59 49.58) rotate(-63.88)"/>
      <rect x="49.44" y="7.93" width=".65" height=".11" transform="translate(20.69 49.16) rotate(-63.88)"/>
      <rect x="48.87" y="9.1" width=".65" height=".11" transform="translate(19.32 49.3) rotate(-63.88)"/>
      <rect x="48.3" y="10.26" width=".65" height=".11" transform="translate(17.96 49.44) rotate(-63.88)"/>
      <rect x="46.02" y="14.92" width=".65" height=".11" transform="translate(12.5 49.99) rotate(-63.88)"/>
      <rect x="47.16" y="12.59" width=".65" height=".11" transform="translate(15.23 49.72) rotate(-63.88)"/>
      <rect x="46.59" y="13.75" width=".65" height=".11" transform="translate(13.86 49.85) rotate(-63.88)"/>
      <rect x="44.88" y="17.25" width=".65" height=".11" transform="translate(9.77 50.27) rotate(-63.88)"/>
      <rect x="44.31" y="18.41" width=".65" height=".11" transform="translate(8.4 50.41) rotate(-63.88)"/>
      <rect x="42.6" y="21.9" width=".65" height=".11" transform="translate(4.32 50.84) rotate(-63.9)"/>
      <rect x="45.45" y="16.08" width=".65" height=".11" transform="translate(11.13 50.13) rotate(-63.88)"/>
      <rect x="43.74" y="19.58" width=".65" height=".11" transform="translate(7.05 50.56) rotate(-63.9)"/>
      <rect x="43.17" y="20.74" width=".65" height=".11" transform="translate(5.68 50.7) rotate(-63.9)"/>
      <rect x="49.14" y="36.79" width=".11" height=".65" transform="translate(-11.3 25.39) rotate(-26.06)"/>
      <rect x="49.71" y="37.95" width=".11" height=".65" transform="translate(-11.76 25.76) rotate(-26.06)"/>
      <rect x="48.57" y="35.62" width=".11" height=".65" transform="translate(-10.85 25.02) rotate(-26.06)"/>
      <rect x="47.43" y="33.29" width=".11" height=".65" transform="translate(-9.94 24.28) rotate(-26.06)"/>
      <rect x="44.01" y="26.31" width=".11" height=".65" transform="translate(-7.22 22.07) rotate(-26.06)"/>
      <rect x="44.58" y="27.47" width=".11" height=".65" transform="translate(-7.67 22.44) rotate(-26.06)"/>
      <rect x="42.86" y="23.98" width=".11" height=".65" transform="translate(-6.31 21.33) rotate(-26.06)"/>
      <rect x="45.15" y="28.64" width=".11" height=".65" transform="translate(-8.13 22.81) rotate(-26.06)"/>
      <rect x="48" y="34.46" width=".11" height=".65" transform="translate(-10.4 24.65) rotate(-26.06)"/>
      <rect x="43.43" y="25.14" width=".11" height=".65" transform="translate(-6.77 21.7) rotate(-26.06)"/>
      <rect x="46.86" y="32.13" width=".11" height=".65" transform="translate(-9.49 23.91) rotate(-26.06)"/>
      <rect x="46.29" y="30.97" width=".11" height=".65" transform="translate(-9.04 23.54) rotate(-26.06)"/>
      <rect x="45.72" y="29.8" width=".11" height=".65" transform="translate(-8.58 23.18) rotate(-26.06)"/>
      <rect x="50.21" y="39.13" width=".11" height=".33" transform="translate(-12.15 26.08) rotate(-26.06)"/>
      <path d="M27.16,8.42v.11c.25,0,.48-.13.6-.34l-.1-.06c-.1.18-.29.29-.5.29Z"/>
      <path d="M26.57,8.18l.1-.05c-.1-.18-.1-.41,0-.58l-.1-.06c-.12.21-.13.48,0,.69Z"/>
      <path d="M27.77,7.5c-.12-.21-.35-.35-.6-.35v.11c.21,0,.4.11.5.29l.1-.06Z"/>
      <polygon points="22.67 38.13 22.09 38.13 22.09 37.55 21.98 37.55 21.98 38.13 21.4 38.13 21.4 38.24 21.98 38.24 21.98 38.82 22.09 38.82 22.09 38.24 22.67 38.24 22.67 38.13"/>
      <path d="M27.16,38.76v.11c.25,0,.48-.13.6-.34l-.1-.06c-.1.18-.29.29-.5.29Z"/>
      <path d="M27.17,37.61c.21,0,.4.11.5.29l.1-.06c-.12-.21-.35-.35-.6-.35v.11Z"/>
      <path d="M26.57,38.52l.1-.05c-.1-.18-.1-.41,0-.58l-.1-.06c-.12.21-.13.48,0,.69Z"/>
      <path d="M28.61,30.42l.05.1c.2-.1.4-.2.59-.32l-.06-.1c-.19.11-.38.22-.58.31Z"/>
      <path d="M29.74,29.75l.06.09c.18-.13.36-.27.53-.41l-.07-.09c-.17.14-.34.28-.52.4Z"/>
      <path d="M23.71,15.14l-.02-.11c-.22.04-.44.08-.65.14l.03.11c.21-.05.43-.1.65-.14Z"/>
      <path d="M27.38,30.9l.03.11c.21-.06.43-.14.63-.22l-.04-.1c-.2.08-.41.15-.62.21Z"/>
      <path d="M26.09,31.17v.11c.24-.03.46-.06.67-.11l-.02-.11c-.21.04-.43.08-.65.11Z"/>
      <path d="M32.31,26.78l.1.05c.1-.2.19-.4.28-.61l-.1-.04c-.08.2-.17.4-.27.6Z"/>
      <path d="M32.8,25.56l.11.03c.07-.21.12-.43.17-.65l-.11-.02c-.05.21-.11.43-.17.64Z"/>
      <path d="M31.62,27.91l.09.07c.13-.18.26-.37.37-.56l-.09-.06c-.11.19-.24.37-.37.55Z"/>
      <path d="M22.43,15.47l-.04-.1c-.21.07-.42.15-.62.24l.04.1c.2-.09.41-.17.61-.24Z"/>
      <path d="M20.12,16.72l-.07-.09c-.18.14-.35.28-.51.43l.07.08c.16-.15.33-.29.51-.43Z"/>
      <path d="M21.22,16l-.05-.1c-.2.11-.39.22-.57.34l.06.09c.18-.12.37-.23.57-.34Z"/>
      <path d="M17.86,26.83c-.1-.19-.19-.4-.28-.6l-.1.04c.08.21.18.41.28.61l.1-.05Z"/>
      <path d="M19.42,28.94c-.16-.15-.31-.31-.45-.48l-.08.07c.15.17.3.33.46.49l.08-.08Z"/>
      <path d="M20.44,29.78c-.18-.13-.36-.26-.53-.4l-.07.09c.17.14.35.28.53.41l.06-.09Z"/>
      <path d="M18.56,27.95c-.13-.18-.26-.36-.37-.55l-.09.06c.12.19.24.38.38.55l.09-.07Z"/>
      <path d="M21.58,30.45c-.2-.09-.39-.2-.58-.31l-.06.1c.19.11.39.22.59.31l.05-.1Z"/>
      <path d="M17.36,25.61c-.07-.21-.13-.42-.18-.64l-.11.02c.05.22.11.43.18.65l.11-.03Z"/>
      <path d="M33.16,23.61c-.01.22-.03.44-.07.66l.11.02c.03-.22.05-.44.07-.67h-.11Z"/>
      <path d="M33.13,22.29c.02.22.04.44.04.66h.11c0-.22-.02-.45-.04-.67h-.11Z"/>
      <path d="M22.82,30.91c-.21-.06-.42-.13-.63-.21l-.04.1c.21.08.42.15.63.21l.03-.11Z"/>
      <path d="M17.06,24.32c-.03-.22-.06-.44-.07-.66h-.11c.01.23.04.45.07.67l.11-.02Z"/>
      <path d="M32.89,21c.06.21.11.43.15.64l.11-.02c-.04-.22-.09-.44-.15-.65l-.11.03Z"/>
      <path d="M24.11,31.18c-.22-.03-.44-.06-.65-.1l-.02.11c.22.04.44.08.66.11v-.11Z"/>
      <path d="M17.68,19.8l-.1-.05c-.09.2-.18.41-.25.62l.1.04c.07-.21.16-.41.25-.61Z"/>
      <path d="M16.97,23c0-.22.02-.44.04-.66h-.11c-.02.21-.03.43-.04.66h.11Z"/>
      <path d="M29.99,16.69c.17.13.35.28.51.42l.07-.08c-.17-.15-.34-.29-.51-.43l-.07.09Z"/>
      <path d="M31.79,18.61c.12.18.24.37.35.56l.1-.05c-.11-.19-.23-.38-.35-.57l-.09.06Z"/>
      <path d="M27.67,15.45c.21.07.42.15.62.24l.04-.1c-.2-.09-.41-.17-.63-.24l-.04.11Z"/>
      <path d="M28.88,15.98c.19.1.39.22.57.33l.06-.09c-.19-.12-.38-.23-.58-.34l-.05.1Z"/>
      <path d="M30.97,17.58c.15.16.3.33.43.5l.09-.07c-.14-.17-.29-.34-.44-.51l-.08.08Z"/>
      <path d="M17.24,21.05l-.11-.03c-.06.21-.11.43-.15.65l.11.02c.04-.22.09-.43.14-.64Z"/>
      <path d="M32.44,19.76c.09.2.18.41.25.61l.1-.04c-.08-.21-.16-.42-.25-.62l-.1.05Z"/>
      <path d="M26.39,15.14c.22.04.43.08.65.13l.03-.11c-.21-.05-.44-.1-.66-.13l-.02.11Z"/>
      <path d="M19.14,17.61l-.08-.08c-.15.16-.3.33-.44.51l.09.07c.14-.17.28-.34.43-.5Z"/>
      <path d="M18.32,18.65l-.09-.06c-.12.19-.24.38-.35.57l.1.05c.11-.19.22-.38.34-.56Z"/>
    </g>
  </g>
</svg>