<?xml version="1.0" encoding="UTF-8"?>
<svg id="Layer_2" data-name="Layer 2" xmlns="http://www.w3.org/2000/svg" viewBox="0 0 35.07 47.36">
  <g id="Layer_1-2" data-name="Layer 1">
    <path d="M35.03,23.44l-2.19-7.08c-.28-.89-.49-1.87-.69-3.01C30.72,5.3,23.45-.44,15.27.03,6.96.49.24,7.37,0,15.71c-.13,4.41,1.48,8.57,4.54,11.74,1.18,1.2,2.49,2.21,3.91,2.99l-4.12,8.43,4.51.04c1.58.53,2.34,1.01,2.58,1.62.26.66-.01,1.62-.98,3.3l-.55.98.98-.55c1.69-.95,2.66-1.23,3.31-.96.68.28,1.18,1.15,1.75,3.06l.3,1.01.3-1.01c.56-1.89,1.05-2.78,1.73-3.06.65-.26,1.62.01,3.32.95l.99.55-.58-.98c-.95-1.67-1.24-2.62-.98-3.28.23-.55.88-1,2.21-1.48l4.67.04-3.36-6.7h4.61c1.78,0,3.21-1.43,3.21-3.19v-3.68c0-.48.39-.88.86-.88h.91c.3,0,.58-.14.75-.38.18-.24.23-.54.14-.81ZM21.68,39.04c-.61.34-1.05.75-1.25,1.27-.31.8-.05,1.75.53,2.91-1.17-.58-2.13-.83-2.93-.5-.83.34-1.35,1.24-1.79,2.53-.46-1.29-.99-2.21-1.82-2.53-.24-.1-.49-.14-.76-.14-.63,0-1.35.24-2.17.64.58-1.15.84-2.1.53-2.91-.23-.58-.74-1-1.45-1.38-.33-.16-.68-.31-1.08-.45,1.28-.44,2.19-.96,2.52-1.78.34-.8.08-1.77-.5-2.94,1.15.58,2.12.85,2.92.53.83-.33,1.35-1.24,1.82-2.53.45,1.29.96,2.21,1.79,2.53.8.33,1.77.06,2.92-.53-.58,1.18-.84,2.14-.51,2.94.34.81,1.25,1.34,2.54,1.78-.49.18-.91.35-1.28.56h-.01Z"/>
  </g>
</svg>