<?xml version="1.0" encoding="UTF-8"?>
<svg id="Layer_2" data-name="Layer 2" xmlns="http://www.w3.org/2000/svg" viewBox="0 0 37.52 41.83">
  <g id="Layer_1-2" data-name="Layer 1">
    <path d="M37.47,25.08l-2.34-7.57c-.29-.95-.53-1.99-.74-3.22C32.86,5.68,25.09-.46,16.34.03,7.44.53.26,7.89,0,16.82c-.14,4.72,1.59,9.17,4.86,12.56,1.25,1.29,2.66,2.37,4.18,3.2l-4.41,9.02,25.21.24-3.59-7.17h4.94c1.89,0,3.42-1.53,3.42-3.42v-3.94c0-.52.42-.93.93-.93h.97c.32,0,.61-.15.81-.4.18-.26.24-.58.14-.88ZM29.38,8.63c1.6,2.28,2.51,4.91,2.63,7.71h-4.36c-.1-2.21-.63-4.4-1.55-6.42,1.11-.38,2.21-.79,3.27-1.29ZM28.43,7.4c-.97.45-1.99.84-3.02,1.16-1.39-2.44-3.37-4.52-5.74-6.04,3.4.54,6.47,2.24,8.76,4.89ZM18.08,3.3c2.39,1.35,4.43,3.33,5.85,5.69-1.92.49-3.88.77-5.85.82V3.3ZM18.08,11.32c2.21-.06,4.43-.39,6.57-.96.89,1.88,1.41,3.93,1.5,5.99h-8.07v-5.03ZM18.08,17.85h8.07c-.11,1.99-.58,3.97-1.43,5.78-2.16-.58-4.4-.9-6.64-.97v-4.8ZM18.08,24.15c1.99.06,3.98.35,5.93.85-1.42,2.44-3.48,4.45-5.93,5.83v-6.68ZM16.57,17.85v4.8c-2.23.06-4.44.39-6.6.96-.84-1.81-1.31-3.77-1.42-5.76h8.02ZM8.55,16.34c.1-2.06.61-4.11,1.49-5.97,2.13.57,4.33.89,6.53.95v5.03h-8.02ZM16.57,24.15v6.64c-2.44-1.38-4.47-3.4-5.87-5.8,1.92-.5,3.88-.78,5.87-.84ZM16.57,3.34v6.47c-1.95-.06-3.9-.33-5.79-.81,1.41-2.35,3.4-4.32,5.79-5.67ZM15.04,2.5c-2.37,1.53-4.36,3.62-5.75,6.08-1.06-.33-2.09-.72-3.09-1.18,2.3-2.66,5.4-4.37,8.84-4.9ZM5.26,8.63c1.09.5,2.2.95,3.33,1.31-.92,2-1.43,4.19-1.53,6.4H2.62c.13-2.8,1.03-5.43,2.63-7.71ZM2.61,17.85h4.44c.1,2.13.6,4.25,1.46,6.21-1.14.36-2.26.81-3.34,1.32-1.48-2.17-2.41-4.75-2.56-7.53ZM6.12,26.6c1-.46,2.03-.86,3.09-1.2,1.39,2.52,3.4,4.65,5.8,6.19-3.54-.56-6.67-2.38-8.9-5ZM19.72,31.58c2.39-1.55,4.38-3.66,5.76-6.15,1.04.32,2.05.71,3.03,1.17-2.21,2.59-5.3,4.41-8.8,4.98ZM29.46,25.38c-1.07-.52-2.17-.95-3.29-1.31.88-1.96,1.38-4.09,1.48-6.22h4.37c-.15,2.78-1.07,5.36-2.56,7.53Z"/>
  </g>
</svg>