<?xml version="1.0" encoding="UTF-8"?>
<svg id="Layer_2" data-name="Layer 2" xmlns="http://www.w3.org/2000/svg" viewBox="0 0 37.76 38.45">
  <g id="Layer_1-2" data-name="Layer 1">
    <g>
      <polygon points="6.2 25.68 4.16 25.68 4.16 33.6 12.07 33.6 12.07 31.56 6.2 31.56 6.2 25.68"/>
      <polygon points="31.56 31.56 25.68 31.56 25.68 33.6 33.6 33.6 33.6 25.68 31.56 25.68 31.56 31.56"/>
      <polygon points="31.56 12.07 33.6 12.07 33.6 4.16 25.68 4.16 25.68 6.2 31.56 6.2 31.56 12.07"/>
      <polygon points="4.16 12.07 6.2 12.07 6.2 6.2 12.07 6.2 12.07 4.16 4.16 4.16 4.16 12.07"/>
      <polygon points="4.16 18.41 0 18.41 0 19.34 4.16 19.34 6.2 19.34 12.07 19.34 12.07 18.41 6.2 18.41 4.16 18.41"/>
      <polygon points="33.6 18.41 31.56 18.41 25.68 18.41 25.68 19.34 31.56 19.34 33.6 19.34 37.76 19.34 37.76 18.41 33.6 18.41"/>
      <polygon points="19.36 12.07 19.36 6.2 19.36 4.16 19.36 0 18.4 0 18.4 4.16 18.4 6.2 18.4 12.07 18.4 13.18 19.36 13.18 19.36 12.07"/>
      <polygon points="18.4 25.68 18.4 31.56 18.4 33.6 18.4 38.45 19.36 38.45 19.36 33.6 19.36 31.56 19.36 25.68 19.36 25.27 18.4 25.27 18.4 25.68"/>
      <path d="M18.79,16.28c-.94,0-1.76.49-2.2,1.23-.25.39-.39.86-.39,1.35s.14.97.39,1.37c.46.73,1.27,1.22,2.2,1.22s1.74-.48,2.19-1.22c.25-.39.39-.86.39-1.37s-.14-.96-.39-1.35c-.45-.74-1.27-1.23-2.2-1.23Z"/>
    </g>
  </g>
</svg>