<?xml version="1.0" encoding="UTF-8"?>
<svg id="Layer_2" data-name="Layer 2" xmlns="http://www.w3.org/2000/svg" viewBox="0 0 61.93 41.74">
  <g id="Layer_1-2" data-name="Layer 1">
    <path d="M45.64,7h-.09c-.25.4-.7.77-1.06,1.08-.15.13-.3.33-.4.49-.02.03-.09.12-.09.14-.01.04,0,.1,0,.14,0,.03-.11.06,0,.14l-.05.05c.07.04.03.1.05.14,0,.02.04.03.05.05,0,.01,0,.04,0,.05.02.03.13.14.16.16.03.02.2.13.23.14.13.05.3.06.42.09,2.73.66,5.52,1.5,8.12,2.77,2.3,1.13,4.93,2.85,6.27,5.14.35.6.59,1.34.8,1.97l.05.14c.05.14.18.36.31.45.01,0,.04,0,.05,0,.06.04.18.12.23.14.03,0,.13.05.14.05.18.03.42.01.61.05,0,0,.12.04.14.05.04.02.12.1.19.09l.16.21c-.01.08.02.21,0,.28,0,.03-.12.1-.14.14-.01.02,0,.06,0,.07,0,0-.05-.01-.07,0-.05.02-.19.13-.23.14-.05.01-.13,0-.19,0-.02,0-.12.04-.14.05-.11.02-.26-.02-.38,0-.02,0-.03.04-.05.05-.04,0-.1-.01-.14,0-.02,0-.03.04-.05.05-.03.01-.12.03-.14.05-.05.03-.27.26-.31.31-.1.15-.13.35-.19.52-.35.94-.85,1.91-1.5,2.68-.1.12-.36.32-.42.42s-.09.06-.14.14c-.2.31-.78.75-1.1,1.01-3.07,2.49-7.05,3.9-10.7,4.84-1.98.51-3.97.91-6.06,1.17-.95.12-1.88.24-2.86.33-.7.06-1.29.11-2.07.14-.36.02-.79.11-1.13.14-.5.05-1.12-.07-1.6,0-.02,0-.03.04-.05.05-.04,0-.1-.01-.14,0-.01,0-.17.08-.19.09-.04.03-.24.22-.26.26,0,.01,0,.07-.05.09l-.09.33v7.14c-.08.04-.03.12-.05.19,0,.02-.07.06-.09.09,0,.01,0,.04,0,.05-.05.07-.15.14-.21.21h-.42l-.26-.31c-.04-.16-.06-.32-.09-.42v-6.99c-.07-.06-.07-.19-.09-.28,0-.02-.07-.06-.09-.09,0-.01,0-.04,0-.05-.03-.04-.12-.13-.16-.16,0,0-.04,0-.05,0-.06-.04-.11-.11-.19-.14-.07.03-.13-.04-.14-.05-.46-.08-1.18.05-1.69,0-.07,0-.31-.09-.38-.09-.67-.06-1.4.02-2.07-.09-.29-.05-.83-.11-1.17-.14-1.15-.1-2.25-.23-3.38-.38-.02,0-.03-.05-.05-.05-.12-.01-.35-.01-.47,0-.02,0-.03.04-.05.05-.06.01-.13-.01-.19,0-.04,0-.37.2-.42.23-.07.05-.11.16-.21.14v.09h-.07c-.87.77-1.63,1.79-2.54,2.49-.04.03-.12.13-.14.14-.03,0-.07,0-.09,0-.02,0-.03.04-.05.05-.05,0-.19,0-.23,0-.02,0-.03-.04-.05-.05-.01,0-.04,0-.05,0-.03-.02-.19-.18-.21-.21,0-.01,0-.03,0-.05,0-.02-.04-.03-.05-.05-.01-.05-.01-.24,0-.28,0-.02.04-.03.05-.05.06-.16.1-.16.19-.28.36-.46.86-.9,1.29-1.29.19-.17.33-.34.45-.54.02-.03.09-.13.09-.14.03-.12-.02-.3,0-.42-.07-.06-.22-.33-.31-.35-.06-.02-.08-.02-.14-.05-.16-.07-.27-.06-.42-.09-2.83-.67-5.76-1.54-8.45-2.86-2.53-1.24-5.63-3.33-6.69-6.08-.12-.3-.19-.75-.38-1.03-.03-.05-.26-.27-.31-.31-.01,0-.03,0-.05,0-.03-.02-.12-.09-.14-.09-.04-.01-.1,0-.14,0-.02,0-.03-.04-.05-.05-.12-.02-.26.02-.38,0-.02,0-.12-.04-.14-.05-.06,0-.13.01-.19,0-.04,0-.18-.12-.23-.14-.03-.01-.06,0-.07,0,0,0,.01-.05,0-.07-.02-.04-.13-.11-.14-.14-.02-.07.01-.2,0-.28l.16-.21c.06,0,.14-.08.19-.09.02,0,.13-.05.14-.05.23-.04.55-.02.75-.09.02,0,.03-.04.05-.05.06-.03.19-.06.23-.09.16-.11.24-.34.35-.49.05-.23.11-.46.19-.7.97-2.88,3.84-4.95,6.41-6.27,3.36-1.72,6.96-2.7,10.52-3.43.51-.1,1.03-.15,1.55-.23,1.69-.28,3.42-.5,5.16-.66.86-.08,1.73-.08,2.58-.14.02,0,.03-.05.05-.05.34-.02.76.04.99,0,.11-.02.26.02.38,0,.01,0,.1-.09.19-.05.11-.11.3-.21.4-.35,0-.01,0-.03,0-.05.02-.03.09-.12.09-.14.02-.06-.03-.14.05-.19V.74c.05-.06.02-.17.05-.28,0-.02.08-.06.05-.14.06-.08.12-.2.21-.26.01,0,.03,0,.05,0,.02,0,.03-.04.05-.05.05-.01.28-.01.33,0,.02,0,.03.04.05.05.01,0,.04,0,.05,0,.03.02.14.13.16.16,0,0,0,.04,0,.05.02.03.09.07.09.09.02.06-.03.14.05.19v6.81c.1.07,0,.21.09.28.06.26.23.36.45.49.16.07.35.02.52.05.22.04.64-.02.99,0,.02,0,.03.05.05.05.86.07,1.72.07,2.58.14,1.62.13,3.24.36,4.84.56.02,0,.03.05.05.05.16.01.56.03.7,0,.02,0,.03-.04.05-.05.07-.02.17-.03.23-.05.02,0,.06-.08.09-.09.19-.11.21-.14.38-.28.82-.69,1.56-1.55,2.35-2.3.08,0,.17-.13.23-.14.05-.01.28-.01.33,0,.02,0,.03.04.05.05.01,0,.04,0,.05,0,.03.02.15.14.16.16,0,.01,0,.03,0,.05,0,.02.04.03.05.05.01.05.01.32,0,.38s-.12.15-.14.19c-.01.02,0,.06,0,.07ZM29.28,9.35c-.32.1-.73.06-1.08.09-.28.03-.61.11-.89.14-1.15.15-2.23.36-3.33.66-1.3.36-2.58.88-3.85,1.46-2.81,1.45-5.67,3.79-6.6,6.92-.07.24-.1.42-.14.66,0,.02-.04.03-.05.05-.02.19.03.34.05.52l.35.35.28.09h15.59c.04-.08.12-.03.19-.05.02,0,.11-.08.14-.09.01,0,.04,0,.05,0,.04-.03.18-.17.21-.21,0,0,0-.04,0-.05.02-.03.09-.07.09-.09,0-.03,0-.07,0-.09,0-.02.04-.03.05-.05.02-.11-.02-.26,0-.38,0-.04.12-.15,0-.23,0-2.71,0-5.69,0-8.4.1-.14.01-.21,0-.28-.02-.13.03-.31,0-.42,0-.02-.08-.11-.09-.14,0-.01,0-.04,0-.05-.09-.13-.26-.25-.4-.31-.02,0-.03-.04-.05-.05-.04-.01-.1,0-.14,0-.02,0-.03-.04-.05-.05-.12-.03-.18.05-.19.05-.02,0-.03-.04-.05-.05s-.07,0-.09,0ZM39.11,11.84c.1,0,.26-.21.33-.31.01-.02.03-.11.05-.14,0-.02.04-.03.05-.05.01-.05,0-.23,0-.28,0-.02-.04-.03-.05-.05,0-.03,0-.06,0-.09,0-.02-.14-.17-.16-.21-.13-.07-.27-.13-.42-.19-.26-.09-.53-.16-.8-.23-.8-.21-1.59-.42-2.39-.56s-1.76-.2-2.54-.33c-.21-.04-.58-.03-.7,0-.15-.01-.29,0-.42.05-.02,0-.06.07-.09.09-.01,0-.04,0-.05,0-.11.09-.17.25-.26.35-.02.08.04.18-.05.23v7.56c-.09.06,0,.06,0,.09.02.12-.05.18-.05.19,0,.02.04.03.05.05,0,.06-.01.13,0,.19,0,.02.04.03.05.05.02.05.02.13.05.19.16.13.32.26.54.21.03,0,.19-.11.23-.14.22-.14.44-.39.63-.59,1.9-1.98,3.92-4.02,5.92-5.89v-.09h.09v-.09ZM15.36,13.48s.05.01.07,0c.12-.07.34-.36.47-.47.54-.46,1.18-.82,1.78-1.22.17-.11.41-.25.54-.45.01-.02.03-.11.05-.14,0-.02.04-.03.05-.05,0-.04,0-.15,0-.19,0-.02-.04-.03-.05-.05,0-.01,0-.04,0-.05-.02-.03-.14-.15-.16-.16-.01,0-.03,0-.05,0-.02,0-.03-.04-.05-.05-.09-.02-.51-.01-.61,0-.3.04-.72.24-1.03.33-.89.27-1.76.52-2.63.8-.74.24-1.54.47-2.25.8-3.07,1.26-6.59,3.03-8.1,6.17-.07.14-.21.37-.23.52s-.01.29-.05.42c.07.04.03.1.05.14.01.03.07.11.09.14,0,.01,0,.04,0,.05.04.07.1.06.12.07.03.02.07.09.09.09.09.03.22.03.28.09.45.02.94-.05,1.36.05l.35.31c0,.11.07.19.05.33,0,.02-.04.03-.05.05,0,.03,0,.06,0,.09-.02.06-.29.27-.35.31-.07-.03-.13.04-.14.05-.31.05-.75-.04-1.08,0-.02,0-.03.04-.05.05-.06.01-.13-.01-.19,0-.02,0-.11.08-.14.09-.01,0-.04,0-.05,0-.1.06-.15.18-.21.26-.02.13-.07.23-.05.38,0,.02.04.03.05.05.01.06-.01.13,0,.19.02.08.22.41.28.52.46.84,1.1,1.69,1.88,2.28v.09c3.34,2.8,7.63,4.22,11.67,5.3.19.05.26.06.47.09.02,0,.03.04.05.05.18.02.31-.04.47-.05.21-.1.29-.25.26-.49-.12-.18-.23-.36-.4-.49,0,0-.04,0-.05,0-.41-.31-.91-.55-1.31-.85-.29-.21-.56-.49-.87-.66v-.09h-.09v-.09c-.3-.18-.67-.55-.85-.85h-.09c-.97-1.23-1.94-2.6-2.3-4.15-.05-.23-.13-.48-.19-.7-.03-.13-.07-.25-.09-.38,0-.02-.04-.03-.05-.05,0-.01,0-.04,0-.05-.02-.04-.26-.28-.31-.31-.02-.01-.11-.04-.14-.05-.02,0-.03-.04-.05-.05-.04-.01-.1,0-.14,0-.02,0-.03-.04-.05-.05-.21-.03-.5.04-.7,0-.01,0-.07-.08-.14-.05l-.35-.31c0-.11-.07-.19-.05-.33,0-.02.04-.03.05-.05,0-.03,0-.06,0-.09.02-.09.29-.23.35-.31.09.04.17-.04.19-.05.17-.03.39.03.56,0,.02,0,.03-.04.05-.05.09-.02.19-.02.28-.05.2-.11.33-.23.45-.45.19-.67.27-1.41.52-2.07.12-.32.32-.74.47-1.03.26-.5.54-.98.89-1.46.39-.53.87-1.13,1.34-1.53.1-.08.11-.18.12-.19ZM56.29,15.88c-3.27-2.66-7.41-3.95-11.34-5.07-.11-.03-.32-.13-.42-.14s-.52-.02-.61,0c-.02,0-.03.04-.05.05-.01,0-.04,0-.05,0-.07.04-.14.16-.21.21,0,.07-.01.16,0,.23,0,.02.04.03.05.05,0,.03,0,.06,0,.09.04.13.56.49.68.59,1.47.79,2.69,1.95,3.64,3.26.61.84,1.19,1.83,1.5,2.82.08.25.18.61.23.85.05.21.04.45.09.66.01.05.07.22.09.28.03.07.1.13.14.19,0,.01,0,.04,0,.05.07.1.18.12.26.21.11.04.22.03.33.05.02,0,.03.04.05.05.23.03.49-.04.7.05l.31.21c-.01.06.09.16.09.19.01.05.01.23,0,.28,0,.02-.08.11-.09.14,0,.01,0,.04,0,.05-.07.1-.16.12-.26.16-.02,0-.03.04-.05.05-.21.08-.43.03-.66.05-.02,0-.03.04-.05.05-.2.02-.28-.01-.47.09-.03.02-.06.08-.09.09-.02.01-.06,0-.07,0s.01.05,0,.07c-.02.04-.13.11-.14.14-.04.15-.1.3-.14.47-.11.45-.22.92-.38,1.36s-.43.94-.66,1.36c-.26.49-.56.94-.85,1.38h-.09c-.1.3-.43.52-.56.8h-.09c-.33.48-.81.86-1.24,1.22-.39.33-.77.61-1.22.89-.21.13-.47.23-.66.38-.11.09-.19.2-.26.31-.04.06-.11.11-.14.19-.01.13,0,.32.12.4.01,0,.04,0,.05,0,.03.02.07.09.09.09.05.01.13-.01.19,0,.02,0,.03.04.05.05.06,0,.18,0,.23,0,.02,0,.03-.04.05-.05.32-.05.51-.09.8-.19.91-.29,1.85-.55,2.77-.85.62-.2,1.18-.39,1.78-.61.83-.31,1.72-.65,2.54-1.03.59-.28,1.19-.61,1.74-.94.91-.54,1.71-1.15,2.51-1.78v-.09c.91-.71,1.64-1.69,2.07-2.75.04-.09.06-.12.09-.23,0-.02.04-.03.05-.05.03-.14-.03-.25-.05-.38-.09-.17-.17-.23-.35-.31-.02,0-.03-.04-.05-.05-.05-.01-.13.01-.19,0-.02,0-.03-.04-.05-.05-.4-.05-.85.07-1.22-.05l-.35-.31c0-.11-.07-.19-.05-.33,0-.02.04-.03.05-.05,0-.03,0-.06,0-.09.02-.06.29-.27.35-.31l.14-.05h1.22c.06-.07.19-.07.28-.09.02,0,.17-.14.21-.16l.14-.33c.03-.12-.04-.16-.05-.19-.02-.08-.02-.2-.05-.28-.16-.52-.45-1.01-.75-1.46-.36-.52-.83-1.15-1.36-1.53v-.09c-.14.02-.19-.2-.33-.19v-.09ZM45.4,14.09c-1.05-.83-2.1-1.63-3.31-2.21-.13-.06-.25-.15-.38-.19-.06-.02-.14.03-.19-.05l-.47.09-.28.19c-2.36,2.31-4.66,4.74-7.04,6.99-.17.16-.33.32-.45.49-.02.03-.09.07-.09.09-.01.04,0,.1,0,.14,0,.02-.04.03-.05.05-.03.09.04.12.05.14,0,.04-.01.1,0,.14,0,.02.24.25.26.26.03,0,.07,0,.09,0,.02,0,.03.04.05.05.06.01.13-.01.19,0,.07.01.14.07.28.05.1-.02.16.02.23-.05h13.61c.1-.07.26-.07.38-.14.1-.07.2-.21.26-.31.02-.18.08-.36.05-.56,0-.02-.04-.03-.05-.05-.07-.35-.15-.67-.28-1.03-.54-1.52-1.62-2.98-2.86-4.01v-.09ZM28.13,22.82c.19-.05.36-.29.47-.45.04-.06.06-.06.09-.14,0-.02.04-.03.05-.05.01-.05.01-.32,0-.38,0-.02-.04-.03-.05-.05,0-.01,0-.04,0-.05-.01-.02-.2-.21-.21-.21-.03,0-.07,0-.09,0-.02,0-.03-.04-.05-.05-.07-.01-.16.01-.23,0-.02,0-.03-.05-.05-.05s-.03.04-.05.05c-.18.03-.33-.07-.42,0h-13.52l-.33.09-.31.35c.03.07-.04.13-.05.14-.01.07-.01.26,0,.33,0,.03.08.19.09.23.17.66.46,1.36.8,1.97.31.56.74,1.02,1.08,1.55.05.08.08.03.14.14.13.23.97.94,1.2,1.15.92.82,1.9,1.47,2.96,2.07.13.07.55.31.66.33.05.01.13-.01.19,0,.02,0,.03.04.05.05.08,0,.26.01.33,0,.02,0,.03-.04.05-.05.03,0,.07,0,.09,0,.16-.06.25-.18.38-.28.06-.05.23-.1.21-.23,2.22-2.01,4.3-4.37,6.53-6.38v-.09ZM32.38,21.46c-.04.08-.12.03-.19.05-.02,0-.11.08-.14.09-.01,0-.04,0-.05,0-.04.03-.23.21-.26.26-.01.02-.03.11-.05.14,0,.02-.04.03-.05.05-.02.08.04.18-.05.23v8.97l.05.05s-.02.17,0,.23c0,.02.08.11.09.14,0,.01,0,.04,0,.05.08.12.22.21.35.26.02,0,.03.04.05.05.04.01.1,0,.14,0,.02,0,.03.04.05.05.13.02.38,0,.52,0,.53-.04,1.01-.12,1.55-.19.79-.1,1.54-.21,2.3-.38.96-.21,1.9-.5,2.86-.85.67-.24,1.36-.51,1.97-.8.89-.43,1.73-.94,2.54-1.5,1.46-1.02,2.84-2.39,3.69-3.97.25-.46.48-1.03.61-1.5.03-.1.11-.26.14-.38.01-.05-.01-.13,0-.19,0-.02.04-.03.05-.05.02-.06-.04-.08-.05-.09-.02-.07.01-.17,0-.23,0-.02-.08-.11-.09-.14,0-.01,0-.04,0-.05-.07-.11-.19-.17-.31-.21-.02,0-.03-.04-.05-.05-.06-.02-.14.03-.19-.05h-15.49ZM30.24,23.25l-.26-.14c-.1.01-.24-.02-.33,0-.02,0-.11.08-.14.09-.01,0-.04,0-.05,0-.05.03-.42.41-.45.45-.01.02,0,.06,0,.07-1.93,1.84-3.87,3.93-5.84,5.77-.14.14-.36.34-.45.49-.01.03-.03.11-.05.14,0,.02-.04.03-.05.05-.01.05-.01.28,0,.33,0,.02.08.11.09.14,0,.01,0,.04,0,.05.05.08.18.17.26.21.02.01.06,0,.09,0,.03,0,.07.09.09.09.12.03.28.06.42.09,1.19.31,2.42.63,3.66.8.62.09,1.26.1,1.78.19.16.03.48.02.61-.05.06.09.06,0,.09,0,.05-.01.1.02.14-.05l.31-.21c.02-.08.06-.16.09-.23,0-.02.04-.03.05-.05.03-.12-.02-.3,0-.42,0-.04.12-.15,0-.23,0-1.94,0-4.08.05-6.06.01-.39,0-.78,0-1.17l-.14-.35Z"/>
  </g>
</svg>