<?xml version="1.0" encoding="UTF-8"?>
<svg id="Layer_2" data-name="Layer 2" xmlns="http://www.w3.org/2000/svg" viewBox="0 0 45.78 33.06">
  <g id="Layer_1-2" data-name="Layer 1">
    <path d="M36.59,7.11c-.1-.14-.2-.29-.31-.43C33.17,2.5,28.2,0,22.99,0s-10.22,2.53-13.34,6.77c-.1.14-.2.28-.3.42L0,3.07v27.4l9.61-4.23c.12.16.23.32.36.47,3.15,4.04,7.9,6.35,13.02,6.35s9.81-2.29,12.97-6.28c.12-.16.25-.32.37-.49l9.45,4.16V3.07l-9.19,4.04s0,0,0,0ZM11.13,16.53c0-2.54.79-4.96,2.29-7,2.23-3.04,5.81-4.86,9.57-4.86s7.27,1.75,9.54,4.8c1.53,2.05,2.33,4.49,2.33,7.06,0,2.71-.88,5.25-2.55,7.36-3.36,4.24-9.16,5.8-14.64,3.33-4.23-2.36-6.53-6.31-6.53-10.69Z"/>
  </g>
</svg>