<?xml version="1.0" encoding="UTF-8"?>
<svg id="Layer_2" data-name="Layer 2" xmlns="http://www.w3.org/2000/svg" viewBox="0 0 38.18 31.77">
  <g id="Layer_1-2" data-name="Layer 1">
    <g>
      <path d="M26.73,16.74s0,0,0,0c-.41-.41-.42-1.05,0-1.45.05-.04.09-.09.14-.13l11.04-11.04c.39-.39.39-1.03,0-1.42l-2.2-2.21c-.39-.39-1.03-.39-1.42,0l-11.03,11.04c-2.25,2.24-5.93,2.22-8.21-.07L3.86.29c-.39-.39-1.03-.39-1.42,0L.29,2.44c-.39.39-.39,1.03,0,1.42l11.16,11.17s0,0,0,0c.41.41.42,1.05,0,1.45-.05.04-.09.09-.14.13L.29,27.66c-.39.39-.39,1.03,0,1.42l2.2,2.2c.39.39,1.03.39,1.42,0l11.03-11.03c2.25-2.25,5.93-2.22,8.21.06l11.16,11.16c.39.39,1.03.39,1.42,0l2.15-2.15c.39-.39.39-1.03,0-1.42l-11.16-11.17Z"/>
      <path d="M22.5,10.43c1.83-1.83,1.83-4.79,0-6.61-1.83-1.83-4.79-1.83-6.61,0s-1.83,4.79,0,6.61c1.83,1.83,4.79,1.83,6.61,0Z"/>
    </g>
  </g>
</svg>