<?xml version="1.0" encoding="UTF-8"?>
<svg id="Layer_2" data-name="Layer 2" xmlns="http://www.w3.org/2000/svg" viewBox="0 0 37.82 38.11">
  <defs>
    <style>
      .cls-1 {
        fill-rule: evenodd;
      }
    </style>
  </defs>
  <g id="Layer_1-2" data-name="Layer 1">
    <g>
      <path class="cls-1" d="M7.25,20.12c-.82-.82-2.22-.24-2.22.92v3.78c0,1.16-1.4,1.74-2.22.92l-.59-.59c-.82-.82-2.22-.24-2.22.92v10.74c0,.72.58,1.3,1.3,1.3h10.74c1.16,0,1.74-1.4.92-2.22l-.59-.59c-.82-.82-.24-2.22.92-2.22h3.78c1.16,0,1.74-1.4.92-2.22l-10.74-10.74Z"/>
      <path class="cls-1" d="M17.08,5.03h-3.78c-1.16,0-1.74-1.4-.92-2.22l.59-.59c.82-.82.24-2.22-.92-2.22H1.31C.59,0,0,.58,0,1.3v10.74c0,1.16,1.4,1.74,2.22.92l.59-.59c.82-.82,2.22-.24,2.22.92v3.78c0,1.16,1.4,1.74,2.22.92l10.74-10.74c.82-.82.24-2.22-.92-2.22Z"/>
      <path class="cls-1" d="M35.58,25.09l-.59.59c-.82.82-2.22.24-2.22-.92v-3.78c0-1.16-1.4-1.74-2.22-.92l-10.74,10.74c-.82.82-.24,2.22.92,2.22h3.78c1.16,0,1.74,1.4.92,2.22l-.59.59c-.82.82-.24,2.22.92,2.22h10.74c.72,0,1.3-.58,1.3-1.3v-10.74c0-1.16-1.4-1.74-2.22-.92Z"/>
      <path class="cls-1" d="M36.53.15h-10.74c-1.16,0-1.74,1.4-.92,2.22l.59.59c.82.82.24,2.22-.92,2.22h-3.78c-1.16,0-1.74,1.4-.92,2.22l10.74,10.74c.82.82,2.22.24,2.22-.92v-3.78c0-1.16,1.4-1.74,2.22-.92l.59.59c.82.82,2.22.24,2.22-.92V1.45c0-.72-.58-1.3-1.3-1.3Z"/>
    </g>
  </g>
</svg>