<?xml version="1.0" encoding="UTF-8"?>
<svg id="Layer_2" data-name="Layer 2" xmlns="http://www.w3.org/2000/svg" viewBox="0 0 33.79 48.06">
  <g id="Layer_1-2" data-name="Layer 1">
    <path d="M24.84,0h-15.89C4.01,0,0,4,0,8.95v30.17c0,4.94,4.01,8.95,8.95,8.95h6.17v-29.69c.4.02,1.03.11,1.68.48,1.6.94,1.84,2.81,1.87,3.07v26.14h6.17c4.94,0,8.95-4.01,8.95-8.95V8.95c0-4.94-4.01-8.95-8.95-8.95ZM19.82,10.56c1.39-1.39,2.78-2.77,4.17-4.17l2.51,2.52-6.68,6.67c-.27-.3-.66-.81-.85-1.53-.47-1.8.69-3.29.85-3.49ZM5.09,14.23h9.45c-.02.4-.11,1.03-.48,1.68-.94,1.59-2.82,1.84-3.07,1.86h-5.9v-3.55ZM13.97,21.45c-1.39,1.39-2.78,2.77-4.17,4.16l-2.51-2.51,6.68-6.67c.27.29.66.81.85,1.53.47,1.79-.69,3.29-.85,3.49ZM14.95,13.93c-1.8.47-3.29-.69-3.49-.85l-4.17-4.16,2.51-2.52,6.68,6.68c-.3.27-.82.66-1.53.85ZM15.12,10.08v-5.89h3.56v9.44c-.4-.02-1.04-.11-1.68-.48-1.6-.94-1.84-2.82-1.87-3.07ZM23.99,25.6l-6.68-6.67c.3-.27.82-.66,1.54-.85,1.79-.47,3.29.69,3.49.85,1.39,1.39,2.78,2.77,4.17,4.16l-2.51,2.51ZM28.71,17.78h-9.44c.02-.4.1-1.03.48-1.68.94-1.6,2.81-1.84,3.06-1.86h5.9v3.55Z"/>
  </g>
</svg>