<?xml version="1.0" encoding="UTF-8"?>
<svg id="Layer_2" data-name="Layer 2" xmlns="http://www.w3.org/2000/svg" viewBox="0 0 83.11 52.33">
  <defs>
    <style>
      .cls-1 {
        fill-rule: evenodd;
      }
    </style>
  </defs>
  <g id="Layer_1-2" data-name="Layer 1">
    <path class="cls-1" d="M81.77,24.89c-1.48-1.12-2.48-3.09-3.63-4.56-1.55-1.97-3.71-3.26-5.94-4.56-3.63-2.11-8.05-3.31-12.64-4.45-1.35-.33-2.75-.51-4.14-.78-1.58-.31-3.23-.35-4.86-.62-.6-.05-1.21-.11-1.81-.16-.37-.02-.75-.04-1.12-.06-.55-.04-1.11-.09-1.66-.13-.56-.1-1.06-.23-1.52-.43-1.12-.49-1.94-1.43-2.3-2.67-.12-.39-.11-.84-.18-1.3,0-1.24-.01-2.47-.02-3.71,0-.51.01-1.28-.34-1.44-.04,0-.09-.01-.13-.02-.36.33-.33,1-.34,1.68,0,1.16-.01,2.33-.02,3.49-.04.37-.09.74-.13,1.1-.32,1.28-1.05,2.13-2.06,2.72-.62.36-1.34.49-2.19.62-.39.03-.78.05-1.17.08-.45.03-.9.05-1.34.08-.65.06-1.29.12-1.94.18-2,.33-4,.41-5.9.82-1.8.39-3.6.65-5.3,1.15-1.75.52-3.49.95-5.12,1.58-2.26.88-4.46,1.78-6.4,2.99-1.06.66-2.04,1.4-2.99,2.16-1.49,1.19-2.47,2.84-3.58,4.42-.49.69-1.06,1.37-1.74,1.87-.38.28-1.1.57-1.25,1.06-.19.62.94,1.11,1.28,1.34,1.44,1.01,2.43,2.65,3.5,4.03,1.59,2.04,3.74,3.38,6.03,4.72,3.59,2.09,7.93,3.29,12.46,4.43,1.32.26,2.65.51,3.97.77,1.74.36,3.57.4,5.39.7.62.05,1.24.11,1.86.16.46.03.93.05,1.39.08,1.28.2,2.13.15,3.06.69,1.46.85,2.18,2.11,2.18,4.45,0,1.06.01,2.11.02,3.17,0,.25.01.49.02.74.06.41,0,.9.32,1.04.04,0,.09.01.13.02.4-.36.27-1.04.34-1.76,0-1.27.01-2.55.02-3.82.06-.41.05-.82.14-1.18.31-1.21,1.04-2.06,2-2.62.65-.38,1.39-.51,2.3-.66.47-.03.94-.06,1.41-.1.43-.03.85-.05,1.28-.08.68-.06,1.37-.13,2.05-.19,1.89-.31,3.77-.4,5.57-.78,1.73-.37,3.48-.62,5.12-1.1,1.46-.43,2.95-.76,4.34-1.3,1.19-.46,2.38-.86,3.52-1.36,2.28-.99,4.37-2.21,6.22-3.63,1.6-1.23,2.76-2.84,3.98-4.46.54-.72,1.16-1.41,1.9-1.94.4-.28,1.11-.53,1.28-1.02.21-.6-1-1.19-1.31-1.42ZM41.17,38.35c-.37,1.73-1.4,2.81-3.02,3.3-.32.1-.67.09-1.04.14-.32-.01-.64-.02-.96-.03-.68-.05-1.35-.1-2.03-.14-.52-.04-1.05-.09-1.57-.13-1.35-.23-2.74-.27-4.03-.53-1.66-.33-3.26-.48-4.83-.88-1.58-.4-3.15-.74-4.66-1.22-3.91-1.23-7.52-2.76-10.53-4.9-1.24-.88-3.08-2.39-3.7-3.84-1.02-2.39,1.63-3.94,3.78-3.9,0-.03.01-.05.02-.08v-.02c-.36-.04-.73-.07-1.09-.11-.87-.19-1.62-.51-2.21-.98-.82-.65-1.26-2.08-.59-3.23,1.07-1.85,2.82-3.24,4.58-4.4,3.7-2.46,8.23-4.05,13.13-5.3,1.52-.39,3.1-.62,4.69-.96,1.46-.32,2.98-.38,4.5-.64.64-.06,1.28-.13,1.92-.19.95-.07,1.91-.14,2.86-.21,2.29,0,3.62.76,4.38,2.26.64,1.26.5,3.39.5,5.3,0,1.18-.01,2.37-.02,3.55-.08.48,0,.9-.11,1.31-.5,2-2.31,3.62-4.82,3.58l-.02.1c.52.14,1.06.1,1.52.24,1.55.48,2.61,1.38,3.17,2.85.43,1.13.27,2.95.27,4.46v2.05c0,.86.06,1.8-.1,2.54ZM75.55,26.32c.8.17,1.49.48,2.03.91.91.72,1.21,2.14.51,3.31-.97,1.64-3.03,3.19-4.66,4.21-2.95,1.86-6.35,3.17-10.03,4.32-1.37.43-2.81.72-4.24,1.07-1.67.41-3.38.57-5.15.91-1.29.25-2.68.27-4.02.5-.43.03-.85.06-1.28.1-.54.04-1.09.07-1.63.11-.41.06-1.04.09-1.47.02-2.03-.34-3.26-1.48-3.68-3.42-.08-.37-.01-.75-.08-1.17,0-1.09-.01-2.19-.02-3.28,0-1.44-.16-3.2.19-4.35.57-1.86,2.33-3.36,4.75-3.33,0-.03.01-.05.02-.08v-.02c-.36-.04-.73-.09-1.09-.13-1.26-.31-2.31-.87-2.98-1.78-.35-.47-.61-1.05-.77-1.7-.17-.69-.13-1.58-.13-2.42v-3.78c0-1.67,0-3.15.61-4.18.55-.93,1.39-1.57,2.53-1.9.25-.04.5-.09.75-.13.18,0,.35-.01.53-.02,1.03.01,2.1.05,3.06.21.6.06,1.21.12,1.81.18,1.75.3,3.47.37,5.1.72,1.54.33,3.03.54,4.5.91,4.81,1.22,9.17,2.79,12.86,5.12,1.44.91,2.86,2,3.9,3.31.35.44.75.86.99,1.41,1.12,2.56-1.57,4.18-3.95,4.14,0,.03-.01.06-.02.1.35.04.69.07,1.04.11Z"/>
  </g>
</svg>