<?xml version="1.0" encoding="UTF-8"?>
<svg id="Layer_2" data-name="Layer 2" xmlns="http://www.w3.org/2000/svg" viewBox="0 0 57.13 36.22">
  <g id="Layer_1-2" data-name="Layer 1">
    <g>
      <path d="M45.95,0H11.18C5,0,0,5,0,11.18v13.86c0,6.17,5.01,11.18,11.18,11.18h9.46l3.12-3.16h-12.58c-4.43,0-8.02-3.59-8.02-8.02v-13.86C3.16,6.75,6.75,3.16,11.18,3.16h34.77c4.43,0,8.02,3.59,8.02,8.02v13.86c0,4.43-3.59,8.02-8.02,8.02h-14.13c-.7,0-1.26-.57-1.26-1.26v-6.3c-.03-.3-.3-2.45-2.1-3.53-.72-.43-1.44-.54-1.89-.56v12.12c0,1.49,1.21,2.69,2.69,2.69h.93s15.76,0,15.76,0c6.17,0,11.18-5,11.18-11.18v-13.86c0-6.17-5-11.18-11.18-11.18Z"/>
      <path d="M25.28,19.22l-7.49,7.49,2.82,2.82,4.67-4.67c.18-.23,1.48-1.91.95-3.92-.21-.81-.64-1.39-.95-1.72Z"/>
      <path d="M25.37,18.65c.42-.72.52-1.44.54-1.89H6.9v3.99h15.02c.29-.03,2.39-.3,3.44-2.1Z"/>
      <path d="M20.61,7.99l-2.82,2.82,4.67,4.67c.23.18,1.91,1.48,3.92.95.81-.21,1.39-.64,1.72-.95l-7.49-7.49Z"/>
      <path d="M26.57,12.12c.03.29.3,2.39,2.1,3.44.72.42,1.44.52,1.89.54V6.36h-3.99v5.76Z"/>
      <path d="M31.85,12.65c-.18.23-1.48,1.91-.95,3.92.21.81.64,1.39.95,1.72l7.49-7.49-2.82-2.82c-1.56,1.56-3.11,3.11-4.67,4.67Z"/>
      <path d="M31.76,18.86c-.42.72-.52,1.44-.54,1.89h19.01v-3.99h-15.02c-.29.03-2.39.3-3.44,2.1Z"/>
      <path d="M29.03,22.04l7.49,7.49,2.82-2.82c-1.56-1.56-3.11-3.11-4.67-4.67-.23-.18-1.91-1.48-3.92-.95-.81.21-1.39.64-1.72.95Z"/>
    </g>
  </g>
</svg>