<?xml version="1.0" encoding="UTF-8"?>
<svg id="Layer_2" data-name="Layer 2" xmlns="http://www.w3.org/2000/svg" viewBox="0 0 44.91 45.01">
  <g id="Layer_1-2" data-name="Layer 1">
    <g>
      <g>
        <path d="M41.61,24.91c-1.1,8.83-8.18,15.81-17.04,16.77v-2.32c7.59-.93,13.64-6.9,14.7-14.45h2.34Z"/>
        <path d="M19.4,39.22v2.34c-8.32-1.33-14.88-7.99-16.05-16.36h2.33c1.13,7.1,6.67,12.74,13.72,14.02Z"/>
        <path d="M20.34,3.32v2.33c-7.59.94-13.64,6.9-14.7,14.45h-2.33C4.41,11.28,11.48,4.29,20.34,3.32Z"/>
        <path d="M41.57,19.81h-2.34c-1.13-7.1-6.67-12.74-13.71-14.02v-2.35c8.31,1.33,14.88,8,16.05,16.37Z"/>
      </g>
      <g>
        <path d="M25.06,0v15.04c0,5.35-4.42,9.7-9.86,9.7H0v-4.18h15.2c3.09,0,5.6-2.48,5.6-5.52V0h4.26Z"/>
        <path d="M44.91,20.27v4.18h-15.2c-3.09,0-5.6,2.48-5.6,5.52v15.04h-4.25v-15.04c0-5.35,4.42-9.7,9.85-9.7h15.2Z"/>
      </g>
    </g>
  </g>
</svg>