<?xml version="1.0" encoding="UTF-8"?>
<svg id="Layer_2" data-name="Layer 2" xmlns="http://www.w3.org/2000/svg" viewBox="0 0 51.54 35.5">
  <g id="Layer_1-2" data-name="Layer 1">
    <g>
      <polygon points="18.69 17.75 15.68 14.74 0 14.74 0 20.76 15.68 20.76 18.69 17.75"/>
      <polygon points="28.78 7.66 28.78 0 22.76 0 22.76 7.66 25.77 10.67 28.78 7.66"/>
      <polygon points="35.86 14.74 32.85 17.75 35.86 20.76 51.54 20.76 51.54 14.74 35.86 14.74"/>
      <polygon points="22.76 27.84 22.76 35.5 28.78 35.5 28.78 27.84 25.77 24.83 22.76 27.84"/>
      <polygon points="42.12 5.65 37.87 1.4 25.77 13.5 13.67 1.4 9.41 5.65 21.52 17.75 9.41 29.85 13.67 34.11 25.77 22.01 37.87 34.11 42.12 29.85 30.02 17.75 42.12 5.65"/>
    </g>
  </g>
</svg>