<?xml version="1.0" encoding="UTF-8"?>
<svg id="Layer_2" data-name="Layer 2" xmlns="http://www.w3.org/2000/svg" viewBox="0 0 76.98 42.2">
  <g id="Layer_1-2" data-name="Layer 1">
    <path d="M0,0v42.2h76.98V0H0ZM38.8,2.65c5.37,0,9.73,4.36,9.73,9.73s-4.36,9.73-9.73,9.73-9.73-4.35-9.73-9.73,4.36-9.73,9.73-9.73ZM73.63,20.71h-5c-2.84,0-5.41,1.56-6.55,3.98-4.24,9.03-13.42,14.86-23.39,14.86s-19.16-5.83-23.4-14.86c-1.14-2.42-3.7-3.98-6.54-3.98H3.35v-5.2h6.6c3.64,0,8.06,2.74,10.05,6.97,3.39,7.21,10.72,11.87,18.69,11.87s15.3-4.66,18.69-11.87c1.99-4.23,6.41-6.97,11.25-6.97h5v5.2ZM73.63,11.91h-5c-6.24,0-11.93,3.55-14.51,9.04-2.8,5.95-8.85,9.8-15.43,9.8s-12.63-3.85-15.43-9.8c-2.59-5.49-8.28-9.04-13.31-9.04H3.35v-5.2h5.4c8.24,0,15.78,4.72,19.21,12.02,1.95,4.14,6.16,6.82,10.73,6.82s8.78-2.68,10.72-6.82c3.44-7.3,10.98-12.02,19.22-12.02h5v5.2Z"/>
  </g>
</svg>