<?xml version="1.0" encoding="UTF-8"?>
<svg id="Layer_2" data-name="Layer 2" xmlns="http://www.w3.org/2000/svg" viewBox="0 0 86.67 38.36">
  <g id="Layer_1-2" data-name="Layer 1">
    <g>
      <path d="M43.34,0C19.44,0,0,8.6,0,19.18s19.44,19.18,43.34,19.18,43.33-8.6,43.33-19.18S67.23,0,43.34,0ZM43.34,37.36C19.99,37.36,1,29.2,1,19.18S19.99,1,43.34,1s42.33,8.16,42.33,18.18-18.99,18.18-42.33,18.18Z"/>
      <path d="M43.34,3.48c-15.66,0-28.4,6.82-28.4,15.2s12.74,15.21,28.4,15.21,28.39-6.83,28.39-15.21S58.99,3.48,43.34,3.48ZM53.44,17.3l-4.77,1.54c-.89.3-1.25,1.37-.7,2.14l3,4.19c.45.62.3,1.49-.32,1.94l-1.3.93c-.64.46-1.53.3-1.98-.36l-2.79-4.21c-.56-.82-1.77-.83-2.32,0l-2.87,4.25c-.44.63-1.31.8-1.95.35l-1.39-.96c-.64-.45-.79-1.33-.34-1.97l3.03-4.15c.56-.77.2-1.86-.7-2.15l-4.81-1.55c-.75-.24-1.15-1.06-.88-1.8l.5-1.37c.26-.73,1.06-1.11,1.78-.84l4.69,1.69c.9.33,1.86-.35,1.86-1.31v-4.8c0-.77.63-1.39,1.4-1.39h1.44c.76,0,1.39.62,1.39,1.39v4.75c0,.96.94,1.64,1.85,1.33l4.8-1.66c.72-.25,1.51.13,1.76.85l.5,1.36c.26.74-.13,1.56-.88,1.81Z"/>
    </g>
  </g>
</svg>