<?xml version="1.0" encoding="UTF-8"?>
<svg id="Layer_2" data-name="Layer 2" xmlns="http://www.w3.org/2000/svg" viewBox="0 0 37.5 43.31">
  <defs>
    <style>
      .cls-1 {
        fill-rule: evenodd;
      }
    </style>
  </defs>
  <g id="Layer_1-2" data-name="Layer 1">
    <g>
      <path class="cls-1" d="M20.35,2.33h.29v.29h.29v.29h.58v-.58h-.29v-.29h-.29v-.58h.29v-.29h.29v-.29h.29v-.29h.29v.29h-.29v.29h.58v-.29h.29v.29h.29v-.29h.29v-.29h.29v-.29h-.29v-.29h-.29v.29h-.29v-.29h-.29v.29h-.87v.29h-.87v.29h-.29v.87h-.29v.29h-.29v.29h.29v.29h.29v-.29Z"/>
      <path class="cls-1" d="M23.83.58v.29h.29v-.29h-.29Z"/>
      <path class="cls-1" d="M26.45,3.49h-.29v.29h-.29v.29h-.29v.58h-.29v-.29h-.29v.29h-.58v.29h-.29v.29h.58v.29h.29v-.29h.87v-.29h.29v.58h.29v.29h.29v.29h-.29v.29h.29v.58h.29v.29h-.58v-.87h-.29v.29h-.58v.29h.29v.29h-.29v.29h.29v.58h-.29v.29h.29v.29h-.29v.58h-.29v.29h.29v.29h-.29v.29h.29v.58h.29v-.87h.29v-.29h.29v-.29h.29v.29h.29v-.29h.29v-.29h.29v-.29h.29v-.29h-.29v-.29h.29v-1.16h-.29v-.58h-.29v-.58h-.29v-.87h-.29v-.29h-.29v-.58h.29v-1.45h-.29v-.87h-.29v-.29h-.29v-.29h-.58v-.29h-.29v-.29h-.58v.29h-.29v.29h.58v.29h.58v.29h.29v.58h.29v.29h.29v.58h.29v.29ZM27.03,8.43h-.29v.58h-.29v-.29h-.29v-.29h.29v-.87h.58v.87Z"/>
      <path class="cls-1" d="M23.54,1.16h.29v-.29h-.29v.29Z"/>
      <path class="cls-1" d="M24.42,1.74h.29v-.29h-.29v.29Z"/>
      <path class="cls-1" d="M19.76,2.62v.29h.29v-.29h-.29Z"/>
      <path class="cls-1" d="M20.35,3.49h.29v.58h.29v.58h.29v-.29h.29v.29h.87v-.29h-.58v-.29h-.29v-.29h-.29v-.29h-.29v-.58h-.29v-.29h-.29v.29h-.29v.29h.29v.29Z"/>
      <path class="cls-1" d="M22.96,4.94h-.29v.29h.29v.29h-.29v.29h.58v.29h-.29v.29h.29v.58h.29v.29h.29v.58h.29v.29h.29v.58h.58v.58h.29v-.58h.29v-.29h-.58v-.29h-.29v-.29h-.29v-.58h-.29v-.87h-.29v-.29h-.29v-.29h.29v-.29h-.29v-.29h.29v-.58h-.29v-.58h.29v-.29h.29v-.29h.58v.29h.58v.29h.29v-.29h.29v-.29h-.29v-.29h-.58v-.29h-1.16v.29h-.58v.58h-.29v.29h-.29v.58h.29v.29Z"/>
      <path class="cls-1" d="M19.76,3.2v.29h.29v-.29h-.29Z"/>
      <path class="cls-1" d="M26.16,3.2h-.29v.29h.29v-.29Z"/>
      <path class="cls-1" d="M20.35,3.49h-.29v.29h.29v-.29Z"/>
      <path class="cls-1" d="M36.91,32.26v-.29h.29v-2.03h-.29v-.29h.29v-.29h-.29v-1.16h-.29v-.58h-.29v-.58h-.29v-.58h-.29v-.29h-.29v-.58h-.29v-.29h-.58v-.29h-.29v-.58h-.29v-.29h-.58v.29h.29v.29h-.29v.29h.29v.29h-.29v-.29h-.29v.29h-.29v-.29h-.29v.29h-.29v-.29h-.29v.29h-.29v-.29h.29v-.29h.29v-.29h.29v.29h.29v-.29h.29v-.29h.29v-.29h.29v-.29h-.58v-.29h-.29v-.58h-.29v.29h-.29v-.29h.29v-.29h-.58v-.29h-.29v-.29h-.58v.29h-.29v.29h-.29v.29h-.29v.29h-.29v-.29h.29v-.29h.29v-.29h.29v-.29h.29v-.29h.29v-.58h-.29v-.58h-.29v-.29h-.29v-.29h.29v-.29h-.29v-.58h-.29v-.29h.29v-.29h-.58v-.29h.29v-.29h-.29v-.58h.29v-.29h-.29v-.29h.29v-.29h-.29v-.29h-.29v-.29h-.29v-.29h-.58v-.29h-.29v.29h-.29v-.29h-.58v-.29h-.29v.29h-.29v-.29h-.58v.29h-.29v-.29h-.58v-.29h.29v-.29h.29v-.29h-.29v-.58h-.29v-.29h.29v-.29h-.58v-.29h.29v-.29h.29v.58h.29v-.29h.29v-.29h-.29v-.58h-.29v-.29h-.29v.29h-.29v.29h-.29v-.29h-.29v-.29h-.58v.87h.29v.29h-.29v.29h.29v.58h.58v.29h-.58v.29h.29v.29h.29v.29h-.29v.29h-.58v.29h-.29v.29h-.29v.29h.29v.58h-.29v-.58h-.29v.29h-.29v-.29h.29v-.29h.29v-.29h-.58v-.29h-.29v-.29h-.29v-.29h-.29v-.58h-.29v-2.62h.29v-.29h-.29v-.29h.29v-.29h-.29v-.29h.58v-1.45h.29v-.87h-.29v-.29h-.87v-.29h-.29v-.29h-.58v-.29h-.29v-.58h-.29v-.29h-.58v-.29h-.29v-.29h.29v.29h.58v-.87h-.29v-.29h.29v-.29h-.58v.29h-.29v-.29h-.29v.29h-.29v.58h.29v.29h-.29v-.29h-.87v-.29h-1.16v-.29h-.29v.29h-.29v-.29h-.29v.29h-.29v-.58h-.58v.29h.29v.29h-.29v-.29h-.29v.58h.58v.29h-.29v.29h.29v.29h-.29v.29h.29v.29h-.29v.29h.58v-.29h.58v.29h.29v-.29h.29v-.29h.29v-.29h-.29v-.58h.29v-.29h.29v.58h.29v.29h-.29v.29h-.29v.29h-.29v.29h.29v.58h-.29v-.58h-.29v.29h-.29v-.29h-.29v.29h-.87v-.29h-.29v.58h.58v.29h-.29v.29h.29v.29h-.29v.29h.29v.29h-.29v.29h.58v-.29h.29v.87h-.29v-.29h-.58v-.29h-.29v-.29h-.29v.29h-.29v.29h-.29v-.29h.29v-.29h.29v-.29h.29v-.29h.29v-.29h-.29v-.58h-.29v-.58h-.29v.29h-.29v-.29h-.29v.29h-.58v.58h-.29v.29h.29v.29h-.29v.29h-.29v.29h.29v.29h.29v.29h-.29v-.29h-.29v.29h-.58v.29h-.29v.29h-.29v.29h.29v.29h-.29v.29h.29v.58h.29v-.29h.29v.29h-.29v.58h.29v.29h.29v-.29h.58v.29h-.29v.29h.58v-.29h.29v.29h.29v.29h.29v-.29h.58v.29h.29v-.29h.29v.29h-.29v.29h.58v.29h.58v.29h.29v-.29h.29v-.29h.29v-.29h.29v-.29h.29v.29h-.29v.29h-.29v.29h-.29v.29h.29v.58h.29v-.58h.29v1.16h.29v-.29h.29v.29h.29v.29h.58v.29h.29v-.29h.29v-.29h.29v.29h-.29v.29h-.29v.29h.29v.29h.29v1.16h.29v-.29h.29v-.29h.29v-.58h.29v-.29h.29v-.29h.29v-.29h.29v.29h.29v.29h-.29v.29h.29v.29h-.29v-.29h-.29v.29h-.29v-.29h-.29v.58h-.29v.29h.29v.29h-.29v.29h.58v-.29h.29v-.29h.29v.29h.29v.29h-.29v.29h.58v.29h.29v-.29h.58v.29h.29v-.29h.29v-.29h.29v.29h-.29v.29h-.29v.29h.29v.29h-.29v-.29h-.29v.29h-.29v-.29h-.58v-.29h-.58v-.29h-.29v.29h-.29v.29h.29v.29h-.29v-.29h-.29v.58h-.29v.29h-.29v.29h.29v.29h-.29v.29h.58v.29h.29v-.29h.29v-.29h.29v.29h-.29v.29h-.29v.29h-.29v.29h-.29v-.29h-.29v.58h.29v.29h-.29v.29h.29v.29h-.29v.29h.58v.29h.29v-.29h.29v-.29h.29v-.29h.29v.29h-.29v.29h.29v.29h-.29v-.29h-.29v.29h-.29v.29h-.29v.29h-.29v-.29h-.29v.58h.29v.29h.29v.29h.58v.29h.29v-.29h.58v.29h.29v.29h.29v-.29h.29v-.29h.58v-.29h.29v.29h.58v.29h.29v-.29h.29v.29h.29v-.29h.58v-.29h.29v.29h.58v.29h.29v-.29h.29v.29h.29v-.29h.58v.29h.29v-.29h.29v.58h.29v-.29h.29v.29h.58v.29h.29v-.29h.29v-.29h.29v-.29h.29v.29h-.29v.29h.29v.29h-.29v.29h.29v.58h.29v.29h.29v-.29h.29v.29h-.29v.29h.29v.29h.29v-.29h.58v-.29h.29v-.29h.29v.29h-.29v.29h.29v.29h-.29v.29h.29v.29h-.29v.29h.29v1.16h.29v.29h-.29v.29h.29v.29h.58v-.29h.29v.29h.29v-.29h.29v-.29h-.29v-.29h.29v.29h.29v-.29h.29v.29h-.29v.29h.29v.29h-.29v.29h.29v.29h-.29v-.29h-.29v.29h-.29v-.29h-.29v.29h-.29v-.29h-.29v.58h.29v.29h-.29v.29h.29v.29h.58v-.29h.29v.29h.29v-.29h.29v.29h-.29v.29h.29v.29h-.29v.29h.29v.29h-.29v-.29h-.29v.29h-.29v-.29h-.29v.29h-.29v-.29h-.29v.58h.29v.29h-.29v.29h.29v.29h-.29v.29h.58v-.29h.29v-.29h.29v-.29h.29v-.29h.29v.29h-.29v.29h.29v.29h-.29v.29h.29v.29h-.29v.29h.29v.29h-.29v-.29h-.29v.29h-.29v-.29h-.29v.29h-.29v-.29h-.29v.29h-.58v.29h.29v.29h-.29v.29h.29v.29h-.58v.29h.29v.29h-.29v.29h.29v.29h-.29v-.29h-.29v.29h-.58v.29h-.29v.29h.29v.29h-.29v.29h-.29v-.29h-.29v.29h-.29v.58h-.29v.29h.87v-.29h.29v-.29h.29v-.29h.29v-.29h.29v-.29h.29v-.29h.29v.29h-.29v.29h.29v.29h-.29v.29h.29v.29h-.29v.29h.87v-.29h.29v-.29h.29v-.58h.29v-.29h.29v-.29h.29v-.58h-.29v.29h-.29v-.29h-.29v.29h-.29v-.29h-.29v.29h-.29v-.29h.29v-.29h.29v-.29h.29v-.29h.29v-.29h.29v-.29h.29v-.29h.29v.29h-.29v.29h.29v.29h-.29v.29h.29v.29h-.29v.29h.58v-.87h.29v-.29h.29v-.29h-.29v-.29h.29v-.58h-.29v.29h-.29v-.29h.29v-.29h.29v-.58h.29v-.87h.29v-.29h-.58ZM29.94,20.35h.29v.29h-.29v-.29ZM12.79,11.34h-.29v-.29h.29v.29ZM12.79,10.17h-.29v.29h-.29v-.29h.29v-.29h.29v.29ZM15.11,10.17h-.29v.29h-.29v.29h.29v.29h.29v.29h-.29v-.29h-.29v-.29h-.29v.29h-.29v.29h-.29v-.29h.29v-.29h.29v-.29h.29v-.29h.29v-.29h.29v.29ZM15.99,8.72h.29v.29h-.29v-.29ZM17.44,11.34h-.29v-.29h.29v.29ZM17.44,10.17h-.29v.29h-.29v.29h-.29v.29h-.29v.29h-.29v-.29h.29v-.29h.29v-.29h.29v-.29h.29v-.29h.29v.29ZM17.44,9.01h-.29v-.29h.29v.29ZM17.44,7.85h-.29v.29h-.29v.29h-.29v-.29h.29v-.29h.29v-.29h.29v.29ZM18.02,6.98h-.29v-.29h-.29v.58h-.29v-.87h.87v.58ZM20.06,7.27h.29v.29h-.29v-.29ZM19.47,6.39h.29v.29h-.29v-.29ZM18.89,6.39h.29v.29h-.29v-.29ZM18.31,6.39h.29v.58h-.29v-.58ZM19.76,13.66h-.29v-.29h.29v.29ZM19.76,12.5h-.29v.29h-.29v.29h-.29v.29h-.29v.29h-.29v-.29h.29v-.29h.29v-.29h.29v-.29h.29v-.29h.29v.29ZM20.35,9.59v.29h-.29v.29h-.58v.29h.29v.29h-.29v.29h.29v.29h-.29v-.29h-.29v.29h-.29v-.29h-.29v-.29h.29v-.29h-.29v-.58h.29v-.29h-.29v-.29h.29v-.58h-.29v.29h-.29v-.29h.29v-.29h.29v-.29h.29v-.29h.29v-.29h.29v.29h-.29v.29h-.29v.29h.29v.29h.87v.58h.29v.29h-.29ZM20.93,13.66h-.29v-.29h.29v.29ZM21.51,8.43h-.29v.29h-.29v.29h-.29v-.29h.29v-.29h.29v-.29h.29v.29ZM22.09,22.96h-.29v-.29h.29v.29ZM22.09,20.64h-.29v-.29h.29v.29ZM22.09,18.31h-.29v-.29h.29v.29ZM24.42,21.8h-.29v.29h.29v.29h-.29v.29h.29v.29h-.29v-.29h-.29v-.29h-.29v.29h-.29v.29h-.29v-.29h-.29v.29h-.29v-.29h.29v-.29h.29v.29h.29v-.29h.29v-.29h.29v-.29h.29v-.29h.29v.29ZM24.42,20.64h-.29v-.29h-.29v.29h-.29v-.29h-.29v.29h-.29v-.29h.29v-.29h.29v-.29h.29v-.29h.29v.29h-.29v.29h.29v.29h.29v.29ZM24.42,18.31h-.29v-.29h.29v.29ZM25.29,15.7h.29v.29h-.29v-.29ZM25,18.02v-.29h.29v.29h.29v-.29h.29v-.29h.29v.29h-.29v.29h-.29v.29h-.29v-.29h-.29ZM26.74,22.96h-.29v-.29h.29v.29ZM26.74,21.8h-.29v.29h-.29v.29h-.29v.29h-.29v.29h-.29v-.29h.29v-.29h.29v-.29h.29v-.29h.29v-.29h.29v.29ZM26.74,20.64h-.29v-.29h.29v.29ZM26.74,19.47h-.29v.29h-.29v.29h-.29v.29h-.29v.29h-.29v-.29h.29v-.29h.29v-.29h.29v-.29h.29v-.29h.29v.29ZM26.74,18.31h-.29v-.29h.29v.29ZM26.74,15.99h-.29v-.29h.29v.29ZM27.32,16.28h.29v.29h.29v.29h.29v.29h-.29v-.29h-.29v-.29h-.29v-.29ZM29.07,22.96h-.29v-.29h.29v.29ZM29.07,21.8h-.29v.29h-.29v.29h-.29v.29h-.29v.29h-.29v-.29h.29v-.29h.29v-.29h.29v-.29h.29v-.29h.29v.29ZM29.07,20.64h-.29v-.29h.29v.29ZM29.07,18.89h-.29v.29h.29v.29h-.29v.29h-.29v.87h-.87v-.29h-.29v-.29h.29v-.58h-.29v-.29h-.29v-.29h.29v-.29h-.29v-.58h.29v.29h.29v-.29h.29v-.29h.29v.29h.29v.29h.29v-.29h.29v.87ZM31.39,22.96h-.29v-.29h.29v.29ZM36.04,30.52h-.29v-.29h.29v.29ZM36.04,28.19h-.29v-.29h.29v.29ZM36.04,27.61h-.29v-.29h-.29v.29h-.29v-.29h-.29v.29h-.29v-.29h-.29v.29h-.29v-.29h.29v-.29h.29v-.29h.29v.29h.29v-.29h.29v.29h.29v.29h.29v.29Z"/>
      <path class="cls-1" d="M14.24,4.94h.29v-.29h-.29v.29Z"/>
      <path class="cls-1" d="M22.67,4.94v-.29h-.29v.29h.29Z"/>
      <path class="cls-1" d="M13.95,5.23h.29v-.29h-.29v.29Z"/>
      <path class="cls-1" d="M13.66,5.52h.29v-.29h-.29v.29Z"/>
      <path class="cls-1" d="M14.82,5.23h-.29v.29h.29v-.29Z"/>
      <path class="cls-1" d="M17.15,5.23h-.29v.29h.29v-.29Z"/>
      <path class="cls-1" d="M24.12,5.23h-.29v.29h.29v-.29Z"/>
      <path class="cls-1" d="M14.53,5.52h-.29v.29h.29v-.29Z"/>
      <path class="cls-1" d="M14.24,5.81h-.29v.29h.29v-.29Z"/>
      <path class="cls-1" d="M14.53,6.1h.29v-.29h-.29v.29Z"/>
      <path class="cls-1" d="M26.16,6.1h.29v-.29h-.29v.29Z"/>
      <path class="cls-1" d="M13.95,6.1h-.29v.29h.29v-.29Z"/>
      <path class="cls-1" d="M14.24,6.1v.29h.29v-.29h-.29Z"/>
      <path class="cls-1" d="M25.87,6.1v.29h.29v-.29h-.29Z"/>
      <path class="cls-1" d="M14.53,8.43h.29v-.29h-.29v.29Z"/>
      <path class="cls-1" d="M11.92,8.43v.29h.29v-.29h-.29Z"/>
      <path class="cls-1" d="M19.18,8.43h-.29v.29h.29v-.29Z"/>
      <path class="cls-1" d="M5.81,10.17h-.29v.29h.29v.29h-.29v.29h.58v-.29h.58v-.58h.58v-.29h.29v-.29h.29v-.58h-1.16v-.29h-.29v.29h-.58v.58h-.29v.29h.29v.29Z"/>
      <path class="cls-1" d="M3.49,10.17h-.29v.29h.29v.29h-.29v.29h.58v-.29h.29v-.29h.29v-.29h.29v-.29h.29v-.29h.29v-.29h-.29v-.29h-.29v.29h-.29v.29h-.29v-.29h-.29v-.29h-.29v.58h-.29v.29h.29v.29Z"/>
      <path class="cls-1" d="M4.36,9.01h-.29v.29h.29v-.29Z"/>
      <path class="cls-1" d="M5.52,9.01h-.29v.29h.29v-.29Z"/>
      <path class="cls-1" d="M9.88,11.34h-.29v-.29h-.29v.29h-.29v-.29h-.29v.29h-.29v-.29h.29v-.29h.29v-.29h.29v-.29h.29v-.29h.29v-.29h.29v-.58h-2.03v.58h-.29v.29h.29v.29h-.29v.29h.29v.29h-.29v.29h.29v.29h-.29v-.29h-.29v.29h-.29v-.29h-.29v.29h-.29v-.29h-.29v.29h-.58v.58h-.29v.29h.29v.29h-.29v.29h1.16v-.29h.29v-.29h.29v-.29h.58v-.29h.58v.29h.29v-.29h.29v.29h.29v-.29h.29v.29h.29v-.29h.29v-.58h-.29v.29Z"/>
      <path class="cls-1" d="M10.75,9.88v-.29h.29v-.29h-.29v-.29h-.29v.58h-.29v.29h.58Z"/>
      <path class="cls-1" d="M19.76,9.01v.29h-.29v-.29h-.29v.29h-.29v.29h.58v.29h.58v-.87h-.29Z"/>
      <path class="cls-1" d="M2.03,10.17h.29v-.29h.29v-.29h-.29v-.29h-.29v.29h-.29v.29h.29v.29Z"/>
      <path class="cls-1" d="M2.91,9.3h-.29v.29h.29v-.29Z"/>
      <path class="cls-1" d="M25,9.59v.29h.29v-.29h-.29Z"/>
      <path class="cls-1" d="M2.91,10.17h.29v-.29h-.29v.29Z"/>
      <path class="cls-1" d="M5.52,9.88h-.29v.29h.29v-.29Z"/>
      <path class="cls-1" d="M7.56,10.17h.29v-.29h-.29v.29Z"/>
      <path class="cls-1" d="M10.17,10.17v-.29h-.29v.29h.29Z"/>
      <path class="cls-1" d="M10.75,10.17h.29v-.29h-.29v.29Z"/>
      <path class="cls-1" d="M2.91,10.17h-.29v.29h.29v-.29Z"/>
      <path class="cls-1" d="M5.23,10.17h-.29v.29h.29v-.29Z"/>
      <path class="cls-1" d="M7.56,10.46v-.29h-.29v.29h.29Z"/>
      <path class="cls-1" d="M9.88,10.46v-.29h-.29v.29h.29Z"/>
      <path class="cls-1" d="M10.17,10.46h.58v-.29h-.58v.29Z"/>
      <path class="cls-1" d="M19.18,10.17h-.29v.29h.29v-.29Z"/>
      <path class="cls-1" d="M25,10.46h.29v-.29h-.29v.29Z"/>
      <path class="cls-1" d="M2.33,10.46v.29h.29v-.29h-.29Z"/>
      <path class="cls-1" d="M2.91,10.75h.29v-.29h-.29v.29Z"/>
      <path class="cls-1" d="M4.94,10.46h-.29v.29h.29v-.29Z"/>
      <path class="cls-1" d="M5.52,10.46h-.29v.29h.29v-.29Z"/>
      <path class="cls-1" d="M6.98,10.46v.29h.29v-.29h-.29Z"/>
      <path class="cls-1" d="M7.56,10.75h.29v-.29h-.29v.29Z"/>
      <path class="cls-1" d="M9.59,10.75v-.29h-.29v.29h.29Z"/>
      <path class="cls-1" d="M9.88,10.75h.29v-.29h-.29v.29Z"/>
      <path class="cls-1" d="M10.75,10.75h.29v-.29h-.29v.29Z"/>
      <path class="cls-1" d="M19.18,10.75h.29v-.29h-.29v.29Z"/>
      <path class="cls-1" d="M2.62,10.75v.29h.29v-.29h-.29Z"/>
      <path class="cls-1" d="M4.65,10.75h-.29v.29h.29v-.29Z"/>
      <path class="cls-1" d="M4.94,10.75v.29h.29v-.29h-.29Z"/>
      <path class="cls-1" d="M6.69,10.75v.29h.29v-.29h-.29Z"/>
      <path class="cls-1" d="M7.27,10.75v.29h.29v-.29h-.29Z"/>
      <path class="cls-1" d="M9.01,10.75v.29h.29v-.29h-.29Z"/>
      <path class="cls-1" d="M9.59,11.05h.29v-.29h-.29v.29Z"/>
      <path class="cls-1" d="M10.17,11.05h.58v-.29h-.58v.29Z"/>
      <path class="cls-1" d="M18.89,10.75v.29h.29v-.29h-.29Z"/>
      <path class="cls-1" d="M25.29,11.05h.29v-.29h-.29v.29Z"/>
      <path class="cls-1" d="M2.91,11.63h.29v-.58h-.29v.58Z"/>
      <path class="cls-1" d="M4.65,13.66h-.29v-.29h-.29v.29h-.29v-.29h.29v-.29h.29v-.29h.29v-.29h.29v-.58h.29v-.29h.29v-.58h-.29v.29h-.29v-.29h-.29v.29h-.29v-.29h-.29v.29h-.58v.58h-.29v.29h.29v.29h-.29v.29h.29v.29h-.29v.29h.29v.29h-.29v-.29h-.29v.29h-.29v-.29h-.29v.58h-.29v.29h-.29v.29h-.29v.29h-.29v.29h.29v.29h.29v-.29h.29v-.29h.29v-.29h.58v-.29h.29v-.29h.29v.29h-.29v.29h.29v.29h-.29v.29h.29v.29h-.29v.29h.58v-.29h.29v-.87h.29v-.29h.29v-.29h.29v-.58h-.29v.29Z"/>
      <path class="cls-1" d="M11.05,11.05v.58h.29v-.58h-.29Z"/>
      <path class="cls-1" d="M10.46,11.34v.29h.29v-.29h-.29Z"/>
      <path class="cls-1" d="M25.29,11.34h-.29v.29h.29v-.29Z"/>
      <path class="cls-1" d="M2.62,11.92h.29v-.29h-.29v.29Z"/>
      <path class="cls-1" d="M10.75,11.92h.29v-.29h-.29v.29Z"/>
      <path class="cls-1" d="M11.34,11.92h.29v-.29h-.29v.29Z"/>
      <path class="cls-1" d="M3.2,12.21h-.29v.29h.29v-.29Z"/>
      <path class="cls-1" d="M5.23,12.5h.29v-.29h-.29v.29Z"/>
      <path class="cls-1" d="M13.08,12.21v.29h.29v-.29h-.29Z"/>
      <path class="cls-1" d="M2.91,12.5h-.29v.29h.29v-.29Z"/>
      <path class="cls-1" d="M4.94,12.79h.29v-.29h-.29v.29Z"/>
      <path class="cls-1" d="M13.37,12.79h.29v-.29h-.29v.29Z"/>
      <path class="cls-1" d="M14.24,12.5v.29h.29v-.29h-.29Z"/>
      <path class="cls-1" d="M2.62,12.79h-.29v.29h.29v-.29Z"/>
      <path class="cls-1" d="M2.91,13.08h.29v-.29h-.29v.29Z"/>
      <path class="cls-1" d="M4.65,13.08h.29v-.29h-.29v.29Z"/>
      <path class="cls-1" d="M5.23,13.08h.29v-.29h-.29v.29Z"/>
      <path class="cls-1" d="M14.53,12.79v.29h.29v-.29h-.29Z"/>
      <path class="cls-1" d="M2.03,13.08v.29h.29v-.29h-.29Z"/>
      <path class="cls-1" d="M2.62,13.08v.29h.29v-.29h-.29Z"/>
      <path class="cls-1" d="M4.36,13.37h.29v-.29h-.29v.29Z"/>
      <path class="cls-1" d="M4.94,13.37h.29v-.29h-.29v.29Z"/>
      <path class="cls-1" d="M14.82,13.37h.58v-.29h-.58v.29Z"/>
      <path class="cls-1" d="M15.7,13.66h.29v-.29h-.29v.29Z"/>
      <path class="cls-1" d="M16.28,13.95h.29v-.58h-.29v.58Z"/>
      <path class="cls-1" d="M2.03,13.66h-.29v.29h.29v-.29Z"/>
      <path class="cls-1" d="M1.45,13.95v.29h.29v-.29h-.29Z"/>
      <path class="cls-1" d="M3.2,14.53h-.29v.29h.29v-.29Z"/>
      <path class="cls-1" d="M2.91,14.82h-.29v.29h.29v-.29Z"/>
      <path class="cls-1" d="M23.83,14.82h-.29v.29h.29v-.29Z"/>
      <path class="cls-1" d="M2.62,15.11h-.29v.29h.29v-.29Z"/>
      <path class="cls-1" d="M2.91,15.4h.29v-.29h-.29v.29Z"/>
      <path class="cls-1" d="M18.6,15.11v.29h.29v-.29h-.29Z"/>
      <path class="cls-1" d="M21.8,15.4v-.29h-.29v.29h.29Z"/>
      <path class="cls-1" d="M.87,15.7h.58v-.29h-.58v.29Z"/>
      <path class="cls-1" d="M2.33,15.4h-.29v.29h.29v-.29Z"/>
      <path class="cls-1" d="M2.62,15.7h.29v-.29h-.29v.29Z"/>
      <path class="cls-1" d="M18.89,15.4v.29h.29v-.29h-.29Z"/>
      <path class="cls-1" d="M21.51,15.7v-.29h-.29v.29h.29Z"/>
      <path class="cls-1" d="M2.91,15.99h-.29v-.29h-.29v.29h-.29v-.29h-.29v.29h-.58v.58h-.29v.29h.29v.29h-.29v.29h.29v.29h-.29v.29h.29v.87h-.29v.29h.29v.29h-.29v.29h.29v.29h-.29v.29h.29v.29h-.29v-.29h-.29v.29h-.58v.29h.29v.29h.29v-.29h.58v.29h-.29v.29h.29v.29h-.29v.29h.29v.29h-.29v.29h.29v.87h-.29v.29h.58v.29h-.29v.29h.29v.29h.29v-.29h.58v-.29h.29v-.29h.29v-.87h-.29v-.29h-.29v.29h-.29v-.29h-.29v.29h-.29v-.29h.29v-.29h.29v-.29h.29v-.29h.29v-.58h.29v-.29h-.29v-2.03h.29v-.58h-.29v-.29h-.29v.29h-.29v-.29h-.29v.29h-.29v-.29h.29v-.29h.29v-.29h.29v.29h.29v-.29h.29v-.29h.29v-.29h-.29v-.29h.29v-.87h-.29v.29ZM1.74,20.35v-.29h.29v.29h.29v.29h-.29v-.29h-.29v.29h-.29v-.29h.29Z"/>
      <path class="cls-1" d="M19.18,16.28h.29v-.58h-.29v.58Z"/>
      <path class="cls-1" d="M.87,15.99h-.29v.29h.29v-.29Z"/>
      <path class="cls-1" d="M20.64,16.86v-.29h-.29v.29h.29Z"/>
      <path class="cls-1" d="M.87,16.86h-.29v.29h.29v-.29Z"/>
      <path class="cls-1" d="M20.06,16.86v.29h.29v-.29h-.29Z"/>
      <path class="cls-1" d="M21.8,17.15v-.29h-.29v.29h.29Z"/>
      <path class="cls-1" d="M.29,17.15v.29h.29v-.29h-.29Z"/>
      <path class="cls-1" d="M20.35,17.44h.29v-.29h-.29v.29Z"/>
      <path class="cls-1" d="M21.51,17.15h-.29v.29h.29v-.29Z"/>
      <path class="cls-1" d="M.87,17.44h-.29v.29h.29v-.29Z"/>
      <path class="cls-1" d="M20.06,17.73h.29v-.29h-.29v.29Z"/>
      <path class="cls-1" d="M21.22,17.44h-.29v.29h.29v-.29Z"/>
      <path class="cls-1" d="M.29,17.73v.29h.29v-.29h-.29Z"/>
      <path class="cls-1" d="M2.03,17.73v.29h.29v-.29h-.29Z"/>
      <path class="cls-1" d="M2.91,18.02v-.29h-.29v.29h.29Z"/>
      <path class="cls-1" d="M20.93,17.73h-.29v.29h.29v-.29Z"/>
      <path class="cls-1" d="M22.96,18.02h.29v-.29h-.29v.29Z"/>
      <path class="cls-1" d="M.58,18.31h-.58v.29h.29v.29h.29v-.29h.29v-.58h-.29v.29Z"/>
      <path class="cls-1" d="M20.35,18.02v.58h.29v-.58h-.29Z"/>
      <path class="cls-1" d="M27.9,19.18h.29v-.29h.29v-.29h-.29v-.29h-.29v.29h-.29v.29h-.29v.29h.29v.29h.29v-.29Z"/>
      <path class="cls-1" d="M0,19.18h.29v-.29h-.29v.29Z"/>
      <path class="cls-1" d="M.87,19.18h-.29v.29h.29v-.29Z"/>
      <path class="cls-1" d="M.58,19.47h-.29v.29h.29v-.29Z"/>
      <path class="cls-1" d="M0,19.76v.29h.29v-.29h-.29Z"/>
      <path class="cls-1" d="M.58,20.06h.29v-.29h-.29v.29Z"/>
      <path class="cls-1" d="M.29,20.06v.29h.29v-.29h-.29Z"/>
      <path class="cls-1" d="M20.93,20.06h-.29v.29h.29v-.29Z"/>
      <path class="cls-1" d="M23.54,20.06v.29h.29v-.29h-.29Z"/>
      <path class="cls-1" d="M27.9,20.06h-.29v.29h.29v-.29Z"/>
      <path class="cls-1" d="M.87,21.51h-.29v.29h.29v-.29Z"/>
      <path class="cls-1" d="M.29,21.8v.29h.29v-.29h-.29Z"/>
      <path class="cls-1" d="M.58,22.09v.29h.29v-.29h-.29Z"/>
      <path class="cls-1" d="M2.62,22.38v-.29h-.29v.29h.29Z"/>
      <path class="cls-1" d="M23.83,22.38h.29v-.29h-.29v.29Z"/>
      <path class="cls-1" d="M2.03,22.67h.29v-.29h-.29v.29Z"/>
      <path class="cls-1" d="M19.18,22.38h-.29v.29h.29v-.29Z"/>
      <path class="cls-1" d="M20.06,22.38h-.58v.29h.58v-.29Z"/>
      <path class="cls-1" d="M20.93,22.38h-.29v.29h.29v-.29Z"/>
      <path class="cls-1" d="M.58,23.25h.29v-.58h-.29v.58Z"/>
      <path class="cls-1" d="M18.6,24.42v-.29h.29v-.29h.29v-.29h.29v-.87h-.29v.29h-.29v-.29h-.29v.29h-.29v-.29h-.29v.29h-.58v.58h-.29v.29h.29v.29h-.29v.29h.29v.29h-.29v.29h.58v-.29h.58v-.29h.29Z"/>
      <path class="cls-1" d="M16.28,24.42v-.29h.29v-.29h.29v-.29h.29v-.58h-.29v.29h-.29v.29h-.87v.29h-.29v.29h-.58v.29h.29v.29h-.29v.29h.58v-.29h.58v-.29h.29Z"/>
      <path class="cls-1" d="M19.76,22.96v.29h.29v-.29h-.29Z"/>
      <path class="cls-1" d="M20.35,23.25h-.29v.29h.29v-.29Z"/>
      <path class="cls-1" d="M20.06,23.83v-.29h-.58v.29h.58Z"/>
      <path class="cls-1" d="M20.35,23.83h.29v-.29h-.29v.29Z"/>
      <path class="cls-1" d="M3.2,24.12v-.29h-.29v.29h.29Z"/>
      <path class="cls-1" d="M16.86,24.12h.29v-.29h-.29v.29Z"/>
      <path class="cls-1" d="M19.18,23.83v.29h.29v-.29h-.29Z"/>
      <path class="cls-1" d="M20.06,24.12h.29v-.29h-.29v.29Z"/>
      <path class="cls-1" d="M20.64,24.12h.29v-.29h-.29v.29Z"/>
      <path class="cls-1" d="M23.83,24.12h.29v-.29h-.29v.29Z"/>
      <path class="cls-1" d="M26.16,24.12h.29v-.29h-.29v.29Z"/>
      <path class="cls-1" d="M2.91,24.42v-.29h-.29v.29h.29Z"/>
      <path class="cls-1" d="M3.78,24.42v-.29h-.58v.29h.58Z"/>
      <path class="cls-1" d="M16.86,24.42v-.29h-.29v.29h.29Z"/>
      <path class="cls-1" d="M19.18,24.42v-.29h-.29v.29h.29Z"/>
      <path class="cls-1" d="M20.06,24.12h-.58v.29h.29v.29h-.29v.29h.58v-.29h.29v-.29h-.29v-.29Z"/>
      <path class="cls-1" d="M20.35,24.42h.29v-.29h-.29v.29Z"/>
      <path class="cls-1" d="M21.51,24.12h-.29v.29h.29v-.29Z"/>
      <path class="cls-1" d="M22.09,24.42h.29v-.29h-.29v.29Z"/>
      <path class="cls-1" d="M24.42,24.42h.29v-.29h-.29v.29Z"/>
      <path class="cls-1" d="M25,24.42h.29v-.29h-.29v.29Z"/>
      <path class="cls-1" d="M25.87,24.42h.29v-.29h-.29v.29Z"/>
      <path class="cls-1" d="M26.74,24.42h.29v-.29h-.29v.29Z"/>
      <path class="cls-1" d="M2.62,24.42h-.29v.29h.29v-.29Z"/>
      <path class="cls-1" d="M2.91,24.71h.29v-.29h-.29v.29Z"/>
      <path class="cls-1" d="M14.82,24.42h-.29v.29h.29v-.29Z"/>
      <path class="cls-1" d="M16.57,24.42h-.29v.29h.29v-.29Z"/>
      <path class="cls-1" d="M16.86,24.71h.29v-.29h-.29v.29Z"/>
      <path class="cls-1" d="M18.89,24.42h-.29v.29h.29v-.29Z"/>
      <path class="cls-1" d="M19.18,24.71h.29v-.29h-.29v.29Z"/>
      <path class="cls-1" d="M21.22,24.42h-.29v.29h.29v-.29Z"/>
      <path class="cls-1" d="M22.38,24.71h.29v-.29h-.29v.29Z"/>
      <path class="cls-1" d="M31.1,24.71v-.29h-.29v.29h.29Z"/>
      <path class="cls-1" d="M33.14,24.71h.29v-.29h-.29v.29Z"/>
      <path class="cls-1" d="M1.16,25h.29v-.29h-.29v.29Z"/>
      <path class="cls-1" d="M2.33,24.71h-.29v.29h.29v-.29Z"/>
      <path class="cls-1" d="M2.62,25h.29v-.29h-.29v.29Z"/>
      <path class="cls-1" d="M3.49,25v.29h-.29v-.29h-.29v.29h-.29v-.29h-.29v.29h-.29v-.29h-.29v.58h.29v.29h-.29v.29h.29v.29h.29v-.29h.29v-.29h.58v-.29h.29v.29h-.29v.29h.29v.29h-.29v.29h.29v.29h-.29v.29h.87v-.29h.29v-.29h.29v-.29h.29v-.58h-.29v-.29h-.29v-.58h-.29v.29h-.29v-.58h-.58v.29h.29Z"/>
      <path class="cls-1" d="M13.95,24.71h-.29v.29h.29v-.29Z"/>
      <path class="cls-1" d="M14.53,24.71h-.29v.29h.29v-.29Z"/>
      <path class="cls-1" d="M16.28,24.71h-.29v.29h.29v-.29Z"/>
      <path class="cls-1" d="M16.57,25h.29v-.29h-.29v.29Z"/>
      <path class="cls-1" d="M18.6,24.71h-.29v.29h.29v-.29Z"/>
      <path class="cls-1" d="M18.89,25h.29v-.29h-.29v.29Z"/>
      <path class="cls-1" d="M20.93,24.71h-.29v.29h.29v-.29Z"/>
      <path class="cls-1" d="M21.51,25v-.29h-.29v.29h.29Z"/>
      <path class="cls-1" d="M21.8,25h.58v-.29h-.58v.29Z"/>
      <path class="cls-1" d="M30.52,24.71v.29h.29v-.29h-.29Z"/>
      <path class="cls-1" d="M32.26,24.71v.29h.29v-.29h-.29Z"/>
      <path class="cls-1" d="M32.84,24.71v.29h.29v-.29h-.29Z"/>
      <path class="cls-1" d="M14.53,25.29h-.29v-.29h-.29v.29h-.29v-.29h-.29v.29h-.58v.58h-.29v.29h.29v.29h-.29v.29h.29v.29h-.29v.29h.58v-.29h.29v-.29h.29v-.29h.29v-.29h.29v-.29h.29v-.29h.29v-.58h-.29v.29Z"/>
      <path class="cls-1" d="M16.86,25.29h-.29v-.29h-.29v.29h-.29v-.29h-.29v.29h-.58v.58h-.29v.29h.29v.29h-.29v.29h.29v.29h-.29v.29h.58v-.29h.29v-.29h.29v-.29h.29v-.29h.29v-.29h.29v-.29h.29v-.58h-.29v.29Z"/>
      <path class="cls-1" d="M17.73,25.87h.29v-.29h.29v-.58h-.29v.29h-.58v.58h-.29v.29h.58v-.29Z"/>
      <path class="cls-1" d="M18.6,25.58h.29v-.58h-.29v.58Z"/>
      <path class="cls-1" d="M19.18,25.58h.29v-.58h-.29v.58Z"/>
      <path class="cls-1" d="M21.51,25.29h-.29v-.29h-.29v.29h-.29v-.29h-.29v.29h-.58v.58h-.29v.29h.29v.29h-.29v.29h.29v.29h-.29v.29h.29v.29h-.29v-.29h-.29v.29h-.29v-.29h-.29v.29h-.29v-.29h-.29v.29h-.58v.58h-.29v.29h.29v.29h-.29v.29h.29v.29h-.29v.29h.29v.29h-.29v-.29h-.29v.29h-.29v-.29h-.29v.29h-.29v-.29h-.29v.29h-.58v.58h-.29v.29h.58v-.29h.29v.29h-.29v.29h-.58v.29h.29v.29h-.29v.29h.58v-.29h.29v-.29h.29v-.29h.29v-.29h.29v-.29h.58v-.29h.58v.29h.29v-.29h.29v-.58h.29v-.29h.29v-.29h.29v-.29h.29v-.29h.58v-.29h.29v-.29h.29v-.58h.29v-.29h.29v-.29h.29v-.29h.29v-.29h.58v-.29h-.58v-.87h-.29v.29ZM18.02,29.94h-.29v-.29h.29v.29Z"/>
      <path class="cls-1" d="M30.81,25.29h.29v-.29h-.29v.29Z"/>
      <path class="cls-1" d="M22.09,25.58h.29v-.29h-.29v.29Z"/>
      <path class="cls-1" d="M18.31,25.87h.29v-.29h-.29v.29Z"/>
      <path class="cls-1" d="M18.89,25.87h.29v-.29h-.29v.29Z"/>
      <path class="cls-1" d="M18.02,26.16h.29v-.29h-.29v.29Z"/>
      <path class="cls-1" d="M18.6,26.16h.29v-.29h-.29v.29Z"/>
      <path class="cls-1" d="M3.2,26.16h-.29v.29h.29v-.29Z"/>
      <path class="cls-1" d="M5.52,26.16h-.29v.29h.29v-.29Z"/>
      <path class="cls-1" d="M12.5,26.16h-.29v.29h.29v-.29Z"/>
      <path class="cls-1" d="M14.82,26.16h-.29v.29h.29v-.29Z"/>
      <path class="cls-1" d="M17.15,26.16h-.29v.29h.29v-.29Z"/>
      <path class="cls-1" d="M17.73,26.45h.29v-.29h-.29v.29Z"/>
      <path class="cls-1" d="M18.31,26.45h.29v-.29h-.29v.29Z"/>
      <path class="cls-1" d="M19.47,26.16h-.29v.29h.29v-.29Z"/>
      <path class="cls-1" d="M33.43,26.16h-.29v.29h.29v-.29Z"/>
      <path class="cls-1" d="M2.62,26.45v.29h.29v-.29h-.29Z"/>
      <path class="cls-1" d="M5.23,26.74v-.29h-.29v.29h.29Z"/>
      <path class="cls-1" d="M5.81,26.74v.29h-.29v.29h.87v-.58h-.29v-.29h-.58v.29h.29Z"/>
      <path class="cls-1" d="M11.92,26.45v.29h.29v-.29h-.29Z"/>
      <path class="cls-1" d="M14.53,26.45h-.29v.29h.29v-.29Z"/>
      <path class="cls-1" d="M16.86,26.45h-.29v.29h.29v-.29Z"/>
      <path class="cls-1" d="M17.15,26.45v.29h.58v-.29h-.58Z"/>
      <path class="cls-1" d="M18.02,26.74h.29v-.29h-.29v.29Z"/>
      <path class="cls-1" d="M19.18,26.45h-.29v.29h.29v-.29Z"/>
      <path class="cls-1" d="M32.84,26.45v.29h.29v-.29h-.29Z"/>
      <path class="cls-1" d="M2.91,26.74v.29h.29v-.29h-.29Z"/>
      <path class="cls-1" d="M4.94,27.03v-.29h-.29v.29h.29Z"/>
      <path class="cls-1" d="M5.52,27.03v-.29h-.29v.29h.29Z"/>
      <path class="cls-1" d="M12.21,26.74v.29h.29v-.29h-.29Z"/>
      <path class="cls-1" d="M14.24,26.74h-.29v.29h.29v-.29Z"/>
      <path class="cls-1" d="M14.53,27.03h.29v-.29h-.29v.29Z"/>
      <path class="cls-1" d="M16.57,26.74h-.29v.29h.29v-.29Z"/>
      <path class="cls-1" d="M16.86,27.03h.29v-.29h-.29v.29Z"/>
      <path class="cls-1" d="M17.73,27.03h.29v-.29h-.29v.29Z"/>
      <path class="cls-1" d="M18.89,26.74h-.29v.29h.29v-.29Z"/>
      <path class="cls-1" d="M19.18,27.03h.29v-.29h-.29v.29Z"/>
      <path class="cls-1" d="M33.14,26.74v.29h.29v-.29h-.29Z"/>
      <path class="cls-1" d="M4.65,27.32v-.29h-.29v.29h.29Z"/>
      <path class="cls-1" d="M4.94,27.32h.29v-.29h-.29v.29Z"/>
      <path class="cls-1" d="M6.98,27.03h-.29v.29h.29v-.29Z"/>
      <path class="cls-1" d="M5.81,27.61v.58h-.29v.29h.29v.29h-.29v.29h.29v.58h.29v-.29h.29v-.29h-.29v-.29h.29v-.29h.29v-.29h.29v.29h-.29v.29h.58v.29h.29v.29h.29v-.29h.29v.29h-.29v.29h.29v.29h-.29v-.29h-.29v.29h-.29v-.29h-.29v.58h.29v.29h.29v-.29h.58v.29h-.29v.29h.58v-.29h.29v.29h.29v.29h.29v-.29h.58v-.29h.29v-.29h.29v.29h-.29v.29h.58v.29h.29v.29h.29v-.29h.29v-.29h.29v-.29h.29v-.29h.29v-.58h-.29v.29h-.29v-.29h-.29v.29h-.29v-.29h-.29v.29h-.29v-.29h.29v-.29h.29v-.58h-.29v-.29h-.29v.29h-.58v.29h.29v.29h-.29v.29h.29v.29h-.29v-.29h-.29v.29h-.29v-.29h-.29v.29h-.29v-.29h-.29v.29h-.29v-.29h.29v-.29h.29v-.29h.29v-.29h.29v.29h.29v-.29h.29v-.29h-.29v-.29h-.58v-.29h-.29v-.29h-1.16v-.29h-.29v-.29h-.29v.29h-.29v.29h-.29v-.29h-.29v.29h-.58ZM7.85,28.48h.29v.29h-.29v-.29Z"/>
      <path class="cls-1" d="M13.95,27.03h-.29v.29h.29v-.29Z"/>
      <path class="cls-1" d="M14.24,27.32h.29v-.29h-.29v.29Z"/>
      <path class="cls-1" d="M16.28,27.03h-.29v.29h.29v-.29Z"/>
      <path class="cls-1" d="M16.57,27.32h.29v-.29h-.29v.29Z"/>
      <path class="cls-1" d="M17.44,27.32h.29v-.29h-.29v.29Z"/>
      <path class="cls-1" d="M18.6,27.03h-.29v.29h.29v-.29Z"/>
      <path class="cls-1" d="M18.89,27.03v.29h.29v-.29h-.29Z"/>
      <path class="cls-1" d="M21.51,27.32v-.29h-.29v.29h.29Z"/>
      <path class="cls-1" d="M34.59,27.03v.29h.29v-.29h-.29Z"/>
      <path class="cls-1" d="M35.17,27.03v.29h.29v-.29h-.29Z"/>
      <path class="cls-1" d="M2.91,27.61h.29v-.29h-.29v.29Z"/>
      <path class="cls-1" d="M5.23,27.61h-.29v-.29h-.29v.29h-.29v-.29h-.29v.29h-.58v.29h.29v.29h.29v.29h.29v.29h.29v-.29h.29v-.29h.29v-.29h.29v-.58h-.29v.29Z"/>
      <path class="cls-1" d="M13.37,27.32v.58h.29v-.58h-.29Z"/>
      <path class="cls-1" d="M14.53,27.61h-.29v-.29h-.29v.58h-.29v.29h.29v.29h.29v-.29h.29v-.29h.29v-.58h-.29v.29Z"/>
      <path class="cls-1" d="M16.28,27.9h.29v-.58h-.29v.29h-.29v-.29h-.29v.29h-.58v.58h-.29v.29h.58v-.29h.29v.29h-.29v.29h-.58v.29h.29v.29h-.29v.29h.58v-.29h.29v-.29h.29v-.29h.29v-.29h.29v-.29h-.29v-.29Z"/>
      <path class="cls-1" d="M17.15,27.9v-.58h-.29v.58h.29Z"/>
      <path class="cls-1" d="M20.93,27.9h.29v-.58h-.29v.58Z"/>
      <path class="cls-1" d="M33.14,27.61h.29v-.29h-.29v.29Z"/>
      <path class="cls-1" d="M16.57,28.19h.29v-.29h-.29v.29Z"/>
      <path class="cls-1" d="M20.64,28.19h.29v-.29h-.29v.29Z"/>
      <path class="cls-1" d="M13.37,28.19v.29h.29v-.29h-.29Z"/>
      <path class="cls-1" d="M20.35,28.48h.29v-.29h-.29v.29Z"/>
      <path class="cls-1" d="M5.23,28.48v.29h.29v-.29h-.29Z"/>
      <path class="cls-1" d="M13.66,28.78h.29v-.29h-.29v.29Z"/>
      <path class="cls-1" d="M14.82,28.48h-.29v.29h.29v-.29Z"/>
      <path class="cls-1" d="M17.15,28.48h-.29v.29h.29v-.29Z"/>
      <path class="cls-1" d="M20.06,28.78h.29v-.29h-.29v.29Z"/>
      <path class="cls-1" d="M4.94,29.07h.29v-.29h-.29v.29Z"/>
      <path class="cls-1" d="M12.21,28.78h-.29v.29h.29v-.29Z"/>
      <path class="cls-1" d="M13.37,29.07h.29v-.29h-.29v.29Z"/>
      <path class="cls-1" d="M14.53,28.78h-.29v.29h.29v-.29Z"/>
      <path class="cls-1" d="M16.86,28.78h-.29v.29h.29v-.29Z"/>
      <path class="cls-1" d="M19.47,29.07h.58v-.29h-.58v.29Z"/>
      <path class="cls-1" d="M6.98,29.07v.29h.29v-.29h-.29Z"/>
      <path class="cls-1" d="M9.59,29.36v-.29h-.29v.29h.29Z"/>
      <path class="cls-1" d="M9.88,29.36h.29v-.29h-.29v.29Z"/>
      <path class="cls-1" d="M11.92,29.07h-.29v.29h.29v-.29Z"/>
      <path class="cls-1" d="M12.5,29.36v-.29h-.29v.29h.29Z"/>
      <path class="cls-1" d="M14.24,29.07h-.29v.29h.29v-.29Z"/>
      <path class="cls-1" d="M14.53,29.36h.29v-.29h-.29v.29Z"/>
      <path class="cls-1" d="M16.57,29.07h-.29v.29h.29v-.29Z"/>
      <path class="cls-1" d="M16.86,29.36h.29v-.29h-.29v.29Z"/>
      <path class="cls-1" d="M19.18,29.36h.29v-.29h-.29v.29Z"/>
      <path class="cls-1" d="M35.75,29.36v-.29h-.29v.29h.29Z"/>
      <path class="cls-1" d="M7.56,29.36h-.29v.29h.29v-.29Z"/>
      <path class="cls-1" d="M9.01,29.36v.29h.29v-.29h-.29Z"/>
      <path class="cls-1" d="M9.59,29.36v.29h.29v-.29h-.29Z"/>
      <path class="cls-1" d="M11.63,29.65v-.29h-.29v.29h.29Z"/>
      <path class="cls-1" d="M11.92,29.36v.29h.29v-.29h-.29Z"/>
      <path class="cls-1" d="M13.08,29.65v-.29h-.58v.29h.58Z"/>
      <path class="cls-1" d="M13.95,29.36h-.29v.29h.29v-.29Z"/>
      <path class="cls-1" d="M14.24,29.65h.29v-.29h-.29v.29Z"/>
      <path class="cls-1" d="M16.28,29.36h-.29v.29h.29v-.29Z"/>
      <path class="cls-1" d="M16.57,29.36v.29h.29v-.29h-.29Z"/>
      <path class="cls-1" d="M34.88,29.36h-.29v.29h.29v-.29Z"/>
      <path class="cls-1" d="M35.46,29.65v-.29h-.29v.29h.29Z"/>
      <path class="cls-1" d="M6.39,29.65v.58h.29v-.58h-.29Z"/>
      <path class="cls-1" d="M13.66,29.65h-.29v.58h.29v-.58Z"/>
      <path class="cls-1" d="M14.53,29.94h-.29v-.29h-.29v.58h-.29v.29h-.29v.29h.29v.29h.29v-.29h.29v-.29h.29v-.29h.29v-.58h-.29v.29Z"/>
      <path class="cls-1" d="M12.79,29.94v.29h.29v-.29h-.29Z"/>
      <path class="cls-1" d="M6.69,30.52h.29v-.29h-.29v.29Z"/>
      <path class="cls-1" d="M13.37,30.23h-.29v.29h.29v-.29Z"/>
      <path class="cls-1" d="M12.5,30.52v.29h.58v-.29h-.58Z"/>
      <path class="cls-1" d="M8.43,31.1h.29v-.29h-.29v.29Z"/>
      <path class="cls-1" d="M9.88,31.1h.29v-.29h-.29v.29Z"/>
      <path class="cls-1" d="M12.21,31.1h.29v-.29h-.29v.29Z"/>
      <path class="cls-1" d="M13.37,30.81h-.29v.29h.29v-.29Z"/>
      <path class="cls-1" d="M14.82,30.81h-.29v.29h.29v-.29Z"/>
      <path class="cls-1" d="M10.46,31.39h.29v-.29h-.29v.29Z"/>
      <path class="cls-1" d="M11.92,31.39h.29v-.29h-.29v.29Z"/>
      <path class="cls-1" d="M12.79,31.1v.29h.29v-.29h-.29Z"/>
      <path class="cls-1" d="M13.37,31.39h.29v-.29h-.29v.29Z"/>
      <path class="cls-1" d="M14.53,31.1h-.29v.29h.29v-.29Z"/>
      <path class="cls-1" d="M34.3,31.39h.29v-.29h-.29v.29Z"/>
      <path class="cls-1" d="M35.46,31.1h-.29v.29h.29v-.29Z"/>
      <path class="cls-1" d="M13.08,31.68h.29v-.29h-.29v.29Z"/>
      <path class="cls-1" d="M14.24,31.39h-.29v.29h.29v-.29Z"/>
      <path class="cls-1" d="M14.53,31.68h.29v-.29h-.29v.29Z"/>
      <path class="cls-1" d="M35.17,31.39h-.29v.29h.29v-.29Z"/>
      <path class="cls-1" d="M35.46,31.68h.29v-.29h-.29v.29Z"/>
      <path class="cls-1" d="M13.95,31.68h-.29v.29h.29v-.29Z"/>
      <path class="cls-1" d="M14.24,31.97h.29v-.29h-.29v.29Z"/>
      <path class="cls-1" d="M34.88,31.68h-.29v.29h.29v-.29Z"/>
      <path class="cls-1" d="M35.17,31.68v.29h.29v-.29h-.29Z"/>
      <path class="cls-1" d="M13.37,31.97v.58h.29v-.58h-.29Z"/>
      <path class="cls-1" d="M13.95,32.55h.29v-.58h-.29v.58Z"/>
      <path class="cls-1" d="M14.53,32.55h.29v-.58h-.29v.58Z"/>
      <path class="cls-1" d="M16.57,36.04h.29v-.29h-.29v-1.16h-.58v-.29h.29v-.29h-.29v-1.16h-.29v-.29h.29v-.29h-.87v.58h-.29v.29h.58v.29h-.58v.29h.58v.29h.29v.58h-.58v.29h.29v.29h.29v-.29h.29v.29h-.29v.29h.29v.29h.29v.58h.29v-.29Z"/>
      <path class="cls-1" d="M13.95,32.55h-.29v.29h.29v-.29Z"/>
      <path class="cls-1" d="M14.24,32.84h.29v-.29h-.29v.29Z"/>
      <path class="cls-1" d="M13.37,32.84v.29h.29v-.29h-.29Z"/>
      <path class="cls-1" d="M13.95,33.14h.29v-.29h-.29v.29Z"/>
      <path class="cls-1" d="M13.66,33.43h.29v-.29h-.29v.29Z"/>
      <path class="cls-1" d="M14.82,33.14h-.29v.29h.29v-.29Z"/>
      <path class="cls-1" d="M35.75,33.43v-.29h-.29v.29h.29Z"/>
      <path class="cls-1" d="M13.37,33.72h.29v-.29h-.29v.29Z"/>
      <path class="cls-1" d="M14.53,33.43h-.29v.29h.29v-.29Z"/>
      <path class="cls-1" d="M35.46,33.72v-.29h-.29v.29h.29Z"/>
      <path class="cls-1" d="M14.24,33.72h-.29v.29h.29v-.29Z"/>
      <path class="cls-1" d="M14.53,34.01h.29v-.29h-.29v.29Z"/>
      <path class="cls-1" d="M34.01,34.01h.29v-.29h-.29v.29Z"/>
      <path class="cls-1" d="M35.17,33.72h-.29v.29h.29v-.29Z"/>
      <path class="cls-1" d="M35.46,34.01h.29v-.29h-.29v.29Z"/>
      <path class="cls-1" d="M13.66,34.01v.29h.29v-.29h-.29Z"/>
      <path class="cls-1" d="M14.24,34.3h.29v-.29h-.29v.29Z"/>
      <path class="cls-1" d="M14.82,34.3h.58v-.29h-.58v.29Z"/>
      <path class="cls-1" d="M34.88,34.01h-.29v.29h.29v-.29Z"/>
      <path class="cls-1" d="M35.17,34.01v.29h.29v-.29h-.29Z"/>
      <path class="cls-1" d="M14.24,34.3h-.29v.58h.29v-.58Z"/>
      <path class="cls-1" d="M14.53,34.88h.29v-.58h-.29v.58Z"/>
      <path class="cls-1" d="M13.66,34.88v.29h.29v-.29h-.29Z"/>
      <path class="cls-1" d="M14.24,35.17h.29v-.29h-.29v.29Z"/>
      <path class="cls-1" d="M13.95,35.46h.29v-.29h-.29v.29Z"/>
      <path class="cls-1" d="M15.4,35.17h-.58v.29h.58v-.29Z"/>
      <path class="cls-1" d="M14.82,35.46h-.29v.29h.29v-.29Z"/>
      <path class="cls-1" d="M15.4,35.75h.29v-.29h-.29v.29Z"/>
      <path class="cls-1" d="M35.75,35.75v-.29h-.29v.29h.29Z"/>
      <path class="cls-1" d="M14.24,35.75v.29h.29v-.29h-.29Z"/>
      <path class="cls-1" d="M14.82,36.04h.58v-.29h-.58v.29Z"/>
      <path class="cls-1" d="M15.7,36.04h.29v-.29h-.29v.29Z"/>
      <path class="cls-1" d="M35.46,36.04v-.29h-.29v.29h.29Z"/>
      <path class="cls-1" d="M14.53,36.04v.29h.29v-.29h-.29Z"/>
      <path class="cls-1" d="M15.4,36.33h.29v-.29h-.29v.29Z"/>
      <path class="cls-1" d="M35.17,36.33v-.29h-.29v.29h.29Z"/>
      <path class="cls-1" d="M35.46,36.33h.29v-.29h-.29v.29Z"/>
      <path class="cls-1" d="M14.82,36.62h.58v-.29h-.58v.29Z"/>
      <path class="cls-1" d="M16.28,36.33h-.29v.29h.29v-.29Z"/>
      <path class="cls-1" d="M16.86,36.62v-.29h-.29v.29h.29Z"/>
      <path class="cls-1" d="M34.59,36.33v.29h.29v-.29h-.29Z"/>
      <path class="cls-1" d="M35.17,36.33v.29h.29v-.29h-.29Z"/>
      <path class="cls-1" d="M15.99,36.62h-.29v.58h.29v-.58Z"/>
      <path class="cls-1" d="M18.6,38.66h.29v-.29h-.29v-.58h-.29v-.29h-.29v-.29h-.29v-.29h-.58v-.29h-.29v.29h-.29v-.29h-.29v.58h.29v.29h.29v-.29h.29v.58h.29v.29h-.29v.29h.58v.29h.58v.29h.29v-.29Z"/>
      <path class="cls-1" d="M15.11,36.91v.29h.29v-.29h-.29Z"/>
      <path class="cls-1" d="M15.7,37.2h-.29v.29h.29v-.29Z"/>
      <path class="cls-1" d="M15.99,37.5h.29v-.29h-.29v.29Z"/>
      <path class="cls-1" d="M15.11,37.5v.29h.29v-.29h-.29Z"/>
      <path class="cls-1" d="M15.7,37.79h.29v-.29h-.29v.29Z"/>
      <path class="cls-1" d="M16.28,37.79h.29v-.29h-.29v.29Z"/>
      <path class="cls-1" d="M32.26,37.5h-.29v.29h.29v-.29Z"/>
      <path class="cls-1" d="M15.4,37.79v.29h.29v-.29h-.29Z"/>
      <path class="cls-1" d="M15.99,38.08h.29v-.29h-.29v.29Z"/>
      <path class="cls-1" d="M17.15,37.79h-.29v.29h.29v-.29Z"/>
      <path class="cls-1" d="M33.43,38.08v-.29h-.29v.29h.29Z"/>
      <path class="cls-1" d="M15.7,38.37h.29v-.29h-.29v.29Z"/>
      <path class="cls-1" d="M16.57,38.08v.29h.29v-.29h-.29Z"/>
      <path class="cls-1" d="M33.14,38.37v-.29h-.29v.29h.29Z"/>
      <path class="cls-1" d="M16.28,38.66h.29v-.29h-.29v.29Z"/>
      <path class="cls-1" d="M16.86,38.37v.29h.29v-.29h-.29Z"/>
      <path class="cls-1" d="M32.84,38.66v-.29h-.29v.29h.29Z"/>
      <path class="cls-1" d="M33.14,38.66h.29v-.29h-.29v.29Z"/>
      <path class="cls-1" d="M15.99,38.95h.29v-.29h-.29v.29Z"/>
      <path class="cls-1" d="M17.15,38.95h.58v-.29h-.58v.29Z"/>
      <path class="cls-1" d="M23.25,39.82v.29h-.29v-.29h-1.45v-.29h-.29v-.29h-.29v.29h-.29v-.29h-.58v-.29h-.29v-.29h-.87v.29h.29v.58h.58v.29h-.29v.29h.58v-.29h.29v.29h.29v.29h.29v-.29h.58v.29h.29v-.29h.29v.29h-.29v.29h.58v.29h.29v-.29h.29v-.29h.58v-.58h-.29Z"/>
      <path class="cls-1" d="M32.55,38.95v-.29h-.29v.29h.29Z"/>
      <path class="cls-1" d="M32.84,38.95h.29v-.29h-.29v.29Z"/>
      <path class="cls-1" d="M16.86,39.53h.29v-.58h-.29v.58Z"/>
      <path class="cls-1" d="M18.31,38.95h-.29v.58h.29v-.58Z"/>
      <path class="cls-1" d="M18.6,39.53h.29v-.58h-.29v.58Z"/>
      <path class="cls-1" d="M30.81,39.24h-.29v-.29h-.29v.58h-.29v-.29h-.29v.29h-.29v-.29h-.29v.58h-.29v.29h.29v.29h-.29v.29h.29v.29h-.29v.29h.58v-.29h.29v-.29h.29v-.29h.29v-.29h.29v-.29h.29v-.29h.29v-.58h-.29v.29Z"/>
      <path class="cls-1" d="M33.14,39.24h-.29v-.29h-.29v.29h-.29v-.29h-.29v.29h-.58v.58h-.29v.29h.58v-.29h.29v-.29h.29v.29h-.29v.29h-.29v.29h-.58v.29h.29v.29h-.29v.29h.58v-.29h.29v-.29h.29v-.29h.29v-.29h.29v-.29h.29v-.29h.29v-.58h-.29v.29Z"/>
      <path class="cls-1" d="M34.59,39.24v-.29h-.29v.29h.29Z"/>
      <path class="cls-1" d="M16.28,39.53h.29v-.29h-.29v.29Z"/>
      <path class="cls-1" d="M17.44,39.24v.29h.29v-.29h-.29Z"/>
      <path class="cls-1" d="M33.72,39.53h.29v-.29h-.29v.29Z"/>
      <path class="cls-1" d="M18.02,39.53h-.29v.29h.29v-.29Z"/>
      <path class="cls-1" d="M18.31,39.82h.29v-.29h-.29v.29Z"/>
      <path class="cls-1" d="M18.89,39.82h.29v-.29h-.29v.29Z"/>
      <path class="cls-1" d="M27.9,39.53h-.29v.29h.29v-.29Z"/>
      <path class="cls-1" d="M28.48,39.53h-.29v.29h.29v-.29Z"/>
      <path class="cls-1" d="M17.15,39.82v.29h.58v-.29h-.58Z"/>
      <path class="cls-1" d="M18.02,40.11h.29v-.29h-.29v.29Z"/>
      <path class="cls-1" d="M18.6,40.11h.29v-.29h-.29v.29Z"/>
      <path class="cls-1" d="M25.29,41.86v.29h.29v-.29h.29v-.58h-.29v.29h-.29v-.29h.29v-.29h-.58v-.29h.58v.29h.29v-.29h.29v-.29h.29v-.29h-.58v-.29h-1.74v.29h.29v.29h-.29v.29h.29v.29h-.29v.29h.29v.58h.29v.29h.29v-.29h.29Z"/>
      <path class="cls-1" d="M28.19,40.4v-.58h-.29v.29h-.29v-.29h-.29v.29h-.29v-.29h-.58v.29h.29v.29h-.29v.29h.29v.29h-.29v.29h.58v-.29h.29v-.29h.58v-.29h.29Z"/>
      <path class="cls-1" d="M17.73,40.11v.29h.29v-.29h-.29Z"/>
      <path class="cls-1" d="M18.31,40.4h.29v-.29h-.29v.29Z"/>
      <path class="cls-1" d="M19.47,40.11h-.29v.29h.29v-.29Z"/>
      <path class="cls-1" d="M20.35,40.4v-.29h-.29v.29h.29Z"/>
      <path class="cls-1" d="M24.12,40.11h-.29v.29h.29v-.29Z"/>
      <path class="cls-1" d="M28.78,40.11h-.29v.29h.29v-.29Z"/>
      <path class="cls-1" d="M31.1,40.11h-.29v.29h.29v-.29Z"/>
      <path class="cls-1" d="M18.02,40.69h.29v-.29h-.29v.29Z"/>
      <path class="cls-1" d="M19.18,40.4h-.29v.29h.29v-.29Z"/>
      <path class="cls-1" d="M19.47,40.69h.58v-.29h-.58v.29Z"/>
      <path class="cls-1" d="M20.35,40.69h.29v-.29h-.29v.29Z"/>
      <path class="cls-1" d="M21.51,40.4h-.29v.29h.29v-.29Z"/>
      <path class="cls-1" d="M23.54,40.4v.29h.29v-.29h-.29Z"/>
      <path class="cls-1" d="M28.48,40.69v-.29h-.29v.29h.29Z"/>
      <path class="cls-1" d="M30.81,40.4h-.29v.29h.29v-.29Z"/>
      <path class="cls-1" d="M18.6,40.69v.29h.29v-.29h-.29Z"/>
      <path class="cls-1" d="M19.18,40.98h.29v-.29h-.29v.29Z"/>
      <path class="cls-1" d="M20.06,40.98h.29v-.29h-.29v.29Z"/>
      <path class="cls-1" d="M21.22,40.69h-.29v.29h.29v-.29Z"/>
      <path class="cls-1" d="M21.51,40.98h.29v-.29h-.29v.29Z"/>
      <path class="cls-1" d="M24.12,40.69h-.29v.29h.29v-.29Z"/>
      <path class="cls-1" d="M26.16,40.98h.29v-.29h-.29v.29Z"/>
      <path class="cls-1" d="M28.19,40.69h-.29v.29h.29v-.29Z"/>
      <path class="cls-1" d="M28.48,40.98h.29v-.29h-.29v.29Z"/>
      <path class="cls-1" d="M30.52,40.69h-.29v.29h.29v-.29Z"/>
      <path class="cls-1" d="M30.81,40.98h.29v-.29h-.29v.29Z"/>
      <path class="cls-1" d="M18.89,40.98v.29h.29v-.29h-.29Z"/>
      <path class="cls-1" d="M19.47,41.27h.58v-.29h-.58v.29Z"/>
      <path class="cls-1" d="M20.93,40.98h-.29v.29h.29v-.29Z"/>
      <path class="cls-1" d="M21.22,41.27h.29v-.29h-.29v.29Z"/>
      <path class="cls-1" d="M21.8,41.27h.58v-.29h-.58v.29Z"/>
      <path class="cls-1" d="M23.54,40.98v.29h.29v-.29h-.29Z"/>
      <path class="cls-1" d="M25.87,41.27h.29v-.29h-.29v.29Z"/>
      <path class="cls-1" d="M27.9,40.98h-.29v.29h.29v-.29Z"/>
      <path class="cls-1" d="M28.19,41.27h.29v-.29h-.29v.29Z"/>
      <path class="cls-1" d="M29.94,40.98v.29h.29v-.29h-.29Z"/>
      <path class="cls-1" d="M30.52,40.98v.29h.29v-.29h-.29Z"/>
      <path class="cls-1" d="M19.18,41.56h.29v-.29h-.29v.29Z"/>
      <path class="cls-1" d="M20.35,41.27v.58h.29v-.58h-.29Z"/>
      <path class="cls-1" d="M20.93,41.86h.29v-.58h-.29v.58Z"/>
      <path class="cls-1" d="M21.51,41.86h.29v-.58h-.29v.58Z"/>
      <path class="cls-1" d="M23.83,41.86h.29v-.58h-.29v.58Z"/>
      <path class="cls-1" d="M26.16,41.86h.29v-.58h-.29v.58Z"/>
      <path class="cls-1" d="M27.61,41.27h-.29v.58h.29v-.58Z"/>
      <path class="cls-1" d="M27.9,41.86h.29v-.58h-.29v.58Z"/>
      <path class="cls-1" d="M28.48,41.86h.29v-.58h-.29v.58Z"/>
      <path class="cls-1" d="M29.65,41.86h.29v-.58h-.29v.58Z"/>
      <path class="cls-1" d="M30.23,41.86h.29v-.58h-.29v.58Z"/>
      <path class="cls-1" d="M30.81,41.56h.29v-.29h-.29v.29Z"/>
      <path class="cls-1" d="M19.76,41.56v.29h.29v-.29h-.29Z"/>
      <path class="cls-1" d="M22.09,41.56v.29h.29v-.29h-.29Z"/>
      <path class="cls-1" d="M23.25,41.56v.29h.29v-.29h-.29Z"/>
      <path class="cls-1" d="M26.74,41.56v.29h.29v-.29h-.29Z"/>
      <path class="cls-1" d="M29.07,41.56v.29h.29v-.29h-.29Z"/>
      <path class="cls-1" d="M20.06,42.15h.29v-.29h-.29v.29Z"/>
      <path class="cls-1" d="M20.64,41.86v.29h.29v-.29h-.29Z"/>
      <path class="cls-1" d="M21.22,42.15h.29v-.29h-.29v.29Z"/>
      <path class="cls-1" d="M22.67,41.86h-.29v.29h.29v-.29Z"/>
      <path class="cls-1" d="M23.54,42.15h.29v-.29h-.29v.29Z"/>
      <path class="cls-1" d="M25.87,42.15h.29v-.29h-.29v.29Z"/>
      <path class="cls-1" d="M27.32,41.86h-.29v.29h.29v-.29Z"/>
      <path class="cls-1" d="M27.61,42.15h.29v-.29h-.29v.29Z"/>
      <path class="cls-1" d="M28.19,42.15h.29v-.29h-.29v.29Z"/>
      <path class="cls-1" d="M29.36,42.15h.29v-.29h-.29v.29Z"/>
      <path class="cls-1" d="M20.93,42.44h.29v-.29h-.29v.29Z"/>
      <path class="cls-1" d="M21.8,42.15v.29h.58v-.29h-.58Z"/>
      <path class="cls-1" d="M22.67,42.44h.29v-.29h-.29v.29Z"/>
      <path class="cls-1" d="M23.25,42.44h.29v-.29h-.29v.29Z"/>
      <path class="cls-1" d="M25.29,42.15h-.29v.29h.29v-.29Z"/>
      <path class="cls-1" d="M25.58,42.44h.29v-.29h-.29v.29Z"/>
      <path class="cls-1" d="M26.45,42.15v.29h.58v-.29h-.58Z"/>
      <path class="cls-1" d="M27.32,42.15v.29h.29v-.29h-.29Z"/>
      <path class="cls-1" d="M27.9,42.44h.29v-.29h-.29v.29Z"/>
      <path class="cls-1" d="M22.38,42.73h.29v-.29h-.29v.29Z"/>
      <path class="cls-1" d="M25,42.44h-.29v.29h.29v-.29Z"/>
      <path class="cls-1" d="M25.29,42.73h.29v-.29h-.29v.29Z"/>
      <path class="cls-1" d="M26.16,42.73h.29v-.29h-.29v.29Z"/>
      <path class="cls-1" d="M27.03,42.73h.29v-.29h-.29v.29Z"/>
      <path class="cls-1" d="M27.61,42.73h.29v-.29h-.29v.29Z"/>
      <path class="cls-1" d="M24.42,42.73v.29h.29v-.29h-.29Z"/>
      <path class="cls-1" d="M25,43.02h.29v-.29h-.29v.29Z"/>
      <path class="cls-1" d="M25.87,43.02h.29v-.29h-.29v.29Z"/>
      <path class="cls-1" d="M26.74,43.02h.29v-.29h-.29v.29Z"/>
      <path class="cls-1" d="M24.71,43.31h.29v-.29h-.29v.29Z"/>
    </g>
  </g>
</svg>